<svg xmlns="http://www.w3.org/2000/svg" width="24" height="24" viewBox="0 0 24 24">
    <path fill="#9595EF" fill-rule="nonzero" stroke="#9595EF" stroke-width=".3" d="M20.338 15.697c-.044-.682-.275-1.199-.682-1.551-.407-.352-.913-.528-1.518-.528-.638 0-1.188.187-1.529.561-.363.374-.594.88-.682 1.518h4.411zm2.574-.253c.088.451.088 1.1.088 1.947h-7.15c.055.99.385 1.672 1.034 2.068.385.253.858.374 1.419.374.583 0 1.056-.154 1.397-.451.22-.165.396-.385.55-.682h2.618c-.066.594-.385 1.177-.968 1.782-.858.968-2.09 1.43-3.674 1.43-1.309 0-2.453-.407-3.476-1.21-.968-.803-1.474-2.112-1.474-3.927 0-1.705.451-3.025 1.353-3.905.902-.913 2.068-1.364 3.509-1.364.847 0 1.617.154 2.299.462a3.911 3.911 0 0 1 1.694 1.452c.407.583.66 1.254.781 2.024zM9.338 17.677c0-.715-.297-1.21-.869-1.474-.319-.143-.781-.22-1.375-.253H4.157v3.674H7.05c.594 0 1.056-.077 1.386-.242.605-.297.902-.869.902-1.705zm-5.181-3.971H7.05c.594 0 1.1-.11 1.452-.341.374-.22.55-.627.55-1.199 0-.616-.242-1.056-.726-1.265-.429-.143-.968-.209-1.617-.209H4.157v3.014zm7.535 2.156c.352.55.528 1.221.528 2.002 0 .836-.22 1.54-.605 2.189a3.96 3.96 0 0 1-.968 1.078c-.44.319-.957.561-1.551.682A9.604 9.604 0 0 1 7.171 22H1V8.305h6.6c1.683.033 2.86.495 3.553 1.463.418.583.627 1.276.627 2.09 0 .836-.209 1.507-.627 2.013-.253.286-.583.55-1.045.781.693.253 1.221.66 1.584 1.21zm9.174-5.61h-5.511V8.877h5.511v1.375z"/>
</svg>
