<svg width="559" height="598" viewBox="0 0 559 598" fill="none" xmlns="http://www.w3.org/2000/svg">
<path opacity="0.364357" fill-rule="evenodd" clip-rule="evenodd" d="M802.003 462.604C766.895 488.573 731.277 514.513 693.542 538.812C633.633 577.387 552.64 598.139 450.764 596.952C265.689 594.794 39.6298 542.56 10.0795 446.649C-11.3214 377.201 7.12185 305.674 44.3612 238.177C77.9325 177.325 123.174 105.446 211.186 57.1013C266.203 26.8755 343.152 4.10091 426.955 1.29655C503.092 -1.24631 578.643 12.8056 640.37 34.1794C869.82 113.624 1048.27 284.51 873.868 409.772C849.809 427.052 826.027 444.834 802.003 462.604Z" stroke="#979797"/>
<path opacity="0.364357" fill-rule="evenodd" clip-rule="evenodd" d="M759.393 409.404C733.482 429.713 707.196 449.999 679.346 469.001C635.132 499.169 575.358 515.398 500.172 514.469C363.583 512.781 196.747 471.932 174.939 396.927C159.144 342.616 172.756 286.678 200.239 233.893C225.015 186.304 258.404 130.092 323.359 92.2846C363.962 68.6468 420.752 50.8362 482.601 48.643C538.791 46.6544 594.549 57.6436 640.105 74.3588C809.443 136.488 941.139 270.127 812.43 368.087C794.674 381.601 777.123 395.507 759.393 409.404Z" stroke="#979797"/>
</svg>
