<svg xmlns="http://www.w3.org/2000/svg" xmlns:xlink="http://www.w3.org/1999/xlink" width="1440" height="577" viewBox="0 0 1440 577">
    <defs>
        <path id="a" d="M53 0h1440v577H53z"/>
    </defs>
    <g fill="none" fill-rule="evenodd" transform="translate(-53)">
        <mask id="b" fill="#fff">
            <use xlink:href="#a"/>
        </mask>
        <use fill="#FFF" xlink:href="#a"/>
        <g stroke="#979797" mask="url(#b)">
            <path d="M1701.574 483.714l5.426 391.86C1620.07 921.19 1428.207 944 1131.41 944c-445.194 0-589.81-273.843-545.912-449.443 43.898-175.6 249.818-269.036 530.403-297.03 280.585-27.992 462.216 183.547 585.673 286.187z" opacity=".131"/>
            <path d="M1658 385.43v520.58C1551.483 961.335 1316.389 989 952.718 989c-545.507 0-706.374-281.624-651.609-496.946 54.766-215.322 288.798-374.459 632.605-408.41 343.807-33.95 573.011 177.3 724.286 301.786z" opacity=".226"/>
            <path d="M1668 343.398v585.294C1538.412 990.897 1252.4 1022 809.96 1022c-663.658 0-876.144-274.83-792.74-559.846C100.623 177.137 368.568 42.269 786.84 4.097c418.272-38.17 697.12 199.34 881.16 339.301z" opacity=".364"/>
        </g>
    </g>
</svg>
