<svg xmlns="http://www.w3.org/2000/svg" width="1440" height="818" viewBox="0 0 1440 818">
    <g fill="none" fill-rule="evenodd" stroke="#000" opacity=".11">
        <path d="M-39 191.08C93.829 79.372 295.084-110.195 596.967-79.73c301.883 30.466 450.828 240.344 555.465 365.594 104.637 125.25-93.164 446.837-572.152 446.837-319.325 0-525.752-24.824-619.28-74.473"/>
        <path d="M-40 124.156c162.778-135.38 409.412-365.114 779.362-328.193 369.95 36.922 552.478 291.271 680.709 443.06 128.23 151.79-114.17 541.519-701.158 541.519-391.325 0-644.296-30.085-758.913-90.253"/>
        <path d="M-75 78.639c198.04-152.287 498.099-410.714 948.188-369.18 450.09 41.532 672.157 327.647 828.165 498.393C1857.361 378.598 1562.452 817 848.31 817 372.215 817 64.445 783.158-75 715.475"/>
    </g>
</svg>
