<svg xmlns="http://www.w3.org/2000/svg" width="1440" height="1037" viewBox="0 0 1440 1037">
    <g fill="none" fill-rule="evenodd" stroke="#000" opacity=".11">
        <path d="M-121 410.08C11.829 298.372 213.084 108.805 514.967 139.27c301.883 30.466 450.828 240.344 555.465 365.594 104.637 125.25-93.164 446.837-572.152 446.837-319.325 0-525.752-24.824-619.28-74.473"/>
        <path d="M-122 343.156C40.778 207.776 287.412-21.958 657.362 14.963c369.95 36.922 552.478 291.271 680.709 443.06 128.23 151.79-114.17 541.519-701.158 541.519-391.325 0-644.296-30.085-758.913-90.253"/>
        <path d="M-157 297.639C41.04 145.352 341.099-113.075 791.188-71.541c450.09 41.532 672.157 327.647 828.165 498.393C1775.361 597.598 1480.452 1036 766.31 1036c-476.095 0-783.865-33.842-923.31-101.525"/>
    </g>
</svg>
