<svg width="1440" height="1114" viewBox="0 0 1440 1114" fill="none" xmlns="http://www.w3.org/2000/svg">
<g opacity="0.482111">
<path opacity="0.245414" d="M0.000106812 528.445C132.829 416.736 370.084 185.804 671.967 216.27C973.85 246.736 1122.8 456.614 1227.43 581.864C1332.07 707.114 1134.27 1028.7 655.281 1028.7C176.293 1028.7 -15.749 931.972 -15.749 931.972" stroke="black"/>
<path opacity="0.245414" d="M-16.2754 462.032C146.503 326.653 444.412 55.0415 814.362 91.9632C1184.31 128.885 1366.84 383.234 1495.07 535.023C1623.3 686.813 1380.9 1076.54 793.913 1076.54C206.925 1076.54 -16.2754 964.193 -16.2754 964.193" stroke="black"/>
<path opacity="0.245414" d="M0 374.639C198.039 222.352 498.099 -36.0746 948.188 5.45824C1398.28 46.9911 1620.35 333.106 1776.35 503.852C1932.36 674.598 1637.45 1113 923.31 1113C209.168 1113 0 1011.48 0 1011.48" stroke="black"/>
</g>
</svg>
