<svg xmlns="http://www.w3.org/2000/svg" xmlns:xlink="http://www.w3.org/1999/xlink" width="1440" height="818" viewBox="0 0 1440 818">
    <defs>
        <path id="a" d="M75 295h1440v830H75z"/>
    </defs>
    <g fill="none" fill-rule="evenodd" transform="translate(-75 -295)">
        <mask id="b" fill="#fff">
            <use xlink:href="#a"/>
        </mask>
        <path stroke="#000" d="M36 486.08c132.829-111.709 334.084-301.276 635.967-270.81 301.883 30.466 450.828 240.344 555.465 365.594 104.637 125.25-93.164 446.837-572.152 446.837-319.325 0-525.752-24.824-619.28-74.473" mask="url(#b)" opacity=".11"/>
        <path stroke="#000" d="M35 419.156C197.778 283.776 444.412 54.042 814.362 90.963c369.95 36.922 552.478 291.271 680.709 443.06 128.23 151.79-114.17 541.519-701.158 541.519-391.325 0-644.296-30.085-758.913-90.253" mask="url(#b)" opacity=".11"/>
        <path stroke="#000" d="M0 373.639C198.04 221.352 498.099-37.075 948.188 4.459c450.09 41.532 672.157 327.647 828.165 498.393C1932.361 673.598 1637.452 1112 923.31 1112c-476.095 0-783.865-33.842-923.31-101.525" mask="url(#b)" opacity=".11"/>
    </g>
</svg>
