<svg xmlns="http://www.w3.org/2000/svg" width="24" height="24" viewBox="0 0 24 24" fill="none" style="" ><rect id="backgroundrect" width="100%" height="100%" x="0" y="0" fill="none" stroke="none" class="" style=""/>

<g class="currentLayer" style=""><title>Layer 1</title><path d="M23.899963093388376,2.2903062093851236 C23.024105939709543,2.6685743443511036 22.084296979040055,2.925114244406889 21.096759664871815,3.0396413593155174 C22.105021132532933,2.451190534303831 22.87683884897984,1.5178186213101632 23.242651558361715,0.40905547595277125 C22.296876553504887,0.9540065121177882 21.25292348816159,1.3497017761573258 20.14051791582666,1.564207231552808 C19.249797985400406,0.6380783055374598 17.982798601403957,0.06122463308643413 16.577533526679762,0.06122463308643413 C13.881404891209737,0.06122463308643413 11.695320700036678,2.1917722795962553 11.695320700036678,4.817993530632473 C11.695320700036678,5.1904630893181185 11.73844368609257,5.55425571707165 11.821758969831617,5.902128426914738 C7.764995456856407,5.703532422685505 4.1677220137485635,3.8092505927386924 1.7601196485738422,0.9308122069964657 C1.3392623315055776,1.6323143359862242 1.0998460249418862,2.4497147233732774 1.0998460249418862,3.3222539191444156 C1.0998460249418862,4.9730792792708485 1.9623685465248,6.429673267494575 3.2710255723907755,7.281865112563613 C2.470947646635395,7.255792452790502 1.718472473448506,7.041286997395019 1.0597165277238576,6.684737356619809 V6.744157063376914 C1.0597165277238576,9.04859919783153 2.743114395764348,10.971863442435808 4.975220861133463,11.409582684391463 C4.566264232207322,11.516866812321767 4.135023904904243,11.576317919311442 3.688889400621179,11.576317919311442 C3.37364153241309,11.576317919311442 3.0687766744398175,11.545859693723424 2.769867393909701,11.487873930920113 C3.391455931021616,13.379319273191893 5.193839746994958,14.75475412697937 7.3293172300174785,14.79243440605733 C5.6592958610496655,16.067911852846322 3.5535648650103564,16.825913466964646 1.26643472544323,16.825913466964646 C0.8723618067528824,16.825913466964646 0.4842130652731265,16.80267729486657 0.10204083472490338,16.760705650671397 C2.2627955049622233,18.112904332360795 4.828037504357272,18.901364172067137 7.585103524491707,18.901364172067137 C16.56570610574696,18.901364172067137 21.474609130070263,11.65167847746736 21.474609130070263,5.364420377728042 L21.4581763416946,4.748452482245256 C22.417348779112476,4.081699943960729 23.247152258362696,3.243994072848327 23.899963093388376,2.2903062093851236 z" fill="#9595EF" id="svg_1" class=""/></g></svg>