<svg width="83" height="72" viewBox="0 0 83 72" fill="none" xmlns="http://www.w3.org/2000/svg">
<path opacity="0.1" d="M23.4565 38.3237C26.8934 39.524 29.5569 41.4959 31.4472 44.2394C33.3375 46.9829 34.2826 50.3266 34.2826 54.2704C34.2826 59.4145 32.6501 63.6156 29.3851 66.8735C26.1201 70.1314 22.0818 71.7604 17.2702 71.7604C12.2867 71.7604 8.16253 70.1314 4.89752 66.8735C1.63251 63.4441 0 59.2431 0 54.2704C0 51.8698 0.257764 49.4692 0.773292 47.0687C1.46066 44.4966 2.74948 40.81 4.63975 36.0088L16.7547 0H32.9938L23.4565 38.3237ZM72.1739 38.3237C75.6108 39.524 78.2743 41.4959 80.1646 44.2394C82.0549 46.9829 83 50.3266 83 54.2704C83 59.4145 81.3675 63.6156 78.1025 66.8735C74.8375 70.1314 70.7992 71.7604 65.9876 71.7604C61.0041 71.7604 56.8799 70.1314 53.6149 66.8735C50.3499 63.4441 48.7174 59.2431 48.7174 54.2704C48.7174 51.8698 48.9752 49.4692 49.4907 47.0687C50.1781 44.4966 51.4669 40.81 53.3571 36.0088L65.472 0H81.7112L72.1739 38.3237Z" fill="black"/>
</svg>
