<svg width="39" height="33" viewBox="0 0 39 33" fill="none" xmlns="http://www.w3.org/2000/svg">
<circle cx="12.5" cy="12.5" r="12.5" fill="#FFF07C"/>
<path d="M29.627 13.9609L31.2337 12.3541L32.3426 11.2453C33.5503 10.0375 33.5503 8.07938 32.3426 6.87163V6.87163C31.1348 5.66389 29.1767 5.66389 27.9689 6.87163L26.8819 7.95869L25.2534 9.58722" stroke="#363636" stroke-width="2"/>
<path d="M16.8322 10.6712L13.046 6.88151C12.7767 6.61195 12.7769 6.17511 13.0465 5.9058V5.9058C15.2047 3.74955 18.7029 3.75318 20.8567 5.9139L24.1797 9.24765M28.6649 22.5147L32.2644 26.1175C32.534 26.3873 32.9713 26.3875 33.2411 26.1179V26.1179C35.3998 23.9612 35.4015 20.4629 33.2449 18.3041L30.4634 15.52" stroke="#363636" stroke-width="2"/>
<path d="M13.9671 15.4221L12.1156 15.4507C9.28955 15.4942 7.03308 17.819 7.0738 20.6451V20.6451C7.07889 20.9987 7.3696 21.2811 7.72312 21.276L14.543 21.1778" stroke="#363636" stroke-width="2"/>
<path d="M25.2784 25.2072L25.2416 26.8074C25.1765 29.6429 22.8275 31.8901 19.9919 31.8297V31.8297C19.6366 31.8222 19.3549 31.5277 19.3631 31.1724L19.503 25.0843" stroke="#363636" stroke-width="2"/>
<circle cx="22.1268" cy="17.0039" r="3.63526" stroke="#363636" stroke-width="2"/>
<path d="M13.9152 14.5714C13.6088 15.4265 13.4424 16.345 13.4424 17.3011C13.4424 21.8969 17.2882 25.6225 22.0322 25.6225C26.7762 25.6225 30.622 21.8969 30.622 17.3011C30.622 12.7053 26.7762 8.97974 22.0322 8.97974C20.0382 8.97974 18.2029 9.63791 16.7452 10.7422" stroke="#363636" stroke-width="2" stroke-linecap="round"/>
<circle cx="15.627" cy="12.5991" r="0.739459" fill="#363636"/>
</svg>
