<svg width="110" height="110" viewBox="0 0 110 110" fill="none" xmlns="http://www.w3.org/2000/svg">
<g clip-path="url(#clip0)">
<path d="M63.3804 40.458V64.196L76.2968 71.7655V33.9785L63.3804 27.2568" fill="white"/>
<path d="M63.3804 40.458V64.196L76.2968 71.7655V33.9785L63.3804 27.2568" stroke="black" stroke-width="2" stroke-miterlimit="10" stroke-linejoin="round"/>
<path d="M55.3304 44.5153L55.2703 44.5758C55.1502 44.7575 55.03 44.8786 54.9099 45.0603C54.9099 45.0603 54.9099 45.0603 54.9099 45.1208C54.9099 45.1208 54.9099 45.1208 54.8498 45.1814C53.5882 46.9375 52.8673 49.1175 52.8072 51.1159C52.7471 54.4465 55.2703 56.0815 57.7935 54.7492C59.8361 53.7198 61.3981 51.6609 62.1191 49.4203C62.2993 49.1781 62.7799 48.9964 63.2605 48.9359L76.1169 57.5348C76.4173 57.3532 76.5975 56.9898 76.5975 56.687V54.6281C76.5975 54.3253 76.4773 54.0831 76.2971 53.9015C75.6363 53.2959 74.1344 51.5398 74.3747 48.2697C74.675 44.0914 77.6188 41.003 79.7815 40.1552C81.9443 39.3075 85.5489 38.823 85.4287 42.8197C85.3686 46.8164 83.1458 49.7231 83.1458 50.6314C83.1458 50.9342 83.1458 51.3581 83.1458 51.782C83.1458 52.5692 83.6865 53.962 84.4074 53.5381L96.663 60.5021C96.663 60.5021 108.738 38.278 108.738 37.9147L99.8471 32.7069C99.8471 31.7985 106.636 20.959 100.748 24.2896C100.027 24.7135 95.5817 23.0784 96.1824 22.7757C96.4828 22.594 96.7231 22.2307 96.7231 21.8673V9.69556C96.7231 8.90834 95.882 8.42389 95.2212 8.78722L83.6865 15.3878C83.3861 15.5695 83.1458 15.9328 83.1458 16.2962C83.1458 16.6595 83.1458 17.0834 83.1458 17.3256C83.1458 17.5073 83.1458 17.7495 83.1458 17.9312C83.1458 18.234 83.266 18.4762 83.5063 18.7184C84.047 19.2029 85.1283 19.2029 85.1884 21.5645C85.2485 24.774 83.8667 29.134 80.0218 31.3746C76.237 33.6152 74.5549 29.5579 74.615 27.5596C74.675 25.5612 75.1556 23.9868 75.6963 22.8968C76.177 22.049 76.3572 22.1095 76.4773 21.8068C76.5374 21.6857 76.5374 21.5645 76.5374 21.504V20.7168C76.5374 19.9295 63.3807 27.0751 63.3807 27.4385V41.8508C63.1404 42.0325 62.84 42.2747 62.5997 42.3353" fill="white"/>
<path d="M55.3304 44.5153L55.2703 44.5758C55.1502 44.7575 55.03 44.8786 54.9099 45.0603C54.9099 45.0603 54.9099 45.0603 54.9099 45.1208C54.9099 45.1208 54.9099 45.1208 54.8498 45.1814C53.5882 46.9375 52.8673 49.1175 52.8072 51.1159C52.7471 54.4465 55.2703 56.0815 57.7935 54.7492C59.8361 53.7198 61.3981 51.6609 62.1191 49.4203C62.2993 49.1781 62.7799 48.9964 63.2605 48.9359L76.1169 57.5348C76.4173 57.3532 76.5975 56.9898 76.5975 56.687V54.6281C76.5975 54.3253 76.4773 54.0831 76.2971 53.9015C75.6363 53.2959 74.1344 51.5398 74.3747 48.2697C74.675 44.0914 77.6188 41.003 79.7815 40.1552C81.9443 39.3075 85.5489 38.823 85.4287 42.8197C85.3686 46.8164 83.1458 49.7231 83.1458 50.6314C83.1458 50.9342 83.1458 51.3581 83.1458 51.782C83.1458 52.5692 83.6865 53.962 84.4074 53.5381L96.663 60.5021C96.663 60.5021 108.738 38.278 108.738 37.9147L99.8471 32.7069C99.8471 31.7985 106.636 20.959 100.748 24.2896C100.027 24.7135 95.5817 23.0784 96.1824 22.7757C96.4828 22.594 96.7231 22.2307 96.7231 21.8673V9.69556C96.7231 8.90834 95.882 8.42389 95.2212 8.78722L83.6865 15.3878C83.3861 15.5695 83.1458 15.9328 83.1458 16.2962C83.1458 16.6595 83.1458 17.0834 83.1458 17.3256C83.1458 17.5073 83.1458 17.7495 83.1458 17.9312C83.1458 18.234 83.266 18.4762 83.5063 18.7184C84.047 19.2029 85.1283 19.2029 85.1884 21.5645C85.2485 24.774 83.8667 29.134 80.0218 31.3746C76.237 33.6152 74.5549 29.5579 74.615 27.5596C74.675 25.5612 75.1556 23.9868 75.6963 22.8968C76.1769 22.049 76.3572 22.1095 76.4773 21.8068C76.5374 21.6857 76.5374 21.5645 76.5374 21.504V20.7168C76.5374 19.9295 63.3807 27.0751 63.3807 27.4385V41.8508C63.1404 42.0325 62.84 42.2747 62.5997 42.3353" stroke="black" stroke-width="2" stroke-miterlimit="10" stroke-linejoin="round"/>
<path d="M63.3806 27.2568V41.9114C63.3806 41.9114 62.5396 41.9114 61.8187 41.9114C61.1578 41.9114 59.0551 41.7902 56.592 43.4858C54.3091 45.0603 52.627 48.0881 52.627 51.7214C52.627 53.5987 53.2878 55.4154 54.0087 56.142C55.03 57.3531 65.9039 62.8032 66.9252 62.9849C68.6674 63.3482 70.71 62.2582 71.6111 61.471C73.7138 59.5332 76.2971 49.602 76.2971 49.602L76.1168 33.9785L63.3806 27.2568Z" fill="white" stroke="black" stroke-width="2" stroke-miterlimit="10" stroke-linejoin="round"/>
<path d="M101.349 31.9196C102.851 30.8902 104.834 31.1324 106.275 31.2535C107.237 31.3141 108.258 30.8296 108.919 30.5268C109.219 30.3452 109.459 29.9818 109.459 29.6185V16.1751C109.459 15.3878 108.618 14.9034 107.957 15.2667L96.4228 21.8673C96.1224 22.049 95.8821 22.4123 95.8821 22.7757C95.8821 23.139 95.8821 23.5629 95.8821 23.8051C95.8821 23.9868 95.8821 24.229 95.8821 24.4107C95.8821 24.7135 96.0023 24.9557 96.2426 25.1979C96.7833 25.6823 97.8646 26.8935 97.9247 29.2552C97.9848 32.4646 96.603 36.8247 92.7581 39.0652C88.9733 41.3058 87.2912 37.2485 87.3513 35.2502C87.4113 33.2519 87.892 31.6774 88.4326 30.5874C88.9133 29.7396 89.0935 29.1946 89.2136 28.8918C89.2737 28.7707 89.2737 28.6496 89.2737 28.589V27.8018C89.2737 27.0146 88.4326 26.5301 87.7718 26.954L76.5976 33.6757C76.2972 33.8574 76.117 34.1602 76.117 34.5235V49.5414C75.8767 49.7231 75.5763 49.9653 75.336 50.0259C74.1945 50.5103 73.2934 49.6625 71.3709 50.0864C70.2896 50.3286 70.1093 50.5709 69.4485 51.0553L69.3884 51.1159C69.3283 51.1764 69.2683 51.237 69.2082 51.237C68.9078 51.4792 68.6074 51.7214 68.3671 52.0242C68.307 52.0848 68.247 52.2059 68.1268 52.2664L68.0667 52.327C67.9466 52.5087 67.8264 52.6298 67.7063 52.8114C67.7063 52.8114 67.7063 52.8114 67.7063 52.872C67.7063 52.872 67.7063 52.872 67.6462 52.9326C66.3846 54.6887 65.6637 56.8687 65.6036 58.867C65.5435 62.1976 68.0667 63.8326 70.5899 62.5004C72.6325 61.471 74.1945 59.412 74.9154 57.1715C75.0957 56.9293 75.5763 56.7476 76.0569 56.687V70.9177C76.0569 71.7655 76.958 72.2499 77.679 71.826L88.9133 65.2254C89.2136 65.0438 89.3939 64.6804 89.3939 64.3776V62.3187C89.3939 62.016 89.2737 61.7737 89.0935 61.5921C88.4326 60.9865 86.9307 59.2304 87.171 55.9604C87.4714 51.782 90.4152 48.6936 92.5779 47.8459C94.7407 46.9981 98.3453 46.5136 98.2251 50.5103C98.165 54.507 95.9422 57.4137 95.9422 58.322C95.9422 58.6248 95.9422 59.0487 95.9422 59.4726C95.9422 60.2598 96.7833 60.7443 97.4441 60.3809L108.979 53.6592C109.279 53.4776 109.459 53.1142 109.459 52.7509V38.823C109.459 37.9147 108.378 37.4302 107.777 38.0963C107.237 38.7019 104.713 43.183 102.31 44.273C99.8472 45.3631 97.324 44.6364 96.7232 40.7608C96.0624 37.0063 99.0662 33.4941 101.349 31.9196Z" fill="#9595EF" stroke="black" stroke-width="2" stroke-miterlimit="10" stroke-linejoin="round"/>
<path d="M76.1166 33.9785L63.3804 27.2568L75.636 20.0506L88.6125 26.7723L76.1166 33.9785Z" fill="white" stroke="black" stroke-width="2" stroke-miterlimit="10" stroke-linejoin="round"/>
<path d="M95.8822 22.1701L83.3262 15.7512L95.762 8.60556L108.799 15.0245L95.8822 22.1701Z" fill="white" stroke="black" stroke-width="2" stroke-miterlimit="10" stroke-linejoin="round"/>
<path d="M11.354 70.191V93.929L24.2704 101.499V63.7116L11.354 56.9898" fill="#9595EF"/>
<path d="M11.354 70.191V93.929L24.2704 101.499V63.7116L11.354 56.9898" stroke="black" stroke-width="2" stroke-miterlimit="10" stroke-linejoin="round"/>
<path d="M3.30405 74.2483L3.24397 74.3088C3.12382 74.4905 3.00367 74.6116 2.88351 74.7933C2.88351 74.7933 2.88351 74.7933 2.88351 74.8538C2.88351 74.8538 2.88351 74.8538 2.82344 74.9144C1.56183 76.6705 0.840914 78.8505 0.780837 80.8489C0.720761 84.1795 3.24397 85.8145 5.76718 84.4823C7.80978 83.4528 9.37177 81.3939 10.0927 79.1533C10.2729 78.9111 10.7535 78.7294 11.2341 78.6689L24.0905 87.2678C24.3909 87.0862 24.5711 86.7228 24.5711 86.42V84.3006C24.5711 83.9978 24.451 83.7556 24.2707 83.5739C23.6099 82.9684 22.108 81.2122 22.3483 77.9422C22.6487 73.7638 25.5924 70.6755 27.7552 69.8277C29.9179 68.9799 33.5225 68.4955 33.4024 72.4922C33.3423 76.4889 31.1194 79.3955 31.1194 80.3039C31.1194 80.6067 31.1194 81.0306 31.1194 81.4545C31.1194 82.2417 31.6601 83.6345 32.3811 83.2106L44.6367 90.1745C44.6367 90.1745 56.712 67.9505 56.712 67.5871L47.8207 62.3793C47.8207 61.471 54.6093 50.6314 48.7218 53.962C48.0009 54.3859 43.5553 52.7509 44.156 52.4481C44.4564 52.2665 44.6967 51.9031 44.6967 51.5398V39.4286C44.6967 38.6414 43.8557 38.1569 43.1948 38.5202L31.6601 45.1208C31.3598 45.3025 31.1194 45.6658 31.1194 46.0292C31.1194 46.3925 31.1194 46.8164 31.1194 47.0586C31.1194 47.2403 31.1194 47.4825 31.1194 47.6642C31.1194 47.967 31.2396 48.2092 31.4799 48.4514C32.0206 48.9359 33.102 48.9359 33.162 51.2976C33.2221 54.507 31.8404 58.8671 27.9955 61.1076C24.2107 63.3482 22.5285 59.291 22.5886 57.2926C22.6487 55.2943 23.1293 53.7198 23.67 52.6298C24.1506 51.782 24.3308 51.8426 24.451 51.5398C24.511 51.4187 24.511 51.2976 24.511 51.237V50.3892C24.511 49.602 11.3543 56.7476 11.3543 57.1109V71.5233C11.114 71.7049 10.8136 71.9472 10.5733 72.0077" fill="white"/>
<path d="M3.30405 74.2483L3.24397 74.3088C3.12382 74.4905 3.00367 74.6116 2.88351 74.7933C2.88351 74.7933 2.88351 74.7933 2.88351 74.8538C2.88351 74.8538 2.88351 74.8538 2.82344 74.9144C1.56183 76.6705 0.840914 78.8505 0.780837 80.8489C0.720761 84.1795 3.24397 85.8145 5.76718 84.4823C7.80978 83.4528 9.37177 81.3939 10.0927 79.1533C10.2729 78.9111 10.7535 78.7294 11.2341 78.6689L24.0905 87.2678C24.3909 87.0862 24.5711 86.7228 24.5711 86.42V84.3006C24.5711 83.9978 24.451 83.7556 24.2707 83.5739C23.6099 82.9684 22.108 81.2122 22.3483 77.9422C22.6487 73.7638 25.5924 70.6755 27.7552 69.8277C29.9179 68.9799 33.5225 68.4955 33.4023 72.4922C33.3423 76.4889 31.1194 79.3955 31.1194 80.3039C31.1194 80.6067 31.1194 81.0306 31.1194 81.4545C31.1194 82.2417 31.6601 83.6345 32.3811 83.2106L44.6366 90.1745C44.6366 90.1745 56.712 67.9505 56.712 67.5871L47.8207 62.3793C47.8207 61.471 54.6093 50.6314 48.7218 53.962C48.0009 54.3859 43.5553 52.7509 44.156 52.4481C44.4564 52.2665 44.6967 51.9031 44.6967 51.5398V39.4286C44.6967 38.6414 43.8557 38.1569 43.1948 38.5202L31.6601 45.1208C31.3598 45.3025 31.1194 45.6658 31.1194 46.0292C31.1194 46.3925 31.1194 46.8164 31.1194 47.0586C31.1194 47.2403 31.1194 47.4825 31.1194 47.6642C31.1194 47.967 31.2396 48.2092 31.4799 48.4514C32.0206 48.9359 33.102 48.9359 33.162 51.2976C33.2221 54.507 31.8404 58.8671 27.9955 61.1076C24.2107 63.3482 22.5285 59.291 22.5886 57.2926C22.6487 55.2943 23.1293 53.7198 23.67 52.6298C24.1506 51.782 24.3308 51.8426 24.451 51.5398C24.511 51.4187 24.511 51.2976 24.511 51.237V50.3892C24.511 49.602 11.3543 56.7476 11.3543 57.1109V71.5233C11.114 71.7049 10.8136 71.9472 10.5733 72.0077" stroke="black" stroke-width="2" stroke-miterlimit="10" stroke-linejoin="round"/>
<path d="M11.3543 56.9898V71.6444C11.3543 71.6444 10.5132 71.6444 9.79228 71.6444C9.07137 71.6444 7.02877 71.5233 4.56563 73.2189C2.28273 74.7933 0.600586 77.8211 0.600586 81.4545C0.600586 83.3317 1.26143 85.1484 1.98234 85.8751C3.00364 87.0862 13.8775 92.5362 14.8988 92.7179C16.641 93.0812 18.6836 91.9912 19.5847 91.204C21.6874 89.2662 24.2707 79.335 24.2707 79.335L24.0905 63.7116L11.3543 56.9898Z" fill="#9595EF" stroke="black" stroke-width="2" stroke-miterlimit="10" stroke-linejoin="round"/>
<path d="M49.3228 61.6526C50.8247 60.6232 52.8072 60.8654 54.249 60.9865C55.2102 61.0471 56.2315 60.5626 56.8924 60.2598C57.1928 60.0782 57.4331 59.7148 57.4331 59.3515V45.9081C57.4331 45.1208 56.592 44.6364 55.9312 44.9997L44.3364 51.6003C44.036 51.782 43.7957 52.1453 43.7957 52.5087C43.7957 52.872 43.7957 53.2959 43.7957 53.5381C43.7957 53.7198 43.7957 53.962 43.7957 54.1437C43.7957 54.4465 43.9159 54.6887 44.1562 54.9309C44.6969 55.4154 45.7782 56.6265 45.8383 58.9882C45.8984 62.1976 44.5166 66.5577 40.6717 68.7982C36.8869 71.0388 35.2048 66.9816 35.2649 64.9832C35.3249 62.9849 35.8055 61.4104 36.3462 60.3204C36.8268 59.4726 37.0071 58.9276 37.1272 58.6248C37.1873 58.5037 37.1873 58.3826 37.1873 58.3221V57.5348C37.1873 56.7476 36.3462 56.2632 35.6854 56.687L24.4511 63.3482C24.1507 63.5299 23.9705 63.8327 23.9705 64.196V79.2139C23.7302 79.3955 23.4298 79.6378 23.1895 79.6983C22.048 80.1828 21.1469 79.335 19.2244 79.7589C18.1431 80.0011 17.9628 80.2433 17.302 80.7278L17.2419 80.7883C17.1818 80.8489 17.1218 80.9094 17.0617 80.9094C16.7613 81.1517 16.4609 81.3939 16.2206 81.6967C16.1605 81.7572 16.1005 81.8783 15.9803 81.9389L15.9202 81.9995C15.8001 82.1811 15.6799 82.3022 15.5598 82.4839C15.5598 82.4839 15.5598 82.4839 15.5598 82.5445C15.5598 82.5445 15.5598 82.5445 15.4997 82.605C14.2381 84.3611 13.5172 86.5412 13.4571 88.5395C13.397 91.8701 15.9202 93.5051 18.4435 92.1729C20.4861 91.1434 22.048 89.0845 22.769 86.8439C22.9492 86.6017 23.4298 86.42 23.9104 86.3595V100.651C23.9104 101.498 24.8116 101.983 25.5325 101.559L36.7668 94.9584C37.0672 94.7768 37.2474 94.4134 37.2474 94.1107V92.0518C37.2474 91.749 37.1272 91.5068 36.947 91.3251C36.2862 90.7195 34.7843 88.9634 35.0246 85.6934C35.3249 81.515 38.2687 78.4267 40.4314 77.5789C42.5942 76.7311 46.1988 76.2466 46.0786 80.2433C46.0185 84.24 43.7957 87.1467 43.7957 88.0551C43.7957 88.3578 43.7957 88.7817 43.7957 89.2056C43.7957 89.9929 44.6368 90.4773 45.2976 90.114L56.8323 83.3922C57.1327 83.2106 57.3129 82.8472 57.3129 82.4839V68.556C57.3129 67.6477 56.2315 67.1632 55.6308 67.8293C55.0901 68.4349 52.5669 72.9161 50.1638 74.0061C47.7007 75.0961 45.1775 74.3694 44.5767 70.4938C44.036 66.7393 47.0398 63.2271 49.3228 61.6526Z" fill="white" stroke="black" stroke-width="2" stroke-miterlimit="10" stroke-linejoin="round"/>
<path d="M24.0902 63.7115L11.354 56.9898L23.6096 49.7836L36.5861 56.5054L24.0902 63.7115Z" fill="white" stroke="black" stroke-width="2" stroke-miterlimit="10" stroke-linejoin="round"/>
<path d="M43.8558 51.8426L31.2998 45.4842L43.7356 38.3386L56.7722 44.7575L43.8558 51.8426Z" fill="white" stroke="black" stroke-width="2" stroke-miterlimit="10" stroke-linejoin="round"/>
</g>
<defs>
<clipPath id="clip0">
<rect width="110" height="94.2857" fill="white" transform="translate(0 8)"/>
</clipPath>
</defs>
</svg>
