<svg width="40" height="40" viewBox="0 0 40 40" fill="none" xmlns="http://www.w3.org/2000/svg">
<circle cx="20" cy="20" r="20" fill="#8585FF"/>
<path fill-rule="evenodd" clip-rule="evenodd" d="M19.692 20.557C20.044 21.107 20.22 21.778 20.22 22.559C20.22 23.395 20 24.099 19.615 24.748C19.351 25.177 19.032 25.529 18.647 25.826C18.207 26.145 17.69 26.387 17.096 26.508C16.502 26.629 15.864 26.695 15.171 26.695H9V13H15.6C17.283 13.033 18.46 13.495 19.153 14.463C19.571 15.046 19.78 15.739 19.78 16.553C19.78 17.389 19.571 18.06 19.153 18.566C18.9 18.852 18.57 19.116 18.108 19.347C18.801 19.6 19.329 20.007 19.692 20.557ZM15.05 18.401H12.157V15.387H14.709C15.358 15.387 15.897 15.453 16.326 15.596C16.81 15.805 17.052 16.245 17.052 16.861C17.052 17.433 16.876 17.84 16.502 18.06C16.15 18.291 15.644 18.401 15.05 18.401ZM31 22.086C31 21.239 31 20.59 30.912 20.139C30.791 19.369 30.538 18.698 30.131 18.115C29.691 17.444 29.119 16.971 28.437 16.663C27.755 16.355 26.985 16.201 26.138 16.201C24.697 16.201 23.531 16.652 22.629 17.565C21.727 18.445 21.276 19.765 21.276 21.47C21.276 23.285 21.782 24.594 22.75 25.397C23.773 26.2 24.917 26.607 26.226 26.607C27.81 26.607 29.042 26.145 29.9 25.177C30.483 24.572 30.802 23.989 30.868 23.395H28.25C28.096 23.692 27.92 23.912 27.7 24.077C27.359 24.374 26.886 24.528 26.303 24.528C25.742 24.528 25.269 24.407 24.884 24.154C24.235 23.758 23.905 23.076 23.85 22.086H31ZM27.656 18.841C28.063 19.193 28.294 19.71 28.338 20.392H23.927C24.015 19.754 24.246 19.248 24.609 18.874C24.95 18.5 25.5 18.313 26.138 18.313C26.743 18.313 27.249 18.489 27.656 18.841ZM17.338 22.372C17.338 21.657 17.041 21.162 16.469 20.898C16.15 20.755 15.688 20.678 15.094 20.645H12.157V24.319H15.05C15.644 24.319 16.106 24.242 16.436 24.077C17.041 23.78 17.338 23.208 17.338 22.372ZM23.355 14.947H28.866V13.572H23.355V14.947Z" fill="white"/>
</svg>
