<svg width="40" height="40" viewBox="0 0 40 40" fill="none" xmlns="http://www.w3.org/2000/svg">
<circle cx="20" cy="20" r="20" fill="#8585FF"/>
<path fill-rule="evenodd" clip-rule="evenodd" d="M16.075 11H23.425C26.225 11 28.5 13.275 28.5 16.075V23.425C28.5 26.2278 26.2278 28.5 23.425 28.5H16.075C13.275 28.5 11 26.225 11 23.425V16.075C11 13.2722 13.2722 11 16.075 11ZM15.9 12.75C14.1603 12.75 12.75 14.1603 12.75 15.9V23.6C12.75 25.3412 14.1588 26.75 15.9 26.75H23.6C25.3397 26.75 26.75 25.3397 26.75 23.6V15.9C26.75 14.1587 25.3413 12.75 23.6 12.75H15.9ZM25.4375 15.1562C25.4375 14.5522 24.9478 14.0625 24.3438 14.0625C23.7397 14.0625 23.25 14.5522 23.25 15.1562C23.25 15.7603 23.7397 16.25 24.3438 16.25C24.9478 16.25 25.4375 15.7603 25.4375 15.1562ZM19.75 15.375C22.1663 15.375 24.125 17.3338 24.125 19.75C24.125 22.1662 22.1663 24.125 19.75 24.125C17.3338 24.125 15.375 22.1662 15.375 19.75C15.375 17.3338 17.3338 15.375 19.75 15.375ZM17.125 19.75C17.125 18.3003 18.3002 17.125 19.75 17.125C21.1997 17.125 22.375 18.3003 22.375 19.75C22.375 21.1997 21.1997 22.375 19.75 22.375C18.3002 22.375 17.125 21.1997 17.125 19.75Z" fill="white"/>
</svg>
