<svg width="40" height="40" viewBox="0 0 40 40" fill="none" xmlns="http://www.w3.org/2000/svg">
<circle cx="20" cy="20" r="20" fill="#8585FF"/>
<path fill-rule="evenodd" clip-rule="evenodd" d="M15 11C15 9.89543 14.1046 9 13 9C11.8954 9 11 9.89543 11 11C11 12.1046 11.8954 13 13 13C14.1046 13 15 12.1046 15 11ZM15 15V27H11V15H15ZM29 27H25V20.25C25 19.19 23.81 18.31 22.75 18.31C21.69 18.31 21 19.19 21 20.25V27H17V15H21V17C21.66 15.93 23.36 15.24 24.5 15.24C27 15.24 29 17.28 29 19.75V27Z" fill="white"/>
</svg>
