<svg width="40" height="40" viewBox="0 0 40 40" fill="none" xmlns="http://www.w3.org/2000/svg">
<circle cx="20" cy="20" r="20" fill="#8585FF"/>
<path d="M31 14.0126C30.2274 14.3542 29.397 14.5843 28.5255 14.6881C29.4154 14.1572 30.0987 13.3161 30.4199 12.3138C29.5877 12.8054 28.6655 13.1627 27.6838 13.3554C26.8989 12.5212 25.778 12 24.539 12C21.7574 12 19.7134 14.5852 20.3416 17.2689C16.762 17.0902 13.5875 15.3819 11.4621 12.7853C10.3334 14.7142 10.8768 17.2375 12.7947 18.5153C12.0895 18.4927 11.4245 18.3 10.8444 17.9784C10.7971 19.9666 12.2278 21.8266 14.2997 22.2406C13.6934 22.4045 13.0293 22.4428 12.3537 22.3138C12.9015 24.0187 14.4922 25.259 16.3787 25.2939C14.5675 26.7085 12.2855 27.3404 10 27.072C11.9066 28.2896 14.172 29 16.6045 29C24.6038 29 29.1231 22.2703 28.8501 16.2343C29.6919 15.6285 30.4225 14.8728 31 14.0126Z" fill="white"/>
</svg>
