<svg width="619" height="485" viewBox="0 0 619 485" fill="none" xmlns="http://www.w3.org/2000/svg">
<path d="M385.589 447.888C382.807 444.407 379.752 445.099 372.043 443.376C365.417 441.894 358.491 441.964 351.916 443.659C345.384 445.341 341.406 446.429 338.704 449.494L335.22 451.299L335.229 458.53L335.251 458.709C335.398 463.584 339.38 468.152 347.301 471.414C355.179 474.661 363.961 475.16 372.245 473.164C383.947 470.347 389.825 464.464 390.007 458.534L390.029 458.252V451.297L385.589 447.888Z" fill="#150035"/>
<path d="M362.391 475.553C357.003 475.553 351.689 474.539 346.837 472.54C338.747 469.207 334.2 464.307 334.033 458.744L334 450.555L337.945 448.511C340.965 445.217 345.448 444.063 351.611 442.473C358.297 440.752 365.458 440.655 372.309 442.183C374.451 442.663 376.207 442.95 377.755 443.201C381.749 443.852 384.184 444.248 386.447 447.006L391.247 450.695L391.22 458.633C391.006 465.684 384.017 471.581 372.53 474.348C369.186 475.153 365.773 475.553 362.391 475.553ZM336.44 452.037L336.449 458.526C336.607 463.215 340.618 467.339 347.767 470.285C355.193 473.344 363.786 473.941 371.959 471.975C382.157 469.52 388.607 464.355 388.786 458.497L388.813 458.153L388.809 451.897L384.635 448.647C382.932 446.515 381.187 446.231 377.363 445.608C375.858 445.365 373.989 445.06 371.777 444.566C365.301 443.116 358.534 443.211 352.221 444.84C345.598 446.544 342.032 447.56 339.619 450.3L339.264 450.576L336.44 452.037Z" fill="#150035"/>
<path d="M362.626 467.119C377.76 467.119 390.029 460.035 390.029 451.297C390.029 442.559 377.76 435.476 362.626 435.476C347.491 435.476 335.222 442.559 335.222 451.297C335.222 460.035 347.491 467.119 362.626 467.119Z" fill="white"/>
<path d="M362.624 468.315C355.385 468.315 348.146 466.724 342.636 463.541C337.067 460.328 334.002 455.979 334.002 451.298C334.002 446.617 337.069 442.268 342.636 439.054C353.657 432.691 371.59 432.691 382.611 439.054H382.613C388.18 442.268 391.247 446.617 391.247 451.298C391.247 455.979 388.18 460.328 382.613 463.541C377.101 466.724 369.862 468.315 362.624 468.315ZM362.624 436.686C355.826 436.686 349.03 438.18 343.856 441.165C339.072 443.927 336.44 447.526 336.44 451.298C336.44 455.07 339.075 458.668 343.856 461.43C354.204 467.404 371.043 467.404 381.391 461.43C386.175 458.668 388.807 455.07 388.807 451.298C388.807 447.526 386.173 443.927 381.391 441.165C376.217 438.18 369.421 436.686 362.624 436.686Z" fill="#150035"/>
<path d="M376.157 444.473C368.683 440.703 356.568 440.703 349.094 444.473C341.62 448.241 341.62 454.352 349.094 458.122C356.568 461.89 368.683 461.89 376.157 458.122C383.629 454.352 383.629 448.243 376.157 444.473Z" fill="#150035"/>
<path d="M362.624 462.146C357.524 462.146 352.425 461.167 348.544 459.211C344.495 457.17 342.267 454.361 342.267 451.298C342.267 448.235 344.495 445.426 348.542 443.385C356.306 439.471 368.941 439.471 376.703 443.385C380.75 445.426 382.978 448.235 382.978 451.298C382.978 454.361 380.75 457.17 376.703 459.211C372.824 461.169 367.723 462.146 362.624 462.146ZM362.624 442.855C357.922 442.855 353.22 443.758 349.64 445.562C346.505 447.143 344.706 449.235 344.706 451.298C344.706 453.361 346.505 455.453 349.64 457.034C356.797 460.641 368.446 460.643 375.605 457.034C378.74 455.453 380.539 453.361 380.539 451.298C380.539 449.235 378.74 447.143 375.605 445.562C372.027 443.758 367.325 442.855 362.624 442.855Z" fill="#150035"/>
<path d="M376.158 448.558C368.684 444.79 356.568 444.79 349.094 448.558C346.394 449.92 344.685 451.588 343.935 453.34C344.685 455.092 346.394 456.759 349.094 458.122C356.568 461.89 368.684 461.89 376.158 458.122C378.858 456.759 380.566 455.092 381.317 453.34C380.566 451.588 378.856 449.92 376.158 448.558Z" fill="#BBBBFF"/>
<path d="M362.624 462.146C357.524 462.146 352.425 461.167 348.544 459.211C345.685 457.77 343.704 455.907 342.814 453.821L342.608 453.34L342.814 452.86C343.706 450.772 345.687 448.909 348.544 447.47C356.308 443.552 368.941 443.552 376.706 447.47C379.562 448.909 381.543 450.772 382.436 452.86L382.64 453.34L382.436 453.821C381.545 455.907 379.562 457.77 376.706 459.211C372.824 461.169 367.723 462.146 362.624 462.146ZM345.293 453.34C346.056 454.707 347.548 455.977 349.642 457.034C356.799 460.641 368.449 460.643 375.607 457.034C377.701 455.977 379.194 454.709 379.956 453.34C379.191 451.972 377.701 450.704 375.607 449.647C368.449 446.038 356.801 446.038 349.642 449.647C347.548 450.704 346.058 451.972 345.293 453.34Z" fill="#150035"/>
<path d="M378.895 464.973H377.019V470.934H378.895V464.973Z" fill="#BBBBFF"/>
<path d="M340.18 459.936H338.304V465.897H340.18V459.936Z" fill="#BBBBFF"/>
<path d="M366.126 441.887H364.25V445.733H366.126V441.887Z" fill="#BBBBFF"/>
<path d="M348.519 449.279V452.546L353.039 454.217L355.152 450.781L355.216 450.744L371.136 459.935C372.507 459.591 373.807 459.162 375.015 458.643L376.734 457.651V454.386L355.605 445.453L348.519 449.279Z" fill="#150035"/>
<path d="M370.994 460.939L355.504 451.996L353.433 455.364L347.579 453.2V448.721L355.552 444.415L377.668 453.764V458.194L375.481 459.455C374.152 460.034 372.797 460.486 371.363 460.849L370.994 460.939ZM355.143 449.696L355.683 449.933L371.27 458.932C372.474 458.61 373.607 458.225 374.642 457.782L375.792 457.114V455.007L355.652 446.492L349.457 449.838V451.891L352.641 453.07L354.471 450.093L355.143 449.696Z" fill="#150035"/>
<path d="M355.214 447.478L355.15 447.515L353.037 450.949L348.519 449.277L351.54 444.53L355.603 442.185L376.726 454.381C376.728 454.383 376.728 454.385 376.726 454.387L371.954 457.143L355.214 447.478Z" fill="white"/>
<path d="M371.954 458.227L355.504 448.731L353.435 452.099L347.103 449.757L350.873 443.834L355.603 441.103L377.39 453.719L377.833 454.162L377.472 455.04L371.954 458.227ZM355.156 446.435L355.686 446.666L371.957 456.061L374.859 454.385L355.607 443.269L352.212 445.229L349.937 448.803L352.643 449.805L354.48 446.818L355.156 446.435Z" fill="#150035"/>
<path d="M418.958 461.53C417.595 457.288 414.491 456.849 407.897 452.5C402.231 448.761 395.73 446.366 388.982 445.614C382.279 444.865 378.173 444.47 374.56 446.374L370.662 446.826L368.102 453.588L368.059 453.766C366.463 458.374 368.564 464.059 374.809 469.923C381.02 475.756 389.052 479.343 397.505 480.419C409.443 481.94 417.028 478.531 419.304 473.052L419.426 472.796L421.895 466.296L418.958 461.53Z" fill="#150035"/>
<path d="M402.992 482.001C401.207 482.001 399.323 481.878 397.35 481.626C388.502 480.499 380.199 476.657 373.975 470.809C367.595 464.819 365.087 458.624 366.907 453.365L366.962 453.155L369.786 445.7L374.199 445.191C378.192 443.185 382.79 443.694 389.118 444.405C395.982 445.172 402.709 447.621 408.569 451.486C410.4 452.693 411.939 453.584 413.296 454.371C416.802 456.399 418.937 457.634 420.073 461.019L423.251 466.172L420.407 473.582C418.154 478.992 411.808 481.999 402.992 482.001ZM371.54 447.951L369.242 454.017C367.723 458.457 370.007 463.737 375.642 469.03C381.498 474.528 389.316 478.143 397.658 479.206C408.069 480.532 415.926 477.992 418.177 472.582L418.325 472.269L420.543 466.423L417.797 461.903C416.963 459.304 415.431 458.417 412.075 456.476C410.758 455.713 409.118 454.765 407.228 453.518C401.687 449.861 395.333 447.547 388.848 446.823C382.054 446.067 378.357 445.749 375.131 447.452L374.702 447.584L371.54 447.951Z" fill="#150035"/>
<path d="M421.887 466.259C424.991 458.091 416.038 447.111 401.891 441.735C387.743 436.359 373.758 438.623 370.654 446.792C367.55 454.96 376.503 465.94 390.651 471.315C404.799 476.691 418.784 474.427 421.887 466.259Z" fill="white"/>
<path d="M405.709 475.482C393.978 475.484 380.28 469.528 373.247 460.904C369.182 455.92 367.861 450.765 369.525 446.389C371.186 442.015 375.599 439.039 381.947 438.012C394.514 435.984 411.274 442.351 419.314 452.214C423.379 457.198 424.7 462.353 423.039 466.728C421.376 471.102 416.965 474.079 410.616 475.105C409.035 475.361 407.391 475.482 405.709 475.482ZM386.942 440.067C385.359 440.067 383.817 440.183 382.337 440.424C376.885 441.306 373.144 443.734 371.804 447.259C370.464 450.785 371.648 455.083 375.139 459.364C382.689 468.627 398.431 474.608 410.225 472.7C415.679 471.818 419.417 469.39 420.757 465.865C422.097 462.338 420.914 458.039 417.422 453.762C410.82 445.659 397.954 440.067 386.942 440.067Z" fill="#150035"/>
<path d="M411.352 454.988C405.705 448.811 394.378 444.507 386.053 445.375C377.728 446.242 375.558 451.956 381.205 458.133C386.853 464.311 398.179 468.614 406.504 467.747C414.829 466.877 417 461.165 411.352 454.988Z" fill="#150035"/>
<path d="M404.334 469.074C395.994 469.074 385.67 464.819 380.307 458.953C377.25 455.608 376.164 452.189 377.252 449.328C378.34 446.465 381.422 444.63 385.93 444.16C394.582 443.266 406.387 447.747 412.255 454.165C415.312 457.511 416.398 460.93 415.31 463.791C414.221 466.654 411.14 468.488 406.632 468.958C405.886 469.037 405.119 469.074 404.334 469.074ZM388.3 446.481C387.576 446.481 386.869 446.516 386.181 446.586C382.687 446.951 380.263 448.266 379.53 450.195C378.796 452.125 379.736 454.716 382.106 457.309C387.515 463.226 398.391 467.359 406.379 466.532C409.872 466.167 412.294 464.852 413.028 462.923C413.762 460.994 412.822 458.401 410.451 455.808C405.509 450.401 395.988 446.481 388.3 446.481Z" fill="#150035"/>
<path d="M409.901 458.807C404.253 452.629 392.927 448.324 384.602 449.193C381.595 449.507 379.404 450.459 378.082 451.832C378.161 453.734 379.167 455.903 381.205 458.135C386.853 464.312 398.179 468.616 406.504 467.748C409.511 467.435 411.702 466.483 413.026 465.112C412.947 463.203 411.941 461.037 409.901 458.807Z" fill="#BBBBFF"/>
<path d="M404.332 469.073C395.992 469.073 385.668 464.819 380.304 458.953C378.146 456.591 376.957 454.144 376.864 451.877L376.844 451.355L377.204 450.98C378.779 449.348 381.294 448.309 384.476 447.977C393.121 447.085 404.934 451.564 410.802 457.982C412.96 460.344 414.149 462.791 414.244 465.056L414.267 465.578L413.904 465.953C412.327 467.585 409.812 468.624 406.632 468.956C405.886 469.036 405.117 469.073 404.332 469.073ZM379.352 452.312C379.581 453.862 380.525 455.577 382.106 457.308C387.515 463.226 398.395 467.365 406.376 466.532C408.708 466.289 410.552 465.633 411.754 464.625C411.525 463.075 410.581 461.36 409 459.627C403.592 453.711 392.719 449.579 384.73 450.403C382.397 450.648 380.552 451.306 379.352 452.312Z" fill="#150035"/>
<path d="M404.902 474.47L402.783 480.042L404.536 480.708L406.655 475.137L404.902 474.47Z" fill="#BBBBFF"/>
<path d="M370.522 455.991L368.402 461.563L370.155 462.23L372.275 456.658L370.522 455.991Z" fill="#BBBBFF"/>
<path d="M401.125 448.36L399.756 451.956L401.509 452.623L402.878 449.027L401.125 448.36Z" fill="#BBBBFF"/>
<path d="M383.808 449.662L382.648 452.715L386.28 455.883L389.475 453.422L389.549 453.409L401.166 467.656C402.567 467.821 403.938 467.883 405.251 467.825L407.209 467.508L408.37 464.455L391.793 448.6L383.808 449.662Z" fill="#150035"/>
<path d="M404.216 468.782C403.167 468.782 402.122 468.716 401.054 468.588L400.677 468.545L389.376 454.685L386.243 457.097L381.541 452.993L383.132 448.807L392.115 447.611L409.466 464.21L407.893 468.351L405.399 468.755C405.004 468.773 404.61 468.782 404.216 468.782ZM401.65 466.766C402.887 466.898 404.082 466.945 405.21 466.889L406.525 466.673L407.273 464.705L391.472 449.592L384.489 450.52L383.761 452.441L386.319 454.671L389.087 452.54L389.856 452.406L390.277 452.818L401.65 466.766Z" fill="#150035"/>
<path d="M390.71 450.357L390.635 450.369L387.441 452.83L383.809 449.662L388.321 446.298L392.952 445.548L408.366 464.451C408.368 464.453 408.366 464.455 408.364 464.457L402.924 465.337L390.71 450.357Z" fill="white"/>
<path d="M402.539 466.351L390.536 451.63L387.403 454.042L382.318 449.604L387.945 445.407L393.338 444.533L409.629 464.517L408.813 465.335L402.539 466.351ZM391.015 449.35L391.435 449.763L403.307 464.325L406.62 463.789L392.567 446.562L388.698 447.186L385.303 449.719L387.478 451.616L390.246 449.484L391.015 449.35Z" fill="#150035"/>
<path d="M110.738 230.418L110.543 230.568V230.814V241.129C110.543 248.573 113.731 253.927 119.288 255.167L124.639 256.36L124.959 256.431L125.152 256.165L130.502 248.794C135.785 241.517 138.951 232.755 138.951 225.306V214.99V214.262L138.271 214.523L124.567 219.792L124.499 219.818L124.442 219.863L110.738 230.418ZM124.196 264.03C117.536 267.876 111.623 268.196 107.408 265.793C103.195 263.39 100.5 258.165 100.5 250.525C100.5 242.888 103.201 234.381 107.593 226.806C111.984 219.232 118.039 212.636 124.696 208.792C131.357 204.946 137.27 204.626 141.485 207.029C145.698 209.431 148.392 214.657 148.392 222.297C148.392 229.934 145.691 238.441 141.3 246.016C136.908 253.59 130.854 260.186 124.196 264.03Z" fill="#7684CA" stroke="black"/>
<path d="M122.518 238.694L122.949 238.939L123.198 238.51L130.508 225.9L132.57 227.076L122.581 244.306L117.277 241.282L119.707 237.092L122.518 238.694Z" fill="#7684CA" stroke="black"/>
<path d="M113.407 231.599L113.212 231.749V231.995V242.31C113.212 249.754 116.4 255.108 121.957 256.347L127.308 257.541L127.629 257.612L127.822 257.346L133.172 249.975C138.454 242.698 141.62 233.936 141.62 226.487V216.171V215.443L140.941 215.704L127.237 220.973L127.169 220.999L127.111 221.044L113.407 231.599ZM126.866 265.211L127.116 265.644L126.866 265.211C120.205 269.057 114.292 269.377 110.077 266.974C105.864 264.571 103.169 259.346 103.169 251.706C103.169 244.069 105.871 235.562 110.262 227.987C114.654 220.413 120.708 213.817 127.366 209.973C134.026 206.127 139.939 205.807 144.154 208.21C148.367 210.612 151.062 215.838 151.062 223.478C151.062 231.115 148.361 239.622 143.969 247.197C139.578 254.772 133.523 261.368 126.866 265.211Z" fill="#9595EF" stroke="black"/>
<path d="M124.454 238.693L124.885 238.939L125.134 238.51L132.445 225.9L134.507 227.076L124.518 244.306L119.214 241.282L121.644 237.092L124.454 238.693Z" fill="#9595EF" stroke="black"/>
<path d="M121.46 236.412H119.523L116.592 241.467H118.529L121.46 236.412Z" fill="#9595EF"/>
<mask id="path-36-inside-1" fill="white">
<path d="M122.765 244.986H124.701L118.529 241.467H116.592L122.765 244.986Z"/>
</mask>
<path d="M122.765 244.986H124.701L118.529 241.467H116.592L122.765 244.986Z" fill="#9595EF"/>
<path d="M122.765 244.986L122.27 245.855L122.5 245.986H122.765V244.986ZM124.701 244.986V245.986H128.474L125.197 244.118L124.701 244.986ZM118.529 241.467L119.024 240.598L118.794 240.467H118.529V241.467ZM116.592 241.467V240.467H112.819L116.097 242.336L116.592 241.467ZM122.765 245.986H124.701V243.986H122.765V245.986ZM125.197 244.118L119.024 240.598L118.034 242.336L124.206 245.855L125.197 244.118ZM118.529 240.467H116.592V242.467H118.529V240.467ZM116.097 242.336L122.27 245.855L123.26 244.118L117.087 240.598L116.097 242.336Z" fill="black" mask="url(#path-36-inside-1)"/>
<path d="M130.324 225.22H132.261L124.701 238.259L123.246 237.43L130.324 225.22Z" fill="#9595EF"/>
<path d="M382.094 477.771C382.309 477.665 382.523 477.556 382.736 477.447C382.525 477.556 382.309 477.665 382.094 477.771Z" fill="#15100C"/>
<path d="M381.319 478.152C381.578 478.025 381.838 477.898 382.094 477.771C381.838 477.9 381.578 478.027 381.319 478.152Z" fill="#15100C"/>
<path d="M380.829 478.388C380.994 478.309 381.158 478.231 381.321 478.152C381.156 478.231 380.992 478.311 380.829 478.388Z" fill="#15100C"/>
<path d="M379.778 478.874C379.929 478.806 380.08 478.737 380.229 478.669C380.08 478.737 379.929 478.806 379.778 478.874Z" fill="#15100C"/>
<path d="M378.328 479.513C378.471 479.453 378.614 479.391 378.757 479.328C378.614 479.391 378.471 479.451 378.328 479.513Z" fill="#15100C"/>
<path d="M377.684 479.785C377.899 479.694 378.115 479.603 378.328 479.511C378.115 479.603 377.899 479.696 377.684 479.785Z" fill="#15100C"/>
<path d="M374.907 480.876C375.157 480.784 375.407 480.689 375.654 480.594C375.407 480.689 375.157 480.784 374.907 480.876Z" fill="#15100C"/>
<path d="M374.108 481.168C374.376 481.072 374.642 480.975 374.907 480.876C374.642 480.975 374.376 481.074 374.108 481.168Z" fill="#15100C"/>
<path d="M369.7 482.614C370.072 482.503 370.443 482.391 370.811 482.276C370.445 482.389 370.074 482.503 369.7 482.614Z" fill="#15100C"/>
<path d="M367.749 483.17C367.94 483.118 368.131 483.063 368.323 483.011C368.131 483.065 367.94 483.118 367.749 483.17Z" fill="#15100C"/>
<path d="M366.824 483.417C367.135 483.337 367.441 483.254 367.749 483.17C367.443 483.254 367.135 483.337 366.824 483.417Z" fill="#15100C"/>
<path d="M365.212 483.826C365.56 483.742 365.904 483.655 366.249 483.569C365.904 483.655 365.558 483.742 365.212 483.826Z" fill="#15100C"/>
<path d="M364.473 484.001C364.72 483.943 364.968 483.884 365.214 483.826C364.966 483.884 364.718 483.943 364.473 484.001Z" fill="#15100C"/>
<path d="M67.6985 183.809C67.9683 183.801 68.2341 183.794 68.5039 183.788C53.5989 194.479 40.9692 206.07 30.7419 218.447C30.6372 218.304 30.5345 218.163 30.4338 218.021C40.5625 205.816 53.021 194.376 67.6985 183.809Z" fill="#BBBBFF"/>
<path d="M466.436 296.162C466.573 320.472 450.355 343.331 420.774 360.522C391.192 377.713 351.786 387.179 309.816 387.179C267.845 387.179 228.334 377.713 198.56 360.522C168.784 343.331 152.31 320.472 152.173 296.162C152.036 271.851 168.25 248.996 197.833 231.803C227.413 214.613 266.824 205.145 308.795 205.145C350.766 205.145 390.281 214.613 420.057 231.803C449.829 248.994 466.299 271.851 466.436 296.162ZM309.816 386.949C351.684 386.947 390.986 377.505 420.492 360.357C449.998 343.211 466.174 320.412 466.037 296.162C465.898 271.909 449.469 249.113 419.769 231.966C390.07 214.82 350.657 205.376 308.793 205.376C266.929 205.376 227.623 214.82 198.117 231.966C168.611 249.115 152.439 271.911 152.572 296.162C152.709 320.41 169.14 343.209 198.84 360.357C228.539 377.507 267.948 386.947 309.816 386.949Z" fill="#BBBBFF"/>
<path d="M527.174 347.333C515.456 364.203 498.191 379.336 475.85 392.32C453.512 405.3 427.441 415.352 398.358 422.192C394.74 423.044 391.095 423.839 387.426 424.582C390.725 423.549 394.44 422.74 398.129 421.872C427.141 415.05 453.148 405.024 475.427 392.076C497.712 379.126 514.935 364.03 526.612 347.204C537.904 330.952 543.571 313.779 543.476 296.162C543.377 278.546 537.508 261.372 526.04 245.122C514.167 228.294 496.775 213.199 474.349 200.252C451.923 187.304 425.802 177.278 396.715 170.458C368.619 163.867 338.956 160.524 308.541 160.524C278.125 160.526 248.5 163.867 220.476 170.46C191.474 177.282 165.463 187.306 143.18 200.256C140.464 201.834 137.818 203.445 135.251 205.09C137.631 203.059 140.158 201.522 142.755 200.012C165.097 187.028 191.166 176.98 220.257 170.139C248.343 163.533 278.047 160.18 308.539 160.182C339.032 160.18 368.776 163.531 396.937 170.139C426.104 176.98 452.29 187.03 474.772 200.012C497.255 212.994 514.693 228.129 526.594 244.997C538.098 261.289 543.975 278.506 544.074 296.17C544.173 313.824 538.484 331.04 527.174 347.333Z" fill="#BBBBFF"/>
<path d="M311.467 431.802C328.318 431.745 344.926 430.662 361.144 428.566C361.396 428.65 361.645 428.737 361.895 428.824C345.232 431.004 328.164 432.118 310.839 432.152C311.046 432.033 311.256 431.917 311.467 431.802Z" fill="#BBBBFF"/>
<path d="M596.34 363.579C580.904 385.804 558.158 405.745 528.726 422.849C499.301 439.949 464.948 453.193 426.632 462.204C416.415 464.608 406.03 466.684 395.511 468.43C406.234 466.275 416.399 464.235 426.402 461.881C464.648 452.886 498.934 439.671 528.303 422.603C557.676 405.534 580.382 385.631 595.785 363.446C610.668 342.023 618.142 319.383 618.011 296.16C617.88 272.937 610.148 250.299 595.031 228.872C579.377 206.691 556.448 186.789 526.884 169.719C497.321 152.651 462.886 139.434 424.542 130.439C387.503 121.752 348.394 117.348 308.302 117.348C268.21 117.348 229.149 121.754 192.209 130.441C153.965 139.436 119.683 152.655 90.3079 169.725C89.0473 170.458 87.7969 171.197 86.5585 171.94C87.2049 171.048 88.5379 170.259 89.883 169.477C119.315 152.373 153.665 139.131 191.983 130.118C228.992 121.415 268.125 116.999 308.3 117.001C348.474 116.999 387.658 121.413 424.761 130.118C463.184 139.129 497.686 152.371 527.304 169.473C556.925 186.575 579.899 206.516 595.579 228.741C610.732 250.206 618.479 272.886 618.609 296.158C618.736 319.43 611.243 342.114 596.34 363.579Z" fill="#BBBBFF"/>
<path d="M194.073 461.881C225.796 469.324 259.036 473.623 293.119 474.704C259.346 474.018 225.829 469.704 193.846 462.206C155.431 453.193 120.928 439.949 91.3067 422.849C61.6859 405.747 38.7141 385.808 23.0258 363.583C7.8831 342.116 0.134585 319.434 0.00168415 296.166C-0.121149 274.316 6.47561 252.987 19.6227 232.696C7.02131 253.199 0.4769 274.425 0.599733 296.164C0.73062 319.387 8.45902 342.027 23.5835 363.45C39.2357 385.633 62.1651 405.535 91.7275 422.603C121.292 439.671 155.727 452.888 194.073 461.881Z" fill="#BBBBFF"/>
<path d="M77.5452 276.189C80.1952 265.557 85.0199 255.165 91.9912 245.122C92.1865 244.845 92.3818 244.565 91.828 244.44C91.6971 244.623 91.5683 244.81 91.4394 244.994C84.4681 255.028 79.6414 265.414 76.9794 276.038L77.5452 276.189Z" fill="#BBBBFF"/>
<path d="M221.896 421.87C192.807 415.048 166.69 405.024 144.262 392.076C121.836 379.128 104.44 364.03 92.5712 347.206C87.5753 340.132 83.6467 332.883 80.7913 325.499L80.2617 325.7C83.1211 333.06 87.0397 340.285 92.0154 347.337C103.924 364.207 121.36 379.342 143.843 392.322C166.325 405.302 192.513 415.354 221.672 422.194C241.847 426.926 262.829 429.987 284.637 431.018C263.113 429.671 242.095 426.612 221.896 421.87Z" fill="#BBBBFF"/>
<path d="M100.906 98.9308L95.5046 127.695C95.5008 127.71 95.4807 127.713 95.4748 127.698L82.2559 91.7285C82.2546 91.7262 82.255 91.7244 82.2555 91.7225L82.7644 79.0854C82.764 79.0795 82.7672 79.0745 82.7737 79.0722L169.487 36.5267C169.502 36.519 169.515 36.536 169.506 36.5492L134.068 87.0675C134.066 87.0707 134.063 87.0721 134.061 87.0735L100.919 98.9184C100.911 98.9202 100.908 98.9253 100.906 98.9308Z" fill="#9595EF"/>
<path d="M94.7676 128.897L94.4407 128.116L81.0621 91.9018L81.1457 91.5651L81.6758 78.3536L82.3099 78.0554L169.737 35.158L170.911 36.4016L170.445 37.1509L134.775 87.9996L134.43 88.1241L101.888 99.7554L96.4453 128.726L94.7676 128.897ZM83.3776 91.5479L95.1439 123.567L99.8724 98.1136L100.546 97.8663L133.363 86.1372L166.135 39.4131L83.8491 79.7865L83.3776 91.5479Z" fill="#150035"/>
<path d="M169.429 36.5686L82.2597 91.7217C82.2551 91.7244 82.251 91.7253 82.2455 91.7239L46.5428 77.616C46.5286 77.6105 46.5296 77.5913 46.5443 77.5872L169.417 36.5421C169.434 36.5348 169.445 36.5591 169.429 36.5686Z" fill="white"/>
<path d="M82.3564 92.9813L81.7979 92.7442L45.4033 78.3654L45.446 76.7634L46.224 76.5192L169.975 35.1777L170.873 36.9115L170.027 37.5117L82.3564 92.9813ZM49.7638 77.688L82.1408 90.4811L161.181 40.4689L49.7638 77.688Z" fill="#150035"/>
<path d="M93.0054 105.069L90.9032 105.82L92.9795 111.626L95.0818 110.875L93.0054 105.069Z" fill="#150035"/>
<path d="M87.2045 88.8653L85.1023 89.6171L89.8651 102.935L91.9673 102.184L87.2045 88.8653Z" fill="#150035"/>
<path d="M93.7732 84.7111L91.6804 85.4837L95.6946 96.3562L97.7873 95.5836L93.7732 84.7111Z" fill="#150035"/>
<path d="M158.582 87.7427L156.273 95.4188L158.411 96.0618L160.72 88.3858L158.582 87.7427Z" fill="#150035"/>
<path d="M163.699 70.8454L159.508 84.7432L161.646 85.3878L165.837 71.49L163.699 70.8454Z" fill="#150035"/>
<path d="M127.583 81.4558C128.755 77.8487 126.831 76.0005 124.448 69.7149C122.399 64.3117 119.106 59.4195 114.824 55.5391C110.571 51.6835 107.934 49.3645 104.492 48.8779L101.577 47.2471L96.4418 50.6383L96.3248 50.739C92.9296 53.1243 91.5457 58.0939 92.9352 65.2519C94.3152 72.3705 98.0739 78.8477 103.369 83.8024C110.849 90.8001 117.783 92.2253 122.083 89.5793L122.295 89.4639L127.238 86.2087L127.583 81.4558Z" fill="#150035"/>
<path d="M114.079 91.5343C110.466 90.6172 106.519 88.277 102.607 84.617C97.0514 79.419 93.227 72.6177 91.8403 65.4644C90.4158 58.1224 91.7807 52.5682 95.683 49.8252L95.828 49.7063L101.53 45.9417L104.861 47.8045C108.634 48.4079 111.557 51.066 115.575 54.7104C119.941 58.6665 123.371 63.7179 125.492 69.3166C126.154 71.0624 126.771 72.4408 127.316 73.6589C128.682 76.7097 129.591 78.7399 128.687 81.6661L128.31 86.8369L122.621 90.5564C120.205 92.0424 117.274 92.3452 114.079 91.5343ZM101.627 48.5517L97.0576 51.569C93.8251 53.8575 92.7836 58.6125 94.0298 65.0395C95.3285 71.7348 98.9152 78.108 104.13 82.986C110.627 89.0628 117.281 91.2224 121.498 88.6273L121.756 88.4828L126.163 85.5761L126.479 81.236L126.521 81.1067C127.23 78.9268 126.618 77.5612 125.28 74.5681C124.75 73.3849 124.091 71.9103 123.405 70.1059C121.406 64.8341 118.181 60.0817 114.075 56.3606C109.776 52.4623 107.389 50.4149 104.337 49.9787L104.13 49.9496L101.627 48.5517Z" fill="#150035"/>
<path d="M127.257 86.1956C133.469 82.1044 132.76 70.0656 125.674 59.3063C118.588 48.547 107.808 43.1414 101.596 47.2327C95.3835 51.3239 96.0921 63.3627 103.178 74.122C110.264 84.8814 121.045 90.2869 127.257 86.1956Z" fill="white"/>
<path d="M119 88.2481C117.716 87.922 116.384 87.4188 115.026 86.7375C105.322 81.8699 96.9069 69.0944 96.2688 58.2556C95.9472 52.7616 97.6148 48.5215 100.965 46.3153C104.315 44.1073 108.868 44.2493 113.788 46.7179C123.493 51.5836 131.907 64.361 132.546 75.1979C132.869 80.6924 131.202 84.9325 127.85 87.1382C125.425 88.7367 122.367 89.1026 119 88.2481ZM109.269 47.3704C106.518 46.6722 104.075 46.9374 102.192 48.1793C99.5339 49.9288 98.2228 53.4617 98.4966 58.1245C99.0934 68.2524 106.957 80.1936 116.026 84.7424C120.205 86.836 123.964 87.0255 126.624 85.2765C129.28 83.5266 130.593 79.9941 130.318 75.3309C129.721 65.2011 121.857 53.2617 112.788 48.7129C111.575 48.1035 110.394 47.6561 109.269 47.3704Z" fill="#150035"/>
<path d="M125.593 73.1518C124.773 66.0741 119.101 57.4616 112.923 53.9133C106.746 50.365 102.402 53.2253 103.222 60.3031C104.041 67.3803 109.714 75.9933 115.892 79.5416C122.069 83.0899 126.411 80.2291 125.593 73.1518Z" fill="#150035"/>
<path d="M118.674 81.909C117.612 81.6395 116.491 81.1722 115.335 80.5072C108.898 76.8093 102.968 67.8044 102.112 60.4297C101.664 56.5671 102.631 53.6394 104.834 52.1906C107.037 50.7381 110.105 51.0052 113.478 52.945C119.915 56.6428 125.847 65.6501 126.7 73.022C127.147 76.8846 126.181 79.8105 123.978 81.2611C122.532 82.215 120.712 82.4262 118.674 81.909ZM109.613 53.7188C108.191 53.3579 106.962 53.4642 106.063 54.055C104.621 55.0044 103.989 57.2331 104.331 60.1737C105.114 66.9307 110.55 75.1857 116.448 78.5738C119.016 80.0483 121.315 80.3479 122.754 79.3999C124.194 78.4501 124.826 76.2196 124.486 73.2812C123.705 66.5247 118.268 58.2716 112.368 54.883C111.4 54.3261 110.472 53.9368 109.613 53.7188Z" fill="#150035"/>
<path d="M122.689 75.0642C121.871 67.987 116.197 59.3739 110.02 55.8257C107.789 54.5435 105.802 54.1092 104.206 54.3967C103.312 55.7496 102.926 57.745 103.22 60.3022C104.039 67.3794 109.713 75.9925 115.89 79.5407C118.121 80.8229 120.108 81.2571 121.704 80.9697C122.6 79.6173 122.986 77.6201 122.689 75.0642Z" fill="#9595EF"/>
<path d="M118.639 81.8921C117.579 81.623 116.471 81.1608 115.335 80.5087C108.898 76.8109 102.967 67.8059 102.112 60.4312C101.795 57.707 102.198 55.4084 103.274 53.7827L103.538 53.3848L104.007 53.2996C105.925 52.9557 108.195 53.493 110.575 54.8575C117.012 58.5554 122.942 67.5603 123.798 74.935C124.112 77.6587 123.711 79.9596 122.636 81.5835L122.371 81.9814L121.902 82.0666C120.899 82.2478 119.8 82.1867 118.639 81.8921ZM104.89 55.4382C104.299 56.605 104.104 58.2289 104.33 60.1753C105.113 66.9322 110.549 75.1872 116.448 78.5753C118.148 79.5514 119.716 80.0116 121.022 79.9308C121.614 78.7639 121.806 77.1396 121.582 75.1937C120.799 68.4367 115.363 60.1818 109.465 56.7936C107.765 55.8157 106.194 55.3527 104.89 55.4382Z" fill="#150035"/>
<path d="M111.413 83.3087L107.174 86.0999L108.118 87.533L112.356 84.7418L111.413 83.3087Z" fill="#9595EF"/>
<path d="M96.8688 53.4294L92.6307 56.2205L93.5746 57.6537L97.8126 54.8625L96.8688 53.4294Z" fill="#9595EF"/>
<path d="M121.81 63.427L119.075 65.2288L120.019 66.6618L122.754 64.86L121.81 63.427Z" fill="#9595EF"/>
<path d="M109.238 55.7552L106.916 57.2845L107.844 61.2787L111.273 61.1725L111.331 61.2006L112.249 76.8206C113.135 77.6329 114.05 78.3574 114.985 78.9722L116.495 79.729L118.817 78.1997L115.276 58.9997L109.238 55.7552Z" fill="#150035"/>
<path d="M116.554 80.7187L114.6 79.7403C113.553 79.0565 112.597 78.3039 111.669 77.4518L111.413 77.2176L110.521 62.0536L107.166 62.1574L105.943 56.8939L109.192 54.7555L116.043 58.4379L119.762 78.6031L116.554 80.7187ZM113.087 76.4187C113.865 77.1143 114.662 77.731 115.459 78.2561L116.435 78.7412L117.869 77.7959L114.506 59.5593L109.283 56.7512L107.886 57.671L108.519 60.3977L111.462 60.3063L112.1 60.6237L112.186 61.1476L113.087 76.4187Z" fill="#150035"/>
<path d="M113.652 59.6722L113.595 59.6441L110.166 59.7503L109.238 55.7561L114.027 55.6818L117.596 57.4709L118.817 78.1965C118.816 78.1983 118.814 78.1997 118.812 78.1992L114.62 76.0965L113.652 59.6722Z" fill="white"/>
<path d="M118.601 79.0302L118.427 78.9646L113.791 76.6403L112.843 60.5243L109.488 60.6281L108.161 54.9101L114.225 54.817L118.424 56.9234L119.647 78.4046L119.436 79.2363L118.601 79.0302ZM115.447 75.5508L117.872 76.7674L116.769 58.017L113.83 56.5434L110.314 56.5967L110.842 58.8707L113.784 58.7788L114.423 59.0948L114.51 59.6206L115.447 75.5508Z" fill="#150035"/>
<path d="M95.526 127.726L137.034 96.376C137.047 96.3655 137.04 96.3463 137.024 96.3481L100.921 98.9202C100.913 98.9201 100.907 98.9265 100.906 98.932L95.501 127.709C95.4991 127.725 95.5141 127.734 95.526 127.726Z" fill="#150035"/>
<path d="M95.5593 129.075L94.2684 128.259L94.4042 127.501L99.9797 97.814L100.924 97.8045L137.757 95.1765L138.379 96.6981L137.745 97.2355L95.5593 129.075ZM101.846 99.9743L97.1225 125.123L133.398 97.7258L101.846 99.9743Z" fill="#150035"/>
<path d="M169.522 36.5543L144.679 116.864C144.676 116.873 144.666 116.876 144.657 116.874L100.929 98.9318C100.919 98.9272 100.917 98.913 100.924 98.9053L169.495 36.5378C169.508 36.5254 169.527 36.5379 169.522 36.5543Z" fill="white"/>
<path d="M144.765 118.088L144.287 117.926L99.9532 99.7348L99.7114 98.5567L100.13 98.1201L169.351 35.159L170.803 35.9925L170.597 36.8524L170.588 36.8794L145.608 117.627L144.765 118.088ZM102.964 98.5592L143.969 115.384L167.263 40.0745L102.964 98.5592Z" fill="#150035"/>
<path d="M153.536 57.1011L152.632 59.1404L161.284 62.9768L162.188 60.9374L153.536 57.1011Z" fill="#150035"/>
<path d="M156.619 63.9284L155.777 65.9945L159.794 67.6306L160.636 65.5645L156.619 63.9284Z" fill="#150035"/>
<path d="M111.809 113.456L113.226 105.956L115.418 106.382L114.001 113.882L111.809 113.456Z" fill="#9595EF"/>
<path d="M110.971 105.411L108.778 104.99L107.957 109.266L110.149 109.687L110.971 105.411Z" fill="#9595EF"/>
<path d="M109.785 111.677L107.592 111.256L106.397 117.486L108.589 117.907L109.785 111.677Z" fill="#9595EF"/>
<path d="M142.299 321.771L143.151 284.398C143.151 284.389 143.144 284.38 143.135 284.38C131.017 284.07 118.778 285.774 108.038 289.487C108.023 289.492 108.02 289.505 108.032 289.515L142.269 321.781C142.281 321.793 142.299 321.786 142.299 321.771Z" fill="white"/>
<path d="M142.082 322.826L141.647 322.406L107.07 289.821L107.262 288.84L107.737 288.66C118.424 284.964 130.663 283.185 143.157 283.499L144.017 283.521L144.035 284.399L143.181 322.361L142.082 322.826ZM109.686 289.864L141.46 319.809L142.25 285.242C130.8 285.048 119.6 286.629 109.686 289.864Z" fill="#150035"/>
<path d="M142.325 337.433L185.936 311.304C185.936 311.291 185.936 311.288 185.936 311.274C174.225 304.173 158.803 300.425 143.169 300.021C143.16 300.021 143.151 300.028 143.151 300.037L142.298 337.418C142.298 337.431 142.313 337.44 142.325 337.433Z" fill="#BBBBFF"/>
<path d="M142.312 338.449L141.424 337.938L141.416 337.418L142.289 299.155L143.168 299.138C159.646 299.564 174.99 303.606 186.392 310.519L186.817 310.777V311.774L186.388 312.061L142.312 338.449ZM144.012 300.93L143.215 335.873L184.238 311.297C173.434 305.103 159.247 301.444 144.012 300.93Z" fill="#150035"/>
<path d="M142.299 337.429L142.345 367.245C142.345 367.259 142.359 367.266 142.371 367.26L185.939 342.819C185.945 342.816 185.948 342.811 185.948 342.805V311.312C185.948 311.299 185.933 311.291 185.923 311.297L142.308 337.414C142.302 337.417 142.299 337.423 142.299 337.429Z" fill="#150035"/>
<path d="M142.359 368.277L141.471 367.764L141.462 367.244L141.416 337.063L141.852 336.657L185.903 310.28L186.818 310.777L186.827 311.311V343.347L186.332 343.605L142.359 368.277ZM143.181 337.919L143.224 365.771L185.065 342.3V312.839L143.181 337.919Z" fill="#150035"/>
<path d="M203.416 382.251V353.318C203.416 353.309 203.409 353.3 203.398 353.301L142.472 354.426C142.463 354.426 142.456 354.434 142.456 354.443L142.375 391.74L142.517 391.736L155.688 425.687C155.695 425.691 155.7 425.694 155.707 425.697C166.438 424.16 176.605 420.973 184.992 416.13C196.71 409.365 202.783 401.064 203.324 392.204L203.375 391.74C203.376 391.742 203.462 383.014 203.416 382.251Z" fill="#BBBBFF"/>
<path d="M155.522 426.616L154.995 426.301L154.867 426.009L141.924 392.642L141.495 392.658L141.578 353.562L204.283 352.403L204.301 353.318V382.23C204.343 383.154 204.267 390.866 204.259 391.752L204.204 392.302C203.637 401.617 197.146 410.136 185.437 416.896C177.248 421.625 167.011 424.972 155.835 426.573L155.522 426.616ZM143.26 391.211L143.341 391.417L156.261 424.726C166.951 423.12 176.721 419.889 184.552 415.367C195.725 408.916 201.911 400.888 202.445 392.15L202.498 391.645C202.528 388.234 202.57 382.839 202.538 382.301L202.535 382.249V354.195L143.338 355.289L143.26 391.211Z" fill="#150035"/>
<path d="M203.291 392.205L203.342 391.742C203.342 391.742 203.428 383.014 203.383 382.251V353.318C203.383 353.309 203.376 353.3 203.365 353.301L190.314 353.543C190.311 353.543 190.306 353.544 190.303 353.546C180.233 361.232 159.25 377.477 159.149 377.556C159.146 377.558 159.147 377.558 159.147 377.561L155.656 388.534C155.656 388.535 155.655 388.537 155.655 388.538L155.567 425.462L155.655 425.688C155.658 425.694 155.67 425.699 155.68 425.697C166.408 424.16 176.572 420.973 184.957 416.132C196.677 409.366 202.752 401.066 203.291 392.205Z" fill="#150035"/>
<path d="M155.12 426.668L154.686 425.46L154.776 388.329L154.838 388.204L158.308 377.293L158.377 376.843L158.72 376.775C160.375 375.494 180.188 360.159 189.77 352.845L190.007 352.663L190.314 352.659L204.249 352.401L204.267 353.316V382.25C204.31 382.97 204.233 390.853 204.225 391.75L204.172 392.275C203.593 401.624 197.103 410.139 185.401 416.894C177.214 421.622 166.98 424.968 155.807 426.57L155.12 426.668ZM156.537 388.675L156.452 424.693C167.045 423.077 176.739 419.862 184.518 415.37C195.691 408.919 201.877 400.891 202.41 392.152L202.463 391.647C202.494 388.237 202.534 382.842 202.503 382.304L202.5 354.199L190.601 354.42C180.97 361.783 162.13 376.365 159.904 378.087L156.537 388.675Z" fill="#150035"/>
<path d="M142.427 354.433L155.656 388.535C155.659 388.542 155.667 388.547 155.674 388.545C166.405 387.008 176.572 383.821 184.959 378.978C209.151 365.012 209.512 342.509 186.079 328.275C186.075 328.272 186.066 328.272 186.062 328.275L142.433 354.412C142.432 354.42 142.429 354.426 142.427 354.433Z" fill="white"/>
<path d="M155.071 389.524L154.821 388.813L141.49 354.455L141.63 353.864L186.087 327.231L186.568 327.54C198.078 334.53 204.373 343.773 204.264 353.545C204.154 363.478 197.455 372.781 185.401 379.741C177.208 384.471 166.974 387.818 155.799 389.418L155.071 389.524ZM143.512 354.794L156.229 387.574C166.926 385.966 176.69 382.736 184.519 378.215C196.011 371.581 202.397 362.812 202.501 353.526C202.603 344.525 196.771 335.937 186.066 329.299L143.512 354.794Z" fill="#150035"/>
<path d="M155.564 411.578L144.923 398.38C144.921 398.379 144.921 398.377 144.92 398.376L142.35 391.749C142.348 391.746 142.344 391.743 142.342 391.74L100.711 367.704L100.684 366.116H97.9632C97.9602 366.116 97.9572 366.114 97.9543 366.114L95.8937 364.924C95.8877 364.924 95.8818 364.924 95.8758 364.924C95.2009 365.314 94.5527 365.713 93.9136 366.116L77.4632 376.095C77.4588 376.098 77.4558 376.104 77.4558 376.11V390.513C77.4126 399.845 83.5526 409.184 95.8833 416.303C112.064 425.644 134.861 428.833 155.565 425.874C155.576 425.872 155.583 425.866 155.58 425.859L155.565 425.819V411.587C155.568 411.584 155.567 411.581 155.564 411.578Z" fill="#BBBBFF"/>
<path d="M140.201 427.845C123.602 427.847 107.593 424.079 95.4454 417.064C83.2309 410.012 76.5307 400.581 76.5769 390.508V375.667L76.9375 375.388L93.4593 365.361C94.094 364.96 94.7526 364.555 95.4379 364.158L95.642 364.041H96.1144L98.1973 365.233H101.551L101.584 367.189L142.967 391.114L143.098 391.247L143.174 391.429L145.701 397.946L156.445 411.21L156.449 411.587V425.651L156.549 425.898L156.114 426.694L155.665 426.75C150.519 427.488 145.331 427.845 140.201 427.845ZM78.3395 376.598V390.514C78.2963 399.932 84.6836 408.818 96.3274 415.54C111.484 424.289 133.786 427.935 154.685 425.108V411.894L144.098 398.692L141.638 392.352L99.8377 368.218L99.8168 366.998H97.7563L97.5611 366.901L95.8894 365.939C95.3769 366.243 94.8792 366.55 94.3875 366.861L78.3395 376.598Z" fill="#150035"/>
<path d="M119.582 424.65C129.661 426.572 140.413 426.988 150.781 425.888V406.454L143.907 397.927C143.905 397.925 143.905 397.924 143.904 397.922L142.231 393.609H119.582V424.65Z" fill="#150035"/>
<path d="M139.401 427.367C132.629 427.367 125.868 426.746 119.417 425.516L118.7 425.379V392.727H142.834L144.677 397.479L151.663 406.144V426.683L150.874 426.766C147.086 427.166 143.242 427.367 139.401 427.367ZM120.464 423.916C129.945 425.65 140.088 426.054 149.899 425.092V406.766L143.081 398.243L141.627 394.491H120.466V423.916H120.464Z" fill="#150035"/>
<path d="M99.9136 418.139C103.473 419.869 107.284 421.333 111.274 422.536V391.634H99.9136V418.139Z" fill="#150035"/>
<path d="M112.156 423.725L111.02 423.382C106.927 422.148 103.06 420.652 99.5277 418.933L99.0315 418.69V390.754H112.156V423.725ZM100.794 417.586C103.778 419.006 107 420.268 110.391 421.342V392.518H100.794V417.586Z" fill="#150035"/>
<path d="M155.58 411.559L142.351 377.457C142.35 377.454 142.345 377.452 142.344 377.449L95.8953 350.631C95.8908 350.628 95.8818 350.628 95.8773 350.631C71.3099 364.821 71.3129 387.823 95.8863 402.01C112.067 411.352 134.864 414.54 155.567 411.581C155.579 411.581 155.585 411.571 155.58 411.559Z" fill="white"/>
<path d="M140.198 413.556C123.601 413.556 107.591 409.788 95.4454 402.775C83.2756 395.748 76.5724 386.354 76.5724 376.322C76.5724 366.291 83.2711 356.897 95.4364 349.87L95.94 349.578L96.4242 349.928L142.967 376.824L143.098 376.957L143.174 377.139L156.567 411.61L156.121 412.403L155.664 412.461C150.518 413.195 145.33 413.554 140.198 413.556ZM95.8894 351.648C84.5659 358.312 78.335 367.062 78.3365 376.321C78.3365 385.697 84.7268 394.549 96.3289 401.247C111.405 409.952 133.552 413.6 154.363 410.857L141.639 378.06L95.8894 351.648Z" fill="#150035"/>
<path d="M108.053 279.009C103.728 280.506 99.6424 282.327 95.9131 284.477C95.8982 284.486 95.8997 284.498 95.9131 284.507L142.223 311.244C142.241 311.254 142.257 311.23 142.242 311.217L108.069 279.012C108.065 279.009 108.059 279.008 108.053 279.009Z" fill="#BBBBFF"/>
<path d="M142.466 312.413L141.76 311.996L95.0311 285.018L95.0192 283.97L95.49 283.705C99.1597 281.588 103.296 279.725 107.763 278.177L108.29 278.001L108.692 278.39L143.421 311.118L142.466 312.413ZM97.6697 284.505L136.24 306.774L107.846 280.016C104.196 281.306 100.782 282.812 97.6697 284.505Z" fill="#150035"/>
<path d="M95.9012 284.514V350.626C95.9012 350.632 95.9042 350.638 95.9102 350.641L142.319 377.434C142.33 377.44 142.344 377.433 142.344 377.419L142.256 311.241C142.256 311.235 142.253 311.229 142.247 311.226L95.9251 284.498C95.9161 284.492 95.9012 284.501 95.9012 284.514Z" fill="#9595EF"/>
<path d="M142.348 378.45L141.889 378.207L95.0281 351.15L95.0192 350.627V284.017L95.8819 283.488L96.3393 283.72L143.129 310.718L143.138 311.241L143.226 377.924L142.348 378.45ZM96.7832 350.128L141.462 375.921L141.377 311.738L96.7832 286.009V350.128Z" fill="#150035"/>
<path d="M174.656 335.109L179.483 332.115V315.379L174.656 318.269V335.109Z" fill="#BBBBFF"/>
<path d="M173.773 336.693V317.771L180.364 313.824V332.606L173.773 336.693ZM175.538 318.769V333.524L178.601 331.624V316.935L175.538 318.769Z" fill="#150035"/>
<path d="M199.66 369.815H197.896V400.76H199.66V369.815Z" fill="#BBBBFF"/>
<path d="M171.417 321.489H169.653V335.896H171.417V321.489Z" fill="#BBBBFF"/>
<path d="M100.794 287.105H99.0315V353.231H100.794V287.105Z" fill="#150035"/>
<path d="M127.973 302.833H126.209V368.959H127.973V302.833Z" fill="#150035"/>
<path d="M151.008 374.281H149.244V397.5H151.008V374.281Z" fill="#150035"/>
<path d="M161.957 388.546H160.193V422.536H161.957V388.546Z" fill="#BBBBFF"/>
<path d="M87.2864 418.949C77.1519 413.403 73.2558 404.465 71.8359 399.632C71.2816 397.744 71 395.745 71 393.684L71.0015 383.301H72.7641L72.7626 393.684C72.7626 395.576 73.0203 397.409 73.5284 399.134C74.8723 403.707 78.5554 412.161 88.1342 417.402L87.2864 418.949Z" fill="#150035"/>
<path d="M72.764 372.01H71.0015V379.789H72.764V372.01Z" fill="#150035"/>
<path d="M192.024 318.729H190.26V311.275C190.26 309.164 189.084 307.267 187.194 306.327L180.067 302.79L180.851 301.211L187.976 304.748C190.472 305.987 192.023 308.489 192.023 311.275V318.729H192.024Z" fill="#150035"/>
<path d="M244.466 59.8909H242.535V110.105H244.466V59.8909Z" fill="#150035"/>
<path d="M244.466 39.2896H242.535V56.8612H244.466V39.2896Z" fill="#150035"/>
<path d="M245.432 193.23H243.501V210.801H245.432V193.23Z" fill="#150035"/>
<path d="M543.218 226.133H545.149V170.798C545.161 170.7 546.494 152.815 529.61 145.278L528.825 147.041C544.431 154.009 543.278 170.037 543.223 170.716L543.218 226.133Z" fill="#150035"/>
<path d="M303.396 281.798L313.935 282.016C314.12 282.02 314.302 281.973 314.464 281.881L354.805 258.589C357.281 257.161 361.023 257.005 363.166 258.243L454.671 311.074C454.73 311.108 454.791 311.136 454.855 311.157L485.231 321.363C485.646 321.502 485.923 321.89 485.923 322.327L485.918 329.961C486.178 331.034 485.504 332.235 483.933 333.142L433.51 362.255C431.034 363.683 427.292 363.839 425.149 362.601L303.781 292.53C302.801 291.965 302.35 291.204 302.359 290.411V282.816C302.359 282.244 302.827 281.786 303.396 281.798Z" fill="#150035"/>
<path d="M424.667 363.435L303.299 293.365C302.058 292.648 301.38 291.595 301.394 290.41V282.814C301.394 282.278 301.605 281.776 301.988 281.399C302.373 281.023 302.822 280.768 303.417 280.834L313.98 281.046L354.322 257.756C357.109 256.147 361.204 255.998 363.649 257.409L455.164 310.243L485.54 320.45C486.348 320.722 486.89 321.476 486.89 322.329L486.887 329.859C487.187 331.376 486.273 332.908 484.418 333.981L433.995 363.092C432.489 363.964 430.599 364.408 428.791 364.408C427.261 364.402 425.791 364.083 424.667 363.435ZM355.287 259.423L314.947 282.713C314.637 282.894 314.335 283.034 313.914 282.98L303.377 282.762L303.397 281.798L303.326 290.418C303.319 291.02 303.833 291.441 304.266 291.692L425.635 361.764C427.474 362.828 430.861 362.669 433.03 361.417L483.453 332.306C484.557 331.667 485.143 330.856 484.984 330.185L484.926 322.277L454.545 312.069C454.423 312.027 454.302 311.973 454.189 311.908L362.684 259.076C361.862 258.603 360.735 258.371 359.546 258.371C358.066 258.373 356.489 258.731 355.287 259.423Z" fill="#150035"/>
<path d="M303.781 284.163L425.149 354.236C427.292 355.474 431.036 355.318 433.51 353.889L483.933 324.778C486.409 323.35 486.677 321.188 484.533 319.951L363.164 249.877C361.022 248.64 357.277 248.796 354.804 250.224L304.38 279.337C301.907 280.763 301.638 282.925 303.781 284.163Z" fill="white"/>
<path d="M424.668 355.07L303.299 284.998C302.054 284.28 301.368 283.239 301.368 282.065C301.369 280.727 302.29 279.425 303.898 278.499L354.32 249.387C357.102 247.783 361.198 247.629 363.648 249.042L485.017 319.115C486.261 319.833 486.946 320.875 486.946 322.046C486.946 323.385 486.024 324.685 484.417 325.612L433.993 354.725C432.487 355.595 430.596 356.039 428.79 356.039C427.261 356.037 425.791 355.718 424.668 355.07ZM355.287 251.058L304.864 280.171C303.883 280.734 303.299 281.445 303.299 282.065C303.299 282.646 303.822 283.072 304.263 283.327L425.631 353.399C427.472 354.46 430.861 354.304 433.026 353.052L483.449 323.939C484.429 323.374 485.015 322.665 485.015 322.045C485.015 321.464 484.49 321.038 484.051 320.785L362.682 250.711C361.861 250.238 360.734 250.007 359.545 250.007C358.066 250.007 356.489 250.364 355.287 251.058Z" fill="#150035"/>
<path d="M429.551 355.649H428.065V362.841H429.551V355.649Z" fill="#BBBBFF"/>
<path d="M481.199 326.98H479.714V334.173H481.199V326.98Z" fill="#BBBBFF"/>
<path d="M308.53 286.713H307.045V293.906H308.53V286.713Z" fill="#BBBBFF"/>
<path d="M252.329 6.64447C252.232 6.51446 252.274 6.32898 252.416 6.24925L261.416 1.2518C261.898 0.87738 262.567 0.856581 263.309 1.28474L535.362 158.355C536.83 159.203 538.021 161.479 538.021 163.436V371.609C538.021 372.588 537.723 373.302 537.243 373.666L527.756 378.926L518.307 367.542L522.023 365.916L263.31 216.548C261.842 215.7 260.651 213.424 260.651 211.467V17.9256L252.329 6.64447Z" fill="white"/>
<path d="M516.743 367.173L519.886 365.798L262.827 217.385C261.064 216.367 259.684 213.767 259.684 211.467V18.2425L251.556 7.2197C251.345 6.93541 251.265 6.57139 251.339 6.22471C251.414 5.87629 251.636 5.57815 251.948 5.4048L260.825 0.488823C261.648 -0.149075 262.728 -0.16294 263.792 0.448957L535.845 157.519C537.607 158.537 538.988 161.135 538.988 163.437V371.609C538.988 372.865 538.576 373.869 537.711 374.51L527.523 380.16L516.743 367.173ZM261.884 2.09571L253.577 6.70833L261.615 17.6081V211.468C261.615 213.088 262.612 215.032 263.792 215.714L524.159 366.038L519.868 367.913L527.988 377.695L536.662 372.897C536.853 372.751 537.057 372.337 537.057 371.609V163.437C537.057 161.818 536.06 159.873 534.88 159.192L262.827 2.11997C262.678 2.03504 262.496 1.95183 262.298 1.95183C262.166 1.95183 262.024 1.9917 261.884 2.09571Z" fill="#150035"/>
<path d="M253.801 221.828L525.854 378.898C527.322 379.745 528.513 378.846 528.513 376.887V168.714C528.513 166.755 527.322 164.481 525.854 163.633L253.801 6.56284C252.332 5.7152 251.142 6.61484 251.142 8.57361V216.747C251.142 218.704 252.331 220.98 253.801 221.828Z" fill="#150035"/>
<path d="M525.37 379.732L253.316 222.663C251.555 221.646 250.175 219.047 250.175 216.747V8.57371C250.175 7.18871 250.687 6.10186 251.578 5.58703C252.373 5.12941 253.33 5.17795 254.282 5.72744L526.335 162.798C528.096 163.815 529.478 166.414 529.478 168.716V376.889C529.478 378.272 528.966 379.361 528.075 379.876C527.717 380.084 527.321 380.188 526.911 380.188C526.413 380.184 525.89 380.033 525.37 379.732ZM252.543 7.25805C252.342 7.37419 252.106 7.78847 252.106 8.57371V216.747C252.106 218.366 253.103 220.309 254.282 220.992L526.335 378.061C526.489 378.149 526.876 378.343 527.11 378.199C527.311 378.083 527.547 377.671 527.547 376.885V168.714C527.547 167.095 526.55 165.15 525.37 164.469L253.316 7.39845C253.202 7.33258 252.959 7.20951 252.744 7.20951C252.673 7.20951 252.602 7.22338 252.543 7.25805Z" fill="#150035"/>
<path d="M254.196 217.941L525.457 374.554C525.889 374.804 526.239 374.538 526.239 373.965V167.698C526.239 167.123 525.889 166.455 525.457 166.206L254.196 9.59306C253.764 9.34345 253.416 9.60866 253.416 10.1842V216.449C253.416 217.024 253.764 217.693 254.196 217.941Z" fill="#BBBBFF"/>
<path d="M524.973 375.39L253.712 218.777H253.711C252.979 218.354 252.449 217.375 252.449 216.449V10.1845C252.449 9.52754 252.724 8.99192 253.203 8.7163C253.652 8.45802 254.191 8.47709 254.678 8.7579L525.937 165.371C526.67 165.792 527.203 166.771 527.203 167.699V373.965C527.203 374.62 526.929 375.156 526.452 375.433C526.241 375.555 526.007 375.617 525.767 375.617C525.506 375.615 525.233 375.541 524.973 375.39ZM254.382 216.449C254.382 216.721 254.577 217.042 254.68 217.106L525.273 373.334V167.699C525.273 167.426 525.077 167.106 524.973 167.042L254.382 10.8155V216.449Z" fill="#150035"/>
<path d="M251.142 216.991V205.084L528.513 365.224V377.131C528.513 378.953 527.234 379.693 525.656 378.781L254 221.94C252.421 221.03 251.142 218.815 251.142 216.991Z" fill="#150035"/>
<path d="M525.171 379.617L253.515 222.777C251.641 221.694 250.174 219.153 250.174 216.991V203.412L528.995 364.389L529.478 364.668V377.133C529.478 378.355 528.997 379.335 528.159 379.818C527.79 380.03 527.376 380.134 526.937 380.134C526.372 380.135 525.767 379.962 525.171 379.617ZM252.105 206.757V216.993C252.105 218.479 253.192 220.363 254.48 221.108L526.136 377.948C526.577 378.201 526.974 378.274 527.192 378.147C527.414 378.019 527.546 377.639 527.546 377.133V365.781L252.105 206.757Z" fill="#150035"/>
<path d="M372.662 281.995L371.92 283.279L407.035 303.575L407.778 302.29L372.662 281.995Z" fill="#BBBBFF"/>
<path d="M537.557 159.588L528.236 165.183L529.23 166.838L538.551 161.244L537.557 159.588Z" fill="#150035"/>
<path d="M278.05 9.06454L268.732 14.6586L269.726 16.3142L279.044 10.7202L278.05 9.06454Z" fill="#150035"/>
<path d="M537.547 356.784L528.227 362.379L529.222 364.036L538.542 358.441L537.547 356.784Z" fill="#150035"/>
<path d="M463.321 344.697L464.068 343.412L458.175 339.984L457.429 341.268L463.321 344.697Z" fill="#BBBBFF"/>
<path d="M429.304 350.629C430.306 350.629 431.306 350.355 432.192 349.809L442.75 343.3L441.738 341.655L431.18 348.164C430.067 348.852 428.666 348.876 427.528 348.223L323.016 288.616L322.059 290.292L426.571 349.899C427.417 350.386 428.361 350.629 429.304 350.629Z" fill="#150035"/>
<path d="M319.055 288.56L319.995 286.875L312.25 282.557C311.948 282.389 311.912 282.101 311.91 281.987C311.91 281.871 311.94 281.585 312.238 281.41L323.023 275.09L322.049 273.426L311.264 279.744C310.451 280.219 309.971 281.065 309.981 282.008C309.991 282.949 310.489 283.786 311.311 284.244L319.055 288.56Z" fill="#150035"/>
<path d="M538.069 349.681L528.75 355.275L529.745 356.932L539.063 351.338L538.069 349.681Z" fill="#150035"/>
<path d="M284.026 12.4363L274.707 18.0323L275.701 19.6878L285.02 14.0917L284.026 12.4363Z" fill="#150035"/>
<path d="M538.043 169.503L528.724 175.097L529.718 176.753L539.037 171.159L538.043 169.503Z" fill="#150035"/>
<path d="M424.825 122.473C425.118 124.627 427.129 126.744 427.486 127.106C427.503 127.125 427.503 127.155 427.486 127.151C427.127 127.099 425.116 126.89 424.825 128.706C424.82 128.732 424.789 128.713 424.785 128.684C424.492 126.529 422.464 124.407 422.102 124.043C422.083 124.024 422.083 123.995 422.102 123.998C422.462 124.052 424.491 124.265 424.785 122.45C424.789 122.424 424.822 122.443 424.825 122.473Z" fill="#150035"/>
<path d="M417.094 118.009C417.387 120.164 419.398 122.28 419.757 122.642C419.776 122.662 419.776 122.691 419.757 122.688C419.398 122.636 417.389 122.426 417.094 124.242C417.091 124.268 417.058 124.249 417.054 124.22C416.761 122.065 414.733 119.944 414.371 119.58C414.352 119.56 414.352 119.531 414.371 119.534C414.732 119.588 416.76 119.803 417.054 117.987C417.058 117.961 417.089 117.98 417.094 118.009Z" fill="#150035"/>
<path d="M409.361 113.546C409.654 115.7 411.665 117.817 412.022 118.179C412.041 118.198 412.041 118.228 412.022 118.224C411.663 118.172 409.652 117.962 409.361 119.779C409.358 119.805 409.325 119.786 409.321 119.756C409.028 117.602 407 115.48 406.638 115.116C406.619 115.097 406.619 115.068 406.638 115.071C406.999 115.125 409.027 115.338 409.321 113.523C409.327 113.497 409.358 113.514 409.361 113.546Z" fill="#150035"/>
<path d="M401.63 109.082C401.923 111.237 403.934 113.353 404.293 113.716C404.312 113.735 404.312 113.764 404.293 113.761C403.934 113.709 401.923 113.499 401.63 115.316C401.627 115.342 401.594 115.322 401.59 115.293C401.298 113.138 399.269 111.017 398.907 110.653C398.888 110.634 398.888 110.604 398.907 110.608C399.269 110.661 401.296 110.875 401.59 109.06C401.594 109.032 401.625 109.051 401.63 109.082Z" fill="#150035"/>
<path d="M393.898 104.618C394.191 106.773 396.201 108.889 396.56 109.251C396.578 109.27 396.578 109.3 396.56 109.296C396.201 109.244 394.192 109.035 393.899 110.85C393.896 110.876 393.863 110.857 393.86 110.827C393.567 108.672 391.538 106.551 391.176 106.187C391.157 106.168 391.157 106.138 391.176 106.142C391.537 106.195 393.565 106.41 393.86 104.594C393.863 104.568 393.894 104.587 393.898 104.618Z" fill="#150035"/>
<path d="M386.166 100.153C386.459 102.308 388.47 104.424 388.827 104.786C388.846 104.805 388.846 104.835 388.827 104.832C388.468 104.779 386.458 104.57 386.166 106.385C386.163 106.411 386.13 106.392 386.127 106.362C385.834 104.207 383.806 102.086 383.443 101.722C383.424 101.703 383.424 101.673 383.443 101.677C383.804 101.73 385.832 101.944 386.127 100.129C386.13 100.104 386.163 100.124 386.166 100.153Z" fill="#150035"/>
<path d="M378.434 95.6896C378.727 97.8442 380.737 99.9607 381.096 100.323C381.115 100.342 381.115 100.372 381.096 100.368C380.737 100.316 378.728 100.106 378.435 101.923C378.432 101.949 378.399 101.93 378.396 101.9C378.101 99.7458 376.075 97.6241 375.712 97.2601C375.693 97.241 375.693 97.2115 375.712 97.215C376.073 97.2687 378.101 97.4819 378.396 95.667C378.399 95.641 378.43 95.6601 378.434 95.6896Z" fill="#150035"/>
<path d="M370.703 91.2262C370.996 93.3808 373.006 95.4973 373.365 95.8596C373.384 95.8787 373.384 95.9081 373.365 95.9047C373.006 95.8527 370.996 95.6429 370.703 97.4595C370.699 97.4855 370.666 97.4665 370.663 97.437C370.368 95.2824 368.342 93.1607 367.979 92.7966C367.96 92.7776 367.96 92.7481 367.979 92.7516C368.34 92.8053 370.368 93.0185 370.663 91.2036C370.666 91.1776 370.699 91.195 370.703 91.2262Z" fill="#150035"/>
<path d="M362.972 86.7607C363.265 88.9153 365.275 91.0318 365.634 91.3941C365.653 91.4132 365.653 91.4426 365.634 91.4392C365.275 91.3872 363.265 91.1774 362.973 92.9923C362.97 93.0183 362.937 92.9993 362.933 92.9698C362.641 90.8151 360.612 88.6934 360.25 88.3294C360.231 88.3103 360.231 88.2809 360.25 88.2843C360.611 88.3381 362.639 88.5513 362.933 86.7364C362.935 86.7121 362.966 86.7312 362.972 86.7607Z" fill="#150035"/>
<path d="M355.239 82.2974C355.532 84.452 357.543 86.5685 357.902 86.9308C357.921 86.9499 357.921 86.9793 357.902 86.9759C357.543 86.9239 355.532 86.7141 355.239 88.529C355.236 88.555 355.203 88.5359 355.199 88.5065C354.906 86.3518 352.878 84.2301 352.516 83.8661C352.497 83.847 352.497 83.8176 352.516 83.821C352.876 83.8748 354.904 84.088 355.199 82.2731C355.203 82.2488 355.236 82.2679 355.239 82.2974Z" fill="#150035"/>
<path d="M502.144 167.114C502.437 169.269 504.448 171.385 504.805 171.747C504.824 171.766 504.824 171.796 504.805 171.792C504.446 171.74 502.437 171.531 502.144 173.347C502.139 173.373 502.108 173.354 502.105 173.325C501.812 171.17 499.784 169.048 499.421 168.684C499.402 168.665 499.402 168.636 499.421 168.639C499.782 168.693 501.81 168.906 502.105 167.091C502.108 167.065 502.139 167.083 502.144 167.114Z" fill="#150035"/>
<path d="M494.412 162.65C494.705 164.805 496.715 166.921 497.074 167.284C497.093 167.303 497.093 167.332 497.074 167.329C496.715 167.277 494.705 167.067 494.413 168.883C494.41 168.909 494.377 168.89 494.373 168.861C494.08 166.706 492.052 164.585 491.69 164.221C491.671 164.202 491.671 164.172 491.69 164.176C492.052 164.229 494.079 164.442 494.373 162.628C494.377 162.6 494.408 162.619 494.412 162.65Z" fill="#150035"/>
<path d="M486.68 158.185C486.973 160.339 488.984 162.456 489.343 162.818C489.362 162.837 489.362 162.867 489.343 162.863C488.984 162.811 486.973 162.601 486.68 164.418C486.677 164.444 486.644 164.425 486.641 164.395C486.348 162.241 484.319 160.119 483.957 159.755C483.938 159.736 483.938 159.707 483.957 159.71C484.318 159.764 486.346 159.977 486.641 158.162C486.644 158.136 486.677 158.155 486.68 158.185Z" fill="#150035"/>
<path d="M478.948 153.721C479.241 155.876 481.251 157.993 481.61 158.355C481.628 158.374 481.628 158.403 481.61 158.4C481.251 158.348 479.241 158.138 478.948 159.953C478.944 159.979 478.911 159.96 478.908 159.93C478.613 157.776 476.587 155.654 476.225 155.29C476.205 155.271 476.205 155.242 476.225 155.245C476.587 155.299 478.613 155.512 478.908 153.697C478.913 153.673 478.944 153.692 478.948 153.721Z" fill="#150035"/>
<path d="M471.217 149.257C471.51 151.412 473.52 153.529 473.878 153.891C473.897 153.91 473.897 153.939 473.878 153.936C473.519 153.884 471.508 153.674 471.217 155.491C471.212 155.517 471.18 155.498 471.177 155.468C470.882 153.314 468.856 151.192 468.494 150.828C468.474 150.809 468.474 150.779 468.494 150.783C468.854 150.837 470.882 151.05 471.177 149.235C471.18 149.209 471.212 149.226 471.217 149.257Z" fill="#150035"/>
<path d="M463.486 144.794C463.779 146.948 465.789 149.065 466.147 149.427C466.166 149.446 466.166 149.476 466.147 149.472C465.788 149.42 463.779 149.21 463.486 151.027C463.482 151.053 463.449 151.034 463.446 151.004C463.151 148.85 461.125 146.728 460.763 146.364C460.744 146.345 460.744 146.316 460.763 146.319C461.123 146.373 463.151 146.586 463.446 144.771C463.449 144.745 463.481 144.762 463.486 144.794Z" fill="#150035"/>
<path d="M455.753 140.329C456.046 142.483 458.057 144.6 458.414 144.962C458.433 144.981 458.433 145.011 458.414 145.007C458.055 144.955 456.044 144.745 455.753 146.562C455.748 146.588 455.716 146.569 455.713 146.539C455.418 144.385 453.392 142.263 453.03 141.899C453.011 141.88 453.011 141.85 453.03 141.854C453.39 141.908 455.418 142.121 455.713 140.306C455.716 140.28 455.749 140.299 455.753 140.329Z" fill="#150035"/>
<path d="M448.022 135.865C448.315 138.019 450.325 140.136 450.683 140.498C450.702 140.517 450.702 140.547 450.683 140.543C450.324 140.491 448.313 140.282 448.022 142.096C448.018 142.122 447.985 142.103 447.982 142.074C447.689 139.919 445.661 137.798 445.298 137.434C445.279 137.414 445.279 137.385 445.298 137.388C445.659 137.442 447.687 137.655 447.982 135.841C447.985 135.816 448.017 135.835 448.022 135.865Z" fill="#150035"/>
<path d="M440.289 131.401C440.582 133.556 442.593 135.672 442.952 136.035C442.971 136.054 442.969 136.083 442.952 136.08C442.593 136.028 440.582 135.818 440.289 137.633C440.286 137.659 440.253 137.64 440.249 137.61C439.956 135.456 437.928 133.334 437.566 132.97C437.547 132.951 437.547 132.922 437.566 132.925C437.926 132.979 439.954 133.192 440.249 131.377C440.253 131.353 440.286 131.37 440.289 131.401Z" fill="#150035"/>
<path d="M432.558 126.938C432.851 129.093 434.862 131.209 435.221 131.572C435.24 131.591 435.24 131.62 435.221 131.617C434.862 131.565 432.851 131.355 432.558 133.17C432.555 133.196 432.522 133.177 432.518 133.147C432.225 130.993 430.197 128.871 429.835 128.507C429.816 128.488 429.816 128.458 429.835 128.46C430.195 128.514 432.224 128.727 432.518 126.912C432.522 126.89 432.553 126.907 432.558 126.938Z" fill="#150035"/>
<path d="M424.825 113.508C425.118 115.663 427.129 117.779 427.486 118.141C427.503 118.16 427.503 118.19 427.486 118.186C427.127 118.134 425.116 117.925 424.825 119.741C424.82 119.767 424.789 119.748 424.785 119.719C424.492 117.564 422.464 115.442 422.102 115.078C422.083 115.059 422.083 115.03 422.102 115.033C422.462 115.087 424.491 115.3 424.785 113.485C424.789 113.459 424.822 113.479 424.825 113.508Z" fill="#150035"/>
<path d="M417.094 109.044C417.387 111.198 419.398 113.315 419.757 113.677C419.776 113.696 419.776 113.726 419.757 113.722C419.398 113.67 417.389 113.46 417.094 115.277C417.091 115.303 417.058 115.284 417.054 115.255C416.761 113.1 414.733 110.978 414.371 110.614C414.352 110.595 414.352 110.566 414.371 110.569C414.732 110.623 416.76 110.836 417.054 109.021C417.058 108.995 417.089 109.014 417.094 109.044Z" fill="#150035"/>
<path d="M409.361 104.58C409.654 106.735 411.665 108.851 412.022 109.213C412.041 109.232 412.041 109.262 412.022 109.258C411.663 109.206 409.652 108.997 409.361 110.812C409.358 110.838 409.325 110.819 409.321 110.789C409.028 108.634 407 106.513 406.638 106.149C406.619 106.13 406.619 106.1 406.638 106.104C406.999 106.157 409.027 106.372 409.321 104.556C409.327 104.531 409.358 104.549 409.361 104.58Z" fill="#150035"/>
<path d="M401.63 100.117C401.923 102.272 403.934 104.388 404.293 104.75C404.312 104.77 404.312 104.799 404.293 104.796C403.934 104.744 401.923 104.534 401.63 106.349C401.627 106.375 401.594 106.356 401.59 106.326C401.298 104.171 399.269 102.05 398.907 101.686C398.888 101.667 398.888 101.637 398.907 101.641C399.269 101.694 401.296 101.908 401.59 100.093C401.594 100.068 401.625 100.086 401.63 100.117Z" fill="#150035"/>
<path d="M393.898 95.6535C394.191 97.8082 396.201 99.9247 396.56 100.287C396.578 100.306 396.578 100.335 396.56 100.332C396.201 100.28 394.192 100.07 393.899 101.887C393.896 101.913 393.863 101.894 393.86 101.864C393.567 99.7097 391.538 97.588 391.176 97.224C391.157 97.2049 391.157 97.1754 391.176 97.1789C391.537 97.2309 393.565 97.4459 393.86 95.631C393.863 95.6032 393.894 95.6223 393.898 95.6535Z" fill="#150035"/>
<path d="M386.166 91.1885C386.459 93.3431 388.47 95.4596 388.827 95.8219C388.846 95.841 388.846 95.8704 388.827 95.867C388.468 95.815 386.458 95.6052 386.166 97.4218C386.163 97.4478 386.13 97.4288 386.127 97.3993C385.834 95.2447 383.806 93.123 383.443 92.759C383.424 92.7399 383.424 92.7104 383.443 92.7139C383.804 92.7676 385.832 92.9808 386.127 91.1659C386.13 91.1399 386.163 91.159 386.166 91.1885Z" fill="#150035"/>
<path d="M378.434 86.7242C378.727 88.8789 380.737 90.9954 381.096 91.3576C381.115 91.3767 381.115 91.4062 381.096 91.4027C380.737 91.3507 378.728 91.141 378.435 92.9576C378.432 92.9836 378.399 92.9645 378.396 92.9351C378.101 90.7804 376.075 88.6587 375.712 88.2947C375.693 88.2756 375.693 88.2462 375.712 88.2496C376.073 88.3034 378.101 88.5166 378.396 86.7017C378.399 86.6757 378.43 86.693 378.434 86.7242Z" fill="#150035"/>
<path d="M370.703 82.2608C370.996 84.4155 373.006 86.532 373.365 86.8943C373.384 86.9133 373.384 86.9428 373.365 86.9393C373.006 86.8873 370.996 86.6776 370.703 88.4942C370.699 88.5202 370.666 88.5011 370.663 88.4717C370.368 86.317 368.342 84.1953 367.979 83.8313C367.96 83.8122 367.96 83.7828 367.979 83.7862C368.34 83.84 370.368 84.0532 370.663 82.2383C370.666 82.2123 370.699 82.2296 370.703 82.2608Z" fill="#150035"/>
<path d="M362.972 77.7975C363.265 79.9522 365.275 82.0687 365.634 82.431C365.653 82.45 365.653 82.4795 365.634 82.476C365.275 82.424 363.265 82.2143 362.973 84.0292C362.97 84.0552 362.937 84.0361 362.933 84.0066C362.641 81.852 360.612 79.7303 360.25 79.3663C360.231 79.3472 360.231 79.3178 360.25 79.3212C360.611 79.375 362.639 79.5899 362.933 77.7733C362.935 77.749 362.966 77.7663 362.972 77.7975Z" fill="#150035"/>
<path d="M355.239 73.3316C355.532 75.4862 357.543 77.6027 357.902 77.965C357.921 77.9841 357.921 78.0136 357.902 78.0101C357.543 77.9581 355.532 77.7484 355.239 79.5632C355.236 79.5892 355.203 79.5702 355.199 79.5407C354.906 77.3861 352.878 75.2644 352.516 74.9003C352.497 74.8813 352.497 74.8518 352.516 74.8553C352.876 74.909 354.904 75.1222 355.199 73.3073C355.203 73.2831 355.236 73.3021 355.239 73.3316Z" fill="#150035"/>
<path d="M502.144 158.148C502.437 160.302 504.448 162.419 504.805 162.781C504.824 162.8 504.824 162.83 504.805 162.826C504.446 162.774 502.437 162.565 502.144 164.381C502.139 164.407 502.108 164.388 502.105 164.359C501.812 162.204 499.784 160.082 499.421 159.718C499.402 159.699 499.402 159.67 499.421 159.673C499.782 159.727 501.81 159.94 502.105 158.125C502.108 158.099 502.139 158.117 502.144 158.148Z" fill="#150035"/>
<path d="M494.412 153.684C494.705 155.839 496.715 157.955 497.074 158.318C497.093 158.337 497.093 158.366 497.074 158.363C496.715 158.311 494.705 158.101 494.413 159.916C494.41 159.942 494.377 159.923 494.373 159.893C494.08 157.739 492.052 155.617 491.69 155.253C491.671 155.234 491.671 155.205 491.69 155.208C492.052 155.262 494.079 155.475 494.373 153.66C494.377 153.634 494.408 153.653 494.412 153.684Z" fill="#150035"/>
<path d="M486.68 149.221C486.973 151.376 488.984 153.493 489.343 153.855C489.362 153.874 489.362 153.903 489.343 153.9C488.984 153.848 486.973 153.638 486.68 155.453C486.677 155.479 486.644 155.46 486.641 155.431C486.348 153.276 484.319 151.154 483.957 150.79C483.938 150.771 483.938 150.742 483.957 150.745C484.318 150.799 486.346 151.012 486.641 149.197C486.644 149.171 486.677 149.19 486.68 149.221Z" fill="#150035"/>
<path d="M478.948 144.756C479.241 146.911 481.251 149.027 481.61 149.389C481.628 149.408 481.628 149.438 481.61 149.434C481.251 149.382 479.241 149.173 478.948 150.989C478.944 151.015 478.911 150.996 478.908 150.967C478.613 148.812 476.587 146.69 476.225 146.326C476.205 146.307 476.205 146.278 476.225 146.281C476.587 146.335 478.613 146.548 478.908 144.733C478.913 144.707 478.944 144.727 478.948 144.756Z" fill="#150035"/>
<path d="M471.217 140.293C471.51 142.447 473.52 144.564 473.878 144.926C473.897 144.945 473.897 144.975 473.878 144.971C473.519 144.919 471.508 144.709 471.217 146.526C471.212 146.552 471.18 146.533 471.177 146.503C470.882 144.349 468.856 142.227 468.494 141.863C468.474 141.844 468.474 141.815 468.494 141.818C468.854 141.872 470.882 142.085 471.177 140.27C471.18 140.244 471.212 140.261 471.217 140.293Z" fill="#150035"/>
<path d="M463.486 135.828C463.779 137.983 465.789 140.099 466.147 140.462C466.166 140.481 466.166 140.51 466.147 140.507C465.788 140.455 463.779 140.245 463.486 142.062C463.482 142.088 463.449 142.069 463.446 142.039C463.151 139.885 461.125 137.763 460.763 137.399C460.744 137.38 460.744 137.35 460.763 137.354C461.123 137.407 463.151 137.621 463.446 135.806C463.449 135.78 463.481 135.797 463.486 135.828Z" fill="#150035"/>
<path d="M455.753 131.365C456.046 133.52 458.057 135.636 458.414 135.999C458.433 136.018 458.433 136.047 458.414 136.044C458.055 135.992 456.044 135.782 455.753 137.599C455.748 137.625 455.716 137.606 455.713 137.576C455.418 135.422 453.392 133.3 453.03 132.936C453.011 132.917 453.011 132.887 453.03 132.891C453.39 132.944 455.418 133.158 455.713 131.343C455.716 131.315 455.749 131.334 455.753 131.365Z" fill="#150035"/>
<path d="M448.022 126.9C448.315 129.055 450.325 131.171 450.683 131.533C450.702 131.552 450.702 131.582 450.683 131.578C450.324 131.526 448.313 131.317 448.022 133.132C448.018 133.158 447.985 133.139 447.982 133.109C447.689 130.954 445.661 128.833 445.298 128.469C445.279 128.45 445.279 128.42 445.298 128.424C445.659 128.477 447.687 128.691 447.982 126.876C447.985 126.851 448.017 126.87 448.022 126.9Z" fill="#150035"/>
<path d="M440.289 122.437C440.582 124.591 442.593 126.708 442.952 127.07C442.971 127.089 442.969 127.118 442.952 127.115C442.593 127.063 440.582 126.853 440.289 128.67C440.286 128.696 440.253 128.677 440.249 128.647C439.956 126.493 437.928 124.371 437.566 124.007C437.547 123.988 437.547 123.958 437.566 123.962C437.926 124.016 439.954 124.229 440.249 122.414C440.253 122.388 440.286 122.407 440.289 122.437Z" fill="#150035"/>
<path d="M432.558 117.973C432.851 120.128 434.862 122.244 435.221 122.607C435.24 122.626 435.24 122.655 435.221 122.652C434.862 122.6 432.851 122.39 432.558 124.206C432.555 124.232 432.522 124.213 432.518 124.184C432.225 122.029 430.197 119.908 429.835 119.544C429.816 119.525 429.816 119.495 429.835 119.499C430.195 119.552 432.224 119.765 432.518 117.951C432.522 117.925 432.553 117.942 432.558 117.973Z" fill="#150035"/>
<path d="M347.508 77.8339C347.801 79.9886 349.811 82.1051 350.17 82.4673C350.189 82.4864 350.189 82.5159 350.17 82.5124C349.811 82.4604 347.801 82.2507 347.508 84.0656C347.504 84.0916 347.471 84.0725 347.468 84.043C347.175 81.8884 345.147 79.7667 344.785 79.4027C344.765 79.3836 344.765 79.3541 344.785 79.3576C345.145 79.4113 347.173 79.6245 347.468 77.8096C347.471 77.7854 347.503 77.8027 347.508 77.8339Z" fill="#150035"/>
<path d="M339.775 73.3705C340.068 75.5251 342.079 77.6417 342.438 78.0039C342.457 78.023 342.455 78.0525 342.438 78.049C342.079 77.997 340.068 77.7873 339.775 79.6039C339.772 79.6299 339.739 79.6108 339.735 79.5813C339.441 77.4267 337.414 75.305 337.052 74.941C337.033 74.9219 337.033 74.8925 337.052 74.8959C337.412 74.9497 339.441 75.1629 339.735 73.348C339.74 73.322 339.772 73.3393 339.775 73.3705Z" fill="#150035"/>
<path d="M332.044 68.9045C332.337 71.0591 334.348 73.1756 334.705 73.5379C334.724 73.557 334.724 73.5864 334.705 73.583C334.346 73.531 332.337 73.3212 332.044 75.1379C332.04 75.1639 332.008 75.1448 332.004 75.1153C331.709 72.9607 329.683 70.839 329.321 70.475C329.302 70.4559 329.302 70.4264 329.321 70.4299C329.681 70.4836 331.709 70.6968 332.004 68.882C332.008 68.856 332.039 68.875 332.044 68.9045Z" fill="#150035"/>
<path d="M324.311 64.4416C324.604 66.5962 326.615 68.7127 326.972 69.075C326.991 69.0941 326.991 69.1236 326.972 69.1201C326.613 69.0681 324.604 68.8584 324.311 70.675C324.308 70.701 324.275 70.6819 324.271 70.6524C323.977 68.4978 321.95 66.3761 321.588 66.0121C321.569 65.993 321.569 65.9635 321.588 65.967C321.949 66.0207 323.977 66.234 324.271 64.4191C324.277 64.3931 324.308 64.4121 324.311 64.4416Z" fill="#150035"/>
<path d="M347.508 68.869C347.801 71.0237 349.811 73.1402 350.17 73.5025C350.189 73.5215 350.189 73.551 350.17 73.5475C349.811 73.4955 347.801 73.2858 347.508 75.1024C347.504 75.1284 347.471 75.1093 347.468 75.0799C347.175 72.9252 345.147 70.8035 344.785 70.4395C344.765 70.4204 344.765 70.391 344.785 70.3944C345.145 70.4482 347.173 70.6614 347.468 68.8465C347.471 68.8205 347.503 68.8396 347.508 68.869Z" fill="#150035"/>
<path d="M339.775 64.4047C340.068 66.5593 342.079 68.6758 342.438 69.0381C342.457 69.0572 342.455 69.0867 342.438 69.0832C342.079 69.0312 340.068 68.8214 339.775 70.6381C339.772 70.6641 339.739 70.645 339.735 70.6155C339.441 68.4609 337.414 66.3392 337.052 65.9752C337.033 65.9561 337.033 65.9266 337.052 65.9301C337.412 65.9838 339.441 66.197 339.735 64.3822C339.74 64.3562 339.772 64.3735 339.775 64.4047Z" fill="#150035"/>
<path d="M332.044 59.9412C332.337 62.0959 334.348 64.2124 334.705 64.5747C334.724 64.5937 334.724 64.6232 334.705 64.6197C334.346 64.5677 332.337 64.358 332.044 66.1746C332.04 66.2006 332.008 66.1815 332.004 66.1521C331.709 63.9974 329.683 61.8757 329.321 61.5117C329.302 61.4926 329.302 61.4632 329.321 61.4666C329.681 61.5186 331.709 61.7336 332.004 59.9187C332.008 59.891 332.039 59.91 332.044 59.9412Z" fill="#150035"/>
<path d="M324.311 55.4758C324.604 57.6305 326.615 59.747 326.972 60.1093C326.991 60.1283 326.991 60.1578 326.972 60.1543C326.613 60.1023 324.604 59.8926 324.311 61.7075C324.308 61.7335 324.275 61.7144 324.271 61.6849C323.977 59.5303 321.95 57.4086 321.588 57.0446C321.569 57.0255 321.569 56.996 321.588 56.9995C321.949 57.0532 323.977 57.2664 324.271 55.4516C324.277 55.4273 324.308 55.4464 324.311 55.4758Z" fill="#150035"/>
<path d="M437.716 93.3759L436.69 95.1533L453.536 104.88L454.562 103.102L437.716 93.3759Z" fill="#150035"/>
<path d="M461.392 107.052L460.365 108.83L520.088 143.312L521.114 141.534L461.392 107.052Z" fill="#150035"/>
<path d="M527.742 387.001L526.669 385.254L538.094 378.242C540.5 376.766 541.992 374.096 541.992 371.274V326.063H544.044V371.274C544.044 374.805 542.176 378.145 539.165 379.991L527.742 387.001Z" fill="#150035"/>
<path d="M510.019 378.433L494.561 369.426C491.146 367.438 487.493 365.857 483.711 364.727C475.491 362.274 466.729 361.985 458.372 363.888L446.982 366.479L446.526 364.479L457.916 361.888C466.618 359.906 475.741 360.208 484.299 362.759C488.239 363.935 492.04 365.581 495.596 367.653L511.054 376.66L510.019 378.433Z" fill="#150035"/>
<path d="M462.15 366.312L437.198 372.366L437.682 374.361L462.634 368.306L462.15 366.312Z" fill="#150035"/>
<path d="M492.743 91.6479L502.379 85.422C502.464 85.3671 502.482 85.2479 502.418 85.17L490.179 70.317C490.088 70.207 489.911 70.2505 489.881 70.3903L487.931 79.4277C487.929 79.4346 487.929 79.4437 487.929 79.4506L487.462 85.6535C487.459 85.6993 487.473 85.7428 487.503 85.7772L492.521 91.6158C492.578 91.6799 492.672 91.6937 492.743 91.6479Z" fill="#150035"/>
<path d="M492.654 92.7187C492.308 92.7187 491.964 92.5697 491.728 92.2879L486.444 86.1446L486.424 85.6061L486.928 79.1649L489.002 69.5318L489.762 69.2476C490.202 69.1376 490.683 69.2889 490.984 69.6509L503.525 84.8683L503.49 85.464C503.438 85.8077 503.24 86.1125 502.947 86.3004L493.312 92.5262C493.108 92.6568 492.879 92.7187 492.654 92.7187ZM488.53 85.3724L492.817 90.3608L500.99 85.0791L490.521 72.3731L488.949 79.6484L488.53 85.3724Z" fill="#150035"/>
<path d="M529.242 46.7696L483.253 20.2166C482.102 19.552 481.057 19.4512 480.251 19.7926L471.255 25.1821C471.115 25.2623 471.087 25.4502 471.197 25.567L481.944 36.9325C481.988 36.9783 482.013 37.0402 482.013 37.1021V55.8757C482.013 58.8683 484.133 62.5392 486.724 64.0355L493.582 67.9951C493.75 68.2311 493.896 68.435 494.064 68.6733C494.405 70.6554 496.298 78.9458 504.726 84.6973C505.056 84.9218 505.276 84.5965 505.058 84.1817C503.951 82.0805 501.866 77.5045 502.503 73.9092C502.853 73.758 502.909 73.7351 503.259 73.5839L517.448 81.7757C517.498 81.8032 517.535 81.849 517.555 81.904L523.479 97.7126C523.531 97.8546 523.701 97.9165 523.834 97.8409L532.734 92.4858C533.488 91.9771 533.955 90.9941 533.955 89.6078V54.9294C533.953 51.9368 531.833 48.2659 529.242 46.7696Z" fill="white"/>
<path d="M523.944 98.9875L523.268 98.834C522.91 98.7057 522.633 98.4261 522.5 98.0733L516.678 82.5328L503.438 74.8886C503.259 78.1127 505.12 82.0585 505.981 83.6969C506.325 84.3499 506.233 85.074 505.754 85.5002C505.315 85.8966 504.661 85.9172 504.137 85.5598C495.748 79.8312 493.582 71.7837 493.078 69.0867L492.865 68.7843L486.204 64.937C483.271 63.2436 480.973 59.2611 480.973 55.8744V37.4169L470.444 26.2829C470.169 25.9919 470.047 25.6001 470.104 25.2036C470.164 24.8095 470.396 24.4704 470.744 24.2733L479.717 18.8976C480.993 18.3385 482.391 18.5127 483.775 19.3101L529.766 45.8631C532.702 47.5565 535 51.539 535 54.9257V89.5996C535 91.2838 534.404 92.6128 533.318 93.3438L523.944 98.9875ZM503.33 72.4185L518.293 81.0571L518.534 81.5338L524.123 96.4486L532.195 91.5885C532.642 91.2861 532.912 90.5711 532.912 89.6042V54.9303C532.912 52.3089 530.995 48.9863 528.721 47.6757L482.733 21.1226C481.931 20.6598 481.197 20.5291 480.663 20.756L472.641 25.5726L482.991 36.521L483.058 37.1053V55.879C483.058 58.5003 484.978 61.8229 487.247 63.1336L494.43 67.3888L495.053 68.2618L495.095 68.4978C495.335 69.9071 496.765 76.543 502.854 81.9256C501.857 79.4783 501.002 76.401 501.476 73.7292L501.575 73.1769L503.33 72.4185Z" fill="#150035"/>
<path d="M520.213 52.343L474.098 25.7189C471.564 24.257 469.511 25.4417 469.511 28.3678V63.1814C469.511 66.1076 471.564 69.6639 474.098 71.1258L481.193 75.2206C481.367 75.3214 481.513 75.5483 481.55 75.766C481.859 77.622 483.697 86.0361 492.224 91.8586C492.554 92.0832 492.773 91.7578 492.556 91.3431C491.41 89.1662 489.217 84.3428 490.079 80.6948C490.12 80.5207 490.283 80.468 490.459 80.5688L520.216 97.7476C522.75 99.2095 524.803 98.0249 524.803 95.0987V60.2874C524.801 57.3635 522.748 53.8049 520.213 52.343Z" fill="#CCC5FF"/>
<path d="M522.264 99.4254C521.453 99.4254 520.58 99.1665 519.693 98.6555L490.936 82.0541C490.755 85.2713 492.599 89.1942 493.479 90.8578C493.823 91.5108 493.731 92.2372 493.25 92.6634C492.808 93.0576 492.157 93.0805 491.632 92.7184C482.879 86.7447 480.888 78.0235 480.54 76.0483L473.578 72.0291C470.714 70.3747 468.468 66.4885 468.468 63.1797V28.3683C468.468 26.565 469.13 25.1901 470.333 24.4958C471.536 23.7969 473.06 23.9161 474.623 24.8166L520.738 51.4407C523.602 53.0951 525.846 56.9813 525.846 60.2902V95.1061C525.846 96.9094 525.183 98.2843 523.98 98.9809C523.46 99.2765 522.878 99.4254 522.264 99.4254ZM490.287 79.4786C490.523 79.4786 490.762 79.5427 490.982 79.671L520.736 96.8476C521.611 97.3517 522.415 97.4708 522.933 97.1684C523.458 96.8659 523.756 96.1143 523.756 95.1015V60.2879C523.756 57.7421 521.893 54.5181 519.691 53.2463L473.576 26.6223C472.701 26.1159 471.899 25.999 471.374 26.3015C470.851 26.6039 470.553 27.3555 470.553 28.3683V63.1819C470.553 65.7254 472.416 68.9518 474.621 70.2235L481.715 74.3183C482.16 74.5772 482.489 75.0653 482.579 75.5923C482.815 77.0084 484.222 83.6719 490.349 89.0819C489.293 86.4972 488.408 83.225 489.064 80.4547L489.183 79.9437L489.788 79.5771C489.946 79.5106 490.115 79.4786 490.287 79.4786Z" fill="#150035"/>
<path d="M529.821 47.0802L521.788 51.9644L522.871 53.7462L530.905 48.862L529.821 47.0802Z" fill="#150035"/>
<path d="M486.811 22.4089L478.779 27.2919L479.864 29.0756L487.895 24.1926L486.811 22.4089Z" fill="#150035"/>
<path d="M533.13 55.8689L524.276 61.4772L525.391 63.2388L534.246 57.6304L533.13 55.8689Z" fill="#150035"/>
<path d="M533.952 61.5221L524.801 67.0673V97.2546L533.657 92.4013L533.952 90.2382V61.5221Z" fill="#150035"/>
<path d="M483.617 0.997068L482.789 11.045L484.867 11.2162L485.695 1.16826L483.617 0.997068Z" fill="#150035"/>
<path d="M473.453 0.904517L471.544 1.7417L476.207 12.3801L478.117 11.5429L473.453 0.904517Z" fill="#150035"/>
<path d="M463.31 9.86439L462.284 11.6796L470.705 16.4403L471.732 14.6252L463.31 9.86439Z" fill="#150035"/>
<path d="M499.987 78.2222L496.018 75.9308V72.7228C493.914 71.4006 492.029 69.8424 490.411 68.0872L490.136 67.787V60.4041L491.964 62.5076C492.727 63.3829 493.665 64.3155 494.749 65.2802C495.191 65.6721 495.615 66.0318 496.016 66.3549V63.9191L495.392 63.2798C493.516 61.3435 492.164 59.6135 491.364 58.131C490.53 56.582 490.106 54.9871 490.106 53.39C490.106 50.8901 491.323 49.9093 492.343 49.529C493.346 49.1532 494.556 49.2013 496.013 49.6779V46.9809L499.982 49.2723V51.6692C501.957 52.9661 503.777 54.5151 505.394 56.2772L505.853 56.7767L503.662 61.8087L502.578 60.6676C501.731 59.7762 500.862 58.9673 499.98 58.2501V60.4293C501.637 62.1341 502.849 63.5021 503.589 64.4966C504.398 65.5919 505.003 66.639 505.385 67.6198C505.782 68.6372 505.983 69.6889 505.983 70.7476C505.983 73.4217 504.764 74.4597 503.742 74.8607C502.714 75.264 501.476 75.2136 499.98 74.7163V78.2222H499.987ZM498.103 71.616L499.386 72.2209C501.401 73.1673 502.457 73.1215 502.986 72.9152C503.215 72.8259 503.903 72.5555 503.903 70.7453C503.903 69.9479 503.749 69.1504 503.447 68.3759C503.131 67.5694 502.617 66.6803 501.918 65.7385C501.192 64.7624 499.941 63.3623 498.197 61.5819L498.103 61.4856V61.5498L496.291 59.5814C495.617 58.8482 495.131 58.2341 494.813 57.7048C494.435 57.0815 494.242 56.4307 494.242 55.7731C494.242 54.8542 494.657 54.3799 495.005 54.1462C495.897 53.5458 497.065 54.0225 497.45 54.1806L497.897 54.3616V54.2035L499.524 55.3057C500.699 56.1008 501.861 57.0448 502.991 58.1241L503.396 57.1938C501.884 55.6287 500.202 54.2608 498.385 53.1173L497.897 52.7507L496.621 52.1572C494.643 51.2407 493.598 51.2819 493.074 51.4767C492.833 51.5683 492.194 51.8066 492.194 53.3831C492.194 54.632 492.533 55.8945 493.202 57.1365C493.91 58.4495 495.147 60.0237 496.886 61.8202L497.897 62.8559V62.7299L499.712 64.7326C500.367 65.4567 500.876 66.0937 501.22 66.6322C501.639 67.2875 501.852 67.9451 501.852 68.5913C501.852 69.5789 501.419 70.0853 501.055 70.3351C500.143 70.963 498.958 70.5093 498.566 70.3603L498.099 70.1816V70.3305L496.488 69.2856C495.573 68.6899 494.519 67.8672 493.36 66.8384C492.961 66.4832 492.581 66.1303 492.217 65.7843V66.9667C493.768 68.5936 495.573 70.0326 497.592 71.2448L498.103 71.616Z" fill="white"/>
<path d="M502.796 67.9082C502.796 69.5901 502.269 70.6373 501.215 71.0497C500.161 71.4622 498.688 71.2216 496.79 70.3279V73.5818L494.907 72.4956V69.306C492.672 67.9632 490.711 66.3752 489.027 64.5467V60.3579C489.824 61.2722 490.784 62.2278 491.905 63.2268C493.028 64.2236 494.027 65.0073 494.907 65.5778V60.6604L493.986 59.7163C492.171 57.8442 490.887 56.2059 490.131 54.8012C489.375 53.3966 488.997 51.9805 488.997 50.5529C488.997 49.02 489.517 48.0576 490.558 47.6703C491.598 47.2808 493.046 47.5191 494.907 48.3807V45.9495L496.79 47.0356V49.4003C498.887 50.7179 500.784 52.299 502.48 54.1436L501.187 57.111C499.758 55.6101 498.293 54.3498 496.79 53.3347V58.0161C498.578 59.8401 499.847 61.2631 500.603 62.2804C501.359 63.2978 501.914 64.258 502.264 65.1608C502.62 66.0613 502.796 66.9756 502.796 67.9082ZM493.135 52.9383C493.135 53.4035 493.275 53.8686 493.555 54.3315C493.834 54.7944 494.286 55.3649 494.909 56.0409V52.3128C493.727 51.8293 493.135 52.0378 493.135 52.9383ZM498.66 65.7588C498.66 65.3143 498.504 64.8491 498.193 64.3633C497.881 63.8776 497.413 63.2887 496.79 62.6012V66.5517C498.037 67.026 498.66 66.7625 498.66 65.7588Z" fill="#150035"/>
<path d="M304.839 173.468L304.841 173.335L305.052 173.455L305.05 173.589L304.839 173.468Z" fill="#7684CA"/>
<path d="M303.125 150.59C303.128 149.437 303.916 148.946 304.907 149.455L304.869 162.932C303.88 162.299 303.096 160.902 303.1 159.746L303.125 150.59Z" fill="#7684CA"/>
<path d="M305.118 149.578C306.109 150.214 306.891 151.611 306.888 152.764L306.862 161.922C306.859 163.077 306.071 163.564 305.08 163.055L305.118 149.578Z" fill="#7684CA"/>
<path d="M313.128 156.346C314.111 157.013 314.882 158.746 314.879 160.314L314.825 179.028L311.062 176.856L311.115 158.142C311.119 156.571 311.899 155.735 312.881 156.203L312.833 172.973L313.079 173.116L313.128 156.346Z" fill="#7B7BDB"/>
<path d="M296.824 156.125L296.894 131.676L300.66 133.85L300.59 158.299C300.587 159.448 299.805 159.935 298.822 159.44L298.87 142.668L298.627 142.527L298.579 159.299C297.598 158.662 296.821 157.274 296.824 156.125Z" fill="#7B7BDB"/>
<path d="M304.937 138.925L305.148 139.047L305.118 149.578L305.08 163.055L305.051 173.385L304.841 173.265L304.869 162.933L304.907 149.456L304.937 138.925Z" fill="#7684CA"/>
<path d="M341.225 194.474L341.227 194.341L341.365 194.421V194.555L341.225 194.474Z" fill="#7684CA"/>
<path d="M312.882 156.203L312.925 140.932L313.171 141.074L313.128 156.345L313.081 173.116L312.835 172.975L312.882 156.203Z" fill="#7B7BDB"/>
<path d="M312.933 138.434L313.179 138.575L313.173 141.007L312.925 140.866L312.933 138.434Z" fill="#7B7BDB"/>
<path d="M348.505 198.678V198.545L348.714 198.665L348.712 198.797L348.505 198.678Z" fill="#7684CA"/>
<path d="M317.721 144.327C317.721 144.113 317.737 143.911 317.766 143.726L319.499 144.726L319.467 155.869C318.478 155.213 317.696 153.469 317.699 151.888L317.721 144.327Z" fill="#7684CA"/>
<path d="M319.467 155.869L319.499 144.726L319.71 144.848L319.678 155.991L319.648 166.527L319.437 166.405L319.467 155.869Z" fill="#7684CA"/>
<path d="M317.775 143.665C317.969 142.525 318.665 141.983 319.505 142.395L319.499 144.661L317.775 143.665Z" fill="#7684CA"/>
<path d="M319.716 142.518C320.558 143.078 321.248 144.419 321.433 145.778L319.71 144.782L319.716 142.518Z" fill="#7684CA"/>
<path d="M327.15 166.412L327.2 149.172L327.442 149.314L327.393 166.552L327.15 166.412Z" fill="#7B7BDB"/>
<path d="M332.255 160.298C332.259 158.719 333.047 157.882 334.038 158.367L334 171.841C333.009 171.181 332.229 169.439 332.232 167.86L332.255 160.298Z" fill="#7684CA"/>
<path d="M319.535 131.864L319.746 131.985L319.716 142.518L319.71 144.782L319.499 144.66L319.505 142.395L319.535 131.864Z" fill="#7684CA"/>
<path d="M369.889 218.269L369.909 210.902L370.155 211.043L370.134 218.411L369.889 218.269Z" fill="#7B7BDB"/>
<path d="M311.051 181.333L311.064 176.927L314.826 179.099L314.814 183.505C314.809 185.14 313.964 185.98 312.922 185.38C311.884 184.779 311.046 182.968 311.051 181.333Z" fill="#7B7BDB"/>
<path d="M339.486 179.957C339.481 181.536 340.266 183.283 341.256 183.94L341.227 194.271L314.826 179.028L314.88 160.314C314.885 158.744 314.113 157.013 313.13 156.345L313.173 141.073L317.766 143.726C317.737 143.912 317.723 144.111 317.722 144.327L317.699 151.89C317.695 153.469 318.476 155.215 319.467 155.871L319.437 166.405L319.648 166.528L319.678 155.993C320.669 156.478 321.457 155.641 321.462 154.062L321.482 146.499C321.482 146.285 321.47 146.068 321.443 145.851L327.198 149.174L327.149 166.412L327.392 166.551L327.441 149.312L334.051 153.128L334.037 158.367C333.046 157.882 332.258 158.719 332.253 160.298L332.231 167.861C332.226 169.439 333.008 171.183 333.999 171.842L333.969 182.373L334.179 182.495L334.21 171.964C335.201 172.451 335.992 171.616 335.996 170.035L336.017 162.472C336.022 160.893 335.237 159.145 334.248 158.489L334.262 153.25L339.71 156.396L339.667 171.294C339.564 171.6 339.505 171.969 339.504 172.394L339.486 179.957Z" fill="white"/>
<path d="M327.249 131.871L327.491 132.01L327.444 148.782L327.442 149.247L327.2 149.105L327.201 148.641L327.249 131.871Z" fill="#7B7BDB"/>
<path d="M327.382 127.831C328.421 128.431 329.261 130.245 329.256 131.879L329.213 146.845C329.209 148.416 328.425 149.25 327.444 148.783L327.491 132.012L327.249 131.871L327.201 148.641C326.22 147.976 325.444 146.241 325.449 144.67L325.492 129.704C325.495 128.069 326.344 127.232 327.382 127.831Z" fill="#7B7BDB"/>
<path d="M355.96 175.471C356.941 176.137 357.717 177.872 357.712 179.443L357.699 183.716C357.695 185.287 356.911 186.121 355.93 185.654L355.96 175.471Z" fill="#7B7BDB"/>
<path d="M384.163 226.51L384.184 219.142L384.426 219.283L384.406 226.649L384.163 226.51Z" fill="#7B7BDB"/>
<path d="M361.382 170.193C361.384 169.733 361.452 169.337 361.571 169.018L363.165 169.938L363.131 181.739C362.142 181.083 361.357 179.335 361.362 177.756L361.382 170.193Z" fill="#7684CA"/>
<path d="M395.698 225.722L384.426 219.283L384.184 219.144L377.821 215.47L370.155 211.045L369.909 210.902L348.714 198.665L341.611 194.565L341.365 194.422L314.825 179.1L311.062 176.927L305.051 173.457L298.793 169.843L298.551 169.704L287.691 163.433L298.551 169.634L298.793 169.773L304.841 173.265L311.064 176.858L314.825 179.03L341.227 194.271L341.612 194.493L348.505 198.475L369.909 210.832L370.155 210.975L377.613 215.28L384.184 219.074L384.426 219.213L395.698 225.722Z" fill="#D5D0FE"/>
<path d="M363.377 168.385C364.062 168.84 364.648 169.816 364.943 170.899L363.372 169.992L363.377 168.385Z" fill="#7684CA"/>
<path d="M377.889 191.591C378.879 192.226 379.665 193.626 379.662 194.778L379.637 203.936C379.633 205.092 378.842 205.579 377.851 205.07L377.889 191.591Z" fill="#7684CA"/>
<path d="M377.712 180.942L377.92 181.062L377.889 191.592L377.851 205.069L377.821 215.4L377.614 215.279L377.644 204.95L377.682 191.471L377.712 180.942Z" fill="#7684CA"/>
<path d="M384.26 191.969L384.504 192.108L384.457 208.882L384.426 219.213L384.184 219.072L384.212 208.741L384.26 191.969Z" fill="#7B7BDB"/>
<path d="M382.457 205.565C382.454 206.714 383.228 208.1 384.212 208.74L384.184 219.072L377.823 215.398L377.851 205.067C378.841 205.576 379.633 205.091 379.637 203.933L379.662 194.775C379.665 193.622 378.879 192.222 377.889 191.588L377.919 181.059L377.712 180.938L377.682 191.468C376.691 190.959 375.901 191.449 375.896 192.601L375.871 201.759C375.868 202.915 376.653 204.312 377.644 204.946L377.615 215.278L370.157 210.971L370.185 200.637C371.168 201.103 371.947 200.267 371.951 198.698L371.994 183.732C371.999 182.097 371.162 180.285 370.12 179.684C369.082 179.085 368.237 179.925 368.232 181.56L368.189 196.525C368.184 198.097 368.958 199.83 369.939 200.496L369.911 210.83L348.714 198.593L348.742 188.262C349.732 188.748 350.525 187.913 350.529 186.332L350.552 178.769C350.556 177.19 349.771 175.443 348.782 174.786L348.812 164.255L348.605 164.135L348.574 174.666C347.582 174.177 346.792 175.015 346.787 176.595L346.765 184.158C346.761 185.739 347.544 187.483 348.535 188.141L348.506 198.472L341.612 194.493L341.641 184.158C342.624 184.624 343.402 183.789 343.407 182.219L343.474 158.568L355.743 165.652L355.716 175.332C354.734 174.864 353.951 175.698 353.946 177.269L353.933 181.542C353.929 183.113 354.706 184.848 355.686 185.514L355.651 197.696L355.893 197.837L355.928 185.655C356.91 186.123 357.693 185.289 357.698 183.718L357.71 179.445C357.715 177.873 356.94 176.139 355.958 175.473L355.985 165.795L361.569 169.02C361.449 169.338 361.381 169.735 361.381 170.195L361.36 177.758C361.355 179.337 362.14 181.084 363.13 181.74L363.099 192.275L363.307 192.395L363.337 181.861C364.328 182.348 365.119 181.512 365.124 179.931L365.145 172.368C365.146 171.908 365.081 171.434 364.962 170.978L382.525 181.117L382.457 205.565Z" fill="white"/>
<path d="M384.417 179.705C385.455 180.304 386.297 181.758 386.294 182.952L386.292 183.225L382.527 181.051L382.528 180.778C382.532 179.585 383.375 179.104 384.417 179.705Z" fill="#7B7BDB"/>
<path d="M392.891 154.944L290.891 96.0539C287.733 94.2306 285.169 95.6956 285.158 99.3201L284.948 173.363C284.937 176.989 287.485 181.405 290.644 183.228L392.644 242.118C395.799 243.94 398.366 242.476 398.377 238.85L398.587 164.807C398.598 161.183 396.048 156.764 392.891 154.944ZM395.698 225.792L384.426 219.283L384.163 226.51L384.184 219.144L377.613 215.351L370.157 211.045L369.89 218.27L369.911 210.904L348.506 198.546L341.612 194.566L341.346 201.792L341.228 194.344L314.826 179.101L314.813 183.507C314.809 185.142 313.964 185.982 312.922 185.381C311.883 184.782 311.046 182.97 311.051 181.335L311.064 176.929L304.84 173.336L298.793 169.845L298.53 177.071L298.551 169.705L287.693 163.366L298.552 169.635L298.581 159.304C297.599 158.665 296.822 157.278 296.826 156.128L296.895 131.679L287.798 126.36L296.895 131.34C296.899 130.148 297.745 129.667 298.784 130.267C299.822 130.866 300.663 132.32 300.659 133.786L312.927 140.869L313.179 138.578L313.172 141.01L317.775 143.667C317.969 142.527 318.665 141.985 319.505 142.397L319.746 131.988L319.716 142.52C320.558 143.079 321.248 144.421 321.433 145.779L327.198 149.109L327.2 148.644C326.218 147.979 325.443 146.244 325.448 144.673L325.49 129.707C325.495 128.072 326.343 127.233 327.38 127.833C328.419 128.432 329.259 130.246 329.255 131.881L329.212 146.846C329.207 148.418 328.424 149.252 327.442 148.784L327.441 149.249L334.051 153.065L334.276 147.956L334.262 153.187L339.71 156.333L339.752 141.231C339.757 139.596 340.602 138.756 341.641 139.355C342.682 139.956 343.52 141.768 343.515 143.403L343.472 158.505L355.741 165.589L355.991 163.296L355.985 165.729L361.59 168.965C361.89 168.226 362.481 167.928 363.166 168.265L363.404 157.855L363.374 168.386C364.059 168.841 364.645 169.818 364.94 170.901L382.524 180.78C382.527 179.588 383.372 179.106 384.412 179.707C385.451 180.306 386.292 181.76 386.288 183.227L395.798 188.784L386.286 183.293L386.216 207.742C386.213 208.892 385.431 209.378 384.448 208.884L384.418 219.215L395.698 225.792Z" fill="white"/>
<path d="M298.53 177.07L298.551 169.702L298.793 169.843L298.773 177.209L298.53 177.07Z" fill="#7B7BDB"/>
<path d="M298.784 130.264C299.822 130.864 300.664 132.318 300.661 133.512L300.66 133.784L296.894 131.611V131.338C296.899 130.144 297.745 129.665 298.784 130.264Z" fill="#7B7BDB"/>
<path d="M341.365 194.556V194.422L341.611 194.563L341.59 201.931L341.344 201.789L341.365 194.556Z" fill="#7B7BDB"/>
<path d="M300.59 158.299L300.66 133.85L312.927 140.932L312.884 156.204C311.903 155.736 311.122 156.574 311.118 158.143L311.065 176.857L305.053 173.387L305.082 163.055C306.073 163.564 306.861 163.076 306.864 161.922L306.889 152.763C306.892 151.611 306.111 150.214 305.12 149.578L305.15 139.049L304.939 138.927L304.909 149.456C303.918 148.947 303.13 149.439 303.127 150.591L303.101 159.749C303.098 160.905 303.881 162.3 304.871 162.935L304.842 173.266L298.795 169.775L298.823 159.443C299.805 159.935 300.587 159.448 300.59 158.299Z" fill="white"/>
<path d="M321.443 145.849C321.47 146.066 321.484 146.284 321.482 146.498L321.462 154.061C321.457 155.64 320.669 156.477 319.678 155.992L319.71 144.849L321.443 145.849Z" fill="#7684CA"/>
<path d="M334.038 158.369L334.052 153.13L334.263 153.252L334.249 158.489L334.211 171.965L334.181 182.496L333.97 182.374L334 171.842L334.038 158.369Z" fill="#7684CA"/>
<path d="M348.78 174.789C349.77 175.445 350.555 177.192 350.55 178.772L350.528 186.335C350.523 187.914 349.73 188.751 348.741 188.264L348.78 174.789Z" fill="#7684CA"/>
<path d="M334.068 147.832L334.279 147.954L334.265 153.185L334.052 153.063L334.068 147.832Z" fill="#7684CA"/>
<path d="M339.67 171.295L339.713 156.398L343.475 158.57L343.409 182.221C343.404 183.791 342.625 184.626 341.642 184.16L341.69 167.39L341.444 167.247L341.397 184.018C341.351 183.986 341.303 183.951 341.257 183.916C340.342 183.188 339.642 181.544 339.646 180.049L339.67 171.295Z" fill="#7B7BDB"/>
<path d="M377.614 215.482V215.349L377.821 215.469V215.602L377.614 215.482Z" fill="#7684CA"/>
<path d="M353.948 177.27C353.953 175.698 354.736 174.864 355.717 175.332L355.689 185.514C354.707 184.848 353.932 183.114 353.937 181.543L353.948 177.27Z" fill="#7B7BDB"/>
<path d="M355.75 163.153L355.995 163.294L355.987 165.727L355.744 165.585L355.75 163.153Z" fill="#7B7BDB"/>
<path d="M341.642 139.353C342.684 139.954 343.521 141.766 343.517 143.401L343.474 158.503L339.711 156.331L339.754 141.229C339.76 139.594 340.606 138.754 341.642 139.353Z" fill="#7B7BDB"/>
<path d="M361.593 168.962C361.893 168.223 362.484 167.925 363.169 168.263L363.165 169.869L361.593 168.962Z" fill="#7684CA"/>
<path d="M370.12 179.687C371.162 180.288 371.999 182.101 371.994 183.735L371.951 198.701C371.947 200.271 371.168 201.106 370.185 200.64L370.233 183.87L369.987 183.727L369.939 200.498C368.958 199.832 368.186 198.099 368.189 196.527L368.232 181.562C368.237 179.928 369.082 179.088 370.12 179.687Z" fill="#7B7BDB"/>
<path d="M432.409 195.933L435.725 223.089L435.756 223.346L413.676 215.055C412.731 208.159 413.875 202.166 417.02 198.456C418.125 197.15 419.479 196.128 421.078 195.45C424.285 194.086 428.056 194.283 431.956 195.753C432.108 195.813 432.259 195.873 432.409 195.933Z" fill="#BBBBFF"/>
<path d="M435.821 197.604C442.064 201.208 448.266 207.775 452.679 216.16C455.458 221.446 457.167 226.768 457.833 231.641L435.988 223.436L435.723 223.09L432.408 195.935C433.541 196.388 434.681 196.946 435.821 197.604Z" fill="#7A56D6"/>
<path d="M465.869 197.076C469.024 198.898 471.575 203.317 471.564 206.941L471.355 280.984C471.345 284.609 468.777 286.072 465.621 284.25L412.106 253.353C408.951 251.531 406.4 247.114 406.411 243.488L406.621 169.445C406.632 165.82 409.199 164.357 412.354 166.179L465.869 197.076ZM450.434 251.244C452.119 250.529 453.529 249.434 454.665 248.027L435.989 223.436L457.835 231.641C457.169 226.77 455.46 221.446 452.68 216.16C448.268 207.775 442.065 201.208 435.823 197.604C434.683 196.946 433.543 196.386 432.411 195.933C432.26 195.873 432.11 195.812 431.957 195.754C428.057 194.284 424.287 194.087 421.079 195.451C419.481 196.13 418.125 197.151 417.022 198.457C413.878 202.167 412.733 208.159 413.678 215.056C414.345 219.927 416.053 225.251 418.836 230.539C423.248 238.921 429.452 245.492 435.696 249.097C436.987 249.843 438.279 250.461 439.557 250.943C443.456 252.408 447.226 252.605 450.434 251.244ZM461.126 253.521C464.137 249.798 465.223 243.902 464.296 237.135L442.447 228.928L461.126 253.521Z" fill="white"/>
<path d="M464.294 237.135C465.222 243.902 464.137 249.797 461.125 253.521L442.446 228.928L464.294 237.135Z" fill="#7B7BDB"/>
<path d="M276.436 60.2115L480.48 178.017L480.099 312.143C480.089 315.389 477.792 316.698 474.967 315.067L281.154 203.169C278.329 201.538 276.046 197.584 276.055 194.338L276.436 60.2115ZM398.377 238.85L398.587 164.807C398.598 161.181 396.045 156.764 392.892 154.942L290.891 96.0525C287.733 94.2291 285.169 95.6941 285.158 99.3202L284.948 173.363C284.937 176.988 287.487 181.405 290.644 183.228L392.644 242.118C395.801 243.938 398.368 242.476 398.377 238.85ZM471.353 280.983L471.562 206.94C471.574 203.315 469.022 198.896 465.867 197.075L412.352 166.177C409.197 164.356 406.63 165.819 406.619 169.445L406.41 243.488C406.399 247.113 408.95 251.531 412.105 253.353L465.62 284.25C468.775 286.071 471.344 284.609 471.353 280.983Z" fill="#F0F0FF" fill-opacity="0.63"/>
<path d="M298.627 142.529L298.871 142.669L298.823 159.44L298.793 169.773L298.551 169.632L298.579 159.301L298.627 142.529Z" fill="#7B7BDB"/>
<path d="M341.255 183.917C341.301 183.953 341.347 183.988 341.395 184.018L341.366 194.351L341.227 194.27L341.255 183.939V183.917Z" fill="#7684CA"/>
<path d="M339.67 171.295L339.645 180.049C339.64 181.544 340.341 183.188 341.255 183.916C340.266 183.284 339.481 181.536 339.486 179.957L339.508 172.394C339.508 171.971 339.567 171.6 339.67 171.295Z" fill="#7684CA"/>
<path d="M334.249 158.489C335.239 159.145 336.023 160.892 336.019 162.472L335.998 170.035C335.993 171.614 335.2 172.449 334.211 171.964L334.249 158.489Z" fill="#7684CA"/>
<path d="M341.443 167.247L341.688 167.39L341.641 184.16L341.611 194.493L341.365 194.352L341.395 184.017L341.443 167.247Z" fill="#7B7BDB"/>
<path d="M346.786 176.598C346.791 175.018 347.58 174.18 348.573 174.668L348.535 188.143C347.542 187.485 346.761 185.741 346.765 184.161L346.786 176.598Z" fill="#7684CA"/>
<path d="M285.6 58.6621C286.555 59.2123 287.327 60.5473 287.324 61.6445C287.321 62.7417 286.544 63.1808 285.589 62.6307C284.638 62.0821 283.866 60.7471 283.869 59.6499C283.87 58.5527 284.647 58.1135 285.6 58.6621Z" fill="white"/>
<path d="M348.603 164.136L348.811 164.255L348.78 174.788L348.742 188.262L348.714 198.593L348.505 198.474L348.535 188.141L348.573 174.667L348.603 164.136Z" fill="#7684CA"/>
<path d="M293.19 63.0449C294.144 63.595 294.913 64.9285 294.91 66.0257C294.907 67.1228 294.132 67.5636 293.179 67.0134C292.224 66.4633 291.455 65.1298 291.459 64.0326C291.462 62.9355 292.235 62.4947 293.19 63.0449Z" fill="white"/>
<path d="M355.717 175.332L355.744 165.652L355.987 165.794L355.96 175.472L355.931 185.654L355.896 197.836L355.654 197.695L355.687 185.514L355.717 175.332Z" fill="#7B7BDB"/>
<path d="M300.782 67.4284C301.736 67.9786 302.505 69.3121 302.502 70.4092C302.499 71.5064 301.723 71.9472 300.77 71.3954C299.816 70.8453 299.047 69.5118 299.05 68.4146C299.052 67.3175 299.827 66.8767 300.782 67.4284Z" fill="white"/>
<path d="M369.987 183.727L370.233 183.87L370.185 200.64L370.155 210.975L369.909 210.832L369.939 200.497L369.987 183.727Z" fill="#7B7BDB"/>
<path d="M363.131 181.738L363.164 169.937L363.372 170.058L363.339 181.859L363.309 192.395L363.101 192.274L363.131 181.738Z" fill="#7684CA"/>
<path d="M364.966 170.976C365.083 171.433 365.15 171.907 365.148 172.367L365.127 179.93C365.123 181.509 364.33 182.346 363.34 181.859L363.374 170.058L364.966 170.976Z" fill="#7684CA"/>
<path d="M363.199 157.732L363.407 157.853L363.377 168.384L363.372 169.99L363.165 169.869L363.169 168.263L363.199 157.732Z" fill="#7684CA"/>
<path d="M382.457 205.565L382.527 181.116L386.293 183.289L386.223 207.738C386.22 208.888 385.438 209.375 384.455 208.88L384.503 192.108L384.26 191.969L384.212 208.74C383.229 208.1 382.454 206.714 382.457 205.565Z" fill="#7B7BDB"/>
<path d="M395.804 188.715L386.293 183.289L382.527 181.116L364.966 170.976L363.372 170.056L361.571 169.016L355.987 165.793L355.744 165.652L343.474 158.569L339.713 156.397L334.263 153.251L327.442 149.313L327.2 149.172L321.443 145.848L319.71 144.848L317.766 143.725L313.171 141.073L312.925 140.932L300.66 133.849L296.894 131.675L287.796 126.423L296.894 131.609L300.66 133.783L312.927 140.865L313.173 141.006L317.775 143.665L319.499 144.659L321.435 145.777L327.2 149.107L327.442 149.246L334.054 153.063L339.713 156.33L343.475 158.503L355.744 165.587L355.987 165.726L361.593 168.962L363.164 169.871L364.945 170.898L382.527 181.049L386.293 183.223L395.804 188.715Z" fill="#D5D0FE"/>
<path d="M435.719 223.078L435.723 223.088L435.755 223.346L435.719 223.078Z" fill="#7A56D6"/>
<path d="M435.723 223.089L435.99 223.436L435.755 223.347L435.723 223.089Z" fill="#7684CA"/>
<path d="M435.989 223.435L454.665 248.027C453.529 249.435 452.117 250.531 450.434 251.246C447.226 252.606 443.456 252.409 439.555 250.943C438.276 250.461 436.985 249.842 435.695 249.097C429.451 245.492 423.247 238.921 418.834 230.539C416.051 225.251 414.342 219.928 413.676 215.056L435.756 223.347L435.989 223.435Z" fill="#7684CA"/>
<path d="M475.397 164.078C478.222 165.709 480.505 169.662 480.496 172.909L480.481 178.016L276.438 60.2112L276.452 55.1042C276.461 51.857 278.759 50.549 281.584 52.1789L475.397 164.078ZM285.588 62.6307C286.542 63.1809 287.319 62.7417 287.322 61.6445C287.325 60.5473 286.553 59.2139 285.599 58.6621C284.647 58.112 283.87 58.5527 283.867 59.6483C283.864 60.7455 284.636 62.0805 285.588 62.6307ZM293.179 67.0131C294.134 67.5633 294.907 67.1225 294.911 66.0254C294.914 64.9282 294.145 63.5963 293.19 63.0445C292.236 62.4944 291.462 62.9351 291.459 64.0323C291.456 65.1295 292.225 66.4614 293.179 67.0131ZM300.769 71.3955C301.724 71.9457 302.497 71.505 302.5 70.4078C302.504 69.3122 301.735 67.9787 300.78 67.427C299.826 66.8768 299.052 67.3176 299.049 68.4147C299.046 69.5119 299.816 70.8438 300.769 71.3955Z" fill="#9595EF"/>
<path d="M375.896 192.604C375.899 191.452 376.69 190.962 377.681 191.471L377.643 204.948C376.654 204.314 375.868 202.917 375.871 201.761L375.896 192.604Z" fill="#7684CA"/>
</svg>
