<svg width="163" height="163" viewBox="0 0 163 163" fill="none" xmlns="http://www.w3.org/2000/svg">
<mask id="mask0" mask-type="alpha" maskUnits="userSpaceOnUse" x="0" y="69" width="163" height="94">
<path fill-rule="evenodd" clip-rule="evenodd" d="M0 69.7472H162.283V163H0V69.7472Z" fill="white"/>
</mask>
<g mask="url(#mask0)">
<path opacity="0.585045" fill-rule="evenodd" clip-rule="evenodd" d="M110.496 90.3701C133.585 106.992 164.286 96.1947 162.181 125.703C160.075 155.211 129.297 163.746 59.95 162.95C-9.39701 162.153 -6.40961 124.313 9.19243 103.431C16.9937 92.9898 36.7325 73.8626 57.3873 70.2749C78.0422 66.6878 99.247 82.2709 110.496 90.3701Z" fill="#9595EF"/>
</g>
<g clip-path="url(#clip0)">
<path d="M72.9319 121.729L73.0402 116.384L65.1418 115.647L36.9892 99.848C34.2525 98.3077 30.0933 98.1365 27.7224 99.4794L8.2947 110.381L2.61812 109.854L2.52329 114.804C2.42845 115.871 3.18714 117.029 4.77224 117.924L38.4659 136.83C41.2026 138.371 45.3618 138.542 47.7327 137.199L71.3332 123.954C72.3899 123.362 72.9183 122.572 72.9319 121.729Z" fill="#9595EF"/>
<path d="M65.2908 115.173L37.2331 99.4267C34.3474 97.8073 29.9578 97.6493 27.4515 99.0581L8.17277 109.867L2.11684 109.301L2.00846 114.765C1.90008 116.081 2.80779 117.398 4.51483 118.359L38.2085 137.265C39.7801 138.147 41.7987 138.594 43.709 138.594C45.3076 138.594 46.8521 138.278 47.9901 137.633L71.5906 124.389C72.7693 123.73 73.4331 122.783 73.4467 121.742L73.5551 115.936L65.2908 115.173ZM40.0375 136.975V132.512L37.3008 131.011V135.606L5.02965 117.49C4.73159 117.332 4.47418 117.148 4.24387 116.963V112.408L3.10584 111.486L3.13294 110.394L8.41663 110.881L27.9798 99.9138C30.2017 98.6631 34.1306 98.8342 36.7318 100.282L64.8844 116.081L64.9792 116.134L72.5254 116.832L72.5119 117.872L48.505 132.314L45.3212 132.986H43.3161V137.581C42.1916 137.554 41.0671 137.344 40.0375 136.975Z" fill="#16110D"/>
<path d="M71.4553 118.859L47.8548 132.104C45.4839 133.433 41.3383 133.276 38.588 131.735L4.89435 112.816C2.15767 111.276 1.85961 108.945 4.2305 107.616L27.831 94.3711C30.2019 93.0414 34.3475 93.1994 37.0978 94.7397L70.7915 113.646C73.5281 115.199 73.8262 117.529 71.4553 118.859Z" fill="white"/>
<path d="M43.831 133.486C41.9208 133.486 39.9021 133.039 38.3306 132.156L4.63686 113.251C3.02465 112.355 2.11694 111.118 2.11694 109.88C2.11694 108.814 2.78079 107.866 3.97301 107.194L27.5735 93.9498C30.0799 92.5411 34.4694 92.7123 37.3551 94.3185L71.0353 113.224C72.6475 114.12 73.5552 115.357 73.5552 116.595C73.5552 117.661 72.8913 118.609 71.6991 119.28L48.0986 132.525C46.9606 133.17 45.4297 133.486 43.831 133.486ZM31.8547 93.9762C30.4457 93.9762 29.0909 94.2526 28.0883 94.8188L4.48783 108.063C3.60722 108.564 3.14659 109.182 3.14659 109.893C3.14659 110.762 3.87817 111.684 5.15168 112.395L38.8454 131.288C41.4466 132.749 45.3619 132.907 47.5973 131.656L71.1978 118.412C72.0785 117.924 72.5391 117.292 72.5391 116.595C72.5391 115.713 71.8075 114.804 70.534 114.093L36.8267 95.1874C35.4042 94.3843 33.5752 93.9762 31.8547 93.9762Z" fill="#16110D"/>
<path d="M13.2127 113.303C12.305 113.303 11.3431 113.08 10.5844 112.658L8.76899 111.644C7.95611 111.184 7.48193 110.539 7.48193 109.88C7.48193 109.301 7.83418 108.774 8.47093 108.419L30.9198 95.8194C32.1527 95.1216 34.2255 95.2006 35.6345 95.9906L37.4499 97.0043C38.2628 97.4651 38.737 98.1102 38.737 98.7685C38.737 99.3478 38.3848 99.8744 37.748 100.23L15.2991 112.829C14.7301 113.145 13.9849 113.303 13.2127 113.303ZM32.9927 96.3592C32.3966 96.3592 31.8411 96.4645 31.4347 96.7015L8.98575 109.288C8.80963 109.38 8.51158 109.591 8.51158 109.88C8.51158 110.17 8.79608 110.512 9.28381 110.776L11.0992 111.789C12.1831 112.395 13.863 112.474 14.7843 111.96L37.2332 99.361C37.4093 99.2688 37.7074 99.0582 37.7074 98.7685C37.7074 98.4789 37.4228 98.1366 36.9351 97.8733L35.1197 96.8595C34.51 96.5304 33.7243 96.3592 32.9927 96.3592Z" fill="#16110D"/>
<path d="M21.0842 118.056C20.5423 118.056 19.9733 117.924 19.5127 117.674L17.3992 116.489C16.8708 116.2 16.5728 115.765 16.5728 115.318C16.5728 114.923 16.8166 114.554 17.2366 114.317L19.9191 112.803C20.6642 112.382 21.9106 112.421 22.7642 112.895L24.8776 114.08C25.406 114.37 25.7041 114.804 25.7041 115.252C25.7041 115.647 25.4602 116.015 25.0402 116.252L22.3577 117.766C22.0055 117.964 21.5448 118.056 21.0842 118.056ZM21.179 113.514C20.8945 113.514 20.6236 113.567 20.4339 113.672L17.7514 115.186C17.643 115.252 17.6024 115.305 17.6024 115.318C17.6024 115.357 17.6837 115.489 17.914 115.62L20.0275 116.805C20.5558 117.095 21.3958 117.148 21.8293 116.898L24.5118 115.384C24.6202 115.318 24.6609 115.265 24.6609 115.252C24.6609 115.212 24.5796 115.081 24.3493 114.949L22.2358 113.764C21.9513 113.606 21.5584 113.514 21.179 113.514Z" fill="#16110D"/>
<path d="M28.2507 114.027C27.7088 114.027 27.1398 113.896 26.6792 113.646L24.5657 112.461C24.0373 112.171 23.7393 111.737 23.7393 111.289C23.7393 110.894 23.9831 110.525 24.4031 110.288L27.0856 108.774C27.8307 108.353 29.0771 108.393 29.9307 108.866L32.0441 110.051C32.5725 110.341 32.8706 110.775 32.8706 111.223C32.8706 111.618 32.6267 111.987 32.2067 112.224L29.5242 113.738C29.172 113.935 28.7113 114.027 28.2507 114.027ZM28.3456 109.498C28.061 109.498 27.7901 109.551 27.6004 109.656L24.9179 111.17C24.8095 111.236 24.7689 111.289 24.7689 111.302C24.7689 111.342 24.8502 111.473 25.0805 111.605L27.194 112.79C27.7223 113.079 28.5623 113.132 28.9959 112.882L31.6783 111.368C31.7867 111.302 31.8274 111.249 31.8274 111.236C31.8274 111.197 31.7461 111.065 31.5158 110.933L29.4023 109.749C29.1178 109.577 28.7113 109.498 28.3456 109.498Z" fill="#16110D"/>
<path d="M35.4175 110.012C34.8756 110.012 34.3065 109.88 33.8459 109.63L31.7324 108.445C31.2041 108.156 30.906 107.721 30.906 107.274C30.906 106.879 31.1499 106.51 31.5699 106.273L34.2523 104.772C34.9975 104.351 36.2439 104.39 37.0839 104.864L39.1973 106.049C39.7257 106.339 40.0238 106.773 40.0238 107.221C40.0238 107.616 39.7799 107.984 39.3599 108.221L36.6774 109.735C36.3387 109.92 35.8781 110.012 35.4175 110.012ZM35.5123 105.47C35.2278 105.47 34.9568 105.522 34.7672 105.628L32.0847 107.142C31.9763 107.208 31.9356 107.26 31.9356 107.274C31.9356 107.313 32.0169 107.445 32.2473 107.576L34.3607 108.761C34.8891 109.051 35.7291 109.104 36.1626 108.853L38.8451 107.353C38.9535 107.287 38.9941 107.234 38.9941 107.221C38.9941 107.181 38.9128 107.05 38.6825 106.918L36.569 105.733C36.2845 105.562 35.8916 105.47 35.5123 105.47Z" fill="#16110D"/>
<path d="M42.5845 105.996C42.0425 105.996 41.4735 105.865 41.0129 105.615L38.8994 104.43C38.3711 104.14 38.073 103.706 38.073 103.258C38.073 102.863 38.3169 102.494 38.7368 102.257L41.4193 100.743C42.1645 100.322 43.4109 100.361 44.2644 100.835L46.3779 102.02C46.9062 102.31 47.2043 102.744 47.2043 103.192C47.2043 103.587 46.9604 103.956 46.5405 104.193L43.858 105.694C43.5057 105.891 43.0451 105.996 42.5845 105.996ZM42.6793 101.454C42.3948 101.454 42.1238 101.507 41.9342 101.612L39.2517 103.113C39.1433 103.179 39.1026 103.232 39.1026 103.245C39.1026 103.284 39.1839 103.416 39.4142 103.548L41.5277 104.732C42.0561 105.022 42.8961 105.075 43.3296 104.825L46.0121 103.311C46.1205 103.245 46.1611 103.192 46.1611 103.179C46.1611 103.139 46.0798 103.008 45.8495 102.876L43.736 101.691C43.4515 101.533 43.0586 101.454 42.6793 101.454Z" fill="#16110D"/>
<path d="M28.061 121.966C27.5191 121.966 26.9501 121.835 26.4895 121.584L24.376 120.4C23.8476 120.11 23.5496 119.675 23.5496 119.228C23.5496 118.833 23.7934 118.464 24.2134 118.227L26.8959 116.713C27.641 116.292 28.8874 116.331 29.741 116.805L31.8544 117.99C32.3828 118.28 32.6809 118.714 32.6809 119.162C32.6809 119.557 32.437 119.926 32.017 120.163L29.3345 121.677C28.9823 121.874 28.5217 121.966 28.061 121.966ZM28.1559 117.437C27.8714 117.437 27.6004 117.49 27.4107 117.595L24.7282 119.109C24.6198 119.175 24.5792 119.228 24.5792 119.241C24.5792 119.28 24.6605 119.412 24.8908 119.544L27.0043 120.729C27.5327 121.018 28.3726 121.071 28.8062 120.821L31.4887 119.307C31.597 119.241 31.6377 119.188 31.6377 119.175C31.6377 119.136 31.5564 119.004 31.3261 118.872L29.2126 117.687C28.9281 117.516 28.5352 117.437 28.1559 117.437Z" fill="#16110D"/>
<path d="M35.228 117.951C34.6861 117.951 34.1171 117.819 33.6565 117.569L31.543 116.384C31.0146 116.094 30.7166 115.66 30.7166 115.212C30.7166 114.817 30.9604 114.449 31.3804 114.212L34.0629 112.698C34.808 112.276 36.0544 112.316 36.908 112.79L39.0214 113.975C39.5498 114.264 39.8479 114.699 39.8479 115.146C39.8479 115.541 39.604 115.91 39.184 116.147L36.5015 117.661C36.1493 117.845 35.6886 117.951 35.228 117.951ZM35.3228 113.409C35.0383 113.409 34.7674 113.461 34.5777 113.567L31.8952 115.081C31.7868 115.146 31.7462 115.199 31.7462 115.212C31.7462 115.252 31.8275 115.383 32.0578 115.515L34.1713 116.7C34.6996 116.99 35.5396 117.042 35.9732 116.792L38.6556 115.278C38.764 115.212 38.8047 115.16 38.8047 115.146C38.8047 115.107 38.7234 114.975 38.4931 114.844L36.3796 113.659C36.0951 113.501 35.7022 113.409 35.3228 113.409Z" fill="#16110D"/>
<path d="M42.3948 113.922C41.8528 113.922 41.2838 113.79 40.8232 113.54L38.7097 112.355C38.1814 112.066 37.8833 111.631 37.8833 111.184C37.8833 110.789 38.1272 110.42 38.5471 110.183L41.2296 108.669C41.9748 108.248 43.2212 108.287 44.0612 108.761L46.1746 109.946C46.703 110.236 47.0011 110.67 47.0011 111.118C47.0011 111.513 46.7572 111.881 46.3372 112.118L43.6547 113.619C43.316 113.83 42.8689 113.922 42.3948 113.922ZM42.5031 109.393C42.2186 109.393 41.9477 109.446 41.758 109.551L39.0755 111.065C38.9671 111.131 38.9265 111.184 38.9265 111.197C38.9265 111.236 39.0078 111.368 39.2381 111.5L41.3516 112.685C41.8799 112.974 42.7199 113.027 43.1534 112.777L45.8359 111.263C45.9443 111.197 45.985 111.144 45.985 111.131C45.985 111.092 45.9037 110.96 45.6734 110.828L43.5599 109.643C43.2618 109.472 42.8689 109.393 42.5031 109.393Z" fill="#16110D"/>
<path d="M49.5618 109.907C49.0198 109.907 48.4508 109.775 47.9902 109.525L45.8767 108.34C45.3483 108.05 45.0503 107.616 45.0503 107.168C45.0503 106.773 45.2942 106.405 45.7141 106.168L48.3966 104.654C49.1418 104.232 50.3882 104.272 51.2417 104.746L53.3552 105.931C53.8835 106.22 54.1816 106.655 54.1816 107.102C54.1816 107.497 53.9377 107.866 53.5177 108.103L50.8353 109.604C50.483 109.814 50.0359 109.907 49.5618 109.907ZM49.6701 105.365C49.3856 105.365 49.1147 105.417 48.925 105.523L46.2425 107.023C46.1341 107.089 46.0935 107.142 46.0935 107.155C46.0935 107.195 46.1748 107.326 46.4051 107.458L48.5186 108.643C49.0469 108.932 49.8869 108.985 50.3204 108.735L53.0029 107.221C53.1113 107.155 53.1519 107.102 53.1519 107.089C53.1519 107.05 53.0707 106.918 52.8403 106.786L50.7269 105.601C50.4288 105.457 50.0359 105.365 49.6701 105.365Z" fill="#16110D"/>
<path d="M35.0925 125.916C34.5506 125.916 33.9816 125.784 33.521 125.534L31.4075 124.349C30.8791 124.06 30.5811 123.625 30.5811 123.178C30.5811 122.783 30.8249 122.414 31.2449 122.177L33.9274 120.663C34.6725 120.242 35.9189 120.281 36.7725 120.755L38.8859 121.94C39.4143 122.23 39.7124 122.664 39.7124 123.112C39.7124 123.507 39.4685 123.875 39.0485 124.112L36.366 125.626C36.0138 125.824 35.5667 125.916 35.0925 125.916ZM35.2009 121.374C34.9164 121.374 34.6454 121.426 34.4558 121.532L31.7733 123.046C31.6649 123.112 31.6242 123.164 31.6242 123.178C31.6242 123.217 31.7055 123.349 31.9358 123.48L34.0493 124.665C34.5777 124.955 35.4177 125.008 35.8512 124.757L38.5337 123.243C38.6421 123.178 38.6827 123.125 38.6827 123.112C38.6827 123.072 38.6014 122.941 38.3711 122.809L36.2576 121.624C35.9596 121.466 35.5667 121.374 35.2009 121.374Z" fill="#16110D"/>
<path d="M42.2593 121.9C41.7174 121.9 41.1483 121.769 40.6877 121.519L38.5742 120.334C38.0459 120.044 37.7478 119.61 37.7478 119.162C37.7478 118.767 37.9917 118.398 38.4117 118.161L41.0941 116.661C41.8393 116.239 43.0857 116.279 43.9257 116.753L46.0391 117.938C46.5675 118.227 46.8656 118.662 46.8656 119.109C46.8656 119.504 46.6217 119.873 46.2017 120.11L43.5192 121.624C43.1805 121.795 42.7334 121.9 42.2593 121.9ZM42.3677 117.358C42.0831 117.358 41.8122 117.411 41.6225 117.516L38.94 119.03C38.8316 119.096 38.791 119.149 38.791 119.162C38.791 119.201 38.8723 119.333 39.1026 119.465L41.2161 120.65C41.7445 120.939 42.5844 120.992 43.018 120.742L45.7004 119.241C45.8088 119.175 45.8495 119.122 45.8495 119.109C45.8495 119.07 45.7682 118.938 45.5379 118.807L43.4244 117.622C43.1263 117.437 42.7334 117.358 42.3677 117.358Z" fill="#16110D"/>
<path d="M49.4263 117.872C48.8843 117.872 48.3153 117.74 47.8547 117.49L45.7412 116.305C45.2129 116.016 44.9148 115.581 44.9148 115.133C44.9148 114.738 45.1587 114.37 45.5786 114.133L48.2611 112.619C49.0063 112.197 50.2527 112.237 51.1062 112.711L53.2197 113.896C53.7481 114.186 54.0461 114.62 54.0461 115.068C54.0461 115.463 53.8022 115.831 53.3823 116.068L50.6998 117.569C50.3475 117.78 49.9004 117.872 49.4263 117.872ZM49.5346 113.343C49.2501 113.343 48.9792 113.396 48.7895 113.501L46.107 115.002C45.9986 115.068 45.958 115.12 45.958 115.133C45.958 115.173 46.0393 115.305 46.2696 115.436L48.3831 116.621C48.9114 116.911 49.7514 116.963 50.1849 116.713L52.8674 115.199C52.9758 115.133 53.0165 115.081 53.0165 115.068C53.0165 115.028 52.9352 114.896 52.7049 114.765L50.5914 113.58C50.2933 113.422 49.9004 113.343 49.5346 113.343Z" fill="#16110D"/>
<path d="M56.5932 113.856C56.0513 113.856 55.4823 113.725 55.0217 113.474L52.9082 112.29C52.3798 112 52.0818 111.565 52.0818 111.118C52.0818 110.723 52.3256 110.354 52.7456 110.117L55.4281 108.603C56.1733 108.182 57.4197 108.221 58.2732 108.695L60.3867 109.88C60.915 110.17 61.2131 110.604 61.2131 111.052C61.2131 111.447 60.9692 111.816 60.5492 112.053L57.8668 113.567C57.5145 113.751 57.0674 113.856 56.5932 113.856ZM56.7016 109.314C56.4171 109.314 56.1462 109.367 55.9565 109.472L53.274 110.986C53.1656 111.052 53.125 111.105 53.125 111.118C53.125 111.157 53.2063 111.289 53.4366 111.421L55.5501 112.605C56.0784 112.895 56.9184 112.948 57.3519 112.698L60.0344 111.184L60.2918 111.618L60.0344 111.184C60.1428 111.118 60.1835 111.065 60.1835 111.052C60.1835 111.012 60.1022 110.881 59.8719 110.749L57.7584 109.564C57.4603 109.406 57.0674 109.314 56.7016 109.314Z" fill="#16110D"/>
<path d="M42.0698 129.826C41.5279 129.826 40.9589 129.694 40.4983 129.444L38.3848 128.259C37.8564 127.97 37.5583 127.535 37.5583 127.088C37.5583 126.693 37.8022 126.324 38.2222 126.087L40.9047 124.573C41.6498 124.152 42.8962 124.191 43.7498 124.665L45.8632 125.85C46.3916 126.14 46.6897 126.574 46.6897 127.022C46.6897 127.417 46.4458 127.785 46.0258 128.022L43.3433 129.536C42.9911 129.734 42.544 129.826 42.0698 129.826ZM42.1782 125.297C41.8937 125.297 41.6227 125.35 41.4331 125.455L38.7506 126.969C38.6422 127.035 38.6015 127.088 38.6015 127.101C38.6015 127.14 38.6828 127.272 38.9131 127.404L41.0266 128.589C41.555 128.878 42.395 128.931 42.8285 128.681L45.511 127.18C45.6194 127.114 45.66 127.061 45.66 127.048C45.66 127.009 45.5787 126.877 45.3484 126.745L43.2349 125.56C42.9369 125.376 42.544 125.297 42.1782 125.297Z" fill="#16110D"/>
<path d="M49.2366 125.811C48.6946 125.811 48.1256 125.679 47.665 125.429L45.5515 124.244C45.0232 123.954 44.7251 123.52 44.7251 123.072C44.7251 122.677 44.969 122.309 45.3889 122.072L48.0714 120.558C48.8166 120.136 50.063 120.176 50.9165 120.65L53.03 121.835C53.5583 122.124 53.8564 122.559 53.8564 123.006C53.8564 123.401 53.6125 123.77 53.1926 124.007L50.5101 125.508C50.1578 125.718 49.7107 125.811 49.2366 125.811ZM49.3449 121.268C49.0604 121.268 48.7895 121.321 48.5998 121.426L45.9173 122.927C45.8089 122.993 45.7683 123.046 45.7683 123.059C45.7683 123.098 45.8496 123.23 46.0799 123.362L48.1934 124.547C48.7217 124.836 49.5617 124.889 49.9952 124.639L52.6777 123.125C52.7861 123.059 52.8268 123.006 52.8268 122.993C52.8268 122.954 52.7455 122.822 52.5152 122.69L50.4017 121.505C50.1036 121.361 49.7107 121.268 49.3449 121.268Z" fill="#16110D"/>
<path d="M56.4033 121.795C55.8614 121.795 55.2924 121.663 54.8317 121.413L52.7183 120.228C52.1899 119.939 51.8918 119.504 51.8918 119.057C51.8918 118.662 52.1357 118.293 52.5557 118.056L55.2382 116.542C55.9833 116.121 57.2297 116.16 58.0833 116.634L60.1967 117.819C60.7251 118.109 61.0232 118.543 61.0232 118.991C61.0232 119.386 60.7793 119.754 60.3593 119.991L57.6768 121.505C57.3246 121.69 56.8775 121.795 56.4033 121.795ZM56.5117 117.253C56.2272 117.253 55.9562 117.306 55.7666 117.411L53.0841 118.912C52.9757 118.978 52.935 119.03 52.935 119.044C52.935 119.083 53.0163 119.215 53.2466 119.346L55.3601 120.531C55.8885 120.821 56.7285 120.874 57.162 120.623L59.8445 119.109C59.9529 119.044 59.9935 118.991 59.9935 118.978C59.9935 118.938 59.9122 118.807 59.6819 118.675L57.5684 117.49C57.2704 117.332 56.8775 117.253 56.5117 117.253Z" fill="#16110D"/>
<path d="M63.5703 117.766C63.0284 117.766 62.4594 117.635 61.9987 117.385L59.8853 116.2C59.3569 115.91 59.0588 115.476 59.0588 115.028C59.0588 114.633 59.3027 114.264 59.7227 114.027L62.4052 112.513C63.1503 112.092 64.3967 112.132 65.2502 112.606L67.3637 113.79C67.8921 114.08 68.1901 114.515 68.1901 114.962C68.1901 115.357 67.9463 115.726 67.5263 115.963L64.8438 117.477C64.4916 117.674 64.0445 117.766 63.5703 117.766ZM63.6787 113.224C63.3942 113.224 63.1232 113.277 62.9335 113.382L60.2511 114.896C60.1427 114.962 60.102 115.015 60.102 115.028C60.102 115.068 60.1833 115.199 60.4136 115.331L62.5271 116.516C63.0555 116.805 63.8954 116.858 64.329 116.608L67.0115 115.094C67.1199 115.028 67.1605 114.975 67.1605 114.962C67.1605 114.923 67.0792 114.791 66.8489 114.659L64.7354 113.475C64.4374 113.317 64.0445 113.224 63.6787 113.224Z" fill="#16110D"/>
<path d="M118.331 75.0704C107.493 56.1383 99.7975 60.9305 95.0015 63.6163C90.2055 66.3021 80.3697 59.4955 77.4976 37.4431C74.3815 13.3632 56.6067 0.934814 56.6067 0.934814L47.6108 6.21423L53.1249 22.5659L56.6067 27.3319V66.3811L112.167 97.5573L115.581 104.219L125.051 115.107L134.047 109.828C134.047 109.828 129.169 94.0026 118.331 75.0704Z" fill="white"/>
<path d="M134.819 109.604C134.765 109.446 129.793 93.4759 119.036 74.6886C118.67 74.0434 118.304 73.4378 117.938 72.8322C117.857 72.7006 117.789 72.5821 117.708 72.4504C117.356 71.8843 117.017 71.3445 116.665 70.831C116.651 70.8179 116.651 70.8047 116.638 70.7915C112.763 64.9855 108.969 61.6283 105.095 60.5882C103.157 60.0616 101.383 60.1801 99.7975 60.5882C97.8872 61.0885 96.2344 62.0101 94.866 62.7737L94.6086 62.9185C93.43 63.5768 91.899 63.511 90.2868 62.7342C85.816 60.575 80.3156 52.7678 78.3105 37.3245C75.1673 13.2051 57.257 0.4213 57.0809 0.302809L56.6473 0L46.8115 5.76654V6.33266L52.3662 22.8029L55.8073 27.582V66.8287L111.557 98.1102L114.863 104.561L124.522 115.713L125.037 116.015L134.981 110.183L134.819 109.604ZM53.8429 22.2104L48.5592 6.55648L56.5389 1.86952C59.2079 3.92335 73.9209 16.1279 76.6983 37.5352C79.3266 57.7444 87.1979 63.0107 89.5417 64.1429C90.3817 64.551 91.2216 64.8012 92.0345 64.8933L89.3385 66.3811L89.2301 66.6049C89.1759 66.7102 84.7864 75.9656 82.6187 80.0865L57.406 65.9334V27.0817L53.8429 22.2104ZM125.213 114.093L116.245 103.785L112.776 96.9911L84.0412 80.8632C86.0328 77.0979 89.921 68.9483 90.612 67.487L100.272 62.1022C100.366 62.0759 100.448 62.0496 100.543 62.0364C100.759 61.9837 100.976 61.9442 101.193 61.9179C101.328 61.8916 101.464 61.8784 101.613 61.8653C101.884 61.8389 102.155 61.8126 102.439 61.8126C102.466 61.8126 102.507 61.8126 102.548 61.8126C105.013 61.8521 107.479 62.9712 109.972 65.2093C109.986 65.2225 109.986 65.2225 109.999 65.2356C110.676 65.8413 111.34 66.5259 112.018 67.3027C112.153 67.4475 112.275 67.6055 112.411 67.7635C112.6 67.9873 112.79 68.2111 112.98 68.4481C113.129 68.6324 113.278 68.8167 113.427 69.0142C113.63 69.2775 113.833 69.554 114.036 69.8305C114.226 70.0806 114.402 70.3439 114.592 70.6072C114.822 70.9364 115.066 71.2787 115.296 71.6341C115.418 71.8185 115.554 72.0159 115.676 72.2134C115.892 72.5557 116.123 72.898 116.34 73.2535C116.448 73.4247 116.556 73.609 116.665 73.7933C116.99 74.3331 117.329 74.886 117.654 75.4653C127.178 92.1067 132.123 106.497 133.112 109.498L125.213 114.093Z" fill="#16110D"/>
<path d="M47.6108 71.6473V6.20096C47.6108 6.20096 65.3857 18.6293 68.5153 42.7092C71.3739 64.7617 81.2232 71.5814 86.0192 68.8825C90.8152 66.1967 98.5239 61.4044 109.349 80.3366C120.187 99.2687 125.051 115.094 125.051 115.094L47.6108 71.6473Z" fill="#9595EF"/>
<path d="M125.986 115.449L125.037 116.002L46.8115 72.1081V5.76652L47.6515 5.27939L48.085 5.5822C48.2611 5.71385 66.1851 18.4845 69.3146 42.6171C71.3197 58.0604 76.8202 65.8676 81.291 68.0267C82.9032 68.8035 84.4477 68.8693 85.6128 68.2111L85.8702 68.0662C88.3766 66.6575 91.8177 64.7222 96.0989 65.8676C100.773 67.1183 105.339 71.7263 110.04 79.9548C120.783 98.7421 125.769 114.712 125.809 114.87L125.986 115.449ZM48.4102 71.1997L123.642 113.409C122.003 108.656 117.139 95.5824 108.631 80.7184C104.201 72.977 99.8381 68.4875 95.6653 67.3685C92.0345 66.3942 89.054 68.0662 86.6695 69.4091L86.4121 69.554C84.7593 70.4755 82.6864 70.4361 80.573 69.4091C78.2156 68.2769 70.3443 62.9975 67.716 42.8014C65.1554 23.1056 52.4881 11.2039 48.4102 7.83352V71.1997Z" fill="#16110D"/>
<path d="M99.1877 95.1084C90.3544 79.6652 84.0682 83.5754 80.1528 85.7609C76.251 87.9595 68.2171 82.4036 65.8733 64.4062C63.3263 44.7631 48.83 34.6256 48.83 34.6256L41.4871 38.9307L45.985 52.2675L48.83 56.1514V88.0122L94.1478 113.448L96.9252 118.886L104.647 127.772L111.99 123.467C111.99 123.467 108.021 110.552 99.1877 95.1084Z" fill="white"/>
<path d="M84.2307 83.9308L76.0613 88.4861C76.0613 88.4861 71.9834 97.0832 70.3306 100.098L94.1478 113.461L96.9251 118.899L104.647 127.785L111.99 123.48C111.99 123.48 108.007 110.565 99.1741 95.1216C92.9556 84.2073 87.9835 82.9565 84.2307 83.9308Z" fill="white"/>
<path d="M112.627 123.283C112.587 123.151 108.522 110.13 99.7567 94.8057C99.4587 94.279 99.1606 93.7787 98.8626 93.2916C98.7948 93.1863 98.7406 93.081 98.6729 92.9888C98.3884 92.528 98.1039 92.0935 97.8194 91.6591C97.8058 91.6459 97.8058 91.6327 97.7923 91.6196C94.6356 86.8799 91.5331 84.1547 88.3765 83.2989C86.7913 82.8776 85.3553 82.9698 84.0547 83.2989C82.4967 83.707 81.1419 84.4575 80.0309 85.0894L79.8142 85.2079C78.8523 85.7477 77.6059 85.695 76.2782 85.0499C72.6338 83.2857 68.1494 76.9136 66.5101 64.3141C63.9495 44.6315 49.3449 34.2043 49.1959 34.099L48.8436 33.8488L40.8232 38.5489V39.0097L45.3482 52.4518L48.1662 56.3489V88.3677L93.6466 113.883L96.3426 119.149L104.228 128.246L104.648 128.496L112.763 123.757L112.627 123.283ZM46.5811 51.991L42.2729 39.2204L48.7894 35.4024C50.9706 37.0744 62.9741 47.0276 65.2366 64.4852C67.3636 80.9686 73.7989 85.2737 75.7091 86.1953C76.4001 86.5245 77.0775 86.7351 77.7413 86.8141L75.5466 88.0385L75.4653 88.2097C75.4246 88.2887 71.8344 95.8457 70.0732 99.203L49.4804 87.6567V55.9671L46.5811 51.991ZM104.797 126.943L97.4807 118.53L94.6491 112.987L71.1977 99.8349C72.8234 96.7673 75.9937 90.1187 76.5627 88.9206L84.434 84.5233C84.5018 84.5101 84.583 84.4838 84.6508 84.4706C84.8269 84.4311 85.003 84.4048 85.1791 84.3785C85.2875 84.3653 85.4095 84.3521 85.5178 84.339C85.7346 84.3127 85.9649 84.2995 86.1817 84.2995C86.2088 84.2995 86.2359 84.2995 86.263 84.2995C88.2681 84.3258 90.2867 85.2474 92.3189 87.0643C92.3325 87.0774 92.3325 87.0774 92.346 87.0906C92.9015 87.5777 93.4434 88.1439 93.9989 88.7758C94.1072 88.8943 94.2156 89.0259 94.3104 89.1444C94.4595 89.3288 94.6221 89.5131 94.7711 89.6974C94.893 89.8422 95.0149 90.0002 95.1369 90.1582C95.2994 90.3688 95.4756 90.5927 95.6381 90.8165C95.7872 91.0271 95.9362 91.2246 96.0852 91.4484C96.2749 91.7249 96.4646 92.0014 96.6678 92.291C96.7762 92.449 96.871 92.607 96.9794 92.765C97.1555 93.0415 97.3452 93.3179 97.5213 93.6076C97.6161 93.7524 97.6974 93.8972 97.7923 94.042C98.0632 94.4897 98.3342 94.9373 98.6051 95.4113C106.368 108.985 110.405 120.716 111.218 123.164L104.797 126.943Z" fill="#16110D"/>
<path d="M41.4871 92.3305V38.9307C41.4871 38.9307 55.9833 49.0683 58.5304 68.7114C60.8606 86.7088 68.8945 92.2647 72.8099 90.066C76.7117 87.8673 83.0115 83.9703 91.8447 99.4136C100.678 114.857 104.661 127.772 104.661 127.772L41.4871 92.3305Z" fill="#9595EF"/>
<path d="M105.42 128.049L104.647 128.496L40.8367 92.686V38.5753L41.5276 38.1803L41.8799 38.4304C42.0289 38.5358 56.6471 48.9629 59.1941 68.6455C60.8334 81.245 65.3178 87.6172 68.9622 89.3814C70.2763 90.0133 71.5363 90.066 72.4982 89.5394L72.7014 89.4209C74.7471 88.2623 77.5516 86.6956 81.0469 87.6304C84.8539 88.6573 88.5796 92.4095 92.4272 99.124C101.193 114.449 105.257 127.47 105.298 127.601L105.42 128.049ZM42.1373 91.9619L103.509 126.39C102.168 122.506 98.2122 111.842 91.2621 99.7164C87.6583 93.4101 84.0952 89.7369 80.6811 88.8284C77.7141 88.0385 75.2891 89.3946 73.3382 90.5005L73.1214 90.619C71.7666 91.3694 70.0731 91.3299 68.3525 90.5005C66.4287 89.5789 60.007 85.2737 57.8664 68.7904C55.78 52.7283 45.443 43.0121 42.1237 40.2605V91.9619H42.1373Z" fill="#16110D"/>
<path d="M92.7932 131.143L91.2623 131.59C90.7475 131.09 90.0972 130.603 89.3249 130.168C85.1386 127.785 78.7982 127.535 75.1674 129.589L60.373 137.936L55.8887 139.253V142.715H55.9022C55.97 144.256 57.1215 145.862 59.3569 147.126C63.5432 149.509 69.8837 149.759 73.5145 147.705L90.341 138.199C91.9532 137.278 92.7526 136.067 92.7797 134.776V131.143H92.7932Z" fill="#9595EF"/>
<path d="M67.3638 149.575C64.4917 149.575 61.4569 148.89 59.0996 147.547C57.0538 146.389 55.7126 144.953 55.401 143.387L55.3875 142.715V138.897L60.1699 137.489L74.9236 129.168C78.6899 127.035 85.2606 127.298 89.5824 129.747C90.2733 130.142 90.883 130.577 91.3978 131.037L93.2945 131.261L93.2539 135.171C93.0778 136.527 92.143 137.739 90.5849 138.621L73.7449 148.126C72.0514 149.101 69.7618 149.575 67.3638 149.575ZM56.39 142.518L56.4035 142.702C56.4577 144.124 57.6229 145.599 59.6009 146.718C63.6517 149.022 69.7618 149.272 73.2436 147.297L90.0837 137.791C91.4926 136.988 92.2513 135.948 92.2784 134.79V134.658V131.814L91.0998 132.156L90.883 131.946C90.3817 131.459 89.7721 131.011 89.054 130.603C85.0168 128.312 78.8931 128.049 75.4113 130.024L60.5086 138.423L56.39 139.635V142.518Z" fill="#16110D"/>
<path d="M90.3411 134.75L73.5145 144.256C69.8837 146.31 63.5433 146.059 59.357 143.676C55.1706 141.293 54.71 137.699 58.3409 135.645L75.1674 126.14C78.7982 124.086 85.1387 124.336 89.325 126.719C93.5113 129.089 93.9719 132.696 90.3411 134.75Z" fill="white"/>
<path d="M67.3638 146.125C64.4917 146.125 61.4569 145.441 59.0996 144.098C56.7422 142.755 55.3875 140.951 55.3875 139.134C55.3875 137.594 56.3494 136.212 58.0835 135.224L74.9236 125.719C78.6899 123.586 85.2606 123.836 89.5824 126.298C91.9397 127.641 93.2945 129.444 93.2945 131.261C93.2945 132.802 92.3326 134.184 90.5985 135.171L73.772 144.677C72.0514 145.651 69.7618 146.125 67.3638 146.125ZM81.3182 125.231C79.1099 125.231 76.9964 125.666 75.4248 126.561L58.5848 136.067C57.1622 136.87 56.39 137.963 56.39 139.134C56.39 140.596 57.5687 142.097 59.6009 143.255C63.6517 145.546 69.7618 145.809 73.2436 143.834L90.0837 134.329C91.5062 133.526 92.2784 132.433 92.2784 131.261C92.2784 129.8 91.0998 128.299 89.054 127.14C86.8457 125.877 84.0007 125.231 81.3182 125.231Z" fill="#16110D"/>
<path d="M86.9677 129.971C90.0431 131.696 90.0431 134.487 86.9677 136.212C83.8923 137.936 78.9203 137.936 75.8449 136.212C72.7695 134.487 72.7695 131.696 75.8449 129.971C78.9203 128.246 83.9059 128.246 86.9677 129.971Z" fill="#9595EF"/>
<path d="M81.4131 135.935C79.3132 135.935 77.1997 135.487 75.6011 134.592C73.9482 133.671 73.0405 132.407 73.0405 131.051C73.0405 129.695 73.9482 128.431 75.6011 127.509C78.8119 125.705 84.0143 125.705 87.2252 127.509C88.878 128.431 89.7857 129.695 89.7857 131.051C89.7857 132.407 88.878 133.671 87.2252 134.592C85.6265 135.487 83.5131 135.935 81.4131 135.935ZM81.4131 127.114C79.4893 127.114 77.5655 127.522 76.1024 128.339C74.7747 129.076 74.0566 130.037 74.0566 131.037C74.0566 132.038 74.7882 132.986 76.1024 133.736C79.0287 135.382 83.7976 135.382 86.7239 133.736C88.0516 132.999 88.7696 132.038 88.7696 131.037C88.7696 130.037 88.0381 129.089 86.7239 128.339C85.2607 127.522 83.3369 127.114 81.4131 127.114Z" fill="#16110D"/>
<path d="M70.1816 145.651V148.864L73.0403 147.955L91.75 137.304L93.0099 134.961L92.6441 132.604L74.3409 143.795L70.1816 145.651Z" fill="#16110D"/>
<path d="M67.147 145.651V149.245L64.7219 149.101V145.454L67.147 145.651Z" fill="#16110D"/>
</g>
<defs>
<clipPath id="clip0">
<rect x="2" width="133" height="153" fill="white"/>
</clipPath>
</defs>
</svg>
