<svg width="163" height="28" viewBox="0 0 163 28" fill="none" xmlns="http://www.w3.org/2000/svg">
<path d="M22.9905 4.0564C21.0792 2.07087 17.9631 0.300781 12.5126 0.300781C6.40809 0.300781 0.894168 2.78901 0.894168 7.79781C0.894168 12.9273 6.3937 13.4671 11.73 13.9935C16.7701 14.4993 21.6596 14.9997 21.6596 19.6068C21.6596 23.0791 17.8895 26.0779 12.3112 26.0779C9.09609 26.0779 6.91151 24.9652 5.4884 23.626C4.02637 22.2505 3.20397 20.2523 3.24374 18.5659H0.00916551C-0.106748 20.9105 0.880629 23.0041 2.75301 24.6274C4.84368 26.4575 8.15271 27.6657 12.3332 27.6657C18.4631 27.6657 25.0549 25.2375 25.0549 19.6036C25.0549 13.647 18.6941 13.0725 12.9873 12.4625C8.33208 11.963 4.11267 11.4484 4.11267 7.80097C4.11267 4.54726 7.24317 1.89173 12.5126 1.89173C16.9757 1.89173 19.4378 3.86463 20.5504 5.51635L22.9905 4.0564Z" fill="#9FA1F2"/>
<path d="M152.472 0.307861C148.176 0.307861 145.227 1.99509 142.598 4.96391C139.835 8.08267 138.26 9.86775 136.416 10.2757V0.612477H133.223V27.365H136.416V12.0285C139.716 11.9851 141.932 9.56077 144.829 6.36073C146.701 4.27892 149.176 1.8996 152.472 1.8996C158.936 1.8996 159.256 7.77254 159.256 10.5953V27.365H162.449V10.3554C162.449 6.3844 161.333 0.307861 152.472 0.307861Z" fill="#9FA1F2"/>
<path d="M75.4566 0.610132L61.1198 25.022C59.876 27.1527 58.2854 27.6657 56.1567 27.6657C53.5025 27.6657 51.9762 26.5774 51.9762 23.4792L51.9711 2.82137C51.9711 2.05588 51.6893 1.70944 51.0353 1.70944C50.3813 1.70944 49.817 2.27132 49.5217 2.77402L36.4522 25.022C35.2085 27.1527 33.6179 27.6657 31.4891 27.6657C28.835 27.6657 27.3086 26.5774 27.3086 23.4792V0.610132H30.5533V25.1451C30.5533 25.9106 30.8351 26.257 31.4891 26.257C32.1431 26.257 32.7075 25.6952 33.0028 25.1933L46.0722 2.94447C47.3159 0.813735 48.9066 0.300781 51.0353 0.300781C53.6895 0.300781 55.2158 1.38904 55.2158 4.48728L55.2209 25.1451C55.2209 25.9106 55.5026 26.257 56.1567 26.257C56.8107 26.257 57.375 25.6952 57.6703 25.1933L72.0952 0.610132H75.4566Z" fill="#9FA1F2"/>
<path d="M115.212 0C108.849 0 103.725 2.93647 101.233 7.31868C99.4083 3.59227 95.4723 0 87.7383 0C78.5718 0 71.793 6.47664 71.793 13.9871C71.793 21.4975 78.5718 27.9742 87.7383 27.9742C94.1016 27.9742 99.2255 25.0369 101.718 20.6547C103.543 24.3811 107.478 27.9742 115.215 27.9742C124.378 27.9742 131.157 21.4944 131.157 13.9871C131.157 6.4798 124.373 0 115.212 0ZM98.7906 18.7623C97.0925 22.9448 92.9197 26.3777 87.7611 26.3777C81.0348 26.3777 75.2019 20.9988 75.2019 13.9879C75.2019 6.96434 80.786 1.59806 87.7611 1.59806C95.2202 1.59806 98.8939 5.90055 100.251 9.56857C99.8445 10.9591 99.7015 12.5492 99.5944 13.9018C99.4777 15.3649 99.2966 17.517 98.7906 18.7623ZM115.186 26.3777C107.727 26.3777 104.053 22.0752 102.696 18.4072C103.103 17.0175 103.246 15.4273 103.353 14.0739C103.469 12.6108 103.651 10.4595 104.156 9.21424C105.854 5.03169 110.028 1.59806 115.186 1.59806C121.913 1.59806 127.745 6.97777 127.745 13.9879C127.745 21.0106 122.159 26.3777 115.186 26.3777Z" fill="#9FA1F2"/>
</svg>
