<svg width="125" height="34" viewBox="0 0 125 34" fill="none" xmlns="http://www.w3.org/2000/svg">
<path d="M10.6572 12.8904V16.2839C10.6572 16.3452 10.6321 16.404 10.5875 16.4473C10.5429 16.4906 10.4823 16.515 10.4192 16.515H7.53779C4.62639 16.515 2.85692 14.7875 2.85692 11.9483V7.12632H0.692939C0.627737 7.12547 0.565502 7.09973 0.519706 7.05467C0.47391 7.00961 0.448236 6.94885 0.448242 6.88555V6.19231C0.448905 6.13227 0.472652 6.07463 0.514826 6.03071L6.27435 0.0759495C6.29737 0.0520186 6.3252 0.0329299 6.35612 0.0198656C6.38705 0.00680142 6.4204 3.99305e-05 6.45413 0H7.02842C7.09348 0.00126221 7.15547 0.0271353 7.20117 0.0721085C7.24688 0.117082 7.27269 0.177601 7.27311 0.240776V3.73607H10.3476C10.4105 3.73649 10.4706 3.76103 10.5148 3.80432C10.5591 3.84761 10.584 3.90614 10.584 3.96715V6.89524C10.584 6.95625 10.5591 7.01478 10.5148 7.05807C10.4706 7.10136 10.4105 7.1259 10.3476 7.12632H7.3913V11.192C7.3913 12.1083 7.9606 12.6593 8.91774 12.6593H10.4159C10.4474 12.6589 10.4787 12.6646 10.508 12.676C10.5372 12.6874 10.5639 12.7044 10.5863 12.7259C10.6088 12.7474 10.6266 12.773 10.6388 12.8012C10.6509 12.8295 10.6572 12.8598 10.6572 12.8904Z" fill="#9FA1F2"/>
<path d="M89.2346 9.28501C89.2229 8.16134 88.8854 7.0636 88.2605 6.11767C87.6356 5.17174 86.7488 4.4159 85.7017 3.93684C84.6546 3.45777 83.4895 3.27486 82.3402 3.40909C81.1909 3.54331 80.104 3.98923 79.2038 4.69572C78.3042 3.98964 77.2179 3.5438 76.0693 3.40927C74.9208 3.27474 73.7563 3.45695 72.7095 3.93504C71.6627 4.41313 70.7759 5.16777 70.1504 6.11252C69.5249 7.05727 69.1861 8.15394 69.1729 9.27693V16.3047C69.1729 16.3604 69.1957 16.4138 69.2363 16.4532C69.2769 16.4926 69.3319 16.5148 69.3893 16.5148H73.5042C73.5616 16.5148 73.6166 16.4926 73.6572 16.4532C73.6978 16.4138 73.7206 16.3604 73.7206 16.3047V9.30602C73.7369 8.90119 73.9148 8.51839 74.2168 8.2387C74.5187 7.959 74.9208 7.80435 75.3382 7.8075C75.7555 7.81065 76.1552 7.97135 76.4526 8.25557C76.75 8.5398 76.9217 8.92523 76.9315 9.33026V16.3047C76.9315 16.3604 76.9543 16.4138 76.9949 16.4532C77.0355 16.4926 77.0905 16.5148 77.1479 16.5148H81.2628C81.3199 16.5143 81.3745 16.492 81.4148 16.4527C81.455 16.4133 81.4777 16.3601 81.4777 16.3047V9.33026C81.4777 8.91668 81.6469 8.52005 81.9481 8.2276C82.2494 7.93516 82.6579 7.77087 83.0839 7.77087C83.5099 7.77087 83.9185 7.93516 84.2198 8.2276C84.521 8.52005 84.6902 8.91668 84.6902 9.33026V16.3047C84.6902 16.3604 84.713 16.4138 84.7536 16.4532C84.7942 16.4926 84.8493 16.5148 84.9066 16.5148H89.02C89.0774 16.5148 89.1324 16.4926 89.173 16.4532C89.2136 16.4138 89.2364 16.3604 89.2364 16.3047V9.28501H89.2346Z" fill="#9FA1F2"/>
<path d="M66.176 3.71687H62.7502C62.7251 3.71665 62.7003 3.72126 62.6771 3.73042C62.6538 3.73959 62.6327 3.75312 62.6149 3.77025C62.5971 3.78738 62.583 3.80776 62.5734 3.83021C62.5637 3.85267 62.5588 3.87676 62.5588 3.90109V4.68644C61.5172 3.93425 60.2807 3.47795 58.9874 3.36848C57.6941 3.259 56.3949 3.50066 55.2349 4.06648C54.0749 4.6323 53.0997 5.49999 52.4183 6.57268C51.7369 7.64536 51.376 8.88081 51.376 10.1411C51.376 11.4013 51.7369 12.6368 52.4183 13.7094C53.0997 14.7821 54.0749 15.6498 55.2349 16.2156C56.3949 16.7815 57.6941 17.0231 58.9874 16.9136C60.2807 16.8042 61.5172 16.3479 62.5588 15.5957V16.3358C62.5588 16.3601 62.5637 16.3842 62.5734 16.4067C62.583 16.4291 62.5971 16.4495 62.6149 16.4666C62.6327 16.4838 62.6538 16.4973 62.6771 16.5064C62.7003 16.5156 62.7251 16.5202 62.7502 16.52H66.176C66.2263 16.52 66.2746 16.5006 66.3101 16.466C66.3457 16.4315 66.3657 16.3846 66.3657 16.3358V3.90755C66.3666 3.88282 66.3624 3.85817 66.3532 3.83507C66.3441 3.81196 66.3303 3.79089 66.3126 3.77309C66.2948 3.75529 66.2736 3.74114 66.2502 3.73148C66.2267 3.72182 66.2014 3.71685 66.176 3.71687ZM58.3773 13.0538C57.7826 13.0541 57.2012 12.8832 56.7066 12.5627C56.212 12.2423 55.8264 11.7866 55.5987 11.2533C55.3709 10.7201 55.3111 10.1333 55.4269 9.56704C55.5427 9.00082 55.8289 8.48066 56.2493 8.07236C56.6696 7.66405 57.2053 7.38594 57.7885 7.2732C58.3717 7.16046 58.9763 7.21816 59.5257 7.439C60.0751 7.65984 60.5447 8.0339 60.8751 8.51386C61.2055 8.99382 61.3819 9.55813 61.3819 10.1354C61.3821 10.5186 61.3046 10.898 61.1537 11.2521C61.0028 11.6062 60.7815 11.9279 60.5024 12.1989C60.2234 12.4699 59.8921 12.6849 59.5275 12.8316C59.1628 12.9783 58.772 13.0538 58.3773 13.0538Z" fill="#9FA1F2"/>
<path d="M49.5804 9.28501C49.5687 8.16134 49.2311 7.0636 48.6062 6.11767C47.9813 5.17174 47.0945 4.4159 46.0474 3.93684C45.0003 3.45777 43.8353 3.27486 42.686 3.40909C41.5367 3.54331 40.4497 3.98923 39.5495 4.69572C38.6499 3.98964 37.5636 3.5438 36.415 3.40927C35.2665 3.27474 34.1021 3.45695 33.0553 3.93504C32.0085 4.41313 31.1216 5.16777 30.4961 6.11252C29.8706 7.05727 29.5318 8.15394 29.5186 9.27693V16.3047C29.5186 16.3604 29.5414 16.4138 29.582 16.4532C29.6226 16.4926 29.6776 16.5148 29.735 16.5148H33.8499C33.9073 16.5148 33.9623 16.4926 34.0029 16.4532C34.0435 16.4138 34.0663 16.3604 34.0663 16.3047V9.30602C34.0826 8.90119 34.2605 8.51839 34.5625 8.2387C34.8644 7.959 35.2666 7.80435 35.6839 7.8075C36.1012 7.81065 36.5009 7.97135 36.7983 8.25557C37.0957 8.5398 37.2675 8.92523 37.2773 9.33026V16.3047C37.2773 16.3323 37.2829 16.3596 37.2938 16.3851C37.3047 16.4106 37.3206 16.4337 37.3407 16.4532C37.3608 16.4727 37.3847 16.4882 37.4109 16.4988C37.4372 16.5093 37.4653 16.5148 37.4937 16.5148H41.607C41.6644 16.5148 41.7194 16.4926 41.76 16.4532C41.8006 16.4138 41.8234 16.3604 41.8234 16.3047V9.33026C41.8234 9.12548 41.8649 8.9227 41.9456 8.73351C42.0264 8.54431 42.1447 8.37241 42.2938 8.2276C42.443 8.0828 42.6201 7.96794 42.815 7.88957C43.0099 7.8112 43.2188 7.77087 43.4297 7.77087C43.6406 7.77087 43.8495 7.8112 44.0444 7.88957C44.2393 7.96794 44.4164 8.0828 44.5656 8.2276C44.7147 8.37241 44.833 8.54431 44.9138 8.73351C44.9945 8.9227 45.036 9.12548 45.036 9.33026V16.3047C45.036 16.3604 45.0588 16.4138 45.0994 16.4532C45.14 16.4926 45.195 16.5148 45.2524 16.5148H49.3657C49.3941 16.5148 49.4222 16.5093 49.4485 16.4988C49.4747 16.4882 49.4986 16.4727 49.5187 16.4532C49.5388 16.4337 49.5547 16.4106 49.5656 16.3851C49.5765 16.3596 49.5821 16.3323 49.5821 16.3047V9.28501H49.5804Z" fill="#9FA1F2"/>
<path d="M26.5255 3.71687H23.0981C23.0478 3.71687 22.9995 3.73628 22.9639 3.77082C22.9283 3.80537 22.9084 3.85223 22.9084 3.90109V4.68644C21.8667 3.93425 20.6303 3.47795 19.337 3.36848C18.0437 3.259 16.7445 3.50066 15.5845 4.06648C14.4245 4.6323 13.4493 5.49999 12.7679 6.57268C12.0865 7.64536 11.7256 8.88081 11.7256 10.1411C11.7256 11.4013 12.0865 12.6368 12.7679 13.7094C13.4493 14.7821 14.4245 15.6498 15.5845 16.2156C16.7445 16.7815 18.0437 17.0231 19.337 16.9136C20.6303 16.8042 21.8667 16.3479 22.9084 15.5957V16.3358C22.9084 16.3846 22.9283 16.4315 22.9639 16.466C22.9995 16.5006 23.0478 16.52 23.0981 16.52H26.5255C26.5759 16.52 26.6241 16.5006 26.6597 16.466C26.6953 16.4315 26.7153 16.3846 26.7153 16.3358V3.90755C26.7162 3.88282 26.7119 3.85817 26.7028 3.83507C26.6937 3.81196 26.6798 3.79089 26.6621 3.77309C26.6444 3.75529 26.6232 3.74114 26.5997 3.73148C26.5763 3.72182 26.551 3.71685 26.5255 3.71687ZM18.7285 13.0538C18.134 13.0538 17.5527 12.8826 17.0583 12.562C16.564 12.2413 16.1786 11.7855 15.9511 11.2522C15.7236 10.719 15.664 10.1322 15.78 9.56605C15.896 8.99994 16.1823 8.47993 16.6028 8.07178C17.0232 7.66364 17.5589 7.38569 18.142 7.27308C18.7252 7.16048 19.3297 7.21827 19.879 7.43916C20.4283 7.66004 20.8978 8.0341 21.2282 8.51403C21.5585 8.99396 21.7348 9.5582 21.7348 10.1354C21.7348 10.5187 21.6571 10.8982 21.506 11.2522C21.3549 11.6063 21.1335 11.928 20.8543 12.199C20.5751 12.47 20.2437 12.685 19.879 12.8317C19.5143 12.9783 19.1233 13.0538 18.7285 13.0538Z" fill="#9FA1F2"/>
<path d="M124.281 6.19688C124.281 5.01344 123.797 3.87844 122.935 3.04147C122.073 2.20449 120.904 1.73407 119.685 1.73364H99.9061C96.1474 1.73364 94.2648 6.14033 96.9232 8.72584L101.75 13.4121C102.347 13.9909 102.82 14.6782 103.143 15.4346C103.465 16.191 103.631 17.0017 103.631 17.8204C103.631 18.868 104.06 19.8727 104.823 20.6136C105.586 21.3545 106.62 21.7709 107.7 21.7714C108.543 21.7712 109.377 21.9322 110.156 22.2453C110.935 22.5583 111.643 23.0172 112.239 23.5958L117.066 28.282C119.73 30.8675 124.269 29.0334 124.269 25.3846L124.281 6.19688Z" fill="#9FA1F2"/>
<path d="M103.392 23.3425C103.393 23.142 103.352 22.9433 103.274 22.758C103.195 22.5726 103.079 22.4042 102.933 22.2623C102.787 22.1205 102.614 22.008 102.423 21.9313C102.232 21.8546 102.027 21.8152 101.821 21.8154H95.0729C94.7879 21.8152 94.5093 21.8971 94.2723 22.0506C94.0353 22.2042 93.8505 22.4226 93.7415 22.6782C93.6324 22.9337 93.6039 23.2149 93.6595 23.4862C93.7152 23.7575 93.8525 24.0067 94.0541 24.2022L95.7037 25.8036C96.1149 26.2025 96.346 26.7437 96.3463 27.308C96.346 27.4851 96.3818 27.6604 96.4515 27.824C96.5212 27.9876 96.6234 28.1363 96.7524 28.2615C96.8814 28.3867 97.0345 28.4859 97.203 28.5536C97.3715 28.6212 97.5522 28.6559 97.7345 28.6557C98.3159 28.656 98.8733 28.8803 99.2843 29.2795L100.934 30.8809C101.135 31.0764 101.391 31.2097 101.67 31.2638C101.95 31.3179 102.239 31.2905 102.502 31.185C102.765 31.0795 102.99 30.9007 103.149 30.6711C103.307 30.4415 103.392 30.1715 103.392 29.8952V23.3425Z" fill="#9FA1F2"/>
<path d="M62.683 19.5237H60.2327C60.1687 19.5237 60.1073 19.5483 60.0621 19.5923C60.0168 19.6362 59.9914 19.6958 59.9914 19.758V20.2686C59.1892 19.6867 58.236 19.3329 57.2385 19.2469C56.2411 19.1608 55.2386 19.3459 54.3433 19.7815C53.448 20.217 52.6952 20.8857 52.1691 21.7129C51.643 22.5401 51.3643 23.4931 51.3643 24.4652C51.3643 25.4374 51.643 26.3903 52.1691 27.2175C52.6952 28.0447 53.448 28.7135 54.3433 29.149C55.2386 29.5845 56.2411 29.7696 57.2385 29.6836C58.236 29.5975 59.1892 29.2438 59.9914 28.6618V29.1466C59.9914 29.2088 60.0168 29.2684 60.0621 29.3123C60.1073 29.3562 60.1687 29.3809 60.2327 29.3809H62.683C62.747 29.3809 62.8084 29.3562 62.8537 29.3123C62.899 29.2684 62.9244 29.2088 62.9244 29.1466V19.758C62.9244 19.6958 62.899 19.6362 62.8537 19.5923C62.8084 19.5483 62.747 19.5237 62.683 19.5237ZM56.7704 26.7146C56.3121 26.7146 55.8641 26.5827 55.483 26.3355C55.102 26.0884 54.805 25.737 54.6296 25.326C54.4542 24.915 54.4084 24.4627 54.4978 24.0264C54.5872 23.59 54.8079 23.1892 55.1319 22.8747C55.456 22.5601 55.8688 22.3458 56.3183 22.259C56.7678 22.1722 57.2337 22.2168 57.6571 22.387C58.0805 22.5573 58.4424 22.8456 58.697 23.2155C58.9516 23.5854 59.0875 24.0203 59.0875 24.4652C59.0875 25.0618 58.8434 25.6339 58.4088 26.0558C57.9743 26.4776 57.3849 26.7146 56.7704 26.7146Z" fill="#9FA1F2"/>
<path d="M70.9158 19.2297C70.0992 19.2309 69.2937 19.4127 68.5604 19.7614V19.5271C68.5604 19.4937 68.5467 19.4616 68.5223 19.438C68.498 19.4143 68.465 19.401 68.4305 19.401H65.2012C65.1668 19.401 65.1337 19.4143 65.1094 19.438C65.085 19.4616 65.0713 19.4937 65.0713 19.5271V33.0687C65.0713 33.1278 65.0956 33.1846 65.1386 33.2264C65.1817 33.2682 65.2401 33.2917 65.3011 33.2917H68.334C68.3643 33.2919 68.3943 33.2863 68.4224 33.2752C68.4505 33.2641 68.476 33.2477 68.4975 33.227C68.519 33.2062 68.5361 33.1816 68.5477 33.1544C68.5594 33.1273 68.5653 33.0981 68.5653 33.0687V29.1727C69.2951 29.5176 70.0957 29.6982 70.9074 29.701C71.719 29.7038 72.5209 29.5287 73.2532 29.1888C73.9854 28.8489 74.6292 28.3529 75.1365 27.7378C75.6439 27.1228 76.0016 26.4044 76.1832 25.6365C76.3647 24.8685 76.3654 24.0706 76.1851 23.3023C76.0048 22.5341 75.6481 21.8152 75.1418 21.1994C74.6355 20.5835 73.9925 20.0865 73.2608 19.7455C72.529 19.4045 71.7274 19.2282 70.9158 19.2297ZM70.9158 26.718C70.4575 26.718 70.0095 26.5861 69.6284 26.3389C69.2474 26.0918 68.9504 25.7405 68.775 25.3294C68.5996 24.9184 68.5538 24.4661 68.6432 24.0298C68.7326 23.5935 68.9533 23.1927 69.2773 22.8781C69.6014 22.5635 70.0142 22.3493 70.4637 22.2625C70.9132 22.1757 71.3791 22.2202 71.8025 22.3905C72.2259 22.5607 72.5878 22.849 72.8424 23.2189C73.097 23.5889 73.2329 24.0238 73.2329 24.4686C73.232 25.0647 72.9875 25.636 72.5531 26.0571C72.1186 26.4783 71.5297 26.7148 70.9158 26.7148V26.718Z" fill="#9FA1F2"/>
<path d="M83.8454 19.2297C83.0283 19.2307 82.2222 19.4125 81.4883 19.7614V19.5271C81.4898 19.5089 81.4872 19.4906 81.4807 19.4734C81.4742 19.4563 81.464 19.4408 81.4507 19.4278C81.4374 19.4149 81.4214 19.405 81.4037 19.3987C81.3861 19.3924 81.3672 19.3899 81.3485 19.3913H78.1192C78.0847 19.3913 78.0517 19.4046 78.0273 19.4282C78.003 19.4519 77.9893 19.4839 77.9893 19.5174V33.059C77.9893 33.0884 77.9953 33.1175 78.007 33.1447C78.0186 33.1719 78.0357 33.1965 78.0572 33.2173C78.0787 33.238 78.1042 33.2544 78.1323 33.2655C78.1603 33.2766 78.1904 33.2822 78.2207 33.282H81.2536C81.3145 33.282 81.3729 33.2585 81.416 33.2167C81.4591 33.1749 81.4833 33.1181 81.4833 33.059V29.1726C82.2126 29.5174 83.0127 29.698 83.8239 29.701C84.635 29.704 85.4365 29.5294 86.1685 29.19C86.9005 28.8507 87.5442 28.3555 88.0518 27.7411C88.5593 27.1268 88.9176 26.4093 89.0998 25.642C89.2821 24.8746 89.2838 24.0772 89.1046 23.3092C88.9255 22.5412 88.5702 21.8223 88.0652 21.206C87.5602 20.5897 86.9185 20.092 86.1879 19.7498C85.4573 19.4076 84.6566 19.2299 83.8454 19.2297ZM83.8454 26.718C83.387 26.7183 82.9389 26.5867 82.5576 26.3397C82.1763 26.0927 81.8791 25.7416 81.7035 25.3306C81.5278 24.9196 81.4817 24.4672 81.5709 24.0308C81.6601 23.5943 81.8807 23.1934 82.2047 22.8786C82.5287 22.5639 82.9415 22.3495 83.3911 22.2626C83.8406 22.1757 84.3066 22.2201 84.7301 22.3903C85.1536 22.5605 85.5155 22.8488 85.7702 23.2188C86.0249 23.5887 86.1608 24.0237 86.1608 24.4686C86.16 25.0644 85.9157 25.6354 85.4816 26.0565C85.0475 26.4776 84.4591 26.7144 83.8454 26.7148V26.718Z" fill="#9FA1F2"/>
</svg>
