<svg width="193" height="56" viewBox="0 0 193 56" fill="none" xmlns="http://www.w3.org/2000/svg">
<path fill-rule="evenodd" clip-rule="evenodd" d="M145.136 27.0059L148.22 31.63C148.662 32.2921 149.03 32.8117 149.318 33.1966C149.548 33.5242 149.818 33.8212 150.123 34.0807C150.335 34.2622 150.581 34.4005 150.847 34.4876C151.122 34.562 151.406 34.6016 151.691 34.6054V34.9962H145.534V34.6054C145.937 34.6422 146.34 34.5473 146.684 34.335C146.779 34.2428 146.852 34.131 146.9 34.0075C146.947 33.884 146.968 33.7517 146.959 33.6195C146.959 33.5683 146.954 33.5172 146.944 33.467C146.924 33.3955 146.896 33.3267 146.86 33.2618C146.795 33.1442 146.723 33.031 146.643 32.9227C146.551 32.7871 146.426 32.5972 146.281 32.3641L143.831 28.6623L140.801 32.543C140.632 32.7549 140.504 32.9227 140.418 33.0465C140.343 33.148 140.276 33.2548 140.217 33.3661C140.18 33.4352 140.157 33.5109 140.148 33.589C140.142 33.6535 140.136 33.7238 140.136 33.7942C140.136 33.9035 140.162 34.0113 140.212 34.1085C140.262 34.2057 140.334 34.2895 140.423 34.3528C140.756 34.5379 141.133 34.626 141.513 34.6071V34.9979H136.425V34.6071C136.76 34.5878 137.09 34.5186 137.404 34.402C137.715 34.2799 138.01 34.1214 138.284 33.9298C138.584 33.716 138.861 33.4708 139.11 33.1982C139.385 32.9117 139.672 32.5752 139.963 32.2064L143.356 27.8968L140.525 23.7278C140.202 23.2459 139.853 22.7829 139.478 22.341C139.214 22.0264 138.91 21.7474 138.574 21.5111C138.307 21.3278 138.012 21.189 137.7 21.1C137.379 21.0158 137.05 20.9646 136.718 20.9474V20.5566H143.361V20.9457C142.957 20.9266 142.556 21.0227 142.205 21.2229C142.113 21.2835 142.037 21.3653 141.982 21.4614C141.928 21.5575 141.897 21.6652 141.892 21.7756C141.956 22.195 142.129 22.5898 142.394 22.92L144.609 26.2421L147.158 22.9844C147.32 22.7784 147.439 22.6208 147.526 22.4962C147.596 22.3998 147.659 22.2987 147.715 22.1935C147.753 22.1277 147.78 22.0561 147.796 21.9816C147.807 21.9081 147.812 21.8339 147.812 21.7595C147.825 21.6335 147.8 21.5062 147.74 21.3948C147.68 21.2835 147.587 21.1933 147.474 21.1365C147.089 21.0044 146.685 20.9399 146.279 20.9457V20.5566H151.368V20.9457C150.962 20.9586 150.562 21.0507 150.19 21.217C149.878 21.3707 149.589 21.5682 149.331 21.8036C148.839 22.2736 148.387 22.784 147.98 23.3294L145.136 27.0059ZM121.742 21.3365V27.061H124.891C125.269 27.0703 125.647 27.0284 126.014 26.9364C126.268 26.8685 126.5 26.738 126.69 26.5566C126.858 26.3756 126.974 26.1529 127.028 25.9115C127.094 25.6045 127.136 25.2927 127.152 24.979H127.541V29.9872H127.155C127.114 29.6387 127.052 29.2928 126.971 28.9513C126.919 28.7082 126.806 28.4826 126.643 28.2961C126.467 28.1187 126.244 27.9963 126 27.9434C125.636 27.8651 125.264 27.8307 124.892 27.8408H121.743V32.6108C121.743 32.9685 121.748 33.255 121.759 33.4661C121.76 33.6368 121.802 33.8048 121.883 33.9552C121.968 34.069 122.094 34.1448 122.235 34.1663C122.465 34.2042 122.698 34.2204 122.931 34.2146H125.367C125.778 34.2146 126.123 34.2045 126.41 34.1824C126.658 34.1661 126.904 34.1246 127.144 34.0587C127.339 33.9998 127.523 33.9096 127.689 33.7916C127.868 33.6624 128.037 33.5208 128.196 33.3678C128.74 32.7718 129.194 32.0982 129.541 31.3689H129.973L128.705 34.9945H117.658V34.6037H118.161C118.303 34.6026 118.444 34.5867 118.583 34.5562C118.726 34.5242 118.865 34.4785 119 34.4198C119.127 34.362 119.245 34.2854 119.35 34.1926C119.452 34.1006 119.528 33.9838 119.571 33.8535C119.678 33.3957 119.72 32.9252 119.696 32.4557V23.0768C119.764 22.4958 119.672 21.9072 119.431 21.3747C119.262 21.216 119.06 21.0957 118.84 21.0217C118.62 20.9477 118.387 20.9218 118.156 20.9457H117.654V20.5566H128.71V23.7109H128.45C128.374 23.2845 128.261 22.8656 128.112 22.4589C128.015 22.1802 127.85 21.9304 127.632 21.7324C127.411 21.5548 127.145 21.4422 126.864 21.4069C126.47 21.3539 126.073 21.3304 125.676 21.3365H121.742ZM110.599 31.0121L110.944 31.0773L109.713 34.9962H98.5624V34.6054H99.1191C99.3676 34.625 99.617 34.5808 99.8439 34.477C100.071 34.3732 100.267 34.2132 100.416 34.012C100.609 33.512 100.685 32.9739 100.638 32.4396V23.109C100.704 22.5293 100.598 21.9428 100.335 21.423C100.181 21.2571 99.9914 21.128 99.781 21.0454C99.5706 20.9628 99.3444 20.9287 99.1191 20.9457H98.5624V20.5566H105.077V20.9457C104.752 20.9414 104.427 20.9595 104.104 21C103.886 21.0282 103.672 21.0832 103.467 21.1636C103.321 21.2163 103.186 21.2992 103.073 21.4069C102.98 21.5026 102.9 21.6104 102.836 21.7273C102.693 22.2601 102.64 22.8131 102.679 23.3633V32.4489C102.663 32.8122 102.701 33.176 102.793 33.528C102.824 33.6344 102.881 33.7316 102.958 33.8117C103.035 33.8917 103.13 33.9523 103.234 33.9883C103.782 34.0805 104.338 34.1131 104.893 34.0858H105.942C106.725 34.1229 107.51 34.0426 108.27 33.8476C108.494 33.7715 108.707 33.6639 108.902 33.528C109.119 33.3737 109.316 33.191 109.485 32.9846C109.698 32.734 109.884 32.4619 110.041 32.1725C110.25 31.797 110.436 31.4095 110.599 31.0121ZM83.6098 21.3365V27.061H86.7581C87.1365 27.0702 87.5144 27.0283 87.8816 26.9364C88.135 26.8685 88.3674 26.738 88.5574 26.5566C88.7253 26.3756 88.8419 26.1529 88.8953 25.9115C88.9619 25.6046 89.0035 25.2927 89.0195 24.979H89.4089V29.9872H89.0195C88.9779 29.6387 88.9167 29.2929 88.8362 28.9513C88.7844 28.7082 88.6712 28.4826 88.5076 28.2961C88.3315 28.1186 88.1079 27.9961 87.8639 27.9434C87.5001 27.8651 87.1283 27.8307 86.7564 27.8408H83.6098V32.6108C83.6098 32.9685 83.6149 33.255 83.6259 33.4661C83.6259 33.6369 83.6683 33.805 83.7492 33.9552C83.8344 34.0688 83.9605 34.1446 84.1006 34.1663C84.3309 34.2042 84.5642 34.2204 84.7975 34.2146H87.2337C87.6442 34.2146 87.994 34.2045 88.2761 34.1824C88.5246 34.1661 88.7708 34.1246 89.011 34.0587C89.2058 33.9996 89.3897 33.9094 89.5559 33.7916C89.7345 33.6624 89.9038 33.5208 90.0627 33.3678C90.6072 32.772 91.0604 32.0984 91.4075 31.3689H91.8392L90.5721 34.9945H79.5255V34.6037H80.0281C80.1716 34.6029 80.3146 34.587 80.4547 34.5562C80.5973 34.5244 80.7365 34.4787 80.8703 34.4198C80.9981 34.362 81.1165 34.2854 81.2217 34.1926C81.3231 34.1004 81.3993 33.9836 81.4431 33.8535C81.5493 33.3957 81.5914 32.9252 81.5681 32.4557V23.0768C81.6357 22.4957 81.5437 21.9071 81.302 21.3747C81.1324 21.2161 80.931 21.0958 80.7113 21.0218C80.4916 20.9478 80.2587 20.9219 80.0281 20.9457H79.5255V20.5566H90.5788V23.7109H90.3203C90.2439 23.2846 90.1308 22.8657 89.9825 22.4589C89.8854 22.1799 89.7198 21.9301 89.501 21.7324C89.2802 21.5547 89.0147 21.442 88.7339 21.4069C88.3403 21.3539 87.9433 21.3304 87.5462 21.3365H83.6098ZM72.5801 20.5566V23.9381H72.3529C72.3223 23.2251 72.0389 22.5466 71.5538 22.0248C71.0304 21.6169 70.375 21.4179 69.714 21.4662H67.6866V32.5091C67.6761 32.8966 67.7104 33.284 67.7888 33.6636C67.834 33.8929 67.9363 34.1069 68.0862 34.2858C68.2115 34.4244 68.3785 34.5181 68.5618 34.5529C68.7849 34.5916 69.0111 34.6092 69.2375 34.6054H69.7292V34.9962H63.6023V34.6054H64.1092C64.3325 34.6087 64.5554 34.5871 64.774 34.541C64.9571 34.501 65.1232 34.4044 65.2487 34.2646C65.3938 34.0808 65.4939 33.8654 65.541 33.6357C65.6202 33.2656 65.6548 32.8874 65.644 32.5091V21.4662H63.9208C63.5364 21.4605 63.1525 21.4952 62.7753 21.5696C62.4618 21.6271 62.1659 21.7571 61.9112 21.9494C61.6569 22.1459 61.4578 22.4053 61.3334 22.7021C61.1767 23.0961 61.089 23.5142 61.0741 23.9381H60.6846V20.5566H72.5801Z" fill="#9FA1F2"/>
<path fill-rule="evenodd" clip-rule="evenodd" d="M190.144 34.6052V34.996H184.018V34.6052H184.521C184.746 34.6087 184.97 34.5911 185.191 34.5527C185.375 34.5167 185.542 34.4211 185.667 34.2806C185.816 34.0916 185.916 33.8681 185.958 33.6304C186.036 33.2399 186.07 32.8418 186.06 32.4436V23.1089C186.06 22.7783 186.06 22.5078 186.038 22.2908C186.029 22.1115 186.002 21.9335 185.958 21.7593C185.929 21.6382 185.874 21.525 185.797 21.4279C185.706 21.3401 185.604 21.2641 185.494 21.2015C185.196 21.0366 184.862 20.9492 184.521 20.9472H184.018V20.5565H190.144V20.9455H189.643C189.417 20.9428 189.193 20.9647 188.972 21.0108C188.788 21.0503 188.622 21.1474 188.497 21.288C188.346 21.4764 188.245 21.7005 188.205 21.939C188.127 22.3238 188.092 22.7163 188.103 23.1089V32.4428C188.103 32.7818 188.108 33.0548 188.119 33.2727C188.125 33.4482 188.15 33.6225 188.195 33.7923C188.228 33.9161 188.291 34.0297 188.378 34.1229C188.471 34.2121 188.574 34.2888 188.686 34.3509C188.977 34.5199 189.307 34.6077 189.643 34.6052H190.144ZM171.628 29.369L169.193 23.5157L166.692 29.369H171.628ZM171.931 30.1498H166.356L165.379 32.4326C165.19 32.8296 165.071 33.2567 165.027 33.6948C165.026 33.804 165.044 33.9126 165.081 34.0152C165.132 34.1259 165.215 34.2184 165.319 34.2806C165.476 34.3731 165.645 34.4428 165.821 34.4874C166.103 34.5552 166.391 34.5946 166.681 34.6052V34.996H162.143V34.6052C162.445 34.5708 162.74 34.4905 163.018 34.367C163.24 34.2635 163.437 34.1138 163.597 33.9279C163.775 33.709 163.922 33.4665 164.034 33.2074C164.164 32.9098 164.326 32.5453 164.52 32.1054L169.581 20.2292H169.949L174.956 32.2351C175.113 32.6481 175.301 33.0485 175.518 33.4329C175.658 33.696 175.838 33.9356 176.052 34.1432C176.225 34.3043 176.432 34.4229 176.658 34.4899C176.913 34.5618 177.175 34.6 177.44 34.6035V34.9943H171.768V34.6035C172.171 34.6282 172.573 34.5301 172.92 34.3221C173.014 34.2547 173.091 34.1658 173.145 34.0626C173.198 33.9595 173.227 33.845 173.228 33.7287C173.162 33.21 173.02 32.704 172.806 32.2275L171.931 30.1498Z" fill="#9FA1F2"/>
<path fill-rule="evenodd" clip-rule="evenodd" d="M16.4433 27.6567C16.704 27.6567 16.9587 27.7343 17.1754 27.8796C17.3922 28.0249 17.5611 28.2314 17.6608 28.4731C17.7605 28.7147 17.7866 28.9806 17.7358 29.2371C17.6849 29.4936 17.5594 29.7293 17.3751 29.9142C17.1908 30.0991 16.956 30.2251 16.7004 30.2761C16.4448 30.3271 16.1798 30.301 15.939 30.2009C15.6982 30.1008 15.4924 29.9313 15.3476 29.7138C15.2028 29.4963 15.1255 29.2407 15.1255 28.9791C15.1267 28.6288 15.2659 28.293 15.5127 28.0453C15.7596 27.7975 16.0942 27.6579 16.4433 27.6567ZM16.4433 25.8003C17.0699 25.8001 17.6824 25.9864 18.2035 26.3356C18.7245 26.6848 19.1307 27.1812 19.3705 27.7621C19.6104 28.3429 19.6733 28.9821 19.5511 29.5988C19.429 30.2155 19.1274 30.782 18.6844 31.2266C18.2414 31.6713 17.677 31.9741 17.0625 32.0968C16.448 32.2196 15.811 32.1566 15.2321 31.9161C14.6532 31.6755 14.1585 31.2681 13.8103 30.7453C13.4622 30.2225 13.2764 29.6079 13.2764 28.9791C13.2791 28.137 13.6136 27.3302 14.2069 26.7346C14.8002 26.1391 15.6042 25.8032 16.4433 25.8003Z" fill="#9FA1F2"/>
<path fill-rule="evenodd" clip-rule="evenodd" d="M27.1395 25.8003C27.766 25.8003 28.3785 25.9867 28.8994 26.336C29.4203 26.6853 29.8263 27.1818 30.0661 27.7626C30.3059 28.3435 30.3686 28.9827 30.2464 29.5993C30.1241 30.2159 29.8224 30.7823 29.3794 31.2269C28.9364 31.6715 28.372 31.9742 27.7575 32.0969C27.143 32.2195 26.5061 32.1566 25.9272 31.916C25.3484 31.6754 24.8537 31.268 24.5056 30.7452C24.1575 30.2224 23.9717 29.6078 23.9717 28.9791C23.9742 28.1368 24.3087 27.3297 24.9023 26.7341C25.4958 26.1385 26.3001 25.8028 27.1395 25.8003Z" fill="#9FA1F2"/>
<path fill-rule="evenodd" clip-rule="evenodd" d="M37.8425 27.6567C38.1031 27.6569 38.3578 27.7346 38.5744 27.88C38.791 28.0254 38.9598 28.232 39.0594 28.4737C39.159 28.7153 39.185 28.9812 39.134 29.2376C39.0831 29.4941 38.9575 29.7296 38.7732 29.9145C38.5888 30.0994 38.354 30.2252 38.0984 30.2762C37.8428 30.3271 37.5779 30.3009 37.3372 30.2008C37.0964 30.1007 36.8907 29.9312 36.7459 29.7137C36.6011 29.4963 36.5239 29.2406 36.5239 28.9791C36.525 28.6286 36.6643 28.2928 36.9114 28.045C37.1585 27.7972 37.4932 27.6576 37.8425 27.6567ZM37.8425 25.8003C38.469 25.8003 39.0815 25.9867 39.6024 26.336C40.1233 26.6853 40.5294 27.1818 40.7691 27.7626C41.0089 28.3435 41.0716 28.9827 40.9494 29.5993C40.8272 30.2159 40.5255 30.7823 40.0824 31.2269C39.6394 31.6715 39.075 31.9742 38.4605 32.0969C37.846 32.2195 37.2091 32.1566 36.6303 31.916C36.0514 31.6754 35.5567 31.268 35.2086 30.7452C34.8605 30.2224 34.6748 29.6078 34.6748 28.9791C34.6772 28.1368 35.0117 27.3297 35.6053 26.7341C36.1988 26.1385 37.0031 25.8028 37.8425 25.8003Z" fill="#9FA1F2"/>
<path fill-rule="evenodd" clip-rule="evenodd" d="M30.1688 41.4411H42.6506C43.7355 41.4351 44.7742 40.9999 45.5412 40.23C46.3083 39.4601 46.7418 38.4176 46.7475 37.329V20.6295C46.7418 19.5408 46.3083 18.4983 45.5412 17.7284C44.7742 16.9585 43.7355 16.5233 42.6506 16.5173H11.6346C10.5503 16.5244 9.51265 16.9601 8.74637 17.7299C7.98009 18.4996 7.54702 19.5414 7.54104 20.6295V37.329C7.54703 38.4177 7.98068 39.4602 8.74787 40.23C9.51506 40.9999 10.5538 41.4351 11.6388 41.4411H15.8625V46.1144L22.8433 41.4445H30.1747L30.1688 41.4411ZM42.6506 12.2806C44.8553 12.2871 46.9678 13.1689 48.5267 14.7334C50.0856 16.2979 50.9641 18.4179 50.9704 20.6303V37.3298C50.9641 39.5423 50.0856 41.6624 48.5268 43.2271C46.9679 44.7917 44.8554 45.6737 42.6506 45.6804H24.1155L11.6346 54.0302V45.6804C9.4302 45.6728 7.31831 44.7903 5.76002 43.2256C4.20173 41.6609 3.32361 39.5411 3.31738 37.329V20.6295C3.32384 18.4168 4.20267 16.2967 5.76187 14.7322C7.32107 13.1677 9.43391 12.286 11.6388 12.2797H18.6999V8.04127H20.2796V5.92204H21.3346V8.04127H22.9151V12.2797H25.0269V5.92204H26.6108V3.80282H27.6667V5.92204H29.2506V12.2797H31.3624V3.80282H32.9472V1.68359H34.0022V3.80282H35.5861V12.2797L42.6506 12.2806Z" fill="#9FA1F2"/>
</svg>
