<?xml version="1.0" encoding="utf-8"?>
<!-- Generator: Adobe Illustrator 22.1.0, SVG Export Plug-In . SVG Version: 6.00 Build 0)  -->
<svg version="1.1" id="Слой_1" xmlns="http://www.w3.org/2000/svg" xmlns:xlink="http://www.w3.org/1999/xlink" x="0px" y="0px"
	 viewBox="0 0 775 560" style="enable-background:new 0 0 775 560;" xml:space="preserve">
<style type="text/css">
	.st0{opacity:0.458;fill:#9595EF;enable-background:new    ;}
	.st1{opacity:0.28;fill:none;stroke:#979797;enable-background:new    ;}
	.st2{opacity:0.17;fill:none;stroke:#979797;enable-background:new    ;}
	.st3{opacity:8.000000e-02;fill:none;stroke:#979797;enable-background:new    ;}
	
		.st4{fill:#5E4CC5;fill-opacity:8.000000e-02;stroke:#000000;stroke-width:2;stroke-linecap:round;stroke-linejoin:round;stroke-dasharray:4,8;}
	.st5{fill:#FFFFFF;}
	.st6{fill:none;stroke:#000000;stroke-width:2;stroke-linejoin:round;}
	.st7{fill:none;stroke:#000000;stroke-width:2;stroke-linecap:round;stroke-linejoin:round;}
	.st8{fill:none;stroke:#9595EF;stroke-width:4;stroke-linecap:round;stroke-linejoin:round;}
	.st9{fill:#9595EF;}
	.st10{fill:#A7A7F5;}
	
		.st11{fill:#6D52D6;fill-opacity:8.000000e-02;stroke:#000000;stroke-width:2;stroke-linecap:round;stroke-linejoin:round;stroke-dasharray:4,8;}
	.st12{fill:none;stroke:#000000;stroke-width:1.5;stroke-linejoin:round;}
	.st13{fill:none;stroke:#9595EF;stroke-width:2.169;stroke-linecap:round;stroke-linejoin:round;}
	.st14{fill:none;stroke:#000000;stroke-width:1.5;stroke-linecap:round;stroke-linejoin:round;}
	.st15{fill:none;stroke:#000000;stroke-width:1.5;}
</style>
<g>
	<path class="st0" d="M325.9,179.6c-101.7,22.7-184.6,8.4-208.6,115.9c-22.3,99.9,66.2,178,320.6,177.7
		c224.5-0.3,294.8-84.6,252.4-169.1c-21.2-42.3-95.6-111.9-167.8-135.7C450.3,144.5,376.4,168.3,325.9,179.6"/>
	<path class="st1" d="M328.6,177c-112.1,25-203.4,9.2-229.9,127.4c-24.6,109.7,72.9,195.5,353.3,195.2
		c247.4-0.3,324.9-92.9,278.2-185.8c-23.3-46.4-105.3-122.9-184.9-149.1C465.7,138.5,384.1,164.6,328.6,177"/>
	<path class="st2" d="M331,170c-123.4,27.6-223.8,10.1-253,140.6C51,431.6,158.2,526.3,466.7,526c272.2-0.3,357.5-102.5,306.1-205
		C747.1,269.7,657,185.3,569.4,156.4C481.8,127.5,392.1,156.3,331,170"/>
	<path class="st3" d="M325.3,172.2c-134.1,29.9-243.3,11-275,152.7C21,456.5,137.6,559.4,472.9,559
		c295.9-0.3,388.6-111.4,332.7-222.7c-27.9-55.7-125.9-147.4-221.1-178.8C489.3,126,391.8,157.4,325.3,172.2"/>
</g>
<g>
	<path class="st4" d="M393.5,411.2l138.3,76.3c1.2,0.7,2.7,0.7,3.9,0l132.9-77.2c2.6-1.5,2.6-5.1,0.1-6.7l-131.5-84
		c-2.5-1.6-5.8-1.6-8.3,0l-135.7,85C390.7,406,390.8,409.8,393.5,411.2L393.5,411.2z"/>
	<path class="st5" d="M665,336.6l-130.8-76.2c-1.7-1-3.6-0.8-4.9,0.2l-138.6,82l141,118.3l136.6-80.6c1.8-0.6,3.2-2.2,3.2-4.3v-28.1
		C671.5,343.2,669,338.9,665,336.6"/>
	<path class="st6" d="M665,336.6l-130.8-76.2c-1.7-1-3.6-0.8-4.9,0.2l-138.6,82l141,118.3l136.6-80.6c1.8-0.6,3.2-2.2,3.2-4.3v-28.1
		C671.5,343.2,669,338.9,665,336.6L665,336.6z"/>
	<path class="st5" d="M533.7,457.1V429c0-4.6-2.5-8.9-6.4-11.2l-130.8-76.2c-3.1-1.8-6.9,0.4-6.9,4v27.9c0,4.6,2.4,8.8,6.4,11.1
		L527,461C530,462.8,533.7,460.6,533.7,457.1"/>
	<path class="st6" d="M533.7,457.1V429c0-4.6-2.5-8.9-6.4-11.2l-130.8-76.2c-3.1-1.8-6.9,0.4-6.9,4v27.9c0,4.6,2.4,8.8,6.4,11.1
		L527,461C530,462.8,533.7,460.6,533.7,457.1L533.7,457.1z"/>
	<path class="st5" d="M572.7,399.5l63.3-36.5"/>
	<path class="st7" d="M572.7,399.5l63.3-36.5"/>
	<path class="st8" d="M399.6,358l103.5,61.4 M399.6,372.4l37.3,22.2 M446.5,399.9l56.5,33.6"/>
	<path class="st9" d="M522.8,428.3c0.1,2.3-1.6,4.3-3.9,4.4c-2.3,0.1-5.3-1.5-5.5-3.8c-0.1-2.3,1.6-4.3,3.9-4.4
		C519.6,424.3,522.6,426,522.8,428.3 M523,443.7c-0.4,2.2-2.5,3.6-4.6,3.1c-2.1-0.4-4.5-2.7-4.1-4.9c0.4-2.2,2.5-3.6,4.6-3.1
		C521.1,439.3,523.5,441.6,523,443.7"/>
	<path class="st5" d="M665,271.9l-130.8-76.2c-1.7-1-3.6-0.8-4.9,0.2l-138.6,82l141,118.3l136.6-80.6c1.8-0.6,3.2-2.2,3.2-4.3v-28.1
		C671.5,278.5,669,274.2,665,271.9"/>
	<path class="st6" d="M665,271.9l-130.8-76.2c-1.7-1-3.6-0.8-4.9,0.2l-138.6,82l141,118.3l136.6-80.6c1.8-0.6,3.2-2.2,3.2-4.3v-28.1
		C671.5,278.5,669,274.2,665,271.9L665,271.9z"/>
	<path class="st5" d="M533.7,392.4v-28.1c0-4.6-2.5-8.9-6.4-11.2l-130.8-76.2c-3.1-1.8-6.9,0.5-6.9,4v27.9c0,4.6,2.4,8.8,6.4,11.1
		L527,396.3C530,398.1,533.7,395.9,533.7,392.4"/>
	<path class="st6" d="M533.7,392.4v-28.1c0-4.6-2.5-8.9-6.4-11.2l-130.8-76.2c-3.1-1.8-6.9,0.5-6.9,4v27.9c0,4.6,2.4,8.8,6.4,11.1
		L527,396.3C530,398.1,533.7,395.9,533.7,392.4L533.7,392.4z"/>
	<path class="st5" d="M572.7,334.7l63.3-36.5"/>
	<path class="st7" d="M572.7,334.7l63.3-36.5"/>
	<path class="st8" d="M399.6,293.2l103.5,61.4 M399.6,307.7l37.3,22.2 M446.5,335.2l56.5,33.6"/>
	<path class="st9" d="M522.8,363.6c0.1,2.3-1.6,4.3-3.9,4.4c-2.3,0.1-5.3-1.5-5.5-3.8c-0.1-2.3,1.6-4.3,3.9-4.4
		C519.6,359.6,522.6,361.3,522.8,363.6 M523,379c-0.4,2.2-2.5,3.6-4.6,3.1c-2.1-0.4-4.5-2.7-4.1-4.9c0.4-2.2,2.5-3.6,4.6-3.1
		C521.1,374.6,523.5,376.9,523,379"/>
	<g>
		<path class="st5" d="M454.5,203.6l8.7,26.9l33.1-18.9L454.5,203.6z"/>
		<path class="st6" d="M454.5,203.6l8.7,26.9l33.1-18.9L454.5,203.6z"/>
		<path class="st5" d="M517.8,233.8v-11.2l-10.6,5.9v12.1"/>
		<path class="st6" d="M517.8,233.8v-11.2l-10.6,5.9v12.1"/>
		<path class="st5" d="M507.2,240.5l10.6-5.9v-57.7l-11.1,4.5L507.2,240.5z"/>
		<path class="st6" d="M507.2,240.5l10.6-5.9v-57.7l-11.1,4.5L507.2,240.5z"/>
		<g>
			<path class="st5" d="M527.5,254.9l15.9,35.5c0.4,0.9,1.4,1.2,2.1,0.7l20.1-14.6c1-0.7,0.9-2.7-0.3-3.3l-36-20.9
				C527.9,251.6,526.7,253.4,527.5,254.9"/>
			<path class="st6" d="M527.5,254.9l15.9,35.5c0.4,0.9,1.4,1.2,2.1,0.7l20.1-14.6c1-0.7,0.9-2.7-0.3-3.3l-36-20.9
				C527.9,251.6,526.7,253.4,527.5,254.9L527.5,254.9z"/>
			<path class="st5" d="M541.8,286l10.4-5.9v-74.6L529,196l12.8,8.5L541.8,286z"/>
			<path class="st6" d="M541.8,286l10.4-5.9v-74.6L529,196l12.8,8.5L541.8,286z"/>
			<path class="st6" d="M529.2,253.5l-1.2-1.3c1.7,0.2,0,0,0,0l-12.1,7.9l41.2,22.5l8.4-6.1c1.1-0.8,0-3.4-0.5-3.6l-6.4-3.4"/>
			<path class="st5" d="M518.4,259.8l9.6-6.4l0,0.7v10.3L518.4,259.8z M543.8,271.8l4.9-5.4c0.3-0.4,0.7-1.3,1.1-1l13.4,8
				c2.5,0.8,1.8,2.4,1.1,2.7l-6.6,4.5c-0.4,0.3-1.7,0.2-2.2-0.1l-11.5-7c-0.5-0.3-0.7-1-0.4-1.5
				C543.7,271.9,543.7,271.9,543.8,271.8"/>
			<path class="st5" d="M557.1,282.6l-15.3-9.2v-68.9l-12.8-10v72l-11.7-6.4c-1.3-0.7-2.6,1-1.8,2.6l18,35.5
				c0.4,0.9,1.4,1.2,2.1,0.7l19.8-14.8C556.4,283.3,557.1,282.6,557.1,282.6"/>
			<path class="st6" d="M557.1,282.6l-15.3-9.2v-68.9l-12.8-10v72l-11.7-6.4c-1.3-0.7-2.6,1-1.8,2.6l18,35.5
				c0.4,0.9,1.4,1.2,2.1,0.7l19.8-14.8C556.4,283.3,557.1,282.6,557.1,282.6L557.1,282.6z"/>
			<path class="st5" d="M454.8,190.3l-0.3,12.9l21.9,6.6"/>
			<path class="st6" d="M454.8,190.3l-0.3,12.9l21.9,6.6"/>
			<path class="st5" d="M476.4,222.9l30.9,17.6v-12.1l-0.5-39.8v-7.2l-11.8-5.4v45.7l-32.6-18.2v11.3"/>
			<path class="st7" d="M476.4,222.9l30.9,17.6v-12.1l-0.5-39.8v-7.2l-11.8-5.4v45.7l-32.6-18.2v11.3"/>
			<path class="st5" d="M494.6,209.6l-9.1-5.1l8.6-4.9l-0.4-1.9l-39.1-7.4l8.7,26.9l11.3-6.4l20.1,10.9"/>
			<path class="st6" d="M494.6,209.6l-9.1-5.1l8.6-4.9l-0.4-1.9l-39.1-7.4l8.7,26.9l11.3-6.4l20.1,10.9"/>
			<path class="st5" d="M455.7,196.8l6.7,20.8l-0.2,6.3l-6.6-20.2L455.7,196.8z M463.5,217.2l-0.3,13.3"/>
			<path class="st6" d="M463.5,217.2l-0.3,13.3"/>
			<path class="st5" d="M494.9,221.7v-12.9"/>
			<path class="st7" d="M494.9,221.7v-12.9"/>
			<path class="st5" d="M506.8,193.1l0.5,36.8"/>
			<path class="st7" d="M506.8,193.1l0.5,36.8"/>
			<path class="st5" d="M583,275.9v-43.6l-10.8-1.1v51.5l42.5,23.4v-12L583,275.9z"/>
			<path class="st6" d="M583,275.9v-43.6l-10.8-1.1v51.5l42.5,23.4v-12L583,275.9z"/>
			<path class="st5" d="M583,275.9l27.3,15.7l-13.5,7.4l46.1,7.8l-6.5-29.5l-15.2,8.3l-26-14.7l-2.5-1.4l-0.6-38.3l-9.1,1.1v43.9"/>
			<path class="st6" d="M583,275.9l27.3,15.7l-13.5,7.4l46.1,7.8l-6.5-29.5l-15.2,8.3l-26-14.7l-2.5-1.4l-0.6-38.3l-9.1,1.1v43.9"/>
			<path class="st5" d="M596.9,298.9l-0.3,7.8l46.1,7.8l0.3-7.8L596.9,298.9z"/>
			<path class="st6" d="M596.9,298.9l-0.3,7.8l46.1,7.8l0.3-7.8L596.9,298.9z"/>
			<path class="st10" d="M600.2,131.6c-3.3-2.1-6.8-3.8-10.6-4.9c-5.7-20.9-19.9-40.9-37.7-52.5c-10-6.5-20.7-6.5-29.3-1.9v0l-0.1,0
				c-0.1,0-0.1,0.1-0.2,0.1L500,84.9l9,2.6c-0.9,2-1.5,4.2-2,6.3c-1-0.7-2.1-1.3-3.1-2c-8.3-5-17-4.7-23.5-0.8l-22.7,12.7l12,6.4
				c0,0.7,0,1.3,0,2c0.5,21.8,15.3,47.4,34.1,59c29.8,17.2,59.7,34.1,89.7,50.8c0.7,0.4,1.4,0.7,2.1,1l-6.1,4.4l2.2,7.6l23.8-11.2
				c8.3-3.4,14.5-11.5,16.1-22.2C635.1,176.5,621.7,145.3,600.2,131.6"/>
			<path class="st6" d="M600.2,131.6c-3.3-2.1-6.8-3.8-10.6-4.9c-5.7-20.9-19.9-40.9-37.7-52.5c-10-6.5-20.7-6.5-29.3-1.9v0l-0.1,0
				c-0.1,0-0.1,0.1-0.2,0.1L500,84.9l9,2.6c-0.9,2-1.5,4.2-2,6.3c-1-0.7-2.1-1.3-3.1-2c-8.3-5-17-4.7-23.5-0.8l-22.7,12.7l12,6.4
				c0,0.7,0,1.3,0,2c0.5,21.8,15.3,47.4,34.1,59c29.8,17.2,59.7,34.1,89.7,50.8c0.7,0.4,1.4,0.7,2.1,1l-6.1,4.4l2.2,7.6l23.8-11.2
				c8.3-3.4,14.5-11.5,16.1-22.2C635.1,176.5,621.7,145.3,600.2,131.6L600.2,131.6z"/>
			<path class="st5" d="M581.7,141.4c-3.3-2.1-6.8-3.8-10.6-4.9c-5.7-20.9-19.9-40.9-37.7-52.5c-18.9-12.3-40.4-1.2-44.9,19.7
				c-1-0.7-2.1-1.3-3.1-2c-16.5-10-34.7,1.1-34.2,20.2c0.5,21.8,15.3,47.4,34.1,59c29.8,17.2,59.7,34.1,89.7,50.8
				c17.4,9.7,35.2-1.3,38-20.4C616.6,186.3,603.3,155,581.7,141.4"/>
			<path class="st6" d="M581.7,141.4c-3.3-2.1-6.8-3.8-10.6-4.9c-5.7-20.9-19.9-40.9-37.7-52.5c-18.9-12.3-40.4-1.2-44.9,19.7
				c-1-0.7-2.1-1.3-3.1-2c-16.5-10-34.7,1.1-34.2,20.2c0.5,21.8,15.3,47.4,34.1,59c29.8,17.2,59.7,34.1,89.7,50.8
				c17.4,9.7,35.2-1.3,38-20.4C616.6,186.3,603.3,155,581.7,141.4z"/>
		</g>
	</g>
	<g>
		<path class="st11" d="M233.3,309.4l92.5,53c2.4,1.4,4.3,0.2,7.4-1c3.1-1.2,18.3-8.2,18.3-8.2c3-2.9,3-5.8-0.7-7.8l-96.1-54.3
			c-2.2-1.2-5-0.9-7,0.7l-15.4,7.4C229,302.1,229.5,307.3,233.3,309.4L233.3,309.4z"/>
		<path class="st9" d="M144.9,379l80.2-47.1l7,3.9l-85.5,51.8L144.9,379z"/>
		<path class="st12" d="M144.9,379l80.2-47.1l7,3.9l-85.5,51.8L144.9,379z"/>
		<path class="st5" d="M175.7,360.9v-13.1l11.5-6.1l0.2,12.4L175.7,360.9z"/>
		<path class="st12" d="M175.7,360.9v-13.1l11.5-6.1l0.2,12.4L175.7,360.9z"/>
		<path class="st5" d="M210.1,341v-22.3l-11.8,6.1v22.8L210.1,341z"/>
		<path class="st12" d="M210.1,341v-22.3l-11.8,6.1v22.8L210.1,341z"/>
		<path class="st9" d="M205.3,328.8l-7-4l11.8-6.1l7.3,3.9L205.3,328.8z"/>
		<path class="st12" d="M205.3,328.8l-7-4l11.8-6.1l7.3,3.9L205.3,328.8z"/>
		<path class="st9" d="M183.4,351.7l-7.7-4.1l11.8-6.1l7.4,4L183.4,351.7z"/>
		<path class="st12" d="M183.4,351.7l-7.7-4.1l11.8-6.1l7.4,4L183.4,351.7z"/>
		<path class="st5" d="M217.4,344.5v-21.9l-11.8,6.1l-0.2,22.8l-6.3,3.7l-4,2.3l-0.1-12l-11.5,6.1v13.1l-36.7,22.8V400l85.5-50.3
			v-13.7L217.4,344.5z"/>
		<path class="st12" d="M217.4,344.5v-21.9l-11.8,6.1l-0.2,22.8l-6.3,3.7l-4,2.3l-0.1-12l-11.5,6.1v13.1l-36.7,22.8V400l85.5-50.3
			v-13.7L217.4,344.5z"/>
		<path class="st9" d="M198.8,325.7l6.2,3.6l-0.1,22l-2.3,1.2l-3.9-3.6L198.8,325.7z M121.7,408.4c-6.7,1-11.8-5.1-9.5-12.7
			c2.2-7.4,8.9-13.8,16.6-14.9c6.6-0.9,11.8,5.1,9.5,12.7C136.1,400.9,129.5,407.3,121.7,408.4 M133,367.5
			c-16,3.8-28.3,15.7-33.7,30.7c-3,8.4-1.7,20.1,6.7,24.6c3.8,2,4.8,1.3,10.6,0.5c17.9-2.4,32.4-17.8,36.7-33.4
			c2.6-9.7,6-13.3,0-17.7C145.9,366.7,139.3,366,133,367.5"/>
		<path class="st12" d="M121.7,408.4c-6.7,1-11.8-5.1-9.5-12.7c2.2-7.4,8.9-13.8,16.6-14.9c6.6-0.9,11.8,5.1,9.5,12.7
			C136.1,400.9,129.5,407.3,121.7,408.4z M133,367.5c-16,3.8-28.3,15.7-33.7,30.7c-3,8.4-1.7,20.1,6.7,24.6c3.8,2,4.8,1.3,10.6,0.5
			c17.9-2.4,32.4-17.8,36.7-33.4c2.6-9.7,6-13.3,0-17.7C145.9,366.7,139.3,366,133,367.5L133,367.5z"/>
		<path class="st5" d="M126.1,411.6c-6.7,1-11.8-5.1-9.5-12.7c2.2-7.4,8.9-13.8,16.6-14.9c6.6-0.9,12,4.4,9.7,12
			C140.6,403.4,133.8,410.4,126.1,411.6 M137.3,370.6c-16,3.8-29.8,17-35.3,31.9c-4.9,13.4,3.3,25.9,18.8,23.8
			c17.9-2.4,32.4-17.8,36.7-33.4C161.5,378.3,155.8,366.3,137.3,370.6"/>
		<path class="st12" d="M126.1,411.6c-6.7,1-11.8-5.1-9.5-12.7c2.2-7.4,8.9-13.8,16.6-14.9c6.6-0.9,12,4.4,9.7,12
			C140.6,403.4,133.8,410.4,126.1,411.6L126.1,411.6z M137.3,370.6c-16,3.8-29.8,17-35.3,31.9c-4.9,13.4,3.3,25.9,18.8,23.8
			c17.9-2.4,32.4-17.8,36.7-33.4C161.5,378.3,155.8,366.3,137.3,370.6L137.3,370.6z"/>
		<path class="st9" d="M176.3,348.7l6.6,3.4v12c0,0-0.6,0.1-0.8,0l-5.7-2C176.3,362.1,176.3,348.7,176.3,348.7z"/>
		<path class="st5" d="M329.4,334.8v8.1l11.5-3.1l9.9-9.9l0.3-3.9l-10.5-1l-9.6,7.2L329.4,334.8z"/>
		<path class="st5" d="M340.7,325.6l-84.3-48.2c-2.6,7.6-4.3,4.8-4.3,1.8l-0.4-82.8c0-6.5,7-10.7,12.7-7.4l84.7,48.2
			c2.7,1.5,4.3,4.3,4.3,7.4v81.7"/>
		<path class="st12" d="M340.7,325.6l-84.3-48.2c-2.6,7.6-4.3,4.8-4.3,1.8l-0.4-82.8c0-6.5,7-10.7,12.7-7.4l84.7,48.2
			c2.7,1.5,4.3,4.3,4.3,7.4v81.7"/>
		<path class="st5" d="M332.3,333.7L251.9,280c-2.6,7.6-4.3,4.8-4.3,1.8l-0.4-82.8c0-6.5,7-10.7,12.7-7.4l84.7,48.2
			c2.7,1.5,4.3,4.3,4.3,7.4v72.2"/>
		<path class="st12" d="M332.3,333.7L251.9,280c-2.6,7.6-4.3,4.8-4.3,1.8l-0.4-82.8c0-6.5,7-10.7,12.7-7.4l84.7,48.2
			c2.7,1.5,4.3,4.3,4.3,7.4v72.2"/>
		<path class="st5" d="M344.2,337.5c0,0,4-1.3,5.9-3.5"/>
		<path class="st12" d="M344.2,337.5c0,0,4-1.3,5.9-3.5 M250.1,192.6c0,0,5.1-4.1,8.9-4.6"/>
		<path class="st5" d="M284.4,156.2l52.3,28.5c2.2,1.2,3.6,3.6,3.6,6.2l0,112.7c0,2-2.1,3.2-3.8,2.2l-72.3-41.3
			c-2.2-1.3-3.6-3.6-3.6-6.1v-88.1L284.4,156.2L284.4,156.2z"/>
		<path class="st12" d="M284.4,156.2l52.3,28.5c2.2,1.2,3.6,3.6,3.6,6.2l0,112.7c0,2-2.1,3.2-3.8,2.2l-72.3-41.3
			c-2.2-1.3-3.6-3.6-3.6-6.1v-88.1L284.4,156.2L284.4,156.2z"/>
		<path class="st5" d="M260.6,170.3l23.7-14.1v21.8c0,2-2.1,3.3-3.8,2.4L260.6,170.3z"/>
		<path class="st12" d="M260.6,170.3l23.7-14.1v21.8c0,2-2.1,3.3-3.8,2.4L260.6,170.3z"/>
		<path class="st5" d="M273.9,160.1l52.3,28.5c2.2,1.2,3.6,3.6,3.6,6.2l0,112.7c0,2-2.1,3.2-3.8,2.2l-72.3-41.3
			c-2.2-1.3-3.6-3.6-3.6-6.1v-88.1L273.9,160.1L273.9,160.1z"/>
		<path class="st12" d="M273.9,160.1l52.3,28.5c2.2,1.2,3.6,3.6,3.6,6.2l0,112.7c0,2-2.1,3.2-3.8,2.2l-72.3-41.3
			c-2.2-1.3-3.6-3.6-3.6-6.1v-88.1L273.9,160.1L273.9,160.1z"/>
		<path class="st5" d="M250.1,174.2l23.7-14.1v21.8c0,2-2.1,3.3-3.8,2.4C270,184.2,250.1,174.2,250.1,174.2z"/>
		<path class="st12" d="M250.1,174.2l23.7-14.1v21.8c0,2-2.1,3.3-3.8,2.4C270,184.2,250.1,174.2,250.1,174.2z"/>
		<path class="st13" d="M261.7,194.4l56.6,32.4 M261.7,204.7l56.6,32.4 M261.7,215.6l56.6,32.4 M261.7,225.9l56.6,32.4 M261.7,236.6
			l56.6,32.4 M301.9,269.5l16,9.6"/>
		<path class="st5" d="M321,337.4l-84.3-48.2c-2.6-1.5-4.3-4.3-4.3-7.3l-0.4-73.7c0-6.5,7-10.7,12.7-7.4l84.7,48.2
			c2.7,1.5,4.3,4.3,4.3,7.4l0,77.4"/>
		<path class="st14" d="M321,337.4l-84.3-48.2c-2.6-1.5-4.3-4.3-4.3-7.3l-0.4-73.7c0-6.5,7-10.7,12.7-7.4l84.7,48.2
			c2.7,1.5,4.3,4.3,4.3,7.4l0,77.4"/>
		<path class="st5" d="M329.8,342.6c-0.3-1.3-0.5-83.7-0.5-83.7c0-3.1-1.6-5.9-4.3-7.4l-84.7-48.2c-5.7-3.2-12.7,0.9-12.7,7.4
			l0.4,73.7c0,3,1.6,5.8,4.3,7.3l84.3,48.2c8.5,5,7.1,4.5,22,0.7c1.9-0.5,6.5-2.4,8.1-3.2"/>
		<path class="st12" d="M329.8,342.6c-0.3-1.3-0.5-83.7-0.5-83.7c0-3.1-1.6-5.9-4.3-7.4l-84.7-48.2c-5.7-3.2-12.7,0.9-12.7,7.4
			l0.4,73.7c0,3,1.6,5.8,4.3,7.3l84.3,48.2c8.5,5,7.1,4.5,22,0.7c1.9-0.5,6.5-2.4,8.1-3.2 M230.5,204.3c0,0,5.1-4.1,8.9-4.6"/>
		<path class="st5" d="M338.6,340.6c5.2-1.5,8.6-3.2,10.8-5.1c2.7-2.2,4.1-6.2,4-10.9"/>
		<path class="st12" d="M338.6,340.6c5.2-1.5,8.6-3.2,10.8-5.1c2.7-2.2,4.1-6.2,4-10.9"/>
		<path class="st12" d="M349,318.7c0,7.6,1.2,15.3-8.9,18c-6.6,1.7-6.3-3.7-6.3-3.7l0-5.1"/>
		<path class="st5" d="M270.5,252.3l16.4,9.4c1.5,0.9,2.4,2.4,2.4,4.1v22.1c0,4.1-4.5,6.7-8,4.6l-11.9-7.1c-1.6-1-2.6-2.7-2.6-4.5
			l-0.1-26.3C266.7,252.6,268.8,251.3,270.5,252.3"/>
		<path class="st12" d="M270.5,252.3l16.4,9.4c1.5,0.9,2.4,2.4,2.4,4.1v22.1c0,4.1-4.5,6.7-8,4.6l-11.9-7.1c-1.6-1-2.6-2.7-2.6-4.5
			l-0.1-26.3C266.7,252.6,268.8,251.3,270.5,252.3L270.5,252.3z"/>
		<path class="st9" d="M267.2,254.4l16.4,9.4c1.5,0.9,2.4,2.4,2.4,4.1V290c0,4.1-4.5,6.7-8,4.6l-11.9-7.1c-1.6-1-2.6-2.7-2.6-4.5
			l-0.1-26.3C263.4,254.7,265.5,253.5,267.2,254.4"/>
		<path class="st12" d="M267.2,254.4l16.4,9.4c1.5,0.9,2.4,2.4,2.4,4.1V290c0,4.1-4.5,6.7-8,4.6l-11.9-7.1c-1.6-1-2.6-2.7-2.6-4.5
			l-0.1-26.3C263.4,254.7,265.5,253.5,267.2,254.4L267.2,254.4z"/>
		<g>
			<path class="st5" d="M283.6,294.4c0,0,3.4-1.1,4.5-3.1"/>
			<path class="st12" d="M283.6,294.4c0,0,3.4-1.1,4.5-3.1"/>
		</g>
		<path class="st12" d="M263.9,255.1c0,0,4.7-4.4,6.6-2.8"/>
		<path class="st5" d="M279.2,273c0-2.6-2.2-6.1-4.5-6.9c-2.3-0.8-4.8,0.9-4.8,3.5c0,1.8,1,3.9,2.4,5.4v8l4.5,2.6v-9.2
			C278.3,275.9,279.2,274.5,279.2,273"/>
		<path class="st12" d="M279.2,273c0-2.6-2.2-6.1-4.5-6.9c-2.3-0.8-4.8,0.9-4.8,3.5c0,1.8,1,3.9,2.4,5.4v8l4.5,2.6v-9.2
			C278.3,275.9,279.2,274.5,279.2,273L279.2,273z"/>
	</g>
</g>
<g>
	<path class="st9" d="M315.1,420.9c-2-6.7-0.2-14.8,4.5-20c4.2-4.7,9.7-3.3,11.6,3c2,6.7,0.4,15-4.3,20.2
		C322.7,428.8,317,427.2,315.1,420.9 M337.4,445.1c0.6-0.8,0.7-2.6,0.4-3.6c-1.1-3.4-0.8-7.7,0.7-11.1c1.6-3.4,4.2-5.2,6.5-4.2
		c0.7,0.3,1.5-0.4,1.8-1.7c0.9-3.2,1.5-6.5,1.9-9.9c0.2-1.3-0.3-2.4-1-2.6c-2.2-0.5-4-3.7-4.1-7.5c-0.1-4,1.4-8.1,3.7-10.3
		c0.7-0.7,1.1-2.1,0.9-3.2c-0.6-2.8-1.4-5.4-2.4-7.8c-0.4-0.9-1.2-1-1.9-0.2c-2.2,2.5-4.8,2.8-6.6,0.8c-0.7-0.8-1.2-2.1-1.5-3.6l0,0
		c-0.3-1.9-0.3-4.1,0.3-6.1c0.3-1.2,0-2.3-0.6-2.6c-0.2-0.1-0.3-0.1-0.5-0.2c-1-0.6-2.2-0.7-2.2-0.7l0,0c-0.5-0.1-1.1-0.2-1.6-0.2
		l-6.4-1l-3.4,7.1l2.4,3.5c-0.3,0.2-0.6,0.4-0.9,0.5c-2.3,0.9-4.4-0.5-5.3-3.6c-0.3-1-1-1.2-1.7-0.6c-1.8,1.6-3.6,3.5-5.4,5.7
		c-0.6,0.8-0.8,2.4-0.6,3.3c0.8,2.7,0.3,6.8-1.4,10.1c-1.7,3.3-4.3,5.1-6.4,4.4c-0.7-0.2-1.5,0.5-1.8,1.7c-1,3-1.8,6.1-2.4,9.3
		c-0.2,1.2,0.1,2.3,0.9,2.4c2.2,0.3,3.8,3.3,3.8,7c0,3.9-1.5,8-3.8,10.2c-0.7,0.7-1.1,2.1-0.9,3.2c0.3,1.4,0.7,2.8,1.1,4.2
		c0.4,1.3,0.9,2.5,1.4,3.7c0.4,0.9,1.3,1.1,1.9,0.3c2.2-2.5,4.9-2.7,6.7-0.6c0.8,0.9,1.3,2.2,1.7,3.8l-4.2,9l9.2,1.9l0.1,0l0,0v0
		c0.5,0.1,0.9,0.2,1.4,0.2c0.8,0.1,1.5-0.9,1.7-2.1c0.6-4.1,2.7-7.5,5.2-8.4c2.3-0.8,4.6,0.8,5.7,4c0.1,0.2,0.1,0.3,0.1,0.5
		c0.3,1.1,1.1,1.5,1.9,0.9C333.9,449.3,335.7,447.4,337.4,445.1"/>
	<path class="st12" d="M315.1,420.9c-2-6.7-0.2-14.8,4.5-20c4.2-4.7,9.7-3.3,11.6,3c2,6.7,0.4,15-4.3,20.2
		C322.7,428.8,317,427.2,315.1,420.9L315.1,420.9z M337.4,445.1c0.6-0.8,0.7-2.6,0.4-3.6c-1.1-3.4-0.8-7.7,0.7-11.1
		c1.6-3.4,4.2-5.2,6.5-4.2c0.7,0.3,1.5-0.4,1.8-1.7c0.9-3.2,1.5-6.5,1.9-9.9c0.2-1.3-0.3-2.4-1-2.6c-2.2-0.5-4-3.7-4.1-7.5
		c-0.1-4,1.4-8.1,3.7-10.3c0.7-0.7,1.1-2.1,0.9-3.2c-0.6-2.8-1.4-5.4-2.4-7.8c-0.4-0.9-1.2-1-1.9-0.2c-2.2,2.5-4.8,2.8-6.6,0.8
		c-0.7-0.8-1.2-2.1-1.5-3.6c-0.3-1.9-0.3-4.1,0.3-6.1c0.3-1.2,0-2.3-0.6-2.6c-0.2-0.1-0.3-0.1-0.5-0.2c-1-0.6-2.2-0.7-2.2-0.7
		c-0.5-0.1-1.1-0.2-1.6-0.3l-6.4-1l-3.4,7.1l2.4,3.5c-0.3,0.2-0.6,0.4-0.9,0.5c-2.3,0.9-4.4-0.5-5.3-3.6c-0.3-1-1-1.2-1.7-0.6
		c-1.8,1.6-3.6,3.5-5.4,5.7c-0.6,0.8-0.8,2.4-0.6,3.3c0.8,2.7,0.3,6.8-1.4,10.1c-1.7,3.3-4.3,5.1-6.4,4.4c-0.7-0.2-1.5,0.5-1.8,1.7
		c-1,3-1.8,6.1-2.4,9.3c-0.2,1.2,0.1,2.3,0.9,2.4c2.2,0.3,3.8,3.3,3.8,7c0,3.9-1.5,8-3.8,10.2c-0.7,0.7-1.1,2.1-0.9,3.2
		c0.3,1.4,0.7,2.8,1.1,4.2c0.4,1.3,0.9,2.5,1.4,3.7c0.4,0.9,1.3,1.1,1.9,0.3c2.2-2.5,4.9-2.7,6.7-0.6c0.8,0.9,1.3,2.2,1.7,3.8
		l-4.2,9l9.2,1.9c0.6,0.1,1,0.2,1.5,0.2c0.8,0.1,1.5-0.9,1.7-2.1c0.6-4.1,2.7-7.5,5.2-8.4c2.3-0.8,4.6,0.8,5.7,4
		c0.1,0.2,0.1,0.3,0.1,0.5c0.3,1.1,1.1,1.5,1.9,0.9C333.9,449.3,335.7,447.4,337.4,445.1z"/>
	<path class="st14" d="M348.6,412.8l-11.3-2.6l-2.7,13.8l11,1.6"/>
	<path class="st5" d="M348,393.2l-10.6-2.4l-3.2-10.4l11.2,2.2"/>
	<path class="st14" d="M348,393.2l-10.6-2.4l-3.2-10.4l11.2,2.2"/>
	<path class="st5" d="M336.3,410.6c7.7,1.4,11.7,2.2,12,2.5c0.5,0.5-2.1,12.5-2.1,12.5l-10.5-2.1L336.3,410.6L336.3,410.6z"/>
	<path class="st5" d="M304.4,418.8c-2-6.7-0.2-14.8,4.5-20c4.2-4.7,9.7-3.3,11.6,3c2,6.7,0.4,15-4.3,20.2
		C312,426.7,306.3,425.1,304.4,418.8 M326.7,443c0.6-0.8,0.7-2.6,0.4-3.6c-1.1-3.4-0.8-7.7,0.7-11.1c1.6-3.4,4.2-5.2,6.5-4.2
		c0.7,0.3,1.5-0.4,1.9-1.7c0.9-3.2,1.5-6.5,1.9-9.9c0.2-1.3-0.3-2.4-1-2.6c-2.2-0.5-4-3.7-4.1-7.5c-0.1-4,1.4-8.1,3.7-10.3
		c0.7-0.7,1.1-2.1,0.9-3.2c-0.6-2.8-1.4-5.4-2.4-7.8c-0.4-0.9-1.2-1-1.9-0.2c-2.2,2.5-4.8,2.8-6.6,0.8c-1.7-1.9-2.2-6.1-1.2-9.7
		c0.3-1.2,0-2.3-0.6-2.6c-1.7-0.8-3.6-1.2-5.5-1.2c-0.7,0-1.5,0.9-1.8,2.1c-0.8,3.8-3,7.1-5.4,8.1c-2.3,0.9-4.4-0.5-5.3-3.6
		c-0.3-1-1-1.2-1.7-0.6c-1.8,1.6-3.6,3.5-5.4,5.7c-0.6,0.8-0.8,2.4-0.6,3.3c0.8,2.7,0.3,6.8-1.4,10.1c-1.7,3.3-4.3,5.1-6.4,4.4
		c-0.7-0.2-1.5,0.5-1.8,1.7c-1,3-1.8,6.1-2.4,9.3c-0.2,1.2,0.1,2.3,0.9,2.4c2.2,0.3,3.8,3.3,3.8,7c0,3.9-1.5,8-3.8,10.2
		c-0.7,0.7-1.1,2.1-0.9,3.2c0.3,1.4,0.7,2.8,1.1,4.2c0.4,1.3,0.9,2.5,1.4,3.7c0.4,0.9,1.3,1.1,1.9,0.3c2.2-2.5,4.9-2.7,6.7-0.6
		c1.8,2.1,2.5,6.5,1.6,10.3c-0.3,1.3,0.1,2.5,0.8,2.9c1.9,0.9,3.8,1.5,5.8,1.7c0.8,0.1,1.5-0.9,1.7-2.1c0.6-4.1,2.7-7.5,5.2-8.4
		c2.3-0.8,4.6,0.8,5.7,4l0.1,0.5c0.3,1.1,1.1,1.5,1.9,0.9C323.2,447.1,325,445.2,326.7,443"/>
	<path class="st15" d="M304.4,418.8c-2-6.7-0.2-14.8,4.5-20c4.2-4.7,9.7-3.3,11.6,3c2,6.7,0.4,15-4.3,20.2
		C312,426.7,306.3,425.1,304.4,418.8z M326.7,443c0.6-0.8,0.7-2.6,0.4-3.6c-1.1-3.4-0.8-7.7,0.7-11.1c1.6-3.4,4.2-5.2,6.5-4.2
		c0.7,0.3,1.5-0.4,1.9-1.7c0.9-3.2,1.5-6.5,1.9-9.9c0.2-1.3-0.3-2.4-1-2.6c-2.2-0.5-4-3.7-4.1-7.5c-0.1-4,1.4-8.1,3.7-10.3
		c0.7-0.7,1.1-2.1,0.9-3.2c-0.6-2.8-1.4-5.4-2.4-7.8c-0.4-0.9-1.2-1-1.9-0.2c-2.2,2.5-4.8,2.8-6.6,0.8c-1.7-1.9-2.2-6.1-1.2-9.7
		c0.3-1.2,0-2.3-0.6-2.6c-1.7-0.8-3.6-1.2-5.5-1.2c-0.7,0-1.5,0.9-1.8,2.1c-0.8,3.8-3,7.1-5.4,8.1c-2.3,0.9-4.4-0.5-5.3-3.6
		c-0.3-1-1-1.2-1.7-0.6c-1.8,1.6-3.6,3.5-5.4,5.7c-0.6,0.8-0.8,2.4-0.6,3.3c0.8,2.7,0.3,6.8-1.4,10.1c-1.7,3.3-4.3,5.1-6.4,4.4
		c-0.7-0.2-1.5,0.5-1.8,1.7c-1,3-1.8,6.1-2.4,9.3c-0.2,1.2,0.1,2.3,0.9,2.4c2.2,0.3,3.8,3.3,3.8,7c0,3.9-1.5,8-3.8,10.2
		c-0.7,0.7-1.1,2.1-0.9,3.2c0.3,1.4,0.7,2.8,1.1,4.2c0.4,1.3,0.9,2.5,1.4,3.7c0.4,0.9,1.3,1.1,1.9,0.3c2.2-2.5,4.9-2.7,6.7-0.6
		c1.8,2.1,2.5,6.5,1.6,10.3c-0.3,1.3,0.1,2.5,0.8,2.9c1.9,0.9,3.8,1.5,5.8,1.7c0.8,0.1,1.5-0.9,1.7-2.1c0.6-4.1,2.7-7.5,5.2-8.4
		c2.3-0.8,4.6,0.8,5.7,4l0.1,0.5c0.3,1.1,1.1,1.5,1.9,0.9C323.2,447.1,325,445.2,326.7,443L326.7,443z"/>
	<g>
		<path class="st5" d="M331,451.1l-9.7-2.4l5.8-6.8l10,2.7"/>
		<path class="st14" d="M331,451.1l-9.7-2.4l5.8-6.8l10,2.7"/>
	</g>
</g>
</svg>
