<svg width="217" height="41" viewBox="0 0 217 41" fill="none" xmlns="http://www.w3.org/2000/svg">
<g clip-path="url(#clip0)">
<path d="M30.6752 6.71004C28.125 3.86975 23.9673 1.33765 16.695 1.33765C8.55003 1.33765 1.19305 4.89704 1.19305 12.0621C1.19305 19.3999 8.53084 20.1721 15.6508 20.925C22.3756 21.6487 28.8994 22.3644 28.8994 28.9548C28.8994 33.922 23.8691 38.2118 16.4263 38.2118C12.1365 38.2118 9.22172 36.62 7.32293 34.7043C5.3722 32.7366 4.27492 29.8783 4.32798 27.4658H0.012229C-0.142429 30.8198 1.17499 33.8147 3.67322 36.1368C6.46271 38.7547 10.8778 40.4831 16.4557 40.4831C24.6345 40.4831 33.4297 37.0095 33.4297 28.9503C33.4297 20.4295 24.9427 19.6076 17.3283 18.735C11.1171 18.0204 5.48735 17.2844 5.48735 12.0666C5.48735 7.41221 9.66425 3.61349 16.695 3.61349C22.6499 3.61349 25.935 6.43572 27.4194 8.79849L30.6752 6.71004Z" fill="black"/>
<path d="M203.435 1.3479C197.703 1.3479 193.767 3.76147 190.26 8.00836C186.574 12.4697 184.472 15.0233 182.012 15.6069V1.78365H177.752V40.0531H182.012V18.1142C186.415 18.0521 189.372 14.5841 193.237 10.0065C195.735 7.02848 199.037 3.62487 203.435 3.62487C212.059 3.62487 212.487 12.0261 212.487 16.0641V40.0531H216.747V15.7209C216.747 10.0404 215.258 1.3479 203.435 1.3479Z" fill="black"/>
<path d="M100.678 1.78017L81.5493 36.7013C79.8898 39.7493 77.7675 40.4831 74.9272 40.4831C71.3859 40.4831 69.3493 38.9263 69.3493 34.4943L69.3426 4.94333C69.3426 3.8483 68.9666 3.35272 68.094 3.35272C67.2214 3.35272 66.4684 4.15649 66.0744 4.87559L48.6364 36.7013C46.977 39.7493 44.8547 40.4831 42.0144 40.4831C38.473 40.4831 36.4365 38.9263 36.4365 34.4943V1.78017H40.7658V36.8774C40.7658 37.9724 41.1417 38.468 42.0144 38.468C42.887 38.468 43.64 37.6642 44.034 36.9463L61.4719 5.11943C63.1314 2.07143 65.2537 1.33765 68.094 1.33765C71.6353 1.33765 73.6719 2.89439 73.6719 7.32641L73.6786 36.8774C73.6786 37.9724 74.0546 38.468 74.9272 38.468C75.7998 38.468 76.5528 37.6642 76.9468 36.9463L96.1932 1.78017H100.678Z" fill="black"/>
<path d="M153.723 0.907471C145.234 0.907471 138.398 5.10807 135.072 11.3768C132.637 6.04618 127.385 0.907471 117.066 0.907471C104.836 0.907471 95.791 10.1723 95.791 20.9159C95.791 31.6596 104.836 40.9244 117.066 40.9244C125.556 40.9244 132.393 36.7227 135.719 30.4539C138.154 35.7846 143.404 40.9244 153.728 40.9244C165.954 40.9244 174.998 31.6551 174.998 20.9159C174.998 10.1768 165.947 0.907471 153.723 0.907471ZM131.813 27.7469C129.547 33.73 123.979 38.6407 117.097 38.6407C108.122 38.6407 100.339 30.9461 100.339 20.9171C100.339 10.8699 107.79 3.19348 117.097 3.19348C127.049 3.19348 131.951 9.34819 133.762 14.5953C133.218 16.5844 133.027 18.8591 132.885 20.794C132.729 22.887 132.488 25.9655 131.813 27.7469ZM153.688 38.6407C143.737 38.6407 138.834 32.4859 137.024 27.2389C137.568 25.2509 137.758 22.9762 137.901 21.0401C138.056 18.9472 138.298 15.8698 138.972 14.0884C141.238 8.10528 146.807 3.19348 153.688 3.19348C162.664 3.19348 170.446 10.8891 170.446 20.9171C170.446 30.9631 162.993 38.6407 153.688 38.6407Z" fill="black"/>
</g>
<defs>
<clipPath id="clip0">
<rect y="0.915527" width="216.747" height="40" fill="white"/>
</clipPath>
</defs>
</svg>
