<svg width="253" height="41" viewBox="0 0 253 41" fill="none" xmlns="http://www.w3.org/2000/svg">
<path fill-rule="evenodd" clip-rule="evenodd" d="M58.2568 31.6631C58.2568 31.6631 58.2818 16.0251 58.2818 11.1712C58.2769 10.9527 58.315 10.7353 58.3939 10.5315C58.6403 9.84948 59.0888 9.25893 59.6794 8.83871C60.0955 8.5695 60.5782 8.42143 61.0735 8.41106C63.2617 8.39145 73.6846 8.41106 73.6846 8.41106C73.8088 8.41082 73.9317 8.43515 74.0464 8.48263C74.1612 8.53012 74.2654 8.59984 74.3531 8.68777C74.4408 8.7757 74.5102 8.88012 74.5574 8.99501C74.6047 9.1099 74.6288 9.23301 74.6283 9.35724V12.2439C74.6288 12.3682 74.6047 12.4913 74.5574 12.6062C74.5102 12.721 74.4408 12.8255 74.3531 12.9134C74.2654 13.0013 74.1612 13.071 74.0464 13.1185C73.9317 13.166 73.8088 13.1903 73.6846 13.1901L63.1122 13.2026V18.4057H69.5468C69.7949 18.4067 70.0325 18.5061 70.2074 18.6821C70.3823 18.8582 70.4803 19.0965 70.4798 19.3448V22.1424C70.4798 22.2649 70.4556 22.3862 70.4087 22.4994C70.3618 22.6126 70.2931 22.7154 70.2064 22.802C70.1198 22.8885 70.0169 22.9571 69.9037 23.0039C69.7905 23.0506 69.6693 23.0745 69.5468 23.0743H63.114V31.6595C63.114 31.9137 63.013 32.1576 62.8334 32.3374C62.6538 32.5171 62.4101 32.6181 62.1561 32.6181H59.2201C59.0941 32.6189 58.9693 32.5947 58.8527 32.5471C58.7361 32.4994 58.63 32.4292 58.5405 32.3405C58.4511 32.2518 58.38 32.1463 58.3313 32.0301C58.2826 31.9138 58.2573 31.7891 58.2568 31.6631Z" fill="#33375A"/>
<path fill-rule="evenodd" clip-rule="evenodd" d="M77.5783 31.6079C78.3831 29.4109 85.1863 11.2005 85.1863 11.2005C85.902 9.29569 86.6071 8.41724 87.9442 8.43684C89.3971 8.49386 89.9722 9.59682 90.6487 11.4054V11.4303C92.6803 16.7313 98.2905 31.6079 98.2905 31.6079C98.3302 31.7143 98.3435 31.8288 98.3294 31.9415C98.3152 32.0542 98.274 32.1618 98.2093 32.2551C98.1446 32.3485 98.0582 32.4247 97.9576 32.4774C97.8571 32.5301 97.7453 32.5576 97.6317 32.5576H94.0619C93.9176 32.5576 93.7768 32.5128 93.6589 32.4296C93.5409 32.3463 93.4516 32.2286 93.4031 32.0926L92.1052 28.6144H83.737L82.4639 32.0926C82.4155 32.2286 82.3261 32.3463 82.2082 32.4296C82.0903 32.5128 81.9495 32.5576 81.8052 32.5576H78.2371C78.1244 32.5568 78.0135 32.5293 77.9135 32.4772C77.8136 32.4252 77.7274 32.3501 77.662 32.2583C77.5971 32.1645 77.5556 32.0565 77.541 31.9433C77.5264 31.8301 77.5392 31.7151 77.5783 31.6079ZM90.314 23.962L87.8908 17.6614C87.8249 17.8396 86.6908 20.8278 85.5068 23.962H90.314Z" fill="#33375A"/>
<path fill-rule="evenodd" clip-rule="evenodd" d="M122.188 30.2191C120.101 31.7049 117.613 32.5242 115.052 32.5693C113.108 32.4952 111.207 31.9718 109.499 31.0401C107.79 30.1084 106.321 28.7937 105.204 27.1989C103.759 24.93 103.049 22.2696 103.173 19.5816C103.343 17.6902 103.931 15.8602 104.894 14.2237C105.857 12.5872 107.17 11.185 108.74 10.1184C110.767 8.98864 113.056 8.41402 115.375 8.4525C117.695 8.49098 119.963 9.1412 121.952 10.3375L122.842 10.8845C122.965 10.9624 123.053 11.0856 123.086 11.2276C123.119 11.3696 123.096 11.519 123.02 11.6436L121.088 14.7992C121.05 14.8604 121.001 14.9136 120.943 14.9557C120.885 14.9978 120.819 15.028 120.749 15.0445C120.68 15.0611 120.607 15.0637 120.536 15.0521C120.465 15.0406 120.398 15.0152 120.337 14.9774C119.567 14.4576 118.755 14.0029 117.91 13.6179C116.383 13.019 114.699 12.9521 113.13 13.4279C111.56 13.9038 110.197 14.8946 109.259 16.2407C108.274 17.9045 107.942 19.8748 108.326 21.7698C108.711 23.6648 109.785 25.3493 111.34 26.4969C112.47 27.203 113.772 27.5863 115.105 27.6055C116.437 27.6247 117.75 27.2789 118.9 26.6056C118.902 26.6068 118.904 26.6075 118.907 26.6075C118.909 26.6075 118.912 26.6068 118.914 26.6056L120.338 25.7147C120.462 25.6392 120.61 25.6156 120.751 25.649C120.891 25.6823 121.013 25.77 121.09 25.8928L123.014 29.0538C123.09 29.1784 123.114 29.3278 123.081 29.4698C123.047 29.6118 122.96 29.735 122.836 29.8129L122.188 30.2191Z" fill="#33375A"/>
<path fill-rule="evenodd" clip-rule="evenodd" d="M131.859 8.43652H148.549C148.673 8.43652 148.795 8.46092 148.909 8.50831C149.023 8.5557 149.127 8.62516 149.215 8.71271C149.302 8.80027 149.371 8.90419 149.418 9.01854C149.465 9.1329 149.489 9.25543 149.489 9.37913V10.6264C149.504 10.7214 149.512 10.8173 149.514 10.9133C149.517 11.0267 149.508 11.1401 149.489 11.2519V12.2657C149.489 12.3894 149.465 12.512 149.418 12.6263C149.371 12.7407 149.302 12.8446 149.215 12.9322C149.127 13.0197 149.023 13.0892 148.909 13.1366C148.795 13.184 148.673 13.2083 148.549 13.2083L142.631 13.2279C142.631 18.9299 142.631 31.6417 142.631 31.6417C142.623 31.8911 142.518 32.1274 142.337 32.2993C142.156 32.4712 141.915 32.5646 141.666 32.5594H138.789C138.538 32.5585 138.297 32.4593 138.119 32.2831C137.94 32.107 137.837 31.8678 137.833 31.6168V13.2297L131.859 13.2012C131.735 13.2012 131.613 13.1768 131.499 13.1294C131.385 13.082 131.281 13.0126 131.194 12.925C131.106 12.8375 131.037 12.7336 130.99 12.6192C130.943 12.5048 130.919 12.3823 130.919 12.2586V9.37913C130.919 9.25543 130.943 9.1329 130.99 9.01854C131.037 8.90419 131.106 8.80027 131.194 8.71271C131.281 8.62516 131.385 8.5557 131.499 8.50831C131.613 8.46092 131.735 8.43652 131.859 8.43652Z" fill="#33375A"/>
<path fill-rule="evenodd" clip-rule="evenodd" d="M157.945 31.6219V10.8687C157.946 10.5433 158.01 10.2211 158.136 9.92082C158.261 9.62059 158.445 9.34829 158.677 9.11972C158.908 8.89115 159.183 8.71086 159.485 8.5893C159.786 8.46774 160.109 8.40733 160.434 8.41158C161.643 8.41692 162.423 9.58225 162.907 10.7743L168.942 24.2682C170.188 21.3371 175.351 9.90654 175.351 9.90654C175.549 9.4357 175.889 9.03876 176.324 8.77156C176.759 8.50436 177.267 8.38033 177.776 8.41692C178.377 8.50412 178.926 8.80677 179.321 9.26858C179.715 9.73039 179.929 10.3199 179.922 10.9275V31.6219C179.922 31.7456 179.898 31.8681 179.851 31.9824C179.804 32.0968 179.734 32.2007 179.647 32.2883C179.56 32.3758 179.456 32.4453 179.342 32.4927C179.228 32.5401 179.105 32.5645 178.982 32.5645H176.046C175.922 32.5645 175.8 32.5401 175.685 32.4927C175.571 32.4453 175.468 32.3758 175.38 32.2883C175.293 32.2007 175.224 32.0968 175.177 31.9824C175.129 31.8681 175.105 31.7456 175.106 31.6219L175.12 22.0943C173.731 25.2357 172.921 27.3116 171.347 30.51C170.734 31.6949 170.188 32.47 169.077 32.4985C168.496 32.4888 167.933 32.2933 167.471 31.9406C167.009 31.5879 166.672 31.0966 166.509 30.5385L162.747 22.0765C162.747 24.7974 162.737 31.6201 162.737 31.6201C162.737 31.7438 162.713 31.8663 162.666 31.9807C162.618 32.095 162.549 32.1989 162.462 32.2865C162.375 32.374 162.271 32.4435 162.157 32.4909C162.042 32.5383 161.92 32.5627 161.796 32.5627H158.885C158.636 32.5627 158.397 32.4635 158.221 32.2871C158.044 32.1107 157.945 31.8714 157.945 31.6219Z" fill="#33375A"/>
<path fill-rule="evenodd" clip-rule="evenodd" d="M187.087 31.6079C187.892 29.4109 194.693 11.2005 194.693 11.2005C195.409 9.29569 196.116 8.41724 197.451 8.43684C198.904 8.49386 199.481 9.59682 200.155 11.4054V11.4303C202.187 16.7313 207.797 31.6079 207.797 31.6079C207.837 31.7143 207.85 31.8288 207.836 31.9415C207.822 32.0542 207.781 32.1618 207.716 32.2551C207.651 32.3485 207.565 32.4247 207.464 32.4774C207.364 32.5301 207.252 32.5576 207.138 32.5576H203.57C203.426 32.5576 203.285 32.5128 203.167 32.4296C203.049 32.3463 202.96 32.2286 202.912 32.0926L201.612 28.6144H193.244L191.971 32.0926C191.922 32.2286 191.833 32.3463 191.715 32.4296C191.597 32.5128 191.456 32.5576 191.312 32.5576H187.744C187.631 32.5568 187.52 32.5293 187.42 32.4772C187.32 32.4252 187.234 32.3501 187.169 32.2583C187.104 32.1643 187.063 32.0562 187.049 31.9431C187.034 31.8299 187.047 31.715 187.087 31.6079ZM199.822 23.962L197.399 17.6614C197.333 17.8396 196.199 20.8278 195.013 23.962H199.822Z" fill="#33375A"/>
<path fill-rule="evenodd" clip-rule="evenodd" d="M212.343 8.43652H229.034C229.157 8.43652 229.28 8.46092 229.394 8.50831C229.508 8.5557 229.612 8.62516 229.699 8.71271C229.786 8.80027 229.855 8.90419 229.903 9.01854C229.95 9.1329 229.974 9.25543 229.974 9.37913V12.2586C229.974 12.3823 229.95 12.5048 229.903 12.6192C229.855 12.7336 229.786 12.8375 229.699 12.925C229.612 13.0126 229.508 13.082 229.394 13.1294C229.28 13.1768 229.157 13.2012 229.034 13.2012L223.115 13.2279C223.115 18.9299 223.115 31.6417 223.115 31.6417C223.108 31.8911 223.002 32.1274 222.821 32.2993C222.641 32.4712 222.399 32.5646 222.15 32.5594H219.273C219.022 32.5585 218.782 32.4593 218.603 32.2831C218.424 32.107 218.322 31.8678 218.317 31.6168V13.2297L212.343 13.2012C212.22 13.2012 212.097 13.1768 211.983 13.1294C211.869 13.082 211.765 13.0126 211.678 12.925C211.591 12.8375 211.522 12.7336 211.474 12.6192C211.427 12.5048 211.403 12.3823 211.403 12.2586V9.37913C211.403 9.25543 211.427 9.1329 211.474 9.01854C211.522 8.90419 211.591 8.80027 211.678 8.71271C211.765 8.62516 211.869 8.5557 211.983 8.50831C212.097 8.46092 212.22 8.43652 212.343 8.43652Z" fill="#33375A"/>
<path fill-rule="evenodd" clip-rule="evenodd" d="M231.647 31.5883C232.454 29.3913 239.257 11.1805 239.257 11.1805C239.971 9.27569 240.676 8.39722 242.013 8.41682C243.466 8.4685 244.047 9.57504 244.72 11.3854V11.4104C246.751 16.7115 252.361 31.5883 252.361 31.5883C252.4 31.6955 252.413 31.8106 252.399 31.9237C252.384 32.0369 252.343 32.1449 252.278 32.2387C252.212 32.3306 252.126 32.4056 252.026 32.4577C251.926 32.5097 251.815 32.5373 251.703 32.5381H248.133C247.988 32.538 247.848 32.4933 247.73 32.41C247.612 32.3268 247.522 32.2091 247.474 32.073L246.717 30.0149L246.174 28.5894H237.815L236.542 32.0677C236.493 32.2037 236.404 32.3214 236.286 32.4047C236.168 32.488 236.027 32.5327 235.883 32.5327H232.306C232.193 32.5319 232.083 32.5044 231.983 32.4523C231.883 32.4003 231.796 32.3253 231.731 32.2334C231.667 32.1402 231.626 32.0331 231.611 31.921C231.597 31.8088 231.609 31.6948 231.647 31.5883ZM244.385 23.9423L241.962 17.6416C241.896 17.8198 240.762 20.808 239.576 23.9423H244.385Z" fill="#33375A"/>
<path opacity="0.6" fill-rule="evenodd" clip-rule="evenodd" d="M13.9442 15.3751C9.79566 15.3751 10.2497 17.3032 7.89056 17.3032H2.75034C2.00599 17.2582 1.30688 16.9304 0.795751 16.387C0.284618 15.8435 0 15.1253 0 14.3789C0 13.6325 0.284618 12.9143 0.795751 12.3708C1.30688 11.8274 2.00599 11.4997 2.75034 11.4546H21.7782C22.5259 11.5007 23.2288 11.8275 23.7463 12.3696C24.2638 12.9117 24.558 13.6292 24.57 14.3789C24.558 15.1286 24.2638 15.8462 23.7463 16.3883C23.2288 16.9304 22.5259 17.2571 21.7782 17.3032H19.9978C17.8541 17.3032 18.0873 15.3751 13.9442 15.3751Z" fill="#3DBF5D"/>
<path opacity="0.6" fill-rule="evenodd" clip-rule="evenodd" d="M10.8584 27.4845C10.8584 26.7259 10.5574 25.9984 10.0215 25.4618C9.48566 24.9252 8.7588 24.6235 8.00074 24.623H2.86231C2.11653 24.6417 1.40755 24.9512 0.886658 25.4857C0.365769 26.0201 0.0742188 26.7371 0.0742188 27.4836C0.0742188 28.2302 0.365769 28.9472 0.886658 29.4816C1.40755 30.0161 2.11653 30.3256 2.86231 30.3442H8.00074C8.7585 30.3438 9.48508 30.0423 10.0209 29.5061C10.5567 28.9699 10.8579 28.2428 10.8584 27.4845Z" fill="#EF2569"/>
<path opacity="0.6" fill-rule="evenodd" clip-rule="evenodd" d="M42.2817 27.4845C42.2817 26.7259 41.9807 25.9984 41.4449 25.4618C40.909 24.9252 40.1821 24.6235 39.4241 24.623H35.4287C34.6829 24.6417 33.974 24.9512 33.4531 25.4857C32.9322 26.0201 32.6406 26.7371 32.6406 27.4836C32.6406 28.2302 32.9322 28.9472 33.4531 29.4816C33.974 30.0161 34.6829 30.3256 35.4287 30.3442H39.4241C40.1818 30.3438 40.9084 30.0423 41.4442 29.5061C41.98 28.9699 42.2813 28.2428 42.2817 27.4845Z" fill="#EF2569"/>
<path opacity="0.6" fill-rule="evenodd" clip-rule="evenodd" d="M33.1392 37.7761C33.1392 38.5348 32.8381 39.2623 32.3023 39.7989C31.7664 40.3355 31.0396 40.6372 30.2815 40.6377H11.4317C10.6733 40.6377 9.94602 40.3362 9.40977 39.7996C8.87353 39.2629 8.57227 38.5351 8.57227 37.7761C8.57227 37.0172 8.87353 36.2893 9.40977 35.7527C9.94602 35.216 10.6733 34.9146 11.4317 34.9146H30.2815C31.0396 34.915 31.7664 35.2167 32.3023 35.7533C32.8381 36.2899 33.1392 37.0175 33.1392 37.7761Z" fill="#3DBF5D"/>
<path fill-rule="evenodd" clip-rule="evenodd" d="M38.0071 8.97291C38.7644 9.01135 39.4948 9.2658 40.1122 9.70621C40.7297 10.1466 41.2084 10.7546 41.4917 11.4584C41.7751 12.1622 41.8514 12.9325 41.7116 13.6783C41.5718 14.4241 41.2218 15.1143 40.7028 15.6675C35.308 20.7673 30.2532 25.5142 24.8068 30.5338C24.6526 30.6798 24.4871 30.8133 24.3118 30.933C23.3228 31.6021 22.1384 31.9204 20.9476 31.8371C19.7568 31.7537 18.6281 31.2736 17.7419 30.4732C15.6534 28.49 13.5898 26.4675 11.5173 24.4629C11.0715 23.97 10.7546 23.3741 10.5951 22.7286C10.4356 22.0831 10.4384 21.4081 10.6034 20.764C10.7683 20.1199 11.0901 19.5267 11.5401 19.0375C11.9901 18.5483 12.5543 18.1784 13.1821 17.9608C13.8528 17.7711 14.5611 17.758 15.2383 17.9228C15.9156 18.0877 16.5387 18.4248 17.0475 18.9016C18.3098 20.1293 19.5027 21.423 20.8096 22.6026C21.5111 23.2209 22.6435 21.8275 23.6584 20.876C27.6502 17.134 31.2556 13.7092 35.2759 9.99749C35.4916 9.79168 35.7342 9.61605 35.997 9.4754C36.6068 9.12291 37.3033 8.94881 38.0071 8.97291Z" fill="#1D9AF2"/>
<path opacity="0.6" fill-rule="evenodd" clip-rule="evenodd" d="M33.1392 3.4668C33.1392 4.22549 32.8381 4.95313 32.3023 5.48978C31.7664 6.02642 31.0396 6.32814 30.2815 6.32861H11.4317C10.6733 6.32861 9.94602 6.0271 9.40977 5.49041C8.87353 4.95371 8.57227 4.2258 8.57227 3.4668C8.57227 2.7078 8.87353 1.97988 9.40977 1.44319C9.94602 0.906492 10.6733 0.60498 11.4317 0.60498H30.2815C31.0396 0.605453 31.7664 0.907173 32.3023 1.44382C32.8381 1.98046 33.1392 2.7081 33.1392 3.4668Z" fill="#EF2569"/>
</svg>
