<svg width="862" height="298" viewBox="0 0 862 298" fill="none" xmlns="http://www.w3.org/2000/svg">
<path opacity="0.4" d="M566.141 266.4C565.141 266.4 564.241 265.6 564.241 264.6C564.241 263.6 565.041 262.8 565.941 262.8V264.6V262.8C570.741 262.8 575.541 262.6 580.141 262.2C581.141 262.1 582.041 262.8 582.041 263.8C582.141 264.8 581.341 265.7 580.441 265.7C575.841 266.2 570.941 266.4 566.141 266.4ZM551.641 265.8H551.541C546.741 265.4 541.941 264.9 537.141 264.1C536.141 263.9 535.441 263 535.641 262C535.841 261 536.741 260.3 537.741 260.5C542.441 261.2 547.241 261.8 551.941 262.2C552.941 262.3 553.641 263.1 553.641 264.1C553.341 265.1 552.541 265.8 551.641 265.8ZM353.341 264.5H351.941C350.941 264.5 350.141 263.7 350.141 262.7C350.141 261.7 350.941 260.9 351.941 260.9H353.341C357.741 260.9 362.141 260.8 366.341 260.7C367.241 260.6 368.141 261.4 368.241 262.4C368.241 263.4 367.541 264.2 366.541 264.3C362.241 264.4 357.841 264.5 353.341 264.5ZM337.641 264.2C337.641 264.2 337.541 264.2 337.641 264.2C332.841 264 328.041 263.8 323.141 263.4C322.141 263.3 321.441 262.5 321.441 261.5C321.541 260.5 322.341 259.8 323.341 259.8C328.141 260.1 333.041 260.4 337.641 260.6C338.641 260.6 339.441 261.5 339.341 262.5C339.341 263.4 338.541 264.2 337.641 264.2ZM594.641 263.9C593.741 263.9 593.041 263.3 592.841 262.4C592.641 261.4 593.341 260.5 594.341 260.3C599.041 259.5 603.741 258.4 608.141 257.1C609.141 256.8 610.141 257.4 610.341 258.3C610.641 259.3 610.041 260.3 609.141 260.5C604.541 261.8 599.741 262.9 594.941 263.8C594.841 263.9 594.741 263.9 594.641 263.9ZM380.841 263.4C379.941 263.4 379.141 262.7 379.041 261.7C378.941 260.7 379.741 259.8 380.641 259.8C385.441 259.4 390.241 258.9 394.841 258.3C395.841 258.2 396.741 258.9 396.841 259.8C396.941 260.8 396.241 261.7 395.341 261.8C390.641 262.4 385.841 262.9 380.941 263.3C380.941 263.4 380.841 263.4 380.841 263.4ZM308.841 262.2C308.741 262.2 308.741 262.2 308.641 262.2C303.941 261.7 299.141 261.2 294.241 260.6C293.241 260.5 292.541 259.6 292.641 258.6C292.741 257.6 293.641 256.9 294.641 257C299.441 257.6 304.241 258.1 308.941 258.6C309.941 258.7 310.641 259.6 310.541 260.6C310.541 261.5 309.841 262.2 308.841 262.2ZM523.141 261.4C523.041 261.4 522.841 261.4 522.741 261.4C518.041 260.3 513.341 259.1 508.741 257.7C507.741 257.4 507.241 256.4 507.541 255.5C507.841 254.5 508.841 254 509.741 254.3C514.241 255.7 518.941 256.9 523.541 257.9C524.541 258.1 525.141 259.1 524.941 260.1C524.741 260.8 524.041 261.4 523.141 261.4ZM409.341 259.6C408.541 259.6 407.741 259 407.541 258.1C407.341 257.1 408.041 256.2 408.941 256C413.641 255.1 418.341 254 422.841 252.9C423.841 252.6 424.741 253.2 425.041 254.2C425.341 255.2 424.741 256.1 423.741 256.4C419.141 257.6 414.441 258.7 409.541 259.6C409.541 259.6 409.441 259.6 409.341 259.6ZM280.341 258.7C280.241 258.7 280.141 258.7 280.041 258.7C275.441 258 270.641 257.3 265.741 256.5C264.741 256.3 264.141 255.4 264.241 254.4C264.441 253.4 265.341 252.8 266.341 252.9C271.141 253.7 275.941 254.4 280.541 255.1C281.541 255.2 282.241 256.2 282.041 257.1C281.941 258 281.141 258.7 280.341 258.7ZM13.8409 258.4C13.2409 258.4 12.6409 258.1 12.2409 257.5C11.7409 256.6 12.0409 255.5 12.9409 255.1C13.1409 255 17.8409 252.4 26.1409 248.8C27.0409 248.4 28.1409 248.8 28.5409 249.7C28.9409 250.6 28.5409 251.7 27.6409 252.1C19.5409 255.6 14.8409 258.2 14.7409 258.2C14.4409 258.3 14.1409 258.4 13.8409 258.4ZM622.241 255.9C621.541 255.9 620.841 255.5 620.541 254.8C620.141 253.9 620.641 252.8 621.541 252.5C625.941 250.7 630.241 248.7 634.341 246.4C635.241 245.9 636.341 246.2 636.741 247.1C637.241 248 636.941 249.1 636.041 249.5C631.841 251.8 627.341 253.9 622.841 255.8C622.741 255.9 622.441 255.9 622.241 255.9ZM251.841 254C251.741 254 251.641 254 251.541 254C246.941 253.2 242.141 252.2 237.341 251.3C236.341 251.1 235.741 250.2 235.941 249.2C236.141 248.2 237.041 247.6 238.041 247.8C242.841 248.8 247.541 249.7 252.141 250.5C253.141 250.7 253.741 251.6 253.541 252.6C253.541 253.3 252.741 254 251.841 254ZM495.641 253.1C495.441 253.1 495.241 253.1 495.041 253C494.441 252.8 493.841 252.5 493.241 252.3C489.341 250.7 485.441 248.9 481.741 246.9C480.841 246.4 480.541 245.3 481.041 244.5C481.541 243.6 482.641 243.3 483.441 243.8C487.041 245.8 490.741 247.5 494.541 249C495.141 249.2 495.741 249.5 496.341 249.7C497.241 250.1 497.741 251.1 497.341 252C497.041 252.6 496.341 253.1 495.641 253.1ZM437.141 252.3C436.441 252.3 435.741 251.8 435.441 251.1C435.141 250.2 435.641 249.1 436.541 248.8C441.141 247.3 445.541 245.5 449.841 243.7C450.741 243.3 451.841 243.7 452.241 244.6C452.641 245.5 452.241 246.6 451.341 247C446.941 248.9 442.441 250.7 437.741 252.2C437.541 252.3 437.341 252.3 437.141 252.3ZM223.641 248.3C223.541 248.3 223.341 248.3 223.241 248.3C218.541 247.3 213.841 246.3 209.141 245.2C208.141 245 207.541 244 207.741 243C207.941 242 208.941 241.4 209.941 241.6C214.541 242.6 219.241 243.7 223.941 244.7C224.941 244.9 225.541 245.9 225.341 246.8C225.241 247.7 224.441 248.3 223.641 248.3ZM40.2409 246.8C39.5409 246.8 38.8409 246.4 38.5409 245.6C38.2409 244.7 38.6409 243.6 39.6409 243.3C44.1409 241.6 48.7409 240 53.3409 238.6C54.2409 238.3 55.3409 238.8 55.6409 239.8C55.9409 240.7 55.4409 241.8 54.4409 242.1C49.9409 243.5 45.3409 245.1 40.9409 246.7C40.6409 246.7 40.4409 246.8 40.2409 246.8ZM647.441 242.1C646.841 242.1 646.341 241.8 645.941 241.3C645.341 240.5 645.541 239.4 646.341 238.8C650.141 236.1 653.841 233.1 657.441 229.9C658.141 229.2 659.341 229.3 659.941 230C660.641 230.7 660.541 231.9 659.841 232.5C656.241 235.8 652.341 238.8 648.441 241.6C648.141 242 647.841 242.1 647.441 242.1ZM195.541 242C195.441 242 195.241 242 195.141 242C190.341 240.9 185.741 239.8 181.141 238.7C180.141 238.5 179.541 237.5 179.841 236.5C180.041 235.5 181.041 234.9 182.041 235.2C186.641 236.3 191.341 237.4 196.041 238.5C197.041 238.7 197.641 239.7 197.341 240.7C197.141 241.5 196.341 242 195.541 242ZM463.541 240.8C462.941 240.8 462.241 240.5 461.941 239.9C461.441 239 461.741 237.9 462.641 237.5C463.641 237 464.541 236.4 465.541 235.9C463.041 233.8 460.641 231.6 458.341 229.3C457.641 228.6 457.641 227.5 458.341 226.8C459.041 226.1 460.141 226.1 460.841 226.8C463.341 229.3 466.041 231.7 468.841 234C470.841 232.8 472.841 231.5 474.841 230.2C475.641 229.6 476.741 229.9 477.341 230.7C477.941 231.5 477.641 232.6 476.841 233.2C475.241 234.3 473.541 235.4 471.841 236.4C472.341 237 472.441 237.9 471.841 238.6C471.241 239.4 470.141 239.6 469.341 239C469.041 238.8 468.841 238.6 468.541 238.4C467.141 239.2 465.741 240 464.341 240.8C464.141 240.8 463.841 240.8 463.541 240.8ZM67.7409 238.2C66.9409 238.2 66.2409 237.7 66.0409 236.8C65.8409 235.8 66.3409 234.9 67.3409 234.6C72.0409 233.4 76.8409 232.3 81.4409 231.4C82.4409 231.2 83.3409 231.8 83.5409 232.8C83.7409 233.8 83.1409 234.7 82.1409 234.9C77.5409 235.8 72.8409 236.9 68.1409 238.1C68.0409 238.1 67.8409 238.2 67.7409 238.2ZM167.541 235.3C167.441 235.3 167.241 235.3 167.141 235.3C162.541 234.2 157.841 233.3 153.141 232.6C152.141 232.5 151.441 231.5 151.641 230.6C151.741 229.6 152.741 228.9 153.641 229.1C158.441 229.8 163.241 230.7 167.941 231.9C168.941 232.1 169.541 233.1 169.241 234.1C169.041 234.7 168.341 235.3 167.541 235.3ZM95.9409 232.6C95.0409 232.6 94.2409 231.9 94.1409 231C94.0409 230 94.7409 229.1 95.6409 229C100.441 228.3 105.341 227.8 110.041 227.5C111.041 227.4 111.941 228.2 111.941 229.2C112.041 230.2 111.241 231.1 110.241 231.1C105.541 231.4 100.841 231.9 96.0409 232.6C96.1409 232.6 96.0409 232.6 95.9409 232.6ZM139.041 231H138.941C134.541 230.7 129.941 230.5 125.441 230.5H124.641C123.641 230.5 122.841 229.7 122.841 228.7C122.841 227.7 123.641 226.9 124.641 226.9H125.441C130.041 226.9 134.641 227.1 139.241 227.4C140.241 227.5 140.941 228.3 140.941 229.3C140.841 230.3 140.041 231 139.041 231ZM487.341 224.7C486.841 224.7 486.341 224.5 485.941 224.1C485.341 223.3 485.441 222.2 486.141 221.6C489.741 218.6 493.241 215.3 496.541 212C497.241 211.3 498.341 211.3 499.041 212C499.741 212.7 499.741 213.8 499.041 214.5C495.641 218 492.041 221.3 488.341 224.4C488.141 224.6 487.741 224.7 487.341 224.7ZM668.841 222.9C668.441 222.9 667.941 222.7 667.641 222.4C666.941 221.7 666.841 220.6 667.441 219.9C670.541 216.4 673.541 212.7 676.341 208.8C676.941 208 678.041 207.8 678.841 208.4C679.641 209 679.841 210.1 679.241 210.9C676.341 214.9 673.341 218.7 670.141 222.3C669.741 222.7 669.241 222.9 668.841 222.9ZM450.141 219C449.641 219 449.041 218.8 448.741 218.3C445.841 214.5 443.041 210.4 440.541 206.2C440.041 205.3 440.341 204.2 441.141 203.7C442.041 203.2 443.141 203.5 443.641 204.3C446.041 208.4 448.641 212.3 451.541 216.1C452.141 216.9 452.041 218 451.241 218.6C450.941 218.9 450.541 219 450.141 219ZM507.441 204.2C507.041 204.2 506.641 204.1 506.341 203.8C505.541 203.2 505.441 202 506.041 201.3L507.341 199.7C508.641 198 511.441 194.5 514.641 189.9C515.241 189.1 516.341 188.9 517.141 189.4C517.941 190 518.141 191.1 517.641 191.9C514.341 196.6 511.541 200.2 510.241 201.9L508.941 203.5C508.541 203.9 507.941 204.2 507.441 204.2ZM435.641 194.2C434.941 194.2 434.241 193.8 433.941 193.1C432.041 188.6 430.341 183.9 429.041 179.3C428.741 178.3 429.341 177.3 430.241 177.1C431.241 176.8 432.241 177.4 432.441 178.3C433.741 182.8 435.241 187.3 437.141 191.7C437.541 192.6 437.141 193.7 436.241 194.1C436.141 194.1 435.841 194.2 435.641 194.2ZM523.741 180.4C523.441 180.4 523.141 180.3 522.841 180.2C521.941 179.7 521.641 178.6 522.141 177.7C524.541 173.3 526.641 169.1 528.341 164.9C528.741 164 529.741 163.5 530.641 163.9C531.541 164.3 532.041 165.3 531.641 166.2C529.941 170.4 527.741 174.9 525.241 179.4C524.941 180.1 524.341 180.4 523.741 180.4ZM427.941 166.5C427.041 166.5 426.241 165.8 426.141 164.9C425.641 160.9 425.341 157 425.341 153.3C425.341 152.3 425.341 151.3 425.441 150.3C425.441 149.3 426.341 148.5 427.341 148.6C428.341 148.6 429.141 149.5 429.041 150.5C429.041 151.5 428.941 152.4 428.941 153.4C428.941 157 429.241 160.8 429.741 164.6C429.841 165.6 429.141 166.5 428.241 166.6C428.141 166.5 428.041 166.5 427.941 166.5ZM534.241 153.7C534.141 153.7 534.041 153.7 533.841 153.7C532.841 153.5 532.241 152.6 532.441 151.6C533.141 148.2 533.441 144.8 533.441 141.7C533.441 140.4 533.341 139.1 533.241 137.8C533.141 136.8 533.841 135.9 534.841 135.8C535.841 135.7 536.741 136.4 536.841 137.4C536.941 138.8 537.041 140.2 537.041 141.6C537.041 145 536.641 148.5 535.941 152.2C535.841 153.1 535.141 153.7 534.241 153.7ZM429.341 137.9C429.141 137.9 429.041 137.9 428.841 137.8C427.841 137.5 427.341 136.6 427.541 135.6C428.941 130.5 430.941 125.9 433.541 121.9C434.141 121.1 435.241 120.8 436.041 121.4C436.841 122 437.141 123.1 436.541 123.9C434.141 127.5 432.241 131.7 431.041 136.5C430.841 137.4 430.041 137.9 429.341 137.9ZM530.941 125.8C530.341 125.8 529.741 125.5 529.341 124.9C529.041 124.3 528.641 123.8 528.341 123.2C526.041 119.7 523.541 116.5 521.041 113.7C520.341 113 520.441 111.8 521.141 111.2C521.841 110.5 523.041 110.6 523.641 111.3C526.341 114.2 528.841 117.6 531.241 121.3C531.641 121.9 532.041 122.6 532.441 123.2C532.941 124.1 532.641 125.2 531.741 125.7C531.541 125.7 531.241 125.8 530.941 125.8ZM445.141 114.6C444.641 114.6 444.041 114.4 443.741 113.9C443.141 113.1 443.241 112 444.041 111.4C448.041 108.3 452.041 105.6 456.241 103.2C457.141 102.7 458.241 103 458.741 103.9C459.241 104.8 458.941 105.9 458.041 106.4C454.041 108.7 450.141 111.3 446.341 114.3C445.941 114.5 445.541 114.6 445.141 114.6ZM511.541 104.8C511.241 104.8 510.841 104.7 510.541 104.5C506.541 101.9 502.341 100 498.041 98.9C497.041 98.6 496.541 97.7 496.741 96.7C497.041 95.7 497.941 95.2 498.941 95.4C503.641 96.6 508.241 98.7 512.541 101.5C513.341 102 513.641 103.2 513.041 104C512.741 104.5 512.141 104.8 511.541 104.8ZM470.141 100.6C469.441 100.6 468.741 100.1 468.441 99.4C468.141 98.5 468.641 97.4 469.541 97.1C474.441 95.4 479.341 94.4 484.041 94.1C485.041 94 485.941 94.8 485.941 95.8C486.041 96.8 485.241 97.7 484.241 97.7C479.841 98 475.241 99 470.641 100.6C470.541 100.6 470.341 100.6 470.141 100.6Z" fill="#F0F0F0"/>
<path d="M554.141 254.4C553.141 254.4 552.241 253.6 552.241 252.6C552.241 251.6 553.041 250.8 553.941 250.8V252.6V250.8C558.741 250.8 563.541 250.6 568.141 250.2C569.141 250.1 570.041 250.8 570.041 251.8C570.141 252.8 569.341 253.7 568.441 253.7C563.841 254.2 558.941 254.4 554.141 254.4ZM539.641 253.8H539.541C534.741 253.4 529.941 252.9 525.141 252.1C524.141 251.9 523.441 251 523.641 250C523.841 249 524.741 248.3 525.741 248.5C530.441 249.2 535.241 249.8 539.941 250.2C540.941 250.3 541.641 251.1 541.641 252.1C541.341 253.1 540.541 253.8 539.641 253.8ZM341.341 252.5H339.941C338.941 252.5 338.141 251.7 338.141 250.7C338.141 249.7 338.941 248.9 339.941 248.9H341.241C345.641 248.9 350.041 248.8 354.241 248.7C355.141 248.6 356.041 249.4 356.141 250.4C356.141 251.4 355.441 252.2 354.441 252.3C350.241 252.4 345.841 252.5 341.341 252.5ZM325.641 252.2C325.641 252.2 325.541 252.2 325.641 252.2C320.841 252 316.041 251.8 311.141 251.4C310.141 251.3 309.441 250.5 309.441 249.5C309.541 248.5 310.341 247.8 311.341 247.8C316.141 248.1 321.041 248.4 325.641 248.6C326.641 248.6 327.441 249.5 327.341 250.5C327.341 251.4 326.541 252.2 325.641 252.2ZM582.641 251.9C581.741 251.9 581.041 251.3 580.841 250.4C580.641 249.4 581.341 248.5 582.341 248.3C587.041 247.5 591.741 246.4 596.141 245.1C597.141 244.8 598.141 245.4 598.341 246.3C598.641 247.3 598.041 248.3 597.141 248.5C592.541 249.8 587.741 250.9 582.941 251.8C582.841 251.9 582.741 251.9 582.641 251.9ZM368.841 251.4C367.941 251.4 367.141 250.7 367.041 249.7C366.941 248.7 367.741 247.8 368.641 247.8C373.441 247.4 378.241 246.9 382.841 246.3C383.841 246.2 384.741 246.9 384.841 247.8C384.941 248.8 384.241 249.7 383.341 249.8C378.641 250.4 373.841 250.9 368.941 251.3C368.941 251.4 368.841 251.4 368.841 251.4ZM296.841 250.2C296.741 250.2 296.741 250.2 296.641 250.2C291.941 249.7 287.141 249.2 282.241 248.6C281.241 248.5 280.541 247.6 280.641 246.6C280.741 245.6 281.641 244.9 282.641 245C287.441 245.6 292.241 246.1 296.941 246.6C297.941 246.7 298.641 247.6 298.541 248.6C298.541 249.5 297.841 250.2 296.841 250.2ZM511.141 249.4C511.041 249.4 510.841 249.4 510.741 249.4C506.041 248.3 501.341 247.1 496.741 245.7C495.741 245.4 495.241 244.4 495.541 243.5C495.841 242.5 496.841 242 497.741 242.3C502.241 243.7 506.941 244.9 511.541 245.9C512.541 246.1 513.141 247.1 512.941 248.1C512.741 248.8 512.041 249.4 511.141 249.4ZM397.341 247.6C396.541 247.6 395.741 247 395.541 246.1C395.341 245.1 396.041 244.2 396.941 244C401.641 243.1 406.341 242 410.841 240.9C411.841 240.6 412.741 241.2 413.041 242.2C413.341 243.2 412.741 244.1 411.741 244.4C407.141 245.6 402.441 246.7 397.541 247.6C397.541 247.6 397.441 247.6 397.341 247.6ZM268.341 246.7C268.241 246.7 268.141 246.7 268.041 246.7C263.441 246 258.641 245.3 253.741 244.5C252.741 244.3 252.141 243.4 252.241 242.4C252.441 241.4 253.341 240.8 254.341 240.9C259.141 241.7 263.941 242.4 268.541 243.1C269.541 243.2 270.241 244.2 270.041 245.1C269.941 246 269.141 246.7 268.341 246.7ZM1.84087 246.4C1.24087 246.4 0.640867 246.1 0.240867 245.5C-0.259133 244.6 0.0408669 243.5 0.940867 243.1C1.14087 243 5.84087 240.4 14.1409 236.8C15.0409 236.4 16.1409 236.8 16.5409 237.7C16.9409 238.6 16.5409 239.7 15.6409 240.1C7.54087 243.6 2.84087 246.2 2.74087 246.2C2.44087 246.3 2.14087 246.4 1.84087 246.4ZM610.241 243.9C609.541 243.9 608.841 243.5 608.541 242.8C608.141 241.9 608.641 240.8 609.541 240.5C613.941 238.7 618.241 236.7 622.341 234.4C623.241 233.9 624.341 234.2 624.741 235.1C625.241 236 624.941 237.1 624.041 237.5C619.841 239.8 615.341 241.9 610.841 243.8C610.741 243.9 610.441 243.9 610.241 243.9ZM239.841 242C239.741 242 239.641 242 239.541 242C234.941 241.2 230.141 240.2 225.341 239.3C224.341 239.1 223.741 238.2 223.941 237.2C224.141 236.2 225.041 235.6 226.041 235.8C230.841 236.8 235.541 237.7 240.141 238.5C241.141 238.7 241.741 239.6 241.541 240.6C241.541 241.3 240.741 242 239.841 242ZM483.641 241.1C483.441 241.1 483.241 241.1 483.041 241C482.441 240.8 481.841 240.5 481.241 240.3C477.341 238.7 473.441 236.9 469.741 234.9C468.841 234.4 468.541 233.3 469.041 232.5C469.541 231.6 470.641 231.3 471.441 231.8C475.041 233.8 478.741 235.5 482.541 237C483.141 237.2 483.741 237.5 484.341 237.7C485.241 238.1 485.741 239.1 485.341 240C485.041 240.6 484.341 241.1 483.641 241.1ZM425.141 240.3C424.441 240.3 423.741 239.8 423.441 239.1C423.141 238.2 423.641 237.1 424.541 236.8C429.141 235.3 433.541 233.5 437.841 231.7C438.741 231.3 439.841 231.7 440.241 232.6C440.641 233.5 440.241 234.6 439.341 235C434.941 236.9 430.441 238.7 425.741 240.2C425.541 240.3 425.341 240.3 425.141 240.3ZM211.641 236.3C211.541 236.3 211.341 236.3 211.241 236.3C206.541 235.3 201.841 234.3 197.141 233.2C196.141 233 195.541 232 195.741 231C195.941 230 196.941 229.4 197.941 229.6C202.541 230.6 207.241 231.7 211.941 232.7C212.941 232.9 213.541 233.9 213.341 234.8C213.241 235.7 212.441 236.3 211.641 236.3ZM28.2409 234.8C27.5409 234.8 26.8409 234.4 26.5409 233.6C26.2409 232.7 26.6409 231.6 27.6409 231.3C32.1409 229.6 36.7409 228 41.3409 226.6C42.2409 226.3 43.3409 226.8 43.6409 227.8C43.9409 228.7 43.4409 229.8 42.4409 230.1C37.9409 231.5 33.3409 233.1 28.9409 234.7C28.6409 234.7 28.4409 234.8 28.2409 234.8ZM635.441 230.1C634.841 230.1 634.341 229.8 633.941 229.3C633.341 228.5 633.541 227.4 634.341 226.8C638.141 224.1 641.841 221.1 645.441 217.9C646.141 217.2 647.341 217.3 647.941 218C648.641 218.7 648.541 219.9 647.841 220.5C644.241 223.8 640.341 226.8 636.441 229.6C636.141 230 635.841 230.1 635.441 230.1ZM183.541 230C183.441 230 183.241 230 183.141 230C178.341 228.9 173.741 227.8 169.141 226.7C168.141 226.5 167.541 225.5 167.841 224.5C168.041 223.5 169.041 222.9 170.041 223.2C174.641 224.3 179.341 225.4 184.041 226.5C185.041 226.7 185.641 227.7 185.341 228.7C185.141 229.5 184.341 230 183.541 230ZM451.541 228.8C450.941 228.8 450.241 228.5 449.941 227.9C449.441 227 449.741 225.9 450.641 225.5C451.641 225 452.541 224.4 453.541 223.9C451.041 221.8 448.641 219.6 446.341 217.3C445.641 216.6 445.641 215.5 446.341 214.8C447.041 214.1 448.141 214.1 448.841 214.8C451.341 217.3 454.041 219.7 456.841 222C458.841 220.8 460.841 219.5 462.841 218.2C463.641 217.6 464.741 217.9 465.341 218.7C465.941 219.5 465.641 220.6 464.841 221.2C463.241 222.3 461.541 223.4 459.841 224.4C460.341 225 460.441 225.9 459.841 226.6C459.241 227.4 458.141 227.6 457.341 227C457.041 226.8 456.841 226.6 456.541 226.4C455.141 227.2 453.741 228 452.341 228.8C452.141 228.8 451.841 228.8 451.541 228.8ZM55.7409 226.2C54.9409 226.2 54.2409 225.7 54.0409 224.8C53.8409 223.8 54.3409 222.9 55.3409 222.6C60.0409 221.4 64.8409 220.3 69.4409 219.4C70.4409 219.2 71.3409 219.8 71.5409 220.8C71.7409 221.8 71.1409 222.7 70.1409 222.9C65.5409 223.8 60.8409 224.9 56.1409 226.1C56.0409 226.1 55.8409 226.2 55.7409 226.2ZM155.541 223.3C155.441 223.3 155.241 223.3 155.141 223.3C150.541 222.2 145.841 221.3 141.141 220.6C140.141 220.5 139.441 219.5 139.641 218.6C139.741 217.6 140.741 216.9 141.641 217.1C146.441 217.8 151.241 218.7 155.941 219.9C156.941 220.1 157.541 221.1 157.241 222.1C157.041 222.7 156.341 223.3 155.541 223.3ZM83.9409 220.6C83.0409 220.6 82.2409 219.9 82.1409 219C82.0409 218 82.7409 217.1 83.6409 217C88.4409 216.3 93.3409 215.8 98.0409 215.5C99.0409 215.4 99.9409 216.2 99.9409 217.2C100.041 218.2 99.2409 219.1 98.2409 219.1C93.5409 219.4 88.8409 219.9 84.0409 220.6C84.1409 220.6 84.0409 220.6 83.9409 220.6ZM127.041 219H126.941C122.541 218.7 117.941 218.5 113.441 218.5H112.641C111.641 218.5 110.841 217.7 110.841 216.7C110.841 215.7 111.641 214.9 112.641 214.9H113.441C118.041 214.9 122.641 215.1 127.241 215.4C128.241 215.5 128.941 216.3 128.941 217.3C128.841 218.3 128.041 219 127.041 219ZM475.341 212.7C474.841 212.7 474.341 212.5 473.941 212.1C473.341 211.3 473.441 210.2 474.141 209.6C477.741 206.6 481.241 203.3 484.541 200C485.241 199.3 486.341 199.3 487.041 200C487.741 200.7 487.741 201.8 487.041 202.5C483.641 206 480.041 209.3 476.341 212.4C476.141 212.6 475.741 212.7 475.341 212.7ZM656.741 210.9C656.341 210.9 655.841 210.8 655.541 210.4C654.841 209.7 654.741 208.6 655.341 207.9C658.441 204.4 661.441 200.7 664.241 196.8C664.841 196 665.941 195.8 666.741 196.4C667.541 197 667.741 198.1 667.141 198.9C664.241 202.9 661.241 206.7 658.041 210.3C657.741 210.7 657.241 210.9 656.741 210.9ZM438.141 207C437.641 207 437.041 206.8 436.741 206.3C433.841 202.5 431.041 198.4 428.541 194.2C428.041 193.3 428.341 192.2 429.141 191.7C430.041 191.2 431.141 191.5 431.641 192.3C434.041 196.4 436.641 200.3 439.541 204.1C440.141 204.9 440.041 206 439.241 206.6C438.941 206.9 438.541 207 438.141 207ZM495.441 192.2C495.041 192.2 494.641 192.1 494.341 191.8C493.541 191.2 493.441 190 494.041 189.3L495.341 187.7C496.641 186 499.441 182.5 502.641 177.9C503.241 177.1 504.341 176.9 505.141 177.4C505.941 178 506.141 179.1 505.641 179.9C502.341 184.6 499.541 188.2 498.241 189.9L496.941 191.5C496.541 191.9 495.941 192.2 495.441 192.2ZM423.641 182.2C422.941 182.2 422.241 181.8 421.941 181.1C420.041 176.6 418.341 171.9 417.041 167.3C416.741 166.3 417.341 165.3 418.241 165.1C419.241 164.8 420.241 165.4 420.441 166.3C421.741 170.8 423.241 175.3 425.141 179.7C425.541 180.6 425.141 181.7 424.241 182.1C424.141 182.1 423.841 182.2 423.641 182.2ZM511.741 168.4C511.441 168.4 511.141 168.3 510.841 168.2C509.941 167.7 509.641 166.6 510.141 165.7C512.541 161.3 514.641 157.1 516.341 152.9C516.741 152 517.741 151.5 518.641 151.9C519.541 152.3 520.041 153.3 519.641 154.2C517.941 158.4 515.741 162.9 513.241 167.4C512.941 168.1 512.341 168.4 511.741 168.4ZM415.941 154.5C415.041 154.5 414.241 153.8 414.141 152.9C413.641 148.9 413.341 145 413.341 141.3C413.341 140.3 413.341 139.3 413.441 138.3C413.441 137.3 414.341 136.5 415.341 136.6C416.341 136.6 417.141 137.5 417.041 138.5C417.041 139.5 416.941 140.4 416.941 141.4C416.941 145 417.241 148.8 417.741 152.6C417.841 153.6 417.141 154.5 416.241 154.6C416.141 154.5 416.041 154.5 415.941 154.5ZM522.241 141.7C522.141 141.7 522.041 141.7 521.841 141.7C520.841 141.5 520.241 140.6 520.441 139.6C521.141 136.2 521.441 132.8 521.441 129.7C521.441 128.4 521.341 127.1 521.241 125.8C521.141 124.8 521.841 123.9 522.841 123.8C523.841 123.7 524.741 124.4 524.841 125.4C524.941 126.8 525.041 128.2 525.041 129.6C525.041 133 524.641 136.5 523.941 140.2C523.841 141.1 523.141 141.7 522.241 141.7ZM417.341 125.9C417.141 125.9 417.041 125.9 416.841 125.8C415.841 125.5 415.341 124.6 415.541 123.6C416.941 118.5 418.941 113.9 421.541 109.9C422.141 109.1 423.241 108.8 424.041 109.4C424.841 110 425.141 111.1 424.541 111.9C422.141 115.5 420.241 119.7 419.041 124.5C418.841 125.4 418.041 125.9 417.341 125.9ZM518.941 113.8C518.341 113.8 517.741 113.5 517.341 112.9C517.041 112.3 516.641 111.8 516.341 111.2C514.041 107.7 511.541 104.5 509.041 101.7C508.341 101 508.441 99.8 509.141 99.2C509.841 98.5 511.041 98.6 511.641 99.3C514.341 102.2 516.841 105.6 519.241 109.3C519.641 109.9 520.041 110.6 520.441 111.2C520.941 112.1 520.641 113.2 519.741 113.7C519.541 113.7 519.241 113.8 518.941 113.8ZM433.141 102.6C432.641 102.6 432.041 102.4 431.741 101.9C431.141 101.1 431.241 100 432.041 99.4C436.041 96.3 440.041 93.6 444.241 91.2C445.141 90.7 446.241 91 446.741 91.9C447.241 92.8 446.941 93.9 446.041 94.4C442.041 96.7 438.141 99.3 434.341 102.3C433.941 102.5 433.541 102.6 433.141 102.6ZM499.541 92.8C499.241 92.8 498.841 92.7 498.541 92.5C494.541 89.9 490.341 88 486.041 86.9C485.041 86.6 484.541 85.7 484.741 84.7C485.041 83.7 485.941 83.2 486.941 83.4C491.641 84.6 496.241 86.7 500.541 89.5C501.341 90 501.641 91.2 501.041 92C500.741 92.5 500.141 92.8 499.541 92.8ZM458.141 88.6C457.441 88.6 456.741 88.1 456.441 87.4C456.141 86.5 456.641 85.4 457.541 85.1C462.441 83.4 467.341 82.4 472.041 82.1C473.041 82 473.941 82.8 473.941 83.8C474.041 84.8 473.241 85.7 472.241 85.7C467.841 86 463.241 87 458.641 88.6C458.541 88.6 458.341 88.6 458.141 88.6Z" fill="#EEEEEE"/>
<path d="M836.241 56.3C874.141 82.9 868.741 156.2 824.041 220C779.341 283.8 712.341 314.1 674.441 287.5C636.541 260.9 641.941 187.6 686.641 123.8C731.341 60 798.241 29.7 836.241 56.3Z" fill="url(#paint0_radial)"/>
<g filter="url(#filter0_d)">
<path d="M813.841 10L610.041 77.5L673.941 106.8L813.841 10Z" fill="white"/>
</g>
<path d="M673.941 106.8L678.041 182.8L813.841 10L673.941 106.8Z" fill="#ACEAFD"/>
<path d="M678.041 182.8L699.941 127.2L813.841 10L678.041 182.8Z" fill="#9AB7BE"/>
<path d="M813.841 10L753.341 179.5L699.941 127.2L813.841 10Z" fill="white"/>
<defs>
<filter id="filter0_d" x="590.041" y="0" width="243.8" height="136.8" filterUnits="userSpaceOnUse" color-interpolation-filters="sRGB">
<feFlood flood-opacity="0" result="BackgroundImageFix"/>
<feColorMatrix in="SourceAlpha" type="matrix" values="0 0 0 0 0 0 0 0 0 0 0 0 0 0 0 0 0 0 127 0"/>
<feOffset dy="10"/>
<feGaussianBlur stdDeviation="10"/>
<feColorMatrix type="matrix" values="0 0 0 0 0 0 0 0 0 0 0 0 0 0 0 0 0 0 0.08 0"/>
<feBlend mode="normal" in2="BackgroundImageFix" result="effect1_dropShadow"/>
<feBlend mode="normal" in="SourceGraphic" in2="effect1_dropShadow" result="shape"/>
</filter>
<radialGradient id="paint0_radial" cx="0" cy="0" r="1" gradientUnits="userSpaceOnUse" gradientTransform="translate(755.274 171.867) rotate(-55.005) scale(141.103 83.8689)">
<stop stop-color="#CCCCCC"/>
<stop offset="0.2582" stop-color="#D2D2D2" stop-opacity="0.7418"/>
<stop offset="0.596" stop-color="#E2E2E2" stop-opacity="0.404"/>
<stop offset="0.9766" stop-color="#FDFDFD" stop-opacity="0.0234459"/>
<stop offset="1" stop-color="white" stop-opacity="0"/>
</radialGradient>
</defs>
</svg>
