<svg width="862" height="326" viewBox="0 0 862 326" fill="none" xmlns="http://www.w3.org/2000/svg">
<path opacity="0.4" d="M295.326 294.4C296.326 294.4 297.226 293.6 297.226 292.6C297.226 291.6 296.426 290.8 295.526 290.8V292.6V290.8C290.726 290.8 285.926 290.6 281.326 290.2C280.326 290.1 279.426 290.8 279.426 291.8C279.326 292.8 280.126 293.7 281.026 293.7C285.626 294.2 290.526 294.4 295.326 294.4ZM309.826 293.8H309.926C314.726 293.4 319.526 292.9 324.326 292.1C325.326 291.9 326.026 291 325.826 290C325.626 289 324.726 288.3 323.726 288.5C319.026 289.2 314.226 289.8 309.526 290.2C308.526 290.3 307.826 291.1 307.826 292.1C308.126 293.1 308.926 293.8 309.826 293.8ZM508.126 292.5H509.526C510.526 292.5 511.326 291.7 511.326 290.7C511.326 289.7 510.526 288.9 509.526 288.9H508.126C503.726 288.9 499.326 288.8 495.126 288.7C494.226 288.6 493.326 289.4 493.226 290.4C493.226 291.4 493.926 292.2 494.926 292.3C499.226 292.4 503.626 292.5 508.126 292.5ZM523.826 292.2C523.826 292.2 523.926 292.2 523.826 292.2C528.626 292 533.426 291.8 538.326 291.4C539.326 291.3 540.026 290.5 540.026 289.5C539.926 288.5 539.126 287.8 538.126 287.8C533.326 288.1 528.426 288.4 523.826 288.6C522.826 288.6 522.026 289.5 522.126 290.5C522.126 291.4 522.926 292.2 523.826 292.2ZM266.826 291.9C267.726 291.9 268.426 291.3 268.626 290.4C268.826 289.4 268.126 288.5 267.126 288.3C262.426 287.5 257.726 286.4 253.326 285.1C252.326 284.8 251.326 285.4 251.126 286.3C250.826 287.3 251.426 288.3 252.326 288.5C256.926 289.8 261.726 290.9 266.526 291.8C266.626 291.9 266.726 291.9 266.826 291.9ZM480.626 291.4C481.526 291.4 482.326 290.7 482.426 289.7C482.526 288.7 481.726 287.8 480.826 287.8C476.026 287.4 471.226 286.9 466.626 286.3C465.626 286.2 464.726 286.9 464.626 287.8C464.526 288.8 465.226 289.7 466.126 289.8C470.826 290.4 475.626 290.9 480.526 291.3C480.526 291.4 480.626 291.4 480.626 291.4ZM552.626 290.2C552.726 290.2 552.726 290.2 552.826 290.2C557.526 289.7 562.326 289.2 567.226 288.6C568.226 288.5 568.926 287.6 568.826 286.6C568.726 285.6 567.826 284.9 566.826 285C562.026 285.6 557.226 286.1 552.526 286.6C551.526 286.7 550.826 287.6 550.926 288.6C550.926 289.5 551.626 290.2 552.626 290.2ZM338.326 289.4C338.426 289.4 338.626 289.4 338.726 289.4C343.426 288.3 348.126 287.1 352.726 285.7C353.726 285.4 354.226 284.4 353.926 283.5C353.626 282.5 352.626 282 351.726 282.3C347.226 283.7 342.526 284.9 337.926 285.9C336.926 286.1 336.326 287.1 336.526 288.1C336.726 288.8 337.426 289.4 338.326 289.4ZM452.126 287.6C452.926 287.6 453.726 287 453.926 286.1C454.126 285.1 453.426 284.2 452.526 284C447.826 283.1 443.126 282 438.626 280.9C437.626 280.6 436.726 281.2 436.426 282.2C436.126 283.2 436.726 284.1 437.726 284.4C442.326 285.6 447.026 286.7 451.926 287.6C451.926 287.6 452.026 287.6 452.126 287.6ZM581.126 286.7C581.226 286.7 581.326 286.7 581.426 286.7C586.026 286 590.826 285.3 595.726 284.5C596.726 284.3 597.326 283.4 597.226 282.4C597.026 281.4 596.126 280.8 595.126 280.9C590.326 281.7 585.526 282.4 580.926 283.1C579.926 283.2 579.226 284.2 579.426 285.1C579.526 286 580.326 286.7 581.126 286.7ZM847.626 286.4C848.226 286.4 848.826 286.1 849.226 285.5C849.726 284.6 849.426 283.5 848.526 283.1C848.326 283 843.626 280.4 835.326 276.8C834.426 276.4 833.326 276.8 832.926 277.7C832.526 278.6 832.926 279.7 833.826 280.1C841.926 283.6 846.626 286.2 846.726 286.2C847.026 286.3 847.326 286.4 847.626 286.4ZM239.226 283.9C239.926 283.9 240.626 283.5 240.926 282.8C241.326 281.9 240.826 280.8 239.926 280.5C235.526 278.7 231.226 276.7 227.126 274.4C226.226 273.9 225.126 274.2 224.726 275.1C224.226 276 224.526 277.1 225.426 277.5C229.626 279.8 234.126 281.9 238.626 283.8C238.726 283.9 239.026 283.9 239.226 283.9ZM609.626 282C609.726 282 609.826 282 609.926 282C614.526 281.2 619.326 280.2 624.126 279.3C625.126 279.1 625.726 278.2 625.526 277.2C625.326 276.2 624.426 275.6 623.426 275.8C618.626 276.8 613.926 277.7 609.326 278.5C608.326 278.7 607.726 279.6 607.926 280.6C607.926 281.3 608.726 282 609.626 282ZM365.826 281.1C366.026 281.1 366.226 281.1 366.426 281C367.026 280.8 367.626 280.5 368.226 280.3C372.126 278.7 376.026 276.9 379.726 274.9C380.626 274.4 380.926 273.3 380.426 272.5C379.926 271.6 378.826 271.3 378.026 271.8C374.426 273.8 370.726 275.5 366.926 277C366.326 277.2 365.726 277.5 365.126 277.7C364.226 278.1 363.726 279.1 364.126 280C364.426 280.6 365.126 281.1 365.826 281.1ZM424.326 280.3C425.026 280.3 425.726 279.8 426.026 279.1C426.326 278.2 425.826 277.1 424.926 276.8C420.326 275.3 415.926 273.5 411.626 271.7C410.726 271.3 409.626 271.7 409.226 272.6C408.826 273.5 409.226 274.6 410.126 275C414.526 276.9 419.026 278.7 423.726 280.2C423.926 280.3 424.126 280.3 424.326 280.3ZM637.826 276.3C637.926 276.3 638.126 276.3 638.226 276.3C642.926 275.3 647.626 274.3 652.326 273.2C653.326 273 653.926 272 653.726 271C653.526 270 652.526 269.4 651.526 269.6C646.926 270.6 642.226 271.7 637.526 272.7C636.526 272.9 635.926 273.9 636.126 274.8C636.226 275.7 637.026 276.3 637.826 276.3ZM821.226 274.8C821.926 274.8 822.626 274.4 822.926 273.6C823.226 272.7 822.826 271.6 821.826 271.3C817.326 269.6 812.726 268 808.126 266.6C807.226 266.3 806.126 266.8 805.826 267.8C805.526 268.7 806.026 269.8 807.026 270.1C811.526 271.5 816.126 273.1 820.526 274.7C820.826 274.7 821.026 274.8 821.226 274.8ZM214.026 270.1C214.626 270.1 215.126 269.8 215.526 269.3C216.126 268.5 215.926 267.4 215.126 266.8C211.326 264.1 207.626 261.1 204.026 257.9C203.326 257.2 202.126 257.3 201.526 258C200.826 258.7 200.926 259.9 201.626 260.5C205.226 263.8 209.126 266.8 213.026 269.6C213.326 270 213.626 270.1 214.026 270.1ZM665.926 270C666.026 270 666.226 270 666.326 270C671.126 268.9 675.726 267.8 680.326 266.7C681.326 266.5 681.926 265.5 681.626 264.5C681.426 263.5 680.426 262.9 679.426 263.2C674.826 264.3 670.126 265.4 665.426 266.5C664.426 266.7 663.826 267.7 664.126 268.7C664.326 269.5 665.126 270 665.926 270ZM397.926 268.8C398.526 268.8 399.226 268.5 399.526 267.9C400.026 267 399.726 265.9 398.826 265.5C397.826 265 396.926 264.4 395.926 263.9C398.426 261.8 400.826 259.6 403.126 257.3C403.826 256.6 403.826 255.5 403.126 254.8C402.426 254.1 401.326 254.1 400.626 254.8C398.126 257.3 395.426 259.7 392.626 262C390.626 260.8 388.626 259.5 386.626 258.2C385.826 257.6 384.726 257.9 384.126 258.7C383.526 259.5 383.826 260.6 384.626 261.2C386.226 262.3 387.926 263.4 389.626 264.4C389.126 265 389.026 265.9 389.626 266.6C390.226 267.4 391.326 267.6 392.126 267C392.426 266.8 392.626 266.6 392.926 266.4C394.326 267.2 395.726 268 397.126 268.8C397.326 268.8 397.626 268.8 397.926 268.8ZM793.726 266.2C794.526 266.2 795.226 265.7 795.426 264.8C795.626 263.8 795.126 262.9 794.126 262.6C789.426 261.4 784.626 260.3 780.026 259.4C779.026 259.2 778.126 259.8 777.926 260.8C777.726 261.8 778.326 262.7 779.326 262.9C783.926 263.8 788.626 264.9 793.326 266.1C793.426 266.1 793.626 266.2 793.726 266.2ZM693.926 263.3C694.026 263.3 694.226 263.3 694.326 263.3C698.926 262.2 703.626 261.3 708.326 260.6C709.326 260.5 710.026 259.5 709.826 258.6C709.726 257.6 708.726 256.9 707.826 257.1C703.026 257.8 698.226 258.7 693.526 259.9C692.526 260.1 691.926 261.1 692.226 262.1C692.426 262.7 693.126 263.3 693.926 263.3ZM765.526 260.6C766.426 260.6 767.226 259.9 767.326 259C767.426 258 766.726 257.1 765.826 257C761.026 256.3 756.126 255.8 751.426 255.5C750.426 255.4 749.526 256.2 749.526 257.2C749.426 258.2 750.226 259.1 751.226 259.1C755.926 259.4 760.626 259.9 765.426 260.6C765.326 260.6 765.426 260.6 765.526 260.6ZM722.426 259H722.526C726.926 258.7 731.526 258.5 736.026 258.5H736.826C737.826 258.5 738.626 257.7 738.626 256.7C738.626 255.7 737.826 254.9 736.826 254.9H736.026C731.426 254.9 726.826 255.1 722.226 255.4C721.226 255.5 720.526 256.3 720.526 257.3C720.626 258.3 721.426 259 722.426 259ZM374.126 252.7C374.626 252.7 375.126 252.5 375.526 252.1C376.126 251.3 376.026 250.2 375.326 249.6C371.726 246.6 368.226 243.3 364.926 240C364.226 239.3 363.126 239.3 362.426 240C361.726 240.7 361.726 241.8 362.426 242.5C365.826 246 369.426 249.3 373.126 252.4C373.326 252.6 373.726 252.7 374.126 252.7ZM192.626 250.9C193.026 250.9 193.526 250.7 193.826 250.4C194.526 249.7 194.626 248.6 194.026 247.9C190.926 244.4 187.926 240.7 185.126 236.8C184.526 236 183.426 235.8 182.626 236.4C181.826 237 181.626 238.1 182.226 238.9C185.126 242.9 188.126 246.7 191.326 250.3C191.726 250.7 192.226 250.9 192.626 250.9ZM411.326 247C411.826 247 412.426 246.8 412.726 246.3C415.626 242.5 418.426 238.4 420.926 234.2C421.426 233.3 421.126 232.2 420.326 231.7C419.426 231.2 418.326 231.5 417.826 232.3C415.426 236.4 412.826 240.3 409.926 244.1C409.326 244.9 409.426 246 410.226 246.6C410.526 246.9 410.926 247 411.326 247ZM354.026 232.2C354.426 232.2 354.826 232.1 355.126 231.8C355.926 231.2 356.026 230 355.426 229.3L354.126 227.7C352.826 226 350.026 222.5 346.826 217.9C346.226 217.1 345.126 216.9 344.326 217.4C343.526 218 343.326 219.1 343.826 219.9C347.126 224.6 349.926 228.2 351.226 229.9L352.526 231.5C352.926 231.9 353.526 232.2 354.026 232.2ZM425.826 222.2C426.526 222.2 427.226 221.8 427.526 221.1C429.426 216.6 431.126 211.9 432.426 207.3C432.726 206.3 432.126 205.3 431.226 205.1C430.226 204.8 429.226 205.4 429.026 206.3C427.726 210.8 426.226 215.3 424.326 219.7C423.926 220.6 424.326 221.7 425.226 222.1C425.326 222.1 425.626 222.2 425.826 222.2ZM337.726 208.4C338.026 208.4 338.326 208.3 338.626 208.2C339.526 207.7 339.826 206.6 339.326 205.7C336.926 201.3 334.826 197.1 333.126 192.9C332.726 192 331.726 191.5 330.826 191.9C329.926 192.3 329.426 193.3 329.826 194.2C331.526 198.4 333.726 202.9 336.226 207.4C336.526 208.1 337.126 208.4 337.726 208.4ZM433.526 194.5C434.426 194.5 435.226 193.8 435.326 192.9C435.826 188.9 436.126 185 436.126 181.3C436.126 180.3 436.126 179.3 436.026 178.3C436.026 177.3 435.126 176.5 434.126 176.6C433.126 176.6 432.326 177.5 432.426 178.5C432.426 179.5 432.526 180.4 432.526 181.4C432.526 185 432.226 188.8 431.726 192.6C431.626 193.6 432.326 194.5 433.226 194.6C433.326 194.5 433.426 194.5 433.526 194.5ZM327.226 181.7C327.326 181.7 327.426 181.7 327.626 181.7C328.626 181.5 329.226 180.6 329.026 179.6C328.326 176.2 328.026 172.8 328.026 169.7C328.026 168.4 328.126 167.1 328.226 165.8C328.326 164.8 327.626 163.9 326.626 163.8C325.626 163.7 324.726 164.4 324.626 165.4C324.526 166.8 324.426 168.2 324.426 169.6C324.426 173 324.826 176.5 325.526 180.2C325.626 181.1 326.326 181.7 327.226 181.7ZM432.126 165.9C432.326 165.9 432.426 165.9 432.626 165.8C433.626 165.5 434.126 164.6 433.926 163.6C432.526 158.5 430.526 153.9 427.926 149.9C427.326 149.1 426.226 148.8 425.426 149.4C424.626 150 424.326 151.1 424.926 151.9C427.326 155.5 429.226 159.7 430.426 164.5C430.626 165.4 431.426 165.9 432.126 165.9ZM330.526 153.8C331.126 153.8 331.726 153.5 332.126 152.9C332.426 152.3 332.826 151.8 333.126 151.2C335.426 147.7 337.926 144.5 340.426 141.7C341.126 141 341.026 139.8 340.326 139.2C339.626 138.5 338.426 138.6 337.826 139.3C335.126 142.2 332.626 145.6 330.226 149.3C329.826 149.9 329.426 150.6 329.026 151.2C328.526 152.1 328.826 153.2 329.726 153.7C329.926 153.7 330.226 153.8 330.526 153.8ZM416.326 142.6C416.826 142.6 417.426 142.4 417.726 141.9C418.326 141.1 418.226 140 417.426 139.4C413.426 136.3 409.426 133.6 405.226 131.2C404.326 130.7 403.226 131 402.726 131.9C402.226 132.8 402.526 133.9 403.426 134.4C407.426 136.7 411.326 139.3 415.126 142.3C415.526 142.5 415.926 142.6 416.326 142.6ZM349.926 132.8C350.226 132.8 350.626 132.7 350.926 132.5C354.926 129.9 359.126 128 363.426 126.9C364.426 126.6 364.926 125.7 364.726 124.7C364.426 123.7 363.526 123.2 362.526 123.4C357.826 124.6 353.226 126.7 348.926 129.5C348.126 130 347.826 131.2 348.426 132C348.726 132.5 349.326 132.8 349.926 132.8ZM391.326 128.6C392.026 128.6 392.726 128.1 393.026 127.4C393.326 126.5 392.826 125.4 391.926 125.1C387.026 123.4 382.126 122.4 377.426 122.1C376.426 122 375.526 122.8 375.526 123.8C375.426 124.8 376.226 125.7 377.226 125.7C381.626 126 386.226 127 390.826 128.6C390.926 128.6 391.126 128.6 391.326 128.6Z" fill="#F0F0F0"/>
<path d="M307.326 282.4C308.326 282.4 309.226 281.6 309.226 280.6C309.226 279.6 308.426 278.8 307.526 278.8V280.6V278.8C302.726 278.8 297.926 278.6 293.326 278.2C292.326 278.1 291.426 278.8 291.426 279.8C291.326 280.8 292.126 281.7 293.026 281.7C297.626 282.2 302.526 282.4 307.326 282.4ZM321.826 281.8H321.926C326.726 281.4 331.526 280.9 336.326 280.1C337.326 279.9 338.026 279 337.826 278C337.626 277 336.726 276.3 335.726 276.5C331.026 277.2 326.226 277.8 321.526 278.2C320.526 278.3 319.826 279.1 319.826 280.1C320.126 281.1 320.926 281.8 321.826 281.8ZM520.126 280.5H521.526C522.526 280.5 523.326 279.7 523.326 278.7C523.326 277.7 522.526 276.9 521.526 276.9H520.226C515.826 276.9 511.426 276.8 507.226 276.7C506.326 276.6 505.426 277.4 505.326 278.4C505.326 279.4 506.026 280.2 507.026 280.3C511.226 280.4 515.626 280.5 520.126 280.5ZM535.826 280.2C535.826 280.2 535.926 280.2 535.826 280.2C540.626 280 545.426 279.8 550.326 279.4C551.326 279.3 552.026 278.5 552.026 277.5C551.926 276.5 551.126 275.8 550.126 275.8C545.326 276.1 540.426 276.4 535.826 276.6C534.826 276.6 534.026 277.5 534.126 278.5C534.126 279.4 534.926 280.2 535.826 280.2ZM278.826 279.9C279.726 279.9 280.426 279.3 280.626 278.4C280.826 277.4 280.126 276.5 279.126 276.3C274.426 275.5 269.726 274.4 265.326 273.1C264.326 272.8 263.326 273.4 263.126 274.3C262.826 275.3 263.426 276.3 264.326 276.5C268.926 277.8 273.726 278.9 278.526 279.8C278.626 279.9 278.726 279.9 278.826 279.9ZM492.626 279.4C493.526 279.4 494.326 278.7 494.426 277.7C494.526 276.7 493.726 275.8 492.826 275.8C488.026 275.4 483.226 274.9 478.626 274.3C477.626 274.2 476.726 274.9 476.626 275.8C476.526 276.8 477.226 277.7 478.126 277.8C482.826 278.4 487.626 278.9 492.526 279.3C492.526 279.4 492.626 279.4 492.626 279.4ZM564.626 278.2C564.726 278.2 564.726 278.2 564.826 278.2C569.526 277.7 574.326 277.2 579.226 276.6C580.226 276.5 580.926 275.6 580.826 274.6C580.726 273.6 579.826 272.9 578.826 273C574.026 273.6 569.226 274.1 564.526 274.6C563.526 274.7 562.826 275.6 562.926 276.6C562.926 277.5 563.626 278.2 564.626 278.2ZM350.326 277.4C350.426 277.4 350.626 277.4 350.726 277.4C355.426 276.3 360.126 275.1 364.726 273.7C365.726 273.4 366.226 272.4 365.926 271.5C365.626 270.5 364.626 270 363.726 270.3C359.226 271.7 354.526 272.9 349.926 273.9C348.926 274.1 348.326 275.1 348.526 276.1C348.726 276.8 349.426 277.4 350.326 277.4ZM464.126 275.6C464.926 275.6 465.726 275 465.926 274.1C466.126 273.1 465.426 272.2 464.526 272C459.826 271.1 455.126 270 450.626 268.9C449.626 268.6 448.726 269.2 448.426 270.2C448.126 271.2 448.726 272.1 449.726 272.4C454.326 273.6 459.026 274.7 463.926 275.6C463.926 275.6 464.026 275.6 464.126 275.6ZM593.126 274.7C593.226 274.7 593.326 274.7 593.426 274.7C598.026 274 602.826 273.3 607.726 272.5C608.726 272.3 609.326 271.4 609.226 270.4C609.026 269.4 608.126 268.8 607.126 268.9C602.326 269.7 597.526 270.4 592.926 271.1C591.926 271.2 591.226 272.2 591.426 273.1C591.526 274 592.326 274.7 593.126 274.7ZM859.626 274.4C860.226 274.4 860.826 274.1 861.226 273.5C861.726 272.6 861.426 271.5 860.526 271.1C860.326 271 855.626 268.4 847.326 264.8C846.426 264.4 845.326 264.8 844.926 265.7C844.526 266.6 844.926 267.7 845.826 268.1C853.926 271.6 858.626 274.2 858.726 274.2C859.026 274.3 859.326 274.4 859.626 274.4ZM251.226 271.9C251.926 271.9 252.626 271.5 252.926 270.8C253.326 269.9 252.826 268.8 251.926 268.5C247.526 266.7 243.226 264.7 239.126 262.4C238.226 261.9 237.126 262.2 236.726 263.1C236.226 264 236.526 265.1 237.426 265.5C241.626 267.8 246.126 269.9 250.626 271.8C250.726 271.9 251.026 271.9 251.226 271.9ZM621.626 270C621.726 270 621.826 270 621.926 270C626.526 269.2 631.326 268.2 636.126 267.3C637.126 267.1 637.726 266.2 637.526 265.2C637.326 264.2 636.426 263.6 635.426 263.8C630.626 264.8 625.926 265.7 621.326 266.5C620.326 266.7 619.726 267.6 619.926 268.6C619.926 269.3 620.726 270 621.626 270ZM377.826 269.1C378.026 269.1 378.226 269.1 378.426 269C379.026 268.8 379.626 268.5 380.226 268.3C384.126 266.7 388.026 264.9 391.726 262.9C392.626 262.4 392.926 261.3 392.426 260.5C391.926 259.6 390.826 259.3 390.026 259.8C386.426 261.8 382.726 263.5 378.926 265C378.326 265.2 377.726 265.5 377.126 265.7C376.226 266.1 375.726 267.1 376.126 268C376.426 268.6 377.126 269.1 377.826 269.1ZM436.326 268.3C437.026 268.3 437.726 267.8 438.026 267.1C438.326 266.2 437.826 265.1 436.926 264.8C432.326 263.3 427.926 261.5 423.626 259.7C422.726 259.3 421.626 259.7 421.226 260.6C420.826 261.5 421.226 262.6 422.126 263C426.526 264.9 431.026 266.7 435.726 268.2C435.926 268.3 436.126 268.3 436.326 268.3ZM649.826 264.3C649.926 264.3 650.126 264.3 650.226 264.3C654.926 263.3 659.626 262.3 664.326 261.2C665.326 261 665.926 260 665.726 259C665.526 258 664.526 257.4 663.526 257.6C658.926 258.6 654.226 259.7 649.526 260.7C648.526 260.9 647.926 261.9 648.126 262.8C648.226 263.7 649.026 264.3 649.826 264.3ZM833.226 262.8C833.926 262.8 834.626 262.4 834.926 261.6C835.226 260.7 834.826 259.6 833.826 259.3C829.326 257.6 824.726 256 820.126 254.6C819.226 254.3 818.126 254.8 817.826 255.8C817.526 256.7 818.026 257.8 819.026 258.1C823.526 259.5 828.126 261.1 832.526 262.7C832.826 262.7 833.026 262.8 833.226 262.8ZM226.026 258.1C226.626 258.1 227.126 257.8 227.526 257.3C228.126 256.5 227.926 255.4 227.126 254.8C223.326 252.1 219.626 249.1 216.026 245.9C215.326 245.2 214.126 245.3 213.526 246C212.826 246.7 212.926 247.9 213.626 248.5C217.226 251.8 221.126 254.8 225.026 257.6C225.326 258 225.626 258.1 226.026 258.1ZM677.926 258C678.026 258 678.226 258 678.326 258C683.126 256.9 687.726 255.8 692.326 254.7C693.326 254.5 693.926 253.5 693.626 252.5C693.426 251.5 692.426 250.9 691.426 251.2C686.826 252.3 682.126 253.4 677.426 254.5C676.426 254.7 675.826 255.7 676.126 256.7C676.326 257.5 677.126 258 677.926 258ZM409.926 256.8C410.526 256.8 411.226 256.5 411.526 255.9C412.026 255 411.726 253.9 410.826 253.5C409.826 253 408.926 252.4 407.926 251.9C410.426 249.8 412.826 247.6 415.126 245.3C415.826 244.6 415.826 243.5 415.126 242.8C414.426 242.1 413.326 242.1 412.626 242.8C410.126 245.3 407.426 247.7 404.626 250C402.626 248.8 400.626 247.5 398.626 246.2C397.826 245.6 396.726 245.9 396.126 246.7C395.526 247.5 395.826 248.6 396.626 249.2C398.226 250.3 399.926 251.4 401.626 252.4C401.126 253 401.026 253.9 401.626 254.6C402.226 255.4 403.326 255.6 404.126 255C404.426 254.8 404.626 254.6 404.926 254.4C406.326 255.2 407.726 256 409.126 256.8C409.326 256.8 409.626 256.8 409.926 256.8ZM805.726 254.2C806.526 254.2 807.226 253.7 807.426 252.8C807.626 251.8 807.126 250.9 806.126 250.6C801.426 249.4 796.626 248.3 792.026 247.4C791.026 247.2 790.126 247.8 789.926 248.8C789.726 249.8 790.326 250.7 791.326 250.9C795.926 251.8 800.626 252.9 805.326 254.1C805.426 254.1 805.626 254.2 805.726 254.2ZM705.926 251.3C706.026 251.3 706.226 251.3 706.326 251.3C710.926 250.2 715.626 249.3 720.326 248.6C721.326 248.5 722.026 247.5 721.826 246.6C721.726 245.6 720.726 244.9 719.826 245.1C715.026 245.8 710.226 246.7 705.526 247.9C704.526 248.1 703.926 249.1 704.226 250.1C704.426 250.7 705.126 251.3 705.926 251.3ZM777.526 248.6C778.426 248.6 779.226 247.9 779.326 247C779.426 246 778.726 245.1 777.826 245C773.026 244.3 768.126 243.8 763.426 243.5C762.426 243.4 761.526 244.2 761.526 245.2C761.426 246.2 762.226 247.1 763.226 247.1C767.926 247.4 772.626 247.9 777.426 248.6C777.326 248.6 777.426 248.6 777.526 248.6ZM734.426 247H734.526C738.926 246.7 743.526 246.5 748.026 246.5H748.826C749.826 246.5 750.626 245.7 750.626 244.7C750.626 243.7 749.826 242.9 748.826 242.9H748.026C743.426 242.9 738.826 243.1 734.226 243.4C733.226 243.5 732.526 244.3 732.526 245.3C732.626 246.3 733.426 247 734.426 247ZM386.126 240.7C386.626 240.7 387.126 240.5 387.526 240.1C388.126 239.3 388.026 238.2 387.326 237.6C383.726 234.6 380.226 231.3 376.926 228C376.226 227.3 375.126 227.3 374.426 228C373.726 228.7 373.726 229.8 374.426 230.5C377.826 234 381.426 237.3 385.126 240.4C385.326 240.6 385.726 240.7 386.126 240.7ZM204.726 238.9C205.126 238.9 205.626 238.8 205.926 238.4C206.626 237.7 206.726 236.6 206.126 235.9C203.026 232.4 200.026 228.7 197.226 224.8C196.626 224 195.526 223.8 194.726 224.4C193.926 225 193.726 226.1 194.326 226.9C197.226 230.9 200.226 234.7 203.426 238.3C203.726 238.7 204.226 238.9 204.726 238.9ZM423.326 235C423.826 235 424.426 234.8 424.726 234.3C427.626 230.5 430.426 226.4 432.926 222.2C433.426 221.3 433.126 220.2 432.326 219.7C431.426 219.2 430.326 219.5 429.826 220.3C427.426 224.4 424.826 228.3 421.926 232.1C421.326 232.9 421.426 234 422.226 234.6C422.526 234.9 422.926 235 423.326 235ZM366.026 220.2C366.426 220.2 366.826 220.1 367.126 219.8C367.926 219.2 368.026 218 367.426 217.3L366.126 215.7C364.826 214 362.026 210.5 358.826 205.9C358.226 205.1 357.126 204.9 356.326 205.4C355.526 206 355.326 207.1 355.826 207.9C359.126 212.6 361.926 216.2 363.226 217.9L364.526 219.5C364.926 219.9 365.526 220.2 366.026 220.2ZM437.826 210.2C438.526 210.2 439.226 209.8 439.526 209.1C441.426 204.6 443.126 199.9 444.426 195.3C444.726 194.3 444.126 193.3 443.226 193.1C442.226 192.8 441.226 193.4 441.026 194.3C439.726 198.8 438.226 203.3 436.326 207.7C435.926 208.6 436.326 209.7 437.226 210.1C437.326 210.1 437.626 210.2 437.826 210.2ZM349.726 196.4C350.026 196.4 350.326 196.3 350.626 196.2C351.526 195.7 351.826 194.6 351.326 193.7C348.926 189.3 346.826 185.1 345.126 180.9C344.726 180 343.726 179.5 342.826 179.9C341.926 180.3 341.426 181.3 341.826 182.2C343.526 186.4 345.726 190.9 348.226 195.4C348.526 196.1 349.126 196.4 349.726 196.4ZM445.526 182.5C446.426 182.5 447.226 181.8 447.326 180.9C447.826 176.9 448.126 173 448.126 169.3C448.126 168.3 448.126 167.3 448.026 166.3C448.026 165.3 447.126 164.5 446.126 164.6C445.126 164.6 444.326 165.5 444.426 166.5C444.426 167.5 444.526 168.4 444.526 169.4C444.526 173 444.226 176.8 443.726 180.6C443.626 181.6 444.326 182.5 445.226 182.6C445.326 182.5 445.426 182.5 445.526 182.5ZM339.226 169.7C339.326 169.7 339.426 169.7 339.626 169.7C340.626 169.5 341.226 168.6 341.026 167.6C340.326 164.2 340.026 160.8 340.026 157.7C340.026 156.4 340.126 155.1 340.226 153.8C340.326 152.8 339.626 151.9 338.626 151.8C337.626 151.7 336.726 152.4 336.626 153.4C336.526 154.8 336.426 156.2 336.426 157.6C336.426 161 336.826 164.5 337.526 168.2C337.626 169.1 338.326 169.7 339.226 169.7ZM444.126 153.9C444.326 153.9 444.426 153.9 444.626 153.8C445.626 153.5 446.126 152.6 445.926 151.6C444.526 146.5 442.526 141.9 439.926 137.9C439.326 137.1 438.226 136.8 437.426 137.4C436.626 138 436.326 139.1 436.926 139.9C439.326 143.5 441.226 147.7 442.426 152.5C442.626 153.4 443.426 153.9 444.126 153.9ZM342.526 141.8C343.126 141.8 343.726 141.5 344.126 140.9C344.426 140.3 344.826 139.8 345.126 139.2C347.426 135.7 349.926 132.5 352.426 129.7C353.126 129 353.026 127.8 352.326 127.2C351.626 126.5 350.426 126.6 349.826 127.3C347.126 130.2 344.626 133.6 342.226 137.3C341.826 137.9 341.426 138.6 341.026 139.2C340.526 140.1 340.826 141.2 341.726 141.7C341.926 141.7 342.226 141.8 342.526 141.8ZM428.326 130.6C428.826 130.6 429.426 130.4 429.726 129.9C430.326 129.1 430.226 128 429.426 127.4C425.426 124.3 421.426 121.6 417.226 119.2C416.326 118.7 415.226 119 414.726 119.9C414.226 120.8 414.526 121.9 415.426 122.4C419.426 124.7 423.326 127.3 427.126 130.3C427.526 130.5 427.926 130.6 428.326 130.6ZM361.926 120.8C362.226 120.8 362.626 120.7 362.926 120.5C366.926 117.9 371.126 116 375.426 114.9C376.426 114.6 376.926 113.7 376.726 112.7C376.426 111.7 375.526 111.2 374.526 111.4C369.826 112.6 365.226 114.7 360.926 117.5C360.126 118 359.826 119.2 360.426 120C360.726 120.5 361.326 120.8 361.926 120.8ZM403.326 116.6C404.026 116.6 404.726 116.1 405.026 115.4C405.326 114.5 404.826 113.4 403.926 113.1C399.026 111.4 394.126 110.4 389.426 110.1C388.426 110 387.526 110.8 387.526 111.8C387.426 112.8 388.226 113.7 389.226 113.7C393.626 114 398.226 115 402.826 116.6C402.926 116.6 403.126 116.6 403.326 116.6Z" fill="#EEEEEE"/>
<path d="M25.2257 84.3C-12.6743 110.9 -7.27426 184.2 37.4257 248C82.1257 311.8 149.126 342.1 187.026 315.5C224.926 288.9 219.526 215.6 174.826 151.8C130.126 88 63.2257 57.7 25.2257 84.3Z" fill="url(#paint0_radial)"/>
<g filter="url(#filter0_d)">
<path d="M47.6258 38L251.426 105.5L187.526 134.8L47.6258 38Z" fill="white"/>
</g>
<path d="M187.526 134.8L183.426 210.8L47.6259 38L187.526 134.8Z" fill="#ACEAFD"/>
<path d="M183.426 210.8L161.526 155.2L47.6258 38L183.426 210.8Z" fill="#9AB7BE"/>
<path d="M47.6259 38L108.126 207.5L161.526 155.2L47.6259 38Z" fill="white"/>
<defs>
<filter id="filter0_d" x="7.62573" y="0" width="283.8" height="176.8" filterUnits="userSpaceOnUse" color-interpolation-filters="sRGB">
<feFlood flood-opacity="0" result="BackgroundImageFix"/>
<feColorMatrix in="SourceAlpha" type="matrix" values="0 0 0 0 0 0 0 0 0 0 0 0 0 0 0 0 0 0 127 0"/>
<feOffset dy="2"/>
<feGaussianBlur stdDeviation="20"/>
<feColorMatrix type="matrix" values="0 0 0 0 0 0 0 0 0 0 0 0 0 0 0 0 0 0 0.08 0"/>
<feBlend mode="normal" in2="BackgroundImageFix" result="effect1_dropShadow"/>
<feBlend mode="normal" in="SourceGraphic" in2="effect1_dropShadow" result="shape"/>
</filter>
<radialGradient id="paint0_radial" cx="0" cy="0" r="1" gradientUnits="userSpaceOnUse" gradientTransform="translate(106.193 199.867) rotate(-124.995) scale(141.103 83.8689)">
<stop stop-color="#CCCCCC"/>
<stop offset="0.2582" stop-color="#D2D2D2" stop-opacity="0.7418"/>
<stop offset="0.596" stop-color="#E2E2E2" stop-opacity="0.404"/>
<stop offset="0.9766" stop-color="#FDFDFD" stop-opacity="0.0234459"/>
<stop offset="1" stop-color="white" stop-opacity="0"/>
</radialGradient>
</defs>
</svg>
