<svg width="1440" height="944" viewBox="0 0 1440 944" fill="none" xmlns="http://www.w3.org/2000/svg">
<mask id="mask0" mask-type="alpha" maskUnits="userSpaceOnUse" x="0" y="0" width="1440" height="944">
<rect width="1440" height="944" fill="url(#paint0_linear)"/>
</mask>
<g mask="url(#mask0)">
<rect width="1440" height="944" fill="url(#paint1_linear)"/>
<rect width="1440" height="944" fill="url(#paint2_linear)"/>
<path d="M727.958 236.279C734.043 236.279 734.043 226.662 727.958 226.662C721.874 226.858 721.678 236.279 727.958 236.279Z" fill="#FDFDFD" style="mix-blend-mode:overlay"/>
<path d="M652.006 53.7569C658.09 53.7569 658.09 44.1401 652.006 44.1401C645.922 44.3364 645.922 53.7569 652.006 53.7569Z" fill="#FDFDFD" style="mix-blend-mode:overlay"/>
<path d="M531.698 119.7C544.455 119.7 544.455 99.8779 531.698 99.8779C518.941 100.074 518.941 119.7 531.698 119.7Z" fill="#FDFDFD" style="mix-blend-mode:overlay"/>
<path d="M290.298 282.204C297.559 282.204 297.559 271.017 290.298 271.017C283.036 271.213 283.036 282.204 290.298 282.204Z" fill="#FDFDFD" style="mix-blend-mode:overlay"/>
<path d="M973.284 360.119C977.012 360.119 977.012 354.428 973.284 354.428C969.555 354.231 969.555 360.119 973.284 360.119Z" fill="#FDFDFD" style="mix-blend-mode:overlay"/>
<path d="M614.127 287.503C617.856 287.503 617.856 281.811 614.127 281.811C610.398 281.615 610.398 287.503 614.127 287.503Z" fill="#FDFDFD" style="mix-blend-mode:overlay"/>
<path d="M325.035 593.669C328.764 593.669 328.764 587.977 325.035 587.977C321.307 587.781 321.307 593.669 325.035 593.669Z" fill="#FDFDFD" style="mix-blend-mode:overlay"/>
<path d="M886.34 288.68C890.069 288.68 890.069 282.989 886.34 282.989C882.611 282.989 882.611 288.68 886.34 288.68Z" fill="#FDFDFD" style="mix-blend-mode:overlay"/>
<path d="M844.341 104.196C848.07 104.196 848.07 98.5044 844.341 98.5044C840.612 98.5044 840.612 104.196 844.341 104.196Z" fill="#FDFDFD" style="mix-blend-mode:overlay"/>
<path d="M281.858 25.6916C285.587 25.6916 285.587 20 281.858 20C278.129 20 278.129 25.6916 281.858 25.6916Z" fill="#FDFDFD" style="mix-blend-mode:overlay"/>
<path d="M35.7479 74.1676C39.4768 74.1676 39.4768 68.4761 35.7479 68.4761C32.0189 68.4761 32.0189 74.1676 35.7479 74.1676Z" fill="#FDFDFD" style="mix-blend-mode:overlay"/>
<path d="M1067.49 176.616C1074.95 176.616 1074.95 165.037 1067.49 165.037C1060.03 165.037 1060.03 176.616 1067.49 176.616Z" fill="#FDFDFD" style="mix-blend-mode:overlay"/>
<path d="M1269.64 150.317C1277.09 150.317 1277.09 138.737 1269.64 138.737C1262.18 138.737 1262.18 150.317 1269.64 150.317Z" fill="#FDFDFD" style="mix-blend-mode:overlay"/>
<path d="M1151.88 198.204C1156.98 198.204 1156.98 190.158 1151.88 190.158C1146.78 190.354 1146.78 198.204 1151.88 198.204Z" fill="#FDFDFD" style="mix-blend-mode:overlay"/>
<path d="M969.947 234.905C975.05 234.905 975.05 226.858 969.947 226.858C964.844 226.858 964.844 234.905 969.947 234.905Z" fill="#FDFDFD" style="mix-blend-mode:overlay"/>
<path d="M1142.07 88.6912C1145.21 88.6912 1145.21 83.981 1142.07 83.981C1138.93 83.981 1138.93 88.6912 1142.07 88.6912Z" fill="#FDFDFD" style="mix-blend-mode:overlay"/>
<path d="M1348.14 63.1775C1351.28 63.1775 1351.28 58.4673 1348.14 58.4673C1345 58.4673 1345 63.1775 1348.14 63.1775Z" fill="#FDFDFD" style="mix-blend-mode:overlay"/>
<path d="M1068.08 34.5231C1071.22 34.5231 1071.22 29.8129 1068.08 29.8129C1065.13 29.6166 1065.13 34.5231 1068.08 34.5231Z" fill="#FDFDFD" style="mix-blend-mode:overlay"/>
<path d="M1057.68 641.557C1060.82 641.557 1060.82 636.847 1057.68 636.847C1054.54 636.847 1054.54 641.557 1057.68 641.557Z" fill="#FDFDFD" style="mix-blend-mode:overlay"/>
<path d="M1146.58 519.875C1149.72 519.875 1149.72 515.165 1146.58 515.165C1143.64 515.165 1143.64 519.875 1146.58 519.875Z" fill="#FDFDFD" style="mix-blend-mode:overlay"/>
<path d="M1395.24 198.008C1398.38 198.008 1398.38 193.298 1395.24 193.298C1392.1 193.298 1392.1 198.008 1395.24 198.008Z" fill="#FDFDFD" style="mix-blend-mode:overlay"/>
<path d="M1405.65 548.725C1408.79 548.725 1408.79 544.015 1405.65 544.015C1402.7 543.819 1402.7 548.725 1405.65 548.725Z" fill="#FDFDFD" style="mix-blend-mode:overlay"/>
<path d="M742.285 85.5509C745.425 85.5509 745.425 80.8407 742.285 80.8407C739.341 80.6444 739.341 85.5509 742.285 85.5509Z" fill="#FDFDFD" style="mix-blend-mode:overlay"/>
<path d="M943.844 72.4017C946.985 72.4017 946.985 67.6914 943.844 67.6914C940.704 67.6914 940.704 72.4017 943.844 72.4017Z" fill="#FDFDFD" style="mix-blend-mode:overlay"/>
<path d="M673.005 156.205C676.145 156.205 676.145 151.495 673.005 151.495C669.865 151.298 669.865 156.205 673.005 156.205Z" fill="#FDFDFD" style="mix-blend-mode:overlay"/>
<path d="M616.09 102.429C619.23 102.429 619.23 97.7192 616.09 97.7192C612.95 97.7192 612.95 102.429 616.09 102.429Z" fill="#FDFDFD" style="mix-blend-mode:overlay"/>
<path d="M253.008 150.906C256.148 150.906 256.148 146.195 253.008 146.195C249.868 146.195 249.868 150.906 253.008 150.906Z" fill="#FDFDFD" style="mix-blend-mode:overlay"/>
<path d="M494.997 58.0744C498.137 58.0744 498.137 53.3641 494.997 53.3641C492.053 53.1679 492.053 58.0744 494.997 58.0744Z" fill="#FDFDFD" style="mix-blend-mode:overlay"/>
<path d="M448.287 356.586C451.427 356.586 451.427 351.876 448.287 351.876C445.147 351.876 445.147 356.586 448.287 356.586Z" fill="#FDFDFD" style="mix-blend-mode:overlay"/>
<path d="M380.577 65.7286C384.306 65.7286 384.306 60.037 380.577 60.037C376.848 59.8408 376.848 65.7286 380.577 65.7286Z" fill="#FDFDFD" style="mix-blend-mode:overlay"/>
<path d="M115.626 172.887C126.028 172.887 126.028 156.793 115.626 156.793C105.224 156.793 105.224 172.887 115.626 172.887Z" fill="#FDFDFD" style="mix-blend-mode:overlay"/>
<path d="M131.327 110.476C134.663 110.476 134.663 105.373 131.327 105.373C127.99 105.373 127.99 110.476 131.327 110.476Z" fill="#FDFDFD" style="mix-blend-mode:overlay"/>
<path d="M39.084 476.698C43.7942 476.698 43.7942 469.24 39.084 469.24C34.3737 469.24 34.3737 476.698 39.084 476.698Z" fill="#FDFDFD" style="mix-blend-mode:overlay"/>
<path d="M148.99 582.482C156.056 582.482 156.056 571.492 148.99 571.492C141.925 571.492 141.925 582.482 148.99 582.482Z" fill="#FDFDFD" style="mix-blend-mode:overlay"/>
<path d="M792.724 180.148C799.789 180.148 799.789 169.158 792.724 169.158C785.659 169.158 785.659 180.148 792.724 180.148Z" fill="#FDFDFD" style="mix-blend-mode:overlay"/>
<path d="M403.932 640.575C403.932 640.379 403.736 639.987 403.736 639.79C402.755 635.669 396.474 635.669 395.493 639.79C395.493 639.987 395.297 640.379 395.297 640.575C394.708 643.323 396.671 646.267 399.615 646.267C402.558 646.267 404.521 643.323 403.932 640.575Z" fill="#FDFDFD" style="mix-blend-mode:overlay"/>
<path d="M476.745 594.65C480.277 594.65 480.277 589.351 476.745 589.351C473.212 589.351 473.212 594.65 476.745 594.65Z" fill="#FDFDFD" style="mix-blend-mode:overlay"/>
<path d="M276.559 533.025C278.129 533.025 278.129 530.669 276.559 530.669C274.989 530.669 274.989 533.025 276.559 533.025Z" fill="#FDFDFD" style="mix-blend-mode:overlay"/>
<path d="M820.789 561.09C824.715 561.09 824.715 555.202 820.789 555.202C817.06 555.006 817.06 561.09 820.789 561.09Z" fill="#FDFDFD" style="mix-blend-mode:overlay"/>
<path d="M1371.69 254.727C1376.99 254.727 1376.99 246.288 1371.69 246.288C1366.2 246.288 1366.2 254.727 1371.69 254.727Z" fill="#FDFDFD" style="mix-blend-mode:overlay"/>
<path d="M1362.47 602.697C1367.77 602.697 1367.77 594.258 1362.47 594.258C1357.17 594.454 1357.17 602.697 1362.47 602.697Z" fill="#FDFDFD" style="mix-blend-mode:overlay"/>
<path d="M1285.34 408.792C1290.24 408.792 1290.44 400.941 1285.34 400.941C1280.24 401.138 1280.24 408.792 1285.34 408.792Z" fill="#FDFDFD" style="mix-blend-mode:overlay"/>
<path opacity="0.1" d="M1637.55 693.658C1639.79 693.979 1642.04 693.979 1644.29 693.979C1681.18 693.979 1711.02 664.143 1711.02 627.248C1711.02 590.354 1681.18 560.518 1644.29 560.518C1640.44 560.518 1636.91 560.838 1633.38 561.48C1639.15 549.289 1642.36 535.493 1642.36 520.736C1642.36 467.8 1599.37 425.131 1546.76 425.131C1511.79 425.131 1481.31 443.739 1464.63 471.971C1452.44 455.609 1433.19 445.343 1411.37 445.343C1398.22 445.343 1385.7 449.193 1375.44 455.93C1376.72 449.834 1377.36 443.739 1377.36 437.322C1377.36 384.387 1334.37 341.717 1281.76 341.717C1270.21 341.717 1258.98 343.642 1248.71 347.492C1248.71 346.53 1248.71 345.567 1248.71 344.605C1248.71 291.669 1205.72 249 1153.11 249C1100.17 249 1057.5 291.99 1057.5 344.605C1057.5 348.455 1057.82 352.304 1058.15 355.834C1047.56 348.455 1034.41 344.284 1020.29 344.284C983.394 344.284 953.558 374.12 953.558 411.015C953.558 414.865 953.879 418.394 954.521 422.244C939.442 411.977 921.155 406.202 901.585 406.202C849.933 406.202 807.905 447.268 805.98 498.278C796.356 495.07 786.41 493.466 775.823 493.466C754.007 493.466 734.116 500.845 718.075 512.715C710.696 484.162 684.71 462.988 653.59 462.988C634.02 462.988 616.696 471.329 604.504 484.483C604.504 483.2 604.825 481.916 604.825 480.633C604.825 443.739 574.989 413.902 538.094 413.902C522.053 413.902 507.296 419.677 495.746 428.981C486.442 385.67 448.264 353.588 402.066 353.588C349.131 353.588 306.461 396.578 306.461 449.193C306.461 451.438 306.461 453.363 306.782 455.288C300.366 453.363 293.629 452.08 286.57 452.08C271.171 452.08 256.734 457.534 245.505 466.196C245.826 463.95 245.826 461.705 245.826 459.138C245.826 422.244 215.99 392.407 179.095 392.407C165.621 392.407 153.43 396.257 142.842 402.994C144.447 396.257 145.088 389.199 145.088 382.141C145.088 329.205 102.098 286.536 49.4835 286.536C12.9099 286.536 -18.8514 307.069 -34.8925 337.226C-41.3089 306.748 -67.9371 283.97 -100.34 283.97C-134.989 283.97 -163.542 310.598 -166.75 344.284C-176.054 339.151 -186.962 336.263 -198.511 336.263C-235.406 336.263 -265.242 366.1 -265.242 402.994C-265.242 409.411 -264.28 415.827 -262.676 421.602C-268.13 419.356 -274.225 417.752 -280 416.79V1168.15C270.529 1152.75 1233.31 1128.05 1242.94 1128.05C1255.77 1128.05 1720 991.06 1720 991.06V852.144L1637.55 693.658Z" fill="white"/>
<path opacity="0.2" d="M1585.79 795.193C1587.82 795.481 1589.84 795.481 1591.86 795.481C1625.06 795.481 1651.92 768.629 1651.92 735.424C1651.92 702.219 1625.06 675.366 1591.86 675.366C1588.39 675.366 1585.22 675.655 1582.04 676.232C1587.24 665.26 1590.12 652.844 1590.12 639.562C1590.12 591.92 1551.43 553.518 1504.08 553.518C1472.61 553.518 1445.18 570.265 1430.16 595.674C1419.19 580.948 1401.87 571.708 1382.23 571.708C1370.39 571.708 1359.13 575.173 1349.89 581.237C1351.05 575.751 1351.63 570.265 1351.63 564.49C1351.63 516.848 1312.94 478.446 1265.58 478.446C1255.19 478.446 1245.08 480.178 1235.84 483.643C1235.84 482.777 1235.84 481.91 1235.84 481.044C1235.84 433.402 1197.15 395 1149.8 395C1102.16 395 1063.75 433.691 1063.75 481.044C1063.75 484.509 1064.04 487.974 1064.33 491.15C1054.8 484.509 1042.96 480.756 1030.26 480.756C997.055 480.756 970.202 507.608 970.202 540.813C970.202 544.278 970.491 547.454 971.068 550.919C957.498 541.68 941.04 536.482 923.427 536.482C876.939 536.482 839.115 573.441 837.382 619.35C828.72 616.463 819.769 615.019 810.241 615.019C790.606 615.019 772.705 621.66 758.268 632.344C751.627 606.646 728.239 587.589 700.231 587.589C682.618 587.589 667.026 595.096 656.054 606.935C656.054 605.78 656.343 604.625 656.343 603.47C656.343 570.265 629.49 543.412 596.285 543.412C581.848 543.412 568.566 548.609 558.171 556.983C549.798 518.003 515.438 489.129 473.859 489.129C426.218 489.129 387.815 527.82 387.815 575.173C387.815 577.194 387.815 578.927 388.104 580.659C382.329 578.927 376.266 577.772 369.913 577.772C356.054 577.772 343.061 582.68 332.955 590.476C333.243 588.455 333.243 586.434 333.243 584.124C333.243 550.919 306.391 524.066 273.186 524.066C261.059 524.066 250.087 527.531 240.558 533.595C242.002 527.531 242.579 521.179 242.579 514.827C242.579 467.185 203.888 428.782 156.535 428.782C123.619 428.782 95.0337 447.262 80.5967 474.403C74.822 446.973 50.8566 426.473 21.6939 426.473C-9.48988 426.473 -35.1877 450.438 -38.0751 480.756C-46.4485 476.136 -56.2656 473.537 -66.6603 473.537C-99.8653 473.537 -126.718 500.39 -126.718 533.595C-126.718 539.37 -125.852 545.144 -124.408 550.342C-129.317 548.321 -134.803 546.877 -140 546.011V1222.24C355.476 1208.38 1221.98 1186.15 1230.64 1186.15C1242.19 1186.15 1660 1062.85 1660 1062.85V937.83L1585.79 795.193Z" fill="white"/>
<path d="M1558.65 938.741C1568.11 930.379 1573.83 918.276 1573.83 904.633C1573.83 879.328 1553.36 858.863 1528.06 858.863C1526.52 858.863 1524.98 858.863 1523.44 859.083C1524.76 854.902 1525.42 850.501 1525.42 845.88C1525.42 820.575 1504.95 800.11 1479.65 800.11C1463.14 800.11 1448.84 808.912 1440.7 821.895C1431.68 796.369 1407.47 777.885 1378.65 777.885C1352.68 777.885 1330.45 792.848 1319.67 814.633C1312.41 799.01 1296.57 788.227 1278.3 788.227C1271.92 788.227 1265.98 789.548 1260.48 791.748C1267.74 781.186 1271.92 768.643 1271.92 754.78C1271.92 718.472 1242.44 689.205 1206.35 689.205C1198.21 689.205 1190.28 690.746 1183.24 693.386C1184.34 689.205 1185 685.024 1185 680.623C1185 655.318 1164.54 634.853 1139.23 634.853C1131.31 634.853 1123.83 636.834 1117.45 640.355C1115.25 617.029 1095.66 598.985 1071.9 598.985C1049.89 598.985 1031.41 614.609 1027.01 635.513C1016 614.829 994.22 600.746 969.134 600.746C932.826 600.746 903.56 630.232 903.56 666.32C903.56 671.161 904.22 676.002 905.1 680.623C897.839 676.002 889.477 673.362 880.235 673.362C854.929 673.362 834.465 693.826 834.465 719.132C834.465 720.672 834.465 722.213 834.685 723.973C826.983 717.812 817.081 714.291 806.518 714.291C801.677 714.291 797.056 714.951 792.655 716.491C792.655 715.171 792.875 713.631 792.875 712.311C792.875 676.002 763.389 646.736 727.301 646.736C695.834 646.736 669.428 668.961 663.047 698.447C655.125 692.066 645.003 688.105 634 688.105C608.694 688.105 588.23 708.57 588.23 733.875C588.23 734.755 588.23 735.636 588.45 736.516C580.088 727.494 568.205 721.773 554.782 721.773C533.438 721.773 515.614 736.296 510.553 755.88C499.55 747.518 485.907 742.677 470.944 742.677C463.682 742.677 456.861 743.777 450.259 745.978C448.939 710.77 420.113 682.824 384.685 682.824C371.262 682.824 358.719 686.785 348.377 693.826C348.817 691.406 349.037 688.765 349.037 686.125C349.037 660.819 328.572 640.355 303.267 640.355C293.584 640.355 284.782 643.215 277.301 648.276C277.521 645.636 277.741 643.215 277.741 640.575C277.741 604.266 248.254 575 212.166 575C175.858 575 146.592 604.487 146.592 640.575C146.592 641.235 146.592 641.895 146.592 642.555C139.55 639.914 131.848 638.594 123.927 638.594C87.6186 638.594 58.3521 668.081 58.3521 704.169C58.3521 708.57 58.7922 712.751 59.6724 716.932C52.6308 712.311 44.0489 709.67 35.0269 709.67C20.0636 709.67 6.86063 716.932 -1.50124 727.934C-12.9438 708.79 -33.8484 695.807 -57.8337 695.807C-94.1418 695.807 -123.408 725.293 -123.408 761.381C-123.408 771.284 -121.208 780.746 -117.247 789.328C-119.667 788.888 -122.088 788.667 -124.729 788.667C-150.034 788.667 -170.499 809.132 -170.499 834.438C-170.499 859.743 -150.034 880.208 -124.729 880.208C-123.188 880.208 -121.648 880.208 -120.108 879.988L-176 989.132V1084.41C-176 1084.41 142.411 1178.37 151.213 1178.37C160.015 1178.37 1359.94 1209.18 1447.96 1213.58C1535.98 1217.98 1624 1071.21 1624 1071.21L1558.65 938.741Z" fill="white"/>
</g>
<defs>
<linearGradient id="paint0_linear" x1="720" y1="3.2732e-05" x2="720" y2="1575" gradientUnits="userSpaceOnUse">
<stop stop-color="#402E62"/>
<stop offset="1" stop-color="#02929D"/>
</linearGradient>
<linearGradient id="paint1_linear" x1="720" y1="3.2732e-05" x2="720" y2="1575" gradientUnits="userSpaceOnUse">
<stop stop-color="#402E62"/>
<stop offset="1" stop-color="#02929D"/>
</linearGradient>
<linearGradient id="paint2_linear" x1="720" y1="0" x2="720" y2="1465.5" gradientUnits="userSpaceOnUse">
<stop stop-color="white"/>
<stop offset="1" stop-color="white" stop-opacity="0"/>
</linearGradient>
</defs>
</svg>
