<?xml version="1.0" encoding="utf-8"?>
<!-- Generator: Adobe Illustrator 22.1.0, SVG Export Plug-In . SVG Version: 6.00 Build 0)  -->
<svg version="1.1" id="Слой_1" xmlns="http://www.w3.org/2000/svg" xmlns:xlink="http://www.w3.org/1999/xlink" x="0px" y="0px"
	 viewBox="0 0 775 560" style="enable-background:new 0 0 775 560;" xml:space="preserve">
<style type="text/css">
	.st0{opacity:0.458;fill:#9595EF;enable-background:new    ;}
	.st1{opacity:0.28;fill:none;stroke:#979797;enable-background:new    ;}
	.st2{opacity:0.17;fill:none;stroke:#979797;enable-background:new    ;}
	.st3{opacity:8.000000e-02;fill:none;stroke:#979797;enable-background:new    ;}
	
		.st4{fill:#7850F1;fill-opacity:8.000000e-02;stroke:#000000;stroke-width:2.652;stroke-linecap:round;stroke-linejoin:round;stroke-dasharray:5.305,10.609;}
	.st5{fill:#FFFFFF;}
	.st6{fill:none;stroke:#000000;stroke-width:2;stroke-linejoin:round;}
	.st7{fill:none;stroke:#000000;stroke-width:1.291;stroke-linejoin:round;}
	.st8{fill:none;stroke:#000000;stroke-width:1.291;stroke-linecap:round;stroke-linejoin:round;}
	.st9{fill:#9595EF;}
	.st10{fill:none;stroke:#000000;stroke-width:0.982;stroke-linejoin:round;}
	.st11{fill:none;stroke:#000000;stroke-width:1.3;stroke-linecap:round;stroke-linejoin:round;}
	.st12{fill:none;stroke:#000000;stroke-width:1.2;stroke-linecap:round;stroke-linejoin:round;}
	
		.st13{fill:#634FE6;fill-opacity:8.000000e-02;stroke:#000000;stroke-width:2.395;stroke-linecap:round;stroke-linejoin:round;stroke-dasharray:4.79,9.58;}
	.st14{fill:none;stroke:#000000;stroke-width:1.5;stroke-linejoin:round;}
</style>
<g>
	<path class="st0" d="M370.9,178.6c-101.7,22.7-184.6,8.4-208.6,115.9c-22.3,99.9,66.2,178,320.6,177.7
		c224.5-0.3,294.8-84.6,252.4-169.1c-21.2-42.3-95.6-111.9-167.8-135.7C495.3,143.5,421.4,167.3,370.9,178.6"/>
	<path class="st1" d="M373.6,176c-112.1,25-203.4,9.2-229.9,127.4c-24.6,109.7,72.9,195.5,353.3,195.2
		c247.4-0.3,324.9-92.9,278.2-185.8c-23.3-46.4-105.3-122.9-184.9-149.1C510.7,137.5,429.1,163.6,373.6,176"/>
	<path class="st2" d="M376,169c-123.4,27.6-223.8,10.1-253,140.6C96,430.6,203.2,525.3,511.7,525c272.2-0.3,357.5-102.5,306.1-205
		C792.1,268.7,702,184.3,614.4,155.4C526.8,126.5,437.1,155.3,376,169"/>
	<path class="st3" d="M370.3,171.2c-134.1,29.9-243.3,11-275,152.7C66,455.5,182.6,558.4,517.9,558
		c295.9-0.3,388.6-111.4,332.7-222.7c-27.9-55.7-125.9-147.4-221.1-178.8C534.3,125,436.8,156.4,370.3,171.2"/>
</g>
<g>
	<path class="st4" d="M528.6,398.4c0.4,10.7-20.1,20.2-45.7,21.1c-25.6,0.9-46.7-7.1-47.1-17.8c-0.4-10.7,20.1-20.2,45.7-21.1
		C507.2,379.7,528.2,387.7,528.6,398.4z"/>
	<path class="st5" d="M481.9,293.5l-21.7,2.8c-11.8,1.5-20.1,0.3-26-0.7c-0.4-0.1-1.2-2.1-1.4-1.7c-0.6,1.3-0.8,3.2-0.5,6.1l9,73.2
		c1.9,15.5,16.1,26.7,31.6,24.8l20.6-2.5c15.5-1.9,26.6-16.2,24.7-31.7l-2.7-22l-1.8-14.6l-4.5-36.6c-0.2-1.6,0.3-2.1-0.3-3
		c-0.3-0.5-2.8,0.9-4.2,1.3C497.7,290.8,492.5,292.2,481.9,293.5"/>
	<path class="st6" d="M481.9,293.5l-21.7,2.8c-11.8,1.5-20.1,0.3-26-0.7c-0.4-0.1-1.2-2.1-1.4-1.7c-0.6,1.3-0.8,3.2-0.5,6.1l9,73.2
		c1.9,15.5,16.1,26.7,31.6,24.8l20.6-2.5c15.5-1.9,26.6-16.2,24.7-31.7l-2.7-22l-1.8-14.6l-4.5-36.6c-0.2-1.6,0.3-2.1-0.3-3
		c-0.3-0.5-2.8,0.9-4.2,1.3C497.7,290.8,492.5,292.2,481.9,293.5L481.9,293.5z"/>
	<path class="st5" d="M431.6,322.8L284.7,198c-8.8-7.4,18.3-2.3,29.7-3.6l302.1-35.2c6.4-0.7,16.4-11.7,12.5-6.5L518,312.3
		C497.2,338.9,458.3,343.6,431.6,322.8"/>
	<path class="st6" d="M431.6,322.8L284.7,198c-8.8-7.4,18.3-2.3,29.7-3.6l302.1-35.2c6.4-0.7,16.4-11.7,12.5-6.5L518,312.3
		C497.2,338.9,458.3,343.6,431.6,322.8L431.6,322.8z"/>
	<path class="st5" d="M638.8,107.1c7.5,60.8-71.1,120.5-175.6,133.4c-104.4,12.8-195.1-26.1-202.6-87
		C253.1,92.7,331.7,33,436.2,20.2S631.3,46.3,638.8,107.1"/>
	<path class="st6" d="M638.8,107.1c7.5,60.8-71.1,120.5-175.6,133.4c-104.4,12.8-195.1-26.1-202.6-87
		C253.1,92.7,331.7,33,436.2,20.2S631.3,46.3,638.8,107.1L638.8,107.1z"/>
	<path class="st5" d="M616.2,109.9c5.9,47.8-63.9,95.8-155.9,107.1c-92,11.3-171.3-18.3-177.1-66.2c-5.9-47.9,63.9-95.8,155.9-107.1
		C531,32.4,610.3,62,616.2,109.9"/>
	<path class="st6" d="M616.2,109.9c5.9,47.8-63.9,95.8-155.9,107.1c-92,11.3-171.3-18.3-177.1-66.2c-5.9-47.9,63.9-95.8,155.9-107.1
		C531,32.4,610.3,62,616.2,109.9L616.2,109.9z"/>
	<path class="st5" d="M318.5,118.3c0.6,5,3,7.7,6.6,9.2c3.5,1.4,5.5,0.4,4.9-4.7l-4.7-38.2c-0.6-5.1-3.1-7.7-6.6-8.7
		s-5.4,0.3-4.8,5.2L318.5,118.3 M303.9,78.5c-1.3-8.7,4-15.8,13.5-12.8c9.7,3.1,17.2,12.7,18.3,23.2l4.6,37.5
		c1.2,9.9-5,15.2-14,11.3c-9.7-4.1-17.1-13.2-18.1-24L303.9,78.5"/>
	<path class="st7" d="M318.5,118.3c0.6,5,3,7.7,6.6,9.2c3.5,1.4,5.5,0.4,4.9-4.7l-4.7-38.2c-0.6-5.1-3.1-7.7-6.6-8.7
		s-5.4,0.3-4.8,5.2L318.5,118.3L318.5,118.3z M303.9,78.5c-1.3-8.7,4-15.8,13.5-12.8c9.7,3.1,17.2,12.7,18.3,23.2l4.6,37.5
		c1.2,9.9-5,15.2-14,11.3c-9.7-4.1-17.1-13.2-18.1-24L303.9,78.5L303.9,78.5z"/>
	<path class="st5" d="M319.9,140.4l-15-7.1L297.6,74l11.3-8.2c0,0,3.2-1.7,6.9-0.4c3.7,1.3,10.9,4.5,15.8,14.9
		c1.7,3.6,2.7,13.5,3.9,22.9c1.6,11.9,1.6,23.5,1.6,23.5s2,3.2-0.5,9.3l-10,8.3"/>
	<path class="st8" d="M338.6,135.4c-1.3,2-11.3,9-11.3,9 M319.9,140.5l-15-7.1L297.6,74l11.3-8.2c0,0,3.2-1.7,6.9-0.4
		c3.7,1.3,12,4.3,16.9,14.8"/>
	<path class="st9" d="M308,126.3c0.6,5,3,7.7,6.5,9.2c3.5,1.4,5.5,0.4,4.9-4.7l-4.7-38.2c-0.6-5.1-3.1-7.7-6.5-8.7
		c-3.5-1-5.4,0.3-4.8,5.2C303.4,89.1,308,126.3,308,126.3z M293.4,86.4c-1.3-8.7,4-15.8,13.5-12.8c9.7,3.1,17.2,12.7,18.3,23.2
		l4.6,37.5c1.2,9.9-5,15.2-14,11.3c-9.7-4.1-17.1-13.2-18.1-24C297.8,121.7,293.4,86.4,293.4,86.4z"/>
	<path class="st8" d="M308,126.3c0.6,5,3,7.7,6.5,9.2c3.5,1.4,5.5,0.4,4.9-4.7l-4.7-38.2c-0.6-5.1-3.1-7.7-6.5-8.7
		c-3.5-1-5.4,0.3-4.8,5.2C303.4,89.1,308,126.3,308,126.3z M293.4,86.4c-1.3-8.7,4-15.8,13.5-12.8c9.7,3.1,17.2,12.7,18.3,23.2
		l4.6,37.5c1.2,9.9-5,15.2-14,11.3c-9.7-4.1-17.1-13.2-18.1-24C297.8,121.7,293.4,86.4,293.4,86.4z"/>
	<path class="st5" d="M460.9,96.4c0.2-5-1.8-6.1-5.2-4.8c-3.4,1.3-5.6,4.1-5.8,9.2c-0.5,12.8-1.1,25.6-1.6,38.4
		c-0.2,5.1,1.8,6,5.2,4.3c3.4-1.7,5.6-4.7,5.8-9.6L460.9,96.4 M469.1,128.4c-0.1,10.8-6.7,20.4-16,25.3c-8.7,4.6-15.3-0.2-14.9-10.1
		l1.5-37.7c0.3-10.5,7-20.7,16.4-24.5c9.1-3.8,15,2.8,14.4,11.6C470.1,104.7,469.6,116.6,469.1,128.4"/>
	<path class="st7" d="M460.9,96.4c0.2-5-1.8-6.1-5.2-4.8c-3.4,1.3-5.6,4.1-5.8,9.2c-0.5,12.8-1.1,25.6-1.6,38.4
		c-0.2,5.1,1.8,6,5.2,4.3c3.4-1.7,5.6-4.7,5.8-9.6L460.9,96.4L460.9,96.4z M469.1,128.4c-0.1,10.8-6.7,20.4-16,25.3
		c-8.7,4.6-15.3-0.2-14.9-10.1l1.5-37.7c0.3-10.5,7-20.7,16.4-24.5c9.1-3.8,15,2.8,14.4,11.6C470.1,104.7,469.6,116.6,469.1,128.4
		L469.1,128.4z"/>
	<path class="st5" d="M459.2,155.9l14.4-8.3l2.5-59.5l-11.9-7.2c0,0-3.4-1.4-6.9,0.2c-3.6,1.6-10.5,5.3-14.5,16.1
		c-1.4,3.8-1.6,13.7-2.1,23.1c-0.6,12,0.3,23.6,0.3,23.6s-1.8,3.4,1.3,9.2l10.7,7.5"/>
	<path class="st8" d="M440.9,152.4c1.5,1.9,12.4,8,12.4,8 M458.4,156l14.3-8.3l2.4-59.5L463.2,81c0,0-3.3-1.4-6.9,0.2
		c-3.6,1.6-11.5,5.3-15.5,16.1"/>
	<path class="st9" d="M472.3,103.6c0.2-5-1.8-6.1-5.2-4.8c-3.4,1.3-5.6,4.1-5.8,9.2c-0.5,12.8-1.1,25.6-1.6,38.4
		c-0.2,5.1,1.8,6,5.2,4.3s5.6-4.7,5.8-9.6C471.2,128.5,471.7,116.1,472.3,103.6 M480.5,135.6c-0.1,10.8-6.7,20.4-16,25.3
		c-8.7,4.6-15.3-0.2-14.9-10.1c0.5-12.6,1-25.1,1.5-37.7c0.3-10.5,7-20.7,16.4-24.5c9.1-3.8,15,2.8,14.4,11.6L480.5,135.6"/>
	<path class="st8" d="M472.3,103.6c0.2-5-1.8-6.1-5.2-4.8c-3.4,1.3-5.6,4.1-5.8,9.2c-0.5,12.8-1.1,25.6-1.6,38.4
		c-0.2,5.1,1.8,6,5.2,4.3s5.6-4.7,5.8-9.6C471.2,128.5,471.7,116.1,472.3,103.6L472.3,103.6z M480.5,135.6
		c-0.1,10.8-6.7,20.4-16,25.3c-8.7,4.6-15.3-0.2-14.9-10.1c0.5-12.6,1-25.1,1.5-37.7c0.3-10.5,7-20.7,16.4-24.5
		c9.1-3.8,15,2.8,14.4,11.6L480.5,135.6z"/>
	<path class="st5" d="M428.6,127.8l-6.2,4.5l-8.1-3.1c0,0-1.8,5.3-5.4,5.1c-3.6-0.3-7.9-1.8-7.9-1.8l6.2-4.9c0,0,2.9,0.8,4.8,1.1
		c1.9,0.4,4.3,0.5,6.2-1.4c2-1.9,2.2-2.8,2.2-2.8"/>
	<path class="st5" d="M415,127.8l5.1-4.2c0.4-0.3,0.8-0.4,1.3-0.2l7.7,3.1c0.2,0.1,0.2,0.3,0.1,0.4c0,0,0,0.1-0.1,0.1l-6.3,4.7
		L415,127.8L415,127.8z"/>
	<path class="st5" d="M542.7,110.3l-8.3-1.2l-29.3-71.6l8.1,0.7L542.7,110.3z"/>
	<path class="st8" d="M542.7,110.3l-8.3-1.2l-29.3-71.6l8.1,0.7L542.7,110.3z"/>
	<path class="st5" d="M505,36.9l7.4,1.8l6.4-5.8c0,0,3.7,4.2,6.9,2.6c3.3-1.6,6.7-4.5,6.7-4.5l-7.6-2.2c0,0-2.4,1.8-4,2.8
		s-3.8,2-6.3,1c-2.6-1-3.1-1.8-3.1-1.8"/>
	<path class="st8" d="M505.1,36.9l7.4,1.8l6-5c-0.3,0.8,3.6,3.4,6.8,1.8c3.3-1.6,6.4-3.2,6.4-3.2l-7.7-3c0,0-1.6,1.2-3.2,2.2
		c-1.6,1-3.8,2-6.3,1c-2.6-1-3.9,0-3.9-0.7"/>
	<path class="st5" d="M517.7,31.2l-6.3-1.1c-0.4-0.1-0.9,0.1-1.2,0.4l-5.1,6.4c-0.1,0.2,0,0.5,0.2,0.5l7.6,1
		C512.9,38.5,517.7,31.2,517.7,31.2z"/>
	<path class="st10" d="M517.7,31.2l-6.3-1.1c-0.4-0.1-0.9,0.1-1.2,0.4l-5.1,6.4c-0.1,0.2,0,0.5,0.2,0.5l7.6,1
		C512.9,38.5,517.7,31.2,517.7,31.2z"/>
	<path class="st9" d="M532.2,29.1l2.1,5.3c0.3,0.8,0.1,2-0.5,2.7l-4.7,6c-0.6,0.8-0.9,2.1-0.6,2.9l21.2,52.6
		c0.3,0.8,0.1,2.1-0.6,2.9c-2.8,3.6-4.2,5.4-6.6,8.4c-0.5,0.7-1.2,0.6-1.5-0.2l-28-70c-0.3-0.8-0.2-1.9,0.4-2.6
		c1.5-1.8,2.3-2.9,3.9-4.9c0.5-0.6,1-0.7,1.4-0.4c3,2.6,6.3,3.7,11.9-2.7C531.3,28.3,531.9,28.4,532.2,29.1"/>
	<path class="st8" d="M532.2,29.1l2.1,5.3c0.3,0.8,0.1,2-0.5,2.7l-4.7,6c-0.6,0.8-0.9,2.1-0.6,2.9l21.2,52.6
		c0.3,0.8,0.1,2.1-0.6,2.9c-2.8,3.6-4.2,5.4-6.6,8.4c-0.5,0.7-1.2,0.6-1.5-0.2l-28-70c-0.3-0.8-0.2-1.9,0.4-2.6
		c1.5-1.8,2.3-2.9,3.9-4.9c0.5-0.6,1-0.7,1.4-0.4c3,2.6,6.3,3.7,11.9-2.7C531.3,28.3,531.9,28.4,532.2,29.1L532.2,29.1z"/>
	<path class="st9" d="M371.8,55.3l9.3,2l0.5-7.4l-3.7-6.6c-6.2-10.8-15.2-14-25.7-8.1c-2.2,1.2-4,2.6-5.5,4.1
		c-0.6,0.6-1.1,1.2-1.6,1.8l-3.9,6.5l1.3-0.6c-0.8,4.2,0.3,9,3.2,14.2l20,35.2c6.2,10.8,17,17.4,25.7,8.1c3.1-3.3,6.7-4.8,8.3-7.9
		c0.9,1.9,1.1,7.7,2.2,9.4c3-8,1.4-17.9-4.1-27.5L385.6,57l-15.1,8.4l-1.5,8.9l4.2,0.9l1.7-2.2l1.2,2.1l4.9-2.7l7.1,12.5
		c2.7,4.8,1.6,7.8-1.8,9.7c-3.4,1.9-6.6,1.4-9.3-3.5l-20.9-36.6c-2.7-4.8-1.6-7.9,1.8-9.8c3.4-1.9,6.6-1.3,9.4,3.6l3.4,6l-0.9,0.4
		l1.4,0.4l0.3,0.4C371.4,55.5,371.8,55.3,371.8,55.3z"/>
	<path class="st11" d="M371.8,55.3l9.3,2l0.5-7.4l-3.7-6.6c-6.2-10.8-15.2-14-25.7-8.1c-2.2,1.2-4,2.6-5.5,4.1
		c-0.6,0.6-1.1,1.2-1.6,1.8l-3.9,6.5l1.3-0.6c-0.8,4.2,0.3,9,3.2,14.2l20,35.2c6.2,10.8,17,17.4,25.7,8.1c3.1-3.3,6.7-4.8,8.3-7.9
		c0.9,1.9,1.1,7.7,2.2,9.4c3-8,1.4-17.9-4.1-27.5L385.6,57l-15.1,8.4l-1.5,8.9l4.2,0.9l1.7-2.2l1.2,2.1l4.9-2.7l7.1,12.5
		c2.7,4.8,1.6,7.8-1.8,9.7c-3.4,1.9-6.6,1.4-9.3-3.5l-20.9-36.6c-2.7-4.8-1.6-7.9,1.8-9.8c3.4-1.9,6.6-1.3,9.4,3.6l3.4,6l-0.9,0.4
		l1.4,0.4l0.3,0.4C371.4,55.5,371.8,55.3,371.8,55.3z"/>
	<path class="st5" d="M368.6,74.6l16.4-9.2l13.3,23.5c6.7,11.9,4.6,22-7,28.4c-11.5,6.4-21.3,3-28-8.9l-21.8-38.5
		c-6.7-11.9-4.6-22,7-28.4c11.5-6.4,21.3-3,28,8.9l4.1,7.2l-11.1,6.2l-4.5-7.9c-3-5.3-6.5-6-10.2-3.9c-3.7,2.1-4.9,5.4-1.9,10.7
		l22.6,40c3,5.3,6.4,5.9,10.1,3.8c3.7-2.1,5-5.3,2-10.6l-7.7-13.7l-5.3,3L368.6,74.6z"/>
	<path class="st11" d="M368.6,74.6l16.4-9.2l13.3,23.5c6.7,11.9,4.6,22-7,28.4c-11.5,6.4-21.3,3-28-8.9l-21.8-38.5
		c-6.7-11.9-4.6-22,7-28.4c11.5-6.4,21.3-3,28,8.9l4.1,7.2l-11.1,6.2l-4.5-7.9c-3-5.3-6.5-6-10.2-3.9c-3.7,2.1-4.9,5.4-1.9,10.7
		l22.6,40c3,5.3,6.4,5.9,10.1,3.8c3.7-2.1,5-5.3,2-10.6l-7.7-13.7l-5.3,3L368.6,74.6z"/>
	<path class="st9" d="M603.8,99.2l5.3,7.8l5.4-5.1l1.8-7.4c2.9-12.1-1.4-20.6-13-23.5c-2.4-0.6-4.6-0.8-6.7-0.7
		c-0.8,0-1.6,0.1-2.3,0.3l-7.2,2.2l1.4,0.4c-3.4,2.6-5.9,6.8-7.3,12.6l-9.5,39.5c-2.9,12.1,0.5,24.4,13,23.5c4.4-0.3,8.1,1,11.3-0.2
		c-0.6,2-4.4,6.4-4.8,8.4c7.6-3.8,13.1-12.2,15.7-23l5.8-24.1l-16.5-4.1l-7.1,5.5l2.4,3.6l2.7-0.5l-0.6,2.3l5.4,1.3l-3.4,14
		c-1.3,5.4-4.1,6.8-7.9,5.9c-3.8-0.9-5.7-3.5-4.3-8.9l9.9-41c1.3-5.4,4.2-6.9,7.9-6c3.8,0.9,5.6,3.6,4.3,9l-1.6,6.8l-0.9-0.4
		l0.7,1.2l-0.1,0.5L603.8,99.2L603.8,99.2z"/>
	<path class="st11" d="M603.8,99.2l5.3,7.8l5.4-5.1l1.8-7.4c2.9-12.1-1.4-20.6-13-23.5c-2.4-0.6-4.6-0.8-6.7-0.7
		c-0.8,0-1.6,0.1-2.3,0.3l-7.2,2.2l1.4,0.4c-3.4,2.6-5.9,6.8-7.3,12.6l-9.5,39.5c-2.9,12.1,0.5,24.4,13,23.5c4.4-0.3,8.1,1,11.3-0.2
		c-0.6,2-4.4,6.4-4.8,8.4c7.6-3.8,13.1-12.2,15.7-23l5.8-24.1l-16.5-4.1l-7.1,5.5l2.4,3.6l2.7-0.5l-0.6,2.3l5.4,1.3l-3.4,14
		c-1.3,5.4-4.1,6.8-7.9,5.9c-3.8-0.9-5.7-3.5-4.3-8.9l9.9-41c1.3-5.4,4.2-6.9,7.9-6c3.8,0.9,5.6,3.6,4.3,9l-1.6,6.8l-0.9-0.4
		l0.7,1.2l-0.1,0.5L603.8,99.2L603.8,99.2z"/>
	<path class="st5" d="M588.6,111l18.1,4.5l-6.3,26.4c-3.2,13.3-11.6,19.3-24.3,16.1c-12.7-3.1-17.5-12.4-14.3-25.7l10.4-43.2
		c3.2-13.3,11.6-19.3,24.3-16.1c12.7,3.1,17.5,12.4,14.3,25.7l-1.9,8.1l-12.2-3l2.1-8.9c1.4-5.9-0.6-8.8-4.7-9.9
		c-4.1-1-7.3,0.6-8.7,6.5l-10.8,44.9c-1.4,5.9,0.6,8.7,4.8,9.7c4.1,1,7.2-0.5,8.7-6.4l3.7-15.3l-5.9-1.5L588.6,111L588.6,111z"/>
	<path class="st11" d="M588.6,111l18.1,4.5l-6.3,26.4c-3.2,13.3-11.6,19.3-24.3,16.1c-12.7-3.1-17.5-12.4-14.3-25.7l10.4-43.2
		c3.2-13.3,11.6-19.3,24.3-16.1c12.7,3.1,17.5,12.4,14.3,25.7l-1.9,8.1l-12.2-3l2.1-8.9c1.4-5.9-0.6-8.8-4.7-9.9
		c-4.1-1-7.3,0.6-8.7,6.5l-10.8,44.9c-1.4,5.9,0.6,8.7,4.8,9.7c4.1,1,7.2-0.5,8.7-6.4l3.7-15.3l-5.9-1.5L588.6,111L588.6,111z"/>
	<path class="st9" d="M563.6,202.3l11.5-22.7l-45.8-58.1l-21.6,3.1l-1.2,16.6l22.1,42.3L563.6,202.3z"/>
	<path class="st8" d="M563.6,202.3l11.5-22.7l-45.8-58.1l-21.6,3.1l-1.2,16.6l22.1,42.3L563.6,202.3z"/>
	<path class="st9" d="M519,203.1c0.9-0.1,1.7-0.9,2.4-1.6l5.7-6l1.6-12.6l-22.5-42.4l7,64.1C515.1,203.9,517,203.3,519,203.1"/>
	<path class="st8" d="M519,203.1c0.9-0.1,1.7-0.9,2.4-1.6l5.7-6l1.6-12.6l-22.5-42.4l7,64.1C515.1,203.9,517,203.3,519,203.1
		L519,203.1z"/>
	<path class="st5" d="M512.4,182.2l-1.5-25.2l13.4,22.1L512.4,182.2L512.4,182.2z M513.6,205.3l-0.4-5.8l20.5-5.4l9.1,13.6l20.8-5.2
		l-56.1-78.3l-13.7,5.6l0.9,79.8L513.6,205.3L513.6,205.3z"/>
	<path class="st11" d="M512.4,182.2l-1.5-25.2l13.4,22.1L512.4,182.2L512.4,182.2z M513.6,205.3l-0.4-5.8l20.5-5.4l9.1,13.6
		l20.8-5.2l-56.1-78.3l-13.7,5.6l0.9,79.8L513.6,205.3L513.6,205.3z"/>
	<path class="st5" d="M348.9,158.7c-3.1,0.3-4,1.8-1.5,5.2l3.7,5.1c-3.6,0.4-5.3,0.6-8.8,1l-3.4-4.6c-5.5-7.6-4.2-12.6,5.3-13.5
		c9.3-0.9,17.9,2.9,23.6,10.3c8.8,11.5-4.1,21.4,1.1,30.5c0.2,0.3,0.5,0.7,0.8,1c7.2-0.8,10.7-1.2,18.4-2l4.9,6.8
		c-9.3,0.9-18.6,2-27.9,3.1l-4.2-5.8c-9.3-10.3,5.2-21.6-3-32.2C354.8,159.5,352,158.3,348.9,158.7"/>
	<path class="st12" d="M348.9,158.7c-3.1,0.3-4,1.8-1.5,5.2l3.7,5.1c-3.6,0.4-5.3,0.6-8.8,1l-3.4-4.6c-5.5-7.6-4.2-12.6,5.3-13.5
		c9.3-0.9,17.9,2.9,23.6,10.3c8.8,11.5-4.1,21.4,1.1,30.5c0.2,0.3,0.5,0.7,0.8,1c7.2-0.8,10.7-1.2,18.4-2l4.9,6.8
		c-9.3,0.9-18.6,2-27.9,3.1l-4.2-5.8c-9.3-10.3,5.2-21.6-3-32.2C354.8,159.5,352,158.3,348.9,158.7L348.9,158.7z"/>
	<path class="st5" d="M329.5,169.9l6.5-14.7c0,0,8.2-7.5,22.1-0.3c11.7,6.1,12.1,15.2,12.1,15.4c0,0.1,0.2,2.4-0.5,5.8
		c-1.1,5.2-3.2,12.4-2.6,14.1c1,2.8,1.9,3.8,1.9,3.8l18.3-2l4.9,6.8l-5.7,12.9l-11.2-2.9l-17.9-0.5l0.8-24.6l-4.4-10.4l-11.3-4.3
		L329.5,169.9L329.5,169.9z"/>
	<path class="st12" d="M329.5,169.9l6.5-14.7c0,0,8.2-7.5,22.1-0.3c11.7,6.1,12.1,15.2,12.1,15.4c0,0.1,0.2,2.4-0.5,5.8
		c-1.1,5.2-3.2,12.4-2.6,14.1c1,2.8,1.9,3.8,1.9,3.8l18.3-2l4.9,6.8l-5.7,12.9l-11.2-2.9l-17.9-0.5l0.8-24.6l-4.4-10.4l-11.3-4.3
		L329.5,169.9L329.5,169.9z"/>
	<path class="st5" d="M344.5,182.4l-8.6,1l4.4-12.9l7.6,1.8L344.5,182.4z"/>
	<path class="st12" d="M344.5,182.4l-8.6,1l4.4-12.9l7.6,1.8L344.5,182.4z"/>
	<path class="st9" d="M342.9,171.8c-3.1,0.3-4,1.8-1.5,5.2c1.5,2,2.2,3.1,3.7,5.1c-3.6,0.4-5.3,0.6-8.8,1l-3.4-4.6
		c-5.5-7.6-4.2-12.6,5.3-13.5c9.3-0.9,17.9,2.9,23.6,10.3c8.8,11.5-4.1,21.4,1.1,30.5c0.2,0.3,0.5,0.7,0.8,1
		c7.2-0.8,10.7-1.2,18.5-2l4.9,6.8c-9.3,0.9-18.6,2-27.9,3.1c-1.7-2.3-2.5-3.5-4.2-5.8c-9.3-10.3,5.2-21.6-3-32.2
		C348.8,172.6,346,171.5,342.9,171.8"/>
	<path class="st12" d="M342.9,171.8c-3.1,0.3-4,1.8-1.5,5.2c1.5,2,2.2,3.1,3.7,5.1c-3.6,0.4-5.3,0.6-8.8,1l-3.4-4.6
		c-5.5-7.6-4.2-12.6,5.3-13.5c9.3-0.9,17.9,2.9,23.6,10.3c8.8,11.5-4.1,21.4,1.1,30.5c0.2,0.3,0.5,0.7,0.8,1
		c7.2-0.8,10.7-1.2,18.5-2l4.9,6.8c-9.3,0.9-18.6,2-27.9,3.1c-1.7-2.3-2.5-3.5-4.2-5.8c-9.3-10.3,5.2-21.6-3-32.2
		C348.8,172.6,346,171.5,342.9,171.8L342.9,171.8z"/>
	<g>
		<path class="st5" d="M381.8,204.5l5.9-12.7"/>
		<path class="st12" d="M381.8,204.5l5.9-12.7"/>
	</g>
	<g>
		<path class="st5" d="M433.4,22.5c0.4,13.4,18.8,13,18.1,26.9l0.4,7.2c-8,5-15.9,10.1-23.7,15.2l-0.5-8.4
			c6.6-4.3,9.5-6.2,15.6-10.1c0.1-0.5,0.1-0.9,0-1.3c-1.7-10.3-18.1-9.8-18.5-24.4c-0.3-9.3,4.1-17.8,11.9-22.9
			c8-5.3,12.2-2.2,12.7,7.2l0.3,5.7c-2.5,1.6-5,3.2-7.5,4.8c-0.1-2.5-0.2-3.8-0.3-6.3c-0.2-4.2-1.9-4.8-4.5-3.1
			C434.7,14.6,433.3,17.3,433.4,22.5"/>
		<path class="st12" d="M433.4,22.5c0.4,13.4,18.8,13,18.1,26.9l0.4,7.2c-8,5-15.9,10.1-23.7,15.2l-0.5-8.4
			c6.6-4.3,9.5-6.2,15.6-10.1c0.1-0.5,0.1-0.9,0-1.3c-1.7-10.3-18.1-9.8-18.5-24.4c-0.3-9.3,4.1-17.8,11.9-22.9
			c8-5.3,12.2-2.2,12.7,7.2l0.3,5.7c-2.5,1.6-5,3.2-7.5,4.8c-0.1-2.5-0.2-3.8-0.3-6.3c-0.2-4.2-1.9-4.8-4.5-3.1
			C434.7,14.6,433.3,17.3,433.4,22.5L433.4,22.5z"/>
		<path class="st5" d="M458.7,9.3L444.3,2c0,0-11.1-0.7-17.4,13.8c-5.3,12.1,0.2,19.4,0.3,19.6c0.1,0.1,1.4,2,4,4.1
			c4.1,3.3,10.3,7.6,10.9,9.3c1,2.8,0.9,4.1,0.9,4.1L427.5,63l0.5,8.4l12.5,6.4l6.9-9.3L461,56.8l-16-18.5l-3.1-10.9l6.1-10.5
			L458.7,9.3L458.7,9.3z"/>
		<path class="st12" d="M458.7,9.3L444.3,2c0,0-11.1-0.7-17.4,13.8c-5.3,12.1,0.2,19.4,0.3,19.6c0.1,0.1,1.4,2,4,4.1
			c4.1,3.3,10.3,7.6,10.9,9.3c1,2.8,0.9,4.1,0.9,4.1L427.5,63l0.5,8.4l12.5,6.4l6.9-9.3L461,56.8l-16-18.5l-3.1-10.9l6.1-10.5
			L458.7,9.3L458.7,9.3z"/>
		<path class="st5" d="M454.9,28.4l7.4-4.9l-11.4-7l-4.9,6.3L454.9,28.4z"/>
		<path class="st12" d="M454.9,28.4l7.4-4.9l-11.4-7l-4.9,6.3L454.9,28.4z"/>
		<path class="st9" d="M446.6,28.5c0.4,13.4,18.8,13,18.1,26.9c0.2,2.9,0.2,4.3,0.4,7.2c-8,5-15.9,10.1-23.7,15.2l-0.5-8.4
			c6.6-4.3,9.5-6.2,15.6-10.1c0.1-0.5,0.1-0.9,0-1.3c-1.7-10.3-18.1-9.8-18.5-24.4c-0.3-9.3,4.1-17.8,11.9-22.9
			c8-5.3,12.2-2.2,12.7,7.2c0.1,2.3,0.2,3.4,0.3,5.7c-2.5,1.6-5,3.2-7.5,4.8l-0.3-6.3c-0.2-4.2-1.9-4.8-4.5-3.1
			C447.9,20.7,446.4,23.3,446.6,28.5"/>
		<path class="st12" d="M446.6,28.5c0.4,13.4,18.8,13,18.1,26.9c0.2,2.9,0.2,4.3,0.4,7.2c-8,5-15.9,10.1-23.7,15.2l-0.5-8.4
			c6.6-4.3,9.5-6.2,15.6-10.1c0.1-0.5,0.1-0.9,0-1.3c-1.7-10.3-18.1-9.8-18.5-24.4c-0.3-9.3,4.1-17.8,11.9-22.9
			c8-5.3,12.2-2.2,12.7,7.2c0.1,2.3,0.2,3.4,0.3,5.7c-2.5,1.6-5,3.2-7.5,4.8l-0.3-6.3c-0.2-4.2-1.9-4.8-4.5-3.1
			C447.9,20.7,446.4,23.3,446.6,28.5L446.6,28.5z"/>
		<path class="st5" d="M440.8,69.7l-12.4-6.4"/>
		<path class="st12" d="M440.8,69.7l-12.4-6.4"/>
	</g>
</g>
<g>
	<path class="st13" d="M590.3,539.5c0,8.8-16.9,16-37.8,16s-37.8-7.2-37.8-16s16.9-16,37.8-16S590.3,530.7,590.3,539.5L590.3,539.5z
		"/>
	<path class="st9" d="M578.4,531.1c-8.7-14.4-17.4-28.8-26-43.2c0.1-15.6,0.1-31.2,0.1-46.8c-19.1-13.4-38.9-3.8-38.4,20
		c0.6,25.5,16,54.5,38.2,65.6c0.9,0.4,1.7,0.9,2.6,1.3l7,11.6L578.4,531.1L578.4,531.1z"/>
	<path class="st14" d="M578.4,531.1c-8.7-14.4-17.4-28.8-26-43.2c0.1-15.6,0.1-31.2,0.1-46.8c-19.1-13.4-38.9-3.8-38.4,20
		c0.6,25.5,16,54.5,38.2,65.6c0.9,0.4,1.7,0.9,2.6,1.3l7,11.6L578.4,531.1L578.4,531.1z"/>
	<path class="st5" d="M536,496.2c0.1-15.6,0.1-31.2,0.1-46.8c-19.1-13.4-38.9-3.8-38.4,20c0.6,25.5,16,54.5,38.2,65.6
		c7.5,3.8,17,8,26,4.5C553.3,525,544.6,510.7,536,496.2"/>
	<path class="st14" d="M536,496.2c0.1-15.6,0.1-31.2,0.1-46.8c-19.1-13.4-38.9-3.8-38.4,20c0.6,25.5,16,54.5,38.2,65.6
		c7.5,3.8,17,8,26,4.5C553.3,525,544.6,510.7,536,496.2z"/>
	<path class="st5" d="M508.1,446.2c0,0,19.1-9.9,20.8-10.4c1.7-0.5,13.5-3.6,23.6,5.1l-16.4,8.4
		C536.1,449.4,525.2,438.9,508.1,446.2"/>
	<path class="st14" d="M508.1,446.2c0,0,19.1-9.9,20.8-10.4c1.7-0.5,13.5-3.6,23.6,5.1l-16.4,8.4
		C536.1,449.4,525.2,438.9,508.1,446.2z"/>
	<path class="st5" d="M593.9,472c-1.1-2.6-2.3-5.2-3.7-7.6l0,0h0c-1.6-2.9-3.3-5.8-5.1-8.5c-6-9-13.6-17.2-22.4-23.5v0l-0.2-0.1
		c-0.7-0.5-1.4-1-2.1-1.5l-16.4,8.4c1.2,3,10.9,10.7,16.5,15c0,7.8,0,15.6,0,23.5c5.1-0.2,10.1-0.4,15.2-0.7l3,6.7l16.4-8.4
		C594.7,474.1,594.3,473,593.9,472"/>
	<path class="st14" d="M593.9,472c-1.1-2.6-2.3-5.2-3.7-7.6l0,0h0c-1.6-2.9-3.3-5.8-5.1-8.5c-6-9-13.6-17.2-22.4-23.5v0l-0.2-0.1
		c-0.7-0.5-1.4-1-2.1-1.5l-16.4,8.4c1.2,3,10.9,10.7,16.5,15c0,7.8,0,15.6,0,23.5c5.1-0.2,10.1-0.4,15.2-0.7l3,6.7l16.4-8.4
		C594.7,474.1,594.3,473,593.9,472L593.9,472z"/>
	<path class="st5" d="M578.7,483.5c-0.4-1-0.8-2.1-1.2-3.1c-1.4-3.4-4.3-9.5-8.8-16.2c-6.5-9.7-14.8-18.6-24.7-25.1
		c0.1,15.6,0.1,31.2,0.1,46.8C555.7,485.4,567.3,484.9,578.7,483.5"/>
	<path class="st14" d="M578.7,483.5c-0.4-1-0.8-2.1-1.2-3.1c-1.4-3.4-4.3-9.5-8.8-16.2c-6.5-9.7-14.8-18.6-24.7-25.1
		c0.1,15.6,0.1,31.2,0.1,46.8C555.7,485.4,567.3,484.9,578.7,483.5z"/>
	<path class="st9" d="M598.7,486c-11.4,1.5-23,2-34.5,2.5l-16.4,8.4l20.7-1.1c5.1,8.4,10.2,16.9,15.2,25.4l-10.4,2.4v16.1
		c0,0,8.4-1.9,16.8-6.2c0.1,0,0.4-0.2,0.5-0.2c8.7-4.7,11.1-18.3,11.7-26.5C602.9,500.4,601.2,492.9,598.7,486"/>
	<path class="st14" d="M598.7,486c-11.4,1.5-23,2-34.5,2.5l-16.4,8.4l20.7-1.1c5.1,8.4,10.2,16.9,15.2,25.4l-10.4,2.4v16.1
		c0,0,8.4-1.9,16.8-6.2c0.1,0,0.4-0.2,0.5-0.2c8.7-4.7,11.1-18.3,11.7-26.5C602.9,500.4,601.2,492.9,598.7,486L598.7,486z"/>
	<path class="st5" d="M582.3,494.3c-11.4,1.5-23,2-34.5,2.5c8.5,14.2,17.2,28.4,25.6,42.7c10-4.2,11.9-15.9,12.6-24.5
		C586.5,508.8,584.8,501.3,582.3,494.3"/>
	<path class="st14" d="M582.3,494.3c-11.4,1.5-23,2-34.5,2.5c8.5,14.2,17.2,28.4,25.6,42.7c10-4.2,11.9-15.9,12.6-24.5
		C586.5,508.8,584.8,501.3,582.3,494.3L582.3,494.3z"/>
	<path class="st5" d="M582.3,494.3l16.4-8.4"/>
	<path class="st14" d="M582.3,494.3l16.4-8.4"/>
</g>
</svg>
