<svg width="1440" height="1279" viewBox="0 0 1440 1279" fill="none" xmlns="http://www.w3.org/2000/svg">
<path opacity="0.110451" d="M-434.081 559.214C-281.512 430.931 -50.348 213.238 296.398 248.224C643.145 283.211 814.224 524.228 934.411 668.061C1054.6 811.893 827.403 1181.19 277.232 1181.19C-272.939 1181.19 -434.081 1095.67 -434.081 1095.67" stroke="black"/>
<path opacity="0.110451" d="M-435.229 482.36C-248.261 326.895 35.0253 63.0745 459.954 105.474C884.883 147.874 1094.54 439.961 1241.82 614.27C1389.11 788.58 1110.69 1236.13 436.466 1236.13C-237.754 1236.13 -435.229 1132.49 -435.229 1132.49" stroke="black"/>
<path opacity="0.110451" d="M-475.431 430.09C-247.96 255.208 96.6913 -41.5604 613.669 6.1346C1130.65 53.8295 1385.72 382.395 1564.91 578.474C1744.1 774.553 1405.36 1278 585.093 1278C-235.178 1278 -475.431 1161.41 -475.431 1161.41" stroke="black"/>
<path fill-rule="evenodd" clip-rule="evenodd" d="M362.85 504.198C388.55 502.528 413.983 511.369 437.88 532.136C481.29 569.862 519.605 633.473 498.192 673.276C482.689 702.096 457.085 723.696 428.202 740.116C402.164 754.919 370.077 771.29 334.79 770.8C312.73 770.496 287.66 763.177 266.882 747.431C248.006 733.124 234.191 713.068 225.838 693.185C194.788 619.278 202.997 523.238 281.658 513.793C292.509 512.491 303.444 510.955 314.432 509.473C330.491 507.305 346.662 505.25 362.85 504.198Z" fill="#F6F6FB"/>
<path fill-rule="evenodd" clip-rule="evenodd" d="M1207.91 1038.43C1204.29 1055.22 1193.97 1069.92 1176.28 1081.46C1144.14 1102.42 1096.33 1115.37 1074.7 1094.36C1059.04 1079.15 1049.86 1058.78 1044.6 1037.25C1039.86 1017.83 1035.22 994.257 1041.98 971.707C1046.21 957.609 1055.48 942.862 1069.38 932.408C1082.01 922.912 1097.4 917.714 1111.69 915.988C1164.78 909.572 1224.9 932.388 1216.59 984.581C1215.44 991.781 1214.43 999.077 1213.38 1006.4C1211.83 1017.1 1210.2 1027.85 1207.91 1038.43Z" fill="#F6F6FB"/>
</svg>
