<svg width="110" height="110" viewBox="0 0 110 110" fill="none" xmlns="http://www.w3.org/2000/svg">
<g clip-path="url(#clip0)">
<path d="M82.374 52.7532C80.9625 50.291 80.2875 49.0599 78.9375 46.5976C78.017 44.8741 76.3601 43.8276 75.2555 44.2585C71.0212 45.6743 68.9347 46.4745 64.8846 48.0134C65.0687 34.7174 65.2528 21.4829 65.4369 8.1869C65.4369 6.64801 64.3323 4.73978 62.9209 3.93956C60.8958 2.77 59.8525 2.15445 57.8275 0.984888C56.416 0.184664 55.2501 0.80022 55.2501 2.33911C55.1273 15.6351 54.9432 28.9312 54.8205 42.2272C51.5681 37.1181 48.3771 32.0705 45.1246 26.9614C44.0814 25.3609 42.5473 24.5607 41.6268 25.1763C40.3381 26.0996 39.6631 26.5921 38.313 27.5154C37.3925 28.1309 37.5152 29.9776 38.5585 31.6396C45.0019 41.8579 51.4454 52.0761 57.9502 62.2943C58.8707 63.7717 60.2821 64.5719 61.264 64.2026C68.137 61.4941 75.0714 58.9703 82.0671 56.5697C83.2331 56.2003 83.3558 54.4768 82.374 52.7532Z" fill="white" stroke="black" stroke-width="2" stroke-miterlimit="10" stroke-linejoin="round"/>
<path d="M88.5717 91.5948C69.7937 81.0073 51.0769 70.3581 32.483 59.4628C31.1329 58.6626 30.0283 59.2781 30.0283 60.817C30.0283 63.033 30.0283 64.2026 30.0283 66.4186C30.0283 67.9575 31.1329 69.8657 32.483 70.6659C51.0769 81.5613 69.7937 92.2104 88.5717 102.736C90.1672 103.66 91.5173 103.106 91.5173 101.567C91.5173 99.3509 91.5173 98.1813 91.5173 95.9653C91.5173 94.488 90.1672 92.5182 88.5717 91.5948Z" fill="white" stroke="black" stroke-width="2" stroke-miterlimit="10" stroke-linejoin="round"/>
<path d="M79.3051 109.261C79.3051 109.261 90.7806 103.167 90.9647 102.983C91.1488 102.736 91.4556 102.675 91.4556 100.52C91.4556 98.366 91.4556 96.9502 91.4556 95.596C91.4556 95.1035 91.3329 93.7493 89.2464 92.1488C86.4236 89.9328 34.0782 60.2014 31.5622 59.2166C29.4757 58.4163 19.0435 65.6799 19.0435 65.6799L79.3051 109.261Z" fill="#9595EF" stroke="black" stroke-width="2" stroke-miterlimit="10" stroke-linejoin="round"/>
<path d="M45.0013 6.83268L56.0472 0.800224C56.4768 0.554001 56.9677 0.554001 57.3973 0.800224C58.0723 1.108 59.2383 1.78511 61.4474 3.13934C65.4976 5.66312 65.4976 6.70957 65.4362 8.24846L64.8839 45.9205C64.8839 46.967 65.8658 47.6441 66.8477 47.3363C69.6705 46.2899 74.5798 44.5048 75.1321 44.2585C75.9299 43.9508 77.7095 44.5663 78.8141 46.5976C79.9801 48.629 81.821 51.7683 82.2506 52.7532C82.6802 53.7381 83.0484 54.4152 82.9256 55.4617C82.8029 56.385 73.4752 61.2479 71.1433 62.4175C70.8365 62.6021 70.4069 62.6021 70.0387 62.5406L49.1128 56.385C48.9287 56.3234 48.806 56.2619 48.6219 56.1388L37.8828 47.7672C37.7601 47.6441 37.6373 47.521 37.5146 47.3979L29.1688 33.8556C28.7392 33.1785 28.9847 32.2552 29.6597 31.8243L42.9148 23.5758C43.3444 23.3296 43.5899 22.8987 43.5899 22.4063L44.2035 8.06379C44.2649 7.50979 44.5717 7.0789 45.0013 6.83268Z" fill="#9595EF" stroke="black" stroke-width="2" stroke-miterlimit="10" stroke-linejoin="round"/>
<path d="M70.9591 58.9088C69.5477 56.4466 68.8726 55.2155 67.5226 52.7532C66.6021 51.0297 64.9452 49.9832 63.8406 50.4141C59.6677 51.8914 57.5812 52.6917 53.5311 54.2306C53.7152 40.9345 53.8993 27.7001 54.0834 14.404C54.0834 12.8651 52.9788 10.9569 51.5673 10.1567C49.5423 8.98714 48.499 8.37158 46.4739 7.20202C45.0625 6.4018 43.8966 7.01735 43.8966 8.55625C43.7738 21.8523 43.5897 35.1483 43.467 48.4443C40.2146 43.3352 37.0235 38.2876 33.7711 33.1785C32.7279 31.5781 31.1937 30.7778 30.2733 31.3934C28.9846 32.3167 28.3095 32.8092 26.9595 33.7325C26.039 34.3481 26.1617 36.1947 27.2049 37.8568C33.6484 47.9519 40.0919 58.2317 46.5353 68.3884C47.4558 69.8657 48.8672 70.6659 49.8491 70.2966C56.7221 67.5881 63.6565 65.0644 70.6523 62.6637C71.8182 62.2944 71.9409 60.5708 70.9591 58.9088Z" fill="white" stroke="black" stroke-width="2" stroke-miterlimit="10" stroke-linejoin="round"/>
<path d="M77.2185 97.7504C58.4405 87.1629 39.7238 76.4522 21.0684 65.6184C19.7184 64.8181 18.6138 65.4337 18.6138 66.9726C18.6138 69.1886 18.6138 70.3581 18.6138 72.5742C18.6138 74.113 19.7184 76.0213 21.0684 76.8215C39.6624 87.7169 58.3791 98.366 77.1572 108.892C78.7527 109.815 80.1028 109.261 80.1028 107.722C80.1028 105.506 80.1028 104.337 80.1028 102.121C80.1028 100.644 78.8141 98.6122 77.2185 97.7504Z" fill="white" stroke="black" stroke-width="2" stroke-miterlimit="10" stroke-linejoin="round"/>
<path d="M63.7798 50.3526L75.1939 44.197" stroke="black" stroke-width="2" stroke-miterlimit="10" stroke-linejoin="round"/>
<path d="M53.5923 12.3727L64.5768 5.54001" stroke="black" stroke-width="2" stroke-miterlimit="10" stroke-linejoin="round"/>
</g>
<defs>
<clipPath id="clip0">
<rect width="74.1304" height="110" fill="white" transform="translate(18)"/>
</clipPath>
</defs>
</svg>
