<svg version="1.2" baseProfile="tiny-ps" xmlns="http://www.w3.org/2000/svg" viewBox="0 0 86 94" width="86" height="94">
	<title>icon-mvp-svg</title>
	<defs>
		<clipPath clipPathUnits="userSpaceOnUse" id="cp1">
			<path d="M16 21L72 21L72 77L16 77L16 21Z" />
		</clipPath>
	</defs>
	<style>
		tspan { white-space:pre }
		.shp0 { fill: #f3f3ff } 
		.shp1 { fill: #8585ff } 
	</style>
	<path id="Layer" fill-rule="evenodd" class="shp0" d="M84.43 38.58C87.94 51.57 79.17 68.95 73.49 76.73C62.11 92.28 28.04 106.42 9.22 65.71C-3.27 38.68 -0.75 17.66 15.53 7.46C33.9 -4.04 38.68 1.77 58.52 9.78C68.19 13.68 80.93 25.58 84.43 38.58Z" />
	<g id="Clip-Path" clip-path="url(#cp1)">
		<g id="Layer">
			<path id="Layer" fill-rule="evenodd" class="shp1" d="M70.36 25.15C71.27 25.15 72 25.88 72 26.79L72 66.52C72 67.43 71.27 68.16 70.36 68.16L51.21 68.16L53.12 72.74L54.14 72.74C55.05 72.74 55.78 73.48 55.78 74.38C55.78 75.29 55.05 76.02 54.14 76.02L33.86 76.02C32.95 76.02 32.22 75.29 32.22 74.38C32.22 73.48 32.95 72.74 33.86 72.74L34.88 72.74L36.79 68.16L17.64 68.16C16.73 68.16 16 67.43 16 66.52L16 26.79C16 25.88 16.73 25.15 17.64 25.15L33.11 25.15L34.02 22.98C34.27 22.37 34.87 21.98 35.53 21.98C35.53 21.98 35.54 21.98 35.54 21.98C36.2 21.98 36.8 22.38 37.05 23L37.92 25.15L43.62 25.15L43.62 23.62C43.62 22.71 44.35 21.98 45.26 21.98L55.81 21.98C56.72 21.98 57.46 22.71 57.46 23.62L57.46 25.15L70.36 25.15ZM46.9 56.89L54.17 56.89L54.17 25.26L46.9 25.26L46.9 30.71L49.25 30.71C50.16 30.71 50.89 31.44 50.89 32.35C50.89 33.25 50.16 33.99 49.25 33.99L46.9 33.99L46.9 39.44L49.25 39.44C50.16 39.44 50.89 40.17 50.89 41.08C50.89 41.98 50.16 42.72 49.25 42.72L46.9 42.72L46.9 48.17L49.25 48.17C50.16 48.17 50.89 48.9 50.89 49.81C50.89 50.71 50.16 51.45 49.25 51.45L46.9 51.45L46.9 56.89ZM39.25 28.43L40.27 30.93C40.35 31.12 40.39 31.33 40.39 31.54L40.39 56.89L43.62 56.89L43.62 28.43L39.25 28.43ZM33.83 56.89L37.11 56.89L37.11 34.5C36.58 34.65 36.04 34.73 35.47 34.73C34.91 34.73 34.36 34.65 33.84 34.5L33.83 56.89ZM34.17 31.09C34.56 31.32 35.01 31.45 35.47 31.45C35.95 31.45 36.4 31.32 36.79 31.09L35.5 27.91L34.17 31.09ZM19.28 56.89L30.55 56.89L30.56 31.54C30.56 31.32 30.6 31.11 30.69 30.91L31.73 28.43L19.28 28.43L19.28 56.89ZM49.56 72.74L47.65 68.16L40.35 68.16L38.44 72.74L49.56 72.74ZM68.72 60.17L19.28 60.17L19.28 64.88L68.72 64.88L68.72 60.17ZM68.72 28.43L57.46 28.43L57.46 56.89L68.72 56.89L68.72 28.43Z" />
		</g>
	</g>
</svg>