<svg width="147" height="134" viewBox="0 0 147 134" fill="none" xmlns="http://www.w3.org/2000/svg">
<path fill-rule="evenodd" clip-rule="evenodd" d="M73.5291 34.8432C95.0011 41.0037 107.232 21.5476 120.665 47.0568C134.097 72.5659 120.699 90.1465 80.5784 112.928C40.4575 135.71 23.3969 102.901 21.9757 80.0771C21.265 68.6647 23.084 45.9161 33.1365 35.9164C43.1892 25.917 63.067 31.8413 73.5291 34.8432" fill="#8585FF"/>
<path d="M54.232 61.6959C54.232 57.6639 55.264 54.5439 57.328 52.3359C59.392 50.1279 62.368 49.0239 66.256 49.0239C70.144 49.0239 73.12 50.1279 75.184 52.3359C77.248 54.5439 78.28 57.6639 78.28 61.6959V87.9039C78.28 91.9359 77.248 95.0559 75.184 97.2639C73.12 99.4719 70.144 100.576 66.256 100.576C62.368 100.576 59.392 99.4719 57.328 97.2639C55.264 95.0559 54.232 91.9359 54.232 87.9039V61.6959ZM62.152 88.4079C62.152 91.7199 63.52 93.3759 66.256 93.3759C68.992 93.3759 70.36 91.7199 70.36 88.4079V61.1919C70.36 57.8799 68.992 56.2239 66.256 56.2239C63.52 56.2239 62.152 57.8799 62.152 61.1919V88.4079ZM99.6229 61.9839C99.6229 59.8239 99.2629 58.3359 98.5429 57.5199C97.8709 56.6559 96.8629 56.2239 95.5189 56.2239C92.7829 56.2239 91.4149 57.8799 91.4149 61.1919V66.5919H83.9269V61.6959C83.9269 57.6159 84.9349 54.4959 86.9509 52.3359C88.9669 50.1279 91.8949 49.0239 95.7349 49.0239C99.5749 49.0239 102.503 50.1279 104.519 52.3359C106.535 54.4959 107.543 57.6159 107.543 61.6959C107.543 64.5279 107.063 67.1439 106.103 69.5439C105.191 71.8959 104.087 73.9359 102.791 75.6639C101.495 77.3919 99.8149 79.3839 97.7509 81.6399C95.6869 83.9439 94.1749 85.8159 93.2149 87.2559C92.2549 88.6959 91.7749 90.1839 91.7749 91.7199C91.7749 92.1999 91.7989 92.5599 91.8469 92.7999H106.823V99.9999H83.9269V93.8079C83.9269 91.4559 84.2869 89.3679 85.0069 87.5439C85.7269 85.6719 86.6149 84.0399 87.6709 82.6479C88.7269 81.2559 90.1189 79.6239 91.8469 77.7519C93.6229 75.7839 95.0149 74.1519 96.0229 72.8559C97.0309 71.5119 97.8709 69.9279 98.5429 68.1039C99.2629 66.2799 99.6229 64.2399 99.6229 61.9839Z" fill="#FAFAFE"/>
<path d="M131.143 94.2922L145.177 108.443L125.743 114.114L131.143 94.2922Z" stroke="#DFDEF4" stroke-width="3" stroke-linejoin="round"/>
</svg>
