<svg version="1.2" baseProfile="tiny-ps" xmlns="http://www.w3.org/2000/svg" viewBox="0 0 98 96" width="98" height="96">
	<title>icon-risks-svg</title>
	<defs>
		<clipPath clipPathUnits="userSpaceOnUse" id="cp1">
			<path d="M20 17L76 17L76 73L20 73L20 17Z" />
		</clipPath>
	</defs>
	<style>
		tspan { white-space:pre }
		.shp0 { fill: #f3f3ff } 
		.shp1 { fill: #8585ff } 
	</style>
	<path id="Layer" fill-rule="evenodd" class="shp0" d="M56.44 93.47C43.44 96.98 28.34 84.92 20.56 79.23C5.01 67.86 -14.51 44.54 23.4 10.7C44.53 -8.14 82.59 8.86 92.79 25.14C104.29 43.51 88.52 44.43 80.51 64.27C76.6 73.93 69.43 89.96 56.44 93.47Z" />
	<g id="Clip-Path" clip-path="url(#cp1)">
		<g id="Layer">
			<path id="Layer" fill-rule="evenodd" class="shp1" d="M76 40.9C76 42.16 75.52 43.31 74.74 44.18C75.52 45.05 76 46.2 76 47.46C76 50.17 73.79 52.38 71.08 52.38L67.8 52.38C66.89 52.38 66.16 51.65 66.16 50.74L66.16 37.62C66.16 36.71 66.89 35.98 67.8 35.98L71.08 35.98C73.79 35.98 76 38.18 76 40.9ZM69.44 42.54L71.08 42.54C71.98 42.54 72.72 41.8 72.72 40.9C72.72 39.99 71.98 39.26 71.08 39.26L69.44 39.26L69.44 42.54ZM72.72 47.46C72.72 46.56 71.98 45.82 71.08 45.82L69.44 45.82L69.44 49.1L71.08 49.1C71.98 49.1 72.72 48.37 72.72 47.46Z" />
			<path id="Layer" fill-rule="evenodd" class="shp1" d="M20 50.74L20 40.9C20 38.18 22.21 35.98 24.92 35.98C27.64 35.98 29.84 38.18 29.84 40.9L29.84 50.74C29.84 51.65 29.11 52.38 28.2 52.38C27.3 52.38 26.56 51.65 26.56 50.74L26.56 45.82L23.28 45.82L23.28 50.74C23.28 51.65 22.55 52.38 21.64 52.38C20.73 52.38 20 51.65 20 50.74ZM23.28 40.9L23.28 42.54L26.56 42.54L26.56 40.9C26.56 39.99 25.83 39.26 24.92 39.26C24.02 39.26 23.28 39.99 23.28 40.9Z" />
			<path id="Layer" fill-rule="evenodd" class="shp1" d="M24.92 31.05C22.21 31.05 20 28.85 20 26.13C20 23.42 22.21 21.21 24.92 21.21C27.06 21.21 28.88 22.58 29.56 24.49L69.44 24.49L66.81 22.52C66.09 21.98 65.94 20.95 66.48 20.23C67.03 19.5 68.06 19.36 68.78 19.9L75.34 24.82C76.21 25.47 76.23 26.78 75.34 27.45L68.78 32.37C68.05 32.91 67.03 32.76 66.48 32.04C65.94 31.31 66.09 30.29 66.81 29.74L69.44 27.77L29.56 27.77C28.88 29.68 27.06 31.05 24.92 31.05ZM23.28 26.13C23.28 27.04 24.02 27.77 24.92 27.77C25.83 27.77 26.56 27.04 26.56 26.13C26.56 25.23 25.83 24.49 24.92 24.49C24.02 24.49 23.28 25.23 23.28 26.13Z" />
			<path id="Layer" fill-rule="evenodd" class="shp1" d="M75.34 60.91C76.23 61.58 76.2 62.89 75.34 63.54L68.78 68.46C68.49 68.68 68.14 68.79 67.8 68.79C67.3 68.79 66.81 68.56 66.48 68.13C65.94 67.41 66.09 66.38 66.81 65.84L69.44 63.87L62.66 63.87L62.66 65.51C62.66 68.22 60.45 70.43 57.73 70.43C55.02 70.43 52.81 68.22 52.81 65.51C52.81 62.79 55.02 60.59 57.73 60.59L59.09 60.59C58.42 58.68 56.59 57.3 54.45 57.3L52.81 57.3L52.81 58.95C52.81 61.66 50.6 63.87 47.89 63.87L42.97 63.87L42.97 65.51C42.97 68.22 40.76 70.43 38.05 70.43C35.33 70.43 33.13 68.22 33.13 65.51L33.13 63.87L29.56 63.87C28.88 65.78 27.06 67.15 24.92 67.15C22.21 67.15 20 64.94 20 62.23C20 59.51 22.21 57.3 24.92 57.3C27.06 57.3 28.88 58.68 29.56 60.59L33.13 60.59L33.13 55.66C33.13 51.14 36.8 47.46 41.33 47.46L44.61 47.46C48.57 47.46 51.89 50.28 52.65 54.02L54.45 54.02C58.41 54.02 61.73 56.85 62.49 60.59L69.44 60.59L66.81 58.62C66.09 58.07 65.94 57.05 66.48 56.32C67.03 55.6 68.06 55.45 68.78 55.99L75.34 60.91ZM26.56 62.23C26.56 61.32 25.83 60.59 24.92 60.59C24.02 60.59 23.28 61.32 23.28 62.23C23.28 63.13 24.02 63.87 24.92 63.87C25.83 63.87 26.56 63.13 26.56 62.23ZM39.69 63.87L36.41 63.87L36.41 65.51C36.41 66.41 37.14 67.15 38.05 67.15C38.95 67.15 39.69 66.41 39.69 65.51L39.69 63.87ZM47.89 54.02L49.25 54.02C48.57 52.11 46.75 50.74 44.61 50.74L41.33 50.74C38.61 50.74 36.41 52.95 36.41 55.66L36.41 60.59L39.85 60.59C40.61 56.85 43.93 54.02 47.89 54.02ZM49.53 57.3L47.89 57.3C45.75 57.3 43.93 58.68 43.25 60.59L47.89 60.59C48.8 60.59 49.53 59.85 49.53 58.95L49.53 57.3ZM59.38 63.87L57.73 63.87C56.83 63.87 56.09 64.6 56.09 65.51C56.09 66.41 56.83 67.15 57.73 67.15C58.64 67.15 59.38 66.41 59.38 65.51L59.38 63.87Z" />
		</g>
	</g>
</svg>