<svg width="133" height="124" viewBox="0 0 133 124" fill="none" xmlns="http://www.w3.org/2000/svg">
<path fill-rule="evenodd" clip-rule="evenodd" d="M93.4446 45.0223C101.777 65.6362 124.438 63.1033 112.757 89.4598C101.077 115.816 79.1652 116.272 36.8453 99.0711C-5.47465 81.8703 9.68062 48.1397 26.6155 32.8411C35.0832 25.1915 53.9418 12.4727 67.893 14.1148C81.8441 15.7573 89.385 34.9781 93.4446 45.0223Z" fill="#8585FF"/>
<path d="M41.232 47.8806C41.232 43.8486 42.264 40.7286 44.328 38.5206C46.392 36.3126 49.368 35.2086 53.256 35.2086C57.144 35.2086 60.12 36.3126 62.184 38.5206C64.248 40.7286 65.28 43.8486 65.28 47.8806V74.0886C65.28 78.1206 64.248 81.2406 62.184 83.4486C60.12 85.6566 57.144 86.7606 53.256 86.7606C49.368 86.7606 46.392 85.6566 44.328 83.4486C42.264 81.2406 41.232 78.1206 41.232 74.0886V47.8806ZM49.152 74.5926C49.152 77.9046 50.52 79.5606 53.256 79.5606C55.992 79.5606 57.36 77.9046 57.36 74.5926V47.3766C57.36 44.0646 55.992 42.4086 53.256 42.4086C50.52 42.4086 49.152 44.0646 49.152 47.3766V74.5926ZM75.8228 42.1206C77.7428 42.1206 79.2548 41.8566 80.3588 41.3286C81.5108 40.7526 82.3508 40.0326 82.8788 39.1686C83.4548 38.3046 84.0068 37.1766 84.5348 35.7846H89.8628V86.1846H81.9428V47.7366H75.8228V42.1206Z" fill="#FAFAFE"/>
<path d="M128.059 33.7953L120.944 43.5085L115.721 32.4494L128.059 33.7953Z" stroke="#DFDEF4" stroke-width="3" stroke-linejoin="round"/>
</svg>
