<svg width="96" height="82" viewBox="0 0 96 82" fill="none" xmlns="http://www.w3.org/2000/svg">
<path fill-rule="evenodd" clip-rule="evenodd" d="M70.1251 19.3861C82.9986 36.4778 100.469 36.7467 94.1151 57.4619C88.4815 75.8297 64.9649 84.7445 35.6254 79.6717C-8.56442 72.0316 -3.73115 35.4577 8.34931 20.445C14.3894 12.9388 28.9056 -0.023786 42.3654 3.27792e-05C55.8253 0.0235778 63.8528 11.0582 70.1251 19.3861Z" fill="#F3F3FF"/>
<path d="M70.3594 54.125C71.2654 54.125 72 53.3904 72 52.4844V44.2812C72 43.3752 71.2654 42.6406 70.3594 42.6406H65.4375V37.7188C65.4375 36.8127 64.7029 36.0781 63.7969 36.0781H51.3514L45.75 30.4767V26.2344H53.9531C54.8592 26.2344 55.5938 25.4998 55.5938 24.5938V14.6406C55.5938 13.7346 54.8592 13 53.9531 13H34.2656C33.3596 13 32.625 13.7346 32.625 14.6406V24.5938C32.625 25.4998 33.3596 26.2344 34.2656 26.2344H42.4688V30.4767L36.8673 36.0781H27.7031C26.7971 36.0781 26.0625 36.8127 26.0625 37.7188V46.0367C23.6039 46.3818 21.3144 47.4987 19.4907 49.2681C17.2397 51.4522 16 54.3423 16 57.4062C16 60.4719 17.2366 63.3785 19.4817 65.5902C21.7137 67.7891 24.6336 69 27.7031 69C34.0356 69 39.1875 63.7991 39.1875 57.4062C39.1875 51.6307 34.9019 46.8381 29.3438 46.0396V39.3594H36.8673L42.9493 45.4414C43.2696 45.7617 43.6895 45.9219 44.1094 45.9219C44.5293 45.9219 44.9492 45.7617 45.2694 45.4414L51.3514 39.3594H62.1562V42.6406H57.2344C56.3283 42.6406 55.5938 43.3752 55.5938 44.2812V52.4844C55.5938 53.3904 56.3283 54.125 57.2344 54.125H62.1562V57.4062H57.2344C56.3283 57.4062 55.5938 58.1408 55.5938 59.0469V67.3594C55.5938 68.2654 56.3283 69 57.2344 69H70.3594C71.2654 69 72 68.2654 72 67.3594V59.0469C72 58.1408 71.2654 57.4062 70.3594 57.4062H65.4375V54.125H70.3594ZM35.9062 16.2812H52.3125V22.9531H35.9062V16.2812ZM35.9062 57.4062C35.9062 61.9897 32.2263 65.7188 27.7031 65.7188C23.138 65.7188 19.2812 61.9121 19.2812 57.4062C19.2812 52.9597 23.138 49.2031 27.7031 49.2031C32.2264 49.2031 35.9062 52.883 35.9062 57.4062ZM44.1094 41.9611L39.867 37.7188L44.1094 33.4764L48.3517 37.7188L44.1094 41.9611ZM68.7188 65.7188H58.875V60.6875H68.7188V65.7188ZM58.875 45.9219H68.7188V50.8438H58.875V45.9219Z" fill="#8585FF"/>
<path d="M20.0184 35.6344C20.6962 36.2701 21.7065 36.1913 22.3003 35.5979L22.3006 35.5976L25.5818 32.3164C26.2225 31.6757 26.2225 30.6369 25.5818 29.9962C24.9412 29.3555 23.9024 29.3555 23.2616 29.9962L22.7811 30.4767V21.3125C22.7811 20.4079 23.5171 19.6719 24.4218 19.6719H27.703C28.6091 19.6719 29.3436 18.9373 29.3436 18.0312C29.3436 17.1252 28.6091 16.3906 27.703 16.3906H24.4218C21.7079 16.3906 19.4999 18.5986 19.4999 21.3125V30.6506L18.7626 29.9594C18.1016 29.3396 17.0634 29.3731 16.4436 30.0342C15.8239 30.6952 15.8575 31.7334 16.5186 32.3531L20.0184 35.6344Z" fill="#8585FF"/>
</svg>
