<svg version="1.2" baseProfile="tiny-ps" xmlns="http://www.w3.org/2000/svg" viewBox="0 0 87 91" width="87" height="91">
	<title>icon-budget-svg</title>
	<style>
		tspan { white-space:pre }
		.shp0 { fill: #f3f3ff } 
		.shp1 { fill: #8585ff } 
	</style>
	<path id="Layer" fill-rule="evenodd" class="shp0" d="M4.95 43.16C9.62 22.28 -2.85 12.57 17.05 3.98C34.69 -3.63 75.68 3.98 82.36 31.49C94.37 80.87 65.06 88.98 45.8 89.52C36.16 89.78 16.88 91.13 8.18 80.87C-0.53 70.6 2.67 53.34 4.95 43.16Z" />
	<path id="Layer" class="shp1" d="M31.83 64.06C31.55 65.72 30.35 67.4 28.48 68.07L28.48 68.56C28.48 69.47 27.75 70.2 26.84 70.2C25.93 70.2 25.2 69.47 25.2 68.56L25.2 68.28C24.31 68.16 23.54 67.86 22.53 67.19C21.77 66.7 21.56 65.68 22.05 64.92C22.55 64.16 23.57 63.95 24.32 64.45C25.22 65.04 25.54 65.09 26.75 65.08C27.83 65.07 28.46 64.26 28.59 63.51C28.68 62.98 28.58 62.27 27.6 61.93C26.13 61.4 24.62 60.81 23.56 59.98C22.45 59.11 21.95 57.62 22.24 56.09C22.54 54.46 23.68 53.16 25.2 52.68L25.2 52.34C25.2 51.43 25.93 50.7 26.84 50.7C27.75 50.7 28.48 51.43 28.48 52.34L28.48 52.63C29.34 52.88 29.94 53.27 30.2 53.47C30.93 54.01 31.08 55.04 30.53 55.76C29.99 56.49 28.96 56.64 28.24 56.09C27.98 55.9 27.26 55.48 26.19 55.8C25.64 55.97 25.49 56.53 25.46 56.7C25.4 57.04 25.48 57.31 25.58 57.39C26.27 57.94 27.54 58.42 28.69 58.83C30.96 59.63 32.22 61.73 31.83 64.06Z" />
	<path id="Layer" fill-rule="evenodd" class="shp1" d="M66.65 31.01C67.56 31.01 68.29 31.74 68.29 32.65L68.29 65.35C68.29 66.26 67.56 66.99 66.65 66.99L56.36 66.99L56.36 75.36C56.36 76.27 55.62 77 54.72 77L15.35 77C14.44 77 13.71 76.27 13.71 75.36L13.71 32.6C13.71 32.16 13.88 31.75 14.19 31.44L24.14 21.48C24.45 21.17 24.87 21 25.3 21L54.72 21C55.62 21 56.36 21.73 56.36 22.64L56.36 31.01L66.65 31.01ZM53.08 66.99L40.37 66.99C39.46 66.99 38.73 66.26 38.73 65.35L38.73 47.36L21.91 47.36C21 47.36 20.26 46.63 20.26 45.72C20.26 44.82 21 44.08 21.91 44.08L38.73 44.08L38.73 40.8L21.91 40.8C21 40.8 20.26 40.07 20.26 39.16C20.26 38.25 21 37.52 21.91 37.52L38.73 37.52L38.73 32.65C38.73 31.74 39.46 31.01 40.37 31.01L53.08 31.01L53.08 24.28L26.94 24.28L26.94 32.6C26.94 33.5 26.21 34.24 25.3 34.24L16.99 34.24L16.99 73.72L53.08 73.72L53.08 66.99ZM19.31 30.96L23.66 30.96L23.66 26.6L19.31 30.96ZM65.01 34.29L42.01 34.29L42.01 63.71L65.01 63.71L65.01 34.29Z" />
	<path id="Layer" fill-rule="evenodd" class="shp1" d="M45.29 45.72L45.29 39.21C45.29 38.3 46.02 37.57 46.93 37.57L60.09 37.57C61 37.57 61.73 38.3 61.73 39.21L61.73 45.72C61.73 46.63 61 47.36 60.09 47.36L46.93 47.36C46.02 47.36 45.29 46.63 45.29 45.72ZM48.57 44.08L58.45 44.08L58.45 40.85L48.57 40.85L48.57 44.08Z" />
	<path id="Layer" class="shp1" d="M48.61 52.23C48.65 53.11 47.82 53.87 46.96 53.87C46.05 53.87 45.36 53.12 45.32 52.23C45.28 51.34 46.11 50.59 46.96 50.59C47.88 50.59 48.57 51.34 48.61 52.23Z" />
	<path id="Layer" class="shp1" d="M55.17 52.23C55.21 53.11 54.39 53.87 53.53 53.87C52.61 53.87 51.93 53.12 51.89 52.23C51.85 51.34 52.67 50.59 53.53 50.59C54.45 50.59 55.13 51.34 55.17 52.23Z" />
	<path id="Layer" class="shp1" d="M61.73 52.23C61.77 53.11 60.95 53.87 60.09 53.87C59.17 53.87 58.49 53.12 58.45 52.23C58.41 51.34 59.23 50.59 60.09 50.59C61.01 50.59 61.69 51.34 61.73 52.23Z" />
	<path id="Layer" class="shp1" d="M48.61 58.79C48.65 59.68 47.82 60.43 46.96 60.43C46.05 60.43 45.36 59.68 45.32 58.79C45.28 57.9 46.11 57.15 46.96 57.15C47.88 57.15 48.57 57.9 48.61 58.79Z" />
	<path id="Layer" class="shp1" d="M55.17 58.79C55.21 59.68 54.39 60.43 53.53 60.43C52.61 60.43 51.93 59.68 51.89 58.79C51.85 57.9 52.67 57.15 53.53 57.15C54.45 57.15 55.13 57.9 55.17 58.79Z" />
	<path id="Layer" class="shp1" d="M61.73 58.79C61.77 59.68 60.95 60.43 60.09 60.43C59.17 60.43 58.49 59.68 58.45 58.79C58.41 57.9 59.23 57.15 60.09 57.15C61.01 57.15 61.69 57.9 61.73 58.79Z" />
</svg>