<svg width="147" height="134" viewBox="0 0 147 134" fill="none" xmlns="http://www.w3.org/2000/svg">
<path fill-rule="evenodd" clip-rule="evenodd" d="M73.5291 34.8432C95.0011 41.0037 107.232 21.5476 120.665 47.0568C134.097 72.5659 120.699 90.1465 80.5784 112.928C40.4575 135.71 23.3969 102.901 21.9757 80.0771C21.265 68.6647 23.084 45.9161 33.1365 35.9164C43.1892 25.917 63.067 31.8413 73.5291 34.8432" fill="#8585FF"/>
<path d="M54.232 61.6959C54.232 57.6639 55.264 54.5439 57.328 52.3359C59.392 50.1279 62.368 49.0239 66.256 49.0239C70.144 49.0239 73.12 50.1279 75.184 52.3359C77.248 54.5439 78.28 57.6639 78.28 61.6959V87.9039C78.28 91.9359 77.248 95.0559 75.184 97.2639C73.12 99.4719 70.144 100.576 66.256 100.576C62.368 100.576 59.392 99.4719 57.328 97.2639C55.264 95.0559 54.232 91.9359 54.232 87.9039V61.6959ZM62.152 88.4079C62.152 91.7199 63.52 93.3759 66.256 93.3759C68.992 93.3759 70.36 91.7199 70.36 88.4079V61.1919C70.36 57.8799 68.992 56.2239 66.256 56.2239C63.52 56.2239 62.152 57.8799 62.152 61.1919V88.4079ZM96.4549 49.5999H105.095V83.6559H108.839V90.8559H105.095V99.9999H97.3189V90.8559H82.0549V83.6559L96.4549 49.5999ZM97.3189 64.7199L89.3269 83.6559H97.3189V64.7199Z" fill="#FAFAFE"/>
<path d="M131.143 94.2922L145.177 108.443L125.743 114.114L131.143 94.2922Z" stroke="#DFDEF4" stroke-width="3" stroke-linejoin="round"/>
</svg>
