<svg version="1.2" baseProfile="tiny-ps" xmlns="http://www.w3.org/2000/svg" viewBox="0 0 98 84" width="98" height="84">
	<title>icon-funding-svg</title>
	<defs>
		<clipPath clipPathUnits="userSpaceOnUse" id="cp1">
			<path d="M21 18L77 18L77 74L21 74L21 18Z" />
		</clipPath>
	</defs>
	<style>
		tspan { white-space:pre }
		.shp0 { fill: #f3f3ff } 
		.shp1 { fill: #8585ff } 
	</style>
	<path id="Layer" fill-rule="evenodd" class="shp0" d="M55.42 4.54C75.12 12.9 90.38 9.4 95.24 30.52C99.54 49.24 83.63 68.72 55.69 79C13.6 94.47 -0.5 60.38 2.45 41.34C3.93 31.82 10.02 13.34 21.69 6.63C33.36 -0.08 45.83 0.46 55.42 4.54Z" />
	<g id="Clip-Path" clip-path="url(#cp1)">
		<g id="Layer">
			<path id="Layer" fill-rule="evenodd" class="shp1" d="M75.36 53.02C76.27 53.02 77 53.76 77 54.66L77 69.57C77 70.48 76.27 71.21 75.36 71.21L65.9 71.21L52.3 73.96C52.19 73.99 52.08 74 51.97 74L37.62 74C37.18 74 36.76 73.82 36.46 73.52L22.61 59.68C21.57 58.64 21 57.26 21 55.79C21 54.32 21.57 52.94 22.61 51.9C24.76 49.76 28.25 49.75 30.39 51.89L36.29 57.64C37.21 56.14 38.86 55.14 40.75 55.14L49.13 55.08L49.6 54.63C51.86 52.51 54.8 51.21 57.9 50.97C60.81 50.74 63.75 51.47 66.22 53.02L75.36 53.02ZM64.09 68.23L64.09 55.57C60.19 53.35 55.16 53.9 51.85 57.02L50.91 57.91C50.61 58.19 50.21 58.35 49.8 58.36L40.77 58.42L40.76 58.42C39.68 58.42 38.8 59.29 38.8 60.37L38.8 62.33L51.97 62.33C52.88 62.33 53.61 63.06 53.61 63.97C53.61 64.87 52.88 65.61 51.97 65.61L37.16 65.61C36.25 65.61 35.52 64.87 35.52 63.97L35.52 61.47L28.09 54.23C28.09 54.23 28.09 54.22 28.08 54.22C27.21 53.35 25.8 53.35 24.93 54.22C24.51 54.64 24.28 55.2 24.28 55.79C24.28 56.38 24.51 56.94 24.93 57.36L38.29 70.71L51.81 70.71L64.09 68.23ZM73.72 56.3L67.37 56.3L67.37 67.93L73.72 67.93L73.72 56.3Z" />
			<path id="Layer" fill-rule="evenodd" class="shp1" d="M31.82 46C25.42 39.61 25.42 29.2 31.82 22.8C38.22 16.4 48.63 16.4 55.02 22.8C61.42 29.2 61.42 39.61 55.02 46C51.82 49.2 47.62 50.8 43.42 50.8C39.22 50.8 35.02 49.2 31.82 46ZM34.14 25.12C29.02 30.24 29.02 38.57 34.14 43.68C39.26 48.8 47.58 48.8 52.7 43.68C57.82 38.57 57.82 30.24 52.7 25.12C50.14 22.56 46.78 21.28 43.42 21.28C40.06 21.28 36.7 22.56 34.14 25.12Z" />
			<path id="Layer" class="shp1" d="M38.91 41.45C38.15 40.96 37.94 39.94 38.44 39.18C38.93 38.42 39.95 38.21 40.71 38.71C41.68 39.34 42.04 39.4 43.33 39.39C44.53 39.38 45.23 38.49 45.36 37.66C45.45 37.17 45.41 36.28 44.26 35.87C42.71 35.33 41.12 34.7 40.01 33.83C38.87 32.93 38.35 31.4 38.65 29.81C38.96 28.13 40.13 26.78 41.7 26.28L41.7 25.83C41.7 24.92 42.43 24.19 43.34 24.19C44.24 24.19 44.98 24.92 44.98 25.83L44.98 26.18C45.95 26.43 46.64 26.88 46.92 27.09C47.64 27.64 47.79 28.66 47.25 29.39C46.71 30.12 45.68 30.26 44.95 29.72C44.67 29.51 43.88 29.05 42.71 29.4C42.07 29.59 41.91 30.23 41.87 30.42C41.8 30.77 41.87 31.12 42.03 31.25C42.77 31.83 44.13 32.35 45.35 32.78C47.7 33.61 49.01 35.79 48.6 38.2C48.3 39.97 47.01 41.76 44.98 42.41L44.98 42.98C44.98 43.88 44.24 44.62 43.34 44.62C42.43 44.62 41.7 43.88 41.7 42.98L41.7 42.59C40.77 42.46 39.97 42.15 38.91 41.45L38.91 41.45Z" />
		</g>
	</g>
</svg>