<svg version="1.2" baseProfile="tiny-ps" xmlns="http://www.w3.org/2000/svg" viewBox="0 0 98 84" width="98" height="84">
	<title>icon-vision-svg</title>
	<defs>
		<clipPath clipPathUnits="userSpaceOnUse" id="cp1">
			<path d="M14 16L70 16L70 72L14 72L14 16Z" />
		</clipPath>
	</defs>
	<style>
		tspan { white-space:pre }
		.shp0 { fill: #f3f3ff } 
		.shp1 { fill: #8585ff } 
	</style>
	<path id="Layer" fill-rule="evenodd" class="shp0" d="M56.42 4.54C76.12 12.9 91.38 9.4 96.24 30.52C100.54 49.24 84.63 68.72 56.69 79C14.6 94.48 0.5 60.39 3.45 41.34C4.93 31.82 11.02 13.34 22.69 6.63C34.36 -0.08 46.83 0.46 56.42 4.54Z" />
	<g id="Clip-Path" clip-path="url(#cp1)">
		<g id="Layer">
			<path id="Layer" fill-rule="evenodd" class="shp1" d="M54.14 56.87C53.63 57.05 53.11 57.22 52.59 57.38L52.59 65.16L56.34 65.16C57.03 63.13 58.95 61.67 61.21 61.67C64.03 61.67 66.34 63.97 66.34 66.8C66.34 69.62 64.03 71.93 61.21 71.93C58.95 71.93 57.03 70.46 56.34 68.43L50.96 68.43C50.05 68.43 49.32 67.7 49.32 66.8L49.32 58.21C44.73 59.15 39.48 59.19 34.97 58.34L34.97 66.87C34.97 67.77 34.24 68.51 33.33 68.51L27.94 68.51C27.26 70.54 25.34 72 23.08 72C20.26 72 17.95 69.7 17.95 66.87C17.95 64.04 20.26 61.74 23.08 61.74C25.34 61.74 27.26 63.2 27.94 65.23L31.7 65.23L31.7 57.56C31.01 57.36 30.33 57.14 29.67 56.9C26.63 55.8 23.8 54.25 21.25 52.31C16.86 48.95 14.7 45.47 14.31 44.81C14.01 44.3 14.01 43.66 14.31 43.15C14.55 42.75 16.75 39.17 21.27 35.75C23.87 33.78 26.76 32.21 29.86 31.1C30.46 30.88 31.08 30.68 31.7 30.5L31.7 22.77L27.94 22.77C27.26 24.8 25.34 26.26 23.08 26.26C20.26 26.26 17.95 23.96 17.95 21.13C17.95 18.3 20.26 16 23.08 16C25.34 16 27.26 17.46 27.94 19.49L33.33 19.49C34.24 19.49 34.97 20.23 34.97 21.13L34.97 29.7C39.58 28.8 44.82 28.79 49.32 29.68L49.32 21.17C49.32 20.27 50.05 19.53 50.96 19.53L56.34 19.53C57.03 17.5 58.95 16.04 61.21 16.04C64.03 16.04 66.34 18.34 66.34 21.17C66.34 24 64.03 26.3 61.21 26.3C58.95 26.3 57.03 24.84 56.34 22.81L52.59 22.81L52.59 30.49C53.18 30.66 53.76 30.85 54.33 31.06C57.37 32.17 60.2 33.71 62.75 35.66C67.14 39.02 69.3 42.49 69.69 43.15C69.99 43.67 69.99 44.31 69.69 44.82C69.45 45.22 67.26 48.79 62.73 52.22C60.13 54.19 57.24 55.75 54.14 56.87ZM61.21 19.31C60.18 19.31 59.35 20.15 59.35 21.17C59.35 22.19 60.18 23.03 61.21 23.03C62.23 23.03 63.06 22.19 63.06 21.17C63.06 20.15 62.23 19.31 61.21 19.31ZM23.08 22.99C24.11 22.99 24.94 22.15 24.94 21.13C24.94 20.11 24.11 19.27 23.08 19.27C22.06 19.27 21.23 20.11 21.23 21.13C21.23 22.15 22.06 22.99 23.08 22.99ZM24.94 66.87C24.94 65.85 24.11 65.01 23.08 65.01C22.06 65.01 21.23 65.85 21.23 66.87C21.23 67.89 22.06 68.73 23.08 68.73C24.11 68.73 24.94 67.89 24.94 66.87ZM59.35 66.8C59.35 67.82 60.18 68.65 61.21 68.65C62.23 68.65 63.06 67.82 63.06 66.8C63.06 65.77 62.23 64.94 61.21 64.94C60.18 64.94 59.35 65.77 59.35 66.8ZM41.96 55.67C42.05 55.67 42.13 55.67 42.22 55.67C48.56 55.56 53.69 50.36 53.69 43.98C53.69 37.56 48.49 32.33 42.08 32.29C41.94 32.29 41.81 32.29 41.67 32.29C35.38 32.47 30.31 37.64 30.31 43.98C30.31 50.42 35.53 55.66 41.96 55.67ZM60.76 38.26C58.47 36.51 55.97 35.14 53.28 34.15C55.57 36.78 56.97 40.22 56.97 43.98C56.97 47.66 55.63 51.03 53.43 53.63C60.85 50.84 64.92 45.93 66.32 43.97C65.48 42.77 63.67 40.49 60.76 38.26ZM23.24 49.7C25.53 51.46 28.03 52.83 30.72 53.81C28.42 51.18 27.03 47.74 27.03 43.98C27.03 40.31 28.36 36.94 30.57 34.33C23.15 37.13 19.08 42.03 17.68 43.99C18.52 45.2 20.33 47.48 23.24 49.7Z" />
			<path id="Layer" fill-rule="evenodd" class="shp1" d="M42.06 35.73C46.61 35.73 50.31 39.43 50.31 43.98C50.31 48.53 46.61 52.23 42.06 52.23C37.52 52.23 33.82 48.53 33.82 43.98C33.82 39.43 37.52 35.73 42.06 35.73ZM47.04 43.98C47.04 41.24 44.81 39.01 42.06 39.01C39.32 39.01 37.09 41.24 37.09 43.98C37.09 46.73 39.32 48.96 42.06 48.96C44.81 48.96 47.04 46.73 47.04 43.98Z" />
		</g>
	</g>
</svg>