<svg width="134" height="115" viewBox="0 0 134 115" fill="none" xmlns="http://www.w3.org/2000/svg">
<path fill-rule="evenodd" clip-rule="evenodd" d="M44.8982 77.1186C33.937 57.6545 11.5664 62.9175 19.9161 35.3236C28.2659 7.72975 50.1496 4.6209 94.7122 16.5746C139.275 28.5283 128.382 63.8676 113.366 81.1154C105.858 89.7397 88.5889 104.658 74.4099 104.719C60.231 104.779 50.2389 86.6025 44.8982 77.1186" fill="#8585FF"/>
<path d="M43.2321 46.6964C43.2321 42.6644 44.2641 39.5444 46.3281 37.3364C48.3921 35.1284 51.3681 34.0244 55.2561 34.0244C59.1441 34.0244 62.1201 35.1284 64.1841 37.3364C66.2481 39.5444 67.2801 42.6644 67.2801 46.6964V72.9044C67.2801 76.9364 66.2481 80.0564 64.1841 82.2644C62.1201 84.4724 59.1441 85.5764 55.2561 85.5764C51.3681 85.5764 48.3921 84.4724 46.3281 82.2644C44.2641 80.0564 43.2321 76.9364 43.2321 72.9044V46.6964ZM51.1521 73.4084C51.1521 76.7204 52.5201 78.3764 55.2561 78.3764C57.9921 78.3764 59.3601 76.7204 59.3601 73.4084V46.1924C59.3601 42.8804 57.9921 41.2244 55.2561 41.2244C52.5201 41.2244 51.1521 42.8804 51.1521 46.1924V73.4084ZM88.191 46.9844C88.191 44.8244 87.831 43.3364 87.111 42.5204C86.439 41.6564 85.431 41.2244 84.087 41.2244C81.351 41.2244 79.983 42.8804 79.983 46.1924V49.4324H72.495V46.6964C72.495 42.6164 73.503 39.4964 75.519 37.3364C77.535 35.1284 80.463 34.0244 84.303 34.0244C88.143 34.0244 91.071 35.1284 93.087 37.3364C95.103 39.4964 96.111 42.6164 96.111 46.6964V47.9924C96.111 50.7284 95.655 52.9604 94.743 54.6884C93.831 56.3684 92.439 57.5924 90.567 58.3604C94.263 59.9924 96.111 63.5204 96.111 68.9444V72.9044C96.111 76.9844 95.103 80.1284 93.087 82.3364C91.071 84.4964 88.143 85.5764 84.303 85.5764C80.463 85.5764 77.535 84.4964 75.519 82.3364C73.503 80.1284 72.495 76.9844 72.495 72.9044V68.7284H79.983V73.4084C79.983 76.7204 81.351 78.3764 84.087 78.3764C85.431 78.3764 86.439 77.9684 87.111 77.1524C87.831 76.2884 88.191 74.8004 88.191 72.6884V68.7284C88.191 66.4244 87.783 64.7924 86.967 63.8324C86.151 62.8244 84.831 62.3204 83.007 62.3204H80.343V55.1204H83.439C85.023 55.1204 86.199 54.7124 86.967 53.8964C87.783 53.0804 88.191 51.7124 88.191 49.7924V46.9844Z" fill="#FAFAFE"/>
<path d="M16.8286 71.9184L6.64048 82.6475L2 68.3525L16.8286 71.9184Z" stroke="#DFDEF4" stroke-width="3" stroke-linejoin="round"/>
</svg>
