<svg xmlns="http://www.w3.org/2000/svg" width="77" height="76" viewBox="0 0 77 76">
  <defs>
    <linearGradient id="adobe_illustrator-a" x1="99.479%" x2="1.476%" y1="-.532%" y2="99.556%">
      <stop offset="0%" stop-color="#FFAA2A"/>
      <stop offset="100%" stop-color="#FFC06C"/>
    </linearGradient>
    <linearGradient id="adobe_illustrator-b" x1="50%" x2="50%" y1="-.168%" y2="99.495%">
      <stop offset="0%" stop-color="#251200"/>
      <stop offset="100%"/>
    </linearGradient>
  </defs>
  <g fill="none" fill-rule="evenodd">
    <g transform="translate(1 1)">
      <path fill="#9595EF" fill-opacity=".078" d="M31.2492837,11.4326648 L56.1289398,11.4326648 C66.6223501,11.4326648 75.1289398,19.9392545 75.1289398,30.4326648 L75.1289398,55.3123209 C75.1289398,65.8057312 66.6223501,74.3123209 56.1289398,74.3123209 L31.2492837,74.3123209 C20.7558734,74.3123209 12.2492837,65.8057312 12.2492837,55.3123209 L12.2492837,30.4326648 C12.2492837,19.9392545 20.7558734,11.4326648 31.2492837,11.4326648 Z"/>
      <path fill="#000" fill-rule="nonzero" d="M31.2492837,11.9326648 C30.9731413,11.9326648 30.7492837,11.7088071 30.7492837,11.4326648 C30.7492837,11.1565224 30.9731413,10.9326648 31.2492837,10.9326648 L39.2492837,10.9326648 C39.525426,10.9326648 39.7492837,11.1565224 39.7492837,11.4326648 C39.7492837,11.7088071 39.525426,11.9326648 39.2492837,11.9326648 L31.2492837,11.9326648 Z M49.2492837,11.9326648 C48.9731413,11.9326648 48.7492837,11.7088071 48.7492837,11.4326648 C48.7492837,11.1565224 48.9731413,10.9326648 49.2492837,10.9326648 L56.1289398,10.9326648 C56.5129936,10.9326648 56.8957499,10.9437734 57.2768935,10.9659087 C57.5525714,10.9819189 57.7630736,11.2183788 57.7470633,11.4940567 C57.7310531,11.7697345 57.4945931,11.9802367 57.2189153,11.9642265 C56.8570744,11.9432123 56.4936523,11.9326648 56.1289398,11.9326648 L49.2492837,11.9326648 Z M66.3803699,15.0302922 C66.1506344,14.8770727 66.088606,14.5666264 66.2418255,14.3368909 C66.395045,14.1071554 66.7054914,14.045127 66.9352269,14.1983465 C69.2353478,15.7323865 71.1894288,17.7411734 72.6587669,20.0831178 C72.8055257,20.3170333 72.7348712,20.6256309 72.5009557,20.7723897 C72.2670402,20.9191485 71.9584427,20.848494 71.8116839,20.6145785 C70.4174571,18.3923522 68.5629856,16.4859634 66.3803699,15.0302922 Z M74.6214247,29.9000713 C74.6136253,29.6240391 74.8310709,29.3939481 75.1071032,29.3861487 C75.3831354,29.3783493 75.6132264,29.5957949 75.6210258,29.8718271 C75.6262052,30.055132 75.6288452,30.2387638 75.6289374,30.4229388 L75.6289398,37.8956195 C75.6289399,38.1717618 75.4050824,38.3956195 75.12894,38.3956196 C74.8527976,38.3956197 74.6289399,38.1717622 74.6289398,37.8956198 L74.6289375,30.4231894 C74.62885,30.2485144 74.6263429,30.0741312 74.6214247,29.9000713 Z M74.6289398,47.8956196 C74.6289398,47.6194772 74.8527975,47.3956196 75.1289398,47.3956196 C75.4050822,47.3956196 75.6289398,47.6194772 75.6289398,47.8956196 L75.6289398,55.3123209 C75.6289398,55.5120227 75.6259362,55.7113797 75.61994,55.9103482 C75.6116218,56.1863653 75.3811225,56.4033781 75.1051055,56.3950599 C74.8290884,56.3867417 74.6120756,56.1562424 74.6203938,55.8802254 C74.6260875,55.6912944 74.6289398,55.5019795 74.6289398,55.3123209 L74.6289398,47.8956196 Z M71.8177781,65.1206871 C71.9643919,64.8866807 72.2729455,64.815835 72.506952,64.9624488 C72.7409584,65.1090626 72.8118041,65.4176162 72.6651903,65.6516227 C71.1972378,67.9945829 69.2442816,70.0046423 66.944977,71.5401323 C66.7153335,71.6934896 66.40485,71.6316475 66.2514926,71.402004 C66.0981352,71.1723605 66.1599774,70.861877 66.3896209,70.7085196 C68.5714633,69.2514716 70.4248673,67.3438754 71.8177781,65.1206871 Z M57.1949327,73.7821365 C57.4706309,73.7664805 57.7068202,73.9772863 57.7224762,74.2529845 C57.7381323,74.5286827 57.5273264,74.764872 57.2516282,74.780528 C56.8858544,74.8012992 56.5186026,74.8119172 56.1496193,74.8123099 L49.2030309,74.8123209 C48.9268885,74.8123214 48.7030305,74.5884641 48.7030301,74.3123217 C48.7030297,74.0361793 48.9268869,73.8123214 49.2030293,73.8123209 L56.1490859,73.8123102 C56.4989799,73.8119375 56.8476811,73.8018558 57.1949327,73.7821365 Z M39.2030301,73.8123209 C39.4791725,73.8123209 39.7030301,74.0361785 39.7030301,74.3123209 C39.7030301,74.5884633 39.4791725,74.8123209 39.2030301,74.8123209 L31.2492837,74.8123209 C31.2251426,74.8123112 31.2251426,74.8123112 31.2010105,74.8122624 C30.9248689,74.8115929 30.7015547,74.5871932 30.7022242,74.3110517 C30.7028937,74.0349101 30.9272934,73.8115959 31.2034349,73.8122653 C31.2263548,73.8123117 31.2263548,73.8123117 31.2492837,73.8123209 L39.2030301,73.8123209 Z M21.89253,71.2752122 C22.1306275,71.4150842 22.210255,71.721489 22.070383,71.9595866 C21.930511,72.1976841 21.6241061,72.2773116 21.3860086,72.1374396 C19.0020403,70.7369611 16.937673,68.8416475 15.3372559,66.5869414 C15.1774192,66.3617596 15.2303919,66.0496404 15.4555737,65.8898037 C15.6807555,65.729967 15.9928746,65.7829397 16.1527113,66.0081215 C17.6714108,68.147702 19.6305256,69.9463822 21.89253,71.2752122 Z M12.8172378,56.9094751 C12.8407568,57.1846141 12.6367784,57.4267242 12.3616394,57.4502432 C12.0865004,57.4737621 11.8443903,57.2697838 11.8208714,56.9946448 C11.7741061,56.4475556 11.7501655,55.8967495 11.749307,55.3424088 L11.7492837,48.9234581 C11.7492827,48.6473158 11.9731395,48.4234573 12.2492819,48.4234563 C12.5254242,48.4234553 12.7492827,48.6473121 12.7492837,48.9234545 L12.7493064,55.3416321 C12.750121,55.8672793 12.772849,56.3901877 12.8172378,56.9094751 Z M12.7492837,38.9234563 C12.7492837,39.1995987 12.525426,39.4234563 12.2492837,39.4234563 C11.9731413,39.4234563 11.7492837,39.1995987 11.7492837,38.9234563 L11.7492837,30.9234563 C11.7492837,30.647314 11.9731413,30.4234563 12.2492837,30.4234563 C12.525426,30.4234563 12.7492837,30.647314 12.7492837,30.9234563 L12.7492837,38.9234563 Z M15.0258342,21.534299 C14.8928142,21.7762913 14.5888066,21.8646307 14.3468143,21.7316107 C14.104822,21.5985906 14.0164825,21.2945831 14.1495026,21.0525908 C15.4814406,18.6295067 17.3176078,16.5126577 19.5260114,14.84878 C19.7465616,14.6826108 20.0600597,14.7266954 20.2262289,14.9472456 C20.3923981,15.1677958 20.3483135,15.4812939 20.1277633,15.6474631 C18.0320823,17.2264122 16.2895696,19.2352904 15.0258342,21.534299 Z M29.1234476,12.0534323 C28.8490938,12.0848108 28.6012488,11.8878404 28.5698703,11.6134866 C28.5384918,11.3391328 28.7354622,11.0912879 29.009816,11.0599094 C29.7367478,10.9767684 30.4709983,10.9341516 31.2107558,10.9327023 L31.2487938,10.932665 C31.5249361,10.9323945 31.7490129,11.1560327 31.7492834,11.4321749 C31.749554,11.7083172 31.5259157,11.932394 31.2497735,11.9326645 L31.2122254,11.9327011 C30.5102928,11.9340765 29.8133244,11.9745294 29.1234476,12.0534323 Z"/>
    </g>
    <path fill="url(#adobe_illustrator-a)" d="M5,0 L63,0 C65.7614237,-5.07265313e-16 68,2.23857625 68,5 L68,61 C68,63.7614237 65.7614237,66 63,66 L5,66 C2.23857625,66 3.38176876e-16,63.7614237 0,61 L0,5 C-3.38176876e-16,2.23857625 2.23857625,5.07265313e-16 5,0 Z"/>
    <path fill="url(#adobe_illustrator-b)" fill-rule="nonzero" d="M25.0707822,33.5864444 L31.2236224,33.5864444 L28.1472747,21.9380202 L25.0707822,33.5864444 Z M5,10 L5,56 C5,58.7614237 7.23857625,61 10,61 L59,61 C61.7614237,61 64,58.7614237 64,56 L64,10 C64,7.23857625 61.7614237,5 59,5 L10,5 C7.23857625,5 5,7.23857625 5,10 Z M34.6003771,46.3582626 L32.3492073,38.7880808 L24.0200818,38.7880808 L21.768912,46.3582626 L16.066103,46.3582626 L24.0951111,19.593798 L24.0951111,16.6634141 L31.7489726,16.6634141 L40.9034208,46.3582626 L34.6003771,46.3582626 Z M49.7581862,46.3582626 L43.6052011,46.3582626 L43.6052011,23.7697576 L49.7581862,23.7697576 L49.7581862,46.3582626 Z M46.7189186,21.0591313 C44.9576122,21.0591313 43.5295924,19.6814747 43.5295924,17.9822424 C43.5295924,16.2828687 44.9573225,14.9052121 46.7189186,14.9052121 C48.4805148,14.9052121 49.9081,16.2828687 49.9081,17.9822424 C49.9081,19.6814747 48.4803699,21.0591313 46.7189186,21.0591313 Z"/>
  </g>
</svg>
