<svg xmlns="http://www.w3.org/2000/svg" width="77" height="76" viewBox="0 0 77 76">
  <defs>
    <radialGradient id="after-effects-cc-a" cx="32.935%" cy="22.41%" r="78.133%" fx="32.935%" fy="22.41%" gradientTransform="matrix(.9727 0 0 1 .009 0)">
      <stop offset="0%" stop-color="#442F55" stop-opacity=".98"/>
      <stop offset="100%" stop-color="#12002C"/>
    </radialGradient>
  </defs>
  <g fill="none" fill-rule="evenodd">
    <g transform="translate(1 1)">
      <path fill="#9595EF" fill-opacity=".078" d="M31.2492837,11.4326648 L56.1289398,11.4326648 C66.6223501,11.4326648 75.1289398,19.9392545 75.1289398,30.4326648 L75.1289398,55.3123209 C75.1289398,65.8057312 66.6223501,74.3123209 56.1289398,74.3123209 L31.2492837,74.3123209 C20.7558734,74.3123209 12.2492837,65.8057312 12.2492837,55.3123209 L12.2492837,30.4326648 C12.2492837,19.9392545 20.7558734,11.4326648 31.2492837,11.4326648 Z"/>
      <path fill="#000" fill-rule="nonzero" d="M31.2492837,11.9326648 C30.9731413,11.9326648 30.7492837,11.7088071 30.7492837,11.4326648 C30.7492837,11.1565224 30.9731413,10.9326648 31.2492837,10.9326648 L39.2492837,10.9326648 C39.525426,10.9326648 39.7492837,11.1565224 39.7492837,11.4326648 C39.7492837,11.7088071 39.525426,11.9326648 39.2492837,11.9326648 L31.2492837,11.9326648 Z M49.2492837,11.9326648 C48.9731413,11.9326648 48.7492837,11.7088071 48.7492837,11.4326648 C48.7492837,11.1565224 48.9731413,10.9326648 49.2492837,10.9326648 L56.1289398,10.9326648 C56.5129936,10.9326648 56.8957499,10.9437734 57.2768935,10.9659087 C57.5525714,10.9819189 57.7630736,11.2183788 57.7470633,11.4940567 C57.7310531,11.7697345 57.4945931,11.9802367 57.2189153,11.9642265 C56.8570744,11.9432123 56.4936523,11.9326648 56.1289398,11.9326648 L49.2492837,11.9326648 Z M66.3803699,15.0302922 C66.1506344,14.8770727 66.088606,14.5666264 66.2418255,14.3368909 C66.395045,14.1071554 66.7054914,14.045127 66.9352269,14.1983465 C69.2353478,15.7323865 71.1894288,17.7411734 72.6587669,20.0831178 C72.8055257,20.3170333 72.7348712,20.6256309 72.5009557,20.7723897 C72.2670402,20.9191485 71.9584427,20.848494 71.8116839,20.6145785 C70.4174571,18.3923522 68.5629856,16.4859634 66.3803699,15.0302922 Z M74.6214247,29.9000713 C74.6136253,29.6240391 74.8310709,29.3939481 75.1071032,29.3861487 C75.3831354,29.3783493 75.6132264,29.5957949 75.6210258,29.8718271 C75.6262052,30.055132 75.6288452,30.2387638 75.6289374,30.4229388 L75.6289398,37.8956195 C75.6289399,38.1717618 75.4050824,38.3956195 75.12894,38.3956196 C74.8527976,38.3956197 74.6289399,38.1717622 74.6289398,37.8956198 L74.6289375,30.4231894 C74.62885,30.2485144 74.6263429,30.0741312 74.6214247,29.9000713 Z M74.6289398,47.8956196 C74.6289398,47.6194772 74.8527975,47.3956196 75.1289398,47.3956196 C75.4050822,47.3956196 75.6289398,47.6194772 75.6289398,47.8956196 L75.6289398,55.3123209 C75.6289398,55.5120227 75.6259362,55.7113797 75.61994,55.9103482 C75.6116218,56.1863653 75.3811225,56.4033781 75.1051055,56.3950599 C74.8290884,56.3867417 74.6120756,56.1562424 74.6203938,55.8802254 C74.6260875,55.6912944 74.6289398,55.5019795 74.6289398,55.3123209 L74.6289398,47.8956196 Z M71.8177781,65.1206871 C71.9643919,64.8866807 72.2729455,64.815835 72.506952,64.9624488 C72.7409584,65.1090626 72.8118041,65.4176162 72.6651903,65.6516227 C71.1972378,67.9945829 69.2442816,70.0046423 66.944977,71.5401323 C66.7153335,71.6934896 66.40485,71.6316475 66.2514926,71.402004 C66.0981352,71.1723605 66.1599774,70.861877 66.3896209,70.7085196 C68.5714633,69.2514716 70.4248673,67.3438754 71.8177781,65.1206871 Z M57.1949327,73.7821365 C57.4706309,73.7664805 57.7068202,73.9772863 57.7224762,74.2529845 C57.7381323,74.5286827 57.5273264,74.764872 57.2516282,74.780528 C56.8858544,74.8012992 56.5186026,74.8119172 56.1496193,74.8123099 L49.2030309,74.8123209 C48.9268885,74.8123214 48.7030305,74.5884641 48.7030301,74.3123217 C48.7030297,74.0361793 48.9268869,73.8123214 49.2030293,73.8123209 L56.1490859,73.8123102 C56.4989799,73.8119375 56.8476811,73.8018558 57.1949327,73.7821365 Z M39.2030301,73.8123209 C39.4791725,73.8123209 39.7030301,74.0361785 39.7030301,74.3123209 C39.7030301,74.5884633 39.4791725,74.8123209 39.2030301,74.8123209 L31.2492837,74.8123209 C31.2251426,74.8123112 31.2251426,74.8123112 31.2010105,74.8122624 C30.9248689,74.8115929 30.7015547,74.5871932 30.7022242,74.3110517 C30.7028937,74.0349101 30.9272934,73.8115959 31.2034349,73.8122653 C31.2263548,73.8123117 31.2263548,73.8123117 31.2492837,73.8123209 L39.2030301,73.8123209 Z M21.89253,71.2752122 C22.1306275,71.4150842 22.210255,71.721489 22.070383,71.9595866 C21.930511,72.1976841 21.6241061,72.2773116 21.3860086,72.1374396 C19.0020403,70.7369611 16.937673,68.8416475 15.3372559,66.5869414 C15.1774192,66.3617596 15.2303919,66.0496404 15.4555737,65.8898037 C15.6807555,65.729967 15.9928746,65.7829397 16.1527113,66.0081215 C17.6714108,68.147702 19.6305256,69.9463822 21.89253,71.2752122 Z M12.8172378,56.9094751 C12.8407568,57.1846141 12.6367784,57.4267242 12.3616394,57.4502432 C12.0865004,57.4737621 11.8443903,57.2697838 11.8208714,56.9946448 C11.7741061,56.4475556 11.7501655,55.8967495 11.749307,55.3424088 L11.7492837,48.9234581 C11.7492827,48.6473158 11.9731395,48.4234573 12.2492819,48.4234563 C12.5254242,48.4234553 12.7492827,48.6473121 12.7492837,48.9234545 L12.7493064,55.3416321 C12.750121,55.8672793 12.772849,56.3901877 12.8172378,56.9094751 Z M12.7492837,38.9234563 C12.7492837,39.1995987 12.525426,39.4234563 12.2492837,39.4234563 C11.9731413,39.4234563 11.7492837,39.1995987 11.7492837,38.9234563 L11.7492837,30.9234563 C11.7492837,30.647314 11.9731413,30.4234563 12.2492837,30.4234563 C12.525426,30.4234563 12.7492837,30.647314 12.7492837,30.9234563 L12.7492837,38.9234563 Z M15.0258342,21.534299 C14.8928142,21.7762913 14.5888066,21.8646307 14.3468143,21.7316107 C14.104822,21.5985906 14.0164825,21.2945831 14.1495026,21.0525908 C15.4814406,18.6295067 17.3176078,16.5126577 19.5260114,14.84878 C19.7465616,14.6826108 20.0600597,14.7266954 20.2262289,14.9472456 C20.3923981,15.1677958 20.3483135,15.4812939 20.1277633,15.6474631 C18.0320823,17.2264122 16.2895696,19.2352904 15.0258342,21.534299 Z M29.1234476,12.0534323 C28.8490938,12.0848108 28.6012488,11.8878404 28.5698703,11.6134866 C28.5384918,11.3391328 28.7354622,11.0912879 29.009816,11.0599094 C29.7367478,10.9767684 30.4709983,10.9341516 31.2107558,10.9327023 L31.2487938,10.932665 C31.5249361,10.9323945 31.7490129,11.1560327 31.7492834,11.4321749 C31.749554,11.7083172 31.5259157,11.932394 31.2497735,11.9326645 L31.2122254,11.9327011 C30.5102928,11.9340765 29.8133244,11.9745294 29.1234476,12.0534323 Z"/>
    </g>
    <polygon fill="#684F7A" fill-rule="nonzero" points="2.833 2.833 65.167 2.833 65.167 63.465 2.833 63.465"/>
    <path fill="url(#after-effects-cc-a)" d="M7.78498294,2.86234357 L60.1376564,2.86234357 C62.8990802,2.86234357 65.1376564,5.10091982 65.1376564,7.86234357 L65.1376564,58.513083 C65.1376564,61.2745068 62.8990802,63.513083 60.1376564,63.513083 L7.78498294,63.513083 C5.02355919,63.513083 2.78498294,61.2745068 2.78498294,58.513083 L2.78498294,7.86234357 C2.78498294,5.10091982 5.02355919,2.86234357 7.78498294,2.86234357 Z"/>
    <path fill="#D8A1FF" fill-rule="nonzero" d="M5,66.298066 L63,66.298066 C65.7614237,66.298066 68,64.0594897 68,61.298066 L68,5 C68,2.23857625 65.7614237,-4.50349342e-13 63,-4.54747351e-13 L5,-4.54747351e-13 C2.23857625,-4.54240086e-13 -3.38176876e-16,2.23857625 0,5 L0,61.298066 C-3.3407786e-15,64.0594897 2.23857625,66.298066 5,66.298066 Z M48.1099315,31.9590583 C49.5548515,31.9590583 50.0648972,31.9590583 50.2065448,31.902401 C50.2065448,31.7041005 50.2632039,31.562343 50.2632039,31.4206997 C50.2632039,29.8907242 49.526522,27.0575164 46.5799086,27.0575164 C43.8598172,27.0575164 42.6983067,29.4373515 42.4148972,31.9590583 L48.1099315,31.9590583 Z M42.3583524,35.8405404 C42.4150114,39.6654793 44.2283295,42.2437292 48.5349886,42.2437292 C50.2066591,42.2437292 51.6515791,42.0172142 53.1533866,41.365541 C53.3516933,41.2805551 53.4934552,41.3088837 53.4934552,41.5638416 L53.4934552,45.1053798 C53.4934552,45.3886663 53.4084666,45.5304238 53.2101599,45.672067 C51.7084666,46.4086119 49.8383752,46.74867 47.5151257,46.74867 C40.035217,46.74867 37.2301371,41.2238978 37.2301371,35.075781 C37.2301371,28.3893057 40.6869104,22.9211908 46.778558,22.9211908 C52.9551942,22.9211908 55.1085808,28.1060192 55.1085808,32.3275592 C55.1085808,33.6875629 55.0235923,34.7924945 54.8819446,35.3308531 C54.8252856,35.5574823 54.740297,35.6425825 54.5135466,35.6992398 C53.9468418,35.7842257 52.2751713,35.8974261 49.7818304,35.8974261 L42.3583524,35.8974261 L42.3583524,35.8405404 Z M27.1717847,32.9506753 C26.3784438,29.8057382 24.4516933,22.949291 23.7433409,19.634382 L23.6866819,19.634382 C23.0917619,22.949291 21.5332953,28.5590491 20.3716705,32.9506753 L27.1717847,32.9506753 Z M19.2099315,37.5406021 L16.9716705,46.0120108 C16.9150114,46.2385258 16.8300228,46.323626 16.5466134,46.323626 L12.3816019,46.323626 C12.0983067,46.323626 12.0415334,46.23864 12.0983067,45.8986962 L20.14492,17.7644626 C20.2865677,17.2545469 20.3715562,16.8578316 20.4282153,15.4412848 C20.4282153,15.2429843 20.5132039,15.1579983 20.6548515,15.1579983 L26.6048515,15.1579983 C26.8031582,15.1579983 26.8881468,15.2146556 26.94492,15.4412848 L35.9548515,45.9553535 C36.0115105,46.1818685 35.9548515,46.323626 35.7282153,46.323626 L31.0532724,46.323626 C30.8266362,46.323626 30.6848743,46.23864 30.6282153,46.0404537 L28.3048515,37.5407163 L19.2099315,37.5407163 L19.2099315,37.5406021 Z"/>
  </g>
</svg>
