<svg width="192" height="92" viewBox="0 0 192 92" fill="none" xmlns="http://www.w3.org/2000/svg">
<g opacity="0.569531">
<path fill-rule="evenodd" clip-rule="evenodd" d="M175.01 50.5208C191.481 55.7389 215.895 63.3811 203.207 103.634C190.519 143.888 126.536 128.042 77.1939 132.558C30.3277 136.847 -3.2475 107.852 0.250029 79.136C0.427445 77.6793 0.693045 70.9632 1.18178 69.5617C10.9226 41.6291 26.6632 33.3503 51.9286 26.5715C77.1939 19.7927 103.165 23.7253 112.786 29.5671C122.408 35.4089 158.538 45.3027 175.01 50.5208Z" fill="#9595EF"/>
</g>
<path fill-rule="evenodd" clip-rule="evenodd" d="M194 84.5321H182.986L106.477 40.4919C103.011 38.497 98.7409 38.5033 95.281 40.5071L49.7836 66.8645H37V77.5294C37.0037 79.4279 37.9498 81.3248 39.8353 82.4056L123.739 130.517C127.151 132.473 131.342 132.495 134.773 130.575L191.113 99.0468C192.677 98.1715 193.595 96.7358 193.888 95.1969H194V84.5321Z" fill="white"/>
<path fill-rule="evenodd" clip-rule="evenodd" d="M194 84.0216H182.986L106.477 39.508C103.011 37.4916 98.7409 37.498 95.281 39.5233L49.7836 66.1642H37V76.9437C37.0037 78.8626 37.9498 80.7799 39.8353 81.8723L123.739 130.501C127.151 132.479 131.342 132.501 134.773 130.56L191.113 98.6925C192.677 97.8077 193.595 96.3567 193.888 94.8012H194V84.0216Z" stroke="black" stroke-width="2" stroke-linejoin="round"/>
<path fill-rule="evenodd" clip-rule="evenodd" d="M95.2812 30.5236L39.814 63.002C36.0526 65.2043 36.0642 70.6871 39.8356 72.8724L123.739 121.501C127.151 123.479 131.342 123.501 134.773 121.56L191.113 89.6931C194.935 87.5305 194.969 81.9937 191.172 79.7845L106.477 30.5077C103.011 28.4919 98.7411 28.4977 95.2812 30.5236Z" fill="#E4E4FF"/>
<path fill-rule="evenodd" clip-rule="evenodd" d="M95.2812 30.5236L39.814 63.002C36.0526 65.2043 36.0642 70.6871 39.8356 72.8724L123.739 121.501C127.151 123.479 131.342 123.501 134.773 121.56L191.113 89.6931C194.935 87.5305 194.969 81.9937 191.172 79.7845L106.477 30.5077C103.011 28.4919 98.7411 28.4977 95.2812 30.5236Z" stroke="black" stroke-width="2" stroke-linejoin="round"/>
<path d="M134.849 77.1414L134.216 90.2983L127.621 93.0938L121.219 68.1895L134.849 77.1414Z" fill="#9595EF"/>
<path d="M127.594 93.6171C127.523 93.6137 127.453 93.5957 127.387 93.5639C127.251 93.4965 127.15 93.3729 127.112 93.2251L120.709 68.3207C120.656 68.1114 120.736 67.8903 120.912 67.7646C121.088 67.6396 121.322 67.6341 121.504 67.7525L135.134 76.7045C135.289 76.8063 135.378 76.9817 135.37 77.1672L134.737 90.324C134.727 90.5248 134.603 90.7026 134.418 90.781L127.823 93.5765C127.75 93.6072 127.672 93.6209 127.594 93.6171ZM122.061 69.3709L127.975 92.3758L133.708 89.9462L134.31 77.416L122.061 69.3709Z" fill="#130135"/>
<path d="M122.943 33.4627C122.855 33.4585 122.767 33.4319 122.687 33.3805L100.383 19.0922C100.14 18.9359 100.069 18.6125 100.225 18.3692C100.381 18.1252 100.704 18.0554 100.948 18.2104L123.252 32.4987C123.494 32.655 123.565 32.9784 123.41 33.2218C123.305 33.3865 123.124 33.4714 122.943 33.4627Z" fill="#130135"/>
<path d="M97.9254 17.4371C97.8369 17.4328 97.748 17.4062 97.6681 17.3541C95.1768 15.7525 92.4914 15.4997 90.2885 16.6185C90.0307 16.7494 89.7163 16.6469 89.5855 16.3891C89.4547 16.1313 89.5572 15.8162 89.815 15.6854C92.3473 14.3987 95.4288 14.6677 98.2344 16.4738C98.477 16.6301 98.5481 16.9542 98.3911 17.1968C98.2868 17.3601 98.1066 17.4458 97.9254 17.4371Z" fill="#130135"/>
<path d="M138.878 83.8998L92.7609 54.3556C89.0925 51.9959 86.3149 46.0041 86.5568 40.9734L87.295 25.6201C87.4177 23.0668 84.9268 22.8968 86.2397 22.0362C86.3472 21.966 91.511 19.3232 91.6234 19.2657C92.8524 18.6408 94.4056 18.7846 96.0598 19.8493L142.176 49.3935C145.845 51.7532 148.622 57.7451 148.381 62.7757L147.642 78.129C147.51 80.8802 146.502 82.7748 145.016 83.5403C144.968 83.5652 139.745 86.2918 139.696 86.3146C138.488 86.8658 140.475 84.9275 138.878 83.8998Z" fill="#9595EF"/>
<path d="M139.354 86.9333C139.159 86.9239 138.985 86.831 138.877 86.6784C138.681 86.4028 138.772 86.099 138.868 85.7781C139.053 85.1568 139.141 84.6901 138.597 84.3398L92.4806 54.7956C88.6773 52.3491 85.7859 46.1365 86.0354 40.9477L86.7736 25.5944C86.827 24.4847 86.3043 23.9342 85.8847 23.492C85.5921 23.1831 85.2889 22.8639 85.3403 22.4192C85.3871 22.0127 85.7132 21.7559 85.9548 21.5978C86.1034 21.5001 91.3351 18.8257 91.3874 18.7988C92.8247 18.0694 94.5932 18.2823 96.3451 19.4089L142.461 48.9531C146.264 51.3996 149.156 57.6121 148.906 62.801L148.168 78.1543C148.032 80.9906 146.971 83.1229 145.258 84.0054C145.212 84.0297 139.986 86.7583 139.917 86.7892C139.679 86.8979 139.511 86.9408 139.354 86.9333ZM86.4335 22.5402C86.491 22.6094 86.5761 22.6994 86.6439 22.7711C87.1113 23.2638 87.894 24.0881 87.8192 25.6447L87.081 40.9979C86.8475 45.8543 89.5236 51.6485 93.0463 53.9145L139.162 83.4587C140.107 84.0665 140.121 84.9419 140.001 85.5671C141.331 84.8736 144.738 83.0952 144.775 83.076C146.151 82.3681 147.005 80.5556 147.123 78.1033L147.861 62.75C148.095 57.8937 145.419 52.0995 141.896 49.8335L95.7802 20.2893C94.3509 19.3696 92.968 19.1711 91.863 19.7314C91.6467 19.8418 86.7472 22.3506 86.5102 22.4852C86.4785 22.5061 86.4532 22.5237 86.4335 22.5402Z" fill="#130135"/>
<path d="M142.416 81.509L147.443 78.9491L142.416 81.509Z" fill="white"/>
<path d="M142.393 82.032C142.211 82.0232 142.04 81.9199 141.951 81.7466C141.821 81.4895 141.923 81.1738 142.18 81.0429L147.206 78.4829C147.464 78.3514 147.779 78.4545 147.91 78.7117C148.041 78.9688 147.939 79.2846 147.681 79.4154L142.655 81.9754C142.571 82.0182 142.481 82.0362 142.393 82.032Z" fill="#130135"/>
<path d="M142.955 61.3612L147.987 58.798L142.955 61.3612Z" fill="white"/>
<path d="M142.928 61.8841C142.746 61.8753 142.574 61.7721 142.486 61.5987C142.356 61.3416 142.458 61.0259 142.715 60.895L147.747 58.3318C148.004 58.2002 148.319 58.3034 148.45 58.5606C148.581 58.8177 148.479 59.1334 148.221 59.265L143.19 61.8282C143.106 61.8703 143.016 61.8883 142.928 61.8841Z" fill="#130135"/>
<path d="M138.539 53.2008L143.655 50.5949L138.539 53.2008Z" fill="white"/>
<path d="M138.516 53.7241C138.334 53.7153 138.162 53.612 138.074 53.4387C137.943 53.1816 138.046 52.8659 138.303 52.735L143.419 50.129C143.676 49.9968 143.991 50.1006 144.122 50.3578C144.253 50.6149 144.151 50.9307 143.894 51.0615L138.778 53.6668C138.694 53.7103 138.604 53.7283 138.516 53.7241Z" fill="#130135"/>
<path d="M93.1288 23.9801L98.2447 21.3742L93.1288 23.9801Z" fill="white"/>
<path d="M93.1056 24.5034C92.9237 24.4946 92.7519 24.3913 92.6638 24.218C92.533 23.9609 92.6355 23.6452 92.8926 23.5143L98.0085 20.9083C98.2656 20.7761 98.5806 20.8799 98.7122 21.1371C98.8431 21.3942 98.7405 21.71 98.4834 21.8415L93.3675 24.4475C93.2838 24.4896 93.1935 24.5076 93.1056 24.5034Z" fill="#130135"/>
<path d="M136.983 52.1043L90.8666 22.5594C87.1982 20.1997 84.0284 22.3648 83.7865 27.3961L83.0483 42.7494C82.8064 47.78 85.584 53.7719 89.2524 56.1316L115.935 73.1799L127.645 93.098L128.223 81.0808L135.369 85.6765C139.037 88.0362 142.207 85.8711 142.449 80.8398L143.187 65.4865C143.429 60.4559 140.652 54.4647 136.983 52.1043Z" fill="white"/>
<path d="M127.621 93.6211C127.448 93.6128 127.287 93.5183 127.195 93.3637L115.55 73.5542L88.9729 56.5739C85.1689 54.1266 82.2775 47.9141 82.527 42.7252L83.2652 27.3719C83.4553 23.419 85.4002 20.9519 88.2205 21.0875C89.1713 21.1332 90.1571 21.481 91.152 22.1206L137.268 51.6641C141.071 54.1113 143.962 60.3231 143.712 65.512L142.974 80.8653C142.882 82.7863 142.373 84.3905 141.502 85.5049C140.621 86.6314 139.385 87.2154 138.02 87.1498C137.069 87.1041 136.082 86.7562 135.088 86.1166L128.703 82.0117L128.169 93.1227C128.158 93.3541 127.996 93.5504 127.771 93.6059C127.721 93.6182 127.671 93.6234 127.621 93.6211ZM88.1702 22.133C85.985 22.028 84.4703 24.1042 84.3108 27.4222L83.5726 42.7755C83.3391 47.6319 86.0152 53.426 89.5378 55.6928L116.219 72.7396C116.288 72.7842 116.346 72.8442 116.389 72.9155L127.208 91.3201L127.701 81.0567C127.71 80.8698 127.818 80.7018 127.984 80.6168C128.151 80.5312 128.35 80.5408 128.507 80.642L135.654 85.237C136.492 85.7754 137.305 86.0681 138.07 86.1049C139.101 86.1544 140.002 85.7241 140.677 84.8609C141.413 83.9181 141.847 82.5193 141.929 80.8164L142.667 65.4617C142.9 60.6053 140.225 54.8105 136.702 52.5445L90.5864 23.001C89.7474 22.4611 88.9342 22.1698 88.1702 22.133Z" fill="#130135"/>
<path d="M108.723 54.1784L91.5898 43.333L91.5104 44.9857L108.644 55.8304L108.723 54.1784Z" fill="#130135"/>
<path d="M118.5 53.3885L91.9219 36.4668L91.8424 38.1188L118.421 55.0405L118.5 53.3885Z" fill="#130135"/>
<path d="M102.576 46.6847L91.7539 39.8994L91.6744 41.5521L102.496 48.3367L102.576 46.6847Z" fill="#130135"/>
<path d="M104.16 47.7021L104.081 49.3549L125.387 63.0761L125.466 61.4241L104.16 47.7021Z" fill="#130135"/>
<path d="M110.305 55.1953L110.225 56.8473L122.494 64.7404L122.574 63.0884L110.305 55.1953Z" fill="#130135"/>
<path d="M120.003 56.0583L134.112 65.1507L134.192 63.4987L120.082 54.4062L120.003 56.0583Z" fill="#130135"/>
<path d="M126.967 64.0941L133.946 68.5832L134.026 66.9312L127.047 62.4414L126.967 64.0941Z" fill="#130135"/>
<path d="M92.0065 34.6862L134.276 61.7175L134.356 60.0648L92.0859 33.0342L92.0065 34.6862Z" fill="#130135"/>
<path d="M124.077 65.7575L133.781 72.016L133.861 70.364L124.156 64.1055L124.077 65.7575Z" fill="#130135"/>
<path d="M91.3464 48.4186L133.616 75.4492L133.696 73.7972L91.4258 46.7666L91.3464 48.4186Z" fill="#130135"/>
<path d="M91.335 67.2404C91.1133 67.2404 90.9121 67.0904 90.8562 66.8655C89.7006 62.1788 87.0896 57.4348 83.6899 53.8504C83.5025 53.6524 83.511 53.3407 83.7084 53.1526C83.9043 52.9658 84.2168 52.9737 84.4055 53.171C87.9189 56.8758 90.6187 61.7815 91.8144 66.6287C91.8795 66.8931 91.7184 67.1608 91.4533 67.2259C91.4139 67.2358 91.3744 67.2404 91.335 67.2404Z" fill="#130135"/>
<path d="M88.7143 71.9868C88.7143 64.7278 83.5863 55.8819 77.26 52.2297C74.1905 50.4579 71.4052 50.2375 69.3492 51.3056L65.6523 53.3872L66.4363 54.8236C66.0299 55.9364 65.8056 57.2538 65.8056 58.7606C65.8056 66.0195 70.9343 74.8655 77.26 78.5177C78.2123 79.0675 79.137 79.4654 80.021 79.7252L81.1647 81.6831L85.2391 79.4062C87.3812 78.2546 88.7143 75.685 88.7143 71.9868Z" fill="#7684CA"/>
<path d="M81.1661 82.1767C80.9958 82.1767 80.8307 82.0892 80.7399 81.932L79.6935 80.1411C78.8129 79.8656 77.9125 79.4637 77.0141 78.9448C70.5621 75.2203 65.3131 66.1652 65.3131 58.7609C65.3131 57.3245 65.5104 56.0163 65.8991 54.8673L65.2203 53.6236C65.0914 53.3868 65.1763 53.0896 65.4111 52.9574L69.108 50.8764C71.425 49.6715 74.405 50.0116 77.5074 51.8031C83.9593 55.5283 89.2084 64.5828 89.2084 71.9871C89.2084 75.7576 87.8818 78.5469 85.4733 79.8406L81.4062 82.1136C81.3299 82.1563 81.2477 82.1767 81.1661 82.1767ZM66.3187 53.5789L66.8698 54.5884C66.9376 54.7134 66.9488 54.8614 66.9001 54.9942C66.5022 56.0834 66.2996 57.3508 66.2996 58.7615C66.2996 65.8521 71.3277 74.5238 77.5074 78.0918C78.4025 78.6087 79.2956 78.9987 80.1605 79.2532C80.2815 79.2888 80.3841 79.369 80.4472 79.4775L81.347 81.0178L84.9985 78.977C87.0794 77.8589 88.2212 75.3781 88.2212 71.9884C88.2212 64.8978 83.1931 56.2268 77.0134 52.6581C74.215 51.0428 71.5526 50.7192 69.5762 51.7446L66.3187 53.5789Z" fill="#130135"/>
<path d="M81.3497 81.5884C85.795 78.9896 85.7496 70.6411 81.2483 62.9415C76.7469 55.2418 69.4942 51.1068 65.0489 53.7056C60.6036 56.3044 60.6491 64.6529 65.1504 72.3526C69.6517 80.0522 76.9044 84.1872 81.3497 81.5884Z" fill="white"/>
<path d="M78.3388 82.8571C76.6479 82.8571 74.8346 82.3053 72.951 81.2175C66.499 77.493 61.25 68.4379 61.25 61.0329C61.25 55.8102 63.9215 52.4355 68.0565 52.4355C69.7474 52.4355 71.5607 52.9874 73.4443 54.0752C79.8963 57.8003 85.1453 66.8548 85.1453 74.2591C85.1453 79.4825 82.4738 82.8571 78.3388 82.8571ZM68.0565 53.4227C64.4668 53.4227 62.2365 56.339 62.2365 61.0336C62.2365 68.1242 67.2646 76.7958 73.4443 80.3638C75.1766 81.3642 76.8235 81.8713 78.3388 81.8713C81.9285 81.8713 84.1588 78.955 84.1588 74.2604C84.1588 67.1698 79.1307 58.4988 72.951 54.9302C71.2187 53.9298 69.5718 53.4227 68.0565 53.4227Z" fill="#130135"/>
<path d="M70.457 53.3176L74.4354 51.0439L70.457 53.3176Z" fill="white"/>
<path d="M74.1896 50.6159L70.2109 52.8887L70.7003 53.7453L74.6789 51.4725L74.1896 50.6159Z" fill="#130135"/>
<path d="M83.4492 67.2942L87.4276 65.0205L83.4492 67.2942Z" fill="white"/>
<path d="M87.1818 64.5905L83.2031 66.8633L83.6924 67.7199L87.6711 65.4471L87.1818 64.5905Z" fill="#130135"/>
<path d="M84.5977 72.2268L88.576 69.9531L84.5977 72.2268Z" fill="white"/>
<path d="M88.3302 69.5232L84.3516 71.7959L84.8409 72.6525L88.8196 70.3798L88.3302 69.5232Z" fill="#130135"/>
<path d="M84.8477 74.6936L88.826 72.4199L84.8477 74.6936Z" fill="white"/>
<path d="M88.5802 71.9899L84.6016 74.2627L85.0909 75.1193L89.0696 72.8466L88.5802 71.9899Z" fill="#130135"/>
<path d="M76.4405 70.7824C75.8012 70.2378 75.2244 69.5446 74.768 68.7797C74.4918 68.3167 74.501 67.8142 74.7706 67.6577C75.1185 67.4551 75.4244 67.1329 75.6243 66.7054C75.9176 66.7863 76.2813 66.6784 76.2813 66.2765C76.2813 65.8661 76.0998 65.4196 75.8578 65.194C75.7861 63.4386 75.1863 61.6352 73.1678 60.4698C71.1494 59.3043 70.5496 60.4152 70.4779 62.0877C70.2358 62.0338 70.0543 62.2712 70.0543 62.6809C70.0543 63.0828 70.418 63.6109 70.7113 63.8681C70.9113 64.5264 71.2171 65.2025 71.565 65.8063C71.834 66.2739 71.8439 66.7869 71.5677 66.9309C71.1112 67.1684 70.5344 67.1953 69.8951 67.002C69.0474 66.7455 68.418 67.2572 68.418 68.3009V70.1102C68.418 70.4608 68.6659 70.8883 68.9711 71.0645L77.3652 75.9111C77.6711 76.0873 77.919 75.9466 77.919 75.5954V73.7861C77.9177 72.7436 77.2876 71.5052 76.4405 70.7824Z" fill="#7684CA"/>
<path d="M77.611 76.4823C77.4459 76.4823 77.2789 76.4343 77.1158 76.3403L68.7216 71.4937C68.2658 71.2313 67.9219 70.6368 67.9219 70.1119V68.3026C67.9219 67.1918 68.5467 66.4453 69.4773 66.4453C69.6575 66.4453 69.8456 66.4742 70.035 66.5314C70.5106 66.6755 70.9413 66.6735 71.2748 66.5249C71.2807 66.4446 71.259 66.2684 71.1347 66.0539C70.7736 65.4265 70.4783 64.7668 70.2758 64.1387C69.9555 63.8138 69.5582 63.2298 69.5582 62.682C69.5582 62.1795 69.7549 61.8598 70.0081 61.7033C70.1837 59.8901 71.0433 59.4961 71.7569 59.4961C72.2324 59.4961 72.7737 59.675 73.4123 60.044C75.217 61.0857 76.2009 62.751 76.339 64.9951C76.6028 65.3298 76.7718 65.8178 76.7718 66.2776C76.7718 66.7945 76.412 67.1773 75.903 67.2207C75.6859 67.5666 75.3985 67.8527 75.0592 68.0593C75.0467 68.1283 75.0578 68.3072 75.1894 68.5275C75.6215 69.251 76.1641 69.9015 76.7586 70.4079C77.7307 71.2366 78.4094 72.6263 78.4094 73.7884V75.5977C78.4094 75.8312 78.3424 76.0377 78.2161 76.1956C78.0694 76.3778 77.8491 76.4823 77.611 76.4823ZM69.478 67.4318C68.9643 67.4318 68.9091 68.0408 68.9091 68.3026V70.1119C68.9091 70.2855 69.0636 70.5519 69.2156 70.6387L77.4209 75.3767L77.4229 73.7871C77.4229 72.9078 76.8744 71.8015 76.1187 71.1576C75.4433 70.5822 74.829 69.8475 74.3429 69.0326C74.1009 68.6275 74.0121 68.1665 74.1075 67.7988C74.1713 67.5509 74.3179 67.3489 74.5205 67.2312C74.8007 67.0681 75.0276 66.8142 75.1756 66.4959C75.2775 66.2776 75.5241 66.1658 75.7543 66.2296C75.7543 66.2296 75.7682 66.2302 75.7833 66.2309C75.7682 65.9435 75.6392 65.6659 75.5195 65.5541C75.4242 65.466 75.3689 65.3436 75.3637 65.2141C75.2815 63.2107 74.4817 61.7993 72.9197 60.897C72.3251 60.5537 71.9595 60.482 71.7575 60.482C71.5793 60.482 71.038 60.482 70.969 62.1091C70.963 62.2551 70.8927 62.3906 70.7769 62.4794C70.7105 62.53 70.6335 62.5629 70.5533 62.5754C70.5487 62.603 70.5454 62.6385 70.5454 62.682C70.5454 62.8766 70.7881 63.2818 71.0354 63.4995C71.1038 63.56 71.1544 63.6389 71.1814 63.7264C71.3616 64.3209 71.6418 64.9556 71.9904 65.562C72.239 65.9941 72.3232 66.4709 72.216 66.8379C72.1456 67.076 71.9956 67.2654 71.7924 67.3707C71.2209 67.6673 70.5079 67.7054 69.7503 67.4759C69.6529 67.4463 69.5615 67.4318 69.478 67.4318Z" fill="#130135"/>
<path d="M166.27 21.4177C165.972 21.4177 165.69 21.2387 165.573 20.9447C164.075 17.1777 161.503 13.9617 158.694 12.3407L150.244 7.35771C149.888 7.14771 149.768 6.6877 149.978 6.3307C150.189 5.9737 150.648 5.85171 151.005 6.06571L159.449 11.0447C162.581 12.8517 165.323 16.2597 166.966 20.3897C167.118 20.7747 166.931 21.2107 166.546 21.3637C166.457 21.3997 166.363 21.4177 166.27 21.4177Z" fill="#130135"/>
<path d="M156.527 15.9978L131.931 1.49278C128.517 -0.478216 125.75 1.61378 125.75 6.16578V13.1198C125.75 17.6718 128.517 22.9598 131.931 24.9308L140.466 30.1398L151.901 47.6108V36.7368L156.528 39.4348C159.942 41.4058 162.709 39.3138 162.709 34.7618V27.8078C162.708 23.2558 159.941 17.9688 156.527 15.9978Z" fill="#BBBBFF"/>
<path d="M151.901 48.36C151.653 48.36 151.415 48.236 151.273 48.021L139.931 30.691L131.54 25.57C127.88 23.457 125 17.984 125 13.119V6.165C125 2.42 126.757 0 129.477 0C130.386 0 131.338 0.283 132.306 0.842L156.909 15.351C160.518 17.435 163.46 23.024 163.46 27.808V34.762C163.46 36.557 163.053 38.083 162.281 39.174C161.481 40.304 160.31 40.927 158.983 40.927C158.982 40.927 158.982 40.927 158.982 40.927C158.073 40.927 157.121 40.644 156.153 40.085L152.651 38.043V47.61C152.651 47.942 152.433 48.234 152.115 48.329C152.045 48.35 151.973 48.36 151.901 48.36ZM129.477 1.501C127.668 1.501 126.5 3.332 126.5 6.166V13.12C126.5 17.426 129.104 22.433 132.306 24.281L140.857 29.499C140.952 29.557 141.033 29.635 141.094 29.728L151.151 45.094V36.737C151.151 36.468 151.295 36.22 151.527 36.087C151.761 35.954 152.047 35.955 152.279 36.089L156.906 38.787C157.64 39.211 158.34 39.427 158.982 39.427H158.983C159.834 39.427 160.531 39.051 161.056 38.308C161.647 37.472 161.959 36.246 161.959 34.763V27.809C161.959 23.503 159.354 18.496 156.152 16.648L131.549 2.139C130.819 1.716 130.12 1.501 129.477 1.501Z" fill="#130135"/>
<path d="M137.313 19.7882C136.845 19.7882 136.357 19.6422 135.86 19.3562C134.269 18.4362 133.023 16.2862 133.023 14.4602C133.023 13.0082 133.841 12.0332 135.058 12.0332C135.525 12.0332 136.014 12.1792 136.51 12.4652C138.101 13.3842 139.348 15.5342 139.348 17.3612C139.348 18.8122 138.53 19.7882 137.313 19.7882ZM135.058 13.3332C134.395 13.3332 134.324 14.1212 134.324 14.4602C134.324 15.8192 135.325 17.5452 136.511 18.2302C136.803 18.3992 137.08 18.4882 137.314 18.4882C137.977 18.4882 138.048 17.7002 138.048 17.3612C138.048 16.0022 137.047 14.2762 135.86 13.5912C135.568 13.4212 135.291 13.3332 135.058 13.3332Z" fill="#130135"/>
<path d="M145.224 24.3937C144.756 24.3937 144.268 24.2477 143.771 23.9617C142.18 23.0437 140.934 20.8927 140.934 19.0667C140.934 17.6147 141.752 16.6387 142.969 16.6387C143.436 16.6387 143.925 16.7847 144.421 17.0707C146.012 17.9897 147.259 20.1397 147.259 21.9667C147.259 23.4177 146.44 24.3937 145.224 24.3937ZM142.969 17.9387C142.306 17.9387 142.235 18.7267 142.235 19.0657C142.235 20.4247 143.236 22.1507 144.422 22.8347C144.714 23.0037 144.991 23.0927 145.225 23.0927C145.888 23.0927 145.959 22.3047 145.959 21.9657C145.959 20.6067 144.957 18.8807 143.771 18.1957C143.478 18.0267 143.201 17.9387 142.969 17.9387Z" fill="#130135"/>
<path d="M153.13 29.0001C152.662 29.0001 152.174 28.8541 151.677 28.5681C150.086 27.6491 148.84 25.4991 148.84 23.6721C148.84 22.2201 149.658 21.2451 150.875 21.2451C151.342 21.2451 151.831 21.3911 152.327 21.6771C153.918 22.5951 155.165 24.7461 155.165 26.5731C155.165 28.0241 154.347 29.0001 153.13 29.0001ZM150.875 22.5441C150.212 22.5441 150.141 23.3331 150.141 23.6721C150.141 25.0311 151.142 26.7571 152.328 27.4421C152.62 27.6111 152.898 27.7001 153.131 27.7001C153.794 27.7001 153.865 26.9111 153.865 26.5731C153.865 25.2141 152.864 23.4881 151.677 22.8031C151.385 22.6341 151.107 22.5441 150.875 22.5441Z" fill="#130135"/>
</svg>
