<svg width="188" height="105" viewBox="0 0 188 105" fill="none" xmlns="http://www.w3.org/2000/svg">
<g opacity="0.569531">
<path fill-rule="evenodd" clip-rule="evenodd" d="M158.883 62.7347C173.837 67.9528 196.001 75.595 184.482 115.848C172.963 156.101 114.876 140.256 70.0807 144.772C27.5331 149.061 -2.94825 120.066 0.226989 91.3498C0.388057 89.8932 0.629183 83.1771 1.07289 81.7756C9.91611 53.843 24.2063 45.5642 47.1435 38.7853C70.0807 32.0065 93.6584 35.9392 102.393 41.781C111.128 47.6227 143.929 57.5165 158.883 62.7347Z" fill="#9595EF"/>
</g>
<path d="M176.027 48.5842L103.23 3.05107C102.051 2.33472 100.791 1.97654 99.5713 2.02132L95.019 2.15563L95.8725 3.23016C94.7344 3.99128 93.7589 5.11058 93.1492 6.54329L71.8912 54.5836L152.737 105.445L152.086 105.982L135.421 103.251L68.5175 61.1651L29.375 85.7897L23.6033 84.8495V91.9235C23.5626 93.4905 24.2536 95.1023 25.6762 95.9977L100.344 143.008C104.368 145.56 109.326 145.56 113.391 143.053L154.647 117.488C155.094 117.22 155.46 116.817 155.745 116.414C155.785 116.324 155.867 116.235 155.907 116.145L159.728 109.877L179.523 60.1353C181.189 55.8372 179.726 50.8675 176.027 48.5842Z" fill="white" stroke="black" stroke-width="2" stroke-miterlimit="10" stroke-linejoin="round"/>
<path d="M25.6745 89.3717L100.342 136.382C104.366 138.934 109.325 138.934 113.389 136.427L156.353 109.832L68.5158 54.5391L25.6745 81.5366C22.9106 83.2827 22.9106 87.6256 25.6745 89.3717Z" fill="white" stroke="black" stroke-width="2" stroke-miterlimit="10" stroke-linejoin="round"/>
<path d="M156.356 109.832L176.151 60.0904C177.858 55.837 176.354 50.8674 172.696 48.584L99.8579 3.05087C96.1997 0.767503 91.6067 2.33452 89.7776 6.49832L68.5195 54.5387L156.356 109.832Z" fill="white" stroke="black" stroke-width="2" stroke-miterlimit="10" stroke-linejoin="round"/>
<path d="M152.779 91.5654L165.704 59.9564C167.086 56.4642 165.867 52.4347 162.859 50.5543L103.353 13.3488C100.386 11.4683 96.6057 12.7667 95.1018 16.1694L80.9569 47.1068C79.5342 50.3752 80.6317 54.2704 83.4769 56.0612L144.609 94.5651C147.617 96.4008 151.397 95.0129 152.779 91.5654Z" fill="#9595EF"/>
<path d="M105.872 28.8843L107.62 24.631C107.823 24.1833 107.66 23.6012 107.254 23.3774L99.2057 18.3181C98.7993 18.0495 98.3115 18.2286 98.1083 18.7211L96.1979 22.8849C95.9947 23.3326 96.1573 23.8699 96.5231 24.0937L104.774 29.2873C105.181 29.5559 105.709 29.332 105.872 28.8843Z" fill="white"/>
<path d="M59.1274 101.683L69.8174 94.9226C70.9149 94.251 72.2562 94.2063 73.3943 94.8331L87.9864 104.459C89.0432 105.041 89.0432 106.698 88.027 107.324L77.8654 113.995C76.7273 114.712 75.3047 114.712 74.1666 113.995L59.0868 104.504C58.1519 103.877 58.1519 102.31 59.1274 101.683Z" fill="#9595EF"/>
<path d="M120.789 33.7196L121.277 32.5108C121.317 32.3765 121.277 32.2422 121.155 32.1526L109.53 24.9443C109.408 24.8548 109.286 24.9443 109.205 25.0339L108.676 26.1979C108.635 26.3322 108.676 26.4666 108.757 26.5561L120.423 33.8092C120.586 33.8987 120.748 33.8539 120.789 33.7196Z" fill="white"/>
<path d="M113.516 33.138L114.004 31.9292C114.045 31.7949 114.004 31.6605 113.882 31.571L108.151 27.9892C108.029 27.8997 107.907 27.9892 107.826 28.0788L107.297 29.2429C107.257 29.3772 107.297 29.5115 107.378 29.601L113.15 33.2276C113.313 33.3171 113.435 33.2723 113.516 33.138Z" fill="white"/>
<path d="M65.4 78.9224C76.0154 87.797 96.1277 90.2061 110.322 84.3032C124.516 78.4002 127.417 66.4216 116.802 57.547C106.186 48.6724 86.0741 46.2633 71.8799 52.1663C57.687 58.0688 54.7845 70.0479 65.4 78.9224Z" fill="#BBBBFF" fill-opacity="0.48"/>
<path d="M65.3942 78.9332C76.0064 87.8054 96.1129 90.2169 110.303 84.3193C117.397 81.3715 121.67 76.9037 122.843 72.0658C122.842 72.0645 122.844 72.0628 122.843 72.0615L123.729 68.3663L122.401 68.4726C121.671 65.3482 119.67 62.2461 116.327 59.4507C111.189 55.1544 104.167 47.6881 96.3255 46.6307C87.9722 45.505 78.7379 51.0216 71.4179 54.0646C66.9504 55.9215 63.605 58.3811 61.4444 61.1549L60.2353 60.7516L59.4103 64.1559L59.4132 64.1565C58.0923 69.0768 59.9818 74.4082 65.3942 78.9332ZM76.8275 56.3327C87.3592 51.9562 102.28 53.7463 110.156 60.3297C118.032 66.9144 115.879 75.8001 105.348 80.1763C100.083 82.3645 94.824 80.0324 88.7925 79.3084C82.761 78.5844 75.957 79.4711 72.0198 76.1792C64.1453 69.5955 66.2971 60.7088 76.8275 56.3327Z" fill="#7B7BDB"/>
<path d="M64.8333 79.5985C59.6292 75.2488 57.3861 70.0327 58.4513 64.8311L58.4426 64.8295L59.687 59.6944L61.242 60.2125C63.5646 57.4472 66.991 55.0758 71.1961 53.3264C72.6705 52.7122 74.215 52.0023 75.8495 51.25C82.3187 48.2744 89.65 44.9008 96.5352 45.8265C103.228 46.7278 109.237 52.0577 114.066 56.3381C115.062 57.2204 116.005 58.0589 116.893 58.8006C120.039 61.4296 122.156 64.4688 123.044 67.62L124.753 67.4837L123.632 72.1643C122.334 77.5153 117.682 82.0999 110.532 85.0738C109.189 85.6322 107.796 86.1171 106.362 86.53C92.3845 90.5521 74.6117 87.7719 64.8333 79.5985ZM121.76 69.3319L121.626 68.7551C120.91 65.6959 118.887 62.7023 115.777 60.1016C114.879 59.3517 113.925 58.5053 112.92 57.6132C108.23 53.4535 102.392 48.2764 96.1253 47.4324C89.7046 46.5666 82.6124 49.8302 76.3564 52.7087C74.7062 53.4682 73.1473 54.185 71.6412 54.811C67.4833 56.54 64.1685 58.8903 62.0531 61.6082L61.6566 62.1167L60.7798 61.8251L60.374 63.4999L60.3972 63.5042L60.1883 64.2787C58.8867 69.1211 60.934 74.0983 65.9531 78.2938C76.3666 87 96.1696 89.3742 110.091 83.5823C116.667 80.848 120.922 76.7254 122.074 71.9698L122.726 69.2518L121.76 69.3319ZM93.4572 80.97C91.887 80.6528 90.2644 80.3246 88.5996 80.1254C86.9619 79.9293 85.2311 79.8521 83.557 79.7777C79.0973 79.5796 74.4875 79.3738 71.4601 76.8427C67.4343 73.4766 65.7575 69.3929 66.7397 65.3445C67.7203 61.2952 71.2244 57.8325 76.6055 55.5947C87.3714 51.1153 102.673 52.9532 110.721 59.6808C114.746 63.0456 116.423 67.1293 115.443 71.1786C114.462 75.2279 110.958 78.6919 105.575 80.9288C105.127 81.1156 104.679 81.2707 104.232 81.3993C100.67 82.4265 97.1548 81.716 93.4572 80.97ZM77.0494 57.0811C72.243 59.0793 69.1359 62.08 68.3012 65.5296C67.4651 68.9795 68.9847 72.5342 72.5788 75.5397C75.2522 77.7743 79.4208 77.9601 83.8352 78.1562C85.5363 78.2324 87.2967 78.3107 88.9917 78.5136C90.7152 78.7194 92.3682 79.0539 93.9661 79.3769C97.8829 80.1682 101.58 80.9185 105.134 79.4403C109.94 77.4409 113.047 74.4414 113.883 70.9902C114.719 67.5402 113.2 63.9855 109.604 60.9805C102.639 55.1569 89.9787 53.1754 80.0205 56.0429C78.9972 56.3389 78.0044 56.6839 77.0494 57.0811Z" fill="#7B7BDB"/>
<path d="M66.133 74.685C76.7479 83.5601 96.8601 85.9707 111.055 80.069C125.25 74.1673 128.152 62.1893 117.537 53.3142C106.922 44.439 86.8098 42.0285 72.615 47.9301C58.4202 53.8318 55.5182 65.8099 66.133 74.685ZM76.6456 51.2996C87.8633 46.6356 103.758 48.5403 112.146 55.5547C120.535 62.5686 118.24 72.0347 107.023 76.6987C95.8051 81.3627 79.9106 79.4579 71.5227 72.4436C63.135 65.4305 65.4292 55.9632 76.6456 51.2996Z" fill="#9595EF"/>
<path d="M65.5712 75.343C60.2207 70.8684 57.9878 65.4532 59.2855 60.0975C60.5829 54.7405 65.239 50.1523 72.3941 47.1758C86.8255 41.1728 107.326 43.6341 118.112 52.6525C123.462 57.127 125.695 62.5409 124.398 67.8979C123.1 73.2549 118.444 77.8431 111.289 80.8196C109.947 81.3781 108.552 81.8637 107.116 82.2773C93.1321 86.3052 75.3518 83.5234 65.5712 75.343ZM72.8371 48.6662C66.257 51.4029 61.9997 55.5298 60.8467 60.2857C59.6951 65.0412 61.7695 69.9274 66.6897 74.042C77.1065 82.7527 96.9162 85.1258 110.847 79.3331C117.425 76.5968 121.684 72.4696 122.837 67.7136C123.988 62.9568 121.914 58.0719 116.994 53.9573C107.545 46.0566 90.3742 43.3701 76.867 47.2608C75.4818 47.6584 74.1333 48.1265 72.8371 48.6662ZM70.9645 73.1008C66.6907 69.5272 64.9104 65.1928 65.9509 60.8968C66.9914 56.6008 70.7123 52.9267 76.4277 50.5491C87.8762 45.7902 104.159 47.7371 112.72 54.8969C116.994 58.4718 118.775 62.8062 117.734 67.1022C116.694 71.3981 112.973 75.0722 107.257 77.4498C106.191 77.893 105.084 78.278 103.944 78.6062C92.8429 81.8024 78.7281 79.5939 70.9645 73.1008ZM76.8703 52.0369C71.7312 54.1743 68.4077 57.3875 67.5119 61.0836C66.6174 64.7794 68.2405 68.5845 72.0827 71.7985C80.2765 78.6503 95.8585 80.5173 106.814 75.9607C111.954 73.8234 115.277 70.6102 116.172 66.9157C117.068 63.2195 115.444 59.4145 111.601 56.2008C104.17 49.9857 90.6635 47.8729 80.0402 50.9328C78.9502 51.2454 77.8889 51.6129 76.8703 52.0369Z" fill="#0E0F0D"/>
<path d="M93.1988 68.4314C96.828 71.4432 103.717 72.2388 108.583 70.2058C113.449 68.1741 114.453 64.0849 110.823 61.0718C107.194 58.0586 100.306 57.2643 95.4393 59.296C90.5717 61.3294 89.5681 65.4186 93.1988 68.4314Z" fill="white"/>
<path d="M92.7603 68.9398C90.8375 67.3441 90.0443 65.3871 90.5243 63.4284C91.0045 61.4711 92.6885 59.7993 95.2669 58.7222C100.314 56.6054 107.496 57.4379 111.264 60.5668C113.187 62.1624 113.98 64.1194 113.5 66.0781C113.02 68.0355 111.336 69.7085 108.757 70.7843C108.286 70.9815 107.799 71.152 107.296 71.2982C102.399 72.7219 96.1791 71.7758 92.7603 68.9398ZM95.6056 59.8621C93.4717 60.7537 92.0953 62.0703 91.7285 63.5674C91.3617 65.0644 92.0352 66.6164 93.6256 67.9375C97.1111 70.8295 103.744 71.5914 108.421 69.6437C110.555 68.752 111.932 67.4367 112.298 65.9384C112.665 64.4414 111.992 62.8893 110.401 61.5682C107.24 58.9436 101.486 58.0715 96.9578 59.3881C96.4924 59.522 96.0395 59.6811 95.6056 59.8621Z" fill="#150035"/>
<path d="M93.3147 68.2953C90.8254 68.0157 88.4773 67.1727 86.8604 65.8373C85.2078 64.4713 84.526 62.7915 84.9421 61.108C85.3569 59.4248 86.8089 57.985 89.0282 57.0563C93.3697 55.2354 99.5346 55.9305 102.769 58.604C104.421 59.9699 105.103 61.6497 104.687 63.3333C104.271 65.0169 102.82 66.4562 100.601 67.3849C98.4293 68.2943 95.8026 68.5754 93.3147 68.2953ZM96.0483 57.224C93.7538 56.9653 91.3308 57.2252 89.3283 58.0646C87.5025 58.8291 86.3253 59.9521 86.0104 61.2276C85.6954 62.5031 86.2705 63.8232 87.6297 64.947C90.611 67.4128 96.2953 68.0529 100.303 66.3746C102.129 65.61 103.306 64.4871 103.621 63.2116C103.936 61.9361 103.361 60.616 102.002 59.4922C100.51 58.2597 98.3427 57.4827 96.0483 57.224Z" fill="white"/>
<path d="M104.671 63.7578C105.088 62.0582 104.402 60.3615 102.741 58.9807C102.185 58.5183 101.519 58.1366 100.813 57.7938C99.9671 57.8277 99.1276 57.9134 98.3103 58.0671C99.7115 58.4711 100.992 59.0651 101.968 59.8776C103.335 61.0136 103.913 62.3471 103.597 63.6346C103.281 64.9222 102.098 66.0553 100.265 66.8251C97.9441 67.7999 95.0712 67.973 92.4726 67.4862C92.6816 67.7065 92.9073 67.9248 93.1616 68.136C93.4484 68.3736 93.7608 68.594 94.0856 68.8039C96.328 68.9451 98.6252 68.6576 100.564 67.8442C102.797 66.9092 104.254 65.4573 104.671 63.7578Z" fill="#9595EF"/>
<path d="M114.328 85.0301C114.133 84.8065 113.8 84.7586 113.371 84.9388L109.743 86.4731C108.897 86.8312 108.009 87.947 107.758 88.9644C107.595 89.6239 107.744 90.0748 108.096 90.2182L145.915 121.882C146.031 121.978 146.209 121.972 146.346 121.867L150.27 118.858C150.279 118.851 150.287 118.843 150.296 118.836L152.112 117.195C152.281 117.042 152.297 116.79 152.145 116.663L114.328 85.0301Z" fill="white"/>
<path d="M145.342 122.546L107.597 90.947C107.095 90.6781 106.695 90.0133 106.974 88.8812C107.298 87.5587 108.398 86.1993 109.533 85.7192L113.16 84.1854C113.874 83.8789 114.533 83.9639 114.949 84.3947L152.722 115.991C152.965 116.195 153.094 116.508 153.072 116.852C153.051 117.195 152.883 117.532 152.612 117.776L150.823 119.391L146.785 122.499C146.647 122.606 146.495 122.682 146.342 122.727C145.985 122.833 145.613 122.772 145.342 122.546ZM113.764 85.7048L113.784 85.7058L113.749 85.6656C113.749 85.6656 113.704 85.6634 113.605 85.7051L109.978 87.239C109.471 87.4534 108.76 88.2777 108.569 89.0608C108.505 89.3214 108.534 89.4631 108.506 89.4462L146.227 120.985L149.796 118.248L151.175 117.002L113.764 85.7048Z" fill="#150035"/>
<path d="M108.87 86.858L147.392 118.931L145.927 121.159L107.785 89.5329L108.149 88.0487L108.87 86.858Z" fill="#7B7BDB"/>
<path d="M107.63 88.0389L108.748 87.2758C108.736 87.2538 108.473 86.6995 109.234 85.674L108.252 84.9881C107.176 86.4398 107.354 87.5891 107.63 88.0389Z" fill="#9595EF"/>
<path d="M118.613 78.1224L117.848 81.9502L118.918 82.1022L119.684 78.2744L118.613 78.1224Z" fill="#9595EF"/>
<path d="M66.8191 78.7131C67.0704 78.8988 67.398 78.949 67.7184 78.8555C67.7734 78.8394 67.8278 78.8193 67.8829 78.7947C68.2562 78.6264 68.5352 78.2902 68.6304 77.8944L69.3299 75.0052L68.0991 74.8605L67.4601 77.497L66.8191 78.7131Z" fill="#9595EF"/>
</svg>
