<svg width="197" height="78" viewBox="0 0 197 78" fill="none" xmlns="http://www.w3.org/2000/svg">
<g opacity="0.569531">
<path fill-rule="evenodd" clip-rule="evenodd" d="M161.126 32.0582C176.291 36.8624 198.768 43.8983 187.086 80.9582C175.405 118.018 116.498 103.429 71.07 107.587C27.9218 111.536 -2.98987 84.841 0.230194 58.4033C0.393535 57.0623 0.638065 50.879 1.08803 49.5886C10.0561 23.8719 24.548 16.2499 47.809 10.0089C71.07 3.76781 94.9806 7.38849 103.839 12.7668C112.697 18.1452 145.961 27.2541 161.126 32.0582Z" fill="#9595EF"/>
</g>
<path fill-rule="evenodd" clip-rule="evenodd" d="M197.001 60.7097H185.116L102.563 12.7516C98.8234 10.5792 94.2161 10.5861 90.4829 12.7682L41.3911 41.4704H27.5977V53.0841C27.6016 55.1514 28.6225 57.2171 30.6569 58.394L121.189 110.786C124.87 112.916 129.393 112.94 133.095 110.849L193.886 76.5157C195.573 75.5625 196.564 73.9992 196.88 72.3233H197.001V60.7097Z" fill="white"/>
<path fill-rule="evenodd" clip-rule="evenodd" d="M197.001 60.7097H185.116L102.563 12.7516C98.8234 10.5792 94.2161 10.5861 90.4829 12.7682L41.3911 41.4704H27.5977V53.0841C27.6016 55.1514 28.6225 57.2171 30.6569 58.394L121.189 110.786C124.87 112.916 129.393 112.94 133.095 110.849L193.886 76.5157C195.573 75.5625 196.564 73.9992 196.88 72.3233H197.001V60.7097Z" stroke="black" stroke-width="2" stroke-linejoin="round"/>
<path fill-rule="evenodd" clip-rule="evenodd" d="M90.4831 2.6415L30.634 37.6331C26.5754 40.0058 26.5879 45.9128 30.6573 48.2672L121.189 100.659C124.87 102.789 129.393 102.813 133.095 100.722L193.886 66.3895C198.01 64.0595 198.046 58.0943 193.95 55.7142L102.563 2.62438C98.8235 0.452564 94.2163 0.458843 90.4831 2.6415Z" fill="white"/>
<path fill-rule="evenodd" clip-rule="evenodd" d="M90.4831 2.6415L30.634 37.6331C26.5754 40.0058 26.5879 45.9128 30.6573 48.2672L121.189 100.659C124.87 102.789 129.393 102.813 133.095 100.722L193.886 66.3894C198.01 64.0595 198.046 58.0943 193.95 55.7142L102.563 2.62438C98.8235 0.452564 94.2163 0.458843 90.4831 2.6415Z" stroke="black" stroke-width="2" stroke-linejoin="round"/>
<path fill-rule="evenodd" clip-rule="evenodd" d="M73.5404 73.5925C70.4351 71.7825 67.2522 71.3815 66.0461 72.5609L47.8516 82.6618L58.2212 91.2256L76.8047 80.909C77.3524 80.7487 77.7739 80.4643 78.0136 80.0451C78.9251 78.452 76.922 75.5634 73.5404 73.5925Z" fill="white"/>
<path fill-rule="evenodd" clip-rule="evenodd" d="M73.5404 73.5925C70.4351 71.7825 67.2522 71.3815 66.0461 72.5609L47.8516 82.6618L58.2212 91.2256L76.8047 80.909C77.3524 80.7487 77.7739 80.4643 78.0136 80.0451C78.9251 78.452 76.922 75.5634 73.5404 73.5925Z" stroke="black" stroke-width="2" stroke-linejoin="round"/>
<path fill-rule="evenodd" clip-rule="evenodd" d="M47.9191 76.0351L41.5896 79.1975C40.1767 79.9033 40.1086 81.8875 41.4701 82.688L58.1009 92.4637C59.4183 93.2385 61.0461 93.2686 62.3914 92.5443L68.9024 89.0382C70.2873 88.2923 70.3018 86.3176 68.9275 85.5522L52.0019 76.1264C50.7403 75.4238 49.2108 75.3899 47.9191 76.0351Z" fill="white"/>
<path fill-rule="evenodd" clip-rule="evenodd" d="M47.9191 76.0351L41.5896 79.1975C40.1767 79.9033 40.1086 81.8875 41.4701 82.688L58.1009 92.4637C59.4183 93.2385 61.0461 93.2686 62.3914 92.5443L68.9024 89.0382C70.2873 88.2923 70.3018 86.3176 68.9275 85.5522L52.0019 76.1264C50.7403 75.4238 49.2108 75.3899 47.9191 76.0351Z" stroke="black" stroke-width="2" stroke-linejoin="round"/>
<path fill-rule="evenodd" clip-rule="evenodd" d="M129.793 51.6363L139.073 32.9439L149.278 30.4609L156.492 41.9898L151.389 50.5011L129.793 51.6363L143.142 42.9329L142.945 42.8368L129.793 51.6363Z" fill="white"/>
<path fill-rule="evenodd" clip-rule="evenodd" d="M146.365 43.8118C146.365 45.0828 145.335 46.1131 144.063 46.1131C142.791 46.1131 141.762 45.0828 141.762 43.8118C141.762 42.5401 142.791 41.5098 144.063 41.5098C145.335 41.5098 146.365 42.5401 146.365 43.8118Z" fill="white"/>
<path fill-rule="evenodd" clip-rule="evenodd" d="M90.2046 25.8582C90.2046 26.3661 89.7923 26.7788 89.2842 26.7788C88.775 26.7788 88.3633 26.3661 88.3633 25.8582C88.3633 25.3496 88.775 24.9375 89.2842 24.9375C89.7923 24.9375 90.2046 25.3496 90.2046 25.8582Z" fill="white"/>
<path fill-rule="evenodd" clip-rule="evenodd" d="M112.298 40.5886C112.298 41.0972 111.886 41.5093 111.377 41.5093C110.869 41.5093 110.457 41.0972 110.457 40.5886C110.457 40.0807 110.869 39.668 111.377 39.668C111.886 39.668 112.298 40.0807 112.298 40.5886Z" fill="white"/>
<path fill-rule="evenodd" clip-rule="evenodd" d="M52.8843 46.2183C53.3344 46.4546 53.5072 47.0113 53.2703 47.4614C53.0339 47.9115 52.4767 48.0844 52.0271 47.8474C51.577 47.6111 51.4047 47.0544 51.6411 46.6043C51.8781 46.1542 52.4342 45.9819 52.8843 46.2183Z" fill="white"/>
<path fill-rule="evenodd" clip-rule="evenodd" d="M102.173 67.2879C102.173 67.7958 101.761 68.2085 101.253 68.2085C100.744 68.2085 100.332 67.7958 100.332 67.2879C100.332 66.7799 100.744 66.3672 101.253 66.3672C101.761 66.3672 102.173 66.7799 102.173 67.2879Z" fill="white"/>
<path d="M93.9071 28.1602H87.9227L73.6523 37.3668L81.0177 59.0026L127.051 67.2886L133.956 41.0495L100.812 51.6372V45.1925L87.9227 37.3668L93.9071 28.1602Z" stroke="black"/>
<path d="M45.5742 44.2711L91.6077 17.1113L83.3216 38.747L97.1317 35.0644L91.6077 55.7794H138.562L130.736 92.6062L45.5742 44.2711Z" fill="#9595EF" stroke="black"/>
<path d="M156.973 47.9541L174.465 58.5418" stroke="black"/>
<path d="M156.973 53.4785L174.465 64.0662" stroke="black"/>
</svg>
