<svg width="241" height="163" viewBox="0 0 241 163" fill="none" xmlns="http://www.w3.org/2000/svg">
<g opacity="0.569531">
<path fill-rule="evenodd" clip-rule="evenodd" d="M226.369 124.055C242.841 129.273 267.254 136.915 254.566 177.168C241.879 217.422 177.895 201.576 128.553 206.092C81.6871 210.381 48.1119 181.386 51.6094 152.67C51.7868 151.214 52.0524 144.497 52.5412 143.096C62.282 115.163 78.0226 106.884 103.288 100.106C128.553 93.3268 154.524 97.2595 164.146 103.101C173.767 108.943 209.897 118.837 226.369 124.055Z" fill="#9595EF"/>
</g>
<path d="M168.236 188.584L232.804 157.962C234.553 157.12 235.357 156.366 235.427 155.021L235.518 154.516L235.812 146.791L232.121 145.189L224.225 144.104L157.484 98.1887C153.495 95.4447 147.209 94.672 143.429 96.4758L85.5883 123.912L76.4599 122.917L76.165 130.187L76.1309 130.817C76.19 132.307 77.2176 133.923 79.2312 135.308L154.181 186.871C158.183 189.596 164.469 190.369 168.236 188.584Z" fill="white"/>
<path d="M75.375 121.631L85.3812 122.718L142.928 95.4209C147.081 93.4476 153.757 94.2333 158.114 97.2304L224.641 142.999L232.57 144.163L236.992 146.069L236.562 155.235C236.487 157.087 235.191 158.099 233.317 158.998L168.749 189.62C164.596 191.593 157.919 190.807 153.563 187.81L78.6128 136.247C76.3668 134.702 75.1019 132.809 75.0095 130.87L75.375 121.631ZM231.807 146.309L223.786 145.195L156.813 99.1204C153.193 96.6295 147.284 95.8889 143.904 97.4848L85.8006 125.053L77.5693 124.164L77.3014 130.856C77.3527 131.942 78.306 133.252 79.9131 134.357L154.844 185.907C158.465 188.398 164.373 189.138 167.753 187.542L232.322 156.921C234.104 156.072 234.247 155.574 234.281 154.944L234.38 154.302L234.649 147.526L231.807 146.309Z" fill="#16110D"/>
<path d="M79.18 119.045L143.729 88.4102C147.496 86.6256 153.795 87.3791 157.783 90.1231L232.753 141.699C236.742 144.443 236.903 148.106 233.123 149.91L168.555 180.532C164.788 182.316 158.489 181.563 154.5 178.819L79.5502 127.256C75.5617 124.512 75.3808 120.836 79.18 119.045Z" fill="#9595EF"/>
<path d="M76.1 120.081C76.6705 119.252 77.5325 118.538 78.6789 117.991L143.234 87.3886C147.42 85.4093 154.083 86.2143 158.439 89.2114L233.39 140.774C235.829 142.453 237.143 144.607 236.973 146.678C236.833 148.457 235.635 149.991 233.605 150.952L169.036 181.574C164.883 183.547 158.207 182.762 153.85 179.764L78.8999 128.202C76.4603 126.523 75.1466 124.369 75.3163 122.298C75.3852 121.493 75.6356 120.756 76.1 120.081ZM234.305 147.57C234.518 147.262 234.653 146.9 234.71 146.485C234.784 145.257 233.845 143.844 232.103 142.645L157.152 91.0821C153.532 88.5912 147.623 87.8506 144.243 89.4465L79.6613 120.087C78.777 120.502 77.6866 121.258 77.5929 122.472C77.5053 123.719 78.4576 125.113 80.2002 126.311L155.15 177.874C158.771 180.365 164.68 181.106 168.06 179.51L232.628 148.889C233.218 148.612 233.881 148.187 234.305 147.57Z" fill="#16110D"/>
<path d="M81.807 120.911L141.692 92.4944C143.814 91.4826 147.37 91.9115 149.636 93.47L216.648 139.572C218.894 141.117 218.997 143.205 216.855 144.204L156.97 172.62C154.848 173.632 151.292 173.203 149.026 171.645L82.0146 125.543C79.7687 123.998 79.6845 121.923 81.807 120.911Z" fill="white"/>
<path d="M84.6724 121.887C85.0174 121.386 85.5305 120.972 86.2118 120.645L146.084 92.2476C148.501 91.0975 152.349 91.5572 154.866 93.2889L221.878 139.391C223.311 140.376 224.095 141.683 223.988 142.916C223.903 143.994 223.181 144.919 221.976 145.51L162.091 173.926C159.674 175.076 155.825 174.617 153.308 172.885L86.2961 126.783C84.8633 125.798 84.0792 124.491 84.1861 123.258C84.2252 122.745 84.3938 122.292 84.6724 121.887ZM86.9407 122.197C86.4757 122.417 85.937 122.786 85.8969 123.383C85.8434 124 86.3679 124.73 87.278 125.356L154.27 171.444C156.265 172.816 159.495 173.221 161.356 172.341L221.247 143.957C221.693 143.724 222.231 143.356 222.291 142.771C222.344 142.155 221.82 141.424 220.91 140.798L153.898 94.6968C151.903 93.3248 148.673 92.9207 146.812 93.8004L86.9407 122.197Z" fill="#16110D"/>
<path d="M156.766 180.378L156.601 188.164L78.6972 134.882L76.0591 131.419L76.5209 124.32L155.047 178.854L156.766 180.378Z" fill="#7B7BDB"/>
<path d="M192.765 130.518L174.425 127.553L175.287 119.723C175.521 117.606 171.443 116.007 168.388 117.016L153.216 122.029C152.003 122.431 150.467 122.435 149.109 122.043L138.836 119.078C139.102 117.114 139.321 115.476 139.344 115.217C139.406 114.512 134.409 110.366 133.895 109.927C133.427 109.526 128.177 107.658 127.248 107.33C127.17 107.302 127.102 107.36 127.094 107.44L126.087 118.901L126.112 118.917C126.056 119.226 126.064 119.55 126.227 119.895L130.24 128.345C127.135 128.765 119.701 129.824 118.805 129.952C118.748 129.961 118.713 130.005 118.709 130.064L117.713 141.585C117.577 142.927 119.293 144.352 121.955 144.568L140.205 146.036C141.665 146.153 143.003 146.679 143.785 147.439L153.561 156.963C155.529 158.881 160.207 158.864 161.474 156.935L167.771 147.354C168.274 146.588 169.42 146.055 170.836 145.926L188.528 144.331C190.518 144.151 191.66 143.254 191.812 142.241L192.866 130.654C192.876 130.587 192.832 130.529 192.765 130.518Z" fill="#7B7BDB"/>
<path d="M191.283 144.319C190.65 144.738 189.777 145.05 188.617 145.154L170.925 146.749C169.791 146.851 168.83 147.267 168.471 147.813L162.172 157.394C161.535 158.362 160.288 158.994 158.659 159.171C156.473 159.41 154.253 158.777 153.004 157.558L143.229 148.034C142.589 147.411 141.41 146.961 140.153 146.859L121.903 145.39C120.043 145.242 118.471 144.547 117.586 143.488C117.077 142.877 116.844 142.193 116.911 141.51L117.962 129.346L118.709 129.15C119.504 129.036 125.547 128.174 129.034 127.695L125.5 120.258C125.361 119.966 125.288 119.661 125.276 119.344L125.267 119.337L125.283 118.841L126.327 106.975L126.727 106.658C126.973 106.503 127.269 106.471 127.544 106.574C133.839 108.799 134.291 109.19 134.441 109.319L134.623 109.474C140.265 114.226 140.217 114.77 140.173 115.299C140.152 115.532 139.979 116.838 139.754 118.498L149.348 121.267C150.553 121.616 151.909 121.614 152.971 121.262L168.14 116.249C170.352 115.517 173.265 115.975 174.917 117.313C175.788 118.018 176.212 118.908 176.111 119.821L175.336 126.879L192.913 129.72C193.399 129.8 193.736 130.234 193.697 130.725L192.642 142.322C192.537 143.025 192.12 143.766 191.283 144.319ZM168.049 145.99C168.755 145.522 169.694 145.217 170.778 145.12L188.47 143.525C190.1 143.38 190.935 142.698 191.018 142.128L192.007 131.233L173.538 128.247L174.486 119.641C174.534 119.21 174.187 118.83 173.888 118.586C172.805 117.708 170.552 117.177 168.657 117.802L153.488 122.815C152.122 123.268 150.406 123.276 148.897 122.839L137.943 119.678L138.039 118.977C138.269 117.291 138.463 115.849 138.525 115.324C138.32 115.025 137.429 113.972 133.573 110.724L133.378 110.561C133.06 110.35 130.826 109.482 127.846 108.416L126.959 118.503L126.997 118.53L126.93 119.067C126.898 119.267 126.91 119.409 126.981 119.554L131.474 129.013L130.364 129.163C127.62 129.534 121.489 130.407 119.49 130.692L118.541 141.661C118.51 141.97 118.688 142.254 118.843 142.44C119.303 142.991 120.381 143.626 122.034 143.758L140.283 145.226C141.928 145.361 143.456 145.972 144.368 146.86L154.145 156.382C155.032 157.247 156.816 157.723 158.483 157.541C159.583 157.423 160.452 157.034 160.805 156.492L167.103 146.911C167.334 146.559 167.654 146.249 168.049 145.99Z" fill="#15100C"/>
<path d="M133.164 105.519L150.141 110.418C151.499 110.811 153.034 110.804 154.248 110.404L169.42 105.391C172.476 104.381 176.553 105.981 176.319 108.098L175.162 118.607C175.069 119.447 175.699 120.303 176.848 120.895L191.206 128.284C194.098 129.772 193.127 132.387 189.565 132.708L171.873 134.303C170.458 134.43 169.312 134.964 168.808 135.731L162.511 145.311C161.242 147.242 156.566 147.257 154.597 145.34L144.822 135.816C144.039 135.054 142.701 134.53 141.241 134.413L122.992 132.944C119.315 132.649 117.396 130.044 119.743 128.538L131.392 121.057C132.325 120.458 132.642 119.6 132.244 118.761L127.262 108.274C126.254 106.158 129.744 104.532 133.164 105.519Z" fill="#E9E9FD"/>
<path d="M192.377 132.665C191.678 133.127 190.741 133.433 189.638 133.533L171.946 135.128C170.81 135.229 169.843 135.649 169.491 136.189L163.193 145.772C162.554 146.739 161.308 147.374 159.678 147.548C157.494 147.787 155.273 147.152 154.025 145.936L144.25 136.412C143.608 135.789 142.431 135.337 141.174 135.237L122.925 133.769C120.367 133.562 118.375 132.328 117.966 130.693C117.695 129.61 118.241 128.559 119.298 127.859L130.946 120.379C131.364 120.113 131.773 119.693 131.502 119.123L126.521 108.636C126.088 107.722 126.215 106.756 126.874 105.981C128.074 104.555 130.887 104.021 133.394 104.745L150.371 109.644C151.578 109.993 152.932 109.991 153.993 109.638L169.163 104.624C171.377 103.894 174.289 104.351 175.94 105.692C176.809 106.397 177.234 107.288 177.132 108.198L175.973 118.708C175.921 119.181 176.41 119.758 177.222 120.175L191.579 127.562C193.137 128.364 193.922 129.592 193.676 130.849C193.537 131.579 193.078 132.201 192.377 132.665ZM169.068 134.367C169.773 133.899 170.715 133.595 171.799 133.497L189.491 131.902C191.108 131.755 191.964 131.093 192.074 130.538C192.169 130.037 191.705 129.47 190.832 129.021L176.474 121.633C175.012 120.882 174.218 119.721 174.35 118.529L175.509 108.019C175.557 107.587 175.211 107.207 174.912 106.965C173.831 106.088 171.577 105.554 169.679 106.182L154.511 111.193C153.149 111.645 151.433 111.654 149.92 111.219L132.944 106.319C130.856 105.716 128.824 106.221 128.125 107.041C127.884 107.325 127.846 107.602 128.005 107.934L132.985 118.419C133.56 119.627 133.091 120.938 131.837 121.756L120.187 129.237C119.706 129.57 119.463 129.923 119.558 130.296C119.75 131.068 121.044 131.977 123.06 132.138L141.309 133.606C142.953 133.738 144.48 134.348 145.394 135.24L155.171 144.763C156.057 145.625 157.84 146.102 159.506 145.921C160.608 145.802 161.48 145.41 161.832 144.871L168.129 135.291C168.356 134.937 168.676 134.627 169.068 134.367Z" fill="#15100C"/>
<path d="M144.167 134.957L142.535 134.814L141.517 146.435L143.149 146.578L144.167 134.957Z" fill="#15100C"/>
<path d="M158.393 146.755L156.762 146.612L155.744 158.233L157.375 158.376L158.393 146.755Z" fill="#15100C"/>
<path d="M171.69 134.539L170.059 134.396L169.041 146.018L170.672 146.16L171.69 134.539Z" fill="#15100C"/>
<path d="M124.264 133.2L122.633 133.057L121.615 144.678L123.246 144.821L124.264 133.2Z" fill="#15100C"/>
<path d="M187.917 132.946L186.285 132.803L185.267 144.426L186.899 144.568L187.917 132.946Z" fill="#15100C"/>
<path d="M163.819 163.244C162.305 164.245 160.551 164.866 158.694 165.025C155.45 165.303 152.273 164.139 149.974 161.836L144.56 156.407C141.803 153.643 138.133 152.071 134.229 151.981L124.84 151.769L124.877 150.134L134.266 150.346C138.596 150.445 142.662 152.186 145.719 155.253L151.13 160.681C153.087 162.642 155.792 163.631 158.553 163.395C161.314 163.159 163.811 161.722 165.402 159.46L168.295 155.35L169.632 156.293L166.74 160.403C165.942 161.536 164.949 162.495 163.819 163.244Z" fill="#15100C"/>
<path d="M188.689 121.902L182.862 119.093C180.638 118.019 179.374 115.657 179.716 113.213L180.45 107.95C180.756 105.766 179.944 103.6 178.277 102.156C176.612 100.711 174.353 100.213 172.234 100.824L158.504 104.778L158.05 103.208L171.779 99.2521C174.434 98.4861 177.264 99.1107 179.35 100.919C181.437 102.729 182.453 105.442 182.072 108.177L181.338 113.44C181.093 115.177 181.994 116.855 183.574 117.618L189.401 120.427L188.689 121.902Z" fill="#15100C"/>
<path d="M122.094 151.603C118.233 151.409 115.777 148.547 115.674 148.426L116.923 147.369C116.944 147.393 119.041 149.812 122.177 149.969L122.094 151.603Z" fill="#15100C"/>
<path d="M197.81 136.119L196.175 136.039L196.525 128.795C196.595 127.344 195.867 125.972 194.626 125.219L191.859 123.539L192.71 122.142L195.474 123.821C197.23 124.884 198.259 126.822 198.16 128.875L197.81 136.119Z" fill="#15100C"/>
<path d="M157.797 165.012L157.555 163.393C153.863 163.948 149.368 158.753 149.322 158.7L148.078 159.764C148.287 160.006 153.21 165.699 157.797 165.012Z" fill="#7B7BDB"/>
</svg>
