<svg width="205" height="99" viewBox="0 0 205 99" fill="none" xmlns="http://www.w3.org/2000/svg">
<path fill-rule="evenodd" clip-rule="evenodd" d="M98.2806 19.7829L33.2746 57.7896C28.8663 60.3668 28.8798 66.7828 33.2998 69.3401L131.633 126.246C135.631 128.56 140.543 128.586 144.564 126.314L210.593 89.0238C215.073 86.4932 215.112 80.014 210.663 77.4287L111.401 19.7643C107.34 17.4054 102.336 17.4122 98.2806 19.7829Z" stroke="black" stroke-width="2" stroke-linejoin="round"/>
<g opacity="0.569531">
<path fill-rule="evenodd" clip-rule="evenodd" d="M175.01 51.7347C191.481 56.9528 215.895 64.595 203.207 104.848C190.519 145.101 126.536 129.256 77.1939 133.772C30.3277 138.061 -3.2475 109.066 0.250029 80.3498C0.427445 78.8932 0.693045 72.1771 1.18178 70.7756C10.9226 42.843 26.6632 34.5642 51.9286 27.7853C77.1939 21.0065 103.165 24.9392 112.786 30.781C122.408 36.6227 158.538 46.5165 175.01 51.7347Z" fill="#9595EF"/>
</g>
<path fill-rule="evenodd" clip-rule="evenodd" d="M213.977 82.8551H201.068L111.401 30.7647C107.34 28.4051 102.335 28.4125 98.2805 30.7826L44.9586 61.9581H29.9766V74.5724C29.9809 76.8179 31.0897 79.0616 33.2994 80.3399L131.633 137.246C135.631 139.56 140.543 139.586 144.564 137.314L210.593 100.023C212.426 98.9878 213.502 97.2897 213.845 95.4695H213.977V82.8551Z" fill="white"/>
<path fill-rule="evenodd" clip-rule="evenodd" d="M213.977 82.8551H201.068L111.401 30.7647C107.34 28.4051 102.335 28.4125 98.2805 30.7826L44.9586 61.9581H29.9766V74.5724C29.9809 76.8179 31.0897 79.0616 33.2994 80.3399L131.633 137.246C135.631 139.56 140.543 139.586 144.564 137.314L210.593 100.023C212.426 98.9878 213.502 97.2897 213.845 95.4695H213.977V82.8551Z" stroke="black" stroke-width="2" stroke-linejoin="round"/>
<path fill-rule="evenodd" clip-rule="evenodd" d="M98.2806 19.7829L33.2746 57.7896C28.8663 60.3668 28.8798 66.7828 33.2998 69.3401L131.633 126.246C135.631 128.56 140.543 128.586 144.564 126.314L210.593 89.0238C215.073 86.4932 215.112 80.014 210.663 77.4287L111.401 19.7643C107.34 17.4054 102.336 17.4122 98.2806 19.7829Z" fill="#E4E4FF"/>
<path d="M127.802 94.632C139.564 94.632 149.099 89.1267 149.099 82.3355C149.099 75.5444 139.564 70.0391 127.802 70.0391C116.039 70.0391 106.504 75.5444 106.504 82.3355C106.504 89.1267 116.039 94.632 127.802 94.632Z" fill="#150035"/>
<path d="M127.804 95.0517C122.271 95.0517 116.74 93.8364 112.528 91.4039C108.366 89.0008 106.074 85.7796 106.074 82.3342C106.074 78.8888 108.367 75.6677 112.529 73.2646C120.952 68.4006 134.658 68.3996 143.082 73.2646C147.243 75.6677 149.536 78.8888 149.536 82.3342C149.536 85.7796 147.243 89.0008 143.082 91.4039C138.869 93.8354 133.336 95.0517 127.804 95.0517ZM127.804 70.471C122.429 70.471 117.054 71.6521 112.961 74.0143C109.078 76.2558 106.94 79.2109 106.94 82.3342C106.94 85.4575 109.079 88.4126 112.961 90.6542C121.145 95.3795 134.462 95.3795 142.647 90.6542C146.53 88.4117 148.669 85.4575 148.669 82.3342C148.669 79.2109 146.53 76.2558 142.647 74.0143C138.556 71.6521 133.18 70.471 127.804 70.471Z" fill="#150035"/>
<path d="M162.571 70.2188C162.571 69.3513 162.466 68.4847 162.273 67.6229C161.424 61.3791 158.384 44.8029 148.693 28.5859L127.815 30.3438L106.937 28.5859C97.2464 44.8029 94.2077 61.3791 93.3572 67.6229C92.0175 73.5853 95.3061 79.8272 103.238 84.4081C116.812 92.2443 138.817 92.2443 152.391 84.4081C159.178 80.4894 162.571 75.3546 162.571 70.2188Z" fill="#9595EF"/>
<path d="M127.81 90.7022C118.831 90.7022 109.852 88.7296 103.017 84.7825C95.1613 80.2482 91.485 73.9588 92.9293 67.5279C93.7902 61.1873 96.8565 44.6025 106.56 28.3637L106.699 28.1318L127.846 29.9125L148.921 28.1318L149.059 28.3637C158.765 44.6044 161.829 61.1882 162.696 67.564C162.895 68.443 163 69.3475 163 70.2179C163 75.7386 159.307 80.9114 152.604 84.7825C145.768 88.7296 136.789 90.7022 127.81 90.7022ZM107.166 29.0402C97.6546 45.0672 94.6387 61.3877 93.7826 67.6809C92.42 73.7536 95.9462 79.6999 103.451 84.0328C116.883 91.7864 138.738 91.7864 152.171 84.0328C158.596 80.3223 162.135 75.4164 162.135 70.2179C162.135 69.4122 162.038 68.5703 161.846 67.717C160.984 61.3887 157.97 45.0691 148.456 29.0393L127.848 30.7743L107.166 29.0402Z" fill="#150035"/>
<path d="M142.873 22.3188C151.19 27.1211 151.19 34.906 142.873 39.7083C134.556 44.5106 121.07 44.5106 112.753 39.7083C104.436 34.906 104.436 27.1211 112.753 22.3188C121.071 17.5174 134.556 17.5174 142.873 22.3188Z" fill="#150035"/>
<path d="M127.808 43.7306C122.275 43.7306 116.744 42.5153 112.532 40.0837C108.37 37.6807 106.078 34.4595 106.078 31.0141C106.078 27.5687 108.371 24.3475 112.533 21.9445C120.956 17.0823 134.662 17.0823 143.085 21.9445C147.247 24.3475 149.54 27.5687 149.54 31.0141C149.54 34.4595 147.247 37.6807 143.085 40.0837C138.873 42.5143 133.34 43.7306 127.808 43.7306ZM127.808 19.1509C122.433 19.1509 117.058 20.332 112.965 22.6951C109.082 24.9366 106.944 27.8917 106.944 31.015C106.944 34.1374 109.083 37.0925 112.965 39.334C121.149 44.0593 134.466 44.0593 142.651 39.334C146.534 37.0925 148.673 34.1374 148.673 31.0141C148.673 27.8918 146.534 24.9366 142.651 22.6951C138.56 20.331 133.184 19.1509 127.808 19.1509Z" fill="#150035"/>
<path d="M148.929 26.2235H148.942C148.942 26.2235 145.956 2.78978 127.803 2.78028C109.651 2.77077 106.664 26.2235 106.664 26.2235H106.677C105.924 29.8419 107.935 33.6151 112.743 36.3925C121.061 41.1939 134.546 41.1939 142.863 36.3925C147.672 33.6151 149.681 29.8419 148.929 26.2235Z" fill="white"/>
<path d="M127.802 40.4125C122.27 40.4125 116.737 39.1972 112.526 36.7656C107.775 34.0224 105.486 30.2131 106.221 26.2916L106.233 26.1681C106.264 25.9296 109.48 2.34668 127.791 2.34668C127.794 2.34668 127.798 2.34668 127.802 2.34668C146.124 2.35618 149.34 25.9296 149.37 26.1681L149.392 26.3439C150.097 30.2473 147.808 34.0348 143.078 36.7656C138.867 39.1972 133.334 40.4125 127.802 40.4125ZM107.168 25.789H107.196L107.101 26.3106C106.354 29.8976 108.489 33.4352 112.96 36.0159C121.144 40.7413 134.461 40.7413 142.646 36.0159C147.116 33.4352 149.251 29.8976 148.505 26.3106L148.396 25.789H148.435C147.873 22.4547 143.92 3.22086 127.802 3.2123C127.799 3.2123 127.793 3.2123 127.791 3.2123C111.681 3.2123 107.731 22.4557 107.168 25.789Z" fill="#150035"/>
<path d="M130.569 5.1743C132.095 6.05513 132.095 7.48422 130.569 8.36506C129.043 9.24589 126.569 9.24589 125.043 8.36506C123.517 7.48422 123.517 6.05513 125.043 5.1743C126.568 4.29346 129.043 4.29346 130.569 5.1743Z" fill="#9595EF"/>
<path d="M127.809 9.46279C126.737 9.46279 125.666 9.22143 124.829 8.73968C123.951 8.23228 123.469 7.53294 123.469 6.76898C123.469 6.00502 123.952 5.30567 124.829 4.79827C126.501 3.83287 129.118 3.83287 130.789 4.79827C131.667 5.30567 132.151 6.00502 132.151 6.76898C132.151 7.53294 131.667 8.23228 130.789 8.73968C129.954 9.22143 128.882 9.46279 127.809 9.46279ZM127.81 4.95125C126.882 4.95125 125.954 5.15079 125.263 5.54892C124.664 5.8948 124.334 6.32809 124.334 6.76898C124.334 7.20987 124.664 7.64411 125.263 7.98903C126.643 8.78624 128.976 8.78624 130.357 7.98903C130.955 7.64316 131.285 7.20987 131.285 6.76898C131.285 6.32809 130.955 5.89385 130.357 5.54892C129.666 5.14984 128.738 4.95125 127.81 4.95125Z" fill="#150035"/>
<path d="M117.117 18.802C113.465 16.6936 112.049 13.7033 112.898 10.9221C112.941 10.7824 112.76 10.6874 112.675 10.8052C110.27 14.1252 108.772 17.8785 107.878 20.8526C107.097 24.2771 109.063 27.9334 113.62 30.5645C117.422 32.7595 122.376 33.8731 127.357 33.9197C129.311 33.9377 131.116 32.8811 132.064 31.1745L132.111 31.0909C133.442 28.6955 133.344 25.7774 131.864 23.4903C131.011 22.1733 129.558 21.3391 127.99 21.3514C124.061 21.3809 120.116 20.5333 117.117 18.802Z" fill="#9595EF"/>
<path d="M127.408 34.3539C127.39 34.3539 127.373 34.3539 127.354 34.3539C122.084 34.3045 117.13 33.092 113.404 30.9408C108.828 28.2992 106.604 24.4928 107.456 20.7575C108.276 18.0267 109.779 14.0672 112.324 10.5524C112.484 10.331 112.779 10.2569 113.024 10.3785C113.272 10.5011 113.393 10.7833 113.313 11.0484C112.491 13.7413 113.994 16.4997 117.333 18.4276C120.12 20.0363 123.824 20.9181 127.781 20.9181C127.862 20.9181 127.943 20.9153 128.024 20.9172C129.711 20.9172 131.28 21.7885 132.228 23.2546C133.8 25.6805 133.899 28.7648 132.49 31.3009L132.443 31.3855C131.424 33.2194 129.498 34.3529 127.408 34.3539ZM112.23 12.2267C110.231 15.33 108.998 18.6367 108.295 20.9789C107.538 24.2942 109.608 27.7491 113.838 30.1901C117.437 32.2682 122.241 33.4398 127.363 33.4873C129.2 33.4997 130.813 32.5371 131.687 30.9645L131.735 30.88C132.988 28.6242 132.9 25.8829 131.502 23.7259C130.727 22.5258 129.397 21.7837 128.024 21.7837C127.936 21.7847 127.863 21.7847 127.782 21.7847C123.674 21.7847 119.818 20.8621 116.9 19.1783C113.758 17.3644 112.093 14.8407 112.23 12.2267Z" fill="#150035"/>
<path d="M127.631 31.9157C122.649 31.8692 119.656 31.4463 115.569 29.2666C110.926 26.7904 108.56 23.8514 109.827 19.5546C110.446 17.4937 111.366 15.0583 112.667 12.6515C112.651 12.0728 112.724 11.4932 112.898 10.923C112.941 10.7834 112.76 10.6883 112.675 10.8062C110.27 14.1262 108.772 17.8794 107.878 20.8535C107.097 24.2781 109.063 27.9344 113.62 30.5655C117.422 32.7605 122.376 33.9206 127.357 33.9206C129.322 33.9206 130.79 32.5077 131.794 31.4587C131.862 31.3884 131.788 31.2819 131.696 31.3133C130.054 31.8834 128.263 31.9214 127.631 31.9157Z" fill="#150035"/>
<path d="M127.357 34.3529C122.17 34.3529 117.215 33.1414 113.404 30.9398C108.828 28.2983 106.604 24.4908 107.456 20.7566C108.276 18.0257 109.78 14.0653 112.324 10.5514C112.484 10.33 112.779 10.2559 113.024 10.3776C113.272 10.5001 113.393 10.7823 113.313 11.0475C113.156 11.5606 113.084 12.0946 113.1 12.6371L113.103 12.7531L113.047 12.8557C111.934 14.9157 110.964 17.275 110.241 19.6781C109.139 23.4143 110.845 26.2534 115.772 28.8826C119.808 31.0358 122.813 31.4368 127.633 31.4814C128.294 31.4928 129.994 31.4434 131.552 30.9027C131.786 30.821 132.04 30.9094 132.171 31.1146C132.3 31.317 132.275 31.5812 132.106 31.756C130.816 33.1053 129.346 34.3529 127.357 34.3529ZM112.238 12.2124C110.234 15.3195 108.998 18.6319 108.293 20.9779C107.537 24.2932 109.607 27.7472 113.836 30.1892C117.518 32.3157 122.319 33.4863 127.357 33.4863C128.585 33.4863 129.615 32.8782 130.536 32.0734C129.291 32.3281 128.141 32.3537 127.625 32.348C122.662 32.3014 119.56 31.8862 115.364 29.6475C110.078 26.8283 108.187 23.5815 109.411 19.432C110.139 17.0099 111.113 14.6325 112.231 12.5459C112.23 12.4347 112.233 12.3236 112.238 12.2124Z" fill="#150035"/>
<path d="M132.838 64.3858L130.718 57.8418C130.461 57.0503 129.712 56.5362 128.88 56.5495C117.797 56.7244 109.939 52.6471 106.943 50.7876C106.149 50.2953 105.119 50.4464 104.51 51.1534L101.923 54.1522C100.262 56.0773 99.0343 58.3473 98.3929 60.8074C94.7869 74.6327 97.972 80.4413 98.0233 80.5344C99.4401 81.8818 101.153 83.155 103.171 84.32C111.163 88.9341 122.078 90.8279 132.474 90.0088C134.975 83.0581 134.566 74.6432 134.07 70.0832C133.859 68.1457 133.438 66.2387 132.838 64.3858Z" fill="white"/>
<path d="M127.662 90.6306C118.423 90.6306 109.619 88.5421 102.955 84.6948C100.955 83.5403 99.1962 82.2461 97.7262 80.8484L97.6455 80.7438C97.5096 80.4987 94.3549 74.5752 97.9742 60.6985C98.6175 58.2308 99.8708 55.8696 101.596 53.8694L104.184 50.8706C104.934 50.0002 106.192 49.8102 107.172 50.4202C110.024 52.1904 117.807 56.2829 128.875 56.1176C129.892 56.1138 130.816 56.7409 131.13 57.7101L133.249 64.2532C133.87 66.1688 134.291 68.1148 134.501 70.0361C134.988 74.5163 135.427 83.0851 132.882 90.1546L132.787 90.4178L132.507 90.4396C130.886 90.5679 129.268 90.6306 127.662 90.6306ZM98.3762 80.2706C99.7853 81.6028 101.472 82.8381 103.388 83.9451C110.996 88.335 121.466 90.3902 132.161 89.5978C134.543 82.7421 134.115 74.4792 133.642 70.1292C133.438 68.2659 133.03 66.3788 132.427 64.5192L130.308 57.9752C130.116 57.3785 129.558 56.9823 128.915 56.9823C128.907 56.9823 128.898 56.9823 128.89 56.9823C117.594 57.1457 109.634 52.9658 106.717 51.1547C106.1 50.7728 105.311 50.8906 104.84 51.436L102.253 54.4348C100.614 56.3352 99.4242 58.5767 98.8142 60.9161C95.4591 73.7732 98.075 79.6578 98.3762 80.2706Z" fill="#150035"/>
<path d="M101.325 77.9665C101.325 78.7305 100.893 79.349 100.36 79.349C99.8269 79.349 99.3945 78.7295 99.3945 77.9665C99.3945 77.2025 99.8269 76.584 100.36 76.584C100.893 76.584 101.325 77.2025 101.325 77.9665Z" fill="#9595EF"/>
<path d="M100.364 79.782C99.5796 79.782 98.9648 78.9848 98.9648 77.9662C98.9648 76.9476 99.5796 76.1504 100.364 76.1504C101.147 76.1504 101.761 76.9476 101.761 77.9662C101.761 78.9839 101.147 79.782 100.364 79.782ZM100.364 77.016C100.113 77.016 99.8314 77.4218 99.8314 77.9653C99.8314 78.5088 100.113 78.9145 100.364 78.9145C100.614 78.9145 100.896 78.5088 100.896 77.9653C100.896 77.4218 100.615 77.016 100.364 77.016Z" fill="#150035"/>
<path d="M106.542 55.2525C106.184 55.9272 105.519 56.275 105.056 56.0289C104.593 55.7828 104.508 55.0369 104.866 54.3632C105.224 53.6885 105.889 53.3408 106.352 53.5869C106.816 53.832 106.9 54.5779 106.542 55.2525Z" fill="#9595EF"/>
<path d="M105.381 56.5385C105.193 56.5385 105.014 56.4957 104.852 56.4092C104.504 56.2249 104.274 55.8581 104.222 55.4039C104.177 55.0029 104.269 54.5611 104.484 54.1582C104.697 53.7553 105.011 53.4313 105.369 53.2441C105.775 53.0332 106.207 53.018 106.555 53.2023C107.239 53.5662 107.402 54.5554 106.924 55.4543C106.71 55.8572 106.395 56.1812 106.038 56.3684C105.822 56.4814 105.596 56.5385 105.381 56.5385ZM106.027 53.9387C105.923 53.9387 105.82 53.9853 105.77 54.0119C105.57 54.1164 105.379 54.3178 105.249 54.5639C105.117 54.8101 105.058 55.0808 105.083 55.306C105.092 55.3849 105.127 55.575 105.259 55.6443C105.39 55.7146 105.568 55.6367 105.638 55.5997C105.84 55.4951 106.03 55.2937 106.161 55.0476C106.415 54.5678 106.365 54.0812 106.149 53.9672C106.11 53.9463 106.069 53.9387 106.027 53.9387Z" fill="#150035"/>
<path d="M130.406 86.1472C130.406 86.9111 129.787 87.5297 129.023 87.5297C128.259 87.5297 127.641 86.9111 127.641 86.1472C127.641 85.3832 128.259 84.7646 129.023 84.7646C129.787 84.7646 130.406 85.3842 130.406 86.1472Z" fill="#9595EF"/>
<path d="M129.023 87.9618C128.021 87.9618 127.207 87.1474 127.207 86.1459C127.207 85.1454 128.021 84.3311 129.023 84.3311C130.024 84.3311 130.839 85.1454 130.839 86.1459C130.839 87.1474 130.024 87.9618 129.023 87.9618ZM129.023 85.1976C128.499 85.1976 128.074 85.6233 128.074 86.1469C128.074 86.6704 128.5 87.0971 129.023 87.0971C129.546 87.0971 129.973 86.6704 129.973 86.1469C129.973 85.6224 129.546 85.1976 129.023 85.1976Z" fill="#150035"/>
<path d="M128.699 61.1101C128.699 61.874 128.079 62.4926 127.316 62.4926C126.552 62.4926 125.934 61.874 125.934 61.1101C125.934 60.3461 126.552 59.7275 127.316 59.7275C128.08 59.7275 128.699 60.3461 128.699 61.1101Z" fill="#9595EF"/>
<path d="M127.316 62.9246C126.314 62.9246 125.5 62.1103 125.5 61.1088C125.5 60.1083 126.314 59.2939 127.316 59.2939C128.317 59.2939 129.132 60.1083 129.132 61.1088C129.132 62.1103 128.317 62.9246 127.316 62.9246ZM127.316 60.1596C126.792 60.1596 126.366 60.5853 126.366 61.1088C126.366 61.6324 126.792 62.059 127.316 62.059C127.839 62.059 128.265 61.6324 128.265 61.1088C128.266 60.5853 127.839 60.1596 127.316 60.1596Z" fill="#150035"/>
<path d="M128.026 11.5503C122.631 11.5503 121.33 8.04219 121.273 7.88161L122.09 7.5918C122.143 7.73813 123.442 11.1645 129.22 10.6267L129.3 11.4895C128.851 11.5313 128.427 11.5503 128.026 11.5503Z" fill="#150035"/>
<path d="M136.384 87.1197L136.277 86.2607C136.364 86.2493 144.979 85.1395 151.72 81.0518L152.168 81.7929C145.265 85.9766 136.471 87.1083 136.384 87.1197Z" fill="#150035"/>
<path d="M158.888 75.1144L158.367 74.4236C158.38 74.4122 159.772 73.3261 160.372 70.7891L161.214 70.9886C160.536 73.8496 158.955 75.064 158.888 75.1144Z" fill="#150035"/>
<path d="M113.509 6.62197L112.895 6.01194C113.103 5.8029 118.077 0.873283 126.29 0.00195312L126.382 0.862829C118.471 1.70375 113.558 6.57351 113.509 6.62197Z" fill="#150035"/>
<path d="M90.8561 69.3654L90 69.2314C90.0143 69.1383 91.4699 59.8435 93.2658 54.5195L94.0858 54.796C92.3156 60.0497 90.8713 69.2723 90.8561 69.3654Z" fill="#150035"/>
<path d="M134.296 1.57922C132.61 0.961594 128.724 0.866575 128.684 0.865625L128.704 0C128.869 0.00380079 132.773 0.0997704 134.594 0.765858L134.296 1.57922Z" fill="#150035"/>
<path d="M116.301 78.4934L116.174 77.415C116.104 76.8163 115.627 76.3137 115.014 76.1921L111.782 75.5516C111.187 75.4338 110.612 75.717 110.379 76.2405L109.95 77.205C109.719 77.7247 109.152 78.0003 108.568 77.8796L106.672 77.4872C105.808 77.3085 105.306 76.3545 105.68 75.6001L111.839 63.1791C112.097 62.6603 112.667 62.3715 113.252 62.4646L117.288 63.1078C117.888 63.2038 118.364 63.6637 118.468 64.249L121.032 78.6977C121.192 79.6004 120.385 80.3273 119.446 80.1325L117.465 79.722C116.848 79.5947 116.37 79.0901 116.301 78.4934ZM113.907 72.3808C114.79 72.5461 115.558 71.8582 115.456 70.9859L115.335 69.9559C115.256 69.3411 115.166 68.5458 115.065 67.5709C114.965 66.5941 114.542 66.4392 114.216 67.2659C113.969 67.894 113.511 68.9772 112.848 70.508C112.508 71.2909 113.03 72.2155 113.907 72.3808Z" fill="#9595EF"/>
<path d="M119.748 80.5982C119.62 80.5982 119.49 80.5849 119.36 80.5573L117.378 80.1468C116.582 79.9825 115.963 79.323 115.872 78.5448L115.745 77.4663C115.697 77.052 115.361 76.7033 114.93 76.6169L111.699 75.9755C111.304 75.8995 110.925 76.0791 110.776 76.4164L110.347 77.3818C110.033 78.0878 109.268 78.4679 108.48 78.3035L106.584 77.911C106.032 77.798 105.552 77.4236 105.303 76.9114C105.065 76.423 105.06 75.8757 105.291 75.4082L111.451 62.9863C111.793 62.2955 112.54 61.9145 113.32 62.0361L117.356 62.6794C118.14 62.8048 118.758 63.4044 118.894 64.1721L121.457 78.6208C121.556 79.1757 121.384 79.7164 120.986 80.1031C120.661 80.4243 120.215 80.5982 119.748 80.5982ZM111.516 75.0927C111.632 75.0927 111.75 75.1042 111.867 75.127L115.099 75.7683C115.894 75.9261 116.514 76.5827 116.605 77.3647L116.731 78.4431C116.78 78.8565 117.118 79.209 117.553 79.2993L119.535 79.7098C119.852 79.7734 120.171 79.6908 120.384 79.4846C120.576 79.2983 120.655 79.0456 120.606 78.7738L118.044 64.3251C117.971 63.9213 117.641 63.6039 117.221 63.5365L113.185 62.8932C112.783 62.8267 112.4 63.0224 112.228 63.3711L106.068 75.793C105.957 76.0182 105.962 76.2871 106.082 76.5332C106.215 76.806 106.468 77.0036 106.76 77.0644L108.656 77.4568C109.039 77.5376 109.408 77.3618 109.555 77.0302L109.983 76.0648C110.252 75.4614 110.854 75.0927 111.516 75.0927ZM114.174 72.8398C114.06 72.8398 113.944 72.8284 113.828 72.8066C113.265 72.7011 112.789 72.3514 112.522 71.8478C112.268 71.3689 112.243 70.8188 112.453 70.3361C113.114 68.81 113.573 67.724 113.815 67.1082C114.103 66.3785 114.484 66.273 114.748 66.3044C115.037 66.3443 115.402 66.5885 115.498 67.5282C115.598 68.4974 115.687 69.289 115.766 69.9009L115.887 70.9356C115.95 71.4791 115.76 72.0037 115.364 72.3733C115.038 72.6773 114.618 72.8398 114.174 72.8398ZM113.988 71.9561C114.28 72.0075 114.568 71.9333 114.773 71.7404C114.966 71.5609 115.058 71.3043 115.027 71.0364L114.906 70.0063C114.827 69.3944 114.737 68.5953 114.636 67.6166C114.63 67.5529 114.622 67.4969 114.613 67.4456C114.365 68.0727 113.906 69.1616 113.247 70.681C113.144 70.9204 113.158 71.1979 113.287 71.4421C113.431 71.7119 113.686 71.9001 113.988 71.9561Z" fill="#150035"/>
<path d="M128.546 36.4932C128.417 37.2524 127.528 37.6192 127.37 37.6781C127.361 37.6809 127.361 37.6923 127.37 37.6952C127.528 37.7541 128.416 38.118 128.546 38.8782C128.548 38.8886 128.562 38.8886 128.564 38.8782C128.694 38.119 129.589 37.7551 129.749 37.6952C129.758 37.6923 129.758 37.6809 129.749 37.6781C129.589 37.6182 128.693 37.2524 128.564 36.4932C128.562 36.4827 128.548 36.4827 128.546 36.4932Z" fill="#9595EF"/>
<path d="M131.96 36.4932C131.831 37.2524 130.942 37.6192 130.784 37.6781C130.775 37.6809 130.775 37.6923 130.784 37.6952C130.942 37.7541 131.83 38.118 131.96 38.8782C131.962 38.8886 131.976 38.8886 131.978 38.8782C132.108 38.119 133.003 37.7551 133.163 37.6952C133.172 37.6923 133.172 37.6809 133.163 37.6781C133.003 37.6182 132.107 37.2524 131.978 36.4932C131.976 36.4827 131.962 36.4827 131.96 36.4932Z" fill="#9595EF"/>
<path d="M135.382 36.4932C135.253 37.2524 134.364 37.6192 134.206 37.6781C134.197 37.6809 134.197 37.6923 134.206 37.6952C134.364 37.7541 135.252 38.118 135.382 38.8782C135.384 38.8886 135.398 38.8886 135.4 38.8782C135.53 38.119 136.425 37.7551 136.585 37.6952C136.593 37.6923 136.593 37.6809 136.585 37.6781C136.425 37.6182 135.529 37.2524 135.4 36.4932C135.398 36.4827 135.384 36.4827 135.382 36.4932Z" fill="#9595EF"/>
<path d="M135.382 33.0645C135.253 33.8246 134.364 34.1905 134.206 34.2494C134.197 34.2522 134.197 34.2636 134.206 34.2665C134.364 34.3254 135.252 34.6893 135.382 35.4495C135.384 35.4599 135.398 35.4599 135.4 35.4495C135.53 34.6903 136.425 34.3263 136.585 34.2665C136.593 34.2636 136.593 34.2522 136.585 34.2494C136.425 34.1895 135.529 33.8237 135.4 33.0645C135.398 33.054 135.384 33.054 135.382 33.0645Z" fill="#9595EF"/>
<path d="M138.796 33.0645C138.667 33.8246 137.778 34.1905 137.62 34.2494C137.611 34.2522 137.611 34.2636 137.62 34.2665C137.778 34.3254 138.666 34.6893 138.795 35.4495C138.797 35.4599 138.811 35.4599 138.813 35.4495C138.943 34.6903 139.838 34.3263 139.998 34.2665C140.007 34.2636 140.007 34.2522 139.998 34.2494C139.838 34.1895 138.942 33.8237 138.813 33.0645C138.812 33.054 138.798 33.054 138.796 33.0645Z" fill="#9595EF"/>
<path d="M142.21 33.0645C142.081 33.8246 141.192 34.1905 141.034 34.2494C141.025 34.2522 141.025 34.2636 141.034 34.2665C141.192 34.3254 142.08 34.6893 142.21 35.4495C142.212 35.4599 142.226 35.4599 142.228 35.4495C142.358 34.6903 143.253 34.3263 143.413 34.2665C143.422 34.2636 143.422 34.2522 143.413 34.2494C143.253 34.1895 142.357 33.8237 142.228 33.0645C142.226 33.054 142.212 33.054 142.21 33.0645Z" fill="#9595EF"/>
<path d="M138.796 29.6328C138.667 30.393 137.778 30.7588 137.62 30.8177C137.611 30.8206 137.611 30.832 137.62 30.8348C137.778 30.8937 138.666 31.2577 138.795 32.0178C138.797 32.0283 138.811 32.0283 138.813 32.0178C138.943 31.2586 139.838 30.8947 139.998 30.8348C140.007 30.832 140.007 30.8206 139.998 30.8177C139.838 30.7579 138.942 30.392 138.813 29.6328C138.812 29.6224 138.798 29.6224 138.796 29.6328Z" fill="#9595EF"/>
<path d="M142.21 29.6328C142.081 30.393 141.192 30.7588 141.034 30.8177C141.025 30.8206 141.025 30.832 141.034 30.8348C141.192 30.8937 142.08 31.2577 142.21 32.0178C142.212 32.0283 142.226 32.0283 142.228 32.0178C142.358 31.2586 143.253 30.8947 143.413 30.8348C143.422 30.832 143.422 30.8206 143.413 30.8177C143.253 30.7579 142.357 30.392 142.228 29.6328C142.226 29.6224 142.212 29.6224 142.21 29.6328Z" fill="#9595EF"/>
<path d="M145.624 29.6328C145.495 30.393 144.607 30.7588 144.448 30.8177C144.439 30.8206 144.439 30.832 144.448 30.8348C144.607 30.8937 145.494 31.2577 145.624 32.0178C145.626 32.0283 145.64 32.0283 145.642 32.0178C145.772 31.2586 146.667 30.8947 146.827 30.8348C146.836 30.832 146.836 30.8206 146.827 30.8177C146.667 30.7579 145.771 30.392 145.642 29.6328C145.64 29.6224 145.626 29.6224 145.624 29.6328Z" fill="#9595EF"/>
<path d="M142.21 26.2032C142.081 26.9624 141.192 27.3291 141.034 27.3881C141.025 27.3909 141.025 27.4023 141.034 27.4051C141.192 27.4641 142.08 27.828 142.21 28.5882C142.212 28.5986 142.226 28.5986 142.228 28.5882C142.358 27.8289 143.253 27.465 143.413 27.4051C143.422 27.4023 143.422 27.3909 143.413 27.3881C143.253 27.3282 142.357 26.9624 142.228 26.2032C142.226 26.1927 142.212 26.1927 142.21 26.2032Z" fill="#9595EF"/>
<path d="M145.624 26.2032C145.495 26.9624 144.607 27.3291 144.448 27.3881C144.439 27.3909 144.439 27.4023 144.448 27.4051C144.607 27.4641 145.494 27.828 145.624 28.5882C145.626 28.5986 145.64 28.5986 145.642 28.5882C145.772 27.8289 146.667 27.465 146.827 27.4051C146.836 27.4023 146.836 27.3909 146.827 27.3881C146.667 27.3282 145.771 26.9624 145.642 26.2032C145.64 26.1927 145.626 26.1927 145.624 26.2032Z" fill="#9595EF"/>
<path d="M145.624 22.7735C145.495 23.5327 144.607 23.8994 144.448 23.9584C144.439 23.9612 144.439 23.9726 144.448 23.9755C144.607 24.0344 145.494 24.3983 145.624 25.1585C145.626 25.1689 145.64 25.1689 145.642 25.1585C145.772 24.3993 146.667 24.0353 146.827 23.9755C146.836 23.9726 146.836 23.9612 146.827 23.9584C146.667 23.8985 145.771 23.5327 145.642 22.7735C145.64 22.763 145.626 22.763 145.624 22.7735Z" fill="#9595EF"/>
<path d="M145.624 19.3428C145.495 20.102 144.607 20.4688 144.448 20.5277C144.439 20.5305 144.439 20.5419 144.448 20.5448C144.607 20.6037 145.494 20.9676 145.624 21.7278C145.626 21.7382 145.64 21.7382 145.642 21.7278C145.772 20.9686 146.667 20.6047 146.827 20.5448C146.836 20.5419 146.836 20.5305 146.827 20.5277C146.667 20.4678 145.771 20.102 145.642 19.3428C145.64 19.3323 145.626 19.3323 145.624 19.3428Z" fill="#9595EF"/>
<path d="M142.21 15.9131C142.081 16.6733 141.192 17.0391 141.034 17.098C141.025 17.1009 141.025 17.1123 141.034 17.1151C141.192 17.174 142.08 17.5379 142.21 18.2981C142.212 18.3086 142.226 18.3086 142.228 18.2981C142.358 17.5389 143.253 17.175 143.413 17.1151C143.422 17.1123 143.422 17.1009 143.413 17.098C143.253 17.0381 142.357 16.6723 142.228 15.9131C142.226 15.9027 142.212 15.9027 142.21 15.9131Z" fill="#9595EF"/>
<path d="M142.21 12.4824C142.081 13.2417 141.192 13.6084 141.034 13.6673C141.025 13.6702 141.025 13.6816 141.034 13.6844C141.192 13.7434 142.08 14.1073 142.21 14.8674C142.212 14.8779 142.226 14.8779 142.228 14.8674C142.358 14.1082 143.253 13.7443 143.413 13.6844C143.422 13.6816 143.422 13.6702 143.413 13.6673C143.253 13.6075 142.357 13.2417 142.228 12.4824C142.226 12.472 142.212 12.472 142.21 12.4824Z" fill="#9595EF"/>
<path d="M136.491 81.8037C136.362 82.5629 135.474 82.9297 135.315 82.9886C135.306 82.9915 135.306 83.0029 135.315 83.0057C135.474 83.0646 136.361 83.4286 136.491 84.1887C136.493 84.1992 136.507 84.1992 136.509 84.1887C136.64 83.4295 137.535 83.0656 137.694 83.0057C137.703 83.0029 137.703 82.9915 137.694 82.9886C137.535 82.9288 136.639 82.5629 136.509 81.8037C136.507 81.7933 136.493 81.7933 136.491 81.8037Z" fill="#9595EF"/>
<path d="M95.2648 65.5381C95.1355 66.2973 94.2471 66.6641 94.0884 66.723C94.0799 66.7259 94.0799 66.7373 94.0884 66.7401C94.2462 66.799 95.1346 67.1629 95.2648 67.9231C95.2667 67.9336 95.2809 67.9336 95.2828 67.9231C95.413 67.1639 96.3081 66.8 96.4677 66.7401C96.4763 66.7373 96.4763 66.7259 96.4677 66.723C96.3081 66.6631 95.4121 66.2973 95.2828 65.5381C95.28 65.5277 95.2657 65.5277 95.2648 65.5381Z" fill="#9595EF"/>
<path d="M139.905 81.8037C139.776 82.5629 138.888 82.9297 138.729 82.9886C138.721 82.9915 138.721 83.0029 138.729 83.0057C138.888 83.0646 139.775 83.4286 139.905 84.1887C139.907 84.1992 139.922 84.1992 139.923 84.1887C140.054 83.4295 140.949 83.0656 141.108 83.0057C141.117 83.0029 141.117 82.9915 141.108 82.9886C140.949 82.9288 140.053 82.5629 139.923 81.8037C139.922 81.7933 139.907 81.7933 139.905 81.8037Z" fill="#9595EF"/>
<path d="M143.323 81.8037C143.193 82.5629 142.305 82.9297 142.146 82.9886C142.139 82.9915 142.139 83.0029 142.146 83.0057C142.305 83.0646 143.192 83.4286 143.323 84.1887C143.325 84.1992 143.339 84.1992 143.341 84.1887C143.471 83.4295 144.366 83.0656 144.526 83.0057C144.534 83.0029 144.534 82.9915 144.526 82.9886C144.366 82.9288 143.47 82.5629 143.341 81.8037C143.339 81.7933 143.325 81.7933 143.323 81.8037Z" fill="#9595EF"/>
<path d="M94.7257 68.8477C94.5965 69.6078 93.7081 69.9737 93.5494 70.0326C93.5408 70.0354 93.5408 70.0468 93.5494 70.0497C93.7081 70.1086 94.5955 70.4725 94.7257 71.2327C94.7276 71.2431 94.7419 71.2431 94.7438 71.2327C94.8739 70.4735 95.769 70.1095 95.9287 70.0497C95.9372 70.0468 95.9372 70.0354 95.9287 70.0326C95.769 69.9727 94.873 69.6069 94.7438 68.8477C94.7409 68.8372 94.7276 68.8372 94.7257 68.8477Z" fill="#9595EF"/>
<path d="M139.905 78.3721C139.776 79.1313 138.888 79.4971 138.729 79.557C138.721 79.5599 138.721 79.5712 138.729 79.5741C138.888 79.633 139.775 79.9969 139.905 80.7571C139.907 80.7676 139.922 80.7676 139.923 80.7571C140.054 79.9979 140.949 79.634 141.108 79.5741C141.117 79.5712 141.117 79.5599 141.108 79.557C140.949 79.4971 140.053 79.1313 139.923 78.3721C139.922 78.3616 139.907 78.3616 139.905 78.3721Z" fill="#9595EF"/>
<path d="M143.323 78.3721C143.193 79.1313 142.305 79.4971 142.146 79.557C142.139 79.5599 142.139 79.5712 142.146 79.5741C142.305 79.633 143.192 79.9969 143.323 80.7571C143.325 80.7676 143.339 80.7676 143.341 80.7571C143.471 79.9979 144.366 79.634 144.526 79.5741C144.534 79.5712 144.534 79.5599 144.526 79.557C144.366 79.4971 143.47 79.1313 143.341 78.3721C143.339 78.3616 143.325 78.3616 143.323 78.3721Z" fill="#9595EF"/>
<path d="M146.737 78.3721C146.608 79.1313 145.72 79.4971 145.561 79.557C145.553 79.5599 145.553 79.5712 145.561 79.5741C145.72 79.633 146.607 79.9969 146.737 80.7571C146.739 80.7676 146.754 80.7676 146.755 80.7571C146.886 79.9979 147.781 79.634 147.94 79.5741C147.949 79.5712 147.949 79.5599 147.94 79.557C147.781 79.4971 146.885 79.1313 146.755 78.3721C146.754 78.3616 146.739 78.3616 146.737 78.3721Z" fill="#9595EF"/>
<path d="M150.177 80.7571C150.307 79.9979 151.202 79.634 151.362 79.5741C151.37 79.5712 151.37 79.5599 151.362 79.557C151.202 79.4971 150.306 79.1313 150.177 78.3721C150.175 78.3616 150.161 78.3616 150.159 78.3721C150.029 79.1313 149.141 79.4971 148.982 79.557C148.975 79.5599 148.975 79.5712 148.982 79.5741C149.141 79.633 150.028 79.9969 150.159 80.7571H150.177Z" fill="#9595EF"/>
<path d="M146.737 74.9424C146.608 75.7016 145.72 76.0675 145.561 76.1273C145.553 76.1302 145.553 76.1416 145.561 76.1444C145.72 76.2033 146.607 76.5673 146.737 77.3274C146.739 77.3379 146.754 77.3379 146.755 77.3274C146.886 76.5682 147.781 76.2043 147.94 76.1444C147.949 76.1416 147.949 76.1302 147.94 76.1273C147.781 76.0675 146.885 75.7016 146.755 74.9424C146.754 74.932 146.739 74.932 146.737 74.9424Z" fill="#9595EF"/>
<path d="M150.159 74.9424C150.029 75.7016 149.141 76.0675 148.982 76.1273C148.975 76.1302 148.975 76.1416 148.982 76.1444C149.141 76.2033 150.028 76.5673 150.159 77.3274C150.161 77.3379 150.175 77.3379 150.177 77.3274C150.307 76.5682 151.202 76.2043 151.362 76.1444C151.37 76.1416 151.37 76.1302 151.362 76.1273C151.202 76.0675 150.306 75.7016 150.177 74.9424C150.175 74.932 150.161 74.932 150.159 74.9424Z" fill="#9595EF"/>
<path d="M146.737 71.5127C146.608 72.2729 145.72 72.6387 145.561 72.6976C145.553 72.7005 145.553 72.7119 145.561 72.7147C145.72 72.7736 146.607 73.1376 146.737 73.8977C146.739 73.9082 146.754 73.9082 146.755 73.8977C146.886 73.1385 147.781 72.7746 147.94 72.7147C147.949 72.7119 147.949 72.7005 147.94 72.6976C147.781 72.6378 146.885 72.2719 146.755 71.5127C146.754 71.5023 146.739 71.5023 146.737 71.5127Z" fill="#9595EF"/>
<path d="M150.159 71.5127C150.029 72.2729 149.141 72.6387 148.982 72.6976C148.975 72.7005 148.975 72.7119 148.982 72.7147C149.141 72.7736 150.028 73.1376 150.159 73.8977C150.161 73.9082 150.175 73.9082 150.177 73.8977C150.307 73.1385 151.202 72.7746 151.362 72.7147C151.37 72.7119 151.37 72.7005 151.362 72.6976C151.202 72.6378 150.306 72.2719 150.177 71.5127C150.175 71.5023 150.161 71.5023 150.159 71.5127Z" fill="#9595EF"/>
<path d="M153.573 71.5127C153.444 72.2729 152.556 72.6387 152.397 72.6976C152.388 72.7005 152.388 72.7119 152.397 72.7147C152.556 72.7736 153.443 73.1376 153.573 73.8977C153.575 73.9082 153.59 73.9082 153.591 73.8977C153.722 73.1385 154.617 72.7746 154.776 72.7147C154.785 72.7119 154.785 72.7005 154.776 72.6976C154.617 72.6378 153.721 72.2719 153.591 71.5127C153.59 71.5023 153.575 71.5023 153.573 71.5127Z" fill="#9595EF"/>
<path d="M156.987 71.5127C156.858 72.2729 155.969 72.6387 155.811 72.6976C155.802 72.7005 155.803 72.7119 155.811 72.7147C155.969 72.7736 156.857 73.1376 156.987 73.8977C156.989 73.9082 157.003 73.9082 157.005 73.8977C157.135 73.1385 158.03 72.7746 158.19 72.7147C158.199 72.7119 158.199 72.7005 158.19 72.6976C158.03 72.6378 157.134 72.2719 157.005 71.5127C157.003 71.5023 156.989 71.5023 156.987 71.5127Z" fill="#9595EF"/>
<path d="M153.573 68.0821C153.444 68.8422 152.556 69.208 152.397 69.267C152.388 69.2698 152.388 69.2812 152.397 69.2841C152.556 69.343 153.443 69.7069 153.573 70.4671C153.575 70.4775 153.59 70.4775 153.591 70.4671C153.722 69.7079 154.617 69.3439 154.776 69.2841C154.785 69.2812 154.785 69.2698 154.776 69.267C154.617 69.2071 153.721 68.8413 153.591 68.0821C153.59 68.0716 153.575 68.0716 153.573 68.0821Z" fill="#9595EF"/>
<path d="M156.987 68.0821C156.858 68.8422 155.969 69.208 155.811 69.267C155.802 69.2698 155.803 69.2812 155.811 69.2841C155.969 69.343 156.857 69.7069 156.987 70.4671C156.989 70.4775 157.003 70.4775 157.005 70.4671C157.135 69.7079 158.03 69.3439 158.19 69.2841C158.199 69.2812 158.199 69.2698 158.19 69.267C158.03 69.2071 157.134 68.8413 157.005 68.0821C157.003 68.0716 156.989 68.0716 156.987 68.0821Z" fill="#9595EF"/>
<path d="M160.401 68.0821C160.272 68.8422 159.384 69.208 159.225 69.267C159.217 69.2698 159.217 69.2812 159.225 69.2841C159.384 69.343 160.271 69.7069 160.401 70.4671C160.403 70.4775 160.418 70.4775 160.42 70.4671C160.55 69.7079 161.445 69.3439 161.604 69.2841C161.613 69.2812 161.613 69.2698 161.604 69.267C161.445 69.2071 160.549 68.8413 160.42 68.0821C160.418 68.0716 160.403 68.0716 160.401 68.0821Z" fill="#9595EF"/>
<path d="M156.987 64.6524C156.858 65.4116 155.969 65.7774 155.811 65.8373C155.802 65.8401 155.803 65.8515 155.811 65.8544C155.969 65.9133 156.857 66.2772 156.987 67.0374C156.989 67.0478 157.003 67.0478 157.005 67.0374C157.135 66.2782 158.03 65.9142 158.19 65.8544C158.199 65.8515 158.199 65.8401 158.19 65.8373C158.03 65.7774 157.134 65.4116 157.005 64.6524C157.003 64.6419 156.989 64.6419 156.987 64.6524Z" fill="#9595EF"/>
<path d="M160.401 64.6524C160.272 65.4116 159.384 65.7774 159.225 65.8373C159.217 65.8401 159.217 65.8515 159.225 65.8544C159.384 65.9133 160.271 66.2772 160.401 67.0374C160.403 67.0478 160.418 67.0478 160.42 67.0374C160.55 66.2782 161.445 65.9142 161.604 65.8544C161.613 65.8515 161.613 65.8401 161.604 65.8373C161.445 65.7774 160.549 65.4116 160.42 64.6524C160.418 64.6419 160.403 64.6419 160.401 64.6524Z" fill="#9595EF"/>
<path d="M156.987 61.2217C156.858 61.9809 155.969 62.3467 155.811 62.4066C155.802 62.4095 155.803 62.4209 155.811 62.4237C155.969 62.4826 156.857 62.8466 156.987 63.6067C156.989 63.6172 157.003 63.6172 157.005 63.6067C157.135 62.8475 158.03 62.4836 158.19 62.4237C158.199 62.4209 158.199 62.4095 158.19 62.4066C158.03 62.3467 157.134 61.9809 157.005 61.2217C157.003 61.2113 156.989 61.2113 156.987 61.2217Z" fill="#9595EF"/>
<path d="M107.881 20.8687C108.192 19.6914 109.483 16.495 109.496 16.4627L108.693 16.1377C108.639 16.2707 107.367 19.4168 107.043 20.6473L107.881 20.8687Z" fill="#9595EF"/>
<path d="M114.273 25.4209C113.946 25.4475 113.664 25.1444 113.642 24.7443L113.419 20.5758L112.656 21.1858C112.381 21.4053 112.014 21.3113 111.835 20.9749C111.655 20.6395 111.733 20.1891 112.007 19.9696L113.079 19.1125C113.371 18.8797 113.732 18.8522 114.043 19.0441C114.356 19.2351 114.555 19.6028 114.578 20.0294L114.826 24.6474C114.848 25.0484 114.6 25.3943 114.273 25.4209Z" fill="white"/>
<path d="M113.583 25.4199C113.256 25.4465 112.974 25.1434 112.952 24.7433L112.728 20.5748L111.965 21.1849C111.69 21.4044 111.322 21.3103 111.144 20.9739C110.964 20.6385 111.042 20.1881 111.316 19.9686L112.387 19.1115C112.679 18.8787 113.039 18.8512 113.352 19.0431C113.664 19.2341 113.864 19.6018 113.887 20.0285L114.135 24.6464C114.158 25.0474 113.91 25.3933 113.583 25.4199Z" fill="#150035"/>
<path d="M127.901 29.2356C127.598 29.4389 127.207 29.3239 127.029 28.979L125.036 25.1288C124.952 24.9682 124.811 24.8647 124.647 24.8466C124.484 24.8295 124.327 24.897 124.217 25.0367L121.58 28.3766C121.345 28.675 120.942 28.6987 120.68 28.4307H120.679C120.418 28.1628 120.397 27.7029 120.632 27.4055L123.27 24.0656C123.662 23.5705 124.224 23.3311 124.805 23.4061C125.388 23.4812 125.887 23.9202 126.185 24.495L128.124 28.2426C128.305 28.5866 128.204 29.0322 127.901 29.2356Z" fill="white"/>
<path d="M127.008 29.4927C126.705 29.696 126.315 29.5811 126.136 29.2361L124.144 25.386C124.06 25.2254 123.918 25.1218 123.756 25.1028C123.592 25.0857 123.436 25.1532 123.325 25.2928L120.689 28.6328C120.453 28.9311 120.05 28.9549 119.789 28.6869C119.527 28.419 119.507 27.96 119.741 27.6617L122.379 24.3217C122.771 23.8267 123.333 23.5872 123.915 23.6633C124.497 23.7383 124.997 24.1773 125.294 24.7522L127.234 28.4998C127.412 28.8437 127.311 29.2894 127.008 29.4927Z" fill="#150035"/>
</svg>
