<svg xmlns="http://www.w3.org/2000/svg" xmlns:xlink="http://www.w3.org/1999/xlink" width="136" height="72" viewBox="0 0 136 72">
  <defs>
    <rect id="alteryx-a" width="113" height="62" x="23" y="10" rx="4"/>
    <mask id="alteryx-b" width="113" height="62" x="0" y="0" fill="#fff">
      <use xlink:href="#alteryx-a"/>
    </mask>
    <polygon id="alteryx-c" points="0 .213 13.1 .213 13.1 15.263 0 15.263"/>
  </defs>
  <g fill="none" fill-rule="evenodd">
    <use fill="#A289FF" fill-opacity=".07" stroke="#000" stroke-dasharray="8" stroke-linecap="round" stroke-linejoin="round" stroke-width="2" mask="url(#alteryx-b)" xlink:href="#alteryx-a"/>
    <rect width="113" height="62" fill="#0079D6" rx="4"/>
    <g transform="translate(15 18)">
      <g transform="translate(0 4.654)">
        <mask id="alteryx-d" fill="#fff">
          <use xlink:href="#alteryx-c"/>
        </mask>
        <path fill="#FFF" d="M7.94624015,12.1099124 L7.89935334,12.146027 L7.85026871,12.1765463 C6.97895545,12.8044826 5.67784642,13.2241241 4.61019463,13.2241241 L4.60872942,13.2241241 C3.04388207,13.1885182 2.47391426,12.6119562 2.44265639,11.0437687 C2.47660048,9.23676697 3.05682478,8.67978826 5.01117456,8.55135254 L7.70863146,8.41986487 L7.82902312,8.41452398 L7.94624015,8.41096338 L7.94624015,12.1099124 Z M12.8583663,12.998535 C12.7716746,12.6951215 12.5277166,12.5084446 12.2339414,12.5084446 C12.1550641,12.5127682 12.0822919,12.5176004 11.9872973,12.5402356 C11.5692232,12.6450188 11.336987,12.6768099 11.0156169,12.7004624 C10.4056,12.7309818 10.298151,12.4830118 10.2578577,11.7688583 L10.2578577,1.99095725 C10.2395425,1.76435085 10.1262327,1.53876176 9.95919844,1.40244186 L9.8979037,1.36174935 C9.87885594,1.34547235 9.85907556,1.32512609 9.83319013,1.3116467 C9.32378446,0.999077371 8.47615881,0.748055462 7.75551828,0.558326643 L7.70228221,0.54204964 C6.8475747,0.326633676 5.90177979,0.213203309 4.96770658,0.213203309 C4.41800755,0.213203309 3.92178879,0.256439099 3.72349664,0.282889229 C3.31299283,0.324090394 2.20407089,0.516362494 1.83117421,0.649121802 C1.72348107,0.685236403 1.37305099,0.85843389 1.36157349,1.20203125 C1.36767854,1.38082396 1.56133084,1.9525537 1.56133084,1.9525537 C1.68758335,2.35286625 1.82091772,2.45027394 2.06365466,2.50190256 C2.25852797,2.52479209 2.67904406,2.43323395 2.95938813,2.38262264 C3.68320329,2.24375946 4.15549024,2.19111353 4.49419862,2.18678995 C4.93205306,2.17966876 5.4829731,2.17331056 6.12815517,2.27071825 C7.35404995,2.46655094 7.82706951,2.85897932 7.82706951,2.85897932 L7.82706951,6.65660763 L7.71839955,6.6599139 L5.09981994,6.72832818 C1.59722856,6.84328451 -0.0230526826,8.2901575 0.000146521288,11.2057757 C-0.00547012807,12.5298082 0.393311976,13.592137 1.15229225,14.2790774 C1.85705964,14.9232906 2.89101153,15.2628188 4.13522146,15.2628188 L4.1398613,15.2628188 C5.56868806,15.2628188 6.79678065,14.8055367 7.99410377,13.8174717 L8.10863458,13.7264222 L8.16724309,13.8637595 C8.45540163,14.5245041 8.94649214,14.9525384 9.62024586,15.1313311 C9.92232392,15.2185657 10.2681142,15.2628188 10.7098758,15.2628188 C10.8229414,15.2628188 10.9367396,15.2567149 11.0383277,15.2450158 C11.4383308,15.1883006 11.9697147,15.1120021 12.5609281,14.8205421 C12.8862054,14.6598066 13.1159996,14.4614307 13.0989054,14.1046082 C13.0859627,13.7892413 12.8583663,12.998535 12.8583663,12.998535 Z" mask="url(#alteryx-d)"/>
      </g>
      <path fill="#FFF" d="M52.2078054 20.1682243L52.2038663 20.1682243 50.9987212 20.1682243C50.812423 20.1682243 50.657638 20.1024698 50.5617084 19.9883957 50.4643884 19.8661024 50.4215213 19.701218 50.4215213 19.4758096L50.4215213 7.17150105C50.4124845 6.93986593 50.4674007 6.77149459 50.5781601 6.65891493 50.6740897 6.55405645 50.8161305 6.5087257 51.0086849 6.5087257L52.1016804 6.5087257C52.3048937 6.5087257 52.4427636 6.55131668 52.5502789 6.64770678 52.6598797 6.74708572 52.7180399 6.91072473 52.7143325 7.10674285L52.7261499 7.43227738 52.7370405 7.70899418 52.9087406 7.50774559C53.4210606 6.91421171 54.2997205 6.20560748 55.5655747 6.20560748 55.7437628 6.20560748 56.0544915 6.23499774 56.3258287 6.28904594 56.553372 6.33437668 56.6404965 6.58170322 56.6242765 6.71047243 56.6242765 6.77622692 56.6217276 6.82728627 56.614081 6.87311516L56.433344 8.11423112C56.4215266 8.3304239 56.2377773 8.48883244 56.0822972 8.48883244 55.9418784 8.48385104 55.863559 8.47214475 55.7748125 8.45470985 55.6425038 8.43328983 55.4953653 8.40340142 55.2339918 8.40340142 54.390089 8.40340142 53.4463174 9.00540369 52.8165184 9.93916723L52.7952007 9.96706307 52.7952007 10.0071633 52.7952007 19.4758096C52.7952007 19.6867719 52.7470042 19.8538979 52.6485257 19.974946 52.552596 20.0969903 52.3954939 20.1682243 52.2078054 20.1682243M44.1347143 11.5487447L38.3035436 11.5487447C38.3838695 8.55762617 39.5062408 7.3348979 41.3500845 7.3348979 43.145976 7.3348979 44.161733 8.33688672 44.161733 10.6821197 44.161733 10.8654918 44.161733 11.3319647 44.1347143 11.5487447M41.4046087 5.42990654C38.1419182 5.42990654 35.682243 7.73900947 35.682243 12.9897378 35.682243 17.8039365 37.9006972 20.1682243 42.0737475 20.1682243 42.7341234 20.1682243 43.5203432 20.0892827 44.2707815 19.9341217 44.3881059 19.9118498 44.5088381 19.8789368 44.6268928 19.852458 45.1000852 19.7203113 45.5791194 19.5191216 45.7548626 19.4357257 46.0162868 19.3337698 46.2180751 19.1286207 46.2338969 18.8722462 46.1623338 18.4884268 46.066673 18.0979258 45.9566509 17.7222728 45.8570955 17.4691153 45.6321831 17.3094999 45.4006986 17.3241004 45.3215898 17.3241004 44.1997053 17.5723086 44.1347143 17.591116 43.4908904 17.7598876 42.7859701 17.8586264 42.1268112 17.8586264 39.1588923 17.8586264 38.2750644 16.4161486 38.2750644 13.4502715L38.2750644 13.2322542 46.0508513 13.2322542C46.2803885 13.2104772 46.4590527 13.0332918 46.4914264 12.7991892 46.4914264 12.7672661 46.494104 12.7321259 46.499459 12.6959959 46.5245304 12.1778027 46.5420561 11.6331305 46.5420561 11.1936314 46.5420561 7.54994563 44.8006888 5.42990654 41.4046087 5.42990654M59.7825209 25.5981308L59.6955677 25.5981308C59.2285046 25.5981308 58.8404447 25.5652115 58.4618254 25.489321 58.2302814 25.4473551 58.1433281 25.1420343 58.1895376 24.7241342 58.1895376 24.7241342 58.2178595 24.2775867 58.2844408 23.9624654 58.3453081 23.6405593 58.4963583 23.495312 58.663557 23.495312L58.6710101 23.495312 58.7122508 23.495312 58.8404447 23.5005891C58.9169635 23.5061176 59.0245371 23.5211951 59.1254029 23.5289852 59.3557047 23.5541145 59.5919691 23.580249 59.7750678 23.580249 61.3223386 23.5621559 62.1568413 22.9897107 62.749117 21.5407559L63.4623821 19.7784389 63.5302056 19.5907231 63.5552978 19.5138275 63.5302056 19.4288905 58.7644227 6.68381784C58.7435539 6.62777953 58.7368461 6.57023346 58.7368461 6.51771324 58.7368461 6.46845984 58.7435539 6.37749181 58.8098868 6.30160136 58.8585807 6.24757339 58.9425526 6.20887428 59.0359653 6.20887428L60.8416114 6.20887428C61.1042102 6.20887428 61.2999792 6.34934701 61.3583621 6.55415071L64.4961319 15.6846265 64.7045712 16.2955195 64.9199668 15.6846265 68.1638195 6.62225108C68.2323884 6.36819397 68.4353621 6.20560748 68.6716264 6.20560748L68.6852905 6.20560748 68.7339843 6.20887428 70.2320644 6.20887428C70.3540474 6.20887428 70.4432366 6.23350099 70.5055945 6.28426215 70.5679524 6.33753624 70.5925477 6.41895514 70.5883243 6.47901414 70.5883243 6.56621277 70.5679524 6.63984158 70.5423633 6.71070618L65.2123781 21.1783915C64.0504344 24.4007202 62.5786887 25.5981308 59.7825209 25.5981308M81.0913227 20.1682243C80.7926566 20.1682243 80.5463587 20.019329 80.4055145 19.746439L77.6644337 15.2506146 77.5673493 15.0989244 77.4748082 15.2506146 74.7377925 19.7428818C74.592405 20.019329 74.3458679 20.1682243 74.0433758 20.1682243L73.9991378 20.1628885 72.5337847 20.1628885C72.4139835 20.1628885 72.3278987 20.1313816 72.2549659 20.0747201 72.1832286 20.0117064 72.1315778 19.9009242 72.1413819 19.7954779 72.1413819 19.6653851 72.1832286 19.5294483 72.2549659 19.4173957L76.2213191 13.0220131 76.2669918 12.9572208 76.2213191 12.8914121 72.5672621 6.90536448C72.5024594 6.79483641 72.4699385 6.70031586 72.4725689 6.61113114 72.4725689 6.35983859 72.6901719 6.20840244 72.8974926 6.20560748L74.2729351 6.20560748C74.5696882 6.20560748 74.8021169 6.34230656 74.9039838 6.5570105L77.4774386 10.704735 77.5673493 10.8482945 77.6560644 10.704735 80.215889 6.58267334C80.3297121 6.34357699 80.5645321 6.20560748 80.8330686 6.20560748L82.2422276 6.20560748C82.4457223 6.20560748 82.6681078 6.35983859 82.6681078 6.60960662 82.6681078 6.70031586 82.6367825 6.79483641 82.572219 6.8946928L78.9167272 12.8914121 78.8736848 12.9572208 78.9167272 13.0220131 82.8720807 19.4034209C82.9569698 19.5294483 82.9992948 19.6605575 82.9992948 19.7886176 83.0064685 19.9009242 82.9581654 20.0117064 82.8883412 20.0747201 82.8127779 20.1313816 82.7254976 20.1628885 82.6021095 20.1628885L81.1460822 20.1628885 81.0913227 20.1682243zM20.2299935 20.1682243C19.5657977 20.1682243 18.9254019 20.0587359 18.3694109 19.8513105 17.860284 19.6700016 17.4576444 19.4095899 17.1708158 19.0866492 16.3706892 18.1863829 16.3002702 17.0663864 16.2897196 15.5865345L16.2897196 1.44871299C16.2897196 1.36584329 16.3245611 1.28196911 16.3768233 1.21944016 16.8506179.677020317 17.4623063.272716641 18.1974119.0173273004 18.2425585 0 18.2739649 0 18.3110146 0 18.3694109 0 18.5247252.0105470524 18.6515776.137111681 18.7641989.257649423 18.818424.421882097 18.8171971.63684107L18.8171971 15.6754311C18.8228405 16.4589264 19.004654 17.080198 19.3410457 17.4691834 19.6286104 17.7921241 20.0933267 17.9563567 20.6841592 17.9563567 20.8274508 17.9563567 20.98939 17.9448052 21.1827355 17.9209488 21.6128557 17.8579176 22.0265366 17.7333619 22.2991342 17.6457209 22.3737243 17.6128242 22.4402175 17.5992637 22.5199603 17.5992637 22.7532999 17.5992637 22.9564599 17.7682676 23.0354666 18.0193879 23.0354666 18.0193879 23.2442699 18.7416099 23.2702783 19.0826313 23.2867176 19.3761909 23.0298232 19.5733203 22.7923125 19.6597057 22.4897807 19.783508 21.4224545 20.1682243 20.2299935 20.1682243M33.1103093 17.9949177C33.0288027 17.7411545 32.8172434 17.5713886 32.5668471 17.5713886 32.4896841 17.5713886 32.4163538 17.5868219 32.3399574 17.6156643 31.9270589 17.7472266 31.3049007 17.9177514 30.7187689 17.9281246L30.6569364 17.9369797C30.0248134 17.9369797 29.5505934 17.7662019 29.2475628 17.4370433 28.9624176 17.1258481 28.7567349 16.6211046 28.741149 15.6763867L28.741149 15.6224968 28.8195895 8.12294458 31.9186272 8.12294458C32.0847064 8.12294458 32.2214024 8.10371626 32.3499221 8.00706863 32.504759 7.88790363 32.5290321 7.68929529 32.5246885 7.58050346L32.5246885 6.63603856C32.5290321 6.43287614 32.4677106 6.28663968 32.3522217 6.19328111 32.2152702 6.09536846 32.0624773 6.08752533 31.9457109 6.08752533L28.8195895 6.08752533 28.8195895 6.0442616 28.8195895 2.8769013 28.8195895 1.41731973C28.8195895 1.19670002 28.7651666 1.0350303 28.6499332.915865293 28.5206469.790628186 28.3538012.775700935 28.2952902.775700935 28.2554312.775700935 28.2219599.775700935 28.1634489.79265222 27.9830614.85919234 27.495044 1.02718717 26.9623131 1.39859742 26.7775819 1.53167766 26.5900402 1.69764845 26.4009654 1.88563061 26.3498641 1.9503997 26.3197144 2.03060205 26.3197144 2.11004539L26.244851 6.03869551 24.6443586 6.03869551C24.4882441 6.03869551 24.3183323 6.07740516 24.1972223 6.2046663 24.0768787 6.33471049 24.046729 6.49638021 24.046729 6.66159199L24.046729 7.52408351C24.0495395 7.70953563 24.0411078 7.87120535 24.186491 8.028827 24.3510372 8.17784651 24.5109842 8.1657023 24.6972484 8.17303943L26.2014149 8.17303943 26.0585868 15.2275572 26.0619083 15.5301502C26.067274 17.0254054 26.1400933 18.1591175 26.9758549 19.0754989 27.6184536 19.7662005 28.7868846 20.1626582 30.1765842 20.1682243 31.434187 20.1682243 32.4107326 19.8385598 32.8578689 19.6556377 33.0967675 19.555701 33.3655602 19.3646828 33.354829 19.0681618 33.354829 18.7875801 33.1103093 17.9949177 33.1103093 17.9949177"/>
    </g>
  </g>
</svg>
