<svg xmlns="http://www.w3.org/2000/svg" width="88" height="95" viewBox="0 0 88 95">
  <g fill="none" fill-rule="evenodd">
    <path fill="#9595EF" fill-opacity=".078" stroke="#000" stroke-dasharray="8 10" stroke-linecap="round" d="M46.2738845,6.14087459 L5.33854727,20.7944339 L11.6327589,75.4133846 L46.2738845,94.3530752 L80.1983356,75.4133846 L87.1062433,20.7944339 L46.2738845,6.14087459 Z"/>
    <polygon fill="#E23237" points="0 14.316 40.455 0 82 14.061 75.273 67.222 40.455 86.373 6.182 67.476"/>
    <polygon fill="#B52E31" points="82 14.061 40.453 0 40.453 86.373 75.273 67.254"/>
    <path fill="#FFF" fill-rule="nonzero" d="M40.3941972,9.84 L15.3066667,65.4412477 L24.6785281,65.2824954 L29.7153636,52.739468 L52.2209519,52.739468 L57.7359012,65.4412477 L66.6933333,65.6 L40.3941972,9.84 Z M40.4582018,27.6540508 L48.9375202,45.3090305 L32.9984753,45.3090305 L40.4582018,27.6540508 Z"/>
  </g>
</svg>
