<svg width="120" height="120" viewBox="0 0 120 120" fill="none" xmlns="http://www.w3.org/2000/svg">
<path fill-rule="evenodd" clip-rule="evenodd" d="M77.4947 23.0879C76.1937 23.7384 73.917 26.0151 71.3151 29.2675L73.5918 33.8209C74.6419 32.3507 75.8276 30.8806 76.9738 29.498C76.1768 30.5422 75.1578 31.9597 73.917 33.8209C73.9168 33.8209 73.9165 33.8209 73.9162 33.8209C73.7627 34.0512 73.591 34.2997 73.4097 34.562C72.8232 35.4109 72.1365 36.4047 71.6395 37.3986V37.7238C71.3143 38.3743 70.9077 39.0248 70.5012 39.6753C70.0946 40.3258 69.6881 40.9762 69.3628 41.6267C68.7123 42.9277 68.0619 44.2287 67.0861 45.8549L65.1347 49.7578L73.2657 48.7821C75.5424 47.8063 76.5182 46.8306 77.4939 45.2044C77.8191 44.8791 78.1444 44.5539 78.1444 43.9034C79.1201 42.6025 79.7706 41.3015 80.4211 39.6753L80.4211 39.6752C81.0716 38.3743 81.722 37.0733 82.0473 35.7724C82.3725 35.1219 82.6978 34.1462 82.6978 33.4957C82.6978 33.1704 82.7791 32.9265 82.8604 32.6826C82.8682 32.6592 82.8759 32.6359 82.8836 32.6125C83.0394 32.5817 83.1946 32.5508 83.349 32.5199C84.3248 27.3161 82.3733 25.0394 82.3733 25.0394C82.3733 25.0394 80.0966 21.4617 77.4947 23.0879ZM67.5777 43.5781L67.5778 43.5781L67.5778 43.578C67.9844 42.9275 68.3909 42.2771 68.7161 41.6266C69.0414 40.9761 69.4479 40.3257 69.8545 39.6752L69.8545 39.6752C70.261 39.0247 70.6676 38.3742 70.9928 37.7237V37.3985C71.4897 36.4046 72.1765 35.4108 72.763 34.5619L72.763 34.5619C72.9443 34.2996 73.116 34.0511 73.2695 33.8208L70.9928 29.2674L70.3423 29.9179L70.3423 29.9179C69.6918 30.8937 69.0414 31.8694 68.0657 32.8451C67.4573 33.4534 66.9754 34.1882 66.4623 34.9705L66.4623 34.9706C66.1524 35.4431 65.8311 35.9329 65.4637 36.4227C65.0146 37.321 64.4105 38.0641 63.7583 38.8663C63.4659 39.2261 63.1638 39.5976 62.8618 40.0004C62.5365 40.4883 62.2113 41.0574 61.886 41.6266C61.5608 42.1958 61.2356 42.765 60.9103 43.2528L64.1627 49.4324C65.1385 48.1315 65.789 46.8305 66.4394 45.5295C66.7647 44.8791 67.1712 44.2286 67.5777 43.5781ZM51.4756 82.4445C51.7195 81.8753 51.9634 81.3062 52.126 80.6557C52.126 80.493 52.2074 80.4117 52.248 80.3711C52.2628 80.3563 52.2722 80.3469 52.2704 80.3409C52.2672 80.3304 52.2296 80.3304 52.126 80.3304L54.728 80.0052C58.3056 80.6557 61.2328 80.0052 64.16 77.078C63.9974 77.4032 63.8348 77.6472 63.6722 77.8911L63.6721 77.8911C63.5095 78.1351 63.3469 78.379 63.1843 78.7042C61.8833 80.9809 60.2571 82.6071 57.0047 83.9081C59.1304 83.9081 60.122 83.6246 61.0383 82.528C60.9882 82.6086 60.9479 82.6892 60.9076 82.7697C60.8263 82.9324 60.745 83.095 60.5823 83.2576C58.6309 86.51 54.728 87.811 50.1746 87.4857C51.1503 88.4615 51.8008 89.7625 51.8008 91.0634C51.1503 89.7625 50.4998 88.4615 49.5241 88.1362C49.8494 86.51 50.1746 85.5343 50.4998 84.8838C50.8251 84.5586 50.8251 84.5586 50.8251 84.2333C50.9877 83.5828 51.2316 83.0137 51.4756 82.4445ZM61.2328 82.2819C61.1508 82.3639 61.0894 82.446 61.0383 82.528C61.1034 82.4501 61.1681 82.3681 61.2328 82.2819ZM53.4282 75.1267C53.7534 74.4762 53.9973 73.7445 54.2413 73.0127C54.4852 72.2809 54.7291 71.5491 55.0544 70.8986C55.3796 70.2481 55.6235 69.5163 55.8675 68.7845C56.1114 68.0527 56.3553 67.3209 56.6806 66.6704C57.3311 65.3695 57.9815 63.7433 58.3068 62.4423C58.632 61.7918 58.9573 61.06 59.2825 60.3282C59.6077 59.5964 59.933 58.8646 60.2582 58.2141C60.5835 57.5637 60.9087 56.8319 61.234 56.1001L61.234 56.1C61.5592 55.3682 61.8844 54.6365 62.2097 53.986C62.3723 53.6608 62.4536 53.4168 62.5349 53.1729C62.6162 52.929 62.6975 52.685 62.8602 52.3598C63.0228 51.8719 63.2667 51.4654 63.5107 51.0588C63.7546 50.6523 63.9985 50.2457 64.1611 49.7579L60.9087 43.5783V43.9035C60.5835 44.554 60.1769 45.1232 59.7704 45.6923C59.3638 46.2615 58.9573 46.8307 58.632 47.4812C57.9815 48.7821 57.331 50.0831 56.3553 51.3841C55.7048 52.3598 55.0544 53.6608 54.7291 54.6365C54.7291 54.7991 54.6478 54.8804 54.5665 54.9617C54.4852 55.043 54.4039 55.1244 54.4039 55.287C54.0786 55.9375 53.7534 56.6693 53.4281 57.401C53.1029 58.1328 52.7777 58.8646 52.4524 59.5151C52.2583 60.0004 52.0642 60.4567 51.8787 60.8927L51.8787 60.8928C51.4426 61.9178 51.0544 62.8306 50.8262 63.7433C50.8262 64.0685 50.7449 64.4751 50.6636 64.8816C50.5823 65.2882 50.501 65.6947 50.501 66.02C50.3383 66.3452 50.257 66.6704 50.1757 66.9957C50.0944 67.3209 50.0131 67.6462 49.8505 67.9714C49.6879 68.7845 49.4439 69.5976 49.2 70.4107L49.2 70.4107C48.9561 71.2238 48.7121 72.0369 48.5495 72.85L51.8019 79.0296C51.9646 78.5418 52.2085 77.9726 52.4524 77.4035L52.4524 77.4034C52.6964 76.8343 52.9403 76.2651 53.1029 75.7772C53.1029 75.7772 53.1029 75.452 53.4282 75.1267ZM47.5741 79.0297L48.5499 73.1754L51.477 78.7045C51.477 78.8671 51.3957 79.0297 51.3144 79.1924C51.2331 79.355 51.1518 79.5176 51.1518 79.6802C50.9892 80.3307 50.7452 80.8999 50.5013 81.469C50.2574 82.0382 50.0134 82.6074 49.8508 83.2579V83.5831C49.8508 83.7457 49.7695 83.9084 49.6882 84.071C49.6069 84.2336 49.5256 84.3962 49.5256 84.5588C45.6227 95.9423 43.0207 104.399 42.6955 105.7C42.3702 106.35 42.045 106.675 41.3945 107.001C42.0761 104.858 42.7286 102.745 43.3694 100.67C44.8689 95.8138 46.3043 91.165 47.8994 86.8355C46.5984 86.5103 44.6469 86.8355 42.3703 87.8113C42.6955 87.6161 43.0207 87.408 43.346 87.1998C44.6469 86.3672 45.9479 85.5346 47.2489 85.5346C46.5984 85.5346 45.2974 85.2093 43.6712 83.5831C45.2974 84.2336 46.5984 84.5588 47.5741 84.2336C47.2489 81.6317 45.9479 78.7045 43.9965 76.1025C43.9965 76.1025 46.5984 77.7288 47.5741 79.355V79.0297ZM64.8139 50.0829C64.8139 50.2455 64.7326 50.3268 64.6513 50.4081C64.57 50.4894 64.4887 50.5707 64.4887 50.7333C64.1635 51.3838 63.8382 52.0343 63.513 52.3596L62.5373 54.311C62.5373 54.4736 62.4559 54.6363 62.3746 54.7989C62.2933 54.9615 62.212 55.1241 62.212 55.2867C62.0802 55.682 61.8951 56.0773 61.6998 56.4942C61.4131 57.1064 61.1045 57.7652 60.911 58.5392L60.9109 58.5394C60.2605 59.8403 59.61 61.1412 58.9596 62.7673C58.3091 64.0683 57.6586 65.6945 57.3334 66.9954C56.6829 68.2964 56.0324 69.9226 55.7072 71.2236C55.3133 72.0114 55.0386 72.7992 54.7388 73.6592L54.7388 73.6593C54.5435 74.2195 54.3375 74.8103 54.0809 75.4517V75.777C53.7557 76.4275 53.5118 77.1593 53.2678 77.8911C53.0239 78.6228 52.78 79.3546 52.4547 80.0051L55.0567 79.6799C57.9839 79.3546 62.212 77.078 64.8139 74.1508C66.1149 72.8498 67.0906 71.2236 68.0664 69.5974C68.2723 69.1855 68.4783 68.7409 68.6946 68.2741C69.1614 67.2666 69.6763 66.1553 70.3431 65.044C70.9935 63.743 71.644 62.1168 71.9693 60.4906C71.644 60.6532 71.2375 60.8158 70.8309 60.9785L70.8309 60.9785L70.8309 60.9785C70.4244 61.1411 70.0178 61.3037 69.6926 61.4663H68.7168C71.644 60.4906 73.2702 58.2139 74.5712 55.612C73.9207 56.2625 72.6197 56.9129 70.9935 57.2382H70.3431C71.0233 57.0114 71.7037 56.6266 72.2737 56.304L72.2737 56.304C72.5213 56.164 72.7481 56.0357 72.945 55.9372L73.2702 55.612L73.9207 54.9615L74.246 54.6362C74.5712 54.311 74.8964 53.9858 74.8964 53.6605C74.8964 53.6605 74.8964 53.3353 75.2217 53.3353C75.2217 53.1727 75.303 53.0913 75.3843 53.01C75.4656 52.9287 75.5469 52.8474 75.5469 52.6848C75.7096 52.3596 75.8722 51.953 76.0348 51.5465C76.1974 51.1399 76.36 50.7333 76.5227 50.4081C76.5227 50.2455 76.604 50.0829 76.6853 49.9202C76.7666 49.7576 76.8479 49.595 76.8479 49.4324V49.1071C76.8479 48.7819 77.1731 48.4566 77.1731 48.4566C77.1731 48.1314 77.1731 47.8062 77.4984 47.4809C77.8236 47.1557 77.1731 47.4809 77.1731 47.8062C76.2783 48.4027 75.1099 48.7257 73.9188 49.0261L73.2702 49.1071H72.945L64.8139 50.0829Z" fill="#F7F7FE"/>
<path d="M47.9423 87.3775L48.0492 87.7338H48.4212H49.7878V87.2338H53.2042V87.7338H54.5707C55.2027 87.7338 55.8138 87.5675 56.3829 87.3062L56.1743 86.8518C57.3976 86.29 58.5132 85.1988 59.3231 84.1962L59.7121 84.5104C60.1289 83.9944 60.4698 83.4984 60.7097 83.0985L61.1641 82.3413H60.281H59.5977V82.8413H58.1393C58.4689 82.6292 58.8239 82.3966 59.1916 82.1506L58.9136 81.735C60.3218 80.7928 61.9215 79.6494 62.9959 78.6991L63.3272 79.0736C63.7089 78.736 64.0416 78.4085 64.2831 78.1108C64.4038 77.962 64.5107 77.8095 64.5895 77.6577C64.6654 77.5113 64.7342 77.3294 64.7342 77.131C64.7342 76.9694 64.7116 76.7678 64.6004 76.5916C64.4663 76.3791 64.2519 76.2771 64.0344 76.2693C63.8514 76.2626 63.6832 76.3217 63.5588 76.3778C63.4258 76.4376 63.2895 76.519 63.1568 76.6075L63.4341 77.0236C63.1394 77.2199 62.7817 77.5106 62.3926 77.8268C62.0234 78.1268 61.6261 78.4497 61.2277 78.7366L60.9355 78.3309C60.6267 78.5533 60.3307 78.7434 60.0574 78.8801C59.7715 79.023 59.2785 79.1266 58.6152 79.1777L58.6537 79.6763C57.4036 79.7727 55.8069 79.6767 54.4737 79.5381L54.4831 79.4474C54.8606 79.3523 55.2566 79.2483 55.6644 79.1362L55.532 78.6541C57.7412 78.047 60.3031 77.2002 62.0978 76.2474L62.3322 76.689C62.8734 76.4017 63.3613 76.0977 63.7591 75.7785C64.1527 75.4628 64.4856 75.1105 64.6815 74.7189C65.0279 74.026 65.6639 72.9431 66.4458 71.6444L66.0175 71.3865C66.3028 70.9125 66.606 70.4125 66.9193 69.8957C68.1378 67.8862 69.509 65.6245 70.5802 63.6644L71.0189 63.9042C71.7007 62.6565 72.2737 61.5089 72.6089 60.6148C72.8823 59.8857 73.2816 58.8606 73.7467 57.6845L73.2818 57.5006C74.1673 55.2613 75.2872 52.4848 76.2222 50.1816L76.6855 50.3696C77.1396 49.2512 77.55 48.2444 77.8687 47.4652C78.3248 46.5203 78.8807 45.3382 79.4699 44.0436L79.0148 43.8365C80.2918 41.0307 81.7266 37.693 82.6366 35.1006L83.1083 35.2662C83.3923 34.4574 83.6283 33.7128 83.794 33.073C83.9573 32.4423 84.0613 31.8799 84.0613 31.4487C84.0613 30.8181 84.0255 30.1373 83.9579 29.4447L83.4603 29.4932C83.2941 27.7897 82.9302 25.9973 82.4236 24.7195L82.8884 24.5352C82.5785 23.7537 82.1755 23.0423 81.6424 22.6869C81.3333 22.4808 80.9778 22.3595 80.6205 22.2916L80.5272 22.7828C79.8135 22.6472 78.9694 22.7338 78.2844 22.8738L78.1843 22.3839C77.823 22.4578 77.5006 22.5462 77.2537 22.6286L77.1767 22.6542L77.1118 22.7029L76.3309 23.2885L76.6309 23.6885L74.6787 25.1525L74.3787 24.7525L73.5978 25.3381L73.5568 25.3689L73.5229 25.4073L72.0587 27.0667L72.4336 27.3975L68.7732 31.546L68.3983 31.2152L66.9341 32.8746L66.915 32.8962L66.8986 32.9199L65.3368 35.1649L65.7472 35.4505L61.8428 41.0631L61.4323 40.7776L59.8705 43.0226L59.8629 43.0336L59.8559 43.045L58.5869 45.0948L59.012 45.358L55.8397 50.4826L55.4145 50.2194L54.1456 52.2693L54.1277 52.2982L54.1138 52.3294L53.3329 54.0864L53.7898 54.2895L51.8376 58.6822L51.3807 58.4791L50.5998 60.2362L50.5812 60.278L50.5705 60.3226L49.9848 62.7628L50.471 62.8795L49.0069 68.98L48.5207 68.8633L47.935 71.3035L47.934 71.3078L47.6412 72.5769L48.1284 72.6893L47.3963 75.862L46.9091 75.7495L46.7057 76.631H46.4202V77.131H44.712V76.631H44.0287H43.1916L43.5885 77.3681L44.2717 78.637L44.712 78.4L46.4202 81.5723L45.9799 81.8094L46.6391 83.0336L46.9174 83.9611L47.3963 83.8174L48.1284 86.2577L47.6495 86.4013L47.9423 87.3775Z" stroke="black" stroke-dasharray="8 10"/>
<path d="M73.1015 13.4238C71.8005 14.0743 69.5238 16.351 66.9219 19.6034L69.1986 24.1568C70.8248 21.8801 72.7762 19.6034 74.4024 17.652L74.7277 17.3267L74.4024 17.652C73.752 18.3025 72.1257 20.2539 69.5238 24.1568C72.1257 24.1568 75.7034 23.5063 78.9558 22.8559C79.9315 17.652 77.9801 15.3753 77.9801 15.3753C77.9801 15.3753 75.7034 11.7976 73.1015 13.4238Z" fill="url(#paint0_linear)"/>
<path d="M62.0447 35.8656C62.6952 34.5647 63.6709 33.2637 64.3214 31.9627C64.9719 30.6617 65.9476 29.3608 66.5981 28.0598V27.7346C67.2486 26.4336 68.2243 25.1326 68.8748 24.1569L66.5981 19.6035L65.9476 20.254C65.2972 21.2297 64.6467 22.2054 63.671 23.1812C62.6952 24.1569 62.0447 25.4579 61.069 26.7588C60.4185 28.0598 59.4428 29.0355 58.4671 30.3365C57.8166 31.3122 57.1661 32.6132 56.5156 33.5889L59.768 39.7685C60.7438 38.4676 61.3943 37.1666 62.0447 35.8656Z" fill="url(#paint1_linear)"/>
<path d="M47.7308 70.9917C47.4056 72.2927 46.7551 73.2684 46.4299 74.5694C46.4299 74.8946 46.4299 74.8946 46.1046 75.2199C45.7794 75.8703 45.4541 76.8461 45.1289 78.4723C46.1046 78.7975 46.7551 80.0985 47.4056 81.3995C47.4056 80.0985 46.7551 78.7975 45.7794 77.8218C50.3328 78.147 54.2357 76.8461 56.1871 73.5937C56.5124 73.2684 56.5124 72.9432 56.8376 72.6179C55.8619 73.9189 54.8862 74.2441 52.6095 74.2441C55.8619 72.9432 57.4881 71.317 58.7891 69.0403C59.1143 68.3898 59.4396 68.0645 59.7648 67.4141C56.8376 70.3412 53.9104 70.9917 50.3328 70.3412L47.7308 70.6665C48.0561 70.6665 47.7308 70.6665 47.7308 70.9917Z" fill="url(#paint2_linear)"/>
<path d="M49.0349 65.4625C49.6854 64.1616 50.0106 62.5354 50.6611 61.2344C51.3116 59.9334 51.6368 58.3072 52.2873 57.0063C52.9378 55.7053 53.5883 54.0791 53.9135 52.7781C54.564 51.4771 55.2145 49.8509 55.865 48.55C56.5154 47.249 57.1659 45.6228 57.8164 44.3218C58.1416 43.6713 58.1417 43.3461 58.4669 42.6956C58.7921 41.7199 59.4426 41.0694 59.7679 40.0937L56.5154 33.9141V34.2393C55.865 35.5403 54.8892 36.516 54.2387 37.817C53.5883 39.1179 52.9378 40.4189 51.9621 41.7199C51.3116 42.6956 50.6611 43.9966 50.3358 44.9723C50.3358 45.2975 50.0106 45.2975 50.0106 45.6228C49.3601 46.9238 48.7096 48.55 48.0591 49.8509C47.4087 51.4771 46.7582 52.7781 46.4329 54.0791C46.4329 54.7296 46.1077 55.7053 46.1077 56.3558C45.7825 57.0063 45.7825 57.6567 45.4572 58.3072C45.132 59.9334 44.4815 61.5596 44.1562 63.1858L47.4087 69.3655C47.7339 68.3897 48.3844 67.0888 48.7096 66.113C48.7096 66.113 48.7096 65.7878 49.0349 65.4625Z" fill="url(#paint3_linear)"/>
<path d="M44.1553 63.5117L43.1796 69.3661V69.6913C42.2039 68.0651 39.6019 66.4389 39.6019 66.4389C41.5534 69.0408 42.8543 71.968 43.1796 74.5699C42.2039 74.8952 40.9029 74.57 39.2767 73.9195C40.9029 75.5457 42.2039 75.8709 42.8544 75.8709C41.2281 75.8709 39.6019 77.1719 37.9757 78.1476C40.2524 77.1719 42.2039 76.8466 43.5048 77.1719C41.2281 83.3515 39.2767 90.1816 37 97.3369C37.6505 97.0116 37.9757 96.6864 38.301 96.0359C38.6262 94.735 41.2281 86.2787 45.1311 74.8952C45.1311 74.5699 45.4563 74.2447 45.4563 73.9195V73.5942C45.7815 72.2932 46.432 71.3175 46.7573 70.0166C46.7573 69.6913 47.0825 69.3661 47.0825 69.0408L44.1553 63.5117Z" fill="url(#paint4_linear)"/>
<path d="M60.4178 40.4193C60.4178 40.7445 60.0926 40.7445 60.0926 41.0698C59.7673 41.7202 59.4421 42.3707 59.1168 42.696L58.1411 44.6474C58.1411 44.9727 57.8159 45.2979 57.8159 45.6231C57.4906 46.5989 56.8401 47.5746 56.5149 48.8756C55.8644 50.1765 55.2139 51.4775 54.5634 53.1037C53.913 54.4047 53.2625 56.0309 52.9372 57.3319C52.2867 58.6328 51.6363 60.259 51.311 61.56C50.6605 62.861 50.3353 64.162 49.6848 65.7882V66.1134C49.0343 67.4144 48.7091 69.0406 48.0586 70.3415L50.6605 70.0163C53.5877 69.6911 57.8159 67.4144 60.4178 64.4872C61.7188 63.1862 62.6945 61.56 63.6702 59.9338C64.3207 58.6328 64.9712 57.0066 65.9469 55.3804C66.5974 54.0794 67.2479 52.4532 67.5731 50.827C66.9226 51.1523 65.9469 51.4775 65.2964 51.8027H64.3207C67.2479 50.827 68.8741 48.5503 70.1751 45.9484C69.5246 46.5989 68.2236 47.2494 66.5974 47.5746H65.9469C66.9226 47.2494 67.8984 46.5989 68.5489 46.2736L68.8741 45.9484L69.5246 45.2979L69.8498 44.9727C70.1751 44.6474 70.5003 44.3222 70.5003 43.9969C70.5003 43.9969 70.5003 43.6717 70.8255 43.6717C70.8255 43.3464 71.1508 43.3465 71.1508 43.0212C71.476 42.3707 71.8013 41.395 72.1265 40.7445C72.1265 40.4193 72.4517 40.094 72.4517 39.7688V39.4435C72.4517 39.1183 72.777 38.7931 72.777 38.7931C72.777 38.4678 72.777 38.1426 73.1022 37.8173C73.4275 37.4921 72.777 37.8173 72.777 38.1426C71.8013 38.7931 70.5003 39.1183 69.1993 39.4435L71.476 39.1183L68.8741 39.4435H68.5489L60.4178 40.4193Z" fill="url(#paint5_linear)"/>
<path d="M69.5198 24.1565C68.8693 25.1323 67.8936 26.4332 67.2431 27.7342V28.0594C66.5926 29.3604 65.6169 30.6614 64.9664 31.9623C64.3159 33.2633 63.6655 34.5643 62.6897 36.1905L60.7383 40.0934L68.8693 39.1177C71.146 38.1419 72.1218 37.1662 73.0975 35.54C73.4227 35.2148 73.748 34.8895 73.748 34.239C74.7237 32.9381 75.3742 31.6371 76.0247 30.0109C76.6751 28.7099 77.3256 27.409 77.6509 26.108C77.9761 25.4575 78.3014 24.4818 78.3014 23.8313C78.3014 23.1808 78.6266 22.8556 78.6266 22.2051C76.0247 23.506 72.1218 24.1565 69.5198 24.1565Z" fill="url(#paint6_linear)"/>
<defs>
<linearGradient id="paint0_linear" x1="68.9659" y1="20.3203" x2="76.1053" y2="18.3353" gradientUnits="userSpaceOnUse">
<stop stop-color="#F69923"/>
<stop offset="0.312" stop-color="#F79A23"/>
<stop offset="0.838" stop-color="#E97826"/>
</linearGradient>
<linearGradient id="paint1_linear" x1="30.111" y1="99.9099" x2="44.6321" y2="68.7678" gradientUnits="userSpaceOnUse">
<stop offset="0.323" stop-color="#9E2064"/>
<stop offset="0.63" stop-color="#C92037"/>
<stop offset="0.751" stop-color="#CD2335"/>
<stop offset="1" stop-color="#E97826"/>
</linearGradient>
<linearGradient id="paint2_linear" x1="42.2382" y1="94.1942" x2="50.8912" y2="75.6368" gradientUnits="userSpaceOnUse">
<stop stop-color="#282662"/>
<stop offset="0.095" stop-color="#662E8D"/>
<stop offset="0.788" stop-color="#9F2064"/>
<stop offset="0.949" stop-color="#CD2032"/>
</linearGradient>
<linearGradient id="paint3_linear" x1="31.4224" y1="95.2291" x2="45.9436" y2="64.0869" gradientUnits="userSpaceOnUse">
<stop offset="0.323" stop-color="#9E2064"/>
<stop offset="0.63" stop-color="#C92037"/>
<stop offset="0.751" stop-color="#CD2335"/>
<stop offset="1" stop-color="#E97826"/>
</linearGradient>
<linearGradient id="paint4_linear" x1="35.1133" y1="90.0815" x2="42.744" y2="73.7167" gradientUnits="userSpaceOnUse">
<stop stop-color="#282662"/>
<stop offset="0.095" stop-color="#662E8D"/>
<stop offset="0.788" stop-color="#9F2064"/>
<stop offset="0.949" stop-color="#CD2032"/>
</linearGradient>
<linearGradient id="paint5_linear" x1="39.4292" y1="98.9632" x2="53.9504" y2="67.821" gradientUnits="userSpaceOnUse">
<stop offset="0.323" stop-color="#9E2064"/>
<stop offset="0.63" stop-color="#C92037"/>
<stop offset="0.751" stop-color="#CD2335"/>
<stop offset="1" stop-color="#E97826"/>
</linearGradient>
<linearGradient id="paint6_linear" x1="36.7987" y1="103.581" x2="51.3188" y2="72.4411" gradientUnits="userSpaceOnUse">
<stop offset="0.323" stop-color="#9E2064"/>
<stop offset="0.63" stop-color="#C92037"/>
<stop offset="0.751" stop-color="#CD2335"/>
<stop offset="1" stop-color="#E97826"/>
</linearGradient>
</defs>
</svg>
