<svg width="101" height="86" viewBox="0 0 101 86" fill="none" xmlns="http://www.w3.org/2000/svg">
<path d="M52.4308 8.46997L50.8055 13.7209L51.2831 13.8687L47.2199 26.996L46.7423 26.8481L45.117 32.099C45.0896 32.1876 45.0543 32.2727 45.0118 32.3535L45.4544 32.5861C45.3112 32.8585 45.107 33.0942 44.8579 33.2748L44.5645 32.87C44.4906 32.9235 44.4114 32.9706 44.3277 33.0104L39.2344 35.4297L39.449 35.8813L26.7159 41.9295L26.5014 41.4779L21.4082 43.8972C21.0488 44.0679 20.752 44.3091 20.524 44.5952L20.915 44.9069C20.4334 45.5111 20.3439 46.3573 20.6885 47.0489L20.241 47.2719C20.4042 47.5993 20.644 47.8973 20.9597 48.1394L24.708 51.013L25.0122 50.6162L34.3828 57.8004L34.0786 58.1972L37.8268 61.0708C37.8847 61.1152 37.939 61.1635 37.9893 61.2152L38.3477 60.8666C38.5167 61.0403 38.6528 61.2434 38.7492 61.4658L38.2905 61.6647C38.3192 61.7309 38.3432 61.7995 38.3622 61.8699L39.6297 66.5595L40.1124 66.4291L43.2811 78.1532L42.7984 78.2837L44.0659 82.9734C44.1656 83.3422 44.3403 83.6666 44.5684 83.9364L44.9503 83.6136C45.4306 84.1816 46.2017 84.4387 46.9268 84.2726L47.0385 84.7599C47.3829 84.681 47.7173 84.5264 48.0184 84.2911L52.0845 81.1145L51.7767 80.7205L61.9419 72.7789L62.2497 73.1729L66.3158 69.9963C66.3859 69.9416 66.4601 69.8936 66.5376 69.8525L66.3037 69.4106C66.5647 69.2725 66.8531 69.1939 67.148 69.1804L67.1708 69.6799C67.2584 69.6759 67.3468 69.6796 67.4349 69.6912L72.1988 70.318L72.2641 69.8223L84.1738 71.3893L84.1086 71.8851L88.8725 72.5119C89.2561 72.5624 89.627 72.5244 89.967 72.4146L89.8134 71.9388C90.5299 71.7075 91.0643 71.0796 91.178 70.3354L91.6722 70.4109C91.7262 70.0577 91.7044 69.6855 91.5932 69.3149L90.0719 64.2438L89.593 64.3875L85.7897 51.7099L86.2686 51.5662L84.7473 46.4952C84.7193 46.402 84.7007 46.3073 84.6913 46.2122L84.1938 46.2615C84.1619 45.9405 84.2083 45.6164 84.3287 45.3172L84.7926 45.5039C84.8283 45.4152 84.8727 45.3295 84.9256 45.2479L87.8586 40.7261L87.4391 40.454L94.7718 29.1495L95.1913 29.4216L98.1243 24.8998C98.3661 24.527 98.4954 24.1246 98.525 23.7241L98.0263 23.6873C98.0894 22.834 97.5818 22.0118 96.7908 21.6857L96.9814 21.2234C96.6101 21.0703 96.1924 21.0055 95.7509 21.0546L90.2551 21.6652L90.3104 22.1622L76.5711 23.6887L76.5159 23.1918L71.0201 23.8024C70.9094 23.8147 70.799 23.8146 70.6908 23.8027L70.6362 24.2997C70.2695 24.2594 69.9207 24.1183 69.6291 23.8923L69.9355 23.4971C69.8494 23.4304 69.77 23.3538 69.6989 23.268L66.8203 19.7896L66.4351 20.1084L59.2384 11.4124L59.6236 11.0936L56.7449 7.61526C56.4767 7.29108 56.1509 7.05474 55.7976 6.90478L55.6022 7.36502C54.853 7.04693 53.9631 7.22324 53.3917 7.80296L53.0356 7.45198C52.7663 7.72528 52.5552 8.06799 52.4308 8.46997Z" fill="#F7F6FC" stroke="black" stroke-dasharray="8 10"/>
<path fill-rule="evenodd" clip-rule="evenodd" d="M64.1393 59.1109L63.7508 58.285L55.261 42.1904C54.9738 41.6518 55.0097 41.3312 55.3893 40.8734L68.8202 25.0994C68.9767 24.9147 69.1191 24.7172 69.1793 24.3889L65.2576 25.4149L48.9707 29.7431C48.4654 29.879 48.2358 29.7303 47.9832 29.3122L38.7342 13.9024C38.5739 13.6357 38.4008 13.3894 38.0609 13.1522L37.3146 17.265L34.733 31.795L34.4663 33.3647C34.4227 33.8777 34.1662 34.0495 33.7148 34.1919L14.541 40.2514C14.2589 40.3412 13.987 40.454 13.6856 40.7285L29.4596 46.9919L28.998 47.3548L19.1835 53.699C19.0236 53.8238 18.8306 53.899 18.6285 53.9154C18.4264 53.9318 18.2238 53.8887 18.0459 53.7914L6.31674 48.5642C4.56236 47.7947 2.9824 46.7393 1.75382 45.2362C-1.02522 41.8378 -0.477622 37.9687 3.22606 35.6179C4.43797 34.8446 5.81402 34.265 7.18623 33.8174L26.0201 27.8348C26.5331 27.6707 26.7896 27.4347 26.8883 26.864L29.4532 12.334C29.92 9.74602 30.1688 7.07598 31.4282 4.71886C31.9117 3.82115 32.4926 2.91318 33.1813 2.14885C35.6756 -0.621217 39.1574 -0.726377 41.7941 1.91032C42.6841 2.80033 43.4613 3.85065 44.1115 4.9279L52.7064 19.2091C53.0424 19.7734 53.3476 19.8888 53.9683 19.7221L75.0208 14.1294C76.4674 13.7472 77.932 13.6074 79.4158 13.8729C82.6475 14.4782 84.062 16.9508 82.9681 20.062C82.4705 21.4726 81.6113 22.6871 80.6597 23.8221L65.9668 41.0927C65.5654 41.562 65.5564 41.9006 65.8347 42.4264L74.5835 59.0135C75.2812 60.3369 75.8147 61.7104 75.8275 63.2301C75.8621 66.6876 73.3344 69.5166 69.8988 70.0194C67.9751 70.3015 66.1874 69.8911 64.3843 69.3345L51.1752 65.3167C50.7674 65.1948 50.6109 65.0345 50.5391 64.5946L48.9463 55.3098C48.9309 55.2251 48.9566 55.1328 48.9694 54.943L64.1278 59.1238" fill="#E25A1C"/>
<path d="M29.4485 46.9922L32.2443 48.2105L29.1369 72.9616L46.1215 54.1354L48.9852 54.9395L52.5119 65.6606L47.9285 64.0448L36.0685 76.8486C36.0685 76.8486 30.7643 82.34 27.8891 81.4141C25.0139 80.4882 22.5875 77.9259 22.3182 73.345C22.0489 68.7642 20.8357 55.6858 20.8357 55.6858L15.0391 51.5077L29.4485 46.9922Z" fill="#E25A1C"/>
</svg>
