<svg width="118" height="48" viewBox="0 0 118 48" fill="none" xmlns="http://www.w3.org/2000/svg">
<rect x="9.5" y="9.5" width="108" height="38" rx="5.5" fill="#F7F7FE" stroke="black" stroke-dasharray="8 10"/>
<rect width="107" height="37" rx="5" fill="#F9EFEF"/>
<path d="M30.1518 22.6344C30.1518 23.5768 30.1518 25.0502 28.3858 25.0502C27.3055 25.0502 26.8769 24.4676 26.6196 23.4912C25.6766 24.6218 24.5104 25.2044 23.1044 25.2044C19.6405 25.2044 17 22.2575 17 18.0946C17 14.0515 19.7263 10.9506 23.1044 10.9506C24.459 10.9506 25.7965 11.4818 26.6195 12.6468C26.7224 11.7558 27.494 11.1048 28.3856 11.1048C30.1518 11.1048 30.1518 12.5611 30.1518 13.5206V22.6346V22.6344ZM23.6187 21.8122C25.5394 21.8122 26.4653 19.8592 26.4653 18.0947C26.4653 16.3303 25.5738 14.3258 23.6189 14.3258C21.5954 14.3258 20.6867 16.3302 20.6867 18.0947C20.6867 19.8595 21.6126 21.8122 23.6187 21.8122ZM31.1978 13.1607C31.1978 11.9273 31.9695 11.1051 33.0498 11.1051C34.0786 11.1051 34.6616 11.6703 34.9017 12.6467C35.5876 11.5161 37.028 10.9507 38.4169 10.9507C42.395 10.9507 44.3669 14.6682 44.3669 18.2488C44.3669 21.7265 42.0006 25.1871 38.2795 25.1871C37.1306 25.1871 35.8616 24.7589 34.9016 23.9023V28.4079C34.9016 29.6413 34.1299 30.4637 33.0496 30.4637C31.9694 30.4637 31.1975 29.6415 31.1975 28.4079V13.1607H31.1978ZM37.7995 21.8122C39.7202 21.8122 40.6804 19.8078 40.6804 18.0947C40.6804 16.3473 39.7373 14.3258 37.7995 14.3258C35.8276 14.3258 34.9016 16.176 34.9016 17.9577C34.9016 19.7736 35.759 21.8122 37.7995 21.8122ZM49.1511 7.59291C49.1511 8.74081 48.225 9.71725 47.0762 9.71725C45.9787 9.71725 45.0015 8.72355 45.0015 7.59291C45.0012 6.54772 45.9787 5.57129 47.0759 5.57129C48.1733 5.57129 49.1509 6.51349 49.1509 7.59291H49.1511ZM45.2244 13.1607C45.2244 11.9273 45.996 11.1051 47.0762 11.1051C48.1566 11.1051 48.9282 11.927 48.9282 13.1607V22.9945C48.9282 24.2278 48.1565 25.05 47.0762 25.05C45.996 25.05 45.2244 24.2281 45.2244 22.9945V13.1607Z" fill="#FC4C02"/>
<path d="M62.9539 23.8163C62.9539 28.2534 60.0563 30.4807 55.8552 30.4807C54.3463 30.4807 50.0252 29.7439 50.0252 27.7052C50.0252 27.0199 50.7969 26.0948 51.517 26.0948C52.7002 26.0948 54.0032 27.2427 56.1295 27.2427C57.93 27.2427 59.2503 26.1978 59.2503 24.3303V23.4564H59.1989C58.4272 24.587 57.1753 25.2037 55.4781 25.2037C51.6027 25.2037 49.7852 21.7947 49.7852 18.1284C49.7852 14.411 52.1514 10.9502 55.8725 10.9502C57.1242 10.9502 58.5644 11.5155 59.2504 12.6462C59.4733 11.6697 60.0734 11.1044 61.1023 11.1044C62.1827 11.1044 62.9542 11.9266 62.9542 13.1601V23.8163H62.9541H62.9539ZM56.3696 14.3424C54.4491 14.3424 53.4889 16.3469 53.4889 18.0598C53.4889 20.03 54.432 21.8289 56.3696 21.8289C58.3415 21.8289 59.2676 19.9787 59.2676 18.1971C59.2676 16.3811 58.3931 14.3424 56.3696 14.3424ZM67.3953 19.3106C67.6523 21.1266 69.1613 21.9833 70.8761 21.9833C72.7795 21.9833 74.0827 20.4927 75.06 20.4927C75.8487 20.4927 76.5689 21.2807 76.5689 22.086C76.5689 23.6791 73.2939 25.221 70.5331 25.221C66.3835 25.221 63.6057 22.1887 63.6057 18.1286C63.6057 14.3936 66.3321 10.9846 70.2245 10.9846C74.2198 10.9846 76.8606 14.6164 76.8606 17.7002C76.8606 18.7966 76.3805 19.345 75.2488 19.345H67.3953V19.3107V19.3106ZM73.1909 16.8436C72.9852 15.2332 71.9565 14.0169 70.2416 14.0169C68.5955 14.0169 67.4981 15.2675 67.3095 16.8436H73.1909ZM81.2502 19.3619C81.5073 21.178 83.0163 22.0173 84.7311 22.0173C86.6344 22.0173 87.9377 20.5269 88.915 20.5269C89.7037 20.5269 90.4239 21.3149 90.4239 22.1202C90.4239 23.7134 87.1489 25.2552 84.388 25.2552C80.2384 25.2552 77.4606 22.2229 77.4606 18.1628C77.4606 14.4278 80.187 11.0188 84.0793 11.0188C88.0746 11.0188 90.7154 14.6507 90.7154 17.7344C90.7154 18.8309 90.2354 19.3791 89.1036 19.3791H81.2502V19.3619ZM87.0461 16.895C86.8402 15.2846 85.8113 14.0682 84.0966 14.0682C82.4505 14.0682 81.3531 15.3188 81.1816 16.895H87.0459H87.0461Z" fill="#54585A"/>
</svg>
