<svg width="120" height="120" viewBox="0 0 120 120" fill="none" xmlns="http://www.w3.org/2000/svg">
<g clip-path="url(#clip0)">
<mask id="path-1-inside-1" fill="white">
<path d="M89.9334 33.1954C80.6202 25.1872 60.0134 21.22 44.5709 32.7174C30.0836 42.3913 29.3672 60.0728 29.3672 60.0728C31.8347 69.7466 41.6257 79.0236 60.4908 74.504C58.2622 61.5 62.6304 28.5968 89.9334 33.1957V33.1954Z"/>
</mask>
<path d="M89.9334 33.1954C80.6202 25.1872 60.0134 21.22 44.5709 32.7174C30.0836 42.3913 29.3672 60.0728 29.3672 60.0728C31.8347 69.7466 41.6257 79.0236 60.4908 74.504C58.2622 61.5 62.6304 28.5968 89.9334 33.1957V33.1954Z" fill="#F7F7FE"/>
<path d="M89.9334 33.1954H90.4334V32.9659L90.2594 32.8163L89.9334 33.1954ZM44.5709 32.7174L44.8486 33.1332L44.8592 33.1261L44.8695 33.1185L44.5709 32.7174ZM29.3672 60.0728L28.8676 60.0525L28.8646 60.1255L28.8827 60.1964L29.3672 60.0728ZM60.4908 74.504L60.6073 74.9903L61.0627 74.8811L60.9836 74.4196L60.4908 74.504ZM89.9334 33.1957L89.8504 33.6887L90.4334 33.787V33.1957H89.9334ZM90.2594 32.8163C89.3681 32.0499 88.3781 31.3217 87.3039 30.6407L86.7685 31.4853C87.8055 32.1427 88.756 32.8424 89.6074 33.5745L90.2594 32.8163ZM79.0102 26.8837C76.7637 26.1887 74.3712 25.6684 71.8902 25.3626L71.7679 26.3551C74.19 26.6536 76.5246 27.1615 78.7147 27.839L79.0102 26.8837ZM62.7967 25.2453C60.4167 25.481 58.0186 25.9345 55.6465 26.6369L55.9304 27.5957C58.2389 26.9122 60.5748 26.4702 62.8953 26.2404L62.7967 25.2453ZM47.3061 30.2871C46.2766 30.9026 45.2639 31.5781 44.2723 32.3164L44.8695 33.1185C45.8338 32.4005 46.8185 31.7438 47.8193 31.1454L47.3061 30.2871ZM44.2933 32.3016C43.2521 32.9969 42.2808 33.7329 41.3747 34.5005L42.0212 35.2635C42.8987 34.52 43.8397 33.8069 44.8486 33.1332L44.2933 32.3016ZM35.3248 41.2964C33.8829 43.4445 32.7625 45.6289 31.8919 47.71L32.8145 48.0959C33.6634 46.0663 34.7543 43.9406 36.155 41.8537L35.3248 41.2964ZM29.3244 56.4216C29.1251 57.5303 29.0111 58.4336 28.9468 59.0617C28.9147 59.3758 28.895 59.6213 28.8832 59.7893C28.8774 59.8733 28.8735 59.9379 28.8711 59.9822C28.8699 60.0043 28.869 60.0213 28.8685 60.0331C28.8682 60.039 28.868 60.0435 28.8678 60.0468C28.8678 60.0484 28.8677 60.0497 28.8677 60.0507C28.8677 60.0511 28.8676 60.0515 28.8676 60.0518C28.8676 60.052 28.8676 60.0521 28.8676 60.0522C28.8676 60.0523 28.8676 60.0524 28.8676 60.0524C28.8676 60.0525 28.8676 60.0525 29.3672 60.0728C29.8668 60.093 29.8668 60.0931 29.8668 60.0931C29.8668 60.0931 29.8668 60.0932 29.8668 60.0932C29.8668 60.0932 29.8668 60.0932 29.8668 60.0932C29.8668 60.0932 29.8668 60.0931 29.8668 60.0929C29.8668 60.0925 29.8668 60.0918 29.8669 60.0907C29.867 60.0887 29.8671 60.0853 29.8673 60.0806C29.8678 60.0712 29.8685 60.0565 29.8696 60.0368C29.8718 59.9975 29.8753 59.9378 29.8808 59.8588C29.8918 59.701 29.9106 59.4664 29.9416 59.1635C30.0036 58.5578 30.1142 57.6797 30.3086 56.5986L29.3244 56.4216ZM28.8827 60.1964C29.2362 61.5822 29.7365 62.9601 30.3885 64.2928L31.2868 63.8532C30.6655 62.5835 30.1886 61.2702 29.8517 59.9492L28.8827 60.1964ZM37.5208 72.4202C39.7754 73.9046 42.4542 75.0337 45.5735 75.6517L45.7678 74.6707C42.7714 74.0771 40.2139 72.9961 38.0707 71.585L37.5208 72.4202ZM56.3609 75.8042C57.7239 75.6113 59.1391 75.342 60.6073 74.9903L60.3743 74.0178C58.9352 74.3625 57.551 74.6258 56.2208 74.8141L56.3609 75.8042ZM60.9836 74.4196C60.7666 73.1535 60.6124 71.6892 60.5378 70.0816L59.5389 70.1279C59.615 71.7697 59.773 73.2756 59.998 74.5885L60.9836 74.4196ZM61.1872 59.1427C61.6418 56.3046 62.3343 53.4132 63.3125 50.6408L62.3695 50.308C61.3685 53.1451 60.6624 56.096 60.1998 58.9845L61.1872 59.1427ZM68.4594 41.082C70.2793 38.8247 72.4597 36.9266 75.0524 35.566L74.5877 34.6805C71.8577 36.1132 69.5744 38.1058 67.6809 40.4543L68.4594 41.082ZM85.5051 33.2647C86.8804 33.2946 88.3277 33.4323 89.8504 33.6887L90.0165 32.7026C88.4492 32.4387 86.9536 32.296 85.5268 32.265L85.5051 33.2647ZM90.4334 33.1957V33.1956H89.4334V33.1957H90.4334ZM90.4334 33.1955V33.1954H89.4334V33.1955H90.4334ZM89.9334 33.1954H90.9334V32.7364L90.5854 32.4372L89.9334 33.1954ZM44.5709 32.7174L45.1262 33.5491L45.1476 33.5348L45.1681 33.5195L44.5709 32.7174ZM29.3672 60.0728L28.368 60.0323L28.3621 60.1783L28.3982 60.3199L29.3672 60.0728ZM60.4908 74.504L60.7238 75.4765L61.6346 75.2583L61.4764 74.3351L60.4908 74.504ZM89.9334 33.1957L89.7673 34.1818L90.9334 34.3782V33.1957H89.9334ZM90.5854 32.4372C89.6742 31.6536 88.6645 30.9112 87.5716 30.2184L86.5008 31.9076C87.5191 32.5532 88.4499 33.2386 89.2814 33.9536L90.5854 32.4372ZM79.158 26.406C76.8833 25.7023 74.4618 25.1758 71.9514 24.8663L71.7067 26.8513C74.0995 27.1462 76.4051 27.6479 78.5669 28.3167L79.158 26.406ZM62.7475 24.7477C60.3376 24.9864 57.9084 25.4457 55.5045 26.1574L56.0723 28.0751C58.3491 27.401 60.6539 26.9648 62.9446 26.738L62.7475 24.7477ZM47.0496 29.8579C46.0057 30.4821 44.979 31.1669 43.9737 31.9153L45.1681 33.5195C46.1188 32.8117 47.0894 32.1643 48.0759 31.5745L47.0496 29.8579ZM44.0156 31.8858C42.9583 32.5918 41.9718 33.3394 41.0515 34.119L42.3444 35.645C43.2077 34.9135 44.1335 34.212 45.1262 33.5491L44.0156 31.8858ZM34.9096 41.0178C33.4473 43.1964 32.312 45.4102 31.4307 47.517L33.2757 48.2888C34.1139 46.285 35.1899 44.1887 36.5702 42.1324L34.9096 41.0178ZM28.8323 56.3332C28.6305 57.4556 28.5148 58.3716 28.4494 59.0109C28.4167 59.3306 28.3965 59.5814 28.3845 59.7545C28.3784 59.841 28.3744 59.9082 28.3718 59.9548C28.3706 59.9782 28.3697 59.9964 28.369 60.0093C28.3687 60.0158 28.3685 60.021 28.3683 60.0248C28.3682 60.0267 28.3682 60.0283 28.3681 60.0295C28.3681 60.0302 28.3681 60.0307 28.3681 60.0312C28.368 60.0314 28.368 60.0316 28.368 60.0318C28.368 60.0319 28.368 60.032 28.368 60.0321C28.368 60.0322 28.368 60.0323 29.3672 60.0728C30.3664 60.1133 30.3664 60.1134 30.3664 60.1135C30.3664 60.1135 30.3664 60.1136 30.3664 60.1136C30.3663 60.1137 30.3663 60.1138 30.3663 60.1139C30.3663 60.114 30.3663 60.114 30.3663 60.114C30.3663 60.1139 30.3664 60.1135 30.3664 60.1127C30.3665 60.1112 30.3666 60.1084 30.3668 60.1043C30.3672 60.0961 30.3678 60.0827 30.3689 60.0642C30.3709 60.0272 30.3743 59.97 30.3796 59.8936C30.3903 59.7409 30.4086 59.5116 30.439 59.2144C30.4998 58.6198 30.6088 57.7544 30.8007 56.687L28.8323 56.3332ZM28.3982 60.3199C28.76 61.7382 29.272 63.1484 29.9394 64.5125L31.7359 63.6335C31.13 62.3952 30.6648 61.1141 30.3362 59.8256L28.3982 60.3199ZM37.2458 72.8378C39.5561 74.3589 42.2956 75.512 45.4763 76.1422L45.865 74.1803C42.93 73.5988 40.4332 72.5418 38.3456 71.1674L37.2458 72.8378ZM56.431 76.2993C57.8104 76.1041 59.2411 75.8317 60.7238 75.4765L60.2578 73.5315C58.8333 73.8728 57.4646 74.1331 56.1507 74.319L56.431 76.2993ZM61.4764 74.3351C61.2635 73.0925 61.111 71.649 61.0373 70.0584L59.0394 70.151C59.1163 71.81 59.2761 73.3366 59.5051 74.6729L61.4764 74.3351ZM61.6809 59.2217C62.1314 56.4089 62.8172 53.5472 63.784 50.8071L61.898 50.1417C60.8855 53.0111 60.1727 55.9917 59.7061 58.9054L61.6809 59.2217ZM68.8487 41.3958C70.6317 39.1842 72.7607 37.3333 75.2847 36.0087L74.3554 34.2378C71.5567 35.7065 69.222 37.7463 67.2917 40.1405L68.8487 41.3958ZM85.4942 33.7646C86.8438 33.794 88.267 33.9291 89.7673 34.1818L90.0995 32.2096C88.51 31.9418 86.9902 31.7967 85.5377 31.7651L85.4942 33.7646ZM90.9334 33.1957V33.1956H88.9334V33.1957H90.9334ZM90.9334 33.1955V33.1954H88.9334V33.1955H90.9334Z" fill="black" mask="url(#path-1-inside-1)"/>
<path d="M88.1862 77.0458C87.1831 74.0975 85.5119 71.0131 83.0196 67.8501L82.6268 68.1596C81.8886 67.2227 81.0766 66.2778 80.1866 65.3266C79.2348 66.0873 78.1272 66.8759 76.8934 67.6635L76.6244 67.2421C73.8585 69.0077 70.4346 70.7794 66.6843 72.2178L66.8634 72.6846C64.1204 73.7366 61.2008 74.6134 58.2315 75.1829L58.1374 74.6919C54.4331 75.4024 50.6571 75.6282 47.0635 75.1095L46.992 75.6043C43.9835 75.1701 41.0886 74.2221 38.4578 72.6073L38.7193 72.1812C35.8125 70.3969 33.2443 67.7828 31.2199 64.1292L30.7826 64.3715C30.3599 63.6087 29.961 62.8023 29.5876 61.9508C29.5243 62.5089 29.4781 63.0813 29.4494 63.6663L28.95 63.6418C28.8137 66.4165 29.0638 69.454 29.7236 72.5707L30.2128 72.4671C30.6875 74.7096 31.3773 76.9943 32.2911 79.2507L31.8277 79.4384C32.9256 82.1494 34.3427 84.8196 36.0943 87.3303L36.5044 87.0442C37.837 88.9544 39.3651 90.7699 41.095 92.4376L40.748 92.7975C42.8493 94.8231 45.2455 96.6347 47.9487 98.139L48.1918 97.7021C49.2078 98.2676 50.268 98.789 51.3729 99.2613L51.3847 99.2663L51.3962 99.2719C52.5089 99.8165 53.6249 100.276 54.738 100.66L54.575 101.133C57.6428 102.191 60.6888 102.686 63.5855 102.807L63.6064 102.308C66.1637 102.415 68.6054 102.227 70.8413 101.879L70.9183 102.373C74.5428 101.809 77.6248 100.829 79.7878 99.9973L79.6084 99.5306C80.6556 99.1279 81.4836 98.7608 82.0481 98.4953C82.3304 98.3626 82.5466 98.2553 82.6914 98.1817C82.7589 98.1474 82.8108 98.1204 82.8467 98.1016C83.8015 97.1685 84.6845 96.1281 85.4638 94.9925L85.876 95.2754C87.7895 92.4872 89.095 89.1361 89.3463 85.3902L88.8474 85.3567C89.0178 82.8158 88.6909 80.0815 87.7129 77.2069L88.1862 77.0458Z" fill="#F7F7FE" stroke="black" stroke-dasharray="8 10"/>
<mask id="path-4-inside-2" fill="white">
<path d="M61.8242 52.8298C74.2442 57.4091 100.794 77.2556 83.1442 98.5098C94.7634 94.4796 108.388 79.0595 106.114 59.9897C104.947 42.6551 89.9327 33.1961 89.9327 33.1961C80.2888 30.488 67.3275 34.2958 61.8242 52.8298Z"/>
</mask>
<path d="M61.8242 52.8298C74.2442 57.4091 100.794 77.2556 83.1442 98.5098C94.7634 94.4796 108.388 79.0595 106.114 59.9897C104.947 42.6551 89.9327 33.1961 89.9327 33.1961C80.2888 30.488 67.3275 34.2958 61.8242 52.8298Z" fill="#F7F7FE"/>
<path d="M83.1442 98.5098L82.7595 98.1903L81.6141 99.5697L83.308 98.9821L83.1442 98.5098ZM106.114 59.9897L105.615 60.0232L105.616 60.0361L105.617 60.0489L106.114 59.9897ZM89.9327 33.1961L90.1992 32.773L90.1377 32.7343L90.0678 32.7147L89.9327 33.1961ZM61.6513 53.2989C62.8541 53.7424 64.1972 54.3337 65.6251 55.0608L66.0789 54.1696C64.6216 53.4276 63.2423 52.8198 61.9972 52.3607L61.6513 53.2989ZM74.7967 60.9834C77.0421 62.7647 79.2179 64.7744 81.1504 66.9698L81.901 66.3091C79.9235 64.0625 77.7029 62.0124 75.4182 60.2L74.7967 60.9834ZM86.9574 76.0897C88.0333 78.7735 88.6122 81.5922 88.5102 84.5031L89.5096 84.5382C89.6172 81.469 89.0057 78.5118 87.8856 75.7177L86.9574 76.0897ZM85.2981 94.6597C84.5856 95.828 83.7432 97.0058 82.7595 98.1903L83.5288 98.8292C84.5414 97.6099 85.4125 96.3928 86.1519 95.1803L85.2981 94.6597ZM83.308 98.9821C84.4099 98.6 85.5267 98.1185 86.6441 97.5449L86.1873 96.6553C85.1083 97.2092 84.0345 97.6717 82.9803 98.0374L83.308 98.9821ZM94.0233 92.3614C95.7497 90.7927 97.3962 89.0123 98.8995 87.0476L98.1053 86.44C96.6388 88.3566 95.033 90.0928 93.3508 91.6213L94.0233 92.3614ZM103.538 79.3252C104.518 77.1708 105.317 74.8893 105.886 72.5015L104.913 72.2697C104.359 74.5919 103.582 76.8126 102.628 78.9113L103.538 79.3252ZM106.859 63.5364C106.837 62.3502 106.756 61.1476 106.61 59.9305L105.617 60.0489C105.759 61.2326 105.838 62.4019 105.859 63.5549L106.859 63.5364ZM106.613 59.9561C106.529 58.7069 106.374 57.4977 106.159 56.3294L105.175 56.5106C105.384 57.642 105.534 58.813 105.615 60.0232L106.613 59.9561ZM103.267 47.7009C102.119 45.3838 100.779 43.3259 99.4039 41.5355L98.6108 42.1445C99.9516 43.8907 101.255 45.8937 102.371 48.1449L103.267 47.7009ZM93.1205 34.9766C92.2581 34.2522 91.5315 33.7037 91.0188 33.3352C90.7624 33.1509 90.5594 33.0116 90.4196 32.9177C90.3497 32.8708 90.2956 32.8352 90.2584 32.8111C90.2398 32.799 90.2255 32.7898 90.2156 32.7835C90.2106 32.7803 90.2068 32.7778 90.204 32.7761C90.2027 32.7752 90.2016 32.7745 90.2008 32.774C90.2003 32.7738 90.2 32.7736 90.1998 32.7734C90.1996 32.7733 90.1995 32.7732 90.1994 32.7732C90.1994 32.7731 90.1993 32.7731 90.1993 32.7731C90.1992 32.7731 90.1992 32.773 89.9327 33.1961C89.6661 33.6191 89.6661 33.6191 89.6661 33.6191C89.6661 33.6191 89.666 33.619 89.666 33.619C89.666 33.619 89.666 33.619 89.666 33.619C89.666 33.619 89.6661 33.6191 89.6663 33.6192C89.6666 33.6194 89.6672 33.6198 89.6681 33.6203C89.6698 33.6215 89.6727 33.6233 89.6767 33.6258C89.6846 33.6309 89.6969 33.6388 89.7135 33.6496C89.7466 33.6711 89.7966 33.7039 89.8623 33.748C89.9937 33.8362 90.1879 33.9695 90.4351 34.1472C90.9297 34.5027 91.6362 35.0358 92.4773 35.7423L93.1205 34.9766ZM90.0678 32.7147C88.6916 32.3282 87.2494 32.0714 85.7708 31.9669L85.7003 32.9644C87.1098 33.064 88.4851 33.3089 89.7975 33.6775L90.0678 32.7147ZM75.1624 34.0356C72.7404 35.2341 70.4145 36.9773 68.3128 39.3576L69.0624 40.0195C71.0807 37.7337 73.3035 36.0712 75.6059 34.9319L75.1624 34.0356ZM62.7653 48.6053C62.2496 49.8811 61.7745 51.2406 61.3449 52.6875L62.3035 52.9721C62.7246 51.5542 63.1892 50.2249 63.6924 48.9801L62.7653 48.6053ZM83.1442 98.5098L82.3749 97.8709L80.0839 100.63L83.4719 99.4545L83.1442 98.5098ZM106.114 59.9897L105.116 60.0568L105.118 60.0825L105.121 60.1081L106.114 59.9897ZM89.9327 33.1961L90.4657 32.35L90.3428 32.2726L90.203 32.2333L89.9327 33.1961ZM61.4783 53.7681C62.66 54.2037 63.985 54.7867 65.3982 55.5063L66.3058 53.7241C64.8338 52.9746 63.4364 52.3584 62.1702 51.8915L61.4783 53.7681ZM74.4859 61.3751C76.7117 63.1408 78.8651 65.1303 80.7751 67.3002L82.2763 65.9788C80.2763 63.7066 78.0333 61.6363 75.7289 59.8083L74.4859 61.3751ZM86.4933 76.2758C87.547 78.9044 88.1098 81.6538 88.0105 84.4856L90.0093 84.5557C90.1196 81.4074 89.4919 78.3809 88.3497 75.5316L86.4933 76.2758ZM84.8712 94.3993C84.1722 95.5456 83.3441 96.7037 82.3749 97.8709L83.9135 99.1486C84.9405 97.9119 85.8259 96.6752 86.5787 95.4407L84.8712 94.3993ZM83.4719 99.4545C84.5976 99.0641 85.7359 98.5732 86.8724 97.9897L85.959 96.2105C84.899 96.7546 83.8468 97.2076 82.8165 97.565L83.4719 99.4545ZM94.3596 92.7315C96.108 91.1427 97.7749 89.3401 99.2966 87.3515L97.7082 86.1361C96.26 88.0288 94.6747 89.7428 93.0146 91.2513L94.3596 92.7315ZM103.994 79.5322C104.986 77.3499 105.795 75.038 106.372 72.6174L104.426 72.1538C103.881 74.4433 103.115 76.6335 102.173 78.7043L103.994 79.5322ZM107.359 63.5272C107.336 62.3244 107.254 61.105 107.107 59.8712L105.121 60.1081C105.26 61.2752 105.338 62.4278 105.359 63.5642L107.359 63.5272ZM107.112 59.9225C107.026 58.6538 106.869 57.4256 106.65 56.2388L104.683 56.6011C104.888 57.7141 105.036 58.8661 105.116 60.0568L107.112 59.9225ZM103.715 47.4789C102.55 45.1288 101.192 43.0434 99.8005 41.231L98.2142 42.449C99.538 44.1731 100.824 46.1487 101.923 48.3669L103.715 47.4789ZM93.4421 34.5938C92.569 33.8604 91.8324 33.3042 91.3106 32.9292C91.0497 32.7416 90.8423 32.5993 90.6983 32.5026C90.6262 32.4542 90.57 32.4173 90.5309 32.3919C90.5113 32.3791 90.496 32.3693 90.485 32.3623C90.4796 32.3588 90.4752 32.356 90.472 32.354C90.4704 32.3529 90.4691 32.3521 90.468 32.3514C90.4675 32.3511 90.467 32.3508 90.4666 32.3506C90.4664 32.3504 90.4663 32.3503 90.4661 32.3502C90.466 32.3502 90.4659 32.3501 90.4659 32.3501C90.4658 32.35 90.4657 32.35 89.9327 33.1961C89.3996 34.0422 89.3995 34.0421 89.3995 34.0421C89.3994 34.042 89.3994 34.042 89.3993 34.042C89.3992 34.0419 89.3992 34.0419 89.3991 34.0418C89.399 34.0418 89.399 34.0418 89.399 34.0418C89.3991 34.0418 89.3995 34.0421 89.4001 34.0425C89.4014 34.0433 89.4037 34.0448 89.4072 34.047C89.4142 34.0515 89.4255 34.0587 89.441 34.0688C89.4721 34.089 89.5201 34.1205 89.5837 34.1632C89.7109 34.2486 89.9006 34.3788 90.1433 34.5532C90.6288 34.9022 91.3253 35.4276 92.1557 36.1252L93.4421 34.5938ZM90.203 32.2333C88.7949 31.8379 87.3192 31.5751 85.806 31.4681L85.665 33.4632C87.0399 33.5603 88.3818 33.7993 89.6623 34.1588L90.203 32.2333ZM74.9406 33.5875C72.4589 34.8156 70.0815 36.5991 67.938 39.0266L69.4372 40.3504C71.4138 38.1119 73.585 36.4898 75.8277 35.38L74.9406 33.5875ZM62.3017 48.4179C61.7797 49.7092 61.2995 51.0838 60.8656 52.5452L62.7829 53.1145C63.1996 51.711 63.6591 50.3967 64.156 49.1675L62.3017 48.4179Z" fill="black" mask="url(#path-4-inside-2)"/>
</g>
<g clip-path="url(#clip1)">
<path d="M74.0194 23.6466C64.7062 15.6383 44.0993 11.6712 28.6569 23.1686C14.1695 32.8425 13.4531 50.5239 13.4531 50.5239C15.9207 60.1978 25.7116 69.4748 44.5767 64.9552C42.3482 51.9512 46.7163 19.048 74.0194 23.6469V23.6466Z" fill="#00ACD2"/>
<path d="M64.3174 55.0971C54.1262 63.5218 23.1055 76.3772 13.4522 50.5244C11.1463 62.5628 17.5454 82.5992 35.2623 90.1722C50.9165 97.833 67.2303 88.9607 67.2303 88.9607C74.4067 81.9952 77.6796 69.1115 64.3174 55.0971Z" fill="#C8E9EB"/>
<path d="M45.9102 43.281C58.3302 47.8602 84.8799 67.7067 67.2301 88.9609C78.8493 84.9307 92.4744 69.5107 90.1999 50.4408C89.0332 33.1062 74.0186 23.6472 74.0186 23.6472C64.3747 20.9392 51.4134 24.7469 45.9102 43.281Z" fill="#662D91"/>
</g>
<defs>
<clipPath id="clip0">
<rect width="77.4512" height="77.4512" fill="white" transform="translate(28.9141 25.5488)"/>
</clipPath>
<clipPath id="clip1">
<rect width="77.4512" height="77.4512" fill="white" transform="translate(13 16)"/>
</clipPath>
</defs>
</svg>
