<svg width="120" height="120" viewBox="0 0 120 120" fill="none" xmlns="http://www.w3.org/2000/svg">
<path d="M35.9341 46.8736L35.6637 46.9817V47.2728V49.9597H36.0938V56.6769H35.6637V59.3637V59.7162L36.0094 59.7854L37.4236 60.0682L37.5079 59.6466L41.0432 60.3536L40.9589 60.7753L42.3731 61.0581L42.4453 61.0726L42.5182 61.0621L44.498 60.7793L44.4372 60.3536L49.3867 59.6466L49.4475 60.0722L51.4273 59.7894L51.7965 59.7367V59.3637V56.5354H51.3665V49.4647H51.7965V46.6365V46.2888L51.4566 46.216L49.4768 45.7918L49.3867 46.2122L44.4372 45.1516L44.5273 44.7312L42.5475 44.3069L42.4194 44.2795L42.2977 44.3281L40.8835 44.8938L41.0432 45.293L37.5079 46.7072L37.3482 46.3079L35.9341 46.8736ZM68.0813 26.5139L67.8907 26.4322L67.7081 26.5306L65.8697 27.5205L66.0735 27.8991L61.4776 30.3738L61.2737 29.9952L59.4353 30.9851L59.2092 31.1069V31.3637V34.4041H59.6392V42.0051H59.2092V48.0859H59.6392V55.687H59.2092V58.7274V59.1256L59.6062 59.1561L61.4446 59.2975L61.4776 58.8688L66.0735 59.2223L66.0406 59.651L67.879 59.7925L67.9108 59.7949L67.9426 59.7926L69.9224 59.6512L69.8917 59.2223L74.8412 58.8688L74.8719 59.2977L76.8517 59.1563L77.251 59.1277V58.7274V55.6163H76.821V47.8385H77.251V41.6163H76.821V33.8385H77.251V30.7274V30.4438L76.9904 30.3321L75.0106 29.4836L74.8412 29.8789L69.8917 27.7577L70.0611 27.3624L68.0813 26.5139ZM93.4508 50.033L93.3635 50.0155L93.2764 50.0342L91.2966 50.4584L91.3867 50.8789L86.4372 51.9395L86.3471 51.519L84.3673 51.9433L84.0274 52.0161V52.3637V54.2021H84.4574V58.7981H84.0274V60.6365V61.0665H84.4574H86.4372V60.6365H91.3867V61.0665H93.3665H94.7806V60.6365H98.316V61.0665H99.7301H100.16V60.6365V58.6567H99.7301V53.7072H100.16V51.7274V51.3748L99.8144 51.3057L98.4003 51.0229L98.316 51.4445L94.7806 50.7375L94.865 50.3158L93.4508 50.033ZM35.6637 75.599L35.9778 75.6869L39.5132 76.6768L39.6291 76.2627L48.4675 78.7375L48.3515 79.1515L55.4223 81.1313L55.5382 80.7173L64.3766 83.192L64.2606 83.6061L67.796 84.596L67.9119 84.6284L68.0279 84.596L71.5632 83.6061L71.4473 83.192L80.2857 80.7173L80.4016 81.1313L87.4723 79.1515L87.3564 78.7375L96.1948 76.2627L96.3107 76.6768L99.8461 75.6869L100.16 75.599V75.2728V73.293H99.7301V68.3435H100.16V66.3637V65.9337H99.7301H96.1948V66.3637H87.3564V65.9337H80.2857V66.3637H71.4473V65.9337H67.9119H64.3766V66.3637H55.5382V65.9337H48.4675V66.3637H39.6291V65.9337H36.0938H35.6637V66.3637V68.3435H36.0938V73.293H35.6637V75.2728V75.599ZM68.0566 85.6861L67.9064 85.6324L67.7576 85.6897L65.9192 86.3967L66.0735 86.7981L61.4776 88.5658L61.3232 88.1644L59.4848 88.8715L59.2092 88.9775V89.2728V91.2526H59.6392V96.2021H59.2092V98.1819V98.457L59.459 98.5723L61.2974 99.4208L61.4776 99.0304L66.0735 101.152L65.8934 101.542L67.7317 102.391L67.9055 102.471L68.0813 102.395L70.0611 101.547L69.8917 101.152L74.8412 99.0304L75.0106 99.4256L76.9904 98.5771L77.251 98.4655V98.1819V96.2021H76.821V91.2526H77.251V89.2728V88.9698L76.9656 88.8679L74.9859 88.1608L74.8412 88.5658L69.8917 86.7981L70.0364 86.3931L68.0566 85.6861Z" fill="#F7F6FC" stroke="black" stroke-width="0.86" stroke-dasharray="8 10"/>
<path d="M26.3636 34.8182L20 37.3636V49.4545H26.3636V34.8182Z" fill="#A6502A"/>
<path d="M51.8182 17L42.9091 21.4545V48.8182H52.4545L51.8182 17Z" fill="#A6502A"/>
<path d="M77.2727 40.5455L68.3636 41.8182V50.7273H77.2727V40.5455Z" fill="#A6502A"/>
<path d="M51.8182 55.8182H20V65.3636L51.8182 74.2727V55.8182Z" fill="#A6502A"/>
<path d="M51.8182 81.9091L42.9091 78.7273V88.2727L51.8182 92.7273V81.9091Z" fill="#A6502A"/>
<path d="M35.2724 36.7273L26.3633 34.8182V49.4545H35.2724V36.7273Z" fill="#F78345"/>
<path d="M60.7269 20.8182L51.8178 17V48.8182H60.7269V20.8182Z" fill="#F78345"/>
<path d="M83.636 41.8182L77.2724 40.5455V50.7273H83.636V41.8182Z" fill="#F78345"/>
<path d="M83.636 55.8182H51.8178V74.2727L83.636 65.3636V55.8182Z" fill="#F78345"/>
<path d="M60.7269 78.7273L51.8178 81.9091V92.7273L60.7269 88.2727V78.7273Z" fill="#F78345"/>
<path d="M51.8192 76.1826L42.9102 78.7281L51.8192 81.9099L60.7283 78.7281L51.8192 76.1826Z" fill="#FEBC98"/>
<path d="M51.8182 50.0901L42.9091 48.8174H60.7273L51.8182 50.0901Z" fill="#6E3215"/>
<path d="M26.3636 50.7265L20 49.4537H35.2727L26.3636 50.7265Z" fill="#6E3215"/>
<path d="M77.2727 51.3628L68.3636 50.7265H83.6364L77.2727 51.3628Z" fill="#6E3215"/>
</svg>
