<svg width="120" height="120" viewBox="0 0 120 120" fill="none" xmlns="http://www.w3.org/2000/svg">
<path d="M38.4061 44.5351L38.0508 44.5978V44.9586V47.5834H38.4808V54.1453H38.0508V56.3401H37.9323V56.7701H36.5612V56.3401H36.0127H35.0333V56.7701H32.5849V56.3401H31.6055H31.1755V56.7701V57.0051H31.6055V57.2001V57.5928H31.1755V57.8278V60.0217H31.6055V65.5063H31.1755V67.7001V68.0785L31.5508 68.1266L33.0786 68.3225L33.1333 67.896L36.953 68.3857L36.8983 68.8122L38.4193 69.0072L40.6064 69.3587L40.6747 68.9341L46.1593 69.8156L46.1082 70.1331L44.5557 70.4109L44.6314 70.8342L35.3272 72.4991L35.2514 72.0759L31.5297 72.7419L31.1755 72.8052V73.1651V75.5157H31.6055V81.392H31.1755V83.7426V84.01L31.4154 84.1283L35.5484 86.1654L35.7385 85.7797L46.0711 90.8726L45.881 91.2583L54.1471 95.3325L54.3372 94.9468L64.6698 100.04L64.4797 100.425L68.6127 102.463L68.8028 102.556L68.9929 102.463L73.126 100.425L72.9359 100.04L83.2685 94.9468L83.4586 95.3325L91.7247 91.2582L91.5345 90.8726L101.867 85.7797L102.057 86.1654L106.19 84.1283L106.43 84.01V83.7426V81.392H106V75.5157H106.43V73.1651V72.8178L106.091 72.7448L102.996 72.0788L102.905 72.4991L95.1681 70.8342L95.2586 70.4138L93.6201 70.0612L93.5619 69.8156L97.2836 68.9341L97.3827 69.3526L98.8225 69.0116H99.3599V68.5816H100.829V69.0116H101.417H101.458L101.498 69.0038L102.516 68.8079L102.435 68.3857L104.982 67.896L105.063 68.3183L106.081 68.1224L106.43 68.0553V67.7001V63.5671H106V53.2345H106.43V44.9684H106V34.6358H106.43V30.5028V30.2544L106.215 30.1303L105.196 29.5427L104.982 29.9151L102.435 28.446L102.65 28.0736L101.632 27.4859L101.466 27.3906L101.285 27.4492L100.07 27.8409L100.202 28.2502L97.1661 29.2295L97.034 28.8203L95.8196 29.2121L95.5216 29.3082V29.6213V30.0131H95.9516V30.9432L95.185 30.769L95.0897 31.1883L92.9351 30.6986L93.0304 30.2793L92.1685 30.0835L92.086 30.0647L92.0025 30.0786L90.8272 30.2745L90.8979 30.6986L87.9598 31.1883L87.8891 30.7642L86.7138 30.9601L86.3545 31.0199V31.3842V33.7348H86.7845V39.6111H86.3545V41.4642L85.2405 41.3011L85.1783 41.7266L81.1628 41.139L81.225 40.7135L79.6188 40.4784L79.5438 40.4675L79.4694 40.4828L78.3333 40.7179L78.4205 41.139L75.5802 41.7266L75.4931 41.3055L74.8741 41.4336V39.6111H74.4441V33.7348H74.8741V31.3842V31.0681L74.5724 30.9738L73.3188 30.582L73.1905 30.9925L70.0564 30.0131L70.1847 29.6026L68.9311 29.2109L68.8066 29.172L68.6815 29.2088L67.3495 29.6005L67.4709 30.0131L64.1409 30.9925L64.0196 30.5799L62.6876 30.9717L62.3789 31.0625V31.3842V35.4193H62.8089V45.5071H62.3789V49.1122H61.477V49.5422H58.147V49.1122H56.8151H55.4439V49.5422H52.016V49.1122H51.0749V48.2885H50.6449V45.1545H51.0749V43.9009V43.4709H50.6449H49.2737V43.9009H45.8458V43.4709H44.4747H44.437L44.4 43.4774L43.068 43.7125L43.1427 44.1359L39.8128 44.7235L39.7381 44.3001L38.4061 44.5351Z" fill="#F7F6FC" stroke="black" stroke-width="0.86" stroke-dasharray="8 10"/>
<path d="M14 46.088V56.4891L18.4073 57.3706V46.088H14Z" fill="#A14F2D"/>
<path d="M27.5744 33.0425L21.7568 34.1002V58.252L27.5744 59.3098V33.0425Z" fill="#A14F2D"/>
<path d="M39.9147 38.5075L31.2765 39.5652V60.1912L39.9147 61.7779V38.5075Z" fill="#A14F2D"/>
<path d="M51.3736 19.1155L45.7323 20.8784V62.6593L51.3736 63.3645V19.1155Z" fill="#A14F2D"/>
<path d="M62.3037 30.2218L57.3675 31.1033L57.5438 60.1912L62.6563 62.3067L62.3037 30.2218Z" fill="#A14F2D"/>
<path d="M74.4677 19.1155L69.3553 20.8784V31.7203L71.2945 32.161V58.252L74.4677 59.3098V19.1155Z" fill="#A14F2D"/>
<path d="M83.6349 17L78.875 18.0577V21.0547L81.1668 22.1124V57.3706H83.6349V17Z" fill="#A14F2D"/>
<path d="M14 72.7079V62.6593L51.3736 73.7656V91.0421L14 72.7079Z" fill="#A14F2D"/>
<path d="M88.57 62.483L51.3726 73.7656V91.0421L88.57 72.5316V62.483Z" fill="#FA8445"/>
<path d="M21.7558 46.088H18.4062V57.3706L21.7558 57.1943V46.088Z" fill="#FA8445"/>
<path d="M33.391 33.5713L27.5734 33.0425V59.3098L31.2755 58.7809V39.7415L33.5673 39.3889L33.391 33.5713Z" fill="#FA8445"/>
<path d="M45.7313 38.5075H39.9137V61.249L45.7313 60.1912V38.5075Z" fill="#FA8445"/>
<path d="M57.3665 21.0547L51.3726 19.1155V63.7171L57.5428 62.3067L57.3665 21.0547Z" fill="#FA8445"/>
<path d="M71.2935 32.161L62.3027 30.2218L62.6552 62.3067L71.2935 60.1912V32.161Z" fill="#FA8445"/>
<path d="M81.1658 22.1124L74.4667 19.1155V59.3098L81.1658 57.8995V22.1124Z" fill="#FA8445"/>
<path d="M88.57 19.1155L83.6338 17V57.3706L88.2174 56.6654L88.57 19.1155Z" fill="#FA8445"/>
<path d="M14 62.6595L30.9239 60.1914L39.5622 61.2492L45.7323 60.1914V62.3069L51.1974 63.3646L57.5438 62.3069V60.1914L62.6563 62.3069L71.2945 60.1914L88.571 62.4832L51.3736 73.7658L14 62.6595Z" fill="#FFBF99"/>
</svg>
