<svg width="120" height="120" viewBox="0 0 120 120" fill="none" xmlns="http://www.w3.org/2000/svg">
<path d="M48.7961 32.3945L48.6271 32.3382L48.4678 32.4179L44.9513 34.1761L45.1436 34.5607L36.3524 38.9563L36.1601 38.5717L32.6436 40.33L32.4059 40.4488V40.7146V44.3043H32.8359V53.2787H32.4059V60.4581H32.8359V69.4325H32.4059V76.612H32.8359V85.5863H32.4059V89.1761V89.449L32.6528 89.5652L36.3891 91.3234L36.5722 90.9343L45.9129 95.3299L45.7298 95.719L53.2023 99.2355L53.3854 98.8464L62.726 103.242L62.543 103.631L66.2792 105.389L66.4597 105.474L66.6411 105.391L70.4872 103.633L70.3085 103.242L79.9239 98.8464L80.1026 99.2375L87.7949 95.721L87.6162 95.3299L97.2315 90.9343L97.4103 91.3254L101.256 89.5672L101.508 89.4523V89.1761V85.6596H101.078V76.8684H101.508V69.8354H101.078V61.0442H101.508V54.0113H101.078V45.2201H101.508V41.7036V41.4521L101.289 41.3288L97.772 39.3508L97.5612 39.7255L88.77 34.7805L88.9808 34.4057L85.4643 32.4277L85.3062 32.3388L85.1322 32.3899L83.2641 32.9394L83.3854 33.3519L78.7151 34.7255L78.5937 34.313L77.2769 34.7003V33.9563H76.8469V30.6596H77.2769V29.3409V29.0807L77.0465 28.96L74.7388 27.7512L74.5392 28.1321L68.77 25.1102L68.9695 24.7293L66.6618 23.5205L66.4715 23.4207L66.2774 23.5131L63.9697 24.612L64.1546 25.0003L58.3854 27.7475L58.2005 27.3593L55.8928 28.4582L55.6477 28.5749V28.8464V30.275H56.0777V33.8464H55.6477V34.6784L54.5653 34.3176L54.4293 34.7255L50.3085 33.3519L50.4444 32.944L48.7961 32.3945Z" fill="#F7F6FC" stroke="black" stroke-width="0.86" stroke-dasharray="8 10"/>
<path d="M33.8226 23.9014L41.2402 26.3739V40.7146V42.1981H46.1853V66.9233L33.3281 67.9124L33.8226 56.0442H43.7127V48.1321L33.8226 47.1431V23.9014Z" fill="#4995CA"/>
<path d="M51.625 15L62.0096 20.4396V42.1978L51.625 39.2308V15Z" fill="#4995CA"/>
<path d="M43.7148 48.1321H27.8906L33.3302 45.165L43.7148 48.1321Z" fill="#094569"/>
<path d="M57.5586 65.9343V42.1981H59.0421H62.0091V26.8684L70.4157 23.9014V45.6596L68.4377 47.6376L62.0091 48.1321V56.5387H70.4157V68.9014L57.5586 65.9343Z" fill="#175D95"/>
<path d="M62.0114 42.1975H41.2422L51.6268 39.2305L62.0114 42.1975Z" fill="#11476D"/>
<path d="M18 31.8135L33.8242 23.9014V45.3042L27.8901 48.1321V56.0442H33.8242V67.9124L52.1209 72.8574V96.5937L18 80.275V31.8135Z" fill="#175D95"/>
<path d="M41.2422 19.9451L51.6268 15V39.2308L41.2422 42.1978V19.9451Z" fill="#175D95"/>
<path d="M46.6814 66.9226L33.8242 67.9116L52.1209 72.8567L70.4176 68.9006L57.5605 65.9336L46.6814 66.9226Z" fill="#98BDE1"/>
<path d="M70.4178 23.9014L86.242 32.308V80.275L52.1211 96.5937V72.8574L70.4178 68.9014V56.0442H76.8464V48.1321L70.4178 45.6596V23.9014Z" fill="#4995CA"/>
<path d="M36.7917 48.1318H27.8906V56.0439H36.7917V48.1318Z" fill="#4795CA"/>
<path d="M36.793 48.1318H43.716V56.0439H36.793V48.1318Z" fill="#175D95"/>
<path d="M70.5724 45.165L67.4492 47.039V57.0332H70.5724H77.3393V48.1321L70.5724 45.165Z" fill="#175D95"/>
<path d="M61.5156 57.0334V48.1323L67.4497 46.1543V57.0334H61.5156Z" fill="#4995CA"/>
<path d="M61.5157 48.1321H77.3398L70.4168 45.165L61.5157 48.1321Z" fill="#094569"/>
</svg>
