<svg width="140" height="140" viewBox="0 0 140 140" fill="none" xmlns="http://www.w3.org/2000/svg">
<rect x="21.8008" y="37.5576" width="109.7" height="78.95" rx="9.5" fill="#F9F7FF" stroke="black" stroke-dasharray="8 8"/>
<rect x="9" y="23" width="110.7" height="79.95" rx="10" fill="#FF9900"/>
<path d="M45.1019 56.0759C45.1019 57.1535 45.2184 58.0272 45.4223 58.6679C45.6552 59.3087 45.9465 60.0077 46.3542 60.7649C46.4999 60.9979 46.5581 61.2309 46.5581 61.4348C46.5581 61.726 46.3834 62.0173 46.0047 62.3085L44.1699 63.5317C43.9078 63.7065 43.6457 63.7938 43.4127 63.7938C43.1214 63.7938 42.8302 63.6482 42.5389 63.3861C42.1312 62.9492 41.7817 62.4832 41.4905 62.0173C41.1992 61.5221 40.908 60.9688 40.5876 60.2989C38.3159 62.9784 35.4617 64.3181 32.025 64.3181C29.5786 64.3181 27.6272 63.6191 26.2001 62.2211C24.773 60.8232 24.0449 58.9592 24.0449 56.6292C24.0449 54.1537 24.9187 52.1441 26.6952 50.6296C28.4718 49.1151 30.8309 48.3579 33.8307 48.3579C34.821 48.3579 35.8403 48.4453 36.9179 48.5909C37.9955 48.7365 39.1023 48.9695 40.2672 49.2316V47.1055C40.2672 44.8921 39.8012 43.3485 38.8984 42.4456C37.9664 41.5428 36.3937 41.1059 34.1511 41.1059C33.1317 41.1059 32.0833 41.2224 31.0057 41.4845C29.9281 41.7467 28.8796 42.067 27.8602 42.4748C27.3942 42.6786 27.0447 42.7951 26.8409 42.8534C26.637 42.9116 26.4914 42.9408 26.3749 42.9408C25.9671 42.9408 25.7633 42.6495 25.7633 42.0379V40.6108C25.7633 40.1448 25.8215 39.7953 25.9671 39.5914C26.1128 39.3876 26.3749 39.1837 26.7826 38.9798C27.802 38.4556 29.0252 38.0187 30.4523 37.6692C31.8794 37.2906 33.3939 37.1159 34.9957 37.1159C38.4615 37.1159 40.9953 37.9022 42.6263 39.4749C44.2282 41.0477 45.0436 43.4359 45.0436 46.6396V56.0759H45.1019ZM33.2774 60.5028C34.2385 60.5028 35.2287 60.328 36.2772 59.9785C37.3257 59.6291 38.2576 58.9883 39.044 58.1146C39.51 57.5612 39.8595 56.9496 40.0342 56.2506C40.209 55.5516 40.3255 54.707 40.3255 53.7168V52.4936C39.4809 52.2897 38.578 52.1149 37.646 51.9985C36.714 51.882 35.8112 51.8237 34.9083 51.8237C32.957 51.8237 31.5299 52.2023 30.5688 52.9887C29.6077 53.775 29.1417 54.8818 29.1417 56.338C29.1417 57.7068 29.4912 58.7262 30.2193 59.4252C30.9183 60.1533 31.9376 60.5028 33.2774 60.5028ZM56.6643 63.6482C56.14 63.6482 55.7906 63.5608 55.5576 63.357C55.3246 63.1822 55.1207 62.7745 54.9459 62.2211L48.1017 39.7079C47.927 39.1255 47.8396 38.7468 47.8396 38.543C47.8396 38.077 48.0726 37.8149 48.5386 37.8149H51.3928C51.9461 37.8149 52.3247 37.9022 52.5286 38.1061C52.7616 38.2808 52.9364 38.6886 53.1111 39.2419L58.004 58.5223L62.5474 39.2419C62.693 38.6595 62.8678 38.2808 63.1008 38.1061C63.3338 37.9314 63.7415 37.8149 64.2658 37.8149H66.5957C67.1491 37.8149 67.5277 37.9022 67.7607 38.1061C67.9937 38.2808 68.1976 38.6886 68.3141 39.2419L72.9157 58.7553L77.9542 39.2419C78.129 38.6595 78.3329 38.2808 78.5367 38.1061C78.7697 37.9314 79.1483 37.8149 79.6726 37.8149H82.3812C82.8471 37.8149 83.1093 38.0478 83.1093 38.543C83.1093 38.6886 83.0801 38.8342 83.051 39.009C83.0219 39.1837 82.9636 39.4167 82.8471 39.7371L75.8282 62.2502C75.6534 62.8327 75.4495 63.2114 75.2165 63.3861C74.9835 63.5608 74.6049 63.6773 74.1098 63.6773H71.6051C71.0517 63.6773 70.6731 63.59 70.4401 63.3861C70.2071 63.1822 70.0033 62.8036 69.8868 62.2211L65.3725 43.4359L60.8873 62.192C60.7417 62.7745 60.567 63.1531 60.334 63.357C60.101 63.5608 59.6932 63.6482 59.169 63.6482H56.6643ZM94.0892 64.4346C92.5747 64.4346 91.0602 64.2598 89.604 63.9103C88.1478 63.5608 87.0119 63.1822 86.2547 62.7454C85.7887 62.4832 85.4683 62.192 85.3518 61.9299C85.2353 61.6678 85.1771 61.3765 85.1771 61.1144V59.6291C85.1771 59.0174 85.4101 58.7262 85.847 58.7262C86.0217 58.7262 86.1965 58.7553 86.3712 58.8136C86.5459 58.8718 86.8081 58.9883 87.0993 59.1048C88.0895 59.5417 89.1671 59.8912 90.303 60.1242C91.468 60.3572 92.6038 60.4737 93.7688 60.4737C95.6036 60.4737 97.0307 60.1533 98.021 59.5126C99.0112 58.8718 99.5354 57.9398 99.5354 56.7457C99.5354 55.9302 99.2733 55.2604 98.7491 54.707C98.2248 54.1537 97.2346 53.6585 95.8075 53.1926L91.5845 51.882C89.4584 51.2121 87.8857 50.2219 86.9246 48.9113C85.9635 47.6298 85.4683 46.2027 85.4683 44.6882C85.4683 43.465 85.7305 42.3874 86.2547 41.4554C86.7789 40.5234 87.4779 39.7079 88.3517 39.0672C89.2254 38.3973 90.2156 37.9022 91.3806 37.5527C92.5456 37.2032 93.7688 37.0576 95.0503 37.0576C95.691 37.0576 96.3609 37.0867 97.0016 37.1741C97.6715 37.2615 98.2831 37.378 98.8947 37.4945C99.4772 37.6401 100.031 37.7857 100.555 37.9605C101.079 38.1352 101.487 38.31 101.778 38.4847C102.186 38.7177 102.477 38.9507 102.652 39.2128C102.827 39.4458 102.914 39.7662 102.914 40.1739V41.5428C102.914 42.1544 102.681 42.4748 102.244 42.4748C102.011 42.4748 101.632 42.3583 101.137 42.1253C99.4772 41.368 97.6132 40.9894 95.5454 40.9894C93.8853 40.9894 92.5747 41.2515 91.6718 41.8049C90.769 42.3583 90.303 43.2029 90.303 44.397C90.303 45.2125 90.5942 45.9114 91.1767 46.4648C91.7592 47.0182 92.8368 47.5715 94.3804 48.0667L98.5161 49.3773C100.613 50.0471 102.128 50.9791 103.03 52.1732C103.933 53.3673 104.37 54.7361 104.37 56.2506C104.37 57.503 104.108 58.6388 103.613 59.6291C103.089 60.6193 102.39 61.493 101.487 62.192C100.584 62.9201 99.5063 63.4444 98.254 63.823C96.9434 64.2307 95.5745 64.4346 94.0892 64.4346Z" fill="white"/>
<path fill-rule="evenodd" clip-rule="evenodd" d="M99.5914 78.5896C90.0095 85.6668 76.088 89.4239 64.1178 89.4239C47.3422 89.4239 32.2266 83.2204 20.8098 72.9103C19.907 72.0949 20.7224 70.9881 21.8 71.6289C34.1488 78.7935 49.3809 83.133 65.1372 83.133C75.7676 83.133 87.4465 80.9196 98.1934 76.3761C99.7953 75.648 101.164 77.4246 99.5914 78.5896Z" fill="white"/>
<path fill-rule="evenodd" clip-rule="evenodd" d="M103.583 74.0449C102.36 72.4722 95.4866 73.2877 92.3703 73.6663C91.4384 73.7828 91.2927 72.9673 92.1373 72.3557C97.6127 68.5113 106.612 69.618 107.661 70.8995C108.709 72.2101 107.369 81.2095 102.244 85.5199C101.457 86.1898 100.7 85.8403 101.049 84.9666C102.214 82.0833 104.806 75.5885 103.583 74.0449Z" fill="white"/>
</svg>
