<svg width="228" height="182" viewBox="0 0 228 182" fill="none" xmlns="http://www.w3.org/2000/svg">
<g opacity="0.57">
<path fill-rule="evenodd" clip-rule="evenodd" d="M71.4127 44.9187C46.4637 63.4776 -14.1446 73.5629 3.01364 116.238C18.8356 155.59 53.4943 163.259 121.28 159.229C201.343 154.47 220.204 133.338 220.204 103.613C220.204 73.8879 201.343 54.5625 174.016 44.9187C146.688 35.2748 96.3617 26.3597 71.4127 44.9187Z" fill="#9595EF"/>
</g>
<path d="M18.2492 146.415L76.5581 178.452C79.997 180.311 84.1455 180.318 87.5475 178.403L220.205 105.789C227.649 101.672 228.095 91.0892 220.977 86.3523L152.622 57.143C148.57 54.4359 143.295 54.6169 139.434 57.6227L16.8225 127.409C10.3163 132.42 11.0959 142.434 18.2492 146.415Z" fill="#EAE7FF" fill-opacity="0.3" stroke="black" stroke-width="2" stroke-miterlimit="10" stroke-linecap="round" stroke-linejoin="round" stroke-dasharray="8 8"/>
<path d="M226.033 82.9315L226.14 66.8623L205.404 67.6172L157.685 39.9005C151.168 36.1259 143.143 36.1259 136.626 39.8466L39.3556 95.7114L5.10101 104.231L4.99329 119.653C4.99329 122.134 6.23206 124.614 8.70959 126.07L71.6175 162.199C78.0268 165.866 85.8902 165.92 92.2995 162.361L222.316 90.373C225.171 88.8092 226.41 85.7895 226.033 82.9315Z" fill="white" stroke="black" stroke-width="2" stroke-miterlimit="10" stroke-linejoin="round"/>
<path d="M226.033 83.4169L226.14 67.3476L205.404 68.1026L157.685 40.3859C151.168 36.6112 143.143 36.6112 136.626 40.3319L39.3556 96.1968L5.10101 104.717L4.99329 120.139C4.99329 122.619 6.23206 125.1 8.70959 126.556L71.6175 162.685C78.0268 166.351 85.8902 166.405 92.2995 162.846L222.316 90.8583C225.171 89.2945 226.41 86.2748 226.033 83.4169Z" fill="white" stroke="black" stroke-width="2" stroke-miterlimit="10" stroke-linejoin="round"/>
<path d="M136.734 23.8314L8.8175 97.2214C3.86243 100.025 3.86243 107.143 8.8175 110.001L71.7254 146.13C78.1347 149.797 85.9982 149.851 92.4075 146.292L222.424 74.3039C227.433 71.5538 227.487 64.3819 222.532 61.4701L157.793 23.9393C151.276 20.1107 143.251 20.1107 136.734 23.8314Z" fill="white" stroke="black" stroke-width="2" stroke-miterlimit="10" stroke-linejoin="round"/>
<path d="M139.642 32.8904L34.7238 91.9907C31.0074 94.1476 31.0074 99.54 34.7238 101.697L82.3894 129.09C87.2368 131.894 93.1613 131.948 98.0625 129.198L203.95 69.9359C207.72 67.8329 207.774 62.3866 204.058 60.2297L155.584 32.9444C150.683 30.0325 144.597 30.0325 139.642 32.8904Z" fill="#9595EF"/>
<path d="M55.1904 123.59C51.9049 125.531 46.7344 125.585 43.1797 123.59C39.625 121.595 39.1402 119.006 42.5334 117.065C45.9265 115.124 50.8816 114.854 54.3825 116.796C57.8833 118.737 58.4758 121.595 55.1904 123.59Z" fill="white" stroke="black" stroke-width="2" stroke-miterlimit="10" stroke-linecap="round" stroke-linejoin="round"/>
<path d="M115.082 66.6467C114.113 67.1859 113.412 67.6712 112.928 68.0487C112.497 68.48 112.012 68.9114 111.527 69.4507C111.42 69.6124 111.204 69.7742 111.043 69.8821C110.773 70.0438 110.45 70.0978 109.965 70.1517C109.158 70.1517 108.727 70.1517 107.919 70.1517C107.649 70.1517 107.434 70.0978 107.272 70.0438C107.111 69.936 107.111 69.7742 107.165 69.5585C107.326 69.1811 107.596 68.8575 107.865 68.48C108.134 68.1026 108.511 67.7251 108.942 67.2937C106.195 67.5634 103.179 67.9408 100.702 66.377C99.3551 65.5143 98.8704 64.4358 99.3551 63.1955C99.8399 61.9553 101.132 60.6611 103.287 59.4748C105.549 58.1806 107.865 57.5336 110.181 57.4796C112.497 57.4257 114.49 57.965 116.052 59.0434C116.59 59.4209 117.021 59.7984 117.452 60.2297C117.883 60.6611 118.26 61.1464 118.583 61.6857C119.337 61.2543 119.714 61.0925 120.414 60.6611C122.299 59.6366 123.376 58.7738 123.646 58.0728C123.915 57.3718 123.43 56.6708 122.245 55.9159C121.707 55.5384 121.06 55.2688 120.253 54.9452C119.445 54.6756 118.583 54.406 117.721 54.1903C117.29 54.0825 117.021 54.0285 116.859 53.9746C116.698 53.9207 116.59 53.8668 116.536 53.8128C116.321 53.6511 116.429 53.4354 116.913 53.2197C117.344 53.004 117.56 52.8422 118.044 52.6265C118.421 52.4648 118.691 52.303 118.96 52.303C119.175 52.303 119.499 52.303 119.876 52.3569C120.845 52.5187 121.922 52.8422 122.946 53.2197C124.023 53.5971 124.992 54.0285 125.854 54.5678C127.739 55.7002 128.439 56.7786 128.008 57.965C127.578 59.1513 126.016 60.4454 123.269 61.9553C120.576 63.5191 117.829 65.0829 115.082 66.6467ZM104.957 64.8132C105.495 65.1368 106.141 65.4064 107.057 65.6221C107.919 65.7839 108.996 65.7839 110.181 65.6221C110.935 65.5143 111.635 65.2986 112.389 65.0289C113.089 64.7593 113.951 64.3279 114.813 63.8426C115.244 63.573 115.459 63.4652 115.89 63.2495C115.621 62.872 115.351 62.4406 114.974 62.0631C114.597 61.6857 114.166 61.3621 113.736 61.0386C112.712 60.3376 111.581 60.0141 110.396 60.068C109.211 60.1219 107.919 60.4994 106.572 61.2543C105.334 61.9553 104.579 62.6024 104.31 63.2495C103.987 63.7887 104.256 64.3819 104.957 64.8132ZM114.22 74.3577C113.951 74.196 113.843 74.0342 113.897 73.8724C113.951 73.7106 114.166 73.441 114.597 73.1175C119.876 68.6418 125.208 64.1662 130.647 59.7984C131.025 59.4748 131.294 59.313 131.455 59.2052C131.832 58.9895 132.156 58.9895 132.371 59.0974C132.91 59.4209 133.233 59.5827 133.771 59.9601C134.041 60.1219 134.148 60.2837 134.095 60.4454C134.095 60.6072 133.825 60.8229 133.448 61.1464C128.709 64.7593 123.969 68.4801 119.337 72.2547C125.585 69.4507 131.779 66.6466 138.026 63.8965C138.565 63.6809 138.996 63.5191 139.265 63.5191C139.534 63.5191 139.804 63.573 140.073 63.7348C140.558 64.0044 140.773 64.1122 141.258 64.4358C141.527 64.5976 141.635 64.7593 141.581 64.9211C141.527 65.0829 141.312 65.3525 140.881 65.6221C136.033 69.4507 131.294 73.3332 126.608 77.2696C133.071 74.3577 139.534 71.4458 145.997 68.5879C146.59 68.3183 147.021 68.2104 147.29 68.1565C147.559 68.1565 147.883 68.2104 148.206 68.3722C148.798 68.6957 149.121 68.9114 149.768 69.235C150.037 69.3968 149.983 69.6124 149.552 69.8821C149.444 69.936 149.283 70.0438 149.121 70.0978C148.96 70.2056 148.69 70.3135 148.367 70.4213C140.665 73.6028 132.963 76.8382 125.262 80.0736C124.669 80.2893 124.292 80.4511 124.023 80.4511C123.753 80.4511 123.484 80.3972 123.215 80.2354C122.676 79.9118 122.407 79.7501 121.868 79.3726C121.599 79.2108 121.438 78.9951 121.491 78.8334C121.545 78.6716 121.761 78.402 122.192 78.0245C126.716 74.1959 131.294 70.4752 135.926 66.8084C129.84 69.5585 123.753 72.3086 117.667 75.0587C117.075 75.3283 116.698 75.4362 116.375 75.4901C116.105 75.544 115.782 75.4362 115.513 75.2744C114.974 74.843 114.705 74.6813 114.22 74.3577ZM133.933 87.5151C133.017 86.9758 132.209 86.3288 131.617 85.6277C131.025 84.9267 130.647 84.3336 130.594 83.8483C130.54 83.5247 130.594 83.309 130.755 83.0933C130.917 82.9316 131.078 82.7698 131.294 82.608C131.779 82.2845 131.994 82.1227 132.533 81.8531C133.017 81.5296 133.394 81.4756 133.664 81.6374C133.771 81.6913 133.825 81.7992 133.879 81.8531C133.933 81.9609 133.987 82.1227 134.041 82.2845C134.256 82.8776 134.579 83.4169 135.118 83.9561C135.603 84.4953 136.195 84.9807 136.949 85.4121C138.08 86.1131 139.265 86.4905 140.45 86.5445C141.635 86.5984 142.766 86.3288 143.789 85.7356C144.489 85.3042 144.866 84.8728 145.028 84.3875C145.136 83.9022 144.92 83.2551 144.382 82.4463C143.735 81.5296 143.412 81.0442 142.874 80.1275C142.12 78.9951 142.066 77.8628 142.658 76.7843C143.197 75.7597 144.166 74.7891 145.513 73.9803C146.59 73.3332 147.721 72.7939 148.852 72.4704C149.983 72.1469 151.168 71.9312 152.299 71.8772C153.484 71.8233 154.561 71.8772 155.638 72.0929C156.715 72.3086 157.739 72.6861 158.601 73.1714C159.031 73.441 159.516 73.7106 159.893 73.9803C160.27 74.3038 160.647 74.6273 160.97 74.897C161.24 75.2205 161.563 75.544 161.778 75.8676C161.994 76.1911 162.155 76.4607 162.209 76.6764C162.317 77 162.263 77.2157 162.155 77.4853C162.048 77.701 161.832 77.9167 161.401 78.1324C160.863 78.4559 160.593 78.6177 160.055 78.8873C159.462 79.2108 158.978 79.3187 158.654 79.103C158.493 78.9951 158.331 78.7795 158.17 78.4559C157.685 77.3235 156.662 76.3529 155.261 75.544C154.13 74.8969 152.999 74.5734 151.922 74.5195C150.845 74.4656 149.768 74.7891 148.69 75.4362C147.936 75.8676 147.506 76.3529 147.398 76.8921C147.29 77.4314 147.452 78.1324 147.99 78.9952C148.583 79.9119 148.906 80.3972 149.552 81.3678C150.36 82.5541 150.629 83.7404 150.198 84.711C149.768 85.7356 148.852 86.5984 147.559 87.4072C146.482 88.0543 145.297 88.4857 144.112 88.8092C142.927 89.0789 141.689 89.2406 140.558 89.2406C139.373 89.2406 138.242 89.0789 137.111 88.8092C135.872 88.4318 134.849 88.0543 133.933 87.5151Z" fill="white"/>
<path d="M126.824 96.089C116.913 95.5497 106.842 93.5546 98.4934 88.4857C90.6838 83.7405 83.8436 76.8383 86.375 66.7006C86.5366 65.9457 88.0985 65.6761 88.1524 66.431C89.1757 75.6519 96.0159 81.9071 103.341 86.3827C110.558 90.8045 119.122 93.0153 127.524 94.687C129.032 94.9027 128.655 96.1429 126.824 96.089Z" fill="white"/>
<path d="M132.694 95.5497C131.725 93.231 127.955 92.2064 125.854 91.2897C125.208 91.0201 125.693 90.5887 126.662 90.5887C130.055 90.5887 136.303 92.2065 137.811 95.7115C134.633 98.893 128.062 99.9175 123.754 99.9175C122.838 99.9175 122.569 99.54 123.377 99.2704C126.447 98.4077 130.217 97.7066 132.694 95.5497Z" fill="white"/>
<path d="M76.9209 29.2597C75.4503 28.3272 73.9307 27.591 72.264 27.0512C69.764 17.8244 63.4404 8.89217 55.5972 3.78802C51.1854 0.892392 46.4304 0.892394 42.6559 2.95369H42.6069C42.5578 2.95369 42.5578 3.00276 42.5088 3.00276L32.6068 8.54862L36.5774 9.67742C36.1852 10.5608 35.8911 11.4933 35.695 12.4749C35.2538 12.1804 34.7637 11.8859 34.3225 11.5915C30.646 9.38295 26.8224 9.48111 23.9302 11.2479L13.8811 16.8919L19.2243 19.6894C19.2243 19.9839 19.2243 20.2784 19.2243 20.5728C19.4694 30.2413 25.9891 41.5784 34.3225 46.7316C47.5089 54.3387 60.7443 61.8477 74.0287 69.2095C74.3228 69.3567 74.617 69.553 74.9601 69.6512L72.264 71.6143L73.2444 75.0007L83.7347 70.0438C87.4112 68.5224 90.1563 64.9397 90.8426 60.2282C92.3622 49.1855 86.4308 35.3454 76.9209 29.2597Z" fill="#9595EF" stroke="black" stroke-width="2" stroke-miterlimit="10" stroke-linejoin="round"/>
<path d="M68.7345 33.6278C67.2639 32.6953 65.7443 31.9592 64.0776 31.4193C61.5776 22.1926 55.254 13.2603 47.4108 8.15615C39.0283 2.70845 29.5184 7.61629 27.5086 16.8921C27.0674 16.5976 26.5772 16.3032 26.1361 16.0087C18.8321 11.5426 10.7928 16.4995 10.9889 24.99C11.234 34.6585 17.7536 45.9956 26.087 51.1488C39.2734 58.756 52.5088 66.2649 65.7933 73.6267C73.4894 77.8965 81.3817 73.0378 82.6072 64.5963C84.1758 53.5046 78.2444 39.6645 68.7345 33.6278Z" fill="white" stroke="black" stroke-width="2" stroke-miterlimit="10" stroke-linejoin="round"/>
</svg>
