<svg width="120" height="120" viewBox="0 0 120 120" fill="none" xmlns="http://www.w3.org/2000/svg">
<path d="M65.6719 95.8395L66.0836 95.7656L70.7482 94.9289L70.8365 95.4211L82.4979 93.3293L82.4097 92.8372L86.4337 92.1154L84.5732 89.8677L84.9584 89.5489L78.9618 82.3042L78.5766 82.623L76.1788 79.7261C75.3746 78.7591 74.5714 77.7914 73.7691 76.8228L74.1542 76.5038C72.1492 74.0831 70.1504 71.6571 68.1576 69.226L67.771 69.543C66.9737 68.5703 66.1774 67.5968 65.3821 66.6225L65.2694 66.4845V66.3063C65.2694 66.2675 65.2741 66.2374 65.2755 66.2285C65.2758 66.2269 65.276 66.2253 65.2763 66.2238C65.2781 66.2129 65.2799 66.2043 65.281 66.1991C65.2815 66.1969 65.282 66.1948 65.2825 66.1928C65.2845 66.184 65.2863 66.1772 65.2872 66.1739C65.2887 66.1684 65.2901 66.1634 65.2913 66.1596L65.6719 95.8395ZM65.6719 95.8395V95.8441M65.6719 95.8395V95.8441M65.6719 95.8441L61.4642 96.5988L61.5525 97.0909L50.0041 99.1623L49.9158 98.6701L45.2964 99.4987L45.3846 100.491L49.1966 100.491L49.1967 99.9913L58.7266 99.9926L58.7265 100.493L66.3504 100.494L66.3505 99.9936L75.8804 99.9949L75.8803 100.495L79.6923 100.495L83.5043 100.496L83.5043 99.9959L93.0342 99.9972L93.0342 100.497L100.658 100.498L100.658 99.9982L110.188 99.9995L110.188 100.499L114 100.5L114.857 100.5L114.435 99.7539L114.404 99.6988L114 99.9273L114 99.7455L114.326 99.5611L114.295 99.506L114.295 99.5051L112.24 95.8879L111.805 96.1348L106.667 87.0918L107.102 86.8448L102.992 79.6104L102.558 79.8574L97.4202 70.8143L97.8549 70.5673L95.8 66.9501L95.3653 67.1971L95.8 66.9501C95.1071 65.7307 94.4275 64.5348 93.7622 63.3643L93.3275 63.6114C91.5136 60.4202 89.8063 57.4184 88.2293 54.6472L88.6639 54.3999C87.1829 51.7976 85.8168 49.3985 84.585 47.2369L84.1505 47.4844C82.0051 43.7195 80.2671 40.6749 79.0397 38.531L79.4736 38.2826C78.8111 37.1254 78.297 36.2301 77.9477 35.6252C77.7732 35.323 77.6393 35.0924 77.5484 34.9376C77.5031 34.8606 77.4675 34.8005 77.4424 34.7592C77.4303 34.7393 77.4183 34.7199 77.4081 34.704C77.404 34.6978 77.3946 34.6833 77.3829 34.6677L77.3826 34.6672C77.3787 34.662 77.361 34.6381 77.3352 34.6121L77.3344 34.6112C77.326 34.6027 77.2791 34.5548 77.2054 34.5175C77.1701 34.4997 77.0627 34.4493 76.9177 34.4673C76.7425 34.4891 76.6145 34.5953 76.5457 34.7145L76.5457 34.7145C76.5355 34.7323 76.5286 34.7469 76.5265 34.7513C76.5249 34.7547 76.5235 34.7579 76.5223 34.7605L65.6719 95.8441ZM75.7281 38.4293C74.9219 40.6749 73.8033 43.7974 72.6058 47.1436L72.135 46.9751C71.3159 49.2641 70.4598 51.6578 69.6416 53.9471L70.1124 54.1154C68.9163 57.462 67.8011 60.5856 67.0003 62.833L66.5293 62.6652C66.1516 63.7251 65.8438 64.5904 65.6304 65.1925C65.5237 65.4935 65.4404 65.7291 65.3838 65.8905C65.3555 65.9711 65.3336 66.0339 65.3186 66.0775C65.3161 66.0847 65.3137 66.0916 65.3115 66.098C65.3072 66.1108 65.3034 66.1219 65.3004 66.1311C65.2982 66.1376 65.2955 66.1458 65.2931 66.1538L75.7281 38.4293ZM75.7281 38.4293L75.2575 38.2603M75.7281 38.4293L75.2575 38.2603M47.2182 52.1436L47.2852 52.0865L50.2123 49.5917L50.5367 49.9722L57.8546 43.7352L57.5303 43.3547L60.4575 40.8599L60.4575 40.8598L63.3943 38.3583L63.7184 38.739C66.6513 36.2412 69.2224 34.0527 71.0598 32.4906L70.736 32.1096C71.6492 31.3333 72.3814 30.7114 72.8868 30.2831C73.1395 30.0689 73.3358 29.9029 73.4698 29.79C73.5367 29.7337 73.5888 29.69 73.6248 29.6601C73.6426 29.6453 73.6577 29.6328 73.6692 29.6235C73.6745 29.6191 73.6813 29.6136 73.688 29.6084C73.6909 29.6062 73.6974 29.6012 73.7053 29.5955C73.7088 29.5929 73.7172 29.5869 73.7281 29.5799C73.7334 29.5765 73.7433 29.5702 73.7562 29.5631L73.7564 29.5629C73.7646 29.5584 73.7959 29.541 73.839 29.5264L74.7127 29.2306L74.4836 30.1242C74.4706 30.1749 74.4563 30.2252 74.4405 30.275L74.0508 30.1521L74.1596 30.4736C74.2025 30.4591 74.2337 30.4418 74.2418 30.4373L74.242 30.4371C74.2436 30.4362 74.2452 30.4354 74.2466 30.4345C74.2571 30.4286 74.2651 30.4235 74.2696 30.4206C74.2709 30.4198 74.2721 30.419 74.2733 30.4182C74.2819 30.4126 74.2881 30.4081 74.2906 30.4063C74.2971 30.4016 74.3016 30.3981 74.302 30.3978C74.3038 30.3964 74.3035 30.3966 74.2997 30.3996L74.2643 30.4289C74.2309 30.4566 74.1811 30.4984 74.1152 30.5539L74.2973 30.6401C74.2774 30.6822 74.2565 30.7238 74.2345 30.7649L72.6514 34.2121L72.1971 34.0034L68.2228 42.6574L68.6772 42.8661L65.4978 49.7893L65.0434 49.5807L61.0692 58.2347L61.5235 58.4434L59.9339 61.905L58.3728 65.3043L57.9184 65.0957L54.0158 73.5941L54.4701 73.8027L51.348 80.6015L50.8936 80.3928L46.991 88.8912L47.4454 89.0999L45.8843 92.4992L45.7507 92.7902L45.4306 92.7906L43.1606 92.7937L43.1599 92.2937L37.485 92.3013L37.4856 92.8013L35.2158 92.8044C34.4358 92.8056 33.6754 92.8066 32.9442 92.8072L32.9438 92.3072C30.6751 92.309 28.6877 92.3076 27.2682 92.3039L27.2669 92.8039C26.5581 92.802 25.99 92.7995 25.5988 92.7965C25.4035 92.795 25.2509 92.7933 25.1465 92.7915C25.0949 92.7906 25.0523 92.7897 25.0214 92.7886C25.007 92.788 24.9896 92.7873 24.9735 92.7861C24.9674 92.7857 24.95 92.7844 24.9296 92.7814L24.9292 92.7813C24.9217 92.7802 24.8933 92.776 24.8588 92.7658C24.8449 92.7617 24.7983 92.7478 24.7451 92.7163L24.744 92.7156C24.7226 92.7031 24.5024 92.5747 24.5 92.2906H24.5V92.2896H24.5C24.5 92.2887 24.5 92.2879 24.5 92.287L47.2182 52.1436ZM47.2182 52.1436L47.1748 52.22L44.6626 56.6413L45.0973 56.8883L38.8169 67.9415L38.3822 67.6945L35.87 72.1157C35.0059 73.6364 34.1636 75.119 33.3538 76.5447L33.7885 76.7917C31.2755 81.2159 29.075 85.0925 27.5045 87.8622M47.2182 52.1436L27.5045 87.8622M27.5045 87.8622L27.0696 87.6155C26.287 88.9955 25.6608 90.1008 25.2302 90.8622C25.0149 91.2429 24.8483 91.5378 24.7355 91.7382C24.6792 91.8383 24.636 91.9153 24.6067 91.9677L24.5723 92.0298L24.5606 92.0516C24.559 92.0545 24.5558 92.0607 24.5522 92.0679C24.551 92.0703 24.548 92.0764 24.5444 92.0846C24.5435 92.0865 24.5426 92.0885 24.5417 92.0906C24.5396 92.0955 24.5342 92.1079 24.5285 92.1241C24.5256 92.1326 24.5191 92.1538 24.5156 92.1667C24.5109 92.187 24.5023 92.2452 24.5002 92.286H24.5L27.5045 87.8622ZM76.5131 34.7822L76.5197 34.7664L76.5131 34.7822ZM76.5131 34.7822L76.5045 34.804M76.5131 34.7822L76.5045 34.804M76.5045 34.804C76.4991 34.8181 76.4922 34.8366 76.484 34.8585M76.5045 34.804L76.484 34.8585M76.484 34.8585C76.4676 34.9028 76.4444 34.9662 76.4149 35.047M76.484 34.8585L76.4149 35.047M76.4149 35.047C76.3558 35.2091 76.2706 35.4446 76.1622 35.7448M76.4149 35.047L76.1622 35.7448M76.1622 35.7448C75.9455 36.3453 75.6359 37.2064 75.2575 38.2603M76.1622 35.7448L75.2575 38.2603M66.1719 96.2614V96.2588H66.1712L66.1717 96.2614H66.1719Z" fill="#F7F7FE" stroke="black" stroke-dasharray="8 10"/>
<path d="M47.1719 85.3112L68.1625 81.5999L68.357 81.5546L57.5632 68.7006C53.9455 64.4129 50.3475 60.1085 46.7694 55.7877C46.7694 55.7243 57.9159 25.0013 57.9792 24.8927C57.9973 24.8565 65.5851 37.964 76.3653 56.6657L94.8598 88.7556L95 89L60.6924 88.9955L26.3847 88.9909L47.1719 85.3158V85.3112ZM6 81.4007C6 81.3826 11.0871 72.5432 17.3047 61.7576L28.6095 42.1461L41.7818 31.0798C49.0259 24.9968 54.9722 20.0091 54.9993 20C54.9509 20.1862 54.8795 20.3656 54.7868 20.5341L40.4795 51.2435L26.4299 81.4007L16.215 81.4143C10.5988 81.4234 6 81.4143 6 81.3962V81.4007Z" fill="#0089D6"/>
</svg>
