<svg xmlns="http://www.w3.org/2000/svg" width="88" height="88" viewBox="0 0 88 88">
    <g fill="none" fill-rule="evenodd" transform="translate(.25)">
        <path fill="#846CED" fill-opacity=".08" stroke="#000" stroke-dasharray="8" stroke-linecap="round" stroke-linejoin="round" d="M15 15c0-5 15-11 36-11s36 7 36 11c0 2.667-4.333 24-13 64-3.333 5.333-11 8-23 8s-20.333-2.667-25-8c-7.333-39.333-11-60.667-11-64z"/>
        <path fill="#FFF" d="M7 52l59-2-4 12-36 8-16-12z"/>
        <ellipse cx="36.5" cy="10.5" fill="#FFF" rx="23.5" ry="5.5"/>
        <g fill="#205081" fill-rule="nonzero">
            <path d="M36.5 0C16.46 0 0 5.325 0 12.071c0 1.775 4.294 26.982 6.083 36.923C6.8 53.61 18.608 60 36.5 60c17.892 0 29.343-6.39 30.417-11.006C68.706 39.054 73 13.846 73 12.071 72.642 5.325 56.54 0 36.5 0zm0 51.834c-6.441 0-11.451-4.97-11.451-11.36 0-6.391 5.01-11.361 11.451-11.361 6.441 0 11.451 4.97 11.451 11.36 0 6.036-5.01 11.361-11.451 11.361zm0-36.213c-12.882 0-23.26-2.13-23.26-4.97s10.378-4.97 23.26-4.97c12.882 0 23.26 2.13 23.26 4.97s-10.378 4.97-23.26 4.97z"/>
            <path d="M62.152 58c-.709 0-1.063.357-1.063.357S52.23 65.5 36.285 65.5c-15.946 0-24.804-7.143-24.804-7.143S10.77 58 10.417 58C9.71 58 9 58.357 9 59.429v.357c1.418 7.5 2.48 12.857 2.48 13.571C12.545 78.714 23.175 83 35.93 83c12.757 0 23.387-4.286 24.45-9.643 0-.714 1.064-6.072 2.481-13.571v-.357c.354-.715 0-1.429-.709-1.429z"/>
            <circle cx="36.5" cy="40.5" r="5.5"/>
        </g>
    </g>
</svg>
