<svg width="120" height="120" viewBox="0 0 120 120" fill="none" xmlns="http://www.w3.org/2000/svg">
<path d="M62.6064 24.9385C70.1029 24.9385 73.19 27.3641 75.3952 28.9077C77.6003 30.4513 81.1295 33.759 83.7757 39.0513C87.0834 45.6667 86.8629 50.0769 85.9808 53.6051C85.0987 57.1333 83.7757 61.5436 82.0116 64.1897L87.7449 68.6C92.3895 72.5692 93.2842 74.8229 94.5946 77.4205C96.1519 80.5077 97.6818 84.4769 96.7997 90.2102C96.1023 94.7436 92.3022 100.354 90.8321 103H36.5859V48.7539C36.5869 44.7846 40.3484 35.5231 44.0834 31.9949C45.2849 30.8598 50.6978 24.9385 62.6064 24.9385Z" fill="#F7F7FE" stroke="black" stroke-dasharray="8 10"/>
<path fill-rule="evenodd" clip-rule="evenodd" d="M26 42.2307C26 28.2962 37.2962 17 51.2307 17C57.9299 17 64.0193 19.6109 68.5368 23.8707C71.1079 26.1163 73.11 28.9568 74.4188 32.2693C75.7333 35.3253 76.4615 38.693 76.4615 42.2307C76.4615 46.035 75.2677 49.6425 73.76 52.8772C73.0763 54.2241 72.5306 55.0681 71.4552 56.2513C79.418 60.4319 85.212 70.0365 85.212 80.1151C85.212 85.89 83.7448 91.2185 80.7113 95.5025H73.3379C76.8085 91.3727 78.8981 86.0497 78.8981 80.2401C78.8981 68.1794 70.0811 59.3858 58.2211 56.671L54.4442 55.733C54.4442 55.733 48.0231 54.1234 47.9516 54.1056C41.2055 52.4303 37.1017 45.6189 38.7855 38.8921C40.4693 32.1653 47.3031 28.0702 54.0492 29.7456C60.7954 31.421 64.8992 38.2323 63.2153 44.9591C62.7585 46.7842 61.9225 48.4156 60.8121 49.7906L58.207 47.8352L60.3987 55.866L64.8893 55.8042L68.7531 55.7509L66.4674 54.0353C68.1321 51.9248 69.3868 49.4377 70.0811 46.6642C72.7113 36.1564 66.3009 25.5165 55.7629 22.8995C45.225 20.2824 34.55 26.6792 31.9198 37.187C29.5823 46.5252 34.3848 55.9676 42.879 59.7908C35.8903 63.9365 31.2075 71.543 31.2075 80.2401C31.2075 83.9607 32.0645 87.4818 33.5924 90.6176L29.9268 92.6415L40.813 94.3188L45.1538 84.2343L40.9737 86.5423C40.1064 84.6189 39.624 82.4857 39.624 80.2401C39.624 71.7433 46.5317 64.8553 55.0528 64.8553C63.5739 64.8553 70.4816 71.7433 70.4816 80.2401C70.4816 88.0765 64.6059 94.5445 57.0077 95.5025H26V42.2307Z" fill="#15100C"/>
</svg>
