<svg width="735" height="1273" viewBox="0 0 735 1273" fill="none" xmlns="http://www.w3.org/2000/svg">
<path opacity="0.35" d="M1106.46 447.578C969 318.867 946.269 194.804 636.407 224.199C348.71 251.494 202.562 420.635 392.827 775.587C560.704 1088.76 841.927 1137.6 1039.81 1029.01C1138.75 974.723 1272.31 830.199 1283.29 715.457C1294.27 600.716 1174.61 511.387 1106.46 447.578" stroke="#979797"/>
<path d="M1001.66 516.091C911.891 432.037 897.047 351.018 694.694 370.214C506.814 388.039 411.373 498.496 535.625 730.295C645.256 934.81 828.907 966.707 958.133 895.794C1022.74 860.34 1109.97 765.959 1117.14 691.028C1124.3 616.097 1046.16 557.761 1001.66 516.091" stroke="#979797"/>
<path opacity="0.16808" fill-rule="evenodd" clip-rule="evenodd" d="M545.538 87.5626C170.556 123.139 -19.931 343.596 228.058 806.236C446.867 1214.42 813.41 1278.08 1071.33 1136.55C1200.28 1065.79 1374.37 877.417 1388.68 727.863C1402.98 578.311 1247.02 461.881 1158.2 378.713C979.035 210.953 949.408 49.2502 545.538 87.5626Z" stroke="#979797"/>
</svg>
