<svg width="120" height="120" viewBox="0 0 120 120" fill="none" xmlns="http://www.w3.org/2000/svg">
<path d="M48.8968 27.111L48.8974 27.111L52.9486 27.111V27.541H63.0765V27.111H71.1788V27.541H81.3067V27.111H85.3578H85.36C85.5877 27.1122 85.8145 27.1265 86.0392 27.1538L85.9874 27.5807C86.5104 27.6442 87.0215 27.7832 87.5046 27.9934L87.6761 27.599C87.8837 27.6894 88.0865 27.7918 88.2834 27.9062C88.4804 28.0205 88.6699 28.1459 88.8512 28.2814L88.5938 28.6258C89.0157 28.9413 89.3898 29.3163 89.7042 29.7391L90.0492 29.4825C90.1843 29.6642 90.3092 29.854 90.423 30.0512L90.0506 30.2662L90.423 30.0512L92.4475 33.558L92.0751 33.773L97.1363 42.5399L97.5087 42.3249L101.558 49.3385L101.185 49.5534L106.246 58.3204L106.619 58.1054L108.643 61.6122C108.758 61.8103 108.86 62.0144 108.95 62.2232L108.555 62.3936C108.765 62.8797 108.903 63.3938 108.964 63.9196L109.391 63.8697C109.418 64.0956 109.431 64.3235 109.431 64.5523C109.431 64.7812 109.418 65.0091 109.391 65.235L108.964 65.1851C108.903 65.7109 108.765 66.225 108.555 66.7111L108.95 66.8814C108.86 67.0903 108.758 67.2944 108.643 67.4925L106.619 70.9993L106.246 70.7843L101.185 79.5512L101.558 79.7662L97.5087 86.7798L97.1363 86.5648L92.0751 95.3317L92.4475 95.5467L90.423 99.0535C90.3088 99.2514 90.1834 99.4418 90.0478 99.6241L89.7029 99.3673C89.3872 99.7915 89.0115 100.167 88.5876 100.483L88.8446 100.828C88.6624 100.964 88.4721 101.089 88.2742 101.204C88.0764 101.318 87.8727 101.421 87.6642 101.511L87.4936 101.116C87.0083 101.326 86.495 101.464 85.97 101.526L86.0204 101.953C85.7949 101.98 85.5672 101.993 85.3387 101.994H85.3381H81.2881V101.564H71.1629V101.994H63.0628V101.564H52.9377V101.994H48.8876H48.8862C48.6581 101.993 48.4309 101.979 48.2058 101.952L48.2569 101.525C47.7329 101.462 47.2207 101.324 46.7365 101.114L46.5654 101.508C46.3574 101.418 46.1541 101.315 45.9567 101.201C45.7594 101.087 45.5694 100.961 45.3877 100.826L45.6449 100.481C45.222 100.165 44.8471 99.7899 44.5321 99.3665L44.1871 99.6231C44.0517 99.4412 43.9266 99.251 43.8125 99.0535L41.7881 95.5467L42.1605 95.3317L37.0992 86.5648L36.7268 86.7798L32.6779 79.7662L33.0503 79.5512L27.9891 70.7843L27.6167 70.9993L25.5922 67.4925C25.4778 67.2944 25.3754 67.0903 25.2853 66.8814L25.6801 66.7111C25.4704 66.225 25.3327 65.7109 25.2712 65.1851L24.8441 65.235C24.8177 65.0091 24.8044 64.7812 24.8044 64.5523C24.8044 64.3235 24.8177 64.0956 24.8441 63.8697L25.2712 63.9196C25.3327 63.3938 25.4704 62.8797 25.6801 62.3936L25.2853 62.2232C25.3754 62.0144 25.4778 61.8103 25.5922 61.6122M48.8968 27.111L25.5922 61.6122M48.8968 27.111C48.6683 27.1113 48.4407 27.125 48.2151 27.1516L48.2656 27.5787C47.7406 27.6407 47.2273 27.7788 46.742 27.9886L46.5714 27.5939C46.3629 27.6841 46.1592 27.7865 45.9613 27.9009C45.7635 28.0153 45.5731 28.1408 45.391 28.2765L45.648 28.6213C45.2241 28.9372 44.8484 29.3132 44.5327 29.7373L44.1878 29.4806C44.0521 29.6628 43.9268 29.8533 43.8125 30.0512L44.1849 30.2662L43.8125 30.0512L41.7881 33.558L42.1605 33.773L37.0992 42.5399L36.7268 42.3249L32.6779 49.3385L33.0503 49.5534L27.9891 58.3204L27.6167 58.1054L25.5922 61.6122M48.8968 27.111L25.9646 61.8272L25.5922 61.6122" fill="#F7F6FC" stroke="black" stroke-width="0.86" stroke-dasharray="8 10"/>
<path d="M29.9506 90.2975L11.7302 58.7365C11.2518 57.9079 11 56.9681 11 56.0113C11 55.0546 11.2518 54.1147 11.7302 53.2861L29.9506 21.7252C30.4283 20.8977 31.1151 20.2104 31.9422 19.7321C32.7693 19.2538 33.7076 19.0013 34.6631 19H71.1234C72.0755 19.0048 73.0098 19.2589 73.8331 19.737C74.6565 20.2151 75.3402 20.9006 75.8163 21.7252L94.0366 53.2861C94.515 54.1147 94.7668 55.0546 94.7668 56.0113C94.7668 56.9681 94.515 57.9079 94.0366 58.7365L75.8163 90.2975C75.3385 91.1249 74.6517 91.8122 73.8246 92.2905C72.9975 92.7688 72.0592 93.0213 71.1038 93.0226H34.6532C33.6995 93.0196 32.7632 92.7663 31.938 92.2881C31.1127 91.8099 30.4274 91.1235 29.9506 90.2975Z" fill="#4386FA"/>
<path opacity="0.1" d="M64.2647 45.8496C64.2647 45.8496 69.3314 57.9998 62.425 64.8865C55.5185 71.7733 42.9453 67.3658 42.9453 67.3658C42.9453 67.3658 61.6379 86.3043 68.5246 93.014H71.1219C72.0774 93.0126 73.0157 92.7601 73.8428 92.2818C74.6699 91.8035 75.3567 91.1162 75.8344 90.2888L87.8961 69.4023L64.2647 45.8496Z" fill="black"/>
</svg>
