<svg xmlns="http://www.w3.org/2000/svg" width="189" height="150" viewBox="0 0 189 150">
  <g fill="none" fill-rule="evenodd" transform="translate(0 1)">
    <path fill="#9595EF" d="M170.27167,59.1307322 C196.478705,81.2211425 191.115637,105.47311 178.754394,119.827675 C166.393152,134.182239 55.6984601,160.950677 23.9726814,141.65413 C-7.75309723,122.357583 -3.4868587,98.5476018 14.2771338,83.9835718 C27.4214701,73.2070244 60.9828444,38.1910325 88.6353017,38.0143171 C116.288368,37.8371095 143.059725,39.1653945 155.829145,49.9287903 L170.27167,59.1307322 Z" opacity=".565"/>
    <path fill="#FFF" d="M77,10 L77,27.8299945 C77,28.5130879 77.3613717,29.1464923 77.9536198,29.5011151 L92.0613813,37.6344254 C92.84541,38.1046406 93.8259742,38.122424 94.6274375,37.6809762 L108.982982,29.4896082 C109.611156,29.1444002 110,28.4911201 110,27.7823976 L110,10 L77,10 Z"/>
    <path stroke="#000" stroke-linejoin="round" stroke-width="2" d="M77,10 L77,27.8299945 C77,28.5130879 77.3613717,29.1464923 77.9536198,29.5011151 L92.0613813,37.6344254 C92.84541,38.1046406 93.8259742,38.122424 94.6274375,37.6809762 L108.982982,29.4896082 C109.611156,29.1444002 110,28.4911201 110,27.7823976 L110,10 L77,10 Z"/>
    <path fill="#FFF" d="M94.9012892,0.378395794 L109.267756,8.70529686 C110.244081,9.27069695 110.244081,10.7288918 109.267756,11.2948402 L94.9012892,19.6211929 C94.0306263,20.126269 92.96977,20.126269 92.0985788,19.6211929 L77.7326407,11.2948402 C76.7557864,10.7288918 76.7557864,9.27069695 77.7326407,8.70529686 L92.0985788,0.378395794 C92.96977,-0.126131931 94.0306263,-0.126131931 94.9012892,0.378395794"/>
    <path stroke="#000" stroke-linejoin="round" stroke-width="2" d="M94.9012892,0.378395794 L109.267756,8.70529686 C110.244081,9.27069695 110.244081,10.7288918 109.267756,11.2948402 L94.9012892,19.6211929 C94.0306263,20.126269 92.96977,20.126269 92.0985788,19.6211929 L77.7326407,11.2948402 C76.7557864,10.7288918 76.7557864,9.27069695 77.7326407,8.70529686 L92.0985788,0.378395794 C92.96977,-0.126131931 94.0306263,-0.126131931 94.9012892,0.378395794 Z"/>
    <g transform="translate(94 23)">
      <path fill="#FFF" d="M0.1804,0.498222222 L0.1804,9.556"/>
      <path stroke="#000" stroke-linejoin="round" stroke-width="2" d="M0.1804,0.498222222 L0.1804,9.556"/>
    </g>
    <path fill="#FFF" d="M77,59 L77,76.8299109 C77,77.5130011 77.3613717,78.1464026 77.9536198,78.5015468 L92.0613813,86.6348189 C92.84541,87.1045088 93.8259742,87.1222922 94.6274375,86.6813695 L108.982982,78.4895168 C109.611156,78.1443104 110,77.4910335 110,76.7823142 L110,59 L77,59 Z"/>
    <path stroke="#000" stroke-linejoin="round" stroke-width="2" d="M77,59 L77,76.8299109 C77,77.5130011 77.3613717,78.1464026 77.9536198,78.5015468 L92.0613813,86.6348189 C92.84541,87.1045088 93.8259742,87.1222922 94.6274375,86.6813695 L108.982982,78.4895168 C109.611156,78.1443104 110,77.4910335 110,76.7823142 L110,59 L77,59 Z"/>
    <path fill="#FFF" d="M94.9012892,50.3787993 L109.267756,58.7055291 C110.244081,59.2709176 110.244081,60.7290824 109.267756,61.2950193 L94.9012892,69.6212007 C94.0306263,70.1262664 92.96977,70.1262664 92.0985788,69.6212007 L77.7326407,61.2950193 C76.7557864,60.7290824 76.7557864,59.2709176 77.7326407,58.7055291 L92.0985788,50.3787993 C92.96977,49.8737336 94.0306263,49.8737336 94.9012892,50.3787993"/>
    <path stroke="#000" stroke-linejoin="round" stroke-width="2" d="M94.9012892,50.3787993 L109.267756,58.7055291 C110.244081,59.2709176 110.244081,60.7290824 109.267756,61.2950193 L94.9012892,69.6212007 C94.0306263,70.1262664 92.96977,70.1262664 92.0985788,69.6212007 L77.7326407,61.2950193 C76.7557864,60.7290824 76.7557864,59.2709176 77.7326407,58.7055291 L92.0985788,50.3787993 C92.96977,49.8737336 94.0306263,49.8737336 94.9012892,50.3787993 Z"/>
    <path stroke="#000" stroke-linecap="round" stroke-linejoin="round" stroke-width="2" d="M93.1804,73.0305882 L93.1804,82.001814"/>
    <path fill="#FFF" d="M34,34 L34,51.8299945 C34,52.5130879 34.3613717,53.1464923 34.9536198,53.5011151 L49.0613813,61.6344254 C49.84541,62.1046406 50.8259742,62.122424 51.6274375,61.6809762 L65.9829817,53.4896082 C66.6111556,53.1444002 67,52.4911201 67,51.7823976 L67,34 L34,34 Z"/>
    <path stroke="#000" stroke-linecap="round" stroke-linejoin="round" stroke-width="2" d="M34,34 L34,51.8299945 C34,52.5130879 34.3613717,53.1464923 34.9536198,53.5011151 L49.0613813,61.6344254 C49.84541,62.1046406 50.8259742,62.122424 51.6274375,61.6809762 L65.9829817,53.4896082 C66.6111556,53.1444002 67,52.4911201 67,51.7823976 L67,34 L34,34 Z"/>
    <path fill="#FFF" d="M51.9012892,24.3783958 L66.2677556,32.7052969 C67.2440815,33.2706969 67.2440815,34.7288918 66.2677556,35.2948402 L51.9012892,43.6211929 C51.0306263,44.126269 49.96977,44.126269 49.0985788,43.6211929 L34.7326407,35.2948402 C33.7557864,34.7288918 33.7557864,33.2706969 34.7326407,32.7052969 L49.0985788,24.3783958 C49.96977,23.8738681 51.0306263,23.8738681 51.9012892,24.3783958"/>
    <path stroke="#000" stroke-linecap="round" stroke-linejoin="round" stroke-width="2" d="M51.9012892,24.3783958 L66.2677556,32.7052969 C67.2440815,33.2706969 67.2440815,34.7288918 66.2677556,35.2948402 L51.9012892,43.6211929 C51.0306263,44.126269 49.96977,44.126269 49.0985788,43.6211929 L34.7326407,35.2948402 C33.7557864,34.7288918 33.7557864,33.2706969 34.7326407,32.7052969 L49.0985788,24.3783958 C49.96977,23.8738681 51.0306263,23.8738681 51.9012892,24.3783958 Z"/>
    <g transform="translate(50 48)">
      <path fill="#9595EF" d="M0.4338,0.0297647059 L0.4338,9.62035294"/>
      <path stroke="#000" stroke-linecap="round" stroke-linejoin="round" stroke-width="2" d="M0.4338,0.0297647059 L0.4338,9.62035294"/>
    </g>
    <path fill="#FFF" d="M121,34 L121,51.8299945 C121,52.5130879 121.3619,53.1464923 121.954148,53.5011151 L136.061381,61.6344254 C136.845938,62.1046406 137.826503,62.122424 138.627437,61.6809762 L152.982982,53.4896082 C153.611156,53.1444002 154,52.4911201 154,51.7823976 L154,34 L121,34 Z"/>
    <path stroke="#000" stroke-linejoin="round" stroke-width="2" d="M121,34 L121,51.8299945 C121,52.5130879 121.3619,53.1464923 121.954148,53.5011151 L136.061381,61.6344254 C136.845938,62.1046406 137.826503,62.122424 138.627437,61.6809762 L152.982982,53.4896082 C153.611156,53.1444002 154,52.4911201 154,51.7823976 L154,34 L121,34 Z"/>
    <path fill="#FFF" d="M138.901636,24.3783958 L153.267747,32.7052969 C154.244084,33.2706969 154.244084,34.7288918 153.267747,35.2948402 L138.901636,43.6211929 C138.030963,44.126269 136.970094,44.126269 136.098364,43.6211929 L121.732253,35.2948402 C120.755916,34.7288918 120.755916,33.2706969 121.732253,32.7052969 L136.098364,24.3783958 C136.970094,23.8738681 138.030963,23.8738681 138.901636,24.3783958"/>
    <path stroke="#000" stroke-linejoin="round" stroke-width="2" d="M138.901636,24.3783958 L153.267747,32.7052969 C154.244084,33.2706969 154.244084,34.7288918 153.267747,35.2948402 L138.901636,43.6211929 C138.030963,44.126269 136.970094,44.126269 136.098364,43.6211929 L121.732253,35.2948402 C120.755916,34.7288918 120.755916,33.2706969 121.732253,32.7052969 L136.098364,24.3783958 C136.970094,23.8738681 138.030963,23.8738681 138.901636,24.3783958 Z"/>
    <g transform="translate(138 48)">
      <path fill="#FFF" d="M0.2004,0.0297647059 L0.2004,9.62035294"/>
      <path stroke="#000" stroke-linejoin="round" stroke-width="2" d="M0.2004,0.0297647059 L0.2004,9.62035294"/>
    </g>
    <path fill="#FFF" d="M77,109 L77,126.829911 C77,127.513001 77.3613717,128.146403 77.9536198,128.501547 L92.0613813,136.634819 C92.84541,137.104509 93.8259742,137.122292 94.6274375,136.681369 L108.982982,128.489517 C109.611156,128.14431 110,127.491033 110,126.782314 L110,109 L77,109 Z"/>
    <path stroke="#000" stroke-linejoin="round" stroke-width="2" d="M77,109 L77,126.829911 C77,127.513001 77.3613717,128.146403 77.9536198,128.501547 L92.0613813,136.634819 C92.84541,137.104509 93.8259742,137.122292 94.6274375,136.681369 L108.982982,128.489517 C109.611156,128.14431 110,127.491033 110,126.782314 L110,109 L77,109 Z"/>
    <path fill="#FFF" d="M94.9012892,100.378396 L109.267756,108.705297 C110.244081,109.270697 110.244081,110.728892 109.267756,111.29484 L94.9012892,119.621193 C94.0306263,120.126269 92.96977,120.126269 92.0985788,119.621193 L77.7326407,111.29484 C76.7557864,110.728892 76.7557864,109.270697 77.7326407,108.705297 L92.0985788,100.378396 C92.96977,99.8738681 94.0306263,99.8738681 94.9012892,100.378396"/>
    <path stroke="#000" stroke-linejoin="round" stroke-width="2" d="M94.9012892,100.378396 L109.267756,108.705297 C110.244081,109.270697 110.244081,110.728892 109.267756,111.29484 L94.9012892,119.621193 C94.0306263,120.126269 92.96977,120.126269 92.0985788,119.621193 L77.7326407,111.29484 C76.7557864,110.728892 76.7557864,109.270697 77.7326407,108.705297 L92.0985788,100.378396 C92.96977,99.8738681 94.0306263,99.8738681 94.9012892,100.378396 Z"/>
    <g transform="translate(94 122)">
      <path fill="#FFF" d="M0.1804,0.137176471 L0.1804,9.72835294"/>
      <path stroke="#000" stroke-linejoin="round" stroke-width="2" d="M0.1804,0.137176471 L0.1804,9.72835294"/>
    </g>
    <path fill="#FFF" d="M34,84 L34,101.829948 C34,102.51304 34.3613717,103.146443 34.9536198,103.501588 L49.0613813,111.634354 C49.84541,112.104568 50.8259742,112.122351 51.6274375,111.681427 L65.9829817,103.489558 C66.6111556,103.144351 67,102.491072 67,101.782352 L67,84 L34,84 Z"/>
    <path stroke="#000" stroke-linejoin="round" stroke-width="2" d="M34,84 L34,101.829948 C34,102.51304 34.3613717,103.146443 34.9536198,103.501588 L49.0613813,111.634354 C49.84541,112.104568 50.8259742,112.122351 51.6274375,111.681427 L65.9829817,103.489558 C66.6111556,103.144351 67,102.491072 67,101.782352 L67,84 L34,84 Z"/>
    <path fill="#FFF" d="M51.9012892,75.3787993 L66.2677556,83.7049807 C67.2440815,84.2709176 67.2440815,85.7290824 66.2677556,86.2950193 L51.9012892,94.6212007 C51.0306263,95.1262664 49.96977,95.1262664 49.0985788,94.6212007 L34.7326407,86.2950193 C33.7557864,85.7290824 33.7557864,84.2709176 34.7326407,83.7049807 L49.0985788,75.3787993 C49.96977,74.8737336 51.0306263,74.8737336 51.9012892,75.3787993"/>
    <path stroke="#000" stroke-linejoin="round" stroke-width="2" d="M51.9012892,75.3787993 L66.2677556,83.7049807 C67.2440815,84.2709176 67.2440815,85.7290824 66.2677556,86.2950193 L51.9012892,94.6212007 C51.0306263,95.1262664 49.96977,95.1262664 49.0985788,94.6212007 L34.7326407,86.2950193 C33.7557864,85.7290824 33.7557864,84.2709176 34.7326407,83.7049807 L49.0985788,75.3787993 C49.96977,74.8737336 51.0306263,74.8737336 51.9012892,75.3787993 Z"/>
    <g transform="translate(50 98)">
      <path fill="#FFF" d="M0.4338,0.136294118 L0.4338,9.72688235"/>
      <path stroke="#000" stroke-linejoin="round" stroke-width="2" d="M0.4338,0.136294118 L0.4338,9.72688235"/>
    </g>
    <path fill="#FFF" d="M121,84 L121,101.829948 C121,102.51304 121.3619,103.146443 121.954148,103.501588 L136.061381,111.634354 C136.845938,112.104568 137.826503,112.122351 138.627437,111.681427 L152.982982,103.489558 C153.611156,103.144351 154,102.491072 154,101.782352 L154,84 L121,84 Z"/>
    <path stroke="#000" stroke-linejoin="round" stroke-width="2" d="M121,84 L121,101.829948 C121,102.51304 121.3619,103.146443 121.954148,103.501588 L136.061381,111.634354 C136.845938,112.104568 137.826503,112.122351 138.627437,111.681427 L152.982982,103.489558 C153.611156,103.144351 154,102.491072 154,101.782352 L154,84 L121,84 Z"/>
    <path fill="#FFF" d="M138.901636,75.3787993 L153.267747,83.7049807 C154.244084,84.2709176 154.244084,85.7290824 153.267747,86.2950193 L138.901636,94.6212007 C138.030963,95.1262664 136.970094,95.1262664 136.098364,94.6212007 L121.732253,86.2950193 C120.755916,85.7290824 120.755916,84.2709176 121.732253,83.7049807 L136.098364,75.3787993 C136.970094,74.8737336 138.030963,74.8737336 138.901636,75.3787993"/>
    <path stroke="#000" stroke-linejoin="round" stroke-width="2" d="M138.901636,75.3787993 L153.267747,83.7049807 C154.244084,84.2709176 154.244084,85.7290824 153.267747,86.2950193 L138.901636,94.6212007 C138.030963,95.1262664 136.970094,95.1262664 136.098364,94.6212007 L121.732253,86.2950193 C120.755916,85.7290824 120.755916,84.2709176 121.732253,83.7049807 L136.098364,75.3787993 C136.970094,74.8737336 138.030963,74.8737336 138.901636,75.3787993 Z"/>
    <g transform="translate(138 98)">
      <path fill="#FFF" d="M0.2004,0.136294118 L0.2004,9.72688235"/>
      <path stroke="#000" stroke-linejoin="round" stroke-width="2" d="M0.2004,0.136294118 L0.2004,9.72688235"/>
    </g>
    <path fill="#9595EF" d="M175,27 C175,29.7615285 172.985494,32 170.500265,32 C168.015036,32 166,29.7615285 166,27 C166,24.2384715 168.015036,22 170.500265,22 C172.985494,22 175,24.2384715 175,27"/>
    <path stroke="#000" stroke-width="2" d="M176,27 C176,29.7615285 173.76166,32 171.000295,32 C168.238929,32 166,29.7615285 166,27 C166,24.2384715 168.238929,22 171.000295,22 C173.76166,22 176,24.2384715 176,27 Z"/>
    <path stroke="#000" stroke-linecap="round" stroke-linejoin="round" stroke-width="2" d="M20.4887143 61.982313L41.4950476 50.0261391M155.338196 35.59725L169.620875 27.0275625M68.0524118 34.6249524L85.7919412 24.0712381M111.32148 109.497582L129.511537 98.5077636M68.0524118 83.7198143L85.7919412 73.1666238"/>
    <path stroke="#000" stroke-width="2" d="M94.1804 37.3474952L94.1804 58.6256857M138.2004 62.3881429L138.2004 83.6663333"/>
    <path stroke="#000" stroke-linecap="round" stroke-linejoin="round" stroke-width="2" d="M62.2879697,98.11585 L78.7506667,107.55285"/>
    <path fill="#9595EF" d="M25,63 C25,65.7615285 22.9853756,68 20.5,68 C18.0146244,68 16,65.7615285 16,63 C16,60.2384715 18.0146244,58 20.5,58 C22.9853756,58 25,60.2384715 25,63"/>
    <path stroke="#000" stroke-width="2" d="M25,62 C25,64.7615285 22.7615285,67 20,67 C17.2384715,67 15,64.7615285 15,62 C15,59.2384715 17.2384715,57 20,57 C22.7615285,57 25,59.2384715 25,62 Z"/>
  </g>
</svg>
