<svg width="85" height="85" viewBox="0 0 85 85" fill="none" xmlns="http://www.w3.org/2000/svg">
<rect x="11.5195" y="16.499" width="72.0958" height="59.3041" rx="4.5" fill="#F7F7FE" stroke="black" stroke-linecap="round" stroke-linejoin="round" stroke-dasharray="8 10"/>
<path d="M58.3754 62.3224H62.1405C63.0625 62.3224 63.8002 61.5847 63.8002 60.6627V56.1292C63.8002 55.2071 63.0625 54.4695 62.1405 54.4695H58.3754C57.8529 51.8109 56.8079 49.3521 55.3633 47.1852L58.0373 44.5113C58.6828 43.8658 58.6828 42.8054 58.0373 42.16L54.8255 38.9482C54.18 38.3027 53.1197 38.3027 52.4742 38.9482L49.8003 41.6068C47.6334 40.1468 45.1746 39.1172 42.516 38.5947V34.8296C42.516 33.9076 41.7783 33.1699 40.8563 33.1699H36.3228C35.4008 33.1699 34.6631 33.9076 34.6631 34.8296V38.5947C32.0045 39.1172 29.5457 40.1622 27.3788 41.6068L24.7049 38.9328C24.0594 38.2874 22.9991 38.2874 22.3536 38.9328L19.1418 42.1446C18.4963 42.7901 18.4963 43.8504 19.1418 44.4959L21.8158 47.1699C20.3558 49.3367 19.3262 51.7955 18.8037 54.4541H15.0386C14.1166 54.4541 13.3789 55.1918 13.3789 56.1138V60.6473C13.3789 61.5694 14.1166 62.307 15.0386 62.307H18.8037L26.841 58.3729C26.841 51.8877 32.1121 46.6166 38.5972 46.6166C45.0824 46.6166 50.3535 51.8877 50.3535 58.3729" fill="#A7A9AC"/>
<path d="M76.201 65.0734V14.4216C76.201 11.2559 73.6346 8.68945 70.4689 8.68945H6.69307C3.52734 8.68945 0.960938 11.2559 0.960938 14.4216V65.0888C0.960938 68.2545 3.52734 70.8209 6.69307 70.8209H70.4689C73.6346 70.8209 76.201 68.2391 76.201 65.0734ZM6.69307 11.471H70.4689C72.0978 11.471 73.4194 12.7926 73.4194 14.4216V21.2602H3.74248V14.4216C3.74248 12.7926 5.0641 11.471 6.69307 11.471ZM3.74248 65.0734V24.0417H73.4194V65.0734C73.4194 66.7024 72.0978 68.024 70.4689 68.024H6.69307C5.0641 68.024 3.74248 66.7024 3.74248 65.0734Z" fill="black"/>
<path d="M38.5808 45.248C31.3272 45.248 25.4414 51.1492 25.4414 58.3874C25.4414 59.1558 26.0715 59.7859 26.8399 59.7859C27.6082 59.7859 28.2383 59.1558 28.2383 58.3874C28.2383 52.6706 32.8794 48.0296 38.5961 48.0296C44.3129 48.0296 48.9539 52.6706 48.9539 58.3874C48.9539 59.1558 49.584 59.7859 50.3524 59.7859C51.1208 59.7859 51.7508 59.1558 51.7508 58.3874C51.7201 51.1339 45.8343 45.248 38.5808 45.248Z" fill="black"/>
<path d="M62.1549 53.0711H59.4962C58.9891 51.0579 58.19 49.1523 57.1296 47.3697L59.0045 45.4948C59.5885 44.9108 59.8958 44.1424 59.8958 43.328C59.8958 42.5135 59.5731 41.7451 59.0045 41.1611L55.7926 37.9493C54.594 36.7506 52.6576 36.7506 51.4743 37.9493L49.5995 39.8241C47.8168 38.7638 45.9112 37.98 43.8981 37.4575V34.8296C43.8981 33.1392 42.5303 31.7715 40.8399 31.7715H36.3064C34.616 31.7715 33.2483 33.1392 33.2483 34.8296V37.4883C31.2351 37.9954 29.3295 38.7945 27.5469 39.8549L25.672 37.98C25.0881 37.396 24.3197 37.0887 23.5052 37.0887C22.6907 37.0887 21.9223 37.4114 21.3383 37.98L18.1265 41.1919C17.5425 41.7758 17.2352 42.5442 17.2352 43.3587C17.2352 44.1732 17.5579 44.9416 18.1265 45.5255L20.0014 47.4004C18.941 49.183 18.1572 51.0886 17.6347 53.1018H14.9761C13.2857 53.1018 11.918 54.4695 11.918 56.16V60.6934C11.918 62.3839 13.2857 63.7516 14.9761 63.7516H18.7412C19.5096 63.7516 20.1397 63.1215 20.1397 62.3531C20.1397 61.5847 19.5096 60.9547 18.7412 60.9547H14.9761C14.8225 60.9547 14.6995 60.8317 14.6995 60.6781V56.1446C14.6995 55.9909 14.8225 55.868 14.9761 55.868H18.7412C19.402 55.868 19.986 55.3916 20.1089 54.7461C20.5853 52.318 21.5381 50.0283 22.9212 47.969C23.29 47.4158 23.2132 46.6781 22.7522 46.2017L20.0782 43.5277C20.0167 43.4663 20.0014 43.3894 20.0014 43.3433C20.0014 43.2972 20.0167 43.2204 20.0782 43.1589L23.29 39.9471C23.3515 39.8856 23.4283 39.8702 23.4744 39.8702C23.5206 39.8702 23.5974 39.8856 23.6742 39.9471L26.3482 42.6211C26.8246 43.0974 27.5622 43.1589 28.1155 42.7901C30.1747 41.407 32.4645 40.4696 34.8926 39.9778C35.5381 39.8549 36.0145 39.2709 36.0145 38.6101V34.8296C36.0145 34.676 36.1374 34.553 36.2911 34.553H40.8245C40.9782 34.553 41.1012 34.676 41.1012 34.8296V38.5947C41.1012 39.2555 41.5776 39.8395 42.223 39.9624C44.6511 40.4388 46.9409 41.3916 49.0001 42.7747C49.5534 43.1436 50.291 43.0667 50.7674 42.6057L53.4414 39.9317C53.549 39.8241 53.718 39.8241 53.8256 39.9317L57.0374 43.1436C57.0989 43.205 57.1143 43.2819 57.1143 43.328C57.1143 43.3741 57.0989 43.4509 57.0374 43.5277L54.3634 46.2017C53.8871 46.6781 53.8256 47.4158 54.1944 47.969C55.5775 50.0283 56.5149 52.318 57.0067 54.7461C57.1296 55.3916 57.7136 55.868 58.3744 55.868H62.1395C62.2932 55.868 62.4161 55.9909 62.4161 56.1446V60.6781C62.4161 60.8317 62.2932 60.9547 62.1395 60.9547H58.3744C57.606 60.9547 56.9759 61.5847 56.9759 62.3531C56.9759 63.1215 57.606 63.7516 58.3744 63.7516H62.1395C63.8299 63.7516 65.1976 62.3839 65.1976 60.6934V56.16C65.1976 54.4388 63.8299 53.0711 62.1549 53.0711Z" fill="black"/>
<path d="M13.5313 17.6631C13.9001 17.6631 14.2535 17.5094 14.5148 17.2482C14.7761 16.9869 14.9297 16.6335 14.9297 16.2647C14.9297 15.8958 14.7761 15.5424 14.5148 15.2811C14.2535 15.0199 13.9001 14.8662 13.5313 14.8662C13.1624 14.8662 12.809 15.0199 12.5477 15.2811C12.2865 15.5424 12.1328 15.8958 12.1328 16.2647C12.1328 16.6335 12.2865 16.9869 12.5477 17.2482C12.809 17.5248 13.1624 17.6631 13.5313 17.6631Z" fill="black"/>
<path d="M18.4453 17.6631C18.8142 17.6631 19.1676 17.5094 19.4289 17.2482C19.6901 16.9869 19.8438 16.6335 19.8438 16.2647C19.8438 15.8958 19.6901 15.5424 19.4289 15.2811C19.1676 15.0199 18.8142 14.8662 18.4453 14.8662C18.0765 14.8662 17.7231 15.0199 17.4618 15.2811C17.2006 15.5424 17.0469 15.8958 17.0469 16.2647C17.0469 16.6335 17.2006 16.9869 17.4618 17.2482C17.7231 17.5248 18.0765 17.6631 18.4453 17.6631Z" fill="black"/>
<path d="M8.61721 17.6631C8.98603 17.6631 9.33949 17.5094 9.60074 17.2482C9.86199 16.9869 10.0157 16.6335 10.0157 16.2647C10.0157 15.8958 9.86199 15.5424 9.60074 15.2811C9.33949 15.0199 8.98603 14.8662 8.61721 14.8662C8.24838 14.8662 7.89493 15.0199 7.63368 15.2811C7.37243 15.5424 7.21875 15.8958 7.21875 16.2647C7.21875 16.6335 7.37243 16.9869 7.63368 17.2482C7.89493 17.5248 8.24838 17.6631 8.61721 17.6631Z" fill="black"/>
</svg>
