<svg width="88" height="88" viewBox="0 0 88 88" fill="none" xmlns="http://www.w3.org/2000/svg">
<path d="M45.666 83.2797C45.393 83.2481 45.1459 83.4429 45.1123 83.7152C42.1668 83.3299 39.3416 82.562 36.6884 81.4629C36.7953 81.2102 36.6785 80.9181 36.4261 80.8091C34.059 79.7866 31.8352 78.4948 29.7933 76.9723C29.5729 76.8079 29.2614 76.8524 29.0958 77.0712C26.7824 75.2921 24.7079 73.2176 22.9288 70.9042C23.1476 70.7386 23.1921 70.4271 23.0277 70.2067C21.5052 68.1648 20.2134 65.941 19.1909 63.5739C19.0819 63.3215 18.7898 63.2047 18.5371 63.3116C17.438 60.6584 16.6701 57.8332 16.2848 54.8877C16.5571 54.8541 16.7519 54.607 16.7203 54.334C16.5748 53.0764 16.5 51.797 16.5 50.5C16.5 49.203 16.5748 47.9236 16.7203 46.666C16.7519 46.3929 16.5571 46.1459 16.2848 46.1123C16.6701 43.1668 17.438 40.3416 18.5371 37.6884C18.7898 37.7953 19.0819 37.6785 19.1909 37.4261C20.2134 35.059 21.5052 32.8352 23.0277 30.7933C23.1921 30.5729 23.1476 30.2614 22.9288 30.0958C24.7079 27.7824 26.7824 25.7079 29.0958 23.9288C29.2614 24.1476 29.5729 24.1921 29.7933 24.0277C31.8352 22.5052 34.059 21.2134 36.4261 20.191C36.6785 20.0819 36.7953 19.7898 36.6884 19.5371C39.3416 18.438 42.1668 17.6701 45.1123 17.2848C45.1458 17.5571 45.3929 17.7519 45.666 17.7203C46.9236 17.5748 48.203 17.5 49.5 17.5C50.797 17.5 52.0764 17.5748 53.334 17.7203C53.607 17.7519 53.8541 17.5571 53.8877 17.2848C56.8332 17.6701 59.6584 18.438 62.3116 19.5371C62.2047 19.7898 62.3215 20.0819 62.5739 20.1909C64.941 21.2134 67.1648 22.5052 69.2067 24.0277C69.4271 24.1921 69.7386 24.1476 69.9042 23.9288C72.2176 25.7079 74.2921 27.7824 76.0712 30.0958C75.8524 30.2614 75.8079 30.5729 75.9723 30.7933C77.4948 32.8352 78.7866 35.059 79.8091 37.4261C79.9181 37.6785 80.2102 37.7953 80.4629 37.6884C81.562 40.3416 82.3299 43.1668 82.7152 46.1123C82.4429 46.1458 82.2481 46.3929 82.2797 46.666C82.4252 47.9236 82.5 49.203 82.5 50.5C82.5 51.797 82.4252 53.0764 82.2797 54.334C82.2481 54.6071 82.4429 54.8541 82.7152 54.8877C82.3299 57.8332 81.562 60.6584 80.4629 63.3116C80.2102 63.2047 79.9181 63.3215 79.8091 63.5739C78.7866 65.941 77.4948 68.1648 75.9723 70.2067C75.8079 70.4271 75.8524 70.7386 76.0712 70.9042C74.2921 73.2176 72.2176 75.2921 69.9042 77.0712C69.7386 76.8524 69.4271 76.8079 69.2067 76.9723C67.1648 78.4948 64.941 79.7866 62.5739 80.8091C62.3215 80.9181 62.2047 81.2102 62.3116 81.4629C59.6584 82.562 56.8332 83.3299 53.8877 83.7152C53.8541 83.4429 53.607 83.2481 53.334 83.2797C52.0764 83.4252 50.797 83.5 49.5 83.5C48.203 83.5 46.9236 83.4252 45.666 83.2797Z" fill="#F7F7FE" stroke="black" stroke-linecap="round" stroke-linejoin="round" stroke-dasharray="8 10"/>
<path d="M37.5369 72.9996C56.5701 72.9996 71.9996 57.5701 71.9996 38.5369C71.9996 19.5037 56.5701 4.07422 37.5369 4.07422C18.5037 4.07422 3.07422 19.5037 3.07422 38.5369C3.07422 57.5701 18.5037 72.9996 37.5369 72.9996Z" fill="#F5BB60"/>
<path d="M34.0239 66.0478C51.1579 66.0478 65.0478 52.1579 65.0478 35.0239C65.0478 17.8899 51.1579 4 34.0239 4C16.8899 4 3 17.8899 3 35.0239C3 52.1579 16.8899 66.0478 34.0239 66.0478Z" fill="#E86F32"/>
<path d="M38.1347 57.8242C52.9979 57.8242 65.0468 45.7752 65.0468 30.9121C65.0468 16.049 52.9979 4 38.1347 4C23.2716 4 11.2227 16.049 11.2227 30.9121C11.2227 45.7752 23.2716 57.8242 38.1347 57.8242Z" fill="#E53D42"/>
<path d="M40.3028 57.8243C53.9686 57.8243 65.047 46.746 65.047 33.0801C65.047 19.4143 53.9686 8.33594 40.3028 8.33594C26.6369 8.33594 15.5586 19.4143 15.5586 33.0801C15.5586 46.746 26.6369 57.8243 40.3028 57.8243Z" fill="#BFD141"/>
<path d="M38.5087 57.8241C51.1837 57.8241 61.4589 47.549 61.4589 34.874C61.4589 22.199 51.1837 11.9238 38.5087 11.9238C25.8337 11.9238 15.5586 22.199 15.5586 34.874C15.5586 47.549 25.8337 57.8241 38.5087 57.8241Z" fill="#6DB64C"/>
<path d="M34.8457 50.5732C45.4977 50.5732 54.1328 41.9381 54.1328 31.2861C54.1328 20.6342 45.4977 11.999 34.8457 11.999C24.1937 11.999 15.5586 20.6342 15.5586 31.2861C15.5586 41.9381 24.1937 50.5732 34.8457 50.5732Z" fill="#AFDBE7"/>
<path d="M37.9871 44.2193C46.905 44.2193 54.1343 36.9899 54.1343 28.0721C54.1343 19.1542 46.905 11.9248 37.9871 11.9248C29.0692 11.9248 21.8398 19.1542 21.8398 28.0721C21.8398 36.9899 29.0692 44.2193 37.9871 44.2193Z" fill="#57BADF"/>
<path d="M40.0044 44.2939C47.8488 44.2939 54.208 37.9348 54.208 30.0903C54.208 22.2459 47.8488 15.8867 40.0044 15.8867C32.16 15.8867 25.8008 22.2459 25.8008 30.0903C25.8008 37.9348 32.16 44.2939 40.0044 44.2939Z" fill="#02B2D6"/>
<path d="M37.9111 44.2188C44.5995 44.2188 50.0215 38.7968 50.0215 32.1084C50.0215 25.42 44.5995 19.998 37.9111 19.998C31.2228 19.998 25.8008 25.42 25.8008 32.1084C25.8008 38.7968 31.2228 44.2188 37.9111 44.2188Z" fill="url(#paint0_radial)"/>
<path d="M37.9111 44.2188C44.5995 44.2188 50.0215 38.7968 50.0215 32.1084C50.0215 25.42 44.5995 19.998 37.9111 19.998C31.2228 19.998 25.8008 25.42 25.8008 32.1084C25.8008 38.7968 31.2228 44.2188 37.9111 44.2188Z" fill="#231F20"/>
<defs>
<radialGradient id="paint0_radial" cx="0" cy="0" r="1" gradientUnits="userSpaceOnUse" gradientTransform="translate(37.9453 32.1091) scale(12.1392)">
<stop stop-color="#797979"/>
<stop offset="1" stop-color="#4C4C4C"/>
</radialGradient>
</defs>
</svg>
