<svg xmlns="http://www.w3.org/2000/svg" xmlns:xlink="http://www.w3.org/1999/xlink" width="224" height="160" viewBox="0 0 224 160">
    <defs>
        <path id="a" d="M0 .197h207.756V120H0z"/>
    </defs>
    <g fill="none" fill-rule="evenodd">
        <g opacity=".57" transform="translate(6 39)">
            <mask id="b" fill="#fff">
                <use xlink:href="#a"/>
            </mask>
            <path fill="#9595EF" d="M135.49 11.091c7.327 3.343 14.617 6.754 22.43 8.625 10.176 2.438 20.919 2.175 30.913 5.271 4.68 1.45 9.234 3.702 12.547 7.297 4.022 4.366 5.874 10.369 6.258 16.282 1.362 20.988-9.105 37.173-27.23 47.116-12.441 6.825-26.895 8.102-40.52 11.535-15.001 3.78-29.915 8.015-45.195 10.568-24.959 4.17-52.178 3.344-73.46-10.292-7.917-5.073-14.898-11.999-18.566-20.632-7.743-18.224 2.727-37.835 14.12-52.044C41.274 4.28 84.837-7.58 121.871 5.4c4.639 1.626 9.136 3.647 13.62 5.692" mask="url(#b)"/>
        </g>
        <path fill="#FFF" d="M125.834 45.313l-85.16 49.633c-5.776 3.366-5.757 11.744.032 15.083l54.257 30.44a17.1 17.1 0 0 0 16.94.088l86.5-48.698c5.87-3.305 5.92-11.766.092-15.142L143.022 45.29a17.1 17.1 0 0 0-17.188.024"/>
        <path stroke="#000" stroke-linejoin="round" stroke-width="2" d="M125.834 45.313l-85.16 49.633c-5.776 3.366-5.757 11.744.032 15.083l54.257 30.44a17.1 17.1 0 0 0 16.94.088l86.5-48.698c5.87-3.305 5.92-11.766.092-15.142L143.022 45.29a17.1 17.1 0 0 0-17.188.024z"/>
        <path fill="#FFF" d="M125.834 33.032l-85.16 49.633c-5.776 3.366-5.757 11.744.032 15.084l54.257 30.439a17.1 17.1 0 0 0 16.94.088l86.5-48.698c5.87-3.305 5.92-11.766.092-15.141l-55.473-31.429a17.1 17.1 0 0 0-17.188.024"/>
        <path stroke="#000" stroke-linejoin="round" stroke-width="2" d="M125.834 33.032l-85.16 49.633c-5.776 3.366-5.757 11.744.032 15.084l54.257 30.439a17.1 17.1 0 0 0 16.94.088l86.5-48.698c5.87-3.305 5.92-11.766.092-15.141l-55.473-31.429a17.1 17.1 0 0 0-17.188.024z"/>
        <path fill="#FFF" d="M125.834 21.073l-85.16 49.633c-5.776 3.366-5.757 11.744.032 15.083l54.257 30.44a17.1 17.1 0 0 0 16.94.088l86.5-48.699c5.87-3.304 5.92-11.765.092-15.14l-55.473-31.43a17.1 17.1 0 0 0-17.188.025"/>
        <path stroke="#000" stroke-linejoin="round" stroke-width="2" d="M125.834 21.073l-85.16 49.633c-5.776 3.366-5.757 11.744.032 15.083l54.257 30.44a17.1 17.1 0 0 0 16.94.088l86.5-48.699c5.87-3.304 5.92-11.765.092-15.14l-55.473-31.43a17.1 17.1 0 0 0-17.188.025z"/>
        <path stroke="#9595EF" stroke-linecap="round" stroke-width="5" d="M86.694 85.41l26.642 15.5M68.844 65.79l53.284 31M76.66 61.496l53.284 31M84.475 57.202l53.284 31M92.29 52.908l53.285 31M100.106 48.615l53.284 31M107.921 44.321l53.285 31M115.737 40.027l53.284 31M123.552 35.734l53.285 31"/>
        <path fill="#FFF" d="M189.334 5.587l-11.313 6.184-22.468 12.867 1.565 1.682-4.294 2.481 3.9 3.224 31.698-18.442c.555-.323.865-.873.912-1.446v-6.55z"/>
        <path stroke="#000" stroke-linejoin="round" stroke-width="2" d="M189.334 5.587l-11.313 6.184-22.468 12.867 1.565 1.682-4.294 2.481 3.9 3.224 31.698-18.442c.555-.323.865-.873.912-1.446v-6.55z"/>
        <path fill="#FFF" d="M152.824 22.53l32.172-18.584a3.194 3.194 0 0 1 3.648.317l.034.027a1.854 1.854 0 0 1-.256 3.022l-31.697 18.44-3.9-3.223z"/>
        <path stroke="#000" stroke-linejoin="round" stroke-width="2" d="M152.824 22.53l32.172-18.584a3.194 3.194 0 0 1 3.648.317l.034.027a1.854 1.854 0 0 1-.256 3.022l-31.697 18.44-3.9-3.223z"/>
        <path fill="#9595EF" d="M94.003 63.755c0-8.453 13.778-15.305 30.775-15.305s30.775 6.852 30.775 15.305c0 8.452-13.778 15.303-30.775 15.303s-30.775-6.851-30.775-15.303"/>
        <path fill="#FFF" d="M159.744 37.271c-4.475-8.523-18.432-14.742-34.966-14.742-16.262 0-30.032 6.015-34.739 14.322l-1.737-1.143v7.434c0 11.384 16.33 20.613 36.476 20.613 20.145 0 36.476-9.229 36.476-20.613v-7.434l-1.51 1.563z"/>
        <path stroke="#000" stroke-linejoin="round" stroke-width="2" d="M159.744 37.271c-4.475-8.523-18.432-14.742-34.966-14.742-16.262 0-30.032 6.015-34.739 14.322l-1.737-1.143v7.434c0 11.384 16.33 20.613 36.476 20.613 20.145 0 36.476-9.229 36.476-20.613v-7.434l-1.51 1.563z"/>
        <path fill="#FFF" d="M88.302 35.708c0-11.384 16.33-20.612 36.476-20.612 20.145 0 36.476 9.228 36.476 20.612 0 11.384-16.33 20.612-36.476 20.612-20.145 0-36.476-9.228-36.476-20.612"/>
        <path stroke="#000" stroke-linejoin="round" stroke-width="2" d="M88.302 35.708c0-11.384 16.33-20.612 36.476-20.612 20.145 0 36.476 9.228 36.476 20.612 0 11.384-16.33 20.612-36.476 20.612-20.145 0-36.476-9.228-36.476-20.612z"/>
        <path fill="#9595EF" d="M155.552 34.008c0 .3-.012.6-.043.896-.844-8.08-14.277-14.497-30.732-14.497-16.45 0-29.89 6.416-30.733 14.497a8.72 8.72 0 0 1-.043-.896c0-9.395 13.782-17.01 30.776-17.01 17 0 30.775 7.615 30.775 17.01"/>
        <path fill="#FFF" d="M94.003 35.708c0-8.453 13.778-15.304 30.775-15.304s30.775 6.851 30.775 15.304c0 8.452-13.778 15.304-30.775 15.304S94.003 44.16 94.003 35.708"/>
        <path stroke="#000" stroke-linejoin="round" stroke-width="2" d="M94.003 35.708c0-8.453 13.778-15.304 30.775-15.304s30.775 6.851 30.775 15.304c0 8.452-13.778 15.304-30.775 15.304S94.003 44.16 94.003 35.708z"/>
        <path fill="#9595EF" d="M123.981 51.004c-16.626-.209-29.98-6.975-29.98-15.296 0-.27.012-.54.043-.804.831 8.83 13.855 15.873 29.937 16.1M155.552 35.708c0 8.32-13.347 15.087-29.98 15.296 16.088-.227 29.106-7.27 29.937-16.1.031.264.043.535.043.804"/>
    </g>
</svg>
