<svg xmlns="http://www.w3.org/2000/svg" xmlns:xlink="http://www.w3.org/1999/xlink" width="79" height="90" viewBox="0 0 79 90">
  <defs>
    <polygon id="c#-a" points="0 0 71.845 0 71.845 80.987 0 80.987"/>
  </defs>
  <g fill="none" fill-rule="evenodd">
    <path fill="#6A47DE" fill-opacity=".08" fill-rule="nonzero" stroke="#000" stroke-dasharray="8 10" stroke-linecap="round" stroke-linejoin="round" d="M44.8889176,10.3217485 L78.0580848,30.043956 L78.0580848,69.6923077 L42.277865,90 L8,69.6923077 L8,30.043956 L39.6968329,10.371161 C41.282653,9.386914 43.2846525,9.3678612 44.8889176,10.3217485 Z"/>
    <mask id="c#-b" fill="#fff">
      <use xlink:href="#c#-a"/>
    </mask>
    <path fill="#8D4482" d="M71.8415785,23.814 C71.8409148,22.4520904 71.5506646,21.2486301 70.9633061,20.2156027 C70.3865665,19.1998849 69.5226738,18.3486082 68.3641064,17.6755315 C58.7993436,12.1433425 49.2255104,6.62801918 39.664066,1.09028219 C37.0863254,-0.402558904 34.5871204,-0.348189041 32.0284053,1.16617808 C28.2215257,3.4182 9.16124422,14.3725068 3.48145421,17.6724247 C1.14241784,19.0307836 0.00420331893,21.1094877 0.0037608643,23.8115589 C0,34.9369644 0.0037608643,46.0623699 0,57.1882192 C0.000663681936,58.5203918 0.278525186,59.7005507 0.840000104,60.7178219 C1.41696093,61.7641644 2.29302109,62.6389644 3.47835703,63.3273534 C9.15836826,66.6272712 28.2210833,77.5806904 32.0272992,79.8333781 C34.5871204,81.348411 37.0863254,81.4025589 39.6649509,79.909274 C49.2266166,74.3710932 58.8011134,68.8559918 68.3672036,63.3240247 C69.5525395,62.6358575 70.4283785,61.7606137 71.0055605,60.714937 C71.5661505,59.6976658 71.8446757,58.5175068 71.8451182,57.1851123 C71.8451182,57.1851123 71.8451182,34.9398493 71.8415785,23.814" mask="url(#c#-b)"/>
    <path fill="#5B2863" d="M36.0323984,40.3914822 L0.840000104,60.7178219 C1.41696093,61.7641644 2.29302109,62.6389644 3.47835703,63.3273534 C9.15836826,66.6272712 28.2210833,77.5806904 32.0272992,79.8333781 C34.5871204,81.348411 37.0863254,81.4025589 39.6649509,79.909274 C49.2266166,74.3710932 58.8011134,68.8559918 68.3672036,63.3240247 C69.5525395,62.6358575 70.4283785,61.7606137 71.0055605,60.714937 L36.0323984,40.3914822" mask="url(#c#-b)"/>
    <path fill="#5B2863" d="M25.4831461,45.9684248 C27.4672604,49.4966196 31.1971467,51.8764045 35.4757347,51.8764045 C39.7806862,51.8764045 43.5317918,49.4664902 45.505618,45.9005245 L35.5820457,40.0449438 L25.4831461,45.9684248"/>
    <path fill="#732E71" d="M71.8953682,23.6613604 C71.8947104,22.2841258 71.6070402,21.0671235 71.0249027,20.0224719 L36.4044944,40.425382 L71.0667815,60.9775281 C71.6223885,59.9488099 71.8984379,58.7553712 71.8988764,57.4079838 C71.8988764,57.4079838 71.8988764,34.9124042 71.8953682,23.6613604"/>
    <path fill="#FFFFFE" d="M46.054426,46.388578 C44.0164331,50.0411669 40.1433837,52.5096219 35.6984835,52.5096219 C31.2808037,52.5096219 27.4296634,50.0720281 25.3810479,46.4581277 C24.3858417,44.701942 23.8137697,42.6688994 23.8137697,40.4998882 C23.8137697,33.8671732 29.1348143,28.4903781 35.6984835,28.4903781 C40.0876149,28.4903781 43.9186166,30.8975578 45.9771907,34.474559 L56.365001,28.4297737 C52.2361236,21.2274669 44.5276464,16.3820225 35.6984835,16.3820225 C22.5167042,16.3820225 11.8314607,27.1801155 11.8314607,40.4998882 C11.8314607,44.8696663 12.9818013,48.9675074 14.9923524,52.502242 C19.1108285,59.7425664 26.8414361,64.6179775 35.6984835,64.6179775 C44.571686,64.6179775 52.3144654,59.7231104 56.4269663,52.4613173 L46.054426,46.388578"/>
    <polygon fill="#FFFFFE" points="56.427 46.416 59.157 46.416 59.157 34.584 56.427 34.584"/>
    <polygon fill="#FFFFFE" points="62.798 46.416 65.528 46.416 65.528 34.584 62.798 34.584"/>
    <polygon fill="#FFFFFE" points="54.607 39.135 66.438 39.135 66.438 36.404 54.607 36.404"/>
    <polygon fill="#FFFFFE" points="54.607 44.596 66.438 44.596 66.438 41.865 54.607 41.865"/>
  </g>
</svg>
