<svg xmlns="http://www.w3.org/2000/svg" xmlns:xlink="http://www.w3.org/1999/xlink" width="159" height="65" viewBox="0 0 159 65">
  <defs>
    <rect id="casandra-logo-a" width="146" height="54" x="13" y="11" rx="7"/>
    <mask id="casandra-logo-b" width="146" height="54" x="0" y="0" fill="#fff">
      <use xlink:href="#casandra-logo-a"/>
    </mask>
    <polygon id="casandra-logo-c" points=".003 25.731 36.882 25.731 36.882 .308 .003 .308"/>
    <polygon id="casandra-logo-e" points=".084 18.942 19.148 18.942 19.148 .212 .084 .212"/>
    <polygon id="casandra-logo-g" points=".167 26.187 88.117 26.187 88.117 .156 .167 .156"/>
    <polygon id="casandra-logo-i" points=".216 30.857 83.056 30.857 83.056 .341 .216 .341"/>
  </defs>
  <g fill="none" fill-rule="evenodd">
    <use fill="#6D54D7" fill-opacity=".057" stroke="#000" stroke-dasharray="8" stroke-width="2" mask="url(#casandra-logo-b)" xlink:href="#casandra-logo-a"/>
    <rect width="146" height="54" fill="#BCC9F1" rx="7"/>
    <g transform="translate(30 4)">
      <path fill="#BBE6FB" d="M56.0407486,16.7079208 C56.6934585,9.00055693 44.7275225,1.66494431 29.3146683,0.324551361 C13.9018142,-1.01584158 0.878109083,4.14690594 0.226223316,11.8538521 C-0.426486579,19.5624691 11.5394494,26.897664 26.9523036,28.2380569 C42.3651577,29.5780322 55.3888628,24.4165377 56.0407486,16.7079208" transform="matrix(1 0 0 -1 15.675 33.492)"/>
      <g transform="matrix(1 0 0 -1 24.06 32.889)">
        <mask id="casandra-logo-d" fill="#fff">
          <use xlink:href="#casandra-logo-c"/>
        </mask>
        <g mask="url(#casandra-logo-d)" opacity=".35">
          <path fill="#FFF" d="M19.2141089,25.759807 C13.2543936,25.8546685 6.28050743,23.5383303 1.09144493,21.369191 C0.551361386,19.8456824 0.260643564,18.2252679 0.260643564,16.5455649 C0.260643564,7.59587198 8.51602723,0.339784121 18.6999226,0.339784121 C28.8838181,0.339784121 37.1392017,7.59587198 37.1392017,16.5455649 C37.1392017,19.377917 36.3104889,22.038946 34.8573175,24.3556931 C30.7058168,24.9874217 24.9958849,25.6678077 19.2141089,25.759807" transform="translate(-.257 -.031)"/>
        </g>
      </g>
      <path fill="#FFF" d="M15.0910252,23.6018196 C11.7798028,23.8049639 6.07246088,22.0681228 1.31333839,20.3354964 C0.590226765,18.6197284 0.188637815,16.7421193 0.188637815,14.7717889 C0.188637815,6.68900856 7.477603,0.136553385 15.1882785,0.136553385 C22.8482314,0.136553385 29.6253593,6.69954509 30.1879192,14.7717889 C30.3706883,17.4004415 29.4706763,19.8773682 28.2210556,22.0129114 C23.2871287,22.8866002 18.0509622,23.4201699 15.0910252,23.6018196" transform="matrix(1 0 0 -1 27.688 29.653)"/>
      <g fill="#373535" transform="matrix(1 0 0 -1 27.624 29.324)">
        <path d="M2.46986655,4.48682192 C2.86875,5.36216009 3.47304402,5.79085553 4.05840239,6.52465486 C3.99336257,6.69841724 3.8509336,7.26661205 3.8509336,7.46362432 C3.8509336,8.34304142 4.5708997,9.056854 5.45881672,9.056854 C5.66834374,9.056854 5.86840293,9.01565681 6.0515847,8.94345977 C8.71286591,10.9531481 12.2163716,11.829302 15.7371664,11.0494108 C16.0586607,10.9776217 16.3739803,10.8907405 16.6835369,10.7952935 C13.2039066,11.273344 9.2817585,10.0521127 6.61389098,7.91842491 C6.69539658,7.72793892 6.92138937,7.1834019 6.92138937,6.96436341 C6.92138937,6.08453842 6.34673375,5.87039465 5.45881672,5.87039465 C5.25711096,5.87039465 5.06446136,5.90873658 4.88621933,5.97603891 C4.28357189,5.17412146 3.54508179,3.64656254 3.18365799,2.69168526 C4.65899161,1.38398062 5.99189625,0.910009064 7.72903573,0.266761958 C7.72450764,0.348748431 7.78872417,0.424616511 7.78872417,0.508234556 C7.78872417,3.1607621 10.1453885,5.31647608 12.8227238,5.31647608 C15.2217876,5.31647608 17.2083836,3.58782597 17.5961526,1.31994143 C18.7932146,2.0745433 19.9507587,2.65293543 20.8329127,3.77137777 C20.6270905,4.02019244 20.4052142,4.72462348 20.4052142,5.07133245 C20.4052142,5.86957886 21.0589055,6.51690489 21.8644937,6.51690489 C21.9785192,6.51690489 22.0880166,6.50058918 22.1946325,6.4761156 C22.6425016,7.38816413 22.9804617,8.35487031 23.196575,9.35176056 C19.0101512,12.4227862 10.9102238,12.0038802 10.9102238,12.0038802 C10.9102238,12.0038802 4.46469544,12.3371287 0.101264529,10.229954 C0.392297137,8.14521336 1.23164012,6.16326175 2.46986655,4.48682192" transform="translate(4.068 10.4)"/>
        <path d="M4.9397331,8.97364384 C5.23570545,8.70932924 5.39707006,8.47723818 5.52426819,8.25126551 C5.91574204,7.55376865 5.13032447,6.91541626 4.32473633,6.91541626 C4.24281909,6.91541626 4.16378336,6.92642937 4.08515928,6.93948194 C3.17748332,5.533883 1.58771255,3.73140427 0.175360525,2.82425045 C2.34102185,2.47264677 4.38318984,1.61321643 6.00836203,0.285117138 C7.19183975,2.38617348 8.09951571,5.42008088 8.09951571,7.99714824 C8.09951571,9.9587052 7.2255946,11.3965277 5.90627421,12.4513387 C5.83711795,11.4006066 5.27110687,9.93096848 4.9397331,8.97364384" transform="translate(21.608 7.109)"/>
        <path d="M2.46986655,0 C3.19147923,1.97460954 4.96648999,3.50461581 6.6455876,4.85066239 C6.39983588,5.18391089 6.03141412,6.00907823 5.87787075,6.39983963 C3.82993973,7.01698159 2.01788097,8.17213429 0.612526905,9.70132478 C0.602235794,9.65686445 0.589474817,9.61362781 0.578772062,9.56916748 C0.314084697,8.39402803 0.265510654,7.21644122 0.39723687,6.06781481 C1.37777389,5.88671036 2.11996879,5.03543787 2.11996879,4.0112188 C2.11996879,3.40386627 1.58277282,2.52363338 1.16577701,2.14062195 C1.61899752,1.17146841 1.92814249,0.704023149 2.46986655,0" transform="translate(6.497 2.775)"/>
        <path d="M8.64453293,0.407892902 C7.78378444,1.25590225 7.1885466,2.94743411 6.62994511,4.00958723 C6.52538743,3.9936794 6.41835988,3.98266629 6.30886246,3.98266629 C5.14143887,3.98266629 3.91844328,4.9534514 4.19506834,6.07678845 C4.34820006,6.69841724 4.78125,7.10508646 5.4863969,7.44445335 C5.32585557,8.73217125 5.28222127,10.5831892 5.58395663,11.9218937 C5.67040196,12.3049052 5.85358373,12.4843781 5.97501883,12.8490343 C4.68698343,14.7167759 3.8546384,17.1682122 3.8546384,19.6004776 C3.8546384,19.6893983 3.85916649,19.7770952 3.86122471,19.8652001 C1.68444899,18.7834681 0.052278842,17.0792916 0.052278842,14.39658 C0.052278842,8.46255404 3.50144748,2.64151443 8.63341853,0.35976154 C8.63712333,0.375669363 8.64041649,0.391985079 8.64453293,0.407892902" transform="translate(.196 .71)"/>
        <path d="M11.9376883,8.97364384 C11.2745292,7.10467857 9.48140605,5.76230303 7.36843521,5.76230303 C6.23805962,5.76230303 5.20112731,6.1485776 4.37701517,6.79060103 C2.67815863,5.47963325 1.1369619,3.17666992 0.353602561,1.17881049 C0.705146901,0.80395691 0.950075334,0.495589876 1.34443069,0.163157161 C2.53284815,-0.143578301 4.16954638,0.163157161 5.45593521,0.163157161 C10.6303056,0.163157161 15.213143,2.44409427 17.8406694,6.44389207 C16.0936505,7.6426893 14.0329585,8.78356575 11.9376883,8.97364384" transform="translate(9.522 .347)"/>
      </g>
      <g fill="#1287B1" transform="matrix(1 0 0 -1 26.982 30.297)">
        <path d="M2.48841373,4.61687473 C2.89029255,5.51758502 3.39419633,6.35114077 3.98353565,7.10620964 C3.91800743,7.28458889 3.87985175,7.47723848 3.87985175,7.67996126 C3.87985175,8.5848687 4.60522435,9.3193715 5.49980909,9.3193715 C5.71090952,9.3193715 5.91247103,9.2769802 6.09702839,9.20269049 C8.77829419,11.2706307 12.3081091,12.1721804 15.8553428,11.3696836 C16.1792514,11.2958136 16.4969389,11.2064141 16.80882,11.1082006 C13.3030598,11.6001076 9.6807589,10.5126238 6.99285733,8.31667025 C7.07497498,8.12108265 7.11976643,7.90534869 7.11976643,7.67996126 C7.11976643,6.77463409 6.39439383,6.04055101 5.49980909,6.04055101 C5.29658863,6.04055101 5.10249236,6.0800043 4.92291184,6.14925743 C4.31573889,5.324096 3.81930035,4.4124731 3.45516247,3.42949849 C4.73171872,2.0373009 6.2985899,0.936386139 8.04835949,0.274494189 C8.04421213,0.358857081 8.03550269,0.442380542 8.03550269,0.528422299 C8.03550269,3.2578347 10.2215742,5.47057684 12.9190146,5.47057684 C15.3360938,5.47057684 17.337608,3.69182092 17.7282889,1.3582006 C18.9343401,2.13467499 20.006017,3.13191993 20.8943807,4.28278089 C20.6870129,4.53880758 20.5584448,4.86156909 20.5584448,5.21832759 C20.5584448,6.03971158 21.217045,6.70580069 22.0286826,6.70580069 C22.1435644,6.70580069 22.253884,6.68901205 22.3613006,6.6638291 C22.8125329,7.60231382 23.1530309,8.59704046 23.3707671,9.62282609 C19.1529058,12.782867 10.9921529,12.3518188 10.9921529,12.3518188 C10.9921529,12.3518188 4.49822256,12.6947266 0.102024963,10.5264744 C0.395243048,8.3813065 1.24088898,6.34190702 2.48841373,4.61687473" transform="translate(4.38 10.407)"/>
        <path d="M4.97682747,8.81403358 C5.27502238,8.54205768 5.4662155,8.15214163 5.4662155,7.71395824 C5.4662155,6.89257426 4.80761534,6.22606543 3.99597772,6.22606543 C3.91344533,6.22606543 3.83381609,6.23739776 3.75460159,6.25082867 C2.84010954,4.80448773 1.62825205,3.57136246 0.204879398,2.63791433 C2.30841847,2.30507964 4.28836634,1.40185105 5.92532784,0.0352561343 C7.11769275,2.19721266 7.79910338,4.687387 7.79910338,7.33915196 C7.79910338,9.35756565 6.91861965,10.8370641 5.58939198,11.9224494 C5.5197164,10.8412613 5.31068965,9.79910676 4.97682747,8.81403358" transform="translate(22.412 7.91)"/>
        <path d="M2.90314936,0 C3.6301809,2.0318446 4.89346561,3.8550904 6.58517221,5.2397331 C6.33757505,5.5830607 6.13352512,5.95786698 5.97882873,6.3599548 C3.91510428,6.99498493 2.0898528,8.18362032 0.673945387,9.75713517 C0.663576996,9.71138614 0.650305456,9.66689625 0.639937066,9.62114722 C0.372847325,8.41194576 0.323908521,7.200226 0.457038656,6.01830607 C1.44452417,5.83195222 2.19270724,4.95600517 2.19270724,3.90209858 C2.19270724,3.27714163 1.92769117,2.71514206 1.50756399,2.32102884 C1.88870602,1.5034223 2.35735728,0.724429617 2.90314936,0" transform="translate(6.77 2.787)"/>
        <path d="M9.12418369,0.419715885 C8.25697151,1.29230521 7.52911049,2.29458674 6.96672899,3.38710719 C6.8609714,3.37073827 6.75314014,3.35982566 6.6432352,3.35982566 C5.46704498,3.35982566 4.51356778,4.32475248 4.51356778,5.51464701 C4.51356778,6.36750969 5.00461476,7.10285192 5.71505688,7.45205553 C5.55372472,8.77667886 5.60846982,10.1516681 5.91288577,11.5291756 C5.99998025,11.9228691 6.10615257,12.3073289 6.22849958,12.6829746 C4.93079182,14.6044339 4.17058142,16.9275613 4.17058142,19.4303272 C4.17058142,19.5218252 4.17472878,19.6120641 4.17680245,19.7023031 C1.98368048,18.5896362 0.339253739,16.8356436 0.339253739,14.0755919 C0.339253739,7.9691455 3.94247683,2.71808007 9.11298583,0.37018941 C9.11671845,0.38655833 9.12003634,0.403346965 9.12418369,0.419715885" transform="translate(.192 1.174)"/>
        <path d="M11.6125974,9.23374946 C10.9444583,7.31061128 9.13786997,5.9293263 7.00903202,5.9293263 C5.870168,5.9293263 4.82544897,6.32679724 3.99514825,6.98743005 C2.28353434,5.63846319 0.991632873,3.7996879 0.202805719,1.74349978 C0.556575205,1.35778089 0.934814093,0.994306931 1.33213082,0.652658201 C2.5298873,0.337031855 3.7861215,0.167886354 5.08217032,0.167886354 C10.2953971,0.167886354 14.8786405,2.89184245 17.5258979,7.00715669 C15.76576,8.24112139 13.7236017,9.03816186 11.6125974,9.23374946" transform="translate(10.29 .063)"/>
      </g>
      <g transform="matrix(1 0 0 -1 34.836 28.351)">
        <mask id="casandra-logo-f" fill="#fff">
          <use xlink:href="#casandra-logo-e"/>
        </mask>
        <g mask="url(#casandra-logo-f)">
          <polygon fill="#FFF" points="14.952 9.394 19.471 10.453 14.935 10.681 18.626 13.455 14.438 11.978 17.284 15.857 13.353 13.288 14.727 17.828 12.028 14.086 11.966 18.815 10.19 14.602 8.709 18.865 8.789 13.844 6.229 18.345 7.614 13.566 3.462 16.535 6.715 12.516 1.56 14.38 5.628 11.42 .412 11.262 5.745 9.909 .407 8.774 5.676 8.398 1.233 5.6 5.809 7.231 2.634 3.278 6.645 6.459 5.201 1.153 8.298 5.471 7.864 .372 9.622 4.995 11.119 .136 11.482 5.009 13.704 .851 12.391 5.607 16.459 2.509 13.833 6.459 18.295 4.749 14.883 8.047 19.459 7.693" transform="translate(-.323 .076)"/>
        </g>
      </g>
      <g transform="matrix(1 0 0 -1 .891 28.515)">
        <mask id="casandra-logo-h" fill="#fff">
          <use xlink:href="#casandra-logo-g"/>
        </mask>
        <g fill="#373535" mask="url(#casandra-logo-h)" opacity=".35">
          <path d="M0,0 C13.9708859,14.2072884 25.1289613,18.5934029 35.2555762,20.5957045 C36.5955225,20.8605726 36.8489363,23.8381279 36.8489363,23.8381279 C36.8489363,23.8381279 37.0365122,21.6450706 37.9743918,21.3591479 C38.9118573,21.072804 40.1304796,24.7919056 40.1304796,24.7919056 C40.1304796,24.7919056 39.0054382,21.4543151 40.1304796,21.2635595 C41.2559351,21.072804 43.318442,24.5055618 43.318442,24.5055618 C43.318442,24.5055618 42.4749715,21.5499034 43.0376992,21.3591479 C43.5995988,21.1683923 46.4124094,25.649674 46.4124094,25.649674 C46.4124094,25.649674 44.7246402,22.6940156 46.3188284,22.4076718 C47.9134307,22.121749 50.2388752,24.4251328 50.2388752,24.4251328 C50.2388752,24.4251328 48.4103206,22.3175577 49.2252199,22.0265817 C52.6947532,20.7864601 55.5021808,25.3721731 55.5021808,25.3721731 C55.5021808,25.3721731 54.8516692,23.3614495 53.1639,21.1683923 C56.8201811,20.2150356 59.5360981,25.8168483 59.5360981,25.8168483 L56.8201811,20.2150356 C58.2267934,19.4515923 63.8532427,26.0311851 63.8532427,26.0311851 C63.8532427,26.0311851 60.9464371,20.8820484 59.258668,19.8335245 C60.1961335,19.0705023 63.5716718,22.121749 63.5716718,22.121749 C63.5716718,22.121749 60.8524421,18.6894123 61.8839026,18.4986567 C63.3840958,17.2589562 68.915722,24.8870729 68.915722,24.8870729 C68.915722,24.8870729 66.7596341,20.4057912 63.5716718,16.8774451 C66.2362435,15.5219437 72.8544021,24.219639 72.8544021,24.219639 C72.8544021,24.219639 72.6668262,21.4543151 67.8846755,17.0682006 C71.4477898,17.544879 76.0423645,24.4103945 76.0423645,24.4103945 C76.0423645,24.4103945 74.3545953,19.2612578 70.3223343,15.6381656 C73.8208528,16.0083072 79.4170746,24.7919056 79.4170746,24.7919056 C79.4170746,24.7919056 77.2609868,18.6894123 72.8544021,15.1610662 C77.7301336,14.0645376 84.762367,21.4543151 84.762367,21.4543151 C84.762367,21.4543151 81.9963469,16.2095901 78.3860282,14.0645376 C82.4182892,12.4913306 87.9503294,18.9753351 87.9503294,18.9753351 C87.9503294,18.9753351 82.4182892,10.2978523 73.6047057,10.6793634 C70.7128069,10.8044283 61.9654754,19.6015018 43.2248611,18.8797467 C18.4714656,17.925969 13.2209964,7.24660559 0,0" transform="translate(.167 .156)"/>
        </g>
        <path fill="#373535" d="M0,0 C13.9708859,14.2072884 25.1285472,18.5929818 35.2551621,20.5957045 C36.5955225,20.8605726 36.8489363,23.8377068 36.8489363,23.8377068 C36.8489363,23.8377068 37.0360981,21.6442284 37.9743918,21.3587268 C38.9118573,21.072804 40.1304796,24.7910635 40.1304796,24.7910635 C40.1304796,24.7910635 39.0054382,21.4534729 40.1304796,21.2631384 C41.2559351,21.072804 43.318442,24.5051407 43.318442,24.5051407 C43.318442,24.5051407 42.4749715,21.5494823 43.0368711,21.3587268 C43.5995988,21.1679712 46.4124094,25.649674 46.4124094,25.649674 C46.4124094,25.649674 44.7246402,22.6935945 46.3188284,22.4076718 C47.9126026,22.1213279 50.2388752,24.4247117 50.2388752,24.4247117 C50.2388752,24.4247117 48.4103206,22.3171366 49.2252199,22.0261606 C52.6947532,20.7864601 55.5013526,25.371752 55.5013526,25.371752 C55.5013526,25.371752 54.850841,23.3610284 53.1639,21.1679712 C56.8201811,20.2141934 59.5360981,25.8168483 59.5360981,25.8168483 L56.8201811,20.2141934 C58.2267934,19.4515923 63.8524145,26.0303429 63.8524145,26.0303429 C63.8524145,26.0303429 60.9464371,20.8820484 59.258668,19.8331034 C60.1961335,19.0700812 63.5716718,22.1213279 63.5716718,22.1213279 C63.5716718,22.1213279 60.8524421,18.6885701 61.8839026,18.4982356 C63.3840958,17.258114 68.915722,24.8866518 68.915722,24.8866518 C68.915722,24.8866518 66.758806,20.404949 63.5716718,16.877024 C66.2362435,15.5211015 72.8544021,24.2192179 72.8544021,24.2192179 C72.8544021,24.2192179 72.6668262,21.4534729 67.8846755,17.0673584 C71.4477898,17.5444579 76.0423645,24.4099734 76.0423645,24.4099734 C76.0423645,24.4099734 74.3545953,19.2608368 70.3223343,15.6373234 C73.8208528,16.007465 79.4170746,24.7910635 79.4170746,24.7910635 C79.4170746,24.7910635 77.2609868,18.6885701 72.8544021,15.1606451 C77.7301336,14.0641165 84.762367,21.4534729 84.762367,21.4534729 C84.762367,21.4534729 81.9963469,16.2095901 78.3860282,14.0641165 C82.4182892,12.4909095 87.9503294,18.974914 87.9503294,18.974914 C87.9503294,18.974914 82.4182892,10.2974312 73.6038776,10.6789423 C70.7128069,10.8044283 61.9654754,19.6015018 43.224447,18.8793256 C18.4714656,17.925969 13.2205823,7.24660559 0,0" transform="translate(.74 1.235)"/>
      </g>
      <g transform="matrix(1 0 0 -1 .166 48.845)">
        <g transform="translate(.415)">
          <mask id="casandra-logo-j" fill="#fff">
            <use xlink:href="#casandra-logo-i"/>
          </mask>
          <g fill="#373535" mask="url(#casandra-logo-j)" opacity=".35">
            <path d="M0,19.0160253 C7.40898161,15.3182352 14.1835131,19.5774115 22.7213755,17.1834592 C29.2125442,15.3628815 37.1159565,13.1185771 47.8409477,14.6634225 C58.5663543,16.2074411 67.7399134,20.8411504 72.1154173,29.1259365 C73.4794643,32.8228999 79.0299682,28.2830305 79.0299682,28.2830305 C79.0299682,28.2830305 74.9847772,29.9680157 75.079093,29.1722364 C75.1729933,28.3768705 81.1472949,25.6154129 81.1472949,25.6154129 C81.1472949,25.6154129 75.737226,27.3003981 76.0667079,26.0366592 C76.3961899,24.7729203 82.8399929,19.7179647 82.8399929,19.7179647 C82.8399929,19.7179647 75.5490099,25.2408799 74.9378271,24.4922272 C74.3258133,23.7431612 78.0423533,20.7005971 78.0423533,20.7005971 C78.0423533,20.7005971 71.8798356,24.4922272 69.7155587,23.3740022 C68.1591407,22.5707819 76.1136581,17.37734 76.1136581,17.37734 C76.1136581,17.37734 70.9387553,21.3095233 69.7155587,20.2797642 C68.4927776,19.2495917 75.5490099,10.8250791 75.5490099,10.8250791 C75.5490099,10.8250791 67.5512818,19.4372716 66.7522984,19.0160253 C65.9520686,18.594779 68.9626945,14.4757426 68.9626945,14.4757426 C68.9626945,14.4757426 65.0114038,18.7820455 63.9298886,18.0329795 C62.8479579,17.2839134 69.5747083,6.09794325 69.5747083,6.09794325 C69.5747083,6.09794325 62.2833098,17.5646065 59.2726839,15.6464683 C64.0005216,5.32572726 62.2363596,3.85115852 62.2363596,3.85115852 C62.2363596,3.85115852 61.6330711,14.3802491 55.74436,14.1016229 C52.7806842,13.9610697 57.1553571,6.23849648 57.1553571,6.23849648 C57.1553571,6.23849648 53.1288632,13.2917883 50.4473037,13.1512351 C55.3895332,3.84537103 53.6278642,0.0603552108 53.6278642,0.0603552108 C53.6278642,0.0603552108 54.4451291,8.00822701 47.7420615,12.4311065 C50.2819395,10.1851485 46.1482496,0.0603552108 46.1482496,0.0603552108 C46.1482496,0.0603552108 49.7846004,14.9800806 43.4662748,12.1355313 C42.4678571,11.6870011 43.3956418,4.69365112 43.3956418,4.69365112 C43.3956418,4.69365112 42.125495,12.6977442 40.2208982,12.2760845 C39.1102988,12.0309431 33.1642504,1.18354088 33.1642504,1.18354088 C33.1642504,1.18354088 38.033354,12.9081607 36.5517238,12.4166377 C35.4722861,12.058227 33.4467822,7.22112892 33.4467822,7.22112892 C33.4467822,7.22112892 34.4343971,11.9953914 33.4467822,12.2760845 C32.4591673,12.557191 26.9547825,7.22112892 26.9547825,7.22112892 C26.9547825,7.22112892 31.0477546,11.9953914 30.3418405,12.9784373 C29.2723745,14.4678881 28.0188472,14.5377514 26.5314003,13.9610697 C24.3671234,13.1218843 21.4512288,9.18722058 21.4512288,9.18722058 C21.4512288,9.18722058 24.3579827,13.1710779 23.8498409,14.6634225 C23.034238,17.0610952 14.6771128,10.0297132 14.6771128,10.0297132 C14.6771128,10.0297132 19.6164339,14.6634225 18.487553,15.6464683 C17.3586722,16.6291007 11.2285626,16.3252577 9.31440948,16.3306318 C3.66958982,16.3479943 1.71347242,17.6654741 0,19.0160253" transform="translate(.216 .281)"/>
          </g>
        </g>
        <path fill="#373535" d="M0,19.0160253 C7.40898161,15.3182352 14.1830976,19.5774115 22.72096,17.1830458 C29.2121287,15.3632949 37.1159565,13.1185771 47.8413632,14.6634225 C58.5667698,16.2078544 67.7394979,20.8415637 72.1150018,29.1255231 C73.4790488,32.8228999 79.0295527,28.2834439 79.0295527,28.2834439 C79.0295527,28.2834439 74.9843617,29.9680157 75.0786775,29.1722364 C75.1725778,28.3768705 81.1468794,25.6154129 81.1468794,25.6154129 C81.1468794,25.6154129 75.7368105,27.2999847 76.0662924,26.0362458 C76.3957744,24.7729203 82.8404084,19.7179647 82.8404084,19.7179647 C82.8404084,19.7179647 75.5485944,25.2412933 74.9374116,24.4918138 C74.3262288,23.7431612 78.0423533,20.7010105 78.0423533,20.7010105 C78.0423533,20.7010105 71.8794201,24.4918138 69.7155587,23.3744156 C68.1587252,22.5707819 76.1132426,17.3777534 76.1132426,17.3777534 C76.1132426,17.3777534 70.9383398,21.3095233 69.7155587,20.2797642 C68.4923621,19.2495917 75.5494254,10.8250791 75.5494254,10.8250791 C75.5494254,10.8250791 67.5512818,19.4372716 66.751883,19.0160253 C65.9524841,18.5943656 68.96311,14.476156 68.96311,14.476156 C68.96311,14.476156 65.0109883,18.7820455 63.9294731,18.0329795 C62.8475424,17.2843268 69.5742928,6.09794325 69.5742928,6.09794325 C69.5742928,6.09794325 62.2828943,17.5650199 59.2722684,15.6460549 C64.0001061,5.32572726 62.2359441,3.85115852 62.2359441,3.85115852 C62.2359441,3.85115852 61.6326556,14.3802491 55.7439445,14.1012096 C52.7802687,13.9606563 57.1549417,6.23849648 57.1549417,6.23849648 C57.1549417,6.23849648 53.1284477,13.2922017 50.4473037,13.1516485 C55.3899487,3.84537103 53.6274487,0.0603552108 53.6274487,0.0603552108 C53.6274487,0.0603552108 54.4447136,8.0086404 47.741646,12.4315199 C50.281524,10.1851485 46.1478342,0.0603552108 46.1478342,0.0603552108 C46.1478342,0.0603552108 49.7850159,14.9800806 43.4666902,12.1355313 C42.4682726,11.6865877 43.3960573,4.69365112 43.3960573,4.69365112 C43.3960573,4.69365112 42.1250796,12.6973308 40.2208982,12.2760845 C39.1098833,12.0309431 33.1638349,1.18354088 33.1638349,1.18354088 C33.1638349,1.18354088 38.0329385,12.9081607 36.5513083,12.4162244 C35.4718706,12.0586404 33.4463667,7.22154231 33.4463667,7.22154231 C33.4463667,7.22154231 34.4343971,11.9953914 33.4463667,12.2760845 C32.4587518,12.5567776 26.9547825,7.22154231 26.9547825,7.22154231 C26.9547825,7.22154231 31.0477546,11.9953914 30.341425,12.9784373 C29.271959,14.4678881 28.0184318,14.537338 26.5314003,13.9606563 C24.3667079,13.1218843 21.4508133,9.18722058 21.4508133,9.18722058 C21.4508133,9.18722058 24.3575672,13.1714913 23.8498409,14.6634225 C23.0338225,17.0606818 14.6771128,10.0297132 14.6771128,10.0297132 C14.6771128,10.0297132 19.6164339,14.6634225 18.4871376,15.6460549 C17.3582567,16.6291007 11.2281471,16.3248443 9.31399399,16.3306318 C3.66917433,16.3484077 1.71347242,17.6654741 0,19.0160253" transform="translate(.35 1.124)"/>
      </g>
    </g>
  </g>
</svg>
