<svg width="120" height="120" viewBox="0 0 120 120" fill="none" xmlns="http://www.w3.org/2000/svg">
<path d="M26.0781 69.1851L25.8594 69.334V69.5985V70.3588H26.3594V72.2594H25.8594V73.0196V73.4744L26.3121 73.5174L31.6516 74.0242L31.6989 73.5264L45.0476 74.7935L45.0004 75.2912L50.3399 75.7981L50.3635 75.8003H50.3871H51.5047V75.3003H54.2986V75.8003H55.3494L57.1475 76.2896L57.2788 75.8071L61.9354 77.0742L61.8041 77.5566L63.6667 78.0634L63.7036 78.0735L63.7417 78.0778L65.9768 78.3312L66.0331 77.8344L71.621 78.4679L71.5647 78.9647L73.7998 79.2182L73.8279 79.2213H73.8561H75.9671V78.7213H81.2445V79.2213H83.3555H83.3917L83.4276 79.2161L85.166 78.9627L85.0939 78.4679L89.44 77.8344L89.5121 78.3292L91.2506 78.0758L91.3029 78.0681L91.3524 78.0498L92.7183 77.5429L92.5444 77.0742L95.9592 75.8071L96.1331 76.2759L97.499 75.7691L97.5156 75.7629L97.5316 75.7557L98.6492 75.2488L98.4427 74.7935L101.237 73.5264L101.443 73.9818L102.561 73.475L102.6 73.4572L102.635 73.433L103.753 72.6728L103.472 72.2594L106.266 70.3588L106.547 70.7722L107.664 70.012L107.69 69.9949L107.712 69.9749L108.582 69.2147L108.252 68.8383L110.426 66.9377L110.755 67.3141L111.624 66.5539L111.651 66.5302L111.674 66.503L112.544 65.4893L112.164 65.1639L114.337 62.6298L114.717 62.9552L115.586 61.9416L115.633 61.8862L115.663 61.8196L116.284 60.4258L115.827 60.2223L117.379 56.738L117.836 56.9414L118.457 55.5477L118.65 55.1144L118.227 54.8988L117.234 54.392L117.007 54.8374L114.523 53.5703L114.75 53.1249L113.757 52.6181L111.77 51.6045L111.543 52.0499L106.576 49.5157L106.803 49.0704L104.817 48.0567L104.763 48.0293L104.704 48.0154L103.09 47.6353L102.975 48.122L98.9394 47.1717L99.054 46.685L97.4495 46.3072L96.0932 45.9298L95.9592 46.4115L92.5444 45.4612L92.6784 44.9795L91.3125 44.5994L91.2467 44.5811H91.1785H89.5642V45.0811H85.5285V44.5811H83.9142H82.1758V45.0811H77.8297V44.5811H76.0913H76.0372L75.9845 44.5926L74.246 44.9727L74.3528 45.4612L70.0067 46.4115L69.8999 45.923L68.1615 46.3031L68.153 46.305L68.1447 46.3071L66.6546 46.6872L66.7782 47.1717L63.0529 48.122L62.9293 47.6375L61.4393 48.0176L61.4137 48.0241L61.3889 48.0333L60.023 48.5402L60.1969 49.0089L56.7821 50.276L56.6082 49.8072L55.2423 50.314L55.2087 50.3265L55.1772 50.3436L53.3146 51.3573L53.5536 51.7964L48.897 54.3305L48.658 53.8914L46.7954 54.905L46.7705 54.9186L46.7473 54.9349L44.7605 56.3286L45.0476 56.738L40.0807 60.2223L39.7935 59.813L37.8097 61.2047L35.205 62.9766L35.4862 63.39L28.967 67.8247L28.6858 67.4113L26.0781 69.1851Z" fill="#F7F7FE" stroke="black" stroke-dasharray="8 10"/>
<path d="M93.745 50.3128C94.597 60.1332 79.1265 69.5053 59.1717 71.2093C39.217 72.9133 22.4012 66.3215 21.5492 56.501C20.6972 46.6806 36.1677 37.3086 56.1225 35.6046C76.0324 33.9006 92.893 40.4475 93.745 50.3128Z" fill="#BBE6FB"/>
<path d="M45.2269 46.5921C45.765 45.4262 46.5273 44.8881 47.2897 43.9464C47.2 43.7222 47.0206 42.9598 47.0206 42.7356C47.0206 41.5697 47.9623 40.6729 49.0833 40.6729C49.3524 40.6729 49.6215 40.7177 49.8457 40.8074C53.2985 38.1617 57.8276 37.0407 62.4015 38.0721C62.805 38.1617 63.2086 38.2963 63.6122 38.386C59.128 37.7582 54.016 39.3725 50.5631 42.1527C50.6528 42.4217 50.9667 43.0944 50.9667 43.4083C50.9667 44.5742 50.2044 44.8432 49.0833 44.8432C48.8143 44.8432 48.5901 44.7984 48.321 44.7087C47.5587 45.7401 46.5722 47.758 46.1238 49.0135C48.052 50.7175 49.756 51.3453 51.9981 52.1973C51.9981 52.1076 52.0878 51.9731 52.0878 51.8834C52.0878 48.4306 55.137 45.6055 58.5899 45.6055C61.684 45.6055 64.2848 47.8476 64.7781 50.8072C66.3476 49.8207 67.8274 49.0584 68.9484 47.6234C68.6794 47.3095 68.4103 46.3679 68.4103 45.9194C68.4103 44.8881 69.2623 44.0361 70.2937 44.0361C70.4282 44.0361 70.5627 44.0361 70.7421 44.0809C71.3251 42.8702 71.7735 41.6146 72.0425 40.3142C66.6166 36.2784 56.1236 36.8613 56.1236 36.8613C56.1236 36.8613 47.7829 36.4129 42.1328 39.1931C42.5364 41.794 43.6126 44.3948 45.2269 46.5921Z" fill="#373535"/>
<path d="M71.1452 45.0221C71.5488 45.3809 71.7282 45.6499 71.9076 45.9638C72.4008 46.8607 71.4143 47.7127 70.3381 47.7127C70.2484 47.7127 70.1139 47.7127 70.0242 47.6678C68.8583 49.5064 66.7956 51.8381 64.957 53.0489C67.7821 53.4973 70.4278 54.6184 72.4905 56.3672C74.0151 53.6318 75.181 49.6409 75.181 46.2777C75.181 43.7217 74.06 41.8383 72.356 40.4482C72.3111 41.8383 71.5488 43.7666 71.1452 45.0221Z" fill="#373535"/>
<path d="M48.3654 62.4209C49.307 59.82 51.594 57.847 53.7913 56.0981C53.4774 55.6497 52.9841 54.5735 52.8047 54.0802C50.159 53.2731 47.8272 51.7484 45.9887 49.7754C45.9887 49.8202 45.9439 49.9099 45.9439 49.9548C45.5851 51.4794 45.5403 53.0489 45.7197 54.5287C46.9752 54.7529 47.9618 55.8739 47.9618 57.2192C47.9618 58.0263 47.2443 59.1474 46.7062 59.6855C47.2443 60.8514 47.6479 61.4792 48.3654 62.4209Z" fill="#373535"/>
<path d="M48.1834 64.573C47.0623 63.4519 46.3 61.2546 45.5825 59.8645C45.448 59.8645 45.3135 59.9094 45.1789 59.9094C43.6543 59.9094 42.0848 58.6538 42.4436 57.174C42.6229 56.3668 43.2059 55.8287 44.1027 55.3803C43.8785 53.6763 43.8337 51.2997 44.2372 49.5508C44.3269 49.0576 44.596 48.8334 44.7305 48.3401C43.0713 45.9186 41.9951 42.69 41.9951 39.5062V39.1475C39.1701 40.5824 37.0625 42.7797 37.0625 46.2774C37.0625 54.0351 41.5467 61.6582 48.1834 64.6178V64.573Z" fill="#373535"/>
<path d="M64.5554 53.8555C63.7034 56.2769 61.3716 58.0706 58.6362 58.0706C57.1564 58.0706 55.8112 57.5774 54.7798 56.7254C52.5825 58.4294 50.5647 61.4338 49.5781 64.0795C50.0265 64.5727 50.3404 64.9763 50.8785 65.4247C52.4032 65.8283 54.5556 65.4247 56.2148 65.4247C62.8962 65.4247 68.8603 62.4652 72.2683 57.2186C69.9365 55.6043 67.2459 54.0797 64.5554 53.8555Z" fill="#373535"/>
<path d="M45.0513 47.4883C45.5894 46.3224 46.2172 45.291 46.9795 44.3045C46.8898 44.0803 46.845 43.8113 46.845 43.587C46.845 42.4211 47.7867 41.5243 48.9077 41.5243C49.1768 41.5243 49.4458 41.5691 49.67 41.6588C53.1229 39.0131 57.6519 37.8921 62.2258 38.9235C62.6294 39.0131 63.033 39.1477 63.4366 39.2374C58.9524 38.6096 54.2888 39.9997 50.8359 42.7799C50.9256 43.0489 51.0153 43.318 51.0153 43.587C51.0153 44.7529 50.0736 45.6498 48.9526 45.6498C48.6835 45.6498 48.4593 45.6049 48.1903 45.5153C47.4279 46.5466 46.7553 47.7125 46.3069 48.9681C47.966 50.7169 49.9839 52.1519 52.226 52.9591V52.6452C52.226 49.1923 55.0511 46.3673 58.5039 46.3673C61.5981 46.3673 64.1989 48.6094 64.6922 51.5689C66.2616 50.5824 67.6069 49.3268 68.7728 47.847C68.5037 47.5332 68.3244 47.1296 68.3244 46.6812C68.3244 45.6498 69.1764 44.7978 70.2077 44.7978C70.3423 44.7978 70.4768 44.7978 70.6562 44.8426C71.2391 43.6319 71.6875 42.3763 71.9566 41.0759C66.5307 37.0401 56.0376 37.623 56.0376 37.623C56.0376 37.623 47.697 37.1746 42.0469 39.9548C42.3608 42.6902 43.437 45.291 45.0513 47.4883Z" fill="#1287B1"/>
<path d="M71.4129 45.3357C71.8165 45.6944 72.0407 46.1877 72.0407 46.7258C72.0407 47.7572 71.1887 48.6092 70.1573 48.6092C70.0676 48.6092 69.9331 48.6092 69.8434 48.5643C68.6775 50.4028 67.1081 51.9723 65.2695 53.1382C67.9601 53.5418 70.5161 54.7077 72.6236 56.4565C74.1483 53.7212 75.0451 50.5374 75.0451 47.1742C75.0451 44.6182 73.9241 42.7348 72.2201 41.3447C72.1304 42.7348 71.8613 44.0801 71.4129 45.3357Z" fill="#1287B1"/>
<path d="M48.6419 63.0034C49.5836 60.4025 51.1979 58.1156 53.3952 56.3667C53.0813 55.9183 52.8122 55.4699 52.6329 54.9318C49.9872 54.1246 47.6554 52.6 45.8168 50.627C45.8168 50.6718 45.772 50.7615 45.772 50.8063C45.4133 52.331 45.3684 53.9004 45.5478 55.3802C46.8034 55.6044 47.7899 56.7255 47.7899 58.0707C47.7899 58.8779 47.4312 59.5954 46.8931 60.0886C47.3415 61.12 47.9693 62.1065 48.6419 63.0034Z" fill="#1287B1"/>
<path d="M48.1869 64.5287C47.0659 63.4077 46.1242 62.1521 45.4067 60.762C45.2722 60.762 45.1377 60.8068 45.0031 60.8068C43.4785 60.8068 42.2678 59.5961 42.2678 58.0715C42.2678 56.9953 42.8956 56.0536 43.7924 55.6051C43.5682 53.9011 43.6579 52.1971 44.0615 50.4483C44.1511 49.955 44.3305 49.4618 44.465 48.9685C42.8059 46.547 41.8194 43.5875 41.8194 40.4037V40.0449C38.9943 41.4799 36.8867 43.6771 36.8867 47.1748C36.8867 54.9325 41.5055 61.614 48.1421 64.5736C48.1869 64.5736 48.1869 64.5736 48.1869 64.5287Z" fill="#1287B1"/>
<path d="M64.3743 54.7529C63.5223 57.1744 61.1905 58.9681 58.4552 58.9681C56.9754 58.9681 55.6301 58.4748 54.5987 57.6228C52.4015 59.3268 50.7423 61.6586 49.7109 64.3043C50.1594 64.7976 50.6526 65.246 51.1459 65.6944C52.6705 66.098 54.2848 66.3222 55.944 66.3222C62.6255 66.3222 68.5446 62.8694 71.9526 57.6228C69.7105 56.0085 67.0648 54.9771 64.3743 54.7529Z" fill="#1287B1"/>
<path d="M2.85547 64.2148C20.8372 46.2331 35.1867 40.6727 48.2357 38.1616C49.9397 37.8477 50.2985 34.0361 50.2985 34.0361C50.2985 34.0361 50.5227 36.8163 51.7334 37.175C52.9441 37.5338 54.5136 32.8253 54.5136 32.8253C54.5136 32.8253 53.0787 37.0405 54.5136 37.3095C55.9486 37.5338 58.6391 33.1841 58.6391 33.1841C58.6391 33.1841 57.5629 36.906 58.2804 37.175C58.9978 37.3992 62.6301 31.7491 62.6301 31.7491C62.6301 31.7491 60.4776 35.471 62.4955 35.8746C64.5583 36.2333 67.5627 33.3186 67.5627 33.3186C67.5627 33.3186 65.2309 35.9643 66.2623 36.3679C70.7465 37.9373 74.3338 32.1527 74.3338 32.1527C74.3338 32.1527 73.4818 34.7087 71.3294 37.4889C76.0378 38.6997 79.5355 31.6146 79.5355 31.6146L76.0378 38.6997C77.8315 39.5965 85.0511 31.2559 85.0511 31.2559C85.0511 31.2559 81.3292 37.758 79.132 39.1032C80.3427 40.0898 84.6924 36.1885 84.6924 36.1885C84.6924 36.1885 81.1947 40.5382 82.54 40.7624C84.4682 42.3319 91.5981 32.6908 91.5981 32.6908C91.5981 32.6908 88.8179 38.3858 84.7372 42.8251C88.1452 44.574 96.6652 33.5877 96.6652 33.5877C96.6652 33.5877 96.441 37.0853 90.2528 42.6458C94.8267 42.0628 100.746 33.3634 100.746 33.3634C100.746 33.3634 98.5934 39.8656 93.3918 44.4843C97.876 44.0359 105.096 32.915 105.096 32.915C105.096 32.915 102.315 40.6279 96.6652 45.1121C102.943 46.5022 112.001 37.1302 112.001 37.1302C112.001 37.1302 108.459 43.7668 103.795 46.5022C108.997 48.4752 116.127 40.2691 116.127 40.2691C116.127 40.2691 108.997 51.2555 97.6518 50.7622C93.9299 50.5828 82.6745 39.462 58.5494 40.3588C26.6218 41.5247 19.8955 55.067 2.85547 64.2148Z" fill="#373535" fill-opacity="0.35"/>
<path d="M3.56641 62.8693C21.5481 44.8876 35.8976 39.3272 48.9467 36.816C50.6507 36.5021 51.0094 32.6905 51.0094 32.6905C51.0094 32.6905 51.2336 35.4707 52.4443 35.8295C53.6551 36.1882 55.2246 31.4798 55.2246 31.4798C55.2246 31.4798 53.7896 35.695 55.2246 35.964C56.6595 36.1882 59.35 31.8385 59.35 31.8385C59.35 31.8385 58.2738 35.5604 58.9913 35.8295C59.7088 36.0537 63.341 30.4036 63.341 30.4036C63.341 30.4036 61.1886 34.1255 63.2065 34.5291C65.2692 34.8878 68.2736 31.9731 68.2736 31.9731C68.2736 31.9731 65.9418 34.6187 66.9732 35.0223C71.4574 36.5918 75.0448 30.8072 75.0448 30.8072C75.0448 30.8072 74.1928 33.3632 72.0404 36.1434C76.7488 37.3541 80.2465 30.2691 80.2465 30.2691L76.7488 37.3541C78.5425 38.3406 85.8069 30 85.8069 30C85.8069 30 82.085 36.5021 79.8877 37.8474C81.0985 38.6994 85.4482 34.843 85.4482 34.843C85.4482 34.843 81.9505 39.1926 83.2957 39.4169C85.224 40.9863 92.3539 31.3453 92.3539 31.3453C92.3539 31.3453 89.5288 37.0402 85.4482 41.4796C88.8562 43.1836 97.421 32.1973 97.421 32.1973C97.421 32.1973 97.1968 35.695 91.0086 41.2554C95.5825 40.6724 101.502 31.9731 101.502 31.9731C101.502 31.9731 99.3492 38.4752 94.1475 43.0939C98.6318 42.6455 105.851 31.5246 105.851 31.5246C105.851 31.5246 103.071 39.2375 97.421 43.7217C103.699 45.1118 112.757 35.7398 112.757 35.7398C112.757 35.7398 109.215 42.3764 104.551 45.1118C109.753 47.0849 116.883 38.8787 116.883 38.8787C116.883 38.8787 109.753 49.8651 98.4075 49.3718C94.6856 49.1924 83.4303 38.0716 59.3052 38.9684C27.3776 40.1792 20.6064 53.6767 3.56641 62.8693Z" fill="#373535"/>
<path d="M2.40234 66.1881C11.9089 70.9414 20.6083 65.4706 31.5497 68.5647C39.8904 70.8965 50.0247 73.8113 63.7912 71.7934C77.5578 69.8203 89.3064 63.8115 94.9565 53.139C96.7054 48.3858 103.835 54.2152 103.835 54.2152C103.835 54.2152 98.6336 52.0628 98.7681 53.0493C98.9026 54.0807 106.571 57.6232 106.571 57.6232C106.571 57.6232 99.6201 55.4708 100.069 57.0851C100.472 58.6995 108.768 65.2464 108.768 65.2464C108.768 65.2464 99.3062 58.1614 98.5439 59.1479C97.7367 60.1344 102.535 64.0357 102.535 64.0357C102.535 64.0357 94.6426 59.1479 91.8624 60.5828C89.8445 61.6142 100.069 68.2957 100.069 68.2957C100.069 68.2957 93.4319 63.2285 91.8624 64.5738C90.293 65.919 99.3511 76.7708 99.3511 76.7708C99.3511 76.7708 89.0374 65.65 88.006 66.1881C86.9746 66.7262 90.8311 72.0624 90.8311 72.0624C90.8311 72.0624 85.8087 66.502 84.4186 67.4437C83.0285 68.4302 91.6831 82.8245 91.6831 82.8245C91.6831 82.8245 82.3111 68.0715 78.4098 70.5378C84.4635 83.8559 82.2214 85.7393 82.2214 85.7393C82.2214 85.7393 81.459 72.1521 73.8807 72.5108C70.0691 72.6902 75.6744 82.6452 75.6744 82.6452C75.6744 82.6452 70.5176 73.5422 67.0647 73.7216C73.3875 85.7393 71.1454 90.5822 71.1454 90.5822C71.1454 90.5822 72.1767 80.3134 63.6119 74.6184C66.8854 77.5332 61.5491 90.5822 61.5491 90.5822C61.5491 90.5822 66.2127 71.3449 58.0963 75.022C56.7959 75.6049 58.0066 84.6182 58.0066 84.6182C58.0066 84.6182 56.3923 74.3045 53.926 74.8426C52.491 75.1565 44.8679 89.1473 44.8679 89.1473C44.8679 89.1473 51.1009 74.0355 49.2175 74.6633C47.8274 75.1117 45.2266 81.3447 45.2266 81.3447C45.2266 81.3447 46.4822 75.2014 45.2266 74.8426C43.971 74.4839 36.886 81.3447 36.886 81.3447C36.886 81.3447 42.1325 75.2014 41.2356 73.9009C39.8455 71.9727 38.2761 71.8831 36.3478 72.6454C33.5676 73.7216 29.8457 78.7887 29.8457 78.7887C29.8457 78.7887 33.5676 73.6319 32.9398 71.7485C31.9085 68.6544 21.1912 77.7125 21.1912 77.7125C21.1912 77.7125 27.5139 71.7485 26.079 70.4481C24.644 69.1925 16.7518 69.5513 14.3304 69.5513C7.11077 69.6409 4.59961 67.9369 2.40234 66.1881Z" fill="#373535" fill-opacity="0.35"/>
<path d="M2 65.1119C11.5065 69.8652 20.2059 64.3945 31.1474 67.4886C39.488 69.8204 49.6224 72.7351 63.3889 70.7172C77.1554 68.7441 88.9041 62.7353 94.5542 52.0629C96.303 47.3096 103.433 53.1391 103.433 53.1391C103.433 53.1391 98.2313 50.9867 98.3658 51.9732C98.5003 53.0045 106.168 56.5471 106.168 56.5471C106.168 56.5471 99.2178 54.3947 99.6662 56.009C100.07 57.6233 108.366 64.1702 108.366 64.1702C108.366 64.1702 98.9936 57.0403 98.2313 58.0269C97.4689 59.0134 102.222 62.9147 102.222 62.9147C102.222 62.9147 94.33 58.0269 91.5498 59.4618C89.5319 60.4932 99.7559 67.1747 99.7559 67.1747C99.7559 67.1747 93.1192 62.1075 91.5498 63.4528C89.9803 64.798 99.0384 75.6498 99.0384 75.6498C99.0384 75.6498 88.7696 64.529 87.7382 65.0671C86.7068 65.6052 90.5632 70.9414 90.5632 70.9414C90.5632 70.9414 85.4512 65.4258 84.0611 66.3675C82.671 67.354 91.2807 81.7484 91.2807 81.7484C91.2807 81.7484 81.9087 66.9505 78.0523 69.4168C84.1508 82.7797 81.8639 84.6631 81.8639 84.6631C81.8639 84.6631 81.1015 71.0759 73.5232 71.4347C69.7116 71.614 75.3169 81.569 75.3169 81.569C75.3169 81.569 70.2049 72.5109 66.7521 72.6903C73.0748 84.7079 70.8327 89.5509 70.8327 89.5509C70.8327 89.5509 71.8641 79.282 63.2992 73.5871C66.5727 76.5018 61.2365 89.5509 61.2365 89.5509C61.2365 89.5509 65.9001 70.3136 57.7836 73.9907C56.4832 74.5736 57.6939 83.5869 57.6939 83.5869C57.6939 83.5869 56.0796 73.2732 53.6133 73.8113C52.1784 74.1252 44.5552 88.116 44.5552 88.116C44.5552 88.116 50.7883 73.0041 48.9049 73.6319C47.5148 74.0804 44.9139 80.3134 44.9139 80.3134C44.9139 80.3134 46.1695 74.17 44.9139 73.8113C43.6584 73.4526 36.5733 80.3134 36.5733 80.3134C36.5733 80.3134 41.8198 74.17 40.923 72.8696C39.5329 70.9414 37.9634 70.8517 36.0352 71.614C33.255 72.6903 29.5331 77.7574 29.5331 77.7574C29.5331 77.7574 33.255 72.6006 32.6272 70.7172C31.5958 67.6231 20.8785 76.6812 20.8785 76.6812C20.8785 76.6812 27.2013 70.7172 25.7663 69.4168C24.3314 68.1612 16.4392 68.5199 14.0177 68.5199C6.70843 68.5648 4.19727 66.8608 2 65.1119Z" fill="#373535"/>
</svg>
