<svg xmlns="http://www.w3.org/2000/svg" width="82" height="83" viewBox="0 0 82 83">
  <g fill="none" fill-rule="evenodd" transform="translate(.25)">
    <path fill="#9C91FF" fill-opacity=".08" stroke="#000" stroke-dasharray="8 10" stroke-linecap="round" stroke-linejoin="round" d="M16,65 L48,82 L81,65 L81,59 L72,57 L72,48 L66,48 L66,17.983338 L39,8 L32,11 L32,20 L28,20 L22,22 L22,57.0570963 L16,59 L16,65 Z"/>
    <polyline fill="#B7CA9D" points="71 55.17 35.512 49.97 0 55.176 35.503 68.299 71 55.17"/>
    <polyline fill="#4B612C" points="7.139 54.659 13.151 56.53 13.698 55.911 13.698 14.028 13.151 13.313 7.139 15.602 7.139 54.659"/>
    <polyline fill="#759C3E" points="34.342 52.808 13.12 56.53 13.12 13.313 34.342 18.078 34.342 52.808"/>
    <polyline fill="#4B612C" points="24.931 60.196 16.592 57.642 16.592 4.142 24.931 0 25.66 .79 25.66 59.312 24.931 60.196"/>
    <polyline fill="#759C3E" points="53.25 53.536 24.889 60.196 24.889 0 53.25 11.064 53.25 53.536"/>
    <polyline fill="#4B612C" points="35.5 67.784 0 55.179 0 62.49 35.5 80.261 35.5 67.784"/>
    <polyline fill="#759C3E" points="71 62.487 35.5 80.261 35.5 67.788 71 55.179 71 62.487"/>
    <polyline fill="#B7CA9D" points="61.16 43.217 52.542 43.217 27.976 44.896 35.595 46.304 61.16 43.217"/>
    <polyline fill="#4B612C" points="27.783 60.989 35.472 63.283 35.693 63.046 35.686 45.797 35.465 45.586 27.783 44.761 27.783 60.989"/>
    <polyline fill="#759C3E" points="60.967 43.217 35.5 45.705 35.506 63.283 60.967 55.607 60.967 43.217"/>
  </g>
</svg>
