<svg width="140" height="140" viewBox="0 0 140 140" fill="none" xmlns="http://www.w3.org/2000/svg">
<g clip-path="url(#clip0)">
<path d="M15.8496 89.792L21.0027 105.633L40.4064 94.4998L15.8496 89.792Z" fill="white" stroke="black" stroke-width="1.27237" stroke-miterlimit="10" stroke-linejoin="round"/>
<path d="M53.0667 107.54V100.987L46.832 104.423V111.484" fill="white"/>
<path d="M53.0667 107.54V100.987L46.832 104.423V111.484" stroke="black" stroke-width="1.27237" stroke-miterlimit="10" stroke-linejoin="round"/>
<path d="M46.8306 111.486L53.0653 107.987V74.1416L46.5762 76.8136L46.8306 111.486Z" fill="white" stroke="black" stroke-width="1.27237" stroke-miterlimit="10" stroke-linejoin="round"/>
<path d="M58.7312 119.948L68.0195 140.815C68.274 141.324 68.8466 141.515 69.2283 141.197L80.9977 132.608C81.5703 132.163 81.5067 131.081 80.8705 130.7L59.7491 118.421C58.9857 118.04 58.2222 119.058 58.7312 119.948Z" fill="white" stroke="black" stroke-width="1.27237" stroke-miterlimit="10" stroke-linejoin="round"/>
<path d="M67.1222 138.206L73.2932 134.77V90.9372L59.6152 85.4023L67.1222 90.3646V138.206Z" fill="white" stroke="black" stroke-width="1.27237" stroke-miterlimit="10" stroke-linejoin="round"/>
<path d="M59.7478 119.119L59.048 118.355C60.0023 118.483 59.048 118.355 59.048 118.355L51.9863 123L76.1614 136.232L81.06 132.67C81.6962 132.224 81.06 130.697 80.7419 130.57L76.9884 128.598" stroke="black" stroke-width="1.27237" stroke-miterlimit="10" stroke-linejoin="round"/>
<path d="M53.3848 122.81L58.9832 119.057V119.502V125.546L53.3848 122.81Z" fill="white"/>
<path d="M68.2703 129.871L71.1331 126.69C71.324 126.499 71.5149 125.927 71.7693 126.118L79.658 130.825C81.1213 131.334 80.7396 132.225 80.2942 132.416L76.4135 135.088C76.2226 135.279 75.3956 135.151 75.1411 135.024L68.3975 130.889C68.0794 130.634 68.0158 130.189 68.2703 129.871Z" fill="white"/>
<path d="M76.0947 136.233L67.1244 130.825V90.3638L59.6174 84.4473V126.69L52.7466 122.937C51.9832 122.491 51.2198 123.573 51.6651 124.463L62.2894 145.33C62.5439 145.839 63.1165 146.03 63.4982 145.712L75.0768 137.06C75.6493 136.615 76.0947 136.233 76.0947 136.233Z" fill="#9595EF" stroke="black" stroke-width="1.27237" stroke-miterlimit="10" stroke-linejoin="round"/>
<path d="M16.0405 82.0303L15.8496 89.6009L28.7006 93.4816" fill="white"/>
<path d="M16.0405 82.0303L15.8496 89.6009L28.7006 93.4816" stroke="black" stroke-width="1.27237" stroke-miterlimit="10" stroke-linejoin="round"/>
<path d="M28.699 101.179L46.8303 111.485V104.423L46.5758 81.0117V76.8129L39.5778 73.5684V92.8448V100.415L20.4922 89.7911V96.4075" fill="white"/>
<path d="M28.699 101.179L46.8303 111.485V104.423L46.5758 81.0117V76.8129L39.5778 73.5684V92.8448V100.415L20.4922 89.7911V96.4075" stroke="black" stroke-width="1.27237" stroke-miterlimit="10" stroke-linecap="round" stroke-linejoin="round"/>
<path d="M39.4507 93.3544L34.1068 90.4279L39.1962 87.5015L38.9418 86.42L16.0391 82.0303L21.1922 97.8077L27.8085 94.0542L39.578 100.416" fill="#9595EF"/>
<path d="M39.4507 93.3544L34.1068 90.4279L39.1962 87.5015L38.9418 86.42L16.0391 82.0303L21.1922 97.8077L27.8085 94.0542L39.578 100.416" stroke="black" stroke-width="1.27237" stroke-miterlimit="10" stroke-linejoin="round"/>
<path d="M16.5488 85.8486L20.4932 97.9998L20.4296 101.69L16.5488 89.793V85.8486Z" fill="white"/>
<path d="M21.1928 97.8066L21.002 105.632" stroke="black" stroke-width="1.27237" stroke-miterlimit="10" stroke-linejoin="round"/>
<path d="M39.5801 100.416V92.8457" stroke="black" stroke-width="1.27237" stroke-miterlimit="10" stroke-linecap="round" stroke-linejoin="round"/>
<path d="M46.5762 83.6846L46.8306 105.315" stroke="black" stroke-width="1.27237" stroke-miterlimit="10" stroke-linecap="round" stroke-linejoin="round"/>
<path d="M91.3022 132.289V106.651L85.0039 106.015V131.653V132.798V136.233L109.942 149.975V142.977L91.3022 132.289Z" fill="white" stroke="black" stroke-width="1.27237" stroke-miterlimit="10" stroke-linejoin="round"/>
<path d="M91.3008 132.287L107.396 141.448L99.444 145.774L126.546 150.419L122.728 133.051L113.758 137.949L98.4897 129.297L97.0265 128.47L96.6447 106.013L91.3008 106.649V132.478" fill="#9595EF"/>
<path d="M91.3008 132.287L107.396 141.448L99.444 145.774L126.546 150.419L122.728 133.051L113.758 137.949L98.4897 129.297L97.0265 128.47L96.6447 106.013L91.3008 106.649V132.478" stroke="black" stroke-width="1.27237" stroke-miterlimit="10" stroke-linejoin="round"/>
<path d="M101.415 47.5486C99.5069 46.3398 97.4075 45.3219 95.1809 44.6221C91.8727 32.4073 83.475 20.5743 73.0416 13.8307C67.1887 10.0136 60.8904 10.0136 55.8645 12.6856H55.8009C55.7373 12.6856 55.7373 12.7492 55.6737 12.7492L42.5682 20.1289L47.8486 21.6558C47.3396 22.8009 46.9579 24.0733 46.6398 25.3457C46.0673 24.964 45.4311 24.5822 44.8585 24.2005C40.0235 21.2741 34.934 21.4013 31.0533 23.6916L17.6934 31.135L24.755 34.8885C24.755 35.2702 24.755 35.6519 24.755 36.0336C25.0731 48.8209 33.7253 63.8349 44.7949 70.6421C62.29 80.7575 79.8488 90.682 97.4711 100.479C97.8529 100.734 98.2982 100.925 98.6799 101.115L95.1172 103.66L96.3896 108.177L110.322 101.561C115.157 99.5886 118.847 94.7536 119.738 88.519C121.901 73.8867 114.012 55.5645 101.415 47.5486Z" fill="#9595EF" stroke="black" stroke-width="1.27237" stroke-miterlimit="10" stroke-linejoin="round"/>
<path d="M90.6013 53.2742C88.6928 52.0654 86.5933 51.0475 84.3667 50.3477C81.0585 38.133 72.6609 26.3635 62.2274 19.5563C51.0941 12.3038 38.5613 18.7929 35.8893 31.0713C35.3167 30.6896 34.6805 30.3079 34.108 29.9262C24.3743 24.0096 13.75 30.5623 14.0045 41.8228C14.3226 54.6102 22.9747 69.6242 34.0444 76.4314C51.5395 86.5467 69.0982 96.4713 86.7206 106.269C96.9632 111.931 107.397 105.505 109.051 94.3082C111.087 79.6123 103.198 61.2901 90.6013 53.2742Z" fill="white" stroke="black" stroke-width="1.27237" stroke-miterlimit="10" stroke-linejoin="round"/>
</g>
<defs>
<clipPath id="clip0">
<rect width="140" height="140" fill="white"/>
</clipPath>
</defs>
</svg>
