<svg width="140" height="140" viewBox="0 0 140 140" fill="none" xmlns="http://www.w3.org/2000/svg">
<path d="M70 36L104.641 56V96L70 116L35.359 96V56L70 36Z" fill="#654BF1" fill-opacity="0.08" stroke="black" stroke-linecap="round" stroke-linejoin="round" stroke-dasharray="8 8"/>
<path d="M35.2285 80.2563L35.7864 80.8895L63.9658 88.8773L64.0935 83.926L44.3578 78.9734L43.392 78.625L35.2285 80.2563Z" fill="#B7CA9D"/>
<path d="M92.4041 80.2559L63.6247 89.8622L63.5391 83.9256L83.2746 78.973L84.1347 78.0049L92.4041 80.2559Z" fill="#B7CA9D"/>
<path d="M63.5391 46.3211L83.2746 50.9207L91.9542 50.5089L92.4041 49.6391L64.9066 39.7412L63.5391 46.3211Z" fill="#3C4929"/>
<path d="M44.3579 78.9728L35.2287 80.2557L34.9746 79.3079V50.6367L35.2287 49.6387L43.4778 50.2522L44.3579 50.9213V78.9728Z" fill="#759C3E"/>
<path d="M64.0935 46.3207L44.3578 50.9203L35.2285 49.6387L35.5726 49.0985L63.9658 41.0176L64.0935 46.3207Z" fill="#3C4929"/>
<path d="M63.7765 25L31 41.5441L31.0156 88.3615L63.7765 104.897L64.2647 104.156V25.9614L63.7765 25ZM54.1922 85.948L35.2279 80.2565V49.6394L54.1922 43.95V85.948ZM83.2736 78.9736L92.4031 80.2565L92.9146 79.3515V50.5093L92.4031 49.6394L83.2736 50.9221V78.9736Z" fill="#4B612C"/>
<path d="M63.7773 104.897L96.6173 88.3626L96.6329 41.5454L63.7773 25V104.897ZM73.4394 43.95L92.404 49.6394V80.2565L73.4394 85.948V43.95Z" fill="#759C3E"/>
</svg>
