<svg width="160" height="160" viewBox="0 0 160 160" fill="none" xmlns="http://www.w3.org/2000/svg">
<path opacity="0.585045" fill-rule="evenodd" clip-rule="evenodd" d="M108.942 53.9479C131.705 70.8319 161.975 59.8642 159.899 89.8375C157.823 119.811 127.478 128.48 59.1065 127.671C-9.26479 126.862 -6.31943 88.4253 9.06309 67.2146C16.7546 56.6088 36.2157 37.1802 56.5799 33.536C76.9441 29.8923 97.8505 45.721 108.942 53.9479" fill="#9595EF"/>
<path d="M23.8994 87.0708L29.1885 103.33L49.1044 91.9029L23.8994 87.0708Z" fill="white" stroke="black" stroke-width="1.5" stroke-miterlimit="10" stroke-linejoin="round"/>
<path d="M62.0984 105.288V98.5625L55.6992 102.089V109.337" fill="white"/>
<path d="M62.0984 105.288V98.5625L55.6992 102.089V109.337" stroke="black" stroke-width="1.5" stroke-miterlimit="10" stroke-linejoin="round"/>
<path d="M55.6977 109.337L62.0969 105.746V71.0073L55.4365 73.7498L55.6977 109.337Z" fill="white" stroke="black" stroke-width="1.5" stroke-miterlimit="10" stroke-linejoin="round"/>
<path d="M67.9113 118.023L77.4448 139.441C77.706 139.963 78.2937 140.159 78.6855 139.832L90.7656 131.017C91.3533 130.56 91.288 129.45 90.635 129.058L68.9561 116.456C68.1725 116.064 67.3889 117.109 67.9113 118.023Z" fill="white" stroke="black" stroke-width="1.5" stroke-miterlimit="10" stroke-linejoin="round"/>
<path d="M76.5255 136.762L82.8594 133.236V88.2459L68.8203 82.5649L76.5255 87.6582V136.762Z" fill="white" stroke="black" stroke-width="1.5" stroke-miterlimit="10" stroke-linejoin="round"/>
<path d="M68.9566 117.171L68.2383 116.388C69.2178 116.518 68.2383 116.388 68.2383 116.388L60.9902 121.154L85.8035 134.736L90.8314 131.08C91.4844 130.623 90.8314 129.055 90.5049 128.925L86.6523 126.901" stroke="black" stroke-width="1.5" stroke-miterlimit="10" stroke-linejoin="round"/>
<path d="M62.4258 120.96L68.172 117.108V117.565V123.768L62.4258 120.96Z" fill="white"/>
<path d="M77.7022 128.208L80.6406 124.943C80.8365 124.747 81.0324 124.159 81.2936 124.355L89.3905 129.187C90.8924 129.71 90.5006 130.624 90.0435 130.82L86.0603 133.562C85.8644 133.758 85.0156 133.628 84.7544 133.497L77.8328 129.253C77.5063 128.991 77.441 128.534 77.7022 128.208Z" fill="white"/>
<path d="M85.7342 134.737L76.5272 129.187V87.6577L68.822 81.585V124.943L61.7699 121.09C60.9863 120.633 60.2027 121.743 60.6598 122.657L71.5646 144.075C71.8257 144.597 72.4134 144.793 72.8052 144.467L84.6894 135.586C85.2771 135.129 85.7342 134.737 85.7342 134.737Z" fill="#9595EF" stroke="black" stroke-width="1.5" stroke-miterlimit="10" stroke-linejoin="round"/>
<path d="M24.0953 79.1045L23.8994 86.8749L37.0896 90.8581" fill="white"/>
<path d="M24.0953 79.1045L23.8994 86.8749L37.0896 90.8581" stroke="black" stroke-width="1.5" stroke-miterlimit="10" stroke-linejoin="round"/>
<path d="M37.0855 98.7587L55.6955 109.337V102.089L55.4343 78.0593V73.7496L48.2515 70.4194V90.2047V97.9752L28.6621 87.0704V93.8614" fill="white"/>
<path d="M37.0855 98.7587L55.6955 109.337V102.089L55.4343 78.0593V73.7496L48.2515 70.4194V90.2047V97.9752L28.6621 87.0704V93.8614" stroke="black" stroke-width="1.5" stroke-miterlimit="10" stroke-linecap="round" stroke-linejoin="round"/>
<path d="M48.1214 90.7275L42.6364 87.7238L47.8602 84.7201L47.5991 83.6101L24.0918 79.1045L29.3809 95.2984L36.1719 91.4458L48.252 97.9756" fill="#9595EF"/>
<path d="M48.1214 90.7275L42.6364 87.7238L47.8602 84.7201L47.5991 83.6101L24.0918 79.1045L29.3809 95.2984L36.1719 91.4458L48.252 97.9756" stroke="black" stroke-width="1.5" stroke-miterlimit="10" stroke-linejoin="round"/>
<path d="M24.6172 83.0234L28.6657 95.4953L28.6004 99.2826L24.6172 87.0719V83.0234Z" fill="white"/>
<path d="M29.3834 95.2979L29.1875 103.33" stroke="black" stroke-width="1.5" stroke-miterlimit="10" stroke-linejoin="round"/>
<path d="M48.2549 97.976V90.2056" stroke="black" stroke-width="1.5" stroke-miterlimit="10" stroke-linecap="round" stroke-linejoin="round"/>
<path d="M55.4365 80.8027L55.6977 103.004" stroke="black" stroke-width="1.5" stroke-miterlimit="10" stroke-linecap="round" stroke-linejoin="round"/>
<path d="M101.342 130.69V104.375L94.8779 103.722V130.037V131.213V134.739L120.475 148.843V141.66L101.342 130.69Z" fill="white" stroke="black" stroke-width="1.5" stroke-miterlimit="10" stroke-linejoin="round"/>
<path d="M101.342 130.688L117.862 140.091L109.7 144.531L137.517 149.298L133.599 131.472L124.392 136.5L108.72 127.619L107.219 126.77L106.827 103.72L101.342 104.373V130.884" fill="#9595EF"/>
<path d="M101.342 130.688L117.862 140.091L109.7 144.531L137.517 149.298L133.599 131.472L124.392 136.5L108.72 127.619L107.219 126.77L106.827 103.72L101.342 104.373V130.884" stroke="black" stroke-width="1.5" stroke-miterlimit="10" stroke-linejoin="round"/>
<path d="M109.698 144.532L109.567 149.233L137.319 154L137.515 149.298L109.698 144.532Z" fill="white" stroke="black" stroke-width="1.5" stroke-miterlimit="10" stroke-linejoin="round"/>
<path d="M111.723 43.7128C109.764 42.4721 107.609 41.4274 105.324 40.7091C101.928 28.1719 93.3091 16.0265 82.6002 9.10488C76.5928 5.187 70.1283 5.187 64.9698 7.92951H64.9045C64.8392 7.92951 64.8392 7.99481 64.7739 7.99481L51.3225 15.5694L56.7422 17.1365C56.2199 18.3119 55.8281 19.6178 55.5016 20.9238C54.9139 20.532 54.2609 20.1402 53.6732 19.7484C48.7106 16.7447 43.4868 16.8753 39.5036 19.2261L25.791 26.8659L33.0391 30.7185C33.0391 31.1103 33.0391 31.5021 33.0391 31.8939C33.3656 45.0187 42.2461 60.4291 53.6079 67.4159C71.5649 77.7983 89.5871 87.9848 107.675 98.0407C108.066 98.3019 108.524 98.4978 108.915 98.6937L105.259 101.306L106.565 105.942L120.865 99.1507C125.827 97.1265 129.615 92.1639 130.529 85.7647C132.749 70.7461 124.652 51.9403 111.723 43.7128Z" fill="#9595EF" stroke="black" stroke-width="1.5" stroke-miterlimit="10" stroke-linejoin="round"/>
<path d="M100.623 49.5896C98.6644 48.349 96.5096 47.3042 94.2241 46.5859C90.8286 34.0487 82.2093 21.9686 71.5004 14.9817C60.0733 7.53773 47.2096 14.1981 44.4671 26.8006C43.8794 26.4088 43.2264 26.017 42.6388 25.6253C32.6482 19.5526 21.7434 26.2782 22.0046 37.836C22.3311 50.9609 31.2116 66.3712 42.5735 73.3581C60.5304 83.7404 78.5526 93.9269 96.6402 103.983C107.153 109.794 117.862 103.199 119.56 91.7068C121.649 76.623 113.552 57.8172 100.623 49.5896Z" fill="white" stroke="black" stroke-width="1.5" stroke-miterlimit="10" stroke-linejoin="round"/>
</svg>
