<svg xmlns="http://www.w3.org/2000/svg" width="148" height="119" viewBox="0 0 148 119">
    <g fill="none" fill-rule="evenodd">
        <path fill="#9595EF" d="M121.428 51.19c-2.637-1.674-5.467-3.021-8.482-3.965C108.372 30.5 96.948 14.41 82.684 5.13 74.64-.103 66.04-.073 59.18 3.59v-.002l-.053.03-.163.09-17.974 10.03 7.245 2.082a28.335 28.335 0 0 0-1.623 5.076c-.813-.56-1.67-1.08-2.478-1.57-6.64-4.032-13.612-3.807-18.871-.655L7 28.846l9.672 5.096c-.023.522-.033 1.05-.02 1.59.425 17.453 12.288 37.988 27.376 47.284 23.886 13.784 47.901 27.318 72.01 40.706.553.308 1.105.579 1.657.834l-4.91 3.512 1.758 6.132 19.07-9.006c6.641-2.73 11.67-9.258 12.912-17.8 2.913-20.031-7.83-45.044-25.097-56.004"/>
        <path stroke="#000" stroke-linejoin="round" d="M121.428 51.19c-2.637-1.674-5.467-3.021-8.482-3.965C108.372 30.5 96.948 14.41 82.684 5.13 74.64-.103 66.04-.073 59.18 3.59c-.072.038-6.135 3.42-18.19 10.147l7.245 2.083a28.335 28.335 0 0 0-1.623 5.076c-.813-.56-1.67-1.08-2.478-1.57-6.64-4.032-13.612-3.807-18.871-.655L7 28.846l9.672 5.096c-.023.522-.033 1.05-.02 1.59.425 17.453 12.288 37.988 27.376 47.284 23.886 13.784 47.901 27.318 72.01 40.706.553.308 1.105.579 1.657.834l-4.91 3.512 1.758 6.132 6.885-2.147c21.292-10.407 23.856-16.117 25.097-24.66 2.913-20.03-7.83-45.043-25.097-56.003z"/>
        <path fill="#FFF" d="M105.498 58.034c-2.63-1.67-5.452-3.012-8.46-3.952-4.56-16.67-15.954-32.71-30.179-41.963-15.17-9.868-32.333-.972-35.974 15.718-.81-.56-1.666-1.078-2.47-1.566-13.232-8.03-27.78.876-27.408 16.154.424 17.398 12.255 37.869 27.302 47.136 23.82 13.74 47.77 27.231 71.814 40.579 13.943 7.74 28.192-1.074 30.403-16.279 2.905-19.967-7.809-44.902-25.028-55.827"/>
        <path stroke="#000" stroke-linejoin="round" d="M105.498 58.034c-2.63-1.67-5.452-3.012-8.46-3.952-4.56-16.67-15.954-32.71-30.179-41.963-15.17-9.868-32.333-.972-35.974 15.718-.81-.56-1.666-1.078-2.47-1.566-13.232-8.03-27.78.876-27.408 16.154.424 17.398 12.255 37.869 27.302 47.136 23.82 13.74 47.77 27.231 71.814 40.579 13.943 7.74 28.192-1.074 30.403-16.279 2.905-19.967-7.809-44.902-25.028-55.827z"/>
        <path fill="#9595EF" d="M45.076 109.58c-4.6-2.648-7.868-8.023-7.929-13.27-.055-4.742 3.698-6.828 8.024-4.306 4.597 2.68 8.062 8.053 8.183 13.326.109 4.722-3.904 6.768-8.278 4.25m25.16 1.898c-.083-.773-.943-1.78-1.683-2.176-2.395-1.282-4.497-3.816-5.378-6.466-.903-2.713-.335-4.998 1.428-5.664.556-.207.623-1.026.154-1.878a60.752 60.752 0 0 0-4.076-6.434c-.583-.802-1.431-1.21-1.93-.916-1.506.887-4.192.035-6.237-2.021-2.126-2.146-3.436-5.19-3.3-7.581.047-.75-.475-1.72-1.184-2.212-1.809-1.252-3.613-2.282-5.395-3.066-.689-.305-1.202.066-1.185.845.06 2.486-1.263 4.008-3.272 3.802-.845-.087-1.795-.528-2.706-1.203l-.003-.001a11.07 11.07 0 0 1-3.03-3.5c-.447-.819-1.202-1.307-1.731-1.13-.13.043-.249.099-.375.147-.872.168-1.608.748-1.608.748l-.022.015c-.354.205-.693.437-1.02.68l-4.12 2.742 1.832 5.676 3.189.697a3.933 3.933 0 0 1-.25.714c-.796 1.703-2.72 1.98-4.864.73-.695-.433-1.187-.167-1.263.535-.194 1.834-.196 3.815-.015 5.887.066.773.792 1.755 1.415 2.131 1.891 1.08 3.744 3.586 4.511 6.282.764 2.691.23 4.992-1.285 5.709-.474.226-.539 1.045-.148 1.884a53.036 53.036 0 0 0 3.49 6.326c.512.794 1.27 1.18 1.728.877 1.382-.925 3.873-.122 5.82 1.904 2.037 2.119 3.339 5.152 3.192 7.549-.047.752.47 1.718 1.179 2.204.928.634 1.87 1.211 2.82 1.732.9.494 1.81.933 2.721 1.32.721.305 1.262-.063 1.24-.844-.075-2.485 1.3-4.001 3.446-3.772.899.097 1.914.542 2.898 1.217l2.34 7.079 6.17-3.682c.013-.009.029-.017.043-.027l.026-.015-.001-.001c.31-.19.614-.392.906-.607.476-.35.407-1.254-.157-2.062-1.801-2.58-2.385-5.51-1.459-7.267.872-1.655 2.99-1.947 5.292-.733.129.07.192.107.323.178.746.455 1.434.245 1.525-.466.23-1.827.233-3.806.009-5.886"/>
        <path stroke="#000" stroke-linejoin="round" d="M45.076 109.58c-4.6-2.648-7.868-8.023-7.929-13.27-.055-4.742 3.698-6.828 8.024-4.306 4.597 2.68 8.062 8.053 8.183 13.326.109 4.722-3.904 6.768-8.278 4.25zm25.16 1.898c-.083-.773-.943-1.78-1.683-2.176-2.395-1.282-4.497-3.816-5.378-6.466-.903-2.713-.335-4.998 1.428-5.664.556-.207.623-1.026.154-1.878a60.752 60.752 0 0 0-4.076-6.434c-.583-.802-1.431-1.21-1.93-.916-1.506.887-4.192.035-6.237-2.021-2.126-2.146-3.436-5.19-3.3-7.581.047-.75-.475-1.72-1.184-2.212-1.809-1.252-3.613-2.282-5.395-3.066-.689-.305-1.202.066-1.185.845.06 2.486-1.263 4.008-3.272 3.802-.845-.087-1.795-.528-2.706-1.203l-.003-.001a11.07 11.07 0 0 1-3.03-3.5c-.447-.819-1.202-1.307-1.731-1.13-.13.043-.249.099-.375.147-.872.168-1.608.748-1.608.748l-.022.015c-.354.205-.693.437-1.02.68l-4.12 2.742 1.832 5.676 3.189.697a3.933 3.933 0 0 1-.25.714c-.796 1.703-2.72 1.98-4.864.73-.695-.433-1.187-.167-1.263.535-.194 1.834-.196 3.815-.015 5.887.066.773.792 1.755 1.415 2.131 1.891 1.08 3.744 3.586 4.511 6.282.764 2.691.23 4.992-1.285 5.709-.474.226-.539 1.045-.148 1.884a53.036 53.036 0 0 0 3.49 6.326c.512.794 1.27 1.18 1.728.877 1.382-.925 3.873-.122 5.82 1.904 2.037 2.119 3.339 5.152 3.192 7.549-.047.752.47 1.718 1.179 2.204.928.634 1.87 1.211 2.82 1.732.9.494 1.81.933 2.721 1.32.721.305 1.262-.063 1.24-.844-.075-2.485 1.3-4.001 3.446-3.772.899.097 1.914.542 2.898 1.217l2.34 7.079 6.17-3.682c.013-.009.029-.017.043-.027l.026-.015-.001-.001c.31-.19.614-.392.906-.607.476-.35.407-1.254-.157-2.062-1.801-2.58-2.385-5.51-1.459-7.267.872-1.655 2.99-1.947 5.292-.733.129.07.192.107.323.178.746.455 1.434.245 1.525-.466.23-1.827.233-3.806.009-5.886z"/>
        <path stroke="#000" stroke-linecap="round" stroke-linejoin="round" d="M59.56 87.943l-7.695 4.392 5.711 9.003 6.992-4.737"/>
        <path fill="#FFF" d="M49.056 77.468l-7.24 4.123-7.24-4.123 7.43-4.485"/>
        <path stroke="#000" stroke-linecap="round" stroke-linejoin="round" d="M49.056 77.468l-7.24 4.123-7.24-4.123 7.43-4.485"/>
        <g>
            <path fill="#FFF" d="M37.932 113.913c-4.6-2.648-7.869-8.024-7.93-13.27-.055-4.743 3.697-6.829 8.024-4.307 4.596 2.68 8.062 8.053 8.183 13.326.108 4.722-3.905 6.77-8.277 4.251m25.16 1.897c-.083-.772-.943-1.778-1.684-2.174-2.395-1.284-4.497-3.818-5.378-6.467-.903-2.713-.334-5 1.43-5.663.555-.208.62-1.028.153-1.88a60.746 60.746 0 0 0-4.078-6.433c-.582-.803-1.43-1.211-1.929-.917-1.506.888-4.192.035-6.236-2.021-2.127-2.146-3.437-5.188-3.3-7.581.045-.75-.476-1.72-1.185-2.211-1.809-1.253-3.614-2.282-5.394-3.067-.689-.304-1.203.067-1.186.845.06 2.486-1.264 4.009-3.272 3.802-1.925-.2-4.385-2.224-5.739-4.704-.447-.817-1.202-1.307-1.731-1.13a10.919 10.919 0 0 0-3.711 2.132c-.42.367-.364 1.27.123 2.06 1.557 2.524 2.046 5.442 1.215 7.229-.796 1.701-2.721 1.978-4.864.729-.697-.433-1.188-.168-1.265.534-.193 1.835-.196 3.815-.014 5.888.066.772.793 1.756 1.415 2.13 1.891 1.08 3.745 3.587 4.511 6.282.764 2.691.232 4.992-1.286 5.71-.474.226-.538 1.044-.146 1.883a52.763 52.763 0 0 0 3.488 6.326c.513.795 1.271 1.18 1.73.877 1.381-.924 3.872-.12 5.818 1.904 2.038 2.12 3.34 5.153 3.193 7.549-.047.752.47 1.718 1.18 2.204.927.635 1.87 1.212 2.818 1.732.902.494 1.81.935 2.722 1.32.721.305 1.262-.063 1.24-.843-.075-2.486 1.302-4.001 3.447-3.772 2.073.222 4.766 2.294 6.289 4.802.507.828 1.345 1.332 1.935 1.174a12.675 12.675 0 0 0 4.157-2.013c.477-.35.407-1.252-.157-2.062-1.8-2.58-2.384-5.51-1.459-7.267.871-1.655 2.99-1.947 5.291-.732.13.07.194.107.323.178.747.454 1.435.244 1.527-.467.228-1.827.232-3.805.009-5.886"/>
            <path stroke="#000" d="M37.932 113.913c-4.6-2.648-7.869-8.024-7.93-13.27-.055-4.743 3.697-6.829 8.024-4.307 4.596 2.68 8.062 8.053 8.183 13.326.108 4.722-3.905 6.77-8.277 4.251zm25.16 1.897c-.083-.772-.943-1.778-1.684-2.174-2.395-1.284-4.497-3.818-5.378-6.467-.903-2.713-.334-5 1.43-5.663.555-.208.62-1.028.153-1.88a60.746 60.746 0 0 0-4.078-6.433c-.582-.803-1.43-1.211-1.929-.917-1.506.888-4.192.035-6.236-2.021-2.127-2.146-3.437-5.188-3.3-7.581.045-.75-.476-1.72-1.185-2.211-1.809-1.253-3.614-2.282-5.394-3.067-.689-.304-1.203.067-1.186.845.06 2.486-1.264 4.009-3.272 3.802-1.925-.2-4.385-2.224-5.739-4.704-.447-.817-1.202-1.307-1.731-1.13a10.919 10.919 0 0 0-3.711 2.132c-.42.367-.364 1.27.123 2.06 1.557 2.524 2.046 5.442 1.215 7.229-.796 1.701-2.721 1.978-4.864.729-.697-.433-1.188-.168-1.265.534-.193 1.835-.196 3.815-.014 5.888.066.772.793 1.756 1.415 2.13 1.891 1.08 3.745 3.587 4.511 6.282.764 2.691.232 4.992-1.286 5.71-.474.226-.538 1.044-.146 1.883a52.763 52.763 0 0 0 3.488 6.326c.513.795 1.271 1.18 1.73.877 1.381-.924 3.872-.12 5.818 1.904 2.038 2.12 3.34 5.153 3.193 7.549-.047.752.47 1.718 1.18 2.204.927.635 1.87 1.212 2.818 1.732.902.494 1.81.935 2.722 1.32.721.305 1.262-.063 1.24-.843-.075-2.486 1.302-4.001 3.447-3.772 2.073.222 4.766 2.294 6.289 4.802.507.828 1.345 1.332 1.935 1.174a12.675 12.675 0 0 0 4.157-2.013c.477-.35.407-1.252-.157-2.062-1.8-2.58-2.384-5.51-1.459-7.267.871-1.655 2.99-1.947 5.291-.732.13.07.194.107.323.178.747.454 1.435.244 1.527-.467.228-1.827.232-3.805.009-5.886z"/>
        </g>
        <g>
            <path fill="#FFF" d="M70 117.69l-6.438 3.676-.286-6.677 6.725-3.615"/>
            <path stroke="#000" stroke-linecap="round" stroke-linejoin="round" d="M70 117.69l-6.438 3.676-.286-6.677 6.725-3.615"/>
        </g>
    </g>
</svg>
