<svg width="120" height="120" viewBox="0 0 120 120" fill="none" xmlns="http://www.w3.org/2000/svg">
<path d="M75.5362 56.0029L67.1705 60.9825L66.9148 60.5528L63.8524 62.3757L61.2249 60.4576L60.9301 60.8615L53.6946 55.5793L53.9894 55.1755L51.0952 53.0626L50.3714 53.7234L53.1003 58.2792L53.5292 58.0223L60.3514 69.4119L59.9224 69.6688L62.6513 74.2247L62.95 74.7234L63.3984 74.3534L66.7998 71.5473L66.4816 71.1616L74.985 64.1462L75.3032 64.5319L82.1059 58.9196L81.7877 58.5339L90.2911 51.5185L90.6093 51.9042L97.4121 46.2919L97.0939 45.9062L105.597 38.8909L105.915 39.2765L109.317 36.4704L108.743 35.6551L105.397 37.6469L105.652 38.0765L97.2868 43.0561L97.031 42.6264L90.3385 46.6101L90.5943 47.0397L82.2287 52.0193L81.9729 51.5896L75.2804 55.5733L75.5362 56.0029ZM73.6436 45.3282L74.0264 45.6487L74.3475 45.2664L75.1103 44.3579L74.7274 44.0364L76.6345 41.7652L77.0174 42.0867L77.7803 41.1782L78.1021 40.7949L77.7185 40.4735C76.5198 39.4691 75.2425 38.5551 73.8973 37.7423L73.6387 38.1702C70.3911 36.208 66.7413 34.8455 62.8436 34.2395L62.9205 33.7454C61.3935 33.508 59.8294 33.3848 58.2371 33.3848C57.0468 33.3848 55.8721 33.4535 54.7167 33.5874L54.7743 34.084C51.8422 34.4237 49.0384 35.1891 46.4266 36.3166L46.2285 35.8576C44.054 36.7963 42.0107 37.9818 40.1341 39.3783L40.4326 39.7794C38.1099 41.508 36.0467 43.5655 34.3128 45.8822L33.9125 45.5826C32.5102 47.4561 31.3197 49.4966 30.3767 51.6685L30.8353 51.8676C29.702 54.4778 28.9325 57.2806 28.591 60.2118L28.0944 60.1539C27.9598 61.3093 27.8906 62.4841 27.8906 63.6745C27.8906 64.865 27.9598 66.0398 28.0944 67.1952L28.591 67.1373C28.9325 70.0685 29.702 72.8713 30.8353 75.4816L30.3767 75.6807C31.3196 77.8525 32.5101 79.8931 33.9124 81.7666L34.3127 81.467C36.0466 83.7837 38.1098 85.8413 40.4326 87.5699L40.1341 87.971C42.0106 89.3675 44.0539 90.553 46.2284 91.4918L46.4266 91.0327C49.0383 92.1602 51.8422 92.9257 54.7743 93.2653L54.7167 93.762C55.872 93.8958 57.0468 93.9646 58.2371 93.9646C60.0993 93.9646 61.9229 93.796 63.6935 93.4733L63.6038 92.9814C68.1339 92.1557 72.3093 90.3044 75.8813 87.6796L76.1774 88.0825C77.6531 86.9981 79.0275 85.7839 80.2836 84.457L80.628 84.0931L80.2634 83.7494L79.4002 82.9357L79.0572 83.2996L76.8991 81.2653L77.242 80.9015L76.3788 80.0878L76.0157 79.7455L75.6727 80.1079C74.6793 81.1574 73.5922 82.1176 72.4246 82.9747L72.7205 83.3778C69.7899 85.5293 66.3628 87.0456 62.6416 87.7213L62.5523 87.2293C61.153 87.4834 59.7109 87.6162 58.2371 87.6162H58.1132C56.7354 87.6093 55.3854 87.4864 54.0725 87.2571L53.9865 87.7497C50.3939 87.1221 47.0707 85.713 44.1992 83.7045L44.4858 83.2947C42.1952 81.6925 40.1981 79.7009 38.5909 77.4163L38.1819 77.704C36.1643 74.836 34.7486 71.5155 34.1178 67.9252L34.6103 67.8387C34.3728 66.4868 34.2489 65.0955 34.2489 63.6748C34.2489 62.2542 34.3728 60.8629 34.6103 59.511L34.1179 59.4245C34.7486 55.8343 36.1644 52.5138 38.182 49.6457L38.5909 49.9334C40.1981 47.6488 42.1953 45.6572 44.4858 44.055L44.1992 43.6453C47.0707 41.6367 50.3939 40.2276 53.9865 39.6L54.0725 40.0926C55.4248 39.8564 56.8163 39.7331 58.2371 39.7331C59.4972 39.7331 60.7342 39.8302 61.941 40.0171L62.0175 39.523C65.2187 40.0189 68.2145 41.1343 70.879 42.7418L70.6207 43.1699C71.685 43.812 72.6954 44.5342 73.6436 45.3282ZM69.0826 50.7601L69.4654 51.0808L69.7865 50.6983L70.3592 50.0162L69.9762 49.6947L71.4079 47.9894L71.7908 48.3109L72.3635 47.6287L72.6853 47.2454L72.3017 46.924C71.4363 46.1989 70.5143 45.5391 69.5431 44.9524L69.2845 45.3803C66.9551 43.9729 64.337 42.9958 61.5413 42.5612L61.6181 42.0671C60.5157 41.8957 59.3865 41.8068 58.2371 41.8068C56.9413 41.8068 55.671 41.9197 54.4357 42.1363L54.5221 42.6288C51.3848 43.1788 48.4806 44.413 45.9701 46.1709L45.6834 45.7613C43.5933 47.2248 41.77 49.043 40.3018 51.1277L40.7106 51.4156C38.9448 53.9231 37.7048 56.8249 37.1519 59.96L36.6595 59.8732C36.4416 61.1084 36.3281 62.3788 36.3281 63.6748C36.3281 64.9708 36.4416 66.2412 36.6595 67.4765L37.1519 67.3897C37.7048 70.5248 38.9448 73.4266 40.7107 75.9341L40.3019 76.222C41.7701 78.3067 43.5934 80.125 45.6834 81.5885L45.9702 81.1789C48.4806 82.9369 51.3848 84.1711 54.5221 84.7212L54.4357 85.2137C55.671 85.4303 56.9413 85.5432 58.2371 85.5432C59.5814 85.5432 60.8979 85.4215 62.1763 85.1885L62.0867 84.6966C65.3361 84.1043 68.3311 82.7764 70.8932 80.8935L71.1893 81.2964C72.2547 80.5135 73.2468 79.6369 74.1536 78.679L74.498 78.3151L74.1334 77.9714L73.4839 77.3594L73.141 77.7233L71.5175 76.1933L71.8604 75.8294L71.211 75.2174L70.8479 74.8752L70.505 75.2375C69.8055 75.9764 69.0405 76.6528 68.2192 77.2569L68.5154 77.6597C66.4359 79.1892 64.0051 80.2692 61.3638 80.7507L61.2741 80.2588C60.2897 80.4382 59.2748 80.5321 58.2371 80.5321C57.2366 80.5321 56.2567 80.4453 55.3046 80.279L55.2186 80.7715C52.6674 80.3259 50.3074 79.3252 48.2683 77.8989L48.5549 77.4892C46.9421 76.361 45.5358 74.9586 44.4042 73.35L43.9952 73.6377C42.5624 71.601 41.5571 69.243 41.1092 66.6935L41.6016 66.607C41.4344 65.6552 41.3471 64.6755 41.3471 63.6752C41.3471 62.6748 41.4344 61.6951 41.6016 60.7433L41.1091 60.6567C41.557 58.1072 42.5624 55.7491 43.9952 53.7123L44.4041 54C45.5357 52.3914 46.942 50.9889 48.5548 49.8607L48.2682 49.451C50.3073 48.0246 52.6673 47.0238 55.2185 46.5782L55.3046 47.0707C56.2567 46.9044 57.2365 46.8176 58.2371 46.8176C59.1245 46.8176 59.9953 46.8861 60.8449 47.0179L60.9215 46.5238C63.1945 46.8764 65.3211 47.6696 67.213 48.8119L66.9545 49.2399C67.7036 49.6923 68.4149 50.201 69.0826 50.7601Z" fill="#F7F7FE" stroke="black" stroke-dasharray="8 10"/>
<path d="M52.4337 55.0896L39.4098 45.5817L51.6896 66.083L97.608 28.1999L52.4337 55.0896ZM46.8465 80.2318C33.3219 80.2318 22.3583 69.2889 22.3583 55.7901C22.3583 42.2915 33.3219 31.3484 46.8465 31.3484C52.8351 31.3484 58.319 33.4971 62.5739 37.0601L66.0067 32.9719C60.8182 28.6245 54.1349 26 46.8465 26C30.3889 26 17 39.3637 17 55.7898C17 72.2161 30.3889 85.5798 46.8465 85.5798C55.3812 85.5798 63.085 81.9801 68.5298 76.2285L64.6452 72.5669C60.1809 77.2835 53.8604 80.2315 46.8465 80.2315V80.2318ZM46.8465 73.1473C37.2421 73.1473 29.4565 65.3762 29.4565 55.7904C29.4565 46.2043 37.2421 38.4328 46.8465 38.4328C51.0992 38.4328 54.9914 39.9615 58.013 42.492L60.5899 39.4225C56.8684 36.3042 52.0744 34.422 46.8465 34.422C35.0415 34.422 25.4374 44.0075 25.4374 55.7901C25.4374 67.5724 35.0415 77.1585 46.8465 77.1585C52.9683 77.1585 58.4944 74.5764 62.3998 70.4505L59.4775 67.6965C56.3073 71.0454 51.8275 73.1473 46.8465 73.1473Z" fill="url(#paint0_radial)"/>
<defs>
<radialGradient id="paint0_radial" cx="0" cy="0" r="1" gradientUnits="userSpaceOnUse" gradientTransform="translate(48.1929 57.5231) scale(35.2894 26.0835)">
<stop stop-color="#20A4C1"/>
<stop offset="0.4888" stop-color="#008490"/>
<stop offset="1" stop-color="#1FA4BF"/>
</radialGradient>
</defs>
</svg>
