<svg xmlns="http://www.w3.org/2000/svg" width="90" height="97" viewBox="0 0 90 97">
    <g fill="none" fill-rule="evenodd">
        <path fill="#6859F0" fill-opacity=".08" stroke="#000" stroke-dasharray="8,10" stroke-linecap="round" stroke-linejoin="round" d="M18 26L53 8l36 18v51L53.5 96 18 77V26z"/>
        <g fill-rule="nonzero">
            <path fill="#4B612C" d="M10.007 72.668L0 67.903V17.75l10.007-5.003.036.052.066 59.767-.102.102"/>
            <path fill="#759C3E" d="M46.698 62.78l-36.691 9.888V12.747l36.691 10.006V62.78"/>
            <path fill="#4B612C" d="M16.559 34.428L35.5 32.045l.462.404v20.339l-.462.7-18.941-2.263V34.428"/>
            <path fill="#3C4929" d="M71 30.377l-17.274 1.787-37.167-5.956 18.71-6.1L71 30.377"/>
            <path fill="#B7CA9D" d="M71 55.394l-17.274-1.787-37.167 5.957 20.097 5.103L71 55.394"/>
            <path fill="#4B612C" d="M16.559 76.242l18.941 9.53.8-21.236-19.741-4.972v16.678"/>
            <path fill="#759C3E" d="M71 68.022l-35.5 17.75V64.329L71 55.394v12.628"/>
            <path fill="#4B612C" d="M16.559 9.411L35.5 0l.137.194-.058 21.118-.079.13-18.941 4.766V9.411"/>
            <path fill="#759C3E" d="M71 49.08l-35.5 4.408V32.045L71 36.572V49.08m0-18.703l-35.5-8.934V0L71 17.75v12.627"/>
        </g>
    </g>
</svg>
