<svg width="647" height="657" viewBox="0 0 647 657" fill="none" xmlns="http://www.w3.org/2000/svg">
<g clip-path="url(#clip0)">
<path opacity="0.565123" fill-rule="evenodd" clip-rule="evenodd" d="M585.512 313.168C671.555 386 653.945 465.958 613.363 513.287C572.781 560.612 209.363 648.869 105.205 585.247C1.04774 521.628 15.0541 443.125 73.3745 395.108C116.528 359.578 226.712 244.13 317.497 243.548C408.283 242.963 496.177 247.343 538.098 282.83L585.512 313.168Z" fill="#9595EF"/>
<path d="M149.706 402.16C146.691 400.007 143.346 398.148 139.764 396.798C135.464 376.494 122.795 356.349 106.327 344.353C97.0919 337.567 86.7785 336.991 78.3043 340.907L78.2001 340.901C78.0959 340.895 78.0901 340.999 77.9859 340.993L55.8509 351.879L64.3578 354.862C63.4197 356.691 62.6783 358.74 62.0411 360.794C61.1384 360.117 60.1316 359.433 59.2289 358.756C51.5792 353.522 43.2335 353.265 36.6693 356.66L14.9461 367.674L25.332 374.419C25.2971 375.044 25.2622 375.669 25.2273 376.294C24.5788 397.263 37.3737 422.639 54.8778 434.798C82.601 452.962 110.446 470.819 138.407 488.474C139.008 488.925 139.72 489.279 140.328 489.626L134.261 493.467L135.932 500.98L159.351 491.42C167.449 488.633 173.933 481.053 175.962 470.925C180.842 447.162 169.6 416.438 149.706 402.16Z" fill="#9595EF" stroke="black" stroke-width="1.5" stroke-miterlimit="10" stroke-linejoin="round"/>
<path d="M131.473 410.548C128.458 408.394 125.113 406.535 121.531 405.185C117.231 384.881 104.556 364.841 88.0936 352.74C70.5261 339.846 49.4101 349.325 43.9119 369.187C43.0093 368.51 42.0024 367.826 41.0997 367.149C25.7019 356.571 7.7054 366.329 7.09236 384.791C6.44388 405.76 19.2388 431.136 36.7428 443.295C64.4661 461.459 92.311 479.316 120.272 496.971C136.526 507.179 154.199 497.612 157.931 479.428C162.609 455.55 151.366 424.826 131.473 410.548Z" fill="white" stroke="black" stroke-width="1.5" stroke-miterlimit="10" stroke-linejoin="round"/>
<path d="M646.592 231.315C646.369 229.535 644.589 227.311 642.809 226.421C637.47 223.528 632.797 217.744 630.795 211.737C628.793 205.507 630.128 200.39 633.91 198.832C635.245 198.387 635.245 196.607 634.355 194.605C631.685 189.488 628.57 184.593 625.233 180.143C623.898 178.363 622.118 177.474 621.006 178.141C617.668 180.143 611.661 178.141 607.212 173.469C602.539 168.574 599.647 161.677 599.869 156.337C599.869 154.557 598.757 152.555 597.2 151.443C593.195 148.55 589.19 146.325 585.185 144.545C583.628 143.878 582.515 144.768 582.515 146.548C582.738 152.11 579.623 155.67 575.173 155.225C573.393 155.002 571.169 154.112 569.166 152.555C566.496 150.553 564.049 147.883 562.492 144.545C561.602 142.766 559.822 141.653 558.709 142.098C558.487 142.098 558.264 142.321 557.819 142.543C555.817 142.988 554.26 144.323 554.26 144.323C553.37 144.768 552.702 145.213 552.035 145.88L542.913 152.11L546.918 165.014L554.037 166.572C553.815 167.239 553.815 167.684 553.592 168.129C551.812 171.911 547.585 172.579 542.69 169.686C541.133 168.797 540.02 169.242 539.798 170.799C539.353 175.026 539.353 179.476 539.798 184.148C539.798 185.483 541.355 187.708 542.69 188.598C546.918 191.045 550.922 196.607 552.702 202.837C554.482 208.844 553.147 214.184 549.81 215.741C548.697 216.186 548.697 218.189 549.587 219.969C551.812 224.863 554.482 229.758 557.374 234.208C558.487 235.988 560.267 236.878 561.157 236.21C564.272 234.208 569.834 235.988 574.061 240.437C578.511 245.332 581.403 252.007 581.181 257.569C581.181 259.349 582.293 261.351 583.85 262.464C585.853 263.798 588.078 265.133 590.08 266.468C592.082 267.581 594.085 268.471 596.087 269.361C597.645 270.028 598.979 269.138 598.757 267.358C598.535 261.796 601.649 258.236 606.322 258.904C608.324 259.126 610.549 260.016 612.774 261.574L617.891 277.593L631.685 269.361C632.353 268.916 633.02 268.471 633.687 268.026C634.8 267.136 634.577 265.133 633.242 263.353C629.238 257.569 627.903 250.894 629.905 246.889C631.908 243.107 636.58 242.44 641.697 245.332C641.919 245.555 642.142 245.555 642.364 245.777C643.922 246.889 645.479 246.222 645.702 244.665C647.037 240.437 647.037 235.988 646.592 231.315ZM590.525 227.088C580.291 221.081 572.949 209.067 572.949 197.052C572.726 186.373 581.181 181.701 590.747 187.263C600.982 193.27 608.769 205.507 608.991 217.299C609.214 227.978 600.314 232.65 590.525 227.088Z" fill="#9595EF" stroke="black" stroke-width="1.5" stroke-miterlimit="10" stroke-linejoin="round"/>
<path d="M622.785 178.141L605.654 187.931L618.336 208.4L633.91 197.72" stroke="black" stroke-width="1.5" stroke-miterlimit="10" stroke-linecap="round" stroke-linejoin="round"/>
<path d="M599.425 154.335L583.183 163.679L567.164 154.335L583.628 144.323" fill="white"/>
<path d="M599.425 154.335L583.183 163.679L567.164 154.335L583.628 144.323" stroke="black" stroke-width="1.5" stroke-miterlimit="10" stroke-linecap="round" stroke-linejoin="round"/>
<path d="M630.572 241.105C630.35 239.325 628.57 237.1 626.79 236.21C621.45 233.318 616.778 227.533 614.776 221.526C612.773 215.297 614.108 210.179 617.891 208.622C619.226 208.177 619.226 206.397 618.336 204.395C615.666 199.278 612.551 194.383 609.214 189.933C607.879 188.153 606.099 187.263 604.986 187.931C601.649 189.933 595.642 187.931 591.192 183.259C586.52 178.364 583.628 171.467 583.85 166.127C583.85 164.347 582.738 162.345 581.18 161.232C577.176 158.34 573.171 156.115 569.166 154.335C567.609 153.668 566.496 154.558 566.496 156.338C566.719 161.9 563.604 165.46 559.154 165.015C554.927 164.57 549.365 159.897 546.472 154.335C545.582 152.555 543.803 151.443 542.69 151.888C539.575 152.555 536.683 154.335 534.236 156.338C533.346 157.228 533.346 159.23 534.458 161.01C538.018 166.795 538.908 173.247 537.128 177.251C535.348 181.034 531.121 181.701 526.226 178.809C524.669 177.919 523.556 178.364 523.334 179.921C522.889 184.149 522.889 188.598 523.334 193.27C523.556 195.05 525.114 197.275 526.449 198.165C530.676 200.613 534.681 206.175 536.46 212.404C538.24 218.411 536.905 223.751 533.568 225.309C532.456 225.754 532.456 227.756 533.346 229.536C535.571 234.431 538.24 239.325 541.133 243.775C542.245 245.555 544.025 246.445 544.915 245.777C548.03 243.775 553.592 245.555 557.819 250.005C562.269 254.899 565.161 261.574 564.939 267.136C564.939 268.916 566.051 270.918 567.609 272.031C569.611 273.366 571.836 274.701 573.838 276.036C575.841 277.148 577.843 278.038 579.845 278.928C581.403 279.595 582.738 278.705 582.515 276.926C582.293 271.363 585.408 267.804 590.08 268.471C594.752 268.916 600.759 273.588 604.096 279.373C605.209 281.153 606.989 282.488 608.324 282.043C611.661 281.153 614.776 279.595 617.668 277.593C618.781 276.703 618.558 274.701 617.223 272.921C613.218 267.136 611.884 260.462 613.886 256.457C615.888 252.674 620.561 252.007 625.678 254.899C625.9 255.122 626.123 255.122 626.345 255.344C627.903 256.457 629.46 255.789 629.682 254.232C631.017 250.227 631.017 245.777 630.572 241.105ZM574.506 236.878C564.271 230.871 556.929 218.856 556.929 206.842C556.707 196.163 565.161 191.491 574.728 197.053C584.963 203.06 592.75 215.297 592.972 227.088C593.195 237.768 584.295 242.44 574.506 236.878Z" fill="white" stroke="black" stroke-width="1.5" stroke-miterlimit="10"/>
<path d="M645.479 245.999L630.573 254.454L629.905 239.325L645.479 231.093" fill="white"/>
<path d="M645.479 245.999L630.573 254.454L629.905 239.325L645.479 231.093" stroke="black" stroke-width="1.5" stroke-miterlimit="10" stroke-linecap="round" stroke-linejoin="round"/>
<path d="M496.623 251.053L548.257 226.735C550.235 205.582 531.441 194.906 531.441 194.906L474.268 221.2L496.623 251.053Z" fill="white" stroke="black" stroke-width="2" stroke-miterlimit="10" stroke-linejoin="round"/>
<path d="M524.715 190.358L214.319 14.4057C208.384 11.0448 201.856 10.8471 196.316 13.0218L136.769 45.0491L174.753 50.5847L182.27 300.477C182.27 319.456 192.558 337.052 208.978 346.541L490.293 507.271L474.269 513.202L482.973 553.335C482.973 553.335 539.751 522.494 542.322 520.122C546.081 516.563 548.455 511.62 548.455 505.689V230.689C548.257 213.885 539.157 198.464 524.715 190.358Z" fill="white" stroke="black" stroke-width="2" stroke-miterlimit="10" stroke-linejoin="round"/>
<path d="M129.053 328.946V61.6559C129.053 45.2468 146.858 34.9664 161.102 43.0721L471.499 218.827C486.138 227.131 495.04 242.551 495.04 259.356V534.554C495.04 549.974 478.423 559.661 464.97 551.951L155.761 375.01C139.143 365.718 129.053 348.123 129.053 328.946Z" fill="#9595EF" stroke="black" stroke-width="2" stroke-miterlimit="10" stroke-linejoin="round"/>
<path d="M151.606 263.705V96.6486C151.606 82.2166 167.235 73.1224 179.698 80.2396L451.716 234.248C464.575 241.563 472.29 255.006 472.29 269.636V443.612C472.29 457.055 457.651 465.556 445.979 458.835L175.148 304.233C160.509 295.93 151.606 280.509 151.606 263.705Z" fill="white"/>
<path d="M325.5 351.484C328.863 347.332 331.831 341.599 334.205 334.086C336.776 326.178 338.557 316.688 339.744 305.617C340.337 299.489 340.733 292.767 340.931 285.847C341.129 278.928 340.931 272.008 340.535 265.089C339.744 253.029 338.359 241.365 335.985 230.887C332.028 209.931 323.324 183.834 304.728 172.763C292.067 165.25 279.208 173.751 271.888 195.301C269.316 203.011 267.338 212.303 266.151 222.979C265.557 228.91 265.162 235.434 264.964 241.958C264.766 248.482 264.964 255.401 265.359 261.926C266.151 273.59 267.536 285.056 269.712 295.535C273.866 317.084 282.571 343.378 301.365 355.635C307.3 359.392 313.432 359.787 318.576 357.217C321.543 354.844 322.928 353.658 325.5 351.484Z" stroke="#9595EF" stroke-width="2" stroke-miterlimit="10" stroke-linecap="round" stroke-linejoin="round"/>
<path d="M264.172 305.815C270.305 309.373 277.229 312.339 284.549 314.316C292.264 316.491 300.573 317.479 308.882 317.281C313.63 317.084 318.18 316.688 322.73 315.7C327.28 314.711 331.633 313.327 335.589 311.35C342.711 308.187 348.646 303.64 353.592 298.302C366.055 286.045 372.386 261.925 365.857 245.319C358.34 226.537 339.546 215.664 320.356 211.907C312.641 210.326 304.53 209.733 296.221 210.128C291.671 210.326 286.923 211.117 282.373 212.105C277.823 213.094 273.47 214.478 269.316 216.257C262.194 219.222 256.061 223.374 251.116 228.119C237.267 241.365 232.717 259.948 239.246 277.741C242.213 285.649 247.159 292.569 253.885 298.5C258.04 301.268 260.018 302.849 264.172 305.815Z" stroke="#9595EF" stroke-width="2" stroke-miterlimit="10" stroke-linecap="round" stroke-linejoin="round"/>
<path d="M276.042 184.032C279.999 186.997 282.768 189.567 287.318 193.521C295.034 200.441 302.947 208.744 311.058 218.234C315.608 223.572 320.158 229.503 324.511 235.631C328.863 241.76 333.017 248.086 336.974 254.413C343.7 265.484 349.437 276.753 354.185 287.429C361.307 306.606 374.562 335.074 364.077 353.065C362.692 355.437 360.12 356.821 357.351 357.217" stroke="#9595EF" stroke-width="2" stroke-miterlimit="10" stroke-linecap="round" stroke-linejoin="round"/>
<path d="M250.72 171.774C246.368 171.379 242.609 172.565 240.631 175.53C229.948 192.137 244.192 220.804 251.116 238.597C255.666 249.075 261.403 260.146 268.327 271.415C272.086 277.741 276.241 284.068 280.791 290.394C285.341 296.72 289.693 302.651 294.243 308.385C302.354 318.27 310.465 326.968 318.181 334.283C322.533 338.435 325.896 341.401 329.853 344.366" stroke="#9595EF" stroke-width="2" stroke-miterlimit="10" stroke-linecap="round" stroke-linejoin="round"/>
<path d="M281.78 277.544C290.484 272.602 294.837 269.834 303.541 264.496C303.937 249.866 304.135 242.353 304.333 227.921C304.333 227.921 333.216 244.528 331.435 280.707C320.357 274.381 314.818 271.02 303.541 264.496" fill="#9595EF"/>
<path d="M281.78 277.544C290.484 272.602 294.837 269.834 303.541 264.496C303.937 249.866 304.135 242.353 304.333 227.921C304.333 227.921 333.216 244.528 331.435 280.707C320.357 274.381 314.818 271.02 303.541 264.496" stroke="#9595EF" stroke-width="2" stroke-miterlimit="10" stroke-linecap="round" stroke-linejoin="round"/>
<path d="M332.82 281.3C332.622 301.663 318.576 310.757 302.75 301.07C285.143 290.197 274.065 268.054 274.262 247.493C274.46 227.723 288.704 218.827 304.53 228.119C322.335 238.597 333.018 260.739 332.82 281.3Z" stroke="black" stroke-width="2" stroke-miterlimit="10" stroke-linecap="round" stroke-linejoin="round"/>
<path d="M264.371 179.88C264.371 182.055 262.788 183.043 261.008 181.857C259.227 180.868 257.644 178.101 257.842 175.926C257.842 173.751 259.425 172.763 261.205 173.949C262.986 175.135 264.569 177.705 264.371 179.88Z" stroke="#9595EF" stroke-width="2" stroke-miterlimit="10" stroke-linecap="round" stroke-linejoin="round"/>
<path d="M350.031 354.251C350.031 356.426 348.646 357.415 346.668 356.426C344.887 355.438 343.503 352.67 343.503 350.495C343.503 348.32 345.085 347.332 346.866 348.32C348.646 349.309 350.031 351.879 350.031 354.251Z" stroke="#9595EF" stroke-width="2" stroke-miterlimit="10" stroke-linecap="round" stroke-linejoin="round"/>
<path d="M377.134 253.226C376.936 261.53 372.189 265.682 366.056 262.518C359.923 259.157 354.977 249.668 355.175 241.562C355.373 233.457 360.516 229.7 366.451 232.863C372.584 236.027 377.332 245.121 377.134 253.226Z" fill="#9595EF"/>
<path d="M250.72 284.266C250.523 292.174 245.379 295.139 239.642 291.383C233.707 287.627 229.157 278.532 229.355 270.624C229.355 262.716 234.103 259.356 240.037 263.112C245.775 266.67 250.72 276.358 250.72 284.266Z" fill="#9595EF"/>
<path d="M129.054 308.781L495.041 515.377C495.041 515.377 501.173 556.696 474.268 553.533C457.848 551.556 152.793 376.789 141.319 363.741C136.373 358.403 126.878 339.424 129.054 308.781Z" fill="white" stroke="black" stroke-width="2" stroke-miterlimit="10" stroke-linejoin="round"/>
<path d="M304.53 434.715C304.332 442.623 295.627 444.205 288.703 439.856C281.779 435.506 276.635 426.412 276.635 419.493C276.635 412.573 282.57 409.608 290.681 413.562C298.793 417.713 304.727 426.807 304.53 434.715Z" fill="white" stroke="black" stroke-width="2" stroke-miterlimit="10" stroke-linejoin="round"/>
<path d="M253.885 433.727L253.489 472.871L382.277 546.811L383.068 506.283L253.885 433.727Z" fill="#9595EF" stroke="black" stroke-width="2" stroke-miterlimit="10" stroke-linejoin="round"/>
<path d="M187.018 513.005L250.917 473.86C252.5 473.069 254.28 473.069 255.863 473.86L377.133 542.462C380.496 544.241 380.694 548.986 377.529 551.161L322.73 589.91C321.147 591.096 318.773 591.096 317.191 590.107L186.82 521.901C183.457 519.924 183.457 514.982 187.018 513.005Z" fill="white" stroke="black" stroke-width="2" stroke-miterlimit="10" stroke-linejoin="round"/>
<path d="M183.655 518.342L184.644 528.82C184.842 530.204 185.633 531.39 186.82 532.181L310.86 605.725C313.828 607.505 317.587 605.132 317.191 601.574L316.202 588.723C316.004 587.339 315.213 586.153 314.026 585.362L189.986 514.19C187.018 512.609 183.457 514.981 183.655 518.342Z" fill="#9595EF" stroke="black" stroke-width="2" stroke-miterlimit="10" stroke-linejoin="round"/>
<path d="M315.806 588.921L311.256 602.76C311.652 606.121 315.41 607.9 318.18 606.319L396.323 563.813C397.906 562.825 398.895 561.046 398.499 559.069L398.895 518.145C398.697 516.761 395.928 515.575 394.741 514.784C394.741 514.784 380.695 508.457 380.497 506.48L379.705 543.648C379.903 545.427 379.112 547.404 377.529 548.393L317.982 584.374C316.4 585.363 315.608 587.142 315.806 588.921Z" fill="white" stroke="black" stroke-width="2" stroke-miterlimit="10" stroke-linejoin="round"/>
</g>
<defs>
<clipPath id="clip0">
<rect width="647" height="657" fill="white"/>
</clipPath>
</defs>
</svg>
