<svg xmlns="http://www.w3.org/2000/svg" width="198" height="133" viewBox="0 0 198 133">
    <defs>
        <path id="a" d="M0 89h186V0H0z"/>
        <filter id="b" width="278.9%" height="221.4%" x="-89.5%" y="-44.6%" filterUnits="objectBoundingBox">
            <feOffset dy="9" in="SourceAlpha" result="shadowOffsetOuter1"/>
            <feGaussianBlur in="shadowOffsetOuter1" result="shadowBlurOuter1" stdDeviation="9.5"/>
            <feColorMatrix in="shadowBlurOuter1" result="shadowMatrixOuter1" values="0 0 0 0 0.42745098 0 0 0 0 0.4 0 0 0 0 0.525490196 0 0 0 0.353911911 0"/>
            <feMerge>
                <feMergeNode in="shadowMatrixOuter1"/>
                <feMergeNode in="SourceGraphic"/>
            </feMerge>
        </filter>
    </defs>
    <g fill="none" fill-rule="evenodd">
        <path fill="#FFF" d="M143.877 3.807V25H8.609c-1.036 0-1.876.866-1.876 1.934v30.944c0 1.068.84 1.934 1.876 1.934h135.268v21.273c0 .782.458 1.486 1.156 1.788.7.297 1.506.135 2.043-.418l37.531-38.583a1.981 1.981 0 0 0 .003-2.738L147.08 2.438a1.829 1.829 0 0 0-2.044-.418 1.938 1.938 0 0 0-1.16 1.786z"/>
        <path stroke="#000" stroke-linejoin="round" stroke-width="1.325" d="M145.036 2.021a1.938 1.938 0 0 0-1.16 1.786V25H8.61c-1.036 0-1.876.866-1.876 1.934v30.944c0 1.068.84 1.934 1.876 1.934h135.268v21.273c0 .782.458 1.486 1.156 1.788.7.297 1.506.135 2.043-.418l37.531-38.583a1.981 1.981 0 0 0 .003-2.738L147.08 2.438a1.829 1.829 0 0 0-2.044-.418z"/>
        <path fill="#FFF" d="M12.149 32.106l-10.716-.728 5.103-5.954a.737.737 0 0 1 .56-.259l8.128-.161"/>
        <path stroke="#000" stroke-linejoin="round" stroke-width="1.325" d="M12.149 32.106l-10.716-.728 5.103-5.954a.737.737 0 0 1 .56-.259l8.128-.161"/>
        <path fill="#FFF" d="M146.69 2.017c-.918-.73-1.89-.228-2.026-.07l-5.848 6.547 5.689 3.799"/>
        <path stroke="#000" stroke-linejoin="round" stroke-width="1.325" d="M146.69 2.017c-.918-.73-1.89-.228-2.026-.07l-5.848 6.547 5.689 3.799"/>
        <path fill="#B8B8F7" d="M137.985 9.915v21.193H2.717c-1.035 0-1.875.866-1.875 1.934v30.944c0 1.068.84 1.933 1.875 1.933h135.268v21.273c0 .783.459 1.487 1.156 1.789.7.297 1.507.135 2.044-.418l37.531-38.583a1.96 1.96 0 0 0 .551-1.369c0-.514-.198-1.007-.548-1.37L141.188 8.547a1.829 1.829 0 0 0-2.044-.418 1.938 1.938 0 0 0-1.159 1.786z"/>
        <path stroke="#000" stroke-linejoin="round" stroke-width="1.325" d="M139.144 8.13a1.938 1.938 0 0 0-1.159 1.785v21.193H2.717c-1.035 0-1.875.866-1.875 1.934v30.944c0 1.068.84 1.933 1.875 1.933h135.268v21.273c0 .783.459 1.487 1.156 1.789.7.297 1.507.135 2.044-.418l37.531-38.583a1.96 1.96 0 0 0 .551-1.369c0-.514-.198-1.007-.548-1.37L141.188 8.547a1.829 1.829 0 0 0-2.044-.418z"/>
        <path fill="#FFF" d="M39.276 49.736h2.495v2.232c0 2.688-1.343 4.224-3.935 4.224-2.593 0-3.936-1.536-3.936-4.224v-8.736c0-2.688 1.343-4.224 3.936-4.224 2.592 0 3.936 1.536 3.936 4.224v1.632h-2.496v-1.8c0-1.2-.529-1.656-1.369-1.656s-1.367.456-1.367 1.656v9.072c0 1.2.528 1.632 1.367 1.632.84 0 1.369-.432 1.369-1.632v-2.4zm10.382-6.672v9.072c0 1.2.529 1.656 1.368 1.656.84 0 1.368-.456 1.368-1.656v-9.072c0-1.2-.527-1.656-1.367-1.656s-1.369.456-1.369 1.656zm-2.64 8.904v-8.736c0-2.688 1.416-4.224 4.008-4.224s4.008 1.536 4.008 4.224v8.736c0 2.688-1.416 4.224-4.008 4.224s-4.008-1.536-4.008-4.224zM66.234 56l-3.288-12.168V56h-2.377V39.2h3.313l2.712 10.056V39.2h2.352V56h-2.712zm13.623-6.264h2.496v2.232c0 2.688-1.344 4.224-3.936 4.224-2.593 0-3.936-1.536-3.936-4.224v-8.736c0-2.688 1.344-4.224 3.936-4.224 2.591 0 3.936 1.536 3.936 4.224v1.632h-2.496v-1.8c0-1.2-.528-1.656-1.368-1.656-.84 0-1.368.456-1.368 1.656v9.072c0 1.2.528 1.632 1.368 1.632.84 0 1.367-.432 1.367-1.632v-2.4zM90.456 41.6v4.68h3.623v2.4h-3.623v4.92h4.56V56h-7.2V39.2h7.2v2.4h-4.56zm13.934-2.4c2.64 0 3.936 1.464 3.936 4.152v2.184c0 2.688-1.295 4.152-3.935 4.152h-1.249V56h-2.64V39.2h3.889zm0 2.4h-1.248v5.688h1.249c.84 0 1.295-.384 1.295-1.584v-2.52c0-1.2-.456-1.584-1.296-1.584zm8.248 0v-2.4h8.16v2.4h-2.76V56h-2.64V41.6h-2.76z"/>
        <g filter="url(#b)" transform="translate(141 49)">
            <path fill="#FFF" d="M38 19.274C38 8.629 29.493 0 19 0S0 8.63 0 19.274c0 8.004 2.98 12.4 5.942 15.448 2.521 2.594 3.881 6.126 3.881 9.769v2.689c0 5.117 4.09 8.82 9.133 8.82 5.044 0 9.134-3.703 9.134-8.82v-2.642c0-3.636 1.364-7.16 3.89-9.738C34.97 31.749 38 27.347 38 19.274"/>
            <path stroke="#000" stroke-linejoin="round" stroke-width="2" d="M38 19.274C38 8.629 29.493 0 19 0S0 8.63 0 19.274c0 8.004 2.98 12.4 5.942 15.448 2.521 2.594 3.881 6.126 3.881 9.769v2.689c0 5.117 4.09 8.82 9.133 8.82 5.044 0 9.134-3.703 9.134-8.82v-2.642c0-3.636 1.364-7.16 3.89-9.738C34.97 31.749 38 27.347 38 19.274z"/>
            <path fill="#FFF" d="M8.493 43.039h19.139"/>
            <path stroke="#000" stroke-linejoin="round" stroke-width="2" d="M8.493 43.039h19.139"/>
            <g>
                <path fill="#FFF" d="M9.19 48.127h18.604"/>
                <path stroke="#000" stroke-linejoin="round" stroke-width="2" d="M9.19 48.127h18.604"/>
            </g>
        </g>
    </g>
</svg>
