<svg width="494" height="1273" viewBox="0 0 494 1273" fill="none" xmlns="http://www.w3.org/2000/svg">
<path opacity="0.35" d="M71.46 447.578C-65.9995 318.867 -88.7305 194.804 -398.592 224.199C-686.29 251.494 -832.438 420.635 -642.173 775.587C-474.296 1088.76 -193.072 1137.6 4.80955 1029.01C103.749 974.723 237.311 830.199 248.291 715.457C259.266 600.716 139.606 511.387 71.46 447.578" stroke="#979797"/>
<path d="M-33.3415 516.091C-123.109 432.037 -137.953 351.018 -340.306 370.214C-528.186 388.039 -623.627 498.496 -499.375 730.295C-389.744 934.81 -206.093 966.707 -76.8672 895.794C-12.2553 860.34 74.9668 765.959 82.137 691.028C89.3041 616.097 11.1607 557.761 -33.3415 516.091" stroke="#979797"/>
<path opacity="0.16808" fill-rule="evenodd" clip-rule="evenodd" d="M-489.462 87.5626C-864.443 123.139 -1054.93 343.596 -806.942 806.236C-588.133 1214.42 -221.59 1278.08 36.3271 1136.55C165.284 1065.79 339.367 877.417 353.678 727.863C367.982 578.311 212.019 461.881 123.198 378.713C-55.9646 210.953 -85.5919 49.2502 -489.462 87.5626Z" stroke="#979797"/>
</svg>
