<svg width="140" height="140" viewBox="0 0 140 140" fill="none" xmlns="http://www.w3.org/2000/svg">
<g clip-path="url(#clip0)">
<path fill-rule="evenodd" clip-rule="evenodd" d="M133.192 83.5266L71.9271 48.7953C70.9471 48.2401 69.8827 47.9891 68.8372 48.0035V48L65.0008 48.1012L65.7235 48.9095C64.7688 49.4939 63.9592 50.3423 63.4298 51.4279L45.56 88.0804L113.59 126.912L113.03 127.325L99.0139 125.231L42.7358 93.1069L9.80244 111.906L4.94781 111.181V116.564L4.95477 116.565C4.91553 117.77 5.4897 118.991 6.68821 119.675L69.5087 155.535C72.9081 157.475 77.0773 157.489 80.4905 155.573L115.208 136.082C115.578 135.874 115.883 135.586 116.119 135.25C116.165 135.184 116.212 135.12 116.251 135.051L119.451 130.258L136.112 92.3101C137.536 89.0672 136.275 85.2741 133.192 83.5266Z" fill="white"/>
<path fill-rule="evenodd" clip-rule="evenodd" d="M133.192 83.5266L71.9271 48.7953C70.9471 48.2401 69.8827 47.9891 68.8372 48.0035V48L65.0008 48.1012L65.7235 48.9095C64.7688 49.4939 63.9592 50.3423 63.4298 51.4279L45.56 88.0804L113.59 126.912L113.03 127.325L99.0139 125.231L42.7358 93.1069L9.80244 111.906L4.94781 111.181V116.564L4.95477 116.565C4.91553 117.77 5.4897 118.991 6.68821 119.675L69.5087 155.535C72.9081 157.475 77.0773 157.489 80.4905 155.573L115.208 136.082C115.578 135.874 115.883 135.586 116.119 135.25V135.25C116.165 135.184 116.212 135.12 116.251 135.051L119.451 130.258L136.112 92.3101C137.536 89.0672 136.275 85.2741 133.192 83.5266Z" stroke="black" stroke-width="1.89565" stroke-linejoin="round"/>
<path fill-rule="evenodd" clip-rule="evenodd" d="M6.676 114.215L69.0558 149.856C72.4313 151.785 76.5712 151.799 79.96 149.895L115.843 129.73L42.4707 87.8086L6.676 108.26C4.37175 109.577 4.37175 112.899 6.676 114.215Z" fill="white"/>
<path fill-rule="evenodd" clip-rule="evenodd" d="M6.676 114.215L69.0558 149.856C72.4313 151.785 76.5712 151.799 79.96 149.895L115.843 129.73L42.4707 87.8086L6.676 108.26C4.37175 109.577 4.37175 112.899 6.676 114.215Z" stroke="black" stroke-width="1.89565" stroke-linejoin="round"/>
<path fill-rule="evenodd" clip-rule="evenodd" d="M116.635 130.461L133.269 92.4195C134.691 89.1687 133.432 85.3662 130.354 83.6145L69.1861 48.7976C66.1289 47.0573 62.2416 48.2664 60.7028 51.4362L42.8608 88.1789L116.635 130.461Z" fill="white"/>
<path fill-rule="evenodd" clip-rule="evenodd" d="M116.635 130.461L133.269 92.4195C134.691 89.1687 133.432 85.3662 130.354 83.6145L69.1861 48.7976C66.1289 47.0573 62.2416 48.2664 60.7028 51.4362L42.8608 88.1789L116.635 130.461Z" stroke="black" stroke-width="1.89565" stroke-linejoin="round"/>
<path fill-rule="evenodd" clip-rule="evenodd" d="M113.069 116.162L123.899 91.9555C125.058 89.2937 124.031 86.18 121.521 84.7457L71.6264 56.236C69.1327 54.8112 65.962 55.8011 64.7063 58.3967L52.8678 82.0859C51.662 84.5778 52.5833 87.5839 54.9732 88.9594L106.217 118.442C108.72 119.882 111.911 118.821 113.069 116.162Z" fill="#9595EF"/>
<path fill-rule="evenodd" clip-rule="evenodd" d="M34.9613 123.619L43.9759 118.546C44.9005 118.025 46.0309 118.003 46.9754 118.487L59.2471 125.721C60.1269 126.172 60.1513 127.403 59.2903 127.887L50.75 132.898C49.7871 133.44 48.6049 133.439 47.6425 132.897L34.9613 125.76C34.1202 125.287 34.1202 124.092 34.9613 123.619Z" fill="#9595EF"/>
<path fill-rule="evenodd" clip-rule="evenodd" d="M10.2489 82.3857L40.9019 64.1133L58.9739 74.8326V96.5977L28.8701 114.348L19.0384 109.28L15.4891 111.567C15.4891 111.567 8.17442 109.768 5.83024 103.733C3.48606 97.697 7.36924 94.4735 7.36924 94.4735L10.2489 92.3946V82.3857Z" fill="white"/>
<path fill-rule="evenodd" clip-rule="evenodd" d="M8.20765 96.3389C9.61541 96.3389 12.0447 98.0824 13.7736 101.314C14.9249 103.465 15.2663 105.256 15.3499 106.379C15.4012 107.068 15.4398 108.74 14.6927 109.383C14.5703 109.488 14.4257 109.557 14.2732 109.585C14.1895 109.601 14.1035 109.608 14.0104 109.608H14.0101C12.602 109.608 10.1726 107.865 8.4439 104.634C7.29258 102.482 6.95123 100.692 6.86753 99.5682C6.81631 98.8794 6.77763 97.2077 7.5247 96.5642C7.64951 96.4569 7.79659 96.388 7.9506 96.3614C8.03199 96.3463 8.11629 96.3389 8.20765 96.3389ZM10.024 103.649C11.2898 106.015 12.7567 107.117 13.5352 107.488C13.6231 106.562 13.4423 104.632 12.1933 102.298C10.9271 99.9316 9.46017 98.8295 8.68208 98.4588C8.59412 99.3855 8.7749 101.315 10.024 103.649Z" fill="black"/>
<path fill-rule="evenodd" clip-rule="evenodd" d="M60.4093 74.063C60.694 74.2268 60.8694 74.5296 60.8694 74.8573H60.8696V96.413C60.8696 96.7408 60.6941 97.0434 60.4095 97.2073L29.1948 115.172C29.0529 115.254 28.8943 115.295 28.7353 115.295C28.5861 115.295 28.4368 115.259 28.301 115.187L19.0159 110.231L16.6666 111.569V111.569C15.9962 111.954 15.2509 112.137 14.4657 112.137C11.6392 112.137 8.29385 109.764 6.04532 105.881C4.71894 103.591 3.99257 101.123 4.00006 98.9306C4.00815 96.5605 4.86529 94.7636 6.41347 93.8696L6.4131 93.8695L9.09088 92.3037V82.0426C9.09088 81.7149 9.26618 81.4121 9.55091 81.2483L40.7627 63.2878C41.0471 63.1241 41.3979 63.1241 41.6825 63.2878L60.4093 74.063ZM58.1088 74.8577L41.2226 65.1414L11.8509 82.0431L28.7352 91.7624L58.1088 74.8577ZM13.5591 91.8174C15.4452 90.7321 19.1546 92.4877 21.6704 96.8315C22.8419 98.8544 23.4924 101.008 23.5017 102.896C23.5101 104.606 22.9896 105.851 22.0396 106.398L18.9254 108.171C19.0315 107.654 19.0868 107.096 19.0888 106.502C19.0963 104.31 18.3699 101.842 17.0435 99.5517C15.7173 97.2617 13.9359 95.4004 12.0276 94.3107C11.5073 94.0135 10.9915 93.7815 10.4862 93.6145L13.5591 91.8174ZM7.63884 104.964C10.1547 109.308 13.864 111.064 15.7501 109.978C16.7106 109.425 17.2428 108.189 17.2484 106.496C17.2548 104.623 16.616 102.482 15.4498 100.469C14.2835 98.4552 12.7433 96.8335 11.1128 95.9024C10.2163 95.3905 9.36907 95.1312 8.62663 95.1312C8.1488 95.1312 7.71453 95.2385 7.33853 95.4549C6.3781 96.0077 5.84593 97.2443 5.84016 98.9369C5.8339 100.81 6.47268 102.951 7.63884 104.964ZM27.8149 112.847L20.902 109.158L22.9558 107.988C24.5062 107.096 25.3535 105.284 25.3416 102.887C25.3307 100.685 24.5928 98.209 23.2638 95.9143C20.3896 90.9516 15.7226 88.4544 12.6334 90.2321L10.9307 91.2276V83.6314L27.8149 93.3507V112.847ZM29.6552 93.3508V112.79L59.0293 95.8837V76.4459L29.6552 93.3508Z" fill="black"/>
<path fill-rule="evenodd" clip-rule="evenodd" d="M53.7835 84.1352C54.0721 83.9784 54.4276 83.9783 54.7162 84.1352C55.0048 84.2922 55.1826 84.5821 55.1826 84.8961V91.777C55.1826 92.0908 55.0048 92.3808 54.7161 92.5377L35.7296 102.857C35.5853 102.935 35.4243 102.974 35.2633 102.974C35.1022 102.974 34.9411 102.935 34.7969 102.856C34.5083 102.699 34.3304 102.41 34.3304 102.096V95.2148C34.3304 94.9009 34.5083 94.611 34.797 94.454L53.7835 84.1352ZM36.1961 100.574L53.317 91.2692V86.4166L36.1961 95.7213V100.574Z" fill="black"/>
</g>
<defs>
<clipPath id="clip0">
<rect width="140" height="140" fill="white"/>
</clipPath>
</defs>
</svg>
