<svg xmlns="http://www.w3.org/2000/svg" width="101" height="89" viewBox="0 0 101 89">
  <g fill="none" transform="translate(0 -.46)">
    <path fill="#F7F7FE" stroke="#000" stroke-dasharray="8 10" d="M44.2251167,16 L82,16 L100,45 L93,88.0879262 L31,88.0879262 L24,45 L40.8265561,17.8905486 C41.5562041,16.7150045 42.841538,16 44.2251167,16 Z"/>
    <path fill="#FFF" d="M21.0165,10.4605598 L14,24.4605598 L17.50825,51.8207313 C44.1342124,63.7629948 54.9647957,69.7341265 50,69.7341265 C50,69.7341265 60.1041,69.7341265 60.1041,69.7341265 C60.1041,72.4248843 61.0694,57.3336954 63,24.4605598 L55,8.4605598 L21.0165,10.4605598 Z"/>
    <path fill="#444" d="M69.0908281,72.3648993 L56.7841719,72.3648993 L57.6477813,62.0943768 L51.6022188,62.0943768 L50.7386094,72.3648993 L25.2613906,72.3648993 L24.3974844,62.0943768 L18.3525156,62.0943768 L19.2164219,72.3648993 L6.908875,72.3648993 L0,27.8600865 L17.2727813,0.473007359 L58.7272188,0.473007359 L76,27.8600865 L69.0908281,72.3648993 Z M55.2727813,14.1665469 L44.1687656,14.1665469 L44.9091719,19.3018082 L31.0908281,19.3018082 L31.8312344,14.1665469 L20.7272188,14.1665469 L13.8180469,27.8603807 L17.2727813,55.2474599 L58.7272188,55.2474599 L62.1819531,27.8603807 L55.2727813,14.1665469 Z M49.2272188,46.1584447 C48.2733594,46.1584447 47.5,43.3076466 47.5,39.7910738 C47.5,36.2742069 48.2733594,33.4234088 49.2272188,33.4234088 C50.1810781,33.4234088 50.9544375,36.2742069 50.9544375,39.7910738 C50.9544375,43.3076466 50.1810781,46.1584447 49.2272188,46.1584447 Z M27.4205625,46.6891815 C26.4667031,46.6891815 25.6930469,43.8383834 25.6930469,40.3215165 C25.6930469,36.8049437 26.4667031,33.9541456 27.4205625,33.9541456 C28.3744219,33.9541456 29.1477813,36.8049437 29.1477813,40.3215165 C29.1477813,43.8383834 28.3744219,46.6891815 27.4205625,46.6891815 Z"/>
  </g>
</svg>
