<svg width="1440" height="1040" viewBox="0 0 1440 1040" fill="none" xmlns="http://www.w3.org/2000/svg">
    <rect y="91" width="1440" height="949" fill="#1D2755"/>
    <g opacity="0.2" filter="url(#filter0_f)">
        <ellipse cx="216.5" cy="313" rx="198.5" ry="188" fill="#E1686C"/>
    </g>
    <g filter="url(#filter1_d)">
        <rect x="1354" y="37" width="305.33" height="97" rx="7.26975" fill="#46CA98"/>
    </g>
    <path d="M1400.3 108.162C1397.56 108.162 1395.07 107.599 1392.82 106.474C1390.59 105.325 1388.84 103.775 1387.55 101.823C1386.26 99.8715 1385.62 97.7244 1385.62 95.382C1385.62 93.0856 1386.36 90.8696 1387.83 88.734C1389.32 86.5753 1391.29 84.8186 1393.75 83.4637C1391.94 82.2696 1390.47 80.7884 1389.34 79.0202C1388.22 77.2519 1387.65 75.4378 1387.65 73.5777C1387.65 71.442 1388.24 69.4671 1389.41 67.653C1390.58 65.8388 1392.17 64.4036 1394.16 63.3472C1396.16 62.2679 1398.34 61.7283 1400.71 61.7283C1403.1 61.7283 1405.27 62.245 1407.22 63.2783C1409.19 64.3117 1410.74 65.7125 1411.87 67.4808C1412.99 69.226 1413.56 71.1205 1413.56 73.1643C1413.56 75.0244 1412.95 76.8616 1411.73 78.6757C1410.54 80.4899 1409.01 82.017 1407.15 83.257C1409.49 84.566 1411.39 86.2883 1412.83 88.4239C1414.3 90.5596 1415.04 92.8101 1415.04 95.1754C1415.04 97.5866 1414.38 99.7796 1413.08 101.755C1411.77 103.729 1409.99 105.291 1407.74 106.439C1405.49 107.587 1403.01 108.162 1400.3 108.162ZM1401.43 80.0191C1402.67 79.1694 1403.67 78.159 1404.43 76.9879C1405.21 75.8167 1405.6 74.6111 1405.6 73.371C1405.6 72.5443 1405.37 71.775 1404.91 71.0631C1404.45 70.3283 1403.83 69.7427 1403.05 69.3064C1402.27 68.8701 1401.42 68.6519 1400.5 68.6519C1399.58 68.6519 1398.75 68.8586 1397.99 69.2719C1397.25 69.6853 1396.68 70.2479 1396.27 70.9598C1395.85 71.6487 1395.65 72.4065 1395.65 73.2332C1395.65 75.7363 1397.57 77.9983 1401.43 80.0191ZM1400.43 101.031C1401.63 101.031 1402.7 100.767 1403.64 100.239C1404.6 99.7108 1405.35 98.9989 1405.88 98.1033C1406.43 97.2077 1406.7 96.2087 1406.7 95.1065C1406.7 93.4301 1406.05 91.8571 1404.74 90.3874C1403.43 88.9177 1401.68 87.7924 1399.5 87.0116C1397.87 87.8613 1396.54 88.9866 1395.51 90.3874C1394.47 91.7882 1393.96 93.2923 1393.96 94.8998C1393.96 95.9791 1394.24 96.9895 1394.82 97.931C1395.42 98.8726 1396.21 99.6304 1397.2 100.204C1398.21 100.756 1399.29 101.031 1400.43 101.031ZM1425.96 106.818C1428.39 99.5844 1430.69 92.9708 1432.85 86.9772C1435.03 80.9836 1437.26 75.2541 1439.53 69.7886H1422.58V62.865H1449.04V66.8952C1443.96 78.4461 1439.12 91.7537 1434.5 106.818H1425.96ZM1472.39 106.818V95.9676H1455.62V91.0074L1474.66 62.865H1480.35V89.3884H1486.2V96.0365H1480.35V106.818H1472.39ZM1463.78 89.5951H1472.67V76.4712L1463.78 89.5951ZM1507.25 77.3323C1510.03 77.3323 1512.45 77.9409 1514.52 79.158C1516.59 80.375 1518.18 82.1318 1519.31 84.4282C1520.43 86.7246 1520.99 89.4573 1520.99 92.6264C1520.99 95.6806 1520.4 98.3788 1519.2 100.721C1518.01 103.063 1516.31 104.889 1514.11 106.198C1511.9 107.507 1509.33 108.162 1506.39 108.162C1499.91 108.162 1495.19 105.383 1492.23 99.8256L1498.09 95.3476L1498.16 95.3131L1498.19 95.382C1498.81 96.5762 1499.44 97.5866 1500.09 98.4133C1500.73 99.217 1501.54 99.883 1502.53 100.411C1503.52 100.916 1504.71 101.169 1506.11 101.169C1507.47 101.169 1508.67 100.847 1509.73 100.204C1510.79 99.5385 1511.63 98.5626 1512.25 97.2766C1512.87 95.9906 1513.18 94.4175 1513.18 92.5575C1513.18 89.8247 1512.56 87.7006 1511.32 86.1849C1510.08 84.6464 1508.43 83.8771 1506.39 83.8771C1504.99 83.8771 1503.75 84.2215 1502.67 84.9104C1501.59 85.5764 1500.52 86.6442 1499.47 88.1139L1494.4 85.9438L1496.02 62.865H1519.65V69.582H1502.94L1502.36 78.0901C1504.08 77.5849 1505.71 77.3323 1507.25 77.3323ZM1498.16 95.3131C1498.04 95.1065 1497.98 94.9687 1497.98 94.8998C1497.98 94.8309 1498.09 94.9228 1498.29 95.1754L1498.16 95.3131ZM1499.09 95.6232C1499.09 95.715 1499.05 95.7609 1498.98 95.7609C1498.91 95.7609 1498.79 95.6806 1498.6 95.5198C1498.44 95.3361 1498.34 95.2213 1498.29 95.1754L1498.6 94.9687L1499.09 95.6232ZM1540.7 107.748C1539.82 107.748 1539.01 107.53 1538.25 107.094C1537.52 106.68 1536.93 106.106 1536.5 105.371C1536.08 104.614 1535.88 103.798 1535.88 102.926C1535.88 102.076 1536.08 101.295 1536.5 100.583C1536.93 99.8485 1537.52 99.2744 1538.25 98.8611C1539.01 98.4248 1539.82 98.2066 1540.7 98.2066C1541.55 98.2066 1542.33 98.4248 1543.04 98.8611C1543.77 99.2744 1544.35 99.8485 1544.76 100.583C1545.2 101.295 1545.42 102.076 1545.42 102.926C1545.42 103.798 1545.2 104.614 1544.76 105.371C1544.35 106.106 1543.77 106.68 1543.04 107.094C1542.33 107.53 1541.55 107.748 1540.7 107.748ZM1573.77 106.818V71.821L1566.22 74.0944L1564.33 69.2719L1576.25 62.865H1581.52V106.818H1573.77ZM1618.2 83.3948C1620.24 84.1067 1621.97 85.4042 1623.37 87.2872C1624.77 89.1473 1625.47 91.547 1625.47 94.4864C1625.47 97.0354 1624.87 99.3548 1623.68 101.445C1622.51 103.511 1620.81 105.153 1618.58 106.37C1616.35 107.564 1613.71 108.162 1610.66 108.162C1604.64 108.162 1600.06 106.187 1596.91 102.237L1600.19 95.6576L1600.22 95.6232L1600.25 95.692C1601.29 97.6899 1602.63 99.1252 1604.28 99.9978C1605.96 100.87 1608.11 101.307 1610.73 101.307C1612.88 101.307 1614.56 100.664 1615.76 99.3778C1616.97 98.0688 1617.58 96.335 1617.58 94.1764C1617.58 91.8111 1616.92 90.0544 1615.58 88.9062C1614.27 87.735 1612.05 87.1494 1608.9 87.1494C1607.8 87.1494 1606.57 87.2183 1605.21 87.3561V80.9836C1605.56 81.0066 1606.05 81.018 1606.7 81.018C1610.32 81.018 1612.84 80.4325 1614.24 79.2613C1615.66 78.0901 1616.38 76.4597 1616.38 74.37C1616.38 72.6706 1615.87 71.2928 1614.86 70.2364C1613.87 69.1801 1612.47 68.6519 1610.66 68.6519C1609.07 68.6519 1607.6 68.9275 1606.25 69.4786C1604.92 70.0298 1603.52 70.9828 1602.05 72.3376L1597.6 67.7908C1599.28 65.7929 1601.23 64.3117 1603.46 63.3472C1605.69 62.3598 1608.06 61.866 1610.59 61.866C1613.28 61.866 1615.65 62.3827 1617.72 63.4161C1619.81 64.4265 1621.43 65.8273 1622.58 67.6185C1623.75 69.3868 1624.33 71.3732 1624.33 73.5777C1624.33 75.943 1623.72 77.9868 1622.51 79.7091C1621.31 81.4084 1619.88 82.637 1618.2 83.3948ZM1600.22 95.6232C1600.13 95.4394 1600.08 95.2902 1600.08 95.1754C1600.08 95.1294 1600.11 95.1065 1600.15 95.1065C1600.2 95.1065 1600.29 95.1409 1600.43 95.2098L1600.22 95.6232ZM1601.22 95.5543C1601.22 95.5772 1601.21 95.5887 1601.18 95.5887C1601.12 95.5887 1600.99 95.5428 1600.81 95.4509C1600.65 95.3361 1600.52 95.2557 1600.43 95.2098L1600.46 95.1065L1601.18 95.4509L1601.22 95.5543Z" fill="white" fill-opacity="0.7"/>
    <g opacity="0.7">
        <g filter="url(#filter2_f)">
            <path d="M-20 197.428C-17.792 197.428 -16.088 198.448 -14.888 200.488C-13.664 202.528 -13.052 205.336 -13.052 208.912C-13.052 212.584 -13.652 215.416 -14.852 217.408C-16.052 219.4 -17.768 220.396 -20 220.396C-22.232 220.396 -23.948 219.4 -25.148 217.408C-26.348 215.416 -26.948 212.584 -26.948 208.912C-26.948 205.336 -26.348 202.528 -25.148 200.488C-23.924 198.448 -22.208 197.428 -20 197.428ZM-20 199.624C-21.368 199.624 -22.436 200.464 -23.204 202.144C-23.972 203.8 -24.356 206.056 -24.356 208.912C-24.356 210.472 -24.248 211.852 -24.032 213.052L-16.4 203.188C-16.76 202.036 -17.252 201.16 -17.876 200.56C-18.476 199.936 -19.184 199.624 -20 199.624ZM-20 218.2C-18.632 218.2 -17.564 217.396 -16.796 215.788C-16.028 214.18 -15.644 211.888 -15.644 208.912C-15.644 207.52 -15.728 206.32 -15.896 205.312L-23.528 215.032C-22.76 217.144 -21.584 218.2 -20 218.2ZM-2.432 220.396C-3.008 220.396 -3.5 220.192 -3.908 219.784C-4.316 219.376 -4.52 218.896 -4.52 218.344C-4.52 217.792 -4.316 217.312 -3.908 216.904C-3.5 216.496 -3.008 216.292 -2.432 216.292C-1.88 216.292 -1.4 216.496 -0.991999 216.904C-0.583999 217.312 -0.379999 217.792 -0.379999 218.344C-0.379999 218.896 -0.583999 219.376 -0.991999 219.784C-1.4 220.192 -1.88 220.396 -2.432 220.396ZM18.088 208.12C19.408 208.552 20.452 209.248 21.22 210.208C21.988 211.168 22.372 212.38 22.372 213.844C22.372 215.044 22.108 216.148 21.58 217.156C21.052 218.14 20.284 218.932 19.276 219.532C18.268 220.108 17.056 220.396 15.64 220.396C14.44 220.396 13.3 220.18 12.22 219.748C11.164 219.316 10.252 218.68 9.484 217.84L11.14 215.86L11.176 215.824L11.212 215.86C11.812 216.628 12.424 217.216 13.048 217.624C13.696 218.032 14.524 218.236 15.532 218.236C16.924 218.236 17.98 217.828 18.7 217.012C19.42 216.196 19.78 215.104 19.78 213.736C19.78 212.248 19.324 211.132 18.412 210.388C17.524 209.644 16.264 209.272 14.632 209.272C14.392 209.272 14.008 209.296 13.48 209.344V207.328C15.616 207.328 17.068 206.932 17.836 206.14C18.628 205.348 19.024 204.268 19.024 202.9C19.024 201.892 18.724 201.088 18.124 200.488C17.548 199.888 16.78 199.588 15.82 199.588C14.26 199.588 12.892 200.14 11.716 201.244L10.204 199.732C11.668 198.196 13.528 197.428 15.784 197.428C17.584 197.428 19 197.944 20.032 198.976C21.088 199.984 21.616 201.328 21.616 203.008C21.616 204.232 21.316 205.3 20.716 206.212C20.116 207.124 19.24 207.76 18.088 208.12ZM11.572 215.752C11.572 215.824 11.536 215.86 11.464 215.86C11.392 215.836 11.32 215.8 11.248 215.752L11.392 215.572L11.572 215.752ZM11.176 215.824C11.08 215.656 11.056 215.596 11.104 215.644C11.176 215.692 11.224 215.728 11.248 215.752L11.176 215.824ZM34.648 205.528C35.776 205.528 36.808 205.84 37.744 206.464C38.68 207.064 39.424 207.928 39.976 209.056C40.528 210.16 40.804 211.432 40.804 212.872C40.804 214.336 40.516 215.632 39.94 216.76C39.388 217.888 38.62 218.776 37.636 219.424C36.652 220.048 35.572 220.36 34.396 220.36C32.188 220.36 30.472 219.424 29.248 217.552C28.024 215.656 27.412 213.064 27.412 209.776C27.412 207.136 27.736 204.88 28.384 203.008C29.032 201.136 29.944 199.72 31.12 198.76C32.32 197.8 33.724 197.32 35.332 197.32C37.204 197.32 38.848 198.004 40.264 199.372L38.68 201.172L38.644 201.208C38.14 200.584 37.648 200.152 37.168 199.912C36.712 199.672 36.124 199.552 35.404 199.552C34.612 199.552 33.808 199.804 32.992 200.308C32.176 200.788 31.456 201.676 30.832 202.972C30.232 204.244 29.92 205.996 29.896 208.228C30.4 207.388 31.072 206.728 31.912 206.248C32.776 205.768 33.688 205.528 34.648 205.528ZM38.248 201.28C38.248 201.136 38.356 201.148 38.572 201.316L38.428 201.46L38.248 201.28ZM38.644 201.208C38.788 201.4 38.812 201.472 38.716 201.424C38.644 201.352 38.596 201.316 38.572 201.316L38.644 201.208ZM34.504 218.128C35.584 218.128 36.496 217.672 37.24 216.76C37.984 215.824 38.356 214.54 38.356 212.908C38.356 211.78 38.164 210.832 37.78 210.064C37.396 209.272 36.904 208.684 36.304 208.3C35.704 207.916 35.08 207.724 34.432 207.724C33.592 207.724 32.776 208.012 31.984 208.588C31.192 209.14 30.544 209.86 30.04 210.748C29.992 211.132 29.968 211.444 29.968 211.684C29.968 212.74 30.148 213.76 30.508 214.744C30.892 215.728 31.432 216.544 32.128 217.192C32.824 217.816 33.616 218.128 34.504 218.128ZM54.448 220V214.492H44.728V212.656L54.988 197.536H57.112V212.404H59.992V214.528H57.112V220H54.448ZM47.644 212.368H54.448V202.072L47.644 212.368ZM66.04 206.572C65.32 206.572 64.648 206.368 64.024 205.96C63.4 205.552 62.908 204.988 62.548 204.268C62.188 203.548 62.008 202.744 62.008 201.856C62.008 200.992 62.188 200.212 62.548 199.516C62.908 198.796 63.4 198.232 64.024 197.824C64.648 197.392 65.32 197.176 66.04 197.176C66.76 197.176 67.432 197.392 68.056 197.824C68.68 198.232 69.172 198.796 69.532 199.516C69.892 200.236 70.072 201.028 70.072 201.892C70.072 203.26 69.688 204.388 68.92 205.276C68.152 206.14 67.192 206.572 66.04 206.572ZM62.656 220L75.076 197.572H77.128L64.6 220H62.656ZM66.04 204.664C66.544 204.664 66.964 204.436 67.3 203.98C67.636 203.524 67.804 202.816 67.804 201.856C67.804 200.896 67.624 200.188 67.264 199.732C66.904 199.276 66.472 199.048 65.968 199.048C65.488 199.048 65.068 199.276 64.708 199.732C64.372 200.188 64.204 200.896 64.204 201.856C64.204 202.792 64.384 203.5 64.744 203.98C65.104 204.436 65.536 204.664 66.04 204.664ZM74.356 220.36C73.636 220.36 72.964 220.156 72.34 219.748C71.716 219.34 71.224 218.788 70.864 218.092C70.504 217.372 70.324 216.58 70.324 215.716C70.324 214.852 70.504 214.072 70.864 213.376C71.224 212.656 71.716 212.092 72.34 211.684C72.964 211.252 73.636 211.036 74.356 211.036C75.46 211.036 76.396 211.492 77.164 212.404C77.956 213.316 78.352 214.42 78.352 215.716C78.352 216.58 78.172 217.372 77.812 218.092C77.452 218.788 76.96 219.34 76.336 219.748C75.736 220.156 75.076 220.36 74.356 220.36ZM74.392 218.56C74.92 218.56 75.352 218.32 75.688 217.84C76.048 217.36 76.228 216.664 76.228 215.752C76.228 214.912 76.048 214.228 75.688 213.7C75.352 213.148 74.896 212.872 74.32 212.872C73.792 212.872 73.348 213.112 72.988 213.592C72.628 214.048 72.448 214.744 72.448 215.68C72.448 216.64 72.64 217.36 73.024 217.84C73.408 218.32 73.864 218.56 74.392 218.56Z" fill="#39457A"/>
        </g>
        <path d="M1378.5 261.872C1382.43 261.872 1385.45 263.685 1387.59 267.312C1389.76 270.939 1390.85 275.931 1390.85 282.288C1390.85 288.816 1389.79 293.851 1387.65 297.392C1385.52 300.933 1382.47 302.704 1378.5 302.704C1374.53 302.704 1371.48 300.933 1369.35 297.392C1367.21 293.851 1366.15 288.816 1366.15 282.288C1366.15 275.931 1367.21 270.939 1369.35 267.312C1371.52 263.685 1374.57 261.872 1378.5 261.872ZM1378.5 265.776C1376.07 265.776 1374.17 267.269 1372.8 270.256C1371.44 273.2 1370.76 277.211 1370.76 282.288C1370.76 285.061 1370.95 287.515 1371.33 289.648L1384.9 272.112C1384.26 270.064 1383.39 268.507 1382.28 267.44C1381.21 266.331 1379.95 265.776 1378.5 265.776ZM1378.5 298.8C1380.93 298.8 1382.83 297.371 1384.2 294.512C1385.56 291.653 1386.24 287.579 1386.24 282.288C1386.24 279.813 1386.09 277.68 1385.8 275.888L1372.23 293.168C1373.59 296.923 1375.68 298.8 1378.5 298.8ZM1409.73 302.704C1408.71 302.704 1407.83 302.341 1407.11 301.616C1406.38 300.891 1406.02 300.037 1406.02 299.056C1406.02 298.075 1406.38 297.221 1407.11 296.496C1407.83 295.771 1408.71 295.408 1409.73 295.408C1410.71 295.408 1411.57 295.771 1412.29 296.496C1413.02 297.221 1413.38 298.075 1413.38 299.056C1413.38 300.037 1413.02 300.891 1412.29 301.616C1411.57 302.341 1410.71 302.704 1409.73 302.704ZM1446.21 280.88C1448.56 281.648 1450.41 282.885 1451.78 284.592C1453.15 286.299 1453.83 288.453 1453.83 291.056C1453.83 293.189 1453.36 295.152 1452.42 296.944C1451.48 298.693 1450.12 300.101 1448.32 301.168C1446.53 302.192 1444.38 302.704 1441.86 302.704C1439.73 302.704 1437.7 302.32 1435.78 301.552C1433.9 300.784 1432.28 299.653 1430.92 298.16L1433.86 294.64L1433.92 294.576L1433.99 294.64C1435.05 296.005 1436.14 297.051 1437.25 297.776C1438.4 298.501 1439.88 298.864 1441.67 298.864C1444.14 298.864 1446.02 298.139 1447.3 296.688C1448.58 295.237 1449.22 293.296 1449.22 290.864C1449.22 288.219 1448.41 286.235 1446.79 284.912C1445.21 283.589 1442.97 282.928 1440.07 282.928C1439.64 282.928 1438.96 282.971 1438.02 283.056V279.472C1441.82 279.472 1444.4 278.768 1445.76 277.36C1447.17 275.952 1447.88 274.032 1447.88 271.6C1447.88 269.808 1447.34 268.379 1446.28 267.312C1445.25 266.245 1443.89 265.712 1442.18 265.712C1439.41 265.712 1436.97 266.693 1434.88 268.656L1432.2 265.968C1434.8 263.237 1438.11 261.872 1442.12 261.872C1445.32 261.872 1447.83 262.789 1449.67 264.624C1451.55 266.416 1452.48 268.805 1452.48 271.792C1452.48 273.968 1451.95 275.867 1450.88 277.488C1449.82 279.109 1448.26 280.24 1446.21 280.88ZM1434.63 294.448C1434.63 294.576 1434.56 294.64 1434.44 294.64C1434.31 294.597 1434.18 294.533 1434.05 294.448L1434.31 294.128L1434.63 294.448ZM1433.92 294.576C1433.75 294.277 1433.71 294.171 1433.8 294.256C1433.92 294.341 1434.01 294.405 1434.05 294.448L1433.92 294.576ZM1475.65 276.272C1477.66 276.272 1479.49 276.827 1481.16 277.936C1482.82 279.003 1484.14 280.539 1485.12 282.544C1486.11 284.507 1486.6 286.768 1486.6 289.328C1486.6 291.931 1486.08 294.235 1485.06 296.24C1484.08 298.245 1482.71 299.824 1480.96 300.976C1479.21 302.085 1477.29 302.64 1475.2 302.64C1471.28 302.64 1468.23 300.976 1466.05 297.648C1463.88 294.277 1462.79 289.669 1462.79 283.824C1462.79 279.131 1463.36 275.12 1464.52 271.792C1465.67 268.464 1467.29 265.947 1469.38 264.24C1471.51 262.533 1474.01 261.68 1476.87 261.68C1480.2 261.68 1483.12 262.896 1485.64 265.328L1482.82 268.528L1482.76 268.592C1481.86 267.483 1480.99 266.715 1480.13 266.288C1479.32 265.861 1478.28 265.648 1477 265.648C1475.59 265.648 1474.16 266.096 1472.71 266.992C1471.26 267.845 1469.98 269.424 1468.87 271.728C1467.8 273.989 1467.25 277.104 1467.2 281.072C1468.1 279.579 1469.29 278.405 1470.79 277.552C1472.32 276.699 1473.95 276.272 1475.65 276.272ZM1482.05 268.72C1482.05 268.464 1482.24 268.485 1482.63 268.784L1482.37 269.04L1482.05 268.72ZM1482.76 268.592C1483.01 268.933 1483.05 269.061 1482.88 268.976C1482.76 268.848 1482.67 268.784 1482.63 268.784L1482.76 268.592ZM1475.4 298.672C1477.32 298.672 1478.94 297.861 1480.26 296.24C1481.58 294.576 1482.24 292.293 1482.24 289.392C1482.24 287.387 1481.9 285.701 1481.22 284.336C1480.54 282.928 1479.66 281.883 1478.6 281.2C1477.53 280.517 1476.42 280.176 1475.27 280.176C1473.77 280.176 1472.32 280.688 1470.92 281.712C1469.51 282.693 1468.36 283.973 1467.46 285.552C1467.37 286.235 1467.33 286.789 1467.33 287.216C1467.33 289.093 1467.65 290.907 1468.29 292.656C1468.97 294.405 1469.93 295.856 1471.17 297.008C1472.41 298.117 1473.82 298.672 1475.4 298.672ZM1510.85 302V292.208H1493.57V288.944L1511.81 262.064H1515.59V288.496H1520.71V292.272H1515.59V302H1510.85ZM1498.76 288.432H1510.85V270.128L1498.76 288.432ZM1531.46 278.128C1530.18 278.128 1528.99 277.765 1527.88 277.04C1526.77 276.315 1525.89 275.312 1525.25 274.032C1524.61 272.752 1524.29 271.323 1524.29 269.744C1524.29 268.208 1524.61 266.821 1525.25 265.584C1525.89 264.304 1526.77 263.301 1527.88 262.576C1528.99 261.808 1530.18 261.424 1531.46 261.424C1532.74 261.424 1533.93 261.808 1535.04 262.576C1536.15 263.301 1537.03 264.304 1537.67 265.584C1538.31 266.864 1538.63 268.272 1538.63 269.808C1538.63 272.24 1537.95 274.245 1536.58 275.824C1535.21 277.36 1533.51 278.128 1531.46 278.128ZM1525.44 302L1547.52 262.128H1551.17L1528.9 302H1525.44ZM1531.46 274.736C1532.36 274.736 1533.1 274.331 1533.7 273.52C1534.3 272.709 1534.6 271.451 1534.6 269.744C1534.6 268.037 1534.28 266.779 1533.64 265.968C1533 265.157 1532.23 264.752 1531.33 264.752C1530.48 264.752 1529.73 265.157 1529.09 265.968C1528.49 266.779 1528.2 268.037 1528.2 269.744C1528.2 271.408 1528.52 272.667 1529.16 273.52C1529.8 274.331 1530.56 274.736 1531.46 274.736ZM1546.24 302.64C1544.96 302.64 1543.77 302.277 1542.66 301.552C1541.55 300.827 1540.68 299.845 1540.04 298.608C1539.4 297.328 1539.08 295.92 1539.08 294.384C1539.08 292.848 1539.4 291.461 1540.04 290.224C1540.68 288.944 1541.55 287.941 1542.66 287.216C1543.77 286.448 1544.96 286.064 1546.24 286.064C1548.21 286.064 1549.87 286.875 1551.24 288.496C1552.64 290.117 1553.35 292.08 1553.35 294.384C1553.35 295.92 1553.03 297.328 1552.39 298.608C1551.75 299.845 1550.87 300.827 1549.76 301.552C1548.7 302.277 1547.52 302.64 1546.24 302.64ZM1546.31 299.44C1547.25 299.44 1548.01 299.013 1548.61 298.16C1549.25 297.307 1549.57 296.069 1549.57 294.448C1549.57 292.955 1549.25 291.739 1548.61 290.8C1548.01 289.819 1547.2 289.328 1546.18 289.328C1545.24 289.328 1544.45 289.755 1543.81 290.608C1543.17 291.419 1542.85 292.656 1542.85 294.32C1542.85 296.027 1543.19 297.307 1543.88 298.16C1544.56 299.013 1545.37 299.44 1546.31 299.44Z" fill="#39457A"/>
        <path d="M10.5 609.952C11.972 609.952 13.108 610.632 13.908 611.992C14.724 613.352 15.132 615.224 15.132 617.608C15.132 620.056 14.732 621.944 13.932 623.272C13.132 624.6 11.988 625.264 10.5 625.264C9.012 625.264 7.868 624.6 7.068 623.272C6.268 621.944 5.868 620.056 5.868 617.608C5.868 615.224 6.268 613.352 7.068 611.992C7.884 610.632 9.028 609.952 10.5 609.952ZM10.5 611.416C9.588 611.416 8.876 611.976 8.364 613.096C7.852 614.2 7.596 615.704 7.596 617.608C7.596 618.648 7.668 619.568 7.812 620.368L12.9 613.792C12.66 613.024 12.332 612.44 11.916 612.04C11.516 611.624 11.044 611.416 10.5 611.416ZM10.5 623.8C11.412 623.8 12.124 623.264 12.636 622.192C13.148 621.12 13.404 619.592 13.404 617.608C13.404 616.68 13.348 615.88 13.236 615.208L8.148 621.688C8.66 623.096 9.444 623.8 10.5 623.8ZM22.212 625.264C21.828 625.264 21.5 625.128 21.228 624.856C20.956 624.584 20.82 624.264 20.82 623.896C20.82 623.528 20.956 623.208 21.228 622.936C21.5 622.664 21.828 622.528 22.212 622.528C22.58 622.528 22.9 622.664 23.172 622.936C23.444 623.208 23.58 623.528 23.58 623.896C23.58 624.264 23.444 624.584 23.172 624.856C22.9 625.128 22.58 625.264 22.212 625.264ZM35.892 617.08C36.772 617.368 37.468 617.832 37.98 618.472C38.492 619.112 38.748 619.92 38.748 620.896C38.748 621.696 38.572 622.432 38.22 623.104C37.868 623.76 37.356 624.288 36.684 624.688C36.012 625.072 35.204 625.264 34.26 625.264C33.46 625.264 32.7 625.12 31.98 624.832C31.276 624.544 30.668 624.12 30.156 623.56L31.26 622.24L31.284 622.216L31.308 622.24C31.708 622.752 32.116 623.144 32.532 623.416C32.964 623.688 33.516 623.824 34.188 623.824C35.116 623.824 35.82 623.552 36.3 623.008C36.78 622.464 37.02 621.736 37.02 620.824C37.02 619.832 36.716 619.088 36.108 618.592C35.516 618.096 34.676 617.848 33.588 617.848C33.428 617.848 33.172 617.864 32.82 617.896V616.552C34.244 616.552 35.212 616.288 35.724 615.76C36.252 615.232 36.516 614.512 36.516 613.6C36.516 612.928 36.316 612.392 35.916 611.992C35.532 611.592 35.02 611.392 34.38 611.392C33.34 611.392 32.428 611.76 31.644 612.496L30.636 611.488C31.612 610.464 32.852 609.952 34.356 609.952C35.556 609.952 36.5 610.296 37.188 610.984C37.892 611.656 38.244 612.552 38.244 613.672C38.244 614.488 38.044 615.2 37.644 615.808C37.244 616.416 36.66 616.84 35.892 617.08ZM31.548 622.168C31.548 622.216 31.524 622.24 31.476 622.24C31.428 622.224 31.38 622.2 31.332 622.168L31.428 622.048L31.548 622.168ZM31.284 622.216C31.22 622.104 31.204 622.064 31.236 622.096C31.284 622.128 31.316 622.152 31.332 622.168L31.284 622.216ZM46.932 615.352C47.684 615.352 48.372 615.56 48.996 615.976C49.62 616.376 50.116 616.952 50.484 617.704C50.852 618.44 51.036 619.288 51.036 620.248C51.036 621.224 50.844 622.088 50.46 622.84C50.092 623.592 49.58 624.184 48.924 624.616C48.268 625.032 47.548 625.24 46.764 625.24C45.292 625.24 44.148 624.616 43.332 623.368C42.516 622.104 42.108 620.376 42.108 618.184C42.108 616.424 42.324 614.92 42.756 613.672C43.188 612.424 43.796 611.48 44.58 610.84C45.38 610.2 46.316 609.88 47.388 609.88C48.636 609.88 49.732 610.336 50.676 611.248L49.62 612.448L49.596 612.472C49.26 612.056 48.932 611.768 48.612 611.608C48.308 611.448 47.916 611.368 47.436 611.368C46.908 611.368 46.372 611.536 45.828 611.872C45.284 612.192 44.804 612.784 44.388 613.648C43.988 614.496 43.78 615.664 43.764 617.152C44.1 616.592 44.548 616.152 45.108 615.832C45.684 615.512 46.292 615.352 46.932 615.352ZM49.332 612.52C49.332 612.424 49.404 612.432 49.548 612.544L49.452 612.64L49.332 612.52ZM49.596 612.472C49.692 612.6 49.708 612.648 49.644 612.616C49.596 612.568 49.564 612.544 49.548 612.544L49.596 612.472ZM46.836 623.752C47.556 623.752 48.164 623.448 48.66 622.84C49.156 622.216 49.404 621.36 49.404 620.272C49.404 619.52 49.276 618.888 49.02 618.376C48.764 617.848 48.436 617.456 48.036 617.2C47.636 616.944 47.22 616.816 46.788 616.816C46.228 616.816 45.684 617.008 45.156 617.392C44.628 617.76 44.196 618.24 43.86 618.832C43.828 619.088 43.812 619.296 43.812 619.456C43.812 620.16 43.932 620.84 44.172 621.496C44.428 622.152 44.788 622.696 45.252 623.128C45.716 623.544 46.244 623.752 46.836 623.752ZM60.132 625V621.328H53.652V620.104L60.492 610.024H61.908V619.936H63.828V621.352H61.908V625H60.132ZM55.596 619.912H60.132V613.048L55.596 619.912ZM67.86 616.048C67.38 616.048 66.932 615.912 66.516 615.64C66.1 615.368 65.772 614.992 65.532 614.512C65.292 614.032 65.172 613.496 65.172 612.904C65.172 612.328 65.292 611.808 65.532 611.344C65.772 610.864 66.1 610.488 66.516 610.216C66.932 609.928 67.38 609.784 67.86 609.784C68.34 609.784 68.788 609.928 69.204 610.216C69.62 610.488 69.948 610.864 70.188 611.344C70.428 611.824 70.548 612.352 70.548 612.928C70.548 613.84 70.292 614.592 69.78 615.184C69.268 615.76 68.628 616.048 67.86 616.048ZM65.604 625L73.884 610.048H75.252L66.9 625H65.604ZM67.86 614.776C68.196 614.776 68.476 614.624 68.7 614.32C68.924 614.016 69.036 613.544 69.036 612.904C69.036 612.264 68.916 611.792 68.676 611.488C68.436 611.184 68.148 611.032 67.812 611.032C67.492 611.032 67.212 611.184 66.972 611.488C66.748 611.792 66.636 612.264 66.636 612.904C66.636 613.528 66.756 614 66.996 614.32C67.236 614.624 67.524 614.776 67.86 614.776ZM73.404 625.24C72.924 625.24 72.476 625.104 72.06 624.832C71.644 624.56 71.316 624.192 71.076 623.728C70.836 623.248 70.716 622.72 70.716 622.144C70.716 621.568 70.836 621.048 71.076 620.584C71.316 620.104 71.644 619.728 72.06 619.456C72.476 619.168 72.924 619.024 73.404 619.024C74.14 619.024 74.764 619.328 75.276 619.936C75.804 620.544 76.068 621.28 76.068 622.144C76.068 622.72 75.948 623.248 75.708 623.728C75.468 624.192 75.14 624.56 74.724 624.832C74.324 625.104 73.884 625.24 73.404 625.24ZM73.428 624.04C73.78 624.04 74.068 623.88 74.292 623.56C74.532 623.24 74.652 622.776 74.652 622.168C74.652 621.608 74.532 621.152 74.292 620.8C74.068 620.432 73.764 620.248 73.38 620.248C73.028 620.248 72.732 620.408 72.492 620.728C72.252 621.032 72.132 621.496 72.132 622.12C72.132 622.76 72.26 623.24 72.516 623.56C72.772 623.88 73.076 624.04 73.428 624.04Z" fill="#39457A"/>
        <path d="M1311.73 345.058V341.902H1308.74V340.373H1311.73V337.481H1313.48V340.373H1316.35V341.902H1313.48V345.058H1311.73ZM1321.5 335.574C1322.31 335.574 1323.01 335.806 1323.59 336.269C1324.17 336.731 1324.61 337.405 1324.92 338.29C1325.23 339.169 1325.38 340.224 1325.38 341.454C1325.38 342.685 1325.23 343.742 1324.92 344.627C1324.61 345.506 1324.17 346.18 1323.59 346.648C1323.01 347.111 1322.31 347.343 1321.5 347.343C1320.69 347.343 1319.99 347.111 1319.41 346.648C1318.83 346.18 1318.38 345.506 1318.07 344.627C1317.77 343.742 1317.62 342.685 1317.62 341.454C1317.62 340.224 1317.77 339.169 1318.07 338.29C1318.38 337.405 1318.83 336.731 1319.41 336.269C1319.99 335.806 1320.69 335.574 1321.5 335.574ZM1321.5 337.191C1321.09 337.191 1320.74 337.361 1320.45 337.701C1320.15 338.035 1319.93 338.521 1319.77 339.16C1319.62 339.799 1319.54 340.563 1319.54 341.454C1319.54 341.911 1319.56 342.359 1319.61 342.799L1323.08 338.677C1322.92 338.196 1322.7 337.83 1322.43 337.578C1322.16 337.32 1321.85 337.191 1321.5 337.191ZM1321.5 345.726C1321.91 345.726 1322.26 345.556 1322.55 345.216C1322.85 344.876 1323.07 344.387 1323.22 343.748C1323.38 343.109 1323.46 342.345 1323.46 341.454C1323.46 340.927 1323.43 340.449 1323.38 340.021L1319.89 344.17C1320.06 344.674 1320.27 345.061 1320.54 345.33C1320.82 345.594 1321.14 345.726 1321.5 345.726ZM1330.32 347.237C1330.1 347.237 1329.89 347.182 1329.7 347.07C1329.51 346.965 1329.36 346.818 1329.25 346.631C1329.15 346.438 1329.09 346.229 1329.09 346.007C1329.09 345.79 1329.15 345.591 1329.25 345.409C1329.36 345.222 1329.51 345.075 1329.7 344.97C1329.89 344.858 1330.1 344.803 1330.32 344.803C1330.54 344.803 1330.74 344.858 1330.92 344.97C1331.11 345.075 1331.26 345.222 1331.36 345.409C1331.47 345.591 1331.53 345.79 1331.53 346.007C1331.53 346.229 1331.47 346.438 1331.36 346.631C1331.26 346.818 1331.11 346.965 1330.92 347.07C1330.74 347.182 1330.54 347.237 1330.32 347.237ZM1339.79 339.529C1340.41 339.529 1340.98 339.693 1341.5 340.021C1342.01 340.35 1342.42 340.807 1342.72 341.393C1343.02 341.973 1343.17 342.629 1343.17 343.361C1343.17 344.1 1343.02 344.773 1342.7 345.383C1342.39 345.986 1341.96 346.464 1341.42 346.815C1340.89 347.167 1340.3 347.343 1339.66 347.343C1338.89 347.343 1338.22 347.108 1337.65 346.64C1337.09 346.171 1336.66 345.521 1336.36 344.688C1336.06 343.856 1335.91 342.904 1335.91 341.832C1335.91 340.549 1336.09 339.436 1336.43 338.492C1336.78 337.543 1337.28 336.816 1337.91 336.312C1338.54 335.803 1339.27 335.548 1340.1 335.548C1340.6 335.548 1341.09 335.662 1341.57 335.891C1342.05 336.113 1342.5 336.438 1342.92 336.866L1341.65 338.211L1341.64 338.22L1341.53 338.07C1341.37 337.877 1341.24 337.73 1341.13 337.631C1341.02 337.525 1340.89 337.44 1340.72 337.376C1340.56 337.312 1340.35 337.279 1340.1 337.279C1339.78 337.279 1339.47 337.382 1339.17 337.587C1338.88 337.792 1338.61 338.126 1338.38 338.589C1338.16 339.046 1338.01 339.641 1337.94 340.373C1338.18 340.133 1338.47 339.934 1338.81 339.775C1339.15 339.611 1339.47 339.529 1339.79 339.529ZM1341.4 338.176C1341.4 338.158 1341.41 338.149 1341.42 338.149C1341.45 338.149 1341.52 338.185 1341.61 338.255L1341.55 338.325L1341.4 338.185V338.176ZM1341.64 338.22C1341.7 338.278 1341.72 338.316 1341.72 338.334C1341.72 338.334 1341.69 338.308 1341.61 338.255L1341.64 338.22ZM1339.7 345.488C1339.98 345.488 1340.23 345.406 1340.45 345.242C1340.67 345.072 1340.85 344.829 1340.98 344.513C1341.11 344.19 1341.17 343.807 1341.17 343.361C1341.17 342.916 1341.1 342.538 1340.95 342.228C1340.8 341.917 1340.62 341.688 1340.39 341.542C1340.16 341.39 1339.92 341.313 1339.68 341.313C1339.35 341.313 1339.04 341.413 1338.73 341.612C1338.42 341.806 1338.17 342.066 1337.97 342.395C1337.97 343.027 1338.04 343.578 1338.19 344.047C1338.34 344.51 1338.55 344.867 1338.81 345.119C1339.07 345.365 1339.37 345.488 1339.7 345.488ZM1348.79 339.477C1349.5 339.477 1350.12 339.632 1350.64 339.942C1351.17 340.253 1351.58 340.701 1351.87 341.287C1352.15 341.873 1352.3 342.57 1352.3 343.379C1352.3 344.158 1352.14 344.847 1351.84 345.444C1351.54 346.042 1351.1 346.508 1350.54 346.842C1349.98 347.176 1349.32 347.343 1348.57 347.343C1346.92 347.343 1345.71 346.634 1344.96 345.216L1346.45 344.073L1346.47 344.064L1346.48 344.082C1346.64 344.387 1346.8 344.645 1346.96 344.855C1347.13 345.061 1347.33 345.23 1347.59 345.365C1347.84 345.494 1348.14 345.559 1348.5 345.559C1348.85 345.559 1349.15 345.477 1349.42 345.312C1349.69 345.143 1349.91 344.894 1350.06 344.565C1350.22 344.237 1350.3 343.836 1350.3 343.361C1350.3 342.664 1350.14 342.122 1349.83 341.735C1349.51 341.343 1349.09 341.146 1348.57 341.146C1348.21 341.146 1347.9 341.234 1347.62 341.41C1347.35 341.58 1347.07 341.853 1346.8 342.228L1345.51 341.674L1345.92 335.785H1351.95V337.499H1347.69L1347.54 339.67C1347.98 339.541 1348.4 339.477 1348.79 339.477ZM1346.47 344.064C1346.44 344.012 1346.43 343.977 1346.43 343.959C1346.43 343.941 1346.45 343.965 1346.5 344.029L1346.47 344.064ZM1346.71 344.144C1346.71 344.167 1346.7 344.179 1346.68 344.179C1346.66 344.179 1346.63 344.158 1346.58 344.117C1346.54 344.07 1346.52 344.041 1346.5 344.029L1346.58 343.977L1346.71 344.144ZM1355.47 340.505C1355.07 340.505 1354.7 340.399 1354.35 340.188C1354.01 339.972 1353.74 339.676 1353.54 339.301C1353.34 338.92 1353.24 338.498 1353.24 338.035C1353.24 337.59 1353.34 337.18 1353.54 336.805C1353.74 336.43 1354.01 336.134 1354.35 335.917C1354.7 335.7 1355.07 335.592 1355.47 335.592C1355.87 335.592 1356.25 335.703 1356.59 335.926C1356.93 336.143 1357.2 336.438 1357.39 336.813C1357.6 337.188 1357.7 337.602 1357.7 338.053C1357.7 338.527 1357.61 338.952 1357.41 339.327C1357.22 339.696 1356.95 339.986 1356.61 340.197C1356.27 340.402 1355.89 340.505 1355.47 340.505ZM1353.76 347L1360.13 335.785H1361.42L1355 347H1353.76ZM1355.43 339.371C1355.72 339.371 1355.94 339.251 1356.08 339.011C1356.24 338.765 1356.31 338.445 1356.31 338.053C1356.31 337.666 1356.24 337.35 1356.08 337.104C1355.94 336.852 1355.72 336.726 1355.43 336.726C1355.14 336.726 1354.92 336.852 1354.77 337.104C1354.62 337.35 1354.55 337.666 1354.55 338.053C1354.55 338.445 1354.62 338.765 1354.77 339.011C1354.92 339.251 1355.14 339.371 1355.43 339.371ZM1359.57 347.176C1359.17 347.176 1358.8 347.07 1358.46 346.859C1358.12 346.643 1357.85 346.347 1357.64 345.972C1357.44 345.597 1357.34 345.178 1357.34 344.715C1357.34 344.27 1357.44 343.859 1357.64 343.484C1357.85 343.104 1358.12 342.805 1358.46 342.588C1358.8 342.371 1359.18 342.263 1359.57 342.263C1359.97 342.263 1360.34 342.374 1360.68 342.597C1361.03 342.813 1361.3 343.112 1361.5 343.493C1361.7 343.868 1361.8 344.281 1361.8 344.732C1361.8 345.207 1361.7 345.629 1361.51 345.998C1361.31 346.367 1361.05 346.657 1360.71 346.868C1360.37 347.073 1360 347.176 1359.57 347.176ZM1359.53 346.042C1359.82 346.042 1360.04 345.922 1360.19 345.682C1360.34 345.441 1360.42 345.125 1360.42 344.732C1360.42 344.346 1360.34 344.026 1360.19 343.774C1360.04 343.522 1359.82 343.396 1359.53 343.396C1359.24 343.396 1359.02 343.522 1358.87 343.774C1358.72 344.026 1358.65 344.346 1358.65 344.732C1358.65 345.125 1358.72 345.441 1358.87 345.682C1359.02 345.922 1359.24 346.042 1359.53 346.042Z" fill="#39457A"/>
        <path d="M1314.73 202.058V198.902H1311.74V197.373H1314.73V194.481H1316.48V197.373H1319.35V198.902H1316.48V202.058H1314.73ZM1324.5 192.574C1325.31 192.574 1326.01 192.806 1326.59 193.269C1327.17 193.731 1327.61 194.405 1327.92 195.29C1328.23 196.169 1328.38 197.224 1328.38 198.454C1328.38 199.685 1328.23 200.742 1327.92 201.627C1327.61 202.506 1327.17 203.18 1326.59 203.648C1326.01 204.111 1325.31 204.343 1324.5 204.343C1323.69 204.343 1322.99 204.111 1322.41 203.648C1321.83 203.18 1321.38 202.506 1321.07 201.627C1320.77 200.742 1320.62 199.685 1320.62 198.454C1320.62 197.224 1320.77 196.169 1321.07 195.29C1321.38 194.405 1321.83 193.731 1322.41 193.269C1322.99 192.806 1323.69 192.574 1324.5 192.574ZM1324.5 194.191C1324.09 194.191 1323.74 194.361 1323.45 194.701C1323.15 195.035 1322.93 195.521 1322.77 196.16C1322.62 196.799 1322.54 197.563 1322.54 198.454C1322.54 198.911 1322.56 199.359 1322.61 199.799L1326.08 195.677C1325.92 195.196 1325.7 194.83 1325.43 194.578C1325.16 194.32 1324.85 194.191 1324.5 194.191ZM1324.5 202.726C1324.91 202.726 1325.26 202.556 1325.55 202.216C1325.85 201.876 1326.07 201.387 1326.22 200.748C1326.38 200.109 1326.46 199.345 1326.46 198.454C1326.46 197.927 1326.43 197.449 1326.38 197.021L1322.89 201.17C1323.06 201.674 1323.27 202.061 1323.54 202.33C1323.82 202.594 1324.14 202.726 1324.5 202.726ZM1333.32 204.237C1333.1 204.237 1332.89 204.182 1332.7 204.07C1332.51 203.965 1332.36 203.818 1332.25 203.631C1332.15 203.438 1332.09 203.229 1332.09 203.007C1332.09 202.79 1332.15 202.591 1332.25 202.409C1332.36 202.222 1332.51 202.075 1332.7 201.97C1332.89 201.858 1333.1 201.803 1333.32 201.803C1333.54 201.803 1333.74 201.858 1333.92 201.97C1334.11 202.075 1334.26 202.222 1334.36 202.409C1334.47 202.591 1334.53 202.79 1334.53 203.007C1334.53 203.229 1334.47 203.438 1334.36 203.631C1334.26 203.818 1334.11 203.965 1333.92 204.07C1333.74 204.182 1333.54 204.237 1333.32 204.237ZM1342.79 196.529C1343.41 196.529 1343.98 196.693 1344.5 197.021C1345.01 197.35 1345.42 197.807 1345.72 198.393C1346.02 198.973 1346.17 199.629 1346.17 200.361C1346.17 201.1 1346.02 201.773 1345.7 202.383C1345.39 202.986 1344.96 203.464 1344.42 203.815C1343.89 204.167 1343.3 204.343 1342.66 204.343C1341.89 204.343 1341.22 204.108 1340.65 203.64C1340.09 203.171 1339.66 202.521 1339.36 201.688C1339.06 200.856 1338.91 199.904 1338.91 198.832C1338.91 197.549 1339.09 196.436 1339.43 195.492C1339.78 194.543 1340.28 193.816 1340.91 193.312C1341.54 192.803 1342.27 192.548 1343.1 192.548C1343.6 192.548 1344.09 192.662 1344.57 192.891C1345.05 193.113 1345.5 193.438 1345.92 193.866L1344.65 195.211L1344.64 195.22L1344.53 195.07C1344.37 194.877 1344.24 194.73 1344.13 194.631C1344.02 194.525 1343.89 194.44 1343.72 194.376C1343.56 194.312 1343.35 194.279 1343.1 194.279C1342.78 194.279 1342.47 194.382 1342.17 194.587C1341.88 194.792 1341.61 195.126 1341.38 195.589C1341.16 196.046 1341.01 196.641 1340.94 197.373C1341.18 197.133 1341.47 196.934 1341.81 196.775C1342.15 196.611 1342.47 196.529 1342.79 196.529ZM1344.4 195.176C1344.4 195.158 1344.41 195.149 1344.42 195.149C1344.45 195.149 1344.52 195.185 1344.61 195.255L1344.55 195.325L1344.4 195.185V195.176ZM1344.64 195.22C1344.7 195.278 1344.72 195.316 1344.72 195.334C1344.72 195.334 1344.69 195.308 1344.61 195.255L1344.64 195.22ZM1342.7 202.488C1342.98 202.488 1343.23 202.406 1343.45 202.242C1343.67 202.072 1343.85 201.829 1343.98 201.513C1344.11 201.19 1344.17 200.807 1344.17 200.361C1344.17 199.916 1344.1 199.538 1343.95 199.228C1343.8 198.917 1343.62 198.688 1343.39 198.542C1343.16 198.39 1342.92 198.313 1342.68 198.313C1342.35 198.313 1342.04 198.413 1341.73 198.612C1341.42 198.806 1341.17 199.066 1340.97 199.395C1340.97 200.027 1341.04 200.578 1341.19 201.047C1341.34 201.51 1341.55 201.867 1341.81 202.119C1342.07 202.365 1342.37 202.488 1342.7 202.488ZM1351.79 196.477C1352.5 196.477 1353.12 196.632 1353.64 196.942C1354.17 197.253 1354.58 197.701 1354.87 198.287C1355.15 198.873 1355.3 199.57 1355.3 200.379C1355.3 201.158 1355.14 201.847 1354.84 202.444C1354.54 203.042 1354.1 203.508 1353.54 203.842C1352.98 204.176 1352.32 204.343 1351.57 204.343C1349.92 204.343 1348.71 203.634 1347.96 202.216L1349.45 201.073L1349.47 201.064L1349.48 201.082C1349.64 201.387 1349.8 201.645 1349.96 201.855C1350.13 202.061 1350.33 202.23 1350.59 202.365C1350.84 202.494 1351.14 202.559 1351.5 202.559C1351.85 202.559 1352.15 202.477 1352.42 202.312C1352.69 202.143 1352.91 201.894 1353.06 201.565C1353.22 201.237 1353.3 200.836 1353.3 200.361C1353.3 199.664 1353.14 199.122 1352.83 198.735C1352.51 198.343 1352.09 198.146 1351.57 198.146C1351.21 198.146 1350.9 198.234 1350.62 198.41C1350.35 198.58 1350.07 198.853 1349.8 199.228L1348.51 198.674L1348.92 192.785H1354.95V194.499H1350.69L1350.54 196.67C1350.98 196.541 1351.4 196.477 1351.79 196.477ZM1349.47 201.064C1349.44 201.012 1349.43 200.977 1349.43 200.959C1349.43 200.941 1349.45 200.965 1349.5 201.029L1349.47 201.064ZM1349.71 201.144C1349.71 201.167 1349.7 201.179 1349.68 201.179C1349.66 201.179 1349.63 201.158 1349.58 201.117C1349.54 201.07 1349.52 201.041 1349.5 201.029L1349.58 200.977L1349.71 201.144ZM1358.47 197.505C1358.07 197.505 1357.7 197.399 1357.35 197.188C1357.01 196.972 1356.74 196.676 1356.54 196.301C1356.34 195.92 1356.24 195.498 1356.24 195.035C1356.24 194.59 1356.34 194.18 1356.54 193.805C1356.74 193.43 1357.01 193.134 1357.35 192.917C1357.7 192.7 1358.07 192.592 1358.47 192.592C1358.87 192.592 1359.25 192.703 1359.59 192.926C1359.93 193.143 1360.2 193.438 1360.39 193.813C1360.6 194.188 1360.7 194.602 1360.7 195.053C1360.7 195.527 1360.61 195.952 1360.41 196.327C1360.22 196.696 1359.95 196.986 1359.61 197.197C1359.27 197.402 1358.89 197.505 1358.47 197.505ZM1356.76 204L1363.13 192.785H1364.42L1358 204H1356.76ZM1358.43 196.371C1358.72 196.371 1358.94 196.251 1359.08 196.011C1359.24 195.765 1359.31 195.445 1359.31 195.053C1359.31 194.666 1359.24 194.35 1359.08 194.104C1358.94 193.852 1358.72 193.726 1358.43 193.726C1358.14 193.726 1357.92 193.852 1357.77 194.104C1357.62 194.35 1357.55 194.666 1357.55 195.053C1357.55 195.445 1357.62 195.765 1357.77 196.011C1357.92 196.251 1358.14 196.371 1358.43 196.371ZM1362.57 204.176C1362.17 204.176 1361.8 204.07 1361.46 203.859C1361.12 203.643 1360.85 203.347 1360.64 202.972C1360.44 202.597 1360.34 202.178 1360.34 201.715C1360.34 201.27 1360.44 200.859 1360.64 200.484C1360.85 200.104 1361.12 199.805 1361.46 199.588C1361.8 199.371 1362.18 199.263 1362.57 199.263C1362.97 199.263 1363.34 199.374 1363.68 199.597C1364.03 199.813 1364.3 200.112 1364.5 200.493C1364.7 200.868 1364.8 201.281 1364.8 201.732C1364.8 202.207 1364.7 202.629 1364.51 202.998C1364.31 203.367 1364.05 203.657 1363.71 203.868C1363.37 204.073 1363 204.176 1362.57 204.176ZM1362.53 203.042C1362.82 203.042 1363.04 202.922 1363.19 202.682C1363.34 202.441 1363.42 202.125 1363.42 201.732C1363.42 201.346 1363.34 201.026 1363.19 200.774C1363.04 200.522 1362.82 200.396 1362.53 200.396C1362.24 200.396 1362.02 200.522 1361.87 200.774C1361.72 201.026 1361.65 201.346 1361.65 201.732C1361.65 202.125 1361.72 202.441 1361.87 202.682C1362.02 202.922 1362.24 203.042 1362.53 203.042Z" fill="#39457A"/>
        <path d="M-9.27344 116.058V112.902H-12.2617V111.373H-9.27344V108.481H-7.52441V111.373H-4.65039V112.902H-7.52441V116.058H-9.27344ZM0.5 106.574C1.31445 106.574 2.01172 106.806 2.5918 107.269C3.17188 107.731 3.61426 108.405 3.91895 109.29C4.22949 110.169 4.38477 111.224 4.38477 112.454C4.38477 113.685 4.22949 114.742 3.91895 115.627C3.61426 116.506 3.17188 117.18 2.5918 117.648C2.01172 118.111 1.31445 118.343 0.5 118.343C-0.314453 118.343 -1.01172 118.111 -1.5918 117.648C-2.17188 117.18 -2.61719 116.506 -2.92773 115.627C-3.23242 114.742 -3.38477 113.685 -3.38477 112.454C-3.38477 111.224 -3.23242 110.169 -2.92773 109.29C-2.61719 108.405 -2.17188 107.731 -1.5918 107.269C-1.01172 106.806 -0.314453 106.574 0.5 106.574ZM0.5 108.191C0.0898438 108.191 -0.261719 108.361 -0.554688 108.701C-0.847656 109.035 -1.07324 109.521 -1.23145 110.16C-1.38379 110.799 -1.45996 111.563 -1.45996 112.454C-1.45996 112.911 -1.43652 113.359 -1.38965 113.799L2.08203 109.677C1.91797 109.196 1.70117 108.83 1.43164 108.578C1.16211 108.32 0.851562 108.191 0.5 108.191ZM0.5 116.726C0.910156 116.726 1.26172 116.556 1.55469 116.216C1.84766 115.876 2.07031 115.387 2.22266 114.748C2.38086 114.109 2.45996 113.345 2.45996 112.454C2.45996 111.927 2.43359 111.449 2.38086 111.021L-1.1084 115.17C-0.944336 115.674 -0.727539 116.061 -0.458008 116.33C-0.182617 116.594 0.136719 116.726 0.5 116.726ZM9.32422 118.237C9.10156 118.237 8.89355 118.182 8.7002 118.07C8.5127 117.965 8.36328 117.818 8.25195 117.631C8.14648 117.438 8.09375 117.229 8.09375 117.007C8.09375 116.79 8.14648 116.591 8.25195 116.409C8.36328 116.222 8.5127 116.075 8.7002 115.97C8.89355 115.858 9.10156 115.803 9.32422 115.803C9.54102 115.803 9.74023 115.858 9.92188 115.97C10.1094 116.075 10.2559 116.222 10.3613 116.409C10.4727 116.591 10.5283 116.79 10.5283 117.007C10.5283 117.229 10.4727 117.438 10.3613 117.631C10.2559 117.818 10.1094 117.965 9.92188 118.07C9.74023 118.182 9.54102 118.237 9.32422 118.237ZM18.79 110.529C19.4111 110.529 19.9795 110.693 20.4951 111.021C21.0107 111.35 21.418 111.807 21.7168 112.393C22.0215 112.973 22.1738 113.629 22.1738 114.361C22.1738 115.1 22.0156 115.773 21.6992 116.383C21.3887 116.986 20.9639 117.464 20.4248 117.815C19.8916 118.167 19.3027 118.343 18.6582 118.343C17.8906 118.343 17.2227 118.108 16.6543 117.64C16.0918 117.171 15.6611 116.521 15.3623 115.688C15.0635 114.856 14.9141 113.904 14.9141 112.832C14.9141 111.549 15.0869 110.436 15.4326 109.492C15.7842 108.543 16.2764 107.816 16.9092 107.312C17.542 106.803 18.2715 106.548 19.0977 106.548C19.6016 106.548 20.0938 106.662 20.5742 106.891C21.0547 107.113 21.5029 107.438 21.9189 107.866L20.6533 109.211L20.6445 109.22L20.5303 109.07C20.3721 108.877 20.2373 108.73 20.126 108.631C20.0205 108.525 19.8857 108.44 19.7217 108.376C19.5576 108.312 19.3496 108.279 19.0977 108.279C18.7812 108.279 18.4736 108.382 18.1748 108.587C17.876 108.792 17.6123 109.126 17.3838 109.589C17.1611 110.046 17.0117 110.641 16.9355 111.373C17.1758 111.133 17.4658 110.934 17.8057 110.775C18.1455 110.611 18.4736 110.529 18.79 110.529ZM20.3984 109.176C20.3984 109.158 20.4072 109.149 20.4248 109.149C20.4541 109.149 20.5156 109.185 20.6094 109.255L20.5479 109.325L20.3984 109.185V109.176ZM20.6445 109.22C20.6973 109.278 20.7236 109.316 20.7236 109.334C20.7236 109.334 20.6855 109.308 20.6094 109.255L20.6445 109.22ZM18.7021 116.488C18.9775 116.488 19.2266 116.406 19.4492 116.242C19.6719 116.072 19.8477 115.829 19.9766 115.513C20.1055 115.19 20.1699 114.807 20.1699 114.361C20.1699 113.916 20.0967 113.538 19.9502 113.228C19.8037 112.917 19.6162 112.688 19.3877 112.542C19.1592 112.39 18.9219 112.313 18.6758 112.313C18.3535 112.313 18.0371 112.413 17.7266 112.612C17.4219 112.806 17.1699 113.066 16.9707 113.395C16.9707 114.027 17.0439 114.578 17.1904 115.047C17.3428 115.51 17.5479 115.867 17.8057 116.119C18.0693 116.365 18.3682 116.488 18.7021 116.488ZM27.79 110.477C28.499 110.477 29.1172 110.632 29.6445 110.942C30.1719 111.253 30.5791 111.701 30.8662 112.287C31.1533 112.873 31.2969 113.57 31.2969 114.379C31.2969 115.158 31.1445 115.847 30.8398 116.444C30.5352 117.042 30.1016 117.508 29.5391 117.842C28.9766 118.176 28.3203 118.343 27.5703 118.343C25.918 118.343 24.7139 117.634 23.958 116.216L25.4521 115.073L25.4697 115.064L25.4785 115.082C25.6367 115.387 25.7979 115.645 25.9619 115.855C26.126 116.061 26.334 116.23 26.5859 116.365C26.8379 116.494 27.1426 116.559 27.5 116.559C27.8457 116.559 28.1533 116.477 28.4229 116.312C28.6924 116.143 28.9062 115.894 29.0645 115.565C29.2227 115.237 29.3018 114.836 29.3018 114.361C29.3018 113.664 29.1436 113.122 28.8271 112.735C28.5107 112.343 28.0918 112.146 27.5703 112.146C27.2129 112.146 26.8965 112.234 26.6211 112.41C26.3457 112.58 26.0732 112.853 25.8037 113.228L24.5117 112.674L24.9248 106.785H30.9541V108.499H26.6914L26.542 110.67C26.9814 110.541 27.3975 110.477 27.79 110.477ZM25.4697 115.064C25.4404 115.012 25.4258 114.977 25.4258 114.959C25.4258 114.941 25.4521 114.965 25.5049 115.029L25.4697 115.064ZM25.707 115.144C25.707 115.167 25.6982 115.179 25.6807 115.179C25.6631 115.179 25.6309 115.158 25.584 115.117C25.543 115.07 25.5166 115.041 25.5049 115.029L25.584 114.977L25.707 115.144ZM34.4697 111.505C34.0713 111.505 33.6992 111.399 33.3535 111.188C33.0137 110.972 32.7412 110.676 32.5361 110.301C32.3369 109.92 32.2373 109.498 32.2373 109.035C32.2373 108.59 32.3369 108.18 32.5361 107.805C32.7412 107.43 33.0137 107.134 33.3535 106.917C33.6992 106.7 34.0713 106.592 34.4697 106.592C34.874 106.592 35.2461 106.703 35.5859 106.926C35.9258 107.143 36.1953 107.438 36.3945 107.813C36.5996 108.188 36.7021 108.602 36.7021 109.053C36.7021 109.527 36.6055 109.952 36.4121 110.327C36.2188 110.696 35.9521 110.986 35.6123 111.197C35.2725 111.402 34.8916 111.505 34.4697 111.505ZM32.7559 118L39.1279 106.785H40.4199L33.9951 118H32.7559ZM34.4258 110.371C34.7188 110.371 34.9385 110.251 35.085 110.011C35.2373 109.765 35.3135 109.445 35.3135 109.053C35.3135 108.666 35.2373 108.35 35.085 108.104C34.9385 107.852 34.7188 107.726 34.4258 107.726C34.1387 107.726 33.9189 107.852 33.7666 108.104C33.6201 108.35 33.5469 108.666 33.5469 109.053C33.5469 109.445 33.6201 109.765 33.7666 110.011C33.9189 110.251 34.1387 110.371 34.4258 110.371ZM38.5742 118.176C38.1699 118.176 37.7979 118.07 37.458 117.859C37.1182 117.643 36.8457 117.347 36.6406 116.972C36.4414 116.597 36.3418 116.178 36.3418 115.715C36.3418 115.27 36.4414 114.859 36.6406 114.484C36.8457 114.104 37.1182 113.805 37.458 113.588C37.8037 113.371 38.1758 113.263 38.5742 113.263C38.9727 113.263 39.3418 113.374 39.6816 113.597C40.0273 113.813 40.2998 114.112 40.499 114.493C40.6982 114.868 40.7979 115.281 40.7979 115.732C40.7979 116.207 40.7012 116.629 40.5078 116.998C40.3145 117.367 40.0479 117.657 39.708 117.868C39.374 118.073 38.9961 118.176 38.5742 118.176ZM38.5303 117.042C38.8232 117.042 39.043 116.922 39.1895 116.682C39.3418 116.441 39.418 116.125 39.418 115.732C39.418 115.346 39.3418 115.026 39.1895 114.774C39.043 114.522 38.8232 114.396 38.5303 114.396C38.2432 114.396 38.0234 114.522 37.8711 114.774C37.7246 115.026 37.6514 115.346 37.6514 115.732C37.6514 116.125 37.7246 116.441 37.8711 116.682C38.0176 116.922 38.2373 117.042 38.5303 117.042Z" fill="#39457A"/>
        <path d="M1407.73 162.058V158.902H1404.74V157.373H1407.73V154.481H1409.48V157.373H1412.35V158.902H1409.48V162.058H1407.73ZM1417.5 152.574C1418.31 152.574 1419.01 152.806 1419.59 153.269C1420.17 153.731 1420.61 154.405 1420.92 155.29C1421.23 156.169 1421.38 157.224 1421.38 158.454C1421.38 159.685 1421.23 160.742 1420.92 161.627C1420.61 162.506 1420.17 163.18 1419.59 163.648C1419.01 164.111 1418.31 164.343 1417.5 164.343C1416.69 164.343 1415.99 164.111 1415.41 163.648C1414.83 163.18 1414.38 162.506 1414.07 161.627C1413.77 160.742 1413.62 159.685 1413.62 158.454C1413.62 157.224 1413.77 156.169 1414.07 155.29C1414.38 154.405 1414.83 153.731 1415.41 153.269C1415.99 152.806 1416.69 152.574 1417.5 152.574ZM1417.5 154.191C1417.09 154.191 1416.74 154.361 1416.45 154.701C1416.15 155.035 1415.93 155.521 1415.77 156.16C1415.62 156.799 1415.54 157.563 1415.54 158.454C1415.54 158.911 1415.56 159.359 1415.61 159.799L1419.08 155.677C1418.92 155.196 1418.7 154.83 1418.43 154.578C1418.16 154.32 1417.85 154.191 1417.5 154.191ZM1417.5 162.726C1417.91 162.726 1418.26 162.556 1418.55 162.216C1418.85 161.876 1419.07 161.387 1419.22 160.748C1419.38 160.109 1419.46 159.345 1419.46 158.454C1419.46 157.927 1419.43 157.449 1419.38 157.021L1415.89 161.17C1416.06 161.674 1416.27 162.061 1416.54 162.33C1416.82 162.594 1417.14 162.726 1417.5 162.726ZM1426.32 164.237C1426.1 164.237 1425.89 164.182 1425.7 164.07C1425.51 163.965 1425.36 163.818 1425.25 163.631C1425.15 163.438 1425.09 163.229 1425.09 163.007C1425.09 162.79 1425.15 162.591 1425.25 162.409C1425.36 162.222 1425.51 162.075 1425.7 161.97C1425.89 161.858 1426.1 161.803 1426.32 161.803C1426.54 161.803 1426.74 161.858 1426.92 161.97C1427.11 162.075 1427.26 162.222 1427.36 162.409C1427.47 162.591 1427.53 162.79 1427.53 163.007C1427.53 163.229 1427.47 163.438 1427.36 163.631C1427.26 163.818 1427.11 163.965 1426.92 164.07C1426.74 164.182 1426.54 164.237 1426.32 164.237ZM1435.79 156.529C1436.41 156.529 1436.98 156.693 1437.5 157.021C1438.01 157.35 1438.42 157.807 1438.72 158.393C1439.02 158.973 1439.17 159.629 1439.17 160.361C1439.17 161.1 1439.02 161.773 1438.7 162.383C1438.39 162.986 1437.96 163.464 1437.42 163.815C1436.89 164.167 1436.3 164.343 1435.66 164.343C1434.89 164.343 1434.22 164.108 1433.65 163.64C1433.09 163.171 1432.66 162.521 1432.36 161.688C1432.06 160.856 1431.91 159.904 1431.91 158.832C1431.91 157.549 1432.09 156.436 1432.43 155.492C1432.78 154.543 1433.28 153.816 1433.91 153.312C1434.54 152.803 1435.27 152.548 1436.1 152.548C1436.6 152.548 1437.09 152.662 1437.57 152.891C1438.05 153.113 1438.5 153.438 1438.92 153.866L1437.65 155.211L1437.64 155.22L1437.53 155.07C1437.37 154.877 1437.24 154.73 1437.13 154.631C1437.02 154.525 1436.89 154.44 1436.72 154.376C1436.56 154.312 1436.35 154.279 1436.1 154.279C1435.78 154.279 1435.47 154.382 1435.17 154.587C1434.88 154.792 1434.61 155.126 1434.38 155.589C1434.16 156.046 1434.01 156.641 1433.94 157.373C1434.18 157.133 1434.47 156.934 1434.81 156.775C1435.15 156.611 1435.47 156.529 1435.79 156.529ZM1437.4 155.176C1437.4 155.158 1437.41 155.149 1437.42 155.149C1437.45 155.149 1437.52 155.185 1437.61 155.255L1437.55 155.325L1437.4 155.185V155.176ZM1437.64 155.22C1437.7 155.278 1437.72 155.316 1437.72 155.334C1437.72 155.334 1437.69 155.308 1437.61 155.255L1437.64 155.22ZM1435.7 162.488C1435.98 162.488 1436.23 162.406 1436.45 162.242C1436.67 162.072 1436.85 161.829 1436.98 161.513C1437.11 161.19 1437.17 160.807 1437.17 160.361C1437.17 159.916 1437.1 159.538 1436.95 159.228C1436.8 158.917 1436.62 158.688 1436.39 158.542C1436.16 158.39 1435.92 158.313 1435.68 158.313C1435.35 158.313 1435.04 158.413 1434.73 158.612C1434.42 158.806 1434.17 159.066 1433.97 159.395C1433.97 160.027 1434.04 160.578 1434.19 161.047C1434.34 161.51 1434.55 161.867 1434.81 162.119C1435.07 162.365 1435.37 162.488 1435.7 162.488ZM1444.79 156.477C1445.5 156.477 1446.12 156.632 1446.64 156.942C1447.17 157.253 1447.58 157.701 1447.87 158.287C1448.15 158.873 1448.3 159.57 1448.3 160.379C1448.3 161.158 1448.14 161.847 1447.84 162.444C1447.54 163.042 1447.1 163.508 1446.54 163.842C1445.98 164.176 1445.32 164.343 1444.57 164.343C1442.92 164.343 1441.71 163.634 1440.96 162.216L1442.45 161.073L1442.47 161.064L1442.48 161.082C1442.64 161.387 1442.8 161.645 1442.96 161.855C1443.13 162.061 1443.33 162.23 1443.59 162.365C1443.84 162.494 1444.14 162.559 1444.5 162.559C1444.85 162.559 1445.15 162.477 1445.42 162.312C1445.69 162.143 1445.91 161.894 1446.06 161.565C1446.22 161.237 1446.3 160.836 1446.3 160.361C1446.3 159.664 1446.14 159.122 1445.83 158.735C1445.51 158.343 1445.09 158.146 1444.57 158.146C1444.21 158.146 1443.9 158.234 1443.62 158.41C1443.35 158.58 1443.07 158.853 1442.8 159.228L1441.51 158.674L1441.92 152.785H1447.95V154.499H1443.69L1443.54 156.67C1443.98 156.541 1444.4 156.477 1444.79 156.477ZM1442.47 161.064C1442.44 161.012 1442.43 160.977 1442.43 160.959C1442.43 160.941 1442.45 160.965 1442.5 161.029L1442.47 161.064ZM1442.71 161.144C1442.71 161.167 1442.7 161.179 1442.68 161.179C1442.66 161.179 1442.63 161.158 1442.58 161.117C1442.54 161.07 1442.52 161.041 1442.5 161.029L1442.58 160.977L1442.71 161.144ZM1451.47 157.505C1451.07 157.505 1450.7 157.399 1450.35 157.188C1450.01 156.972 1449.74 156.676 1449.54 156.301C1449.34 155.92 1449.24 155.498 1449.24 155.035C1449.24 154.59 1449.34 154.18 1449.54 153.805C1449.74 153.43 1450.01 153.134 1450.35 152.917C1450.7 152.7 1451.07 152.592 1451.47 152.592C1451.87 152.592 1452.25 152.703 1452.59 152.926C1452.93 153.143 1453.2 153.438 1453.39 153.813C1453.6 154.188 1453.7 154.602 1453.7 155.053C1453.7 155.527 1453.61 155.952 1453.41 156.327C1453.22 156.696 1452.95 156.986 1452.61 157.197C1452.27 157.402 1451.89 157.505 1451.47 157.505ZM1449.76 164L1456.13 152.785H1457.42L1451 164H1449.76ZM1451.43 156.371C1451.72 156.371 1451.94 156.251 1452.08 156.011C1452.24 155.765 1452.31 155.445 1452.31 155.053C1452.31 154.666 1452.24 154.35 1452.08 154.104C1451.94 153.852 1451.72 153.726 1451.43 153.726C1451.14 153.726 1450.92 153.852 1450.77 154.104C1450.62 154.35 1450.55 154.666 1450.55 155.053C1450.55 155.445 1450.62 155.765 1450.77 156.011C1450.92 156.251 1451.14 156.371 1451.43 156.371ZM1455.57 164.176C1455.17 164.176 1454.8 164.07 1454.46 163.859C1454.12 163.643 1453.85 163.347 1453.64 162.972C1453.44 162.597 1453.34 162.178 1453.34 161.715C1453.34 161.27 1453.44 160.859 1453.64 160.484C1453.85 160.104 1454.12 159.805 1454.46 159.588C1454.8 159.371 1455.18 159.263 1455.57 159.263C1455.97 159.263 1456.34 159.374 1456.68 159.597C1457.03 159.813 1457.3 160.112 1457.5 160.493C1457.7 160.868 1457.8 161.281 1457.8 161.732C1457.8 162.207 1457.7 162.629 1457.51 162.998C1457.31 163.367 1457.05 163.657 1456.71 163.868C1456.37 164.073 1456 164.176 1455.57 164.176ZM1455.53 163.042C1455.82 163.042 1456.04 162.922 1456.19 162.682C1456.34 162.441 1456.42 162.125 1456.42 161.732C1456.42 161.346 1456.34 161.026 1456.19 160.774C1456.04 160.522 1455.82 160.396 1455.53 160.396C1455.24 160.396 1455.02 160.522 1454.87 160.774C1454.72 161.026 1454.65 161.346 1454.65 161.732C1454.65 162.125 1454.72 162.441 1454.87 162.682C1455.02 162.922 1455.24 163.042 1455.53 163.042Z" fill="#39457A"/>
        <path d="M91.7266 150.058V146.902H88.7383V145.373H91.7266V142.481H93.4756V145.373H96.3496V146.902H93.4756V150.058H91.7266ZM101.5 140.574C102.314 140.574 103.012 140.806 103.592 141.269C104.172 141.731 104.614 142.405 104.919 143.29C105.229 144.169 105.385 145.224 105.385 146.454C105.385 147.685 105.229 148.742 104.919 149.627C104.614 150.506 104.172 151.18 103.592 151.648C103.012 152.111 102.314 152.343 101.5 152.343C100.686 152.343 99.9883 152.111 99.4082 151.648C98.8281 151.18 98.3828 150.506 98.0723 149.627C97.7676 148.742 97.6152 147.685 97.6152 146.454C97.6152 145.224 97.7676 144.169 98.0723 143.29C98.3828 142.405 98.8281 141.731 99.4082 141.269C99.9883 140.806 100.686 140.574 101.5 140.574ZM101.5 142.191C101.09 142.191 100.738 142.361 100.445 142.701C100.152 143.035 99.9268 143.521 99.7686 144.16C99.6162 144.799 99.54 145.563 99.54 146.454C99.54 146.911 99.5635 147.359 99.6104 147.799L103.082 143.677C102.918 143.196 102.701 142.83 102.432 142.578C102.162 142.32 101.852 142.191 101.5 142.191ZM101.5 150.726C101.91 150.726 102.262 150.556 102.555 150.216C102.848 149.876 103.07 149.387 103.223 148.748C103.381 148.109 103.46 147.345 103.46 146.454C103.46 145.927 103.434 145.449 103.381 145.021L99.8916 149.17C100.056 149.674 100.272 150.061 100.542 150.33C100.817 150.594 101.137 150.726 101.5 150.726ZM110.324 152.237C110.102 152.237 109.894 152.182 109.7 152.07C109.513 151.965 109.363 151.818 109.252 151.631C109.146 151.438 109.094 151.229 109.094 151.007C109.094 150.79 109.146 150.591 109.252 150.409C109.363 150.222 109.513 150.075 109.7 149.97C109.894 149.858 110.102 149.803 110.324 149.803C110.541 149.803 110.74 149.858 110.922 149.97C111.109 150.075 111.256 150.222 111.361 150.409C111.473 150.591 111.528 150.79 111.528 151.007C111.528 151.229 111.473 151.438 111.361 151.631C111.256 151.818 111.109 151.965 110.922 152.07C110.74 152.182 110.541 152.237 110.324 152.237ZM119.79 144.529C120.411 144.529 120.979 144.693 121.495 145.021C122.011 145.35 122.418 145.807 122.717 146.393C123.021 146.973 123.174 147.629 123.174 148.361C123.174 149.1 123.016 149.773 122.699 150.383C122.389 150.986 121.964 151.464 121.425 151.815C120.892 152.167 120.303 152.343 119.658 152.343C118.891 152.343 118.223 152.108 117.654 151.64C117.092 151.171 116.661 150.521 116.362 149.688C116.063 148.856 115.914 147.904 115.914 146.832C115.914 145.549 116.087 144.436 116.433 143.492C116.784 142.543 117.276 141.816 117.909 141.312C118.542 140.803 119.271 140.548 120.098 140.548C120.602 140.548 121.094 140.662 121.574 140.891C122.055 141.113 122.503 141.438 122.919 141.866L121.653 143.211L121.645 143.22L121.53 143.07C121.372 142.877 121.237 142.73 121.126 142.631C121.021 142.525 120.886 142.44 120.722 142.376C120.558 142.312 120.35 142.279 120.098 142.279C119.781 142.279 119.474 142.382 119.175 142.587C118.876 142.792 118.612 143.126 118.384 143.589C118.161 144.046 118.012 144.641 117.936 145.373C118.176 145.133 118.466 144.934 118.806 144.775C119.146 144.611 119.474 144.529 119.79 144.529ZM121.398 143.176C121.398 143.158 121.407 143.149 121.425 143.149C121.454 143.149 121.516 143.185 121.609 143.255L121.548 143.325L121.398 143.185V143.176ZM121.645 143.22C121.697 143.278 121.724 143.316 121.724 143.334C121.724 143.334 121.686 143.308 121.609 143.255L121.645 143.22ZM119.702 150.488C119.978 150.488 120.227 150.406 120.449 150.242C120.672 150.072 120.848 149.829 120.977 149.513C121.105 149.19 121.17 148.807 121.17 148.361C121.17 147.916 121.097 147.538 120.95 147.228C120.804 146.917 120.616 146.688 120.388 146.542C120.159 146.39 119.922 146.313 119.676 146.313C119.354 146.313 119.037 146.413 118.727 146.612C118.422 146.806 118.17 147.066 117.971 147.395C117.971 148.027 118.044 148.578 118.19 149.047C118.343 149.51 118.548 149.867 118.806 150.119C119.069 150.365 119.368 150.488 119.702 150.488ZM128.79 144.477C129.499 144.477 130.117 144.632 130.645 144.942C131.172 145.253 131.579 145.701 131.866 146.287C132.153 146.873 132.297 147.57 132.297 148.379C132.297 149.158 132.145 149.847 131.84 150.444C131.535 151.042 131.102 151.508 130.539 151.842C129.977 152.176 129.32 152.343 128.57 152.343C126.918 152.343 125.714 151.634 124.958 150.216L126.452 149.073L126.47 149.064L126.479 149.082C126.637 149.387 126.798 149.645 126.962 149.855C127.126 150.061 127.334 150.23 127.586 150.365C127.838 150.494 128.143 150.559 128.5 150.559C128.846 150.559 129.153 150.477 129.423 150.312C129.692 150.143 129.906 149.894 130.064 149.565C130.223 149.237 130.302 148.836 130.302 148.361C130.302 147.664 130.144 147.122 129.827 146.735C129.511 146.343 129.092 146.146 128.57 146.146C128.213 146.146 127.896 146.234 127.621 146.41C127.346 146.58 127.073 146.853 126.804 147.228L125.512 146.674L125.925 140.785H131.954V142.499H127.691L127.542 144.67C127.981 144.541 128.397 144.477 128.79 144.477ZM126.47 149.064C126.44 149.012 126.426 148.977 126.426 148.959C126.426 148.941 126.452 148.965 126.505 149.029L126.47 149.064ZM126.707 149.144C126.707 149.167 126.698 149.179 126.681 149.179C126.663 149.179 126.631 149.158 126.584 149.117C126.543 149.07 126.517 149.041 126.505 149.029L126.584 148.977L126.707 149.144ZM135.47 145.505C135.071 145.505 134.699 145.399 134.354 145.188C134.014 144.972 133.741 144.676 133.536 144.301C133.337 143.92 133.237 143.498 133.237 143.035C133.237 142.59 133.337 142.18 133.536 141.805C133.741 141.43 134.014 141.134 134.354 140.917C134.699 140.7 135.071 140.592 135.47 140.592C135.874 140.592 136.246 140.703 136.586 140.926C136.926 141.143 137.195 141.438 137.395 141.813C137.6 142.188 137.702 142.602 137.702 143.053C137.702 143.527 137.605 143.952 137.412 144.327C137.219 144.696 136.952 144.986 136.612 145.197C136.272 145.402 135.892 145.505 135.47 145.505ZM133.756 152L140.128 140.785H141.42L134.995 152H133.756ZM135.426 144.371C135.719 144.371 135.938 144.251 136.085 144.011C136.237 143.765 136.313 143.445 136.313 143.053C136.313 142.666 136.237 142.35 136.085 142.104C135.938 141.852 135.719 141.726 135.426 141.726C135.139 141.726 134.919 141.852 134.767 142.104C134.62 142.35 134.547 142.666 134.547 143.053C134.547 143.445 134.62 143.765 134.767 144.011C134.919 144.251 135.139 144.371 135.426 144.371ZM139.574 152.176C139.17 152.176 138.798 152.07 138.458 151.859C138.118 151.643 137.846 151.347 137.641 150.972C137.441 150.597 137.342 150.178 137.342 149.715C137.342 149.27 137.441 148.859 137.641 148.484C137.846 148.104 138.118 147.805 138.458 147.588C138.804 147.371 139.176 147.263 139.574 147.263C139.973 147.263 140.342 147.374 140.682 147.597C141.027 147.813 141.3 148.112 141.499 148.493C141.698 148.868 141.798 149.281 141.798 149.732C141.798 150.207 141.701 150.629 141.508 150.998C141.314 151.367 141.048 151.657 140.708 151.868C140.374 152.073 139.996 152.176 139.574 152.176ZM139.53 151.042C139.823 151.042 140.043 150.922 140.189 150.682C140.342 150.441 140.418 150.125 140.418 149.732C140.418 149.346 140.342 149.026 140.189 148.774C140.043 148.522 139.823 148.396 139.53 148.396C139.243 148.396 139.023 148.522 138.871 148.774C138.725 149.026 138.651 149.346 138.651 149.732C138.651 150.125 138.725 150.441 138.871 150.682C139.018 150.922 139.237 151.042 139.53 151.042Z" fill="#39457A"/>
        <path d="M64.7266 513.058V509.902H61.7383V508.373H64.7266V505.481H66.4756V508.373H69.3496V509.902H66.4756V513.058H64.7266ZM74.5 503.574C75.3145 503.574 76.0117 503.806 76.5918 504.269C77.1719 504.731 77.6143 505.405 77.9189 506.29C78.2295 507.169 78.3848 508.224 78.3848 509.454C78.3848 510.685 78.2295 511.742 77.9189 512.627C77.6143 513.506 77.1719 514.18 76.5918 514.648C76.0117 515.111 75.3145 515.343 74.5 515.343C73.6855 515.343 72.9883 515.111 72.4082 514.648C71.8281 514.18 71.3828 513.506 71.0723 512.627C70.7676 511.742 70.6152 510.685 70.6152 509.454C70.6152 508.224 70.7676 507.169 71.0723 506.29C71.3828 505.405 71.8281 504.731 72.4082 504.269C72.9883 503.806 73.6855 503.574 74.5 503.574ZM74.5 505.191C74.0898 505.191 73.7383 505.361 73.4453 505.701C73.1523 506.035 72.9268 506.521 72.7686 507.16C72.6162 507.799 72.54 508.563 72.54 509.454C72.54 509.911 72.5635 510.359 72.6104 510.799L76.082 506.677C75.918 506.196 75.7012 505.83 75.4316 505.578C75.1621 505.32 74.8516 505.191 74.5 505.191ZM74.5 513.726C74.9102 513.726 75.2617 513.556 75.5547 513.216C75.8477 512.876 76.0703 512.387 76.2227 511.748C76.3809 511.109 76.46 510.345 76.46 509.454C76.46 508.927 76.4336 508.449 76.3809 508.021L72.8916 512.17C73.0557 512.674 73.2725 513.061 73.542 513.33C73.8174 513.594 74.1367 513.726 74.5 513.726ZM83.3242 515.237C83.1016 515.237 82.8936 515.182 82.7002 515.07C82.5127 514.965 82.3633 514.818 82.252 514.631C82.1465 514.438 82.0938 514.229 82.0938 514.007C82.0938 513.79 82.1465 513.591 82.252 513.409C82.3633 513.222 82.5127 513.075 82.7002 512.97C82.8936 512.858 83.1016 512.803 83.3242 512.803C83.541 512.803 83.7402 512.858 83.9219 512.97C84.1094 513.075 84.2559 513.222 84.3613 513.409C84.4727 513.591 84.5283 513.79 84.5283 514.007C84.5283 514.229 84.4727 514.438 84.3613 514.631C84.2559 514.818 84.1094 514.965 83.9219 515.07C83.7402 515.182 83.541 515.237 83.3242 515.237ZM92.79 507.529C93.4111 507.529 93.9795 507.693 94.4951 508.021C95.0107 508.35 95.418 508.807 95.7168 509.393C96.0215 509.973 96.1738 510.629 96.1738 511.361C96.1738 512.1 96.0156 512.773 95.6992 513.383C95.3887 513.986 94.9639 514.464 94.4248 514.815C93.8916 515.167 93.3027 515.343 92.6582 515.343C91.8906 515.343 91.2227 515.108 90.6543 514.64C90.0918 514.171 89.6611 513.521 89.3623 512.688C89.0635 511.856 88.9141 510.904 88.9141 509.832C88.9141 508.549 89.0869 507.436 89.4326 506.492C89.7842 505.543 90.2764 504.816 90.9092 504.312C91.542 503.803 92.2715 503.548 93.0977 503.548C93.6016 503.548 94.0938 503.662 94.5742 503.891C95.0547 504.113 95.5029 504.438 95.9189 504.866L94.6533 506.211L94.6445 506.22L94.5303 506.07C94.3721 505.877 94.2373 505.73 94.126 505.631C94.0205 505.525 93.8857 505.44 93.7217 505.376C93.5576 505.312 93.3496 505.279 93.0977 505.279C92.7812 505.279 92.4736 505.382 92.1748 505.587C91.876 505.792 91.6123 506.126 91.3838 506.589C91.1611 507.046 91.0117 507.641 90.9355 508.373C91.1758 508.133 91.4658 507.934 91.8057 507.775C92.1455 507.611 92.4736 507.529 92.79 507.529ZM94.3984 506.176C94.3984 506.158 94.4072 506.149 94.4248 506.149C94.4541 506.149 94.5156 506.185 94.6094 506.255L94.5479 506.325L94.3984 506.185V506.176ZM94.6445 506.22C94.6973 506.278 94.7236 506.316 94.7236 506.334C94.7236 506.334 94.6855 506.308 94.6094 506.255L94.6445 506.22ZM92.7021 513.488C92.9775 513.488 93.2266 513.406 93.4492 513.242C93.6719 513.072 93.8477 512.829 93.9766 512.513C94.1055 512.19 94.1699 511.807 94.1699 511.361C94.1699 510.916 94.0967 510.538 93.9502 510.228C93.8037 509.917 93.6162 509.688 93.3877 509.542C93.1592 509.39 92.9219 509.313 92.6758 509.313C92.3535 509.313 92.0371 509.413 91.7266 509.612C91.4219 509.806 91.1699 510.066 90.9707 510.395C90.9707 511.027 91.0439 511.578 91.1904 512.047C91.3428 512.51 91.5479 512.867 91.8057 513.119C92.0693 513.365 92.3682 513.488 92.7021 513.488ZM101.79 507.477C102.499 507.477 103.117 507.632 103.645 507.942C104.172 508.253 104.579 508.701 104.866 509.287C105.153 509.873 105.297 510.57 105.297 511.379C105.297 512.158 105.145 512.847 104.84 513.444C104.535 514.042 104.102 514.508 103.539 514.842C102.977 515.176 102.32 515.343 101.57 515.343C99.918 515.343 98.7139 514.634 97.958 513.216L99.4521 512.073L99.4697 512.064L99.4785 512.082C99.6367 512.387 99.7979 512.645 99.9619 512.855C100.126 513.061 100.334 513.23 100.586 513.365C100.838 513.494 101.143 513.559 101.5 513.559C101.846 513.559 102.153 513.477 102.423 513.312C102.692 513.143 102.906 512.894 103.064 512.565C103.223 512.237 103.302 511.836 103.302 511.361C103.302 510.664 103.144 510.122 102.827 509.735C102.511 509.343 102.092 509.146 101.57 509.146C101.213 509.146 100.896 509.234 100.621 509.41C100.346 509.58 100.073 509.853 99.8037 510.228L98.5117 509.674L98.9248 503.785H104.954V505.499H100.691L100.542 507.67C100.981 507.541 101.397 507.477 101.79 507.477ZM99.4697 512.064C99.4404 512.012 99.4258 511.977 99.4258 511.959C99.4258 511.941 99.4521 511.965 99.5049 512.029L99.4697 512.064ZM99.707 512.144C99.707 512.167 99.6982 512.179 99.6807 512.179C99.6631 512.179 99.6309 512.158 99.584 512.117C99.543 512.07 99.5166 512.041 99.5049 512.029L99.584 511.977L99.707 512.144ZM108.47 508.505C108.071 508.505 107.699 508.399 107.354 508.188C107.014 507.972 106.741 507.676 106.536 507.301C106.337 506.92 106.237 506.498 106.237 506.035C106.237 505.59 106.337 505.18 106.536 504.805C106.741 504.43 107.014 504.134 107.354 503.917C107.699 503.7 108.071 503.592 108.47 503.592C108.874 503.592 109.246 503.703 109.586 503.926C109.926 504.143 110.195 504.438 110.395 504.813C110.6 505.188 110.702 505.602 110.702 506.053C110.702 506.527 110.605 506.952 110.412 507.327C110.219 507.696 109.952 507.986 109.612 508.197C109.272 508.402 108.892 508.505 108.47 508.505ZM106.756 515L113.128 503.785H114.42L107.995 515H106.756ZM108.426 507.371C108.719 507.371 108.938 507.251 109.085 507.011C109.237 506.765 109.313 506.445 109.313 506.053C109.313 505.666 109.237 505.35 109.085 505.104C108.938 504.852 108.719 504.726 108.426 504.726C108.139 504.726 107.919 504.852 107.767 505.104C107.62 505.35 107.547 505.666 107.547 506.053C107.547 506.445 107.62 506.765 107.767 507.011C107.919 507.251 108.139 507.371 108.426 507.371ZM112.574 515.176C112.17 515.176 111.798 515.07 111.458 514.859C111.118 514.643 110.846 514.347 110.641 513.972C110.441 513.597 110.342 513.178 110.342 512.715C110.342 512.27 110.441 511.859 110.641 511.484C110.846 511.104 111.118 510.805 111.458 510.588C111.804 510.371 112.176 510.263 112.574 510.263C112.973 510.263 113.342 510.374 113.682 510.597C114.027 510.813 114.3 511.112 114.499 511.493C114.698 511.868 114.798 512.281 114.798 512.732C114.798 513.207 114.701 513.629 114.508 513.998C114.314 514.367 114.048 514.657 113.708 514.868C113.374 515.073 112.996 515.176 112.574 515.176ZM112.53 514.042C112.823 514.042 113.043 513.922 113.189 513.682C113.342 513.441 113.418 513.125 113.418 512.732C113.418 512.346 113.342 512.026 113.189 511.774C113.043 511.522 112.823 511.396 112.53 511.396C112.243 511.396 112.023 511.522 111.871 511.774C111.725 512.026 111.651 512.346 111.651 512.732C111.651 513.125 111.725 513.441 111.871 513.682C112.018 513.922 112.237 514.042 112.53 514.042Z" fill="#39457A"/>
        <path d="M1311.73 541.058V537.902H1308.74V536.373H1311.73V533.481H1313.48V536.373H1316.35V537.902H1313.48V541.058H1311.73ZM1321.5 531.574C1322.31 531.574 1323.01 531.806 1323.59 532.269C1324.17 532.731 1324.61 533.405 1324.92 534.29C1325.23 535.169 1325.38 536.224 1325.38 537.454C1325.38 538.685 1325.23 539.742 1324.92 540.627C1324.61 541.506 1324.17 542.18 1323.59 542.648C1323.01 543.111 1322.31 543.343 1321.5 543.343C1320.69 543.343 1319.99 543.111 1319.41 542.648C1318.83 542.18 1318.38 541.506 1318.07 540.627C1317.77 539.742 1317.62 538.685 1317.62 537.454C1317.62 536.224 1317.77 535.169 1318.07 534.29C1318.38 533.405 1318.83 532.731 1319.41 532.269C1319.99 531.806 1320.69 531.574 1321.5 531.574ZM1321.5 533.191C1321.09 533.191 1320.74 533.361 1320.45 533.701C1320.15 534.035 1319.93 534.521 1319.77 535.16C1319.62 535.799 1319.54 536.563 1319.54 537.454C1319.54 537.911 1319.56 538.359 1319.61 538.799L1323.08 534.677C1322.92 534.196 1322.7 533.83 1322.43 533.578C1322.16 533.32 1321.85 533.191 1321.5 533.191ZM1321.5 541.726C1321.91 541.726 1322.26 541.556 1322.55 541.216C1322.85 540.876 1323.07 540.387 1323.22 539.748C1323.38 539.109 1323.46 538.345 1323.46 537.454C1323.46 536.927 1323.43 536.449 1323.38 536.021L1319.89 540.17C1320.06 540.674 1320.27 541.061 1320.54 541.33C1320.82 541.594 1321.14 541.726 1321.5 541.726ZM1330.32 543.237C1330.1 543.237 1329.89 543.182 1329.7 543.07C1329.51 542.965 1329.36 542.818 1329.25 542.631C1329.15 542.438 1329.09 542.229 1329.09 542.007C1329.09 541.79 1329.15 541.591 1329.25 541.409C1329.36 541.222 1329.51 541.075 1329.7 540.97C1329.89 540.858 1330.1 540.803 1330.32 540.803C1330.54 540.803 1330.74 540.858 1330.92 540.97C1331.11 541.075 1331.26 541.222 1331.36 541.409C1331.47 541.591 1331.53 541.79 1331.53 542.007C1331.53 542.229 1331.47 542.438 1331.36 542.631C1331.26 542.818 1331.11 542.965 1330.92 543.07C1330.74 543.182 1330.54 543.237 1330.32 543.237ZM1339.79 535.529C1340.41 535.529 1340.98 535.693 1341.5 536.021C1342.01 536.35 1342.42 536.807 1342.72 537.393C1343.02 537.973 1343.17 538.629 1343.17 539.361C1343.17 540.1 1343.02 540.773 1342.7 541.383C1342.39 541.986 1341.96 542.464 1341.42 542.815C1340.89 543.167 1340.3 543.343 1339.66 543.343C1338.89 543.343 1338.22 543.108 1337.65 542.64C1337.09 542.171 1336.66 541.521 1336.36 540.688C1336.06 539.856 1335.91 538.904 1335.91 537.832C1335.91 536.549 1336.09 535.436 1336.43 534.492C1336.78 533.543 1337.28 532.816 1337.91 532.312C1338.54 531.803 1339.27 531.548 1340.1 531.548C1340.6 531.548 1341.09 531.662 1341.57 531.891C1342.05 532.113 1342.5 532.438 1342.92 532.866L1341.65 534.211L1341.64 534.22L1341.53 534.07C1341.37 533.877 1341.24 533.73 1341.13 533.631C1341.02 533.525 1340.89 533.44 1340.72 533.376C1340.56 533.312 1340.35 533.279 1340.1 533.279C1339.78 533.279 1339.47 533.382 1339.17 533.587C1338.88 533.792 1338.61 534.126 1338.38 534.589C1338.16 535.046 1338.01 535.641 1337.94 536.373C1338.18 536.133 1338.47 535.934 1338.81 535.775C1339.15 535.611 1339.47 535.529 1339.79 535.529ZM1341.4 534.176C1341.4 534.158 1341.41 534.149 1341.42 534.149C1341.45 534.149 1341.52 534.185 1341.61 534.255L1341.55 534.325L1341.4 534.185V534.176ZM1341.64 534.22C1341.7 534.278 1341.72 534.316 1341.72 534.334C1341.72 534.334 1341.69 534.308 1341.61 534.255L1341.64 534.22ZM1339.7 541.488C1339.98 541.488 1340.23 541.406 1340.45 541.242C1340.67 541.072 1340.85 540.829 1340.98 540.513C1341.11 540.19 1341.17 539.807 1341.17 539.361C1341.17 538.916 1341.1 538.538 1340.95 538.228C1340.8 537.917 1340.62 537.688 1340.39 537.542C1340.16 537.39 1339.92 537.313 1339.68 537.313C1339.35 537.313 1339.04 537.413 1338.73 537.612C1338.42 537.806 1338.17 538.066 1337.97 538.395C1337.97 539.027 1338.04 539.578 1338.19 540.047C1338.34 540.51 1338.55 540.867 1338.81 541.119C1339.07 541.365 1339.37 541.488 1339.7 541.488ZM1348.79 535.477C1349.5 535.477 1350.12 535.632 1350.64 535.942C1351.17 536.253 1351.58 536.701 1351.87 537.287C1352.15 537.873 1352.3 538.57 1352.3 539.379C1352.3 540.158 1352.14 540.847 1351.84 541.444C1351.54 542.042 1351.1 542.508 1350.54 542.842C1349.98 543.176 1349.32 543.343 1348.57 543.343C1346.92 543.343 1345.71 542.634 1344.96 541.216L1346.45 540.073L1346.47 540.064L1346.48 540.082C1346.64 540.387 1346.8 540.645 1346.96 540.855C1347.13 541.061 1347.33 541.23 1347.59 541.365C1347.84 541.494 1348.14 541.559 1348.5 541.559C1348.85 541.559 1349.15 541.477 1349.42 541.312C1349.69 541.143 1349.91 540.894 1350.06 540.565C1350.22 540.237 1350.3 539.836 1350.3 539.361C1350.3 538.664 1350.14 538.122 1349.83 537.735C1349.51 537.343 1349.09 537.146 1348.57 537.146C1348.21 537.146 1347.9 537.234 1347.62 537.41C1347.35 537.58 1347.07 537.853 1346.8 538.228L1345.51 537.674L1345.92 531.785H1351.95V533.499H1347.69L1347.54 535.67C1347.98 535.541 1348.4 535.477 1348.79 535.477ZM1346.47 540.064C1346.44 540.012 1346.43 539.977 1346.43 539.959C1346.43 539.941 1346.45 539.965 1346.5 540.029L1346.47 540.064ZM1346.71 540.144C1346.71 540.167 1346.7 540.179 1346.68 540.179C1346.66 540.179 1346.63 540.158 1346.58 540.117C1346.54 540.07 1346.52 540.041 1346.5 540.029L1346.58 539.977L1346.71 540.144ZM1355.47 536.505C1355.07 536.505 1354.7 536.399 1354.35 536.188C1354.01 535.972 1353.74 535.676 1353.54 535.301C1353.34 534.92 1353.24 534.498 1353.24 534.035C1353.24 533.59 1353.34 533.18 1353.54 532.805C1353.74 532.43 1354.01 532.134 1354.35 531.917C1354.7 531.7 1355.07 531.592 1355.47 531.592C1355.87 531.592 1356.25 531.703 1356.59 531.926C1356.93 532.143 1357.2 532.438 1357.39 532.813C1357.6 533.188 1357.7 533.602 1357.7 534.053C1357.7 534.527 1357.61 534.952 1357.41 535.327C1357.22 535.696 1356.95 535.986 1356.61 536.197C1356.27 536.402 1355.89 536.505 1355.47 536.505ZM1353.76 543L1360.13 531.785H1361.42L1355 543H1353.76ZM1355.43 535.371C1355.72 535.371 1355.94 535.251 1356.08 535.011C1356.24 534.765 1356.31 534.445 1356.31 534.053C1356.31 533.666 1356.24 533.35 1356.08 533.104C1355.94 532.852 1355.72 532.726 1355.43 532.726C1355.14 532.726 1354.92 532.852 1354.77 533.104C1354.62 533.35 1354.55 533.666 1354.55 534.053C1354.55 534.445 1354.62 534.765 1354.77 535.011C1354.92 535.251 1355.14 535.371 1355.43 535.371ZM1359.57 543.176C1359.17 543.176 1358.8 543.07 1358.46 542.859C1358.12 542.643 1357.85 542.347 1357.64 541.972C1357.44 541.597 1357.34 541.178 1357.34 540.715C1357.34 540.27 1357.44 539.859 1357.64 539.484C1357.85 539.104 1358.12 538.805 1358.46 538.588C1358.8 538.371 1359.18 538.263 1359.57 538.263C1359.97 538.263 1360.34 538.374 1360.68 538.597C1361.03 538.813 1361.3 539.112 1361.5 539.493C1361.7 539.868 1361.8 540.281 1361.8 540.732C1361.8 541.207 1361.7 541.629 1361.51 541.998C1361.31 542.367 1361.05 542.657 1360.71 542.868C1360.37 543.073 1360 543.176 1359.57 543.176ZM1359.53 542.042C1359.82 542.042 1360.04 541.922 1360.19 541.682C1360.34 541.441 1360.42 541.125 1360.42 540.732C1360.42 540.346 1360.34 540.026 1360.19 539.774C1360.04 539.522 1359.82 539.396 1359.53 539.396C1359.24 539.396 1359.02 539.522 1358.87 539.774C1358.72 540.026 1358.65 540.346 1358.65 540.732C1358.65 541.125 1358.72 541.441 1358.87 541.682C1359.02 541.922 1359.24 542.042 1359.53 542.042Z" fill="#39457A"/>
        <g filter="url(#filter3_f)">
            <path d="M1383.17 619.416L1388.36 614.168C1391.81 610.712 1394.39 608.003 1396.1 606.04C1397.85 604.077 1399.24 602.136 1400.26 600.216C1401.28 598.253 1401.8 596.227 1401.8 594.136C1401.8 591.533 1401.18 589.656 1399.94 588.504C1398.7 587.352 1397.06 586.776 1395.01 586.776C1393.18 586.776 1391.47 587.181 1389.89 587.992C1388.36 588.803 1387.33 589.699 1386.82 590.68C1386.56 591.149 1386.31 591.64 1386.05 592.152C1385.8 592.621 1385.67 592.899 1385.67 592.984C1385.67 593.027 1385.69 593.048 1385.73 593.048C1385.77 593.048 1385.86 593.027 1385.99 592.984C1386.12 592.899 1386.2 592.941 1386.24 593.112L1386.05 593.496L1385.48 593.176L1382.21 590.616C1383.49 588.141 1385.24 586.243 1387.46 584.92C1389.68 583.555 1392.17 582.872 1394.95 582.872C1398.36 582.872 1401.11 583.896 1403.2 585.944C1405.34 587.992 1406.4 590.765 1406.4 594.264C1406.4 596.568 1405.85 598.808 1404.74 600.984C1403.63 603.16 1402.2 605.229 1400.45 607.192C1398.75 609.155 1396.36 611.651 1393.28 614.68L1388.93 619.096H1403.78C1404.46 619.096 1404.95 619.053 1405.25 618.968C1405.59 618.883 1405.89 618.712 1406.15 618.456H1406.6V623H1383.17V619.416ZM1430.21 601.88C1432.56 602.648 1434.41 603.885 1435.78 605.592C1437.15 607.299 1437.83 609.453 1437.83 612.056C1437.83 614.189 1437.36 616.152 1436.42 617.944C1435.48 619.693 1434.12 621.101 1432.32 622.168C1430.53 623.192 1428.38 623.704 1425.86 623.704C1423.73 623.704 1421.7 623.32 1419.78 622.552C1417.9 621.784 1416.28 620.653 1414.92 619.16L1417.86 615.64L1417.92 615.576L1417.99 615.64C1419.05 617.005 1420.14 618.051 1421.25 618.776C1422.4 619.501 1423.88 619.864 1425.67 619.864C1428.14 619.864 1430.02 619.139 1431.3 617.688C1432.58 616.237 1433.22 614.296 1433.22 611.864C1433.22 609.219 1432.41 607.235 1430.79 605.912C1429.21 604.589 1426.97 603.928 1424.07 603.928C1423.64 603.928 1422.96 603.971 1422.02 604.056V600.472C1425.82 600.472 1428.4 599.768 1429.76 598.36C1431.17 596.952 1431.88 595.032 1431.88 592.6C1431.88 590.808 1431.34 589.379 1430.28 588.312C1429.25 587.245 1427.89 586.712 1426.18 586.712C1423.41 586.712 1420.97 587.693 1418.88 589.656L1416.2 586.968C1418.8 584.237 1422.11 582.872 1426.12 582.872C1429.32 582.872 1431.83 583.789 1433.67 585.624C1435.55 587.416 1436.48 589.805 1436.48 592.792C1436.48 594.968 1435.95 596.867 1434.88 598.488C1433.82 600.109 1432.26 601.24 1430.21 601.88ZM1418.63 615.448C1418.63 615.576 1418.56 615.64 1418.44 615.64C1418.31 615.597 1418.18 615.533 1418.05 615.448L1418.31 615.128L1418.63 615.448ZM1417.92 615.576C1417.75 615.277 1417.71 615.171 1417.8 615.256C1417.92 615.341 1418.01 615.405 1418.05 615.448L1417.92 615.576ZM1462.85 623V613.208H1445.57V609.944L1463.81 583.064H1467.59V609.496H1472.71V613.272H1467.59V623H1462.85ZM1450.76 609.432H1462.85V591.128L1450.76 609.432Z" fill="#39457A"/>
        </g>
    </g>
    <g opacity="0.2" filter="url(#filter4_f)">
        <ellipse cx="1179.5" cy="291" rx="198.5" ry="188" fill="#00FFCB"/>
    </g>
    <g opacity="0.9">
        <g filter="url(#filter5_d)">
            <rect x="1219" y="423" width="176" height="55.9134" rx="4.19048" fill="#9DA1B6"/>
        </g>
        <path d="M1245.69 463.857C1244.11 463.857 1242.67 463.533 1241.38 462.884C1240.09 462.223 1239.08 461.329 1238.34 460.204C1237.6 459.079 1237.23 457.841 1237.23 456.491C1237.23 455.167 1237.65 453.89 1238.5 452.659C1239.36 451.415 1240.5 450.402 1241.91 449.621C1240.87 448.933 1240.02 448.079 1239.37 447.06C1238.72 446.04 1238.4 444.995 1238.4 443.922C1238.4 442.691 1238.74 441.553 1239.41 440.507C1240.09 439.461 1241 438.634 1242.15 438.025C1243.3 437.403 1244.56 437.092 1245.92 437.092C1247.3 437.092 1248.55 437.39 1249.68 437.986C1250.82 438.581 1251.71 439.389 1252.36 440.408C1253.01 441.414 1253.33 442.506 1253.33 443.684C1253.33 444.756 1252.98 445.815 1252.28 446.861C1251.59 447.907 1250.71 448.787 1249.64 449.502C1250.99 450.256 1252.08 451.249 1252.91 452.48C1253.76 453.711 1254.18 455.008 1254.18 456.372C1254.18 457.762 1253.81 459.026 1253.05 460.164C1252.3 461.303 1251.27 462.203 1249.97 462.865C1248.68 463.526 1247.25 463.857 1245.69 463.857ZM1246.34 447.635C1247.06 447.146 1247.63 446.563 1248.07 445.888C1248.52 445.213 1248.74 444.518 1248.74 443.803C1248.74 443.327 1248.61 442.883 1248.35 442.473C1248.08 442.049 1247.72 441.712 1247.27 441.46C1246.82 441.209 1246.33 441.083 1245.81 441.083C1245.28 441.083 1244.79 441.202 1244.36 441.44C1243.93 441.679 1243.6 442.003 1243.36 442.413C1243.12 442.81 1243.01 443.247 1243.01 443.724C1243.01 445.167 1244.12 446.47 1246.34 447.635ZM1245.77 459.747C1246.45 459.747 1247.07 459.595 1247.61 459.291C1248.17 458.986 1248.6 458.576 1248.9 458.06C1249.22 457.543 1249.38 456.967 1249.38 456.332C1249.38 455.366 1249 454.459 1248.25 453.612C1247.49 452.765 1246.49 452.116 1245.23 451.666C1244.29 452.156 1243.52 452.804 1242.93 453.612C1242.33 454.419 1242.03 455.286 1242.03 456.213C1242.03 456.835 1242.2 457.418 1242.53 457.96C1242.87 458.503 1243.33 458.94 1243.9 459.271C1244.48 459.588 1245.1 459.747 1245.77 459.747ZM1260.48 463.083C1261.88 458.913 1263.21 455.101 1264.45 451.646C1265.71 448.191 1266.99 444.889 1268.3 441.738H1258.53V437.747H1273.78V440.07C1270.86 446.729 1268.06 454.399 1265.4 463.083H1260.48ZM1287.24 463.083V456.828H1277.57V453.969L1288.55 437.747H1291.83V453.036H1295.21V456.868H1291.83V463.083H1287.24ZM1282.28 453.155H1287.4V445.59L1282.28 453.155ZM1307.34 446.087C1308.94 446.087 1310.34 446.437 1311.53 447.139C1312.72 447.841 1313.64 448.853 1314.29 450.177C1314.94 451.501 1315.26 453.076 1315.26 454.902C1315.26 456.663 1314.92 458.218 1314.23 459.569C1313.54 460.919 1312.56 461.971 1311.29 462.726C1310.02 463.48 1308.54 463.857 1306.84 463.857C1303.11 463.857 1300.39 462.256 1298.68 459.052L1302.06 456.471L1302.1 456.451L1302.12 456.491C1302.47 457.179 1302.84 457.762 1303.21 458.238C1303.58 458.702 1304.05 459.085 1304.62 459.39C1305.19 459.681 1305.88 459.827 1306.68 459.827C1307.46 459.827 1308.16 459.641 1308.77 459.271C1309.38 458.887 1309.86 458.324 1310.22 457.583C1310.57 456.842 1310.75 455.935 1310.75 454.863C1310.75 453.288 1310.4 452.063 1309.68 451.189C1308.97 450.303 1308.02 449.859 1306.84 449.859C1306.03 449.859 1305.32 450.058 1304.7 450.455C1304.07 450.839 1303.46 451.454 1302.85 452.301L1299.93 451.051L1300.86 437.747H1314.49V441.619H1304.86L1304.52 446.523C1305.51 446.232 1306.45 446.087 1307.34 446.087ZM1302.1 456.451C1302.03 456.332 1302 456.253 1302 456.213C1302 456.173 1302.06 456.226 1302.18 456.372L1302.1 456.451ZM1302.63 456.63C1302.63 456.683 1302.61 456.709 1302.57 456.709C1302.53 456.709 1302.46 456.663 1302.35 456.57C1302.26 456.464 1302.2 456.398 1302.18 456.372L1302.35 456.253L1302.63 456.63ZM1326.62 463.619C1326.11 463.619 1325.64 463.493 1325.21 463.242C1324.78 463.004 1324.45 462.673 1324.2 462.249C1323.96 461.812 1323.84 461.342 1323.84 460.839C1323.84 460.35 1323.96 459.899 1324.2 459.489C1324.45 459.066 1324.78 458.735 1325.21 458.496C1325.64 458.245 1326.11 458.119 1326.62 458.119C1327.11 458.119 1327.56 458.245 1327.97 458.496C1328.39 458.735 1328.72 459.066 1328.96 459.489C1329.21 459.899 1329.34 460.35 1329.34 460.839C1329.34 461.342 1329.21 461.812 1328.96 462.249C1328.72 462.673 1328.39 463.004 1327.97 463.242C1327.56 463.493 1327.11 463.619 1326.62 463.619ZM1345.68 463.083V442.91L1341.33 444.22L1340.24 441.44L1347.11 437.747H1350.15V463.083H1345.68ZM1371.29 449.581C1372.47 449.992 1373.46 450.739 1374.27 451.825C1375.08 452.897 1375.48 454.28 1375.48 455.975C1375.48 457.444 1375.14 458.781 1374.45 459.986C1373.77 461.177 1372.8 462.123 1371.51 462.825C1370.23 463.513 1368.7 463.857 1366.94 463.857C1363.48 463.857 1360.84 462.719 1359.02 460.442L1360.91 456.65L1360.93 456.63L1360.95 456.67C1361.54 457.821 1362.32 458.649 1363.27 459.152C1364.24 459.655 1365.47 459.906 1366.98 459.906C1368.23 459.906 1369.19 459.535 1369.88 458.794C1370.58 458.04 1370.94 457.04 1370.94 455.796C1370.94 454.433 1370.55 453.42 1369.78 452.758C1369.03 452.083 1367.75 451.745 1365.93 451.745C1365.3 451.745 1364.59 451.785 1363.81 451.865V448.191C1364.01 448.205 1364.29 448.211 1364.66 448.211C1366.75 448.211 1368.2 447.874 1369.01 447.199C1369.83 446.523 1370.24 445.584 1370.24 444.379C1370.24 443.399 1369.95 442.605 1369.37 441.996C1368.8 441.387 1367.99 441.083 1366.94 441.083C1366.03 441.083 1365.18 441.242 1364.4 441.56C1363.63 441.877 1362.83 442.427 1361.98 443.208L1359.42 440.587C1360.39 439.435 1361.51 438.581 1362.79 438.025C1364.08 437.456 1365.45 437.171 1366.9 437.171C1368.45 437.171 1369.82 437.469 1371.01 438.065C1372.22 438.647 1373.15 439.455 1373.81 440.487C1374.49 441.507 1374.83 442.652 1374.83 443.922C1374.83 445.286 1374.48 446.464 1373.77 447.457C1373.09 448.436 1372.26 449.144 1371.29 449.581ZM1360.93 456.63C1360.88 456.524 1360.85 456.438 1360.85 456.372C1360.85 456.345 1360.86 456.332 1360.89 456.332C1360.91 456.332 1360.97 456.352 1361.05 456.392L1360.93 456.63ZM1361.5 456.59C1361.5 456.603 1361.5 456.61 1361.48 456.61C1361.44 456.61 1361.37 456.584 1361.27 456.531C1361.17 456.464 1361.1 456.418 1361.05 456.392L1361.07 456.332L1361.48 456.531L1361.5 456.59Z" fill="white" fill-opacity="0.7"/>
    </g>
    <defs>
        <filter id="filter0_f" x="-82" y="25" width="597" height="576" filterUnits="userSpaceOnUse" color-interpolation-filters="sRGB">
            <feFlood flood-opacity="0" result="BackgroundImageFix"/>
            <feBlend mode="normal" in="SourceGraphic" in2="BackgroundImageFix" result="shape"/>
            <feGaussianBlur stdDeviation="50" result="effect1_foregroundBlur"/>
        </filter>
        <filter id="filter1_d" x="1310.38" y="0.651241" width="392.567" height="184.237" filterUnits="userSpaceOnUse" color-interpolation-filters="sRGB">
            <feFlood flood-opacity="0" result="BackgroundImageFix"/>
            <feColorMatrix in="SourceAlpha" type="matrix" values="0 0 0 0 0 0 0 0 0 0 0 0 0 0 0 0 0 0 127 0"/>
            <feOffset dy="7.26975"/>
            <feGaussianBlur stdDeviation="21.8093"/>
            <feColorMatrix type="matrix" values="0 0 0 0 0.27451 0 0 0 0 0.792157 0 0 0 0 0.596078 0 0 0 0.5 0"/>
            <feBlend mode="normal" in2="BackgroundImageFix" result="effect1_dropShadow"/>
            <feBlend mode="normal" in="SourceGraphic" in2="effect1_dropShadow" result="shape"/>
        </filter>
        <filter id="filter2_f" x="-36.9482" y="187.176" width="125.3" height="43.22" filterUnits="userSpaceOnUse" color-interpolation-filters="sRGB">
            <feFlood flood-opacity="0" result="BackgroundImageFix"/>
            <feBlend mode="normal" in="SourceGraphic" in2="BackgroundImageFix" result="shape"/>
            <feGaussianBlur stdDeviation="5" result="effect1_foregroundBlur"/>
        </filter>
        <filter id="filter3_f" x="1372.21" y="572.872" width="110.496" height="60.832" filterUnits="userSpaceOnUse" color-interpolation-filters="sRGB">
            <feFlood flood-opacity="0" result="BackgroundImageFix"/>
            <feBlend mode="normal" in="SourceGraphic" in2="BackgroundImageFix" result="shape"/>
            <feGaussianBlur stdDeviation="5" result="effect1_foregroundBlur"/>
        </filter>
        <filter id="filter4_f" x="881" y="3" width="597" height="576" filterUnits="userSpaceOnUse" color-interpolation-filters="sRGB">
            <feFlood flood-opacity="0" result="BackgroundImageFix"/>
            <feBlend mode="normal" in="SourceGraphic" in2="BackgroundImageFix" result="shape"/>
            <feGaussianBlur stdDeviation="50" result="effect1_foregroundBlur"/>
        </filter>
        <filter id="filter5_d" x="1193.86" y="402.048" width="226.286" height="106.199" filterUnits="userSpaceOnUse" color-interpolation-filters="sRGB">
            <feFlood flood-opacity="0" result="BackgroundImageFix"/>
            <feColorMatrix in="SourceAlpha" type="matrix" values="0 0 0 0 0 0 0 0 0 0 0 0 0 0 0 0 0 0 127 0"/>
            <feOffset dy="4.19048"/>
            <feGaussianBlur stdDeviation="12.5714"/>
            <feColorMatrix type="matrix" values="0 0 0 0 0.654902 0 0 0 0 0.662745 0 0 0 0 0.733333 0 0 0 0.5 0"/>
            <feBlend mode="normal" in2="BackgroundImageFix" result="effect1_dropShadow"/>
            <feBlend mode="normal" in="SourceGraphic" in2="effect1_dropShadow" result="shape"/>
        </filter>
        <filter id="filter6_f" x="-208.631" y="232.369" width="445.485" height="199.982" filterUnits="userSpaceOnUse" color-interpolation-filters="sRGB">
            <feFlood flood-opacity="0" result="BackgroundImageFix"/>
            <feBlend mode="normal" in="SourceGraphic" in2="BackgroundImageFix" result="shape"/>
            <feGaussianBlur stdDeviation="8.81567" result="effect1_foregroundBlur"/>
        </filter>
        <filter id="filter7_d" x="-263.821" y="213.59" width="555.863" height="310.361" filterUnits="userSpaceOnUse" color-interpolation-filters="sRGB">
            <feFlood flood-opacity="0" result="BackgroundImageFix"/>
            <feColorMatrix in="SourceAlpha" type="matrix" values="0 0 0 0 0 0 0 0 0 0 0 0 0 0 0 0 0 0 127 0"/>
            <feOffset dy="36.4103"/>
            <feGaussianBlur stdDeviation="36.4103"/>
            <feColorMatrix type="matrix" values="0 0 0 0 0.972549 0 0 0 0 0.435294 0 0 0 0 0.435294 0 0 0 0.5 0"/>
            <feBlend mode="normal" in2="BackgroundImageFix" result="effect1_dropShadow"/>
            <feBlend mode="normal" in="SourceGraphic" in2="effect1_dropShadow" result="shape"/>
        </filter>
    </defs>
</svg>
