<svg width="1440" height="1020" viewBox="0 0 1440 1020" fill="none" xmlns="http://www.w3.org/2000/svg">
    <path opacity="0.5" d="M77 146.273L157 147.273" stroke="#E4E7F4" stroke-width="3.06413" stroke-linecap="square" stroke-linejoin="round" stroke-dasharray="3.06 15.32"/>
    <path opacity="0.5" d="M-3 257.253L77 257.253" stroke="#E4E7F4" stroke-width="3.06413" stroke-linecap="square" stroke-linejoin="round" stroke-dasharray="3.06 15.32"/>
    <path opacity="0.5" d="M237.001 78.2983L317.001 79.2983" stroke="#E4E7F4" stroke-width="3.06413" stroke-linecap="square" stroke-linejoin="round" stroke-dasharray="3.06 15.32"/>
    <path opacity="0.5" d="M557 106.043L637 106.043" stroke="#E4E7F4" stroke-width="3.06413" stroke-linecap="square" stroke-linejoin="round" stroke-dasharray="3.06 15.32"/>
    <path opacity="0.5" d="M477 6.16211L557 7.16211" stroke="#E4E7F4" stroke-width="3.06413" stroke-linecap="square" stroke-linejoin="round" stroke-dasharray="3.06 15.32"/>
    <path opacity="0.5" d="M637 51.9404L717 51.9404" stroke="#E4E7F4" stroke-width="3.06413" stroke-linecap="square" stroke-linejoin="round" stroke-dasharray="3.06 15.32"/>
    <path opacity="0.5" d="M157.001 189.278L237.001 190.278" stroke="#E4E7F4" stroke-width="3.06413" stroke-linecap="square" stroke-linejoin="round" stroke-dasharray="3.06 15.32"/>
    <path opacity="0.5" d="M317.001 218.41L397.001 219.41" stroke="#E4E7F4" stroke-width="3.06413" stroke-linecap="square" stroke-linejoin="round" stroke-dasharray="3.06 15.32"/>
    <path opacity="0.5" d="M717 218.41L797 219.41" stroke="#E4E7F4" stroke-width="3.06413" stroke-linecap="square" stroke-linejoin="round" stroke-dasharray="3.06 15.32"/>
    <path opacity="0.5" d="M397 36.6812L477 37.6812" stroke="#E4E7F4" stroke-width="3.06413" stroke-linecap="square" stroke-linejoin="round" stroke-dasharray="3.06 15.32"/>
    <path opacity="0.5" d="M957 165.695L1037 165.695" stroke="#E4E7F4" stroke-width="3.06413" stroke-linecap="square" stroke-linejoin="round" stroke-dasharray="3.06 15.32"/>
    <path opacity="0.5" d="M877 65.813L957 65.813" stroke="#E4E7F4" stroke-width="3.06413" stroke-linecap="square" stroke-linejoin="round" stroke-dasharray="3.06 15.32"/>
    <path opacity="0.5" d="M1037 111.592L1117 111.592" stroke="#E4E7F4" stroke-width="3.06413" stroke-linecap="square" stroke-linejoin="round" stroke-dasharray="3.06 15.32"/>
    <path opacity="0.5" d="M1197 2L1277 2" stroke="#E4E7F4" stroke-width="3.06413" stroke-linecap="square" stroke-linejoin="round" stroke-dasharray="3.06 15.32"/>
    <path opacity="0.5" d="M1117 278.062L1197 278.062" stroke="#E4E7F4" stroke-width="3.06413" stroke-linecap="square" stroke-linejoin="round" stroke-dasharray="3.06 15.32"/>
    <path opacity="0.5" d="M797 96.333L877 96.333" stroke="#E4E7F4" stroke-width="3.06413" stroke-linecap="square" stroke-linejoin="round" stroke-dasharray="3.06 15.32"/>
    <path opacity="0.5" d="M1277 96.333L1357 96.333" stroke="#E4E7F4" stroke-width="3.06413" stroke-linecap="square" stroke-linejoin="round" stroke-dasharray="3.06 15.32"/>
    <path opacity="0.5" d="M1357 182.342L1437 182.342" stroke="#E4E7F4" stroke-width="3.06413" stroke-linecap="square" stroke-linejoin="round" stroke-dasharray="3.06 15.32"/>
    <path d="M77 257.253V146.273" stroke="#FAFAFB" stroke-width="10"/>
    <path d="M397.001 218.41V36.6812" stroke="#FAFAFB" stroke-width="10"/>
    <path d="M237.001 189.278V78.2983" stroke="#FAFAFB" stroke-width="10"/>
    <path d="M477 36.6815V6.16211" stroke="#FAFAFB" stroke-width="10"/>
    <path d="M637 106.043V51.9404" stroke="#FAFAFB" stroke-width="10"/>
    <path d="M157 189.278V143.499" stroke="#FAFAFB" stroke-width="10"/>
    <path d="M557 106.044V6.16211" stroke="#FAFAFB" stroke-width="10"/>
    <path d="M1437 260.027V182.342" stroke="#FAFAFB" stroke-width="10"/>
    <path d="M717 221.185V49.1665" stroke="#FAFAFB" stroke-width="10"/>
    <path d="M797 222.572V96.333" stroke="#FAFAFB" stroke-width="10"/>
    <path d="M877 96.3324V65.813" stroke="#FAFAFB" stroke-width="10"/>
    <path d="M1037 165.695V111.592" stroke="#FAFAFB" stroke-width="10"/>
    <path d="M957 165.695V65.813" stroke="#FAFAFB" stroke-width="10"/>
    <path d="M1277 101.882V2" stroke="#FAFAFB" stroke-width="10"/>
    <path d="M1117 280.836V108.818" stroke="#FAFAFB" stroke-width="10"/>
    <path d="M1357 182.342V94.9453" stroke="#FAFAFB" stroke-width="10"/>
    <path d="M317.001 218.41V78.2983" stroke="#FAFAFB" stroke-width="10"/>
    <path d="M1197 1.99997L1197 278.062" stroke="#FAFAFB" stroke-width="10"/>
    <g opacity="0.5">
        <g filter="url(#filter0_f)">
            <path d="M-15 570.428C-12.792 570.428 -11.088 571.448 -9.888 573.488C-8.664 575.528 -8.052 578.336 -8.052 581.912C-8.052 585.584 -8.652 588.416 -9.852 590.408C-11.052 592.4 -12.768 593.396 -15 593.396C-17.232 593.396 -18.948 592.4 -20.148 590.408C-21.348 588.416 -21.948 585.584 -21.948 581.912C-21.948 578.336 -21.348 575.528 -20.148 573.488C-18.924 571.448 -17.208 570.428 -15 570.428ZM-15 572.624C-16.368 572.624 -17.436 573.464 -18.204 575.144C-18.972 576.8 -19.356 579.056 -19.356 581.912C-19.356 583.472 -19.248 584.852 -19.032 586.052L-11.4 576.188C-11.76 575.036 -12.252 574.16 -12.876 573.56C-13.476 572.936 -14.184 572.624 -15 572.624ZM-15 591.2C-13.632 591.2 -12.564 590.396 -11.796 588.788C-11.028 587.18 -10.644 584.888 -10.644 581.912C-10.644 580.52 -10.728 579.32 -10.896 578.312L-18.528 588.032C-17.76 590.144 -16.584 591.2 -15 591.2ZM2.568 593.396C1.992 593.396 1.5 593.192 1.092 592.784C0.684 592.376 0.48 591.896 0.48 591.344C0.48 590.792 0.684 590.312 1.092 589.904C1.5 589.496 1.992 589.292 2.568 589.292C3.12 589.292 3.6 589.496 4.008 589.904C4.416 590.312 4.62 590.792 4.62 591.344C4.62 591.896 4.416 592.376 4.008 592.784C3.6 593.192 3.12 593.396 2.568 593.396ZM23.088 581.12C24.408 581.552 25.452 582.248 26.22 583.208C26.988 584.168 27.372 585.38 27.372 586.844C27.372 588.044 27.108 589.148 26.58 590.156C26.052 591.14 25.284 591.932 24.276 592.532C23.268 593.108 22.056 593.396 20.64 593.396C19.44 593.396 18.3 593.18 17.22 592.748C16.164 592.316 15.252 591.68 14.484 590.84L16.14 588.86L16.176 588.824L16.212 588.86C16.812 589.628 17.424 590.216 18.048 590.624C18.696 591.032 19.524 591.236 20.532 591.236C21.924 591.236 22.98 590.828 23.7 590.012C24.42 589.196 24.78 588.104 24.78 586.736C24.78 585.248 24.324 584.132 23.412 583.388C22.524 582.644 21.264 582.272 19.632 582.272C19.392 582.272 19.008 582.296 18.48 582.344V580.328C20.616 580.328 22.068 579.932 22.836 579.14C23.628 578.348 24.024 577.268 24.024 575.9C24.024 574.892 23.724 574.088 23.124 573.488C22.548 572.888 21.78 572.588 20.82 572.588C19.26 572.588 17.892 573.14 16.716 574.244L15.204 572.732C16.668 571.196 18.528 570.428 20.784 570.428C22.584 570.428 24 570.944 25.032 571.976C26.088 572.984 26.616 574.328 26.616 576.008C26.616 577.232 26.316 578.3 25.716 579.212C25.116 580.124 24.24 580.76 23.088 581.12ZM16.572 588.752C16.572 588.824 16.536 588.86 16.464 588.86C16.392 588.836 16.32 588.8 16.248 588.752L16.392 588.572L16.572 588.752ZM16.176 588.824C16.08 588.656 16.056 588.596 16.104 588.644C16.176 588.692 16.224 588.728 16.248 588.752L16.176 588.824ZM39.648 578.528C40.776 578.528 41.808 578.84 42.744 579.464C43.68 580.064 44.424 580.928 44.976 582.056C45.528 583.16 45.804 584.432 45.804 585.872C45.804 587.336 45.516 588.632 44.94 589.76C44.388 590.888 43.62 591.776 42.636 592.424C41.652 593.048 40.572 593.36 39.396 593.36C37.188 593.36 35.472 592.424 34.248 590.552C33.024 588.656 32.412 586.064 32.412 582.776C32.412 580.136 32.736 577.88 33.384 576.008C34.032 574.136 34.944 572.72 36.12 571.76C37.32 570.8 38.724 570.32 40.332 570.32C42.204 570.32 43.848 571.004 45.264 572.372L43.68 574.172L43.644 574.208C43.14 573.584 42.648 573.152 42.168 572.912C41.712 572.672 41.124 572.552 40.404 572.552C39.612 572.552 38.808 572.804 37.992 573.308C37.176 573.788 36.456 574.676 35.832 575.972C35.232 577.244 34.92 578.996 34.896 581.228C35.4 580.388 36.072 579.728 36.912 579.248C37.776 578.768 38.688 578.528 39.648 578.528ZM43.248 574.28C43.248 574.136 43.356 574.148 43.572 574.316L43.428 574.46L43.248 574.28ZM43.644 574.208C43.788 574.4 43.812 574.472 43.716 574.424C43.644 574.352 43.596 574.316 43.572 574.316L43.644 574.208ZM39.504 591.128C40.584 591.128 41.496 590.672 42.24 589.76C42.984 588.824 43.356 587.54 43.356 585.908C43.356 584.78 43.164 583.832 42.78 583.064C42.396 582.272 41.904 581.684 41.304 581.3C40.704 580.916 40.08 580.724 39.432 580.724C38.592 580.724 37.776 581.012 36.984 581.588C36.192 582.14 35.544 582.86 35.04 583.748C34.992 584.132 34.968 584.444 34.968 584.684C34.968 585.74 35.148 586.76 35.508 587.744C35.892 588.728 36.432 589.544 37.128 590.192C37.824 590.816 38.616 591.128 39.504 591.128ZM59.448 593V587.492H49.728V585.656L59.988 570.536H62.112V585.404H64.992V587.528H62.112V593H59.448ZM52.644 585.368H59.448V575.072L52.644 585.368ZM71.04 579.572C70.32 579.572 69.648 579.368 69.024 578.96C68.4 578.552 67.908 577.988 67.548 577.268C67.188 576.548 67.008 575.744 67.008 574.856C67.008 573.992 67.188 573.212 67.548 572.516C67.908 571.796 68.4 571.232 69.024 570.824C69.648 570.392 70.32 570.176 71.04 570.176C71.76 570.176 72.432 570.392 73.056 570.824C73.68 571.232 74.172 571.796 74.532 572.516C74.892 573.236 75.072 574.028 75.072 574.892C75.072 576.26 74.688 577.388 73.92 578.276C73.152 579.14 72.192 579.572 71.04 579.572ZM67.656 593L80.076 570.572H82.128L69.6 593H67.656ZM71.04 577.664C71.544 577.664 71.964 577.436 72.3 576.98C72.636 576.524 72.804 575.816 72.804 574.856C72.804 573.896 72.624 573.188 72.264 572.732C71.904 572.276 71.472 572.048 70.968 572.048C70.488 572.048 70.068 572.276 69.708 572.732C69.372 573.188 69.204 573.896 69.204 574.856C69.204 575.792 69.384 576.5 69.744 576.98C70.104 577.436 70.536 577.664 71.04 577.664ZM79.356 593.36C78.636 593.36 77.964 593.156 77.34 592.748C76.716 592.34 76.224 591.788 75.864 591.092C75.504 590.372 75.324 589.58 75.324 588.716C75.324 587.852 75.504 587.072 75.864 586.376C76.224 585.656 76.716 585.092 77.34 584.684C77.964 584.252 78.636 584.036 79.356 584.036C80.46 584.036 81.396 584.492 82.164 585.404C82.956 586.316 83.352 587.42 83.352 588.716C83.352 589.58 83.172 590.372 82.812 591.092C82.452 591.788 81.96 592.34 81.336 592.748C80.736 593.156 80.076 593.36 79.356 593.36ZM79.392 591.56C79.92 591.56 80.352 591.32 80.688 590.84C81.048 590.36 81.228 589.664 81.228 588.752C81.228 587.912 81.048 587.228 80.688 586.7C80.352 586.148 79.896 585.872 79.32 585.872C78.792 585.872 78.348 586.112 77.988 586.592C77.628 587.048 77.448 587.744 77.448 588.68C77.448 589.64 77.64 590.36 78.024 590.84C78.408 591.32 78.864 591.56 79.392 591.56Z" fill="#39457A"/>
        </g>
        <path d="M-15.5 981.952C-14.028 981.952 -12.892 982.632 -12.092 983.992C-11.276 985.352 -10.868 987.224 -10.868 989.608C-10.868 992.056 -11.268 993.944 -12.068 995.272C-12.868 996.6 -14.012 997.264 -15.5 997.264C-16.988 997.264 -18.132 996.6 -18.932 995.272C-19.732 993.944 -20.132 992.056 -20.132 989.608C-20.132 987.224 -19.732 985.352 -18.932 983.992C-18.116 982.632 -16.972 981.952 -15.5 981.952ZM-15.5 983.416C-16.412 983.416 -17.124 983.976 -17.636 985.096C-18.148 986.2 -18.404 987.704 -18.404 989.608C-18.404 990.648 -18.332 991.568 -18.188 992.368L-13.1 985.792C-13.34 985.024 -13.668 984.44 -14.084 984.04C-14.484 983.624 -14.956 983.416 -15.5 983.416ZM-15.5 995.8C-14.588 995.8 -13.876 995.264 -13.364 994.192C-12.852 993.12 -12.596 991.592 -12.596 989.608C-12.596 988.68 -12.652 987.88 -12.764 987.208L-17.852 993.688C-17.34 995.096 -16.556 995.8 -15.5 995.8ZM-3.788 997.264C-4.172 997.264 -4.5 997.128 -4.772 996.856C-5.044 996.584 -5.18 996.264 -5.18 995.896C-5.18 995.528 -5.044 995.208 -4.772 994.936C-4.5 994.664 -4.172 994.528 -3.788 994.528C-3.42 994.528 -3.1 994.664 -2.828 994.936C-2.556 995.208 -2.42 995.528 -2.42 995.896C-2.42 996.264 -2.556 996.584 -2.828 996.856C-3.1 997.128 -3.42 997.264 -3.788 997.264ZM9.892 989.08C10.772 989.368 11.468 989.832 11.98 990.472C12.492 991.112 12.748 991.92 12.748 992.896C12.748 993.696 12.572 994.432 12.22 995.104C11.868 995.76 11.356 996.288 10.684 996.688C10.012 997.072 9.204 997.264 8.26 997.264C7.46 997.264 6.7 997.12 5.98 996.832C5.276 996.544 4.668 996.12 4.156 995.56L5.26 994.24L5.284 994.216L5.308 994.24C5.708 994.752 6.116 995.144 6.532 995.416C6.964 995.688 7.516 995.824 8.188 995.824C9.116 995.824 9.82 995.552 10.3 995.008C10.78 994.464 11.02 993.736 11.02 992.824C11.02 991.832 10.716 991.088 10.108 990.592C9.516 990.096 8.676 989.848 7.588 989.848C7.428 989.848 7.172 989.864 6.82 989.896V988.552C8.244 988.552 9.212 988.288 9.724 987.76C10.252 987.232 10.516 986.512 10.516 985.6C10.516 984.928 10.316 984.392 9.916 983.992C9.532 983.592 9.02 983.392 8.38 983.392C7.34 983.392 6.428 983.76 5.644 984.496L4.636 983.488C5.612 982.464 6.852 981.952 8.356 981.952C9.556 981.952 10.5 982.296 11.188 982.984C11.892 983.656 12.244 984.552 12.244 985.672C12.244 986.488 12.044 987.2 11.644 987.808C11.244 988.416 10.66 988.84 9.892 989.08ZM5.548 994.168C5.548 994.216 5.524 994.24 5.476 994.24C5.428 994.224 5.38 994.2 5.332 994.168L5.428 994.048L5.548 994.168ZM5.284 994.216C5.22 994.104 5.204 994.064 5.236 994.096C5.284 994.128 5.316 994.152 5.332 994.168L5.284 994.216ZM20.932 987.352C21.684 987.352 22.372 987.56 22.996 987.976C23.62 988.376 24.116 988.952 24.484 989.704C24.852 990.44 25.036 991.288 25.036 992.248C25.036 993.224 24.844 994.088 24.46 994.84C24.092 995.592 23.58 996.184 22.924 996.616C22.268 997.032 21.548 997.24 20.764 997.24C19.292 997.24 18.148 996.616 17.332 995.368C16.516 994.104 16.108 992.376 16.108 990.184C16.108 988.424 16.324 986.92 16.756 985.672C17.188 984.424 17.796 983.48 18.58 982.84C19.38 982.2 20.316 981.88 21.388 981.88C22.636 981.88 23.732 982.336 24.676 983.248L23.62 984.448L23.596 984.472C23.26 984.056 22.932 983.768 22.612 983.608C22.308 983.448 21.916 983.368 21.436 983.368C20.908 983.368 20.372 983.536 19.828 983.872C19.284 984.192 18.804 984.784 18.388 985.648C17.988 986.496 17.78 987.664 17.764 989.152C18.1 988.592 18.548 988.152 19.108 987.832C19.684 987.512 20.292 987.352 20.932 987.352ZM23.332 984.52C23.332 984.424 23.404 984.432 23.548 984.544L23.452 984.64L23.332 984.52ZM23.596 984.472C23.692 984.6 23.708 984.648 23.644 984.616C23.596 984.568 23.564 984.544 23.548 984.544L23.596 984.472ZM20.836 995.752C21.556 995.752 22.164 995.448 22.66 994.84C23.156 994.216 23.404 993.36 23.404 992.272C23.404 991.52 23.276 990.888 23.02 990.376C22.764 989.848 22.436 989.456 22.036 989.2C21.636 988.944 21.22 988.816 20.788 988.816C20.228 988.816 19.684 989.008 19.156 989.392C18.628 989.76 18.196 990.24 17.86 990.832C17.828 991.088 17.812 991.296 17.812 991.456C17.812 992.16 17.932 992.84 18.172 993.496C18.428 994.152 18.788 994.696 19.252 995.128C19.716 995.544 20.244 995.752 20.836 995.752ZM34.132 997V993.328H27.652V992.104L34.492 982.024H35.908V991.936H37.828V993.352H35.908V997H34.132ZM29.596 991.912H34.132V985.048L29.596 991.912ZM41.86 988.048C41.38 988.048 40.932 987.912 40.516 987.64C40.1 987.368 39.772 986.992 39.532 986.512C39.292 986.032 39.172 985.496 39.172 984.904C39.172 984.328 39.292 983.808 39.532 983.344C39.772 982.864 40.1 982.488 40.516 982.216C40.932 981.928 41.38 981.784 41.86 981.784C42.34 981.784 42.788 981.928 43.204 982.216C43.62 982.488 43.948 982.864 44.188 983.344C44.428 983.824 44.548 984.352 44.548 984.928C44.548 985.84 44.292 986.592 43.78 987.184C43.268 987.76 42.628 988.048 41.86 988.048ZM39.604 997L47.884 982.048H49.252L40.9 997H39.604ZM41.86 986.776C42.196 986.776 42.476 986.624 42.7 986.32C42.924 986.016 43.036 985.544 43.036 984.904C43.036 984.264 42.916 983.792 42.676 983.488C42.436 983.184 42.148 983.032 41.812 983.032C41.492 983.032 41.212 983.184 40.972 983.488C40.748 983.792 40.636 984.264 40.636 984.904C40.636 985.528 40.756 986 40.996 986.32C41.236 986.624 41.524 986.776 41.86 986.776ZM47.404 997.24C46.924 997.24 46.476 997.104 46.06 996.832C45.644 996.56 45.316 996.192 45.076 995.728C44.836 995.248 44.716 994.72 44.716 994.144C44.716 993.568 44.836 993.048 45.076 992.584C45.316 992.104 45.644 991.728 46.06 991.456C46.476 991.168 46.924 991.024 47.404 991.024C48.14 991.024 48.764 991.328 49.276 991.936C49.804 992.544 50.068 993.28 50.068 994.144C50.068 994.72 49.948 995.248 49.708 995.728C49.468 996.192 49.14 996.56 48.724 996.832C48.324 997.104 47.884 997.24 47.404 997.24ZM47.428 996.04C47.78 996.04 48.068 995.88 48.292 995.56C48.532 995.24 48.652 994.776 48.652 994.168C48.652 993.608 48.532 993.152 48.292 992.8C48.068 992.432 47.764 992.248 47.38 992.248C47.028 992.248 46.732 992.408 46.492 992.728C46.252 993.032 46.132 993.496 46.132 994.12C46.132 994.76 46.26 995.24 46.516 995.56C46.772 995.88 47.076 996.04 47.428 996.04Z" fill="#39457A"/>
        <path d="M-4.27344 406.058V402.902H-7.26172V401.373H-4.27344V398.481H-2.52441V401.373H0.349609V402.902H-2.52441V406.058H-4.27344ZM5.5 396.574C6.31445 396.574 7.01172 396.806 7.5918 397.269C8.17188 397.731 8.61426 398.405 8.91895 399.29C9.22949 400.169 9.38477 401.224 9.38477 402.454C9.38477 403.685 9.22949 404.742 8.91895 405.627C8.61426 406.506 8.17188 407.18 7.5918 407.648C7.01172 408.111 6.31445 408.343 5.5 408.343C4.68555 408.343 3.98828 408.111 3.4082 407.648C2.82812 407.18 2.38281 406.506 2.07227 405.627C1.76758 404.742 1.61523 403.685 1.61523 402.454C1.61523 401.224 1.76758 400.169 2.07227 399.29C2.38281 398.405 2.82812 397.731 3.4082 397.269C3.98828 396.806 4.68555 396.574 5.5 396.574ZM5.5 398.191C5.08984 398.191 4.73828 398.361 4.44531 398.701C4.15234 399.035 3.92676 399.521 3.76855 400.16C3.61621 400.799 3.54004 401.563 3.54004 402.454C3.54004 402.911 3.56348 403.359 3.61035 403.799L7.08203 399.677C6.91797 399.196 6.70117 398.83 6.43164 398.578C6.16211 398.32 5.85156 398.191 5.5 398.191ZM5.5 406.726C5.91016 406.726 6.26172 406.556 6.55469 406.216C6.84766 405.876 7.07031 405.387 7.22266 404.748C7.38086 404.109 7.45996 403.345 7.45996 402.454C7.45996 401.927 7.43359 401.449 7.38086 401.021L3.8916 405.17C4.05566 405.674 4.27246 406.061 4.54199 406.33C4.81738 406.594 5.13672 406.726 5.5 406.726ZM14.3242 408.237C14.1016 408.237 13.8936 408.182 13.7002 408.07C13.5127 407.965 13.3633 407.818 13.252 407.631C13.1465 407.438 13.0938 407.229 13.0938 407.007C13.0938 406.79 13.1465 406.591 13.252 406.409C13.3633 406.222 13.5127 406.075 13.7002 405.97C13.8936 405.858 14.1016 405.803 14.3242 405.803C14.541 405.803 14.7402 405.858 14.9219 405.97C15.1094 406.075 15.2559 406.222 15.3613 406.409C15.4727 406.591 15.5283 406.79 15.5283 407.007C15.5283 407.229 15.4727 407.438 15.3613 407.631C15.2559 407.818 15.1094 407.965 14.9219 408.07C14.7402 408.182 14.541 408.237 14.3242 408.237ZM23.8955 408V405.231H19.6152V403.966L24.4756 396.785H25.9258V403.553H27.4199V405.249H25.9258V408H23.8955ZM21.6982 403.605H23.9658V400.257L21.6982 403.605ZM34.0996 402.023C34.6211 402.205 35.0605 402.536 35.418 403.017C35.7754 403.491 35.9541 404.104 35.9541 404.854C35.9541 405.504 35.8018 406.096 35.4971 406.629C35.1982 407.156 34.7646 407.575 34.1963 407.886C33.6279 408.19 32.9541 408.343 32.1748 408.343C30.6396 408.343 29.4707 407.839 28.668 406.831L29.5029 405.152L29.5117 405.144L29.5205 405.161C29.7842 405.671 30.127 406.037 30.5488 406.26C30.9766 406.482 31.5244 406.594 32.1924 406.594C32.7432 406.594 33.1709 406.43 33.4756 406.102C33.7861 405.768 33.9414 405.325 33.9414 404.774C33.9414 404.171 33.7715 403.723 33.4316 403.43C33.0977 403.131 32.5293 402.981 31.7266 402.981C31.4453 402.981 31.1318 402.999 30.7861 403.034V401.408C30.874 401.414 31 401.417 31.1641 401.417C32.0898 401.417 32.7314 401.268 33.0889 400.969C33.4521 400.67 33.6338 400.254 33.6338 399.721C33.6338 399.287 33.5049 398.936 33.2471 398.666C32.9951 398.396 32.6377 398.262 32.1748 398.262C31.7705 398.262 31.3955 398.332 31.0498 398.473C30.71 398.613 30.3525 398.856 29.9775 399.202L28.8438 398.042C29.2715 397.532 29.7695 397.154 30.3379 396.908C30.9062 396.656 31.5127 396.53 32.1572 396.53C32.8428 396.53 33.4492 396.662 33.9766 396.926C34.5098 397.184 34.9229 397.541 35.2158 397.998C35.5146 398.449 35.6641 398.956 35.6641 399.519C35.6641 400.122 35.5088 400.644 35.1982 401.083C34.8936 401.517 34.5273 401.83 34.0996 402.023ZM29.5117 405.144C29.4883 405.097 29.4766 405.059 29.4766 405.029C29.4766 405.018 29.4824 405.012 29.4941 405.012C29.5059 405.012 29.5293 405.021 29.5645 405.038L29.5117 405.144ZM29.7666 405.126C29.7666 405.132 29.7637 405.135 29.7578 405.135C29.7402 405.135 29.708 405.123 29.6611 405.1C29.6201 405.07 29.5879 405.05 29.5645 405.038L29.5732 405.012L29.7578 405.1L29.7666 405.126ZM39.4697 401.505C39.0713 401.505 38.6992 401.399 38.3535 401.188C38.0137 400.972 37.7412 400.676 37.5361 400.301C37.3369 399.92 37.2373 399.498 37.2373 399.035C37.2373 398.59 37.3369 398.18 37.5361 397.805C37.7412 397.43 38.0137 397.134 38.3535 396.917C38.6992 396.7 39.0713 396.592 39.4697 396.592C39.874 396.592 40.2461 396.703 40.5859 396.926C40.9258 397.143 41.1953 397.438 41.3945 397.813C41.5996 398.188 41.7021 398.602 41.7021 399.053C41.7021 399.527 41.6055 399.952 41.4121 400.327C41.2188 400.696 40.9521 400.986 40.6123 401.197C40.2725 401.402 39.8916 401.505 39.4697 401.505ZM37.7559 408L44.1279 396.785H45.4199L38.9951 408H37.7559ZM39.4258 400.371C39.7188 400.371 39.9385 400.251 40.085 400.011C40.2373 399.765 40.3135 399.445 40.3135 399.053C40.3135 398.666 40.2373 398.35 40.085 398.104C39.9385 397.852 39.7188 397.726 39.4258 397.726C39.1387 397.726 38.9189 397.852 38.7666 398.104C38.6201 398.35 38.5469 398.666 38.5469 399.053C38.5469 399.445 38.6201 399.765 38.7666 400.011C38.9189 400.251 39.1387 400.371 39.4258 400.371ZM43.5742 408.176C43.1699 408.176 42.7979 408.07 42.458 407.859C42.1182 407.643 41.8457 407.347 41.6406 406.972C41.4414 406.597 41.3418 406.178 41.3418 405.715C41.3418 405.27 41.4414 404.859 41.6406 404.484C41.8457 404.104 42.1182 403.805 42.458 403.588C42.8037 403.371 43.1758 403.263 43.5742 403.263C43.9727 403.263 44.3418 403.374 44.6816 403.597C45.0273 403.813 45.2998 404.112 45.499 404.493C45.6982 404.868 45.7979 405.281 45.7979 405.732C45.7979 406.207 45.7012 406.629 45.5078 406.998C45.3145 407.367 45.0479 407.657 44.708 407.868C44.374 408.073 43.9961 408.176 43.5742 408.176ZM43.5303 407.042C43.8232 407.042 44.043 406.922 44.1895 406.682C44.3418 406.441 44.418 406.125 44.418 405.732C44.418 405.346 44.3418 405.026 44.1895 404.774C44.043 404.522 43.8232 404.396 43.5303 404.396C43.2432 404.396 43.0234 404.522 42.8711 404.774C42.7246 405.026 42.6514 405.346 42.6514 405.732C42.6514 406.125 42.7246 406.441 42.8711 406.682C43.0176 406.922 43.2373 407.042 43.5303 407.042Z" fill="#39457A"/>
        <path d="M75.7266 492.058V488.902H72.7383V487.373H75.7266V484.481H77.4756V487.373H80.3496V488.902H77.4756V492.058H75.7266ZM85.5 482.574C86.3145 482.574 87.0117 482.806 87.5918 483.269C88.1719 483.731 88.6143 484.405 88.9189 485.29C89.2295 486.169 89.3848 487.224 89.3848 488.454C89.3848 489.685 89.2295 490.742 88.9189 491.627C88.6143 492.506 88.1719 493.18 87.5918 493.648C87.0117 494.111 86.3145 494.343 85.5 494.343C84.6855 494.343 83.9883 494.111 83.4082 493.648C82.8281 493.18 82.3828 492.506 82.0723 491.627C81.7676 490.742 81.6152 489.685 81.6152 488.454C81.6152 487.224 81.7676 486.169 82.0723 485.29C82.3828 484.405 82.8281 483.731 83.4082 483.269C83.9883 482.806 84.6855 482.574 85.5 482.574ZM85.5 484.191C85.0898 484.191 84.7383 484.361 84.4453 484.701C84.1523 485.035 83.9268 485.521 83.7686 486.16C83.6162 486.799 83.54 487.563 83.54 488.454C83.54 488.911 83.5635 489.359 83.6104 489.799L87.082 485.677C86.918 485.196 86.7012 484.83 86.4316 484.578C86.1621 484.32 85.8516 484.191 85.5 484.191ZM85.5 492.726C85.9102 492.726 86.2617 492.556 86.5547 492.216C86.8477 491.876 87.0703 491.387 87.2227 490.748C87.3809 490.109 87.46 489.345 87.46 488.454C87.46 487.927 87.4336 487.449 87.3809 487.021L83.8916 491.17C84.0557 491.674 84.2725 492.061 84.542 492.33C84.8174 492.594 85.1367 492.726 85.5 492.726ZM94.3242 494.237C94.1016 494.237 93.8936 494.182 93.7002 494.07C93.5127 493.965 93.3633 493.818 93.252 493.631C93.1465 493.438 93.0938 493.229 93.0938 493.007C93.0938 492.79 93.1465 492.591 93.252 492.409C93.3633 492.222 93.5127 492.075 93.7002 491.97C93.8936 491.858 94.1016 491.803 94.3242 491.803C94.541 491.803 94.7402 491.858 94.9219 491.97C95.1094 492.075 95.2559 492.222 95.3613 492.409C95.4727 492.591 95.5283 492.79 95.5283 493.007C95.5283 493.229 95.4727 493.438 95.3613 493.631C95.2559 493.818 95.1094 493.965 94.9219 494.07C94.7402 494.182 94.541 494.237 94.3242 494.237ZM103.79 486.529C104.411 486.529 104.979 486.693 105.495 487.021C106.011 487.35 106.418 487.807 106.717 488.393C107.021 488.973 107.174 489.629 107.174 490.361C107.174 491.1 107.016 491.773 106.699 492.383C106.389 492.986 105.964 493.464 105.425 493.815C104.892 494.167 104.303 494.343 103.658 494.343C102.891 494.343 102.223 494.108 101.654 493.64C101.092 493.171 100.661 492.521 100.362 491.688C100.063 490.856 99.9141 489.904 99.9141 488.832C99.9141 487.549 100.087 486.436 100.433 485.492C100.784 484.543 101.276 483.816 101.909 483.312C102.542 482.803 103.271 482.548 104.098 482.548C104.602 482.548 105.094 482.662 105.574 482.891C106.055 483.113 106.503 483.438 106.919 483.866L105.653 485.211L105.645 485.22L105.53 485.07C105.372 484.877 105.237 484.73 105.126 484.631C105.021 484.525 104.886 484.44 104.722 484.376C104.558 484.312 104.35 484.279 104.098 484.279C103.781 484.279 103.474 484.382 103.175 484.587C102.876 484.792 102.612 485.126 102.384 485.589C102.161 486.046 102.012 486.641 101.936 487.373C102.176 487.133 102.466 486.934 102.806 486.775C103.146 486.611 103.474 486.529 103.79 486.529ZM105.398 485.176C105.398 485.158 105.407 485.149 105.425 485.149C105.454 485.149 105.516 485.185 105.609 485.255L105.548 485.325L105.398 485.185V485.176ZM105.645 485.22C105.697 485.278 105.724 485.316 105.724 485.334C105.724 485.334 105.686 485.308 105.609 485.255L105.645 485.22ZM103.702 492.488C103.978 492.488 104.227 492.406 104.449 492.242C104.672 492.072 104.848 491.829 104.977 491.513C105.105 491.19 105.17 490.807 105.17 490.361C105.17 489.916 105.097 489.538 104.95 489.228C104.804 488.917 104.616 488.688 104.388 488.542C104.159 488.39 103.922 488.313 103.676 488.313C103.354 488.313 103.037 488.413 102.727 488.612C102.422 488.806 102.17 489.066 101.971 489.395C101.971 490.027 102.044 490.578 102.19 491.047C102.343 491.51 102.548 491.867 102.806 492.119C103.069 492.365 103.368 492.488 103.702 492.488ZM112.79 486.477C113.499 486.477 114.117 486.632 114.645 486.942C115.172 487.253 115.579 487.701 115.866 488.287C116.153 488.873 116.297 489.57 116.297 490.379C116.297 491.158 116.145 491.847 115.84 492.444C115.535 493.042 115.102 493.508 114.539 493.842C113.977 494.176 113.32 494.343 112.57 494.343C110.918 494.343 109.714 493.634 108.958 492.216L110.452 491.073L110.47 491.064L110.479 491.082C110.637 491.387 110.798 491.645 110.962 491.855C111.126 492.061 111.334 492.23 111.586 492.365C111.838 492.494 112.143 492.559 112.5 492.559C112.846 492.559 113.153 492.477 113.423 492.312C113.692 492.143 113.906 491.894 114.064 491.565C114.223 491.237 114.302 490.836 114.302 490.361C114.302 489.664 114.144 489.122 113.827 488.735C113.511 488.343 113.092 488.146 112.57 488.146C112.213 488.146 111.896 488.234 111.621 488.41C111.346 488.58 111.073 488.853 110.804 489.228L109.512 488.674L109.925 482.785H115.954V484.499H111.691L111.542 486.67C111.981 486.541 112.397 486.477 112.79 486.477ZM110.47 491.064C110.44 491.012 110.426 490.977 110.426 490.959C110.426 490.941 110.452 490.965 110.505 491.029L110.47 491.064ZM110.707 491.144C110.707 491.167 110.698 491.179 110.681 491.179C110.663 491.179 110.631 491.158 110.584 491.117C110.543 491.07 110.517 491.041 110.505 491.029L110.584 490.977L110.707 491.144ZM119.47 487.505C119.071 487.505 118.699 487.399 118.354 487.188C118.014 486.972 117.741 486.676 117.536 486.301C117.337 485.92 117.237 485.498 117.237 485.035C117.237 484.59 117.337 484.18 117.536 483.805C117.741 483.43 118.014 483.134 118.354 482.917C118.699 482.7 119.071 482.592 119.47 482.592C119.874 482.592 120.246 482.703 120.586 482.926C120.926 483.143 121.195 483.438 121.395 483.813C121.6 484.188 121.702 484.602 121.702 485.053C121.702 485.527 121.605 485.952 121.412 486.327C121.219 486.696 120.952 486.986 120.612 487.197C120.272 487.402 119.892 487.505 119.47 487.505ZM117.756 494L124.128 482.785H125.42L118.995 494H117.756ZM119.426 486.371C119.719 486.371 119.938 486.251 120.085 486.011C120.237 485.765 120.313 485.445 120.313 485.053C120.313 484.666 120.237 484.35 120.085 484.104C119.938 483.852 119.719 483.726 119.426 483.726C119.139 483.726 118.919 483.852 118.767 484.104C118.62 484.35 118.547 484.666 118.547 485.053C118.547 485.445 118.62 485.765 118.767 486.011C118.919 486.251 119.139 486.371 119.426 486.371ZM123.574 494.176C123.17 494.176 122.798 494.07 122.458 493.859C122.118 493.643 121.846 493.347 121.641 492.972C121.441 492.597 121.342 492.178 121.342 491.715C121.342 491.27 121.441 490.859 121.641 490.484C121.846 490.104 122.118 489.805 122.458 489.588C122.804 489.371 123.176 489.263 123.574 489.263C123.973 489.263 124.342 489.374 124.682 489.597C125.027 489.813 125.3 490.112 125.499 490.493C125.698 490.868 125.798 491.281 125.798 491.732C125.798 492.207 125.701 492.629 125.508 492.998C125.314 493.367 125.048 493.657 124.708 493.868C124.374 494.073 123.996 494.176 123.574 494.176ZM123.53 493.042C123.823 493.042 124.043 492.922 124.189 492.682C124.342 492.441 124.418 492.125 124.418 491.732C124.418 491.346 124.342 491.026 124.189 490.774C124.043 490.522 123.823 490.396 123.53 490.396C123.243 490.396 123.023 490.522 122.871 490.774C122.725 491.026 122.651 491.346 122.651 491.732C122.651 492.125 122.725 492.441 122.871 492.682C123.018 492.922 123.237 493.042 123.53 493.042Z" fill="#39457A"/>
        <path d="M76.7266 900.058V896.902H73.7383V895.373H76.7266V892.481H78.4756V895.373H81.3496V896.902H78.4756V900.058H76.7266ZM86.5 890.574C87.3145 890.574 88.0117 890.806 88.5918 891.269C89.1719 891.731 89.6143 892.405 89.9189 893.29C90.2295 894.169 90.3848 895.224 90.3848 896.454C90.3848 897.685 90.2295 898.742 89.9189 899.627C89.6143 900.506 89.1719 901.18 88.5918 901.648C88.0117 902.111 87.3145 902.343 86.5 902.343C85.6855 902.343 84.9883 902.111 84.4082 901.648C83.8281 901.18 83.3828 900.506 83.0723 899.627C82.7676 898.742 82.6152 897.685 82.6152 896.454C82.6152 895.224 82.7676 894.169 83.0723 893.29C83.3828 892.405 83.8281 891.731 84.4082 891.269C84.9883 890.806 85.6855 890.574 86.5 890.574ZM86.5 892.191C86.0898 892.191 85.7383 892.361 85.4453 892.701C85.1523 893.035 84.9268 893.521 84.7686 894.16C84.6162 894.799 84.54 895.563 84.54 896.454C84.54 896.911 84.5635 897.359 84.6104 897.799L88.082 893.677C87.918 893.196 87.7012 892.83 87.4316 892.578C87.1621 892.32 86.8516 892.191 86.5 892.191ZM86.5 900.726C86.9102 900.726 87.2617 900.556 87.5547 900.216C87.8477 899.876 88.0703 899.387 88.2227 898.748C88.3809 898.109 88.46 897.345 88.46 896.454C88.46 895.927 88.4336 895.449 88.3809 895.021L84.8916 899.17C85.0557 899.674 85.2725 900.061 85.542 900.33C85.8174 900.594 86.1367 900.726 86.5 900.726ZM95.3242 902.237C95.1016 902.237 94.8936 902.182 94.7002 902.07C94.5127 901.965 94.3633 901.818 94.252 901.631C94.1465 901.438 94.0938 901.229 94.0938 901.007C94.0938 900.79 94.1465 900.591 94.252 900.409C94.3633 900.222 94.5127 900.075 94.7002 899.97C94.8936 899.858 95.1016 899.803 95.3242 899.803C95.541 899.803 95.7402 899.858 95.9219 899.97C96.1094 900.075 96.2559 900.222 96.3613 900.409C96.4727 900.591 96.5283 900.79 96.5283 901.007C96.5283 901.229 96.4727 901.438 96.3613 901.631C96.2559 901.818 96.1094 901.965 95.9219 902.07C95.7402 902.182 95.541 902.237 95.3242 902.237ZM103.762 902V893.07L101.837 893.65L101.354 892.42L104.395 890.785H105.739V902H103.762ZM113.79 894.477C114.499 894.477 115.117 894.632 115.645 894.942C116.172 895.253 116.579 895.701 116.866 896.287C117.153 896.873 117.297 897.57 117.297 898.379C117.297 899.158 117.145 899.847 116.84 900.444C116.535 901.042 116.102 901.508 115.539 901.842C114.977 902.176 114.32 902.343 113.57 902.343C111.918 902.343 110.714 901.634 109.958 900.216L111.452 899.073L111.47 899.064L111.479 899.082C111.637 899.387 111.798 899.645 111.962 899.855C112.126 900.061 112.334 900.23 112.586 900.365C112.838 900.494 113.143 900.559 113.5 900.559C113.846 900.559 114.153 900.477 114.423 900.312C114.692 900.143 114.906 899.894 115.064 899.565C115.223 899.237 115.302 898.836 115.302 898.361C115.302 897.664 115.144 897.122 114.827 896.735C114.511 896.343 114.092 896.146 113.57 896.146C113.213 896.146 112.896 896.234 112.621 896.41C112.346 896.58 112.073 896.853 111.804 897.228L110.512 896.674L110.925 890.785H116.954V892.499H112.691L112.542 894.67C112.981 894.541 113.397 894.477 113.79 894.477ZM111.47 899.064C111.44 899.012 111.426 898.977 111.426 898.959C111.426 898.941 111.452 898.965 111.505 899.029L111.47 899.064ZM111.707 899.144C111.707 899.167 111.698 899.179 111.681 899.179C111.663 899.179 111.631 899.158 111.584 899.117C111.543 899.07 111.517 899.041 111.505 899.029L111.584 898.977L111.707 899.144ZM120.47 895.505C120.071 895.505 119.699 895.399 119.354 895.188C119.014 894.972 118.741 894.676 118.536 894.301C118.337 893.92 118.237 893.498 118.237 893.035C118.237 892.59 118.337 892.18 118.536 891.805C118.741 891.43 119.014 891.134 119.354 890.917C119.699 890.7 120.071 890.592 120.47 890.592C120.874 890.592 121.246 890.703 121.586 890.926C121.926 891.143 122.195 891.438 122.395 891.813C122.6 892.188 122.702 892.602 122.702 893.053C122.702 893.527 122.605 893.952 122.412 894.327C122.219 894.696 121.952 894.986 121.612 895.197C121.272 895.402 120.892 895.505 120.47 895.505ZM118.756 902L125.128 890.785H126.42L119.995 902H118.756ZM120.426 894.371C120.719 894.371 120.938 894.251 121.085 894.011C121.237 893.765 121.313 893.445 121.313 893.053C121.313 892.666 121.237 892.35 121.085 892.104C120.938 891.852 120.719 891.726 120.426 891.726C120.139 891.726 119.919 891.852 119.767 892.104C119.62 892.35 119.547 892.666 119.547 893.053C119.547 893.445 119.62 893.765 119.767 894.011C119.919 894.251 120.139 894.371 120.426 894.371ZM124.574 902.176C124.17 902.176 123.798 902.07 123.458 901.859C123.118 901.643 122.846 901.347 122.641 900.972C122.441 900.597 122.342 900.178 122.342 899.715C122.342 899.27 122.441 898.859 122.641 898.484C122.846 898.104 123.118 897.805 123.458 897.588C123.804 897.371 124.176 897.263 124.574 897.263C124.973 897.263 125.342 897.374 125.682 897.597C126.027 897.813 126.3 898.112 126.499 898.493C126.698 898.868 126.798 899.281 126.798 899.732C126.798 900.207 126.701 900.629 126.508 900.998C126.314 901.367 126.048 901.657 125.708 901.868C125.374 902.073 124.996 902.176 124.574 902.176ZM124.53 901.042C124.823 901.042 125.043 900.922 125.189 900.682C125.342 900.441 125.418 900.125 125.418 899.732C125.418 899.346 125.342 899.026 125.189 898.774C125.043 898.522 124.823 898.396 124.53 898.396C124.243 898.396 124.023 898.522 123.871 898.774C123.725 899.026 123.651 899.346 123.651 899.732C123.651 900.125 123.725 900.441 123.871 900.682C124.018 900.922 124.237 901.042 124.53 901.042Z" fill="#39457A"/>
    </g>
    <g opacity="0.7" filter="url(#filter1_f)">
        <rect x="-53" y="606" width="344.95" height="230.528" fill="#E2B975"/>
        <path d="M2.76747 661.927C1.5596 661.927 0.425693 661.595 -0.634266 660.929C-1.69423 660.239 -2.55698 659.216 -3.22254 657.86C-3.8881 656.504 -4.22088 654.865 -4.22088 652.942C-4.22088 650.995 -3.87577 649.368 -3.18557 648.062C-2.49536 646.755 -1.60795 645.794 -0.52334 645.178C0.56127 644.537 1.70751 644.216 2.91537 644.216C4.04928 644.216 5.03529 644.475 5.87339 644.993C6.73615 645.51 7.38938 646.225 7.83309 647.137V636.969H10.6432V637.228C10.4953 637.376 10.3967 637.536 10.3474 637.709C10.3228 637.881 10.3104 638.177 10.3104 638.596L10.3474 658.932C10.3474 659.524 10.3597 660.017 10.3844 660.411C10.4337 660.781 10.5446 661.163 10.7172 661.558H8.09192C7.91936 661.163 7.80844 660.781 7.75914 660.411C7.73449 660.017 7.72216 659.524 7.72216 658.932C7.17986 659.869 6.47733 660.609 5.61457 661.151C4.77646 661.669 3.82743 661.927 2.76747 661.927ZM3.17419 659.598C4.70251 659.598 5.82409 658.994 6.53895 657.786C7.25381 656.578 7.61124 654.988 7.61124 653.016C7.61124 651.02 7.21683 649.417 6.42802 648.21C5.66387 647.002 4.50531 646.398 2.95234 646.398C1.47333 646.398 0.339418 646.952 -0.44939 648.062C-1.2382 649.146 -1.6326 650.638 -1.6326 652.536C-1.6326 654.705 -1.22587 656.43 -0.412414 657.712C0.425694 658.969 1.62123 659.598 3.17419 659.598ZM21.8467 661.853C20.3431 661.853 18.9996 661.484 17.8164 660.744C16.6332 660.005 15.7088 658.969 15.0433 657.638C14.3777 656.307 14.0449 654.791 14.0449 653.09C14.0449 651.389 14.3777 649.873 15.0433 648.542C15.7088 647.211 16.6332 646.176 17.8164 645.436C18.9996 644.672 20.3431 644.29 21.8467 644.29C23.3504 644.29 24.6938 644.672 25.8771 645.436C27.0603 646.176 27.9847 647.211 28.6502 648.542C29.3158 649.873 29.6485 651.389 29.6485 653.09C29.6485 654.791 29.3158 656.307 28.6502 657.638C27.9847 658.969 27.0603 660.005 25.8771 660.744C24.6938 661.484 23.3504 661.853 21.8467 661.853ZM21.8467 659.635C22.8081 659.635 23.6585 659.351 24.398 658.784C25.1622 658.218 25.7538 657.441 26.1729 656.455C26.6166 655.444 26.8384 654.31 26.8384 653.053C26.8384 651.131 26.3701 649.565 25.4334 648.357C24.4966 647.125 23.3011 646.509 21.8467 646.509C20.3924 646.509 19.1968 647.125 18.2601 648.357C17.3234 649.565 16.8551 651.131 16.8551 653.053C16.8551 654.31 17.0646 655.444 17.4837 656.455C17.9274 657.441 18.519 658.218 19.2585 658.784C20.0226 659.351 20.8854 659.635 21.8467 659.635ZM34.0116 661.558V659.413H39.0033V639.114H34.2335V636.969H41.7025V659.413H46.6572V661.558H34.0116ZM58.8221 661.853C57.3184 661.853 55.975 661.484 54.7918 660.744C53.6086 660.005 52.6842 658.969 52.0186 657.638C51.3531 656.307 51.0203 654.791 51.0203 653.09C51.0203 651.389 51.3531 649.873 52.0186 648.542C52.6842 647.211 53.6086 646.176 54.7918 645.436C55.975 644.672 57.3184 644.29 58.8221 644.29C60.3258 644.29 61.6692 644.672 62.8524 645.436C64.0356 646.176 64.96 647.211 65.6256 648.542C66.2911 649.873 66.6239 651.389 66.6239 653.09C66.6239 654.791 66.2911 656.307 65.6256 657.638C64.96 658.969 64.0356 660.005 62.8524 660.744C61.6692 661.484 60.3258 661.853 58.8221 661.853ZM58.8221 659.635C59.7835 659.635 60.6339 659.351 61.3734 658.784C62.1375 658.218 62.7292 657.441 63.1482 656.455C63.5919 655.444 63.8138 654.31 63.8138 653.053C63.8138 651.131 63.3454 649.565 62.4087 648.357C61.472 647.125 60.2765 646.509 58.8221 646.509C57.3677 646.509 56.1722 647.125 55.2355 648.357C54.2988 649.565 53.8304 651.131 53.8304 653.053C53.8304 654.31 54.0399 655.444 54.459 656.455C54.9027 657.441 55.4943 658.218 56.2338 658.784C56.998 659.351 57.8607 659.635 58.8221 659.635ZM83.8174 648.173V648.21C83.1026 647.544 82.4986 647.1 82.0056 646.878C81.5373 646.657 80.9826 646.546 80.3417 646.546C79.4543 646.546 78.6162 646.767 77.8274 647.211C77.0386 647.655 76.3977 648.333 75.9047 649.245C75.4117 650.132 75.1652 651.254 75.1652 652.61V661.595H72.466V644.66H75.2391L75.1652 647.766C75.6335 646.657 76.3484 645.794 77.3098 645.178C78.2958 644.561 79.3681 644.253 80.5266 644.253C82.3261 644.253 83.8174 644.869 85.0006 646.102L83.8174 648.173ZM83.8174 648.21C83.99 648.357 84.027 648.419 83.9283 648.394C83.8544 648.37 83.7928 648.345 83.7435 648.32L83.8174 648.21ZM83.4107 648.32C83.4107 648.246 83.4477 648.222 83.5216 648.246C83.5956 648.246 83.6695 648.271 83.7435 648.32L83.6695 648.505L83.4107 648.357V648.32ZM181.691 659.487L184.686 656.455C186.683 654.458 188.174 652.893 189.16 651.759C190.171 650.625 190.972 649.504 191.564 648.394C192.155 647.26 192.451 646.09 192.451 644.882C192.451 643.378 192.094 642.293 191.379 641.628C190.664 640.962 189.715 640.63 188.532 640.63C187.472 640.63 186.486 640.864 185.574 641.332C184.686 641.8 184.095 642.318 183.799 642.885C183.651 643.156 183.503 643.44 183.355 643.735C183.207 644.007 183.133 644.167 183.133 644.216C183.133 644.241 183.146 644.253 183.17 644.253C183.195 644.253 183.244 644.241 183.318 644.216C183.392 644.167 183.441 644.192 183.466 644.29L183.355 644.512L183.022 644.327L181.137 642.848C181.876 641.418 182.887 640.321 184.169 639.557C185.45 638.768 186.892 638.374 188.495 638.374C190.467 638.374 192.057 638.966 193.264 640.149C194.497 641.332 195.113 642.934 195.113 644.956C195.113 646.287 194.793 647.581 194.152 648.838C193.511 650.095 192.685 651.291 191.675 652.425C190.688 653.559 189.308 655.001 187.533 656.751L185.019 659.302H193.597C193.992 659.302 194.275 659.277 194.448 659.228C194.645 659.179 194.817 659.08 194.965 658.932H195.224V661.558H181.691V659.487ZM206.28 661.964C205.688 661.964 205.183 661.755 204.764 661.336C204.345 660.917 204.135 660.424 204.135 659.857C204.135 659.29 204.345 658.797 204.764 658.378C205.183 657.959 205.688 657.749 206.28 657.749C206.847 657.749 207.34 657.959 207.759 658.378C208.178 658.797 208.387 659.29 208.387 659.857C208.387 660.424 208.178 660.917 207.759 661.336C207.34 661.755 206.847 661.964 206.28 661.964ZM225.211 638.374C227.479 638.374 229.229 639.422 230.462 641.517C231.719 643.612 232.347 646.496 232.347 650.169C232.347 653.941 231.731 656.849 230.499 658.895C229.266 660.941 227.504 661.964 225.211 661.964C222.919 661.964 221.156 660.941 219.924 658.895C218.691 656.849 218.075 653.941 218.075 650.169C218.075 646.496 218.691 643.612 219.924 641.517C221.181 639.422 222.943 638.374 225.211 638.374ZM225.211 640.63C223.806 640.63 222.709 641.492 221.92 643.218C221.132 644.919 220.737 647.236 220.737 650.169C220.737 651.771 220.848 653.189 221.07 654.421L228.909 644.29C228.539 643.107 228.034 642.207 227.393 641.591C226.776 640.95 226.049 640.63 225.211 640.63ZM225.211 659.709C226.616 659.709 227.713 658.883 228.502 657.232C229.291 655.58 229.685 653.226 229.685 650.169C229.685 648.739 229.599 647.507 229.426 646.472L221.588 656.455C222.376 658.624 223.584 659.709 225.211 659.709ZM2.76747 704.927C1.5596 704.927 0.425693 704.595 -0.634266 703.929C-1.69423 703.239 -2.55698 702.216 -3.22254 700.86C-3.8881 699.504 -4.22088 697.865 -4.22088 695.942C-4.22088 693.995 -3.87577 692.368 -3.18557 691.062C-2.49536 689.755 -1.60795 688.794 -0.52334 688.178C0.56127 687.537 1.70751 687.216 2.91537 687.216C4.04928 687.216 5.03529 687.475 5.87339 687.993C6.73615 688.51 7.38938 689.225 7.83309 690.137V679.969H10.6432V680.228C10.4953 680.376 10.3967 680.536 10.3474 680.709C10.3228 680.881 10.3104 681.177 10.3104 681.596L10.3474 701.932C10.3474 702.524 10.3597 703.017 10.3844 703.411C10.4337 703.781 10.5446 704.163 10.7172 704.558H8.09192C7.91936 704.163 7.80844 703.781 7.75914 703.411C7.73449 703.017 7.72216 702.524 7.72216 701.932C7.17986 702.869 6.47733 703.609 5.61457 704.151C4.77646 704.669 3.82743 704.927 2.76747 704.927ZM3.17419 702.598C4.70251 702.598 5.82409 701.994 6.53895 700.786C7.25381 699.578 7.61124 697.988 7.61124 696.016C7.61124 694.02 7.21683 692.417 6.42802 691.21C5.66387 690.002 4.50531 689.398 2.95234 689.398C1.47333 689.398 0.339418 689.952 -0.44939 691.062C-1.2382 692.146 -1.6326 693.638 -1.6326 695.536C-1.6326 697.705 -1.22587 699.43 -0.412414 700.712C0.425694 701.969 1.62123 702.598 3.17419 702.598ZM21.8467 704.853C20.3431 704.853 18.9996 704.484 17.8164 703.744C16.6332 703.005 15.7088 701.969 15.0433 700.638C14.3777 699.307 14.0449 697.791 14.0449 696.09C14.0449 694.389 14.3777 692.873 15.0433 691.542C15.7088 690.211 16.6332 689.176 17.8164 688.436C18.9996 687.672 20.3431 687.29 21.8467 687.29C23.3504 687.29 24.6938 687.672 25.8771 688.436C27.0603 689.176 27.9847 690.211 28.6502 691.542C29.3158 692.873 29.6485 694.389 29.6485 696.09C29.6485 697.791 29.3158 699.307 28.6502 700.638C27.9847 701.969 27.0603 703.005 25.8771 703.744C24.6938 704.484 23.3504 704.853 21.8467 704.853ZM21.8467 702.635C22.8081 702.635 23.6585 702.351 24.398 701.784C25.1622 701.218 25.7538 700.441 26.1729 699.455C26.6166 698.444 26.8384 697.31 26.8384 696.053C26.8384 694.131 26.3701 692.565 25.4334 691.357C24.4966 690.125 23.3011 689.509 21.8467 689.509C20.3924 689.509 19.1968 690.125 18.2601 691.357C17.3234 692.565 16.8551 694.131 16.8551 696.053C16.8551 697.31 17.0646 698.444 17.4837 699.455C17.9274 700.441 18.519 701.218 19.2585 701.784C20.0226 702.351 20.8854 702.635 21.8467 702.635ZM34.0116 704.558V702.413H39.0033V682.114H34.2335V679.969H41.7025V702.413H46.6572V704.558H34.0116ZM58.8221 704.853C57.3184 704.853 55.975 704.484 54.7918 703.744C53.6086 703.005 52.6842 701.969 52.0186 700.638C51.3531 699.307 51.0203 697.791 51.0203 696.09C51.0203 694.389 51.3531 692.873 52.0186 691.542C52.6842 690.211 53.6086 689.176 54.7918 688.436C55.975 687.672 57.3184 687.29 58.8221 687.29C60.3258 687.29 61.6692 687.672 62.8524 688.436C64.0356 689.176 64.96 690.211 65.6256 691.542C66.2911 692.873 66.6239 694.389 66.6239 696.09C66.6239 697.791 66.2911 699.307 65.6256 700.638C64.96 701.969 64.0356 703.005 62.8524 703.744C61.6692 704.484 60.3258 704.853 58.8221 704.853ZM58.8221 702.635C59.7835 702.635 60.6339 702.351 61.3734 701.784C62.1375 701.218 62.7292 700.441 63.1482 699.455C63.5919 698.444 63.8138 697.31 63.8138 696.053C63.8138 694.131 63.3454 692.565 62.4087 691.357C61.472 690.125 60.2765 689.509 58.8221 689.509C57.3677 689.509 56.1722 690.125 55.2355 691.357C54.2988 692.565 53.8304 694.131 53.8304 696.053C53.8304 697.31 54.0399 698.444 54.459 699.455C54.9027 700.441 55.4943 701.218 56.2338 701.784C56.998 702.351 57.8607 702.635 58.8221 702.635ZM83.8174 691.173V691.21C83.1026 690.544 82.4986 690.1 82.0056 689.878C81.5373 689.657 80.9826 689.546 80.3417 689.546C79.4543 689.546 78.6162 689.767 77.8274 690.211C77.0386 690.655 76.3977 691.333 75.9047 692.245C75.4117 693.132 75.1652 694.254 75.1652 695.61V704.595H72.466V687.66H75.2391L75.1652 690.766C75.6335 689.657 76.3484 688.794 77.3098 688.178C78.2958 687.561 79.3681 687.253 80.5266 687.253C82.3261 687.253 83.8174 687.869 85.0006 689.102L83.8174 691.173ZM83.8174 691.21C83.99 691.357 84.027 691.419 83.9283 691.394C83.8544 691.37 83.7928 691.345 83.7435 691.32L83.8174 691.21ZM83.4107 691.32C83.4107 691.246 83.4477 691.222 83.5216 691.246C83.5956 691.246 83.6695 691.271 83.7435 691.32L83.6695 691.505L83.4107 691.357V691.32ZM187.496 704.558V684.702L182.837 686.07L182.246 684.628L188.273 681.485H190.085V704.558H187.496ZM206.28 704.964C205.688 704.964 205.183 704.755 204.764 704.336C204.345 703.917 204.135 703.424 204.135 702.857C204.135 702.29 204.345 701.797 204.764 701.378C205.183 700.959 205.688 700.749 206.28 700.749C206.847 700.749 207.34 700.959 207.759 701.378C208.178 701.797 208.387 702.29 208.387 702.857C208.387 703.424 208.178 703.917 207.759 704.336C207.34 704.755 206.847 704.964 206.28 704.964ZM225.211 681.374C227.479 681.374 229.229 682.422 230.462 684.517C231.719 686.612 232.347 689.496 232.347 693.169C232.347 696.941 231.731 699.849 230.499 701.895C229.266 703.941 227.504 704.964 225.211 704.964C222.919 704.964 221.156 703.941 219.924 701.895C218.691 699.849 218.075 696.941 218.075 693.169C218.075 689.496 218.691 686.612 219.924 684.517C221.181 682.422 222.943 681.374 225.211 681.374ZM225.211 683.63C223.806 683.63 222.709 684.492 221.92 686.218C221.132 687.919 220.737 690.236 220.737 693.169C220.737 694.771 220.848 696.189 221.07 697.421L228.909 687.29C228.539 686.107 228.034 685.207 227.393 684.591C226.776 683.95 226.049 683.63 225.211 683.63ZM225.211 702.709C226.616 702.709 227.713 701.883 228.502 700.232C229.291 698.58 229.685 696.226 229.685 693.169C229.685 691.739 229.599 690.507 229.426 689.472L221.588 699.455C222.376 701.624 223.584 702.709 225.211 702.709Z" fill="#1D2755"/>
        <path d="M114.322 661.964C111.882 661.964 110.033 661.237 108.776 659.783C107.519 658.328 106.89 656.27 106.89 653.608V638.522H109.774V638.781C109.626 638.929 109.528 639.089 109.478 639.261C109.454 639.434 109.441 639.73 109.441 640.149V653.645C109.441 655.617 109.823 657.133 110.588 658.193C111.352 659.253 112.609 659.783 114.359 659.783C116.134 659.783 117.403 659.253 118.168 658.193C118.956 657.133 119.351 655.58 119.351 653.534V638.522H121.828V653.497C121.828 656.332 121.163 658.452 119.831 659.857C118.525 661.262 116.689 661.964 114.322 661.964ZM134.548 648.838C136.741 649.75 138.257 650.687 139.096 651.648C139.934 652.61 140.353 653.817 140.353 655.272C140.353 656.406 140.069 657.478 139.502 658.489C138.96 659.499 138.11 660.325 136.951 660.966C135.792 661.607 134.363 661.927 132.662 661.927C129.679 661.927 127.276 660.954 125.452 659.006L126.783 656.677V656.64C126.807 656.64 126.82 656.652 126.82 656.677C127.485 657.564 128.336 658.279 129.371 658.821C130.431 659.339 131.651 659.598 133.032 659.598C134.387 659.598 135.521 659.216 136.433 658.452C137.345 657.688 137.801 656.751 137.801 655.642C137.801 654.927 137.654 654.335 137.358 653.867C137.087 653.374 136.581 652.893 135.842 652.425C135.102 651.956 133.993 651.402 132.514 650.761C130.246 649.873 128.619 648.863 127.633 647.729C126.672 646.595 126.191 645.325 126.191 643.92C126.191 642.195 126.82 640.814 128.077 639.779C129.334 638.744 131.047 638.226 133.216 638.226C134.474 638.226 135.645 638.485 136.729 639.003C137.838 639.496 138.8 640.198 139.613 641.11L138.171 643.033L138.134 643.07C137.395 642.059 136.618 641.357 135.805 640.962C135.016 640.568 134.018 640.371 132.81 640.371C131.627 640.371 130.665 640.704 129.926 641.369C129.211 642.01 128.853 642.799 128.853 643.735C128.853 644.45 129.001 645.079 129.297 645.621C129.618 646.139 130.185 646.657 130.998 647.174C131.811 647.667 132.995 648.222 134.548 648.838ZM137.727 643.144C137.727 643.07 137.777 643.058 137.875 643.107C137.974 643.156 138.036 643.181 138.06 643.181L137.949 643.329L137.727 643.181V643.144ZM138.134 643.07C138.282 643.267 138.307 643.341 138.208 643.292C138.134 643.218 138.085 643.181 138.06 643.181L138.134 643.07ZM127.19 656.529C127.19 656.603 127.14 656.615 127.042 656.566C126.943 656.517 126.881 656.492 126.857 656.492L126.931 656.344L127.19 656.492V656.529ZM126.783 656.64C126.635 656.443 126.66 656.393 126.857 656.492L126.783 656.64ZM144.013 638.522H149.375C151.273 638.522 152.776 638.781 153.886 639.298C154.995 639.791 155.956 640.58 156.77 641.665C158.273 643.686 159.025 646.521 159.025 650.169C158.877 653.891 158.015 656.738 156.437 658.711C154.859 660.658 152.357 661.619 148.931 661.595H144.013V638.522ZM148.82 659.561C153.898 659.561 156.437 656.48 156.437 650.317C156.412 647.187 155.833 644.808 154.699 643.181C153.565 641.529 151.741 640.704 149.227 640.704H146.454V659.561H148.82ZM114.322 704.964C111.882 704.964 110.033 704.237 108.776 702.783C107.519 701.328 106.89 699.27 106.89 696.608V681.522H109.774V681.781C109.626 681.929 109.528 682.089 109.478 682.261C109.454 682.434 109.441 682.73 109.441 683.149V696.645C109.441 698.617 109.823 700.133 110.588 701.193C111.352 702.253 112.609 702.783 114.359 702.783C116.134 702.783 117.403 702.253 118.168 701.193C118.956 700.133 119.351 698.58 119.351 696.534V681.522H121.828V696.497C121.828 699.332 121.163 701.452 119.831 702.857C118.525 704.262 116.689 704.964 114.322 704.964ZM134.548 691.838C136.741 692.75 138.257 693.687 139.096 694.648C139.934 695.61 140.353 696.817 140.353 698.272C140.353 699.406 140.069 700.478 139.502 701.489C138.96 702.499 138.11 703.325 136.951 703.966C135.792 704.607 134.363 704.927 132.662 704.927C129.679 704.927 127.276 703.954 125.452 702.006L126.783 699.677V699.64C126.807 699.64 126.82 699.652 126.82 699.677C127.485 700.564 128.336 701.279 129.371 701.821C130.431 702.339 131.651 702.598 133.032 702.598C134.387 702.598 135.521 702.216 136.433 701.452C137.345 700.688 137.801 699.751 137.801 698.642C137.801 697.927 137.654 697.335 137.358 696.867C137.087 696.374 136.581 695.893 135.842 695.425C135.102 694.956 133.993 694.402 132.514 693.761C130.246 692.873 128.619 691.863 127.633 690.729C126.672 689.595 126.191 688.325 126.191 686.92C126.191 685.195 126.82 683.814 128.077 682.779C129.334 681.744 131.047 681.226 133.216 681.226C134.474 681.226 135.645 681.485 136.729 682.003C137.838 682.496 138.8 683.198 139.613 684.11L138.171 686.033L138.134 686.07C137.395 685.059 136.618 684.357 135.805 683.962C135.016 683.568 134.018 683.371 132.81 683.371C131.627 683.371 130.665 683.704 129.926 684.369C129.211 685.01 128.853 685.799 128.853 686.735C128.853 687.45 129.001 688.079 129.297 688.621C129.618 689.139 130.185 689.657 130.998 690.174C131.811 690.667 132.995 691.222 134.548 691.838ZM137.727 686.144C137.727 686.07 137.777 686.058 137.875 686.107C137.974 686.156 138.036 686.181 138.06 686.181L137.949 686.329L137.727 686.181V686.144ZM138.134 686.07C138.282 686.267 138.307 686.341 138.208 686.292C138.134 686.218 138.085 686.181 138.06 686.181L138.134 686.07ZM127.19 699.529C127.19 699.603 127.14 699.615 127.042 699.566C126.943 699.517 126.881 699.492 126.857 699.492L126.931 699.344L127.19 699.492V699.529ZM126.783 699.64C126.635 699.443 126.66 699.393 126.857 699.492L126.783 699.64ZM144.013 681.522H149.375C151.273 681.522 152.776 681.781 153.886 682.298C154.995 682.791 155.956 683.58 156.77 684.665C158.273 686.686 159.025 689.521 159.025 693.169C158.877 696.891 158.015 699.738 156.437 701.711C154.859 703.658 152.357 704.619 148.931 704.595H144.013V681.522ZM148.82 702.561C153.898 702.561 156.437 699.48 156.437 693.317C156.412 690.187 155.833 687.808 154.699 686.181C153.565 684.529 151.741 683.704 149.227 683.704H146.454V702.561H148.82Z" fill="#1D2755" fill-opacity="0.6"/>
        <path d="M2.76747 754.475C1.5596 754.475 0.425693 754.142 -0.634266 753.477C-1.69423 752.787 -2.55698 751.764 -3.22254 750.408C-3.8881 749.052 -4.22088 747.413 -4.22088 745.49C-4.22088 743.543 -3.87577 741.916 -3.18557 740.609C-2.49536 739.303 -1.60795 738.342 -0.52334 737.725C0.56127 737.084 1.70751 736.764 2.91537 736.764C4.04928 736.764 5.03529 737.023 5.87339 737.541C6.73615 738.058 7.38938 738.773 7.83309 739.685V729.517H10.6432V729.776C10.4953 729.924 10.3967 730.084 10.3474 730.256C10.3228 730.429 10.3104 730.725 10.3104 731.144L10.3474 751.48C10.3474 752.072 10.3597 752.565 10.3844 752.959C10.4337 753.329 10.5446 753.711 10.7172 754.105H8.09192C7.91936 753.711 7.80844 753.329 7.75914 752.959C7.73449 752.565 7.72216 752.072 7.72216 751.48C7.17986 752.417 6.47733 753.156 5.61457 753.699C4.77646 754.216 3.82743 754.475 2.76747 754.475ZM3.17419 752.146C4.70251 752.146 5.82409 751.542 6.53895 750.334C7.25381 749.126 7.61124 747.536 7.61124 745.564C7.61124 743.567 7.21683 741.965 6.42802 740.757C5.66387 739.55 4.50531 738.946 2.95234 738.946C1.47333 738.946 0.339418 739.5 -0.44939 740.609C-1.2382 741.694 -1.6326 743.185 -1.6326 745.083C-1.6326 747.253 -1.22587 748.978 -0.412414 750.26C0.425694 751.517 1.62123 752.146 3.17419 752.146ZM21.8467 754.401C20.3431 754.401 18.9996 754.032 17.8164 753.292C16.6332 752.553 15.7088 751.517 15.0433 750.186C14.3777 748.855 14.0449 747.339 14.0449 745.638C14.0449 743.937 14.3777 742.421 15.0433 741.09C15.7088 739.759 16.6332 738.724 17.8164 737.984C18.9996 737.22 20.3431 736.838 21.8467 736.838C23.3504 736.838 24.6938 737.22 25.8771 737.984C27.0603 738.724 27.9847 739.759 28.6502 741.09C29.3158 742.421 29.6485 743.937 29.6485 745.638C29.6485 747.339 29.3158 748.855 28.6502 750.186C27.9847 751.517 27.0603 752.553 25.8771 753.292C24.6938 754.032 23.3504 754.401 21.8467 754.401ZM21.8467 752.183C22.8081 752.183 23.6585 751.899 24.398 751.332C25.1622 750.765 25.7538 749.989 26.1729 749.003C26.6166 747.992 26.8384 746.858 26.8384 745.601C26.8384 743.678 26.3701 742.113 25.4334 740.905C24.4966 739.673 23.3011 739.057 21.8467 739.057C20.3924 739.057 19.1968 739.673 18.2601 740.905C17.3234 742.113 16.8551 743.678 16.8551 745.601C16.8551 746.858 17.0646 747.992 17.4837 749.003C17.9274 749.989 18.519 750.765 19.2585 751.332C20.0226 751.899 20.8854 752.183 21.8467 752.183ZM34.0116 754.105V751.961H39.0033V731.661H34.2335V729.517H41.7025V751.961H46.6572V754.105H34.0116ZM58.8221 754.401C57.3184 754.401 55.975 754.032 54.7918 753.292C53.6086 752.553 52.6842 751.517 52.0186 750.186C51.3531 748.855 51.0203 747.339 51.0203 745.638C51.0203 743.937 51.3531 742.421 52.0186 741.09C52.6842 739.759 53.6086 738.724 54.7918 737.984C55.975 737.22 57.3184 736.838 58.8221 736.838C60.3258 736.838 61.6692 737.22 62.8524 737.984C64.0356 738.724 64.96 739.759 65.6256 741.09C66.2911 742.421 66.6239 743.937 66.6239 745.638C66.6239 747.339 66.2911 748.855 65.6256 750.186C64.96 751.517 64.0356 752.553 62.8524 753.292C61.6692 754.032 60.3258 754.401 58.8221 754.401ZM58.8221 752.183C59.7835 752.183 60.6339 751.899 61.3734 751.332C62.1375 750.765 62.7292 749.989 63.1482 749.003C63.5919 747.992 63.8138 746.858 63.8138 745.601C63.8138 743.678 63.3454 742.113 62.4087 740.905C61.472 739.673 60.2765 739.057 58.8221 739.057C57.3677 739.057 56.1722 739.673 55.2355 740.905C54.2988 742.113 53.8304 743.678 53.8304 745.601C53.8304 746.858 54.0399 747.992 54.459 749.003C54.9027 749.989 55.4943 750.765 56.2338 751.332C56.998 751.899 57.8607 752.183 58.8221 752.183ZM83.8174 740.72V740.757C83.1026 740.092 82.4986 739.648 82.0056 739.426C81.5373 739.204 80.9826 739.093 80.3417 739.093C79.4543 739.093 78.6162 739.315 77.8274 739.759C77.0386 740.203 76.3977 740.881 75.9047 741.793C75.4117 742.68 75.1652 743.802 75.1652 745.157V754.142H72.466V737.208H75.2391L75.1652 740.314C75.6335 739.204 76.3484 738.342 77.3098 737.725C78.2958 737.109 79.3681 736.801 80.5266 736.801C82.3261 736.801 83.8174 737.417 85.0006 738.65L83.8174 740.72ZM83.8174 740.757C83.99 740.905 84.027 740.967 83.9283 740.942C83.8544 740.918 83.7928 740.893 83.7435 740.868L83.8174 740.757ZM83.4107 740.868C83.4107 740.794 83.4477 740.77 83.5216 740.794C83.5956 740.794 83.6695 740.819 83.7435 740.868L83.6695 741.053L83.4107 740.905V740.868ZM181.691 752.035L184.686 749.003C186.683 747.006 188.174 745.441 189.16 744.307C190.171 743.173 190.972 742.052 191.564 740.942C192.155 739.808 192.451 738.637 192.451 737.43C192.451 735.926 192.094 734.841 191.379 734.176C190.664 733.51 189.715 733.177 188.532 733.177C187.472 733.177 186.486 733.412 185.574 733.88C184.686 734.348 184.095 734.866 183.799 735.433C183.651 735.704 183.503 735.988 183.355 736.283C183.207 736.555 183.133 736.715 183.133 736.764C183.133 736.789 183.146 736.801 183.17 736.801C183.195 736.801 183.244 736.789 183.318 736.764C183.392 736.715 183.441 736.739 183.466 736.838L183.355 737.06L183.022 736.875L181.137 735.396C181.876 733.966 182.887 732.869 184.169 732.105C185.45 731.316 186.892 730.922 188.495 730.922C190.467 730.922 192.057 731.514 193.264 732.697C194.497 733.88 195.113 735.482 195.113 737.504C195.113 738.835 194.793 740.129 194.152 741.386C193.511 742.643 192.685 743.839 191.675 744.973C190.688 746.106 189.308 747.549 187.533 749.299L185.019 751.85H193.597C193.992 751.85 194.275 751.825 194.448 751.776C194.645 751.727 194.817 751.628 194.965 751.48H195.224V754.105H181.691V752.035ZM206.28 754.512C205.688 754.512 205.183 754.303 204.764 753.884C204.345 753.465 204.135 752.972 204.135 752.405C204.135 751.838 204.345 751.345 204.764 750.926C205.183 750.507 205.688 750.297 206.28 750.297C206.847 750.297 207.34 750.507 207.759 750.926C208.178 751.345 208.387 751.838 208.387 752.405C208.387 752.972 208.178 753.465 207.759 753.884C207.34 754.303 206.847 754.512 206.28 754.512ZM225.211 730.922C227.479 730.922 229.229 731.97 230.462 734.065C231.719 736.16 232.347 739.044 232.347 742.717C232.347 746.489 231.731 749.397 230.499 751.443C229.266 753.489 227.504 754.512 225.211 754.512C222.919 754.512 221.156 753.489 219.924 751.443C218.691 749.397 218.075 746.489 218.075 742.717C218.075 739.044 218.691 736.16 219.924 734.065C221.181 731.97 222.943 730.922 225.211 730.922ZM225.211 733.177C223.806 733.177 222.709 734.04 221.92 735.766C221.132 737.467 220.737 739.784 220.737 742.717C220.737 744.319 220.848 745.737 221.07 746.969L228.909 736.838C228.539 735.655 228.034 734.755 227.393 734.139C226.776 733.498 226.049 733.177 225.211 733.177ZM225.211 752.257C226.616 752.257 227.713 751.431 228.502 749.779C229.291 748.128 229.685 745.774 229.685 742.717C229.685 741.287 229.599 740.055 229.426 739.02L221.588 749.003C222.376 751.172 223.584 752.257 225.211 752.257ZM2.76747 797.475C1.5596 797.475 0.425693 797.142 -0.634266 796.477C-1.69423 795.787 -2.55698 794.764 -3.22254 793.408C-3.8881 792.052 -4.22088 790.413 -4.22088 788.49C-4.22088 786.543 -3.87577 784.916 -3.18557 783.609C-2.49536 782.303 -1.60795 781.342 -0.52334 780.725C0.56127 780.084 1.70751 779.764 2.91537 779.764C4.04928 779.764 5.03529 780.023 5.87339 780.541C6.73615 781.058 7.38938 781.773 7.83309 782.685V772.517H10.6432V772.776C10.4953 772.924 10.3967 773.084 10.3474 773.256C10.3228 773.429 10.3104 773.725 10.3104 774.144L10.3474 794.48C10.3474 795.072 10.3597 795.565 10.3844 795.959C10.4337 796.329 10.5446 796.711 10.7172 797.105H8.09192C7.91936 796.711 7.80844 796.329 7.75914 795.959C7.73449 795.565 7.72216 795.072 7.72216 794.48C7.17986 795.417 6.47733 796.156 5.61457 796.699C4.77646 797.216 3.82743 797.475 2.76747 797.475ZM3.17419 795.146C4.70251 795.146 5.82409 794.542 6.53895 793.334C7.25381 792.126 7.61124 790.536 7.61124 788.564C7.61124 786.567 7.21683 784.965 6.42802 783.757C5.66387 782.55 4.50531 781.946 2.95234 781.946C1.47333 781.946 0.339418 782.5 -0.44939 783.609C-1.2382 784.694 -1.6326 786.185 -1.6326 788.083C-1.6326 790.253 -1.22587 791.978 -0.412414 793.26C0.425694 794.517 1.62123 795.146 3.17419 795.146ZM21.8467 797.401C20.3431 797.401 18.9996 797.032 17.8164 796.292C16.6332 795.553 15.7088 794.517 15.0433 793.186C14.3777 791.855 14.0449 790.339 14.0449 788.638C14.0449 786.937 14.3777 785.421 15.0433 784.09C15.7088 782.759 16.6332 781.724 17.8164 780.984C18.9996 780.22 20.3431 779.838 21.8467 779.838C23.3504 779.838 24.6938 780.22 25.8771 780.984C27.0603 781.724 27.9847 782.759 28.6502 784.09C29.3158 785.421 29.6485 786.937 29.6485 788.638C29.6485 790.339 29.3158 791.855 28.6502 793.186C27.9847 794.517 27.0603 795.553 25.8771 796.292C24.6938 797.032 23.3504 797.401 21.8467 797.401ZM21.8467 795.183C22.8081 795.183 23.6585 794.899 24.398 794.332C25.1622 793.765 25.7538 792.989 26.1729 792.003C26.6166 790.992 26.8384 789.858 26.8384 788.601C26.8384 786.678 26.3701 785.113 25.4334 783.905C24.4966 782.673 23.3011 782.057 21.8467 782.057C20.3924 782.057 19.1968 782.673 18.2601 783.905C17.3234 785.113 16.8551 786.678 16.8551 788.601C16.8551 789.858 17.0646 790.992 17.4837 792.003C17.9274 792.989 18.519 793.765 19.2585 794.332C20.0226 794.899 20.8854 795.183 21.8467 795.183ZM34.0116 797.105V794.961H39.0033V774.661H34.2335V772.517H41.7025V794.961H46.6572V797.105H34.0116ZM58.8221 797.401C57.3184 797.401 55.975 797.032 54.7918 796.292C53.6086 795.553 52.6842 794.517 52.0186 793.186C51.3531 791.855 51.0203 790.339 51.0203 788.638C51.0203 786.937 51.3531 785.421 52.0186 784.09C52.6842 782.759 53.6086 781.724 54.7918 780.984C55.975 780.22 57.3184 779.838 58.8221 779.838C60.3258 779.838 61.6692 780.22 62.8524 780.984C64.0356 781.724 64.96 782.759 65.6256 784.09C66.2911 785.421 66.6239 786.937 66.6239 788.638C66.6239 790.339 66.2911 791.855 65.6256 793.186C64.96 794.517 64.0356 795.553 62.8524 796.292C61.6692 797.032 60.3258 797.401 58.8221 797.401ZM58.8221 795.183C59.7835 795.183 60.6339 794.899 61.3734 794.332C62.1375 793.765 62.7292 792.989 63.1482 792.003C63.5919 790.992 63.8138 789.858 63.8138 788.601C63.8138 786.678 63.3454 785.113 62.4087 783.905C61.472 782.673 60.2765 782.057 58.8221 782.057C57.3677 782.057 56.1722 782.673 55.2355 783.905C54.2988 785.113 53.8304 786.678 53.8304 788.601C53.8304 789.858 54.0399 790.992 54.459 792.003C54.9027 792.989 55.4943 793.765 56.2338 794.332C56.998 794.899 57.8607 795.183 58.8221 795.183ZM83.8174 783.72V783.757C83.1026 783.092 82.4986 782.648 82.0056 782.426C81.5373 782.204 80.9826 782.093 80.3417 782.093C79.4543 782.093 78.6162 782.315 77.8274 782.759C77.0386 783.203 76.3977 783.881 75.9047 784.793C75.4117 785.68 75.1652 786.802 75.1652 788.157V797.142H72.466V780.208H75.2391L75.1652 783.314C75.6335 782.204 76.3484 781.342 77.3098 780.725C78.2958 780.109 79.3681 779.801 80.5266 779.801C82.3261 779.801 83.8174 780.417 85.0006 781.65L83.8174 783.72ZM83.8174 783.757C83.99 783.905 84.027 783.967 83.9283 783.942C83.8544 783.918 83.7928 783.893 83.7435 783.868L83.8174 783.757ZM83.4107 783.868C83.4107 783.794 83.4477 783.77 83.5216 783.794C83.5956 783.794 83.6695 783.819 83.7435 783.868L83.6695 784.053L83.4107 783.905V783.868ZM187.496 797.105V777.25L182.837 778.618L182.246 777.176L188.273 774.033H190.085V797.105H187.496ZM206.28 797.512C205.688 797.512 205.183 797.303 204.764 796.884C204.345 796.465 204.135 795.972 204.135 795.405C204.135 794.838 204.345 794.345 204.764 793.926C205.183 793.507 205.688 793.297 206.28 793.297C206.847 793.297 207.34 793.507 207.759 793.926C208.178 794.345 208.387 794.838 208.387 795.405C208.387 795.972 208.178 796.465 207.759 796.884C207.34 797.303 206.847 797.512 206.28 797.512ZM225.211 773.922C227.479 773.922 229.229 774.97 230.462 777.065C231.719 779.16 232.347 782.044 232.347 785.717C232.347 789.489 231.731 792.397 230.499 794.443C229.266 796.489 227.504 797.512 225.211 797.512C222.919 797.512 221.156 796.489 219.924 794.443C218.691 792.397 218.075 789.489 218.075 785.717C218.075 782.044 218.691 779.16 219.924 777.065C221.181 774.97 222.943 773.922 225.211 773.922ZM225.211 776.177C223.806 776.177 222.709 777.04 221.92 778.766C221.132 780.467 220.737 782.784 220.737 785.717C220.737 787.319 220.848 788.737 221.07 789.969L228.909 779.838C228.539 778.655 228.034 777.755 227.393 777.139C226.776 776.498 226.049 776.177 225.211 776.177ZM225.211 795.257C226.616 795.257 227.713 794.431 228.502 792.779C229.291 791.128 229.685 788.774 229.685 785.717C229.685 784.287 229.599 783.055 229.426 782.02L221.588 792.003C222.376 794.172 223.584 795.257 225.211 795.257Z" fill="#1D2755"/>
        <path d="M114.322 754.512C111.882 754.512 110.033 753.785 108.776 752.331C107.519 750.876 106.89 748.818 106.89 746.156V731.07H109.774V731.329C109.626 731.477 109.528 731.637 109.478 731.809C109.454 731.982 109.441 732.278 109.441 732.697V746.193C109.441 748.165 109.823 749.681 110.588 750.741C111.352 751.801 112.609 752.331 114.359 752.331C116.134 752.331 117.403 751.801 118.168 750.741C118.956 749.681 119.351 748.128 119.351 746.082V731.07H121.828V746.045C121.828 748.88 121.163 751 119.831 752.405C118.525 753.81 116.689 754.512 114.322 754.512ZM134.548 741.386C136.741 742.298 138.257 743.235 139.096 744.196C139.934 745.157 140.353 746.365 140.353 747.82C140.353 748.954 140.069 750.026 139.502 751.037C138.96 752.047 138.11 752.873 136.951 753.514C135.792 754.155 134.363 754.475 132.662 754.475C129.679 754.475 127.276 753.502 125.452 751.554L126.783 749.225V749.188C126.807 749.188 126.82 749.2 126.82 749.225C127.485 750.112 128.336 750.827 129.371 751.369C130.431 751.887 131.651 752.146 133.032 752.146C134.387 752.146 135.521 751.764 136.433 751C137.345 750.235 137.801 749.299 137.801 748.189C137.801 747.475 137.654 746.883 137.358 746.415C137.087 745.922 136.581 745.441 135.842 744.973C135.102 744.504 133.993 743.95 132.514 743.309C130.246 742.421 128.619 741.411 127.633 740.277C126.672 739.143 126.191 737.873 126.191 736.468C126.191 734.743 126.82 733.362 128.077 732.327C129.334 731.292 131.047 730.774 133.216 730.774C134.474 730.774 135.645 731.033 136.729 731.551C137.838 732.044 138.8 732.746 139.613 733.658L138.171 735.581L138.134 735.618C137.395 734.607 136.618 733.905 135.805 733.51C135.016 733.116 134.018 732.919 132.81 732.919C131.627 732.919 130.665 733.251 129.926 733.917C129.211 734.558 128.853 735.347 128.853 736.283C128.853 736.998 129.001 737.627 129.297 738.169C129.618 738.687 130.185 739.204 130.998 739.722C131.811 740.215 132.995 740.77 134.548 741.386ZM137.727 735.692C137.727 735.618 137.777 735.605 137.875 735.655C137.974 735.704 138.036 735.729 138.06 735.729L137.949 735.877L137.727 735.729V735.692ZM138.134 735.618C138.282 735.815 138.307 735.889 138.208 735.84C138.134 735.766 138.085 735.729 138.06 735.729L138.134 735.618ZM127.19 749.077C127.19 749.151 127.14 749.163 127.042 749.114C126.943 749.064 126.881 749.04 126.857 749.04L126.931 748.892L127.19 749.04V749.077ZM126.783 749.188C126.635 748.991 126.66 748.941 126.857 749.04L126.783 749.188ZM144.013 731.07H149.375C151.273 731.07 152.776 731.329 153.886 731.846C154.995 732.339 155.956 733.128 156.77 734.213C158.273 736.234 159.025 739.069 159.025 742.717C158.877 746.439 158.015 749.286 156.437 751.258C154.859 753.206 152.357 754.167 148.931 754.142H144.013V731.07ZM148.82 752.109C153.898 752.109 156.437 749.028 156.437 742.865C156.412 739.734 155.833 737.356 154.699 735.729C153.565 734.077 151.741 733.251 149.227 733.251H146.454V752.109H148.82ZM114.322 797.512C111.882 797.512 110.033 796.785 108.776 795.331C107.519 793.876 106.89 791.818 106.89 789.156V774.07H109.774V774.329C109.626 774.477 109.528 774.637 109.478 774.809C109.454 774.982 109.441 775.278 109.441 775.697V789.193C109.441 791.165 109.823 792.681 110.588 793.741C111.352 794.801 112.609 795.331 114.359 795.331C116.134 795.331 117.403 794.801 118.168 793.741C118.956 792.681 119.351 791.128 119.351 789.082V774.07H121.828V789.045C121.828 791.88 121.163 794 119.831 795.405C118.525 796.81 116.689 797.512 114.322 797.512ZM134.548 784.386C136.741 785.298 138.257 786.235 139.096 787.196C139.934 788.157 140.353 789.365 140.353 790.82C140.353 791.954 140.069 793.026 139.502 794.037C138.96 795.047 138.11 795.873 136.951 796.514C135.792 797.155 134.363 797.475 132.662 797.475C129.679 797.475 127.276 796.502 125.452 794.554L126.783 792.225V792.188C126.807 792.188 126.82 792.2 126.82 792.225C127.485 793.112 128.336 793.827 129.371 794.369C130.431 794.887 131.651 795.146 133.032 795.146C134.387 795.146 135.521 794.764 136.433 794C137.345 793.235 137.801 792.299 137.801 791.189C137.801 790.475 137.654 789.883 137.358 789.415C137.087 788.922 136.581 788.441 135.842 787.973C135.102 787.504 133.993 786.95 132.514 786.309C130.246 785.421 128.619 784.411 127.633 783.277C126.672 782.143 126.191 780.873 126.191 779.468C126.191 777.743 126.82 776.362 128.077 775.327C129.334 774.292 131.047 773.774 133.216 773.774C134.474 773.774 135.645 774.033 136.729 774.551C137.838 775.044 138.8 775.746 139.613 776.658L138.171 778.581L138.134 778.618C137.395 777.607 136.618 776.905 135.805 776.51C135.016 776.116 134.018 775.919 132.81 775.919C131.627 775.919 130.665 776.251 129.926 776.917C129.211 777.558 128.853 778.347 128.853 779.283C128.853 779.998 129.001 780.627 129.297 781.169C129.618 781.687 130.185 782.204 130.998 782.722C131.811 783.215 132.995 783.77 134.548 784.386ZM137.727 778.692C137.727 778.618 137.777 778.605 137.875 778.655C137.974 778.704 138.036 778.729 138.06 778.729L137.949 778.877L137.727 778.729V778.692ZM138.134 778.618C138.282 778.815 138.307 778.889 138.208 778.84C138.134 778.766 138.085 778.729 138.06 778.729L138.134 778.618ZM127.19 792.077C127.19 792.151 127.14 792.163 127.042 792.114C126.943 792.064 126.881 792.04 126.857 792.04L126.931 791.892L127.19 792.04V792.077ZM126.783 792.188C126.635 791.991 126.66 791.941 126.857 792.04L126.783 792.188ZM144.013 774.07H149.375C151.273 774.07 152.776 774.329 153.886 774.846C154.995 775.339 155.956 776.128 156.77 777.213C158.273 779.234 159.025 782.069 159.025 785.717C158.877 789.439 158.015 792.286 156.437 794.258C154.859 796.206 152.357 797.167 148.931 797.142H144.013V774.07ZM148.82 795.109C153.898 795.109 156.437 792.028 156.437 785.865C156.412 782.734 155.833 780.356 154.699 778.729C153.565 777.077 151.741 776.251 149.227 776.251H146.454V795.109H148.82Z" fill="#1D2755" fill-opacity="0.6"/>
    </g>
    <defs>
        <filter id="filter0_f" x="-31.9482" y="560.176" width="125.3" height="43.22" filterUnits="userSpaceOnUse" color-interpolation-filters="sRGB">
            <feFlood flood-opacity="0" result="BackgroundImageFix"/>
            <feBlend mode="normal" in="SourceGraphic" in2="BackgroundImageFix" result="shape"/>
            <feGaussianBlur stdDeviation="5" result="effect1_foregroundBlur"/>
        </filter>
        <filter id="filter1_f" x="-78.2459" y="580.754" width="395.442" height="281.02" filterUnits="userSpaceOnUse" color-interpolation-filters="sRGB">
            <feFlood flood-opacity="0" result="BackgroundImageFix"/>
            <feBlend mode="normal" in="SourceGraphic" in2="BackgroundImageFix" result="shape"/>
            <feGaussianBlur stdDeviation="12.6229" result="effect1_foregroundBlur"/>
        </filter>
    </defs>
</svg>
