<svg width="764" height="1496" viewBox="0 0 764 1496" fill="none" xmlns="http://www.w3.org/2000/svg">
    <g opacity="0.5">
        <path d="M549.788 785.272C553.714 785.272 556.743 787.085 558.876 790.712C561.052 794.339 562.14 799.331 562.14 805.688C562.14 812.216 561.074 817.251 558.94 820.792C556.807 824.333 553.756 826.104 549.788 826.104C545.82 826.104 542.77 824.333 540.636 820.792C538.503 817.251 537.436 812.216 537.436 805.688C537.436 799.331 538.503 794.339 540.636 790.712C542.812 787.085 545.863 785.272 549.788 785.272ZM549.788 789.176C547.356 789.176 545.458 790.669 544.092 793.656C542.727 796.6 542.044 800.611 542.044 805.688C542.044 808.461 542.236 810.915 542.62 813.048L556.188 795.512C555.548 793.464 554.674 791.907 553.564 790.84C552.498 789.731 551.239 789.176 549.788 789.176ZM549.788 822.2C552.22 822.2 554.119 820.771 555.484 817.912C556.85 815.053 557.532 810.979 557.532 805.688C557.532 803.213 557.383 801.08 557.084 799.288L543.516 816.568C544.882 820.323 546.972 822.2 549.788 822.2ZM581.02 826.104C579.996 826.104 579.122 825.741 578.396 825.016C577.671 824.291 577.308 823.437 577.308 822.456C577.308 821.475 577.671 820.621 578.396 819.896C579.122 819.171 579.996 818.808 581.02 818.808C582.002 818.808 582.855 819.171 583.58 819.896C584.306 820.621 584.668 821.475 584.668 822.456C584.668 823.437 584.306 824.291 583.58 825.016C582.855 825.741 582.002 826.104 581.02 826.104ZM617.5 804.28C619.847 805.048 621.703 806.285 623.068 807.992C624.434 809.699 625.116 811.853 625.116 814.456C625.116 816.589 624.647 818.552 623.708 820.344C622.77 822.093 621.404 823.501 619.612 824.568C617.82 825.592 615.666 826.104 613.148 826.104C611.015 826.104 608.988 825.72 607.068 824.952C605.191 824.184 603.57 823.053 602.204 821.56L605.148 818.04L605.212 817.976L605.276 818.04C606.343 819.405 607.431 820.451 608.54 821.176C609.692 821.901 611.164 822.264 612.956 822.264C615.431 822.264 617.308 821.539 618.588 820.088C619.868 818.637 620.508 816.696 620.508 814.264C620.508 811.619 619.698 809.635 618.076 808.312C616.498 806.989 614.258 806.328 611.356 806.328C610.93 806.328 610.247 806.371 609.308 806.456V802.872C613.106 802.872 615.687 802.168 617.052 800.76C618.46 799.352 619.164 797.432 619.164 795C619.164 793.208 618.631 791.779 617.564 790.712C616.54 789.645 615.175 789.112 613.468 789.112C610.695 789.112 608.263 790.093 606.172 792.056L603.484 789.368C606.087 786.637 609.394 785.272 613.404 785.272C616.604 785.272 619.122 786.189 620.956 788.024C622.834 789.816 623.772 792.205 623.772 795.192C623.772 797.368 623.239 799.267 622.172 800.888C621.106 802.509 619.548 803.64 617.5 804.28ZM605.916 817.848C605.916 817.976 605.852 818.04 605.724 818.04C605.596 817.997 605.468 817.933 605.34 817.848L605.596 817.528L605.916 817.848ZM605.212 817.976C605.042 817.677 604.999 817.571 605.084 817.656C605.212 817.741 605.298 817.805 605.34 817.848L605.212 817.976ZM646.94 799.672C648.946 799.672 650.78 800.227 652.444 801.336C654.108 802.403 655.431 803.939 656.412 805.944C657.394 807.907 657.884 810.168 657.884 812.728C657.884 815.331 657.372 817.635 656.348 819.64C655.367 821.645 654.002 823.224 652.252 824.376C650.503 825.485 648.583 826.04 646.492 826.04C642.567 826.04 639.516 824.376 637.34 821.048C635.164 817.677 634.076 813.069 634.076 807.224C634.076 802.531 634.652 798.52 635.804 795.192C636.956 791.864 638.578 789.347 640.668 787.64C642.802 785.933 645.298 785.08 648.156 785.08C651.484 785.08 654.407 786.296 656.924 788.728L654.108 791.928L654.044 791.992C653.148 790.883 652.274 790.115 651.42 789.688C650.61 789.261 649.564 789.048 648.284 789.048C646.876 789.048 645.447 789.496 643.996 790.392C642.546 791.245 641.266 792.824 640.156 795.128C639.09 797.389 638.535 800.504 638.492 804.472C639.388 802.979 640.583 801.805 642.076 800.952C643.612 800.099 645.234 799.672 646.94 799.672ZM653.34 792.12C653.34 791.864 653.532 791.885 653.916 792.184L653.66 792.44L653.34 792.12ZM654.044 791.992C654.3 792.333 654.343 792.461 654.172 792.376C654.044 792.248 653.959 792.184 653.916 792.184L654.044 791.992ZM646.684 822.072C648.604 822.072 650.226 821.261 651.548 819.64C652.871 817.976 653.532 815.693 653.532 812.792C653.532 810.787 653.191 809.101 652.508 807.736C651.826 806.328 650.951 805.283 649.884 804.6C648.818 803.917 647.708 803.576 646.556 803.576C645.063 803.576 643.612 804.088 642.204 805.112C640.796 806.093 639.644 807.373 638.748 808.952C638.663 809.635 638.62 810.189 638.62 810.616C638.62 812.493 638.94 814.307 639.58 816.056C640.263 817.805 641.223 819.256 642.46 820.408C643.698 821.517 645.106 822.072 646.684 822.072ZM682.14 825.4V815.608H664.86V812.344L683.1 785.464H686.876V811.896H691.996V815.672H686.876V825.4H682.14ZM670.044 811.832H682.14V793.528L670.044 811.832ZM702.748 801.528C701.468 801.528 700.274 801.165 699.164 800.44C698.055 799.715 697.18 798.712 696.54 797.432C695.9 796.152 695.58 794.723 695.58 793.144C695.58 791.608 695.9 790.221 696.54 788.984C697.18 787.704 698.055 786.701 699.164 785.976C700.274 785.208 701.468 784.824 702.748 784.824C704.028 784.824 705.223 785.208 706.332 785.976C707.442 786.701 708.316 787.704 708.956 788.984C709.596 790.264 709.916 791.672 709.916 793.208C709.916 795.64 709.234 797.645 707.868 799.224C706.503 800.76 704.796 801.528 702.748 801.528ZM696.732 825.4L718.812 785.528H722.46L700.188 825.4H696.732ZM702.748 798.136C703.644 798.136 704.391 797.731 704.988 796.92C705.586 796.109 705.884 794.851 705.884 793.144C705.884 791.437 705.564 790.179 704.924 789.368C704.284 788.557 703.516 788.152 702.62 788.152C701.767 788.152 701.02 788.557 700.38 789.368C699.783 790.179 699.484 791.437 699.484 793.144C699.484 794.808 699.804 796.067 700.444 796.92C701.084 797.731 701.852 798.136 702.748 798.136ZM717.532 826.04C716.252 826.04 715.058 825.677 713.948 824.952C712.839 824.227 711.964 823.245 711.324 822.008C710.684 820.728 710.364 819.32 710.364 817.784C710.364 816.248 710.684 814.861 711.324 813.624C711.964 812.344 712.839 811.341 713.948 810.616C715.058 809.848 716.252 809.464 717.532 809.464C719.495 809.464 721.159 810.275 722.524 811.896C723.932 813.517 724.636 815.48 724.636 817.784C724.636 819.32 724.316 820.728 723.676 822.008C723.036 823.245 722.162 824.227 721.052 824.952C719.986 825.677 718.812 826.04 717.532 826.04ZM717.596 822.84C718.535 822.84 719.303 822.413 719.9 821.56C720.54 820.707 720.86 819.469 720.86 817.848C720.86 816.355 720.54 815.139 719.9 814.2C719.303 813.219 718.492 812.728 717.468 812.728C716.53 812.728 715.74 813.155 715.1 814.008C714.46 814.819 714.14 816.056 714.14 817.72C714.14 819.427 714.482 820.707 715.164 821.56C715.847 822.413 716.658 822.84 717.596 822.84Z" fill="#39457A"/>
        <path d="M463.313 937.789V936.145H470.063V937.789H463.313ZM475.662 931.311C476.477 931.311 477.174 931.543 477.754 932.006C478.334 932.469 478.776 933.142 479.081 934.027C479.392 934.906 479.547 935.961 479.547 937.191C479.547 938.422 479.392 939.479 479.081 940.364C478.776 941.243 478.334 941.917 477.754 942.385C477.174 942.848 476.477 943.08 475.662 943.08C474.848 943.08 474.15 942.848 473.57 942.385C472.99 941.917 472.545 941.243 472.234 940.364C471.93 939.479 471.777 938.422 471.777 937.191C471.777 935.961 471.93 934.906 472.234 934.027C472.545 933.142 472.99 932.469 473.57 932.006C474.15 931.543 474.848 931.311 475.662 931.311ZM475.662 932.928C475.252 932.928 474.9 933.098 474.607 933.438C474.314 933.772 474.089 934.259 473.931 934.897C473.778 935.536 473.702 936.301 473.702 937.191C473.702 937.648 473.726 938.096 473.772 938.536L477.244 934.414C477.08 933.933 476.863 933.567 476.594 933.315C476.324 933.057 476.014 932.928 475.662 932.928ZM475.662 941.463C476.072 941.463 476.424 941.293 476.717 940.953C477.01 940.613 477.232 940.124 477.385 939.485C477.543 938.846 477.622 938.082 477.622 937.191C477.622 936.664 477.596 936.186 477.543 935.759L474.054 939.907C474.218 940.411 474.435 940.798 474.704 941.067C474.979 941.331 475.299 941.463 475.662 941.463ZM484.486 942.974C484.264 942.974 484.056 942.919 483.862 942.807C483.675 942.702 483.525 942.555 483.414 942.368C483.309 942.175 483.256 941.967 483.256 941.744C483.256 941.527 483.309 941.328 483.414 941.146C483.525 940.959 483.675 940.812 483.862 940.707C484.056 940.595 484.264 940.54 484.486 940.54C484.703 940.54 484.902 940.595 485.084 940.707C485.271 940.812 485.418 940.959 485.523 941.146C485.635 941.328 485.69 941.527 485.69 941.744C485.69 941.967 485.635 942.175 485.523 942.368C485.418 942.555 485.271 942.702 485.084 942.807C484.902 942.919 484.703 942.974 484.486 942.974ZM492.924 942.737V933.807L490.999 934.387L490.516 933.157L493.557 931.522H494.901V942.737H492.924ZM503.058 942.737V939.969H498.777V938.703L503.638 931.522H505.088V938.29H506.582V939.986H505.088V942.737H503.058ZM500.86 938.343H503.128V934.994L500.86 938.343ZM509.632 936.242C509.233 936.242 508.861 936.136 508.516 935.926C508.176 935.709 507.903 935.413 507.698 935.038C507.499 934.657 507.399 934.235 507.399 933.772C507.399 933.327 507.499 932.917 507.698 932.542C507.903 932.167 508.176 931.871 508.516 931.654C508.861 931.437 509.233 931.329 509.632 931.329C510.036 931.329 510.408 931.44 510.748 931.663C511.088 931.88 511.357 932.176 511.557 932.551C511.762 932.926 511.864 933.339 511.864 933.79C511.864 934.264 511.768 934.689 511.574 935.064C511.381 935.433 511.114 935.723 510.774 935.934C510.435 936.139 510.054 936.242 509.632 936.242ZM507.918 942.737L514.29 931.522H515.582L509.157 942.737H507.918ZM509.588 935.108C509.881 935.108 510.101 934.988 510.247 934.748C510.399 934.502 510.476 934.182 510.476 933.79C510.476 933.403 510.399 933.087 510.247 932.841C510.101 932.589 509.881 932.463 509.588 932.463C509.301 932.463 509.081 932.589 508.929 932.841C508.782 933.087 508.709 933.403 508.709 933.79C508.709 934.182 508.782 934.502 508.929 934.748C509.081 934.988 509.301 935.108 509.588 935.108ZM513.736 942.913C513.332 942.913 512.96 942.807 512.62 942.596C512.28 942.38 512.008 942.084 511.803 941.709C511.604 941.334 511.504 940.915 511.504 940.452C511.504 940.007 511.604 939.596 511.803 939.221C512.008 938.841 512.28 938.542 512.62 938.325C512.966 938.108 513.338 938 513.736 938C514.135 938 514.504 938.111 514.844 938.334C515.189 938.551 515.462 938.849 515.661 939.23C515.86 939.605 515.96 940.018 515.96 940.469C515.96 940.944 515.863 941.366 515.67 941.735C515.477 942.104 515.21 942.394 514.87 942.605C514.536 942.81 514.158 942.913 513.736 942.913ZM513.692 941.779C513.985 941.779 514.205 941.659 514.352 941.419C514.504 941.178 514.58 940.862 514.58 940.469C514.58 940.083 514.504 939.763 514.352 939.511C514.205 939.26 513.985 939.134 513.692 939.134C513.405 939.134 513.186 939.26 513.033 939.511C512.887 939.763 512.813 940.083 512.813 940.469C512.813 940.862 512.887 941.178 513.033 941.419C513.18 941.659 513.399 941.779 513.692 941.779Z" fill="#39457A"/>
        <path d="M469.23 676.098V672.943H466.242V671.414H469.23V668.522H470.979V671.414H473.853V672.943H470.979V676.098H469.23ZM479.003 666.615C479.818 666.615 480.515 666.846 481.095 667.309C481.675 667.772 482.118 668.446 482.422 669.331C482.733 670.21 482.888 671.264 482.888 672.495C482.888 673.725 482.733 674.783 482.422 675.668C482.118 676.547 481.675 677.22 481.095 677.689C480.515 678.152 479.818 678.384 479.003 678.384C478.189 678.384 477.492 678.152 476.912 677.689C476.332 677.22 475.886 676.547 475.576 675.668C475.271 674.783 475.119 673.725 475.119 672.495C475.119 671.264 475.271 670.21 475.576 669.331C475.886 668.446 476.332 667.772 476.912 667.309C477.492 666.846 478.189 666.615 479.003 666.615ZM479.003 668.232C478.593 668.232 478.242 668.402 477.949 668.742C477.656 669.076 477.43 669.562 477.272 670.201C477.12 670.84 477.043 671.604 477.043 672.495C477.043 672.952 477.067 673.4 477.114 673.84L480.585 669.718C480.421 669.237 480.205 668.871 479.935 668.619C479.666 668.361 479.355 668.232 479.003 668.232ZM479.003 676.766C479.414 676.766 479.765 676.596 480.058 676.257C480.351 675.917 480.574 675.427 480.726 674.789C480.884 674.15 480.963 673.385 480.963 672.495C480.963 671.968 480.937 671.49 480.884 671.062L477.395 675.211C477.559 675.715 477.776 676.101 478.045 676.371C478.321 676.635 478.64 676.766 479.003 676.766ZM487.828 678.278C487.605 678.278 487.397 678.222 487.204 678.111C487.016 678.006 486.867 677.859 486.755 677.672C486.65 677.478 486.597 677.27 486.597 677.048C486.597 676.831 486.65 676.632 486.755 676.45C486.867 676.262 487.016 676.116 487.204 676.01C487.397 675.899 487.605 675.844 487.828 675.844C488.044 675.844 488.244 675.899 488.425 676.01C488.613 676.116 488.759 676.262 488.865 676.45C488.976 676.632 489.032 676.831 489.032 677.048C489.032 677.27 488.976 677.478 488.865 677.672C488.759 677.859 488.613 678.006 488.425 678.111C488.244 678.222 488.044 678.278 487.828 678.278ZM497.399 678.041V675.272H493.119V674.007L497.979 666.826H499.429V673.594H500.923V675.29H499.429V678.041H497.399ZM495.202 673.646H497.469V670.298L495.202 673.646ZM505.265 678.041V669.111L503.34 669.691L502.857 668.461L505.898 666.826H507.243V678.041H505.265ZM512.973 671.546C512.575 671.546 512.203 671.44 511.857 671.229C511.517 671.012 511.245 670.717 511.04 670.342C510.84 669.961 510.741 669.539 510.741 669.076C510.741 668.631 510.84 668.22 511.04 667.845C511.245 667.47 511.517 667.175 511.857 666.958C512.203 666.741 512.575 666.633 512.973 666.633C513.377 666.633 513.75 666.744 514.089 666.967C514.429 667.183 514.699 667.479 514.898 667.854C515.103 668.229 515.206 668.642 515.206 669.094C515.206 669.568 515.109 669.993 514.916 670.368C514.722 670.737 514.456 671.027 514.116 671.238C513.776 671.443 513.395 671.546 512.973 671.546ZM511.259 678.041L517.631 666.826H518.923L512.499 678.041H511.259ZM512.929 670.412C513.222 670.412 513.442 670.292 513.588 670.052C513.741 669.805 513.817 669.486 513.817 669.094C513.817 668.707 513.741 668.39 513.588 668.144C513.442 667.892 513.222 667.766 512.929 667.766C512.642 667.766 512.422 667.892 512.27 668.144C512.124 668.39 512.05 668.707 512.05 669.094C512.05 669.486 512.124 669.805 512.27 670.052C512.422 670.292 512.642 670.412 512.929 670.412ZM517.078 678.217C516.673 678.217 516.301 678.111 515.961 677.9C515.622 677.683 515.349 677.387 515.144 677.012C514.945 676.637 514.845 676.219 514.845 675.756C514.845 675.31 514.945 674.9 515.144 674.525C515.349 674.144 515.622 673.845 515.961 673.629C516.307 673.412 516.679 673.303 517.078 673.303C517.476 673.303 517.845 673.415 518.185 673.637C518.531 673.854 518.803 674.153 519.002 674.534C519.202 674.909 519.301 675.322 519.301 675.773C519.301 676.248 519.205 676.67 519.011 677.039C518.818 677.408 518.551 677.698 518.211 677.909C517.877 678.114 517.5 678.217 517.078 678.217ZM517.034 677.083C517.327 677.083 517.546 676.963 517.693 676.722C517.845 676.482 517.921 676.166 517.921 675.773C517.921 675.386 517.845 675.067 517.693 674.815C517.546 674.563 517.327 674.437 517.034 674.437C516.747 674.437 516.527 674.563 516.375 674.815C516.228 675.067 516.155 675.386 516.155 675.773C516.155 676.166 516.228 676.482 516.375 676.722C516.521 676.963 516.741 677.083 517.034 677.083Z" fill="#39457A"/>
        <path d="M572.813 602.058V598.902H569.825V597.373H572.813V594.481H574.562V597.373H577.436V598.902H574.562V602.058H572.813ZM582.586 592.574C583.401 592.574 584.098 592.806 584.678 593.269C585.258 593.731 585.701 594.405 586.005 595.29C586.316 596.169 586.471 597.224 586.471 598.454C586.471 599.685 586.316 600.742 586.005 601.627C585.701 602.506 585.258 603.18 584.678 603.648C584.098 604.111 583.401 604.343 582.586 604.343C581.772 604.343 581.075 604.111 580.495 603.648C579.915 603.18 579.469 602.506 579.159 601.627C578.854 600.742 578.702 599.685 578.702 598.454C578.702 597.224 578.854 596.169 579.159 595.29C579.469 594.405 579.915 593.731 580.495 593.269C581.075 592.806 581.772 592.574 582.586 592.574ZM582.586 594.191C582.176 594.191 581.825 594.361 581.532 594.701C581.239 595.035 581.013 595.521 580.855 596.16C580.703 596.799 580.626 597.563 580.626 598.454C580.626 598.911 580.65 599.359 580.697 599.799L584.168 595.677C584.004 595.196 583.788 594.83 583.518 594.578C583.249 594.32 582.938 594.191 582.586 594.191ZM582.586 602.726C582.997 602.726 583.348 602.556 583.641 602.216C583.934 601.876 584.157 601.387 584.309 600.748C584.467 600.109 584.546 599.345 584.546 598.454C584.546 597.927 584.52 597.449 584.467 597.021L580.978 601.17C581.142 601.674 581.359 602.061 581.628 602.33C581.904 602.594 582.223 602.726 582.586 602.726ZM591.411 604.237C591.188 604.237 590.98 604.182 590.787 604.07C590.599 603.965 590.45 603.818 590.338 603.631C590.233 603.438 590.18 603.229 590.18 603.007C590.18 602.79 590.233 602.591 590.338 602.409C590.45 602.222 590.599 602.075 590.787 601.97C590.98 601.858 591.188 601.803 591.411 601.803C591.627 601.803 591.827 601.858 592.008 601.97C592.196 602.075 592.342 602.222 592.448 602.409C592.559 602.591 592.615 602.79 592.615 603.007C592.615 603.229 592.559 603.438 592.448 603.631C592.342 603.818 592.196 603.965 592.008 604.07C591.827 604.182 591.627 604.237 591.411 604.237ZM600.876 596.529C601.498 596.529 602.066 596.693 602.582 597.021C603.097 597.35 603.504 597.807 603.803 598.393C604.108 598.973 604.26 599.629 604.26 600.361C604.26 601.1 604.102 601.773 603.786 602.383C603.475 602.986 603.05 603.464 602.511 603.815C601.978 604.167 601.389 604.343 600.745 604.343C599.977 604.343 599.309 604.108 598.741 603.64C598.178 603.171 597.748 602.521 597.449 601.688C597.15 600.856 597 599.904 597 598.832C597 597.549 597.173 596.436 597.519 595.492C597.871 594.543 598.363 593.816 598.996 593.312C599.628 592.803 600.358 592.548 601.184 592.548C601.688 592.548 602.18 592.662 602.661 592.891C603.141 593.113 603.589 593.438 604.005 593.866L602.74 595.211L602.731 595.22L602.617 595.07C602.458 594.877 602.324 594.73 602.212 594.631C602.107 594.525 601.972 594.44 601.808 594.376C601.644 594.312 601.436 594.279 601.184 594.279C600.868 594.279 600.56 594.382 600.261 594.587C599.962 594.792 599.699 595.126 599.47 595.589C599.248 596.046 599.098 596.641 599.022 597.373C599.262 597.133 599.552 596.934 599.892 596.775C600.232 596.611 600.56 596.529 600.876 596.529ZM602.485 595.176C602.485 595.158 602.494 595.149 602.511 595.149C602.541 595.149 602.602 595.185 602.696 595.255L602.634 595.325L602.485 595.185V595.176ZM602.731 595.22C602.784 595.278 602.81 595.316 602.81 595.334C602.81 595.334 602.772 595.308 602.696 595.255L602.731 595.22ZM600.789 602.488C601.064 602.488 601.313 602.406 601.536 602.242C601.758 602.072 601.934 601.829 602.063 601.513C602.192 601.19 602.256 600.807 602.256 600.361C602.256 599.916 602.183 599.538 602.037 599.228C601.89 598.917 601.703 598.688 601.474 598.542C601.246 598.39 601.008 598.313 600.762 598.313C600.44 598.313 600.124 598.413 599.813 598.612C599.508 598.806 599.256 599.066 599.057 599.395C599.057 600.027 599.13 600.578 599.277 601.047C599.429 601.51 599.634 601.867 599.892 602.119C600.156 602.365 600.455 602.488 600.789 602.488ZM609.876 596.477C610.585 596.477 611.204 596.632 611.731 596.942C612.258 597.253 612.666 597.701 612.953 598.287C613.24 598.873 613.383 599.57 613.383 600.379C613.383 601.158 613.231 601.847 612.926 602.444C612.622 603.042 612.188 603.508 611.625 603.842C611.063 604.176 610.407 604.343 609.657 604.343C608.004 604.343 606.8 603.634 606.044 602.216L607.539 601.073L607.556 601.064L607.565 601.082C607.723 601.387 607.884 601.645 608.048 601.855C608.212 602.061 608.42 602.23 608.672 602.365C608.924 602.494 609.229 602.559 609.586 602.559C609.932 602.559 610.24 602.477 610.509 602.312C610.779 602.143 610.993 601.894 611.151 601.565C611.309 601.237 611.388 600.836 611.388 600.361C611.388 599.664 611.23 599.122 610.914 598.735C610.597 598.343 610.178 598.146 609.657 598.146C609.299 598.146 608.983 598.234 608.708 598.41C608.432 598.58 608.16 598.853 607.89 599.228L606.598 598.674L607.011 592.785H613.041V594.499H608.778L608.628 596.67C609.068 596.541 609.484 596.477 609.876 596.477ZM607.556 601.064C607.527 601.012 607.512 600.977 607.512 600.959C607.512 600.941 607.539 600.965 607.591 601.029L607.556 601.064ZM607.793 601.144C607.793 601.167 607.785 601.179 607.767 601.179C607.75 601.179 607.717 601.158 607.67 601.117C607.629 601.07 607.603 601.041 607.591 601.029L607.67 600.977L607.793 601.144ZM616.556 597.505C616.158 597.505 615.786 597.399 615.44 597.188C615.1 596.972 614.828 596.676 614.623 596.301C614.423 595.92 614.324 595.498 614.324 595.035C614.324 594.59 614.423 594.18 614.623 593.805C614.828 593.43 615.1 593.134 615.44 592.917C615.786 592.7 616.158 592.592 616.556 592.592C616.96 592.592 617.333 592.703 617.672 592.926C618.012 593.143 618.282 593.438 618.481 593.813C618.686 594.188 618.789 594.602 618.789 595.053C618.789 595.527 618.692 595.952 618.499 596.327C618.305 596.696 618.039 596.986 617.699 597.197C617.359 597.402 616.978 597.505 616.556 597.505ZM614.842 604L621.214 592.785H622.506L616.082 604H614.842ZM616.512 596.371C616.805 596.371 617.025 596.251 617.171 596.011C617.324 595.765 617.4 595.445 617.4 595.053C617.4 594.666 617.324 594.35 617.171 594.104C617.025 593.852 616.805 593.726 616.512 593.726C616.225 593.726 616.005 593.852 615.853 594.104C615.707 594.35 615.633 594.666 615.633 595.053C615.633 595.445 615.707 595.765 615.853 596.011C616.005 596.251 616.225 596.371 616.512 596.371ZM620.661 604.176C620.256 604.176 619.884 604.07 619.544 603.859C619.205 603.643 618.932 603.347 618.727 602.972C618.528 602.597 618.428 602.178 618.428 601.715C618.428 601.27 618.528 600.859 618.727 600.484C618.932 600.104 619.205 599.805 619.544 599.588C619.89 599.371 620.262 599.263 620.661 599.263C621.059 599.263 621.428 599.374 621.768 599.597C622.114 599.813 622.386 600.112 622.585 600.493C622.785 600.868 622.884 601.281 622.884 601.732C622.884 602.207 622.788 602.629 622.594 602.998C622.401 603.367 622.134 603.657 621.794 603.868C621.46 604.073 621.083 604.176 620.661 604.176ZM620.617 603.042C620.91 603.042 621.129 602.922 621.276 602.682C621.428 602.441 621.504 602.125 621.504 601.732C621.504 601.346 621.428 601.026 621.276 600.774C621.129 600.522 620.91 600.396 620.617 600.396C620.33 600.396 620.11 600.522 619.958 600.774C619.811 601.026 619.738 601.346 619.738 601.732C619.738 602.125 619.811 602.441 619.958 602.682C620.104 602.922 620.324 603.042 620.617 603.042Z" fill="#39457A"/>
        <path d="M465.889 1303.59V1300.44H462.9V1298.91H465.889V1296.02H467.638V1298.91H470.512V1300.44H467.638V1303.59H465.889ZM475.662 1294.11C476.477 1294.11 477.174 1294.34 477.754 1294.8C478.334 1295.27 478.776 1295.94 479.081 1296.83C479.392 1297.71 479.547 1298.76 479.547 1299.99C479.547 1301.22 479.392 1302.28 479.081 1303.16C478.776 1304.04 478.334 1304.72 477.754 1305.18C477.174 1305.65 476.477 1305.88 475.662 1305.88C474.848 1305.88 474.15 1305.65 473.57 1305.18C472.99 1304.72 472.545 1304.04 472.234 1303.16C471.93 1302.28 471.777 1301.22 471.777 1299.99C471.777 1298.76 471.93 1297.71 472.234 1296.83C472.545 1295.94 472.99 1295.27 473.57 1294.8C474.15 1294.34 474.848 1294.11 475.662 1294.11ZM475.662 1295.73C475.252 1295.73 474.9 1295.9 474.607 1296.24C474.314 1296.57 474.089 1297.06 473.931 1297.7C473.778 1298.34 473.702 1299.1 473.702 1299.99C473.702 1300.45 473.726 1300.9 473.772 1301.34L477.244 1297.21C477.08 1296.73 476.863 1296.37 476.594 1296.11C476.324 1295.86 476.014 1295.73 475.662 1295.73ZM475.662 1304.26C476.072 1304.26 476.424 1304.09 476.717 1303.75C477.01 1303.41 477.232 1302.92 477.385 1302.28C477.543 1301.65 477.622 1300.88 477.622 1299.99C477.622 1299.46 477.596 1298.99 477.543 1298.56L474.054 1302.71C474.218 1303.21 474.435 1303.6 474.704 1303.87C474.979 1304.13 475.299 1304.26 475.662 1304.26ZM484.486 1305.77C484.264 1305.77 484.056 1305.72 483.862 1305.61C483.675 1305.5 483.525 1305.35 483.414 1305.17C483.309 1304.97 483.256 1304.77 483.256 1304.54C483.256 1304.33 483.309 1304.13 483.414 1303.95C483.525 1303.76 483.675 1303.61 483.862 1303.51C484.056 1303.39 484.264 1303.34 484.486 1303.34C484.703 1303.34 484.902 1303.39 485.084 1303.51C485.271 1303.61 485.418 1303.76 485.523 1303.95C485.635 1304.13 485.69 1304.33 485.69 1304.54C485.69 1304.77 485.635 1304.97 485.523 1305.17C485.418 1305.35 485.271 1305.5 485.084 1305.61C484.902 1305.72 484.703 1305.77 484.486 1305.77ZM493.952 1298.07C494.573 1298.07 495.142 1298.23 495.657 1298.56C496.173 1298.89 496.58 1299.34 496.879 1299.93C497.184 1300.51 497.336 1301.17 497.336 1301.9C497.336 1302.64 497.178 1303.31 496.861 1303.92C496.551 1304.52 496.126 1305 495.587 1305.35C495.054 1305.7 494.465 1305.88 493.82 1305.88C493.053 1305.88 492.385 1305.64 491.816 1305.18C491.254 1304.71 490.823 1304.06 490.524 1303.22C490.226 1302.39 490.076 1301.44 490.076 1300.37C490.076 1299.09 490.249 1297.97 490.595 1297.03C490.946 1296.08 491.438 1295.35 492.071 1294.85C492.704 1294.34 493.434 1294.08 494.26 1294.08C494.764 1294.08 495.256 1294.2 495.736 1294.43C496.217 1294.65 496.665 1294.97 497.081 1295.4L495.815 1296.75L495.807 1296.76L495.692 1296.61C495.534 1296.41 495.399 1296.27 495.288 1296.17C495.183 1296.06 495.048 1295.98 494.884 1295.91C494.72 1295.85 494.512 1295.82 494.26 1295.82C493.943 1295.82 493.636 1295.92 493.337 1296.12C493.038 1296.33 492.774 1296.66 492.546 1297.13C492.323 1297.58 492.174 1298.18 492.098 1298.91C492.338 1298.67 492.628 1298.47 492.968 1298.31C493.308 1298.15 493.636 1298.07 493.952 1298.07ZM495.561 1296.71C495.561 1296.69 495.569 1296.69 495.587 1296.69C495.616 1296.69 495.678 1296.72 495.771 1296.79L495.71 1296.86L495.561 1296.72V1296.71ZM495.807 1296.76C495.859 1296.81 495.886 1296.85 495.886 1296.87C495.886 1296.87 495.848 1296.84 495.771 1296.79L495.807 1296.76ZM493.864 1304.02C494.14 1304.02 494.389 1303.94 494.611 1303.78C494.834 1303.61 495.01 1303.37 495.139 1303.05C495.268 1302.73 495.332 1302.34 495.332 1301.9C495.332 1301.45 495.259 1301.07 495.112 1300.76C494.966 1300.45 494.778 1300.22 494.55 1300.08C494.321 1299.93 494.084 1299.85 493.838 1299.85C493.516 1299.85 493.199 1299.95 492.889 1300.15C492.584 1300.34 492.332 1300.6 492.133 1300.93C492.133 1301.56 492.206 1302.11 492.353 1302.58C492.505 1303.05 492.71 1303.4 492.968 1303.66C493.231 1303.9 493.53 1304.02 493.864 1304.02ZM502.952 1298.01C503.661 1298.01 504.279 1298.17 504.807 1298.48C505.334 1298.79 505.741 1299.24 506.028 1299.82C506.315 1300.41 506.459 1301.11 506.459 1301.92C506.459 1302.69 506.307 1303.38 506.002 1303.98C505.697 1304.58 505.264 1305.04 504.701 1305.38C504.139 1305.71 503.482 1305.88 502.732 1305.88C501.08 1305.88 499.876 1305.17 499.12 1303.75L500.614 1302.61L500.632 1302.6L500.641 1302.62C500.799 1302.92 500.96 1303.18 501.124 1303.39C501.288 1303.6 501.496 1303.77 501.748 1303.9C502 1304.03 502.305 1304.09 502.662 1304.09C503.008 1304.09 503.315 1304.01 503.585 1303.85C503.854 1303.68 504.068 1303.43 504.227 1303.1C504.385 1302.77 504.464 1302.37 504.464 1301.9C504.464 1301.2 504.306 1300.66 503.989 1300.27C503.673 1299.88 503.254 1299.68 502.732 1299.68C502.375 1299.68 502.059 1299.77 501.783 1299.95C501.508 1300.12 501.235 1300.39 500.966 1300.76L499.674 1300.21L500.087 1294.32H506.116V1296.04H501.854L501.704 1298.21C502.144 1298.08 502.56 1298.01 502.952 1298.01ZM500.632 1302.6C500.603 1302.55 500.588 1302.51 500.588 1302.5C500.588 1302.48 500.614 1302.5 500.667 1302.57L500.632 1302.6ZM500.869 1302.68C500.869 1302.7 500.86 1302.72 500.843 1302.72C500.825 1302.72 500.793 1302.69 500.746 1302.65C500.705 1302.61 500.679 1302.58 500.667 1302.57L500.746 1302.51L500.869 1302.68ZM509.632 1299.04C509.233 1299.04 508.861 1298.94 508.516 1298.72C508.176 1298.51 507.903 1298.21 507.698 1297.84C507.499 1297.46 507.399 1297.03 507.399 1296.57C507.399 1296.13 507.499 1295.72 507.698 1295.34C507.903 1294.97 508.176 1294.67 508.516 1294.45C508.861 1294.24 509.233 1294.13 509.632 1294.13C510.036 1294.13 510.408 1294.24 510.748 1294.46C511.088 1294.68 511.357 1294.97 511.557 1295.35C511.762 1295.72 511.864 1296.14 511.864 1296.59C511.864 1297.06 511.768 1297.49 511.574 1297.86C511.381 1298.23 511.114 1298.52 510.774 1298.73C510.435 1298.94 510.054 1299.04 509.632 1299.04ZM507.918 1305.54L514.29 1294.32H515.582L509.157 1305.54H507.918ZM509.588 1297.91C509.881 1297.91 510.101 1297.79 510.247 1297.55C510.399 1297.3 510.476 1296.98 510.476 1296.59C510.476 1296.2 510.399 1295.89 510.247 1295.64C510.101 1295.39 509.881 1295.26 509.588 1295.26C509.301 1295.26 509.081 1295.39 508.929 1295.64C508.782 1295.89 508.709 1296.2 508.709 1296.59C508.709 1296.98 508.782 1297.3 508.929 1297.55C509.081 1297.79 509.301 1297.91 509.588 1297.91ZM513.736 1305.71C513.332 1305.71 512.96 1305.61 512.62 1305.4C512.28 1305.18 512.008 1304.88 511.803 1304.51C511.604 1304.13 511.504 1303.71 511.504 1303.25C511.504 1302.81 511.604 1302.4 511.803 1302.02C512.008 1301.64 512.28 1301.34 512.62 1301.12C512.966 1300.91 513.338 1300.8 513.736 1300.8C514.135 1300.8 514.504 1300.91 514.844 1301.13C515.189 1301.35 515.462 1301.65 515.661 1302.03C515.86 1302.4 515.96 1302.82 515.96 1303.27C515.96 1303.74 515.863 1304.17 515.67 1304.53C515.477 1304.9 515.21 1305.19 514.87 1305.4C514.536 1305.61 514.158 1305.71 513.736 1305.71ZM513.692 1304.58C513.985 1304.58 514.205 1304.46 514.352 1304.22C514.504 1303.98 514.58 1303.66 514.58 1303.27C514.58 1302.88 514.504 1302.56 514.352 1302.31C514.205 1302.06 513.985 1301.93 513.692 1301.93C513.405 1301.93 513.186 1302.06 513.033 1302.31C512.887 1302.56 512.813 1302.88 512.813 1303.27C512.813 1303.66 512.887 1303.98 513.033 1304.22C513.18 1304.46 513.399 1304.58 513.692 1304.58Z" fill="#39457A"/>
        <g filter="url(#filter0_f)">
            <path d="M550.819 1415.99L556.003 1410.75C559.459 1407.29 562.04 1404.58 563.747 1402.62C565.496 1400.65 566.883 1398.71 567.907 1396.79C568.931 1394.83 569.443 1392.8 569.443 1390.71C569.443 1388.11 568.824 1386.23 567.587 1385.08C566.349 1383.93 564.707 1383.35 562.659 1383.35C560.824 1383.35 559.117 1383.76 557.539 1384.57C556.003 1385.38 554.979 1386.28 554.467 1387.26C554.211 1387.73 553.955 1388.22 553.699 1388.73C553.443 1389.2 553.315 1389.48 553.315 1389.56C553.315 1389.6 553.336 1389.63 553.379 1389.63C553.421 1389.63 553.507 1389.6 553.635 1389.56C553.763 1389.48 553.848 1389.52 553.891 1389.69L553.699 1390.07L553.123 1389.75L549.859 1387.19C551.139 1384.72 552.888 1382.82 555.107 1381.5C557.325 1380.13 559.821 1379.45 562.595 1379.45C566.008 1379.45 568.76 1380.47 570.851 1382.52C572.984 1384.57 574.051 1387.34 574.051 1390.84C574.051 1393.15 573.496 1395.39 572.387 1397.56C571.277 1399.74 569.848 1401.81 568.099 1403.77C566.392 1405.73 564.003 1408.23 560.931 1411.26L556.579 1415.67H571.427C572.109 1415.67 572.6 1415.63 572.899 1415.55C573.24 1415.46 573.539 1415.29 573.795 1415.03H574.243V1419.58H550.819V1415.99ZM597.859 1398.46C600.205 1399.23 602.061 1400.46 603.427 1402.17C604.792 1403.88 605.475 1406.03 605.475 1408.63C605.475 1410.77 605.005 1412.73 604.067 1414.52C603.128 1416.27 601.763 1417.68 599.971 1418.75C598.179 1419.77 596.024 1420.28 593.507 1420.28C591.373 1420.28 589.347 1419.9 587.427 1419.13C585.549 1418.36 583.928 1417.23 582.563 1415.74L585.507 1412.22L585.571 1412.15L585.635 1412.22C586.701 1413.58 587.789 1414.63 588.899 1415.35C590.051 1416.08 591.523 1416.44 593.315 1416.44C595.789 1416.44 597.667 1415.72 598.947 1414.27C600.227 1412.81 600.867 1410.87 600.867 1408.44C600.867 1405.8 600.056 1403.81 598.435 1402.49C596.856 1401.17 594.616 1400.51 591.715 1400.51C591.288 1400.51 590.605 1400.55 589.667 1400.63V1397.05C593.464 1397.05 596.045 1396.35 597.411 1394.94C598.819 1393.53 599.523 1391.61 599.523 1389.18C599.523 1387.39 598.989 1385.96 597.923 1384.89C596.899 1383.82 595.533 1383.29 593.827 1383.29C591.053 1383.29 588.621 1384.27 586.531 1386.23L583.843 1383.55C586.445 1380.81 589.752 1379.45 593.763 1379.45C596.963 1379.45 599.48 1380.37 601.315 1382.2C603.192 1383.99 604.131 1386.38 604.131 1389.37C604.131 1391.55 603.597 1393.44 602.531 1395.07C601.464 1396.69 599.907 1397.82 597.859 1398.46ZM586.275 1412.03C586.275 1412.15 586.211 1412.22 586.083 1412.22C585.955 1412.17 585.827 1412.11 585.699 1412.03L585.955 1411.71L586.275 1412.03ZM585.571 1412.15C585.4 1411.85 585.357 1411.75 585.443 1411.83C585.571 1411.92 585.656 1411.98 585.699 1412.03L585.571 1412.15ZM630.499 1419.58V1409.79H613.219V1406.52L631.459 1379.64H635.235V1406.07H640.355V1409.85H635.235V1419.58H630.499ZM618.403 1406.01H630.499V1387.71L618.403 1406.01Z" fill="#39457A"/>
        </g>
    </g>
    <g filter="url(#filter1_f)">
        <path d="M-59 277.289L-19.8602 217.945L32.9691 247.617H93.2274L128.833 183.865L171.393 217.945L185.632 170.54" stroke="#8EE7C5" stroke-width="2.29319" stroke-linecap="round"/>
        <path d="M339.082 170.54L357.228 218.307L406.054 248.378L464.908 218.307H522.395L541.459 171.356" stroke="#F86F6F" stroke-width="2.29319" stroke-linecap="round"/>
        <path d="M-59 277.289L-19.8602 217.945L32.9691 247.617H93.2274L128.833 183.865L171.393 217.945L185.632 170.54" stroke="#F86F6F" stroke-width="2.29319" stroke-linecap="round"/>
        <path fill-rule="evenodd" clip-rule="evenodd" d="M-59 277.289L-19.8602 217.945L32.9691 247.617H93.2274L128.833 183.865L171.393 217.945L185.632 170.54H-59V277.289Z" fill="#F86F6F" fill-opacity="0.15"/>
        <path fill-rule="evenodd" clip-rule="evenodd" d="M339.082 170.54L357.228 218.307L406.054 248.378L464.908 218.307H522.395L541.459 171.356L339.082 170.54Z" fill="#F86F6F" fill-opacity="0.15"/>
        <path d="M185.633 170.231L222.941 46L264.867 110.539H316.043L339.084 170.54" stroke="#8DE7C5" stroke-width="2.29319" stroke-linecap="round"/>
        <path fill-rule="evenodd" clip-rule="evenodd" d="M185.633 170.231L222.941 46L264.867 110.539H316.043L339.084 170.54L185.633 170.231Z" fill="#8EE8C6" fill-opacity="0.15"/>
        <path d="M543.684 168.316L567.375 110.494L611.687 154.818L666 110.494" stroke="#8DE7C5" stroke-width="2.29319" stroke-linecap="round"/>
        <path fill-rule="evenodd" clip-rule="evenodd" d="M543.684 168.316L567.375 110.494L611.687 154.818L666 110.494V168.261L543.684 168.316Z" fill="#8EE8C6" fill-opacity="0.15"/>
        <path opacity="0.297385" d="M-59 170.54H666" stroke="#B9B9B9" stroke-width="1.5288"/>
    </g>
    <g opacity="0.5">
        <g filter="url(#filter2_f)">
            <path d="M-1 177.428C1.208 177.428 2.912 178.448 4.112 180.488C5.336 182.528 5.948 185.336 5.948 188.912C5.948 192.584 5.348 195.416 4.148 197.408C2.948 199.4 1.232 200.396 -1 200.396C-3.232 200.396 -4.948 199.4 -6.148 197.408C-7.348 195.416 -7.948 192.584 -7.948 188.912C-7.948 185.336 -7.348 182.528 -6.148 180.488C-4.924 178.448 -3.208 177.428 -1 177.428ZM-1 179.624C-2.368 179.624 -3.436 180.464 -4.204 182.144C-4.972 183.8 -5.356 186.056 -5.356 188.912C-5.356 190.472 -5.248 191.852 -5.032 193.052L2.6 183.188C2.24 182.036 1.748 181.16 1.124 180.56C0.524 179.936 -0.184 179.624 -1 179.624ZM-1 198.2C0.368 198.2 1.436 197.396 2.204 195.788C2.972 194.18 3.356 191.888 3.356 188.912C3.356 187.52 3.272 186.32 3.104 185.312L-4.528 195.032C-3.76 197.144 -2.584 198.2 -1 198.2ZM16.568 200.396C15.992 200.396 15.5 200.192 15.092 199.784C14.684 199.376 14.48 198.896 14.48 198.344C14.48 197.792 14.684 197.312 15.092 196.904C15.5 196.496 15.992 196.292 16.568 196.292C17.12 196.292 17.6 196.496 18.008 196.904C18.416 197.312 18.62 197.792 18.62 198.344C18.62 198.896 18.416 199.376 18.008 199.784C17.6 200.192 17.12 200.396 16.568 200.396ZM37.088 188.12C38.408 188.552 39.452 189.248 40.22 190.208C40.988 191.168 41.372 192.38 41.372 193.844C41.372 195.044 41.108 196.148 40.58 197.156C40.052 198.14 39.284 198.932 38.276 199.532C37.268 200.108 36.056 200.396 34.64 200.396C33.44 200.396 32.3 200.18 31.22 199.748C30.164 199.316 29.252 198.68 28.484 197.84L30.14 195.86L30.176 195.824L30.212 195.86C30.812 196.628 31.424 197.216 32.048 197.624C32.696 198.032 33.524 198.236 34.532 198.236C35.924 198.236 36.98 197.828 37.7 197.012C38.42 196.196 38.78 195.104 38.78 193.736C38.78 192.248 38.324 191.132 37.412 190.388C36.524 189.644 35.264 189.272 33.632 189.272C33.392 189.272 33.008 189.296 32.48 189.344V187.328C34.616 187.328 36.068 186.932 36.836 186.14C37.628 185.348 38.024 184.268 38.024 182.9C38.024 181.892 37.724 181.088 37.124 180.488C36.548 179.888 35.78 179.588 34.82 179.588C33.26 179.588 31.892 180.14 30.716 181.244L29.204 179.732C30.668 178.196 32.528 177.428 34.784 177.428C36.584 177.428 38 177.944 39.032 178.976C40.088 179.984 40.616 181.328 40.616 183.008C40.616 184.232 40.316 185.3 39.716 186.212C39.116 187.124 38.24 187.76 37.088 188.12ZM30.572 195.752C30.572 195.824 30.536 195.86 30.464 195.86C30.392 195.836 30.32 195.8 30.248 195.752L30.392 195.572L30.572 195.752ZM30.176 195.824C30.08 195.656 30.056 195.596 30.104 195.644C30.176 195.692 30.224 195.728 30.248 195.752L30.176 195.824ZM53.648 185.528C54.776 185.528 55.808 185.84 56.744 186.464C57.68 187.064 58.424 187.928 58.976 189.056C59.528 190.16 59.804 191.432 59.804 192.872C59.804 194.336 59.516 195.632 58.94 196.76C58.388 197.888 57.62 198.776 56.636 199.424C55.652 200.048 54.572 200.36 53.396 200.36C51.188 200.36 49.472 199.424 48.248 197.552C47.024 195.656 46.412 193.064 46.412 189.776C46.412 187.136 46.736 184.88 47.384 183.008C48.032 181.136 48.944 179.72 50.12 178.76C51.32 177.8 52.724 177.32 54.332 177.32C56.204 177.32 57.848 178.004 59.264 179.372L57.68 181.172L57.644 181.208C57.14 180.584 56.648 180.152 56.168 179.912C55.712 179.672 55.124 179.552 54.404 179.552C53.612 179.552 52.808 179.804 51.992 180.308C51.176 180.788 50.456 181.676 49.832 182.972C49.232 184.244 48.92 185.996 48.896 188.228C49.4 187.388 50.072 186.728 50.912 186.248C51.776 185.768 52.688 185.528 53.648 185.528ZM57.248 181.28C57.248 181.136 57.356 181.148 57.572 181.316L57.428 181.46L57.248 181.28ZM57.644 181.208C57.788 181.4 57.812 181.472 57.716 181.424C57.644 181.352 57.596 181.316 57.572 181.316L57.644 181.208ZM53.504 198.128C54.584 198.128 55.496 197.672 56.24 196.76C56.984 195.824 57.356 194.54 57.356 192.908C57.356 191.78 57.164 190.832 56.78 190.064C56.396 189.272 55.904 188.684 55.304 188.3C54.704 187.916 54.08 187.724 53.432 187.724C52.592 187.724 51.776 188.012 50.984 188.588C50.192 189.14 49.544 189.86 49.04 190.748C48.992 191.132 48.968 191.444 48.968 191.684C48.968 192.74 49.148 193.76 49.508 194.744C49.892 195.728 50.432 196.544 51.128 197.192C51.824 197.816 52.616 198.128 53.504 198.128ZM73.448 200V194.492H63.728V192.656L73.988 177.536H76.112V192.404H78.992V194.528H76.112V200H73.448ZM66.644 192.368H73.448V182.072L66.644 192.368ZM85.04 186.572C84.32 186.572 83.648 186.368 83.024 185.96C82.4 185.552 81.908 184.988 81.548 184.268C81.188 183.548 81.008 182.744 81.008 181.856C81.008 180.992 81.188 180.212 81.548 179.516C81.908 178.796 82.4 178.232 83.024 177.824C83.648 177.392 84.32 177.176 85.04 177.176C85.76 177.176 86.432 177.392 87.056 177.824C87.68 178.232 88.172 178.796 88.532 179.516C88.892 180.236 89.072 181.028 89.072 181.892C89.072 183.26 88.688 184.388 87.92 185.276C87.152 186.14 86.192 186.572 85.04 186.572ZM81.656 200L94.076 177.572H96.128L83.6 200H81.656ZM85.04 184.664C85.544 184.664 85.964 184.436 86.3 183.98C86.636 183.524 86.804 182.816 86.804 181.856C86.804 180.896 86.624 180.188 86.264 179.732C85.904 179.276 85.472 179.048 84.968 179.048C84.488 179.048 84.068 179.276 83.708 179.732C83.372 180.188 83.204 180.896 83.204 181.856C83.204 182.792 83.384 183.5 83.744 183.98C84.104 184.436 84.536 184.664 85.04 184.664ZM93.356 200.36C92.636 200.36 91.964 200.156 91.34 199.748C90.716 199.34 90.224 198.788 89.864 198.092C89.504 197.372 89.324 196.58 89.324 195.716C89.324 194.852 89.504 194.072 89.864 193.376C90.224 192.656 90.716 192.092 91.34 191.684C91.964 191.252 92.636 191.036 93.356 191.036C94.46 191.036 95.396 191.492 96.164 192.404C96.956 193.316 97.352 194.42 97.352 195.716C97.352 196.58 97.172 197.372 96.812 198.092C96.452 198.788 95.96 199.34 95.336 199.748C94.736 200.156 94.076 200.36 93.356 200.36ZM93.392 198.56C93.92 198.56 94.352 198.32 94.688 197.84C95.048 197.36 95.228 196.664 95.228 195.752C95.228 194.912 95.048 194.228 94.688 193.7C94.352 193.148 93.896 192.872 93.32 192.872C92.792 192.872 92.348 193.112 91.988 193.592C91.628 194.048 91.448 194.744 91.448 195.68C91.448 196.64 91.64 197.36 92.024 197.84C92.408 198.32 92.864 198.56 93.392 198.56Z" fill="#39457A"/>
        </g>
        <path d="M-1.5 588.952C-0.0279999 588.952 1.108 589.632 1.908 590.992C2.724 592.352 3.132 594.224 3.132 596.608C3.132 599.056 2.732 600.944 1.932 602.272C1.132 603.6 -0.0119996 604.264 -1.5 604.264C-2.988 604.264 -4.132 603.6 -4.932 602.272C-5.732 600.944 -6.132 599.056 -6.132 596.608C-6.132 594.224 -5.732 592.352 -4.932 590.992C-4.116 589.632 -2.972 588.952 -1.5 588.952ZM-1.5 590.416C-2.412 590.416 -3.124 590.976 -3.636 592.096C-4.148 593.2 -4.404 594.704 -4.404 596.608C-4.404 597.648 -4.332 598.568 -4.188 599.368L0.900001 592.792C0.66 592.024 0.332 591.44 -0.0839996 591.04C-0.484 590.624 -0.956 590.416 -1.5 590.416ZM-1.5 602.8C-0.588 602.8 0.124 602.264 0.636 601.192C1.148 600.12 1.404 598.592 1.404 596.608C1.404 595.68 1.348 594.88 1.236 594.208L-3.852 600.688C-3.34 602.096 -2.556 602.8 -1.5 602.8ZM10.212 604.264C9.828 604.264 9.5 604.128 9.228 603.856C8.956 603.584 8.82 603.264 8.82 602.896C8.82 602.528 8.956 602.208 9.228 601.936C9.5 601.664 9.828 601.528 10.212 601.528C10.58 601.528 10.9 601.664 11.172 601.936C11.444 602.208 11.58 602.528 11.58 602.896C11.58 603.264 11.444 603.584 11.172 603.856C10.9 604.128 10.58 604.264 10.212 604.264ZM23.892 596.08C24.772 596.368 25.468 596.832 25.98 597.472C26.492 598.112 26.748 598.92 26.748 599.896C26.748 600.696 26.572 601.432 26.22 602.104C25.868 602.76 25.356 603.288 24.684 603.688C24.012 604.072 23.204 604.264 22.26 604.264C21.46 604.264 20.7 604.12 19.98 603.832C19.276 603.544 18.668 603.12 18.156 602.56L19.26 601.24L19.284 601.216L19.308 601.24C19.708 601.752 20.116 602.144 20.532 602.416C20.964 602.688 21.516 602.824 22.188 602.824C23.116 602.824 23.82 602.552 24.3 602.008C24.78 601.464 25.02 600.736 25.02 599.824C25.02 598.832 24.716 598.088 24.108 597.592C23.516 597.096 22.676 596.848 21.588 596.848C21.428 596.848 21.172 596.864 20.82 596.896V595.552C22.244 595.552 23.212 595.288 23.724 594.76C24.252 594.232 24.516 593.512 24.516 592.6C24.516 591.928 24.316 591.392 23.916 590.992C23.532 590.592 23.02 590.392 22.38 590.392C21.34 590.392 20.428 590.76 19.644 591.496L18.636 590.488C19.612 589.464 20.852 588.952 22.356 588.952C23.556 588.952 24.5 589.296 25.188 589.984C25.892 590.656 26.244 591.552 26.244 592.672C26.244 593.488 26.044 594.2 25.644 594.808C25.244 595.416 24.66 595.84 23.892 596.08ZM19.548 601.168C19.548 601.216 19.524 601.24 19.476 601.24C19.428 601.224 19.38 601.2 19.332 601.168L19.428 601.048L19.548 601.168ZM19.284 601.216C19.22 601.104 19.204 601.064 19.236 601.096C19.284 601.128 19.316 601.152 19.332 601.168L19.284 601.216ZM34.932 594.352C35.684 594.352 36.372 594.56 36.996 594.976C37.62 595.376 38.116 595.952 38.484 596.704C38.852 597.44 39.036 598.288 39.036 599.248C39.036 600.224 38.844 601.088 38.46 601.84C38.092 602.592 37.58 603.184 36.924 603.616C36.268 604.032 35.548 604.24 34.764 604.24C33.292 604.24 32.148 603.616 31.332 602.368C30.516 601.104 30.108 599.376 30.108 597.184C30.108 595.424 30.324 593.92 30.756 592.672C31.188 591.424 31.796 590.48 32.58 589.84C33.38 589.2 34.316 588.88 35.388 588.88C36.636 588.88 37.732 589.336 38.676 590.248L37.62 591.448L37.596 591.472C37.26 591.056 36.932 590.768 36.612 590.608C36.308 590.448 35.916 590.368 35.436 590.368C34.908 590.368 34.372 590.536 33.828 590.872C33.284 591.192 32.804 591.784 32.388 592.648C31.988 593.496 31.78 594.664 31.764 596.152C32.1 595.592 32.548 595.152 33.108 594.832C33.684 594.512 34.292 594.352 34.932 594.352ZM37.332 591.52C37.332 591.424 37.404 591.432 37.548 591.544L37.452 591.64L37.332 591.52ZM37.596 591.472C37.692 591.6 37.708 591.648 37.644 591.616C37.596 591.568 37.564 591.544 37.548 591.544L37.596 591.472ZM34.836 602.752C35.556 602.752 36.164 602.448 36.66 601.84C37.156 601.216 37.404 600.36 37.404 599.272C37.404 598.52 37.276 597.888 37.02 597.376C36.764 596.848 36.436 596.456 36.036 596.2C35.636 595.944 35.22 595.816 34.788 595.816C34.228 595.816 33.684 596.008 33.156 596.392C32.628 596.76 32.196 597.24 31.86 597.832C31.828 598.088 31.812 598.296 31.812 598.456C31.812 599.16 31.932 599.84 32.172 600.496C32.428 601.152 32.788 601.696 33.252 602.128C33.716 602.544 34.244 602.752 34.836 602.752ZM48.132 604V600.328H41.652V599.104L48.492 589.024H49.908V598.936H51.828V600.352H49.908V604H48.132ZM43.596 598.912H48.132V592.048L43.596 598.912ZM55.86 595.048C55.38 595.048 54.932 594.912 54.516 594.64C54.1 594.368 53.772 593.992 53.532 593.512C53.292 593.032 53.172 592.496 53.172 591.904C53.172 591.328 53.292 590.808 53.532 590.344C53.772 589.864 54.1 589.488 54.516 589.216C54.932 588.928 55.38 588.784 55.86 588.784C56.34 588.784 56.788 588.928 57.204 589.216C57.62 589.488 57.948 589.864 58.188 590.344C58.428 590.824 58.548 591.352 58.548 591.928C58.548 592.84 58.292 593.592 57.78 594.184C57.268 594.76 56.628 595.048 55.86 595.048ZM53.604 604L61.884 589.048H63.252L54.9 604H53.604ZM55.86 593.776C56.196 593.776 56.476 593.624 56.7 593.32C56.924 593.016 57.036 592.544 57.036 591.904C57.036 591.264 56.916 590.792 56.676 590.488C56.436 590.184 56.148 590.032 55.812 590.032C55.492 590.032 55.212 590.184 54.972 590.488C54.748 590.792 54.636 591.264 54.636 591.904C54.636 592.528 54.756 593 54.996 593.32C55.236 593.624 55.524 593.776 55.86 593.776ZM61.404 604.24C60.924 604.24 60.476 604.104 60.06 603.832C59.644 603.56 59.316 603.192 59.076 602.728C58.836 602.248 58.716 601.72 58.716 601.144C58.716 600.568 58.836 600.048 59.076 599.584C59.316 599.104 59.644 598.728 60.06 598.456C60.476 598.168 60.924 598.024 61.404 598.024C62.14 598.024 62.764 598.328 63.276 598.936C63.804 599.544 64.068 600.28 64.068 601.144C64.068 601.72 63.948 602.248 63.708 602.728C63.468 603.192 63.14 603.56 62.724 603.832C62.324 604.104 61.884 604.24 61.404 604.24ZM61.428 603.04C61.78 603.04 62.068 602.88 62.292 602.56C62.532 602.24 62.652 601.776 62.652 601.168C62.652 600.608 62.532 600.152 62.292 599.8C62.068 599.432 61.764 599.248 61.38 599.248C61.028 599.248 60.732 599.408 60.492 599.728C60.252 600.032 60.132 600.496 60.132 601.12C60.132 601.76 60.26 602.24 60.516 602.56C60.772 602.88 61.076 603.04 61.428 603.04Z" fill="#39457A"/>
        <path d="M9.72656 13.0576V9.90234H6.73828V8.37305H9.72656V5.48145H11.4756V8.37305H14.3496V9.90234H11.4756V13.0576H9.72656ZM19.5 3.57422C20.3145 3.57422 21.0117 3.80566 21.5918 4.26855C22.1719 4.73145 22.6143 5.40527 22.9189 6.29004C23.2295 7.16895 23.3848 8.22363 23.3848 9.4541C23.3848 10.6846 23.2295 11.7422 22.9189 12.627C22.6143 13.5059 22.1719 14.1797 21.5918 14.6484C21.0117 15.1113 20.3145 15.3428 19.5 15.3428C18.6855 15.3428 17.9883 15.1113 17.4082 14.6484C16.8281 14.1797 16.3828 13.5059 16.0723 12.627C15.7676 11.7422 15.6152 10.6846 15.6152 9.4541C15.6152 8.22363 15.7676 7.16895 16.0723 6.29004C16.3828 5.40527 16.8281 4.73145 17.4082 4.26855C17.9883 3.80566 18.6855 3.57422 19.5 3.57422ZM19.5 5.19141C19.0898 5.19141 18.7383 5.36133 18.4453 5.70117C18.1523 6.03516 17.9268 6.52148 17.7686 7.16016C17.6162 7.79883 17.54 8.56348 17.54 9.4541C17.54 9.91113 17.5635 10.3594 17.6104 10.7988L21.082 6.67676C20.918 6.19629 20.7012 5.83008 20.4316 5.57812C20.1621 5.32031 19.8516 5.19141 19.5 5.19141ZM19.5 13.7256C19.9102 13.7256 20.2617 13.5557 20.5547 13.2158C20.8477 12.876 21.0703 12.3867 21.2227 11.748C21.3809 11.1094 21.46 10.3447 21.46 9.4541C21.46 8.92676 21.4336 8.44922 21.3809 8.02148L17.8916 12.1699C18.0557 12.6738 18.2725 13.0605 18.542 13.3301C18.8174 13.5938 19.1367 13.7256 19.5 13.7256ZM28.3242 15.2373C28.1016 15.2373 27.8936 15.1816 27.7002 15.0703C27.5127 14.9648 27.3633 14.8184 27.252 14.6309C27.1465 14.4375 27.0938 14.2295 27.0938 14.0068C27.0938 13.79 27.1465 13.5908 27.252 13.4092C27.3633 13.2217 27.5127 13.0752 27.7002 12.9697C27.8936 12.8584 28.1016 12.8027 28.3242 12.8027C28.541 12.8027 28.7402 12.8584 28.9219 12.9697C29.1094 13.0752 29.2559 13.2217 29.3613 13.4092C29.4727 13.5908 29.5283 13.79 29.5283 14.0068C29.5283 14.2295 29.4727 14.4375 29.3613 14.6309C29.2559 14.8184 29.1094 14.9648 28.9219 15.0703C28.7402 15.1816 28.541 15.2373 28.3242 15.2373ZM34.0283 13.5234C35.4756 12.1348 36.5127 11.1094 37.1396 10.4473C37.7725 9.78516 38.2529 9.16992 38.5811 8.60156C38.915 8.02734 39.082 7.44141 39.082 6.84375C39.082 6.36914 38.9326 5.99414 38.6338 5.71875C38.335 5.4375 37.9336 5.29688 37.4297 5.29688C37.125 5.29688 36.835 5.33203 36.5596 5.40234C36.2842 5.47266 36.0527 5.55762 35.8652 5.65723C35.6777 5.75684 35.5605 5.85059 35.5137 5.93848C35.2793 6.36035 35.1621 6.5918 35.1621 6.63281C35.1621 6.63867 35.165 6.6416 35.1709 6.6416C35.1826 6.63574 35.2002 6.62402 35.2236 6.60645C35.2471 6.58887 35.2676 6.57715 35.2852 6.57129C35.3086 6.56543 35.3232 6.57715 35.3291 6.60645L35.2324 6.78223L35.0918 6.70312L33.7559 5.69238C34.1895 4.99512 34.7197 4.46191 35.3467 4.09277C35.9795 3.71777 36.6855 3.53027 37.4648 3.53027C38.1328 3.53027 38.7334 3.6709 39.2666 3.95215C39.7998 4.22754 40.2158 4.61426 40.5146 5.1123C40.8193 5.61035 40.9717 6.18164 40.9717 6.82617C40.9717 7.46484 40.8193 8.07715 40.5146 8.66309C40.2158 9.24902 39.8203 9.81738 39.3281 10.3682C38.8418 10.9189 38.124 11.6689 37.1748 12.6182L36.4541 13.3301H40.1191C40.3125 13.3301 40.4531 13.3213 40.541 13.3037C40.6348 13.2803 40.7168 13.2363 40.7871 13.1719H40.9893V15H34.0283V13.5234ZM45.7617 15V6.07031L43.8369 6.65039L43.3535 5.41992L46.3945 3.78516H47.7393V15H45.7617ZM53.4697 8.50488C53.0713 8.50488 52.6992 8.39941 52.3535 8.18848C52.0137 7.97168 51.7412 7.67578 51.5361 7.30078C51.3369 6.91992 51.2373 6.49805 51.2373 6.03516C51.2373 5.58984 51.3369 5.17969 51.5361 4.80469C51.7412 4.42969 52.0137 4.13379 52.3535 3.91699C52.6992 3.7002 53.0713 3.5918 53.4697 3.5918C53.874 3.5918 54.2461 3.70313 54.5859 3.92578C54.9258 4.14258 55.1953 4.43848 55.3945 4.81348C55.5996 5.18848 55.7021 5.60156 55.7021 6.05273C55.7021 6.52734 55.6055 6.95215 55.4121 7.32715C55.2188 7.69629 54.9521 7.98633 54.6123 8.19727C54.2725 8.40234 53.8916 8.50488 53.4697 8.50488ZM51.7559 15L58.1279 3.78516H59.4199L52.9951 15H51.7559ZM53.4258 7.37109C53.7188 7.37109 53.9385 7.25098 54.085 7.01074C54.2373 6.76465 54.3135 6.44531 54.3135 6.05273C54.3135 5.66602 54.2373 5.34961 54.085 5.10352C53.9385 4.85156 53.7188 4.72559 53.4258 4.72559C53.1387 4.72559 52.9189 4.85156 52.7666 5.10352C52.6201 5.34961 52.5469 5.66602 52.5469 6.05273C52.5469 6.44531 52.6201 6.76465 52.7666 7.01074C52.9189 7.25098 53.1387 7.37109 53.4258 7.37109ZM57.5742 15.1758C57.1699 15.1758 56.7979 15.0703 56.458 14.8594C56.1182 14.6426 55.8457 14.3467 55.6406 13.9717C55.4414 13.5967 55.3418 13.1777 55.3418 12.7148C55.3418 12.2695 55.4414 11.8594 55.6406 11.4844C55.8457 11.1035 56.1182 10.8047 56.458 10.5879C56.8037 10.3711 57.1758 10.2627 57.5742 10.2627C57.9727 10.2627 58.3418 10.374 58.6816 10.5967C59.0273 10.8135 59.2998 11.1123 59.499 11.4932C59.6982 11.8682 59.7979 12.2812 59.7979 12.7324C59.7979 13.207 59.7012 13.6289 59.5078 13.998C59.3145 14.3672 59.0479 14.6572 58.708 14.8682C58.374 15.0732 57.9961 15.1758 57.5742 15.1758ZM57.5303 14.042C57.8232 14.042 58.043 13.9219 58.1895 13.6816C58.3418 13.4414 58.418 13.125 58.418 12.7324C58.418 12.3457 58.3418 12.0264 58.1895 11.7744C58.043 11.5225 57.8232 11.3965 57.5303 11.3965C57.2432 11.3965 57.0234 11.5225 56.8711 11.7744C56.7246 12.0264 56.6514 12.3457 56.6514 12.7324C56.6514 13.125 56.7246 13.4414 56.8711 13.6816C57.0176 13.9219 57.2373 14.042 57.5303 14.042Z" fill="#39457A"/>
        <path d="M89.7266 99.0576V95.9023H86.7383V94.373H89.7266V91.4814H91.4756V94.373H94.3496V95.9023H91.4756V99.0576H89.7266ZM99.5 89.5742C100.314 89.5742 101.012 89.8057 101.592 90.2686C102.172 90.7314 102.614 91.4053 102.919 92.29C103.229 93.1689 103.385 94.2236 103.385 95.4541C103.385 96.6846 103.229 97.7422 102.919 98.627C102.614 99.5059 102.172 100.18 101.592 100.648C101.012 101.111 100.314 101.343 99.5 101.343C98.6855 101.343 97.9883 101.111 97.4082 100.648C96.8281 100.18 96.3828 99.5059 96.0723 98.627C95.7676 97.7422 95.6152 96.6846 95.6152 95.4541C95.6152 94.2236 95.7676 93.1689 96.0723 92.29C96.3828 91.4053 96.8281 90.7314 97.4082 90.2686C97.9883 89.8057 98.6855 89.5742 99.5 89.5742ZM99.5 91.1914C99.0898 91.1914 98.7383 91.3613 98.4453 91.7012C98.1523 92.0352 97.9268 92.5215 97.7686 93.1602C97.6162 93.7988 97.54 94.5635 97.54 95.4541C97.54 95.9111 97.5635 96.3594 97.6104 96.7988L101.082 92.6768C100.918 92.1963 100.701 91.8301 100.432 91.5781C100.162 91.3203 99.8516 91.1914 99.5 91.1914ZM99.5 99.7256C99.9102 99.7256 100.262 99.5557 100.555 99.2158C100.848 98.876 101.07 98.3867 101.223 97.748C101.381 97.1094 101.46 96.3447 101.46 95.4541C101.46 94.9268 101.434 94.4492 101.381 94.0215L97.8916 98.1699C98.0557 98.6738 98.2725 99.0605 98.542 99.3301C98.8174 99.5938 99.1367 99.7256 99.5 99.7256ZM108.324 101.237C108.102 101.237 107.894 101.182 107.7 101.07C107.513 100.965 107.363 100.818 107.252 100.631C107.146 100.438 107.094 100.229 107.094 100.007C107.094 99.79 107.146 99.5908 107.252 99.4092C107.363 99.2217 107.513 99.0752 107.7 98.9697C107.894 98.8584 108.102 98.8027 108.324 98.8027C108.541 98.8027 108.74 98.8584 108.922 98.9697C109.109 99.0752 109.256 99.2217 109.361 99.4092C109.473 99.5908 109.528 99.79 109.528 100.007C109.528 100.229 109.473 100.438 109.361 100.631C109.256 100.818 109.109 100.965 108.922 101.07C108.74 101.182 108.541 101.237 108.324 101.237ZM117.79 93.5293C118.411 93.5293 118.979 93.6934 119.495 94.0215C120.011 94.3496 120.418 94.8066 120.717 95.3926C121.021 95.9727 121.174 96.6289 121.174 97.3613C121.174 98.0996 121.016 98.7734 120.699 99.3828C120.389 99.9863 119.964 100.464 119.425 100.815C118.892 101.167 118.303 101.343 117.658 101.343C116.891 101.343 116.223 101.108 115.654 100.64C115.092 100.171 114.661 99.5205 114.362 98.6885C114.063 97.8564 113.914 96.9043 113.914 95.832C113.914 94.5488 114.087 93.4355 114.433 92.4922C114.784 91.543 115.276 90.8164 115.909 90.3125C116.542 89.8027 117.271 89.5479 118.098 89.5479C118.602 89.5479 119.094 89.6621 119.574 89.8906C120.055 90.1133 120.503 90.4385 120.919 90.8662L119.653 92.2109L119.645 92.2197L119.53 92.0703C119.372 91.877 119.237 91.7305 119.126 91.6309C119.021 91.5254 118.886 91.4404 118.722 91.376C118.558 91.3115 118.35 91.2793 118.098 91.2793C117.781 91.2793 117.474 91.3818 117.175 91.5869C116.876 91.792 116.612 92.126 116.384 92.5889C116.161 93.0459 116.012 93.6406 115.936 94.373C116.176 94.1328 116.466 93.9336 116.806 93.7754C117.146 93.6113 117.474 93.5293 117.79 93.5293ZM119.398 92.1758C119.398 92.1582 119.407 92.1494 119.425 92.1494C119.454 92.1494 119.516 92.1846 119.609 92.2549L119.548 92.3252L119.398 92.1846V92.1758ZM119.645 92.2197C119.697 92.2783 119.724 92.3164 119.724 92.334C119.724 92.334 119.686 92.3076 119.609 92.2549L119.645 92.2197ZM117.702 99.4883C117.978 99.4883 118.227 99.4062 118.449 99.2422C118.672 99.0723 118.848 98.8291 118.977 98.5127C119.105 98.1904 119.17 97.8066 119.17 97.3613C119.17 96.916 119.097 96.5381 118.95 96.2275C118.804 95.917 118.616 95.6885 118.388 95.542C118.159 95.3896 117.922 95.3135 117.676 95.3135C117.354 95.3135 117.037 95.4131 116.727 95.6123C116.422 95.8057 116.17 96.0664 115.971 96.3945C115.971 97.0273 116.044 97.5781 116.19 98.0469C116.343 98.5098 116.548 98.8672 116.806 99.1191C117.069 99.3652 117.368 99.4883 117.702 99.4883ZM126.79 93.4766C127.499 93.4766 128.117 93.6318 128.645 93.9424C129.172 94.2529 129.579 94.7012 129.866 95.2871C130.153 95.873 130.297 96.5703 130.297 97.3789C130.297 98.1582 130.145 98.8467 129.84 99.4443C129.535 100.042 129.102 100.508 128.539 100.842C127.977 101.176 127.32 101.343 126.57 101.343C124.918 101.343 123.714 100.634 122.958 99.2158L124.452 98.0732L124.47 98.0645L124.479 98.082C124.637 98.3867 124.798 98.6445 124.962 98.8555C125.126 99.0605 125.334 99.2305 125.586 99.3652C125.838 99.4941 126.143 99.5586 126.5 99.5586C126.846 99.5586 127.153 99.4766 127.423 99.3125C127.692 99.1426 127.906 98.8936 128.064 98.5654C128.223 98.2373 128.302 97.8359 128.302 97.3613C128.302 96.6641 128.144 96.1221 127.827 95.7354C127.511 95.3428 127.092 95.1465 126.57 95.1465C126.213 95.1465 125.896 95.2344 125.621 95.4102C125.346 95.5801 125.073 95.8525 124.804 96.2275L123.512 95.6738L123.925 89.7852H129.954V91.499H125.691L125.542 93.6699C125.981 93.541 126.397 93.4766 126.79 93.4766ZM124.47 98.0645C124.44 98.0117 124.426 97.9766 124.426 97.959C124.426 97.9414 124.452 97.9648 124.505 98.0293L124.47 98.0645ZM124.707 98.1436C124.707 98.167 124.698 98.1787 124.681 98.1787C124.663 98.1787 124.631 98.1582 124.584 98.1172C124.543 98.0703 124.517 98.041 124.505 98.0293L124.584 97.9766L124.707 98.1436ZM133.47 94.5049C133.071 94.5049 132.699 94.3994 132.354 94.1885C132.014 93.9717 131.741 93.6758 131.536 93.3008C131.337 92.9199 131.237 92.498 131.237 92.0352C131.237 91.5898 131.337 91.1797 131.536 90.8047C131.741 90.4297 132.014 90.1338 132.354 89.917C132.699 89.7002 133.071 89.5918 133.47 89.5918C133.874 89.5918 134.246 89.7031 134.586 89.9258C134.926 90.1426 135.195 90.4385 135.395 90.8135C135.6 91.1885 135.702 91.6016 135.702 92.0527C135.702 92.5273 135.605 92.9521 135.412 93.3271C135.219 93.6963 134.952 93.9863 134.612 94.1973C134.272 94.4023 133.892 94.5049 133.47 94.5049ZM131.756 101L138.128 89.7852H139.42L132.995 101H131.756ZM133.426 93.3711C133.719 93.3711 133.938 93.251 134.085 93.0107C134.237 92.7646 134.313 92.4453 134.313 92.0527C134.313 91.666 134.237 91.3496 134.085 91.1035C133.938 90.8516 133.719 90.7256 133.426 90.7256C133.139 90.7256 132.919 90.8516 132.767 91.1035C132.62 91.3496 132.547 91.666 132.547 92.0527C132.547 92.4453 132.62 92.7646 132.767 93.0107C132.919 93.251 133.139 93.3711 133.426 93.3711ZM137.574 101.176C137.17 101.176 136.798 101.07 136.458 100.859C136.118 100.643 135.846 100.347 135.641 99.9717C135.441 99.5967 135.342 99.1777 135.342 98.7148C135.342 98.2695 135.441 97.8594 135.641 97.4844C135.846 97.1035 136.118 96.8047 136.458 96.5879C136.804 96.3711 137.176 96.2627 137.574 96.2627C137.973 96.2627 138.342 96.374 138.682 96.5967C139.027 96.8135 139.3 97.1123 139.499 97.4932C139.698 97.8682 139.798 98.2812 139.798 98.7324C139.798 99.207 139.701 99.6289 139.508 99.998C139.314 100.367 139.048 100.657 138.708 100.868C138.374 101.073 137.996 101.176 137.574 101.176ZM137.53 100.042C137.823 100.042 138.043 99.9219 138.189 99.6816C138.342 99.4414 138.418 99.125 138.418 98.7324C138.418 98.3457 138.342 98.0264 138.189 97.7744C138.043 97.5225 137.823 97.3965 137.53 97.3965C137.243 97.3965 137.023 97.5225 136.871 97.7744C136.725 98.0264 136.651 98.3457 136.651 98.7324C136.651 99.125 136.725 99.4414 136.871 99.6816C137.018 99.9219 137.237 100.042 137.53 100.042Z" fill="#39457A"/>
        <path d="M90.7266 507.058V503.902H87.7383V502.373H90.7266V499.481H92.4756V502.373H95.3496V503.902H92.4756V507.058H90.7266ZM100.5 497.574C101.314 497.574 102.012 497.806 102.592 498.269C103.172 498.731 103.614 499.405 103.919 500.29C104.229 501.169 104.385 502.224 104.385 503.454C104.385 504.685 104.229 505.742 103.919 506.627C103.614 507.506 103.172 508.18 102.592 508.648C102.012 509.111 101.314 509.343 100.5 509.343C99.6855 509.343 98.9883 509.111 98.4082 508.648C97.8281 508.18 97.3828 507.506 97.0723 506.627C96.7676 505.742 96.6152 504.685 96.6152 503.454C96.6152 502.224 96.7676 501.169 97.0723 500.29C97.3828 499.405 97.8281 498.731 98.4082 498.269C98.9883 497.806 99.6855 497.574 100.5 497.574ZM100.5 499.191C100.09 499.191 99.7383 499.361 99.4453 499.701C99.1523 500.035 98.9268 500.521 98.7686 501.16C98.6162 501.799 98.54 502.563 98.54 503.454C98.54 503.911 98.5635 504.359 98.6104 504.799L102.082 500.677C101.918 500.196 101.701 499.83 101.432 499.578C101.162 499.32 100.852 499.191 100.5 499.191ZM100.5 507.726C100.91 507.726 101.262 507.556 101.555 507.216C101.848 506.876 102.07 506.387 102.223 505.748C102.381 505.109 102.46 504.345 102.46 503.454C102.46 502.927 102.434 502.449 102.381 502.021L98.8916 506.17C99.0557 506.674 99.2725 507.061 99.542 507.33C99.8174 507.594 100.137 507.726 100.5 507.726ZM109.324 509.237C109.102 509.237 108.894 509.182 108.7 509.07C108.513 508.965 108.363 508.818 108.252 508.631C108.146 508.438 108.094 508.229 108.094 508.007C108.094 507.79 108.146 507.591 108.252 507.409C108.363 507.222 108.513 507.075 108.7 506.97C108.894 506.858 109.102 506.803 109.324 506.803C109.541 506.803 109.74 506.858 109.922 506.97C110.109 507.075 110.256 507.222 110.361 507.409C110.473 507.591 110.528 507.79 110.528 508.007C110.528 508.229 110.473 508.438 110.361 508.631C110.256 508.818 110.109 508.965 109.922 509.07C109.74 509.182 109.541 509.237 109.324 509.237ZM117.762 509V500.07L115.837 500.65L115.354 499.42L118.395 497.785H119.739V509H117.762ZM126.762 509V500.07L124.837 500.65L124.354 499.42L127.395 497.785H128.739V509H126.762ZM134.47 502.505C134.071 502.505 133.699 502.399 133.354 502.188C133.014 501.972 132.741 501.676 132.536 501.301C132.337 500.92 132.237 500.498 132.237 500.035C132.237 499.59 132.337 499.18 132.536 498.805C132.741 498.43 133.014 498.134 133.354 497.917C133.699 497.7 134.071 497.592 134.47 497.592C134.874 497.592 135.246 497.703 135.586 497.926C135.926 498.143 136.195 498.438 136.395 498.813C136.6 499.188 136.702 499.602 136.702 500.053C136.702 500.527 136.605 500.952 136.412 501.327C136.219 501.696 135.952 501.986 135.612 502.197C135.272 502.402 134.892 502.505 134.47 502.505ZM132.756 509L139.128 497.785H140.42L133.995 509H132.756ZM134.426 501.371C134.719 501.371 134.938 501.251 135.085 501.011C135.237 500.765 135.313 500.445 135.313 500.053C135.313 499.666 135.237 499.35 135.085 499.104C134.938 498.852 134.719 498.726 134.426 498.726C134.139 498.726 133.919 498.852 133.767 499.104C133.62 499.35 133.547 499.666 133.547 500.053C133.547 500.445 133.62 500.765 133.767 501.011C133.919 501.251 134.139 501.371 134.426 501.371ZM138.574 509.176C138.17 509.176 137.798 509.07 137.458 508.859C137.118 508.643 136.846 508.347 136.641 507.972C136.441 507.597 136.342 507.178 136.342 506.715C136.342 506.27 136.441 505.859 136.641 505.484C136.846 505.104 137.118 504.805 137.458 504.588C137.804 504.371 138.176 504.263 138.574 504.263C138.973 504.263 139.342 504.374 139.682 504.597C140.027 504.813 140.3 505.112 140.499 505.493C140.698 505.868 140.798 506.281 140.798 506.732C140.798 507.207 140.701 507.629 140.508 507.998C140.314 508.367 140.048 508.657 139.708 508.868C139.374 509.073 138.996 509.176 138.574 509.176ZM138.53 508.042C138.823 508.042 139.043 507.922 139.189 507.682C139.342 507.441 139.418 507.125 139.418 506.732C139.418 506.346 139.342 506.026 139.189 505.774C139.043 505.522 138.823 505.396 138.53 505.396C138.243 505.396 138.023 505.522 137.871 505.774C137.725 506.026 137.651 506.346 137.651 506.732C137.651 507.125 137.725 507.441 137.871 507.682C138.018 507.922 138.237 508.042 138.53 508.042Z" fill="#39457A"/>
    </g>
    <defs>
        <filter id="filter0_f" x="539.858" y="1369.45" width="110.496" height="60.832" filterUnits="userSpaceOnUse" color-interpolation-filters="sRGB">
            <feFlood flood-opacity="0" result="BackgroundImageFix"/>
            <feBlend mode="normal" in="SourceGraphic" in2="BackgroundImageFix" result="shape"/>
            <feGaussianBlur stdDeviation="5" result="effect1_foregroundBlur"/>
        </filter>
        <filter id="filter1_f" x="-80.1465" y="23.3004" width="767.293" height="275.135" filterUnits="userSpaceOnUse" color-interpolation-filters="sRGB">
            <feFlood flood-opacity="0" result="BackgroundImageFix"/>
            <feBlend mode="normal" in="SourceGraphic" in2="BackgroundImageFix" result="shape"/>
            <feGaussianBlur stdDeviation="10" result="effect1_foregroundBlur"/>
        </filter>
        <filter id="filter2_f" x="-17.9482" y="167.176" width="125.3" height="43.22" filterUnits="userSpaceOnUse" color-interpolation-filters="sRGB">
            <feFlood flood-opacity="0" result="BackgroundImageFix"/>
            <feBlend mode="normal" in="SourceGraphic" in2="BackgroundImageFix" result="shape"/>
            <feGaussianBlur stdDeviation="5" result="effect1_foregroundBlur"/>
        </filter>
    </defs>
</svg>
