<svg width="293" height="311" viewBox="0 0 293 311" fill="none" xmlns="http://www.w3.org/2000/svg">
    <g filter="url(#filter0_d)">
        <rect x="-191" y="37" width="410.222" height="164.72" rx="9.10257" fill="#F86F6F"/>
    </g>
    <path d="M-161.701 123.176V112.537H-118.008V123.176H-161.701ZM-81.7687 81.2468C-76.4968 81.2468 -71.9834 82.7449 -68.2286 85.7412C-64.4738 88.7375 -61.6103 93.0991 -59.6381 98.8261C-57.6279 104.515 -56.6228 111.342 -56.6228 119.307C-56.6228 127.272 -57.6279 134.118 -59.6381 139.845C-61.6103 145.534 -64.4738 149.895 -68.2286 152.93C-71.9834 155.926 -76.4968 157.424 -81.7687 157.424C-87.0406 157.424 -91.5539 155.926 -95.3087 152.93C-99.0636 149.895 -101.946 145.534 -103.956 139.845C-105.928 134.118 -106.915 127.272 -106.915 119.307C-106.915 111.342 -105.928 104.515 -103.956 98.8261C-101.946 93.0991 -99.0636 88.7375 -95.3087 85.7412C-91.5539 82.7449 -87.0406 81.2468 -81.7687 81.2468ZM-81.7687 91.7148C-84.4236 91.7148 -86.6992 92.8146 -88.5956 95.0144C-90.492 97.1763 -91.9522 100.324 -92.9762 104.458C-93.9623 108.592 -94.4554 113.542 -94.4554 119.307C-94.4554 122.265 -94.3037 125.167 -94.0002 128.011L-71.5283 101.329C-72.5903 98.2193 -73.9936 95.8488 -75.7382 94.218C-77.4829 92.5492 -79.493 91.7148 -81.7687 91.7148ZM-81.7687 146.956C-79.1138 146.956 -76.8381 145.856 -74.9417 143.656C-73.0454 141.456 -71.6041 138.29 -70.618 134.155C-69.594 130.021 -69.082 125.072 -69.082 119.307C-69.082 115.893 -69.2526 112.802 -69.594 110.034L-92.1797 136.886C-91.1178 140.148 -89.7145 142.651 -87.9698 144.396C-86.1872 146.103 -84.1202 146.956 -81.7687 146.956ZM-24.6501 156.741C-26.0913 156.741 -27.4377 156.381 -28.6893 155.66C-29.903 154.978 -30.8702 154.029 -31.5908 152.816C-32.2735 151.564 -32.6148 150.218 -32.6148 148.776C-32.6148 147.373 -32.2735 146.084 -31.5908 144.908C-30.8702 143.694 -29.903 142.746 -28.6893 142.063C-27.4377 141.343 -26.0913 140.982 -24.6501 140.982C-23.2467 140.982 -21.9572 141.343 -20.7815 142.063C-19.5678 142.746 -18.6196 143.694 -17.9369 144.908C-17.2163 146.084 -16.856 147.373 -16.856 148.776C-16.856 150.218 -17.2163 151.564 -17.9369 152.816C-18.6196 154.029 -19.5678 154.978 -20.7815 155.66C-21.9572 156.381 -23.2467 156.741 -24.6501 156.741ZM29.9653 155.205V97.4039L17.5062 101.159L14.3772 93.1939L34.0615 82.6122H42.7658V155.205H29.9653ZM94.878 106.506C99.4672 106.506 103.469 107.512 106.882 109.522C110.295 111.532 112.931 114.433 114.79 118.226C116.648 122.019 117.578 126.532 117.578 131.766C117.578 136.81 116.591 141.267 114.619 145.135C112.647 149.004 109.84 152.019 106.199 154.181C102.558 156.343 98.3105 157.424 93.4558 157.424C82.7602 157.424 74.9662 152.835 70.0735 143.656L79.745 136.26L79.8588 136.204L79.9157 136.317C80.9397 138.29 81.9827 139.958 83.0447 141.324C84.1067 142.651 85.4531 143.751 87.084 144.623C88.7148 145.458 90.6871 145.875 93.0006 145.875C95.2383 145.875 97.2295 145.344 98.9742 144.282C100.719 143.182 102.103 141.57 103.127 139.446C104.151 137.322 104.663 134.724 104.663 131.652C104.663 127.139 103.639 123.631 101.591 121.127C99.5431 118.586 96.8313 117.316 93.4558 117.316C91.1422 117.316 89.0941 117.885 87.3115 119.022C85.5289 120.122 83.7653 121.886 82.0206 124.313L73.6577 120.729L76.3315 82.6122H115.359V93.7059H87.7666L86.7995 107.758C89.6441 106.924 92.3369 106.506 94.878 106.506ZM79.8588 136.204C79.6692 135.862 79.5743 135.635 79.5743 135.521C79.5743 135.407 79.745 135.559 80.0864 135.976L79.8588 136.204ZM81.3948 136.716C81.3948 136.867 81.338 136.943 81.2242 136.943C81.1104 136.943 80.9018 136.81 80.5984 136.545C80.3329 136.241 80.1622 136.052 80.0864 135.976L80.5984 135.635L81.3948 136.716ZM138.115 113.163C135.536 113.163 133.128 112.48 130.89 111.115C128.69 109.711 126.927 107.796 125.599 105.369C124.31 102.903 123.665 100.173 123.665 97.1763C123.665 94.2938 124.31 91.6389 125.599 89.2115C126.927 86.7842 128.69 84.8689 130.89 83.4656C133.128 82.0622 135.536 81.3606 138.115 81.3606C140.732 81.3606 143.141 82.0812 145.34 83.5224C147.54 84.9258 149.285 86.8411 150.574 89.2684C151.902 91.6958 152.566 94.3697 152.566 97.2901C152.566 100.362 151.94 103.112 150.688 105.539C149.437 107.929 147.711 109.806 145.511 111.171C143.311 112.499 140.846 113.163 138.115 113.163ZM127.021 155.205L168.267 82.6122H176.63L135.043 155.205H127.021ZM137.831 105.824C139.727 105.824 141.149 105.046 142.098 103.491C143.084 101.898 143.577 99.8312 143.577 97.2901C143.577 94.7869 143.084 92.7388 142.098 91.1458C141.149 89.515 139.727 88.6995 137.831 88.6995C135.972 88.6995 134.55 89.515 133.564 91.1458C132.616 92.7388 132.142 94.7869 132.142 97.2901C132.142 99.8312 132.616 101.898 133.564 103.491C134.55 105.046 135.972 105.824 137.831 105.824ZM164.683 156.343C162.066 156.343 159.658 155.66 157.458 154.295C155.258 152.892 153.495 150.976 152.167 148.549C150.878 146.122 150.233 143.41 150.233 140.413C150.233 137.531 150.878 134.876 152.167 132.449C153.495 129.983 155.258 128.049 157.458 126.646C159.696 125.243 162.104 124.541 164.683 124.541C167.262 124.541 169.652 125.262 171.852 126.703C174.089 128.106 175.853 130.04 177.142 132.506C178.432 134.933 179.077 137.607 179.077 140.527C179.077 143.599 178.451 146.33 177.199 148.72C175.948 151.109 174.222 152.986 172.022 154.352C169.86 155.679 167.414 156.343 164.683 156.343ZM164.399 149.004C166.295 149.004 167.718 148.227 168.666 146.672C169.652 145.116 170.145 143.068 170.145 140.527C170.145 138.024 169.652 135.957 168.666 134.326C167.718 132.695 166.295 131.88 164.399 131.88C162.54 131.88 161.118 132.695 160.132 134.326C159.184 135.957 158.71 138.024 158.71 140.527C158.71 143.068 159.184 145.116 160.132 146.672C161.08 148.227 162.503 149.004 164.399 149.004Z" fill="white" fill-opacity="0.5"/>
    <defs>
        <filter id="filter0_d" x="-263.821" y="0.589729" width="555.863" height="310.361" filterUnits="userSpaceOnUse" color-interpolation-filters="sRGB">
            <feFlood flood-opacity="0" result="BackgroundImageFix"/>
            <feColorMatrix in="SourceAlpha" type="matrix" values="0 0 0 0 0 0 0 0 0 0 0 0 0 0 0 0 0 0 127 0"/>
            <feOffset dy="36.4103"/>
            <feGaussianBlur stdDeviation="36.4103"/>
            <feColorMatrix type="matrix" values="0 0 0 0 0.972549 0 0 0 0 0.435294 0 0 0 0 0.435294 0 0 0 0.5 0"/>
            <feBlend mode="normal" in2="BackgroundImageFix" result="effect1_dropShadow"/>
            <feBlend mode="normal" in="SourceGraphic" in2="effect1_dropShadow" result="shape"/>
        </filter>
    </defs>
</svg>
