<svg width="140" height="140" viewBox="0 0 140 140" fill="none" xmlns="http://www.w3.org/2000/svg">
<g clip-path="url(#clip0)">
<path fill-rule="evenodd" clip-rule="evenodd" d="M61.7363 58.8576V118.239C61.736 119.217 61.9942 120.178 62.4846 121.025C62.9751 121.871 63.6805 122.573 64.5295 123.06L130.364 160.744C133.518 162.549 137.607 158.647 137.477 156.651L138 95.8186C138.009 94.8277 137.753 93.8525 137.258 92.9941C136.763 92.1357 136.047 91.4254 135.185 90.9368L70.0091 54.0234C66.3135 51.93 61.7363 54.6041 61.7363 58.8576Z" fill="white"/>
<path fill-rule="evenodd" clip-rule="evenodd" d="M61.7363 58.8576V118.239C61.736 119.217 61.9942 120.178 62.4846 121.025C62.9751 121.871 63.6805 122.573 64.5295 123.06L130.364 160.744C133.518 162.549 137.607 158.647 137.477 156.651L138 95.8186C138.009 94.8277 137.753 93.8525 137.258 92.9941C136.763 92.1357 136.047 91.4254 135.185 90.9368L70.0091 54.0234C66.3135 51.93 61.7363 54.6041 61.7363 58.8576V58.8576Z" stroke="black" stroke-width="1.42798" stroke-linejoin="round"/>
<path fill-rule="evenodd" clip-rule="evenodd" d="M128.019 163.053C132.031 162.475 137.606 158.647 137.606 158.647V93.7227L130.831 96.8376C130.831 96.8376 123.329 163.728 128.019 163.053Z" fill="white"/>
<path fill-rule="evenodd" clip-rule="evenodd" d="M128.019 163.053C132.031 162.475 137.606 158.647 137.606 158.647V93.7227L130.831 96.8376C130.831 96.8376 123.329 163.728 128.019 163.053Z" stroke="black" stroke-width="1.42798" stroke-linejoin="round"/>
<path fill-rule="evenodd" clip-rule="evenodd" d="M55.1914 59.3366V120.29C55.1911 121.269 55.4493 122.23 55.9397 123.077C56.4302 123.924 57.1356 124.626 57.9845 125.112L123.818 162.797C126.971 164.602 130.899 162.341 130.931 158.703L130.788 100.581V96.7763L61.7344 55.1611" fill="white"/>
<path d="M55.1914 59.3366V120.29C55.1911 121.269 55.4493 122.23 55.9397 123.077C56.4302 123.924 57.1356 124.626 57.9845 125.112L123.818 162.797C126.971 164.602 130.899 162.341 130.931 158.703L130.788 100.581V96.7763L61.7344 55.1611" stroke="black" stroke-width="1.90398" stroke-linejoin="round"/>
<path fill-rule="evenodd" clip-rule="evenodd" d="M36.334 71.172C36.334 71.172 36.829 62.0158 47.1933 56.0316C55.2633 51.3726 69.7564 53.2956 69.7564 53.2956" fill="white"/>
<path d="M36.334 71.172C36.334 71.172 36.829 62.0158 47.1933 56.0316C55.2633 51.3726 69.7564 53.2956 69.7564 53.2956" stroke="black" stroke-width="1.42798" stroke-linecap="round" stroke-linejoin="round"/>
<path fill-rule="evenodd" clip-rule="evenodd" d="M51.385 62.387L58.2298 58.54L57.83 70.002L52.0295 66.8756L47.1953 64.5509L51.385 62.387Z" fill="white"/>
<path fill-rule="evenodd" clip-rule="evenodd" d="M98.5906 77.0325C98.9409 90.9401 87.5951 97.9953 76.6301 91.598C63.8868 84.1648 54.8438 67.4146 54.881 52.7188C54.9143 39.3566 65.549 32.2491 77.7192 39.5727C90.6186 47.3372 98.2098 61.8883 98.5906 77.0325Z" fill="white"/>
<path fill-rule="evenodd" clip-rule="evenodd" d="M98.5906 77.0325C98.9409 90.9401 87.5951 97.9953 76.6301 91.598C63.8868 84.1648 54.8438 67.4146 54.881 52.7188C54.9143 39.3566 65.549 32.2491 77.7192 39.5727C90.6186 47.3372 98.2098 61.8883 98.5906 77.0325V77.0325Z" stroke="black" stroke-width="1.42798" stroke-linejoin="round"/>
<path fill-rule="evenodd" clip-rule="evenodd" d="M67.7422 42.0098H55.373C55.373 42.0098 61.7723 36.9453 65.4451 36.8301" fill="white"/>
<path d="M67.7422 42.0098H55.373C55.373 42.0098 61.7723 36.9453 65.4451 36.8301" stroke="black" stroke-width="1.42798" stroke-linecap="round" stroke-linejoin="round"/>
<path fill-rule="evenodd" clip-rule="evenodd" d="M93.7779 82.75L88.2363 95.499C88.2363 95.499 96.3377 90.1327 98.0123 82.75" fill="white"/>
<path d="M93.7779 82.75L88.2363 95.499C88.2363 95.499 96.3377 90.1327 98.0123 82.75" stroke="black" stroke-width="1.42798" stroke-linecap="round" stroke-linejoin="round"/>
<path fill-rule="evenodd" clip-rule="evenodd" d="M93.7747 82.7492C94.125 96.6568 81.098 101.889 70.1321 95.4925C57.3887 88.0584 48.3458 71.3063 48.3829 56.6123C48.4172 43.2502 58.3769 36.1427 70.5481 43.4663C83.4475 51.2298 93.3929 67.6049 93.7747 82.7492Z" fill="#9595EF"/>
<path fill-rule="evenodd" clip-rule="evenodd" d="M93.7747 82.7492C94.125 96.6568 81.098 101.889 70.1321 95.4925C57.3887 88.0584 48.3458 71.3063 48.3829 56.6123C48.4172 43.2502 58.3769 36.1427 70.5481 43.4663C83.4475 51.2298 93.3929 67.6049 93.7747 82.7492V82.7492Z" stroke="black" stroke-width="1.42798" stroke-linecap="round" stroke-linejoin="round"/>
<path fill-rule="evenodd" clip-rule="evenodd" d="M74.4491 78.7951C74.3691 79.0864 74.2492 79.3187 74.0911 79.4862C73.9331 79.6547 73.7132 79.7642 73.4324 79.8156C73.161 79.8663 72.8845 79.8839 72.6089 79.868C72.2778 79.8405 71.9503 79.7803 71.6312 79.688C71.2903 79.5986 70.9538 79.4928 70.623 79.371C70.2739 79.239 69.9292 79.0958 69.5892 78.9417C69.1894 78.7627 68.88 78.619 68.6581 78.5085C68.3765 78.3667 68.0959 78.2227 67.8166 78.0763C67.67 78.0002 67.5462 77.9354 67.4453 77.885C67.293 77.806 67.1578 77.588 67.1407 77.3928L66.5009 70.5737C66.4828 70.3805 66.5866 70.2795 66.7351 70.3471C66.8703 70.41 67.0512 70.4918 67.2778 70.5947C67.7281 70.8003 68.0984 70.9745 68.3859 71.1135C68.6743 71.2544 69.0742 71.4705 69.592 71.7647C70.1099 72.0579 70.5526 72.3358 70.9172 72.5957C71.2818 72.8575 71.6864 73.1841 72.1358 73.5772C72.5832 73.9704 72.9583 74.3674 73.2581 74.7672C73.5571 75.1671 73.8246 75.6221 74.0569 76.1333C74.2911 76.6455 74.4377 77.1738 74.4986 77.7193C74.5462 78.1439 74.5291 78.5019 74.4491 78.7951ZM65.5071 59.9638C65.5851 60.0009 65.805 60.0999 66.1658 60.2618C66.5276 60.4227 66.8284 60.5569 67.0674 60.6616C67.3073 60.7663 67.6338 60.9358 68.0479 61.1728C68.4639 61.4108 68.819 61.6317 69.1103 61.8402C69.4026 62.0468 69.7291 62.3171 70.0947 62.6503C70.4593 62.9845 70.7611 63.3253 70.9991 63.6718C71.2371 64.0183 71.4503 64.4191 71.6398 64.8713C71.8302 65.3254 71.9539 65.8023 72.0072 66.3002C72.0529 66.7229 72.0415 67.0837 71.9711 67.3817C71.9025 67.6787 71.7711 67.8948 71.5836 68.029C71.4025 68.1583 71.2028 68.2594 70.9915 68.3289C70.7858 68.3975 70.5155 68.4013 70.1823 68.3432C69.8491 68.2842 69.5606 68.2252 69.3122 68.1633C68.9925 68.0765 68.6797 67.9661 68.3764 67.8329C68.0919 67.7128 67.8082 67.5909 67.5253 67.4674C67.332 67.3807 67.0683 67.2541 66.7332 67.0866L66.4143 66.9257C66.2658 66.8533 66.1325 66.6363 66.1144 66.4421L65.5071 59.9638ZM60.8423 54.1234C59.6502 53.5711 58.456 53.023 57.26 52.4793C57.0896 52.4022 56.9677 52.4983 56.9887 52.6963L57.3123 55.638C57.3333 55.8341 57.4866 56.0549 57.6522 56.1282C58.3633 56.4453 58.7108 56.6014 59.3943 56.9117C60.294 57.3192 60.8509 58.0417 61.1022 59.0908C61.1079 59.1184 61.1117 59.1451 61.1146 59.1698L61.7067 65.4787C61.821 65.531 61.7067 65.4853 61.7762 65.532L61.7096 65.5015L62.5397 74.3579C62.5422 74.379 62.5432 74.4003 62.5426 74.4216C62.5159 75.1071 62.2284 75.3194 61.6801 75.069C61.1445 74.8214 60.6059 74.5802 60.0645 74.3455C59.936 74.2893 59.8389 74.3674 59.8361 74.5292C59.8131 75.5909 59.7954 76.6527 59.7828 77.7146C59.7799 77.9221 59.9217 78.1706 60.0798 78.2372C61.3871 78.7858 62.6761 79.377 63.9448 80.0098L64.5874 80.3306C64.7369 80.4049 64.8702 80.621 64.8873 80.8152C65.0215 82.2794 65.2262 83.1666 65.3062 84.0348L60.8433 54.1234H60.8423ZM67.748 87.2887C67.9032 87.3668 68.0155 87.2735 67.9965 87.0774L67.5415 82.2127C67.5234 82.0147 67.6348 81.9186 67.7928 82.0004C68.2021 82.2165 68.7286 82.4878 69.3778 82.8172C69.5349 82.8972 69.6796 83.1219 69.6996 83.3189C69.7977 84.3271 68.4811 87.1269 69.2284 88.4949C69.3236 88.6691 69.2998 88.8214 69.4607 88.9033L67.748 87.2887ZM72.7498 89.841C72.9145 89.9238 73.0316 89.8315 73.0116 89.6325L72.4851 84.6155C72.4642 84.4251 72.5708 84.328 72.726 84.3956C73.6161 84.7745 74.4196 85.0639 75.1298 85.2581C75.8583 85.466 76.6132 85.567 77.3707 85.558C78.0809 85.5418 78.6674 85.3771 79.1224 85.0687C79.5794 84.764 79.9344 84.2719 80.1886 83.5988C80.4419 82.9267 80.5599 82.0747 80.538 81.0408C80.4866 79.015 79.9944 77.269 79.0767 75.7925C78.3046 74.5502 77.2822 73.4344 76.0618 72.4558C75.8047 72.2483 75.7143 71.8437 75.9094 71.7694C77.2632 71.2525 77.7496 69.7322 77.2584 67.1903C77.0676 66.1686 76.7209 65.1822 76.2303 64.2658C75.7445 63.3571 75.1365 62.5192 74.4234 61.7754C73.7438 61.0593 73.0057 60.4011 72.2167 59.8077C71.4933 59.2698 70.7393 58.7742 69.9586 58.3235C69.8801 58.2697 69.814 58.1997 69.7647 58.1183C69.7155 58.0369 69.6842 57.9458 69.673 57.8513L69.1513 52.8877C69.1303 52.6897 68.9932 52.4755 68.8447 52.4079L66.8284 51.494C66.6828 51.4292 66.5819 51.5358 66.5999 51.732L72.7498 89.841ZM65.3547 56.0597C65.2062 55.9959 65.0682 55.7808 65.0492 55.5808L64.6046 50.8257C64.5855 50.6296 64.4542 50.4192 64.3095 50.3535L62.277 49.43C62.1275 49.3625 62.0199 49.4643 62.038 49.6595L65.3547 56.0597Z" fill="white"/>
<path fill-rule="evenodd" clip-rule="evenodd" d="M74.4491 78.7951C74.3691 79.0864 74.2492 79.3187 74.0911 79.4862C73.9331 79.6547 73.7132 79.7642 73.4324 79.8156C73.161 79.8663 72.8845 79.8839 72.6089 79.868C72.2778 79.8405 71.9503 79.7803 71.6312 79.688C71.2903 79.5986 70.9538 79.4928 70.623 79.371C70.2739 79.239 69.9292 79.0958 69.5892 78.9417C69.1894 78.7627 68.88 78.619 68.6581 78.5085C68.3765 78.3667 68.0959 78.2227 67.8166 78.0763C67.67 78.0002 67.5462 77.9354 67.4453 77.885C67.293 77.806 67.1578 77.588 67.1407 77.3928L66.5009 70.5737C66.4828 70.3805 66.5866 70.2795 66.7351 70.3471C66.8703 70.41 67.0512 70.4918 67.2778 70.5947C67.7281 70.8003 68.0984 70.9745 68.3859 71.1135C68.6743 71.2544 69.0742 71.4705 69.592 71.7647C70.1099 72.0579 70.5526 72.3358 70.9172 72.5957C71.2818 72.8575 71.6864 73.1841 72.1358 73.5772C72.5832 73.9704 72.9583 74.3674 73.2581 74.7672C73.5571 75.1671 73.8246 75.6221 74.0569 76.1333C74.2911 76.6455 74.4377 77.1738 74.4986 77.7193C74.5462 78.1439 74.5291 78.5019 74.4491 78.7951V78.7951ZM65.5071 59.9638C65.5851 60.0009 65.805 60.0999 66.1658 60.2618C66.5276 60.4227 66.8284 60.5569 67.0674 60.6616C67.3073 60.7663 67.6338 60.9358 68.0479 61.1728C68.4639 61.4108 68.819 61.6317 69.1103 61.8402C69.4026 62.0468 69.7291 62.3171 70.0947 62.6503C70.4593 62.9845 70.7611 63.3253 70.9991 63.6718C71.2371 64.0183 71.4503 64.4191 71.6398 64.8713C71.8302 65.3254 71.9539 65.8023 72.0072 66.3002C72.0529 66.7229 72.0415 67.0837 71.9711 67.3817C71.9025 67.6787 71.7711 67.8948 71.5836 68.029C71.4025 68.1583 71.2028 68.2594 70.9915 68.3289C70.7858 68.3975 70.5155 68.4013 70.1823 68.3432C69.8491 68.2842 69.5606 68.2252 69.3122 68.1633C68.9925 68.0765 68.6797 67.9661 68.3764 67.8329C68.0919 67.7128 67.8082 67.5909 67.5253 67.4674C67.332 67.3807 67.0683 67.2541 66.7332 67.0866L66.4143 66.9257C66.2658 66.8533 66.1325 66.6363 66.1144 66.4421L65.5071 59.9638V59.9638ZM60.8423 54.1234C59.6502 53.5711 58.456 53.023 57.26 52.4793C57.0896 52.4022 56.9677 52.4983 56.9887 52.6963L57.3123 55.638C57.3333 55.8341 57.4866 56.0549 57.6522 56.1282C58.3633 56.4453 58.7108 56.6014 59.3943 56.9117C60.294 57.3192 60.8509 58.0417 61.1022 59.0908C61.1079 59.1184 61.1117 59.1451 61.1146 59.1698L61.7067 65.4787C61.821 65.531 61.7067 65.4853 61.7762 65.532L61.7096 65.5015L62.5397 74.3579C62.5422 74.379 62.5432 74.4003 62.5426 74.4217C62.5159 75.1071 62.2284 75.3194 61.6801 75.069C61.1445 74.8214 60.6059 74.5802 60.0645 74.3455C59.936 74.2893 59.8389 74.3674 59.8361 74.5292C59.8131 75.5909 59.7954 76.6527 59.7828 77.7146C59.7799 77.9221 59.9217 78.1706 60.0798 78.2372C61.3871 78.7858 62.6761 79.377 63.9448 80.0098L64.5874 80.3306C64.7369 80.4049 64.8702 80.621 64.8873 80.8152C65.0215 82.2794 65.2262 83.1666 65.3062 84.0348L60.8433 54.1234H60.8423ZM67.748 87.2887C67.9032 87.3668 68.0155 87.2735 67.9965 87.0774L67.5415 82.2127C67.5234 82.0147 67.6348 81.9186 67.7928 82.0004C68.2021 82.2165 68.7286 82.4878 69.3778 82.8172C69.5349 82.8972 69.6796 83.1219 69.6996 83.3189C69.7977 84.3271 68.4811 87.1269 69.2284 88.4949C69.3236 88.6691 69.2998 88.8214 69.4607 88.9033L67.748 87.2887V87.2887ZM72.7498 89.841C72.9145 89.9238 73.0316 89.8315 73.0116 89.6325L72.4851 84.6155C72.4642 84.4251 72.5708 84.328 72.726 84.3956C73.6161 84.7745 74.4196 85.0639 75.1298 85.2581C75.8583 85.466 76.6132 85.567 77.3707 85.558C78.0809 85.5418 78.6674 85.3771 79.1224 85.0687C79.5794 84.764 79.9344 84.2719 80.1886 83.5988C80.4419 82.9267 80.5599 82.0747 80.538 81.0408C80.4866 79.015 79.9944 77.269 79.0767 75.7925C78.3046 74.5502 77.2822 73.4344 76.0618 72.4558C75.8047 72.2483 75.7143 71.8437 75.9094 71.7694C77.2632 71.2525 77.7496 69.7322 77.2584 67.1903C77.0676 66.1686 76.7209 65.1822 76.2303 64.2658C75.7445 63.3571 75.1365 62.5192 74.4234 61.7754C73.7438 61.0593 73.0057 60.4011 72.2167 59.8077C71.4933 59.2698 70.7393 58.7742 69.9586 58.3235C69.8801 58.2697 69.814 58.1997 69.7647 58.1183C69.7155 58.0369 69.6842 57.9458 69.673 57.8513L69.1513 52.8877C69.1303 52.6897 68.9932 52.4755 68.8447 52.4079L66.8284 51.494C66.6828 51.4292 66.5819 51.5358 66.5999 51.732L72.7498 89.841V89.841ZM65.3547 56.0597C65.2062 55.9959 65.0682 55.7808 65.0492 55.5808L64.6046 50.8257C64.5855 50.6296 64.4542 50.4192 64.3095 50.3535L62.277 49.43C62.1275 49.3625 62.0199 49.4643 62.038 49.6595L65.3547 56.0597V56.0597Z" stroke="black" stroke-width="0.817758" stroke-linejoin="round"/>
<path fill-rule="evenodd" clip-rule="evenodd" d="M58.8867 51.3074L62.0759 49.4824L64.3102 50.3535L61.0392 52.2851L58.8867 51.3074Z" fill="white"/>
<path fill-rule="evenodd" clip-rule="evenodd" d="M58.8867 51.3074L62.0759 49.4824L64.3102 50.3535L61.0392 52.2851L58.8867 51.3074Z" stroke="black" stroke-width="0.817758" stroke-linejoin="round"/>
<path fill-rule="evenodd" clip-rule="evenodd" d="M63.4492 53.4132L66.6955 51.4863L69.0203 52.5621L65.754 54.5022L63.4492 53.4132Z" fill="white"/>
<path fill-rule="evenodd" clip-rule="evenodd" d="M63.4492 53.4132L66.6955 51.4863L69.0203 52.5621L65.754 54.5022L63.4492 53.4132Z" stroke="black" stroke-width="0.817758" stroke-linejoin="round"/>
<path fill-rule="evenodd" clip-rule="evenodd" d="M53.7168 54.2661L56.9878 52.3936L59.5392 53.0733L59.3945 56.9117L53.7168 54.2661Z" fill="white"/>
<path fill-rule="evenodd" clip-rule="evenodd" d="M53.7168 54.2661L56.9878 52.3936L59.5392 53.0733L59.3945 56.9117L53.7168 54.2661Z" stroke="black" stroke-width="0.817758" stroke-linejoin="round"/>
<path fill-rule="evenodd" clip-rule="evenodd" d="M69.4357 88.6357L66.9082 90.1266L69.8308 91.942L72.9533 89.8419" fill="white"/>
<path d="M69.4357 88.6357L66.9082 90.1266L69.8308 91.942L72.9533 89.8419" stroke="black" stroke-width="0.817758" stroke-linejoin="round"/>
<path fill-rule="evenodd" clip-rule="evenodd" d="M62.0703 87.6679L64.8844 89.4795L67.6042 87.21" fill="white"/>
<path d="M62.0703 87.6679L64.8844 89.4795L67.6042 87.21" stroke="black" stroke-width="0.817758" stroke-linejoin="round"/>
<path fill-rule="evenodd" clip-rule="evenodd" d="M77.2694 82.9733L75.1465 87.3277C75.1465 87.3277 78.6327 86.291 79.8655 84.2718C81.0983 82.2546 80.3443 79.1406 80.3443 79.1406" fill="white"/>
<path d="M77.2694 82.9733L75.1465 87.3277C75.1465 87.3277 78.6327 86.291 79.8655 84.2718C81.0983 82.2546 80.3443 79.1406 80.3443 79.1406" stroke="black" stroke-width="0.817758" stroke-linejoin="round"/>
<path fill-rule="evenodd" clip-rule="evenodd" d="M71.1808 80.7254C71.1008 81.0186 70.9808 81.249 70.8238 81.4184C70.6648 81.586 70.4449 81.6955 70.164 81.7469C69.8927 81.7975 69.6162 81.8151 69.3406 81.7992C69.0096 81.7718 68.6821 81.7118 68.3629 81.6202C67.9783 81.5165 67.6441 81.4108 67.3538 81.3032C67.0051 81.1704 66.6607 81.0269 66.3209 80.8729C65.7185 80.6086 65.1272 80.3199 64.5483 80.0076L64.177 79.8162C64.0247 79.7372 63.8895 79.5192 63.8714 79.324L63.2326 72.505C63.2136 72.3117 63.3183 72.2108 63.4668 72.2793C63.602 72.3422 63.7829 72.4231 64.0094 72.5268C64.4597 72.7315 64.83 72.9057 65.1175 73.0457C65.406 73.1856 65.8058 73.4017 66.3237 73.6959C66.8416 73.9891 67.2843 74.2671 67.6489 74.5279C68.0135 74.7888 68.4181 75.1153 68.8674 75.5085C69.3149 75.9016 69.6899 76.2986 69.9889 76.6985C70.2888 77.0983 70.5563 77.5533 70.7885 78.0655C71.0218 78.5767 71.1693 79.1051 71.2303 79.6506C71.2779 80.0752 71.2617 80.4331 71.1808 80.7263V80.7254ZM62.2387 61.8941C62.7578 62.129 63.2779 62.3616 63.799 62.5919C64.0389 62.6966 64.3655 62.8661 64.7796 63.1041C65.1966 63.3402 65.5507 63.5629 65.842 63.7705C66.1343 63.977 66.4618 64.2474 66.8264 64.5816C67.19 64.9147 67.4928 65.2556 67.7308 65.6021C67.9688 65.9486 68.183 66.3494 68.3714 66.8016C68.5618 67.2557 68.6856 67.7326 68.7389 68.2305C68.7856 68.6532 68.7732 69.014 68.7027 69.312C68.6342 69.61 68.5028 69.8251 68.3153 69.9593C68.1339 70.089 67.9339 70.1904 67.7222 70.2602C67.5175 70.3268 67.2462 70.3316 66.9139 70.2735C66.5808 70.2154 66.2913 70.1554 66.0438 70.0936C65.7238 70.0069 65.4107 69.8965 65.1071 69.7632C64.823 69.6431 64.5396 69.5213 64.2569 69.3977C64.0637 69.312 63.8 69.1844 63.4649 69.0169C63.3584 68.9632 63.2518 68.9099 63.145 68.8569C62.9975 68.7836 62.8632 68.5675 62.8452 68.3733L62.2387 61.8941ZM75.8084 77.7228C75.0354 76.4805 74.0139 75.3647 72.7934 74.3861C72.5364 74.1785 72.446 73.774 72.6411 73.6997C73.9939 73.1828 74.4813 71.6624 73.9891 69.1206C73.7987 68.0989 73.4522 67.1125 72.9619 66.1961C72.4761 65.2874 71.8682 64.4495 71.1551 63.7057C70.4754 62.9893 69.7369 62.3311 68.9474 61.738C68.2244 61.2004 67.4711 60.7049 66.6912 60.2538C66.6123 60.2002 66.5459 60.1303 66.4963 60.0488C66.4467 59.9674 66.4151 59.8763 66.4037 59.7816L65.8829 54.818C65.862 54.6199 65.724 54.4058 65.5764 54.3382C64.7577 53.9678 64.3579 53.7879 63.5601 53.4242C63.4144 53.3595 63.3126 53.4661 63.3316 53.6622L63.7971 58.406C63.8162 58.6012 63.7153 58.7068 63.5687 58.6411C63.1926 58.4717 62.6985 58.2546 62.0864 57.99C61.9379 57.9272 61.7989 57.7111 61.7808 57.5121L61.3363 52.756C61.3172 52.5598 61.1858 52.3495 61.0411 52.2838C60.2377 51.9192 59.834 51.7373 59.0086 51.3603C58.8582 51.2937 58.7516 51.3946 58.7687 51.5898L59.2133 56.4525C59.2314 56.6448 59.1276 56.7476 58.9801 56.6848C58.5098 56.4787 58.0414 56.2683 57.5749 56.0536C56.3825 55.5014 55.188 54.9533 53.9917 54.4096C53.8213 54.3324 53.6994 54.4286 53.7213 54.6276L54.0431 57.5673C54.065 57.7644 54.2173 57.9852 54.3829 58.0585C55.0941 58.3755 55.4425 58.5317 56.1251 58.842C57.0256 59.2495 57.5835 59.972 57.8339 61.0221C57.8396 61.0487 57.8434 61.0754 57.8463 61.1011L58.4384 67.409C58.5526 67.4623 58.4384 67.4166 58.5079 67.4623C58.4856 67.4516 58.463 67.4415 58.4403 67.4318L59.2714 76.2882C59.2736 76.3093 59.2742 76.3307 59.2733 76.3519C59.2466 77.0374 58.9591 77.2497 58.4117 76.9993C57.8763 76.7513 57.3377 76.5101 56.7962 76.2758C56.6677 76.2206 56.5696 76.2977 56.5668 76.4595C56.5446 77.5212 56.5271 78.583 56.5144 79.6449C56.5106 79.8524 56.6534 80.1009 56.8114 80.1675C58.1187 80.7164 59.4077 81.3075 60.6765 81.9401L61.3201 82.2609C61.4686 82.3361 61.6019 82.5513 61.619 82.7455L62.0693 87.6673C62.0874 87.8615 62.2216 88.0795 62.372 88.1547C63.2002 88.5679 63.6229 88.7821 64.4807 89.219C64.6358 89.2971 64.7472 89.2038 64.7282 89.0096L64.2741 84.143C64.255 83.945 64.3674 83.8488 64.5245 83.9317C64.9338 84.1468 65.4603 84.4181 66.1095 84.7475C66.2666 84.8275 66.4113 85.0522 66.4303 85.2492C66.5293 86.2574 66.8111 89.121 66.9082 90.1263C66.9282 90.3224 67.0739 90.547 67.2348 90.6308C68.122 91.084 68.5714 91.3143 69.4815 91.7713C69.6462 91.8541 69.7633 91.7618 69.7423 91.5628C69.5329 89.5617 69.4281 88.5583 69.2159 86.5458C69.1959 86.3554 69.3015 86.2583 69.4577 86.3259C70.3468 86.7058 71.1512 86.9942 71.8614 87.1884C72.59 87.3963 73.3448 87.4973 74.1024 87.4883C74.8116 87.4721 75.3981 87.3074 75.8541 86.9999C76.311 86.6934 76.6671 86.2022 76.9203 85.5301C77.1726 84.857 77.2916 84.005 77.2697 82.9721C77.2173 80.9453 76.7251 79.1993 75.8084 77.7228Z" fill="white"/>
<path fill-rule="evenodd" clip-rule="evenodd" d="M71.1808 80.7254C71.1008 81.0186 70.9808 81.249 70.8238 81.4184C70.6648 81.586 70.4449 81.6955 70.164 81.7469C69.8927 81.7975 69.6162 81.8151 69.3406 81.7992C69.0096 81.7718 68.6821 81.7119 68.3629 81.6203C67.9783 81.5165 67.6441 81.4108 67.3538 81.3033C67.0051 81.1705 66.6607 81.027 66.3209 80.873C65.7185 80.6086 65.1272 80.3199 64.5483 80.0076L64.177 79.8163C64.0247 79.7372 63.8895 79.5192 63.8714 79.3241L63.2326 72.505C63.2136 72.3117 63.3183 72.2108 63.4668 72.2794C63.602 72.3422 63.7829 72.4231 64.0094 72.5269C64.4597 72.7316 64.83 72.9058 65.1175 73.0457C65.406 73.1857 65.8058 73.4018 66.3237 73.6959C66.8416 73.9891 67.2843 74.2671 67.6489 74.528C68.0135 74.7888 68.4181 75.1153 68.8674 75.5085C69.3149 75.9017 69.69 76.2987 69.9889 76.6985C70.2888 77.0983 70.5563 77.5534 70.7885 78.0655C71.0218 78.5768 71.1693 79.1051 71.2303 79.6506C71.2779 80.0752 71.2617 80.4331 71.1808 80.7263V80.7254ZM62.2387 61.8951C62.7578 62.1299 63.2779 62.3625 63.799 62.5929C64.0389 62.6976 64.3655 62.867 64.7796 63.105C65.1966 63.3411 65.5507 63.5639 65.842 63.7714C66.1343 63.978 66.4618 64.2484 66.8264 64.5825C67.19 64.9157 67.4928 65.2565 67.7308 65.6031C67.9688 65.9496 68.183 66.3504 68.3714 66.8026C68.5618 67.2567 68.6856 67.7336 68.7389 68.2315C68.7856 68.6542 68.7732 69.015 68.7027 69.313C68.6342 69.6109 68.5028 69.8261 68.3153 69.9603C68.1339 70.09 67.9339 70.1914 67.7222 70.2611C67.5175 70.3278 67.2462 70.3325 66.9139 70.2745C66.5808 70.2164 66.2913 70.1564 66.0438 70.0945C65.7238 70.0079 65.4107 69.8974 65.1071 69.7642C64.823 69.6441 64.5396 69.5222 64.2569 69.3986C64.0637 69.313 63.8 69.1854 63.4649 69.0178C63.3584 68.9642 63.2518 68.9109 63.145 68.8579C62.9975 68.7846 62.8632 68.5685 62.8452 68.3743L62.2387 61.8951V61.8951ZM75.8084 77.7238C75.0354 76.4814 74.0139 75.3657 72.7934 74.3871C72.5364 74.1795 72.446 73.7749 72.6411 73.7007C73.9939 73.1837 74.4813 71.6634 73.9891 69.1216C73.7987 68.0999 73.4522 67.1135 72.9619 66.1971C72.4761 65.2884 71.8682 64.4505 71.1551 63.7067C70.4754 62.9903 69.7369 62.3321 68.9474 61.7389C68.2244 61.2014 67.4711 60.7058 66.6912 60.2548C66.6123 60.2012 66.5459 60.1313 66.4963 60.0498C66.4467 59.9684 66.4151 59.8773 66.4037 59.7826L65.8829 54.8189C65.862 54.6209 65.724 54.4067 65.5764 54.3391C64.7577 53.9688 64.3579 53.7889 63.5601 53.4252C63.4144 53.3605 63.3126 53.4671 63.3316 53.6632L63.7971 58.407C63.8162 58.6021 63.7153 58.7078 63.5687 58.6421C63.1926 58.4727 62.6985 58.2556 62.0864 57.991C61.9379 57.9281 61.7989 57.712 61.7808 57.5131L61.3363 52.7569C61.3172 52.5608 61.1858 52.3504 61.0411 52.2847C60.2377 51.9201 59.834 51.7383 59.0086 51.3613C58.8582 51.2947 58.7516 51.3956 58.7687 51.5907L59.2133 56.4535C59.2314 56.6458 59.1276 56.7486 58.9801 56.6858C58.5098 56.4797 58.0414 56.2693 57.5749 56.0546C56.3825 55.5023 55.188 54.9543 53.9917 54.4105C53.8213 54.3334 53.6994 54.4296 53.7213 54.6285L54.0431 57.5683C54.065 57.7653 54.2173 57.9862 54.3829 58.0595C55.0941 58.3765 55.4425 58.5326 56.1251 58.843C57.0256 59.2504 57.5835 59.973 57.8339 61.023C57.8396 61.0497 57.8434 61.0764 57.8463 61.1021L58.4384 67.4099C58.5526 67.4632 58.4384 67.4176 58.5079 67.4632C58.4856 67.4526 58.463 67.4425 58.4403 67.4328L59.2714 76.2891C59.2736 76.3103 59.2742 76.3316 59.2733 76.3529C59.2466 77.0383 58.9591 77.2506 58.4117 77.0003C57.8763 76.7523 57.3377 76.5111 56.7962 76.2768C56.6677 76.2215 56.5696 76.2987 56.5668 76.4605C56.5446 77.5222 56.5271 78.584 56.5144 79.6458C56.5106 79.8534 56.6534 80.1018 56.8114 80.1685C58.1187 80.7173 59.4077 81.3085 60.6765 81.9411L61.3201 82.2619C61.4686 82.3371 61.6019 82.5523 61.619 82.7465L62.0693 87.6682C62.0874 87.8625 62.2216 88.0805 62.372 88.1557C63.2002 88.5688 63.6229 88.783 64.4807 89.22C64.6358 89.2981 64.7472 89.2048 64.7282 89.0106L64.2741 84.144C64.255 83.946 64.3674 83.8498 64.5245 83.9326C64.9338 84.1478 65.4603 84.4191 66.1095 84.7485C66.2666 84.8285 66.4113 85.0531 66.4303 85.2502C66.5293 86.2584 66.8111 89.1219 66.9082 90.1272C66.9282 90.3233 67.0739 90.548 67.2348 90.6318C68.122 91.0849 68.5714 91.3153 69.4815 91.7723C69.6462 91.8551 69.7633 91.7628 69.7423 91.5638C69.5329 89.5627 69.4281 88.5593 69.2159 86.5468C69.1959 86.3564 69.3015 86.2593 69.4577 86.3269C70.3468 86.7067 71.1512 86.9952 71.8614 87.1894C72.59 87.3973 73.3448 87.4983 74.1024 87.4893C74.8116 87.4731 75.3981 87.3084 75.8541 87.0009C76.311 86.6944 76.6671 86.2031 76.9203 85.531C77.1726 84.858 77.2916 84.0059 77.2697 82.973C77.2173 80.9463 76.7251 79.2003 75.8084 77.7238V77.7238Z" stroke="black" stroke-width="0.817758" stroke-linejoin="round"/>
<path fill-rule="evenodd" clip-rule="evenodd" d="M133.617 108.377C133.903 119.79 124.592 125.579 115.596 120.33C105.138 114.23 97.7177 100.485 97.7481 88.4249C97.7748 77.4618 106.503 71.628 116.489 77.6389C127.075 84.0087 133.304 95.9504 133.616 108.377" fill="white"/>
<path fill-rule="evenodd" clip-rule="evenodd" d="M133.617 108.377C133.903 119.79 124.592 125.579 115.596 120.33C105.138 114.23 97.7177 100.485 97.7481 88.4249C97.7748 77.4618 106.503 71.628 116.489 77.6389C127.075 84.0087 133.304 95.9504 133.616 108.377H133.617Z" stroke="black" stroke-width="1.42798" stroke-linejoin="round"/>
<path fill-rule="evenodd" clip-rule="evenodd" d="M108.304 79.6376H98.1543C98.1543 79.6376 103.143 76.3818 106.491 75.4727" fill="white"/>
<path d="M108.304 79.6376H98.1543C98.1543 79.6376 103.143 76.3818 106.491 75.4727" stroke="black" stroke-width="1.42798" stroke-linecap="round" stroke-linejoin="round"/>
<path fill-rule="evenodd" clip-rule="evenodd" d="M129.668 113.066L125.121 123.529C125.121 123.529 131.769 119.126 133.143 113.066" fill="white"/>
<path d="M129.668 113.066L125.121 123.529C125.121 123.529 131.769 119.126 133.143 113.066" stroke="black" stroke-width="1.42798" stroke-linecap="round" stroke-linejoin="round"/>
<path fill-rule="evenodd" clip-rule="evenodd" d="M129.667 113.067C129.953 124.481 119.264 128.775 110.265 123.525C99.8093 117.425 92.3867 103.679 92.4181 91.6196C92.4457 80.6546 100.619 74.8227 110.607 80.8335C121.191 87.2033 129.353 100.642 129.666 113.068" fill="#9595EF"/>
<path fill-rule="evenodd" clip-rule="evenodd" d="M129.667 113.067C129.953 124.481 119.264 128.775 110.265 123.525C99.8093 117.425 92.3867 103.679 92.4181 91.6196C92.4457 80.6546 100.619 74.8227 110.607 80.8335C121.191 87.2033 129.353 100.642 129.666 113.068L129.667 113.067Z" stroke="black" stroke-width="1.42798" stroke-linecap="round" stroke-linejoin="round"/>
<path fill-rule="evenodd" clip-rule="evenodd" d="M111.214 83.7299C113.687 91.0155 116.142 98.3049 118.697 105.562C118.717 105.619 118.704 105.669 118.668 105.672C115.381 105.998 113.813 106.367 110.729 107.045C110.707 107.05 110.681 107.037 110.661 107.01C107.586 103.096 106.13 101.267 102.833 97.151C102.797 97.1063 102.784 97.0435 102.805 97.0111C105.646 92.6133 108.409 88.1659 111.093 83.6709C111.122 83.6214 111.188 83.6547 111.214 83.7299Z" fill="white"/>
<path fill-rule="evenodd" clip-rule="evenodd" d="M111.214 83.7299C113.687 91.0155 116.142 98.3049 118.697 105.562C118.717 105.619 118.704 105.669 118.668 105.672C115.381 105.998 113.813 106.367 110.729 107.045C110.707 107.05 110.681 107.037 110.661 107.01C107.586 103.096 106.13 101.267 102.833 97.151C102.797 97.1063 102.784 97.0435 102.805 97.0111C105.646 92.6133 108.409 88.1659 111.093 83.6709C111.122 83.6214 111.188 83.6547 111.214 83.7299V83.7299Z" stroke="black" stroke-width="0.711135"/>
<path fill-rule="evenodd" clip-rule="evenodd" d="M103.46 100.024C106.442 103.748 107.785 103.6 110.622 107.189C110.673 107.256 110.695 108.355 110.744 107.586C113.587 107.621 115.411 107.912 118.013 107.846C118.187 107.827 118.375 108.197 118.26 108.332C115.146 111.99 113.579 113.896 110.628 117.861C110.557 117.957 110.412 117.88 110.345 117.711C108.029 111.856 105.702 106.007 103.226 100.219C103.115 99.962 103.292 99.8135 103.46 100.024Z" fill="white"/>
<path fill-rule="evenodd" clip-rule="evenodd" d="M103.46 100.024C106.442 103.748 107.785 103.6 110.622 107.189C110.673 107.256 110.695 108.355 110.744 107.586C113.587 107.621 115.411 107.912 118.013 107.846C118.187 107.827 118.375 108.197 118.26 108.332C115.146 111.99 113.579 113.896 110.628 117.861C110.557 117.957 110.412 117.88 110.345 117.711C108.029 111.856 105.702 106.007 103.226 100.219C103.115 99.962 103.292 99.8135 103.46 100.024V100.024Z" stroke="black" stroke-width="0.711135"/>
<path fill-rule="evenodd" clip-rule="evenodd" d="M110.551 117.676L107.157 119.748C107.092 119.788 107.019 119.707 107.065 119.645L114.792 110.134L118.083 107.967" fill="white"/>
<path d="M110.63 117.861L107.155 119.949C107.089 119.99 107.017 119.908 107.064 119.848L114.612 110.243L118.081 108.17" stroke="black" stroke-width="0.711135" stroke-linecap="round" stroke-linejoin="round"/>
<path fill-rule="evenodd" clip-rule="evenodd" d="M107.568 85.8388L111.093 83.6359C111.101 83.6311 111.109 83.6282 111.119 83.6273C111.128 83.6263 111.137 83.6275 111.146 83.6306C111.154 83.6337 111.162 83.6387 111.169 83.6452C111.175 83.6517 111.18 83.6596 111.183 83.6683L118.695 105.562C118.731 105.67 118.597 105.714 118.5 105.772L115.073 107.794L107.622 86.3434C107.532 86.0844 107.336 85.9826 107.568 85.8388Z" fill="white"/>
<path fill-rule="evenodd" clip-rule="evenodd" d="M107.568 85.8388L111.093 83.6359C111.101 83.6311 111.109 83.6282 111.119 83.6273C111.128 83.6263 111.137 83.6275 111.146 83.6306C111.154 83.6337 111.162 83.6387 111.169 83.6452C111.175 83.6517 111.18 83.6596 111.183 83.6683L118.695 105.562C118.731 105.67 118.597 105.714 118.5 105.772L115.073 107.794L107.622 86.3434C107.532 86.0844 107.336 85.9826 107.568 85.8388V85.8388Z" stroke="black" stroke-width="0.711135"/>
<path fill-rule="evenodd" clip-rule="evenodd" d="M107.46 112.608L99.5684 102.154L107.46 112.608Z" fill="white"/>
<path d="M107.46 112.608L99.5684 102.154" stroke="black" stroke-width="0.711135" stroke-linecap="round" stroke-linejoin="round"/>
<path fill-rule="evenodd" clip-rule="evenodd" d="M99.5684 102.155L102.796 99.9238L113.901 107.047" fill="white"/>
<path d="M99.5684 102.155L102.796 99.9238L113.901 107.047" stroke="black" stroke-width="0.711135" stroke-linecap="round" stroke-linejoin="round"/>
<path fill-rule="evenodd" clip-rule="evenodd" d="M114.213 107.047L103.107 99.9238L99.8809 102.154L107.167 111.347L114.213 107.047Z" fill="white"/>
<path fill-rule="evenodd" clip-rule="evenodd" d="M107.593 85.9595C110.067 93.2451 112.522 100.534 115.076 107.792C115.097 107.85 115.084 107.898 115.047 107.903C111.76 108.227 110.192 108.596 107.107 109.275C107.086 109.279 107.061 109.266 107.04 109.239C103.965 105.327 102.509 103.499 99.2116 99.3816C99.1755 99.3369 99.1631 99.274 99.184 99.2417C102.025 94.8435 104.788 90.3958 107.472 85.9005C107.501 85.8529 107.567 85.8843 107.593 85.9595Z" fill="white"/>
<path fill-rule="evenodd" clip-rule="evenodd" d="M107.593 85.9595C110.067 93.2451 112.522 100.534 115.076 107.792C115.097 107.85 115.084 107.898 115.047 107.903C111.76 108.227 110.192 108.596 107.107 109.275C107.086 109.279 107.061 109.266 107.04 109.239C103.965 105.327 102.509 103.499 99.2116 99.3816C99.1755 99.3369 99.1631 99.274 99.184 99.2417C102.025 94.8435 104.788 90.3958 107.472 85.9005C107.501 85.8529 107.567 85.8843 107.593 85.9595V85.9595Z" stroke="black" stroke-width="0.711135"/>
<path fill-rule="evenodd" clip-rule="evenodd" d="M99.8363 102.252C102.818 105.978 104.162 107.667 106.998 111.258C107.05 111.324 107.114 111.358 107.168 111.345C109.967 110.725 111.394 110.403 114.389 110.075C114.564 110.056 114.751 110.426 114.637 110.561C111.522 114.22 109.956 116.126 107.006 120.09C106.934 120.186 106.789 120.109 106.721 119.94C104.406 114.086 102.079 108.236 99.6031 102.448C99.4917 102.191 99.6697 102.043 99.8363 102.253" fill="white"/>
<path fill-rule="evenodd" clip-rule="evenodd" d="M99.8363 102.252C102.818 105.978 104.162 107.667 106.998 111.258C107.05 111.324 107.114 111.358 107.168 111.345C109.967 110.725 111.394 110.403 114.389 110.075C114.564 110.056 114.751 110.426 114.637 110.561C111.522 114.22 109.956 116.126 107.006 120.09C106.934 120.186 106.789 120.109 106.721 119.94C104.406 114.086 102.079 108.236 99.6031 102.448C99.4917 102.191 99.6697 102.043 99.8363 102.253V102.252Z" stroke="black" stroke-width="0.711135"/>
<path fill-rule="evenodd" clip-rule="evenodd" d="M40.7754 71.6468L41.6379 131.31C41.6378 132.288 41.896 133.249 42.3865 134.096C42.8769 134.942 43.5822 135.644 44.431 136.131L110.266 173.814C113.419 175.62 117.526 169.591 117.396 167.595L118.71 108.146C118.728 106.126 116.84 105.001 115.086 104.008L46.2408 65.2399C46.2408 65.2399 46.4369 63.9329 48.6778 62.7695" fill="white"/>
<path d="M40.7754 71.6468L41.6379 131.31C41.6378 132.288 41.896 133.249 42.3865 134.096C42.8769 134.942 43.5822 135.644 44.431 136.131L110.266 173.814C113.419 175.62 117.526 169.591 117.396 167.595L118.71 108.146C118.728 106.126 116.84 105.001 115.086 104.008L46.2408 65.2399C46.2408 65.2399 46.4369 63.9329 48.6778 62.7695" stroke="black" stroke-width="1.42798" stroke-linejoin="round"/>
<path fill-rule="evenodd" clip-rule="evenodd" d="M108.706 175.538C112.719 174.96 118.293 170.346 118.293 170.346V106.6L110.734 109.322C110.734 109.322 104.016 176.214 108.706 175.538Z" fill="white"/>
<path fill-rule="evenodd" clip-rule="evenodd" d="M108.706 175.538C112.719 174.96 118.293 170.346 118.293 170.346V106.6L110.734 109.322C110.734 109.322 104.016 176.214 108.706 175.538Z" stroke="black" stroke-width="1.42798" stroke-linejoin="round"/>
<path fill-rule="evenodd" clip-rule="evenodd" d="M35.8789 73.3964V132.777C35.8785 133.755 36.1366 134.716 36.6271 135.563C37.1176 136.41 37.823 137.112 38.672 137.598L104.506 175.283C107.66 177.088 111.588 174.828 111.619 171.189L112.142 111.93C112.159 109.912 112.484 108.697 110.729 107.704L37.8667 65.7891C37.8667 65.7891 35.8789 69.1439 35.8789 73.3954" fill="white"/>
<path fill-rule="evenodd" clip-rule="evenodd" d="M35.8789 73.3964V132.777C35.8785 133.755 36.1366 134.716 36.6271 135.563C37.1176 136.41 37.823 137.112 38.672 137.598L104.506 175.283C107.66 177.088 111.588 174.828 111.619 171.189L112.142 111.93C112.159 109.912 112.484 108.697 110.729 107.704L37.8667 65.7891C37.8667 65.7891 35.8789 69.1439 35.8789 73.3954V73.3964Z" stroke="black" stroke-width="1.42798" stroke-linejoin="round"/>
<path fill-rule="evenodd" clip-rule="evenodd" d="M87.396 144.356C95.012 148.028 103.685 152.007 110.997 156.081C111.567 145.876 110.739 135.671 111.307 125.465C103.959 121.603 98.4743 118.754 91.1031 114.921C83.63 110.653 74.2891 118.486 74.4224 124.665L74.3652 125.893C74.4985 133.732 79.485 139.493 87.396 144.356Z" fill="white"/>
<path fill-rule="evenodd" clip-rule="evenodd" d="M87.396 144.356C95.012 148.028 103.685 152.007 110.997 156.081C111.567 145.876 110.739 135.671 111.307 125.465C103.959 121.603 98.4743 118.754 91.1031 114.921C83.63 110.653 74.2891 118.486 74.4224 124.665L74.3652 125.893C74.4985 133.732 79.485 139.493 87.396 144.356V144.356Z" stroke="black" stroke-width="1.42798" stroke-linejoin="round"/>
<path fill-rule="evenodd" clip-rule="evenodd" d="M94.9625 132.536C94.6265 136.428 91.7648 138.276 88.5909 136.683C85.4169 135.088 82.8104 130.421 82.9827 126.409C83.154 122.395 86.1309 120.631 89.4914 122.363C92.852 124.096 95.2986 128.643 94.9625 132.535" fill="white"/>
<path fill-rule="evenodd" clip-rule="evenodd" d="M94.9625 132.536C94.6265 136.428 91.7648 138.276 88.5909 136.683C85.4169 135.088 82.8104 130.421 82.9827 126.409C83.154 122.395 86.1309 120.631 89.4914 122.363C92.852 124.096 95.2986 128.643 94.9625 132.535V132.536Z" stroke="black" stroke-width="1.67074" stroke-linejoin="round"/>
<path fill-rule="evenodd" clip-rule="evenodd" d="M87.2181 147.938C95.0654 151.622 104.001 155.614 111.535 159.699C112.107 149.494 111.24 139.287 111.811 129.081C104.239 125.209 96.6438 121.366 89.0478 117.524C81.3463 113.243 74.5062 119.024 74.6509 125.203L74.5957 126.431C74.7442 134.271 79.0643 143.064 87.2172 147.939" fill="white"/>
<path fill-rule="evenodd" clip-rule="evenodd" d="M87.2181 147.938C95.0654 151.622 104.001 155.614 111.535 159.699C112.107 149.494 111.24 139.287 111.811 129.081C104.239 125.209 96.6438 121.366 89.0478 117.524C81.3463 113.243 74.5062 119.024 74.6509 125.203L74.5957 126.431C74.7442 134.271 79.0643 143.064 87.2172 147.939L87.2181 147.938Z" stroke="black" stroke-width="1.42798" stroke-linejoin="round"/>
<path fill-rule="evenodd" clip-rule="evenodd" d="M94.9898 136.129C94.649 140.02 91.7054 141.865 88.4353 140.267C85.1653 138.668 82.474 133.997 82.6444 129.984C82.8157 125.97 85.8793 124.212 89.3407 125.947C92.804 127.684 95.3306 132.237 94.9898 136.129Z" fill="#9595EF"/>
<path fill-rule="evenodd" clip-rule="evenodd" d="M94.9898 136.129C94.649 140.02 91.7054 141.865 88.4353 140.267C85.1653 138.668 82.474 133.997 82.6444 129.984C82.8157 125.97 85.8793 124.212 89.3407 125.947C92.804 127.684 95.3306 132.237 94.9898 136.129V136.129Z" stroke="black" stroke-width="1.42798" stroke-linejoin="round"/>
<path fill-rule="evenodd" clip-rule="evenodd" d="M111.811 125.885L137.999 113.583L137.605 142.398L111.535 156.502L111.811 125.885Z" fill="white"/>
<path fill-rule="evenodd" clip-rule="evenodd" d="M111.811 125.885L137.999 113.583L137.605 142.398L111.535 156.502L111.811 125.885Z" stroke="black" stroke-width="1.69549" stroke-linejoin="round"/>
<path fill-rule="evenodd" clip-rule="evenodd" d="M111.811 129.082L137.999 116.78L137.605 145.595L111.535 159.7L111.811 129.082Z" fill="white"/>
<path fill-rule="evenodd" clip-rule="evenodd" d="M111.811 129.082L137.999 116.78L137.605 145.595L111.535 159.7L111.811 129.082Z" stroke="black" stroke-width="1.42798" stroke-linejoin="round"/>
<path fill-rule="evenodd" clip-rule="evenodd" d="M110.371 129.148C110.371 129.148 111.328 129.683 111.778 129.683C112.229 129.683 112.935 129.333 112.935 129.333L112.668 158.311C112.668 158.311 112.24 158.601 111.655 158.635C111.28 158.655 110.725 158.503 110.551 158.329C110.029 157.812 110.372 129.148 110.372 129.148H110.371ZM110.528 125.845C110.528 125.845 111.689 126.316 112.14 126.316C112.591 126.316 113.172 126.026 113.172 126.026L113.388 127.562C113.388 127.562 112.507 128.086 111.921 128.086C111.546 128.089 110.651 127.732 109.75 127.238L110.528 125.845Z" fill="white"/>
<path fill-rule="evenodd" clip-rule="evenodd" d="M53.9603 126.661C54.323 141.032 42.5802 148.321 31.2315 141.712C18.0427 134.031 8.68274 116.724 8.72082 101.539C8.75604 87.7336 19.7639 80.39 32.3596 87.9583C45.7094 95.9788 53.5661 111.014 53.9603 126.66" fill="white"/>
<path fill-rule="evenodd" clip-rule="evenodd" d="M53.9631 127.367C53.9631 142.599 42.5802 148.32 31.2315 141.712C18.0427 134.031 8.68274 116.724 8.72082 101.539C8.75604 87.7336 19.7639 80.39 32.3596 87.9583C45.7094 95.9798 53.9631 111.711 53.9631 127.367Z" stroke="black" stroke-width="1.42798" stroke-linejoin="round"/>
<path fill-rule="evenodd" clip-rule="evenodd" d="M22.0348 90.4749H9.23242C9.23242 90.4749 15.5232 86.3747 19.7471 85.2295" fill="white"/>
<path d="M22.0348 90.4749H9.23242C9.23242 90.4749 15.5232 86.3747 19.7471 85.2295" stroke="black" stroke-width="1.42798" stroke-linecap="round" stroke-linejoin="round"/>
<path fill-rule="evenodd" clip-rule="evenodd" d="M48.9798 132.568C49.3415 146.938 35.8595 152.343 24.5108 145.734C11.321 138.054 1.96204 120.744 2.00012 105.562C2.03344 91.7573 12.3435 84.4127 24.9411 91.98C38.2909 100.001 48.5857 116.921 48.9788 132.568" fill="#9595EF"/>
<path fill-rule="evenodd" clip-rule="evenodd" d="M48.9798 132.568C49.3415 146.938 35.8595 152.343 24.5108 145.734C11.321 138.054 1.96204 120.744 2.00012 105.562C2.03344 91.7573 12.3435 84.4127 24.9411 91.98C38.2909 100.001 48.5857 116.921 48.9788 132.568H48.9798Z" stroke="black" stroke-width="1.42798" stroke-linecap="round" stroke-linejoin="round"/>
<path fill-rule="evenodd" clip-rule="evenodd" d="M25.7082 95.6271C28.8279 104.8 31.9247 113.978 35.1462 123.116C35.1719 123.188 35.1557 123.251 35.111 123.255C30.9641 123.665 28.9859 124.128 25.0961 124.984C25.0694 124.989 25.0361 124.972 25.0104 124.939C21.7437 120.782 18.4526 116.645 15.1373 112.527C15.0926 112.47 15.0764 112.39 15.1021 112.35C18.6847 106.813 22.1695 101.213 25.5549 95.5529C25.5901 95.491 25.6758 95.5319 25.7072 95.6271" fill="white"/>
<path fill-rule="evenodd" clip-rule="evenodd" d="M25.7082 95.6271C28.8279 104.8 31.9247 113.978 35.1462 123.116C35.1719 123.188 35.1557 123.251 35.111 123.255C30.9641 123.665 28.9859 124.128 25.0961 124.984C25.0694 124.989 25.0361 124.972 25.0104 124.939C21.7437 120.782 18.4526 116.645 15.1373 112.527C15.0926 112.47 15.0764 112.39 15.1021 112.35C18.6847 106.813 22.1695 101.213 25.5549 95.5529C25.5901 95.491 25.6758 95.5319 25.7072 95.6271H25.7082Z" stroke="black" stroke-width="0.739695"/>
<path fill-rule="evenodd" clip-rule="evenodd" d="M15.9251 116.142C19.6854 120.832 21.38 120.644 24.9576 125.166C25.0232 125.249 25.0508 126.632 25.1108 125.665C28.6989 125.708 30.9979 126.074 34.2794 125.992C34.4993 125.968 34.7373 126.433 34.5917 126.601C30.6628 131.209 28.6874 133.61 24.9671 138.602C24.8766 138.722 24.6929 138.625 24.6091 138.412C21.6884 131.041 18.7534 123.675 15.629 116.388C15.49 116.064 15.7137 115.879 15.9251 116.141" fill="white"/>
<path fill-rule="evenodd" clip-rule="evenodd" d="M15.9251 116.142C19.6854 120.832 21.38 120.644 24.9575 125.166C25.0232 125.249 25.0508 126.632 25.1108 125.665C28.6989 125.708 30.9979 126.074 34.2794 125.992C34.4993 125.968 34.7373 126.433 34.5917 126.601C30.6628 131.209 28.6874 133.61 24.9671 138.602C24.8766 138.722 24.6929 138.625 24.6091 138.412C21.6884 131.041 18.7534 123.675 15.629 116.388C15.49 116.064 15.7137 115.879 15.9251 116.141V116.142Z" stroke="black" stroke-width="0.739695"/>
<path fill-rule="evenodd" clip-rule="evenodd" d="M24.8639 138.37L20.5828 140.978C20.5 141.027 20.4096 140.927 20.4676 140.849L30.2132 128.875L34.3638 126.146" fill="white"/>
<path d="M24.9662 138.602L20.5833 141.231C20.5005 141.281 20.41 141.181 20.4671 141.103L29.987 129.011L34.3643 126.4" stroke="black" stroke-width="0.739695" stroke-linecap="round" stroke-linejoin="round"/>
<path fill-rule="evenodd" clip-rule="evenodd" d="M21.1091 98.2816L25.5549 95.5084C25.5648 95.5024 25.576 95.4986 25.5875 95.4975C25.5991 95.4963 25.6108 95.4977 25.6217 95.5016C25.6327 95.5056 25.6426 95.5119 25.6508 95.5201C25.659 95.5284 25.6653 95.5384 25.6691 95.5494L35.1423 123.115C35.188 123.25 35.0186 123.306 34.8958 123.379L30.5737 125.924L21.1757 98.9175C21.0624 98.5919 20.8159 98.4615 21.1091 98.2816Z" fill="white"/>
<path fill-rule="evenodd" clip-rule="evenodd" d="M21.1091 98.2816L25.5549 95.5084C25.5648 95.5024 25.576 95.4986 25.5875 95.4975C25.5991 95.4963 25.6108 95.4977 25.6217 95.5016C25.6327 95.5056 25.6426 95.5119 25.6508 95.5201C25.659 95.5284 25.6653 95.5384 25.6691 95.5494L35.1423 123.115C35.188 123.25 35.0186 123.306 34.8958 123.379L30.5737 125.924L21.1757 98.9175C21.0624 98.5919 20.8159 98.4615 21.1091 98.2816Z" stroke="black" stroke-width="0.739695"/>
<path fill-rule="evenodd" clip-rule="evenodd" d="M20.9716 131.988L11.0176 118.825L20.9716 131.988Z" fill="white"/>
<path d="M20.9716 131.988L11.0176 118.825" stroke="black" stroke-width="0.739695" stroke-linecap="round" stroke-linejoin="round"/>
<path fill-rule="evenodd" clip-rule="evenodd" d="M11.0176 118.826L15.0864 116.018L29.0939 124.985" fill="white"/>
<path d="M11.0176 118.826L15.0864 116.018L29.0939 124.985" stroke="black" stroke-width="0.739695" stroke-linecap="round" stroke-linejoin="round"/>
<path fill-rule="evenodd" clip-rule="evenodd" d="M29.4885 124.985L15.4809 116.017L11.4121 118.825L20.6026 130.399L29.4885 124.985Z" fill="white"/>
<path fill-rule="evenodd" clip-rule="evenodd" d="M21.1385 98.4363C24.2591 107.61 27.355 116.787 30.5765 125.926C30.6022 125.998 30.586 126.061 30.5403 126.065C26.3944 126.474 24.4162 126.938 20.5254 127.793C20.4997 127.799 20.4674 127.783 20.4397 127.748C17.1735 123.591 13.8827 119.454 10.5676 115.336C10.5219 115.279 10.5057 115.199 10.5324 115.159C14.1154 109.622 17.6002 104.022 20.9852 98.362C21.0214 98.3001 21.1071 98.343 21.1376 98.4363" fill="white"/>
<path fill-rule="evenodd" clip-rule="evenodd" d="M21.1385 98.4363C24.2591 107.61 27.355 116.787 30.5765 125.926C30.6022 125.998 30.586 126.061 30.5403 126.065C26.3944 126.474 24.4162 126.938 20.5254 127.793C20.4997 127.799 20.4674 127.783 20.4397 127.748C17.1735 123.591 13.8827 119.454 10.5676 115.336C10.5219 115.279 10.5057 115.199 10.5324 115.159C14.1154 109.622 17.6002 104.022 20.9852 98.362C21.0214 98.3001 21.1071 98.343 21.1376 98.4363H21.1385Z" stroke="black" stroke-width="0.739695"/>
<path fill-rule="evenodd" clip-rule="evenodd" d="M11.3566 118.951C15.117 123.64 16.8115 125.768 20.3881 130.289C20.4548 130.372 20.5366 130.414 20.6033 130.398C24.1352 129.618 25.9344 129.211 29.711 128.801C29.9309 128.776 30.1689 129.242 30.0232 129.411C26.0944 134.018 24.119 136.418 20.3986 141.411C20.3082 141.531 20.1244 141.433 20.0397 141.222C17.12 133.849 14.185 126.484 11.0606 119.197C10.9216 118.872 11.1462 118.687 11.3566 118.951Z" fill="white"/>
<path fill-rule="evenodd" clip-rule="evenodd" d="M11.3566 118.951C15.117 123.64 16.8115 125.768 20.3881 130.289C20.4548 130.372 20.5366 130.414 20.6033 130.398C24.1352 129.618 25.9344 129.211 29.711 128.801C29.9309 128.776 30.1689 129.242 30.0232 129.411C26.0944 134.018 24.119 136.418 20.3986 141.411C20.3082 141.531 20.1244 141.433 20.0397 141.222C17.12 133.849 14.185 126.484 11.0606 119.197C10.9216 118.872 11.1462 118.687 11.3566 118.951Z" stroke="black" stroke-width="0.739695"/>
</g>
<defs>
<clipPath id="clip0">
<rect width="140" height="140" fill="white"/>
</clipPath>
</defs>
</svg>
