<svg width="84" height="82" viewBox="0 0 84 82" fill="none" xmlns="http://www.w3.org/2000/svg">
<path d="M40.3134 81.6597C42.9883 81.3349 45.7337 80.7176 48.4804 79.8437C48.3958 79.5821 48.5384 79.3009 48.7999 79.2148C51.1095 78.4552 53.4188 77.5133 55.6855 76.4108C55.9332 76.2903 56.2315 76.3928 56.3529 76.6398C58.8341 75.4068 61.2597 73.9843 63.5752 72.4006C63.4189 72.1741 63.475 71.8636 63.7011 71.7062C65.7452 70.2832 67.6985 68.7339 69.5224 67.0787C69.7263 66.8936 70.0414 66.9083 70.2272 67.1112C72.3096 65.1868 74.219 63.1238 75.8972 60.9526C75.6788 60.7857 75.6359 60.4735 75.8018 60.2539C77.3237 58.239 78.6413 56.1357 79.709 53.9687C79.8305 53.7221 80.1282 53.62 80.3753 53.7396C81.598 51.1659 82.4741 48.5021 82.9286 45.7872C82.6579 45.7445 82.4717 45.4916 82.5119 45.22C82.6918 44.0059 82.7851 42.7828 82.7851 41.5542C82.7851 40.1007 82.706 38.6666 82.5522 37.2562C82.5223 36.9828 82.719 36.7368 82.9919 36.7053C82.5844 33.3613 81.7611 30.1521 80.5775 27.1356C80.3225 27.2376 80.0326 27.1146 79.9288 26.8599C78.8347 24.1736 77.4497 21.6469 75.815 19.3224C75.6568 19.0974 75.7101 18.787 75.9337 18.6276C73.9885 15.937 71.7095 13.5223 69.1604 11.4502C68.9887 11.6644 68.6759 11.7002 68.4602 11.5296C66.2134 9.7528 63.7614 8.24316 61.1482 7.04571C60.8983 6.93116 60.7879 6.63642 60.9005 6.38606C57.9184 5.06967 54.7344 4.15152 51.4103 3.69578C51.375 3.96802 51.1265 4.16114 50.8535 4.12764C49.4471 3.95501 48.0158 3.86621 46.5644 3.86621C45.113 3.86621 43.6817 3.95502 42.2753 4.12764C42.0024 4.16114 41.7539 3.96802 41.7185 3.69578C38.3944 4.15152 35.2104 5.06967 32.2283 6.38606C32.341 6.63642 32.2306 6.93116 31.9806 7.04571C29.3674 8.24316 26.9155 9.7528 24.6686 11.5296C24.4529 11.7002 24.1401 11.6644 23.9684 11.4502C21.4194 13.5223 19.1403 15.937 17.1951 18.6276C17.4188 18.787 17.4721 19.0974 17.3139 19.3223C15.6792 21.6469 14.2941 24.1736 13.2 26.8599C13.0962 27.1146 12.8063 27.2376 12.5513 27.1356C11.3677 30.1521 10.5444 33.3612 10.137 36.7053C10.4098 36.7368 10.6065 36.9828 10.5767 37.2562C10.4228 38.6666 10.3438 40.1007 10.3438 41.5542C10.3438 42.8747 10.4918 44.1221 10.7654 45.3051C10.8271 45.5717 10.663 45.8378 10.3983 45.9032C11.1526 48.7698 12.6276 51.2725 14.5199 53.52C14.7279 53.3415 15.0413 53.3637 15.222 53.5705C16.8683 55.4549 18.8152 57.1641 20.8778 58.7683C21.0953 58.9375 21.1349 59.2506 20.9667 59.4685C22.7356 60.824 24.5694 62.0995 26.3492 63.3373C26.9321 63.7427 27.5092 64.1441 28.0763 64.543C28.0765 64.5428 28.0766 64.5426 28.0768 64.5424C28.2363 64.3169 28.5483 64.2635 28.7737 64.423C31.0754 66.0516 33.2223 67.6636 34.9013 69.3533C35.0959 69.5492 35.0949 69.8658 34.899 70.0604C34.8976 70.0618 34.8962 70.0632 34.8948 70.0646C37.1359 72.4334 38.3862 74.9498 37.824 77.9077C37.8288 77.9087 37.8337 77.9099 37.8385 77.9111C38.1062 77.979 38.2682 78.251 38.2003 78.5187C37.9641 79.45 37.5624 80.4119 36.981 81.4114C37.896 81.3856 38.8243 81.3212 39.7629 81.2196C40.0363 81.19 40.2821 81.3868 40.3134 81.6597Z" fill="#F7F7FE" stroke="black" stroke-linecap="round" stroke-linejoin="round" stroke-dasharray="8 10"/>
<path fill-rule="evenodd" clip-rule="evenodd" d="M52.1738 6.35256C51.5678 5.98446 50.9481 5.63956 50.3145 5.31784C49.6669 4.99688 49.0003 4.68376 48.3238 4.41217C48.1101 4.32127 47.8999 4.23824 47.684 4.15408C47.0931 3.92962 46.4978 3.68609 45.888 3.50541C41.5268 2.06498 36.9192 1.54074 32.3495 1.96491C27.7797 2.38907 23.3446 3.75268 19.3174 5.97172C15.2901 8.19075 11.7562 11.2181 8.93343 14.8673C6.11069 18.5165 4.05889 22.7101 2.9046 27.1895C1.75031 31.669 1.51801 36.3394 2.2219 40.913C2.9258 45.4865 4.55116 49.8661 6.99753 53.7819C9.44391 57.6977 12.6596 61.0668 16.4464 63.6813C20.2331 66.2957 24.5106 68.1003 29.0153 68.9837V78.69C49.1338 75.6296 66.9488 59.5241 68.2763 38.3786C69.0764 25.6555 62.785 12.6664 52.1738 6.35256Z" fill="#23D96C"/>
<path d="M27.2036 80.815V70.4589C18.762 68.4299 11.353 63.3454 6.38308 56.1708C1.41312 48.9961 -0.771858 40.2306 0.243142 31.5385C1.25814 22.8464 5.40228 14.8328 11.889 9.01894C18.3756 3.20505 26.7533 -0.00439321 35.4313 4.93713e-05C39.1755 -0.00625881 42.8965 0.59197 46.4531 1.77207C46.9283 1.91123 47.4221 2.10093 47.8995 2.28498L48.3146 2.44321C48.5983 2.55543 48.8121 2.63967 49.0302 2.73281C49.6288 2.97298 50.3021 3.27822 51.1122 3.67999C51.7962 4.02714 52.4585 4.3956 53.0995 4.7854C64.1157 11.3405 70.9389 24.8861 70.0833 38.4958C68.7669 59.4382 51.6116 77.1015 29.2832 80.4974L27.2036 80.815ZM35.477 3.653H35.4335C27.5278 3.65044 19.9049 6.61866 14.052 11.9784C8.199 17.3382 4.53584 24.705 3.77753 32.6414C3.01921 40.5779 5.21989 48.5147 9.95034 54.903C14.6808 61.2914 21.6016 65.673 29.3623 67.1931L30.8255 67.4814V76.5213C50.4532 72.6405 65.3017 56.8504 66.469 38.2646C67.2401 25.9916 61.128 13.7994 51.2535 7.92778L51.2377 7.91764C50.6747 7.58096 50.0894 7.24983 49.4996 6.95019C48.7908 6.60004 48.201 6.32964 47.6558 6.11192C47.4332 6.01653 47.2497 5.94471 47.0627 5.87177L46.6099 5.69888C46.1804 5.53391 45.7731 5.37677 45.3803 5.26118C42.185 4.19709 38.8419 3.65421 35.477 3.653Z" fill="#173647"/>
<path fill-rule="evenodd" clip-rule="evenodd" d="M28.718 18.5255C29.2237 18.4626 29.737 18.5261 30.2127 18.7105C30.6883 18.8948 31.1115 19.1944 31.4452 19.5827C31.9623 20.1523 32.3857 20.8017 32.6992 21.5063C33.812 23.9752 34.4688 27.5205 33.0945 29.508C31.6481 29.1351 30.2928 28.4667 29.113 27.5442C27.9331 26.6216 26.9539 25.4645 26.2355 24.1446C25.8719 23.4214 25.6676 22.6274 25.6367 21.8171C25.6602 20.9827 25.9873 20.1862 26.5555 19.5792C27.1237 18.9722 27.8933 18.5971 28.718 18.5255Z" fill="#173647"/>
<path fill-rule="evenodd" clip-rule="evenodd" d="M20.6412 26.9567C20.8264 26.9415 21.0124 26.9415 21.1976 26.9567C22.0547 26.9717 22.8996 27.1626 23.6812 27.5178C26.1537 28.5862 28.911 31.1977 29.4451 33.5141C27.3242 34.9394 23.5041 34.8226 21.0305 33.7542C20.2938 33.3933 19.5916 32.9647 18.933 32.4738C18.4322 32.0927 18.0605 31.5648 17.8686 30.9624C17.6767 30.3601 17.674 29.7126 17.861 29.1086C18.0479 28.5047 18.4155 27.9737 18.9131 27.5885C19.4108 27.2033 20.0144 26.9827 20.6412 26.9567Z" fill="#173647"/>
<path fill-rule="evenodd" clip-rule="evenodd" d="M23.6739 44.7727C22.8986 45.1464 22.0496 45.3382 21.1903 45.3338C20.527 45.4121 19.8563 45.2744 19.2762 44.9409C18.696 44.6074 18.2367 44.0956 17.9654 43.4802C17.6941 42.8647 17.625 42.1779 17.7681 41.52C17.9113 40.8622 18.2591 40.2678 18.7611 39.8235C19.3663 39.2556 20.0805 38.8191 20.8597 38.5408C21.7683 38.151 22.7434 37.9432 23.7307 37.9291C25.3386 37.9 28.0992 37.5386 29.4379 38.4375C29.084 40.7494 26.1464 43.7043 23.6739 44.7727Z" fill="#173647"/>
<path fill-rule="evenodd" clip-rule="evenodd" d="M33.8704 50.5088C33.5335 51.2515 33.1276 51.9602 32.6577 52.6253C30.8906 54.9417 26.7945 53.3156 26.9703 50.2855C26.9861 49.4928 27.1761 48.7136 27.5267 48.004C28.586 45.5092 31.4679 42.4453 33.9416 41.9111C35.3525 44.049 34.9309 48.1935 33.8704 50.5088Z" fill="#173647"/>
<path fill-rule="evenodd" clip-rule="evenodd" d="M38.1916 21.4462C38.5296 20.7034 38.9368 19.9947 39.4078 19.3297C39.7419 18.9299 40.1683 18.6193 40.6496 18.4251C41.1309 18.2309 41.6522 18.1592 42.1674 18.2163C43.0176 18.2706 43.8143 18.6544 44.3905 19.2873C44.9666 19.9203 45.2776 20.7533 45.2587 21.6123C45.2427 22.4236 45.0529 23.2219 44.7023 23.9523C44.0859 25.2701 43.1999 26.4414 42.1025 27.3892C41.0051 28.337 39.7212 29.0398 38.3353 29.4514C36.7496 27.4953 37.1322 23.9399 38.1916 21.4462Z" fill="#173647"/>
<path fill-rule="evenodd" clip-rule="evenodd" d="M39.7422 52.6266C39.2365 52.0467 38.8265 51.3884 38.5281 50.6772C37.4688 48.1835 37.5053 44.4508 38.9174 42.4902C41.3899 43.0256 43.9815 45.6776 45.0375 48.1724C45.3879 48.902 45.5777 49.6993 45.5939 50.5099C45.7708 53.182 41.6839 54.7645 39.7422 52.6266Z" fill="#173647"/>
<path fill-rule="evenodd" clip-rule="evenodd" d="M50.56 45.1638C49.7029 45.1487 48.8577 44.9578 48.0762 44.6027C45.6036 43.5343 42.8929 41.0361 42.3633 38.7197C43.7219 37.8219 46.2301 37.7243 47.8558 37.7546C48.8432 37.7701 49.8182 37.9786 50.7268 38.3685C51.4623 38.7087 52.1642 39.1184 52.8233 39.5918C55.2958 41.3785 53.7402 45.3411 50.56 45.1638Z" fill="#173647"/>
</svg>
