<svg xmlns="http://www.w3.org/2000/svg" width="83" height="75" viewBox="0 0 83 75">
  <defs>
    <linearGradient id="d3-a" x1="-82.637%" x2="103.767%" y1="-92.82%" y2="106.042%">
      <stop offset="0%" stop-color="#F9A03C"/>
      <stop offset="100%" stop-color="#F7974E"/>
    </linearGradient>
    <linearGradient id="d3-b" x1="-258.924%" x2="97.62%" y1="-248.97%" y2="98.768%">
      <stop offset="0%" stop-color="#F9A03C"/>
      <stop offset="100%" stop-color="#F7974E"/>
    </linearGradient>
    <linearGradient id="d3-c" x1="-223.163%" x2="94.028%" y1="-261.968%" y2="101.691%">
      <stop offset="0%" stop-color="#F9A03C"/>
      <stop offset="100%" stop-color="#F7974E"/>
    </linearGradient>
    <linearGradient id="d3-d" x1="11.339%" x2="82.496%" y1="-1.822%" y2="92.107%">
      <stop offset="0%" stop-color="#F26D58"/>
      <stop offset="100%" stop-color="#F9A03C"/>
    </linearGradient>
    <linearGradient id="d3-e" x1="15.844%" x2="120.126%" y1="3.858%" y2="72.38%">
      <stop offset="0%" stop-color="#B84E51"/>
      <stop offset="100%" stop-color="#F68E48"/>
    </linearGradient>
    <linearGradient id="d3-f" x1="46.984%" x2="51.881%" y1="23.466%" y2="147.391%">
      <stop offset="0%" stop-color="#F9A03C"/>
      <stop offset="100%" stop-color="#F7974E"/>
    </linearGradient>
  </defs>
  <g fill="none" fill-rule="evenodd" transform="translate(0 -1)">
    <g transform="translate(14 9)">
      <path stroke="#000" stroke-dasharray="5 8" stroke-linecap="round" stroke-linejoin="round" d="M0.624903765,64.7638461 C2.22993122,65.0072285 3.87400381,65.1333333 5.54767806,65.1333333 C23.4007482,65.1333333 37.8734177,50.7764742 37.8734177,33.0666667 C37.8734177,15.356679 23.4007482,1 5.54767806,1 C3.65607748,1 1.80243239,1.16105393 0,1.47037116"/>
      <path stroke="#000" stroke-dasharray="5 8" stroke-linecap="round" stroke-linejoin="round" d="M0.860759494,1.86666667 L0.860759494,15.9968112 C2.501862,15.8782501 4.11922151,15.6668862 5.84838577,15.6668862 C15.9290644,15.6668862 24.1012658,23.9025895 24.1012658,34.0615766 C24.1012658,44.2207465 15.9290644,52.456267 5.84838577,52.456267 C4.11922151,52.456267 1.93415606,52.3499457 0.860759494,52.126342 L0.860759494,66"/>
      <path fill="#816EF4" fill-opacity=".08" stroke="#000" stroke-dasharray="5 8" stroke-linecap="round" stroke-linejoin="round" d="M26.6835443,1.86666667 C26.6835443,1.86666667 32.6680624,5.61540412 35.4843589,9.63256479 C38.3004764,13.6499056 39.4741569,15.658576 39.4741569,15.658576 L50.1523235,15.658576 C50.1523235,15.658576 54.3768576,17.6670663 54.2593107,20.739161 C54.1419426,23.8110757 52.4993267,26.5286356 50.5044277,26.8831704 C48.5095286,27.2377052 43.463776,26.8831704 43.463776,26.8831704 C43.463776,26.8831704 44.4025415,31.4072727 44.1678054,33.7531835 C43.9332482,36.0990944 43.5811441,40.7073266 43.5811441,40.7073266 L50.0349555,40.7073266 C50.9737209,40.7073266 54.4988775,43.3065281 54.2618155,46.1422663 C54.0247535,48.9780045 52.6166947,51.8137427 50.0349555,51.9317408 C47.4533951,52.0499191 39.3566099,51.9317408 39.3566099,51.9317408 C39.3566099,51.9317408 37.0097857,56.4216146 35.6017269,58.0759303 C34.1934892,59.7298858 27.5049417,65.6397004 27.1530165,65.8198502 C26.8009124,66 51.7951184,66 51.7951184,66 C51.7951184,66 63.2948613,63.5110502 66.463083,53.9405914 C69.6314836,44.3699524 66.922536,40.0297831 66.463083,38.645512 C66.0039879,37.261421 63.5843453,33.9333333 63.5843453,33.9333333 C63.5843453,33.9333333 66.0589147,30.6167753 66.9388172,27.848233 C67.8187198,25.0796906 68.6986223,19.4318139 67.1587034,15.6111966 C65.6189634,11.7905794 65.1791911,11.347591 64.1343291,9.68642959 C63.0894672,8.02544831 58.6350277,4.37074906 56.0504258,3.42946629 C53.4658239,2.48818352 50.5110475,1.86666667 47.3415734,1.86666667 L26.6835443,1.86666667 Z"/>
      <path fill="#8882F8" fill-opacity=".08" d="M0,15 L0,-1.13686838e-13 C19.3333333,4 29.6666667,8.33333333 31,13 C33,20 41,26 38,36 C35,46 28,59 17,63 C9.66666667,65.6666667 4,65.6666667 0,63 L0,51 C18.6666667,48.3333333 28,41.3333333 28,30 C28,18.6666667 18.6666667,13.6666667 0,15 Z"/>
    </g>
    <g transform="translate(.367 1.344)">
      <path fill="url(#d3-a)" d="M68.5715013,47.1292208 C68.6023628,46.8299987 68.6243684,46.528093 68.6415435,46.2245772 C68.6624756,45.8652423 47.0218765,25.3327042 47.0218765,25.3327042 L46.5044773,25.3327042 C46.5044773,25.3327042 68.4391996,48.4694136 68.5715013,47.1289524 L68.5715013,47.1292208 Z"/>
      <path fill="url(#d3-b)" d="M22.4005963,40.0063936 C22.3718817,40.0694584 22.3434355,40.1325231 22.3139158,40.1953195 C22.2833227,40.2613362 22.2516561,40.3270846 22.2202579,40.3922962 C21.5305712,41.830709 31.877751,51.9460252 32.7099372,50.717202 C32.7477761,50.6629932 32.7858833,50.605564 32.8237221,50.5513552 C32.8658547,50.4869486 32.9074506,50.4252257 32.9490465,50.3608192 C33.6145808,49.3504415 22.6960613,39.3494469 22.4005963,40.0063936 Z"/>
      <path fill="url(#d3-c)" d="M37.0222237,54.2311158 C36.9929724,54.2955223 36.7847246,54.6476114 36.5944569,54.8335853 C36.5622537,54.8979919 46.69555,64.9475598 46.69555,64.9475598 L47.6079761,64.9475598 C47.6085128,64.9475598 38.0956662,54.6559306 37.0222237,54.2311158 Z"/>
      <path fill="url(#d3-d)" fill-rule="nonzero" d="M68.6560349,46.042092 C68.1821101,56.5476045 59.4909836,64.9475598 48.8724913,64.9475598 L47.436762,64.9475598 L36.8327612,54.5008182 C37.7049331,53.2706532 38.5159189,51.9962087 39.2378089,50.667287 L48.8724913,50.667287 C51.9194575,50.667287 54.3991095,48.1889768 54.3991095,45.1404003 C54.3991095,42.0931657 51.9194575,39.6135137 48.8724913,39.6135137 L43.1709019,39.6135137 C43.6053777,37.317152 43.8428768,34.9491381 43.8428768,32.5266469 C43.8428768,30.067122 43.6010839,27.6655629 43.1510432,25.3324359 L46.6925981,25.3324359 L68.5935069,46.9123854 C68.6195379,46.6230927 68.6402017,46.3340683 68.6560349,46.042092 Z M5.76089707,0 L1.68889486e-15,0 L1.68889486e-15,14.2802728 L5.76089707,14.2802728 C15.8225412,14.2802728 24.0094181,22.4650028 24.0094181,32.5266469 C24.0094181,35.2639251 23.3988977,37.8624608 22.3139158,40.1953195 L32.8237221,50.5513552 C36.2745711,45.3880972 38.2918378,39.1892356 38.2918378,32.5266469 C38.2918378,14.5915711 23.6981198,3.81363354e-15 5.76089707,0 Z"/>
      <path fill="url(#d3-e)" d="M48.8724913,2.12473869e-15 L25.5444407,-1.68889486e-15 C31.2422731,3.4787585 35.9603208,8.41149475 39.1750125,14.2802728 L48.8724913,14.2802728 C51.9194575,14.2802728 54.3991095,16.758583 54.3991095,19.8071594 C54.3991095,22.8549308 51.9194575,25.3332409 48.8724913,25.3332409 L46.6934032,25.3332409 L68.594312,46.9129221 C68.6458372,46.3276277 68.6780405,45.7385761 68.6780405,45.1404003 C68.6780405,40.3262795 66.9506033,35.9101374 64.0823652,32.4729748 C66.9506033,29.0374224 68.6780405,24.6204752 68.6780405,19.8071594 C68.6780405,8.88595629 59.7942311,-1.68889486e-15 48.8724913,2.12473869e-15 Z"/>
      <path fill="url(#d3-f)" fill-rule="nonzero" d="M47.436762,64.9475598 L25.7110927,64.9475598 C30.0842971,62.2467786 33.8649612,58.6813397 36.8327612,54.5008182 L47.436762,64.9475598 Z M32.8237221,50.5513552 L22.3147209,40.1953195 C19.4113275,46.4349719 13.0844579,50.7746312 5.76089707,50.7746312 L-1.68889486e-15,50.7746312 L-1.68889486e-15,65.0535622 L5.76089707,65.0535622 C17.034726,65.0535622 26.9855372,59.2870295 32.8237221,50.5513552 Z"/>
    </g>
  </g>
</svg>
