<svg width="120" height="120" viewBox="0 0 120 120" fill="none" xmlns="http://www.w3.org/2000/svg">
<path d="M31.9734 43.847L31.7497 43.9693V44.2243V46.7626H32.1797V53.1084H31.7497V55.6468V55.9036L31.9758 56.0254L34.7257 57.5061L34.9295 57.1275L41.8042 60.8292L41.6003 61.2078L43.6711 62.3228L41.5893 63.5239L41.8042 63.8963L34.9295 67.8624L34.7147 67.49L31.9648 69.0764L31.7497 69.2006V69.4489V71.9872H32.1797V78.333H31.7497V80.8714V81.1264L31.9734 81.2487L35.9396 83.4168L36.1458 83.0395L46.0611 88.4599L45.8549 88.8372L53.7872 93.1735L53.9934 92.7962L63.9087 98.2166L63.7025 98.5939L67.6686 100.762L67.8709 100.873L68.0749 100.765L72.1997 98.5972L71.9996 98.2166L82.3116 92.7962L82.5117 93.1768L90.7612 88.8405L90.5611 88.4599L100.873 83.0395L101.073 83.4201L105.198 81.252L105.428 81.1311V80.8714V78.333H104.998V71.9872H105.428V69.4489V69.2054L105.219 69.0802L102.575 67.4937L102.354 67.8624L95.7436 63.8963L95.9648 63.5276L93.9566 62.3227L95.9537 61.2044L95.7436 60.8292L102.354 57.1275L102.564 57.5026L105.208 56.0219L105.428 55.8988V55.6468V53.1084H104.998V46.7626H105.428V44.2243V43.9645L105.198 43.8437L101.073 41.6755L100.873 42.0562L90.5611 36.6358L90.7612 36.2552L82.5117 31.9188L82.3116 32.2995L71.9996 26.8791L72.1997 26.4985L68.0749 24.3303L67.8709 24.2231L67.6686 24.3336L63.7025 26.5018L63.9087 26.8791L53.9934 32.2995L53.7872 31.9222L45.8549 36.2585L46.0611 36.6358L36.1458 42.0562L35.9396 41.6789L31.9734 43.847Z" fill="#F7F6FC" stroke="black" stroke-width="0.86" stroke-dasharray="8 10"/>
<path d="M16.0952 37.9423L16 38.0374V50.3166L29.0406 57.0749L16 63.8332V76.2075L51.2192 94.5786H54.8364L90.0556 76.2075V63.8332L77.015 57.0749L90.0556 50.3166V38.0374L89.9604 37.9423L53.0278 19L16.0952 37.9423Z" fill="#DC2327"/>
<path d="M53.0278 69.6399L29.0406 57.0752L16 63.8335L53.0278 83.1565L90.0556 63.8335L77.015 57.0752L53.0278 69.6399Z" fill="#F0562C"/>
<path d="M16 38.0374L53.0278 57.3604L90.0556 38.0374L53.0278 19L16 38.0374Z" fill="#F0562C"/>
</svg>
