<svg xmlns="http://www.w3.org/2000/svg" xmlns:xlink="http://www.w3.org/1999/xlink" width="200" height="198" viewBox="0 0 200 198">
  <defs>
    <polygon id="data-science-a" points="0 .358 199.821 .358 199.821 125.316 0 125.316"/>
  </defs>
  <g fill="none" fill-rule="evenodd" transform="translate(0 1)">
    <g transform="translate(0 70.885)">
      <mask id="data-science-b" fill="#fff">
        <use xlink:href="#data-science-a"/>
      </mask>
      <path fill="#C3C3F6" d="M146.784219,30.2357384 C173.730633,56.5770886 210.298987,56.9914346 196.999409,88.917173 C185.207426,117.22519 135.982954,130.96443 74.5702954,123.146287 C-17.9267511,111.371603 -7.80987342,55.0049367 17.4766245,31.8678059 C30.1196624,20.2994515 60.5044726,0.321814346 88.6783122,0.358523207 C116.852152,0.394810127 133.655105,17.4011392 146.784219,30.2357384" mask="url(#data-science-b)"/>
    </g>
    <path stroke="#000" stroke-dasharray="2.3 3.61" stroke-linecap="round" stroke-linejoin="round" stroke-width="2" d="M128.454895,157.782616 C128.454895,162.136624 120.105527,165.66616 109.805949,165.66616 C99.5063713,165.66616 91.1570042,162.136624 91.1570042,157.782616 C91.1570042,153.428608 99.5063713,149.899072 109.805949,149.899072 C120.105527,149.899072 128.454895,153.428608 128.454895,157.782616 Z"/>
    <path fill="#FFF" d="M114.57865,118.757806 L105.752068,118.829958 C100.936034,118.829958 97.6748523,117.947257 95.3491139,117.26962 C95.2052321,117.227426 94.9706329,116.368776 94.8782278,116.507595 C94.5567089,116.987342 94.3837131,117.752743 94.3837131,118.907173 L94.3837131,148.625738 C94.3837131,154.929958 99.541519,160.088186 105.84616,160.088186 L114.237722,160.088186 C120.542363,160.088186 125.700169,154.929958 125.700169,148.625738 L125.700169,139.69789 L125.700169,133.786498 L125.700169,118.907173 C125.700169,118.251899 125.910295,118.088608 125.724219,117.693671 C125.626329,117.486498 124.557975,117.91097 123.956287,118.001266 C121.049114,118.437131 118.912827,118.757806 114.57865,118.757806"/>
    <path stroke="#000" stroke-linejoin="round" stroke-width="2" d="M114.57865,118.757806 L105.752068,118.829958 C100.936034,118.829958 97.6748523,117.947257 95.3491139,117.26962 C95.2052321,117.227426 94.9706329,116.368776 94.8782278,116.507595 C94.5567089,116.987342 94.3837131,117.752743 94.3837131,118.907173 L94.3837131,148.625738 C94.3837131,154.929958 99.541519,160.088186 105.84616,160.088186 L114.237722,160.088186 C120.542363,160.088186 125.700169,154.929958 125.700169,148.625738 L125.700169,139.69789 L125.700169,133.786498 L125.700169,118.907173 C125.700169,118.251899 125.910295,118.088608 125.724219,117.693671 C125.626329,117.486498 124.557975,117.91097 123.956287,118.001266 C121.049114,118.437131 118.912827,118.757806 114.57865,118.757806 Z"/>
    <path fill="#FFF" d="M92.790211,127.943882 L40.2125738,70.8544304 C37.068692,67.4472574 47.6231224,70.8265823 52.2589873,70.8548523 L174.707089,71.5987342 C177.303713,71.6147679 181.829873,67.7257384 180.037468,69.6050633 L127.86827,127.943882 C118.221435,137.590295 102.436624,137.590295 92.790211,127.943882"/>
    <path stroke="#000" stroke-linejoin="round" stroke-width="2" d="M92.790211,127.943882 L40.2125738,70.8544304 C37.068692,67.4472574 47.6231224,70.8265823 52.2589873,70.8548523 L174.707089,71.5987342 C177.303713,71.6147679 181.829873,67.7257384 180.037468,69.6050633 L127.86827,127.943882 C118.221435,137.590295 102.436624,137.590295 92.790211,127.943882 Z"/>
    <path fill="#FFF" d="M186.229494,51.9475527 C186.229494,76.6749789 151.872532,96.7205485 109.491097,96.7205485 C67.1096624,96.7205485 32.7527004,76.6749789 32.7527004,51.9475527 C32.7527004,27.2201266 67.1096624,7.17455696 109.491097,7.17455696 C151.872532,7.17455696 186.229494,27.2201266 186.229494,51.9475527"/>
    <path stroke="#000" stroke-linejoin="round" stroke-width="2" d="M186.229494,51.9475527 C186.229494,76.6749789 151.872532,96.7205485 109.491097,96.7205485 C67.1096624,96.7205485 32.7527004,76.6749789 32.7527004,51.9475527 C32.7527004,27.2201266 67.1096624,7.17455696 109.491097,7.17455696 C151.872532,7.17455696 186.229494,27.2201266 186.229494,51.9475527 Z"/>
    <path fill="#FFF" d="M177.074135,51.7963291 C177.074135,71.2068776 146.815907,86.9423207 109.491013,86.9423207 C72.1661181,86.9423207 41.9078903,71.2068776 41.9078903,51.7963291 C41.9078903,32.3857806 72.1661181,16.6503376 109.491013,16.6503376 C146.815907,16.6503376 177.074135,32.3857806 177.074135,51.7963291"/>
    <path stroke="#000" stroke-linejoin="round" stroke-width="2" d="M177.074135,51.7963291 C177.074135,71.2068776 146.815907,86.9423207 109.491013,86.9423207 C72.1661181,86.9423207 41.9078903,71.2068776 41.9078903,51.7963291 C41.9078903,32.3857806 72.1661181,16.6503376 109.491013,16.6503376 C146.815907,16.6503376 177.074135,32.3857806 177.074135,51.7963291 Z"/>
    <path fill="#FFF" d="M57.5540084,40.5570042 C57.556962,42.5599578 58.3751055,43.7810549 59.7067511,44.5160759 C61.0379747,45.251097 61.8700422,44.9325316 61.8691983,42.8844304 C61.8666667,37.7439241 61.8637131,32.6029958 61.8611814,27.4624895 C61.8603376,25.4139662 61.0223629,24.2616456 59.6852321,23.6894937 C58.3476793,23.1177637 57.5308017,23.5380169 57.5333333,25.5405485 C57.5405063,30.5460338 57.5472574,35.551519 57.5540084,40.5570042 M53.7092827,23.9932911 C53.635443,20.4675527 56.0843882,17.9114346 59.6805907,19.5764135 C63.3603376,21.280211 65.8708861,25.4793671 65.8303797,29.6751477 C65.8303797,34.7207173 65.8303797,39.7662869 65.8299578,44.8114346 C65.8308017,48.7932911 63.121519,50.6063713 59.7105485,48.6291561 C56.0540084,46.5097468 53.5687764,42.5506751 53.7122363,38.2127004 C53.7113924,33.473038 53.7105485,28.7333755 53.7092827,23.9932911"/>
    <path stroke="#000" stroke-linejoin="round" d="M57.5540084,40.5570042 C57.556962,42.5599578 58.3751055,43.7810549 59.7067511,44.5160759 C61.0379747,45.251097 61.8700422,44.9325316 61.8691983,42.8844304 C61.8666667,37.7439241 61.8637131,32.6029958 61.8611814,27.4624895 C61.8603376,25.4139662 61.0223629,24.2616456 59.6852321,23.6894937 C58.3476793,23.1177637 57.5308017,23.5380169 57.5333333,25.5405485 C57.5405063,30.5460338 57.5472574,35.551519 57.5540084,40.5570042 Z M53.7092827,23.9932911 C53.635443,20.4675527 56.0843882,17.9114346 59.6805907,19.5764135 C63.3603376,21.280211 65.8708861,25.4793671 65.8303797,29.6751477 C65.8303797,34.7207173 65.8303797,39.7662869 65.8299578,44.8114346 C65.8308017,48.7932911 63.121519,50.6063713 59.7105485,48.6291561 C56.0540084,46.5097468 53.5687764,42.5506751 53.7122363,38.2127004 C53.7113924,33.473038 53.7105485,28.7333755 53.7092827,23.9932911 Z"/>
    <path fill="#FFF" d="M57.2247679,49.4342194 L51.6074684,45.8591139 L51.6074684,21.9101688 L56.4952321,19.2063713 C56.4952321,19.2063713 57.8618987,18.6920253 59.2699156,19.4038397 C60.6779325,20.115654 63.3694937,21.7131224 64.8159072,26.1127004 C65.3209705,27.6485654 65.231519,31.6422363 65.2640084,35.4131224 C65.3053586,40.2304219 64.7581013,44.8759916 64.7581013,44.8759916 C64.7581013,44.8759916 65.4121097,46.2519409 64.0914346,48.5713502 L59.7011392,51.3966667"/>
    <path stroke="#000" stroke-linecap="round" stroke-linejoin="round" stroke-width="1.291" d="M64.6441772 48.4599578C64.0378481 49.1616456 59.7011392 51.3966667 59.7011392 51.3966667M57.2247679 49.4342194L51.6074684 45.8591139 51.6074684 21.9101688 56.4952321 19.2063713C56.4952321 19.2063713 57.8618987 18.6920253 59.2699156 19.4038397 60.6779325 20.115654 63.8167511 21.7131224 65.2640084 26.1127004"/>
    <path fill="#9595EF" d="M52.9097468,43.2147257 C52.9127004,45.2176793 53.7308439,46.4387764 55.0624895,47.1737975 C56.3937131,47.9088186 57.2257806,47.5902532 57.2249367,45.5421519 C57.2224051,40.4016456 57.2198734,35.2607173 57.2169198,30.120211 C57.2160759,28.0716878 56.3781013,26.9193671 55.0409705,26.3472152 C53.7034177,25.7754852 52.8865401,26.1957384 52.8890717,28.198692 C52.8962447,33.2037553 52.9029958,38.2092405 52.9097468,43.2147257 M49.065443,26.6510127 C48.9911814,23.1252743 51.4401266,20.5691561 55.0367511,22.234135 C58.7164979,23.9379325 61.2266245,28.1370886 61.1861181,32.3328692 C61.1861181,37.3784388 61.1861181,42.4240084 61.1856962,47.4695781 C61.186962,51.4510127 58.4772574,53.2640928 55.0662869,51.2868776 C51.4101688,49.1674684 48.9245148,45.2083966 49.0679747,40.8708439 C49.0671308,36.1307595 49.0662869,31.391097 49.065443,26.6510127"/>
    <path stroke="#000" stroke-linecap="round" stroke-linejoin="round" d="M52.9097468,43.2147257 C52.9127004,45.2176793 53.7308439,46.4387764 55.0624895,47.1737975 C56.3937131,47.9088186 57.2257806,47.5902532 57.2249367,45.5421519 C57.2224051,40.4016456 57.2198734,35.2607173 57.2169198,30.120211 C57.2160759,28.0716878 56.3781013,26.9193671 55.0409705,26.3472152 C53.7034177,25.7754852 52.8865401,26.1957384 52.8890717,28.198692 C52.8962447,33.2037553 52.9029958,38.2092405 52.9097468,43.2147257 Z M49.065443,26.6510127 C48.9911814,23.1252743 51.4401266,20.5691561 55.0367511,22.234135 C58.7164979,23.9379325 61.2266245,28.1370886 61.1861181,32.3328692 C61.1861181,37.3784388 61.1861181,42.4240084 61.1856962,47.4695781 C61.186962,51.4510127 58.4772574,53.2640928 55.0662869,51.2868776 C51.4101688,49.1674684 48.9245148,45.2083966 49.0679747,40.8708439 C49.0671308,36.1307595 49.0662869,31.391097 49.065443,26.6510127 Z"/>
    <path fill="#FFF" d="M115.511561,38.8529536 C115.838987,36.8770042 115.100591,36.3301688 113.688776,36.6778481 C112.27654,37.0251055 111.262616,38.0267932 110.929705,40.0478903 C110.09384,45.1200422 109.258397,50.1921941 108.422532,55.2647679 C108.08962,57.285443 108.858819,57.7348101 110.29173,57.2251055 C111.724219,56.7154008 112.730127,55.6432489 113.057553,53.6672996 C113.875696,48.7293249 114.69384,43.7909283 115.511561,38.8529536 M117.228439,51.9770042 C116.667257,56.2808017 113.572743,59.7841772 109.620844,61.2833333 C105.93519,62.6816456 103.555021,60.4529536 104.201013,56.5242616 C105.019156,51.5457806 105.836456,46.5668776 106.654177,41.5875527 C107.294262,37.4411392 110.452489,33.7044304 114.359662,32.6196203 C118.178228,31.5592827 120.180338,34.478692 119.536034,37.9457806 C118.766835,42.6229958 117.998059,47.299789 117.228439,51.9770042"/>
    <path stroke="#000" stroke-linejoin="round" stroke-width="1.291" d="M115.511561,38.8529536 C115.838987,36.8770042 115.100591,36.3301688 113.688776,36.6778481 C112.27654,37.0251055 111.262616,38.0267932 110.929705,40.0478903 C110.09384,45.1200422 109.258397,50.1921941 108.422532,55.2647679 C108.08962,57.285443 108.858819,57.7348101 110.29173,57.2251055 C111.724219,56.7154008 112.730127,55.6432489 113.057553,53.6672996 C113.875696,48.7293249 114.69384,43.7909283 115.511561,38.8529536 Z M117.228439,51.9770042 C116.667257,56.2808017 113.572743,59.7841772 109.620844,61.2833333 C105.93519,62.6816456 103.555021,60.4529536 104.201013,56.5242616 C105.019156,51.5457806 105.836456,46.5668776 106.654177,41.5875527 C107.294262,37.4411392 110.452489,33.7044304 114.359662,32.6196203 C118.178228,31.5592827 120.180338,34.478692 119.536034,37.9457806 C118.766835,42.6229958 117.998059,47.299789 117.228439,51.9770042 Z"/>
    <path fill="#FFF" d="M111.943586,62.4806329 L118.066371,59.8633333 L121.948228,36.2308439 L117.562996,32.7705063 C117.562996,32.7705063 116.297595,32.0418143 114.792954,32.515654 C113.288312,32.9899156 110.373544,34.1304219 108.232616,38.237173 C107.485359,39.6709283 106.926709,43.6262025 106.283249,47.3418143 C105.46173,52.0886498 105.249072,56.7616456 105.249072,56.7616456 C105.249072,56.7616456 104.379873,58.0135443 105.3073,60.5160759 L109.181983,64.015654"/>
    <path stroke="#000" stroke-linecap="round" stroke-linejoin="round" stroke-width="1.291" d="M104.780084 60.3164979C105.264895 61.1076371 109.182194 64.015654 109.182194 64.015654M111.943586 62.4806329L118.066371 59.8633333 121.948228 36.2308439 117.562996 32.7705063C117.562996 32.7705063 116.297595 32.0418143 114.792954 32.515654 113.288312 32.9899156 109.93135 34.0578481 107.790844 38.1645992"/>
    <path fill="#9595EF" d="M119.663797,42.22827 C119.990802,40.2523207 119.252827,39.7054852 117.840591,40.0531646 C116.428354,40.4004219 115.414852,41.4021097 115.081941,43.4232068 C114.245654,48.4953586 113.410211,53.5675105 112.574346,58.6400844 C112.241435,60.6607595 113.011055,61.1101266 114.443966,60.6004219 C115.876456,60.0907173 116.881941,59.0185654 117.209789,57.042616 C118.027511,52.1046414 118.845654,47.1662447 119.663797,42.22827 M121.380675,55.3523207 C120.819072,59.6561181 117.724557,63.1594937 113.77308,64.6586498 C110.087004,66.056962 107.707257,63.82827 108.353249,59.8995781 C109.17097,54.921097 109.98827,49.9421941 110.806414,44.9628692 C111.446498,40.8164557 114.604304,37.0797468 118.511477,35.9949367 C122.330464,34.9345992 124.332152,37.8540084 123.687848,41.321097 C122.919072,45.9983122 122.149873,50.6751055 121.380675,55.3523207"/>
    <path stroke="#000" stroke-linecap="round" stroke-linejoin="round" stroke-width="1.291" d="M119.663797,42.22827 C119.990802,40.2523207 119.252827,39.7054852 117.840591,40.0531646 C116.428354,40.4004219 115.414852,41.4021097 115.081941,43.4232068 C114.245654,48.4953586 113.410211,53.5675105 112.574346,58.6400844 C112.241435,60.6607595 113.011055,61.1101266 114.443966,60.6004219 C115.876456,60.0907173 116.881941,59.0185654 117.209789,57.042616 C118.027511,52.1046414 118.845654,47.1662447 119.663797,42.22827 Z M121.380675,55.3523207 C120.819072,59.6561181 117.724557,63.1594937 113.77308,64.6586498 C110.087004,66.056962 107.707257,63.82827 108.353249,59.8995781 C109.17097,54.921097 109.98827,49.9421941 110.806414,44.9628692 C111.446498,40.8164557 114.604304,37.0797468 118.511477,35.9949367 C122.330464,34.9345992 124.332152,37.8540084 123.687848,41.321097 C122.919072,45.9983122 122.149873,50.6751055 121.380675,55.3523207 Z"/>
    <g transform="translate(92.405 47.678)">
      <path fill="#FFF" d="M8.92324895,2.39194093 C8.92324895,12.513038 8.92367089,22.634135 8.92367089,32.7552321 C8.92367089,33.0957384 8.68654008,33.2400422 8.37514768,33.0662025 C7.00974684,32.3029114 6.18443038,31.8358228 4.58822785,30.9320253 C4.22367089,30.7261181 3.92915612,30.2835021 3.93042194,29.9434177 C3.95236287,22.3328692 3.9743038,14.7223207 3.99666667,7.11135021 C3.99751055,6.77168776 3.70637131,6.33075949 3.3464557,6.12780591 C2.24729958,5.50670886 1.69413502,5.19405063 0.671350211,4.61683544 C0.336751055,4.42822785 0.0759915612,4.0050211 0.0759915612,3.66451477 C0.0764135021,2.74299578 0.076835443,2.28223629 0.077257384,1.36113924 C0.077257384,1.03075949 0.326624473,0.904177215 0.651518987,1.07 C3.72535865,2.63413502 4.84139241,1.7143038 5.5671308,0.283924051"/>
      <path stroke="#000" stroke-linejoin="round" stroke-width=".494" d="M8.92324895,2.39194093 C8.92324895,12.513038 8.92367089,22.634135 8.92367089,32.7552321 C8.92367089,33.0957384 8.68654008,33.2400422 8.37514768,33.0662025 C7.00974684,32.3029114 6.18443038,31.8358228 4.58822785,30.9320253 C4.22367089,30.7261181 3.92915612,30.2835021 3.93042194,29.9434177 C3.95236287,22.3328692 3.9743038,14.7223207 3.99666667,7.11135021 C3.99751055,6.77168776 3.70637131,6.33075949 3.3464557,6.12780591 C2.24729958,5.50670886 1.69413502,5.19405063 0.671350211,4.61683544 C0.336751055,4.42822785 0.0759915612,4.0050211 0.0759915612,3.66451477 C0.0764135021,2.74299578 0.076835443,2.28223629 0.077257384,1.36113924 C0.077257384,1.03075949 0.326624473,0.904177215 0.651518987,1.07 C3.72535865,2.63413502 4.84139241,1.7143038 5.5671308,0.283924051"/>
    </g>
    <polygon fill="#FFF" points="98.43 82.452 101.329 80.781 101.392 49.77 98.521 51.229"/>
    <polygon stroke="#000" stroke-linecap="round" stroke-linejoin="round" points="98.43 82.452 101.329 80.781 101.392 49.77 98.521 51.229"/>
    <g transform="translate(89.873 47.678)">
      <path fill="#FFF" d="M11.3807173,2.1457384 L8.68409283,3.62295359 L5.59970464,1.99637131 C5.59970464,1.99637131 4.6157384,4.03139241 3.182827,3.75333333 C1.75033755,3.47527426 0.105611814,2.66936709 0.105611814,2.66936709 L2.83767932,1.00691983 C2.83767932,1.00691983 3.94780591,1.45839662 4.68704641,1.69172996 C5.42628692,1.92548523 6.36130802,2.10101266 7.24232068,1.42548523 C8.12417722,0.749957806 8.2642616,0.403122363 8.2642616,0.403122363"/>
      <path stroke="#000" stroke-linecap="round" stroke-linejoin="round" stroke-width="1.291" d="M11.3807173,2.1457384 L8.68409283,3.62295359 L5.59970464,1.99637131 C5.59970464,1.99637131 4.6157384,4.03139241 3.182827,3.75333333 C1.75033755,3.47527426 0.105611814,2.66936709 0.105611814,2.66936709 L2.83767932,1.00691983 C2.83767932,1.00691983 3.94780591,1.45839662 4.68704641,1.69172996 C5.42628692,1.92548523 6.36130802,2.10101266 7.24232068,1.42548523 C8.12417722,0.749957806 8.2642616,0.403122363 8.2642616,0.403122363"/>
    </g>
    <path fill="#FFF" d="M95.6164557,49.3899578 L97.8827004,48.0110549 C98.0405063,47.9140084 98.2379747,47.9085232 98.4016878,47.995865 L101.334599,49.5675949 C101.412658,49.6190717 101.409705,49.7351055 101.328692,49.7827848 L98.5578059,51.3013502 L95.6164557,49.3899578 Z"/>
    <path stroke="#000" stroke-linejoin="round" stroke-width=".982" d="M95.6164557,49.3899578 L97.8827004,48.0110549 C98.0405063,47.9140084 98.2379747,47.9085232 98.4016878,47.995865 L101.334599,49.5675949 C101.412658,49.6190717 101.409705,49.7351055 101.328692,49.7827848 L98.5578059,51.3013502 L95.6164557,49.3899578 Z"/>
    <path fill="#9595EF" d="M90.3842194,50.389789 C93.4576371,51.954346 94.5740928,51.0345148 95.2994093,49.604135 C95.3935021,49.418481 95.6310549,49.3952743 95.8901266,49.5412658 C96.8238819,50.0670042 97.2795781,50.3235443 98.1108017,50.789789 C98.4188186,50.9627848 98.6559494,51.3716456 98.6559494,51.7121519 C98.6559494,61.8332489 98.6559494,71.954346 98.6559494,82.075443 C98.6559494,82.4159494 98.4192405,82.5602532 98.1078481,82.3864135 C96.7420253,81.6231224 95.9167089,81.1560338 94.3205063,80.2522363 C93.9563713,80.0463291 93.6618565,79.6032911 93.6631224,79.2636287 C93.6846414,71.6530802 93.7070042,64.0421097 93.7293671,56.4315612 C93.730211,56.0918987 93.4386498,55.6509705 93.0791561,55.4480169 C91.9795781,54.8269198 91.4264135,54.5142616 90.4040506,53.9366245 C90.0694515,53.7480169 89.808692,53.3248101 89.808692,52.9847257 C89.8091139,52.0632068 89.8095359,51.6024473 89.8099578,50.6809283 C89.8099578,50.3509705 90.058903,50.2243882 90.3842194,50.389789"/>
    <path stroke="#000" stroke-linecap="round" stroke-linejoin="round" d="M90.3842194,50.389789 C93.4576371,51.954346 94.5740928,51.0345148 95.2994093,49.604135 C95.3935021,49.418481 95.6310549,49.3952743 95.8901266,49.5412658 C96.8238819,50.0670042 97.2795781,50.3235443 98.1108017,50.789789 C98.4188186,50.9627848 98.6559494,51.3716456 98.6559494,51.7121519 C98.6559494,61.8332489 98.6559494,71.954346 98.6559494,82.075443 C98.6559494,82.4159494 98.4192405,82.5602532 98.1078481,82.3864135 C96.7420253,81.6231224 95.9167089,81.1560338 94.3205063,80.2522363 C93.9563713,80.0463291 93.6618565,79.6032911 93.6631224,79.2636287 C93.6846414,71.6530802 93.7070042,64.0421097 93.7293671,56.4315612 C93.730211,56.0918987 93.4386498,55.6509705 93.0791561,55.4480169 C91.9795781,54.8269198 91.4264135,54.5142616 90.4040506,53.9366245 C90.0694515,53.7480169 89.808692,53.3248101 89.808692,52.9847257 C89.8091139,52.0632068 89.8095359,51.6024473 89.8099578,50.6809283 C89.8099578,50.3509705 90.058903,50.2243882 90.3842194,50.389789 Z"/>
    <g transform="translate(136.287 13.923)">
      <path fill="#FFF" d="M2.92172996,0.967088608 C3.99219409,2.16160338 5.30822785,2.76160338 7.87278481,0.456540084 C8.14451477,0.212236287 8.41751055,0.270042194 8.5035865,0.589029536 C8.74198312,1.47890295 8.86097046,1.92405063 9.09978903,2.81392405 C9.18797468,3.14303797 9.04493671,3.61940928 8.77067511,3.88776371 C7.93185654,4.70970464 7.47827004,5.15485232 6.57658228,6.03924051 C6.28206751,6.32827004 6.11413502,6.82911392 6.20274262,7.15696203 C8.19050633,14.5037975 10.17827,21.850211 12.1660338,29.1966245 C12.2550633,29.5248945 12.0850211,30.02827 11.7867089,30.321519 C10.4774262,31.607173 9.80147679,32.27173 8.67911392,33.3616034 C8.42299578,33.6101266 8.15675105,33.5320675 8.06898734,33.2029536 C5.45421941,23.4257384 2.83902954,13.6481013 0.223839662,3.87088608"/>
      <path stroke="#000" stroke-linejoin="round" stroke-width=".494" d="M2.92172996,0.967088608 C3.99219409,2.16160338 5.30822785,2.76160338 7.87278481,0.456540084 C8.14451477,0.212236287 8.41751055,0.270042194 8.5035865,0.589029536 C8.74198312,1.47890295 8.86097046,1.92405063 9.09978903,2.81392405 C9.18797468,3.14303797 9.04493671,3.61940928 8.77067511,3.88776371 C7.93185654,4.70970464 7.47827004,5.15485232 6.57658228,6.03924051 C6.28206751,6.32827004 6.11413502,6.82911392 6.20274262,7.15696203 C8.19050633,14.5037975 10.17827,21.850211 12.1660338,29.1966245 C12.2550633,29.5248945 12.0850211,30.02827 11.7867089,30.321519 C10.4774262,31.607173 9.80147679,32.27173 8.67911392,33.3616034 C8.42299578,33.6101266 8.15675105,33.5320675 8.06898734,33.2029536 C5.45421941,23.4257384 2.83902954,13.6481013 0.223839662,3.87088608"/>
    </g>
    <polygon fill="#FFF" points="147.678 48.326 144.445 47.461 136.372 17.52 139.523 18.188"/>
    <polygon stroke="#000" stroke-linecap="round" stroke-linejoin="round" points="147.678 48.326 144.445 47.461 136.372 17.52 139.523 18.188"/>
    <g transform="translate(136.287 13.923)">
      <path fill="#FFF" d="M0.232236287,3.61371308 L3.21873418,4.34409283 L5.77864979,1.97616034 C5.77864979,1.97616034 7.2550211,3.68755274 8.56683544,3.04873418 C9.87907173,2.40949367 11.2596624,1.20611814 11.2596624,1.20611814 L8.19088608,0.306118143 C8.19088608,0.306118143 7.23518987,1.02932489 6.58160338,1.44578059 C5.92759494,1.86223629 5.06978903,2.27362869 4.04362869,1.84873418 C3.0178903,1.4242616 2.7921519,1.12510549 2.7921519,1.12510549"/>
      <path stroke="#000" stroke-linecap="round" stroke-linejoin="round" stroke-width="1.291" d="M0.232236287,3.61371308 L3.21873418,4.34409283 L5.77864979,1.97616034 C5.77864979,1.97616034 7.2550211,3.68755274 8.56683544,3.04873418 C9.87907173,2.40949367 11.2596624,1.20611814 11.2596624,1.20611814 L8.19088608,0.306118143 C8.19088608,0.306118143 7.23518987,1.02932489 6.58160338,1.44578059 C5.92759494,1.86223629 5.06978903,2.27362869 4.04362869,1.84873418 C3.0178903,1.4242616 2.7921519,1.12510549 2.7921519,1.12510549"/>
    </g>
    <path fill="#FFF" d="M141.853165,15.6608439 L139.307595,14.9140084 C139.129958,14.8612658 138.937975,14.9068354 138.802954,15.0334177 L136.375527,17.309789 C136.31308,17.3798312 136.34557,17.4908017 136.436287,17.5161181 L139.505907,18.267173 L141.853165,15.6608439 Z"/>
    <path stroke="#000" stroke-linejoin="round" stroke-width=".982" d="M141.853165,15.6608439 L139.307595,14.9140084 C139.129958,14.8612658 138.937975,14.9068354 138.802954,15.0334177 L136.375527,17.309789 C136.31308,17.3798312 136.34557,17.4908017 136.436287,17.5161181 L139.505907,18.267173 L141.853165,15.6608439 Z"/>
    <path fill="#9595EF" d="M147.796203,15.4076371 C148.034599,16.2975105 148.154008,16.7426582 148.392405,17.6325316 C148.480591,17.9612236 148.337553,18.4375949 148.063713,18.7063713 C147.224895,19.5283122 146.771308,19.9734599 145.86962,20.8578481 C145.574684,21.1464557 145.407173,21.6477215 145.495781,21.9755696 C147.483544,29.3219831 149.471308,36.6688186 151.459494,44.0152321 C151.548101,44.3430802 151.377637,44.8468776 151.079325,45.1401266 C149.770464,46.4253586 149.094093,47.0899156 147.97173,48.180211 C147.716034,48.4287342 147.449789,48.3506751 147.362025,48.0215612 C144.746835,38.244346 142.132068,28.4667089 139.516878,18.6890717 C139.429114,18.3603797 139.552321,17.9042616 139.805907,17.6574262 C140.488186,16.9920253 140.861603,16.6270464 141.627848,15.8776793 C141.840928,15.6692405 142.075527,15.6308439 142.214346,15.7856962 C143.285232,16.980211 144.601266,17.580211 147.165823,15.2747257 C147.437131,15.0308439 147.71097,15.0886498 147.796203,15.4076371"/>
    <path stroke="#000" stroke-linecap="round" stroke-linejoin="round" d="M147.796203,15.4076371 C148.034599,16.2975105 148.154008,16.7426582 148.392405,17.6325316 C148.480591,17.9612236 148.337553,18.4375949 148.063713,18.7063713 C147.224895,19.5283122 146.771308,19.9734599 145.86962,20.8578481 C145.574684,21.1464557 145.407173,21.6477215 145.495781,21.9755696 C147.483544,29.3219831 149.471308,36.6688186 151.459494,44.0152321 C151.548101,44.3430802 151.377637,44.8468776 151.079325,45.1401266 C149.770464,46.4253586 149.094093,47.0899156 147.97173,48.180211 C147.716034,48.4287342 147.449789,48.3506751 147.362025,48.0215612 C144.746835,38.244346 142.132068,28.4667089 139.516878,18.6890717 C139.429114,18.3603797 139.552321,17.9042616 139.805907,17.6574262 C140.488186,16.9920253 140.861603,16.6270464 141.627848,15.8776793 C141.840928,15.6692405 142.075527,15.6308439 142.214346,15.7856962 C143.285232,16.980211 144.601266,17.580211 147.165823,15.2747257 C147.437131,15.0308439 147.71097,15.0886498 147.796203,15.4076371 Z"/>
    <path fill="#9595EF" d="M82.0290295,18.256962 L85.6066667,19.5139241 L86.1640506,16.5565401 L85.0024473,13.7308017 C83.0885232,9.07721519 79.66827,7.37468354 75.1809283,9.21983122 C74.2535021,9.60084388 73.4657384,10.0578059 72.8155274,10.5835443 C72.5581435,10.7915612 72.3277637,11.0130802 72.11173,11.2379747 L70.2488608,13.6738397 L70.7931646,13.4881857 C70.2712236,15.1514768 70.4644726,17.1248945 71.3729114,19.3350211 L77.5923207,34.4603376 C79.5062447,39.1139241 83.5070886,42.27173 87.4142616,38.971308 C88.7918987,37.807173 90.3003376,37.3540084 91.0745992,36.2160338 C91.3450633,37.0164557 91.1227004,39.3540084 91.5028692,40.0974684 C93.0948523,37.0485232 92.9201688,32.9873418 91.2214346,28.8561181 C91.2214346,28.8561181 87.4286076,19.6316456 87.4286076,19.6316456 L81.0294515,22.2628692 L79.9885232,25.756962 L81.6066667,26.3438819 L82.3716456,25.5265823 L82.7378903,26.4177215 L84.8155274,25.5637131 L87.0197468,30.9240506 C87.8741772,33.0012658 87.2674262,34.1253165 85.8129958,34.7232068 C84.3585654,35.321097 83.1370464,34.9493671 82.283038,32.87173 L75.8243882,17.1649789 C74.9699578,15.0873418 75.5594093,13.9219409 77.0138397,13.3240506 C78.46827,12.7261603 79.7070886,13.1396624 80.561097,15.2168776 L81.6260759,17.807173 L81.2366245,17.914346 L81.7640506,18.1421941 L81.8429536,18.3337553 L82.0290295,18.256962 Z"/>
    <path stroke="#000" stroke-linecap="round" stroke-linejoin="round" d="M82.0290295,18.256962 L85.6066667,19.5139241 L86.1640506,16.5565401 L85.0024473,13.7308017 C83.0885232,9.07721519 79.66827,7.37468354 75.1809283,9.21983122 C74.2535021,9.60084388 73.4657384,10.0578059 72.8155274,10.5835443 C72.5581435,10.7915612 72.3277637,11.0130802 72.11173,11.2379747 L70.2488608,13.6738397 L70.7931646,13.4881857 C70.2712236,15.1514768 70.4644726,17.1248945 71.3729114,19.3350211 L77.5923207,34.4603376 C79.5062447,39.1139241 83.5070886,42.27173 87.4142616,38.971308 C88.7918987,37.807173 90.3003376,37.3540084 91.0745992,36.2160338 C91.3450633,37.0164557 91.1227004,39.3540084 91.5028692,40.0974684 C93.0948523,37.0485232 92.9201688,32.9873418 91.2214346,28.8561181 C91.2214346,28.8561181 87.4286076,19.6316456 87.4286076,19.6316456 L81.0294515,22.2628692 L79.9885232,25.756962 L81.6066667,26.3438819 L82.3716456,25.5265823 L82.7378903,26.4177215 L84.8155274,25.5637131 L87.0197468,30.9240506 C87.8741772,33.0012658 87.2674262,34.1253165 85.8129958,34.7232068 C84.3585654,35.321097 83.1370464,34.9493671 82.283038,32.87173 L75.8243882,17.1649789 C74.9699578,15.0873418 75.5594093,13.9219409 77.0138397,13.3240506 C78.46827,12.7261603 79.7070886,13.1396624 80.561097,15.2168776 L81.6260759,17.807173 L81.2366245,17.914346 L81.7640506,18.1421941 L81.8429536,18.3337553 L82.0290295,18.256962 Z"/>
    <path fill="#FFF" d="M79.9885654,25.7571308 L86.9898312,22.8782278 L91.1400422,32.9714768 C93.234135,38.0634599 91.884346,42.0195781 86.9742194,44.0389873 C82.0640928,46.0579747 78.3214768,44.1951055 76.2278059,39.1031224 L69.4231646,22.5541772 C67.3290717,17.4621941 68.6788608,13.5052321 73.5889873,11.4866667 C78.4991139,9.46767932 82.24173,11.3305485 84.3354008,16.4221097 L85.6062869,19.5140928 L80.8780169,21.4583966 L79.4763291,18.04827 C78.541308,15.7752743 77.1860338,15.3225316 75.5948945,15.976962 C74.0033333,16.6313924 73.3586076,17.9064979 74.2932068,20.1794937 L81.3598734,37.3651477 C82.2944726,39.6381435 83.6311814,40.0453165 85.2223207,39.3908861 C86.8138819,38.7364557 87.477173,37.5069198 86.5425738,35.2335021 L84.1307595,29.3689451 L81.8581857,30.3035443 L79.9885654,25.7571308 Z"/>
    <path stroke="#000" stroke-linecap="round" stroke-linejoin="round" d="M79.9885654,25.7571308 L86.9898312,22.8782278 L91.1400422,32.9714768 C93.234135,38.0634599 91.884346,42.0195781 86.9742194,44.0389873 C82.0640928,46.0579747 78.3214768,44.1951055 76.2278059,39.1031224 L69.4231646,22.5541772 C67.3290717,17.4621941 68.6788608,13.5052321 73.5889873,11.4866667 C78.4991139,9.46767932 82.24173,11.3305485 84.3354008,16.4221097 L85.6062869,19.5140928 L80.8780169,21.4583966 L79.4763291,18.04827 C78.541308,15.7752743 77.1860338,15.3225316 75.5948945,15.976962 C74.0033333,16.6313924 73.3586076,17.9064979 74.2932068,20.1794937 L81.3598734,37.3651477 C82.2944726,39.6381435 83.6311814,40.0453165 85.2223207,39.3908861 C86.8138819,38.7364557 87.477173,37.5069198 86.5425738,35.2335021 L84.1307595,29.3689451 L81.8581857,30.3035443 L79.9885654,25.7571308 Z"/>
    <path fill="#9595EF" d="M172.701435,46.9073418 L174.456287,50.2685232 L176.882869,48.4891983 L177.964304,45.6318143 C179.744051,40.9250633 178.408186,37.3457384 173.870211,35.6288608 C172.93308,35.2744304 172.045316,35.069789 171.211561,35.0098734 C170.881603,34.9862447 170.561772,34.9904641 170.249958,35.0073418 L167.225485,35.5145148 L167.750802,35.7508017 C166.23308,36.6090295 165.026751,38.1828692 164.181181,40.4178903 L158.395105,55.7136709 C156.614515,60.42 157.380759,65.4592405 162.488776,65.7166245 C164.290464,65.8073418 165.701435,66.5060759 167.044473,66.2035443 C166.695527,66.9731646 164.936456,68.5288608 164.706498,69.3318143 C167.951224,68.191308 170.597637,65.1052321 172.177806,60.9275949 C172.178228,60.9275949 175.70692,51.598903 175.70692,51.598903 L169.23519,49.1508017 L166.088354,50.9925738 L166.870211,52.5263291 L167.986667,52.4516456 L167.64616,53.3529114 L169.747004,54.1478481 L167.696371,59.5685232 C166.901857,61.669789 165.691308,62.0765401 164.22,61.52 C162.749536,60.9634599 162.111139,59.8575527 162.905654,57.7562869 L168.914515,41.8723207 C169.70903,39.7710549 170.935612,39.3225316 172.406498,39.8786498 C173.877384,40.4351899 174.499747,41.5832911 173.705232,43.684135 L172.714093,46.3035443 L172.356709,46.1162025 L172.586245,46.6427848 L172.512827,46.8360338 L172.701435,46.9073418 Z"/>
    <path stroke="#000" stroke-linecap="round" stroke-linejoin="round" d="M172.701435,46.9073418 L174.456287,50.2685232 L176.882869,48.4891983 L177.964304,45.6318143 C179.744051,40.9250633 178.408186,37.3457384 173.870211,35.6288608 C172.93308,35.2744304 172.045316,35.069789 171.211561,35.0098734 C170.881603,34.9862447 170.561772,34.9904641 170.249958,35.0073418 L167.225485,35.5145148 L167.750802,35.7508017 C166.23308,36.6090295 165.026751,38.1828692 164.181181,40.4178903 L158.395105,55.7136709 C156.614515,60.42 157.380759,65.4592405 162.488776,65.7166245 C164.290464,65.8073418 165.701435,66.5060759 167.044473,66.2035443 C166.695527,66.9731646 164.936456,68.5288608 164.706498,69.3318143 C167.951224,68.191308 170.597637,65.1052321 172.177806,60.9275949 C172.178228,60.9275949 175.70692,51.598903 175.70692,51.598903 L169.23519,49.1508017 L166.088354,50.9925738 L166.870211,52.5263291 L167.986667,52.4516456 L167.64616,53.3529114 L169.747004,54.1478481 L167.696371,59.5685232 C166.901857,61.669789 165.691308,62.0765401 164.22,61.52 C162.749536,60.9634599 162.111139,59.8575527 162.905654,57.7562869 L168.914515,41.8723207 C169.70903,39.7710549 170.935612,39.3225316 172.406498,39.8786498 C173.877384,40.4351899 174.499747,41.5832911 173.705232,43.684135 L172.714093,46.3035443 L172.356709,46.1162025 L172.586245,46.6427848 L172.512827,46.8360338 L172.701435,46.9073418 Z"/>
    <path fill="#FFF" d="M166.088397,50.992616 L173.168987,53.671097 L169.308228,63.87827 C167.360127,69.0276371 163.671941,70.9964135 158.70654,69.1179325 C153.740717,67.2394515 152.279114,63.3229958 154.227215,58.1736287 L160.558439,41.4373418 C162.506118,36.2879747 166.193882,34.3191983 171.159705,36.1976793 C176.125105,38.0761603 177.586709,41.992616 175.63903,47.1424051 L174.456329,50.2685654 L169.674473,48.4601266 L170.979114,45.0116034 C171.848312,42.7124473 171.1673,41.4563291 169.558439,40.8478903 C167.949156,40.2390295 166.606962,40.7297468 165.737342,43.028481 L159.16308,60.4082278 C158.29346,62.707384 158.992194,63.9175105 160.601055,64.5263713 C162.210759,65.1352321 163.53481,64.6900844 164.404852,62.3913502 L166.648312,56.4601266 L164.349156,55.5905063 L166.088397,50.992616 Z"/>
    <path stroke="#000" stroke-linecap="round" stroke-linejoin="round" d="M166.088397,50.992616 L173.168987,53.671097 L169.308228,63.87827 C167.360127,69.0276371 163.671941,70.9964135 158.70654,69.1179325 C153.740717,67.2394515 152.279114,63.3229958 154.227215,58.1736287 L160.558439,41.4373418 C162.506118,36.2879747 166.193882,34.3191983 171.159705,36.1976793 C176.125105,38.0761603 177.586709,41.992616 175.63903,47.1424051 L174.456329,50.2685654 L169.674473,48.4601266 L170.979114,45.0116034 C171.848312,42.7124473 171.1673,41.4563291 169.558439,40.8478903 C167.949156,40.2390295 166.606962,40.7297468 165.737342,43.028481 L159.16308,60.4082278 C158.29346,62.707384 158.992194,63.9175105 160.601055,64.5263713 C162.210759,65.1352321 163.53481,64.6900844 164.404852,62.3913502 L166.648312,56.4601266 L164.349156,55.5905063 L166.088397,50.992616 Z"/>
    <polygon fill="#9595EF" points="151.518 86.341 157.247 77.802 141.744 52.217 132.936 52.404 131.625 58.996 138.409 77.069"/>
    <polygon stroke="#000" stroke-linecap="round" stroke-linejoin="round" points="151.518 86.341 157.247 77.802 141.744 52.217 132.936 52.404 131.625 58.996 138.409 77.069"/>
    <path fill="#9595EF" d="M133.62616,84.6529114 C133.96962,84.6529114 134.328692,84.3816034 134.640084,84.1470042 L137.181857,82.0372996 L138.408439,77.0689451 L131.624473,58.9955274 L131.283122,85.0204219 C132.02827,84.7820253 132.816034,84.6529114 133.62616,84.6529114"/>
    <path stroke="#000" stroke-linecap="round" stroke-linejoin="round" stroke-width="1.291" d="M133.62616,84.6529114 C133.96962,84.6529114 134.328692,84.3816034 134.640084,84.1470042 L137.181857,82.0372996 L138.408439,77.0689451 L131.624473,58.9955274 L131.283122,85.0204219 C132.02827,84.7820253 132.816034,84.6529114 133.62616,84.6529114 Z"/>
    <path fill="#FFF" d="M132.054177,75.7577637 L132.695527,65.6666245 L136.95038,75.1387764 L132.054177,75.7577637 Z M131.401435,84.9889873 L131.513671,82.6729536 L139.961772,81.5396203 L142.937722,87.4117722 L151.51789,86.3408861 L132.936456,52.4045992 L127.196793,53.9784388 L123.64616,85.8075527 L131.401435,84.9889873 Z"/>
    <path stroke="#000" stroke-linecap="round" stroke-linejoin="round" d="M132.054177,75.7577637 L132.695527,65.6666245 L136.95038,75.1387764 L132.054177,75.7577637 Z M131.401435,84.9889873 L131.513671,82.6729536 L139.961772,81.5396203 L142.937722,87.4117722 L151.51789,86.3408861 L132.936456,52.4045992 L127.196793,53.9784388 L123.64616,85.8075527 L131.401435,84.9889873 Z"/>
    <path fill="#FFF" d="M67.734557,58.3805063 C66.4818143,58.3640506 66.0324473,58.918481 66.8624051,60.4020253 L68.1067089,62.6269198 C66.6518565,62.611308 65.9366667,62.6049789 64.5223207,62.6016034 C64.0759072,61.7931646 63.8527004,61.3889451 63.4062869,60.5809283 C61.5691561,57.2526582 62.3425738,55.3264979 66.1872996,55.4163713 C69.9522785,55.504135 73.2294937,57.4589873 75.1425738,60.7066667 C78.1164135,65.7564557 72.4649367,69.1049789 74.0725316,72.9834599 C74.1299156,73.1222785 74.2383544,73.2800844 74.3560759,73.4290295 C77.2640928,73.4518143 78.6889873,73.4783966 81.8383544,73.5362025 C82.4936287,74.7243882 82.8210549,75.318481 83.4763291,76.5066667 C79.6965823,76.4264979 75.9159916,76.3745992 72.1354008,76.389789 C71.5708439,75.3674262 71.2885654,74.8564557 70.7240084,73.8340928 C67.5109283,69.24 73.8505907,65.425654 71.1151477,60.7800844 C70.0577637,58.9847257 68.9877215,58.396962 67.734557,58.3805063"/>
    <path stroke="#000" stroke-linecap="round" stroke-linejoin="round" stroke-width="1.2" d="M67.734557,58.3805063 C66.4818143,58.3640506 66.0324473,58.918481 66.8624051,60.4020253 L68.1067089,62.6269198 C66.6518565,62.611308 65.9366667,62.6049789 64.5223207,62.6016034 C64.0759072,61.7931646 63.8527004,61.3889451 63.4062869,60.5809283 C61.5691561,57.2526582 62.3425738,55.3264979 66.1872996,55.4163713 C69.9522785,55.504135 73.2294937,57.4589873 75.1425738,60.7066667 C78.1164135,65.7564557 72.4649367,69.1049789 74.0725316,72.9834599 C74.1299156,73.1222785 74.2383544,73.2800844 74.3560759,73.4290295 C77.2640928,73.4518143 78.6889873,73.4783966 81.8383544,73.5362025 C82.4936287,74.7243882 82.8210549,75.318481 83.4763291,76.5066667 C79.6965823,76.4264979 75.9159916,76.3745992 72.1354008,76.389789 C71.5708439,75.3674262 71.2885654,74.8564557 70.7240084,73.8340928 C67.5109283,69.24 73.8505907,65.425654 71.1151477,60.7800844 C70.0577637,58.9847257 68.9877215,58.396962 67.734557,58.3805063 Z"/>
    <path fill="#FFF" d="M59.6224895,61.8501688 L62.9862025,56.2687342 C62.9862025,56.2687342 66.6452743,53.6497468 71.9136287,57.2290717 C76.3334599,60.2320253 76.0233333,63.8965823 76.0165823,64.0092405 C76.0140506,64.0535443 75.9735443,64.97 75.5170042,66.2898312 C74.8199578,68.3075527 73.6208017,71.0965823 73.7908439,71.8071308 C74.0722785,72.9835021 74.3562447,73.4286498 74.3562447,73.4286498 L81.8381013,73.5362447 L83.4760759,76.5067089 L80.5364135,81.3813924 L76.1727004,79.6742194 L68.9786076,78.59827 L70.525865,68.7763291 L69.2570886,64.3797046 L64.9288186,62.1062869 L59.6224895,61.8501688 Z"/>
    <path stroke="#000" stroke-linecap="round" stroke-linejoin="round" d="M59.6224895,61.8501688 L62.9862025,56.2687342 C62.9862025,56.2687342 66.6452743,53.6497468 71.9136287,57.2290717 C76.3334599,60.2320253 76.0233333,63.8965823 76.0165823,64.0092405 C76.0140506,64.0535443 75.9735443,64.97 75.5170042,66.2898312 C74.8199578,68.3075527 73.6208017,71.0965823 73.7908439,71.8071308 C74.0722785,72.9835021 74.3562447,73.4286498 74.3562447,73.4286498 L81.8381013,73.5362447 L83.4760759,76.5067089 L80.5364135,81.3813924 L76.1727004,79.6742194 L68.9786076,78.59827 L70.525865,68.7763291 L69.2570886,64.3797046 L64.9288186,62.1062869 L59.6224895,61.8501688 Z"/>
    <polygon fill="#FFF" points="65.167 67.502 61.583 67.476 64.019 62.716 67.049 63.755"/>
    <polygon stroke="#000" stroke-linecap="round" stroke-linejoin="round" stroke-width="1.2" points="65.167 67.502 61.583 67.476 64.019 62.716 67.049 63.755"/>
    <path fill="#9595EF" d="M64.7954008,63.2552743 C63.5422363,63.2383966 63.0928692,63.7932489 63.922827,65.2767932 L65.1671308,67.5016878 C63.7122785,67.4860759 62.9970886,67.4797468 61.5827426,67.4759494 C61.1363291,66.6679325 60.9135443,66.2637131 60.4671308,65.4556962 C58.6295781,62.1274262 59.4029958,60.2012658 63.2477215,60.2911392 C67.0127004,60.378903 70.2903376,62.3337553 72.2034177,65.5814346 C75.1768354,70.6312236 69.5253586,73.9797468 71.1333755,77.8582278 C71.1903376,77.9970464 71.2987764,78.1548523 71.4169198,78.3037975 C74.3249367,78.3265823 75.7494093,78.3531646 78.8991983,78.4109705 C79.5544726,79.5991561 79.8818987,80.1932489 80.5367511,81.3814346 C76.7570042,81.3012658 72.9764135,81.2493671 69.1958228,81.264557 C68.6312658,80.2421941 68.3489873,79.7312236 67.7848523,78.7088608 C64.5717722,74.1147679 70.9114346,70.3004219 68.1755696,65.6548523 C67.1186076,63.8594937 66.0481435,63.27173 64.7954008,63.2552743"/>
    <path stroke="#000" stroke-linecap="round" stroke-linejoin="round" d="M64.7954008,63.2552743 C63.5422363,63.2383966 63.0928692,63.7932489 63.922827,65.2767932 L65.1671308,67.5016878 C63.7122785,67.4860759 62.9970886,67.4797468 61.5827426,67.4759494 C61.1363291,66.6679325 60.9135443,66.2637131 60.4671308,65.4556962 C58.6295781,62.1274262 59.4029958,60.2012658 63.2477215,60.2911392 C67.0127004,60.378903 70.2903376,62.3337553 72.2034177,65.5814346 C75.1768354,70.6312236 69.5253586,73.9797468 71.1333755,77.8582278 C71.1903376,77.9970464 71.2987764,78.1548523 71.4169198,78.3037975 C74.3249367,78.3265823 75.7494093,78.3531646 78.8991983,78.4109705 C79.5544726,79.5991561 79.8818987,80.1932489 80.5367511,81.3814346 C76.7570042,81.3012658 72.9764135,81.2493671 69.1958228,81.264557 C68.6312658,80.2421941 68.3489873,79.7312236 67.7848523,78.7088608 C64.5717722,74.1147679 70.9114346,70.3004219 68.1755696,65.6548523 C67.1186076,63.8594937 66.0481435,63.27173 64.7954008,63.2552743 Z"/>
    <g transform="translate(78.481 73.417)">
      <path fill="#FFF" d="M0.418101266,4.99405063 L3.35734177,0.119367089"/>
      <path stroke="#000" stroke-linecap="round" stroke-linejoin="round" stroke-width="1.2" d="M0.418101266,4.99405063 L3.35734177,0.119367089"/>
    </g>
    <path fill="#FFF" d="M108.474937,7.92392405 C107.973249,13.2918565 115.332743,14.0500844 114.376624,19.574135 C114.300253,20.7395359 114.262278,21.3222363 114.185485,22.4872152 C110.756793,24.0804641 107.356793,25.7340506 103.969451,27.4129536 C104.057215,26.0589451 104.101519,25.38173 104.189705,24.0281435 C107.015865,22.6374262 108.293924,22.0074684 110.916287,20.7509283 C110.960169,20.5661181 110.991392,20.3775105 110.984219,20.2272996 C110.79097,16.0332068 104.252152,15.4045148 104.797722,9.56907173 C105.148776,5.81632911 107.285485,2.6543038 110.655949,0.974135021 C114.098143,-0.741054852 115.616709,0.67371308 115.367764,4.46738397 C115.307426,5.38890295 115.277046,5.84924051 115.217131,6.77075949 C113.937806,7.3749789 113.293502,7.68468354 111.982954,8.317173 C112.055105,7.29987342 112.091392,6.7914346 112.163966,5.77413502 C112.284219,4.07877637 111.642025,3.76780591 110.515021,4.31506329 C109.387595,4.86274262 108.66903,5.84924051 108.474937,7.92392405"/>
    <path stroke="#000" stroke-linecap="round" stroke-linejoin="round" stroke-width="1.2" d="M108.474937,7.92392405 C107.973249,13.2918565 115.332743,14.0500844 114.376624,19.574135 C114.300253,20.7395359 114.262278,21.3222363 114.185485,22.4872152 C110.756793,24.0804641 107.356793,25.7340506 103.969451,27.4129536 C104.057215,26.0589451 104.101519,25.38173 104.189705,24.0281435 C107.015865,22.6374262 108.293924,22.0074684 110.916287,20.7509283 C110.960169,20.5661181 110.991392,20.3775105 110.984219,20.2272996 C110.79097,16.0332068 104.252152,15.4045148 104.797722,9.56907173 C105.148776,5.81632911 107.285485,2.6543038 110.655949,0.974135021 C114.098143,-0.741054852 115.616709,0.67371308 115.367764,4.46738397 C115.307426,5.38890295 115.277046,5.84924051 115.217131,6.77075949 C113.937806,7.3749789 113.293502,7.68468354 111.982954,8.317173 C112.055105,7.29987342 112.091392,6.7914346 112.163966,5.77413502 C112.284219,4.07877637 111.642025,3.76780591 110.515021,4.31506329 C109.387595,4.86274262 108.66903,5.84924051 108.474937,7.92392405 Z"/>
    <path fill="#FFF" d="M119.332911,4.00822785 L113.915612,0.385864979 C113.915612,0.385864979 109.490717,-0.430168776 106.243038,5.04873418 C103.518143,9.64578059 105.356118,12.8310127 105.410549,12.9301688 C105.432068,12.9689873 105.857384,13.7812236 106.831646,14.7824895 C108.320675,16.3124473 110.590717,18.3272152 110.739241,19.042827 C110.984388,20.2272152 110.916456,20.7512658 110.916456,20.7512658 L104.189451,24.0280591 L103.96962,27.4128692 L108.70211,30.5761603 L111.926582,27.1761603 L117.981857,23.1449367 L112.406751,14.9116034 L111.686076,10.392616 L114.637975,6.49556962 L119.332911,4.00822785 Z"/>
    <path stroke="#000" stroke-linecap="round" stroke-linejoin="round" d="M119.332911,4.00822785 L113.915612,0.385864979 C113.915612,0.385864979 109.490717,-0.430168776 106.243038,5.04873418 C103.518143,9.64578059 105.356118,12.8310127 105.410549,12.9301688 C105.432068,12.9689873 105.857384,13.7812236 106.831646,14.7824895 C108.320675,16.3124473 110.590717,18.3272152 110.739241,19.042827 C110.984388,20.2272152 110.916456,20.7512658 110.916456,20.7512658 L104.189451,24.0280591 L103.96962,27.4128692 L108.70211,30.5761603 L111.926582,27.1761603 L117.981857,23.1449367 L112.406751,14.9116034 L111.686076,10.392616 L114.637975,6.49556962 L119.332911,4.00822785 Z"/>
    <polygon fill="#FFF" points="116.716 11.481 119.949 9.934 115.721 6.661 113.419 8.889"/>
    <polygon stroke="#000" stroke-linecap="round" stroke-linejoin="round" stroke-width="1.2" points="116.716 11.481 119.949 9.934 115.721 6.661 113.419 8.889"/>
    <path fill="#9595EF" d="M113.207342,11.0870464 C112.705654,16.4549789 120.06557,17.2136287 119.10903,22.7376793 C119.03308,23.9030802 118.994684,24.4853586 118.91789,25.6507595 C115.489198,27.2440084 112.08962,28.897173 108.701857,30.5760759 C108.790042,29.2220675 108.833924,28.5452743 108.92211,27.1912658 C111.74827,25.8009705 113.026329,25.1710127 115.649114,23.9144726 C115.692996,23.7296624 115.723797,23.5406329 115.716624,23.3904219 C115.523376,19.1967511 108.984557,18.5676371 109.530549,12.732616 C109.881603,8.97987342 112.01789,5.81742616 115.388354,4.13767932 C118.830549,2.42206751 120.349536,3.83683544 120.100591,7.63092827 C120.039831,8.55202532 120.009873,9.01278481 119.949536,9.93388186 C118.670211,10.5385232 118.025907,10.8482278 116.715359,11.4807173 C116.787932,10.4634177 116.823797,9.95455696 116.896371,8.93767932 C117.016624,7.24189873 116.37443,6.93092827 115.247426,7.47860759 C114.120422,8.02586498 113.401435,9.01278481 113.207342,11.0870464"/>
    <path stroke="#000" stroke-linecap="round" stroke-linejoin="round" d="M113.207342,11.0870464 C112.705654,16.4549789 120.06557,17.2136287 119.10903,22.7376793 C119.03308,23.9030802 118.994684,24.4853586 118.91789,25.6507595 C115.489198,27.2440084 112.08962,28.897173 108.701857,30.5760759 C108.790042,29.2220675 108.833924,28.5452743 108.92211,27.1912658 C111.74827,25.8009705 113.026329,25.1710127 115.649114,23.9144726 C115.692996,23.7296624 115.723797,23.5406329 115.716624,23.3904219 C115.523376,19.1967511 108.984557,18.5676371 109.530549,12.732616 C109.881603,8.97987342 112.01789,5.81742616 115.388354,4.13767932 C118.830549,2.42206751 120.349536,3.83683544 120.100591,7.63092827 C120.039831,8.55202532 120.009873,9.01278481 119.949536,9.93388186 C118.670211,10.5385232 118.025907,10.8482278 116.715359,11.4807173 C116.787932,10.4634177 116.823797,9.95455696 116.896371,8.93767932 C117.016624,7.24189873 116.37443,6.93092827 115.247426,7.47860759 C114.120422,8.02586498 113.401435,9.01278481 113.207342,11.0870464 Z"/>
    <g transform="translate(103.797 23.628)">
      <path fill="#FFF" d="M5.12455696,3.56362869 L0.392067511,0.400337553"/>
      <path stroke="#000" stroke-linecap="round" stroke-linejoin="round" stroke-width="1.2" d="M5.12455696,3.56362869 L0.392067511,0.400337553"/>
    </g>
  </g>
</svg>
