<svg width="140" height="140" viewBox="0 0 140 140" fill="none" xmlns="http://www.w3.org/2000/svg">
<g clip-path="url(#clip0)">
<path fill-rule="evenodd" clip-rule="evenodd" d="M124 140.688C124 149.697 106.091 157 84.0002 157C61.9086 157 44 149.697 44 140.688V117.037H124V140.688Z" fill="white"/>
<path fill-rule="evenodd" clip-rule="evenodd" d="M124 140.688C124 149.697 106.091 157 84.0002 157C61.9086 157 44 149.697 44 140.688V117.037H124V140.688Z" stroke="black" stroke-width="2" stroke-linejoin="round"/>
<path fill-rule="evenodd" clip-rule="evenodd" d="M124 117.591C124 126.481 106.091 133.688 84.0002 133.688C61.9086 133.688 44 126.481 44 117.591C44 108.702 61.9086 101.495 84.0002 101.495C106.091 101.495 124 108.702 124 117.591Z" fill="white"/>
<path fill-rule="evenodd" clip-rule="evenodd" d="M124 117.591C124 126.481 106.091 133.688 84.0002 133.688C61.9086 133.688 44 126.481 44 117.591C44 108.702 61.9086 101.495 84.0002 101.495C106.091 101.495 124 108.702 124 117.591Z" stroke="black" stroke-width="2" stroke-linejoin="round"/>
<path fill-rule="evenodd" clip-rule="evenodd" d="M124 108.494C124 117.503 106.091 124.807 84.0002 124.807C61.9086 124.807 44 117.503 44 108.494V84.8438H124V108.494Z" fill="#9595EF"/>
<path fill-rule="evenodd" clip-rule="evenodd" d="M124 108.494C124 117.503 106.091 124.807 84.0002 124.807C61.9086 124.807 44 117.503 44 108.494V84.8438H124V108.494Z" stroke="black" stroke-width="2"/>
<path fill-rule="evenodd" clip-rule="evenodd" d="M124 85.3991C124 94.2888 106.091 101.495 84.0002 101.495C61.9086 101.495 44 94.2888 44 85.3991C44 76.5093 61.9086 69.3027 84.0002 69.3027C106.091 69.3027 124 76.5093 124 85.3991Z" fill="#9595EF"/>
<path fill-rule="evenodd" clip-rule="evenodd" d="M124 85.3991C124 94.2888 106.091 101.495 84.0002 101.495C61.9086 101.495 44 94.2888 44 85.3991C44 76.5093 61.9086 69.3027 84.0002 69.3027C106.091 69.3027 124 76.5093 124 85.3991Z" stroke="black" stroke-width="2"/>
<path fill-rule="evenodd" clip-rule="evenodd" d="M124 75.1913C124 84.2007 106.091 91.5043 84.0002 91.5043C61.9086 91.5043 44 84.2007 44 75.1913V51.541H124V75.1913Z" fill="white"/>
<path fill-rule="evenodd" clip-rule="evenodd" d="M124 75.1913C124 84.2007 106.091 91.5043 84.0002 91.5043C61.9086 91.5043 44 84.2007 44 75.1913V51.541H124V75.1913Z" stroke="black" stroke-width="2" stroke-linejoin="round"/>
<path fill-rule="evenodd" clip-rule="evenodd" d="M124 52.0966C124 60.9862 106.091 68.1927 84.0002 68.1927C61.9086 68.1927 44 60.9862 44 52.0966C44 43.207 61.9086 36 84.0002 36C106.091 36 124 43.207 124 52.0966Z" fill="white"/>
<path fill-rule="evenodd" clip-rule="evenodd" d="M124 52.0966C124 60.9862 106.091 68.1927 84.0002 68.1927C61.9086 68.1927 44 60.9862 44 52.0966C44 43.207 61.9086 36 84.0002 36C106.091 36 124 43.207 124 52.0966Z" stroke="black" stroke-width="2" stroke-linejoin="round"/>
<path fill-rule="evenodd" clip-rule="evenodd" d="M45.5294 98.3991L25.0405 86.3471C24.3511 85.9414 23.7265 85.9034 23.2755 86.1703L16.7751 90.0198C16.7762 90.0187 16.778 90.0181 16.7797 90.0169C16.3321 90.2792 16.054 90.8411 16.0517 91.6396L16 110.259C15.9954 111.861 17.102 113.814 18.4723 114.621C19.2054 115.052 19.8627 115.064 20.3183 114.739C20.2913 114.759 20.2655 114.78 20.2367 114.797L21.8455 113.845L21.8242 121.595L21.7639 143.117C21.7598 144.719 22.8664 146.674 24.235 147.48C24.9664 147.91 25.6231 147.922 26.0787 147.6C26.0517 147.618 26.027 147.639 25.9989 147.656L30.5705 144.948L30.5613 148.233C30.5573 149.815 31.6128 151.775 33.0336 152.655C33.7662 153.086 34.4229 153.098 34.8785 152.775C34.8515 152.794 34.8268 152.815 34.798 152.832L41.2985 148.983C41.7437 148.719 42.0201 148.158 42.0218 147.362L42.0816 126.047L47.2255 123.002C47.6708 122.739 47.9465 122.178 47.9483 121.381L48 102.763C48.0057 101.157 46.8986 99.2041 45.5294 98.3991Z" fill="white"/>
<path fill-rule="evenodd" clip-rule="evenodd" d="M45.5294 98.3991L25.0405 86.3471C24.3511 85.9414 23.7265 85.9034 23.2755 86.1703L16.7751 90.0198C16.7762 90.0187 16.778 90.0181 16.7797 90.0169C16.3321 90.2792 16.054 90.8411 16.0517 91.6396L16 110.259C15.9954 111.861 17.102 113.814 18.4723 114.621C19.2054 115.052 19.8627 115.064 20.3183 114.739C20.2913 114.759 20.2655 114.78 20.2367 114.797L21.8455 113.845L21.8242 121.595L21.7639 143.117C21.7598 144.719 22.8664 146.674 24.235 147.48C24.9664 147.91 25.6231 147.922 26.0787 147.6C26.0517 147.618 26.027 147.639 25.9989 147.656L30.5705 144.948L30.5613 148.233C30.5573 149.815 31.6128 151.775 33.0336 152.655C33.7662 153.086 34.4229 153.098 34.8785 152.775C34.8515 152.794 34.8268 152.815 34.798 152.832L41.2985 148.983C41.7437 148.719 42.0201 148.158 42.0218 147.362L42.0816 126.047L47.2255 123.002C47.6708 122.739 47.9465 122.178 47.9483 121.381L48 102.763C48.0057 101.157 46.8986 99.2041 45.5294 98.3991Z" stroke="black" stroke-width="2" stroke-linejoin="round"/>
<path fill-rule="evenodd" clip-rule="evenodd" d="M35.8924 73.967C33.9109 72.836 32.1153 72.7306 30.8187 73.476L24.0804 77.3472C24.084 77.3449 24.0893 77.3431 24.0929 77.3407C22.8059 78.0732 22.0066 79.6393 22 81.8684C21.9869 86.3425 25.1691 91.7905 29.107 94.0384C31.2136 95.2407 33.1039 95.2743 34.4142 94.3693C34.3367 94.4229 34.2635 94.4829 34.1813 94.5295L40.9196 90.6588C42.1995 89.9235 42.9934 88.3597 43 86.137C43.0131 81.6641 39.8303 76.2144 35.8924 73.967Z" fill="white"/>
<path fill-rule="evenodd" clip-rule="evenodd" d="M35.8924 73.967C33.9109 72.836 32.1153 72.7306 30.8187 73.476L24.0804 77.3472C24.084 77.3449 24.0893 77.3431 24.0929 77.3407C22.8059 78.0732 22.0066 79.6393 22 81.8684C21.9869 86.3425 25.1691 91.7905 29.107 94.0384C31.2136 95.2407 33.1039 95.2743 34.4142 94.3693C34.3367 94.4229 34.2635 94.4829 34.1813 94.5295L40.9196 90.6588C42.1995 89.9235 42.9934 88.3597 43 86.137C43.0131 81.6641 39.8303 76.2144 35.8924 73.967Z" stroke="black" stroke-width="2" stroke-linejoin="round"/>
<path fill-rule="evenodd" clip-rule="evenodd" d="M27.3647 125.85C27.0128 126.054 26.7947 126.488 26.7929 127.104L26.7384 146.379C26.736 147.176 26.4545 147.737 26 148L32.6353 144.151C33.0898 143.888 33.3719 143.327 33.3737 142.53L33.4282 123.255C33.43 122.638 33.6481 122.204 34 122L27.3647 125.85Z" fill="white"/>
<path fill-rule="evenodd" clip-rule="evenodd" d="M27.3647 125.85C27.0128 126.054 26.7947 126.488 26.7929 127.104L26.7384 146.379C26.736 147.176 26.4545 147.737 26 148L32.6353 144.151C33.0898 143.888 33.3719 143.327 33.3737 142.53L33.4282 123.255C33.43 122.638 33.6481 122.204 34 122L27.3647 125.85Z" stroke="black" stroke-width="2" stroke-linejoin="round"/>
<path fill-rule="evenodd" clip-rule="evenodd" d="M20.9694 96.7769C20.883 96.8234 20.8302 96.9211 20.8296 97.0612L20.7824 112.409C20.7799 113.191 20.4816 113.741 20 114L27.0306 110.223C27.5122 109.965 27.8105 109.414 27.8136 108.633L27.8602 93.2843C27.8608 93.1448 27.9136 93.0465 28 93L20.9694 96.7769Z" fill="white"/>
<path fill-rule="evenodd" clip-rule="evenodd" d="M20.9694 96.7769C20.883 96.8234 20.8302 96.9211 20.8296 97.0612L20.7824 112.409C20.7799 113.191 20.4816 113.741 20 114L27.0306 110.223C27.5122 109.965 27.8105 109.414 27.8136 108.633L27.8602 93.2843C27.8608 93.1448 27.9136 93.0465 28 93L20.9694 96.7769Z" stroke="black" stroke-width="2" stroke-linejoin="round"/>
<path fill-rule="evenodd" clip-rule="evenodd" d="M46.4676 98.4306L25.4704 86.348C24.7639 85.9413 24.1239 85.9031 23.6617 86.1707L17 90.03C17.4616 89.7618 18.1022 89.8 18.8088 90.2067L39.8059 102.289C40.2304 102.534 40.6296 102.884 40.9811 103.298L36.4727 105.909C36.3909 105.957 36.3408 106.056 36.3402 106.2L36.2731 129.798L36.2119 151.374C36.2095 152.174 35.9263 152.735 35.4706 153L42.1322 149.141C42.5886 148.877 42.8712 148.314 42.8735 147.516L42.9342 126.148L48.2063 123.094C48.6626 122.83 48.9452 122.268 48.947 121.47L49 102.803C49.0053 101.195 47.8707 99.2375 46.4676 98.4306Z" fill="white"/>
<path fill-rule="evenodd" clip-rule="evenodd" d="M46.4676 98.4306L25.4704 86.348C24.7639 85.9413 24.1239 85.9031 23.6617 86.1707L17 90.03C17.4616 89.7618 18.1022 89.8 18.8088 90.2067L39.8059 102.289C40.2304 102.534 40.6296 102.884 40.9811 103.298L36.4727 105.909C36.3909 105.957 36.3408 106.056 36.3402 106.2L36.2731 129.798L36.2119 151.374C36.2095 152.174 35.9263 152.735 35.4706 153L42.1322 149.141C42.5886 148.877 42.8712 148.314 42.8735 147.516L42.9342 126.148L48.2063 123.094C48.6626 122.83 48.9452 122.268 48.947 121.47L49 102.803C49.0053 101.195 47.8707 99.2375 46.4676 98.4306Z" stroke="black" stroke-width="2" stroke-linejoin="round"/>
<path fill-rule="evenodd" clip-rule="evenodd" d="M39.4799 101.369C40.8765 102.173 42.0047 104.121 42 105.72L41.9467 124.294C41.9426 125.894 40.8073 126.54 39.4102 125.735C37.9622 124.858 36.8861 122.902 36.8914 121.324L36.9353 105.781C36.9359 105.494 36.7344 105.147 36.4848 105.004C36.2347 104.86 36.0326 104.975 36.032 105.261L35.9653 128.743L35.9037 150.213C35.8996 151.813 34.7638 152.458 33.3673 151.654C31.9187 150.776 30.8426 148.821 30.8467 147.243L30.9006 128.074C30.9041 126.836 30.0319 125.328 28.9511 124.706C27.8709 124.085 26.9911 124.584 26.9875 125.822L26.9325 145.05C26.9284 146.649 25.7925 147.295 24.396 146.492C23.0001 145.688 21.8719 143.739 21.8766 142.139L21.9375 120.669L22.0043 97.1873C22.0055 96.9011 21.804 96.5536 21.5538 96.41C21.3043 96.2663 21.1022 96.3814 21.101 96.6675L21.0565 112.271C21.0524 113.87 19.9166 114.516 18.5206 113.712C17.1235 112.908 15.9953 110.959 16 109.36L16.0521 90.7863C16.0568 89.1874 17.1927 88.5421 18.5892 89.3456L39.4799 101.369Z" fill="white"/>
<path fill-rule="evenodd" clip-rule="evenodd" d="M39.4799 101.369C40.8765 102.173 42.0047 104.121 42 105.72L41.9467 124.294C41.9426 125.894 40.8073 126.54 39.4102 125.735C37.9622 124.858 36.8861 122.902 36.8914 121.324L36.9353 105.781C36.9359 105.494 36.7344 105.147 36.4848 105.004C36.2347 104.86 36.0326 104.975 36.032 105.261L35.9653 128.743L35.9037 150.213C35.8996 151.813 34.7638 152.458 33.3673 151.654C31.9187 150.776 30.8426 148.821 30.8467 147.243L30.9006 128.074C30.9041 126.836 30.0319 125.328 28.9511 124.706C27.8709 124.085 26.9911 124.584 26.9875 125.822L26.9325 145.05C26.9284 146.649 25.7925 147.295 24.396 146.492C23.0001 145.688 21.8719 143.739 21.8766 142.139L21.9375 120.669L22.0043 97.1873C22.0055 96.9011 21.804 96.5536 21.5538 96.41C21.3043 96.2663 21.1022 96.3814 21.101 96.6675L21.0565 112.271C21.0524 113.87 19.9166 114.516 18.5206 113.712C17.1235 112.908 15.9953 110.959 16 109.36L16.0521 90.7863C16.0568 89.1874 17.1927 88.5421 18.5892 89.3456L39.4799 101.369Z" stroke="black" stroke-width="2" stroke-linejoin="round"/>
<path fill-rule="evenodd" clip-rule="evenodd" d="M28.9772 93.0404C25.1109 90.8091 21.9872 85.401 22 80.9606C22.0129 76.5203 25.1571 74.7285 29.0228 76.9598C32.8885 79.191 36.0128 84.6003 36 89.0401C35.9871 93.4804 32.8429 95.2711 28.9772 93.0404Z" fill="white"/>
<path fill-rule="evenodd" clip-rule="evenodd" d="M28.9772 93.0404C25.1109 90.8091 21.9872 85.401 22 80.9606C22.0129 76.5203 25.1571 74.7285 29.0228 76.9598C32.8885 79.191 36.0128 84.6003 36 89.0401C35.9871 93.4804 32.8429 95.2711 28.9772 93.0404Z" stroke="black" stroke-width="2" stroke-linejoin="round"/>
<path fill-rule="evenodd" clip-rule="evenodd" d="M83.5294 118.399L63.0405 106.347C62.3511 105.941 61.7265 105.903 61.2755 106.17L54.7751 110.019C54.7768 110.019 54.7779 110.018 54.7797 110.017C54.3321 110.279 54.0546 110.841 54.0517 111.64L54 130.259C53.996 131.861 55.102 133.814 56.4729 134.621C57.2054 135.052 57.8627 135.064 58.3183 134.739C58.2913 134.759 58.266 134.78 58.2373 134.797L59.8455 133.845L59.8242 141.595L59.7639 163.117C59.7598 164.72 60.8664 166.674 62.235 167.48C62.9664 167.91 63.6231 167.922 64.0787 167.6C64.0523 167.619 64.027 167.639 63.9994 167.656L68.5705 164.949L68.5619 168.233C68.5573 169.815 69.6133 171.775 71.0336 172.656C71.7662 173.086 72.4229 173.098 72.8785 172.775C72.8515 172.795 72.8268 172.816 72.798 172.831L79.2985 168.983C79.7443 168.72 80.0201 168.158 80.0218 167.362L80.0816 146.047L85.2255 143.002C85.6708 142.739 85.9465 142.177 85.9483 141.381L86 122.763C86.0057 121.157 84.8986 119.204 83.5294 118.399Z" fill="white"/>
<path fill-rule="evenodd" clip-rule="evenodd" d="M83.5294 119.399L63.0405 107.347C62.3511 106.941 61.7265 106.903 61.2755 107.17L54.7751 111.019C54.7768 111.019 54.7779 111.018 54.7797 111.017C54.3321 111.279 54.0546 111.841 54.0517 112.64L54 131.259C53.996 132.861 55.102 134.814 56.4729 135.621C57.2054 136.052 57.8627 136.064 58.3183 135.739C58.2913 135.759 58.266 135.78 58.2373 135.797L59.8455 134.845L59.8242 142.595L59.7639 164.117C59.7598 165.72 60.8664 167.674 62.235 168.48C62.9664 168.91 63.6231 168.922 64.0787 168.6C64.0523 168.619 64.027 168.639 63.9994 168.656L68.5705 165.949L68.5619 169.233C68.5573 170.815 69.6133 172.775 71.0336 173.656C71.7662 174.086 72.4229 174.098 72.8785 173.775C72.8515 173.795 72.8268 173.816 72.798 173.831L79.2985 169.983C79.7443 169.72 80.0201 169.158 80.0218 168.362L80.0816 147.047L85.2255 144.002C85.6708 143.739 85.9465 143.177 85.9483 142.381L86 123.763C86.0057 122.157 84.8986 120.204 83.5294 119.399Z" stroke="black" stroke-width="2" stroke-linejoin="round"/>
<path fill-rule="evenodd" clip-rule="evenodd" d="M74.892 93.967C72.9106 92.836 71.115 92.7306 69.8184 93.476L63.0803 97.3471C63.0839 97.3448 63.0892 97.343 63.0928 97.3407C61.8058 98.0737 61.0066 99.6392 61 101.868C60.9875 106.342 64.169 111.79 68.1074 114.038C70.2139 115.241 72.1036 115.274 73.4144 114.37C73.3364 114.423 73.2631 114.483 73.181 114.529L79.9191 110.659C81.1995 109.923 81.9928 108.359 82 106.137C82.0125 101.664 78.8298 96.2144 74.892 93.967Z" fill="white"/>
<path fill-rule="evenodd" clip-rule="evenodd" d="M74.892 93.967C72.9106 92.836 71.115 92.7306 69.8184 93.476L63.0803 97.3471C63.0839 97.3448 63.0892 97.343 63.0928 97.3407C61.8058 98.0737 61.0066 99.6392 61 101.868C60.9875 106.342 64.169 111.79 68.1074 114.038C70.2139 115.241 72.1036 115.274 73.4144 114.37C73.3364 114.423 73.2631 114.483 73.181 114.529L79.9191 110.659C81.1995 109.923 81.9928 108.359 82 106.137C82.0125 101.664 78.8298 96.2144 74.892 93.967Z" stroke="black" stroke-width="2" stroke-linejoin="round"/>
<path fill-rule="evenodd" clip-rule="evenodd" d="M58.9694 117.777C58.883 117.823 58.8302 117.921 58.8296 118.062L58.783 133.409C58.7805 134.191 58.4816 134.741 58 135L65.0306 131.223C65.5122 130.965 65.8111 130.414 65.8136 129.633L65.8602 114.284C65.8608 114.145 65.9136 114.047 66 114L58.9694 117.777Z" fill="white"/>
<path fill-rule="evenodd" clip-rule="evenodd" d="M58.9694 117.777C58.883 117.823 58.8302 117.921 58.8296 118.062L58.783 133.409C58.7805 134.191 58.4816 134.741 58 135L65.0306 131.223C65.5122 130.965 65.8111 130.414 65.8136 129.633L65.8602 114.284C65.8608 114.145 65.9136 114.047 66 114L58.9694 117.777Z" stroke="black" stroke-width="2" stroke-linejoin="round"/>
<path fill-rule="evenodd" clip-rule="evenodd" d="M83.4676 119.431L62.4704 107.348C61.7639 106.941 61.1239 106.903 60.6617 107.171L54 111.029C54.4622 110.762 55.1022 110.799 55.8088 111.206L76.8059 123.289C77.231 123.534 77.6296 123.885 77.9811 124.298L73.4727 126.909C73.3909 126.956 73.3408 127.057 73.3402 127.2L73.2731 150.798L73.2119 172.376C73.2095 173.174 72.9269 173.735 72.4706 174L79.1322 170.141C79.5886 169.878 79.8718 169.315 79.8735 168.517L79.9342 147.148L85.2063 144.094C85.6626 143.83 85.9452 143.268 85.947 142.47L86 123.804C86.0053 122.195 84.8707 120.238 83.4676 119.431Z" fill="white"/>
<path fill-rule="evenodd" clip-rule="evenodd" d="M83.4676 119.431L62.4704 107.348C61.7639 106.941 61.1239 106.903 60.6617 107.171L54 111.029C54.4622 110.762 55.1022 110.799 55.8088 111.206L76.8059 123.289C77.231 123.534 77.6296 123.885 77.9811 124.298L73.4727 126.909C73.3909 126.956 73.3408 127.057 73.3402 127.2L73.2731 150.798L73.2119 172.376C73.2095 173.174 72.9269 173.735 72.4706 174L79.1322 170.141C79.5886 169.878 79.8718 169.315 79.8735 168.517L79.9342 147.148L85.2063 144.094C85.6626 143.83 85.9452 143.268 85.947 142.47L86 123.804C86.0053 122.195 84.8707 120.238 83.4676 119.431Z" stroke="black" stroke-width="2" stroke-linejoin="round"/>
<path fill-rule="evenodd" clip-rule="evenodd" d="M77.4805 123.369C78.8765 124.173 80.0047 126.121 80 127.72L79.9473 146.294C79.9432 147.894 78.8073 148.539 77.4108 147.735C75.9628 146.858 74.8867 144.902 74.892 143.323L74.9353 127.781C74.9365 127.494 74.735 127.147 74.4854 127.004C74.2353 126.86 74.0332 126.975 74.032 127.261L73.9653 150.743L73.9043 172.213C73.9002 173.812 72.7644 174.458 71.3673 173.654C69.9192 172.776 68.8426 170.82 68.8473 169.243L68.9012 150.074C68.9047 148.836 68.0319 147.328 66.9517 146.706C65.8709 146.084 64.9916 146.583 64.9875 147.822L64.9331 167.049C64.929 168.649 63.7925 169.295 62.3966 168.491C61.0001 167.687 59.8719 165.738 59.8772 164.139L59.9381 142.669L60.0049 119.187C60.0055 118.901 59.8039 118.554 59.5544 118.41C59.3049 118.266 59.1022 118.381 59.1016 118.668L59.0571 134.27C59.053 135.87 57.9171 136.515 56.5212 135.712C55.1235 134.907 53.9959 132.959 54 131.36L54.0527 112.786C54.0568 111.187 55.1933 110.542 56.5898 111.346L77.4805 123.369Z" fill="white"/>
<path fill-rule="evenodd" clip-rule="evenodd" d="M77.4805 123.369C78.8765 124.173 80.0047 126.121 80 127.72L79.9473 146.294C79.9432 147.894 78.8073 148.539 77.4108 147.735C75.9628 146.858 74.8867 144.902 74.892 143.323L74.9353 127.781C74.9365 127.494 74.735 127.147 74.4854 127.004C74.2353 126.86 74.0332 126.975 74.032 127.261L73.9653 150.743L73.9043 172.213C73.9002 173.812 72.7644 174.458 71.3673 173.654C69.9192 172.776 68.8426 170.82 68.8473 169.243L68.9012 150.074C68.9047 148.836 68.0319 147.328 66.9517 146.706C65.8709 146.085 64.9916 146.583 64.9875 147.822L64.9331 167.049C64.929 168.649 63.7925 169.295 62.3966 168.491C61.0001 167.687 59.8719 165.738 59.8772 164.139L59.9381 142.669L60.0049 119.187C60.0055 118.901 59.8039 118.554 59.5544 118.41C59.3049 118.266 59.1022 118.381 59.1016 118.668L59.0571 134.27C59.053 135.87 57.9171 136.515 56.5212 135.712C55.1235 134.907 53.9959 132.959 54 131.36L54.0527 112.786C54.0568 111.187 55.1933 110.542 56.5898 111.346L77.4805 123.369Z" stroke="black" stroke-width="2" stroke-linejoin="round"/>
<path fill-rule="evenodd" clip-rule="evenodd" d="M67.9772 114.04C64.1109 111.809 60.9872 106.401 61 101.96C61.0129 97.5206 64.1571 95.7281 68.0228 97.96C71.8879 100.191 75.0128 105.6 75 110.04C74.9871 114.48 71.8429 116.271 67.9772 114.04Z" fill="white"/>
<path fill-rule="evenodd" clip-rule="evenodd" d="M67.9772 114.04C64.1109 111.809 60.9872 106.401 61 101.96C61.0129 97.5206 64.1571 95.7281 68.0228 97.96C71.8879 100.191 75.0128 105.6 75 110.04C74.9871 114.48 71.8429 116.271 67.9772 114.04Z" stroke="black" stroke-width="2" stroke-linejoin="round"/>
</g>
<defs>
<clipPath id="clip0">
<rect width="140" height="140" fill="white"/>
</clipPath>
</defs>
</svg>
