<svg xmlns="http://www.w3.org/2000/svg" xmlns:xlink="http://www.w3.org/1999/xlink" width="89" height="75" viewBox="0 0 89 75">
  <defs>
    <polygon id="datadog-a" points="68.086 0 .105 0 .105 72.499 68.086 72.499"/>
  </defs>
  <g fill="none" fill-rule="evenodd" transform="translate(-11)">
    <g transform="translate(12)">
      <path fill="#AC75FF" fill-opacity=".08" stroke="#000" stroke-dasharray="8 10" stroke-linecap="round" stroke-linejoin="round" d="M26.1176471,71 L18,8.11428571 L78.8823529,0 L87,64.9142857 L52.5,71 L51.4852941,66.9428571 L26.1176471,71 Z"/>
      <polygon fill="#FFF" points="0 10 55.865 3.134 61.771 61.711 33.522 67.868 30.478 61.711 27.435 61.711 24.391 69.921 21.348 73 16.275 69.921 8.159 59.658"/>
    </g>
    <g transform="translate(0 1)">
      <g transform="translate(.27 .978)">
        <mask id="datadog-b" fill="#fff">
          <use xlink:href="#datadog-a"/>
        </mask>
        <path fill="#5C2D90" fill-rule="nonzero" d="M74.2600266,38.4023001 L76.046246,61.2028649 L44.419656,66.8767382 L41.6877911,44.0761734 L46.2058754,43.445743 C46.9413774,43.7609582 47.4667361,43.8660299 48.3073099,44.0761734 C49.6732424,44.3913885 51.2493183,44.8116754 53.5608963,43.5508147 C54.0862549,43.2355995 55.2420439,42.289954 55.6623308,41.6595236 L74.2600266,38.4023001 Z M25.4016733,65.5108058 C24.8763147,64.670232 23.9306691,63.7245864 22.4596649,62.5687974 C20.3582304,60.8876498 21.0937325,57.9456414 22.3545932,56.159422 C23.9306691,53.1123419 32.2313356,49.1196163 31.8110487,44.1812451 C31.6009052,42.3950257 31.3907618,40.0834477 29.7096141,38.4023001 C29.6045424,39.0327304 29.7096141,39.6631608 29.7096141,39.6631608 C29.7096141,39.6631608 28.974112,38.822587 28.6588968,37.5617262 C28.3436817,37.1414393 28.0284665,36.9312959 27.7132513,36.3008655 C27.5031078,37.0363676 27.5031078,37.7718697 27.5031078,37.7718697 C27.5031078,37.7718697 26.9777492,36.4059372 26.8726775,35.35522 C26.5574623,35.8805786 26.4523906,36.8262242 26.4523906,36.8262242 C26.4523906,36.8262242 25.7168885,34.7247896 25.9270319,33.5690006 C25.6118167,32.623355 24.5610995,30.6269922 24.8763147,26.2139797 C26.662534,27.4748404 30.6552597,27.1596252 32.2313356,24.8480472 C32.7566942,24.1125451 33.0719094,22.0111106 32.0211921,17.9133132 C31.28569,15.28652 29.4994707,11.3988661 28.7639686,9.92786189 L28.6588968,10.0329336 C29.0791838,11.1887226 29.8146858,13.7104441 30.129901,14.9713048 C30.9704749,18.6488153 31.28569,19.909676 30.8654031,21.5908237 C30.5501879,23.0618278 29.7096141,24.0074734 27.5031078,25.0581907 C25.4016733,26.1089079 22.4596649,23.4821147 22.3545932,23.377043 C20.2531586,21.6958954 18.6770827,18.9640305 18.4669393,17.7031697 C18.2567958,16.2321655 19.3075131,15.3915917 19.8328717,14.2358027 C19.0973696,14.4459462 18.2567958,14.8662331 18.2567958,14.8662331 C18.2567958,14.8662331 19.2024414,13.8155158 20.4633021,12.974942 C20.9886607,12.6597268 21.3038759,12.4495834 21.8292346,12.0292964 C21.0937325,12.0292964 20.4633021,12.0292964 20.4633021,12.0292964 C20.4633021,12.0292964 21.7241628,11.2937943 23.0900953,10.8735074 C22.1444497,10.8735074 21.1988042,10.8735074 21.1988042,10.8735074 C21.1988042,10.8735074 24.0357408,9.61264671 26.2422471,8.66700116 C27.818323,8.03657079 29.2893272,8.24671425 30.129901,9.40250325 C31.28569,10.9785792 32.441479,11.819153 34.8581288,12.4495834 C36.329133,11.819153 36.8544916,11.3988661 38.7457827,10.8735074 C40.4269303,8.98221634 41.7928628,8.77207289 41.7928628,8.77207289 C41.7928628,8.77207289 40.8472172,9.61264671 40.7421455,10.5582923 C41.6877911,9.82279016 42.7385083,9.1923598 42.7385083,9.1923598 C42.7385083,9.1923598 42.3182214,9.71771843 42.0030062,10.4532205 L42.108078,10.5582923 C43.263867,9.92786189 44.5247277,9.40250325 44.5247277,9.40250325 C44.5247277,9.40250325 44.1044408,9.82279016 43.6841539,10.4532205 C44.5247277,10.4532205 46.2058754,10.4532205 46.8363057,10.5582923 C50.7239596,10.663364 51.5645335,6.46049488 53.0355376,5.83006451 C54.9268287,5.19963415 55.7674026,4.77934724 58.9195544,7.93149907 C61.6514193,10.663364 63.7528539,15.3915917 62.7021366,16.442309 C61.8615628,17.2828828 60.0753434,16.1270938 58.0789806,13.7104441 C57.0282633,12.4495834 56.2927612,10.8735074 55.8724743,8.98221634 C55.6623308,7.40614043 54.5065418,6.46049488 54.5065418,6.46049488 C54.5065418,6.46049488 55.2420439,8.03657079 55.2420439,9.40250325 C55.2420439,10.1380053 55.3471157,12.8698703 56.5029047,14.4459462 C56.3978329,14.6560896 56.2927612,15.6017352 56.1876895,15.7068069 C54.821757,14.0256593 51.7746769,12.8698703 51.35439,12.4495834 C53.0355376,13.8155158 56.8181198,16.8625959 58.289124,19.8046043 C59.6550565,22.6415409 58.8144827,25.1632624 59.5499848,25.7936928 C59.7601282,26.0038362 62.4919931,29.3661315 63.0173518,31.1523509 C63.9629973,34.199431 63.1224235,37.3515828 61.8615628,39.2428739 L58.4992675,39.7682325 C57.9739088,39.6631608 57.6586937,39.5580891 57.2384067,39.3479456 C57.4485502,38.9276587 57.9739088,37.8769414 57.9739088,37.666798 L57.7637654,37.3515828 C56.7130481,38.822587 54.9268287,40.2935912 53.4558246,41.134165 C51.5645335,42.1848823 49.3580272,42.0798105 47.887023,41.5544519 C43.7892256,40.2935912 39.9015717,37.5617262 39.0609979,36.8262242 C39.0609979,36.8262242 39.0609979,37.3515828 39.1660696,37.5617262 C40.2167869,38.7175152 42.5283649,40.8189498 44.8399429,42.289954 L40.0066434,42.8153126 L42.3182214,60.6775063 C41.2675042,60.782578 41.1624324,60.8876498 40.0066434,61.0977932 C39.0609979,57.6304262 37.1697068,55.4239199 35.0682722,54.0579875 C33.2820529,52.9021985 30.7603314,52.5869833 28.3436817,53.1123419 L28.2386099,53.3224854 C29.9197576,53.1123419 31.9161204,53.4275571 33.9124832,54.6884178 C35.908846,55.9492786 37.484922,59.2065021 38.1153523,61.0977932 C38.8508544,63.6195147 39.3762131,66.2463079 37.3798502,69.0832445 C35.908846,71.0796073 31.7059769,72.2353963 28.3436817,69.8187466 C29.2893272,71.2897508 30.4451162,72.4455398 32.1262639,72.6556833 C34.5429136,72.9708984 36.8544916,72.5506115 38.5356392,70.9745356 C39.9015717,69.6086032 40.6370738,66.6665948 40.4269303,63.514443 L42.6334366,63.1992278 L43.3689387,68.7680293 L79.1983978,64.4600885 L76.046246,35.8805786 L74.2600266,36.1957938 L70.6875879,0.156191224 L11.0068466,7.09092524 L18.3618675,66.5615231 L25.4016733,65.5108058 Z" mask="url(#datadog-b)"/>
      </g>
      <path fill="#5C2D90" d="M54.0672369 35.2315202C55.6433128 36.3873092 57.0092453 37.1228113 58.3751777 37.0177396 59.2157515 36.9126678 60.0563254 35.5467354 60.581684 34.2858747 61.0019709 33.4453008 61.0019709 32.4996553 60.3715405 32.1844401 60.0563254 32.0793684 58.7954646 32.0793684 57.8498191 32.1844401 56.0635997 32.3945836 54.2773803 33.0250139 53.8570934 33.3402291 53.2266631 33.760516 53.5418782 34.8112333 54.0672369 35.2315202M54.4875238 22.9381281L54.4875238 23.0431998 54.5925955 23.2533433C55.0128824 24.0939171 55.4331693 24.9344909 56.2737432 25.3547778 56.4838866 25.3547778 56.6940301 25.2497061 56.9041735 25.2497061 57.6396756 25.2497061 58.0599625 25.3547778 58.3751777 25.4598495 58.3751777 25.3547778 58.3751777 25.1446344 58.3751777 24.8294192 58.270106 23.7787019 58.5853212 21.8874108 56.4838866 20.8366935 55.6433128 20.4164066 54.5925955 20.6265501 54.1723086 21.046837L54.3824521 21.046837C54.9078107 21.2569804 54.5925955 21.4671239 54.4875238 21.6772673 54.3824521 22.0975543 54.2773803 22.202626 54.4875238 22.9381281M45.0310683 23.1482715C45.5564269 22.7279846 42.6144186 22.0975543 40.3028406 23.5685584 38.6216929 24.7243474 38.6216929 27.1409972 40.1977688 28.5069296 40.4079123 28.6120014 40.512984 28.7170731 40.6180557 28.8221448 41.0383427 28.6120014 41.668773 28.4018579 42.1941317 28.1917145 43.2448489 27.8764993 44.0854228 27.6663558 44.8209249 27.5612841 45.13614 27.1409972 45.5564269 26.5105668 45.4513552 25.3547778 45.3462835 23.7787019 44.0854228 24.0939171 45.0310683 23.1482715"/>
      <polygon fill="#5C2D90" points="62.158 48.681 57.114 57.086 51.23 55.3 46.082 63.181 46.292 65.702 74.451 60.554 72.77 43.007 68.147 52.673"/>
    </g>
  </g>
</svg>
