<svg width="178" height="178" viewBox="0 0 178 178" fill="none" xmlns="http://www.w3.org/2000/svg">
<mask id="mask0" mask-type="alpha" maskUnits="userSpaceOnUse" x="12" y="75" width="154" height="92">
<path fill-rule="evenodd" clip-rule="evenodd" d="M12.2375 75.65H165.556V166.417H12.2375V75.65Z" fill="white"/>
</mask>
<g mask="url(#mask0)">
<path opacity="0.585045" fill-rule="evenodd" clip-rule="evenodd" d="M116.63 95.7232C138.443 111.902 167.449 101.393 165.46 130.114C163.47 158.836 134.392 167.143 68.876 166.368C3.35955 165.593 6.18193 128.761 20.9221 108.436C28.2925 98.273 46.941 79.6557 66.4549 76.1637C85.9688 72.6721 106.002 87.8398 116.63 95.7232Z" fill="#9595EF"/>
</g>
<mask id="mask1" mask-type="alpha" maskUnits="userSpaceOnUse" x="68" y="11" width="43" height="102">
<path fill-rule="evenodd" clip-rule="evenodd" d="M68.975 11.125H110.137V112.363H68.975V11.125Z" fill="white"/>
</mask>
<g mask="url(#mask1)">
<path fill-rule="evenodd" clip-rule="evenodd" d="M90.4412 57.2746C96.9984 61.0947 103.552 64.9213 110.12 68.724C110.116 78.5152 110.112 88.307 110.108 98.0981C110.751 112.883 100.646 115.521 89.1742 109.016C76.4181 101.782 68.7643 89.2297 69 74.3594C68.9917 58.2449 68.9834 42.129 68.9751 26.0139C68.9406 11.9615 76.8012 7.14211 89.0401 14.6416C101.53 22.2947 110.175 34.6669 110.128 49.959C110.126 53.5354 110.125 55.3301 110.124 58.9245C105.792 56.4187 101.473 53.8891 97.1524 51.3621C97.1607 47.3921 97.1645 45.4103 97.1728 41.4648C97.1536 35.6398 94.4191 30.8204 89.4667 27.8657C84.7468 25.0494 81.8488 25.8621 81.8769 32.4858C81.9484 49.2916 82.0193 66.0973 82.0908 82.9031C82.1642 88.5899 84.6523 93.3064 89.5497 96.1273C94.1349 98.7668 97.0578 98.0808 97.0713 91.5053C97.0827 85.8211 97.0942 80.1362 97.1064 74.452C94.4657 72.9242 93.1202 72.1455 90.4514 70.6016C90.4476 65.2743 90.4451 62.6045 90.4412 57.2746Z" fill="#9595EF"/>
</g>
<path fill-rule="evenodd" clip-rule="evenodd" d="M141.699 109.975C136.376 103.64 131.185 97.1961 126.093 90.675C125.438 89.8256 125.112 89.4012 124.464 88.5561C124.129 88.1178 123.734 87.9656 123.447 88.0929V88.0911L123.443 88.0953C123.334 88.145 123.239 88.2348 123.171 88.3663L118.705 92.8067L119.073 92.957C118 93.1207 116.797 92.8946 115.534 92.2046C113.884 91.3037 112.382 89.7577 111.169 87.8643L111.167 87.8601C110.551 86.8991 110.009 85.8424 109.562 84.7347C109.004 83.3518 108.593 81.8853 108.372 80.4162C108.247 79.5838 107.639 78.8799 107.136 79.0012C101.659 80.3314 96.1657 81.5985 90.6707 82.8535C90.5551 82.8801 90.4582 82.9438 90.3741 83.025L90.3656 83.0238L85.6625 87.7358L91.0975 91.8894L92.0189 89.9808C93.2169 93.4712 94.398 96.9688 95.5464 100.474C95.8497 101.397 96.5398 102.025 97.0907 101.88C98.1598 101.6 98.6956 101.462 99.7689 101.187C100.461 101.011 101.296 102.147 101.27 103.231C101.067 111.955 100.865 120.68 100.662 129.404C100.642 130.27 101.12 131.237 101.733 131.568C108.983 135.499 116.202 139.483 123.418 143.474L125.238 151.3L129.866 146.647L129.863 146.642C130.134 146.5 130.312 146.173 130.316 145.696C130.394 136.869 130.472 128.043 130.55 119.215C130.559 118.12 131.498 117.947 132.248 118.909C132.58 119.335 132.846 119.675 133.1 119.999L130.934 121.859V126.947L135.569 122.275L135.568 122.272C135.777 122.252 135.961 122.147 136.089 121.946C138.511 118.138 139.73 116.235 142.221 112.458C142.598 111.885 142.359 110.761 141.699 109.975Z" fill="white" stroke="black" stroke-linejoin="round"/>
<path fill-rule="evenodd" clip-rule="evenodd" d="M121.657 95.146C121.002 94.2951 120.677 93.8699 120.03 93.0232C119.501 92.3302 118.823 92.3466 118.654 93.0584C118.379 94.2204 118.005 95.0519 117.333 95.8658C116.782 96.5309 116.114 97.0059 115.363 97.2628C114.125 97.6873 112.66 97.5288 111.107 96.6785C109.459 95.7759 107.958 94.2276 106.746 92.3302L106.744 92.3259C106.128 91.3632 105.586 90.3045 105.14 89.1948C104.582 87.8093 104.172 86.3401 103.951 84.8684C103.826 84.0344 103.219 83.3292 102.716 83.4513C97.2443 84.7833 91.7553 86.0528 86.265 87.3101C85.6898 87.4425 85.4926 88.3147 85.8216 89.2537C87.6537 94.4676 89.4205 99.71 91.1365 104.963C91.4395 105.888 92.1291 106.517 92.6795 106.372C93.7477 106.091 94.283 105.953 95.3548 105.678C96.0467 105.501 96.8808 106.639 96.8554 107.725C96.6528 116.465 96.4502 125.206 96.2475 133.946C96.2276 134.814 96.7054 135.783 97.3181 136.114C106.437 141.072 115.509 146.115 124.586 151.15C125.288 151.539 125.868 151.145 125.876 150.269C125.954 141.425 126.032 132.583 126.109 123.739C126.119 122.642 127.057 122.468 127.806 123.432C128.633 124.493 129.049 125.027 129.888 126.096C130.496 126.87 131.285 127.041 131.644 126.475C134.064 122.66 135.281 120.753 137.771 116.969C138.148 116.395 137.909 115.269 137.249 114.482C131.932 108.135 126.745 101.68 121.657 95.146Z" fill="white" stroke="black" stroke-linejoin="round"/>
<path fill-rule="evenodd" clip-rule="evenodd" d="M80.5115 75.487C75.1891 69.1527 69.998 62.7086 64.9056 56.1875C64.2506 55.3381 63.9249 54.9137 63.2771 54.0685C62.9411 53.6302 62.547 53.478 62.2595 53.6053V53.6035L62.2552 53.6078C62.1457 53.6575 62.0518 53.7472 61.9834 53.8782L57.5176 58.3191L57.8856 58.4695C56.8129 58.6332 55.6094 58.407 54.3466 57.7171C52.6964 56.8162 51.1944 55.2702 49.9819 53.3768C49.9813 53.375 49.9806 53.3744 49.9794 53.3725C49.3632 52.4116 48.8214 51.3549 48.3746 50.2472C47.8164 48.8643 47.4054 47.3977 47.1844 45.9287C47.0591 45.0963 46.4519 44.3924 45.9488 44.5137C40.472 45.8438 34.9782 47.1109 29.4832 48.3659C29.367 48.3926 29.2708 48.4563 29.1866 48.5375L29.1781 48.5363L24.475 53.2483L29.9094 57.4018L30.8314 55.4927C32.0295 58.9836 33.2105 62.4806 34.3589 65.9867C34.6622 66.9094 35.3524 67.5375 35.9033 67.3926C36.9723 67.1125 37.5081 66.9737 38.5808 66.6997C39.2728 66.5232 40.1082 67.6594 40.0828 68.7434C39.88 77.4677 39.6772 86.192 39.4738 94.9163C39.4538 95.7827 39.932 96.7497 40.5459 97.0801C47.7952 101.012 55.0143 104.996 62.2304 108.987L64.0508 116.812L68.6777 112.159L68.6752 112.154C68.9465 112.012 69.1244 111.685 69.1287 111.209C69.2062 102.381 69.2843 93.5546 69.3623 84.7278C69.372 83.6329 70.3104 83.4589 71.0604 84.4211C71.3928 84.8467 71.6585 85.1874 71.9122 85.5118L69.7462 87.3712V92.4597L74.3821 87.7871L74.3803 87.7847C74.5898 87.7641 74.7732 87.6598 74.9015 87.4585C77.3236 83.6505 78.5423 81.7474 81.0328 77.9703C81.4105 77.3974 81.172 76.2733 80.5115 75.487Z" fill="white" stroke="black" stroke-linejoin="round"/>
<path fill-rule="evenodd" clip-rule="evenodd" d="M60.4693 60.6589C59.8148 59.8079 59.4894 59.3827 58.8422 58.536C58.313 57.843 57.6362 57.8594 57.4668 58.5713C57.191 59.7332 56.8184 60.5647 56.1458 61.378C55.5948 62.0437 54.927 62.5187 54.1764 62.775C52.9383 63.2002 51.4721 63.0416 49.9194 62.1913C48.2712 61.2887 46.77 59.7399 45.559 57.843C45.5578 57.8412 45.5572 57.8406 45.5566 57.8388C44.9409 56.8761 44.3989 55.8174 43.9526 54.7077C43.3949 53.3222 42.9848 51.853 42.7634 50.3813C42.6382 49.5473 42.0315 48.8422 41.5295 48.9636C36.0568 50.2962 30.5677 51.5657 25.0781 52.823C24.5023 52.9554 24.3051 53.8276 24.6341 54.7666C26.4662 59.9804 28.233 65.2228 29.949 70.4761C30.252 71.4005 30.9415 72.0298 31.492 71.8846C32.5601 71.604 33.0954 71.4649 34.1678 71.1903C34.8592 71.0136 35.6933 72.1518 35.6685 73.2379C35.4652 81.9781 35.2626 90.7184 35.06 99.4587C35.04 100.327 35.5179 101.295 36.1306 101.627C45.2494 106.585 54.321 111.627 63.398 116.662C64.1008 117.052 64.6809 116.658 64.6888 115.781C64.7662 106.938 64.8442 98.0946 64.9222 89.2516C64.9319 88.1547 65.87 87.9803 66.6189 88.9443C67.4451 90.006 67.8612 90.5387 68.7008 91.6083C69.3092 92.3827 70.0974 92.554 70.4573 91.9873C72.8767 88.1723 74.0942 86.2657 76.5832 82.4817C76.96 81.9077 76.7223 80.7816 76.0618 79.9938C70.744 73.6478 65.5579 67.1919 60.4693 60.6589Z" fill="white" stroke="black" stroke-linejoin="round"/>
<path fill-rule="evenodd" clip-rule="evenodd" d="M99.4241 111.087C94.1017 104.753 88.9106 98.3086 83.8182 91.7875C83.1632 90.9382 82.8376 90.5138 82.1892 89.6686C81.8538 89.2303 81.4597 89.0781 81.1722 89.2054V89.2036L81.1679 89.2078C81.0584 89.2576 80.9639 89.3473 80.8961 89.4782L76.4303 93.9192L76.7978 94.0696C75.7257 94.2333 74.5222 94.0071 73.2594 93.3172C71.6092 92.4162 70.1066 90.8703 68.8947 88.9769C68.8935 88.975 68.8935 88.9738 68.8923 88.972C68.276 88.0117 67.7336 86.9543 67.2874 85.8467C66.7293 84.4638 66.3182 82.9978 66.0973 81.5288C65.972 80.6964 65.3642 79.9919 64.8617 80.1137C59.3844 81.4433 53.8912 82.711 48.3963 83.966C48.2801 83.9927 48.1832 84.0563 48.0991 84.1376L48.0912 84.1364L43.3875 88.8483L48.8225 93.0019L49.7445 91.0928C50.9425 94.5837 52.1236 98.0807 53.2719 101.587C53.5752 102.509 54.2647 103.137 54.8162 102.992C55.8853 102.713 56.4211 102.574 57.4938 102.3C58.1857 102.123 59.0211 103.259 58.9957 104.343C58.7929 113.068 58.5895 121.791 58.3867 130.516C58.3667 131.383 58.845 132.35 59.4588 132.68C66.7081 136.612 73.9271 140.596 81.1431 144.587L82.9629 152.412L87.5903 147.759L87.5879 147.754C87.8591 147.611 88.0365 147.285 88.0407 146.808C88.1188 137.981 88.1969 129.155 88.2744 120.328C88.2841 119.233 89.223 119.059 89.973 120.02C90.3054 120.447 90.5705 120.787 90.8248 121.112L88.6588 122.971V128.06L93.2947 123.387L93.2929 123.385C93.5023 123.364 93.6858 123.26 93.8141 123.059C96.2362 119.251 97.4542 117.347 99.9453 113.57C100.323 112.997 100.085 111.873 99.4241 111.087Z" fill="white" stroke="black" stroke-linejoin="round"/>
<path fill-rule="evenodd" clip-rule="evenodd" d="M78.2694 97.3714C77.6149 96.5205 77.2895 96.0953 76.6423 95.2486C76.1131 94.5556 75.4356 94.572 75.2669 95.2838C74.9911 96.4458 74.6179 97.2773 73.9459 98.0906C73.3949 98.7563 72.7265 99.2307 71.9759 99.4876C70.7377 99.9128 69.2722 99.7542 67.7195 98.9039C66.0713 98.0013 64.57 96.4525 63.3585 94.5556C63.3579 94.5538 63.3573 94.5531 63.3567 94.5507C62.7409 93.5886 62.199 92.5293 61.7526 91.4196C61.1949 90.0348 60.7848 88.5655 60.5635 87.0938C60.4382 86.2599 59.8316 85.5547 59.3289 85.6762C53.8568 87.0082 48.3678 88.2782 42.8775 89.5355C42.3023 89.6679 42.1051 90.5401 42.4341 91.4792C44.2662 96.693 46.033 101.935 47.749 107.189C48.052 108.113 48.7416 108.742 49.292 108.597C50.3602 108.317 50.8954 108.177 51.9679 107.903C52.6592 107.726 53.4933 108.864 53.4679 109.95C53.2653 118.691 53.0626 127.431 52.86 136.171C52.8401 137.039 53.3179 138.008 53.9306 138.339C63.0494 143.297 72.121 148.34 81.1981 153.375C81.9009 153.764 82.481 153.37 82.4888 152.494C82.5663 143.65 82.6443 134.807 82.7223 125.964C82.7314 124.867 83.6695 124.693 84.4189 125.656C85.2452 126.719 85.6613 127.251 86.5003 128.321C87.1087 129.095 87.8975 129.267 88.2568 128.7C90.6768 124.885 91.8937 122.978 94.3833 119.194C94.7602 118.62 94.5218 117.494 93.8619 116.706C88.5441 110.36 83.3574 103.905 78.2694 97.3714Z" fill="white" stroke="black" stroke-linejoin="round"/>
</svg>
