<svg width="140" height="140" viewBox="0 0 140 140" fill="none" xmlns="http://www.w3.org/2000/svg">
<g clip-path="url(#clip0)">
<path d="M107.901 94.2324V112.572C107.901 116.561 105.504 119.793 102.55 119.784L77.3213 120.651" stroke="black" stroke-width="1.9128" stroke-linecap="round" stroke-linejoin="round" stroke-dasharray="3.83 7.65"/>
<path fill-rule="evenodd" clip-rule="evenodd" d="M86.774 70.695C87.1355 56.9821 94.8479 39.3805 107.842 33.3858C119.821 27.8607 129.031 39.9276 129.141 50.6928C129.165 59.508 126.66 68.0907 122.372 75.7123C119.58 80.6741 118.175 86.3082 118.209 91.3896C118.219 92.8902 118.224 93.64 118.235 95.1396C118.285 102.267 114.058 109.414 108.693 111.914C103.325 114.413 100.351 108.529 99.0733 104.229C99.0609 102.74 98.4698 102.189 98.4584 100.694C98.4201 95.5547 96.8679 91.2691 93.8887 89.1248C90.3643 86.5865 86.6401 82.3688 86.774 70.695Z" fill="#9595EF"/>
<path fill-rule="evenodd" clip-rule="evenodd" d="M86.774 70.695C87.1355 56.9821 94.8479 39.3805 107.842 33.3858C119.821 27.8607 129.031 39.9276 129.141 50.6928C129.165 59.508 126.66 68.0907 122.372 75.7123C119.58 80.6741 118.175 86.3082 118.209 91.3896C118.219 92.8902 118.224 93.64 118.235 95.1396C118.285 102.267 114.058 109.414 108.693 111.914C103.325 114.413 100.351 108.529 99.0733 104.229C99.0609 102.74 98.4698 102.189 98.4584 100.694C98.4201 95.5547 96.8679 91.2691 93.8887 89.1248C90.3643 86.5865 86.6401 82.3688 86.774 70.695Z" stroke="black" stroke-width="0.9564" stroke-linejoin="round"/>
<path fill-rule="evenodd" clip-rule="evenodd" d="M108.93 103.01L112.428 117.07C112.428 117.07 100.586 110.632 100.219 110.021C97.8052 106.018 98.2241 97.542 98.2241 97.542" fill="#9595EF"/>
<path d="M108.93 103.01L112.428 117.07C112.428 117.07 100.586 110.632 100.219 110.021C97.8052 106.018 98.2241 97.542 98.2241 97.542" stroke="black" stroke-width="0.9564" stroke-linecap="round" stroke-linejoin="round"/>
<path fill-rule="evenodd" clip-rule="evenodd" d="M96.6324 75.5372C96.9948 61.8253 104.707 44.2237 117.701 38.229C129.68 32.7029 138.89 44.7698 139 55.5351C139.025 64.3512 136.519 72.9329 132.231 80.5545C129.44 85.5173 128.035 91.1505 128.068 96.2328C128.078 97.7324 128.084 98.4822 128.094 99.9818C128.144 107.11 123.917 114.256 118.551 116.757C113.185 119.256 108.41 116.474 108.347 109.267C108.335 107.778 108.328 107.032 108.318 105.538C108.279 100.398 106.727 96.1123 103.747 93.9671C100.224 91.4297 96.4994 87.211 96.6324 75.5372Z" fill="white"/>
<path fill-rule="evenodd" clip-rule="evenodd" d="M96.6324 75.5372C96.9948 61.8253 104.707 44.2237 117.701 38.229C129.68 32.7029 138.89 44.7698 139 55.5351C139.025 64.3512 136.519 72.9329 132.231 80.5545C129.44 85.5173 128.035 91.1505 128.068 96.2328C128.078 97.7324 128.084 98.4822 128.094 99.9818C128.144 107.11 123.917 114.256 118.551 116.757C113.185 119.256 108.41 116.474 108.347 109.267C108.335 107.778 108.328 107.032 108.318 105.538C108.279 100.398 106.727 96.1123 103.747 93.9671C100.224 91.4297 96.4994 87.211 96.6324 75.5372Z" stroke="black" stroke-width="0.9564" stroke-linejoin="round"/>
<path fill-rule="evenodd" clip-rule="evenodd" d="M127.887 93.7148C120.883 97.0029 115.051 99.1606 108.116 102.594L127.887 93.7148Z" fill="white"/>
<path d="M127.887 93.7148C120.883 97.0029 115.051 99.1606 108.116 102.594" stroke="black" stroke-width="0.9564" stroke-linecap="round" stroke-linejoin="round"/>
<path fill-rule="evenodd" clip-rule="evenodd" d="M128.111 102.384C121.529 105.483 114.884 108.454 108.369 111.693L128.111 102.384Z" fill="white"/>
<path d="M128.111 102.384C121.529 105.483 114.884 108.454 108.369 111.693" stroke="black" stroke-width="0.9564" stroke-linejoin="round"/>
<path fill-rule="evenodd" clip-rule="evenodd" d="M104.195 50.9069C113.642 35.4754 128.147 37.6321 128.147 37.6321C128.147 37.6321 120.396 33.9366 117.813 32.5096C117.813 32.5096 106.769 28.3187 95.1562 44.9256" fill="#9595EF"/>
<path d="M104.195 50.9069C113.642 35.4754 128.147 37.6321 128.147 37.6321C128.147 37.6321 120.396 33.9366 117.813 32.5096C117.813 32.5096 106.769 28.3187 95.1562 44.9256" stroke="black" stroke-width="0.9564" stroke-linecap="round" stroke-linejoin="round"/>
<path d="M39.1143 113.305L64.2666 163.274" stroke="black" stroke-width="1.9128" stroke-linecap="round" stroke-linejoin="round" stroke-dasharray="3.83 7.65"/>
<path d="M40.9704 118.966L8.89941 83.3018" stroke="black" stroke-width="1.9128" stroke-linecap="round" stroke-linejoin="round" stroke-dasharray="3.83 7.65"/>
<path fill-rule="evenodd" clip-rule="evenodd" d="M13.0778 83.4061C22.0172 79.8225 31.1776 76.805 40.3983 74.0363C42.7941 73.4682 46.1482 75.5216 48.5564 79.0268C58.1491 92.9452 67.8518 106.785 77.5219 120.65C79.7111 123.794 80.5135 127.524 79.5715 129.987C75.5431 140.553 71.5444 151.132 67.5543 161.713C66.6477 164.121 64.2069 164.684 61.4171 163.087C50.6681 156.895 39.9727 150.613 29.2629 144.357C26.6596 142.839 24.3174 139.753 23.2673 136.468C19.0935 121.429 15.047 106.362 11.1726 91.2409C10.0594 87.4268 10.8388 84.1531 13.0778 83.4061Z" stroke="black" stroke-width="1.9128" stroke-linecap="round" stroke-linejoin="round" stroke-dasharray="7.65 8.61"/>
<path d="M42.8105 116.973V76.6182" stroke="black" stroke-width="1.9128" stroke-linecap="round" stroke-linejoin="round" stroke-dasharray="3.83 7.65"/>
<path d="M76.6501 124.24L40.9707 118.966L22.8105 141.914" stroke="black" stroke-width="1.9128" stroke-linecap="round" stroke-linejoin="round" stroke-dasharray="3.83 7.65"/>
<path fill-rule="evenodd" clip-rule="evenodd" d="M52.8982 120.465C53.0541 126.634 48.0129 129.765 43.14 126.927C37.4772 123.629 33.4594 116.198 33.4747 109.68C33.49 103.753 38.2155 100.599 43.624 103.848C49.3557 107.292 52.7289 113.748 52.8982 120.465Z" fill="white"/>
<path fill-rule="evenodd" clip-rule="evenodd" d="M52.8982 120.465C53.0541 126.634 48.0129 129.765 43.14 126.927C37.4772 123.629 33.4594 116.198 33.4747 109.68C33.49 103.753 38.2155 100.599 43.624 103.848C49.3557 107.292 52.7289 113.748 52.8982 120.465Z" stroke="black" stroke-width="0.9564" stroke-linejoin="round"/>
<path fill-rule="evenodd" clip-rule="evenodd" d="M39.1908 104.929H33.6943C33.6943 104.929 36.5387 102.683 38.1703 102.632" fill="white"/>
<path d="M39.1908 104.929H33.6943C33.6943 104.929 36.5387 102.683 38.1703 102.632" stroke="black" stroke-width="0.9564" stroke-linecap="round" stroke-linejoin="round"/>
<path fill-rule="evenodd" clip-rule="evenodd" d="M50.7586 123.001L48.2969 128.655C48.2969 128.655 51.8958 126.276 52.6408 123.001" fill="white"/>
<path d="M50.7586 123.001L48.2969 128.655C48.2969 128.655 51.8958 126.276 52.6408 123.001" stroke="black" stroke-width="0.9564" stroke-linecap="round" stroke-linejoin="round"/>
<path fill-rule="evenodd" clip-rule="evenodd" d="M50.7594 123.001C50.9143 129.17 45.1262 131.491 40.2543 128.653C34.5914 125.355 30.5736 117.924 30.5889 111.406C30.6042 105.48 35.0304 102.326 40.4389 105.574C46.1696 109.018 50.5891 116.283 50.7594 123.001Z" fill="#9595EF"/>
<path fill-rule="evenodd" clip-rule="evenodd" d="M50.7594 123.001C50.9143 129.17 45.1262 131.491 40.2543 128.653C34.5914 125.355 30.5736 117.924 30.5889 111.406C30.6042 105.48 35.0304 102.326 40.4389 105.574C46.1696 109.018 50.5891 116.283 50.7594 123.001Z" stroke="black" stroke-width="0.9564" stroke-linecap="round" stroke-linejoin="round"/>
<path fill-rule="evenodd" clip-rule="evenodd" d="M33.9636 141.695C34.1195 147.865 29.0783 150.995 24.2055 148.157C18.5426 144.86 14.5248 137.428 14.5401 130.91C14.5554 124.983 19.281 121.829 24.6894 125.079C30.4211 128.523 33.7943 134.978 33.9636 141.695Z" fill="white"/>
<path fill-rule="evenodd" clip-rule="evenodd" d="M33.9636 141.695C34.1195 147.865 29.0783 150.995 24.2055 148.157C18.5426 144.86 14.5248 137.428 14.5401 130.91C14.5554 124.983 19.281 121.829 24.6894 125.079C30.4211 128.523 33.7943 134.978 33.9636 141.695Z" stroke="black" stroke-width="0.9564" stroke-linejoin="round"/>
<path fill-rule="evenodd" clip-rule="evenodd" d="M20.2562 126.159H14.7598C14.7598 126.159 17.6041 123.912 19.2357 123.861" fill="white"/>
<path d="M20.2562 126.159H14.7598C14.7598 126.159 17.6041 123.912 19.2357 123.861" stroke="black" stroke-width="0.9564" stroke-linecap="round" stroke-linejoin="round"/>
<path fill-rule="evenodd" clip-rule="evenodd" d="M31.8248 144.231C31.9798 150.4 26.1916 152.721 21.3197 149.883C15.6569 146.586 11.639 139.154 11.6543 132.636C11.6696 126.71 16.0959 123.556 21.5043 126.805C27.236 130.249 31.6555 137.513 31.8248 144.231Z" fill="white"/>
<path fill-rule="evenodd" clip-rule="evenodd" d="M31.8248 144.231C31.9798 150.4 26.1916 152.721 21.3197 149.883C15.6569 146.586 11.639 139.154 11.6543 132.636C11.6696 126.71 16.0959 123.556 21.5043 126.805C27.236 130.249 31.6555 137.513 31.8248 144.231Z" stroke="black" stroke-width="0.9564" stroke-linecap="round" stroke-linejoin="round"/>
<path fill-rule="evenodd" clip-rule="evenodd" d="M23.3093 92.1426C23.4643 98.3114 18.4231 101.442 13.5512 98.6041C7.88832 95.3074 3.87048 87.8761 3.88579 81.3573C3.90109 75.4295 8.62666 72.2772 14.0351 75.5261C19.7668 78.9701 23.1391 85.4249 23.3093 92.1426Z" fill="white"/>
<path fill-rule="evenodd" clip-rule="evenodd" d="M23.3093 92.1426C23.4642 98.3114 18.4231 101.442 13.5512 98.6041C7.88832 95.3073 3.87048 87.8761 3.88579 81.3573C3.90109 75.4295 8.62666 72.2772 14.0351 75.5261C19.7668 78.9701 23.1391 85.4249 23.3093 92.1426Z" stroke="black" stroke-width="0.9564" stroke-linejoin="round"/>
<path fill-rule="evenodd" clip-rule="evenodd" d="M9.60092 76.6068H4.10449C4.10449 76.6068 6.94883 74.3603 8.58044 74.3096" fill="white"/>
<path d="M9.60092 76.6068H4.10449C4.10449 76.6068 6.94883 74.3603 8.58044 74.3096" stroke="black" stroke-width="0.9564" stroke-linecap="round" stroke-linejoin="round"/>
<path fill-rule="evenodd" clip-rule="evenodd" d="M21.1698 94.6787L18.707 100.334C18.707 100.334 22.3069 97.9534 23.051 94.6787" fill="white"/>
<path d="M21.1698 94.6787L18.707 100.334C18.707 100.334 22.3069 97.9534 23.051 94.6787" stroke="black" stroke-width="0.9564" stroke-linecap="round" stroke-linejoin="round"/>
<path fill-rule="evenodd" clip-rule="evenodd" d="M21.1705 94.6791C21.3255 100.848 15.5364 103.169 10.6654 100.331C5.00258 97.0347 0.98379 89.6035 1.00005 83.0847C1.01535 77.1579 5.44157 74.0046 10.8491 77.2535C16.5808 80.6975 21.0003 87.9623 21.1705 94.6791Z" fill="white"/>
<path fill-rule="evenodd" clip-rule="evenodd" d="M21.1705 94.6791C21.3255 100.848 15.5364 103.169 10.6654 100.331C5.00258 97.0347 0.98379 89.6035 1.00005 83.0847C1.01535 77.1579 5.44157 74.0046 10.8491 77.2535C16.5808 80.6975 21.0003 87.9623 21.1705 94.6791Z" stroke="black" stroke-width="0.9564" stroke-linecap="round" stroke-linejoin="round"/>
<path fill-rule="evenodd" clip-rule="evenodd" d="M53.9636 79.7247C54.1195 85.8934 49.0783 89.0237 44.2055 86.1861C38.5426 82.8894 34.5248 75.4582 34.5401 68.9393C34.5554 63.0116 39.281 59.8593 44.6894 63.1082C50.4211 66.5522 53.7943 73.0069 53.9636 79.7247Z" fill="white"/>
<path fill-rule="evenodd" clip-rule="evenodd" d="M53.9636 79.7247C54.1195 85.8934 49.0783 89.0237 44.2055 86.1861C38.5426 82.8894 34.5248 75.4582 34.5401 68.9393C34.5554 63.0116 39.281 59.8593 44.6894 63.1082C50.4211 66.5522 53.7943 73.0069 53.9636 79.7247Z" stroke="black" stroke-width="0.9564" stroke-linejoin="round"/>
<path fill-rule="evenodd" clip-rule="evenodd" d="M40.2562 64.1879H34.7598C34.7598 64.1879 37.6031 61.9413 39.2357 61.8906" fill="white"/>
<path d="M40.2562 64.1879H34.7598C34.7598 64.1879 37.6031 61.9413 39.2357 61.8906" stroke="black" stroke-width="0.9564" stroke-linecap="round" stroke-linejoin="round"/>
<path fill-rule="evenodd" clip-rule="evenodd" d="M51.8241 82.2607L49.3613 87.9159C49.3613 87.9159 52.9612 85.5355 53.7053 82.2607" fill="white"/>
<path d="M51.8241 82.2607L49.3613 87.9159C49.3613 87.9159 52.9612 85.5355 53.7053 82.2607" stroke="black" stroke-width="0.9564" stroke-linecap="round" stroke-linejoin="round"/>
<path fill-rule="evenodd" clip-rule="evenodd" d="M51.8248 82.2602C51.9798 88.429 46.1907 90.7501 41.3197 87.9125C35.6569 84.6158 31.639 77.1836 31.6543 70.6657C31.6696 64.7389 36.0959 61.5857 41.5033 64.8346C47.2351 68.2786 51.6546 75.5424 51.8248 82.2602Z" fill="white"/>
<path fill-rule="evenodd" clip-rule="evenodd" d="M51.8248 82.2602C51.9798 88.429 46.1907 90.7501 41.3197 87.9125C35.6569 84.6158 31.639 77.1836 31.6543 70.6657C31.6696 64.7389 36.0959 61.5857 41.5033 64.8346C47.2351 68.2786 51.6546 75.5424 51.8248 82.2602Z" stroke="black" stroke-width="0.9564" stroke-linecap="round" stroke-linejoin="round"/>
<path fill-rule="evenodd" clip-rule="evenodd" d="M87.8035 129.276C87.9594 135.446 82.9182 138.576 78.0453 135.738C72.3825 132.441 68.3646 125.009 68.3809 118.492C68.3953 112.564 73.1208 109.41 78.5293 112.66C84.261 116.104 87.6342 122.559 87.8035 129.276Z" fill="white"/>
<path fill-rule="evenodd" clip-rule="evenodd" d="M87.8035 129.276C87.9594 135.446 82.9182 138.576 78.0453 135.738C72.3825 132.441 68.3646 125.009 68.3809 118.492C68.3953 112.564 73.1208 109.41 78.5293 112.66C84.261 116.104 87.6342 122.559 87.8035 129.276Z" stroke="black" stroke-width="0.9564" stroke-linejoin="round"/>
<path fill-rule="evenodd" clip-rule="evenodd" d="M74.096 113.742H68.5996C68.5996 113.742 71.4439 111.495 73.0756 111.444" fill="white"/>
<path d="M74.096 113.742H68.5996C68.5996 113.742 71.4439 111.495 73.0756 111.444" stroke="black" stroke-width="0.9564" stroke-linecap="round" stroke-linejoin="round"/>
<path fill-rule="evenodd" clip-rule="evenodd" d="M85.6639 131.812L83.2021 137.467C83.2021 137.467 86.8011 135.087 87.5461 131.812" fill="white"/>
<path d="M85.6639 131.812L83.2021 137.467C83.2021 137.467 86.8011 135.087 87.5461 131.812" stroke="black" stroke-width="0.9564" stroke-linecap="round" stroke-linejoin="round"/>
<path fill-rule="evenodd" clip-rule="evenodd" d="M85.6647 131.812C85.8206 137.981 80.0315 140.302 75.1596 137.465C69.4967 134.167 65.4789 126.736 65.4942 120.218C65.5095 114.291 69.9357 111.138 75.3441 114.386C81.0759 117.83 85.4954 125.095 85.6647 131.812Z" fill="white"/>
<path fill-rule="evenodd" clip-rule="evenodd" d="M85.6647 131.812C85.8206 137.981 80.0315 140.302 75.1596 137.465C69.4967 134.167 65.4789 126.736 65.4942 120.218C65.5095 114.291 69.9357 111.138 75.3441 114.386C81.0759 117.83 85.4954 125.095 85.6647 131.812Z" stroke="black" stroke-width="0.9564" stroke-linecap="round" stroke-linejoin="round"/>
</g>
<defs>
<clipPath id="clip0">
<rect width="140" height="140" fill="white"/>
</clipPath>
</defs>
</svg>
