<svg xmlns="http://www.w3.org/2000/svg" width="224" height="176" viewBox="0 0 224 176">
    <g fill="none" fill-rule="evenodd">
        <path fill="#9595EF" d="M205.762 84.13c26.207 22.091 20.844 46.343 8.482 60.698-12.36 14.354-123.055 41.123-154.781 21.826-31.726-19.296-27.46-43.106-9.696-57.67 13.145-10.777 46.706-45.793 74.358-45.97 27.653-.177 54.425 1.151 67.194 11.915l14.443 9.202z" opacity=".565"/>
        <path fill="#FFF" d="M209.082 60.284l-95.152-54a9.415 9.415 0 0 0-4.799-1.23v-.007l-5.959.157 1.123 1.258a9.407 9.407 0 0 0-3.562 3.914L72.978 67.363l105.661 60.378-.871.64L156 125.126 68.592 75.18l-51.15 29.23-7.54-1.128v8.368l.011.003c-.061 1.873.831 3.773 2.692 4.836l97.569 55.754a17.296 17.296 0 0 0 17.056.06l53.92-30.305a4.296 4.296 0 0 0 1.416-1.294c.07-.101.144-.201.206-.309l4.969-7.452 25.877-59.002a10.742 10.742 0 0 0-4.536-13.656"/>
        <path fill="#000" fill-rule="nonzero" d="M114.423 5.415l95.153 54a11.742 11.742 0 0 1 4.958 14.927l-25.877 59.001-5.02 7.552c-.73 1.056-1.313 1.59-1.997 1.973l-53.92 30.306a18.296 18.296 0 0 1-18.042-.064l-97.569-55.754c-2.056-1.175-3.218-3.296-3.199-5.576-.003-.029-.006-2.862-.008-8.5a1 1 0 0 1 1.148-.988l7.197 1.076 50.849-29.057a1 1 0 0 1 .992 0l87.245 49.854 19.007 2.842L72.482 68.232a1 1 0 0 1-.403-1.306L99.834 9.938a10.37 10.37 0 0 1 2.963-3.653l-.37-.415a1 1 0 0 1 .72-1.665l5.958-.157c1.937 0 3.715.457 5.318 1.367zm98.28 68.124a9.742 9.742 0 0 0-4.114-12.385l-95.153-54a8.414 8.414 0 0 0-4.29-1.1l-3.9.096a1 1 0 0 1-.428 1.164 8.404 8.404 0 0 0-3.186 3.5L74.287 66.96l104.848 59.912a1 1 0 0 1 .096 1.674l-.87.641a1 1 0 0 1-.741.183l-21.768-3.255c-.082-.012-29.168-16.607-87.26-49.784L17.94 105.277a1 1 0 0 1-.644.12l-6.393-.955v7.06c-.042 1.798.752 3.29 2.2 4.117l97.568 55.754a16.296 16.296 0 0 0 16.07.057l53.92-30.305c.428-.24.796-.58 1.086-.994.075-.108 1.78-2.665 5.114-7.671l25.843-58.921z"/>
        <path fill="#FFF" d="M12.605 108.775l97.569 55.754a17.296 17.296 0 0 0 17.055.06l56.126-31.544L68.592 67.467 12.605 99.459c-3.604 2.06-3.604 7.257 0 9.316"/>
        <path fill="#000" fill-rule="nonzero" d="M12.109 109.644c-4.276-2.444-4.276-8.61 0-11.053l55.987-31.993a1 1 0 0 1 .992 0l114.763 65.579a1 1 0 0 1-.006 1.74l-56.126 31.545a18.296 18.296 0 0 1-18.041-.064l-97.569-55.754zm56.483-41.026l-55.49 31.71c-2.933 1.675-2.933 5.904 0 7.579l97.568 55.754a16.296 16.296 0 0 0 16.07.057l54.587-30.68-112.735-64.42z"/>
        <path fill="#FFF" d="M182.991 132.942l25.877-59a10.741 10.741 0 0 0-4.536-13.658l-95.152-54c-4.755-2.699-10.803-.824-13.197 4.092L68.228 67.364l114.763 65.578z"/>
        <path fill="#000" fill-rule="nonzero" d="M183.907 133.343a1 1 0 0 1-1.412.467L67.732 68.232a1 1 0 0 1-.403-1.306L95.084 9.939c2.647-5.436 9.332-7.508 14.59-4.524l95.152 54a11.741 11.741 0 0 1 4.957 14.928l-25.876 59zm24.045-59.804a9.741 9.741 0 0 0-4.113-12.385l-95.153-54c-4.253-2.414-9.662-.737-11.804 3.66L69.537 66.96l112.985 64.562 25.43-57.983z"/>
        <path fill="#9595EF" d="M178.26 111.132l16.885-37.484a8.781 8.781 0 0 0-3.708-11.164l-77.789-44.147c-3.888-2.206-8.832-.673-10.789 3.347l-18.458 36.68a8.15 8.15 0 0 0 3.283 10.644l79.894 45.654c3.902 2.23 8.876.586 10.682-3.53M55.905 123.172l13.989-7.994a4.86 4.86 0 0 1 4.655-.092l19.043 11.398c1.365.71 1.403 2.65.067 3.413l-13.253 7.895a4.86 4.86 0 0 1-4.822 0l-19.679-11.246c-1.306-.745-1.306-2.628 0-3.374"/>
        <path fill="#FFF" d="M82.65 61.076l-2.474-1.455c-.457-.27-.894-.37-1.268-.321l-.013-.02-7.529 2.42 3.655 3.153a867.077 867.077 0 0 0-15.818 27.17l-.255-.551-4.022 9.867 7.478-2.42-.042-.09c.235-.085.443-.224.58-.47 6.6-11.816 13.547-23.43 20.682-34.93.376-.609-.144-1.865-.974-2.353"/>
        <path fill="#000" fill-rule="nonzero" d="M84.474 63.956c-7.723 12.447-14.48 23.829-20.658 34.89a1.95 1.95 0 0 1-.606.666.994.994 0 0 1-.498.359l-7.478 2.42A1 1 0 0 1 54 100.96l4.022-9.867a.986.986 0 0 1 .902-.622 867.966 867.966 0 0 1 14.804-25.414l-3.015-2.6a1 1 0 0 1 .347-1.71l7.529-2.42a.998.998 0 0 1 .436-.039c.547-.015 1.114.15 1.658.47l1.24.729 1.233.726c1.266.744 2.03 2.588 1.318 3.742zm-22.448 33.93c6.239-11.106 13.01-22.513 20.747-34.982.04-.066-.236-.734-.63-.966l-1.235-.726-1.24-.73c-.264-.156-.483-.21-.631-.19-.007 0-1.896.606-5.668 1.815l2.305 1.989a1 1 0 0 1 .202 1.276 866.073 866.073 0 0 0-15.8 27.138.984.984 0 0 1-.673.493l-2.74 6.723 5.008-1.62a.996.996 0 0 1 .355-.22z"/>
        <path fill="#FFF" d="M104.58 97.015c-5.159-8.201-7.544-12.278-12.327-20.467-.638-1.093-1.518-2.011-2.447-2.553-1.58-.922-2.37-1.383-3.948-2.308-.303-.177-.973-.118-.973-.118l-7.447 2.42 15.781 23.214a694.566 694.566 0 0 0-8.085 3.884c-.508.247-.189 1.357.508 1.758 1.263.728 2.032 1.17 3.108 1.78l-4.707 3.424 7.562-2.41.007-.02c.212-.025.413-.076.597-.162 4.907-2.318 7.425-3.46 12.359-5.766.727-.34.727-1.539.013-2.676"/>
        <path fill="#000" fill-rule="nonzero" d="M76.61 74.551a1 1 0 0 1 .519-1.513l7.447-2.42a1 1 0 0 1 .22-.045l.11-.007c.205-.01.424-.01.645.014.303.033.568.101.812.244 1.648.966 2.427 1.42 3.947 2.307 1.085.633 2.085 1.676 2.807 2.913 5.874 10.059 7.775 13.23 12.31 20.438.992 1.579.986 3.45-.436 4.115-1.109.518-2.147 1.002-3.31 1.542l-2.854 1.325a992.983 992.983 0 0 0-6.193 2.898c-.218.102-.45.174-.694.219l-7.594 2.421c-1.081.345-1.81-1.093-.892-1.761l3.455-2.514-1.767-1.015c-1.276-.736-1.878-2.826-.446-3.524 2.623-1.28 4.557-2.21 7.04-3.388L76.61 74.55zm14.78 2.501c-.555-.95-1.315-1.742-2.087-2.193-1.522-.887-2.302-1.343-3.951-2.31-.096.011-.19.01-.282.012l-6.056 1.967 15.032 22.113a1 1 0 0 1-.399 1.466 686.83 686.83 0 0 0-7.678 3.685c.05.083.114.153.172.187 1.453.836 2.13 1.225 3.102 1.776.552.313.66 1.033.288 1.495l1.612-.513a.999.999 0 0 1 .352-.11.939.939 0 0 0 .287-.075 987.887 987.887 0 0 1 6.145-2.876l2.912-1.351c1.16-.54 2.198-1.023 3.305-1.54-.035.016-.03.006-.029-.137.001-.296-.128-.699-.381-1.1-4.549-7.232-6.46-10.42-12.344-20.496z"/>
        <path fill="#FFF" d="M56.716 84.388c-3.582-6.27-5.72-9.963-8.905-15.369l-2.639-5.203c-.014-.514.151-.924.504-1.098 4.779-2.355 7.138-3.561 11.957-5.957.493-.245.153-1.367-.54-1.778l-3.943-2.339c-.928-.55-1.819-.675-2.475-.348l-7.06 2.39 1.015.618a411.623 411.623 0 0 1-6.276 3.034c-.691.327-.69 1.526.003 2.68l1.679 2.798h-4.552l13.693 24.32 6.998-2.622c.671.41 1.013-.3.541-1.126"/>
        <path fill="#000" fill-rule="nonzero" d="M48.673 68.512a1178.91 1178.91 0 0 1 8.911 15.38c.373.651.47 1.375.191 1.955-.313.652-.962.898-1.608.737l-6.639 2.488a1 1 0 0 1-1.222-.446l-13.694-24.32a1 1 0 0 1 .872-1.49h2.786l-.77-1.283c-.955-1.59-.957-3.444.426-4.099a427.31 427.31 0 0 0 4.79-2.303 1.002 1.002 0 0 1 .578-1.392l7.003-2.37c.989-.458 2.195-.277 3.363.415l3.942 2.339c1.26.746 1.893 2.83.476 3.533a1552.94 1552.94 0 0 0-3.25 1.621l-2.785 1.394a1010.26 1010.26 0 0 1-5.866 2.915l2.496 4.926zm-1.754.96l-2.639-5.204a1 1 0 0 1-.107-.424c-.025-.885.316-1.656 1.06-2.023a1001.29 1001.29 0 0 0 5.865-2.913l2.835-1.42c.995-.497 1.901-.95 2.848-1.42a.636.636 0 0 0-.199-.225l-3.942-2.338c-.662-.392-1.207-.47-1.52-.314l-.125.053-5.393 1.825a.998.998 0 0 1-.53 1.132 413 413 0 0 1-6.29 3.04c.058-.026.054-.02.054.126 0 .307.13.722.378 1.136.507.843.958 1.596 1.68 2.8a1 1 0 0 1-.858 1.513h-2.842L49.628 86.9l6.071-2.275c-3.524-6.168-5.64-9.82-8.78-15.152z"/>
        <path fill="#FFF" d="M55.202 100.404c6.6-11.815 13.546-23.43 20.682-34.93.375-.608-.145-1.863-.975-2.352l-2.473-1.455c-.883-.52-1.703-.438-2.1.207a865.03 865.03 0 0 0-20.42 34.95c-.34.613.177 1.877.968 2.363.94.58 1.41.869 2.349 1.446.837.515 1.603.425 1.97-.229"/>
        <path fill="#000" fill-rule="nonzero" d="M56.075 100.892c-.679 1.213-2.09 1.378-3.366.593l-1.168-.718-1.18-.728c-1.206-.741-1.952-2.562-1.32-3.7A865.968 865.968 0 0 1 69.484 61.35c.721-1.172 2.152-1.314 3.46-.545a4649.473 4649.473 0 0 0 2.472 1.455c1.266.745 2.03 2.588 1.317 3.742-7.71 12.423-14.471 23.815-20.658 34.89zM75.033 64.95c.04-.066-.236-.734-.63-.966l-1.236-.727-1.238-.728c-.459-.27-.669-.25-.742-.13A863.997 863.997 0 0 0 50.79 97.31c-.048.088.241.795.619 1.027l1.177.725 1.17.72c.397.244.52.23.574.135 6.202-11.103 12.979-22.52 20.703-34.966z"/>
        <path fill="#FFF" d="M84.762 108.516c4.908-2.317 7.425-3.46 12.358-5.765.728-.34 1.734-1.539 1.018-2.676-4.958-8.41-6.539-11.273-11.321-19.461-.639-1.093-1.518-2.011-2.447-2.553-1.58-.923-4.381-2.39-5.96-3.313-.693-.406-1.069.299-.595 1.117 4.631 8.003 6.92 11.985 11.741 19.967.686 1.135.663 2.331-.059 2.672-4.757 2.247-7.15 3.37-11.81 5.643-.508.248-.19 1.358.507 1.76 1.586.911 2.385 1.368 3.996 2.283.948.538 1.874.655 2.572.326"/>
        <path fill="#000" fill-rule="nonzero" d="M89.055 97.445c.006-.297-.114-.697-.355-1.096a825.427 825.427 0 0 1-5.936-9.965l-.22-.375c-1.351-2.31-1.264-2.16-5.594-9.643-.383-.66-.47-1.402-.158-1.989.422-.79 1.341-.95 2.124-.492.646.378 1.337.76 2.95 1.64 1.673.913 2.34 1.282 3.007 1.672 1.085.632 2.085 1.676 2.807 2.912 1.848 3.164 2.03 3.478 5.468 9.428 2.168 3.75 3.668 6.327 5.837 10.005.99 1.573.019 3.433-1.441 4.116-1.106.516-2.141.998-3.309 1.54l-2.853 1.325c-2.34 1.086-4.05 1.885-6.194 2.897-1.026.484-2.284.325-3.491-.36a636.674 636.674 0 0 1-4.001-2.287c-1.277-.735-1.88-2.825-.448-3.525a683.82 683.82 0 0 1 5.764-2.78l.172-.083a1043.73 1043.73 0 0 1 4.222-2l1.664-.785c-.029.014-.018-.007-.015-.155zm1.426 7.29l.058-.026 2.854-1.325 3.304-1.538c.498-.233.829-.867.58-1.263-2.187-3.71-3.69-6.29-5.83-9.992-3.467-6-3.648-6.313-5.494-9.473-.555-.95-1.314-1.742-2.087-2.193-.645-.377-1.305-.742-2.952-1.64a345.58 345.58 0 0 1-1.644-.901c3.733 6.45 3.716 6.418 5.001 8.615l.219.374a823.432 823.432 0 0 0 5.922 9.942c.951 1.574.912 3.432-.487 4.093-5.149 2.432-4.49 2.12-5.881 2.783l-.172.082a669.91 669.91 0 0 0-5.351 2.58c.05.083.114.153.172.186 1.632.94 2.424 1.392 3.991 2.282.687.39 1.282.464 1.65.29a1017.78 1017.78 0 0 1 6.147-2.875z"/>
        <path fill="#FFF" d="M42.456 83.649c-4.534-7.81-6.868-11.736-11.568-19.56-.693-1.155-.694-2.353-.003-2.681 4.984-2.362 7.4-3.592 12.32-6.042.657-.327 1.548-.201 2.475.348l3.943 2.338c.694.412 1.033 1.533.54 1.778-4.818 2.397-6.173 3.604-10.951 5.959-.68.334-.677 1.54.004 2.692a1207.243 1207.243 0 0 1 11.036 18.977c.472.825-.876 1.537-1.547 1.126-1.528-.932-2.293-1.4-3.831-2.34-.905-.553-1.774-1.487-2.418-2.595"/>
        <path fill="#000" fill-rule="nonzero" d="M45.395 85.39a6539.786 6539.786 0 0 1 3.831 2.341c-4.185-7.377-6.396-11.176-10.871-18.741-.937-1.586-.94-3.432.415-4.098 1.947-.96 3.156-1.625 5.317-2.883l.056-.032c2.238-1.303 3.38-1.94 5.17-2.84a.64.64 0 0 0-.2-.224 11846.06 11846.06 0 0 0-3.943-2.339c-.661-.391-1.207-.468-1.519-.313a2517.803 2517.803 0 0 0-3.262 1.627c-1.172.585-1.995.993-2.808 1.395l-.278.137a413.008 413.008 0 0 1-5.989 2.891c.057-.027.053-.02.053.126 0 .307.13.722.378 1.136 5.051 8.41 7.299 12.206 11.576 19.573.564.972 1.32 1.783 2.074 2.244zm3.967 2.256a.374.374 0 0 0 .009-.006l-.002.004-.007.002zm-7.77-3.495c-4.273-7.359-6.515-11.147-11.562-19.548-.954-1.59-.956-3.443.427-4.099a411.043 411.043 0 0 0 5.962-2.878l.277-.137a762.582 762.582 0 0 0 4.346-2.162l1.718-.856c1-.499 2.236-.325 3.43.383a18631.9 18631.9 0 0 0 3.944 2.339c1.26.748 1.89 2.828.475 3.533-1.985.987-3.092 1.6-5.46 2.979-2.254 1.312-3.499 1.997-5.496 2.981.057-.028.05-.013.05.14 0 .313.129.731.374 1.146 4.53 7.66 6.745 11.467 11.043 18.99.516.903.138 1.85-.677 2.367-.68.432-1.58.524-2.26.109a4373.167 4373.167 0 0 1-3.83-2.341c-1.054-.644-2.038-1.7-2.762-2.946z"/>
    </g>
</svg>
