<svg xmlns="http://www.w3.org/2000/svg" width="215" height="131" viewBox="0 0 215 131">
    <defs>
        <filter id="a" width="241.8%" height="241.8%" x="-70.9%" y="-58.2%" filterUnits="objectBoundingBox">
            <feOffset dy="7" in="SourceAlpha" result="shadowOffsetOuter1"/>
            <feGaussianBlur in="shadowOffsetOuter1" result="shadowBlurOuter1" stdDeviation="11.5"/>
            <feColorMatrix in="shadowBlurOuter1" result="shadowMatrixOuter1" values="0 0 0 0 0.42745098 0 0 0 0 0.4 0 0 0 0 0.525490196 0 0 0 0.223788496 0"/>
            <feMerge>
                <feMergeNode in="shadowMatrixOuter1"/>
                <feMergeNode in="SourceGraphic"/>
            </feMerge>
        </filter>
    </defs>
    <g fill="none" fill-rule="evenodd">
        <path fill="#FFF" d="M143.877 3.807V25H8.609c-1.036 0-1.876.866-1.876 1.934v30.944c0 1.068.84 1.934 1.876 1.934h135.268v21.273c0 .782.458 1.486 1.156 1.788.7.297 1.506.135 2.043-.418l37.531-38.583a1.981 1.981 0 0 0 .003-2.738L147.08 2.438a1.829 1.829 0 0 0-2.044-.418 1.938 1.938 0 0 0-1.16 1.786z"/>
        <path stroke="#000" stroke-linejoin="round" stroke-width="1.325" d="M145.036 2.021a1.938 1.938 0 0 0-1.16 1.786V25H8.61c-1.036 0-1.876.866-1.876 1.934v30.944c0 1.068.84 1.934 1.876 1.934h135.268v21.273c0 .782.458 1.486 1.156 1.788.7.297 1.506.135 2.043-.418l37.531-38.583a1.981 1.981 0 0 0 .003-2.738L147.08 2.438a1.829 1.829 0 0 0-2.044-.418z"/>
        <path fill="#FFF" d="M12.149 32.106l-10.716-.728 5.103-5.954a.737.737 0 0 1 .56-.259l8.128-.161"/>
        <path stroke="#000" stroke-linejoin="round" stroke-width="1.325" d="M12.149 32.106l-10.716-.728 5.103-5.954a.737.737 0 0 1 .56-.259l8.128-.161"/>
        <path fill="#FFF" d="M146.69 2.017c-.918-.73-1.89-.228-2.026-.07l-5.848 6.547 5.689 3.799"/>
        <path stroke="#000" stroke-linejoin="round" stroke-width="1.325" d="M146.69 2.017c-.918-.73-1.89-.228-2.026-.07l-5.848 6.547 5.689 3.799"/>
        <path fill="#9393F4" d="M139.144 8.13a1.938 1.938 0 0 0-1.159 1.785v21.193H2.717c-1.035 0-1.875.866-1.875 1.934v30.944c0 1.068.84 1.933 1.875 1.933h135.268v21.273c0 .783.459 1.487 1.156 1.789.7.297 1.507.135 2.044-.418l37.531-38.583a1.96 1.96 0 0 0 .551-1.369c0-.514-.198-1.007-.548-1.37L141.188 8.547a1.829 1.829 0 0 0-2.044-.418"/>
        <path stroke="#000" stroke-linejoin="round" stroke-width="1.325" d="M139.144 8.13a1.938 1.938 0 0 0-1.159 1.785v21.193H2.717c-1.035 0-1.875.866-1.875 1.934v30.944c0 1.068.84 1.933 1.875 1.933h135.268v21.273c0 .783.459 1.487 1.156 1.789.7.297 1.507.135 2.044-.418l37.531-38.583a1.96 1.96 0 0 0 .551-1.369c0-.514-.198-1.007-.548-1.37L141.188 8.547a1.829 1.829 0 0 0-2.044-.418z"/>
        <path fill="#FFF" d="M31.572 56V39.2h4.176c2.64 0 3.936 1.464 3.936 4.152v8.496c0 2.688-1.296 4.152-3.936 4.152h-4.176zM35.7 41.6H34.21v12H35.7c.84 0 1.343-.432 1.343-1.632v-8.736c0-1.2-.504-1.632-1.343-1.632zm12.158 0v4.68h3.625v2.4h-3.624v4.92h4.56V56h-7.2V39.2h7.2v2.4h-4.56zm12.016-2.4l2.015 13.704L63.907 39.2h2.423L63.738 56H59.8L57.21 39.2h2.664zm14.175 2.4v4.68h3.623v2.4H74.05v4.92h4.56V56h-7.2V39.2h7.2v2.4h-4.56zM84.095 56V39.2h2.64v14.4h4.344V56h-6.983zM98.51 43.064v9.072c0 1.2.528 1.656 1.368 1.656.84 0 1.368-.456 1.368-1.656v-9.072c0-1.2-.527-1.656-1.367-1.656s-1.369.456-1.369 1.656zm-2.64 8.904v-8.736c0-2.688 1.416-4.224 4.008-4.224 2.593 0 4.008 1.536 4.008 4.224v8.736c0 2.688-1.415 4.224-4.007 4.224-2.593 0-4.008-1.536-4.008-4.224zM113.334 39.2c2.64 0 3.936 1.464 3.936 4.152v2.184c0 2.688-1.296 4.152-3.936 4.152h-1.248V56h-2.64V39.2h3.889zm0 2.4h-1.248v5.688h1.249c.84 0 1.295-.384 1.295-1.584v-2.52c0-1.2-.456-1.584-1.296-1.584z"/>
        <g filter="url(#a)" transform="translate(137 46)">
            <path fill="#FFF" d="M27.544 36.73c-5.059 0-9.174-4.113-9.174-9.172 0-5.058 4.115-9.173 9.174-9.173 5.058 0 9.172 4.115 9.172 9.173 0 5.059-4.114 9.173-9.172 9.173m27.284-12.285c-.087-.773-.989-1.354-1.768-1.354-2.52 0-4.756-1.48-5.695-3.768-.958-2.344-.34-5.078 1.539-6.8.59-.541.663-1.446.167-2.074a27.198 27.198 0 0 0-4.357-4.4 1.531 1.531 0 0 0-2.09.169c-1.64 1.816-4.584 2.49-6.86 1.54a6.108 6.108 0 0 1-3.714-5.97A1.526 1.526 0 0 0 30.7.183a27.502 27.502 0 0 0-6.186-.016 1.53 1.53 0 0 0-1.362 1.573c.09 2.55-1.421 4.908-3.765 5.868-2.249.918-5.173.249-6.808-1.55a1.535 1.535 0 0 0-2.076-.175 27.33 27.33 0 0 0-4.448 4.398 1.53 1.53 0 0 0 .164 2.09 6.095 6.095 0 0 1 1.537 6.862c-.95 2.26-3.296 3.717-5.984 3.717-.871-.028-1.493.558-1.588 1.35a27.583 27.583 0 0 0-.012 6.255c.086.776 1.015 1.352 1.804 1.352 2.394-.061 4.693 1.421 5.658 3.768.961 2.344.343 5.076-1.538 6.8a1.53 1.53 0 0 0-.167 2.073 27.359 27.359 0 0 0 4.35 4.401 1.53 1.53 0 0 0 2.093-.166c1.646-1.82 4.59-2.493 6.857-1.542a6.099 6.099 0 0 1 3.72 5.969 1.528 1.528 0 0 0 1.35 1.606 27.316 27.316 0 0 0 6.187.017 1.53 1.53 0 0 0 1.362-1.575c-.093-2.549 1.42-4.906 3.762-5.864 2.263-.925 5.175-.248 6.81 1.549a1.537 1.537 0 0 0 2.077.174 27.382 27.382 0 0 0 4.448-4.4 1.526 1.526 0 0 0-.164-2.089c-1.914-1.733-2.535-4.491-1.54-6.86.934-2.23 3.194-3.728 5.625-3.728l.34.008c.789.065 1.514-.543 1.61-1.348.242-2.067.245-4.17.012-6.254"/>
            <path stroke="#000" stroke-width="1.5" d="M27.544 36.73c-5.059 0-9.174-4.113-9.174-9.172 0-5.058 4.115-9.173 9.174-9.173 5.058 0 9.172 4.115 9.172 9.173 0 5.059-4.114 9.173-9.172 9.173zm27.284-12.284c-.087-.773-.989-1.354-1.768-1.354-2.52 0-4.756-1.48-5.695-3.768-.958-2.344-.34-5.078 1.539-6.8.59-.541.663-1.446.167-2.074a27.198 27.198 0 0 0-4.357-4.4 1.531 1.531 0 0 0-2.09.169c-1.64 1.816-4.584 2.49-6.86 1.54a6.108 6.108 0 0 1-3.714-5.97A1.526 1.526 0 0 0 30.7.183a27.502 27.502 0 0 0-6.186-.016 1.53 1.53 0 0 0-1.362 1.573c.09 2.55-1.421 4.908-3.765 5.868-2.249.918-5.173.249-6.808-1.55a1.535 1.535 0 0 0-2.076-.175 27.33 27.33 0 0 0-4.448 4.398 1.53 1.53 0 0 0 .164 2.09 6.095 6.095 0 0 1 1.537 6.862c-.95 2.26-3.296 3.717-5.984 3.717-.871-.028-1.493.558-1.588 1.35a27.583 27.583 0 0 0-.012 6.255c.086.776 1.015 1.352 1.804 1.352 2.394-.061 4.693 1.421 5.658 3.768.961 2.344.343 5.076-1.538 6.8a1.53 1.53 0 0 0-.167 2.073 27.359 27.359 0 0 0 4.35 4.401 1.53 1.53 0 0 0 2.093-.166c1.646-1.82 4.59-2.493 6.857-1.542a6.099 6.099 0 0 1 3.72 5.969 1.528 1.528 0 0 0 1.35 1.606 27.316 27.316 0 0 0 6.187.017 1.53 1.53 0 0 0 1.362-1.575c-.093-2.549 1.42-4.906 3.762-5.864 2.263-.925 5.175-.248 6.81 1.549a1.537 1.537 0 0 0 2.077.174 27.382 27.382 0 0 0 4.448-4.4 1.526 1.526 0 0 0-.164-2.089c-1.914-1.733-2.535-4.491-1.54-6.86.934-2.23 3.194-3.728 5.625-3.728l.34.008c.789.065 1.514-.543 1.61-1.348.242-2.067.245-4.17.012-6.254z"/>
        </g>
    </g>
</svg>
