<svg xmlns="http://www.w3.org/2000/svg" width="224" height="160" viewBox="0 0 224 160">
    <g fill="none" fill-rule="evenodd">
        <path fill="#9595EF" d="M72.508 44.798C47.526 63.306-13.164 73.363 4.018 115.92c15.843 39.243 50.548 46.89 118.424 42.872 80.17-4.746 99.056-25.82 99.056-55.462 0-29.643-18.886-48.915-46.25-58.532-27.364-9.617-77.757-18.507-102.74 0z" opacity=".57"/>
        <path fill="#FFF" d="M179.7 94.341l-67.074-39.018a2.336 2.336 0 0 0-2.537.11L39 97.402 111.312 158l70.06-41.292a2.304 2.304 0 0 0 1.628-2.213V100.1a6.66 6.66 0 0 0-3.3-5.76"/>
        <path fill="#000" fill-rule="nonzero" d="M111.824 159.86a1 1 0 0 1-1.157-.097L38.354 98.578a1 1 0 0 1 .134-1.623l71.026-42.337a3.314 3.314 0 0 1 3.619-.154l67.074 39.397c2.349 1.38 3.793 3.925 3.793 6.678v14.533a3.322 3.322 0 0 1-2.206 3.149l-69.97 41.638zm69.038-43.412c.758-.268 1.138-.767 1.138-1.376V100.54c0-2.046-1.071-3.934-2.806-4.954l-67.075-39.397c-.47-.277-1.016-.242-1.518.107l-69.886 41.66 70.699 59.82 69.448-41.327z"/>
        <path fill="#FFF" d="M114 156.672v-14.436a6.666 6.666 0 0 0-3.347-5.777L42.612 97.325c-1.605-.923-3.612.23-3.612 2.078v14.348a6.59 6.59 0 0 0 3.31 5.712l68.192 39.222c1.555.895 3.498-.223 3.498-2.013"/>
        <path fill="#000" fill-rule="nonzero" d="M114 156.672c0 2.56-2.776 4.157-4.997 2.88l-68.19-39.222A7.59 7.59 0 0 1 37 113.75V99.403c0-2.618 2.84-4.25 5.11-2.945l68.041 39.134a7.666 7.666 0 0 1 3.849 6.644v14.436zm-2 0v-14.436a5.666 5.666 0 0 0-2.846-4.91l-68.04-39.134c-.94-.54-2.114.134-2.114 1.21v14.35a5.59 5.59 0 0 0 2.81 4.844L110 157.818c.89.512 2-.127 2-1.146z"/>
        <path fill="#FFF" d="M133.108 127.868l31.669-19.757"/>
        <path fill="#000" fill-rule="nonzero" d="M133.637 128.717a1 1 0 1 1-1.058-1.697l31.669-19.757a1 1 0 0 1 1.058 1.697l-31.669 19.757z"/>
        <path fill="#9595EF" fill-rule="nonzero" d="M42.99 107.726a2 2 0 0 1 2.02-3.452l53 31a2 2 0 0 1-2.02 3.452l-53-31zM43.036 114.752a2 2 0 1 1 1.928-3.504l20 11a2 2 0 1 1-1.928 3.504l-20-11zM66.989 129.725a2 2 0 1 1 2.022-3.45l29 17a2 2 0 1 1-2.022 3.45l-29-17z"/>
        <path fill="#9595EF" d="M105.996 140.854c.063 1.112-.678 2.07-1.654 2.142-.976.07-2.276-.74-2.338-1.85-.063-1.112.678-2.07 1.654-2.142.976-.07 2.276.739 2.338 1.85M106.978 148.426c-.19 1.057-1.13 1.745-2.097 1.537-.967-.209-2.05-1.333-1.859-2.39.19-1.056 1.13-1.744 2.096-1.536.968.209 2.05 1.333 1.86 2.39"/>
        <path fill="#FFF" d="M179.7 61.341l-67.074-39.018a2.336 2.336 0 0 0-2.537.11L39 64.402 111.312 125l70.06-41.292A2.304 2.304 0 0 0 183 81.495V67.1a6.66 6.66 0 0 0-3.3-5.76"/>
        <path fill="#000" fill-rule="nonzero" d="M111.32 126.863a1 1 0 0 1-1.145-.094L37.36 66.17a1 1 0 0 1 .134-1.631l71.52-41.93a3.363 3.363 0 0 1 3.624-.153l67.54 39.018A7.652 7.652 0 0 1 184 68.101v14.394c0 1.447-.913 2.669-2.224 3.129l-70.456 41.239zm-.405-2.08l69.941-40.938c.764-.264 1.144-.755 1.144-1.35V68.1a5.652 5.652 0 0 0-2.823-4.894l-67.54-39.018c-.48-.278-1.04-.243-1.548.106l-70.355 41.25 71.181 59.238z"/>
        <path fill="#FFF" d="M114 123.672v-14.436a6.666 6.666 0 0 0-3.347-5.777L42.612 64.325c-1.605-.923-3.612.23-3.612 2.078V80.75a6.59 6.59 0 0 0 3.31 5.712l68.192 39.222c1.555.895 3.498-.224 3.498-2.013"/>
        <path fill="#000" fill-rule="nonzero" d="M114 123.672c0 2.56-2.777 4.157-4.997 2.88L40.813 87.33A7.59 7.59 0 0 1 37 80.75V66.403c0-2.618 2.84-4.25 5.11-2.945l68.041 39.134a7.666 7.666 0 0 1 3.849 6.644v14.436zm-2 0v-14.436a5.666 5.666 0 0 0-2.846-4.91l-68.04-39.134c-.94-.54-2.114.134-2.114 1.21v14.35a5.59 5.59 0 0 0 2.81 4.844L110 124.818c.89.512 2-.127 2-1.146z"/>
        <path fill="#FFF" d="M133.108 95.799l31.669-19.758"/>
        <path fill="#000" fill-rule="nonzero" d="M133.637 96.647a1 1 0 1 1-1.058-1.697l31.669-19.757a1 1 0 0 1 1.058 1.697l-31.669 19.757z"/>
        <path fill="#9595EF" fill-rule="nonzero" d="M42.99 73.726a2 2 0 1 1 2.02-3.452l53 31a2 2 0 0 1-2.02 3.452l-53-31zM43.036 81.752a2 2 0 1 1 1.928-3.504l20 11a2 2 0 1 1-1.928 3.504l-20-11zM66.989 95.725a2 2 0 1 1 2.022-3.45l29 17a2 2 0 1 1-2.022 3.45l-29-17z"/>
        <path fill="#9595EF" d="M105.996 107.854c.063 1.112-.678 2.07-1.654 2.142-.976.07-2.276-.74-2.338-1.85-.063-1.112.678-2.07 1.654-2.142.976-.07 2.276.74 2.338 1.85M106.978 116.426c-.19 1.057-1.13 1.745-2.097 1.537-.967-.209-2.05-1.332-1.859-2.39.19-1.057 1.13-1.745 2.096-1.536.968.208 2.05 1.332 1.86 2.39M132.118 27.548a19.304 19.304 0 0 0-4.605-2.176c-2.483-9.18-8.684-18.01-16.428-23.105-4.366-2.873-9.035-2.856-12.76-.845-.038.02-3.33 1.877-9.874 5.57l3.934 1.143c-.37.876-.67 1.805-.882 2.786-.44-.308-.906-.593-1.345-.862-3.604-2.213-7.388-2.09-10.244-.36L70 15.283l5.25 2.798c-.012.287-.017.577-.01.872.23 9.58 6.67 20.851 14.86 25.954 12.967 7.565 26.004 14.993 39.092 22.342.3.169.6.318.9.458l-2.666 1.927 1.665 4.893 10.33-5.893c3.605-1.498 5.647-5.659 6.321-10.347 1.58-10.995-4.251-24.723-13.624-30.739z"/>
        <path fill="#000" fill-rule="nonzero" d="M132.658 26.706c9.586 6.153 15.731 20.197 14.074 31.723-.775 5.386-3.148 9.525-6.867 11.104l-10.278 5.863a1 1 0 0 1-1.442-.546l-1.666-4.893a1 1 0 0 1 .36-1.133l1.362-.984c-13.792-7.747-26.475-14.993-38.63-22.084C81.105 40.48 74.48 28.903 74.24 18.977a12.11 12.11 0 0 1-.003-.303l-4.707-2.508a1 1 0 0 1-.02-1.754l9.886-5.568c3.33-2.018 7.523-1.947 11.285.362l.205.126c.056-.181.114-.361.176-.54l-2.89-.84c-.85-.247-.983-1.396-.212-1.832L97.85.542c4.254-2.296 9.309-2.056 13.785.89 7.753 5.1 14.046 13.875 16.699 23.159a20.421 20.421 0 0 1 4.324 2.115zm-5.447-.38a1 1 0 0 1-.663-.693c-2.438-9.01-8.529-17.607-16.012-22.53-3.865-2.543-8.133-2.746-11.74-.798l-7.783 4.39 1.65.48a1 1 0 0 1 .643 1.349c-.355.84-.631 1.71-.825 2.608a1 1 0 0 1-1.551.609c-.183-.128-.381-.26-.608-.403-.189-.12-.334-.21-.687-.427-3.133-1.923-6.522-1.98-9.23-.34l-8.324 4.688 3.64 1.94a1 1 0 0 1 .529.926c-.013.288-.017.551-.01.804.222 9.252 6.492 20.209 14.365 25.114 12.266 7.157 25.1 14.486 39.077 22.334.253.142.52.278.833.424a1 1 0 0 1 .162 1.716l-2.067 1.495 1.038 3.047 9.278-5.293c3.099-1.297 5.138-4.835 5.827-9.622 1.547-10.763-4.26-24.032-13.175-29.754a18.299 18.299 0 0 0-4.367-2.065z"/>
        <path fill="#FFF" d="M123.072 33.02a19.275 19.275 0 0 0-4.62-2.214c-2.492-9.336-8.714-18.318-16.483-23.5-8.285-5.525-17.66-.544-19.647 8.802-.443-.313-.91-.603-1.35-.877-7.226-4.496-15.171.49-14.968 9.046.231 9.744 6.693 21.207 14.91 26.398 13.01 7.693 26.091 15.25 39.222 22.723 7.615 4.334 15.397-.601 16.605-9.115 1.587-11.182-4.265-25.146-13.67-31.264z"/>
        <path fill="#000" fill-rule="nonzero" d="M123.617 32.181c9.615 6.255 15.776 20.53 14.114 32.242-1.337 9.427-10.027 14.433-18.09 9.844-14.024-7.982-26.914-15.445-39.26-22.747-8.494-5.365-15.137-17.132-15.377-27.219-.223-9.393 8.629-14.814 16.496-9.919l.199.124C84.486 5.166 94.257.96 102.524 6.475c7.78 5.188 14.092 14.112 16.751 23.553 1.51.533 2.96 1.254 4.342 2.153zm-1.09 1.677a18.27 18.27 0 0 0-4.381-2.1 1 1 0 0 1-.66-.695c-2.448-9.17-8.562-17.916-16.072-22.924-7.44-4.962-16.205-.8-18.114 8.177a1 1 0 0 1-1.556.608c-.184-.13-.383-.263-.61-.41-.19-.122-.336-.213-.69-.434-6.487-4.036-13.627.336-13.44 8.174.223 9.418 6.518 20.568 14.42 25.56 12.31 7.28 25.191 14.738 39.207 22.715 6.772 3.855 13.972-.293 15.12-8.387 1.555-10.957-4.275-24.462-13.224-30.284z"/>
    </g>
</svg>
