<svg width="199" height="136" viewBox="0 0 199 136" fill="none" xmlns="http://www.w3.org/2000/svg">
<path fill-rule="evenodd" clip-rule="evenodd" d="M193.122 72.5069C203.307 100.9 167.162 119.366 83.9461 127.119C0.730009 134.871 -0.6005 87.7701 15.3886 60.0208C23.3834 46.1455 44.5582 20.0415 68.8475 13.0098C93.1369 5.97862 120.573 22.549 135.107 31.1326C164.935 48.7485 182.937 44.1141 193.122 72.5069Z" fill="#C3C3F6"/>
<path d="M84.0002 112.941C83.9059 112.186 83.1516 111.244 82.3974 110.866C80.1346 109.641 78.1547 107.19 77.3061 104.644C76.4576 102.004 77.0233 99.8355 78.6261 99.1756C79.1918 98.987 79.1918 98.2328 78.8147 97.3842C77.6833 95.2157 76.3633 93.1415 74.9491 91.2559C74.3834 90.5017 73.6292 90.1245 73.1578 90.4074C71.7435 91.2559 69.1979 90.4074 67.3123 88.4275C65.3324 86.3533 64.1067 83.4305 64.201 81.1678C64.201 80.4135 63.7296 79.565 63.0696 79.0936C61.3725 77.8679 59.6755 76.9251 57.9784 76.1708C57.3184 75.888 56.847 76.2651 56.847 77.0194C56.9413 79.3764 55.6214 80.8849 53.7357 80.6964C52.9815 80.6021 52.0387 80.225 51.1901 79.565C50.0587 78.7164 49.0216 77.5851 48.3617 76.1708C47.9845 75.4166 47.2303 74.9452 46.7589 75.1337C46.6646 75.1337 46.5703 75.228 46.3818 75.3223C45.5332 75.5109 44.8732 76.0766 44.8732 76.0766C44.4961 76.2651 44.2133 76.4537 43.9304 76.7365L40.0649 79.3764L41.762 84.8448L44.779 85.5047C44.6847 85.7876 44.6847 85.9761 44.5904 86.1647C43.8362 87.7675 42.0448 88.0503 39.9706 86.8247C39.3106 86.4475 38.8392 86.6361 38.7449 87.2961C38.5564 89.0874 38.5564 90.9731 38.7449 92.953C38.7449 93.5187 39.4049 94.4615 39.9706 94.8386C41.762 95.8757 43.459 98.2328 44.2133 100.873C44.9675 103.418 44.4018 105.681 42.9876 106.341C42.5162 106.53 42.5162 107.378 42.8933 108.132C43.8362 110.207 44.9675 112.281 46.1932 114.166C46.6646 114.921 47.4189 115.298 47.796 115.015C49.1159 114.166 51.473 114.921 53.2643 116.806C55.15 118.88 56.3756 121.709 56.2813 124.066C56.2813 124.82 56.7527 125.669 57.4127 126.14C58.2612 126.706 59.2041 127.272 60.0526 127.837C60.9011 128.309 61.7497 128.686 62.5982 129.063C63.2582 129.346 63.8239 128.969 63.7296 128.214C63.6353 125.857 64.9552 124.349 66.9352 124.632C67.7837 124.726 68.7265 125.103 69.6693 125.763L71.8378 132.551L77.6833 129.063C77.9661 128.874 78.249 128.686 78.5318 128.497C79.0032 128.12 78.9089 127.272 78.3433 126.517C76.6462 124.066 76.0805 121.237 76.929 119.54C77.7776 117.938 79.7575 117.655 81.926 118.88C82.0202 118.975 82.1145 118.975 82.2088 119.069C82.8688 119.54 83.5287 119.258 83.623 118.598C84.1887 116.806 84.1887 114.921 84.0002 112.941ZM60.2412 111.149C55.9042 108.604 52.7929 103.513 52.7929 98.4213C52.6986 93.8958 56.2813 91.9159 60.3354 94.2729C64.6724 96.8185 67.9723 102.004 68.0665 107.001C68.1608 111.526 64.3896 113.506 60.2412 111.149Z" fill="#9595EF" stroke="black" stroke-width="2" stroke-miterlimit="10" stroke-linejoin="round"/>
<path d="M73.912 90.4075L66.6523 94.5559L72.0264 103.23L78.6261 98.7043" stroke="black" stroke-width="2" stroke-miterlimit="10" stroke-linecap="round" stroke-linejoin="round"/>
<path d="M64.0126 80.3191L57.1301 84.279L50.3418 80.3191L57.3186 76.0765" fill="white"/>
<path d="M64.0126 80.3191L57.1301 84.279L50.3418 80.3191L57.3186 76.0765" stroke="black" stroke-width="2" stroke-miterlimit="10" stroke-linecap="round" stroke-linejoin="round"/>
<path d="M77.2122 117.089C77.1179 116.335 76.3636 115.392 75.6094 115.015C73.3466 113.789 71.3667 111.338 70.5181 108.792C69.6696 106.152 70.2353 103.984 71.8381 103.324C72.4038 103.135 72.4038 102.381 72.0267 101.533C70.8953 99.3642 69.5753 97.29 68.1611 95.4044C67.5954 94.6501 66.8412 94.273 66.3698 94.5558C64.9555 95.4044 62.4099 94.5558 60.5243 92.5759C58.5444 90.5017 57.3187 87.579 57.413 85.3162C57.413 84.562 56.9416 83.7134 56.2816 83.242C54.5845 82.0164 52.8875 81.0735 51.1904 80.3193C50.5304 80.0364 50.059 80.4136 50.059 81.1678C50.1533 83.5249 48.8334 85.0334 46.9477 84.8448C45.1564 84.6562 42.7993 82.6763 41.5737 80.3193C41.1965 79.565 40.4423 79.0936 39.9709 79.2822C38.6509 79.565 37.4253 80.3193 36.3882 81.1678C36.0111 81.5449 36.0111 82.3935 36.4825 83.1477C37.991 85.5991 38.3681 88.3332 37.6138 90.0303C36.8596 91.6331 35.0682 91.9159 32.994 90.6903C32.3341 90.3131 31.8627 90.5017 31.7684 91.1617C31.5798 92.953 31.5798 94.8387 31.7684 96.8186C31.8627 97.5728 32.5226 98.5156 33.0883 98.8928C34.8797 99.9299 36.5767 102.287 37.331 104.927C38.0852 107.472 37.5196 109.735 36.1053 110.395C35.6339 110.584 35.6339 111.432 36.0111 112.186C36.9539 114.261 38.0852 116.335 39.3109 118.221C39.7823 118.975 40.5366 119.352 40.9137 119.069C42.2336 118.221 44.5907 118.975 46.382 120.86C48.2677 122.935 49.4933 125.763 49.3991 128.12C49.3991 128.874 49.8705 129.723 50.5304 130.194C51.379 130.76 52.3218 131.326 53.1703 131.891C54.0189 132.363 54.8674 132.74 55.7159 133.117C56.3759 133.4 56.9416 133.023 56.8473 132.268C56.753 129.911 58.073 128.403 60.0529 128.686C62.0328 128.874 64.5784 130.854 65.9926 133.306C66.464 134.06 67.2183 134.626 67.784 134.437C69.1982 134.06 70.5182 133.4 71.7438 132.551C72.2152 132.174 72.1209 131.326 71.5552 130.571C69.8582 128.12 69.2925 125.292 70.141 123.595C70.9896 121.992 72.9695 121.709 75.138 122.935C75.2322 123.029 75.3265 123.029 75.4208 123.123C76.0808 123.595 76.7407 123.312 76.835 122.652C77.4007 120.955 77.4007 119.069 77.2122 117.089ZM53.4532 115.298C49.1162 112.752 46.0049 107.661 46.0049 102.57C45.9106 98.0442 49.4933 96.0643 53.5474 98.4214C57.8844 100.967 61.1843 106.152 61.2785 111.149C61.3728 115.675 57.6016 117.655 53.4532 115.298Z" fill="white" stroke="black" stroke-width="2" stroke-miterlimit="10"/>
<path d="M83.5275 119.163L77.2106 122.745L76.9277 116.334L83.5275 112.846" fill="white"/>
<path d="M83.5275 119.163L77.2106 122.745L76.9277 116.334L83.5275 112.846" stroke="black" stroke-width="2" stroke-miterlimit="10" stroke-linecap="round" stroke-linejoin="round"/>
<path d="M169.126 57.0998C169.067 56.628 168.595 56.0382 168.123 55.8023C166.708 55.0356 165.469 53.5022 164.939 51.9098C164.408 50.2584 164.762 48.902 165.764 48.4891C166.118 48.3712 166.118 47.8993 165.882 47.3686C165.175 46.0121 164.349 44.7146 163.464 43.535C163.11 43.0632 162.639 42.8273 162.344 43.0042C161.459 43.535 159.867 43.0042 158.687 41.7657C157.449 40.4682 156.682 38.6399 156.741 37.2244C156.741 36.7526 156.446 36.2218 156.033 35.9269C154.972 35.1602 153.91 34.5705 152.848 34.0986C152.436 33.9217 152.141 34.1576 152.141 34.6294C152.2 36.1039 151.374 37.0475 150.194 36.9296C149.723 36.8706 149.133 36.6347 148.602 36.2218C147.894 35.691 147.246 34.9833 146.833 34.0986C146.597 33.6268 146.125 33.3319 145.83 33.4499C145.771 33.4499 145.712 33.5089 145.594 33.5679C145.063 33.6858 144.651 34.0397 144.651 34.0397C144.415 34.1576 144.238 34.2756 144.061 34.4525L141.643 36.1039L142.704 39.5246L144.592 39.9374C144.533 40.1143 144.533 40.2323 144.474 40.3502C144.002 41.3529 142.881 41.5298 141.584 40.7631C141.171 40.5272 140.876 40.6451 140.817 41.058C140.699 42.1785 140.699 43.3581 140.817 44.5966C140.817 44.9505 141.23 45.5403 141.584 45.7762C142.704 46.4249 143.766 47.8993 144.238 49.5507C144.709 51.1431 144.356 52.5586 143.471 52.9714C143.176 53.0894 143.176 53.6201 143.412 54.092C144.002 55.3895 144.709 56.687 145.476 57.8665C145.771 58.3383 146.243 58.5742 146.479 58.3973C147.304 57.8665 148.779 58.3383 149.899 59.5179C151.079 60.8154 151.846 62.5847 151.787 64.0591C151.787 64.531 152.082 65.0618 152.494 65.3566C153.025 65.7105 153.615 66.0644 154.146 66.4182C154.677 66.7131 155.207 66.949 155.738 67.1849C156.151 67.3619 156.505 67.126 156.446 66.6541C156.387 65.1797 157.213 64.2361 158.451 64.413C158.982 64.472 159.572 64.7079 160.162 65.1207L161.518 69.3671L165.175 67.1849C165.352 67.067 165.528 66.949 165.705 66.8311C166 66.5952 165.941 66.0644 165.587 65.5926C164.526 64.0591 164.172 62.2898 164.703 61.2282C165.234 60.2256 166.472 60.0487 167.829 60.8154C167.888 60.8744 167.947 60.8744 168.006 60.9333C168.418 61.2282 168.831 61.0513 168.89 60.6385C169.244 59.5179 169.244 58.3383 169.126 57.0998ZM154.264 55.9792C151.551 54.3869 149.605 51.2021 149.605 48.0173C149.546 45.1864 151.787 43.9479 154.323 45.4223C157.036 47.0147 159.1 50.2584 159.159 53.3842C159.218 56.2152 156.859 57.4537 154.264 55.9792Z" fill="#9595EF" stroke="black" stroke-width="1.5" stroke-miterlimit="10" stroke-linejoin="round"/>
<path d="M162.815 43.0043L158.273 45.5993L161.635 51.0252L165.764 48.1943" stroke="black" stroke-width="1.5" stroke-miterlimit="10" stroke-linecap="round" stroke-linejoin="round"/>
<path d="M156.624 36.6935L152.319 39.1706L148.072 36.6935L152.437 34.0396" fill="white"/>
<path d="M156.624 36.6935L152.319 39.1706L148.072 36.6935L152.437 34.0396" stroke="black" stroke-width="1.5" stroke-miterlimit="10" stroke-linecap="round" stroke-linejoin="round"/>
<path d="M164.879 59.6951C164.82 59.2233 164.348 58.6335 163.876 58.3976C162.461 57.6309 161.222 56.0975 160.691 54.5051C160.161 52.8537 160.514 51.4972 161.517 51.0844C161.871 50.9664 161.871 50.4946 161.635 49.9638C160.927 48.6073 160.102 47.3098 159.217 46.1303C158.863 45.6585 158.391 45.4226 158.096 45.5995C157.212 46.1303 155.619 45.5995 154.44 44.361C153.201 43.0635 152.435 41.2352 152.494 39.8197C152.494 39.3479 152.199 38.8171 151.786 38.5222C150.724 37.7555 149.663 37.1657 148.601 36.6939C148.188 36.517 147.893 36.7529 147.893 37.2247C147.952 38.6992 147.127 39.6428 145.947 39.5248C144.827 39.4069 143.352 38.1684 142.585 36.6939C142.349 36.2221 141.878 35.9272 141.583 36.0452C140.757 36.2221 139.99 36.6939 139.342 37.2247C139.106 37.4606 139.106 37.9914 139.401 38.4632C140.344 39.9967 140.58 41.707 140.108 42.7686C139.637 43.7712 138.516 43.9481 137.218 43.1814C136.806 42.9455 136.511 43.0635 136.452 43.4763C136.334 44.5969 136.334 45.7764 136.452 47.015C136.511 47.4868 136.924 48.0766 137.277 48.3125C138.398 48.9612 139.46 50.4356 139.931 52.087C140.403 53.6794 140.049 55.0949 139.165 55.5077C138.87 55.6257 138.87 56.1564 139.106 56.6283C139.696 57.9258 140.403 59.2233 141.17 60.4028C141.465 60.8746 141.937 61.1105 142.173 60.9336C142.998 60.4028 144.473 60.8746 145.593 62.0542C146.773 63.3517 147.539 65.121 147.481 66.5954C147.481 67.0673 147.775 67.598 148.188 67.8929C148.719 68.2468 149.309 68.6007 149.84 68.9545C150.37 69.2494 150.901 69.4853 151.432 69.7212C151.845 69.8982 152.199 69.6623 152.14 69.1904C152.081 67.716 152.906 66.7724 154.145 66.9493C155.383 67.0673 156.976 68.3058 157.861 69.8392C158.155 70.311 158.627 70.6649 158.981 70.5469C159.866 70.311 160.691 69.8982 161.458 69.3674C161.753 69.1315 161.694 68.6007 161.34 68.1288C160.279 66.5954 159.925 64.8261 160.456 63.7645C160.986 62.7619 162.225 62.585 163.581 63.3517C163.64 63.4107 163.699 63.4107 163.758 63.4696C164.171 63.7645 164.584 63.5876 164.643 63.1747C164.997 62.1132 164.997 60.9336 164.879 59.6951ZM150.017 58.5745C147.304 56.9821 145.357 53.7974 145.357 50.6126C145.298 47.7817 147.539 46.5431 150.076 48.0176C152.788 49.61 154.853 52.8537 154.912 55.9795C154.971 58.8104 152.612 60.0489 150.017 58.5745Z" fill="white" stroke="black" stroke-width="1.5" stroke-miterlimit="10"/>
<path d="M168.83 60.9922L164.878 63.2334L164.701 59.2229L168.83 57.0408" fill="white"/>
<path d="M168.83 60.9922L164.878 63.2334L164.701 59.2229L168.83 57.0408" stroke="black" stroke-width="1.5" stroke-miterlimit="10" stroke-linecap="round" stroke-linejoin="round"/>
<path d="M156.27 88.6396C156.072 87.0526 154.485 85.0687 152.898 84.2752C148.136 81.6962 143.97 76.5382 142.185 71.1818C140.399 65.6271 141.59 61.0642 144.962 59.6755C146.153 59.2788 146.153 57.6917 145.359 55.9062C142.978 51.3434 140.201 46.9789 137.225 43.0112C136.035 41.4242 134.448 40.6306 133.456 41.2258C130.48 43.0112 125.124 41.2258 121.156 37.0597C116.99 32.6952 114.411 26.5453 114.609 21.7841C114.609 20.197 113.618 18.4116 112.229 17.4196C108.658 14.8406 105.087 12.8568 101.516 11.2697C100.127 10.6746 99.1354 11.4681 99.1354 13.0552C99.3338 18.0148 96.5564 21.1889 92.5888 20.7922C91.0017 20.5938 89.0178 19.8003 87.2324 18.4116C84.8518 16.6261 82.6695 14.2455 81.2808 11.2697C80.4873 9.68264 78.9002 8.69072 77.9083 9.08749C77.7099 9.08749 77.5115 9.28587 77.1148 9.48426C75.3293 9.88103 73.9406 11.0713 73.9406 11.0713C73.1471 11.4681 72.5519 11.8649 71.9568 12.46L63.823 18.0148L67.3939 29.5211L73.7422 30.9098C73.5438 31.5049 73.5438 31.9017 73.3455 32.2985C71.7584 35.671 67.9891 36.2662 63.6246 33.6872C62.2359 32.8936 61.244 33.2904 61.0456 34.6791C60.6489 38.4484 60.6489 42.4161 61.0456 46.5821C61.0456 47.7725 62.4343 49.7563 63.6246 50.5498C67.3939 52.7321 70.9648 57.6917 72.5519 63.2464C74.139 68.6028 72.9487 73.364 69.9729 74.7527C68.981 75.1495 68.981 76.935 69.7745 78.522C71.7584 82.8865 74.139 87.251 76.718 91.2187C77.7099 92.8057 79.297 93.5993 80.0905 93.0041C82.8679 91.2186 87.8275 92.8057 91.5968 96.7734C95.5645 101.138 98.1435 107.089 97.9451 112.049C97.9451 113.636 98.9371 115.422 100.326 116.413C102.111 117.604 104.095 118.794 105.881 119.984C107.666 120.976 109.451 121.77 111.237 122.563C112.626 123.159 113.816 122.365 113.618 120.778C113.419 115.818 116.197 112.644 120.363 113.239C122.148 113.438 124.132 114.231 126.116 115.62L130.679 129.904L142.978 122.563C143.574 122.167 144.169 121.77 144.764 121.373C145.756 120.58 145.557 118.794 144.367 117.207C140.796 112.049 139.606 106.097 141.391 102.527C143.177 99.154 147.343 98.5589 151.906 101.138C152.104 101.336 152.302 101.336 152.501 101.535C153.89 102.527 155.278 101.931 155.477 100.543C156.667 96.7734 156.667 92.8057 156.27 88.6396ZM106.277 84.8703C97.1516 79.514 90.6049 68.8012 90.6049 58.0884C90.4065 48.566 97.9451 44.3999 106.476 49.3595C115.601 54.7159 122.545 65.6271 122.743 76.1414C122.942 85.6639 115.006 89.83 106.277 84.8703Z" fill="#9595EF" stroke="black" stroke-width="2" stroke-miterlimit="10" stroke-linejoin="round"/>
<path d="M135.039 41.2257L119.764 49.9546L131.072 68.206L144.959 58.6835" stroke="black" stroke-width="2" stroke-miterlimit="10" stroke-linecap="round" stroke-linejoin="round"/>
<path d="M114.213 19.999L99.7309 28.3312L85.4473 19.999L100.128 11.0717" fill="white"/>
<path d="M114.213 19.999L99.7309 28.3312L85.4473 19.999L100.128 11.0717" stroke="black" stroke-width="2" stroke-miterlimit="10" stroke-linecap="round" stroke-linejoin="round"/>
<path d="M141.983 97.3689C141.785 95.7818 140.198 93.798 138.611 93.0044C133.85 90.4254 129.683 85.2674 127.898 79.9111C126.113 74.3563 127.303 69.7935 130.675 68.4048C131.866 68.008 131.866 66.4209 131.072 64.6355C128.692 60.0726 125.914 55.7082 122.938 51.7405C121.748 50.1534 120.161 49.3599 119.169 49.955C116.193 51.7405 110.837 49.955 106.869 45.7889C102.703 41.4245 100.124 35.2746 100.323 30.5133C100.323 28.9263 99.3307 27.1408 97.942 26.1489C94.3711 23.5699 90.8001 21.586 87.2292 19.999C85.8405 19.4038 84.8486 20.1974 84.8486 21.7844C85.047 26.744 82.2696 29.9182 78.3019 29.5214C74.5326 29.1247 69.573 24.9586 66.994 19.999C66.2005 18.4119 64.6134 17.42 63.6215 17.8167C60.8441 18.4119 58.2651 19.999 56.0829 21.7844C55.2893 22.578 55.2893 24.3634 56.2813 25.9505C59.4554 31.1085 60.2489 36.8616 58.6619 40.4326C57.0748 43.8051 53.3055 44.4003 48.941 41.8213C47.5523 41.0277 46.5604 41.4245 46.362 42.8132C45.9653 46.5825 45.9653 50.5502 46.362 54.7162C46.5604 56.3033 47.9491 58.2872 49.1394 59.0807C52.9087 61.2629 56.4796 66.2225 58.0667 71.7773C59.6538 77.1337 58.4635 81.8949 55.4877 83.2836C54.4958 83.6804 54.4958 85.4658 55.2893 87.0529C57.2732 91.4174 59.6538 95.7818 62.2328 99.7495C63.2247 101.337 64.8118 102.13 65.6053 101.535C68.3827 99.7495 73.3423 101.337 77.1116 105.304C81.0793 109.669 83.6583 115.62 83.4599 120.58C83.4599 122.167 84.4518 123.952 85.8405 124.944C87.626 126.135 89.6098 127.325 91.3953 128.515C93.1808 129.507 94.9662 130.301 96.7517 131.094C98.1404 131.689 99.3307 130.896 99.1323 129.309C98.9339 124.349 101.711 121.175 105.877 121.77C110.043 122.167 115.4 126.333 118.376 131.491C119.368 133.078 120.955 134.268 122.145 133.872C125.121 133.078 127.898 131.689 130.477 129.904C131.469 129.11 131.271 127.325 130.08 125.738C126.509 120.58 125.319 114.628 127.104 111.057C128.89 107.685 133.056 107.09 137.619 109.669C137.817 109.867 138.016 109.867 138.214 110.065C139.603 111.057 140.991 110.462 141.19 109.074C142.38 105.503 142.38 101.535 141.983 97.3689ZM91.9905 93.5996C82.8648 88.2432 76.3181 77.5304 76.3181 66.8177C76.1197 57.2952 83.6583 53.1292 92.1888 58.0888C101.315 63.4452 108.258 74.3563 108.456 84.8707C108.655 94.3931 100.719 98.5592 91.9905 93.5996Z" fill="white" stroke="black" stroke-width="2" stroke-miterlimit="10"/>
<path d="M155.274 101.733L141.982 109.272L141.387 95.7817L155.274 88.4415" fill="white"/>
<path d="M155.274 101.733L141.982 109.272L141.387 95.7817L155.274 88.4415" stroke="black" stroke-width="2" stroke-miterlimit="10" stroke-linecap="round" stroke-linejoin="round"/>
</svg>
