<svg width="199" height="147" viewBox="0 0 199 147" fill="none" xmlns="http://www.w3.org/2000/svg">
<path fill-rule="evenodd" clip-rule="evenodd" d="M193.122 72.5069C203.307 100.9 167.162 119.366 83.9461 127.119C0.730009 134.871 -0.6005 87.7701 15.3886 60.0208C23.3834 46.1455 44.5582 20.0415 68.8475 13.0098C93.1369 5.97862 120.573 22.549 135.107 31.1326C164.935 48.7485 182.937 44.1141 193.122 72.5069Z" fill="#C3C3F6"/>
<path fill-rule="evenodd" clip-rule="evenodd" d="M91.7663 16.2537L114 22.0211L113.656 23.4036L91.8988 17.7597L28.5795 47.2537L28 45.9558L91.7663 16.2537Z" fill="black"/>
<path d="M92.1429 98.2537L29 127.263L48.7755 134.254L114 103.846L92.1429 98.2537Z" fill="white"/>
<path fill-rule="evenodd" clip-rule="evenodd" d="M91.9992 97.316C92.144 97.2507 92.3069 97.2362 92.4612 97.2749L114.473 102.808C114.76 102.88 114.97 103.123 114.997 103.414C115.024 103.706 114.863 103.983 114.595 104.106L48.9079 134.19C48.7429 134.265 48.5547 134.274 48.3831 134.215L28.4674 127.299C28.1983 127.205 28.0136 126.959 28.0007 126.677C27.9878 126.395 28.1494 126.134 28.4088 126.017L91.9992 97.316ZM92.3554 98.6755L30.5684 126.562L48.5783 132.817L112.221 103.669L92.3554 98.6755Z" fill="black"/>
<path fill-rule="evenodd" clip-rule="evenodd" d="M28.3021 45.3805C28.4915 45.2496 28.7338 45.2178 28.9513 45.2955L49.5319 52.6407C49.8129 52.741 50 53.004 50 53.2985V122.554C50 122.784 49.8854 122.999 49.6934 123.13C49.5015 123.26 49.2567 123.29 49.0386 123.208L28.458 115.513C28.1823 115.41 28 115.15 28 114.859V45.9532C28 45.7252 28.1128 45.5115 28.3021 45.3805ZM29.4194 46.9505V114.376L48.5806 121.541V53.7892L29.4194 46.9505Z" fill="black"/>
<path fill-rule="evenodd" clip-rule="evenodd" d="M28.3021 126.377C28.4915 126.25 28.7338 126.219 28.9513 126.294L49.5319 133.426C49.8129 133.524 50 133.779 50 134.065V143.574C50 143.798 49.8854 144.007 49.6934 144.133C49.5015 144.26 49.2567 144.289 49.0386 144.21L28.458 136.738C28.1823 136.638 28 136.385 28 136.103V126.933C28 126.711 28.1128 126.504 28.3021 126.377ZM29.4194 127.901V135.634L48.5806 142.59V134.541L29.4194 127.901Z" fill="black"/>
<path fill-rule="evenodd" clip-rule="evenodd" d="M114 23.2537L114 92.0087L49 122.254L49.0001 53.4987L114 23.2537Z" fill="white"/>
<path fill-rule="evenodd" clip-rule="evenodd" d="M113.681 22.3626C113.88 22.4909 114 22.7137 114 22.9532L114 92.1255C114 92.3966 113.846 92.6432 113.605 92.7586L49.9805 123.187C49.7675 123.289 49.518 123.273 49.3192 123.145C49.1204 123.016 49 122.794 49 122.554L49.0001 53.3818C49.0001 53.1108 49.1541 52.8641 49.3953 52.7488L113.019 22.3202C113.233 22.2183 113.482 22.2343 113.681 22.3626ZM50.3758 53.8258L50.3757 121.452L112.624 91.6815L112.624 24.0551L50.3758 53.8258Z" fill="black"/>
<path fill-rule="evenodd" clip-rule="evenodd" d="M114 103.254L114 113.195L49 143.254L49 133.312L114 103.254Z" fill="white"/>
<path fill-rule="evenodd" clip-rule="evenodd" d="M113.681 102.363C113.88 102.492 114 102.715 114 102.955L114 113.045C114 113.317 113.846 113.564 113.605 113.68L49.9805 144.187C49.7675 144.289 49.518 144.273 49.3192 144.144C49.1204 144.016 49 143.792 49 143.552L49 133.462C49 133.191 49.154 132.943 49.3951 132.828L113.019 102.32C113.233 102.218 113.482 102.234 113.681 102.363ZM50.3757 133.908L50.3757 142.448L112.624 112.6L112.624 104.06L50.3757 133.908Z" fill="black"/>
<path fill-rule="evenodd" clip-rule="evenodd" d="M108 35.2537L108 84.57L59 107.254L59.0001 57.9373L108 35.2537Z" fill="white"/>
<path fill-rule="evenodd" clip-rule="evenodd" d="M107.682 35.3617C107.88 35.4888 108 35.7092 108 35.9461L108 40.5448L106.629 40.5448L106.629 37.0355L103.14 38.6883L102.559 37.4344L107.024 35.3191C107.236 35.2186 107.484 35.2347 107.682 35.3617ZM90.6512 43.075L99.5817 38.8445L100.164 40.0985L91.233 44.3289L90.6512 43.075ZM108 43.6106L108 52.808L106.629 52.808L106.629 43.6106L108 43.6106ZM78.7439 48.7155L87.6744 44.4851L88.2562 45.7391L79.3257 49.9695L78.7439 48.7155ZM66.8366 54.3561L75.7671 50.1257L76.3489 51.3796L67.4184 55.6101L66.8366 54.3561ZM59.3945 57.8815L63.8598 55.7663L64.4416 57.0202L60.3707 58.9486L60.3707 63.1072L59.0001 63.1072L59.0001 58.5085C59.0001 58.2399 59.1538 57.9955 59.3945 57.8815ZM108 55.8738L108 65.0712L106.629 65.0712L106.629 55.8738L108 55.8738ZM59.0001 75.3703L59.0001 66.173L60.3707 66.173L60.3707 75.3704L59.0001 75.3703ZM108 68.137L108 77.3344H106.629L106.629 68.137L108 68.137ZM59 87.6335L59.0001 78.4361L60.3707 78.4361L60.3707 87.6335L59 87.6335ZM108 80.4002L108 84.9988C108 85.2674 107.846 85.5118 107.605 85.6258L103.14 87.741L102.558 86.4871L106.629 84.5587L106.629 80.4002H108ZM100.163 89.1512L91.2329 93.3816L90.6511 92.1277L99.5816 87.8972L100.163 89.1512ZM59 99.8967L59 90.6993H60.3707L60.3706 99.8967H59ZM88.2561 94.7918L79.3256 99.0222L78.7438 97.7683L87.6743 93.5378L88.2561 94.7918ZM76.3488 100.432L67.4183 104.663L66.8365 103.409L75.767 99.1784L76.3488 100.432ZM59 107.561L59 102.963L60.3706 102.963L60.3706 106.472L63.8597 104.819L64.4415 106.073L59.9762 108.188C59.764 108.289 59.5155 108.273 59.3177 108.146C59.1198 108.019 59 107.798 59 107.561Z" fill="black"/>
<path fill-rule="evenodd" clip-rule="evenodd" d="M100.048 137.518L112.146 134.072L125.944 92.0106L118.527 84.519C118.527 84.519 116.324 82.8602 113.391 83.3919C110.458 83.9234 103.737 84.2204 98.7601 91.3841C97.0227 93.8851 95.049 101.137 92.9722 107.923C90.3201 116.592 87.8902 125.358 87.8902 125.358C87.8902 125.358 86.4163 131.769 90.243 135.667L96.195 141.343" fill="white"/>
<path fill-rule="evenodd" clip-rule="evenodd" d="M118.947 83.9622C118.947 83.9623 118.947 83.9625 118.528 84.5189L118.947 83.9622L118.988 83.9929L126.74 91.823L112.694 134.64L100.239 138.188L99.8578 136.848L111.601 133.503L125.151 92.1979L118.075 85.051C118.065 85.0442 118.053 85.0361 118.04 85.0268C117.985 84.99 117.9 84.9352 117.787 84.8697C117.562 84.7383 117.23 84.5653 116.813 84.4071C115.977 84.0899 114.825 83.8399 113.516 84.0771C113.206 84.1334 112.859 84.1867 112.481 84.2449C109.21 84.7479 103.622 85.6073 99.333 91.7813C98.5331 92.9328 97.6333 95.2685 96.6565 98.2627C96.018 100.22 95.3628 102.404 94.6913 104.643C94.3449 105.798 93.9942 106.967 93.6391 108.127C92.3147 112.456 91.0455 116.81 90.1071 120.083C89.638 121.719 89.2517 123.085 88.9827 124.041C88.8483 124.519 88.7431 124.895 88.6716 125.151L88.5672 125.526C88.565 125.536 88.5618 125.551 88.5577 125.571C88.549 125.613 88.5362 125.678 88.5208 125.764C88.4902 125.934 88.4497 126.186 88.4123 126.502C88.3374 127.135 88.2757 128.017 88.3281 129.014C88.4334 131.018 88.9943 133.394 90.7331 135.171L96.6767 140.839L95.7153 141.847L89.755 136.163L89.7469 136.155C87.6651 134.034 87.0512 131.26 86.937 129.087C86.8795 127.993 86.9471 127.029 87.029 126.338C87.07 125.992 87.1148 125.713 87.1498 125.518C87.1673 125.42 87.1824 125.343 87.1934 125.29C87.1989 125.263 87.2033 125.242 87.2066 125.228L87.2105 125.21L87.2117 125.204L87.2121 125.203L87.2123 125.202C87.2123 125.202 87.2124 125.201 87.8912 125.357C87.22 125.171 87.22 125.171 87.22 125.171L87.3299 124.777C87.4016 124.52 87.507 124.143 87.6418 123.664C87.9113 122.706 88.2982 121.338 88.7681 119.699C89.7077 116.422 90.9794 112.059 92.3071 107.72C92.6568 106.577 93.0048 105.417 93.35 104.266C94.0249 102.016 94.6888 99.803 95.3322 97.8306C96.2958 94.877 97.2515 92.3361 98.189 90.9866C102.835 84.2991 108.994 83.364 112.276 82.8656C112.645 82.8096 112.978 82.759 113.268 82.7064M87.8912 125.357L87.22 125.171L87.2158 125.186L87.2123 125.202L87.8912 125.357ZM118.947 83.9622L118.945 83.9609L118.947 83.9622ZM118.945 83.9609L118.942 83.9587L118.945 83.9609ZM118.942 83.9587L118.934 83.9525L118.942 83.9587ZM118.934 83.9525C118.927 83.9476 118.918 83.9412 118.907 83.9334L118.934 83.9525ZM118.907 83.9334C118.885 83.9177 118.855 83.8965 118.816 83.8705L118.907 83.9334ZM118.816 83.8705C118.739 83.8187 118.629 83.7481 118.489 83.6664L118.816 83.8705ZM118.489 83.6664C118.21 83.5034 117.808 83.2948 117.307 83.1048L118.489 83.6664ZM117.307 83.1048C116.308 82.7255 114.893 82.412 113.268 82.7064L117.307 83.1048Z" fill="black"/>
<path fill-rule="evenodd" clip-rule="evenodd" d="M119.477 126.55C117.414 134.471 110.79 140.3 103.03 142.176C95.7903 143.926 91.8503 139.197 93.9839 131.997C96.6851 122.873 99.3855 113.748 102.088 104.624C104.26 97.0143 111.058 90.7642 118.638 89.6526C126.047 88.566 129.116 94.4996 127.094 100.837C124.556 109.408 122.016 117.979 119.477 126.55Z" fill="#9595EF"/>
<path fill-rule="evenodd" clip-rule="evenodd" d="M125.825 92.8499C124.562 90.9736 122.232 89.8298 118.74 90.3419L118.74 90.3419C111.45 91.4108 104.861 97.449 102.758 104.815L102.756 104.822L102.756 104.822C100.955 110.903 99.1548 116.984 97.3547 123.066C96.4539 126.109 95.5531 129.152 94.6522 132.195L94.6522 132.196C93.6248 135.662 94.1067 138.366 95.5176 139.986C96.9146 141.589 99.4051 142.336 102.866 141.499L102.867 141.499C110.407 139.677 116.813 134.019 118.803 126.374L119.477 126.55L118.81 126.352C121.349 117.781 123.888 109.21 126.427 100.639L126.429 100.632L126.431 100.625C127.397 97.5983 127.115 94.7659 125.825 92.8499ZM120.148 126.737C118.01 134.929 111.171 140.925 103.194 142.853L103.03 142.176L103.194 142.853C103.194 142.853 103.194 142.853 103.194 142.853C99.4158 143.767 96.3166 143.024 94.4672 140.901C92.6317 138.793 92.2104 135.532 93.3166 131.8C93.3166 131.8 93.3166 131.8 93.3166 131.8L93.9844 131.998L93.3166 131.8C94.2168 128.759 95.117 125.718 96.0171 122.677C97.8176 116.594 99.618 110.512 101.419 104.429C101.419 104.43 101.419 104.431 101.418 104.433L102.088 104.624L101.42 104.426C101.42 104.427 101.42 104.428 101.419 104.429C103.663 96.5781 110.667 90.1177 118.538 88.9637C122.454 88.3892 125.363 89.6688 126.981 92.072C128.571 94.4338 128.814 97.7337 127.76 101.042C125.224 109.606 122.686 118.172 120.148 126.737Z" fill="black"/>
<path fill-rule="evenodd" clip-rule="evenodd" d="M112.787 125.376C112.017 128.336 109.542 130.514 106.643 131.214C103.938 131.868 102.466 130.101 103.263 127.412C104.272 124.003 108.258 110.608 109.267 107.199C110.079 104.356 112.619 102.021 115.451 101.606C118.218 101.2 119.365 103.417 118.61 105.785C117.661 108.986 113.736 122.174 112.787 125.376Z" fill="white"/>
<path fill-rule="evenodd" clip-rule="evenodd" d="M117.774 103.044C117.413 102.509 116.724 102.124 115.552 102.295L115.552 102.295C113.011 102.668 110.68 104.791 109.938 107.391L109.936 107.397L109.936 107.397C109.439 109.076 108.228 113.148 107.004 117.266C105.733 121.542 104.447 125.867 103.931 127.609L103.931 127.61C103.572 128.822 103.771 129.657 104.165 130.109C104.546 130.546 105.285 130.826 106.479 130.537L106.479 130.537C109.159 129.89 111.415 127.884 112.114 125.201L112.116 125.19L112.12 125.179C112.586 123.605 113.764 119.645 114.956 115.637C116.198 111.458 117.457 107.226 117.942 105.587L117.944 105.58L117.947 105.573C118.279 104.531 118.162 103.62 117.774 103.044ZM119.276 105.989C119.696 104.666 119.617 103.288 118.929 102.266C118.214 101.204 116.946 100.683 115.35 100.917C112.228 101.375 109.481 103.92 108.599 107.005C108.106 108.672 106.895 112.745 105.67 116.865C104.397 121.149 103.108 125.483 102.596 127.214C102.158 128.692 102.296 130.085 103.115 131.024C103.948 131.98 105.296 132.257 106.807 131.891C109.922 131.138 112.613 128.794 113.459 125.564C113.923 123.995 115.099 120.041 116.29 116.037C117.533 111.858 118.792 107.623 119.276 105.989Z" fill="black"/>
<path fill-rule="evenodd" clip-rule="evenodd" d="M79.6046 82.0233L71.1227 85.4531L44.4085 67.4869L45.3157 59.874C45.3157 59.874 45.8385 57.9376 47.7588 56.9318C49.6796 55.9257 53.6685 53.0924 59.7254 54.9784C61.84 55.6369 66.2134 58.9158 70.4379 61.8813C75.8338 65.6698 81.1453 69.613 81.1453 69.613C81.1453 69.613 84.8564 72.6328 84.4027 76.5794L83.5247 82.4964" fill="white"/>
<path fill-rule="evenodd" clip-rule="evenodd" d="M63.5545 84.4142C68.2782 88.0374 74.6839 88.4214 79.9748 86.0293C84.9106 83.7981 85.0577 79.3239 80.6158 76.1466C74.9881 72.1186 69.3607 68.0901 63.7326 64.0624C59.0851 60.6677 52.3918 60.1195 47.5458 62.8695C42.8096 65.5571 43.7005 70.3331 47.6925 73.0656C52.9794 76.8486 58.2672 80.6316 63.5545 84.4142Z" fill="#9595EF"/>
<path fill-rule="evenodd" clip-rule="evenodd" d="M45.0399 67.9025C44.9322 66.3478 45.7071 64.7132 47.8886 63.4753C52.4788 60.8705 58.8776 61.3793 63.3208 64.6249L63.3263 64.6289C67.0777 67.3135 70.8288 69.9985 74.58 72.6835C76.4565 74.0267 78.3329 75.3699 80.2095 76.713C82.3176 78.221 83.1963 79.9327 83.1155 81.4046C83.0359 82.8554 82.0064 84.3462 79.687 85.3947C74.6023 87.6935 68.4743 87.3108 63.9774 83.8615L63.5536 84.4142L63.9588 83.8477C58.6715 80.0651 53.3837 76.2822 48.0968 72.4992L48.0909 72.495L48.085 72.4909C46.2116 71.2086 45.151 69.5049 45.0399 67.9025ZM63.139 84.974C68.0885 88.7644 74.7671 89.1478 80.2608 86.664C82.8771 85.4813 84.389 83.6194 84.5064 81.4809C84.6226 79.3636 83.3539 77.2496 81.0203 75.5803C79.1437 74.2371 77.2671 72.8939 75.3906 71.5506C71.6404 68.8663 67.8902 66.182 64.1397 63.498C59.288 59.9558 52.3019 59.3692 47.2011 62.2638C44.6463 63.7135 43.4986 65.8105 43.6503 67.9989C43.7985 70.1374 45.1768 72.1862 47.2921 73.6362C52.574 77.4156 57.8567 81.195 63.139 84.974Z" fill="black"/>
<path fill-rule="evenodd" clip-rule="evenodd" d="M66.8683 80.7508C68.6331 82.1044 71.0262 82.2478 73.0028 81.3542C74.8468 80.5206 74.9017 78.8491 73.2423 77.6621C71.1398 76.1573 62.8667 70.2533 60.7641 68.7486C59.0278 67.4803 56.5273 67.2756 54.7168 68.3029C52.9474 69.307 53.2803 71.0912 54.7716 72.1121C56.7468 73.5254 64.893 79.3376 66.8683 80.7508Z" fill="white"/>
<path fill-rule="evenodd" clip-rule="evenodd" d="M54.2173 70.1531C54.1908 69.7707 54.3635 69.3048 55.0616 68.9087L55.0616 68.9087C56.6162 68.0265 58.8223 68.192 60.3542 69.311L60.3597 69.315L60.3597 69.315C61.3969 70.0572 63.911 71.8524 66.4529 73.6674C69.0924 75.5522 71.7618 77.4583 72.8379 78.2285L72.8381 78.2286C73.555 78.7414 73.7609 79.2548 73.7419 79.6025C73.7239 79.9291 73.4905 80.3698 72.7169 80.7195L72.7169 80.7195C70.9465 81.52 68.8312 81.3778 67.2932 80.1981L67.284 80.1911L67.2746 80.1843C66.3022 79.4887 63.8571 77.7432 61.3819 75.9762C58.8025 74.1348 56.1903 72.2701 55.1779 71.5457L55.172 71.5414L55.1661 71.5374C54.543 71.1109 54.2471 70.5831 54.2173 70.1531ZM54.373 72.6826C53.508 72.0883 52.8946 71.2154 52.8276 70.2494C52.7572 69.2334 53.3027 68.3051 54.3741 67.6972C56.4393 66.5252 59.2326 66.7685 61.1731 68.1841C62.2001 68.9191 64.715 70.7148 67.2587 72.5312C69.9047 74.4205 72.5819 76.3322 73.6485 77.0956M54.373 72.6826C55.3811 73.4039 57.9958 75.2704 60.5764 77.1127C63.0473 78.8766 65.4869 80.6181 66.4549 81.3107C68.4454 82.8314 71.1113 82.9742 73.2907 81.9888C74.3611 81.505 75.0771 80.6932 75.1328 79.6789C75.1873 78.6857 74.5911 77.7699 73.6487 77.0957" fill="black"/>
<path fill-rule="evenodd" clip-rule="evenodd" d="M189.66 86.6689L196.139 81.7996L173.673 9.90085L167.875 15.8916L189.66 86.6689Z" fill="white"/>
<path fill-rule="evenodd" clip-rule="evenodd" d="M173.834 9.2231C174.073 9.27986 174.265 9.45845 174.338 9.69303L196.804 81.5918C196.892 81.8731 196.793 82.1792 196.557 82.3563L190.079 87.2256C189.898 87.3619 189.661 87.4013 189.446 87.3313C189.23 87.2613 189.062 87.0905 188.995 86.8737L167.21 16.0964C167.135 15.8537 167.199 15.5896 167.375 15.4071L173.173 9.41641C173.343 9.2398 173.595 9.16634 173.834 9.2231ZM168.662 16.08L190.035 85.5164L195.328 81.5381L173.358 11.2278L168.662 16.08Z" fill="black"/>
<path fill-rule="evenodd" clip-rule="evenodd" d="M173.449 10.2011L168.296 15.497L160.068 13.9052C160.068 13.9052 159.24 19.2883 155.754 19.6505C152.268 20.0113 147.836 19.2596 147.836 19.2596L153.029 13.5572C153.029 13.5572 155.896 13.8211 157.758 13.8416C159.62 13.8631 161.891 13.6131 163.439 11.4379C164.989 9.26214 165.067 8.364 165.067 8.364" fill="white"/>
<path fill-rule="evenodd" clip-rule="evenodd" d="M165.474 9.36011C165.238 9.91138 164.804 10.7231 164.006 11.8423C163.445 12.6311 162.799 13.1933 162.118 13.5925L168.059 14.742L172.95 9.71558L173.949 10.6871L168.795 15.983C168.631 16.1512 168.394 16.2257 168.164 16.1811L160.611 14.7197C160.595 14.7852 160.578 14.8544 160.559 14.9268C160.42 15.4636 160.195 16.1899 159.851 16.9345C159.183 18.3799 157.954 20.1224 155.826 20.3435C154.016 20.5309 151.984 20.4285 150.424 20.2841C149.639 20.2116 148.966 20.1276 148.488 20.0616C148.249 20.0286 148.058 20.0001 147.926 19.9797C147.861 19.9695 147.81 19.9613 147.775 19.9557L147.735 19.9491L147.724 19.9473L147.72 19.9466C147.72 19.9466 147.719 19.9465 147.836 19.2598L147.72 19.9466C147.469 19.904 147.26 19.7277 147.177 19.4869C147.094 19.2461 147.149 18.9792 147.321 18.7909L152.514 13.0885C152.662 12.927 152.876 12.8439 153.093 12.8639L153.125 12.8667L153.218 12.875C153.299 12.8822 153.417 12.8925 153.565 12.905C153.861 12.9298 154.274 12.9633 154.746 12.9973C155.692 13.0656 156.857 13.1354 157.766 13.1454C159.577 13.1663 161.533 12.9154 162.872 11.0344C163.624 9.9778 164.005 9.25227 164.194 8.81052C164.289 8.59007 164.336 8.44169 164.358 8.35921C164.369 8.31802 164.373 8.29337 164.375 8.28448C164.375 8.28194 164.376 8.28068 164.376 8.2807C164.376 8.28071 164.375 8.28143 164.375 8.28286L164.374 8.29071L164.374 8.29676L164.373 8.30031L164.373 8.30222L164.373 8.30321C164.373 8.30371 164.373 8.30422 165.067 8.36428C165.761 8.42433 165.761 8.42484 165.761 8.42536L165.761 8.42641L165.76 8.42856L165.76 8.43311L165.759 8.44313C165.758 8.45023 165.757 8.45816 165.756 8.46693C165.754 8.48447 165.75 8.50539 165.746 8.52975C165.737 8.57848 165.724 8.641 165.704 8.718C165.662 8.87191 165.593 9.08405 165.474 9.36011ZM149.238 18.7549C149.616 18.8018 150.062 18.8517 150.552 18.8971C152.079 19.0384 154.006 19.1314 155.682 18.9579C157.04 18.8168 157.969 17.6867 158.586 16.3501C158.885 15.7035 159.085 15.0615 159.21 14.5776C159.219 14.544 159.227 14.5112 159.235 14.4792C158.715 14.5331 158.213 14.5437 157.751 14.5383C156.797 14.5278 155.598 14.4554 154.645 14.3867C154.167 14.3521 153.748 14.3183 153.448 14.293C153.399 14.2889 153.354 14.2851 153.312 14.2815L149.238 18.7549Z" fill="black"/>
<path fill-rule="evenodd" clip-rule="evenodd" d="M160.414 13.2815L164.582 8.48206C164.872 8.14544 165.317 7.9957 165.75 8.08698L173.54 9.73339C173.755 9.7995 173.83 10.0735 173.681 10.241L168.466 15.7173L160.414 13.2815Z" fill="white"/>
<path fill-rule="evenodd" clip-rule="evenodd" d="M165.607 8.76838C165.421 8.72937 165.234 8.79281 165.11 8.93609L165.108 8.93863L161.646 12.9262L168.258 14.9264L172.695 10.2666L165.607 8.76838C165.607 8.7684 165.607 8.76836 165.607 8.76838ZM164.055 8.02642C164.511 7.49754 165.213 7.26203 165.894 7.40533L173.684 9.05185C173.705 9.05617 173.725 9.06139 173.745 9.06751C174.449 9.28392 174.685 10.161 174.202 10.7041C174.196 10.7099 174.191 10.7156 174.186 10.7212L168.971 16.1976C168.789 16.3879 168.516 16.46 168.265 16.3839L160.213 13.9481C159.987 13.8797 159.811 13.7015 159.745 13.4746C159.68 13.2477 159.734 13.0031 159.889 12.8248L164.055 8.02642Z" fill="black"/>
<path fill-rule="evenodd" clip-rule="evenodd" d="M148.519 19.3543C156.6 20.7918 158.501 17.9183 159.155 14.1502C159.24 13.6623 159.764 13.4448 160.456 13.5978C162.946 14.1496 164.161 14.419 166.377 14.9059C167.199 15.0869 168.023 15.8553 168.259 16.6323C175.302 39.7265 182.345 62.8207 189.388 85.915C189.625 86.6919 189.186 87.1854 188.357 87.0039C184.718 86.2109 182.515 85.7168 178.255 84.763C177.283 84.5458 176.304 83.7392 176.071 82.9633C170.824 65.5827 165.579 48.2005 160.333 30.8196C160.099 30.0427 159.128 29.2402 158.17 29.0262C155.236 28.372 153.76 28.0414 151.031 27.434C150.139 27.2355 149.252 26.4508 149.015 25.6738C148.375 23.5717 148.055 22.5201 147.415 20.4171C147.185 19.6632 147.663 19.2017 148.519 19.3543Z" fill="#9595EF"/>
<path fill-rule="evenodd" clip-rule="evenodd" d="M159.829 14.2861C159.828 14.2864 159.829 14.2861 159.829 14.2861V14.2861ZM159.84 14.2794C159.501 16.2242 158.811 18.1226 157 19.2898C155.21 20.4431 152.496 20.7691 148.397 20.04C148.19 20.0031 148.09 20.0295 148.055 20.0439C148.053 20.0693 148.054 20.1241 148.081 20.2139C148.401 21.2654 148.641 22.0544 148.881 22.843L148.882 22.8444C149.122 23.6324 149.361 24.4204 149.681 25.4706M148.641 18.6685C148.094 18.571 147.497 18.6395 147.077 19.0441C146.632 19.4726 146.584 20.0807 146.749 20.6199M148.641 18.6685C152.623 19.3768 154.901 18.9849 156.245 18.1188C157.565 17.2686 158.153 15.8507 158.469 14.0309C158.556 13.5328 158.882 13.1717 159.307 12.9919C159.708 12.823 160.167 12.8206 160.607 12.9177C160.825 12.9662 161.034 13.0125 161.235 13.057C163.318 13.5185 164.506 13.7816 166.527 14.2255C167.083 14.3481 167.602 14.6574 168.01 15.0334C168.417 15.409 168.764 15.8965 168.926 16.4291L190.054 85.7118C190.214 86.2368 190.196 86.8472 189.783 87.2927C189.369 87.7382 188.758 87.8047 188.208 87.6842C184.708 86.9215 182.535 86.435 178.588 85.5513L178.103 85.4427C178.103 85.4426 178.103 85.4427 178.103 85.4427C177.495 85.3068 176.91 84.9949 176.443 84.6101C175.984 84.2316 175.574 83.7282 175.404 83.1642C171.905 71.573 168.407 59.9811 164.908 48.3893C163.161 42.5998 161.414 36.8102 159.667 31.0208C159.602 30.8071 159.407 30.5193 159.079 30.2481C158.759 29.9829 158.375 29.7855 158.019 29.706M159.84 14.2794C159.843 14.2782 159.846 14.2768 159.849 14.2753C159.905 14.2517 160.053 14.2219 160.305 14.2778M160.305 14.2778C160.524 14.3263 160.734 14.3727 160.934 14.4171L160.305 14.2778ZM160.934 14.4171C163.017 14.8786 164.206 15.1419 166.228 15.586L160.934 14.4171ZM166.228 15.586C166.493 15.6444 166.797 15.81 167.066 16.0576C167.335 16.3058 167.519 16.5909 167.594 16.8354L188.722 86.1181C188.756 86.2314 188.758 86.3035 188.754 86.3388C188.717 86.3464 188.637 86.3521 188.506 86.3234C185.01 85.5616 182.84 85.0757 178.893 84.192L178.407 84.0833C178.043 84.0019 177.653 83.8019 177.329 83.5352C176.998 83.2622 176.802 82.9744 176.738 82.7626C173.239 71.171 169.74 59.5781 166.242 47.986C164.495 42.1967 162.747 36.4075 161 30.6185C161 30.6186 161 30.6183 161 30.6185M146.749 20.6199C147.069 21.6712 147.309 22.46 147.549 23.2485L146.749 20.6199ZM147.549 23.2485L147.549 23.2498L147.549 23.2485ZM147.549 23.2498C147.789 24.0379 148.029 24.8261 148.349 25.8766L147.549 23.2498ZM150.237 26.2469C150.528 26.5026 150.871 26.6846 151.183 26.7541C152.873 27.1304 154.084 27.4006 155.457 27.7072C156.301 27.8955 157.206 28.0975 158.322 28.3464C158.924 28.4809 159.505 28.7917 159.968 29.1754C160.424 29.5531 160.831 30.0555 161 30.6185M151.03 27.4396L151.031 27.4339L151.03 27.4396ZM150.237 26.2469C149.942 25.9884 149.752 25.7019 149.681 25.4706L150.237 26.2469ZM148.349 25.8766C148.515 26.4222 148.888 26.917 149.319 27.2946L148.349 25.8766ZM149.319 27.2946C149.753 27.6752 150.3 27.9848 150.88 28.1138L149.319 27.2946ZM150.88 28.1138C152.57 28.4901 153.78 28.7601 155.153 29.0666L150.88 28.1138ZM155.153 29.0666C155.997 29.2549 156.902 29.457 158.019 29.706L155.153 29.0666Z" fill="black"/>
<path fill-rule="evenodd" clip-rule="evenodd" d="M94.9321 70.867L93.9911 67.153L123.586 47.3443L123.944 51.2693L94.9321 70.867Z" fill="white"/>
<path fill-rule="evenodd" clip-rule="evenodd" d="M123.885 46.7157C123.663 46.6099 123.402 46.6288 123.198 46.7655L93.6029 66.5742C93.3581 66.7381 93.2428 67.0384 93.3152 67.3241L94.2562 71.0381C94.3119 71.258 94.4713 71.437 94.6832 71.5179C94.8952 71.5987 95.1333 71.5712 95.3212 71.4442L124.333 51.8465C124.543 51.7044 124.66 51.459 124.637 51.2061L124.279 47.2811C124.257 47.0364 124.107 46.8215 123.885 46.7157ZM123.212 50.9226L95.363 69.735L94.7862 67.4584L122.998 48.5755L123.212 50.9226Z" fill="black"/>
<path fill-rule="evenodd" clip-rule="evenodd" d="M123.58 47.521L123.906 50.9994L127.408 52.8534C127.408 52.8534 126.116 55.081 127.292 56.2483C128.469 57.4149 130.324 58.4527 130.324 58.4527L130.103 54.8129C130.103 54.8129 128.969 54.0598 128.277 53.5152C127.585 52.9708 126.823 52.2053 126.898 50.9453C126.973 49.6845 127.211 49.3308 127.211 49.3308" fill="white"/>
<path fill-rule="evenodd" clip-rule="evenodd" d="M126.411 49.4777C126.326 49.7811 126.242 50.2351 126.203 50.9037C126.192 51.088 126.195 51.2638 126.21 51.4315L124.564 50.5597L124.272 47.4558L122.886 47.5861L123.212 51.0644C123.234 51.2981 123.372 51.505 123.58 51.6148L126.493 53.1571C126.402 53.3792 126.307 53.6487 126.233 53.9439C126.042 54.7048 125.938 55.8862 126.801 56.7425C127.437 57.3732 128.239 57.9538 128.863 58.3682C129.179 58.5777 129.457 58.7494 129.656 58.8692C129.756 58.9291 129.836 58.9762 129.892 59.0086C129.92 59.0248 129.942 59.0374 129.958 59.0461L129.975 59.0562L129.98 59.0591L129.983 59.0603C129.983 59.0603 129.983 59.0604 130.323 58.4525L129.983 59.0603C130.205 59.1847 130.477 59.1778 130.693 59.0424C130.909 58.907 131.033 58.6646 131.018 58.4104L130.797 54.7706C130.784 54.5526 130.669 54.3534 130.487 54.2326C130.487 54.2326 130.487 54.2326 130.487 54.2326L130.475 54.2247L130.439 54.2005C130.408 54.1794 130.361 54.1484 130.304 54.1095C130.188 54.0315 130.027 53.9219 129.845 53.7957C129.478 53.5409 129.036 53.2264 128.707 52.9679C128.056 52.4553 127.539 51.8863 127.593 50.9867C127.628 50.3947 127.7 50.0413 127.753 49.8526C127.779 49.7588 127.8 49.7072 127.808 49.6882C127.813 49.6787 127.814 49.6774 127.811 49.683C127.809 49.6858 127.807 49.6903 127.803 49.6964L127.796 49.7067L127.793 49.7127L127.79 49.7159L127.789 49.7176L127.789 49.7184C127.788 49.7188 127.788 49.7192 127.21 49.3307C126.632 48.9422 126.632 48.9426 126.632 48.943L126.631 48.9439L126.63 48.9456L126.627 48.9492L126.623 48.9568C126.619 48.962 126.616 48.9676 126.612 48.9736C126.605 48.9855 126.597 48.9988 126.589 49.0138C126.573 49.0437 126.554 49.0798 126.535 49.1232C126.497 49.2099 126.454 49.3255 126.411 49.4777ZM129.428 55.1983L129.546 57.1491C128.968 56.7608 128.296 56.2637 127.782 55.7538M129.428 55.1983C129.322 55.1265 129.193 55.0385 129.052 54.9406C128.68 54.6827 128.209 54.3485 127.846 54.0624C127.794 54.0219 127.741 53.9794 127.688 53.9349C127.65 54.0445 127.614 54.1613 127.584 54.2821C127.423 54.9267 127.469 55.4428 127.782 55.7538" fill="black"/>
<path fill-rule="evenodd" clip-rule="evenodd" d="M127.464 52.5214L127.353 49.5183C127.346 49.3085 127.227 49.1214 127.04 49.0264L123.684 47.3222C123.585 47.2828 123.476 47.3614 123.481 47.4673L123.777 51.0302L127.464 52.5214Z" fill="white"/>
<path fill-rule="evenodd" clip-rule="evenodd" d="M126.661 49.6144L124.258 48.3946L124.437 50.5454L126.729 51.4725L126.661 49.6144ZM128.05 49.494C128.035 49.0302 127.769 48.6151 127.357 48.4057L124 46.7013C123.982 46.6918 123.963 46.6832 123.943 46.6755C123.369 46.4462 122.757 46.8934 122.787 47.5018C122.787 47.5095 122.788 47.5173 122.788 47.525L123.084 51.0879C123.106 51.35 123.273 51.5774 123.517 51.676L127.204 53.1671C127.423 53.2556 127.672 53.2272 127.865 53.0916C128.058 52.956 128.17 52.7317 128.161 52.4957L128.05 49.494Z" fill="black"/>
<path fill-rule="evenodd" clip-rule="evenodd" d="M130.043 58.2852C126.641 56.4177 126.794 54.7962 127.67 53.2147C127.784 53.0098 127.656 52.7745 127.355 52.6256C126.275 52.0901 125.748 51.8292 124.787 51.351C124.431 51.1741 123.9 51.2126 123.582 51.4284C114.14 57.8425 104.698 64.2566 95.2557 70.6707C94.9381 70.8864 94.953 71.1981 95.3124 71.3773C96.8872 72.1645 97.8449 72.6359 99.6963 73.5483C100.119 73.7566 100.718 73.7498 101.034 73.5334C108.12 68.6903 115.207 63.8461 122.293 59.0027C122.609 58.786 123.205 58.7784 123.621 58.9838C124.895 59.6131 125.537 59.9293 126.722 60.5149C127.109 60.7063 127.669 60.6807 127.986 60.4649C128.845 59.8807 129.275 59.5884 130.134 59.004C130.443 58.7946 130.403 58.4828 130.043 58.2852Z" fill="#9595EF"/>
<path fill-rule="evenodd" clip-rule="evenodd" d="M126.902 53.1787C126.858 53.1569 126.815 53.1355 126.773 53.1146C125.869 52.6668 125.353 52.4111 124.477 51.9748C124.432 51.9526 124.339 51.9293 124.216 51.9375C124.093 51.9457 124.007 51.9813 123.973 52.0046L96.0543 70.9698C97.3279 71.6052 98.2458 72.0575 99.7923 72.8196L100.003 72.9236C100.102 72.9725 100.247 73.0054 100.396 73.0037C100.468 73.0029 100.529 72.9942 100.575 72.9822C100.618 72.971 100.638 72.96 100.64 72.9588C100.64 72.9586 100.64 72.9586 100.64 72.9588L100.64 72.9584C105.366 69.7284 110.093 66.4979 114.819 63.2675C117.179 61.6542 119.539 60.0409 121.899 58.4277C122.208 58.2165 122.586 58.143 122.909 58.1386C123.243 58.134 123.607 58.2008 123.929 58.3593C124.413 58.5985 124.806 58.7926 125.173 58.9735C125.77 59.2681 126.296 59.5277 127.03 59.8906M126.902 53.1787C126.515 53.9628 126.263 54.8754 126.591 55.8621C126.926 56.8742 127.817 57.7957 129.351 58.694L127.594 59.8888C127.594 59.8888 127.594 59.8888 127.594 59.8888C127.571 59.9044 127.488 59.9411 127.351 59.9468C127.217 59.9523 127.101 59.9256 127.03 59.8906M129.711 58.8897C129.71 58.8896 129.711 58.8898 129.711 58.8897V58.8897ZM128.281 52.5694C128.137 52.3018 127.9 52.1185 127.664 52.0017C127.569 51.9546 127.478 51.9096 127.391 51.8664C126.487 51.4186 125.972 51.1634 125.097 50.7276C124.786 50.5728 124.435 50.5268 124.123 50.5476C123.813 50.5683 123.474 50.6598 123.19 50.8523L94.8636 70.0946C94.5867 70.2827 94.302 70.6222 94.3347 71.0866C94.3673 71.5509 94.6966 71.8488 95.0002 72.0004C96.5156 72.7578 97.4606 73.2235 99.1751 74.0684L99.3875 74.173C99.7107 74.3325 100.077 74.4004 100.412 74.3966C100.737 74.393 101.117 74.3203 101.427 74.1083C106.153 70.8777 110.88 67.6467 115.607 64.4158C117.967 62.8031 120.326 61.1904 122.685 59.5777C122.685 59.5778 122.685 59.5778 122.685 59.5777C122.687 59.5767 122.707 59.5648 122.751 59.5533C122.797 59.5412 122.858 59.5324 122.928 59.5314C123.076 59.5294 123.217 59.5616 123.312 59.6084M128.281 52.5694C128.438 52.8616 128.461 53.2237 128.279 53.5519L128.281 52.5694ZM128.279 53.5519C127.873 54.2856 127.728 54.8664 127.913 55.4234L128.279 53.5519ZM127.913 55.4234C128.107 56.0083 128.729 56.7695 130.377 57.6746L127.913 55.4234ZM130.377 57.6746C130.663 57.8316 130.975 58.1178 131.03 58.5527L130.377 57.6746ZM131.03 58.5527C131.089 59.0217 130.82 59.3799 130.525 59.58L131.03 58.5527ZM130.525 59.58C130.525 59.58 130.525 59.58 130.525 59.58V59.58ZM130.525 59.58C130.525 59.58 130.525 59.58 130.525 59.58V59.58ZM130.525 59.58L128.377 61.0409C128.083 61.2411 127.727 61.3253 127.408 61.3385C127.086 61.3519 126.729 61.2958 126.413 61.1394C125.679 60.7766 125.153 60.5174 124.557 60.2229C124.19 60.0421 123.797 59.8479 123.312 59.6084" fill="black"/>
</svg>
