<?xml version="1.0" encoding="UTF-8"?>
<svg width="781px" height="560px" viewBox="0 0 781 560" version="1.1" xmlns="http://www.w3.org/2000/svg" xmlns:xlink="http://www.w3.org/1999/xlink">
    <!-- Generator: Sketch 52.2 (67145) - http://www.bohemiancoding.com/sketch -->
    <title>Group 14 Copy</title>
    <desc>Created with Sketch.</desc>
    <g id="10.-Career" stroke="none" stroke-width="1" fill="none" fill-rule="evenodd">
        <g id="Group-14-Copy" transform="translate(1.000000, 0.000000)">
            <g id="center-image">
                <g id="blur" transform="translate(0.000000, 79.000000)">
                    <path d="M497.566427,110.351481 C572.842031,164.510923 672.94079,129.329606 666.075773,225.47597 C659.210756,321.622335 558.863374,349.431646 332.766841,346.836735 C106.670309,344.241824 116.410315,220.946218 167.278645,152.907733 C192.713563,118.887027 257.069331,56.5652499 324.411591,44.875709 C391.753852,33.1876316 460.889214,83.9618341 497.566427,110.351481" id="Fill-1" fill="#D9D9F9"></path>
                    <path d="M507.534566,110.91548 C593.52426,172.783516 707.870226,132.594789 700.0281,242.42581 C692.185975,352.256831 577.556,384.024283 319.278808,381.060034 C61.0016163,378.095786 72.1279326,237.251331 130.236428,159.528827 C159.291536,120.665902 232.807157,49.473773 309.734343,36.1204421 C386.661528,22.7687831 465.637031,80.7697541 507.534566,110.91548" id="Fill-1" stroke="#979797" opacity="0.364356884"></path>
                    <path d="M730.480186,259.819877 C721.655999,392.088047 592.671024,430.345206 302.050033,426.775397 C11.4290417,423.205588 23.9486958,253.588315 89.3340609,159.988042 C122.027712,113.185892 207.248871,38.6304822 293.809573,22.5492273 C380.370275,6.46998581 466.736552,39.2367146 513.880875,75.5408473 C610.638974,150.047776 739.304373,127.551706 730.480186,259.819877 Z" id="Fill-1" stroke="#979797" opacity="0.18"></path>
                    <path d="M778.417636,284.165915 C768.311403,439.475605 620.586496,484.397277 287.741848,480.205596 C-45.1028008,476.013916 -30.764195,276.848797 44.12086,166.943071 C81.5644965,111.987844 179.167243,24.4446541 278.304151,5.56199551 C377.441059,-13.3182989 476.355294,25.156494 530.349107,67.7849173 C641.164969,155.27118 788.523868,128.856226 778.417636,284.165915 Z" id="Fill-1" stroke="#979797" opacity="0.09"></path>
                </g>
                <path d="M280.218203,373.004963 L430.566203,455.932963 C431.898203,456.667963 433.522203,456.649963 434.837203,455.884963 L579.338203,371.965963 C582.115203,370.352963 582.200203,366.395963 579.494203,364.666963 L436.533203,273.325963 C433.788203,271.572963 430.270203,271.556963 427.509203,273.284963 L280.012203,365.637963 C277.240203,367.373963 277.354203,371.424963 280.218203,373.004963 Z" id="Stroke-1" stroke="#000000" stroke-width="2" fill-opacity="0.08" fill="#5E4CC5" stroke-linecap="round" stroke-linejoin="round" stroke-dasharray="4,8"></path>
                <g id="Group" transform="translate(276.000000, 138.000000)">
                    <path d="M299.424256,153.873895 L157.269773,71.0438231 C155.455777,69.9874693 153.402196,70.2240758 151.894162,71.2762419 L1.22872601,160.372199 L154.48603,289.011801 L302.969277,201.355375 C304.89425,200.752343 306.417841,198.973606 306.417841,196.6557 L306.417841,166.09996 C306.417841,161.055845 303.752334,156.395953 299.424256,153.873895" id="Fill-1" fill="#FFFFFF"></path>
                    <path d="M299.424256,153.873895 L157.269773,71.0438231 C155.455777,69.9874693 153.402196,70.2240758 151.894162,71.2762419 L1.22872601,160.372199 L154.48603,289.011801 L302.969277,201.355375 C304.89425,200.752343 306.417841,198.973606 306.417841,196.6557 L306.417841,166.09996 C306.417841,161.055845 303.752334,156.395953 299.424256,153.873895 Z" id="Stroke-3" stroke="#000000" stroke-width="2" stroke-linejoin="round"></path>
                    <path d="M156.69197,284.904899 L156.69197,254.349159 C156.69197,249.30609 154.026464,244.645152 149.699423,242.123094 L7.5439027,159.294069 C4.19179459,157.339448 0.000622297297,159.782986 0.000622297297,163.691181 L0.000622297297,194.060567 C0.000622297297,199.048148 2.63605135,203.65674 6.91538243,206.149484 L149.383089,289.164863 C152.63148,291.057715 156.69197,288.69165 156.69197,284.904899" id="Fill-5" fill="#FFFFFF"></path>
                    <path d="M156.69197,284.904899 L156.69197,254.349159 C156.69197,249.30609 154.026464,244.645152 149.699423,242.123094 L7.5439027,159.294069 C4.19179459,157.339448 0.000622297297,159.782986 0.000622297297,163.691181 L0.000622297297,194.060567 C0.000622297297,199.048148 2.63605135,203.65674 6.91538243,206.149484 L149.383089,289.164863 C152.63148,291.057715 156.69197,288.69165 156.69197,284.904899 Z" id="Stroke-7" stroke="#000000" stroke-width="2" stroke-linejoin="round"></path>
                    <g id="Group-12" transform="translate(198.097973, 181.997509)">
                        <path d="M0.981881419,40.2167184 L69.8266314,0.578848375" id="Fill-9" fill="#FFFFFF"></path>
                        <path d="M0.981881419,40.2167184 L69.8266314,0.578848375" id="Stroke-11" stroke="#000000" stroke-width="2" stroke-linecap="round" stroke-linejoin="round"></path>
                    </g>
                    <path d="M10.875475,177.123101 L123.360897,243.885917" id="Stroke-13" stroke="#9595EF" stroke-width="4" stroke-linecap="round" stroke-linejoin="round"></path>
                    <path d="M10.875475,192.852617 L51.4658534,216.943556" id="Stroke-15" stroke="#9595EF" stroke-width="4" stroke-linecap="round" stroke-linejoin="round"></path>
                    <path d="M61.9081057,222.719791 L123.361001,259.193834" id="Stroke-17" stroke="#9595EF" stroke-width="4" stroke-linecap="round" stroke-linejoin="round"></path>
                    <path d="M144.751433,253.557783 C144.910119,256.06309 143.02767,258.223957 140.544704,258.384137 C138.063812,258.544318 134.758376,256.719516 134.59969,254.214209 C134.442042,251.708903 136.324491,249.548036 138.80642,249.387856 C141.287312,249.227675 144.592748,251.052477 144.751433,253.557783" id="Fill-19" fill="#9595EF"></path>
                    <path d="M145.056255,270.370036 C144.598867,272.709928 142.348225,274.233213 140.02913,273.772563 C137.710036,273.310866 135.114019,270.82231 135.57037,268.481372 C136.028796,266.140433 138.279438,264.617148 140.597495,265.078845 C142.91659,265.540542 145.512607,268.029097 145.056255,270.370036" id="Fill-21" fill="#9595EF"></path>
                    <path d="M299.424256,83.5137184 L157.269773,0.684693141 C155.455777,-0.371660649 153.402196,-0.135054151 151.894162,0.916064983 L1.22872601,90.0130686 L154.48603,218.651625 L302.969277,130.996245 C304.89425,130.392166 306.417841,128.61343 306.417841,126.295523 L306.417841,95.7397834 C306.417841,90.6967148 303.752334,86.0357762 299.424256,83.5137184" id="Fill-23" fill="#FFFFFF"></path>
                    <path d="M299.424256,83.5137184 L157.269773,0.684693141 C155.455777,-0.371660649 153.402196,-0.135054151 151.894162,0.916064983 L1.22872601,90.0130686 L154.48603,218.651625 L302.969277,130.996245 C304.89425,130.392166 306.417841,128.61343 306.417841,126.295523 L306.417841,95.7397834 C306.417841,90.6967148 303.752334,86.0357762 299.424256,83.5137184 Z" id="Stroke-25" stroke="#000000" stroke-width="2" stroke-linejoin="round"></path>
                    <path d="M156.69197,214.545245 L156.69197,183.989505 C156.69197,178.946437 154.026464,174.284451 149.699423,171.76344 L7.5439027,88.9344152 C4.19179459,86.9797942 0.000622297297,89.4233321 0.000622297297,93.3315271 L0.000622297297,123.700913 C0.000622297297,128.688495 2.63605135,133.297087 6.91538243,135.78983 L149.383089,218.805209 C152.63148,220.698061 156.69197,218.331996 156.69197,214.545245" id="Fill-27" fill="#FFFFFF"></path>
                    <path d="M156.69197,214.545245 L156.69197,183.989505 C156.69197,178.946437 154.026464,174.284451 149.699423,171.76344 L7.5439027,88.9344152 C4.19179459,86.9797942 0.000622297297,89.4233321 0.000622297297,93.3315271 L0.000622297297,123.700913 C0.000622297297,128.688495 2.63605135,133.297087 6.91538243,135.78983 L149.383089,218.805209 C152.63148,220.698061 156.69197,218.331996 156.69197,214.545245 Z" id="Stroke-29" stroke="#000000" stroke-width="2" stroke-linejoin="round"></path>
                    <g id="Group-34" transform="translate(198.097973, 111.853105)">
                        <path d="M0.981881419,40.0010505 L69.8266314,0.363180505" id="Fill-31" fill="#FFFFFF"></path>
                        <path d="M0.981881419,40.0010505 L69.8266314,0.363180505" id="Stroke-33" stroke="#000000" stroke-width="2" stroke-linecap="round" stroke-linejoin="round"></path>
                    </g>
                    <path d="M10.875475,106.763448 L123.360897,173.526264" id="Stroke-35" stroke="#9595EF" stroke-width="4" stroke-linecap="round" stroke-linejoin="round"></path>
                    <path d="M10.875475,122.493069 L51.4658534,146.584007" id="Stroke-37" stroke="#9595EF" stroke-width="4" stroke-linecap="round" stroke-linejoin="round"></path>
                    <path d="M61.9081057,152.360242 L123.361001,188.833238" id="Stroke-39" stroke="#9595EF" stroke-width="4" stroke-linecap="round" stroke-linejoin="round"></path>
                    <path d="M144.751433,183.19813 C144.910119,185.703437 143.02767,187.864303 140.544704,188.024484 C138.063812,188.184664 134.758376,186.359863 134.59969,183.853509 C134.442042,181.349249 136.324491,179.188383 138.80642,179.028202 C141.287312,178.866975 144.592748,180.692823 144.751433,183.19813" id="Fill-41" fill="#9595EF"></path>
                    <path d="M145.056255,200.009859 C144.598867,202.350798 142.348225,203.874083 140.02913,203.412386 C137.710036,202.95069 135.114019,200.462134 135.57037,198.121195 C136.028796,195.780256 138.279438,194.258018 140.597495,194.719715 C142.91659,195.181412 145.512607,197.669968 145.056255,200.009859" id="Fill-43" fill="#9595EF"></path>
                </g>
                <g id="cloud" transform="translate(343.000000, 0.000000)">
                    <polygon id="Fill-1" fill="#FFFFFF" points="3.5411 147.3191 13.0511 176.5291 49.0231 155.9741"></polygon>
                    <polygon id="Stroke-2" stroke="#000000" stroke-width="2" stroke-linejoin="round" points="3.5411 147.3191 13.0511 176.5291 49.0231 155.9741"></polygon>
                    <g id="Group-5" transform="translate(60.000000, 167.929000)">
                        <polyline id="Fill-3" fill="#FFFFFF" points="12.3956 12.1933 12.3956 0.0313 0.8896 6.4073 0.8896 19.5263"></polyline>
                        <polyline id="Stroke-4" stroke="#000000" stroke-width="2" stroke-linejoin="round" points="12.3956 12.1933 12.3956 0.0313 0.8896 6.4073 0.8896 19.5263"></polyline>
                    </g>
                    <polygon id="Fill-6" fill="#FFFFFF" points="60.8897 187.4548 72.3957 180.9988 72.3957 118.3148 60.3637 123.1848"></polygon>
                    <polygon id="Stroke-7" stroke="#000000" stroke-width="2" stroke-linejoin="round" points="60.8897 187.4548 72.3957 180.9988 72.3957 118.3148 60.3637 123.1848"></polygon>
                    <g id="Group-72" transform="translate(0.000000, 0.929000)">
                        <path d="M82.8663,202.1894 L100.1213,240.8064 C100.6053,241.7604 101.6053,242.0884 102.3563,241.5414 L124.1813,225.6384 C125.2933,224.8284 125.1313,222.7564 123.9013,222.0834 L84.8213,199.3684 C83.3563,198.5654 82.0113,200.5054 82.8663,202.1894" id="Fill-8" fill="#FFFFFF"></path>
                        <path d="M82.8663,202.1894 L100.1213,240.8064 C100.6053,241.7604 101.6053,242.0884 102.3563,241.5414 L124.1813,225.6384 C125.2933,224.8284 125.1313,222.7564 123.9013,222.0834 L84.8213,199.3684 C83.3563,198.5654 82.0113,200.5054 82.8663,202.1894 Z" id="Stroke-10" stroke="#000000" stroke-width="2" stroke-linejoin="round"></path>
                        <polygon id="Fill-12" fill="#FFFFFF" points="98.4893 235.979 109.8163 229.615 109.8163 148.503 84.5623 138.167 98.4893 147.364"></polygon>
                        <polygon id="Stroke-14" stroke="#000000" stroke-width="2" stroke-linejoin="round" points="98.4893 235.979 109.8163 229.615 109.8163 148.503 84.5623 138.167 98.4893 147.364"></polygon>
                        <path d="M84.7569,200.6127 L83.4109,199.1817 C85.2229,199.4467 83.4619,199.1417 83.4109,199.1817 L70.2869,207.7997 L115.0759,232.2727 L124.1819,225.6377 C125.3469,224.7877 124.2029,221.9877 123.5869,221.7447 L116.6119,218.0867" id="Stroke-16" stroke="#000000" stroke-width="2" stroke-linejoin="round"></path>
                        <polygon id="Fill-18" fill="#FFFFFF" points="72.9678 207.4936 83.4078 200.5196 83.3638 201.3166 83.3638 212.5656"></polygon>
                        <path d="M100.6045,220.541 L105.9185,214.664 C106.2885,214.255 106.6625,213.295 107.1465,213.559 L121.7385,222.232 C124.4485,223.124 123.7435,224.847 122.8915,225.164 L115.7575,230.062 C115.3735,230.428 113.8655,230.237 113.4065,229.969 L100.8875,222.371 C100.2335,221.989 100.0965,221.103 100.6045,220.541" id="Fill-20" fill="#FFFFFF"></path>
                        <path d="M115.0762,232.2729 L98.4892,222.3109 L98.4892,147.3639 L84.5622,136.4429 L84.5622,214.6759 L71.8012,207.6809 C70.3362,206.8779 68.9902,208.8179 69.8462,210.5019 L89.4562,249.1189 C89.9402,250.0719 90.9402,250.4009 91.6912,249.8539 L113.1682,233.7909 C114.2792,232.9809 115.0762,232.2729 115.0762,232.2729" id="Fill-22" fill="#FFFFFF"></path>
                        <path d="M115.0762,232.2729 L98.4892,222.3109 L98.4892,147.3639 L84.5622,136.4429 L84.5622,214.6759 L71.8012,207.6809 C70.3362,206.8779 68.9902,208.8179 69.8462,210.5019 L89.4562,249.1189 C89.9402,250.0719 90.9402,250.4009 91.6912,249.8539 L113.1682,233.7909 C114.2792,232.9809 115.0762,232.2729 115.0762,232.2729 Z" id="Stroke-24" stroke="#000000" stroke-width="2" stroke-linejoin="round"></path>
                        <g id="Group-29" transform="translate(3.000000, 131.000000)">
                            <polyline id="Fill-26" fill="#FFFFFF" points="0.8594 0.9643 0.5244 14.9993 24.3284 22.1983"></polyline>
                            <polyline id="Stroke-28" stroke="#000000" stroke-width="2" stroke-linejoin="round" points="0.8594 0.9643 0.5244 14.9993 24.3284 22.1983"></polyline>
                        </g>
                        <g id="Group-33" transform="translate(12.000000, 116.000000)">
                            <polyline id="Fill-30" fill="#FFFFFF" points="15.3282 51.4184 48.8902 70.5254 48.8902 57.4074 48.3632 14.1064 48.3632 6.2564 35.4922 0.3474 35.4922 35.9554 35.4922 50.0174 0.0722 30.2814 0.0722 42.5444"></polyline>
                            <polyline id="Stroke-32" stroke="#000000" stroke-width="2" stroke-linecap="round" stroke-linejoin="round" points="15.3282 51.4184 48.8902 70.5254 48.8902 57.4074 48.3632 14.1064 48.3632 6.2564 35.4922 0.3474 35.4922 35.9554 35.4922 50.0174 0.0722 30.2814 0.0722 42.5444"></polyline>
                        </g>
                        <g id="Group-37" transform="translate(3.000000, 131.000000)">
                            <polyline id="Fill-34" fill="#FFFFFF" points="44.1954 21.9614 34.3564 16.4674 43.7364 11.1074 43.3144 9.0434 0.8584 0.9644 10.3694 30.1754 22.6354 23.1654 44.4924 35.0174"></polyline>
                            <polyline id="Stroke-36" stroke="#000000" stroke-width="2" stroke-linejoin="round" points="44.1954 21.9614 34.3564 16.4674 43.7364 11.1074 43.3144 9.0434 0.8584 0.9644 10.3694 30.1754 22.6354 23.1654 44.4924 35.0174"></polyline>
                        </g>
                        <polygon id="Fill-38" fill="#FFFFFF" points="4.8282 138.9804 12.1582 161.5754 11.9702 168.3884 4.7932 146.3824"></polygon>
                        <g id="Group-43" transform="translate(13.000000, 161.000000)">
                            <path d="M0.3692,0.1752 L0.0512,14.6002" id="Fill-40" fill="#FFFFFF"></path>
                            <path d="M0.3692,0.1752 L0.0512,14.6002" id="Stroke-42" stroke="#000000" stroke-width="2" stroke-linejoin="round"></path>
                        </g>
                        <g id="Group-47" transform="translate(47.000000, 151.000000)">
                            <path d="M0.4922,15.0175 L0.4922,0.9555" id="Fill-44" fill="#FFFFFF"></path>
                            <path d="M0.4922,15.0175 L0.4922,0.9555" id="Stroke-46" stroke="#000000" stroke-width="2" stroke-linecap="round" stroke-linejoin="round"></path>
                        </g>
                        <g id="Group-51" transform="translate(60.000000, 135.000000)">
                            <path d="M0.3633,0.0205 L0.8893,40.0655" id="Fill-48" fill="#FFFFFF"></path>
                            <path d="M0.3633,0.0205 L0.8893,40.0655" id="Stroke-50" stroke="#000000" stroke-width="2" stroke-linecap="round" stroke-linejoin="round"></path>
                        </g>
                        <polygon id="Fill-52" fill="#FFFFFF" points="143.2344 224.9536 143.2344 177.5346 131.5064 176.3436 131.5064 223.8486 131.5064 225.9536 131.5064 232.3296 177.7074 257.7776 177.7074 244.7416"></polygon>
                        <polygon id="Stroke-54" stroke="#000000" stroke-width="2" stroke-linejoin="round" points="143.2344 224.9536 143.2344 177.5346 131.5064 176.3436 131.5064 223.8486 131.5064 225.9536 131.5064 232.3296 177.7074 257.7776 177.7074 244.7416"></polygon>
                        <g id="Group-59" transform="translate(143.000000, 176.000000)">
                            <polyline id="Fill-56" fill="#FFFFFF" points="0.2344 48.9536 29.9524 66.0106 15.3244 74.0226 65.3854 82.5326 58.3234 50.4696 41.8024 59.5186 13.4974 43.5096 10.7514 41.9556 10.1404 0.3436 0.2344 1.5346 0.2344 49.2966"></polyline>
                            <polyline id="Stroke-58" stroke="#000000" stroke-width="2" stroke-linejoin="round" points="0.2344 48.9536 29.9524 66.0106 15.3244 74.0226 65.3854 82.5326 58.3234 50.4696 41.8024 59.5186 13.4974 43.5096 10.7514 41.9556 10.1404 0.3436 0.2344 1.5346 0.2344 49.2966"></polyline>
                        </g>
                        <polygon id="Fill-60" fill="#FFFFFF" points="158.3243 250.0224 158.0053 258.4904 208.0673 267.0004 208.3863 258.5324"></polygon>
                        <polygon id="Stroke-62" stroke="#000000" stroke-width="2" stroke-linejoin="round" points="158.3243 250.0224 158.0053 258.4904 208.0673 267.0004 208.3863 258.5324"></polygon>
                        <path d="M161.92,68.1313 C158.349,65.8603 154.517,64.0343 150.434,62.7543 C144.241,40.0763 128.773,18.2583 109.46,5.6723 C98.569,-1.4257 86.925,-1.3837 77.636,3.5843 L77.636,3.5803 L77.565,3.6203 C77.489,3.6603 77.417,3.7033 77.343,3.7443 L53.006,17.3433 L62.816,20.1673 C61.895,22.3323 61.146,24.6273 60.618,27.0523 C59.519,26.2913 58.357,25.5863 57.263,24.9223 C48.273,19.4553 38.834,19.7593 31.712,24.0333 L6.984,37.8313 L20.08,44.7423 C20.049,45.4503 20.036,46.1663 20.054,46.8973 C20.629,70.5663 36.691,98.4113 57.12,111.0183 C89.461,129.7093 121.978,148.0613 154.621,166.2173 C155.369,166.6333 156.117,167.0013 156.865,167.3483 L150.217,172.1103 L152.598,180.4253 L178.418,168.2133 L178.418,168.2123 C187.409,164.5113 194.219,155.6583 195.9,144.0743 C199.844,116.9113 185.297,82.9923 161.92,68.1313" id="Fill-64" fill="#A7A7F5"></path>
                        <path d="M161.92,68.1313 C158.349,65.8603 154.517,64.0343 150.434,62.7543 C144.241,40.0763 128.773,18.2583 109.46,5.6723 C98.569,-1.4257 86.925,-1.3837 77.636,3.5843 L77.636,3.5803 L77.565,3.6203 C77.489,3.6603 77.417,3.7033 77.343,3.7443 L53.006,17.3433 L62.816,20.1673 C61.895,22.3323 61.146,24.6273 60.618,27.0523 C59.519,26.2913 58.357,25.5863 57.263,24.9223 C48.273,19.4553 38.834,19.7593 31.712,24.0333 L6.984,37.8313 L20.08,44.7423 C20.049,45.4503 20.036,46.1663 20.054,46.8973 C20.629,70.5663 36.691,98.4113 57.12,111.0183 C89.461,129.7093 121.978,148.0613 154.621,166.2173 C155.369,166.6333 156.117,167.0013 156.865,167.3483 L150.217,172.1103 L152.598,180.4253 L178.418,168.2133 L178.418,168.2123 C187.409,164.5113 194.219,155.6583 195.9,144.0743 C199.844,116.9113 185.297,82.9923 161.92,68.1313 Z" id="Stroke-66" stroke="#000000" stroke-width="2" stroke-linejoin="round"></path>
                        <path d="M141.876,78.749 C138.305,76.478 134.473,74.652 130.39,73.372 C124.197,50.694 108.729,28.875 89.416,16.289 C68.819,2.866 45.517,14.966 40.574,37.67 C39.475,36.908 38.313,36.204 37.219,35.539 C19.255,24.616 -0.496,36.731 0.01,57.514 C0.585,81.183 16.647,109.029 37.076,121.636 C69.417,140.326 101.934,158.679 134.577,176.835 C153.508,187.364 172.855,175.374 175.856,154.692 C179.8,127.529 165.253,93.61 141.876,78.749" id="Fill-68" fill="#FFFFFF"></path>
                        <path d="M141.876,78.749 C138.305,76.478 134.473,74.652 130.39,73.372 C124.197,50.694 108.729,28.875 89.416,16.289 C68.819,2.866 45.517,14.966 40.574,37.67 C39.475,36.908 38.313,36.204 37.219,35.539 C19.255,24.616 -0.496,36.731 0.01,57.514 C0.585,81.183 16.647,109.029 37.076,121.636 C69.417,140.326 101.934,158.679 134.577,176.835 C153.508,187.364 172.855,175.374 175.856,154.692 C179.8,127.529 165.253,93.61 141.876,78.749 Z" id="Stroke-70" stroke="#000000" stroke-width="2" stroke-linejoin="round"></path>
                    </g>
                </g>
                <g id="folder" transform="translate(0.000000, 151.000000)">
                    <path d="M118.875997,134.356324 L199.576212,180.6336 C201.669287,181.815421 203.287065,180.807822 206.0128,179.794604 C208.739338,178.781385 222.010735,172.644267 222.010735,172.644267 C224.61604,170.102389 224.619252,167.567736 221.423839,165.825514 L137.574778,118.469987 C135.614176,117.400568 133.197546,117.646245 131.491452,119.088998 L118.041818,125.514346 C115.164341,127.947837 115.593875,132.504109 118.875997,134.356324 Z" id="Stroke-1" stroke="#000000" stroke-width="2" fill-opacity="0.08" fill="#6D52D6" stroke-linecap="round" stroke-linejoin="round" stroke-dasharray="4,8"></path>
                    <polygon id="Fill-3" fill="#9595EF" points="41.7865978 195.05077 111.804662 153.933523 117.933752 157.329652 43.3425548 202.576046"></polygon>
                    <polygon id="Stroke-5" stroke="#000000" stroke-width="1.5" stroke-linejoin="round" points="41.7865978 195.05077 111.804662 153.933523 117.933752 157.329652 43.3425548 202.576046"></polygon>
                    <polygon id="Fill-7" fill="#FFFFFF" points="68.6489348 179.30076 68.6489348 167.858294 78.7144832 162.50076 78.8493649 173.281663"></polygon>
                    <polygon id="Stroke-9" stroke="#000000" stroke-width="1.5" stroke-linejoin="round" points="68.6489348 179.30076 68.6489348 167.858294 78.7144832 162.50076 78.8493649 173.281663"></polygon>
                    <polygon id="Fill-11" fill="#FFFFFF" points="98.6177262 161.907441 98.6177262 142.473233 88.3121204 147.804272 88.3121204 167.729032"></polygon>
                    <polygon id="Stroke-13" stroke="#000000" stroke-width="1.5" stroke-linejoin="round" points="98.6177262 161.907441 98.6177262 142.473233 88.3121204 147.804272 88.3121204 167.729032"></polygon>
                    <polygon id="Fill-15" fill="#9595EF" points="94.4559828 151.304694 88.3124416 147.804192 98.6180473 142.473153 104.992011 145.875705"></polygon>
                    <polygon id="Stroke-17" stroke="#000000" stroke-width="1.5" stroke-linejoin="round" points="94.4559828 151.304694 88.3124416 147.804192 98.6180473 142.473153 104.992011 145.875705"></polygon>
                    <polygon id="Fill-19" fill="#9595EF" points="75.3768832 171.249766 68.6488545 167.699487 78.9544602 162.36925 85.4424315 165.892232"></polygon>
                    <polygon id="Stroke-21" stroke="#000000" stroke-width="1.5" stroke-linejoin="round" points="75.3768832 171.249766 68.6488545 167.699487 78.9544602 162.36925 85.4424315 165.892232"></polygon>
                    <polygon id="Fill-23" fill="#FFFFFF" points="104.992011 164.955045 104.992011 145.875705 94.6856029 151.205941 94.5081692 171.131504 89.0382337 174.355016 85.5634237 176.401525 85.4429935 165.891991 75.3766423 171.249525 75.3766423 182.671117 43.3430366 202.575805 43.3430366 213.449841 117.933431 169.553067 117.933431 157.610414"></polygon>
                    <polygon id="Stroke-25" stroke="#000000" stroke-width="1.5" stroke-linejoin="round" points="104.992011 164.955045 104.992011 145.875705 94.6856029 151.205941 94.5081692 171.131504 89.0382337 174.355016 85.5634237 176.401525 85.4429935 165.891991 75.3766423 171.249525 75.3766423 182.671117 43.3430366 202.575805 43.3430366 213.449841 117.933431 169.553067 117.933431 157.610414"></polygon>
                    <polygon id="Fill-27" fill="#9595EF" points="88.7645362 148.551501 94.2063713 151.673049 94.0987871 170.847931 92.1205219 171.926985 88.7147584 168.805437"></polygon>
                    <path d="M21.5439828,220.745256 C15.6854595,221.601915 11.2118824,216.294962 13.2102194,209.665686 C15.1459326,203.245958 20.9787642,197.583335 27.7188358,196.700984 C33.4424774,195.951908 38.0059756,201.122374 36.0220903,207.749242 C34.0871799,214.209915 28.2952946,219.757729 21.5439828,220.745256 M31.3325419,185.027292 C17.3361548,188.340725 6.63955269,198.768367 1.90183226,211.814962 C-0.758067384,219.139521 0.421344803,229.397758 7.71298638,233.258747 C11.0416746,235.020238 11.880671,234.367507 16.9395384,233.700324 C32.5272086,231.645786 45.2454308,218.193743 48.9651154,204.526532 C51.2613161,196.090804 54.2070366,192.934733 48.9586925,189.060095 C42.5959685,184.361715 36.859481,183.719421 31.3325419,185.027292" id="Fill-29" fill="#9595EF"></path>
                    <path d="M21.5439828,220.745256 C15.6854595,221.601915 11.2118824,216.294962 13.2102194,209.665686 C15.1459326,203.245958 20.9787642,197.583335 27.7188358,196.700984 C33.4424774,195.951908 38.0059756,201.122374 36.0220903,207.749242 C34.0871799,214.209915 28.2952946,219.757729 21.5439828,220.745256 Z M31.3325419,185.027292 C17.3361548,188.340725 6.63955269,198.768367 1.90183226,211.814962 C-0.758067384,219.139521 0.421344803,229.397758 7.71298638,233.258747 C11.0416746,235.020238 11.880671,234.367507 16.9395384,233.700324 C32.5272086,231.645786 45.2454308,218.193743 48.9651154,204.526532 C51.2613161,196.090804 54.2070366,192.934733 48.9586925,189.060095 C42.5959685,184.361715 36.859481,183.719421 31.3325419,185.027292 Z" id="Stroke-31" stroke="#000000" stroke-width="1.5" stroke-linejoin="round"></path>
                    <path d="M25.3309477,223.497726 C19.4724244,224.354386 14.9988473,219.047432 16.9971842,212.417353 C18.9328975,205.997626 24.765729,200.335002 31.5058007,199.453454 C37.2294423,198.704378 41.9486968,203.31926 39.9648115,209.945325 C38.0299011,216.406801 32.0814566,222.510199 25.3309477,223.497726 M35.1195068,187.779762 C21.1231197,191.093196 9.08251756,202.615948 4.34479713,215.662543 C0.0896,227.381999 7.23592258,238.231948 20.7265032,236.452794 C36.3133706,234.398257 49.0323957,220.946214 52.7512774,207.279002 C56.246962,194.439547 51.2362667,183.964536 35.1195068,187.779762" id="Fill-33" fill="#FFFFFF"></path>
                    <path d="M25.3309477,223.497726 C19.4724244,224.354386 14.9988473,219.047432 16.9971842,212.417353 C18.9328975,205.997626 24.765729,200.335002 31.5058007,199.453454 C37.2294423,198.704378 41.9486968,203.31926 39.9648115,209.945325 C38.0299011,216.406801 32.0814566,222.510199 25.3309477,223.497726 Z M35.1195068,187.779762 C21.1231197,191.093196 9.08251756,202.615948 4.34479713,215.662543 C0.0896,227.381999 7.23592258,238.231948 20.7265032,236.452794 C36.3133706,234.398257 49.0323957,220.946214 52.7512774,207.279002 C56.246962,194.439547 51.2362667,183.964536 35.1195068,187.779762 Z" id="Stroke-35" stroke="#000000" stroke-width="1.5" stroke-linejoin="round"></path>
                    <path d="M69.1429391,168.620857 L74.8601577,171.572198 L74.8601577,182.053632 C74.8601577,182.053632 74.2941362,182.105015 74.1536344,182.03918 L69.1429391,180.313818 L69.1429391,168.620857 Z" id="Fill-37" fill="#9595EF"></path>
                    <polygon id="Fill-39" fill="#FFFFFF" points="202.815622 156.49202 202.815622 163.601411 212.826575 160.855604 221.467837 152.174199 221.741614 148.77245 212.596152 147.911776 204.183708 154.207862"></polygon>
                    <g id="Group-44" transform="translate(134.881720, 27.698925)">
                        <path d="M77.7141104,120.813798 L4.12408889,78.7628158 C1.82547957,85.4322351 0.401192832,82.9923211 0.387544086,80.3444645 L0.0334795699,8.07997706 C0.00537921147,2.3780129 6.15614624,-1.22043871 11.1138523,1.59842867 L85.0579384,43.6494108 C87.3758165,44.967719 88.807329,47.4293104 88.807329,50.0948301 L88.807329,121.43602" id="Fill-41" fill="#FFFFFF"></path>
                        <path d="M77.7141104,120.813798 L4.12408889,78.7628158 C1.82547957,85.4322351 0.401192832,82.9923211 0.387544086,80.3444645 L0.0334795699,8.07997706 C0.00537921147,2.3780129 6.15614624,-1.22043871 11.1138523,1.59842867 L85.0579384,43.6494108 C87.3758165,44.967719 88.807329,47.4293104 88.807329,50.0948301 L88.807329,121.43602" id="Stroke-43" stroke="#000000" stroke-width="1.5" stroke-linejoin="round"></path>
                    </g>
                    <g id="Group-48" transform="translate(130.867384, 30.107527)">
                        <path d="M74.424281,125.456539 L4.29381505,78.5425892 C1.99520573,85.2128115 0.570918996,82.7720946 0.558073118,80.1250409 L0.203205735,7.86055341 C0.175908244,2.15778638 6.32667527,-1.44066523 11.2835785,1.37900502 L85.2284674,43.4299871 C87.5463455,44.7482953 88.9778581,47.2090839 88.9778581,49.8754065 L88.9778581,112.894073" id="Fill-45" fill="#FFFFFF"></path>
                        <path d="M74.424281,125.456539 L4.29381505,78.5425892 C1.99520573,85.2128115 0.570918996,82.7720946 0.558073118,80.1250409 L0.203205735,7.86055341 C0.175908244,2.15778638 6.32667527,-1.44066523 11.2835785,1.37900502 L85.2284674,43.4299871 C87.5463455,44.7482953 88.9778581,47.2090839 88.9778581,49.8754065 L88.9778581,112.894073" id="Stroke-47" stroke="#000000" stroke-width="1.5" stroke-linejoin="round"></path>
                    </g>
                    <g id="Group-52" transform="translate(215.168459, 155.354839)">
                        <path d="M0.527564158,3.54811183 C0.527564158,3.54811183 4.01682581,2.40884301 5.71810179,0.506850179" id="Fill-49" fill="#FFFFFF"></path>
                        <path d="M0.527564158,3.54811183 C0.527564158,3.54811183 4.01682581,2.40884301 5.71810179,0.506850179" id="Stroke-51" stroke="#000000" stroke-width="1.5" stroke-linejoin="round"></path>
                    </g>
                    <path d="M133.580112,32.3689634 C133.580112,32.3689634 138.007123,28.8090495 141.344642,28.388347" id="Stroke-53" stroke="#000000" stroke-width="1.5" stroke-linejoin="round"></path>
                    <path d="M163.487644,0.601989964 L209.165178,25.4940903 C211.120161,26.5779613 212.334096,28.6373161 212.334096,30.8733018 L212.342928,129.238205 C212.342928,130.961158 210.481078,132.041015 208.986139,131.185961 L145.865508,95.117947 C143.949064,94.0228358 142.765637,91.9843556 142.765637,89.7772731 L142.765637,12.9171728 L163.487644,0.601989964 Z" id="Fill-55" fill="#FFFFFF"></path>
                    <path d="M163.487644,0.601989964 L209.165178,25.4940903 C211.120161,26.5779613 212.334096,28.6373161 212.334096,30.8733018 L212.342928,129.238205 C212.342928,130.961158 210.481078,132.041015 208.986139,131.185961 L145.865508,95.117947 C143.949064,94.0228358 142.765637,91.9843556 142.765637,89.7772731 L142.765637,12.9171728 L163.487644,0.601989964 Z" id="Stroke-57" stroke="#000000" stroke-width="1.5" stroke-linejoin="round"></path>
                    <path d="M142.766039,12.9174939 L163.488046,0.602311111 L163.488046,19.5989563 C163.488046,21.3203039 161.674368,22.4370925 160.13768,21.6639312 L142.766039,12.9174939 Z" id="Fill-59" fill="#FFFFFF"></path>
                    <path d="M142.766039,12.9174939 L163.488046,0.602311111 L163.488046,19.5989563 C163.488046,21.3203039 161.674368,22.4370925 160.13768,21.6639312 L142.766039,12.9174939 Z" id="Stroke-61" stroke="#000000" stroke-width="1.5" stroke-linejoin="round"></path>
                    <path d="M154.301718,4.02557706 L199.979252,28.9176774 C201.934234,30.0015484 203.148169,32.0609032 203.148169,34.2968889 L203.157001,132.661792 C203.157001,134.384746 201.295151,135.464602 199.799409,134.609548 L136.679581,98.5415341 C134.763137,97.4456201 133.57971,95.4079427 133.57971,93.2008602 L133.57971,16.3407599 L154.301718,4.02557706 Z" id="Fill-63" fill="#FFFFFF"></path>
                    <path d="M154.301718,4.02557706 L199.979252,28.9176774 C201.934234,30.0015484 203.148169,32.0609032 203.148169,34.2968889 L203.157001,132.661792 C203.157001,134.384746 201.295151,135.464602 199.799409,134.609548 L136.679581,98.5415341 C134.763137,97.4456201 133.57971,95.4079427 133.57971,93.2008602 L133.57971,16.3407599 L154.301718,4.02557706 Z" id="Stroke-65" stroke="#000000" stroke-width="1.5" stroke-linejoin="round"></path>
                    <path d="M133.580112,16.341081 L154.302119,4.02589821 L154.302119,23.0225434 C154.302119,24.743891 152.488442,25.8606796 150.951753,25.0875183 L133.580112,16.341081 Z" id="Fill-67" fill="#FFFFFF"></path>
                    <path d="M133.580112,16.341081 L154.302119,4.02589821 L154.302119,23.0225434 C154.302119,24.743891 152.488442,25.8606796 150.951753,25.0875183 L133.580112,16.341081 Z" id="Stroke-69" stroke="#000000" stroke-width="1.5" stroke-linejoin="round"></path>
                    <path d="M143.650397,33.9551082 L193.086153,62.2039971" id="Stroke-71" stroke="#9595EF" stroke-width="2.169" stroke-linecap="round" stroke-linejoin="round"></path>
                    <path d="M143.650397,42.9348588 L193.086153,71.1837477" id="Stroke-73" stroke="#9595EF" stroke-width="2.169" stroke-linecap="round" stroke-linejoin="round"></path>
                    <path d="M143.650397,52.5128258 L193.086153,80.7617147" id="Stroke-75" stroke="#9595EF" stroke-width="2.169" stroke-linecap="round" stroke-linejoin="round"></path>
                    <path d="M143.650397,61.4529147 L193.086153,89.7018036" id="Stroke-77" stroke="#9595EF" stroke-width="2.169" stroke-linecap="round" stroke-linejoin="round"></path>
                    <path d="M143.650397,70.7780588 L193.086153,99.0269477" id="Stroke-79" stroke="#9595EF" stroke-width="2.169" stroke-linecap="round" stroke-linejoin="round"></path>
                    <path d="M178.771189,99.5201491 L192.729841,107.922156" id="Stroke-81" stroke="#9595EF" stroke-width="2.169" stroke-linecap="round" stroke-linejoin="round"></path>
                    <g id="Group-86" transform="translate(117.218638, 38.136201)">
                        <path d="M78.2285075,120.604811 L4.63848602,78.5538294 C2.3398767,77.2395355 0.915589964,74.7996215 0.901941219,72.1517649 L0.547876703,7.87099068 C0.519776344,2.16822366 6.67134624,-1.43022796 11.6282495,1.38944229 L85.5723355,43.4404244 C87.8902136,44.7587326 89.3217262,47.2195211 89.3217262,49.8858437 L89.3185147,117.427865" id="Fill-83" fill="#FFFFFF"></path>
                        <path d="M78.2285075,120.604811 L4.63848602,78.5538294 C2.3398767,77.2395355 0.915589964,74.7996215 0.901941219,72.1517649 L0.547876703,7.87099068 C0.519776344,2.16822366 6.67134624,-1.43022796 11.6282495,1.38944229 L85.5723355,43.4404244 C87.8902136,44.7587326 89.3217262,47.2195211 89.3217262,49.8858437 L89.3185147,117.427865" id="Stroke-85" stroke="#000000" stroke-width="1.5" stroke-linecap="round" stroke-linejoin="round"></path>
                    </g>
                    <g id="Group-90" transform="translate(113.204301, 40.544803)">
                        <path d="M89.923395,122.748066 C89.6905634,121.62084 89.4922552,49.6670624 89.4922552,49.6670624 C89.4922552,46.9999369 88.0607427,44.5391484 85.7428645,43.2208401 L11.7979756,1.16985806 C6.8410724,-1.64900932 0.689502509,1.94944229 0.718405735,7.65220932 L1.07247025,71.9329835 C1.086119,74.5800373 2.50960287,77.0199513 4.80821219,78.3342452 L78.3990366,120.385227 C85.8424201,124.71188 84.6188502,124.33132 97.5610724,121.020295 C99.2486996,120.589156 103.197201,118.883062 104.594994,118.196611" id="Fill-87" fill="#FFFFFF"></path>
                        <path d="M89.923395,122.748066 C89.6905634,121.62084 89.4922552,49.6670624 89.4922552,49.6670624 C89.4922552,46.9999369 88.0607427,44.5391484 85.7428645,43.2208401 L11.7979756,1.16985806 C6.8410724,-1.64900932 0.689502509,1.94944229 0.718405735,7.65220932 L1.07247025,71.9329835 C1.086119,74.5800373 2.50960287,77.0199513 4.80821219,78.3342452 L78.3990366,120.385227 C85.8424201,124.71188 84.6188502,124.33132 97.5610724,121.020295 C99.2486996,120.589156 103.197201,118.883062 104.594994,118.196611" id="Stroke-89" stroke="#000000" stroke-width="1.5" stroke-linejoin="round"></path>
                    </g>
                    <path d="M116.432149,42.5969319 C116.432149,42.5969319 120.85916,39.0370179 124.195877,38.6163154" id="Stroke-91" stroke="#000000" stroke-width="1.5" stroke-linejoin="round"></path>
                    <g id="Group-96" transform="translate(210.351254, 147.326165)">
                        <path d="M0.413878136,14.2390136 C4.95088172,12.9078595 7.90382796,11.403286 9.87968459,9.75821075 C12.1991685,7.82892043 13.4676989,4.38301362 13.3384373,0.264303943" id="Fill-93" fill="#FFFFFF"></path>
                        <path d="M0.413878136,14.2390136 C4.95088172,12.9078595 7.90382796,11.403286 9.87968459,9.75821075 C12.1991685,7.82892043 13.4676989,4.38301362 13.3384373,0.264303943" id="Stroke-95" stroke="#000000" stroke-width="1.5" stroke-linejoin="round"></path>
                    </g>
                    <path d="M219.845161,142.473554 C219.845161,149.09721 220.88648,155.862171 212.043699,158.190486 C206.263857,159.712723 206.53924,154.975002 206.53924,154.975002 L206.540846,150.482959" id="Stroke-97" stroke="#000000" stroke-width="1.5" stroke-linejoin="round"></path>
                    <path d="M151.412519,84.504843 L165.70115,92.6692014 C166.998584,93.4110509 167.799845,94.7919828 167.799845,96.2869219 L167.799845,115.548513 C167.799845,119.141345 163.88667,121.367696 160.798039,119.529933 L150.400103,113.346248 C148.999903,112.513675 148.140032,111.00589 148.135214,109.376872 L148.069379,86.4509935 C148.064562,84.7328573 149.920791,83.6521978 151.412519,84.504843" id="Fill-99" fill="#FFFFFF"></path>
                    <path d="M151.412519,84.504843 L165.70115,92.6692014 C166.998584,93.4110509 167.799845,94.7919828 167.799845,96.2869219 L167.799845,115.548513 C167.799845,119.141345 163.88667,121.367696 160.798039,119.529933 L150.400103,113.346248 C148.999903,112.513675 148.140032,111.00589 148.135214,109.376872 L148.069379,86.4509935 C148.064562,84.7328573 149.920791,83.6521978 151.412519,84.504843 Z" id="Stroke-101" stroke="#000000" stroke-width="1.5" stroke-linejoin="round"></path>
                    <path d="M148.481732,86.3700645 L162.76956,94.5344229 C164.067796,95.2762724 164.869058,96.6572043 164.869058,98.1521434 L164.869058,117.413735 C164.869058,121.007369 160.955882,123.232918 157.867252,121.395154 L147.469316,115.21147 C146.069115,114.378896 145.209244,112.871914 145.204427,111.242093 L145.138592,88.3162151 C145.133775,86.5980789 146.990004,85.5174194 148.481732,86.3700645" id="Fill-103" fill="#9595EF"></path>
                    <path d="M148.481732,86.3700645 L162.76956,94.5344229 C164.067796,95.2762724 164.869058,96.6572043 164.869058,98.1521434 L164.869058,117.413735 C164.869058,121.007369 160.955882,123.232918 157.867252,121.395154 L147.469316,115.21147 C146.069115,114.378896 145.209244,112.871914 145.204427,111.242093 L145.138592,88.3162151 C145.133775,86.5980789 146.990004,85.5174194 148.481732,86.3700645 Z" id="Stroke-105" stroke="#000000" stroke-width="1.5" stroke-linejoin="round"></path>
                    <g id="Group-110" transform="translate(162.179211, 118.422939)">
                        <path d="M0.634184946,2.83339928 C0.634184946,2.83339928 3.6064,1.90608746 4.53772616,0.102847312" id="Fill-107" fill="#FFFFFF"></path>
                        <path d="M0.634184946,2.83339928 C0.634184946,2.83339928 3.6064,1.90608746 4.53772616,0.102847312" id="Stroke-109" stroke="#000000" stroke-width="1.5" stroke-linejoin="round"></path>
                    </g>
                    <path d="M145.626976,86.9126423 C145.626976,86.9126423 149.694303,83.0781477 151.412439,84.504843" id="Stroke-111" stroke="#000000" stroke-width="1.5" stroke-linejoin="round"></path>
                    <path d="M158.980186,102.542704 C158.995441,100.265772 157.052502,97.2405677 155.042925,96.5380588 C153.034151,95.8363527 150.896115,97.317643 150.881663,99.6042093 C150.872029,101.157758 151.759197,103.027636 152.952258,104.282518 L152.952258,111.290747 L156.910394,113.536367 L156.910394,105.511708 C158.076158,105.082976 158.970552,103.9975 158.980186,102.542704" id="Fill-113" fill="#FFFFFF"></path>
                    <path d="M158.980186,102.542704 C158.995441,100.265772 157.052502,97.2405677 155.042925,96.5380588 C153.034151,95.8363527 150.896115,97.317643 150.881663,99.6042093 C150.872029,101.157758 151.759197,103.027636 152.952258,104.282518 L152.952258,111.290747 L156.910394,113.536367 L156.910394,105.511708 C158.076158,105.082976 158.970552,103.9975 158.980186,102.542704 Z" id="Stroke-115" stroke="#000000" stroke-width="1.5" stroke-linejoin="round"></path>
                </g>
            </g>
        </g>
    </g>
</svg>