<svg width="120" height="120" viewBox="0 0 120 120" fill="none" xmlns="http://www.w3.org/2000/svg">
<path d="M52.7862 101.984L53.5258 101.581L56.7763 99.806L56.5367 99.3671L64.6628 94.9307L64.9024 95.3696L71.4033 91.8204L71.1637 91.3816L79.2898 86.9451L79.5294 87.384L86.0303 83.8348L85.7908 83.396L93.9169 78.9595L94.1565 79.3984L97.4069 77.6238L97.1673 77.185L97.407 77.6238C97.6683 77.4811 97.908 77.3095 98.1229 77.1141L97.7866 76.7441C98.2597 76.3141 98.5937 75.7513 98.7445 75.1301L99.2304 75.248C99.2989 74.9657 99.3346 74.673 99.3346 74.3753V71.2306H98.8346V63.369H99.3346V57.0797H98.8346V49.2181H99.3346V46.0734V45.2368L98.5978 45.633L95.2644 47.4256L95.5012 47.866L87.1677 52.3474L86.9309 51.907L80.2641 55.4921L80.5009 55.9325L72.1674 60.4139L71.9306 59.9735L68.5972 61.7661L68.5972 61.7661C68.2221 61.9678 67.8303 62.125 67.4292 62.2377L67.5644 62.719C66.4572 63.03 65.2842 63.0292 64.1773 62.7168L64.3132 62.2356C63.9122 62.1224 63.5206 61.9648 63.1457 61.7626L62.9083 62.2026L63.1457 61.7626L59.9246 60.0252L59.6872 60.4652L51.6343 56.1217L51.8717 55.6816L45.4294 52.2068L45.192 52.6468L37.1391 48.3033L37.3765 47.8632L34.1554 46.1258L33.418 45.7281V46.5659V49.7088H33.918V57.5662H33.418V63.8521H33.918V71.7096H33.418V74.8525C33.418 75.2408 33.4656 75.6221 33.5567 75.9893L34.042 75.869C34.2494 76.7052 34.7084 77.4593 35.356 78.0275L35.0262 78.4034C35.3106 78.6529 35.6275 78.8703 35.9724 79.0486L36.202 78.6045L35.9724 79.0487L39.7689 81.0113L39.9985 80.5671L49.4897 85.4736L49.2601 85.9178L52.7862 87.7406V90.4819H53.2862V98.0961H52.7862V101.142V101.984ZM99.0697 41.9188L99.3346 41.7776V41.4775V41.207H98.8346V40.5308H99.3346V40.2603C99.3346 40.0069 99.3038 39.7578 99.2448 39.5177L98.7592 39.6371C98.6331 39.1243 98.354 38.6609 97.9596 38.3097L98.2922 37.9363C98.1075 37.7719 97.9018 37.6282 97.6777 37.5097L97.6777 37.5097L94.4421 35.7986L94.2083 36.2406L86.1192 31.9629L86.3529 31.5209L79.8816 28.0988L79.6478 28.5408L71.5587 24.2631L71.7924 23.8211L68.5568 22.11L68.5568 22.11C68.2166 21.9302 67.8616 21.7901 67.4984 21.6897L67.3653 22.1717C66.5311 21.9413 65.6488 21.9428 64.8154 22.176L64.6807 21.6945C64.3178 21.7961 63.9632 21.9374 63.6237 22.1184L63.6219 22.1194L60.4476 23.8292L60.6848 24.2694L52.7492 28.5439L52.512 28.1037L46.1636 31.5232L46.4007 31.9634L38.4651 36.2379L38.228 35.7977L35.0538 37.5074C34.8322 37.6267 34.6289 37.7708 34.4465 37.9351L34.7812 38.3065C34.3917 38.6575 34.1165 39.1184 33.9923 39.6277L33.5065 39.5093C33.4483 39.7477 33.418 39.995 33.418 40.2466V40.6296H33.918V41.587H33.418V41.97V42.2697L33.6824 42.411L36.955 44.1593L37.1906 43.7183L45.3721 48.0893L45.1365 48.5303L51.6817 52.0271L51.9173 51.5861L60.0988 55.957L59.8632 56.398L63.1357 58.1464C63.5122 58.3475 63.9054 58.5044 64.3079 58.617L64.4426 58.1355C65.3762 58.3967 66.3648 58.3973 67.2987 58.1371L67.4329 58.6188C67.8355 58.5066 68.2289 58.3501 68.6055 58.1495L71.9905 56.3461L71.7554 55.9048L80.2176 51.3963L80.4527 51.8375L87.2225 48.2307L86.9874 47.7894L95.4497 43.2809L95.6848 43.7222L99.0697 41.9188Z" fill="#F7F7FE" stroke="black" stroke-dasharray="8 10"/>
<path d="M40.3683 97.1417V83.4362L23.284 74.6045C21.8812 73.8793 21 72.4318 21 70.8525V42.5659L49.9904 58.2026C51.8392 59.2 54.0659 59.2015 55.916 58.2065L85.9167 42.0734V70.3753C85.9167 71.5463 85.2771 72.6238 84.2494 73.185L40.3683 97.1417ZM55.4525 53.7082L85.9166 37.4775V36.2603C85.9166 35.2927 85.3813 34.4041 84.526 33.9517L55.4051 18.552C54.0081 17.8133 52.3355 17.8161 50.941 18.5596L22.3729 33.9477C21.5272 34.4031 21 35.2861 21 36.2466V37.97L50.4534 53.7054C52.0149 54.5397 53.8899 54.5407 55.4525 53.7082Z" fill="#EA6F21"/>
</svg>
