<svg width="204" height="123" viewBox="0 0 204 123" fill="none" xmlns="http://www.w3.org/2000/svg">
<path d="M14.5444 93.334C29.094 116.294 55.1283 117.489 94.1239 109.159C133.975 100.645 135.436 111.464 166.517 91.4618C204.993 66.6997 185.989 28.5661 153.984 29.1519C116.76 29.8333 125.026 18.0805 58.8252 18.8962C3.16751 19.5819 -1.65748 67.7668 14.5444 93.334Z" fill="url(#paint0_linear)"/>
<g clip-path="url(#clip0)">
<path d="M145.023 11.6659C145.023 11.7469 144.941 11.8279 144.941 11.909C144.779 12.2331 144.617 12.6383 144.455 12.9624L144.13 26.5762C144.293 26.3331 144.374 26.171 144.455 25.9279C144.536 25.7659 144.536 25.6848 144.617 25.5228C144.617 25.4417 144.698 25.3607 144.698 25.2797C144.698 25.1986 144.779 25.1986 144.779 25.1176C144.86 24.8745 144.86 24.6314 144.941 24.3073C144.941 24.2262 144.941 24.1452 144.941 24.0641L145.266 10.3693C145.266 10.8555 145.185 11.2607 145.023 11.6659Z" fill="white" stroke="black" stroke-width="2" stroke-miterlimit="10" stroke-linejoin="round"/>
<path d="M131.966 16.3659C131.48 16.2038 130.912 16.0418 130.425 15.8797C130.263 15.7987 130.101 15.7176 130.02 15.7176C129.696 15.5556 129.371 15.3935 129.047 15.2314C128.885 15.1504 128.722 15.0694 128.56 14.9883C128.236 14.8263 127.993 14.5832 127.749 14.4211C127.668 14.3401 127.506 14.259 127.425 14.178C127.101 13.8538 126.776 13.5297 126.452 13.2056C125.722 12.2332 125.398 11.2607 125.479 10.2883L125.154 23.9832C125.154 24.9556 125.479 25.928 126.127 26.9004C126.371 27.2245 126.695 27.6297 127.101 27.8728C127.182 27.9538 127.344 28.0349 127.425 28.1969C127.668 28.4401 127.993 28.6021 128.236 28.7642C128.398 28.8452 128.56 28.9263 128.722 29.0073C129.047 29.1694 129.371 29.3314 129.696 29.4935C129.858 29.5745 130.02 29.6556 130.101 29.6556C130.182 29.6556 130.263 29.7366 130.263 29.7366C130.669 29.8987 131.155 30.0607 131.561 30.1418C132.615 30.709 134.156 31.7625 134.399 33.059L134.723 19.3642C134.642 17.9866 133.02 16.9332 131.966 16.3659Z" fill="white" stroke="black" stroke-width="2" stroke-miterlimit="10" stroke-linejoin="round"/>
<path d="M202.275 25.1176C202.275 25.1987 202.275 25.3607 202.194 25.4418C202.113 25.6038 202.113 25.7659 202.032 25.928C201.951 26.009 201.951 26.1711 201.87 26.2521C201.789 26.3331 201.789 26.4142 201.708 26.4952C201.627 26.6573 201.464 26.9004 201.383 27.0624C201.221 27.3055 201.059 27.4676 200.897 27.6297L200.816 27.7107C200.572 27.9538 200.329 28.1159 200.086 28.359C199.761 28.6021 199.437 28.8452 199.032 29.0883C198.951 29.1693 198.869 29.1693 198.707 29.2504C198.383 29.4124 198.058 29.5745 197.734 29.7366C197.41 29.8987 197.085 29.9797 196.761 30.0607C196.193 30.2228 195.545 30.3849 194.977 30.4659C194.815 30.4659 194.653 30.5469 194.49 30.5469C193.923 30.628 193.274 30.628 192.706 30.628C192.625 30.628 192.544 30.628 192.463 30.628C191.895 30.628 191.247 30.5469 190.679 30.4659C190.598 30.4659 190.598 30.4659 190.517 30.4659C186.3 29.4124 184.759 31.1142 184.11 30.9521L188.246 43.7555C188.408 43.8366 188.652 43.8366 188.814 43.9176C189.219 43.9986 189.706 44.0797 190.111 44.1607H190.192C190.273 44.1607 190.273 44.1607 190.354 44.1607C190.679 44.2418 191.003 44.2417 191.409 44.2417C191.652 44.2417 191.895 44.2417 192.139 44.2417C192.22 44.2417 192.301 44.2417 192.382 44.2417C192.463 44.2417 192.463 44.2417 192.544 44.2417C192.95 44.2417 193.355 44.2418 193.76 44.1607C193.923 44.1607 194.004 44.1607 194.085 44.0797C194.247 44.0797 194.409 43.9986 194.571 43.9986C194.734 43.9986 194.977 43.9176 195.139 43.9176C195.545 43.8366 195.95 43.7555 196.355 43.5935C196.599 43.5124 196.842 43.4314 197.166 43.3504C197.248 43.3504 197.329 43.2693 197.329 43.2693C197.653 43.1073 197.977 42.9452 198.302 42.7831C198.383 42.7021 198.545 42.7021 198.626 42.6211C199.032 42.378 199.356 42.1349 199.68 41.8918C199.68 41.8918 199.761 41.8918 199.761 41.8107C200.005 41.6486 200.248 41.4055 200.41 41.2435L200.491 41.1624C200.654 41.0004 200.816 40.8383 200.978 40.5952C200.978 40.5952 200.978 40.5142 201.059 40.5142C201.221 40.3521 201.302 40.109 201.383 39.9469C201.464 39.8659 201.464 39.7849 201.546 39.7038C201.546 39.7038 201.546 39.7038 201.546 39.6228C201.627 39.5417 201.627 39.3797 201.708 39.2986C201.789 39.1366 201.789 39.0555 201.87 38.8935V38.8124C201.87 38.7314 201.87 38.6504 201.951 38.4883C201.951 38.3262 202.032 38.2452 202.032 38.0831C202.032 38.0021 202.032 37.9211 202.032 37.84L202.356 24.1452C202.356 24.7124 202.275 24.9555 202.275 25.1176Z" fill="white" stroke="black" stroke-width="2" stroke-miterlimit="10" stroke-linejoin="round"/>
<path d="M111.53 29.0073C111.287 28.6832 111.125 28.278 111.125 27.9539L110.8 41.6487C110.8 41.9728 110.882 42.378 111.206 42.7021L120.451 55.1814L120.775 41.4866L111.53 29.0073Z" fill="white" stroke="black" stroke-width="2" stroke-miterlimit="10" stroke-linejoin="round"/>
<path d="M142.752 39.0555C142.509 38.6504 142.184 38.3262 141.779 38.0021C141.698 37.921 141.535 37.84 141.454 37.759C141.211 37.5159 140.887 37.3538 140.562 37.1107C140.4 37.0297 140.238 36.9486 140.157 36.8676C139.832 36.7055 139.427 36.5435 139.103 36.3814C138.94 36.3004 138.859 36.3004 138.697 36.2193C138.616 36.2193 138.616 36.1383 138.535 36.1383C138.048 35.9762 137.562 35.8141 137.075 35.7331H136.994C136.589 35.6521 136.264 35.571 135.859 35.49C135.697 35.49 135.534 35.49 135.453 35.409C135.291 35.409 135.21 35.409 135.048 35.3279C134.886 35.3279 134.805 35.3279 134.642 35.3279C134.237 35.3279 133.831 35.3279 133.426 35.3279H133.345C133.264 35.3279 133.183 35.3279 133.102 35.3279C132.777 35.3279 132.453 35.3279 132.128 35.409C131.966 35.409 131.804 35.49 131.642 35.49C131.48 35.49 131.317 35.571 131.074 35.571C130.912 35.571 130.831 35.571 130.669 35.6521C130.263 35.7331 129.858 35.8141 129.452 35.9762C129.209 36.0573 128.966 36.1383 128.722 36.2193C128.479 36.3004 128.236 36.4624 127.993 36.5435C127.83 36.6245 127.668 36.7055 127.506 36.7866C127.101 37.0297 126.695 37.2728 126.29 37.5159C126.209 37.5159 126.209 37.5969 126.127 37.5969C125.722 37.921 125.398 38.2452 125.154 38.6504L125.073 38.7314L124.992 38.8124C124.749 39.1366 124.587 39.3797 124.424 39.7038C124.424 39.7848 124.343 39.8659 124.343 39.8659C124.1 40.0279 123.776 40.271 123.37 40.4331C123.289 40.5141 123.127 40.5141 122.965 40.5952C122.64 40.7573 122.316 40.9193 121.91 41.0814C121.505 41.1624 121.1 41.3245 120.694 41.3245L120.37 55.0193C120.613 55.0193 120.775 54.9383 120.937 54.9383C121.181 54.8573 121.343 54.8572 121.586 54.7762C121.748 54.6952 121.91 54.6952 122.073 54.6141C122.316 54.5331 122.478 54.4521 122.721 54.29C122.884 54.209 122.965 54.209 123.127 54.1279C123.451 53.9659 123.776 53.7228 124.1 53.5607C124.262 53.1555 124.506 52.7504 124.83 52.3452L124.911 52.2641C125.235 51.94 125.56 51.5348 125.965 51.2107C126.046 51.2107 126.046 51.1297 126.127 51.1297C126.452 50.8866 126.857 50.5624 127.344 50.4004C127.506 50.3193 127.668 50.2383 127.83 50.1572C128.317 49.9141 128.722 49.7521 129.29 49.59C129.858 49.4279 130.344 49.3469 130.912 49.1848C131.074 49.1848 131.236 49.1038 131.48 49.1038C131.966 49.0228 132.453 49.0228 132.939 48.9417C133.02 48.9417 133.102 48.9417 133.183 48.9417C133.75 48.9417 134.318 48.9417 134.805 49.0228C134.967 49.0228 135.048 49.0228 135.21 49.1038C135.697 49.1848 136.264 49.2659 136.751 49.3469H136.832C137.4 49.509 137.886 49.671 138.454 49.8331C138.616 49.9141 138.697 49.9141 138.859 49.9952C139.184 50.1573 139.589 50.3193 139.914 50.4814C140.076 50.5624 140.238 50.6435 140.319 50.7245C140.643 50.8866 140.887 51.1297 141.211 51.2917C141.292 51.3728 141.454 51.4538 141.535 51.5348C141.86 51.859 142.184 52.1831 142.509 52.5883C143.238 53.5607 143.563 54.5331 143.482 55.5055L143.806 41.8107C143.806 41.0004 143.482 40.0279 142.752 39.0555Z" fill="white" stroke="black" stroke-width="2" stroke-miterlimit="10" stroke-linejoin="round"/>
<path d="M195.463 46.7538L195.139 60.4487L174.136 67.8228L174.46 54.128L195.463 46.7538Z" fill="white" stroke="black" stroke-width="2" stroke-miterlimit="10" stroke-linejoin="round"/>
<path d="M139.102 64.5004L138.778 78.1952L125.884 62.4745L126.127 48.7797L139.102 64.5004Z" fill="white" stroke="black" stroke-width="2" stroke-miterlimit="10" stroke-linejoin="round"/>
<path d="M165.134 57.0452L164.81 70.7401L138.778 78.1952L139.103 64.5004L165.134 57.0452Z" fill="white" stroke="black" stroke-width="2" stroke-miterlimit="10" stroke-linejoin="round"/>
<path d="M143.563 42.54C143.563 42.6211 143.563 42.7021 143.482 42.8642C143.482 43.0262 143.401 43.1883 143.32 43.3504C143.238 43.4314 143.238 43.5935 143.157 43.6745C143.076 43.7556 143.076 43.8366 142.995 43.9987C142.914 44.1607 142.752 44.4038 142.671 44.5659C142.509 44.809 142.346 44.9711 142.184 45.1331L142.103 45.2142C141.86 45.4573 141.617 45.6194 141.373 45.8625C141.049 46.1056 140.643 46.3487 140.319 46.5918C140.238 46.6728 140.157 46.6728 139.995 46.7538C139.67 46.9159 139.346 47.078 139.022 47.24C138.697 47.4021 138.373 47.4831 138.048 47.5642C137.562 47.7262 136.994 47.8073 136.426 47.9694C136.264 47.9694 136.102 48.0504 135.94 48.0504C135.453 48.1314 134.967 48.1314 134.561 48.2125C134.48 48.2125 134.399 48.2125 134.318 48.2125C133.75 48.2125 133.264 48.2125 132.696 48.1314C132.534 48.1314 132.453 48.1314 132.291 48.0504C131.723 47.9694 131.236 47.8883 130.669 47.8073L130.344 61.4211C130.669 61.5021 131.074 61.5831 131.399 61.5831C131.561 61.5831 131.723 61.5831 131.885 61.6642C132.047 61.6642 132.128 61.6642 132.291 61.7452C132.372 61.7452 132.534 61.7452 132.615 61.7452C133.021 61.7452 133.426 61.7452 133.831 61.7452H133.913C133.994 61.7452 134.075 61.7452 134.156 61.7452C134.48 61.7452 134.724 61.7452 135.048 61.6642C135.21 61.6642 135.372 61.5831 135.534 61.5831C135.697 61.5831 135.859 61.5021 136.102 61.5021C136.264 61.5021 136.345 61.5021 136.508 61.4211C136.913 61.34 137.319 61.259 137.724 61.0969C137.967 61.0159 138.211 60.9349 138.535 60.8538C138.616 60.8538 138.697 60.7728 138.697 60.7728C139.022 60.6107 139.346 60.4487 139.67 60.2866C139.751 60.2056 139.914 60.2056 139.995 60.1245C140.4 59.8814 140.725 59.6383 141.049 59.3952C141.049 59.3952 141.049 59.3952 141.13 59.3952C141.373 59.2331 141.617 58.99 141.779 58.828L141.86 58.7469C142.022 58.5849 142.184 58.4228 142.265 58.2607C142.265 58.2607 142.265 58.1797 142.346 58.1797C142.509 58.0176 142.59 57.7745 142.671 57.6125C142.752 57.5314 142.752 57.4504 142.833 57.3694C142.833 57.3694 142.833 57.3694 142.833 57.2883C142.914 57.2073 142.914 57.0452 142.995 56.9642C143.076 56.8021 143.076 56.7211 143.157 56.559V56.478C143.157 56.3969 143.157 56.3159 143.238 56.1538C143.238 55.9918 143.32 55.9107 143.32 55.7487C143.32 55.6676 143.32 55.5866 143.32 55.5056L143.644 41.8107C143.563 42.1349 143.563 42.2969 143.563 42.54Z" fill="white" stroke="black" stroke-width="2" stroke-miterlimit="10" stroke-linejoin="round"/>
<path d="M128.885 61.5021C129.29 61.5021 129.614 61.4211 129.939 61.4211C130.101 61.4211 130.263 61.4211 130.344 61.4211L130.669 47.7263C130.588 47.7263 130.507 47.7263 130.344 47.7263C130.263 47.7263 130.263 47.7263 130.182 47.7263C129.858 47.7263 129.533 47.7263 129.128 47.8073C129.047 47.8073 129.047 47.8073 129.047 47.8073C128.722 47.8073 128.317 47.8883 127.993 47.9694H127.911C127.668 48.0504 127.344 48.0504 127.101 48.1314C126.938 48.2125 126.857 48.2125 126.695 48.2935C126.452 48.3745 126.208 48.4556 125.965 48.6176L125.641 62.3125C125.965 62.1504 126.371 61.9883 126.776 61.8263C127.019 61.7452 127.344 61.6642 127.668 61.5831C127.993 61.5021 128.398 61.4211 128.722 61.4211C128.804 61.5021 128.804 61.5021 128.885 61.5021Z" fill="white" stroke="black" stroke-width="2" stroke-miterlimit="10" stroke-linejoin="round"/>
<path d="M131.074 4.45382C136.021 2.9952 141.941 4.37279 144.293 7.61416C145.59 9.39692 145.59 11.2607 144.455 12.9624C144.536 13.8538 144.941 14.9883 146.158 15.7986L164.891 10.0452C166.675 9.47796 168.864 10.0452 169.675 11.1797L179.001 23.74C179.488 23.659 179.893 23.578 180.299 23.4969C181.515 23.0918 182.488 22.4435 183.137 21.9573C183.948 20.4176 185.651 19.1211 188.084 18.3918C192.95 16.8521 198.869 18.3107 201.302 21.5521C203.735 24.7935 201.627 28.6021 196.761 30.1418C194.085 30.9521 191.165 30.8711 188.651 30.1418C187.759 30.1418 186.624 30.3038 185.651 30.5469C185.246 30.709 184.84 30.8711 184.516 31.0331L194.977 45.2142C195.869 46.4297 195.139 47.8073 193.355 48.3745L174.46 54.128C174.703 55.1004 175.839 55.9918 176.731 56.559C179.407 57.0452 181.758 58.2607 183.056 60.0435C185.489 63.2849 183.38 67.0935 178.515 68.6331C173.568 70.0918 167.729 68.7142 165.296 65.4728C164.161 63.8521 163.999 62.1504 164.81 60.6107C164.81 59.8004 164.566 58.4228 163.35 57.5314L141.617 64.1762C139.832 64.7435 137.643 64.1762 136.751 63.0418L126.209 48.7797C126.533 48.6176 126.938 48.4555 127.344 48.2935C128.56 47.8883 130.02 47.8883 130.912 47.8883C133.264 48.4555 135.94 48.3745 138.292 47.6452C143.238 46.1866 145.266 42.2969 142.833 39.0555C140.4 35.8142 134.48 34.4366 129.614 35.8952C126.938 36.7055 125.154 38.2452 124.424 39.9469C123.857 40.3521 123.046 40.8383 121.992 41.1624C121.586 41.2435 121.181 41.4055 120.775 41.4055L111.53 29.0073C110.638 27.7917 111.368 26.4142 113.152 25.8469L134.805 19.2021C134.642 17.9055 133.02 16.8521 131.966 16.2849C129.696 15.7176 127.668 14.5831 126.452 12.9624C124.1 9.8021 126.127 5.99347 131.074 4.45382Z" fill="white" stroke="black" stroke-width="2" stroke-miterlimit="10" stroke-linejoin="round"/>
<path d="M85.9044 29.6555C85.9044 29.7366 85.8233 29.8176 85.8233 29.8986C85.6611 30.2228 85.499 30.628 85.3368 30.9521L85.0124 44.6469C85.1746 44.4849 85.2557 44.2417 85.3368 43.9986C85.4179 43.8366 85.4179 43.7555 85.499 43.5935C85.499 43.5124 85.5801 43.4314 85.5801 43.3504C85.5801 43.2693 85.6612 43.2693 85.6612 43.1883C85.7422 42.9452 85.7422 42.7021 85.8233 42.378C85.8233 42.2969 85.8233 42.2159 85.8233 42.1349L86.1477 28.5211C86.1477 28.9262 86.0666 29.2504 85.9044 29.6555Z" fill="white" stroke="black" stroke-width="2" stroke-miterlimit="10" stroke-linejoin="round"/>
<path d="M72.9293 34.3555C72.3616 34.1935 71.875 34.0314 71.3885 33.8693C71.2263 33.7883 71.0641 33.7073 70.983 33.7073C70.6586 33.5452 70.3342 33.3831 70.0099 33.2211C69.8477 33.14 69.6855 33.059 69.5233 32.978C69.1989 32.8159 68.9556 32.5728 68.7123 32.4107C68.6312 32.3297 68.4691 32.2486 68.388 32.1676C68.0636 31.8435 67.7392 31.5193 67.4148 31.1952C66.685 30.2228 66.3606 29.2504 66.4417 28.278L66.1173 41.9728C66.1173 42.9452 66.4417 43.9176 67.0904 44.89C67.3337 45.2142 67.6581 45.6193 68.0636 45.8624C68.1447 45.9435 68.3069 46.0245 68.388 46.1055C68.6312 46.3486 68.9556 46.5107 69.1989 46.6728C69.3611 46.7538 69.5233 46.8349 69.6855 46.9159C70.0099 47.078 70.3342 47.24 70.6586 47.4021C70.8208 47.4831 70.983 47.5642 71.0641 47.5642C71.1452 47.5642 71.2263 47.6452 71.2263 47.6452C71.6318 47.8073 72.1183 47.9693 72.6049 48.0504C73.578 48.5366 75.1188 49.59 75.3621 50.8055L75.6865 37.1107C75.3621 35.8952 73.9024 34.8417 72.9293 34.3555Z" fill="white" stroke="black" stroke-width="2" stroke-miterlimit="10" stroke-linejoin="round"/>
<path d="M52.4136 59.2332L52.738 45.5383C52.738 45.8625 52.8191 46.2676 53.0624 46.5918L52.738 60.2866C52.4947 59.8814 52.4136 59.5573 52.4136 59.2332Z" fill="white"/>
<path d="M53.0611 46.5918L52.7367 60.2866C52.4934 59.9625 52.3312 59.5573 52.4123 59.2332L52.7367 45.5383C52.6556 45.8625 52.8178 46.2676 53.0611 46.5918Z" fill="white" stroke="black" stroke-width="2" stroke-miterlimit="10" stroke-linejoin="round"/>
<path d="M52.4136 59.2332L52.738 45.5383C52.738 45.8625 52.8191 46.2676 53.0624 46.5918L52.738 60.2866C52.4947 59.8814 52.4136 59.5573 52.4136 59.2332Z" stroke="black" stroke-width="2" stroke-miterlimit="10" stroke-linejoin="round"/>
<path d="M53.061 46.5917L52.7367 60.2866L61.9815 72.7659L62.3058 59.071L53.061 46.5917Z" fill="white" stroke="black" stroke-width="2" stroke-miterlimit="10" stroke-linejoin="round"/>
<path d="M115.098 72.0366L114.774 85.7314L134.561 79.7349L134.886 66.04L115.098 72.0366Z" fill="white" stroke="black" stroke-width="2" stroke-miterlimit="10" stroke-linejoin="round"/>
<path d="M113.963 70.74L114.044 67.0935C114.044 66.1211 113.72 65.1487 113.071 64.1762C112.828 63.7711 112.503 63.4469 112.098 63.1228C112.017 63.0418 111.855 62.9607 111.774 62.8797C111.53 62.6366 111.206 62.4745 110.882 62.2314C110.719 62.1504 110.557 62.0693 110.476 61.9883C110.152 61.8262 109.746 61.6642 109.422 61.5021C109.26 61.4211 109.179 61.4211 109.016 61.34C108.935 61.34 108.935 61.259 108.854 61.259C108.368 61.0969 107.881 60.9349 107.395 60.8538H107.313C106.908 60.7728 106.584 60.6918 106.178 60.6107C106.016 60.6107 105.854 60.6107 105.773 60.5297C105.61 60.5297 105.529 60.5297 105.367 60.4487C105.205 60.4487 105.124 60.4486 104.962 60.3676C104.556 60.3676 104.151 60.3676 103.745 60.3676H103.664C103.583 60.3676 103.502 60.3676 103.421 60.3676C103.096 60.3676 102.772 60.3676 102.448 60.4487C102.286 60.4487 102.123 60.5297 101.961 60.5297C101.799 60.5297 101.637 60.6107 101.393 60.6107C101.231 60.6107 101.15 60.6107 100.988 60.6918C100.583 60.7728 100.177 60.8538 99.7716 61.0159C99.5283 61.0969 99.285 61.178 98.9607 61.259C98.8796 61.259 98.8796 61.34 98.7985 61.34C98.4741 61.5021 98.0686 61.6642 97.7442 61.8262C97.6631 61.9073 97.582 61.9073 97.5009 61.9883C97.0955 62.2314 96.7711 62.4745 96.4467 62.7176H96.3656C96.1223 62.8797 95.8791 63.1228 95.7169 63.2849L95.6358 63.3659C95.4736 63.528 95.3114 63.69 95.1492 63.9331C95.1492 63.9331 95.1492 64.0142 95.0681 64.0142C94.9059 64.1762 94.8248 64.4193 94.7437 64.5814C94.6626 64.6624 94.6626 64.7435 94.5815 64.8245C94.5815 64.8245 94.5815 64.8245 94.5815 64.9055C94.5004 64.9866 94.5004 65.1486 94.4193 65.2297C94.3382 65.3918 94.3382 65.4728 94.2572 65.6349V65.7159C94.2572 65.7969 94.2572 65.878 94.1761 66.04C94.1761 66.2021 94.095 66.2831 94.095 66.4452C94.095 66.5262 94.095 66.6073 94.095 66.6883L93.7706 80.3831C93.7706 80.14 93.8517 79.978 93.8517 79.7348C93.8517 79.6538 93.8517 79.5728 93.9328 79.4107C94.0139 79.2486 94.0139 79.0866 94.095 78.9245C94.1761 78.8435 94.1761 78.6814 94.2572 78.6004C94.3382 78.5193 94.3382 78.4383 94.4193 78.3573C94.5004 78.1952 94.6626 77.9521 94.7437 77.79C94.9059 77.5469 95.0681 77.3849 95.2303 77.1417L95.3114 77.0607C95.5547 76.8176 95.798 76.6555 96.0412 76.4124C96.3656 76.1693 96.7711 75.9262 97.0955 75.6831C97.1766 75.6021 97.2577 75.6021 97.3388 75.5211C97.6631 75.359 97.9875 75.1969 98.393 75.0349C98.7174 74.8728 99.0417 74.7917 99.3661 74.7107C99.9338 74.5486 100.42 74.4676 100.988 74.3055C101.15 74.3055 101.312 74.2245 101.475 74.2245C101.961 74.1435 103.989 73.4952 105.935 73.8193C113.071 75.1159 112.26 82.8142 112.26 82.8142C112.422 83.9486 113.233 84.759 114.45 85.7314L114.774 72.0366C114.531 71.7124 114.206 71.2262 113.963 70.74Z" fill="white" stroke="black" stroke-width="2" stroke-miterlimit="10" stroke-linejoin="round"/>
<path d="M67.8203 66.5262L79.7412 82.2469L79.4979 96.2659L67.4959 80.2211" fill="white"/>
<path d="M67.8203 66.5262L79.7412 82.2469L79.4979 96.2659L67.4959 80.2211" stroke="black" stroke-width="2" stroke-miterlimit="10" stroke-linejoin="round"/>
<path d="M103.907 75.5211L103.664 89.1348L79.6601 96.2659L79.9034 82.2469L103.907 75.5211Z" fill="white" stroke="black" stroke-width="2" stroke-miterlimit="10" stroke-linejoin="round"/>
<path d="M71.9561 22.4435C76.8218 20.9849 82.8228 22.3625 85.1746 25.6038C86.4721 27.3866 86.391 29.2504 85.3368 30.9521C85.4179 31.7625 85.7422 32.897 86.8776 33.6263L106.421 27.6297C108.205 27.0625 110.395 27.6297 111.206 28.7642L120.532 41.3245C120.937 41.2435 121.424 41.1625 121.748 41.0814C122.721 40.7573 123.532 40.2711 124.181 39.8659C124.911 38.1642 126.695 36.6245 129.371 35.8142C134.318 34.3556 140.238 35.7332 142.59 38.9745C144.941 42.2159 142.914 46.0245 138.048 47.5642C135.616 48.2935 133.021 48.2935 130.669 47.8073C129.777 47.8073 128.317 47.8883 127.101 48.2125C126.695 48.2935 126.371 48.4556 125.965 48.6987L136.508 62.9608C137.4 64.0952 136.67 65.5539 134.886 66.1211L115.099 72.1987C113.801 71.3073 113.639 69.9297 113.558 69.1194C113.477 67.1745 114.207 65.878 113.071 64.2573C110.719 61.0159 104.8 59.6383 99.8527 61.097C94.987 62.5556 92.8786 66.4452 95.3114 69.6866C96.6089 71.4694 98.9607 72.6039 101.637 73.1711C102.61 73.7383 103.664 74.6297 103.989 75.6021L83.1472 81.9228C81.3631 82.4901 79.1736 81.9228 78.3626 80.7883L67.8203 66.5263C67.2526 66.5263 66.685 66.6883 66.1984 66.8504C64.982 67.2556 64.0088 67.9039 63.4412 68.309C62.6302 69.8487 60.9272 71.1452 58.4944 71.8745C53.6287 73.3332 47.7088 71.9556 45.2759 68.7142C42.8431 65.4728 44.9516 61.6642 49.8172 60.1245C52.4934 59.3142 55.4128 59.3952 57.9267 60.1245C58.8188 60.1245 59.873 59.9625 60.9272 59.7194C61.4138 59.5573 61.9004 59.3952 62.3058 59.0711L53.061 46.5918C52.169 45.4573 52.8988 43.9987 54.6829 43.4314L75.6865 37.0297C75.3621 35.8142 73.9024 34.8418 72.9293 34.2745C70.5775 33.7073 68.5501 32.5728 67.4148 30.9521C64.982 27.7918 67.0093 23.9832 71.9561 22.4435Z" fill="white" stroke="black" stroke-width="2" stroke-miterlimit="10" stroke-linejoin="round"/>
<path d="M164.728 64.5004V61.8262L164.647 64.4193C164.728 64.4193 164.728 64.5004 164.728 64.5004Z" fill="white" stroke="black" stroke-width="2" stroke-miterlimit="10" stroke-linejoin="round"/>
<path d="M164.81 60.6107C164.81 60.5297 164.81 60.4486 164.81 60.2866V61.7452V60.6107Z" fill="white" stroke="black" stroke-width="2" stroke-miterlimit="10" stroke-linejoin="round"/>
<path d="M184.029 63.6089C184.029 63.69 184.029 63.8521 183.948 63.9331C183.867 64.0952 183.867 64.2572 183.786 64.4193C183.705 64.5003 183.705 64.6624 183.624 64.7434C183.542 64.8245 183.542 64.9055 183.461 65.0676C183.38 65.2296 183.218 65.4727 183.137 65.6348C182.975 65.8779 182.813 66.04 182.65 66.2831C182.65 66.2831 182.65 66.3641 182.569 66.3641C182.326 66.6072 182.083 66.7693 181.84 67.0124C181.515 67.2555 181.11 67.4986 180.785 67.7417C180.704 67.8227 180.623 67.8227 180.461 67.9038C180.137 68.0659 179.812 68.2279 179.488 68.39C179.163 68.5521 178.839 68.6331 178.515 68.7141C177.947 68.8762 177.46 68.9572 176.893 69.1193C176.731 69.1193 176.568 69.2003 176.406 69.2003C175.92 69.2814 175.433 69.2814 174.865 69.3624C174.784 69.3624 174.784 69.3624 174.703 69.3624C174.136 69.3624 173.568 69.3624 173 69.2814C172.838 69.2814 172.757 69.2814 172.595 69.2814C172.027 69.2003 171.54 69.1193 171.054 69.0383H170.973C170.405 68.8762 169.919 68.7141 169.351 68.5521C169.189 68.471 169.108 68.471 168.945 68.39C168.621 68.2279 168.216 68.0659 167.891 67.9038C167.729 67.8227 167.567 67.7417 167.486 67.6607C167.161 67.4986 166.918 67.2555 166.594 67.0124C166.513 66.9314 166.35 66.8503 166.269 66.7693C165.945 66.4452 165.539 66.121 165.296 65.7159C165.053 65.3917 164.566 64.1762 164.485 63.8521C164.485 63.8521 164.485 77.2228 164.485 78.1141C164.485 79.0055 165.621 80.14 165.945 80.4641C166.026 80.5452 166.188 80.6262 166.269 80.7072C166.513 80.9503 166.837 81.1124 167.161 81.2745C167.324 81.3555 167.486 81.4366 167.567 81.5176C167.891 81.6797 168.297 81.8417 168.621 82.0038C168.783 82.0848 168.864 82.0848 169.027 82.1659C169.108 82.1659 169.108 82.2469 169.189 82.2469C169.675 82.409 170.162 82.571 170.648 82.6521H170.73C171.135 82.7331 171.459 82.8141 171.865 82.8952C172.027 82.8952 172.189 82.8952 172.27 82.9762C172.433 82.9762 172.514 82.9762 172.676 82.9762C172.838 82.9762 172.919 82.9762 173.081 83.0572C173.487 83.0572 173.892 83.0572 174.298 83.0572H174.379C174.46 83.0572 174.541 83.0572 174.622 83.0572C174.946 83.0572 175.271 83.0572 175.595 82.9762C175.757 82.9762 175.92 82.8952 176.082 82.8952C176.244 82.8952 176.406 82.8141 176.568 82.8141C176.731 82.8141 176.812 82.8141 176.974 82.7331C177.379 82.6521 177.785 82.571 178.19 82.409C178.434 82.3279 178.677 82.2469 179.001 82.1659C179.082 82.1659 179.082 82.0848 179.163 82.0848C179.488 81.9228 179.893 81.7607 180.218 81.5986C180.299 81.5176 180.38 81.5176 180.461 81.4365C180.866 81.1934 181.191 80.9503 181.515 80.7072C181.515 80.7072 181.515 80.7072 181.596 80.7072C181.84 80.5452 182.083 80.3021 182.245 80.14L182.326 80.059C182.488 79.8969 182.65 79.7348 182.813 79.5728C182.813 79.5728 182.813 79.4917 182.894 79.4917C183.056 79.3297 183.137 79.0865 183.218 78.9245C183.299 78.8434 183.299 78.7624 183.38 78.6814C183.38 78.6814 183.38 78.6814 183.38 78.6003C183.461 78.5193 183.461 78.3572 183.543 78.2762C183.624 78.1141 183.624 78.0331 183.705 77.871V77.79C183.705 77.709 183.705 77.6279 183.786 77.4659C183.786 77.3038 183.867 77.2228 183.867 77.0607C183.867 76.9797 183.867 76.8986 183.867 76.8176L184.191 63.1227C184.029 63.1227 184.029 63.3658 184.029 63.6089Z" fill="white" stroke="black" stroke-width="2" stroke-miterlimit="10" stroke-linejoin="round"/>
<path d="M67.8203 66.7294C65.3063 66.7294 63.0357 69.1604 62.7113 69.4845C62.6302 69.5656 62.6302 69.5656 62.5491 69.6466C62.3058 69.8897 61.9814 70.2139 61.6571 70.457C61.4949 70.619 61.3327 70.7001 61.1705 70.7811C60.9272 70.9432 60.6839 71.1052 60.3595 71.2673C60.1163 71.3483 59.9541 71.4294 59.7108 71.5914C59.3053 71.7535 58.8998 71.9156 58.4944 72.0776C57.9267 72.2397 57.4401 72.3208 56.8725 72.4828C56.7103 72.4828 56.5481 72.5639 56.3048 72.5639C55.8182 72.6449 55.3317 72.6449 54.8451 72.7259C54.764 72.7259 54.6829 72.7259 54.6829 72.7259C54.1152 72.7259 53.5476 72.7259 52.9799 72.6449C52.8177 72.6449 52.7366 72.6449 52.5744 72.6449C52.0068 72.5639 51.5202 72.4828 50.9525 72.4018H50.8714C50.3038 72.2397 49.8172 72.0776 49.2496 71.9156C49.0874 71.8345 49.0063 71.8345 48.8441 71.7535C48.5197 71.5914 48.1142 71.4294 47.7898 71.2673C47.6277 71.1863 47.4655 71.1052 47.3844 71.0242C47.06 70.8621 46.8167 70.619 46.4923 70.457C46.4112 70.3759 46.249 70.2949 46.168 70.2139C45.9247 69.6466 45.6003 69.2414 45.2759 68.9173C44.5461 67.9449 44.2217 66.9725 44.3028 66.0001L43.9784 79.6139C43.9784 80.5863 44.3028 81.5587 44.9515 82.5311C45.1948 82.9363 45.5192 83.2604 45.9247 83.5845C46.0058 83.6656 46.168 83.7466 46.249 83.8277C46.4923 84.0708 46.8167 84.2328 47.1411 84.3949C47.3033 84.4759 47.4655 84.557 47.5466 84.638C47.8709 84.8001 48.1953 84.9621 48.6008 85.1242C48.763 85.2052 48.8441 85.2052 49.0063 85.2863C49.0874 85.2863 49.0874 85.3673 49.1685 85.3673C49.655 85.5294 50.1416 85.6914 50.6282 85.7725H50.7093C51.1147 85.8535 51.4391 85.9345 51.8446 86.0156C52.0068 86.0156 52.0879 86.0156 52.2501 86.0966C52.4123 86.0966 52.4933 86.0966 52.6555 86.1777C52.8177 86.1777 52.8988 86.1777 53.061 86.2587C53.4665 86.2587 53.872 86.2587 54.2774 86.2587H54.3585C54.4396 86.2587 54.5207 86.2587 54.6018 86.2587C54.9262 86.2587 55.2506 86.2587 55.5749 86.1777C55.7371 86.1777 55.8993 86.0966 56.0615 86.0966C56.2237 86.0966 56.3859 86.0156 56.6292 86.0156C56.7914 86.0156 56.8725 86.0156 57.0347 85.9345C57.4401 85.8535 57.8456 85.7725 58.2511 85.6104C58.4944 85.5294 58.7376 85.4483 58.9809 85.3673C59.1431 85.2863 59.3053 85.2052 59.4675 85.1242C59.7108 85.0432 59.9541 84.9621 60.1163 84.8001C60.3595 84.638 60.6028 84.4759 60.8461 84.3139C61.0083 84.2328 61.2516 84.0708 61.4138 83.9897C61.4949 83.9087 61.576 83.9087 61.576 83.8277C61.8192 83.5845 62.0625 83.4225 62.3058 83.1794C62.3869 83.0983 62.3869 83.0983 62.468 83.0173C62.5491 82.8552 62.7113 82.7742 62.7924 82.6121C62.9546 82.4501 63.0357 82.207 63.1979 81.9639L67.4999 80.2032" fill="white"/>
<path d="M67.8203 66.7294C65.3063 66.7294 63.0357 69.1604 62.7113 69.4845C62.6302 69.5656 62.6302 69.5656 62.5491 69.6466C62.3058 69.8897 61.9814 70.2139 61.6571 70.457C61.4949 70.619 61.3327 70.7001 61.1705 70.7811C60.9272 70.9432 60.6839 71.1052 60.3595 71.2673C60.1163 71.3483 59.9541 71.4294 59.7108 71.5914C59.3053 71.7535 58.8998 71.9156 58.4944 72.0776C57.9267 72.2397 57.4401 72.3208 56.8725 72.4828C56.7103 72.4828 56.5481 72.5639 56.3048 72.5639C55.8182 72.6449 55.3317 72.6449 54.8451 72.7259C54.764 72.7259 54.6829 72.7259 54.6829 72.7259C54.1152 72.7259 53.5476 72.7259 52.9799 72.6449C52.8177 72.6449 52.7366 72.6449 52.5744 72.6449C52.0068 72.5639 51.5202 72.4828 50.9525 72.4018H50.8714C50.3038 72.2397 49.8172 72.0776 49.2496 71.9156C49.0874 71.8345 49.0063 71.8345 48.8441 71.7535C48.5197 71.5914 48.1142 71.4294 47.7898 71.2673C47.6277 71.1863 47.4655 71.1052 47.3844 71.0242C47.06 70.8621 46.8167 70.619 46.4923 70.457C46.4112 70.3759 46.249 70.2949 46.168 70.2139C45.9247 69.6466 45.6003 69.2414 45.2759 68.9173C44.5461 67.9449 44.2217 66.9725 44.3028 66.0001L43.9784 79.6139C43.9784 80.5863 44.3028 81.5587 44.9515 82.5311C45.1948 82.9363 45.5192 83.2604 45.9247 83.5845C46.0058 83.6656 46.168 83.7466 46.249 83.8277C46.4923 84.0708 46.8167 84.2328 47.1411 84.3949C47.3033 84.4759 47.4655 84.557 47.5466 84.638C47.8709 84.8001 48.1953 84.9621 48.6008 85.1242C48.763 85.2052 48.8441 85.2052 49.0063 85.2863C49.0874 85.2863 49.0874 85.3673 49.1685 85.3673C49.655 85.5294 50.1416 85.6914 50.6282 85.7725H50.7093C51.1147 85.8535 51.4391 85.9345 51.8446 86.0156C52.0068 86.0156 52.0879 86.0156 52.2501 86.0966C52.4123 86.0966 52.4933 86.0966 52.6555 86.1777C52.8177 86.1777 52.8988 86.1777 53.061 86.2587C53.4665 86.2587 53.872 86.2587 54.2774 86.2587H54.3585C54.4396 86.2587 54.5207 86.2587 54.6018 86.2587C54.9262 86.2587 55.2506 86.2587 55.5749 86.1777C55.7371 86.1777 55.8993 86.0966 56.0615 86.0966C56.2237 86.0966 56.3859 86.0156 56.6292 86.0156C56.7914 86.0156 56.8725 86.0156 57.0347 85.9345C57.4401 85.8535 57.8456 85.7725 58.2511 85.6104C58.4944 85.5294 58.7376 85.4483 58.9809 85.3673C59.1431 85.2863 59.3053 85.2052 59.4675 85.1242C59.7108 85.0432 59.9541 84.9621 60.1163 84.8001C60.3595 84.638 60.6028 84.4759 60.8461 84.3139C61.0083 84.2328 61.2516 84.0708 61.4138 83.9897C61.4949 83.9087 61.576 83.9087 61.576 83.8277C61.8192 83.5845 62.0625 83.4225 62.3058 83.1794C62.3869 83.0983 62.3869 83.0983 62.468 83.0173C62.5491 82.8552 62.7113 82.7742 62.7924 82.6121C62.9546 82.4501 63.0357 82.207 63.1979 81.9639L67.4999 80.2032V80.7032" stroke="black" stroke-width="2" stroke-miterlimit="10" stroke-linejoin="round"/>
</g>
<defs>
<linearGradient id="paint0_linear" x1="10.4995" y1="-8.56673e-07" x2="176.999" y2="83" gradientUnits="userSpaceOnUse">
<stop stop-color="#AF93EB"/>
<stop offset="1" stop-color="#905ED0"/>
</linearGradient>
<clipPath id="clip0">
<rect width="160" height="94" fill="white" transform="translate(43.1674 3.07623)"/>
</clipPath>
</defs>
</svg>
