<svg xmlns="http://www.w3.org/2000/svg" width="207" height="130" viewBox="0 0 207 130">
    <defs>
        <path id="a" d="M0 89h186V0H0z"/>
        <filter id="b" width="220%" height="220%" x="-60%" y="-47.3%" filterUnits="objectBoundingBox">
            <feOffset dy="7" in="SourceAlpha" result="shadowOffsetOuter1"/>
            <feGaussianBlur in="shadowOffsetOuter1" result="shadowBlurOuter1" stdDeviation="9.5"/>
            <feColorMatrix in="shadowBlurOuter1" result="shadowMatrixOuter1" values="0 0 0 0 0.42745098 0 0 0 0 0.4 0 0 0 0 0.525490196 0 0 0 0.22155231 0"/>
            <feMerge>
                <feMergeNode in="shadowMatrixOuter1"/>
                <feMergeNode in="SourceGraphic"/>
            </feMerge>
        </filter>
    </defs>
    <g fill="none" fill-rule="evenodd">
        <path fill="#FFF" d="M143.877 3.807V25H8.609c-1.036 0-1.876.866-1.876 1.934v30.944c0 1.068.84 1.934 1.876 1.934h135.268v21.273c0 .782.458 1.486 1.156 1.788.7.297 1.506.135 2.043-.418l37.531-38.583a1.981 1.981 0 0 0 .003-2.738L147.08 2.438a1.829 1.829 0 0 0-2.044-.418 1.938 1.938 0 0 0-1.16 1.786z"/>
        <path stroke="#000" stroke-linejoin="round" stroke-width="1.325" d="M145.036 2.021a1.938 1.938 0 0 0-1.16 1.786V25H8.61c-1.036 0-1.876.866-1.876 1.934v30.944c0 1.068.84 1.934 1.876 1.934h135.268v21.273c0 .782.458 1.486 1.156 1.788.7.297 1.506.135 2.043-.418l37.531-38.583a1.981 1.981 0 0 0 .003-2.738L147.08 2.438a1.829 1.829 0 0 0-2.044-.418z"/>
        <path fill="#FFF" d="M12.149 32.106l-10.716-.728 5.103-5.954a.737.737 0 0 1 .56-.259l8.128-.161"/>
        <path stroke="#000" stroke-linejoin="round" stroke-width="1.325" d="M12.149 32.106l-10.716-.728 5.103-5.954a.737.737 0 0 1 .56-.259l8.128-.161"/>
        <path fill="#FFF" d="M146.69 2.017c-.918-.73-1.89-.228-2.026-.07l-5.848 6.547 5.689 3.799"/>
        <path stroke="#000" stroke-linejoin="round" stroke-width="1.325" d="M146.69 2.017c-.918-.73-1.89-.228-2.026-.07l-5.848 6.547 5.689 3.799"/>
        <path fill="#D9D9F8" d="M137.985 9.915v21.193H2.717c-1.035 0-1.875.866-1.875 1.934v30.944c0 1.068.84 1.933 1.875 1.933h135.268v21.273c0 .783.459 1.487 1.156 1.789.7.297 1.507.135 2.044-.418l37.531-38.583a1.96 1.96 0 0 0 .551-1.369c0-.514-.198-1.007-.548-1.37L141.188 8.547a1.829 1.829 0 0 0-2.044-.418 1.938 1.938 0 0 0-1.159 1.786z"/>
        <path stroke="#000" stroke-linejoin="round" stroke-width="1.325" d="M139.144 8.13a1.938 1.938 0 0 0-1.159 1.785v21.193H2.717c-1.035 0-1.875.866-1.875 1.934v30.944c0 1.068.84 1.933 1.875 1.933h135.268v21.273c0 .783.459 1.487 1.156 1.789.7.297 1.507.135 2.044-.418l37.531-38.583a1.96 1.96 0 0 0 .551-1.369c0-.514-.198-1.007-.548-1.37L141.188 8.547a1.829 1.829 0 0 0-2.044-.418z"/>
        <path fill="#FFF" d="M25.94 56V39.2h4.176c2.64 0 3.936 1.464 3.936 4.152v8.496c0 2.688-1.296 4.152-3.936 4.152H25.94zm4.128-14.4H28.58v12h1.488c.84 0 1.344-.432 1.344-1.632v-8.736c0-1.2-.504-1.632-1.344-1.632zM39.587 56V39.2h2.64V56h-2.64zm8.079-12.768c0-2.688 1.32-4.224 3.888-4.224 2.568 0 3.888 1.536 3.888 4.224v.528h-2.496v-.696c0-1.2-.48-1.656-1.32-1.656-.84 0-1.32.456-1.32 1.656 0 3.456 5.16 4.104 5.16 8.904 0 2.688-1.344 4.224-3.936 4.224-2.592 0-3.936-1.536-3.936-4.224v-1.032h2.496v1.2c0 1.2.528 1.632 1.368 1.632.84 0 1.368-.432 1.368-1.632 0-3.456-5.16-4.104-5.16-8.904zm18.327 6.504h2.496v2.232c0 2.688-1.344 4.224-3.936 4.224-2.592 0-3.936-1.536-3.936-4.224v-8.736c0-2.688 1.344-4.224 3.936-4.224 2.592 0 3.936 1.536 3.936 4.224v1.632h-2.496v-1.8c0-1.2-.528-1.656-1.368-1.656-.84 0-1.368.456-1.368 1.656v9.072c0 1.2.528 1.632 1.368 1.632.84 0 1.368-.432 1.368-1.632v-2.4zm10.383-6.672v9.072c0 1.2.528 1.656 1.368 1.656.84 0 1.368-.456 1.368-1.656v-9.072c0-1.2-.528-1.656-1.368-1.656-.84 0-1.368.456-1.368 1.656zm-2.64 8.904v-8.736c0-2.688 1.416-4.224 4.008-4.224s4.008 1.536 4.008 4.224v8.736c0 2.688-1.416 4.224-4.008 4.224s-4.008-1.536-4.008-4.224zM89.255 39.2l2.016 13.704L93.287 39.2h2.424L93.119 56h-3.936l-2.592-16.8h2.664zm14.175 2.4v4.68h3.624v2.4h-3.624v4.92h4.56V56h-7.2V39.2h7.2v2.4h-4.56zM121.685 56h-2.688c-.144-.432-.24-.696-.24-2.064v-2.64c0-1.56-.528-2.136-1.728-2.136h-.912V56h-2.64V39.2h3.984c2.736 0 3.912 1.272 3.912 3.864v1.32c0 1.728-.552 2.856-1.728 3.408 1.32.552 1.752 1.824 1.752 3.576v2.592c0 .816.024 1.416.288 2.04zm-4.296-14.4h-1.272v5.16h1.032c.984 0 1.584-.432 1.584-1.776v-1.656c0-1.2-.408-1.728-1.344-1.728z"/>
        <g filter="url(#b)" transform="translate(133 50)">
            <path fill="#FFF" d="M53.983 54.22l.237-.238a2.663 2.663 0 0 0 0-3.765L24.783 20.78a2.662 2.662 0 0 0-3.766 0l-.237.238a2.663 2.663 0 0 0 0 3.765L50.218 54.22a2.661 2.661 0 0 0 3.765 0"/>
            <path stroke="#000" stroke-width="1.405" d="M53.983 54.22l.237-.238a2.663 2.663 0 0 0 0-3.765L24.783 20.78a2.662 2.662 0 0 0-3.766 0l-.237.238a2.663 2.663 0 0 0 0 3.765L50.218 54.22a2.661 2.661 0 0 0 3.765 0z"/>
            <path fill="#FFF" d="M42 21c0 11.597-9.402 21-21 21S0 32.597 0 21 9.402 0 21 0s21 9.403 21 21"/>
            <path stroke="#000" stroke-width="1.5" d="M42 21c0 11.597-9.402 21-21 21S0 32.597 0 21 9.402 0 21 0s21 9.403 21 21z"/>
            <path fill="#FFF" d="M38 21c0 9.389-7.611 17-17 17S4 30.389 4 21 11.611 4 21 4s17 7.611 17 17"/>
            <path stroke="#000" stroke-width="1.21" d="M38 21c0 9.389-7.611 17-17 17S4 30.389 4 21 11.611 4 21 4s17 7.611 17 17z"/>
        </g>
    </g>
</svg>
