<svg xmlns="http://www.w3.org/2000/svg" xmlns:xlink="http://www.w3.org/1999/xlink" width="138" height="61" viewBox="0 0 138 61">
    <defs>
        <rect id="a" width="126" height="54" x="12" y="7" rx="7"/>
        <mask id="b" width="126" height="54" x="0" y="0" fill="#fff">
            <use xlink:href="#a"/>
        </mask>
    </defs>
    <g fill="none" fill-rule="evenodd">
        <use fill="#6D54D7" fill-opacity=".057" stroke="#000" stroke-dasharray="8" stroke-width="2" mask="url(#b)" xlink:href="#a"/>
        <path fill="#FFF" d="M7 0h112a7 7 0 0 1 7 7v40a7 7 0 0 1-7 7H7a7 7 0 0 1-7-7V7a7 7 0 0 1 7-7z"/>
        <path fill="#092E20" d="M126.022 46.998a7 7 0 0 1-7 7H7a7 7 0 0 1-7-7V7a7 7 0 0 1 7-7h112.022a7 7 0 0 1 7 7v39.998z"/>
        <g fill="#FFF">
            <path fill-rule="nonzero" d="M21.736 8.48h5.968v27.624c-3.061.581-5.309.814-7.75.814-7.286 0-11.084-3.294-11.084-9.611 0-6.084 4.031-10.037 10.27-10.037.969 0 1.705.078 2.596.31v-9.1zm0 13.905c-.697-.233-1.279-.31-2.015-.31-3.023 0-4.767 1.86-4.767 5.115 0 3.178 1.667 4.922 4.728 4.922.659 0 1.202-.039 2.054-.155v-9.572z"/>
            <path fill-rule="nonzero" d="M37.198 17.696V31.53c0 4.766-.349 7.053-1.395 9.03-.969 1.898-2.248 3.099-4.883 4.417l-5.542-2.636c2.636-1.24 3.915-2.324 4.728-3.991.853-1.705 1.124-3.682 1.124-8.874V17.696h5.968zM31.23 8.51h5.968v6.124H31.23V8.512zM40.803 19.052c2.636-1.24 5.154-1.782 7.906-1.782 3.061 0 5.076.814 5.968 2.403.503.89.658 2.053.658 4.534v12.129c-2.674.388-6.045.659-8.525.659-5 0-7.247-1.744-7.247-5.619 0-4.186 2.984-6.123 10.308-6.744v-1.317c0-1.085-.542-1.473-2.054-1.473-2.209 0-4.689.62-7.014 1.822v-4.612zm9.34 9.495c-3.953.388-5.232 1.008-5.232 2.558 0 1.162.736 1.705 2.364 1.705.891 0 1.705-.078 2.867-.271v-3.992z"/>
            <path d="M58.242 18.626c3.526-.93 6.433-1.356 9.378-1.356 3.062 0 5.27.697 6.589 2.054 1.24 1.278 1.627 2.673 1.627 5.658v11.703h-5.968V25.214c0-2.286-.775-3.14-2.906-3.14-.814 0-1.55.078-2.752.427v14.184h-5.968V18.626z"/>
            <path fill-rule="nonzero" d="M78.156 39.94c2.093 1.085 4.185 1.589 6.394 1.589 3.914 0 5.58-1.589 5.58-5.387v-.116c-1.162.581-2.325.814-3.875.814-5.231 0-8.565-3.45-8.565-8.913 0-6.782 4.922-10.618 13.641-10.618 2.558 0 4.922.27 7.79.851l-2.043 4.306c-1.59-.31-.128-.042-1.329-.158v.62l.078 2.518.038 3.256c.039.813.039 1.627.078 2.44v1.629c0 5.115-.426 7.518-1.705 9.494-1.86 2.907-5.077 4.34-9.65 4.34-2.325 0-4.34-.348-6.432-1.162V39.94zm11.858-17.826h-.62c-1.162-.039-2.518.27-3.449.852-1.433.814-2.17 2.287-2.17 4.38 0 2.984 1.473 4.689 4.108 4.689.814 0 1.473-.155 2.248-.388v-2.054c0-.697-.039-1.473-.039-2.286l-.038-2.752-.04-1.976v-.465zM108.386 17.193c5.968 0 9.61 3.759 9.61 9.842 0 6.24-3.797 10.154-9.843 10.154-5.968 0-9.65-3.76-9.65-9.804 0-6.279 3.799-10.192 9.883-10.192zm-.117 15.19c2.287 0 3.643-1.899 3.643-5.193 0-3.255-1.318-5.193-3.604-5.193-2.364 0-3.72 1.9-3.72 5.193 0 3.295 1.356 5.193 3.681 5.193z"/>
        </g>
    </g>
</svg>
