<svg xmlns="http://www.w3.org/2000/svg" width="126" height="89" viewBox="0 0 126 89">
  <g fill="none" fill-rule="evenodd">
    <path fill="#7B62E3" fill-opacity=".083" stroke="#000" stroke-dasharray="8" stroke-linecap="round" stroke-linejoin="round" d="M0.705882353,38.3193277 C0.705882353,45.3221289 1.05602241,50.2240896 1.75630252,53.0252101 C2.80672269,57.2268908 8.05882353,77.1848739 35.3697479,77.1848739 C62.6806723,77.1848739 77.3865546,65.6302521 83.6890756,57.7521008 C87.8907563,52.5 90.6918768,47.0728291 92.092437,41.4705882 C99.0952381,40.7703081 103.647059,39.719888 105.747899,38.3193277 C107.848739,36.9187675 109.59944,34.8179272 111,32.0168067 C108.89916,29.9159664 106.798319,28.5154062 104.697479,27.8151261 C102.596639,27.1148459 99.7955182,27.1148459 96.2941176,27.8151261 C94.8935574,23.6134454 93.4929972,20.8123249 92.092437,19.4117647 C90.6918768,18.0112045 88.9411765,16.9607843 86.8403361,16.2605042 C85.4397759,18.3613445 84.3893557,20.4621849 83.6890756,22.5630252 C82.6386555,25.7142857 82.6386555,35.1680672 83.6890756,35.1680672 C84.3893557,35.1680672 82.2885154,36.2184874 77.3865546,38.3193277 L77.3865546,25.7142857 L63.6907512,25.7142857 L63.6907512,0.504169404 L47.9747899,0.504169404 L47.9747899,13.1529354 L20.6638306,13.1529354 L20.6638306,25.7581319 L6.97135514,25.7581319 L6.97135514,37.4657586 L0.705882353,37.4657586 L0.705882353,38.3193277 Z" transform="translate(15 11)"/>
    <path fill="#364548" fill-rule="nonzero" d="M67.6827286,24.7798768 L80.0078795,24.7798768 L80.0078795,37.4456168 L86.2394491,37.4456168 C89.1177971,37.4456168 92.0775366,36.9303176 94.802804,36.0021288 C96.1422599,35.5453494 97.6450379,34.9103014 98.9661673,34.1110729 C97.2262221,31.8277177 96.3379229,28.9445347 96.0770389,26.1025323 C95.721288,22.2364337 96.4974718,17.2048161 99.0998434,14.1791266 L100.395639,12.672784 L101.939382,13.9206642 C105.82623,17.0596003 109.095365,21.4464166 109.671574,26.4471488 C114.351854,25.0632643 119.847127,25.3905416 123.97222,27.7838923 L125.664732,28.7657242 L124.774277,30.5137318 C121.285223,37.358379 113.990713,39.4791792 106.859525,39.1036773 C96.1886153,65.821751 72.9564659,78.4706936 44.7880034,78.4706936 C30.2345584,78.4706936 16.8831201,73.0018032 9.27975356,60.0223322 L9.15524075,59.8110107 L8.04756187,57.5449947 C5.47753128,51.83173 4.62372917,45.5728225 5.20263287,39.3187917 L5.3767352,37.4456168 L15.9166635,37.4456168 L15.9166635,24.7798768 L28.2412754,24.7798768 L28.2412754,12.3899384 L52.8921163,12.3899384 L52.8921163,0 L67.6827286,0 L67.6827286,24.7798768 Z"/>
    <path fill="#22A0C8" d="M107.689434,29.4911591 C108.518392,23.0681056 103.696593,18.0233459 100.706288,15.627907 C97.2601368,19.5994627 96.7248019,30.0080867 102.131144,34.3903815 C99.1138015,37.0618025 92.7562941,39.4831147 86.2462974,39.4831147 L7.00321499,39.4831147 C6.37054648,46.2570752 7.56342403,52.4952422 10.2882245,57.8343111 L11.189642,59.4783454 C11.7604024,60.4433059 12.3841039,61.3761616 13.0579067,62.2726648 C16.3158791,62.4812685 19.3197027,62.5529592 22.0677551,62.4925881 L22.0688366,62.4925881 C27.4692301,62.374002 31.8757392,61.7379493 35.2153637,60.5844302 C35.7061709,60.4322444 36.2295633,60.6958004 36.3979199,61.1799102 C36.5662766,61.6640201 36.3188309,62.1939495 35.8388396,62.3772361 C35.3943494,62.5313981 34.931474,62.6747794 34.4534578,62.8111534 L34.4518356,62.8111534 C31.8222057,63.5598628 29.0022345,64.0633146 25.3641203,64.2870111 C25.5804172,64.2907843 25.1391714,64.3193528 25.13809,64.3193528 C25.01426,64.3274382 24.8585262,64.3452261 24.7341555,64.3516944 C23.3022698,64.4320095 21.7568283,64.4487194 20.1767792,64.4487194 C18.4485668,64.4487194 16.7468507,64.4163777 14.8439785,64.3193528 L14.7953117,64.3516944 C21.3977754,71.7493099 31.7216276,76.1860465 44.6626727,76.1860465 C72.0501894,76.1860465 95.2804792,64.0837977 105.567561,36.9141089 C112.865419,37.6606622 119.879388,35.805329 123.069767,29.5968086 C117.987871,26.6736616 111.45246,27.6056404 107.689434,29.4911591"/>
    <path fill="#37B1D9" d="M106.950045,29.6698537 C107.77224,23.1640083 102.989781,18.0542226 100.023874,15.627907 C96.6058393,19.6506553 96.0748722,30.1934443 101.437104,34.6322261 C98.4443802,37.3380812 92.1387427,39.7906036 85.68186,39.7906036 L11.7395849,39.7906036 C11.4188593,50.2984503 15.2493316,58.274608 22.0264037,63.0966646 L22.0280127,63.0966646 C27.3843452,62.9765499 31.7549023,62.3322987 35.0672794,61.1639109 C35.5540821,61.0097635 36.0732043,61.2767166 36.2401873,61.7670666 C36.4071704,62.2574166 36.1617436,62.7941766 35.6856685,62.9798258 C35.2448048,63.1359748 34.7857059,63.2812043 34.3115898,63.4193362 L34.3099808,63.4193362 C31.7018056,64.1776963 28.6645661,64.7531546 25.0561346,64.9797345 C25.0550619,64.9797345 24.9687127,64.8951082 24.96764,64.8951082 C34.2123686,69.7226246 47.6168765,69.7051534 62.9854265,63.6955998 C80.217725,56.9560769 96.2534702,44.1169144 107.44186,29.4318084 C107.273453,29.5093369 107.109336,29.5885034 106.950045,29.6698537"/>
    <path fill="#1B81A5" d="M7.81395349,47.8604651 C8.30388975,51.4704726 9.364521,54.8504305 10.9366242,57.9290183 L11.8341228,59.5645683 C12.4023055,60.5246092 13.023299,61.4526559 13.6942654,62.3444671 C16.9386126,62.5519943 19.9293773,62.623315 22.6660213,62.5632554 C28.0429372,62.4452813 32.4302895,61.8125112 35.7553954,60.6649449 C36.2440688,60.5135445 36.7651858,60.7757404 36.9328105,61.2573519 C37.1004353,61.7389635 36.8540654,62.266158 36.3761608,62.4484988 C35.933603,62.6018651 35.4727398,62.7445066 34.9968018,62.8801768 L34.9951866,62.8801768 C32.3769887,63.6250223 29.3442294,64.1580508 25.7219315,64.3811291 C25.597563,64.3886365 25.3805912,64.3902453 25.255146,64.3972165 C23.8305621,64.4765808 22.3074526,64.5253792 20.7337342,64.5253792 C19.0135734,64.5253792 17.25411,64.4926682 15.3605871,64.3966802 C21.9343473,71.7561191 32.2768479,76.1860465 45.1616332,76.1860465 C68.5062885,76.1860465 88.8165693,67.3605113 100.604651,47.8604651 L7.81395349,47.8604651"/>
    <path fill="#1D91B4" d="M12.6976744,47.8604651 C14.0942275,54.3898981 17.450373,59.5156688 22.3226838,63.0063191 C27.7036158,62.8847899 32.094245,62.2329514 35.4218345,61.0508037 C35.9108729,60.8948409 36.4323791,61.1649379 36.6001291,61.6610626 C36.767879,62.1571874 36.5213251,62.7002688 36.0430635,62.8881044 C35.6001752,63.0460923 35.1389678,63.1930322 34.6626743,63.3327908 L34.6610579,63.3327908 C32.0409045,64.100082 28.9417635,64.6491731 25.3162212,64.8789738 C34.6028682,69.7622384 48.0301442,69.6920829 63.468198,63.612308 C72.8076468,59.9332873 81.7963409,54.4567392 89.8604651,47.8604651 L12.6976744,47.8604651"/>
    <path fill="#23A3C2" fill-rule="nonzero" d="M17.5813953,27.209067 L28.4650967,27.209067 L28.4650967,38.0930233 L17.5813953,38.0930233 L17.5813953,27.209067 Z M18.4880959,28.1163379 L19.3470175,28.1163379 L19.3470175,37.1863015 L18.4880959,37.1863015 L18.4880959,28.1163379 Z M20.1026928,28.1163379 L20.9962129,28.1163379 L20.9962129,37.1863015 L20.103242,37.1863015 L20.103242,28.1163379 L20.1026928,28.1163379 Z M21.751339,28.1163379 L22.6448592,28.1163379 L22.6448592,37.1863015 L21.751339,37.1863015 L21.751339,28.1163379 Z M23.4010837,28.1163379 L24.2940546,28.1163379 L24.2940546,37.1863015 L23.4010837,37.1863015 L23.4010837,28.1163379 Z M25.0502791,28.1163379 L25.94325,28.1163379 L25.94325,37.1863015 L25.0502791,37.1863015 L25.0502791,28.1163379 Z M26.6989253,28.1163379 L27.5583961,28.1163379 L27.5583961,37.1863015 L26.6989253,37.1863015 L26.6989253,28.1163379 Z M30.1390053,14.6511628 L41.0232558,14.6511628 L41.0232558,25.5345699 L30.1384561,25.5345699 L30.1384561,14.6511628 L30.1390053,14.6511628 Z M31.046255,15.5584337 L31.9046275,15.5584337 L31.9046275,24.6278481 L31.046255,24.6278481 L31.046255,15.5584337 Z M32.6608519,15.5584337 L33.5538229,15.5584337 L33.5538229,24.6278481 L32.6614011,24.6278481 L32.6614011,15.5584337 L32.6608519,15.5584337 Z M34.3094982,15.5584337 L35.2024691,15.5584337 L35.2024691,24.6278481 L34.3094982,24.6278481 L34.3094982,15.5584337 Z M35.9586936,15.5584337 L36.8516646,15.5584337 L36.8516646,24.6278481 L35.9586936,24.6278481 L35.9586936,15.5584337 Z M37.6078891,15.5584337 L38.5014092,15.5584337 L38.5014092,24.6278481 L37.6078891,24.6278481 L37.6078891,15.5584337 Z M39.2565353,15.5584337 L40.1165553,15.5584337 L40.1165553,24.6278481 L39.2565353,24.6278481 L39.2565353,15.5584337 Z"/>
    <path fill="#34BBDE" fill-rule="nonzero" d="M30.2796119,26.372093 L41.0232558,26.372093 L41.0232558,37.1162791 L30.2790698,37.1162791 L30.2790698,26.372093 L30.2796119,26.372093 Z M31.1751414,27.2677129 L32.0224251,27.2677129 L32.0224251,36.2212013 L31.1751414,36.2212013 L31.1751414,27.2677129 Z M32.7688804,27.2677129 L33.6503156,27.2677129 L33.6503156,36.2212013 L32.7694225,36.2212013 L32.7694225,27.2677129 L32.7688804,27.2677129 Z M34.3962289,27.2677129 L35.2776641,27.2677129 L35.2776641,36.2212013 L34.3962289,36.2212013 L34.3962289,27.2677129 Z M36.0241194,27.2677129 L36.9055546,27.2677129 L36.9055546,36.2212013 L36.0241194,36.2212013 L36.0241194,27.2677129 Z M37.65201,27.2677129 L38.5339873,27.2677129 L38.5339873,36.2212013 L37.65201,36.2212013 L37.65201,27.2677129 Z M39.2793584,27.2677129 L40.1282684,27.2677129 L40.1282684,36.2212013 L39.2793584,36.2212013 L39.2793584,27.2677129 Z"/>
    <path fill="#23A3C2" fill-rule="nonzero" d="M42.9767442,26.372093 L53.7209302,26.372093 L53.7209302,37.1162791 L42.9767442,37.1162791 L42.9767442,26.372093 Z M43.871822,27.2677129 L44.7191912,27.2677129 L44.7191912,36.2212013 L43.871822,36.2212013 L43.871822,27.2677129 Z M45.4657218,27.2677129 L46.347246,27.2677129 L46.347246,36.2212013 L45.4657218,36.2212013 L45.4657218,27.2677129 Z M47.0937766,27.2677129 L47.9753008,27.2677129 L47.9753008,36.2212013 L47.0937766,36.2212013 L47.0937766,27.2677129 Z M48.7218315,27.2677129 L49.6033557,27.2677129 L49.6033557,36.2212013 L48.7218315,36.2212013 L48.7218315,27.2677129 Z M50.3493441,27.2677129 L51.2319526,27.2677129 L51.2319526,36.2212013 L50.3493441,36.2212013 L50.3493441,27.2677129 Z M51.977399,27.2677129 L52.8253103,27.2677129 L52.8253103,36.2212013 L51.977399,36.2212013 L51.977399,27.2677129 Z"/>
    <path fill="#34BBDE" fill-rule="nonzero" d="M42.9767442,14.6511628 L53.8607005,14.6511628 L53.8607005,25.5345699 L42.9767442,25.5345699 L42.9767442,14.6511628 Z M43.8834659,15.5584337 L44.7418585,15.5584337 L44.7418585,24.6278481 L43.8834659,24.6278481 L43.8834659,15.5584337 Z M45.4981007,15.5584337 L46.3910926,15.5584337 L46.3910926,24.6278481 L45.4981007,24.6278481 L45.4981007,15.5584337 Z M47.1473348,15.5584337 L48.0403266,15.5584337 L48.0403266,24.6278481 L47.1473348,24.6278481 L47.1473348,15.5584337 Z M48.7965688,15.5584337 L49.6895607,15.5584337 L49.6895607,24.6278481 L48.7965688,24.6278481 L48.7965688,15.5584337 Z M50.4452537,15.5584337 L51.339344,15.5584337 L51.339344,24.6278481 L50.4452537,24.6278481 L50.4452537,15.5584337 Z M52.0944878,15.5584337 L52.9534295,15.5584337 L52.9534295,24.6278481 L52.0944878,24.6278481 L52.0944878,15.5584337 Z M55.5346484,27.209067 L66.4186047,27.209067 L66.4186047,38.0930233 L55.5346484,38.0930233 L55.5346484,27.209067 Z M56.4419193,28.1163379 L57.3003119,28.1163379 L57.3003119,37.1863015 L56.4419193,37.1863015 L56.4419193,28.1163379 Z M58.0565541,28.1163379 L58.9495459,28.1163379 L58.9495459,37.1863015 L58.0565541,37.1863015 L58.0565541,28.1163379 Z M59.7052389,28.1163379 L60.5982308,28.1163379 L60.5982308,37.1863015 L59.7052389,37.1863015 L59.7052389,28.1163379 Z M61.354473,28.1163379 L62.2480141,28.1163379 L62.2480141,37.1863015 L61.354473,37.1863015 L61.354473,28.1163379 Z M63.0037071,28.1163379 L63.8972481,28.1163379 L63.8972481,37.1863015 L63.0037071,37.1863015 L63.0037071,28.1163379 Z M64.6529411,28.1163379 L65.5118829,28.1163379 L65.5118829,37.1863015 L64.6529411,37.1863015 L64.6529411,28.1163379 Z"/>
    <path fill="#23A3C2" fill-rule="nonzero" d="M54.6976744,14.6511628 L65.4418605,14.6511628 L65.4418605,25.3953488 L54.6976744,25.3953488 L54.6976744,14.6511628 Z M55.5932943,15.5468279 L56.4406635,15.5468279 L56.4406635,24.5002259 L55.5932943,24.5002259 L55.5932943,15.5468279 Z M57.1871942,15.5468279 L58.0687184,15.5468279 L58.0687184,24.5002259 L57.1871942,24.5002259 L57.1871942,15.5468279 Z M58.8147069,15.5468279 L59.6962311,15.5468279 L59.6962311,24.5002259 L58.8147069,24.5002259 L58.8147069,15.5468279 Z M60.4427617,15.5468279 L61.324828,15.5468279 L61.324828,24.5002259 L60.4427617,24.5002259 L60.4427617,15.5468279 Z M62.0708165,15.5468279 L62.9528829,15.5468279 L62.9528829,24.5002259 L62.0708165,24.5002259 L62.0708165,15.5468279 Z M63.6988714,15.5468279 L64.5467827,15.5468279 L64.5467827,24.5002259 L63.6988714,24.5002259 L63.6988714,15.5468279 Z"/>
    <path fill="#34BBDE" fill-rule="nonzero" d="M54.6976744,1.95348837 L65.4418605,1.95348837 L65.4418605,12.6976744 L54.6976744,12.6976744 L54.6976744,1.95348837 Z M55.5932943,2.84847582 L56.4406635,2.84847582 L56.4406635,11.8016028 L55.5932943,11.8016028 L55.5932943,2.84793373 L55.5932943,2.84847582 Z M57.1871942,2.84847582 L58.0687184,2.84847582 L58.0687184,11.8016028 L57.1871942,11.8016028 L57.1871942,2.84793373 L57.1871942,2.84847582 Z M58.8147069,2.84847582 L59.6962311,2.84847582 L59.6962311,11.8016028 L58.8147069,11.8016028 L58.8147069,2.84793373 L58.8147069,2.84847582 Z M60.4427617,2.84847582 L61.324828,2.84847582 L61.324828,11.8016028 L60.4427617,11.8016028 L60.4427617,2.84793373 L60.4427617,2.84847582 Z M62.0708165,2.84847582 L62.9528829,2.84847582 L62.9528829,11.8016028 L62.0708165,11.8016028 L62.0708165,2.84793373 L62.0708165,2.84847582 Z M63.6988714,2.84847582 L64.5467827,2.84847582 L64.5467827,11.8016028 L63.6988714,11.8016028 L63.6988714,2.84793373 L63.6988714,2.84847582 Z"/>
    <path fill="#23A3C2" fill-rule="nonzero" d="M67.3953488,26.372093 L78.1395349,26.372093 L78.1395349,37.1162791 L67.3953488,37.1162791 L67.3953488,26.372093 Z M68.2898845,27.2677129 L69.1383379,27.2677129 L69.1383379,36.2212013 L68.2904266,36.2212013 L68.2904266,27.2677129 L68.2898845,27.2677129 Z M69.8837843,27.2677129 L70.7658506,27.2677129 L70.7658506,36.2212013 L69.8843264,36.2212013 L69.8843264,27.2677129 L69.8837843,27.2677129 Z M71.5123813,27.2677129 L72.3944476,27.2677129 L72.3944476,36.2212013 L71.5123813,36.2212013 L71.5123813,27.2677129 Z M73.139894,27.2677129 L74.0219603,27.2677129 L74.0219603,36.2212013 L73.139894,36.2212013 L73.139894,27.2677129 Z M74.7684909,27.2677129 L75.6500151,27.2677129 L75.6500151,36.2212013 L74.7684909,36.2212013 L74.7684909,27.2677129 Z M76.3960036,27.2677129 L77.243915,27.2677129 L77.243915,36.2212013 L76.3960036,36.2212013 L76.3960036,27.2677129 Z"/>
    <path fill="#D3ECEC" d="M40.0074254,54.6979362 C41.0636457,54.6838461 42.0456995,55.2393287 42.5778078,56.1518308 C43.1099161,57.064333 43.1097097,58.1926015 42.5772677,59.1049089 C42.0448257,60.0172163 41.0625687,60.5723397 40.0063536,60.5578632 C38.4036337,60.5358963 37.115986,59.2302408 37.1162791,57.627371 C37.1165723,56.0245012 38.4046975,54.7193169 40.0074254,54.6979362"/>
    <path fill="#364548" fill-rule="nonzero" d="M40.2739809,55.4237229 C40.5428163,55.4237229 40.7992852,55.4736361 41.0358604,55.5644357 C40.7002439,55.7568487 40.5368885,56.1475527 40.6372711,56.5177584 C40.7376537,56.8879641 41.076853,57.1457631 41.4649216,57.1467913 C41.7902124,57.1467913 42.0724895,56.968909 42.218736,56.7055371 C42.5742529,57.5513203 42.3274732,58.5272355 41.6110601,59.1086521 C40.8946471,59.6900687 39.8773653,59.7400229 39.1060833,59.2316606 C38.3348013,58.7232982 37.991209,57.7763736 38.2600141,56.8999326 C38.5288193,56.0234917 39.3466998,55.4239966 40.2739809,55.4237229 M0,48.5840176 L104.511628,48.5840176 C102.236286,47.8385051 97.3120631,46.8306826 98.1240688,42.9767442 C93.9859628,49.1638606 84.0072509,47.3176021 81.488636,44.2670543 C78.6844219,49.522811 62.3580115,47.5246889 61.2193132,43.4302112 C57.7033614,48.7618998 46.8090884,48.7618998 43.2931365,43.4302112 C42.1536164,47.5246889 25.8276169,49.522811 23.0229919,44.2665233 C20.504788,47.3176021 10.526487,49.1638606 6.38838097,42.9772752 C7.20038668,46.8306826 2.27616379,47.8385051 0,48.5845485"/>
    <path fill="#BDD9D7" d="M47.8604651,76.1210142 C40.6311857,72.5800607 36.6636247,67.7660172 34.4558647,62.5116279 C31.7702461,63.3024868 28.5426985,63.808416 24.7919091,64.0255578 C23.3791562,64.1071237 21.8927224,64.1490089 20.3336754,64.1490089 C18.5354322,64.1490089 16.6405494,64.0938968 14.6511628,63.9853259 C21.2808499,70.8247397 29.4364809,76.0901514 44.5378797,76.1860465 C45.6527051,76.1860465 46.7589878,76.1640017 47.8604651,76.1210142"/>
    <path fill="#D3ECEC" d="M37.1157301,67.3953488 C36.0875094,65.9840645 35.0900311,64.2103858 34.3566072,62.5116279 C31.5952885,63.3091173 28.2756674,63.8185782 24.4186047,64.0377907 C27.0679335,65.4912526 30.856375,66.8381607 37.1162791,67.3953488"/>
  </g>
</svg>
