<svg width="52" height="52" viewBox="0 0 52 52" fill="none" xmlns="http://www.w3.org/2000/svg">
<path d="M37.1786 30.0346C35.9729 27.9404 34.0055 25.6558 31.2767 23.1808C30.3248 22.2923 29.8171 21.8481 28.8652 20.9596C28.0402 20.1346 27.3421 19.3731 26.8344 18.5481C26.3267 17.7231 26.0729 17.0885 26.0729 16.5173C26.0729 15.8827 26.3902 15.5654 27.0882 15.4385C27.7229 15.3115 28.6113 15.5654 29.6267 16.2C31.3402 17.2154 33.0536 18.8654 34.7671 21.2135C35.9729 19.5 36.6075 18.675 37.8132 16.9615C35.7825 14.4865 33.3075 12.2654 30.3248 10.2346C30.3248 8.20385 30.3248 7.18846 30.3248 5.22115C28.8652 4.33269 28.1036 3.88846 26.644 3C26.644 5.03077 26.644 6.04615 26.5805 8.01346C25.1844 7.31538 23.9786 6.99808 22.9632 6.99808C22.3921 6.99808 21.9479 7.06154 21.5036 7.18846C21.1229 7.31538 20.7421 7.50577 20.4248 7.69615L16.8075 9.98077L18.8382 9.79038V9.85385C18.5209 10.8058 18.3305 11.8212 18.3305 13.0269C18.3305 14.1692 18.4575 15.2481 18.7748 16.3269C19.0921 17.3423 19.5363 18.4212 20.1075 19.4365C20.7421 20.4519 21.5036 21.5308 22.4555 22.6096C23.4075 23.6885 24.6132 24.8308 25.9459 26.1C26.8979 26.925 27.3421 27.3692 28.294 28.1942C30.0709 29.7808 30.9594 31.2404 30.9594 32.4462C30.9594 33.3346 30.5786 33.8423 29.8171 33.9692C29.0555 34.0962 28.1671 33.8423 27.1517 33.2712C24.7402 31.875 22.2652 29.2731 19.7902 25.5923L16.1729 27.8769L16.5536 30.1615C17.0613 30.9231 17.6325 31.7481 18.4575 32.6365C19.219 33.525 20.044 34.4135 20.9325 35.2385C21.8209 36.1269 22.7729 36.8885 23.7248 37.65C24.6767 38.4115 25.5652 39.0462 26.3902 39.4904C26.3902 41.4577 26.3902 42.4731 26.3267 44.4404C26.4536 44.5038 26.5171 44.5673 26.5805 44.5673V48.8192L30.1344 46.5981C30.1344 44.5038 30.1344 43.4885 30.1344 41.4577C31.7209 41.9019 33.1171 42.0923 34.2594 42.1558C34.3863 42.1558 34.5132 42.1558 34.6402 42.1558L33.4344 43.8058L36.9882 41.5846C37.6863 41.2038 38.194 40.5692 38.5113 39.6808C38.8286 38.8558 38.9555 37.7135 38.9555 36.3808C38.9555 34.2865 38.3844 32.1288 37.1786 30.0346Z" fill="white" stroke="black" stroke-miterlimit="10" stroke-linejoin="round"/>
<path d="M26.7712 7.44186C26.7712 9.47263 26.7712 10.488 26.7712 12.4553C29.6904 14.4861 32.1654 16.7072 34.2596 19.1822C33.0538 20.8957 32.4192 21.7842 31.2135 23.4342C29.4365 21.0861 27.7231 19.3726 26.0731 18.4207C25.0577 17.7861 24.1692 17.5957 23.5346 17.6592C22.9 17.7861 22.5827 18.1034 22.5192 18.738C22.5192 19.3092 22.7731 19.9438 23.2808 20.7688C23.7885 21.5938 24.4865 22.3553 25.3115 23.1803C26.2635 24.0688 26.7712 24.513 27.7231 25.4015C30.4519 27.9399 32.4192 30.2246 33.625 32.2553C34.8308 34.3496 35.4654 36.4438 35.4654 38.6649C35.4654 39.9976 35.3385 41.0765 35.0212 41.9649C34.7038 42.7899 34.1962 43.4246 33.4981 43.8688C32.8 44.2496 31.9115 44.4399 30.7692 44.4399C29.6269 44.3765 28.2942 44.1861 26.6442 43.7419C26.6442 45.8361 26.6442 46.8515 26.6442 48.8822C25.1212 47.9938 24.3596 47.5496 22.8365 46.7246C22.8365 44.7572 22.8365 43.7419 22.9 41.7746C22.075 41.2669 21.1231 40.6957 20.2346 39.9342C19.2827 39.1726 18.3942 38.4111 17.4423 37.5226C16.4904 36.6342 15.6654 35.7457 14.9038 34.8572C14.1423 33.9688 13.5077 33.1438 13 32.3822C14.2692 30.5419 14.9038 29.6534 16.1731 27.8765C18.6481 31.6207 21.1231 34.1592 23.5346 35.5553C24.55 36.1265 25.4385 36.3803 26.2 36.2534C26.9615 36.1265 27.3423 35.6188 27.3423 34.7303C27.3423 33.5246 26.4538 32.0649 24.6769 30.4784C23.725 29.6534 23.2808 29.2092 22.3288 28.3842C20.9327 27.1149 19.7904 25.9726 18.8385 24.8938C17.8865 23.8149 17.125 22.7361 16.4904 21.7207C15.8558 20.7053 15.4115 19.6265 15.1577 18.6111C14.8404 17.5957 14.7135 16.4534 14.7135 15.3111C14.7135 14.1053 14.9038 13.0265 15.2212 12.138C15.6019 11.1861 16.1096 10.488 16.8077 9.98032C17.5058 9.47263 18.3308 9.21878 19.4096 9.21878C20.425 9.21878 21.6308 9.53609 23.0269 10.2342C23.0269 8.2034 23.0269 7.18801 23.0904 5.2207C24.55 6.10916 25.3115 6.5534 26.7712 7.44186Z" fill="#9595EF" stroke="black" stroke-miterlimit="10" stroke-linejoin="round"/>
<path d="M26.6447 3L23.0273 5.22115L26.7716 7.44231L30.3254 5.22115L26.6447 3Z" fill="white" stroke="black" stroke-miterlimit="10" stroke-linejoin="round"/>
<path d="M34.1965 19.1831L37.7504 16.9619L34.7042 21.2138L31.1504 23.435L34.1965 19.1831Z" fill="white" stroke="black" stroke-miterlimit="10" stroke-linejoin="round"/>
</svg>
