<svg width="1006" height="1251" viewBox="0 0 1006 1251" fill="none" xmlns="http://www.w3.org/2000/svg">
    <path opacity="0.6" d="M372.91 703.839C380.597 519.414 270.33 437.28 420.004 314.503C552.715 205.639 749.978 248.165 910.825 419.997C1153.09 678.799 929.648 924.862 773.389 979.536C695.258 1006.87 534.223 1035.33 448.304 973.4C362.387 911.463 369.164 793.698 372.91 703.839" stroke="#E0E0E0"/>
    <path opacity="0.3" d="M320.057 689.559C329.831 466.4 196.829 367.314 377.98 218.369C538.6 86.3032 776.81 137.236 970.684 344.715C1262.69 657.208 992.095 955.514 803.167 1022.08C708.702 1055.36 514.073 1090.22 410.435 1015.51C306.798 940.796 315.295 798.292 320.057 689.559" stroke="#E0E0E0"/>
    <path d="M426.09 716.3C432.242 569.791 344.686 504.571 463.593 406.999C569.023 320.484 725.685 354.216 853.391 490.679C1045.74 696.211 868.213 891.741 744.093 935.214C682.032 956.951 554.126 979.6 485.902 930.421C417.68 881.24 423.092 787.686 426.09 716.3" stroke="#E0E0E0"/>
    <path fill-rule="evenodd" clip-rule="evenodd" d="M480.063 734.277C483.76 631.54 421.808 585.414 505.135 517.492C579.019 457.267 689.509 481.607 780.05 577.878C916.42 722.875 792.23 859.251 704.996 889.205C661.378 904.182 571.386 919.514 523.12 884.723C474.855 849.931 478.261 784.334 480.063 734.277Z" fill="#9595EF"/>
    <path fill-rule="evenodd" clip-rule="evenodd" d="M648.025 816.484C646.937 826.999 625.695 833.416 600.583 830.818C575.469 828.219 555.992 817.588 557.08 807.073C558.168 796.558 579.41 790.139 604.523 792.738C629.636 795.337 649.113 805.968 648.025 816.484Z" fill="#7850F1" fill-opacity="0.08" stroke="black" stroke-width="2.652" stroke-linecap="round" stroke-linejoin="round" stroke-dasharray="5.3 10.61"/>
    <path fill-rule="evenodd" clip-rule="evenodd" d="M616.638 707.882L595.144 707.717C583.419 707.531 575.513 705.251 569.877 703.506C569.528 703.399 568.99 701.293 568.76 701.629C567.958 702.787 567.507 704.649 567.463 707.468L566.313 780.021C566.069 795.412 578.428 808.204 593.778 808.447L614.209 808.771C629.56 809.014 642.317 796.62 642.561 781.229L642.906 759.433L643.135 745.001L643.71 708.676C643.736 707.076 644.254 706.686 643.815 705.714C643.586 705.205 640.967 706.2 639.5 706.397C632.404 707.349 627.191 708.049 616.638 707.882Z" fill="white"/>
    <path fill-rule="evenodd" clip-rule="evenodd" d="M616.638 707.882L595.144 707.717C583.419 707.531 575.513 705.251 569.877 703.506C569.528 703.399 568.99 701.293 568.76 701.629C567.958 702.787 567.507 704.649 567.463 707.468L566.313 780.021C566.069 795.412 578.428 808.204 593.778 808.447L614.209 808.771C629.56 809.014 642.317 796.62 642.561 781.229L642.906 759.433L643.135 745.001L643.71 708.676C643.736 707.076 644.254 706.686 643.815 705.714C643.586 705.205 640.967 706.2 639.5 706.397C632.404 707.349 627.191 708.049 616.638 707.882Z" stroke="black" stroke-width="2" stroke-linejoin="round"/>
    <path fill-rule="evenodd" clip-rule="evenodd" d="M563.651 729.583L437.332 588.021C429.778 579.571 455.449 588.239 466.78 588.487L766.085 595.049C772.433 595.188 783.648 585.86 779.194 590.382L649.402 730.942C625.447 754.144 586.859 753.532 563.651 729.583Z" fill="white"/>
    <path fill-rule="evenodd" clip-rule="evenodd" d="M563.651 729.583L437.332 588.021C429.778 579.571 455.449 588.239 466.78 588.487L766.085 595.049C772.433 595.188 783.648 585.86 779.194 590.382L649.402 730.942C625.447 754.144 586.859 753.532 563.651 729.583Z" stroke="black" stroke-width="2" stroke-linejoin="round"/>
    <path fill-rule="evenodd" clip-rule="evenodd" d="M794.872 547.354C793.916 607.681 709.192 655.256 605.639 653.616C502.085 651.975 418.913 601.739 419.869 541.412C420.824 481.084 505.547 433.509 609.101 435.15C712.654 436.79 795.827 487.026 794.872 547.354Z" fill="white"/>
    <path fill-rule="evenodd" clip-rule="evenodd" d="M794.872 547.354C793.916 607.681 709.192 655.256 605.639 653.616C502.085 651.975 418.913 601.739 419.869 541.412C420.824 481.084 505.547 433.509 609.101 435.15C712.654 436.79 795.827 487.026 794.872 547.354Z" stroke="black" stroke-width="2" stroke-linejoin="round"/>
    <path fill-rule="evenodd" clip-rule="evenodd" d="M772.483 546.999C771.731 594.436 697.198 631.72 606.009 630.275C514.819 628.831 441.505 589.204 442.256 541.767C443.008 494.33 517.541 457.045 608.731 458.49C699.92 459.935 773.235 499.562 772.483 546.999Z" fill="white"/>
    <path fill-rule="evenodd" clip-rule="evenodd" d="M772.483 546.999C771.731 594.436 697.198 631.72 606.009 630.275C514.819 628.831 441.505 589.204 442.256 541.767C443.008 494.33 517.541 457.045 608.731 458.49C699.92 459.935 773.235 499.562 772.483 546.999Z" stroke="black" stroke-width="2" stroke-linejoin="round"/>
    <path fill-rule="evenodd" clip-rule="evenodd" d="M481.082 514.947C481.012 519.872 482.978 522.906 486.228 524.765C489.477 526.624 491.538 525.873 491.616 520.838C491.81 508.198 492.003 495.56 492.197 482.92C492.275 477.885 490.256 475.018 486.985 473.56C483.716 472.102 481.688 473.104 481.616 478.027C481.439 490.334 481.26 502.641 481.082 514.947ZM472.262 474.074C472.218 465.403 478.347 459.213 487.136 463.448C496.129 467.78 502.147 478.202 501.883 488.515C501.687 500.92 501.489 513.325 501.293 525.73C501.14 535.52 494.399 539.872 486.078 534.878C477.158 529.524 471.192 519.694 471.716 509.034C471.898 497.381 472.08 485.728 472.262 474.074Z" fill="white"/>
    <path fill-rule="evenodd" clip-rule="evenodd" d="M481.082 514.948C481.012 519.872 482.978 522.906 486.228 524.766C489.477 526.625 491.538 525.874 491.616 520.838C491.81 508.199 492.003 495.56 492.197 482.921C492.275 477.885 490.256 475.018 486.986 473.561C483.716 472.103 481.688 473.104 481.617 478.028C481.439 490.334 481.26 502.641 481.082 514.948Z" stroke="black" stroke-width="1.291" stroke-linejoin="round"/>
    <path fill-rule="evenodd" clip-rule="evenodd" d="M472.263 474.074C472.218 465.403 478.347 459.213 487.136 463.448C496.13 467.78 502.147 478.202 501.884 488.515C501.687 500.92 501.49 513.325 501.293 525.73C501.14 535.52 494.399 539.872 486.078 534.878C477.158 529.524 471.193 519.694 471.716 509.034C471.899 497.381 472.08 485.728 472.263 474.074Z" stroke="black" stroke-width="1.291" stroke-linejoin="round"/>
    <path fill-rule="evenodd" clip-rule="evenodd" d="M479.48 536.61L465.808 527.627L466.738 468.914L478.86 462.475C478.86 462.475 482.24 461.269 485.675 463.068C489.109 464.868 495.664 468.889 499.05 479.732C500.232 483.517 499.857 493.304 499.79 502.55C499.705 514.361 498.179 525.729 498.179 525.729C498.179 525.729 499.733 529.127 496.396 534.762L485.492 541.518" fill="white"/>
    <path d="M498.36 534.251C496.845 536.013 486.115 541.528 486.115 541.528" stroke="black" stroke-width="1.291" stroke-linecap="round" stroke-linejoin="round"/>
    <path d="M479.48 536.753L465.806 527.753L466.738 468.928L478.862 462.476C478.862 462.476 482.243 461.267 485.678 463.07C489.112 464.874 497.599 469.884 500.987 480.747" stroke="black" stroke-width="1.291" stroke-linecap="round" stroke-linejoin="round"/>
    <path fill-rule="evenodd" clip-rule="evenodd" d="M469.784 521.306C469.713 526.23 471.68 529.264 474.93 531.123C478.179 532.983 480.24 532.232 480.318 527.196C480.512 514.557 480.705 501.918 480.899 489.279C480.976 484.243 478.958 481.376 475.688 479.918C472.418 478.46 470.39 479.462 470.318 484.385C470.141 496.692 469.963 508.999 469.784 521.306ZM460.965 480.432C460.92 471.761 467.049 465.572 475.838 469.805C484.831 474.138 490.848 484.56 490.585 494.873C490.389 507.278 490.192 519.683 489.995 532.088C489.842 541.878 483.101 546.23 474.78 541.236C465.86 535.882 459.895 526.052 460.417 515.392L460.965 480.432Z" fill="#9595EF"/>
    <path fill-rule="evenodd" clip-rule="evenodd" d="M469.784 521.305C469.713 526.23 471.68 529.264 474.93 531.123C478.179 532.982 480.24 532.231 480.318 527.196C480.512 514.556 480.705 501.918 480.899 489.279C480.976 484.242 478.958 481.376 475.688 479.918C472.418 478.46 470.39 479.461 470.318 484.385C470.141 496.692 469.962 508.998 469.784 521.305Z" stroke="black" stroke-width="1.291" stroke-linecap="round" stroke-linejoin="round"/>
    <path fill-rule="evenodd" clip-rule="evenodd" d="M460.965 480.432C460.92 471.76 467.049 465.571 475.838 469.805C484.831 474.138 490.848 484.56 490.585 494.873C490.389 507.278 490.192 519.683 489.995 532.088C489.842 541.878 483.101 546.23 474.78 541.236C465.86 535.882 459.895 526.051 460.417 515.392L460.965 480.432Z" stroke="black" stroke-width="1.291" stroke-linecap="round" stroke-linejoin="round"/>
    <path fill-rule="evenodd" clip-rule="evenodd" d="M622.875 512.839C623.755 508.005 621.963 506.634 618.479 507.432C614.994 508.229 612.463 510.647 611.566 515.592C609.314 528.003 607.064 540.414 604.812 552.825C603.914 557.77 605.788 558.901 609.33 557.707C612.871 556.513 615.385 553.921 616.267 549.086C618.469 537.004 620.673 524.922 622.875 512.839ZM626.585 545.102C625.038 555.639 617.295 564.114 607.524 567.636C598.409 570.923 592.646 565.364 594.387 555.751C596.59 543.569 598.794 531.386 600.997 519.204C602.732 509.056 610.64 500.012 620.286 497.503C629.713 495.05 634.521 502.29 632.803 510.771C630.73 522.215 628.659 533.659 626.585 545.102Z" fill="white"/>
    <path fill-rule="evenodd" clip-rule="evenodd" d="M622.874 512.839C623.755 508.005 621.962 506.635 618.479 507.432C614.994 508.229 612.463 510.647 611.566 515.592C609.314 528.003 607.063 540.414 604.811 552.825C603.914 557.77 605.788 558.901 609.33 557.707C612.871 556.513 615.385 553.921 616.267 549.087C618.469 537.005 620.673 524.923 622.874 512.839Z" stroke="black" stroke-width="1.291" stroke-linejoin="round"/>
    <path fill-rule="evenodd" clip-rule="evenodd" d="M626.585 545.102C625.038 555.639 617.294 564.114 607.523 567.636C598.408 570.923 592.646 565.364 594.386 555.751C596.59 543.569 598.793 531.386 600.997 519.204C602.731 509.056 610.639 500.012 620.286 497.503C629.713 495.05 634.521 502.29 632.802 510.771C630.73 522.215 628.658 533.659 626.585 545.102Z" stroke="black" stroke-width="1.291" stroke-linejoin="round"/>
    <path fill-rule="evenodd" clip-rule="evenodd" d="M613.135 570.599L628.295 564.432L638.758 506.741L628.107 498.101C628.107 498.101 625.023 496.267 621.305 497.369C617.586 498.472 610.372 501.149 604.949 511.118C603.055 514.598 601.528 524.256 599.802 533.326C597.597 544.912 596.893 556.341 596.893 556.341C596.893 556.341 594.707 559.371 596.889 565.532L606.284 574.249" fill="white"/>
    <path d="M595.851 564.745C597.052 566.761 606.897 574.258 606.897 574.258" stroke="black" stroke-width="1.291" stroke-linecap="round" stroke-linejoin="round"/>
    <path d="M612.416 570.61L627.445 564.439L637.825 506.729L627.268 498.088C627.268 498.088 624.211 496.254 620.525 497.357C616.839 498.46 609.09 501.384 603.712 511.357" stroke="black" stroke-width="1.291" stroke-linecap="round" stroke-linejoin="round"/>
    <path fill-rule="evenodd" clip-rule="evenodd" d="M633.003 521.404C633.884 516.569 632.092 515.199 628.607 515.997C625.122 516.794 622.592 519.212 621.694 524.157C619.442 536.568 617.191 548.979 614.939 561.388C614.043 566.335 615.917 567.466 619.459 566.271C623 565.078 625.513 562.486 626.396 557.651C628.598 545.569 630.801 533.487 633.003 521.404ZM636.714 553.667C635.166 564.203 627.423 572.679 617.652 576.201C608.537 579.488 602.773 573.929 604.515 564.316C606.718 552.134 608.921 539.951 611.125 527.769C612.86 517.621 620.767 508.577 630.413 506.068C639.841 503.615 644.649 510.855 642.93 519.337C640.859 530.78 638.786 542.224 636.714 553.667Z" fill="#9595EF"/>
    <path d="M633.003 521.404L632.368 521.288L632.368 521.289L633.003 521.404ZM628.607 515.997L628.751 516.627L628.751 516.627L628.607 515.997ZM621.694 524.157L621.059 524.042L621.059 524.042L621.694 524.157ZM614.94 561.389L614.305 561.273L614.305 561.274L614.94 561.389ZM619.459 566.272L619.253 565.66L619.253 565.66L619.459 566.272ZM626.396 557.651L627.031 557.767L627.031 557.767L626.396 557.651ZM636.714 553.667L636.079 553.552C636.078 553.559 636.077 553.566 636.076 553.573L636.714 553.667ZM617.652 576.201L617.434 575.594L617.433 575.594L617.652 576.201ZM604.515 564.316L605.15 564.431L605.15 564.431L604.515 564.316ZM611.126 527.769L611.761 527.884L611.762 527.878L611.126 527.769ZM630.414 506.068L630.576 506.693L630.576 506.693L630.414 506.068ZM642.931 519.337L642.298 519.208L642.296 519.222L642.931 519.337ZM633.638 521.52C634.084 519.075 633.914 517.242 632.919 516.153C631.896 515.033 630.255 514.958 628.463 515.368L628.751 516.627C630.445 516.239 631.442 516.45 631.966 517.024C632.519 517.629 632.804 518.899 632.368 521.288L633.638 521.52ZM628.463 515.368C626.61 515.792 624.981 516.655 623.699 518.092C622.421 519.524 621.524 521.484 621.059 524.042L622.329 524.273C622.763 521.886 623.58 520.164 624.662 518.952C625.741 517.744 627.119 517 628.751 516.627L628.463 515.368ZM621.059 524.042C618.807 536.453 616.557 548.864 614.305 561.273L615.575 561.504C617.827 549.095 620.078 536.683 622.329 524.272L621.059 524.042ZM614.305 561.274C614.074 562.546 614.013 563.618 614.13 564.492C614.247 565.37 614.552 566.094 615.093 566.603C616.182 567.628 617.879 567.486 619.666 566.883L619.253 565.66C617.498 566.252 616.486 566.142 615.977 565.663C615.719 565.42 615.502 565.009 615.409 564.321C615.317 563.629 615.357 562.704 615.575 561.504L614.305 561.274ZM619.666 566.883C621.53 566.255 623.149 565.248 624.418 563.743C625.686 562.239 626.574 560.272 627.031 557.767L625.761 557.535C625.336 559.865 624.526 561.612 623.431 562.911C622.338 564.208 620.93 565.095 619.253 565.66L619.666 566.883ZM627.031 557.767C629.233 545.685 631.436 533.603 633.638 521.52L632.368 521.289C630.166 533.372 627.963 545.453 625.761 557.536L627.031 557.767ZM636.076 553.573C634.566 563.848 627.007 572.142 617.434 575.594L617.871 576.809C627.84 573.215 635.767 564.559 637.353 553.761L636.076 553.573ZM617.433 575.594C613.018 577.186 609.578 576.586 607.45 574.622C605.308 572.644 604.302 569.111 605.15 564.431L603.88 564.201C602.986 569.134 603.992 573.187 606.575 575.57C609.172 577.967 613.172 578.503 617.871 576.809L617.433 575.594ZM605.15 564.431C607.354 552.249 609.556 540.066 611.761 527.884L610.491 527.654C608.286 539.836 606.083 552.019 603.88 564.201L605.15 564.431ZM611.762 527.878C613.457 517.961 621.194 509.133 630.576 506.693L630.251 505.443C620.341 508.021 612.263 517.281 610.489 527.66L611.762 527.878ZM630.576 506.693C635.098 505.516 638.383 506.68 640.359 509.019C642.363 511.391 643.13 515.103 642.298 519.208L643.563 519.465C644.45 515.089 643.672 510.94 641.345 508.185C638.99 505.397 635.158 504.167 630.251 505.443L630.576 506.693ZM642.296 519.222C640.224 530.665 638.152 542.109 636.079 553.552L637.349 553.782C639.422 542.339 641.495 530.895 643.566 519.452L642.296 519.222Z" fill="black"/>
    <path fill-rule="evenodd" clip-rule="evenodd" d="M587.366 539.668C586.975 564.33 586.585 588.993 586.195 613.655C586.182 614.485 585.604 614.828 584.86 614.392C581.596 612.48 579.624 611.309 575.809 609.047C574.937 608.531 574.244 607.441 574.26 606.613C574.607 588.069 574.954 569.525 575.302 550.98C575.317 550.152 574.631 549.066 573.772 548.558C571.145 547.003 569.821 546.22 567.377 544.773C566.578 544.302 565.966 543.259 565.979 542.431C566.015 540.185 566.034 539.063 566.071 536.817C566.084 536.013 566.69 535.714 567.467 536.13C574.82 540.059 577.547 537.861 579.353 534.402" fill="white"/>
    <path d="M587.366 539.668C586.975 564.33 586.585 588.993 586.195 613.655C586.182 614.485 585.604 614.828 584.86 614.392C581.596 612.48 579.624 611.309 575.809 609.047C574.937 608.531 574.244 607.441 574.26 606.613C574.607 588.069 574.954 569.525 575.302 550.98C575.317 550.152 574.631 549.066 573.772 548.558C571.145 547.003 569.821 546.22 567.377 544.773C566.578 544.302 565.966 543.259 565.979 542.431C566.015 540.185 566.034 539.063 566.071 536.817C566.084 536.013 566.69 535.714 567.467 536.13C574.82 540.059 577.547 537.861 579.353 534.402" stroke="black" stroke-width="0.494" stroke-linejoin="round"/>
    <path fill-rule="evenodd" clip-rule="evenodd" d="M579.134 618.643L586.503 614.654L587.869 538.471L580.579 541.94L579.134 618.643Z" fill="white"/>
    <path fill-rule="evenodd" clip-rule="evenodd" d="M579.134 618.643L586.503 614.654L587.869 538.471L580.579 541.94L579.134 618.643Z" stroke="black" stroke-width="1.291" stroke-linecap="round" stroke-linejoin="round"/>
    <path fill-rule="evenodd" clip-rule="evenodd" d="M587.186 539.112L580.528 542.639L573.042 538.52C573.042 538.52 570.554 543.485 567.057 542.746C563.562 542.006 559.567 539.962 559.567 539.962L566.32 535.981C566.32 535.981 569.019 537.134 570.82 537.736C572.62 538.339 574.902 538.807 577.085 537.18C579.269 535.554 579.626 534.707 579.626 534.707" fill="white"/>
    <path d="M587.274 538.906L580.616 542.433L573.129 538.314C573.129 538.314 570.642 543.279 567.145 542.54C563.65 541.8 559.612 539.372 559.612 539.372L566.407 535.775C566.407 535.775 569.107 536.928 570.907 537.53C572.708 538.133 574.99 538.601 577.172 536.975C579.357 535.348 579.714 534.501 579.714 534.501" stroke="black" stroke-width="1.291" stroke-linecap="round" stroke-linejoin="round"/>
    <path fill-rule="evenodd" clip-rule="evenodd" d="M573.893 537.214L579.439 533.86C579.825 533.624 580.304 533.618 580.696 533.842L587.74 537.877C587.929 538.008 587.916 538.297 587.719 538.413L580.945 542.096L573.893 537.214Z" fill="white"/>
    <path fill-rule="evenodd" clip-rule="evenodd" d="M573.893 537.214L579.439 533.86C579.825 533.624 580.304 533.618 580.696 533.842L587.74 537.877C587.929 538.008 587.916 538.297 587.719 538.413L580.945 542.096L573.893 537.214Z" stroke="black" stroke-width="0.982" stroke-linejoin="round"/>
    <path fill-rule="evenodd" clip-rule="evenodd" d="M560.325 539.396C567.718 543.319 570.461 541.125 572.275 537.673C572.511 537.226 573.087 537.179 573.71 537.544C575.954 538.858 577.049 539.5 579.047 540.665C579.788 541.098 580.347 542.102 580.334 542.93C579.944 567.544 579.554 592.159 579.164 616.774C579.151 617.602 578.571 617.944 577.823 617.508C574.54 615.6 572.556 614.432 568.72 612.173C567.845 611.659 567.148 610.57 567.164 609.744C567.51 591.235 567.857 572.726 568.204 554.218C568.22 553.391 567.529 552.308 566.666 551.801C564.023 550.248 562.694 549.466 560.236 548.023C559.432 547.551 558.816 546.512 558.829 545.684C558.866 543.443 558.885 542.323 558.921 540.082C558.934 539.278 559.543 538.98 560.325 539.396Z" fill="#9595EF"/>
    <path fill-rule="evenodd" clip-rule="evenodd" d="M560.325 539.396C567.718 543.319 570.461 541.125 572.275 537.673C572.511 537.226 573.087 537.179 573.71 537.544C575.954 538.858 577.049 539.5 579.047 540.665C579.788 541.098 580.347 542.102 580.334 542.93C579.944 567.544 579.554 592.159 579.164 616.774C579.151 617.602 578.571 617.944 577.823 617.508C574.54 615.6 572.556 614.432 568.72 612.173C567.845 611.659 567.148 610.57 567.164 609.744C567.51 591.235 567.857 572.726 568.204 554.218C568.22 553.391 567.529 552.308 566.666 551.801C564.023 550.248 562.694 549.466 560.236 548.023C559.432 547.551 558.816 546.512 558.829 545.684C558.866 543.443 558.885 542.323 558.921 540.082C558.934 539.278 559.543 538.98 560.325 539.396Z" stroke="black" stroke-width="1.291" stroke-linecap="round" stroke-linejoin="round"/>
    <path fill-rule="evenodd" clip-rule="evenodd" d="M700.787 537.458L692.819 535.208L674 461.392L681.773 463.155L700.787 537.458Z" fill="white"/>
    <path fill-rule="evenodd" clip-rule="evenodd" d="M700.787 537.458L692.819 535.208L674 461.392L681.773 463.155L700.787 537.458Z" stroke="black" stroke-width="1.291" stroke-linecap="round" stroke-linejoin="round"/>
    <path fill-rule="evenodd" clip-rule="evenodd" d="M673.994 460.763L680.993 463.515L687.987 458.714C687.987 458.714 690.998 463.305 694.391 462.219C697.784 461.132 701.532 458.72 701.532 458.72L694.39 455.534C694.39 455.534 691.833 456.942 690.109 457.717C688.385 458.493 686.169 459.188 683.822 457.826C681.475 456.465 681.028 455.674 681.028 455.674" fill="white"/>
    <path d="M674.063 460.768L681.062 463.52L687.622 459.484C687.188 460.248 690.634 463.293 694.027 462.208C697.42 461.121 700.748 459.922 700.748 459.922L693.644 455.994C693.644 455.994 691.901 456.947 690.177 457.722C688.454 458.498 686.238 459.193 683.891 457.831C681.543 456.471 680.063 457.264 680.23 456.636" stroke="black" stroke-width="1.291" stroke-linecap="round" stroke-linejoin="round"/>
    <path fill-rule="evenodd" clip-rule="evenodd" d="M687.133 456.976L681.13 455.022C680.711 454.884 680.253 454.989 679.928 455.3L674.085 460.876C673.934 461.048 674.007 461.326 674.221 461.392L681.468 463.378L687.133 456.976Z" fill="white"/>
    <path fill-rule="evenodd" clip-rule="evenodd" d="M687.133 456.976L681.13 455.022C680.711 454.884 680.253 454.989 679.928 455.3L674.085 460.876C673.934 461.048 674.007 461.326 674.221 461.392L681.468 463.378L687.133 456.976Z" stroke="black" stroke-width="0.982" stroke-linejoin="round"/>
    <path fill-rule="evenodd" clip-rule="evenodd" d="M701.571 456.92C702.111 459.106 702.382 460.199 702.922 462.385C703.122 463.193 702.758 464.353 702.088 465C700.033 466.978 698.922 468.05 696.714 470.178C695.992 470.874 695.569 472.093 695.77 472.899C700.277 490.947 704.785 508.995 709.293 527.043C709.495 527.849 709.065 529.075 708.334 529.781C705.128 532.875 703.472 534.475 700.723 537.099C700.097 537.697 699.458 537.496 699.26 536.688C693.333 512.669 687.407 488.65 681.481 464.631C681.283 463.823 681.597 462.712 682.217 462.118C683.889 460.516 684.804 459.638 686.68 457.833C687.202 457.332 687.769 457.247 688.098 457.631C690.633 460.594 693.783 462.111 700.056 456.57C700.719 455.984 701.376 456.136 701.571 456.92Z" fill="#9595EF"/>
    <path fill-rule="evenodd" clip-rule="evenodd" d="M701.571 456.92C702.111 459.106 702.382 460.199 702.922 462.385C703.122 463.193 702.758 464.353 702.088 465C700.033 466.978 698.921 468.05 696.714 470.178C695.992 470.874 695.569 472.093 695.77 472.899C700.277 490.947 704.785 508.995 709.293 527.043C709.495 527.849 709.065 529.075 708.334 529.781C705.128 532.875 703.472 534.475 700.723 537.099C700.097 537.697 699.458 537.496 699.26 536.688C693.333 512.669 687.407 488.65 681.481 464.631C681.283 463.823 681.597 462.712 682.217 462.118C683.889 460.516 684.804 459.638 686.68 457.833C687.202 457.332 687.769 457.247 688.098 457.631C690.633 460.594 693.783 462.111 700.056 456.57C700.719 455.984 701.376 456.136 701.571 456.92Z" stroke="black" stroke-width="1.291" stroke-linecap="round" stroke-linejoin="round"/>
    <path fill-rule="evenodd" clip-rule="evenodd" d="M541.602 460.655L550.363 463.854L551.849 456.68L549.097 449.759C544.565 438.359 536.208 434.083 525.09 438.399C522.792 439.29 520.834 440.37 519.213 441.624C518.571 442.12 517.996 442.651 517.455 443.189L512.774 449.043L514.122 448.613C512.773 452.641 513.172 457.451 515.324 462.864L530.054 499.911C534.587 511.31 544.315 519.149 554.063 511.271C557.5 508.492 561.231 507.448 563.18 504.709C563.815 506.667 563.179 512.347 564.085 514.172C568.123 506.813 567.85 496.924 563.827 486.805L554.843 464.211L538.987 470.364L536.288 478.827L540.251 480.317L542.166 478.359L543.033 480.542L548.181 478.544L553.401 491.673C555.425 496.762 553.888 499.473 550.284 500.871C546.68 502.27 543.687 501.317 541.663 496.228L526.368 457.756C524.344 452.667 525.84 449.854 529.443 448.456C533.048 447.058 536.082 448.113 538.105 453.202L540.628 459.545L539.665 459.791L540.954 460.367L541.141 460.835L541.602 460.655Z" fill="#9595EF"/>
    <path fill-rule="evenodd" clip-rule="evenodd" d="M541.602 460.655L550.363 463.854L551.849 456.68L549.097 449.759C544.565 438.359 536.208 434.083 525.09 438.399C522.792 439.29 520.834 440.37 519.213 441.624C518.571 442.12 517.996 442.651 517.455 443.189L512.774 449.043L514.122 448.613C512.773 452.641 513.172 457.451 515.324 462.864L530.054 499.911C534.587 511.31 544.315 519.149 554.063 511.271C557.5 508.492 561.231 507.448 563.18 504.709C563.815 506.667 561.819 514.201 562.726 516.026C566.764 508.668 567.85 496.924 563.827 486.805L554.843 464.211L538.987 470.364L536.288 478.827L540.251 480.317L542.166 478.359L543.033 480.542L548.181 478.544L553.401 491.673C555.425 496.762 553.888 499.473 550.284 500.871C546.68 502.27 543.687 501.317 541.663 496.228L526.368 457.756C524.344 452.667 525.84 449.854 529.443 448.456C533.048 447.058 536.082 448.113 538.105 453.202L540.628 459.545L539.665 459.791L540.954 460.367L541.141 460.835L541.602 460.655Z" stroke="black" stroke-width="1.3" stroke-linecap="round" stroke-linejoin="round"/>
    <path fill-rule="evenodd" clip-rule="evenodd" d="M535.839 479.069L553.094 472.336L562.867 497.054C567.798 509.525 564.34 519.098 552.24 523.82C540.139 528.542 531.047 523.865 526.117 511.394L510.093 470.866C505.162 458.395 508.618 448.821 520.72 444.099C532.821 439.378 541.912 444.055 546.843 456.525L549.836 464.097L538.183 468.643L534.882 460.293C532.681 454.725 529.38 453.572 525.459 455.102C521.536 456.632 519.909 459.711 522.109 465.277L538.749 507.364C540.951 512.931 544.208 513.974 548.129 512.443C552.052 510.913 553.723 507.947 551.522 502.38L545.843 488.017L540.241 490.203L535.839 479.069Z" fill="white"/>
    <path fill-rule="evenodd" clip-rule="evenodd" d="M535.839 479.069L553.094 472.336L562.867 497.054C567.798 509.525 564.34 519.098 552.24 523.82C540.139 528.542 531.047 523.865 526.117 511.394L510.093 470.866C505.162 458.395 508.618 448.821 520.72 444.099C532.821 439.378 541.912 444.055 546.843 456.525L549.836 464.097L538.183 468.643L534.882 460.293C532.681 454.725 529.38 453.572 525.459 455.102C521.536 456.632 519.909 459.711 522.109 465.277L538.749 507.364C540.951 512.931 544.208 513.974 548.129 512.443C552.052 510.913 553.723 507.947 551.522 502.38L545.843 488.017L540.241 490.203L535.839 479.069Z" stroke="black" stroke-width="1.3" stroke-linecap="round" stroke-linejoin="round"/>
    <path fill-rule="evenodd" clip-rule="evenodd" d="M761.825 534.901L765.942 543.194L771.884 538.932L774.613 531.982C779.103 520.534 776.008 511.723 765.092 507.348C762.836 506.444 760.695 505.909 758.681 505.731C757.882 505.66 757.109 505.659 756.354 505.688L749.014 506.813L750.275 507.411C746.569 509.454 743.588 513.258 741.455 518.695L726.857 555.903C722.366 567.351 724.024 579.711 736.378 580.536C740.736 580.827 744.123 582.592 747.386 581.902C746.511 583.772 742.194 587.512 741.606 589.467C749.503 586.801 756.028 579.352 760.014 569.19C760.016 569.189 768.918 546.497 768.918 546.497L753.349 540.258L745.661 544.645L747.494 548.427L750.199 548.288L749.34 550.48L754.394 552.506L749.221 565.691C747.215 570.803 744.27 571.752 740.731 570.333C737.194 568.916 735.691 566.185 737.696 561.074L752.854 522.435C754.86 517.324 757.846 516.273 761.384 517.692C764.923 519.109 766.384 521.942 764.379 527.053L761.879 533.424L761.022 532.952L761.557 534.249L761.372 534.719L761.825 534.901Z" fill="#9595EF"/>
    <path fill-rule="evenodd" clip-rule="evenodd" d="M761.825 534.901L765.942 543.194L771.884 538.932L774.613 531.982C779.103 520.534 776.008 511.723 765.092 507.348C762.836 506.444 760.695 505.909 758.681 505.731C757.882 505.66 757.109 505.659 756.354 505.688L749.014 506.813L750.275 507.411C746.569 509.454 743.588 513.258 741.455 518.695L726.857 555.903C722.366 567.351 724.024 579.711 736.378 580.536C740.736 580.827 744.123 582.592 747.386 581.902C746.511 583.772 742.194 587.512 741.606 589.467C749.503 586.801 756.028 579.352 760.014 569.19C760.016 569.189 768.918 546.497 768.918 546.497L753.349 540.258L745.661 544.645L747.494 548.427L750.199 548.288L749.34 550.48L754.394 552.506L749.221 565.691C747.215 570.803 744.27 571.752 740.731 570.333C737.194 568.916 735.691 566.185 737.696 561.074L752.854 522.435C754.86 517.324 757.846 516.273 761.384 517.692C764.923 519.109 766.384 521.942 764.379 527.053L761.879 533.424L761.022 532.952L761.557 534.249L761.372 534.719L761.825 534.901Z" stroke="black" stroke-width="1.3" stroke-linecap="round" stroke-linejoin="round"/>
    <path fill-rule="evenodd" clip-rule="evenodd" d="M745.469 544.36L762.539 551.191L752.779 576.035C747.854 588.569 738.832 593.248 726.862 588.458C714.891 583.667 711.498 574.021 716.422 561.488L732.428 520.751C737.351 508.216 746.372 503.538 758.343 508.329C770.314 513.119 773.707 522.765 768.783 535.299L765.793 542.909L754.265 538.296L757.563 529.903C759.761 524.307 758.158 521.205 754.279 519.653C750.399 518.101 747.125 519.251 744.927 524.846L728.307 567.149C726.109 572.745 727.757 575.735 731.635 577.288C735.516 578.84 738.744 577.801 740.944 572.206L746.615 557.769L741.073 555.551L745.469 544.36Z" fill="white"/>
    <path fill-rule="evenodd" clip-rule="evenodd" d="M745.469 544.36L762.539 551.191L752.779 576.035C747.854 588.569 738.832 593.248 726.862 588.458C714.891 583.667 711.498 574.021 716.422 561.488L732.428 520.751C737.351 508.216 746.372 503.538 758.343 508.329C770.314 513.119 773.707 522.765 768.783 535.299L765.793 542.909L754.265 538.296L757.563 529.903C759.761 524.307 758.158 521.205 754.279 519.653C750.399 518.101 747.125 519.251 744.927 524.846L728.307 567.149C726.109 572.745 727.757 575.735 731.635 577.288C735.516 578.84 738.744 577.801 740.944 572.206L746.615 557.769L741.073 555.551L745.469 544.36Z" stroke="black" stroke-width="1.3" stroke-linecap="round" stroke-linejoin="round"/>
    <path fill-rule="evenodd" clip-rule="evenodd" d="M708.669 630.034L722.973 609.464L686.145 546.565L664.653 546.681L661.198 562.68L677.049 606.95L708.669 630.034Z" fill="#9595EF"/>
    <path fill-rule="evenodd" clip-rule="evenodd" d="M708.669 630.034L722.973 609.464L686.145 546.565L664.653 546.681L661.198 562.68L677.049 606.95L708.669 630.034Z" stroke="black" stroke-width="1.291" stroke-linecap="round" stroke-linejoin="round"/>
    <path fill-rule="evenodd" clip-rule="evenodd" d="M665.112 624.712C665.965 624.725 666.87 624.078 667.654 623.518L674.058 618.472L677.301 606.399L661.124 562.044L659.269 625.516C661.132 624.964 663.096 624.68 665.112 624.712Z" fill="#9595EF"/>
    <path fill-rule="evenodd" clip-rule="evenodd" d="M665.112 624.712C665.965 624.725 666.87 624.078 667.654 623.518L674.058 618.472L677.301 606.399L661.124 562.044L659.269 625.516C661.132 624.964 663.096 624.68 665.112 624.712Z" stroke="black" stroke-width="1.291" stroke-linecap="round" stroke-linejoin="round"/>
    <path fill-rule="evenodd" clip-rule="evenodd" d="M661.506 603.488L663.465 578.753L673.492 602.159L661.506 603.488ZM659.551 626.113L659.916 620.433L680.601 617.981L687.643 632.503L708.648 630.208L664.569 546.223L650.484 549.862L640.572 627.821L659.551 626.113Z" fill="white"/>
    <path d="M661.505 603.488L660.857 603.437C660.842 603.63 660.914 603.82 661.053 603.955C661.192 604.09 661.384 604.155 661.577 604.134L661.505 603.488ZM663.465 578.753L664.062 578.497C663.944 578.222 663.654 578.063 663.359 578.112C663.064 578.16 662.84 578.404 662.817 578.702L663.465 578.753ZM673.492 602.159L673.564 602.805C673.768 602.782 673.95 602.664 674.054 602.486C674.157 602.308 674.17 602.092 674.089 601.903L673.492 602.159ZM659.551 626.113L659.609 626.76C659.928 626.732 660.179 626.474 660.2 626.154L659.551 626.113ZM659.915 620.434L659.839 619.788C659.527 619.825 659.287 620.079 659.267 620.392L659.915 620.434ZM680.6 617.981L681.185 617.697C681.064 617.448 680.799 617.303 680.524 617.335L680.6 617.981ZM687.643 632.503L687.058 632.787C687.178 633.034 687.44 633.179 687.713 633.149L687.643 632.503ZM708.648 630.209L708.718 630.855C708.932 630.831 709.121 630.704 709.222 630.514C709.323 630.324 709.323 630.097 709.223 629.907L708.648 630.209ZM664.568 546.223L665.144 545.921C665.003 545.654 664.698 545.518 664.406 545.594L664.568 546.223ZM650.484 549.863L650.321 549.233C650.063 549.3 649.872 549.517 649.839 549.781L650.484 549.863ZM640.571 627.821L639.926 627.739C639.901 627.934 639.966 628.13 640.103 628.272C640.24 628.414 640.433 628.486 640.629 628.468L640.571 627.821ZM662.153 603.539L664.113 578.804L662.817 578.702L660.857 603.437L662.153 603.539ZM662.867 579.009L672.894 602.415L674.089 601.903L664.062 578.497L662.867 579.009ZM673.42 601.513L661.434 602.842L661.577 604.134L673.564 602.805L673.42 601.513ZM660.2 626.154L660.564 620.475L659.267 620.392L658.902 626.071L660.2 626.154ZM659.992 621.079L680.677 618.626L680.524 617.335L659.839 619.788L659.992 621.079ZM680.015 618.265L687.058 632.787L688.228 632.219L681.185 617.697L680.015 618.265ZM687.713 633.149L708.718 630.855L708.577 629.562L687.572 631.857L687.713 633.149ZM709.223 629.907L665.144 545.921L663.993 546.525L708.072 630.511L709.223 629.907ZM664.406 545.594L650.321 549.233L650.646 550.492L664.731 546.853L664.406 545.594ZM649.839 549.781L639.926 627.739L641.216 627.903L651.128 549.945L649.839 549.781ZM640.629 628.468L659.609 626.76L659.493 625.465L640.513 627.174L640.629 628.468Z" fill="black"/>
    <path fill-rule="evenodd" clip-rule="evenodd" d="M505.267 558.395C502.209 558.306 501.092 559.638 503.061 563.283L506.012 568.747C502.462 568.653 500.716 568.61 497.264 568.546C496.206 566.561 495.677 565.569 494.618 563.584C490.262 555.411 492.225 550.751 501.605 551.119C510.791 551.479 518.715 556.364 523.259 564.345C530.322 576.753 516.399 584.685 520.174 594.189C520.308 594.529 520.567 594.918 520.848 595.284C527.945 595.452 531.422 595.573 539.107 595.835C540.66 598.752 541.437 600.211 542.99 603.129C533.768 602.788 524.542 602.515 515.314 602.407L511.968 596.13C504.303 584.823 519.923 575.782 513.426 564.367C510.914 559.955 508.325 558.484 505.267 558.395Z" fill="white"/>
    <path fill-rule="evenodd" clip-rule="evenodd" d="M504.713 558.214C501.655 558.125 500.538 559.458 502.506 563.102L505.458 568.567C501.907 568.472 500.162 568.429 496.71 568.365C495.652 566.38 495.122 565.388 494.064 563.403C489.707 555.23 491.67 550.571 501.051 550.938C510.237 551.299 518.161 556.183 522.705 564.164C529.768 576.572 515.845 584.504 519.619 594.008C519.754 594.348 520.013 594.737 520.294 595.104C527.391 595.272 530.868 595.392 538.553 595.654C540.106 598.572 540.882 600.031 542.436 602.948C533.214 602.607 523.988 602.335 514.76 602.226L511.414 595.949C503.748 584.642 519.369 575.601 512.872 564.186C510.36 559.775 507.771 558.303 504.713 558.214Z" stroke="black" stroke-width="1.2" stroke-linecap="round" stroke-linejoin="round"/>
    <path fill-rule="evenodd" clip-rule="evenodd" d="M484.783 566.711L493.155 553.232C493.155 553.232 502.128 546.986 514.762 555.916C525.364 563.409 524.47 572.331 524.448 572.606C524.441 572.714 524.308 574.947 523.15 578.147C521.382 583.04 518.367 589.795 518.752 591.535C519.389 594.413 520.06 595.509 520.06 595.509L538.196 596.059L542.053 603.365L534.737 615.138L524.223 610.808L506.821 607.909L510.953 584.018L508.046 573.249L497.64 567.54L484.783 566.711Z" fill="white"/>
    <path fill-rule="evenodd" clip-rule="evenodd" d="M484.783 566.711L493.155 553.232C493.155 553.232 502.128 546.986 514.762 555.916C525.364 563.409 524.47 572.331 524.448 572.606C524.441 572.714 524.308 574.947 523.15 578.147C521.382 583.04 518.367 589.795 518.752 591.535C519.389 594.413 520.06 595.509 520.06 595.509L538.196 596.059L542.053 603.365L534.737 615.138L524.223 610.808L506.821 607.909L510.953 584.018L508.046 573.249L497.64 567.54L484.783 566.711Z" stroke="black" stroke-width="1.2" stroke-linecap="round" stroke-linejoin="round"/>
    <path fill-rule="evenodd" clip-rule="evenodd" d="M497.789 580.934L489.227 580.733L495.238 568.754L502.436 571.503L497.789 580.934Z" fill="white"/>
    <path fill-rule="evenodd" clip-rule="evenodd" d="M497.789 580.934L489.227 580.733L495.238 568.754L502.436 571.503L497.789 580.934Z" stroke="black" stroke-width="1.2" stroke-linecap="round" stroke-linejoin="round"/>
    <path fill-rule="evenodd" clip-rule="evenodd" d="M497.611 570.413C494.554 570.325 493.436 571.657 495.405 575.301C496.584 577.487 497.175 578.581 498.356 580.766C494.805 580.672 493.06 580.629 489.608 580.565C488.55 578.58 488.021 577.587 486.963 575.603C482.606 567.429 484.568 562.77 493.949 563.138C503.135 563.498 511.06 568.383 515.604 576.363C522.667 588.772 508.744 596.704 512.518 606.207C512.652 606.548 512.911 606.936 513.194 607.303C520.291 607.471 523.766 607.592 531.452 607.853C533.005 610.771 533.781 612.23 535.335 615.148C526.112 614.807 516.886 614.534 507.658 614.425C506.32 611.915 505.65 610.659 504.313 608.149C496.647 596.841 512.268 587.8 505.77 576.386C503.258 571.974 500.669 570.503 497.611 570.413Z" fill="#9595EF"/>
    <path fill-rule="evenodd" clip-rule="evenodd" d="M497.611 570.413C494.554 570.325 493.436 571.657 495.405 575.301C496.584 577.487 497.175 578.581 498.356 580.766C494.805 580.672 493.06 580.629 489.608 580.565C488.55 578.58 488.021 577.587 486.963 575.603C482.606 567.429 484.568 562.77 493.949 563.138C503.135 563.498 511.06 568.383 515.604 576.363C522.667 588.772 508.744 596.704 512.518 606.207C512.652 606.548 512.911 606.936 513.194 607.303C520.291 607.471 523.766 607.592 531.452 607.853C533.005 610.771 533.781 612.23 535.335 615.148C526.112 614.807 516.886 614.534 507.658 614.425C506.32 611.915 505.65 610.659 504.313 608.149C496.647 596.841 512.268 587.8 505.77 576.386C503.258 571.974 500.669 570.503 497.611 570.413Z" stroke="black" stroke-width="1.2" stroke-linecap="round" stroke-linejoin="round"/>
    <path fill-rule="evenodd" clip-rule="evenodd" d="M531.176 607.488L538.672 595.919L531.176 607.488Z" fill="white"/>
    <path d="M531.176 607.488L538.672 595.919" stroke="black" stroke-width="1.2" stroke-linecap="round" stroke-linejoin="round"/>
    <path fill-rule="evenodd" clip-rule="evenodd" d="M606.114 437.019C604.677 450.101 622.676 452.238 620.12 465.683C619.888 468.523 619.771 469.944 619.539 472.785C611.079 476.54 602.686 480.443 594.324 484.41C594.591 481.108 594.726 479.458 594.993 476.157C601.971 472.873 605.126 471.386 611.598 468.42C611.713 467.97 611.796 467.511 611.785 467.144C611.474 456.902 595.481 455.113 597.043 440.893C598.048 431.747 603.403 424.112 611.725 420.143C620.222 416.09 623.889 419.601 623.132 428.852C622.949 431.097 622.856 432.22 622.673 434.466C619.517 435.892 617.927 436.623 614.692 438.116C614.908 435.636 615.016 434.396 615.234 431.917C615.594 427.783 614.033 426.999 611.251 428.292C608.468 429.583 606.669 431.963 606.114 437.019Z" fill="white"/>
    <path fill-rule="evenodd" clip-rule="evenodd" d="M606.114 437.019C604.677 450.101 622.676 452.238 620.12 465.683C619.888 468.523 619.771 469.944 619.539 472.785C611.079 476.54 602.686 480.443 594.324 484.41C594.591 481.108 594.726 479.458 594.993 476.157C601.971 472.873 605.126 471.386 611.598 468.42C611.713 467.97 611.796 467.511 611.785 467.144C611.474 456.902 595.481 455.113 597.043 440.893C598.048 431.747 603.403 424.112 611.725 420.143C620.222 416.09 623.889 419.601 623.132 428.852C622.949 431.097 622.856 432.22 622.673 434.466C619.517 435.892 617.927 436.623 614.692 438.116C614.908 435.636 615.016 434.396 615.234 431.917C615.594 427.783 614.033 426.999 611.251 428.292C608.468 429.583 606.669 431.963 606.114 437.019Z" stroke="black" stroke-width="1.2" stroke-linecap="round" stroke-linejoin="round"/>
    <path fill-rule="evenodd" clip-rule="evenodd" d="M632.546 427.656L619.529 418.61C619.529 418.61 608.814 416.449 600.714 429.691C593.918 440.8 598.259 448.642 598.386 448.885C598.438 448.981 599.44 450.98 601.767 453.459C605.324 457.248 610.76 462.252 611.093 464.003C611.643 466.901 611.458 468.177 611.458 468.177L594.991 475.912L594.328 484.162L605.7 492.061L613.663 483.89L628.526 474.288L615.302 453.988L613.727 442.936L621.048 433.543L632.546 427.656Z" fill="white"/>
    <path fill-rule="evenodd" clip-rule="evenodd" d="M632.546 427.656L619.529 418.61C619.529 418.61 608.814 416.449 600.714 429.691C593.918 440.8 598.259 448.642 598.386 448.885C598.438 448.981 599.44 450.98 601.767 453.459C605.324 457.248 610.76 462.252 611.093 464.003C611.643 466.901 611.458 468.177 611.458 468.177L594.991 475.912L594.328 484.162L605.7 492.061L613.663 483.89L628.526 474.288L615.302 453.988L613.727 442.936L621.048 433.543L632.546 427.656Z" stroke="black" stroke-width="1.2" stroke-linecap="round" stroke-linejoin="round"/>
    <path fill-rule="evenodd" clip-rule="evenodd" d="M626.271 445.694L634.186 441.924L624.048 433.519L618.37 439.042L626.271 445.694Z" fill="white"/>
    <path fill-rule="evenodd" clip-rule="evenodd" d="M626.271 445.694L634.186 441.924L624.048 433.519L618.37 439.042L626.271 445.694Z" stroke="black" stroke-width="1.2" stroke-linecap="round" stroke-linejoin="round"/>
    <path fill-rule="evenodd" clip-rule="evenodd" d="M618.122 444.681C616.686 457.762 634.684 459.899 632.128 473.344C631.896 476.185 631.781 477.605 631.548 480.447C623.087 484.201 614.695 488.105 606.332 492.071C606.6 488.77 606.734 487.12 607.003 483.818C613.979 480.534 617.134 479.046 623.608 476.081C623.721 475.632 623.805 475.173 623.793 474.806C623.482 464.563 607.489 462.774 609.052 448.554C610.057 439.409 615.413 431.773 623.734 427.804C632.232 423.751 635.898 427.263 635.14 436.513C634.957 438.759 634.865 439.881 634.682 442.128C631.525 443.554 629.935 444.285 626.7 445.778C626.917 443.297 627.025 442.057 627.242 439.577C627.602 435.444 626.041 434.66 623.259 435.953C620.476 437.245 618.678 439.626 618.122 444.681Z" fill="#9595EF"/>
    <path fill-rule="evenodd" clip-rule="evenodd" d="M618.122 444.681C616.686 457.762 634.684 459.899 632.128 473.344C631.896 476.185 631.781 477.605 631.548 480.447C623.087 484.201 614.695 488.105 606.332 492.071C606.6 488.77 606.734 487.12 607.003 483.818C613.979 480.534 617.134 479.046 623.608 476.081C623.721 475.632 623.805 475.173 623.793 474.806C623.482 464.563 607.489 462.774 609.052 448.554C610.057 439.409 615.413 431.773 623.734 427.804C632.232 423.751 635.898 427.263 635.14 436.513C634.957 438.759 634.865 439.881 634.682 442.128C631.525 443.554 629.935 444.285 626.7 445.778C626.917 443.297 627.025 442.057 627.242 439.577C627.602 435.444 626.041 434.66 623.259 435.953C620.476 437.245 618.678 439.626 618.122 444.681Z" stroke="black" stroke-width="1.2" stroke-linecap="round" stroke-linejoin="round"/>
    <path fill-rule="evenodd" clip-rule="evenodd" d="M606.908 484.079L595.696 476.121L606.908 484.079Z" fill="white"/>
    <path d="M606.908 484.079L595.696 476.121" stroke="black" stroke-width="1.2" stroke-linecap="round" stroke-linejoin="round"/>
</svg>
