<svg width="161" height="210" viewBox="0 0 161 210" fill="none" xmlns="http://www.w3.org/2000/svg">
    <path fill-rule="evenodd" clip-rule="evenodd" d="M40.4764 2.17888L155.962 69.1161C158.459 70.5432 160 73.1987 160 76.0746V189.376C160 195.514 153.383 199.372 148.041 196.351L32.5552 130.081C30.0416 128.659 28.4878 125.995 28.4878 123.107V9.13542C28.4878 2.98461 35.1351 -0.873824 40.4764 2.17888Z" fill="white"/>
    <path fill-rule="evenodd" clip-rule="evenodd" d="M40.4764 2.17888L155.962 69.1161C158.459 70.5432 160 73.1987 160 76.0746V189.376C160 195.514 153.383 199.372 148.041 196.351L32.5552 130.081C30.0416 128.659 28.4878 125.995 28.4878 123.107V9.13542C28.4878 2.98461 35.1351 -0.873824 40.4764 2.17888Z" stroke="black" stroke-width="2" stroke-linejoin="round"/>
    <path fill-rule="evenodd" clip-rule="evenodd" d="M136.311 208.074L158.235 194.402C158.235 194.402 160 195.234 160 184.289V77.0511C160 77.0511 160 72.5875 157.546 70.3074C155.689 68.5815 40.4763 2.17854 40.4763 2.17854C40.4763 2.17854 36.251 -0.385237 32.733 2.04993C29.5678 4.23827 13.7217 13.1543 13.7217 13.1543L136.311 208.074Z" fill="white"/>
    <path fill-rule="evenodd" clip-rule="evenodd" d="M136.311 208.074L158.235 194.402C158.235 194.402 160 195.234 160 184.289V77.0511C160 77.0511 160 72.5875 157.546 70.3074C155.689 68.5815 40.4763 2.17854 40.4763 2.17854C40.4763 2.17854 36.251 -0.385237 32.733 2.04993C29.5678 4.23827 13.7217 13.1543 13.7217 13.1543L136.311 208.074Z" fill="#9595EF" stroke="black" stroke-width="2" stroke-linejoin="round"/>
    <path fill-rule="evenodd" clip-rule="evenodd" d="M22.158 12.8528L137.644 79.7901C140.14 81.2172 141.682 83.8717 141.682 86.7476V200.049C141.682 206.187 135.065 210.046 129.723 207.024L14.2369 140.754C11.7242 139.333 10.1694 136.669 10.1694 133.781V19.8094C10.1694 13.6576 16.8167 9.80013 22.158 12.8528Z" fill="white"/>
    <path fill-rule="evenodd" clip-rule="evenodd" d="M22.158 12.8528L137.644 79.7901C140.14 81.2172 141.682 83.8717 141.682 86.7476V200.049C141.682 206.187 135.065 210.046 129.723 207.024L14.2369 140.754C11.7242 139.333 10.1694 136.669 10.1694 133.781V19.8094C10.1694 13.6576 16.8167 9.80013 22.158 12.8528Z" stroke="black" stroke-width="2" stroke-linejoin="round"/>
    <path fill-rule="evenodd" clip-rule="evenodd" d="M22.158 12.853L137.644 78.8445C140.14 80.2716 141.682 82.9262 141.682 85.802V85.6205V99.2574L10.1694 23.9223V19.3518V18.8638C10.1694 14.6356 16.8167 9.80027 22.158 12.853Z" fill="white"/>
    <path fill-rule="evenodd" clip-rule="evenodd" d="M22.158 12.853L137.644 78.8445C140.14 80.2716 141.682 82.9262 141.682 85.802V85.6204V99.2574L10.1694 23.9223V19.3518V18.8638C10.1694 14.6356 16.8167 9.80027 22.158 12.853Z" stroke="black" stroke-width="2" stroke-linejoin="round"/>
    <path fill-rule="evenodd" clip-rule="evenodd" d="M142.836 80.6762L155.523 73.4255L142.836 80.6762Z" fill="white"/>
    <path d="M141 82.5L159 72.5" stroke="black" stroke-width="2" stroke-linecap="round" stroke-linejoin="round"/>
    <path fill-rule="evenodd" clip-rule="evenodd" d="M55.2556 129.722C49.4207 120.048 43.5555 110.393 37.7688 100.69C37.8066 90.1979 37.8529 79.7063 37.8378 69.2148C25.0038 60.2458 11.6449 66.6661 12.0355 82.6228C12.4544 99.7598 22.8296 119.258 37.7404 126.681C38.3163 126.967 38.9112 127.259 39.5174 127.545L44.2279 135.343L55.2556 129.722Z" fill="#9595EF"/>
    <path fill-rule="evenodd" clip-rule="evenodd" d="M55.2556 129.722C49.4207 120.048 43.5555 110.393 37.7688 100.69C37.8066 90.1979 37.8529 79.7063 37.8378 69.2148C25.0038 60.2458 11.6449 66.6661 12.0355 82.6228C12.4544 99.7598 22.8296 119.258 37.7404 126.681C38.3163 126.967 38.9112 127.259 39.5174 127.545L44.2279 135.343L55.2556 129.722Z" stroke="black" stroke-width="2" stroke-linejoin="round"/>
    <path fill-rule="evenodd" clip-rule="evenodd" d="M26.7407 106.312C26.7795 95.8192 26.8249 85.3286 26.8098 74.8361C13.9767 65.8671 0.61779 72.2874 1.00836 88.2451C1.42731 105.382 11.8025 124.88 26.7124 132.302C31.7794 134.824 38.1449 137.672 44.2276 135.344C38.3936 125.669 32.5274 116.014 26.7407 106.312Z" fill="white"/>
    <path fill-rule="evenodd" clip-rule="evenodd" d="M26.7407 106.312C26.7795 95.8192 26.8249 85.3286 26.8098 74.8361C13.9767 65.8671 0.61779 72.2874 1.00836 88.2451C1.42731 105.382 11.8025 124.88 26.7124 132.302C31.7794 134.824 38.1449 137.672 44.2276 135.344C38.3936 125.669 32.5274 116.014 26.7407 106.312Z" stroke="black" stroke-width="2" stroke-linejoin="round"/>
    <path fill-rule="evenodd" clip-rule="evenodd" d="M7.97559 72.7432C7.97559 72.7432 20.821 66.0675 21.969 65.7649C23.1162 65.4632 31.078 63.3695 37.8378 69.2148L26.8101 74.836C26.8101 74.836 19.4639 67.8105 7.97559 72.7432Z" fill="white"/>
    <path fill-rule="evenodd" clip-rule="evenodd" d="M7.97559 72.7432C7.97559 72.7432 20.821 66.0675 21.969 65.7649C23.1162 65.4632 31.078 63.3695 37.8378 69.2148L26.8101 74.836C26.8101 74.836 19.4639 67.8105 7.97559 72.7432Z" stroke="black" stroke-width="2" stroke-linejoin="round"/>
    <path fill-rule="evenodd" clip-rule="evenodd" d="M65.7053 90.0538C65.1757 88.7904 64.3643 87.0106 63.2437 84.9206L63.2418 84.9139H63.2408C62.3084 83.1776 61.1641 81.2267 59.7862 79.1774C55.7292 73.1391 50.6716 67.6295 44.7222 63.3653V63.3615L44.605 63.2812C44.1397 62.9492 43.6697 62.623 43.1921 62.3062L32.1653 67.9283C32.971 69.9332 39.5086 75.1241 43.2526 77.9801C43.263 83.2334 43.2659 88.4858 43.2649 93.7382C46.6713 93.5954 50.0805 93.446 53.485 93.2474L55.4852 97.7461L66.5129 92.1239C66.2604 91.4336 65.9928 90.7413 65.7053 90.0538Z" fill="white"/>
    <path fill-rule="evenodd" clip-rule="evenodd" d="M65.7053 90.0538C65.1757 88.7904 64.3643 87.0106 63.2437 84.9206L63.2418 84.9139H63.2408C62.3084 83.1776 61.1641 81.2267 59.7862 79.1774C55.7292 73.1391 50.6716 67.6295 44.7222 63.3653V63.3615L44.605 63.2812C44.1397 62.9492 43.6697 62.623 43.1921 62.3062L32.1653 67.9283C32.971 69.9332 39.5086 75.1241 43.2526 77.9801C43.263 83.2334 43.2659 88.4858 43.2649 93.7382C46.6713 93.5954 50.0805 93.446 53.485 93.2474L55.4852 97.7461L66.5129 92.1239C66.2604 91.4336 65.9928 90.7413 65.7053 90.0538Z" stroke="black" stroke-width="2" stroke-linejoin="round"/>
    <path fill-rule="evenodd" clip-rule="evenodd" d="M55.4854 97.7458C55.232 97.0554 54.9653 96.3622 54.6778 95.6756C53.7094 93.3615 51.7963 89.3177 48.7596 84.7992C44.3574 78.2493 38.7816 72.317 32.1655 67.928C32.2251 78.4053 32.2402 88.8827 32.2365 99.3601C39.9978 99.0338 47.7704 98.6924 55.4854 97.7458Z" fill="white"/>
    <path fill-rule="evenodd" clip-rule="evenodd" d="M55.4854 97.7458C55.232 97.0554 54.9653 96.3622 54.6778 95.6756C53.7094 93.3615 51.7963 89.3177 48.7596 84.7992C44.3574 78.2493 38.7816 72.317 32.1655 67.928C32.2251 78.4053 32.2402 88.8827 32.2365 99.3601C39.9978 99.0338 47.7704 98.6924 55.4854 97.7458Z" stroke="black" stroke-width="2" stroke-linejoin="round"/>
    <path fill-rule="evenodd" clip-rule="evenodd" d="M68.8934 99.4202C61.1954 100.407 53.435 100.769 45.686 101.087L34.6592 106.709L48.6063 105.936C52.0278 111.612 55.4427 117.29 58.8416 122.98L51.8708 124.574V135.405C51.8708 135.405 57.5072 134.149 63.1747 131.251C63.2126 131.232 63.4698 131.119 63.5001 131.091C69.3766 127.922 70.9446 118.785 71.3909 113.293C71.7285 109.135 70.5814 104.116 68.8934 99.4202Z" fill="#9595EF"/>
    <path fill-rule="evenodd" clip-rule="evenodd" d="M68.8934 99.4202C61.1954 100.407 53.435 100.769 45.686 101.087L34.6592 106.709L48.6063 105.936C52.0278 111.612 55.4427 117.29 58.8416 122.98L51.8708 124.574V135.405C51.8708 135.405 57.5072 134.149 63.1747 131.251C63.2126 131.232 63.4698 131.119 63.5001 131.091C69.3766 127.922 70.9446 118.785 71.3909 113.293C71.7285 109.135 70.5814 104.116 68.8934 99.4202Z" stroke="black" stroke-width="2" stroke-linejoin="round"/>
    <path fill-rule="evenodd" clip-rule="evenodd" d="M57.8665 105.042C50.1676 106.028 42.4082 106.39 34.6592 106.709C40.4071 116.268 46.1967 125.801 51.8708 135.404C58.6146 132.559 59.8932 124.703 60.3641 118.914C60.7017 114.757 59.5537 109.737 57.8665 105.042Z" fill="white"/>
    <path fill-rule="evenodd" clip-rule="evenodd" d="M57.8665 105.042C50.1676 106.028 42.4082 106.39 34.6592 106.709C40.4071 116.268 46.1967 125.801 51.8708 135.404C58.6146 132.559 59.8932 124.703 60.3641 118.914C60.7017 114.757 59.5537 109.737 57.8665 105.042Z" stroke="black" stroke-width="2" stroke-linejoin="round"/>
    <path fill-rule="evenodd" clip-rule="evenodd" d="M57.8665 105.042L68.8933 99.4204L57.8665 105.042Z" fill="white"/>
    <path d="M57.8665 105.042L68.8933 99.4204" stroke="black" stroke-width="2" stroke-linejoin="round"/>
    <path fill-rule="evenodd" clip-rule="evenodd" d="M131.487 85.3888C131.43 87.7039 129.218 88.4661 127.445 87.3124C125.384 85.9714 124.017 83.1116 124.143 80.6689C124.259 78.4484 125.977 77.3485 127.943 78.6668C130.027 80.0636 131.547 82.8686 131.487 85.3888Z" fill="#9595EF"/>
    <path fill-rule="evenodd" clip-rule="evenodd" d="M122.274 79.4763C122.217 81.7905 120.005 82.5536 118.232 81.3989C116.171 80.058 114.804 77.1991 114.93 74.7564C115.046 72.5349 116.764 71.4351 118.73 72.7543C120.813 74.1511 122.335 76.9551 122.274 79.4763Z" fill="#9595EF"/>
    <path fill-rule="evenodd" clip-rule="evenodd" d="M112.917 73.5382C112.861 75.8533 110.649 76.6155 108.875 75.4617C106.815 74.1207 105.447 71.261 105.574 68.8182C105.689 66.5968 107.408 65.4979 109.374 66.8162C111.458 68.213 112.979 71.0179 112.917 73.5382Z" fill="#9595EF"/>
    <path fill-rule="evenodd" clip-rule="evenodd" d="M90.6064 154.576V79.7205L100.046 84.8301V160.484L90.6064 154.576Z" fill="white"/>
    <path fill-rule="evenodd" clip-rule="evenodd" d="M90.6064 154.576V79.7205L100.046 84.8301V160.484L90.6064 154.576Z" stroke="black" stroke-width="2" stroke-linejoin="round"/>
    <path fill-rule="evenodd" clip-rule="evenodd" d="M82.1194 160.02V84.2173L91.5593 89.3278V164.982L82.1194 160.02Z" fill="white"/>
    <path fill-rule="evenodd" clip-rule="evenodd" d="M82.1194 160.02V84.2173L91.5593 89.3278V164.982L82.1194 160.02Z" stroke="black" stroke-width="2" stroke-linejoin="round"/>
    <path fill-rule="evenodd" clip-rule="evenodd" d="M82.1194 84.217L90.607 79.7202L100.047 84.8298L91.5593 89.3275L82.1194 84.217Z" fill="#9595EF"/>
    <path fill-rule="evenodd" clip-rule="evenodd" d="M82.1194 84.217L90.607 79.7202L100.047 84.8298L91.5593 89.3275L82.1194 84.217Z" stroke="black" stroke-width="2" stroke-linejoin="round"/>
    <path fill-rule="evenodd" clip-rule="evenodd" d="M91.5598 164.982L100.047 160.484V84.8303L91.5598 89.328V164.982Z" fill="white"/>
    <path fill-rule="evenodd" clip-rule="evenodd" d="M91.5598 164.982L100.047 160.484V84.8303L91.5598 89.328V164.982Z" stroke="black" stroke-width="2" stroke-linejoin="round"/>
    <path fill-rule="evenodd" clip-rule="evenodd" d="M105.884 163.894V103.223L115.323 108.333V169.802L105.884 163.894Z" fill="white"/>
    <path fill-rule="evenodd" clip-rule="evenodd" d="M105.884 163.894V103.223L115.323 108.333V169.802L105.884 163.894Z" stroke="black" stroke-width="2" stroke-linejoin="round"/>
    <path fill-rule="evenodd" clip-rule="evenodd" d="M97.3965 169.336V107.72L106.836 112.83V174.299L97.3965 169.336Z" fill="white"/>
    <path fill-rule="evenodd" clip-rule="evenodd" d="M97.3965 169.336V107.72L106.836 112.83V174.299L97.3965 169.336Z" stroke="black" stroke-width="2" stroke-linejoin="round"/>
    <path fill-rule="evenodd" clip-rule="evenodd" d="M97.3965 107.72L105.884 103.222L115.324 108.333L106.836 112.829L97.3965 107.72Z" fill="#9595EF"/>
    <path fill-rule="evenodd" clip-rule="evenodd" d="M97.3965 107.72L105.884 103.222L115.324 108.333L106.836 112.829L97.3965 107.72Z" stroke="black" stroke-width="2" stroke-linejoin="round"/>
    <path fill-rule="evenodd" clip-rule="evenodd" d="M106.837 174.299L115.324 169.801V108.333L106.837 112.83V174.299Z" fill="white"/>
    <path fill-rule="evenodd" clip-rule="evenodd" d="M106.837 174.299L115.324 169.801V108.333L106.837 112.83V174.299Z" stroke="black" stroke-width="2" stroke-linejoin="round"/>
    <path fill-rule="evenodd" clip-rule="evenodd" d="M119.567 171.392L120.513 124.906L129.007 130.017V177.299L119.567 171.392Z" fill="white"/>
    <path fill-rule="evenodd" clip-rule="evenodd" d="M119.567 171.392L120.513 124.906L129.007 130.017V177.299L119.567 171.392Z" stroke="black" stroke-width="2" stroke-linejoin="round"/>
    <path fill-rule="evenodd" clip-rule="evenodd" d="M111.08 176.834V129.404L120.52 134.514V181.797L111.08 176.834Z" fill="white"/>
    <path fill-rule="evenodd" clip-rule="evenodd" d="M111.08 176.834V129.404L120.52 134.514V181.797L111.08 176.834Z" stroke="black" stroke-width="2" stroke-linejoin="round"/>
    <path fill-rule="evenodd" clip-rule="evenodd" d="M111.08 129.403L120.514 124.906L129.008 130.016L120.52 134.514L111.08 129.403Z" fill="#9595EF"/>
    <path fill-rule="evenodd" clip-rule="evenodd" d="M111.08 129.403L120.514 124.906L129.008 130.016L120.52 134.514L111.08 129.403Z" stroke="black" stroke-width="2" stroke-linejoin="round"/>
    <path fill-rule="evenodd" clip-rule="evenodd" d="M120.521 181.797L129.008 177.3V130.017L120.521 134.515V181.797Z" fill="white"/>
    <path fill-rule="evenodd" clip-rule="evenodd" d="M120.521 181.797L129.008 177.3V130.017L120.521 134.515V181.797Z" stroke="black" stroke-width="2" stroke-linejoin="round"/>
</svg>
