<svg width="245" height="226" viewBox="0 0 245 226" fill="none" xmlns="http://www.w3.org/2000/svg">
    <path fill-rule="evenodd" clip-rule="evenodd" d="M21.1834 117.182C22.6411 90.1961 57.9457 86.9511 127.426 108.35C196.906 129.749 181.985 169.308 159.72 187.004C148.587 195.852 122.715 210.447 100.815 208.162C78.9164 205.876 62.5019 182.937 53.741 170.947C35.7601 146.34 19.7257 144.167 21.1834 117.182Z" fill="#C3C3F6"/>
    <path d="M1 58.5L92 17L123.5 25" stroke="black" stroke-width="2"/>
    <path d="M92.5 133L1.5 174.5L30 184.5L124 141L92.5 133Z" fill="white" stroke="black" stroke-width="2" stroke-linejoin="round"/>
    <path d="M1 58.5L30 69V168L1 157V58.5Z" fill="white" stroke="black" stroke-width="2" stroke-linejoin="round"/>
    <path d="M1.5 174L30.5 184.5V198.5L1.5 187.5V174Z" fill="white" stroke="black" stroke-width="2" stroke-linejoin="round"/>
    <path fill-rule="evenodd" clip-rule="evenodd" d="M123 25L123 123.887L30.5 167.387L30.5002 68.5L123 25Z" fill="white" stroke="black" stroke-width="2" stroke-linejoin="round"/>
    <path fill-rule="evenodd" clip-rule="evenodd" d="M123 140.5L123 154.887L30.5 198.387L30.5 184L123 140.5Z" fill="white" stroke="black" stroke-width="2" stroke-linejoin="round"/>
    <path fill-rule="evenodd" clip-rule="evenodd" d="M114.5 43L114.5 113.838L45 146.421L45.0001 75.583L114.5 43Z" fill="white" stroke="black" stroke-width="2" stroke-linejoin="round" stroke-dasharray="15 5"/>
    <path fill-rule="evenodd" clip-rule="evenodd" d="M103.444 189.488L120.815 184.54L140.626 124.15L129.977 113.394C129.977 113.394 126.814 111.012 122.603 111.776C118.391 112.539 108.741 112.965 101.596 123.251C99.1011 126.842 96.2674 137.254 93.2856 146.997C89.4778 159.444 85.9891 172.029 85.9891 172.029C85.9891 172.029 83.8728 181.234 89.3671 186.83L97.9128 194.981" fill="white"/>
    <path d="M103.444 189.488L120.815 184.54L140.626 124.15L129.977 113.394C129.977 113.394 126.814 111.012 122.603 111.776C118.391 112.539 108.741 112.965 101.596 123.251C99.1011 126.842 96.2674 137.254 93.2856 146.997C89.4778 159.444 85.9891 172.029 85.9891 172.029C85.9891 172.029 83.8728 181.234 89.3671 186.83L97.9128 194.981" stroke="black" stroke-width="2"/>
    <path fill-rule="evenodd" clip-rule="evenodd" d="M131.342 173.74C128.381 185.114 118.87 193.483 107.728 196.176C97.3336 198.689 91.6766 191.899 94.74 181.562C98.6183 168.461 102.495 155.36 106.375 142.259C109.495 131.334 119.254 122.361 130.138 120.765C140.775 119.205 145.181 127.724 142.279 136.822C138.634 149.128 134.988 161.435 131.342 173.74Z" fill="#9595EF"/>
    <path d="M131.342 173.74C128.381 185.114 118.87 193.483 107.728 196.176C97.3336 198.689 91.6766 191.899 94.74 181.562C98.6183 168.461 102.495 155.36 106.375 142.259C109.495 131.334 119.254 122.361 130.138 120.765C140.775 119.205 145.181 127.724 142.279 136.822C138.634 149.128 134.988 161.435 131.342 173.74" stroke="black" stroke-width="2"/>
    <path fill-rule="evenodd" clip-rule="evenodd" d="M121.736 172.056C120.63 176.305 117.076 179.432 112.914 180.438C109.031 181.376 106.917 178.84 108.062 174.978C109.511 170.084 115.233 150.852 116.683 145.958C117.848 141.876 121.494 138.524 125.56 137.927C129.534 137.345 131.18 140.527 130.096 143.926C128.734 148.524 123.098 167.459 121.736 172.056Z" fill="white" stroke="black" stroke-width="2"/>
    <path fill-rule="evenodd" clip-rule="evenodd" d="M74.0934 109.811L61.9154 114.735L23.56 88.9397L24.8626 78.0093C24.8626 78.0093 25.6131 75.2291 28.3703 73.7851C31.1281 72.3406 36.8551 68.2726 45.5515 70.9805C48.5876 71.9259 54.8668 76.6336 60.9322 80.8913C68.6795 86.3307 76.3056 91.9923 76.3056 91.9923C76.3056 91.9923 81.6338 96.328 80.9824 101.994L79.7218 110.49" fill="white"/>
    <path d="M74.0934 109.811L61.9154 114.735L23.56 88.9397L24.8626 78.0093C24.8626 78.0093 25.6131 75.2291 28.3703 73.7851C31.1281 72.3406 36.8551 68.2726 45.5515 70.9805C48.5876 71.9259 54.8668 76.6336 60.9322 80.8913C68.6795 86.3307 76.3056 91.9923 76.3056 91.9923C76.3056 91.9923 81.6338 96.328 80.9824 101.994L79.7218 110.49" stroke="black" stroke-width="2"/>
    <path fill-rule="evenodd" clip-rule="evenodd" d="M51.0491 113.243C57.8312 118.445 67.0283 118.997 74.6248 115.562C81.7114 112.359 81.9226 105.935 75.5452 101.373C67.465 95.5897 59.3855 89.8057 51.3048 84.023C44.6321 79.1489 35.0221 78.3618 28.0643 82.3102C21.2641 86.1689 22.5433 93.0261 28.2749 96.9494C35.8657 102.381 43.4577 107.812 51.0491 113.243Z" fill="#9595EF"/>
    <path d="M51.0491 113.243C57.8312 118.445 67.0283 118.997 74.6248 115.562C81.7114 112.359 81.9226 105.935 75.5452 101.373C67.465 95.5897 59.3855 89.8057 51.3048 84.023C44.6321 79.1489 35.0221 78.3618 28.0643 82.3102C21.2642 86.1689 22.5433 93.0261 28.2749 96.9494C35.8657 102.381 43.4577 107.812 51.0491 113.243" stroke="black" stroke-width="2"/>
    <path fill-rule="evenodd" clip-rule="evenodd" d="M55.8078 107.984C58.3416 109.927 61.7775 110.133 64.6155 108.85C67.263 107.653 67.3419 105.253 64.9593 103.549C61.9407 101.388 50.0624 92.9117 47.0435 90.7513C44.5507 88.9304 40.9604 88.6364 38.3611 90.1115C35.8206 91.553 36.2985 94.1148 38.4398 95.5805C41.2756 97.6097 52.9718 105.955 55.8078 107.984Z" fill="white" stroke="black" stroke-width="2"/>
    <path fill-rule="evenodd" clip-rule="evenodd" d="M232.106 116.481L241.407 109.489L209.151 6.25952L200.828 14.8608L232.106 116.481Z" fill="white" stroke="black" stroke-width="2" stroke-linejoin="round"/>
    <path fill-rule="evenodd" clip-rule="evenodd" d="M208.832 6.69085L201.433 14.2946L189.62 12.0091C189.62 12.0091 188.431 19.7381 183.425 20.258C178.421 20.7761 172.057 19.6968 172.057 19.6968L179.513 11.5094C179.513 11.5094 183.63 11.8884 186.303 11.9178C188.976 11.9487 192.237 11.5898 194.459 8.46672C196.685 5.34278 196.797 4.05327 196.797 4.05327" fill="white"/>
    <path d="M208.832 6.69085L201.433 14.2946L189.62 12.0091C189.62 12.0091 188.431 19.7381 183.425 20.258C178.421 20.7761 172.057 19.6968 172.057 19.6968L179.513 11.5094C179.513 11.5094 183.63 11.8884 186.303 11.9178C188.976 11.9487 192.237 11.5898 194.459 8.46672C196.685 5.34278 196.797 4.05327 196.797 4.05327" stroke="black" stroke-width="2" stroke-linejoin="round"/>
    <path fill-rule="evenodd" clip-rule="evenodd" d="M190.115 11.1135L196.098 4.22259C196.514 3.73929 197.153 3.52429 197.776 3.65535L208.96 6.01921C209.269 6.11412 209.377 6.50753 209.163 6.74802L201.675 14.6107L190.115 11.1135Z" fill="white" stroke="black" stroke-width="2" stroke-linejoin="round"/>
    <path fill-rule="evenodd" clip-rule="evenodd" d="M173.035 19.8326C184.639 21.8965 187.367 17.7708 188.307 12.3608C188.429 11.6602 189.181 11.3479 190.174 11.5677C193.75 12.3598 195.493 12.7467 198.676 13.4457C199.855 13.7056 201.038 14.8089 201.378 15.9244C211.49 49.0824 221.602 82.2403 231.713 115.398C232.053 116.514 231.424 117.222 230.233 116.962C225.009 115.823 221.846 115.114 215.729 113.744C214.334 113.432 212.929 112.274 212.594 111.16C205.06 86.2059 197.53 61.2491 189.998 36.2941C189.662 35.1787 188.268 34.0265 186.893 33.7193C182.68 32.7799 180.56 32.3053 176.642 31.4332C175.362 31.1482 174.087 30.0215 173.747 28.9059C172.828 25.8879 172.369 24.378 171.45 21.3585C171.12 20.2762 171.807 19.6135 173.035 19.8326Z" fill="#9595EF"/>
    <path d="M173.035 19.8326C184.639 21.8965 187.367 17.7708 188.307 12.3608C188.429 11.6602 189.181 11.3479 190.174 11.5677C193.75 12.3598 195.493 12.7467 198.676 13.4457C199.855 13.7056 201.038 14.8089 201.378 15.9244C211.49 49.0824 221.602 82.2403 231.713 115.398C232.053 116.514 231.424 117.222 230.233 116.962C225.009 115.823 221.846 115.114 215.729 113.744C214.334 113.432 212.929 112.274 212.594 111.16C205.06 86.2059 197.53 61.2491 189.998 36.2941C189.662 35.1787 188.268 34.0265 186.893 33.7193C182.68 32.7799 180.56 32.3053 176.642 31.4332C175.362 31.1482 174.087 30.0215 173.747 28.9059C172.828 25.8879 172.369 24.378 171.45 21.3585C171.12 20.2762 171.807 19.6135 173.035 19.8326" stroke="black" stroke-width="2"/>
    <path fill-rule="evenodd" clip-rule="evenodd" d="M96.0994 93.7929L94.7483 88.4603L137.24 60.0197L137.754 65.6551L96.0994 93.7929Z" fill="white" stroke="black" stroke-width="2" stroke-linejoin="round"/>
    <path fill-rule="evenodd" clip-rule="evenodd" d="M137.229 60.2734L137.698 65.2674L142.725 67.9294C142.725 67.9294 140.871 71.1277 142.56 72.8036C144.249 74.4786 146.912 75.9686 146.912 75.9686L146.595 70.7428C146.595 70.7428 144.967 69.6615 143.974 68.8795C142.98 68.098 141.886 66.9989 141.994 65.1899C142.101 63.3797 142.443 62.8718 142.443 62.8718" fill="white"/>
    <path d="M137.229 60.2734L137.698 65.2674L142.725 67.9294C142.725 67.9294 140.871 71.1277 142.56 72.8036C144.249 74.4786 146.912 75.9686 146.912 75.9686L146.595 70.7428C146.595 70.7428 144.967 69.6615 143.974 68.8795C142.98 68.098 141.886 66.9989 141.994 65.1899C142.101 63.3797 142.443 62.8718 142.443 62.8718" stroke="black" stroke-width="2" stroke-linejoin="round"/>
    <path fill-rule="evenodd" clip-rule="evenodd" d="M142.809 67.4527L142.65 63.1409C142.64 62.8397 142.468 62.5711 142.2 62.4347L137.381 59.988C137.239 59.9313 137.083 60.0441 137.091 60.1962L137.516 65.3118L142.809 67.4527Z" fill="white" stroke="black" stroke-width="2" stroke-linejoin="round"/>
    <path fill-rule="evenodd" clip-rule="evenodd" d="M146.511 75.7283C141.627 73.0469 141.846 70.7188 143.105 68.4481C143.267 68.1539 143.083 67.8161 142.652 67.6023C141.101 66.8335 140.344 66.4589 138.965 65.7723C138.454 65.5183 137.691 65.5736 137.235 65.8835C123.678 75.0926 110.121 84.3017 96.5647 93.5109C96.1086 93.8207 96.1301 94.2681 96.646 94.5255C98.9071 95.6556 100.282 96.3325 102.94 97.6425C103.547 97.9415 104.407 97.9318 104.861 97.621C115.035 90.6675 125.21 83.7124 135.384 76.7583C135.838 76.4472 136.693 76.4364 137.291 76.7313C139.12 77.6348 140.042 78.0887 141.743 78.9296C142.299 79.2043 143.102 79.1675 143.558 78.8577C144.792 78.0191 145.408 77.5993 146.642 76.7602C147.085 76.4596 147.029 76.0119 146.511 75.7283Z" fill="#9595EF"/>
    <path d="M146.511 75.7283C141.627 73.0469 141.846 70.7188 143.105 68.4481C143.267 68.1539 143.083 67.8161 142.652 67.6023C141.101 66.8335 140.344 66.4589 138.965 65.7723C138.454 65.5183 137.691 65.5736 137.235 65.8835C123.678 75.0926 110.122 84.3017 96.5647 93.5109C96.1086 93.8207 96.1301 94.2681 96.646 94.5255C98.9071 95.6556 100.282 96.3326 102.94 97.6425C103.547 97.9415 104.407 97.9318 104.861 97.621C115.035 90.6675 125.21 83.7124 135.384 76.7583C135.838 76.4472 136.693 76.4364 137.291 76.7313C139.12 77.6348 140.042 78.0887 141.743 78.9296C142.299 79.2043 143.102 79.1676 143.558 78.8577C144.792 78.0191 145.408 77.5993 146.642 76.7602C147.085 76.4596 147.029 76.0119 146.511 75.7283" stroke="black" stroke-width="2"/>
</svg>
