<svg width="450" height="310" viewBox="0 0 450 310" fill="none" xmlns="http://www.w3.org/2000/svg">
    <path fill-rule="evenodd" clip-rule="evenodd" d="M163.038 143.721C140.038 165.721 128.772 176.977 130.106 204.866C132.405 252.898 202.038 271.221 287.808 259.221C320.538 252.721 346.923 232.607 355.194 197.458C359.51 179.117 352.968 158.521 335.538 143.721C318.109 128.921 299.038 121.825 261.472 117.144C203.038 109.863 186.038 121.721 163.038 143.721Z" fill="#9595EF" fill-opacity="0.0781533"/>
    <path fill-rule="evenodd" clip-rule="evenodd" d="M109.598 98.1435C75.0699 131.191 58.156 148.099 60.1593 189.992C63.6104 262.144 168.146 289.669 296.907 271.643C346.042 261.879 385.652 231.664 398.069 178.864C404.548 151.314 394.727 120.375 368.561 98.1438C342.395 75.9121 313.766 65.2527 257.369 58.2207C169.647 47.2828 144.127 65.0965 109.598 98.1435Z" stroke="#F2F2F2" stroke-linecap="round"/>
    <path opacity="0.5" fill-rule="evenodd" clip-rule="evenodd" d="M45.854 60.8568C-2.07947 106.706 -25.5598 130.164 -22.7788 188.286C-17.9879 288.389 127.132 326.576 305.882 301.567C374.094 288.021 429.082 246.102 446.319 172.848C455.313 134.625 441.679 91.7011 405.355 60.8571C369.03 30.0132 329.286 15.2245 250.995 5.46843C129.216 -9.70679 93.7874 15.0077 45.854 60.8568Z" stroke="#F2F2F2" stroke-linecap="round"/>
</svg>