<svg width="439" height="291" viewBox="0 0 439 291" fill="none" xmlns="http://www.w3.org/2000/svg">
    <path fill-rule="evenodd" clip-rule="evenodd" d="M266.118 56.0519C232.346 41.4158 215.07 34.2544 172.479 35.6005C99.1243 37.9192 71.6415 83.6776 90.5965 139.451C100.764 160.701 131.68 177.579 185.433 182.378C213.48 184.882 244.894 180.262 267.374 168.634C289.854 157.006 300.555 144.439 307.432 119.842C318.13 81.581 299.891 70.688 266.118 56.0519Z" fill="#9595EF" fill-opacity="0.0781533"/>
    <path fill-rule="evenodd" clip-rule="evenodd" d="M306.527 49.5512C259.718 29.2658 235.774 19.3403 176.744 21.2059C75.0761 24.4196 36.9854 87.84 63.2567 165.141C77.348 194.594 120.198 217.986 194.698 224.637C233.571 228.108 277.11 221.704 308.267 205.588C339.424 189.472 354.255 172.055 363.787 137.963C378.613 84.9341 353.335 69.8366 306.527 49.5512Z" stroke="#F2F2F2" stroke-linecap="round"/>
    <path opacity="0.5" fill-rule="evenodd" clip-rule="evenodd" d="M350.591 43.3301C285.761 15.2349 252.599 1.48805 170.842 4.07195C30.0326 8.52291 -22.7228 96.3598 13.6628 203.421C33.1791 244.213 92.5265 276.611 195.708 285.823C249.547 290.63 309.848 281.76 353.001 259.44C396.153 237.12 416.694 212.996 429.896 165.779C450.43 92.3352 415.42 71.4252 350.591 43.3301Z" stroke="#F2F2F2" stroke-linecap="round"/>
</svg>
