<svg width="210" height="175" viewBox="0 0 210 175" fill="none" xmlns="http://www.w3.org/2000/svg">
<path fill-rule="evenodd" clip-rule="evenodd" d="M138.371 142.936C144.841 154.572 118.028 163.522 57.4168 169.477C-3.19404 175.432 -2.63781 155.625 9.85611 143.414C16.1033 137.308 32.3054 125.623 50.1507 121.875C67.996 118.127 87.3617 124.225 97.6264 127.373C118.693 133.833 131.9 131.299 138.371 142.936Z" fill="#C3C3F6"/>
<path d="M4.83808 101.82C2.87194 134.675 30.6223 148.078 54.9179 133.828C83.153 117.266 104.188 78.3816 105.384 43.6347C106.471 12.0436 85.5222 -5.55345 58.5372 10.7942C29.9344 28.1221 6.97859 66.0474 4.83808 101.82" stroke="black" stroke-width="2" stroke-dasharray="12 10"/>
<path fill-rule="evenodd" clip-rule="evenodd" d="M19.853 113.033C19.4478 129.094 24.2262 133.868 50.5671 153.623C62.0391 160.22 63.6824 152.587 77.9376 144.286C109.245 126.054 135.534 75.5227 135.444 39.4796C135.397 20.9661 123.494 16.7942 111.297 11.6881C101.906 7.75621 89.9252 8.87176 76.9176 16.6864C45.2251 35.7264 20.7895 75.8904 19.853 113.033Z" fill="white" stroke="black" stroke-width="2"/>
<path fill-rule="evenodd" clip-rule="evenodd" d="M34.487 120.35C33.6266 154.461 65.6322 167.291 92.5716 151.603C123.879 133.371 146.098 92.2864 146.007 56.2433C145.924 23.4738 121.451 6.04049 91.5516 24.0035C59.8592 43.0436 35.4236 83.2076 34.487 120.35Z" fill="#9595EF"/>
<path d="M34.487 120.35C33.6266 154.461 65.6322 167.291 92.5716 151.603C123.879 133.371 146.098 92.2864 146.007 56.2433C145.924 23.4738 121.451 6.04049 91.5516 24.0035C59.8592 43.0436 35.4236 83.2076 34.487 120.35" stroke="black" stroke-width="2"/>
<path fill-rule="evenodd" clip-rule="evenodd" d="M54.9691 109.853C54.3821 132.793 76.2178 141.421 94.5971 130.871C115.957 118.61 131.115 90.9794 131.053 66.7395C130.996 44.7012 114.3 32.9769 93.9013 45.0575C72.2792 57.8624 55.6081 84.8736 54.9691 109.853Z" fill="white"/>
<path d="M54.9691 109.853C54.3821 132.793 76.2178 141.421 94.5972 130.871C115.957 118.61 131.115 90.9794 131.053 66.7395C130.996 44.7012 114.3 32.9769 93.9013 45.0575C72.2792 57.8624 55.6081 84.8736 54.9691 109.853" stroke="black" stroke-width="2"/>
<path fill-rule="evenodd" clip-rule="evenodd" d="M75.4505 99.7658C75.1683 110.707 85.6663 114.822 94.5025 109.79C104.771 103.942 112.059 90.7648 112.029 79.2042C112.002 68.6937 103.975 63.1021 94.1679 68.8636C83.7727 74.9705 75.7577 87.8528 75.4505 99.7658Z" fill="#9595EF"/>
<path d="M75.4505 99.7658C75.1683 110.707 85.6663 114.822 94.5025 109.79C104.771 103.942 112.059 90.7648 112.029 79.2042C112.002 68.6937 103.975 63.1021 94.1679 68.8636C83.7727 74.9705 75.7577 87.8528 75.4505 99.7658" stroke="black" stroke-width="2"/>
<path d="M91.5421 87.0398L199.101 151.429" stroke="black" stroke-width="2"/>
<path d="M102.517 82.6497L92.2737 98.7469L88.6152 90.6983L93.7371 82.6497H102.517Z" fill="white" stroke="black" stroke-width="2"/>
<path d="M190.32 131.673C190.32 131.673 172.467 134.6 171.297 134.6L199.101 151.429L208.613 141.917L190.32 131.673Z" stroke="black" stroke-width="2" stroke-linejoin="round"/>
<path d="M181.54 155.087C181.54 155.087 171.882 135.614 171.296 134.6L198.369 151.429L196.174 161.672L181.54 155.087Z" stroke="black" stroke-width="2" stroke-linejoin="round"/>
</svg>
