<svg width="170" height="164" viewBox="0 0 170 164" fill="none" xmlns="http://www.w3.org/2000/svg">
    <path fill-rule="evenodd" clip-rule="evenodd" d="M166.175 123.275C173.945 137.25 141.744 147.999 68.954 155.15C-3.83584 162.301 -3.16785 138.514 11.8366 123.85C19.339 116.517 38.7968 102.484 60.2279 97.983C81.659 93.4822 104.916 100.805 117.243 104.585C142.543 112.344 158.404 109.3 166.175 123.275Z" fill="#C3C3F6"/>
    <path d="M99.8217 16.1147V10.7432L105.641 13.8766L99.8217 16.1147Z" fill="#9595EF"/>
    <path d="M93.6701 109.255L38.6162 129.716L39.668 29.9548L44.5752 28.1252L45.2198 27.8849L45.2258 27.197L45.3093 17.7527L90.2163 1.07638L99.7169 5.13644V8.92252L93.6701 109.255Z" fill="#9595EF" stroke="black" stroke-width="2"/>
    <path d="M39.3915 29.5437L50.1346 34.02" stroke="black" stroke-width="2"/>
    <path d="M44.7631 17.4575L55.5062 21.9338" stroke="black" stroke-width="2"/>
    <path d="M99.896 14.6006L99.8832 16.0543L101.245 15.5464L105.431 13.9858L104.38 113.744L49.3594 134.192L50.4111 34.4311L55.3184 32.6015L55.9629 32.3612L55.969 31.6733L56.0525 22.229L99.9727 5.91914L99.896 14.6006ZM72.7774 90.474L73.4209 90.233L73.4266 89.5458L73.5161 78.7705L73.5282 77.3153L72.1654 77.8257L64.7348 80.6087L64.0912 80.8497L64.0855 81.5369L63.996 92.3122L63.9839 93.7674L65.3467 93.257L72.7774 90.474ZM72.5983 110.669L73.2418 110.428L73.2476 109.741L73.3371 98.9653L73.3492 97.5102L71.9864 98.0206L64.5557 100.804L63.9122 101.045L63.9065 101.732L63.817 112.507L63.8049 113.962L65.1677 113.452L72.5983 110.669ZM72.9602 70.2777L73.5999 70.0351L73.6057 69.351L73.6952 58.647L73.7074 57.1917L72.3445 57.7021L64.9138 60.4852L64.2646 60.7283V61.4216V72.1257V73.5742L65.619 73.0607L72.9602 70.2777ZM73.225 50.0842L73.8685 49.8432L73.8742 49.1561L73.9638 38.4521L73.9759 36.9968L72.6131 37.5072L65.1824 40.2903L64.5389 40.5313L64.5332 41.2184L64.4436 51.9224L64.4315 53.3777L65.7943 52.8672L73.225 50.0842ZM89.6978 84.1943L90.3413 83.9533L90.3471 83.2661L90.4366 72.4908L90.4487 71.0356L89.0859 71.546L81.6552 74.329L81.0117 74.57L81.006 75.2572L80.9165 86.0326L80.9044 87.4878L82.2672 86.9773L89.6978 84.1943ZM89.5188 104.389L90.1623 104.148L90.168 103.461L90.2575 92.6857L90.2696 91.2305L88.9068 91.7409L81.4762 94.5239L80.8326 94.7649L80.8269 95.4521L80.7374 106.227L80.7253 107.683L82.0881 107.172L89.5188 104.389ZM89.8726 64.001L90.5203 63.7617L90.5261 63.0713L90.6156 52.3673L90.6277 50.919L89.2692 51.4209L81.928 54.1325L81.2803 54.3718L81.2746 55.0622L81.185 65.7662L81.1729 67.2145L82.5315 66.7127L89.8726 64.001ZM90.1455 43.8045L90.7889 43.5635L90.7947 42.8764L90.8842 32.1724L90.8964 30.7171L89.5335 31.2275L82.1028 34.0106L81.4594 34.2516L81.4536 34.9387L81.3641 45.6427L81.3519 47.098L82.7148 46.5875L90.1455 43.8045Z" fill="white" stroke="black" stroke-width="2"/>
    <path d="M106.088 12.9813L100.269 10.7432" stroke="black" stroke-width="2"/>
    <path d="M37.0813 71.047C40.3763 69.5231 44.8104 69.5767 48.4045 71.1395C51.9656 72.6881 54.5463 75.6329 54.5063 79.8305C54.4794 82.6318 53.2795 85.8083 51.3425 88.9424C49.4147 92.0616 46.8094 95.053 44.0984 97.4652C42.4574 98.9253 41.7663 100.968 41.2265 102.563C41.2138 102.601 41.2011 102.638 41.1886 102.675C40.9012 103.524 40.6606 104.221 40.3585 104.779C40.1012 105.255 39.8399 105.55 39.5471 105.723C31.979 106.475 24.509 101.642 24.5906 93.0676C24.6336 88.5594 26.0545 83.8235 28.3426 79.8112C30.6361 75.7894 33.7449 72.5901 37.0813 71.047Z" fill="white" stroke="black" stroke-width="2"/>
    <path d="M45.0508 106.32L45.055 106.318C47.8439 105.005 50.8233 104.992 53.4856 105.639C55.9307 106.233 58.0434 107.37 59.3993 108.474L57.5975 135.696L57.5914 135.788L57.6022 135.879C57.7547 137.175 57.3607 139.218 56.6266 140.687C56.2507 141.438 55.775 142.201 55.2603 142.826C54.732 143.468 54.2276 143.887 53.8146 144.064L53.7522 144.091L53.6939 144.126L22.872 162.624C22.8318 162.629 22.7451 162.637 22.5951 162.633C22.3511 162.628 22.0301 162.594 21.6433 162.531C20.8726 162.407 19.9256 162.181 18.9748 161.91C18.0258 161.638 17.0973 161.328 16.3658 161.041C15.9991 160.897 15.6949 160.764 15.4678 160.649C15.2866 160.558 15.2002 160.501 15.1724 160.482C15.1604 160.474 15.1592 160.474 15.166 160.481C14.9605 160.275 14.7255 159.823 14.575 159.12C14.4304 158.446 14.3896 157.657 14.4687 156.906L14.4692 156.9L16.8864 132.638L16.8867 132.636C17.2732 128.642 18.7374 124.65 20.844 121.311C22.9553 117.966 25.6663 115.348 28.4906 114.018C28.4913 114.018 28.492 114.017 28.4927 114.017L45.0508 106.32Z" fill="white" stroke="black" stroke-width="2"/>
    <path d="M44.2433 72.8375C47.5434 71.3112 50.3335 71.7167 52.2963 73.3856C54.3099 75.0976 55.6689 78.3207 55.6258 82.8425C55.5829 87.3051 54.1625 92.0414 51.8734 96.0664C49.5786 100.101 46.4694 103.321 43.1352 104.863C39.8351 106.389 37.0451 105.984 35.0823 104.315C33.0686 102.603 31.7096 99.3799 31.7527 94.8581C31.7956 90.3499 33.2165 85.614 35.5046 81.6017C37.7981 77.5799 40.907 74.3806 44.2433 72.8375Z" fill="white" stroke="black" stroke-width="2"/>
    <path d="M52.2129 108.11L52.2171 108.108C55.0111 106.793 57.4185 106.994 59.1915 108.217C60.9977 109.462 62.362 111.916 62.7026 115.532L62.7027 115.533L64.7617 137.645L64.7629 137.657L64.7643 137.669C64.9168 138.966 64.5229 141.009 63.7887 142.477C63.4128 143.229 62.9371 143.991 62.4224 144.617C61.8941 145.259 61.3897 145.678 60.9767 145.855L60.9625 145.861L60.9485 145.867L24.4373 162.87C23.7093 163.175 22.972 162.915 22.3281 162.271C22.1226 162.065 21.8876 161.613 21.7372 160.911C21.5926 160.236 21.5517 159.447 21.6308 158.696L21.6313 158.69L24.0485 134.429L24.0488 134.426C24.4353 130.432 25.8995 126.44 28.0062 123.102C30.1174 119.756 32.8284 117.138 35.6527 115.808C35.6534 115.808 35.6541 115.808 35.6548 115.807L52.2129 108.11Z" fill="white" stroke="black" stroke-width="2"/>
    <path d="M123.656 31.3593C125.096 31.9684 126.563 32.4519 127.906 32.8947C128.388 33.0536 128.855 33.2073 129.298 33.3597C131.031 33.9552 132.417 34.5302 133.4 35.3209C134.326 36.0662 134.908 37.0138 135.002 38.4756C135.101 40.0047 134.668 42.1469 133.368 45.222C132.641 46.9427 131.955 49.3865 131.25 52.1171C131.005 53.0668 130.757 54.0529 130.502 55.0638C130.017 56.9944 129.508 59.0155 128.953 61.0461C128.109 64.1322 127.172 67.1852 126.079 69.8584C124.981 72.5449 123.755 74.773 122.367 76.2641C119.989 78.8174 116.798 78.9775 113.53 78.1861C111.073 77.5908 108.787 76.5176 106.971 75.665C106.338 75.3678 105.762 75.0974 105.256 74.8834C101.866 73.4505 99.6001 69.8407 98.8533 64.8649C98.1094 59.9088 98.9143 53.7678 101.503 47.6454C104.091 41.523 107.935 36.6669 112.008 33.7473C116.098 30.8161 120.266 29.9265 123.656 31.3593Z" fill="white" stroke="black" stroke-width="2"/>
    <path d="M125.76 79.0669L125.764 79.0652C129.357 77.3773 133.745 77.8789 137.782 79.4455C141.614 80.9319 144.929 83.3016 146.673 85.3107L142.636 118.205L142.622 118.324L142.636 118.444C142.848 120.247 142.306 122.801 141.42 124.574C141.144 125.125 140.607 126.059 139.93 126.962C139.237 127.886 138.477 128.668 137.779 129.04L137.74 129.061L137.703 129.085L97.5994 155.264C97.5367 155.272 97.3785 155.284 97.0803 155.249C96.6935 155.204 96.196 155.096 95.6085 154.93C94.4372 154.598 93.0169 154.068 91.6125 153.483C90.2127 152.9 88.853 152.272 87.81 151.755C87.2879 151.497 86.8521 151.269 86.5338 151.091C86.3739 151.002 86.2516 150.93 86.1663 150.876C86.1282 150.851 86.1047 150.835 86.0924 150.827C85.8175 150.535 85.5279 149.954 85.3425 149.093C85.1572 148.233 85.1007 147.204 85.21 146.166L85.2105 146.16L88.4382 113.764C88.4382 113.764 88.4382 113.764 88.4382 113.764C88.9595 108.552 90.8751 103.319 93.6247 98.9396C96.3794 94.5526 99.924 91.0958 103.647 89.3468C103.647 89.3465 103.648 89.3463 103.648 89.346L125.76 79.0669ZM84.2155 146.061L84.2161 146.061L84.2155 146.061Z" fill="white" stroke="black" stroke-width="2"/>
    <path d="M133.504 34.9405C136.893 36.3734 139.159 39.9832 139.906 44.959C140.65 49.9151 139.845 56.0561 137.257 62.1785C134.668 68.3009 130.824 73.157 126.751 76.0765C122.661 79.0078 118.493 79.8974 115.104 78.4645C111.714 77.0317 109.448 73.4218 108.701 68.446C107.957 63.49 108.762 57.3489 111.35 51.2266C113.939 45.1042 117.783 40.2481 121.856 37.3285C125.946 34.3973 130.114 33.5076 133.504 34.9405Z" fill="white" stroke="black" stroke-width="2"/>
    <path d="M135.608 82.648L135.612 82.6463C139.304 80.912 142.563 81.1619 144.993 82.821C147.454 84.5011 149.272 87.7678 149.732 92.4752C149.732 92.476 149.732 92.4768 149.732 92.4777L152.481 122.001L152.482 122.013L152.484 122.025C152.696 123.828 152.154 126.382 151.267 128.155C150.992 128.706 150.455 129.64 149.778 130.543C149.092 131.458 148.341 132.233 147.649 132.61L98.9125 155.305C97.6476 155.852 96.5543 155.023 95.9659 154.434C95.6835 154.152 95.3816 153.562 95.1904 152.674C95.0051 151.814 94.9486 150.785 95.0579 149.747L95.0584 149.741L98.2861 117.345C98.8073 112.133 100.723 106.9 103.473 102.521C106.227 98.1339 109.772 94.6771 113.494 92.928C113.495 92.9277 113.495 92.9274 113.496 92.9271L135.608 82.648ZM94.0641 149.642L94.0634 149.642L94.0641 149.642Z" fill="white" stroke="black" stroke-width="2"/>
</svg>
