<svg width="129" height="155" viewBox="0 0 129 155" fill="none" xmlns="http://www.w3.org/2000/svg">
<path fill-rule="evenodd" clip-rule="evenodd" d="M59.2953 154.023C58.2254 154.492 56.9808 154.297 56.1055 153.524L9.94432 112.74C8.22755 111.224 8.77558 108.42 10.9371 107.661L45.9395 95.3766C46.9679 95.0156 48.1112 95.2408 48.9258 95.9648L92.6112 134.787C94.2468 136.241 93.8262 138.9 91.8219 139.778L59.2953 154.023Z" fill="#A796F9" fill-opacity="0.08" stroke="black" stroke-linecap="round" stroke-linejoin="round" stroke-dasharray="8"/>
<path fill-rule="evenodd" clip-rule="evenodd" d="M99.2881 34.7875C98.5579 33.3246 97.8329 31.2461 97.1123 29.7917C97.1123 29.7917 96.2756 29.904 95.1123 30.2917C93.6123 30.7917 93.1123 31.1398 91.1123 31.7917C89.1123 32.4437 87.8093 33.1265 86.6123 33.2917C84.1123 34.0027 83.071 34.0027 83.071 34.0027C80.8703 32.1729 79.0775 29.4209 77.8197 26.2313L77.8182 26.2244C77.1784 24.6058 76.6769 22.8652 76.3331 21.0763C75.9034 18.8427 75.7187 16.5268 75.8168 14.2623C75.8728 12.9791 75.1715 11.7481 74.3845 11.7841C65.8163 12.18 57.2409 12.4774 48.6673 12.7563C47.7689 12.7865 20.3941 19.5766 20.6122 21.0762C21.8309 29.4042 49.7694 32.2121 50.8031 40.5652C50.9865 42.0354 51.8339 43.1771 52.699 43.1206C54.3775 43.0125 49.28 48.8906 50.9624 48.7917C52.0482 48.7293 53.0535 54.6757 52.699 56.2917C49.848 69.2981 52.8449 72.3736 49.994 85.38C49.7111 86.6716 50.1429 88.2591 50.9624 88.9326C63.1481 99.0025 49.0115 117.619 61.1123 127.792C62.0494 128.579 89.2586 119.725 89.5259 118.417C92.2198 105.22 94.9142 92.0245 97.6081 78.8273C97.9423 77.1904 99.3953 77.2042 100.235 78.8627C101.16 80.6906 101.627 81.6091 102.569 83.4517C103.253 84.7867 104.382 85.2727 105.085 84.5303C109.814 79.533 112.189 77.0377 117.014 72.1069C117.745 71.3588 117.717 69.6059 116.96 68.2369C110.86 57.1994 104.989 46.0376 99.2881 34.7875Z" fill="#9595EF" stroke="black" stroke-width="2" stroke-linejoin="round"/>
<path fill-rule="evenodd" clip-rule="evenodd" d="M72.3737 43.0653C71.6435 41.6024 71.281 40.872 70.5604 39.4176C69.9713 38.2274 68.9539 38.0544 68.4941 39.0693C67.743 40.7258 66.9428 41.86 65.701 42.8808C64.6834 43.7143 63.5458 44.2295 62.3488 44.3947C60.3743 44.6685 58.2297 44.0042 56.1566 42.2805C53.9559 40.4507 52.1631 37.6987 50.9053 34.5091L50.9038 34.5022C50.264 32.8836 49.7625 31.143 49.4187 29.3541C48.989 27.1204 48.8043 24.8046 48.9024 22.54C48.9584 21.2569 48.2571 20.0259 47.4701 20.0619C38.9019 20.4578 30.3265 20.7552 21.7529 21.0341C20.8545 21.0643 20.3054 22.3107 20.5235 23.8103C21.7423 32.1383 22.855 40.4899 23.8887 48.843C24.0721 50.3132 24.9194 51.4549 25.7846 51.3984C27.4631 51.2903 28.3037 51.2393 29.9861 51.1405C31.0719 51.078 31.9869 53.0226 31.6324 54.6387C28.7814 67.645 25.9305 80.6514 23.0796 93.6578C22.7967 94.9494 23.2285 96.5369 24.048 97.2103C36.2337 107.28 48.3242 117.463 60.4251 127.636C61.3622 128.423 62.3442 128.003 62.6115 126.695C65.3054 113.498 67.9998 100.302 70.6937 87.1051C71.0279 85.4682 72.4809 85.482 73.3204 87.1404C74.2459 88.9684 74.7125 89.8869 75.6549 91.7295C76.3388 93.0645 77.4679 93.5505 78.1701 92.8081C82.8999 87.8108 85.2749 85.3155 90.0995 80.3847C90.8302 79.6366 90.8022 77.8837 90.0453 76.5147C83.9461 65.4772 78.0748 54.3154 72.3737 43.0653Z" fill="white" stroke="black" stroke-width="2" stroke-linejoin="round"/>
<path d="M69.1123 38.7917L95.8695 30.1169" stroke="black" stroke-width="2" stroke-linecap="round" stroke-linejoin="round"/>
</svg>
