<svg xmlns="http://www.w3.org/2000/svg" width="100" height="105" viewBox="0 0 100 105">
  <g fill="none" fill-rule="evenodd">
    <path fill="#F7F7FE" fill-rule="nonzero" stroke="#000" stroke-dasharray="8 10" d="M11.4230769,30.8735577 L11.4230769,80.69375 L38.1071865,103.855769 L71.8399289,103.855769 L98.5240385,80.69375 L98.5240385,30.8735577 L71.8399289,7.71153846 L38.1071865,7.71153846 L11.4230769,30.8735577 Z"/>
    <polyline fill="#5294CF" points="56.178 97.096 57.367 97.096 76.783 87.459 77.106 87.006 77.106 10.085 76.783 9.629 57.367 0 56.163 0 56.178 97.096"/>
    <polyline fill="#1F5B98" points="30.447 97.096 29.256 97.096 10.105 87.459 9.716 86.787 9.519 10.476 10.105 9.629 29.256 0 30.462 0 30.447 97.096"/>
    <polygon fill="#2D72B8" points="29.51 0 57.115 0 57.115 97.096 29.51 97.096"/>
    <polyline fill="#1A476F" points="86.625 46.364 85.97 46.22 76.622 45.35 76.483 45.419 57.09 44.645 29.535 44.645 10.142 45.419 10.142 30.667 10.122 30.678 10.142 30.635 29.535 26.152 57.09 26.152 76.483 30.635 83.612 34.415 83.612 31.985 86.625 31.656 86.313 31.049 76.773 24.245 76.483 24.339 57.09 18.344 29.535 18.344 10.142 24.339 10.142 9.519 0 21.371 0 31.722 .079 31.665 3.013 31.985 3.013 34.465 0 36.073 0 46.372 .079 46.364 3.013 46.408 3.013 50.73 .481 50.768 0 50.722 0 61.026 3.013 62.642 3.013 65.151 .126 65.469 0 65.374 0 75.723 10.142 87.577 10.142 72.759 29.535 78.753 57.09 78.753 76.54 72.741 76.798 72.854 86.213 66.15 86.625 65.482 83.612 65.151 83.612 62.692 83.217 62.535 76.773 66 76.54 66.486 57.09 70.942 57.09 70.948 29.535 70.948 29.535 70.942 10.142 66.467 10.142 51.661 29.535 52.432 29.535 52.451 57.09 52.451 76.483 51.661 76.924 51.864 85.986 51.085 86.625 50.774 83.612 50.73 83.612 46.408 86.625 46.364"/>
    <path fill="#2D72B8" fill-rule="nonzero" d="M76.1538462,72.7587305 L76.1538462,87.5769231 L86.625,75.7233142 L86.625,65.441613 L76.2142842,72.7411786 L76.1538462,72.7587305 M76.1538462,66.499115 L76.2142842,66.4856136 L86.625,61.0755776 L86.625,50.7304196 L76.1538462,51.6610078 L76.1538462,66.499115 M76.2142842,30.6483444 L76.1538462,30.6348429 L76.1538462,45.4189442 L86.625,46.3643841 L86.625,36.0242892 L76.2142842,30.6483444 M76.2142842,24.3968297 L86.625,31.655891 L86.625,21.3738523 L76.1538462,9.51923077 L76.1538462,24.3387734 L76.2142842,24.3590256 L76.2142842,24.3968297"/>
  </g>
</svg>
