<svg xmlns="http://www.w3.org/2000/svg" width="108" height="102" viewBox="0 0 108 102">
  <g fill="none" fill-rule="evenodd" transform="translate(-1 5)">
    <path fill="#F7F7FE" fill-rule="nonzero" stroke="#000" stroke-dasharray="8 10" stroke-linecap="round" stroke-linejoin="round" d="M66.0224719,96.0449438 C89.2308423,96.0449438 108.044944,77.2308423 108.044944,54.0224719 C108.044944,30.8141015 89.2308423,12 66.0224719,12 C42.8141015,12 24,30.8141015 24,54.0224719 C24,77.2308423 42.8141015,96.0449438 66.0224719,96.0449438 Z"/>
    <rect width="96" height="94.286"/>
    <g transform="translate(1 -5)">
      <path fill="#FFF" d="M97,50.8055736 C97,42.6163922 91.9320949,35.5402332 84.4096304,32.7574868 C84.7282339,31.0266101 84.8871882,29.269919 84.8844741,27.5097288 C84.8844741,12.3235366 72.6112986,0 57.487166,0 C48.69782,0 40.4629005,4.2138839 35.3157915,11.4491005 C32.7820284,9.46126145 29.6938389,8.4277678 26.4472418,8.4277678 C18.4495546,8.4277678 11.8775356,14.9472253 11.8775356,23.0572585 C11.8775356,24.8065112 12.1943507,26.5557639 12.7483982,28.145959 C5.14710892,30.7696478 0,38.0843932 0,46.1940458 C0,54.3836078 5.06790514,61.5392956 12.6691944,64.3220419 C12.3527582,65.9917659 12.1943507,67.7410185 12.1943507,69.5694195 C12.1943507,84.6760829 24.4675262,97 39.5124551,97 C48.3810048,97 56.5370995,92.7065873 61.6838295,85.5508995 C64.2175926,87.538358 67.3849859,88.651761 70.6315831,88.651761 C78.6292702,88.651761 85.2012893,82.1319229 85.2012893,74.0222703 C85.2012893,72.2730176 84.8844741,70.5237649 84.3304266,68.9335698 C91.7733083,66.2303522 96.999621,58.9156068 96.999621,50.8055736 L97,50.8055736 Z"/>
      <path fill="#F4BD19" d="M38.1841607,40.9751618 L59.7370845,51 L81.5265338,31.5924443 C81.8441928,29.9818106 82.0027887,28.3429885 81.9999629,26.7003509 C81.9999629,13.0672771 71.1054271,2 57.6842991,2 C49.6314712,2 42.1317958,6.00970501 37.6317638,12.7460248 L34,31.8330957 L38.1841607,40.9755456 L38.1841607,40.9751618 Z"/>
      <path fill="#3CBEB1" d="M15.4718768,64.3925312 C15.1574178,65.988651 15,67.6645959 15,69.3405408 C15,82.9069864 25.937524,94 39.3146473,94 C47.4197808,94 54.8952431,89.9300663 59.4588528,83.2262867 L63,64.232881 L58.199887,54.9754624 L36.639298,45 L15.4718768,64.3925312 Z"/>
      <path fill="#E9478C" d="M14.7186752,27.5595383 L29.6473285,31 L33,14.3455312 C30.9245913,12.781719 28.4495365,12 25.8151582,12 C19.3486095,12 14,17.1603183 14,23.5719857 C14,24.9011699 14.2395584,26.3085634 14.7182931,27.5595383 L14.7186752,27.5595383 Z"/>
      <path fill="#2C458F" d="M13.4745658,31 C6.68689799,33.151819 2,39.6068946 2,46.6195667 C2,53.4731979 6.28275504,59.609429 12.7474953,62 L34,43.0333288 L30.1210012,34.8257526 L13.4745658,31.0003814 L13.4745658,31 Z"/>
      <path fill="#95C63D" d="M63,82.5758853 C65.084168,84.1400717 67.5696688,85 70.1349758,85 C76.6288166,85 82,79.8396817 82,73.4280143 C82,72.0206208 81.7594305,70.6910624 81.2786753,69.4400874 L66.2870153,66 L63,82.5758853 Z"/>
      <path fill="#176655" d="M66.3672466,62.1745817 L82.7246601,66 C89.3944778,63.7688238 94,57.3933809 94,50.3802411 C94,43.5265256 89.7916038,37.4703125 83.4391069,35 L62,53.8070989 L66.3672466,62.1749631 L66.3672466,62.1745817 Z"/>
    </g>
  </g>
</svg>
