<svg xmlns="http://www.w3.org/2000/svg" width="77" height="74" viewBox="0 0 77 74">
  <defs>
    <radialGradient id="exel-logo-a" cx=".186%" r="64.739%" fx=".186%" fy="50%" gradientTransform="matrix(1 0 0 .60213 0 .199)">
      <stop offset="0%" stop-color="#237F4C"/>
      <stop offset="100%" stop-color="#1E6C41"/>
    </radialGradient>
  </defs>
  <g fill="none" fill-rule="evenodd">
    <path fill="#8774FF" fill-opacity=".08" stroke="#000" stroke-dasharray="8" stroke-linecap="round" stroke-linejoin="round" d="M10.7123968,67.3262941 L49.5619838,73.3841556 L49.5619838,65.5954765 L76.0650502,65.5954765 L76.0650502,15.3945538 L49.3267248,15.3945538 L49.3267248,9.30518992 L10.7123968,15.3945538 L10.7123968,67.3262941 Z"/>
    <rect width="63.38" height="49.707" x="3.511" y="7.031" fill="#FFF"/>
    <path fill="#1F7144" fill-rule="nonzero" d="M0.468937609,38.8989539 L11.279707,38.8989539 L11.279707,44.4523037 L0.468937609,44.4523037 L0.468937609,38.8989539 Z M13.4961115,38.8989539 L24.3068809,38.8989539 L24.3068809,44.4407547 L13.4961115,44.4407547 L13.4961115,38.8989539 Z M0.468937609,30.8493615 L11.279707,30.8493615 L11.279707,36.6683363 L0.468937609,36.6683363 L0.468937609,30.8493615 Z M13.4961115,30.8493615 L24.3068809,30.8493615 L24.3068809,36.6683363 L13.4961115,36.6683363 L13.4961115,30.8493615 Z M0.468937609,22.8113184 L11.279707,22.8113184 L11.279707,28.6302932 L0.468937609,28.6302932 L0.468937609,22.8113184 Z M13.4961115,22.8113184 L24.3068809,22.8113184 L24.3068809,28.6302932 L13.4961115,28.6302932 L13.4961115,22.8113184 Z M0.468937609,14.773275 L11.279707,14.773275 L11.279707,20.5922497 L0.468937609,20.5922497 L0.468937609,14.773275 Z M13.4961115,14.773275 L24.3068809,14.773275 L24.3068809,20.5922497 L13.4961115,20.5922497 L13.4961115,14.773275 Z M0.468937609,6.73523148 L11.279707,6.73523148 L11.279707,12.5542062 L0.468937609,12.5542062 L0.468937609,6.73523148 Z M13.4961115,6.73523148 L24.3068809,6.73523148 L24.3068809,12.5542062 L13.4961115,12.5542062 L13.4961115,6.73523148 Z M0.0923913043,0.0923916739 L0.0923913043,2.29823407 L29.0224185,2.29823407 L29.0224185,49.1521743 L0.0923913043,49.1521743 L0.0923913043,51.3695656 L28.8376359,51.3695656 C30.1703546,51.3695656 31.2513587,50.2885615 31.2513587,48.9558428 L31.2513587,2.5061145 C31.2513587,1.1733947 30.1703546,0.0923916739 28.8376359,0.0923916739 L0.0923913043,0.0923916739 Z" transform="translate(36.587 6.294)"/>
    <path fill="url(#exel-logo-a)" fill-rule="nonzero" d="M38.7466033,0.0230978261 L0.173233696,6.88315217 L0.173233696,57.1209239 L38.7235054,64.0849185 L38.7466033,0.0230978261 Z M26.4123641,20.6956522 L20.8919837,32.0482337 L26.5625,43.4701087 L21.4347826,43.169837 L18.0625,34.8084239 L14.7595109,42.7887228 L10.2438859,42.5346467 L15.544837,32.0482337 L10.5095109,21.4463315 L15.3947011,21.2153533 L18.2357337,28.9415761 L21.654212,20.9150815 L26.4123641,20.6956522 Z"/>
  </g>
</svg>
