<svg width="108" height="77" viewBox="0 0 108 77" fill="none" xmlns="http://www.w3.org/2000/svg">
<path opacity="0.57" fill-rule="evenodd" clip-rule="evenodd" d="M42.5287 15.5614C35.8072 17.3869 -2.29327 30.8373 0.253185 51.2541C2.61793 70.2107 17.0187 68.6737 53.0878 68.6737C97.863 68.6737 116.808 44.5039 104.096 31.8819C97.7396 25.571 84.4773 14.5834 70.3526 14.3878C56.2273 14.1919 49.2502 13.7359 42.5287 15.5614Z" fill="#9595EF"/>
<path fill-rule="evenodd" clip-rule="evenodd" d="M91.0918 42.331H91.093L91.125 36.7713L84.0301 37.0415L67.6996 27.4545C65.4726 26.1472 62.7263 26.1396 60.4927 27.4353L27.1808 46.7543L15.4596 49.6986L15.4286 55.0465C15.428 55.9076 15.8495 56.7687 16.6931 57.2593L38.2195 69.7734C40.4093 71.0465 43.097 71.0682 45.3063 69.8309L89.8167 44.9017C90.7935 44.3542 91.2191 43.3112 91.0918 42.331Z" fill="white"/>
<path fill-rule="evenodd" clip-rule="evenodd" d="M90.0527 45.3213L45.5423 70.2506C43.1839 71.5713 40.3142 71.5481 37.9769 70.1892L16.4505 57.6751C15.4924 57.118 14.9458 56.1213 14.9465 55.0437L14.9776 49.6958C14.9788 49.4763 15.1288 49.2855 15.342 49.2319L26.9971 46.3042L26.9385 46.3382L27.0631 46.2876L26.9975 46.304L60.2505 27.0192C62.6345 25.6363 65.5669 25.6441 67.9442 27.0397L84.1529 36.5552L91.1067 36.2904C91.3811 36.2799 91.6088 36.4999 91.6072 36.774L91.5754 42.3127C91.7155 43.5223 91.1482 44.7074 90.0527 45.3213ZM26.9975 46.304L26.9972 46.3041L26.9971 46.3042L26.9974 46.3041L26.9975 46.304ZM84.0486 37.5224L90.6401 37.2713C90.6401 37.2713 90.6093 42.3585 90.6137 42.3928C90.7234 43.2373 90.3371 44.0581 89.5807 44.482L45.0705 69.4112C43.01 70.5651 40.5044 70.5448 38.4623 69.3575L16.9358 56.8434C16.2813 56.4628 15.9103 55.7864 15.9108 55.0468L15.9397 50.0743C15.9397 50.0743 27.3842 47.193 27.4231 47.1704L60.735 27.8514C62.8179 26.6431 65.3782 26.65 67.4553 27.8693L83.7858 37.4563C83.8653 37.503 83.9565 37.5259 84.0486 37.5224Z" fill="black"/>
<path fill-rule="evenodd" clip-rule="evenodd" d="M60.4983 21.6602L16.6956 47.0603C15.0075 48.0392 15.0059 50.5034 16.6931 51.4839L38.2224 63.9987C40.4125 65.2715 43.1002 65.2931 45.3098 64.0555L89.8256 39.1266C91.5382 38.1674 91.563 35.6835 89.8697 34.6894L67.7058 21.6794C65.4788 20.372 62.7322 20.3648 60.4983 21.6602Z" fill="white"/>
<path fill-rule="evenodd" clip-rule="evenodd" d="M90.1142 34.2746L67.9503 21.2646C65.5733 19.8691 62.6406 19.8614 60.2562 21.2441L16.4534 46.6442C14.4456 47.8085 14.4439 50.7336 16.4506 51.8998L37.9799 64.4146C40.3176 65.7732 43.1873 65.7962 45.5458 64.4753L90.0616 39.5463C92.0988 38.4054 92.1282 35.4569 90.1142 34.2746ZM16.9379 47.4764L60.7406 22.0763C62.824 20.8682 65.3846 20.875 67.4615 22.0942L89.6254 35.1043C90.998 35.91 90.9779 37.9295 89.5898 38.7069L45.0739 63.6359C43.0133 64.79 40.5077 64.7699 38.4651 63.5828L16.9358 51.068C15.5682 50.2733 15.5694 48.27 16.9379 47.4764Z" fill="black"/>
<path fill-rule="evenodd" clip-rule="evenodd" d="M58.8644 27.141L27.8956 44.8107C26.7022 45.4917 26.7013 47.206 27.8939 47.8881L43.1153 56.594C44.6636 57.4792 46.5639 57.4945 48.1264 56.6335L79.5989 39.2913C80.8101 38.6242 80.8275 36.8963 79.6305 36.205L63.9604 27.1543C62.3855 26.2451 60.4438 26.2399 58.8644 27.141Z" fill="#9595EF"/>
<path fill-rule="evenodd" clip-rule="evenodd" d="M69.9108 47.721V51.2913C71.03 52.1134 73.028 52.4937 74.7615 52.4533C76.4966 52.4115 78.3634 52.0129 79.5536 51.2141V47.6437L69.9108 47.721Z" fill="white"/>
<path fill-rule="evenodd" clip-rule="evenodd" d="M69.9069 47.2398C69.6421 47.2419 69.4286 47.4567 69.4286 47.721V51.2913C69.4286 51.4444 69.5015 51.5883 69.625 51.6789C70.7754 52.5239 72.802 52.9803 74.7727 52.9345C76.7287 52.8873 78.6164 52.4229 79.8226 51.6134C79.9558 51.524 80.0357 51.3743 80.0357 51.214V47.6437C80.0357 47.3764 79.8175 47.1603 79.5497 47.1625L69.9069 47.2398ZM70.3929 51.0363V48.1984L79.0714 48.1289V50.9483C78.026 51.5612 76.4194 51.932 74.7498 51.9722C73.0891 52.0108 71.3849 51.6539 70.3929 51.0363Z" fill="black"/>
<path fill-rule="evenodd" clip-rule="evenodd" d="M74.5228 54.4539C72.9828 53.276 70.0493 52.9186 69.1689 52.3715C68.2909 51.8256 67.9755 50.4259 66.4961 49.5479C64.4229 48.3082 61.2756 47.8853 58.9238 48.2529C55.5192 49.0623 51.65 50.483 49.6125 53.4916L48.2144 53.2791V57.5419L48.2206 57.5367C48.2522 58.165 48.5101 58.7359 49.2094 59.1548C50.6218 59.9957 52.0072 59.8484 53.5947 60.9086C55.1824 61.9685 54.6641 62.7708 56.0859 63.7034C57.5315 64.6521 59.8678 64.5366 62.2216 64.3874C64.944 64.2153 67.0432 63.6457 67.154 63.6188C67.1373 63.5876 65.4924 61.0578 69.1484 59.1341C72.2054 57.5219 75.9845 58.2209 76.1611 58.2481C76.3318 55.942 75.2146 54.9232 74.5228 54.4539Z" fill="white"/>
<path fill-rule="evenodd" clip-rule="evenodd" d="M76.0876 58.7238C76.3656 58.7666 76.6212 58.5636 76.6419 58.2836C76.7953 56.211 76.0599 54.9195 74.805 54.0636C74.1986 53.6027 73.4039 53.2442 72.3477 52.9029C72.1097 52.826 71.5635 52.6671 71.0544 52.519C70.5862 52.3828 70.1493 52.2558 70.0122 52.2099C69.7342 52.117 69.5398 52.0351 69.4236 51.9629C69.2336 51.8448 69.0576 51.6576 68.8204 51.331C68.8595 51.3849 68.3301 50.6286 68.1508 50.4002C67.7362 49.8722 67.2997 49.4649 66.7424 49.1342C64.6617 47.89 61.4361 47.373 58.8491 47.7774C54.4435 48.8233 51.2627 50.3937 49.3893 52.9709L48.2869 52.8033C47.9951 52.759 47.7322 52.9844 47.7322 53.2791V57.5419C47.7322 57.582 47.7368 57.6202 47.7453 57.6564C47.8118 58.4616 48.2012 59.1122 48.9612 59.5675C49.139 59.6733 49.3202 59.7674 49.5088 59.8528C49.932 60.0446 50.2834 60.1579 50.9922 60.3537C52.1718 60.6794 52.6589 60.8627 53.3265 61.3086C53.9357 61.7152 54.147 61.978 54.5098 62.64C54.6142 62.8305 54.6734 62.9334 54.7513 63.0538C55.0138 63.4597 55.3353 63.787 55.821 64.1056C57.1603 64.9845 58.7386 65.0904 62.2521 64.8677C63.3026 64.8013 64.333 64.6732 65.3202 64.5011C65.8234 64.4133 66.2849 64.3195 66.7017 64.2242C66.8497 64.1903 66.9819 64.1586 67.103 64.1283C67.1687 64.1119 67.2712 64.0856 67.2678 64.0864C67.5743 64.0121 67.7279 63.6688 67.5789 63.3914C67.5527 63.3472 67.5384 63.3228 67.5185 63.2851C67.4825 63.2169 67.4464 63.1384 67.4123 63.0501C67.1101 62.2677 67.1856 61.4394 67.9192 60.6298C68.2624 60.2511 68.7418 59.892 69.3732 59.5598C69.8333 59.3171 70.3287 59.1209 70.8548 58.968C72.3713 58.5272 73.9917 58.4706 75.4887 58.6398C75.6391 58.6568 75.7749 58.6748 75.8985 58.6935C75.9696 58.7042 76.1035 58.7262 76.0876 58.7238ZM72.0507 53.8186C73.0177 54.131 73.7277 54.4521 74.2517 54.8519C75.1414 55.4554 75.6834 56.3016 75.6976 57.6951C75.6648 57.6912 75.6313 57.6872 75.5972 57.6834C73.9841 57.5011 72.2434 57.5619 70.5853 58.0438C69.9984 58.2144 69.4426 58.4346 68.9231 58.7086C68.1966 59.0909 67.6269 59.5175 67.2041 59.9841C66.2326 61.0563 66.0979 62.2229 66.4729 63.289C66.0755 63.3797 65.6349 63.4691 65.1543 63.5529C64.2002 63.7192 63.2044 63.843 62.1911 63.9071C58.9103 64.1151 57.4405 64.0164 56.3507 63.3013C55.9787 63.0573 55.7521 62.8266 55.5614 62.5318C55.4998 62.4365 55.4496 62.3492 55.3558 62.178C54.9251 61.3921 54.6223 61.0156 53.8627 60.5085C53.0852 59.9893 52.5229 59.7777 51.2494 59.426C50.587 59.2431 50.2712 59.1412 49.9073 58.9764C49.7508 58.9055 49.6015 58.8279 49.4563 58.7415C48.9508 58.4387 48.7291 58.0494 48.7021 57.5125C48.7011 57.4941 48.6992 57.4761 48.6965 57.4585V53.8392L49.5399 53.9674C49.7239 53.9954 49.9077 53.9151 50.0119 53.7611C51.6901 51.283 54.7394 49.7423 59.0354 48.721C61.3724 48.3572 64.3702 48.8377 66.2483 49.9607C66.6947 50.2257 67.0458 50.5533 67.3918 50.9939C67.5518 51.1977 68.065 51.9308 68.0397 51.896C68.3439 52.3147 68.5947 52.5815 68.9139 52.7799C69.1081 52.9006 69.3626 53.0078 69.706 53.1226C69.8621 53.1748 70.3363 53.3128 70.8267 53.4555C71.3219 53.5996 71.8336 53.7485 72.0507 53.8186Z" fill="black"/>
<path fill-rule="evenodd" clip-rule="evenodd" d="M69.0082 54.803C72.0451 53.1905 75.799 53.8896 75.9744 53.917C76.7695 52.0002 75.0339 50.5918 74.347 50.1228C72.817 48.9446 69.9031 48.5875 69.0285 48.04C68.1564 47.4945 67.8438 46.0947 66.3736 45.2168C64.3143 43.977 61.1883 43.5538 58.8522 43.9217C54.8229 44.8856 50.1386 46.7166 48.6567 51.0669C48.2032 52.4076 47.7497 53.9476 49.2027 54.8234C50.6057 55.6646 51.9818 55.5173 53.5587 56.5772C55.1355 57.6371 54.6207 58.4394 56.0333 59.3724C57.4689 60.3208 59.79 60.2052 62.1283 60.0563C64.8319 59.8839 66.9174 59.3146 67.0272 59.2877C67.0108 59.2565 65.3769 56.7267 69.0082 54.803Z" fill="white"/>
<path fill-rule="evenodd" clip-rule="evenodd" d="M67.7909 56.2975C68.1315 55.919 68.6075 55.5601 69.2346 55.2279C69.6909 54.9856 70.1824 54.7895 70.7046 54.6367C72.2106 54.1959 73.8201 54.1393 75.3062 54.3086C75.4554 54.3256 75.5901 54.3436 75.7126 54.3623C75.7836 54.3731 75.921 54.3958 75.8996 54.3925C76.1196 54.427 76.3346 54.3065 76.4198 54.1011C77.1693 52.2941 76.212 50.8131 74.6192 49.7256C74.0373 49.2765 73.2443 48.9155 72.1884 48.5721C71.9515 48.495 71.4078 48.3358 70.9016 48.1876C70.4378 48.0517 70.0056 47.9252 69.8699 47.8795C69.5932 47.7864 69.3999 47.7045 69.2846 47.6323C69.0961 47.5144 68.9215 47.3274 68.686 47.001C68.7254 47.0557 68.199 46.2985 68.0208 46.07C67.609 45.5421 67.1751 45.1347 66.6211 44.8038C64.553 43.5588 61.3477 43.0415 58.777 43.4464C53.1987 44.7793 49.5367 46.9883 48.2002 50.912C47.451 53.1269 47.4722 54.3426 48.9534 55.2354C49.13 55.3413 49.3101 55.4355 49.4976 55.521C49.9185 55.7131 50.2679 55.8265 50.9726 56.0225C52.1436 56.348 52.6268 56.5311 53.2893 56.9764C53.8937 57.3827 54.1036 57.6454 54.4639 58.3073C54.5672 58.4972 54.6258 58.5997 54.7028 58.7197C54.9639 59.1265 55.2836 59.4544 55.7671 59.7737C57.0984 60.6532 58.666 60.759 62.1589 60.5366C63.202 60.4701 64.2251 60.342 65.2055 60.17C65.7058 60.0823 66.1646 59.9884 66.579 59.893C66.7261 59.8591 66.8577 59.8274 66.9779 59.7971C67.0437 59.7806 67.146 59.7541 67.142 59.7551C67.4459 59.6807 67.5993 59.3416 67.4544 59.0648C67.4001 58.9763 67.3454 58.8718 67.2872 58.72C66.9869 57.9368 67.062 57.1074 67.7909 56.2975ZM75.4155 53.3523C73.8125 53.1697 72.0818 53.2305 70.4333 53.7131C69.8502 53.8837 69.298 54.104 68.7819 54.3781C68.0597 54.7607 67.4936 55.1875 67.0735 55.6543C66.1085 56.7266 65.9751 57.8926 66.3479 58.9584C65.9533 59.049 65.5157 59.1384 65.0385 59.2221C64.0914 59.3882 63.1031 59.512 62.0975 59.5761C58.8386 59.7836 57.3802 59.6851 56.2993 58.9711C55.9295 58.7268 55.7044 58.496 55.5148 58.2005C55.4538 58.1055 55.4041 58.0184 55.3111 57.8477C54.8834 57.0619 54.5826 56.6853 53.8279 56.178C53.0553 55.6587 52.4965 55.447 51.2313 55.0953C50.5733 54.9123 50.2598 54.8105 49.8985 54.6456C49.7432 54.5748 49.5949 54.4973 49.4509 54.4109C48.5126 53.8453 48.4985 53.0389 49.1135 51.2208C50.3138 47.697 53.7144 45.6457 58.9645 44.3898C61.2836 44.026 64.2598 44.5063 66.1245 45.6289C66.5678 45.8936 66.9165 46.221 67.2599 46.6613C67.4189 46.8651 67.9291 47.5989 67.9035 47.5635C68.2057 47.9824 68.4549 48.2492 68.7724 48.4478C68.9658 48.5689 69.2195 48.6764 69.5619 48.7916C69.7166 48.8436 70.1863 48.9812 70.6723 49.1236C71.1646 49.2678 71.6736 49.4169 71.8896 49.4872C72.8496 49.7994 73.5544 50.1203 74.0524 50.5039C75.2109 51.2957 75.9059 52.2756 75.6439 53.3804C75.5712 53.3707 75.4952 53.3613 75.4155 53.3523Z" fill="black"/>
<path fill-rule="evenodd" clip-rule="evenodd" d="M65.2965 59.7842L66.8344 59.3941L66.8653 63.4183L65.4772 63.7757" fill="white"/>
<path d="M66.5279 59.8756L65.275 60.1515C65.0149 60.2088 64.7576 60.0448 64.7003 59.7853C64.6429 59.5257 64.8072 59.2689 65.0672 59.2116L66.8858 58.8112C67.1801 58.7464 67.4611 58.9638 67.4715 59.2644L67.624 63.652C67.6323 63.8902 67.4645 64.0986 67.2296 64.1419L65.5098 64.4587C65.2479 64.5069 64.9965 64.3341 64.9481 64.0727C64.8998 63.8114 65.0729 63.5604 65.3348 63.5122L66.6459 63.2707L66.5279 59.8756Z" fill="black"/>
<path fill-rule="evenodd" clip-rule="evenodd" d="M73.1754 54.241C74.4173 54.1399 76.0062 54.2836 76.0062 54.2836L76.0362 58.1641C76.0362 58.1641 75.1193 57.9735 74.4697 57.9949" fill="white"/>
<path d="M75.1336 54.3287C74.6549 54.2733 74.1808 54.2367 73.7411 54.2275C73.6706 54.226 73.6014 54.2252 73.5337 54.2252C73.2674 54.2252 73.0515 54.0098 73.0515 53.744C73.0515 53.4782 73.2674 53.2627 73.5337 53.2627C73.6083 53.2627 73.6842 53.2635 73.7613 53.2652C74.2348 53.2751 74.7381 53.314 75.2447 53.3726C75.4515 53.3966 75.6449 53.4222 75.8197 53.4479C75.9255 53.4635 76.0024 53.4757 76.0451 53.483C76.2663 53.5205 76.4323 53.7055 76.4455 53.9292L76.6957 58.1804C76.712 58.4568 76.4918 58.6898 76.2144 58.6898C76.1473 58.6898 75.5174 58.6182 75.4997 58.6163C75.3243 58.598 75.1639 58.5831 75.0129 58.5718C74.7527 58.5522 74.5341 58.5443 74.3672 58.5498C74.1011 58.5585 73.8782 58.3502 73.8695 58.0846C73.8607 57.819 74.0693 57.5965 74.3355 57.5878C74.5431 57.581 74.7934 57.59 75.0853 57.612C75.2467 57.6241 75.4162 57.6398 75.6003 57.6591C75.6332 57.6625 75.6661 57.666 75.6997 57.6697L75.5058 54.3756C75.3884 54.3596 75.2638 54.3438 75.1336 54.3287Z" fill="black"/>
<path fill-rule="evenodd" clip-rule="evenodd" d="M74.7614 48.6032C76.4964 48.5598 78.3632 48.1487 79.5536 47.325C78.4098 46.6455 76.3553 46.1787 74.6022 46.2007C73.0387 46.2152 71.0594 46.5699 69.9108 47.405C71.0299 48.2526 73.0279 48.6448 74.7614 48.6032Z" fill="white"/>
<path fill-rule="evenodd" clip-rule="evenodd" d="M69.6193 47.7884C70.7707 48.6605 72.7999 49.1317 74.7734 49.0844C76.7312 49.0353 78.621 48.5559 79.8283 47.7205C80.1167 47.521 80.1017 47.0906 79.8002 46.9114C78.5735 46.1828 76.4321 45.6964 74.5961 45.7195C72.7027 45.7371 70.7623 46.1905 69.6269 47.016C69.3657 47.2059 69.3619 47.5934 69.6193 47.7884ZM74.6069 46.682C75.9171 46.6655 77.4102 46.9368 78.5056 47.3589C77.4905 47.8152 76.1422 48.0872 74.7497 48.1221C73.3261 48.1563 71.8711 47.8904 70.8608 47.4122C71.8476 46.9582 73.2411 46.6946 74.6069 46.682Z" fill="black"/>
<path fill-rule="evenodd" clip-rule="evenodd" d="M79.9226 15.3742V17.5096C79.3615 16.8821 78.5853 16.274 77.6479 15.7492C76.3699 15.0335 74.8028 14.4775 73.3306 14.1155C73.0936 14.0572 72.9319 13.9286 72.9225 13.7874C72.8619 12.8901 72.8229 12.4522 72.7352 11.6119C72.7033 11.3048 72.2225 11.0565 71.682 11.0692C71.1852 11.0806 70.8037 11.31 70.8143 11.5928C70.8414 12.2934 70.8542 12.6566 70.8733 13.3995C70.8783 13.607 70.5523 13.7707 70.1801 13.747C68.2242 13.6209 66.2506 13.8361 64.3581 14.3504V13.1028H59.3036V16.7501H59.3076C59.3017 16.8639 59.3667 16.9721 59.5137 17.0517C64.759 19.9376 69.9369 22.9367 75.1456 25.8855C75.4417 26.0527 75.9821 26.0089 76.3593 25.7937C76.6297 25.6392 76.7649 25.5621 77.0347 25.4082C79.9485 23.7443 81.5266 21.7619 81.1628 19.8858C81.1231 19.6807 81.4154 19.4957 81.7804 19.4917C83.0871 19.4775 83.7244 19.4701 84.9509 19.4513C85.4367 19.4439 85.8261 19.2204 85.8214 18.953V15.3742H79.9226Z" fill="white"/>
<path fill-rule="evenodd" clip-rule="evenodd" d="M79.9225 14.893C79.6563 14.893 79.4404 15.1084 79.4404 15.3742V16.3857C78.9829 16.0076 78.4591 15.6516 77.8838 15.3295C76.6371 14.6313 75.0653 14.0464 73.3952 13.633C73.3407 12.8373 73.3019 12.3971 73.2147 11.562C73.1503 10.9416 72.4302 10.5703 71.6706 10.5881C70.9406 10.6049 70.3089 10.9856 70.3324 11.6108C70.3598 12.3172 70.3717 12.6656 70.3871 13.2527C70.3376 13.2649 70.2758 13.2709 70.2108 13.2667C68.4293 13.1519 66.6149 13.3113 64.8402 13.7314V13.1029C64.8402 12.8371 64.6243 12.6216 64.3581 12.6216H59.3035C59.0373 12.6216 58.8214 12.8371 58.8214 13.1029V16.7501C58.8163 17.0535 58.9938 17.3178 59.2839 17.4748C62.2812 19.1239 64.7067 20.4945 70.0014 23.5133L70.1065 23.5732C72.4879 24.931 73.5702 25.547 74.9077 26.3042C75.3641 26.5618 76.0819 26.5063 76.5986 26.2115L76.9377 26.0178L77.2739 25.8261C80.3135 24.0903 81.941 22.0188 81.6676 19.9862C81.7021 19.9785 81.7424 19.9734 81.7857 19.973C83.2694 19.9569 83.8384 19.9497 84.9582 19.9326C85.6748 19.9216 86.3141 19.5553 86.3034 18.9446L86.3035 15.3742C86.3035 15.1084 86.0876 14.893 85.8214 14.893H79.9225ZM73.343 13.6073C73.3455 13.6094 73.3482 13.6117 73.3508 13.6144L73.3461 13.6097L73.343 13.6073ZM80.4047 17.5096C80.4047 17.9517 79.8578 18.1599 79.5629 17.8301C79.0311 17.2354 78.2922 16.6617 77.412 16.1689C76.2473 15.5166 74.7555 14.9615 73.2153 14.5828C72.7967 14.4798 72.4677 14.2162 72.4415 13.8198C72.3832 12.9572 72.346 12.5273 72.2556 11.6615C72.2587 11.6919 72.25 11.6872 72.2113 11.666L72.2113 11.666C72.202 11.6609 72.191 11.6549 72.178 11.6482C72.054 11.5843 71.8771 11.546 71.6931 11.5503C71.5308 11.5541 71.3912 11.5905 71.3071 11.6412C71.3155 11.9545 71.3225 12.1974 71.329 12.4264L71.329 12.4269C71.3376 12.7286 71.3455 13.006 71.3553 13.3879C71.3691 13.9632 70.7645 14.2665 70.149 14.2273C68.2704 14.1061 66.3504 14.3078 64.4848 14.8148C64.1781 14.8982 63.876 14.6677 63.876 14.3505V13.5841H59.7857L59.7857 16.6518C62.7736 18.2961 65.2039 19.6695 70.4798 22.6775L70.5849 22.7375C72.9654 24.0947 74.0471 24.7104 75.383 25.4667C75.5161 25.5418 75.8783 25.5138 76.1198 25.376L76.4586 25.1825L76.7953 24.9905C79.6128 23.3816 80.9966 21.5616 80.6894 19.977C80.5749 19.385 81.1525 19.0174 81.7752 19.0105C83.2576 18.9944 83.8253 18.9873 84.9435 18.9702C85.1016 18.9677 85.2423 18.9326 85.3301 18.8823C85.3342 18.8799 85.3393 15.8555 85.3393 15.8555H80.4047V17.5096Z" fill="black"/>
<path fill-rule="evenodd" clip-rule="evenodd" d="M74.2473 27.1017C74.2502 27.0734 74.2517 27.0454 74.2473 27.018V23.5167L68.0543 23.2979V23.2992C64.916 21.4881 61.774 19.6843 58.5946 17.9464C58.197 17.7292 57.5053 17.7702 57.0418 18.0297C55.5769 18.8509 54.8456 19.2611 53.4262 20.0589C52.8105 20.3897 52.2861 20.7659 51.8451 21.1729H50.1429V25.2132L50.1674 25.2148C50.3438 26.9184 51.5194 28.5882 53.6474 29.7203C58.6087 32.359 65.1583 32.5466 70.2335 29.6605C71.6529 28.8477 72.381 28.4314 73.8347 27.599C74.0785 27.4593 74.2175 27.2894 74.2458 27.1282H74.2473V27.1017Z" fill="white"/>
<path fill-rule="evenodd" clip-rule="evenodd" d="M74.7087 27.2684C74.6349 27.5704 74.4043 27.8275 74.0745 28.0164L72.2219 29.077L70.4721 30.0786C65.3818 32.9733 58.6688 32.9362 53.4206 30.1449C51.2858 29.0092 49.9595 27.2947 49.706 25.4169C49.677 25.3549 49.6608 25.2858 49.6608 25.2132V21.1729C49.6608 20.9071 49.8766 20.6916 50.1429 20.6916H51.66C52.1097 20.2976 52.6221 19.9443 53.1896 19.6396C54.4963 18.905 55.1697 18.5272 56.8059 17.61C57.4099 17.2718 58.2762 17.2238 58.8262 17.5242C61.5294 19.0019 64.0492 20.4324 68.1892 22.8211L74.2644 23.0357C74.5238 23.0449 74.7295 23.2575 74.7295 23.5167V26.9893C74.7337 27.0347 74.7331 27.0769 74.7295 27.1231C74.7295 27.1769 74.7222 27.224 74.7087 27.2684ZM73.7652 23.9812L68.0801 23.7804C67.9915 23.7853 67.8993 23.7656 67.8129 23.7158C63.6156 21.2936 61.0811 19.8542 58.3631 18.3685C58.1223 18.2369 57.6061 18.2655 57.2779 18.4493C55.6422 19.3662 54.9691 19.7439 53.6547 20.4826C53.0891 20.7865 52.5949 21.1363 52.1725 21.5262C52.0834 21.6084 51.9665 21.6541 51.8451 21.6541H50.6251V25.0631C50.6359 25.0957 50.6433 25.1299 50.647 25.1653C50.8124 26.7633 51.9497 28.2717 53.8741 29.2955C58.8363 31.9347 65.1984 31.9699 69.9936 29.243L71.7422 28.242L73.5946 27.1816C73.7021 27.1199 73.755 27.0668 73.7677 27.0502L73.7652 23.9812Z" fill="black"/>
<path fill-rule="evenodd" clip-rule="evenodd" d="M81.8091 15.7204C83.1067 15.7061 83.7395 15.6986 84.9575 15.6796C85.4399 15.6721 85.8266 15.4465 85.8216 15.1763C85.8169 14.9065 85.4225 14.6849 84.9413 14.6808C83.4515 14.6684 82.671 14.6616 81.0686 14.6519C80.8091 14.6503 80.5716 14.5545 80.4836 14.4119C79.9478 13.5411 78.9732 12.6643 77.7054 11.9429C76.4363 11.2205 74.8798 10.6593 73.4182 10.2939C73.1828 10.2351 73.0222 10.105 73.0129 9.96247C72.9527 9.05708 72.914 8.61481 72.8269 7.76669C72.7952 7.457 72.3177 7.20646 71.781 7.21922C71.2874 7.23073 70.9088 7.46229 70.9194 7.7477C70.9463 8.45483 70.959 8.82116 70.9776 9.57125C70.9829 9.78071 70.6589 9.94598 70.2896 9.92201C66.8938 9.69979 63.4437 10.5252 60.4675 12.1878C60.2017 12.3385 60.0687 12.4138 59.8024 12.5647C59.4312 12.7751 59.3813 13.0833 59.6976 13.2576C64.906 16.1704 70.0478 19.1975 75.2209 22.1739C75.5145 22.3426 76.0512 22.2984 76.4255 22.0812C76.6943 21.9252 76.8285 21.8474 77.0964 21.6921C79.9899 20.0127 81.557 18.0117 81.1955 16.1181C81.1561 15.9112 81.4466 15.7244 81.8091 15.7204ZM53.3867 16.2065C48.9141 18.6386 49.142 23.4665 53.6053 25.8696C58.5071 28.5092 64.9781 28.6969 69.9925 25.8101C71.3952 24.9972 72.1139 24.5807 73.5501 23.7482C74.014 23.4793 74.1039 23.0961 73.7386 22.8854C68.6611 19.9486 63.6256 16.9336 58.4932 14.0935C58.1003 13.8763 57.4169 13.9174 56.9587 14.1773C55.5116 14.9983 54.7888 15.4085 53.3867 16.2065Z" fill="white"/>
<path fill-rule="evenodd" clip-rule="evenodd" d="M77.3385 22.1082C80.3594 20.3549 81.9745 18.2631 81.6993 16.2147C81.7329 16.207 81.7722 16.2021 81.8143 16.2016C83.2877 16.1853 83.8529 16.1781 84.9649 16.1608C85.6783 16.1497 86.3148 15.7788 86.3035 15.1675C86.2932 14.5652 85.6539 14.2055 84.9453 14.1996L83.4362 14.1871L83.1789 14.1851L82.4571 14.1797C82.0362 14.1767 81.5912 14.1738 81.0714 14.1706C81.0172 14.1703 80.9703 14.1623 80.938 14.1567C80.9044 14.151 80.8869 14.148 80.8938 14.1593C80.3067 13.2051 79.2654 12.2767 77.9441 11.5248C76.7058 10.8199 75.1441 10.2293 73.4859 9.81204C73.4316 9.00594 73.3931 8.56125 73.3064 7.71757C73.2429 7.09586 72.5256 6.7201 71.7694 6.73807C71.0427 6.75503 70.4143 7.14009 70.4374 7.7654C70.4648 8.48376 70.4765 8.83394 70.4916 9.42805C70.4436 9.43998 70.3838 9.44583 70.3208 9.44175C66.8677 9.21578 63.322 10.0416 60.2319 11.7678L59.8976 11.9573L59.5642 12.1462C58.8967 12.5246 58.7768 13.2999 59.4644 13.6788C62.4223 15.3331 64.8459 16.7249 70.0248 19.726L70.2118 19.8344C72.5634 21.1971 73.6501 21.8257 74.98 22.5908C75.4356 22.8526 76.1526 22.7962 76.6677 22.4972L77.0046 22.3018L77.3385 22.1082ZM73.4385 9.78912L73.4435 9.79388L73.439 9.78923L73.4359 9.78694L73.4385 9.78912ZM70.5426 9.41132C70.5469 9.40946 70.551 9.40754 70.5548 9.40557C70.5535 9.40622 70.5521 9.40712 70.5506 9.40826L70.5426 9.41132ZM81.6693 16.0283L81.6715 16.0415L81.6708 16.0365L81.6693 16.0283ZM70.5089 18.8936L70.6959 19.002C73.0466 20.3642 74.1327 20.9924 75.4612 21.7568C75.5901 21.8308 75.9455 21.8029 76.183 21.665L76.52 21.4696L76.8539 21.2761C79.6527 19.6516 81.028 17.8129 80.7216 16.2079C80.6092 15.6174 81.1837 15.246 81.8035 15.2391C83.2756 15.2229 83.8394 15.2157 84.9498 15.1984C85.0124 15.1974 85.0722 15.1911 85.1269 15.1807C85.0683 15.1693 85.0041 15.1626 84.9371 15.162L83.4283 15.1495L83.1713 15.1475L82.4501 15.1421C82.0296 15.1391 81.5849 15.1362 81.0655 15.1331C80.6544 15.1306 80.2619 14.9704 80.0725 14.6637C79.5777 13.8595 78.6563 13.038 77.4663 12.3609C76.3105 11.703 74.8297 11.1429 73.3008 10.7607C72.8845 10.6567 72.5574 10.3899 72.5316 9.99428C72.4737 9.12327 72.4367 8.68879 72.347 7.81545C72.3498 7.84281 72.3412 7.83801 72.305 7.81772L72.305 7.81771C72.2951 7.81221 72.2833 7.80557 72.2691 7.79812C72.1471 7.73423 71.9731 7.69599 71.7921 7.7003C71.6325 7.70402 71.4956 7.74035 71.4132 7.79083C71.4087 7.79355 71.4056 7.79505 71.4035 7.79532L71.4009 7.72935C71.4017 7.74874 71.4005 7.76379 71.3997 7.77459C71.3986 7.78913 71.3981 7.79598 71.4035 7.79532C71.4314 8.53171 71.4426 8.88159 71.4594 9.55912C71.4739 10.1345 70.8708 10.442 70.2579 10.4022C66.9928 10.1885 63.6322 10.9712 60.7054 12.6063L60.3737 12.7942L60.1162 12.9402C63.0006 14.5548 65.4328 15.9521 70.5089 18.8936ZM58.727 13.6726C58.1804 13.3703 57.3202 13.4187 56.7205 13.7588C55.0146 14.7267 54.4049 15.0731 53.152 15.7862C48.3793 18.3845 48.5442 23.6914 53.3765 26.2931C58.5644 29.0868 65.2012 29.124 70.2334 26.227L71.9625 25.2249L73.7923 24.1643C74.5377 23.7321 74.7241 22.898 73.9799 22.4687C72.6947 21.7254 71.6344 21.1072 69.3761 19.787L69.2874 19.7351C64.0466 16.6712 61.6896 15.312 58.727 13.6726ZM73.4844 23.1918L73.4831 23.1938C73.484 23.1922 73.4845 23.191 73.4847 23.1901L73.4844 23.1918ZM68.7999 20.5656L68.8886 20.6175C71.1025 21.9118 72.166 22.5319 73.419 23.2568C73.3914 23.2789 73.3546 23.3048 73.3078 23.332L71.4778 24.3927L69.7502 25.3939C65.0154 28.1197 58.7338 28.0845 53.8341 25.446C49.6606 23.1989 49.5267 18.8534 53.6254 16.6246C54.8806 15.9102 55.4894 15.5643 57.1967 14.5956C57.5187 14.413 58.0244 14.3846 58.2593 14.5145C61.213 16.1489 63.5656 17.5056 68.7999 20.5656Z" fill="black"/>
<path fill-rule="evenodd" clip-rule="evenodd" d="M69.5554 12.3437C68.6989 11.9088 67.368 11.9315 66.4772 12.3893C65.3226 12.9831 65.2468 14.0223 66.3881 14.6043C67.2445 15.0411 68.6152 15.0193 69.5069 14.5608C70.6639 13.9657 70.6961 12.9226 69.5554 12.3437ZM69.0651 13.7052C68.4452 14.024 67.4019 14.0406 66.8267 13.7472C66.4241 13.5419 66.4273 13.4976 66.9187 13.2449C67.5383 12.9265 68.5426 12.9094 69.1181 13.2016C69.5409 13.4161 69.5395 13.4612 69.0651 13.7052Z" fill="black"/>
<path fill-rule="evenodd" clip-rule="evenodd" d="M76.8239 16.1937C75.9757 15.7601 74.6224 15.7803 73.7242 16.2384C72.5619 16.8315 72.4725 17.885 73.6047 18.4674C74.444 18.8994 75.7909 18.8594 76.6999 18.3949C77.8637 17.8001 77.9599 16.7745 76.8239 16.1937ZM76.2603 17.5381C75.6188 17.866 74.5988 17.8963 74.0463 17.6119C73.6561 17.4111 73.6611 17.3515 74.1629 17.0954C74.7899 16.7756 75.8168 16.7603 76.3842 17.0503C76.7705 17.2479 76.7676 17.2789 76.2603 17.5381Z" fill="black"/>
<path fill-rule="evenodd" clip-rule="evenodd" d="M35.0562 53.8L32.3203 52.249C31.2037 51.616 29.8239 51.6704 28.7607 52.3893L28.5829 52.5095C27.7879 53.047 27.58 54.1261 28.1186 54.9197C28.2669 55.1382 28.4632 55.3201 28.6926 55.4515L31.4142 57.0106C32.5318 57.6508 33.9171 57.6 34.9845 56.8796L35.1717 56.7533C35.9689 56.2153 36.1783 55.134 35.6392 54.3382C35.489 54.1164 35.2895 53.9322 35.0562 53.8ZM28.917 54.3798C28.6772 54.0264 28.7698 53.5458 29.1239 53.3063L29.3016 53.1861C30.061 52.6726 31.0466 52.6338 31.8442 53.086L34.5801 54.6369C34.6843 54.696 34.7734 54.7782 34.8405 54.8773C35.0812 55.2327 34.9877 55.7157 34.6316 55.956L34.4445 56.0823C33.6821 56.5968 32.6926 56.6331 31.8943 56.1758L29.1727 54.6167C29.0706 54.5582 28.9831 54.4772 28.917 54.3798Z" fill="black"/>
</svg>
