<svg width="274" height="210" viewBox="0 0 274 210" fill="none" xmlns="http://www.w3.org/2000/svg">
<g filter="url(#filter0_d)">
<path d="M94.7461 134.614L51.2433 159.999L70.9971 171.477L59.8403 177.919L60.7231 178.432L72.775 171.477L53.0151 159.992L95.6289 135.127L94.7461 134.614Z" fill="white"/>
<path d="M80.641 154.335L103.483 167.608L104.374 167.095L82.419 154.335L105.628 140.934L104.741 140.421L80.641 154.335Z" fill="white"/>
<path d="M4 150.643L27.6068 164.363L86.965 130.091L86.0781 129.577L27.615 163.332L5.77798 150.643L17.8278 143.683L16.9409 143.17L4 150.643Z" fill="white"/>
<path d="M15.1677 128.839L43.634 145.383L78.5707 125.213L77.6776 124.693L43.634 144.348L16.0587 128.325L15.1677 128.839Z" fill="white"/>
<path d="M57.0556 176.4C55.6942 177.184 55.686 178.454 57.0411 179.24C58.3901 180.022 60.5806 180.022 61.944 179.238C63.1444 178.543 63.2888 177.471 62.373 176.689C62.2534 176.584 62.1173 176.491 61.9626 176.4C61.8037 176.307 61.6367 176.227 61.4593 176.159C60.1124 175.625 58.256 175.705 57.0556 176.4Z" fill="#9595EF"/>
<path opacity="0.1667" d="M65.512 177.616C65.512 180.945 62.8121 183.651 59.483 183.651C56.1518 183.651 53.4457 180.945 53.4457 177.616C53.4457 174.285 56.1518 171.585 59.483 171.585C62.8121 171.583 65.512 174.283 65.512 177.616Z" fill="#7B7BDB"/>
<path opacity="0.3333" d="M64.6758 177.684C64.6758 180.564 62.3388 182.905 59.4594 182.905C56.5799 182.905 54.2347 180.562 54.2347 177.684C54.2347 174.803 56.5799 172.466 59.4594 172.466C62.3388 172.464 64.6758 174.801 64.6758 177.684Z" fill="#D8CDFF"/>
<path opacity="0.5" d="M63.8481 177.75C63.8481 180.18 61.8742 182.158 59.4444 182.158C57.0147 182.158 55.0325 180.182 55.0325 177.75C55.0325 175.316 57.0147 173.344 59.4444 173.344C61.8763 173.344 63.8481 175.318 63.8481 177.75Z" fill="#BBBBFF"/>
<path opacity="0.6667" d="M63.0098 177.818C63.0098 179.8 61.4009 181.411 59.4208 181.411C57.4428 181.411 55.8215 179.8 55.8215 177.818C55.8215 175.834 57.4428 174.225 59.4208 174.225C61.4009 174.225 63.0098 175.834 63.0098 177.818Z" fill="#BBBBFF"/>
<path opacity="0.8333" d="M62.182 177.886C62.182 179.418 60.9362 180.666 59.4057 180.666C57.8773 180.666 56.6191 179.418 56.6191 177.886C56.6191 176.351 57.8773 175.105 59.4057 175.105C60.9362 175.108 62.182 176.351 62.182 177.886Z" fill="#7B7BDB"/>
<path d="M61.3458 177.954C61.3458 179.037 60.465 179.92 59.3821 179.92C58.3054 179.92 57.4082 179.037 57.4082 177.954C57.4082 176.869 58.3034 175.988 59.3821 175.988C60.465 175.988 61.3458 176.869 61.3458 177.954Z" fill="#9595EF"/>
<path d="M102.21 166.459C100.849 167.245 100.841 168.515 102.196 169.301C103.545 170.083 105.736 170.083 107.099 169.295C108.299 168.602 108.442 167.53 107.528 166.75C107.408 166.645 107.272 166.55 107.117 166.457C106.959 166.366 106.792 166.282 106.614 166.216C105.269 165.686 103.413 165.766 102.21 166.459Z" fill="#9595EF"/>
<path opacity="0.1667" d="M110.672 167.678C110.672 171.007 107.972 173.709 104.643 173.709C101.314 173.709 98.6053 171.007 98.6053 167.678C98.6053 164.345 101.314 161.643 104.643 161.643C107.972 161.641 110.672 164.343 110.672 167.678Z" fill="#7B7BDB"/>
<path opacity="0.3333" d="M109.835 167.744C109.835 170.623 107.498 172.962 104.619 172.962C101.74 172.962 99.3944 170.623 99.3944 167.744C99.3944 164.86 101.74 162.521 104.619 162.521C107.498 162.523 109.835 164.862 109.835 167.744Z" fill="#D8CDFF"/>
<path opacity="0.5" d="M109.001 167.81C109.001 170.242 107.027 172.216 104.597 172.216C102.168 172.216 100.183 170.242 100.183 167.81C100.183 165.376 102.166 163.4 104.597 163.4C107.029 163.4 109.001 165.376 109.001 167.81Z" fill="#BBBBFF"/>
<path opacity="0.6667" d="M108.163 167.88C108.163 169.862 106.554 171.471 104.572 171.471C102.592 171.471 100.973 169.862 100.973 167.88C100.973 165.896 102.594 164.285 104.572 164.285C106.554 164.285 108.163 165.896 108.163 167.88Z" fill="#BBBBFF"/>
<path opacity="0.8333" d="M107.333 167.947C107.333 169.479 106.087 170.725 104.557 170.725C103.028 170.725 101.77 169.479 101.77 167.947C101.77 166.412 103.028 165.164 104.557 165.164C106.089 165.164 107.333 166.412 107.333 167.947Z" fill="#7B7BDB"/>
<path d="M106.497 168.014C106.497 169.097 105.616 169.979 104.533 169.979C103.455 169.979 102.559 169.097 102.559 168.014C102.559 166.931 103.455 166.044 104.533 166.044C105.616 166.046 106.497 166.931 106.497 168.014Z" fill="#9595EF"/>
<path d="M14.4276 142.45C13.0663 143.234 13.0581 144.506 14.4132 145.29C15.7622 146.07 17.9547 146.07 19.3181 145.284C20.5186 144.589 20.663 143.516 19.7472 142.736C19.6275 142.633 19.4893 142.536 19.3367 142.448C19.1779 142.353 19.0108 142.272 18.8334 142.202C17.4865 141.674 15.6281 141.753 14.4276 142.45Z" fill="#9595EF"/>
<path opacity="0.1667" d="M22.8926 143.666C22.8926 146.993 20.1906 149.697 16.8635 149.697C13.5324 149.697 10.8262 146.993 10.8262 143.666C10.8262 140.331 13.5324 137.631 16.8635 137.631C20.1906 137.631 22.8926 140.331 22.8926 143.666Z" fill="#7B7BDB"/>
<path opacity="0.3333" d="M22.0563 143.732C22.0563 146.61 19.7194 148.951 16.8399 148.951C13.9605 148.951 11.6153 146.61 11.6153 143.732C11.6153 140.849 13.9605 138.512 16.8399 138.512C19.7214 138.512 22.0563 140.849 22.0563 143.732Z" fill="#D8CDFF"/>
<path opacity="0.5" d="M21.22 143.801C21.22 146.231 19.2481 148.207 16.8184 148.207C14.3886 148.207 12.4044 146.231 12.4044 143.801C12.4044 141.367 14.3865 139.394 16.8184 139.394C19.2502 139.394 21.22 141.365 21.22 143.801Z" fill="#BBBBFF"/>
<path opacity="0.6667" d="M20.3817 143.866C20.3817 145.848 18.7728 147.459 16.7927 147.459C14.8146 147.459 13.1934 145.848 13.1934 143.866C13.1934 141.882 14.8146 140.273 16.7927 140.273C18.7728 140.273 20.3817 141.882 20.3817 143.866Z" fill="#BBBBFF"/>
<path opacity="0.8333" d="M19.554 143.934C19.554 145.469 18.3102 146.715 16.7777 146.715C15.2493 146.715 13.9911 145.467 13.9911 143.934C13.9911 142.4 15.2493 141.154 16.7777 141.154C18.3102 141.154 19.554 142.4 19.554 143.934Z" fill="#7B7BDB"/>
<path d="M18.7157 144C18.7157 145.085 17.837 145.968 16.7541 145.968C15.6754 145.968 14.7802 145.087 14.7802 144C14.7802 142.917 15.6754 142.034 16.7541 142.034C17.837 142.034 18.7157 142.917 18.7157 144Z" fill="#9595EF"/>
<path d="M12.7221 127.348C11.3628 128.134 11.3545 129.404 12.7076 130.19C14.0566 130.97 16.2471 130.97 17.6125 130.186C18.813 129.493 18.9574 128.418 18.0416 127.639C17.924 127.536 17.7858 127.439 17.629 127.348C17.4702 127.255 17.3052 127.173 17.1278 127.107C15.7789 126.574 13.9246 126.653 12.7221 127.348Z" fill="#9595EF"/>
<path opacity="0.1667" d="M21.1777 128.564C21.1777 131.891 18.4756 134.596 15.1466 134.596C11.8154 134.596 9.10925 131.891 9.10925 128.564C9.10925 125.231 11.8154 122.531 15.1466 122.531C18.4777 122.529 21.1777 125.231 21.1777 128.564Z" fill="#7B7BDB"/>
<path opacity="0.3333" d="M20.3437 128.633C20.3437 131.512 18.0067 133.851 15.1273 133.851C12.2479 133.851 9.90265 131.512 9.90265 128.633C9.90265 125.749 12.2458 123.412 15.1273 123.412C18.0046 123.41 20.3437 125.749 20.3437 128.633Z" fill="#D8CDFF"/>
<path opacity="0.5" d="M19.5117 128.698C19.5117 131.128 17.5378 133.104 15.108 133.104C12.6782 133.104 10.696 131.128 10.696 128.698C10.696 126.264 12.6782 124.291 15.108 124.291C17.5398 124.291 19.5117 126.264 19.5117 128.698Z" fill="#BBBBFF"/>
<path opacity="0.6667" d="M18.6734 128.766C18.6734 130.747 17.0666 132.357 15.0844 132.357C13.1043 132.357 11.4851 130.747 11.4851 128.766C11.4851 126.782 13.1043 125.173 15.0844 125.173C17.0645 125.173 18.6734 126.782 18.6734 128.766Z" fill="#BBBBFF"/>
<path opacity="0.8333" d="M17.8393 128.836C17.8393 130.368 16.5955 131.614 15.065 131.614C13.5346 131.614 12.2784 130.368 12.2784 128.836C12.2784 127.301 13.5346 126.055 15.065 126.055C16.5955 126.055 17.8393 127.301 17.8393 128.836Z" fill="#7B7BDB"/>
<path d="M17.0073 128.9C17.0073 129.983 16.1287 130.866 15.0458 130.866C13.965 130.866 13.0718 129.983 13.0718 128.9C13.0718 127.817 13.965 126.933 15.0458 126.933C16.1287 126.935 17.0073 127.817 17.0073 128.9Z" fill="#9595EF"/>
<path d="M178.247 152.166L221.833 177.409L202.116 188.951L213.294 195.357L212.413 195.873L200.338 188.957L220.061 177.408L177.366 152.682L178.247 152.166Z" fill="#9595EF"/>
<path d="M192.42 171.84L169.622 185.187L168.73 184.677L190.642 171.846L167.39 158.521L168.276 158.004L192.42 171.84Z" fill="#9595EF"/>
<path d="M269.047 167.899L245.485 181.696L186.016 147.617L186.901 147.101L245.474 180.665L267.269 167.905L255.197 160.985L256.082 160.468L269.047 167.899Z" fill="#9595EF"/>
<path d="M257.81 146.132L229.398 162.769L194.396 142.712L195.287 142.189L229.395 161.733L256.918 145.621L257.81 146.132Z" fill="#9595EF"/>
<path d="M216.073 193.828C217.437 194.607 217.449 195.878 216.097 196.668C214.75 197.454 212.56 197.461 211.194 196.682C209.991 195.991 209.843 194.919 210.757 194.134C210.876 194.028 211.012 193.935 211.166 193.844C211.325 193.75 211.492 193.669 211.669 193.601C213.014 193.062 214.87 193.137 216.073 193.828Z" fill="#9595EF"/>
<path opacity="0.1667" d="M207.625 195.071C207.635 198.4 210.344 201.097 213.673 201.086C217.004 201.076 219.702 198.361 219.691 195.032C219.68 191.7 216.965 189.009 213.634 189.02C210.305 189.029 207.614 191.738 207.625 195.071Z" fill="#BBBBFF"/>
<path opacity="0.3333" d="M208.463 195.136C208.472 198.015 210.816 200.349 213.696 200.339C216.575 200.33 218.913 197.979 218.903 195.102C218.894 192.22 216.541 189.891 213.662 189.9C210.782 189.908 208.453 192.252 208.463 195.136Z" fill="#7B7BDB"/>
<path opacity="0.5" d="M209.292 195.198C209.3 197.628 211.28 199.599 213.71 199.592C216.14 199.584 218.115 197.601 218.107 195.169C218.1 192.736 216.111 190.77 213.681 190.778C211.249 190.786 209.284 192.766 209.292 195.198Z" fill="#D8CDFF"/>
<path opacity="0.6667" d="M210.128 195.264C210.134 197.247 211.748 198.852 213.728 198.846C215.706 198.839 217.322 197.223 217.316 195.241C217.309 193.257 215.683 191.653 213.705 191.66C211.725 191.666 210.121 193.28 210.128 195.264Z" fill="#BBBBFF"/>
<path opacity="0.8333" d="M210.957 195.329C210.962 196.862 212.212 198.106 213.742 198.101C215.271 198.096 216.525 196.844 216.52 195.311C216.515 193.777 215.253 192.535 213.724 192.54C212.194 192.547 210.952 193.795 210.957 195.329Z" fill="#7B7BDB"/>
<path d="M211.791 195.395C211.794 196.478 212.678 197.358 213.761 197.354C214.837 197.351 215.732 196.465 215.728 195.382C215.725 194.297 214.827 193.419 213.748 193.423C212.665 193.426 211.787 194.31 211.791 195.395Z" fill="#9595EF"/>
<path d="M170.888 184.033C172.252 184.815 172.265 186.085 170.912 186.875C169.566 187.662 167.375 187.669 166.009 186.885C164.807 186.196 164.661 185.124 165.572 184.341C165.691 184.236 165.827 184.14 165.982 184.047C166.14 183.956 166.307 183.871 166.484 183.804C167.827 183.27 169.684 183.344 170.888 184.033Z" fill="#9595EF"/>
<path opacity="0.1667" d="M162.432 185.28C162.443 188.609 165.152 191.302 168.481 191.292C171.81 191.281 174.509 188.57 174.499 185.241C174.488 181.908 171.771 179.214 168.442 179.225C165.113 179.234 162.421 181.945 162.432 185.28Z" fill="#BBBBFF"/>
<path opacity="0.3333" d="M163.27 185.343C163.28 188.222 165.624 190.554 168.504 190.544C171.383 190.535 173.721 188.188 173.711 185.309C173.702 182.425 171.349 180.094 168.47 180.103C165.59 180.115 163.261 182.461 163.27 185.343Z" fill="#7B7BDB"/>
<path opacity="0.5" d="M164.106 185.408C164.114 187.84 166.094 189.807 168.524 189.799C170.954 189.791 172.932 187.811 172.924 185.379C172.916 182.945 170.927 180.976 168.495 180.984C166.064 180.992 164.098 182.974 164.106 185.408Z" fill="#D8CDFF"/>
<path opacity="0.6667" d="M164.942 185.473C164.948 187.455 166.562 189.058 168.545 189.052C170.525 189.045 172.139 187.431 172.132 185.449C172.126 183.465 170.499 181.859 168.521 181.866C166.539 181.872 164.935 183.488 164.942 185.473Z" fill="#BBBBFF"/>
<path opacity="0.8333" d="M165.773 185.539C165.778 187.071 167.028 188.313 168.559 188.308C170.087 188.303 171.341 187.053 171.336 185.521C171.331 183.986 170.069 182.742 168.54 182.747C167.008 182.752 165.768 184.004 165.773 185.539Z" fill="#7B7BDB"/>
<path d="M166.607 185.603C166.61 186.686 167.494 187.566 168.577 187.562C169.656 187.558 170.548 186.673 170.544 185.59C170.541 184.507 169.643 183.623 168.564 183.627C167.481 183.632 166.603 184.52 166.607 185.603Z" fill="#9595EF"/>
<path d="M258.591 159.74C259.955 160.519 259.967 161.792 258.614 162.58C257.268 163.364 255.075 163.371 253.709 162.59C252.507 161.898 252.359 160.826 253.272 160.044C253.391 159.94 253.529 159.843 253.682 159.754C253.84 159.658 254.007 159.577 254.184 159.507C255.529 158.974 257.388 159.046 258.591 159.74Z" fill="#9595EF"/>
<path opacity="0.1667" d="M250.138 160.983C250.149 164.31 252.859 167.005 256.186 166.994C259.518 166.983 262.215 164.27 262.204 160.943C262.193 157.608 259.478 154.917 256.147 154.928C252.82 154.939 250.127 157.647 250.138 160.983Z" fill="#BBBBFF"/>
<path opacity="0.3333" d="M250.971 161.047C250.981 163.924 253.325 166.258 256.205 166.248C259.084 166.239 261.422 163.89 261.412 161.013C261.403 158.129 259.05 155.8 256.171 155.809C253.289 155.819 250.962 158.163 250.971 161.047Z" fill="#7B7BDB"/>
<path opacity="0.5" d="M251.809 161.113C251.817 163.543 253.796 165.512 256.225 165.504C258.655 165.496 260.633 163.514 260.625 161.084C260.617 158.65 258.628 156.683 256.197 156.691C253.765 156.699 251.801 158.677 251.809 161.113Z" fill="#D8CDFF"/>
<path opacity="0.6667" d="M252.645 161.176C252.651 163.158 254.266 164.763 256.246 164.757C258.224 164.75 259.84 163.134 259.833 161.152C259.827 159.168 258.2 157.564 256.222 157.571C254.242 157.577 252.639 159.191 252.645 161.176Z" fill="#BBBBFF"/>
<path opacity="0.8333" d="M253.474 161.24C253.479 162.775 254.727 164.017 256.26 164.012C257.788 164.007 259.042 162.755 259.037 161.222C259.032 159.688 257.77 158.446 256.242 158.451C254.709 158.456 253.469 159.706 253.474 161.24Z" fill="#7B7BDB"/>
<path d="M254.31 161.304C254.314 162.389 255.195 163.269 256.278 163.266C257.357 163.262 258.249 162.378 258.246 161.291C258.242 160.208 257.344 159.329 256.265 159.332C255.182 159.336 254.307 160.221 254.31 161.304Z" fill="#9595EF"/>
<path d="M260.252 144.63C261.614 145.412 261.626 146.682 260.276 147.472C258.929 148.256 256.739 148.264 255.371 147.484C254.168 146.795 254.02 145.721 254.934 144.938C255.051 144.835 255.189 144.737 255.345 144.646C255.504 144.553 255.668 144.47 255.846 144.403C257.193 143.867 259.047 143.939 260.252 144.63Z" fill="#9595EF"/>
<path opacity="0.1667" d="M251.8 145.877C251.811 149.204 254.522 151.899 257.851 151.888C261.182 151.877 263.879 149.164 263.868 145.837C263.857 142.504 261.142 139.813 257.811 139.824C254.48 139.833 251.789 142.543 251.8 145.877Z" fill="#BBBBFF"/>
<path opacity="0.3333" d="M252.631 145.941C252.641 148.821 254.985 151.152 257.865 151.143C260.744 151.134 263.082 148.787 263.072 145.908C263.063 143.024 260.712 140.695 257.831 140.704C254.953 140.711 252.622 143.058 252.631 145.941Z" fill="#7B7BDB"/>
<path opacity="0.5" d="M253.469 146.004C253.477 148.434 255.458 150.403 257.887 150.395C260.317 150.387 262.293 148.405 262.285 145.975C262.277 143.541 260.288 141.574 257.859 141.582C255.427 141.59 253.461 143.57 253.469 146.004Z" fill="#D8CDFF"/>
<path opacity="0.6667" d="M254.305 146.07C254.311 148.05 255.923 149.656 257.906 149.649C259.886 149.643 261.5 148.027 261.493 146.047C261.487 144.062 259.862 142.459 257.882 142.465C255.902 142.472 254.298 144.086 254.305 146.07Z" fill="#BBBBFF"/>
<path opacity="0.8333" d="M255.136 146.136C255.141 147.668 256.389 148.91 257.92 148.905C259.45 148.9 260.702 147.65 260.697 146.118C260.692 144.583 259.432 143.341 257.902 143.346C256.371 143.351 255.131 144.601 255.136 146.136Z" fill="#7B7BDB"/>
<path d="M255.97 146.199C255.974 147.282 256.855 148.162 257.938 148.158C259.019 148.155 259.909 147.269 259.905 146.186C259.902 145.103 259.006 144.221 257.925 144.225C256.842 144.23 255.966 145.116 255.97 146.199Z" fill="#9595EF"/>
<path d="M206.493 151.166L154.628 179.545C151.57 181.192 147.88 181.199 144.854 179.502L26.9747 111.786C20.3538 108.139 19.9572 98.7647 26.2882 94.5686L86.9712 72.0871C90.5752 69.689 95.2676 69.8494 98.7015 72.512L207.762 134.33C213.549 138.769 212.855 147.64 206.493 151.166Z" fill="#EAE7FF" fill-opacity="0.3" stroke="black" stroke-width="2" stroke-miterlimit="10" stroke-linecap="round" stroke-linejoin="round" stroke-dasharray="8 8"/>
<path d="M21.5941 94.931L21.4983 80.6965L39.9423 81.3652L82.3876 56.8131C88.1843 53.4694 95.3224 53.4694 101.119 56.7653L187.639 106.252L218.107 113.799L218.203 127.46C218.203 129.657 217.101 131.855 214.897 133.144L158.942 165.148C153.242 168.396 146.247 168.444 140.546 165.292L24.8996 101.523C22.3606 100.138 21.2587 97.4626 21.5941 94.931Z" fill="white" stroke="black" stroke-width="2" stroke-miterlimit="10" stroke-linejoin="round"/>
<path d="M21.5941 95.3612L21.4983 81.1267L39.9423 81.7954L82.3876 57.2433C88.1843 53.8996 95.3224 53.8996 101.119 57.1955L187.639 106.682L218.107 114.229L218.203 127.89C218.203 130.088 217.101 132.285 214.897 133.575L158.942 165.578C153.242 168.827 146.247 168.874 140.546 165.722L24.8996 101.953C22.3606 100.568 21.2587 97.8928 21.5941 95.3612Z" fill="white" stroke="black" stroke-width="2" stroke-miterlimit="10" stroke-linejoin="round"/>
<path d="M101.024 42.5788L214.803 107.589C219.21 110.073 219.21 116.379 214.803 118.91L158.848 150.914C153.147 154.162 146.152 154.21 140.451 151.057L24.8048 87.2885C20.3495 84.8524 20.3016 78.4994 24.709 75.92L82.2928 42.6743C88.0895 39.2829 95.2276 39.2829 101.024 42.5788Z" fill="white" stroke="black" stroke-width="2" stroke-miterlimit="10" stroke-linejoin="round"/>
<path d="M98.4366 50.6037L191.759 102.956C195.064 104.867 195.064 109.644 191.759 111.554L149.361 135.82C145.05 138.304 139.78 138.351 135.421 135.915L41.236 83.4195C37.8826 81.5566 37.8347 76.7322 41.1402 74.8215L84.2562 50.6515C88.6157 48.0721 94.0292 48.0721 98.4366 50.6037Z" fill="#9595EF"/>
<path d="M173.553 130.947C176.475 132.667 181.074 132.714 184.236 130.947C187.398 129.18 187.829 126.887 184.811 125.167C181.792 123.448 177.385 123.209 174.271 124.928C171.157 126.648 170.63 129.18 173.553 130.947Z" fill="white" stroke="black" stroke-width="2" stroke-miterlimit="10" stroke-linecap="round" stroke-linejoin="round"/>
<path d="M168.376 95.7929L124.267 120.991L71.4286 89.9634L115.541 64.7648L168.376 95.7929Z" fill="#9595EF" stroke="black"/>
<g opacity="0.8333">
<path opacity="0.8333" d="M168.374 85.0945L124.266 110.293L71.4274 79.2651L115.54 54.0685L168.374 85.0945Z" fill="#BBBBFF" stroke="black"/>
</g>
<g opacity="0.6667">
<path opacity="0.6667" d="M168.374 74.3973L124.266 99.596L71.4274 68.5679L115.54 43.3693L168.374 74.3973Z" fill="#D8CDFF" stroke="black"/>
</g>
<g opacity="0.5">
<path opacity="0.5" d="M168.374 63.6995L124.266 88.8981L71.4274 57.8721L115.54 32.6735L168.374 63.6995Z" fill="white" stroke="black"/>
</g>
<g opacity="0.3333">
<path opacity="0.3333" d="M70.4298 47.1655L124.262 78.7752L169.372 53.0068L115.544 21.395L70.4298 47.1655Z" fill="#D8CDFF"/>
</g>
<g opacity="0.1667">
<path opacity="0.1667" d="M70.4298 36.4696L124.262 68.0794L169.372 42.309L115.544 10.6992L70.4298 36.4696Z" fill="#D9FFFF"/>
</g>
<path d="M179.158 48.5132L130.961 76.3392L74.458 43.5039L122.655 15.6779L179.158 48.5132Z" fill="#9595EF" stroke="black"/>
<path d="M116.03 19.6114L115.914 19.281L116.03 19.6114C129.573 14.8712 140.27 18.7074 147.497 25.2929C154.748 31.9009 158.487 41.2569 158.107 47.5012C158.025 48.8275 157.271 50.2487 156.039 51.5792C154.812 52.9047 153.139 54.1091 151.285 55.0002C147.553 56.7946 143.234 57.2609 140.386 55.1102C137.483 52.9156 133.901 51.9194 131.065 51.4681C129.644 51.242 128.403 51.1514 127.516 51.1175C127.072 51.1004 126.717 51.0976 126.471 51.099C126.349 51.0997 126.254 51.1014 126.189 51.1031C126.156 51.1039 126.131 51.1046 126.114 51.1052L126.094 51.1059L126.089 51.1061L126.087 51.1062L126.087 51.1062C126.087 51.1062 126.087 51.1062 126.101 51.4554L126.087 51.106L126.073 51.1071C119.602 51.639 116.505 50.2131 115.02 48.7491C114.275 48.0144 113.917 47.2528 113.744 46.6797C113.657 46.3925 113.617 46.1525 113.598 45.987C113.589 45.9043 113.585 45.8405 113.584 45.799C113.583 45.7783 113.583 45.7632 113.583 45.7541L113.583 45.7451L113.583 45.7449L113.583 45.7445L113.583 45.7441L113.588 45.562L113.439 45.4537C109.302 42.4277 106.449 39.6254 104.731 37.0505C103.014 34.4788 102.442 32.1562 102.818 30.066C103.194 27.9728 104.532 26.0454 106.773 24.2912C109.015 22.5363 112.138 20.9735 116.03 19.6114Z" fill="url(#paint0_linear)" stroke="black" stroke-width="0.7"/>
<path d="M108.204 25.8767C108.249 25.8334 112.556 21.4668 118.43 21.2111C120.348 21.1306 122.485 21.2895 124.744 21.4607C129.599 21.8237 135.486 22.0217 140.31 19.9941L139.025 19.4146C134.442 21.341 129.556 20.747 124.824 20.3902C122.531 20.219 120.367 20.056 118.383 20.1406C112.073 20.4149 107.62 24.9382 107.432 25.128L108.204 25.8767Z" fill="#E8E1FF"/>
<path d="M126.008 20.9096L126.928 20.759C126.924 21.155 126.905 20.299 126.986 20.1753C127.204 19.8061 129.007 18.5004 133.702 17.7537L131.971 17.4072C127.943 18.0487 126.507 18.5974 125.971 19.7958C125.765 20.264 125.864 20.6889 126.008 20.9096Z" fill="#E8E1FF"/>
<path d="M140.145 28.9532L141.207 28.1859C139.541 25.7355 134.974 22.2537 132.313 21.0987C131.764 20.8594 132.117 21.0265 131.554 20.7666L130.195 21.3318C130.766 21.5958 131.331 21.8392 131.884 22.0826C134.51 23.2232 138.654 26.7606 140.145 28.9532Z" fill="#E8E1FF"/>
<path d="M155.519 35.4284L154.935 34.2898C154.525 34.2094 153.3 34.0176 150.62 33.044C149.467 32.6232 148.774 31.7714 148.038 30.87C147.161 29.7975 146.163 28.5784 144.284 28.069C141.434 27.2934 139.491 29.026 138.861 30.0491L139.777 30.6122C139.833 30.5194 141.227 28.3577 144.002 29.1044C145.548 29.5211 146.353 30.507 147.205 31.5507C147.999 32.5242 148.822 33.5308 150.253 34.0506C153.028 35.0613 155.435 35.414 155.519 35.4284Z" fill="#E8E1FF"/>
<path d="M149.764 33.1635C152.491 27.9017 144.735 23.6671 144.405 23.4897L143.898 24.4344C143.97 24.4736 151.055 28.3431 148.811 32.6684L149.764 33.1635Z" fill="#E8E1FF"/>
<path d="M153.797 54.059C154.022 53.8569 158.725 49.9235 156.627 45.6807C155.674 43.7562 154.369 42.4918 153.321 41.475C152.18 40.3694 151.359 39.5712 151.388 38.4553C151.434 36.6711 149.771 34.9612 148.109 34.1939C146.494 33.4493 144.969 33.5607 143.928 34.5033L144.646 35.2974C145.652 34.3899 147.09 34.9055 147.661 35.1695C149.179 35.8688 150.347 37.3002 150.316 38.4264C150.272 40.0146 151.341 41.048 152.576 42.2464C153.616 43.255 154.796 44.3998 155.668 46.1592C157.409 49.6718 152.032 54.9955 151.98 55.0388L153.797 54.059Z" fill="#E8E1FF"/>
<path d="M157.697 41.1634L157.249 39.6536C154.588 37.4527 151.043 38.9007 150.849 38.9791L151.232 39.9774C151.272 39.963 155.816 38.4675 157.697 41.1634Z" fill="#E8E1FF"/>
<path d="M150.445 52.0756C154.979 47.8616 154.847 43.5095 154.834 43.4744L153.712 43.2476L153.834 43.8581C153.875 43.9736 152.475 48.5217 149.917 50.7803L150.445 52.0756Z" fill="#E8E1FF"/>
<path opacity="0.1" d="M140.178 55.3862C134.504 51.0959 126.105 51.4528 126.105 51.4528C113.057 52.5253 113.236 45.7331 113.236 45.7331C102.601 37.957 100.277 31.5505 104.07 26.5053C106.137 25.2017 108.701 24.0199 111.716 22.9659C139.063 13.3953 155.035 38.4665 154.256 51.2073C154.188 52.3067 153.697 53.4412 152.905 54.522C148.885 56.9373 143.582 57.9604 140.178 55.3862Z" fill="black"/>
<path d="M107.962 25.2405L107.962 25.2405C123.136 21.0687 133.837 24.9217 140.653 31.3494C147.492 37.7979 150.444 46.8587 150.062 53.1232C149.978 54.4897 149.38 56.2502 148.365 58.027C147.353 59.7991 145.943 61.5604 144.265 62.933C142.586 64.3061 140.655 65.2788 138.598 65.5034C136.549 65.7271 134.345 65.2123 132.099 63.5575C128.887 61.1908 125.401 59.4878 122.723 58.3771C121.382 57.8214 120.241 57.4129 119.435 57.1432C119.032 57.0083 118.712 56.908 118.492 56.8413C118.382 56.8079 118.298 56.7829 118.24 56.7662L118.174 56.7473L118.157 56.7425L118.152 56.7412L118.151 56.7408L118.151 56.7407C118.151 56.7407 118.15 56.7407 118.057 57.0779L118.15 56.7407L118.09 56.724L118.028 56.7291C111.558 57.261 108.461 55.8352 106.976 54.3711C106.231 53.6364 105.872 52.8748 105.699 52.3016C105.613 52.0145 105.572 51.7744 105.554 51.609C105.545 51.5263 105.541 51.4625 105.539 51.421C105.538 51.4002 105.538 51.3851 105.538 51.376L105.538 51.367L105.538 51.3668L105.538 51.3664L105.538 51.366L105.543 51.184L105.395 51.0758C101.279 48.066 99.0225 45.0563 98.0238 42.2288C97.027 39.4063 97.2713 36.7323 98.2172 34.3637C99.1654 31.9893 100.82 29.9204 102.639 28.3346C104.46 26.7465 106.423 25.6636 107.962 25.2405Z" fill="url(#paint1_linear)" stroke="black" stroke-width="0.7"/>
<path d="M104.244 50.6383L105.188 51.3561C105.172 51.3272 104.072 48.1653 105.112 46.5131C105.661 45.6468 106.876 45.2425 108.72 45.3064L109.499 45.3353C113.845 45.5024 116.712 45.6138 118.133 43.9286C119.07 42.8189 119.229 41.1008 118.647 38.3595C117.593 33.3742 117.843 29.9522 119.387 28.1866C120.425 27.0006 122.127 26.4932 124.439 26.6644C129.135 27.0233 130.868 30.1379 131.557 39.4816C131.697 41.4101 133.424 43.481 135.956 44.7536C137.93 45.7499 142.221 48.2189 149.025 43.9059L148.664 42.8808C142.32 46.9009 138.252 44.7104 136.439 43.7966C133.935 42.5384 132.72 40.6841 132.625 39.4073C131.992 30.8041 130.513 26.0539 124.523 25.5981C121.858 25.398 119.856 26.0312 118.583 27.4833C116.78 29.5459 116.461 33.1761 117.603 38.5864C118.1 40.9399 118.01 42.4188 117.319 43.2417C116.236 44.5247 113.426 44.4195 109.542 44.2689L108.761 44.2401C106.513 44.1617 104.97 44.733 104.204 45.9521C102.839 48.1219 104.169 50.4981 104.244 50.6383Z" fill="#F3F0FD"/>
<path d="M121.505 51.393L122.571 51.2898C121.86 43.8561 112.165 44.3367 112.068 44.3491L112.13 45.4196C112.483 45.401 120.892 44.9885 121.505 51.393Z" fill="#E8E1FF"/>
<path d="M117.193 36.3357L118.247 36.1274C118.227 36.0346 116.335 27.1096 107.794 27.5159L107.846 28.5864C115.498 28.2007 117.125 36.0057 117.193 36.3357Z" fill="#E8E1FF"/>
<path d="M107.134 34.2351C108.346 30.1078 113.301 30.0253 113.354 30.0232L113.342 28.9507C113.286 28.9507 107.538 29.0455 106.104 33.9298L107.134 34.2351Z" fill="#E8E1FF"/>
<path d="M139.134 53.6191L139.522 52.6208C129.139 48.5678 132.391 39.2963 132.536 38.9044L131.527 38.5352C131.49 38.6404 127.783 49.1907 139.134 53.6191Z" fill="#E8E1FF"/>
<path d="M133.331 56.598L134.06 55.808C131.042 53.0338 133.356 48.397 133.381 48.3496L132.426 47.8628C132.31 48.0856 129.722 53.2772 133.331 56.598Z" fill="#E8E1FF"/>
<path d="M131.016 34.3937L131.889 33.7728C131.854 33.7233 128.263 28.7565 123.537 30.6376L123.933 31.6339C127.881 30.0642 130.985 34.3524 131.016 34.3937Z" fill="#E8E1FF"/>
<path d="M137.434 62.5134C142.314 62.0659 142.488 58.2995 143.55 54.8714C143.927 53.6442 144.169 52.4107 144.761 51.5939C146.656 48.9847 148.345 48.8238 150.191 48.733L150.01 47.6687C149.76 47.6543 145.831 47.3119 143.814 51.0886C143.288 52.0724 142.917 53.277 142.523 54.5558C141.456 58.0004 139.462 61.9813 135.295 62.3629L137.434 62.5134Z" fill="#E8E1FF"/>
<path d="M135.699 44.346L136.767 44.2511C136.406 40.1486 143.207 39.2596 143.275 39.2513L143.147 38.187C142.823 38.2283 135.251 39.2245 135.699 44.346Z" fill="#E8E1FF"/>
<path d="M138.04 40.623L138.949 40.0599C136.996 36.8855 140.109 32.783 140.14 32.7417L139.292 32.0879C139.143 32.2777 135.701 36.8216 138.04 40.623Z" fill="#E8E1FF"/>
<path d="M106.496 45.1049L107.463 44.645C106.475 42.5617 105.9 42.1616 103.992 40.8353C103.612 40.5733 103.179 40.2701 102.669 39.9071C100.023 38.0095 101.849 34.3669 101.871 34.3298L100.916 33.8389C100.12 35.3879 99.3321 38.8325 102.044 40.7775C102.558 41.1447 102.999 41.45 103.379 41.716C105.239 43.0072 105.629 43.2774 106.496 45.1049Z" fill="#E8E1FF"/>
<path d="M99.7679 41.7214C101.288 41.7214 102.598 40.8242 102.662 40.7809L102.051 39.8981C102.033 39.9084 100.572 40.9026 99.211 40.5891C98.5365 40.4344 97.466 39.1164 97.0328 38.3594L97.1298 40.0404C97.7197 41.0738 97.994 41.4141 98.98 41.6348C99.2481 41.6967 99.51 41.7214 99.7679 41.7214Z" fill="#E8E1FF"/>
<path d="M121.356 56.9448C121.477 56.9448 121.55 56.8622 121.653 56.7529C122.026 56.361 121.634 55.9836 121.467 55.8206L121.449 55.8392C121.213 55.635 120.588 55.0719 118.909 53.527C118.068 52.7514 117.672 51.9285 117.74 51.0766C117.897 49.1625 120.213 47.6093 120.238 47.5949L119.646 46.6997C119.532 46.774 116.867 48.5602 116.671 50.99C116.577 52.1884 117.086 53.3084 118.183 54.319C119.522 55.5484 120.279 56.2455 120.739 56.6065C120.77 56.6354 120.828 56.689 120.852 56.7199L120.871 56.7034C121.098 56.8767 121.246 56.9448 121.356 56.9448Z" fill="#E8E1FF"/>
<path d="M112.547 53.4049C113.124 52.4932 113.819 51.9445 114.613 51.7713C115.845 51.5052 116.936 52.2044 116.946 52.2147L117.532 51.3154C117.474 51.2783 116.059 50.3604 114.382 50.7235C113.297 50.9586 112.373 51.6702 111.637 52.8335L112.547 53.4049Z" fill="#E8E1FF"/>
<path d="M118.801 40.7097C118.826 40.6808 121.355 38.0159 123.783 38.0159C123.791 38.0159 123.799 38.0159 123.809 38.0159C124.678 38.0221 125.414 38.3707 126.058 39.0823L126.852 38.3624C126.006 37.4281 124.983 36.9537 123.816 36.9434C120.946 36.9495 118.133 39.8516 118.017 39.9754L118.801 40.7097Z" fill="#E8E1FF"/>
<path d="M109.521 38.3597C112.46 35.5545 109.733 30.6867 109.616 30.4805L108.683 31.0106C108.71 31.0518 111.113 35.3565 108.78 37.5821L109.521 38.3597Z" fill="#E8E1FF"/>
<path d="M140.823 59.6977L141.575 58.9365C140.769 58.1362 138.566 56.9667 135.982 58.2724L136.462 59.2294C138.995 57.9547 140.748 59.6275 140.823 59.6977Z" fill="#E8E1FF"/>
<path d="M128.068 53.3692C129.021 51.5789 131.925 51.8677 131.956 51.8738L132.073 50.8075C131.925 50.791 128.414 50.4321 127.125 52.868L128.068 53.3692Z" fill="#E8E1FF"/>
<g opacity="0.6">
<path opacity="0.1667" d="M140.103 55.1204C140.103 56.8799 141.53 58.3093 143.29 58.3093C145.049 58.3093 146.481 56.8799 146.481 55.1204C146.481 53.359 145.049 51.9316 143.29 51.9316C141.53 51.9316 140.103 53.359 140.103 55.1204Z" fill="white"/>
<path opacity="0.3333" d="M140.547 55.1572C140.547 56.6795 141.781 57.915 143.303 57.915C144.825 57.915 146.065 56.6774 146.065 55.1572C146.065 53.633 144.823 52.3975 143.303 52.3975C141.783 52.3975 140.547 53.6309 140.547 55.1572Z" fill="white"/>
<path opacity="0.5" d="M140.983 55.193C140.983 56.478 142.024 57.5217 143.309 57.5217C144.594 57.5217 145.642 56.478 145.642 55.193C145.642 53.9059 144.594 52.8643 143.309 52.8643C142.024 52.8622 140.983 53.9059 140.983 55.193Z" fill="white"/>
<path opacity="0.6667" d="M141.422 55.2273C141.422 56.2751 142.272 57.1249 143.318 57.1249C144.366 57.1249 145.222 56.2751 145.222 55.2273C145.222 54.1774 144.366 53.3276 143.318 53.3276C142.272 53.3276 141.422 54.1774 141.422 55.2273Z" fill="white"/>
<path opacity="0.8333" d="M141.858 55.262C141.858 56.0726 142.514 56.7306 143.322 56.7306C144.133 56.7306 144.797 56.0726 144.797 55.262C144.797 54.4514 144.133 53.7935 143.322 53.7935C142.514 53.7935 141.858 54.4514 141.858 55.262Z" fill="white"/>
<path opacity="0.6" d="M142.302 55.2998C142.302 55.8732 142.766 56.3373 143.338 56.3373C143.911 56.3373 144.383 55.8732 144.383 55.2998C144.383 54.7264 143.911 54.2603 143.338 54.2603C142.764 54.2582 142.302 54.7264 142.302 55.2998Z" fill="white"/>
</g>
<g opacity="0.6">
<path opacity="0.1667" d="M100.75 40.6546C100.75 42.414 102.179 43.8434 103.938 43.8434C105.696 43.8434 107.129 42.414 107.129 40.6546C107.129 38.8931 105.698 37.4658 103.938 37.4658C102.179 37.4658 100.75 38.8931 100.75 40.6546Z" fill="white"/>
<path opacity="0.3333" d="M101.185 40.6914C101.185 42.2136 102.421 43.4492 103.943 43.4492C105.465 43.4492 106.705 42.2116 106.705 40.6914C106.705 39.1671 105.465 37.9316 103.943 37.9316C102.421 37.9316 101.185 39.1671 101.185 40.6914Z" fill="white"/>
<path opacity="0.5" d="M101.625 40.7262C101.625 42.0112 102.667 43.0549 103.952 43.0549C105.237 43.0549 106.284 42.0112 106.284 40.7262C106.284 39.4391 105.237 38.3975 103.952 38.3975C102.667 38.3975 101.625 39.4391 101.625 40.7262Z" fill="white"/>
<path opacity="0.6667" d="M102.069 40.763C102.069 41.8108 102.919 42.6606 103.967 42.6606C105.015 42.6606 105.871 41.8108 105.871 40.763C105.871 39.7131 105.012 38.8633 103.967 38.8633C102.919 38.8633 102.069 39.7131 102.069 40.763Z" fill="white"/>
<path opacity="0.8333" d="M102.505 40.7987C102.505 41.6093 103.16 42.2673 103.971 42.2673C104.782 42.2673 105.446 41.6093 105.446 40.7987C105.446 39.9881 104.782 39.3301 103.971 39.3301C103.16 39.328 102.505 39.9881 102.505 40.7987Z" fill="white"/>
<path opacity="0.6" d="M102.949 40.834C102.949 41.4074 103.413 41.8715 103.984 41.8715C104.558 41.8715 105.03 41.4074 105.03 40.834C105.03 40.2606 104.558 39.7944 103.984 39.7944C103.413 39.7944 102.949 40.2606 102.949 40.834Z" fill="white"/>
</g>
<g opacity="0.6">
<path opacity="0.1667" d="M115.073 38.3959C115.073 40.1553 116.501 41.5847 118.262 41.5847C120.019 41.5847 121.451 40.1553 121.451 38.3959C121.451 36.6344 120.019 35.207 118.262 35.207C116.501 35.207 115.073 36.6344 115.073 38.3959Z" fill="white"/>
<path opacity="0.3333" d="M115.509 38.4325C115.509 39.9548 116.742 41.1903 118.266 41.1903C119.787 41.1903 121.026 39.9527 121.026 38.4325C121.026 36.9083 119.787 35.6748 118.266 35.6748C116.742 35.6727 115.509 36.9083 115.509 38.4325Z" fill="white"/>
<path opacity="0.5" d="M115.948 38.4669C115.948 39.7519 116.99 40.7956 118.275 40.7956C119.558 40.7956 120.606 39.7519 120.606 38.4669C120.606 37.1798 119.558 36.1382 118.275 36.1382C116.99 36.1382 115.948 37.1798 115.948 38.4669Z" fill="white"/>
<path opacity="0.6667" d="M116.393 38.5027C116.393 39.5505 117.242 40.4024 118.29 40.4024C119.336 40.4024 120.192 39.5505 120.192 38.5027C120.192 37.4528 119.336 36.603 118.29 36.603C117.24 36.603 116.393 37.4549 116.393 38.5027Z" fill="white"/>
<path opacity="0.8333" d="M116.828 38.5374C116.828 39.3481 117.484 40.006 118.295 40.006C119.103 40.006 119.767 39.3481 119.767 38.5374C119.767 37.7268 119.103 37.0688 118.295 37.0688C117.484 37.0709 116.828 37.7268 116.828 38.5374Z" fill="white"/>
<path opacity="0.6" d="M117.272 38.5752C117.272 39.1486 117.736 39.6148 118.308 39.6148C118.879 39.6148 119.351 39.1486 119.351 38.5752C119.351 38.0018 118.879 37.5356 118.308 37.5356C117.734 37.5356 117.272 38.0018 117.272 38.5752Z" fill="white"/>
</g>
<g opacity="0.6">
<path opacity="0.1667" d="M133.433 20.8002C133.433 22.5596 134.861 23.989 136.62 23.989C138.38 23.989 139.811 22.5596 139.811 20.8002C139.811 19.0366 138.38 17.6113 136.62 17.6113C134.863 17.6093 133.433 19.0366 133.433 20.8002Z" fill="white"/>
<path opacity="0.3333" d="M133.869 20.836C133.869 22.3561 135.104 23.5937 136.625 23.5937C138.145 23.5937 139.386 22.3561 139.386 20.836C139.386 19.3117 138.147 18.0762 136.625 18.0762C135.102 18.0762 133.869 19.3117 133.869 20.836Z" fill="white"/>
<path opacity="0.5" d="M134.309 20.8737C134.309 22.1566 135.35 23.2024 136.635 23.2024C137.92 23.2024 138.968 22.1587 138.968 20.8737C138.968 19.5866 137.92 18.5449 136.635 18.5449C135.348 18.5429 134.309 19.5845 134.309 20.8737Z" fill="white"/>
<path opacity="0.6667" d="M134.753 20.907C134.753 21.9548 135.603 22.8067 136.65 22.8067C137.696 22.8067 138.552 21.9548 138.552 20.907C138.552 19.8592 137.696 19.0073 136.65 19.0073C135.603 19.0073 134.753 19.8571 134.753 20.907Z" fill="white"/>
<path opacity="0.8333" d="M135.188 20.9427C135.188 21.7533 135.844 22.4113 136.655 22.4113C137.465 22.4113 138.127 21.7533 138.127 20.9427C138.127 20.13 137.463 19.4741 136.655 19.4741C135.844 19.4741 135.188 20.1321 135.188 20.9427Z" fill="white"/>
<path opacity="0.6" d="M135.632 20.9775C135.632 21.551 136.096 22.0171 136.668 22.0171C137.241 22.0171 137.711 21.551 137.711 20.9775C137.711 20.4041 137.239 19.938 136.668 19.938C136.096 19.938 135.632 20.4041 135.632 20.9775Z" fill="white"/>
</g>
<g opacity="0.6">
<path opacity="0.1667" d="M150.455 34.1882C152.216 34.1882 153.644 32.7605 153.644 30.9993C153.644 29.2382 152.216 27.8105 150.455 27.8105C148.694 27.8105 147.266 29.2382 147.266 30.9993C147.266 32.7605 148.694 34.1882 150.455 34.1882Z" fill="white"/>
<path opacity="0.3333" d="M147.71 31.0341C147.71 32.5563 148.946 33.7939 150.468 33.7939C151.99 33.7939 153.228 32.5563 153.228 31.0341C153.228 29.5098 151.988 28.2764 150.468 28.2764C148.944 28.2743 147.71 29.5098 147.71 31.0341Z" fill="white"/>
<path opacity="0.5" d="M148.141 31.0685C148.141 32.3535 149.183 33.3972 150.468 33.3972C151.753 33.3972 152.799 32.3535 152.799 31.0685C152.799 29.7814 151.753 28.7397 150.468 28.7397C149.183 28.7397 148.141 29.7814 148.141 31.0685Z" fill="white"/>
<path opacity="0.6667" d="M148.585 31.1052C148.585 32.151 149.433 33.0028 150.481 33.0028C151.529 33.0028 152.383 32.151 152.383 31.1052C152.383 30.0553 151.527 29.2056 150.481 29.2056C149.433 29.2056 148.585 30.0553 148.585 31.1052Z" fill="white"/>
<path opacity="0.8333" d="M149.021 31.1411C149.021 31.9517 149.677 32.6097 150.488 32.6097C151.298 32.6097 151.962 31.9517 151.962 31.1411C151.962 30.3284 151.298 29.6704 150.488 29.6704C149.677 29.6704 149.021 30.3284 149.021 31.1411Z" fill="white"/>
<path opacity="0.6" d="M149.465 31.1784C149.465 31.7497 149.927 32.2159 150.501 32.2159C151.074 32.2159 151.546 31.7497 151.546 31.1784C151.546 30.6029 151.074 30.1367 150.501 30.1367C149.927 30.1367 149.465 30.6029 149.465 31.1784Z" fill="white"/>
</g>
</g>
<defs>
<filter id="filter0_d" x="0" y="10.6992" width="273.047" height="198.387" filterUnits="userSpaceOnUse" color-interpolation-filters="sRGB">
<feFlood flood-opacity="0" result="BackgroundImageFix"/>
<feColorMatrix in="SourceAlpha" type="matrix" values="0 0 0 0 0 0 0 0 0 0 0 0 0 0 0 0 0 0 127 0"/>
<feOffset dy="4"/>
<feGaussianBlur stdDeviation="2"/>
<feColorMatrix type="matrix" values="0 0 0 0 0 0 0 0 0 0 0 0 0 0 0 0 0 0 0.25 0"/>
<feBlend mode="normal" in2="BackgroundImageFix" result="effect1_dropShadow"/>
<feBlend mode="normal" in="SourceGraphic" in2="effect1_dropShadow" result="shape"/>
</filter>
<linearGradient id="paint0_linear" x1="102.357" y1="37.0225" x2="158.483" y2="37.0225" gradientUnits="userSpaceOnUse">
<stop stop-color="#9ACEFF"/>
<stop offset="1" stop-color="#C185FE"/>
</linearGradient>
<linearGradient id="paint1_linear" x1="97.0315" y1="44.5277" x2="150.444" y2="44.5277" gradientUnits="userSpaceOnUse">
<stop stop-color="#AAB1FF"/>
<stop offset="1" stop-color="#C986FF"/>
</linearGradient>
</defs>
</svg>
