<svg width="224" height="179" viewBox="0 0 224 179" fill="none" xmlns="http://www.w3.org/2000/svg">
<g opacity="0.57">
<path fill-rule="evenodd" clip-rule="evenodd" d="M72.5083 59.7983C47.5258 78.3058 -13.1635 88.3632 4.01767 130.92C19.8608 170.163 54.5659 177.811 122.442 173.792C202.612 169.046 221.498 147.972 221.498 118.33C221.498 88.6873 202.612 69.4155 175.249 59.7983C147.884 50.1812 97.4907 41.2908 72.5083 59.7983Z" fill="#9595EF"/>
</g>
<path fill-rule="evenodd" clip-rule="evenodd" d="M133.109 142.868L164.778 123.111L133.109 142.868Z" fill="white"/>
<path fill-rule="evenodd" clip-rule="evenodd" d="M137.896 69.4348L43.7748 124.29C37.3919 128.011 37.4128 137.27 43.8113 140.961L103.776 174.603C109.565 177.942 116.677 177.979 122.5 174.701L218.101 120.879C224.588 117.226 224.644 107.875 218.202 104.144L156.892 69.4083C151.012 66.0029 143.767 66.013 137.896 69.4348Z" fill="white"/>
<path fill-rule="evenodd" clip-rule="evenodd" d="M137.896 69.4348L43.7748 124.29C37.3919 128.011 37.4128 137.27 43.8113 140.961L103.776 174.603C109.565 177.942 116.677 177.979 122.5 174.701L218.101 120.879C224.588 117.226 224.644 107.875 218.202 104.144L156.892 69.4083C151.012 66.0029 143.767 66.013 137.896 69.4348Z" stroke="black" stroke-width="2" stroke-linejoin="round"/>
<path fill-rule="evenodd" clip-rule="evenodd" d="M137.896 55.863L43.7748 110.718C37.3919 114.439 37.4128 123.698 43.8113 127.389L103.776 161.031C109.565 164.371 116.677 164.407 122.5 161.129L218.101 107.307C224.588 103.654 224.644 94.3027 218.202 90.5722L156.892 55.8365C151.012 52.4311 143.767 52.4413 137.896 55.863Z" fill="white"/>
<path fill-rule="evenodd" clip-rule="evenodd" d="M137.896 55.863L43.7748 110.718C37.3919 114.439 37.4128 123.698 43.8113 127.389L103.776 161.031C109.565 164.371 116.677 164.407 122.5 161.129L218.101 107.307C224.588 103.654 224.644 94.3027 218.202 90.5722L156.892 55.8365C151.012 52.4311 143.767 52.4413 137.896 55.863Z" stroke="black" stroke-width="2" stroke-linejoin="round"/>
<path fill-rule="evenodd" clip-rule="evenodd" d="M137.896 42.6447L43.7748 97.5002C37.3919 101.221 37.4128 110.48 43.8113 114.171L103.776 147.813C109.565 151.152 116.677 151.189 122.5 147.911L218.101 94.088C224.588 90.4362 224.644 81.0845 218.202 77.354L156.892 42.6183C151.012 39.2128 143.767 39.223 137.896 42.6447Z" fill="white"/>
<path fill-rule="evenodd" clip-rule="evenodd" d="M137.896 42.6447L43.7748 97.5002C37.3919 101.221 37.4128 110.48 43.8113 114.171L103.776 147.813C109.565 151.152 116.677 151.189 122.5 147.911L218.101 94.088C224.588 90.4362 224.644 81.0845 218.202 77.354L156.892 42.6183C151.012 39.2128 143.767 39.223 137.896 42.6447Z" stroke="black" stroke-width="2" stroke-linejoin="round"/>
<path d="M94.6378 113.752L124.083 130.883" stroke="#9595EF" stroke-width="5" stroke-linecap="round"/>
<path d="M74.9116 92.0674L133.802 126.329" stroke="#9595EF" stroke-width="5" stroke-linecap="round"/>
<path d="M83.5455 87.3208L142.437 121.583" stroke="#9595EF" stroke-width="5" stroke-linecap="round"/>
<path d="M92.1835 82.5757L151.074 116.838" stroke="#9595EF" stroke-width="5" stroke-linecap="round"/>
<path d="M100.822 77.8301L159.713 112.092" stroke="#9595EF" stroke-width="5" stroke-linecap="round"/>
<path d="M109.464 73.085L168.354 107.347" stroke="#9595EF" stroke-width="5" stroke-linecap="round"/>
<path d="M118.098 68.3389L176.989 102.601" stroke="#9595EF" stroke-width="5" stroke-linecap="round"/>
<path d="M126.736 63.5942L185.626 97.8563" stroke="#9595EF" stroke-width="5" stroke-linecap="round"/>
<path d="M135.374 58.8481L194.265 93.1102" stroke="#9595EF" stroke-width="5" stroke-linecap="round"/>
<path d="M149.09 59.5379C148.74 59.6582 148.38 59.6215 148.048 59.4254C147.621 59.1733 147.401 58.8185 147.225 58.0604C146.389 57.4638 146.146 56.4296 146.661 55.5583C147.21 54.6284 148.335 54.3659 149.309 54.9419C150.284 55.5178 150.599 56.625 150.047 57.5592C149.599 58.3183 148.773 58.6297 147.955 58.4136C148.021 58.7127 148.14 58.8805 148.324 58.9891C148.531 59.1112 148.761 59.1321 149.012 59.056L149.09 59.5379ZM147.702 57.663C148.335 58.0371 149.08 57.8531 149.459 57.2106C149.839 56.5686 149.64 55.8274 149.007 55.4534C148.374 55.0794 147.629 55.2631 147.25 55.9051C146.87 56.5476 147.068 57.2888 147.702 57.663Z" fill="#263238"/>
<path d="M153.422 58.4378L152.005 60.836L151.47 60.5202L151.65 60.2149C151.341 60.3289 150.989 60.2784 150.679 60.0952C150.064 59.7316 149.845 59.1481 150.272 58.4249L151.082 57.0552L151.643 57.387L150.879 58.6806C150.622 59.1161 150.706 59.4448 151.061 59.6543C151.452 59.8853 151.86 59.7995 152.144 59.3187L152.86 58.1062L153.422 58.4378Z" fill="#263238"/>
<path d="M155.582 61.0517L154.751 62.4576L154.221 62.1443L154.393 61.8525C154.137 61.9796 153.807 61.9422 153.448 61.7299C152.9 61.4062 152.732 60.9009 152.979 60.4834C153.215 60.0837 153.67 59.9285 154.398 60.3584L155.017 60.7246L155.039 60.6888C155.232 60.3611 155.149 60.0511 154.749 59.8147C154.479 59.6555 154.148 59.5808 153.881 59.6228L153.902 59.084C154.275 59.0374 154.706 59.159 155.092 59.3872C155.784 59.7959 155.991 60.3599 155.582 61.0517ZM154.633 61.3754L154.797 61.0968L154.218 60.7544C153.836 60.5289 153.648 60.6114 153.544 60.7866C153.425 60.9888 153.519 61.2198 153.806 61.3896C154.08 61.552 154.392 61.5669 154.633 61.3754Z" fill="#263238"/>
<path d="M157.433 59.5493L157.994 59.8809L156.025 63.2134L155.464 62.8818L157.433 59.5493Z" fill="#263238"/>
<path d="M158.539 60.4725C158.65 60.2838 158.891 60.226 159.097 60.3481C159.304 60.4702 159.374 60.6996 159.265 60.8838C159.148 61.0817 158.91 61.1466 158.699 61.022C158.492 60.8997 158.427 60.6612 158.539 60.4725ZM158.183 61.25L158.744 61.5816L157.327 63.9799L156.766 63.6483L158.183 61.25Z" fill="#263238"/>
<path d="M159.58 65.136C159.381 65.1641 159.147 65.0986 158.945 64.9791C158.42 64.6687 158.283 64.2123 158.596 63.6825L159.278 62.5285L158.883 62.295L159.148 61.8456L159.544 62.0791L159.867 61.5314L160.429 61.8632L160.105 62.411L160.747 62.7903L160.482 63.2397L159.84 62.8603L159.166 64.0011C159.028 64.2348 159.07 64.4295 159.286 64.5569C159.402 64.6258 159.533 64.6607 159.659 64.644L159.58 65.136Z" fill="#263238"/>
<path d="M163.584 64.442L160.931 66.3699C160.389 66.7832 159.986 66.7688 159.586 66.5326C159.348 66.392 159.144 66.1626 159.074 65.9329L159.543 65.6524C159.589 65.8196 159.705 65.9726 159.857 66.0629C160.055 66.1796 160.227 66.1541 160.476 65.9798L160.572 65.9095L160.948 62.8838L161.532 63.2288L161.238 65.4486L163.045 64.123L163.585 64.4416L163.584 64.442Z" fill="#263238"/>
<path d="M164.489 66.0906C165.033 65.17 166.135 64.9058 167.082 65.4656C167.54 65.7363 167.863 66.1332 167.961 66.6032L167.625 66.6893C167.523 66.2777 167.275 65.9793 166.916 65.7672C166.157 65.3187 165.258 65.5385 164.817 66.2841C164.377 67.0296 164.618 67.9235 165.377 68.372C165.736 68.5841 166.117 68.6577 166.529 68.5438L166.616 68.8794C166.157 69.0203 165.651 68.9332 165.188 68.66C164.245 68.1034 163.945 67.0113 164.489 66.0906Z" fill="#263238"/>
<path d="M167.355 68.3116C167.769 67.611 168.576 67.4148 169.268 67.8235C169.96 68.2322 170.172 69.0308 169.758 69.7314C169.344 70.432 168.54 70.6352 167.848 70.2265C167.156 69.8177 166.942 69.0122 167.355 68.3116ZM169.435 69.5404C169.762 68.9879 169.606 68.3994 169.103 68.1021C168.6 67.8048 168.005 67.9501 167.679 68.5026C167.352 69.0551 167.512 69.6462 168.015 69.9435C168.518 70.2407 169.109 70.0929 169.435 69.5404Z" fill="#263238"/>
<path d="M172.691 71.2117L171.881 72.5817L171.563 72.3934L172.354 71.0547C172.648 70.5564 172.539 70.1466 172.089 69.8811C171.582 69.5812 171.077 69.7073 170.759 70.2463L170.027 71.4858L169.707 71.2972L171.103 68.9348L171.408 69.1152L171.151 69.5507C171.492 69.3642 171.909 69.3862 172.317 69.6275C172.893 69.9675 173.091 70.5338 172.691 71.2117Z" fill="#263238"/>
<path d="M174.081 73.6858C173.889 73.7237 173.668 73.6663 173.484 73.5575C173.039 73.2948 172.941 72.8972 173.198 72.4617L174.042 71.0335L173.62 70.7842L173.779 70.5147L174.201 70.764L174.506 70.2474L174.825 70.4357L174.52 70.9524L175.238 71.3769L175.079 71.6464L174.361 71.2219L173.527 72.6321C173.363 72.9108 173.416 73.1481 173.681 73.3048C173.812 73.3817 173.965 73.4184 174.103 73.3903L174.081 73.6858Z" fill="#263238"/>
<path d="M177.171 72.4934L176.988 72.8035C176.961 72.7875 176.937 72.7674 176.914 72.754C176.42 72.4621 175.933 72.5988 175.604 73.1556L174.893 74.3593L174.574 74.1707L175.97 71.8083L176.275 71.9889L176.002 72.4515C176.336 72.2245 176.736 72.2361 177.171 72.4934Z" fill="#263238"/>
<path d="M176.778 73.879C177.192 73.1784 177.999 72.9821 178.69 73.3909C179.382 73.7996 179.595 74.5982 179.181 75.2988C178.767 75.9993 177.962 76.2026 177.271 75.7939C176.579 75.3851 176.364 74.5796 176.778 73.879ZM178.858 75.1078C179.184 74.5553 179.029 73.9668 178.526 73.6695C178.023 73.3724 177.428 73.5175 177.101 74.07C176.775 74.6225 176.935 75.2136 177.438 75.5109C177.941 75.8081 178.531 75.6603 178.858 75.1078Z" fill="#263238"/>
<path d="M181.103 73.5322L181.422 73.7208L179.453 77.0533L179.134 76.8647L181.103 73.5322Z" fill="#263238"/>
<path fill-rule="evenodd" clip-rule="evenodd" d="M172.457 25.9012L130.002 1.2043C129.46 0.888958 128.847 0.959461 128.397 1.27352L83.4 27.839L129.171 66.1947L173.516 40.0586C174.091 39.8787 174.546 39.3485 174.546 38.6575V29.5469C174.546 28.0428 173.75 26.6533 172.457 25.9012Z" fill="#9595EF"/>
<path fill-rule="evenodd" clip-rule="evenodd" d="M172.441 26.5331L129.691 1.83613C129.146 1.52079 128.528 1.5913 128.075 1.90535L82.7656 28.4708L128.854 66.8265L173.507 40.6905C174.086 40.5106 174.545 39.9803 174.545 39.2894V30.1787C174.545 28.6746 173.743 27.2851 172.441 26.5331Z" stroke="black" stroke-width="2" stroke-linejoin="round"/>
<path fill-rule="evenodd" clip-rule="evenodd" d="M130.872 65.3541V56.2163C130.872 54.7078 130.064 53.3141 128.753 52.5598L85.686 27.7895C84.6701 27.2054 83.4 27.9357 83.4 29.1048V38.1868C83.4 39.6782 84.1987 41.0565 85.4954 41.8021L128.658 66.6282C129.642 67.1943 130.872 66.4863 130.872 65.3541Z" fill="#9595EF"/>
<path fill-rule="evenodd" clip-rule="evenodd" d="M130.238 65.3541V56.2163C130.238 54.7078 129.431 53.3141 128.12 52.5598L85.0525 27.7895C84.0366 27.2054 82.7665 27.9357 82.7665 29.1048V38.1868C82.7665 39.6782 83.5652 41.0565 84.862 41.8021L128.024 66.6282C129.008 67.1943 130.238 66.4863 130.238 65.3541Z" stroke="black" stroke-width="2" stroke-linejoin="round"/>
<path fill-rule="evenodd" clip-rule="evenodd" d="M142.966 47.711L163.011 35.2056L142.966 47.711Z" fill="#9595EF"/>
<path d="M142.966 47.711L163.011 35.2056" stroke="black" stroke-width="2" stroke-linecap="round" stroke-linejoin="round"/>
<path d="M113.77 32.1009L116.911 16.1962C117.049 15.5011 117.658 15 118.367 15C119.292 15 119.991 15.8374 119.827 16.7477L117.845 27.7045C117.494 29.6491 119.086 31.3967 121.055 31.2273L160.105 27.8682C161.116 27.7813 162.045 28.4263 162.317 29.4035C162.671 30.678 161.778 31.9603 160.46 32.0695L116.961 35.672C114.975 35.8364 113.384 34.0555 113.77 32.1009Z" fill="white" stroke="black"/>
</svg>
