<svg xmlns="http://www.w3.org/2000/svg" width="69" height="96" viewBox="0 0 69 96">
  <g fill="none" fill-rule="evenodd">
    <path fill="#D2B0FF" fill-opacity=".078" stroke="#000" stroke-dasharray="8 10" stroke-linecap="round" stroke-linejoin="round" d="M15.2 91.2C23.5904 91.2 30.4 84.3904 30.4 76L30.4 60.8 15.2 60.8C6.8096 60.8 0 67.6096 0 76 0 84.3904 6.8096 91.2 15.2 91.2zM0 45.6C0 37.2096 6.8096 30.4 15.2 30.4L30.4 30.4 30.4 60.8 15.2 60.8C6.8096 60.8 0 53.9904 0 45.6zM0 15.2C0 6.8096 6.8096 0 15.2 0L30.4 0 30.4 30.4 15.2 30.4C6.8096 30.4 0 23.5904 0 15.2zM30.4 0L45.6 0C53.9904 0 60.8 6.8096 60.8 15.2 60.8 23.5904 53.9904 30.4 45.6 30.4L30.4 30.4 30.4 0zM60.8 45.6C60.8 53.9904 53.9904 60.8 45.6 60.8 37.2096 60.8 30.4 53.9904 30.4 45.6 30.4 37.2096 37.2096 30.4 45.6 30.4 53.9904 30.4 60.8 37.2096 60.8 45.6z" transform="translate(7.6 3.8)"/>
    <path fill="#0ACF83" d="M15.2,91.2 C23.5904,91.2 30.4,84.3904 30.4,76 L30.4,60.8 L15.2,60.8 C6.8096,60.8 0,67.6096 0,76 C0,84.3904 6.8096,91.2 15.2,91.2 Z"/>
    <path fill="#A259FF" d="M0,45.6 C0,37.2096 6.8096,30.4 15.2,30.4 L30.4,30.4 L30.4,60.8 L15.2,60.8 C6.8096,60.8 0,53.9904 0,45.6 Z"/>
    <path fill="#F24E1E" d="M0,15.2 C0,6.8096 6.8096,0 15.2,0 L30.4,0 L30.4,30.4 L15.2,30.4 C6.8096,30.4 0,23.5904 0,15.2 Z"/>
    <path fill="#FF7262" d="M30.4,0 L45.6,0 C53.9904,0 60.8,6.8096 60.8,15.2 C60.8,23.5904 53.9904,30.4 45.6,30.4 L30.4,30.4 L30.4,0 Z"/>
    <path fill="#1ABCFE" d="M60.8,45.6 C60.8,53.9904 53.9904,60.8 45.6,60.8 C37.2096,60.8 30.4,53.9904 30.4,45.6 C30.4,37.2096 37.2096,30.4 45.6,30.4 C53.9904,30.4 60.8,37.2096 60.8,45.6 Z"/>
  </g>
</svg>
