<svg width="187" height="123" viewBox="0 0 187 123" fill="none" xmlns="http://www.w3.org/2000/svg">
<path fill-rule="evenodd" clip-rule="evenodd" d="M163.73 61.6804C172.365 85.7521 141.721 101.408 71.1702 107.981C0.618906 114.553 -0.509109 74.6207 13.0466 51.0946C19.8246 39.331 37.7768 17.1999 58.3695 11.2383C78.9622 5.27721 102.223 19.3257 114.545 26.6029C139.833 41.5379 155.095 37.6088 163.73 61.6804Z" fill="#C3C3F6"/>
<path d="M102.262 122.197L29.3418 84.0271L113.158 30.6533L186.078 68.8209L102.262 122.197Z" fill="#9595EF" fill-opacity="0.56"/>
<path d="M102.28 122.295L183.406 70.6325L117.33 36.0453L36.2051 87.7078L102.28 122.295Z" fill="#BBBBFF"/>
<path d="M102.281 122.656L28.5508 84.0605L113.14 30.1943L113.342 30.3002L186.87 68.7875L102.281 122.656ZM30.1338 83.9936L102.244 121.738L185.289 68.8544L113.179 31.1103L30.1338 83.9936Z" fill="#140F0C"/>
<path d="M78.9549 119.345L10.7949 78.3471L100.82 28.4571L168.98 69.4527L78.9549 119.345Z" fill="#9595EF" fill-opacity="0.56"/>
<path d="M78.9553 119.205L164.815 71.6228L100.821 33.13L14.9609 80.7142L78.9553 119.205Z" fill="#BBBBFF"/>
<path d="M78.946 119.802L78.749 119.685L10 78.3341L100.826 28L101.023 28.1189L169.772 69.4694L78.946 119.802ZM11.5868 78.3619L78.9627 118.887L168.185 69.4397L100.811 28.9141L11.5868 78.3619Z" fill="#140F0C"/>
<path d="M87.8755 120.989L18.2773 80.8053L106.515 29.8618L176.113 70.0454L87.8755 120.989Z" fill="#9595EF" fill-opacity="0.56"/>
<path d="M23.0488 81.5485L87.8737 118.975L171.338 70.7868L106.513 33.3604L23.0488 81.5485Z" fill="#F8F8FF"/>
<path d="M87.8739 121.448L87.6751 121.333L17.4824 80.8053L18.077 80.4615L106.514 29.4028L106.713 29.518L176.907 70.0454L176.312 70.3891L87.8739 121.448ZM19.0692 80.8053L87.8739 120.53L175.318 70.0435L106.514 30.3188L19.0692 80.8053Z" fill="#140F0C"/>
<path d="M104.288 60.4097L124.602 55.6773C123.533 54.1462 121.924 52.71 119.775 51.4688C111.222 46.5302 97.3557 46.5302 88.805 51.4688C80.2525 56.4075 80.2525 64.4119 88.805 69.3487C97.3575 74.2873 111.224 74.2873 119.777 69.3487C120.752 68.7857 121.612 68.18 122.365 67.5445L104.288 60.4097Z" fill="#9595EF" fill-opacity="0.56"/>
<path d="M104.386 70.4783C98.7062 70.4783 93.0262 69.2297 88.7026 66.7325C84.4384 64.2706 82.0898 60.9726 82.0898 57.448C82.0898 53.9233 84.4384 50.6253 88.7026 48.1652C97.3517 43.1708 111.421 43.1708 120.07 48.1652C122.221 49.4064 123.888 50.8612 125.025 52.4907L125.36 52.9719L105.715 57.5483L123.225 64.4639L122.716 64.8931C121.924 65.5583 121.034 66.1788 120.07 66.7363C115.746 69.2297 110.064 70.4765 104.386 70.4783ZM104.386 45.2017C98.8511 45.2017 93.3142 46.4187 89.1002 48.8527C85.0924 51.1678 82.8851 54.2206 82.8851 57.4498C82.8851 60.6791 85.0924 63.7337 89.1002 66.0469C97.5319 70.9131 111.246 70.9131 119.674 66.0469C120.391 65.6326 121.064 65.1829 121.681 64.7054L103.058 57.3513L124.02 52.4684C122.968 51.1269 121.508 49.9118 119.672 48.8527C115.456 46.4187 109.921 45.2017 104.386 45.2017Z" fill="#140F0C"/>
<path d="M111.285 60.8333L129.36 67.97C133.546 64.4434 134.297 59.9656 131.599 56.1009L111.285 60.8333Z" fill="#9595EF" fill-opacity="0.56"/>
<path d="M129.531 65.4635L110.055 57.7731L131.866 52.6914L132.02 52.9106C134.854 56.9723 133.971 61.7233 129.713 65.3111L129.531 65.4635ZM112.712 57.9682L129.382 64.5512C133.126 61.2922 133.919 57.225 131.522 53.587L112.712 57.9682Z" fill="#140F0C"/>
<path d="M114.63 97.4606L63.8836 68.1613C62.91 67.6002 63.0327 66.6173 64.1568 65.9689L66.5462 64.5883C67.6703 63.9399 69.3704 63.8693 70.344 64.4304L121.091 93.7297C122.064 94.2908 121.942 95.2737 120.817 95.9222L118.426 97.3027C117.304 97.953 115.604 98.0218 114.63 97.4606Z" fill="#9595EF" fill-opacity="0.56"/>
<path d="M116.379 95.2775C115.692 95.2775 115.031 95.1344 114.527 94.8427L63.7805 65.5434C63.2286 65.2257 62.9258 64.7649 62.9258 64.2483C62.9258 63.6556 63.3364 63.0778 64.0536 62.6634L66.4449 61.2829C67.6972 60.5601 69.5385 60.4914 70.6385 61.125L121.385 90.4243C121.937 90.742 122.24 91.2028 122.24 91.7193C122.24 92.3121 121.829 92.8899 121.112 93.3042L118.721 94.6848C118.044 95.0768 117.191 95.2775 116.379 95.2775ZM68.7953 61.4892C68.1153 61.4892 67.3906 61.6527 66.8407 61.9704L64.4494 63.3509C63.9923 63.6166 63.7173 63.9511 63.7173 64.2483C63.7173 64.5326 63.9663 64.7352 64.1762 64.8559L114.925 94.1552C115.774 94.6439 117.327 94.5733 118.325 93.9973L120.716 92.6168C121.173 92.3511 121.448 92.0166 121.448 91.7193C121.448 91.4351 121.199 91.2325 120.989 91.1118L70.2408 61.8125C69.8637 61.5951 69.3434 61.4892 68.7953 61.4892Z" fill="#140F0C"/>
<path d="M105.052 102.873L54.3055 73.5757C53.3319 73.0145 53.4545 72.0316 54.5786 71.3832L56.9681 70.0026C58.0922 69.3542 59.7923 69.2836 60.7659 69.8447L111.512 99.144C112.486 99.7051 112.363 100.688 111.239 101.336L108.848 102.717C107.726 103.365 106.026 103.436 105.052 102.873Z" fill="#9595EF" fill-opacity="0.56"/>
<path d="M106.801 100.69C106.114 100.69 105.454 100.547 104.949 100.257L54.2024 70.9558C53.6505 70.6381 53.3477 70.1773 53.3477 69.6608C53.3477 69.0681 53.7601 68.4902 54.4755 68.0777L56.8649 66.6972C58.1191 65.9744 59.9604 65.9038 61.0604 66.5393L111.807 95.8386C112.359 96.1563 112.662 96.6171 112.662 97.1336C112.662 97.7263 112.251 98.3042 111.534 98.7185L109.142 100.099C108.464 100.489 107.613 100.69 106.801 100.69ZM105.345 99.5677C106.19 100.056 107.749 99.9857 108.747 99.4097L111.136 98.0311C111.595 97.7654 111.868 97.4309 111.868 97.1336C111.868 96.8494 111.619 96.645 111.409 96.5261L60.6627 67.2268C59.8155 66.7381 58.2584 66.8087 57.2607 67.3847L54.8712 68.7652C54.4123 69.0309 54.1392 69.3653 54.1392 69.6626C54.1392 69.9469 54.3882 70.1513 54.5981 70.2721L105.345 99.5677Z" fill="#140F0C"/>
<path d="M95.5228 108.315L44.7762 79.0178C43.8026 78.4567 43.9252 77.4738 45.0493 76.8254L47.4406 75.4448C48.5647 74.7964 50.2648 74.7258 51.2384 75.2869L101.985 104.586C102.959 105.149 102.836 106.13 101.712 106.779L99.3206 108.159C98.1965 108.808 96.4964 108.878 95.5228 108.315Z" fill="#9595EF" fill-opacity="0.56"/>
<path d="M97.2721 106.132C96.5846 106.132 95.9231 105.989 95.4196 105.697L44.6731 76.3998C44.1212 76.0821 43.8184 75.6195 43.8184 75.1029C43.8184 74.5102 44.229 73.9324 44.9462 73.5199L47.3356 72.1394C48.5898 71.4166 50.4311 71.346 51.531 71.9815L102.278 101.281C102.829 101.598 103.132 102.059 103.132 102.576C103.132 103.169 102.722 103.746 102.004 104.161L99.615 105.541C98.9369 105.933 98.0859 106.132 97.2721 106.132ZM49.6879 72.3438C49.0078 72.3438 48.2832 72.5073 47.7314 72.8269L45.3419 74.2074C44.883 74.4712 44.6099 74.8075 44.6099 75.1029C44.6099 75.3872 44.8589 75.5916 45.0688 75.7124L95.8154 105.01C96.6645 105.498 98.2215 105.428 99.2174 104.852L101.607 103.471C102.064 103.206 102.339 102.871 102.339 102.574C102.339 102.29 102.09 102.085 101.88 101.966L51.1334 72.6689C50.7562 72.4515 50.236 72.3438 49.6879 72.3438Z" fill="#140F0C"/>
<path d="M85.9466 113.73L35.2 84.4303C34.2264 83.8673 34.3491 82.8862 35.4732 82.2378L37.8626 80.8573C38.9867 80.2088 40.6868 80.1382 41.6604 80.6993L92.407 109.999C93.3806 110.562 93.2579 111.543 92.1338 112.191L89.7444 113.572C88.6203 114.22 86.9202 114.291 85.9466 113.73Z" fill="#9595EF" fill-opacity="0.56"/>
<path d="M87.6959 111.546C87.0084 111.546 86.347 111.403 85.8434 111.112L35.0969 81.8123C34.545 81.4946 34.2422 81.0338 34.2422 80.5173C34.2422 79.9245 34.6528 79.3467 35.37 78.9323L37.7594 77.5518C39.0099 76.8272 40.8549 76.7585 41.9549 77.3939L92.7014 106.693C93.2533 107.011 93.5561 107.472 93.5561 107.988C93.5561 108.581 93.1455 109.159 92.4283 109.571L90.0389 110.952C89.3607 111.346 88.5097 111.546 87.6959 111.546ZM86.241 110.424C87.0902 110.915 88.6472 110.84 89.6431 110.266L92.0325 108.886C92.4896 108.62 92.7646 108.286 92.7646 107.988C92.7646 107.704 92.5156 107.5 92.3057 107.379L41.5591 78.0832C40.7119 77.5927 39.1548 77.6652 38.1571 78.2412L35.7676 79.6217C35.3106 79.8874 35.0356 80.2218 35.0356 80.5191C35.0356 80.8034 35.2845 81.0078 35.4945 81.1267L86.241 110.424Z" fill="#140F0C"/>
<path d="M109.793 98.8635L92.7844 89.0438C90.8706 87.9382 91.1103 86.0096 93.3195 84.7331L108.455 75.9948C110.664 74.7183 114.007 74.5808 115.921 75.6845L132.929 85.5042C134.843 86.6097 134.603 88.5384 132.394 89.8149L117.258 98.5532C115.047 99.8296 111.707 99.969 109.793 98.8635Z" fill="#BBBBFF"/>
<path d="M109.517 103.431L92.509 93.6108C90.5952 92.5053 90.8349 90.5766 93.0441 89.3002L108.18 80.5619C110.389 79.2854 113.731 79.1479 115.645 80.2516L132.654 90.0713C134.567 91.1749 134.328 93.1054 132.118 94.38L116.983 103.118C114.774 104.397 111.431 104.534 109.517 103.431Z" fill="#9595EF" fill-opacity="0.56"/>
<path d="M113.032 99.9987C111.744 99.9987 110.512 99.7386 109.592 99.2072L92.5858 89.3875C91.6252 88.8338 91.0957 88.0479 91.0957 87.1728C91.0957 86.149 91.8333 85.1345 93.121 84.3913L108.256 75.653C110.572 74.3152 114.098 74.1758 116.118 75.3445L133.126 85.1642C134.087 85.7198 134.616 86.5057 134.616 87.379C134.616 88.4046 133.879 89.4172 132.591 90.1605L117.456 98.8988C116.192 99.6253 114.572 99.9987 113.032 99.9987ZM109.988 98.5216C111.79 99.5602 114.96 99.4209 117.056 98.2113L132.192 89.473C133.227 88.8747 133.821 88.1111 133.821 87.3771C133.821 86.7993 133.433 86.2567 132.727 85.848L115.718 76.0283C113.918 74.9896 110.746 75.1271 108.65 76.3367L93.5148 85.075C92.4799 85.6733 91.8854 86.437 91.8854 87.1709C91.8854 87.7487 92.2737 88.2913 92.9779 88.6982L109.988 98.5216Z" fill="#140F0C"/>
<path d="M139.412 82.2861L126.239 74.6812C124.574 73.7206 124.784 72.0428 126.705 70.9336L141.562 62.355C143.483 61.2458 146.389 61.125 148.054 62.0856L161.227 69.6905C162.892 70.6511 162.682 72.3289 160.761 73.4382L145.904 82.0167C143.983 83.126 141.077 83.2467 139.412 82.2861Z" fill="#BBBBFF"/>
<path d="M140.014 86.0338L126.84 78.4289C125.176 77.4683 125.385 75.7905 127.307 74.6812L142.163 66.1027C144.085 64.9934 146.991 64.8727 148.655 65.8333L161.829 73.4382C163.494 74.3988 163.284 76.0766 161.363 77.1858L146.506 85.7644C144.585 86.8736 141.677 86.9944 140.014 86.0338Z" fill="#9595EF" fill-opacity="0.56"/>
<path d="M142.236 83.3378C141.112 83.3378 140.035 83.1037 139.211 82.6299V82.628L126.04 75.0231C125.187 74.5307 124.719 73.8302 124.719 73.0517C124.719 72.1413 125.371 71.2438 126.506 70.588L141.363 62.0094C143.425 60.8184 146.452 60.7014 148.251 61.74L161.424 69.3449C162.277 69.8373 162.745 70.5378 162.745 71.3163C162.745 72.2267 162.093 73.1223 160.958 73.7782L146.101 82.3567C144.981 83.007 143.576 83.3378 142.236 83.3378ZM139.609 81.9424C141.162 82.838 143.897 82.7172 145.705 81.673L160.562 73.0944C161.446 72.5835 161.954 71.9369 161.954 71.3182C161.954 70.8276 161.634 70.3836 161.03 70.0343L147.857 62.4293C146.305 61.5338 143.57 61.6545 141.762 62.6988L126.906 71.2773C126.021 71.7882 125.516 72.4367 125.516 73.0554C125.516 73.5459 125.835 73.99 126.441 74.3393L139.609 81.9424Z" fill="#140F0C"/>
<path d="M47.9849 91.567L31.742 82.1895C30.2519 81.3292 30.4395 79.8279 32.1601 78.8339L41.4409 73.4753C43.1615 72.4831 45.7627 72.3753 47.251 73.2338L63.4939 82.6113C64.984 83.4715 64.7964 84.9728 63.0758 85.9669L53.795 91.3254C52.0763 92.3195 49.4751 92.4272 47.9849 91.567Z" fill="#BBBBFF"/>
<path d="M47.9881 94.8464L31.7452 85.4689C30.2569 84.6087 30.4427 83.1074 32.1632 82.1133L41.4441 76.7548C43.1646 75.7626 45.7659 75.6548 47.2541 76.5132L63.497 85.8907C64.9872 86.751 64.7995 88.2523 63.079 89.2463L53.7981 94.6049C52.0776 95.5989 49.4763 95.7067 47.9881 94.8464Z" fill="#9595EF" fill-opacity="0.56"/>
<path d="M50.5162 92.5499C49.5017 92.5499 48.53 92.3399 47.7868 91.9107L31.5439 82.5332C30.7672 82.0854 30.3398 81.4444 30.3398 80.7328C30.3398 79.9023 30.9307 79.0866 31.9601 78.492L41.2409 73.1335C43.0989 72.0614 45.8247 71.9554 47.4486 72.8919L63.6915 82.2694C64.4682 82.7172 64.8955 83.3563 64.8955 84.0698C64.8955 84.9004 64.3047 85.716 63.2753 86.3106L53.9926 91.6692C52.9874 92.2526 51.7221 92.5499 50.5162 92.5499ZM48.1844 91.2251C49.5612 92.0203 51.9915 91.9107 53.5987 90.9835L62.8814 85.625C63.6599 85.1754 64.1059 84.6086 64.1059 84.0698C64.1059 83.5347 63.6673 83.1687 63.2976 82.955L47.0547 73.5775C45.6779 72.7823 43.2494 72.8919 41.6404 73.8191L32.3595 79.1776C31.581 79.6273 31.1351 80.194 31.1351 80.7328C31.1351 81.2679 31.5736 81.6339 31.9415 81.8476L48.1844 91.2251Z" fill="#140F0C"/>
<path d="M117.594 40.8334C116.914 40.8334 116.234 40.6811 115.704 40.3745C115.124 40.04 114.805 39.5718 114.805 39.0553C114.805 38.5387 115.124 38.0687 115.704 37.7342L121.919 34.1464C123.288 33.3548 125.436 33.3548 126.808 34.1464C127.534 34.5663 127.935 35.1497 127.935 35.787C127.935 36.4243 127.534 37.0077 126.808 37.4276L122.839 39.7186L122.441 39.033L126.41 36.742C126.882 36.4689 127.142 36.1307 127.142 35.7889C127.142 35.447 126.882 35.107 126.41 34.8357C125.301 34.1965 123.424 34.1965 122.315 34.8357L116.1 38.4236C115.78 38.6075 115.598 38.8397 115.598 39.0571C115.598 39.2745 115.78 39.5049 116.1 39.6907C116.91 40.159 118.277 40.159 119.087 39.6907L124.656 36.4763L125.054 37.1638L119.485 40.3782C118.954 40.681 118.274 40.8334 117.594 40.8334Z" fill="#140F0C"/>
</svg>
