<svg xmlns="http://www.w3.org/2000/svg" xmlns:xlink="http://www.w3.org/1999/xlink" width="138" height="61" viewBox="0 0 138 61">
  <defs>
    <rect id="flask-a" width="126" height="54" x="12" y="7" rx="7"/>
    <mask id="flask-b" width="126" height="54" x="0" y="0" fill="#fff">
      <use xlink:href="#flask-a"/>
    </mask>
  </defs>
  <g fill="none" fill-rule="evenodd">
    <use fill="#6D54D7" fill-opacity=".057" stroke="#000" stroke-dasharray="8" stroke-width="2" mask="url(#flask-b)" xlink:href="#flask-a"/>
    <path fill="#000" d="M7,0 L119,0 C122.865993,-7.10171439e-16 126,3.13400675 126,7 L126,47 C126,50.8659932 122.865993,54 119,54 L7,54 C3.13400675,54 4.73447626e-16,50.8659932 0,47 L0,7 C-4.73447626e-16,3.13400675 3.13400675,7.10171439e-16 7,0 Z"/>
    <g fill="#FFF" transform="translate(17 9)">
      <path fill-rule="nonzero" d="M12.2520443,32.0562324 C10.6901422,30.847066 9.0240245,29.6877404 7.88550896,28.0552733 C5.48986746,25.1764509 3.6453369,21.8434023 2.3843402,18.3407784 C1.62215366,16.0632068 1.36111791,13.6213701 0.378558671,11.431806 C-0.64929641,9.84151335 0.554695714,8.10306258 2.32448624,7.59755746 C3.11243454,7.44870373 4.49789356,6.71717887 2.82550363,7.2400363 C1.32615363,8.32278662 1.18104922,6.25719706 2.71851551,6.12640096 C3.76776273,5.9891276 4.15401513,5.14367973 3.79520344,4.38258844 C2.66889316,3.65965361 6.52634961,2.86513555 4.58543189,1.78641361 C2.56352116,-0.360704519 7.41365264,-0.774030415 6.21705046,1.66443784 C5.9306223,3.53951998 9.60611511,1.32077218 8.7533148,3.48608494 C9.6200937,4.52594279 11.9991781,3.72275913 11.9401568,5.18158328 C13.2028269,5.26701441 13.6361795,6.31271765 14.8214944,6.39299941 C16.0499543,6.93904462 18.2769568,7.36933417 18.6949805,8.73190638 C17.4762087,9.68163382 14.6539654,6.77014018 14.518379,9.39909432 C14.8865551,13.2826701 14.7927561,17.28326 16.2363427,20.9815819 C16.9191498,23.2209385 18.5744443,24.9837401 20.0693541,26.7278522 C21.4996751,28.4359892 23.4371066,29.6384423 25.4118321,30.6509691 C27.1440825,31.455085 29.0116468,31.9884031 30.8995096,32.3230445 C31.6652287,31.7465694 33.0170881,29.6033707 34.2116086,30.5071111 C34.2682809,31.5225596 31.8407128,32.6298364 34.0974017,32.5176067 C35.4225068,32.1241461 36.3415948,33.5262913 37.4327954,32.2615548 C38.4381092,33.4336441 41.6113101,31.5126797 40.896007,33.908447 C39.9287572,34.5226789 38.5180784,34.151522 37.5492351,34.9964959 C35.9518719,34.2112152 34.6801404,35.6991571 32.9117457,35.5109831 C30.9478687,35.8572059 28.9499363,35.9969643 26.9588802,36 C23.6924357,35.7459769 20.3568124,35.6389003 17.2493864,34.5195123 C15.4988644,34.0188443 13.7905587,33.0377663 12.2520443,32.0562324 Z M15.0107097,33.2327212 C16.7200384,33.9603101 18.3914533,34.7271379 20.2647593,34.9584457 C23.2367855,35.3653095 26.3059482,35.9911123 29.2886256,35.4202612 C27.9387029,34.8202918 26.5431021,35.6539988 25.1982647,34.9912457 C23.5852959,35.3328642 21.854399,34.9042202 20.2146372,34.6931831 C18.3499491,33.8756449 16.3376336,33.313483 14.5914312,32.2523019 C12.4094816,31.4678677 15.7199065,33.2582865 16.3091526,33.4032972 C17.6731496,34.1653349 14.8091939,33.0126528 14.4054418,32.6958691 C13.2630124,32.0650969 13.1174205,32.1968985 14.2923137,32.8374915 C14.528955,32.9738193 14.7627974,33.1166324 15.0107097,33.2327212 Z M11.7581676,30.9702861 C13.4145583,31.5741673 11.7508624,29.8237916 10.9918392,29.9254997 C10.655553,29.3512518 9.70703298,28.9884844 10.3761238,28.6800142 C9.17255782,29.0912754 9.11533533,27.1160899 8.5496017,27.3982897 C7.2763311,27.0025576 8.05404393,25.6006953 6.53735507,24.7398122 C6.39891008,23.8326836 5.03046005,23.0458892 4.59398432,21.6776248 C4.4012117,20.9770747 3.04793235,18.9653335 3.87925409,20.8375655 C4.58708339,22.6399014 5.83245171,24.1833861 6.86883778,25.725106 C7.67358874,27.1930053 8.6238289,28.7271295 10.0894363,29.6428397 C10.5834798,30.1093122 11.0604893,30.8240636 11.7581676,30.9702861 Z M19.055459,34.0025699 C19.733822,34.4239454 23.0168416,34.9261502 20.9610744,34.1753562 C20.617096,34.2467342 17.1491808,33.2098792 19.055459,34.0025699 Z M11.5569131,28.0101783 C12.3529328,28.6110386 14.7671985,28.087176 12.7759758,27.6514916 C11.8696824,27.1759899 9.82709844,26.8505128 11.219364,27.9382218 L11.5569112,28.0101846 L11.5569131,28.0101783 Z M15.4103309,30.0197915 C17.3567899,30.5617481 13.7735354,28.8082375 14.9300841,29.8203654 L15.1864169,29.9345373 L15.410333,30.0198042 L15.4103309,30.0197915 Z M18.7827334,31.938307 C20.6261428,31.9556179 17.1177078,31.6881725 18.7827334,31.9383091 L18.7827334,31.938307 Z M15.4268416,29.0046068 C16.8408685,29.1840536 13.7443617,28.0579417 15.1165926,28.9038445 L15.4268395,29.0046152 L15.4268416,29.0046068 Z M20.341239,31.9788356 C21.6614003,31.2020077 21.2261623,33.7979125 22.5809666,32.1981356 C23.9173685,31.2377125 21.4268738,33.3855197 23.0739257,32.3693787 C24.2650659,31.58524 26.0244203,32.7410887 27.1358721,33.1182242 C27.9351553,33.0795765 28.7121754,33.798493 29.5315683,33.361124 C31.1089054,32.9429552 26.4471218,32.7409092 27.6691344,31.998986 C26.2258609,32.4124386 25.1595058,31.5060826 24.449316,30.5961505 C22.8303867,30.2281919 20.9585328,29.4135184 20.1505631,28.0033447 C19.8211415,27.4738794 20.6264624,28.0779358 19.8661912,27.2124505 C18.8906581,26.3584179 18.4035415,25.3889636 17.7486663,24.3508272 C16.9663356,23.9400367 16.875194,22.7308936 16.7961063,24.3102921 C16.8023048,23.3135119 15.8515464,22.6426078 15.6194864,22.9214932 C15.6153255,21.9615367 16.6369763,22.4427257 15.9217869,21.7324688 C15.7678516,20.7375083 15.2610027,19.7007356 15.1086568,18.5773829 C14.8719554,18.0358844 15.0753242,16.8761344 14.3007879,18.1019572 C14.0186037,19.3974671 14.2071283,16.5099238 14.6459523,17.462122 C15.2219264,16.4904912 14.4391711,16.6047666 14.407104,16.7396842 C14.782298,15.9198786 14.6445754,14.7570359 14.3092063,15.2006517 C14.5091306,14.331757 14.625049,12.0028735 14.0099837,12.4155809 C14.3828226,11.506977 14.7170593,8.2579859 13.0985225,9.49672058 C12.4425625,9.50578559 11.3066312,9.73109262 10.7696797,9.99393334 C12.4532497,10.9073714 10.6003376,10.3238073 9.9150136,10.1786281 C9.82571589,11.0238325 9.14691596,10.6582857 8.29887199,10.6665723 C9.65337881,10.8315199 7.63928828,12.0301167 6.86224914,11.5645253 C5.85309359,12.0392577 7.73317567,13.2242715 6.88249615,13.5906611 C6.98704133,14.1430447 5.33646756,13.3911831 5.46609887,14.6668333 C4.48640488,14.261177 5.33119861,16.1800535 5.82133816,15.5310751 C7.48761667,15.9749548 6.99435857,16.9869476 7.0367913,17.9482552 C6.76529402,18.5084115 5.69639261,16.631588 6.79873034,16.7185099 C5.92907052,15.3279905 5.83673276,16.2158998 5.11407423,16.8618761 C4.9459517,16.9087887 6.95741076,17.7809936 5.69511624,18.2122764 C6.80567459,18.3809398 6.83727088,19.3375037 7.06335221,19.94281 C7.73085821,20.6271237 7.59424145,19.1871858 8.3929359,20.0095689 C7.88751371,19.2769155 5.71581903,17.9452638 7.46432552,18.3723561 C7.45497843,17.6349717 7.14809198,17.0403623 7.68378689,17.0547874 C8.21427742,16.1091758 7.12819822,19.3862741 8.32395405,18.1844818 C8.65495955,18.0422197 8.73694603,17.2376711 9.33191751,18.2604578 C10.1960825,19.0972154 9.64405832,19.7035497 8.42505659,18.9373743 C8.643147,19.665586 10.0557698,19.925822 9.79030356,21.0646047 C10.0717242,22.0661897 10.4654567,21.6972875 10.8086597,21.6393824 C11.0778828,22.6125375 11.230762,21.8969564 11.2435328,21.4338574 C12.4762324,21.693591 12.1874947,22.4108124 12.5731991,22.9119026 C13.4226335,23.2892829 11.3573708,20.3538686 12.8157041,22.0292436 C14.3500113,23.3927115 13.3911134,23.9618696 12.014219,23.7434373 C12.8856835,23.6741429 13.1667168,24.903069 14.2567678,24.8598931 C15.2507934,25.3253396 15.9237944,27.1130394 14.210412,26.3688573 C13.6161406,25.8414629 11.5131545,25.1908485 13.2308102,26.1940105 C14.8172348,26.9171071 16.0772256,27.3496882 17.6072696,28.2573552 C18.7022708,29.0267711 19.1753496,29.9080325 19.590377,30.0824782 C18.6700729,30.5151374 16.8169453,29.7369879 18.1930025,29.4985129 C17.3347177,29.3446272 16.3693596,28.9174167 17.1914593,29.9699825 C17.8905091,30.5444668 19.66809,30.4836062 19.9867489,30.5486995 C19.7166442,31.1345014 19.2530733,31.1810889 19.9978161,31.2265237 C19.1669698,31.6623327 20.2642359,31.7298137 20.3412304,31.9788356 L20.341239,31.9788356 Z M18.6422268,27.2563443 C18.1367334,26.7360136 18.0060329,25.7614104 18.5524621,26.6094517 C18.8326774,26.7202121 19.4501149,28.2021164 18.6422375,27.2563443 L18.6422268,27.2563443 Z M15.4025624,22.0048436 C14.80019,20.6764978 15.8290281,21.2792644 15.5358302,22.2225475 L15.4025624,22.0048436 Z M9.85711378,18.3647372 C9.58780614,17.9289408 9.14232049,16.6502479 9.28573994,16.2598927 C9.41548708,16.8956261 10.6592586,18.9957712 9.89584671,17.1298641 C9.05220968,15.5657413 10.9042951,17.637562 11.0948073,18.0276891 C11.1835219,18.4157854 10.5743069,17.9216597 10.9870966,18.8316509 C10.2343089,17.7956002 10.5426988,19.4039418 9.85711378,18.3647372 Z M7.0597292,16.0515515 C6.4216573,15.4274671 5.95991098,14.8521743 7.08958347,15.6642215 C7.52486904,15.6809414 6.12248767,14.3559691 7.19441133,15.2434709 C8.3215761,15.4457597 7.75101128,17.0625414 7.0597292,16.0515515 Z M7.44168661,15.0948228 C5.58675952,13.4700208 9.77251921,15.9444327 7.74472698,15.3960541 L7.44167481,15.0948376 L7.44168661,15.0948228 Z M12.7563314,18.1341936 C11.9536346,17.6604694 12.543614,14.799207 12.817352,16.7561063 C13.5976973,16.5076417 12.7742672,17.7667437 13.3562967,17.7550905 C13.2645695,18.5495039 13.0041852,18.835111 12.7563314,18.1341936 Z M7.80556091,14.5609094 C6.61389394,12.942621 11.2688568,16.1978753 8.56880398,14.9713684 C8.28666865,14.8987385 7.94719309,14.8728059 7.80556091,14.5609094 Z M11.5909622,16.5363588 C11.4781925,15.1737332 11.8427993,16.7622264 11.590921,16.5363546 L11.5909622,16.5363588 Z M7.98810986,13.9432892 C8.69636341,13.7941849 10.9232186,15.1675921 8.87825455,14.3355971 C8.65103411,14.0880107 8.16664867,14.2005001 7.98810986,13.9432892 Z M14.0700963,16.9269166 C14.1457995,15.5335937 14.4929201,16.0946557 14.0727129,17.1263597 L14.0701177,16.9269188 L14.070107,16.9269166 L14.0700963,16.9269166 Z M8.51532269,13.4584521 C8.8038976,13.0418054 7.74927527,11.574714 8.66734583,12.9322004 C9.06403788,13.2424471 9.81591432,13.4519419 9.15207681,13.5824615 C10.196116,14.4889973 8.89743539,13.8281103 8.51532269,13.4584521 Z M12.5954221,13.5697928 C12.5053602,13.0314254 12.9015143,14.2461566 12.5954065,13.5697909 L12.5954221,13.5697928 Z M13.1315762,12.7119488 C12.7633915,12.0733184 13.596522,9.89764066 13.6894888,11.2469759 C13.3008812,12.2983523 13.5773838,12.8865129 13.8484815,11.4763221 C14.3491169,10.366489 13.740338,13.6663772 13.1315677,12.7119545 L13.1315762,12.7119488 Z M14.6579526,28.2660803 C15.7123396,28.5323625 15.7069497,28.1046094 14.7540015,27.9775303 C14.2414345,27.5082014 12.6241021,27.0103898 14.0716963,27.9192938 C14.1675672,28.1583261 14.4705111,28.152757 14.6579526,28.2660803 Z M10.9143577,25.818699 C11.4952249,26.2450461 13.1023253,27.0270336 11.7418658,25.9809742 C12.2005525,25.4564383 10.8639225,25.1772362 11.3073126,24.8263626 C10.1795334,24.1471092 10.4176531,24.2075328 11.2077696,24.2289033 C9.85238083,23.6326009 11.4034113,23.6772061 11.3303801,23.3716597 C10.8077527,23.2700615 8.73449923,22.4646008 9.95418451,23.4378234 C8.71429339,22.8155778 9.65871467,23.6696188 9.28395674,23.5793276 C8.01608678,23.2390665 10.4130694,24.5297905 9.08259222,24.2093779 C9.80996783,24.776733 11.0404404,25.6626368 9.39011224,24.8097864 C9.17266785,25.117866 10.5711038,25.5848431 10.9143577,25.818699 Z M24.0883957,33.4231034 C24.6445388,32.8926817 24.1111307,34.2680077 25.0099246,33.2932524 C25.0196406,32.5954446 24.9822479,32.1832777 23.9770628,33.0309454 C23.6999661,33.1822007 23.5762598,33.8253229 24.0883957,33.4231034 Z M14.9810727,27.6678082 C15.599722,28.2086671 17.8224349,28.0646592 15.7324665,27.7343645 C15.4229252,27.2838877 13.7669294,27.3923048 14.9810727,27.6678082 Z M25.674964,33.9488596 C26.7293575,32.8492651 24.6532918,34.0138959 25.6749554,33.9488596 L25.674964,33.9488596 Z M4.79129559,20.9307131 C3.89263171,19.6686492 4.23266106,19.1013616 3.36603938,18.0708693 C3.20197998,17.2828441 1.8793266,15.4946525 2.6819349,17.3890995 C3.41707752,18.497075 3.63552954,20.2125417 4.79129559,20.9307131 Z M26.515848,33.7804348 C27.4564034,33.1835328 26.2991448,33.2751773 26.3453719,33.8353294 L26.5158501,33.7804348 L26.515848,33.7804348 Z M28.0250615,34.1838132 C29.2300293,33.3282247 27.2946246,34.0200054 27.7721304,34.3459132 L28.0250615,34.1838132 Z M7.80506395,21.4995291 C8.68850418,21.6943531 11.3355077,23.6409967 9.7738861,21.6341575 C8.97408794,21.401127 9.45375051,19.476823 8.63794905,19.8173986 C9.18551334,20.717757 9.08845828,21.1009787 7.93881738,20.5333533 C6.49389926,19.8391154 7.12681589,20.8773975 7.40920066,21.1635514 C7.02438185,21.2496247 7.91821283,21.4922902 7.80506395,21.4995291 Z M3.780137,18.3708403 C3.93829688,17.7269772 2.32385009,14.8286842 3.01777158,16.9185884 C3.26825572,17.3563713 3.24278866,18.1860588 3.780137,18.3708403 Z M21.9955726,29.1339785 C21.8104196,28.6679789 21.2637008,29.1231698 21.9955897,29.133987 L21.9955726,29.1339785 Z M31.4174708,33.3866512 C32.2918031,33.2121697 34.2842383,33.824679 34.6062731,33.1584721 C33.5444972,33.1330989 30.9327821,32.4211468 30.8092152,33.3283704 L31.0416441,33.3644109 L31.4174708,33.3866491 L31.4174708,33.3866512 Z M4.18318992,14.6717648 C5.06481156,14.3308978 2.5773153,13.9666949 4.00304873,14.6073639 L4.18318992,14.6717648 Z M1.4299211,11.6399902 C1.27056913,10.7408542 1.29236578,9.16261351 2.81657006,9.69597635 C0.782010312,10.093566 4.22471154,12.1849703 3.78996195,10.5337331 C4.64544692,10.5749614 5.46348714,10.0360895 5.01453912,10.8538593 C6.70009476,10.6706256 7.86866704,9.23199149 9.4968018,9.43358614 C10.7650411,9.2683949 12.1516881,9.14310979 13.5183779,8.64062796 C14.6420552,8.56094913 15.7237479,7.3701615 15.1078289,6.66435668 C13.5754556,6.5367386 11.9713878,6.72545012 10.27769,7.05680665 C8.40086033,7.44083844 6.69606681,8.17047091 4.80238919,8.48366343 C2.95658806,8.72771376 5.17365558,9.15608011 4.64494418,9.25151442 C3.68177789,9.5804508 5.79359524,9.8022663 4.52007713,10.1490287 C3.73357615,10.0018354 2.91492917,9.73584975 3.25088747,8.92005339 C1.48277203,9.14588165 -0.0708940219,9.8681707 1.32602408,11.6391669 L1.42991917,11.639948 L1.4299211,11.6398939 L1.4299211,11.6399902 Z M5.69043647,9.50424365 C6.10499759,8.00105032 7.91143758,10.7411886 6.36992381,9.70390539 C6.18580185,9.56827699 5.88298733,9.45762827 5.69043647,9.50424365 Z M6.53082733,8.78732268 C6.58484076,8.09562859 8.27000154,9.15350162 6.80869127,9.03632542 L6.53082733,8.78732268 Z M7.83594344,8.20081085 C8.46788611,7.45343974 11.4146918,7.72382866 9.25773149,8.12793817 C8.67958841,7.69952158 8.23641594,8.3805458 7.83594344,8.20081085 Z M12.7727746,7.61145264 C13.1717142,6.5825277 14.3209148,7.19857134 12.9573854,7.40469111 C12.9869945,7.51418401 12.9174018,7.93587763 12.7727746,7.61145264 Z M3.9659791,13.0680357 C5.15796436,12.3495874 2.70055229,12.444728 3.9659791,13.0680357 Z M38.4307975,33.3996703 C39.3830808,33.402837 41.3161369,33.1085849 39.2441464,33.109518 C38.9190059,33.1594263 37.349611,33.1487231 38.4307996,33.399664 L38.4307975,33.3996703 Z M5.62258001,12.8874639 C6.39326601,12.8353608 6.82836305,12.0507066 5.47353021,12.0958104 C3.37377099,11.8818429 7.3261126,12.8034747 5.20416381,12.5399476 C4.91903947,12.7257965 5.60601692,12.9388846 5.62258001,12.8874639 Z M4.54339573,6.89547554 C5.9188372,6.43491381 7.79973217,5.91738963 8.44916877,7.12224534 C7.78822611,6.3392572 8.18243791,5.56845068 8.80670001,6.71324148 C9.68941335,7.87152614 10.1313172,6.18642154 9.55718789,5.79791107 C10.2114557,6.59806574 10.9556142,6.97616917 9.99525035,5.84848516 C11.0388496,4.61287975 7.90562257,6.01028599 7.19346096,5.9962139 C6.85081365,6.14759207 3.65590031,6.79819339 4.54339573,6.89547554 Z M5.34948227,5.37594871 C6.13390922,4.79320032 8.06244709,5.7225872 6.82491462,4.79679952 C6.70392218,4.69160564 4.11471468,5.49883689 5.34948227,5.37594871 Z M8.20926392,5.49215846 C9.12732654,5.51521683 7.81326314,4.27822169 8.90725069,4.83874284 C8.72758071,4.26101653 7.63354212,4.15285931 7.09867811,3.92204213 C6.79615807,4.450248 7.71444847,5.49925826 8.20926392,5.49215846 Z M7.01976879,3.21236937 C8.49923103,3.01922562 6.64264835,2.58526151 6.7216499,3.19684864 L7.01976879,3.21236937 L7.01976879,3.21236747 L7.01976879,3.21236937 Z M4.83731809,1.53150383 C3.79561203,0.193030118 6.79638584,1.75649715 5.73801246,0.355068655 C4.84721789,-0.343120203 3.99121452,1.14076849 4.83731809,1.53150383 Z M18.2059529,8.61902117 C18.6837353,7.78535466 16.2333764,7.49528617 17.8840382,8.3235578 C18.0360152,8.37354438 18.0016189,8.67667966 18.2059529,8.61902117 Z"/>
      <g transform="translate(27 1)">
        <path d="M13.851845 2.08851126C13.6816227 2.75934338 13.5764969 3.8857075 13.5364633 5.46760724 13.5364483 5.77799926 13.3962784 5.93318726 13.1159536 5.93317146 12.8355988 5.93318726 12.6403627 5.79802353 12.5302431 5.52768006 12.2298662 4.79681101 11.9445198 4.2861925 11.674206 3.99582326 11.3538049 3.65542858 10.9282885 3.4501799 10.3976592 3.3800768 9.82695573 3.28998594 8.40523243 3.24493144 6.13248932 3.24491307 5.61184971 3.24493144 5.27143709 3.29999808 5.11125146 3.4101132 5.01112155 3.48021631 4.96106194 3.63039835 4.96106835 3.86065932L4.96106835 10.6639058C4.96106194 10.8941956 5.10623845 11.0043291 5.39659573 10.9943063 6.28766835 10.9843059 7.57923282 10.924232 9.2712934 10.8140878 9.60168214 10.7740502 9.82445243 10.6664198 9.93960427 10.4911964 10.0547305 10.3159954 10.1673662 9.86294666 10.2775136 9.13204899 10.3475847 8.73157637 10.5828715 8.57638837 10.9833676 8.66648456 11.3237674 8.73658254 11.4689439 8.89177033 11.4188971 9.13204899 11.1385445 10.4937106 11.0484342 12.2658569 11.1485683 14.4484936 11.1585645 14.7088155 10.993368 14.8489854 10.6529682 14.8690033 10.3726155 14.899045 10.1974037 14.7488641 10.1273305 14.4184561 9.86700427 13.1669481 9.38391845 12.4986387 8.67807515 12.4135265 7.97220835 12.3284326 6.82331709 12.2858812 5.23139709 12.2858718 5.0511701 12.2858812 4.96106194 12.35096 4.96106835 12.4811083L4.96106835 19.2393012C4.96106194 19.739908 5.14628699 20.0803206 5.51674136 20.260539 5.80708583 20.4107221 6.43284485 20.5458854 7.39401845 20.6660289 7.8846035 20.7160907 8.09986388 20.9313511 8.03979961 21.3118122 7.97971825 21.6422138 7.53918427 21.7723705 6.71819767 21.7022866 4.34531612 21.512055 2.38794621 21.5220682.846081553 21.7323219.415556505 21.7923948.200296117 21.6171829.200298252 21.2066843.200296117 20.9463709.415556505 20.7961878.846081553 20.7561392 1.8272666 20.6460068 2.31786019 19.7849631 2.31786447 18.1730082L2.31786447 5.3174252C2.31786019 4.65664111 2.20021786 4.14852569 1.96493748 3.79307746 1.72964854 3.43766489 1.29161786 3.11477367.650843301 2.82440336.250355728 2.64420392.100174757 2.3989067.200298252 2.08851126.250355728 1.89830054.330452816 1.79317322.440589515 1.77312909.540708738 1.74311254.806028738 1.76313724 1.23655379 1.8332019 1.86731515 1.93334291 3.35411573 1.98340359 5.69695981 1.98338394 8.46030078 1.98340359 10.8481915 1.92333078 12.8606447 1.8031655 13.5314417 1.76313682 13.8668478 1.81820452 13.8668627 1.96836563 13.8668478 2.00843383 13.8618433 2.04848237 13.8518472 2.08851126L13.851845 2.08851126zM23.6136786 21.1766489C23.6136701 21.5771344 23.3883965 21.7523462 22.9378579 21.7022866 21.5561788 21.5721278 19.8441047 21.592152 17.8016332 21.7623594 17.3911324 21.8024058 17.1383268 21.7923948 17.0432142 21.7323219 16.9480973 21.6722491 16.9005388 21.5070483 16.900541 21.2367217 16.9005388 20.9964305 17.1733687 20.7936845 17.7190328 20.6284837 18.2646905 20.463285 18.5375225 19.9701882 18.5375247 19.1491909L18.5375247 5.55771647C18.5375225 4.74675033 18.4198802 4.15102878 18.1845977 3.7705501 17.9493087 3.3901073 17.5363089 3.09474961 16.9455961 2.88447617 16.6352188 2.77436148 16.4800291 2.61917348 16.4800313 2.41891175 16.4800291 2.11856732 16.7053027 1.89329437 17.1558499 1.74309268 17.836673 1.52284577 18.542527 1.18243357 19.2734161.721854816 19.87414.361439068 20.2546012.181220835 20.4147996.181199476 20.7852433.181220835 20.9704683.436530194 20.9704748.947127767 20.9704683.907099942 20.9504398 1.40770631 20.9104019 2.44894816 20.8803602 3.44016777 20.870347 4.41635006 20.8803645 5.37749802L20.9404373 18.788754C20.940433 19.3994975 21.090614 19.8425326 21.3909845 20.1178658 21.6913421 20.393199 22.2069666 20.5759208 22.9378579 20.6660289 23.3883965 20.7160907 23.6136701 20.8862981 23.6136786 21.1766489z"/>
        <path fill-rule="nonzero" d="M37.3102806,20.1704287 C37.3102656,20.3806847 36.9273033,20.6985697 36.1613872,21.1240839 C35.3954476,21.5496002 34.782205,21.7623573 34.3216575,21.7623594 C33.9311746,21.7623573 33.5857553,21.5721278 33.2854019,21.1916666 C32.9850293,20.8112054 32.7747734,20.6209759 32.6546363,20.6209759 C32.5645196,20.6209759 32.0889437,20.8262252 31.2279064,21.2367217 C30.3668563,21.6472183 29.5008082,21.8524676 28.6297577,21.8524676 C27.8087583,21.8524676 27.1229285,21.6121763 26.5722643,21.1315938 C25.971534,20.6009517 25.6711699,19.8800779 25.671172,18.9689724 C25.6711699,17.2368783 27.6535707,15.9953734 31.6183808,15.2444579 C32.2991975,15.1143076 32.6446167,14.8389722 32.6546363,14.4184561 L32.6846738,13.4572917 C32.7447381,11.8153112 32.0188577,10.994317 30.5070326,10.9943063 C30.0765054,10.994317 29.6685122,11.3797837 29.2830509,12.1507079 C28.8975788,12.9216511 28.344407,13.3371544 27.6235375,13.3972189 C26.8025402,13.4773241 26.3920437,13.1319057 26.3920458,12.3609627 C26.3920437,11.88039 27.0027829,11.319711 28.2242656,10.6789239 C29.5058148,10.0081225 30.7373064,9.67271629 31.9187449,9.67270433 C33.9511988,9.67271629 34.9574169,10.6388864 34.9374033,12.5712176 L34.8773305,18.7587186 C34.867313,19.4095085 35.1426419,19.7349035 35.7033322,19.7349014 C35.813454,19.7349035 36.0237078,19.7098726 36.3340957,19.6598109 C36.6444602,19.6097513 36.8246786,19.5847204 36.8747511,19.5847183 C37.1650913,19.5847204 37.3102656,19.7799565 37.3102806,20.1704287 Z M32.6846738,16.7462783 C32.6946699,16.4959802 32.6371068,16.3307794 32.5119631,16.2506781 C32.3868045,16.1705852 32.189065,16.1555676 31.9187449,16.2056229 C29.5058148,16.6361501 28.299354,17.4221012 28.2993583,18.5634804 C28.299354,19.7148792 28.9251109,20.2905765 30.1766332,20.2905744 C30.6772336,20.2905765 31.1928581,20.1954596 31.7235087,20.005228 C32.3442526,19.7849631 32.6546278,19.5196431 32.6546363,19.2092637 L32.6846738,16.7462783 Z"/>
        <path d="M48.5138596 18.3832619C48.5138489 19.4445505 48.1058557 20.2880732 47.2898757 20.9138301 46.4738786 21.5395891 45.3600293 21.8524676 43.9483256 21.8524676 43.0071806 21.8524676 42.0660398 21.7523462 41.1249033 21.5521035 40.3139192 21.371885 39.8433478 21.2066843 39.7131932 21.0565033 39.633094 20.9163334 39.5930454 20.2305037 39.5930476 18.9990099 39.5930454 18.4683699 39.7131911 18.1930346 39.9534845 18.1730082 40.1937736 18.142975 40.3990208 18.2731317 40.5692303 18.5634804 41.3201373 19.8750734 42.5316047 20.5308678 44.2036346 20.5308656 45.6153383 20.5308678 46.3211944 20.040272 46.3212029 19.0590827 46.3211944 18.6285619 46.1610002 18.2681272 45.8406204 17.977772 45.4901882 17.6473748 44.8093629 17.261907 43.7981447 16.8213687 42.3363685 16.1705852 41.3601858 15.5998946 40.8695944 15.1092946 40.338948 14.5886699 40.073628 13.8878212 40.0736301 13.0067456 40.073628 11.9254445 40.4891311 11.084426 41.3201394 10.4836873 42.0910707 9.9029952 43.1223196 9.61264348 44.4138905 9.61263151 45.224866 9.61264348 45.9657641 9.67772225 46.6365847 9.80786806 47.3574499 9.93803757 47.7329045 10.0982315 47.7629505 10.2884506 47.8430369 10.8491411 48.0082377 11.6601232 48.2585507 12.7213996 48.2885775 12.8515661 48.1484076 12.9566935 47.838041 13.036782 47.5076309 13.1068755 47.2873639 13.0518082 47.17724 12.8715817 46.3862717 11.5800262 45.3850602 10.9342441 44.1735992 10.9342335 42.8019313 10.9342441 42.1161016 11.3747777 42.1161058 12.2558354 42.1161016 12.7464388 42.3013245 13.1369119 42.6717788 13.4272553 43.002174 13.6775666 43.778114 14.0680395 44.999601 14.5986746 46.2811458 15.1493495 47.1522006 15.6449497 47.6127674 16.0854773 48.2134849 16.6561744 48.5138489 17.4221012 48.5138596 18.3832619zM65.9349761 21.0865386C65.9349612 21.4369645 65.6996765 21.6221895 65.22912 21.6422138 64.5282577 21.6522313 63.6121478 21.7022845 62.4807903 21.7923948 61.9200979 21.9025272 61.5196124 21.8324433 61.279334 21.582141 59.6974058 19.8800779 58.3557817 18.0979198 57.2544553 16.2356604 57.1643386 16.0754705 57.0491996 15.9953734 56.9090361 15.9953691 56.7388223 15.9953734 56.4434649 16.1455565 56.0229616 16.4459142 55.5523858 16.706234 55.3171012 17.0766841 55.3171054 17.5572623 55.3171012 17.8976771 55.3271229 18.3882728 55.3471429 19.0290452 55.3671565 19.6698241 55.527355 20.0903338 55.8277254 20.2905744 56.037975 20.4307464 56.5235619 20.5408788 57.2844907 20.6209759 57.7550536 20.6810487 57.9903383 20.8562606 57.9903468 21.1466115 57.9903383 21.3768917 57.952793 21.5195649 57.8777111 21.5746311 57.802612 21.6296973 57.6048726 21.6422138 57.2844907 21.6121763 56.2832707 21.5220682 54.5912229 21.5721278 52.2083388 21.7623594 51.6076085 21.812419 51.2822136 21.7373285 51.232154 21.5370858 51.2121404 21.4669998 51.2021165 21.3668784 51.2021186 21.2367217 51.2021165 20.9263466 51.5074872 20.6910598 52.1182285 20.5308656 52.6688928 20.3906979 52.9442282 19.7449146 52.9442303 18.5935179L52.9442303 5.46760724C52.9442282 4.64662897 52.8641311 4.07593786 52.703939 3.755532 52.4836699 3.34505258 52.0231117 3.02466466 51.3222643 2.79436695 50.9918627 2.68425247 50.8266619 2.52906447 50.8266641 2.32880252 50.8266619 2.03847023 51.0619466 1.8131975 51.5325181 1.65298346 52.2834272 1.40270035 52.9992944 1.05728198 53.6801217.616727282 54.230786.256311748 54.5711986.0760935146 54.7013596.0760719417 55.1118518.0760935146 55.3171012.336408835 55.3171054.857018544 55.3171012.786954524 55.312086 1.28255472 55.3020899 2.34382083 55.2920724 3.07472534 55.2870744 4.05591359 55.2870744 5.2873888L55.3171097 14.6887849C55.3171054 14.9491068 55.3871893 15.0792635 55.5273656 15.0792571 55.6775423 15.0792635 55.9078204 14.9491068 56.2182019 14.6887849 57.0492039 14.0380031 58.0704396 13.1869724 59.2819155 12.1356898 59.5221983 11.885396 59.6423439 11.6851535 59.6423524 11.5349616 59.6423439 11.2646442 59.2368518 11.0744138 58.4258784 10.9642699 58.0754462 10.924232 57.9102454 10.7289955 57.9302783 10.3785598 57.9603072 10.0281468 58.135519 9.87796476 58.4559159 9.92801369 59.176779 10.0281468 60.2280522 10.0832134 61.6097377 10.093214 62.5708899 10.1032379 63.5270483 10.1082445 64.4782151 10.1082317 64.7885775 10.1182556 64.943765 10.3034798 64.94378 10.6639054 64.943765 11.0043287 64.6984672 11.1895529 64.2078864 11.2195788 63.4369402 11.2496257 62.7110598 11.4248379 62.0302474 11.745216 61.0790849 12.1757473 60.0628536 12.9316628 58.9815515 14.0129647 58.9014458 14.0730452 58.8613973 14.1481355 58.8614058 14.2382372 58.8613973 14.3784157 59.0316047 14.7138217 59.3720258 15.2444574 60.6235332 17.1467675 61.8049631 18.5835085 62.9163219 19.5546825 63.6271697 20.1654238 64.2929773 20.4707945 64.9137425 20.4707924 65.3742858 20.4707945 65.6596322 20.5033332 65.7697796 20.5684104 65.8798992 20.6334899 65.9349654 20.8062005 65.9349804 21.0865382L65.9349761 21.0865386z"/>
      </g>
    </g>
  </g>
</svg>
