<svg width="199" height="135" viewBox="0 0 199 135" fill="none" xmlns="http://www.w3.org/2000/svg">
<path fill-rule="evenodd" clip-rule="evenodd" d="M193.122 72.7347C203.307 101.128 167.162 119.594 83.9461 127.346C0.730009 135.098 -0.6005 87.9979 15.3886 60.2486C23.3834 46.3733 44.5582 20.2693 68.8475 13.2376C93.1369 6.20641 120.573 22.7767 135.107 31.3603C164.935 48.9763 182.937 44.3419 193.122 72.7347Z" fill="#C3C3F6"/>
<path d="M130.228 66.8523L130.357 57.9685L126.464 57.9129C126.43 57.8707 126.39 57.8284 126.357 57.7862L123.105 67.0924L121.782 67.0724L118.449 71.5655L103.872 77.3302L83.552 79.271L68.7723 76.821L55.1287 65.2916C55.1953 64.9137 55.2887 64.5357 55.3954 64.16L51.3737 56.6546C51.3248 56.7102 51.2714 56.7658 51.2248 56.8213L47.2653 56.7635L47.1185 66.8212C47.1141 66.9435 47.1141 67.0657 47.1141 67.1902L47.1074 67.6504L47.1652 68.3952C47.6499 74.0777 51.5982 79.7156 59.0414 84.1575C75.1461 93.7706 101.477 94.153 117.853 85.0112C125.423 80.785 129.534 75.2648 130.183 69.6002H130.188L130.239 69.4179C130.299 68.1973 130.303 67.7572 130.228 66.8523Z" fill="#9595EF" fill-opacity="0.59"/>
<path d="M89.4053 92.7079C78.1961 92.7079 66.9357 90.1624 58.4743 85.1113C50.9999 80.6516 46.5914 74.7469 46.0578 68.4886L46 67.735L46.169 55.6342L50.7131 55.7009L51.4312 54.8539L52.3516 56.1255L56.5846 64.0267L56.4623 64.458C56.4223 64.5958 56.3867 64.7315 56.3511 64.8715L69.2544 75.7718L83.5895 78.1483L103.609 76.2342L117.744 70.6429L121.226 65.9475L122.315 65.9631L125.957 55.5453L126.99 56.8036L131.483 56.8681L131.339 66.8101C131.417 67.7461 131.41 68.2307 131.348 69.4668L131.31 69.7047C130.572 75.9652 125.99 81.7365 118.396 85.9761C110.343 90.4781 99.8987 92.7079 89.4053 92.7079ZM48.3632 57.8907L48.221 67.6638L48.2743 68.3086C48.7456 73.8287 52.774 79.1199 59.6147 83.2038C75.3904 92.6168 101.275 92.9947 117.315 84.042C124.274 80.1581 128.451 74.9848 129.082 69.4735L129.138 69.229C129.187 68.1685 129.189 67.7617 129.122 66.948L129.118 66.839L129.234 59.0668L127.099 59.0357L123.893 68.2152L122.339 68.1929L119.156 72.4815L103.983 78.4351L83.5161 80.3915L68.2896 77.866L53.9212 65.7274L54.0346 65.0961C54.0813 64.827 54.1413 64.5603 54.208 64.2935L50.7954 57.9241L48.3632 57.8907Z" fill="#16110D"/>
<path d="M50.4043 57.873C51.9694 60.0406 53.7613 62.5084 55.2797 64.5981C56.2646 60.4964 59.5149 56.5658 65.0372 53.4845C78.3252 46.068 99.6921 46.377 112.76 54.1781C118.133 57.3862 121.261 61.359 122.164 65.443L126.71 58.2376C126.272 57.6618 125.794 57.0949 125.274 56.5347C126.264 56.9771 126.951 57.2906 127.217 57.4306L127.226 57.4195C125.903 56.1167 115.357 40.9191 115.357 40.9191L91.2863 34.9321L68.8589 37.8466L54.1926 49.694L53.1588 54.3493L51.5314 54.9006C50.1953 56.07 51.338 56.6058 50.4043 57.873Z" fill="#16110D"/>
<path d="M121.663 68.3219L121.078 65.6808C120.202 61.728 117.132 58.0797 112.19 55.1296C99.4446 47.5241 78.5334 47.2195 65.5789 54.4537C60.5034 57.2861 57.3153 60.8832 56.3616 64.856L55.7992 67.1992L54.3808 65.2517C52.8601 63.1619 51.0682 60.692 49.5031 58.5244L49.0273 57.8663L49.5098 57.2127C49.7143 56.9348 49.7143 56.8125 49.7076 56.4813C49.6965 55.7521 49.7721 54.9651 50.7948 54.0669L51.1727 53.8491L52.2065 53.4978L53.1891 49.0736L68.4023 36.7862L91.35 33.8049L116.032 39.9408L116.27 40.2854C120.322 46.1279 127.094 55.7321 128.004 56.628L128.686 57.2994L128.055 58.1687L128.061 58.1754L121.663 68.3219ZM88.1197 47.0306C97.2547 47.0306 106.432 49.107 113.328 53.2221C117.846 55.9166 120.972 59.2047 122.494 62.8329L125.349 58.3065C125.069 57.9641 124.771 57.624 124.46 57.2883L120.738 53.2933L123.664 54.596C120.565 50.3453 115.958 43.7291 114.68 41.8928L91.2188 36.0592L69.3094 38.9071L55.1922 50.312L54.1051 55.1985L52.1109 55.8744C51.9286 56.0589 51.9286 56.1456 51.933 56.4457C51.9397 56.7836 51.9464 57.2416 51.7218 57.7907C52.7534 59.218 53.8605 60.7454 54.9099 62.1904C56.4861 58.4688 59.7609 55.1541 64.5007 52.5107C71.0591 48.8491 79.5716 47.0306 88.1197 47.0306Z" fill="#16110D"/>
<path d="M124.036 90.4694L130.359 79.5847L123.047 74.836C123.007 74.8093 122.967 74.7804 122.922 74.7559C122.127 74.3002 121.026 74.358 119.803 75.0405C117.322 76.4256 115.279 79.8492 115.237 82.6905C115.219 83.9443 115.595 84.8758 116.235 85.4027C116.351 85.4983 116.477 85.5761 116.609 85.645L124.036 90.4694Z" fill="#9595EF" fill-opacity="0.59"/>
<path d="M121.157 63.6158C121.308 53.2122 106.823 44.5666 88.8035 44.3053C70.7845 44.044 56.0549 52.2659 55.904 62.6695C55.7532 73.0731 70.2382 81.7187 88.2572 81.98C106.276 82.2413 121.006 74.0193 121.157 63.6158Z" fill="#9595EF" fill-opacity="0.59"/>
<path d="M59.6883 39.7453C43.3123 48.887 43.09 64.0891 59.1947 73.6999C75.2994 83.3129 101.631 83.6953 118.007 74.5536C134.385 65.4119 134.605 50.2098 118.5 40.599C102.395 30.986 76.0642 30.6036 59.6883 39.7453ZM112.509 71.2722C99.2208 78.6887 77.8538 78.3797 64.786 70.5785C51.7182 62.7796 51.8982 50.4432 65.1862 43.0267C78.4741 35.6102 99.8411 35.9192 112.909 43.7203C125.977 51.5192 125.797 63.8556 112.509 71.2722Z" fill="white"/>
<path d="M89.5577 82.2524C78.3484 82.2524 67.088 79.7068 58.6266 74.6558C50.4808 69.7959 46.0501 63.3576 46.1501 56.5302C46.2479 49.7028 50.8655 43.3979 59.1468 38.7759C75.8051 29.4763 102.69 29.8676 119.07 39.6474C127.216 44.5073 131.645 50.9434 131.547 57.7707C131.447 64.5981 126.831 70.903 118.55 75.5273C110.496 80.0203 100.051 82.2524 89.5577 82.2524ZM88.1437 34.2384C78.0394 34.2384 67.9862 36.386 60.2295 40.7145C52.6707 44.9341 48.4578 50.561 48.3711 56.5613C48.2843 62.5594 52.3283 68.3086 59.7626 72.7461C75.5383 82.159 101.423 82.537 117.463 73.5842C125.022 69.3646 129.235 63.7355 129.321 57.7374C129.408 51.7393 125.362 45.9901 117.93 41.5549C109.782 36.6906 98.9372 34.2384 88.1437 34.2384ZM89.422 77.7238C80.2892 77.7238 71.112 75.6495 64.2157 71.5322C57.5395 67.5483 53.9068 62.2593 53.989 56.6414C54.0691 51.0234 57.8529 45.8434 64.6403 42.0551C78.2194 34.4785 100.127 34.7942 113.475 42.7643C120.151 46.7482 123.783 52.0372 123.701 57.6551C123.621 63.2731 119.837 68.4531 113.05 72.2414C106.485 75.9052 97.9724 77.7238 89.422 77.7238ZM88.2771 38.7648C80.1158 38.7648 71.9923 40.4989 65.7274 43.9982C59.6626 47.3841 56.2833 51.886 56.2122 56.6747C56.1433 61.4657 59.3913 66.0654 65.3539 69.6247C78.0972 77.2258 99.0084 77.5348 111.965 70.3006C118.032 66.9169 121.409 62.4127 121.48 57.624C121.549 52.8331 118.301 48.2333 112.339 44.674C105.756 40.7456 96.9942 38.7648 88.2771 38.7648Z" fill="#16110D"/>
<path d="M89.3193 56.29C93.8279 58.9801 93.7656 63.2375 89.1814 65.7963C84.5972 68.3552 77.2229 68.2485 72.7143 65.5585C68.2057 62.8662 68.268 58.611 72.8522 56.0522C77.4364 53.4933 84.8107 53.5978 89.3193 56.29Z" fill="white"/>
<path d="M81.2101 63.1508C77.9443 63.1508 74.6695 62.3927 72.1462 60.8876C69.6096 59.3736 68.229 57.3238 68.2623 55.1162C68.2957 52.9064 69.7318 50.8966 72.3107 49.456C77.2817 46.6837 85.0028 46.7948 89.8872 49.7117C92.426 51.2256 93.8044 53.2776 93.771 55.4875C93.7377 57.6973 92.3015 59.7048 89.7226 61.1432C87.3194 62.4838 84.2692 63.1508 81.2101 63.1508ZM80.8233 49.6716C78.1355 49.6716 75.4587 50.243 73.3956 51.3946C71.5371 52.4306 70.5033 53.7645 70.4833 55.1451C70.4633 56.5279 71.4592 57.8863 73.2822 58.9779C77.4818 61.4812 84.3715 61.5834 88.6378 59.2002C90.4941 58.1642 91.5279 56.8347 91.5479 55.4519C91.5701 54.0691 90.5741 52.7085 88.7489 51.6169C86.5813 50.323 83.6956 49.6716 80.8233 49.6716Z" fill="#16110D"/>
<path d="M116.674 78.2084L123.846 82.6926L129.326 78.9131L121.623 74.2045L116.674 78.2084Z" fill="white"/>
<path d="M124.406 92.0366L116 86.5765C115.862 86.5076 115.682 86.3898 115.522 86.2564C114.597 85.4894 114.099 84.2177 114.124 82.6704C114.171 79.4267 116.427 75.6474 119.259 74.0667C120.796 73.213 122.287 73.1129 123.472 73.7888L123.672 73.9177L131.852 79.2267L124.406 92.0366ZM121.723 75.5829C121.309 75.5829 120.842 75.7296 120.342 76.0075C118.212 77.1969 116.383 80.2649 116.347 82.7037C116.334 83.5619 116.545 84.2155 116.943 84.5445L117.212 84.7112L123.659 88.8997L128.866 79.9381L122.436 75.7674C122.225 75.6429 121.985 75.5829 121.723 75.5829Z" fill="#16110D"/>
<path d="M130.36 79.5824C129.569 79.1644 128.495 79.2311 127.303 79.8958C124.822 81.2809 122.779 84.7046 122.737 87.5458C122.717 88.9864 123.215 89.9979 124.035 90.467L137.352 101.983L146.998 86.7432L130.36 79.5824Z" fill="#9595EF" fill-opacity="0.59"/>
<path d="M124.412 82.6926L139.481 90.9383L145.875 86.094L128.867 79.2311L124.412 82.6926Z" fill="white"/>
<path d="M137.602 103.668L123.307 91.3096C122.275 90.7427 121.599 89.3198 121.624 87.5324C121.67 84.2888 123.927 80.5072 126.759 78.9265C128.227 78.1084 129.672 77.9839 130.834 78.5774L148.635 86.2363L137.602 103.668ZM129.251 80.4338C128.842 80.4338 128.358 80.5806 127.844 80.8673C125.712 82.0567 123.882 85.1247 123.847 87.5635C123.831 88.5195 124.1 89.2242 124.585 89.5021L137.101 100.3L145.361 87.2479L129.841 80.565C129.674 80.4783 129.474 80.4338 129.251 80.4338Z" fill="#16110D"/>
<path d="M170.72 103.582C170.58 103.482 170.428 103.406 170.271 103.337L147.954 87.1545C146.78 86.3964 145.117 86.4431 143.257 87.4813C139.633 89.5044 136.647 94.5088 136.585 98.6572C136.556 100.643 137.207 102.065 138.286 102.795C138.501 102.941 138.733 103.061 138.981 103.15L163.361 115.362C163.361 115.362 163.663 115.538 163.83 115.6L172.349 119.829L178.53 108.873L170.72 103.582Z" fill="#9595EF" fill-opacity="0.59"/>
<path d="M139.482 90.9383L172.345 111.592L177.236 107.994L146.999 86.7431L140.527 89.4976L139.482 90.9383Z" fill="white"/>
<path d="M172.801 121.294L138.488 104.146C138.286 104.082 137.968 103.919 137.668 103.717C136.22 102.739 135.442 100.934 135.476 98.6416C135.542 94.0663 138.724 88.7374 142.719 86.5098C144.862 85.3137 146.989 85.2092 148.559 86.2207L180.006 108.526L172.801 121.294ZM146.125 87.7392C145.447 87.7392 144.653 87.9748 143.801 88.4506C140.547 90.2647 137.752 94.9467 137.699 98.6728C137.677 100.193 138.11 101.329 138.913 101.874C139.059 101.974 139.208 102.05 139.36 102.103L171.902 118.366L177.06 109.22L147.301 88.0549C146.974 87.8437 146.576 87.7392 146.125 87.7392Z" fill="#16110D"/>
<path d="M185.761 113.599L178.669 108.959C178.625 108.93 178.582 108.899 178.536 108.873C177.74 108.417 176.639 108.475 175.417 109.157C172.936 110.542 170.892 113.968 170.85 116.807C170.828 118.363 171.413 119.417 172.353 119.828L179.647 124.588L185.761 113.599Z" fill="#9595EF" fill-opacity="0.59"/>
<path d="M172.74 111.87L180.384 116.963L184.643 112.841L177.064 108.602L172.74 111.87Z" fill="white"/>
<path d="M179.301 125.691L171.744 120.76C170.497 120.233 169.708 118.755 169.739 116.789C169.786 113.546 172.042 109.766 174.877 108.186C176.406 107.33 177.9 107.23 179.088 107.908L179.29 108.039L187.236 113.237L179.301 125.691ZM177.334 109.704C176.918 109.704 176.453 109.851 175.957 110.129C173.825 111.318 171.996 114.384 171.96 116.825C171.945 117.85 172.249 118.572 172.796 118.813L179.252 123.01L184.283 113.966L178.056 109.893C177.843 109.764 177.598 109.704 177.334 109.704Z" fill="#16110D"/>
<path d="M186.637 112.797C185.452 112.085 183.934 112.174 182.375 113.048C179.541 114.628 177.284 118.408 177.235 121.651C177.208 123.439 177.849 124.815 179.04 125.526C179.572 125.842 180.17 126 180.806 126C181.595 126 182.442 125.758 183.307 125.275C186.139 123.697 188.396 119.915 188.444 116.669C188.469 114.882 187.829 113.506 186.637 112.797Z" fill="#16110D"/>
<path d="M112.29 50.7921C106.926 50.7921 101.541 49.5471 97.3949 47.0727C93.1553 44.5405 90.8499 41.0901 90.9032 37.3552C90.9566 33.6202 93.3599 30.2388 97.6751 27.8311C105.841 23.2713 118.526 23.4536 126.556 28.249C130.798 30.7812 133.104 34.2316 133.05 37.9665C132.997 41.7015 130.591 45.0852 126.276 47.4906C122.326 49.6983 117.315 50.7921 112.29 50.7921ZM111.65 29.0205C107.346 29.0205 103.068 29.912 99.8404 31.715C96.9725 33.3156 95.3763 35.3432 95.3496 37.4219C95.3185 39.5028 96.8547 41.5725 99.6737 43.2555C106.243 47.1794 117.432 47.3372 124.109 43.6112C126.977 42.0105 128.573 39.9829 128.602 37.9043C128.633 35.8234 127.094 33.7514 124.275 32.0707V32.0684C120.883 30.0409 116.254 29.0205 111.65 29.0205Z" fill="#16110D"/>
<path d="M112.29 46.2635C106.926 46.2635 101.541 45.0186 97.3949 42.5442C93.1553 40.012 90.8499 36.5616 90.9032 32.8266C90.9566 29.0917 93.3599 25.7103 97.6751 23.3026C105.841 18.7428 118.526 18.9251 126.556 23.7227V23.7205C130.798 26.2527 133.104 29.7031 133.05 33.438C132.997 37.173 130.591 40.5566 126.276 42.9621C122.326 45.1697 117.315 46.2635 112.29 46.2635ZM111.65 24.492C107.346 24.492 103.068 25.3835 99.8404 27.1842C96.9725 28.7849 95.3763 30.8125 95.3496 32.8911C95.3185 34.972 96.8547 37.0418 99.6737 38.7247C106.243 42.6486 117.432 42.8065 124.109 39.0805C126.977 37.4798 128.573 35.4522 128.602 33.3736C128.633 31.2927 127.094 29.2207 124.275 27.5399V27.5377C120.883 25.5124 116.254 24.492 111.65 24.492Z" fill="white"/>
</svg>
