<?xml version="1.0" encoding="UTF-8"?>
<svg width="786px" height="479px" viewBox="0 0 786 479" version="1.1" xmlns="http://www.w3.org/2000/svg" xmlns:xlink="http://www.w3.org/1999/xlink">
    <!-- Generator: Sketch 52.2 (67145) - http://www.bohemiancoding.com/sketch -->
    <title>frontend</title>
    <desc>Created with Sketch.</desc>
    <defs>
        <polygon id="path-1" points="0 0.647274629 103.636818 0.647274629 103.636818 77.3135926 0 77.3135926"></polygon>
    </defs>
    <g id="10.-Career" stroke="none" stroke-width="1" fill="none" fill-rule="evenodd">
        <g id="frontend" transform="translate(1.000000, 1.000000)">
            <path d="M465.815572,184.855654 C535.514094,240.145737 630.102918,241.014557 595.702219,308.027069 C565.201067,367.445154 437.87701,396.283605 279.026983,379.873444 C39.774054,355.158567 65.9412858,236.845814 131.34736,188.281338 C164.050943,163.998658 242.644315,122.066795 315.51879,122.142961 C388.393264,122.220012 431.855796,157.916031 465.815572,184.855654" id="Fill-1" fill="#9595EF" opacity="0.5"></path>
            <path d="M476.697292,181.584449 C555.238163,244.192336 661.827062,245.176147 623.062096,321.057962 C588.691394,388.340206 445.214285,420.99551 266.211643,402.413416 C-3.39426964,374.427453 26.0926856,240.45566 99.7965453,185.463532 C136.64909,157.966967 225.213263,110.485299 307.333007,110.571546 C389.452751,110.658795 438.429186,151.079287 476.697292,181.584449" id="Fill-1" stroke="#979797" opacity="0.246819196"></path>
            <path d="M517.174475,178.872023 C607.158388,250.423895 729.276795,251.54825 684.863953,338.270324 C645.485599,415.164317 481.104541,452.484665 276.022043,431.247986 C-32.8642011,399.264028 0.918866836,246.153407 85.3610372,183.305262 C127.582827,151.880616 229.05039,97.6158525 323.134599,97.7144198 C417.218809,97.8141333 473.330884,144.008982 517.174475,178.872023" id="Fill-1" stroke="#979797" opacity="0.112723214"></path>
            <path d="M576.120289,173.72743 C681.881727,257.746673 825.412032,259.066939 773.211968,360.899677 C726.929125,451.191865 533.725953,495.015002 292.684867,470.077992 C-70.3606217,432.521072 -30.6541257,252.732085 68.5938973,178.933126 C118.218737,142.032974 237.477337,78.3129869 348.058007,78.4287289 C458.638677,78.5458167 524.589286,132.789767 576.120289,173.72743" id="Fill-1" stroke="#979797" opacity="0.0825334821"></path>
            <g id="Group" transform="translate(72.000000, 0.000000)">
                <path d="M481.771672,118.100702 L277.237608,2.64475823 C273.966898,0.798389727 270.41307,-0.0362233428 266.92203,0.0126043607 L266.920889,0.000113552799 L254.113179,0.336229837 L256.52654,3.02402458 C253.34031,4.96691297 250.635839,7.78756449 248.86977,11.3940014 L189.210434,133.238425 L416.331228,262.329789 L414.460132,263.700371 L367.667869,256.74072 L179.783028,149.948855 L69.8335391,212.442638 L53.6249769,210.031912 L53.6249769,227.926698 L53.6489507,227.930104 C53.5176656,231.933976 55.4344269,235.996895 59.4357658,238.270222 L269.16415,357.476815 C280.511742,363.926614 294.431378,363.975441 305.825776,357.606265 L421.731038,292.809631 C422.966259,292.11923 423.986857,291.160845 424.772284,290.045756 L424.773426,290.044621 C424.926401,289.826599 425.082802,289.61312 425.215228,289.384879 L435.896121,273.45115 L491.521011,147.300804 C496.27467,136.521237 492.064417,123.910063 481.771672,118.100702" id="Fill-1" fill="#FFFFFF"></path>
                <path d="M481.771672,118.100702 L277.237608,2.64475823 C273.966898,0.798389727 270.41307,-0.0362233428 266.92203,0.0126043607 L266.920889,0.000113552799 L254.113179,0.336229837 L256.52654,3.02402458 C253.34031,4.96691297 250.635839,7.78756449 248.86977,11.3940014 L189.210434,133.238425 L416.331228,262.329789 L414.460132,263.700371 L367.667869,256.74072 L179.783028,149.948855 L69.8335391,212.442638 L53.6249769,210.031912 L53.6249769,227.926698 L53.6489507,227.930104 C53.5176656,231.933976 55.4344269,235.996895 59.4357658,238.270222 L269.16415,357.476815 C280.511742,363.926614 294.431378,363.975441 305.825776,357.606265 L421.731038,292.809631 C422.966259,292.11923 423.986857,291.160845 424.772284,290.045756 L424.773426,290.044621 C424.926401,289.826599 425.082802,289.61312 425.215228,289.384879 L435.896121,273.45115 L491.521011,147.300804 C496.27467,136.521237 492.064417,123.910063 481.771672,118.100702 Z" id="Stroke-3" stroke="#000000" stroke-width="2" stroke-linejoin="round"></path>
                <path d="M59.4359942,221.560246 L269.163237,340.766839 C280.51197,347.215502 294.431607,347.265466 305.826005,340.896289 L426.468943,273.450469 L179.782115,133.23888 L59.4359942,201.640814 C51.687895,206.044392 51.687895,217.156669 59.4359942,221.560246" id="Fill-5" fill="#FFFFFF"></path>
                <path d="M59.4359942,221.560246 L269.163237,340.766839 C280.51197,347.215502 294.431607,347.265466 305.826005,340.896289 L426.468943,273.450469 L179.782115,133.23888 L59.4359942,201.640814 C51.687895,206.044392 51.687895,217.156669 59.4359942,221.560246 Z" id="Stroke-7" stroke="#000000" stroke-width="2" stroke-linejoin="round"></path>
                <path d="M426.468829,273.450696 L482.092578,147.30035 C486.846237,136.520783 482.635984,123.910744 472.343239,118.100248 L267.809175,2.64543955 C257.586067,-3.12531368 244.588851,0.883100115 239.441337,11.3946827 L179.783142,133.237971 L426.468829,273.450696 Z" id="Fill-9" fill="#FFFFFF"></path>
                <path d="M426.468829,273.450696 L482.092578,147.30035 C486.846237,136.520783 482.635984,123.910744 472.343239,118.100248 L267.809175,2.64543955 C257.586067,-3.12531368 244.588851,0.883100115 239.441337,11.3946827 L179.783142,133.237971 L426.468829,273.450696 Z" id="Stroke-11" stroke="#000000" stroke-width="2" stroke-linejoin="round"></path>
                <path d="M416.47587,227.082546 L452.77104,146.940387 C456.657076,138.126419 453.215126,127.818096 444.800327,123.068183 L277.590022,28.6808252 C269.232304,23.963842 258.606209,27.2409757 254.39938,35.8346515 L214.722765,114.263299 C210.683753,122.512909 213.769522,132.465812 221.780191,137.019279 L393.514692,234.629265 C401.903233,239.397347 412.595542,235.882888 416.47587,227.082546" id="Fill-13" fill="#9595EF"></path>
                <path d="M284.739348,68.1308843 L289.643699,57.3013539 C290.168839,56.1101851 289.704205,54.7168922 288.567162,54.0741834 L265.970157,41.319933 C264.839964,40.6817663 263.404962,41.1246222 262.835299,42.2851318 L257.474304,52.8841501 C256.928615,54.0003741 257.345302,55.3448392 258.427547,55.9602954 L281.636455,69.1505885 C282.770072,69.7955684 284.215349,69.3209177 284.739348,68.1308843" id="Fill-15" fill="#FFFFFF"></path>
                <path d="M153.45593,252.72731 L183.524765,235.636478 C186.610534,233.882088 190.380126,233.809414 193.532108,235.438897 L234.465634,259.810734 C237.400711,261.328935 237.481765,265.474747 234.609477,267.105366 L206.122912,283.98726 C202.910425,285.812054 198.967308,285.810918 195.755962,283.984989 L153.45593,259.942455 C150.649855,258.347038 150.649855,254.321591 153.45593,252.72731" id="Fill-17" fill="#9595EF"></path>
                <path d="M326.612076,80.4264949 L327.989998,77.385551 C328.136124,77.0505702 328.00598,76.6610841 327.68633,76.4793996 L295.076273,58.1678753 C294.758906,57.9895974 294.355918,58.1145055 294.196093,58.440402 L292.691452,61.4154854 C292.537335,61.7288911 292.654921,62.1058864 292.958589,62.2796222 L325.741028,80.712648 C326.059537,80.8931969 326.464808,80.7603402 326.612076,80.4264949" id="Fill-19" fill="#FFFFFF"></path>
                <path d="M306.103758,78.9516712 L307.480538,75.9107272 C307.627806,75.576882 307.497662,75.1862604 307.178012,75.0057114 L291.12585,65.8908283 C290.809624,65.7125504 290.406636,65.8363229 290.24567,66.1622195 L288.741029,69.1373028 C288.588054,69.451844 288.704498,69.8288393 289.008166,70.0014396 L305.23271,79.2389598 C305.551219,79.4195087 305.95649,79.2855164 306.103758,78.9516712" id="Fill-21" fill="#FFFFFF"></path>
                <path d="M328.274258,231.999496 C326.873504,231.179645 326.172556,230.769719 324.770661,229.948732 C324.123369,229.569466 323.504617,229.427525 322.97491,229.496792 L322.955503,229.469539 L312.290593,232.87953 L317.468931,237.32058 C309.767637,249.944245 302.300374,262.705308 295.063716,275.599228 L294.701826,274.822527 L289.005197,288.724796 L299.598186,285.315941 L299.538822,285.187627 C299.87103,285.069532 300.165565,284.873085 300.360781,284.525614 C309.709415,267.879909 319.546659,251.515815 329.654463,235.314102 C330.186453,234.456778 329.450115,232.68649 328.274258,231.999496" id="Fill-23" fill="#FFFFFF"></path>
                <path d="M328.274258,231.999496 C326.873504,231.179645 326.172556,230.769719 324.770661,229.948732 C324.123369,229.569466 323.504617,229.427525 322.97491,229.496792 L322.955503,229.469539 L312.290593,232.87953 L317.468931,237.32058 C309.767637,249.944245 302.300374,262.705308 295.063716,275.599228 L294.701826,274.822527 L289.005197,288.724796 L299.598186,285.315941 L299.538822,285.187627 C299.87103,285.069532 300.165565,284.873085 300.360781,284.525614 C309.709415,267.879909 319.546659,251.515815 329.654463,235.314102 C330.186453,234.456778 329.450115,232.68649 328.274258,231.999496 Z" id="Stroke-25" stroke="#000000" stroke-width="2" stroke-linecap="round" stroke-linejoin="round"></path>
                <path d="M359.586648,283.263475 C352.280351,271.709477 348.901189,265.965977 342.125741,254.426741 C341.222728,252.888101 339.976091,251.594735 338.659816,250.830524 C336.421121,249.53148 335.303486,248.881958 333.068216,247.579508 C332.638971,247.329691 331.689153,247.413721 331.689153,247.413721 L321.140687,250.822576 L343.49453,283.529188 C339.750053,285.292663 336.68255,286.749545 332.043052,289.000162 C331.322696,289.348769 331.774773,290.912391 332.761123,291.477884 C334.551166,292.503266 335.641403,293.125535 337.163167,293.98513 L330.496172,298.809988 L341.209029,295.413624 L341.219303,295.386371 C341.518405,295.35117 341.802665,295.278496 342.062952,295.156995 C349.01535,291.892352 352.581736,290.282173 359.568382,287.033427 C360.600397,286.554235 360.600397,284.865705 359.586648,283.263475" id="Fill-27" fill="#FFFFFF"></path>
                <path d="M359.586648,283.263475 C352.280351,271.709477 348.901189,265.965977 342.125741,254.426741 C341.222728,252.888101 339.976091,251.594735 338.659816,250.830524 C336.421121,249.53148 335.303486,248.881958 333.068216,247.579508 C332.638971,247.329691 331.689153,247.413721 331.689153,247.413721 L321.140687,250.822576 L343.49453,283.529188 C339.750053,285.292663 336.68255,286.749545 332.043052,289.000162 C331.322696,289.348769 331.774773,290.912391 332.761123,291.477884 C334.551166,292.503266 335.641403,293.125535 337.163167,293.98513 L330.496172,298.809988 L341.209029,295.413624 L341.219303,295.386371 C341.518405,295.35117 341.802665,295.278496 342.062952,295.156995 C349.01535,291.892352 352.581736,290.282173 359.568382,287.033427 C360.600397,286.554235 360.600397,284.865705 359.586648,283.263475 Z" id="Stroke-29" stroke="#000000" stroke-width="2" stroke-linecap="round" stroke-linejoin="round"></path>
                <path d="M292.183208,265.307938 C287.108757,256.473531 284.080069,251.271677 279.569572,243.655691 L275.831945,236.323586 C275.812537,235.600255 276.045426,235.022271 276.54545,234.778133 C283.314049,231.46012 286.65668,229.760235 293.481217,226.38431 C294.179882,226.039109 293.698123,224.458454 292.716339,223.880471 C290.484494,222.562123 289.366859,221.902381 287.131589,220.585169 C285.817597,219.810738 284.55612,219.633596 283.625708,220.09462 L273.625215,223.461461 L275.064784,224.332411 C272.412826,225.634861 269.764294,226.913466 266.175076,228.606538 C265.196717,229.067563 265.196717,230.756093 266.179642,232.383304 C267.021008,233.776597 267.808718,235.082454 268.557613,236.323586 L262.108665,236.323586 L281.504599,270.588143 L291.416047,266.894271 C292.367007,267.472255 292.851049,266.469583 292.183208,265.307938" id="Fill-31" fill="#FFFFFF"></path>
                <path d="M292.183208,265.307938 C287.108757,256.473531 284.080069,251.271677 279.569572,243.655691 L275.831945,236.323586 C275.812537,235.600255 276.045426,235.022271 276.54545,234.778133 C283.314049,231.46012 286.65668,229.760235 293.481217,226.38431 C294.179882,226.039109 293.698123,224.458454 292.716339,223.880471 C290.484494,222.562123 289.366859,221.902381 287.131589,220.585169 C285.817597,219.810738 284.55612,219.633596 283.625708,220.09462 L273.625215,223.461461 L275.064784,224.332411 C272.412826,225.634861 269.764294,226.913466 266.175076,228.606538 C265.196717,229.067563 265.196717,230.756093 266.179642,232.383304 C267.021008,233.776597 267.808718,235.082454 268.557613,236.323586 L262.108665,236.323586 L281.504599,270.588143 L291.416047,266.894271 C292.367007,267.472255 292.851049,266.469583 292.183208,265.307938 Z" id="Stroke-33" stroke="#000000" stroke-width="2" stroke-linecap="round" stroke-linejoin="round"></path>
                <path d="M289.812429,287.935377 C299.161064,271.288537 308.998307,254.924443 319.106112,238.723865 C319.63696,237.866542 318.901764,236.097389 317.724765,235.409259 C316.325153,234.589408 315.624205,234.179482 314.222309,233.358496 C312.971106,232.627216 311.81009,232.741904 311.247277,233.651462 C301.217101,249.836142 291.583064,266.257013 282.323475,282.890227 C281.841716,283.754363 282.575771,285.534871 283.694547,286.22073 C285.027946,287.03831 285.693504,287.444829 287.022337,288.257867 C288.208469,288.98347 289.294139,288.856291 289.812429,287.935377" id="Fill-35" fill="#FFFFFF"></path>
                <path d="M289.812429,287.935377 C299.161064,271.288537 308.998307,254.924443 319.106112,238.723865 C319.63696,237.866542 318.901764,236.097389 317.724765,235.409259 C316.325153,234.589408 315.624205,234.179482 314.222309,233.358496 C312.971106,232.627216 311.81009,232.741904 311.247277,233.651462 C301.217101,249.836142 291.583064,266.257013 282.323475,282.890227 C281.841716,283.754363 282.575771,285.534871 283.694547,286.22073 C285.027946,287.03831 285.693504,287.444829 287.022337,288.257867 C288.208469,288.98347 289.294139,288.856291 289.812429,287.935377 Z" id="Stroke-37" stroke="#000000" stroke-width="2" stroke-linecap="round" stroke-linejoin="round"></path>
                <path d="M331.51403,298.565396 C338.466428,295.301888 342.032814,293.690574 349.01946,290.444099 C350.051474,289.964907 351.47506,288.274105 350.462453,286.673011 C343.439276,274.823776 341.199439,270.791516 334.425132,259.254552 C333.52212,257.714776 332.275483,256.42141 330.96035,255.658335 C328.720513,254.358155 324.754564,252.291495 322.519294,250.990179 C321.535227,250.416738 321.003237,251.41146 321.674503,252.564021 C328.235329,263.838679 331.476357,269.449322 338.305461,280.695592 C339.27697,282.294415 339.243863,283.979539 338.222123,284.459867 C331.483207,287.625719 328.09377,289.208645 321.494129,292.409698 C320.773774,292.759441 321.225851,294.323063 322.213343,294.888556 C324.457746,296.173974 325.58908,296.816682 327.872298,298.106642 C329.213688,298.864039 330.52768,299.028691 331.51403,298.565396" id="Fill-39" fill="#FFFFFF"></path>
                <path d="M331.51403,298.565396 C338.466428,295.301888 342.032814,293.690574 349.01946,290.444099 C350.051474,289.964907 351.47506,288.274105 350.462453,286.673011 C343.439276,274.823776 341.199439,270.791516 334.425132,259.254552 C333.52212,257.714776 332.275483,256.42141 330.96035,255.658335 C328.720513,254.358155 324.754564,252.291495 322.519294,250.990179 C321.535227,250.416738 321.003237,251.41146 321.674503,252.564021 C328.235329,263.838679 331.476357,269.449322 338.305461,280.695592 C339.27697,282.294415 339.243863,283.979539 338.222123,284.459867 C331.483207,287.625719 328.09377,289.208645 321.494129,292.409698 C320.773774,292.759441 321.225851,294.323063 322.213343,294.888556 C324.457746,296.173974 325.58908,296.816682 327.872298,298.106642 C329.213688,298.864039 330.52768,299.028691 331.51403,298.565396 Z" id="Stroke-41" stroke="#000000" stroke-width="2" stroke-linecap="round" stroke-linejoin="round"></path>
                <path d="M272.016117,263.350742 C265.594568,252.347476 262.288468,246.815184 255.629464,235.792614 C254.64768,234.166537 254.64768,232.478007 255.627181,232.015847 C262.68689,228.68875 266.108292,226.955935 273.077813,223.50393 C274.007083,223.042905 275.269702,223.220048 276.582553,223.994478 C278.817823,225.312826 279.935458,225.971432 282.168445,227.288644 C283.149087,227.867764 283.630846,229.448419 282.932181,229.793619 C276.107643,233.170679 274.18974,234.870565 267.421142,238.188578 C266.457624,238.659822 266.461049,240.356301 267.42685,241.981241 C273.797027,252.693812 276.934168,258.05464 283.0589,268.717248 C283.726741,269.880028 281.817971,270.882699 280.867011,270.304716 C278.703662,268.99091 277.620275,268.331168 275.440944,267.007142 C274.160059,266.22817 272.927121,264.912093 272.016117,263.350742" id="Fill-43" fill="#FFFFFF"></path>
                <path d="M272.016117,263.350742 C265.594568,252.347476 262.288468,246.815184 255.629464,235.792614 C254.64768,234.166537 254.64768,232.478007 255.627181,232.015847 C262.68689,228.68875 266.108292,226.955935 273.077813,223.50393 C274.007083,223.042905 275.269702,223.220048 276.582553,223.994478 C278.817823,225.312826 279.935458,225.971432 282.168445,227.288644 C283.149087,227.867764 283.630846,229.448419 282.932181,229.793619 C276.107643,233.170679 274.18974,234.870565 267.421142,238.188578 C266.457624,238.659822 266.461049,240.356301 267.42685,241.981241 C273.797027,252.693812 276.934168,258.05464 283.0589,268.717248 C283.726741,269.880028 281.817971,270.882699 280.867011,270.304716 C278.703662,268.99091 277.620275,268.331168 275.440944,267.007142 C274.160059,266.22817 272.927121,264.912093 272.016117,263.350742 Z" id="Stroke-45" stroke="#000000" stroke-width="2" stroke-linecap="round" stroke-linejoin="round"></path>
                <path d="M164.365943,222.073619 L164.352244,67.2739014 C164.352244,63.7549001 162.432058,60.5141033 159.338298,58.8085402 L64.6327118,7.00121135 C62.2159258,5.67945678 59.5251538,5.95652561 57.4896653,7.25897621 L45.0210135,14.4082604 L52.499693,28.0981858 L54.2851693,27.008079 L54.2851693,159.973864 C54.2851693,163.446309 56.1562661,166.65304 59.1883792,168.376771 L138.510786,213.46291 L135.093951,219.115568 L149.961123,232.234323 L162.229993,225.312144 C162.446898,225.217896 162.652388,225.098665 162.84532,224.963537 C163.743766,224.341268 164.365943,223.317022 164.365943,222.073619" id="Fill-47" fill="#FFFFFF"></path>
                <path d="M164.365943,222.073619 L164.352244,67.2739014 C164.352244,63.7549001 162.432058,60.5141033 159.338298,58.8085402 L64.6327118,7.00121135 C62.2159258,5.67945678 59.5251538,5.95652561 57.4896653,7.25897621 L45.0210135,14.4082604 L52.499693,28.0981858 L54.2851693,27.008079 L54.2851693,159.973864 C54.2851693,163.446309 56.1562661,166.65304 59.1883792,168.376771 L138.510786,213.46291 L135.093951,219.115568 L149.961123,232.234323 L162.229993,225.312144 C162.446898,225.217896 162.652388,225.098665 162.84532,224.963537 C163.743766,224.341268 164.365943,223.317022 164.365943,222.073619 Z" id="Stroke-49" stroke="#000000" stroke-width="2" stroke-linejoin="round"></path>
                <path d="M147.368301,65.6213675 C150.462061,67.3269305 152.382247,70.5677274 152.383388,74.0867286 L152.395946,228.886446 C152.395946,231.598087 149.451737,233.297972 147.085182,231.952371 L47.2183822,175.190734 C44.1862692,173.467002 42.3151723,170.259136 42.3151723,166.786691 L42.3151723,19.8993331 C42.3151723,14.6168569 48.0095172,11.2681849 52.6627148,13.8140386 L147.368301,65.6213675 Z" id="Fill-51" fill="#FFFFFF"></path>
                <path d="M147.368301,65.6213675 C150.462061,67.3269305 152.382247,70.5677274 152.383388,74.0867286 L152.395946,228.886446 C152.395946,231.598087 149.451737,233.297972 147.085182,231.952371 L47.2183822,175.190734 C44.1862692,173.467002 42.3151723,170.259136 42.3151723,166.786691 L42.3151723,19.8993331 C42.3151723,14.6168569 48.0095172,11.2681849 52.6627148,13.8140386 L147.368301,65.6213675 Z" id="Stroke-53" stroke="#000000" stroke-width="2" stroke-linejoin="round"></path>
                <path d="M86.8842662,49.7816605 C88.55444,50.7025737 89.5910208,52.4524223 89.5910208,54.3510251 L89.5978704,137.903174 C89.5978704,139.36687 88.0087509,140.284377 86.7312906,139.558774 L32.8279462,108.921094 C31.1920207,107.991096 30.1828385,106.259416 30.1828385,104.384659 L30.1828385,25.1043663 C30.1828385,22.2530555 33.2549079,20.445295 35.767589,21.8192838 L86.8842662,49.7816605 Z" id="Fill-55" fill="#FFFFFF"></path>
                <path d="M86.8842662,49.7816605 C88.55444,50.7025737 89.5910208,52.4524223 89.5910208,54.3510251 L89.5978704,137.903174 C89.5978704,139.36687 88.0087509,140.284377 86.7312906,139.558774 L32.8279462,108.921094 C31.1920207,107.991096 30.1828385,106.259416 30.1828385,104.384659 L30.1828385,25.1043663 C30.1828385,22.2530555 33.2549079,20.445295 35.767589,21.8192838 L86.8842662,49.7816605 Z" id="Stroke-57" stroke="#000000" stroke-width="2" stroke-linejoin="round"></path>
                <path d="M157.270958,87.8805548 C158.941132,88.8026036 159.977713,90.5513167 159.977713,92.4499195 L159.984562,176.002069 C159.984562,177.4669 158.395443,178.383271 157.117983,177.657669 L103.21578,147.019988 C101.578713,146.08999 100.56953,144.35831 100.56953,142.484689 L100.56953,63.2032606 C100.56953,60.3519499 103.642741,58.5441893 106.154281,59.9181782 L157.270958,87.8805548 Z" id="Fill-59" fill="#FFFFFF"></path>
                <path d="M157.270958,87.8805548 C158.941132,88.8026036 159.977713,90.5513167 159.977713,92.4499195 L159.984562,176.002069 C159.984562,177.4669 158.395443,178.383271 157.117983,177.657669 L103.21578,147.019988 C101.578713,146.08999 100.56953,144.35831 100.56953,142.484689 L100.56953,63.2032606 C100.56953,60.3519499 103.642741,58.5441893 106.154281,59.9181782 L157.270958,87.8805548 Z" id="Stroke-61" stroke="#000000" stroke-width="2" stroke-linejoin="round"></path>
                <path d="M112.574917,167.815593 C115.093306,169.204344 116.655027,171.84104 116.655027,174.703706 L116.665302,184.437452 C116.665302,186.642647 114.270206,188.02572 112.344312,186.931071 L31.0880202,140.745742 C28.6198619,139.3445 27.0980973,136.735057 27.0980973,133.908728 L27.0980973,128.343505 C27.0980973,124.044396 31.730746,121.320264 35.5174625,123.391467 L112.574917,167.815593 Z" id="Fill-63" fill="#FFFFFF"></path>
                <path d="M112.574917,167.815593 C115.093306,169.204344 116.655027,171.84104 116.655027,174.703706 L116.665302,184.437452 C116.665302,186.642647 114.270206,188.02572 112.344312,186.931071 L31.0880202,140.745742 C28.6198619,139.3445 27.0980973,136.735057 27.0980973,133.908728 L27.0980973,128.343505 C27.0980973,124.044396 31.730746,121.320264 35.5174625,123.391467 L112.574917,167.815593 Z" id="Stroke-65" stroke="#000000" stroke-width="2" stroke-linejoin="round"></path>
                <path d="M154.215214,190.727936 C156.732461,192.116687 158.295324,194.753383 158.295324,197.616049 L158.305598,208.485323 C158.305598,210.690518 155.909361,212.073591 153.984609,210.978942 L127.745871,195.974076 C125.278855,194.571699 123.75709,191.962255 123.75709,189.135926 L123.75709,183.570703 C123.75709,179.27273 128.389739,176.547463 132.176455,178.618666 L154.215214,190.727936 Z" id="Fill-67" fill="#FFFFFF"></path>
                <path d="M154.215214,190.727936 C156.732461,192.116687 158.295324,194.753383 158.295324,197.616049 L158.305598,208.485323 C158.305598,210.690518 155.909361,212.073591 153.984609,210.978942 L127.745871,195.974076 C125.278855,194.571699 123.75709,191.962255 123.75709,189.135926 L123.75709,183.570703 C123.75709,179.27273 128.389739,176.547463 132.176455,178.618666 L154.215214,190.727936 Z" id="Stroke-69" stroke="#000000" stroke-width="2" stroke-linejoin="round"></path>
                <path d="M23.6147063,54.7850239 L23.6147063,68.0105184 C23.6147063,69.4128954 22.1477389,70.1214649 21.277833,69.1403687 L11.7305583,58.3619371 C10.9531226,57.4841739 11.3309952,55.963702 12.3949746,55.6911752 L21.9411077,53.2418414 C22.7995975,53.0215489 23.6147063,53.7721329 23.6147063,54.7850239" id="Fill-71" fill="#FFFFFF"></path>
                <path d="M23.6147063,54.7850239 L23.6147063,68.0105184 C23.6147063,69.4128954 22.1477389,70.1214649 21.277833,69.1403687 L11.7305583,58.3619371 C10.9531226,57.4841739 11.3309952,55.963702 12.3949746,55.6911752 L21.9411077,53.2418414 C22.7995975,53.0215489 23.6147063,53.7721329 23.6147063,54.7850239 Z" id="Stroke-73" stroke="#000000" stroke-width="2" stroke-linejoin="round"></path>
                <path d="M168.540464,147.581166 L168.540464,134.355671 C168.540464,132.953294 170.008573,132.244725 170.877337,133.225821 L180.424612,144.004253 C181.202048,144.882016 180.824175,146.402488 179.761337,146.675015 L170.214063,149.124348 C169.355573,149.344641 168.540464,148.594057 168.540464,147.581166" id="Fill-75" fill="#FFFFFF"></path>
                <path d="M168.540464,147.581166 L168.540464,134.355671 C168.540464,132.953294 170.008573,132.244725 170.877337,133.225821 L180.424612,144.004253 C181.202048,144.882016 180.824175,146.402488 179.761337,146.675015 L170.214063,149.124348 C169.355573,149.344641 168.540464,148.594057 168.540464,147.581166 Z" id="Stroke-77" stroke="#000000" stroke-width="2" stroke-linejoin="round"></path>
                <path d="M79.6316253,55.6189557 C80.9239265,56.3309317 81.7253359,57.6833455 81.7253359,59.1527188 L81.7310439,123.791514 C81.7310439,124.923635 80.5015312,125.63334 79.512898,125.071254 L37.813352,101.369378 C36.5473078,100.649453 35.7664474,99.3118015 35.7664474,97.8605968 L35.7664474,36.5273236 C35.7664474,34.3209927 38.143277,32.9231578 40.0862952,33.986012 L79.6316253,55.6189557 Z" id="Fill-79" fill="#9595EF"></path>
                <g id="Group-83" transform="translate(0.000000, 143.192350)">
                    <mask id="mask-2" fill="white">
                        <use xlink:href="#path-1"></use>
                    </mask>
                    <g id="Clip-82"></g>
                    <path d="M85.8362693,41.7171407 C88.1525937,42.9934742 89.5898792,45.4200975 89.5898792,48.0545224 L89.5978704,66.8361553 C89.6001537,69.7476491 86.4401804,71.5735781 83.8989591,70.1291865 L10.8679586,28.6199609 C8.59729865,27.3300011 7.19654461,24.929495 7.19654461,22.3291359 L7.19654461,5.85376032 C7.19654461,1.89985187 11.459312,-0.60739392 14.9423606,1.29802204 L85.8362693,41.7171407 Z" id="Fill-81" stroke="#000000" stroke-width="2" fill="#FFFFFF" stroke-linecap="round" stroke-linejoin="round" stroke-dasharray="5,6" mask="url(#mask-2)"></path>
                </g>
            </g>
        </g>
    </g>
</svg>