<svg width="224" height="160" viewBox="0 0 224 160" fill="none" xmlns="http://www.w3.org/2000/svg">
<path opacity="0.57" fill-rule="evenodd" clip-rule="evenodd" d="M144.348 58.9804C174.509 80.7266 214.616 66.6005 211.866 105.205C209.115 143.81 168.908 154.976 78.3161 153.934C-12.2758 152.893 -8.37324 103.387 12.0086 76.0677C22.1998 62.4076 47.9858 37.384 74.9684 32.6904C101.951 27.9974 129.652 48.3843 144.348 58.9804Z" fill="#9595EF"/>
<path fill-rule="evenodd" clip-rule="evenodd" d="M222 82.9176H209.302L121.097 33.6684C117.101 31.4375 112.179 31.4446 108.191 33.6854L55.7383 63.1603H41V75.0867C41.0048 77.2097 42.0956 79.3309 44.2693 80.5396L140.999 134.342C144.932 136.529 149.764 136.554 153.72 134.406L218.672 99.1491C220.475 98.1703 221.534 96.5648 221.872 94.8439H222V82.9176Z" fill="white"/>
<path fill-rule="evenodd" clip-rule="evenodd" d="M222 82.9176H209.302L121.097 33.6684C117.101 31.4375 112.179 31.4446 108.191 33.6854L55.7383 63.1603H41V75.0867C41.0048 77.2097 42.0956 79.3309 44.2693 80.5396L140.999 134.342C144.932 136.529 149.764 136.554 153.72 134.406L218.672 99.1491C220.475 98.1703 221.534 96.5648 221.872 94.8439H222V82.9176Z" stroke="black" stroke-width="2" stroke-linejoin="round"/>
<path fill-rule="evenodd" clip-rule="evenodd" d="M108.191 21.6857L44.2444 57.6193C39.9074 60.0559 39.9214 66.1219 44.2693 68.5397L140.999 122.342C144.932 124.529 149.764 124.554 153.72 122.406L218.672 87.1498C223.079 84.7572 223.117 78.6314 218.74 76.1872L121.097 21.6681C117.101 19.4378 112.179 19.4443 108.191 21.6857Z" fill="white"/>
<path fill-rule="evenodd" clip-rule="evenodd" d="M108.191 21.6857L44.2444 57.6193C39.9074 60.0559 39.9214 66.1219 44.2693 68.5397L140.999 122.342C144.932 124.529 149.764 124.554 153.72 122.406L218.672 87.1498C223.079 84.7572 223.117 78.6314 218.74 76.1872L121.097 21.6681C117.101 19.4378 112.179 19.4443 108.191 21.6857Z" stroke="black" stroke-width="2" stroke-linejoin="round"/>
<path fill-rule="evenodd" clip-rule="evenodd" d="M90.9024 97.7595C87.5294 95.8872 84.0723 95.4723 82.7629 96.6924L63 107.141L74.2637 116L94.4479 105.328C95.0429 105.162 95.5007 104.868 95.761 104.434C96.751 102.786 94.5753 99.7983 90.9024 97.7595Z" fill="white"/>
<path fill-rule="evenodd" clip-rule="evenodd" d="M90.9024 97.7595C87.5294 95.8872 84.0723 95.4723 82.7629 96.6924L63 107.141L74.2637 116L94.4479 105.328C95.0429 105.162 95.5007 104.868 95.761 104.434C96.751 102.786 94.5753 99.7983 90.9024 97.7595Z" stroke="black" stroke-width="2" stroke-linejoin="round"/>
<path fill-rule="evenodd" clip-rule="evenodd" d="M84 110.837H73.1864V113.241L64.5058 108.338C63.9753 108.038 63.3999 107.852 62.8136 107.774V104H52V114H52.0273C52.1152 114.617 52.4572 115.203 53.0665 115.567L71.1304 126.336C72.5607 127.189 74.3287 127.222 75.7899 126.425L82.8626 122.562C83.5525 122.186 83.9248 121.524 83.9873 120.837H84V110.837Z" fill="white"/>
<path fill-rule="evenodd" clip-rule="evenodd" d="M84 110.837H73.1864V113.241L64.5058 108.338C63.9753 108.038 63.3999 107.852 62.8136 107.774V104H52V114H52.0273C52.1152 114.617 52.4572 115.203 53.0665 115.567L71.1304 126.336C72.5607 127.189 74.3287 127.222 75.7899 126.425L82.8626 122.562C83.5525 122.186 83.9248 121.524 83.9873 120.837H84V110.837Z" stroke="black" stroke-width="2" stroke-linejoin="round"/>
<path fill-rule="evenodd" clip-rule="evenodd" d="M60.0711 97.4743L53.1967 100.728C51.6615 101.455 51.5876 103.496 53.0664 104.32L71.1303 114.379C72.5612 115.177 74.3292 115.207 75.7904 114.462L82.8624 110.854C84.3667 110.087 84.3825 108.055 82.8897 107.267L64.5057 97.5681C63.1354 96.8452 61.4747 96.8103 60.0711 97.4743Z" fill="white"/>
<path fill-rule="evenodd" clip-rule="evenodd" d="M60.0711 97.4743L53.1967 100.728C51.6615 101.455 51.5876 103.496 53.0664 104.32L71.1303 114.379C72.5612 115.177 74.3292 115.207 75.7904 114.462L82.8624 110.854C84.3667 110.087 84.3824 108.055 82.8897 107.267L64.5057 97.5681C63.1354 96.8452 61.4747 96.8103 60.0711 97.4743Z" stroke="black" stroke-width="2" stroke-linejoin="round"/>
<path fill-rule="evenodd" clip-rule="evenodd" d="M157.882 43.3134L199.222 66.2596C200.144 66.7774 200.309 67.7887 199.378 68.2918L146.607 99.0196C144.173 100.335 141.22 100.326 138.795 98.9966L100.697 78.1079C99.7752 77.6025 99.7656 76.303 100.681 75.7852L156.071 43.3181C156.817 42.8954 157.134 42.8942 157.882 43.3134Z" fill="#9595EF"/>
<path fill-rule="evenodd" clip-rule="evenodd" d="M147.71 18.8669L76.6069 58.6636C71.7855 61.3622 71.8007 68.0796 76.6348 70.7583L121.934 95.1642C126.307 97.5861 131.679 97.6136 136.078 95.235L208.299 56.1879C213.199 53.5384 213.242 46.7538 208.376 44.0475L162.06 18.8476C157.618 16.3771 152.145 16.3847 147.71 18.8669Z" fill="white"/>
<path fill-rule="evenodd" clip-rule="evenodd" d="M147.71 18.8669L76.6069 58.6636C71.7855 61.3622 71.8007 68.0796 76.6348 70.7583L121.934 95.1642C126.307 97.5861 131.679 97.6136 136.078 95.235L208.299 56.1879C213.199 53.5384 213.242 46.7538 208.376 44.0475L162.06 18.8476C157.618 16.3771 152.145 16.3847 147.71 18.8669Z" stroke="black" stroke-width="2" stroke-linejoin="round"/>
<path fill-rule="evenodd" clip-rule="evenodd" d="M185.972 57.6876V50L181.501 54.6867V57.0292C179.813 57.1356 178.434 57.2176 176.298 57.3412C174.831 57.4267 173.466 58.1083 173.257 58.8678C172.731 60.7759 172.339 62.2056 171.959 63.6371L149.694 66.304L145.022 68.6548V76.7186C144.829 77.5089 145.918 78.08 147.441 77.9908C157.871 77.3835 168.307 76.7174 178.702 75.6757C180.103 75.5372 181.362 74.7992 181.537 74.0404C183.029 67.5596 183.976 64.4322 185.972 58.0638C186.014 57.9295 186.004 57.8059 185.972 57.6876Z" fill="white"/>
<path fill-rule="evenodd" clip-rule="evenodd" d="M185.972 57.6876V50L181.501 54.6867V57.0292C179.813 57.1356 178.434 57.2176 176.298 57.3412C174.831 57.4267 173.466 58.1083 173.257 58.8678C172.731 60.7759 172.339 62.2056 171.959 63.6371L149.694 66.304L145.022 68.6548V76.7186C144.829 77.5089 145.918 78.08 147.441 77.9908C157.871 77.3835 168.307 76.7174 178.702 75.6757C180.103 75.5372 181.362 74.7992 181.537 74.0404C183.029 67.5596 183.976 64.4322 185.972 58.0638C186.014 57.9295 186.004 57.8059 185.972 57.6876Z" stroke="black" stroke-width="2" stroke-linejoin="round"/>
<path fill-rule="evenodd" clip-rule="evenodd" d="M182.991 50.9431V43.1129L116.759 51.2795C117.785 48.0026 118.319 46.129 119.284 42.6715C119.491 41.9288 120.761 41.2624 122.127 41.1827C129.01 40.7829 132.485 40.6057 139.601 40.248C141.014 40.177 142.319 39.5047 142.512 38.7436C142.907 37.1874 143.107 36.4055 143.529 34.8303C143.563 34.7068 143.518 34.0455 143.529 33.8787V27L116.695 29.5683L110.332 36.1014C109.869 36.3651 109.529 36.6935 109.422 37.0368C108.742 39.211 108.184 41.0096 107.638 42.7147L104 46.0003L104.053 52.9587C103.763 53.7267 104.696 54.2593 106.139 54.1514C106.458 54.1277 106.753 54.1052 107.041 54.0845V60.3077C107.175 61.8247 107.24 62.5858 107.368 64.1115C107.429 64.8449 108.746 65.1911 110.293 64.8933C133.66 60.5097 157.148 56.755 180.575 52.6736C182.031 52.418 183.113 51.6442 182.991 50.9431Z" fill="white"/>
<path fill-rule="evenodd" clip-rule="evenodd" d="M182.991 50.9431V43.1129L116.759 51.2795C117.785 48.0026 118.319 46.129 119.284 42.6715C119.491 41.9288 120.761 41.2624 122.127 41.1827C129.01 40.7829 132.485 40.6057 139.601 40.248C141.014 40.177 142.319 39.5047 142.512 38.7436C142.907 37.1874 143.107 36.4055 143.529 34.8303C143.563 34.7068 143.518 34.0455 143.529 33.8787V27L116.695 29.5683L110.332 36.1014C109.869 36.3651 109.529 36.6935 109.422 37.0368C108.742 39.211 108.184 41.0096 107.638 42.7147L104 46.0003L104.053 52.9587C103.763 53.7267 104.696 54.2593 106.139 54.1514C106.458 54.1277 106.753 54.1052 107.041 54.0845V60.3077C107.175 61.8247 107.24 62.5858 107.368 64.1115C107.429 64.8449 108.746 65.1911 110.293 64.8933C133.66 60.5097 157.148 56.755 180.575 52.6736C182.031 52.418 183.113 51.6442 182.991 50.9431Z" stroke="black" stroke-width="2" stroke-linejoin="round"/>
<path fill-rule="evenodd" clip-rule="evenodd" d="M141.742 25.0094C131.929 25.6323 122.119 26.2828 112.312 26.9975C110.977 27.0988 109.712 27.7823 109.482 28.5241C107.522 34.8524 106.555 38.0833 104.053 44.7689C103.76 45.5531 104.704 46.0959 106.163 45.9858C109.146 45.7609 110.628 45.6591 113.581 45.4689C115.026 45.3765 116.395 44.6771 116.637 43.9047C117.856 40.0102 118.4 38.0898 119.455 34.273C119.665 33.5159 120.948 32.8354 122.33 32.7541C129.29 32.3461 132.804 32.166 140 31.8004C141.428 31.728 142.749 31.0427 142.944 30.2656C143.342 28.6778 143.545 27.88 143.973 26.2728C144.181 25.4874 143.18 24.9193 141.742 25.0094Z" fill="white"/>
<path fill-rule="evenodd" clip-rule="evenodd" d="M141.742 25.0094C131.929 25.6323 122.119 26.2828 112.312 26.9975C110.977 27.0988 109.712 27.7823 109.482 28.5241C107.522 34.8524 106.555 38.0833 104.053 44.7689C103.76 45.5531 104.704 46.0959 106.163 45.9858C109.146 45.7609 110.628 45.6591 113.581 45.4689C115.026 45.3765 116.395 44.6771 116.637 43.9047C117.856 40.0102 118.4 38.0898 119.455 34.273C119.665 33.5159 120.948 32.8354 122.33 32.7541C129.29 32.3461 132.804 32.166 140 31.8004C141.428 31.728 142.749 31.0427 142.944 30.2656C143.342 28.6778 143.545 27.88 143.973 26.2728C144.181 25.4874 143.18 24.9193 141.742 25.0094Z" stroke="black" stroke-width="2" stroke-linejoin="round"/>
<path fill-rule="evenodd" clip-rule="evenodd" d="M183.763 49.0108C180.789 49.2016 179.292 49.2925 176.293 49.465C174.826 49.5495 173.462 50.2276 173.253 50.9818C172.198 54.784 171.683 56.676 170.718 60.5006C170.527 61.259 169.202 61.9602 167.747 62.0588C161.543 62.4829 155.332 62.842 149.121 63.1663C147.62 63.2467 146.234 63.9419 146.033 64.7228C145.622 66.3194 145.418 67.1197 145.022 68.7258C144.829 69.512 145.919 70.079 147.441 69.991C157.869 69.3873 168.303 68.7252 178.696 67.6897C180.097 67.5515 181.356 66.8185 181.531 66.0636C183.023 59.6223 183.97 56.5135 185.966 50.1833C186.199 49.4414 185.218 48.9174 183.763 49.0108Z" fill="white"/>
<path fill-rule="evenodd" clip-rule="evenodd" d="M183.763 49.0108C180.789 49.2016 179.292 49.2925 176.293 49.465C174.826 49.5495 173.462 50.2276 173.253 50.9818C172.198 54.784 171.683 56.676 170.718 60.5006C170.527 61.259 169.202 61.9602 167.747 62.0588C161.543 62.4829 155.332 62.842 149.121 63.1663C147.62 63.2467 146.234 63.9419 146.033 64.7228C145.622 66.3194 145.418 67.1197 145.022 68.7258C144.829 69.512 145.919 70.079 147.441 69.991C157.869 69.3873 168.303 68.7252 178.696 67.6897C180.097 67.5515 181.356 66.8185 181.531 66.0636C183.023 59.6223 183.97 56.5135 185.966 50.1833C186.199 49.4414 185.218 48.9174 183.763 49.0108Z" stroke="black" stroke-width="2" stroke-linejoin="round"/>
<path fill-rule="evenodd" clip-rule="evenodd" d="M107.334 57.0949C107.205 55.5408 107.14 54.7655 107.003 53.2202C106.937 52.4779 108.124 51.6309 109.639 51.337C133.152 46.891 156.79 43.0939 180.386 39.0805C181.9 38.8224 183.228 39.2057 183.35 39.9334C183.603 41.4463 183.732 42.1951 183.99 43.6811C184.115 44.3952 183.018 45.1829 181.541 45.4432C157.795 49.6006 133.986 53.4259 110.3 57.8913C108.732 58.1946 107.397 57.842 107.334 57.0949Z" fill="white"/>
<path fill-rule="evenodd" clip-rule="evenodd" d="M107.334 57.0949C107.205 55.5408 107.14 54.7655 107.003 53.2202C106.937 52.4779 108.124 51.6309 109.639 51.337C133.152 46.891 156.79 43.0939 180.386 39.0805C181.9 38.8224 183.228 39.2057 183.35 39.9334C183.603 41.4463 183.732 42.1951 183.99 43.6811C184.115 44.3952 183.018 45.1829 181.541 45.4432C157.795 49.6006 133.986 53.4259 110.3 57.8913C108.732 58.1946 107.397 57.842 107.334 57.0949Z" stroke="black" stroke-width="2" stroke-linejoin="round"/>
</svg>
