<svg width="140" height="140" viewBox="0 0 140 140" fill="none" xmlns="http://www.w3.org/2000/svg">
<g clip-path="url(#clip0)">
<path fill-rule="evenodd" clip-rule="evenodd" d="M68.9439 92.2109C69.0672 95.1337 69.1291 96.5947 69.2531 99.5174C68.4118 99.9911 67.9922 100.228 67.156 100.698C64.4476 102.224 63.2716 103.97 63.4026 108.063C63.7474 118.815 64.0915 129.565 64.4362 140.318C64.5673 144.411 65.972 144.679 68.8399 143.009C69.7247 142.494 70.1635 142.238 71.0361 141.729C71.1593 144.651 71.2213 146.113 71.3445 149.035C70.239 149.683 69.6805 150.01 68.55 150.671C61.9787 154.773 54.4371 155.084 55.0048 144.97V112.812C54.9115 104.18 58.7582 97.7772 66.3296 93.6748C67.3682 93.0935 67.8911 92.8008 68.9439 92.2109Z" fill="white"/>
<path fill-rule="evenodd" clip-rule="evenodd" d="M68.9439 92.2109C69.0672 95.1337 69.1291 96.5947 69.2531 99.5174C68.4118 99.9911 67.9922 100.228 67.156 100.698C64.4476 102.224 63.2716 103.97 63.4026 108.063C63.7474 118.815 64.0915 129.565 64.4362 140.318C64.5673 144.411 65.972 144.679 68.8399 143.009C69.7247 142.494 70.1635 142.238 71.0361 141.729C71.1593 144.651 71.2213 146.113 71.3445 149.035C70.239 149.683 69.6805 150.01 68.55 150.671C61.9787 154.773 54.4371 155.084 55.0048 144.97V112.812C54.9115 104.18 58.7582 97.7772 66.3296 93.6748C67.3682 93.0935 67.8911 92.8008 68.9439 92.2109Z" stroke="black" stroke-width="0.953206" stroke-linejoin="round"/>
<path fill-rule="evenodd" clip-rule="evenodd" d="M102.703 72.9629C99.7557 83.9714 96.8664 94.9935 94.0733 106.043C97.3814 114.08 100.519 122.172 103.533 130.325C100.172 132.24 98.5119 133.194 95.1596 135.131C92.8645 128.858 90.4304 122.635 87.908 116.451C85.8472 125.255 83.832 134.069 81.8374 142.889C78.7166 144.715 77.1281 145.647 73.8407 147.572C76.6516 136.014 79.3984 124.439 82.1986 112.877C78.8271 105.404 75.3879 97.964 71.9814 90.5086C75.5538 88.5033 77.3753 87.4797 81.0346 85.4111C83.515 91.1127 85.9569 96.8271 88.3461 102.569C90.3698 94.2619 92.4449 85.971 94.5698 77.69C97.8494 75.7994 99.4836 74.8506 102.703 72.9629Z" fill="white"/>
<path fill-rule="evenodd" clip-rule="evenodd" d="M102.703 72.9629C99.7557 83.9714 96.8664 94.9935 94.0733 106.043C97.3814 114.08 100.519 122.172 103.533 130.325C100.172 132.24 98.5119 133.194 95.1596 135.131C92.8645 128.858 90.4304 122.635 87.908 116.451C85.8472 125.255 83.832 134.069 81.8374 142.889C78.7166 144.715 77.1281 145.647 73.8407 147.572C76.6516 136.014 79.3984 124.439 82.1986 112.877C78.8271 105.404 75.3879 97.964 71.9814 90.5086C75.5538 88.5033 77.3753 87.4797 81.0346 85.4111C83.515 91.1127 85.9569 96.8271 88.3461 102.569C90.3698 94.2619 92.4449 85.971 94.5698 77.69C97.8494 75.7994 99.4836 74.8506 102.703 72.9629Z" stroke="black" stroke-width="0.953206" stroke-linejoin="round"/>
<path fill-rule="evenodd" clip-rule="evenodd" d="M108.403 69.594C115.387 65.0592 120.263 66.5195 119.884 75.4217V108.383C119.992 117.073 115.804 123.503 108.269 127.64C107.271 128.203 106.775 128.484 105.784 129.045C105.782 126.068 105.782 124.58 105.781 121.603C106.575 121.15 106.973 120.925 107.769 120.471C110.352 119.003 111.556 117.247 111.574 113.087C111.621 102.161 111.668 91.2342 111.714 80.3083C111.733 76.1483 110.537 75.7864 107.849 77.3749C107.019 77.865 106.602 78.1108 105.767 78.6023C105.766 75.6254 105.765 74.1366 105.765 71.1597C106.825 70.5322 107.354 70.2194 108.403 69.594Z" fill="white"/>
<path fill-rule="evenodd" clip-rule="evenodd" d="M108.403 69.594C115.387 65.0592 120.263 66.5195 119.884 75.4217V108.383C119.992 117.073 115.804 123.503 108.269 127.64C107.271 128.203 106.775 128.484 105.784 129.045C105.782 126.068 105.782 124.58 105.781 121.603C106.575 121.15 106.973 120.925 107.769 120.471C110.352 119.003 111.556 117.247 111.574 113.087C111.621 102.161 111.668 91.2342 111.714 80.3083C111.733 76.1483 110.537 75.7864 107.849 77.3749C107.019 77.865 106.602 78.1108 105.767 78.6023C105.766 75.6254 105.765 74.1366 105.765 71.1597C106.825 70.5322 107.354 70.2194 108.403 69.594Z" stroke="black" stroke-width="0.953206" stroke-linejoin="round"/>
<path fill-rule="evenodd" clip-rule="evenodd" d="M89.936 157.062L73.8407 147.572L71.9814 112.057V90.5078L88.0768 99.9976L98.2932 122.367L89.936 157.062Z" fill="white"/>
<path fill-rule="evenodd" clip-rule="evenodd" d="M89.936 157.062L73.8407 147.572L71.9814 112.057V90.5078L88.0768 99.9976L98.2932 122.367L89.936 157.062Z" stroke="black" stroke-width="0.953206" stroke-linejoin="round"/>
<path fill-rule="evenodd" clip-rule="evenodd" d="M121.879 138.536L105.783 127.661C105.783 127.661 105.399 118.378 105.783 115.068C106.168 111.758 105.783 74.8029 105.783 74.8029L120.831 72.9629L131.858 84.215V116.305L130.303 127.661L121.879 138.536Z" fill="white"/>
<path fill-rule="evenodd" clip-rule="evenodd" d="M121.879 138.536L105.783 127.661C105.783 127.661 105.399 118.378 105.783 115.068C106.168 111.758 105.783 74.8029 105.783 74.8029L120.831 72.9629L131.858 84.215V116.305L130.303 127.661L121.879 138.536Z" stroke="black" stroke-width="0.953206" stroke-linejoin="round"/>
<path fill-rule="evenodd" clip-rule="evenodd" d="M94.5684 77.6904L110.664 87.1803L104.439 112.058L89.1133 102.271L90.897 92.2115L94.5684 77.6904Z" fill="white"/>
<path fill-rule="evenodd" clip-rule="evenodd" d="M94.5684 77.6904L110.664 87.1803L104.439 112.058L89.1133 102.271L90.897 92.2115L94.5684 77.6904Z" stroke="black" stroke-width="0.953206" stroke-linejoin="round"/>
<path fill-rule="evenodd" clip-rule="evenodd" d="M105.765 71.1601L121.86 80.6499L132.852 76.9023L116.578 67.213C116.288 67.0413 115.455 67.01 114.824 66.995C113.811 66.9715 112.668 67.4146 110.664 68.3C108.93 69.0658 105.765 71.1601 105.765 71.1601Z" fill="white"/>
<path fill-rule="evenodd" clip-rule="evenodd" d="M105.765 71.1601L121.86 80.6499L132.852 76.9023L116.578 67.213C116.288 67.0413 115.455 67.01 114.824 66.995C113.811 66.9715 112.668 67.4146 110.664 68.3C108.93 69.0658 105.765 71.1601 105.765 71.1601Z" stroke="black" stroke-width="0.953206" stroke-linejoin="round"/>
<path fill-rule="evenodd" clip-rule="evenodd" d="M121.862 88.0925L105.767 78.0606L105.765 71.1602L121.86 80.6507L121.862 88.0925Z" fill="white"/>
<path fill-rule="evenodd" clip-rule="evenodd" d="M121.862 88.0925L105.767 78.0606L105.765 71.1602L121.86 80.6507L121.862 88.0925Z" stroke="black" stroke-width="0.953206" stroke-linejoin="round"/>
<path fill-rule="evenodd" clip-rule="evenodd" d="M121.877 131.093L111.704 126.275V135.015L121.88 138.536L121.877 131.093Z" fill="white"/>
<path fill-rule="evenodd" clip-rule="evenodd" d="M121.877 131.093L111.704 126.275V135.015L121.88 138.536L121.877 131.093Z" stroke="black" stroke-width="0.953206" stroke-linejoin="round"/>
<path fill-rule="evenodd" clip-rule="evenodd" d="M85.0383 101.701L68.9429 92.2109C68.9429 92.2109 56.6536 97.5435 55.3956 106.686C54.3812 114.056 54.9739 147.802 54.9739 147.802C54.9739 147.802 54.9739 153.452 62.3808 156.887C68.5119 159.73 75.6909 163.111 75.6909 163.111L76.9126 116.459L85.0383 101.701Z" fill="white"/>
<path fill-rule="evenodd" clip-rule="evenodd" d="M85.0383 101.701L68.9429 92.2109C68.9429 92.2109 56.6536 97.5435 55.3956 106.686C54.3812 114.056 54.9739 147.802 54.9739 147.802C54.9739 147.802 54.9739 153.452 62.3808 156.887C68.5119 159.73 75.6909 163.111 75.6909 163.111L76.9126 116.459L85.0383 101.701Z" stroke="black" stroke-width="0.953206" stroke-linejoin="round"/>
<path fill-rule="evenodd" clip-rule="evenodd" d="M85.0387 101.701C85.1619 104.624 85.2239 106.084 85.3478 109.007C84.5065 109.481 84.087 109.718 83.2507 110.188C80.5424 111.714 79.3663 113.46 79.4974 117.553C79.8421 128.304 80.1862 139.056 80.531 149.807C80.662 153.901 82.0668 154.169 84.9347 152.499C85.8194 151.983 86.2582 151.728 87.1308 151.22C87.254 154.142 87.316 155.603 87.4393 158.525C86.3337 159.173 85.7752 159.5 84.6447 160.161C78.0734 164.263 70.5318 165.379 71.0995 155.264V122.302C71.0062 113.67 74.8529 107.267 82.4244 103.165C83.463 102.583 83.9858 102.29 85.0387 101.701Z" fill="white"/>
<path fill-rule="evenodd" clip-rule="evenodd" d="M85.0387 101.701C85.1619 104.624 85.2239 106.084 85.3478 109.007C84.5065 109.481 84.087 109.718 83.2507 110.188C80.5424 111.714 79.3663 113.46 79.4974 117.553C79.8421 128.304 80.1862 139.056 80.531 149.807C80.662 153.901 82.0668 154.169 84.9347 152.499C85.8194 151.983 86.2582 151.728 87.1308 151.22C87.254 154.142 87.316 155.603 87.4393 158.525C86.3337 159.173 85.7752 159.5 84.6447 160.161C78.0734 164.263 70.5318 165.379 71.0995 155.264V122.302C71.0062 113.67 74.8529 107.267 82.4244 103.165C83.463 102.583 83.9858 102.29 85.0387 101.701Z" stroke="black" stroke-width="0.953206" stroke-linejoin="round"/>
<path fill-rule="evenodd" clip-rule="evenodd" d="M118.798 82.4531C115.85 93.4609 112.961 104.484 110.168 115.532C113.476 123.57 116.614 131.662 119.628 139.815C116.266 141.73 114.607 142.685 111.254 144.621C108.959 138.348 106.525 132.125 104.003 125.941C101.942 134.745 99.9267 143.559 97.9321 152.379C94.8114 154.205 93.2228 155.137 89.9354 157.062C92.7463 145.503 95.4931 133.929 98.2933 122.367C94.9218 114.895 91.4826 107.454 88.0762 99.9981C91.6486 97.9936 93.47 96.9699 97.1293 94.9013C99.6097 100.603 102.052 106.317 104.441 112.058C106.465 103.752 108.54 95.4612 110.665 87.1802C113.944 85.2897 115.578 84.3408 118.798 82.4531Z" fill="#9595EF"/>
<path fill-rule="evenodd" clip-rule="evenodd" d="M118.798 82.4531C115.85 93.461 112.961 104.484 110.168 115.532C113.476 123.57 116.614 131.662 119.628 139.815C116.266 141.73 114.607 142.685 111.254 144.621C108.959 138.348 106.525 132.125 104.003 125.941C101.942 134.745 99.9267 143.559 97.9321 152.379C94.8114 154.205 93.2228 155.137 89.9354 157.062C92.7463 145.503 95.4931 133.929 98.2933 122.367C94.9218 114.895 91.4826 107.454 88.0762 99.9981C91.6486 97.9936 93.47 96.9699 97.1293 94.9013C99.6097 100.603 102.052 106.317 104.441 112.058C106.465 103.752 108.54 95.4612 110.665 87.1802C113.944 85.2897 115.578 84.3408 118.798 82.4531Z" stroke="black" stroke-width="0.953206" stroke-linejoin="round"/>
<path fill-rule="evenodd" clip-rule="evenodd" d="M124.498 79.0843C131.482 74.5495 136.358 76.0098 135.979 84.9112V117.873C136.087 126.563 131.899 132.992 124.364 137.13C123.366 137.693 122.869 137.974 121.879 138.536C121.877 135.558 121.877 134.07 121.876 131.093C122.67 130.641 123.068 130.414 123.864 129.961C126.447 128.493 127.651 126.737 127.669 122.577C127.716 111.651 127.763 100.725 127.809 89.7986C127.827 85.6385 126.632 85.276 123.944 86.8652C123.114 87.3553 122.697 87.601 121.862 88.0926C121.861 85.1157 121.86 83.6269 121.859 80.65C122.92 80.0224 123.449 79.7097 124.498 79.0843Z" fill="white"/>
<path fill-rule="evenodd" clip-rule="evenodd" d="M124.498 79.0843C131.482 74.5495 136.358 76.0098 135.979 84.9112V117.873C136.087 126.563 131.899 132.992 124.364 137.13C123.366 137.693 122.869 137.974 121.879 138.536C121.877 135.558 121.877 134.07 121.876 131.093C122.67 130.641 123.068 130.414 123.864 129.961C126.447 128.493 127.651 126.737 127.669 122.577C127.716 111.651 127.763 100.725 127.809 89.7986C127.827 85.6385 126.632 85.276 123.944 86.8652C123.114 87.3553 122.697 87.601 121.862 88.0926C121.861 85.1157 121.86 83.6269 121.859 80.65C122.92 80.0224 123.449 79.7097 124.498 79.0843Z" stroke="black" stroke-width="0.953206" stroke-linejoin="round"/>
<path fill-rule="evenodd" clip-rule="evenodd" d="M81.0346 85.4102L97.13 94.9L88.0768 99.9975L71.9814 90.5077L81.0346 85.4102Z" fill="white"/>
<path fill-rule="evenodd" clip-rule="evenodd" d="M81.0346 85.4102L97.13 94.9L88.0768 99.9975L71.9814 90.5077L81.0346 85.4102Z" stroke="black" stroke-width="0.953206" stroke-linejoin="round"/>
<path fill-rule="evenodd" clip-rule="evenodd" d="M102.729 73.001L118.824 82.4908L110.665 87.1794L94.5693 77.6896L102.729 73.001Z" fill="white"/>
<path fill-rule="evenodd" clip-rule="evenodd" d="M102.729 73.001L118.824 82.4908L110.665 87.1794L94.5693 77.6896L102.729 73.001Z" stroke="black" stroke-width="0.953206" stroke-linejoin="round"/>
<path fill-rule="evenodd" clip-rule="evenodd" d="M29.5438 102.769C35.4648 106.297 41.3979 109.809 47.3566 113.272C47.3566 119.181 47.3566 122.136 47.3573 128.044C41.4434 124.549 35.5431 121.033 29.6342 117.529C29.7219 131.748 29.8088 145.967 29.8964 160.185C24.3643 156.949 21.5299 155.334 14.9521 151.759V48C27.2315 55.7104 39.6298 63.1843 52.3872 70.0826V84.9057C44.6276 80.6224 36.9521 76.1874 29.3521 71.6255C29.4163 82.0072 29.4797 92.3882 29.5438 102.769Z" fill="white"/>
<path fill-rule="evenodd" clip-rule="evenodd" d="M29.5438 102.769C35.4648 106.297 41.3979 109.809 47.3566 113.272C47.3566 119.181 47.3566 122.136 47.3573 128.044C41.4434 124.549 35.5431 121.033 29.6342 117.529C29.7219 131.748 29.8088 145.967 29.8964 160.185C24.3643 156.949 21.5299 155.334 14.9521 151.759V48C27.2315 55.7104 39.6298 63.1843 52.3872 70.0826V84.9057C44.6276 80.6224 36.9521 76.1874 29.3521 71.6255C29.4163 82.0072 29.4797 92.3882 29.5438 102.769Z" stroke="black" stroke-width="0.953206" stroke-linejoin="round"/>
<path fill-rule="evenodd" clip-rule="evenodd" d="M18.9439 166.44L29.8969 160.185V124.043L13.8457 116.464V163.482L18.9439 166.44Z" fill="white"/>
<path fill-rule="evenodd" clip-rule="evenodd" d="M18.9439 166.44L29.8969 160.185V124.043L13.8457 116.464V163.482L18.9439 166.44Z" stroke="black" stroke-width="0.953206" stroke-linejoin="round"/>
<path fill-rule="evenodd" clip-rule="evenodd" d="M36.4049 134.299L47.3578 128.045L47.3571 113.272L29.5443 102.769V81.7231L13.8457 73.2412V93.315L15.6372 112.81L36.4049 134.299Z" fill="white"/>
<path fill-rule="evenodd" clip-rule="evenodd" d="M36.4049 134.299L47.3578 128.045L47.3571 113.272L29.5443 102.769V81.7231L13.8457 73.2412V93.315L15.6372 112.81L36.4049 134.299Z" stroke="black" stroke-width="0.953206" stroke-linejoin="round"/>
<path fill-rule="evenodd" clip-rule="evenodd" d="M4 54.2551L14.9523 48L52.388 70.0826V84.905L41.4357 91.1608L9.89748 69.5804L4 54.2551Z" fill="white"/>
<path fill-rule="evenodd" clip-rule="evenodd" d="M4 54.2551L14.9523 48L52.388 70.0826V84.905L41.4357 91.1608L9.89748 69.5804L4 54.2551Z" stroke="black" stroke-width="0.953206" stroke-linecap="round" stroke-linejoin="round"/>
<path fill-rule="evenodd" clip-rule="evenodd" d="M18.5909 109.024C24.5119 112.553 30.445 116.064 36.4037 119.527C36.4037 125.436 36.4044 128.391 36.4044 134.299C30.4906 130.804 24.5903 127.288 18.6821 123.784C18.769 138.003 18.8566 152.222 18.9435 166.44C13.4122 163.204 10.5778 161.589 4 158.015V54.2559C16.2786 61.9655 28.677 69.4394 41.435 76.3385V91.1616C33.6755 86.8776 25.9993 82.4425 18.3993 77.8807C18.4634 88.2624 18.5275 98.6433 18.5909 109.024Z" fill="#9595EF"/>
<path fill-rule="evenodd" clip-rule="evenodd" d="M18.5909 109.024C24.5119 112.553 30.445 116.064 36.4037 119.527C36.4037 125.436 36.4044 128.391 36.4044 134.299C30.4906 130.804 24.5903 127.288 18.6821 123.784C18.769 138.003 18.8566 152.222 18.9435 166.441C13.4122 163.204 10.5778 161.589 4 158.015V54.2559C16.2786 61.9655 28.677 69.4394 41.435 76.3385V91.1616C33.6755 86.8776 25.9993 82.4425 18.3993 77.8807C18.4634 88.2624 18.5275 98.6433 18.5909 109.024Z" stroke="black" stroke-width="0.953206" stroke-linejoin="round"/>
<path fill-rule="evenodd" clip-rule="evenodd" d="M38.6787 118.114L44.2941 115.068L38.6787 118.114Z" fill="white"/>
<path d="M38.6787 118.114L44.2941 115.068" stroke="black" stroke-width="0.953206" stroke-linecap="round" stroke-linejoin="round"/>
<path fill-rule="evenodd" clip-rule="evenodd" d="M43.6895 74.764L49.3048 71.7188L43.6895 74.764Z" fill="white"/>
<path d="M43.6895 74.764L49.3048 71.7188" stroke="black" stroke-width="0.953206" stroke-linecap="round" stroke-linejoin="round"/>
</g>
<defs>
<clipPath id="clip0">
<rect width="140" height="140" fill="white"/>
</clipPath>
</defs>
</svg>
