<svg width="135" height="198" viewBox="0 0 135 198" fill="none" xmlns="http://www.w3.org/2000/svg">
<g id="G">
<path id="Stroke 1" fill-rule="evenodd" clip-rule="evenodd" d="M90.137 178.621C88.523 188.812 67.6901 193.982 43.6066 190.167C19.5231 186.353 1.30861 174.998 2.92264 164.807C4.53668 154.617 25.3685 149.446 49.452 153.261C73.5355 157.075 91.7511 168.43 90.137 178.621Z" fill="#634FE6" fill-opacity="0.08" stroke="black" stroke-width="2.395" stroke-linecap="round" stroke-linejoin="round" stroke-dasharray="4.79 9.58"/>
<g id="Group">
<path id="Fill 1" fill-rule="evenodd" clip-rule="evenodd" d="M98.3251 67.1226L109.605 81.1128L119.886 71.876L122.757 58.5797C127.485 36.6799 118.054 21.4911 94.655 16.3326C89.8211 15.2669 85.3544 14.8407 81.2658 15.0293C79.6475 15.104 78.1037 15.2985 76.6095 15.542L62.3813 19.4469L65.1174 20.2112C58.4784 24.8569 53.9367 32.5119 51.6911 42.9125L36.324 114.086C31.5956 135.986 39.476 157.975 64.4274 156.334C73.2275 155.755 80.64 158.093 86.8935 156.016C85.8386 159.627 78.6079 167.504 78.1576 171.2C92.9304 164.359 103.192 149.194 107.39 129.753L116.762 86.3453L83.3959 78.9894L69.6788 88.896L74.7326 95.2898L80.0794 94.3496L79.174 98.543L90.0074 100.931L84.5613 126.155C82.4504 135.932 76.9239 138.4 69.3404 136.728C61.7578 135.057 57.751 130.486 59.8619 120.71L75.8201 46.7979C77.9308 37.0219 83.4999 34.3568 91.0825 36.0284C98.666 37.7003 102.63 42.4672 100.52 52.2432L97.8883 64.4302L96.0005 63.7911L97.5475 66.0087L97.3532 66.9084L98.3251 67.1226Z" fill="#9595EF"/>
<path id="Stroke 3" fill-rule="evenodd" clip-rule="evenodd" d="M98.3251 67.1226L109.605 81.1128L119.886 71.876L122.757 58.5797C127.485 36.6799 118.054 21.4911 94.655 16.3326C89.8211 15.2669 85.3544 14.8407 81.2658 15.0293C79.6475 15.104 78.1037 15.2985 76.6095 15.542L62.3813 19.4469L65.1174 20.2112C58.4784 24.8569 53.9367 32.5119 51.6911 42.9125L36.324 114.086C31.5956 135.986 39.476 157.975 64.4274 156.334C73.2275 155.755 80.64 158.093 86.8935 156.016C85.8386 159.627 78.6079 167.504 78.1576 171.2C92.9304 164.359 103.192 149.194 107.39 129.753L116.762 86.3453L83.3959 78.9894L69.6788 88.896L74.7326 95.2898L80.0794 94.3496L79.174 98.543L90.0074 100.931L84.5613 126.155C82.4504 135.932 76.9239 138.4 69.3404 136.728C61.7578 135.057 57.751 130.486 59.8619 120.71L75.8201 46.7979C77.9308 37.0219 83.4999 34.3568 91.0825 36.0284C98.666 37.7003 102.63 42.4672 100.52 52.2432L97.8883 64.4302L96.0005 63.7911L97.5475 66.0087L97.3532 66.9084L98.3251 67.1226Z" stroke="black" stroke-width="2" stroke-linejoin="round"/>
<path id="Fill 5" fill-rule="evenodd" clip-rule="evenodd" d="M70.4788 88.6109L106.74 96.6806L96.5122 144.197C91.3525 168.168 75.2194 178.932 49.7892 173.272C24.3589 167.613 14.1215 150.981 19.2812 127.009L36.0503 49.1002C41.2101 25.1277 57.3442 14.3644 82.7744 20.0238C108.205 25.6833 118.441 42.3153 113.281 66.2878L110.149 80.8419L85.6614 75.3924L89.1165 59.34C91.4201 48.6379 87.1147 43.4184 78.8736 41.5844C70.6326 39.7504 64.5767 42.6639 62.2732 53.3661L44.8591 134.271C42.5557 144.973 46.9071 149.978 55.1481 151.812C63.3892 153.646 69.3991 150.947 71.7025 140.245L77.6454 112.634L65.8719 110.014L70.4788 88.6109Z" fill="white"/>
<path id="Stroke 7" fill-rule="evenodd" clip-rule="evenodd" d="M70.4788 88.6109L106.74 96.6806L96.5122 144.197C91.3525 168.168 75.2194 178.932 49.7892 173.272C24.3589 167.613 14.1215 150.981 19.2812 127.009L36.0503 49.1002C41.2101 25.1277 57.3442 14.3644 82.7744 20.0238C108.205 25.6833 118.441 42.3153 113.281 66.2878L110.149 80.8419L85.6614 75.3924L89.1165 59.34C91.4201 48.6379 87.1147 43.4184 78.8736 41.5844C70.6326 39.7504 64.5767 42.6639 62.2732 53.3661L44.8591 134.271C42.5557 144.973 46.9071 149.978 55.1481 151.812C63.3892 153.646 69.3991 150.947 71.7025 140.245L77.6454 112.634L65.872 110.014L70.4788 88.6109Z" stroke="black" stroke-width="2" stroke-linejoin="round"/>
</g>
</g>
</svg>
