<svg xmlns="http://www.w3.org/2000/svg" width="118" height="88" viewBox="0 0 118 88">
    <g fill="none" fill-rule="evenodd">
        <path fill="#8D77F8" fill-opacity=".08" stroke="#000" stroke-dasharray="8,10" stroke-linecap="round" stroke-linejoin="round" d="M63.973 10.173c17.268 0 26.356 2.727 33.627 12.724 4.847 6.665 6.968 11.512 6.362 14.541 8.482 4.848 12.724 11.815 12.724 20.904 0 13.632-8.18 23.63-15.45 26.356-7.271 2.727-9.09 2.727-10.907 2.727H43.061c-8.477-1.818-14.836-6.06-19.077-12.724-6.362-9.997-3.636-19.086-3.636-19.995 0-.908 3.636-10.906 9.089-15.45 5.453-4.544 1.817-3.635 3.635-8.18 1.818-4.544 13.633-20.903 30.9-20.903z"/>
        <g fill-rule="nonzero">
            <path fill="#EA4335" d="M64.968 20.731l8.402-8.12.56-3.418C58.62-4.26 34.28-2.735 20.48 12.376c-3.834 4.197-6.678 9.43-8.195 14.833l3.01-.41 16.803-2.677 1.297-1.282c7.474-7.933 20.113-9 28.743-2.25l2.83.141z"/>
            <path fill="#4285F4" d="M85.454 27.666A38.305 38.305 0 0 0 74.007 9.07L62.175 20.99a21.253 21.253 0 0 1 7.72 16.808v2.116c5.816 0 10.531 4.75 10.531 10.609 0 5.86-4.715 10.49-10.53 10.49H48.803l-2.07 2.265v12.725l2.07 1.996h21.091c15.128.119 27.486-12.02 27.604-27.26.071-9.238-4.45-17.898-12.045-23.073"/>
            <path fill="#34A853" d="M27.726 78h20.82V61.683h-20.82c-1.484 0-2.92-.312-4.27-.916l-2.954.888-8.392 8.158-.731 2.777c4.706 3.478 10.449 5.435 16.347 5.41"/>
            <path fill="#FBBC05" d="M27.67 23.582C12.573 23.672.41 35.976.5 51.065a27.316 27.316 0 0 0 10.67 21.493l12.19-12.185c-5.289-2.388-7.64-8.61-5.25-13.896 2.39-5.287 8.614-7.636 13.903-5.248a10.506 10.506 0 0 1 5.25 5.248l12.19-12.186a27.307 27.307 0 0 0-21.784-10.71"/>
        </g>
    </g>
</svg>
