<svg width="224" height="160" viewBox="0 0 224 160" fill="none" xmlns="http://www.w3.org/2000/svg">
<path opacity="0.5" fill-rule="evenodd" clip-rule="evenodd" d="M144.348 58.9804C174.509 80.7266 214.616 66.6005 211.866 105.205C209.115 143.81 168.908 154.976 78.3161 153.934C-12.2758 152.893 -8.37324 103.387 12.0086 76.0677C22.1998 62.4076 47.9858 37.384 74.9684 32.6904C101.951 27.9974 129.652 48.3843 144.348 58.9804Z" fill="#9595EF"/>
<path fill-rule="evenodd" clip-rule="evenodd" d="M222 82.9176H209.302L121.097 33.6684C117.101 31.4375 112.179 31.4446 108.191 33.6854L55.7383 63.1603H41V75.0867C41.0048 77.2097 42.0956 79.3309 44.2693 80.5396L140.999 134.342C144.932 136.529 149.764 136.554 153.72 134.406L218.672 99.1491C220.475 98.1703 221.534 96.5648 221.872 94.8439H222V82.9176Z" fill="white"/>
<path fill-rule="evenodd" clip-rule="evenodd" d="M222 82.9176H209.302L121.097 33.6684C117.101 31.4375 112.179 31.4446 108.191 33.6854L55.7383 63.1603H41V75.0867C41.0048 77.2097 42.0956 79.3309 44.2693 80.5396L140.999 134.342C144.932 136.529 149.764 136.554 153.72 134.406L218.672 99.1491C220.475 98.1703 221.534 96.5648 221.872 94.8439H222V82.9176Z" stroke="black" stroke-width="2" stroke-linejoin="round"/>
<path fill-rule="evenodd" clip-rule="evenodd" d="M108.191 21.6857L44.2444 57.6193C39.9074 60.0559 39.9214 66.1219 44.2693 68.5397L140.999 122.342C144.932 124.529 149.764 124.554 153.72 122.406L218.672 87.1498C223.079 84.7572 223.117 78.6314 218.74 76.1872L121.097 21.6681C117.101 19.4378 112.179 19.4443 108.191 21.6857Z" fill="white"/>
<path fill-rule="evenodd" clip-rule="evenodd" d="M90.9024 97.7595C87.5294 95.8872 84.0723 95.4723 82.7629 96.6924L63 107.141L74.2637 116L94.4479 105.328C95.0429 105.162 95.5007 104.868 95.761 104.434C96.751 102.786 94.5753 99.7983 90.9024 97.7595Z" fill="white"/>
<path fill-rule="evenodd" clip-rule="evenodd" d="M90.9024 97.7595C87.5294 95.8872 84.0723 95.4723 82.7629 96.6924L63 107.141L74.2637 116L94.4479 105.328C95.0429 105.162 95.5007 104.868 95.761 104.434C96.751 102.786 94.5753 99.7983 90.9024 97.7595Z" stroke="black" stroke-width="2" stroke-linejoin="round"/>
<path fill-rule="evenodd" clip-rule="evenodd" d="M84 110.837H73.1864V113.241L64.5058 108.338C63.9753 108.038 63.3999 107.852 62.8136 107.774V104H52V114H52.0273C52.1152 114.617 52.4572 115.203 53.0665 115.567L71.1304 126.336C72.5607 127.189 74.3287 127.222 75.7899 126.425L82.8626 122.562C83.5525 122.186 83.9248 121.524 83.9873 120.837H84V110.837Z" fill="white"/>
<path fill-rule="evenodd" clip-rule="evenodd" d="M84 110.837H73.1864V113.241L64.5058 108.338C63.9753 108.038 63.3999 107.852 62.8136 107.774V104H52V114H52.0273C52.1152 114.617 52.4572 115.203 53.0665 115.567L71.1304 126.336C72.5607 127.189 74.3287 127.222 75.7899 126.425L82.8626 122.562C83.5525 122.186 83.9248 121.524 83.9873 120.837H84V110.837Z" stroke="black" stroke-width="2" stroke-linejoin="round"/>
<path fill-rule="evenodd" clip-rule="evenodd" d="M60.0711 97.4743L53.1967 100.728C51.6615 101.455 51.5876 103.496 53.0664 104.32L71.1303 114.379C72.5612 115.177 74.3292 115.207 75.7904 114.462L82.8624 110.854C84.3667 110.087 84.3825 108.055 82.8897 107.267L64.5057 97.5681C63.1354 96.8452 61.4747 96.8103 60.0711 97.4743Z" fill="white"/>
<path fill-rule="evenodd" clip-rule="evenodd" d="M60.0711 97.4743L53.1967 100.728C51.6615 101.455 51.5876 103.496 53.0664 104.32L71.1303 114.379C72.5612 115.177 74.3292 115.207 75.7904 114.462L82.8624 110.854C84.3667 110.087 84.3824 108.055 82.8897 107.267L64.5057 97.5681C63.1354 96.8452 61.4747 96.8103 60.0711 97.4743Z" stroke="black" stroke-width="2" stroke-linejoin="round"/>
<path fill-rule="evenodd" clip-rule="evenodd" d="M200.594 68.922L118.838 22.8585C115.669 21.0726 111.787 21.1234 108.665 22.9899L63.1545 50.0936C56.4998 54.0731 56.6009 63.7483 63.3361 67.5896L143.693 113.407C146.825 115.193 150.671 115.179 153.79 113.371L200.7 86.514C207.482 82.5832 207.423 72.7705 200.594 68.922Z" fill="white"/>
<path d="M161.618 80.7544L163.776 112.696C163.878 114.197 165.539 115.052 166.841 114.298C170.175 112.369 172.174 111.526 163.999 117.5C153.599 125.1 145 124.667 142 123.5C110.166 106.833 45.6993 72.4 42.4993 68C39.4195 63.7653 41.0329 60.426 42.3471 59.141C42.4461 59.0442 42.5602 58.9658 42.681 58.8981L83.0435 36.2557C83.3423 36.0881 83.6793 36 84.022 36H110.375C111.322 36 112.138 36.6631 112.333 37.5892L120.186 75.0073C120.371 75.8889 121.123 76.538 122.022 76.5928L159.744 78.893C160.748 78.9542 161.55 79.7511 161.618 80.7544Z" fill="#9595EF"/>
<path fill-rule="evenodd" clip-rule="evenodd" d="M108.191 21.6857L44.2444 57.6193C39.9074 60.0559 39.9214 66.1219 44.2693 68.5397L140.999 122.342C144.932 124.529 149.764 124.554 153.72 122.406L218.672 87.1498C223.079 84.7572 223.117 78.6314 218.74 76.1872L121.097 21.6681C117.101 19.4378 112.179 19.4443 108.191 21.6857Z" stroke="black" stroke-width="2" stroke-linejoin="round"/>
<path fill-rule="evenodd" clip-rule="evenodd" d="M119.234 53.1707C119.259 57.2957 124.948 60.6045 131.943 60.5622C138.937 60.5199 144.586 57.1426 144.561 53.0176C144.536 48.8935 138.847 45.5847 131.853 45.627C124.858 45.6693 119.209 49.0467 119.234 53.1707Z" fill="#9595EF"/>
</svg>
