<svg xmlns="http://www.w3.org/2000/svg" width="223" height="157" viewBox="0 0 223 157">
    <g fill="none" fill-rule="evenodd">
        <path fill="#9595EF" d="M163.45 134.346c8.733-4.44 17.413-9.01 26.226-13.185 18.807-8.908 34.388-18.448 33.267-42.567-1.931-41.543-41.625-56.062-132.486-47.012C11.38 39.46 2.04 83.99 21.974 113.793c9.85 14.728 20.672 30.805 37.215 37.53 16.86 6.853 35.852 6.987 53.393 3.138 17.955-3.94 34.504-11.798 50.868-20.115" opacity=".57"/>
        <path fill="#FFF" d="M126.473 24.03L51.789 67.308c-5.065 2.936-5.049 10.24.03 13.154l47.58 26.54a15.07 15.07 0 0 0 14.856.079l75.858-42.464c5.147-2.882 5.191-10.26.08-13.203L141.545 24.01a15.07 15.07 0 0 0-15.072.02"/>
        <path stroke="#000" stroke-linejoin="round" stroke-width="2" d="M126.473 24.03L51.789 67.308c-5.065 2.936-5.049 10.24.03 13.154l47.58 26.54a15.07 15.07 0 0 0 14.856.079l75.858-42.464c5.147-2.882 5.191-10.26.08-13.203L141.545 24.01a15.07 15.07 0 0 0-15.072.02z"/>
        <path fill="#FFF" d="M126.473 13.03L51.789 56.31c-5.065 2.935-5.049 10.24.03 13.153l47.58 26.541a15.07 15.07 0 0 0 14.856.078l75.858-42.464c5.147-2.881 5.191-10.26.08-13.202L141.545 13.01a15.066 15.066 0 0 0-15.072.02"/>
        <path stroke="#000" stroke-linejoin="round" stroke-width="2" d="M126.473 13.03L51.789 56.31c-5.065 2.935-5.049 10.24.03 13.153l47.58 26.541a15.07 15.07 0 0 0 14.856.078l75.858-42.464c5.147-2.881 5.191-10.26.08-13.202L141.545 13.01a15.066 15.066 0 0 0-15.072.02z"/>
        <path fill="#FFF" d="M126.473 3.03L51.789 46.31c-5.065 2.934-5.049 10.24.03 13.153l47.58 26.54a15.073 15.073 0 0 0 14.856.078l75.858-42.464c5.147-2.882 5.191-10.26.08-13.202L141.545 3.01a15.07 15.07 0 0 0-15.072.02"/>
        <path stroke="#000" stroke-linejoin="round" stroke-width="2" d="M126.473 3.03L51.789 46.31c-5.065 2.934-5.049 10.24.03 13.153l47.58 26.54a15.073 15.073 0 0 0 14.856.078l75.858-42.464c5.147-2.882 5.191-10.26.08-13.202L141.545 3.01a15.07 15.07 0 0 0-15.072.02z"/>
        <path stroke="#9595EF" stroke-linecap="round" stroke-width="3.007" d="M92 59l23 14M76 42l47 27M83 38l47 27M90 34l47 27M97 30l47 27M103 27l47 27M110 23l47 27M117 19l47 27M124 15l47 27"/>
        <g>
            <path fill="#9595EF" d="M31.188 87.663c-4.604-2.689-7.875-8.149-7.936-13.479-.054-4.816 3.701-6.934 8.03-4.374 4.6 2.723 8.07 8.18 8.19 13.536.109 4.795-3.908 6.874-8.284 4.317M56.37 89.59c-.084-.784-.945-1.807-1.686-2.21-2.397-1.302-4.5-3.876-5.384-6.568-.901-2.754-.333-5.077 1.432-5.752.556-.21.622-1.042.153-1.908a61.337 61.337 0 0 0-4.081-6.533c-.582-.815-1.43-1.229-1.93-.932-1.507.902-4.196.036-6.241-2.052-2.129-2.18-3.44-5.27-3.303-7.7.045-.762-.477-1.747-1.187-2.247-1.809-1.27-3.615-2.316-5.398-3.114-.69-.308-1.203.068-1.186.86.06 2.524-1.266 4.07-3.275 3.861-.847-.089-1.796-.536-2.709-1.223h-.002c-1.166-.878-2.274-2.143-3.033-3.555-.448-.83-1.204-1.328-1.733-1.149-.128.044-.249.102-.376.15-.872.171-1.607.76-1.607.76l-.023.015c-.355.21-.694.443-1.023.691l-4.121 2.784 1.832 5.767 3.192.706a4.014 4.014 0 0 1-.25.727c-.795 1.73-2.722 2.008-4.867.74-.696-.439-1.188-.17-1.266.544-.192 1.863-.195 3.874-.014 5.98.067.784.794 1.782 1.417 2.162 1.892 1.098 3.747 3.644 4.514 6.381.765 2.734.232 5.071-1.287 5.8-.474.228-.539 1.06-.146 1.912a53.813 53.813 0 0 0 3.492 6.425c.513.808 1.27 1.2 1.73.89 1.383-.938 3.876-.12 5.824 1.936 2.039 2.152 3.341 5.232 3.195 7.665-.048.764.469 1.746 1.18 2.24a33.516 33.516 0 0 0 2.822 1.76c.902.5 1.81.947 2.723 1.34.723.31 1.263-.065 1.242-.857-.076-2.524 1.302-4.064 3.449-3.83.899.096 1.914.548 2.9 1.234l2.342 7.19 6.174-3.74.044-.026.026-.017h-.002c.313-.193.617-.398.909-.617.475-.355.407-1.272-.159-2.095-1.801-2.62-2.386-5.596-1.459-7.38.872-1.68 2.992-1.978 5.295-.745l.323.182c.748.461 1.437.248 1.528-.474.229-1.855.232-3.865.01-5.978"/>
            <path stroke="#000" stroke-linejoin="round" stroke-width="2" d="M31.188 87.663c-4.604-2.689-7.875-8.149-7.936-13.479-.054-4.816 3.701-6.934 8.03-4.374 4.6 2.723 8.07 8.18 8.19 13.536.109 4.795-3.908 6.874-8.284 4.317zM56.37 89.59c-.084-.784-.945-1.807-1.686-2.21-2.397-1.302-4.5-3.876-5.384-6.568-.901-2.754-.333-5.077 1.432-5.752.556-.21.622-1.042.153-1.908a61.337 61.337 0 0 0-4.081-6.533c-.582-.815-1.43-1.229-1.93-.932-1.507.902-4.196.036-6.241-2.052-2.129-2.18-3.44-5.27-3.303-7.7.045-.762-.477-1.747-1.187-2.247-1.809-1.27-3.615-2.316-5.398-3.114-.69-.308-1.203.068-1.186.86.06 2.524-1.266 4.07-3.275 3.861-.847-.089-1.796-.536-2.709-1.223h-.002c-1.166-.878-2.274-2.143-3.033-3.555-.448-.83-1.204-1.328-1.733-1.149-.128.044-.249.102-.376.15-.872.171-1.607.76-1.607.76l-.023.015c-.355.21-.694.443-1.023.691l-4.121 2.784 1.832 5.767 3.192.706a4.014 4.014 0 0 1-.25.727c-.795 1.73-2.722 2.008-4.867.74-.696-.439-1.188-.17-1.266.544-.192 1.863-.195 3.874-.014 5.98.067.784.794 1.782 1.417 2.162 1.892 1.098 3.747 3.644 4.514 6.381.765 2.734.232 5.071-1.287 5.8-.474.228-.539 1.06-.146 1.912a53.813 53.813 0 0 0 3.492 6.425c.513.808 1.27 1.2 1.73.89 1.383-.938 3.876-.12 5.824 1.936 2.039 2.152 3.341 5.232 3.195 7.665-.048.764.469 1.746 1.18 2.24a33.516 33.516 0 0 0 2.822 1.76c.902.5 1.81.947 2.723 1.34.723.31 1.263-.065 1.242-.857-.076-2.524 1.302-4.064 3.449-3.83.899.096 1.914.548 2.9 1.234l2.342 7.19 6.174-3.74.044-.026.026-.017h-.002c.313-.193.617-.398.909-.617.475-.355.407-1.272-.159-2.095-1.801-2.62-2.386-5.596-1.459-7.38.872-1.68 2.992-1.978 5.295-.745l.323.182c.748.461 1.437.248 1.528-.474.229-1.855.232-3.865.01-5.978z"/>
            <path stroke="#000" stroke-linecap="round" stroke-linejoin="round" stroke-width="2" d="M45.682 65.688l-7.7 4.46 5.716 9.144 6.998-4.811"/>
            <path fill="#FFF" d="M35.17 55.048l-7.246 4.187-7.245-4.187 7.436-4.556"/>
            <path stroke="#000" stroke-linecap="round" stroke-linejoin="round" stroke-width="2" d="M35.17 55.048l-7.246 4.187-7.245-4.187 7.436-4.556"/>
            <path fill="#FFF" d="M24.037 92.064c-4.604-2.69-7.875-8.15-7.936-13.48-.054-4.815 3.702-6.934 8.03-4.373 4.6 2.723 8.07 8.18 8.19 13.536.109 4.795-3.908 6.874-8.284 4.317m25.182 1.927c-.083-.784-.945-1.807-1.686-2.21-2.396-1.302-4.5-3.876-5.383-6.568-.902-2.754-.334-5.077 1.43-5.752.557-.21.623-1.042.155-1.908a61.776 61.776 0 0 0-4.081-6.534c-.583-.814-1.431-1.23-1.931-.931-1.507.902-4.195.036-6.241-2.052-2.13-2.181-3.44-5.27-3.302-7.7.044-.762-.477-1.747-1.187-2.247-1.81-1.271-3.616-2.316-5.398-3.114-.691-.308-1.204.068-1.187.859.06 2.525-1.265 4.07-3.274 3.862-1.928-.203-4.39-2.26-5.744-4.778-.45-.831-1.205-1.328-1.733-1.15a10.9 10.9 0 0 0-3.714 2.167c-.421.372-.365 1.288.12 2.09 1.562 2.566 2.05 5.529 1.218 7.344-.796 1.729-2.722 2.008-4.868.74-.696-.44-1.188-.17-1.265.544-.193 1.863-.195 3.874-.015 5.979.067.785.794 1.783 1.417 2.163 1.892 1.098 3.747 3.643 4.514 6.38.765 2.735.233 5.072-1.286 5.8-.475.229-.54 1.06-.146 1.913a53.805 53.805 0 0 0 3.49 6.425c.515.808 1.272 1.198 1.73.89 1.384-.938 3.877-.121 5.825 1.935 2.039 2.153 3.34 5.233 3.195 7.666-.048.764.47 1.746 1.18 2.239a33.677 33.677 0 0 0 2.822 1.76c.902.5 1.81.948 2.724 1.339.722.312 1.263-.063 1.24-.855-.075-2.525 1.303-4.064 3.45-3.831 2.076.226 4.77 2.33 6.296 4.878.507.84 1.346 1.352 1.936 1.192a12.667 12.667 0 0 0 4.162-2.045c.475-.355.406-1.273-.16-2.095-1.801-2.62-2.385-5.596-1.46-7.381.873-1.68 2.994-1.977 5.297-.744l.323.182c.747.46 1.436.248 1.527-.474.23-1.855.232-3.865.01-5.978"/>
            <path stroke="#000" stroke-width="2" d="M24.037 92.064c-4.604-2.69-7.875-8.15-7.936-13.48-.054-4.815 3.702-6.934 8.03-4.373 4.6 2.723 8.07 8.18 8.19 13.536.109 4.795-3.908 6.874-8.284 4.317zm25.182 1.927c-.083-.784-.945-1.807-1.686-2.21-2.396-1.302-4.5-3.876-5.383-6.568-.902-2.754-.334-5.077 1.43-5.752.557-.21.623-1.042.155-1.908a61.776 61.776 0 0 0-4.081-6.534c-.583-.814-1.431-1.23-1.931-.931-1.507.902-4.195.036-6.241-2.052-2.13-2.181-3.44-5.27-3.302-7.7.044-.762-.477-1.747-1.187-2.247-1.81-1.271-3.616-2.316-5.398-3.114-.691-.308-1.204.068-1.187.859.06 2.525-1.265 4.07-3.274 3.862-1.928-.203-4.39-2.26-5.744-4.778-.45-.831-1.205-1.328-1.733-1.15a10.9 10.9 0 0 0-3.714 2.167c-.421.372-.365 1.288.12 2.09 1.562 2.566 2.05 5.529 1.218 7.344-.796 1.729-2.722 2.008-4.868.74-.696-.44-1.188-.17-1.265.544-.193 1.863-.195 3.874-.015 5.979.067.785.794 1.783 1.417 2.163 1.892 1.098 3.747 3.643 4.514 6.38.765 2.735.233 5.072-1.286 5.8-.475.229-.54 1.06-.146 1.913a53.805 53.805 0 0 0 3.49 6.425c.515.808 1.272 1.198 1.73.89 1.384-.938 3.877-.121 5.825 1.935 2.039 2.153 3.34 5.233 3.195 7.666-.048.764.47 1.746 1.18 2.239a33.677 33.677 0 0 0 2.822 1.76c.902.5 1.81.948 2.724 1.339.722.312 1.263-.063 1.24-.855-.075-2.525 1.303-4.064 3.45-3.831 2.076.226 4.77 2.33 6.296 4.878.507.84 1.346 1.352 1.936 1.192a12.667 12.667 0 0 0 4.162-2.045c.475-.355.406-1.273-.16-2.095-1.801-2.62-2.385-5.596-1.46-7.381.873-1.68 2.994-1.977 5.297-.744l.323.182c.747.46 1.436.248 1.527-.474.23-1.855.232-3.865.01-5.978z"/>
            <g>
                <path fill="#FFF" d="M55.908 96.223l-6.7 3.746-.296-6.804 6.996-3.682"/>
                <path stroke="#000" stroke-linecap="round" stroke-linejoin="round" stroke-width="2" d="M55.908 96.223l-6.7 3.746-.296-6.804 6.996-3.682"/>
            </g>
        </g>
    </g>
</svg>
