<svg xmlns="http://www.w3.org/2000/svg" xmlns:xlink="http://www.w3.org/1999/xlink" width="177" height="115" viewBox="0 0 177 115">
    <defs>
        <path id="a" d="M.884.79H52.59v38.963H.884z"/>
    </defs>
    <g fill="none" fill-rule="evenodd">
        <path fill="#9595EF" d="M173.011 50.737c-3-36.49-37-36.49-78.163-47.142C30.836-12.97 0 31.08 0 66.9c0 21.24 18.42 42.139 41.32 46.829 22.899 4.69 58.745-10.535 73.553-15.209 29.872-9.43 59.746-28.228 58.138-47.784z" opacity=".57"/>
        <path fill="#FFF" d="M145.788 46.115c-7.314-13.88-30.13-24.008-57.16-24.008-26.583 0-49.094 9.796-56.79 23.323L29 43.57v12.107c0 18.54 26.696 33.57 59.629 33.57 32.93 0 59.628-15.03 59.628-33.57V43.57l-2.47 2.546z"/>
        <path stroke="#000" stroke-linejoin="round" stroke-width="2" d="M145.788 46.115c-7.314-13.88-30.13-24.008-57.16-24.008-26.583 0-49.094 9.796-56.79 23.323L29 43.57v12.107c0 18.54 26.696 33.57 59.629 33.57 32.93 0 59.628-15.03 59.628-33.57V43.57l-2.47 2.546z"/>
        <path fill="#FFF" d="M29 43.57C29 25.03 55.696 10 88.629 10c32.932 0 59.628 15.03 59.628 33.57S121.56 77.137 88.629 77.137c-32.933 0-59.63-15.029-59.63-33.569"/>
        <path stroke="#000" stroke-linejoin="round" stroke-width="2" d="M29 43.57C29 25.03 55.696 10 88.629 10c32.932 0 59.628 15.03 59.628 33.57S121.56 77.137 88.629 77.137c-32.933 0-59.63-15.029-59.63-33.569z"/>
        <path fill="#9595EF" d="M138.935 40.8c0 .49-.02.98-.07 1.46-1.38-13.16-23.34-23.61-50.24-23.61-26.89 0-48.86 10.45-50.24 23.61a14.16 14.16 0 0 1-.07-1.46c0-15.3 22.53-27.7 50.31-27.7 27.79 0 50.31 12.4 50.31 27.7"/>
        <path fill="#FFF" d="M38.319 43.57c0-13.766 22.524-24.924 50.31-24.924 27.785 0 50.308 11.158 50.308 24.923 0 13.765-22.523 24.924-50.308 24.924-27.786 0-50.31-11.159-50.31-24.924"/>
        <path stroke="#000" stroke-linejoin="round" stroke-width="2" d="M38.319 43.57c0-13.766 22.524-24.924 50.31-24.924 27.785 0 50.308 11.158 50.308 24.923 0 13.765-22.523 24.924-50.308 24.924-27.786 0-50.31-11.159-50.31-24.924z"/>
        <path fill="#9595EF" d="M87.325 68.48c-27.18-.34-49.01-11.36-49.01-24.91 0-.44.02-.88.07-1.31 1.36 14.38 22.65 25.85 48.94 26.22M138.935 43.57c0 13.55-21.82 24.57-49.01 24.91 26.3-.37 47.58-11.84 48.94-26.22.05.43.07.87.07 1.31M74.304 31.84c-3.036 2.155-2.065 6.91.162 8.315 2.228 1.406 8.1.585 10.76-.856 4.783-2.592 4.14-6.75 1.83-7.571-3.469-1.235-9.717-2.041-12.752.113"/>
        <path fill="#9595EF" d="M60.9 41.973s2.603.092 3.93.64c.363.15 4.296 1.654 6.148 1.5 1.852-.155 13.444-1.585 16.77-4.143 3.592-2.765 3.955-4.245 5.146-5.868 2.111-2.877-3.06-6.454-3.293-7.303-.23-.848 1.51-1.718 2.08-1.58 1.03.25 1.674.606 3.757 2.07 2.084 1.468 2.856 6.917 4.013 7.356 1.157.439 3.935-1.876 5.015-2.57 1.08-.695 4.468-1.802 5.633-.695.728.692 0 1.93 0 1.93s-5.14 2.4-5.736 3.407c-.555.94.026 1.222.798 1.222.771 0 14.275 1.004 15.355 3.627 1.081 2.624-1.435 2.004-1.435 2.004s-11.033-3.498-13.262-1.863c-.988.726-.255 4.93-.37 6.56 0 0-.55 1.423-.65 1.67 0 0-.336-.834-1.38-1.67-1.2-.957-9.246-5.682-10.064-4.828-.817.85 6.75 7.083 9.632 8.108.124.045-2.484.732-3.217.709-1.506-.048-4.308-.258-5.25-.541-3.398-1.02-7.217-.953-7.363-.318-.232 1.003 4.655 7.608 4.887 8.148.231.54.054 1.658-.98 2.12-1.035.463-2.736.309-3.276-.308-.54-.617-3.743-4.676-4.266-5.535-1.417-2.331-.938-3.698-1.124-4.996 0 0-.77-1.003-2.393-.155-1.62.849-5.985 4.088-6.834 4.165-.848.077-3.274-.075-3.35-1.232-.078-1.158 7.97-3.971 7.97-5.282 0-1.312-2.415-.97-4.807-.661-2.393.309-5.633-.154-7.408-.54-1.775-.385-6.512-1.47-6.512-3.467 0-1.317 1.835-1.681 1.835-1.681"/>
        <path fill="#FFF" d="M166.968 102.934l8.354-4.395.096-8.287-.704-.472"/>
        <path stroke="#000" stroke-width="2" d="M166.968 102.934l8.354-4.395.096-8.287-.704-.472"/>
        <path fill="#FFF" d="M125.978 78.718l-.09-8.055.265-.325 7.396-4.226 40.973 23.484-7.72 4.105-.194 8.51z"/>
        <g transform="translate(124 64.169)">
            <mask id="b" fill="#fff">
                <use xlink:href="#a"/>
            </mask>
            <path fill="#000" d="M9.55.79L1.495 5.394l-.61.75.102 8.986L43.57 39.753l.03-1.346.188-8.266 8.803-4.681L9.55.79zm0 2.305l38.904 22.299-5.604 2.981-1.034.55-.027 1.17-.142 6.236L2.974 13.969l-.08-7.072L9.55 3.095z" mask="url(#b)"/>
        </g>
        <g>
            <path fill="#FFF" d="M125.485 70.265l41.401 23.658"/>
            <path stroke="#000" stroke-width="2" d="M125.485 70.265l41.401 23.658"/>
        </g>
    </g>
</svg>
