<svg xmlns="http://www.w3.org/2000/svg" width="192" height="168" viewBox="0 0 192 168">
    <g fill="none" fill-rule="evenodd">
        <path fill="#9595EF" d="M62.246 72.799C30.436 83.673 3.043 81.738.154 117.849c-2.682 33.53 29.397 56.2 111.499 47.57 72.439-7.616 91.324-37.648 73.826-63.97-8.748-13.162-35.898-33.515-60.282-38.923-24.385-5.408-47.182 4.883-62.951 10.273" opacity=".57"/>
        <path fill="#FFF" d="M65 26.462v58.33a5.455 5.455 0 0 0 2.746 4.735l64.744 37.017c3.102 1.773 7.123-2.06 6.996-4.022L140 62.768a5.456 5.456 0 0 0-2.769-4.794l-64.096-36.26C69.5 19.659 65 22.286 65 26.462"/>
        <path stroke="#000" stroke-linejoin="round" stroke-width="2" d="M65 26.462v58.33a5.455 5.455 0 0 0 2.746 4.735l64.744 37.017c3.102 1.773 7.123-2.06 6.996-4.022L140 62.768a5.456 5.456 0 0 0-2.769-4.794l-64.096-36.26C69.5 19.659 65 22.286 65 26.462z"/>
        <path fill="#FFF" d="M130.524 128.995c3.966-.567 9.476-4.321 9.476-4.321V61l-6.695 3.055s-7.417 65.603-2.78 64.94"/>
        <path stroke="#000" stroke-linejoin="round" stroke-width="2" d="M130.524 128.995c3.966-.567 9.476-4.321 9.476-4.321V61l-6.695 3.055s-7.417 65.603-2.78 64.94z"/>
        <path fill="#FFF" d="M59.074 26.63v59.934a5.47 5.47 0 0 0 2.723 4.74l64.168 37.054c3.073 1.776 6.902-.448 6.933-4.024l-.14-57.15v-3.742L65.454 22.523"/>
        <path stroke="#000" stroke-linejoin="round" stroke-width="2" d="M59.074 26.63v59.934a5.47 5.47 0 0 0 2.723 4.74l64.168 37.054c3.073 1.776 6.902-.448 6.933-4.024l-.14-57.15v-3.742L65.454 22.523"/>
        <path fill="#FFF" d="M40.444 38.545s.48-9.027 10.556-14.926c7.845-4.595 21.934-2.7 21.934-2.7"/>
        <path stroke="#000" stroke-linecap="round" stroke-linejoin="round" stroke-width="2" d="M40.444 38.545s.48-9.027 10.556-14.926c7.845-4.595 21.934-2.7 21.934-2.7"/>
        <path fill="#FFF" d="M77.248 22.998l.18 3.987c.053 1.2-.766 1.726-1.83 1.173l-9.951-5.167c-1.064-.553-1.972-1.974-2.026-3.174l-.386-8.624c-.054-1.2.766-1.726 1.83-1.173l9.95 5.167c1.065.552 1.971 1.974 2.026 3.173l.207 4.638zm30.08 4.057c-.763-1.272-1.831-2.376-2.99-2.978L60.757 1.451c-.682-.355-1.315-.492-1.86-.44a2.047 2.047 0 0 0-.746.218 1.926 1.926 0 0 0-.766.749 2.053 2.053 0 0 0-.078.146c-.224.456-.335 1.039-.303 1.73l1.506 33.565c.03.692.2 1.42.477 2.134a9.301 9.301 0 0 0 2.122 3.224 6.628 6.628 0 0 0 1.555 1.151l43.57 22.621c2.188 1.135 3.871.053 3.76-2.414l-1.506-33.55c-.052-1.155-.488-2.407-1.16-3.53z"/>
        <path stroke="#000" stroke-linejoin="round" stroke-width="2" d="M77.248 22.998l.18 3.987c.053 1.2-.766 1.726-1.83 1.173l-9.951-5.167c-1.064-.553-1.972-1.974-2.026-3.174l-.386-8.624c-.054-1.2.766-1.726 1.83-1.173l9.95 5.167c1.065.552 1.971 1.974 2.026 3.173l.207 4.638zm30.08 4.057c-.763-1.272-1.831-2.376-2.99-2.978L60.757 1.451c-.682-.355-1.315-.492-1.86-.44a2.047 2.047 0 0 0-.746.218 1.926 1.926 0 0 0-.766.749 2.053 2.053 0 0 0-.078.146c-.224.456-.335 1.039-.303 1.73l1.506 33.565c.03.692.2 1.42.477 2.134a9.301 9.301 0 0 0 2.122 3.224 6.628 6.628 0 0 0 1.555 1.151l43.57 22.621c2.188 1.135 3.871.053 3.76-2.414l-1.506-33.55c-.052-1.155-.488-2.407-1.16-3.53z"/>
        <path fill="#FFF" d="M103.313 71l6.15-4.46s.83 1.459.427-7.407c-.401-8.865-1.29-28.427-1.29-28.427s-.097-2.053-1.174-3.534c-1.42-1.957-3.547-3.507-11.174-7.168C89.301 16.666 61.948 1.699 60.09 1.169c-2.208-.63-3.628.708-3.628.708L52 5.197l51.265 64.81.048.993z"/>
        <path stroke="#000" stroke-linejoin="round" stroke-width="2" d="M103.313 71l6.15-4.46s.83 1.459.427-7.407c-.401-8.865-1.29-28.427-1.29-28.427s-.097-2.053-1.174-3.534c-1.42-1.957-3.547-3.507-11.174-7.168C89.301 16.666 61.948 1.699 60.09 1.169c-2.208-.63-3.628.708-3.628.708L52 5.197l51.265 64.81.048.993z"/>
        <path fill="#FFF" d="M71.248 26.997l.18 3.988c.053 1.2-.766 1.726-1.83 1.172l-9.951-5.165c-1.064-.553-1.972-1.975-2.026-3.175l-.386-8.623c-.054-1.2.766-1.726 1.83-1.174l9.95 5.167c1.065.552 1.972 1.975 2.026 3.174l.207 4.636zm30.08 4.058c-.763-1.272-1.831-2.375-2.99-2.978L54.757 5.453c-.682-.356-1.315-.495-1.86-.442a2.047 2.047 0 0 0-.746.218 1.929 1.929 0 0 0-.766.75 1.838 1.838 0 0 0-.078.146c-.224.455-.335 1.039-.303 1.73l1.506 33.563c.03.693.2 1.422.477 2.136a9.343 9.343 0 0 0 1.117 2.05c.304.426.643.821 1.005 1.174a6.69 6.69 0 0 0 1.555 1.15l43.57 22.621c2.188 1.135 3.871.054 3.76-2.415l-1.506-33.55c-.052-1.153-.488-2.407-1.16-3.53z"/>
        <path stroke="#000" stroke-linejoin="round" stroke-width="2" d="M71.248 26.997l.18 3.988c.053 1.2-.766 1.726-1.83 1.172l-9.951-5.165c-1.064-.553-1.972-1.975-2.026-3.175l-.386-8.623c-.054-1.2.766-1.726 1.83-1.174l9.95 5.167c1.065.552 1.972 1.975 2.026 3.174l.207 4.636zm30.08 4.058c-.763-1.272-1.831-2.375-2.99-2.978L54.757 5.453c-.682-.356-1.315-.495-1.86-.442a2.047 2.047 0 0 0-.746.218 1.929 1.929 0 0 0-.766.75 1.838 1.838 0 0 0-.078.146c-.224.455-.335 1.039-.303 1.73l1.506 33.563c.03.693.2 1.422.477 2.136a9.343 9.343 0 0 0 1.117 2.05c.304.426.643.821 1.005 1.174a6.69 6.69 0 0 0 1.555 1.15l43.57 22.621c2.188 1.135 3.871.054 3.76-2.415l-1.506-33.55c-.052-1.153-.488-2.407-1.16-3.53z"/>
        <path fill="#9595EF" d="M75.047 49.62c.498.262.923.986.952 1.617.027.631-.354.93-.85.668L58.952 43.38c-.498-.261-.923-.985-.95-1.615-.029-.631.352-.931.848-.67l16.197 8.527zM85.916 54.66c.481.246.937.83 1.053 1.4.157.773-.302 1.143-.92.828l-6.965-3.549c-.481-.244-.937-.828-1.053-1.398-.156-.773.3-1.144.92-.829l6.965 3.549zM73.86 40.895c.935.52 1.812 1.75 2.062 2.965.36 1.744-.567 2.595-1.822 1.895l-2.96-1.649c-.934-.522-1.81-1.75-2.062-2.966-.359-1.744.568-2.594 1.822-1.896l2.96 1.651zM95.86 51.895c.935.52 1.812 1.749 2.062 2.966.36 1.743-.567 2.594-1.822 1.894l-2.96-1.65c-.934-.52-1.81-1.749-2.062-2.965-.359-1.743.568-2.594 1.822-1.896l2.96 1.651zM84.86 45.895c.935.52 1.812 1.75 2.062 2.965.36 1.745-.567 2.594-1.822 1.895l-2.96-1.65c-.934-.52-1.81-1.749-2.062-2.965-.359-1.744.568-2.593 1.822-1.896l2.96 1.65zM62.86 34.895c.935.52 1.812 1.75 2.062 2.966.36 1.743-.567 2.594-1.822 1.894l-2.96-1.65c-.934-.521-1.81-1.748-2.062-2.965-.359-1.743.568-2.594 1.822-1.896l2.96 1.651zM91.747 31.551c-1.361-.684-2.567-.709-3.423-.198-.879.524-1.389 1.615-1.317 3.138.07 1.524.707 3.191 1.678 4.643.946 1.417 2.206 2.63 3.567 3.314 2.758 1.387 4.88.07 4.742-2.938-.14-3.01-2.49-6.573-5.247-7.959M56.001 15.166l.355 10.145a2.1 2.1 0 0 0 1.165 1.811l12.382 6.665c1.357.668 2.938-.315 2.964-1.843L73 21.725a2.1 2.1 0 0 0-1.136-1.906l-12.87-6.59c-1.403-.72-3.049.348-2.993 1.937"/>
        <path fill="#FFF" d="M101.249 33.998l.18 3.987c.052 1.2-.766 1.726-1.831 1.173l-9.95-5.167c-1.065-.552-1.972-1.974-2.026-3.173l-.388-8.625c-.053-1.2.767-1.726 1.83-1.173l9.952 5.167c1.064.552 1.97 1.974 2.025 3.174l.208 4.637zm30.08 4.057c-.764-1.271-1.832-2.376-2.993-2.978L84.758 12.451c-.681-.354-1.315-.493-1.86-.44a2.039 2.039 0 0 0-.745.218 1.919 1.919 0 0 0-.766.749 2.323 2.323 0 0 0-.078.146c-.225.456-.335 1.038-.304 1.731l1.507 33.564c.03.692.2 1.42.476 2.134.03.079.063.159.095.238a9.341 9.341 0 0 0 2.028 2.987 6.622 6.622 0 0 0 1.554 1.15l43.57 22.621c2.187 1.135 3.87.053 3.76-2.414l-1.506-33.55c-.051-1.154-.488-2.407-1.16-3.53z"/>
        <path stroke="#000" stroke-linejoin="round" stroke-width="2" d="M101.249 33.998l.18 3.987c.052 1.2-.766 1.726-1.831 1.173l-9.95-5.167c-1.065-.552-1.972-1.974-2.026-3.173l-.388-8.625c-.053-1.2.767-1.726 1.83-1.173l9.952 5.167c1.064.552 1.97 1.974 2.025 3.174l.208 4.637zm30.08 4.057c-.764-1.271-1.832-2.376-2.993-2.978L84.758 12.451c-.681-.354-1.315-.493-1.86-.44a2.039 2.039 0 0 0-.745.218 1.919 1.919 0 0 0-.766.749 2.323 2.323 0 0 0-.078.146c-.225.456-.335 1.038-.304 1.731l1.507 33.564c.03.692.2 1.42.476 2.134.03.079.063.159.095.238a9.341 9.341 0 0 0 2.028 2.987 6.622 6.622 0 0 0 1.554 1.15l43.57 22.621c2.187 1.135 3.87.053 3.76-2.414l-1.506-33.55c-.051-1.154-.488-2.407-1.16-3.53z"/>
        <path fill="#FFF" d="M128.313 82l6.15-4.46s.83 1.459.427-7.407l-1.29-28.427s-.099-2.053-1.174-3.534c-1.42-1.957-3.547-3.505-11.175-7.168-6.95-3.338-34.303-18.305-36.162-18.835-2.207-.63-3.628.708-3.628.708L77 16.197l51.265 64.811.048.992z"/>
        <path stroke="#000" stroke-linejoin="round" stroke-width="2" d="M128.313 82l6.15-4.46s.83 1.459.427-7.407l-1.29-28.427s-.099-2.053-1.174-3.534c-1.42-1.957-3.547-3.505-11.175-7.168-6.95-3.338-34.303-18.305-36.162-18.835-2.207-.63-3.628.708-3.628.708L77 16.197l51.265 64.811.048.992z"/>
        <path fill="#FFF" d="M96.249 37.997l.18 3.988c.052 1.2-.766 1.726-1.831 1.173l-9.95-5.167c-1.065-.553-1.972-1.974-2.026-3.174l-.388-8.624c-.053-1.2.767-1.726 1.83-1.174l9.952 5.168c1.064.552 1.97 1.974 2.025 3.173l.208 4.637zm30.08 4.057c-.764-1.271-1.832-2.375-2.993-2.978L79.76 16.451c-.683-.355-1.317-.492-1.862-.44a2.047 2.047 0 0 0-.745.217 1.922 1.922 0 0 0-.766.75 1.838 1.838 0 0 0-.078.146c-.225.455-.335 1.039-.304 1.73l1.507 33.564c.03.693.2 1.421.476 2.135.03.079.063.159.095.238a9.425 9.425 0 0 0 1.021 1.813c.305.425.645.82 1.007 1.174a6.653 6.653 0 0 0 1.554 1.15l43.57 22.621c2.188 1.135 3.87.053 3.76-2.414l-1.506-33.551c-.051-1.154-.488-2.406-1.16-3.53z"/>
        <path stroke="#000" stroke-linejoin="round" stroke-width="2" d="M96.249 37.997l.18 3.988c.052 1.2-.766 1.726-1.831 1.173l-9.95-5.167c-1.065-.553-1.972-1.974-2.026-3.174l-.388-8.624c-.053-1.2.767-1.726 1.83-1.174l9.952 5.168c1.064.552 1.97 1.974 2.025 3.173l.208 4.637zm30.08 4.057c-.764-1.271-1.832-2.375-2.993-2.978L79.76 16.451c-.683-.355-1.317-.492-1.862-.44a2.047 2.047 0 0 0-.745.217 1.922 1.922 0 0 0-.766.75 1.838 1.838 0 0 0-.078.146c-.225.455-.335 1.039-.304 1.73l1.507 33.564c.03.693.2 1.421.476 2.135.03.079.063.159.095.238a9.425 9.425 0 0 0 1.021 1.813c.305.425.645.82 1.007 1.174a6.653 6.653 0 0 0 1.554 1.15l43.57 22.621c2.188 1.135 3.87.053 3.76-2.414l-1.506-33.551c-.051-1.154-.488-2.406-1.16-3.53z"/>
        <path fill="#9595EF" d="M100.048 60.62c.498.262.923.986.95 1.616.029.632-.352.93-.85.67l-16.195-8.527c-.498-.26-.923-.985-.952-1.615-.027-.631.352-.931.85-.67l16.197 8.526zM110.916 65.66c.481.246.937.83 1.053 1.4.157.772-.302 1.142-.92.828l-6.965-3.55c-.48-.244-.937-.828-1.053-1.398-.156-.772.3-1.143.92-.828l6.965 3.548zM98.86 50.895c.934.52 1.812 1.75 2.062 2.966.359 1.743-.567 2.594-1.822 1.894l-2.96-1.65c-.933-.521-1.811-1.748-2.062-2.965-.36-1.743.568-2.594 1.822-1.896l2.96 1.651zM119.86 62.895c.934.52 1.812 1.75 2.062 2.965.36 1.745-.567 2.594-1.822 1.895l-2.96-1.65c-.933-.52-1.811-1.749-2.062-2.965-.36-1.744.568-2.593 1.822-1.896l2.96 1.65zM109.86 56.895c.935.52 1.812 1.75 2.062 2.965.36 1.744-.567 2.595-1.822 1.895l-2.96-1.649c-.933-.522-1.81-1.75-2.062-2.967-.359-1.743.568-2.593 1.822-1.895l2.96 1.651zM87.86 45.895c.934.52 1.812 1.749 2.062 2.966.359 1.743-.566 2.594-1.822 1.894l-2.96-1.65c-.934-.521-1.811-1.749-2.062-2.965-.36-1.743.568-2.594 1.822-1.896l2.96 1.651zM116.747 41.551c-1.36-.683-2.567-.71-3.423-.199-.878.525-1.388 1.615-1.318 3.14.072 1.523.708 3.19 1.68 4.642.945 1.416 2.205 2.63 3.566 3.314 2.758 1.387 4.88.07 4.742-2.938-.14-3.01-2.488-6.573-5.247-7.959M80.001 25.09l.35 10.538c.026.749.474 1.42 1.164 1.747l12.38 6.42c1.357.644 2.94-.306 2.966-1.779L97 31.406a2.015 2.015 0 0 0-1.135-1.838l-12.87-6.348c-1.401-.692-3.049.337-2.994 1.87"/>
        <path fill="#FFF" d="M44.366 38.902l.849 58.482a5.44 5.44 0 0 0 2.75 4.727l64.828 36.939c3.105 1.769 7.15-4.14 7.022-6.097l1.295-58.274c.017-1.98-1.842-3.082-3.57-4.056L49.748 32.622s.192-1.281 2.4-2.422"/>
        <path stroke="#000" stroke-linejoin="round" stroke-width="2" d="M44.366 38.902l.849 58.482a5.44 5.44 0 0 0 2.75 4.727l64.828 36.939c3.105 1.769 7.15-4.14 7.022-6.097l1.295-58.274c.017-1.98-1.842-3.082-3.57-4.056L49.748 32.622s.192-1.281 2.4-2.422"/>
        <path fill="#FFF" d="M111.626 140.995c3.924-.57 9.374-5.122 9.374-5.122V73l-7.39 2.687s-6.57 65.974-1.984 65.308"/>
        <path stroke="#000" stroke-linejoin="round" stroke-width="2" d="M111.626 140.995c3.924-.57 9.374-5.122 9.374-5.122V73l-7.39 2.687s-6.57 65.974-1.984 65.308z"/>
        <path fill="#FFF" d="M40 40.46v58.234a5.445 5.445 0 0 0 2.745 4.728l64.715 36.956c3.1 1.77 6.961-.448 6.993-4.015l.514-58.113c.016-1.98.334-3.17-1.39-4.145L41.953 33S40 36.29 40 40.46"/>
        <path stroke="#000" stroke-linejoin="round" stroke-width="2" d="M40 40.46v58.234a5.445 5.445 0 0 0 2.745 4.728l64.715 36.956c3.1 1.77 6.961-.448 6.993-4.015l.514-58.113c.016-1.98.334-3.17-1.39-4.145L41.953 33S40 36.29 40 40.46z"/>
        <path fill="#FFF" d="M90.698 110.379c7.421 3.64 15.874 7.584 22.999 11.621.554-10.115-.253-20.227.303-30.342-7.162-3.828-12.506-6.652-19.69-10.45-7.284-4.23-16.385 3.533-16.256 9.657L78 92.082c.129 7.769 4.988 13.477 12.698 18.297"/>
        <path stroke="#000" stroke-linejoin="round" stroke-width="1.755" d="M90.698 110.379c7.421 3.64 15.874 7.584 22.999 11.621.554-10.115-.253-20.227.303-30.342-7.162-3.828-12.506-6.652-19.69-10.45-7.284-4.23-16.385 3.533-16.256 9.657L78 92.082c.129 7.769 4.988 13.477 12.698 18.297z"/>
        <path fill="#FFF" d="M97.97 98.449c-.336 3.753-3.194 5.536-6.362 4-3.169-1.539-5.772-6.038-5.6-9.908.17-3.87 3.143-5.57 6.499-3.901 3.354 1.67 5.798 6.055 5.462 9.809"/>
        <path stroke="#000" stroke-linejoin="round" stroke-width="1.755" d="M97.97 98.449c-.336 3.753-3.194 5.536-6.362 4-3.169-1.539-5.772-6.038-5.6-9.908.17-3.87 3.143-5.57 6.499-3.901 3.354 1.67 5.798 6.055 5.462 9.809z"/>
        <path fill="#FFF" d="M90.549 113.415c7.802 3.63 16.686 7.56 24.176 11.585.569-10.054-.293-20.108.275-30.161-7.529-3.815-15.08-7.599-22.632-11.384-7.657-4.216-14.458 1.477-14.313 7.564L78 92.229c.147 7.722 4.443 16.384 12.549 21.186"/>
        <path stroke="#000" stroke-linejoin="round" stroke-width="1.781" d="M90.549 113.415c7.802 3.63 16.686 7.56 24.176 11.585.569-10.054-.293-20.108.275-30.161-7.529-3.815-15.08-7.599-22.632-11.384-7.657-4.216-14.458 1.477-14.313 7.564L78 92.229c.147 7.722 4.443 16.384 12.549 21.186z"/>
        <path fill="#9595EF" d="M97.97 101.456c-.33 3.752-3.182 5.531-6.351 3.988-3.17-1.54-5.777-6.042-5.612-9.91.166-3.87 3.135-5.565 6.489-3.89 3.356 1.673 5.804 6.06 5.474 9.812"/>
        <path stroke="#000" stroke-linejoin="round" stroke-width="1.781" d="M97.97 101.456c-.33 3.752-3.182 5.531-6.351 3.988-3.17-1.54-5.777-6.042-5.612-9.91.166-3.87 3.135-5.565 6.489-3.89 3.356 1.673 5.804 6.06 5.474 9.812z"/>
        <path fill="#FFF" d="M114.271 92.038L140 80l-.386 28.197L114 122z"/>
        <path stroke="#000" stroke-linejoin="round" stroke-width="1.781" d="M114.271 92.038L140 80l-.386 28.197L114 122z"/>
        <path fill="#FFF" d="M114.271 95.038L140 83l-.386 28.197L114 125z"/>
        <path stroke="#000" stroke-linejoin="round" stroke-width="1.781" d="M114.271 95.038L140 83l-.386 28.197L114 125z"/>
    </g>
</svg>
