<svg xmlns="http://www.w3.org/2000/svg" width="218" height="182" viewBox="0 0 218 182">
    <g fill="none" fill-rule="evenodd">
        <path fill="#9595EF" d="M156.181 76.654c9.066 4.44 18.077 9.01 27.226 13.185 19.523 8.908 35.698 18.448 34.534 42.567-2.005 41.543-43.211 56.062-137.533 47.012-82.09-7.877-91.786-52.408-71.092-82.211 10.226-14.728 21.459-30.805 38.632-37.53 17.503-6.853 37.218-6.987 55.428-3.138 18.638 3.94 35.818 11.798 52.805 20.115" opacity=".57"/>
        <path fill="#FFF" d="M82.605 2.077l54.441 31.66a6.331 6.331 0 0 1 3.19 5.496v97.501c0 4.862-5.252 7.91-9.473 5.497l-55.405-31.659a6.333 6.333 0 0 1-3.19-5.498v-97.5c0-4.86 6.216-7.909 10.437-5.497"/>
        <path stroke="#000" stroke-linejoin="round" stroke-width="1.927" d="M82.605 2.077l54.441 31.66a6.331 6.331 0 0 1 3.19 5.496v97.501c0 4.862-5.252 7.91-9.473 5.497l-55.405-31.659a6.333 6.333 0 0 1-3.19-5.498v-97.5c0-4.86 6.216-7.909 10.437-5.497z"/>
        <path fill="#FFF" d="M120.19 152.215l20.046-10.871-.2-103.684c-.013-1.046-.719-1.494-.719-1.494l-15.899 8.886-3.228 105.563v1.6z"/>
        <path stroke="#000" stroke-linejoin="round" stroke-width="1.927" d="M120.19 152.215l20.046-10.871-.2-103.684c-.013-1.046-.719-1.494-.719-1.494l-15.899 8.886-3.228 105.563v1.6z"/>
        <path fill="#FFF" d="M59.335 11.751L76.261 1.722C77.51.964 78.698.971 78.882.965c.874-.025 2.192.237 3.723 1.112l54.305 31.582c.09.051.172.115.242.192l1.323 1.415a1.032 1.032 0 0 1-.193 1.571l-16.747 10.84a1.032 1.032 0 0 1-1.065.034L59.375 13.528a1.032 1.032 0 0 1-.04-1.777"/>
        <path stroke="#000" stroke-linejoin="round" stroke-width="1.927" d="M59.335 11.751L76.261 1.722C77.51.964 78.698.971 78.882.965c.874-.025 2.192.237 3.723 1.112l54.305 31.582c.09.051.172.115.242.192l1.323 1.415a1.032 1.032 0 0 1-.193 1.571l-16.747 10.84a1.032 1.032 0 0 1-1.065.034L59.375 13.528a1.032 1.032 0 0 1-.04-1.777z"/>
        <path fill="#FFF" d="M65.307 11.8l55.405 31.659a6.335 6.335 0 0 1 3.19 5.498v97.5c0 4.863-5.252 7.91-9.473 5.498l-55.405-31.66a6.332 6.332 0 0 1-3.19-5.497V17.297c0-4.861 5.252-7.91 9.473-5.497"/>
        <path stroke="#000" stroke-linejoin="round" stroke-width="1.927" d="M65.307 11.8l55.405 31.659a6.335 6.335 0 0 1 3.19 5.498v97.5c0 4.863-5.252 7.91-9.473 5.498l-55.405-31.66a6.332 6.332 0 0 1-3.19-5.497V17.297c0-4.861 5.252-7.91 9.473-5.497z"/>
        <path fill="#9595EF" d="M65.329 38.741l49.708 28.404c1.268.725 2.844-.19 2.844-1.65V51.616c0-.682-.365-1.312-.958-1.65L67.215 21.561c-1.267-.724-2.844.191-2.844 1.651v13.88a1.9 1.9 0 0 0 .958 1.65M102.973 88.148c2.235 1.257 3.375 1.894 5.839 3.15v1.772c-2.488-1.269-3.624-1.909-5.853-3.169l-1.564-.888c-2.193-1.25-3.25-1.867-5.451-3.054v-1.773c2.194 1.202 3.257 1.823 5.459 3.073l1.57.89z"/>
        <path stroke="#9595EF" stroke-width=".241" d="M102.973 88.148c2.235 1.257 3.375 1.894 5.839 3.15v1.772c-2.488-1.269-3.624-1.909-5.853-3.169l-1.564-.888c-2.193-1.25-3.25-1.867-5.451-3.054v-1.773c2.194 1.202 3.257 1.823 5.459 3.073l1.57.89z"/>
        <path fill="#FFF" d="M61.392 48.577V70.6c0 .697.37 1.341.973 1.692l19.792 10.634c1.304.758 2.94-.182 2.94-1.692V59.38c0-.693-.366-1.334-.962-1.686l-19.792-10.8c-1.304-.77-2.951.17-2.951 1.684"/>
        <path stroke="#000" stroke-linejoin="round" stroke-width="1.927" d="M61.392 48.577V70.6c0 .697.37 1.341.973 1.692l19.792 10.634c1.304.758 2.94-.182 2.94-1.692V59.38c0-.693-.366-1.334-.962-1.686l-19.792-10.8c-1.304-.77-2.951.17-2.951 1.684z"/>
        <path fill="#FFF" d="M78.865 85.976l5.67-3.37s.561-.223.561-2.81V59.379s.173-1.066-.96-1.685L64.342 46.893s-.563-.484-1.249-.257a4.378 4.378 0 0 0-1.209.646l-4.304 2.428 11.207 15.776 10.077 20.49z"/>
        <path stroke="#000" stroke-linejoin="round" stroke-width="1.927" d="M78.865 85.976l5.67-3.37s.561-.223.561-2.81V59.379s.173-1.066-.96-1.685L64.342 46.893s-.563-.484-1.249-.257a4.378 4.378 0 0 0-1.209.646l-4.304 2.428 11.207 15.776 10.077 20.49z"/>
        <path fill="#FFF" d="M56.436 51.487V73.51c0 .698.37 1.341.973 1.692L77.2 85.836c1.305.758 2.941-.183 2.941-1.692V62.288a1.96 1.96 0 0 0-.962-1.686l-19.792-10.8c-1.304-.77-2.95.17-2.95 1.685"/>
        <path stroke="#000" stroke-linejoin="round" stroke-width="1.927" d="M56.436 51.487V73.51c0 .698.37 1.341.973 1.692L77.2 85.836c1.305.758 2.941-.183 2.941-1.692V62.288a1.96 1.96 0 0 0-.962-1.686l-19.792-10.8c-1.304-.77-2.95.17-2.95 1.685z"/>
        <path fill="#FFF" d="M93.428 66.078v22.023c0 .697.37 1.341.973 1.692l19.792 10.634c1.304.76 2.94-.182 2.94-1.692V76.88c0-.693-.366-1.334-.962-1.686l-19.791-10.8c-1.305-.77-2.952.17-2.952 1.684"/>
        <path stroke="#000" stroke-linejoin="round" stroke-width="1.927" d="M93.428 66.078v22.023c0 .697.37 1.341.973 1.692l19.792 10.634c1.304.76 2.94-.182 2.94-1.692V76.88c0-.693-.366-1.334-.962-1.686l-19.791-10.8c-1.305-.77-2.952.17-2.952 1.684z"/>
        <path fill="#FFF" d="M110.902 103.477l5.669-3.37s.562-.223.562-2.81V76.88s.172-1.066-.962-1.685L96.38 64.394s-.563-.484-1.25-.257c-.685.228-1.208.646-1.208.646l-4.304 2.428 11.207 15.776 10.077 20.49z"/>
        <path stroke="#000" stroke-linejoin="round" stroke-width="1.927" d="M110.902 103.477l5.669-3.37s.562-.223.562-2.81V76.88s.172-1.066-.962-1.685L96.38 64.394s-.563-.484-1.25-.257c-.685.228-1.208.646-1.208.646l-4.304 2.428 11.207 15.776 10.077 20.49z"/>
        <path fill="#FFF" d="M88.472 68.988V91.01c0 .698.371 1.341.973 1.692l19.792 10.635c1.304.758 2.94-.183 2.94-1.692V79.79c0-.693-.366-1.333-.962-1.685l-19.79-10.802c-1.306-.769-2.953.171-2.953 1.686"/>
        <path stroke="#000" stroke-linejoin="round" stroke-width="1.927" d="M88.472 68.988V91.01c0 .698.371 1.341.973 1.692l19.792 10.635c1.304.758 2.94-.183 2.94-1.692V79.79c0-.693-.366-1.333-.962-1.685l-19.79-10.802c-1.306-.769-2.953.171-2.953 1.686z"/>
        <path fill="#FFF" d="M58.92 83.78V105.8c0 .697.37 1.341.972 1.692l19.791 10.635c1.305.758 2.941-.183 2.941-1.692V94.58a1.96 1.96 0 0 0-.961-1.686l-19.793-10.8c-1.304-.77-2.95.17-2.95 1.685"/>
        <path stroke="#000" stroke-linejoin="round" stroke-width="1.927" d="M58.92 83.78V105.8c0 .697.37 1.341.972 1.692l19.791 10.635c1.305.758 2.941-.183 2.941-1.692V94.58a1.96 1.96 0 0 0-.961-1.686l-19.793-10.8c-1.304-.77-2.95.17-2.95 1.685z"/>
        <path fill="#FFF" d="M76.393 121.178l5.67-3.37s.561-.224.561-2.81V94.58s.173-1.066-.96-1.685L61.87 82.094s-.563-.484-1.249-.257c-.686.228-1.209.647-1.209.647L55.11 84.91l11.207 15.777 10.077 20.49z"/>
        <path stroke="#000" stroke-linejoin="round" stroke-width="1.927" d="M76.393 121.178l5.67-3.37s.561-.224.561-2.81V94.58s.173-1.066-.96-1.685L61.87 82.094s-.563-.484-1.249-.257c-.686.228-1.209.647-1.209.647L55.11 84.91l11.207 15.777 10.077 20.49z"/>
        <path fill="#FFF" d="M53.963 86.689v22.022c0 .698.371 1.341.973 1.692l19.792 10.634c1.304.758 2.941-.181 2.941-1.692V97.49c0-.694-.366-1.334-.962-1.685L56.915 85.002c-1.305-.768-2.952.172-2.952 1.687"/>
        <path stroke="#000" stroke-linejoin="round" stroke-width="1.927" d="M53.963 86.689v22.022c0 .698.371 1.341.973 1.692l19.792 10.634c1.304.758 2.941-.181 2.941-1.692V97.49c0-.694-.366-1.334-.962-1.685L56.915 85.002c-1.305-.768-2.952.172-2.952 1.687z"/>
        <path fill="#9595EF" d="M68.936 60.485l-.052 6.868c2.235 1.257 3.374 1.894 5.839 3.15v1.772c-2.488-1.269-3.624-1.909-5.853-3.169l-.053 6.926-1.543-.889.032-6.925c-2.194-1.25-3.25-1.867-5.451-3.054v-1.773c2.194 1.202 3.257 1.823 5.458 3.073l.032-6.866c.633.356.95.533 1.59.887"/>
        <path stroke="#9595EF" stroke-width=".241" d="M68.936 60.485l-.052 6.868c2.235 1.257 3.374 1.894 5.839 3.15v1.772c-2.488-1.269-3.624-1.909-5.853-3.169l-.053 6.926-1.543-.889.032-6.925c-2.194-1.25-3.25-1.867-5.451-3.054v-1.773c2.194 1.202 3.257 1.823 5.458 3.073l.032-6.866c.633.356.95.533 1.59.887z"/>
        <path stroke="#9595EF" stroke-linecap="round" stroke-linejoin="round" stroke-width="1.927" d="M60.578 96.585l8.293 14.301M71.04 100.624l-11.483 6.001"/>
        <path fill="#9595EF" d="M100.106 83.339c2.235 1.257 3.375 1.894 5.839 3.149v1.773c-2.488-1.27-3.624-1.91-5.853-3.17l-1.564-.887c-2.194-1.25-3.25-1.867-5.452-3.054v-1.773c2.195 1.202 3.258 1.823 5.46 3.074l1.57.888z"/>
        <path stroke="#9595EF" stroke-width=".241" d="M100.106 83.339c2.235 1.257 3.375 1.894 5.839 3.149v1.773c-2.488-1.27-3.624-1.91-5.853-3.17l-1.564-.887c-2.194-1.25-3.25-1.867-5.452-3.054v-1.773c2.195 1.202 3.258 1.823 5.46 3.074l1.57.888z"/>
        <path fill="#FFF" d="M90.956 102.28v22.022c0 .697.37 1.341.973 1.692l19.792 10.635c1.304.758 2.94-.183 2.94-1.692v-21.856a1.96 1.96 0 0 0-.962-1.686l-19.791-10.8c-1.305-.77-2.952.17-2.952 1.685"/>
        <path stroke="#000" stroke-linejoin="round" stroke-width="1.927" d="M90.956 102.28v22.022c0 .697.37 1.341.973 1.692l19.792 10.635c1.304.758 2.94-.183 2.94-1.692v-21.856a1.96 1.96 0 0 0-.962-1.686l-19.791-10.8c-1.305-.77-2.952.17-2.952 1.685z"/>
        <path fill="#FFF" d="M108.43 139.679l5.67-3.37s.561-.224.561-2.81V113.08s.172-1.066-.962-1.685l-19.792-10.801s-.562-.484-1.249-.257a4.365 4.365 0 0 0-1.209.647l-4.304 2.427 11.207 15.777 10.077 20.49z"/>
        <path stroke="#000" stroke-linejoin="round" stroke-width="1.927" d="M108.43 139.679l5.67-3.37s.561-.224.561-2.81V113.08s.172-1.066-.962-1.685l-19.792-10.801s-.562-.484-1.249-.257a4.365 4.365 0 0 0-1.209.647l-4.304 2.427 11.207 15.777 10.077 20.49z"/>
        <path fill="#FFF" d="M86 105.19v22.023c0 .697.371 1.34.973 1.69l19.791 10.636c1.305.758 2.941-.182 2.941-1.692V115.99c0-.692-.366-1.332-.962-1.684l-19.792-10.802c-1.304-.77-2.951.17-2.951 1.685"/>
        <path stroke="#000" stroke-linejoin="round" stroke-width="1.927" d="M86 105.19v22.023c0 .697.371 1.34.973 1.69l19.791 10.636c1.305.758 2.941-.182 2.941-1.692V115.99c0-.692-.366-1.332-.962-1.684l-19.792-10.802c-1.304-.77-2.951.17-2.951 1.685z"/>
        <path fill="#9595EF" d="M98.447 120.8c2.235 1.258 3.375 1.895 5.84 3.15v1.773c-2.489-1.27-3.625-1.91-5.854-3.17l-1.564-.887c-2.193-1.25-3.249-1.867-5.45-3.054v-1.773c2.193 1.202 3.256 1.823 5.458 3.073l1.57.889z"/>
        <path stroke="#9595EF" stroke-width=".241" d="M98.447 120.8c2.235 1.258 3.375 1.895 5.84 3.15v1.773c-2.489-1.27-3.625-1.91-5.854-3.17l-1.564-.887c-2.193-1.25-3.249-1.867-5.45-3.054v-1.773c2.193 1.202 3.256 1.823 5.458 3.073l1.57.889z"/>
        <path fill="#9595EF" d="M99.51 117.018c-.01 1.28-.964 1.789-2.04 1.18-1.075-.61-1.872-2.146-1.866-3.434.007-1.287.917-1.856 2.008-1.217 1.09.64 1.908 2.189 1.899 3.47M99.51 128.316c-.01 1.281-.964 1.79-2.04 1.18-1.075-.609-1.872-2.146-1.866-3.433.007-1.288.917-1.857 2.008-1.217 1.09.64 1.908 2.19 1.899 3.47"/>
    </g>
</svg>
