<svg xmlns="http://www.w3.org/2000/svg" width="219" height="146" viewBox="0 0 219 146">
    <g fill="none" fill-rule="evenodd">
        <path fill="#9595EF" d="M70.88 38.435C34.658 50.817 3.465 48.615.176 89.735c-3.054 38.18 33.474 63.995 126.964 54.167 82.486-8.672 103.99-42.87 84.066-72.843-9.961-14.988-40.877-38.163-68.644-44.321-27.767-6.159-53.726 5.56-71.682 11.697" opacity=".57"/>
        <path fill="#FFF" d="M206 66.855h-12.979l-90.154-52.09a13.148 13.148 0 0 0-13.191.018L36.064 45.958H21v12.614c.005 2.246 1.12 4.49 3.342 5.768l98.867 56.906a13.148 13.148 0 0 0 13.002.068l66.387-37.29a6.561 6.561 0 0 0 3.27-4.555H206V66.855z"/>
        <path stroke="#000" stroke-linejoin="round" stroke-width="2" d="M206 66.855h-12.979l-90.154-52.09a13.148 13.148 0 0 0-13.191.018L36.064 45.958H21v12.614c.005 2.246 1.12 4.49 3.342 5.768l98.867 56.906a13.148 13.148 0 0 0 13.002.068l66.387-37.29a6.561 6.561 0 0 0 3.27-4.555H206V66.855z"/>
        <path fill="#FFF" d="M89.676 2.783L24.316 40.79c-4.432 2.577-4.419 8.992.025 11.55l98.868 56.905a13.148 13.148 0 0 0 13.002.07l66.387-37.292c4.505-2.53 4.544-9.009.07-11.594L102.867 2.765a13.148 13.148 0 0 0-13.191.018"/>
        <path stroke="#000" stroke-linejoin="round" stroke-width="2" d="M89.676 2.783L24.316 40.79c-4.432 2.577-4.419 8.992.025 11.55l98.868 56.905a13.148 13.148 0 0 0 13.002.07l66.387-37.292c4.505-2.53 4.544-9.009.07-11.594L102.867 2.765a13.148 13.148 0 0 0-13.191.018z"/>
        <path stroke="#9595EF" stroke-linecap="round" stroke-width="6" d="M60 43.388c9.073-3.572 29.684-15.297 41.412-5.685 11.727 9.614-2.133 37.311 13.86 46.855 15.991 9.544 29.402-10.824 16.655-27.604"/>
        <path fill="#FFF" d="M70.902 81.847c-3.373-1.965-6.83-2.4-8.139-1.12L43 91.697 54.263 101l20.185-11.206c.595-.174 1.053-.483 1.313-.938.99-1.73-1.186-4.868-4.859-7.009"/>
        <path stroke="#000" stroke-linejoin="round" stroke-width="2" d="M70.902 81.847c-3.373-1.965-6.83-2.4-8.139-1.12L43 91.697 54.263 101l20.185-11.206c.595-.174 1.053-.483 1.313-.938.99-1.73-1.186-4.868-4.859-7.009z"/>
        <path fill="#FFF" d="M66 95.837H54.848v2.404l-8.95-4.903a4.951 4.951 0 0 0-1.746-.565V89H33v10h.028a2.15 2.15 0 0 0 1.072 1.566l18.628 10.77a4.973 4.973 0 0 0 4.806.088l7.293-3.862a2.159 2.159 0 0 0 1.16-1.726H66v-10z"/>
        <path stroke="#000" stroke-linejoin="round" stroke-width="2" d="M66 95.837H54.848v2.404l-8.95-4.903a4.951 4.951 0 0 0-1.746-.565V89H33v10h.028a2.15 2.15 0 0 0 1.072 1.566l18.628 10.77a4.973 4.973 0 0 0 4.806.088l7.293-3.862a2.159 2.159 0 0 0 1.16-1.726H66v-10z"/>
        <path fill="#FFF" d="M41.323 82.5l-7.089 3.435a2.125 2.125 0 0 0-.134 3.791l18.629 10.62a5.033 5.033 0 0 0 4.804.086l7.294-3.808a2.126 2.126 0 0 0 .028-3.786L45.897 82.6a5.04 5.04 0 0 0-4.574-.098"/>
        <path stroke="#000" stroke-linejoin="round" stroke-width="2" d="M41.323 82.5l-7.089 3.435a2.125 2.125 0 0 0-.134 3.791l18.629 10.62a5.033 5.033 0 0 0 4.804.086l7.294-3.808a2.126 2.126 0 0 0 .028-3.786L45.897 82.6a5.04 5.04 0 0 0-4.574-.098z"/>
        <path fill="#FFF" d="M132 57l10.08-20.304L153.164 34 161 46.522l-5.543 9.245L132 57l14.5-9.453-.215-.104z"/>
        <path stroke="#000" stroke-linejoin="round" stroke-width="2" d="M132 57l10.08-20.304L153.164 34 161 46.522l-5.543 9.245L132 57l14.5-9.453-.215-.104z"/>
        <path fill="#FFF" d="M149 47a2 2 0 1 1-4 0 2 2 0 0 1 4 0"/>
        <path stroke="#000" stroke-linejoin="round" stroke-width="2" d="M149 47a2 2 0 1 1-4 0 2 2 0 0 1 4 0z"/>
        <path fill="#FFF" d="M154 33.61L161.816 46 169 41.753 160.747 29z"/>
        <path stroke="#000" stroke-linejoin="round" stroke-width="2" d="M154 33.61L161.816 46 169 41.753 160.747 29z"/>
        <path fill="#FFF" d="M88.848 29.265l23.687 15.272"/>
        <path stroke="#000" stroke-linejoin="round" stroke-width="2" d="M88.848 29.265l23.687 15.272"/>
        <path fill="#FFF" d="M89 28a1 1 0 1 1-2 0 1 1 0 0 1 2 0"/>
        <path stroke="#000" stroke-linejoin="round" stroke-width="2" d="M89 28a1 1 0 1 1-2 0 1 1 0 0 1 2 0z"/>
        <path fill="#FFF" d="M113 44a1 1 0 1 1-2.001-.001A1 1 0 0 1 113 44"/>
        <path stroke="#000" stroke-linejoin="round" stroke-width="2" d="M113 44a1 1 0 1 1-2.001-.001A1 1 0 0 1 113 44z"/>
        <path fill="#FFF" d="M48.012 50.36l24.325-14.143"/>
        <path stroke="#000" stroke-linejoin="round" stroke-width="2" d="M48.012 50.36l24.325-14.143"/>
        <path fill="#FFF" d="M47.466 49.115a1 1 0 1 1-.932 1.77 1 1 0 0 1 .932-1.77"/>
        <path stroke="#000" stroke-linejoin="round" stroke-width="2" d="M47.466 49.115a1 1 0 1 1-.932 1.77 1 1 0 0 1 .932-1.77z"/>
        <path fill="#FFF" d="M72.466 35.115a1 1 0 1 1-.93 1.771 1 1 0 0 1 .93-1.771"/>
        <path stroke="#000" stroke-linejoin="round" stroke-width="2" d="M72.466 35.115a1 1 0 1 1-.93 1.771 1 1 0 0 1 .93-1.771z"/>
        <path fill="#FFF" d="M101.03 76.135l23.615 15.271"/>
        <path stroke="#000" stroke-linejoin="round" stroke-width="2" d="M101.03 76.135l23.615 15.271"/>
        <path fill="#FFF" d="M102 75a1 1 0 1 1-2 0 1 1 0 0 1 2 0"/>
        <path stroke="#000" stroke-linejoin="round" stroke-width="2" d="M102 75a1 1 0 1 1-2 0 1 1 0 0 1 2 0z"/>
        <path fill="#FFF" d="M126 91a1 1 0 1 1-2 0 1 1 0 0 1 2 0"/>
        <path stroke="#000" stroke-linejoin="round" stroke-width="2" d="M126 91a1 1 0 1 1-2 0 1 1 0 0 1 2 0z"/>
    </g>
</svg>
