<svg xmlns="http://www.w3.org/2000/svg" width="98" height="110" fill="none" viewBox="0 0 98 110">
    <path fill="#1D2755" d="M4.085 79.916h17.683v1.157a4.456 4.456 0 0 0 4.45 4.45h2.432l-7.374 20.26c-.745 2.048.775 4.217 2.953 4.217h6.944a3.152 3.152 0 0 0 2.953-2.068l8.156-22.408h2.682a1.612 1.612 0 1 0 0-3.223H26.22a1.23 1.23 0 0 1-1.228-1.228v-1.157h47.562v1.157a1.23 1.23 0 0 1-1.228 1.228h-18.84a1.61 1.61 0 1 0 0 3.223h2.776l8.156 22.408A3.151 3.151 0 0 0 66.37 110h6.945c2.178 0 3.696-2.17 2.952-4.217l-7.374-20.26h2.432a4.456 4.456 0 0 0 4.45-4.45v-1.157h17.683a4.09 4.09 0 0 0 4.085-4.085v-4.639a4.088 4.088 0 0 0-3.467-4.033v-23.44a1.611 1.611 0 1 0-3.223 0v23.388H6.69V12.809h84.163v23.389a1.611 1.611 0 0 0 3.223 0v-23.44a4.088 4.088 0 0 0 3.467-4.034V4.085A4.09 4.09 0 0 0 93.458 0H4.085A4.09 4.09 0 0 0 0 4.085v4.639a4.088 4.088 0 0 0 3.467 4.033v54.401A4.089 4.089 0 0 0 0 71.191v4.639a4.09 4.09 0 0 0 4.085 4.086zm34.767 5.608l-7.736 21.253h-6.771l7.735-21.253h6.772zM73.2 106.777h-6.772l-7.736-21.253h6.773l7.735 21.253zM3.223 4.085c0-.467.395-.862.862-.862h89.373c.467 0 .863.395.863.862v4.639a.875.875 0 0 1-.863.863H4.085a.875.875 0 0 1-.862-.863V4.085zm0 67.107c0-.467.395-.863.862-.863h89.373c.467 0 .863.396.863.863v4.639a.874.874 0 0 1-.863.862H4.085a.874.874 0 0 1-.862-.862v-4.639z"/>
    <path fill="#1D2755" d="M81.323 27.988a5.96 5.96 0 0 0-5.953-5.953c-3.576 0-6.386 3.159-5.896 6.759L57.063 45.188 45.79 34.69a5.96 5.96 0 0 0-5.947-5.73 5.96 5.96 0 0 0-5.947 5.73L22.28 45.508a5.957 5.957 0 0 0-6.154 5.947 5.96 5.96 0 0 0 5.954 5.954 5.96 5.96 0 0 0 5.946-5.731L39.642 40.86c.202.006.192.007.402 0L51.66 51.677a5.96 5.96 0 0 0 5.948 5.73c3.575 0 6.386-3.158 5.896-6.758l12.692-16.767a5.96 5.96 0 0 0 5.128-5.894zm-5.953-2.73a2.733 2.733 0 0 1 2.73 2.73 2.731 2.731 0 0 1-2.742 2.73 2.744 2.744 0 0 1-2.718-2.73 2.733 2.733 0 0 1 2.73-2.73zm-35.527 6.925a2.733 2.733 0 0 1 2.73 2.73c0 1.51-1.245 2.73-2.73 2.73-1.47 0-2.73-1.204-2.73-2.73a2.733 2.733 0 0 1 2.73-2.73zM22.08 54.184a2.729 2.729 0 1 1 .47-5.416l.011.002a2.737 2.737 0 0 1 2.249 2.684 2.733 2.733 0 0 1-2.73 2.73zm4.97-6.001a5.987 5.987 0 0 0-1.354-1.452l9.177-8.547a5.995 5.995 0 0 0 1.354 1.453l-9.177 8.546zm17.763-9.999l9.178 8.547a5.993 5.993 0 0 0-1.354 1.453l-9.178-8.547a6.01 6.01 0 0 0 1.354-1.453zm12.794 16a2.733 2.733 0 0 1-2.73-2.73c0-1.342.98-2.457 2.247-2.684l.011-.002c1.69-.296 3.202 1.024 3.202 2.686a2.733 2.733 0 0 1-2.73 2.73zm2.75-8.007l10.682-14.112c.455.484.988.89 1.58 1.2L61.94 47.378a6.008 6.008 0 0 0-1.583-1.2z"/>
</svg>
