<svg xmlns="http://www.w3.org/2000/svg" width="98" height="110" fill="none" viewBox="0 0 98 110">
    <path fill="#1D2755" d="M4.085 79.916h17.683v1.157a4.456 4.456 0 0 0 4.45 4.45h2.432l-7.374 20.26c-.745 2.047.774 4.217 2.953 4.217h6.944a3.151 3.151 0 0 0 2.952-2.068l8.156-22.408h2.355a1.612 1.612 0 1 0 0-3.223H26.218c-.677 0-1.227-.55-1.227-1.228v-1.157h47.56v1.157c0 .678-.55 1.228-1.227 1.228H52.156a1.61 1.61 0 1 0 0 3.223h3.105l8.156 22.408A3.151 3.151 0 0 0 66.37 110h6.944c2.178 0 3.697-2.17 2.952-4.217l-7.373-20.26h2.43a4.456 4.456 0 0 0 4.451-4.45v-1.157h17.683a4.09 4.09 0 0 0 4.085-4.085v-4.639a4.088 4.088 0 0 0-3.466-4.033v-23.44a1.611 1.611 0 1 0-3.223 0v23.388H6.69V12.809h84.163v23.389a1.611 1.611 0 0 0 3.223 0v-23.44a4.088 4.088 0 0 0 3.467-4.034V4.085A4.09 4.09 0 0 0 93.457 0H4.085A4.09 4.09 0 0 0 0 4.085v4.639a4.088 4.088 0 0 0 3.467 4.033V67.16A4.088 4.088 0 0 0 0 71.192v4.639a4.09 4.09 0 0 0 4.085 4.085zm34.767 5.608l-7.736 21.253h-6.771l7.735-21.253h6.772zM73.2 106.777h-6.772l-7.736-21.253h6.772l7.736 21.253zM3.223 4.085c0-.467.395-.862.862-.862h89.373c.467 0 .863.395.863.862v4.639a.875.875 0 0 1-.863.863H4.085a.875.875 0 0 1-.862-.863V4.085zm0 67.107c0-.467.395-.863.862-.863h89.373c.467 0 .863.396.863.863v4.639a.874.874 0 0 1-.863.862H4.085a.874.874 0 0 1-.862-.862v-4.639z"/>
    <path fill="#1D2755" d="M29.716 20.022a6.983 6.983 0 0 0-6.975 6.975 6.982 6.982 0 0 0 6.975 6.975 6.982 6.982 0 0 0 6.975-6.975 6.983 6.983 0 0 0-6.975-6.975zm0 10.728a3.757 3.757 0 0 1-3.752-3.753 3.757 3.757 0 0 1 3.752-3.752 3.757 3.757 0 0 1 3.752 3.752 3.757 3.757 0 0 1-3.752 3.753zM55.269 52.919a6.983 6.983 0 0 0 6.974 6.975 6.982 6.982 0 0 0 6.975-6.975 6.983 6.983 0 0 0-6.975-6.975 6.983 6.983 0 0 0-6.974 6.975zm10.727 0a3.756 3.756 0 0 1-3.753 3.752 3.757 3.757 0 0 1-3.752-3.752 3.757 3.757 0 0 1 3.752-3.752 3.756 3.756 0 0 1 3.753 3.752zM35.281 47.354c-.63-.63-1.65-.63-2.28 0l-3.285 3.285-3.285-3.285a1.61 1.61 0 1 0-2.279 2.28l3.286 3.285-3.286 3.285a1.61 1.61 0 1 0 2.279 2.279l3.285-3.286 3.286 3.286a1.612 1.612 0 0 0 2.28-2.279l-3.286-3.285 3.285-3.286c.629-.63.629-1.65 0-2.28zM73.818 23.48l-8.093-4.952c-1.419-.868-3.187.21-3.187 1.93v3.443c-7.755.745-14.705 4.316-20.166 10.383-4.324 4.803-6.188 9.443-6.265 9.637a1.611 1.611 0 0 0 2.997 1.186c.065-.166 6.591-16.17 23.434-17.968v3.224c0 1.72 1.767 2.798 3.187 1.93l8.093-4.953c1.4-.857 1.402-3 0-3.86zm-8.057 5.012v-6.163l5.036 3.081-5.036 3.082z"/>
</svg>
