<svg xmlns="http://www.w3.org/2000/svg" width="192" height="177" viewBox="0 0 192 177">
    <g fill="none" fill-rule="evenodd">
        <path fill="#9595EF" d="M62.246 164.463c-31.81-10.874-59.203-8.94-62.092-45.051-2.682-33.53 29.397-56.2 111.499-47.57 72.439 7.616 91.324 37.648 73.826 63.97-8.748 13.162-35.898 33.515-60.282 38.923-24.385 5.408-47.182-4.883-62.951-10.272" opacity=".57"/>
        <path fill="#FFF" d="M62.053 13.842V96.05a5.237 5.237 0 0 0 2.656 4.556l63.756 36.082c3.489 1.974 7.813-.546 7.813-4.556V33.183a5.236 5.236 0 0 0-2.655-4.555L85.427 1"/>
        <path stroke="#000" stroke-linejoin="round" stroke-width="2" d="M62.053 13.842V96.05a5.237 5.237 0 0 0 2.656 4.556l63.756 36.082c3.489 1.974 7.813-.546 7.813-4.556V33.183a5.236 5.236 0 0 0-2.655-4.555L85.427 1"/>
        <path fill="#FFF" d="M62.053 13.842L81.65 23.74a2.166 2.166 0 0 0 3.048-1.906L85.427 1 62.053 13.842z"/>
        <path stroke="#000" stroke-linejoin="round" stroke-width="2" d="M62.053 13.842L81.65 23.74a2.166 2.166 0 0 0 3.048-1.906L85.427 1 62.053 13.842z"/>
        <path fill="#FFF" d="M49.172 21.086v82.208a5.236 5.236 0 0 0 2.657 4.556l63.755 36.082c3.49 1.974 7.813-.546 7.813-4.556v-98.95a5.234 5.234 0 0 0-2.655-4.554L72.546 8.242"/>
        <path stroke="#000" stroke-linejoin="round" stroke-width="2" d="M49.172 21.086v82.208a5.236 5.236 0 0 0 2.657 4.556l63.755 36.082c3.49 1.974 7.813-.546 7.813-4.556v-98.95a5.234 5.234 0 0 0-2.655-4.554L72.546 8.242"/>
        <path fill="#FFF" d="M49.172 21.086l19.598 9.898a2.166 2.166 0 0 0 3.048-1.906l.728-20.835-23.374 12.843z"/>
        <path stroke="#000" stroke-linejoin="round" stroke-width="2" d="M49.172 21.086l19.598 9.898a2.166 2.166 0 0 0 3.048-1.906l.728-20.835-23.374 12.843z"/>
        <path stroke="#9595EF" stroke-linecap="round" stroke-linejoin="round" stroke-width="3" d="M57.85 50.114l53.79 29.85M57.85 39.337l53.79 29.85M57.85 59.966l53.79 29.85M57.85 70.743l53.79 29.85M57.85 81.52l53.79 29.85M97.467 113.511l14.172 7.865"/>
        <path fill="#FFF" d="M32.257 54.625c-2.194 1.282-3.565 1.806-5.854 2.954-3.678 1.9-1.1 2.494.081 4.434 1.83 2.997 2.723 4.47 4.475 7.38 3.843-1.977 5.682-3.022 9.34-5.244"/>
        <path fill="#000" d="M30.96 69.995a.6.6 0 0 1-.517-.291 1227.766 1227.766 0 0 0-4.474-7.378c-.277-.454-.647-.833-1.006-1.198-.606-.618-1.177-1.202-1.048-2.001.115-.72.776-1.342 2.212-2.083a92.91 92.91 0 0 1 2.11-1.022c1.231-.582 2.294-1.086 3.717-1.918l.607 1.04c-1.468.859-2.553 1.372-3.809 1.967-.633.3-1.303.617-2.079 1.006-1.392.72-1.553 1.102-1.569 1.2-.032.2.368.608.72.968.386.395.825.842 1.174 1.414 1.726 2.827 2.62 4.3 4.186 6.9 3.595-1.86 5.425-2.914 8.802-4.964l.625 1.029c-3.557 2.16-5.41 3.225-9.377 5.264a.587.587 0 0 1-.274.067"/>
        <path fill="#FFF" d="M40.313 64.171c-3.657 2.222-5.496 3.267-9.339 5.244a1632.906 1632.906 0 0 1 24.508 42.454c3.662-2.29 5.542-3.281 9.455-5.132A2515.872 2515.872 0 0 1 40.313 64.17"/>
        <path fill="#000" d="M31.82 69.657a1642.582 1642.582 0 0 1 23.88 41.368c3.206-1.987 5.09-2.982 8.382-4.55a2527.233 2527.233 0 0 1-23.987-41.467c-3.057 1.85-4.889 2.897-8.275 4.649m23.662 42.815a.6.6 0 0 1-.526-.309 1649.521 1649.521 0 0 0-24.499-42.44.6.6 0 0 1 .241-.843c3.93-2.021 5.77-3.077 9.302-5.224a.598.598 0 0 1 .465-.067c.158.04.292.144.372.285a2531.896 2531.896 0 0 0 24.617 42.556.6.6 0 0 1-.26.85c-3.812 1.805-5.705 2.794-9.393 5.1a.605.605 0 0 1-.319.092"/>
        <path fill="#FFF" d="M55.513 111.897a506.416 506.416 0 0 1 11.548 9.296c-.864-6.012-1.28-8.85-2.091-14.426-3.914 1.85-5.794 2.842-9.457 5.13"/>
        <path fill="#000" d="M56.562 111.955c3.712 2.92 5.87 4.646 9.681 7.784-.526-3.652-.887-6.134-1.331-9.183l-.422-2.894c-3.091 1.474-4.931 2.443-7.928 4.293m10.5 9.84a.605.605 0 0 1-.385-.137 502.581 502.581 0 0 0-11.536-9.287.6.6 0 0 1 .052-.985c3.742-2.337 5.66-3.34 9.52-5.162a.602.602 0 0 1 .852.458l.538 3.7c.504 3.462.902 6.19 1.554 10.726a.604.604 0 0 1-.596.688"/>
        <path fill="#FFF" d="M33.114 54.271a.062.062 0 0 0-.046.006L20.49 60.753l40.577 63.766 5.994-3.326-2.09-14.426-28.113-48.034"/>
        <path fill="#000" d="M61.067 125.122c-.2 0-.395-.1-.51-.278L19.983 61.077a.597.597 0 0 1-.073-.48.596.596 0 0 1 .305-.378l12.579-6.477a.754.754 0 0 1 .439-.062l-.118.59.235.539-11.997 6.178 39.918 62.73 5.135-2.848-2.014-13.898-28.053-47.933 1.04-.61 28.112 48.036a.597.597 0 0 1 .076.218l2.09 14.425a.605.605 0 0 1-.302.614l-5.995 3.326a.608.608 0 0 1-.292.075"/>
        <path fill="#9595EF" d="M34.318 67.498l5.98-3.35s-4.474-7.1-6.513-9.562A1.4 1.4 0 0 0 32 54.269l-5.914 3.445 8.233 9.784z"/>
        <path fill="#000" d="M27.007 57.874l7.452 8.854 4.99-2.792c-1.08-1.698-4.461-6.952-6.128-8.966a.797.797 0 0 0-1.018-.18l-5.296 3.084zM34.319 68.1a.605.605 0 0 1-.461-.214l-8.233-9.784a.603.603 0 0 1 .158-.91l5.913-3.443a1.995 1.995 0 0 1 2.553.453c2.04 2.465 6.376 9.335 6.56 9.626a.603.603 0 0 1-.216.847l-5.981 3.348a.594.594 0 0 1-.293.077z"/>
        <path fill="#9595EF" d="M20.49 65.338c1.828 2.998 2.722 4.472 4.475 7.38 3.843-1.977 5.682-3.022 9.34-5.243-1.648-2.916-2.48-4.397-4.177-7.416-.546-.976-1.272-1.73-2.005-2.156-.73-.425-1.47-.521-2.038-.19-2.194 1.282-3.306 1.892-5.596 3.04-1.182.59-1.182 2.647 0 4.585"/>
        <path fill="#000" d="M21.004 65.025c1.726 2.828 2.619 4.3 4.186 6.899 3.413-1.763 5.235-2.804 8.303-4.661-1.463-2.591-2.295-4.07-3.89-6.91-.472-.843-1.121-1.546-1.782-1.93-.561-.325-1.084-.394-1.431-.189-2.264 1.322-3.37 1.924-5.631 3.058-.227.113-.386.328-.476.639-.231.801.046 1.987.72 3.094m3.962 8.296a.6.6 0 0 1-.516-.292 1281.3 1281.3 0 0 0-4.473-7.377c-.858-1.407-1.176-2.922-.85-4.054.183-.639.562-1.117 1.095-1.384 2.232-1.12 3.324-1.712 5.56-3.021.735-.428 1.698-.359 2.644.189.855.497 1.646 1.342 2.229 2.381 1.695 3.02 2.529 4.5 4.176 7.416a.603.603 0 0 1-.212.811c-3.56 2.162-5.414 3.225-9.378 5.264a.603.603 0 0 1-.275.067"/>
        <path fill="#FFF" d="M34.318 67.498c-3.657 2.222-5.496 3.267-9.339 5.244a1632.906 1632.906 0 0 1 24.508 42.454c3.662-2.29 5.542-3.282 9.455-5.133a2515.872 2515.872 0 0 1-24.624-42.565"/>
        <path fill="#000" d="M25.825 72.983a1647.392 1647.392 0 0 1 23.881 41.368c3.207-1.988 5.092-2.983 8.382-4.55A2495.261 2495.261 0 0 1 34.1 68.334c-3.05 1.847-4.88 2.893-8.275 4.649m23.663 42.815a.6.6 0 0 1-.526-.309 1645.3 1645.3 0 0 0-24.5-42.439.6.6 0 0 1 .241-.843c3.937-2.027 5.776-3.082 9.302-5.225a.602.602 0 0 1 .837.218 2490.828 2490.828 0 0 0 24.618 42.556.6.6 0 0 1-.26.852c-3.81 1.802-5.703 2.791-9.393 5.099a.605.605 0 0 1-.319.091"/>
        <path fill="#9595EF" d="M49.518 115.223a506.416 506.416 0 0 1 11.548 9.296c-.864-6.012-1.28-8.85-2.091-14.426-3.914 1.85-5.794 2.842-9.457 5.13"/>
        <path fill="#000" d="M50.567 115.28a476.84 476.84 0 0 1 9.68 7.785c-.546-3.802-.915-6.336-1.384-9.561l-.366-2.516c-3.093 1.473-4.932 2.444-7.93 4.293m10.499 9.84a.6.6 0 0 1-.383-.137 500.402 500.402 0 0 0-11.537-9.287.601.601 0 0 1 .053-.985c3.743-2.338 5.66-3.34 9.519-5.162a.602.602 0 0 1 .854.458l.483 3.322c.53 3.644.93 6.404 1.607 11.104a.606.606 0 0 1-.301.612.617.617 0 0 1-.295.076"/>
        <path fill="#9595EF" d="M58.975 110.093l5.995-3.326 2.09 14.426-5.994 3.326z"/>
        <path fill="#000" d="M59.63 110.419l1.907 13.15 4.868-2.7-1.906-13.15-4.868 2.7zm1.436 14.703a.598.598 0 0 1-.596-.515l-2.09-14.426a.603.603 0 0 1 .303-.614l5.994-3.326a.603.603 0 0 1 .889.44l2.09 14.426a.603.603 0 0 1-.302.614l-5.995 3.326a.597.597 0 0 1-.293.075z"/>
    </g>
</svg>
