<svg xmlns="http://www.w3.org/2000/svg" width="203" height="153" viewBox="0 0 203 153">
    <g fill="none" fill-rule="evenodd">
        <path fill="#9595EF" d="M57.565 131.054c-8.442-4.3-16.832-8.728-25.352-12.773-18.18-8.63-33.242-17.871-32.158-41.237 1.867-40.244 40.238-54.31 128.07-45.542 76.442 7.63 85.47 50.77 66.2 79.642-9.522 14.267-19.982 29.841-35.974 36.356-16.298 6.639-34.657 6.769-51.614 3.04-17.356-3.816-33.353-11.429-49.172-19.486" opacity=".57"/>
        <path fill="#FFF" d="M160.612 45.653L83.884 2a7.577 7.577 0 0 0-3.87-.995V1l-4.804.127.905 1.016a7.598 7.598 0 0 0-2.872 3.165l-22.38 46.068 85.2 48.808-.702.518-17.553-2.632-70.482-40.376L6.08 81.322 0 80.411v6.765l.01.002c-.05 1.514.67 3.05 2.17 3.909l78.676 45.07a13.916 13.916 0 0 0 13.753.05l43.48-24.499a3.467 3.467 0 0 0 1.14-1.046h.001c.057-.082.116-.163.166-.25l4.007-6.024 20.867-47.696c1.782-4.075.203-8.843-3.658-11.04"/>
        <path stroke="#000" stroke-linejoin="round" stroke-width="2" d="M160.612 45.653L83.884 2a7.577 7.577 0 0 0-3.87-.995V1l-4.804.127.905 1.016a7.598 7.598 0 0 0-2.872 3.165l-22.38 46.068 85.2 48.808-.702.518-17.553-2.632-70.482-40.376L6.08 81.322 0 80.411v6.765l.01.002c-.05 1.514.67 3.05 2.17 3.909l78.676 45.07a13.916 13.916 0 0 0 13.753.05l43.48-24.499a3.467 3.467 0 0 0 1.14-1.046h.001c.057-.082.116-.163.166-.25l4.007-6.024 20.867-47.696c1.782-4.075.203-8.843-3.658-11.04z"/>
        <path fill="#FFF" d="M2.182 84.266l78.751 44.899a13.988 13.988 0 0 0 13.766.049L140 103.81 47.371 51 2.181 76.764c-2.908 1.659-2.908 5.844 0 7.502"/>
        <path stroke="#000" stroke-linejoin="round" stroke-width="2" d="M2.182 84.266l78.751 44.899a13.988 13.988 0 0 0 13.766.049L140 103.81 47.371 51 2.181 76.764c-2.908 1.659-2.908 5.844 0 7.502z"/>
        <path fill="#FFF" d="M139.429 104l20.84-47.516a8.65 8.65 0 0 0-3.652-10.999L79.982 1.996c-3.83-2.173-8.7-.664-10.629 3.296L47 51.187 139.429 104z"/>
        <path stroke="#000" stroke-linejoin="round" stroke-width="2" d="M139.429 104l20.84-47.516a8.65 8.65 0 0 0-3.652-10.999L79.982 1.996c-3.83-2.173-8.7-.664-10.629 3.296L47 51.187 139.429 104z"/>
        <path fill="#9595EF" d="M134.875 86.362l13.531-30.114a7.063 7.063 0 0 0-2.971-8.97L83.098 11.813c-3.116-1.772-7.078-.54-8.646 2.689L59.66 43.969a6.557 6.557 0 0 0 2.631 8.551l64.024 36.678c3.127 1.79 7.113.47 8.56-2.836M36.79 96.227l11.27-6.69a3.788 3.788 0 0 1 3.752-.078L67.157 99c1.1.595 1.13 2.218.054 2.857l-10.68 6.609a3.79 3.79 0 0 1-3.885-.001l-15.857-9.412c-1.052-.624-1.052-2.2 0-2.825"/>
        <path fill="#FFF" d="M58.123 46.452l-1.974-1.177c-.364-.218-.713-.298-1.011-.26L55.127 45l-6.008 1.957 2.917 2.548a703.206 703.206 0 0 0-12.623 21.964l-.204-.445L36 79l5.968-1.956-.034-.074a.821.821 0 0 0 .463-.38c5.267-9.55 10.81-18.94 16.504-28.236.3-.492-.115-1.508-.778-1.902"/>
        <path stroke="#000" stroke-linecap="round" stroke-linejoin="round" stroke-width="2" d="M58.123 46.452l-1.974-1.177c-.364-.218-.713-.298-1.011-.26L55.127 45l-6.008 1.957 2.917 2.548a703.206 703.206 0 0 0-12.623 21.964l-.204-.445L36 79l5.968-1.956-.034-.074a.821.821 0 0 0 .463-.38c5.267-9.55 10.81-18.94 16.504-28.236.3-.492-.115-1.508-.778-1.902z"/>
        <path fill="#FFF" d="M75.575 74.23c-4.1-6.517-5.997-9.757-9.799-16.266-.507-.868-1.206-1.598-1.945-2.029-1.256-.732-1.884-1.1-3.138-1.834-.24-.14-.773-.093-.773-.093L54 55.93l12.545 18.45a552.132 552.132 0 0 0-6.427 3.085c-.404.197-.15 1.079.403 1.398 1.005.578 1.616.93 2.47 1.414L59.251 83l6.01-1.916.006-.015c.169-.02.328-.061.474-.13 3.901-1.841 5.902-2.75 9.824-4.582.578-.27.578-1.223.01-2.127"/>
        <path stroke="#000" stroke-linecap="round" stroke-linejoin="round" stroke-width="2" d="M75.575 74.23c-4.1-6.517-5.997-9.757-9.799-16.266-.507-.868-1.206-1.598-1.945-2.029-1.256-.732-1.884-1.1-3.138-1.834-.24-.14-.773-.093-.773-.093L54 55.93l12.545 18.45a552.132 552.132 0 0 0-6.427 3.085c-.404.197-.15 1.079.403 1.398 1.005.578 1.616.93 2.47 1.414L59.251 83l6.01-1.916.006-.015c.169-.02.328-.061.474-.13 3.901-1.841 5.902-2.75 9.824-4.582.578-.27.578-1.223.01-2.127z"/>
        <path fill="#FFF" d="M38.075 63.982a949.185 949.185 0 0 0-7.161-12.373l-2.122-4.19c-.012-.414.12-.744.405-.884 3.843-1.896 5.74-2.867 9.615-4.797.397-.197.123-1.1-.434-1.43l-3.17-1.884c-.747-.442-1.463-.544-1.991-.28l-5.678 1.924.816.498c-1.505.744-3.009 1.475-5.046 2.442-.556.264-.556 1.229.002 2.159l1.35 2.252H21L32.012 67l5.628-2.111c.54.33.815-.242.435-.907"/>
        <path stroke="#000" stroke-linecap="round" stroke-linejoin="round" stroke-width="2" d="M38.075 63.982a949.185 949.185 0 0 0-7.161-12.373l-2.122-4.19c-.012-.414.12-.744.405-.884 3.843-1.896 5.74-2.867 9.615-4.797.397-.197.123-1.1-.434-1.43l-3.17-1.884c-.747-.442-1.463-.544-1.991-.28l-5.678 1.924.816.498c-1.505.744-3.009 1.475-5.046 2.442-.556.264-.556 1.229.002 2.159l1.35 2.252H21L32.012 67l5.628-2.111c.54.33.815-.242.435-.907z"/>
        <path fill="#FFF" d="M36.323 77.547C41.613 68.01 47.18 58.632 52.9 49.348c.302-.49-.115-1.505-.78-1.899l-1.983-1.175c-.708-.419-1.365-.353-1.684.168a699.543 699.543 0 0 0-16.368 28.215c-.273.495.143 1.515.776 1.908l1.883 1.167c.671.416 1.286.343 1.579-.185"/>
        <path stroke="#000" stroke-linecap="round" stroke-linejoin="round" stroke-width="2" d="M36.323 77.547C41.613 68.01 47.18 58.632 52.9 49.348c.302-.49-.115-1.505-.78-1.899l-1.983-1.175c-.708-.419-1.365-.353-1.684.168a699.543 699.543 0 0 0-16.368 28.215c-.273.495.143 1.515.776 1.908l1.883 1.167c.671.416 1.286.343 1.579-.185z"/>
        <path fill="#FFF" d="M59.944 83.85c3.984-1.904 6.027-2.844 10.03-4.738.591-.28 1.408-1.265.827-2.2-4.024-6.912-5.307-9.264-9.189-15.994-.518-.898-1.232-1.653-1.986-2.098-1.283-.758-3.556-1.964-4.836-2.723-.564-.334-.869.246-.484.918 3.759 6.577 5.616 9.85 9.53 16.41.556.933.537 1.916-.048 2.196-3.862 1.847-5.804 2.77-9.586 4.638-.412.204-.154 1.116.412 1.446 1.287.75 1.935 1.125 3.243 1.877.769.442 1.521.538 2.087.267"/>
        <path stroke="#000" stroke-linecap="round" stroke-linejoin="round" stroke-width="2" d="M59.944 83.85c3.984-1.904 6.027-2.844 10.03-4.738.591-.28 1.408-1.265.827-2.2-4.024-6.912-5.307-9.264-9.189-15.994-.518-.898-1.232-1.653-1.986-2.098-1.283-.758-3.556-1.964-4.836-2.723-.564-.334-.869.246-.484.918 3.759 6.577 5.616 9.85 9.53 16.41.556.933.537 1.916-.048 2.196-3.862 1.847-5.804 2.77-9.586 4.638-.412.204-.154 1.116.412 1.446 1.287.75 1.935 1.125 3.243 1.877.769.442 1.521.538 2.087.267z"/>
        <path fill="#FFF" d="M26.657 63.928c-3.622-6.292-5.486-9.455-9.241-15.758-.554-.93-.555-1.895-.002-2.16 3.981-1.901 5.91-2.892 9.842-4.866.524-.264 1.236-.162 1.976.28l3.15 1.884c.554.332.825 1.235.432 1.432-3.849 1.931-4.931 2.903-8.749 4.8-.543.27-.54 1.24.004 2.169a974.54 974.54 0 0 1 8.816 15.288c.376.664-.7 1.237-1.236.907l-3.06-1.886c-.723-.445-1.418-1.198-1.932-2.09"/>
        <path stroke="#000" stroke-linecap="round" stroke-linejoin="round" stroke-width="2" d="M26.657 63.928c-3.622-6.292-5.486-9.455-9.241-15.758-.554-.93-.555-1.895-.002-2.16 3.981-1.901 5.91-2.892 9.842-4.866.524-.264 1.236-.162 1.976.28l3.15 1.884c.554.332.825 1.235.432 1.432-3.849 1.931-4.931 2.903-8.749 4.8-.543.27-.54 1.24.004 2.169a974.54 974.54 0 0 1 8.816 15.288c.376.664-.7 1.237-1.236.907l-3.06-1.886c-.723-.445-1.418-1.198-1.932-2.09z"/>
    </g>
</svg>
