<svg xmlns="http://www.w3.org/2000/svg" xmlns:xlink="http://www.w3.org/1999/xlink" width="136" height="72" viewBox="0 0 136 72">
  <defs>
    <rect id="hadoop-logo-a" width="113" height="62" x="23" y="10" rx="4"/>
    <mask id="hadoop-logo-b" width="113" height="62" x="0" y="0" fill="#fff">
      <use xlink:href="#hadoop-logo-a"/>
    </mask>
  </defs>
  <g fill="none" fill-rule="evenodd">
    <use fill="#A289FF" fill-opacity=".07" stroke="#000" stroke-dasharray="8" stroke-linecap="round" stroke-linejoin="round" stroke-width="2" mask="url(#hadoop-logo-b)" xlink:href="#hadoop-logo-a"/>
    <rect width="113" height="62" fill="#0079D6" rx="4"/>
    <g transform="translate(23 5)">
      <polyline fill="#FAFA60" points="25.06 11.215 20.545 11.949 16.427 13.757 12.928 15.96 9.599 20.027 7.719 22.021 5.9 22.692 5.419 21.515 6.26 20.3 6.449 18.586 7.012 18.609 7.628 19.171 7.461 17.426 6.779 16.967 6.8 16.302 5.184 17.217 3.72 18.946 3.415 20.491 4.041 21.728 4.625 23.829 5.812 24.392 7.061 24.331 8.245 23.642 7.455 27.652 8.245 32.115 7.375 34.175 4.527 37.247 5.034 39.083 6.383 41.209 8.927 43.001 10.276 43.186 11.777 43.237 10.84 47.084 14.282 48.496 18.571 49.061 20.038 48.101 20.15 45.502 21.787 42.791 21.9 40.644 25.85 40.927 29.517 40.588 25.85 42.791 26.471 45.446 28.784 49.061 31.041 50.021 32.846 49.286 33.58 47.818 37.36 44.937 38.094 45.558 44.019 45.784 45.203 44.824 45.316 43.129 44.921 42.396 44.639 37.82 42.664 33.866 43.003 32.115 44.188 32.737 47.517 35.843 49.153 35.956 50.959 35.222 52.765 33.866 53.667 30.929 58.971 31.268 62.188 30.025 64.783 27.596 66.645 24.094 67.096 19.971 66.701 15.169 65.686 10.877 64.67 9.521 63.26 9.069 60.777 11.78 58.52 12.571 56.545 9.295 54.57 7.488 53.498 6.81 49.209 3.251 45.768 1.387 42.326 1.105 38.32 1.783 34.821 3.081 32.395 5.059 30.477 7.375 28.502 7.94 25.06 11.216"/>
      <path fill="#FFC" d="M12.0198681,21.4021917 C8.15177503,25.9184727 9.01105531,31.3953865 10.083158,36.7621861 C9.51115095,35.3152728 8.93900772,33.8684134 8.36672828,32.4216079 L7.73412112,28.441767 C7.79431869,27.085203 7.85424989,25.728639 7.91498018,24.3723416 L9.54084716,20.4836848 L11.9801804,16.8661809 L15.7747578,13.7013981 L19.9305207,11.9830304 L24.8094535,11.3500739 L20.2919725,16.5046438 C16.6646696,17.6820389 14.5260579,18.4755009 12.0196018,21.4021917"/>
      <path fill="#FFC" fill-rule="nonzero" d="M30.2237057,7.70003813 C27.5374481,10.319735 26.0699185,12.2958109 24.3599738,15.3631169 C23.1372543,17.5572792 21.76552,19.670856 20.4794691,21.834433 C19.8293921,22.9296525 19.7679235,23.8477432 19.573406,25.1107829 L17.6779911,22.8554499 C17.9792139,21.9533168 18.2799044,21.0511836 18.580595,20.1493164 L21.6495013,14.6466232 L28.1481426,8.2415308 C28.839997,8.06094459 29.5318514,7.8808903 30.2237057,7.70003813 M43.4916098,1.20531758 C41.3396766,2.01143953 37.7665149,2.27713264 37.5185117,4.74523283 C37.3420889,6.49843504 37.6507624,7.37929149 38.7079691,9.23409006 C36.096751,6.53327568 35.4509316,6.95109738 30.4043861,7.79046422 L32.5704225,4.72342419 L36.3612523,2.37766517 L41.2353663,1.29521174 L43.4918759,1.20531758"/>
      <path fill="#CC0" fill-rule="nonzero" d="M49.4269367,34.6429259 C50.143558,35.0853305 50.1281182,35.4058209 50.0083264,35.7090091 C50.5734776,35.4827493 51.1388951,35.2564894 51.7040463,35.0310281 L52.8029368,33.5555475 L53.6183198,31.4537264 L52.5761309,30.6703348 L48.0213791,31.2516896 C47.909041,31.5583383 47.7956381,31.8652532 47.6825013,32.1724342 C47.714712,32.6081841 47.7474551,33.0444664 47.7793996,33.4802163 C47.9247471,33.7389511 48.0703607,33.9971535 48.2159743,34.2556222 C48.4419816,34.3684859 48.6677226,34.4818821 48.8939961,34.5947458 C49.0720866,34.6107171 49.2493785,34.6272208 49.4269367,34.6429259 M49.0031398,26.8545286 C46.7199074,27.5133441 46.7377431,27.6948844 46.0637144,29.9598788 C46.9536346,28.5320459 47.6124897,27.8114748 49.0031398,26.8545286 M64.183161,9.90606683 C63.777466,10.0937294 63.3818867,10.183701 63.1284605,10.5550334 C62.5822097,11.35413 62.1142229,12.0262549 61.2109925,12.5871133 C60.7560497,12.869805 60.2856671,13.0529424 59.8033053,13.2033387 C59.4032006,13.3276485 59.1625521,13.2163819 58.8220771,13.4615411 C59.0243922,13.4961456 59.2264411,13.5318148 59.42849,13.5672178 L60.7648345,13.5672178 L62.4123715,12.5501131 L63.3813543,11.532476 L64.183161,9.90606683 M27.8164898,14.9721585 C26.9185834,17.4298731 26.1335476,19.5364857 24.7732448,21.7612857 C26.5163491,19.8830626 27.5734454,18.2864664 28.5719769,16.163084 C28.9601025,15.337901 29.0333086,14.3700411 30.1138309,14.7299274 C30.1622801,15.5540457 30.3363775,16.3770992 30.3848267,17.2006852 C30.9686122,13.0167408 32.6148182,11.2665541 36.4415018,9.64254062 L33.1951431,10.0303767 L30.1423148,10.7086239 L28.6403914,12.8887044 L27.8164898,14.9721585 M35.2300071,14.8752661 C36.0552397,18.7589503 37.2435747,22.4866482 37.7597444,26.4320881 C38.0948953,28.9957456 38.1313653,30.2273978 36.8416066,32.4394209 C35.4317898,32.3481183 34.5565108,32.5070326 33.1927473,32.9539624 C27.7640476,34.7334298 24.6502585,37.3500587 20.9926145,32.0779374 L24.4958601,33.728836 C25.3282803,33.5651303 26.1607004,33.401957 26.9928544,33.2377189 C28.4628333,32.3821904 29.932546,31.5261295 31.4025249,30.6703348 L34.8424139,29.9915552 L35.9570104,25.3409831 L35.1331088,19.1875131 C35.1011643,18.2185884 35.0686874,17.2496638 35.0362105,16.2807392 C35.1011643,15.8122481 35.1658519,15.3437571 35.2300071,14.8755322 M44.5814901,38.9067266 C44.1254825,42.0621202 45.6316651,43.7582707 45.007949,44.6297705 C44.8314557,44.8762607 44.5921382,45.306953 44.3251355,45.4251405 C43.3707939,45.8465163 42.058674,45.3460827 41.9652364,45.592839 L38.815776,45.592839 L37.5560983,45.0599305 L39.494064,42.7826914 C40.1239028,41.4102256 40.7540079,40.0372275 41.3835805,38.6642293 L42.594809,34.4978533 L43.2249141,34.4978533 L44.5814901,38.9067266"/>
      <path fill="#CC0" fill-rule="nonzero" d="M39.3111679,29.6449417 C39.5671382,31.0787916 40.0116902,31.4195374 40.6861093,32.8075637 C40.2372956,35.0720979 39.5162638,37.7647624 38.6484686,39.7628808 C38.2824923,40.605554 37.9873673,41.0701831 37.3417149,41.7213033 C36.2523096,42.8216006 35.1514509,43.7796318 33.9163476,44.7334003 C33.026711,45.4188882 32.4060963,45.0752118 31.3089666,44.9198914 C30.8423069,45.7657615 30.7136558,46.2359854 29.8546504,46.6654477 C28.5340462,47.325626 27.3522145,45.9026993 26.3155482,45.065088 C27.0640149,46.2346533 27.8124816,47.4034194 28.5604156,48.5727184 C29.0776834,49.0575951 29.5949511,49.5422055 30.1119525,50.0273486 L31.4211034,50.2215657 L33.1660164,49.1543041 C33.4733938,48.5727184 33.7802385,47.9905999 34.0873496,47.4090142 C34.7338011,46.9241374 35.380519,46.4392607 36.0264378,45.9538511 C36.8185873,45.2752901 37.6104704,44.5961962 38.4023535,43.9173688 L39.9051468,41.7836446 L41.2622422,39.2622856 C41.8445014,37.5167293 42.4262278,35.7709066 43.0082206,34.0253503 C43.0564315,33.3625078 43.1046423,32.6999317 43.1533859,32.0368228 C42.4262278,31.7139268 41.6990698,31.3902316 40.9716453,31.0670693 C40.4383961,30.5662076 39.8444172,30.1460699 39.3111679,29.6449417 M21.9185059,39.7471623 C24.365273,39.7471623 26.9494808,39.6112902 29.1908856,38.5831917 C29.8248183,37.6320873 30.4510266,36.854686 31.2269282,36.0136113 C30.5208125,37.3478216 30.2992024,38.1017783 30.1119525,39.6016993 L29.3847945,40.6686945 C27.5423943,40.7169158 25.7002606,40.7654035 23.8578605,40.8141576 C23.2596198,40.7491521 22.6619119,40.6846795 22.0639376,40.6202069 C21.9992125,40.554935 21.9347538,40.4904624 21.8700287,40.4259898 C21.886543,40.1995363 21.9025244,39.9733493 21.9185059,39.7471623 M21.5794319,38.0500937 L21.3892521,36.327982 C20.971336,38.8450784 21.071753,40.5320232 19.9136273,42.7867001 C19.0484956,43.7889563 17.9833289,44.701164 16.7634081,45.1895042 C16.8664887,45.8075888 16.8973863,46.1938917 16.8374557,46.647065 C16.6225046,48.2775297 13.3622794,47.5571414 12.0208992,47.4921359 L18.4763581,49.1545705 L19.9306742,48.5727184 C20.09262,47.6354676 20.2542995,46.6974176 20.4157126,45.7601668 L21.7730743,43.2388077 L22.0154604,41.6869357 L21.5791655,38.0503601 M17.9428425,23.8418729 C17.8754538,25.0660535 17.7963454,25.5762397 18.3359873,26.6568222 C19.0218598,28.030462 19.8640846,29.321513 20.6093551,30.6791679 L20.8517411,27.9635917 C19.8824634,26.589419 18.9126529,25.2157791 17.9431088,23.8421393 M7.99089863,33.0867674 C7.78074196,33.5332803 7.57138437,33.980326 7.3612277,34.4271053 C7.93869241,36.3732727 8.45249751,37.6059786 9.55229078,39.3059777 C9.36051283,39.9946626 9.21721209,40.2959788 8.77665552,40.8573169 C7.80870958,40.7086569 6.94917146,40.6654976 5.96817397,40.6686945 C7.05092032,41.5087035 8.13366666,42.3497782 9.21641301,43.19032 C9.74966226,43.0928119 10.2831779,42.9958365 10.8164271,42.8991276 L12.4164412,41.2990343 L10.1377462,37.7589012 C9.42177523,36.2017009 8.70633693,34.6439677 7.99089863,33.0867674 M64.2276518,9.1567678 C64.8871549,12.1238405 65.7379032,14.8623285 65.6587948,17.9015999 C65.5618403,21.6300889 64.8354814,26.3400538 61.3813474,28.5883367 C57.5132927,31.1064988 52.972417,29.9153538 48.7285307,28.8363698 L53.9161243,30.9700939 C55.5321199,31.0510843 57.1483818,31.1320747 58.7643774,31.2125323 C59.8633716,30.8893699 60.9623658,30.5662076 62.0608273,30.2427788 C62.9174355,29.5314486 63.7740437,28.8206513 64.6306518,28.1090547 L66.56974,24.03609 L67.2968981,19.3322527 C67.1032556,17.7963656 66.9088141,16.2610114 66.7151716,14.7253908 L65.6486731,10.1672829 C65.1750881,9.83026693 64.7015031,9.49325095 64.2276518,9.1567678 M6.50302137,18.0007066 C4.74718769,19.1438967 4.05731978,19.6458241 4.24989681,21.7646289 L4.77462259,23.6681698 L5.51856122,24.1716956 L6.43749723,24.4780738 L8.10010552,24.0840448 C8.38484251,23.2014093 8.66904678,22.3190402 8.95325105,21.4364047 L6.59065324,22.596379 L6.04381972,22.596379 C5.83970487,22.2826582 5.63549686,21.968998 5.43119571,21.6553984 L6.17513434,20.5612288 L6.56881186,18.4823863 C6.73661757,18.5332717 6.90442327,18.58469 7.07196262,18.635309 C7.27625941,18.7962241 7.48028984,18.9566064 7.68458663,19.1167223 L7.59695476,18.0228191 L7.18143587,17.3226784 C7.04292957,17.2054554 6.90442327,17.0892981 6.76591697,16.9723416 L6.50302137,18.0007066 M45.9000723,1.30576071 C47.4588009,2.75346414 49.3715196,4.01147953 50.6180763,5.78048042 C51.1004511,6.46516901 51.6363639,6.81550578 50.6100855,7.78286154 C51.69443,7.47301997 52.0976964,7.50658836 52.9660244,7.6118226 C54.5455289,7.80310914 56.0259481,10.0489943 56.1202389,11.6581457 C56.1015939,11.8086706 55.6815469,12.1504821 54.4602942,12.4877645 C54.436322,12.5346537 53.770959,12.3966503 53.7874732,12.441941 C53.9145261,12.7890808 54.08393,12.8423639 54.3430966,13.0046111 C54.3990318,13.390914 54.4352565,13.9868862 54.6984185,14.4094216 C55.4668621,14.395568 56.2179924,14.479489 56.9704545,14.6284154 C57.2234949,15.0485531 57.185672,15.4686908 57.1643633,15.889095 L58.036953,15.7438983 C57.9565128,15.0810558 57.8755399,14.4184798 57.7948333,13.7556373 C58.0532009,13.3192482 58.3115684,12.8825927 58.5704686,12.4467365 L57.4552266,9.92484454 C56.7443163,9.24601709 56.0334061,8.56692322 55.3219632,7.88809578 L55.1168673,7.87797198 C54.3171347,7.38711568 53.5174384,6.89620017 52.7177785,6.40522546 L48.8049755,3.20344042 L45.9000723,1.30576071 M48.5255657,13.2537099 C48.443261,13.3975744 48.3191381,13.6272248 48.1601222,13.7865415 C48.8092373,14.4006299 49.1296663,14.8119759 49.3611316,15.6807578 C48.6270482,16.0449482 47.8934976,16.4096714 47.1596805,16.7735954 L45.2967708,18.5599133 C44.4793173,18.1197944 44.2758196,17.7819792 43.8802776,16.9427694 C43.4194778,17.0650543 42.9834493,17.1825436 42.6030897,17.0426754 C42.8444103,17.0445403 42.9925055,16.9843303 43.2338261,16.8351374 L44.4191204,15.6034972 C45.116979,15.0749283 45.8148377,14.5458265 46.5126963,14.017524 L47.8831096,13.5707447 C48.0575743,13.4990789 48.3511011,13.3256422 48.5255657,13.2537099"/>
      <path fill="#CC0" fill-rule="nonzero" d="M50.5228951,15.4912745 C48.1815601,16.7459153 45.9395836,18.0074673 44.7424739,20.3899557 C44.7424739,17.3657929 47.7934744,16.0345978 50.522628,15.4910087 M44.2777326,9.54209749 C42.5392259,10.7217788 41.3100651,13.1024065 41.4644447,15.4224288 C40.898208,13.4134086 41.0987947,11.5152328 42.8373014,10.1276851 C43.1311034,9.98600641 43.4241041,9.84379607 43.7176391,9.70211735 C43.9043369,9.64895461 44.0907676,9.59579186 44.2777326,9.54209749"/>
      <path fill="#000" fill-rule="nonzero" d="M67.6412143,15.0250834 C67.32685,13.0414216 66.8054848,11.1158598 66.0819141,9.73132091 C65.9939987,9.56208469 65.8602607,9.39044983 65.6945534,9.2268104 C65.3351657,8.87234711 64.8031441,8.5365398 64.2535394,8.34758155 C63.6711662,8.14716322 63.0570902,8.10638661 62.5695592,8.36117375 C62.4430142,8.42780219 62.3252608,8.51308659 62.2205615,8.61969209 C61.9048652,8.93950858 61.6384547,9.32861865 61.3717779,9.71799523 C61.0752631,10.1518796 60.7768835,10.5878961 60.4198935,10.8925213 C60.0061581,11.2464516 59.4885227,11.4612616 59.0001924,11.6574157 C58.7946199,11.1586278 58.5474978,10.6780104 58.2614363,10.2206401 C57.927624,9.68814569 57.5474564,9.18949847 57.129192,8.69085125 C56.8232355,8.3235713 56.4763404,7.992458 56.0952532,7.70395086 C55.7345335,7.42864216 55.3652886,7.1967752 54.9353022,6.92759632 C53.7825443,6.20534407 52.8008219,5.34397165 51.7996516,4.46500932 C51.3446226,4.06577173 50.8850646,3.66280295 50.4356302,3.29208233 C48.051257,1.3252109 45.8272628,0.371358206 43.4487506,0.221843996 C41.0864894,0.0731293262 38.5920886,0.722356808 35.6469215,1.96271177 C34.2253555,2.56103513 33.1698374,3.26836261 32.2501886,4.11880797 C31.3718335,4.93167489 30.6261507,5.86767116 29.8064058,6.96064403 C29.3295312,6.99449127 28.9070043,7.06511741 28.4756858,7.23781832 C28.0004096,7.42810913 27.5219365,7.73619902 26.9486213,8.24230862 C26.5495869,8.59452545 26.1587471,8.95592585 25.7764154,9.32622002 C25.426158,9.66616663 25.082077,10.0124246 24.7443415,10.3648241 C22.063187,10.7957768 19.8786216,11.2715038 17.9221035,12.0294689 C15.9213612,12.8050239 14.1577242,13.8716119 12.3463998,15.4781568 C11.6331888,16.1084652 10.9830113,16.8067377 10.4050671,17.5630938 C9.85413033,18.2850795 9.38258389,19.0441107 8.96884851,19.8444515 C8.60653034,20.2455546 8.24341294,20.650389 7.85045757,21.0045858 C7.46735939,21.3497211 7.05895221,21.6404876 6.60125911,21.8166532 L6.60152552,21.8169197 C6.33538152,21.9195275 6.22535401,21.9794931 6.21336554,21.9754954 C6.20004502,21.968033 6.19258553,21.9280559 6.1739368,21.8544981 C6.83117131,21.2271248 6.93453855,20.3052537 6.99528012,19.3900455 C7.07413761,19.4843914 7.14979817,19.6005914 7.22838924,19.7221217 C7.31523904,19.8561781 7.40422012,19.9944987 7.51078428,20.1290881 L7.95702174,20.6922317 L8.11367106,19.9897015 C8.24527781,19.4009726 8.34384966,18.6171557 8.19039726,17.9375456 C8.09129259,17.4964654 7.88668939,17.1033576 7.53023225,16.8248507 C7.56433278,16.7358351 7.59656844,16.6537489 7.62827128,16.5727287 C7.74016366,16.2862265 7.85551937,15.9922618 7.95329199,15.7145545 L8.14670595,15.1642036 L7.57125945,15.2638797 C6.80559591,15.3971366 5.16024516,16.3016843 4.00135984,17.5044608 C3.57110701,17.9514043 3.20106294,18.4452543 2.95836305,18.963357 C2.70580597,19.5025143 2.59258154,20.0667239 2.69062057,20.6312 C2.77587191,21.1247835 3.02283437,21.6093055 3.4712031,22.06611 C3.5529911,22.3957875 3.62838525,22.6817568 3.70910761,22.9397421 C3.80155202,23.2331737 3.90092311,23.4956898 4.02533677,23.7542081 C4.36261236,24.4556723 4.90022859,24.8842264 5.52256333,25.0841117 C6.02261568,25.2448195 6.57568371,25.2528149 7.11809533,25.1339497 C7.00796466,25.7803614 6.94156641,26.4334714 6.91935315,27.0888281 C6.88498621,28.0043028 6.91855392,29.0157224 7.01925706,30.189449 C7.04136913,30.4471678 7.07467043,30.7304719 7.11756251,31.0385618 C7.15485997,31.3013443 7.19908409,31.5593296 7.24677156,31.8154493 C7.1455356,32.0920906 7.04350041,32.3692649 6.94173163,32.6459062 L6.46832032,33.9350331 L5.42665558,34.9677739 C5.1024341,35.2883899 4.77821262,35.6098055 4.45425755,35.9309546 C4.42761651,35.9576059 4.31812182,36.0626124 4.21901715,36.1582908 C3.56231547,36.7904614 3.43230718,36.9159894 3.61879447,38.0284177 C3.73826054,38.7403304 3.97056282,39.4286005 4.30693259,40.0672479 C4.62928919,40.6815621 5.06193971,41.2796189 5.61713903,41.8366326 C6.30980612,42.5311674 7.44524732,43.394139 8.63397061,43.8461463 C9.31331718,44.1041316 10.0134438,44.2304591 10.6706783,44.1249196 C10.6371106,44.2261949 10.6046085,44.3269371 10.5675774,44.4287453 C10.4635601,44.717363 10.3480229,45.0016948 10.2212439,45.2810563 C9.41481955,47.049375 10.2425567,47.9728451 11.5309175,48.5605079 C12.1742987,48.853673 12.939163,49.0530253 13.6496796,49.2385189 C13.7951397,49.2758308 13.9405997,49.3142088 14.1238901,49.3637803 C14.965747,49.5913831 16.4206143,50.0095431 17.7494695,50.093495 C19.1998078,50.1851757 20.507883,49.8856142 20.8584791,48.5834281 C20.9970125,48.067191 21.0777349,47.6719511 21.1105034,47.2847066 C21.1406077,46.9254461 21.1291521,46.5624543 21.0870592,46.1131122 C21.5005282,45.1963049 21.6758263,44.9385861 21.9782021,44.4964398 C22.0373452,44.4090233 22.1090096,44.3045499 22.1305888,44.2715022 C22.4548103,43.7909779 22.6066643,43.4498403 22.6618112,43.065794 C22.7150933,42.6950734 22.6698035,42.3256854 22.6029345,41.7612092 C22.5965407,41.70764 22.5869499,41.6292849 22.5728301,41.5256111 C23.4079355,41.6340835 24.2488516,41.6917564 25.0909414,41.698312 C25.5134683,41.7009771 25.9357289,41.688451 26.3579894,41.6663303 C26.2500932,41.7214987 26.1443282,41.7764005 26.0287061,41.8358331 L25.8715239,41.9165868 C24.7515345,42.4927895 24.7049127,43.5841633 25.0555088,44.7069857 C25.3714716,45.7194714 26.0220458,46.7532782 26.4301866,47.3819841 C27.2880281,48.7046918 28.1067074,49.8243161 29.0993526,50.4327669 C30.1396853,51.0705343 31.3284086,51.1456912 32.8626662,50.3149679 C33.6432487,49.8922771 33.8894119,49.4613243 34.2208265,48.8803244 C34.3223288,48.7030927 34.4342212,48.5098703 34.5589013,48.319313 C34.8812579,48.1055689 35.6839525,47.4432823 36.4717281,46.7916562 C36.7400034,46.5699167 37.0080123,46.3492434 37.3103881,46.1027181 C37.5187211,46.2559635 37.7702125,46.3623025 38.0741868,46.4347943 C38.469007,46.5294066 38.9392214,46.5720488 39.5026794,46.6125589 C39.9244071,46.6434745 41.2996177,46.6424085 42.1880965,46.642142 C42.4624992,46.642142 42.6902801,46.642142 42.8269487,46.6429415 C43.7441997,46.6485383 44.4845543,46.6002993 45.0440162,46.2831479 C45.6402427,45.944942 45.9937693,45.3460856 46.0710283,44.2720352 C46.104596,43.7949756 46.1109899,43.5007445 46.0446537,43.2003835 C45.9828465,42.9189449 45.8621626,42.6638913 45.6548953,42.2907721 C45.6423302,41.8265975 45.6298977,41.3624194 45.6175978,40.8982377 C45.6048101,40.4059869 45.5909568,39.9132029 45.5781691,39.4209521 C45.5624508,38.8404851 45.4985123,38.3687558 45.3807589,37.9047554 C45.2640712,37.4439531 45.0972982,37.0007407 44.8740463,36.4687793 C44.7352003,36.1336619 44.6039155,35.795459 44.4802917,35.454428 L44.1584679,35.5722271 L44.2080203,35.5541041 L44.4802917,35.454428 L44.4802917,35.4530954 C44.2884762,34.9355257 44.0993248,34.4315482 43.8345129,33.8923909 C43.8515631,33.7884506 43.8688798,33.6765148 43.8856637,33.5571166 L44.3971717,34.0501671 L45.1511131,34.7769501 C45.7260268,35.3310321 46.2516546,35.8350096 46.8691939,36.1990674 C47.5077797,36.5761843 48.2257558,36.7949921 49.1555282,36.7507508 C50.1289918,36.7049105 51.1706566,36.2947458 52.0282317,35.6617757 C52.8578337,35.0490606 53.5235934,34.222868 53.8014595,33.3084593 L54.0422945,32.5153144 L54.2346428,31.8823443 C55.5997298,32.1136782 57.0649871,32.1883021 58.4801592,32.0401204 C59.845779,31.8964695 61.1650434,31.5486691 62.3028823,30.9415508 C63.9754069,30.0487297 65.2294008,28.7337509 66.1306672,27.1722469 L66.1312001,27.1722469 C67.1382314,25.4271149 67.7022223,23.3706948 67.9164163,21.2545757 C68.088251,19.5574162 67.9944745,17.2502067 67.6412143,15.0250834 Z M49.9550258,29.288366 C49.1683159,29.0234513 48.6213753,28.6370064 47.9303066,28.2012564 C48.1183924,29.0495697 48.2039101,29.9466549 47.9534843,30.7933691 C47.556,32.1371314 46.9139509,34.3353368 48.7375302,34.7409707 C49.4315294,34.8950156 49.7464265,34.872895 50.7260176,34.3670519 C49.9331802,34.5466822 49.5332981,34.5029739 48.9882224,34.4016987 C48.4942975,34.3108175 48.2324161,33.9971308 48.0944155,33.6269432 C48.2670494,33.7514052 48.5483788,33.8190997 49.029516,33.9350331 C50.3812825,34.261246 51.6693769,33.6098864 51.9214011,32.672291 C52.0679269,32.1243388 52.0431507,31.8365039 52.3545845,31.0897324 C52.6343154,31.1763494 52.9233707,31.2549709 53.2201519,31.3269296 L52.7177019,32.9657226 C52.2834529,34.3835758 50.5904147,35.5269197 49.0958522,35.5005349 C47.7142478,35.4762821 46.8380239,34.610379 45.8840082,33.7615327 C45.2270401,33.1762685 44.5945818,32.6168562 43.9679845,32.0625076 C42.2483052,31.5196191 40.8698977,30.8853164 39.2738329,29.7033279 C40.4098069,31.0385618 41.1799994,31.7778709 42.7640758,32.4422897 C42.5338972,34.7929409 41.7170828,36.5071573 41.0209524,38.7567998 C40.7055225,39.7738162 38.2180484,43.850144 37.5285782,44.247516 C37.037051,44.5308201 33.9578794,47.1250649 33.3789696,47.467535 C32.9473847,48.0405396 32.5688155,48.8326184 31.9201061,49.1753551 C29.9438736,50.2208885 28.6738951,48.2191038 27.6103848,46.5286071 C27.126317,45.7583824 25.7814772,43.539922 26.9536831,42.9184119 C28.0619504,42.3312821 28.6826867,41.9117895 29.8135989,41.1687492 C29.979839,41.4717753 30.2646318,41.7644074 30.4503198,42.0669005 L30.3272382,41.0738703 C30.2526433,40.4742144 30.2558402,39.9872938 30.3032613,39.3839066 C30.3496167,38.7997085 30.3954393,38.2155104 30.4412619,37.6310457 C30.2710256,38.2251049 29.9310859,38.8188975 29.7613825,39.4124236 C29.6934478,39.6501539 29.6372352,39.8420438 29.6047332,40.0200749 C27.0674403,40.5387107 24.5485298,40.5709589 22.0107042,40.118152 C21.8487266,39.178158 21.6515829,38.19872 21.486142,37.4964563 C21.4360569,38.2826718 21.4682925,40.456891 21.4642964,41.6743258 C21.4610995,42.6172514 21.4216707,42.940266 20.9352053,43.7424724 C20.4801763,44.4935082 20.2875616,44.6640769 19.6500414,45.9332154 C19.7033235,46.7340892 19.7041228,47.263119 19.4915272,48.0232162 C19.1380006,49.2867578 15.5699659,48.3078529 14.6290043,48.0498676 C13.4698525,47.7327162 11.0737572,47.2609869 11.6763776,45.7152072 C12.2065343,44.354921 12.5427443,42.920544 12.8019616,41.0171029 C10.6784042,37.9567255 8.70377014,33.7631318 8.32466811,30.0473971 C8.0302846,27.1623859 8.20691471,25.3866048 8.83084791,23.6217508 C9.81976339,20.8254886 11.2034991,18.4050107 13.4232307,16.4559957 C16.4176838,13.8273707 19.2165917,12.7719762 23.5995759,12.1043593 C22.5456563,13.2850152 21.5029259,14.5328325 20.3664191,15.870998 C19.2157925,17.2256874 18.5324497,18.593969 17.8016859,20.0760519 C16.7925233,22.122611 16.8143689,22.9013641 18.1520156,24.6981998 C19.3047735,26.2466446 19.9271083,26.9435781 20.430624,28.4587087 C20.0150237,29.3158169 19.8637026,30.0404678 19.7241035,31.2107296 C21.1355459,32.7546438 22.1846702,33.8121703 23.5550854,34.1378501 C24.8996587,34.4576666 26.0220458,34.3958354 27.2251553,33.7807217 C29.8964526,32.4145722 32.3682084,30.6502512 35.3815767,30.5772265 C36.7757024,27.1487937 36.6347713,24.2837709 35.9655483,20.9664743 C35.508388,18.700841 35.3248313,16.5556719 35.1828345,14.2460637 C34.617778,16.6246989 34.5114802,18.7162988 34.9308102,21.0858725 C35.4364572,23.9410342 35.8294126,27.0957574 34.4232984,29.6052508 C31.6981862,29.8139311 29.3630989,31.4724461 26.9073277,32.7447828 C25.9200106,33.2564891 24.8921992,33.3063272 23.7996501,33.0062327 C22.7854257,32.7274594 22.1010173,32.0561112 21.0084682,30.7955012 C20.9911515,29.5298275 21.2767435,28.9458958 21.8577846,27.7993537 C22.7912867,25.9585433 23.8214958,24.2451264 24.9521416,22.4341655 C23.5678731,24.1057397 22.2560682,25.5025383 21.1664495,27.1834404 C20.7497836,25.9963882 20.1540899,25.3935341 19.1675722,24.0567012 C18.2039657,22.7510504 18.1032625,22.1796449 18.8239027,20.668512 C19.5482727,19.1501832 20.1626151,17.8157488 21.3958289,16.4837131 C23.526313,14.1818339 25.4783022,11.6201038 27.8083277,9.35313791 C29.0735108,8.12237744 29.5871501,8.16475312 31.2652693,7.91049901 C32.7822102,7.68023114 34.2629193,7.38999767 35.8096982,7.03073714 C34.3138037,7.17012383 32.867728,7.22129447 31.4112622,7.25727382 L31.3659724,7.25860639 C32.7992605,5.42792348 33.6307274,4.40770887 35.9578224,3.39602269 C41.6877777,0.906784319 45.3285425,0.637605437 49.8295465,4.42236712 C50.9961577,5.40367073 52.0149112,6.35592434 53.197507,7.20210548 C52.7685863,7.23888437 52.399075,7.31590685 51.9102119,7.50779674 C52.5051064,7.39426189 53.1921788,7.50673069 53.8097182,7.61973252 C53.9828849,7.73220132 54.1613799,7.84200498 54.3433382,7.94941002 C55.1785349,8.4416609 55.652479,8.71350492 56.2172691,9.50052001 C56.8140285,10.3323094 57.3116831,11.1635658 57.7499283,12.07984 C57.4627378,11.9769657 57.2216364,11.8903488 57.0069096,11.826652 C56.5205759,11.6036053 55.9549665,11.6386132 55.4998259,11.9199318 L55.4651925,11.9359226 C55.0032369,12.1611267 54.2876585,12.4175129 53.8089189,12.495335 C54.0532173,12.5795533 54.5934976,12.6112684 54.848186,12.5102597 C54.8822865,12.496934 54.9169199,12.4862735 54.9526189,12.4780116 C54.834467,12.6790867 54.7617233,12.9035882 54.7394905,13.1357675 C54.7096626,13.4423115 54.7689612,13.7509507 54.9102596,14.0245908 L54.9115917,14.0275225 C54.9547502,14.1293307 55.0149589,14.222877 55.0810287,14.2905715 C54.8623057,14.3713252 54.6387874,14.463539 54.4083424,14.5634816 C55.4763818,14.4009082 56.439189,14.3729243 57.4811202,14.5101789 C57.549854,14.8387903 57.6191208,15.1871238 57.6835921,15.5413205 L57.2962313,15.5717031 C57.2858316,15.5724733 57.2754409,15.5733617 57.2650613,15.5743682 C56.7719356,15.1801944 56.2225973,15.2465563 55.4721192,15.4179247 C53.1895147,15.938426 53.7257989,17.2195576 52.6761418,19.1501832 C53.7662933,17.8170814 53.6853045,16.4221485 55.4619956,16.0010568 C55.8759974,15.9032462 56.1578596,15.7803834 56.4381234,15.8224925 C55.9338084,16.0762136 55.4976946,16.4970388 55.3245278,16.9855585 C54.8369968,18.3631681 55.139639,19.5238354 54.6038876,20.8105638 C55.2672496,19.6602905 55.3074776,18.5377346 55.90104,17.3272291 C56.1141683,16.8928117 56.9048744,16.1972109 57.3902742,16.1865503 L57.7898898,16.1777554 C57.9071104,16.9431828 57.978242,17.7035466 57.9329522,18.3341181 C57.8500986,19.4849244 57.5511861,21.193011 57.3724247,21.8467692 C57.9734466,21.0736129 58.2473165,19.4364189 58.5113293,18.2834805 C58.7862648,17.0836356 58.7167317,15.6436618 58.4761631,14.3542683 C58.1458142,12.5854166 59.9669958,12.8732514 61.0241123,12.0395965 C61.8012315,11.4266148 62.33645,10.4482429 63.0488315,9.75477412 C63.7556183,9.06716866 64.8684147,10.0775223 65.1462807,10.7494034 C66.3515215,13.6669294 66.9005933,18.2565626 66.5824993,21.1975417 C66.2249765,24.4975149 64.6318422,28.0999812 61.722374,29.724649 C58.0134082,31.7954608 53.6402812,30.53032 49.9550258,29.288366 Z M44.6848949,43.9450229 C44.5639446,45.3066416 44.1102476,45.3964567 42.9151305,45.3756686 C42.3721861,45.3660742 40.2099991,45.3562131 39.6611936,45.3090402 C38.8859393,45.2421453 38.4506247,45.1728517 38.2137858,44.9958866 C39.4318143,44.1014664 41.5012904,40.408652 41.9049022,39.1371149 C42.3316917,37.7938856 42.7987092,36.6217582 43.1461083,35.3803372 C43.3059546,35.8992394 43.4319667,36.4133444 43.664543,36.9644949 C44.052703,37.8855664 44.2426536,38.4545732 44.2703603,39.4425397 L44.3582757,42.5695454 C44.692088,43.1537436 44.744038,43.278472 44.6848949,43.9447564 L44.6848949,43.9450229 Z M8.02868614,33.6304079 C8.80207559,36.3070055 10.1197415,38.9372296 11.5804698,41.1484941 L11.5804698,41.1871386 C11.4885583,41.5674537 11.3827933,41.9373748 11.1608734,42.2345377 C10.1165446,43.6321357 7.46096554,41.5807794 6.69210507,40.796163 C5.85184661,39.9374557 5.28945421,38.9212388 5.15544977,37.9676526 C5.05794356,37.2725848 5.15278567,37.2555279 5.63765263,36.7635435 L7.59896613,34.7772166 L8.02868614,33.6304079 Z M6.55144037,16.7973998 C6.35323101,17.2230223 6.21256631,17.5457704 6.11692497,17.8778465 C5.70052549,19.3164877 6.30527714,20.600551 4.99959968,21.6434192 C5.61314287,22.8816421 5.58490337,23.3757586 7.01206398,22.8035536 C7.56246791,22.5823472 8.01643126,22.2731912 8.42190792,21.9070013 C8.2256283,22.4170845 8.04518201,22.9331246 7.88082836,23.4543801 C7.85258885,23.5423297 7.8256814,23.6310787 7.79983959,23.7190283 C6.77922127,24.1523796 5.43677917,24.4276883 4.92313989,23.354704 C4.67377973,22.8336696 4.53284862,22.3224963 4.35089031,21.6642073 C2.67010697,19.9222735 5.18262363,17.6222599 6.55144037,16.7973998 Z M7.37757908,18.642741 C7.17004536,18.4348603 7.00407167,18.2944075 6.73579638,18.3247901 C6.75844126,18.148891 6.78854564,17.9791218 6.8309049,17.8197465 C6.85221773,17.7376603 6.87512903,17.6571732 6.89963878,17.5764195 C7.24757079,17.7792365 7.33921597,18.1467589 7.37757908,18.6424745 L7.37757908,18.642741 Z M57.7765693,12.1360744 C57.839975,12.2698643 57.902315,12.4060529 57.9635894,12.5438405 C57.9129714,12.5811524 57.8647512,12.6203299 57.8197278,12.6616395 C57.7369438,12.4683061 57.6174227,12.2928922 57.4677996,12.1451359 C57.56797,12.1414047 57.6708044,12.1382065 57.7768357,12.1360744 L57.7765693,12.1360744 Z M6.72513996,22.1372692 L6.72487355,22.1372692 L6.7134179,22.1079527 L6.72487355,22.1375357 L6.72513996,22.1372692 Z M0.794311212,21.7183096 C1.06178727,18.6888479 1.6505543,17.3807984 3.80208484,15.1007733 C1.1033473,17.0031484 0.429861759,17.867719 0.794311212,21.7180431 L0.794311212,21.7183096 Z"/>
      <path fill="#000" fill-rule="nonzero" d="M0.0340572457,19.2850812 C0.331509152,17.9233 0.608953083,17.4093048 1.45062193,16.2916114 C0.0850108907,17.243208 -0.0926599343,17.6339614 0.0337904727,19.2850812 M31.7400295,0.301329394 C30.1209841,0.690751974 29.8123278,0.989406885 29.3268009,2.57291674 C30.1015097,1.41343297 30.5475542,1.03625471 31.7400295,0.301329394"/>
      <path fill="#000" fill-rule="nonzero" d="M34.3294192,0.000266453493 C31.1187467,0.786304259 30.1753099,1.34532369 29.1089089,5.06261637 C30.4644492,2.33999458 31.4908401,1.33759654 34.3294192,0 M41.2442215,13.5510253 C41.5864407,12.0365037 42.1945933,10.5771379 44.5490509,9.44790797 C41.4282677,10.2286167 40.8430541,11.5382356 41.2442215,13.5512918 M61.1020056,13.6557415 C62.9502028,12.9976014 63.8410931,11.513189 64.2836041,9.7668528 C63.5602226,11.2304818 62.4439424,12.4545692 60.9275618,13.2043693 C60.1137575,13.6067141 59.5938937,13.4662931 58.6851323,13.3802286 C59.6093643,13.6453498 60.1948446,13.9786832 61.1020056,13.6557415 M48.5116455,15.1398875 C48.2746363,14.6434366 47.8519272,14.2598289 47.3345501,14.0716754 C47.7879972,13.8300021 48.2331756,13.5760719 48.5804628,13.2603246 C47.5628741,13.7308814 46.3783101,13.61604 45.5050242,14.2051686 C44.7360312,14.72422 43.6744314,16.368771 42.8929019,17.0660798 C43.4589107,16.8465221 44.0043809,16.4668259 44.5066403,16.0668792 C44.5122835,16.8410239 44.9456646,17.5486935 45.6330564,17.9062077 C45.3441143,18.284247 45.1140774,18.7037717 44.9507518,19.1505455 C46.4388586,17.388755 48.5964668,16.0580862 50.6252427,15.489208 C50.058167,15.4812144 49.3867985,15.5869965 48.7028935,15.8116167 C48.6773681,15.5785653 48.6127136,15.3514764 48.5116455,15.1398875 M46.3705748,28.4524369 C46.29829,28.9086053 46.1990651,29.4756183 46.1267803,29.9320532 C46.3201621,29.4156663 46.5527539,28.815613 46.7776103,28.323207 C47.0160701,27.8020239 47.1502371,27.7529965 47.6562308,27.4780165 C48.0149875,27.2829725 48.666351,27.0149203 49.0251077,26.8198764 C48.6559484,26.88196 47.994449,27.0175849 47.6252897,27.0796685 C46.6394423,27.2459355 46.5234132,27.4825462 46.3705748,28.4524369 M29.5295478,10.8390617 C28.3852606,11.9688245 27.2737817,15.8457228 26.9187592,17.397015 C27.4780996,16.1084459 28.8779176,12.5038631 29.9517872,11.5869966 C30.2483949,11.3335993 30.455647,11.1779905 30.6783695,11.0647478 C29.9096433,12.3525175 29.9661908,12.6727946 30.2358585,14.398081 C30.4649826,12.6440176 31.0720683,11.9664264 32.0683184,10.6578733 C33.1603258,10.3842255 34.182449,10.0562213 35.3027302,9.61977047 C34.0409762,9.76226711 32.7779393,9.89319011 31.5137792,10.0125229 C30.4527129,10.1129759 30.2817366,10.0959229 29.5292811,10.8390617"/>
      <path fill="#FFC" fill-rule="nonzero" d="M45.0837543,17.4122655 C44.8758167,16.9767326 45.0614073,16.4557855 45.4984866,16.2481245 C45.7300953,16.1388224 45.9980236,16.1353894 46.2323798,16.238721 C46.466736,16.3420525 46.644279,16.5419014 46.718695,16.786135 C46.3012973,17.0948208 45.9188161,17.4579181 45.597905,17.8788774 C45.3820097,17.7923498 45.1906358,17.63522 45.0834878,17.4122655 M54.8478203,13.6507047 C54.8830032,13.2910578 55.190854,13.0259012 55.5520122,13.0606715 C55.9137499,13.0961986 56.1786712,13.4161188 56.1447915,13.7765147 C56.1373122,13.8507517 56.1172132,13.9231821 56.0853536,13.9907103 C55.7548472,14.0472451 55.4243408,14.1433279 55.0837059,14.2680763 C54.9413749,14.1228904 54.82783,13.8579993 54.8478203,13.6507047"/>
    </g>
  </g>
</svg>
