<svg width="120" height="120" viewBox="0 0 120 120" fill="none" xmlns="http://www.w3.org/2000/svg">
<path d="M32.622 52.6268L32.5969 52.6498L32.5757 52.6765L31.5337 53.989L31.8705 54.2563L29.2654 57.5375L28.9286 57.2701L27.8866 58.5825L27.6546 58.8747L27.8586 59.0901C27.8607 59.1088 27.8626 59.1347 27.8636 59.1693C27.8672 59.3038 27.8543 59.5155 27.813 59.8284L28.2393 59.8846C28.1645 60.4529 28.0077 61.2848 27.7385 62.4615L27.3194 62.3656C27.2475 62.6796 27.1676 63.0186 27.0788 63.3843C26.8106 64.4899 26.6602 65.5964 26.6005 66.6801L27.0298 66.7037C26.8639 69.7166 27.4139 72.5672 28.0902 74.7322L27.6798 74.8604C28.0856 76.1593 28.5383 77.2232 28.9184 77.9425L29.45 79.0382L29.8369 78.8505L31.1741 81.6065L30.7872 81.7943L31.2853 82.8208L31.4136 84.8037L31.8427 84.776L32.177 89.9435L31.7479 89.9713L31.8409 91.4093L31.7556 91.427C31.7923 91.6039 31.8329 91.807 31.8716 92.0048L31.7778 92.0196C31.8086 92.2162 31.8446 92.4418 31.8863 92.6993C32.0409 93.6552 32.676 94.3514 33.4998 94.8472L33.7215 94.4787C35.1823 95.3577 37.5099 95.6931 39.5367 95.7652L39.5214 96.1949C40.4285 96.2272 41.2774 96.2076 41.9682 96.1602L42.2584 96.1402L42.3479 95.8635L42.6153 95.0367L42.2062 94.9044L42.8748 92.8373L43.284 92.9697L43.5422 92.1713L43.9303 91.3714L43.5434 91.1837L44.5464 89.1167L44.9332 89.3044L45.3344 88.4776L45.3775 88.3887V88.2899V86.6363H44.9475V82.5023H45.2144C45.2491 82.5595 45.2851 82.6164 45.3223 82.6731L45.6817 82.4371C46.3256 83.4175 47.3748 84.2858 49.248 84.8261L49.1289 85.2392C49.6584 85.3919 50.247 85.5183 50.9024 85.6148C51.6141 85.7196 52.2937 85.7168 52.9361 85.6272L52.8767 85.2014C54.5858 84.9629 56.0005 84.0707 57.032 82.9947L57.3424 83.2923C57.6078 83.0154 57.8493 82.7267 58.0654 82.4334H58.1861V84.8449H57.7561V85.5984L56.8533 86.2961L57.1163 86.6363L54.4418 88.7033L54.1789 88.3631L53.1091 89.1899L52.8226 89.4113L52.992 89.7313C53.263 90.2433 53.6117 90.8741 54.0061 91.551L54.3777 91.3345C55.2283 92.7943 56.2947 94.4727 57.2492 95.6243L56.9182 95.8987C57.2151 96.2569 57.5091 96.5749 57.7904 96.8258C58.0655 97.0711 58.3563 97.2778 58.6481 97.3781C58.8769 97.4566 59.1197 97.436 59.3368 97.3827C59.5587 97.3283 59.7956 97.2294 60.0383 97.1037C60.5241 96.852 61.0886 96.4632 61.6917 95.9931L61.4273 95.6539C63.0973 94.3521 65.1952 92.3148 66.9516 90.4958L67.2609 90.7944C67.7325 90.306 68.1796 89.8332 68.5876 89.3942V89.5301H69.0176V92.6306H68.5876V93.8709V94.3008H69.0176H71.0235V93.8709H76.0381V94.3008H78.0439H78.4739V93.8709V93.3196H78.0439V91.9416H78.4739V91.3904V91.3644L78.4708 91.3387L78.3371 90.2362L77.9102 90.288L77.5759 87.532L78.0027 87.4802L77.869 86.3778L77.8665 86.357L77.8619 86.3365L77.3271 83.925L76.9073 84.0181L75.57 77.9893L75.9898 77.8962L75.4549 75.4846L75.4328 75.3848L75.3681 75.3057L74.2983 73.9965L73.9654 74.2686L71.2909 70.9959L71.3672 70.9335C71.5143 71.0477 71.6708 71.1716 71.8374 71.3044L72.1056 70.9683C72.2304 71.0678 72.36 71.1717 72.4945 71.2795C73.5656 72.1381 74.9475 73.2458 76.6917 74.3857L76.4565 74.7456C77.0701 75.1466 77.7284 75.5518 78.4335 75.9518C78.9645 76.253 79.445 76.5223 79.8811 76.7614L80.0878 76.3844C82.1097 77.4931 83.1547 77.9399 83.874 77.9212L83.8851 78.351C84.6283 78.3317 85.0967 77.9176 85.5731 77.4279L85.6216 77.3781L85.6519 77.3155L86.1861 76.2131L85.7991 76.0256L87.0591 73.4254C87.1015 73.3826 87.1443 73.3392 87.1874 73.2952L87.5216 73.4571L88.0558 72.3547L87.354 71.8743C86.8913 72.3716 86.4714 72.8035 86.0893 73.177L86.3898 73.4845C84.318 75.5097 83.2953 75.8899 82.5542 75.6768L82.673 75.2636C82.4814 75.2084 82.2988 75.0912 82.0719 74.9101C82.0113 74.8617 81.9447 74.8061 81.8733 74.7466C81.7009 74.6027 81.501 74.436 81.293 74.2932C81.0355 74.1162 80.8543 73.8093 80.7474 73.3498L80.3286 73.4473C80.1075 72.4978 80.2288 71.2338 80.3386 70.0894C80.3455 70.0179 80.3523 69.947 80.359 69.8766L80.787 69.9172C80.8364 69.3971 80.8809 68.8864 80.8809 68.4465V67.4819H80.4509V65.0704H80.8809V64.9827C81.8511 65.7147 83.0212 66.5223 84.3166 67.317L84.5415 66.9505C87.9769 69.058 92.3082 71.0777 96.104 71.3115L96.0776 71.7407C97.9026 71.8531 99.6464 71.5684 101.132 70.6754C102.292 69.9784 103.257 69.3098 104.07 68.6568L103.801 68.3215C106.818 65.8979 107.622 63.7455 108.578 61.1876C108.583 61.1733 108.588 61.159 108.594 61.1447L108.997 61.2953C109.372 60.2912 109.766 59.2421 110.324 58.0925C110.833 57.0424 111.13 55.6746 111.286 54.1757L110.859 54.1312C111.171 51.1291 110.921 47.4391 110.541 44.3967L110.967 44.3434C110.779 42.8406 110.559 41.4934 110.359 40.4599L110.354 40.4343L110.346 40.4095C110.162 39.8414 109.937 39.1876 109.686 38.5093L109.283 38.6585C108.666 36.9905 107.89 35.1732 107.186 34.1448L107.54 33.9018C107.387 33.6781 107.229 33.4777 107.068 33.3163C106.91 33.1587 106.728 33.0158 106.521 32.9393C106.299 32.8571 106.048 32.8531 105.812 32.9841C105.596 33.1044 105.446 33.3096 105.338 33.5329C105.141 33.9392 104.787 34.3582 104.313 34.7747L104.597 35.0979C103.545 36.0213 102.052 36.8264 100.77 37.3988L100.594 37.0061C99.9739 37.2831 99.405 37.5037 98.9655 37.6547L98.595 37.782L98.6874 38.1627C98.8464 38.8184 99.0485 39.7124 99.2592 40.7368L99.6804 40.6502C100.084 42.61 100.518 45.0411 100.747 47.1968L100.32 47.2422C100.421 48.1921 100.48 49.0799 100.48 49.8434C100.48 50.503 100.355 51.1655 100.137 51.8162L100.545 51.9526C99.9642 53.6897 98.7821 55.2827 97.6774 56.4518L97.3649 56.1565C97.0747 56.4635 96.7909 56.7397 96.5265 56.9798V56.5267H96.0965V53.0817H96.5265V51.7037V51.5293L96.4051 51.4042L95.0678 50.0262L94.7592 50.3257L91.4162 46.8806L91.7248 46.5812L90.7913 45.6193L91.0782 45.4715L90.8813 45.0892L92.8871 44.0557L93.0841 44.438L93.8864 44.0246L94.4313 43.7438L93.9819 43.327L92.6446 42.0868L92.3522 42.4021L89.0092 39.3016L89.3016 38.9863L87.9883 37.7684L86.8052 36.2782L86.4684 36.5456L83.4597 32.756L83.7964 32.4886L82.5929 30.9728L82.5148 30.8744L82.3959 30.8335L81.5935 30.5579L81.4538 30.9646L79.448 30.2756L79.5877 29.8689L78.7854 29.5933L78.7174 29.57H78.6457H77.7096V30H75.3694V29.57H74.4334H74.3895L74.3466 29.5789L73.0094 29.8545L73.0962 30.2756L69.7531 30.9646L69.6663 30.5435L68.3291 30.8191L68.2545 30.8344L68.1897 30.8745L66.8525 31.7013L67.0786 32.067L63.7356 34.134L63.5094 33.7683L62.1722 34.5951L62.1366 34.6171L62.1059 34.6456L60.7687 35.8858L61.0611 36.2011L57.7181 39.3016L57.4256 38.9863L56.1273 40.1905L54.1679 41.2674L54.375 41.6442L49.3604 44.4002L49.1533 44.0234L47.1918 45.1014L45.2348 45.6392L45.3487 46.0538L40.3341 47.4319L40.2202 47.0172L38.2143 47.5684L38.1143 47.5959L38.0378 47.666L36.8343 48.7684L37.1248 49.0855L34.116 51.8415L33.8256 51.5244L32.622 52.6268ZM27.852 59.051C27.8521 59.051 27.8525 59.0523 27.8531 59.0551C27.8523 59.0525 27.852 59.0511 27.852 59.051Z" fill="#F7F7FE" stroke="black" stroke-width="0.86" stroke-dasharray="8 10"/>
<path fill-rule="evenodd" clip-rule="evenodd" d="M64.0903 32.8653H64.1047C65.1979 32.8653 66.2791 32.9503 67.3403 33.4443C67.3874 33.466 67.4345 33.4889 67.4815 33.5124C67.5657 33.5544 67.6493 33.5992 67.7334 33.6468C64.011 33.7124 62.8414 36.6687 61.3353 39.2365L61.0804 39.0952C61.1333 38.6501 61.1567 38.2 61.2423 37.7604C61.4573 36.6547 61.6963 35.5525 61.9361 34.4511C62.1662 33.4028 62.8304 32.8735 63.9079 32.866H64.002H64.0903V32.8653ZM63.687 22C62.9272 22 62.1604 22.0442 61.3877 22.1169C57.9039 22.4439 54.7094 23.4528 51.9423 25.6212C50.6747 26.6149 49.5571 27.7576 48.7374 29.2846C50.7243 29.1836 52.8536 29.0779 54.7171 28.9832H54.897C54.498 29.2071 54.0757 29.3872 53.6377 29.5204C51.5507 30.0328 49.5614 30.5639 47.4402 30.8946C45.7872 31.1525 44.3458 31.6253 43.2123 32.9419C40.4649 36.1341 37.5899 39.2193 34.915 42.4698C33.5009 44.1875 32.3703 46.1404 31.1678 48.0239C30.4643 49.1254 30.4467 50.3027 31.2633 51.3721C32.4698 52.953 33.7241 54.4971 35.0157 56.1312C36.3561 54.5818 37.7171 53.0094 39.0785 51.4375L39.2856 51.5841C39.2244 51.7992 39.1506 52.0105 39.0646 52.2169C37.7982 54.8183 36.5278 57.4176 35.2536 60.0148C34.0913 62.3722 34.1719 62.6609 36.4268 64.0885C37.2202 64.5912 38.0163 64.8963 38.8349 64.8963C39.5022 64.8877 40.1541 64.6949 40.7178 64.3393C41.8718 63.6485 43.0966 63.0729 44.2529 62.3867C46.4658 61.0721 48.8014 60.2644 51.3733 60.2644C51.5859 60.2644 51.8003 60.27 52.0163 60.2813C52.022 60.2813 52.0278 60.2813 52.0334 60.2813C52.2831 60.2813 52.6951 60.0048 52.7617 59.7813C53.6332 56.8544 54.226 53.9349 53.421 50.8377C52.6044 47.6957 52.3547 44.4843 53.5191 41.3343C53.7681 40.6605 54.1286 40.0272 54.4383 39.3769L54.7191 39.4557C54.7429 39.8222 54.7405 40.19 54.7121 40.5563C54.3141 43.3261 54.6615 46.0201 55.5186 48.6609C56.1663 50.6561 56.7634 52.6857 56.5015 54.7903C56.1825 57.3538 55.6593 59.8906 55.2432 62.4417C55.1352 63.0995 54.8819 63.3626 54.3933 63.3626C54.202 63.3576 54.0119 63.3301 53.8271 63.2808C52.9834 63.0695 52.1173 62.9601 51.2473 62.9549C49.5934 62.9492 47.9719 63.4109 46.5713 64.2863C45.1199 65.1766 43.6146 65.9823 42.1127 66.7864C40.8979 67.4373 39.7155 67.7748 38.5706 67.7748C37.034 67.7748 35.5648 67.1669 34.1757 65.8921C33.4494 65.2247 32.7152 64.5631 32.0214 63.8639C30.4247 62.2494 30.4332 62.2405 31.6776 60.3948L31.7741 60.2431C32.9948 58.4336 32.9878 58.2966 31.5629 56.5815L31.3855 56.3792C30.39 55.0397 29.3508 53.7292 28.4169 52.3491C27.6561 51.2244 27.4742 49.8941 28.0013 48.6665C28.6893 47.0666 29.4453 45.4511 30.4562 44.045C31.759 42.2331 33.3397 40.6195 34.807 38.9258C35.4281 38.2077 36.0961 37.3926 36.7258 36.6823C33.7464 37.0913 30.9414 37.9754 28.2629 39.1104C25.4246 40.3131 22.9697 41.9857 21.0832 44.4541C19.8493 46.0672 18.591 47.6645 17.2642 49.2018C16.5123 50.0729 15.699 50.9646 14.7354 51.5653C14.3282 51.815 13.8588 51.9459 13.3806 51.9431C12.3082 51.9431 11.2508 51.3055 11.0227 50.1215C11.4545 49.5639 12.0466 49.1437 12.1022 48.6609C12.2853 47.0974 12.2706 45.5105 12.3335 43.9339C11.1177 44.5873 9.73147 45.968 9.26766 47.0896C8.89704 47.9848 8.83875 48.8563 9.56452 49.6774C9.80973 49.9549 9.90869 50.4167 9.94881 50.8081C10.1962 53.2022 11.3255 54.4689 13.6161 54.7156C13.7559 54.7301 13.8964 54.7373 14.0369 54.7369C14.6226 54.7369 15.2244 54.6295 15.8389 54.5881C15.8583 54.7549 15.8677 54.9228 15.867 55.0907C15.7461 56.6923 15.5637 58.2906 15.5072 59.8931C15.4228 62.2924 15.7524 64.6236 16.6757 66.8761C18.1792 70.5449 19.6678 72.9498 21.542 75.9317C21.7413 76.2497 21.9872 76.6615 21.9306 76.979C21.6348 78.6694 21.3809 80.3871 20.8621 82.0159C20.153 84.2408 20.5729 85.6176 22.7841 86.3241C24.52 86.8543 26.3048 87.2106 28.112 87.3878C28.3708 87.4174 28.631 87.4331 28.8915 87.4348C30.4747 87.4348 31.0586 86.7141 31.2189 84.8688C31.2928 84.0272 31.3381 83.0551 31.7861 82.3918C33.8337 79.3547 33.7261 77.9298 33.5368 74.0927C33.5189 73.7365 33.4481 73.3845 33.4276 73.0294C33.4096 72.7041 33.4233 72.3777 33.4233 71.9628C34.1383 72.8515 34.6534 73.7175 35.3761 74.3509C36.7481 75.5733 38.5331 76.2354 40.3744 76.2046C41.2175 76.1977 42.0571 76.0938 42.8762 75.8948C44.4828 75.5188 45.707 74.639 46.2334 72.9867C46.316 72.8327 46.4196 72.691 46.5414 72.5655C46.5851 72.6815 46.6172 72.8014 46.6373 72.9236C46.6477 73.9378 46.6335 74.9519 46.6614 75.9659C46.6855 76.84 46.3138 77.4392 45.533 77.8281C44.6503 78.27 43.7582 78.7008 42.9142 79.2111C41.1901 80.2496 40.8956 81.3278 42.0298 82.9975C42.9493 84.3215 43.9551 85.584 45.0408 86.7769C45.8181 87.6498 46.4419 88.0706 47.12 88.0706C47.7049 88.0706 48.3301 87.7574 49.1294 87.1513C50.7024 85.9597 52.2496 84.7329 53.81 83.525C56.7006 81.2843 58.958 78.5609 60.3588 75.1589C61.4155 72.5945 62.504 70.0442 63.6244 67.508C63.9054 66.8715 63.7755 66.5726 63.2482 66.1096C61.7344 64.7846 60.1188 63.4256 59.1498 61.555C59.0121 61.2913 58.9256 61.0012 58.7383 60.5323C60.1686 61.5201 61.2909 62.5995 62.635 63.1549C64.7119 64.0143 66.3369 65.3572 67.9162 66.8684C69.1701 68.1036 70.8542 68.8102 72.6181 68.8412C72.6338 68.8412 72.6494 68.8412 72.6651 68.8412C75.2062 68.8412 77.9417 66.0525 78.1965 63.077C77.8027 63.4281 77.5466 63.6 77.3651 63.8301C76.9229 64.3927 76.5735 65.0337 76.0858 65.551C75.2378 66.4509 74.2447 66.8896 73.2835 66.8896C72.0117 66.8896 70.7958 66.1214 70.0461 64.6374C68.767 62.1051 68.6865 59.3659 68.8988 56.605C68.9456 55.987 69.0334 55.3729 69.1021 54.7566L69.4578 54.6083C69.5395 54.8017 69.6411 54.9861 69.7608 55.1587C72.7691 58.6533 76.5408 60.8902 81.0627 61.8154C82.5246 62.1415 84.0159 62.3196 85.5139 62.347C86.7129 62.3583 87.9065 62.1838 89.0516 61.8299C93.5557 60.4034 96.2607 57.0741 98.1168 52.9598C99.9248 48.949 100.595 44.7087 100.312 40.3366C100.136 37.6383 99.9241 34.9324 99.5214 32.2602C99.1585 29.843 98.4675 27.4772 96.939 25.4752C96.4618 24.8505 96.0657 24.5316 95.6814 24.5316C95.2913 24.5316 94.9137 24.8604 94.4771 25.5318C93.3782 27.2244 91.8586 28.2522 89.9866 28.898C88.3719 29.4543 88.1449 29.9148 88.3984 31.5913C88.7247 33.7643 89.1576 35.9294 89.3364 38.1138C89.6158 41.5445 89.1227 44.8512 86.9463 47.6858C86.3355 48.4812 85.5513 49.1442 84.8455 49.8679L84.5704 49.6352C84.7154 49.36 84.875 49.0917 85.004 48.8083C85.5675 47.5641 86.1617 46.3315 86.6667 45.0639C87.0181 44.1823 86.7047 43.4704 85.933 42.8834C85.6425 42.6415 85.2784 42.5042 84.8996 42.4938C84.4677 42.5163 84.0536 42.6728 83.7156 42.9415C83.0949 43.3807 82.514 43.8768 81.9165 44.3474C82.148 43.8447 82.4509 43.3779 82.8161 42.9611C83.2964 42.3454 83.6417 41.6863 83.2052 40.9105C82.9134 40.3896 82.1869 40.078 81.4338 40.078C81.25 40.0779 81.0666 40.0968 80.8867 40.1346C80.4623 40.2242 80.0476 40.4451 79.4935 40.4233C81.1978 38.9475 80.9499 37.0868 77.8509 36.7289C78.3796 36.3366 79.079 36.2415 79.723 36.1432C79.9106 36.117 80.0999 36.105 80.2892 36.1074C80.3972 36.1074 80.5073 36.1099 80.6165 36.1126C80.7257 36.1153 80.8338 36.1174 80.9423 36.1174C81.1042 36.1188 81.266 36.1105 81.4268 36.0925C82.2004 35.9992 82.4987 35.6116 82.2438 34.8912C81.5723 32.982 79.2202 30.9963 77.2063 30.9521C76.9303 30.946 76.223 30.9521 75.9469 30.9521H74.6875C75.3929 30.6298 75.9758 30.1268 76.7489 29.7752C74.685 26.9216 72.3677 24.3945 69.0462 22.9912C67.3061 22.2566 65.5169 22 63.687 22ZM64.5326 73.0042C63.676 77.6721 60.8186 82.2687 57.6862 84.4763C57.1945 84.8245 57.2618 85.2238 57.638 85.489C58.0021 85.7325 58.4278 85.869 58.8662 85.8829C59.8766 85.9008 60.8868 85.906 61.8972 85.906C62.9812 85.906 64.0653 85.9001 65.1488 85.8987C66.9945 85.8972 67.9194 84.6544 67.0851 83.0023C66.4792 81.8027 66.3655 80.6172 66.4837 79.3855C66.7075 77.018 65.8162 75.0219 64.5326 73.0042ZM14.3387 67.6974C13.0359 69.354 11.8526 70.8054 10.7341 72.3045C10.1875 73.0386 10.0112 73.9641 10.484 74.7566C11.6495 76.7163 13.0638 78.4997 15.0612 79.6943C15.6848 80.0675 16.24 80.2517 16.7532 80.2517C17.561 80.2517 18.2645 79.7953 18.9635 78.9018C19.2745 78.5042 19.218 78.2331 18.9897 77.7987C17.8163 75.5652 16.6699 73.314 15.5838 71.0369C15.1135 70.0505 14.8122 68.987 14.3387 67.6974ZM72.562 38.0236C69.1077 38.0564 64.8798 41.2091 64.4687 43.9323C65.0108 43.4827 65.6824 42.8949 66.1741 42.4872C66.0789 42.6292 67.0461 43.5239 66.9509 43.6659C67.658 44.2442 67.4813 44.0702 68.2216 44.6761C67.9392 45.2294 67.2251 46.1053 66.8694 46.8024L67.095 46.9891C69.4429 44.5078 72.0408 42.3762 75.3093 41.1835L75.1894 40.8945C74.5223 41.0396 73.8532 41.1842 73.2689 41.3112C72.5899 40.4558 71.9766 39.6818 71.3415 38.8809C71.631 38.6777 72.0072 38.4139 72.562 38.0241V38.0236ZM64.0903 32.8653H64.0024H63.9083C62.8308 32.8728 62.1665 33.4024 61.9364 34.4504C61.6966 35.5518 61.4577 36.654 61.2427 37.7597C61.1565 38.1985 61.1331 38.6494 61.0808 39.0945L61.3357 39.2358C62.8417 36.668 64.0114 33.7116 67.7337 33.6461C67.6499 33.5985 67.5662 33.5537 67.4818 33.5116C67.4349 33.4882 67.3878 33.4653 67.3406 33.4436C66.2791 32.9496 65.1982 32.8653 64.1051 32.8646H64.0903V32.8653ZM89.3514 30.881C89.5944 30.6042 89.7832 30.1924 90.089 30.0729C91.9494 29.3827 93.5532 28.1427 94.6852 26.5193C94.9254 26.1737 95.4669 26.0369 95.8698 25.8031C95.8786 26.1245 95.9476 26.4656 95.9475 26.7841C95.9503 26.9303 95.9299 27.0759 95.8872 27.2158C95.1918 29.3481 92.4534 31.4439 90.1245 31.4561C90.0059 31.368 89.6795 31.1243 89.3508 30.8803L89.3514 30.881ZM95.8692 25.8033C95.4664 26.036 94.9249 26.1732 94.6847 26.5195C93.5527 28.1427 91.949 29.3827 90.0886 30.0729C89.7828 30.1924 89.5939 30.6042 89.351 30.881C89.6792 31.1251 90.0055 31.3687 90.1246 31.4568C92.4536 31.4447 95.192 29.3489 95.8874 27.2165C95.9301 27.0767 95.9505 26.931 95.9476 26.7848C95.9476 26.4661 95.8787 26.1252 95.8699 25.8038" fill="#0079D6"/>
</svg>
