<svg xmlns="http://www.w3.org/2000/svg" width="98" height="95" viewBox="0 0 98 95">
  <g fill="none">
    <path fill="#F7F7FE" stroke="#000" stroke-dasharray="8 10" stroke-linecap="round" stroke-linejoin="round" d="M55.0224719,94.0449438 C78.2308423,94.0449438 97.0449438,75.2308423 97.0449438,52.0224719 C97.0449438,28.8141015 78.2308423,10 55.0224719,10 C31.8141015,10 13,28.8141015 13,52.0224719 C13,75.2308423 31.8141015,94.0449438 55.0224719,94.0449438 Z"/>
    <circle cx="42.022" cy="42.022" r="42.022" fill="#BA190B"/>
    <path fill="#FFF" d="M33.8343589,27.4483541 C32.3181085,27.4789731 30.8007057,27.4577226 29.2837638,27.4577226 L29.2837638,27.517361 C27.850021,27.517361 26.4160477,27.5217025 24.9823049,27.5162185 C23.4593709,27.5102775 22.2763775,28.1845806 21.3549655,29.3330209 C20.0258553,30.9898734 18.9827561,32.9044737 16.9608584,33.9226691 C16.7373042,34.0353195 16.5577695,34.4738108 16.5819686,34.7413841 C16.5964881,34.90499 17.0219325,35.0877899 17.2913498,35.1652513 C19.6900631,35.8555494 22.1263427,35.9556323 24.5690754,35.4677851 C28.0284034,34.7770301 31.1473299,33.4227114 33.3946255,30.5922836 C33.909722,29.943344 34.2639517,29.1431375 34.5700135,28.3650955 C34.7861927,27.8157819 34.548119,27.4339586 33.8343589,27.4483541 Z M5.3938887,23.1262793 C5.03574108,22.6377465 4.64624979,22.1185948 4.26989518,21.5900747 C3.97397398,21.1744334 3.69510743,21.0802915 3.26851074,21.4719402 C1.47477656,23.1180533 0.832922562,27.2872617 2.04103699,29.3732369 C3.16249536,27.2840627 4.2980123,25.168154 5.3938887,23.1262793 Z M53.5677396,24.0162862 C52.6979525,23.8469678 52.6142926,23.4898225 52.2365552,23.0257393 C50.2635167,20.6011273 48.7979693,18.3536027 46.2093502,15.8430747 C42.0434066,11.5353954 36.8657074,9.30866423 30.823522,8.97688243 C27.5451115,8.79705305 24.3130252,9.07285238 21.0929232,9.55864308 C19.5444072,9.79216993 18.5289642,9.1937288 17.7801729,7.96165756 C17.4973884,7.49643185 17.195936,7.00378615 17.0793191,6.48486297 C16.6488044,4.56889165 16.2742935,2.63989584 15.9168373,0.708843525 C15.7875447,0.0105479558 15.5874982,-0.152143944 14.932738,0.134394879 C13.8550686,0.606247088 13.141539,1.44621257 12.8195749,2.53135841 C12.5423216,3.46615133 12.2941073,4.45761222 12.3090878,5.41959663 C12.343658,7.63261776 12.5135131,9.8454104 12.6939697,12.0529475 C12.7942234,13.2813628 12.6190675,14.3464006 11.7612648,15.3255225 C10.7859233,16.4390023 9.946558,17.6692456 9.04104834,18.8437348 C5.76955191,23.0874343 3.04610891,27.6336675 1.27956998,32.7040793 C0.381435311,35.2811008 -0.308125614,37.8901121 0.141056954,40.6638719 C0.293626918,41.6057484 0.370833773,42.5595068 0.483993671,43.5077812 C0.619969923,44.6484525 2.19752491,46.0189946 3.3558582,45.9998006 C4.68542938,45.9780932 5.8377705,45.429465 6.84307289,44.6507375 C8.61813915,43.2758538 10.5782714,42.240978 12.5849582,41.2584286 C14.9742223,40.0885093 17.1687407,38.6283952 19.0212443,36.7041979 C19.1576815,36.5622995 19.266232,36.3941236 19.4058958,36.2149797 C18.4605151,35.9887648 17.5914194,35.8221884 16.7490581,35.5685536 C15.8308727,35.2920687 15.6488028,34.6106822 16.26761,33.8710281 C16.4748009,33.6233343 16.7702612,33.4499029 17.014327,33.2303145 C17.7243996,32.5916574 18.4801049,31.9925308 19.1208066,31.2910362 C19.7290122,30.6249591 20.1936362,29.8325216 20.7587442,29.1250861 C21.7728044,27.8553123 23.0915436,27.1394223 24.7467664,27.1072038 C25.7405453,27.0880098 26.7354767,27.0722433 27.7290252,27.0946363 C28.5146914,27.1122308 29.1427173,26.8620234 29.7606026,26.3600093 C31.2738569,25.13068 32.564018,23.8997513 34.1846706,22.8191754 C36.7548522,21.3944788 38.6829494,20.7843842 41.1542602,21.0304785 C45.5926172,21.4726257 48.9046761,23.8019533 51.5873262,27.1741543 C51.686197,27.2982297 51.7700875,27.4714326 51.7518805,27.6496625 C51.7336735,27.8278924 51.4746272,27.7422049 51.4746272,27.7422049 C51.4746272,27.7422049 49.3192884,25.5063338 48.3084548,24.4604899 C47.7527959,25.2268785 47.4635582,25.7517426 47.004696,26.3088253 C46.3782834,27.0692728 45.6094414,27.7298659 45.07222,28.5435539 C44.1998977,29.8645116 44.5714125,31.8353229 45.7509489,32.6014829 C45.851433,32.448388 46.0171397,32.3046616 46.0406474,32.1408272 C46.1316824,31.5074256 46.1835377,31.0298609 46.9413173,30.9809619 C47.2851758,30.9587974 47.0394967,30.5614362 47.6917218,30.5267042 C47.8952252,30.5422422 47.8795534,30.7131601 48.0830568,30.6976221 C48.2476111,30.6743151 48.3206696,30.3934888 48.4981301,30.3171698 C48.850516,30.1656744 49.3190579,30.1844114 49.6659126,30.1985784 C50.3089189,30.2248559 50.6161331,29.8898751 50.699793,29.4810888 C50.7551054,29.2116875 50.7802265,28.9998681 50.9134371,28.5268734 C51.2213426,29.7459202 52.0215283,30.1138049 53.0143854,30.1051219 C53.4838492,30.101009 53.9666801,30.004125 54.4193197,30.0843285 C55.5221102,30.1540209 55.7173167,30.3992013 56.3386591,30.6334136 C57.2967155,30.9939864 58.167194,31.4288216 58.4979159,32.5530409 C58.5958649,32.5226505 58.7876144,32.498658 58.8894814,32.3046616 C58.9911179,32.1104367 58.9888132,31.8472049 58.9968796,31.5165656 C59.0879145,27.7801359 57.1849384,25.1327365 53.5677396,24.0162862 Z M14.6474184,29.8524011 C15.5185882,29.8384626 15.6499551,30.036572 15.2835107,30.789022 C15.2016944,30.9567409 15.1198782,31.1404548 15.1053587,31.3221122 C14.9892027,32.7799413 14.2666849,33.8228147 12.9910432,34.5444172 C12.3461931,34.909103 11.7813155,35.4136307 11.1325475,35.769862 C10.7767045,35.9652293 10.2226589,36.1740782 9.93987442,36.0287523 C9.78753492,35.9506053 9.70157027,35.7449555 9.63012512,35.5114286 C9.49345747,35.0624264 9.45865677,34.5818912 9.56605496,34.12512 C10.1053506,31.8325809 12.3079354,29.8903321 14.6474184,29.8524011 Z M9.40034831,37.6533863 C9.40956703,37.4587044 10.3148462,36.6863749 10.5441621,36.7229349 C10.7732475,36.7592663 10.7603413,36.9201302 10.7612632,37.1538856 C10.762185,37.3874125 9.85506211,38.193103 9.41832483,37.9239301 C9.31645787,37.8373287 9.37476633,37.6910888 9.40034831,37.6533863 Z M17.972153,36.8737448 C16.8209642,37.9296426 15.5361038,38.7753206 14.2869661,39.5561046 C13.3109331,40.1659707 12.2466309,40.6357665 11.255387,41.2239251 C9.74605064,42.119416 8.26413996,43.060607 6.77347149,43.9874024 C5.66284512,44.6781575 4.58310149,45.445003 3.15396804,45.4089 C3.17632345,45.2912226 3.17332737,45.2080486 3.19660466,45.1998226 C4.69994888,44.6767865 5.80873151,43.6885246 6.83477604,42.4911853 C7.45427462,41.7684403 8.38260063,41.2689396 9.24201664,40.7932029 C11.0401297,39.798086 12.4969194,38.4846688 13.6068543,36.7585808 C14.3989736,35.5269666 14.4298564,35.5760941 15.7428338,36.1448302 C16.4183362,36.4375385 16.9975028,36.541506 17.972153,36.8737448 Z M39.1307491,19.4021885 C40.8539601,19.366771 41.6430833,19.5653374 42.8650258,19.8486772 C43.8329923,20.0812901 44.5094166,20.7231462 44.9049,21.2420694 C43.3635285,20.7745587 42.5838545,20.5229803 41.0581549,20.3881654 C37.779053,19.9999441 34.9005049,21.0149405 32.3761864,23.0600143 C31.3086576,23.9248863 30.2501171,24.8130652 29.2879122,25.7880741 C28.7191167,26.3643508 28.7078237,26.5151607 27.3406862,26.4294732 C28.5497225,24.5747399 29.652052,22.696014 30.7317957,20.8351111 C34.2240807,14.8161963 43.0005411,15.8469592 46.0164483,19.3372945 C46.1395183,19.4798785 46.326428,19.8578172 46.326428,19.8578172 C46.326428,19.8578172 43.4723095,18.3440057 41.373205,18.3440057 C40.1088563,18.3440057 39.7919625,18.4365481 39.0104447,18.5697635 C38.8041757,18.6049525 38.4593952,18.7820399 38.4621608,19.0813747 C38.4651569,19.380938 38.8972848,19.3692845 39.1307491,19.4021885 Z M57.5389376,30.3489313 C56.6225959,28.9420577 55.2379428,29.246648 53.9415591,29.2409355 C53.5552943,29.2391075 53.1687991,29.2610435 52.7823039,29.274982 C52.1298484,29.2982889 51.5794903,29.147022 51.294862,28.4814019 C51.2215731,28.3102556 51.0378899,28.0454242 50.88532,28.0184612 C50.7364375,28.0589057 50.6868868,28.1551042 50.660383,28.2110866 C50.0719976,29.4518409 48.9304885,29.6478937 47.7454209,29.6728002 C47.0600084,29.6871957 46.4985878,29.7813376 46.1614128,30.4560977 C46.0961903,30.5870282 45.7627028,30.7373811 45.7050857,30.6912241 C45.5589688,30.5746892 45.3796646,30.3110003 45.4255277,30.1782419 C45.6004531,29.6728002 45.78598,29.142452 46.1010301,28.7185848 C46.9000634,27.643493 47.7712333,26.6209561 48.687575,25.4857688 C49.1194724,25.937056 49.5933151,26.4438687 50.0802945,26.9376569 C50.4649459,27.3277062 50.8244764,27.7641409 51.2759636,28.0582202 C51.5140373,28.2133716 52.0289033,28.2371356 52.2259536,28.0810702 C52.3960392,27.9464838 52.4172422,27.4069956 52.285184,27.1631863 C52.0155361,26.6648281 51.5894004,26.2517003 51.2455418,25.7905876 C50.9888002,25.4464668 50.7601757,25.0820095 50.4545749,24.6316363 C53.5407748,24.0855217 58.1243269,27.8009294 57.5389376,30.3489313 Z" transform="translate(16 18)"/>
  </g>
</svg>
