<svg width="533" height="504" viewBox="0 0 533 504" fill="none" xmlns="http://www.w3.org/2000/svg">
<path opacity="0.6" d="M336.729 185.306C328.657 180.19 319.994 176.078 310.764 173.194C296.764 122.114 261.796 72.969 218.136 44.6202C171.574 14.3861 118.896 41.6403 107.722 92.7789C105.238 91.0626 102.611 89.4769 100.138 87.9791C59.5275 63.376 14.8776 90.6639 16.0215 137.476C17.3214 190.788 53.6318 253.509 99.8144 281.905C172.926 324.002 246.435 365.341 320.229 406.235C363.025 429.951 406.762 402.945 413.546 356.36C422.462 295.178 389.576 218.779 336.729 185.306" stroke="#E0E0E0" stroke-width="1.5"/>
<path opacity="0.6" d="M315.715 198.091C308.775 193.684 301.328 190.14 293.393 187.656C281.358 143.644 251.298 101.3 213.766 76.8738C173.739 50.8235 128.455 74.3062 118.849 118.368C116.713 116.889 114.455 115.523 112.329 114.233C77.4184 93.0341 39.0352 116.546 40.0185 156.88C41.1359 202.815 72.3501 256.856 112.051 281.323C174.901 317.595 238.093 353.213 301.53 388.448C338.32 408.882 375.918 385.613 381.75 345.475C389.415 292.759 361.145 226.932 315.715 198.091" stroke="#BDBDBD" stroke-width="1.5"/>
<path opacity="0.6" d="M364.333 174.72C355.188 168.923 345.374 164.263 334.918 160.996C319.058 103.114 279.446 47.4244 229.986 15.3007C177.239 -18.9593 117.564 11.9239 104.906 69.8722C102.091 67.9273 99.1155 66.1305 96.3139 64.4332C50.3094 36.554 -0.271441 67.4756 1.02439 120.521C2.49692 180.932 43.6305 252.005 95.9477 284.182C178.771 331.885 262.044 378.728 345.64 425.068C394.121 451.942 443.668 421.339 451.353 368.552C461.453 299.223 424.199 212.65 364.333 174.72" stroke="#F2F2F2" stroke-width="1.5"/>
<path fill-rule="evenodd" clip-rule="evenodd" d="M57.1826 326.157L71.1018 368.91L123.751 338.825L57.1826 326.157Z" fill="white"/>
<path fill-rule="evenodd" clip-rule="evenodd" d="M57.1826 326.157L71.1018 368.91L123.751 338.825L57.1826 326.157Z" stroke="black" stroke-width="1.5" stroke-linejoin="round"/>
<path fill-rule="evenodd" clip-rule="evenodd" d="M157.959 374.169V356.369L141.118 365.701V384.902" fill="white"/>
<path d="M157.959 374.169V356.369L141.118 365.701V384.902" stroke="black" stroke-width="1.5" stroke-linejoin="round"/>
<path fill-rule="evenodd" clip-rule="evenodd" d="M141.119 384.901L157.96 375.452V283.706L140.35 290.834L141.119 384.901Z" fill="white"/>
<path fill-rule="evenodd" clip-rule="evenodd" d="M141.119 384.901L157.96 375.452V283.706L140.35 290.834L141.119 384.901Z" stroke="black" stroke-width="1.5" stroke-linejoin="round"/>
<path fill-rule="evenodd" clip-rule="evenodd" d="M173.284 407.827L198.539 464.348C199.248 465.744 200.711 466.224 201.811 465.424L233.754 442.148C235.382 440.962 235.145 437.93 233.345 436.944L176.146 403.698C174.002 402.523 172.033 405.362 173.284 407.827Z" fill="white"/>
<path fill-rule="evenodd" clip-rule="evenodd" d="M173.284 407.827L198.539 464.348C199.248 465.744 200.711 466.224 201.811 465.424L233.754 442.148C235.382 440.962 235.145 437.93 233.345 436.944L176.146 403.698C174.002 402.523 172.033 405.362 173.284 407.827Z" stroke="black" stroke-width="1.5" stroke-linejoin="round"/>
<path fill-rule="evenodd" clip-rule="evenodd" d="M196.151 457.283L212.729 447.968V329.25L175.767 314.122L196.151 327.583V457.283Z" fill="white"/>
<path fill-rule="evenodd" clip-rule="evenodd" d="M196.151 457.283L212.729 447.968V329.25L175.767 314.122L196.151 327.583V457.283Z" stroke="black" stroke-width="1.5" stroke-linejoin="round"/>
<path d="M176.052 405.519L174.082 403.425C176.734 403.813 174.156 403.366 174.082 403.425L154.873 416.038L220.428 451.858L233.755 442.147C235.461 440.903 233.786 436.804 232.885 436.449L222.676 431.095" stroke="black" stroke-width="1.5" stroke-linejoin="round"/>
<path fill-rule="evenodd" clip-rule="evenodd" d="M158 415L174 404.5L176.5 406.5L176 425L158 415Z" fill="white"/>
<path fill-rule="evenodd" clip-rule="evenodd" d="M198.475 435.488L206.665 426.717C207.235 426.106 208.754 423.606 209.5 424L232 437.5C236.176 438.831 234.135 441.915 232.822 442.388L221.827 449.698C221.236 450.244 218.912 449.959 218.204 449.559L198.911 438.219C197.904 437.649 197.692 436.327 198.475 435.488Z" fill="white"/>
<path fill-rule="evenodd" clip-rule="evenodd" d="M220.428 451.858L196.151 437.277V327.583L175.767 311.598V426.103L157.09 415.865C154.946 414.689 152.976 417.529 154.228 419.993L182.93 476.515C183.639 477.909 185.102 478.391 186.201 477.59L217.636 454.08C219.262 452.894 220.428 451.858 220.428 451.858Z" fill="#9595EF"/>
<path fill-rule="evenodd" clip-rule="evenodd" d="M220.428 451.858L196.151 437.277V327.583L175.767 311.598V426.103L157.09 415.865C154.946 414.689 152.976 417.529 154.228 419.993L182.93 476.515C183.639 477.909 185.102 478.391 186.201 477.59L217.636 454.08C219.262 452.894 220.428 451.858 220.428 451.858Z" stroke="black" stroke-width="1.5" stroke-linejoin="round"/>
<path fill-rule="evenodd" clip-rule="evenodd" d="M57.6475 305.043L57.1572 325.585L91.9975 336.122" fill="white"/>
<path d="M57.6475 305.043L57.1572 325.585L91.9975 336.122" stroke="black" stroke-width="1.5" stroke-linejoin="round"/>
<path fill-rule="evenodd" clip-rule="evenodd" d="M91.9971 356.935L141.12 384.901V365.701L140.348 302.324V290.835L121.51 282.186V334.303V354.884L69.668 325.998V343.947" fill="white"/>
<path d="M91.9971 356.935L141.12 384.901V365.701L140.348 302.324V290.835L121.51 282.186V334.303V354.884L69.668 325.998V343.947" stroke="black" stroke-width="1.5" stroke-linecap="round" stroke-linejoin="round"/>
<path fill-rule="evenodd" clip-rule="evenodd" d="M121.077 335.775L106.676 327.734L120.405 319.889L119.787 316.868L57.6475 305.044L71.5681 347.798L89.521 337.538L121.512 354.885" fill="white"/>
<path d="M121.077 335.775L106.676 327.734L120.405 319.889L119.787 316.868L57.6475 305.044L71.5681 347.798L89.521 337.538L121.512 354.885" stroke="black" stroke-width="1.5" stroke-linejoin="round"/>
<path fill-rule="evenodd" clip-rule="evenodd" d="M58.5 311L70.5 347.5L70 363L57.5 325.5L58.5 311Z" fill="white"/>
<path fill-rule="evenodd" clip-rule="evenodd" d="M71.567 347.797L71.1016 368.91L71.567 347.797Z" fill="white"/>
<path d="M71.567 347.797L71.1016 368.91" stroke="black" stroke-width="1.5" stroke-linejoin="round"/>
<path d="M121.511 354.885V334.303" stroke="black" stroke-width="1.5" stroke-linecap="round" stroke-linejoin="round"/>
<path fill-rule="evenodd" clip-rule="evenodd" d="M140.35 309.516L141.119 368.128L140.35 309.516Z" fill="white"/>
<path d="M140.35 309.516L141.119 368.128" stroke="black" stroke-width="1.5" stroke-linecap="round" stroke-linejoin="round"/>
<path fill-rule="evenodd" clip-rule="evenodd" d="M261.642 441.145V371.741L244.477 366V439.528V442.609V451.941L312.098 489.188V470.108L261.642 441.145Z" fill="white"/>
<path fill-rule="evenodd" clip-rule="evenodd" d="M261.642 441.145V371.741L244.477 364.5V439.528V442.609V451.941L312.098 489.188V470.108L261.642 441.145Z" stroke="black" stroke-width="1.5" stroke-linejoin="round"/>
<path fill-rule="evenodd" clip-rule="evenodd" d="M261.643 441.145L305.139 466.111L283.729 477.837L357 490.293L346.663 443.364L322.483 456.609L281.055 433.177L277.036 430.903L276.141 369.998L261.643 371.741V441.647" fill="white"/>
<path d="M261.643 441.145L305.139 466.111L283.729 477.837L357 490.293L346.663 443.364L322.483 456.609L281.055 433.177L277.036 430.903L276.141 369.998L261.643 371.741V441.647" stroke="black" stroke-width="1.5" stroke-linejoin="round"/>
<path fill-rule="evenodd" clip-rule="evenodd" d="M283.728 477.837L283.261 490.231L356.533 502.686L357 490.292L283.728 477.837Z" fill="white"/>
<path fill-rule="evenodd" clip-rule="evenodd" d="M283.728 477.837L283.261 490.231L356.533 502.686L357 490.292L283.728 477.837Z" stroke="black" stroke-width="1.5" stroke-linejoin="round"/>
<path fill-rule="evenodd" clip-rule="evenodd" d="M288.99 211.615C283.763 208.291 278.155 205.619 272.179 203.745C263.114 170.553 240.475 138.62 212.208 120.198C196.267 109.81 179.225 109.871 165.629 117.142V117.137L165.525 117.195C165.414 117.254 165.309 117.317 165.2 117.377L129.58 137.28L143.938 141.414C142.59 144.583 141.494 147.942 140.721 151.491C139.113 150.377 137.412 149.345 135.811 148.373C122.653 140.372 108.837 140.817 98.4134 147.072L62.2207 167.267L81.3884 177.383C81.343 178.419 81.324 179.467 81.3504 180.537C82.192 215.179 105.701 255.934 135.601 274.386C182.937 301.743 230.53 328.603 278.307 355.177C279.402 355.786 280.496 356.325 281.591 356.833L271.861 363.802L275.346 375.972L313.137 358.099V358.097C326.296 352.68 336.264 339.723 338.724 322.768C344.497 283.011 323.205 233.366 288.99 211.615Z" fill="#9595EF"/>
<path fill-rule="evenodd" clip-rule="evenodd" d="M288.99 211.615C283.763 208.291 278.155 205.619 272.179 203.745C263.114 170.553 240.475 138.62 212.208 120.198C196.267 109.81 179.225 109.871 165.629 117.142V117.137L165.525 117.195C165.414 117.254 165.309 117.317 165.2 117.377L129.58 137.28L143.938 141.414C142.59 144.583 141.494 147.942 140.721 151.491C139.113 150.377 137.412 149.345 135.811 148.373C122.653 140.372 108.837 140.817 98.4134 147.072L62.2207 167.267L81.3884 177.383C81.343 178.419 81.324 179.467 81.3504 180.537C82.192 215.179 105.701 255.934 135.601 274.386C182.937 301.743 230.53 328.603 278.307 355.177C279.402 355.786 280.496 356.325 281.591 356.833L271.861 363.802L275.346 375.972L313.137 358.099V358.097C326.296 352.68 336.264 339.723 338.724 322.768C344.497 283.011 323.205 233.366 288.99 211.615Z" stroke="black" stroke-width="1.5" stroke-linejoin="round"/>
<path fill-rule="evenodd" clip-rule="evenodd" d="M259.653 227.156C254.427 223.832 248.818 221.159 242.842 219.286C233.778 186.094 211.138 154.159 182.871 135.737C152.725 116.091 118.619 133.801 111.385 167.031C109.776 165.916 108.075 164.886 106.474 163.912C80.1815 147.925 51.2733 165.657 52.0139 196.076C52.8555 230.718 76.3644 271.474 106.265 289.926C153.6 317.282 201.193 344.144 248.97 370.717C276.678 386.128 304.995 368.579 309.388 338.308C315.16 298.552 293.869 248.907 259.653 227.156Z" fill="white"/>
<path fill-rule="evenodd" clip-rule="evenodd" d="M259.653 227.156C254.427 223.832 248.818 221.159 242.842 219.286C233.778 186.094 211.138 154.159 182.871 135.737C152.725 116.091 118.619 133.801 111.385 167.031C109.776 165.916 108.075 164.886 106.474 163.912C80.1815 147.925 51.2733 165.657 52.0139 196.076C52.8555 230.718 76.3644 271.474 106.265 289.926C153.6 317.282 201.193 344.144 248.97 370.717C276.678 386.128 304.995 368.579 309.388 338.308C315.16 298.552 293.869 248.907 259.653 227.156Z" stroke="black" stroke-width="1.5" stroke-linejoin="round"/>
<path fill-rule="evenodd" clip-rule="evenodd" d="M438.264 322.973C433.638 316.239 433.064 306.391 436.328 298.92C439.401 291.889 445.938 291.162 450.165 297.17C454.844 303.819 455.665 313.493 452.367 320.927C449.232 327.994 442.408 329.003 438.264 322.973ZM428.27 353.16C429.026 353.973 430.069 353.622 430.583 352.384L430.821 351.872C432.571 348.291 435.458 346.768 438.036 348.07C440.776 349.45 442.707 353.655 442.814 358.505C442.847 360.025 443.581 361.222 444.486 361.237C445.044 361.248 445.602 361.231 446.16 361.191L446.159 361.194L446.205 361.19C446.232 361.188 446.258 361.185 446.283 361.184L457.259 360.305L453.744 349.319C454.352 347.591 455.207 346.127 456.231 345.203C458.681 343 461.759 343.677 463.917 346.868C464.596 347.867 465.599 347.849 466.216 346.82C466.997 345.522 467.722 344.159 468.391 342.733C469.096 341.232 469.738 339.664 470.314 338.038C470.754 336.795 470.518 335.118 469.778 334.216C467.425 331.334 466.29 326.361 466.894 321.88C467.469 317.597 469.826 314.364 472.374 314.29C473.217 314.263 473.806 313.103 473.721 311.646C473.505 307.935 473.027 304.211 472.312 300.581C472.038 299.177 471.216 298.204 470.424 298.344C467.895 298.797 465.152 296.381 463.66 292.317C462.167 288.244 462.192 283.44 463.556 280.394C463.987 279.367 463.996 277.484 463.379 276.454C461.725 273.688 459.928 271.201 458.027 269.067C457.296 268.253 456.447 268.36 455.977 269.523C454.453 273.007 451.821 274.379 449.294 272.949C448.964 272.762 448.644 272.535 448.336 272.272L451.657 268.551L448.781 259.781L441.198 260.011C440.569 259.997 439.941 260.011 439.315 260.068L439.275 260.07C439.275 260.07 437.839 259.998 436.606 260.564C436.407 260.617 436.206 260.654 436.007 260.714C435.194 260.964 434.702 262.253 434.888 263.68C435.208 266.104 434.966 268.659 434.305 270.784L434.304 270.787L434.304 270.787C433.785 272.451 433.009 273.851 432.042 274.716C429.741 276.767 426.723 276.036 424.545 272.858C423.862 271.865 422.889 271.856 422.311 272.853C420.816 275.43 419.513 278.335 418.409 281.521C417.976 282.773 418.209 284.458 418.944 285.361C421.282 288.246 422.413 293.238 421.724 297.834C421.055 302.241 418.501 305.712 415.833 305.941C414.948 306.017 414.268 307.287 414.274 308.814C414.288 312.714 414.548 316.662 415.051 320.54C415.244 322.029 416.068 323 416.944 322.765C419.729 322.025 422.503 324.392 423.844 328.606C425.152 332.723 424.846 337.784 423.041 341.533C422.483 342.693 422.329 344.726 422.926 345.772C424.535 348.586 426.331 351.07 428.27 353.16Z" fill="#9595EF"/>
<mask id="mask0" mask-type="alpha" maskUnits="userSpaceOnUse" x="385" y="251" width="118" height="122">
<path fill-rule="evenodd" clip-rule="evenodd" d="M385.671 295.916L446.871 251.804L502.367 328.8L441.167 372.911L385.671 295.916Z" fill="white"/>
</mask>
<g mask="url(#mask0)">
<path fill-rule="evenodd" clip-rule="evenodd" d="M437.078 299.247C433.846 306.645 434.611 316.21 438.939 322.508C440.673 325.033 442.926 326.303 445.284 326.085C447.866 325.848 450.174 323.846 451.617 320.594C454.811 313.395 453.938 303.956 449.494 297.641C447.684 295.067 445.322 293.724 443.017 293.956C442.04 294.055 441.104 294.431 440.244 295.05C438.983 295.959 437.888 297.393 437.078 299.247ZM445.436 327.717C442.503 327.988 439.644 326.428 437.588 323.437C432.957 316.697 432.13 306.48 435.577 298.592C437.182 294.914 439.836 292.631 442.854 292.327C445.764 292.033 448.673 293.626 450.836 296.699C455.669 303.569 456.586 313.439 453.116 321.258C452.156 323.423 450.836 325.119 449.291 326.232C448.117 327.079 446.812 327.59 445.436 327.717ZM459.902 343.135C461.645 343.348 463.312 344.511 464.593 346.407C464.786 346.69 464.967 346.788 465.073 346.785C465.201 346.78 465.37 346.632 465.512 346.397C466.274 345.132 466.992 343.781 467.648 342.384C468.343 340.903 468.98 339.348 469.54 337.763C469.881 336.8 469.699 335.414 469.141 334.732C466.673 331.709 465.443 326.5 466.081 321.77C466.715 317.049 469.348 313.558 472.345 313.471C472.406 313.469 472.474 313.404 472.509 313.365C472.723 313.132 472.952 312.554 472.903 311.694C472.69 308.051 472.22 304.365 471.506 300.738C471.279 299.571 470.708 299.125 470.567 299.151C467.608 299.681 464.523 297.048 462.89 292.598C461.356 288.413 461.322 283.374 462.799 280.075C463.133 279.279 463.153 277.673 462.673 276.872C461.036 274.134 459.267 271.691 457.415 269.614C457.213 269.388 457.078 269.354 457.059 269.357C457.037 269.359 456.886 269.457 456.726 269.85C455.768 272.043 454.336 273.55 452.698 274.096C451.447 274.514 450.129 274.363 448.889 273.661C448.521 273.452 448.155 273.195 447.804 272.895C447.636 272.752 447.532 272.547 447.517 272.327C447.501 272.107 447.576 271.89 447.723 271.726L450.73 268.357L448.192 260.618L441.179 260.83C440.518 260.815 439.932 260.833 439.343 260.887C439.319 260.887 439.255 260.888 439.232 260.887C439.219 260.887 437.969 260.839 436.946 261.308C436.904 261.327 436.859 261.343 436.813 261.355C436.724 261.379 436.633 261.4 436.543 261.421C436.442 261.444 436.34 261.467 436.247 261.495C435.974 261.578 435.541 262.368 435.699 263.571C436.026 266.058 435.808 268.706 435.085 271.03C434.502 272.9 433.638 274.386 432.585 275.326C431.417 276.361 430.055 276.822 428.639 276.651C426.888 276.438 425.193 275.256 423.867 273.321C423.677 273.043 423.483 272.923 423.377 272.927C423.275 272.931 423.134 273.063 423.019 273.263C421.565 275.771 420.273 278.64 419.18 281.788C418.843 282.766 419.026 284.163 419.579 284.844C422.063 287.91 423.25 293.178 422.533 297.956C421.799 302.789 419.01 306.49 415.902 306.755C415.622 306.78 415.085 307.526 415.091 308.811C415.107 312.706 415.365 316.616 415.862 320.434C415.971 321.275 416.291 321.762 416.533 321.923C416.641 321.996 416.699 321.982 416.731 321.972C419.964 321.114 423.136 323.68 424.624 328.357C425.993 332.666 425.66 337.976 423.777 341.888C423.287 342.908 423.217 344.629 423.636 345.365C425.215 348.126 426.976 350.561 428.868 352.602C428.992 352.735 429.108 352.794 429.213 352.775C429.373 352.747 429.628 352.543 429.838 352.038L430.082 351.512C431.196 349.237 432.788 347.656 434.571 347.055C435.857 346.623 437.183 346.721 438.404 347.337C441.416 348.856 443.516 353.336 443.632 358.486C443.657 359.639 444.17 360.412 444.499 360.418C445.005 360.427 445.544 360.412 446.101 360.374C446.139 360.37 446.178 360.371 446.216 360.373L446.216 360.366L456.163 359.57L452.962 349.568C452.908 349.398 452.91 349.214 452.969 349.046C453.647 347.121 454.585 345.581 455.683 344.593C455.868 344.427 456.058 344.273 456.251 344.134C457.377 343.322 458.627 342.978 459.902 343.135ZM457.324 361.12L446.347 361.999L446.246 361.207L446.242 361.207L446.226 362.009C446.202 362.011 446.178 362.012 446.154 362.012C445.571 362.051 445.005 362.065 444.47 362.056C443.102 362.032 442.038 360.513 441.993 358.523C441.894 354.033 440.114 350.034 437.665 348.8C436.832 348.379 435.966 348.314 435.093 348.608C433.73 349.064 432.473 350.352 431.562 352.216L431.338 352.696C430.95 353.631 430.281 354.247 429.503 354.387C428.843 354.507 428.175 354.262 427.669 353.717C425.689 351.584 423.854 349.048 422.214 346.177L422.213 346.177C421.461 344.86 421.652 342.528 422.301 341.178C424.013 337.622 424.311 332.785 423.062 328.853C421.857 325.066 419.482 322.937 417.154 323.555C416.634 323.695 416.089 323.599 415.62 323.284C414.896 322.799 414.391 321.836 414.237 320.645C413.732 316.76 413.468 312.78 413.452 308.818C413.443 306.794 414.413 305.243 415.761 305.123C418.05 304.926 420.311 301.671 420.912 297.712C421.565 293.363 420.518 288.606 418.308 285.877C417.397 284.76 417.107 282.773 417.633 281.253C418.759 278.004 420.094 275.039 421.601 272.441C422.017 271.726 422.626 271.316 423.314 271.29C424.034 271.262 424.71 271.654 425.218 272.394C426.275 273.935 427.56 274.868 428.837 275.024C429.772 275.138 430.689 274.816 431.494 274.104C432.314 273.373 433.033 272.107 433.521 270.538C434.165 268.47 434.367 266.009 434.074 263.785C433.832 261.927 434.54 260.306 435.773 259.927C435.905 259.887 436.039 259.856 436.172 259.825L436.337 259.784C437.717 259.179 439.243 259.248 439.236 259.251C439.842 259.195 440.49 259.176 441.172 259.191L448.754 258.962C449.118 258.95 449.444 259.179 449.558 259.525L452.435 268.296C452.525 268.573 452.462 268.878 452.267 269.096L449.545 272.146C449.596 272.177 449.646 272.206 449.695 272.235C450.534 272.709 451.369 272.811 452.181 272.542C453.373 272.143 454.454 270.955 455.215 269.215C455.671 268.091 456.389 267.81 456.777 267.742C457.425 267.63 458.085 267.905 458.637 268.521C460.559 270.677 462.39 273.205 464.08 276.031C464.851 277.321 464.821 279.492 464.302 280.728C463.001 283.633 463.053 288.282 464.427 292.034C465.757 295.653 468.162 297.916 470.279 297.537C471.552 297.311 472.744 298.526 473.115 300.423C473.843 304.121 474.322 307.881 474.537 311.598C474.607 312.778 474.308 313.824 473.719 314.47C473.351 314.872 472.894 315.093 472.395 315.109C470.274 315.171 468.213 318.192 467.705 321.988C467.123 326.297 468.211 331.002 470.409 333.694C471.329 334.817 471.619 336.802 471.084 338.309C470.506 339.944 469.85 341.55 469.131 343.08C468.452 344.528 467.706 345.928 466.917 347.24C466.471 347.983 465.832 348.402 465.118 348.423C464.399 348.443 463.732 348.054 463.236 347.326C462.223 345.827 460.968 344.916 459.703 344.761C458.691 344.637 457.681 344.998 456.778 345.812C455.943 346.563 455.178 347.808 454.608 349.334L458.038 360.054C458.115 360.292 458.078 360.552 457.939 360.76C457.884 360.842 457.814 360.912 457.737 360.968C457.617 361.054 457.474 361.109 457.324 361.12Z" fill="black"/>
</g>
<path fill-rule="evenodd" clip-rule="evenodd" d="M415.331 315.144C415.34 315.209 415.795 320.587 416.084 321.293L427.337 320.928C427.783 320.915 428.129 320.533 428.1 320.087L427.266 307.043C427.238 306.604 426.856 306.273 426.418 306.305L415.711 307.091C415.295 307.122 414.975 307.469 414.977 307.885C414.977 307.885 415.244 313.928 415.322 315.018C415.398 316.108 415.863 320.434 415.863 320.434" fill="#9595EF"/>
<path fill-rule="evenodd" clip-rule="evenodd" d="M429.897 322.39C429.942 322.358 429.984 322.32 430.022 322.279C430.174 322.114 430.25 321.895 430.236 321.671L429.155 305.257C429.141 305.035 429.037 304.828 428.867 304.685C428.699 304.542 428.477 304.474 428.256 304.496L414.748 305.846C414.297 305.89 413.969 306.292 414.014 306.742C414.058 307.192 414.46 307.521 414.911 307.475L427.576 306.21L428.544 320.925L416.083 321.292C415.631 321.303 415.64 321.579 415.65 322.033C415.66 322.485 416.035 322.843 416.487 322.833L429.437 322.544C429.603 322.54 429.764 322.486 429.897 322.39Z" fill="black"/>
<path fill-rule="evenodd" clip-rule="evenodd" d="M418.349 284.12L431.049 282.838L436.281 271.195L423.016 272.191" fill="#9595EF"/>
<path fill-rule="evenodd" clip-rule="evenodd" d="M431.528 283.503C431.643 283.42 431.737 283.307 431.796 283.174L437.028 271.531C437.147 271.267 437.117 270.961 436.951 270.724C436.786 270.487 436.507 270.356 436.22 270.378L422.954 271.373C422.502 271.408 422.164 271.8 422.198 272.251C422.232 272.703 422.625 273.041 423.076 273.007L434.969 272.114L430.496 282.071L418.266 283.304C417.817 283.348 417.488 283.751 417.534 284.202C417.578 284.652 417.981 284.98 418.431 284.934L431.132 283.653C431.277 283.639 431.413 283.586 431.528 283.503Z" fill="black"/>
<path fill-rule="evenodd" clip-rule="evenodd" d="M451.037 322.04C446.411 315.305 445.836 305.458 449.101 297.987C452.173 290.956 458.711 290.228 462.938 296.237C467.616 302.885 468.438 312.559 465.14 319.993C462.004 327.061 455.18 328.07 451.037 322.04ZM441.042 352.226C441.798 353.039 442.841 352.688 443.354 351.45L443.592 350.938C445.343 347.358 448.23 345.834 450.808 347.136C453.547 348.516 455.478 352.721 455.586 357.571C455.62 359.091 456.352 360.288 457.258 360.304C459.596 360.35 461.942 359.953 464.231 359.123C465.105 358.795 465.686 357.413 465.563 355.921C465.179 351.407 466.637 346.401 469.003 344.269C471.454 342.066 474.532 342.743 476.689 345.934C477.368 346.933 478.371 346.915 478.988 345.886C479.769 344.588 480.494 343.225 481.163 341.799C481.868 340.297 482.51 338.731 483.085 337.104C483.527 335.861 483.29 334.184 482.55 333.281C480.197 330.401 479.062 325.427 479.667 320.946C480.241 316.663 482.598 313.43 485.146 313.357C485.989 313.33 486.578 312.169 486.493 310.712C486.277 307.001 485.798 303.277 485.083 299.648C484.81 298.243 483.988 297.27 483.196 297.411C480.667 297.864 477.924 295.447 476.432 291.383C474.94 287.31 474.964 282.506 476.328 279.46C476.759 278.433 476.767 276.55 476.151 275.519C474.496 272.754 472.7 270.266 470.799 268.134C470.068 267.319 469.219 267.426 468.749 268.589C467.225 272.074 464.593 273.445 462.065 272.015C459.415 270.513 457.379 266.409 457.021 261.843C456.907 260.416 456.16 259.234 455.307 259.148C453.116 258.923 450.916 259.134 448.779 259.78C447.965 260.03 447.474 261.319 447.66 262.746C448.229 267.071 447.018 271.812 444.813 273.782C442.512 275.833 439.495 275.102 437.316 271.924C436.634 270.93 435.662 270.922 435.083 271.919C433.589 274.496 432.285 277.401 431.181 280.588C430.747 281.839 430.981 283.523 431.716 284.427C434.053 287.311 435.186 292.304 434.496 296.901C433.827 301.307 431.273 304.778 428.604 305.007C427.72 305.083 427.039 306.353 427.046 307.881C427.061 311.78 427.319 315.728 427.823 319.606C428.015 321.095 428.84 322.066 429.715 321.831C432.501 321.092 435.276 323.458 436.617 327.672C437.924 331.789 437.617 336.851 435.813 340.6C435.255 341.759 435.101 343.793 435.698 344.837C437.307 347.652 439.103 350.136 441.042 352.226Z" fill="white"/>
<path fill-rule="evenodd" clip-rule="evenodd" d="M464.392 319.662C467.586 312.462 466.713 303.024 462.269 296.709C460.457 294.134 458.096 292.792 455.791 293.024C453.381 293.267 451.216 295.195 449.852 298.315C446.62 305.713 447.386 315.277 451.714 321.576C453.448 324.1 455.7 325.37 458.059 325.152C460.64 324.915 462.949 322.913 464.393 319.661L464.392 319.662ZM458.209 326.784C455.277 327.054 452.417 325.495 450.362 322.504C445.731 315.763 444.904 305.546 448.351 297.66C449.958 293.981 452.609 291.698 455.627 291.393C458.537 291.099 461.446 292.693 463.609 295.766C468.442 302.634 469.358 312.504 465.89 320.326L465.89 320.326C464.929 322.491 463.611 324.185 462.065 325.299C460.891 326.146 459.586 326.656 458.209 326.784ZM472.676 342.202C474.419 342.416 476.086 343.578 477.367 345.474C477.559 345.757 477.741 345.856 477.848 345.852C477.977 345.849 478.146 345.7 478.288 345.464C479.047 344.2 479.766 342.851 480.423 341.452C481.115 339.979 481.751 338.425 482.314 336.83C482.655 335.868 482.474 334.481 481.917 333.8C479.447 330.776 478.217 325.567 478.855 320.837C479.488 316.116 482.125 312.627 485.12 312.538C485.179 312.536 485.248 312.471 485.283 312.433C485.496 312.2 485.727 311.622 485.676 310.76C485.465 307.122 484.995 303.437 484.281 299.805C484.053 298.639 483.482 298.193 483.341 298.218C480.382 298.748 477.297 296.116 475.664 291.665C474.13 287.481 474.096 282.442 475.573 279.143C475.908 278.346 475.927 276.74 475.449 275.941C473.811 273.203 472.041 270.759 470.19 268.68C469.988 268.455 469.851 268.421 469.833 268.424C469.804 268.429 469.657 268.53 469.499 268.918C468.542 271.11 467.111 272.617 465.473 273.163C464.221 273.58 462.903 273.43 461.662 272.728C458.778 271.093 456.584 266.746 456.205 261.91C456.109 260.704 455.508 259.992 455.224 259.964C453.134 259.75 451.046 259.952 449.021 260.564C448.748 260.65 448.316 261.437 448.474 262.64C449.086 267.291 447.776 272.234 445.36 274.394C444.193 275.429 442.831 275.89 441.413 275.718C439.662 275.505 437.968 274.323 436.643 272.389C436.451 272.111 436.258 271.991 436.151 271.995C436.05 272 435.909 272.131 435.793 272.331C434.338 274.838 433.047 277.707 431.955 280.856C431.618 281.832 431.8 283.231 432.353 283.911C434.837 286.976 436.024 292.244 435.306 297.024C434.572 301.856 431.784 305.556 428.676 305.824C428.386 305.844 427.86 306.646 427.866 307.879C427.881 311.771 428.14 315.682 428.636 319.501C428.745 320.341 429.065 320.829 429.307 320.99C429.416 321.064 429.473 321.048 429.506 321.039C432.738 320.182 435.91 322.747 437.398 327.424C438.767 331.733 438.435 337.044 436.552 340.956C436.061 341.975 435.991 343.697 436.41 344.432C437.989 347.194 439.75 349.629 441.642 351.669C441.766 351.803 441.882 351.861 441.987 351.842C442.146 351.814 442.401 351.61 442.612 351.105L442.857 350.579C443.97 348.304 445.563 346.721 447.344 346.122C448.631 345.69 449.956 345.787 451.178 346.405C454.191 347.923 456.292 352.404 456.406 357.554C456.43 358.706 456.944 359.479 457.275 359.485C459.517 359.528 461.763 359.148 463.944 358.356C464.332 358.21 464.853 357.279 464.748 355.991C464.336 351.153 465.895 345.967 468.456 343.661C468.641 343.494 468.832 343.34 469.025 343.201C470.151 342.39 471.401 342.045 472.676 342.202ZM464.51 359.893C462.131 360.757 459.685 361.17 457.244 361.123C455.875 361.1 454.81 359.58 454.766 357.589C454.667 353.099 452.888 349.101 450.439 347.867C449.605 347.446 448.739 347.381 447.865 347.674C446.505 348.136 445.246 349.42 444.335 351.284L444.111 351.763C443.724 352.697 443.054 353.314 442.276 353.454C441.617 353.573 440.948 353.329 440.441 352.784C438.463 350.651 436.627 348.114 434.987 345.245L434.987 345.244C434.234 343.926 434.425 341.595 435.074 340.244C436.786 336.689 437.084 331.852 435.836 327.92C434.631 324.133 432.256 322.004 429.927 322.622C429.408 322.762 428.863 322.665 428.394 322.351C427.669 321.866 427.164 320.903 427.01 319.711C426.506 315.824 426.241 311.845 426.226 307.885C426.217 305.858 427.191 304.304 428.534 304.191C430.82 303.992 433.084 300.737 433.686 296.779C434.338 292.429 433.29 287.673 431.081 284.945C430.17 283.828 429.88 281.839 430.406 280.319C431.532 277.071 432.867 274.106 434.374 271.508C434.789 270.794 435.397 270.385 436.086 270.357C436.807 270.329 437.483 270.721 437.992 271.461C439.048 273.002 440.334 273.936 441.61 274.091C442.546 274.204 443.463 273.881 444.268 273.171C446.244 271.405 447.376 266.873 446.848 262.853C446.604 260.995 447.313 259.371 448.543 258.996C450.78 258.319 453.084 258.097 455.387 258.333C456.657 258.459 457.689 259.908 457.837 261.78C458.171 266.03 460.076 269.945 462.468 271.302C463.307 271.776 464.143 271.879 464.954 271.608C466.148 271.211 467.228 270.021 467.989 268.283C468.443 267.158 469.163 266.878 469.55 266.81C470.198 266.696 470.858 266.972 471.41 267.588C473.333 269.745 475.164 272.273 476.854 275.099C477.625 276.388 477.595 278.559 477.075 279.794C475.774 282.701 475.826 287.351 477.2 291.101C478.53 294.721 480.935 296.984 483.052 296.604C484.323 296.378 485.517 297.592 485.888 299.489C486.617 303.193 487.095 306.953 487.31 310.665C487.38 311.845 487.081 312.892 486.491 313.537C486.127 313.938 485.668 314.159 485.169 314.175C483.048 314.236 480.987 317.26 480.479 321.055C479.896 325.364 480.984 330.069 483.184 332.763C484.102 333.884 484.392 335.868 483.858 337.377C483.276 339.021 482.619 340.627 481.904 342.148C481.224 343.598 480.478 344.997 479.692 346.307C479.246 347.05 478.608 347.47 477.893 347.489C477.173 347.51 476.505 347.121 476.01 346.394C474.996 344.894 473.741 343.983 472.476 343.828C471.464 343.704 470.456 344.069 469.551 344.878C467.377 346.837 466.013 351.554 466.38 355.854C466.512 357.464 465.955 358.943 465.009 359.624C464.853 359.737 464.686 359.827 464.51 359.893Z" fill="black"/>
<path fill-rule="evenodd" clip-rule="evenodd" d="M429.412 353.567L441.043 352.227L435.341 343.543L423.399 345.225" fill="#9595EF"/>
<path fill-rule="evenodd" clip-rule="evenodd" d="M441.521 352.892C441.632 352.811 441.724 352.703 441.784 352.574C441.904 352.317 441.883 352.016 441.727 351.778L436.026 343.093C435.852 342.828 435.541 342.687 435.227 342.731L423.285 344.415C422.837 344.476 422.524 344.892 422.588 345.34C422.65 345.788 423.066 346.1 423.513 346.036L434.941 344.426L439.627 351.565L429.318 352.753C428.868 352.805 428.547 353.212 428.597 353.661C428.649 354.111 429.056 354.433 429.505 354.381L441.135 353.041C441.277 353.025 441.409 352.972 441.521 352.892Z" fill="black"/>
<path d="M36.8516 135.737C33.9309 141.111 35.8019 147.726 40.9648 150.532C46.1277 153.338 52.6962 151.309 55.6168 145.934C58.5375 140.56 56.6665 133.945 51.5036 131.139C46.3407 128.333 39.7723 130.362 36.8516 135.737Z" fill="#F2F2F2" stroke="black" stroke-width="1.5"/>
<path d="M34.2871 135.969C31.3665 141.343 33.2375 147.958 38.4004 150.764C43.5633 153.57 50.1317 151.541 53.0524 146.166C55.9731 140.792 54.1021 134.177 48.9392 131.371C43.7762 128.565 37.2078 130.594 34.2871 135.969Z" fill="white" stroke="black" stroke-width="1.5"/>
<rect x="183.156" y="49.0469" width="7.76032" height="33" rx="3.88016" transform="rotate(-124.506 183.156 49.0469)" fill="white" stroke="black"/>
<rect x="354.252" y="369.602" width="7.76032" height="33" rx="3.88016" transform="rotate(2.21886 354.252 369.602)" fill="white" stroke="black"/>
</svg>
