<svg width="509" height="476" viewBox="0 0 509 476" fill="none" xmlns="http://www.w3.org/2000/svg">
<path opacity="0.6" fill-rule="evenodd" clip-rule="evenodd" d="M106.372 73C98.4477 73.0019 92 78.9247 92 86.2068V251.201C92 260.777 97.5343 269.81 106.443 274.774L246.236 349.278C249.432 351.058 253.052 352 256.708 352C267.897 352 277 343.635 277 333.354V183.663C277 170.595 269.446 158.268 257.288 151.494L113.793 74.9267C111.532 73.6663 108.965 73 106.372 73Z" stroke="#BDBDBD" stroke-width="1.5"/>
<path opacity="0.6" fill-rule="evenodd" clip-rule="evenodd" d="M164.402 36C154.807 36.0023 147 43.1776 147 51.9997V251.885C147 263.486 153.701 274.43 164.487 280.443L333.751 370.702C337.62 372.858 342.004 374 346.43 374C359.978 374 371 363.866 371 351.411V170.065C371 154.234 361.854 139.3 347.133 131.093L173.388 38.3341C170.649 36.8072 167.542 36 164.402 36Z" stroke="#E0E0E0" stroke-width="1.5"/>
<path opacity="0.6" fill-rule="evenodd" clip-rule="evenodd" d="M221.141 1C208.933 1.00293 199 10.1313 199 21.3546V275.646C199 290.405 207.526 304.328 221.25 311.977L436.607 426.804C441.53 429.548 447.108 431 452.74 431C469.976 431 484 418.107 484 402.262V171.556C484 151.416 472.363 132.417 453.633 121.977L232.574 3.96942C229.089 2.02697 225.136 1 221.141 1Z" stroke="#F2F2F2" stroke-width="1.5"/>
<path fill-rule="evenodd" clip-rule="evenodd" d="M240.856 443.848C238.763 443.848 236.698 443.299 234.881 442.262L26.7735 325.36C24.4799 324.049 24 322.452 24 321.344V111.049C24 109.404 24.8897 107.872 26.3204 107.054L36.3836 101.311C36.9131 101.008 37.5113 100.848 38.1109 100.848C40.0341 100.848 41.5997 102.412 41.5997 104.333V311.359C41.8403 311.466 42.0682 311.581 42.2845 311.703L252.226 429.651C253.965 430.644 255 432.424 255 434.417C255 436.409 253.965 438.19 252.234 439.178L246.831 442.262C245.014 443.299 242.949 443.848 240.856 443.848Z" fill="white"/>
<path fill-rule="evenodd" clip-rule="evenodd" d="M38.3466 98.8479C37.5275 98.8479 36.7135 99.0663 35.9935 99.4763L25.955 105.212C24.1315 106.253 23 108.204 23 110.303V320.267C23 322.309 24.2064 324.123 26.3982 325.376L234.044 442.107C236.032 443.242 238.312 443.848 240.62 443.848C242.928 443.848 245.207 443.242 247.211 442.098L252.601 439.019C254.73 437.802 256 435.615 256 433.163C256 430.712 254.73 428.524 252.601 427.308L43.1264 309.531C43.1163 309.525 43.1074 309.519 43.0985 309.514V103.597C43.0985 100.979 40.9664 98.8479 38.3466 98.8479ZM38.3466 101.387C39.5009 101.387 40.5587 102.311 40.5587 103.597V311.174C41.0121 311.321 41.4578 311.502 41.8819 311.744L251.341 429.512C254.168 431.126 254.168 435.2 251.341 436.815L245.95 439.895C244.299 440.838 242.459 441.309 240.62 441.309C238.779 441.309 236.94 440.838 235.288 439.895L27.6579 323.171C26.797 322.678 25.5398 321.733 25.5398 320.267V110.303C25.5398 109.11 26.1785 108.009 27.2148 107.416L37.2545 101.682C37.6075 101.48 37.9821 101.387 38.3466 101.387Z" fill="black"/>
<path fill-rule="evenodd" clip-rule="evenodd" d="M280.856 454.151C281.134 453.812 280.958 453.411 280.761 453.132L251.97 412.428C251.548 411.831 250.747 411.903 250.363 412.382L250.12 412L240 423.014L250.131 437.356L250.13 442.305L250.12 463.188C250.12 463.879 250.79 464.369 251.44 464.155L265.744 459.457L269.66 465C269.66 465 280.578 454.49 280.856 454.151Z" fill="white"/>
<path fill-rule="evenodd" clip-rule="evenodd" d="M280.852 453.999C281.137 453.66 280.957 453.259 280.755 452.979L251.262 412.276C250.829 411.679 249.734 411.848 249.367 411.848C249 411.848 239 422.862 239 422.862L249.379 437.204L249.377 442.153L249.367 463.036C249.367 463.726 250.053 464.217 250.719 464.002L265.372 459.305L269.384 464.848C270 465.848 280.568 454.338 280.852 453.999Z" stroke="black" stroke-width="2" stroke-linecap="round"/>
<path fill-rule="evenodd" clip-rule="evenodd" d="M42 118.848C41.5786 118.402 40.2031 119.899 40.0278 119.144L15.2102 92.6695C13.1549 91.3872 12.4049 88.7587 13.508 86.5917L22.2925 72.0331L17.937 67.634L17.8429 67.4339C17.2643 66.2025 18.7643 64.3503 18.9369 64.1413C19.5155 63.4491 26.8362 58.3069 32.876 54.1143L33.0976 53.9919C33.3154 53.8951 33.5474 53.8479 33.7857 53.8479C34.5009 53.8479 35.1465 54.2941 35.3927 54.9595L56.8908 111.064C57.0377 111.525 57.2593 114.809 55.8625 115.488C55.8625 115.488 42.3905 119.263 42 118.848Z" fill="white"/>
<mask id="mask0" mask-type="alpha" maskUnits="userSpaceOnUse" x="12" y="52" width="46" height="71">
<path fill-rule="evenodd" clip-rule="evenodd" d="M12.0195 52H57.7622V122.17H12.0195V52Z" fill="white"/>
</mask>
<g mask="url(#mask0)">
<path fill-rule="evenodd" clip-rule="evenodd" d="M32.5092 52.2489L32.2801 52.3503L32.0751 52.4949C18.9348 61.735 18.378 62.4108 18.1401 62.6986C17.6313 63.316 16.0382 65.4714 16.8923 67.3149L17.0758 67.7104L17.3808 68.0223L20.8241 71.5432L12.7417 85.1042C11.3016 87.9518 12.1786 91.2026 14.6335 92.8584L38.6757 118.833C38.9313 119.751 39.4033 118.736 39.8994 119.27C40.441 119.85 41.1534 120.17 41.9076 120.17H42.3429C42.3429 120.17 35.5743 122.188 42.7871 120.018C49.9999 117.848 55.9009 115.731 55.9009 115.731C58.2635 114.624 57.7586 110.323 57.6219 109.876L36.4523 53.9098C36.0423 52.7801 34.93 51.9991 33.6962 51.9991C33.2849 51.9991 32.8863 52.0828 32.5092 52.2489ZM34.0859 54.8087L55.2036 110.625C55.377 111.188 55.0961 113.338 54.8291 113.433L41.9405 117.629C41.9291 117.633 41.919 119.634 41.9076 119.634C41.5723 119.634 40.9864 117.963 41.0104 117.626L16.2621 90.8881C14.6943 89.9905 14.102 88.0202 14.9144 86.405L23.9965 71.1653L19.1891 66.2473C19.0765 66.0064 19.5131 65.0162 20.0914 64.3138C20.6697 63.6127 33.5304 54.5704 33.5304 54.5704C33.5848 54.5463 33.6405 54.5349 33.6962 54.5349C33.8645 54.5349 34.0239 54.6388 34.0859 54.8087Z" fill="black"/>
</g>
<path fill-rule="evenodd" clip-rule="evenodd" d="M269.809 463.694L240.458 422.688C239.877 421.878 238.594 422.287 238.594 423.283L238.586 441.326C237.722 441.09 236.88 440.753 236.083 440.3L27.9212 323.599C27.0542 323.104 25.8066 322.165 25.8066 320.692V111.506L40.027 119.609C41.0417 120.186 42.2435 119.226 41.8985 118.113L22.0675 65.1073C21.5914 63.5701 19.4806 63.3949 18.7536 64.8318L1.36574 93.8653C0.548414 95.4824 1.14422 97.4549 2.72158 98.3536L11.3608 104.389L11.3353 324.243C11.3353 327.314 11.9719 329.331 14.6581 330.856C14.6581 330.856 237.721 455.971 238.582 456.209L238.572 473.822C238.572 474.519 239.255 475.013 239.918 474.797L269.291 465.263C269.95 465.048 270.211 464.256 269.809 463.694Z" fill="white"/>
<path fill-rule="evenodd" clip-rule="evenodd" d="M269.809 463.694L240.458 422.688C239.877 421.878 238.594 422.287 238.594 423.283L238.586 441.326C237.722 441.09 236.88 440.753 236.083 440.3L27.9212 323.599C27.0542 323.104 25.8066 322.165 25.8066 320.692V111.506L40.027 119.609C41.0417 120.186 42.2435 119.226 41.8985 118.113L22.0675 65.1073C21.5914 63.5701 19.4806 63.3949 18.7536 64.8318L1.36574 93.8653C0.548414 95.4824 1.14422 97.4549 2.72158 98.3536L11.3608 104.389L11.3353 324.243C11.3353 327.314 11.9719 329.331 14.6581 330.856C14.6581 330.856 237.721 455.971 238.582 456.209L238.572 473.822C238.572 474.519 239.255 475.013 239.918 474.797L269.291 465.263C269.95 465.048 270.211 464.256 269.809 463.694Z" stroke="black" stroke-width="2" stroke-linecap="round"/>
<path fill-rule="evenodd" clip-rule="evenodd" d="M99.0336 301.803C98.7533 301.665 98.488 301.517 98.2366 301.363L81.6392 291.174C76.6054 288.085 73.4776 282.463 73.4776 276.501V205.312L68 199.778L69.1943 198.901C69.4948 198.679 76.5778 193.474 77.928 192.59C78.671 192.104 79.6315 191.848 80.7089 191.848C82.0893 191.848 83.5803 192.276 84.7973 193.023L103.641 204.59C110.648 208.892 115 216.716 115 225.014V291.802C115.031 305.737 105.875 308.022 102.429 308.883C102.092 308.967 101.675 309.071 101.558 309.122L101.447 309.172L101.259 309.234L98.5785 309.848L99.0336 301.803Z" fill="white"/>
<path fill-rule="evenodd" clip-rule="evenodd" d="M80.5854 190.848C79.2715 190.848 78.0779 191.173 77.136 191.787C75.7858 192.666 69.1313 197.538 68.3773 198.089L66 199.83L68.0804 201.924L72.1285 206V276.143C72.1285 282.499 75.4752 288.496 80.8635 291.791L97.3977 301.903C97.4466 301.934 97.4954 301.963 97.5455 301.992L97.2337 307.499L97.0433 310.848L100.286 310.107L101.334 309.87L101.671 309.791L101.867 309.685C102.007 309.642 102.291 309.572 102.525 309.513C105.867 308.683 116.035 306.153 116 291.327V225.034C116 216.359 111.433 208.177 104.081 203.68L85.3086 192.198C83.8845 191.328 82.2074 190.848 80.5854 190.848ZM80.5854 193.375C81.7089 193.375 82.9601 193.718 84.0085 194.359L102.782 205.841C109.433 209.909 113.495 217.188 113.495 225.034V291.333C113.53 306.31 102.179 306.641 100.782 307.403L99.7349 307.643L100.142 300.46C99.6535 300.262 99.1688 300.03 98.6966 299.742L82.1623 289.629C77.488 286.77 74.6335 281.657 74.6335 276.143V204.952L69.8489 200.136C69.8489 200.136 77.1636 194.778 78.495 193.91C79.0486 193.548 79.785 193.375 80.5854 193.375Z" fill="black"/>
<path fill-rule="evenodd" clip-rule="evenodd" d="M94.813 310.848C92.8012 310.848 90.8059 310.284 89.0433 309.216L72.2558 299.034C67.1627 295.945 64 290.326 64 284.37V207.402C64 203.237 67.389 199.848 71.5525 199.848C72.9133 199.848 74.26 200.23 75.449 200.95L94.5103 212.509C101.597 216.806 106 224.628 106 232.919V299.66C106 305.83 100.982 310.848 94.813 310.848Z" fill="white"/>
<path fill-rule="evenodd" clip-rule="evenodd" d="M70.9147 197.848C65.9993 197.848 62 201.788 62 206.631V283.231C62 289.599 65.4315 295.605 70.9584 298.907L87.918 309.039C89.899 310.222 92.146 310.848 94.4136 310.848C101.354 310.848 107 305.285 107 298.448V232.026C107 223.336 102.315 215.138 94.7733 210.633L75.5179 199.129C74.1149 198.291 72.5232 197.848 70.9147 197.848Z" fill="black"/>
<path fill-rule="evenodd" clip-rule="evenodd" d="M70.9146 200.38C72.0105 200.38 73.1346 200.666 74.1855 201.294L93.4409 212.798C100.264 216.872 104.43 224.164 104.43 232.026V298.448C104.43 304.215 99.6269 308.316 94.4135 308.316C92.6842 308.316 90.91 307.865 89.2502 306.874L72.2905 296.741C67.4972 293.878 64.5693 288.755 64.5693 283.231V206.631C64.5693 202.979 67.6116 200.38 70.9146 200.38Z" fill="#9595EF"/>
<path fill-rule="evenodd" clip-rule="evenodd" d="M160.133 336.633C159.836 336.487 159.559 336.334 159.293 336.171L142.792 326.016C137.788 322.934 134.679 317.328 134.679 311.387V192.182L129 186.167L130.246 185.326C133.261 183.297 138.389 179.856 138.874 179.616L139.243 179.438C140.206 179.036 141.146 178.848 142.102 178.848C143.438 178.848 144.762 179.229 145.932 179.947L164.666 191.478C171.631 195.767 175.958 203.568 175.958 211.839V326.641C176.718 334.671 166.903 339.298 163.677 340.819C163.377 340.96 163.152 341.064 163.023 341.135L162.871 341.218L160.133 341.848V336.633Z" fill="#AAAAF4"/>
<path fill-rule="evenodd" clip-rule="evenodd" d="M138.735 178.501L138.233 178.741C138.052 178.83 137.594 179.056 129.484 184.543L125 187.848L129.062 188.418L133.344 192.973V311.772C133.344 318.161 136.671 324.188 142.027 327.5L158.467 337.663C158.545 337.712 158.625 337.76 158.704 337.807V340.67V343.848L161.744 343.148L162.786 342.908L163.121 342.83L163.423 342.664C163.539 342.601 163.74 342.508 164.006 342.382C173.093 338.08 177.451 332.881 176.963 326.927V212.137C176.963 203.418 172.421 195.193 165.111 190.674L146.447 179.133C145.087 178.294 143.545 177.848 141.986 177.848C140.87 177.848 139.778 178.068 138.735 178.501Z" fill="black"/>
<path fill-rule="evenodd" clip-rule="evenodd" d="M145.155 181.305L163.821 192.846C170.434 196.935 174.472 204.25 174.472 212.137V327.04C175.228 335.129 163.624 339.663 162.237 340.43L161.195 340.67V336.214C160.71 336.013 160.229 335.782 159.758 335.491L143.318 325.326C138.672 322.454 135.834 317.315 135.834 311.772V191.952L130.86 186.66C130.86 186.66 138.83 181.267 139.311 181.031L139.673 180.853C140.401 180.552 141.185 180.388 141.986 180.388C143.047 180.388 144.137 180.677 145.155 181.305Z" fill="white"/>
<path fill-rule="evenodd" clip-rule="evenodd" d="M153.813 345.848C151.801 345.848 149.806 345.288 148.043 344.228L131.255 334.133C126.163 331.07 123 325.498 123 319.593V195.338C123 191.208 126.388 187.848 130.553 187.848C131.912 187.848 133.26 188.226 134.449 188.94L153.51 200.402C160.596 204.663 165 212.419 165 220.639V334.753C165 340.871 159.982 345.848 153.813 345.848Z" fill="#AAAAF4"/>
<path fill-rule="evenodd" clip-rule="evenodd" d="M130.915 185.848C125.999 185.848 122 189.785 122 194.625V319.25C122 325.614 125.433 331.617 130.958 334.916L147.918 345.04C149.9 346.223 152.146 346.848 154.414 346.848C161.354 346.848 167 341.29 167 334.458V220.002C167 211.318 162.315 203.126 154.773 198.624L135.518 187.128C134.115 186.291 132.523 185.848 130.915 185.848Z" fill="black"/>
<path fill-rule="evenodd" clip-rule="evenodd" d="M130.915 188.378C132.01 188.378 133.135 188.664 134.185 189.292L153.441 200.788C160.264 204.859 164.43 212.147 164.43 220.002V334.458C164.43 340.219 159.628 344.317 154.413 344.317C152.684 344.317 150.91 343.868 149.25 342.876L132.291 332.751C127.497 329.89 124.569 324.771 124.569 319.25V194.625C124.569 190.976 127.612 188.378 130.915 188.378Z" fill="#9595EF"/>
<path fill-rule="evenodd" clip-rule="evenodd" d="M223.425 379.848C222.866 379.848 222.384 379.59 222.106 379.139C221.663 378.422 221.961 377.63 222.109 377.322L224.661 372.085C224.521 372.008 224.384 371.929 224.253 371.848L207.71 361.724C202.692 358.652 199.576 353.063 199.576 347.137V175.815L191.613 175.295L191.441 175.23C190.651 174.935 190.104 174.227 190.013 173.382C189.924 172.539 190.307 171.732 191.014 171.276C192.293 170.448 194.614 168.844 196.86 167.294C201.31 164.218 203.482 162.735 204.177 162.417C204.996 162.045 205.953 161.848 206.944 161.848C208.336 161.848 209.691 162.226 210.858 162.94L229.641 174.437C236.625 178.712 240.964 186.489 240.964 194.737V362.347C241.461 367.558 236.835 372.868 227.205 378.013C226.932 378.159 226.74 378.259 226.65 378.314C224.725 379.662 223.961 379.848 223.425 379.848Z" fill="white"/>
<path fill-rule="evenodd" clip-rule="evenodd" d="M207.368 159.848C206.189 159.848 205.043 160.085 204.054 160.531C203.252 160.894 201.231 162.261 196.466 165.531C194.211 167.08 191.88 168.68 190.606 169.495C189.486 170.214 188.879 171.483 189.02 172.809C189.162 174.137 190.027 175.251 191.277 175.716L191.625 175.845L191.995 175.87L198.663 176.302V346.801C198.663 353.179 202.044 359.195 207.484 362.501L223.597 372.292L221.539 376.485C221.031 377.531 221.054 378.669 221.598 379.542C222.106 380.36 223.005 380.848 224.001 380.848C225.024 380.848 226.132 380.36 227.941 379.112C228.039 379.055 228.2 378.972 228.41 378.861C238.548 373.483 243.445 367.786 242.968 361.93V194.075C242.968 185.37 238.355 177.159 230.931 172.647L211.973 161.126C210.597 160.29 209.005 159.848 207.368 159.848ZM207.368 162.384C208.462 162.384 209.628 162.668 210.662 163.296L229.619 174.817C236.335 178.898 240.439 186.2 240.439 194.075V362.042C241.206 370.118 227.317 376.46 226.557 376.987C225.09 378.006 224.355 378.312 224.001 378.312C223.464 378.312 223.808 377.606 223.808 377.606L226.953 371.201C226.46 371.002 225.971 370.771 225.493 370.479L208.796 360.332C204.076 357.464 201.193 352.334 201.193 346.801V173.924L192.158 173.339C191.417 173.063 191.303 172.059 191.97 171.632C195.1 169.623 203.932 163.368 205.094 162.843C205.752 162.546 206.54 162.384 207.368 162.384Z" fill="black"/>
<path fill-rule="evenodd" clip-rule="evenodd" d="M216.813 381.848C214.801 381.848 212.806 381.285 211.043 380.22L194.255 370.076C189.163 366.999 186 361.4 186 355.466V177.375C186 173.225 189.388 169.848 193.553 169.848C194.912 169.848 196.26 170.228 197.449 170.946L216.51 182.463C223.597 186.747 228 194.538 228 202.798V370.701C228 376.847 222.982 381.848 216.813 381.848Z" fill="white"/>
<path fill-rule="evenodd" clip-rule="evenodd" d="M193.915 168.848C188.999 168.849 185 172.801 185 177.66V356.138C185 362.527 188.433 368.555 193.958 371.866L210.918 382.031C212.9 383.219 215.146 383.848 217.414 383.848C224.354 383.848 230 378.266 230 371.407V203.14C230 194.42 225.315 186.195 217.773 181.675L198.518 170.133C197.115 169.293 195.523 168.848 193.915 168.848Z" fill="black"/>
<path fill-rule="evenodd" clip-rule="evenodd" d="M193.915 171.388C195.01 171.388 196.135 171.676 197.185 172.306L216.441 183.847C223.264 187.935 227.43 195.252 227.43 203.139V371.407C227.43 377.191 222.628 381.307 217.413 381.307C215.684 381.307 213.91 380.855 212.25 379.859L195.291 369.693C190.497 366.821 187.569 361.681 187.569 356.138V177.66C187.569 173.996 190.612 171.388 193.915 171.388Z" fill="#9595EF"/>
<path d="M498.08 237.33C500.603 225.726 493.525 214.376 482.327 211.941C471.13 209.506 459.977 216.891 457.453 228.494C454.93 240.097 462.008 251.447 473.205 253.883C484.403 256.318 495.556 248.933 498.08 237.33Z" fill="#F2F2F2" stroke="black" stroke-width="1.5"/>
<path d="M502.598 235.557C505.121 223.954 498.043 212.604 486.845 210.168C475.648 207.733 464.495 215.118 461.971 226.721C459.448 238.325 466.526 249.675 477.724 252.11C488.921 254.546 500.074 247.161 502.598 235.557Z" fill="#9595EF" stroke="black" stroke-width="1.5"/>
<rect x="113.612" y="66.6209" width="7.76032" height="33" rx="3.88016" transform="rotate(-15 113.612 66.6209)" fill="white" stroke="black"/>
<rect x="382.501" y="303.883" width="7.76032" height="33" rx="3.88016" transform="rotate(104.519 382.501 303.883)" fill="white" stroke="black"/>
<path d="M256.852 86.7367C253.931 92.1111 255.802 98.7262 260.965 101.532C266.128 104.338 272.696 102.309 275.617 96.9344C278.538 91.56 276.667 84.9449 271.504 82.1391C266.341 79.3334 259.772 81.3622 256.852 86.7367Z" fill="#F2F2F2" stroke="black" stroke-width="1.5"/>
<path d="M254.287 86.9687C251.366 92.3432 253.237 98.9583 258.4 101.764C263.563 104.57 270.131 102.541 273.052 97.1665C275.973 91.792 274.102 85.1769 268.939 82.3712C263.776 79.5655 257.207 81.5943 254.287 86.9687Z" fill="white" stroke="black" stroke-width="1.5"/>
</svg>
