<svg width="744" height="745" viewBox="0 0 744 445" fill="none" xmlns="http://www.w3.org/2000/svg">
<path opacity="0.6" fill-rule="evenodd" clip-rule="evenodd" d="M356.336 69.1473L79.9931 230.704C69.3432 236.931 69.3334 252.604 79.9774 258.841L234.248 352.83C248.065 360.925 265.021 361.063 278.961 353.192L559.802 194.631C570.607 188.53 570.763 172.731 560.08 166.409L401.807 69.2692C387.757 60.9538 370.429 60.9078 356.336 69.1473Z" stroke="#BDBDBD" stroke-width="1.5"/>
<path opacity="0.6" fill-rule="evenodd" clip-rule="evenodd" d="M385.981 43.601L43.8946 243.364C30.7111 251.063 30.699 270.443 43.8752 278.155L234.847 394.371C251.951 404.381 272.941 404.551 290.197 394.818L637.852 198.76C651.227 191.217 651.421 171.681 638.196 163.863L442.269 43.7518C424.877 33.4699 403.426 33.413 385.981 43.601Z" stroke="#E0E0E0" stroke-width="1.5"/>
<path opacity="0.6" fill-rule="evenodd" clip-rule="evenodd" d="M426.358 11.1794L12.9573 252.423C-2.97455 261.721 -2.9892 285.125 12.9339 294.438L243.718 434.787C264.387 446.875 289.753 447.081 310.607 435.327L730.736 198.557C746.9 189.447 747.134 165.855 731.152 156.414L494.38 11.3615C473.362 -1.0555 447.44 -1.12415 426.358 11.1794Z" stroke="#F2F2F2" stroke-width="1.5"/>
<path fill-rule="evenodd" clip-rule="evenodd" d="M488.832 179.222H488.839L489 151.113L453.196 152.48L370.784 104.009C359.546 97.3995 345.687 97.3614 334.415 103.912L166.307 201.586L107.157 216.472L107 243.51C106.997 247.863 109.124 252.217 113.381 254.697L222.014 317.966C233.065 324.403 246.628 324.513 257.777 318.257L482.398 192.219C487.327 189.451 489.475 184.178 488.832 179.222Z" fill="white"/>
<path fill-rule="evenodd" clip-rule="evenodd" d="M488.832 179.222H488.839L489 151.113L453.196 152.48L370.784 104.009C359.546 97.3995 345.687 97.3614 334.415 103.912L166.307 201.586L107.157 216.472L107 243.51C106.997 247.863 109.124 252.217 113.381 254.697L222.014 317.966C233.065 324.403 246.628 324.513 257.777 318.257L482.398 192.219C487.327 189.451 489.475 184.178 488.832 179.222Z" stroke="black" stroke-width="1.5" stroke-linejoin="round"/>
<path fill-rule="evenodd" clip-rule="evenodd" d="M334.443 74.7144L113.394 203.133C104.875 208.082 104.867 220.541 113.381 225.498L222.028 288.771C233.081 295.206 246.644 295.315 257.795 289.058L482.443 163.021C491.085 158.172 491.211 145.614 482.665 140.588L370.816 74.8113C359.577 68.2015 345.716 68.165 334.443 74.7144Z" fill="white"/>
<path fill-rule="evenodd" clip-rule="evenodd" d="M334.443 74.7144L113.394 203.133C104.875 208.082 104.867 220.541 113.381 225.498L222.028 288.771C233.081 295.206 246.644 295.315 257.795 289.058L482.442 163.021C491.085 158.172 491.211 145.614 482.665 140.588L370.816 74.8113C359.577 68.2015 345.716 68.165 334.443 74.7144Z" stroke="black" stroke-width="1.5" stroke-linejoin="round"/>
<path fill-rule="evenodd" clip-rule="evenodd" d="M326.198 102.424L169.914 191.759C163.892 195.202 163.887 203.869 169.906 207.318L246.72 251.333C254.533 255.809 264.123 255.887 272.008 251.533L430.834 163.854C436.946 160.481 437.033 151.746 430.993 148.25L351.914 102.491C343.966 97.8945 334.168 97.8682 326.198 102.424Z" fill="#9595EF"/>
<path fill-rule="evenodd" clip-rule="evenodd" d="M186.398 228.843C184.413 227.716 181.96 227.813 180.07 229.093L170.32 235.698C168.483 236.942 168.585 239.68 170.509 240.784L193.536 254C195.523 255.14 197.986 255.05 199.883 253.767L209.757 247.091C211.6 245.845 211.493 243.096 209.558 241.997L186.398 228.843Z" stroke="black" stroke-width="1.5"/>
<path fill-rule="evenodd" clip-rule="evenodd" d="M388.282 42.2327V53.0289C385.45 49.8563 381.533 46.7819 376.803 44.1285C370.353 40.51 362.445 37.6991 355.015 35.8688C353.82 35.5742 353.003 34.924 352.956 34.21C352.65 29.6733 352.453 27.4595 352.011 23.2112C351.85 21.6584 349.423 20.4034 346.696 20.4673C344.189 20.525 342.263 21.6849 342.317 23.1145C342.454 26.6566 342.519 28.4931 342.615 32.2488C342.64 33.298 340.995 34.1258 339.117 34.0058C329.246 33.3681 319.286 34.4563 309.736 37.0568V30.749H284.229V49.189H284.249C284.219 49.7643 284.547 50.3115 285.289 50.7137C311.759 65.3046 337.889 80.4675 364.175 95.3764C365.669 96.2214 368.396 96 370.3 94.9118C371.664 94.1307 372.347 93.741 373.708 92.963C388.413 84.5506 396.376 74.5277 394.54 65.0426C394.34 64.0059 395.815 63.0705 397.657 63.0502C404.252 62.9785 407.468 62.9411 413.657 62.846C416.109 62.8086 418.074 61.6783 418.05 60.3266V42.2327H388.282Z" fill="white"/>
<path fill-rule="evenodd" clip-rule="evenodd" d="M388.282 42.2327V53.0289C385.45 49.8563 381.533 46.7819 376.803 44.1285C370.353 40.51 362.445 37.6991 355.015 35.8688C353.82 35.5742 353.003 34.924 352.956 34.21C352.65 29.6733 352.453 27.4595 352.011 23.2112C351.85 21.6584 349.423 20.4034 346.696 20.4673C344.189 20.525 342.263 21.6849 342.317 23.1145C342.454 26.6566 342.519 28.4931 342.615 32.2488C342.64 33.298 340.995 34.1258 339.117 34.0058C329.246 33.3681 319.286 34.4563 309.736 37.0568V30.749H284.229V49.189C284.219 49.7643 284.547 50.3115 285.289 50.7137C311.759 65.3046 337.889 80.4675 364.175 95.3764C365.669 96.2214 368.396 96 370.3 94.9118C371.664 94.1307 372.347 93.741 373.708 92.963C388.413 84.5506 396.376 74.5277 394.54 65.0426C394.34 64.0059 395.815 63.0705 397.657 63.0502C404.252 62.9785 407.468 62.9411 413.657 62.846C416.109 62.8086 418.074 61.6783 418.05 60.3266V42.2327H388.282Z" stroke="black" stroke-width="1.5" stroke-linejoin="round"/>
<path fill-rule="evenodd" clip-rule="evenodd" d="M359.642 101.525C359.656 101.382 359.664 101.24 359.642 101.102V83.3996L328.389 82.2936V82.2999C312.552 73.1436 296.696 64.0235 280.651 55.2369C278.645 54.1388 275.154 54.3465 272.815 55.6586C265.422 59.8104 261.732 61.8839 254.569 65.9177C251.462 67.5901 248.815 69.4921 246.59 71.5499H238V91.9769L238.124 91.9848C239.014 100.598 244.946 109.04 255.685 114.764C280.722 128.105 313.775 129.054 339.386 114.462C346.55 110.352 350.224 108.247 357.56 104.039C358.79 103.333 359.492 102.474 359.634 101.659H359.642V101.525Z" fill="white"/>
<path fill-rule="evenodd" clip-rule="evenodd" d="M359.642 101.525C359.656 101.382 359.664 101.24 359.642 101.102V83.3996L328.389 82.2936V82.2999C312.552 73.1436 296.696 64.0235 280.651 55.2369C278.645 54.1388 275.154 54.3465 272.815 55.6586C265.422 59.8104 261.732 61.8839 254.569 65.9177C251.462 67.5901 248.815 69.4921 246.59 71.5499H238V91.9769L238.124 91.9848C239.014 100.598 244.946 109.04 255.685 114.764C280.722 128.105 313.775 129.054 339.386 114.462C346.55 110.352 350.224 108.247 357.56 104.039C358.79 103.333 359.492 102.474 359.634 101.659H359.642V101.525Z" stroke="black" stroke-width="1.5" stroke-linejoin="round"/>
<path fill-rule="evenodd" clip-rule="evenodd" d="M303.678 18.6657C306.369 18.636 307.682 18.6205 310.208 18.581C311.208 18.5655 312.01 18.0966 312 17.5353C311.99 16.9745 311.172 16.5141 310.174 16.5057C307.084 16.4798 305.465 16.4656 302.142 16.4455C301.604 16.4423 301.111 16.2431 300.928 15.9469C299.817 14.1373 297.796 12.3155 295.166 10.8164C292.534 9.31532 289.306 8.14927 286.274 7.39001C285.786 7.26778 285.453 6.99745 285.434 6.70124C285.309 4.81991 285.229 3.9009 285.048 2.13857C284.982 1.49507 283.992 0.974454 282.879 1.00097C281.855 1.0249 281.07 1.50607 281.092 2.09912C281.148 3.56849 281.174 4.32969 281.212 5.8883C281.223 6.32355 280.551 6.66697 279.785 6.61717C272.742 6.1554 265.587 7.87053 259.414 11.3254C258.862 11.6384 258.587 11.7949 258.034 12.1085C257.264 12.5457 257.161 13.186 257.817 13.5482C268.619 19.6009 279.284 25.891 290.013 32.0757C290.622 32.4262 291.735 32.3344 292.512 31.8829C293.069 31.5589 293.348 31.3973 293.903 31.0745C299.905 27.5848 303.155 23.427 302.405 19.4923C302.323 19.0622 302.926 18.6741 303.678 18.6657ZM244.728 19.6759C235.451 24.7295 235.924 34.7615 245.181 39.7549C255.348 45.2398 268.769 45.6298 279.169 39.6314C282.079 37.9422 283.569 37.0768 286.548 35.3468C287.51 34.7881 287.697 33.9919 286.939 33.5541C276.408 27.4516 265.964 21.1867 255.319 15.2853C254.504 14.8339 253.087 14.9192 252.136 15.4593C249.135 17.1653 247.636 18.0177 244.728 19.6759Z" fill="white"/>
<path fill-rule="evenodd" clip-rule="evenodd" d="M397.801 43.9829C404.349 43.9105 407.543 43.8727 413.689 43.7767C416.124 43.739 418.075 42.5981 418.05 41.2323C418.027 39.868 416.036 38.7476 413.608 38.7272C406.089 38.6642 402.151 38.6296 394.064 38.5808C392.755 38.5729 391.556 38.0883 391.112 37.3676C388.408 32.9647 383.49 28.532 377.092 24.8844C370.688 21.2322 362.833 18.395 355.457 16.5477C354.269 16.2503 353.458 15.5925 353.411 14.8718C353.108 10.2943 352.912 8.05825 352.473 3.77027C352.313 2.20457 349.903 0.937843 347.195 1.00236C344.704 1.06058 342.793 2.23132 342.846 3.67428C342.983 7.24944 343.047 9.10153 343.141 12.8938C343.167 13.9528 341.532 14.7884 339.668 14.6673C322.532 13.5437 305.121 17.7168 290.101 26.1228C288.76 26.8845 288.089 27.2653 286.745 28.0284C284.872 29.0922 284.62 30.65 286.216 31.5312C312.5 46.2583 338.448 61.5628 364.554 76.6109C366.036 77.4637 368.744 77.2403 370.633 76.142C371.989 75.3536 372.667 74.9602 374.019 74.175C388.621 65.684 396.529 55.5675 394.704 45.9939C394.506 44.9475 395.972 44.0033 397.801 43.9829Z" stroke="black" stroke-width="1.5" stroke-linejoin="round"/>
<path fill-rule="evenodd" clip-rule="evenodd" d="M254.37 46.4408C231.799 58.7367 232.949 83.1459 255.473 95.2954C280.21 108.641 312.865 109.59 338.17 94.9949C345.249 90.8847 348.876 88.7793 356.124 84.57C358.464 83.2104 358.918 81.2734 357.075 80.208C331.451 65.3598 306.04 50.1167 280.139 35.7578C278.157 34.6595 274.708 34.8672 272.395 36.1811C265.093 40.3322 261.445 42.4062 254.37 46.4408Z" stroke="black" stroke-width="1.5" stroke-linejoin="round"/>
<path fill-rule="evenodd" clip-rule="evenodd" d="M321.088 36.1736C317.171 34.1728 317.414 31.4329 321.545 29.3047C325.353 27.3439 331.246 27.2402 334.862 29.0796C338.785 31.0745 338.744 33.8247 334.606 35.9574C330.791 37.9227 324.699 38.0189 321.088 36.1736Z" stroke="black" stroke-width="1.5"/>
<path fill-rule="evenodd" clip-rule="evenodd" d="M357.516 55.7088C353.678 53.7312 353.908 50.9171 358.111 48.7686C361.987 46.788 367.991 46.7256 371.537 48.5413C375.383 50.5114 375.123 53.1829 370.912 55.3389C367.029 57.3269 361.053 57.5334 357.516 55.7088Z" stroke="black" stroke-width="1.5"/>
<path fill-rule="evenodd" clip-rule="evenodd" d="M381.49 201.856V219.907C387.138 224.063 397.221 225.985 405.969 225.782C414.725 225.57 424.146 223.555 430.153 219.516V201.465L381.49 201.856Z" fill="white"/>
<path fill-rule="evenodd" clip-rule="evenodd" d="M381.49 201.856V219.907C387.138 224.063 397.221 225.985 405.969 225.782C414.725 225.57 424.146 223.555 430.153 219.516V201.465L381.49 201.856Z" stroke="black" stroke-width="1.5" stroke-linejoin="round"/>
<path fill-rule="evenodd" clip-rule="evenodd" d="M404.765 235.896C396.993 229.941 382.19 228.134 377.746 225.368C373.316 222.608 371.724 215.531 364.258 211.092C353.796 204.824 337.913 202.686 326.045 204.545C308.864 208.637 289.338 215.82 279.056 231.031L272 229.956V251.509L272.031 251.482C272.191 254.659 273.493 257.545 277.021 259.663C284.149 263.914 291.14 263.169 299.152 268.53C307.164 273.889 304.549 277.945 311.723 282.66C319.019 287.457 330.809 286.872 342.687 286.118C356.426 285.248 367.019 282.368 367.579 282.232C367.494 282.074 359.193 269.284 377.643 259.558C393.07 251.407 412.142 254.942 413.033 255.079C413.894 243.42 408.256 238.269 404.765 235.896Z" fill="white"/>
<path fill-rule="evenodd" clip-rule="evenodd" d="M404.765 235.896C396.993 229.941 382.19 228.134 377.746 225.368C373.316 222.608 371.724 215.531 364.258 211.092C353.796 204.824 337.913 202.686 326.045 204.545C308.864 208.637 289.338 215.82 279.056 231.031L272 229.956V251.509L272.031 251.482C272.191 254.659 273.493 257.545 277.021 259.663C284.149 263.914 291.14 263.169 299.152 268.53C307.164 273.889 304.549 277.945 311.723 282.66C319.019 287.457 330.809 286.872 342.687 286.118C356.426 285.248 367.019 282.368 367.579 282.232C367.494 282.074 359.193 269.284 377.643 259.558C393.07 251.407 412.142 254.942 413.033 255.079C413.894 243.42 408.256 238.269 404.765 235.896Z" stroke="black" stroke-width="1.5" stroke-linejoin="round"/>
<path fill-rule="evenodd" clip-rule="evenodd" d="M376.936 237.661C392.261 229.508 411.205 233.043 412.09 233.182C416.103 223.49 407.344 216.37 403.878 213.999C396.157 208.042 381.452 206.236 377.038 203.469C372.637 200.71 371.06 193.633 363.64 189.195C353.248 182.927 337.473 180.787 325.683 182.647C305.35 187.52 281.711 196.778 274.232 218.772C271.944 225.55 269.655 233.336 276.987 237.764C284.068 242.017 291.012 241.272 298.97 246.631C306.928 251.99 304.329 256.046 311.458 260.763C318.703 265.558 330.416 264.974 342.216 264.221C355.86 263.35 366.385 260.471 366.938 260.335C366.856 260.177 358.611 247.387 376.936 237.661Z" fill="white"/>
<path fill-rule="evenodd" clip-rule="evenodd" d="M376.936 237.661C392.261 229.508 411.205 233.043 412.09 233.182C416.103 223.49 407.344 216.37 403.878 213.999C396.157 208.042 381.452 206.236 377.038 203.469C372.637 200.71 371.06 193.633 363.64 189.195C353.248 182.927 337.473 180.787 325.683 182.647C305.35 187.52 281.711 196.778 274.232 218.772C271.944 225.55 269.655 233.336 276.987 237.764C284.068 242.017 291.012 241.272 298.97 246.631C306.928 251.99 304.329 256.046 311.458 260.763C318.703 265.558 330.416 264.974 342.216 264.221C355.86 263.35 366.385 260.471 366.938 260.335C366.856 260.177 358.611 247.387 376.936 237.661Z" stroke="black" stroke-width="1.5" stroke-linejoin="round"/>
<path fill-rule="evenodd" clip-rule="evenodd" d="M358.204 262.845L365.965 260.873L366.121 281.218L359.116 283.025" fill="white"/>
<path d="M357.572 262.326L366.75 260.302L367.519 282.484L358.84 284.086" stroke="black" stroke-width="1.5" stroke-linecap="round" stroke-linejoin="round"/>
<path fill-rule="evenodd" clip-rule="evenodd" d="M398 233.2C404.078 232.639 411.853 233.437 411.853 233.437L412 255C412 255 407.513 253.941 404.334 254.06" fill="white"/>
<path d="M399.772 232.307C405.697 232.307 412.038 233.386 412.038 233.386L413.301 254.879C412.701 254.879 407.177 254.064 403.899 254.172" stroke="black" stroke-width="1.5" stroke-linecap="round" stroke-linejoin="round"/>
<path fill-rule="evenodd" clip-rule="evenodd" d="M405.969 206.316C414.724 206.096 424.145 204.018 430.153 199.853C424.38 196.418 414.012 194.058 405.166 194.169C397.275 194.243 387.287 196.036 381.49 200.258C387.138 204.544 397.221 206.526 405.969 206.316Z" fill="white"/>
<path fill-rule="evenodd" clip-rule="evenodd" d="M405.969 206.316C414.724 206.096 424.145 204.018 430.153 199.853C424.38 196.418 414.012 194.058 405.166 194.169C397.275 194.243 387.287 196.036 381.49 200.258C387.138 204.544 397.221 206.526 405.969 206.316Z" stroke="black" stroke-width="1.5" stroke-linejoin="round"/>
<path d="M72.5332 296.24C67.8363 304.883 70.8367 315.544 79.1692 320.072C87.5017 324.6 98.0796 321.318 102.777 312.675C107.474 304.032 104.473 293.371 96.1406 288.842C87.8081 284.314 77.2302 287.597 72.5332 296.24Z" fill="#F2F2F2" stroke="black" stroke-width="1.5"/>
<path d="M68.503 296.604C63.806 305.247 66.8065 315.909 75.1389 320.437C83.4714 324.965 94.0493 321.683 98.7463 313.04C103.443 304.396 100.443 293.735 92.1103 289.207C83.7778 284.679 73.1999 287.961 68.503 296.604Z" fill="white" stroke="black" stroke-width="1.5"/>
<path d="M692.629 125.606C692.082 119.069 686.508 114.24 680.225 114.767C673.942 115.293 669.251 120.983 669.799 127.519C670.346 134.056 675.92 138.885 682.203 138.358C688.486 137.831 693.177 132.142 692.629 125.606Z" fill="#F2F2F2" stroke="black" stroke-width="1.5"/>
<path d="M695.911 123.606C695.363 117.069 689.79 112.24 683.507 112.767C677.223 113.293 672.532 118.983 673.08 125.519C673.628 132.056 679.201 136.885 685.484 136.358C691.767 135.831 696.459 130.142 695.911 123.606Z" fill="#9595EF" stroke="black" stroke-width="1.5"/>
<rect x="476.484" y="81.8154" width="7.76032" height="33" rx="3.88016" transform="rotate(-95.971 476.484 81.8154)" fill="white" stroke="black"/>
<path fill-rule="evenodd" clip-rule="evenodd" d="M494.73 334.389C502.106 330.876 507.534 322.638 508.448 314.537C509.309 306.912 504.014 303.01 497.346 306.094C489.967 309.507 484.414 317.471 483.546 325.557C482.722 333.244 488.124 337.534 494.73 334.389ZM488.268 365.524C487.206 365.849 486.479 365.023 486.654 363.694L486.705 363.132C486.983 359.156 485.245 356.392 482.363 356.228C479.3 356.051 475.523 358.724 473.002 362.869C472.212 364.168 470.978 364.837 470.186 364.397C469.698 364.127 469.224 363.833 468.761 363.519L468.76 363.522L468.722 363.495C468.7 363.481 468.679 363.465 468.657 363.451L459.596 357.195L468.14 349.445C468.478 347.645 468.472 345.949 468.048 344.637C467.029 341.503 464.026 340.548 460.56 342.23C459.473 342.755 458.613 342.237 458.594 341.037C458.568 339.523 458.623 337.98 458.758 336.41C458.899 334.758 459.128 333.08 459.444 331.384C459.685 330.087 460.73 328.754 461.822 328.343C465.301 327.027 468.774 323.29 470.494 319.108C472.14 315.113 471.719 311.135 469.55 309.796C468.834 309.349 468.905 308.05 469.708 306.832C471.753 303.728 474.031 300.744 476.468 297.959C477.408 296.881 478.606 296.45 479.222 296.968C481.184 298.626 484.769 297.908 488.095 295.137C491.426 292.359 493.81 288.188 494.154 284.868C494.295 283.764 495.231 282.129 496.28 281.546C499.096 279.979 501.897 278.727 504.611 277.831C505.652 277.492 506.333 278.01 506.157 279.252C505.732 283.031 507.324 285.537 510.228 285.564C510.606 285.567 510.997 285.531 511.396 285.457L510.384 280.573L517.264 274.422L523.713 278.418C524.264 278.721 524.801 279.046 525.314 279.41L525.348 279.431C525.348 279.431 526.628 280.088 527.411 281.196C527.557 281.34 527.713 281.473 527.854 281.625C528.433 282.248 528.214 283.61 527.338 284.752C525.848 286.691 524.778 289.023 524.286 291.193L524.286 291.197L524.285 291.197C523.901 292.897 523.873 294.498 524.277 295.731C525.242 298.658 528.221 299.537 531.697 297.876C532.785 297.358 533.632 297.837 533.633 298.99C533.636 301.969 533.31 305.136 532.671 308.447C532.419 309.748 531.374 311.09 530.285 311.503C526.817 312.83 523.338 316.585 521.634 320.909C520.007 325.059 520.48 329.341 522.675 330.876C523.403 331.384 523.356 332.824 522.586 334.143C520.621 337.512 518.42 340.8 516.043 343.904C515.13 345.097 513.931 345.525 513.29 344.883C511.249 342.848 507.663 343.508 504.392 346.485C501.199 349.393 498.93 353.928 498.615 358.077C498.518 359.361 497.633 361.198 496.593 361.804C493.791 363.434 490.993 364.685 488.268 365.524Z" fill="#9595EF"/>
<mask id="mask0" mask-type="alpha" maskUnits="userSpaceOnUse" x="465" y="285" width="89" height="82">
<path fill-rule="evenodd" clip-rule="evenodd" d="M553.535 337.196L530.28 285.387L465.099 314.644L488.354 366.453L553.535 337.196Z" fill="white"/>
</mask>
<g mask="url(#mask0)">
<path fill-rule="evenodd" clip-rule="evenodd" d="M507.367 314.343C506.461 322.365 501.01 330.262 494.11 333.547C491.345 334.864 488.759 334.836 486.827 333.466C484.71 331.968 483.715 329.08 484.094 325.543C484.933 317.711 490.415 309.978 497.423 306.736C500.279 305.414 502.996 305.434 504.875 306.789C505.671 307.364 506.294 308.158 506.728 309.125C507.364 310.543 507.594 312.332 507.367 314.343ZM485.879 334.803C488.281 336.506 491.537 336.587 494.814 335.027C502.198 331.511 508.029 323.082 508.995 314.527C509.446 310.539 508.292 307.234 505.832 305.461C503.46 303.749 500.144 303.672 496.734 305.249C489.11 308.776 483.375 316.861 482.464 325.367C482.211 327.722 482.504 329.85 483.284 331.588C483.877 332.908 484.75 334.004 485.879 334.803ZM465.637 340.906C464.021 340.218 461.996 340.391 459.938 341.39C459.629 341.539 459.423 341.533 459.333 341.477C459.225 341.409 459.152 341.197 459.147 340.921C459.121 339.445 459.176 337.916 459.308 336.379C459.447 334.749 459.675 333.084 459.984 331.431C460.17 330.427 461.022 329.318 461.846 329.007C465.496 327.626 469.169 323.732 470.984 319.319C472.8 314.915 472.268 310.574 469.717 308.998C469.666 308.966 469.639 308.876 469.628 308.825C469.56 308.516 469.651 307.901 470.124 307.181C472.132 304.134 474.384 301.178 476.818 298.397C477.6 297.5 478.316 297.4 478.426 297.493C480.721 299.433 484.711 298.698 488.353 295.664C491.775 292.809 494.328 288.464 494.701 284.87C494.81 284.012 495.597 282.613 496.413 282.16C499.201 280.609 501.956 279.38 504.598 278.509C504.887 278.414 505.021 278.453 505.036 278.465C505.053 278.478 505.135 278.639 505.077 279.059C504.809 281.436 505.293 283.458 506.437 284.751C507.312 285.738 508.528 286.267 509.953 286.281C510.376 286.285 510.821 286.245 511.275 286.161C511.493 286.122 511.685 285.996 511.809 285.813C511.932 285.63 511.976 285.405 511.931 285.189L511.015 280.768L517.086 275.34L523.051 279.034C523.631 279.352 524.129 279.661 524.612 280.002C524.632 280.015 524.688 280.048 524.708 280.058C524.719 280.065 525.826 280.649 526.476 281.567C526.503 281.604 526.533 281.641 526.567 281.675C526.632 281.74 526.7 281.803 526.768 281.866C526.844 281.937 526.921 282.009 526.988 282.079C527.182 282.288 527.161 283.188 526.422 284.151C524.894 286.14 523.757 288.54 523.22 290.914C522.788 292.825 522.792 294.544 523.233 295.885C523.726 297.365 524.673 298.447 525.985 299.007C527.608 299.7 529.667 299.525 531.783 298.514C532.087 298.369 532.314 298.362 532.405 298.419C532.491 298.473 532.547 298.657 532.547 298.889C532.55 301.787 532.232 304.918 531.601 308.191C531.404 309.205 530.546 310.324 529.726 310.636C526.041 312.046 522.376 316.012 520.604 320.507C518.82 325.058 519.381 329.659 521.939 331.444C522.169 331.605 522.26 332.52 521.612 333.63C519.648 336.993 517.467 340.249 515.125 343.305C514.61 343.978 514.089 344.239 513.799 344.258C513.668 344.267 513.625 344.225 513.603 344.201C511.234 341.841 507.204 342.473 503.573 345.777C500.231 348.821 497.861 353.584 497.532 357.914C497.446 359.042 496.645 360.567 495.914 360.994C493.164 362.594 490.42 363.82 487.761 364.639C487.587 364.693 487.457 364.685 487.376 364.616C487.252 364.512 487.133 364.208 487.204 363.665L487.256 363.088C487.431 360.561 486.844 358.395 485.602 356.983C484.705 355.965 483.508 355.386 482.143 355.308C478.774 355.114 474.714 357.941 472.035 362.341C471.436 363.327 470.605 363.739 470.318 363.579C469.874 363.334 469.416 363.051 468.953 362.739C468.921 362.717 468.888 362.698 468.853 362.681L468.857 362.675L460.645 357.005L468.424 349.95C468.556 349.83 468.645 349.67 468.679 349.495C469.056 347.489 469.014 345.686 468.559 344.282C468.482 344.045 468.394 343.817 468.297 343.599C467.728 342.333 466.819 341.409 465.637 340.906ZM458.864 357.766L467.926 364.023L468.41 363.388L468.413 363.39L468.025 364.092C468.046 364.106 468.065 364.119 468.087 364.131C468.572 364.456 469.055 364.752 469.522 365.012C470.719 365.677 472.4 364.894 473.435 363.194C475.769 359.357 479.312 356.786 482.049 356.944C482.982 356.997 483.764 357.374 484.372 358.066C485.323 359.143 485.767 360.887 485.622 362.956L485.576 363.485C485.443 364.488 485.714 365.356 486.318 365.867C486.829 366.3 487.53 366.423 488.241 366.205C491.022 365.349 493.881 364.073 496.738 362.409L496.739 362.409C498.049 361.646 499.051 359.532 499.166 358.038C499.464 354.103 501.627 349.766 504.677 346.988C507.617 344.313 510.739 343.66 512.444 345.36C512.824 345.741 513.344 345.931 513.907 345.893C514.778 345.836 515.696 345.255 516.426 344.301C518.808 341.191 521.029 337.878 523.027 334.456C524.048 332.708 523.985 330.881 522.878 330.101C520.996 328.786 520.668 324.835 522.13 321.107C523.742 317.016 527.03 313.422 530.309 312.167C531.657 311.655 532.903 310.08 533.209 308.502C533.86 305.125 534.189 301.89 534.186 298.887C534.183 298.059 533.862 297.4 533.279 297.033C532.67 296.648 531.888 296.65 531.078 297.035C529.392 297.84 527.812 298.005 526.628 297.5C525.762 297.13 525.129 296.393 524.789 295.374C524.446 294.33 524.457 292.875 524.819 291.271C525.298 289.159 526.355 286.928 527.722 285.149C528.862 283.662 529.06 281.904 528.183 280.959C528.089 280.859 527.988 280.765 527.889 280.671L527.766 280.553C526.875 279.338 525.519 278.634 525.523 278.64C525.027 278.288 524.476 277.947 523.878 277.619L517.429 273.624C517.12 273.432 516.723 273.467 516.452 273.709L509.57 279.861C509.353 280.056 509.255 280.352 509.314 280.638L510.144 284.641C510.084 284.642 510.026 284.643 509.969 284.643C509.006 284.633 508.231 284.304 507.664 283.664C506.832 282.722 506.49 281.153 506.703 279.265C506.871 278.064 506.39 277.461 506.088 277.209C505.584 276.787 504.874 276.695 504.088 276.952C501.344 277.855 498.494 279.126 495.616 280.727C494.303 281.458 493.242 283.352 493.073 284.682C492.744 287.847 490.371 291.846 487.304 294.406C484.341 296.874 481.125 297.628 479.483 296.24C478.494 295.407 476.854 295.862 475.584 297.318C473.102 300.156 470.804 303.17 468.757 306.28C468.106 307.266 467.841 308.322 468.027 309.176C468.145 309.707 468.43 310.128 468.853 310.392C470.659 311.507 470.93 315.154 469.47 318.695C467.815 322.716 464.519 326.244 461.268 327.474C459.909 327.986 458.664 329.558 458.373 331.131C458.055 332.836 457.819 334.554 457.675 336.239C457.538 337.832 457.482 339.417 457.509 340.948C457.523 341.815 457.866 342.497 458.474 342.872C459.087 343.25 459.859 343.247 460.652 342.865C462.28 342.075 463.822 341.915 464.995 342.414C465.933 342.813 466.626 343.631 467.001 344.788C467.348 345.856 467.386 347.317 467.116 348.924L458.779 356.486C458.594 356.653 458.496 356.897 458.512 357.146C458.519 357.245 458.544 357.341 458.583 357.428C458.643 357.563 458.739 357.681 458.864 357.766Z" fill="black"/>
</g>
<path fill-rule="evenodd" clip-rule="evenodd" d="M526.962 338.548C526.931 338.587 524.607 341.92 524.153 342.271L516.958 337.792C516.672 337.615 516.591 337.236 516.778 336.956L522.237 328.771C522.421 328.496 522.794 328.424 523.068 328.61L529.749 333.157C530.008 333.334 530.086 333.681 529.928 333.951C529.928 333.951 527.476 337.788 527.015 338.47C526.554 339.151 524.621 341.794 524.621 341.794" fill="#9595EF"/>
<path fill-rule="evenodd" clip-rule="evenodd" d="M514.738 337.78C514.722 337.742 514.708 337.702 514.699 337.66C514.662 337.496 514.695 337.324 514.789 337.184L521.679 326.895C521.772 326.756 521.918 326.66 522.082 326.631C522.246 326.602 522.416 326.64 522.552 326.738L530.846 332.709C531.123 332.907 531.185 333.293 530.986 333.57C530.788 333.846 530.401 333.909 530.125 333.709L522.349 328.111L516.172 337.335L524.154 342.271C524.445 342.449 524.335 342.625 524.157 342.917C523.98 343.207 523.601 343.3 523.31 343.123L514.98 338.054C514.873 337.988 514.789 337.892 514.738 337.78Z" fill="black"/>
<path fill-rule="evenodd" clip-rule="evenodd" d="M536.687 317.194L528.894 311.572L529.873 302.013L538.142 307.661" fill="#9595EF"/>
<path fill-rule="evenodd" clip-rule="evenodd" d="M528.332 311.825C528.288 311.728 528.27 311.619 528.281 311.51L529.261 301.951C529.282 301.734 529.418 301.546 529.614 301.454C529.812 301.362 530.043 301.382 530.222 301.504L538.491 307.153C538.772 307.345 538.845 307.729 538.652 308.01C538.46 308.291 538.076 308.363 537.795 308.171L530.382 303.107L529.545 311.281L537.049 316.694C537.325 316.892 537.388 317.278 537.188 317.555C536.989 317.831 536.603 317.894 536.327 317.694L528.534 312.073C528.445 312.009 528.376 311.923 528.332 311.825Z" fill="black"/>
<path fill-rule="evenodd" clip-rule="evenodd" d="M486.759 328.967C494.135 325.453 499.563 317.216 500.477 309.115C501.338 301.49 496.043 297.587 489.375 300.672C481.997 304.085 476.443 312.048 475.576 320.134C474.751 327.822 480.153 332.112 486.759 328.967ZM480.297 360.102C479.236 360.427 478.509 359.6 478.685 358.272L478.735 357.71C479.012 353.734 477.276 350.97 474.392 350.806C471.33 350.629 467.553 353.302 465.031 357.446C464.241 358.746 463.008 359.415 462.216 358.975C460.169 357.844 458.337 356.327 456.771 354.462C456.179 353.74 456.368 352.253 457.221 351.023C459.814 347.308 461.058 342.244 460.077 339.215C459.058 336.081 456.055 335.125 452.59 336.807C451.502 337.332 450.643 336.815 450.624 335.614C450.598 334.1 450.653 332.557 450.787 330.988C450.929 329.335 451.157 327.657 451.475 325.961C451.714 324.665 452.759 323.331 453.852 322.921C457.33 321.605 460.803 317.868 462.523 313.686C464.171 309.691 463.749 305.712 461.58 304.373C460.863 303.928 460.935 302.628 461.738 301.41C463.783 298.305 466.062 295.322 468.497 292.537C469.437 291.458 470.636 291.028 471.251 291.546C473.213 293.204 476.798 292.486 480.124 289.714C483.455 286.936 485.839 282.765 486.184 279.446C486.324 278.341 487.26 276.707 488.31 276.123C491.127 274.557 493.927 273.304 496.64 272.409C497.681 272.07 498.363 272.587 498.187 273.83C497.762 277.609 499.354 280.114 502.258 280.141C505.304 280.168 509.121 277.636 511.716 273.862C512.53 272.684 513.769 272.034 514.55 272.387C516.559 273.289 518.358 274.573 519.885 276.202C520.464 276.826 520.244 278.188 519.368 279.33C516.71 282.789 515.385 287.5 516.307 290.309C517.272 293.236 520.25 294.114 523.727 292.453C524.815 291.935 525.661 292.414 525.662 293.568C525.666 296.547 525.34 299.714 524.701 303.025C524.449 304.326 523.404 305.667 522.315 306.081C518.848 307.407 515.368 311.162 513.664 315.487C512.036 319.636 512.509 323.919 514.705 325.454C515.432 325.962 515.386 327.402 514.615 328.721C512.65 332.089 510.45 335.378 508.072 338.483C507.16 339.675 505.96 340.102 505.32 339.461C503.279 337.426 499.692 338.085 496.422 341.062C493.228 343.972 490.96 348.507 490.645 352.655C490.547 353.938 489.662 355.776 488.623 356.381C485.821 358.012 483.023 359.263 480.297 360.102Z" fill="white"/>
<path fill-rule="evenodd" clip-rule="evenodd" d="M476.12 320.12C476.961 312.288 482.441 304.555 489.45 301.314C492.307 299.992 495.023 300.012 496.902 301.367C498.867 302.784 499.776 305.537 499.394 308.921C498.488 316.943 493.037 324.839 486.137 328.125C483.372 329.441 480.786 329.413 478.854 328.043C476.738 326.546 475.742 323.657 476.12 320.119L476.12 320.12ZM477.907 329.381C480.31 331.082 483.566 331.165 486.842 329.604C494.226 326.088 500.057 317.658 501.022 309.105C501.472 305.116 500.32 301.812 497.861 300.038C495.488 298.326 492.173 298.249 488.762 299.827C481.139 303.353 475.405 311.438 474.491 319.944L474.491 319.945C474.239 322.3 474.532 324.427 475.312 326.165C475.905 327.485 476.779 328.58 477.907 329.381ZM457.664 335.484C456.048 334.797 454.024 334.968 451.965 335.968C451.657 336.117 451.45 336.111 451.36 336.054C451.249 335.987 451.178 335.773 451.173 335.498C451.149 334.025 451.202 332.496 451.334 330.956C451.472 329.335 451.7 327.672 452.011 326.009C452.197 325.005 453.049 323.895 453.872 323.585C457.524 322.204 461.196 318.31 463.012 313.896C464.828 309.492 464.292 305.152 461.744 303.576C461.693 303.544 461.667 303.454 461.655 303.403C461.588 303.095 461.677 302.479 462.153 301.758C464.157 298.715 466.408 295.76 468.845 292.974C469.627 292.078 470.344 291.978 470.454 292.07C472.749 294.011 476.738 293.276 480.38 290.242C483.803 287.388 486.355 283.042 486.728 279.447C486.836 278.59 487.624 277.19 488.438 276.737C491.227 275.187 493.983 273.958 496.626 273.086C496.913 272.992 497.049 273.031 497.063 273.042C497.086 273.061 497.162 273.222 497.105 273.637C496.836 276.014 497.32 278.035 498.465 279.327C499.339 280.315 500.555 280.845 501.982 280.859C505.297 280.888 509.372 278.222 512.122 274.227C512.809 273.23 513.685 272.915 513.945 273.033C515.861 273.894 517.568 275.115 519.014 276.658C519.208 276.869 519.188 277.767 518.449 278.729C515.59 282.448 514.249 287.383 515.259 290.463C515.751 291.943 516.699 293.024 518.013 293.585C519.635 294.277 521.694 294.102 523.809 293.092C524.114 292.947 524.341 292.94 524.432 292.997C524.517 293.051 524.574 293.235 524.574 293.467C524.578 296.366 524.259 299.495 523.628 302.768C523.431 303.782 522.573 304.902 521.754 305.214C518.069 306.623 514.404 310.589 512.632 315.086C510.848 319.636 511.41 324.235 513.966 326.023C514.206 326.186 514.26 327.143 513.638 328.207C511.676 331.569 509.495 334.825 507.153 337.882C506.638 338.555 506.117 338.817 505.827 338.836C505.695 338.844 505.654 338.802 505.629 338.778C503.261 336.418 499.23 337.05 495.601 340.354C492.259 343.399 489.888 348.162 489.559 352.491C489.473 353.62 488.672 355.145 487.941 355.572C485.192 357.172 482.448 358.398 479.789 359.217C479.614 359.271 479.485 359.263 479.404 359.194C479.28 359.09 479.161 358.785 479.231 358.243L479.283 357.665C479.458 355.138 478.872 352.971 477.63 351.56C476.733 350.542 475.537 349.962 474.169 349.885C470.801 349.692 466.739 352.519 464.062 356.919C463.464 357.904 462.633 358.316 462.343 358.156C460.381 357.071 458.626 355.617 457.135 353.84C456.873 353.519 456.888 352.452 457.624 351.39C460.403 347.408 461.649 342.139 460.587 338.86C460.51 338.622 460.422 338.394 460.324 338.177C459.756 336.911 458.847 335.987 457.664 335.484ZM455.876 354.887C457.503 356.825 459.413 358.408 461.55 359.59C462.747 360.255 464.43 359.473 465.464 357.771C467.798 353.934 471.34 351.363 474.077 351.521C475.011 351.575 475.792 351.952 476.402 352.643C477.348 353.724 477.795 355.465 477.651 357.535L477.605 358.062C477.472 359.064 477.743 359.934 478.346 360.445C478.858 360.878 479.559 361.001 480.27 360.783C483.051 359.928 485.91 358.651 488.766 356.988L488.767 356.987C490.078 356.224 491.08 354.11 491.194 352.616C491.493 348.681 493.656 344.344 496.705 341.566C499.644 338.89 502.766 338.237 504.472 339.937C504.852 340.319 505.372 340.508 505.935 340.471C506.806 340.414 507.725 339.833 508.455 338.879C510.838 335.766 513.059 332.454 515.055 329.033C516.077 327.284 516.012 325.45 514.906 324.681C513.027 323.364 512.697 319.412 514.158 315.685C515.771 311.593 519.059 308 522.337 306.745C523.685 306.234 524.932 304.658 525.237 303.079C525.889 299.703 526.217 296.468 526.214 293.465C526.212 292.639 525.891 291.98 525.308 291.612C524.698 291.226 523.917 291.227 523.105 291.612C521.42 292.418 519.839 292.583 518.657 292.078C517.79 291.707 517.158 290.968 516.817 289.951C515.99 287.433 517.279 282.943 519.749 279.727C520.89 278.241 521.09 276.481 520.213 275.54C518.615 273.834 516.732 272.488 514.62 271.54C513.458 271.013 511.839 271.751 510.773 273.297C508.357 276.808 504.748 279.244 501.998 279.221C501.034 279.211 500.259 278.882 499.693 278.241C498.858 277.299 498.519 275.729 498.731 273.843C498.9 272.642 498.418 272.039 498.117 271.787C497.612 271.364 496.903 271.272 496.117 271.529C493.372 272.433 490.522 273.705 487.643 275.305C486.33 276.035 485.27 277.929 485.101 279.259C484.773 282.426 482.399 286.425 479.332 288.984C476.369 291.452 473.154 292.207 471.512 290.818C470.524 289.986 468.883 290.439 467.612 291.895C465.127 294.737 462.831 297.752 460.786 300.858C460.135 301.844 459.869 302.9 460.057 303.754C460.171 304.284 460.458 304.705 460.882 304.968C462.688 306.083 462.958 309.732 461.497 313.272C459.844 317.294 456.547 320.822 453.294 322.052C451.938 322.563 450.694 324.136 450.4 325.709C450.081 327.424 449.846 329.143 449.703 330.817C449.566 332.412 449.511 333.997 449.536 335.525C449.55 336.392 449.892 337.074 450.501 337.449C451.114 337.828 451.887 337.826 452.68 337.444C454.308 336.653 455.851 336.493 457.024 336.992C457.961 337.391 458.652 338.212 459.03 339.366C459.931 342.149 458.75 346.915 456.279 350.454C455.359 351.781 455.101 353.341 455.578 354.404C455.657 354.58 455.757 354.742 455.876 354.887Z" fill="black"/>
<path fill-rule="evenodd" clip-rule="evenodd" d="M503.304 358.279L496.23 353.022L503.219 349.512L510.366 355.109" fill="#9595EF"/>
<path fill-rule="evenodd" clip-rule="evenodd" d="M495.669 353.275C495.627 353.181 495.608 353.075 495.618 352.969C495.636 352.756 495.763 352.568 495.955 352.472L502.943 348.961C503.156 348.854 503.412 348.879 503.6 349.026L510.747 354.624C511.015 354.833 511.063 355.222 510.853 355.489C510.643 355.758 510.255 355.805 509.987 355.595L503.147 350.238L497.403 353.124L503.674 357.784C503.947 357.987 504.003 358.373 503.801 358.647C503.597 358.921 503.211 358.977 502.938 358.774L495.864 353.518C495.778 353.454 495.712 353.37 495.669 353.275Z" fill="black"/>
</svg>
