<svg id="Слой_1" data-name="Слой 1" xmlns="http://www.w3.org/2000/svg" xmlns:xlink="http://www.w3.org/1999/xlink" viewBox="0 0 640.7 612.25"><defs><style>.cls-1,.cls-13,.cls-3{fill:#fff;}.cls-2{fill:#f2f2f2;}.cls-10,.cls-11,.cls-13,.cls-2,.cls-3,.cls-4{stroke:#000;}.cls-10,.cls-11,.cls-2,.cls-3,.cls-4{stroke-width:1.5px;}.cls-12,.cls-4{fill:#9595ef;}.cls-5,.cls-6,.cls-7{fill:none;stroke:#bdbdbd;}.cls-6{opacity:0.6;}.cls-6,.cls-7{isolation:isolate;}.cls-7{opacity:0.3;}.cls-10,.cls-8{fill:#ededed;}.cls-9{mask:url(#mask);}.cls-11{fill:#a9a9f2;}</style><mask id="mask" x="206.14" y="171.67" width="196.24" height="215.01" maskUnits="userSpaceOnUse"><g id="path-7-inside-1"><path class="cls-1" d="M302.09,176.15l97.91,209-33.4-.62-20.55-47.62-43.88-.05-.09.05H262.16l-18.77,47-34.91.64,93.6-208.35h0Zm.24,66.8-27.86,66.13h27.61l1.55.05H334Z"/></g></mask></defs><title>icon-angular_ok</title><path class="cls-2" d="M171.35,426.45,146.82,222.78,302,168.09l156.18,53.72L433.66,425.47l-131.5,73Z"/><path class="cls-3" d="M168.93,406.35,143.87,198.52l158.48-55.8,159.49,54.81-25,207.82L302.51,479.81Z"/><path class="cls-4" d="M180.62,397.68,157.82,208.8,302,158.09l145.14,49.82L424.39,396.77l-122.2,67.67Z"/><path class="cls-5" d="M319.17,94.82a21.48,21.48,0,0,1,14.05,1.53l175.84,83.54a21.51,21.51,0,0,1,11.7,24.37l-56.21,237.6a21.47,21.47,0,0,1-12.66,14.9l-163.47,68a21.52,21.52,0,0,1-20.67-2.29L124.38,421.09a21.47,21.47,0,0,1-9.09-17.39l-1.84-244.25a21.49,21.49,0,0,1,16.67-21.11Z"/><path class="cls-6" d="M347.9,51.07a40.42,40.42,0,0,1,26,5.88l188,117.21a40.5,40.5,0,0,1,16.67,48.1L483.61,485.63a40.49,40.49,0,0,1-26.88,25.18L263.29,566.57a40.52,40.52,0,0,1-38.21-8.72L76.36,424.9a40.51,40.51,0,0,1-13.28-34.49L92.81,111.86a40.51,40.51,0,0,1,35.71-35.95Z"/><path class="cls-7" d="M373,1.48A112.47,112.47,0,0,1,442.72,26.1L597.93,150.17a112.49,112.49,0,0,1,30.4,138.15l-116,232.08A112.49,112.49,0,0,1,430,581.13L252.58,610.26a112.5,112.5,0,0,1-102.46-36.43L32.52,441A112.5,112.5,0,0,1,7,341.52L64.62,88.08A112.5,112.5,0,0,1,174.88.5Z"/><path class="cls-8" d="M302.09,176.15l97.91,209-33.4-.62-20.55-47.62-43.88-.05-.09.05H262.16l-18.77,47-34.91.64,93.6-208.35h0Zm.24,66.8-27.86,66.13h27.61l1.55.05H334Z"/><g class="cls-9"><path d="M400,385.13l0,1.5,2.41.05-1-2.18Zm-97.91-209-1.45.39,0,.13.06.12ZM366.6,384.51l-1.38.6.38.88,1,0Zm-20.55-47.62,1.37-.6-.39-.9h-1Zm-43.88-.05v-1.5h-.33l-.3.15Zm-.09.05v1.5h.34l.3-.15Zm-39.92,0v-1.5h-1l-.38.94Zm-18.77,47,0,1.5,1,0,.37-.92Zm-34.91.64-1.37-.61-1,2.16,2.37-.05Zm93.6-208.35,1.37.61.13-.29v-.33Zm0,0,1.36-.63-2.86.64Zm0,0-1.36.63,1.39,3,1.34-3Zm0,0,1.45-.38-1.08-4.09-1.73,3.86Zm.25,66.81,1.36-.64-1.44-3-1.3,3.07Zm-27.86,66.13-1.38-.58-.88,2.08h2.26Zm27.61,0,.05-1.5h-.05Zm1.55.05-.05,1.5h.05Zm30.32,0v1.5h2.38l-1-2.15Zm67.41,75.37-97.91-209-2.72,1.27,97.91,209ZM366.57,386l33.4.62.06-3L366.62,383Zm-21.9-48.53,20.55,47.63,2.75-1.19-20.55-47.63Zm-42.5.86,43.88.05v-3l-43.88-.05Zm-.63-2.85-.09,0,1.27,2.71.09,0Zm.54-.1H262.16v3h39.92Zm-41.32.94L242,383.3l2.79,1.12,18.77-47Zm-17.4,46-34.91.64.06,3,34.91-.64Zm-33.51,2.76,93.6-208.36-2.74-1.23-93.6,208.36Zm90.73-209Zm2.86-.64h0l-2.72,1.27h0Zm0,1.25h0l-2.73-1.23h0Zm-2.82-.23h0l2.9-.77h0Zm.32,65.84L273.09,308.5l2.76,1.16,27.87-66.12Zm-26.48,68.21h27.61v-3H274.47Zm27.56,0,1.55.05.1-3-1.55-.05ZM334,307.63H303.63v3H334Zm-33-64,31.62,66.18,2.7-1.3-31.61-66.17Z"/></g><circle class="cls-10" cx="532" cy="157.3" r="24.25"/><circle class="cls-11" cx="534" cy="153.3" r="24.25"/><path class="cls-1" d="M528.42,136.8,551,160l-4.46,1.45-4.92-5.37-5.82,2h0l-5.3,1.84-.33,7.09-4.6,1.7,2.83-32Zm3.11,8.86-.66,10.05,3.67-1.27.2-.06,4-1.4Z"/><circle class="cls-2" cx="59" cy="460.3" r="49.25"/><circle class="cls-3" cx="50" cy="464.3" r="49.25"/><path class="cls-12" d="M54.18,430h0l16.76,59.77-8.84-1.63-3.35-13.55-11.64-1.95h0l-10.6-1.76-7,11.64-9.29-1.37ZM51.3,447.74,41,464.05l7.32,1.22.4.08,8.06,1.34Z"/><path class="cls-13" d="M170.83,116.83h0a3.88,3.88,0,0,1,1.56,5.26l-12,22.18a3.88,3.88,0,0,1-5.26,1.56h0a3.88,3.88,0,0,1-1.56-5.26l12-22.18A3.87,3.87,0,0,1,170.83,116.83Z"/><path class="cls-13" d="M530.36,463.91h0a3.88,3.88,0,0,1,4.75,2.75L541.64,491a3.87,3.87,0,0,1-2.74,4.75h0a3.88,3.88,0,0,1-4.75-2.74l-6.53-24.38A3.88,3.88,0,0,1,530.36,463.91Z"/></svg>