<svg xmlns="http://www.w3.org/2000/svg" width="781" height="781" viewBox="0 0 781 481">
    <g fill="none" fill-rule="evenodd">
        <path fill="#9595EF" d="M498.566 110.351c75.276 54.16 175.375 18.979 168.51 115.125-6.865 96.146-107.213 123.956-333.31 121.36-226.096-2.594-216.356-125.89-165.487-193.928 25.435-34.021 89.79-96.343 157.133-108.032 67.342-11.688 136.477 39.086 173.154 65.475"/>
        <path stroke="#979797" d="M508.535 110.915c85.99 61.869 200.335 21.68 192.493 131.51-7.842 109.832-122.472 141.6-380.75 138.635-258.276-2.964-247.15-143.809-189.042-221.531C160.292 120.666 233.807 49.474 310.734 36.12c76.928-13.351 155.903 44.65 197.8 74.795" opacity=".364"/>
        <path stroke="#979797" d="M731.48 259.82c-8.824 132.268-137.809 170.525-428.43 166.955-290.621-3.57-278.101-173.187-212.716-266.787C123.028 113.186 208.25 38.63 294.81 22.549 381.37 6.47 467.737 39.237 514.88 75.541c96.759 74.507 225.424 52.01 216.6 184.279z" opacity=".18"/>
        <path stroke="#979797" d="M779.418 284.166c-10.107 155.31-157.832 200.231-490.676 196.04C-44.103 476.014-29.764 276.849 45.12 166.943 82.564 111.988 180.167 24.445 279.304 5.562c99.137-18.88 198.051 19.594 252.045 62.223 110.816 87.486 258.175 61.071 248.069 216.38z" opacity=".09"/>
        <path fill="#FFF" d="M349.03 65.245c-11.289 3.267-23.706 1.515-27.264-4.045-3.559-5.562 2.622-12.718 13.811-15.844 11.19-3.126 23.036-1.254 26.694 4.168 3.659 5.42-1.95 12.456-13.24 15.721m54.887-23.174c-.022-.054-.05-.106-.07-.16V27.32l-14.876 2.15-1.288 6.26c-2.932.01-5.68-.503-7.7-1.58-3.632-1.937-4.075-5.307-.92-8.453.987-.984.593-2.049-.94-2.435-3.96-1.003-8.332-1.75-12.98-2.23-1.824-.189-3.895.479-4.7 1.524-2.42 3.155-8.543 2.177-14.436 2.463-6.17.305-11.602 1.964-13.673-1.291-.647-1.024-2.716-1.558-4.68-1.206-2.57.461-5.096.996-7.563 1.607-2.343.58-4.628 1.227-6.85 1.945-1.76.567-2.407 1.781-1.532 2.768 2.803 3.138 1.487 6.813-2.976 9.34-4.076 2.306-10.766 3.294-16.146 2.345l-4.178-15.83-7.947 9.072v15.749c-.626 1.091.33 2.164 2.188 2.433 2.976.43 5.376 1.352 6.955 2.594V56.5l-12.578-1.918V69.84a1.101 1.101 0 0 0 0 .493 21.477 21.477 0 0 0 3.69 7.472c.653.856 3.24.836 5.182.227 6.031-1.897 12.07-1.907 15.813-.169v10.65a1.122 1.122 0 0 0 0 .442v.035h.004c.127.494.62.89 1.456 1.077 4.286.96 8.991 1.6 13.96 1.922 1.004.064 2.104-.126 3.07-.484h.002v-.002c.904-.335 1.69-.817 2.155-1.386 2.907-3.544 9.612-6.544 15.841-7.027 6.488-.491 12.04 1.403 13.977 4.78.603 1.06 2.706 1.56 4.774 1.134 5.265-1.086 10.301-2.416 14.98-3.987.859-.288 1.451-.721 1.756-1.202.294-.464.303-.972 0-1.443v-7.62c.695-.776 1.603-1.505 2.71-2.154 4.187-2.443 11.27-3.324 16.828-1.956 1.835.45 3.947.063 4.824-.893 2.287-2.51 4.028-5.155 5.246-7.85a1.18 1.18 0 0 0 .02-.932l.069-15.486-9.494 2.74c1.762-1.505 4.386-2.8 7.576-3.67 1.914-.483 2.823-1.52 2.451-2.48"/>
        <path stroke="#000" stroke-linejoin="round" stroke-width="2" d="M349.03 65.245c-11.289 3.267-23.706 1.515-27.264-4.045-3.559-5.562 2.622-12.718 13.811-15.844 11.19-3.126 23.036-1.254 26.694 4.168 3.659 5.42-1.95 12.456-13.24 15.721zm54.888-23.174c-.022-.054-.05-.106-.07-.16V27.32l-14.876 2.15-1.288 6.26c-2.932.01-5.68-.503-7.7-1.58-3.632-1.937-4.075-5.307-.92-8.453.987-.984.593-2.049-.94-2.435-3.96-1.003-8.332-1.75-12.98-2.23-1.824-.189-3.895.479-4.7 1.524-2.42 3.155-8.543 2.177-14.436 2.463-6.17.305-11.602 1.964-13.673-1.291-.647-1.024-2.716-1.558-4.68-1.206-2.57.461-5.096.996-7.563 1.607-2.343.58-4.628 1.227-6.85 1.945-1.76.567-2.407 1.781-1.532 2.768 2.803 3.138 1.487 6.813-2.976 9.34-4.076 2.306-10.766 3.294-16.146 2.345l-4.178-15.83-7.947 9.072v15.749c-.626 1.091.33 2.164 2.188 2.433 2.976.43 5.376 1.352 6.955 2.594V56.5l-12.578-1.918V69.84a1.101 1.101 0 0 0 0 .493 21.477 21.477 0 0 0 3.69 7.472c.653.856 3.24.836 5.182.227 6.031-1.897 12.07-1.907 15.813-.169v10.65a1.122 1.122 0 0 0 0 .442v.035h.004c.127.494.62.89 1.456 1.077 4.286.96 8.991 1.6 13.96 1.922 1.004.064 2.104-.126 3.07-.484h.002v-.002c.904-.335 1.69-.817 2.155-1.386 2.907-3.544 9.612-6.544 15.841-7.027 6.488-.491 12.04 1.403 13.977 4.78.603 1.06 2.706 1.56 4.774 1.134 5.265-1.086 10.301-2.416 14.98-3.987.859-.288 1.451-.721 1.756-1.202.294-.464.303-.972 0-1.443v-7.62c.695-.776 1.603-1.505 2.71-2.154 4.187-2.443 11.27-3.324 16.828-1.956 1.835.45 3.947.063 4.824-.893 2.287-2.51 4.028-5.155 5.246-7.85a1.18 1.18 0 0 0 .02-.932l.069-15.486-9.494 2.74c1.762-1.505 4.386-2.8 7.576-3.67 1.914-.483 2.823-1.52 2.451-2.48z"/>
        <path fill="#FFF" d="M380 8.254L376.844 8 373 15.725 380 22z"/>
        <path stroke="#000" stroke-linejoin="round" stroke-width="2" d="M380 8.254L376.844 8 373 15.725 380 22z"/>
        <path fill="#FFF" d="M311 12v13l7-9.516z"/>
        <path stroke="#000" stroke-linejoin="round" stroke-width="2" d="M311 12v13l7-9.516z"/>
        <path fill="#FFF" d="M335.58 29.355c11.19-3.126 23.036-1.253 26.694 4.169 3.658 5.42-1.95 12.456-13.24 15.721-11.29 3.265-23.705 1.514-27.264-4.046-3.557-5.562 2.622-12.718 13.81-15.844m-54.856 32.448c.653.857 3.24.837 5.182.228 6.276-1.974 12.592-1.927 16.283.033 3.776 2.008 3.998 5.693.212 9.32-1.194 1.14-.869 2.315.778 2.683 4.285.958 8.99 1.598 13.958 1.92 1.946.126 4.265-.696 5.229-1.87 2.905-3.547 9.61-6.546 15.839-7.028 6.487-.492 12.04 1.402 13.976 4.778.603 1.062 2.706 1.56 4.774 1.136 5.265-1.087 10.3-2.417 14.979-3.986 1.812-.608 2.49-1.86 1.613-2.864-2.81-3.204-1.509-7.004 2.853-9.556 4.186-2.444 11.27-3.326 16.826-1.956 1.835.449 3.948.063 4.825-.893 2.286-2.511 4.027-5.156 5.245-7.851.478-1.049-.592-2.132-2.418-2.464-5.842-1.056-9.612-3.893-9.408-7.162.197-3.12 4.162-6.131 9.997-7.72 1.915-.484 2.823-1.522 2.45-2.48-.985-2.494-2.404-4.86-4.255-7.028-.69-.807-3.1-.855-4.834-.356-5.226 1.58-11.202 1.401-14.843-.538-3.632-1.936-4.074-5.306-.919-8.452.986-.986.593-2.049-.941-2.436-3.959-1.002-8.331-1.748-12.979-2.23-1.824-.188-3.894.48-4.699 1.525-2.42 3.154-8.543 5.74-14.435 6.026-6.17.304-11.602-1.599-13.674-4.855-.646-1.023-2.714-1.557-4.678-1.205-2.57.46-5.096.996-7.564 1.607-2.343.58-4.627 1.226-6.849 1.945-1.76.566-2.407 1.78-1.532 2.767 2.803 3.138 1.487 6.813-2.976 9.341-4.315 2.442-11.561 3.408-17.08 2.16-1.828-.407-3.978.034-4.964 1.022-2.542 2.588-4.616 5.335-6.226 8.154-.625 1.091.33 2.162 2.19 2.432 5.927.859 9.573 3.664 8.992 7.078-.543 3.211-4.88 6.52-10.746 8.281l-.827.237c-1.947.497-3.317 1.754-3.043 2.785a21.457 21.457 0 0 0 3.69 7.472"/>
        <path stroke="#000" stroke-linejoin="round" stroke-width="2" d="M335.58 29.355c11.19-3.126 23.036-1.253 26.694 4.169 3.658 5.42-1.95 12.456-13.24 15.721-11.29 3.265-23.705 1.514-27.264-4.046-3.557-5.562 2.622-12.718 13.81-15.844zm-54.856 32.448c.653.857 3.24.837 5.182.228 6.276-1.974 12.592-1.927 16.283.033 3.776 2.008 3.998 5.693.212 9.32-1.194 1.14-.869 2.315.778 2.683 4.285.958 8.99 1.598 13.958 1.92 1.946.126 4.265-.696 5.229-1.87 2.905-3.547 9.61-6.546 15.839-7.028 6.487-.492 12.04 1.402 13.976 4.778.603 1.062 2.706 1.56 4.774 1.136 5.265-1.087 10.3-2.417 14.979-3.986 1.812-.608 2.49-1.86 1.613-2.864-2.81-3.204-1.509-7.004 2.853-9.556 4.186-2.444 11.27-3.326 16.826-1.956 1.835.449 3.948.063 4.825-.893 2.286-2.511 4.027-5.156 5.245-7.851.478-1.049-.592-2.132-2.418-2.464-5.842-1.056-9.612-3.893-9.408-7.162.197-3.12 4.162-6.131 9.997-7.72 1.915-.484 2.823-1.522 2.45-2.48-.985-2.494-2.404-4.86-4.255-7.028-.69-.807-3.1-.855-4.834-.356-5.226 1.58-11.202 1.401-14.843-.538-3.632-1.936-4.074-5.306-.919-8.452.986-.986.593-2.049-.941-2.436-3.959-1.002-8.331-1.748-12.979-2.23-1.824-.188-3.894.48-4.699 1.525-2.42 3.154-8.543 5.74-14.435 6.026-6.17.304-11.602-1.599-13.674-4.855-.646-1.023-2.714-1.557-4.678-1.205-2.57.46-5.096.996-7.564 1.607-2.343.58-4.627 1.226-6.849 1.945-1.76.566-2.407 1.78-1.532 2.767 2.803 3.138 1.487 6.813-2.976 9.341-4.315 2.442-11.561 3.408-17.08 2.16-1.828-.407-3.978.034-4.964 1.022-2.542 2.588-4.616 5.335-6.226 8.154-.625 1.091.33 2.162 2.19 2.432 5.927.859 9.573 3.664 8.992 7.078-.543 3.211-4.88 6.52-10.746 8.281l-.827.237c-1.947.497-3.317 1.754-3.043 2.785a21.457 21.457 0 0 0 3.69 7.472z"/>
        <path fill="#9595EF" fill-opacity=".078" stroke="#000" stroke-dasharray="5,8" stroke-linecap="round" stroke-width="2" d="M403.344 68.359l-159.265 92.926c-10.8 6.302-10.765 21.988.062 28.24l251.125 141.291a31.945 31.945 0 0 0 31.682.166l161.768-91.176c10.975-6.184 11.07-22.027.17-28.347L435.489 68.315a31.95 31.95 0 0 0-32.144.044z"/>
        <path fill="#FFF" d="M702.902 171.678h-32.369L445.69 46.4c-10.185-5.675-22.732-5.657-32.9.043L279.083 121.42h-37.57v30.338c.013 5.4 2.793 10.796 8.334 13.87l246.574 136.86c10.026 5.565 22.343 5.628 32.427.165l165.57-89.686c4.596-2.49 7.295-6.574 8.156-10.952h.328v-30.337z"/>
        <path stroke="#000" stroke-linejoin="round" stroke-width="2" d="M702.902 171.678h-32.369L445.69 46.4c-10.185-5.675-22.732-5.657-32.9.043L279.083 121.42h-37.57v30.338c.013 5.4 2.793 10.796 8.334 13.87l246.574 136.86c10.026 5.565 22.343 5.628 32.427.165l165.57-89.686c4.596-2.49 7.295-6.574 8.156-10.952h.328v-30.337z"/>
        <path fill="#FFF" d="M413.276 16.288L250.27 107.694c-11.055 6.198-11.02 21.629.064 27.779l246.574 136.86c10.026 5.564 22.343 5.626 32.427.163l165.57-89.684c11.233-6.086 11.33-21.668.174-27.886L446.176 16.243c-10.185-5.673-22.732-5.657-32.9.045"/>
        <path stroke="#000" stroke-linejoin="round" stroke-width="2" d="M412.79 15.92l-163.006 91.405c-11.056 6.198-11.02 21.629.063 27.78l246.574 136.859c10.026 5.564 22.343 5.627 32.427.164l165.57-89.684c11.233-6.087 11.33-21.67.175-27.887L445.689 15.874c-10.185-5.673-22.732-5.656-32.9.045z"/>
        <path fill="#FFF" d="M368.72 209.432c-8.598-4.763-17.41-5.818-20.748-2.715l-50.378 26.58 28.712 22.534 51.452-27.147c1.516-.422 2.683-1.17 3.347-2.273 2.524-4.192-3.022-11.793-12.385-16.979"/>
        <path stroke="#000" stroke-linejoin="round" stroke-width="2" d="M368.72 209.432c-8.598-4.763-17.41-5.818-20.748-2.715l-50.378 26.58 28.712 22.534 51.452-27.147c1.516-.422 2.683-1.17 3.347-2.273 2.524-4.192-3.022-11.793-12.385-16.979z"/>
        <path fill="#FFF" d="M351.125 242.698H323.56v6.115l-22.128-12.472a12.01 12.01 0 0 0-4.313-1.436v-9.599h-27.565v25.438h.07a5.482 5.482 0 0 0 2.648 3.985l46.047 27.394a11.992 11.992 0 0 0 11.878.226l18.029-9.825c1.758-.957 2.707-2.642 2.867-4.39h.032v-25.436z"/>
        <path stroke="#000" stroke-linejoin="round" stroke-width="2" d="M351.125 242.698H323.56v6.115l-22.128-12.472a12.01 12.01 0 0 0-4.313-1.436v-9.599h-27.565v25.438h.07a5.482 5.482 0 0 0 2.648 3.985l46.047 27.394a11.992 11.992 0 0 0 11.878.226l18.029-9.825c1.758-.957 2.707-2.642 2.867-4.39h.032v-25.436z"/>
        <path fill="#FFF" d="M290.128 208.706l-17.524 8.278c-3.913 1.848-4.102 7.041-.332 9.136l46.047 25.588c3.647 2.029 8.154 2.107 11.879.212l18.027-9.178c3.835-1.952 3.875-7.121.07-9.125l-46.863-24.672c-3.493-1.839-7.726-1.928-11.304-.239"/>
        <path stroke="#000" stroke-linejoin="round" stroke-width="2" d="M290.128 208.706l-17.524 8.278c-3.913 1.848-4.102 7.041-.332 9.136l46.047 25.588c3.647 2.029 8.154 2.107 11.879.212l18.027-9.178c3.835-1.952 3.875-7.121.07-9.125l-46.863-24.672c-3.493-1.839-7.726-1.928-11.304-.239z"/>
        <path fill="#9595EF" d="M539.457 70.935l105.38 58.37c2.353 1.316 2.771 3.889.399 5.168l-134.52 78.164a20.908 20.908 0 0 1-19.913-.058l-97.114-53.136a3.363 3.363 0 0 1-.043-5.908L534.84 70.947c1.902-1.076 2.71-1.079 4.616-.012"/>
        <path fill="#FFF" d="M513.528 8.749L332.279 109.982c-12.29 6.864-12.251 23.952.071 30.766l115.473 62.082c11.148 6.16 24.842 6.23 36.055.18l184.099-99.326c12.491-6.74 12.6-23.998.195-30.882L550.109 8.7c-11.325-6.284-25.275-6.265-36.581.049"/>
        <path stroke="#000" stroke-linejoin="round" stroke-width="2" d="M513.528 8.749L332.279 109.982c-12.29 6.864-12.251 23.952.071 30.766l115.473 62.082c11.148 6.16 24.842 6.23 36.055.18l184.099-99.326c12.491-6.74 12.6-23.998.195-30.882L550.109 8.7c-11.325-6.284-25.275-6.265-36.581.049z"/>
        <path fill="#FFF" d="M611.062 107.5V87.943l-11.397 11.922v5.958c-4.302.27-7.818.48-13.263.794-3.74.218-7.218 1.951-7.751 3.883-1.341 4.854-2.34 8.49-3.31 12.132l-56.755 6.784-11.909 5.98v20.512c-.492 2.01 2.284 3.463 6.165 3.236 26.59-1.544 53.19-3.239 79.687-5.889 3.574-.352 6.783-2.23 7.228-4.16 3.803-16.485 6.218-24.44 11.305-40.64a1.636 1.636 0 0 0 0-.957"/>
        <path stroke="#000" stroke-linejoin="round" stroke-width="2" d="M611.062 107.5V87.943l-11.397 11.922v5.958c-4.302.27-7.818.48-13.263.794-3.74.218-7.218 1.951-7.751 3.883-1.341 4.854-2.34 8.49-3.31 12.132l-56.755 6.784-11.909 5.98v20.512c-.492 2.01 2.284 3.463 6.165 3.236 26.59-1.544 53.19-3.239 79.687-5.889 3.574-.352 6.783-2.23 7.228-4.16 3.803-16.485 6.218-24.44 11.305-40.64a1.636 1.636 0 0 0 0-.957z"/>
        <path fill="#FFF" d="M603.463 90.343V70.425L434.63 91.199c2.617-8.336 3.977-13.102 6.437-21.897.527-1.89 3.764-3.585 7.246-3.787 17.547-1.017 26.405-1.468 44.545-2.378 3.6-.18 6.927-1.89 7.42-3.827a623.188 623.188 0 0 1 2.592-9.954c.085-.314-.029-1.997 0-2.42V29.437l-68.404 6.533-16.218 16.618c-1.18.671-2.048 1.506-2.321 2.38-1.733 5.53-3.155 10.105-4.547 14.443l-9.274 8.358.135 17.7c-.74 1.954 1.64 3.308 5.318 3.034.813-.06 1.564-.118 2.298-.17v15.83c.343 3.859.507 5.795.833 9.676.156 1.865 3.515 2.746 7.458 1.989 59.565-11.151 119.44-20.702 179.156-31.084 3.71-.65 6.47-2.619 6.158-4.402"/>
        <path stroke="#000" stroke-linejoin="round" stroke-width="2" d="M603.463 90.343V70.425L434.63 91.199c2.617-8.336 3.977-13.102 6.437-21.897.527-1.89 3.764-3.585 7.246-3.787 17.547-1.017 26.405-1.468 44.545-2.378 3.6-.18 6.927-1.89 7.42-3.827a623.188 623.188 0 0 1 2.592-9.954c.085-.314-.029-1.997 0-2.42V29.437l-68.404 6.533-16.218 16.618c-1.18.671-2.048 1.506-2.321 2.38-1.733 5.53-3.155 10.105-4.547 14.443l-9.274 8.358.135 17.7c-.74 1.954 1.64 3.308 5.318 3.034.813-.06 1.564-.118 2.298-.17v15.83c.343 3.859.507 5.795.833 9.676.156 1.865 3.515 2.746 7.458 1.989 59.565-11.151 119.44-20.702 179.156-31.084 3.71-.65 6.47-2.619 6.158-4.402z"/>
        <path fill="#FFF" d="M498.316 24.374c-25.016 1.584-50.022 3.24-75.02 5.057-3.405.258-6.627 1.996-7.213 3.883-4.997 16.098-7.462 24.317-13.84 41.323-.747 1.995 1.658 3.376 5.378 3.096 7.605-.572 11.381-.831 18.91-1.315 3.682-.235 7.173-2.014 7.789-3.98 3.107-9.906 4.493-14.79 7.185-24.5.534-1.926 3.805-3.657 7.326-3.863 17.744-1.038 26.7-1.497 45.044-2.427 3.64-.184 7.007-1.927 7.504-3.904A624.115 624.115 0 0 1 504 27.588c.532-1.998-2.019-3.443-5.685-3.214"/>
        <path stroke="#000" stroke-linejoin="round" stroke-width="2" d="M498.316 24.374c-25.016 1.584-50.022 3.24-75.02 5.057-3.405.258-6.627 1.996-7.213 3.883-4.997 16.098-7.462 24.317-13.84 41.323-.747 1.995 1.658 3.376 5.378 3.096 7.605-.572 11.381-.831 18.91-1.315 3.682-.235 7.173-2.014 7.789-3.98 3.107-9.906 4.493-14.79 7.185-24.5.534-1.926 3.805-3.657 7.326-3.863 17.744-1.038 26.7-1.497 45.044-2.427 3.64-.184 7.007-1.927 7.504-3.904A624.115 624.115 0 0 1 504 27.588c.532-1.998-2.019-3.443-5.685-3.214z"/>
        <path fill="#FFF" d="M605.433 85.427c-7.584.486-11.397.717-19.044 1.156-3.74.215-7.215 1.94-7.749 3.858-2.688 9.672-4 14.485-6.46 24.214-.488 1.929-3.865 3.712-7.574 3.963-15.815 1.08-31.65 1.993-47.48 2.818-3.826.204-7.36 1.972-7.873 3.959a828.956 828.956 0 0 0-2.576 10.182c-.492 2 2.285 3.443 6.166 3.219 26.583-1.536 53.18-3.22 79.672-5.854 3.573-.352 6.782-2.216 7.228-4.136 3.803-16.386 6.217-24.293 11.303-40.396.596-1.887-1.906-3.22-5.613-2.983"/>
        <path stroke="#000" stroke-linejoin="round" stroke-width="2" d="M605.433 85.427c-7.584.486-11.397.717-19.044 1.156-3.74.215-7.215 1.94-7.749 3.858-2.688 9.672-4 14.485-6.46 24.214-.488 1.929-3.865 3.712-7.574 3.963-15.815 1.08-31.65 1.993-47.48 2.818-3.826.204-7.36 1.972-7.873 3.959a828.956 828.956 0 0 0-2.576 10.182c-.492 2 2.285 3.443 6.166 3.219 26.583-1.536 53.18-3.22 79.672-5.854 3.573-.352 6.782-2.216 7.228-4.136 3.803-16.386 6.217-24.293 11.303-40.396.596-1.887-1.906-3.22-5.613-2.983z"/>
        <path fill="#FFF" d="M410.607 105.991c-.33-3.953-.497-5.925-.846-9.856-.166-1.888 2.858-4.043 6.721-4.79 59.937-11.31 120.194-20.969 180.342-31.178 3.859-.656 7.245.319 7.555 2.17.645 3.848.973 5.753 1.632 9.533.317 1.817-2.48 3.82-6.243 4.483-60.53 10.575-121.224 20.306-181.602 31.664-3.996.772-7.4-.125-7.559-2.026"/>
        <path stroke="#000" stroke-linejoin="round" stroke-width="2" d="M410.607 105.991c-.33-3.953-.497-5.925-.846-9.856-.166-1.888 2.858-4.043 6.721-4.79 59.937-11.31 120.194-20.969 180.342-31.178 3.859-.656 7.245.319 7.555 2.17.645 3.848.973 5.753 1.632 9.533.317 1.817-2.48 3.82-6.243 4.483-60.53 10.575-121.224 20.306-181.602 31.664-3.996.772-7.4-.125-7.559-2.026z"/>
    </g>
</svg>
