<svg width="798" height="722" viewBox="0 0 798 722" fill="none" xmlns="http://www.w3.org/2000/svg">
<path opacity="0.364357" fill-rule="evenodd" clip-rule="evenodd" d="M625.116 503.272C565.757 598.472 470.741 543.978 309.896 460.519C149.05 377.061 220.814 226.255 296.878 181.683C334.909 159.399 417.729 127.376 474.174 148.759C530.619 170.144 553.127 256.472 565.378 301.71C590.521 394.553 684.474 408.074 625.116 503.272Z" stroke="#979797"/>
<path opacity="0.175558" fill-rule="evenodd" clip-rule="evenodd" d="M597.183 262.797C628.921 318.623 721.444 424.36 649.334 540.497C577.222 656.635 446.565 624.64 246.673 485.733C46.7793 346.827 162.15 205.031 254.222 150.448C300.258 123.159 394.544 94.8413 462.635 120.628C530.725 146.416 565.444 206.971 597.183 262.797Z" stroke="#979797"/>
<path opacity="0.0947545" fill-rule="evenodd" clip-rule="evenodd" d="M610.375 260.014C646.565 324.086 741.181 449.265 658.418 582.864C575.653 716.464 425.121 681.992 196.723 522.836C-31.675 363.682 100.641 200.505 206.107 137.586C258.84 106.129 376.56 75.0784 454.409 104.555C532.257 134.034 574.185 195.942 610.375 260.014Z" stroke="#979797"/>
<path fill-rule="evenodd" clip-rule="evenodd" d="M238.901 304.328L415.2 203.093C417.382 201.839 418.568 199.705 418.747 197.498L419.024 197.443V189.137L410.461 187.871L402.578 183.127C397.885 180.302 392.041 180.243 387.292 182.97L225.221 276.036L225.237 275.922L207.323 281.669V288.838C206.61 291.753 207.731 295.055 210.686 296.751L223.882 304.328C228.535 307 234.247 307 238.901 304.328Z" fill="#9595EF"/>
<path d="M415.2 203.093L415.698 203.96L415.698 203.96L415.2 203.093ZM238.901 304.328L238.403 303.461H238.403L238.901 304.328ZM418.747 197.498L418.549 196.518C418.113 196.606 417.787 196.973 417.751 197.417L418.747 197.498ZM419.024 197.443L419.222 198.423C419.688 198.329 420.024 197.919 420.024 197.443H419.024ZM419.024 189.137H420.024C420.024 188.641 419.66 188.22 419.17 188.148L419.024 189.137ZM410.461 187.871L409.945 188.728C410.058 188.796 410.184 188.841 410.315 188.86L410.461 187.871ZM402.578 183.127L403.093 182.27V182.27L402.578 183.127ZM387.292 182.97L386.794 182.103V182.103L387.292 182.97ZM225.221 276.036L224.231 275.901C224.179 276.279 224.347 276.653 224.663 276.866C224.979 277.078 225.389 277.093 225.719 276.903L225.221 276.036ZM225.237 275.922L226.228 276.057C226.274 275.717 226.143 275.376 225.879 275.156C225.616 274.935 225.258 274.865 224.931 274.97L225.237 275.922ZM207.323 281.669L207.018 280.716C206.604 280.849 206.323 281.234 206.323 281.669H207.323ZM207.323 288.838L208.295 289.076C208.314 288.998 208.323 288.919 208.323 288.838H207.323ZM210.686 296.751L211.184 295.884L211.184 295.884L210.686 296.751ZM223.882 304.328L224.38 303.461L224.38 303.461L223.882 304.328ZM414.702 202.226L238.403 303.461L239.399 305.195L415.698 203.96L414.702 202.226ZM417.751 197.417C417.596 199.32 416.578 201.148 414.701 202.226L415.698 203.96C418.186 202.531 419.54 200.09 419.744 197.58L417.751 197.417ZM418.945 198.479L419.222 198.423L418.826 196.462L418.549 196.518L418.945 198.479ZM420.024 197.443V189.137H418.024V197.443H420.024ZM419.17 188.148L410.607 186.882L410.315 188.86L418.877 190.126L419.17 188.148ZM402.062 183.983L409.945 188.728L410.977 187.014L403.093 182.27L402.062 183.983ZM387.79 183.837C392.225 181.291 397.68 181.346 402.062 183.983L403.093 182.27C398.09 179.258 391.858 179.195 386.794 182.103L387.79 183.837ZM225.719 276.903L387.79 183.837L386.794 182.103L224.723 275.169L225.719 276.903ZM224.246 275.787L224.231 275.901L226.212 276.171L226.228 276.057L224.246 275.787ZM207.629 282.621L225.542 276.874L224.931 274.97L207.018 280.716L207.629 282.621ZM208.323 288.838V281.669H206.323V288.838H208.323ZM211.184 295.884C208.65 294.429 207.678 291.599 208.295 289.076L206.352 288.601C205.543 291.908 206.812 295.68 210.188 297.618L211.184 295.884ZM224.38 303.461L211.184 295.884L210.188 297.618L223.384 305.195L224.38 303.461ZM238.403 303.461C234.058 305.956 228.725 305.956 224.38 303.461L223.384 305.195C228.346 308.044 234.437 308.044 239.399 305.195L238.403 303.461Z" fill="black"/>
<path fill-rule="evenodd" clip-rule="evenodd" d="M233.773 281.654L380.476 197.413C384.393 195.163 384.451 189.509 380.58 187.182L369.973 180.799C366.068 178.448 361.206 178.399 357.254 180.668L210.295 265.057C206.333 267.332 206.333 273.075 210.295 275.349L221.275 281.654C225.147 283.877 229.9 283.877 233.773 281.654Z" fill="white" stroke="black" stroke-width="2" stroke-linejoin="round"/>
<path fill-rule="evenodd" clip-rule="evenodd" d="M258.032 267.223L241.7 257.844L258.032 267.223Z" fill="white"/>
<path d="M258.032 267.223L241.7 257.844" stroke="black" stroke-width="2" stroke-linecap="round" stroke-linejoin="round"/>
<path fill-rule="evenodd" clip-rule="evenodd" d="M242.956 274.955L232.817 269.131L242.956 274.955Z" fill="white"/>
<path d="M242.956 274.955L232.817 269.131" stroke="black" stroke-width="2" stroke-linecap="round" stroke-linejoin="round"/>
<path fill-rule="evenodd" clip-rule="evenodd" d="M269.408 260.882L259.268 255.059L269.408 260.882Z" fill="white"/>
<path d="M269.408 260.882L259.268 255.059" stroke="black" stroke-width="2" stroke-linecap="round" stroke-linejoin="round"/>
<path fill-rule="evenodd" clip-rule="evenodd" d="M282.961 252.881L266.629 243.503L282.961 252.881Z" fill="white"/>
<path d="M282.961 252.881L266.629 243.503" stroke="black" stroke-width="2" stroke-linecap="round" stroke-linejoin="round"/>
<path fill-rule="evenodd" clip-rule="evenodd" d="M295.775 244.514L285.637 238.69L295.775 244.514Z" fill="white"/>
<path d="M295.775 244.514L285.637 238.69" stroke="black" stroke-width="2" stroke-linecap="round" stroke-linejoin="round"/>
<path fill-rule="evenodd" clip-rule="evenodd" d="M309.274 237.655L292.941 228.277L309.274 237.655Z" fill="white"/>
<path d="M309.274 237.655L292.941 228.277" stroke="black" stroke-width="2" stroke-linecap="round" stroke-linejoin="round"/>
<path fill-rule="evenodd" clip-rule="evenodd" d="M321.197 230.14L311.057 224.316L321.197 230.14Z" fill="white"/>
<path d="M321.197 230.14L311.057 224.316" stroke="black" stroke-width="2" stroke-linecap="round" stroke-linejoin="round"/>
<path fill-rule="evenodd" clip-rule="evenodd" d="M335.175 222.715L318.843 213.336L335.175 222.715Z" fill="white"/>
<path d="M335.175 222.715L318.843 213.336" stroke="black" stroke-width="2" stroke-linecap="round" stroke-linejoin="round"/>
<path fill-rule="evenodd" clip-rule="evenodd" d="M346.947 214.871L336.807 209.047L346.947 214.871Z" fill="white"/>
<path d="M346.947 214.871L336.807 209.047" stroke="black" stroke-width="2" stroke-linecap="round" stroke-linejoin="round"/>
<path fill-rule="evenodd" clip-rule="evenodd" d="M360.673 208.616L344.341 199.238L360.673 208.616Z" fill="white"/>
<path d="M360.673 208.616L344.341 199.238" stroke="black" stroke-width="2" stroke-linecap="round" stroke-linejoin="round"/>
<path fill-rule="evenodd" clip-rule="evenodd" d="M372.596 201.499L362.456 195.676L372.596 201.499Z" fill="white"/>
<path d="M372.596 201.499L362.456 195.676" stroke="black" stroke-width="2" stroke-linecap="round" stroke-linejoin="round"/>
<path fill-rule="evenodd" clip-rule="evenodd" d="M638.001 348.913H611.582L428.062 242.517C419.749 237.698 409.508 237.713 401.209 242.554L292.077 306.23H261.412V331.995C261.422 336.582 263.692 341.164 268.214 343.775L469.47 460.007C477.653 464.733 487.706 464.786 495.937 460.146L631.075 383.978C634.828 381.864 637.031 378.395 637.732 374.677H638.001V348.913Z" fill="#9595EF"/>
<path fill-rule="evenodd" clip-rule="evenodd" d="M638.001 348.913H611.582L428.062 242.517C419.749 237.698 409.508 237.713 401.209 242.554L292.077 306.23H261.412V331.995C261.422 336.582 263.692 341.164 268.214 343.775L469.47 460.007C477.653 464.733 487.706 464.786 495.937 460.146L631.075 383.978C634.828 381.864 637.031 378.395 637.732 374.677H638.001V348.913Z" stroke="black" stroke-width="2" stroke-linejoin="round"/>
<path fill-rule="evenodd" clip-rule="evenodd" d="M401.209 216.759L268.163 294.388C259.139 299.652 259.168 312.757 268.214 317.98L469.47 434.211C477.653 438.937 487.706 438.989 495.937 434.351L631.075 358.183C640.245 353.015 640.325 339.78 631.219 334.501L428.062 216.722C419.749 211.903 409.508 211.917 401.209 216.759Z" fill="white"/>
<path fill-rule="evenodd" clip-rule="evenodd" d="M401.209 216.759L268.163 294.388C259.139 299.652 259.168 312.757 268.214 317.98L469.47 434.211C477.653 438.937 487.706 438.989 495.937 434.351L631.075 358.183C640.245 353.015 640.325 339.78 631.219 334.501L428.062 216.722C419.749 211.903 409.508 211.917 401.209 216.759Z" stroke="black" stroke-width="2" stroke-linejoin="round"/>
<path d="M341.296 300.537C359.84 293.238 401.966 269.275 425.934 288.92C449.903 308.566 421.577 365.17 454.261 384.674C486.946 404.181 514.356 362.555 488.303 328.262" stroke="#9595EF" stroke-width="6" stroke-linecap="round"/>
<path fill-rule="evenodd" clip-rule="evenodd" d="M364.855 378.352C357.883 374.306 350.737 373.409 348.03 376.046L307.179 398.623L330.462 417.766L372.184 394.706C373.413 394.347 374.36 393.711 374.898 392.774C376.944 389.214 372.447 382.757 364.855 378.352Z" fill="white"/>
<path fill-rule="evenodd" clip-rule="evenodd" d="M364.855 378.352C357.883 374.306 350.737 373.409 348.03 376.046L307.179 398.623L330.462 417.766L372.184 394.706C373.413 394.347 374.36 393.711 374.898 392.774C376.944 389.214 372.447 382.757 364.855 378.352Z" stroke="black" stroke-width="2" stroke-linejoin="round"/>
<path fill-rule="evenodd" clip-rule="evenodd" d="M352.882 406.983H330.408V411.952L312.367 401.82C311.263 401.201 310.068 400.815 308.85 400.654V392.856H286.376V413.521H286.433C286.615 414.796 287.326 416.006 288.592 416.757L326.135 439.011C329.107 440.774 332.782 440.842 335.819 439.193L350.518 431.213C351.95 430.434 352.725 429.067 352.855 427.647H352.882V406.983Z" fill="#9595EF"/>
<path fill-rule="evenodd" clip-rule="evenodd" d="M352.882 406.983H330.408V411.952L312.367 401.82C311.263 401.201 310.068 400.815 308.85 400.654V392.856H286.376V413.521H286.433C286.615 414.796 287.326 416.006 288.592 416.757L326.135 439.011C329.107 440.774 332.782 440.842 335.819 439.193L350.518 431.213C351.95 430.434 352.725 429.067 352.855 427.647H352.882V406.983Z" stroke="black" stroke-width="2" stroke-linejoin="round"/>
<path fill-rule="evenodd" clip-rule="evenodd" d="M303.15 381.424L288.863 388.622C285.673 390.228 285.519 394.746 288.592 396.568L326.134 418.822C329.108 420.584 332.783 420.654 335.82 419.005L350.517 411.024C353.644 409.326 353.676 404.831 350.574 403.088L312.367 381.631C309.519 380.032 306.067 379.955 303.15 381.424Z" fill="white"/>
<path fill-rule="evenodd" clip-rule="evenodd" d="M303.15 381.424L288.863 388.622C285.673 390.228 285.519 394.746 288.592 396.568L326.134 418.822C329.108 420.584 332.783 420.654 335.82 419.005L350.517 411.024C353.644 409.326 353.676 404.831 350.574 403.088L312.367 381.631C309.519 380.032 306.067 379.955 303.15 381.424Z" stroke="black" stroke-width="2" stroke-linejoin="round"/>
<path fill-rule="evenodd" clip-rule="evenodd" d="M487.751 327.97L508.611 286.083L531.551 280.519L547.767 306.355L536.298 325.426L487.751 327.97L517.759 308.468L517.315 308.253L487.751 327.97Z" fill="white"/>
<path fill-rule="evenodd" clip-rule="evenodd" d="M487.751 327.97L508.611 286.083L531.551 280.519L547.767 306.355L536.298 325.426L487.751 327.97L517.759 308.468L517.315 308.253L487.751 327.97Z" stroke="black" stroke-width="2" stroke-linejoin="round"/>
<path fill-rule="evenodd" clip-rule="evenodd" d="M523.069 307.768C523.069 309.949 521.31 311.716 519.139 311.716C516.969 311.716 515.21 309.949 515.21 307.768C515.21 305.586 516.969 303.819 519.139 303.819C521.31 303.819 523.069 305.586 523.069 307.768Z" fill="white"/>
<path fill-rule="evenodd" clip-rule="evenodd" d="M523.069 307.768C523.069 309.949 521.31 311.716 519.139 311.716C516.969 311.716 515.21 309.949 515.21 307.768C515.21 305.586 516.969 303.819 519.139 303.819C521.31 303.819 523.069 305.586 523.069 307.768Z" stroke="black" stroke-width="2" stroke-linejoin="round"/>
<path fill-rule="evenodd" clip-rule="evenodd" d="M531.852 280.982L548.068 306.817L562.974 297.96L545.85 271.366L531.852 280.982Z" fill="white"/>
<path fill-rule="evenodd" clip-rule="evenodd" d="M531.852 280.982L548.068 306.817L562.974 297.96L545.85 271.366L531.852 280.982Z" stroke="black" stroke-width="2" stroke-linejoin="round"/>
<path fill-rule="evenodd" clip-rule="evenodd" d="M398.944 270.245L447.195 300.996L398.944 270.245Z" fill="white"/>
<path d="M398.944 270.245L447.195 300.996" stroke="black" stroke-width="2" stroke-linejoin="round"/>
<path fill-rule="evenodd" clip-rule="evenodd" d="M401.14 270.093C401.14 271.228 400.224 272.149 399.094 272.149C397.964 272.149 397.049 271.228 397.049 270.093C397.049 268.958 397.964 268.037 399.094 268.037C400.224 268.037 401.14 268.958 401.14 270.093Z" fill="white"/>
<path fill-rule="evenodd" clip-rule="evenodd" d="M401.14 270.093C401.14 271.228 400.224 272.149 399.094 272.149C397.964 272.149 397.049 271.228 397.049 270.093C397.049 268.958 397.964 268.037 399.094 268.037C400.224 268.037 401.14 268.958 401.14 270.093Z" stroke="black" stroke-width="2" stroke-linejoin="round"/>
<path fill-rule="evenodd" clip-rule="evenodd" d="M450.237 301.714C450.237 302.849 449.321 303.771 448.191 303.771C447.061 303.771 446.145 302.849 446.145 301.714C446.145 300.58 447.061 299.658 448.191 299.658C449.321 299.658 450.237 300.58 450.237 301.714Z" fill="white"/>
<path fill-rule="evenodd" clip-rule="evenodd" d="M450.237 301.714C450.237 302.849 449.321 303.771 448.191 303.771C447.061 303.771 446.145 302.849 446.145 301.714C446.145 300.58 447.061 299.658 448.191 299.658C449.321 299.658 450.237 300.58 450.237 301.714Z" stroke="black" stroke-width="2" stroke-linejoin="round"/>
<path fill-rule="evenodd" clip-rule="evenodd" d="M316.095 314.517L365.643 285.927L316.095 314.517Z" fill="white"/>
<path d="M316.095 314.517L365.643 285.927" stroke="black" stroke-width="2" stroke-linejoin="round"/>
<path fill-rule="evenodd" clip-rule="evenodd" d="M316.003 312.377C317.003 312.906 317.387 314.148 316.862 315.154C316.335 316.158 315.097 316.544 314.098 316.016C313.098 315.487 312.713 314.245 313.24 313.239C313.765 312.235 315.003 311.848 316.003 312.377Z" fill="white"/>
<path fill-rule="evenodd" clip-rule="evenodd" d="M316.003 312.377C317.003 312.906 317.387 314.148 316.862 315.154C316.335 316.158 315.097 316.544 314.098 316.016C313.098 315.487 312.713 314.245 313.24 313.239C313.765 312.235 315.003 311.848 316.003 312.377Z" stroke="black" stroke-width="2" stroke-linejoin="round"/>
<path fill-rule="evenodd" clip-rule="evenodd" d="M367.595 283.253C368.594 283.781 368.979 285.024 368.453 286.028C367.926 287.034 366.69 287.42 365.689 286.892C364.689 286.363 364.306 285.12 364.831 284.115C365.358 283.11 366.595 282.723 367.595 283.253Z" fill="white"/>
<path fill-rule="evenodd" clip-rule="evenodd" d="M367.595 283.253C368.594 283.781 368.979 285.024 368.453 286.028C367.926 287.034 366.69 287.42 365.689 286.892C364.689 286.363 364.306 285.12 364.831 284.115C365.358 283.11 366.595 282.723 367.595 283.253Z" stroke="black" stroke-width="2" stroke-linejoin="round"/>
<path fill-rule="evenodd" clip-rule="evenodd" d="M425.737 366.932L473.988 397.684L425.737 366.932Z" fill="white"/>
<path d="M425.737 366.932L473.988 397.684" stroke="black" stroke-width="2" stroke-linejoin="round"/>
<path fill-rule="evenodd" clip-rule="evenodd" d="M427.768 365.788C427.768 366.923 426.852 367.845 425.722 367.845C424.592 367.845 423.677 366.923 423.677 365.788C423.677 364.654 424.592 363.732 425.722 363.732C426.852 363.732 427.768 364.654 427.768 365.788Z" fill="white"/>
<path fill-rule="evenodd" clip-rule="evenodd" d="M427.768 365.788C427.768 366.923 426.852 367.845 425.722 367.845C424.592 367.845 423.677 366.923 423.677 365.788C423.677 364.654 424.592 363.732 425.722 363.732C426.852 363.732 427.768 364.654 427.768 365.788Z" stroke="black" stroke-width="2" stroke-linejoin="round"/>
<path fill-rule="evenodd" clip-rule="evenodd" d="M476.865 398.241C476.865 399.376 475.949 400.297 474.819 400.297C473.689 400.297 472.772 399.376 472.772 398.241C472.772 397.106 473.689 396.185 474.819 396.185C475.949 396.185 476.865 397.106 476.865 398.241Z" fill="white"/>
<path fill-rule="evenodd" clip-rule="evenodd" d="M476.865 398.241C476.865 399.376 475.949 400.297 474.819 400.297C473.689 400.297 472.772 399.376 472.772 398.241C472.772 397.106 473.689 396.185 474.819 396.185C475.949 396.185 476.865 397.106 476.865 398.241Z" stroke="black" stroke-width="2" stroke-linejoin="round"/>
<path fill-rule="evenodd" clip-rule="evenodd" d="M123.303 238.713L129.536 220.641L111.951 223.878L108.318 219.585C107.093 218.138 105.182 217.456 103.318 217.802L97.8039 218.826L86.6166 205.313L80.4954 223.062C80.4669 223.133 80.4425 223.203 80.421 223.277L80.3836 223.386L80.3975 223.391C80.2493 224.033 80.3723 224.742 80.8736 225.309L95.7969 242.192C97.0092 243.564 98.8492 244.212 100.654 243.901L121.569 240.307C122.477 240.151 123.1 239.49 123.303 238.713Z" fill="#9595EF"/>
<path fill-rule="evenodd" clip-rule="evenodd" d="M123.303 238.713L129.536 220.641L111.951 223.878L108.318 219.585C107.093 218.138 105.182 217.456 103.318 217.802L97.8039 218.826L86.6166 205.313L80.4954 223.062C80.4669 223.133 80.4425 223.203 80.421 223.277L80.3836 223.386L80.3975 223.391C80.2493 224.033 80.3723 224.742 80.8736 225.309L95.7969 242.192C97.0092 243.564 98.8492 244.212 100.654 243.901L121.569 240.307C122.477 240.151 123.1 239.49 123.303 238.713Z" stroke="black" stroke-width="2" stroke-linecap="round" stroke-linejoin="round"/>
<path fill-rule="evenodd" clip-rule="evenodd" d="M88.2241 204.021L109.419 200.123C111.282 199.78 113.192 200.462 114.418 201.905L128.968 219.042C130.056 220.323 129.342 222.283 127.684 222.565L106.788 226.121C104.985 226.428 103.145 225.781 101.932 224.413L86.9999 207.575C85.8792 206.311 86.5628 204.327 88.2241 204.021Z" fill="white"/>
<path fill-rule="evenodd" clip-rule="evenodd" d="M88.2241 204.021L109.419 200.123C111.282 199.78 113.192 200.462 114.418 201.905L128.968 219.042C130.056 220.323 129.342 222.283 127.684 222.565L106.788 226.121C104.985 226.428 103.145 225.781 101.932 224.413L86.9999 207.575C85.8792 206.311 86.5628 204.327 88.2241 204.021Z" fill="white"/>
<path fill-rule="evenodd" clip-rule="evenodd" d="M88.2241 204.021L109.419 200.123C111.282 199.78 113.192 200.462 114.418 201.905L128.968 219.042C130.056 220.323 129.342 222.283 127.684 222.565L106.788 226.121C104.985 226.428 103.145 225.781 101.932 224.413L86.9999 207.575C85.8792 206.311 86.5628 204.327 88.2241 204.021Z" stroke="black" stroke-width="2" stroke-linecap="round" stroke-linejoin="round"/>
<path d="M101.678 230.989L99.3889 237.628" stroke="black" stroke-width="2" stroke-linecap="round" stroke-linejoin="round"/>
<rect x="612.69" y="558.85" width="7.76032" height="33" rx="3.88016" transform="rotate(-32.4147 612.69 558.85)" fill="white" stroke="black"/>
<rect x="307.992" y="116.689" width="7.76032" height="21.3724" rx="3.88016" transform="rotate(31.9287 307.992 116.689)" fill="white" stroke="black"/>
<path d="M214.264 534.786C212.148 539.675 214.286 545.264 218.977 547.294C223.667 549.324 229.206 547.058 231.322 542.169C233.438 537.279 231.3 531.691 226.609 529.66C221.918 527.63 216.38 529.896 214.264 534.786Z" fill="#F2F2F2" stroke="black" stroke-width="1.5"/>
<path d="M212.038 535.19C209.921 540.08 212.06 545.668 216.75 547.698C221.441 549.728 226.979 547.462 229.095 542.573C231.211 537.683 229.073 532.095 224.382 530.065C219.692 528.035 214.154 530.301 212.038 535.19Z" fill="white" stroke="black" stroke-width="1.5"/>
</svg>
