<svg width="668" height="673" viewBox="0 0 668 673" fill="none" xmlns="http://www.w3.org/2000/svg">
<path opacity="0.3" d="M419.096 336.317C419.096 429.16 409.546 513.196 394.115 574.007C386.399 604.416 377.219 628.989 367.045 645.948C356.852 662.938 345.756 672.135 334.255 672.135C322.754 672.135 311.658 662.938 301.465 645.948C291.291 628.989 282.111 604.416 274.395 574.007C258.964 513.196 249.415 429.16 249.415 336.317C249.415 243.475 258.964 159.439 274.395 98.628C282.111 68.2188 291.291 43.6456 301.465 26.6867C311.658 9.69639 322.754 0.5 334.255 0.5C345.756 0.5 356.852 9.69639 367.045 26.6867C377.219 43.6456 386.399 68.2188 394.115 98.628C409.546 159.439 419.096 243.475 419.096 336.317Z" stroke="#BDBDBD"/>
<path d="M376.311 409.311C295.907 455.732 218.368 489.502 158.009 506.58C127.826 515.12 101.968 519.478 82.2072 519.17C62.4098 518.862 48.9135 513.876 43.1793 503.944C37.4451 494.012 39.8757 479.832 49.5073 462.532C59.1207 445.265 75.8241 425.05 98.3115 403.181C143.281 359.448 211.296 309.182 291.7 262.76C372.104 216.339 449.644 182.569 510.002 165.491C540.185 156.951 566.044 152.593 585.804 152.901C605.601 153.21 619.098 158.195 624.832 168.127C630.566 178.059 628.135 192.24 618.504 209.539C608.891 226.806 592.187 247.022 569.7 268.891C524.731 312.624 456.715 362.89 376.311 409.311Z" stroke="#BDBDBD"/>
<path opacity="0.6" d="M291.509 409.311C211.105 362.89 143.09 312.624 98.1207 268.891C75.6333 247.021 58.93 226.806 49.3165 209.539C39.685 192.24 37.2543 178.059 42.9885 168.127C48.7228 158.195 62.2191 153.21 82.0165 152.901C101.777 152.593 127.636 156.951 157.819 165.491C218.177 182.569 295.716 216.339 376.12 262.76C456.524 309.182 524.54 359.448 569.509 403.181C591.996 425.05 608.7 445.265 618.313 462.532C627.945 479.832 630.375 494.012 624.641 503.944C618.907 513.876 605.411 518.862 585.613 519.17C565.853 519.478 539.994 515.12 509.811 506.58C449.453 489.502 371.913 455.732 291.509 409.311Z" stroke="#BDBDBD"/>
<path d="M457.904 277.084L457.75 277.762L458.416 277.966C485.707 286.323 508.205 297.226 523.863 309.558C539.535 321.899 548.25 335.582 548.25 349.5C548.25 363.375 539.577 377.036 523.993 389.367C508.422 401.687 486.056 412.59 458.94 420.947L458.275 421.152L458.43 421.83C464.772 449.57 466.552 474.44 463.7 494.113C460.844 513.803 453.373 528.152 441.345 535.089C435.692 538.345 429.164 539.899 421.911 539.899C410.026 539.899 396.236 535.702 381.409 527.778C366.59 519.858 350.778 508.238 334.861 493.452L334.349 492.977L333.839 493.454C317.922 508.327 302.109 520.035 287.29 528.02C272.463 536.01 258.674 540.25 246.79 540.25C239.536 540.25 233.011 538.695 227.448 535.442L227.443 535.439C215.372 528.502 207.857 514.131 204.958 494.397C202.061 474.68 203.798 449.744 210.096 421.916L210.25 421.238L209.584 421.034C182.293 412.677 159.795 401.774 144.137 389.442C128.465 377.101 119.75 363.418 119.75 349.5C119.75 335.625 128.422 321.986 144.028 309.667C159.621 297.357 182.032 286.454 209.236 278.053L209.9 277.848L209.745 277.17C203.404 249.43 201.623 224.56 204.476 204.887C207.331 185.197 214.803 170.848 226.831 163.911C232.483 160.655 239.011 159.101 246.265 159.101H247.015V159.019C258.728 159.191 272.25 163.377 286.766 171.134C301.585 179.054 317.398 190.674 333.314 205.46L333.826 205.936L334.337 205.458C350.253 190.585 366.066 178.9 380.885 170.936C395.712 162.969 409.501 158.75 421.385 158.75C428.549 158.75 434.988 160.303 440.552 163.558L440.557 163.561C452.628 170.498 460.143 184.869 463.042 204.603C465.939 224.32 464.202 249.256 457.904 277.084ZM421.297 176.716L421.294 176.716C412 176.76 400.609 180.463 388.011 187.441C375.401 194.426 361.526 204.725 347.249 218.041L346.693 218.559L347.219 219.108C359.552 231.971 371.802 246.676 383.616 262.873L383.812 263.141L384.143 263.176C403.833 265.278 422.556 268.516 439.7 272.717L440.448 272.9L440.611 272.148C442.543 263.277 444.126 254.571 445.094 246.296C447.115 229.497 446.835 214.53 444.537 202.88C442.248 191.277 437.918 182.772 431.662 179.183L431.656 179.179L431.65 179.176C428.813 177.619 425.444 176.716 421.297 176.716ZM268.856 415.654L270.492 415.896L269.596 414.505C265.307 407.85 261.105 401.02 256.991 394.014C252.881 387.015 249.119 380.014 245.53 373.008L244.77 371.525L244.164 373.077C239.599 384.756 235.559 396.441 232.309 407.778L232.094 408.528L232.852 408.713C244.359 411.525 256.39 413.809 268.856 415.654ZM232.594 290.286L231.825 290.467L232.047 291.226C235.384 302.647 239.424 314.42 244.167 326.193L244.781 327.718L245.53 326.255C249.119 319.249 252.882 312.245 256.907 305.243L256.909 305.24C260.931 298.153 265.218 291.238 269.511 284.491L270.39 283.108L268.769 283.346C256.212 285.191 244.096 287.563 232.594 290.286ZM254.436 349.448L254.29 349.766L254.438 350.082C259.968 361.849 266.026 373.531 272.699 385.037L272.699 385.038C279.546 396.805 286.656 407.958 293.943 418.409L294.145 418.7L294.498 418.728C307.487 419.782 320.742 420.397 334 420.397C347.345 420.397 360.602 419.782 373.682 418.64L374.031 418.61L374.232 418.322C381.522 407.866 388.545 396.624 395.389 384.773L395.391 384.77C401.975 373.265 408.032 361.497 413.562 349.731L413.712 349.412L413.562 349.093C408.032 337.326 401.974 325.645 395.301 314.138L395.301 314.137C388.454 302.371 381.344 291.218 374.057 280.766L373.855 280.476L373.502 280.447C360.513 279.394 347.258 278.779 334 278.779C320.655 278.779 307.398 279.394 294.318 280.535L293.969 280.566L293.768 280.854C286.479 291.309 279.455 302.551 272.611 314.402L272.609 314.405C266.026 325.908 259.881 337.677 254.436 349.448ZM411.006 393.757L411.004 393.76C406.981 400.847 402.694 407.762 398.402 414.509L397.522 415.892L399.144 415.654C411.7 413.809 423.818 411.437 435.324 408.626L436.085 408.439L435.865 407.687C432.528 396.265 428.488 384.492 423.746 372.719L423.132 371.195L422.383 372.657C418.792 379.666 415.029 386.756 411.006 393.757ZM410.918 304.98L410.922 304.986C415.032 311.985 418.793 318.986 422.383 325.992L423.142 327.475L423.749 325.923C428.313 314.244 432.353 302.559 435.604 291.222L435.819 290.472L435.061 290.287C423.553 287.475 411.522 285.191 399.057 283.346L397.421 283.104L398.317 284.495C402.609 291.154 406.895 297.981 410.918 304.98ZM358.07 261.251L359.703 261.323L358.693 260.038C350.615 249.761 342.447 240.359 334.276 231.921L333.734 231.362L333.195 231.924C325.114 240.36 316.945 249.763 309.039 260.044L308.043 261.34L309.675 261.25C317.634 260.813 325.771 260.638 334 260.638C342.136 260.638 350.187 260.9 358.07 261.251ZM245.515 177.066V177.162C241.724 177.245 238.42 177.969 235.803 179.539C229.596 183.174 225.313 191.699 223.068 203.31C220.814 214.972 220.578 229.939 222.644 246.739L222.645 246.744C223.699 254.922 225.194 263.451 227.215 272.244L227.387 272.989L228.128 272.803C245.269 268.516 263.991 265.278 283.769 263.176L284.103 263.141L284.299 262.868C295.936 246.676 308.184 232.059 320.432 219.194L320.957 218.642L320.398 218.126C306.078 204.899 292.159 194.644 279.527 187.692C266.909 180.748 255.516 177.066 246.265 177.066H245.515ZM213.874 403.527L214.607 403.757L214.819 403.018C219.717 385.956 226.191 368.188 234.242 349.979L234.376 349.674L234.241 349.371C226.102 331.073 219.541 313.218 214.555 296.067L214.34 295.327L213.606 295.562C205.094 298.284 196.83 301.185 189.261 304.443C173.699 311.04 160.852 318.727 151.88 326.52C142.945 334.281 137.708 342.276 137.708 349.5C137.708 356.725 142.945 364.698 151.88 372.448C160.852 380.229 173.7 387.917 189.262 394.557L189.263 394.558C196.914 397.813 205.177 400.803 213.874 403.527ZM246.599 522.284L246.607 522.284H246.615C255.911 522.284 267.304 518.581 279.912 511.592C292.533 504.596 306.43 494.275 320.75 480.96L321.308 480.442L320.781 479.892C308.448 467.029 296.198 452.324 284.384 436.127L284.188 435.859L283.857 435.824C264.167 433.722 245.444 430.484 228.3 426.283L227.552 426.1L227.389 426.852C225.457 435.723 223.875 444.429 222.907 452.703C220.885 469.503 221.165 484.469 223.463 496.12C225.752 507.723 230.082 516.228 236.338 519.817L236.341 519.819C239.107 521.388 242.569 522.195 246.599 522.284ZM333.637 467.079L334.178 467.638L334.717 467.076C342.798 458.64 350.967 449.237 358.873 438.956L359.869 437.66L358.237 437.75C350.278 438.187 342.141 438.362 333.912 438.362C325.777 438.362 317.725 438.1 309.843 437.749L308.209 437.677L309.22 438.962C317.297 449.239 325.466 458.641 333.637 467.079ZM421.735 521.846C425.841 521.846 429.408 521.134 432.196 519.462C438.403 515.827 442.687 507.302 444.932 495.69C447.185 484.029 447.422 469.064 445.356 452.264C444.388 444.076 442.805 435.544 440.785 426.67L440.615 425.923L439.872 426.109C422.731 430.396 404.009 433.635 384.231 435.736L383.897 435.771L383.701 436.044C372.064 452.237 359.816 466.853 347.568 479.718L347.043 480.27L347.602 480.787C361.922 494.014 375.841 504.268 388.473 511.22C401.091 518.165 412.484 521.846 421.735 521.846ZM453.357 402.933L453.572 403.673L454.306 403.438C462.818 400.717 471.082 397.815 478.65 394.557C494.213 387.96 507.06 380.273 516.043 372.481C524.989 364.719 530.246 356.726 530.292 349.505V349.5C530.292 342.275 525.055 334.302 516.12 326.552C507.148 318.771 494.3 311.083 478.738 304.443L478.734 304.441C470.997 301.186 462.736 298.197 454.039 295.473L453.306 295.243L453.094 295.982C448.196 313.044 441.722 330.812 433.671 349.021L433.536 349.326L433.671 349.629C441.81 367.927 448.372 385.782 453.357 402.933Z" fill="#F2F2F2" stroke="black" stroke-width="1.5"/>
<path d="M549 335.5C549 307.003 513.327 279.997 458.635 263.249C471.256 207.483 465.647 163.115 440.93 148.91C435.233 145.578 428.66 144 421.385 144C397.282 144 365.729 161.098 333.825 190.91C301.921 161.274 270.368 144.263 246.265 144.263V144.351C238.902 144.351 232.241 145.929 226.456 149.261C201.827 163.466 196.305 207.746 209.014 263.337C154.497 280.172 119 307.091 119 335.5C119 363.997 154.673 391.003 209.365 407.751C196.744 463.517 202.353 507.885 227.07 522.09C232.767 525.422 239.428 527 246.79 527C270.894 527 302.447 509.814 334.351 480.002C366.254 509.639 397.808 526.649 421.911 526.649C429.273 526.649 435.934 525.071 441.719 521.739C466.348 507.534 471.87 463.254 459.161 407.663C513.503 390.916 549 363.909 549 335.5ZM421.297 163.466C425.329 163.466 428.572 164.342 431.289 165.833C443.209 172.672 448.38 198.714 444.349 232.209C443.384 240.451 441.807 249.132 439.879 257.988C422.7 253.779 403.943 250.535 384.222 248.431C372.39 232.209 360.119 217.478 347.761 204.589C376.246 178.021 403.066 163.553 421.297 163.466ZM256.344 380.394C260.464 387.408 264.671 394.248 268.965 400.912C256.519 399.07 244.512 396.791 233.03 393.985C236.273 382.674 240.305 371.012 244.862 359.35C248.456 366.364 252.225 373.379 256.344 380.394ZM232.767 277.015C244.249 274.297 256.344 271.93 268.878 270.088C264.583 276.84 260.288 283.767 256.256 290.869C252.225 297.884 248.456 304.899 244.862 311.913C240.129 300.164 236.097 288.414 232.767 277.015ZM255.117 335.763C260.551 324.014 266.687 312.264 273.26 300.777C280.097 288.94 287.108 277.717 294.383 267.283C307.443 266.143 320.678 265.529 334 265.529C347.235 265.529 360.47 266.143 373.441 267.195C380.716 277.629 387.816 288.765 394.652 300.514C401.314 312.001 407.361 323.663 412.883 335.412C407.361 347.162 401.314 358.911 394.74 370.398C387.903 382.235 380.892 393.459 373.617 403.893C360.557 405.033 347.322 405.647 334 405.647C320.765 405.647 307.53 405.033 294.559 403.981C287.284 393.546 280.184 382.41 273.348 370.661C266.687 359.174 260.639 347.513 255.117 335.763ZM411.656 380.131C415.688 373.116 419.457 366.014 423.05 358.999C427.783 370.749 431.815 382.498 435.146 393.897C423.664 396.703 411.568 399.07 399.035 400.912C403.329 394.16 407.624 387.233 411.656 380.131ZM411.568 290.606C407.536 283.592 403.242 276.752 398.947 270.088C411.393 271.93 423.401 274.209 434.883 277.015C431.64 288.326 427.608 299.988 423.05 311.65C419.457 304.636 415.688 297.621 411.568 290.606ZM358.103 246.502C350.215 246.151 342.151 245.888 334 245.888C325.761 245.888 317.61 246.063 309.634 246.502C317.522 236.243 325.673 226.861 333.737 218.443C341.888 226.861 350.04 236.243 358.103 246.502ZM236.185 166.184C238.815 164.606 242.233 163.904 246.265 163.904V163.816C264.408 163.816 291.316 178.284 319.889 204.677C307.618 217.566 295.347 232.209 283.69 248.431C263.882 250.535 245.125 253.779 227.946 258.076C225.93 249.307 224.44 240.802 223.389 232.648C219.269 199.153 224.353 173.111 236.185 166.184ZM214.098 388.811C205.421 386.093 197.182 383.112 189.556 379.868C158.529 366.628 138.458 349.266 138.458 335.5C138.458 321.734 158.529 304.285 189.556 291.132C197.094 287.888 205.333 284.995 213.835 282.276C218.831 299.462 225.404 317.35 233.556 335.675C225.492 353.913 219.006 371.713 214.098 388.811ZM246.615 507.534C242.671 507.447 239.34 506.658 236.711 505.167C224.791 498.328 219.62 472.286 223.651 438.791C224.616 430.549 226.193 421.868 228.121 413.012C245.3 417.221 264.057 420.465 283.778 422.569C295.61 438.791 307.881 453.522 320.239 466.411C291.666 492.979 264.846 507.534 246.615 507.534ZM334.175 452.557C326.024 444.139 317.873 434.757 309.809 424.498C317.698 424.849 325.761 425.112 333.912 425.112C342.151 425.112 350.302 424.937 358.278 424.498C350.39 434.757 342.239 444.139 334.175 452.557ZM431.815 504.816C429.185 506.394 425.767 507.096 421.735 507.096C403.592 507.096 376.684 492.628 348.111 466.236C360.382 453.346 372.653 438.703 384.31 422.482C404.118 420.377 422.875 417.133 440.054 412.837C442.07 421.693 443.647 430.198 444.611 438.352C448.731 471.847 443.647 497.889 431.815 504.816ZM478.356 379.868C470.818 383.112 462.579 386.006 454.077 388.724C449.082 371.538 442.508 353.65 434.357 335.325C442.42 317.087 448.906 299.287 453.815 282.189C462.492 284.907 470.731 287.888 478.444 291.132C509.471 304.372 529.542 321.734 529.542 335.5C529.455 349.266 509.383 366.715 478.356 379.868Z" fill="#9595EF"/>
<circle cx="334" cy="335" r="44" fill="black"/>
<circle cx="334" cy="342" r="43.25" stroke="black" stroke-width="1.5"/>
<path d="M66.25 210.5C66.25 219.22 59.4008 226.25 51 226.25C42.5992 226.25 35.75 219.22 35.75 210.5C35.75 201.78 42.5992 194.75 51 194.75C59.4008 194.75 66.25 201.78 66.25 210.5Z" fill="#F2F2F2" stroke="black" stroke-width="1.5"/>
<path d="M62.25 211.5C62.25 220.22 55.4008 227.25 47 227.25C38.5992 227.25 31.75 220.22 31.75 211.5C31.75 202.78 38.5992 195.75 47 195.75C55.4008 195.75 62.25 202.78 62.25 211.5Z" fill="white" stroke="black" stroke-width="1.5"/>
<path d="M621.25 452.5C621.25 461.22 614.401 468.25 606 468.25C597.599 468.25 590.75 461.22 590.75 452.5C590.75 443.78 597.599 436.75 606 436.75C614.401 436.75 621.25 443.78 621.25 452.5Z" fill="#F2F2F2" stroke="black" stroke-width="1.5"/>
<path d="M624.25 454.5C624.25 463.22 617.401 470.25 609 470.25C600.599 470.25 593.75 463.22 593.75 454.5C593.75 445.78 600.599 438.75 609 438.75C617.401 438.75 624.25 445.78 624.25 454.5Z" fill="white" stroke="black" stroke-width="1.5"/>
</svg>
