<svg width="541" height="542" viewBox="0 0 541 542" fill="none" xmlns="http://www.w3.org/2000/svg">
<path fill-rule="evenodd" clip-rule="evenodd" d="M347.058 417.223C266.937 431.958 166.013 367.468 146.348 293.219C123.485 206.926 174.891 135.338 261.674 122.31C340.582 110.464 438.101 170.468 458.603 253.085C480.334 340.641 434.295 401.18 347.058 417.223Z" stroke="#BDBDBD" stroke-linejoin="round"/>
<path opacity="0.5" fill-rule="evenodd" clip-rule="evenodd" d="M348.973 478.504C242.176 498.146 107.649 412.184 81.436 313.212C50.9615 198.189 119.483 102.765 235.161 85.4003C340.34 69.6093 470.329 149.592 497.656 259.716C526.624 376.424 465.255 457.12 348.973 478.504Z" stroke="#BDBDBD" stroke-linejoin="round"/>
<path opacity="0.3" fill-rule="evenodd" clip-rule="evenodd" d="M345.401 529.412C219.451 552.576 60.8 451.198 29.8857 334.478C-6.05385 198.827 74.7553 86.2911 211.178 65.8121C335.22 47.1893 488.52 141.516 520.748 271.388C554.91 409.026 482.536 504.193 345.401 529.412Z" stroke="#BDBDBD" stroke-linejoin="round"/>
<path fill-rule="evenodd" clip-rule="evenodd" d="M307.156 286.066L288.711 284.73C278.655 283.919 271.993 281.522 267.251 279.711C266.958 279.599 266.613 277.762 266.396 278.037C265.644 278.987 265.153 280.561 264.959 282.978L259.941 345.206C258.877 358.407 268.777 370.076 281.942 371.138L299.466 372.551C312.632 373.612 324.274 363.68 325.338 350.479L326.845 331.785L327.843 319.407L330.355 288.251C330.466 286.879 330.932 286.572 330.61 285.714C330.441 285.264 328.138 285.973 326.867 286.061C320.722 286.484 316.207 286.795 307.156 286.066Z" fill="#9595EF"/>
<path fill-rule="evenodd" clip-rule="evenodd" d="M307.156 286.066L288.711 284.73C278.655 283.919 271.993 281.522 267.251 279.711C266.958 279.599 266.613 277.762 266.396 278.037C265.644 278.987 265.153 280.561 264.959 282.978L259.941 345.206C258.877 358.407 268.777 370.076 281.942 371.138L299.466 372.551C312.632 373.612 324.274 363.68 325.338 350.479L326.845 331.785L327.843 319.407L330.355 288.251C330.466 286.879 330.932 286.572 330.61 285.714C330.441 285.264 328.138 285.973 326.867 286.061C320.722 286.484 316.207 286.795 307.156 286.066Z" stroke="black" stroke-width="1.5" stroke-linejoin="round"/>
<path fill-rule="evenodd" clip-rule="evenodd" d="M260.457 301.754L159.867 173.196C153.851 165.521 175.41 174.389 185.125 175.232L441.734 197.493C447.177 197.964 457.324 190.578 453.248 194.214L334.005 307.684C312.149 326.274 279.053 323.605 260.457 301.754Z" fill="#9595EF"/>
<path fill-rule="evenodd" clip-rule="evenodd" d="M260.457 301.754L159.867 173.196C153.851 165.521 175.41 174.389 185.125 175.232L441.734 197.493C447.177 197.964 457.324 190.578 453.248 194.214L334.005 307.684C312.149 326.274 279.053 323.605 260.457 301.754Z" stroke="black" stroke-width="1.5" stroke-linejoin="round"/>
<path fill-rule="evenodd" clip-rule="evenodd" d="M469.099 158.142C464.927 209.884 389.543 246.024 300.727 238.863C211.909 231.702 143.291 183.951 147.463 132.208C151.635 80.4659 227.017 44.3256 315.835 51.4869C404.651 58.6481 473.271 106.399 469.099 158.142Z" fill="white"/>
<path fill-rule="evenodd" clip-rule="evenodd" d="M469.099 158.142C464.927 209.884 389.543 246.024 300.727 238.863C211.909 231.702 143.291 183.951 147.463 132.208C151.635 80.4659 227.017 44.3256 315.835 51.4869C404.651 58.6481 473.271 106.399 469.099 158.142Z" stroke="black" stroke-width="1.5" stroke-linejoin="round"/>
<path fill-rule="evenodd" clip-rule="evenodd" d="M449.897 156.593C446.617 197.28 380.553 225.15 302.341 218.844C224.128 212.538 163.385 174.443 166.665 133.757C169.946 93.0702 236.008 65.1994 314.221 71.5057C392.433 77.8118 453.178 115.907 449.897 156.593Z" fill="white"/>
<path fill-rule="evenodd" clip-rule="evenodd" d="M449.897 156.593C446.617 197.28 380.553 225.15 302.341 218.844C224.128 212.538 163.385 174.443 166.665 133.757C169.946 93.0702 236.008 65.1994 314.221 71.5057C392.433 77.8118 453.178 115.907 449.897 156.593Z" stroke="black" stroke-width="1.5" stroke-linejoin="round"/>
<path fill-rule="evenodd" clip-rule="evenodd" d="M201.489 112.888C201.155 117.112 202.675 119.826 205.362 121.603C208.048 123.379 209.859 122.849 210.206 118.53C211.075 107.689 211.942 96.8487 212.811 86.0075C213.158 81.6885 211.584 79.115 208.857 77.6817C206.13 76.2484 204.334 76.9955 203.999 81.2187C203.163 91.7751 202.325 102.331 201.489 112.888ZM196.187 77.3049C196.63 69.8575 202.236 64.8835 209.547 69.0076C217.028 73.227 221.615 82.5092 220.816 91.3491C219.958 101.989 219.1 112.628 218.242 123.268C217.567 131.665 211.537 135.027 204.671 130.277C197.31 125.184 192.734 116.413 193.775 107.29C194.579 97.2953 195.383 87.3005 196.187 77.3049Z" fill="white"/>
<path fill-rule="evenodd" clip-rule="evenodd" d="M201.489 112.888C201.155 117.112 202.675 119.826 205.362 121.603C208.048 123.379 209.859 122.849 210.206 118.53C211.075 107.689 211.942 96.8486 212.811 86.0075C213.158 81.6885 211.584 79.115 208.857 77.6816C206.13 76.2484 204.334 76.9955 203.999 81.2187C203.163 91.775 202.325 102.331 201.489 112.888Z" stroke="black" stroke-width="1.5" stroke-linejoin="round"/>
<path fill-rule="evenodd" clip-rule="evenodd" d="M196.187 77.3049C196.63 69.8575 202.236 64.8835 209.547 69.0076C217.028 73.227 221.615 82.5092 220.816 91.3491C219.958 101.989 219.1 112.628 218.242 123.268C217.567 131.665 211.537 135.027 204.671 130.277C197.31 125.184 192.734 116.413 193.775 107.29C194.579 97.2953 195.383 87.3005 196.187 77.3049Z" stroke="black" stroke-width="1.5" stroke-linejoin="round"/>
<path fill-rule="evenodd" clip-rule="evenodd" d="M198.91 131.397L187.671 122.925L191.731 72.568L202.497 67.7129C202.497 67.7129 205.466 66.8647 208.314 68.6008C211.163 70.3369 216.568 74.1535 218.872 83.6504C219.677 86.9657 218.811 95.3479 218.24 103.282C217.511 113.419 215.569 123.094 215.569 123.094C215.569 123.094 216.715 126.098 213.537 130.751L203.8 135.945" fill="white"/>
<path d="M215.252 130.421C213.852 131.849 204.334 135.988 204.334 135.988" stroke="black" stroke-width="1.5" stroke-linecap="round" stroke-linejoin="round"/>
<path d="M198.902 131.52L187.662 123.033L191.73 72.5796L202.498 67.7138C202.498 67.7138 205.468 66.8635 208.317 68.6025C211.165 70.3416 218.069 74.9149 220.374 84.4297" stroke="black" stroke-width="1.5" stroke-linecap="round" stroke-linejoin="round"/>
<path fill-rule="evenodd" clip-rule="evenodd" d="M191.437 117.719C191.102 121.943 192.622 124.657 195.309 126.434C197.996 128.21 199.807 127.68 200.153 123.361C201.022 112.52 201.89 101.679 202.758 90.8391C203.105 86.5192 201.531 83.9457 198.805 82.5125C196.078 81.0791 194.281 81.8262 193.946 86.0494C193.11 96.6058 192.273 107.162 191.437 117.719ZM186.135 82.1357C186.578 74.6882 192.183 69.715 199.494 73.8383C206.975 78.0577 211.562 87.34 210.764 96.18C209.906 106.82 209.048 117.459 208.189 128.099C207.514 136.496 201.485 139.858 194.618 135.108C187.257 130.016 182.682 121.244 183.723 112.121L186.135 82.1357Z" fill="#9595EF"/>
<path fill-rule="evenodd" clip-rule="evenodd" d="M191.437 117.719C191.102 121.943 192.622 124.657 195.309 126.434C197.996 128.21 199.807 127.68 200.153 123.361C201.022 112.52 201.89 101.68 202.758 90.8392C203.105 86.5193 201.531 83.9458 198.805 82.5125C196.078 81.0792 194.281 81.8263 193.946 86.0495C193.11 96.6059 192.273 107.162 191.437 117.719Z" stroke="black" stroke-width="1.5" stroke-linecap="round" stroke-linejoin="round"/>
<path fill-rule="evenodd" clip-rule="evenodd" d="M186.135 82.1358C186.578 74.6884 192.183 69.7152 199.494 73.8384C206.975 78.0578 211.562 87.3401 210.764 96.1801C209.906 106.82 209.048 117.46 208.189 128.099C207.514 136.496 201.485 139.858 194.618 135.108C187.257 130.016 182.682 121.244 183.723 112.121L186.135 82.1358Z" stroke="black" stroke-width="1.5" stroke-linecap="round" stroke-linejoin="round"/>
<path fill-rule="evenodd" clip-rule="evenodd" d="M323.346 118.954C324.37 114.852 322.907 113.576 319.872 114.068C316.835 114.558 314.528 116.493 313.483 120.689C310.861 131.22 308.239 141.751 305.616 152.281C304.57 156.477 306.117 157.552 309.224 156.723C312.33 155.895 314.633 153.81 315.659 149.708C318.22 139.457 320.784 129.206 323.346 118.954ZM324.739 146.86C322.825 155.82 315.706 162.667 307.121 165.148C299.113 167.464 294.474 162.371 296.502 154.214C299.071 143.877 301.64 133.54 304.208 123.203C306.261 114.587 313.553 107.261 321.975 105.643C330.205 104.061 333.93 110.544 331.984 117.729C329.569 127.44 327.155 137.151 324.739 146.86Z" fill="white"/>
<path fill-rule="evenodd" clip-rule="evenodd" d="M323.345 118.954C324.37 114.852 322.907 113.576 319.872 114.068C316.835 114.558 314.528 116.494 313.483 120.69C310.86 131.22 308.239 141.751 305.616 152.281C304.57 156.477 306.117 157.552 309.224 156.724C312.33 155.895 314.633 153.81 315.659 149.708C318.22 139.457 320.784 129.206 323.345 118.954Z" stroke="black" stroke-width="1.5" stroke-linejoin="round"/>
<path fill-rule="evenodd" clip-rule="evenodd" d="M324.739 146.86C322.825 155.82 315.706 162.667 307.121 165.148C299.113 167.464 294.474 162.371 296.502 154.214C299.071 143.877 301.64 133.54 304.208 123.203C306.261 114.587 313.553 107.261 321.975 105.643C330.205 104.061 333.93 110.544 331.984 117.729C329.569 127.44 327.155 137.151 324.739 146.86Z" stroke="black" stroke-width="1.5" stroke-linejoin="round"/>
<path fill-rule="evenodd" clip-rule="evenodd" d="M311.775 168.004L325.134 163.551L337.321 114.601L328.657 106.591C328.657 106.591 326.111 104.845 322.858 105.585C319.604 106.325 313.261 108.223 308.051 116.48C306.232 119.363 304.384 127.57 302.398 135.261C299.862 145.086 298.622 154.86 298.622 154.86C298.622 154.86 296.577 157.34 298.109 162.751L305.69 170.757" fill="white"/>
<path d="M297.26 162.017C298.179 163.815 306.215 170.799 306.215 170.799" stroke="black" stroke-width="1.5" stroke-linecap="round" stroke-linejoin="round"/>
<path d="M312.093 167.598L325.34 163.134L338.059 115.525L328.873 106.157C328.873 106.157 326.351 104.413 323.125 105.155C319.898 105.897 312.698 107.573 307.527 115.837" stroke="black" stroke-width="1.5" stroke-linecap="round" stroke-linejoin="round"/>
<path fill-rule="evenodd" clip-rule="evenodd" d="M331.565 126.87C332.59 122.768 331.127 121.492 328.091 121.984C325.055 122.475 322.748 124.41 321.702 128.606C319.08 139.136 316.458 149.667 313.835 160.196C312.79 164.393 314.337 165.469 317.444 164.64C320.551 163.812 322.852 161.726 323.879 157.624C326.441 147.373 329.003 137.122 331.565 126.87ZM332.959 154.777C331.045 163.737 323.926 170.583 315.341 173.065C307.333 175.38 302.693 170.287 304.722 162.131C307.291 151.794 309.859 141.457 312.428 131.12C314.481 122.503 321.773 115.178 330.194 113.559C338.425 111.977 342.15 118.46 340.204 125.647C337.789 135.356 335.374 145.067 332.959 154.777Z" fill="#9595EF"/>
<path fill-rule="evenodd" clip-rule="evenodd" d="M331.566 126.871C332.591 122.769 331.128 121.493 328.092 121.984C325.055 122.475 322.749 124.41 321.703 128.606C319.08 139.136 316.458 149.667 313.836 160.197C312.791 164.393 314.337 165.469 317.445 164.64C320.551 163.812 322.853 161.726 323.879 157.624C326.441 147.373 329.004 137.122 331.566 126.871Z" stroke="black" stroke-width="1.291" stroke-linecap="round" stroke-linejoin="round"/>
<path fill-rule="evenodd" clip-rule="evenodd" d="M332.959 154.777C331.045 163.737 323.926 170.583 315.341 173.065C307.333 175.38 302.693 170.287 304.722 162.131C307.291 151.794 309.859 141.457 312.428 131.12C314.481 122.503 321.773 115.178 330.194 113.559C338.425 111.977 342.15 118.46 340.204 125.647C337.789 135.356 335.374 145.067 332.959 154.777Z" stroke="black" stroke-width="1.291" stroke-linecap="round" stroke-linejoin="round"/>
<path fill-rule="evenodd" clip-rule="evenodd" d="M291.368 140.016C289.662 161.168 287.958 182.321 286.252 203.474C286.195 204.186 285.68 204.448 285.065 204.032C282.369 202.209 280.741 201.095 277.591 198.94C276.872 198.449 276.337 197.475 276.397 196.765C277.725 180.862 279.053 164.96 280.382 149.057C280.441 148.348 279.912 147.377 279.202 146.893C277.033 145.412 275.941 144.666 273.922 143.288C273.263 142.839 272.795 141.91 272.852 141.2C273.008 139.274 273.087 138.311 273.243 136.385C273.299 135.695 273.836 135.472 274.48 135.872C280.575 139.655 283.038 137.919 284.781 135.049" fill="white"/>
<path d="M291.368 140.016C289.662 161.168 287.958 182.321 286.252 203.474C286.195 204.186 285.68 204.448 285.065 204.032C282.369 202.209 280.741 201.095 277.591 198.94C276.872 198.449 276.337 197.475 276.397 196.765C277.725 180.862 279.053 164.96 280.382 149.057C280.441 148.348 279.912 147.377 279.202 146.893C277.033 145.412 275.941 144.666 273.922 143.288C273.263 142.839 272.795 141.91 272.852 141.2C273.008 139.274 273.087 138.311 273.243 136.385C273.299 135.695 273.836 135.472 274.48 135.872C280.575 139.655 283.038 137.919 284.781 135.049" stroke="black" stroke-width="1.5" stroke-linejoin="round"/>
<path fill-rule="evenodd" clip-rule="evenodd" d="M279.913 207.365L286.462 204.349L291.867 139.016L285.415 141.59L279.913 207.365Z" fill="white"/>
<path fill-rule="evenodd" clip-rule="evenodd" d="M279.913 207.365L286.462 204.349L291.867 139.016L285.415 141.59L279.913 207.365Z" stroke="black" stroke-width="1.5" stroke-linecap="round" stroke-linejoin="round"/>
<path fill-rule="evenodd" clip-rule="evenodd" d="M291.245 139.528L285.332 142.187L279.133 138.235C279.133 138.235 276.722 142.359 273.761 141.531C270.801 140.701 267.485 138.724 267.485 138.724L273.503 135.681C273.503 135.681 275.757 136.821 277.269 137.438C278.781 138.056 280.715 138.584 282.679 137.309C284.645 136.034 284.998 135.326 284.998 135.326" fill="white"/>
<path d="M291.245 139.528L285.332 142.187L279.133 138.235C279.133 138.235 276.722 142.359 273.761 141.531C270.801 140.701 267.485 138.724 267.485 138.724L273.503 135.681C273.503 135.681 275.757 136.821 277.269 137.438C278.781 138.056 280.715 138.584 282.679 137.309C284.645 136.034 284.998 135.326 284.998 135.326" stroke="black" stroke-width="1.5" stroke-linecap="round" stroke-linejoin="round"/>
<path fill-rule="evenodd" clip-rule="evenodd" d="M279.937 137.16L284.885 134.589C285.229 134.408 285.641 134.429 285.965 134.643L291.789 138.499C291.943 138.622 291.916 138.87 291.741 138.958L285.72 141.744L279.937 137.16Z" fill="white"/>
<path fill-rule="evenodd" clip-rule="evenodd" d="M279.937 137.16L284.885 134.589C285.229 134.408 285.641 134.429 285.965 134.643L291.789 138.499C291.943 138.622 291.916 138.87 291.741 138.958L285.72 141.744L279.937 137.16Z" stroke="black" stroke-width="1.5" stroke-linejoin="round"/>
<path fill-rule="evenodd" clip-rule="evenodd" d="M268.167 138.28C274.296 142.059 276.773 140.327 278.522 137.465C278.749 137.094 279.246 137.085 279.762 137.433C281.615 138.687 282.519 139.298 284.171 140.41C284.782 140.823 285.207 141.715 285.149 142.426C283.447 163.537 281.745 184.649 280.043 205.761C279.985 206.471 279.469 206.733 278.85 206.317C276.138 204.497 274.5 203.383 271.332 201.231C270.609 200.74 270.071 199.767 270.131 199.059C271.455 183.187 272.782 167.315 274.108 151.444C274.167 150.734 273.634 149.767 272.921 149.283C270.739 147.803 269.641 147.057 267.611 145.682C266.947 145.232 266.476 144.306 266.533 143.595C266.689 141.674 266.768 140.713 266.923 138.791C266.979 138.102 267.518 137.88 268.167 138.28Z" fill="#9595EF"/>
<path fill-rule="evenodd" clip-rule="evenodd" d="M268.167 138.28C274.296 142.059 276.773 140.327 278.522 137.465C278.749 137.094 279.246 137.085 279.762 137.433C281.615 138.687 282.519 139.298 284.171 140.41C284.782 140.823 285.207 141.715 285.149 142.426C283.447 163.537 281.745 184.649 280.043 205.761C279.985 206.471 279.469 206.733 278.85 206.317C276.138 204.497 274.5 203.383 271.332 201.231C270.609 200.74 270.071 199.767 270.131 199.059C271.455 183.187 272.782 167.315 274.108 151.444C274.167 150.734 273.634 149.767 272.921 149.283C270.739 147.803 269.641 147.057 267.611 145.682C266.947 145.232 266.476 144.306 266.533 143.595C266.689 141.674 266.768 140.713 266.923 138.791C266.979 138.102 267.518 137.88 268.167 138.28Z" stroke="black" stroke-width="1.5" stroke-linecap="round" stroke-linejoin="round"/>
<path fill-rule="evenodd" clip-rule="evenodd" d="M388.871 144.419L382.155 142.045L370.098 77.6229L376.674 79.5685L388.871 144.419Z" fill="white"/>
<path fill-rule="evenodd" clip-rule="evenodd" d="M388.871 144.419L382.155 142.045L370.098 77.6229L376.674 79.5685L388.871 144.419Z" stroke="black" stroke-width="1.5" stroke-linecap="round" stroke-linejoin="round"/>
<path fill-rule="evenodd" clip-rule="evenodd" d="M370.128 77.0823L375.984 79.8342L382.255 76.1007C382.255 76.1007 384.586 80.2092 387.559 79.4656C390.533 78.721 393.885 76.8581 393.885 76.8581L387.93 73.7263C387.93 73.7263 385.656 74.7926 384.132 75.3627C382.61 75.9329 380.668 76.4063 378.729 75.1069C376.789 73.8084 376.449 73.1042 376.449 73.1042" fill="white"/>
<path d="M370.186 77.0908L376.043 79.8426L381.899 76.7411C381.484 77.3731 384.274 80.1794 387.247 79.4357C390.221 78.6911 393.144 77.8467 393.144 77.8467L387.264 74.0792C387.264 74.0792 385.714 74.801 384.191 75.3711C382.669 75.9413 380.727 76.4147 378.787 75.1153C376.848 73.8168 375.533 74.4155 375.711 73.8858" stroke="black" stroke-width="1.5" stroke-linecap="round" stroke-linejoin="round"/>
<path fill-rule="evenodd" clip-rule="evenodd" d="M381.619 74.561L376.573 72.5499C376.221 72.4081 375.822 72.473 375.526 72.7221L370.2 77.1844C370.06 77.3237 370.108 77.567 370.288 77.635L376.399 79.7429L381.619 74.561Z" fill="white"/>
<path fill-rule="evenodd" clip-rule="evenodd" d="M381.619 74.561L376.573 72.5499C376.221 72.4081 375.822 72.473 375.526 72.7221L370.2 77.1844C370.06 77.3237 370.108 77.567 370.288 77.635L376.399 79.7429L381.619 74.561Z" stroke="black" stroke-width="1.5" stroke-linejoin="round"/>
<path fill-rule="evenodd" clip-rule="evenodd" d="M394.018 75.3147C394.36 77.2216 394.532 78.1755 394.874 80.0824C395.001 80.7868 394.625 81.7625 394.013 82.2808C392.139 83.8655 391.125 84.7238 389.112 86.4283C388.453 86.9855 388.022 88.0085 388.149 88.712C391.017 104.458 393.885 120.203 396.752 135.95C396.881 136.653 396.443 137.681 395.777 138.247C392.853 140.725 391.342 142.007 388.836 144.108C388.265 144.586 387.728 144.378 387.602 143.673C383.848 122.722 380.094 101.771 376.341 80.8194C376.215 80.1151 376.547 79.1786 377.113 78.7029C378.637 77.4206 379.471 76.7171 381.182 75.2716C381.658 74.8707 382.15 74.8292 382.411 75.1773C384.423 77.8622 387.043 79.3396 392.737 74.9307C393.339 74.4643 393.894 74.6311 394.018 75.3147Z" fill="#9595EF"/>
<path fill-rule="evenodd" clip-rule="evenodd" d="M394.018 75.3147C394.36 77.2216 394.532 78.1755 394.874 80.0824C395.001 80.7868 394.625 81.7625 394.013 82.2808C392.139 83.8655 391.125 84.7238 389.112 86.4283C388.453 86.9855 388.022 88.0085 388.149 88.712C391.017 104.458 393.885 120.203 396.752 135.95C396.881 136.653 396.443 137.681 395.777 138.247C392.853 140.725 391.342 142.007 388.836 144.108C388.265 144.586 387.728 144.378 387.602 143.673C383.848 122.722 380.094 101.771 376.341 80.8194C376.215 80.1151 376.547 79.1786 377.113 78.7029C378.637 77.4206 379.471 76.7171 381.182 75.2716C381.658 74.8707 382.15 74.8292 382.411 75.1773C384.423 77.8622 387.043 79.3396 392.737 74.9307C393.339 74.4643 393.894 74.6311 394.018 75.3147Z" stroke="black" stroke-width="1.5" stroke-linecap="round" stroke-linejoin="round"/>
<path fill-rule="evenodd" clip-rule="evenodd" d="M256.467 69.636L263.81 72.8685L265.485 66.792L263.506 60.6967C260.249 50.6577 253.312 46.522 243.526 49.6098C241.503 50.2471 239.763 51.0658 238.301 52.0523C237.723 52.4426 237.199 52.8666 236.705 53.2983L232.36 58.0648L233.542 57.7701C232.159 61.1535 232.235 65.3051 233.782 70.0724L244.371 102.698C247.629 112.737 255.546 120.008 264.353 113.785C267.458 111.59 270.72 110.901 272.546 108.658C272.982 110.374 272.12 115.215 272.797 116.832C276.673 110.739 276.987 102.234 274.095 93.3222L267.637 73.4243L253.682 77.8263L250.894 84.9423L254.214 86.4419L255.967 84.8673L256.59 86.7895L261.121 85.36L264.873 96.9226C266.329 101.404 264.858 103.646 261.686 104.646C258.514 105.647 255.997 104.663 254.543 100.181L243.548 66.3005C242.093 61.8188 243.534 59.4869 246.705 58.4867C249.878 57.4866 252.423 58.5604 253.878 63.0421L255.691 68.6286L254.851 68.786L255.926 69.3522L256.061 69.7645L256.467 69.636Z" fill="#9595EF"/>
<path fill-rule="evenodd" clip-rule="evenodd" d="M256.467 69.6359L263.81 72.8685L265.485 66.792L263.506 60.6967C260.249 50.6577 253.312 46.522 243.526 49.6098C241.503 50.2471 239.763 51.0658 238.301 52.0523C237.723 52.4426 237.199 52.8666 236.705 53.2983L232.36 58.0648L233.542 57.7701C232.159 61.1535 232.235 65.3051 233.782 70.0724L244.371 102.698C247.629 112.737 255.546 120.008 264.353 113.785C267.458 111.59 270.72 110.901 272.546 108.658C272.982 110.374 272.12 115.215 272.797 116.832C276.673 110.739 276.987 102.234 274.095 93.3222L267.637 73.4243L253.682 77.8263L250.894 84.9423L254.214 86.4419L255.967 84.8673L256.59 86.7895L261.121 85.36L264.873 96.9226C266.329 101.404 264.858 103.646 261.686 104.646C258.514 105.647 255.997 104.663 254.543 100.181L243.548 66.3005C242.093 61.8188 243.534 59.4869 246.705 58.4867C249.878 57.4866 252.423 58.5604 253.878 63.0421L255.691 68.6286L254.851 68.786L255.926 69.3522L256.061 69.7645L256.467 69.6359Z" stroke="black" stroke-width="1.5" stroke-linecap="round" stroke-linejoin="round"/>
<path fill-rule="evenodd" clip-rule="evenodd" d="M250.495 85.1249L265.684 80.3028L272.702 102.068C276.243 113.049 272.742 121.076 262.091 124.458C251.439 127.84 243.893 123.319 240.353 112.338L228.846 76.652C225.305 65.6706 228.805 57.6426 239.457 54.2609C250.109 50.88 257.655 55.4002 261.196 66.3807L263.344 73.0483L253.087 76.3041L250.717 68.9513C249.136 64.0489 246.366 62.8755 242.915 63.9709C239.462 65.0671 237.893 67.6196 239.474 72.5212L251.422 109.58C253.003 114.482 255.742 115.558 259.194 114.462C262.646 113.366 264.246 110.912 262.666 106.01L258.588 93.3635L253.657 94.9289L250.495 85.1249Z" fill="white"/>
<path fill-rule="evenodd" clip-rule="evenodd" d="M250.495 85.1249L265.684 80.3028L272.702 102.068C276.243 113.049 272.742 121.076 262.091 124.458C251.439 127.84 243.893 123.319 240.353 112.338L228.846 76.652C225.305 65.6706 228.805 57.6426 239.457 54.2609C250.109 50.88 257.655 55.4002 261.196 66.3807L263.344 73.0483L253.087 76.3041L250.717 68.9513C249.136 64.0489 246.366 62.8755 242.915 63.9709C239.462 65.0671 237.893 67.6196 239.474 72.5212L251.422 109.58C253.003 114.482 255.742 115.558 259.194 114.462C262.646 113.366 264.246 110.912 262.666 106.01L258.588 93.3635L253.657 94.9289L250.495 85.1249Z" stroke="black" stroke-width="1.5" stroke-linecap="round" stroke-linejoin="round"/>
<path fill-rule="evenodd" clip-rule="evenodd" d="M441.419 145.615L444.493 152.964L449.831 149.634L452.56 143.818C457.051 134.239 454.883 126.502 445.754 122.14C443.867 121.238 442.059 120.66 440.339 120.395C439.658 120.29 438.994 120.246 438.344 120.229L431.979 120.787L433.029 121.371C429.734 122.919 426.963 126.019 424.83 130.569L410.23 161.703C405.738 171.283 406.475 181.987 417.036 183.382C420.76 183.874 423.571 185.577 426.41 185.166C425.556 186.723 421.641 189.694 421.028 191.34C427.956 189.49 433.972 183.457 437.959 174.953C437.96 174.953 446.864 155.964 446.864 155.964L433.844 149.743L427 153.083L428.363 156.432L430.693 156.463L429.834 158.296L434.061 160.316L428.886 171.35C426.881 175.627 424.299 176.278 421.34 174.864C418.381 173.451 417.242 171.022 419.248 166.746L434.409 134.413C436.415 130.136 439.037 129.4 441.996 130.814C444.955 132.228 446.053 134.742 444.047 139.019L441.547 144.349L440.837 143.896L441.224 145.04L441.039 145.433L441.419 145.615Z" fill="#9595EF"/>
<path fill-rule="evenodd" clip-rule="evenodd" d="M441.419 145.615L444.493 152.964L449.831 149.634L452.56 143.818C457.051 134.239 454.883 126.502 445.754 122.14C443.867 121.238 442.059 120.66 440.339 120.395C439.658 120.29 438.994 120.246 438.344 120.229L431.979 120.787L433.029 121.371C429.734 122.919 426.963 126.019 424.83 130.569L410.23 161.703C405.738 171.283 406.475 181.987 417.036 183.382C420.76 183.874 423.571 185.577 426.41 185.166C425.556 186.723 421.641 189.694 421.028 191.34C427.956 189.49 433.972 183.457 437.959 174.953C437.96 174.953 446.864 155.964 446.864 155.964L433.844 149.743L427 153.083L428.363 156.432L430.693 156.463L429.834 158.296L434.061 160.316L428.886 171.35C426.881 175.627 424.299 176.278 421.34 174.864C418.381 173.451 417.242 171.022 419.248 166.746L434.409 134.413C436.415 130.136 439.037 129.4 441.996 130.814C444.955 132.228 446.053 134.742 444.047 139.019L441.547 144.349L440.837 143.896L441.224 145.04L441.039 145.433L441.419 145.615Z" stroke="black" stroke-width="1.5" stroke-linecap="round" stroke-linejoin="round"/>
<path fill-rule="evenodd" clip-rule="evenodd" d="M426.851 152.827L441.127 159.64L431.367 180.429C426.442 190.916 418.437 194.432 408.425 189.654C398.413 184.876 396.036 176.406 400.96 165.919L416.965 131.833C421.889 121.344 429.893 117.829 439.906 122.607C449.917 127.385 452.294 135.855 447.37 146.343L444.381 152.71L434.74 148.109L438.037 141.087C440.235 136.404 439.031 133.652 435.787 132.103C432.542 130.556 429.667 131.361 427.469 136.043L410.85 171.44C408.652 176.122 409.9 178.781 413.144 180.329C416.389 181.878 419.219 181.165 421.418 176.484L427.09 164.404L422.454 162.191L426.851 152.827Z" fill="white"/>
<path fill-rule="evenodd" clip-rule="evenodd" d="M426.851 152.827L441.127 159.64L431.367 180.429C426.442 190.916 418.437 194.432 408.425 189.654C398.413 184.876 396.036 176.406 400.96 165.919L416.965 131.833C421.889 121.344 429.893 117.829 439.906 122.607C449.917 127.385 452.294 135.855 447.37 146.343L444.381 152.71L434.74 148.109L438.037 141.087C440.235 136.404 439.031 133.652 435.787 132.103C432.542 130.556 429.667 131.361 427.469 136.043L410.85 171.44C408.652 176.122 409.9 178.781 413.144 180.329C416.389 181.878 419.219 181.165 421.418 176.484L427.09 164.404L422.454 162.191L426.851 152.827Z" stroke="black" stroke-width="1.5" stroke-linecap="round" stroke-linejoin="round"/>
<path fill-rule="evenodd" clip-rule="evenodd" d="M390.496 224.34L403.92 207.474L375.794 151.425L357.335 150.331L353.481 163.875L364.63 202.764L390.496 224.34Z" fill="#9595EF"/>
<path fill-rule="evenodd" clip-rule="evenodd" d="M390.496 224.34L403.92 207.474L375.794 151.425L357.335 150.331L353.481 163.875L364.63 202.764L390.496 224.34Z" stroke="black" stroke-width="1.5" stroke-linecap="round" stroke-linejoin="round"/>
<path fill-rule="evenodd" clip-rule="evenodd" d="M353.395 217.351C354.126 217.41 354.939 216.904 355.643 216.467L361.422 212.49L364.877 202.305L353.452 163.324L348.334 217.717C349.964 217.346 351.665 217.212 353.395 217.351Z" fill="#9595EF"/>
<path fill-rule="evenodd" clip-rule="evenodd" d="M353.395 217.351C354.126 217.41 354.939 216.904 355.643 216.467L361.422 212.49L364.877 202.305L353.452 163.324L348.334 217.717C349.964 217.346 351.665 217.212 353.395 217.351Z" stroke="black" stroke-width="1.5" stroke-linecap="round" stroke-linejoin="round"/>
<path fill-rule="evenodd" clip-rule="evenodd" d="M351.477 198.928L354.533 177.801L361.842 198.453L351.477 198.928ZM348.543 218.245L349.171 213.389L367.066 212.432L372.306 225.292L390.468 224.489L357.288 149.932L344.993 152.275L332.152 218.657L348.543 218.245Z" fill="white"/>
<path fill-rule="evenodd" clip-rule="evenodd" d="M351.477 198.928L354.533 177.801L361.842 198.453L351.477 198.928Z" stroke="black" stroke-width="1.3" stroke-linecap="round" stroke-linejoin="round"/>
<path fill-rule="evenodd" clip-rule="evenodd" d="M348.543 218.245L349.171 213.389L367.066 212.432L372.306 225.292L390.468 224.489L357.288 149.932L344.993 152.275L332.152 218.657L348.543 218.245Z" stroke="black" stroke-linecap="round" stroke-linejoin="round"/>
<path fill-rule="evenodd" clip-rule="evenodd" d="M219.84 151.533C217.22 151.287 216.187 152.369 217.674 155.608L219.905 160.463C216.862 160.185 215.365 160.051 212.405 159.804C211.607 158.041 211.208 157.16 210.409 155.397C207.123 148.138 209.067 144.247 217.1 145.083C224.967 145.903 231.499 150.537 234.957 157.641C240.332 168.687 227.938 174.724 230.65 183.093C230.747 183.393 230.947 183.741 231.169 184.071C237.253 184.61 240.231 184.907 246.814 185.558C247.986 188.149 248.571 189.445 249.743 192.037C241.844 191.231 233.938 190.485 226.021 189.879L223.497 184.304C217.544 174.17 231.458 167.275 226.513 157.114C224.602 153.187 222.461 151.78 219.84 151.533Z" fill="white"/>
<path fill-rule="evenodd" clip-rule="evenodd" d="M219.84 151.533C217.22 151.287 216.187 152.369 217.674 155.608L219.905 160.463C216.862 160.185 215.365 160.051 212.405 159.804C211.607 158.041 211.208 157.16 210.409 155.397C207.123 148.138 209.067 144.247 217.1 145.083C224.967 145.903 231.499 150.537 234.957 157.641C240.332 168.687 227.938 174.724 230.65 183.093C230.747 183.393 230.947 183.741 231.169 184.071C237.253 184.61 240.231 184.907 246.814 185.558C247.986 188.149 248.571 189.445 249.743 192.037C241.844 191.231 233.938 190.485 226.021 189.879L223.497 184.304C217.544 174.17 231.458 167.275 226.513 157.114C224.602 153.187 222.461 151.78 219.84 151.533Z" stroke="black" stroke-width="1.5" stroke-linecap="round" stroke-linejoin="round"/>
<path fill-rule="evenodd" clip-rule="evenodd" d="M201.791 157.536L209.728 146.428C209.728 146.428 217.779 141.564 228.13 149.933C236.816 156.955 235.553 164.566 235.519 164.8C235.507 164.892 235.269 166.802 234.097 169.486C232.307 173.589 229.343 179.22 229.577 180.736C229.964 183.242 230.479 184.221 230.479 184.221L246.02 185.7L248.925 192.187L241.99 201.889L233.204 197.587L218.424 194.131L223.298 173.849L221.401 164.442L212.784 158.961L201.791 157.536Z" fill="white"/>
<path fill-rule="evenodd" clip-rule="evenodd" d="M202.416 156.962L210.353 145.855C210.353 145.855 218.404 140.99 228.755 149.359C237.441 156.381 236.178 163.992 236.144 164.227C236.131 164.319 235.893 166.229 234.721 168.912C232.932 173.015 229.968 178.647 230.201 180.162C230.588 182.669 231.104 183.647 231.104 183.647L246.645 185.127L249.55 191.614L242.615 201.315L233.828 197.013L219.048 193.558L223.923 173.276L222.026 163.868L213.408 158.388L202.416 156.962Z" stroke="black" stroke-width="1.5" stroke-linecap="round" stroke-linejoin="round"/>
<path fill-rule="evenodd" clip-rule="evenodd" d="M212.168 170.47L204.827 169.822L210.654 159.87L216.681 162.631L212.168 170.47Z" fill="white"/>
<path fill-rule="evenodd" clip-rule="evenodd" d="M212.168 170.47L204.827 169.822L210.654 159.87L216.681 162.631L212.168 170.47Z" stroke="black" stroke-width="1.5" stroke-linecap="round" stroke-linejoin="round"/>
<path fill-rule="evenodd" clip-rule="evenodd" d="M212.6 161.427C209.98 161.181 208.946 162.263 210.434 165.5C211.325 167.443 211.771 168.415 212.664 170.357C209.621 170.079 208.125 169.945 205.165 169.698C204.366 167.935 203.968 167.053 203.169 165.291C199.883 158.031 201.826 154.14 209.86 154.977C217.727 155.796 224.259 160.43 227.717 167.534C233.092 178.581 220.697 184.617 223.41 192.987C223.506 193.286 223.707 193.634 223.929 193.965C230.013 194.503 232.99 194.8 239.575 195.452C240.746 198.043 241.331 199.339 242.503 201.93C234.604 201.125 226.698 200.378 218.781 199.772C217.771 197.543 217.266 196.427 216.257 194.198C210.303 184.063 224.217 177.169 219.273 167.008C217.362 163.081 215.22 161.674 212.6 161.427Z" fill="#9595EF"/>
<path fill-rule="evenodd" clip-rule="evenodd" d="M212.6 161.427C209.98 161.181 208.946 162.263 210.434 165.5C211.325 167.443 211.771 168.415 212.664 170.357C209.621 170.079 208.125 169.945 205.165 169.698C204.366 167.935 203.968 167.053 203.169 165.291C199.883 158.031 201.826 154.14 209.86 154.977C217.727 155.796 224.259 160.43 227.717 167.534C233.092 178.581 220.697 184.617 223.41 192.987C223.506 193.286 223.707 193.634 223.929 193.965C230.013 194.503 232.99 194.8 239.575 195.452C240.746 198.043 241.331 199.339 242.503 201.93C234.604 201.125 226.698 200.378 218.781 199.772C217.771 197.543 217.266 196.427 216.257 194.198C210.303 184.063 224.217 177.169 219.273 167.008C217.362 163.081 215.22 161.674 212.6 161.427Z" stroke="black" stroke-width="1.5" stroke-linecap="round" stroke-linejoin="round"/>
<path fill-rule="evenodd" clip-rule="evenodd" d="M239.358 195.123L246.436 185.606L239.358 195.123Z" fill="white"/>
<path d="M239.358 195.123L246.436 185.606" stroke="black" stroke-width="1.5" stroke-linecap="round" stroke-linejoin="round"/>
<path fill-rule="evenodd" clip-rule="evenodd" d="M313.167 52.9262C311.207 64.0779 326.541 66.9126 323.6 78.3141C323.243 80.7398 323.064 81.9531 322.707 84.3797C315.235 87.1331 307.812 90.0186 300.412 92.9592C300.825 90.1397 301.032 88.7305 301.445 85.911C307.619 83.4787 310.41 82.3774 316.132 80.1904C316.255 79.811 316.352 79.4214 316.363 79.1058C316.665 70.2945 303.033 67.8699 305.164 55.7479C306.535 47.9518 311.557 41.6938 318.923 38.7486C326.443 35.7404 329.396 38.9592 328.232 46.8592C327.95 48.7771 327.809 49.7356 327.526 51.6544C324.737 52.7034 323.331 53.2426 320.471 54.3445C320.794 52.2272 320.957 51.1682 321.281 49.0519C321.82 45.5225 320.523 44.7627 318.063 45.7183C315.601 46.6729 313.924 48.6161 313.167 52.9262Z" fill="white"/>
<path fill-rule="evenodd" clip-rule="evenodd" d="M313.167 52.9262C311.207 64.0779 326.541 66.9126 323.6 78.3141C323.243 80.7398 323.064 81.9531 322.707 84.3797C315.235 87.1331 307.812 90.0186 300.412 92.9592C300.825 90.1397 301.032 88.7305 301.445 85.911C307.619 83.4787 310.41 82.3774 316.132 80.1904C316.255 79.811 316.352 79.4214 316.363 79.1058C316.665 70.2945 303.033 67.8699 305.164 55.7479C306.535 47.9518 311.557 41.6938 318.923 38.7486C326.443 35.7404 329.396 38.9592 328.232 46.8592C327.95 48.7771 327.809 49.7356 327.526 51.6544C324.737 52.7034 323.331 53.2426 320.471 54.3445C320.794 52.2272 320.957 51.1682 321.281 49.0519C321.82 45.5225 320.523 44.7627 318.063 45.7183C315.601 46.6729 313.924 48.6161 313.167 52.9262Z" stroke="black" stroke-width="1.5" stroke-linecap="round" stroke-linejoin="round"/>
<path fill-rule="evenodd" clip-rule="evenodd" d="M336.381 46.3553L325.708 37.8662C325.708 37.8662 316.628 35.4156 308.938 46.3347C302.486 55.4948 305.778 62.469 305.873 62.6847C305.913 62.7696 306.661 64.5414 308.522 66.7991C311.365 70.2504 315.755 74.8482 315.944 76.3705C316.255 78.8889 316.025 79.974 316.025 79.974L301.457 85.7003L300.429 92.7465L309.754 100.16L317.045 93.5877L330.339 86.1692L320.113 68.0057L319.375 58.4294L326.182 50.7712L336.381 46.3553Z" fill="white"/>
<path fill-rule="evenodd" clip-rule="evenodd" d="M336.381 46.3553L325.708 37.8662C325.708 37.8662 316.628 35.4156 308.938 46.3347C302.486 55.4948 305.778 62.469 305.873 62.6847C305.913 62.7696 306.661 64.5414 308.522 66.7991C311.365 70.2504 315.755 74.8482 315.944 76.3705C316.255 78.8889 316.025 79.974 316.025 79.974L301.457 85.7003L300.429 92.7465L309.754 100.16L317.045 93.5877L330.339 86.1692L320.113 68.0057L319.375 58.4294L326.182 50.7712L336.381 46.3553Z" stroke="black" stroke-width="1.5" stroke-linecap="round" stroke-linejoin="round"/>
<path fill-rule="evenodd" clip-rule="evenodd" d="M329.992 61.4939L336.997 58.6965L328.76 50.9171L323.577 55.3436L329.992 61.4939Z" fill="white"/>
<path fill-rule="evenodd" clip-rule="evenodd" d="M329.992 61.4939L336.997 58.6965L328.76 50.9171L323.577 55.3436L329.992 61.4939Z" stroke="black" stroke-width="1.5" stroke-linecap="round" stroke-linejoin="round"/>
<path fill-rule="evenodd" clip-rule="evenodd" d="M323.052 60.1708C321.092 71.3225 336.425 74.1573 333.484 85.5587C333.127 87.9844 332.949 89.1978 332.591 91.6243C325.119 94.3777 317.696 97.2632 310.296 100.204C310.709 97.3843 310.917 95.9751 311.33 93.1557C317.503 90.7233 320.294 89.6211 326.017 87.4351C326.139 87.0556 326.237 86.6661 326.247 86.3504C326.549 77.5391 312.917 75.1145 315.049 62.9926C316.42 55.1965 321.442 48.9385 328.807 45.9932C336.328 42.9851 339.281 46.2039 338.116 54.1038C337.834 56.0217 337.693 56.9802 337.411 58.899C334.621 59.948 333.215 60.4872 330.355 61.5891C330.679 59.4719 330.841 58.4128 331.165 56.2956C331.704 52.7671 330.407 52.0074 327.947 52.9629C325.486 53.9175 323.809 55.8617 323.052 60.1708Z" fill="#9595EF"/>
<path fill-rule="evenodd" clip-rule="evenodd" d="M323.052 60.1708C321.092 71.3225 336.425 74.1572 333.484 85.5587C333.127 87.9844 332.949 89.1978 332.591 91.6243C325.119 94.3777 317.696 97.2632 310.296 100.204C310.709 97.3843 310.917 95.9751 311.33 93.1557C317.503 90.7233 320.294 89.6211 326.017 87.4351C326.139 87.0556 326.237 86.6661 326.247 86.3504C326.549 77.5391 312.917 75.1145 315.049 62.9926C316.42 55.1965 321.442 48.9385 328.807 45.9932C336.328 42.9851 339.281 46.2039 338.116 54.1038C337.834 56.0217 337.693 56.9802 337.411 58.899C334.621 59.948 333.215 60.4872 330.355 61.5891C330.679 59.4719 330.841 58.4128 331.165 56.2956C331.704 52.7671 330.407 52.0074 327.947 52.9629C325.486 53.9175 323.809 55.8617 323.052 60.1708Z" stroke="black" stroke-width="1.5" stroke-linecap="round" stroke-linejoin="round"/>
<path fill-rule="evenodd" clip-rule="evenodd" d="M311.235 93.3741L302.05 85.9191L311.235 93.3741Z" fill="white"/>
<path d="M311.235 93.3741L302.05 85.9191" stroke="black" stroke-width="1.5" stroke-linecap="round" stroke-linejoin="round"/>
<path fill-rule="evenodd" clip-rule="evenodd" d="M51.3311 202.462L55.9793 196.391L60.8663 200.646L62.5496 206.605C65.319 216.419 61.5359 223.049 51.1877 225.018C49.0497 225.426 47.0567 225.553 45.2176 225.412C44.4885 225.356 43.7902 225.248 43.1113 225.119L36.6101 223.182L37.8161 222.88C34.6994 220.72 32.434 217.249 31.119 212.588L22.1137 180.692C19.3434 170.878 22.2279 161.2 33.4756 162.279C37.4425 162.659 40.6997 161.721 43.568 162.734C42.9883 161.111 39.5093 157.504 39.198 155.854C46.0299 159.104 51.0853 165.997 53.5444 174.709C53.5452 174.71 59.0365 194.162 59.0365 194.162L44.2786 196.971L37.8293 192.37L39.9088 189.595L42.3358 190.088L41.806 188.209L46.5968 187.297L43.4055 175.993C42.1683 171.612 39.615 170.436 36.2608 171.074C32.9076 171.712 31.2437 173.691 32.4809 178.072L41.8313 211.195C43.0684 215.577 45.6468 216.84 49.001 216.201C52.3551 215.563 53.993 213.497 52.7559 209.115L51.2141 203.654L50.3866 203.912L51.0154 202.947L50.901 202.544L51.3311 202.462Z" fill="#9595EF"/>
<path fill-rule="evenodd" clip-rule="evenodd" d="M51.3311 202.462L55.9793 196.391L60.8663 200.646L62.5496 206.605C65.319 216.419 61.5359 223.049 51.1877 225.018C49.0497 225.426 47.0567 225.553 45.2176 225.412C44.4885 225.356 43.7902 225.248 43.1113 225.119L36.6101 223.182L37.8161 222.88C34.6994 220.72 32.434 217.249 31.119 212.588L22.1137 180.692C19.3434 170.878 22.2279 161.2 33.4756 162.279C37.4425 162.659 40.6997 161.721 43.568 162.734C42.9883 161.111 39.5093 157.504 39.198 155.854C46.0299 159.104 51.0853 165.997 53.5444 174.709C53.5452 174.71 59.0365 194.162 59.0365 194.162L44.2786 196.971L37.8293 192.37L39.9088 189.595L42.3358 190.088L41.806 188.209L46.5968 187.297L43.4055 175.993C42.1683 171.612 39.615 170.436 36.2608 171.074C32.9076 171.712 31.2437 173.691 32.4809 178.072L41.8313 211.195C43.0684 215.577 45.6468 216.84 49.001 216.201C52.3551 215.563 53.993 213.497 52.7559 209.115L51.2141 203.654L50.3866 203.912L51.0154 202.947L50.901 202.544L51.3311 202.462Z" stroke="black" stroke-width="1.5" stroke-linecap="round" stroke-linejoin="round"/>
<path fill-rule="evenodd" clip-rule="evenodd" d="M37.6243 192.571L53.8038 189.499L47.7795 168.199C44.7395 157.454 37.1184 152.43 25.7722 154.585C14.425 156.74 10.2786 163.998 13.3186 174.743L23.1983 209.667C26.2374 220.413 33.8576 225.436 45.2048 223.281C56.5511 221.126 60.6974 213.869 57.6583 203.123L55.8128 196.599L44.886 198.674L46.922 205.869C48.278 210.667 46.4824 212.929 42.806 213.627C39.1279 214.325 36.3012 212.941 34.9442 208.144L24.6855 171.878C23.3285 167.08 25.152 164.914 28.8284 164.216C32.5066 163.517 35.3053 164.806 36.6633 169.603L40.164 181.979L34.9102 182.978L37.6243 192.571Z" fill="white"/>
<path fill-rule="evenodd" clip-rule="evenodd" d="M37.6243 192.571L53.8038 189.499L47.7795 168.199C44.7395 157.454 37.1184 152.43 25.7722 154.585C14.425 156.74 10.2786 163.998 13.3186 174.743L23.1983 209.667C26.2374 220.413 33.8576 225.436 45.2048 223.281C56.5511 221.126 60.6974 213.869 57.6583 203.123L55.8128 196.599L44.886 198.674L46.922 205.869C48.278 210.667 46.4824 212.929 42.806 213.627C39.1279 214.325 36.3012 212.941 34.9442 208.144L24.6855 171.878C23.3285 167.08 25.152 164.914 28.8284 164.216C32.5066 163.517 35.3053 164.806 36.6633 169.603L40.164 181.979L34.9102 182.978L37.6243 192.571Z" stroke="black" stroke-width="1.5" stroke-linecap="round" stroke-linejoin="round"/>
<path fill-rule="evenodd" clip-rule="evenodd" d="M205.185 476.393L201.729 473.939L205.335 435.111L208.78 437.296L205.185 476.393Z" fill="white"/>
<path fill-rule="evenodd" clip-rule="evenodd" d="M205.185 476.393L201.729 473.939L205.335 435.111L208.78 437.296L205.185 476.393Z" fill="#9595EF" stroke="black" stroke-width="1.5" stroke-linecap="round" stroke-linejoin="round"/>
<path fill-rule="evenodd" clip-rule="evenodd" d="M205.44 434.806L208.342 437.336L212.539 436.222C212.539 436.222 213.203 438.953 215.025 439.012C216.848 439.071 219.07 438.552 219.07 438.552L216.173 435.789C216.173 435.789 214.698 436.028 213.734 436.106C212.769 436.184 211.581 436.138 210.683 435.078C209.785 434.019 209.706 433.561 209.706 433.561" fill="white"/>
<path fill-rule="evenodd" clip-rule="evenodd" d="M205.472 434.82L208.374 437.35L212.231 436.53C211.89 436.824 213.029 438.885 214.852 438.944C216.675 439.003 218.485 438.996 218.485 438.996L215.735 435.882C215.735 435.882 214.731 436.042 213.766 436.12C212.802 436.198 211.614 436.152 210.716 435.093C209.818 434.033 208.967 434.161 209.156 433.887" fill="#9595EF"/>
<path d="M205.472 434.82L208.374 437.35L212.231 436.53C211.89 436.824 213.029 438.885 214.852 438.944C216.675 439.003 218.485 438.996 218.485 438.996L215.735 435.882C215.735 435.882 214.731 436.042 213.766 436.12C212.802 436.198 211.614 436.152 210.716 435.093C209.818 434.033 208.967 434.161 209.156 433.887" stroke="black" stroke-width="1.5" stroke-linecap="round" stroke-linejoin="round"/>
<path fill-rule="evenodd" clip-rule="evenodd" d="M212.427 435.237L209.867 433.263C209.689 433.125 209.45 433.097 209.24 433.191L205.465 434.876C205.362 434.933 205.35 435.08 205.442 435.148L208.595 437.351L212.427 435.237Z" fill="white"/>
<path fill-rule="evenodd" clip-rule="evenodd" d="M212.427 435.237L209.867 433.263C209.689 433.125 209.45 433.097 209.24 433.191L205.465 434.876C205.362 434.933 205.35 435.08 205.442 435.148L208.595 437.351L212.427 435.237Z" fill="#9595EF" stroke="black" stroke-width="1.5" stroke-linejoin="round"/>
<path fill-rule="evenodd" clip-rule="evenodd" d="M219.398 437.69C219.283 438.837 219.226 439.411 219.111 440.558C219.068 440.982 218.694 441.478 218.259 441.675C216.929 442.277 216.209 442.602 214.779 443.249C214.311 443.461 213.897 443.976 213.856 444.399C212.929 453.876 212.003 463.354 211.076 472.831C211.035 473.255 210.617 473.772 210.143 473.987C208.066 474.928 206.992 475.415 205.216 476.208C204.811 476.389 204.538 476.183 204.581 475.759C205.849 463.158 207.117 450.558 208.386 437.958C208.429 437.534 208.772 437.052 209.173 436.872C210.254 436.387 210.846 436.121 212.061 435.573C212.399 435.421 212.687 435.477 212.779 435.719C213.493 437.583 214.751 438.856 218.728 437.262C219.148 437.093 219.439 437.279 219.398 437.69Z" fill="white"/>
<path fill-rule="evenodd" clip-rule="evenodd" d="M219.398 437.69C219.283 438.837 219.226 439.411 219.111 440.558C219.068 440.982 218.694 441.478 218.259 441.675C216.929 442.277 216.209 442.602 214.779 443.249C214.311 443.461 213.897 443.976 213.856 444.399C212.929 453.876 212.003 463.354 211.076 472.831C211.035 473.255 210.617 473.772 210.143 473.987C208.066 474.928 206.992 475.415 205.216 476.208C204.811 476.389 204.538 476.183 204.581 475.759C205.849 463.158 207.117 450.558 208.386 437.958C208.429 437.534 208.772 437.052 209.173 436.872C210.254 436.387 210.846 436.121 212.061 435.573C212.399 435.421 212.687 435.477 212.779 435.719C213.493 437.583 214.751 438.856 218.728 437.262C219.148 437.093 219.439 437.279 219.398 437.69Z" stroke="black" stroke-width="1.5" stroke-linecap="round" stroke-linejoin="round"/>
<path d="M535.107 305.611C536.407 299.634 532.759 293.806 527.018 292.558C521.276 291.309 515.538 295.095 514.238 301.072C512.938 307.049 516.585 312.876 522.327 314.125C528.069 315.374 533.807 311.588 535.107 305.611Z" fill="#F2F2F2" stroke="black" stroke-width="1.5"/>
<path d="M537.504 304.67C538.804 298.693 535.157 292.866 529.415 291.617C523.673 290.368 517.935 294.154 516.635 300.131C515.335 306.108 518.983 311.936 524.724 313.184C530.466 314.433 536.204 310.647 537.504 304.67Z" fill="white" stroke="black" stroke-width="1.5"/>
<rect x="365.612" y="508.621" width="7.76032" height="33" rx="3.88016" transform="rotate(-15 365.612 508.621)" fill="white" stroke="black"/>
<rect x="148.577" y="313.935" width="7.76032" height="33" rx="3.88016" transform="rotate(104.519 148.577 313.935)" fill="white" stroke="black"/>
</svg>
