<svg width="75" height="76" viewBox="0 0 75 76" fill="none" xmlns="http://www.w3.org/2000/svg">
<path d="M12.4609 66.6427C12.1886 66.3701 11.8106 66.2135 11.4254 66.2135C11.0401 66.2135 10.6621 66.3701 10.3897 66.6427C10.1172 66.9153 9.96045 67.2931 9.96045 67.6784C9.96045 68.0637 10.117 68.4416 10.3897 68.714C10.6621 68.9864 11.0401 69.1433 11.4254 69.1433C11.8106 69.1433 12.1886 68.9866 12.4609 68.714C12.7334 68.4416 12.8903 68.0637 12.8903 67.6784C12.8903 67.2931 12.7335 66.9152 12.4609 66.6427Z" fill="#9595EF"/>
<path d="M68.7794 26.7981C68.5069 26.5255 68.1305 26.3689 67.7437 26.3689C67.3584 26.3689 66.9805 26.5255 66.708 26.7981C66.4357 27.0706 66.2788 27.4485 66.2788 27.8338C66.2788 28.2191 66.4356 28.597 66.708 28.8694C66.9805 29.1418 67.3584 29.2987 67.7437 29.2987C68.1305 29.2987 68.5069 29.142 68.7794 28.8694C69.0532 28.597 69.2099 28.2191 69.2099 27.8338C69.2099 27.4485 69.0532 27.0706 68.7794 26.7981Z" fill="#9595EF"/>
<path d="M74.5712 0.429065C74.2964 0.154399 73.9237 0 73.5351 0L37.4998 0.00190435C36.6909 0.00190435 36.035 0.65788 36.035 1.46679V5.65593L22.1495 9.37659C21.368 9.58607 20.9042 10.3893 21.1137 11.1706L28.3102 38.0281L22.0846 44.2538C21.2923 43.0968 19.9619 42.3359 18.457 42.3359H4.39451C1.9713 42.3359 0 44.3074 0 46.7304V70.6075C0 73.0307 1.9713 75.0022 4.39451 75.0022H18.4571C20.5157 75.0022 22.2475 73.5789 22.7221 71.6652L24.4639 73.1841C25.8085 74.3566 27.5312 75.0023 29.3153 75.0023H73.5354C74.3443 75.0023 75.0003 74.3463 75.0003 73.5374V1.46489C75 1.0764 74.8459 0.703731 74.5712 0.429065ZM19.9217 70.6077C19.9217 71.4152 19.2646 72.0725 18.4568 72.0725H4.39437C3.58663 72.0725 2.92948 71.4154 2.92948 70.6077V46.7306C2.92948 45.9229 3.58663 45.2657 4.39437 45.2657H9.96079V62.1405C9.96079 62.9494 10.6168 63.6054 11.4257 63.6054C12.2346 63.6054 12.8906 62.9494 12.8906 62.1405V45.2657H18.457C19.2647 45.2657 19.9219 45.9229 19.9219 46.7306V70.6077H19.9217ZM24.3227 11.8273L36.035 8.68897V14.1171L35.0533 14.3802C34.6778 14.4808 34.358 14.7262 34.1638 15.0627C33.9695 15.3992 33.9168 15.7989 34.0174 16.1742C34.5804 18.275 33.3292 20.442 31.2284 21.005C30.8527 21.1058 30.5323 21.3516 30.3382 21.6888C30.1441 22.0259 30.0918 22.4264 30.1934 22.802L35.9033 43.9459H32.9633L31.4482 38.0183C31.4 37.8297 31.3156 37.6558 31.2027 37.5046L24.3227 11.8273ZM36.035 20.8349V33.1958L33.3632 23.3027C34.4793 22.7264 35.3927 21.8642 36.035 20.8349ZM57.0802 72.0724H29.315C28.2391 72.0724 27.2 71.683 26.389 70.9759L22.8515 67.8907V47.6303L29.2469 41.2349L30.4068 45.7731C30.5726 46.4217 31.1567 46.8752 31.826 46.8752L60.6262 46.8769C61.7571 46.8769 62.6771 47.7969 62.6771 48.9278C62.6771 50.0587 61.7571 50.9786 60.6262 50.9786H45.869C45.0601 50.9786 44.4041 51.6346 44.4041 52.4435C44.4041 53.2524 45.0601 53.9084 45.869 53.9084H65.2113C66.3422 53.9084 67.2622 54.8283 67.2622 55.9592C67.2622 57.0901 66.3422 58.0101 65.2113 58.0101H45.869C45.0601 58.0101 44.4041 58.666 44.4041 59.475C44.4041 60.2839 45.0601 60.9398 45.869 60.9398H62.0769C63.2078 60.9398 64.1277 61.8598 64.1277 62.9907C64.1277 64.1216 63.2078 65.0415 62.0769 65.0415H45.869C45.0601 65.0415 44.4041 65.6975 44.4041 66.5064C44.4041 67.3153 45.0601 67.9713 45.869 67.9713H57.0802C58.2111 67.9713 59.131 68.8913 59.131 70.0221C59.1309 71.1524 58.2109 72.0724 57.0802 72.0724ZM72.0705 72.0724H72.0704H61.6171C61.9011 71.4464 62.0606 70.7525 62.0606 70.0216C62.0606 69.2906 61.9011 68.5967 61.6171 67.9707H62.0769C64.8231 67.9707 67.0574 65.7365 67.0574 62.9902C67.0574 62.1892 66.8662 61.4323 66.5287 60.7611C68.6375 60.1819 70.1916 58.249 70.1916 55.9589C70.1916 54.848 69.8257 53.8209 69.2086 52.9918V34.4258C69.2086 33.6169 68.5526 32.961 67.7437 32.961C66.9348 32.961 66.2788 33.6169 66.2788 34.4258V51.0951C65.9345 51.0196 65.5775 50.9786 65.211 50.9786H65.163C65.447 50.3527 65.6066 49.6588 65.6066 48.9278C65.6066 46.1814 63.3723 43.9473 60.6261 43.9473H58.2713C60.7717 42.875 62.5278 40.3897 62.5278 37.5011C62.5278 33.6354 59.383 30.4904 55.5173 30.4904C51.6517 30.4904 48.5068 33.6354 48.5068 37.5011C48.5068 40.3897 50.263 42.875 52.7633 43.9473H44.7558V16.0937C47.3727 15.5234 49.4376 13.4586 50.0077 10.8416H61.0267C61.5969 13.4586 63.6618 15.5234 66.2786 16.0937V20.648C66.2786 21.4569 66.9346 22.1129 67.7435 22.1129C68.5524 22.1129 69.2084 21.4569 69.2084 20.648V14.7858C69.2084 13.9769 68.5524 13.3209 67.7435 13.3209C65.5686 13.3209 63.7995 11.5515 63.7995 9.37674C63.7995 8.56783 63.1435 7.91185 62.3346 7.91185H48.7C47.8911 7.91185 47.2351 8.56783 47.2351 9.37674C47.2351 11.5517 45.4658 13.3209 43.2911 13.3209C42.4821 13.3209 41.8262 13.9769 41.8262 14.7858V43.9472H38.965V2.93138L72.0705 2.92977V72.0724ZM55.5176 41.582C53.2674 41.582 51.4369 39.7513 51.4369 37.5012C51.4369 35.2512 53.2675 33.4204 55.5176 33.4204C57.7677 33.4204 59.5983 35.251 59.5983 37.5011C59.5983 39.7511 57.7678 41.582 55.5176 41.582Z" fill="#9595EF"/>
</svg>
