<svg width="561" height="560" viewBox="0 0 561 560" fill="none" xmlns="http://www.w3.org/2000/svg">
<path fill-rule="evenodd" clip-rule="evenodd" d="M341.714 105.856C431.701 135.37 459.415 264.649 401.212 358.244C333.575 467.024 211.771 516.993 117.326 481.771C31.4511 449.748 2.2893 327.392 68.3396 224.04C138.335 114.505 243.736 73.7189 341.714 105.856Z" stroke="#BDBDBD" stroke-linejoin="round"/>
<path opacity="0.5" fill-rule="evenodd" clip-rule="evenodd" d="M384.543 64.8521C491.449 99.9159 524.374 253.502 455.227 364.695C374.873 493.928 230.168 553.291 117.965 511.447C15.944 473.403 -18.7008 328.042 59.7683 205.257C142.925 75.1273 268.143 26.673 384.543 64.8521Z" stroke="#BDBDBD" stroke-linejoin="round"/>
<path opacity="0.3" fill-rule="evenodd" clip-rule="evenodd" d="M434.3 16.3571C560.378 57.709 599.207 238.837 517.66 369.971C422.897 522.38 252.241 592.389 119.917 543.041C-0.399985 498.174 -41.2577 326.745 51.2834 181.941C149.352 28.475 297.027 -28.6687 434.3 16.3571Z" stroke="#BDBDBD" stroke-linejoin="round"/>
<path fill-rule="evenodd" clip-rule="evenodd" d="M346.117 316.878C341.582 392.343 276.783 425.286 220.272 385.571C154.595 339.42 113.299 244.529 120.297 164.982C126.66 92.6541 187.629 59.0944 250.249 104.395C316.614 152.402 351.055 234.711 346.117 316.878Z" fill="white"/>
<path fill-rule="evenodd" clip-rule="evenodd" d="M346.117 316.878C341.582 392.343 276.783 425.286 220.272 385.571C154.595 339.42 113.299 244.529 120.297 164.982C126.66 92.6541 187.629 59.0944 250.249 104.395C316.614 152.402 351.055 234.711 346.117 316.878Z" stroke="black" stroke-width="1.5" stroke-linejoin="round"/>
<path fill-rule="evenodd" clip-rule="evenodd" d="M195.011 112.964L127.923 107.232C127.923 107.232 164.977 82.7806 184.95 83.8526" fill="white"/>
<path d="M195.011 112.964L127.923 107.232C127.923 107.232 158.659 83.0226 197.181 83.7319" stroke="black" stroke-width="1.5" stroke-linecap="round" stroke-linejoin="round"/>
<path fill-rule="evenodd" clip-rule="evenodd" d="M317.362 345.599L281.411 412.057C281.411 412.057 327.835 386.76 340.328 347.561" fill="white"/>
<path d="M317.362 345.599L281.411 412.057C281.411 412.057 327.835 386.76 340.328 347.561" stroke="black" stroke-width="1.5" stroke-linecap="round" stroke-linejoin="round"/>
<path fill-rule="evenodd" clip-rule="evenodd" d="M317.363 345.599C312.828 421.068 239.757 443.353 183.246 403.637C117.568 357.486 76.2688 262.599 83.2709 183.049C89.6329 110.724 146.945 76.8547 209.565 122.149C275.934 170.159 322.301 263.432 317.363 345.599Z" fill="#9595EF"/>
<path fill-rule="evenodd" clip-rule="evenodd" d="M317.363 345.599C312.828 421.068 239.757 443.353 183.246 403.637C117.568 357.486 76.2688 262.599 83.2709 183.049C89.6329 110.724 146.945 76.8547 209.565 122.149C275.934 170.159 322.301 263.432 317.363 345.599Z" stroke="black" stroke-width="1.5" stroke-linecap="round" stroke-linejoin="round"/>
<path fill-rule="evenodd" clip-rule="evenodd" d="M212.122 318.817C211.185 319.651 209.939 320.147 208.394 320.294C206.845 320.442 205.348 320.405 203.905 320.194C202.459 319.983 200.713 319.505 198.683 318.772C196.651 318.032 194.881 317.305 193.361 316.589C191.847 315.871 190.04 314.932 187.955 313.784C185.87 312.63 184.253 311.704 183.1 311C181.943 310.293 180.491 309.385 178.738 308.275C177.978 307.793 177.339 307.394 176.82 307.066C176.03 306.569 175.394 305.324 175.388 304.259C175.262 289.387 175.199 281.94 175.076 267.045C175.068 265.987 175.677 265.492 176.45 265.929C177.155 266.328 178.098 266.861 179.281 267.525C181.629 268.842 183.552 269.95 185.05 270.842C186.549 271.735 188.623 273.09 191.295 274.923C193.963 276.749 196.235 278.459 198.094 280.043C199.95 281.627 201.993 283.582 204.243 285.918C206.491 288.252 208.343 290.574 209.783 292.877C211.223 295.184 212.459 297.772 213.486 300.649C214.512 303.525 215.069 306.459 215.146 309.44C215.205 311.762 214.952 313.693 214.38 315.238C213.809 316.784 213.056 317.979 212.122 318.817ZM178.031 211.054C179.917 212.094 181.486 212.96 182.734 213.633C183.987 214.316 185.678 215.388 187.82 216.863C189.963 218.335 191.782 219.704 193.269 220.963C194.756 222.223 196.407 223.838 198.227 225.809C200.056 227.788 201.536 229.772 202.662 231.756C203.791 233.743 204.769 236.01 205.586 238.553C206.41 241.1 206.855 243.734 206.915 246.46C206.971 248.772 206.74 250.718 206.224 252.294C205.709 253.874 204.902 254.976 203.816 255.616C202.733 256.252 201.614 256.707 200.468 256.973C199.323 257.243 197.854 257.143 196.075 256.669C194.296 256.202 192.751 255.741 191.435 255.297C190.12 254.846 188.478 254.107 186.516 253.07C184.551 252.037 183.07 251.246 182.066 250.695C181.062 250.144 179.687 249.334 177.952 248.271C177.293 247.87 176.739 247.533 176.291 247.257C175.521 246.784 174.897 245.56 174.89 244.498C174.772 230.343 174.713 223.266 174.595 209.137C174.999 209.37 176.145 210.008 178.031 211.054ZM151.999 175.355C144.847 171.282 141.166 169.194 133.329 164.791C132.437 164.292 131.73 164.762 131.758 165.842C131.912 172.269 131.992 175.487 132.149 181.911C132.174 182.994 132.899 184.253 133.766 184.731C137.477 186.779 139.288 187.786 142.853 189.777C147.543 192.4 150.235 196.574 151.107 202.372C151.257 216.573 151.316 223.46 151.43 237.238C152.026 237.575 151.424 237.273 151.784 237.558C151.644 237.478 151.573 237.436 151.43 237.359C151.597 256.696 151.678 266.37 151.842 285.697C151.363 289.74 149.701 290.76 146.852 289.147C143.471 287.237 141.787 286.303 138.425 284.483C137.75 284.119 137.187 284.497 137.096 285.375C136.366 292.24 136.014 295.685 135.332 302.594C135.22 303.711 135.874 305.123 136.706 305.559C142.762 308.751 145.836 310.478 152.084 314.1C153.175 314.734 154.757 315.676 156.848 316.948C158.166 317.75 159.276 318.434 160.186 318.984C160.956 319.453 161.582 320.688 161.586 321.749C161.636 329.735 162.337 334.637 162.362 339.371L151.999 175.355ZM174.111 358.119C174.915 358.621 175.562 358.165 175.556 357.097C175.469 346.495 175.425 341.18 175.338 330.545C175.33 329.461 175.982 328.993 176.793 329.511C178.919 330.867 181.646 332.581 185.015 334.668C185.834 335.174 186.512 336.456 186.524 337.531C186.594 343.036 178.156 357.586 181.577 365.34C182.014 366.325 181.811 367.14 182.649 367.658L174.111 358.119ZM200.053 374.26C200.91 374.782 201.59 374.333 201.568 373.254C201.353 362.321 201.249 356.836 201.03 345.844C201.012 344.801 201.634 344.331 202.443 344.764C207.098 347.228 211.319 349.167 215.079 350.549C219.228 352.075 223.239 352.965 227.097 353.207C230.955 353.452 234.211 352.828 236.827 351.379C239.44 349.93 241.6 347.433 243.287 343.913C244.971 340.386 246.008 335.828 246.367 330.223C247.023 319.231 245.162 309.544 240.867 301.127C237.252 294.043 232.228 287.525 226.058 281.658C224.759 280.418 224.458 278.189 225.552 277.876C233.131 275.705 236.473 267.7 234.984 253.71C234.41 248.009 232.987 242.573 230.761 237.394C228.539 232.216 225.622 227.434 222.112 223.076C218.602 218.718 214.903 214.823 211.056 211.403C207.563 208.296 203.7 205.262 199.496 202.315C198.759 201.8 198.182 200.641 198.161 199.627C197.951 188.754 197.842 183.33 197.63 172.511C197.609 171.432 196.965 170.206 196.192 169.772C191.928 167.39 189.84 166.226 185.676 163.898C184.921 163.476 184.32 164 184.332 165.075L174.685 179.534L200.053 374.26ZM175.572 187.929C174.797 187.517 174.147 186.284 174.139 185.196C174.094 179.752 173.972 164.61 173.926 159.24C173.917 158.172 173.3 156.97 172.542 156.548C168.356 154.205 166.254 153.026 161.946 150.612C161.167 150.174 160.538 150.68 160.542 151.741L150.083 162.788L156.963 208.933L175.572 187.929Z" fill="white"/>
<path fill-rule="evenodd" clip-rule="evenodd" d="M214.381 315.238C213.809 316.784 213.056 317.979 212.122 318.817C211.185 319.651 209.939 320.147 208.394 320.294C206.845 320.442 205.348 320.405 203.905 320.194C202.459 319.983 200.713 319.505 198.684 318.772C196.651 318.032 194.881 317.305 193.361 316.589C191.847 315.871 190.04 314.932 187.955 313.784C185.87 312.63 184.254 311.704 183.1 311C181.943 310.293 180.492 309.385 178.738 308.275C177.979 307.794 177.339 307.394 176.82 307.067C176.03 306.569 175.394 305.324 175.388 304.259C175.262 289.387 175.199 281.94 175.076 267.045C175.069 265.987 175.677 265.492 176.45 265.929C177.155 266.328 178.098 266.861 179.281 267.525C181.629 268.842 183.552 269.95 185.051 270.842C186.549 271.735 188.623 273.09 191.295 274.923C193.963 276.749 196.235 278.459 198.094 280.043C199.95 281.627 201.993 283.582 204.244 285.918C206.491 288.252 208.343 290.574 209.783 292.877C211.223 295.184 212.459 297.772 213.486 300.649C214.513 303.525 215.069 306.459 215.146 309.44C215.205 311.762 214.952 313.693 214.381 315.238Z" stroke="black" stroke-width="1.5" stroke-linejoin="round"/>
<path fill-rule="evenodd" clip-rule="evenodd" d="M178.031 211.054C179.917 212.094 181.486 212.96 182.734 213.633C183.987 214.316 185.678 215.388 187.821 216.862C189.963 218.334 191.782 219.703 193.269 220.963C194.756 222.222 196.408 223.838 198.227 225.809C200.056 227.787 201.537 229.772 202.662 231.755C203.791 233.743 204.769 236.01 205.586 238.553C206.41 241.099 206.855 243.734 206.915 246.46C206.971 248.772 206.74 250.717 206.225 252.294C205.709 253.873 204.902 254.976 203.816 255.615C202.733 256.252 201.614 256.706 200.469 256.973C199.323 257.243 197.854 257.143 196.075 256.669C194.296 256.201 192.751 255.741 191.435 255.296C190.12 254.845 188.478 254.106 186.517 253.07C184.552 252.036 183.07 251.246 182.066 250.695C181.062 250.144 179.687 249.333 177.952 248.271C177.293 247.869 176.739 247.532 176.291 247.257C175.521 246.784 174.897 245.559 174.89 244.498C174.772 230.342 174.713 223.266 174.595 209.136C174.999 209.369 176.145 210.008 178.031 211.054Z" stroke="black" stroke-width="1.5" stroke-linejoin="round"/>
<path fill-rule="evenodd" clip-rule="evenodd" d="M152 175.355C144.847 171.282 141.166 169.194 133.329 164.791C132.438 164.292 131.73 164.762 131.759 165.842C131.912 172.269 131.992 175.487 132.149 181.911C132.174 182.994 132.899 184.253 133.766 184.731C137.477 186.779 139.288 187.786 142.853 189.777C147.543 192.4 150.235 196.574 151.107 202.372C151.257 216.573 151.316 223.46 151.43 237.238C152.026 237.575 151.424 237.273 151.784 237.558C151.644 237.478 151.573 237.436 151.43 237.358C151.597 256.696 151.678 266.37 151.842 285.697C151.364 289.74 149.701 290.76 146.852 289.147C143.471 287.237 141.788 286.303 138.425 284.483C137.75 284.119 137.188 284.497 137.096 285.375C136.367 292.24 136.014 295.685 135.332 302.594C135.221 303.711 135.874 305.123 136.706 305.559C142.762 308.751 145.836 310.478 152.084 314.1C153.175 314.734 154.758 315.676 156.849 316.948C158.166 317.75 159.276 318.434 160.186 318.984C160.956 319.453 161.583 320.688 161.586 321.749C161.636 329.735 162.337 334.637 162.362 339.371C162.362 339.371 151.211 315.444 150.481 303.895C147.757 260.772 152 175.355 152 175.355Z" stroke="black" stroke-width="1.5" stroke-linejoin="round"/>
<path fill-rule="evenodd" clip-rule="evenodd" d="M174.111 358.12C174.914 358.621 175.561 358.165 175.555 357.098C175.468 346.495 175.425 341.18 175.338 330.545C175.329 329.461 175.981 328.993 176.793 329.511C178.919 330.867 181.646 332.581 185.014 334.668C185.833 335.174 186.511 336.456 186.524 337.531C186.594 343.036 178.156 357.587 181.577 365.341C182.013 366.325 181.81 367.14 182.648 367.658L174.111 358.12Z" stroke="black" stroke-width="1.5" stroke-linejoin="round"/>
<path fill-rule="evenodd" clip-rule="evenodd" d="M201.568 373.254C201.353 362.321 201.249 356.836 201.03 345.844C201.012 344.801 201.634 344.331 202.443 344.764C207.098 347.228 211.319 349.167 215.079 350.549C219.228 352.075 223.239 352.965 227.098 353.207C230.955 353.452 234.211 352.828 236.827 351.379C239.44 349.93 241.6 347.433 243.287 343.913C244.971 340.387 246.008 335.828 246.367 330.223C247.023 319.231 245.162 309.544 240.867 301.127C237.252 294.043 232.228 287.525 226.058 281.658C224.759 280.418 224.458 278.189 225.552 277.876C233.131 275.705 236.473 267.7 234.984 253.71C234.41 248.009 232.987 242.573 230.761 237.394C228.539 232.216 225.622 227.434 222.112 223.076C218.602 218.718 214.903 214.823 211.056 211.403C207.563 208.296 203.7 205.262 199.496 202.315C198.76 201.8 198.182 200.641 198.161 199.627C197.951 188.754 197.842 183.33 197.631 172.511C197.609 171.432 196.965 170.206 196.192 169.772C191.928 167.39 189.84 166.226 185.676 163.898C184.921 163.476 184.32 164 184.332 165.075C184.332 165.075 172.05 189.127 172.871 200.04C174.894 226.958 219.83 263.36 205.036 306.954C200.383 320.667 201.568 373.254 201.568 373.254Z" stroke="black" stroke-width="1.5" stroke-linejoin="round"/>
<path fill-rule="evenodd" clip-rule="evenodd" d="M175.571 187.929C174.796 187.517 174.146 186.284 174.138 185.196C174.093 179.752 173.971 164.61 173.926 159.24C173.916 158.172 173.299 156.97 172.542 156.548C168.355 154.205 166.253 153.026 161.946 150.611C161.166 150.174 160.537 150.68 160.541 151.741C160.541 151.741 172.542 156.548 173.835 159.232C178.384 168.672 175.571 187.929 175.571 187.929Z" stroke="black" stroke-width="1.5" stroke-linejoin="round"/>
<path fill-rule="evenodd" clip-rule="evenodd" d="M142.684 159.202L160.825 150.791L172.539 156.546L153.904 165.49L142.684 159.202Z" fill="white"/>
<path fill-rule="evenodd" clip-rule="evenodd" d="M142.684 159.202L160.825 150.791L172.539 156.546L153.904 165.49L142.684 159.202Z" stroke="black" stroke-width="1.5" stroke-linejoin="round"/>
<path fill-rule="evenodd" clip-rule="evenodd" d="M166.463 172.715L184.954 163.788L197.071 170.693L178.457 179.682L166.463 172.715Z" fill="white"/>
<path fill-rule="evenodd" clip-rule="evenodd" d="M166.463 172.715L184.954 163.788L197.071 170.693L178.457 179.682L166.463 172.715Z" stroke="black" stroke-width="1.5" stroke-linejoin="round"/>
<path fill-rule="evenodd" clip-rule="evenodd" d="M113.276 172.826L131.884 164.205L145.409 169.063L142.852 189.779L113.276 172.826Z" fill="white"/>
<path fill-rule="evenodd" clip-rule="evenodd" d="M113.276 172.826L131.884 164.205L145.409 169.063L142.852 189.779L113.276 172.826Z" stroke="black" stroke-width="1.5" stroke-linejoin="round"/>
<path fill-rule="evenodd" clip-rule="evenodd" d="M199.236 349.217L181.606 346.084L168.227 373.103L183.233 384.275L201.139 374.357" fill="white"/>
<path d="M182.621 366.195L168.227 373.103L183.233 384.275L201.139 374.357" stroke="black" stroke-width="1.5" stroke-linejoin="round"/>
<path fill-rule="evenodd" clip-rule="evenodd" d="M143.116 357.547L157.546 368.656L170.663 359.901L170.202 327.212" fill="white"/>
<path d="M143.116 357.547L157.546 368.656L173.343 357.627" stroke="black" stroke-width="1.5" stroke-linejoin="round"/>
<path fill-rule="evenodd" clip-rule="evenodd" d="M227.729 339.167L214.204 361.763C214.204 361.763 233.591 357.764 241.206 347.406C248.827 337.052 246.181 319.843 246.181 319.843" fill="white"/>
<path d="M227.729 339.167L214.204 361.763C214.204 361.763 233.591 357.764 241.206 347.406C248.827 337.052 246.181 319.843 246.181 319.843" stroke="black" stroke-width="1.5" stroke-linejoin="round"/>
<path fill-rule="evenodd" clip-rule="evenodd" d="M195.744 324.18C195.173 325.726 194.423 326.921 193.486 327.762C192.552 328.597 191.306 329.092 189.757 329.237C188.212 329.384 186.712 329.347 185.269 329.136C183.823 328.925 182.077 328.447 180.05 327.714C178.015 326.977 176.248 326.247 174.725 325.531C173.211 324.813 171.407 323.878 169.318 322.726C167.234 321.572 165.617 320.649 164.463 319.946C163.31 319.239 161.855 318.327 160.105 317.221C159.342 316.739 158.703 316.336 158.184 316.009C157.394 315.512 156.761 314.266 156.751 313.202C156.629 298.33 156.566 290.882 156.439 275.99C156.432 274.929 157.044 274.435 157.817 274.872C158.518 275.27 159.462 275.803 160.645 276.467C162.993 277.784 164.919 278.895 166.414 279.784C167.913 280.677 169.987 282.036 172.658 283.865C175.327 285.694 177.599 287.401 179.458 288.985C181.317 290.573 183.36 292.527 185.607 294.864C187.855 297.194 189.71 299.516 191.15 301.819C192.586 304.126 193.823 306.714 194.85 309.591C195.879 312.467 196.436 315.401 196.513 318.382C196.572 320.704 196.316 322.635 195.744 324.18Z" fill="white"/>
<path fill-rule="evenodd" clip-rule="evenodd" d="M155.96 218.079C156.367 218.312 157.51 218.95 159.399 219.996C161.282 221.039 162.851 221.902 164.101 222.579C165.355 223.258 167.043 224.33 169.185 225.805C171.327 227.28 173.147 228.646 174.634 229.905C176.124 231.165 177.776 232.78 179.595 234.755C181.421 236.733 182.901 238.714 184.027 240.701C185.156 242.685 186.133 244.952 186.951 247.498C187.775 250.042 188.219 252.68 188.283 255.402C188.339 257.714 188.105 259.66 187.589 261.239C187.077 262.816 186.27 263.922 185.181 264.558C184.098 265.197 182.979 265.649 181.833 265.918C180.69 266.188 179.219 266.085 177.44 265.615C175.661 265.147 174.119 264.686 172.803 264.239C171.484 263.791 169.846 263.052 167.881 262.016C165.916 260.979 164.438 260.189 163.434 259.641C162.427 259.086 161.055 258.276 159.317 257.213C158.661 256.812 158.107 256.475 157.659 256.199C156.886 255.73 156.265 254.502 156.255 253.44C156.139 239.288 156.08 232.212 155.96 218.079Z" fill="white"/>
<path fill-rule="evenodd" clip-rule="evenodd" d="M222.231 310.072C218.615 302.988 213.595 296.471 207.426 290.601C206.122 289.363 205.821 287.135 206.915 286.821C214.494 284.648 217.837 276.642 216.348 262.652C215.777 256.951 214.354 251.516 212.129 246.337C209.902 241.161 206.989 236.376 203.476 232.021C199.969 227.664 196.27 223.765 192.42 220.345C188.927 217.238 185.063 214.207 180.863 211.261C180.127 210.743 179.549 209.587 179.525 208.57C179.315 197.699 179.209 192.272 178.994 181.454C178.973 180.375 178.329 179.151 177.556 178.718C173.294 176.336 171.207 175.172 167.039 172.84C166.285 172.418 165.687 172.943 165.699 174.021C165.831 184.354 165.896 189.537 166.024 199.915C166.04 200.984 165.442 201.509 164.682 201.083C162.718 199.991 160.14 198.589 156.935 196.874C156.16 196.46 155.511 195.226 155.503 194.139C155.457 188.694 155.335 173.555 155.293 168.182C155.28 167.117 154.664 165.916 153.906 165.49C149.723 163.151 147.617 161.968 143.31 159.554C142.531 159.116 141.902 159.622 141.909 160.683C141.972 171.287 142.004 176.594 142.069 187.215C142.074 188.269 141.471 188.778 140.696 188.363C138.848 187.366 136.424 186.023 133.363 184.3C126.211 180.227 122.53 178.139 114.693 173.734C113.801 173.234 113.094 173.704 113.125 174.787C113.279 181.214 113.356 184.429 113.513 190.857C113.538 191.936 114.263 193.199 115.13 193.673C118.841 195.721 120.651 196.732 124.22 198.719C128.91 201.342 131.602 205.519 132.47 211.314C132.494 211.46 132.501 211.61 132.505 211.747C132.62 225.518 132.68 232.402 132.794 246.18C133.393 246.518 132.788 246.216 133.151 246.5C133.008 246.42 132.937 246.381 132.797 246.301C132.96 265.641 133.042 275.312 133.206 294.643C133.209 294.763 133.202 294.88 133.19 294.986C132.727 298.682 131.068 299.702 128.216 298.092C124.838 296.18 123.155 295.245 119.789 293.428C119.114 293.061 118.555 293.44 118.46 294.317C117.734 301.183 117.377 304.628 116.696 311.536C116.587 312.656 117.241 314.066 118.07 314.501C124.129 317.694 127.203 319.421 133.448 323.042C134.542 323.676 136.121 324.618 138.215 325.893C139.53 326.696 140.643 327.377 141.549 327.929C142.32 328.395 142.946 329.633 142.953 330.691C143.018 341.442 143.05 346.817 143.115 357.548C143.122 358.61 143.758 359.852 144.538 360.325C148.84 362.944 151.028 364.3 155.475 367.062C156.282 367.563 156.929 367.108 156.919 366.043C156.833 355.437 156.789 350.122 156.702 339.487C156.694 338.403 157.349 337.935 158.157 338.456C160.283 339.813 163.01 341.526 166.379 343.614C167.198 344.12 167.876 345.398 167.888 346.473C167.958 351.978 168.158 367.615 168.226 373.104C168.238 374.175 168.923 375.457 169.76 375.981C174.363 378.851 176.696 380.303 181.417 383.202C182.277 383.725 182.953 383.278 182.932 382.196C182.717 371.264 182.613 365.778 182.397 354.79C182.375 353.747 182.998 353.273 183.811 353.707C188.461 356.174 192.683 358.11 196.447 359.492C200.595 361.018 204.606 361.911 208.461 362.149C212.319 362.394 215.574 361.774 218.191 360.325C220.807 358.873 222.963 356.379 224.654 352.856C226.335 349.332 227.372 344.771 227.73 339.168C228.389 328.177 226.526 318.487 222.231 310.072Z" fill="white"/>
<path fill-rule="evenodd" clip-rule="evenodd" d="M195.744 324.18C195.173 325.726 194.423 326.921 193.486 327.762C192.552 328.597 191.306 329.092 189.757 329.237C188.212 329.384 186.712 329.347 185.269 329.136C183.823 328.925 182.077 328.447 180.05 327.714C178.015 326.977 176.248 326.247 174.725 325.531C173.211 324.813 171.407 323.878 169.318 322.726C167.234 321.572 165.617 320.649 164.463 319.946C163.31 319.239 161.855 318.327 160.105 317.221C159.342 316.739 158.703 316.336 158.184 316.009C157.394 315.512 156.761 314.266 156.751 313.202C156.629 298.33 156.566 290.882 156.439 275.99C156.432 274.929 157.044 274.435 157.817 274.872C158.518 275.27 159.462 275.803 160.645 276.467C162.993 277.784 164.919 278.895 166.414 279.784C167.913 280.677 169.987 282.036 172.658 283.865C175.327 285.694 177.599 287.401 179.458 288.985C181.317 290.573 183.36 292.527 185.607 294.864C187.855 297.194 189.71 299.516 191.15 301.819C192.586 304.126 193.823 306.714 194.85 309.591C195.879 312.467 196.436 315.401 196.513 318.382C196.572 320.704 196.316 322.635 195.744 324.18Z" fill="#9595EF" stroke="black" stroke-width="1.5" stroke-linejoin="round"/>
<path fill-rule="evenodd" clip-rule="evenodd" d="M155.96 218.079C156.367 218.312 157.51 218.95 159.399 219.996C161.282 221.039 162.851 221.902 164.101 222.579C165.355 223.258 167.043 224.33 169.185 225.805C171.327 227.28 173.147 228.646 174.634 229.905C176.124 231.165 177.776 232.78 179.595 234.755C181.421 236.733 182.901 238.714 184.027 240.701C185.156 242.685 186.133 244.952 186.951 247.498C187.775 250.042 188.219 252.68 188.283 255.402C188.339 257.714 188.105 259.66 187.589 261.239C187.077 262.816 186.27 263.922 185.181 264.558C184.098 265.197 182.979 265.649 181.833 265.918C180.69 266.188 179.219 266.085 177.44 265.615C175.661 265.147 174.119 264.686 172.803 264.239C171.484 263.791 169.846 263.052 167.881 262.016C165.916 260.979 164.438 260.189 163.434 259.641C162.427 259.086 161.055 258.276 159.317 257.213C158.661 256.812 158.107 256.475 157.659 256.199C156.886 255.73 156.265 254.502 156.255 253.44C156.139 239.288 156.08 232.212 155.96 218.079Z" fill="#9595EF" stroke="black" stroke-width="1.5" stroke-linejoin="round"/>
<path fill-rule="evenodd" clip-rule="evenodd" d="M222.231 310.072C218.615 302.988 213.595 296.471 207.426 290.601C206.122 289.363 205.821 287.135 206.915 286.821C214.494 284.648 217.837 276.642 216.348 262.652C215.777 256.951 214.354 251.516 212.129 246.337C209.902 241.161 206.989 236.376 203.476 232.021C199.969 227.664 196.27 223.765 192.42 220.345C188.927 217.238 185.063 214.207 180.863 211.261C180.127 210.743 179.549 209.587 179.525 208.57C179.315 197.699 179.209 192.272 178.994 181.454C178.973 180.375 178.329 179.151 177.556 178.718C173.294 176.336 171.207 175.172 167.039 172.84C166.285 172.418 165.687 172.943 165.699 174.021C165.831 184.354 165.896 189.537 166.024 199.915C166.04 200.984 165.442 201.509 164.682 201.083C162.718 199.991 160.14 198.589 156.935 196.874C156.16 196.46 155.511 195.226 155.503 194.139C155.457 188.694 155.335 173.555 155.293 168.182C155.28 167.117 154.664 165.916 153.906 165.49C149.723 163.151 147.617 161.968 143.31 159.554C142.531 159.116 141.902 159.622 141.909 160.683C141.972 171.287 142.004 176.594 142.069 187.215C142.074 188.269 141.471 188.778 140.696 188.363C138.848 187.366 136.424 186.023 133.363 184.3C126.211 180.227 122.53 178.139 114.693 173.734C113.801 173.234 113.094 173.704 113.125 174.787C113.279 181.214 113.356 184.429 113.513 190.857C113.538 191.936 114.263 193.199 115.13 193.673C118.841 195.721 120.651 196.732 124.22 198.719C128.91 201.342 131.602 205.519 132.47 211.314C132.494 211.46 132.501 211.61 132.505 211.747C132.62 225.518 132.68 232.402 132.794 246.18C133.393 246.518 132.788 246.216 133.151 246.5C133.008 246.42 132.937 246.381 132.797 246.301C132.96 265.641 133.042 275.312 133.206 294.643C133.209 294.763 133.202 294.88 133.19 294.986C132.727 298.682 131.068 299.702 128.216 298.092C124.838 296.18 123.155 295.245 119.789 293.428C119.114 293.061 118.555 293.44 118.46 294.317C117.734 301.183 117.377 304.628 116.696 311.536C116.587 312.656 117.241 314.066 118.07 314.501C124.129 317.694 127.203 319.421 133.448 323.042C134.542 323.676 136.121 324.618 138.215 325.893C139.53 326.696 140.643 327.377 141.549 327.929C142.32 328.395 142.946 329.633 142.953 330.691C143.018 341.442 143.05 346.817 143.115 357.548C143.122 358.61 143.758 359.852 144.538 360.325C148.84 362.944 151.028 364.3 155.475 367.062C156.282 367.563 156.929 367.108 156.919 366.043C156.833 355.437 156.789 350.122 156.702 339.487C156.694 338.403 157.349 337.935 158.157 338.456C160.283 339.813 163.01 341.526 166.379 343.614C167.198 344.12 167.876 345.398 167.888 346.473C167.958 351.978 168.158 367.615 168.226 373.104C168.238 374.175 168.923 375.457 169.76 375.981C174.363 378.851 176.696 380.303 181.417 383.202C182.277 383.725 182.953 383.278 182.932 382.196C182.717 371.264 182.613 365.778 182.397 354.79C182.375 353.747 182.998 353.273 183.811 353.707C188.461 356.174 192.682 358.11 196.447 359.492C200.595 361.018 204.606 361.911 208.461 362.149C212.319 362.394 215.574 361.774 218.191 360.325C220.807 358.873 222.963 356.379 224.654 352.856C226.335 349.332 227.372 344.771 227.73 339.168C228.389 328.177 226.526 318.487 222.231 310.072Z" stroke="black" stroke-width="1.5" stroke-linejoin="round"/>
</svg>
