<svg width="135" height="140" viewBox="0 0 135 140" fill="none" xmlns="http://www.w3.org/2000/svg">
<path fill-rule="evenodd" clip-rule="evenodd" d="M88.0171 107.899C107.72 87.9673 128.453 91.6463 126.366 62.413C124.515 36.4926 99.0373 19.1075 63.008 19.1235C8.74248 19.1471 4.87665 69.2834 15.2312 92.1974C20.4086 103.655 34.181 124.384 50.1064 127.464C66.0318 130.544 78.417 117.61 88.0171 107.899Z" fill="#9595EF"/>
<path d="M59.6208 76.6173L71.5621 85.12L67.5027 98.0825L55.7035 99.2868L47.759 77.3577L59.6208 76.6173Z" fill="#9595EF" stroke="black" stroke-width="2" stroke-linejoin="round"/>
<path d="M59.2726 86.2288L71.7209 85.0935" stroke="black" stroke-width="2"/>
<path d="M68.7043 4.01236L92.9882 17.9243L73 79L63.0676 79.8377L57.3448 7.39804L68.7043 4.01236Z" fill="#9595EF" stroke="black" stroke-width="2" stroke-linecap="square" stroke-linejoin="round"/>
<path d="M81.6285 21.3099L92.988 17.9242" stroke="black" stroke-width="2"/>
<path d="M57.3447 7.39795L81.6286 21.3099L63.0675 79.8376L49.5913 70.5833L57.3447 7.39795Z" fill="white" stroke="black" stroke-width="2" stroke-linecap="square" stroke-linejoin="round"/>
<path d="M47.8218 77.8218L59.7631 86.3244L55.7036 99.2869L46.6108 91.8497L47.8218 77.8218Z" fill="white" stroke="black" stroke-width="2" stroke-linejoin="round"/>
</svg>
