<svg width="140" height="140" viewBox="0 0 140 140" fill="none" xmlns="http://www.w3.org/2000/svg">
<g clip-path="url(#clip0)">
<path fill-rule="evenodd" clip-rule="evenodd" d="M29.1501 131.929L10.1576 143.38C8.56047 144.344 8.55761 146.658 10.1523 147.625L38.2213 164.641C39.0027 165.115 39.9806 165.121 40.7673 164.657L60.8152 152.831C62.4548 151.864 62.4385 149.486 60.7854 148.542L31.6609 131.899C30.8807 131.453 29.92 131.464 29.1501 131.929Z" stroke="black" stroke-width="1.92019" stroke-linecap="round" stroke-linejoin="round" stroke-dasharray="3.84 7.68"/>
<path fill-rule="evenodd" clip-rule="evenodd" d="M77.9724 86.4743L88.6338 81.4477C89.0218 77.087 85.1483 74.8682 85.1483 74.8682L73.3555 80.282L77.9724 86.4743Z" fill="white"/>
<path fill-rule="evenodd" clip-rule="evenodd" d="M77.9724 86.4743L88.6338 81.4477C89.0218 77.087 85.1483 74.8682 85.1483 74.8682L73.3555 80.282L77.9724 86.4743Z" stroke="black" stroke-width="1.96539" stroke-linejoin="round"/>
<path fill-rule="evenodd" clip-rule="evenodd" d="M83.7649 73.9092L19.6667 37.5777C18.4474 36.8862 17.1101 36.8523 15.957 37.2808L3.66864 43.9028L11.5063 45.0482L13.0556 96.6841C13.0556 100.62 15.1637 104.254 18.5801 106.207L76.6527 139.42L73.351 140.663L75.1364 148.964C75.1364 148.964 86.8615 142.592 87.379 142.092L87.3839 142.089V142.088C88.1428 141.352 88.6334 140.321 88.6334 139.118V82.2648C88.6334 78.8059 86.7741 75.6146 83.7649 73.9092Z" fill="white"/>
<path fill-rule="evenodd" clip-rule="evenodd" d="M83.7649 73.9092L19.6667 37.5777C18.4474 36.8862 17.1101 36.8523 15.957 37.2808L3.66864 43.9028L11.5063 45.0482L13.0556 96.6841C13.0556 100.62 15.1637 104.254 18.5801 106.208L76.6527 139.42L73.351 140.663L75.1364 148.964C75.1364 148.964 86.8615 142.592 87.379 142.092L87.3839 142.089V142.088C88.1428 141.352 88.6334 140.321 88.6334 139.118V82.2648C88.6334 78.8059 86.7741 75.6146 83.7649 73.9092Z" stroke="black" stroke-width="1.96539" stroke-linejoin="round"/>
<path fill-rule="evenodd" clip-rule="evenodd" d="M2.06274 102.569V47.3141C2.06274 43.9214 5.7222 41.7888 8.67419 43.4623L72.772 79.7934C75.7812 81.4991 77.6409 84.6905 77.6409 88.1494V145.003C77.6409 148.19 74.198 150.187 71.4314 148.605L7.58726 112.092C4.17084 110.138 2.06274 106.504 2.06274 102.569Z" fill="#9595EF"/>
<path fill-rule="evenodd" clip-rule="evenodd" d="M2.06274 102.569V47.3141C2.06274 43.9214 5.7222 41.7888 8.67419 43.4623L72.772 79.7934C75.7812 81.4991 77.6409 84.6905 77.6409 88.1494V145.003C77.6409 148.19 74.198 150.187 71.4314 148.605L7.58726 112.092C4.17084 110.138 2.06274 106.504 2.06274 102.569Z" stroke="black" stroke-width="1.96539" stroke-linejoin="round"/>
<path fill-rule="evenodd" clip-rule="evenodd" d="M6.73883 89.0948V54.5654C6.73883 51.5922 9.9457 49.7239 12.5321 51.1899L68.6983 83.0262C71.3354 84.5203 72.9648 87.3167 72.9648 90.3475V126.278C72.9648 129.07 69.9478 130.82 67.524 129.434L11.58 97.4401C8.58592 95.7278 6.73883 92.543 6.73883 89.0948Z" fill="white"/>
<path fill-rule="evenodd" clip-rule="evenodd" d="M2.06279 98.3896L77.6267 141.061C77.6267 141.061 78.9044 149.611 73.3513 148.964C69.9406 148.567 6.97052 112.461 4.59773 109.757C3.61169 108.633 1.62205 104.713 2.06279 98.3896Z" fill="white"/>
<path fill-rule="evenodd" clip-rule="evenodd" d="M2.06279 98.3896L77.6267 141.061C77.6267 141.061 78.9044 149.611 73.3513 148.964C69.9406 148.567 6.97052 112.461 4.59773 109.757C3.61169 108.633 1.62205 104.713 2.06279 98.3896Z" stroke="black" stroke-width="1.96539" stroke-linejoin="round"/>
<path fill-rule="evenodd" clip-rule="evenodd" d="M38.3085 124.406C38.2566 126.029 36.4827 126.362 35.0359 125.453C33.5887 124.544 32.5418 122.677 32.5426 121.243C32.5438 119.809 33.7798 119.181 35.4472 120.031C37.1146 120.882 38.36 122.783 38.3085 124.406Z" fill="white"/>
<path fill-rule="evenodd" clip-rule="evenodd" d="M38.3085 124.406C38.2566 126.029 36.4827 126.362 35.0359 125.453C33.5887 124.544 32.5418 122.677 32.5426 121.243C32.5438 119.809 33.7798 119.181 35.4472 120.031C37.1146 120.882 38.36 122.783 38.3085 124.406Z" stroke="black" stroke-width="1.96539" stroke-linejoin="round"/>
<path fill-rule="evenodd" clip-rule="evenodd" d="M27.8668 124.205L27.7635 132.277L54.3465 147.576L54.5491 139.209L27.8668 124.205Z" fill="#9595EF"/>
<path fill-rule="evenodd" clip-rule="evenodd" d="M27.8668 124.205L27.7635 132.277L54.3465 147.576L54.5491 139.209L27.8668 124.205Z" stroke="black" stroke-width="1.96539" stroke-linejoin="round"/>
<path fill-rule="evenodd" clip-rule="evenodd" d="M14.0629 140.599L27.2507 132.508C27.5701 132.341 27.9528 132.348 28.2669 132.526L53.2965 146.713C53.9746 147.097 54.0228 148.057 53.386 148.506L42.0678 156.504C41.7226 156.747 41.2664 156.764 40.9049 156.546L14.0057 142.452C13.295 142.024 13.3272 140.982 14.0629 140.599Z" fill="white"/>
<path fill-rule="evenodd" clip-rule="evenodd" d="M14.0629 140.599L27.2507 132.508C27.5701 132.341 27.9528 132.348 28.2669 132.526L53.2965 146.713C53.9746 147.097 54.0228 148.057 53.386 148.506L42.0678 156.504C41.7226 156.747 41.2664 156.764 40.9049 156.546L14.0057 142.452C13.295 142.024 13.3272 140.982 14.0629 140.599Z" stroke="black" stroke-width="1.96539" stroke-linejoin="round"/>
<path fill-rule="evenodd" clip-rule="evenodd" d="M13.3627 141.696L13.5669 143.852C13.5939 144.137 13.7572 144.391 14.0048 144.534L39.6087 159.736C40.2296 160.095 40.9971 159.603 40.9313 158.889L40.7222 156.219C40.696 155.932 40.5314 155.677 40.2819 155.533L14.6828 140.846C14.0607 140.489 13.2949 140.982 13.3627 141.696Z" stroke="black" stroke-width="1.96539" stroke-linejoin="round"/>
<path fill-rule="evenodd" clip-rule="evenodd" d="M40.6371 156.26L39.6952 159.131C39.7744 159.82 40.5338 160.201 41.133 159.854L57.2593 151.051C57.604 150.852 57.7903 150.46 57.727 150.067L57.8152 141.632C57.7694 141.348 57.1915 141.099 56.9435 140.954C56.9435 140.954 54.0557 139.639 53.994 139.241L53.8384 146.938C53.8984 147.324 53.7195 147.708 53.385 147.909L41.0958 155.326C40.7731 155.52 40.5942 155.885 40.6371 156.26Z" fill="white"/>
<path fill-rule="evenodd" clip-rule="evenodd" d="M40.6371 156.26L39.6952 159.131C39.7744 159.82 40.5338 160.201 41.133 159.854L57.2593 151.051C57.604 150.852 57.7903 150.46 57.727 150.067L57.8152 141.632C57.7694 141.348 57.1915 141.099 56.9435 140.954C56.9435 140.954 54.0557 139.639 53.994 139.241L53.8384 146.938C53.8984 147.324 53.7195 147.708 53.385 147.909L41.0958 155.326C40.7731 155.52 40.5942 155.885 40.6371 156.26Z" stroke="black" stroke-width="1.96539" stroke-linejoin="round"/>
<path fill-rule="evenodd" clip-rule="evenodd" d="M136.18 118.531C134.933 114.395 133.145 110.295 130.864 106.344C128.583 102.393 125.923 98.788 122.96 95.6325C119.89 92.3643 116.628 89.7222 113.264 87.7803C109.899 85.837 106.633 84.71 103.555 84.4297C100.583 84.1582 97.9123 84.6852 95.6161 85.9929C93.3199 87.3015 91.5133 89.3267 90.2487 92.0128C88.9387 94.7934 88.2694 98.1632 88.258 102.03C88.2474 105.896 88.8956 110.027 90.1855 114.309C91.4309 118.444 93.2198 122.545 95.501 126.497C97.7822 130.448 100.442 134.051 103.406 137.208C106.475 140.475 109.737 143.117 113.101 145.06C116.466 147.003 119.732 148.129 122.81 148.411C125.782 148.681 128.453 148.155 130.749 146.847C133.046 145.539 134.851 143.513 136.117 140.828C137.426 138.046 138.096 134.676 138.107 130.81C138.118 126.944 137.469 122.812 136.18 118.531Z" fill="#9595EF"/>
<path fill-rule="evenodd" clip-rule="evenodd" d="M136.18 118.531C134.933 114.395 133.145 110.295 130.864 106.344C128.583 102.393 125.923 98.788 122.96 95.6325C119.89 92.3643 116.628 89.7222 113.264 87.7803C109.899 85.837 106.633 84.71 103.555 84.4297C100.583 84.1582 97.9123 84.6852 95.6161 85.9929C93.3199 87.3015 91.5133 89.3267 90.2487 92.0128C88.9387 94.7934 88.2694 98.1632 88.258 102.03C88.2474 105.896 88.8956 110.027 90.1855 114.309C91.4309 118.444 93.2198 122.545 95.501 126.497C97.7822 130.448 100.442 134.051 103.406 137.208C106.475 140.475 109.737 143.117 113.101 145.06C116.466 147.003 119.732 148.129 122.81 148.411C125.782 148.681 128.453 148.155 130.749 146.847C133.046 145.539 134.851 143.513 136.117 140.828C137.426 138.046 138.096 134.676 138.107 130.81C138.118 126.944 137.469 122.812 136.18 118.531Z" stroke="black" stroke-width="1.96539" stroke-linecap="round" stroke-linejoin="round"/>
<path fill-rule="evenodd" clip-rule="evenodd" d="M131.974 121.537C130.728 117.401 128.939 113.301 126.658 109.35C124.377 105.399 121.717 101.794 118.754 98.6384C115.684 95.3701 112.422 92.7281 109.058 90.7862C105.693 88.8429 102.427 87.7159 99.3494 87.4355C96.3769 87.1641 93.7063 87.6911 91.4101 88.9988C89.1139 90.3074 87.3073 92.3326 86.0427 95.0186C84.7327 97.7992 84.0634 101.169 84.052 105.036C84.0414 108.901 84.6896 113.033 85.9795 117.315C87.2249 121.45 89.0138 125.551 91.295 129.502C93.5762 133.454 96.2356 137.057 99.2001 140.213C102.269 143.481 105.531 146.123 108.895 148.066C112.26 150.008 115.526 151.135 118.604 151.417C121.576 151.687 124.247 151.161 126.543 149.853C128.84 148.544 130.645 146.519 131.911 143.834C133.22 141.052 133.89 137.682 133.901 133.816C133.912 129.95 133.263 125.819 131.974 121.537Z" fill="white"/>
<path fill-rule="evenodd" clip-rule="evenodd" d="M131.974 121.537C130.728 117.401 128.939 113.301 126.658 109.35C124.377 105.399 121.717 101.794 118.754 98.6384C115.684 95.3701 112.422 92.7281 109.058 90.7862C105.693 88.8429 102.427 87.7159 99.3494 87.4355C96.3769 87.1641 93.7063 87.6911 91.4101 88.9988C89.1139 90.3074 87.3073 92.3326 86.0427 95.0186C84.7327 97.7992 84.0634 101.169 84.052 105.036C84.0414 108.901 84.6896 113.033 85.9795 117.315C87.2249 121.45 89.0138 125.551 91.295 129.502C93.5762 133.454 96.2356 137.057 99.2001 140.213C102.269 143.481 105.531 146.123 108.895 148.066C112.26 150.009 115.526 151.135 118.604 151.417C121.576 151.687 124.247 151.161 126.543 149.853C128.84 148.544 130.645 146.519 131.911 143.834C133.22 141.052 133.89 137.682 133.901 133.816C133.912 129.95 133.263 125.819 131.974 121.537Z" stroke="black" stroke-width="1.96539"/>
<path d="M87.5717 92.9131C87.5717 92.9131 112.247 111.378 130.558 117.441" stroke="black" stroke-width="1.96539"/>
<path d="M84.0656 104.275C84.0656 104.275 115.58 126.864 133.89 132.928" stroke="black" stroke-width="1.96539"/>
<path d="M87.2388 121.004C87.2388 121.004 113.46 138.565 130.921 145.627" stroke="black" stroke-width="1.96539"/>
<path d="M108.921 148.066L109.006 91.1475" stroke="black" stroke-width="1.96539"/>
<path fill-rule="evenodd" clip-rule="evenodd" d="M120.553 120.798C120.57 130.499 119.178 152.063 110.363 148.621C101.801 145.277 97.8512 130.246 97.1819 118.237C96.6965 109.517 97.9167 90.4395 105.894 90.0019C106.219 89.9841 106.572 89.9284 106.905 90.0431C109.058 90.7868 110.865 91.743 112.507 93.8702C117.671 100.562 120.541 114.197 120.553 120.798Z" stroke="black" stroke-width="1.96539"/>
</g>
<defs>
<clipPath id="clip0">
<rect width="140" height="140" fill="white"/>
</clipPath>
</defs>
</svg>
