<svg xmlns="http://www.w3.org/2000/svg" width="75" height="77" viewBox="0 0 75 77">
  <g fill="none" fill-rule="evenodd">
    <path fill="#9595EF" fill-opacity=".078" d="M28.0659026,10.2492837 L54.5787966,10.2492837 C65.0722068,10.2492837 73.5787966,18.7558734 73.5787966,29.2492837 L73.5787966,56.5787966 C73.5787966,67.0722068 65.0722068,75.5787966 54.5787966,75.5787966 L28.0659026,75.5787966 C17.5724923,75.5787966 9.06590258,67.0722068 9.06590258,56.5787966 L9.06590258,29.2492837 C9.06590258,18.7558734 17.5724923,10.2492837 28.0659026,10.2492837 Z"/>
    <path fill="#000" fill-rule="nonzero" d="M28.0659026,10.7492837 C27.7897602,10.7492837 27.5659026,10.525426 27.5659026,10.2492837 C27.5659026,9.97314129 27.7897602,9.74928367 28.0659026,9.74928367 L36.0659026,9.74928367 C36.342045,9.74928367 36.5659026,9.97314129 36.5659026,10.2492837 C36.5659026,10.525426 36.342045,10.7492837 36.0659026,10.7492837 L28.0659026,10.7492837 Z M46.0659026,10.7492837 C45.7897602,10.7492837 45.5659026,10.525426 45.5659026,10.2492837 C45.5659026,9.97314129 45.7897602,9.74928367 46.0659026,9.74928367 L54.0659026,9.74928367 C54.342045,9.74928367 54.5659026,9.97314129 54.5659026,10.2492837 C54.5659026,10.525426 54.342045,10.7492837 54.0659026,10.7492837 L46.0659026,10.7492837 Z M63.4587812,13.0157439 C63.2166379,12.8829988 63.1279532,12.5790918 63.2606983,12.3369485 C63.3934434,12.0948053 63.6973505,12.0061206 63.9394937,12.1388657 C66.364158,13.4680884 68.483104,15.3019308 70.1494958,17.5085311 C70.3159116,17.7288954 70.2721778,18.0424425 70.0518136,18.2088583 C69.8314493,18.3752741 69.5179022,18.3315403 69.3514864,18.111176 C67.7701506,16.0172051 65.7592845,14.2769005 63.4587812,13.0157439 Z M72.9555249,27.1016672 C72.923822,26.8273507 73.1204991,26.5792729 73.3948156,26.54757 C73.6691321,26.5158671 73.9172098,26.7125442 73.9489128,26.9868607 C74.0337752,27.7211517 74.0772787,28.462943 74.0787585,29.2108464 L74.0787966,35.0789975 C74.0787984,35.3551398 73.8549422,35.5789989 73.5787998,35.5790007 C73.3026574,35.5790025 73.0787984,35.3551463 73.0787966,35.079004 L73.0787595,29.2118396 C73.0773554,28.5026462 73.036061,27.7985237 72.9555249,27.1016672 Z M73.0787966,45.0790007 C73.0787966,44.8028583 73.3026542,44.5790007 73.5787966,44.5790007 C73.8549389,44.5790007 74.0787966,44.8028583 74.0787966,45.0790007 L74.0787966,53.0790007 C74.0787966,53.3551431 73.8549389,53.5790007 73.5787966,53.5790007 C73.3026542,53.5790007 73.0787966,53.3551431 73.0787966,53.0790007 L73.0787966,45.0790007 Z M72.0012158,62.8158524 C72.0942975,62.5558709 72.3805118,62.4205718 72.6404933,62.5136534 C72.9004749,62.6067351 73.035774,62.8929494 72.9426924,63.1529309 C72.0092516,65.7600761 70.5272991,68.1353245 68.6063276,70.1242415 C68.4144877,70.3228669 68.097953,70.3283676 67.8993276,70.1365277 C67.7007022,69.9446877 67.6952015,69.628153 67.8870414,69.4295276 C69.7098544,67.5422411 71.115839,65.2887527 72.0012158,62.8158524 Z M59.618813,74.3840847 C59.8845559,74.309016 60.1608383,74.4635879 60.2359071,74.7293308 C60.3109758,74.9950738 60.1564039,75.2713562 59.890661,75.3464249 C58.1987504,75.8243666 56.4399819,76.0723543 54.6472897,76.0786758 L51.7360021,76.0787966 C51.4598598,76.078808 51.2359928,75.8549597 51.2359814,75.5788173 C51.2359699,75.3026749 51.4598183,75.078808 51.7359606,75.0787966 L54.645505,75.0786789 C56.3454978,75.0726814 58.0140083,74.8374202 59.618813,74.3840847 Z M41.7359814,75.0787966 C42.0121238,75.0787966 42.2359814,75.3026542 42.2359814,75.5787966 C42.2359814,75.8549389 42.0121238,76.0787966 41.7359814,76.0787966 L33.7359814,76.0787966 C33.459839,76.0787966 33.2359814,75.8549389 33.2359814,75.5787966 C33.2359814,75.3026542 33.459839,75.0787966 33.7359814,75.0787966 L41.7359814,75.0787966 Z M23.876099,74.6024499 C24.1451261,74.664732 24.312726,74.9333112 24.2504438,75.2023382 C24.1881617,75.4713652 23.9195826,75.6389651 23.6505555,75.576683 C20.9451144,74.9503497 18.4185307,73.7521985 16.2246646,72.0731007 C16.005378,71.9052675 15.9636668,71.5914449 16.1315,71.3721582 C16.2993333,71.1528716 16.6131559,71.1111604 16.8324425,71.2789937 C18.9138322,72.8720065 21.3102611,74.008436 23.876099,74.6024499 Z M10.960108,63.6375578 C11.0655447,63.8927788 10.9441205,64.1851495 10.6888995,64.2905861 C10.4336786,64.3960228 10.1413079,64.2745986 10.0358712,64.0193776 C9.0777435,61.7001239 8.57441634,59.2066772 8.56600701,56.6425401 L8.56590258,55.9063353 C8.56586341,55.6301929 8.78968928,55.4063035 9.06583166,55.4062644 C9.34197403,55.4062252 9.5658634,55.6300511 9.56590257,55.9061934 L9.56600432,56.6408289 C9.57398294,59.0729252 10.0513664,61.4378486 10.960108,63.6375578 Z M9.56590258,45.9062643 C9.56590258,46.1824067 9.34204495,46.4062643 9.06590258,46.4062643 C8.7897602,46.4062643 8.56590258,46.1824067 8.56590258,45.9062643 L8.56590258,37.9062643 C8.56590258,37.630122 8.7897602,37.4062643 9.06590258,37.4062643 C9.34204495,37.4062643 9.56590258,37.630122 9.56590258,37.9062643 L9.56590258,45.9062643 Z M9.61135569,27.9420026 C9.59213232,28.2174751 9.35323416,28.425206 9.07776171,28.4059827 C8.80228925,28.3867593 8.59455832,28.1478611 8.61378168,27.8723887 C8.8083444,25.084288 9.59306003,22.4070105 10.902605,19.9856989 C11.0339719,19.7428052 11.33737,19.6523949 11.5802637,19.7837618 C11.8231574,19.9151287 11.9135678,20.2185269 11.7822009,20.4614206 C10.5401,22.7580299 9.79593568,25.2969553 9.61135569,27.9420026 Z M18.393767,13.4759113 C18.1584992,13.6204923 17.8505709,13.5469762 17.7059899,13.3117084 C17.5614088,13.0764406 17.6349249,12.7685123 17.8701927,12.6239312 C20.2192744,11.1803309 22.8513961,10.2481789 25.6174166,9.90157603 C25.8914162,9.86724185 26.1413701,10.0615291 26.1757042,10.3355286 C26.2100384,10.6095282 26.0157512,10.8594821 25.7417516,10.8938163 C23.1181526,11.2225727 20.6220194,12.1065651 18.393767,13.4759113 Z"/>
    <path fill="#DC395F" d="M59.1075977,0 L5.89240234,0 C2.63808594,0 0,2.63808594 0,5.89240234 L0,59.1075977 C0,62.3619141 2.63808594,65 5.89240234,65 L59.1075977,65 C62.3619141,65 65,62.3619141 65,59.1075977 L65,5.89240234 C65,2.63808594 62.3619141,0 59.1075977,0"/>
    <path fill="#FFF" fill-rule="nonzero" d="M21.8365804,20.730733 C23.9904284,20.730733 25.7947506,19.057501 25.7947506,16.8644885 C25.7947506,14.6729811 23.9904284,13 21.8365804,13 C19.6827325,13 17.8789165,14.6729811 17.8789165,16.8644885 C17.8789165,19.0572502 19.6827325,20.730733 21.8365804,20.730733 M13.6296859,41.4316476 C13.3970905,42.4125077 13.2804132,43.4716359 13.2804132,44.3355956 C13.2804132,47.740008 15.1429475,50 19.1011176,50 C22.3837742,50 25.0450799,48.0678812 26.9612705,44.9479433 L25.7912072,49.6021371 L32.3096976,49.6021371 L36.0352724,34.7916511 C36.9666661,31.0418054 38.7709883,29.0953876 41.5069573,29.0953876 C43.6605521,29.0953876 44.9991774,30.4229353 44.9991774,32.6144427 C44.9991774,33.2493678 44.9409653,33.940987 44.7081169,34.6913074 L42.7871174,41.4988779 C42.4960569,42.479738 42.3801389,43.4610998 42.3801389,44.3835097 C42.3801389,47.6153309 44.3003791,49.9791787 48.3167613,49.9791787 C51.7510225,49.9791787 54.4864852,47.7879221 56,42.5376865 L53.4391735,41.5578299 C52.1585072,45.075129 51.0524772,45.7110575 50.1792956,45.7110575 C49.306114,45.7110575 48.8404171,45.1345827 48.8404171,43.9813822 C48.8404171,43.4621033 48.9573476,42.8858793 49.1314777,42.1920023 L50.9945182,35.5597825 C51.4599619,34.0024476 51.6348513,32.6214668 51.6348513,31.3526201 C51.6348513,26.3911236 48.6078218,23.8017533 44.9409653,23.8017533 C41.5069573,23.8017533 38.0142309,26.872021 36.2683739,30.1033405 L37.5485341,24.303472 L27.5957825,24.303472 L26.198692,29.4119721 L30.8554073,29.4119721 L27.9878284,40.7909528 C25.7360323,45.7524493 21.5996825,45.8329751 21.0805824,45.7178307 C20.2281546,45.5271776 19.6829856,45.2063284 19.6829856,44.1085679 C19.6829856,43.475148 19.7994098,42.5652811 20.0904704,41.4682731 L24.4563783,24.303472 L13.3970905,24.303472 L12,29.4119721 L16.5979971,29.4119721 L13.629939,41.4316476"/>
  </g>
</svg>
