<svg xmlns="http://www.w3.org/2000/svg" width="320" height="637" fill="none" viewBox="0 0 320 637">
    <path fill="#EDEDED" d="M0 135.099a3.433 3.433 0 0 1 3.433-3.433v46.586A3.433 3.433 0 0 1 0 174.819v-39.72z" filter="url(#a)"/>
    <path fill="#EDEDED" d="M0 193.454a3.433 3.433 0 0 1 3.433-3.433v46.586A3.433 3.433 0 0 1 0 233.174v-39.72z" filter="url(#b)"/>
    <path fill="#EDEDED" d="M0 89.494a3.433 3.433 0 0 1 3.433-3.433v25.5A3.433 3.433 0 0 1 0 108.128V89.494z" filter="url(#c)"/>
    <path fill="#EDEDED" d="M316.539 146.377a3.433 3.433 0 0 1 3.432 3.433v69.143a3.433 3.433 0 0 1-3.432 3.433v-76.009z" filter="url(#d)"/>
    <path fill="#EDEDED" d="M2.452 49.038C2.452 21.955 24.407 0 51.492 0h216.987c27.084 0 49.04 21.956 49.04 49.038v538.924c0 27.083-21.955 49.038-49.04 49.038H51.492c-27.084 0-49.04-21.956-49.04-49.038V49.038z" filter="url(#e)"/>
    <g filter="url(#f)">
        <path fill="#fff" d="M7.846 49.53c0-24.376 19.76-44.136 44.133-44.136h216.013c24.374 0 44.133 19.76 44.133 44.135v537.942c0 24.375-19.759 44.135-44.133 44.135H51.979c-24.374 0-44.133-19.759-44.133-44.135V49.529z"/>
        <path fill="url(#g)" d="M7.846 49.53c0-24.376 19.76-44.136 44.133-44.136h216.013c24.374 0 44.133 19.76 44.133 44.135v537.942c0 24.375-19.759 44.135-44.133 44.135H51.979c-24.374 0-44.133-19.759-44.133-44.135V49.529z"/>
    </g>
    <path fill="#D6D6D6" d="M312.125 61.297h5.394v4.904h-5.394zM2.452 61.297h5.394v4.904H2.452zM312.125 571.289h5.394v4.904h-5.394zM2.452 571.289h5.394v4.904H2.452z"/>
    <path fill="#F0F0F0" fill-rule="evenodd" d="M127.498 29.422a2.942 2.942 0 1 0 0-5.884 2.942 2.942 0 0 0 0 5.884z" clip-rule="evenodd" filter="url(#h)"/>
    <path fill="#D7D7D7" fill-rule="evenodd" d="M127.498 28.442a1.962 1.962 0 1 0 0-3.925 1.962 1.962 0 0 0 0 3.925z" clip-rule="evenodd" filter="url(#i)"/>
    <path fill="#F0F0F0" fill-rule="evenodd" d="M195.661 31.384a4.903 4.903 0 1 0 0-9.806 4.903 4.903 0 0 0 0 9.806z" clip-rule="evenodd" filter="url(#j)"/>
    <path fill="#D7D7D7" fill-rule="evenodd" d="M195.661 30.403a3.923 3.923 0 1 0 0-7.847 3.923 3.923 0 0 0 0 7.847z" clip-rule="evenodd" filter="url(#k)"/>
    <path fill="#F0F0F0" fill-rule="evenodd" d="M143.681 24.519h32.855a1.961 1.961 0 0 1 0 3.923h-32.855a1.962 1.962 0 1 1 0-3.923z" clip-rule="evenodd" filter="url(#l)"/>
    <rect width="34.817" height="1.962" x="142.7" y="25.5" fill="#D7D7D7" filter="url(#m)" rx=".981"/>
    <path fill="#fff" fill-rule="evenodd" d="M49.037 20.86c-14.896 0-26.97 12.076-26.97 26.971V591.17c0 14.896 12.075 26.971 26.97 26.971h221.897c14.896 0 26.97-12.075 26.97-26.971V47.831c0-14.896-12.075-26.97-26.97-26.97h-29.668v.01a2.943 2.943 0 0 0-3.188 2.913v1.49c0 9.75-7.916 17.653-17.679 17.653H99.572c-9.764 0-17.679-7.901-17.679-17.653v-1.469a2.943 2.943 0 0 0-3.187-2.935v-.01H49.037z" clip-rule="evenodd"/>
    <mask id="o" width="276" height="599" x="22" y="20" maskUnits="userSpaceOnUse">
        <mask id="n" fill="#fff">
            <path fill-rule="evenodd" d="M49.037 20.86c-14.896 0-26.97 12.076-26.97 26.971V591.17c0 14.896 12.075 26.971 26.97 26.971h221.897c14.896 0 26.97-12.075 26.97-26.971V47.831c0-14.896-12.075-26.97-26.97-26.97h-29.668v.01a2.943 2.943 0 0 0-3.188 2.913v1.49c0 9.75-7.916 17.653-17.679 17.653H99.572c-9.764 0-17.679-7.901-17.679-17.653v-1.469a2.943 2.943 0 0 0-3.187-2.935v-.01H49.037z" clip-rule="evenodd"/>
        </mask>
        <path fill="#fff" fill-rule="evenodd" d="M49.037 20.86c-14.896 0-26.97 12.076-26.97 26.971V591.17c0 14.896 12.075 26.971 26.97 26.971h221.897c14.896 0 26.97-12.075 26.97-26.971V47.831c0-14.896-12.075-26.97-26.97-26.97h-29.668v.01a2.943 2.943 0 0 0-3.188 2.913v1.49c0 9.75-7.916 17.653-17.679 17.653H99.572c-9.764 0-17.679-7.901-17.679-17.653v-1.469a2.943 2.943 0 0 0-3.187-2.935v-.01H49.037z" clip-rule="evenodd"/>
        <path fill="#fff" d="M241.266 20.86v-2h-2v2h2zm0 .01l-.165 1.994 2.165.178V20.87h-2zm-3.188 2.913l-2-.014v.014h2zM78.706 20.87h-2v2.172l2.164-.178-.164-1.994zm0-.01h2v-2h-2v2zm-54.64 26.971c0-13.79 11.18-24.97 24.971-24.97v-4c-16 0-28.97 12.97-28.97 28.97h4zm0 543.338V47.831h-4V591.17h4zm24.971 24.971c-13.79 0-24.97-11.179-24.97-24.971h-4c0 16.001 12.97 28.971 28.97 28.971v-4zm221.897 0H49.037v4h221.897v-4zm24.97-24.971c0 13.791-11.179 24.971-24.97 24.971v4c16 0 28.97-12.971 28.97-28.971h-4zm0-543.338V591.17h4V47.831h-4zm-24.97-24.97c13.79 0 24.97 11.178 24.97 24.97h4c0-16-12.97-28.97-28.97-28.97v4zm-29.668 0h29.668v-4h-29.668v4zm2-1.99v-.01h-4v.01h4zm-2.246 1.99c.028 0 .055 0 .081.003l.329-3.987a4.981 4.981 0 0 0-.41-.017v4zm-.942.936a.943.943 0 0 1 .942-.937v-4a4.943 4.943 0 0 0-4.942 4.909l4 .028zm0 1.477v-1.49h-4v1.49h4zm-19.679 19.653c10.865 0 19.679-8.796 19.679-19.653h-4c0 8.642-7.018 15.653-15.679 15.653v4zm-120.827 0H220.4v-4H99.572v4zM79.893 25.274c0 10.86 8.814 19.653 19.68 19.653v-4c-8.663 0-15.68-7.009-15.68-15.653h-4zm0-1.225v1.225h4v-1.225h-4zm0-.244v.244h4v-.244h-4zm4 0a4.943 4.943 0 0 0-4.942-4.945v4c.52 0 .942.422.942.945h4zm-4.942-4.945c-.138 0-.274.006-.41.017l.329 3.987a.972.972 0 0 1 .08-.004v-4zm1.755 2.01v-.01h-4v.01h4zm-31.669 1.99h29.669v-4H49.037v4z" mask="url(#n)"/>
    </mask>
    <g mask="url(#o)">
        <path fill="#F9FCFD" d="M22-16h278.377v729H22z"/>
        <path fill="#F4FBFF" d="M22 17h278v377H22z"/>
        <path fill="#2DA8EF" d="M39.79 90.93h1.194c1.118 0 1.953-.22 2.508-.657.555-.445.832-1.09.832-1.933 0-.852-.234-1.48-.703-1.887-.46-.406-1.187-.61-2.18-.61H39.79v5.087zm8.202-2.72c0 1.845-.578 3.255-1.734 4.231-1.149.977-2.785 1.465-4.91 1.465h-1.559V100h-3.633V82.867h5.473c2.078 0 3.656.45 4.734 1.348 1.086.89 1.63 2.222 1.63 3.996zm10.266-1.558c.484 0 .886.035 1.207.106l-.27 3.351a4.091 4.091 0 0 0-1.054-.117c-1.141 0-2.032.293-2.672.88-.633.585-.95 1.405-.95 2.46V100h-3.574V86.898h2.707l.528 2.204h.175a4.894 4.894 0 0 1 1.641-1.77 4.063 4.063 0 0 1 2.262-.68zm3.433-3.14c0-1.164.649-1.746 1.946-1.746s1.945.582 1.945 1.746c0 .554-.164.988-.492 1.3-.32.305-.805.457-1.453.457-1.297 0-1.946-.585-1.946-1.757zM65.418 100h-3.574V86.898h3.574V100zm15.855 0H77.7v-7.652c0-.946-.168-1.653-.504-2.121-.336-.477-.87-.715-1.605-.715-1 0-1.723.336-2.168 1.007-.445.665-.668 1.77-.668 3.317V100H69.18V86.898h2.73l.48 1.676h.2a3.747 3.747 0 0 1 1.64-1.43c.704-.328 1.5-.492 2.391-.492 1.523 0 2.68.414 3.469 1.242.789.82 1.183 2.008 1.183 3.563V100zm9.2-2.613c.625 0 1.375-.137 2.25-.41v2.66c-.891.398-1.985.597-3.282.597-1.43 0-2.472-.359-3.129-1.078-.648-.726-.972-1.812-.972-3.258v-6.316h-1.711V88.07l1.969-1.195 1.03-2.766h2.286v2.79h3.668v2.683h-3.668v6.316c0 .508.14.883.422 1.125.289.243.668.364 1.137.364zm5.191-14.52h5.332c2.43 0 4.192.348 5.285 1.043 1.102.688 1.653 1.785 1.653 3.293 0 1.024-.243 1.863-.727 2.52a2.858 2.858 0 0 1-1.91 1.183v.117c1.086.243 1.867.696 2.344 1.36.484.664.726 1.547.726 2.648 0 1.563-.566 2.781-1.699 3.656-1.125.876-2.656 1.313-4.594 1.313h-6.41V82.867zm3.633 6.785h2.109c.985 0 1.696-.152 2.133-.457.445-.304.668-.808.668-1.511 0-.657-.242-1.125-.727-1.407-.476-.289-1.234-.433-2.273-.433h-1.91v3.808zm0 2.883V97h2.367c1 0 1.738-.191 2.215-.574.476-.383.715-.969.715-1.758 0-1.422-1.016-2.133-3.047-2.133h-2.25zM111.789 100V82.867h3.633V100h-3.633z"/>
        <path fill="#DBECFF" fill-rule="evenodd" d="M146.797 79.256h139.055c3.589 0 6.498 2.81 6.498 6.279v12.558c0 3.468-2.909 6.279-6.498 6.279H146.797c-3.588 0-6.498-2.811-6.498-6.28V85.536c0-3.468 2.91-6.28 6.498-6.28z" clip-rule="evenodd"/>
        <path fill="#28ACFF" d="M152.653 96l-2.278-6.558h-.042c.06.974.091 1.887.091 2.74V96h-1.166v-7.853h1.81l2.181 6.247h.032l2.245-6.247h1.816V96h-1.236v-3.883c0-.39.009-.9.027-1.526.022-.626.04-1.006.054-1.138h-.043L153.786 96h-1.133zm10.339 0l-.252-.827h-.043c-.287.361-.575.609-.865.741-.29.129-.662.193-1.117.193-.584 0-1.04-.157-1.37-.472-.326-.315-.489-.761-.489-1.338 0-.612.228-1.074.683-1.385.454-.312 1.147-.482 2.078-.51l1.026-.033v-.317c0-.38-.089-.662-.268-.848-.176-.19-.45-.285-.822-.285-.305 0-.596.045-.876.134-.279.09-.548.195-.805.317l-.409-.902a4.329 4.329 0 0 1 1.058-.382c.384-.09.745-.134 1.085-.134.756 0 1.325.165 1.708.494.387.33.581.847.581 1.553V96h-.903zm-1.88-.86c.459 0 .826-.127 1.101-.38.28-.259.419-.618.419-1.08v-.516l-.762.032c-.595.022-1.028.122-1.3.301-.269.175-.403.446-.403.811 0 .265.079.471.236.618.158.143.394.215.709.215zm5.763-2.277l.715-.891 1.794-1.912h1.455l-2.39 2.55L170.99 96h-1.483l-1.906-2.605-.693.57V96h-1.252v-8.357h1.252v4.076l-.065 1.144h.032zm7.67 3.244c-.923 0-1.647-.268-2.17-.805-.519-.54-.778-1.284-.778-2.23 0-.97.241-1.732.725-2.287.483-.555 1.147-.833 1.992-.833.785 0 1.404.238 1.859.715.455.476.682 1.131.682 1.965v.682h-3.959c.018.577.174 1.021.468 1.333.293.307.707.461 1.24.461.351 0 .677-.032.978-.096.304-.068.63-.18.978-.333v1.026c-.308.146-.62.25-.935.311a5.73 5.73 0 0 1-1.08.091zm-.231-5.199c-.401 0-.723.127-.966.382-.24.254-.383.624-.43 1.111h2.696c-.007-.49-.125-.86-.354-1.111-.229-.255-.545-.382-.946-.382zM184.863 96l-.252-.827h-.043c-.287.361-.575.609-.865.741-.29.129-.662.193-1.117.193-.584 0-1.04-.157-1.37-.472-.326-.315-.488-.761-.488-1.338 0-.612.227-1.074.682-1.385.454-.312 1.147-.482 2.078-.51l1.026-.033v-.317c0-.38-.089-.662-.268-.848-.176-.19-.45-.285-.822-.285-.305 0-.596.045-.876.134-.279.09-.548.195-.805.317l-.409-.902a4.322 4.322 0 0 1 1.059-.382c.383-.09.744-.134 1.085-.134.755 0 1.324.165 1.708.494.386.33.58.847.58 1.553V96h-.903zm-1.88-.86c.459 0 .826-.127 1.101-.38.28-.259.419-.618.419-1.08v-.516l-.762.032c-.595.022-1.028.122-1.3.301-.269.175-.403.446-.403.811 0 .265.079.471.236.618.158.143.394.215.709.215zm9.77.86h-1.267v-3.652c0-.459-.093-.8-.279-1.026-.183-.226-.475-.339-.876-.339-.533 0-.924.158-1.171.473-.247.315-.37.843-.37 1.584V96h-1.263v-5.94h.989l.177.778h.064a1.76 1.76 0 0 1 .763-.655 2.556 2.556 0 0 1 1.096-.23c1.425 0 2.137.724 2.137 2.174V96zm8.331 0l-.252-.827h-.043c-.287.361-.575.609-.865.741-.29.129-.663.193-1.117.193-.584 0-1.041-.157-1.37-.472-.326-.315-.489-.761-.489-1.338 0-.612.228-1.074.682-1.385.455-.312 1.148-.482 2.079-.51l1.026-.033v-.317c0-.38-.09-.662-.269-.848-.175-.19-.449-.285-.821-.285a2.85 2.85 0 0 0-.876.134c-.279.09-.548.195-.806.317l-.408-.902a4.314 4.314 0 0 1 1.058-.382c.383-.09.745-.134 1.085-.134.756 0 1.325.165 1.708.494.387.33.58.847.58 1.553V96h-.902zm-1.88-.86c.458 0 .825-.127 1.101-.38.279-.259.419-.618.419-1.08v-.516l-.763.032c-.594.022-1.027.122-1.299.301-.269.175-.403.446-.403.811 0 .265.079.471.236.618.158.143.394.215.709.215zm9.77.86h-1.267v-3.652c0-.459-.094-.8-.28-1.026-.182-.226-.474-.339-.875-.339-.534 0-.924.158-1.171.473-.247.315-.371.843-.371 1.584V96h-1.262v-5.94h.988l.178.778h.064c.179-.282.433-.5.763-.655a2.551 2.551 0 0 1 1.095-.23c1.426 0 2.138.724 2.138 2.174V96zm5.473 0l-.252-.827h-.043c-.287.361-.575.609-.865.741-.29.129-.662.193-1.117.193-.584 0-1.04-.157-1.37-.472-.326-.315-.488-.761-.488-1.338 0-.612.227-1.074.682-1.385.454-.312 1.147-.482 2.078-.51l1.026-.033v-.317c0-.38-.089-.662-.268-.848-.176-.19-.45-.285-.822-.285-.305 0-.596.045-.876.134-.279.09-.548.195-.805.317l-.409-.902a4.322 4.322 0 0 1 1.059-.382c.383-.09.744-.134 1.085-.134.755 0 1.324.165 1.708.494.386.33.58.847.58 1.553V96h-.903zm-1.88-.86c.459 0 .826-.127 1.101-.38.28-.259.419-.618.419-1.08v-.516l-.762.032c-.595.022-1.028.122-1.3.301-.269.175-.403.446-.403.811 0 .265.079.471.236.618.158.143.394.215.709.215zm5.807.86h-1.263v-8.357h1.263V96zm.907-5.94h1.375l1.209 3.367c.182.48.304.931.365 1.354h.043c.032-.197.091-.435.177-.715.086-.282.541-1.618 1.364-4.006h1.365l-2.541 6.73c-.462 1.235-1.232 1.853-2.309 1.853-.28 0-.552-.03-.817-.092v-.999c.19.043.407.065.65.065.609 0 1.037-.353 1.284-1.058l.22-.559-2.385-5.94zm10.791 4.248c0 .58-.211 1.026-.634 1.337-.423.309-1.028.462-1.815.462-.792 0-1.427-.12-1.907-.36v-1.09c.698.323 1.348.484 1.95.484.777 0 1.165-.235 1.165-.704a.557.557 0 0 0-.129-.376 1.524 1.524 0 0 0-.424-.312 7.298 7.298 0 0 0-.822-.365c-.684-.265-1.148-.53-1.391-.795-.24-.265-.36-.608-.36-1.03 0-.51.204-.903.612-1.183.412-.282.971-.424 1.676-.424a4.74 4.74 0 0 1 1.982.424l-.408.951c-.641-.265-1.18-.397-1.617-.397-.666 0-.999.19-.999.569 0 .186.086.344.258.473.175.129.555.306 1.139.531.49.19.846.364 1.069.521.222.158.386.34.494.548.107.204.161.45.161.736zM232.704 96h-1.263v-5.94h1.263V96zm-1.338-7.514c0-.226.061-.4.183-.521.125-.122.302-.183.532-.183.222 0 .393.061.515.183.126.122.188.295.188.52 0 .216-.062.386-.188.511-.122.122-.293.183-.515.183-.23 0-.407-.061-.532-.183-.122-.125-.183-.295-.183-.51zm7.138 5.822c0 .58-.211 1.026-.633 1.337-.423.309-1.028.462-1.816.462-.791 0-1.427-.12-1.907-.36v-1.09c.699.323 1.349.484 1.95.484.777 0 1.166-.235 1.166-.704a.557.557 0 0 0-.129-.376 1.531 1.531 0 0 0-.425-.312 7.188 7.188 0 0 0-.821-.365c-.684-.265-1.148-.53-1.391-.795-.24-.265-.36-.608-.36-1.03 0-.51.204-.903.612-1.183.412-.282.97-.424 1.676-.424a4.74 4.74 0 0 1 1.982.424l-.408.951c-.641-.265-1.18-.397-1.617-.397-.666 0-.999.19-.999.569 0 .186.086.344.258.473.175.129.555.306 1.138.531.491.19.847.364 1.069.521.222.158.387.34.494.548.108.204.161.45.161.736zm7.241-4.356c.254 0 .463.018.628.054l-.123 1.176a2.4 2.4 0 0 0-.559-.064c-.505 0-.915.164-1.23.494-.312.33-.467.757-.467 1.284V96h-1.263v-5.94h.989l.166 1.047h.065c.197-.355.453-.636.768-.843.318-.208.66-.312 1.026-.312zm4.329 6.155c-.924 0-1.647-.268-2.17-.805-.519-.54-.779-1.284-.779-2.23 0-.97.242-1.732.725-2.287.483-.555 1.148-.833 1.993-.833.784 0 1.403.238 1.858.715.455.476.682 1.131.682 1.965v.682h-3.958c.018.577.173 1.021.467 1.333.294.307.707.461 1.241.461.351 0 .677-.032.977-.096.305-.068.631-.18.978-.333v1.026c-.308.146-.62.25-.935.311-.315.061-.675.091-1.079.091zm-.231-5.199c-.401 0-.724.127-.967.382-.24.254-.383.624-.43 1.111h2.697c-.008-.49-.126-.86-.355-1.111-.229-.255-.544-.382-.945-.382zm6.327 4.19c.53 0 .909-.153 1.139-.457.232-.308.349-.772.349-1.391v-.199c0-.734-.12-1.262-.36-1.584-.236-.323-.62-.484-1.15-.484-.451 0-.794.18-1.031.537-.236.359-.354.872-.354 1.542 0 1.357.469 2.036 1.407 2.036zm-.36 1.01c-.734 0-1.309-.27-1.724-.806-.415-.54-.623-1.295-.623-2.262 0-.966.211-1.722.634-2.266.422-.548 1.004-.822 1.745-.822.373 0 .706.07.999.21.298.136.562.361.795.676h.043l.14-.778h1.047v8.583h-1.267v-2.52c0-.157.007-.324.021-.499.014-.175.027-.31.038-.403h-.07c-.373.591-.965.886-1.778.886zm9.05-.108l-.177-.779h-.064a1.79 1.79 0 0 1-.752.65 2.491 2.491 0 0 1-1.107.236c-.719 0-1.257-.179-1.611-.537-.355-.358-.532-.9-.532-1.627V90.06h1.273v3.663c0 .454.093.796.279 1.026.187.225.478.338.876.338.53 0 .918-.158 1.165-.473.251-.318.376-.85.376-1.595v-2.96h1.268V96h-.994zm5.388.107c-.924 0-1.648-.268-2.17-.805-.52-.54-.779-1.284-.779-2.23 0-.97.242-1.732.725-2.287.483-.555 1.148-.833 1.993-.833.784 0 1.403.238 1.858.715.455.476.682 1.131.682 1.965v.682h-3.958c.018.577.173 1.021.467 1.333.294.307.707.461 1.241.461.351 0 .676-.032.977-.096.305-.068.63-.18.978-.333v1.026c-.308.146-.62.25-.935.311-.315.061-.675.091-1.079.091zm-.231-5.199c-.401 0-.724.127-.967.382-.24.254-.383.624-.43 1.111h2.696c-.007-.49-.125-.86-.354-1.111-.229-.255-.544-.382-.945-.382zm7.965 3.4c0 .58-.211 1.026-.634 1.337-.422.309-1.028.462-1.815.462-.792 0-1.427-.12-1.907-.36v-1.09c.698.323 1.348.484 1.95.484.777 0 1.165-.235 1.165-.704a.557.557 0 0 0-.129-.376 1.524 1.524 0 0 0-.424-.312 7.298 7.298 0 0 0-.822-.365c-.684-.265-1.147-.53-1.391-.795-.24-.265-.36-.608-.36-1.03 0-.51.204-.903.613-1.183.411-.282.97-.424 1.675-.424.699 0 1.359.142 1.982.424l-.408.951c-.641-.265-1.18-.397-1.617-.397-.666 0-.999.19-.999.569 0 .186.086.344.258.473.176.129.555.306 1.139.531.49.19.847.364 1.069.521.222.158.386.34.494.548.107.204.161.45.161.736zm3.582.779c.308 0 .616-.048.924-.145v.95c-.139.062-.32.112-.542.151a3.538 3.538 0 0 1-.682.064c-1.196 0-1.794-.63-1.794-1.89v-3.201h-.811v-.559l.87-.462.429-1.257h.779v1.322h1.692v.956h-1.692v3.18c0 .304.075.53.226.676.154.143.354.215.601.215z"/>
        <path fill="#fff" fill-rule="evenodd" d="M31 209.699A8.7 8.7 0 0 1 39.7 201H280.3a8.7 8.7 0 0 1 8.699 8.699v365.602a8.7 8.7 0 0 1-8.699 8.699H39.699A8.7 8.7 0 0 1 31 575.301V209.699z" clip-rule="evenodd" filter="url(#p)"/>
        <path fill="#5DCFFF" d="M63.005 238.896c0 1.009-.364 1.804-1.093 2.385-.724.581-1.733.872-3.028.872-1.193 0-2.248-.224-3.165-.673v-2.202c.754.336 1.391.574 1.911.711a5.696 5.696 0 0 0 1.438.207c.52 0 .917-.1 1.192-.299.28-.198.42-.494.42-.887a.964.964 0 0 0-.183-.581 2.007 2.007 0 0 0-.542-.497c-.235-.158-.717-.41-1.446-.757-.683-.321-1.195-.629-1.536-.925a3.458 3.458 0 0 1-.819-1.032c-.203-.392-.305-.851-.305-1.376 0-.989.334-1.766 1.001-2.332.673-.566 1.6-.849 2.783-.849.581 0 1.134.069 1.66.207.53.137 1.083.331 1.659.581l-.765 1.842a11.197 11.197 0 0 0-1.483-.512 4.708 4.708 0 0 0-1.147-.145c-.449 0-.793.104-1.032.313-.24.209-.36.482-.36.818 0 .209.049.393.146.551.096.153.25.303.458.451.215.143.717.403 1.507.78 1.045.499 1.76 1.002 2.148 1.506.388.5.581 1.114.581 1.843zM70.903 242l-.313-1.093h-.122c-.25.397-.605.706-1.063.925-.459.214-.981.321-1.568.321-1.004 0-1.76-.268-2.27-.803-.51-.54-.765-1.315-.765-2.324v-5.574h2.332v4.993c0 .616.11 1.08.329 1.391.219.306.568.459 1.047.459.653 0 1.124-.217 1.415-.65.29-.438.436-1.162.436-2.171v-4.022h2.331V242h-1.789zm11.89 0H80.46v-4.993c0-.617-.105-1.078-.314-1.384-.204-.311-.527-.466-.97-.466-.597 0-1.03.219-1.3.658-.27.438-.406 1.159-.406 2.163V242H75.14v-8.548h1.782l.313 1.093h.13c.23-.392.56-.698.994-.917.433-.224.93-.337 1.491-.337 1.28 0 2.146.418 2.6 1.254h.206c.23-.397.566-.706 1.01-.925a3.406 3.406 0 0 1 1.513-.329c.969 0 1.7.25 2.195.75.5.494.749 1.289.749 2.385V242h-2.34v-4.993c0-.617-.104-1.078-.313-1.384-.204-.311-.528-.466-.971-.466-.571 0-1 .204-1.285.612-.28.407-.42 1.055-.42 1.942V242zm15.383 0h-2.332v-4.993c0-.617-.104-1.078-.313-1.384-.204-.311-.528-.466-.971-.466-.597 0-1.03.219-1.3.658-.27.438-.405 1.159-.405 2.163V242h-2.332v-8.548h1.781l.314 1.093h.13c.229-.392.56-.698.993-.917.434-.224.93-.337 1.492-.337 1.279 0 2.145.418 2.6 1.254h.206c.229-.397.565-.706 1.009-.925a3.406 3.406 0 0 1 1.514-.329c.968 0 1.7.25 2.194.75.5.494.749 1.289.749 2.385V242h-2.339v-4.993c0-.617-.105-1.078-.314-1.384-.204-.311-.527-.466-.97-.466-.572 0-1 .204-1.285.612-.28.407-.42 1.055-.42 1.942V242zm13.159 0l-.451-1.162h-.062c-.392.494-.797.838-1.215 1.032-.413.189-.953.283-1.621.283-.821 0-1.468-.235-1.942-.704-.469-.468-.704-1.136-.704-2.003 0-.907.316-1.575.948-2.003.638-.433 1.596-.673 2.875-.719l1.484-.046v-.374c0-.867-.444-1.3-1.331-1.3-.683 0-1.486.206-2.408.619l-.773-1.575c.984-.515 2.075-.772 3.273-.772 1.147 0 2.026.25 2.638.749.611.5.917 1.259.917 2.279V242h-1.628zm-.688-3.961l-.903.031c-.678.02-1.182.143-1.514.367-.331.224-.497.566-.497 1.025 0 .657.378.986 1.132.986.54 0 .971-.156 1.292-.467.326-.31.49-.723.49-1.238v-.704zm9.496-4.748c.316 0 .578.023.787.069l-.176 2.187a2.665 2.665 0 0 0-.688-.077c-.744 0-1.325.192-1.743.574-.413.382-.619.917-.619 1.606V242h-2.332v-8.548h1.766l.344 1.437h.115a3.183 3.183 0 0 1 1.07-1.154 2.65 2.65 0 0 1 1.476-.444zm1.116.161h2.554l1.613 4.809c.138.418.232.913.283 1.483h.046a6.503 6.503 0 0 1 .329-1.483l1.582-4.809h2.5l-3.616 9.641c-.331.892-.805 1.56-1.422 2.004-.612.443-1.328.665-2.149.665a5.46 5.46 0 0 1-1.185-.13v-1.851c.281.067.586.1.918.1.413 0 .772-.128 1.078-.382.311-.25.553-.63.726-1.14l.138-.42-3.395-8.487z"/>
        <path stroke="#AABED8" stroke-width=".87" d="M56.423 272.631l205.388.109M57.293 322.217l205.388.109" opacity=".4"/>
        <path fill="#192226" d="M58.318 292.7h-1.843v-7.16h-2.361v-1.534h6.565v1.534h-2.36v7.16zm9.693 0h-1.813v-3.884c0-.959-.357-1.439-1.07-1.439-.508 0-.875.173-1.101.518-.226.345-.339.904-.339 1.677v3.128h-1.814v-9.253h1.814v1.885c0 .146-.014.491-.042 1.034l-.041.536h.095c.404-.651 1.046-.976 1.927-.976.78 0 1.373.21 1.778.631.404.42.606 1.023.606 1.808v4.335zm4.621-5.483c-.385 0-.686.123-.904.368-.218.242-.343.587-.375 1.035H73.9c-.008-.448-.125-.793-.351-1.035-.226-.245-.532-.368-.916-.368zm.256 5.602c-1.07 0-1.907-.296-2.51-.886-.603-.591-.904-1.428-.904-2.51 0-1.114.278-1.974.833-2.581.559-.61 1.33-.916 2.313-.916.94 0 1.671.268 2.194.803.524.535.785 1.275.785 2.218v.88h-4.287c.02.516.172.918.458 1.208.285.289.686.434 1.2.434.401 0 .78-.042 1.137-.125a5.63 5.63 0 0 0 1.118-.399v1.404a4.22 4.22 0 0 1-1.017.351c-.36.079-.801.119-1.32.119zm7.897-6.893c.246 0 .45.018.612.054l-.136 1.701a2.06 2.06 0 0 0-.535-.06c-.58 0-1.031.149-1.356.446-.322.298-.482.714-.482 1.249v3.384h-1.814v-6.649h1.374l.268 1.118h.089a2.49 2.49 0 0 1 .832-.898c.353-.23.736-.345 1.148-.345zm4.573 1.291c-.385 0-.686.123-.904.368-.218.242-.343.587-.374 1.035h2.545c-.008-.448-.125-.793-.351-1.035-.226-.245-.531-.368-.916-.368zm.256 5.602c-1.07 0-1.907-.296-2.51-.886-.602-.591-.904-1.428-.904-2.51 0-1.114.278-1.974.833-2.581.559-.61 1.33-.916 2.313-.916.94 0 1.671.268 2.194.803.524.535.785 1.275.785 2.218v.88h-4.287c.02.516.172.918.458 1.208.285.289.686.434 1.201.434.4 0 .779-.042 1.136-.125a5.63 5.63 0 0 0 1.118-.399v1.404a4.22 4.22 0 0 1-1.017.351c-.36.079-.8.119-1.32.119zm11.572-.119l-.35-.904h-.048c-.305.384-.62.652-.946.803-.32.146-.741.22-1.26.22-.639 0-1.142-.183-1.511-.547-.365-.365-.547-.885-.547-1.559 0-.705.246-1.225.737-1.558.496-.337 1.241-.523 2.236-.559l1.154-.035v-.292c0-.674-.345-1.011-1.035-1.011-.531 0-1.155.161-1.873.482l-.6-1.225c.764-.4 1.613-.601 2.545-.601.892 0 1.575.195 2.051.583.476.389.714.979.714 1.772v4.431h-1.267zm-.535-3.081l-.702.024c-.527.016-.92.111-1.177.286-.258.174-.387.44-.387.796 0 .512.294.768.88.768.42 0 .756-.121 1.005-.363.254-.242.381-.563.381-.964v-.547zm7.386-3.693c.246 0 .45.018.612.054l-.136 1.701a2.064 2.064 0 0 0-.536-.06c-.578 0-1.03.149-1.355.446-.322.298-.482.714-.482 1.249v3.384h-1.814v-6.649h1.374l.267 1.118h.09c.206-.372.483-.672.832-.898.353-.23.736-.345 1.148-.345zm4.573 1.291c-.385 0-.686.123-.904.368-.218.242-.343.587-.375 1.035h2.546c-.008-.448-.125-.793-.351-1.035-.226-.245-.531-.368-.916-.368zm.256 5.602c-1.071 0-1.907-.296-2.51-.886-.602-.591-.904-1.428-.904-2.51 0-1.114.278-1.974.833-2.581.559-.61 1.33-.916 2.313-.916.94 0 1.671.268 2.194.803.524.535.785 1.275.785 2.218v.88h-4.287c.02.516.172.918.458 1.208.285.289.686.434 1.201.434.4 0 .779-.042 1.136-.125a5.637 5.637 0 0 0 1.118-.399v1.404a4.217 4.217 0 0 1-1.017.351 6.277 6.277 0 0 1-1.32.119zm34.087 0c-2.07 0-3.105-1.136-3.105-3.408 0-1.13.282-1.992.845-2.587.563-.598 1.37-.898 2.42-.898.769 0 1.459.151 2.07.452l-.536 1.404a8.683 8.683 0 0 0-.796-.28 2.52 2.52 0 0 0-.738-.113c-.943 0-1.415.67-1.415 2.01 0 1.301.472 1.951 1.415 1.951.349 0 .672-.046.969-.137.298-.095.595-.242.892-.44v1.552c-.293.186-.59.315-.892.387a4.975 4.975 0 0 1-1.129.107zm5.013-3.455c0 .658.107 1.155.321 1.492.218.337.571.506 1.058.506.484 0 .831-.167 1.041-.5.214-.337.321-.836.321-1.498 0-.659-.107-1.152-.321-1.481-.214-.329-.565-.494-1.053-.494-.483 0-.832.165-1.046.494-.214.325-.321.818-.321 1.481zm4.597 0c0 1.082-.286 1.928-.857 2.539-.571.61-1.366.916-2.384.916-.639 0-1.202-.139-1.689-.417a2.8 2.8 0 0 1-1.124-1.207c-.262-.523-.393-1.134-.393-1.831 0-1.087.284-1.931.851-2.534.567-.602 1.363-.904 2.39-.904.639 0 1.201.139 1.689.417.488.277.862.676 1.124 1.195.262.519.393 1.128.393 1.826zm7.451 3.336H158.2v-3.884c0-.479-.081-.838-.244-1.076-.158-.242-.41-.363-.755-.363-.464 0-.801.171-1.011.512-.21.341-.315.902-.315 1.683v3.128h-1.814v-6.649h1.386l.244.851h.101c.178-.306.436-.544.773-.714a2.49 2.49 0 0 1 1.159-.262c.995 0 1.669.325 2.022.976h.161c.178-.31.44-.549.785-.72.349-.17.741-.256 1.177-.256.754 0 1.322.195 1.707.583.389.385.583 1.003.583 1.856v4.335h-1.82v-3.884c0-.479-.081-.838-.244-1.076-.158-.242-.41-.363-.755-.363-.444 0-.777.159-.999.476-.218.317-.327.821-.327 1.511v3.336zm9.663.119c-.781 0-1.393-.284-1.837-.851h-.095c.063.555.095.876.095.964v2.694h-1.814v-9.575h1.475l.256.862h.083c.424-.658 1.052-.987 1.885-.987.785 0 1.399.304 1.843.91.444.607.667 1.449.667 2.528 0 .709-.106 1.326-.316 1.849-.206.523-.501.922-.886 1.195-.384.274-.836.411-1.356.411zm-.535-5.442c-.448 0-.775.139-.981.417-.206.273-.313.727-.321 1.361v.197c0 .713.105 1.225.315 1.534.214.309.551.464 1.011.464.813 0 1.219-.67 1.219-2.01 0-.654-.101-1.144-.303-1.469-.198-.329-.512-.494-.94-.494zm8.813 5.323l-.351-.904h-.047c-.305.384-.621.652-.946.803-.321.146-.741.22-1.26.22-.639 0-1.142-.183-1.511-.547-.365-.365-.547-.885-.547-1.559 0-.705.246-1.225.737-1.558.496-.337 1.241-.523 2.236-.559l1.154-.035v-.292c0-.674-.345-1.011-1.035-1.011-.531 0-1.155.161-1.873.482l-.601-1.225c.766-.4 1.614-.601 2.546-.601.892 0 1.576.195 2.051.583.476.389.714.979.714 1.772v4.431h-1.267zm-.535-3.081l-.702.024c-.527.016-.919.111-1.177.286-.258.174-.387.44-.387.796 0 .512.294.768.88.768.421 0 .756-.121 1.005-.363.254-.242.381-.563.381-.964v-.547zm9.812 3.081h-1.813v-3.884c0-.479-.086-.838-.256-1.076-.171-.242-.442-.363-.815-.363-.507 0-.874.171-1.1.512-.226.337-.339.898-.339 1.683v3.128h-1.814v-6.649h1.386l.244.851h.101c.202-.322.479-.563.832-.726.357-.166.761-.25 1.213-.25.773 0 1.36.21 1.761.631.4.416.6 1.019.6 1.808v4.335zm1.79-8.367c0-.591.329-.886.987-.886.659 0 .988.295.988.886 0 .281-.084.501-.25.66-.163.154-.409.232-.738.232-.658 0-.987-.298-.987-.892zm1.891 8.367H189.1v-6.649h1.813v6.649zm4.663-5.483c-.385 0-.686.123-.904.368-.218.242-.343.587-.375 1.035h2.545c-.008-.448-.125-.793-.351-1.035-.226-.245-.531-.368-.915-.368zm.255 5.602c-1.07 0-1.907-.296-2.509-.886-.603-.591-.904-1.428-.904-2.51 0-1.114.277-1.974.832-2.581.559-.61 1.331-.916 2.314-.916.939 0 1.671.268 2.194.803.523.535.785 1.275.785 2.218v.88h-4.288c.02.516.173.918.458 1.208.286.289.686.434 1.202.434.4 0 .779-.042 1.135-.125.357-.083.73-.216 1.118-.399v1.404a4.217 4.217 0 0 1-1.017.351c-.36.079-.8.119-1.32.119zm8.825-2.094c0 .682-.238 1.202-.713 1.558-.472.357-1.18.536-2.123.536-.484 0-.896-.034-1.237-.101a4.597 4.597 0 0 1-.958-.286v-1.498c.337.158.716.291 1.136.398a4.65 4.65 0 0 0 1.118.161c.658 0 .987-.191.987-.571a.466.466 0 0 0-.13-.345 1.805 1.805 0 0 0-.452-.304 10.82 10.82 0 0 0-.857-.398c-.511-.214-.888-.412-1.13-.595a1.712 1.712 0 0 1-.523-.624c-.107-.238-.161-.529-.161-.874 0-.591.228-1.047.684-1.368.46-.325 1.11-.488 1.951-.488.801 0 1.58.175 2.337.524l-.547 1.308a9.879 9.879 0 0 0-.934-.351 2.937 2.937 0 0 0-.886-.137c-.535 0-.803.145-.803.434 0 .163.086.304.256.423.174.119.553.295 1.136.529.519.21.9.406 1.142.589.241.182.42.392.535.63.115.238.172.521.172.85zm7.38.649c.317 0 .698-.07 1.142-.209v1.35c-.452.203-1.007.304-1.665.304-.726 0-1.255-.183-1.588-.547-.329-.369-.493-.92-.493-1.654v-3.205h-.869v-.767l.999-.607.524-1.403h1.159v1.415h1.862v1.362h-1.862v3.205c0 .258.072.448.214.571.147.123.339.185.577.185zm8.629 1.326h-1.814v-3.884c0-.959-.357-1.439-1.07-1.439-.508 0-.874.173-1.1.518-.226.345-.339.904-.339 1.677v3.128h-1.814v-9.253h1.814v1.885c0 .146-.014.491-.042 1.034l-.042.536h.096c.404-.651 1.046-.976 1.926-.976.781 0 1.374.21 1.778.631.405.42.607 1.023.607 1.808v4.335zm6.09 0l-.351-.904h-.048c-.305.384-.62.652-.945.803-.322.146-.742.22-1.261.22-.638 0-1.142-.183-1.511-.547-.364-.365-.547-.885-.547-1.559 0-.705.246-1.225.738-1.558.495-.337 1.241-.523 2.236-.559l1.153-.035v-.292c0-.674-.345-1.011-1.034-1.011-.532 0-1.156.161-1.874.482l-.6-1.225c.765-.4 1.613-.601 2.545-.601.892 0 1.576.195 2.052.583.475.389.713.979.713 1.772v4.431h-1.266zm-.536-3.081l-.701.024c-.528.016-.92.111-1.178.286-.258.174-.386.44-.386.796 0 .512.293.768.88.768.42 0 .755-.121 1.005-.363.253-.242.38-.563.38-.964v-.547zm6.476 1.755c.318 0 .698-.07 1.142-.209v1.35c-.452.203-1.007.304-1.665.304-.725 0-1.255-.183-1.588-.547-.329-.369-.493-.92-.493-1.654v-3.205h-.869v-.767l1-.607.523-1.403h1.159v1.415h1.862v1.362h-1.862v3.205c0 .258.072.448.215.571.146.123.338.185.576.185zM60.775 307.7H58.96v-3.884c0-.479-.081-.838-.243-1.076-.16-.242-.41-.363-.756-.363-.464 0-.8.171-1.01.512-.21.341-.316.902-.316 1.683v3.128h-1.814v-6.649h1.386l.244.851h.1c.18-.306.437-.544.774-.714a2.492 2.492 0 0 1 1.16-.262c.995 0 1.669.325 2.022.976h.16c.178-.31.44-.549.785-.72.349-.17.741-.256 1.178-.256.753 0 1.322.195 1.706.583.389.385.583 1.003.583 1.856v4.335h-1.82v-3.884c0-.479-.081-.838-.243-1.076-.16-.242-.41-.363-.756-.363-.444 0-.777.159-.999.476-.218.317-.327.821-.327 1.511v3.336zm8.765-5.483c-.385 0-.686.123-.904.368-.218.242-.343.587-.375 1.035h2.545c-.008-.448-.125-.793-.35-1.035-.227-.245-.532-.368-.916-.368zm.255 5.602c-1.07 0-1.907-.296-2.51-.886-.602-.591-.903-1.428-.903-2.51 0-1.114.277-1.974.832-2.581.56-.61 1.33-.916 2.314-.916.94 0 1.67.268 2.194.803.523.535.785 1.275.785 2.218v.88H68.22c.02.516.173.918.458 1.208.286.289.686.434 1.202.434a5 5 0 0 0 1.135-.125 5.63 5.63 0 0 0 1.118-.399v1.404a4.22 4.22 0 0 1-1.017.351c-.36.079-.8.119-1.32.119zm6.94-5.602c-.384 0-.686.123-.904.368-.218.242-.343.587-.374 1.035h2.545c-.008-.448-.125-.793-.351-1.035-.226-.245-.531-.368-.916-.368zm.256 5.602c-1.07 0-1.907-.296-2.51-.886-.602-.591-.903-1.428-.903-2.51 0-1.114.277-1.974.832-2.581.559-.61 1.33-.916 2.313-.916.94 0 1.671.268 2.195.803.523.535.785 1.275.785 2.218v.88h-4.288c.02.516.172.918.458 1.208.285.289.686.434 1.201.434a5 5 0 0 0 1.136-.125 5.63 5.63 0 0 0 1.118-.399v1.404a4.22 4.22 0 0 1-1.017.351c-.36.079-.8.119-1.32.119zm6.987-1.445c.318 0 .698-.07 1.142-.209v1.35c-.452.203-1.007.304-1.665.304-.725 0-1.255-.183-1.588-.547-.329-.369-.493-.92-.493-1.654v-3.205h-.868v-.767l.998-.607.524-1.403h1.16v1.415h1.86v1.362h-1.86v3.205c0 .258.07.448.214.571.146.123.338.185.576.185zm4.704-5.323h1.986l1.255 3.741c.107.325.18.709.22 1.153h.036c.044-.408.129-.792.256-1.153l1.23-3.741h1.945l-2.813 7.499c-.257.694-.626 1.213-1.106 1.558-.475.345-1.032.518-1.67.518-.314 0-.621-.034-.922-.102v-1.439c.218.052.456.078.713.078.321 0 .6-.099.839-.298.242-.194.43-.489.565-.886l.107-.327-2.64-6.601zm9.33 3.313c0 .658.108 1.155.322 1.492.218.337.57.506 1.058.506.484 0 .831-.167 1.041-.5.214-.337.321-.836.321-1.498 0-.659-.107-1.152-.321-1.481-.214-.329-.565-.494-1.052-.494-.484 0-.833.165-1.047.494-.214.325-.321.818-.321 1.481zm4.598 0c0 1.082-.286 1.928-.857 2.539-.571.61-1.365.916-2.384.916-.639 0-1.202-.139-1.69-.417a2.807 2.807 0 0 1-1.123-1.207c-.262-.523-.393-1.134-.393-1.831 0-1.087.284-1.931.85-2.534.568-.602 1.364-.904 2.391-.904.639 0 1.202.139 1.689.417.488.277.863.676 1.124 1.195.262.519.393 1.128.393 1.826zm6.208 3.336l-.244-.851h-.095c-.194.31-.47.549-.826.72-.357.166-.764.25-1.22.25-.781 0-1.369-.208-1.766-.625-.396-.42-.594-1.023-.594-1.808v-4.335h1.813v3.883c0 .48.086.841.256 1.083.171.238.442.357.815.357.507 0 .874-.169 1.1-.506.226-.341.339-.904.339-1.689v-3.128h1.814v6.649h-1.392zm7.005-6.774c.246 0 .45.018.613.054l-.137 1.701a2.06 2.06 0 0 0-.535-.06c-.579 0-1.031.149-1.356.446-.321.298-.482.714-.482 1.249v3.384h-1.813v-6.649h1.373l.268 1.118h.089c.206-.372.484-.672.833-.898.352-.23.735-.345 1.147-.345zm7.684 6.893c-2.07 0-3.105-1.136-3.105-3.408 0-1.13.282-1.992.845-2.587.563-.598 1.37-.898 2.42-.898.769 0 1.459.151 2.07.452l-.536 1.404a8.683 8.683 0 0 0-.796-.28 2.52 2.52 0 0 0-.738-.113c-.943 0-1.415.67-1.415 2.01 0 1.301.472 1.951 1.415 1.951.349 0 .672-.046.97-.137a3.6 3.6 0 0 0 .892-.44v1.552a2.953 2.953 0 0 1-.892.387 4.985 4.985 0 0 1-1.13.107zm7.278-6.893c.246 0 .45.018.613.054l-.137 1.701a2.056 2.056 0 0 0-.535-.06c-.579 0-1.031.149-1.356.446-.321.298-.482.714-.482 1.249v3.384h-1.813v-6.649h1.373l.268 1.118h.089c.206-.372.484-.672.833-.898a2.06 2.06 0 0 1 1.147-.345zm1.743-1.593c0-.591.329-.886.987-.886.658 0 .987.295.987.886 0 .281-.083.501-.25.66-.162.154-.408.232-.737.232-.658 0-.987-.298-.987-.892zm1.891 8.367h-1.814v-6.649h1.814v6.649zm4.71-1.326c.317 0 .698-.07 1.142-.209v1.35c-.452.203-1.007.304-1.666.304-.725 0-1.254-.183-1.587-.547-.329-.369-.494-.92-.494-1.654v-3.205h-.868v-.767l.999-.607.523-1.403h1.16v1.415h1.861v1.362h-1.861v3.205c0 .258.071.448.214.571.147.123.339.185.577.185zm5.245-4.157c-.385 0-.686.123-.904.368-.218.242-.343.587-.375 1.035h2.546c-.008-.448-.125-.793-.351-1.035-.226-.245-.532-.368-.916-.368zm.256 5.602c-1.071 0-1.907-.296-2.51-.886-.603-.591-.904-1.428-.904-2.51 0-1.114.278-1.974.833-2.581.559-.61 1.33-.916 2.313-.916.94 0 1.671.268 2.194.803.524.535.785 1.275.785 2.218v.88h-4.287c.019.516.172.918.458 1.208.285.289.685.434 1.201.434.4 0 .779-.042 1.136-.125a5.66 5.66 0 0 0 1.118-.399v1.404a4.232 4.232 0 0 1-1.017.351 6.277 6.277 0 0 1-1.32.119zm7.897-6.893c.246 0 .45.018.612.054l-.136 1.701a2.064 2.064 0 0 0-.536-.06c-.578 0-1.03.149-1.355.446-.322.298-.482.714-.482 1.249v3.384h-1.814v-6.649h1.374l.267 1.118h.09c.206-.372.483-.672.832-.898.353-.23.736-.345 1.148-.345zm1.742-1.593c0-.591.329-.886.987-.886.659 0 .988.295.988.886 0 .281-.084.501-.25.66-.163.154-.408.232-.738.232-.658 0-.987-.298-.987-.892zm1.891 8.367h-1.813v-6.649h1.813v6.649zm6.131 0l-.35-.904h-.048c-.305.384-.62.652-.945.803-.322.146-.742.22-1.261.22-.638 0-1.142-.183-1.511-.547-.364-.365-.547-.885-.547-1.559 0-.705.246-1.225.738-1.558.495-.337 1.241-.523 2.236-.559l1.153-.035v-.292c0-.674-.345-1.011-1.034-1.011-.532 0-1.156.161-1.874.482l-.6-1.225c.765-.4 1.613-.601 2.545-.601.892 0 1.576.195 2.052.583.475.389.713.979.713 1.772v4.431h-1.267zm-.535-3.081l-.701.024c-.528.016-.92.111-1.178.286-.258.174-.386.44-.386.796 0 .512.293.768.88.768.42 0 .755-.121 1.005-.363.253-.242.38-.563.38-.964v-.547z"/>
        <path fill="#FF8CCB" d="M120.295 292.7h-1.837v-5.031l.018-.827.029-.904a9.674 9.674 0 0 1-.636.601l-.999.803-.886-1.106 2.801-2.23h1.51v8.694zm8.445-4.347c0 1.518-.25 2.642-.75 3.371-.495.73-1.26 1.095-2.295 1.095-1.003 0-1.76-.377-2.272-1.13-.507-.754-.761-1.866-.761-3.336 0-1.535.248-2.665.744-3.39.495-.73 1.258-1.094 2.289-1.094 1.003 0 1.76.38 2.272 1.142.515.761.773 1.875.773 3.342zm-4.252 0c0 1.066.091 1.831.273 2.295.187.46.498.69.934.69.428 0 .737-.234.928-.702.19-.468.285-1.229.285-2.283 0-1.067-.097-1.832-.291-2.296-.191-.468-.498-.702-.922-.702-.432 0-.741.234-.928.702-.186.464-.279 1.229-.279 2.296zm11.21 0c0 1.518-.25 2.642-.75 3.371-.495.73-1.261 1.095-2.295 1.095-1.003 0-1.76-.377-2.272-1.13-.507-.754-.761-1.866-.761-3.336 0-1.535.248-2.665.743-3.39.496-.73 1.259-1.094 2.29-1.094 1.003 0 1.76.38 2.271 1.142.516.761.774 1.875.774 3.342zm-4.252 0c0 1.066.091 1.831.273 2.295.186.46.498.69.934.69.428 0 .737-.234.927-.702.191-.468.286-1.229.286-2.283 0-1.067-.097-1.832-.291-2.296-.191-.468-.498-.702-.922-.702-.432 0-.742.234-.928.702-.186.464-.279 1.229-.279 2.296z"/>
        <path fill="#28ACFF" d="M71.743 398.037H70.59l-4.751-7.297h-.048c.064.856.095 1.641.095 2.355v4.942h-.933v-8.695h1.142l4.74 7.267h.047c-.008-.107-.026-.45-.054-1.028a17.987 17.987 0 0 1-.03-1.249v-4.99h.946v8.695zm7.868-3.265c0 1.062-.268 1.893-.803 2.492-.535.594-1.275.892-2.218.892-.583 0-1.1-.137-1.552-.411a2.706 2.706 0 0 1-1.047-1.177c-.246-.512-.369-1.11-.369-1.796 0-1.063.266-1.889.797-2.48.531-.595 1.269-.892 2.212-.892.912 0 1.636.303 2.17.91.54.606.81 1.427.81 2.462zm-4.966 0c0 .832.167 1.467.5 1.903.333.436.822.654 1.469.654.646 0 1.135-.216 1.468-.648.337-.436.506-1.073.506-1.909 0-.829-.169-1.457-.506-1.885-.333-.432-.826-.648-1.48-.648-.647 0-1.134.212-1.463.636-.33.424-.494 1.056-.494 1.897zm9.675-3.372c.29 0 .55.024.78.071l-.137.916a3.392 3.392 0 0 0-.714-.089c-.527 0-.98.214-1.356.642-.372.428-.559.962-.559 1.6v3.497h-.987v-6.518h.815l.113 1.207h.047c.242-.424.534-.751.875-.981.34-.23.715-.345 1.123-.345zm7.321 6.637l-1.195-3.824a32.435 32.435 0 0 1-.422-1.594h-.048a21.877 21.877 0 0 1-.416 1.606l-1.231 3.812h-1.142l-1.778-6.518h1.034c.42 1.637.74 2.884.958 3.74.222.857.349 1.434.38 1.731h.048a16.053 16.053 0 0 1 .464-1.731l1.195-3.74h1.07l1.166 3.74c.222.682.373 1.255.452 1.719h.048a6.63 6.63 0 0 1 .125-.66c.071-.297.485-1.897 1.243-4.799h1.022l-1.802 6.518h-1.171zm8.165 0l-.196-.928h-.048c-.325.408-.65.686-.975.832-.321.143-.724.215-1.207.215-.647 0-1.154-.167-1.523-.5-.364-.333-.547-.807-.547-1.421 0-1.316 1.053-2.006 3.158-2.07l1.106-.035v-.405c0-.511-.111-.888-.333-1.13-.218-.245-.569-.368-1.053-.368-.543 0-1.157.166-1.843.499l-.303-.755a4.62 4.62 0 0 1 1.052-.41c.385-.1.77-.149 1.154-.149.777 0 1.352.172 1.724.517.377.345.565.898.565 1.659v4.449h-.731zm-2.23-.696c.614 0 1.096-.169 1.445-.506.353-.337.53-.808.53-1.415v-.589l-.988.042c-.785.028-1.352.151-1.7.369-.346.214-.518.549-.518 1.005 0 .356.107.628.321.814.218.187.521.28.91.28zm3.966-5.822h1.059l1.427 3.717c.313.848.508 1.461.583 1.837h.048c.051-.202.158-.547.321-1.034.166-.492.705-1.999 1.617-4.52h1.059l-2.801 7.422c-.278.733-.603 1.252-.976 1.558-.368.309-.822.463-1.361.463a3.93 3.93 0 0 1-.892-.101v-.791c.218.048.462.072.731.072.678 0 1.162-.381 1.451-1.142l.363-.928-2.629-6.553zM172.964 398.473h-1.011v-8.695h4.847v.898h-3.836v3.182h3.604v.898h-3.604v3.717zm6.119 0h-.987v-9.254h.987v9.254zm4.847.119c-.963 0-1.725-.294-2.284-.881-.555-.586-.832-1.401-.832-2.444 0-1.05.258-1.885.773-2.503.519-.619 1.215-.928 2.087-.928.817 0 1.463.27 1.939.809.476.535.713 1.243.713 2.123v.624h-4.489c.019.765.212 1.346.576 1.743.369.396.887.594 1.553.594a5.24 5.24 0 0 0 2.081-.44v.88a5 5 0 0 1-.993.321 5.315 5.315 0 0 1-1.124.102zm-.268-5.929c-.523 0-.941.17-1.254.511-.31.341-.492.813-.548 1.415h3.408c0-.622-.139-1.098-.416-1.427-.278-.333-.674-.499-1.19-.499zm5.923 2.474l-2.265-3.182h1.124l1.718 2.498 1.713-2.498h1.112l-2.266 3.182 2.385 3.336h-1.118l-1.826-2.641-1.843 2.641h-1.118l2.384-3.336zm10.443.071c0 1.062-.268 1.893-.803 2.492-.535.594-1.275.892-2.218.892-.583 0-1.1-.137-1.552-.411a2.708 2.708 0 0 1-1.047-1.177c-.246-.512-.369-1.11-.369-1.796 0-1.063.266-1.889.797-2.48.532-.595 1.269-.892 2.213-.892.911 0 1.635.303 2.17.91.539.606.809 1.427.809 2.462zm-4.966 0c0 .832.167 1.467.5 1.903.333.436.822.654 1.469.654.646 0 1.136-.216 1.469-.648.337-.436.505-1.073.505-1.909 0-.829-.168-1.457-.505-1.885-.333-.432-.827-.648-1.481-.648-.646 0-1.134.212-1.463.636-.329.424-.494 1.056-.494 1.897zm12.037-3.253v.624l-1.208.143c.111.139.21.321.298.547.087.222.131.474.131.755 0 .639-.219 1.148-.655 1.529-.436.38-1.034.571-1.796.571a2.97 2.97 0 0 1-.547-.048c-.42.222-.63.502-.63.839 0 .178.073.311.22.398.147.083.398.125.755.125h1.154c.706 0 1.247.149 1.623.446.381.297.571.729.571 1.296 0 .722-.289 1.271-.868 1.648-.579.38-1.423.57-2.533.57-.853 0-1.511-.158-1.975-.475-.459-.317-.689-.765-.689-1.344 0-.397.126-.74.38-1.029.254-.289.611-.486 1.071-.589a1.047 1.047 0 0 1-.423-.351.939.939 0 0 1-.166-.553c0-.238.063-.446.19-.624s.327-.351.601-.517a1.78 1.78 0 0 1-.827-.708 2.096 2.096 0 0 1-.315-1.142c0-.714.214-1.263.642-1.647.428-.389 1.035-.583 1.82-.583.341 0 .648.04.922.119h2.254zm-5.198 7.612c0 .353.149.62.446.803.297.182.724.273 1.279.273.828 0 1.441-.125 1.837-.374.401-.246.601-.581.601-1.005 0-.353-.109-.599-.327-.738-.218-.135-.629-.202-1.231-.202h-1.184c-.448 0-.797.107-1.046.321-.25.214-.375.521-.375.922zm.535-5.525c0 .456.129.801.387 1.035.258.234.616.351 1.076.351.964 0 1.445-.468 1.445-1.404 0-.979-.487-1.468-1.463-1.468-.463 0-.82.124-1.07.374-.25.25-.375.621-.375 1.112zm8.974-2.206c.289 0 .549.024.779.071l-.137.916a3.383 3.383 0 0 0-.713-.089c-.528 0-.98.214-1.356.642-.373.428-.559.962-.559 1.6v3.497h-.987v-6.518h.814l.113 1.207h.048c.242-.424.533-.751.874-.981.341-.23.716-.345 1.124-.345zm6.006 6.637l-.196-.928h-.048c-.325.408-.65.686-.975.833-.321.142-.723.214-1.207.214-.646 0-1.154-.167-1.522-.5-.365-.333-.548-.807-.548-1.421 0-1.316 1.053-2.006 3.158-2.07l1.106-.035v-.405c0-.511-.111-.888-.333-1.13-.218-.245-.569-.368-1.052-.368-.543 0-1.158.166-1.844.499l-.303-.755a4.67 4.67 0 0 1 1.052-.41 4.62 4.62 0 0 1 1.154-.149c.777 0 1.352.172 1.725.517.376.345.565.898.565 1.659v4.449h-.732zm-2.23-.696c.615 0 1.096-.169 1.445-.506.353-.337.53-.808.53-1.415v-.589l-.988.042c-.785.028-1.352.151-1.7.369-.345.214-.518.549-.518 1.005 0 .356.107.628.321.814.218.187.522.28.91.28zm8.034.815c-.424 0-.812-.078-1.165-.232a2.214 2.214 0 0 1-.88-.726h-.072c.048.381.072.742.072 1.082v2.682h-.988v-9.443h.803l.137.892h.048c.253-.357.549-.614.886-.773a2.685 2.685 0 0 1 1.159-.238c.865 0 1.531.295 1.998.886.472.591.708 1.419.708 2.486 0 1.07-.24 1.903-.72 2.498-.475.59-1.137.886-1.986.886zm-.142-5.917c-.666 0-1.148.184-1.446.553-.297.368-.449.955-.457 1.76v.22c0 .916.152 1.572.457 1.968.306.393.795.589 1.469.589.563 0 1.003-.228 1.321-.684.321-.456.481-1.084.481-1.885 0-.813-.16-1.435-.481-1.867-.318-.436-.766-.654-1.344-.654zm9.039 5.798v-4.217c0-.531-.121-.927-.363-1.189s-.621-.392-1.136-.392c-.686 0-1.187.186-1.504.559-.314.372-.47.983-.47 1.831v3.408h-.987v-9.254h.987v2.801c0 .337-.016.617-.048.839h.06a2 2 0 0 1 .826-.738 2.696 2.696 0 0 1 1.231-.273c.797 0 1.394.19 1.79.571.401.376.601.977.601 1.802v4.252h-.987zm4.008 0h-.987v-6.518h.987v6.518zm-1.071-8.284c0-.226.056-.391.167-.494a.576.576 0 0 1 .416-.16.58.58 0 0 1 .41.16c.115.107.173.272.173.494 0 .222-.058.388-.173.499a.58.58 0 0 1-.41.161.577.577 0 0 1-.416-.161c-.111-.111-.167-.277-.167-.499zm5.769 8.403c-.944 0-1.675-.29-2.195-.869-.515-.582-.773-1.405-.773-2.468 0-1.09.262-1.932.785-2.527.528-.595 1.277-.892 2.248-.892.313 0 .627.034.94.101.313.068.559.147.737.238l-.303.839a4.399 4.399 0 0 0-.714-.215 3.102 3.102 0 0 0-.684-.089c-1.324 0-1.986.845-1.986 2.534 0 .8.161 1.415.482 1.843.325.428.805.642 1.439.642.543 0 1.1-.117 1.671-.351v.875c-.436.226-.985.339-1.647.339zM69.858 466.188c0 .765-.278 1.362-.833 1.79-.555.428-1.308.642-2.26.642-1.03 0-1.823-.132-2.378-.398v-.975a6.372 6.372 0 0 0 2.414.487c.674 0 1.182-.127 1.523-.38.34-.258.511-.615.511-1.071 0-.301-.061-.547-.184-.737-.12-.194-.321-.373-.607-.535-.281-.163-.711-.347-1.29-.553-.809-.29-1.388-.633-1.737-1.029-.345-.397-.517-.914-.517-1.552 0-.67.252-1.203.755-1.6.504-.396 1.17-.595 1.998-.595.865 0 1.66.159 2.385.476l-.315.88c-.718-.301-1.416-.452-2.093-.452-.536 0-.954.115-1.255.345-.302.23-.452.549-.452.958 0 .301.055.549.166.743.111.19.298.367.56.529.265.159.67.335 1.212.53.912.325 1.539.673 1.88 1.046.345.373.517.856.517 1.451zm4.234 2.432c-.944 0-1.675-.289-2.194-.868-.516-.583-.773-1.405-.773-2.468 0-1.09.261-1.932.785-2.527.527-.595 1.276-.892 2.248-.892.313 0 .626.034.94.101.312.067.558.147.737.238l-.304.838a4.506 4.506 0 0 0-.713-.214 3.113 3.113 0 0 0-.684-.089c-1.324 0-1.987.844-1.987 2.533 0 .801.161 1.416.482 1.844.325.428.805.642 1.44.642.542 0 1.1-.117 1.67-.351v.874c-.436.226-.985.339-1.647.339zm7.208-.119l-.197-.927h-.047c-.325.408-.65.686-.975.832-.322.143-.724.214-1.208.214-.646 0-1.153-.166-1.522-.499-.365-.333-.547-.807-.547-1.421 0-1.317 1.052-2.006 3.158-2.07l1.106-.036v-.404c0-.511-.111-.888-.333-1.13-.218-.246-.57-.369-1.053-.369-.543 0-1.158.167-1.843.5l-.304-.755a4.667 4.667 0 0 1 2.207-.559c.777 0 1.351.172 1.724.517.377.345.565.898.565 1.659v4.448H81.3zm-2.23-.695c.614 0 1.096-.169 1.445-.506.352-.337.529-.809.529-1.415v-.589l-.987.042c-.785.028-1.352.15-1.701.368-.345.215-.517.55-.517 1.005 0 .357.107.629.32.815.219.187.522.28.91.28zm9.46.695v-4.216c0-.531-.12-.927-.362-1.189s-.62-.393-1.136-.393c-.682 0-1.181.185-1.498.553-.318.369-.476.978-.476 1.826v3.419h-.987v-6.517h.803l.16.892h.048c.202-.321.485-.569.85-.744a2.743 2.743 0 0 1 1.22-.267c.784 0 1.375.19 1.771.571.397.376.595.981.595 1.814v4.251h-.987zm7.482 0v-4.216c0-.531-.121-.927-.363-1.189s-.62-.393-1.136-.393c-.682 0-1.181.185-1.498.553-.317.369-.476.978-.476 1.826v3.419h-.987v-6.517h.803l.16.892h.048c.202-.321.485-.569.85-.744a2.742 2.742 0 0 1 1.22-.267c.784 0 1.375.19 1.771.571.397.376.595.981.595 1.814v4.251h-.987zm5.774.119c-.963 0-1.724-.293-2.283-.88-.555-.586-.833-1.401-.833-2.444 0-1.05.258-1.885.773-2.503.52-.619 1.215-.928 2.088-.928.816 0 1.462.269 1.938.809.476.535.714 1.243.714 2.123v.624h-4.49c.02.765.212 1.346.577 1.742.368.397.886.595 1.552.595.702 0 1.395-.147 2.081-.44v.88a5 5 0 0 1-.993.321 5.322 5.322 0 0 1-1.124.101zm-.267-5.929c-.524 0-.942.171-1.255.512-.31.341-.492.813-.547 1.415h3.407c0-.622-.139-1.098-.416-1.427-.278-.333-.674-.5-1.189-.5zm7.326-.826c.289 0 .549.024.779.071l-.137.916a3.383 3.383 0 0 0-.713-.089c-.528 0-.98.214-1.356.642-.373.428-.559.961-.559 1.6v3.496h-.987v-6.517h.814l.113 1.207h.048c.242-.424.533-.751.874-.981.341-.23.716-.345 1.124-.345zM180.025 460.151c-.955 0-1.71.319-2.265.958-.551.634-.827 1.504-.827 2.61 0 1.138.266 2.018.797 2.641.535.618 1.296.927 2.284.927.606 0 1.298-.109 2.075-.327v.886c-.603.226-1.346.339-2.23.339-1.281 0-2.27-.388-2.968-1.165-.693-.777-1.04-1.881-1.04-3.313 0-.896.166-1.681.499-2.355a3.64 3.64 0 0 1 1.451-1.558c.635-.364 1.38-.547 2.236-.547.912 0 1.709.167 2.391.5l-.428.868a4.611 4.611 0 0 0-1.975-.464zm7.82 7.915l-.196-.927h-.047c-.325.408-.651.686-.976.832-.321.143-.723.214-1.207.214-.646 0-1.154-.166-1.522-.499-.365-.333-.547-.807-.547-1.421 0-1.317 1.052-2.007 3.157-2.07l1.106-.036v-.404c0-.511-.111-.888-.333-1.13-.218-.246-.568-.369-1.052-.369-.543 0-1.158.167-1.844.5l-.303-.755a4.615 4.615 0 0 1 1.053-.411 4.605 4.605 0 0 1 1.153-.148c.777 0 1.352.172 1.725.517.377.345.565.898.565 1.659v4.448h-.732zm-2.23-.695c.615 0 1.097-.169 1.445-.506.353-.337.53-.809.53-1.415v-.589l-.987.042c-.785.027-1.352.15-1.701.368-.345.215-.518.55-.518 1.005 0 .357.107.629.322.815.218.186.521.28.909.28zm9.462.695v-4.216c0-.531-.121-.928-.363-1.189-.242-.262-.621-.393-1.136-.393-.682 0-1.181.185-1.498.553-.318.369-.476.978-.476 1.826v3.419h-.987v-6.517h.802l.161.892h.048c.202-.321.485-.569.85-.744a2.743 2.743 0 0 1 1.219-.267c.785 0 1.376.19 1.772.571.397.376.595.981.595 1.813v4.252h-.987zm8.646-3.264c0 1.062-.267 1.893-.803 2.491-.535.595-1.274.892-2.218.892-.582 0-1.1-.136-1.552-.41a2.705 2.705 0 0 1-1.046-1.177c-.246-.512-.369-1.111-.369-1.796 0-1.063.266-1.889.797-2.48.531-.595 1.268-.892 2.212-.892.912 0 1.635.303 2.171.91.539.606.808 1.427.808 2.462zm-4.965 0c0 .832.166 1.466.499 1.903.333.436.823.654 1.469.654.646 0 1.136-.216 1.469-.648.337-.437.505-1.073.505-1.909 0-.829-.168-1.457-.505-1.886-.333-.432-.827-.648-1.481-.648-.646 0-1.134.212-1.463.637-.329.424-.493 1.056-.493 1.897zm11.162 3.264v-4.216c0-.531-.121-.928-.363-1.189-.242-.262-.62-.393-1.136-.393-.682 0-1.181.185-1.498.553-.317.369-.476.978-.476 1.826v3.419h-.987v-6.517h.803l.16.892h.048c.202-.321.485-.569.85-.744a2.743 2.743 0 0 1 1.219-.267c.785 0 1.376.19 1.772.571.397.376.595.981.595 1.813v4.252h-.987zM65.736 529.892h2.281c1.071 0 1.846.16 2.325.481.478.32.718.826.718 1.518 0 .479-.135.874-.404 1.187-.265.31-.653.51-1.165.602v.055c1.226.21 1.84.855 1.84 1.933 0 .722-.246 1.285-.735 1.69-.486.405-1.167.607-2.043.607h-2.817v-8.073zm.94 3.457h1.545c.663 0 1.14-.103 1.43-.309.291-.21.437-.562.437-1.055 0-.453-.162-.779-.486-.977-.324-.203-.84-.304-1.546-.304h-1.38v2.645zm0 .795v3.021h1.683c.652 0 1.142-.126 1.47-.376.33-.254.496-.65.496-1.187 0-.501-.17-.869-.508-1.104-.335-.236-.847-.354-1.535-.354h-1.607zm7.172 3.821h-.916v-6.052h.916v6.052zm-.994-7.692c0-.21.052-.362.155-.458a.532.532 0 0 1 .386-.149c.148 0 .275.049.381.149.107.099.16.252.16.458 0 .206-.053.361-.16.464a.541.541 0 0 1-.38.149.536.536 0 0 1-.387-.149c-.103-.103-.155-.258-.155-.464zm7.08 7.692v-3.915c0-.493-.113-.861-.337-1.104-.225-.243-.576-.365-1.055-.365-.633 0-1.097.172-1.392.514-.294.342-.441.907-.441 1.695v3.175h-.917v-6.052h.745l.15.829h.044a1.85 1.85 0 0 1 .79-.691 2.55 2.55 0 0 1 1.131-.248c.73 0 1.278.176 1.646.53.368.35.552.911.552 1.684v3.948h-.916zm6.924-.811h-.05c-.423.614-1.056.922-1.9.922-.79 0-1.407-.271-1.85-.812-.437-.541-.656-1.311-.656-2.308 0-.998.22-1.773.662-2.325.442-.552 1.057-.828 1.845-.828.82 0 1.45.298 1.888.894h.072l-.038-.436-.023-.425v-2.463h.917v8.592h-.745l-.122-.811zm-1.833.154c.626 0 1.078-.169 1.358-.508.284-.342.425-.893.425-1.651v-.193c0-.858-.143-1.469-.43-1.833-.284-.369-.739-.553-1.364-.553-.538 0-.95.21-1.237.63-.284.416-.425 1.005-.425 1.767 0 .773.141 1.356.425 1.75.283.394.7.591 1.248.591zm5.566.657h-.917v-6.052h.917v6.052zm-.994-7.692c0-.21.052-.362.155-.458a.532.532 0 0 1 .386-.149c.147 0 .274.049.381.149.107.099.16.252.16.458 0 .206-.053.361-.16.464a.542.542 0 0 1-.38.149.536.536 0 0 1-.387-.149c-.103-.103-.155-.258-.155-.464zm7.08 7.692v-3.915c0-.493-.113-.861-.338-1.104-.224-.243-.576-.365-1.054-.365-.633 0-1.097.172-1.392.514-.294.342-.442.907-.442 1.695v3.175h-.916v-6.052h.745l.15.829h.043a1.85 1.85 0 0 1 .79-.691 2.55 2.55 0 0 1 1.132-.248c.729 0 1.278.176 1.646.53.368.35.552.911.552 1.684v3.948h-.917zm7.758-6.052v.58l-1.121.133c.103.128.195.298.276.508.081.206.121.439.121.701 0 .593-.202 1.066-.607 1.419-.405.353-.961.53-1.668.53-.18 0-.35-.015-.508-.044-.39.206-.585.466-.585.779 0 .165.068.289.204.37.136.077.37.116.701.116h1.072c.655 0 1.157.138 1.507.414.354.276.53.677.53 1.203 0 .67-.268 1.18-.806 1.53-.537.353-1.322.53-2.352.53-.792 0-1.403-.147-1.834-.442-.427-.294-.64-.71-.64-1.248 0-.368.118-.686.353-.955.236-.269.567-.451.994-.547a.98.98 0 0 1-.392-.325.876.876 0 0 1-.155-.514c0-.221.06-.414.177-.58.118-.165.304-.326.558-.48a1.652 1.652 0 0 1-.768-.657 1.945 1.945 0 0 1-.292-1.06c0-.663.198-1.173.596-1.53.398-.361.961-.541 1.69-.541a3.1 3.1 0 0 1 .856.11h2.093zm-4.827 7.068a.82.82 0 0 0 .415.746c.276.169.671.254 1.187.254.769 0 1.338-.116 1.706-.348.372-.228.558-.539.558-.933 0-.328-.101-.556-.304-.685-.202-.125-.583-.188-1.143-.188h-1.099c-.416 0-.74.1-.972.298-.232.199-.348.485-.348.856zm.497-5.13c0 .424.12.744.359.961.24.217.573.326 1 .326.894 0 1.342-.434 1.342-1.303 0-.909-.453-1.364-1.359-1.364-.431 0-.762.116-.994.348-.232.232-.348.576-.348 1.032z"/>
        <path fill="#626E78" d="M57.995 435.146h.606c.567 0 .992-.111 1.273-.333.282-.226.422-.553.422-.982 0-.432-.119-.751-.357-.957-.233-.206-.602-.309-1.106-.309h-.838v2.581zm4.163-1.38c0 .936-.294 1.651-.88 2.147-.583.495-1.414.743-2.492.743h-.791v3.093H56.15v-8.695h2.777c1.055 0 1.856.228 2.403.684.551.452.827 1.128.827 2.028zm5.209-.791c.246 0 .45.018.612.054l-.136 1.7a2.109 2.109 0 0 0-.535-.059c-.58 0-1.031.149-1.356.446-.322.297-.482.714-.482 1.249v3.384h-1.814V433.1h1.374l.267 1.118h.09a2.48 2.48 0 0 1 .832-.898c.353-.23.736-.345 1.148-.345zm3.265 3.437c0 .659.107 1.156.32 1.493.219.337.572.506 1.06.506.483 0 .83-.167 1.04-.5.214-.337.321-.837.321-1.499 0-.658-.107-1.151-.32-1.48-.215-.329-.566-.494-1.053-.494-.484 0-.833.165-1.047.494-.214.325-.321.818-.321 1.48zm4.597 0c0 1.083-.286 1.929-.857 2.54-.57.61-1.365.915-2.384.915-.639 0-1.202-.138-1.69-.416a2.807 2.807 0 0 1-1.123-1.207c-.262-.523-.393-1.134-.393-1.832 0-1.086.284-1.93.85-2.533.568-.603 1.364-.904 2.391-.904.639 0 1.202.139 1.69.416a2.78 2.78 0 0 1 1.123 1.196c.262.519.393 1.128.393 1.825zm3.603 3.455c-.78 0-1.395-.303-1.843-.909-.444-.607-.666-1.447-.666-2.522 0-1.09.226-1.938.678-2.545.456-.611 1.082-.916 1.879-.916.836 0 1.475.325 1.915.975h.06a7.411 7.411 0 0 1-.138-1.326v-2.129h1.82v9.254h-1.391l-.351-.863h-.078c-.412.654-1.04.981-1.885.981zm.637-1.445c.464 0 .803-.134 1.017-.404.218-.27.337-.727.356-1.374v-.196c0-.714-.11-1.225-.333-1.534-.218-.309-.575-.464-1.07-.464-.404 0-.72.172-.946.517-.222.341-.333.839-.333 1.493 0 .654.113 1.146.34 1.475.225.325.548.487.969.487zm9.675 1.327l-.244-.851h-.095c-.194.309-.47.549-.827.72a2.858 2.858 0 0 1-1.219.249c-.78 0-1.37-.208-1.766-.624-.396-.42-.594-1.023-.594-1.808V433.1h1.813v3.883c0 .48.085.841.256 1.083.17.237.442.356.815.356.507 0 .874-.168 1.1-.505.226-.341.339-.904.339-1.689V433.1h1.814v6.649h-1.392zm5.994.118c-2.07 0-3.104-1.135-3.104-3.407 0-1.13.282-1.992.845-2.587.563-.599 1.37-.898 2.42-.898.77 0 1.459.151 2.07.452l-.536 1.404a8.365 8.365 0 0 0-.797-.28 2.516 2.516 0 0 0-.737-.113c-.944 0-1.415.67-1.415 2.01 0 1.3.471 1.951 1.415 1.951.349 0 .672-.046.97-.137.297-.095.594-.242.891-.44v1.552c-.293.186-.59.315-.892.386-.297.072-.674.107-1.13.107zm6.369-1.445c.318 0 .698-.069 1.142-.208v1.35c-.452.202-1.007.303-1.665.303-.725 0-1.255-.182-1.588-.547-.329-.368-.493-.919-.493-1.653v-3.205h-.869v-.767l1-.607.523-1.403h1.159v1.415h1.862v1.362h-1.862v3.205c0 .258.072.448.215.571.146.123.339.184.576.184zm2.236.476c0-.333.09-.585.268-.755.178-.171.438-.256.779-.256.329 0 .583.087.761.262.183.174.274.424.274.749 0 .313-.091.561-.274.743-.182.179-.436.268-.761.268-.333 0-.591-.087-.773-.262-.182-.178-.274-.428-.274-.749zm0-4.912c0-.333.09-.585.268-.755.178-.171.438-.256.779-.256.329 0 .583.087.761.262.183.174.274.424.274.749 0 .321-.093.571-.28.749-.182.175-.434.262-.755.262-.333 0-.591-.087-.773-.262-.182-.174-.274-.424-.274-.749zM168.285 365.565c0 .785-.284 1.404-.851 1.855-.563.452-1.348.678-2.355.678-.927 0-1.748-.174-2.462-.523v-1.713c.587.262 1.083.446 1.487.553.409.108.781.161 1.118.161.405 0 .714-.077.928-.232.218-.154.327-.384.327-.69a.751.751 0 0 0-.143-.452 1.572 1.572 0 0 0-.422-.386c-.182-.123-.557-.319-1.124-.589-.531-.25-.93-.49-1.195-.719a2.71 2.71 0 0 1-.637-.803 2.3 2.3 0 0 1-.237-1.071c0-.769.259-1.373.779-1.813.523-.441 1.244-.661 2.164-.661.452 0 .882.054 1.291.161.412.107.842.258 1.29.452l-.595 1.433a8.574 8.574 0 0 0-1.153-.398 3.642 3.642 0 0 0-.892-.113c-.349 0-.617.081-.803.244a.804.804 0 0 0-.28.636c0 .162.038.305.113.428.076.119.195.236.357.351.167.111.557.313 1.172.606.812.389 1.369.779 1.671 1.172.301.388.452.866.452 1.433zm4.186-3.068c-.384 0-.686.122-.904.368-.218.242-.343.587-.374 1.035h2.545c-.008-.448-.125-.793-.351-1.035-.226-.246-.531-.368-.916-.368zm.256 5.601c-1.07 0-1.907-.295-2.51-.886-.602-.59-.903-1.427-.903-2.509 0-1.114.277-1.975.832-2.581.559-.611 1.33-.916 2.313-.916.94 0 1.671.268 2.195.803.523.535.785 1.275.785 2.218v.88h-4.288c.02.516.173.918.458 1.207.285.29.686.435 1.201.435a5 5 0 0 0 1.136-.125c.357-.084.73-.216 1.118-.399v1.404a4.172 4.172 0 0 1-1.017.35 6.21 6.21 0 0 1-1.32.119zm7.897-6.892c.246 0 .45.018.613.054l-.137 1.7a2.11 2.11 0 0 0-.535-.059c-.579 0-1.031.149-1.356.446-.321.297-.482.714-.482 1.249v3.383h-1.813v-6.648h1.373l.268 1.118h.089a2.48 2.48 0 0 1 .833-.898c.352-.23.735-.345 1.147-.345zm3.402 6.773l-2.533-6.648h1.897l1.284 3.788c.143.48.232.934.268 1.362h.035c.02-.381.109-.835.268-1.362l1.279-3.788h1.897l-2.534 6.648h-1.861zm5.275-8.367c0-.59.329-.886.987-.886.658 0 .987.296.987.886 0 .282-.083.502-.25.66-.162.155-.408.232-.737.232-.658 0-.987-.297-.987-.892zm1.891 8.367h-1.814v-6.648h1.814v6.648zm4.608.119c-2.069 0-3.104-1.135-3.104-3.407 0-1.13.282-1.992.845-2.587.563-.599 1.369-.898 2.42-.898.769 0 1.459.151 2.07.452l-.536 1.404a8.31 8.31 0 0 0-.797-.28 2.508 2.508 0 0 0-.737-.113c-.944 0-1.415.67-1.415 2.01 0 1.3.471 1.951 1.415 1.951.349 0 .672-.046.969-.137.298-.095.595-.242.892-.44v1.552c-.293.186-.59.315-.892.386-.297.072-.674.107-1.13.107zm6.322-5.601c-.385 0-.686.122-.904.368-.218.242-.343.587-.375 1.035h2.546c-.008-.448-.125-.793-.351-1.035-.226-.246-.532-.368-.916-.368zm.256 5.601c-1.071 0-1.907-.295-2.51-.886-.603-.59-.904-1.427-.904-2.509 0-1.114.278-1.975.833-2.581.559-.611 1.33-.916 2.313-.916.94 0 1.671.268 2.194.803.524.535.785 1.275.785 2.218v.88h-4.287c.02.516.172.918.458 1.207.285.29.685.435 1.201.435.4 0 .779-.042 1.136-.125a5.7 5.7 0 0 0 1.118-.399v1.404a4.172 4.172 0 0 1-1.017.35 6.21 6.21 0 0 1-1.32.119zm8.206-8.813l-3.241 8.694h-1.647l3.241-8.694h1.647zm6.286 6.28c0 .785-.284 1.404-.85 1.855-.563.452-1.348.678-2.355.678-.928 0-1.749-.174-2.462-.523v-1.713c.586.262 1.082.446 1.486.553.409.108.781.161 1.118.161.405 0 .714-.077.928-.232.218-.154.327-.384.327-.69a.745.745 0 0 0-.143-.452 1.572 1.572 0 0 0-.422-.386c-.182-.123-.557-.319-1.124-.589-.531-.25-.929-.49-1.195-.719a2.69 2.69 0 0 1-.636-.803 2.289 2.289 0 0 1-.238-1.071c0-.769.259-1.373.779-1.813.523-.441 1.245-.661 2.164-.661.452 0 .882.054 1.291.161.412.107.842.258 1.29.452l-.594 1.433a8.628 8.628 0 0 0-1.154-.398 3.636 3.636 0 0 0-.892-.113c-.349 0-.617.081-.803.244a.803.803 0 0 0-.279.636c0 .162.037.305.113.428.075.119.194.236.356.351.167.111.557.313 1.172.606.813.389 1.37.779 1.671 1.172.301.388.452.866.452 1.433zm4.186-3.068c-.384 0-.685.122-.903.368-.219.242-.343.587-.375 1.035h2.545c-.008-.448-.125-.793-.351-1.035-.226-.246-.531-.368-.916-.368zm.256 5.601c-1.07 0-1.907-.295-2.509-.886-.603-.59-.904-1.427-.904-2.509 0-1.114.277-1.975.832-2.581.559-.611 1.33-.916 2.314-.916.939 0 1.671.268 2.194.803.523.535.785 1.275.785 2.218v.88h-4.288c.02.516.173.918.458 1.207.286.29.686.435 1.201.435a5 5 0 0 0 1.136-.125c.357-.084.73-.216 1.118-.399v1.404a4.172 4.172 0 0 1-1.017.35c-.36.08-.801.119-1.32.119zm9.973-6.767v.922l-1.041.267c.19.298.286.631.286.999 0 .714-.25 1.271-.75 1.671-.495.397-1.185.595-2.069.595l-.327-.018-.268-.029c-.186.142-.279.301-.279.475 0 .262.333.393.999.393h1.13c.729 0 1.284.156 1.665.47.384.313.577.773.577 1.379 0 .777-.326 1.38-.976 1.808-.646.428-1.576.642-2.789.642-.927 0-1.637-.162-2.129-.487-.487-.321-.731-.773-.731-1.356 0-.401.125-.736.375-1.005.249-.27.616-.462 1.1-.577a1.215 1.215 0 0 1-.488-.387.934.934 0 0 1-.208-.576.92.92 0 0 1 .22-.631c.147-.17.359-.337.636-.499a1.802 1.802 0 0 1-.832-.726c-.203-.333-.304-.725-.304-1.177 0-.726.236-1.287.708-1.683.472-.397 1.146-.595 2.022-.595.186 0 .406.018.66.054.258.031.422.055.494.071h2.319zm-5.132 7.588c0 .25.119.446.357.589.241.143.578.214 1.011.214.65 0 1.159-.089 1.528-.268.369-.178.553-.422.553-.731 0-.25-.109-.422-.327-.518-.218-.095-.555-.142-1.011-.142h-.94c-.333 0-.612.077-.838.232a.732.732 0 0 0-.333.624zm.66-5.411c0 .36.081.646.244.856.166.21.418.315.755.315.341 0 .591-.105.749-.315.159-.21.238-.496.238-.856 0-.801-.329-1.202-.987-1.202-.666 0-.999.401-.999 1.202zm11.525 4.471h-1.814v-3.883c0-.479-.081-.838-.244-1.076-.158-.242-.41-.363-.755-.363-.464 0-.801.171-1.011.512-.21.34-.315.901-.315 1.682v3.128h-1.814v-6.648h1.386l.243.85h.102c.178-.305.436-.543.773-.713a2.478 2.478 0 0 1 1.159-.262c.995 0 1.669.325 2.022.975h.161c.178-.309.44-.549.785-.719a2.638 2.638 0 0 1 1.177-.256c.753 0 1.322.194 1.707.583.388.384.583 1.003.583 1.855v4.335h-1.82v-3.883c0-.479-.081-.838-.244-1.076-.158-.242-.41-.363-.755-.363-.444 0-.777.159-.999.476-.218.317-.327.821-.327 1.51v3.336zm8.765-5.482c-.384 0-.686.122-.904.368-.218.242-.343.587-.374 1.035h2.545c-.008-.448-.125-.793-.351-1.035-.226-.246-.531-.368-.916-.368zm.256 5.601c-1.07 0-1.907-.295-2.51-.886-.602-.59-.903-1.427-.903-2.509 0-1.114.277-1.975.832-2.581.559-.611 1.33-.916 2.313-.916.94 0 1.671.268 2.195.803.523.535.785 1.275.785 2.218v.88h-4.288c.02.516.173.918.458 1.207.285.29.686.435 1.201.435a5 5 0 0 0 1.136-.125c.357-.084.73-.216 1.118-.399v1.404a4.172 4.172 0 0 1-1.017.35 6.21 6.21 0 0 1-1.32.119zm10.324-.119h-1.814v-3.883c0-.479-.085-.838-.256-1.076-.17-.242-.442-.363-.815-.363-.507 0-.874.171-1.1.512-.226.337-.339.898-.339 1.682v3.128h-1.813v-6.648h1.385l.244.85h.101c.202-.321.48-.563.833-.725.356-.167.761-.25 1.213-.25.773 0 1.36.21 1.76.63.4.417.601 1.019.601 1.808v4.335zm4.668-1.326c.317 0 .698-.069 1.142-.208v1.35c-.452.202-1.007.303-1.665.303-.726 0-1.255-.182-1.588-.547-.329-.368-.494-.919-.494-1.653v-3.205h-.868v-.767l.999-.607.523-1.403h1.16v1.415h1.861v1.362h-1.861v3.205c0 .258.071.448.214.571.147.123.339.184.577.184zm2.236.476c0-.333.089-.585.267-.755.179-.171.439-.256.779-.256.33 0 .583.087.762.262.182.174.273.424.273.749 0 .313-.091.561-.273.743-.183.179-.436.268-.762.268-.333 0-.59-.087-.773-.262-.182-.178-.273-.428-.273-.749zm0-4.912c0-.333.089-.585.267-.755.179-.171.439-.256.779-.256.33 0 .583.087.762.262.182.174.273.424.273.749 0 .321-.093.571-.279.749-.183.175-.434.262-.756.262-.333 0-.59-.087-.773-.262-.182-.174-.273-.424-.273-.749zM167.502 430.62h2.706c1.233 0 2.127.176 2.682.529.559.349.839.906.839 1.671 0 .519-.123.946-.369 1.279a1.449 1.449 0 0 1-.969.6v.06c.551.123.947.353 1.189.69.246.337.369.785.369 1.344 0 .792-.288 1.411-.863 1.855-.57.444-1.348.666-2.331.666h-3.253v-8.694zm1.844 3.443h1.07c.5 0 .861-.077 1.083-.232.226-.155.339-.41.339-.767 0-.333-.123-.571-.369-.714-.242-.146-.626-.22-1.154-.22h-.969v1.933zm0 1.463v2.266h1.201c.508 0 .882-.098 1.124-.292.242-.194.363-.491.363-.892 0-.721-.516-1.082-1.546-1.082h-1.142zm9.907-2.985c.246 0 .45.017.613.053l-.137 1.701a2.06 2.06 0 0 0-.535-.06c-.579 0-1.031.149-1.356.446-.321.298-.482.714-.482 1.249v3.384h-1.814v-6.649h1.374l.268 1.118h.089c.206-.372.484-.672.833-.897.352-.23.735-.345 1.147-.345zm6.042 6.773l-.351-.904h-.047c-.306.385-.621.652-.946.803-.321.147-.741.22-1.261.22-.638 0-1.141-.182-1.51-.547-.365-.365-.547-.884-.547-1.558 0-.706.246-1.225.737-1.558.496-.337 1.241-.524 2.236-.559l1.154-.036v-.291c0-.674-.345-1.011-1.035-1.011-.531 0-1.155.16-1.873.481l-.601-1.225c.766-.4 1.614-.6 2.546-.6.892 0 1.575.194 2.051.582.476.389.714.98.714 1.773v4.43h-1.267zm-.535-3.08l-.702.023c-.527.016-.92.111-1.177.286-.258.174-.387.44-.387.797 0 .511.294.767.88.767.421 0 .756-.121 1.005-.363.254-.242.381-.563.381-.963v-.547zm9.812 3.08h-1.814v-3.883c0-.48-.085-.839-.255-1.077-.171-.241-.442-.362-.815-.362-.508 0-.874.17-1.1.511-.226.337-.339.898-.339 1.683v3.128h-1.814v-6.649h1.386l.243.851h.102c.202-.321.479-.563.832-.726a2.843 2.843 0 0 1 1.213-.249c.773 0 1.36.21 1.761.63.4.416.6 1.019.6 1.808v4.335zm3.973.119c-.781 0-1.396-.303-1.844-.91-.444-.607-.666-1.447-.666-2.521 0-1.091.226-1.939.678-2.546.456-.61 1.082-.915 1.879-.915.837 0 1.475.325 1.915.975h.059a7.432 7.432 0 0 1-.136-1.326v-2.129h1.819v9.253h-1.391l-.351-.862h-.077c-.413.654-1.041.981-1.885.981zm.636-1.445c.464 0 .803-.135 1.017-.405.218-.269.337-.727.357-1.373v-.196c0-.714-.111-1.226-.333-1.535-.218-.309-.575-.464-1.071-.464-.404 0-.719.173-.945.518-.222.341-.333.838-.333 1.492 0 .655.113 1.146.339 1.475.226.325.549.488.969.488zm4.71.476c0-.333.089-.585.267-.756.179-.17.438-.255.779-.255.329 0 .583.087.762.261.182.175.273.424.273.75 0 .313-.091.561-.273.743-.183.178-.437.268-.762.268-.333 0-.59-.088-.773-.262-.182-.179-.273-.428-.273-.749zm0-4.912c0-.333.089-.585.267-.756.179-.17.438-.255.779-.255.329 0 .583.087.762.261.182.175.273.424.273.75 0 .321-.093.57-.279.749-.183.174-.435.261-.756.261-.333 0-.59-.087-.773-.261-.182-.175-.273-.424-.273-.749zM57.022 509.777v-8.694h1.843v8.694h-1.843zm10.026 0h-1.814v-3.883c0-.48-.085-.838-.256-1.076-.17-.242-.442-.363-.814-.363-.508 0-.875.17-1.1.511-.227.337-.34.898-.34 1.683v3.128h-1.813v-6.648h1.385l.244.85h.101c.202-.321.48-.563.833-.725.357-.167.76-.25 1.213-.25.773 0 1.36.21 1.76.63.4.417.6 1.019.6 1.808v4.335zm3.972.119c-.78 0-1.395-.303-1.843-.91-.444-.606-.666-1.447-.666-2.521 0-1.09.226-1.939.678-2.545.456-.611 1.082-.916 1.879-.916.836 0 1.475.325 1.915.975h.06a7.403 7.403 0 0 1-.138-1.326v-2.129h1.82v9.253h-1.391l-.351-.862h-.078c-.412.654-1.04.981-1.885.981zm.636-1.445c.464 0 .803-.135 1.017-.404.218-.27.337-.728.357-1.374v-.196c0-.714-.11-1.225-.333-1.534-.218-.31-.575-.464-1.07-.464-.405 0-.72.172-.946.517-.222.341-.333.839-.333 1.493 0 .654.113 1.146.34 1.475.225.325.548.487.968.487zm9.676 1.326l-.244-.85h-.095c-.194.309-.47.549-.827.72a2.858 2.858 0 0 1-1.219.249c-.78 0-1.37-.208-1.766-.624-.396-.42-.595-1.023-.595-1.808v-4.335H78.4v3.883c0 .48.085.841.256 1.082.17.238.442.357.814.357.508 0 .875-.168 1.1-.505.227-.341.34-.904.34-1.689v-3.128h1.813v6.648h-1.391zm7.933-1.974c0 .682-.238 1.201-.714 1.558-.472.357-1.18.535-2.123.535-.483 0-.896-.033-1.237-.101a4.52 4.52 0 0 1-.957-.285v-1.499c.337.159.716.292 1.136.399.424.107.797.16 1.118.16.658 0 .987-.19.987-.571a.469.469 0 0 0-.13-.345c-.088-.091-.239-.192-.453-.303-.214-.115-.5-.248-.856-.398-.512-.214-.888-.413-1.13-.595a1.722 1.722 0 0 1-.523-.624c-.108-.238-.161-.53-.161-.875 0-.59.228-1.046.684-1.367.46-.325 1.11-.488 1.95-.488.801 0 1.58.174 2.338.523l-.548 1.309a9.936 9.936 0 0 0-.933-.351 2.938 2.938 0 0 0-.886-.137c-.535 0-.803.145-.803.434 0 .163.085.303.256.422.174.119.553.296 1.135.53.52.21.9.406 1.142.588.242.183.42.393.535.631.115.237.173.521.173.85zm4.216.648c.317 0 .698-.069 1.142-.208v1.35c-.452.202-1.007.303-1.665.303-.726 0-1.255-.182-1.588-.547-.329-.369-.494-.92-.494-1.653v-3.205h-.868v-.767l1-.607.523-1.403h1.16v1.415h1.86v1.362h-1.86v3.205c0 .258.07.448.213.571.147.123.34.184.577.184zm6.203-5.447c.245 0 .45.018.612.053l-.137 1.701a2.101 2.101 0 0 0-.535-.059c-.579 0-1.03.148-1.356.446-.32.297-.481.713-.481 1.249v3.383h-1.814v-6.648h1.374l.267 1.118h.09c.206-.373.483-.672.832-.898.353-.23.735-.345 1.148-.345zm.868.125h1.986l1.255 3.74c.107.325.18.71.22 1.154h.036c.043-.408.128-.793.255-1.154l1.231-3.74h1.945l-2.813 7.499c-.258.694-.626 1.213-1.106 1.558-.476.345-1.033.517-1.671.517-.313 0-.621-.034-.922-.101v-1.439c.218.051.456.077.714.077.321 0 .6-.099.838-.297.242-.194.43-.49.565-.886l.107-.327-2.64-6.601zm15.687 4.674c0 .682-.237 1.201-.713 1.558-.472.357-1.18.535-2.123.535-.484 0-.896-.033-1.237-.101a4.537 4.537 0 0 1-.958-.285v-1.499c.337.159.716.292 1.136.399.425.107.797.16 1.118.16.658 0 .987-.19.987-.571a.47.47 0 0 0-.13-.345c-.088-.091-.238-.192-.452-.303-.214-.115-.5-.248-.857-.398-.511-.214-.888-.413-1.13-.595a1.73 1.73 0 0 1-.523-.624c-.107-.238-.16-.53-.16-.875 0-.59.228-1.046.683-1.367.46-.325 1.111-.488 1.951-.488.801 0 1.58.174 2.337.523l-.547 1.309a9.879 9.879 0 0 0-.934-.351 2.932 2.932 0 0 0-.886-.137c-.535 0-.803.145-.803.434 0 .163.086.303.256.422.175.119.553.296 1.136.53.519.21.9.406 1.142.588.242.183.42.393.535.631.115.237.172.521.172.85zm4.169-3.509c-.384 0-.686.123-.904.369-.218.242-.343.587-.374 1.035h2.545c-.008-.448-.125-.793-.351-1.035-.226-.246-.531-.369-.916-.369zm.256 5.602c-1.071 0-1.907-.295-2.51-.886-.602-.591-.904-1.427-.904-2.509 0-1.114.278-1.975.833-2.581.559-.611 1.33-.916 2.313-.916.94 0 1.671.268 2.195.803.523.535.785 1.274.785 2.218v.88h-4.288c.02.515.172.918.458 1.207.285.29.686.434 1.201.434.401 0 .779-.041 1.136-.125a5.694 5.694 0 0 0 1.118-.398v1.403a4.132 4.132 0 0 1-1.017.351 6.21 6.21 0 0 1-1.32.119zm7.897-6.892c.246 0 .45.018.613.053l-.137 1.701a2.11 2.11 0 0 0-.535-.059c-.579 0-1.031.148-1.356.446-.321.297-.482.713-.482 1.249v3.383h-1.814v-6.648h1.374l.268 1.118h.089c.206-.373.484-.672.832-.898.353-.23.736-.345 1.148-.345zm3.402 6.773l-2.534-6.648h1.897l1.285 3.788c.143.48.232.934.268 1.362h.035c.02-.381.109-.835.268-1.362l1.278-3.788h1.897l-2.533 6.648h-1.861zm8.105-5.483c-.384 0-.686.123-.904.369-.218.242-.343.587-.374 1.035h2.545c-.008-.448-.125-.793-.351-1.035-.226-.246-.531-.369-.916-.369zm.256 5.602c-1.071 0-1.907-.295-2.51-.886-.602-.591-.904-1.427-.904-2.509 0-1.114.278-1.975.833-2.581.559-.611 1.33-.916 2.313-.916.94 0 1.671.268 2.195.803.523.535.785 1.274.785 2.218v.88h-4.288c.02.515.172.918.458 1.207.285.29.686.434 1.201.434.401 0 .779-.041 1.136-.125a5.694 5.694 0 0 0 1.118-.398v1.403a4.132 4.132 0 0 1-1.017.351 6.21 6.21 0 0 1-1.32.119zm6.292 0c-.781 0-1.396-.303-1.844-.91-.444-.606-.666-1.447-.666-2.521 0-1.09.226-1.939.678-2.545.456-.611 1.082-.916 1.879-.916.837 0 1.475.325 1.915.975h.059a7.414 7.414 0 0 1-.136-1.326v-2.129h1.819v9.253h-1.391l-.351-.862h-.077c-.413.654-1.041.981-1.885.981zm.636-1.445c.464 0 .803-.135 1.017-.404.218-.27.337-.728.357-1.374v-.196c0-.714-.111-1.225-.333-1.534-.218-.31-.575-.464-1.071-.464a1.07 1.07 0 0 0-.945.517c-.222.341-.333.839-.333 1.493 0 .654.113 1.146.339 1.475.226.325.549.487.969.487zm4.71.476c0-.333.089-.585.267-.755.179-.171.438-.256.779-.256.329 0 .583.087.762.262.182.174.273.424.273.749 0 .313-.091.561-.273.743-.183.179-.437.268-.762.268-.333 0-.59-.087-.773-.262-.182-.178-.273-.428-.273-.749zm0-4.912c0-.333.089-.585.267-.755.179-.171.438-.256.779-.256.329 0 .583.087.762.262.182.174.273.424.273.749 0 .321-.093.571-.279.749-.183.175-.435.262-.756.262-.333 0-.59-.087-.773-.262-.182-.174-.273-.424-.273-.749zM60.787 360.715c-.694 0-1.23.262-1.611.785-.381.52-.571 1.245-.571 2.177 0 1.938.727 2.908 2.182 2.908.61 0 1.35-.153 2.218-.458v1.546c-.713.297-1.51.446-2.39.446-1.265 0-2.232-.383-2.902-1.148-.67-.769-1.005-1.871-1.005-3.306 0-.904.164-1.695.493-2.373.33-.682.801-1.203 1.416-1.564.618-.365 1.342-.547 2.17-.547.845 0 1.693.204 2.545.612l-.594 1.499a9.762 9.762 0 0 0-.981-.404 2.928 2.928 0 0 0-.97-.173zm5.376 3.949c0 .658.107 1.156.321 1.492.218.337.571.506 1.059.506.483 0 .83-.167 1.04-.5.215-.337.322-.836.322-1.498 0-.658-.108-1.152-.322-1.481-.214-.329-.565-.493-1.052-.493-.484 0-.833.164-1.047.493-.214.325-.321.819-.321 1.481zm4.597 0c0 1.082-.285 1.929-.856 2.539-.571.611-1.366.916-2.385.916-.638 0-1.201-.139-1.689-.416a2.809 2.809 0 0 1-1.124-1.208c-.262-.523-.392-1.133-.392-1.831 0-1.086.283-1.931.85-2.533.567-.603 1.364-.904 2.39-.904.639 0 1.202.138 1.69.416.487.277.862.676 1.123 1.195.262.52.393 1.128.393 1.826zM76.968 368l-.243-.85h-.096a1.93 1.93 0 0 1-.826.719c-.357.167-.763.25-1.22.25-.78 0-1.37-.208-1.766-.624-.396-.421-.594-1.023-.594-1.808v-4.335h1.814v3.883c0 .479.085.84.255 1.082.17.238.442.357.815.357.507 0 .874-.169 1.1-.506.226-.341.34-.904.34-1.688v-3.128h1.813V368h-1.392zm9.432 0h-1.814v-3.883c0-.48-.085-.839-.256-1.077-.17-.241-.442-.362-.814-.362-.508 0-.874.17-1.1.511-.226.337-.34.898-.34 1.683V368h-1.813v-6.648h1.385l.244.85h.101c.203-.321.48-.563.833-.726a2.843 2.843 0 0 1 1.213-.249c.773 0 1.36.21 1.76.63.4.416.6 1.019.6 1.808V368zm4.668-1.326c.317 0 .698-.07 1.142-.208v1.35c-.452.202-1.007.303-1.665.303-.726 0-1.255-.182-1.588-.547-.329-.369-.494-.92-.494-1.653v-3.206h-.868v-.767l1-.606.523-1.404h1.16v1.416h1.86v1.361h-1.86v3.206c0 .257.07.448.213.571.147.122.34.184.577.184zm6.203-5.447c.245 0 .45.017.612.053l-.137 1.701a2.06 2.06 0 0 0-.535-.06c-.579 0-1.03.149-1.356.446-.32.298-.481.714-.481 1.249V368H93.56v-6.648h1.373l.268 1.117h.09c.206-.372.483-.671.832-.897.353-.23.735-.345 1.148-.345zm.868.125h1.986l1.255 3.74c.107.325.18.71.22 1.154h.036c.043-.409.128-.793.255-1.154l1.231-3.74h1.945l-2.813 7.498c-.258.694-.626 1.214-1.106 1.558-.476.345-1.033.518-1.671.518-.313 0-.62-.034-.922-.101v-1.439c.218.051.456.077.714.077.32 0 .6-.099.838-.297.242-.195.43-.49.565-.887l.107-.327-2.64-6.6zm7.63 5.798c0-.333.089-.585.267-.756.179-.17.438-.255.779-.255.329 0 .583.087.761.261.183.175.274.425.274.75 0 .313-.091.561-.274.743-.182.178-.436.268-.761.268-.333 0-.591-.088-.773-.262-.182-.178-.273-.428-.273-.749zm0-4.912c0-.333.089-.585.267-.756.179-.17.438-.255.779-.255.329 0 .583.087.761.261.183.175.274.424.274.75 0 .321-.093.57-.28.749-.182.174-.434.262-.755.262-.333 0-.591-.088-.773-.262-.182-.175-.273-.424-.273-.749z"/>
        <path fill="#FF8CCB" d="M83.376 160.183c0-.828.191-1.571.573-2.229a4.131 4.131 0 0 1 1.57-1.534 4.375 4.375 0 0 1 2.18-.56c.902 0 1.702.223 2.4.669.706.439 1.218 1.064 1.535 1.876h-1.669a2.2 2.2 0 0 0-.913-.95c-.39-.219-.84-.329-1.352-.329-.56 0-1.06.126-1.498.378a2.685 2.685 0 0 0-1.035 1.071c-.244.463-.366.999-.366 1.608 0 .609.122 1.149.366 1.62.251.463.596.82 1.035 1.072.438.251.938.377 1.498.377.511 0 .962-.105 1.352-.316.39-.22.694-.54.913-.963h1.669c-.317.812-.829 1.438-1.535 1.876-.698.438-1.498.658-2.4.658a4.417 4.417 0 0 1-2.18-.548 4.224 4.224 0 0 1-1.57-1.547c-.382-.658-.573-1.401-.573-2.229zm13.494 4.36a3.477 3.477 0 0 1-1.718-.426 3.156 3.156 0 0 1-1.205-1.218c-.293-.528-.439-1.137-.439-1.827 0-.682.15-1.287.45-1.814.301-.528.711-.934 1.23-1.218a3.56 3.56 0 0 1 1.742-.427 3.56 3.56 0 0 1 1.742.427c.52.284.93.69 1.23 1.218.301.527.451 1.132.451 1.814 0 .682-.155 1.287-.463 1.815-.309.528-.73.938-1.267 1.23a3.64 3.64 0 0 1-1.753.426zm0-1.169c.357 0 .69-.089.998-.268.317-.179.573-.438.767-.779.195-.35.293-.768.293-1.255 0-.487-.094-.901-.28-1.242a1.872 1.872 0 0 0-.743-.78 1.965 1.965 0 0 0-.999-.267 1.9 1.9 0 0 0-.986.267c-.3.171-.544.431-.731.78-.179.341-.268.755-.268 1.242s.085.905.256 1.255c.178.349.414.613.706.791.3.171.63.256.987.256zm8.941-5.761c.528 0 .999.11 1.413.329.422.219.751.544.986.975.236.43.353.949.353 1.558v3.959h-1.376v-3.752c0-.6-.15-1.059-.45-1.376-.301-.325-.711-.487-1.23-.487-.52 0-.934.162-1.243.487-.3.317-.45.776-.45 1.376v3.752h-1.389v-6.711h1.389v.767a2.3 2.3 0 0 1 .864-.645 2.819 2.819 0 0 1 1.133-.232zm6.843 1.243v3.714c0 .252.057.435.171.548.122.106.325.159.609.159h.852v1.157h-1.096c-.625 0-1.104-.147-1.437-.439-.333-.292-.499-.767-.499-1.425v-3.714h-.792v-1.133h.792v-1.669h1.4v1.669h1.632v1.133h-1.632zm3.149 2.192c0-.674.138-1.271.414-1.79a3.09 3.09 0 0 1 2.753-1.645c.527 0 .986.106 1.376.317.398.203.714.459.95.767v-.974h1.4v6.711h-1.4v-.999c-.236.317-.556.58-.962.792a2.968 2.968 0 0 1-1.389.316 2.984 2.984 0 0 1-1.583-.438 3.262 3.262 0 0 1-1.145-1.242c-.276-.536-.414-1.141-.414-1.815zm5.493.024c0-.463-.098-.865-.292-1.206a1.974 1.974 0 0 0-.743-.779 1.959 1.959 0 0 0-.999-.268c-.357 0-.69.089-.999.268-.308.171-.56.426-.755.767-.187.333-.28.731-.28 1.194 0 .463.093.869.28 1.218.195.349.447.617.755.804a2.011 2.011 0 0 0 1.998 0c.308-.179.556-.439.743-.78.194-.349.292-.755.292-1.218zm3.461 0c0-.69.138-1.295.414-1.814a3.02 3.02 0 0 1 1.17-1.218c.495-.285 1.063-.427 1.705-.427.812 0 1.481.195 2.009.585.536.382.897.93 1.084 1.644h-1.498a1.58 1.58 0 0 0-.585-.779c-.268-.187-.604-.28-1.01-.28-.569 0-1.023.203-1.364.608-.333.398-.5.959-.5 1.681 0 .723.167 1.287.5 1.693.341.406.795.609 1.364.609.803 0 1.335-.353 1.595-1.06h1.498c-.195.682-.56 1.226-1.096 1.632-.536.398-1.202.597-1.997.597-.642 0-1.21-.142-1.705-.426a3.124 3.124 0 0 1-1.17-1.218c-.276-.528-.414-1.137-.414-1.827zm10.085-2.216v3.714c0 .252.057.435.171.548.122.106.325.159.609.159h.852v1.157h-1.096c-.625 0-1.104-.147-1.437-.439-.333-.292-.499-.767-.499-1.425v-3.714h-.792v-1.133h.792v-1.669h1.4v1.669h1.632v1.133h-1.632zm9.352-2.887v8.465h-1.389v-8.465h1.389zm5.908 1.644c.528 0 .999.11 1.413.329.422.219.751.544.987.975.235.43.353.949.353 1.558v3.959h-1.376v-3.752c0-.6-.151-1.059-.451-1.376-.3-.325-.71-.487-1.23-.487s-.934.162-1.242.487c-.301.317-.451.776-.451 1.376v3.752h-1.388v-6.711h1.388v.767c.227-.276.516-.491.865-.645a2.814 2.814 0 0 1 1.132-.232zm8.037 1.243h-1.242v5.578h-1.401v-5.578h-.791v-1.133h.791v-.475c0-.771.203-1.332.609-1.681.414-.357 1.06-.536 1.937-.536v1.157c-.422 0-.719.082-.889.244-.171.154-.256.426-.256.816v.475h1.242v1.133zm4.842 5.687a3.48 3.48 0 0 1-1.718-.426 3.155 3.155 0 0 1-1.205-1.218c-.293-.528-.439-1.137-.439-1.827 0-.682.15-1.287.451-1.814.3-.528.71-.934 1.23-1.218a3.558 3.558 0 0 1 1.741-.427c.642 0 1.222.142 1.742.427.52.284.93.69 1.23 1.218.301.527.451 1.132.451 1.814 0 .682-.155 1.287-.463 1.815a3.236 3.236 0 0 1-1.267 1.23 3.637 3.637 0 0 1-1.753.426zm0-1.169c.357 0 .69-.089.998-.268.317-.179.573-.438.767-.779.195-.35.293-.768.293-1.255 0-.487-.094-.901-.28-1.242a1.876 1.876 0 0 0-.743-.78 1.968 1.968 0 0 0-.999-.267c-.357 0-.686.089-.986.267a1.895 1.895 0 0 0-.731.78c-.179.341-.268.755-.268 1.242s.085.905.256 1.255c.178.349.414.613.706.791.3.171.629.256.987.256zm6.944-4.482a2.36 2.36 0 0 1 .803-.938c.341-.227.743-.341 1.206-.341v1.437h-.353c-.544 0-.958.139-1.242.415-.276.276-.414.755-.414 1.437v3.532h-1.389v-6.711h1.389v1.169zm12.109-1.279c.528 0 .998.11 1.413.329.422.219.751.544.986.975.244.43.365.949.365 1.558v3.959h-1.376v-3.752c0-.6-.15-1.059-.45-1.376-.301-.325-.711-.487-1.231-.487-.519 0-.933.162-1.242.487-.3.317-.45.776-.45 1.376v3.752h-1.377v-3.752c0-.6-.15-1.059-.45-1.376-.301-.325-.711-.487-1.23-.487-.52 0-.934.162-1.243.487-.3.317-.45.776-.45 1.376v3.752h-1.389v-6.711h1.389v.767a2.3 2.3 0 0 1 .864-.645c.35-.155.723-.232 1.121-.232.536 0 1.015.114 1.437.341.422.228.747.557.974.987.203-.406.52-.727.95-.962a2.771 2.771 0 0 1 1.389-.366zm4.768 3.435c0-.674.138-1.271.414-1.79a3.096 3.096 0 0 1 2.753-1.645c.528 0 .986.106 1.376.317.398.203.715.459.95.767v-.974h1.401v6.711h-1.401v-.999a2.76 2.76 0 0 1-.962.792 2.966 2.966 0 0 1-1.388.316 2.985 2.985 0 0 1-1.584-.438 3.27 3.27 0 0 1-1.145-1.242c-.276-.536-.414-1.141-.414-1.815zm5.493.024c0-.463-.097-.865-.292-1.206a1.974 1.974 0 0 0-.743-.779 1.959 1.959 0 0 0-.999-.268c-.357 0-.69.089-.999.268-.308.171-.56.426-.755.767-.186.333-.28.731-.28 1.194 0 .463.094.869.28 1.218.195.349.447.617.755.804a2.011 2.011 0 0 0 1.998 0c.308-.179.556-.439.743-.78.195-.349.292-.755.292-1.218zm5.544-2.216v3.714c0 .252.057.435.171.548.121.106.324.159.609.159h.852v1.157h-1.096c-.625 0-1.104-.147-1.437-.439-.333-.292-.5-.767-.5-1.425v-3.714h-.791v-1.133h.791v-1.669h1.401v1.669h1.632v1.133h-1.632zm4.318-2.022a.856.856 0 0 1-.633-.256.856.856 0 0 1-.256-.633c0-.252.085-.463.256-.633a.856.856 0 0 1 .633-.256c.244 0 .451.085.621.256.171.17.256.381.256.633a.856.856 0 0 1-.256.633.842.842 0 0 1-.621.256zm.682.889v6.711h-1.388v-6.711h1.388zm5.434 6.82a3.48 3.48 0 0 1-1.718-.426 3.155 3.155 0 0 1-1.205-1.218c-.293-.528-.439-1.137-.439-1.827 0-.682.151-1.287.451-1.814.3-.528.71-.934 1.23-1.218.52-.285 1.1-.427 1.742-.427.641 0 1.222.142 1.741.427.52.284.93.69 1.23 1.218.301.527.451 1.132.451 1.814 0 .682-.154 1.287-.463 1.815a3.229 3.229 0 0 1-1.267 1.23 3.637 3.637 0 0 1-1.753.426zm0-1.169c.357 0 .69-.089.998-.268.317-.179.573-.438.768-.779.195-.35.292-.768.292-1.255 0-.487-.093-.901-.28-1.242a1.876 1.876 0 0 0-.743-.78 1.965 1.965 0 0 0-.999-.267c-.357 0-.686.089-.986.267a1.895 1.895 0 0 0-.731.78c-.179.341-.268.755-.268 1.242s.085.905.256 1.255c.178.349.414.613.706.791.301.171.629.256.987.256zm8.941-5.761c.528 0 .999.11 1.413.329.422.219.751.544.986.975.236.43.354.949.354 1.558v3.959h-1.377v-3.752c0-.6-.15-1.059-.45-1.376-.301-.325-.711-.487-1.23-.487-.52 0-.934.162-1.243.487-.3.317-.45.776-.45 1.376v3.752h-1.389v-6.711h1.389v.767c.227-.276.515-.491.865-.645a2.81 2.81 0 0 1 1.132-.232z"/>
        <path fill="#FF8CCB" fill-rule="evenodd" d="M51.74 141.92c9.654 0 17.48 7.826 17.48 17.479 0 9.654-7.826 17.48-17.48 17.48-9.653 0-17.479-7.826-17.479-17.48 0-9.653 7.826-17.479 17.48-17.479z" clip-rule="evenodd" filter="url(#q)"/>
        <path fill="#fff" fill-rule="evenodd" d="M52.027 163.329c3.017 0 5.471-2.994 5.471-6.673 0-3.678-2.455-6.672-5.47-6.672-1.488 0-2.878.712-3.914 2.004-1.005 1.253-1.557 2.912-1.557 4.669 0 3.678 2.454 6.672 5.47 6.672zm0-12.131c2.347 0 4.255 2.448 4.255 5.459 0 3.01-1.908 5.46-4.255 5.46-2.345 0-4.255-2.45-4.255-5.46 0-3.011 1.91-5.459 4.255-5.459zm4.255 10.918a.606.606 0 1 0 0 1.213 4.256 4.256 0 0 1 4.256 4.246.609.609 0 0 1-.608.607H44.126a.609.609 0 0 1-.608-.607 4.256 4.256 0 0 1 4.255-4.246.607.607 0 1 0 0-1.213c-3.017 0-5.471 2.449-5.471 5.459 0 1.004.818 1.82 1.824 1.82H59.93a1.824 1.824 0 0 0 1.823-1.82c0-3.01-2.454-5.459-5.47-5.459z" clip-rule="evenodd"/>
        <rect width="66.984" height="26.968" x="55.492" y="380.253" stroke="#28ACFF" stroke-width=".87" rx="3.915"/>
        <rect width="92.212" height="26.968" x="162.493" y="379.817" stroke="#28ACFF" stroke-width=".87" rx="3.915"/>
        <rect width="64.375" height="26.968" x="55.492" y="449.847" stroke="#28ACFF" stroke-width=".87" rx="3.915"/>
        <rect width="53.936" height="26.968" x="166.843" y="450.282" stroke="#28ACFF" stroke-width=".87" rx="3.915"/>
        <rect width="58.285" height="26.968" x="56.362" y="520.745" stroke="#28ACFF" stroke-width=".87" rx="3.915"/>
    </g>
    <defs>
        <filter id="a" width="3.433" height="47.586" x="0" y="131.666" color-interpolation-filters="sRGB" filterUnits="userSpaceOnUse">
            <feFlood flood-opacity="0" result="BackgroundImageFix"/>
            <feBlend in="SourceGraphic" in2="BackgroundImageFix" result="shape"/>
            <feColorMatrix in="SourceAlpha" result="hardAlpha" values="0 0 0 0 0 0 0 0 0 0 0 0 0 0 0 0 0 0 127 0"/>
            <feOffset dy="1"/>
            <feGaussianBlur stdDeviation="5"/>
            <feComposite in2="hardAlpha" k2="-1" k3="1" operator="arithmetic"/>
            <feColorMatrix values="0 0 0 0 0 0 0 0 0 0 0 0 0 0 0 0 0 0 0.1 0"/>
            <feBlend in2="shape" result="effect1_innerShadow"/>
            <feColorMatrix in="SourceAlpha" result="hardAlpha" values="0 0 0 0 0 0 0 0 0 0 0 0 0 0 0 0 0 0 127 0"/>
            <feOffset dy="1"/>
            <feGaussianBlur stdDeviation="1.5"/>
            <feComposite in2="hardAlpha" k2="-1" k3="1" operator="arithmetic"/>
            <feColorMatrix values="0 0 0 0 1 0 0 0 0 1 0 0 0 0 1 0 0 0 0.15 0"/>
            <feBlend in2="effect1_innerShadow" result="effect2_innerShadow"/>
        </filter>
        <filter id="b" width="3.433" height="47.586" x="0" y="190.021" color-interpolation-filters="sRGB" filterUnits="userSpaceOnUse">
            <feFlood flood-opacity="0" result="BackgroundImageFix"/>
            <feBlend in="SourceGraphic" in2="BackgroundImageFix" result="shape"/>
            <feColorMatrix in="SourceAlpha" result="hardAlpha" values="0 0 0 0 0 0 0 0 0 0 0 0 0 0 0 0 0 0 127 0"/>
            <feOffset dy="1"/>
            <feGaussianBlur stdDeviation="5"/>
            <feComposite in2="hardAlpha" k2="-1" k3="1" operator="arithmetic"/>
            <feColorMatrix values="0 0 0 0 0 0 0 0 0 0 0 0 0 0 0 0 0 0 0.1 0"/>
            <feBlend in2="shape" result="effect1_innerShadow"/>
            <feColorMatrix in="SourceAlpha" result="hardAlpha" values="0 0 0 0 0 0 0 0 0 0 0 0 0 0 0 0 0 0 127 0"/>
            <feOffset dy="1"/>
            <feGaussianBlur stdDeviation="1.5"/>
            <feComposite in2="hardAlpha" k2="-1" k3="1" operator="arithmetic"/>
            <feColorMatrix values="0 0 0 0 1 0 0 0 0 1 0 0 0 0 1 0 0 0 0.15 0"/>
            <feBlend in2="effect1_innerShadow" result="effect2_innerShadow"/>
        </filter>
        <filter id="c" width="3.433" height="26.5" x="0" y="86.061" color-interpolation-filters="sRGB" filterUnits="userSpaceOnUse">
            <feFlood flood-opacity="0" result="BackgroundImageFix"/>
            <feBlend in="SourceGraphic" in2="BackgroundImageFix" result="shape"/>
            <feColorMatrix in="SourceAlpha" result="hardAlpha" values="0 0 0 0 0 0 0 0 0 0 0 0 0 0 0 0 0 0 127 0"/>
            <feOffset dy="1"/>
            <feGaussianBlur stdDeviation="5"/>
            <feComposite in2="hardAlpha" k2="-1" k3="1" operator="arithmetic"/>
            <feColorMatrix values="0 0 0 0 0 0 0 0 0 0 0 0 0 0 0 0 0 0 0.1 0"/>
            <feBlend in2="shape" result="effect1_innerShadow"/>
            <feColorMatrix in="SourceAlpha" result="hardAlpha" values="0 0 0 0 0 0 0 0 0 0 0 0 0 0 0 0 0 0 127 0"/>
            <feOffset dy="1"/>
            <feGaussianBlur stdDeviation="1.5"/>
            <feComposite in2="hardAlpha" k2="-1" k3="1" operator="arithmetic"/>
            <feColorMatrix values="0 0 0 0 1 0 0 0 0 1 0 0 0 0 1 0 0 0 0.15 0"/>
            <feBlend in2="effect1_innerShadow" result="effect2_innerShadow"/>
        </filter>
        <filter id="d" width="3.433" height="77.008" x="316.539" y="146.377" color-interpolation-filters="sRGB" filterUnits="userSpaceOnUse">
            <feFlood flood-opacity="0" result="BackgroundImageFix"/>
            <feBlend in="SourceGraphic" in2="BackgroundImageFix" result="shape"/>
            <feColorMatrix in="SourceAlpha" result="hardAlpha" values="0 0 0 0 0 0 0 0 0 0 0 0 0 0 0 0 0 0 127 0"/>
            <feOffset dy="1"/>
            <feGaussianBlur stdDeviation="5"/>
            <feComposite in2="hardAlpha" k2="-1" k3="1" operator="arithmetic"/>
            <feColorMatrix values="0 0 0 0 0 0 0 0 0 0 0 0 0 0 0 0 0 0 0.1 0"/>
            <feBlend in2="shape" result="effect1_innerShadow"/>
            <feColorMatrix in="SourceAlpha" result="hardAlpha" values="0 0 0 0 0 0 0 0 0 0 0 0 0 0 0 0 0 0 127 0"/>
            <feOffset dy="1"/>
            <feGaussianBlur stdDeviation="1.5"/>
            <feComposite in2="hardAlpha" k2="-1" k3="1" operator="arithmetic"/>
            <feColorMatrix values="0 0 0 0 1 0 0 0 0 1 0 0 0 0 1 0 0 0 0.15 0"/>
            <feBlend in2="effect1_innerShadow" result="effect2_innerShadow"/>
        </filter>
        <filter id="e" width="315.067" height="638" x="2.452" y="0" color-interpolation-filters="sRGB" filterUnits="userSpaceOnUse">
            <feFlood flood-opacity="0" result="BackgroundImageFix"/>
            <feBlend in="SourceGraphic" in2="BackgroundImageFix" result="shape"/>
            <feColorMatrix in="SourceAlpha" result="hardAlpha" values="0 0 0 0 0 0 0 0 0 0 0 0 0 0 0 0 0 0 127 0"/>
            <feOffset dy="1"/>
            <feGaussianBlur stdDeviation="10"/>
            <feComposite in2="hardAlpha" k2="-1" k3="1" operator="arithmetic"/>
            <feColorMatrix values="0 0 0 0 0 0 0 0 0 0 0 0 0 0 0 0 0 0 0.2 0"/>
            <feBlend in2="shape" result="effect1_innerShadow"/>
            <feColorMatrix in="SourceAlpha" result="hardAlpha" values="0 0 0 0 0 0 0 0 0 0 0 0 0 0 0 0 0 0 127 0"/>
            <feOffset dy="1"/>
            <feGaussianBlur stdDeviation="5"/>
            <feComposite in2="hardAlpha" k2="-1" k3="1" operator="arithmetic"/>
            <feColorMatrix values="0 0 0 0 1 0 0 0 0 1 0 0 0 0 1 0 0 0 1 0"/>
            <feBlend in2="effect1_innerShadow" result="effect2_innerShadow"/>
        </filter>
        <filter id="f" width="304.279" height="636.212" x="7.846" y="5.394" color-interpolation-filters="sRGB" filterUnits="userSpaceOnUse">
            <feFlood flood-opacity="0" result="BackgroundImageFix"/>
            <feBlend in="SourceGraphic" in2="BackgroundImageFix" result="shape"/>
            <feColorMatrix in="SourceAlpha" result="hardAlpha" values="0 0 0 0 0 0 0 0 0 0 0 0 0 0 0 0 0 0 127 0"/>
            <feOffset dy="1"/>
            <feGaussianBlur stdDeviation="30"/>
            <feComposite in2="hardAlpha" k2="-1" k3="1" operator="arithmetic"/>
            <feColorMatrix values="0 0 0 0 0 0 0 0 0 0 0 0 0 0 0 0 0 0 0.1 0"/>
            <feBlend in2="shape" result="effect1_innerShadow"/>
            <feColorMatrix in="SourceAlpha" result="hardAlpha" values="0 0 0 0 0 0 0 0 0 0 0 0 0 0 0 0 0 0 127 0"/>
            <feOffset dy="10"/>
            <feGaussianBlur stdDeviation="20"/>
            <feComposite in2="hardAlpha" k2="-1" k3="1" operator="arithmetic"/>
            <feColorMatrix values="0 0 0 0 1 0 0 0 0 1 0 0 0 0 1 0 0 0 1 0"/>
            <feBlend in2="effect1_innerShadow" result="effect2_innerShadow"/>
        </filter>
        <filter id="h" width="5.885" height="6.885" x="124.556" y="23.538" color-interpolation-filters="sRGB" filterUnits="userSpaceOnUse">
            <feFlood flood-opacity="0" result="BackgroundImageFix"/>
            <feBlend in="SourceGraphic" in2="BackgroundImageFix" result="shape"/>
            <feColorMatrix in="SourceAlpha" result="hardAlpha" values="0 0 0 0 0 0 0 0 0 0 0 0 0 0 0 0 0 0 127 0"/>
            <feOffset dy="1"/>
            <feGaussianBlur stdDeviation="1.5"/>
            <feComposite in2="hardAlpha" k2="-1" k3="1" operator="arithmetic"/>
            <feColorMatrix values="0 0 0 0 0 0 0 0 0 0 0 0 0 0 0 0 0 0 0.05 0"/>
            <feBlend in2="shape" result="effect1_innerShadow"/>
        </filter>
        <filter id="i" width="3.923" height="4.923" x="125.537" y="24.519" color-interpolation-filters="sRGB" filterUnits="userSpaceOnUse">
            <feFlood flood-opacity="0" result="BackgroundImageFix"/>
            <feBlend in="SourceGraphic" in2="BackgroundImageFix" result="shape"/>
            <feColorMatrix in="SourceAlpha" result="hardAlpha" values="0 0 0 0 0 0 0 0 0 0 0 0 0 0 0 0 0 0 127 0"/>
            <feOffset dy="1"/>
            <feGaussianBlur stdDeviation="1.5"/>
            <feComposite in2="hardAlpha" k2="-1" k3="1" operator="arithmetic"/>
            <feColorMatrix values="0 0 0 0 1 0 0 0 0 1 0 0 0 0 1 0 0 0 0.363734 0"/>
            <feBlend in2="shape" result="effect1_innerShadow"/>
        </filter>
        <filter id="j" width="9.808" height="10.807" x="190.757" y="21.577" color-interpolation-filters="sRGB" filterUnits="userSpaceOnUse">
            <feFlood flood-opacity="0" result="BackgroundImageFix"/>
            <feBlend in="SourceGraphic" in2="BackgroundImageFix" result="shape"/>
            <feColorMatrix in="SourceAlpha" result="hardAlpha" values="0 0 0 0 0 0 0 0 0 0 0 0 0 0 0 0 0 0 127 0"/>
            <feOffset dy="1"/>
            <feGaussianBlur stdDeviation="1.5"/>
            <feComposite in2="hardAlpha" k2="-1" k3="1" operator="arithmetic"/>
            <feColorMatrix values="0 0 0 0 0 0 0 0 0 0 0 0 0 0 0 0 0 0 0.05 0"/>
            <feBlend in2="shape" result="effect1_innerShadow"/>
        </filter>
        <filter id="k" width="7.846" height="8.846" x="191.738" y="22.557" color-interpolation-filters="sRGB" filterUnits="userSpaceOnUse">
            <feFlood flood-opacity="0" result="BackgroundImageFix"/>
            <feBlend in="SourceGraphic" in2="BackgroundImageFix" result="shape"/>
            <feColorMatrix in="SourceAlpha" result="hardAlpha" values="0 0 0 0 0 0 0 0 0 0 0 0 0 0 0 0 0 0 127 0"/>
            <feOffset dy="1"/>
            <feGaussianBlur stdDeviation="1.5"/>
            <feComposite in2="hardAlpha" k2="-1" k3="1" operator="arithmetic"/>
            <feColorMatrix values="0 0 0 0 1 0 0 0 0 1 0 0 0 0 1 0 0 0 0.363734 0"/>
            <feBlend in2="shape" result="effect1_innerShadow"/>
        </filter>
        <filter id="l" width="36.778" height="4.923" x="141.719" y="24.519" color-interpolation-filters="sRGB" filterUnits="userSpaceOnUse">
            <feFlood flood-opacity="0" result="BackgroundImageFix"/>
            <feBlend in="SourceGraphic" in2="BackgroundImageFix" result="shape"/>
            <feColorMatrix in="SourceAlpha" result="hardAlpha" values="0 0 0 0 0 0 0 0 0 0 0 0 0 0 0 0 0 0 127 0"/>
            <feOffset dy="1"/>
            <feGaussianBlur stdDeviation="1.5"/>
            <feComposite in2="hardAlpha" k2="-1" k3="1" operator="arithmetic"/>
            <feColorMatrix values="0 0 0 0 0 0 0 0 0 0 0 0 0 0 0 0 0 0 0.05 0"/>
            <feBlend in2="shape" result="effect1_innerShadow"/>
        </filter>
        <filter id="m" width="34.817" height="2.962" x="142.7" y="25.5" color-interpolation-filters="sRGB" filterUnits="userSpaceOnUse">
            <feFlood flood-opacity="0" result="BackgroundImageFix"/>
            <feBlend in="SourceGraphic" in2="BackgroundImageFix" result="shape"/>
            <feColorMatrix in="SourceAlpha" result="hardAlpha" values="0 0 0 0 0 0 0 0 0 0 0 0 0 0 0 0 0 0 127 0"/>
            <feOffset dy="1"/>
            <feGaussianBlur stdDeviation="1.5"/>
            <feComposite in2="hardAlpha" k2="-1" k3="1" operator="arithmetic"/>
            <feColorMatrix values="0 0 0 0 1 0 0 0 0 1 0 0 0 0 1 0 0 0 0.363734 0"/>
            <feBlend in2="shape" result="effect1_innerShadow"/>
        </filter>
        <filter id="p" width="266.699" height="391.699" x="26.65" y="199.26" color-interpolation-filters="sRGB" filterUnits="userSpaceOnUse">
            <feFlood flood-opacity="0" result="BackgroundImageFix"/>
            <feColorMatrix in="SourceAlpha" values="0 0 0 0 0 0 0 0 0 0 0 0 0 0 0 0 0 0 127 0"/>
            <feOffset dy="2.61"/>
            <feGaussianBlur stdDeviation="2.175"/>
            <feColorMatrix values="0 0 0 0 0.141176 0 0 0 0 0.756863 0 0 0 0 1 0 0 0 0.18 0"/>
            <feBlend in2="BackgroundImageFix" result="effect1_dropShadow"/>
            <feBlend in="SourceGraphic" in2="effect1_dropShadow" result="shape"/>
        </filter>
        <filter id="q" width="59.317" height="59.317" x="22.082" y="129.741" color-interpolation-filters="sRGB" filterUnits="userSpaceOnUse">
            <feFlood flood-opacity="0" result="BackgroundImageFix"/>
            <feColorMatrix in="SourceAlpha" values="0 0 0 0 0 0 0 0 0 0 0 0 0 0 0 0 0 0 127 0"/>
            <feOffset/>
            <feGaussianBlur stdDeviation="6.09"/>
            <feColorMatrix values="0 0 0 0 1 0 0 0 0 0.54902 0 0 0 0 0.796078 0 0 0 0.55 0"/>
            <feBlend in2="BackgroundImageFix" result="effect1_dropShadow"/>
            <feBlend in="SourceGraphic" in2="effect1_dropShadow" result="shape"/>
        </filter>
        <linearGradient id="g" x1="-144.294" x2="348.026" y1="318.5" y2="557.72" gradientUnits="userSpaceOnUse">
            <stop stop-color="#fff" stop-opacity=".01"/>
            <stop offset="1" stop-opacity=".03"/>
        </linearGradient>
    </defs>
</svg>
