<svg xmlns="http://www.w3.org/2000/svg" width="101" height="78" viewBox="0 0 101 78">
  <g fill="none" fill-rule="evenodd">
    <path fill="#9595EF" fill-opacity=".078" stroke="#000" stroke-dasharray="8 10" stroke-linecap="round" d="M7,7 L100,7 L100,77 L7,77 L7,7 Z"/>
    <rect width="92" height="70" fill="#E76F00" fill-rule="nonzero"/>
    <g transform="translate(10 10)">
      <path fill="#E76F00" fill-rule="nonzero" d="M32.1425572,49.1669107 L32,49.1669107 L32,49 L32.3839317,49 L32.3839317,49.1669107 L32.2422143,49.1669107 L32.2422143,49.9997072 L32.1425572,49.9997072 L32.1425572,49.1669107 Z M32.9083211,49.2103953 L32.9060816,49.2103953 L32.7647141,50 L32.700049,50 L32.5596613,49.2103953 L32.5579817,49.2103953 L32.5579817,50 L32.4639933,50 L32.4639933,49.0002928 L32.6022815,49.0002928 L32.7324515,49.7081991 L32.8622017,49.0002928 L33,49.0002928 L33,50 L32.9082511,50 L32.9083211,49.2103953 Z"/>
      <path fill="#FFF" fill-rule="nonzero" d="M11.2329153,33.5595224 C11.2329153,33.5595224 9.64376887,34.4850089 12.3638568,34.7981814 C15.6591668,35.1746619 17.3433616,35.1206705 20.9748157,34.4323645 C20.9748157,34.4323645 21.9295589,35.0318822 23.2629266,35.5511424 C15.1221658,39.0452047 4.83878092,35.3487589 11.2329153,33.5595224 M10.2381576,29 C10.2381576,29 8.45577598,30.3212737 11.1778814,30.6032412 C14.6980347,30.9669254 17.4779762,30.9966712 22.2883442,30.069052 C22.2883442,30.069052 22.9537951,30.7445617 24,31.1139706 C14.1572228,33.9962802 3.19426429,31.3412732 10.2381576,29"/>
      <path fill="#FFF" d="M17.983289,20.5505481 C20.1455983,22.8924606 17.4152841,25 17.4152841,25 C17.4152841,25 22.905515,22.3336933 20.3841097,18.9948425 C18.0290823,15.8810446 16.22309,14.3340911 26,9 C26.0001208,8.99988634 10.6534762,12.6055041 17.983289,20.5505481"/>
      <path fill="#FFF" fill-rule="nonzero" d="M29.2687214,36.7175763 C29.2687214,36.7175763 30.4964387,37.7370523 27.9166175,38.5255366 C23.0110136,40.023032 7.4989708,40.4752284 3.18979048,38.5853185 C1.64075097,37.9061396 4.54563886,36.9637787 5.45940601,36.7660386 C6.41237306,36.5578042 6.95695909,36.5965976 6.95695909,36.5965976 C5.23426988,35.3737217 -4.17780091,38.9976604 2.17609284,40.0356487 C19.5040855,42.8673298 33.7634869,38.7605373 29.2687214,36.7175763 M11.1098079,23.4226477 C11.1098079,23.4226477 3.21939518,25.3111426 8.31561582,25.9969247 C10.4673976,26.2872265 14.7569195,26.221549 18.7523836,25.8841998 C22.0177936,25.6066326 25.2967772,25.0165958 25.2967772,25.0165958 C25.2967772,25.0165958 24.1453533,25.5134813 23.3123263,26.0865386 C15.2997503,28.210152 -0.179060371,27.2221589 4.27709031,25.0500831 C8.04566309,23.2144133 11.1098079,23.4226477 11.1098079,23.4226477 M25.2642471,31.3952185 C33.4094006,27.1301867 29.6435192,23.0314123 27.0147858,23.5837168 C26.3705033,23.7188452 26.0832324,23.8359328 26.0832324,23.8359328 C26.0832324,23.8359328 26.3225273,23.4583753 26.7791184,23.2949479 C31.979365,21.4526749 35.9786906,28.7284977 25.1004266,31.6102918 C25.1004266,31.6102918 25.2266854,31.4968595 25.2642471,31.3952185"/>
      <path fill="#FFF" d="M20.8625718 1.57091594e-15C20.8625718 1.57091594e-15 25.2957861 4.54695883 16.6578607 11.5391962 9.73112152 17.1479611 15.0783484 20.3459959 16.6549857 24 12.6118483 20.2594478 9.64464221 16.9668468 11.6352762 13.9022895 14.5569426 9.40379287 22.6512674 7.2227572 20.8625718 0M12.3141239 42.8672892C20.3569461 43.3539575 32.7076103 42.5972719 33 39 33 39 32.4378511 40.3636271 26.3530406 41.4467684 19.488444 42.66782 11.021663 42.5253583 6 41.7427292 6.00024075 41.7425016 7.02811859 42.5468641 12.3141239 42.8672892"/>
      <path fill="#FFF" fill-rule="nonzero" d="M52.5080847,35.1405684 C51.7743806,35.7779751 50.9994689,36.135795 50.3040622,36.135795 C49.3114721,36.135795 48.7751918,35.5396617 48.7751918,34.5834934 C48.7751918,33.5492085 49.349886,32.7929949 51.6549485,32.7929949 L52.5079683,32.7929949 L52.5080847,35.1405684 Z M54.5326099,37.428447 L54.5326099,30.346435 C54.5326099,28.5371653 53.5024209,27.3434997 51.0185594,27.3434997 C49.5684956,27.3434997 48.2982783,27.7021357 47.2658775,28.1595249 L47.5638757,29.4131186 C48.3767356,29.1142941 49.4289253,28.8361064 50.4616753,28.8361064 C51.8925322,28.8361064 52.5080847,29.4131186 52.5080847,30.6060847 L52.5080847,31.5012757 L51.7939367,31.5012757 C48.3174852,31.5012757 46.7492697,32.852923 46.7492697,34.8816183 C46.7492697,36.6325922 47.7827181,37.6278188 49.7285532,37.6278188 C50.9793307,37.6278188 51.9130196,37.1105015 52.7858284,36.3535883 L52.9442563,37.4286802 L54.5326099,37.428447 Z M61.2891368,37.428447 L58.7641842,37.428447 L55.7253011,27.5228177 L57.9304877,27.5228177 L59.8160247,33.6087869 L60.235201,35.4391597 C61.1891445,32.7927617 61.8639474,30.1078885 62.2014071,27.5228177 L64.346412,27.5228177 C63.7716014,30.7845866 62.7374546,34.364884 61.2891368,37.428447 Z M70.9757076,35.1405684 C70.2406066,35.7779751 69.4644145,36.135795 68.7688913,36.135795 C67.7780474,36.135795 67.2403702,35.5396617 67.2403702,34.5834934 C67.2403702,33.5492085 67.8162284,32.7929949 70.1211745,32.7929949 L70.9757076,32.7929949 L70.9757076,35.1405684 Z M73,37.428447 L73,30.346435 C73,28.5371653 71.9673664,27.3434997 69.4861823,27.3434997 C68.0351872,27.3434997 66.7645043,27.7021357 65.7325692,28.1595249 L66.0302182,29.4131186 C66.8433109,29.1142941 67.8974795,28.8361064 68.9294146,28.8361064 C70.3592239,28.8361064 70.9757076,29.4131186 70.9757076,30.6060847 L70.9757076,31.5012757 L70.2602792,31.5012757 C66.7828964,31.5012757 65.2152629,32.852923 65.2152629,34.8816183 C65.2152629,36.6325922 66.2478965,37.6278188 68.1933823,37.6278188 C69.4449747,37.6278188 70.3783144,37.1105015 71.25252,36.3535883 L71.41153,37.4286802 L73,37.428447 Z M44.529416,39.1105152 C43.9522774,39.9545224 43.0201018,40.6222429 41.9995744,41 L41,39.8218411 C41.7767742,39.4226311 42.4429631,38.7778791 42.7524854,38.177432 C43.0202182,37.6433255 43.1310363,36.9549682 43.1310363,35.3088102 L43.1310363,24 L45.2819779,24 L45.2819779,35.1538599 C45.2818615,37.3545279 45.1062055,38.2435394 44.529416,39.1105152 Z"/>
    </g>
  </g>
</svg>
