<svg xmlns="http://www.w3.org/2000/svg" xmlns:xlink="http://www.w3.org/1999/xlink" width="73" height="99" viewBox="0 0 73 99">
  <defs>
    <polygon id="jira-a" points=".321 .425 13.107 .425 13.107 13.21 .321 13.21"/>
  </defs>
  <g fill="none" fill-rule="evenodd">
    <path fill="#9595EF" fill-opacity=".078" stroke="#000" stroke-dasharray="8 10" stroke-linecap="round" d="M35 12C38.3137085 12 41 9.3137085 41 6 41 2.6862915 38.3137085 0 35 0 31.6862915 0 29 2.6862915 29 6 29 9.3137085 31.6862915 12 35 12zM15 16C18.3137085 16 21 13.3137085 21 10 21 6.6862915 18.3137085 4 15 4 11.6862915 4 9 6.6862915 9 10 9 13.3137085 11.6862915 16 15 16zM54 17C57.3137085 17 60 14.3137085 60 11 60 7.6862915 57.3137085 5 54 5 50.6862915 5 48 7.6862915 48 11 48 14.3137085 50.6862915 17 54 17zM11.8720925 90.1465479L56.5983 90.1465479C56.3111217 81.3272416 54.9675893 74.7875628 52.5677028 70.5275117 50.1678163 66.2674606 47.5471344 62.4807485 44.7056572 59.1673754 52.4671664 52.8537833 58.0009997 46.5969535 61.3071573 40.3968859 64.6133148 34.1968182 66.5439512 27.4998409 67.0990662 20.3059537 59.0239219 24.2360144 48.1267823 26.2010448 34.4076475 26.2010448 20.6885127 26.2010448 9.32621166 24.2360144.320744514 20.3059537 2.01735702 30.6732326 4.54447745 37.9267682 7.90210582 42.0665604 11.2597342 46.2063526 16.3262415 51.9066243 23.1016277 59.1673754 19.023408 64.2629853 16.2942526 69.1539146 14.9141615 73.8401632 13.5340704 78.5264119 12.5200474 83.9618735 11.8720925 90.1465479z" transform="translate(5 8)"/>
    <path fill="#036" d="M0.00232405063,23.1393241 C0.00232405063,23.1393241 -0.643675949,36.8305646 19.6573367,56.7623114 C39.957919,76.6940582 42.2651848,84.7899316 41.1578177,90.3848684 L55.9219949,90.3848684 C55.9219949,90.3848684 57.263919,67.2549696 34.3793367,51.0141595 C34.3793367,51.0141595 18.6257165,37.0031468 16.0585013,25.8786911 C16.0585013,25.8786911 8.30348861,25.8748177 2.90781772,21.5348684 C2.90781772,21.5348684 -0.00197974684,19.7901089 0.00232405063,23.1393241"/>
    <path fill="#036" d="M31.4265873 54.7634127C35.5031443 57.6564253 38.7981316 60.7706532 41.4819797 63.9343747 43.4397772 61.8461722 45.6308405 59.6051848 48.0917519 57.1894633 68.3923342 37.2577165 67.7467646 23.1395392 67.7467646 23.1395392 67.750638 19.7898937 64.8408405 21.6418177 64.8408405 21.6418177 59.4451696 25.9817671 51.690157 26.0923747 51.690157 26.0923747 49.1233722 37.2168304 33.3693215 51.4413114 33.3693215 51.4413114 32.3028405 52.1983494 31.3056506 52.9751848 30.3416 53.7610582 31.0241823 54.4044759 31.4265873 54.7634127 31.4265873 54.7634127M31.2319696 76.3883165C28.6122481 73.0007975 25.1179949 69.0357089 20.4957165 64.3118608 11.0695392 77.8589241 11.8265772 91.2454557 11.8265772 91.2454557L26.5907544 91.2454557C25.9357165 87.8024177 26.4779949 83.4461139 31.2319696 76.3883165M26.4389595 27.1190886L41.0675671 27.1190886C41.0675671 27.1190886 42.9788835 26.8501013 42.5127823 29.3807342 41.8499975 32.9795696 33.9529595 40.2723544 33.9529595 40.2723544 33.9529595 40.2723544 28.1789848 34.9106835 25.6074658 29.8743797 25.6074658 29.8743797 24.5689595 27.1190886 26.4389595 27.1190886M59.5367975 11.9904228C59.5367975 15.5208278 56.6747722 18.3828532 53.1443671 18.3828532 49.613962 18.3828532 46.7515063 15.5208278 46.7515063 11.9904228 46.7515063 8.45958734 49.613962 5.59756203 53.1443671 5.59756203 56.6747722 5.59756203 59.5367975 8.45958734 59.5367975 11.9904228M21.8878228 11.9904228C21.8878228 15.5208278 19.0257975 18.3828532 15.4953924 18.3828532 11.9649873 18.3828532 9.10253165 15.5208278 9.10253165 11.9904228 9.10253165 8.45958734 11.9649873 5.59756203 15.4953924 5.59756203 19.0257975 5.59756203 21.8878228 8.45958734 21.8878228 11.9904228"/>
    <g transform="translate(27.975 .005)">
      <mask id="jira-b" fill="#fff">
        <use xlink:href="#jira-a"/>
      </mask>
      <path fill="#036" d="M13.1066557,6.81777468 C13.1066557,10.3481797 10.2446304,13.2102051 6.71422532,13.2102051 C3.18382025,13.2102051 0.321364557,10.3481797 0.321364557,6.81777468 C0.321364557,3.28693924 3.18382025,0.424913924 6.71422532,0.424913924 C10.2446304,0.424913924 13.1066557,3.28693924 13.1066557,6.81777468" mask="url(#jira-b)"/>
    </g>
  </g>
</svg>
