<svg width="120" height="120" viewBox="0 0 120 120" fill="none" xmlns="http://www.w3.org/2000/svg">
<path fill-rule="evenodd" clip-rule="evenodd" d="M66.8188 16.8023C65.6721 17.3757 63.6653 19.3825 61.3718 22.2493L63.3786 26.2628C64.3042 24.967 65.3494 23.6711 66.3597 22.4525C65.6572 23.3728 64.759 24.6223 63.6653 26.2628C63.6659 26.2628 63.6665 26.2628 63.667 26.2628C63.5317 26.4658 63.3804 26.6848 63.2207 26.916C62.7037 27.6642 62.0983 28.5402 61.6603 29.4163V29.7029C61.3736 30.2763 61.0153 30.8497 60.6569 31.423C60.2986 31.9964 59.9402 32.5698 59.6535 33.1431C59.0802 34.2899 58.5068 35.4366 57.6468 36.87L55.9267 40.3102L63.0937 39.4502C65.1005 38.5901 65.9606 37.7301 66.8206 36.2967L66.8206 36.2966C67.1073 36.01 67.394 35.7233 67.394 35.1499C68.254 34.0032 68.8274 32.8565 69.4008 31.423C69.9741 30.2763 70.5475 29.1296 70.8342 27.9828C71.1209 27.4095 71.4076 26.5494 71.4076 25.9761C71.4076 25.6894 71.4792 25.4744 71.5509 25.2594C71.5578 25.2387 71.5647 25.218 71.5715 25.1972C71.7079 25.1702 71.8438 25.1432 71.9791 25.1161C72.8391 20.5292 71.1191 18.5224 71.1191 18.5224C71.1191 18.5224 69.1123 15.3689 66.8188 16.8023ZM57.0772 36.583C57.3639 36.0096 57.7223 35.4363 58.0806 34.8629C58.439 34.2895 58.7973 33.7162 59.084 33.1428C59.3707 32.5694 59.729 31.9961 60.0874 31.4227L60.0874 31.4227L60.0874 31.4226C60.4458 30.8493 60.8041 30.2759 61.0908 29.7026V29.4159C61.5288 28.5399 62.1341 27.6638 62.6511 26.9156C62.8109 26.6844 62.9622 26.4654 63.0976 26.2624L61.0908 22.2488L60.5174 22.8222L60.5174 22.8222C59.944 23.6823 59.3707 24.5423 58.5107 25.4023C57.9744 25.9386 57.5496 26.5862 57.0973 27.2758C56.8242 27.6923 56.541 28.1241 56.2172 28.5559C55.8213 29.3476 55.2888 30.0026 54.714 30.7098L54.714 30.7098C54.4562 31.0268 54.19 31.3544 53.9237 31.7094C53.637 32.1394 53.3504 32.6411 53.0637 33.1428C52.777 33.6445 52.4903 34.1462 52.2036 34.5762L55.0705 40.0232C55.9305 38.8765 56.5039 37.7297 57.0772 36.583ZM43.8874 69.1218C44.1024 68.6201 44.3174 68.1184 44.4608 67.545C44.4608 67.4017 44.5324 67.33 44.5683 67.2942C44.5813 67.2812 44.5896 67.2729 44.588 67.2676C44.5852 67.2584 44.552 67.2584 44.4608 67.2584L46.7542 66.9717C49.9077 67.545 52.4879 66.9717 55.068 64.3915C54.9247 64.6782 54.7814 64.8932 54.638 65.1082C54.4947 65.3232 54.3513 65.5383 54.208 65.8249C53.0613 67.8317 51.6278 69.2651 48.761 70.4119C50.6347 70.4119 51.5087 70.162 52.3165 69.1954C52.2722 69.2664 52.2367 69.3375 52.2012 69.4085C52.1295 69.5518 52.0579 69.6952 51.9145 69.8385C50.1944 72.7053 46.7542 73.8521 42.7407 73.5654C43.6007 74.4254 44.1741 75.5722 44.1741 76.7189C43.6007 75.5722 43.0273 74.4254 42.1673 74.1388C42.454 72.7053 42.7407 71.8453 43.0273 71.2719C43.314 70.9852 43.314 70.9852 43.314 70.6986C43.4574 70.1252 43.6724 69.6235 43.8874 69.1218ZM52.4879 68.9785C52.4156 69.0508 52.3615 69.1231 52.3165 69.1954C52.3738 69.1268 52.4309 69.0545 52.4879 68.9785ZM45.6065 62.6713C45.8932 62.098 46.1082 61.4529 46.3232 60.8079C46.5382 60.1629 46.7532 59.5178 47.0399 58.9445C47.3266 58.3711 47.5416 57.7261 47.7566 57.081C47.9716 56.436 48.1866 55.7909 48.4733 55.2176C49.0467 54.0708 49.62 52.6374 49.9067 51.4907C50.1934 50.9173 50.4801 50.2723 50.7668 49.6272C51.0535 48.9822 51.3401 48.3372 51.6268 47.7638C51.9135 47.1904 52.2002 46.5454 52.4869 45.9004C52.7736 45.2553 53.0602 44.6103 53.3469 44.0369C53.4903 43.7502 53.5619 43.5352 53.6336 43.3202C53.7053 43.1052 53.7769 42.8902 53.9203 42.6035C54.0636 42.1735 54.2786 41.8151 54.4937 41.4568C54.7087 41.0984 54.9237 40.7401 55.067 40.31L52.2002 34.8631V35.1497C51.9135 35.7231 51.5552 36.2248 51.1968 36.7265L51.1968 36.7265L51.1968 36.7265C50.8384 37.2282 50.4801 37.7299 50.1934 38.3033C49.62 39.45 49.0467 40.5967 48.1866 41.7435C47.6133 42.6035 47.0399 43.7502 46.7532 44.6103C46.7532 44.7536 46.6815 44.8253 46.6099 44.897C46.5382 44.9686 46.4665 45.0403 46.4665 45.1837C46.1798 45.757 45.8932 46.4021 45.6065 47.0471C45.3198 47.6921 45.0331 48.3372 44.7464 48.9105C44.5753 49.3383 44.4042 49.7406 44.2407 50.1249C43.8564 51.0284 43.5141 51.8329 43.313 52.6374C43.313 52.9241 43.2413 53.2825 43.1697 53.6408C43.098 53.9992 43.0263 54.3575 43.0263 54.6442C42.883 54.9309 42.8113 55.2176 42.7396 55.5042C42.668 55.7909 42.5963 56.0776 42.453 56.3643C42.3096 57.081 42.0946 57.7977 41.8796 58.5144C41.6646 59.2311 41.4496 59.9478 41.3062 60.6646L44.1731 66.1115C44.3164 65.6815 44.5314 65.1798 44.7464 64.6781C44.9614 64.1764 45.1764 63.6747 45.3198 63.2447C45.3198 63.2447 45.3198 62.958 45.6065 62.6713ZM40.447 66.112L41.307 60.9517L43.8872 65.8253C43.8872 65.9686 43.8155 66.112 43.7438 66.2553C43.6722 66.3987 43.6005 66.542 43.6005 66.6854C43.4572 67.2587 43.2421 67.7604 43.0271 68.2621C42.8121 68.7638 42.5971 69.2655 42.4538 69.8389V70.1256C42.4538 70.2689 42.3821 70.4122 42.3104 70.5556C42.2387 70.6989 42.1671 70.8423 42.1671 70.9856C38.7269 81.0195 36.4334 88.4733 36.1467 89.62C35.86 90.1934 35.5734 90.48 35 90.7667C35.6007 88.8788 36.1757 87.0166 36.7404 85.1877L36.7406 85.1872L36.7407 85.1868C38.0624 80.9063 39.3277 76.8086 40.7337 72.9924C39.5869 72.7057 37.8668 72.9924 35.86 73.8524C36.1467 73.6804 36.4334 73.4969 36.7201 73.3135C37.8668 72.5796 39.0136 71.8456 40.1603 71.8456C39.5869 71.8456 38.4402 71.559 37.0068 70.1256C38.4402 70.6989 39.5869 70.9856 40.447 70.6989C40.1603 68.4054 39.0136 65.8253 37.2935 63.5318C37.2935 63.5318 39.5869 64.9652 40.447 66.3987V66.112ZM55.6445 40.5969C55.6445 40.7402 55.5728 40.8119 55.5011 40.8836C55.4294 40.9552 55.3578 41.0269 55.3578 41.1703C55.0711 41.7436 54.7844 42.317 54.4977 42.6037L53.6377 44.3238C53.6377 44.4671 53.566 44.6105 53.4943 44.7538C53.4227 44.8971 53.351 45.0405 53.351 45.1838C53.2348 45.5323 53.0716 45.8807 52.8995 46.2482C52.6468 46.7878 52.3748 47.3685 52.2043 48.0507L52.2042 48.0508C51.6308 49.1975 51.0575 50.3442 50.4841 51.7775C49.9108 52.9243 49.3374 54.3577 49.0507 55.5044C48.4774 56.6512 47.904 58.0846 47.6173 59.2313C47.2701 59.9257 47.028 60.6201 46.7638 61.3782L46.7638 61.3782C46.5916 61.872 46.4101 62.3928 46.1839 62.9582V63.2449C45.8972 63.8182 45.6822 64.4633 45.4672 65.1083C45.2522 65.7533 45.0372 66.3984 44.7505 66.9718L47.044 66.6851C49.6241 66.3984 53.351 64.3916 55.6445 61.8115C56.7912 60.6647 57.6512 59.2313 58.5113 57.7979L58.5113 57.7979C58.6928 57.4348 58.8744 57.043 59.065 56.6315L59.065 56.6315C59.4765 55.7434 59.9303 54.7639 60.5181 53.7843C61.0914 52.6376 61.6648 51.2042 61.9515 49.7708C61.6648 49.9141 61.3064 50.0574 60.9481 50.2008C60.5897 50.3441 60.2314 50.4875 59.9447 50.6308H59.0846C61.6648 49.7708 63.0982 47.764 64.245 45.4705C63.6716 46.0439 62.5248 46.6172 61.0914 46.9039H60.5181C61.1177 46.704 61.7174 46.3648 62.2199 46.0805C62.4381 45.9571 62.6379 45.844 62.8115 45.7572L63.0982 45.4705L63.6716 44.8971L63.9583 44.6105L63.9583 44.6104C64.245 44.3238 64.5316 44.0371 64.5316 43.7504C64.5316 43.7504 64.5316 43.4637 64.8183 43.4637C64.8183 43.3204 64.89 43.2487 64.9617 43.177C65.0333 43.1054 65.105 43.0337 65.105 42.8904C65.2483 42.6037 65.3917 42.2453 65.535 41.887C65.6784 41.5286 65.8217 41.1703 65.965 40.8836C65.965 40.7402 66.0367 40.5969 66.1084 40.4536C66.1801 40.3102 66.2517 40.1669 66.2517 40.0235V39.7368C66.2517 39.4502 66.5384 39.1635 66.5384 39.1635C66.5384 38.8768 66.5384 38.5901 66.8251 38.3034C67.1118 38.0167 66.5384 38.3034 66.5384 38.5901C65.7497 39.1159 64.7198 39.4007 63.6699 39.6654L63.0982 39.7368H62.8115L55.6445 40.5969Z" fill="#F7F7FE"/>
<path d="M47.9401 86.4587L48.047 86.8151H48.419H49.8244V86.3151H53.3376V86.8151H54.7429C55.3904 86.8151 56.0167 86.6447 56.6006 86.3766L56.3919 85.9222C57.65 85.3445 58.7971 84.2224 59.6301 83.1914L60.019 83.5056C60.4473 82.9754 60.7975 82.4659 61.0438 82.0553L61.4982 81.298H60.6151H59.9124V81.798H58.3865C58.7306 81.5768 59.1019 81.3336 59.487 81.076L59.2089 80.6604C60.6571 79.6915 62.3021 78.5157 63.407 77.5384L63.7382 77.9129C64.1305 77.5659 64.4721 77.2298 64.7196 76.9245C64.8434 76.7719 64.9527 76.6159 65.0331 76.461C65.1107 76.3114 65.1804 76.1266 65.1804 75.9259C65.1804 75.7607 65.1572 75.5566 65.045 75.3787C64.9099 75.1645 64.6939 75.0618 64.4744 75.0538C64.2895 75.0471 64.1189 75.1068 63.9916 75.1642C63.8559 75.2253 63.7165 75.3085 63.5803 75.3993L63.8576 75.8153C63.5546 76.0173 63.1867 76.3162 62.7866 76.6414C62.4069 76.9499 61.9983 77.282 61.5886 77.577L61.2964 77.1713C60.9786 77.4002 60.6735 77.5961 60.3915 77.7372C60.0949 77.8854 59.5856 77.9921 58.9032 78.0447L58.9417 78.5433C57.6562 78.6425 56.0142 78.5438 54.6432 78.4012L54.6544 78.2929C55.0409 78.1955 55.4464 78.0889 55.8639 77.9742L55.7314 77.4921C58.0033 76.8678 60.6379 75.997 62.4834 75.0172L62.7178 75.4588C63.2739 75.1636 63.7748 74.8514 64.183 74.5239C64.5869 74.1999 64.9276 73.8392 65.1277 73.439C65.4842 72.7259 66.1385 71.6118 66.9426 70.2764L66.5142 70.0185C66.8077 69.5311 67.1195 69.0168 67.4417 68.4854C68.6946 66.4189 70.1048 64.0931 71.2063 62.0774L71.645 62.3172C72.3461 61.0343 72.9349 59.8548 73.2793 58.9364C73.5605 58.1865 73.9712 57.1322 74.4494 55.9227L73.9845 55.7388C74.8951 53.436 76.0467 50.5808 77.0083 48.2123L77.4716 48.4004C77.9386 47.25 78.3607 46.2145 78.6886 45.4132C79.1575 44.4415 79.7292 43.2259 80.3352 41.8945L79.8801 41.6873C81.1933 38.802 82.6687 35.3696 83.6045 32.7038L84.0763 32.8694C84.3682 32.0378 84.6108 31.2725 84.781 30.6151C84.9489 29.9668 85.0555 29.3898 85.0555 28.9483C85.0555 28.3003 85.0187 27.6006 84.9492 26.8888L84.4516 26.9374C84.2807 25.1855 83.9065 23.3423 83.3855 22.0283L83.8503 21.844C83.5318 21.0407 83.1187 20.3128 82.5743 19.9498C82.2585 19.7393 81.8948 19.6151 81.5287 19.5455L81.4353 20.0367C80.7014 19.8972 79.8334 19.9863 79.1289 20.1303L79.0288 19.6404C78.6579 19.7162 78.3269 19.807 78.0735 19.8915L77.9965 19.9172L77.9316 19.9658L77.1286 20.568L77.4286 20.9681L75.421 22.4736L75.121 22.0736L74.318 22.6758L74.277 22.7065L74.243 22.745L72.7374 24.4514L73.1123 24.7822L69.3481 29.0483L68.9731 28.7175L67.4675 30.424L67.4484 30.4456L67.4319 30.4693L65.8259 32.778L66.2363 33.0635L62.2212 38.8353L61.8107 38.5498L60.2046 40.8585L60.197 40.8695L60.19 40.8808L58.885 42.9888L59.3102 43.252L56.0478 48.5219L55.6227 48.2587L54.3178 50.3667L54.2999 50.3956L54.286 50.4268L53.483 52.2337L53.9399 52.4367L51.9323 56.9539L51.4754 56.7509L50.6724 58.5577L50.6538 58.5996L50.6431 58.6441L50.0408 61.1535L50.527 61.2702L49.0213 67.5438L48.5351 67.4271L47.9328 69.9365L47.9318 69.9407L47.6307 71.2458L48.1179 71.3582L47.3651 74.6208L46.8779 74.5084L46.6662 75.4259H46.3613V75.9259H44.6046V75.4259H43.902H43.0649L43.4618 76.1629L44.1644 77.4678L44.6046 77.2308L46.3613 80.4931L45.921 80.7301L46.5996 81.9903L46.8862 82.9455L47.3651 82.8018L48.1179 85.3113L47.639 85.455L47.9401 86.4587Z" stroke="black" stroke-dasharray="8 10"/>
<path d="M70.9356 15.4135C69.6663 16.0482 67.4449 18.2695 64.9062 21.4429L67.1276 25.8856C68.7143 23.6642 70.6183 21.4429 72.2049 19.5389L72.5223 19.2215L72.2049 19.5389C71.5703 20.1735 69.9836 22.0776 67.4449 25.8856C69.9836 25.8856 73.4743 25.2509 76.6476 24.6162C77.5996 19.5389 75.6956 17.3175 75.6956 17.3175C75.6956 17.3175 73.4743 13.8269 70.9356 15.4135Z" fill="url(#paint0_linear)"/>
<path d="M60.1486 37.3091C60.7833 36.0398 61.7353 34.7704 62.3699 33.5011C63.0046 32.2317 63.9566 30.9624 64.5913 29.6931V29.3757C65.2259 28.1064 66.1779 26.8371 66.8126 25.8851L64.5913 21.4424L63.9566 22.0771C63.3219 23.0291 62.6873 23.9811 61.7353 24.9331C60.7833 25.8851 60.1486 27.1544 59.1966 28.4237C58.5619 29.6931 57.6099 30.6451 56.6579 31.9144C56.0232 32.8664 55.3886 34.1358 54.7539 35.0878L57.9272 41.1171C58.8793 39.8478 59.5139 38.5784 60.1486 37.3091Z" fill="url(#paint1_linear)"/>
<path d="M46.1871 71.5815C45.8698 72.8508 45.2351 73.8028 44.9178 75.0722C44.9178 75.3895 44.9178 75.3895 44.6004 75.7068C44.2831 76.3415 43.9658 77.2935 43.6484 78.8802C44.6004 79.1975 45.2351 80.4669 45.8698 81.7362C45.8698 80.4669 45.2351 79.1975 44.2831 78.2455C48.7258 78.5628 52.5338 77.2935 54.4378 74.1202C54.7551 73.8028 54.7551 73.4855 55.0725 73.1682C54.1205 74.4375 53.1685 74.7548 50.9471 74.7548C54.1205 73.4855 55.7071 71.8988 56.9765 69.6775C57.2938 69.0428 57.6111 68.7255 57.9285 68.0908C55.0725 70.9468 52.2165 71.5815 48.7258 70.9468L46.1871 71.2642C46.5044 71.2642 46.1871 71.2642 46.1871 71.5815Z" fill="url(#paint2_linear)"/>
<path d="M47.4592 66.1867C48.0939 64.9174 48.4112 63.3307 49.0459 62.0614C49.6806 60.792 49.9979 59.2054 50.6326 57.936C51.2672 56.6667 51.9019 55.08 52.2192 53.8107C52.8539 52.5413 53.4886 50.9547 54.1232 49.6853C54.7579 48.416 55.3926 46.8293 56.0272 45.56C56.3446 44.9253 56.3446 44.608 56.6619 43.9733C56.9793 43.0213 57.6139 42.3866 57.9313 41.4346L54.7579 35.4053V35.7226C54.1232 36.992 53.1712 37.944 52.5366 39.2133C51.9019 40.4826 51.2672 41.752 50.3152 43.0213C49.6806 43.9733 49.0459 45.2426 48.7286 46.1946C48.7286 46.512 48.4112 46.512 48.4112 46.8293C47.7766 48.0987 47.1419 49.6853 46.5072 50.9547C45.8726 52.5413 45.2379 53.8107 44.9205 55.08C44.9205 55.7147 44.6032 56.6667 44.6032 57.3013C44.2859 57.936 44.2859 58.5707 43.9685 59.2054C43.6512 60.792 43.0166 62.3787 42.6992 63.9654L45.8726 69.9947C46.1899 69.0427 46.8246 67.7734 47.1419 66.8214C47.1419 66.8214 47.1419 66.504 47.4592 66.1867Z" fill="url(#paint3_linear)"/>
<path d="M42.6962 64.2832L41.7442 69.9952V70.3125C40.7922 68.7259 38.2535 67.1392 38.2535 67.1392C40.1575 69.6779 41.4269 72.5339 41.7442 75.0726C40.7922 75.3899 39.5229 75.0726 37.9362 74.4379C39.5229 76.0246 40.7922 76.3419 41.4269 76.3419C39.8402 76.3419 38.2535 77.6112 36.6668 78.5632C38.8882 77.6112 40.7922 77.2939 42.0615 77.6112C39.8402 83.6406 37.9362 90.3046 35.7148 97.286C36.3495 96.9686 36.6668 96.6513 36.9842 96.0166C37.3015 94.7473 39.8402 86.4966 43.6482 75.3899C43.6482 75.0726 43.9655 74.7552 43.9655 74.4379V74.1206C44.2829 72.8512 44.9175 71.8992 45.2349 70.6299C45.2349 70.3126 45.5522 69.9952 45.5522 69.6779L42.6962 64.2832Z" fill="url(#paint4_linear)"/>
<path d="M58.5626 41.7521C58.5626 42.0695 58.2453 42.0695 58.2453 42.3868C57.9279 43.0215 57.6106 43.6562 57.2933 43.9735L56.3413 45.8775C56.3413 46.1948 56.0239 46.5122 56.0239 46.8295C55.7066 47.7815 55.0719 48.7335 54.7546 50.0028C54.1199 51.2722 53.4853 52.5415 52.8506 54.1282C52.2159 55.3975 51.5813 56.9842 51.2639 58.2535C50.6293 59.5229 49.9946 61.1095 49.6772 62.3789C49.0426 63.6482 48.7252 64.9176 48.0906 66.5042V66.8216C47.4559 68.0909 47.1386 69.6776 46.5039 70.9469L49.0426 70.6296C51.8986 70.3122 56.0239 68.0909 58.5626 65.2349C59.832 63.9656 60.784 62.3789 61.736 60.7922C62.3706 59.5229 63.0053 57.9362 63.9573 56.3495C64.592 55.0802 65.2266 53.4935 65.544 51.9068C64.9093 52.2242 63.9573 52.5415 63.3226 52.8588H62.3706C65.2266 51.9068 66.8133 49.6855 68.0826 47.1468C67.448 47.7815 66.1786 48.4162 64.592 48.7335H63.9573C64.9093 48.4162 65.8613 47.7815 66.496 47.4642L66.8133 47.1468L67.448 46.5122L67.7653 46.1948C68.0826 45.8775 68.4 45.5602 68.4 45.2428C68.4 45.2428 68.4 44.9255 68.7173 44.9255C68.7173 44.6082 69.0346 44.6082 69.0346 44.2908C69.352 43.6562 69.6693 42.7042 69.9866 42.0695C69.9866 41.7522 70.304 41.4348 70.304 41.1175V40.8001C70.304 40.4828 70.6213 40.1655 70.6213 40.1655C70.6213 39.8481 70.6213 39.5308 70.9387 39.2135C71.256 38.8961 70.6213 39.2135 70.6213 39.5308C69.6693 40.1655 68.4 40.4828 67.1306 40.8001L69.352 40.4828L66.8133 40.8001H66.496L58.5626 41.7521Z" fill="url(#paint5_linear)"/>
<path d="M67.4469 25.8854C66.8123 26.8374 65.8603 28.1068 65.2256 29.3761V29.6935C64.5909 30.9628 63.6389 32.2321 63.0042 33.5015C62.3696 34.7708 61.7349 36.0401 60.7829 37.6268L58.8789 41.4348L66.8123 40.4828C69.0336 39.5308 69.9856 38.5788 70.9376 36.9921C71.2549 36.6748 71.5723 36.3575 71.5723 35.7228C72.5243 34.4535 73.159 33.1841 73.7936 31.5975C74.4283 30.3281 75.063 29.0588 75.3803 27.7895C75.6976 27.1548 76.015 26.2028 76.015 25.5681C76.015 24.9334 76.3323 24.6161 76.3323 23.9814C73.7936 25.2508 69.9856 25.8854 67.4469 25.8854Z" fill="url(#paint6_linear)"/>
<defs>
<linearGradient id="paint0_linear" x1="66.9006" y1="22.1423" x2="73.8664" y2="20.2056" gradientUnits="userSpaceOnUse">
<stop stop-color="#F69923"/>
<stop offset="0.312" stop-color="#F79A23"/>
<stop offset="0.838" stop-color="#E97826"/>
</linearGradient>
<linearGradient id="paint1_linear" x1="28.9913" y1="99.7963" x2="43.1594" y2="69.4113" gradientUnits="userSpaceOnUse">
<stop offset="0.323" stop-color="#9E2064"/>
<stop offset="0.63" stop-color="#C92037"/>
<stop offset="0.751" stop-color="#CD2335"/>
<stop offset="1" stop-color="#E97826"/>
</linearGradient>
<linearGradient id="paint2_linear" x1="40.828" y1="94.2198" x2="49.2706" y2="76.1137" gradientUnits="userSpaceOnUse">
<stop stop-color="#282662"/>
<stop offset="0.095" stop-color="#662E8D"/>
<stop offset="0.788" stop-color="#9F2064"/>
<stop offset="0.949" stop-color="#CD2032"/>
</linearGradient>
<linearGradient id="paint3_linear" x1="30.275" y1="95.2295" x2="44.4431" y2="64.8446" gradientUnits="userSpaceOnUse">
<stop offset="0.323" stop-color="#9E2064"/>
<stop offset="0.63" stop-color="#C92037"/>
<stop offset="0.751" stop-color="#CD2335"/>
<stop offset="1" stop-color="#E97826"/>
</linearGradient>
<linearGradient id="paint4_linear" x1="33.8741" y1="90.2069" x2="41.3192" y2="74.24" gradientUnits="userSpaceOnUse">
<stop stop-color="#282662"/>
<stop offset="0.095" stop-color="#662E8D"/>
<stop offset="0.788" stop-color="#9F2064"/>
<stop offset="0.949" stop-color="#CD2032"/>
</linearGradient>
<linearGradient id="paint5_linear" x1="38.0844" y1="98.8726" x2="52.2525" y2="68.4877" gradientUnits="userSpaceOnUse">
<stop offset="0.323" stop-color="#9E2064"/>
<stop offset="0.63" stop-color="#C92037"/>
<stop offset="0.751" stop-color="#CD2335"/>
<stop offset="1" stop-color="#E97826"/>
</linearGradient>
<linearGradient id="paint6_linear" x1="35.5214" y1="103.379" x2="49.6884" y2="72.996" gradientUnits="userSpaceOnUse">
<stop offset="0.323" stop-color="#9E2064"/>
<stop offset="0.63" stop-color="#C92037"/>
<stop offset="0.751" stop-color="#CD2335"/>
<stop offset="1" stop-color="#E97826"/>
</linearGradient>
</defs>
</svg>
