<svg xmlns="http://www.w3.org/2000/svg" width="87" height="87" viewBox="0 0 87 87">
  <g fill="none" fill-rule="evenodd">
    <path fill="#9595EF" fill-opacity=".078" stroke="#000" stroke-dasharray="8 10" stroke-linecap="round" d="M6,7 L86,7 L86,86 L6,86 L6,7 Z"/>
    <polygon fill="#F0DB4F" points="0 0 80 0 80 80 0 80"/>
    <path fill="#323330" fill-rule="nonzero" d="M72.7860809,60.3626769 C72.2076753,56.7518646 69.8564941,53.7202868 62.8930916,50.8918172 C60.4743045,49.7784834 57.7775823,48.981171 56.9738238,47.1455995 C56.6883769,46.0774009 56.6508181,45.4755988 56.8311004,44.8286616 C57.3494119,42.729877 59.8508283,42.0754173 61.8339332,42.6772193 C63.1109326,43.1060033 64.3203262,44.0915294 65.048967,45.663662 C68.4593065,43.4521147 68.4517948,43.4670845 70.833023,41.9476096 C69.9616587,40.593555 69.4959296,39.9691101 68.9250357,39.3899509 C66.8743249,37.0955806 64.0799498,35.9145441 59.610452,36.0048144 C58.8367406,36.1026072 58.0555925,36.2078474 57.281806,36.3057154 C55.0508881,36.8699048 52.9249846,38.0434188 51.6780323,39.6156267 C47.9371752,43.8658536 49.0038453,51.3055561 53.5559725,54.3672993 C58.0404939,57.7373907 64.6283084,58.5046883 65.4696256,61.6566265 C66.2884076,65.5156821 62.6377668,66.7643461 59.0095111,66.3205924 C56.3353241,65.7639255 54.8480706,64.4023483 53.2404786,61.9274374 C50.2809198,63.6425733 50.2809198,63.6425733 47.2386566,65.3953217 C47.9597856,66.9750521 48.7183984,67.689692 49.927867,69.0587917 C55.651829,74.8737039 69.9766823,74.5878479 72.5457797,65.786493 C72.6508692,65.4855168 73.3420263,63.4694799 72.7860809,60.3626769 Z M43.1897422,36.4711357 L35.7981693,36.4711357 C35.7981693,42.8652825 35.7681974,49.214294 35.7681974,55.6084407 C35.7681974,59.6781271 35.9785267,63.4092997 35.3174917,64.5527236 C34.2357981,66.8018835 31.4339113,66.5236253 30.1569119,66.0872436 C28.8573772,65.4478289 28.1963422,64.5376034 27.4301426,63.2513267 C27.2198133,62.882723 27.0620663,62.596867 27.0094089,62.5742994 C25.0038438,63.8004711 23.0056402,65.03409 21,66.2603369 C21.9991393,68.3139864 23.4713694,70.096825 25.3568214,71.2552187 C28.1737318,72.9477869 31.9596594,73.4668412 35.9184326,72.5566156 C38.4949667,71.804363 40.7183728,70.2472755 41.8826958,67.8776799 C43.5653303,64.7708769 43.2047658,61.0096141 43.1897422,56.8496575 C43.227301,50.0643394 43.1897422,43.2790214 43.1897422,36.4711357 Z"/>
  </g>
</svg>
