<svg xmlns="http://www.w3.org/2000/svg" xmlns:xlink="http://www.w3.org/1999/xlink" width="65" height="75" viewBox="0 0 65 75">
  <defs>
    <path id="jupyter-logo-a" d="M0,23 C5.44,17 13.6,14 24.48,14 C35.36,14 44.2,17 51,23 C44.2,11 35.36,5 24.48,5 C13.6,5 5.44,11 0,23 Z"/>
    <mask id="jupyter-logo-c" width="51" height="18" x="0" y="0" fill="#fff">
      <use xlink:href="#jupyter-logo-a"/>
    </mask>
    <path id="jupyter-logo-b" d="M0,59 C5.44,53 13.6,50 24.48,50 C35.36,50 44.2,53 51,59 C44.2,47 35.36,41 24.48,41 C13.6,41 5.44,47 0,59 Z"/>
    <mask id="jupyter-logo-d" width="51" height="18" x="0" y="0" fill="#fff">
      <use xlink:href="#jupyter-logo-b"/>
    </mask>
  </defs>
  <g fill="none" fill-rule="evenodd" transform="translate(-.5 -1)">
    <g stroke="#000" stroke-linecap="round" stroke-linejoin="round" transform="translate(14 9)">
      <use fill="#9B88F2" fill-opacity=".1" stroke-dasharray="8 9" stroke-width="2" mask="url(#jupyter-logo-c)" xlink:href="#jupyter-logo-a"/>
      <use fill="#9B88F2" fill-opacity=".1" stroke-dasharray="8 9" stroke-width="2" mask="url(#jupyter-logo-d)" transform="matrix(1 0 0 -1 0 100)" xlink:href="#jupyter-logo-b"/>
      <path fill="#996BF9" fill-opacity=".08" stroke-dasharray="3" d="M3 12C4.65685425 12 6 10.6568542 6 9 6 7.34314575 4.65685425 6 3 6 1.34314575 6 0 7.34314575 0 9 0 10.6568542 1.34314575 12 3 12zM43.5 7C45.4329966 7 47 5.43299662 47 3.5 47 1.56700338 45.4329966 0 43.5 0 41.5670034 0 40 1.56700338 40 3.5 40 5.43299662 41.5670034 7 43.5 7zM7 66C9.209139 66 11 64.209139 11 62 11 59.790861 9.209139 58 7 58 4.790861 58 3 59.790861 3 62 3 64.209139 4.790861 66 7 66z"/>
    </g>
    <circle cx="30.5" cy="34.5" r="27.5" fill="#FFF" fill-rule="nonzero"/>
    <g fill="#4E4E4E" transform="translate(0 26.773)">
      <path d="M2.45883545,7.71523773 C2.45883545,9.91062955 2.28320636,10.6257009 1.83157864,11.1525882 C1.32894041,11.6052023 0.676397455,11.8554991 0,11.8551186 L0.175631909,13.1096182 C1.22427455,13.1237936 2.24179318,12.7533718 3.03591455,12.0683845 C3.46319318,11.5473168 3.78115455,10.9455505 3.97081818,10.2989468 C4.16049591,9.65234318 4.21798682,8.97416182 4.13988091,8.30485773 L4.13988091,0 L2.45883545,0 L2.45883545,7.66506 L2.45883545,7.71523773 Z" transform="translate(.76 3.325)"/>
      <path d="M7.75287455,6.71162682 C7.75287455,7.652505 7.75287455,8.49302773 7.82813409,9.22064 L6.33527273,9.22064 L6.23491727,7.72777864 C5.92266273,8.25599045 5.47610773,8.69209 4.94066727,8.99176136 C4.40521273,9.29143273 3.79996591,9.443995 3.18644773,9.43390591 C1.73122318,9.43390591 0,8.643575 0,5.41947636 L0,0.0627255409 L1.68104545,0.0627255409 L1.68104545,5.08075909 C1.68104545,6.82453727 2.22048773,7.99122227 3.738445,7.99122227 C4.05074182,7.99459 4.36055864,7.93554909 4.64974636,7.81758 C4.93893409,7.69961091 5.201645,7.525095 5.42249182,7.30424818 C5.64332455,7.08341545 5.81785455,6.82069045 5.93582364,6.53151682 C6.05377864,6.24232909 6.11281955,5.93249818 6.10946591,5.62020136 L6.10946591,0 L7.79049727,0 L7.79049727,6.66144909 L7.75287455,6.71162682 Z" transform="translate(8.004 3.34)"/>
      <path fill-rule="nonzero" d="M0.0752705364,3.20235636 C0.0752705364,2.03565727 0.0752705364,1.08223255 0,0.216620954 L1.50541636,0.216620954 L1.58067591,1.78475455 C1.91608182,1.21820841 2.398935,0.753291545 2.97776136,0.439571545 C3.55660182,0.12585225 4.20971545,-0.0249107549 4.86749318,0.00335497469 C7.10052182,0.00335497469 8.78156727,1.87256909 8.78156727,4.65758091 C8.78156727,7.94439818 6.76180455,9.57526591 4.57895364,9.57526591 C4.02026318,9.60019273 3.46458818,9.48050455 2.96569955,9.22777 C2.46681091,8.97502136 2.04160364,8.59779364 1.73122318,8.13258227 L1.73122318,13.1506086 L0.0752705364,13.1506086 L0.0752705364,3.23999318 L0.0752705364,3.20235636 Z M1.73122318,5.64865091 C1.73577455,5.87627545 1.76096909,6.10301227 1.80649682,6.32608545 C1.94882909,6.88311318 2.27284955,7.37677409 2.72726727,7.72894818 C3.18169909,8.08113636 3.74058682,8.27173 4.31551,8.27057455 C6.08437,8.27057455 7.12561773,6.82789091 7.12561773,4.73285455 C7.12561773,2.90127591 6.14710273,1.33313527 4.37824273,1.33313527 C3.67823455,1.3904585 3.02317636,1.70113909 2.53587045,2.20691818 C2.04856455,2.71269727 1.76247682,3.37885909 1.73122318,4.08051591 L1.73122318,5.64865091 Z" transform="translate(18.868 3.185)"/>
      <path d="M1.85667455,0.0250901318 L3.87643727,5.43203136 C4.08970318,6.03419227 4.31551,6.76180455 4.46605727,7.30124682 C4.64168636,6.74926364 4.82985636,6.04673318 5.05567727,5.39439455 L6.88725591,0.0250901318 L8.65611591,0.0250901318 L6.14710273,6.54853864 C4.89258909,9.68480864 4.12734,11.3031355 2.97318182,12.2816505 C2.39186136,12.8126241 1.68313091,13.1842718 0.915792136,13.3605209 L0.501804045,11.9554741 C1.03833936,11.7791827 1.53644455,11.5024655 1.969585,11.1400473 C2.58159545,10.6412855 3.06728091,10.0051655 3.38717273,9.28337273 C3.45564045,9.15837227 3.50230955,9.02260636 3.525165,8.88192273 C3.510905,8.73053 3.47280318,8.58235 3.41226864,8.44285 L0,0 L1.83157864,0 L1.85667455,0.0250901318 Z" transform="translate(28.788 3.368)"/>
      <path d="M3.08609227,0 L3.08609227,2.63446455 L5.49475,2.63446455 L5.49475,3.88897818 L3.08609227,3.88897818 L3.08609227,8.831745 C3.08609227,9.96080727 3.41226864,10.6131459 4.34060591,10.6131459 C4.67031909,10.6185427 4.99929955,10.5805818 5.31912091,10.5002495 L5.39439455,11.7547491 C4.91482455,11.920895 4.40877773,11.9974368 3.90151909,11.98057 C3.56559182,12.0015936 3.22908682,11.9496968 2.91509909,11.8284305 C2.60111136,11.7071641 2.31708091,11.5194027 2.08248136,11.2780395 C1.57148864,10.5945741 1.33839118,9.74289136 1.43014273,8.89447773 L1.43014273,3.87643727 L0,3.87643727 L0,2.62192364 L1.45522455,2.62192364 L1.45522455,0.388897818 L3.08609227,0 Z" transform="translate(38.82 .76)"/>
      <path fill-rule="nonzero" d="M1.65872545,5.04312227 C1.62468181,5.46858318 1.68341272,5.896355 1.83087409,6.29688909 C1.97833545,6.69742318 2.21100454,7.06115182 2.51281772,7.36295091 C2.81461681,7.66476409 3.17834545,7.89743318 3.57887954,8.04489455 C3.97941363,8.19235591 4.40718545,8.25108682 4.83264636,8.21704318 C5.69319227,8.23629136 6.54812999,8.07385136 7.34165954,7.74031955 L7.63019909,8.99483318 C6.65644681,9.395945 5.60937954,9.58827182 4.55664772,9.55935727 C3.94293227,9.60137636 3.32739909,9.51015182 2.75226454,9.29192591 C2.1771159,9.07371409 1.65599181,8.73367227 1.22460004,8.29514909 C0.793216722,7.85661182 0.461791494,7.32995 0.25306004,6.75130682 C0.0443277397,6.17264955 -0.0367719239,5.55570727 0.0153235761,4.94276682 C0.0153235761,2.18285091 1.65872545,0 4.34338181,0 C7.35420045,0 8.10690863,2.63446455 8.10690863,4.31551 C8.12300045,4.57452909 8.12300045,4.834295 8.10690863,5.09331409 L1.62110272,5.09331409 L1.65872545,5.04312227 Z M6.57641045,3.78862273 C6.62482681,3.45321682 6.60078772,3.11134318 6.50589954,2.78602636 C6.41102545,2.46070955 6.24751454,2.15950227 6.02639999,1.90270955 C5.80527136,1.64593091 5.53168227,1.43952727 5.22404954,1.297412 C4.91641681,1.15529955 4.58188454,1.08078118 4.24302636,1.07887891 C3.55374136,1.128772 2.90795499,1.43428545 2.43221772,1.93555545 C1.95648045,2.43681136 1.68510363,3.097675 1.67128045,3.78862273 L6.57641045,3.78862273 Z" transform="translate(45.753 3.227)"/>
      <path d="M0.0752705364,3.08912182 C0.0752705364,2.01025137 0.0752705364,1.08190846 0,0.228842002 L1.50541636,0.228842002 L1.50541636,2.02279227 L1.58067591,2.02279227 C1.73869136,1.46910409 2.06516364,0.978351547 2.51477636,0.618659956 C2.96438909,0.258966956 3.51483636,0.0481852746 4.08970318,0.015575811 C4.24793,-0.0051919204 4.40818591,-0.0051919204 4.56641273,0.015575811 L4.56641273,1.58371955 C4.37469182,1.56151227 4.18105455,1.56151227 3.98933364,1.58371955 C3.41986364,1.60577182 2.877885,1.83438273 2.46464091,2.22685682 C2.05139682,2.61931682 1.79515364,3.14878273 1.74376409,3.71637864 C1.69685545,3.97307273 1.671675,4.23326137 1.66850455,4.49416864 L1.66850455,9.37421682 L0.0125450941,9.37421682 L0.0125450941,3.10166273 L0.0752705364,3.08912182 Z" transform="translate(56.335 3.156)"/>
    </g>
    <g transform="translate(1.41)">
      <path fill="#767677" d="M8.49764955,3.99568863 C8.54916591,4.83848 8.34865228,5.67752318 7.92162728,6.40593863 C7.49460228,7.13436818 6.86042682,7.71918318 6.09985591,8.08591318 C5.339285,8.45262909 4.48677091,8.58464682 3.65091228,8.46515591 C2.81505364,8.34565091 2.03368455,7.98004818 1.40634037,7.41490409 C0.778997594,6.84977409 0.334081367,6.11067773 0.128270535,5.29178454 C-0.0775404377,4.47289136 -0.0349300923,3.61126045 0.250673049,2.81667409 C0.536276049,2.02208773 1.05194414,1.33049323 1.73198409,0.83000668 C2.41202546,0.329520135 3.22566273,0.0427921167 4.06922909,0.00634855895 C4.62231137,-0.0240858742 5.17595728,0.0551157439 5.69830728,0.239398908 C6.22067137,0.423681226 6.70145319,0.709411044 7.11300637,1.08015413 C7.52454546,1.45089863 7.85875364,1.89934182 8.09638273,2.39969591 C8.33401182,2.90005 8.47038364,3.44245136 8.49764955,3.99568863 Z" transform="translate(45.767 .972)"/>
      <path fill="#F37726" d="M26.3446455,10.0360809 C15.0541636,10.0360809 5.13093682,5.98401455 0,0 C1.99082,5.383305 5.58302955,10.0275136 10.2931132,13.3075109 C15.0031545,16.5875364 20.6051364,18.3458 26.3446455,18.3458 C32.0842955,18.3458 37.6861364,16.5875364 42.3963045,13.3075109 C47.1063318,10.0275136 50.6985273,5.383305 52.6894318,0 C47.57105,5.98401455 37.6854318,10.0360809 26.3446455,10.0360809 Z" transform="translate(3.114 44.062)"/>
      <path fill="#F37726" d="M26.3446455,8.30976136 C37.6352682,8.30976136 47.5585091,12.3618277 52.6894318,18.3458 C50.6985273,12.9625373 47.1063318,8.31832864 42.3963045,5.03833136 C37.6861364,1.75833409 32.0842955,5.70484545e-13 26.3446455,0 C20.6051364,5.70484545e-13 15.0031545,1.75833409 10.2931132,5.03833136 C5.58302955,8.31832864 1.99082,12.9625373 0,18.3458 C5.13093682,12.3492868 15.004,8.30976136 26.3446455,8.30976136 Z" transform="translate(3.114 6.876)"/>
      <path fill="#9E9E9E" d="M10.7031164,5.02560727 C10.7693436,6.08716 10.5180464,7.14440091 9.98125318,8.06262091 C9.44444591,8.98084091 8.64644955,9.71847182 7.68893,10.1815414 C6.73141045,10.6446109 5.65771136,10.8121518 4.60464136,10.6628164 C3.55155727,10.5134668 2.56677182,10.0540186 1.77575045,9.34299136 C0.984727682,8.63196409 0.423282455,7.70154136 0.162943045,6.67028409 C-0.0973950955,5.63901273 -0.04483995,4.55360409 0.313913045,3.55230409 C0.672666182,2.55101818 1.321375,1.67919954 2.17738364,1.04791977 C3.03340636,0.416637181 4.05797045,0.0544747488 5.12055182,0.00757511649 C5.81662864,-0.0296572785 6.51322682,0.0706198306 7.17055364,0.302676953 C7.82786636,0.534735908 8.43302864,0.894025908 8.95144727,1.36002495 C9.46986591,1.82602682 9.89140955,2.38959273 10.1919545,3.01855454 C10.4925136,3.64750227 10.6662123,4.32951636 10.7031164,5.02560727 Z" transform="translate(3.213 60.718)"/>
      <path fill="#616262" d="M3.17131409,6.171015 C2.56293909,6.18781136 1.96317364,6.02435681 1.44744636,5.70121 C0.931724728,5.37804909 0.523063001,4.90961091 0.272857773,4.35482363 C0.022652828,3.80002227 -0.0579246266,3.18362954 0.0412587462,2.58315954 C0.140442119,1.98268954 0.414957546,1.42494318 0.830282864,0.980081905 C1.24560959,0.535214996 1.78320455,0.223081632 2.37545955,0.0829358461 C2.96770046,-0.0572097993 3.58816546,-0.0191103766 4.15883318,0.19244236 C4.72948682,0.403996223 5.22485273,0.779556996 5.58262091,1.27189618 C5.94040318,1.76423818 6.14462273,2.35137818 6.16959182,2.95947136 C6.19336318,3.78171818 5.89184591,4.58016545 5.33049227,5.18143863 C4.76913864,5.78272591 3.99325091,6.13832409 3.17131409,6.171015 Z" transform="translate(1.226 7.651)"/>
    </g>
  </g>
</svg>
