<svg xmlns="http://www.w3.org/2000/svg" width="90" height="80" viewBox="0 0 90 80">
  <g fill="none" fill-rule="evenodd">
    <path fill="#9595EF" fill-opacity=".078" stroke="#000" stroke-dasharray="8 10" stroke-linecap="round" d="M0,0 L80,0 L80,70 L0,70 L0,0 Z" transform="translate(9 9)"/>
    <path fill="#1B1B1B" d="M0,0 L80,0 L80,70 L0,70 L0,0 Z"/>
    <path fill="#FFF" fill-rule="nonzero" d="M25.5565293,29.1530151 C23.5068508,29.1530151 21.6692817,30.0611028 20.4109317,31.4907929 L17.1864795,29.2081014 C17.5287683,28.2656964 17.725303,27.2537692 17.725303,26.194608 C17.725303,25.153809 17.5356064,24.1588514 17.204588,23.230375 L20.4218217,20.9718705 C21.680046,22.3943421 23.5128024,23.2974915 25.5565293,23.2974915 C29.3396852,23.2974915 32.418003,20.2196678 32.418003,16.4359911 C32.418003,12.6523145 29.3396852,9.5744918 25.5565293,9.5744918 C21.7733744,9.5744918 18.6950567,12.6523145 18.6950567,16.4359911 C18.6950567,17.113226 18.7973765,17.766274 18.9809936,18.384751 L15.7616076,20.6443967 C14.4167673,18.9760025 12.4804243,17.8111021 10.2742277,17.4555161 L10.2742277,13.575472 C13.3823033,12.9226765 15.7241239,10.161184 15.7241239,6.86149966 C15.7241239,3.07782274 12.6458072,0 8.86265162,0 C5.07949588,0 2.00117857,3.07782274 2.00117857,6.86149966 C2.00117857,10.1169889 4.28234229,12.8444176 7.32824169,13.5438129 L7.32824169,17.4742575 C3.17139251,18.2039194 0,21.83171 0,26.194608 C0,30.5787801 3.2027974,34.2198676 7.3896586,34.9247085 L7.3896586,39.0749891 C4.31260757,39.7513375 2.00117857,42.4954821 2.00117857,45.7731323 C2.00117857,49.556809 5.07949588,52.6346315 8.86265162,52.6346315 C12.6458072,52.6346315 15.7241239,49.556809 15.7241239,45.7731323 C15.7241239,42.4954821 13.4126953,39.7513375 10.3356446,39.0749891 L10.3356446,34.9245828 C12.4984059,34.5603848 14.3991649,33.4185324 15.7302023,31.7871149 L18.976182,34.0846237 C18.7959829,34.6975284 18.6950567,35.3441186 18.6950567,36.0145154 C18.6950567,39.7981921 21.7733744,42.8760146 25.5565293,42.8760146 C29.3396852,42.8760146 32.418003,39.7981921 32.418003,36.0145154 C32.418003,32.2308387 29.3396852,29.1530151 25.5565293,29.1530151 Z M25.5565293,13.1092073 C27.3910597,13.1092073 28.8831745,14.6019608 28.8831745,16.4359911 C28.8831745,18.2700215 27.3910597,19.7626482 25.5565293,19.7626482 C23.722,19.7626482 22.2298852,18.2700215 22.2298852,16.4359911 C22.2298852,14.6019608 23.722,13.1092073 25.5565293,13.1092073 Z M5.53588058,6.86149966 C5.53588058,5.02746933 7.02812188,3.53484241 8.86265162,3.53484241 C10.6971817,3.53484241 12.1892954,5.02746933 12.1892954,6.86149966 C12.1892954,8.69553 10.6971817,10.1881568 8.86265162,10.1881568 C7.02812188,10.1881568 5.53588058,8.69553 5.53588058,6.86149966 Z M12.1892954,45.7731323 C12.1892954,47.6071626 10.6971817,49.0997893 8.86265162,49.0997893 C7.02812188,49.0997893 5.53588058,47.6071626 5.53588058,45.7731323 C5.53588058,43.939102 7.02812188,42.4464742 8.86265162,42.4464742 C10.6971817,42.4464742 12.1892954,43.939102 12.1892954,45.7731323 Z M8.86239836,30.8341991 C6.30378204,30.8341991 4.22231835,28.7531072 4.22231835,26.194608 C4.22231835,23.6359821 6.30378204,21.5545098 8.86239836,21.5545098 C11.420888,21.5545098 13.5023511,23.6359821 13.5023511,26.194608 C13.5023511,28.7531072 11.420888,30.8341991 8.86239836,30.8341991 Z M25.5565293,39.3412992 C23.722,39.3412992 22.2298852,37.8485457 22.2298852,36.0145154 C22.2298852,34.1804851 23.722,32.6878584 25.5565293,32.6878584 C27.3910597,32.6878584 28.8831745,34.1804851 28.8831745,36.0145154 C28.8831745,37.8485457 27.3910597,39.3412992 25.5565293,39.3412992 Z" transform="translate(24 9)"/>
  </g>
</svg>
