<svg width="120" height="120" viewBox="0 0 120 120" fill="none" xmlns="http://www.w3.org/2000/svg">
<path d="M29.6719 28.2832H56.7427L67.2957 42.9657L53.072 65.907L29.6719 28.2832Z" fill="#F7F7FE" stroke="black" stroke-dasharray="8 10"/>
<path d="M29.6719 28.2832V102.613L53.072 65.907L29.6719 28.2832Z" fill="#F7F7FE"/>
<path d="M76.4722 28.2832H104.002L57.6603 102.613H29.6719L76.4722 28.2832Z" fill="#F7F7FE" stroke="black" stroke-dasharray="8 10"/>
<path d="M83.3528 69.5771L70.0469 91.142L76.9293 102.154H104L83.3528 69.5771Z" fill="#F7F7FE" stroke="black" stroke-dasharray="8 10"/>
<path d="M15 17H42.0708L52.6238 31.6825L38.4002 54.6238L15 17Z" fill="#00A9FF"/>
<path d="M15 17V91.3299L38.4002 54.6238L15 17Z" fill="#6BB545"/>
<path d="M61.8003 17H89.3299L42.9884 91.3299H15L61.8003 17Z" fill="#9BCA3B"/>
<path d="M68.681 58.2949L55.375 79.8598L62.2574 90.8716H89.3282L68.681 58.2949Z" fill="#00A9FF"/>
</svg>
