<svg width="120" height="120" viewBox="0 0 120 120" fill="none" xmlns="http://www.w3.org/2000/svg">
<path d="M91.8326 32.2726L92.4085 31.57H91.5H87.9074V32H78.9259V31.57H71.7407V32H62.7593V31.57H55.5741V32H46.5926V31.57H43H42.57V32V35.6944H43V44.9306H42.57V52.3194H43V61.5556H42.57V68.9444H43V78.1806H42.57V85.5694H43V94.8056H42.57V98.5V98.93H43H46.5926V98.5H55.5741V98.93H62.7593V98.5H71.7407V98.93H78.9259V98.5H87.9074V98.93H91.5H91.93V98.5C91.93 97.2502 91.8059 95.441 91.4849 93.3034L91.0596 93.3672C90.5276 89.8247 89.4469 85.3531 87.4695 81.0234L87.8607 80.8447C87.1488 79.2859 86.3208 77.7431 85.3605 76.2657C84.3819 74.76 83.2619 73.3729 82.0621 72.1037L81.7496 72.3991C78.4606 68.9201 74.5477 66.3224 71.289 64.6062L71.4894 64.2257C69.8563 63.3657 68.3816 62.7225 67.222 62.2975L69.6103 59.3837L69.2778 59.1111L76.2222 50.6389L76.5548 50.9115L82.1103 44.1337L81.7778 43.8611L88.7222 35.3889L89.0548 35.6615L91.8326 32.2726Z" fill="#F7F7FE" stroke="black" stroke-width="0.86" stroke-dasharray="8 10"/>
<path d="M28 80.9468V87.5898H31.1222L58.5312 54.7336C56.6306 53.4983 54.6512 52.3888 52.6056 51.4121L28 80.9468Z" fill="#009B90"/>
<path d="M58.5316 54.7344L31.1094 87.6039H77.9159C77.9159 74.2116 70.3163 62.3074 58.5316 54.7344Z" fill="#40BEB0"/>
<path d="M28 21L28 81.0479L78 21H28Z" fill="#EF5098"/>
<path d="M28.0133 81.0272L52.6569 51.4385C44.9323 47.8305 36.5256 45.9618 28 46.0006L28.0133 81.0272Z" fill="#353535"/>
</svg>
