<svg width="120" height="120" viewBox="0 0 120 120" fill="none" xmlns="http://www.w3.org/2000/svg">
<path d="M26.5116 71.7501L26.4584 71.9927L26.6196 72.1816L29.3815 75.4197L29.7619 75.0952L36.6667 83.1905L36.2863 83.5149L41.8101 89.9911L42.1905 89.6667L49.0952 97.7619L48.7148 98.0864L51.4767 101.324L51.6264 101.5H51.8571H55.4762V101H64.5238V101.5H71.7619V101H80.8095V101.5H84.4286H84.6877L84.8371 101.288L87.1228 98.0502L86.7143 97.7619L92.4286 89.6667L92.8371 89.955L97.4085 83.4788L97 83.1905L102.714 75.0952L103.123 75.3836L105.408 72.1455L105.549 71.9463L105.479 71.7129L104.431 68.2367L103.952 68.381L101.333 59.6905L101.812 59.5462L99.7168 52.5938L99.2381 52.7381L96.619 44.0476L97.0978 43.9033L96.0502 40.4272L95.9884 40.2224L95.7977 40.1256L92.6072 38.5065L92.381 38.9524L84.4048 34.9048L84.631 34.4589L78.2501 31.2208L78.0238 31.6667L70.0476 27.619L70.2739 27.1732L67.0834 25.5541L66.8972 25.4596L66.699 25.5257L65.2705 26.0018L65.4286 26.4762L61.8571 27.6667L61.699 27.1923L60.2705 27.6685L60.243 27.6777L60.2167 27.69L57.2643 29.0709L57.4762 29.5238L50.0952 32.9762L49.8834 32.5233L43.9786 35.2852L44.1905 35.7381L36.8095 39.1905L36.5977 38.7376L33.6453 40.1185L33.4216 40.2232L33.3687 40.4644L32.6068 43.9406L33.0952 44.0476L31.1905 52.7381L30.7021 52.6311L29.1783 59.5834L29.6667 59.6905L27.7619 68.381L27.2735 68.2739L26.5116 71.7501Z" fill="#F7F6FC" stroke="black" stroke-dasharray="8 10"/>
<path d="M14 64.5136L47.0616 20.7178L20.8699 32.7402L14 64.5136Z" fill="#91C6FA"/>
<path d="M36.7601 90.2752L69.3923 48.6262L91.2903 64.513L85.2791 37.0332L34.6133 45.1913L36.7601 90.2752Z" fill="#407CED"/>
<path d="M29.8838 49.4844L15.2852 69.6648L32.8894 93.2802L29.8838 49.4844Z" fill="#A1C2FA"/>
<path d="M37.1836 40.0392L53.9291 19L81.4088 32.7399L37.1836 40.0392Z" fill="#69A3F8"/>
<path d="M50.065 79.9707L37.6133 94.5693H66.3811L50.065 79.9707Z" fill="#2F348F"/>
<path d="M71.1042 53.7793L53.5 76.1066L71.1042 91.9933L89.9965 68.8073L71.1042 53.7793Z" fill="#005CD5"/>
</svg>
