<svg xmlns="http://www.w3.org/2000/svg" width="123" height="85" viewBox="0 0 123 85">
  <g fill="none" fill-rule="evenodd">
    <path fill="#D8D8D8" fill-opacity=".169" stroke="#000" stroke-dasharray="8 10" d="M14.765125,14.0012207 C22.6382884,31.3526657 30.5114519,48.7041106 38.3846154,66.0555556 L64.0838213,58.8743148 C64.5216368,58.7519741 64.9868817,58.9403276 65.2162808,59.3327887 L79.6346154,84 L119.663836,69.6595655 C120.183763,69.473302 120.454251,68.9008213 120.267987,68.380894 C120.239057,68.300139 120.199856,68.223442 120.15135,68.1526922 L107.885474,50.2618582 C107.573178,49.8063479 107.689276,49.1839179 108.144787,48.871622 C108.22185,48.8187878 108.305937,48.7770148 108.394596,48.7475217 L121.616041,44.3492767 C122.14009,44.1749466 122.423593,43.6087984 122.249263,43.0847493 C122.210351,42.967778 122.150147,42.8590096 122.071687,42.7639288 L108.555533,26.3846128 C108.330422,26.1118155 107.977954,25.9782215 107.628579,26.0332744 L89.7391976,28.8522073 C89.1936444,28.9381732 88.8210753,29.4501206 88.9070412,29.9956738 C88.9324971,30.1572205 88.9971847,30.3100586 89.0954357,30.4407952 L99.8822223,44.7941221 C100.214022,45.235628 100.125088,45.862516 99.6835818,46.1943156 C99.5766445,46.2746809 99.4546701,46.3327742 99.3248797,46.3651563 L67.665239,54.2640767 C67.236275,54.3711011 66.7879425,54.1837388 66.5626892,53.803311 L39.7602702,8.53700337 C39.565687,8.20837386 39.2009145,8.01927244 38.8202097,8.0496673 L17.2582903,9.7711361 C15.6066914,9.90299708 14.3747005,11.3487769 14.5065615,13.0003757 C14.5341906,13.3464384 14.6216768,13.6850794 14.765125,14.0012207 Z"/>
    <path fill="#FB503B" fill-rule="nonzero" d="M109.558729,34.5760385 C108.774246,33.8052473 98.7067186,21.3441233 97.0070062,19.2886802 C95.1765467,17.233237 94.3920641,17.6186326 93.2153401,17.7470978 C92.0386162,17.875563 79.3561468,20.0594713 77.9179286,20.1879365 C76.4797105,20.4448669 75.5644807,20.9587277 76.4797105,22.2433797 C77.2641931,23.3995664 85.6320079,34.9614341 87.4624674,37.6592032 L54.1219552,45.4955802 L27.7110396,1.9458787 C26.6650627,0.404296342 26.4035685,-0.109564442 24.0501206,0.0189007537 C21.6966726,0.14736595 3.26133055,1.6889483 1.95385948,1.6889483 C0.646388408,1.8174135 -0.791829768,2.33127428 0.515641301,5.41443899 C1.82311237,8.4976037 22.7426495,52.6896311 23.2656379,53.9742831 C23.7886263,55.2589351 25.3575916,57.3143782 28.8877635,56.543587 C32.5486825,55.6443307 45.1004048,52.4327008 52.0300014,50.634188 C55.6909204,57.0574478 63.0127584,70.1608978 64.4509766,72.0878758 C66.2814361,74.6571797 67.5889072,74.1433189 70.3345964,73.3725277 C72.5572972,72.7302017 104.590338,61.4252645 106.028557,60.7829385 C107.466775,60.1406125 108.382005,59.7552169 107.336028,58.3420998 C106.551545,57.3143782 98.1837302,46.1379061 93.7383286,40.3569723 C96.745512,39.5861811 107.597522,36.7599468 108.774246,36.3745512 C110.081717,35.9891557 110.343211,35.3468297 109.558729,34.5760385 Z M49.022818,46.7802321 C48.6305767,46.9086973 29.9337404,51.276514 29.0185106,51.5334444 C27.9725338,51.7903748 27.9725338,51.6619096 27.9725338,51.276514 C27.7110396,50.8911184 5.74552558,6.18523017 5.35328426,5.67136938 C5.09179005,5.1575086 5.09179005,4.64364781 5.35328426,4.64364781 C5.61477847,4.64364781 23.0041437,3.10206546 23.5271321,3.10206546 C24.1808677,3.10206546 24.0501206,3.23053066 24.3116148,3.61592624 C24.3116148,3.61592624 48.7613238,45.1101846 49.1535651,45.7525106 C49.6765535,46.3948365 49.4150593,46.6517669 49.022818,46.7802321 Z M101.583155,56.4151218 C101.844649,56.9289826 102.236891,57.185913 101.190914,57.4428434 C100.275684,57.828239 69.6808609,67.9769895 69.0271254,68.2339199 C68.3733898,68.4908503 67.9811485,68.6193155 67.1966659,67.4631287 C66.4121832,66.3069419 56.4754031,49.4780012 56.4754031,49.4780012 L89.0314327,41.1277635 C89.8159154,40.8708331 90.0774096,40.7423679 90.600398,41.5131591 C91.1233864,42.4124155 101.321661,56.0297262 101.583155,56.4151218 Z M103.675109,33.8052473 C102.890626,33.9337125 90.9926393,36.888412 90.9926393,36.888412 L81.1866063,23.784962 C80.9251121,23.3995664 80.6636179,23.0141709 81.3173534,22.8857057 C81.9710889,22.7572405 93.084593,20.8302625 93.6075815,20.7017973 C94.1305699,20.5733321 94.5228112,20.4448669 95.1765467,21.3441233 C95.8302823,22.1149145 104.198097,32.6490606 104.590338,33.0344561 C104.98258,33.4198517 104.459591,33.6767821 103.675109,33.8052473 Z"/>
  </g>
</svg>
