<svg xmlns="http://www.w3.org/2000/svg" width="203" height="135" viewBox="0 0 203 135">
    <defs>
        <path id="a" d="M0 89h186V0H0z"/>
        <filter id="b" width="262.2%" height="177.9%" x="-81.1%" y="-31.2%" filterUnits="objectBoundingBox">
            <feOffset dy="6" in="SourceAlpha" result="shadowOffsetOuter1"/>
            <feGaussianBlur in="shadowOffsetOuter1" result="shadowBlurOuter1" stdDeviation="9"/>
            <feColorMatrix in="shadowBlurOuter1" result="shadowMatrixOuter1" values="0 0 0 0 0.42745098 0 0 0 0 0.4 0 0 0 0 0.525490196 0 0 0 0.280910326 0"/>
            <feMerge>
                <feMergeNode in="shadowMatrixOuter1"/>
                <feMergeNode in="SourceGraphic"/>
            </feMerge>
        </filter>
    </defs>
    <g fill="none" fill-rule="evenodd">
        <path fill="#FFF" d="M143.877 3.807V25H8.609c-1.036 0-1.876.866-1.876 1.934v30.944c0 1.068.84 1.934 1.876 1.934h135.268v21.273c0 .782.458 1.486 1.156 1.788.7.297 1.506.135 2.043-.418l37.531-38.583a1.981 1.981 0 0 0 .003-2.738L147.08 2.438a1.829 1.829 0 0 0-2.044-.418 1.938 1.938 0 0 0-1.16 1.786z"/>
        <path stroke="#000" stroke-linejoin="round" stroke-width="1.325" d="M145.036 2.021a1.938 1.938 0 0 0-1.16 1.786V25H8.61c-1.036 0-1.876.866-1.876 1.934v30.944c0 1.068.84 1.934 1.876 1.934h135.268v21.273c0 .782.458 1.486 1.156 1.788.7.297 1.506.135 2.043-.418l37.531-38.583a1.981 1.981 0 0 0 .003-2.738L147.08 2.438a1.829 1.829 0 0 0-2.044-.418z"/>
        <path fill="#FFF" d="M12.149 32.106l-10.716-.728 5.103-5.954a.737.737 0 0 1 .56-.259l8.128-.161"/>
        <path stroke="#000" stroke-linejoin="round" stroke-width="1.325" d="M12.149 32.106l-10.716-.728 5.103-5.954a.737.737 0 0 1 .56-.259l8.128-.161"/>
        <path fill="#FFF" d="M146.69 2.017c-.918-.73-1.89-.228-2.026-.07l-5.848 6.547 5.689 3.799"/>
        <path stroke="#000" stroke-linejoin="round" stroke-width="1.325" d="M146.69 2.017c-.918-.73-1.89-.228-2.026-.07l-5.848 6.547 5.689 3.799"/>
        <path fill="#6B6BC0" d="M137.985 9.915v21.193H2.717c-1.035 0-1.875.866-1.875 1.934v30.944c0 1.068.84 1.933 1.875 1.933h135.268v21.273c0 .783.459 1.487 1.156 1.789.7.297 1.507.135 2.044-.418l37.531-38.583a1.96 1.96 0 0 0 .551-1.369c0-.514-.198-1.007-.548-1.37L141.188 8.547a1.829 1.829 0 0 0-2.044-.418 1.938 1.938 0 0 0-1.159 1.786z"/>
        <path stroke="#000" stroke-linejoin="round" stroke-width="1.325" d="M139.144 8.13a1.938 1.938 0 0 0-1.159 1.785v21.193H2.717c-1.035 0-1.875.866-1.875 1.934v30.944c0 1.068.84 1.933 1.875 1.933h135.268v21.273c0 .783.459 1.487 1.156 1.789.7.297 1.507.135 2.044-.418l37.531-38.583a1.96 1.96 0 0 0 .551-1.369c0-.514-.198-1.007-.548-1.37L141.188 8.547a1.829 1.829 0 0 0-2.044-.418z"/>
        <path fill="#FFF" d="M36.787 56V39.2h2.64v14.4h4.344V56h-6.984zm17.847-16.8L57.322 56h-2.664l-.456-3.048h-3.24L50.506 56h-2.424l2.688-16.8h3.864zm-2.064 2.976l-1.272 8.496h2.544l-1.272-8.496zm9.711-2.976h2.64v12.96c0 1.2.528 1.632 1.368 1.632.84 0 1.368-.432 1.368-1.632V39.2h2.496v12.792c0 2.688-1.344 4.224-3.936 4.224-2.592 0-3.936-1.536-3.936-4.224V39.2zM81.448 56L78.16 43.832V56h-2.376V39.2h3.312l2.712 10.056V39.2h2.352V56h-2.712zm13.623-6.264h2.496v2.232c0 2.688-1.344 4.224-3.936 4.224-2.592 0-3.936-1.536-3.936-4.224v-8.736c0-2.688 1.344-4.224 3.936-4.224 2.592 0 3.936 1.536 3.936 4.224v1.632h-2.496v-1.8c0-1.2-.528-1.656-1.368-1.656-.84 0-1.368.456-1.368 1.656v9.072c0 1.2.528 1.632 1.368 1.632.84 0 1.368-.432 1.368-1.632v-2.4zm10.599-.936V56h-2.64V39.2h2.64v7.2h3v-7.2h2.688V56h-2.688v-7.2h-3z"/>
        <g filter="url(#b)" transform="translate(149 37)">
            <path fill="#000" d="M12.066 72.053c.607 0 1.063-.455 1.063-1.062v-8.047c0-.608-.456-1.063-1.063-1.063s-1.062.455-1.062 1.063v8.047c-.077.531.455 1.062 1.062 1.062M17.38 62.944v12.602c0 .607.456 1.062 1.063 1.062s1.062-.455 1.062-1.062V62.944c0-.607-.455-1.062-1.062-1.062s-1.063.455-1.063 1.062M23.756 62.944v8.047c0 .607.456 1.062 1.063 1.062s1.063-.455 1.063-1.062v-8.047c0-.607-.456-1.062-1.063-1.062s-1.063.455-1.063 1.062"/>
            <path fill="#FFF" d="M25.446 58.752H11.375c-1.174 0-2.615-.977-2.135-2.135.48-1.158 2.766-4.687 2.766-4.687 0-1.174.96-2.135 2.135-2.135h8.539c1.175 0 2.135.96 2.135 2.135 0 0 2.46 3.584 2.766 4.687.305 1.103-.961 2.135-2.135 2.135"/>
            <path stroke="#000" stroke-linejoin="round" stroke-width=".922" d="M25.446 58.752H11.375c-1.174 0-2.615-.977-2.135-2.135.48-1.158 2.766-4.687 2.766-4.687 0-1.174.96-2.135 2.135-2.135h8.539c1.175 0 2.135.96 2.135 2.135 0 0 2.46 3.584 2.766 4.687.305 1.103-.961 2.135-2.135 2.135z"/>
            <path fill="#FFF" d="M27.146 53.823l8.763.016s2.138-7.19-5.57-14.971c-.715 3.07-1.662 7.248-2.893 13.976-.062.34-.163.668-.3.979"/>
            <path stroke="#000" stroke-linejoin="round" stroke-width=".922" d="M27.146 53.823l8.763.016s2.138-7.19-5.57-14.971c-.715 3.07-1.662 7.248-2.893 13.976-.062.34-.163.668-.3.979z"/>
            <path fill="#FFF" d="M9.196 52.843C7.966 46.115 7.02 41.94 6.303 38.867-1.405 46.65.733 53.838.733 53.838l8.763-.016a4.392 4.392 0 0 1-.3-.979"/>
            <path stroke="#000" stroke-linejoin="round" stroke-width=".922" d="M9.196 52.843C7.966 46.115 7.02 41.94 6.303 38.867-1.405 46.65.733 53.838.733 53.838l8.763-.016a4.392 4.392 0 0 1-.3-.979z"/>
            <path fill="#FFF" d="M24.24 24.91a5.85 5.85 0 1 1-11.701-.033 5.85 5.85 0 0 1 11.7.033M18.457.46h-.001a1.761 1.761 0 0 0-1.245.513l-.024.025C13.248 5.072 4.085 15.68 4.056 26.178c-.011 4.766.449 6.782 1.458 11.2.726 3.18 1.722 7.539 3.045 15.003.15.839.877 1.45 1.729 1.453l16.049.043a1.76 1.76 0 0 0 1.736-1.444c1.365-7.46 2.383-11.81 3.126-14.986 1.032-4.412 1.503-6.427 1.517-11.192.027-10.517-9.078-21.162-12.994-25.251A1.763 1.763 0 0 0 18.456.46"/>
            <path stroke="#000" stroke-linejoin="round" stroke-width=".922" d="M24.24 24.91a5.85 5.85 0 1 1-11.701-.033 5.85 5.85 0 0 1 11.7.033zM18.456.46h-.001a1.761 1.761 0 0 0-1.245.513l-.024.025C13.248 5.072 4.085 15.68 4.056 26.178c-.011 4.766.449 6.782 1.458 11.2.726 3.18 1.722 7.539 3.045 15.003.15.839.877 1.45 1.729 1.453l16.049.043a1.76 1.76 0 0 0 1.736-1.444c1.365-7.46 2.383-11.81 3.126-14.986 1.032-4.412 1.503-6.427 1.517-11.192.027-10.517-9.078-21.162-12.994-25.251A1.763 1.763 0 0 0 18.456.46z"/>
        </g>
    </g>
</svg>
