<?xml version="1.0" encoding="UTF-8"?>
<svg width="212px" height="110px" viewBox="0 0 212 110" version="1.1" xmlns="http://www.w3.org/2000/svg" xmlns:xlink="http://www.w3.org/1999/xlink">
    <!-- Generator: Sketch 52.2 (67145) - http://www.bohemiancoding.com/sketch -->
    <title>lead_generator</title>
    <desc>Created with Sketch.</desc>
    <defs>
        <polygon id="path-1" points="0 -2.84217094e-14 212 -2.84217094e-14 212 109.267123 0 109.267123"></polygon>
    </defs>
    <g id="10.-Career" stroke="none" stroke-width="1" fill="none" fill-rule="evenodd">
        <g id="lead_generator">
            <g id="ui_little">
                <g id="Continuous-delivery">
                    <mask id="mask-2" fill="white">
                        <use xlink:href="#path-1"></use>
                    </mask>
                    <use id="Rectangle-6" fill="#FFFFFF" xlink:href="#path-1"></use>
                    <g id="manager4" mask="url(#mask-2)">
                        <g transform="translate(12.000000, 11.000000)">
                            <g id="Group-2" stroke="none" fill="none" transform="translate(0.000000, 40.000000)">
                                <path d="M41.3602941,50.5514706 C61.1572658,50.5514706 77.2058824,40.8811504 77.2058824,28.9522059 C77.2058824,17.0232614 61.1572658,7.35294118 41.3602941,7.35294118 C21.5633224,7.35294118 5.51470588,17.0232614 5.51470588,28.9522059 C5.51470588,40.8811504 21.5633224,50.5514706 41.3602941,50.5514706 Z" id="Oval" stroke="#000000" stroke-linecap="round" stroke-linejoin="round" stroke-dasharray="4,8"></path>
                                <g id="Group-25">
                                    <path d="M57.1420525,10.8626736 L57.1420525,5.0634838 L47.9745751,7.46105324 C43.7464713,6.39392361 39.0699583,5.7990162 34.1489105,5.7990162 C18.8503104,5.7990162 5.90084771,11.5235532 1.55648968,19.4124421 L-5.72680995e-05,19.4269097 L0.00738758484,25.0594329 C0.00624222285,25.1155671 -5.72680995e-05,25.170544 -5.72680995e-05,25.2255209 C-5.72680995e-05,25.289757 0.00624222285,25.352257 0.00738758484,25.4153357 L0.00796026584,25.6445023 L0.0171231618,25.6358218 C0.374476103,35.4211227 13.4464925,43.4298032 30.2203188,44.525868 L34.1489105,25.2255209 L57.1420525,10.8626736 Z" id="Fill-1" fill="#FFFFFF"></path>
                                    <path d="M57.1420525,10.8626736 L57.1420525,5.0634838 L47.9745751,7.46105324 C43.7464713,6.39392361 39.0699583,5.7990162 34.1489105,5.7990162 C18.8503104,5.7990162 5.90084771,11.5235532 1.55648968,19.4124421 L-5.72680995e-05,19.4269097 L0.00738758484,25.0594329 C0.00624222285,25.1155671 -5.72680995e-05,25.170544 -5.72680995e-05,25.2255209 C-5.72680995e-05,25.289757 0.00624222285,25.352257 0.00738758484,25.4153357 L0.00796026584,25.6445023 L0.0171231618,25.6358218 C0.374476103,35.4211227 13.4464925,43.4298032 30.2203188,44.525868 L34.1489105,25.2255209 L57.1420525,10.8626736 Z" id="Stroke-3" stroke="#000000" stroke-linejoin="round"></path>
                                    <path d="M72.7856356,18.6248843 C70.9576379,15.297338 67.6085994,12.3517361 63.1880748,10.0600695 L49.4780917,18.6248843 L40.1949328,18.6248843 L40.1949328,24.4240741 L71.6408463,32.0045139 L71.6465731,32.0045139 C73.1968206,29.9211805 74.1245638,27.6561343 74.305531,25.2788195 L74.3439006,25.2793982 L74.3439006,18.6248843 L72.7856356,18.6248843 Z" id="Fill-5" fill="#FFFFFF"></path>
                                    <path d="M72.7856356,18.6248843 C70.9576379,15.297338 67.6085994,12.3517361 63.1880748,10.0600695 L49.4780917,18.6248843 L40.1949328,18.6248843 L40.1949328,24.4240741 L71.6408463,32.0045139 L71.6465731,32.0045139 C73.1968206,29.9211805 74.1245638,27.6561343 74.305531,25.2788195 L74.3439006,25.2793982 L74.3439006,18.6248843 L72.7856356,18.6248843 Z" id="Stroke-7" stroke="#000000" stroke-linejoin="round"></path>
                                    <path d="M59.1212952,32.3244791 L37.8066813,27.1855903 L35.1437146,40.2677662 L33.8780896,40.6867477 L33.8780896,46.4859375 C35.1666219,46.5721643 36.4780614,46.6126736 37.8066813,46.6126736 C51.9404483,46.6126736 64.064105,41.728993 69.2520221,34.7671875 L69.2520221,28.9679977 L59.1212952,32.3244791 Z" id="Fill-9" fill="#FFFFFF"></path>
                                    <path d="M59.1212952,32.3244791 L37.8066813,27.1855903 L35.1437146,40.2677662 L33.8780896,40.6867477 L33.8780896,46.4859375 C35.1666219,46.5721643 36.4780614,46.6126736 37.8066813,46.6126736 C51.9404483,46.6126736 64.064105,41.728993 69.2520221,34.7671875 L69.2520221,28.9679977 L59.1212952,32.3244791 Z" id="Stroke-11" stroke="#000000" stroke-linejoin="round"></path>
                                    <path d="M34.1489105,19.4266204 L30.2203188,38.7269676 C13.2116933,37.6158565 -5.72680995e-05,29.3982639 -5.72680995e-05,19.4266204 C-5.72680995e-05,8.6974537 15.2905253,0.000115740741 34.1489105,0.000115740741 C43.0025586,0.000115740741 51.0716339,1.92083334 57.1420525,5.06377315 L34.1489105,19.4266204 Z" id="Fill-13" fill="#9595EF"></path>
                                    <path d="M57.1420525,5.06377315 L34.1489105,19.4266204 L30.2203188,38.7269676 C13.2116933,37.6158565 -5.72680995e-05,29.3982639 -5.72680995e-05,19.4266204 C-5.72680995e-05,8.6974537 15.2905253,0.000115740741 34.1489105,0.000115740741 C43.0025586,0.000115740741 51.0716339,1.92083334 57.1420525,5.06377315 Z" id="Stroke-15" stroke="#000000" stroke-linejoin="round"></path>
                                    <path d="M69.2522511,28.9681134 C64.0637613,35.929919 51.9406773,40.8141782 37.8069104,40.8141782 C36.4782904,40.8141782 35.1662783,40.7730903 33.877746,40.6868634 L37.8069104,21.3865162 L69.2522511,28.9681134 Z" id="Fill-17" fill="#FFFFFF"></path>
                                    <path d="M69.2522511,28.9681134 C64.0637613,35.929919 51.9406773,40.8141782 37.8069104,40.8141782 C36.4782904,40.8141782 35.1662783,40.7730903 33.877746,40.6868634 L37.8069104,21.3865162 L69.2522511,28.9681134 Z" id="Stroke-19" stroke="#000000" stroke-linejoin="round"></path>
                                    <path d="M74.3437288,18.6248843 C74.3437288,21.3158565 73.3816247,23.8737268 71.6464013,26.2059028 L71.6406744,26.2059028 L40.194761,18.6248843 L63.1884756,4.26145834 C70.0428945,7.81469907 74.3437288,12.9362268 74.3437288,18.6248843" id="Fill-21" fill="#FFFFFF"></path>
                                    <path d="M74.3437288,18.6248843 C74.3437288,21.3158565 73.3816247,23.8737268 71.6464013,26.2059028 L71.6406744,26.2059028 L40.194761,18.6248843 L63.1884756,4.26145834 C70.0428945,7.81469907 74.3437288,12.9362268 74.3437288,18.6248843 Z" id="Stroke-23" stroke="#000000" stroke-linejoin="round"></path>
                                </g>
                            </g>
                            <path d="M104.26233,75.104782 L187.817063,124.470698 C188.57774,124.920122 189.55055,124.764813 190.133481,124.100883 L207.599916,104.207456 C208.269745,103.444554 208.194294,102.283096 207.431392,101.613267 C207.334449,101.528152 207.228816,101.453477 207.116239,101.390479 L125.520035,55.7292776 C124.855501,55.3574047 124.030482,55.4337679 123.445494,55.9212956 L104.020529,72.1100085 C103.240633,72.759972 103.135301,73.9191023 103.785265,74.6989985 C103.919904,74.8605532 104.081267,74.9978061 104.26233,75.104782 Z" id="Path-2" stroke="#000000" fill-opacity="0.08" fill="#9D80F9" stroke-linecap="round" stroke-linejoin="round" stroke-dasharray="4,8"></path>
                            <g id="Group-39" stroke="none" fill="none" transform="translate(111.316176, 0.000000)">
                                <polygon id="Fill-1" fill="#FFFFFF" points="0.919117647 14.5395284 74.8288031 56.9852941 96.5073529 45.1597072 22.263455 0.919117647"></polygon>
                                <polygon id="Stroke-2" stroke="#000000" stroke-linejoin="round" points="0.919117647 14.5395284 22.263455 0.919117647 96.5073529 45.1588418 74.8288031 56.9852941"></polygon>
                                <polygon id="Fill-4" fill="#FFFFFF" points="75.3676471 56.8678915 75.3676471 115.808824 96.5073529 103.767324 96.5073529 45.0367647"></polygon>
                                <polygon id="Stroke-5" stroke="#000000" stroke-linejoin="round" points="75.3676471 56.8678915 96.5073529 45.0367647 96.5073529 103.767324 75.3676471 115.808824"></polygon>
                                <polygon id="Fill-7" fill="#FFFFFF" points="0.919117647 72.6499999 75.3676471 115.808824 75.3676471 56.5083385 0.919117647 13.7867647"></polygon>
                                <g id="Group-38">
                                    <polygon id="Stroke-8" stroke="#000000" stroke-linejoin="round" points="74.6616278 116.033306 74.6616278 56.7268011 0.693949092 14.0008902 0.693949092 72.86923"></polygon>
                                    <path d="M59.1855548,32.1388442 L66.7382366,36.2931394 L66.7382366,18.1654643 C66.7382366,18.1654643 64.8951418,8.86555765 51.2783646,2.56399104 C37.6615874,-3.73844668 37.9307349,4.16159585 37.9307349,4.16159585 L37.9307349,19.6759587 L44.9625422,23.830254 L44.9625422,9.35337592 C44.9625422,9.35337592 44.9625422,7.33938337 51.5074449,10.9901804 C58.0523476,14.6409774 58.9338278,17.6619663 58.9338278,17.6619663 L59.1855548,32.1388442 Z" id="Fill-10" fill="#FFFFFF"></path>
                                    <path d="M59.1855548,32.1388442 L66.7382366,36.2931394 L66.7382366,18.1654643 C66.7382366,18.1654643 64.8951418,8.86555765 51.2783646,2.56399104 C37.6615874,-3.73844668 37.9307349,4.16159585 37.9307349,4.16159585 L37.9307349,19.6759587 L44.9625422,23.830254 L44.9625422,9.35337592 C44.9625422,9.35337592 44.9625422,7.33938337 51.5074449,10.9901804 C58.0523476,14.6409774 58.9338278,17.6619663 58.9338278,17.6619663 L59.1855548,32.1388442 Z" id="Stroke-12" stroke="#000000" stroke-linejoin="round"></path>
                                    <g id="Group-17" transform="translate(38.148492, 10.629543)">
                                        <polyline id="Fill-14" fill="#FFFFFF" points="0.258259736 16.7254589 6.81361478 13.200972 7.08102031 0.604807534"></polyline>
                                        <polyline id="Stroke-16" stroke="#000000" stroke-linejoin="round" points="0.258259736 16.7254589 6.81361478 13.200972 7.08102031 0.604807534"></polyline>
                                    </g>
                                    <path d="M60.182446,39.8176264 L66.7378011,36.2931394 L66.7378011,18.6254073 C66.7378011,18.3013566 66.6750871,17.9860169 66.5514012,17.6863572 C65.730893,15.7098221 62.0690922,8.05717311 52.7177381,2.84971316 C39.8178166,-4.33428185 32.3557217,4.91858525 32.3557217,4.91858525 L31.709419,6.09631791 L31.3758154,22.3197596 L39.3004261,9.01625865 C39.9972483,8.53192481 51.932942,14.8143271 52.3336148,15.5626055 L58.3349961,30.8940366 L60.182446,39.8176264 Z" id="Fill-18" fill="#FFFFFF"></path>
                                    <path d="M60.182446,39.8176264 L66.7378011,36.2931394 L66.7378011,18.6254073 C66.7378011,18.3013566 66.6750871,17.9860169 66.5514012,17.6863572 C65.730893,15.7098221 62.0690922,8.05717311 52.7177381,2.84971316 C39.8178166,-4.33428185 32.3557217,4.91858525 32.3557217,4.91858525 L31.709419,6.09631791 L31.3758154,22.3197596 L39.3004261,9.01625865 C39.9972483,8.53192481 51.932942,14.8143271 52.3336148,15.5626055 L58.3349961,30.8940366 L60.182446,39.8176264 Z" id="Stroke-20" stroke="#000000" stroke-linejoin="round"></path>
                                    <polyline id="Fill-22" fill="#FFFFFF" points="37.9474587 25.8599264 37.7148943 11.4692876 43.5864926 8.72879432 44.134369 23.4460971"></polyline>
                                    <path d="M52.6298513,35.6636796 L60.1825332,39.8179748 L60.1825332,21.6902997 C60.1825332,21.6902997 58.3394384,12.390393 44.7226611,6.08795531 C31.1058839,-0.213611302 31.3759025,7.68643122 31.3759025,7.68643122 L31.3759025,23.2007941 L38.4068387,27.3550893 L38.4068387,12.8782113 C38.4068387,12.8782113 38.4068387,10.8642188 44.9526125,14.5150158 C51.4975152,18.1658128 52.3781243,21.1868017 52.3781243,21.1868017 L52.6298513,35.6636796 Z" id="Fill-24" fill="#9595EF"></path>
                                    <path d="M52.6298513,35.6636796 L60.1825332,39.8179748 L60.1825332,21.6902997 C60.1825332,21.6902997 58.3394384,12.390393 44.7226611,6.08795531 C31.1058839,-0.213611302 31.3759025,7.68643122 31.3759025,7.68643122 L31.3759025,23.2007941 L38.4068387,27.3550893 L38.4068387,12.8782113 C38.4068387,12.8782113 38.4068387,10.8642188 44.9526125,14.5150158 C51.4975152,18.1658128 52.3781243,21.1868017 52.3781243,21.1868017 L52.6298513,35.6636796 Z" id="Stroke-26" stroke="#000000" stroke-linejoin="round"></path>
                                    <polyline id="Fill-28" fill="#FFFFFF" points="73.780322 57.1052958 73.780322 58.6846074 73.780322 78.1964667 1.5407623 36.660484 1.5407623 15.4909136"></polyline>
                                    <polygon id="Fill-30" fill="#FFFFFF" points="75.5121865 77.3580291 95.4987895 67.6852899 95.4987895 46.3362721 75.5121865 57.3139252"></polygon>
                                    <polyline id="Stroke-32" stroke="#000000" stroke-linejoin="round" points="1.54119781 36.6607453 74.6613665 77.7698871 96.3569265 67.2704701"></polyline>
                                    <polygon id="Fill-34" fill="#9595EF" points="29.6922058 44.8770858 42.9048262 52.8929851 42.9048262 68.5763422 29.6922058 60.9515686"></polygon>
                                    <polygon id="Stroke-36" stroke="#000000" stroke-linejoin="round" points="29.6922058 44.8770858 42.9048262 52.8929851 42.9048262 68.5763422 29.6922058 60.9515686"></polygon>
                                </g>
                            </g>
                            <g id="talk-bubble-square" stroke="none" fill="none" transform="translate(70.000000, 0.000000)">
                                <path d="M27.3965995,35.3701227 C27.3965995,38.227171 21.2832512,40.5430345 13.7423998,40.5430345 C6.2010379,40.5430345 0.0882001642,38.227171 0.0882001642,35.3701227 C0.0882001642,32.5130744 6.2010379,30.197211 13.7423998,30.197211 C21.2832512,30.197211 27.3965995,32.5130744 27.3965995,35.3701227 Z" id="Stroke-1" stroke="#000000" fill-opacity="0.08" fill="#9D80F9" stroke-linecap="round" stroke-linejoin="round" stroke-dasharray="4,8" transform="translate(13.742400, 35.370123) rotate(1.000000) translate(-13.742400, -35.370123) "></path>
                                <g id="talk" transform="translate(0.265131, 0.000000)">
                                    <g id="Group">
                                        <path d="M27.0810512,13.3885189 L27.0810512,33.0751609 C27.0810512,33.9996926 26.0786722,34.5785835 25.2747956,34.1184923 L5.25957476,22.6022473 C4.68816371,22.2751476 4.33590831,21.6685597 4.33590831,21.0116133 L4.33590831,1.35587298 C4.33590831,0.51878153 5.24167514,-0.00654657244 5.97074055,0.407306678 L26.2420637,11.9491886 C26.7606938,12.2435554 27.0810512,12.7931471 27.0810512,13.3885189" id="Fill-1" fill="#FFFFFF"></path>
                                        <path d="M27.0810512,13.3885189 L27.0810512,33.0751609 C27.0810512,33.9996926 26.0786722,34.5785835 25.2747956,34.1184923 L5.25957476,22.6022473 C4.68816371,22.2751476 4.33590831,21.6685597 4.33590831,21.0116133 L4.33590831,1.35587298 C4.33590831,0.51878153 5.24167514,-0.00654657244 5.97074055,0.407306678 L26.2420637,11.9491886 C26.7606938,12.2435554 27.0810512,12.7931471 27.0810512,13.3885189 Z" id="Stroke-3" stroke="#000000" stroke-linecap="round" stroke-linejoin="round"></path>
                                        <path d="M21.8953926,36.649475 L26.3271558,34.2796616 C26.3271558,34.2796616 27.0810052,33.8145345 27.0810052,33.0751838 C27.0810052,32.7155801 27.0121606,12.9231858 27.0121606,12.9231858 L22.7061538,15.2392074 L21.8953926,36.649475 Z" id="Fill-5" fill="#FFFFFF"></path>
                                        <path d="M21.8953926,36.649475 L26.3271558,34.2796616 C26.3271558,34.2796616 27.0810052,33.8145345 27.0810052,33.0751838 C27.0810052,32.7155801 27.0121606,12.9231858 27.0121606,12.9231858 L22.7061538,15.2392074 L21.8953926,36.649475 Z" id="Stroke-7" stroke="#000000" stroke-linecap="round" stroke-linejoin="round"></path>
                                        <g id="Group-12" transform="translate(0.000000, 0.062719)">
                                            <path d="M7.17871268,6.12145724 L4.27599047,7.75214892 L4.58964695e-05,8.06711688 L0.435373909,2.83809938 L5.0608201,0.225421836 C5.19667365,0.148511056 5.36258938,0.146222044 5.50050828,0.219699309 L7.7010145,1.3880107 L11.7525254,3.68068446" id="Fill-9" fill="#FFFFFF"></path>
                                            <path d="M7.17871268,6.12145724 L4.27599047,7.75214892 L4.58964695e-05,8.06711688 L0.435373909,2.83809938 L5.0608201,0.225421836 C5.19667365,0.148511056 5.36258938,0.146222044 5.50050828,0.219699309 L7.7010145,1.3880107 L11.7525254,3.68068446" id="Stroke-11" stroke="#000000" stroke-linecap="round" stroke-linejoin="round"></path>
                                        </g>
                                        <path d="M21.9672207,14.3564273 L1.69612698,2.81454545 C0.966832077,2.40069221 0.0612947349,2.92579141 0.0612947349,3.76288285 L0.0612947349,23.4186233 C0.0612947349,24.0755695 0.413550138,24.6821575 0.9847317,25.0092572 L5.19619174,27.4324046 L5.19619174,33.7628944 C5.19619174,34.4729457 5.94522211,34.9344104 6.58180615,34.6171534 L12.5286117,31.6512814 L20.9999526,36.5257311 C21.2913951,36.692371 21.6089987,36.722586 21.8953926,36.6495665 C22.3988769,36.5204664 22.8062081,36.0715912 22.8062081,35.4821708 L22.8062081,15.7955288 C22.8062081,15.2003858 22.4858507,14.6507942 21.9672207,14.3564273" id="Fill-13" fill="#FFFFFF"></path>
                                        <path d="M21.9672207,14.3564273 L1.69612698,2.81454545 C0.966832077,2.40069221 0.0612947349,2.92579141 0.0612947349,3.76288285 L0.0612947349,23.4186233 C0.0612947349,24.0755695 0.413550138,24.6821575 0.9847317,25.0092572 L5.19619174,27.4324046 L5.19619174,33.7628944 C5.19619174,34.4729457 5.94522211,34.9344104 6.58180615,34.6171534 L12.5286117,31.6512814 L20.9999526,36.5257311 C21.2913951,36.692371 21.6089987,36.722586 21.8953926,36.6495665 C22.3988769,36.5204664 22.8062081,36.0715912 22.8062081,35.4821708 L22.8062081,15.7955288 C22.8062081,15.2003858 22.4858507,14.6507942 21.9672207,14.3564273 Z" id="Stroke-15" stroke="#000000" stroke-linecap="round" stroke-linejoin="round"></path>
                                        <path d="M4.13752083,11.5416529 L18.8475688,19.9260726" id="Stroke-17" stroke="#9595EF" stroke-linecap="round"></path>
                                        <path d="M4.13752083,14.4022533 L18.8475688,22.7869018" id="Stroke-19" stroke="#9595EF" stroke-linecap="round"></path>
                                        <path d="M4.13752083,17.0037605 L18.8475688,25.3881801" id="Stroke-21" stroke="#9595EF" stroke-linecap="round"></path>
                                        <path d="M4.07868155,20.0449639 L18.7887295,28.4293835" id="Stroke-23" stroke="#9595EF" stroke-linecap="round"></path>
                                    </g>
                                </g>
                            </g>
                        </g>
                    </g>
                </g>
            </g>
        </g>
    </g>
</svg>