<svg width="52" height="52" viewBox="0 0 52 52" fill="none" xmlns="http://www.w3.org/2000/svg">
<path d="M9.03003 26.9137C9.21615 30.3259 10.1468 32.9936 12.3802 35.4132C16.0406 38.7634 19.701 42.1756 23.3613 45.5878C26.8976 38.1429 30.4339 30.6981 34.0323 23.2533C35.5833 20.1513 36.638 15.9946 36.7 12.5823C36.762 4.57915 30.2478 0.670607 23.2373 4.45507C15.7924 8.54972 8.47167 15.9325 9.03003 26.9137ZM14.2414 25.2386C14.3655 19.4068 18.5222 12.8925 23.2373 9.97665C27.6421 7.24688 32.1711 10.2248 32.2331 15.064C32.2951 20.9578 28.2625 27.472 23.2993 30.3259C19.2046 32.6834 13.6831 30.7602 14.2414 25.2386Z" fill="white" stroke="black" stroke-width="0.9605" stroke-miterlimit="10" stroke-linejoin="round"/>
<path d="M41.0439 9.41951C41.0439 9.41951 36.3909 4.14608 30.435 3.21548C28.2016 2.84324 21.6873 2.34691 15.2351 10.4742C8.78294 18.6015 8.34866 24.8055 9.58947 30.141C11.5127 38.2682 23.4245 45.589 23.4245 45.589L29.6905 48.9392L37.8798 25.3639L40.0513 16.2439L41.0439 9.41951Z" fill="white" stroke="black" stroke-width="0.9605" stroke-miterlimit="10" stroke-linejoin="round"/>
<path d="M15.2957 30.3254C15.4818 33.7376 16.4124 36.4053 18.6458 38.8249C22.3062 42.1751 25.9666 45.5873 29.627 48.9995C33.1633 41.5547 36.6996 34.1098 40.2979 26.665C41.8489 23.563 42.9036 19.4063 42.9656 15.9941C43.0277 8.05292 36.5134 4.14438 29.5029 7.92884C22.058 11.8994 14.7373 19.2822 15.2957 30.3254ZM20.507 28.5883C20.6311 22.7565 24.7878 16.2422 29.5029 13.3263C33.9077 10.5966 38.4367 13.5745 38.4987 18.4136C38.5608 24.3075 34.5281 30.8217 29.5649 33.6756C25.4703 36.0331 19.9487 34.1098 20.507 28.5883Z" fill="white" stroke="black" stroke-width="0.9605" stroke-miterlimit="10" stroke-linejoin="round"/>
</svg>
