<?xml version="1.0" encoding="UTF-8"?>
<svg width="95px" height="24px" viewBox="0 0 95 24" version="1.1" xmlns="http://www.w3.org/2000/svg" xmlns:xlink="http://www.w3.org/1999/xlink">
    <!-- Generator: Sketch 50.2 (55047) - http://www.bohemiancoding.com/sketch -->
    <title>logo</title>
    <desc>Created with Sketch.</desc>
    <defs>
        <polygon id="path-1" points="0.000237198567 0 10.5954431 0 10.5954431 9.20530276 0.000237198567 9.20530276"></polygon>
        <polygon id="path-3" points="2.02793798e-05 0.0433447652 11.3878384 0.0433447652 11.3878384 11.9970134 2.02793798e-05 11.9970134"></polygon>
    </defs>
    <g id="Blockchain" stroke="none" stroke-width="1" fill="none" fill-rule="evenodd">
        <g id="Mobile" transform="translate(-24.000000, -24.000000)">
            <g id="header" transform="translate(24.000000, 24.000000)">
                <g id="logo">
                    <g>
                        <path d="M17.3887674,3.43871824 L17.3887674,9.64751505 L22.2752009,9.64751505 L22.2752009,12.8315134 L17.3887674,12.8315134 L17.3887674,19.3587101 L23.5372598,19.3587101 L23.5372598,22.5427084 L13.8291139,22.5427084 L13.8291139,0.254719869 L23.5372598,0.254719869 L23.5372598,3.43871824 L17.3887674,3.43871824 Z M33.7919383,22.5427084 L29.3585517,6.39983672 L29.3585517,22.5427084 L26.1548635,22.5427084 L26.1548635,0.254719869 L30.6206106,0.254719869 L34.2773456,13.595673 L34.2773456,0.254719869 L37.4486733,0.254719869 L37.4486733,22.5427084 L33.7919383,22.5427084 Z M40.4546028,22.5427084 L40.4546028,0.254719869 L44.0142563,0.254719869 L44.0142563,22.5427084 L40.4546028,22.5427084 Z M46.8907439,0.254719869 L50.4503974,0.254719869 L50.4503974,17.4483111 C50.4503974,19.0403102 51.1623281,19.6134299 52.2949451,19.6134299 C53.4275621,19.6134299 54.1394928,19.0403102 54.1394928,17.4483111 L54.1394928,0.254719869 L57.5049834,0.254719869 L57.5049834,17.2254312 C57.5049834,20.7915093 55.6927962,22.8292683 52.1978636,22.8292683 C48.7029311,22.8292683 46.8907439,20.7915093 46.8907439,17.2254312 L46.8907439,0.254719869 Z M59.9284242,5.60383713 C59.9284242,2.03775895 61.7082509,0 65.170823,0 C68.633395,0 70.4132218,2.03775895 70.4132218,5.60383713 L70.4132218,6.30431677 L67.0477312,6.30431677 L67.0477312,5.38095724 C67.0477312,3.78895806 66.4005215,3.18399837 65.2679044,3.18399837 C64.1352874,3.18399837 63.4880777,3.78895806 63.4880777,5.38095724 C63.4880777,9.96591489 70.4455823,10.8255944 70.4455823,17.1935912 C70.4455823,20.7596694 68.633395,22.7974283 65.1384625,22.7974283 C61.64353,22.7974283 59.8313427,20.7596694 59.8313427,17.1935912 L59.8313427,15.8244719 L63.1968333,15.8244719 L63.1968333,17.4164711 C63.1968333,19.0084703 63.908764,19.58159 65.041381,19.58159 C66.1739981,19.58159 66.8859288,19.0084703 66.8859288,17.4164711 C66.8859288,12.8315134 59.9284242,11.9718339 59.9284242,5.60383713 Z M76.4933975,3.43871824 L76.4933975,9.64751505 L81.3798309,9.64751505 L81.3798309,12.8315134 L76.4933975,12.8315134 L76.4933975,19.3587101 L82.6418899,19.3587101 L82.6418899,22.5427084 L72.933744,22.5427084 L72.933744,0.254719869 L82.6418899,0.254719869 L82.6418899,3.43871824 L76.4933975,3.43871824 Z M88.8515076,3.43871824 L88.8515076,9.64751505 L93.737941,9.64751505 L93.737941,12.8315134 L88.8515076,12.8315134 L88.8515076,19.3587101 L95,19.3587101 L95,22.5427084 L85.2918541,22.5427084 L85.2918541,0.254719869 L95,0.254719869 L95,3.43871824 L88.8515076,3.43871824 Z" id="ENIUSEE" fill="#000000"></path>
                        <g id="Logo">
                            <g id="Page-1">
                                <g id="Group-3">
                                    <mask id="mask-2" fill="white">
                                        <use xlink:href="#path-1"></use>
                                    </mask>
                                    <g id="Clip-2"></g>
                                    <path d="M10.3696361,3.23676271 L8.18721162,4.54420459 C7.90988696,4.71031709 7.57346033,4.54533001 7.47792202,4.20545215 C7.23604537,3.34502845 6.57847823,3.04281475 5.65162483,3.04281475 C4.46694977,3.04281475 3.72247571,3.62150746 3.72247571,5.14247967 L3.72247571,6.60905642 C3.72247571,6.98374738 3.54016225,7.32760174 3.24893513,7.50204237 L0.477928757,9.16211691 C0.260892068,9.29214083 0.000237198567,9.1128984 0.000237198567,8.83364334 L0.000237198567,5.35616006 C0.000237198567,1.94732761 1.89499253,-3.00112907e-05 5.55002478,-3.00112907e-05 C8.13034985,-3.00112907e-05 9.79581323,0.885978317 10.5524767,2.60652561 C10.6536155,2.83656215 10.5696077,3.11701766 10.3696361,3.23676271" id="Fill-1" fill="#000000" mask="url(#mask-2)"></path>
                                </g>
                                <g id="Group-6" transform="translate(0.000000, 11.198109)">
                                    <mask id="mask-4" fill="white">
                                        <use xlink:href="#path-3"></use>
                                    </mask>
                                    <g id="Clip-5"></g>
                                    <path d="M0.444679481,0.486567762 C0.190916841,0.520189022 2.02793798e-05,0.75605623 2.02793798e-05,1.0360606 L2.02793798e-05,6.71101823 C2.02793798e-05,10.0748475 1.94433962,11.9970357 5.69399695,11.9970357 C9.44365428,11.9970357 11.3878384,10.0747734 11.3878384,6.71101823 L11.3878384,0.47708864 C11.3878384,0.237518649 11.2105966,0.0433447652 10.9919849,0.0433447652 L6.37869641,0.0433447652 C6.19226131,0.0433447652 6.04111233,0.208933173 6.04111233,0.413178624 L6.04111233,2.56442087 C6.04111233,2.83087305 6.2382955,3.04689335 6.48151286,3.04689335 L7.52610372,3.04689335 C7.66474708,3.04689335 7.77709484,3.16989977 7.77709484,3.32178788 L7.77709484,6.92126219 C7.77709484,8.42288837 7.0132382,8.96349454 5.79809776,8.96349454 C4.58295733,8.96349454 3.81910069,8.42288837 3.81910069,6.92126219 L3.81910069,0.427545418 C3.81910069,0.221522631 3.65477011,0.0619327305 3.46813222,0.0865932581 L0.444679481,0.486567762 Z" id="Fill-4" fill="#000000" mask="url(#mask-4)"></path>
                                </g>
                            </g>
                        </g>
                    </g>
                </g>
            </g>
        </g>
    </g>
</svg>