<svg xmlns="http://www.w3.org/2000/svg" width="84" height="86" viewBox="0 0 84 86">
  <g fill="none" fill-rule="evenodd">
    <path fill="#6A47DE" fill-opacity=".08" fill-rule="nonzero" stroke="#000" stroke-dasharray="8 10" stroke-linecap="round" stroke-linejoin="round" d="M48.1090153,2.55365173 L82.5399188,23.0260809 L82.5399188,64.0725729 L45.4979626,85.0963859 L10.0113395,64.0725729 L10.0113395,23.0260809 L42.9169305,2.6030642 C44.5027506,1.61881718 46.5047502,1.59976438 48.1090153,2.55365173 Z"/>
    <polygon fill="#07582A" points="0 20.824 36.041 0 72.082 20.824 72.082 62.471 36.041 83.161 0 62.471"/>
    <polygon fill="#FFF" points="57.665 56.864 23.36 56.864 23.36 26.563 16.552 26.563 16.552 63.806 36.041 63.806 36.041 69.545"/>
    <path fill="#6CB433" d="M50.8576047,38.1765746 C52.3259345,36.0408223 53.1268416,33.5046164 53.1268416,30.8349257 C53.1268416,23.4932767 47.120038,17.486473 39.778389,17.486473 L36.0408223,17.486473 L36.0408223,12.9479991 L16.6855659,24.2941839 L39.6449045,24.2941839 C43.2489867,24.2941839 46.0521619,27.2308435 46.0521619,30.7014412 C46.0521619,34.1720389 43.1155022,37.1086986 39.6449045,37.1086986 L36.7082448,37.1086986 L25.4955446,37.1086986 L25.4955446,44.0498938 L36.7082448,44.0498938 L39.6449045,44.0498938 L45.7851926,44.0498938 C49.2557903,44.0498938 52.19245,46.9865535 52.19245,50.4571512 C52.19245,52.0589655 51.658512,53.5272954 50.5906357,54.5951714 L58.3327382,54.5951714 C58.733192,53.2603264 59.000161,51.925481 59.000161,50.4571512 C59.1336455,44.8508011 55.6630478,40.045358 50.8576047,38.1765746 Z"/>
  </g>
</svg>
