<svg width="52" height="52" viewBox="0 0 52 52" fill="none" xmlns="http://www.w3.org/2000/svg">
<path d="M42.6667 9.26454C41.4914 8.51119 39.2615 7.8181 37.6945 8.08931C35.3139 8.51119 32.6018 10.048 30.1308 12.4889C28.9857 13.6039 27.9009 14.8997 26.9064 16.3762C26.0024 17.7022 25.2491 19.0582 24.6464 20.3841C23.3807 23.1866 22.7178 25.9288 22.7178 28.3094V28.3396C22.7178 30.8407 23.4711 32.92 25.008 34.1253C25.0682 34.1555 25.1285 34.2157 25.1587 34.2459L25.1285 34.276L28.0817 35.9635L29.5281 33.7637C30.0103 33.5829 30.5226 33.372 31.0047 33.1309H31.0348C33.2045 32.0159 35.4043 30.1777 37.3932 27.767C37.8753 27.1945 38.3273 26.5918 38.7492 25.9589C40.2258 23.8194 41.3106 21.5593 42.0037 19.3897C42.6968 17.2501 42.9982 15.2311 42.9078 13.4231L43.9926 11.7958L44.8062 10.5603L42.6667 9.26454Z" fill="white" stroke="black" stroke-miterlimit="10" stroke-linejoin="round"/>
<path d="M31.0046 33.1312L22.6875 28.3398C22.6875 30.841 23.4409 32.9203 24.9777 34.1256C25.038 34.1558 25.0982 34.216 25.1284 34.2462L25.0982 34.2763L28.5336 36.2652L29.4677 33.7941C30.0101 33.5832 30.5224 33.3723 31.0046 33.1312Z" fill="white" stroke="black" stroke-miterlimit="10" stroke-linejoin="round"/>
<path d="M43.7793 27.9229C48.3194 20.8496 48.8207 13.0749 44.8988 10.5576C40.977 8.04029 34.1172 11.7336 29.5771 18.8069C25.037 25.8802 24.5357 33.6549 28.4575 36.1723C32.3793 38.6896 39.2391 34.9962 43.7793 27.9229Z" fill="white" stroke="black" stroke-miterlimit="10" stroke-linejoin="round"/>
<path d="M43.7793 27.9229C48.3194 20.8496 48.8207 13.0749 44.8988 10.5576C40.977 8.04029 34.1172 11.7336 29.5771 18.8069C25.037 25.8802 24.5357 33.6549 28.4575 36.1723C32.3793 38.6896 39.2391 34.9962 43.7793 27.9229Z" fill="white" stroke="black" stroke-miterlimit="10" stroke-linejoin="round"/>
<path d="M42.7803 26.9434C46.3789 21.337 46.7762 15.1747 43.6677 13.1795C40.5593 11.1843 35.1221 14.1116 31.5236 19.718C27.925 25.3243 27.5277 31.4866 30.6362 33.4818C33.7447 35.4771 39.1818 32.5497 42.7803 26.9434Z" fill="white" stroke="black" stroke-miterlimit="10" stroke-linejoin="round"/>
<path d="M25.0381 29.3347C25.5504 30.2387 25.5504 31.203 25.0682 31.4742L20.5002 34.0004L18.6318 30.7459L23.1999 28.2498C23.7122 27.9485 24.5258 28.4306 25.0381 29.3347Z" fill="white" stroke="black" stroke-miterlimit="10" stroke-linejoin="round"/>
<path d="M18.0474 30.3288L1.6543 39.9416L2.95007 42.1715L4.33625 44.5823L20.7293 34.9694C21.4525 34.5476 21.4525 33.1915 20.6992 31.8957C20.6992 31.8957 20.6992 31.8957 20.6992 31.8656C19.976 30.6 18.7706 29.9069 18.0474 30.3288Z" fill="white" stroke="black" stroke-miterlimit="10" stroke-linejoin="round"/>
<path d="M1.65394 39.9418C0.930719 40.3637 0.930719 41.7499 1.68408 43.0456C2.43743 44.3414 3.61267 45.0345 4.3359 44.6126C5.05912 44.1907 5.05912 42.8046 4.30576 41.5088C3.5524 40.213 2.37717 39.5199 1.65394 39.9418Z" fill="white" stroke="black" stroke-miterlimit="10" stroke-linejoin="round"/>
</svg>
