<svg width="140" height="140" viewBox="0 0 140 140" fill="none" xmlns="http://www.w3.org/2000/svg">
<g clip-path="url(#clip0)">
<path fill-rule="evenodd" clip-rule="evenodd" d="M75.6162 38.6513L135.065 73.1878C136.533 74.0407 137.436 75.6099 137.436 77.3077V162.061C137.436 165.719 133.485 168.012 130.309 166.197L69.6844 131.555C68.1797 130.695 67.2608 129.086 67.2848 127.353L68.4597 42.7045C68.5099 39.0612 72.4655 36.8215 75.6162 38.6513Z" fill="white"/>
<path fill-rule="evenodd" clip-rule="evenodd" d="M75.6162 38.6513L135.065 73.1878C136.533 74.0407 137.436 75.6099 137.436 77.3077V162.061C137.436 165.719 133.485 168.012 130.309 166.197L69.6844 131.555C68.1797 130.695 67.2608 129.086 67.2848 127.353L68.4597 42.7045C68.5099 39.0612 72.4655 36.8215 75.6162 38.6513Z" stroke="black" stroke-width="1.86822" stroke-linejoin="round"/>
<path fill-rule="evenodd" clip-rule="evenodd" d="M69.4081 42.0297L128.857 76.5654C130.325 77.4183 131.228 78.9876 131.228 80.6853V165.438C131.228 169.097 127.276 171.389 124.101 169.575L63.477 134.933C61.9716 134.073 61.0527 132.464 61.0766 130.731L62.2516 46.0828C62.3025 42.4388 66.2573 40.1991 69.4081 42.0297Z" fill="white"/>
<path fill-rule="evenodd" clip-rule="evenodd" d="M69.4081 42.0297L128.857 76.5654C130.325 77.4183 131.228 78.9876 131.228 80.6853V165.438C131.228 169.097 127.276 171.389 124.101 169.575L63.477 134.933C61.9716 134.073 61.0527 132.464 61.0766 130.731L62.2516 46.0828C62.3025 42.4388 66.2573 40.1991 69.4081 42.0297Z" stroke="black" stroke-width="1.86822" stroke-linejoin="round"/>
<path fill-rule="evenodd" clip-rule="evenodd" d="M69.3398 59.8075L75.1769 63.1428C75.3851 63.262 75.5143 63.4838 75.5143 63.7236V69C75.5143 69.514 74.9587 69.8356 74.5129 69.5808L68.6758 66.2455C68.4676 66.1263 68.3384 65.9045 68.3384 65.6647V60.389C68.3384 59.875 68.894 59.5534 69.3398 59.8075Z" fill="white"/>
<path fill-rule="evenodd" clip-rule="evenodd" d="M69.3398 59.8075L75.1769 63.1428C75.3851 63.262 75.5143 63.4838 75.5143 63.7236V69C75.5143 69.514 74.9587 69.8356 74.5129 69.5808L68.6758 66.2455C68.4676 66.1263 68.3384 65.9045 68.3384 65.6647V60.389C68.3384 59.875 68.894 59.5534 69.3398 59.8075Z" stroke="black" stroke-width="1.86822" stroke-linejoin="round"/>
<path fill-rule="evenodd" clip-rule="evenodd" d="M81.1745 66.6894L124.21 90.9243C124.418 91.0435 124.547 91.2646 124.547 91.505V96.7815C124.547 97.2948 123.992 97.6171 123.546 97.3622L80.5105 73.128C80.3023 73.0089 80.1731 72.7863 80.1731 72.5466V67.2709C80.1731 66.7569 80.7287 66.4352 81.1745 66.6894Z" fill="white"/>
<path fill-rule="evenodd" clip-rule="evenodd" d="M81.1745 66.6894L124.21 90.9243C124.418 91.0435 124.547 91.2646 124.547 91.505V96.7815C124.547 97.2948 123.992 97.6171 123.546 97.3622L80.5105 73.128C80.3023 73.0089 80.1731 72.7863 80.1731 72.5466V67.2709C80.1731 66.7569 80.7287 66.4352 81.1745 66.6894Z" stroke="black" stroke-width="1.86822" stroke-linejoin="round"/>
<path fill-rule="evenodd" clip-rule="evenodd" d="M68.2853 117.472L111.321 141.707C111.529 141.826 111.657 142.047 111.657 142.287V147.563C111.657 148.077 111.103 148.399 110.657 148.145L67.6212 123.91C67.413 123.791 67.2838 123.569 67.2838 123.328V118.053C67.2838 117.539 67.8395 117.217 68.2853 117.472Z" fill="white"/>
<path fill-rule="evenodd" clip-rule="evenodd" d="M68.2853 117.472L111.321 141.707C111.529 141.826 111.657 142.047 111.657 142.287V147.563C111.657 148.077 111.103 148.399 110.657 148.145L67.6212 123.91C67.413 123.791 67.2838 123.569 67.2838 123.328V118.053C67.2838 117.539 67.8395 117.217 68.2853 117.472Z" stroke="black" stroke-width="1.86822" stroke-linejoin="round"/>
<path fill-rule="evenodd" clip-rule="evenodd" d="M69.2732 74.8027L122.539 104.926C122.747 105.045 122.876 105.267 122.876 105.507V140.217C122.876 140.731 122.321 141.052 121.875 140.797L68.6091 110.674C68.4009 110.555 68.2717 110.333 68.2717 110.093V75.3841C68.2717 74.8701 68.8274 74.5485 69.2732 74.8027Z" fill="white"/>
<path fill-rule="evenodd" clip-rule="evenodd" d="M69.2732 74.8027L122.539 104.926C122.747 105.045 122.876 105.267 122.876 105.507V140.217C122.876 140.731 122.321 141.052 121.875 140.797L68.6091 110.674C68.4009 110.555 68.2717 110.333 68.2717 110.093V75.3841C68.2717 74.8701 68.8274 74.5485 69.2732 74.8027Z" stroke="black" stroke-width="1.86822" stroke-linejoin="round"/>
<path fill-rule="evenodd" clip-rule="evenodd" d="M85.0581 89.1701L111.272 104.282C111.48 104.401 111.609 104.622 111.609 104.862V106.549C111.609 107.063 111.054 107.385 110.608 107.13L84.394 92.0187C84.1859 91.8995 84.0566 91.6777 84.0566 91.4379V89.7516C84.0566 89.2376 84.6123 88.9153 85.0581 89.1701Z" fill="white"/>
<path fill-rule="evenodd" clip-rule="evenodd" d="M85.0581 89.1701L111.272 104.282C111.48 104.401 111.609 104.622 111.609 104.862V106.549C111.609 107.063 111.054 107.385 110.608 107.13L84.394 92.0187C84.1859 91.8995 84.0566 91.6777 84.0566 91.4379V89.7516C84.0566 89.2376 84.6123 88.9153 85.0581 89.1701Z" stroke="black" stroke-width="0.934109" stroke-linejoin="round"/>
<path fill-rule="evenodd" clip-rule="evenodd" d="M85.0581 96.9062L101.723 106.511C101.931 106.631 102.06 106.852 102.06 107.092V108.779C102.06 109.293 101.505 109.615 101.06 109.36L84.394 99.7547C84.1859 99.6355 84.0566 99.4137 84.0566 99.174V97.4877C84.0566 96.9736 84.6123 96.652 85.0581 96.9062Z" fill="white"/>
<path fill-rule="evenodd" clip-rule="evenodd" d="M85.0581 96.9062L101.723 106.511C101.931 106.631 102.06 106.852 102.06 107.092V108.779C102.06 109.293 101.505 109.615 101.06 109.36L84.394 99.7547C84.1859 99.6355 84.0566 99.4137 84.0566 99.174V97.4877C84.0566 96.9736 84.6123 96.652 85.0581 96.9062Z" stroke="black" stroke-width="0.934109" stroke-linejoin="round"/>
<path fill-rule="evenodd" clip-rule="evenodd" d="M62.1852 50.8766L131.089 89.7979C131.089 89.7979 131.149 87.8431 131.088 86.2149L131.089 79.1696C131.064 78.4618 130.678 77.8157 130.067 77.4568L67.7201 41.3761C66.3345 40.5606 62.1802 41.9942 62.1802 45.8327V49.29C62.1802 50.0359 62.1852 50.8766 62.1852 50.8766Z" fill="#9595EF"/>
<path fill-rule="evenodd" clip-rule="evenodd" d="M62.1852 50.8766L131.089 89.7979C131.089 89.7979 131.149 87.8431 131.088 86.2149L131.089 79.1696C131.064 78.4618 130.678 77.8157 130.067 77.4568L67.7201 41.3761C66.3345 40.5606 62.1802 41.9942 62.1802 45.8327V49.29C62.1802 50.0359 62.1852 50.8766 62.1852 50.8766Z" stroke="black" stroke-width="1.89344" stroke-linecap="round" stroke-linejoin="round"/>
<path fill-rule="evenodd" clip-rule="evenodd" d="M71.9303 50.4663C71.7788 52.0184 70.5276 52.6724 69.3825 52.1519C68.2382 51.6293 67.2361 49.7327 67.417 48.2172C67.5986 46.7032 68.7472 45.9753 69.8571 46.5819C70.9683 47.1871 72.0818 48.9143 71.9303 50.4663Z" fill="white"/>
<mask id="mask0" mask-type="alpha" maskUnits="userSpaceOnUse" x="67" y="46" width="5" height="7">
<path d="M67.4169 48.2174C67.2359 49.7322 68.2388 51.6295 69.3831 52.1521C70.5274 52.6726 71.7787 52.0179 71.9302 50.4665C72.0816 48.9145 70.9675 47.1865 69.8569 46.5821C69.592 46.4371 69.3243 46.3682 69.068 46.3682C68.2532 46.3682 67.5554 47.0645 67.4169 48.2174Z" fill="white"/>
</mask>
<g mask="url(#mask0)">
<path fill-rule="evenodd" clip-rule="evenodd" d="M66.16 52.9018H72.6813V46.3799H66.16V52.9018Z" fill="white"/>
</g>
<mask id="mask1" mask-type="alpha" maskUnits="userSpaceOnUse" x="67" y="46" width="5" height="7">
<path d="M68.8828 46.3799C68.1498 46.4775 67.5454 47.153 67.4169 48.2169C67.2359 49.7317 68.2388 51.629 69.3831 52.1516C70.5274 52.6721 71.7787 52.0174 71.9302 50.4661C72.0816 48.914 70.9675 47.1861 69.8569 46.5816C69.6559 46.4711 69.4542 46.4057 69.2568 46.3799H68.8828Z" fill="white"/>
</mask>
<g mask="url(#mask1)">
<path fill-rule="evenodd" clip-rule="evenodd" d="M60.874 58.8494H78.4657V39.8457H60.874V58.8494Z" fill="white"/>
<path fill-rule="evenodd" clip-rule="evenodd" d="M60.874 58.8494H78.4657V39.8457H60.874V58.8494Z" stroke="black" stroke-width="0.934109" stroke-linejoin="round"/>
</g>
<mask id="mask2" mask-type="alpha" maskUnits="userSpaceOnUse" x="67" y="46" width="5" height="7">
<path d="M67.4169 48.2174C67.2359 49.7322 68.2388 51.6295 69.3831 52.1521C70.5274 52.6726 71.7787 52.0179 71.9302 50.4665C72.0816 48.9145 70.9675 47.1865 69.8569 46.5821C69.592 46.4371 69.3243 46.3682 69.068 46.3682C68.2532 46.3682 67.5554 47.0645 67.4169 48.2174Z" fill="white"/>
</mask>
<g mask="url(#mask2)">
<path fill-rule="evenodd" clip-rule="evenodd" d="M66.16 52.9018H72.6813V46.3799H66.16V52.9018Z" stroke="black" stroke-width="0.934109" stroke-linejoin="round"/>
</g>
<path fill-rule="evenodd" clip-rule="evenodd" d="M71.9303 50.4663C71.7788 52.0184 70.5276 52.6724 69.3825 52.1519C68.2382 51.6293 67.2361 49.7327 67.417 48.2172C67.5986 46.7032 68.7472 45.9753 69.8571 46.5819C70.9683 47.1871 72.0818 48.9143 71.9303 50.4663Z" stroke="black" stroke-width="0.934109" stroke-linejoin="round"/>
<path fill-rule="evenodd" clip-rule="evenodd" d="M78.3828 54.5699C78.2313 56.1219 76.9801 56.7759 75.835 56.2554C74.6915 55.7328 73.6886 53.8362 73.8695 52.3207C74.0511 50.8067 75.1997 50.0788 76.3096 50.6854C77.4208 51.2906 78.5343 53.0178 78.3828 54.5699Z" fill="white"/>
<mask id="mask3" mask-type="alpha" maskUnits="userSpaceOnUse" x="73" y="50" width="6" height="7">
<path d="M73.8699 52.3212C73.689 53.8366 74.6911 55.7333 75.8354 56.2559C76.9797 56.7771 78.231 56.1231 78.3832 54.5703C78.5339 53.0183 77.4205 51.291 76.3099 50.6859C76.0443 50.5409 75.7766 50.4727 75.521 50.4727C74.7062 50.4727 74.0084 51.1697 73.8699 52.3212Z" fill="white"/>
</mask>
<g mask="url(#mask3)">
<path fill-rule="evenodd" clip-rule="evenodd" d="M72.6124 57.0073H79.1344V50.4854H72.6124V57.0073Z" fill="white"/>
</g>
<mask id="mask4" mask-type="alpha" maskUnits="userSpaceOnUse" x="73" y="50" width="6" height="7">
<path d="M75.3351 50.4863C74.6021 50.584 73.9977 51.2595 73.8699 52.3227C73.689 53.8381 74.6911 55.7347 75.8354 56.2574C76.9797 56.7785 78.231 56.1246 78.3832 54.5718C78.5339 53.0197 77.4205 51.2925 76.3099 50.6873C76.1082 50.5775 75.9058 50.5115 75.7084 50.4863H75.3351Z" fill="white"/>
</mask>
<g mask="url(#mask4)">
<path fill-rule="evenodd" clip-rule="evenodd" d="M67.3263 62.9539H84.9187V43.9502H67.3263V62.9539Z" fill="white"/>
<path fill-rule="evenodd" clip-rule="evenodd" d="M67.3263 62.9539H84.9187V43.9502H67.3263V62.9539Z" stroke="black" stroke-width="0.934109" stroke-linejoin="round"/>
</g>
<mask id="mask5" mask-type="alpha" maskUnits="userSpaceOnUse" x="73" y="50" width="6" height="7">
<path d="M73.8699 52.3212C73.689 53.8366 74.6911 55.7333 75.8354 56.2559C76.9797 56.7771 78.231 56.1231 78.3832 54.5703C78.5339 53.0183 77.4205 51.291 76.3099 50.6859C76.0443 50.5409 75.7766 50.4727 75.521 50.4727C74.7062 50.4727 74.0084 51.1697 73.8699 52.3212Z" fill="white"/>
</mask>
<g mask="url(#mask5)">
<path fill-rule="evenodd" clip-rule="evenodd" d="M72.6124 57.0073H79.1344V50.4854H72.6124V57.0073Z" stroke="black" stroke-width="0.934109" stroke-linejoin="round"/>
</g>
<path fill-rule="evenodd" clip-rule="evenodd" d="M78.3827 54.5708C78.2312 56.1229 76.9799 56.7769 75.8349 56.2564C74.6913 55.7338 73.6885 53.8372 73.8694 52.3217C74.051 50.8077 75.1996 50.0798 76.3094 50.6864C77.4207 51.2916 78.5342 53.0188 78.3827 54.5708Z" stroke="black" stroke-width="0.934109" stroke-linejoin="round"/>
<path fill-rule="evenodd" clip-rule="evenodd" d="M85.4181 58.4853C85.2666 60.0374 84.0146 60.6907 82.8703 60.1702C81.726 59.6483 80.7239 57.7509 80.9048 56.2355C81.0864 54.7215 82.235 53.9943 83.3449 54.6002C84.4554 55.2053 85.5696 56.9333 85.4181 58.4853Z" fill="white"/>
<mask id="mask6" mask-type="alpha" maskUnits="userSpaceOnUse" x="80" y="54" width="6" height="7">
<path d="M80.9043 56.235C80.7234 57.7497 81.7263 59.6471 82.8706 60.169C84.0149 60.6902 85.2661 60.0362 85.4183 58.4841C85.5691 56.9328 84.4556 55.2041 83.3451 54.5997C83.0795 54.4547 82.8124 54.3857 82.5561 54.3857C81.7413 54.3857 81.0428 55.0821 80.9043 56.235Z" fill="white"/>
</mask>
<g mask="url(#mask6)">
<path fill-rule="evenodd" clip-rule="evenodd" d="M79.6477 60.9187H86.1696V54.3975H79.6477V60.9187Z" fill="white"/>
</g>
<mask id="mask7" mask-type="alpha" maskUnits="userSpaceOnUse" x="80" y="54" width="6" height="7">
<path d="M82.3666 54.3975C81.6351 54.4972 81.0321 55.1713 80.9043 56.2338C80.7234 57.7485 81.7263 59.6459 82.8706 60.1678C84.0149 60.689 85.2661 60.035 85.4183 58.4829C85.5691 56.9316 84.4556 55.2029 83.3451 54.5985C83.1455 54.4893 82.9445 54.4233 82.7485 54.3975H82.3666Z" fill="white"/>
</mask>
<g mask="url(#mask7)">
<path fill-rule="evenodd" clip-rule="evenodd" d="M74.3616 66.868H91.9532V47.8643H74.3616V66.868Z" fill="white"/>
<path fill-rule="evenodd" clip-rule="evenodd" d="M74.3616 66.868H91.9532V47.8643H74.3616V66.868Z" stroke="black" stroke-width="0.934109" stroke-linejoin="round"/>
</g>
<mask id="mask8" mask-type="alpha" maskUnits="userSpaceOnUse" x="80" y="54" width="6" height="7">
<path d="M80.9043 56.235C80.7234 57.7497 81.7263 59.6471 82.8706 60.169C84.0149 60.6902 85.2661 60.0362 85.4183 58.4841C85.5691 56.9328 84.4556 55.2041 83.3451 54.5997C83.0795 54.4547 82.8124 54.3857 82.5561 54.3857C81.7413 54.3857 81.0428 55.0821 80.9043 56.235Z" fill="white"/>
</mask>
<g mask="url(#mask8)">
<path fill-rule="evenodd" clip-rule="evenodd" d="M79.6477 60.9187H86.1696V54.3975H79.6477V60.9187Z" stroke="black" stroke-width="0.934109" stroke-linejoin="round"/>
</g>
<path fill-rule="evenodd" clip-rule="evenodd" d="M85.418 58.4834C85.2665 60.0354 84.0145 60.6887 82.8702 60.1682C81.7259 59.6463 80.7238 57.749 80.9047 56.2335C81.0863 54.7195 82.2349 53.9923 83.3447 54.5982C84.4553 55.2034 85.5694 56.9313 85.418 58.4834Z" stroke="black" stroke-width="0.934109" stroke-linejoin="round"/>
<path fill-rule="evenodd" clip-rule="evenodd" d="M81.6019 91.5671C81.3032 94.2577 78.8416 95.3912 76.5889 94.4881C74.3376 93.5843 72.3656 90.2935 72.721 87.6668C73.0785 85.0415 75.3384 83.7802 77.5229 84.8312C79.7081 85.88 81.8998 88.8757 81.6019 91.5671Z" fill="white"/>
<mask id="mask9" mask-type="alpha" maskUnits="userSpaceOnUse" x="72" y="84" width="10" height="11">
<path d="M72.7212 87.6663C72.3659 90.293 74.3379 93.5838 76.5892 94.4883C78.8419 95.3914 81.3042 94.2571 81.6021 91.5672C81.8993 88.8752 79.7083 85.8795 77.5231 84.8306C77.0012 84.5801 76.475 84.4609 75.9711 84.4609C74.3673 84.4609 72.9933 85.6691 72.7212 87.6663Z" fill="white"/>
</mask>
<g mask="url(#mask9)">
<path fill-rule="evenodd" clip-rule="evenodd" d="M68.9615 97.069H83.1899V84.5312H68.9615V97.069Z" fill="white"/>
</g>
<mask id="mask10" mask-type="alpha" maskUnits="userSpaceOnUse" x="72" y="84" width="10" height="11">
<path d="M75.3085 84.5322C74.0019 84.8179 72.9552 85.9515 72.7212 87.6665C72.3659 90.2932 74.3379 93.584 76.5892 94.4885C78.8419 95.3916 81.3042 94.2573 81.6021 91.5675C81.8993 88.8754 79.7083 85.8797 77.5231 84.8309C77.2317 84.6909 76.9395 84.5918 76.6509 84.5322H75.3085Z" fill="white"/>
</mask>
<g mask="url(#mask10)">
<path fill-rule="evenodd" clip-rule="evenodd" d="M57.4312 108.505H95.8105V71.9717H57.4312V108.505Z" fill="white"/>
<path fill-rule="evenodd" clip-rule="evenodd" d="M57.4312 108.505H95.8105V71.9717H57.4312V108.505Z" stroke="black" stroke-width="1.25077" stroke-linejoin="round"/>
</g>
<mask id="mask11" mask-type="alpha" maskUnits="userSpaceOnUse" x="72" y="84" width="10" height="11">
<path d="M72.7212 87.6663C72.3659 90.293 74.3379 93.5838 76.5892 94.4883C78.8419 95.3914 81.3042 94.2571 81.6021 91.5672C81.8993 88.8752 79.7083 85.8795 77.5231 84.8306C77.0012 84.5801 76.475 84.4609 75.9711 84.4609C74.3673 84.4609 72.9933 85.6691 72.7212 87.6663Z" fill="white"/>
</mask>
<g mask="url(#mask11)">
<path fill-rule="evenodd" clip-rule="evenodd" d="M68.9615 97.069H83.1899V84.5312H68.9615V97.069Z" stroke="black" stroke-width="1.25077" stroke-linejoin="round"/>
</g>
<path fill-rule="evenodd" clip-rule="evenodd" d="M81.6019 91.5671C81.3032 94.2577 78.8416 95.3912 76.5889 94.4881C74.3376 93.5843 72.3656 90.2935 72.721 87.6668C73.0785 85.0415 75.3384 83.7802 77.5229 84.8312C79.7081 85.88 81.8998 88.8757 81.6019 91.5671Z" stroke="black" stroke-width="1.1284" stroke-linejoin="round"/>
<path fill-rule="evenodd" clip-rule="evenodd" d="M126.104 81.3906C125.952 82.9427 124.701 83.5959 123.556 83.0755C122.412 82.5536 121.41 80.6562 121.59 79.1408C121.772 77.6268 122.921 76.8995 124.031 77.5054C125.142 78.1113 126.255 79.8385 126.104 81.3906Z" fill="white"/>
<mask id="mask12" mask-type="alpha" maskUnits="userSpaceOnUse" x="121" y="77" width="6" height="7">
<path d="M121.59 79.1413C121.409 80.6567 122.412 82.5541 123.556 83.0752C124.701 83.5964 125.953 82.9431 126.104 81.3911C126.255 79.8383 125.142 78.1118 124.031 77.5052C123.765 77.3609 123.498 77.292 123.242 77.292C122.427 77.292 121.729 77.9883 121.59 79.1413Z" fill="white"/>
</mask>
<g mask="url(#mask12)">
<path fill-rule="evenodd" clip-rule="evenodd" d="M120.333 83.8259H126.855V77.3047H120.333V83.8259Z" fill="white"/>
</g>
<mask id="mask13" mask-type="alpha" maskUnits="userSpaceOnUse" x="121" y="77" width="6" height="7">
<path d="M123.052 77.3057C122.32 77.4062 121.718 78.0803 121.59 79.142C121.409 80.6574 122.412 82.5548 123.556 83.076C124.701 83.5972 125.953 82.9439 126.104 81.3918C126.255 79.8391 125.142 78.1126 124.031 77.506C123.832 77.3976 123.632 77.3322 123.436 77.3057H123.052Z" fill="white"/>
</mask>
<g mask="url(#mask13)">
<path fill-rule="evenodd" clip-rule="evenodd" d="M115.047 89.7752H132.639V70.7715H115.047V89.7752Z" fill="white"/>
<path fill-rule="evenodd" clip-rule="evenodd" d="M115.047 89.7752H132.639V70.7715H115.047V89.7752Z" stroke="black" stroke-width="0.934109" stroke-linejoin="round"/>
</g>
<mask id="mask14" mask-type="alpha" maskUnits="userSpaceOnUse" x="121" y="77" width="6" height="7">
<path d="M121.59 79.1413C121.409 80.6567 122.412 82.5541 123.556 83.0752C124.701 83.5964 125.953 82.9431 126.104 81.3911C126.255 79.8383 125.142 78.1118 124.031 77.5052C123.765 77.3609 123.498 77.292 123.242 77.292C122.427 77.292 121.729 77.9883 121.59 79.1413Z" fill="white"/>
</mask>
<g mask="url(#mask14)">
<path fill-rule="evenodd" clip-rule="evenodd" d="M120.333 83.8259H126.855V77.3047H120.333V83.8259Z" stroke="black" stroke-width="0.934109" stroke-linejoin="round"/>
</g>
<path fill-rule="evenodd" clip-rule="evenodd" d="M126.104 81.3906C125.953 82.9427 124.701 83.5959 123.556 83.0755C122.413 82.5536 121.41 80.6562 121.591 79.1408C121.772 77.6268 122.921 76.8995 124.031 77.5054C125.142 78.1113 126.255 79.8385 126.104 81.3906Z" stroke="black" stroke-width="0.934109" stroke-linejoin="round"/>
<path fill-rule="evenodd" clip-rule="evenodd" d="M68.9617 110.012C68.9617 110.012 72.9997 100.722 77.302 101.038C80.9366 101.306 83.2891 112.063 85.9596 113.226C88.6294 114.388 89.0932 106.109 93.0587 107.799C96.5354 109.281 99.5383 121.864 102.36 122.664C105.183 123.465 108.938 109.519 113.709 110.971C117.356 112.082 122.025 125.4 122.153 129.018C122.21 130.64 122.153 140.117 122.153 140.117L68.9617 110.012Z" fill="#9595EF"/>
<path fill-rule="evenodd" clip-rule="evenodd" d="M28.7671 94.6598L11.1669 72.3618C11.1669 72.3618 20.4154 66.9718 22.3456 65.7779" fill="white"/>
<path d="M28.7671 94.6598L11.1669 72.3618C11.1669 72.3618 20.4154 66.9718 22.3456 65.7779" stroke="black" stroke-width="1.86822" stroke-linejoin="round"/>
<path fill-rule="evenodd" clip-rule="evenodd" d="M61.2546 113.026C59.7803 112.329 59.0786 112.005 57.7231 111.389C56.7867 110.964 56.0519 109.547 56.0417 108.19C56.0315 106.834 56.7474 106.041 57.6815 106.455C59.0338 107.054 59.7346 107.37 61.2071 108.053C62.2239 108.524 63.103 110.06 63.1166 111.437C63.1301 112.815 62.2724 113.508 61.2546 113.026ZM49.9066 117.586C49.9066 117.586 49.9073 117.586 49.9073 117.586C51.694 118.391 52.5998 118.802 54.5098 119.689C54.5173 124.432 54.5233 126.825 54.5696 131.891C53.3133 131.275 52.7048 130.978 51.5074 130.398C50.6552 129.981 49.9762 128.492 49.9664 127.091C49.931 123.18 49.9218 121.303 49.9066 117.586ZM64.9326 99.6202C57.6276 96.1646 55.0674 95.2165 49.8048 93.2325L49.8048 93.2305C43.8839 91.2451 38.5719 84.3231 34.2483 78.0494C32.0278 74.5629 30.8433 72.7368 28.194 68.7607C28.0362 68.4972 27.8673 68.2444 27.6878 68.0021C27.0063 67.082 26.1783 66.3308 25.2643 65.8895C22.7949 64.6981 20.5612 66.2055 20.6659 69.3143C21.1973 84.4963 21.7281 99.677 22.2595 114.858C22.3557 117.631 24.391 121.024 26.5783 122.151C27.6446 122.699 28.5592 122.609 29.2154 122.053C34.7266 119.842 40.9983 117.659 46.9615 117.207C46.9691 120.523 46.9745 122.199 46.9974 125.68C47.0046 126.894 47.1826 128.141 47.4874 129.333C46.9713 128.802 46.6632 128.488 46.6632 128.488L47.9188 140.604L44.0679 151.828L47.8009 155.824L59.747 149.064C59.9241 148.998 60.0911 148.902 60.2482 148.78C60.2482 148.78 61.4888 148.435 61.5125 146.012C61.5521 145.661 61.5671 145.286 61.5565 144.89C61.4407 137.575 61.3712 130.267 61.3431 122.952C62.8216 123.678 63.5913 124.06 65.212 124.88C68.5734 126.579 71.7322 124.861 71.706 120.718C71.6813 116.709 71.6707 114.719 71.6334 110.642C71.5944 106.409 68.2888 101.208 64.9326 99.6202Z" fill="white"/>
<path fill-rule="evenodd" clip-rule="evenodd" d="M61.2546 113.026C59.7803 112.329 59.0786 112.005 57.7231 111.389C56.7867 110.964 56.0519 109.547 56.0417 108.19C56.0315 106.834 56.7474 106.041 57.6815 106.455C59.0338 107.054 59.7346 107.37 61.2071 108.053C62.2239 108.524 63.103 110.06 63.1166 111.437C63.1301 112.815 62.2724 113.508 61.2546 113.026ZM49.9066 117.586C49.9066 117.586 49.9073 117.586 49.9073 117.586C51.694 118.391 52.5998 118.802 54.5098 119.689C54.5173 124.432 54.5233 126.825 54.5696 131.891C53.3133 131.275 52.7048 130.978 51.5074 130.398C50.6552 129.981 49.9762 128.492 49.9664 127.091C49.931 123.18 49.9218 121.303 49.9066 117.586ZM64.9326 99.6202C57.6276 96.1646 55.0674 95.2165 49.8048 93.2325L49.8048 93.2305C43.8839 91.2451 38.5719 84.3231 34.2483 78.0494C32.0278 74.5629 30.8433 72.7368 28.194 68.7607C28.0362 68.4972 27.8673 68.2444 27.6878 68.0021C27.0063 67.082 26.1783 66.3308 25.2643 65.8895C22.7949 64.6981 20.5612 66.2055 20.6659 69.3143C21.1973 84.4963 21.7281 99.677 22.2595 114.858C22.3557 117.631 24.391 121.024 26.5783 122.151C27.6446 122.699 28.5592 122.609 29.2154 122.053C34.7266 119.842 40.9983 117.659 46.9615 117.207C46.9691 120.523 46.9745 122.199 46.9974 125.68C47.0046 126.894 47.1826 128.141 47.4874 129.333C46.9713 128.801 46.6632 128.488 46.6632 128.488L47.9188 140.604L44.0679 151.828L47.8009 155.824L59.747 149.064C59.9241 148.998 60.0911 148.902 60.2482 148.78C60.2482 148.78 61.4888 148.435 61.5125 146.012C61.5521 145.661 61.5671 145.286 61.5565 144.889C61.4407 137.575 61.3712 130.267 61.3431 122.952C62.8216 123.678 63.5913 124.06 65.212 124.88C68.5734 126.579 71.7322 124.861 71.706 120.718C71.6813 116.709 71.6707 114.719 71.6334 110.642C71.5944 106.409 68.2888 101.208 64.9326 99.6202Z" stroke="black" stroke-width="1.86822" stroke-linejoin="round"/>
<path d="M15.8562 100.159L15.8563 100.16C16.3197 100.344 16.5868 100.268 16.6891 100.206C16.7654 100.16 16.8998 100.034 16.886 99.6614L16.886 99.6613L16.4587 88.066C16.4587 88.066 16.4587 88.066 16.4587 88.0659C16.4442 87.6746 16.2465 87.1672 15.8625 86.6741C15.4832 86.187 14.9888 85.8012 14.5085 85.6101C14.5083 85.61 14.5082 85.61 14.5081 85.6099L15.8562 100.159ZM15.8562 100.159C13.3469 99.1616 12.1424 98.6515 9.80116 97.6143L15.8562 100.159Z" fill="white" stroke="black" stroke-width="1.86822"/>
<path fill-rule="evenodd" clip-rule="evenodd" d="M56.8188 132.16L70.5386 124.622C70.5386 124.622 72.9595 124.017 72.5623 112.496C72.4144 108.226 70.5205 104.224 68.2992 102.107C65.0134 98.9751 61.6596 97.8229 56.8638 95.9826C54.8243 95.2002 52.6545 94.576 49.805 93.23C43.193 90.107 38.2244 84.858 35.154 79.2046C25.5947 61.6071 22.3454 65.7776 22.3454 65.7776L11.1674 72.3616L56.8188 132.16Z" fill="white"/>
<path fill-rule="evenodd" clip-rule="evenodd" d="M56.8188 132.16L70.5386 124.622C70.5386 124.622 72.9595 124.017 72.5623 112.496C72.4144 108.226 70.5205 104.224 68.2992 102.107C65.0134 98.9751 61.6596 97.8229 56.8638 95.9826C54.8243 95.2002 52.6545 94.576 49.805 93.23C43.193 90.107 38.2244 84.858 35.154 79.2046C25.5947 61.6071 22.3454 65.7776 22.3454 65.7776L11.1674 72.3616L56.8188 132.16Z" stroke="black" stroke-width="1.86822" stroke-linejoin="round"/>
<path fill-rule="evenodd" clip-rule="evenodd" d="M38.5743 124.239L38.575 124.239C40.3623 125.044 41.2675 125.456 43.1782 126.342C43.1849 131.085 43.1917 133.479 43.2373 138.545C41.9817 137.928 41.3731 137.632 40.1751 137.052C39.3236 136.635 38.6446 135.146 38.6341 133.744C38.5986 129.833 38.5895 127.957 38.5743 124.239ZM49.9223 119.68C48.4487 118.983 47.7463 118.659 46.3908 118.043C45.4544 117.617 44.7196 116.2 44.7094 114.844C44.6992 113.487 45.4157 112.695 46.3498 113.108C47.7022 113.708 48.4023 114.023 49.8748 114.706C50.8922 115.178 51.7714 116.713 51.7849 118.09C51.7984 119.468 50.9407 120.161 49.9223 119.68ZM9.33424 75.968C9.86503 91.1494 10.3965 106.331 10.9272 121.511C11.0241 124.285 13.0587 127.679 15.2467 128.804C16.3123 129.353 17.2275 129.262 17.8831 128.706C23.3943 126.495 29.666 124.313 35.6292 123.861C35.6368 127.176 35.6422 128.853 35.6651 132.334C35.6909 136.522 37.6941 141.123 40.25 142.385C41.434 142.969 42.0356 143.268 43.2759 143.887C43.2916 145.51 43.3006 146.335 43.3234 148.017C43.3939 151.155 44.9126 154.589 46.8199 155.566C48.7299 156.545 50.3128 154.684 50.2242 151.543C50.1084 144.228 50.0389 136.92 50.0108 129.605C51.49 130.332 52.259 130.714 53.8797 131.533C57.2418 133.233 60.3999 131.515 60.3737 127.371C60.349 123.363 60.3384 121.372 60.3011 117.295C60.2621 113.062 56.9565 107.861 53.6003 106.273C46.2959 102.818 43.7351 101.87 38.4725 99.8855L38.4725 99.8842C31.8665 96.4747 27.3808 90.3821 22.9166 84.703C20.6955 81.216 19.5117 79.3905 16.8617 75.4137C16.7039 75.1509 16.535 74.8981 16.3562 74.6558C15.674 73.7357 14.8466 72.9839 13.932 72.5432C11.4625 71.3511 9.22886 72.8586 9.33424 75.968Z" fill="white"/>
<path fill-rule="evenodd" clip-rule="evenodd" d="M38.5743 124.239L38.575 124.239C40.3623 125.044 41.2675 125.456 43.1782 126.342C43.1849 131.085 43.1917 133.479 43.2373 138.545C41.9817 137.928 41.3731 137.632 40.1751 137.052C39.3236 136.635 38.6446 135.146 38.6341 133.744C38.5986 129.833 38.5895 127.957 38.5743 124.239ZM49.9223 119.68C48.4487 118.983 47.7463 118.659 46.3908 118.043C45.4544 117.617 44.7196 116.2 44.7094 114.844C44.6992 113.487 45.4157 112.695 46.3498 113.108C47.7022 113.708 48.4023 114.023 49.8748 114.706C50.8922 115.178 51.7714 116.713 51.7849 118.09C51.7984 119.468 50.9407 120.161 49.9223 119.68ZM9.33424 75.968C9.86503 91.1494 10.3965 106.331 10.9272 121.511C11.0241 124.285 13.0587 127.679 15.2467 128.804C16.3123 129.353 17.2275 129.262 17.8831 128.706C23.3943 126.495 29.666 124.313 35.6292 123.861C35.6368 127.176 35.6422 128.853 35.6651 132.334C35.6909 136.522 37.6941 141.123 40.25 142.385C41.434 142.969 42.0356 143.268 43.2759 143.887C43.2916 145.51 43.3006 146.335 43.3234 148.017C43.3939 151.155 44.9126 154.589 46.8199 155.566C48.7299 156.545 50.3128 154.684 50.2242 151.543C50.1084 144.228 50.0389 136.92 50.0108 129.605C51.49 130.332 52.259 130.714 53.8797 131.533C57.2418 133.233 60.3999 131.515 60.3737 127.371C60.349 123.363 60.3384 121.372 60.3011 117.295C60.2621 113.062 56.9565 107.861 53.6003 106.273C46.2959 102.818 43.7351 101.87 38.4725 99.8855L38.4725 99.8842C31.8665 96.4747 27.3808 90.3821 22.9166 84.703C20.6955 81.216 19.5117 79.3905 16.8617 75.4137C16.7039 75.1509 16.535 74.8981 16.3562 74.6558C15.674 73.7357 14.8466 72.9839 13.932 72.5432C11.4625 71.3511 9.22886 72.8586 9.33424 75.968Z" stroke="black" stroke-width="1.86822" stroke-linejoin="round"/>
<path fill-rule="evenodd" clip-rule="evenodd" d="M49.9221 119.68C48.4485 118.983 47.7461 118.659 46.3906 118.043C45.4541 117.618 44.7194 116.2 44.7092 114.844C44.699 113.488 45.4155 112.695 46.3496 113.109C47.7019 113.708 48.4021 114.024 49.8745 114.706C50.892 115.178 51.7711 116.714 51.7847 118.091C51.7982 119.469 50.9405 120.161 49.9221 119.68Z" fill="#9595EF"/>
</g>
<defs>
<clipPath id="clip0">
<rect width="140" height="140" fill="white"/>
</clipPath>
</defs>
</svg>
