<svg width="140" height="140" viewBox="0 0 140 140" fill="none" xmlns="http://www.w3.org/2000/svg">
<g clip-path="url(#clip0)">
<path fill-rule="evenodd" clip-rule="evenodd" d="M58.2373 50.3996L62 48L58.7627 52.6018L55 55L58.2373 50.3996Z" fill="white"/>
<path fill-rule="evenodd" clip-rule="evenodd" d="M58.2373 50.3996L62 48L58.7627 52.6018L55 55L58.2373 50.3996Z" stroke="black" stroke-width="2" stroke-linejoin="round"/>
<path d="M77 48.9048V41.3294C77 39.482 77.6383 37.6599 78.9095 36.3464L78.9377 36.3177C82.57 32.6047 89.2781 33.4424 93.9215 38.1889C96.794 41.1252 98 44.9392 98 48.1779V61" stroke="black" stroke-width="2" stroke-linecap="round" stroke-linejoin="round"/>
<path fill-rule="evenodd" clip-rule="evenodd" d="M92.8717 170.103L120.637 153.822L112.839 68.7964L63.6652 40.4248V64.3941" fill="white"/>
<path d="M94.0666 168.877L120.637 153.822L112.839 68.796L63.6652 39.9824V64.3937" stroke="black" stroke-width="2" stroke-linecap="round" stroke-linejoin="round"/>
<path fill-rule="evenodd" clip-rule="evenodd" d="M43 52.9823L63 40V65L43 52.9823Z" fill="white"/>
<path fill-rule="evenodd" clip-rule="evenodd" d="M44 52.9823L64 40V65L44 52.9823Z" stroke="black" stroke-width="2" stroke-linecap="round" stroke-linejoin="round"/>
<path fill-rule="evenodd" clip-rule="evenodd" d="M94 169V79.8413L43.8065 52L37 136.581L94 169Z" fill="white"/>
<path fill-rule="evenodd" clip-rule="evenodd" d="M94 169V79.8413L43.8065 52L37 136.581L94 169Z" stroke="black" stroke-width="2" stroke-linecap="round" stroke-linejoin="round"/>
<path fill-rule="evenodd" clip-rule="evenodd" d="M93.1603 79.7704L112.629 68.4824L93.1603 79.7704Z" fill="white"/>
<path d="M93.1603 79.7704L112.629 68.4824" stroke="black" stroke-width="2" stroke-linecap="round" stroke-linejoin="round"/>
<path d="M55 74.9068V59.5407C55 57.3879 55.76 55.2647 57.2729 53.7341C57.2842 53.7228 57.2955 53.7115 57.3068 53.7002C61.6303 49.3746 69.6165 50.3501 75.1444 55.8806C78.5643 59.3022 80 63.7453 80 67.5186V89" stroke="black" stroke-width="2" stroke-linecap="round" stroke-linejoin="round"/>
<path fill-rule="evenodd" clip-rule="evenodd" d="M84.4498 113.169C87.6206 123.67 76.3946 127.755 68.4757 125.315C58.4031 122.211 49.6256 111.864 46.5716 101.763C43.7846 92.547 51.6465 85.8813 60.2245 88.622C70.4508 91.8889 81.2478 102.563 84.4498 113.169Z" fill="#9595EF"/>
<path fill-rule="evenodd" clip-rule="evenodd" d="M51.6351 112.597C50.0596 109.804 47.5019 106.714 43.9989 103.318C42.7467 102.11 42.1222 101.505 40.8766 100.299C39.7861 99.2235 38.9114 98.1458 38.25 97.069C37.587 95.9897 37.2595 95.0788 37.2645 94.3296C37.2694 93.5051 37.6944 93.021 38.5388 92.8773C39.3824 92.7336 40.4713 93.0697 41.8071 93.8831C43.9874 95.2114 46.2087 97.4796 48.4833 100.676C50.0654 98.3836 50.8556 97.2341 52.4417 94.9163C49.7979 91.6106 46.5763 88.5958 42.7926 85.8717C42.8033 83.1537 42.8091 81.7955 42.8197 79.0791C40.8914 77.898 39.9305 77.3044 38.0095 76.125C37.9931 78.8422 37.9841 80.2012 37.9677 82.9193C36.1526 81.9973 34.5812 81.5389 33.2543 81.5457C32.5511 81.55 31.9127 81.6518 31.3309 81.8382V81.834L31.2915 81.8545C30.7918 82.0196 30.3307 82.2445 29.922 82.5447L25.3203 85.5476L27.9551 85.3295C27.9461 85.3551 27.9329 85.3774 27.9239 85.4039C27.4841 86.6509 27.2634 88.0852 27.2568 89.6991C27.2502 91.2386 27.434 92.7097 27.8066 94.1132C28.1791 95.5167 28.7576 96.9202 29.5437 98.3254C30.3298 99.7315 31.3424 101.162 32.5864 102.621C33.8296 104.08 35.3411 105.647 37.1283 107.325C38.3263 108.454 38.9286 109.02 40.1356 110.156C42.43 112.33 43.587 114.248 43.5812 115.895C43.5771 117.094 43.0815 117.769 42.1001 117.928C41.1179 118.087 39.9682 117.771 38.6603 116.984C35.5134 115.092 32.3328 111.622 29.1351 106.61L24.5333 109.613L25.0076 112.709C25.6354 113.754 26.4403 114.872 27.4299 116.076C28.4187 117.28 29.492 118.46 30.6548 119.62C31.8167 120.778 33.0074 121.863 34.2275 122.873C35.4461 123.88 36.6072 124.715 37.7043 125.372C37.6879 128.045 37.6797 129.38 37.6633 132.052C37.7872 132.127 37.8979 132.193 38.0153 132.262L37.9923 138L42.5941 134.996L42.622 128.035C44.7013 128.608 46.477 128.926 47.9352 128.977C48.1181 128.984 48.2839 128.972 48.4579 128.968L46.8676 131.232L51.4694 128.228C52.3679 127.679 53.0145 126.826 53.4084 125.671C53.8031 124.517 54 123.038 54 121.233C54 118.265 53.209 115.387 51.6351 112.597Z" fill="white"/>
<path fill-rule="evenodd" clip-rule="evenodd" d="M51.6351 111.472C50.0596 108.679 47.5019 105.589 43.9989 102.193C42.7467 100.985 42.1222 100.38 40.8766 99.1735C39.7861 98.0985 38.9114 97.0208 38.25 95.944C37.587 94.8647 37.2595 93.9538 37.2645 93.2046C37.2694 92.3801 37.6944 91.896 38.5388 91.7523C39.3824 91.6086 40.4713 91.9447 41.8071 92.7581C43.9874 94.0864 46.2087 96.3546 48.4833 99.5507C50.0654 97.2586 50.8556 96.1091 52.4417 93.7913C49.7979 90.4856 46.5763 87.4708 42.7926 84.7467C42.8033 82.0287 42.8091 80.6705 42.8197 77.9541C40.8914 76.773 39.9305 76.1794 38.0095 75C37.9931 77.7172 37.9841 79.0762 37.9677 81.7943C36.1526 80.8723 34.5812 80.4139 33.2543 80.4207C32.5511 80.425 31.9127 80.5268 31.3309 80.7132V80.709L31.2915 80.7295C30.7918 80.8946 30.3307 81.1195 29.922 81.4197L25.3203 84.4226L27.9551 84.2045C27.9461 84.2301 27.9329 84.2524 27.9239 84.2789C27.4841 85.5259 27.2634 86.9602 27.2568 88.5741C27.2502 90.1136 27.434 91.5847 27.8066 92.9882C28.1791 94.3917 28.7576 95.7952 29.5437 97.2004C30.3298 98.6065 31.3424 100.037 32.5864 101.496C33.8296 102.955 35.3411 104.522 37.1283 106.2C38.3263 107.329 38.9286 107.895 40.1356 109.031C42.43 111.205 43.587 113.123 43.5812 114.77C43.5771 115.969 43.0815 116.644 42.1001 116.803C41.1179 116.962 39.9682 116.646 38.6603 115.859C35.5134 113.967 32.3328 110.497 29.1351 105.485L24.5333 108.488L25.0076 111.584C25.6354 112.629 26.4403 113.747 27.4299 114.951C28.4187 116.155 29.492 117.335 30.6548 118.495C31.8167 119.653 33.0074 120.738 34.2275 121.748C35.4461 122.755 36.6072 123.59 37.7043 124.247C37.6879 126.92 37.6797 128.255 37.6633 130.927C37.7872 131.002 37.8979 131.068 38.0153 131.137L37.9923 136.875L42.5941 133.871L42.622 126.91C44.7013 127.483 46.477 127.801 47.9352 127.852C48.1181 127.859 48.2839 127.847 48.4579 127.843L46.8676 130.107L51.4694 127.103C52.3679 126.554 53.0145 125.701 53.4084 124.546C53.8031 123.392 54 121.913 54 120.108C54 117.14 53.209 114.262 51.6351 111.472Z" stroke="black" stroke-width="2" stroke-linejoin="round"/>
<path fill-rule="evenodd" clip-rule="evenodd" d="M38.1035 81.3096C38.0927 84.0096 38.0868 85.3601 38.076 88.0593C41.9224 90.7661 45.1958 93.7628 47.8837 97.0484C46.2708 99.3515 45.4685 100.493 43.8597 102.771C41.5487 99.5946 39.2903 97.3399 37.0752 96.0217C35.7166 95.2118 34.6107 94.8795 33.7526 95.0214C32.8944 95.1642 32.4624 95.6452 32.4574 96.4636C32.4524 97.2081 32.786 98.1141 33.459 99.1858C34.1312 100.257 35.0202 101.328 36.1286 102.397C37.3946 103.595 38.0293 104.196 39.302 105.397C42.8623 108.771 45.4618 111.841 47.0639 114.615C48.6635 117.389 49.4667 120.249 49.4667 123.198C49.4667 124.99 49.2665 126.462 48.8662 127.609C48.465 128.754 47.8079 129.603 46.8955 130.15C45.9822 130.696 44.7846 130.944 43.3026 130.894C41.8206 130.843 40.0159 130.526 37.9025 129.957L37.8742 136.875C35.8576 135.695 34.8518 135.108 32.8627 133.949C32.8794 131.293 32.8877 129.966 32.9052 127.31C31.7893 126.658 30.6101 125.828 29.3708 124.827C28.1306 123.824 26.9205 122.747 25.7395 121.595C24.5578 120.443 23.4669 119.269 22.4619 118.074C21.4562 116.878 20.6388 115.765 20 114.728C21.6413 112.279 22.487 111.069 24.195 108.667C27.4451 113.649 30.6776 117.095 33.8768 118.976C35.2054 119.757 36.3738 120.071 37.3729 119.913C38.3695 119.756 38.8733 119.085 38.8783 117.893C38.8841 116.257 37.7074 114.35 35.3755 112.191C34.1487 111.063 33.5366 110.5 32.3189 109.377C30.5025 107.71 28.9671 106.152 27.7028 104.702C26.4384 103.254 25.4093 101.832 24.6103 100.435C23.8114 99.0379 23.2234 97.6441 22.8456 96.2495C22.4661 94.8548 22.2801 93.3939 22.286 91.8633C22.2926 90.2596 22.5178 88.8344 22.964 87.5952C23.411 86.3561 24.0874 85.4051 24.9948 84.7541C25.9022 84.1023 27.0322 83.7691 28.3816 83.7623C29.7302 83.7555 31.3273 84.2102 33.1721 85.1264C33.1888 82.4255 33.198 81.0759 33.2155 78.375C35.167 79.5478 36.1436 80.1368 38.1035 81.3096Z" fill="white"/>
<path fill-rule="evenodd" clip-rule="evenodd" d="M38.1035 81.3096C38.0927 84.0096 38.0868 85.3601 38.076 88.0593C41.9224 90.7661 45.1958 93.7628 47.8837 97.0484C46.2708 99.3515 45.4685 100.493 43.8597 102.771C41.5487 99.5946 39.2903 97.3399 37.0752 96.0217C35.7166 95.2118 34.6107 94.8795 33.7526 95.0214C32.8944 95.1642 32.4624 95.6452 32.4574 96.4636C32.4524 97.2081 32.786 98.1141 33.459 99.1858C34.1312 100.257 35.0202 101.328 36.1286 102.397C37.3946 103.595 38.0293 104.196 39.302 105.397C42.8623 108.771 45.4618 111.841 47.0639 114.615C48.6635 117.389 49.4667 120.249 49.4667 123.198C49.4667 124.99 49.2665 126.462 48.8662 127.609C48.465 128.754 47.8079 129.603 46.8955 130.15C45.9822 130.696 44.7846 130.944 43.3026 130.894C41.8206 130.843 40.0158 130.526 37.9025 129.957L37.8742 136.875C35.8576 135.695 34.8518 135.108 32.8627 133.949C32.8794 131.293 32.8877 129.966 32.9052 127.31C31.7893 126.658 30.6101 125.828 29.3708 124.827C28.1306 123.824 26.9205 122.747 25.7395 121.595C24.5578 120.443 23.4669 119.269 22.4619 118.074C21.4562 116.878 20.6388 115.765 20 114.728C21.6413 112.279 22.487 111.069 24.195 108.667C27.4451 113.649 30.6776 117.095 33.8768 118.976C35.2054 119.757 36.3738 120.071 37.3729 119.913C38.3695 119.756 38.8733 119.085 38.8783 117.893C38.8841 116.257 37.7074 114.35 35.3755 112.191C34.1487 111.063 33.5366 110.5 32.3189 109.377C30.5025 107.71 28.9671 106.152 27.7028 104.702C26.4384 103.254 25.4093 101.832 24.6103 100.435C23.8114 99.0379 23.2234 97.6441 22.8456 96.2495C22.4661 94.8548 22.2801 93.3939 22.286 91.8633C22.2926 90.2596 22.5178 88.8344 22.964 87.5952C23.411 86.3561 24.0874 85.4051 24.9948 84.7541C25.9022 84.1023 27.0322 83.7691 28.3816 83.7623C29.7302 83.7555 31.3273 84.2102 33.1721 85.1264C33.1888 82.4255 33.198 81.0759 33.2155 78.375C35.167 79.5478 36.1436 80.1368 38.1035 81.3096Z" stroke="black" stroke-width="2" stroke-linejoin="round"/>
<path fill-rule="evenodd" clip-rule="evenodd" d="M38.0329 75L33.6 77.8359L38.2329 80.625L42.6666 77.7891L38.0329 75Z" fill="white"/>
<path fill-rule="evenodd" clip-rule="evenodd" d="M38.0329 75L33.6 77.8359L38.2329 80.625L42.6666 77.7891L38.0329 75Z" stroke="black" stroke-width="2" stroke-linejoin="round"/>
<path fill-rule="evenodd" clip-rule="evenodd" d="M48.6023 96.8246L52.8667 94.125L49.1985 99.302L44.9333 102L48.6023 96.8246Z" fill="white" stroke="black" stroke-width="2" stroke-linejoin="round"/>
</g>
<defs>
<clipPath id="clip0">
<rect width="140" height="140" fill="white"/>
</clipPath>
</defs>
</svg>
