<svg width="140" height="140" viewBox="0 0 140 140" fill="none" xmlns="http://www.w3.org/2000/svg">
<g clip-path="url(#clip0)">
<path fill-rule="evenodd" clip-rule="evenodd" d="M125.388 62.1386C126.411 61.9926 127.237 62.7756 127.235 63.8976C127.232 65.0176 126.402 66.0426 125.381 66.1896C124.364 66.3336 123.538 65.5456 123.541 64.4236C123.543 63.3036 124.372 62.2846 125.388 62.1386Z" fill="white"/>
<path fill-rule="evenodd" clip-rule="evenodd" d="M125.388 62.1386C126.411 61.9926 127.237 62.7756 127.235 63.8976C127.232 65.0176 126.402 66.0426 125.381 66.1896C124.364 66.3336 123.538 65.5456 123.541 64.4236C123.543 63.3036 124.372 62.2846 125.388 62.1386Z" stroke="black" stroke-linejoin="round"/>
<path fill-rule="evenodd" clip-rule="evenodd" d="M125.227 61.3004L129.936 63.9044C129.553 63.6914 129.1 63.6024 128.611 63.6714L123.9 61.0694C124.388 60.9994 124.843 61.0884 125.227 61.3004Z" fill="white"/>
<mask id="mask0" mask-type="alpha" maskUnits="userSpaceOnUse" x="124" y="61" width="7" height="3">
<path d="M124.796 61.0689L129.581 63.6719C130.078 63.6029 130.538 63.6919 130.927 63.9039L126.144 61.3009C125.841 61.1369 125.495 61.0459 125.124 61.0459C125.017 61.0459 124.907 61.0539 124.796 61.0689Z" fill="white"/>
</mask>
<g mask="url(#mask0)">
<path fill-rule="evenodd" clip-rule="evenodd" d="M129.581 63.6719L124.797 61.0689C125.292 60.9999 125.755 61.0889 126.144 61.3009L130.928 63.9039C130.538 63.6919 130.078 63.6029 129.581 63.6719Z" fill="white"/>
</g>
<mask id="mask1" mask-type="alpha" maskUnits="userSpaceOnUse" x="124" y="61" width="7" height="3">
<path d="M124.796 61.0689L129.581 63.6719C130.078 63.6029 130.538 63.6919 130.927 63.9039L126.144 61.3009C125.841 61.1369 125.495 61.0459 125.124 61.0459C125.017 61.0459 124.907 61.0539 124.796 61.0689Z" fill="white"/>
</mask>
<g mask="url(#mask1)">
<path fill-rule="evenodd" clip-rule="evenodd" d="M129.581 63.6719L124.797 61.0689C125.292 60.9999 125.755 61.0889 126.144 61.3009L130.928 63.9039C130.538 63.6919 130.078 63.6029 129.581 63.6719Z" stroke="black" stroke-linejoin="round"/>
</g>
<path fill-rule="evenodd" clip-rule="evenodd" d="M126.056 61.6747L130.906 64.3319C130.511 64.1145 130.045 64.0237 129.541 64.0941L124.689 61.439C125.191 61.3676 125.661 61.4584 126.056 61.6747Z" stroke="black" stroke-linejoin="round"/>
<path fill-rule="evenodd" clip-rule="evenodd" d="M129.541 64.0939C130.954 63.8949 132.095 64.9766 132.093 66.5113V66.8215C132.091 68.3572 130.945 69.7623 129.53 69.9613L125.546 70.5255L125.558 64.6582L129.541 64.0939Z" fill="#9595EF"/>
<path fill-rule="evenodd" clip-rule="evenodd" d="M129.541 64.0939C130.954 63.8949 132.095 64.9766 132.093 66.5113V66.8215C132.091 68.3572 130.945 69.7623 129.53 69.9613L125.546 70.5255L125.558 64.6582L129.541 64.0939Z" stroke="black" stroke-linejoin="round"/>
<path fill-rule="evenodd" clip-rule="evenodd" d="M95.2886 43.9058L99.8582 47.0089C99.4638 46.7915 99.9566 46.6619 99.4547 46.7344L93.9209 43.6691C94.4248 43.5987 94.8922 43.6885 95.2886 43.9058Z" fill="white"/>
<path fill-rule="evenodd" clip-rule="evenodd" d="M95.2886 43.9058L99.8582 47.0089C99.4638 46.7915 99.9566 46.6619 99.4547 46.7344L93.9209 43.6691C94.4248 43.5987 94.8922 43.6885 95.2886 43.9058Z" stroke="black" stroke-linejoin="round"/>
<path fill-rule="evenodd" clip-rule="evenodd" d="M95.2887 43.9048C94.8923 43.6885 94.4249 43.5987 93.921 43.6691L89.9395 44.2313L94.7909 46.8885L98.7735 46.3252C99.2753 46.2528 99.0604 46.2619 99.4548 46.4772L95.2887 43.9048Z" fill="#9595EF"/>
<path fill-rule="evenodd" clip-rule="evenodd" d="M95.2887 43.9048C94.8923 43.6885 94.4249 43.5987 93.921 43.6691L89.9395 44.2313L94.7909 46.8885L98.7735 46.3252C99.2753 46.2528 99.0604 46.2619 99.4548 46.4772L95.2887 43.9048Z" stroke="black" stroke-linejoin="round"/>
<path fill-rule="evenodd" clip-rule="evenodd" d="M98.4719 46.3672C100.513 46.3672 101.25 48.0968 101.325 48.7417L101.324 49.0509C101.321 50.5866 100.175 51.9927 98.7608 52.1907L94.7793 52.7549L94.7905 46.8886L98.4719 46.3672Z" fill="#9595EF"/>
<path fill-rule="evenodd" clip-rule="evenodd" d="M98.4719 46.3672C100.513 46.3672 101.25 48.0968 101.325 48.7417L101.324 49.0509C101.321 50.5866 100.175 51.9927 98.7608 52.1907L94.7793 52.7549L94.7905 46.8886L98.4719 46.3672Z" stroke="black" stroke-linejoin="round"/>
<path fill-rule="evenodd" clip-rule="evenodd" d="M75.4324 70.7908L73.2891 69.5367L84.3354 50.2275L86.4798 51.4796L75.4324 70.7908Z" fill="white"/>
<path fill-rule="evenodd" clip-rule="evenodd" d="M75.4324 70.7908L73.2891 69.5367L84.3354 50.2275L86.4798 51.4796L75.4324 70.7908Z" stroke="black" stroke-linejoin="round"/>
<path fill-rule="evenodd" clip-rule="evenodd" d="M93.4677 47.4209L86.48 51.4811L75.4326 70.7913L77.2465 69.7352C77.4574 69.6138 77.65 69.5791 77.8122 69.6158L77.8244 69.6036L77.8984 69.6484C77.9329 69.6627 77.9643 69.6811 77.9937 69.7056L78.454 69.9821L87.503 54.2148L92.6444 51.2199L93.4677 47.4209Z" fill="white"/>
<path fill-rule="evenodd" clip-rule="evenodd" d="M93.4677 47.4209L86.48 51.4811L75.4326 70.7913L77.2465 69.7352C77.4574 69.6138 77.65 69.5791 77.8122 69.6158L77.8244 69.6036L77.8984 69.6484C77.9329 69.6627 77.9643 69.6811 77.9937 69.7056L78.454 69.9821L87.503 54.2148L92.6444 51.2199L93.4677 47.4209Z" stroke="black" stroke-linejoin="round"/>
<path fill-rule="evenodd" clip-rule="evenodd" d="M94.7912 46.8886L89.9397 44.2314L89.9357 46.9835L89.1783 47.4376L89.1824 47.4457L84.335 50.2274L86.4803 51.4804L89.4663 50.2274L91.71 51.7365L92.2879 51.3896L94.78 52.7549L94.7912 46.8886Z" fill="white"/>
<path fill-rule="evenodd" clip-rule="evenodd" d="M94.7912 46.8886L89.9397 44.2314L89.9357 46.9835L89.1783 47.4376L89.1824 47.4457L84.335 50.2274L86.4803 51.4804L89.4663 50.2274L91.71 51.7365L92.2879 51.3896L94.78 52.7549L94.7912 46.8886Z" stroke="black" stroke-linejoin="round"/>
<path fill-rule="evenodd" clip-rule="evenodd" d="M109.725 92.1877L71.1546 69.6285C70.8393 69.4449 70.6436 69.0541 70.6416 68.5C70.6386 67.3775 71.4233 66.0163 72.3885 65.4551L110.959 88.0143C109.994 88.5755 109.209 89.9367 109.211 91.0571C109.215 91.6132 109.41 92.0041 109.725 92.1877Z" fill="white"/>
<mask id="mask2" mask-type="alpha" maskUnits="userSpaceOnUse" x="70" y="65" width="42" height="28">
<path d="M70.6377 68.1004C70.6387 68.6635 70.8369 69.0607 71.1535 69.2473L110.005 92.1742C109.688 91.9885 109.491 91.5903 109.488 91.0251C109.486 89.8865 110.276 88.503 111.248 87.9327L72.3964 65.0059C71.4241 65.5762 70.6346 66.9596 70.6377 68.1004Z" fill="white"/>
</mask>
<g mask="url(#mask2)">
<path fill-rule="evenodd" clip-rule="evenodd" d="M110.005 92.1746L71.1537 69.2478C70.836 69.0611 70.6389 68.6639 70.6369 68.1008C70.6338 66.96 70.2498 65.8878 71.2221 65.3174L110.073 88.2452C109.103 88.8146 109.485 89.8869 109.487 91.0255C109.491 91.5907 109.687 91.9879 110.005 92.1746Z" fill="white"/>
</g>
<mask id="mask3" mask-type="alpha" maskUnits="userSpaceOnUse" x="70" y="65" width="42" height="28">
<path d="M70.6377 68.1004C70.6387 68.6635 70.8369 69.0607 71.1535 69.2473L110.005 92.1742C109.688 91.9885 109.491 91.5903 109.488 91.0251C109.486 89.8865 110.276 88.503 111.248 87.9327L72.3964 65.0059C71.4241 65.5762 70.6346 66.9596 70.6377 68.1004Z" fill="white"/>
</mask>
<g mask="url(#mask3)">
<path fill-rule="evenodd" clip-rule="evenodd" d="M110.005 92.1746L71.1537 69.2478C70.836 69.0611 70.6389 68.6639 70.6369 68.1008C70.6338 66.96 70.2498 65.8878 71.2221 65.3174L110.073 88.2452C109.103 88.8146 109.485 89.8869 109.487 91.0255C109.491 91.5907 109.687 91.9879 110.005 92.1746Z" stroke="black" stroke-linejoin="round"/>
</g>
<path fill-rule="evenodd" clip-rule="evenodd" d="M108.979 91.7497L70.3025 69.1811C69.9864 68.9973 69.7901 68.6063 69.7881 68.052C69.7851 66.9291 70.572 65.5673 71.5398 65.0059L110.216 87.5744C109.248 88.1359 108.461 89.4977 108.463 90.6186C108.467 91.1749 108.662 91.5659 108.979 91.7497Z" stroke="black" stroke-linejoin="round"/>
<path fill-rule="evenodd" clip-rule="evenodd" d="M110.216 87.5747C111.186 87.0122 111.975 87.4603 111.979 88.5812C111.983 89.7 111.196 91.0669 110.226 91.6284C109.26 92.1899 108.468 91.7376 108.463 90.6178C108.461 89.4979 109.248 88.1361 110.216 87.5747Z" fill="white"/>
<path fill-rule="evenodd" clip-rule="evenodd" d="M110.216 87.5747C111.186 87.0122 111.975 87.4603 111.979 88.5812C111.983 89.7 111.196 91.0669 110.226 91.6284C109.26 92.1899 108.468 91.7376 108.463 90.6178C108.461 89.4979 109.248 88.1361 110.216 87.5747Z" stroke="black" stroke-linejoin="round"/>
<path fill-rule="evenodd" clip-rule="evenodd" d="M53.1105 113.512L51.4971 112.572C53.2 111.584 54.5786 109.189 54.5715 107.223L56.1839 108.164C56.188 110.129 54.8124 112.524 53.1105 113.512Z" fill="white"/>
<mask id="mask4" mask-type="alpha" maskUnits="userSpaceOnUse" x="51" y="107" width="6" height="7">
<path d="M51.4971 112.601L53.0841 113.521C54.7581 112.554 56.1121 110.208 56.1081 108.283L54.5221 107.361C54.5291 109.286 53.1721 111.633 51.4971 112.601Z" fill="white"/>
</mask>
<g mask="url(#mask4)">
<path fill-rule="evenodd" clip-rule="evenodd" d="M53.085 113.522L51.498 112.601C53.173 111.633 54.529 109.287 54.522 107.361L56.1081 108.283C56.112 110.208 54.759 112.554 53.085 113.522Z" fill="white"/>
</g>
<mask id="mask5" mask-type="alpha" maskUnits="userSpaceOnUse" x="51" y="107" width="6" height="7">
<path d="M51.4971 112.601L53.0841 113.521C54.7581 112.554 56.1121 110.208 56.1081 108.283L54.5221 107.361C54.5291 109.286 53.1721 111.633 51.4971 112.601Z" fill="white"/>
</mask>
<g mask="url(#mask5)">
<path fill-rule="evenodd" clip-rule="evenodd" d="M53.085 113.522L51.498 112.601C53.173 111.633 54.529 109.287 54.522 107.361L56.1081 108.283C56.112 110.208 54.759 112.554 53.085 113.522Z" stroke="black" stroke-linejoin="round"/>
</g>
<path fill-rule="evenodd" clip-rule="evenodd" d="M53.7742 114.175L52.043 113.161C53.8702 112.097 55.3495 109.516 55.3419 107.397L57.0721 108.412C57.0764 110.529 55.6004 113.11 53.7742 114.175Z" stroke="black" stroke-linejoin="round"/>
<path fill-rule="evenodd" clip-rule="evenodd" d="M51.6148 115.429L49.8857 114.417L52.0436 113.161L53.7737 114.174L51.6148 115.429Z" fill="white"/>
<path fill-rule="evenodd" clip-rule="evenodd" d="M51.6148 115.429L49.8857 114.417L52.0436 113.161L53.7737 114.174L51.6148 115.429Z" stroke="black" stroke-linejoin="round"/>
<path fill-rule="evenodd" clip-rule="evenodd" d="M49.2651 115.662C48.6913 115.323 48.1142 114.987 47.5371 114.648C48.1382 114.999 48.9695 114.95 49.8858 114.417L51.6149 115.429C50.6975 115.964 49.8662 116.013 49.2651 115.662Z" fill="white"/>
<mask id="mask6" mask-type="alpha" maskUnits="userSpaceOnUse" x="47" y="113" width="5" height="3">
<path d="M47.5312 114.27C48.0401 114.681 48.5469 115.089 49.0519 115.5C49.5809 115.926 50.3133 115.866 51.1207 115.218L49.5991 113.99C48.7927 114.637 48.0602 114.697 47.5312 114.27Z" fill="white"/>
</mask>
<g mask="url(#mask6)">
<path fill-rule="evenodd" clip-rule="evenodd" d="M49.0529 115.498L47.5322 114.27C48.0612 114.696 48.7927 114.637 49.5991 113.99L51.1207 115.217C50.3133 115.865 49.5818 115.925 49.0529 115.498Z" fill="white"/>
</g>
<mask id="mask7" mask-type="alpha" maskUnits="userSpaceOnUse" x="47" y="113" width="5" height="3">
<path d="M47.5312 114.27C48.0401 114.681 48.5469 115.089 49.0519 115.5C49.5809 115.926 50.3133 115.866 51.1207 115.218L49.5991 113.99C48.7927 114.637 48.0602 114.697 47.5312 114.27Z" fill="white"/>
</mask>
<g mask="url(#mask7)">
<path fill-rule="evenodd" clip-rule="evenodd" d="M49.0529 115.498L47.5322 114.27C48.0612 114.696 48.7927 114.637 49.5991 113.99L51.1207 115.217C50.3133 115.865 49.5818 115.925 49.0529 115.498Z" stroke="black" stroke-linejoin="round"/>
</g>
<path fill-rule="evenodd" clip-rule="evenodd" d="M49.4191 115.607C48.8772 115.294 48.3321 114.982 47.7871 114.668C48.3548 114.993 49.1399 114.948 50.0054 114.454L51.6384 115.391C50.7719 115.887 49.9868 115.932 49.4191 115.607Z" stroke="black" stroke-linejoin="round"/>
<path fill-rule="evenodd" clip-rule="evenodd" d="M61.9856 109.484L60.3516 108.545L65.7792 76.5312L67.4112 77.4706L61.9856 109.484Z" fill="white"/>
<path fill-rule="evenodd" clip-rule="evenodd" d="M61.9856 109.484L60.3516 108.545L65.7792 76.5312L67.4112 77.4706L61.9856 109.484Z" stroke="black" stroke-linejoin="round"/>
<path fill-rule="evenodd" clip-rule="evenodd" d="M40.2083 121.919L38.5742 120.98C40.301 119.994 41.6971 117.604 41.6919 115.643L43.3229 116.581C43.3301 118.543 41.934 120.934 40.2083 121.919Z" fill="white"/>
<mask id="mask8" mask-type="alpha" maskUnits="userSpaceOnUse" x="38" y="115" width="6" height="6">
<path d="M38.5654 120.07L40.1074 120.96C41.7358 120.026 43.0532 117.764 43.0474 115.907L41.5083 115.019C41.5122 116.875 40.1949 119.138 38.5654 120.07Z" fill="white"/>
</mask>
<g mask="url(#mask8)">
<path fill-rule="evenodd" clip-rule="evenodd" d="M40.1074 120.959L38.5654 120.07C40.1949 119.137 41.5122 116.875 41.5074 115.019L43.0464 115.907C43.0532 117.764 41.7358 120.026 40.1074 120.959Z" fill="white"/>
</g>
<mask id="mask9" mask-type="alpha" maskUnits="userSpaceOnUse" x="38" y="115" width="6" height="6">
<path d="M38.5654 120.07L40.1074 120.96C41.7358 120.026 43.0532 117.764 43.0474 115.907L41.5083 115.019C41.5122 116.875 40.1949 119.138 38.5654 120.07Z" fill="white"/>
</mask>
<g mask="url(#mask9)">
<path fill-rule="evenodd" clip-rule="evenodd" d="M40.1074 120.959L38.5654 120.07C40.1949 119.137 41.5122 116.875 41.5074 115.019L43.0464 115.907C43.0532 117.764 41.7358 120.026 40.1074 120.959Z" stroke="black" stroke-linejoin="round"/>
</g>
<path fill-rule="evenodd" clip-rule="evenodd" d="M40.0118 121.876L38.4258 120.863C40.1018 119.798 41.4568 117.217 41.4518 115.1L43.0348 116.113C43.0418 118.231 41.6868 120.812 40.0118 121.876Z" stroke="black" stroke-linejoin="round"/>
<path fill-rule="evenodd" clip-rule="evenodd" d="M38.0332 123.133L36.4502 122.118L38.4262 120.863L40.0122 121.875L38.0332 123.133Z" fill="white"/>
<path fill-rule="evenodd" clip-rule="evenodd" d="M38.0332 123.133L36.4502 122.118L38.4262 120.863L40.0122 121.875L38.0332 123.133Z" stroke="black" stroke-linejoin="round"/>
<path fill-rule="evenodd" clip-rule="evenodd" d="M35.8809 123.361L34.2969 122.348C34.8469 122.699 35.6099 122.652 36.4499 122.118L38.0329 123.132C37.1939 123.663 36.4319 123.713 35.8809 123.361Z" fill="white"/>
<mask id="mask10" mask-type="alpha" maskUnits="userSpaceOnUse" x="34" y="122" width="5" height="2">
<path d="M34.2969 122.498L35.8809 123.419C36.4319 123.739 37.1939 123.693 38.0329 123.211L36.4499 122.289C35.6089 122.774 34.8469 122.818 34.2969 122.498Z" fill="white"/>
</mask>
<g mask="url(#mask10)">
<path fill-rule="evenodd" clip-rule="evenodd" d="M35.8799 123.419L34.2959 122.498C34.8459 122.817 35.6089 122.774 36.4489 122.289L38.0319 123.211C37.1929 123.693 36.4309 123.739 35.8799 123.419Z" fill="white"/>
</g>
<mask id="mask11" mask-type="alpha" maskUnits="userSpaceOnUse" x="34" y="122" width="5" height="2">
<path d="M34.2969 122.498L35.8809 123.419C36.4319 123.739 37.1939 123.693 38.0329 123.211L36.4499 122.289C35.6089 122.774 34.8469 122.818 34.2969 122.498Z" fill="white"/>
</mask>
<g mask="url(#mask11)">
<path fill-rule="evenodd" clip-rule="evenodd" d="M35.8799 123.419L34.2959 122.498C34.8459 122.817 35.6089 122.774 36.4489 122.289L38.0319 123.211C37.1929 123.693 36.4309 123.739 35.8799 123.419Z" stroke="black" stroke-linejoin="round"/>
</g>
<path fill-rule="evenodd" clip-rule="evenodd" d="M35.8809 122.405L34.2969 121.46C34.8469 121.788 35.6099 121.744 36.4499 121.246L38.0329 122.192C37.1939 122.686 36.4319 122.733 35.8809 122.405Z" stroke="black" stroke-linejoin="round"/>
<path fill-rule="evenodd" clip-rule="evenodd" d="M56.1079 107.905L54.5219 106.96L54.4619 85.0459L56.0469 85.9905L56.1079 107.905Z" fill="white"/>
<path fill-rule="evenodd" clip-rule="evenodd" d="M56.1079 107.905L54.5219 106.96L54.4619 85.0459L56.0469 85.9905L56.1079 107.905Z" stroke="black" stroke-linejoin="round"/>
<path fill-rule="evenodd" clip-rule="evenodd" d="M53.5791 83.0537C54.1071 83.3706 54.6371 83.6824 55.1651 83.9994C55.7071 84.3224 56.0451 85.0106 56.0481 85.9901L54.4631 85.0455C54.4591 84.066 54.1231 83.3768 53.5791 83.0537Z" fill="white"/>
<mask id="mask12" mask-type="alpha" maskUnits="userSpaceOnUse" x="54" y="83" width="4" height="3">
<path d="M55.4621 84.9947L57.0471 85.9167C57.0441 84.9607 56.7071 84.2897 56.1641 83.9737C55.6361 83.6667 55.1071 83.3617 54.5781 83.0527C55.1231 83.3687 55.4581 84.0397 55.4621 84.9947Z" fill="white"/>
</mask>
<g mask="url(#mask12)">
<path fill-rule="evenodd" clip-rule="evenodd" d="M57.0471 85.9157L55.4621 84.9947C55.4581 84.0397 55.1221 83.3677 54.5781 83.0527L56.1641 83.9747C56.7061 84.2897 57.0441 84.9607 57.0471 85.9157Z" fill="white"/>
</g>
<mask id="mask13" mask-type="alpha" maskUnits="userSpaceOnUse" x="54" y="83" width="4" height="3">
<path d="M55.4621 84.9947L57.0471 85.9167C57.0441 84.9607 56.7071 84.2897 56.1641 83.9737C55.6361 83.6667 55.1071 83.3617 54.5781 83.0527C55.1231 83.3687 55.4581 84.0397 55.4621 84.9947Z" fill="white"/>
</mask>
<g mask="url(#mask13)">
<path fill-rule="evenodd" clip-rule="evenodd" d="M57.0471 85.9157L55.4621 84.9947C55.4581 84.0397 55.1221 83.3677 54.5781 83.0527L56.1641 83.9747C56.7061 84.2897 57.0441 84.9607 57.0471 85.9157Z" stroke="black" stroke-linejoin="round"/>
</g>
<path fill-rule="evenodd" clip-rule="evenodd" d="M55.5 83.0537C56.0423 83.3696 56.5866 83.6803 57.1289 83.9962C57.6855 84.3182 58.0326 85.0041 58.0357 85.9803L56.4079 85.0389C56.4038 84.0626 56.0587 83.3757 55.5 83.0537Z" stroke="black" stroke-linejoin="round"/>
<path fill-rule="evenodd" clip-rule="evenodd" d="M28.1406 128.606L26.5117 127.667C28.233 126.677 29.6236 124.279 29.6185 122.312L31.2474 123.253C31.2525 125.22 29.8609 127.619 28.1406 128.606Z" fill="white"/>
<mask id="mask14" mask-type="alpha" maskUnits="userSpaceOnUse" x="26" y="122" width="5" height="7">
<path d="M26.4961 127.695L28.038 128.614C29.6665 127.649 30.9839 125.301 30.979 123.377L29.4371 122.457C29.4429 124.381 28.1255 126.728 26.4961 127.695Z" fill="white"/>
</mask>
<g mask="url(#mask14)">
<path fill-rule="evenodd" clip-rule="evenodd" d="M28.038 128.614L26.4961 127.695C28.1255 126.727 29.4419 124.381 29.4371 122.456L30.979 123.377C30.9839 125.301 29.6665 127.648 28.038 128.614Z" fill="white"/>
</g>
<mask id="mask15" mask-type="alpha" maskUnits="userSpaceOnUse" x="26" y="122" width="5" height="7">
<path d="M26.4961 127.695L28.038 128.614C29.6665 127.649 30.9839 125.301 30.979 123.377L29.4371 122.457C29.4429 124.381 28.1255 126.728 26.4961 127.695Z" fill="white"/>
</mask>
<g mask="url(#mask15)">
<path fill-rule="evenodd" clip-rule="evenodd" d="M28.038 128.614L26.4961 127.695C28.1255 126.727 29.4419 124.381 29.4371 122.456L30.979 123.377C30.9839 125.301 29.6665 127.648 28.038 128.614Z" stroke="black" stroke-linejoin="round"/>
</g>
<path fill-rule="evenodd" clip-rule="evenodd" d="M26.9385 129.277L25.3525 128.266C27.0285 127.201 28.3825 124.62 28.3775 122.503L29.9636 123.516C29.9685 125.632 28.6135 128.214 26.9385 129.277Z" stroke="black" stroke-linejoin="round"/>
<path fill-rule="evenodd" clip-rule="evenodd" d="M24.962 130.533L23.377 129.52L25.353 128.266L26.939 129.277L24.962 130.533Z" fill="white"/>
<path fill-rule="evenodd" clip-rule="evenodd" d="M24.962 130.533L23.377 129.52L25.353 128.266L26.939 129.277L24.962 130.533Z" stroke="black" stroke-linejoin="round"/>
<path fill-rule="evenodd" clip-rule="evenodd" d="M22.8077 130.765C22.7857 130.748 22.7537 130.727 22.7287 130.713C22.2277 130.391 21.7257 130.071 21.2227 129.751C21.7747 130.103 22.5367 130.055 23.3767 129.52L24.9617 130.533C24.1207 131.065 23.3597 131.116 22.8077 130.765Z" fill="white"/>
<mask id="mask16" mask-type="alpha" maskUnits="userSpaceOnUse" x="21" y="129" width="4" height="2">
<path d="M21.2227 129.395C21.7257 129.781 22.2277 130.169 22.7287 130.56C22.7537 130.577 22.7857 130.604 22.8077 130.623C23.3597 131.049 24.1207 130.988 24.9627 130.341L23.3767 129.113C22.5367 129.764 21.7747 129.82 21.2227 129.395Z" fill="white"/>
</mask>
<g mask="url(#mask16)">
<path fill-rule="evenodd" clip-rule="evenodd" d="M22.8077 130.623L21.2227 129.393C21.7747 129.82 22.5367 129.763 23.3767 129.113L24.9617 130.341C24.1207 130.987 23.3597 131.048 22.8077 130.623Z" fill="white"/>
</g>
<mask id="mask17" mask-type="alpha" maskUnits="userSpaceOnUse" x="21" y="129" width="4" height="2">
<path d="M21.2227 129.395C21.7257 129.781 22.2277 130.169 22.7287 130.56C22.7537 130.577 22.7857 130.604 22.8077 130.623C23.3597 131.049 24.1207 130.988 24.9627 130.341L23.3767 129.113C22.5367 129.764 21.7747 129.82 21.2227 129.395Z" fill="white"/>
</mask>
<g mask="url(#mask17)">
<path fill-rule="evenodd" clip-rule="evenodd" d="M22.8077 130.623L21.2227 129.393C21.7747 129.82 22.5367 129.763 23.3767 129.113L24.9617 130.341C24.1207 130.987 23.3597 131.048 22.8077 130.623Z" stroke="black" stroke-linejoin="round"/>
</g>
<path fill-rule="evenodd" clip-rule="evenodd" d="M22.8077 130.942C22.7857 130.926 22.7537 130.907 22.7287 130.893C22.2277 130.593 21.7257 130.295 21.2227 129.996C21.7747 130.324 22.5367 130.28 23.3767 129.781L24.9617 130.725C24.1207 131.221 23.3597 131.269 22.8077 130.942Z" stroke="black" stroke-linejoin="round"/>
<path fill-rule="evenodd" clip-rule="evenodd" d="M43.0346 116.451L41.4516 115.507L41.3896 93.6045L42.9746 94.5506L43.0346 116.451Z" fill="white"/>
<path fill-rule="evenodd" clip-rule="evenodd" d="M43.0346 116.451L41.4516 115.507L41.3896 93.6045L42.9746 94.5506L43.0346 116.451Z" stroke="black" stroke-linejoin="round"/>
<path fill-rule="evenodd" clip-rule="evenodd" d="M40.5059 91.6152L42.0919 92.5593C42.6359 92.8821 42.9709 93.5709 42.9749 94.5498L41.3899 93.6037C41.3869 92.6259 41.0499 91.9381 40.5059 91.6152Z" fill="white"/>
<mask id="mask18" mask-type="alpha" maskUnits="userSpaceOnUse" x="40" y="91" width="3" height="4">
<path d="M41.3908 93.5406L42.9748 94.4636C42.9708 93.5086 42.6358 92.8366 42.0918 92.5216L40.5068 91.6006C41.0498 91.9156 41.3868 92.5876 41.3908 93.5406Z" fill="white"/>
</mask>
<g mask="url(#mask18)">
<path fill-rule="evenodd" clip-rule="evenodd" d="M42.9749 94.4636L41.3899 93.5406C41.3869 92.5866 41.0499 91.9156 40.5059 91.6006L42.0919 92.5216C42.6359 92.8366 42.9709 93.5086 42.9749 94.4636Z" fill="white"/>
</g>
<mask id="mask19" mask-type="alpha" maskUnits="userSpaceOnUse" x="40" y="91" width="3" height="4">
<path d="M41.3908 93.5406L42.9748 94.4636C42.9708 93.5086 42.6358 92.8366 42.0918 92.5216L40.5068 91.6006C41.0498 91.9156 41.3868 92.5876 41.3908 93.5406Z" fill="white"/>
</mask>
<g mask="url(#mask19)">
<path fill-rule="evenodd" clip-rule="evenodd" d="M42.9749 94.4636L41.3899 93.5406C41.3869 92.5866 41.0499 91.9156 40.5059 91.6006L42.0919 92.5216C42.6359 92.8366 42.9709 93.5086 42.9749 94.4636Z" stroke="black" stroke-linejoin="round"/>
</g>
<path fill-rule="evenodd" clip-rule="evenodd" d="M40.5342 91.6182L42.1054 92.5671C42.6444 92.8916 42.9763 93.584 42.9802 94.5679L41.41 93.617C41.407 92.634 41.0731 91.9427 40.5342 91.6182Z" stroke="black" stroke-linejoin="round"/>
<path fill-rule="evenodd" clip-rule="evenodd" d="M30.0897 124.358L28.5184 123.409L28.459 101.394L30.0293 102.341L30.0897 124.358Z" fill="white"/>
<path fill-rule="evenodd" clip-rule="evenodd" d="M30.0897 124.358L28.5184 123.409L28.459 101.394L30.0293 102.341L30.0897 124.358Z" stroke="black" stroke-linejoin="round"/>
<path fill-rule="evenodd" clip-rule="evenodd" d="M27.585 99.3936L29.1542 100.341C29.6922 100.667 30.0281 101.358 30.03 102.341L28.4588 101.393C28.4558 100.41 28.1229 99.7181 27.585 99.3936Z" fill="white"/>
<mask id="mask20" mask-type="alpha" maskUnits="userSpaceOnUse" x="27" y="99" width="3" height="3">
<path d="M28.4538 100.958L29.9407 101.821C29.9388 100.926 29.621 100.297 29.112 100L27.627 99.1387C28.136 99.434 28.451 100.064 28.4538 100.958Z" fill="white"/>
</mask>
<g mask="url(#mask20)">
<path fill-rule="evenodd" clip-rule="evenodd" d="M29.9407 101.821L28.4538 100.958C28.451 100.064 28.136 99.434 27.627 99.1387L29.112 100.001C29.621 100.297 29.9388 100.926 29.9407 101.821Z" fill="white"/>
</g>
<mask id="mask21" mask-type="alpha" maskUnits="userSpaceOnUse" x="27" y="99" width="3" height="3">
<path d="M28.4538 100.958L29.9407 101.821C29.9388 100.926 29.621 100.297 29.112 100L27.627 99.1387C28.136 99.434 28.451 100.064 28.4538 100.958Z" fill="white"/>
</mask>
<g mask="url(#mask21)">
<path fill-rule="evenodd" clip-rule="evenodd" d="M29.9407 101.821L28.4538 100.958C28.451 100.064 28.136 99.434 27.627 99.1387L29.112 100.001C29.621 100.297 29.9388 100.926 29.9407 101.821Z" stroke="black" stroke-linejoin="round"/>
</g>
<path fill-rule="evenodd" clip-rule="evenodd" d="M27.4648 99.1475L29.0341 100.067C29.5721 100.383 29.9079 101.054 29.9099 102.008L28.3387 101.088C28.3357 100.134 28.0028 99.4625 27.4648 99.1475Z" stroke="black" stroke-linejoin="round"/>
<path fill-rule="evenodd" clip-rule="evenodd" d="M17.0283 115.583L15.457 114.662L15.3877 108.636L16.958 109.556L17.0283 115.583Z" fill="white"/>
<path fill-rule="evenodd" clip-rule="evenodd" d="M17.0283 115.583L15.457 114.662L15.3877 108.636L16.958 109.556L17.0283 115.583Z" stroke="black" stroke-linejoin="round"/>
<path fill-rule="evenodd" clip-rule="evenodd" d="M14.5127 106.692C14.5365 106.707 14.5682 106.724 14.592 106.738C15.0893 107.031 15.5866 107.323 16.083 107.614C16.6219 107.928 16.9558 108.6 16.9578 109.555L15.3875 108.635C15.3845 107.679 15.0516 107.008 14.5127 106.692Z" fill="white"/>
<mask id="mask22" mask-type="alpha" maskUnits="userSpaceOnUse" x="14" y="106" width="3" height="4">
<path d="M14.5839 106.708C14.5755 106.702 14.567 106.697 14.5586 106.691C14.5661 106.697 14.5755 106.702 14.5839 106.708ZM15.3855 108.635L16.8714 109.555C16.8705 108.6 16.5545 107.928 16.0445 107.614C15.5748 107.322 15.1042 107.031 14.6336 106.737C14.6186 106.728 14.6008 106.718 14.5839 106.708C15.0798 107.031 15.3836 107.695 15.3855 108.635Z" fill="white"/>
</mask>
<g mask="url(#mask22)">
<path fill-rule="evenodd" clip-rule="evenodd" d="M16.8723 109.555L15.3864 108.635C15.3836 107.679 15.0686 107.008 14.5586 106.692L16.0445 107.614C16.5545 107.928 16.8705 108.6 16.8723 109.555Z" fill="white"/>
</g>
<mask id="mask23" mask-type="alpha" maskUnits="userSpaceOnUse" x="14" y="106" width="3" height="4">
<path d="M14.5839 106.708C14.5755 106.702 14.567 106.697 14.5586 106.691C14.5661 106.697 14.5755 106.702 14.5839 106.708ZM15.3855 108.635L16.8714 109.555C16.8705 108.6 16.5545 107.928 16.0445 107.614C15.5748 107.322 15.1042 107.031 14.6336 106.737C14.6186 106.728 14.6008 106.718 14.5839 106.708C15.0798 107.031 15.3836 107.695 15.3855 108.635Z" fill="white"/>
</mask>
<g mask="url(#mask23)">
<path fill-rule="evenodd" clip-rule="evenodd" d="M16.8723 109.555L15.3864 108.635C15.3836 107.679 15.0686 107.008 14.5586 106.692L16.0445 107.614C16.5545 107.928 16.8705 108.6 16.8723 109.555Z" stroke="black" stroke-linejoin="round"/>
</g>
<path fill-rule="evenodd" clip-rule="evenodd" d="M14.5029 106.847C14.5273 106.862 14.5597 106.879 14.5841 106.894C15.0932 107.194 15.6024 107.493 16.1106 107.791C16.6623 108.112 17.0042 108.8 17.0062 109.778L15.3985 108.836C15.3955 107.857 15.0547 107.17 14.5029 106.847Z" stroke="black" stroke-linejoin="round"/>
<path fill-rule="evenodd" clip-rule="evenodd" d="M13.0512 141.716L11.4436 140.774L4.71582 105.722L6.32448 106.665L13.0512 141.716Z" fill="white"/>
<path fill-rule="evenodd" clip-rule="evenodd" d="M13.0512 141.716L11.4436 140.774L4.71582 105.722L6.32448 106.665L13.0512 141.716Z" stroke="black" stroke-linejoin="round"/>
<path fill-rule="evenodd" clip-rule="evenodd" d="M6.32448 106.665L4.71582 105.722L71.0521 67.0566L72.6608 68.0007L6.32448 106.665Z" fill="white"/>
<path fill-rule="evenodd" clip-rule="evenodd" d="M6.32448 106.665L4.71582 105.722L71.0521 67.0566L72.6608 68.0007L6.32448 106.665Z" stroke="black" stroke-linejoin="round"/>
<path fill-rule="evenodd" clip-rule="evenodd" d="M61.9568 109.072L67.298 76.8981L64.9479 78.2671C63.248 79.2573 61.8807 81.6523 61.8858 83.6224L61.9568 109.072ZM17.0787 113.091L17.0067 109.778C17.0026 107.809 15.6171 107.019 13.9253 108.007L11.5742 109.376L17.0787 113.091ZM56.8448 108.476L56.7829 86.5969C56.7768 84.6258 55.3933 83.8353 53.6944 84.8255L51.6892 85.9938C49.9902 86.985 48.623 89.38 48.625 91.3501L48.6889 113.23C48.694 115.2 50.0724 115.999 51.7703 115.008L53.7786 113.84C55.4755 112.849 56.8488 110.447 56.8448 108.476ZM43.585 116.203L43.5242 94.3257C43.5181 92.3546 42.1366 91.5631 40.4367 92.5543L38.4304 93.7226C36.7376 94.7107 35.3612 97.1068 35.3683 99.0779L35.4291 120.958C35.4352 122.929 36.8187 123.723 38.5116 122.738L40.5178 121.568C42.2167 120.578 43.5921 118.176 43.585 116.203ZM30.3273 123.932L30.2664 102.051C30.2603 100.081 28.8769 99.2898 27.1779 100.281L25.1727 101.45C23.4788 102.437 22.1045 104.835 22.1095 106.806L22.1704 128.686C22.1755 130.658 23.561 131.451 25.2538 130.464L27.2591 129.295C28.958 128.306 30.3324 125.902 30.3273 123.932ZM6.32422 106.664L72.6615 68.001L66.8852 110.221C66.7391 111.328 65.9784 112.509 65.0909 113.028L14.8919 142.287C14.0024 142.804 13.2274 142.524 13.051 141.61L6.32422 106.664Z" fill="white"/>
<path fill-rule="evenodd" clip-rule="evenodd" d="M61.9568 109.072L67.298 76.8981L64.9479 78.2671C63.248 79.2573 61.8807 81.6523 61.8858 83.6224L61.9568 109.072ZM17.0787 113.091L17.0067 109.778C17.0026 107.809 15.6171 107.019 13.9253 108.007L11.5742 109.376L17.0787 113.091ZM56.8448 108.476L56.7829 86.5969C56.7768 84.6258 55.3933 83.8353 53.6944 84.8255L51.6892 85.9938C49.9902 86.985 48.623 89.38 48.625 91.3501L48.6889 113.23C48.694 115.2 50.0724 115.999 51.7703 115.008L53.7786 113.84C55.4755 112.849 56.8488 110.447 56.8448 108.476ZM43.585 116.203L43.5242 94.3257C43.5181 92.3546 42.1366 91.5631 40.4367 92.5543L38.4304 93.7226C36.7376 94.7107 35.3612 97.1068 35.3683 99.0779L35.4291 120.958C35.4352 122.929 36.8187 123.723 38.5116 122.738L40.5178 121.568C42.2167 120.578 43.5921 118.176 43.585 116.203ZM30.3273 123.932L30.2664 102.051C30.2603 100.081 28.8769 99.2898 27.1779 100.281L25.1727 101.45C23.4788 102.437 22.1045 104.835 22.1095 106.806L22.1704 128.686C22.1755 130.658 23.561 131.451 25.2538 130.464L27.2591 129.295C28.958 128.306 30.3324 125.902 30.3273 123.932ZM6.32422 106.664L72.6615 68.001L66.8852 110.221C66.7391 111.328 65.9784 112.509 65.0909 113.028L14.8919 142.287C14.0024 142.804 13.2274 142.524 13.051 141.61L6.32422 106.664Z" stroke="black" stroke-linejoin="round"/>
<path fill-rule="evenodd" clip-rule="evenodd" d="M73.6733 64.2467L75.2819 65.1908C75.0091 65.0321 74.6328 65.0536 74.2169 65.2942L72.6113 64.3532C73.0241 64.1105 73.4015 64.088 73.6733 64.2467Z" fill="white"/>
<mask id="mask24" mask-type="alpha" maskUnits="userSpaceOnUse" x="72" y="64" width="4" height="2">
<path d="M72.6533 64.5887L74.2363 65.8153C74.6463 65.502 75.0173 65.474 75.2863 65.6793L73.7003 64.4513C73.5883 64.3647 73.4573 64.3193 73.3143 64.3193C73.1143 64.3193 72.8893 64.406 72.6533 64.5887Z" fill="white"/>
</mask>
<g mask="url(#mask24)">
<path fill-rule="evenodd" clip-rule="evenodd" d="M74.2363 65.8158L72.6533 64.5891C73.0603 64.2744 73.4323 64.2438 73.7003 64.4518L75.2863 65.6798C75.0173 65.4731 74.6463 65.5024 74.2363 65.8158Z" fill="white"/>
</g>
<mask id="mask25" mask-type="alpha" maskUnits="userSpaceOnUse" x="72" y="64" width="4" height="2">
<path d="M72.6533 64.5887L74.2363 65.8153C74.6463 65.502 75.0173 65.474 75.2863 65.6793L73.7003 64.4513C73.5883 64.3647 73.4573 64.3193 73.3143 64.3193C73.1143 64.3193 72.8893 64.406 72.6533 64.5887Z" fill="white"/>
</mask>
<g mask="url(#mask25)">
<path fill-rule="evenodd" clip-rule="evenodd" d="M74.2363 65.8158L72.6533 64.5891C73.0603 64.2744 73.4323 64.2438 73.7003 64.4518L75.2863 65.6798C75.0173 65.4731 74.6463 65.5024 74.2363 65.8158Z" stroke="black" stroke-linejoin="round"/>
</g>
<path fill-rule="evenodd" clip-rule="evenodd" d="M73.674 64.2472L75.2824 65.1873C75.0096 65.0293 74.6334 65.0507 74.2176 65.2903L72.6123 64.3533C73.025 64.1116 73.4023 64.0892 73.674 64.2472Z" stroke="black" stroke-linejoin="round"/>
<path fill-rule="evenodd" clip-rule="evenodd" d="M7.164 104.217L5.55566 103.278L72.612 64.3525L74.2173 65.2906L7.164 104.217Z" fill="white"/>
<path fill-rule="evenodd" clip-rule="evenodd" d="M7.164 104.217L5.55566 103.278L72.612 64.3525L74.2173 65.2906L7.164 104.217Z" stroke="black" stroke-linejoin="round"/>
<path fill-rule="evenodd" clip-rule="evenodd" d="M6.11471 107.777C5.57927 107.463 5.0418 107.149 4.50637 106.837C4.23865 106.68 4.07131 106.346 4.07131 105.871C4.06727 104.916 4.73048 103.758 5.55595 103.278L7.16428 104.217C6.33882 104.697 5.67358 105.856 5.67662 106.81C5.67966 107.285 5.84496 107.619 6.11471 107.777Z" fill="white"/>
<mask id="mask26" mask-type="alpha" maskUnits="userSpaceOnUse" x="4" y="103" width="4" height="5">
<path d="M4.06349 105.911C4.06349 106.377 4.22851 106.704 4.49151 106.859C5.02051 107.164 5.55051 107.473 6.07851 107.78C5.81251 107.626 5.64951 107.298 5.64651 106.833C5.64351 105.897 6.29851 104.76 7.11351 104.289L5.52751 103.368C4.71351 103.838 4.05951 104.975 4.06349 105.911Z" fill="white"/>
</mask>
<g mask="url(#mask26)">
<path fill-rule="evenodd" clip-rule="evenodd" d="M6.07851 107.78L4.49251 106.858C4.22851 106.704 4.06349 106.377 4.06349 105.911C4.05951 104.974 4.71351 103.838 5.52751 103.368L7.11351 104.289C6.29951 104.759 5.64351 105.896 5.64651 106.832C5.64951 107.298 5.81251 107.625 6.07851 107.78Z" fill="white"/>
</g>
<mask id="mask27" mask-type="alpha" maskUnits="userSpaceOnUse" x="4" y="103" width="4" height="5">
<path d="M4.06349 105.911C4.06349 106.377 4.22851 106.704 4.49151 106.859C5.02051 107.164 5.55051 107.473 6.07851 107.78C5.81251 107.626 5.64951 107.298 5.64651 106.833C5.64351 105.897 6.29851 104.76 7.11351 104.289L5.52751 103.368C4.71351 103.838 4.05951 104.975 4.06349 105.911Z" fill="white"/>
</mask>
<g mask="url(#mask27)">
<path fill-rule="evenodd" clip-rule="evenodd" d="M6.07851 107.78L4.49251 106.858C4.22851 106.704 4.06349 106.377 4.06349 105.911C4.05951 104.974 4.71351 103.838 5.52751 103.368L7.11351 104.289C6.29951 104.759 5.64351 105.896 5.64651 106.832C5.64951 107.298 5.81251 107.625 6.07851 107.78Z" stroke="black" stroke-linejoin="round"/>
</g>
<path fill-rule="evenodd" clip-rule="evenodd" d="M6.12877 107.596C5.59041 107.283 5.05002 106.97 4.51167 106.659C4.24249 106.503 4.07424 106.17 4.07424 105.697C4.07018 104.745 4.737 103.591 5.56696 103.113L7.18406 104.049C6.3541 104.526 5.68524 105.682 5.6883 106.633C5.69135 107.106 5.85755 107.438 6.12877 107.596Z" stroke="black" stroke-linejoin="round"/>
<path fill-rule="evenodd" clip-rule="evenodd" d="M74.6028 65.2617C75.4327 64.7842 76.1108 65.1693 76.1108 66.1192C76.1128 67.0691 75.4439 68.2273 74.615 68.7058L7.19344 107.49C6.36348 107.968 5.69258 107.582 5.68849 106.633C5.68544 105.682 6.35328 104.527 7.18426 104.049L74.6028 65.2617Z" fill="white"/>
<path fill-rule="evenodd" clip-rule="evenodd" d="M74.6028 65.2617C75.4327 64.7842 76.1108 65.1693 76.1108 66.1192C76.1128 67.0691 75.4439 68.2273 74.615 68.7058L7.19344 107.49C6.36348 107.968 5.69258 107.582 5.68849 106.633C5.68544 105.682 6.35328 104.527 7.18426 104.049L74.6028 65.2617Z" stroke="black" stroke-linejoin="round"/>
<path fill-rule="evenodd" clip-rule="evenodd" d="M72.4152 69.9268L66.7441 110.278L101.001 130.114L106.653 89.7858L72.4152 69.9268Z" fill="white"/>
<path fill-rule="evenodd" clip-rule="evenodd" d="M72.4152 69.9268L66.7441 110.278L101.001 130.114L106.653 89.7858L72.4152 69.9268Z" stroke="black" stroke-linejoin="round"/>
<path fill-rule="evenodd" clip-rule="evenodd" d="M61.9315 178.53L23.1436 156.068L65.3431 131.791L104.132 154.253L61.9315 178.53Z" fill="white"/>
<path fill-rule="evenodd" clip-rule="evenodd" d="M61.9315 178.53L23.1436 156.068L65.3431 131.791L104.132 154.253L61.9315 178.53Z" stroke="black" stroke-linejoin="round"/>
<path fill-rule="evenodd" clip-rule="evenodd" d="M65.0439 112.565C65.7995 112.129 66.4704 111.214 66.7447 110.277C78.1622 116.889 89.5818 123.503 101.001 130.114L105.533 132.736C105.257 133.676 104.588 134.592 103.832 135.025C92.1961 128.289 76.6807 119.303 65.0439 112.565Z" fill="white"/>
<mask id="mask28" mask-type="alpha" maskUnits="userSpaceOnUse" x="64" y="110" width="42" height="25">
<path d="M64.8691 112.673C76.525 119.305 92.0657 128.149 103.721 134.78C104.478 134.354 105.148 133.452 105.424 132.528L100.884 129.946C89.4472 123.439 78.0089 116.929 66.5726 110.421C66.2979 111.343 65.6259 112.244 64.8691 112.673Z" fill="white"/>
</mask>
<g mask="url(#mask28)">
<path fill-rule="evenodd" clip-rule="evenodd" d="M103.721 134.78L64.8691 112.673C65.6259 112.244 66.2979 111.343 66.5726 110.421L105.424 132.527C105.148 133.452 104.478 134.353 103.721 134.78Z" fill="white"/>
</g>
<mask id="mask29" mask-type="alpha" maskUnits="userSpaceOnUse" x="64" y="110" width="42" height="25">
<path d="M64.8691 112.673C76.525 119.305 92.0657 128.149 103.721 134.78C104.478 134.354 105.148 133.452 105.424 132.528L100.884 129.946C89.4472 123.439 78.0089 116.929 66.5726 110.421C66.2979 111.343 65.6259 112.244 64.8691 112.673Z" fill="white"/>
</mask>
<g mask="url(#mask29)">
<path fill-rule="evenodd" clip-rule="evenodd" d="M103.721 134.78L64.8691 112.673C65.6259 112.244 66.2979 111.343 66.5726 110.421L105.424 132.527C105.148 133.452 104.478 134.353 103.721 134.78Z" stroke="black" stroke-linejoin="round"/>
</g>
<path fill-rule="evenodd" clip-rule="evenodd" d="M64.3701 113.222C65.1191 112.785 65.7842 111.867 66.0561 110.927C77.3745 117.56 88.6949 124.195 100.015 130.828L104.507 133.458C104.234 134.401 103.571 135.32 102.821 135.755C91.2865 128.997 75.9058 119.982 64.3701 113.222Z" stroke="black" stroke-linejoin="round"/>
<path fill-rule="evenodd" clip-rule="evenodd" d="M99.4345 153.271L60.9834 130.739L60.9541 115.21L99.4062 137.745L99.4345 153.271Z" fill="white"/>
<path fill-rule="evenodd" clip-rule="evenodd" d="M99.4345 153.271L60.9834 130.739L60.9541 115.21L99.4062 137.745L99.4345 153.271Z" stroke="black" stroke-linejoin="round"/>
<path fill-rule="evenodd" clip-rule="evenodd" d="M51.1241 162.108L17.0264 141.093L64.37 113.223L99.3663 133.708L51.1241 162.108Z" fill="white"/>
<path fill-rule="evenodd" clip-rule="evenodd" d="M51.1241 162.108L17.0264 141.093L64.37 113.223L99.3663 133.708L51.1241 162.108Z" stroke="black" stroke-linejoin="round"/>
<path fill-rule="evenodd" clip-rule="evenodd" d="M104.508 133.459L104.541 155.329C103.68 155.234 102.675 155.478 101.602 156.103C100.833 156.549 100.104 157.149 99.4345 157.857L99.4062 137.744L102.822 135.755C103.572 135.32 104.235 134.402 104.508 133.459Z" fill="white"/>
<path fill-rule="evenodd" clip-rule="evenodd" d="M104.508 133.459L104.541 155.329C103.68 155.234 102.675 155.478 101.602 156.103C100.833 156.549 100.104 157.149 99.4345 157.857L99.4062 137.744L102.822 135.755C103.572 135.32 104.235 134.402 104.508 133.459Z" stroke="black" stroke-linejoin="round"/>
<path fill-rule="evenodd" clip-rule="evenodd" d="M99.7681 131.754L98.165 130.817L103.488 98.7891L105.091 99.7278L99.7681 131.754Z" fill="white"/>
<path fill-rule="evenodd" clip-rule="evenodd" d="M99.7681 131.754L98.165 130.817L103.488 98.7891L105.091 99.7278L99.7681 131.754Z" stroke="black" stroke-linejoin="round"/>
<path fill-rule="evenodd" clip-rule="evenodd" d="M61.187 118.966L47.0264 110.667C49.6988 112.235 53.2536 111.723 57.6939 109.138C61.8076 106.743 65.226 104.272 67.9358 101.735C70.6456 99.1963 73.6152 95.9571 76.8325 92.0146L90.9931 100.312C87.7759 104.255 84.8063 107.494 82.0965 110.033C79.3866 112.572 75.9693 115.041 71.8545 117.437C67.4153 120.021 63.8594 120.532 61.187 118.966Z" fill="white"/>
<mask id="mask30" mask-type="alpha" maskUnits="userSpaceOnUse" x="46" y="92" width="46" height="29">
<path d="M67.8632 101.838C65.1223 104.403 61.6624 106.9 57.5009 109.322C53.0081 111.934 49.4112 112.451 46.7061 110.867L61.0355 119.256C63.7386 120.84 67.3365 120.322 71.8283 117.709C75.9929 115.288 79.4497 112.793 82.1916 110.226C84.9336 107.66 87.9383 104.386 91.1947 100.4L76.8653 92.0127C73.6109 95.9979 70.6062 99.2712 67.8632 101.838Z" fill="white"/>
</mask>
<g mask="url(#mask30)">
<path fill-rule="evenodd" clip-rule="evenodd" d="M61.0345 119.256L46.7061 110.867C49.4101 112.452 53.0071 111.935 57.4999 109.322C61.6624 106.901 65.1213 104.403 67.8632 101.839C70.6051 99.2722 73.6099 95.9979 76.8653 92.0127L91.1937 100.4C87.9383 104.386 84.9336 107.66 82.1916 110.226C79.4497 112.793 75.9918 115.288 71.8283 117.711C67.3365 120.322 63.7386 120.84 61.0345 119.256Z" fill="white"/>
</g>
<mask id="mask31" mask-type="alpha" maskUnits="userSpaceOnUse" x="46" y="92" width="46" height="29">
<path d="M67.8632 101.838C65.1223 104.403 61.6624 106.9 57.5009 109.322C53.0081 111.934 49.4112 112.451 46.7061 110.867L61.0355 119.256C63.7386 120.84 67.3365 120.322 71.8283 117.709C75.9929 115.288 79.4497 112.793 82.1916 110.226C84.9336 107.66 87.9383 104.386 91.1947 100.4L76.8653 92.0127C73.6109 95.9979 70.6062 99.2712 67.8632 101.838Z" fill="white"/>
</mask>
<g mask="url(#mask31)">
<path fill-rule="evenodd" clip-rule="evenodd" d="M61.0345 119.256L46.7061 110.867C49.4101 112.452 53.0071 111.935 57.4999 109.322C61.6624 106.901 65.1213 104.403 67.8632 101.839C70.6051 99.2722 73.6099 95.9979 76.8653 92.0127L91.1937 100.4C87.9383 104.386 84.9336 107.66 82.1916 110.226C79.4497 112.793 75.9918 115.288 71.8283 117.711C67.3365 120.322 63.7386 120.84 61.0345 119.256Z" stroke="black" stroke-linejoin="round"/>
</g>
<path fill-rule="evenodd" clip-rule="evenodd" d="M61.2515 119.25L47.1094 110.92C49.7783 112.493 53.3285 111.98 57.7629 109.385C61.8713 106.981 65.2852 104.501 67.9915 101.954C70.6978 99.4053 73.6635 96.1538 76.8766 92.1963L91.0187 100.526C87.8057 104.483 84.84 107.735 82.1337 110.283C79.4274 112.832 76.0145 115.31 71.9051 117.715C67.4717 120.309 63.9205 120.823 61.2515 119.25Z" stroke="black" stroke-linejoin="round"/>
<path fill-rule="evenodd" clip-rule="evenodd" d="M79.3089 78.6117C79.2957 74.024 78.363 70.9003 76.5137 69.2357C76.3018 69.0454 76.0767 68.8807 75.8394 68.7425C71.1264 65.9647 66.4113 63.1879 61.6973 60.4111C61.9345 60.5513 62.1596 60.716 62.3716 60.9053C64.2208 62.57 65.1536 65.6936 65.1657 70.2813L65.1717 72.2069L79.3139 80.5373L79.3089 78.6117Z" fill="white"/>
<path fill-rule="evenodd" clip-rule="evenodd" d="M79.3089 78.6117C79.2957 74.024 78.363 70.9003 76.5137 69.2357C76.3018 69.0454 76.0767 68.8807 75.8394 68.7425C71.1264 65.9647 66.4113 63.1879 61.6973 60.4111C61.9345 60.5513 62.1596 60.716 62.3716 60.9053C64.2208 62.57 65.1536 65.6936 65.1657 70.2813L65.1717 72.2069L79.3139 80.5373L79.3089 78.6117Z" stroke="black" stroke-linejoin="round"/>
<path fill-rule="evenodd" clip-rule="evenodd" d="M56.5611 93.8515L42.418 85.5201L65.1716 72.207L79.3138 80.5364L56.5611 93.8515Z" fill="white"/>
<path fill-rule="evenodd" clip-rule="evenodd" d="M56.5611 93.8515L42.418 85.5201L65.1716 72.207L79.3138 80.5364L56.5611 93.8515Z" stroke="black" stroke-linejoin="round"/>
<path fill-rule="evenodd" clip-rule="evenodd" d="M74.9241 41.7384C69.8294 38.7376 62.831 39.8405 53.7895 45.1301C44.418 50.6141 36.9542 58.8094 31.3932 69.7294C25.8 80.7158 23.021 92.1525 23.054 104.044L23.0634 107.003C23.0947 118.403 26.0866 126.067 32.0403 129.997C32.2502 130.136 32.4642 130.269 32.6782 130.395C37.3923 133.173 42.1064 135.95 46.8204 138.727C46.6054 138.6 46.3914 138.467 46.1814 138.328C40.2298 134.398 37.2379 126.732 37.2056 115.334L37.1975 112.375C37.1642 100.483 39.9421 89.0452 45.5364 78.0608C51.0964 67.1388 58.5611 58.9435 67.9317 53.4605C75.2784 49.1623 81.2764 47.6286 85.9996 48.8134C87.0887 49.0876 88.1103 49.5061 89.0652 50.0688C84.3512 47.291 79.6371 44.5142 74.9241 41.7384Z" fill="#9595EF"/>
<path fill-rule="evenodd" clip-rule="evenodd" d="M74.9241 41.7384C69.8294 38.7376 62.831 39.8405 53.7895 45.1301C44.418 50.6141 36.9542 58.8094 31.3932 69.7294C25.8 80.7158 23.021 92.1525 23.054 104.044L23.0634 107.003C23.0947 118.403 26.0866 126.067 32.0403 129.997C32.2502 130.136 32.4642 130.269 32.6782 130.395C37.3923 133.173 42.1064 135.95 46.8204 138.727C46.6054 138.6 46.3914 138.467 46.1814 138.328C40.2298 134.398 37.2379 126.732 37.2056 115.334L37.1975 112.375C37.1642 100.483 39.9421 89.0452 45.5364 78.0608C51.0964 67.1388 58.5611 58.9435 67.9317 53.4605C75.2784 49.1623 81.2764 47.6286 85.9996 48.8134C87.0887 49.0876 88.1103 49.5061 89.0652 50.0688C84.3512 47.291 79.6371 44.5142 74.9241 41.7384Z" stroke="black" stroke-linejoin="round"/>
<path fill-rule="evenodd" clip-rule="evenodd" d="M60.0202 79.37C58.0366 83.5986 56.8213 88.3378 56.3691 93.5946L56.5609 93.8514L79.3135 80.5374L79.3084 78.6118C79.2963 74.0231 78.3636 70.9004 76.5143 69.2358C74.661 67.5783 71.8709 67.8382 68.1431 70.0205C64.712 72.0279 62.0047 75.1444 60.0202 79.37ZM97.5297 84.1869L56.473 108.213L56.3489 108.726C56.7032 113.788 58.2274 117.23 60.9267 119.046C63.6299 120.861 67.2891 120.416 71.9042 117.716C76.0147 115.311 79.4276 112.832 82.1328 110.284C84.8401 107.735 87.8048 104.484 91.0189 100.526L96.0751 110.943C93.2891 115.255 89.6279 119.621 85.1016 124.034C80.5702 128.446 75.5322 132.275 69.9813 135.525C60.0686 141.325 52.1345 142.261 46.1818 138.328C40.2302 134.398 37.2383 126.733 37.205 115.333L37.1976 112.375C37.1636 100.483 39.9415 89.0458 45.5358 78.0614C51.0958 67.1394 58.5616 58.9441 67.9321 53.4611C77.3744 47.9351 84.5908 46.9785 89.7339 50.4919C94.8759 54.0064 97.4661 61.3137 97.4974 72.4178L97.5297 84.1869Z" fill="white"/>
<path fill-rule="evenodd" clip-rule="evenodd" d="M60.0202 79.37C58.0366 83.5986 56.8213 88.3378 56.3691 93.5946L56.5609 93.8514L79.3135 80.5374L79.3084 78.6118C79.2963 74.0231 78.3636 70.9004 76.5143 69.2358C74.661 67.5783 71.8709 67.8382 68.1431 70.0205C64.712 72.0279 62.0047 75.1444 60.0202 79.37ZM97.5297 84.1869L56.473 108.213L56.3489 108.726C56.7032 113.788 58.2274 117.23 60.9267 119.046C63.6299 120.861 67.2891 120.416 71.9042 117.716C76.0147 115.311 79.4276 112.832 82.1328 110.284C84.8401 107.735 87.8048 104.484 91.0189 100.526L96.0751 110.943C93.2891 115.255 89.6279 119.621 85.1016 124.034C80.5702 128.446 75.5322 132.275 69.9813 135.525C60.0686 141.325 52.1345 142.261 46.1818 138.328C40.2302 134.398 37.2383 126.733 37.205 115.333L37.1976 112.375C37.1636 100.483 39.9415 89.0458 45.5358 78.0614C51.0958 67.1394 58.5615 58.9441 67.9321 53.4611C77.3744 47.9351 84.5908 46.9785 89.7339 50.4919C94.8759 54.0064 97.4661 61.3137 97.4974 72.4178L97.5297 84.1869Z" stroke="black" stroke-linejoin="round"/>
<path fill-rule="evenodd" clip-rule="evenodd" d="M55.048 132.797C55.0449 131.817 54.7047 131.132 54.1536 130.808L52.5557 129.865C53.1038 130.19 53.444 130.877 53.447 131.854L53.5177 157.283L55.1186 158.226L55.048 132.797Z" fill="white"/>
<path fill-rule="evenodd" clip-rule="evenodd" d="M55.048 132.797C55.0449 131.817 54.7047 131.132 54.1536 130.808L52.5557 129.865C53.1038 130.19 53.444 130.877 53.447 131.854L53.5177 157.283L55.1186 158.226L55.048 132.797Z" stroke="black" stroke-linejoin="round"/>
<path fill-rule="evenodd" clip-rule="evenodd" d="M51.1089 164.71L49.509 163.766L42.8154 128.741L44.4164 129.685L51.1089 164.71Z" fill="white"/>
<path fill-rule="evenodd" clip-rule="evenodd" d="M51.1089 164.71L49.509 163.766L42.8154 128.741L44.4164 129.685L51.1089 164.71Z" stroke="black" stroke-linejoin="round"/>
<path fill-rule="evenodd" clip-rule="evenodd" d="M44.4164 129.684L42.8154 128.741L108.834 90.1074L110.435 91.0487L44.4164 129.684Z" fill="white"/>
<path fill-rule="evenodd" clip-rule="evenodd" d="M44.4164 129.684L42.8154 128.741L108.834 90.1074L110.435 91.0487L44.4164 129.684Z" stroke="black" stroke-linejoin="round"/>
<path fill-rule="evenodd" clip-rule="evenodd" d="M44.5166 128.674L50.5712 163.322L44.5166 128.674Z" fill="white"/>
<path fill-rule="evenodd" clip-rule="evenodd" d="M44.5166 128.674L50.5712 163.322L44.5166 128.674Z" stroke="black" stroke-linejoin="round"/>
<path fill-rule="evenodd" clip-rule="evenodd" d="M6.14453 105.633L44.5172 128.675L6.14453 105.633Z" fill="white"/>
<path fill-rule="evenodd" clip-rule="evenodd" d="M6.14453 105.633L44.5172 128.675L6.14453 105.633Z" stroke="black" stroke-linejoin="round"/>
<path fill-rule="evenodd" clip-rule="evenodd" d="M13.541 117.913L17.28 137.416L13.541 117.913Z" fill="white"/>
<path fill-rule="evenodd" clip-rule="evenodd" d="M13.541 117.913L17.28 137.416L13.541 117.913Z" stroke="black" stroke-linejoin="round"/>
<path fill-rule="evenodd" clip-rule="evenodd" d="M23.9961 123.215L27.735 142.71L23.9961 123.215Z" fill="white"/>
<path fill-rule="evenodd" clip-rule="evenodd" d="M23.9961 123.215L27.735 142.71L23.9961 123.215Z" stroke="black" stroke-linejoin="round"/>
<path fill-rule="evenodd" clip-rule="evenodd" d="M35.2393 130.471L38.9772 149.966L35.2393 130.471Z" fill="white"/>
<path fill-rule="evenodd" clip-rule="evenodd" d="M35.2393 130.471L38.9772 149.966L35.2393 130.471Z" stroke="black" stroke-linejoin="round"/>
<path fill-rule="evenodd" clip-rule="evenodd" d="M43.0646 155.073C43.9145 155.073 44.713 154.281 44.5434 153.348L41.0084 133.915C40.6197 131.794 39.3337 129.94 37.5006 128.848C37.2492 128.699 36.9878 128.632 36.7344 128.632C35.8401 128.632 35.0497 129.461 35.2394 130.47L38.9774 149.965C39.3751 152.01 40.6066 153.803 42.363 154.874C42.5871 155.01 42.8284 155.073 43.0646 155.073ZM31.8165 147.819C32.6634 147.819 33.4639 147.026 33.2973 146.094L29.7562 126.659C29.3696 124.539 28.0886 122.683 26.2494 121.592C26.0001 121.443 25.7397 121.379 25.4863 121.379C24.5929 121.379 23.7995 122.205 23.9954 123.214L27.7343 142.709C28.1219 144.753 29.3555 146.547 31.1119 147.619C31.337 147.758 31.5782 147.819 31.8165 147.819ZM21.3668 142.52C22.2147 142.52 23.0142 141.732 22.8446 140.797L19.3025 121.365C18.9139 119.238 17.6349 117.381 15.7937 116.298C15.5444 116.149 15.2829 116.082 15.0286 116.082C14.1372 116.082 13.3448 116.904 13.5407 117.914L17.2796 137.416C17.6672 139.457 18.9068 141.245 20.6652 142.321C20.8893 142.462 21.1296 142.52 21.3668 142.52ZM44.5161 128.674L50.5717 163.322L13.0521 141.675L6.14453 105.633L44.5161 128.674Z" fill="white"/>
<path fill-rule="evenodd" clip-rule="evenodd" d="M43.0646 155.073C43.9145 155.073 44.713 154.281 44.5434 153.348L41.0084 133.915C40.6197 131.794 39.3337 129.94 37.5006 128.848C37.2492 128.699 36.9878 128.632 36.7344 128.632C35.8401 128.632 35.0497 129.461 35.2394 130.47L38.9774 149.965C39.3751 152.01 40.6066 153.803 42.363 154.874C42.5871 155.01 42.8284 155.073 43.0646 155.073ZM31.8165 147.819C32.6634 147.819 33.4639 147.026 33.2973 146.094L29.7562 126.659C29.3696 124.539 28.0886 122.683 26.2494 121.592C26.0001 121.443 25.7397 121.379 25.4863 121.379C24.5929 121.379 23.7995 122.205 23.9954 123.214L27.7343 142.709C28.1219 144.753 29.3555 146.547 31.1119 147.619C31.337 147.758 31.5782 147.819 31.8165 147.819ZM21.3668 142.52C22.2147 142.52 23.0142 141.732 22.8446 140.797L19.3025 121.365C18.9139 119.238 17.6349 117.381 15.7937 116.298C15.5444 116.149 15.2829 116.082 15.0286 116.082C14.1372 116.082 13.3448 116.904 13.5407 117.914L17.2796 137.416C17.6672 139.457 18.9068 141.245 20.6652 142.321C20.8893 142.462 21.1296 142.52 21.3668 142.52ZM44.5161 128.674L50.5717 163.322L13.0521 141.675L6.14453 105.633L44.5161 128.674Z" stroke="black" stroke-linejoin="round"/>
<path fill-rule="evenodd" clip-rule="evenodd" d="M13.5159 116.082C13.7702 116.082 14.0317 116.149 14.282 116.298C16.1212 117.383 17.4022 119.238 17.7888 121.365L21.3309 140.797C21.5015 141.732 20.697 142.521 19.8501 142.521C19.6139 142.521 19.3756 142.462 19.1515 142.321C17.387 141.246 16.1555 139.458 15.7669 137.417L12.028 117.914C11.8321 116.905 12.6245 116.082 13.5159 116.082ZM23.9726 121.38C24.226 121.38 24.4874 121.443 24.7367 121.593C26.5749 122.683 27.8559 124.54 28.2445 126.66L31.7785 146.094C31.9491 147.026 31.1517 147.82 30.3038 147.82C30.0665 147.82 29.8243 147.758 29.6002 147.619C27.8418 146.547 26.6092 144.753 26.2226 142.709L22.4837 123.215C22.2858 122.205 23.0823 121.38 23.9726 121.38ZM35.2217 128.633C35.4761 128.633 35.7375 128.699 35.9879 128.849C37.82 129.941 39.108 131.794 39.4886 133.916L43.0307 153.349C43.2003 154.281 42.3998 155.073 41.5519 155.073C41.3147 155.073 41.0754 155.011 40.8503 154.874C39.0929 153.803 37.8604 152.01 37.4657 149.965L33.7268 130.47C33.535 129.461 34.3274 128.633 35.2217 128.633ZM13.526 142.909L13.5249 142.908L51.9097 165.544L51.1758 164.799L44.3107 129.007L4.63184 105.633L11.4708 141.494L11.5525 141.544C11.6454 141.727 11.7706 141.873 11.925 141.965C12.3066 142.191 12.6881 142.415 13.0707 142.64L13.5229 142.907C13.5239 142.907 13.5249 142.908 13.526 142.909Z" fill="white"/>
<path fill-rule="evenodd" clip-rule="evenodd" d="M13.5159 116.082C13.7702 116.082 14.0317 116.149 14.282 116.298C16.1212 117.383 17.4022 119.238 17.7888 121.365L21.3309 140.797C21.5015 141.732 20.697 142.521 19.8501 142.521C19.6139 142.521 19.3756 142.462 19.1515 142.321C17.387 141.246 16.1555 139.458 15.7669 137.417L12.028 117.914C11.8321 116.905 12.6245 116.082 13.5159 116.082ZM23.9726 121.38C24.226 121.38 24.4874 121.443 24.7367 121.593C26.5749 122.683 27.8559 124.54 28.2445 126.66L31.7785 146.094C31.9491 147.026 31.1517 147.82 30.3038 147.82C30.0665 147.82 29.8243 147.758 29.6002 147.619C27.8418 146.547 26.6092 144.753 26.2226 142.709L22.4837 123.215C22.2858 122.205 23.0823 121.38 23.9726 121.38ZM35.2217 128.633C35.4761 128.633 35.7375 128.699 35.9879 128.849C37.82 129.941 39.108 131.794 39.4886 133.916L43.0307 153.349C43.2003 154.281 42.3998 155.073 41.5519 155.073C41.3147 155.073 41.0754 155.011 40.8503 154.874C39.0929 153.803 37.8604 152.01 37.4657 149.965L33.7268 130.47C33.535 129.461 34.3274 128.633 35.2217 128.633ZM13.526 142.909L13.5249 142.908L51.9097 165.544L51.1758 164.799L44.3107 129.007L4.63184 105.633L11.4708 141.494L11.5525 141.544C11.6454 141.727 11.7706 141.873 11.925 141.965C12.3066 142.191 12.6881 142.415 13.0707 142.64L13.5229 142.907C13.5239 142.907 13.5249 142.908 13.526 142.909Z" stroke="black" stroke-linejoin="round"/>
<path fill-rule="evenodd" clip-rule="evenodd" d="M42.835 130.163C30.0353 122.621 17.2357 115.081 4.43407 107.543C4.16657 107.384 4 107.05 4 106.574C3.99799 105.618 4.66119 104.456 5.48388 103.976L43.8848 126.596C43.0641 127.077 42.3989 128.237 42.4019 129.196C42.4029 129.67 42.5685 130.004 42.835 130.163Z" fill="white"/>
<mask id="mask32" mask-type="alpha" maskUnits="userSpaceOnUse" x="4" y="103" width="41" height="27">
<path d="M4.00586 106.03C4.00586 106.513 4.17437 106.852 4.44603 107.013C17.3968 114.663 30.3477 122.318 43.2964 129.972C43.0268 129.811 42.8593 129.47 42.8583 128.991C42.8562 128.018 43.5282 126.841 44.3585 126.352L5.50714 103.393C4.6748 103.881 4.00484 105.058 4.00586 106.03Z" fill="white"/>
</mask>
<g mask="url(#mask32)">
<path fill-rule="evenodd" clip-rule="evenodd" d="M43.2964 129.972L4.44502 107.014C4.17438 106.852 4.00586 106.513 4.00586 106.03C4.00383 105.059 4.6748 103.881 5.50715 103.393L44.3586 126.352C43.5283 126.84 42.8552 128.018 42.8583 128.991C42.8593 129.471 43.0268 129.811 43.2964 129.972Z" fill="white"/>
</g>
<mask id="mask33" mask-type="alpha" maskUnits="userSpaceOnUse" x="4" y="103" width="41" height="27">
<path d="M4.00586 106.03C4.00586 106.513 4.17437 106.852 4.44603 107.013C17.3968 114.663 30.3477 122.318 43.2964 129.972C43.0268 129.811 42.8593 129.47 42.8583 128.991C42.8562 128.018 43.5282 126.841 44.3585 126.352L5.50714 103.393C4.6748 103.881 4.00484 105.058 4.00586 106.03Z" fill="white"/>
</mask>
<g mask="url(#mask33)">
<path fill-rule="evenodd" clip-rule="evenodd" d="M43.2964 129.972L4.44502 107.014C4.17438 106.852 4.00586 106.513 4.00586 106.03C4.00383 105.059 4.6748 103.881 5.50715 103.393L44.3586 126.352C43.5283 126.84 42.8552 128.018 42.8583 128.991C42.8593 129.471 43.0268 129.811 43.2964 129.972Z" stroke="black" stroke-linejoin="round"/>
</g>
<path fill-rule="evenodd" clip-rule="evenodd" d="M43.0483 129.369C30.1793 121.871 17.3104 114.374 4.43935 106.88C4.1704 106.721 4.00293 106.39 4.00293 105.917C4.00091 104.966 4.6677 103.811 5.49485 103.333L44.1038 125.823C43.2787 126.301 42.6099 127.455 42.6129 128.408C42.6139 128.879 42.7804 129.212 43.0483 129.369Z" stroke="black" stroke-linejoin="round"/>
<path fill-rule="evenodd" clip-rule="evenodd" d="M128.293 62.7423C128.293 62.7413 127.193 62.0923 127.192 62.0923L99.3861 47.4471C99.0887 47.2853 98.7396 47.2172 98.362 47.2711C97.3136 47.4186 96.4581 48.4552 96.4561 49.5955C96.4561 50.331 96.8082 50.9261 97.3421 51.216L120.808 64.5683L115.136 68.1764L103.322 88.2293L105.468 89.4775L117.283 69.4246L123.516 65.8175L124.923 66.2895C124.914 66.3444 125.43 66.6933 125.432 66.1216C125.435 64.9823 128.45 63.5571 129.43 63.959C129.43 63.959 128.514 62.8339 128.293 62.7423Z" fill="white"/>
<path fill-rule="evenodd" clip-rule="evenodd" d="M128.293 62.7423C128.293 62.7413 127.193 62.0923 127.192 62.0923L99.3861 47.4471C99.0887 47.2853 98.7396 47.2172 98.362 47.2711C97.3136 47.4186 96.4581 48.4552 96.4561 49.5955C96.4561 50.331 96.8082 50.9261 97.3421 51.216L120.808 64.5683L115.136 68.1764L103.322 88.2293L105.468 89.4775L117.283 69.4246L123.516 65.8175L124.923 66.2895C124.914 66.3444 125.43 66.6933 125.432 66.1216C125.435 64.9823 128.45 63.5571 129.43 63.959C129.43 63.959 128.514 62.8339 128.293 62.7423Z" stroke="black" stroke-linejoin="round"/>
<path fill-rule="evenodd" clip-rule="evenodd" d="M125.444 65.5391L123.517 65.8178L120.577 67.5186L117.283 69.4249L106.225 88.6752L108.12 88.2846C108.331 88.1645 108.37 88.2998 108.529 88.3354L108.717 88.1574L108.746 88.0862C108.78 88.1015 108.858 88.0354 108.889 88.0598L109.249 87.8695L118.307 72.1501L123.026 69.427L123.31 69.2133L125.431 70.371L125.444 65.5391Z" fill="white"/>
<path fill-rule="evenodd" clip-rule="evenodd" d="M125.444 65.5391L123.517 65.8178L120.577 67.5186L117.283 69.4249L106.225 88.6752L108.12 88.2846C108.331 88.1645 108.37 88.2998 108.529 88.3354L108.717 88.1574L108.746 88.0862C108.78 88.1015 108.858 88.0354 108.889 88.0598L109.249 87.8695L118.307 72.1501L123.026 69.427L123.31 69.2133L125.431 70.371L125.444 65.5391Z" stroke="black" stroke-linejoin="round"/>
<path fill-rule="evenodd" clip-rule="evenodd" d="M95.1268 108.956C95.1237 107.985 94.7807 107.302 94.2306 106.982C93.6937 106.669 93.1579 106.356 92.622 106.044C93.1731 106.364 93.5151 107.047 93.5172 108.019L93.5791 129.754C93.5841 131.713 92.21 134.1 90.508 135.084L88.5035 136.246C87.65 136.739 86.8756 136.785 86.3164 136.46C86.8533 136.774 87.3892 137.083 87.924 137.397C88.4832 137.723 89.2586 137.675 90.1132 137.183L92.1176 136.021C93.8186 135.037 95.1928 132.65 95.1887 130.692L95.1268 108.956Z" fill="white"/>
<path fill-rule="evenodd" clip-rule="evenodd" d="M95.1268 108.956C95.1237 107.985 94.7807 107.302 94.2306 106.982C93.6937 106.669 93.1579 106.356 92.622 106.044C93.1731 106.364 93.5151 107.047 93.5172 108.019L93.5791 129.754C93.5841 131.713 92.21 134.1 90.508 135.084L88.5035 136.246C87.65 136.739 86.8756 136.785 86.3164 136.46C86.8533 136.774 87.3892 137.083 87.924 137.397C88.4832 137.723 89.2586 137.675 90.1132 137.183L92.1176 136.021C93.8186 135.037 95.1928 132.65 95.1887 130.692L95.1268 108.956Z" stroke="black" stroke-linejoin="round"/>
<path fill-rule="evenodd" clip-rule="evenodd" d="M81.8592 116.634C81.8561 115.662 81.5141 114.979 80.963 114.659L79.3544 113.722C79.9055 114.041 80.2475 114.725 80.2495 115.696L80.3145 137.431C80.3165 139.39 78.9433 141.777 77.2424 142.762L75.2369 143.923C74.3834 144.416 73.609 144.461 73.0498 144.134L74.6584 145.072C75.2176 145.397 75.993 145.353 76.8445 144.86L78.852 143.698C80.551 142.714 81.9262 140.327 81.9211 138.368L81.8592 116.634Z" fill="white"/>
<path fill-rule="evenodd" clip-rule="evenodd" d="M81.8592 116.634C81.8561 115.662 81.5141 114.979 80.963 114.659L79.3544 113.722C79.9055 114.041 80.2475 114.725 80.2495 115.696L80.3145 137.431C80.3165 139.39 78.9433 141.777 77.2424 142.762L75.2369 143.923C74.3834 144.416 73.609 144.461 73.0498 144.134L74.6584 145.072C75.2176 145.397 75.993 145.353 76.8445 144.86L78.852 143.698C80.551 142.714 81.9262 140.327 81.9211 138.368L81.8592 116.634Z" stroke="black" stroke-linejoin="round"/>
<path fill-rule="evenodd" clip-rule="evenodd" d="M68.5926 124.311C68.5905 123.339 68.2475 122.656 67.6964 122.335L66.0888 121.398C66.6409 121.719 66.9829 122.401 66.985 123.374L67.0469 145.108C67.0509 147.066 65.6757 149.455 63.9758 150.439L61.9703 151.6C61.1168 152.094 60.3444 152.137 59.7832 151.812L61.3918 152.749C61.9521 153.074 62.7264 153.03 63.58 152.534L65.5854 151.375C67.2854 150.392 68.6606 148.004 68.6555 146.046L68.5926 124.311Z" fill="white"/>
<path fill-rule="evenodd" clip-rule="evenodd" d="M68.5926 124.311C68.5905 123.339 68.2475 122.656 67.6964 122.335L66.0888 121.398C66.6409 121.719 66.9829 122.401 66.985 123.374L67.0469 145.108C67.0509 147.066 65.6757 149.455 63.9758 150.439L61.9703 151.6C61.1168 152.094 60.3444 152.137 59.7832 151.812L61.3918 152.749C61.9521 153.074 62.7264 153.03 63.58 152.534L65.5854 151.375C67.2854 150.392 68.6606 148.004 68.6555 146.046L68.5926 124.311Z" stroke="black" stroke-linejoin="round"/>
<path fill-rule="evenodd" clip-rule="evenodd" d="M100.304 131.283L105.649 99.3203L103.295 100.681C101.595 101.665 100.225 104.044 100.233 106.001L100.304 131.283ZM55.3987 157.27L55.3277 131.988C55.3216 130.031 53.9362 129.243 52.2414 130.225L49.8908 131.587L55.3987 157.27ZM95.1881 130.692L95.1261 108.957C95.1211 106.998 93.7357 106.213 92.0368 107.197L90.0313 108.357C88.3303 109.341 86.9602 111.721 86.9643 113.678L87.0272 135.415C87.0323 137.372 88.4115 138.168 90.1125 137.183L92.118 136.021C93.8179 135.037 95.1931 132.65 95.1881 130.692ZM81.9212 138.369L81.8593 116.635C81.8542 114.676 80.4719 113.891 78.7699 114.874L76.7635 116.035C75.0686 117.016 73.6924 119.398 73.6984 121.357L73.7594 143.092C73.7665 145.049 75.1498 145.841 76.8447 144.861L78.8521 143.698C80.5511 142.714 81.9273 140.327 81.9212 138.369ZM68.6554 146.047L68.5925 124.311C68.5864 122.354 67.2041 121.566 65.5031 122.553L63.4966 123.713C61.8018 124.693 60.4276 127.076 60.4326 129.034L60.4935 150.769C60.4986 152.727 61.884 153.516 63.5788 152.535L65.5853 151.376C67.2853 150.392 68.6605 148.004 68.6554 146.047ZM44.6377 128.894L111.015 90.4814L105.235 132.425C105.088 133.525 104.327 134.701 103.439 135.214L53.2096 164.281C52.3195 164.795 51.5451 164.516 51.3665 163.608L44.6377 128.894Z" fill="white"/>
<path fill-rule="evenodd" clip-rule="evenodd" d="M100.304 131.283L105.649 99.3203L103.295 100.681C101.595 101.665 100.225 104.044 100.233 106.001L100.304 131.283ZM55.3987 157.27L55.3277 131.988C55.3216 130.031 53.9362 129.243 52.2414 130.225L49.8908 131.587L55.3987 157.27ZM95.1881 130.692L95.1261 108.957C95.1211 106.998 93.7357 106.213 92.0368 107.197L90.0313 108.357C88.3303 109.341 86.9602 111.721 86.9643 113.678L87.0272 135.415C87.0323 137.372 88.4115 138.168 90.1125 137.183L92.118 136.021C93.8179 135.037 95.1931 132.65 95.1881 130.692ZM81.9212 138.369L81.8593 116.635C81.8542 114.676 80.4719 113.891 78.7699 114.874L76.7635 116.035C75.0686 117.016 73.6924 119.398 73.6984 121.357L73.7594 143.092C73.7665 145.049 75.1498 145.841 76.8447 144.861L78.8521 143.698C80.5511 142.714 81.9273 140.327 81.9212 138.369ZM68.6554 146.047L68.5925 124.311C68.5864 122.354 67.2041 121.566 65.5031 122.553L63.4966 123.713C61.8018 124.693 60.4276 127.076 60.4326 129.034L60.4935 150.769C60.4986 152.727 61.884 153.516 63.5788 152.535L65.5853 151.376C67.2853 150.392 68.6605 148.004 68.6554 146.047ZM44.6377 128.894L111.015 90.4814L105.235 132.425C105.088 133.525 104.327 134.701 103.439 135.214L53.2096 164.281C52.3195 164.795 51.5451 164.516 51.3665 163.608L44.6377 128.894Z" stroke="black" stroke-linejoin="round"/>
<path fill-rule="evenodd" clip-rule="evenodd" d="M112.03 86.7533L113.638 87.6901C113.365 87.5325 112.989 87.5548 112.572 87.7949L110.964 86.858C111.379 86.6169 111.755 86.5956 112.03 86.7533Z" fill="white"/>
<mask id="mask34" mask-type="alpha" maskUnits="userSpaceOnUse" x="110" y="87" width="4" height="2">
<path d="M110.579 87.575L112.065 88.8043C112.45 88.4883 112.798 88.4577 113.049 88.6657L111.563 87.4377C111.458 87.351 111.335 87.3057 111.199 87.3057C111.012 87.3057 110.801 87.3923 110.579 87.575Z" fill="white"/>
</mask>
<g mask="url(#mask34)">
<path fill-rule="evenodd" clip-rule="evenodd" d="M112.065 88.8039L110.579 87.5746C110.963 87.2599 111.31 87.2306 111.563 87.4386L113.049 88.6653C112.797 88.4586 112.449 88.4893 112.065 88.8039Z" fill="white"/>
</g>
<mask id="mask35" mask-type="alpha" maskUnits="userSpaceOnUse" x="110" y="87" width="4" height="2">
<path d="M110.579 87.575L112.065 88.8043C112.45 88.4883 112.798 88.4577 113.049 88.6657L111.563 87.4377C111.458 87.351 111.335 87.3057 111.199 87.3057C111.012 87.3057 110.801 87.3923 110.579 87.575Z" fill="white"/>
</mask>
<g mask="url(#mask35)">
<path fill-rule="evenodd" clip-rule="evenodd" d="M112.065 88.8039L110.579 87.5746C110.963 87.2599 111.31 87.2306 111.563 87.4386L113.049 88.6653C112.797 88.4586 112.449 88.4893 112.065 88.8039Z" stroke="black" stroke-linejoin="round"/>
</g>
<path fill-rule="evenodd" clip-rule="evenodd" d="M112.406 87.2369L114.013 88.1759C113.74 88.0179 113.364 88.0403 112.948 88.281L111.341 87.3419C111.756 87.1003 112.132 87.0788 112.406 87.2369Z" stroke="black" stroke-linejoin="round"/>
<path fill-rule="evenodd" clip-rule="evenodd" d="M45.8935 127.206L44.2852 126.266L111.34 87.3408L112.948 88.2809L45.8935 127.206Z" fill="white"/>
<path fill-rule="evenodd" clip-rule="evenodd" d="M45.8935 127.206L44.2852 126.266L111.34 87.3408L112.948 88.2809L45.8935 127.206Z" stroke="black" stroke-linejoin="round"/>
<path fill-rule="evenodd" clip-rule="evenodd" d="M44.8442 130.766C44.3088 130.451 43.7713 130.141 43.2369 129.826C42.9681 129.668 42.8008 129.335 42.8008 128.86C42.7968 127.905 43.461 126.747 44.2854 126.267L45.8938 127.207C45.0693 127.686 44.4041 128.845 44.4071 129.8C44.4081 130.275 44.5745 130.61 44.8442 130.766Z" fill="white"/>
<path fill-rule="evenodd" clip-rule="evenodd" d="M44.8442 130.766C44.3088 130.451 43.7713 130.141 43.2369 129.825C42.9681 129.667 42.8008 129.334 42.8008 128.86C42.7968 127.904 43.461 126.745 44.2854 126.265L45.8938 127.205C45.0693 127.684 44.4041 128.844 44.4071 129.799C44.4081 130.274 44.5745 130.61 44.8442 130.766Z" stroke="black" stroke-linejoin="round"/>
<path fill-rule="evenodd" clip-rule="evenodd" d="M112.948 88.265C113.774 87.7846 114.446 88.1722 114.448 89.1238C114.45 90.0785 113.784 91.2403 112.958 91.7207L45.902 130.662C45.0776 131.14 44.4093 130.753 44.4072 129.799C44.4042 128.845 45.0684 127.684 45.8939 127.206L112.948 88.265Z" fill="white"/>
<path fill-rule="evenodd" clip-rule="evenodd" d="M112.948 88.265C113.774 87.7846 114.446 88.1722 114.448 89.1238C114.45 90.0785 113.784 91.2403 112.958 91.7207L45.902 130.662C45.0776 131.14 44.4093 130.753 44.4072 129.799C44.4042 128.845 45.0684 127.684 45.8939 127.206L112.948 88.265Z" stroke="black" stroke-linejoin="round"/>
</g>
<defs>
<clipPath id="clip0">
<rect width="140" height="140" fill="white"/>
</clipPath>
</defs>
</svg>
