<svg width="120" height="120" viewBox="0 0 120 120" fill="none" xmlns="http://www.w3.org/2000/svg">
<path d="M75.8732 53.8746L75.9927 53.7344V53.5502V50.3774H75.4927V42.4454H75.9927V36.0999H75.4927V28.1679H75.9927V24.9951V24.4951H75.4927H71.1778V24.9951H60.3903V24.4951H56.0753H55.5753V24.9951V28.1679H56.0753V36.0999H55.5753V42.4454H56.0753V50.3774H55.5753V53.3661L52.7757 56.6525L53.1564 56.9768L45.859 65.5433L45.4783 65.219L39.6404 72.0722L40.021 72.3965L32.7236 80.963L32.343 80.6388L29.4241 84.0654L29.2652 84.2518L29.3152 84.4916L30.1613 88.5527L30.6508 88.4508L32.766 98.6037L32.2765 98.7056L33.1225 102.767L33.3306 103.765L33.9925 102.989L36.3192 100.261L35.9387 99.9362L41.7555 93.1147L42.136 93.4392L46.7894 87.982L46.4089 87.6576L52.2257 80.8361L52.6061 81.1605L57.2596 75.7033L56.8791 75.3789L62.6959 68.5574L63.0763 68.8818L67.7297 63.4246L67.3493 63.1002L73.166 56.2787L73.5465 56.6032L75.8732 53.8746Z" fill="#F7F6FC" stroke="black" stroke-dasharray="8 10"/>
<path d="M48.989 83.8896L48.8393 84.0649L45.3704 88.1261L45.7506 88.4508L37.0783 98.6037L36.6981 98.279L33.2292 102.34L32.5247 103.165H33.6094H38.2346V102.665H49.7976V103.165H59.048V102.665H70.6111V103.165H79.8615V102.665H91.4245V103.165H96.0497H97.2391L96.407 102.315L92.4304 98.2539L92.0732 98.6037L82.1318 88.4508L82.489 88.101L78.5125 84.0398L78.3654 83.8896H78.1552H74.9402V84.3896H66.9024V83.8896H60.4723V84.3896H52.4345V83.8896H49.2195H48.989Z" fill="#F7F6FC" stroke="black" stroke-dasharray="8 10"/>
<path d="M66.7298 73.0327L66.446 73.3805L66.7613 73.7L69.9764 76.9574L70.3323 76.6061L78.37 84.7496L78.0141 85.1008L84.4443 91.6156L84.8002 91.2644L92.8379 99.4079L92.482 99.7591L95.6971 103.016L96.3154 103.643L96.5369 102.791L97.6368 98.5607L97.1529 98.4349L99.9026 87.8589L100.387 87.9848L101.486 83.7544L101.554 83.4954L101.376 83.2957L98.922 80.5459L98.5489 80.8788L92.4148 74.0045L92.7879 73.6716L87.8807 68.1721L87.5076 68.505L81.3736 61.6306L81.7466 61.2977L79.293 58.548L78.9029 58.1108L78.5325 58.5648L75.9097 61.7799L76.2971 62.0959L69.74 70.1337L69.3526 69.8176L66.7298 73.0327Z" fill="#F7F6FC" stroke="black" stroke-dasharray="8 10"/>
<path d="M44.2706 17H63.6881V45.555L21.8073 94.6697L18 76.3945L44.2706 45.555V17Z" fill="url(#paint0_linear)"/>
<path d="M37.4148 76.3945L21.8047 94.6698H84.245L66.3505 76.3945H37.4148Z" fill="#11466E"/>
<path d="M55.3125 65.3527L67.1152 50.8848L89.1978 75.6325L84.2483 94.6692L55.3125 65.3527Z" fill="#0078AF"/>
<defs>
<linearGradient id="paint0_linear" x1="40.844" y1="17" x2="40.844" y2="94.6697" gradientUnits="userSpaceOnUse">
<stop stop-color="#008DC1"/>
<stop offset="0.401961" stop-color="#0078AF"/>
<stop offset="1" stop-color="#3ABCE6"/>
</linearGradient>
</defs>
</svg>
