<?xml version="1.0" encoding="utf-8"?>
<!-- Generator: Adobe Illustrator 22.1.0, SVG Export Plug-In . SVG Version: 6.00 Build 0)  -->
<svg version="1.1" id="Слой_1" xmlns="http://www.w3.org/2000/svg" xmlns:xlink="http://www.w3.org/1999/xlink" x="0px" y="0px"
	 viewBox="0 0 808 449" style="enable-background:new 0 0 808 449;" xml:space="preserve">
<style type="text/css">
	.st0{opacity:0.36;fill:none;stroke:#979797;enable-background:new    ;}
	.st1{opacity:0.168;fill:none;stroke:#979797;enable-background:new    ;}
	.st2{fill:#D9D9F9;}
	
		.st3{fill:#7679EB;fill-opacity:8.000000e-02;stroke:#000000;stroke-width:2;stroke-linecap:round;stroke-linejoin:round;stroke-dasharray:4,8;}
	.st4{fill:#FFFFFF;}
	.st5{fill:none;stroke:#000000;stroke-width:2;stroke-linejoin:round;}
	.st6{fill:#9595EF;}
	.st7{fill:none;stroke:#000000;stroke-width:2;stroke-linecap:round;stroke-linejoin:round;}
	.st8{display:none;}
	.st9{display:inline;fill:#FFFFFF;}
	.st10{display:inline;fill:none;stroke:#000000;stroke-width:2;stroke-linejoin:round;}
	.st11{display:inline;}
	.st12{display:inline;fill:none;stroke:#000000;stroke-width:2;}
	
		.st13{display:inline;fill:#9D80F9;fill-opacity:8.000000e-02;stroke:#000000;stroke-width:2;stroke-linecap:round;stroke-linejoin:round;stroke-dasharray:4,8;}
	.st14{fill:none;stroke:#9595EF;stroke-width:2;stroke-linecap:round;}
	.st15{display:inline;fill:#FFFFFF;stroke:#000000;stroke-width:2;}
	.st16{display:inline;fill:#9595EF;}
	.st17{display:inline;fill:none;stroke:#000000;stroke-width:1.761;}
</style>
<g transform="translate(1 1)">
	<path class="st0" d="M322.2,63.6C220.7,98.3,133.2,92.2,124,207.4c-8.6,107,93.8,179.3,355.8,151.8C711,334.8,771.2,239,715.4,155
		C687.5,113.1,600.8,48.1,523,30.9C445.2,13.6,372.5,46.4,322.2,63.6"/>
	<path class="st1" d="M290.7,55.5C173.3,95.7,72.2,88.5,61.6,221.8c-9.9,123.7,108.5,207.4,411.5,175.5
		c267.3-28.1,337-138.9,272.5-236C713.2,112.7,613,37.6,523,17.6C433.1-2.3,348.9,35.6,290.7,55.5"/>
	<path class="st1" d="M0.6,239.1c-11.3,141,123.7,236.4,469.1,200.1c304.8-32,384.2-158.4,310.6-269.1
		c-36.8-55.4-151-141-253.6-163.7C424.2-16.3,328.2,27,261.9,49.6C128.1,95.4,12.8,87.2,0.6,239.1z"/>
	<g transform="translate(163 38)">
		<path class="st2" d="M171.5,32.8C83.9,62.7,8.4,57.4,0.4,156.9c-7.4,92.4,81,154.8,307.2,131c199.6-21,251.6-103.7,203.4-176.2
			C486.9,75.5,412.1,19.4,344.9,4.5C277.8-10.4,214.9,17.9,171.5,32.8"/>
	</g>
</g>
<g transform="translate(1 1)">
	<path class="st3" d="M456.1,96.5L194,246.6c-10.1,5.8-10.1,20.4,0,26.2l128.8,74c13.1,7.5,29.2,7.7,42.4,0.3l266.4-147.4
		c10.3-5.7,10.4-20.4,0.3-26.2L499.2,96.6C485.9,88.8,469.5,88.8,456.1,96.5z"/>
	<path class="st4" d="M645.2,160.6L645.2,160.6l0.2-32.9l-42.5,1.6l-97.7-56.7c-13.3-7.7-29.8-7.8-43.1-0.1L262.7,186.8l-70.2,17.4
		l-0.2,31.6c0,5.1,2.5,10.2,7.6,13.1l128.8,74c13.1,7.5,29.2,7.7,42.4,0.3l266.4-147.4C643.4,172.6,646,166.4,645.2,160.6"/>
	<path class="st5" d="M645.2,160.6L645.2,160.6l0.2-32.9l-42.5,1.6l-97.7-56.7c-13.3-7.7-29.8-7.8-43.1-0.1L262.7,186.8l-70.2,17.4
		l-0.2,31.6c0,5.1,2.5,10.2,7.6,13.1l128.8,74c13.1,7.5,29.2,7.7,42.4,0.3l266.4-147.4C643.4,172.6,646,166.4,645.2,160.6z"/>
	<path class="st4" d="M462.3,39.7L200.1,189.9c-10.1,5.8-10.1,20.4,0,26.2L329,290c13.1,7.5,29.2,7.7,42.4,0.3L637.8,143
		c10.2-5.7,10.4-20.4,0.3-26.2l-132.7-77C492.1,32.1,475.6,32.1,462.3,39.7"/>
	<path class="st5" d="M462.3,39.7L200.1,189.9c-10.1,5.8-10.1,20.4,0,26.2L329,290c13.1,7.5,29.2,7.7,42.4,0.3L637.8,143
		c10.2-5.7,10.4-20.4,0.3-26.2l-132.7-77C492.1,32.1,475.6,32.1,462.3,39.7z"/>
	<path class="st6" d="M468.2,58.1l-215,121c-7.7,4.4-7.7,15.4,0,19.8l97.6,56.1c9.9,5.7,22.1,5.8,32.1,0.3l217-121.3
		c7.8-4.3,7.9-15.4,0.2-19.9l-99.3-55.8C490.8,52.4,478.3,52.3,468.2,58.1"/>
	<path class="st4" d="M295.2,243.8c-6.7,4-17.3,4.1-24.7,0c-7.3-4.1-8.3-9.4-1.3-13.4s17.1-4.5,24.3-0.5
		C300.7,233.9,301.9,239.8,295.2,243.8"/>
	<path class="st7" d="M295.2,243.8c-6.7,4-17.3,4.1-24.7,0c-7.3-4.1-8.3-9.4-1.3-13.4s17.1-4.5,24.3-0.5
		C300.7,233.9,301.9,239.8,295.2,243.8z"/>
</g>
<g transform="translate(1 1)" class="st8">
	<path class="st9" d="M620.7,96.6v16.3c5.2,3.7,14.4,5.5,22.5,5.3c8-0.2,16.7-2,22.2-5.7V96.2L620.7,96.6z"/>
	<path class="st10" d="M620.7,96.6v16.3c5.2,3.7,14.4,5.5,22.5,5.3c8-0.2,16.7-2,22.2-5.7V96.2L620.7,96.6z"/>
	<path class="st9" d="M639.6,127.1c-6.9-5.3-20.1-6.9-24-9.4s-5.4-8.8-12-12.7c-9.3-5.6-23.4-7.5-34-5.8
		c-15.3,3.6-32.6,10.1-41.8,23.6l-6.3-1V141l0,0c0.1,2.8,1.3,5.4,4.4,7.3c6.3,3.8,12.6,3.1,19.7,7.9c7.1,4.8,4.8,8.4,11.2,12.6
		c6.5,4.3,17,3.8,27.5,3.1c12.2-0.8,21.6-3.3,22.1-3.5c-0.1-0.1-7.5-11.5,9-20.2c13.7-7.3,30.7-4.1,31.5-4
		C647.7,133.8,642.7,129.2,639.6,127.1"/>
	<path class="st10" d="M639.6,127.1c-6.9-5.3-20.1-6.9-24-9.4s-5.4-8.8-12-12.7c-9.3-5.6-23.4-7.5-34-5.8
		c-15.3,3.6-32.6,10.1-41.8,23.6l-6.3-1V141l0,0c0.1,2.8,1.3,5.4,4.4,7.3c6.3,3.8,12.6,3.1,19.7,7.9c7.1,4.8,4.8,8.4,11.2,12.6
		c6.5,4.3,17,3.8,27.5,3.1c12.2-0.8,21.6-3.3,22.1-3.5c-0.1-0.1-7.5-11.5,9-20.2c13.7-7.3,30.7-4.1,31.5-4
		C647.7,133.8,642.7,129.2,639.6,127.1z"/>
	<path class="st9" d="M615.3,130.8c13.7-7.3,30.7-4.1,31.5-4c3.6-8.6-4.2-15-7.4-17.1c-6.9-5.3-20.1-6.9-24-9.4s-5.4-8.8-12-12.7
		c-9.3-5.6-23.4-7.5-34-5.8c-18.2,4.3-39.4,12.6-46.1,32.2c-2.1,6-4.1,13,2.5,16.9c6.3,3.8,12.6,3.1,19.7,7.9
		c7.1,4.8,4.8,8.4,11.2,12.6c6.5,4.3,17,3.8,27.5,3.1c12.2-0.8,21.6-3.3,22.1-3.5C606.3,150.8,598.9,139.4,615.3,130.8"/>
	<path class="st10" d="M615.3,130.8c13.7-7.3,30.7-4.1,31.5-4c3.6-8.6-4.2-15-7.4-17.1c-6.9-5.3-20.1-6.9-24-9.4s-5.4-8.8-12-12.7
		c-9.3-5.6-23.4-7.5-34-5.8c-18.2,4.3-39.4,12.6-46.1,32.2c-2.1,6-4.1,13,2.5,16.9c6.3,3.8,12.6,3.1,19.7,7.9
		c7.1,4.8,4.8,8.4,11.2,12.6c6.5,4.3,17,3.8,27.5,3.1c12.2-0.8,21.6-3.3,22.1-3.5C606.3,150.8,598.9,139.4,615.3,130.8z"/>
	<g transform="translate(77 69.255)" class="st11">
		<polyline class="st4" points="521.6,83.4 529.4,81.7 529.5,99.2 522.5,100.8 		"/>
		<polyline class="st7" points="521.6,83.4 529.4,81.7 529.5,99.2 522.5,100.8 		"/>
	</g>
	<g transform="translate(113 44.255)" class="st11">
		<path class="st4" d="M522.2,81.8c6.1,0,11.5,0.8,11.5,0.8l0.2,17.5c0,0-4.8-0.9-8.1-0.8"/>
		<path class="st7" d="M522.2,81.8c6.1,0,11.5,0.8,11.5,0.8l0.2,17.5c0,0-4.8-0.9-8.1-0.8"/>
	</g>
	<path class="st9" d="M643.1,101.9c8-0.2,16.7-2,22.2-5.7c-5.3-3-14.8-5.1-22.9-5c-7.2,0.1-16.4,1.6-21.7,5.3
		C625.9,100.3,635.1,102.1,643.1,101.9"/>
	<path class="st10" d="M643.1,101.9c8-0.2,16.7-2,22.2-5.7c-5.3-3-14.8-5.1-22.9-5c-7.2,0.1-16.4,1.6-21.7,5.3
		C625.9,100.3,635.1,102.1,643.1,101.9z"/>
</g>
<g transform="translate(1 1)" class="st8">
	<path class="st9" d="M352.3,113.3v8.6c-2.2-2.5-5.3-5-9.1-7.1c-5.1-2.9-11.3-5.1-17.2-6.6c-0.9-0.2-1.6-0.8-1.6-1.3
		c-0.2-3.6-0.4-5.4-0.7-8.8c-0.1-1.2-2-2.2-4.2-2.2c-2,0-3.5,1-3.5,2.1c0.1,2.8,0.2,4.3,0.2,7.3c0,0.8-1.3,1.5-2.8,1.4
		c-7.8-0.5-15.6,0.4-23.2,2.4v-5h-20.1v14.7l0,0c0,0.5,0.2,0.9,0.8,1.2c20.9,11.6,41.5,23.7,62.2,35.6c1.2,0.7,3.3,0.5,4.8-0.4
		c1.1-0.6,1.6-0.9,2.7-1.6c11.6-6.7,17.9-14.7,16.4-22.2c-0.2-0.8,1-1.6,2.5-1.6c5.2-0.1,7.7-0.1,12.6-0.2c1.9,0,3.5-0.9,3.5-2
		v-14.4L352.3,113.3L352.3,113.3z"/>
	<path class="st10" d="M352.3,113.3v8.6c-2.2-2.5-5.3-5-9.1-7.1c-5.1-2.9-11.3-5.1-17.2-6.6c-0.9-0.2-1.6-0.8-1.6-1.3
		c-0.2-3.6-0.4-5.4-0.7-8.8c-0.1-1.2-2-2.2-4.2-2.2c-2,0-3.5,1-3.5,2.1c0.1,2.8,0.2,4.3,0.2,7.3c0,0.8-1.3,1.5-2.8,1.4
		c-7.8-0.5-15.6,0.4-23.2,2.4v-5h-20.1v14.7l0,0c0,0.5,0.2,0.9,0.8,1.2c20.9,11.6,41.5,23.7,62.2,35.6c1.2,0.7,3.3,0.5,4.8-0.4
		c1.1-0.6,1.6-0.9,2.7-1.6c11.6-6.7,17.9-14.7,16.4-22.2c-0.2-0.8,1-1.6,2.5-1.6c5.2-0.1,7.7-0.1,12.6-0.2c1.9,0,3.5-0.9,3.5-2
		v-14.4L352.3,113.3L352.3,113.3z"/>
	<path class="st9" d="M328.3,160c0-0.1,0-0.2,0-0.3v-14l-24.5-0.9l0,0c-12.4-7.2-24.9-14.4-37.4-21.4c-1.6-0.9-4.3-0.7-6.1,0.3
		c-5.8,3.3-8.7,4.9-14.3,8.1c-2.4,1.3-4.5,2.8-6.3,4.4H233v16.1h0.1c0.7,6.8,5.4,13.5,13.8,18c19.6,10.5,45.6,11.3,65.7-0.2
		c5.6-3.2,8.5-4.9,14.3-8.2c1-0.6,1.5-1.2,1.6-1.9l0,0v0H328.3z"/>
	<path class="st10" d="M328.3,160c0-0.1,0-0.2,0-0.3v-14l-24.5-0.9l0,0c-12.4-7.2-24.9-14.4-37.4-21.4c-1.6-0.9-4.3-0.7-6.1,0.3
		c-5.8,3.3-8.7,4.9-14.3,8.1c-2.4,1.3-4.5,2.8-6.3,4.4H233v16.1h0.1c0.7,6.8,5.4,13.5,13.8,18c19.6,10.5,45.6,11.3,65.7-0.2
		c5.6-3.2,8.5-4.9,14.3-8.2c1-0.6,1.5-1.2,1.6-1.9l0,0v0H328.3z"/>
	<path class="st9" d="M359.7,115.5c5.2-0.1,7.7-0.1,12.6-0.2c1.9,0,3.5-0.9,3.5-2s-1.6-2-3.5-2c-6,0-9.1-0.1-15.5-0.1
		c-1,0-2-0.4-2.3-1c-2.1-3.5-6.1-7-11.1-9.9c-5.1-2.9-11.3-5.1-17.2-6.6c-0.9-0.2-1.6-0.8-1.6-1.3c-0.2-3.6-0.4-5.4-0.7-8.8
		c-0.1-1.2-2-2.2-4.2-2.2c-2,0-3.5,1-3.5,2.1c0.1,2.8,0.2,4.3,0.2,7.3c0,0.8-1.3,1.5-2.8,1.4c-13.6-0.9-27.4,2.4-39.4,9
		c-1.1,0.6-1.6,0.9-2.7,1.5c-1.5,0.8-1.7,2.1-0.4,2.8c20.9,11.6,41.5,23.7,62.2,35.6c1.2,0.7,3.3,0.5,4.8-0.4
		c1.1-0.6,1.6-0.9,2.7-1.6c11.6-6.7,17.9-14.7,16.4-22.2C357.1,116.2,358.3,115.5,359.7,115.5 M245.8,117.4
		c-17.9,9.7-17,29,0.9,38.6c19.6,10.5,45.6,11.3,65.7-0.2c5.6-3.2,8.5-4.9,14.3-8.2c1.9-1.1,2.2-2.6,0.8-3.4
		c-20.3-11.7-40.5-23.8-61.1-35.1c-1.6-0.9-4.3-0.7-6.1,0.3C254.4,112.6,251.5,114.2,245.8,117.4"/>
	<path class="st10" d="M359.7,115.5c5.2-0.1,7.7-0.1,12.6-0.2c1.9,0,3.5-0.9,3.5-2s-1.6-2-3.5-2c-6,0-9.1-0.1-15.5-0.1
		c-1,0-2-0.4-2.3-1c-2.1-3.5-6.1-7-11.1-9.9c-5.1-2.9-11.3-5.1-17.2-6.6c-0.9-0.2-1.6-0.8-1.6-1.3c-0.2-3.6-0.4-5.4-0.7-8.8
		c-0.1-1.2-2-2.2-4.2-2.2c-2,0-3.5,1-3.5,2.1c0.1,2.8,0.2,4.3,0.2,7.3c0,0.8-1.3,1.5-2.8,1.4c-13.6-0.9-27.4,2.4-39.4,9
		c-1.1,0.6-1.6,0.9-2.7,1.5c-1.5,0.8-1.7,2.1-0.4,2.8c20.9,11.6,41.5,23.7,62.2,35.6c1.2,0.7,3.3,0.5,4.8-0.4
		c1.1-0.6,1.6-0.9,2.7-1.6c11.6-6.7,17.9-14.7,16.4-22.2C357.1,116.2,358.3,115.5,359.7,115.5z M245.8,117.4
		c-17.9,9.7-17,29,0.9,38.6c19.6,10.5,45.6,11.3,65.7-0.2c5.6-3.2,8.5-4.9,14.3-8.2c1.9-1.1,2.2-2.6,0.8-3.4
		c-20.3-11.7-40.5-23.8-61.1-35.1c-1.6-0.9-4.3-0.7-6.1,0.3C254.4,112.6,251.5,114.2,245.8,117.4z"/>
	<path class="st12" d="M298.5,108.9c-3-1.7-2.8-4,0.3-5.8c2.9-1.6,7.3-1.7,10.1-0.2c3,1.7,2.9,4-0.2,5.8
		C305.8,110.4,301.2,110.5,298.5,108.9z M328.2,125.9c-2.9-1.7-2.7-4,0.4-5.8c2.9-1.7,7.4-1.7,10.1-0.2c2.9,1.6,2.7,3.9-0.5,5.7
		C335.3,127.3,330.9,127.5,328.2,125.9z"/>
</g>
<g transform="translate(0 1)" class="st8">
	<path class="st13" d="M168.3,175.4c-0.2,10.8-23.4,19.1-51.8,18.6s-51.3-9.6-51.2-20.4c0.2-10.8,23.4-19.1,51.8-18.6
		C145.6,155.5,168.5,164.6,168.3,175.4z"/>
	<g transform="translate(1)" class="st11">
		<path class="st4" d="M167.1,91.6v74.3c0,3.5-3.8,5.7-6.8,3.9l-75.5-43.4c-2.2-1.2-3.5-3.5-3.5-6V46.2c0-3.2,3.4-5.1,6.2-3.6
			L164,86.2C165.9,87.3,167.1,89.4,167.1,91.6"/>
		<path class="st7" d="M167.1,91.6v74.3c0,3.5-3.8,5.7-6.8,3.9l-75.5-43.4c-2.2-1.2-3.5-3.5-3.5-6V46.2c0-3.2,3.4-5.1,6.2-3.6
			L164,86.2C165.9,87.3,167.1,89.4,167.1,91.6z"/>
		<path class="st4" d="M147.6,179.3l16.7-8.9c0,0,2.8-1.8,2.8-4.5c0-1.4-0.3-76-0.3-76l-16.2,8.7L147.6,179.3z"/>
		<path class="st7" d="M147.6,179.3l16.7-8.9c0,0,2.8-1.8,2.8-4.5c0-1.4-0.3-76-0.3-76l-16.2,8.7L147.6,179.3z"/>
		<g transform="translate(0 .237)">
			<path class="st4" d="M92.1,64.2l-10.9,6.2L65,71.5l1.6-19.7L84.1,42c0.5-0.3,1.1-0.3,1.7,0l8.3,4.4l15.3,8.6"/>
			<path class="st7" d="M92.1,64.2l-10.9,6.2L65,71.5l1.6-19.7L84.1,42c0.5-0.3,1.1-0.3,1.7,0l8.3,4.4l15.3,8.6"/>
		</g>
		<path class="st4" d="M147.9,95.3L71.4,51.7c-2.8-1.6-6.2,0.4-6.2,3.6v74.1c0,2.5,1.3,4.8,3.5,6l15.9,9.1v23.9
			c0,2.7,2.8,4.4,5.2,3.2l22.4-11.2l32,18.4c1.1,0.6,2.3,0.7,3.4,0.5c1.9-0.5,3.4-2.2,3.4-4.4v-74.3C151,98.4,149.8,96.4,147.9,95.3
			"/>
		<path class="st7" d="M147.9,95.3L71.4,51.7c-2.8-1.6-6.2,0.4-6.2,3.6v74.1c0,2.5,1.3,4.8,3.5,6l15.9,9.1v23.9
			c0,2.7,2.8,4.4,5.2,3.2l22.4-11.2l32,18.4c1.1,0.6,2.3,0.7,3.4,0.5c1.9-0.5,3.4-2.2,3.4-4.4v-74.3C151,98.4,149.8,96.4,147.9,95.3
			z"/>
		<path class="st14" d="M80.6,84.6l55.5,31.6 M80.6,95.4l55.5,31.6 M80.6,105.2l55.5,31.6 M80.4,116.7l55.5,31.6"/>
	</g>
</g>
<g transform="translate(1 1)" class="st8">
	<path class="st13" d="M704.6,377.9c0,10.8-23.1,19.5-51.5,19.5s-51.5-8.7-51.5-19.5s23.1-19.5,51.5-19.5
		C681.5,358.3,704.6,367.1,704.6,377.9z"/>
	<path class="st15" d="M644.6,366.3c-2.1,7.8-27.6,12.9-34.6,11.9c-1.1-0.2-1.8-1.6-1-2.4c12.2-11.5,8.7-25.5,8.7-25.5L644.6,366.3z
		"/>
	<path class="st9" d="M658.6,374.2c-26.9-4.5-53.9-30-56.9-55.1c-2.7-22.6,32.9-53.9,59.3-50.3c26.8,3.7,48.5,26.5,48.5,53.7
		c0,14.4-10.4,28-17.8,38"/>
	<path class="st12" d="M658.6,374.2c-26.9-4.5-53.9-30-56.9-55.1c-2.7-22.6,32.9-53.9,59.3-50.3c26.8,3.7,48.5,26.5,48.5,53.7
		c0,14.4-10.4,28-17.8,38"/>
	<path class="st9" d="M703.6,331.4c1.1,27.7-26.1,45.7-51.6,42.7c-27.1-3.2-50.2-29.3-50.3-54.7c-0.1-24.4,24.1-47.2,50.5-43.6
		C679,279.4,702.5,304.1,703.6,331.4"/>
	<path class="st12" d="M703.6,331.4c1.1,27.7-26.1,45.7-51.6,42.7c-27.1-3.2-50.2-29.3-50.3-54.7c-0.1-24.4,24.1-47.2,50.5-43.6
		C679,279.4,702.5,304.1,703.6,331.4z"/>
	<path class="st16" d="M635.5,319.6c0.7,3.6-2.5,6.6-6,6.7c-3.7,0.1-7.3-2.8-7.8-6.2c-0.5-3.2,2.2-6.7,5.8-6.8
		C631.1,313.3,634.8,316.1,635.5,319.6"/>
	<path class="st17" d="M635.5,319.6c0.7,3.6-2.5,6.6-6,6.7c-3.7,0.1-7.3-2.8-7.8-6.2c-0.5-3.2,2.2-6.7,5.8-6.8
		C631.1,313.3,634.8,316.1,635.5,319.6z"/>
	<path class="st16" d="M656.5,326.6c0.7,3.6-2.5,6.6-6,6.7c-3.7,0.1-7.3-2.8-7.8-6.2c-0.5-3.2,2.2-6.7,5.8-6.8
		C652.1,320.3,655.8,323.1,656.5,326.6"/>
	<path class="st17" d="M656.5,326.6c0.7,3.6-2.5,6.6-6,6.7c-3.7,0.1-7.3-2.8-7.8-6.2c-0.5-3.2,2.2-6.7,5.8-6.8
		C652.1,320.3,655.8,323.1,656.5,326.6z"/>
	<path class="st16" d="M676.5,332.6c0.7,3.6-2.5,6.6-6,6.7c-3.7,0.1-7.3-2.8-7.8-6.2c-0.5-3.2,2.2-6.7,5.8-6.8
		C672.1,326.3,675.8,329.1,676.5,332.6"/>
	<path class="st17" d="M676.5,332.6c0.7,3.6-2.5,6.6-6,6.7c-3.7,0.1-7.3-2.8-7.8-6.2c-0.5-3.2,2.2-6.7,5.8-6.8
		C672.1,326.3,675.8,329.1,676.5,332.6z"/>
</g>
</svg>
