<svg width="86" height="75" viewBox="0 0 86 75" fill="none" xmlns="http://www.w3.org/2000/svg">
<path d="M27.9377 74.2726C25.9822 73.4617 24.418 71.8975 23.607 69.942L24.0689 69.7504C23.7025 68.8668 23.5 67.8975 23.5 66.8797V62.973H23V55.1597H23.5V47.3465H23V39.5332H23.5V31.7199H23V23.9066H23.5V20C23.5 18.9821 23.7025 18.0128 24.0689 17.1292L23.607 16.9377C24.418 14.9822 25.9822 13.418 27.9377 12.607L28.1292 13.0689C29.0128 12.7025 29.9821 12.5 31 12.5H34.9066V12H42.7199V12.5H50.5332V12H58.3465V12.5H66.1597V12H73.973V12.5H77.8797C78.8975 12.5 79.8668 12.7025 80.7504 13.0689L80.942 12.607C82.8975 13.418 84.4617 14.9822 85.2726 16.9377L84.8107 17.1292C85.1772 18.0128 85.3797 18.9821 85.3797 20V23.9066H85.8797V31.7199H85.3797V39.5332H85.8797V47.3465H85.3797V55.1597H85.8797V62.973H85.3797V66.8797C85.3797 67.8975 85.1772 68.8668 84.8107 69.7504L85.2726 69.942C84.4617 71.8975 82.8975 73.4617 80.942 74.2726L80.7504 73.8107C79.8668 74.1772 78.8975 74.3797 77.8797 74.3797H73.973V74.8797H66.1597V74.3797H58.3465V74.8797H50.5332V74.3797H42.7199V74.8797H34.9066V74.3797H31C29.9821 74.3797 29.0128 74.1772 28.1292 73.8107L27.9377 74.2726Z" fill="#654BF1" fill-opacity="0.08" stroke="black" stroke-linejoin="round" stroke-dasharray="8 8"/>
<path d="M67 61.8528V4.93589C67 2.6008 65.458 0.630114 63.3455 0L60.9465 1.44769L34.3223 30.0751L33.4876 32.7061L33 35.2318L41.3024 66.5222L42.5867 67H61.8957C64.7147 67 67 64.6956 67 61.8528Z" fill="#EA6618"/>
<path d="M0 5.2014V62.7141C0 64.493 0.871897 66.0622 2.2011 67L3.82915 66.2015L31.8598 35.4552L32.9588 33.2626L33 31.1428L25.3712 1.40766L24.2155 0H5.07704C2.27309 0 0 2.32877 0 5.2014Z" fill="#D65813"/>
<path d="M32.8699 33L63 0.212401C62.525 0.0714248 62.0321 -0.000113146 61.5367 1.34324e-07H24L32.8702 32.9997L32.8699 33Z" fill="#E05E11"/>
<path d="M4.89002 67H42L32.9058 33L2 66.1017C2.84965 66.6881 3.8578 67.0014 4.89002 67Z" fill="#DE5C16"/>
<path fill-rule="evenodd" clip-rule="evenodd" d="M13.0366 16H21.3164V52H13V49.2248H18.0972V18.7011H13.0366V16ZM25.3188 25.8349H25.3189C27.1816 32.4949 29.5925 38.9313 32.4248 45.1913H35.5372C38.4858 38.5852 41.0637 32.185 42.6395 25.8347H39.1208C37.7968 30.9455 36.2328 35.93 34.0988 40.9861C32.2149 36.4918 30.5262 31.5111 29.0425 25.8349H25.3189L25.3188 25.8347V25.8349ZM49.9034 18.7011H54.9636V16H46.6839V52H55V49.2248H49.9034V18.7011Z" fill="white"/>
</svg>
