<svg xmlns="http://www.w3.org/2000/svg" xmlns:xlink="http://www.w3.org/1999/xlink" width="159" height="65" viewBox="0 0 159 65">
  <defs>
    <rect id="mongo-logo-a" width="146" height="54" x="13" y="11" rx="7"/>
    <mask id="mongo-logo-b" width="146" height="54" x="0" y="0" fill="#fff">
      <use xlink:href="#mongo-logo-a"/>
    </mask>
  </defs>
  <g fill="none" fill-rule="evenodd">
    <use fill="#6D54D7" fill-opacity=".057" stroke="#000" stroke-dasharray="8" stroke-width="2" mask="url(#mongo-logo-b)" xlink:href="#mongo-logo-a"/>
    <rect width="146" height="54" fill="#4BA647" rx="7"/>
    <g fill="#FFF" transform="translate(17 10)">
      <path fill-rule="nonzero" d="M104.387409 13.2108084C104.28649 13.2309575 104.185132 13.4532537 104.185132 13.5743669 104.164948 14.3829559 104.144764 16.5253226 104.144764 17.9804324 104.144764 18.0209495 104.205316 18.1017646 104.266087 18.1017646 104.569721 18.1219136 105.298533 18.1420626 105.926206 18.1420626 106.796743 18.1420626 107.302874 18.0209495 107.586544 17.8998363 108.315136 17.5358399 108.659358 16.7476189 108.659358 15.8783638 108.659358 13.9182143 107.28269 13.1702914 105.237762 13.1702914 105.096037 13.1501424 104.691483 13.1501424 104.387409 13.2108084zM109.611069 22.2450168C109.611069 20.2441313 108.133043 19.1324309 105.460662 19.1324309 105.33912 19.1324309 104.488767 19.1122818 104.28627 19.1525799 104.2255 19.1729479 104.144764 19.213465 104.144764 19.2741311 104.144764 20.7088728 104.124361 22.9929397 104.185132 23.8821248 104.2255 24.2660513 104.50917 24.811827 104.853392 24.9734572 105.217578 25.1756045 106.047748 25.2159025 106.61465 25.2159025 108.213998 25.2159025 109.611069 24.3267174 109.611069 22.2450168zM100.257624 12.099327C100.459901 12.099327 101.067171 12.1597741 102.626151 12.1597741 104.104177 12.1597741 105.278349 12.1194761 106.715788 12.1194761 108.477046 12.1194761 110.906563 12.7458478 110.906563 15.3733241 110.906563 16.6668038 109.99544 17.6976891 108.801084 18.2029477 108.740532 18.2230967 108.740532 18.2633948 108.801084 18.2835438 110.501571 18.7082063 112 19.7590217 112 21.7395391 112 23.6799776 110.785241 24.9127911 109.023764 25.6808631 107.950731 26.1456047 106.61465 26.3072349 105.258165 26.3072349 104.2255 26.3072349 101.451979 26.1861217 99.9134019 26.2266388 99.7514926 26.1657537 100.055127 25.4381988 100.196634 25.3170857 100.561259 25.2967176 100.84449 25.2765686 101.229299 25.1552364 101.776017 25.0139743 101.836569 24.8521251 101.917524 24.023606 101.958111 23.3162001 101.958111 20.809837 101.958111 19.0314667 101.958111 16.5859887 101.978514 14.9287316 101.958111 14.1203616 101.937927 13.4939898 101.715247 13.2916235 101.269886 13.1702914 100.925445 13.1098443 100.358762 13.0288102 99.8929987 12.9683631 99.7916408 12.86718 100.135863 12.1799231 100.257624 12.099327zM88.5755797 24.6703458C89.0617465 25.0540533 90.0132381 25.2156835 90.8635912 25.2156835 91.9568083 25.2156835 93.0500255 25.0139743 94.102875 24.0636851 95.1759083 23.0939039 95.9249035 21.598277 95.9249035 19.213465 95.9249035 16.9293981 95.0543666 15.0699938 93.2727057 13.9788804 92.2604432 13.3520706 90.9647297 13.0896953 89.4665198 13.0896953 89.0211594 13.0896953 88.5959829 13.1098443 88.332935 13.2309575 88.2719448 13.2714745 88.1304387 13.4532537 88.1304387 13.5542179 88.0898516 13.9585124 88.0898516 17.0708793 88.0898516 18.8899856 88.0898516 20.7695389 88.0898516 23.3970152 88.1304387 23.7001266 88.1304387 24.003457 88.2719448 24.4681986 88.5757991 24.6703458L88.5755797 24.6703458zM83.9798116 12.099108C84.3646205 12.099108 85.8424271 12.1597741 86.5510547 12.1597741 87.8268038 12.1597741 88.7377084 12.099327 91.1468229 12.099327 93.1713478 12.099327 94.872054 12.6448837 96.0868129 13.67555 97.5646195 14.9488806 98.3342374 16.7073208 98.3342374 18.8494685 98.3342374 21.9013884 96.937166 23.6598286 95.5400946 24.6703458 94.143462 25.7010121 92.321214 26.3072349 89.729787 26.3072349 88.3531189 26.3072349 85.984372 26.2669368 84.0203986 26.2465688L84.0002148 26.2465688C83.8990763 26.0647896 84.1621241 25.3573837 84.3240334 25.3372347 84.8505679 25.2765686 84.9922934 25.2562006 85.2555606 25.1554554 85.6805178 24.9936062 85.7616919 24.77131 85.8224627 24.023606 85.8830142 22.6289433 85.8628303 20.9515372 85.8628303 19.0516158 85.8628303 17.6976891 85.8830142 15.0498447 85.8424271 14.2009577 85.7818757 13.4937708 85.4782408 13.3117726 84.8707517 13.1904404 84.5671168 13.1299933 84.1621241 13.0489592 83.5954414 12.9885122 83.5142674 12.846812 83.8786731 12.2204402 83.9798116 12.099327L83.9798116 12.099108zM59.5532444 25.4074811C59.0481621 25.3469821 58.6845117 25.266608 58.2400744 25.0650175 58.1794295 25.0246121 58.0782817 24.82324 58.0782817 24.7424291 58.0379977 24.0369716 58.0379977 22.0215036 58.0379977 20.6713061 58.0379977 19.5827612 57.856282 18.6355261 57.3914837 17.9704741 56.8458986 17.2042993 56.0581718 16.7611497 55.0477884 16.7611497 54.1589138 16.7611497 52.9668147 17.3657027 51.9767922 18.2122517 51.9566502 18.2323452 51.7950765 18.3736551 51.8152185 18.1517527 51.8152185 17.9300687 51.8557214 17.4867007 51.8758634 17.1842057 51.8962243 16.9020227 51.7344316 16.7611497 51.7344316 16.7611497 51.0879176 17.0835197 49.2696654 17.5067942 48.6027905 17.5670748 48.1180692 17.6681976 47.9967794 18.1316591 48.5020806 18.2928442L48.5222225 18.2928442C49.0673698 18.4540292 49.4312392 18.6355261 49.7138838 18.8170231 49.9159605 18.9782081 49.8958185 19.1998921 49.8958185 19.3813891 49.9159605 20.8927717 49.9159605 23.2107346 49.8555345 24.480558 49.8353925 24.984425 49.6939607 25.1657036 49.3300914 25.2462961L49.3705943 25.2262026C49.0877307 25.2867015 48.8655121 25.3469821 48.5220036 25.3873876 48.4007138 25.5083856 48.4007138 26.153344 48.5220036 26.2944355 48.7442223 26.2944355 49.9159605 26.2339366 50.8860598 26.2339366 52.2193718 26.2339366 52.9063887 26.2944355 53.2496782 26.2944355 53.39111 26.1332505 53.4316129 25.5284791 53.350826 25.3873876 52.9668147 25.3672941 52.6839511 25.327107 52.4214485 25.2462961 52.057798 25.1654852 51.9566502 24.984425 51.9362893 24.5611505 51.8962243 23.4926992 51.8962243 21.2354536 51.8962243 19.7037591 51.8962243 19.2804846 52.0172951 19.0788942 52.138366 18.9578962 52.6031642 18.5549336 53.350826 18.2727506 54.017482 18.2727506 54.663996 18.2727506 55.0880724 18.4743411 55.4114388 18.7364306 55.8558762 19.0989877 55.9973079 19.6231666 56.0579528 20.0060356 56.1588817 20.8726781 56.1185977 22.5858696 56.1185977 24.0773771 56.1185977 24.8835206 56.0579528 25.0851111 55.7551662 25.1857971 55.6135155 25.2462961 55.2498651 25.327107 54.8255698 25.3670757 54.684138 25.5083856 54.7246409 26.1332505 54.8255698 26.274342 55.4114388 26.274342 56.0984557 26.213843 57.1086202 26.213843 58.3611452 26.213843 59.1694519 26.274342 59.4928184 26.274342 59.5935283 26.153344 59.6340312 25.5688845 59.5532444 25.4074811zM65.1496516 17.7086031C64.0790612 17.7086031 63.4121863 18.5348401 63.4121863 19.8245387 63.4121863 21.1347676 63.9980554 22.6463686 65.6547338 22.6463686 65.9375974 22.6463686 66.4630405 22.5253706 66.7051822 22.2431876 67.0891936 21.8806305 67.3519152 21.1548611 67.3519152 20.3889047 67.3519152 18.7161187 66.5234665 17.7083847 65.1496516 17.7083847L65.1496516 17.7086031zM65.0082198 26.6168056C64.6042854 26.6168056 64.3212029 26.7378036 64.1394872 26.838708 63.2908965 27.3825436 62.9071041 27.9067226 62.9071041 28.5318059 62.9071041 29.116047 63.1293228 29.5795086 63.614263 29.9826895 64.2001321 30.4865565 65.0082198 30.7285525 66.0385263 30.7285525 68.099358 30.7285525 69.0085936 29.619914 69.0085936 28.5318059 69.0085936 27.7656311 68.6245822 27.2617641 67.8368554 26.9797995 67.2711283 26.7378036 66.2408219 26.6168056 65.0082198 26.6168056zM65.1496516 31.8572844C63.9172685 31.8572844 63.028175 31.595195 62.2605901 31.0107355 61.5129283 30.4463695 61.1897808 29.5998205 61.1897808 29.015361 61.1897808 28.854176 61.2302837 28.4105896 61.5939341 28.007627 61.8159339 27.7656311 62.301093 27.3021695 63.4526892 26.5161195 63.4929732 26.496026 63.5131152 26.4759325 63.5131152 26.4353086 63.5131152 26.3951216 63.4726123 26.3547161 63.4323283 26.334841 62.4828088 25.9720655 62.1999452 25.3873876 62.1189394 25.0650175L62.1189394 25.0246121C62.0990164 24.9036141 62.0585134 24.7828346 62.2404481 24.6618366 62.3818799 24.5611505 62.5839566 24.4401526 62.8059563 24.2992795 63.1494648 24.0974706 63.5131152 23.8757866 63.7353338 23.6942896 63.7758368 23.6541026 63.7758368 23.6139155 63.7758368 23.5735101 63.7758368 23.5331046 63.7353338 23.4926992 63.6948309 23.472824 62.280951 23.0091441 61.5737922 21.9610046 61.5737922 20.3889047 61.5737922 19.3610771 62.0383715 18.4339357 62.8666012 17.8494762 63.4323283 17.4061081 64.8466461 16.8618357 65.7760236 16.8618357L65.8366685 16.8618357C66.7861881 16.8819292 67.3114123 17.0835197 68.0588551 17.3456092 68.4630085 17.4867007 68.8470198 17.5469812 69.372463 17.5469812 70.1601898 17.5469812 70.5036982 17.3052037 70.7863429 17.0232391 70.8067038 17.0634262 70.8472067 17.1643306 70.8673487 17.4262017 70.8874907 17.6882911 70.8067038 18.0711602 70.6046271 18.3533432 70.4430533 18.5750272 70.0794029 18.7364306 69.7157525 18.7364306L69.6146047 18.7364306C69.2509542 18.6960251 69.0891615 18.6556197 69.0891615 18.6556197L69.0085936 18.6960251C68.9884516 18.7364306 69.0085936 18.7766176 69.0287356 18.8371166L69.0490965 18.8775221C69.0893805 19.0588006 69.1701673 19.6028547 69.1701673 19.7441646 69.1701673 21.3968571 68.5035114 22.1221897 67.7963525 22.6664621 67.1093356 23.1703291 66.3216087 23.4926992 65.4325152 23.5735101 65.4123732 23.5735101 65.3318052 23.5735101 65.1496516 23.5936036 65.0487228 23.5936036 64.907291 23.6139155 64.8869301 23.6139155L64.8667881 23.6139155C64.7052143 23.6541026 64.3012799 23.8556931 64.3012799 24.1981566 64.3012799 24.5004332 64.4829956 24.8634271 65.3517283 24.923926 65.533444 24.9440196 65.7151598 24.9440196 65.9174554 24.9643315 67.0690516 25.0447056 68.5035114 25.1456101 69.1701673 25.3672941 70.0995449 25.7097576 70.685414 26.5362131 70.685414 27.5238535 70.685414 29.0155794 69.6148236 30.4061824 67.8368554 31.2726065 66.9681227 31.655694 66.0991712 31.8572844 65.1496516 31.8572844zM76.6656137 17.8092891C76.2415373 17.8092891 75.8575259 17.9097567 75.5746624 18.1113472 74.7869355 18.5951207 74.3827822 19.5626676 74.3827822 20.9733642 74.3827822 23.6139155 75.7160941 25.4681985 77.6153521 25.4681985 78.1810792 25.4681985 78.6255166 25.3067951 79.009309 24.984425 79.5951781 24.5004332 79.8984026 23.5331046 79.8984026 22.1826886 79.8984026 19.5626676 78.5850137 17.8090707 76.6658326 17.8090707L76.6656137 17.8092891zM77.029483 26.435527C73.5948364 26.435527 72.3624533 23.9161921 72.3624533 21.5580421 72.3624533 19.9053496 73.0291093 18.6355261 74.3624213 17.7284782 75.3121597 17.1440187 76.4436139 16.8216486 77.4537784 16.8216486 80.0801183 16.8216486 81.9187314 18.6960251 81.9187314 21.3968571 81.9187314 23.2308281 81.1914305 24.6819301 79.7972548 25.5688845 79.1305988 26.0122526 77.9790026 26.435527 77.0292641 26.435527L77.029483 26.435527zM41.0265573 17.8090707C40.6022619 17.8090707 40.2184695 17.9097567 39.935387 18.1113472 39.1476602 18.5951207 38.7435069 19.5626676 38.7435069 20.9733642 38.7435069 23.6139155 40.0768188 25.4681985 41.9760768 25.4681985 42.5418039 25.4681985 42.9862412 25.3067951 43.3702526 24.984425 43.9559028 24.5004332 44.2591272 23.5331046 44.2591272 22.1826886 44.2591272 19.5626676 42.9660993 17.8090707 41.0265573 17.8090707zM41.3902077 26.435527C37.9555611 26.435527 36.723178 23.9161921 36.723178 21.5580421 36.723178 19.9053496 37.389834 18.6355261 38.7231459 17.7284782 39.6728844 17.1440187 40.8043386 16.8216486 41.814503 16.8216486 44.4410619 16.8216486 46.2794561 18.6960251 46.2794561 21.3968571 46.2794561 23.2308281 45.5521552 24.6819301 44.1579794 25.5688845 43.5114654 26.0122526 42.3598692 26.435527 41.3902077 26.435527zM18.2974198 26.2339366C18.2569169 26.173656 18.216414 25.992159 18.2367749 25.770475 18.2367749 25.6090716 18.2772778 25.5083856 18.2974198 25.4681985 18.7217151 25.4074811 18.9439338 25.3469821 19.1862944 25.2867015 19.5904478 25.1857971 19.7520215 24.9643315 19.7721635 24.4604645 19.8330274 23.25114 19.8330274 20.9532706 19.8126664 19.3610771L19.8126664 19.3206717C19.8126664 19.1393931 19.8126664 18.9174907 19.5904478 18.7563057 19.2670813 18.5549336 18.8832889 18.3736551 18.3782067 18.2321268 18.1964909 18.1720646 18.0752011 18.0711602 18.0953431 17.9503806 18.0953431 17.8293826 18.2166329 17.6882911 18.4793545 17.6478857 19.1460105 17.5873867 20.8832568 17.1643306 21.5702737 16.8618357 21.6107766 16.9020227 21.6714215 17.0232391 21.6714215 17.1844241L21.6512795 17.4058897C21.6309186 17.6277922 21.6107766 17.8898816 21.6107766 18.1517527 21.6107766 18.2323452 21.6917824 18.2928442 21.7723504 18.2928442 21.8128533 18.2928442 21.8533562 18.2727506 21.8936402 18.2524387 23.1866682 17.2447047 24.3584064 16.8819292 24.9644174 16.8819292 25.9546588 16.8819292 26.7224626 17.3456092 27.3083317 18.3129377 27.3486157 18.3736551 27.3891186 18.3937486 27.4497635 18.3937486 27.4900474 18.3937486 27.5504734 18.3736551 27.5708343 18.3332496 28.7629334 17.4262017 29.9550325 16.8819292 30.7427594 16.8819292 32.6216565 16.8819292 33.7329687 18.2727506 33.7329687 20.6309006 33.7329687 21.2959526 33.7329687 22.1625951 33.7128267 22.9488635 33.7128267 23.6541026 33.6926847 24.2990611 33.6926847 24.762741 33.6926847 24.8632087 33.8338976 25.1857971 34.0561162 25.2462961 34.3389798 25.3873876 34.7229911 25.4478866 35.2280733 25.5284791L35.2482153 25.5284791C35.2887182 25.6695706 35.2079314 26.1935311 35.1271445 26.2944355 35.0058547 26.2944355 34.82392 26.2944355 34.6220623 26.274342 34.1106258 26.2477214 33.5985868 26.2342485 33.0864547 26.2339366 31.8339296 26.2339366 31.1874156 26.2540301 30.5608247 26.2944355 30.5207597 26.1332505 30.5003987 25.649477 30.5608247 25.5284791 30.9246941 25.4681985 31.1064098 25.4074811 31.3288474 25.3472005 31.7330008 25.2262026 31.8339296 25.0447056 31.8542905 24.5207451 31.8542905 24.1378761 31.9348585 20.8726781 31.8135687 20.0866282 31.6924978 19.2804846 31.0862678 18.3332496 29.7527369 18.3332496 29.2476547 18.3332496 28.4599279 18.5348401 27.6921241 19.1190812 27.6518401 19.1594867 27.6111183 19.2601727 27.6111183 19.3206717L27.6111183 19.3409836C27.6921241 19.7640397 27.6921241 20.2480316 27.6921241 20.9936761L27.6921241 22.3036866C27.6921241 23.2107346 27.6717632 24.0572835 27.6921241 24.7020236 27.6921241 25.1456101 27.9548457 25.2462961 28.1770643 25.327107 28.2983541 25.3469821 28.3789221 25.3672941 28.4800699 25.3873876 28.6617856 25.427793 28.8437203 25.4681985 29.1265839 25.5284791 29.1670868 25.60929 29.1670868 25.8711611 29.1064419 26.0928451 29.086081 26.213843 29.0455781 26.2741236 29.0254361 26.2944355 28.3386381 26.274342 27.6314792 26.2540301 26.6011728 26.2540301 26.2981673 26.2540301 25.7727241 26.274342 25.3282868 26.274342 24.9644174 26.274342 24.6211279 26.2944355 24.4192702 26.2944355 24.3989093 26.2540301 24.3584064 26.113157 24.3584064 25.8912546 24.3584064 25.709976 24.3989093 25.5688845 24.4394122 25.5284791 24.540341 25.5083856 24.6211279 25.488292 24.7222757 25.488292 24.9644174 25.4478866 25.166713 25.4074811 25.3685708 25.3672941 25.7122982 25.266608 25.833369 25.0851111 25.853511 24.6417431 25.9141559 23.6340091 25.9748008 20.7518986 25.833369 20.0261292 25.5910084 18.8572102 24.9243524 18.2727506 23.8533241 18.2727506 23.2271711 18.2727506 22.4390064 18.5750272 21.7927113 19.059019 21.6915635 19.1393931 21.6107766 19.3407652 21.6107766 19.5222622L21.6107766 20.7114931C21.6107766 22.1625951 21.6107766 23.976691 21.6309186 24.762741 21.6512795 25.0043001 21.7318475 25.2867015 22.1966457 25.3873876 22.2977935 25.4074811 22.4593673 25.4478866 22.661444 25.4681985L23.0248755 25.5284791C23.0655973 25.649477 23.0452364 26.1332505 22.9644495 26.2944355 22.7623728 26.2944355 22.5200122 26.274342 22.2369297 26.274342 21.8128533 26.2540301 21.2672682 26.2339366 20.6612571 26.2339366 19.9540982 26.2339366 19.449016 26.2540301 19.0448626 26.274342 18.7619991 26.2339366 18.5397804 26.2339366 18.2974198 26.2339366z"/>
      <path d="M7.6716237,31.0802775 L6.85111747,30.7973248 C6.85111747,30.7973248 6.95132204,26.5768867 5.44998868,26.27402 C4.44946127,25.1026001 5.6104895,-23.4042082 9.21308226,26.1123015 C9.21308226,26.1123015 7.9720205,26.7381676 7.75187411,27.8087049 C7.51155666,28.8588906 7.6716237,31.0802775 7.6716237,31.0802775 Z"/>
      <path d="M7.6716237,31.0802775 L6.85111747,30.7973248 C6.85111747,30.7973248 6.95132204,26.5768867 5.44998868,26.27402 C4.44946127,25.1026001 5.6104895,-23.4042082 9.21308226,26.1123015 C9.21308226,26.1123015 7.9720205,26.7381676 7.75187411,27.8087049 C7.51155666,28.8588906 7.6716237,31.0802775 7.6716237,31.0802775 Z"/>
      <path d="M8.15815868,27.0840227 C8.15815868,27.0840227 15.429762,22.3120396 13.7280795,12.3839746 C12.0876339,5.16585433 8.21895657,2.80013038 7.79359083,1.89016914 C7.32783948,1.24313915 6.88206145,0.111000991 6.88206145,0.111000991 L7.1860509,20.1888697 C7.1860509,20.2092469 6.55809868,26.3357642 8.15837817,27.0842418"/>
      <path d="M8.15815868,27.0840227 C8.15815868,27.0840227 15.429762,22.3120396 13.7280795,12.3839746 C12.0876339,5.16585433 8.21895657,2.80013038 7.79359083,1.89016914 C7.32783948,1.24313915 6.88206145,0.111000991 6.88206145,0.111000991 L7.1860509,20.1888697 C7.1860509,20.2092469 6.55809868,26.3357642 8.15837817,27.0842418"/>
      <path d="M6.39309447,27.3062438 C6.39309447,27.3062438 -0.38510546,22.6574452 0.0172275648,14.4718361 C0.399291374,6.28600806 5.18609539,2.263839 6.11128699,1.53623904 C6.71478653,0.88945919 6.73483779,0.646779854 6.77515827,0 C7.19754257,0.909609459 7.11711955,13.6027462 7.17727335,15.0982467 C7.35817065,20.8585955 6.85558129,26.2150629 6.39309447,27.3062438 Z"/>
      <path d="M6.39309447,27.3062438 C6.39309447,27.3062438 -0.38510546,22.6574452 0.0172275648,14.4718361 C0.399291374,6.28600806 5.18609539,2.263839 6.11128699,1.53623904 C6.71478653,0.88945919 6.73483779,0.646779854 6.77515827,0 C7.19754257,0.909609459 7.11711955,13.6027462 7.17727335,15.0982467 C7.35817065,20.8585955 6.85558129,26.2150629 6.39309447,27.3062438 Z"/>
    </g>
  </g>
</svg>
