<svg width="158" height="152" viewBox="0 0 158 152" fill="none" xmlns="http://www.w3.org/2000/svg">
<path opacity="0.585045" fill-rule="evenodd" clip-rule="evenodd" d="M143.466 83.2237C139.495 62.5719 114.377 54.3067 53.0323 55.0452C-8.31268 55.7837 -5.67 90.8718 8.1317 110.235C15.0328 119.916 32.019 140 53.0323 140C74.0456 140 98.2296 134.116 108.181 126.605C128.605 111.192 147.438 103.876 143.466 83.2237Z" fill="#9595EF"/>
<path fill-rule="evenodd" clip-rule="evenodd" d="M100.572 81.6569L38.1658 116.976C33.934 119.371 33.9473 125.333 38.1903 127.711L77.9493 149.371C81.7878 151.52 86.5028 151.545 90.3637 149.434L153.752 114.779C158.053 112.428 158.09 106.406 153.819 104.005L113.168 81.6397C109.269 79.4472 104.465 79.454 100.572 81.6569Z" fill="white"/>
<path d="M100.572 81.6569L38.1658 116.976C33.934 119.371 33.9473 125.333 38.1903 127.711L77.9493 149.371C81.7878 151.52 86.5028 151.545 90.3637 149.434L153.752 114.779C158.053 112.428 158.09 106.406 153.819 104.005L113.168 81.6397C109.269 79.4472 104.465 79.454 100.572 81.6569" stroke="black"/>
<path fill-rule="evenodd" clip-rule="evenodd" d="M98.6857 90.1435L55.2057 114.519C52.2573 116.172 52.2666 120.286 55.2227 121.927L82.9237 136.876C85.5981 138.359 88.8831 138.376 91.5731 136.919L135.737 113.003C138.733 111.38 138.759 107.224 135.784 105.567L107.461 90.1316C104.745 88.6185 101.398 88.6232 98.6857 90.1435Z" fill="#9595EF"/>
<path fill-rule="evenodd" clip-rule="evenodd" d="M82.9905 57.8378C75.313 52.4673 64.243 54.3744 64.2492 47.7089C64.263 34.7753 70.3292 26.5966 79.5505 24.0985C79.7467 24.0402 79.9592 24.0833 80.1717 24.1987" fill="white"/>
<path d="M82.9905 57.8378C75.313 52.4673 64.243 54.3744 64.2492 47.7089C64.263 34.7753 70.3292 26.5966 79.5505 24.0985C79.7467 24.0402 79.9592 24.0833 80.1717 24.1987" stroke="black" stroke-linejoin="round"/>
<path fill-rule="evenodd" clip-rule="evenodd" d="M81.7339 74.8892C81.7339 74.8892 81.7972 78.4714 83.9948 80.5047C85.6203 82.0103 86.5665 82.3769 91.4127 83.058C96.2588 83.738 106.748 85.8725 106.922 79.0192" fill="white"/>
<path d="M81.7339 74.8892C81.7339 74.8892 81.7972 78.4714 83.9948 80.5047C85.6203 82.0103 86.5665 82.3769 91.4127 83.058C96.2588 83.738 106.748 85.8725 106.922 79.0192" stroke="black" stroke-linejoin="round"/>
<path fill-rule="evenodd" clip-rule="evenodd" d="M115.624 25.8922C111.159 12.8915 104.012 5.19009 100.477 1.97948C99.2369 0.853086 97.3961 0.681109 95.9564 1.55238C91.1342 4.46915 80.3339 12.273 75.6566 25.8922C70.8911 39.7711 73.6999 56.2592 75.1709 65.3739C75.9105 69.9535 79.5596 73.286 83.6979 75.229C88.8239 77.6355 94.0345 78.0808 99.5835 78.7255C102.322 79.0432 105.131 79.1993 107.808 78.5467C113.436 77.1731 114.836 73.0776 115.633 67.9479C116.315 63.5528 116.908 59.1441 117.317 54.7171C118.187 45.2982 118.748 34.9899 115.624 25.8922Z" fill="white"/>
<path fill-rule="evenodd" clip-rule="evenodd" d="M115.624 25.8922C111.159 12.8915 104.012 5.19009 100.477 1.97948C99.2369 0.853086 97.3961 0.681109 95.9564 1.55238C91.1342 4.46915 80.3339 12.273 75.6566 25.8922C70.8911 39.7711 73.6999 56.2592 75.1709 65.3739C75.9105 69.9535 79.5596 73.286 83.6979 75.229C88.8239 77.6355 94.0345 78.0808 99.5835 78.7255C102.322 79.0432 105.131 79.1993 107.808 78.5467C113.436 77.1731 114.836 73.0776 115.633 67.9479C116.315 63.5528 116.908 59.1441 117.317 54.7171C118.187 45.2982 118.748 34.9899 115.624 25.8922Z" stroke="black" stroke-linejoin="round"/>
<path d="M82 87V101" stroke="black" stroke-linecap="round"/>
<path d="M92 97V111" stroke="black" stroke-linecap="round"/>
<path d="M104 93V107" stroke="black" stroke-linecap="round"/>
<path fill-rule="evenodd" clip-rule="evenodd" d="M114.669 55.6089C115.01 51.6875 114.643 44.5229 114.402 40.7085C114.358 40.0189 115.282 39.7304 115.664 40.3119C122.904 51.3772 128.883 64.2285 129 77.2476C129.052 83.0572 121.014 72.9251 114.217 68.5682C113.315 67.9901 112.837 66.9638 113.05 65.9306C113.533 63.5952 114.346 59.3165 114.669 55.6089Z" fill="white"/>
<path fill-rule="evenodd" clip-rule="evenodd" d="M114.669 55.6089C115.01 51.6875 114.643 44.5229 114.402 40.7085C114.358 40.0189 115.282 39.7304 115.664 40.3119C122.904 51.3772 128.883 64.2285 129 77.2476C129.052 83.0572 121.014 72.9251 114.217 68.5682C113.315 67.9901 112.837 66.9638 113.05 65.9306C113.533 63.5952 114.346 59.3165 114.669 55.6089Z" stroke="black" stroke-linejoin="round"/>
<path fill-rule="evenodd" clip-rule="evenodd" d="M97.8555 49.2296C97.1274 50.1657 96.209 50.9469 95.1197 51.4484C91.0711 53.3139 87.0386 50.11 85.0378 46.8804C81.6336 41.3809 81.6049 24.6737 91.9586 27.2725C94.5602 27.9267 96.6745 29.8869 97.9369 32.1926C99.1993 34.4983 99.6969 37.1316 99.9067 39.7349C100.086 41.9659 100.059 44.2538 99.3575 46.3845C99.0227 47.3998 98.5182 48.3793 97.8555 49.2296Z" fill="white"/>
<path fill-rule="evenodd" clip-rule="evenodd" d="M97.8555 49.2296C97.1274 50.1657 96.209 50.9469 95.1197 51.4484C91.0711 53.3139 87.0386 50.11 85.0378 46.8804C81.6336 41.3809 81.6049 24.6737 91.9586 27.2725C94.5602 27.9267 96.6745 29.8869 97.9369 32.1926C99.1993 34.4983 99.6969 37.1316 99.9067 39.7349C100.086 41.9659 100.059 44.2538 99.3575 46.3845C99.0227 47.3998 98.5182 48.3793 97.8555 49.2296Z" stroke="black" stroke-linejoin="round"/>
</svg>
