<svg xmlns="http://www.w3.org/2000/svg" xmlns:xlink="http://www.w3.org/1999/xlink" width="78" height="73" viewBox="0 0 78 73">
  <defs>
    <path id="mysql-logo-a" d="M18,10 L74,10 C76.209139,10 78,11.790861 78,14 L78,69 C78,71.209139 76.209139,73 74,73 L18,73 C15.790861,73 14,71.209139 14,69 L14,14 C14,11.790861 15.790861,10 18,10 Z"/>
    <mask id="mysql-logo-b" width="64" height="63" x="0" y="0" fill="#fff">
      <use xlink:href="#mysql-logo-a"/>
    </mask>
  </defs>
  <g fill="none" fill-rule="evenodd">
    <use fill="#857EFF" fill-opacity=".08" stroke="#000" stroke-dasharray="8" stroke-linecap="round" stroke-linejoin="round" stroke-width="2" mask="url(#mysql-logo-b)" xlink:href="#mysql-logo-a"/>
    <rect width="64" height="63" fill="#14607C" fill-rule="nonzero"/>
    <g fill="#FFF" transform="translate(7 15)">
      <path d="M33.7466725 3.34776023C33.519152 3.34776023 33.3586842 3.37526901 33.1967836 3.41509942L33.1967836 3.44203509 33.2228596 3.44203509C33.3311754 3.65608772 33.519152 3.80480702 33.6521111 3.99221053 33.7601404 4.20683626 33.8541287 4.42088889 33.9612982 4.63522807 33.9744795 4.62233333 33.9873743 4.6082924 33.9873743 4.6082924 34.1764971 4.47476023 34.2701988 4.2601345 34.2701988 3.93776608 34.1891053 3.84349123 34.1764971 3.75036257 34.1088713 3.65608772 34.0286374 3.52226901 33.8541287 3.45521637 33.7466725 3.34776023M12.4098947 29.820655L10.5519064 29.820655C10.4865731 26.6849415 10.3054737 23.736345 10.0094678 20.9742924L9.9931345 20.9742924 7.16460234 29.820655 5.74990643 29.820655 2.93856725 20.9742924 2.92194737 20.9742924C2.71362573 23.626883 2.58238596 26.5754795 2.52765497 29.820655L.833859649 29.820655C.943321637 25.8740058 1.21726316 22.1743626 1.65568421 18.7208655L3.95811111 18.7208655 6.63849708 26.8766433 6.65511696 26.8766433 9.35183626 18.7208655 11.5548304 18.7208655C12.0373801 22.7655146 12.3222105 26.4663041 12.4098947 29.820655M20.4670994 21.6313509C19.7106082 25.7361754 18.7128421 28.7191579 17.4740877 30.5800117 16.5089883 32.0139064 15.4519064 32.7308538 14.3005497 32.7308538 13.993655 32.7308538 13.6154094 32.6382982 13.1660994 32.4546199L13.1660994 31.4651637C13.3855965 31.4972573 13.6429181 31.5144503 13.9392105 31.5144503 14.4762047 31.5144503 14.9088947 31.3660175 15.2384269 31.0697251 15.6327193 30.7086725 15.8298655 30.3029181 15.8298655 29.8533216 15.8298655 29.5461404 15.6759883 28.9160175 15.3696667 27.9626667L13.3305789 21.6313509 15.1559006 21.6313509 16.6190234 26.3665848C16.9479825 27.4417193 17.0849532 28.192193 17.0302222 28.6200117 17.8305556 26.4823509 18.389614 24.1527018 18.7076842 21.6313509L20.4670994 21.6313509"/>
      <polyline points="45.197 29.821 39.92 29.821 39.92 18.721 41.696 18.721 41.696 28.455 45.197 28.455 45.197 29.821"/>
      <path d="M31.9282281 27.6001813C31.4786316 26.8766433 31.2534035 25.7155439 31.2534035 24.1145906 31.2534035 21.3195848 32.1033099 19.9212222 33.8022632 19.9212222 34.6905673 19.9212222 35.3424678 20.2556257 35.7593977 20.9238596 36.2084211 21.6476842 36.4336491 22.7987544 36.4336491 24.3773567 36.4336491 27.1947135 35.5837427 28.6039649 33.8847895 28.6039649 32.9967719 28.6039649 32.3445848 28.269848 31.9282281 27.6001813M38.5383567 30.0882924L36.4981228 29.0822164C36.6797953 28.9332105 36.8522982 28.7724561 37.0084678 28.5864854 37.8747076 27.5680877 38.3082573 26.0608363 38.3082573 24.0653041 38.3082573 20.3931696 36.8666257 18.5560994 33.9836491 18.5560994 32.5695263 18.5560994 31.4674561 19.0217427 30.6782982 19.954462 29.8117719 20.9740058 29.3790819 22.4755263 29.3790819 24.459883 29.3790819 26.411 29.7624854 27.8423158 30.5298655 28.751538 31.2316257 29.5733626 32.2895673 29.984848 33.7039766 29.984848 34.2320877 29.984848 34.7166433 29.9198012 35.1570702 29.7897076L37.8139591 31.3359298 38.5383567 30.0882924M28.6051111 26.7439708C28.6051111 27.6852865 28.2592456 28.4581111 27.569807 29.062731 26.8797953 29.6647719 25.952807 29.9665088 24.7919942 29.9665088 23.7062573 29.9665088 22.6540468 29.6192105 21.6347895 28.9300585L22.1116082 27.9767076C22.9887368 28.4151287 23.7824795 28.6340526 24.4951287 28.6340526 25.1636491 28.6340526 25.6868889 28.4853333 26.0654211 28.1913333 26.4430936 27.8953275 26.6694678 27.4824094 26.6694678 26.9585965 26.6694678 26.2995322 26.2098421 25.7361754 25.3665263 25.263655 24.5879708 24.8364094 23.0320058 23.9443801 23.0320058 23.9443801 22.1889766 23.3294444 21.7663158 22.6695205 21.7663158 21.5823509 21.7663158 20.6831579 22.0815205 19.9564678 22.7110702 19.4034269 23.3420526 18.8495263 24.1561404 18.5724327 25.1530468 18.5724327 26.1834795 18.5724327 27.1204971 18.8475205 27.964386 19.3954035L27.5357076 20.3478947C26.8136023 20.0418596 26.1015263 19.888269 25.3994795 19.888269 24.8298187 19.888269 24.3908246 20.0249532 24.0847895 20.3000409 23.7770351 20.5728363 23.5867661 20.9238596 23.5867661 21.3516784 23.5867661 22.0090234 24.0564211 22.5792573 24.9235205 23.0609474 25.7118187 23.4884795 27.3058947 24.3977018 27.3058947 24.3977018 28.1729942 25.0114912 28.6051111 25.6659708 28.6051111 26.7439708M47.426269 15.002883C46.3528538 14.9759474 45.5215731 15.083117 44.8243977 15.3782632 44.6232398 15.4587836 44.301731 15.4587836 44.2742222 15.7135263 44.3822515 15.8206959 44.3951462 15.9949181 44.4897076 16.1430643 44.6501754 16.4112749 44.9312807 16.772614 45.1865965 16.9611637 45.4682749 17.1757895 45.7499532 17.3895556 46.045386 17.5772456 46.5680526 17.9004737 47.158345 18.0873041 47.6672573 18.409386 47.9632632 18.597076 48.2572632 18.8380643 48.553269 19.0397953 48.700269 19.1472515 48.7933977 19.3217602 48.9819474 19.3879532L48.9819474 19.3475497C48.887386 19.2271988 48.8610234 19.0526901 48.7676082 18.9180117 48.6337895 18.7847661 48.4993977 18.663269 48.3650058 18.5297368 47.9758713 18.0067836 47.492462 17.5511696 46.970655 17.1757895 46.541117 16.8797836 45.601807 16.4774678 45.4281579 15.982883 45.4281579 15.982883 45.414117 15.9685556 45.4009357 15.9553743 45.6960819 15.928152 46.045386 15.8206959 46.3267778 15.7393158 46.7821053 15.6189649 47.1978889 15.6461871 47.6672573 15.5258363 47.8821696 15.4716784 48.0967953 15.4043392 48.3122807 15.3384327L48.3122807 15.2169357C48.0695731 14.9759474 47.895924 14.6535789 47.6411813 14.4257719 46.9577602 13.8357661 46.2058538 13.2598012 45.4281579 12.7761053 45.0118012 12.5078947 44.4753801 12.3342456 44.0326608 12.1055789 43.8724795 12.0250585 43.6045556 11.9852281 43.5102807 11.8505497 43.2687193 11.5554035 43.1340409 11.1671287 42.9601053 10.8178246 42.5715439 10.0811053 42.1953041 9.2632924 41.860614 8.48416374 41.6193392 7.96149708 41.4717661 7.43883041 41.1766199 6.9557076 39.7945906 4.67534503 38.2930702 3.29474854 35.986345 1.93994152 35.4900409 1.65769006 34.9000351 1.53733918 34.2701988 1.38976608 33.9343626 1.37572515 33.599386 1.34964912 33.2641228 1.33646784 33.0492105 1.24219298 32.8342982.987163743 32.6468947.866526316 31.8820936.383976608 29.9114912-.661929825 29.347848.719239766 28.9856491 1.59149708 29.884269 2.4494269 30.192883 2.8921462 30.4206901 3.20018713 30.7161228 3.54949123 30.8763041 3.89764912 30.9702924 4.12574269 30.9972281 4.36759064 31.0915029 4.60857895 31.3058421 5.1985848 31.5067135 5.85592982 31.7889649 6.40610526 31.9359649 6.68778363 32.0967193 6.98321637 32.2844094 7.23681287 32.3927251 7.38524561 32.5798421 7.4514386 32.6202456 7.6935731 32.4331287 7.96149708 32.4185146 8.36381287 32.311345 8.69936257 31.8287953 10.214924 32.0161988 12.0923977 32.7004795 13.2053567 32.9145322 13.5406199 33.4248772 14.2784854 34.1088713 13.9962339 34.712345 13.7552456 34.5782398 12.990731 34.752462 12.3204912 34.7925789 12.1585906 34.7656433 12.0522807 34.8458772 11.9451111L34.8458772 11.9723333C35.0335673 12.3471404 35.2218304 12.7084795 35.3960526 13.0850058 35.8124094 13.7414912 36.5359474 14.4257719 37.1399942 14.881386 37.4609298 15.1235205 37.7159591 15.538731 38.1182749 15.6865906L38.1182749 15.6461871 38.0919123 15.6461871C38.0111053 15.5258363 37.8907544 15.4716784 37.7832982 15.3782632 37.5420234 15.1367018 37.274386 14.8415556 37.0858363 14.5736316 36.5227661 13.8228713 36.0258889 12.990731 35.5843158 12.1325146 35.369117 11.7158713 35.1817135 11.2602573 35.0072047 10.8447602 34.9269708 10.6845789 34.9269708 10.4424444 34.7925789 10.3622105 34.590848 10.6570702 34.2965614 10.9120994 34.1492749 11.273152 33.8942456 11.8505497 33.8675965 12.561193 33.7730351 13.2990585 33.7197368 13.3130994 33.7466725 13.2990585 33.7197368 13.3257076 33.2910585 13.218538 33.1434854 12.7761053 32.9821579 12.4015848 32.5798421 11.4482339 32.5122164 9.91949123 32.8615205 8.81971345 32.9549357 8.53860819 33.3583977 7.65345614 33.1967836 7.38524561 33.1156901 7.12935673 32.8477661 6.98321637 32.7004795 6.78119883 32.5265439 6.52645614 32.3377076 6.20523392 32.2182164 5.92298246 31.8961345 5.17222222 31.7342339 4.34036842 31.3866491 3.58960819 31.2256082 3.24030409 30.9433567 2.87810526 30.7161228 2.55688304 30.460807 2.19468421 30.1794152 1.93994152 29.9779708 1.51126316 29.9114912 1.36340351 29.8175029 1.12184211 29.924386.961374269 29.9507485.853918129 30.005193.81351462 30.1126491.786292398 30.2860117.639005848 30.7828889.826409357 30.9568246.906929825 31.4534152 1.10751462 31.8691988 1.29635088 32.2844094 1.57745614 32.472386 1.71184795 32.6735439 1.96659064 32.9145322 2.03421637L33.1967836 2.03421637C33.6257485 2.12734503 34.1088713 2.0602924 34.5114737 2.18150292 35.2218304 2.40930994 35.8654211 2.7445731 36.4425322 3.10677193 38.1987953 4.22001754 39.6473041 5.80291813 40.6258713 7.6935731 40.7871988 8.00161404 40.8548246 8.28357895 41.0021111 8.60480117 41.2837895 9.2632924 41.632807 9.93381871 41.9139123 10.5768363 42.1953041 11.2072456 42.4640877 11.8505497 42.8669766 12.3743626 43.0675614 12.6554678 43.8724795 12.8030409 44.2346784 12.950614 44.5023158 13.0709649 44.9186725 13.1784211 45.1602339 13.3257076 45.6161345 13.6070994 46.0711754 13.9294678 46.501 14.2383684 46.7150526 14.3991228 47.3858655 14.7340994 47.426269 15.002883M46.4651813 29.8195088L46.7594678 29.8195088 46.7594678 28.6902164 47.1445906 28.6902164 47.1445906 28.4595439 46.0651579 28.4595439 46.0651579 28.6902164 46.4651813 28.6902164 46.4651813 29.8195088zM48.7045673 29.8195088L48.9819474 29.8195088 48.9819474 28.4595439 48.564731 28.4595439 48.2251696 29.3865322 47.8555205 28.4595439 47.4534912 28.4595439 47.4534912 29.8195088 47.7159708 29.8195088 47.7159708 28.7844912 47.7308713 28.7844912 48.118 29.8195088 48.3180117 29.8195088 48.7045673 28.7844912 48.7045673 29.8195088z"/>
    </g>
  </g>
</svg>
