<svg width="1440" height="2243" viewBox="0 0 1440 2243" fill="none" xmlns="http://www.w3.org/2000/svg">
    <g clip-path="url(#clip0)">
        <path d="M897.649 723.796L1101.76 668.083L1090.95 646.234C1083.88 632.033 1066.63 626.168 1052.43 633.24L869.706 723.796H897.649Z" fill="#933EC5"/>
        <path d="M1165.12 669.692C1162.59 669.692 1160.06 670.037 1157.53 670.727L1109.58 683.836L963.136 723.796H1129.36H1201.8L1192.83 690.908C1189.38 678.087 1177.77 669.692 1165.12 669.692Z" fill="#933EC5"/>
        <path d="M1231.76 743.919H1225.2H1216.29H1207.38H1139.36H889.427H856.654H829.056H823.939H806.805C797.721 743.919 789.614 748.117 784.325 754.729C781.91 757.776 780.07 761.283 779.035 765.135C778.402 767.55 778 770.08 778 772.667V776.117V808.89V1092.98C778 1108.85 790.879 1121.72 806.748 1121.72H1231.7C1247.57 1121.72 1260.45 1108.85 1260.45 1092.98V1012.77H1089.86C1062.89 1012.77 1040.99 990.864 1040.99 963.898V937.565V928.653V919.742V899.963C1040.99 886.739 1046.27 874.723 1054.84 865.926C1062.43 858.106 1072.61 852.816 1083.99 851.494C1085.89 851.265 1087.84 851.149 1089.8 851.149H1236.53H1245.44H1254.35H1260.45V772.667C1260.5 756.798 1247.63 743.919 1231.76 743.919Z" fill="#933EC5"/>
        <path d="M1280.63 878.632C1277.75 875.987 1274.36 873.975 1270.57 872.652C1267.63 871.676 1264.53 871.101 1261.25 871.101H1260.5H1259.93H1251.02H1218.88H1089.86C1073.99 871.101 1061.11 883.979 1061.11 899.848V914.164V923.076V931.988V963.841C1061.11 979.71 1073.99 992.589 1089.86 992.589H1260.5H1261.25C1264.53 992.589 1267.63 992.014 1270.57 991.036C1274.36 989.771 1277.75 987.701 1280.63 985.057C1286.38 979.825 1290 972.235 1290 963.841V899.848C1290 891.454 1286.38 883.864 1280.63 878.632ZM1149.88 937.565C1149.88 945.5 1143.44 951.939 1135.51 951.939H1125.96C1118.03 951.939 1111.59 945.5 1111.59 937.565V928.021C1111.59 923.421 1113.72 919.338 1117.11 916.751C1119.58 914.854 1122.63 913.647 1125.96 913.647H1128.38H1135.51C1143.44 913.647 1149.88 920.086 1149.88 928.021V937.565Z" fill="#933EC5"/>
    </g>
    <rect y="359.981" width="1440" height="1883" fill="url(#paint0_linear)"/>
    <g clip-path="url(#clip1)">
        <path d="M54.9867 1977.58C24.7265 1960.13 -13.9548 1970.52 -31.4037 2000.78C-48.8527 2031.04 -38.4657 2069.72 -8.20555 2087.17C22.0546 2104.62 60.7359 2094.23 78.1849 2063.97C95.6338 2033.71 85.2468 1995.03 54.9867 1977.58ZM47.0877 1991.28C64.9198 2001.56 73.358 2021.73 69.8716 2040.92L-7.29244 1996.43C7.57062 1983.79 29.2555 1980.99 47.0877 1991.28ZM19.4411 2039.22C15.6568 2037.04 14.3592 2032.21 16.5413 2028.42C18.7234 2024.64 23.5559 2023.34 27.3401 2025.52C31.1243 2027.7 32.422 2032.54 30.2399 2036.32C28.0577 2040.11 23.2253 2041.4 19.4411 2039.22ZM-17.7052 2008.67C1.01052 2019.47 5.76892 2046.24 -6.80973 2068.79C-24.266 2054.3 -29.4076 2028.97 -17.7052 2008.67ZM6.99844 2076.75C20.2141 2054.57 45.7706 2045.28 64.4863 2056.07C52.7839 2076.36 28.2818 2084.6 6.99844 2076.75Z" fill="#2DAC66"/>
    </g>
    <path d="M-248.702 1416.03L-297.169 1367.56L-259.182 1329.57C-127.883 1198.27 85.8224 1198.33 217.192 1329.7L417.691 1530.2C488.86 1601.37 532.459 1567.97 595.687 1504.75C676.761 1423.67 650.481 1376.49 618.595 1344.6L218.618 944.623C142.602 868.097 142.569 744.158 218.798 667.929C295.028 591.699 418.967 591.732 495.238 668.003L755.937 928.702C779.405 952.17 817.403 951.926 840.603 928.725L859.215 910.114C936.209 833.119 1061.17 833.153 1138.2 910.19L1170.09 942.075C1246.36 1018.35 1285.63 1016.32 1370.02 931.929L1593.36 708.593L1641.82 757.06L1418.49 980.395C1361.63 1037.25 1317.78 1062.74 1272.39 1065.79C1223.42 1068.83 1177 1045.87 1121.65 990.516L1089.76 958.63C1039.51 908.378 957.906 908.356 907.681 958.581L889.07 977.192C839.1 1027.16 757.494 1027.14 707.497 977.143L446.798 716.444C397.311 666.957 316.725 666.935 267.265 716.395C217.805 765.855 217.827 846.441 267.314 895.928L667.545 1296.16C711.165 1339.78 766.529 1431.35 644.663 1553.21C617.384 1580.49 580.161 1617.71 534.007 1632.24C478.163 1649.82 423.074 1631.95 369.761 1578.64L169.262 1378.14C64.6764 1273.55 -105.676 1273.51 -210.205 1378.04L-248.447 1416.28L-248.702 1416.03Z" fill="url(#paint1_linear)" fill-opacity="0.5"/>
    <path opacity="0.5" d="M-249.99 1368.85L-234.693 1353.55C-116.397 1235.25 75.122 1235.56 193.227 1353.67L393.726 1554.16C492.7 1653.14 564.596 1584.3 620.175 1528.72C675.754 1473.14 719.597 1396.65 643.07 1320.12L243.094 920.148C180.087 857.141 180.06 755.134 243.032 692.162C306.004 629.189 408.012 629.217 471.018 692.223L731.717 952.922C768.45 989.655 828.124 989.671 864.837 952.959L883.448 934.347C947.185 870.61 1050.21 870.638 1113.98 934.41L1145.87 966.295C1239.74 1060.17 1300.43 1049.98 1394.26 956.162L1602.29 748.123" stroke="white" stroke-opacity="0.5" stroke-width="3" stroke-miterlimit="10" stroke-dasharray="10 15"/>
    <g opacity="0.5">
        <path d="M1485.55 1786L1461.46 1780.72L1463.39 1771.89C1477.75 1771.67 1491.01 1761.11 1494.35 1745.85L1470.26 1740.56L1472.02 1732.53C1473.08 1727.71 1470.57 1723.8 1465.75 1722.74L1401.5 1708.66C1396.68 1707.6 1392.76 1710.11 1391.71 1714.93L1389.94 1722.96L1365.85 1717.68C1362.5 1732.94 1370.3 1747.27 1383.08 1754.28L1381.14 1763.12L1357.05 1757.83C1353.7 1773.09 1361.5 1787.43 1374.27 1794.44L1372.34 1803.27L1348.24 1797.99C1344.9 1813.25 1352.7 1827.59 1365.47 1834.6L1363.53 1843.43C1362.48 1848.25 1364.99 1852.17 1369.81 1853.22L1434.06 1867.31C1438.88 1868.36 1442.79 1865.86 1443.85 1861.04L1445.79 1852.2C1460.14 1851.98 1473.4 1841.42 1476.75 1826.16L1452.65 1820.88L1454.59 1812.04C1469.12 1811.02 1482.21 1801.26 1485.55 1786ZM1405.45 1844.2C1396.62 1842.27 1390.97 1833.45 1392.91 1824.62C1394.85 1815.78 1403.66 1810.14 1412.5 1812.08C1421.33 1814.01 1426.97 1822.83 1425.04 1831.66C1423.1 1840.5 1414.29 1846.14 1405.45 1844.2ZM1414.26 1804.04C1405.42 1802.11 1399.78 1793.3 1401.71 1784.46C1403.65 1775.63 1412.46 1769.98 1421.3 1771.92C1430.13 1773.86 1435.78 1782.67 1433.84 1791.5C1431.9 1800.34 1423.09 1805.98 1414.26 1804.04ZM1423.06 1763.89C1414.22 1761.95 1408.58 1753.14 1410.52 1744.3C1412.45 1735.47 1421.27 1729.82 1430.1 1731.76C1438.94 1733.7 1444.58 1742.51 1442.64 1751.35C1440.71 1760.18 1431.89 1765.82 1423.06 1763.89Z" fill="#20A05C"/>
    </g>
    <path d="M121.114 1016.07L107.945 1012.75L109.164 1007.92C117.071 1008.04 124.551 1002.46 126.658 994.121L113.488 990.795L114.597 986.405C115.262 983.771 113.949 981.572 111.315 980.907L76.196 972.037C73.562 971.372 71.3626 972.685 70.6974 975.319L69.5887 979.708L56.4188 976.382C54.3123 984.723 58.3562 992.749 65.2648 996.829L64.0452 1001.66L50.8754 998.332C48.7689 1006.67 52.8127 1014.7 59.7213 1018.78L58.5017 1023.61L45.3319 1020.28C43.2254 1028.62 47.2693 1036.65 54.1778 1040.73L52.9583 1045.56C52.2931 1048.19 53.6056 1050.39 56.2395 1051.06L91.359 1059.93C93.993 1060.59 96.1924 1059.28 96.8577 1056.64L98.0772 1051.82C105.984 1051.94 113.464 1046.36 115.571 1038.02L102.401 1034.69L103.621 1029.87C111.638 1029.56 119.008 1024.41 121.114 1016.07ZM76.0167 1046.71C71.1877 1045.49 68.2346 1040.54 69.4542 1035.71C70.6737 1030.88 75.6225 1027.93 80.4514 1029.15C85.2804 1030.37 88.2335 1035.32 87.0139 1040.15C85.7944 1044.98 80.8456 1047.93 76.0167 1046.71ZM81.5601 1024.76C76.7312 1023.54 73.7781 1018.59 74.9976 1013.76C76.2172 1008.94 81.166 1005.98 85.9949 1007.2C90.8238 1008.42 93.7769 1013.37 92.5574 1018.2C91.3378 1023.03 86.389 1025.98 81.5601 1024.76ZM87.1036 1002.81C82.2746 1001.59 79.3215 996.643 80.5411 991.814C81.7607 986.985 86.7094 984.032 91.5384 985.252C96.3673 986.471 99.3204 991.42 98.1008 996.249C96.8813 1001.08 91.9325 1004.03 87.1036 1002.81Z" fill="#35A76C"/>
    <defs>
        <linearGradient id="paint0_linear" x1="720" y1="359.981" x2="720" y2="2242.98" gradientUnits="userSpaceOnUse">
            <stop stop-color="#018544"/>
            <stop offset="1" stop-color="#49C57C"/>
        </linearGradient>
        <linearGradient id="paint1_linear" x1="1964.46" y1="-38.1893" x2="-783.523" y2="2174.04" gradientUnits="userSpaceOnUse">
            <stop stop-color="#0D8F4D"/>
            <stop offset="0.510153" stop-color="#27A661"/>
            <stop offset="1" stop-color="#109150"/>
        </linearGradient>
        <clipPath id="clip0">
            <rect width="512" height="512" fill="white" transform="translate(778 619.981)"/>
        </clipPath>
        <clipPath id="clip1">
            <rect width="126.503" height="126.503" fill="white" transform="translate(0.192383 1945.98) rotate(29.9691)"/>
        </clipPath>
    </defs>
</svg>
