<svg width="205" height="124" viewBox="0 0 205 124" fill="none" xmlns="http://www.w3.org/2000/svg">
<path d="M14.4398 94.2964C29.0446 117.694 55.09 118.967 94.0798 110.576C133.925 102 135.41 113.013 166.457 92.726C204.892 67.6116 185.797 28.763 153.784 29.2886C116.549 29.9 124.792 17.958 58.5714 18.6422C2.89722 19.2174 -1.82345 68.2422 14.4398 94.2964Z" fill="#4DD888"/>
<g clip-path="url(#clip0)">
<path d="M145.953 15.7234C145.953 15.8044 145.871 15.8854 145.871 15.9665C145.709 16.2906 145.547 16.6958 145.385 17.0199L145.061 30.6337C145.223 30.3906 145.304 30.2285 145.385 29.9854C145.466 29.8234 145.466 29.7423 145.547 29.5803C145.547 29.4992 145.628 29.4182 145.628 29.3372C145.628 29.2561 145.709 29.2561 145.709 29.1751C145.79 28.932 145.79 28.6889 145.871 28.3647C145.871 28.2837 145.871 28.2027 145.871 28.1216L146.196 14.4268C146.196 14.913 146.115 15.3182 145.953 15.7234Z" fill="white" stroke="black" stroke-width="2" stroke-miterlimit="10" stroke-linejoin="round"/>
<path d="M132.896 20.4234C132.41 20.2613 131.842 20.0993 131.356 19.9372C131.193 19.8562 131.031 19.7751 130.95 19.7751C130.626 19.6131 130.301 19.451 129.977 19.2889C129.815 19.2079 129.653 19.1269 129.49 19.0458C129.166 18.8838 128.923 18.6407 128.68 18.4786C128.598 18.3975 128.436 18.3165 128.355 18.2355C128.031 17.9113 127.706 17.5872 127.382 17.2631C126.652 16.2907 126.328 15.3182 126.409 14.3458L126.084 28.0407C126.084 29.0131 126.409 29.9855 127.058 30.9579C127.301 31.282 127.625 31.6872 128.031 31.9303C128.112 32.0113 128.274 32.0924 128.355 32.2544C128.598 32.4975 128.923 32.6596 129.166 32.8217C129.328 32.9027 129.49 32.9838 129.653 33.0648C129.977 33.2269 130.301 33.3889 130.626 33.551C130.788 33.632 130.95 33.7131 131.031 33.7131C131.112 33.7131 131.193 33.7941 131.193 33.7941C131.599 33.9562 132.085 34.1182 132.491 34.1993C133.545 34.7665 135.086 35.82 135.329 37.1165L135.654 23.4217C135.573 22.0441 133.951 20.9907 132.896 20.4234Z" fill="white" stroke="black" stroke-width="2" stroke-miterlimit="10" stroke-linejoin="round"/>
<path d="M203.206 29.1751C203.206 29.2561 203.206 29.4182 203.125 29.4992C203.044 29.6613 203.044 29.8234 202.962 29.9855C202.881 30.0665 202.881 30.2286 202.8 30.3096C202.719 30.3906 202.719 30.4717 202.638 30.5527C202.557 30.7148 202.395 30.9579 202.314 31.1199C202.151 31.363 201.989 31.5251 201.827 31.6872L201.746 31.7682C201.503 32.0113 201.259 32.1734 201.016 32.4165C200.692 32.6596 200.367 32.9027 199.962 33.1458C199.881 33.2268 199.8 33.2268 199.638 33.3079C199.313 33.4699 198.989 33.632 198.664 33.7941C198.34 33.9561 198.016 34.0372 197.691 34.1182C197.124 34.2803 196.475 34.4424 195.907 34.5234C195.745 34.5234 195.583 34.6044 195.421 34.6044C194.853 34.6855 194.204 34.6855 193.637 34.6855C193.555 34.6855 193.474 34.6855 193.393 34.6855C192.826 34.6855 192.177 34.6044 191.609 34.5234C191.528 34.5234 191.528 34.5234 191.447 34.5234C187.23 33.4699 185.689 35.1717 185.041 35.0096L189.176 47.813C189.339 47.8941 189.582 47.8941 189.744 47.9751C190.149 48.0561 190.636 48.1372 191.042 48.2182H191.123C191.204 48.2182 191.204 48.2182 191.285 48.2182C191.609 48.2992 191.934 48.2992 192.339 48.2992C192.582 48.2992 192.826 48.2992 193.069 48.2992C193.15 48.2992 193.231 48.2992 193.312 48.2992C193.393 48.2992 193.393 48.2992 193.474 48.2992C193.88 48.2992 194.285 48.2992 194.691 48.2182C194.853 48.2182 194.934 48.2182 195.015 48.1372C195.177 48.1372 195.34 48.0561 195.502 48.0561C195.664 48.0561 195.907 47.9751 196.069 47.9751C196.475 47.8941 196.88 47.813 197.286 47.651C197.529 47.5699 197.772 47.4889 198.097 47.4079C198.178 47.4079 198.259 47.3268 198.259 47.3268C198.583 47.1648 198.908 47.0027 199.232 46.8406C199.313 46.7596 199.475 46.7596 199.556 46.6786C199.962 46.4355 200.286 46.1923 200.611 45.9492C200.611 45.9492 200.692 45.9492 200.692 45.8682C200.935 45.7061 201.178 45.463 201.341 45.301L201.422 45.2199C201.584 45.0579 201.746 44.8958 201.908 44.6527C201.908 44.6527 201.908 44.5717 201.989 44.5717C202.151 44.4096 202.233 44.1665 202.314 44.0044C202.395 43.9234 202.395 43.8423 202.476 43.7613C202.476 43.7613 202.476 43.7613 202.476 43.6803C202.557 43.5992 202.557 43.4372 202.638 43.3561C202.719 43.1941 202.719 43.113 202.8 42.951V42.8699C202.8 42.7889 202.8 42.7079 202.881 42.5458C202.881 42.3837 202.962 42.3027 202.962 42.1406C202.962 42.0596 202.962 41.9786 202.962 41.8975L203.287 28.2027C203.287 28.7699 203.206 29.013 203.206 29.1751Z" fill="white" stroke="black" stroke-width="2" stroke-miterlimit="10" stroke-linejoin="round"/>
<path d="M112.461 33.0648C112.218 32.7407 112.055 32.3355 112.055 32.0114L111.731 45.7062C111.731 46.0303 111.812 46.4355 112.136 46.7596L121.381 59.2389L121.706 45.5441L112.461 33.0648Z" fill="white" stroke="black" stroke-width="2" stroke-miterlimit="10" stroke-linejoin="round"/>
<path d="M143.682 43.113C143.439 42.7079 143.114 42.3837 142.709 42.0596C142.628 41.9785 142.466 41.8975 142.384 41.8165C142.141 41.5734 141.817 41.4113 141.492 41.1682C141.33 41.0872 141.168 41.0061 141.087 40.9251C140.763 40.763 140.357 40.601 140.033 40.4389C139.871 40.3579 139.789 40.3579 139.627 40.2768C139.546 40.2768 139.546 40.1958 139.465 40.1958C138.978 40.0337 138.492 39.8716 138.005 39.7906H137.924C137.519 39.7096 137.194 39.6285 136.789 39.5475C136.627 39.5475 136.465 39.5475 136.383 39.4665C136.221 39.4665 136.14 39.4665 135.978 39.3854C135.816 39.3854 135.735 39.3854 135.572 39.3854C135.167 39.3854 134.762 39.3854 134.356 39.3854H134.275C134.194 39.3854 134.113 39.3854 134.032 39.3854C133.707 39.3854 133.383 39.3854 133.059 39.4665C132.896 39.4665 132.734 39.5475 132.572 39.5475C132.41 39.5475 132.248 39.6285 132.004 39.6285C131.842 39.6285 131.761 39.6285 131.599 39.7096C131.193 39.7906 130.788 39.8716 130.382 40.0337C130.139 40.1147 129.896 40.1958 129.653 40.2768C129.409 40.3579 129.166 40.5199 128.923 40.601C128.761 40.682 128.598 40.763 128.436 40.8441C128.031 41.0872 127.625 41.3303 127.22 41.5734C127.139 41.5734 127.139 41.6544 127.058 41.6544C126.652 41.9785 126.328 42.3027 126.084 42.7079L126.003 42.7889L125.922 42.8699C125.679 43.1941 125.517 43.4372 125.355 43.7613C125.355 43.8423 125.273 43.9234 125.273 43.9234C125.03 44.0854 124.706 44.3285 124.3 44.4906C124.219 44.5716 124.057 44.5716 123.895 44.6527C123.57 44.8147 123.246 44.9768 122.841 45.1389C122.435 45.2199 122.03 45.382 121.624 45.382L121.3 59.0768C121.543 59.0768 121.705 58.9958 121.867 58.9958C122.111 58.9147 122.273 58.9147 122.516 58.8337C122.678 58.7527 122.841 58.7527 123.003 58.6716C123.246 58.5906 123.408 58.5096 123.652 58.3475C123.814 58.2665 123.895 58.2665 124.057 58.1854C124.381 58.0234 124.706 57.7803 125.03 57.6182C125.192 57.213 125.436 56.8078 125.76 56.4027L125.841 56.3216C126.165 55.9975 126.49 55.5923 126.895 55.2682C126.976 55.2682 126.976 55.1872 127.058 55.1872C127.382 54.9441 127.787 54.6199 128.274 54.4579C128.436 54.3768 128.598 54.2958 128.761 54.2147C129.247 53.9716 129.653 53.8096 130.22 53.6475C130.788 53.4854 131.274 53.4044 131.842 53.2423C132.004 53.2423 132.167 53.1613 132.41 53.1613C132.896 53.0803 133.383 53.0803 133.869 52.9992C133.951 52.9992 134.032 52.9992 134.113 52.9992C134.68 52.9992 135.248 52.9992 135.735 53.0803C135.897 53.0803 135.978 53.0803 136.14 53.1613C136.627 53.2423 137.194 53.3234 137.681 53.4044H137.762C138.33 53.5665 138.816 53.7285 139.384 53.8906C139.546 53.9716 139.627 53.9716 139.789 54.0527C140.114 54.2147 140.519 54.3768 140.844 54.5389C141.006 54.6199 141.168 54.701 141.249 54.782C141.573 54.9441 141.817 55.1872 142.141 55.3492C142.222 55.4303 142.384 55.5113 142.466 55.5923C142.79 55.9165 143.114 56.2406 143.439 56.6458C144.169 57.6182 144.493 58.5906 144.412 59.563L144.736 45.8682C144.736 45.0578 144.412 44.0854 143.682 43.113Z" fill="white" stroke="black" stroke-width="2" stroke-miterlimit="10" stroke-linejoin="round"/>
<path d="M196.394 50.8113L196.069 64.5062L175.066 71.8803L175.39 58.1855L196.394 50.8113Z" fill="white" stroke="black" stroke-width="2" stroke-miterlimit="10" stroke-linejoin="round"/>
<path d="M140.033 68.5579L139.708 82.2527L126.814 66.532L127.058 52.8372L140.033 68.5579Z" fill="white" stroke="black" stroke-width="2" stroke-miterlimit="10" stroke-linejoin="round"/>
<path d="M166.064 61.1027L165.74 74.7975L139.708 82.2527L140.033 68.5579L166.064 61.1027Z" fill="white" stroke="black" stroke-width="2" stroke-miterlimit="10" stroke-linejoin="round"/>
<path d="M144.493 46.5975C144.493 46.6786 144.493 46.7596 144.412 46.9217C144.412 47.0837 144.331 47.2458 144.25 47.4079C144.169 47.4889 144.169 47.651 144.088 47.732C144.007 47.8131 144.007 47.8941 143.926 48.0562C143.845 48.2182 143.682 48.4613 143.601 48.6234C143.439 48.8665 143.277 49.0286 143.115 49.1906L143.034 49.2717C142.79 49.5148 142.547 49.6768 142.304 49.9199C141.979 50.1631 141.574 50.4062 141.25 50.6493C141.168 50.7303 141.087 50.7303 140.925 50.8113C140.601 50.9734 140.276 51.1355 139.952 51.2975C139.628 51.4596 139.303 51.5406 138.979 51.6217C138.492 51.7837 137.925 51.8648 137.357 52.0268C137.195 52.0268 137.033 52.1079 136.87 52.1079C136.384 52.1889 135.897 52.1889 135.492 52.27C135.411 52.27 135.33 52.27 135.249 52.27C134.681 52.27 134.194 52.2699 133.627 52.1889C133.464 52.1889 133.383 52.1889 133.221 52.1079C132.654 52.0268 132.167 51.9458 131.599 51.8648L131.275 65.4786C131.599 65.5596 132.005 65.6406 132.329 65.6406C132.491 65.6406 132.654 65.6406 132.816 65.7217C132.978 65.7217 133.059 65.7217 133.221 65.8027C133.302 65.8027 133.464 65.8027 133.546 65.8027C133.951 65.8027 134.357 65.8027 134.762 65.8027H134.843C134.924 65.8027 135.005 65.8027 135.086 65.8027C135.411 65.8027 135.654 65.8027 135.978 65.7217C136.141 65.7217 136.303 65.6406 136.465 65.6406C136.627 65.6406 136.789 65.5596 137.033 65.5596C137.195 65.5596 137.276 65.5596 137.438 65.4786C137.844 65.3975 138.249 65.3165 138.655 65.1544C138.898 65.0734 139.141 64.9924 139.465 64.9113C139.547 64.9113 139.628 64.8303 139.628 64.8303C139.952 64.6682 140.276 64.5062 140.601 64.3441C140.682 64.2631 140.844 64.2631 140.925 64.182C141.331 63.9389 141.655 63.6958 141.979 63.4527C141.979 63.4527 141.979 63.4527 142.061 63.4527C142.304 63.2906 142.547 63.0475 142.709 62.8855L142.79 62.8044C142.953 62.6424 143.115 62.4803 143.196 62.3182C143.196 62.3182 143.196 62.2372 143.277 62.2372C143.439 62.0751 143.52 61.832 143.601 61.67C143.682 61.5889 143.682 61.5079 143.763 61.4268C143.763 61.4268 143.763 61.4268 143.763 61.3458C143.845 61.2648 143.845 61.1027 143.926 61.0217C144.007 60.8596 144.007 60.7786 144.088 60.6165V60.5355C144.088 60.4544 144.088 60.3734 144.169 60.2113C144.169 60.0493 144.25 59.9682 144.25 59.8062C144.25 59.7251 144.25 59.6441 144.25 59.5631L144.574 45.8682C144.493 46.1924 144.493 46.3544 144.493 46.5975Z" fill="white" stroke="black" stroke-width="2" stroke-miterlimit="10" stroke-linejoin="round"/>
<path d="M129.815 65.5596C130.221 65.5596 130.545 65.4786 130.869 65.4786C131.032 65.4786 131.194 65.4786 131.275 65.4786L131.599 51.7838C131.518 51.7838 131.437 51.7838 131.275 51.7838C131.194 51.7838 131.194 51.7838 131.113 51.7838C130.788 51.7838 130.464 51.7838 130.058 51.8648C129.977 51.8648 129.977 51.8648 129.977 51.8648C129.653 51.8648 129.247 51.9458 128.923 52.0269H128.842C128.599 52.1079 128.274 52.1079 128.031 52.1889C127.869 52.27 127.788 52.27 127.626 52.351C127.382 52.432 127.139 52.5131 126.896 52.6751L126.571 66.37C126.896 66.2079 127.301 66.0458 127.707 65.8837C127.95 65.8027 128.274 65.7217 128.599 65.6406C128.923 65.5596 129.329 65.4786 129.653 65.4786C129.734 65.5596 129.734 65.5596 129.815 65.5596Z" fill="white" stroke="black" stroke-width="2" stroke-miterlimit="10" stroke-linejoin="round"/>
<path d="M132.005 8.51131C136.951 7.05269 142.871 8.43028 145.223 11.6717C146.521 13.4544 146.521 15.3182 145.385 17.0199C145.466 17.9113 145.872 19.0458 147.088 19.8561L165.821 14.1027C167.605 13.5355 169.795 14.1027 170.606 15.2372L179.932 27.7975C180.418 27.7165 180.824 27.6355 181.229 27.5544C182.446 27.1492 183.419 26.501 184.068 26.0148C184.878 24.4751 186.581 23.1786 189.014 22.4492C193.88 20.9096 199.8 22.3682 202.233 25.6096C204.666 28.851 202.557 32.6596 197.691 34.1992C195.015 35.0096 192.096 34.9286 189.582 34.1992C188.69 34.1992 187.555 34.3613 186.581 34.6044C186.176 34.7665 185.77 34.9286 185.446 35.0906L195.907 49.2717C196.799 50.4872 196.07 51.8648 194.285 52.432L175.39 58.1855C175.634 59.1579 176.769 60.0492 177.661 60.6165C180.337 61.1027 182.689 62.3182 183.986 64.101C186.419 67.3424 184.311 71.151 179.445 72.6906C174.498 74.1492 168.659 72.7717 166.227 69.5303C165.091 67.9096 164.929 66.2079 165.74 64.6682C165.74 63.8579 165.497 62.4803 164.28 61.5889L142.547 68.2337C140.763 68.801 138.573 68.2337 137.681 67.0992L127.139 52.8372C127.463 52.6751 127.869 52.513 128.274 52.351C129.491 51.9458 130.95 51.9458 131.842 51.9458C134.194 52.513 136.87 52.432 139.222 51.7027C144.169 50.2441 146.196 46.3544 143.763 43.113C141.331 39.8717 135.411 38.4941 130.545 39.9527C127.869 40.763 126.085 42.3027 125.355 44.0044C124.787 44.4096 123.976 44.8958 122.922 45.2199C122.517 45.301 122.111 45.463 121.706 45.463L112.461 33.0648C111.569 31.8492 112.299 30.4717 114.083 29.9044L135.735 23.2596C135.573 21.963 133.951 20.9096 132.897 20.3423C130.626 19.7751 128.599 18.6406 127.382 17.0199C125.03 13.8596 127.058 10.051 132.005 8.51131Z" fill="white" stroke="black" stroke-width="2" stroke-miterlimit="10" stroke-linejoin="round"/>
<path d="M86.8349 33.713C86.8349 33.7941 86.7538 33.8751 86.7538 33.9561C86.5916 34.2803 86.4294 34.6855 86.2673 35.0096L85.9429 48.7044C86.1051 48.5423 86.1862 48.2992 86.2673 48.0561C86.3483 47.8941 86.3483 47.813 86.4294 47.651C86.4294 47.5699 86.5105 47.4889 86.5105 47.4079C86.5105 47.3268 86.5916 47.3268 86.5916 47.2458C86.6727 47.0027 86.6727 46.7596 86.7538 46.4354C86.7538 46.3544 86.7538 46.2734 86.7538 46.1923L87.0782 32.5786C87.0782 32.9837 86.9971 33.3079 86.8349 33.713Z" fill="white" stroke="black" stroke-width="2" stroke-miterlimit="10" stroke-linejoin="round"/>
<path d="M73.8598 38.413C73.2922 38.251 72.8056 38.0889 72.319 37.9268C72.1568 37.8458 71.9946 37.7648 71.9135 37.7648C71.5892 37.6027 71.2648 37.4406 70.9404 37.2786C70.7782 37.1975 70.616 37.1165 70.4538 37.0355C70.1295 36.8734 69.8862 36.6303 69.6429 36.4682C69.5618 36.3872 69.3996 36.3061 69.3185 36.2251C68.9941 35.901 68.6697 35.5768 68.3454 35.2527C67.6155 34.2803 67.2911 33.3079 67.3722 32.3354L67.0479 46.0303C67.0479 47.0027 67.3722 47.9751 68.021 48.9475C68.2643 49.2717 68.5887 49.6768 68.9941 49.9199C69.0752 50.001 69.2374 50.082 69.3185 50.163C69.5618 50.4061 69.8862 50.5682 70.1295 50.7303C70.2916 50.8113 70.4538 50.8923 70.616 50.9734C70.9404 51.1354 71.2648 51.2975 71.5892 51.4596C71.7514 51.5406 71.9135 51.6217 71.9946 51.6217C72.0757 51.6217 72.1568 51.7027 72.1568 51.7027C72.5623 51.8648 73.0489 52.0268 73.5354 52.1079C74.5086 52.5941 76.0494 53.6475 76.2927 54.863L76.617 41.1682C76.2927 39.9527 74.833 38.8992 73.8598 38.413Z" fill="white" stroke="black" stroke-width="2" stroke-miterlimit="10" stroke-linejoin="round"/>
<path d="M53.3438 63.2906L53.6681 49.5958C53.6681 49.92 53.7492 50.3251 53.9925 50.6493L53.6681 64.3441C53.4248 63.9389 53.3438 63.6148 53.3438 63.2906Z" fill="white"/>
<path d="M53.9911 50.6493L53.6668 64.3441C53.4235 64.02 53.2613 63.6148 53.3424 63.2906L53.6668 49.5958C53.5857 49.92 53.7479 50.3251 53.9911 50.6493Z" fill="white" stroke="black" stroke-width="2" stroke-miterlimit="10" stroke-linejoin="round"/>
<path d="M53.3438 63.2906L53.6681 49.5958C53.6681 49.92 53.7492 50.3251 53.9925 50.6493L53.6681 64.3441C53.4248 63.9389 53.3438 63.6148 53.3438 63.2906Z" stroke="black" stroke-width="2" stroke-miterlimit="10" stroke-linejoin="round"/>
<path d="M53.9914 50.6492L53.667 64.3441L62.9118 76.8234L63.2362 63.1285L53.9914 50.6492Z" fill="white" stroke="black" stroke-width="2" stroke-miterlimit="10" stroke-linejoin="round"/>
<path d="M116.029 76.0941L115.705 89.7889L135.492 83.7924L135.816 70.0975L116.029 76.0941Z" fill="white" stroke="black" stroke-width="2" stroke-miterlimit="10" stroke-linejoin="round"/>
<path d="M114.893 74.7975L114.974 71.151C114.974 70.1786 114.65 69.2061 114.001 68.2337C113.758 67.8286 113.434 67.5044 113.028 67.1803C112.947 67.0992 112.785 67.0182 112.704 66.9372C112.46 66.6941 112.136 66.532 111.812 66.2889C111.649 66.2079 111.487 66.1268 111.406 66.0458C111.082 65.8837 110.676 65.7217 110.352 65.5596C110.19 65.4786 110.109 65.4786 109.947 65.3975C109.865 65.3975 109.865 65.3165 109.784 65.3165C109.298 65.1544 108.811 64.9924 108.325 64.9113H108.244C107.838 64.8303 107.514 64.7493 107.108 64.6682C106.946 64.6682 106.784 64.6682 106.703 64.5872C106.541 64.5872 106.459 64.5872 106.297 64.5061C106.135 64.5061 106.054 64.5061 105.892 64.4251C105.486 64.4251 105.081 64.4251 104.675 64.4251H104.594C104.513 64.4251 104.432 64.4251 104.351 64.4251C104.027 64.4251 103.702 64.4251 103.378 64.5061C103.216 64.5061 103.053 64.5872 102.891 64.5872C102.729 64.5872 102.567 64.6682 102.324 64.6682C102.161 64.6682 102.08 64.6682 101.918 64.7492C101.513 64.8303 101.107 64.9113 100.702 65.0734C100.458 65.1544 100.215 65.2355 99.8908 65.3165C99.8097 65.3165 99.8097 65.3975 99.7286 65.3975C99.4042 65.5596 98.9987 65.7217 98.6743 65.8837C98.5932 65.9648 98.5121 65.9648 98.431 66.0458C98.0256 66.2889 97.7012 66.532 97.3768 66.7751H97.2957C97.0524 66.9372 96.8092 67.1803 96.647 67.3424L96.5659 67.4234C96.4037 67.5855 96.2415 67.7475 96.0793 67.9906C96.0793 67.9906 96.0793 68.0717 95.9982 68.0717C95.836 68.2337 95.7549 68.4768 95.6738 68.6389C95.5927 68.7199 95.5927 68.801 95.5116 68.882C95.5116 68.882 95.5116 68.882 95.5116 68.963C95.4305 69.0441 95.4305 69.2061 95.3494 69.2872C95.2683 69.4492 95.2683 69.5303 95.1873 69.6923V69.7734C95.1873 69.8544 95.1873 69.9355 95.1062 70.0975C95.1062 70.2596 95.0251 70.3406 95.0251 70.5027C95.0251 70.5837 95.0251 70.6648 95.0251 70.7458L94.7007 84.4406C94.7007 84.1975 94.7818 84.0354 94.7818 83.7923C94.7818 83.7113 94.7818 83.6303 94.8629 83.4682C94.944 83.3061 94.944 83.1441 95.0251 82.982C95.1062 82.901 95.1062 82.7389 95.1873 82.6579C95.2683 82.5768 95.2683 82.4958 95.3494 82.4148C95.4305 82.2527 95.5927 82.0096 95.6738 81.8475C95.836 81.6044 95.9982 81.4423 96.1604 81.1992L96.2415 81.1182C96.4848 80.8751 96.7281 80.713 96.9713 80.4699C97.2957 80.2268 97.7012 79.9837 98.0256 79.7406C98.1067 79.6596 98.1878 79.6596 98.2689 79.5786C98.5932 79.4165 98.9176 79.2544 99.3231 79.0923C99.6475 78.9303 99.9718 78.8492 100.296 78.7682C100.864 78.6061 101.35 78.5251 101.918 78.363C102.08 78.363 102.243 78.282 102.405 78.282C102.891 78.201 104.919 77.5527 106.865 77.8768C114.001 79.1734 113.19 86.8717 113.19 86.8717C113.352 88.0061 114.163 88.8165 115.38 89.7889L115.704 76.0941C115.461 75.7699 115.137 75.2837 114.893 74.7975Z" fill="white" stroke="black" stroke-width="2" stroke-miterlimit="10" stroke-linejoin="round"/>
<path d="M68.7506 70.5837C66.2366 70.5837 63.966 73.0148 63.6416 73.3389C63.5605 73.4199 63.5605 73.4199 63.4794 73.501C63.2361 73.7441 62.9117 74.0682 62.5874 74.3113C62.4252 74.4734 62.263 74.5544 62.1008 74.6355C61.8575 74.7975 61.6142 74.9596 61.2898 75.1217C61.0466 75.2027 60.8844 75.2837 60.6411 75.4458C60.2356 75.6079 59.8301 75.7699 59.4247 75.932C58.857 76.0941 58.3704 76.1751 57.8028 76.3372C57.6406 76.3372 57.4784 76.4182 57.2351 76.4182C56.7485 76.4993 56.262 76.4993 55.7754 76.5803C55.6943 76.5803 55.6132 76.5803 55.6132 76.5803C55.0455 76.5803 54.4779 76.5803 53.9102 76.4993C53.748 76.4993 53.6669 76.4993 53.5047 76.4993C52.9371 76.4182 52.4505 76.3372 51.8828 76.2562H51.8017C51.2341 76.0941 50.7475 75.932 50.1799 75.7699C50.0177 75.6889 49.9366 75.6889 49.7744 75.6079C49.45 75.4458 49.0445 75.2837 48.7201 75.1217C48.558 75.0406 48.3958 74.9596 48.3147 74.8786C47.9903 74.7165 47.747 74.4734 47.4226 74.3113C47.3415 74.2303 47.1793 74.1493 47.0983 74.0682C46.855 73.501 46.5306 73.0958 46.2062 72.7717C45.4764 71.7993 45.152 70.8268 45.2331 69.8544L44.9087 83.4682C44.9087 84.4406 45.2331 85.4131 45.8818 86.3855C46.1251 86.7906 46.4495 87.1148 46.855 87.4389C46.9361 87.5199 47.0983 87.601 47.1793 87.682C47.4226 87.9251 47.747 88.0872 48.0714 88.2493C48.2336 88.3303 48.3958 88.4113 48.4769 88.4924C48.8012 88.6544 49.1256 88.8165 49.5311 88.9786C49.6933 89.0596 49.7744 89.0596 49.9366 89.1406C50.0177 89.1406 50.0177 89.2217 50.0988 89.2217C50.5853 89.3837 51.0719 89.5458 51.5585 89.6269H51.6396C52.045 89.7079 52.3694 89.7889 52.7749 89.87C52.9371 89.87 53.0182 89.8699 53.1804 89.951C53.3425 89.951 53.4236 89.951 53.5858 90.032C53.748 90.032 53.8291 90.032 53.9913 90.1131C54.3968 90.1131 54.8023 90.1131 55.2077 90.1131H55.2888C55.3699 90.1131 55.451 90.1131 55.5321 90.1131C55.8565 90.1131 56.1809 90.1131 56.5052 90.032C56.6674 90.032 56.8296 89.951 56.9918 89.951C57.154 89.951 57.3162 89.87 57.5595 89.87C57.7217 89.87 57.8028 89.87 57.965 89.7889C58.3704 89.7079 58.7759 89.6268 59.1814 89.4648C59.4247 89.3837 59.6679 89.3027 59.9112 89.2217C60.0734 89.1406 60.2356 89.0596 60.3978 88.9786C60.6411 88.8975 60.8844 88.8165 61.0466 88.6544C61.2898 88.4924 61.5331 88.3303 61.7764 88.1682C61.9386 88.0872 62.1819 87.9251 62.3441 87.8441C62.4252 87.7631 62.5063 87.7631 62.5063 87.682C62.7495 87.4389 62.9928 87.2768 63.2361 87.0337C63.3172 86.9527 63.3172 86.9527 63.3983 86.8717C63.4794 86.7096 63.6416 86.6286 63.7227 86.4665C63.8849 86.3044 63.966 86.0613 64.1282 85.8182L68.5073 84.0355" fill="white"/>
<path d="M68.7506 70.5837C66.2366 70.5837 63.966 73.0148 63.6416 73.3389C63.5605 73.4199 63.5605 73.4199 63.4794 73.501C63.2361 73.7441 62.9117 74.0682 62.5874 74.3113C62.4252 74.4734 62.263 74.5544 62.1008 74.6355C61.8575 74.7975 61.6142 74.9596 61.2898 75.1217C61.0466 75.2027 60.8844 75.2837 60.6411 75.4458C60.2356 75.6079 59.8301 75.7699 59.4247 75.932C58.857 76.0941 58.3704 76.1751 57.8028 76.3372C57.6406 76.3372 57.4784 76.4182 57.2351 76.4182C56.7485 76.4993 56.262 76.4993 55.7754 76.5803C55.6943 76.5803 55.6132 76.5803 55.6132 76.5803C55.0455 76.5803 54.4779 76.5803 53.9102 76.4993C53.748 76.4993 53.6669 76.4993 53.5047 76.4993C52.9371 76.4182 52.4505 76.3372 51.8828 76.2562H51.8017C51.2341 76.0941 50.7475 75.932 50.1799 75.7699C50.0177 75.6889 49.9366 75.6889 49.7744 75.6079C49.45 75.4458 49.0445 75.2837 48.7201 75.1217C48.558 75.0406 48.3958 74.9596 48.3147 74.8786C47.9903 74.7165 47.747 74.4734 47.4226 74.3113C47.3415 74.2303 47.1793 74.1493 47.0983 74.0682C46.855 73.501 46.5306 73.0958 46.2062 72.7717C45.4764 71.7993 45.152 70.8268 45.2331 69.8544L44.9087 83.4682C44.9087 84.4406 45.2331 85.4131 45.8818 86.3855C46.1251 86.7906 46.4495 87.1148 46.855 87.4389C46.9361 87.5199 47.0983 87.601 47.1793 87.682C47.4226 87.9251 47.747 88.0872 48.0714 88.2493C48.2336 88.3303 48.3958 88.4113 48.4769 88.4924C48.8012 88.6544 49.1256 88.8165 49.5311 88.9786C49.6933 89.0596 49.7744 89.0596 49.9366 89.1406C50.0177 89.1406 50.0177 89.2217 50.0988 89.2217C50.5853 89.3837 51.0719 89.5458 51.5585 89.6269H51.6396C52.045 89.7079 52.3694 89.7889 52.7749 89.87C52.9371 89.87 53.0182 89.8699 53.1804 89.951C53.3425 89.951 53.4236 89.951 53.5858 90.032C53.748 90.032 53.8291 90.032 53.9913 90.1131C54.3968 90.1131 54.8023 90.1131 55.2077 90.1131H55.2888C55.3699 90.1131 55.451 90.1131 55.5321 90.1131C55.8565 90.1131 56.1809 90.1131 56.5052 90.032C56.6674 90.032 56.8296 89.951 56.9918 89.951C57.154 89.951 57.3162 89.87 57.5595 89.87C57.7217 89.87 57.8028 89.87 57.965 89.7889C58.3704 89.7079 58.7759 89.6268 59.1814 89.4648C59.4247 89.3837 59.6679 89.3027 59.9112 89.2217C60.0734 89.1406 60.2356 89.0596 60.3978 88.9786C60.6411 88.8975 60.8844 88.8165 61.0466 88.6544C61.2898 88.4924 61.5331 88.3303 61.7764 88.1682C61.9386 88.0872 62.1819 87.9251 62.3441 87.8441C62.4252 87.7631 62.5063 87.7631 62.5063 87.682C62.7495 87.4389 62.9928 87.2768 63.2361 87.0337C63.3172 86.9527 63.3172 86.9527 63.3983 86.8717C63.4794 86.7096 63.6416 86.6286 63.7227 86.4665C63.8849 86.3044 63.966 86.0613 64.1282 85.8182L68.5073 84.0355" stroke="black" stroke-width="2" stroke-miterlimit="10" stroke-linejoin="round"/>
<path d="M68.7506 70.5837L80.6716 86.3044L80.4283 100.323L68.4263 84.2786" fill="white"/>
<path d="M68.7506 70.5837L80.6716 86.3044L80.4283 100.323L68.4263 84.2786" stroke="black" stroke-width="2" stroke-miterlimit="10" stroke-linejoin="round"/>
<path d="M104.838 79.5786L104.594 93.1923L80.5903 100.323L80.8336 86.3044L104.838 79.5786Z" fill="white" stroke="black" stroke-width="2" stroke-miterlimit="10" stroke-linejoin="round"/>
<path d="M72.8864 26.501C77.7521 25.0424 83.7531 26.42 86.1048 29.6613C87.4024 31.4441 87.3213 33.3079 86.267 35.0096C86.3481 35.82 86.6725 36.9545 87.8078 37.6838L107.352 31.6872C109.136 31.12 111.325 31.6872 112.136 32.8217L121.462 45.382C121.868 45.301 122.354 45.22 122.679 45.1389C123.652 44.8148 124.463 44.3286 125.111 43.9234C125.841 42.2217 127.625 40.682 130.302 39.8717C135.248 38.4131 141.168 39.7907 143.52 43.032C145.872 46.2734 143.844 50.082 138.979 51.6217C136.546 52.351 133.951 52.351 131.599 51.8648C130.707 51.8648 129.247 51.9458 128.031 52.27C127.625 52.351 127.301 52.5131 126.896 52.7562L137.438 67.0182C138.33 68.1527 137.6 69.6114 135.816 70.1786L116.029 76.2562C114.731 75.3648 114.569 73.9872 114.488 73.1769C114.407 71.232 115.137 69.9355 114.001 68.3148C111.65 65.0734 105.73 63.6958 100.783 65.1545C95.9173 66.6131 93.8088 70.5027 96.2417 73.7441C97.5392 75.5269 99.891 76.6614 102.567 77.2286C103.54 77.7958 104.594 78.6872 104.919 79.6596L84.0775 85.9803C82.2934 86.5476 80.1038 85.9803 79.2929 84.8458L68.7506 70.5838C68.1829 70.5838 67.6152 70.7458 67.1287 70.9079C65.9122 71.3131 64.9391 71.9613 64.3714 72.3665C63.5605 73.9062 61.8575 75.2027 59.4247 75.932C54.559 77.3907 48.639 76.0131 46.2062 72.7717C43.7734 69.5303 45.8818 65.7217 50.7475 64.182C53.4236 63.3717 56.3431 63.4527 58.857 64.182C59.749 64.182 60.8033 64.02 61.8575 63.7769C62.3441 63.6148 62.8306 63.4527 63.2361 63.1286L53.9913 50.6493C53.0993 49.5148 53.8291 48.0562 55.6132 47.4889L76.6168 41.0872C76.2924 39.8717 74.8327 38.8993 73.8595 38.332C71.5078 37.7648 69.4804 36.6303 68.3451 35.0096C65.9122 31.8493 67.9396 28.0407 72.8864 26.501Z" fill="white" stroke="black" stroke-width="2" stroke-miterlimit="10" stroke-linejoin="round"/>
<path d="M165.659 68.5579V65.8837L165.578 68.4768C165.659 68.4768 165.659 68.5579 165.659 68.5579Z" fill="white" stroke="black" stroke-width="2" stroke-miterlimit="10" stroke-linejoin="round"/>
<path d="M165.74 64.6682C165.74 64.5872 165.74 64.5061 165.74 64.3441V65.8027V64.6682Z" fill="white" stroke="black" stroke-width="2" stroke-miterlimit="10" stroke-linejoin="round"/>
<path d="M184.959 67.6664C184.959 67.7475 184.959 67.9095 184.878 67.9906C184.797 68.1527 184.797 68.3147 184.716 68.4768C184.635 68.5578 184.635 68.7199 184.554 68.8009C184.473 68.882 184.473 68.963 184.392 69.1251C184.311 69.2871 184.148 69.5302 184.067 69.6923C183.905 69.9354 183.743 70.0975 183.581 70.3406C183.581 70.3406 183.581 70.4216 183.5 70.4216C183.256 70.6647 183.013 70.8268 182.77 71.0699C182.445 71.313 182.04 71.5561 181.716 71.7992C181.634 71.8802 181.553 71.8802 181.391 71.9613C181.067 72.1233 180.742 72.2854 180.418 72.4475C180.094 72.6096 179.769 72.6906 179.445 72.7716C178.877 72.9337 178.391 73.0147 177.823 73.1768C177.661 73.1768 177.499 73.2578 177.336 73.2578C176.85 73.3389 176.363 73.3389 175.796 73.4199C175.715 73.4199 175.715 73.4199 175.633 73.4199C175.066 73.4199 174.498 73.4199 173.93 73.3389C173.768 73.3389 173.687 73.3389 173.525 73.3389C172.957 73.2578 172.471 73.1768 171.984 73.0958H171.903C171.335 72.9337 170.849 72.7716 170.281 72.6096C170.119 72.5285 170.038 72.5285 169.876 72.4475C169.551 72.2854 169.146 72.1233 168.822 71.9613C168.659 71.8802 168.497 71.7992 168.416 71.7182C168.092 71.5561 167.848 71.313 167.524 71.0699C167.443 70.9889 167.281 70.9078 167.2 70.8268C166.875 70.5027 166.47 70.1785 166.226 69.7733C165.983 69.4492 165.497 68.2337 165.416 67.9095C165.416 67.9095 165.416 81.2802 165.416 82.1716C165.416 83.063 166.551 84.1975 166.875 84.5216C166.956 84.6027 167.119 84.6837 167.2 84.7647C167.443 85.0078 167.767 85.1699 168.092 85.332C168.254 85.413 168.416 85.494 168.497 85.5751C168.821 85.7372 169.227 85.8992 169.551 86.0613C169.714 86.1423 169.795 86.1423 169.957 86.2234C170.038 86.2234 170.038 86.3044 170.119 86.3044C170.606 86.4665 171.092 86.6285 171.579 86.7096H171.66C172.065 86.7906 172.39 86.8716 172.795 86.9527C172.957 86.9527 173.12 86.9527 173.201 87.0337C173.363 87.0337 173.444 87.0337 173.606 87.0337C173.768 87.0337 173.849 87.0337 174.012 87.1147C174.417 87.1147 174.823 87.1147 175.228 87.1147H175.309C175.39 87.1147 175.471 87.1147 175.552 87.1147C175.877 87.1147 176.201 87.1147 176.526 87.0337C176.688 87.0337 176.85 86.9527 177.012 86.9527C177.174 86.9527 177.336 86.8716 177.499 86.8716C177.661 86.8716 177.742 86.8716 177.904 86.7906C178.31 86.7096 178.715 86.6285 179.121 86.4665C179.364 86.3854 179.607 86.3044 179.931 86.2234C180.013 86.2234 180.013 86.1423 180.094 86.1423C180.418 85.9803 180.824 85.8182 181.148 85.6561C181.229 85.5751 181.31 85.5751 181.391 85.494C181.797 85.2509 182.121 85.0078 182.445 84.7647C182.445 84.7647 182.445 84.7647 182.527 84.7647C182.77 84.6027 183.013 84.3596 183.175 84.1975L183.256 84.1165C183.419 83.9544 183.581 83.7923 183.743 83.6303C183.743 83.6303 183.743 83.5492 183.824 83.5492C183.986 83.3871 184.067 83.144 184.148 82.982C184.23 82.9009 184.23 82.8199 184.311 82.7389C184.311 82.7389 184.311 82.7389 184.311 82.6578C184.392 82.5768 184.392 82.4147 184.473 82.3337C184.554 82.1716 184.554 82.0906 184.635 81.9285V81.8475C184.635 81.7665 184.635 81.6854 184.716 81.5234C184.716 81.3613 184.797 81.2803 184.797 81.1182C184.797 81.0371 184.797 80.9561 184.797 80.8751L185.122 67.1802C184.959 67.1802 184.959 67.4233 184.959 67.6664Z" fill="white" stroke="black" stroke-width="2" stroke-miterlimit="10" stroke-linejoin="round"/>
</g>
<defs>
<clipPath id="clip0">
<rect width="160" height="94" fill="white" transform="translate(44.0977 7.13373)"/>
</clipPath>
</defs>
</svg>
