<svg width="1440" height="1787" viewBox="0 0 1440 1787" fill="none" xmlns="http://www.w3.org/2000/svg">
    <rect y="459" width="1440" height="949" fill="url(#paint0_linear)"/>
    <path d="M104.321 1256.08L93.5727 1262.34L91.2766 1258.4C96.5323 1253.42 97.8501 1244.97 93.884 1238.17L83.1357 1244.43L81.0483 1240.84C79.7958 1238.7 77.5278 1238.1 75.3781 1239.35L46.7159 1256.05C44.5662 1257.3 43.9681 1259.57 45.2205 1261.72L47.3079 1265.3L36.5596 1271.56C40.5257 1278.37 48.3144 1281.03 55.4488 1279.27L57.7449 1283.22L46.9966 1289.48C50.9627 1296.29 58.7514 1298.95 65.8858 1297.19L68.182 1301.13L57.4336 1307.39C61.3997 1314.2 69.1884 1316.86 76.3229 1315.1L78.619 1319.04C79.8715 1321.19 82.1395 1321.79 84.2892 1320.54L112.951 1303.84C115.101 1302.59 115.699 1300.32 114.447 1298.17L112.151 1294.23C117.406 1289.25 118.724 1280.8 114.758 1273.99L104.01 1280.26L101.714 1276.31C106.761 1270.97 108.287 1262.89 104.321 1256.08ZM94.4455 1305.02C90.5044 1307.32 85.4013 1305.97 83.1051 1302.03C80.809 1298.09 82.1548 1292.99 86.0959 1290.69C90.0369 1288.4 95.1401 1289.74 97.4362 1293.68C99.7324 1297.62 98.3865 1302.73 94.4455 1305.02ZM84.0085 1287.11C80.0674 1289.41 74.9642 1288.06 72.6681 1284.12C70.3719 1280.18 71.7178 1275.07 75.6588 1272.78C79.5999 1270.48 84.703 1271.83 86.9992 1275.77C89.2953 1279.71 87.9495 1284.81 84.0085 1287.11ZM73.5714 1269.2C69.6304 1271.49 64.5272 1270.15 62.2311 1266.21C59.9349 1262.26 61.2807 1257.16 65.2218 1254.86C69.1628 1252.57 74.266 1253.91 76.5622 1257.86C78.8583 1261.8 77.5125 1266.9 73.5714 1269.2Z" fill="#56CD87"/>
    <path d="M985.951 1042.68L973.52 1042.23L973.685 1037.67C980.79 1036.27 986.417 1029.84 986.702 1021.96L974.271 1021.51L974.421 1017.37C974.511 1014.88 972.914 1013.17 970.427 1013.08L937.278 1011.87C934.791 1011.78 933.074 1013.38 932.984 1015.87L932.834 1020.01L920.402 1019.56C920.117 1027.43 925.279 1033.84 932.248 1036.17L932.083 1040.73L919.652 1040.28C919.366 1048.15 924.528 1054.56 931.497 1056.89L931.332 1061.45L918.901 1061C918.616 1068.87 923.777 1075.28 930.747 1077.61L930.581 1082.17C930.491 1084.65 932.089 1086.37 934.575 1086.46L967.725 1087.66C970.211 1087.75 971.929 1086.15 972.019 1083.67L972.184 1079.11C979.288 1077.71 984.915 1071.27 985.201 1063.4L972.769 1062.95L972.935 1058.39C980.054 1056.58 985.666 1050.55 985.951 1042.68ZM951.45 1078.77C946.892 1078.61 943.298 1074.74 943.463 1070.19C943.628 1065.63 947.493 1062.03 952.051 1062.2C956.609 1062.36 960.203 1066.23 960.038 1070.79C959.873 1075.35 956.008 1078.94 951.45 1078.77ZM952.201 1058.06C947.643 1057.89 944.049 1054.03 944.214 1049.47C944.379 1044.91 948.243 1041.32 952.801 1041.48C957.36 1041.65 960.954 1045.51 960.789 1050.07C960.624 1054.63 956.759 1058.22 952.201 1058.06ZM952.952 1037.34C948.394 1037.17 944.799 1033.31 944.964 1028.75C945.13 1024.19 948.994 1020.6 953.552 1020.76C958.11 1020.93 961.705 1024.79 961.539 1029.35C961.374 1033.91 957.51 1037.5 952.952 1037.34Z" fill="#56CD87"/>
    <path d="M-124.488 1043.26L-160.247 984.784L-114.415 956.757C43.9975 859.885 251.738 910.022 348.663 1068.52L496.592 1310.42C549.101 1396.29 599.312 1374.04 675.596 1327.39C773.411 1267.57 758.922 1215.54 735.396 1177.07L440.292 694.501C384.326 602.292 413.339 481.796 505.31 425.554C597.282 369.311 717.761 398.389 774.034 490.41L966.379 804.944C983.694 833.258 1020.69 841.925 1048.68 824.808L1071.14 811.076C1164.03 754.269 1285.5 783.586 1342.34 876.531L1365.86 915.001C1422.14 1007.02 1460.79 1014.25 1562.61 951.991L1832.06 787.213L1867.82 845.688L1598.37 1010.47C1529.77 1052.41 1481.16 1066.91 1436.32 1059.24C1388.01 1050.73 1348.26 1017.52 1307.42 950.74L1283.9 912.27C1246.82 851.641 1167.49 832.495 1106.9 869.551L1084.44 883.283C1024.15 920.151 944.824 901.005 907.936 840.683L715.591 526.149C679.079 466.443 600.743 447.537 541.069 484.029C481.395 520.521 462.531 598.867 499.043 658.573L794.335 1141.45C826.518 1194.08 858.882 1296.07 711.85 1385.99C678.937 1406.11 634.029 1433.58 585.756 1436.88C527.347 1440.88 477.979 1410.6 438.644 1346.28L290.716 1104.38C213.552 978.197 47.9545 938.23 -78.1601 1015.35L-124.3 1043.57L-124.488 1043.26Z" fill="url(#paint1_linear)"/>
    <path d="M-114.683 997.093L-96.2276 985.806C46.4973 898.527 232.611 943.707 319.749 1086.2L467.678 1328.1C540.701 1447.52 626.727 1397.45 693.783 1356.44C760.839 1315.43 821.387 1251.34 764.926 1159.02L469.821 676.443C423.335 600.425 447.213 501.252 523.19 454.791C599.166 408.33 698.326 432.262 744.813 508.279L937.157 822.813C964.259 867.131 1022.27 881.132 1066.56 854.045L1089.02 840.313C1165.92 793.288 1266.07 817.459 1313.12 894.4L1336.64 932.87C1405.9 1046.13 1467.29 1050.45 1580.49 981.228L1831.49 827.736" stroke="white" stroke-opacity="0.5" stroke-width="3" stroke-miterlimit="10" stroke-dasharray="10 15"/>
    <path d="M56.487 520.333C39.0983 530.628 33.3466 553.072 43.6412 570.461C53.9358 587.85 76.3807 593.602 93.7694 583.307C111.158 573.012 116.91 550.567 106.615 533.179C96.3205 515.79 73.8756 510.038 56.487 520.333ZM61.1473 528.205C71.3943 522.138 83.9569 523.615 92.6386 530.822L48.2971 557.074C46.1529 545.996 50.9002 534.271 61.1473 528.205ZM77.4583 555.756C75.2837 557.043 72.4797 556.325 71.1923 554.15C69.9049 551.976 70.6234 549.171 72.798 547.884C74.9726 546.597 77.7766 547.315 79.064 549.49C80.3514 551.664 79.6329 554.468 77.4583 555.756ZM51.5129 565.801C62.2677 559.434 77.1131 564.64 84.9052 577.384C72.6456 582.067 58.4172 577.463 51.5129 565.801ZM92.8399 572.687C85.4138 559.726 87.9886 544.206 98.7434 537.839C105.648 549.501 102.842 564.19 92.8399 572.687Z" fill="#25A560"/>
    <path d="M1277.49 1085.33C1260.1 1095.63 1254.35 1118.07 1264.64 1135.46C1274.94 1152.85 1297.38 1158.6 1314.77 1148.31C1332.16 1138.01 1337.91 1115.57 1327.62 1098.18C1317.32 1080.79 1294.88 1075.04 1277.49 1085.33ZM1282.15 1093.2C1292.39 1087.14 1304.96 1088.61 1313.64 1095.82L1269.3 1122.07C1267.15 1111 1271.9 1099.27 1282.15 1093.2ZM1298.46 1120.76C1296.28 1122.04 1293.48 1121.32 1292.19 1119.15C1290.9 1116.98 1291.62 1114.17 1293.8 1112.88C1295.97 1111.6 1298.78 1112.32 1300.06 1114.49C1301.35 1116.66 1300.63 1119.47 1298.46 1120.76ZM1272.51 1130.8C1283.27 1124.43 1298.11 1129.64 1305.91 1142.38C1293.65 1147.07 1279.42 1142.46 1272.51 1130.8ZM1313.84 1137.69C1306.41 1124.73 1308.99 1109.21 1319.74 1102.84C1326.65 1114.5 1323.84 1129.19 1313.84 1137.69Z" fill="#25A560"/>
    <path d="M598.948 1112.94C595.333 1115.45 591.719 1117.95 588.104 1120.46C585.348 1122.37 583.608 1123.6 581.12 1125.32C578.397 1127.18 575.686 1129.08 572.967 1130.96C567.982 1134.42 566.763 1141.12 570.203 1146.1C572.022 1148.72 573.837 1151.36 575.667 1153.98C578.653 1158.23 584.622 1159.72 589.244 1157.33C591.294 1156.27 593.054 1154.78 594.972 1153.51C596.304 1152.62 597.609 1151.71 598.911 1150.78C602.933 1147.82 604.452 1146.93 605.805 1146C611.383 1142.13 616.95 1138.26 622.528 1134.39C624.039 1133.35 625.549 1132.3 627.06 1131.25C631.972 1127.82 633.185 1121.12 629.8 1116.19C627.999 1113.58 626.195 1110.98 624.373 1108.37C620.998 1103.55 614.331 1102.33 609.467 1105.64C607.694 1106.84 605.939 1108.09 604.18 1109.31C602.433 1110.52 600.685 1111.73 598.948 1112.94ZM619.318 1116.66C620.965 1119.03 621.94 1120.74 622.745 1122.54C623.551 1124.35 624.169 1126.21 624.435 1128.18C624.481 1128.5 624.489 1128.77 624.08 1128.89C621.681 1129.58 619.29 1130.28 616.906 1130.99C616.577 1131.09 616.378 1130.99 616.227 1130.68C615.356 1128.92 614.33 1127.23 613.312 1125.56C611.283 1122.22 608.87 1119.18 606.262 1116.27C605.901 1115.87 605.853 1115.61 606.187 1115.17C607.552 1113.36 608.881 1111.54 610.235 1109.74C610.833 1108.94 610.833 1108.94 611.676 1109.45C611.753 1109.49 611.82 1109.54 611.897 1109.58C615.161 1111.57 617.653 1114.33 619.318 1116.66ZM601.172 1141.3C601.393 1141.43 601.284 1141.67 601.096 1141.93C599.628 1143.89 598.152 1145.84 596.692 1147.81C596.454 1148.14 596.218 1148.19 595.865 1148C594.831 1147.46 593.883 1146.8 592.977 1146.07C589.492 1143.22 586.88 1139.66 584.857 1135.66C583.798 1133.58 583.04 1131.41 582.724 1129.09C582.669 1128.66 582.789 1128.46 583.216 1128.34C585.532 1127.7 587.833 1127.03 590.137 1126.34C590.597 1126.2 590.792 1126.32 590.993 1126.72C592.002 1128.71 593.105 1130.64 594.346 1132.5C596.38 1135.55 598.533 1138.51 601.172 1141.3Z" fill="#48C47B"/>
    <path d="M1072.14 1204.24C1073.19 1208.51 1074.24 1212.79 1075.29 1217.06C1076.09 1220.32 1076.61 1222.38 1077.33 1225.32C1078.09 1228.53 1078.89 1231.74 1079.68 1234.95C1081.13 1240.84 1086.95 1244.38 1092.83 1242.95C1095.93 1242.18 1099.04 1241.43 1102.14 1240.66C1107.18 1239.39 1110.7 1234.35 1110.12 1229.18C1109.87 1226.89 1109.11 1224.71 1108.61 1222.47C1108.25 1220.9 1107.87 1219.36 1107.47 1217.81C1106.15 1213 1105.86 1211.26 1105.47 1209.66C1103.85 1203.07 1102.23 1196.49 1100.61 1189.89C1100.17 1188.11 1099.74 1186.32 1099.3 1184.54C1097.86 1178.73 1092.03 1175.19 1086.22 1176.59C1083.13 1177.34 1080.06 1178.09 1076.97 1178.86C1071.27 1180.29 1067.74 1186.08 1069.09 1191.81C1069.57 1193.89 1070.11 1195.98 1070.62 1198.06C1071.13 1200.12 1071.64 1202.19 1072.14 1204.24ZM1082.9 1186.55C1085.71 1185.86 1087.65 1185.56 1089.62 1185.45C1091.6 1185.35 1093.55 1185.43 1095.49 1185.89C1095.81 1185.96 1096.06 1186.05 1096.03 1186.48C1095.81 1188.96 1095.61 1191.45 1095.42 1193.93C1095.4 1194.27 1095.23 1194.42 1094.89 1194.45C1092.93 1194.63 1090.99 1194.99 1089.06 1195.34C1085.22 1196.04 1081.52 1197.21 1077.87 1198.6C1077.36 1198.79 1077.11 1198.75 1076.82 1198.28C1075.62 1196.36 1074.39 1194.47 1073.19 1192.56C1072.66 1191.71 1072.66 1191.71 1073.43 1191.1C1073.5 1191.05 1073.57 1191 1073.64 1190.95C1076.66 1188.61 1080.13 1187.27 1082.9 1186.55ZM1099.42 1212.31C1099.63 1212.15 1099.81 1212.34 1099.98 1212.6C1101.29 1214.68 1102.58 1216.75 1103.9 1218.82C1104.12 1219.16 1104.08 1219.4 1103.78 1219.66C1102.9 1220.43 1101.96 1221.08 1100.95 1221.67C1097.04 1223.9 1092.78 1225.07 1088.32 1225.53C1086 1225.77 1083.7 1225.7 1081.42 1225.17C1081 1225.07 1080.86 1224.88 1080.9 1224.44C1081.13 1222.05 1081.32 1219.66 1081.51 1217.26C1081.54 1216.78 1081.72 1216.64 1082.17 1216.6C1084.38 1216.37 1086.58 1216.03 1088.76 1215.53C1092.34 1214.72 1095.87 1213.77 1099.42 1212.31Z" fill="#48C47B"/>
    <defs>
        <linearGradient id="paint0_linear" x1="720" y1="459" x2="720" y2="1408" gradientUnits="userSpaceOnUse">
            <stop stop-color="#018544"/>
            <stop offset="1" stop-color="#49C57C"/>
        </linearGradient>
        <linearGradient id="paint1_linear" x1="2367.83" y1="148.193" x2="-822.054" y2="1654.83" gradientUnits="userSpaceOnUse">
            <stop stop-color="#0D8F4D"/>
            <stop offset="0.510153" stop-color="#27A661"/>
            <stop offset="1" stop-color="#109150"/>
        </linearGradient>
    </defs>
</svg>
