<svg width="1440" height="1767" viewBox="0 0 1440 1767" fill="none" xmlns="http://www.w3.org/2000/svg">
    <path d="M1666.27 729.522L1699.39 786.878L1654.43 812.832C1499.05 902.541 1299.61 849.043 1209.85 693.578L1072.86 456.307C1024.24 372.084 975.194 392.35 900.37 435.549C804.427 490.942 817.154 541.554 838.94 579.288L1112.22 1052.62C1164.03 1143.06 1133.07 1258.74 1042.86 1310.82C952.644 1362.91 836.977 1331.88 784.866 1241.62L606.745 933.108C590.711 905.336 555.186 896.062 527.73 911.913L505.705 924.629C414.589 977.235 297.97 945.954 245.336 854.788L223.55 817.054C171.439 726.794 134.277 718.867 34.4117 776.525L-229.886 929.117L-263 871.761L1.29733 719.169C68.5785 680.324 115.885 667.501 159.013 676.009C205.473 685.409 243.055 718.451 280.875 783.958L302.661 821.692C336.995 881.161 413.154 901.589 472.591 867.274L494.616 854.558C553.751 820.416 629.91 840.845 664.07 900.012L842.19 1208.53C876.002 1267.09 951.209 1287.26 1009.74 1253.47C1068.27 1219.68 1088.41 1144.46 1054.59 1085.89L781.139 612.257C751.336 560.637 722.563 461.33 866.78 378.066C899.063 359.427 943.112 333.995 989.822 331.983C1046.34 329.54 1093.29 359.991 1129.71 423.083L1266.7 660.354C1338.16 784.122 1497.14 826.767 1620.84 755.349L1666.1 729.22L1666.27 729.522Z" fill="url(#paint0_linear)"/>
    <path d="M1655.68 773.877L1637.57 784.328C1497.58 865.153 1318.91 816.971 1238.21 677.204L1101.22 439.932C1033.6 322.806 949.284 369.072 883.511 407.046C817.739 445.019 757.69 505.448 809.976 596.01L1083.26 1069.35C1126.3 1143.91 1100.82 1239.12 1026.3 1282.15C951.776 1325.17 856.577 1299.64 813.528 1225.07L635.408 916.56C610.311 873.09 554.619 858.152 511.173 883.235L489.148 895.951C413.721 939.499 317.57 913.708 273.998 838.24L252.213 800.506C188.075 689.417 128.883 683.744 17.8544 747.847L-228.34 889.987" stroke="white" stroke-width="3" stroke-miterlimit="10" stroke-dasharray="10 15"/>
    <path d="M190.62 1172.38C162.334 1154.6 124.982 1163.12 107.2 1191.4C89.4176 1219.69 97.9337 1257.04 126.22 1274.82C154.506 1292.6 191.857 1284.09 209.639 1255.8C227.422 1227.52 218.906 1190.17 190.62 1172.38ZM182.57 1185.19C199.238 1195.67 206.567 1215.26 202.535 1233.47L130.405 1188.13C145.072 1176.6 165.901 1174.71 182.57 1185.19ZM154.395 1230.01C150.857 1227.78 149.793 1223.12 152.017 1219.58C154.241 1216.04 158.907 1214.98 162.445 1217.2C165.982 1219.42 167.046 1224.09 164.822 1227.63C162.598 1231.17 157.932 1232.23 154.395 1230.01ZM120.005 1199.45C137.5 1210.45 141.07 1236.22 128.225 1257.31C112.069 1242.83 108.079 1218.42 120.005 1199.45ZM141.132 1265.43C154.573 1244.71 179.34 1236.75 196.834 1247.75C184.908 1266.72 161.188 1273.71 141.132 1265.43Z" fill="#F5F6F7"/>
    <path d="M63.5283 520.185L41.064 515.249L42.8737 507.013C56.2615 506.814 68.6282 496.972 71.7539 482.744L49.2896 477.809L50.9348 470.321C51.9218 465.828 49.5847 462.175 45.0918 461.188L-14.8128 448.027C-19.3057 447.04 -22.9589 449.377 -23.946 453.87L-25.5911 461.358L-48.0554 456.422C-51.1811 470.65 -43.9143 484.021 -32.0071 490.561L-33.8168 498.798L-56.281 493.863C-59.4067 508.09 -52.1399 521.461 -40.2327 528.002L-42.0424 536.239L-64.5066 531.303C-67.6323 545.531 -60.3655 558.901 -48.4583 565.442L-50.268 573.679C-51.2551 578.172 -48.9179 581.825 -44.425 582.812L15.4796 595.973C19.9725 596.96 23.6257 594.623 24.6128 590.13L26.4224 581.893C39.8102 581.695 52.1769 571.853 55.3027 557.625L32.8384 552.69L34.6481 544.453C48.2004 543.506 60.4025 534.412 63.5283 520.185ZM-11.1825 574.417C-19.4193 572.607 -24.678 564.387 -22.8684 556.15C-21.0587 547.913 -12.8389 542.655 -4.60197 544.464C3.63491 546.274 8.89358 554.494 7.08394 562.731C5.27431 570.968 -2.94558 576.226 -11.1825 574.417ZM-2.95685 536.976C-11.1937 535.167 -16.4524 526.947 -14.6428 518.71C-12.8331 510.473 -4.61325 505.214 3.62364 507.024C11.8605 508.833 17.1192 517.053 15.3096 525.29C13.4999 533.527 5.28003 538.786 -2.95685 536.976ZM5.26876 499.536C-2.96813 497.726 -8.22679 489.506 -6.41715 481.269C-4.60752 473.032 3.61236 467.774 11.8493 469.583C20.0861 471.393 25.3448 479.613 23.5352 487.85C21.7255 496.087 13.5056 501.345 5.26876 499.536Z" fill="#ECF9F4"/>
    <path d="M1456.17 645.215C1450.72 638.78 1445.27 632.346 1439.82 625.912C1435.66 621.005 1433.01 617.91 1429.26 613.482C1425.21 608.629 1421.1 603.805 1417 598.965C1409.48 590.091 1396.48 588.996 1387.61 596.475C1382.94 600.428 1378.24 604.378 1373.59 608.35C1366.02 614.83 1364.28 626.49 1369.7 634.868C1372.08 638.584 1375.26 641.669 1378.03 645.095C1379.97 647.471 1381.94 649.795 1383.96 652.106C1390.34 659.236 1392.32 661.97 1394.36 664.379C1402.77 674.309 1411.16 684.22 1419.57 694.149C1421.85 696.838 1424.13 699.527 1426.4 702.216C1433.84 710.958 1446.86 712.037 1455.63 704.675C1460.29 700.757 1464.92 696.837 1469.56 692.882C1478.13 685.556 1479.24 672.611 1472.03 663.941C1469.41 660.778 1466.71 657.661 1464.05 654.53C1461.42 651.418 1458.78 648.307 1456.17 645.215ZM1452.82 684.761C1448.59 688.34 1445.52 690.514 1442.22 692.384C1438.92 694.253 1435.49 695.773 1431.78 696.643C1431.17 696.79 1430.67 696.855 1430.36 696.097C1428.6 691.648 1426.83 687.214 1425.03 682.798C1424.78 682.187 1424.94 681.79 1425.5 681.443C1428.7 679.459 1431.73 677.191 1434.74 674.941C1440.73 670.455 1446.09 665.292 1451.15 659.783C1451.86 659.02 1452.34 658.88 1453.24 659.437C1456.94 661.709 1460.65 663.909 1464.34 666.162C1465.97 667.154 1465.97 667.154 1465.17 668.856C1465.1 669.011 1465.02 669.147 1464.96 669.302C1461.77 675.895 1456.95 681.158 1452.82 684.761ZM1402.47 654.675C1402.25 655.122 1401.78 654.958 1401.25 654.646C1397.24 652.206 1393.25 649.75 1389.22 647.327C1388.55 646.932 1388.41 646.492 1388.7 645.784C1389.55 643.711 1390.62 641.782 1391.85 639.919C1396.66 632.746 1402.97 627.107 1410.22 622.512C1413.99 620.11 1418 618.264 1422.38 617.233C1423.18 617.05 1423.57 617.243 1423.88 618.037C1425.54 622.335 1427.24 626.602 1428.98 630.871C1429.34 631.722 1429.14 632.117 1428.41 632.574C1424.81 634.865 1421.32 637.326 1418 640.033C1412.56 644.476 1407.3 649.129 1402.47 654.675Z" fill="#F4F6F7"/>
    <defs>
        <linearGradient id="paint0_linear" x1="-763" y1="1533.3" x2="2355" y2="155.801" gradientUnits="userSpaceOnUse">
            <stop stop-color="#D7DDE1"/>
            <stop offset="0.712707" stop-color="#EFF1F3" stop-opacity="0.16"/>
            <stop offset="1" stop-color="#D7DDE1"/>
        </linearGradient>
    </defs>
</svg>
