<svg width="195" height="167" viewBox="0 0 195 167" fill="none" xmlns="http://www.w3.org/2000/svg">
<path d="M178.824 138.411C163.325 159.19 134.876 158.424 97.9493 153.054C59.9531 147.529 51.4932 151.921 24.2098 134.427C-3.07352 116.933 -0.272339 82.9165 31.3102 79.1601C62.8928 75.4037 56.4726 55.5998 116.391 66.1823C205.793 81.9723 194.322 117.632 178.824 138.411Z" fill="#FFB800"/>
<g clip-path="url(#clip0)">
<path d="M188.591 96.1434C188.591 98.5115 188.183 100.88 187.435 103.248C185.055 110.758 178.8 117.862 168.738 123.681C142.29 138.904 99.3198 138.904 72.8717 123.681C62.8091 117.862 56.554 110.758 54.1744 103.248C53.4265 100.88 53.0186 98.5115 53.0186 96.1434C53.0186 86.1975 59.6136 76.184 72.8717 68.6062C99.3198 53.3829 142.29 53.3829 168.738 68.6062C181.928 76.184 188.591 86.1299 188.591 96.1434Z" fill="white" stroke="black" stroke-width="2" stroke-miterlimit="10" stroke-linejoin="round"/>
<path d="M188.591 96.1434V110.419C188.591 120.365 181.996 130.379 168.738 137.957C142.29 153.18 99.3204 153.18 72.8723 137.957C59.5462 130.311 52.9512 120.365 52.9512 110.352V96.1434C52.9512 98.5114 53.3591 100.88 54.107 103.248C56.4867 110.758 62.7417 117.862 72.8043 123.681C99.2524 138.904 142.222 138.904 168.67 123.681C178.733 117.862 184.988 110.758 187.368 103.248C188.183 100.88 188.591 98.5114 188.591 96.1434Z" fill="white" stroke="black" stroke-width="2" stroke-miterlimit="10" stroke-linejoin="round"/>
<path d="M84.0224 117.253C63.7614 105.616 63.7614 86.6711 84.0224 75.0338C104.283 63.3964 137.259 63.3964 157.52 75.0338C177.781 86.6711 177.781 105.616 157.52 117.253C137.259 128.89 104.283 128.89 84.0224 117.253ZM149.157 79.7699C133.451 70.7713 107.955 70.7713 92.3172 79.7699C76.6115 88.7686 76.6115 103.451 92.3172 112.449C108.023 121.448 133.519 121.448 149.157 112.449C164.863 103.451 164.863 88.8362 149.157 79.7699Z" fill="white" stroke="black" stroke-width="2" stroke-miterlimit="10" stroke-linejoin="round"/>
<path d="M103.196 106.225C93.5414 100.677 93.5414 91.6103 103.196 86.0622C112.851 80.5142 128.624 80.5142 138.279 86.0622C147.934 91.6103 147.934 100.677 138.279 106.225C128.624 111.773 112.919 111.773 103.196 106.225ZM129.984 90.866C124.885 87.9567 116.658 87.9567 111.559 90.866C106.46 93.7753 106.46 98.5115 111.559 101.421C116.658 104.33 124.885 104.33 129.984 101.421C135.015 98.5115 135.015 93.7753 129.984 90.866Z" fill="white" stroke="black" stroke-width="2" stroke-miterlimit="10" stroke-linejoin="round"/>
<path d="M119.068 2.33627C118.675 2.20095 118.479 1.99797 118.479 1.79499C118.479 1.59202 118.675 1.38904 119.068 1.25372C119.855 0.915426 121.132 0.915426 121.919 1.25372C122.312 1.38904 122.508 1.59202 122.508 1.79499C122.508 1.99797 122.312 2.20095 121.919 2.33627C121.132 2.67456 119.855 2.67456 119.068 2.33627Z" fill="white" stroke="black" stroke-width="2" stroke-miterlimit="10" stroke-linejoin="round"/>
<path d="M119.068 96.1793C118.675 96.044 118.479 95.841 118.479 95.638V1.79498C118.479 1.99796 118.675 2.20094 119.068 2.33625C119.855 2.67455 121.132 2.67455 121.919 2.33625C122.312 2.20094 122.508 1.99796 122.508 1.79498V95.638C122.508 95.841 122.312 96.044 121.919 96.1793C121.132 96.5176 119.855 96.5176 119.068 96.1793Z" fill="white" stroke="black" stroke-width="2" stroke-miterlimit="10" stroke-linejoin="round"/>
<path d="M111.271 10.0494C111.271 10.0494 111.271 4.77197 111.271 3.48645L118.41 7.68131L118.478 31.5649L111.271 27.3024C111.271 24.6637 111.271 15.3944 111.271 15.3944V10.0494Z" fill="white" stroke="black" stroke-width="2" stroke-miterlimit="10" stroke-linejoin="round"/>
<path d="M130.813 15.3944C130.813 15.3944 130.813 24.6637 130.813 27.3024L123.198 31.6326V8.0196L130.813 3.48645C130.813 4.70431 130.813 10.0494 130.813 10.0494V15.3944Z" fill="white" stroke="black" stroke-width="2" stroke-miterlimit="10" stroke-linejoin="round"/>
</g>
<defs>
<clipPath id="clip0">
<rect width="137" height="150" fill="white" transform="translate(52.2715)"/>
</clipPath>
</defs>
</svg>
