<svg xmlns="http://www.w3.org/2000/svg" width="102" height="99" viewBox="0 0 102 99">
  <g fill="none" fill-rule="evenodd" transform="translate(0 .54)">
    <path fill="#000" fill-rule="nonzero" d="M51.2840899,26.1427738 C50.9685216,26.1427738 50.712703,25.8869552 50.712703,25.5713869 C50.712703,25.2558186 50.9685216,25 51.2840899,25 L60.4262806,25 C60.7418489,25 60.9976675,25.2558186 60.9976675,25.5713869 C60.9976675,25.8869552 60.7418489,26.1427738 60.4262806,26.1427738 L51.2840899,26.1427738 Z M71.854019,26.1427738 C71.5384507,26.1427738 71.2826321,25.8869552 71.2826321,25.5713869 C71.2826321,25.2558186 71.5384507,25 71.854019,25 L79.7159101,25 C80.1547968,25 80.5922006,25.0126947 81.0277615,25.0379903 C81.342799,25.0562863 81.5833554,25.3265066 81.5650593,25.641544 C81.5467632,25.9565815 81.276543,26.1971379 80.9615055,26.1788418 C80.5480032,26.1548273 80.132694,26.1427738 79.7159101,26.1427738 L71.854019,26.1427738 Z M91.4309762,29.6826615 C91.1684405,29.5075662 91.0975561,29.1527963 91.2726513,28.8902606 C91.4477466,28.6277249 91.8025166,28.5568404 92.0650523,28.7319356 C94.6935703,30.4849965 96.9266429,32.7805855 98.6057641,35.4568984 C98.7734762,35.7242109 98.6927341,36.0768681 98.4254216,36.2445802 C98.1581091,36.4122923 97.8054519,36.3315503 97.6377398,36.0642377 C96.0444539,33.5247357 93.9252123,31.3461645 91.4309762,29.6826615 Z M100.848638,46.6754561 C100.839725,46.3600137 101.088216,46.0970717 101.403659,46.0881587 C101.719101,46.0792457 101.982043,46.3277369 101.990956,46.6431793 C101.996875,46.8526553 101.999892,47.062505 101.999997,47.2729753 L102,55.8125593 C102,56.1281276 101.744182,56.3839463 101.428613,56.3839464 C101.113045,56.3839465 100.857226,56.128128 100.857226,55.8125597 L100.857223,47.2732617 C100.857123,47.0736476 100.854258,46.8743671 100.848638,46.6754561 Z M100.857226,67.2402979 C100.857226,66.9247296 101.113045,66.668911 101.428613,66.668911 C101.744181,66.668911 102,66.9247296 102,67.2402979 L102,75.7159101 C102,75.9441241 101.996568,76.1719441 101.989715,76.3993201 C101.980209,76.7147452 101.716801,76.9627417 101.401376,76.9532359 C101.085951,76.9437301 100.837954,76.6803216 100.84746,76.3648965 C100.853967,76.1489911 100.857226,75.932647 100.857226,75.7159101 L100.857226,67.2402979 Z M97.6447041,86.9246544 C97.8122505,86.657238 98.1648575,86.5762774 98.4322739,86.7438238 C98.6996904,86.9113702 98.780651,87.2639773 98.6131046,87.5313937 C96.9355669,90.2088674 94.7037796,92.5059106 92.0761944,94.2606284 C91.8137638,94.4358812 91.4589514,94.3652096 91.2836986,94.102779 C91.1084458,93.8403485 91.1791174,93.485536 91.441548,93.3102832 C93.9349005,91.6452069 96.052922,89.4652558 97.6447041,86.9246544 Z M80.9340989,96.8227322 C81.2491596,96.8048409 81.5190705,97.0457443 81.5369618,97.360805 C81.5548531,97.6758657 81.3139497,97.9457766 80.998889,97.9636679 C80.5808923,97.9874046 80.1612065,97.9995386 79.7395421,97.9999874 L71.8011626,98 C71.4855943,98.0000005 71.2297752,97.7441823 71.2297747,97.428614 C71.2297742,97.1130457 71.4855925,96.8572267 71.8011607,96.8572262 L79.7389325,96.8572139 C80.1387822,96.856788 80.5372688,96.8452669 80.9340989,96.8227322 Z M60.3734232,96.8572262 C60.6889915,96.8572262 60.9448102,97.1130448 60.9448102,97.4286131 C60.9448102,97.7441814 60.6889915,98 60.3734232,98 L51.2840899,98 C51.2565021,97.9999889 51.2565021,97.9999889 51.2289246,97.9999331 C50.9133572,97.9991681 50.6581595,97.74273 50.6589246,97.4271626 C50.6596897,97.1115952 50.9161278,96.8563976 51.2316951,96.8571627 C51.2578874,96.8572156 51.2578874,96.8572156 51.2840899,96.8572262 L60.3734232,96.8572262 Z M40.5914366,93.9578846 C40.8635282,94.1177267 40.9545244,94.4678782 40.7946823,94.7399698 C40.6348402,95.0120614 40.2846888,95.1030576 40.0125972,94.9432156 C37.2882605,93.3427854 34.9291556,91.1768706 33.1002408,88.6002514 C32.9175836,88.3429196 32.9781194,87.986238 33.2354513,87.8035808 C33.4927831,87.6209236 33.8494647,87.6814593 34.0321219,87.9387912 C35.767652,90.3838478 38.0064771,92.4393325 40.5914366,93.9578846 Z M30.2204301,77.5410961 C30.2473069,77.8555178 30.0142058,78.1321949 29.6997841,78.1590717 C29.3853625,78.1859486 29.1086854,77.9528474 29.0818086,77.6384258 C29.0283664,77.0132266 29.0010077,76.3837798 29.0000266,75.7502938 L29,68.4148849 C28.9999989,68.0993166 29.2558166,67.843497 29.5713848,67.8434959 C29.8869531,67.8434947 30.1427727,68.0993124 30.1427738,68.4148807 L30.1427998,75.7494062 C30.1437307,76.3501021 30.1697037,76.9476681 30.2204301,77.5410961 Z M30.1427738,56.9871444 C30.1427738,57.3027127 29.8869552,57.5585313 29.5713869,57.5585313 C29.2558186,57.5585313 29,57.3027127 29,56.9871444 L29,47.8449537 C29,47.5293854 29.2558186,47.2735667 29.5713869,47.2735667 C29.8869552,47.2735667 30.1427738,47.5293854 30.1427738,47.8449537 L30.1427738,56.9871444 Z M32.7443563,37.1152703 C32.5923444,37.3918127 32.2449325,37.4927648 31.96839,37.3407529 C31.6918476,37.1887411 31.5908955,36.8413292 31.7429074,36.5647867 C33.2650113,33.7957496 35.3633352,31.37667 37.887041,29.4752341 C38.13908,29.2853403 38.4973374,29.3357189 38.6872312,29.587758 C38.877125,29.839797 38.8267464,30.1980544 38.5747073,30.3879482 C36.1798179,32.19233 34.18852,34.4880234 32.7443563,37.1152703 Z M48.85474,26.2807838 C48.5412157,26.3166424 48.2579849,26.0915498 48.2221264,25.7780254 C48.1862678,25.4645011 48.4113604,25.1812703 48.7248848,25.1454118 C49.5556034,25.0504005 50.3946857,25.0016991 51.2400613,25.0000429 L51.2835301,25.0000003 C51.5990982,24.9996911 51.8551674,25.255259 51.8554765,25.5708272 C51.8557857,25.8863953 51.6002178,26.1424644 51.2846497,26.1427736 L51.2417407,26.1428153 C50.4395904,26.1443872 49.6431132,26.1906157 48.85474,26.2807838 Z"/>
    <path fill="#9595EF" fill-opacity=".078" d="M49,25 L83,25 C93.4934102,25 102,33.5065898 102,44 L102,78 C102,88.4934102 93.4934102,97 83,97 L49,97 C38.5065898,97 30,88.4934102 30,78 L30,44 C30,33.5065898 38.5065898,25 49,25 Z"/>
    <rect width="69" height="61" x="7" y="11" fill="#FFF" fill-rule="nonzero"/>
    <path fill="#3C5AFD" fill-rule="nonzero" d="M76.9214519,6.07977375 C80.8251066,9.98338275 82.8518297,14.873269 83,20.7497568 L83,62.2502432 C82.8518297,68.1251099 80.8254309,73.0166173 76.9214519,76.9202263 C73.0177972,80.8238352 68.1262324,82.8505346 62.25,83 L20.75,83 C14.8734433,82.8508588 9.98349974,80.8241595 6.079845,76.9202263 C2.17619025,73.0169415 0.149142955,68.1254341 0,62.2505674 L0,20.7500811 C0.149142955,14.8735933 2.17586603,9.98370697 6.079845,6.08009797 C9.98349974,2.17616475 14.8734433,0.149141208 20.75,0 L62.25,0 C68.1262324,0.149141208 73.0177972,2.17584053 76.9214519,6.07977375 Z M71.1972804,39.4744354 C69.892928,38.1769069 69.214976,36.548674 69.1611549,34.5897367 L69.1611549,20.7500811 C69.1196542,18.7911437 68.447214,17.160317 67.1441585,15.8572768 C65.8407788,14.5529397 64.2086361,13.8818042 62.25,13.8406283 L55.340142,13.8406283 L55.340142,48.4109118 L27.6611549,13.8399798 L20.75,13.8399798 C18.7910397,13.88148 17.1601939,14.5526154 15.8571384,15.8569526 C14.552786,17.160317 13.8816427,18.7911437 13.8404663,20.7494326 L13.8404663,34.5897367 C13.7863209,36.548674 13.1083689,38.1769069 11.8040165,39.4744354 C10.5006367,40.7703429 8.86979093,41.4456931 6.91115486,41.4995137 C8.86979093,41.5546311 10.500961,42.2299814 11.8036922,43.5258888 C13.1083689,44.8234173 13.7863209,46.4516502 13.840142,48.4105875 L13.840142,62.2502432 C13.8816427,64.2075594 14.552786,65.8400072 15.8571384,67.1430474 C17.1605181,68.4464119 18.7913639,69.11852 20.7496758,69.1596959 L27.6611549,69.1596959 L27.6611549,34.5900609 L55.340142,69.1606686 L62.25,69.1606686 C64.2086361,69.1191684 65.841103,68.4467361 67.1441585,67.1436959 C68.4475382,65.8403314 69.1196542,64.2082078 69.1608306,62.2512158 L69.1608306,48.4109118 C69.214976,46.4519744 69.892928,44.8237415 71.1972804,43.526213 C72.5006602,42.2303056 74.131506,41.5549553 76.090142,41.4998379 C74.131506,41.4456931 72.5003359,40.7706671 71.1976047,39.4747597 L71.1972804,39.4744354 Z"/>
  </g>
</svg>
