<svg xmlns="http://www.w3.org/2000/svg" width="100" height="95" viewBox="0 0 100 95">
  <g fill="none" fill-rule="evenodd" transform="translate(-1 -7)">
    <path fill="#F7F7FE" fill-rule="nonzero" stroke="#000" stroke-dasharray="8 10" stroke-linecap="round" stroke-linejoin="round" d="M58.0224719,101 C81.2308423,101 100.044944,82.1858985 100.044944,58.9775281 C100.044944,35.7691577 81.2308423,16.9550562 58.0224719,16.9550562 C34.8141015,16.9550562 16,35.7691577 16,58.9775281 C16,82.1858985 34.8141015,101 58.0224719,101 Z"/>
    <g transform="translate(0 6.93)">
      <path fill="#008DC2" d="M78.1314212,41.8137273 C78.1314212,63.0600572 60.910635,80.2808433 39.6643052,80.2808433 C18.4179753,80.2808433 1.19670384,63.0600572 1.19670384,41.8137273 C1.19670384,20.5673974 18.41749,3.34661131 39.6638199,3.34661131 C60.910635,3.32768471 78.1314212,20.5673974 78.1314212,41.8137273"/>
      <path fill="#FFF" d="M6.50735581 22.9788424C6.50735581 24.6749576 5.12813997 26.0541734 3.43202478 26.0541734 1.73590959 26.0541734.356693752 24.6749576.356693752 22.9788424.356693752 21.2827272 1.73590959 19.9035114 3.43202478 19.9035114 5.14706658 19.9035114 6.50735581 21.2827272 6.50735581 22.9788424M7.02953606 31.4215651C7.02953606 33.1176803 5.65032021 34.4968962 3.95420502 34.4968962 2.25808984 34.4968962.878873994 33.1176803.878873994 31.4215651.878873994 29.7254499 2.25808984 28.3462341 3.95420502 28.3462341 5.65032021 28.3462341 7.02953606 29.7065233 7.02953606 31.4215651M8.91152023 40.3670562C8.91152023 42.0631714 7.53230439 43.4423872 5.8361892 43.4423872 4.14007401 43.4423872 2.76085817 42.0631714 2.76085817 40.3670562 2.76085817 38.670941 4.14007401 37.2917252 5.8361892 37.2917252 7.53278969 37.2732839 8.91152023 38.6524997 8.91152023 40.3670562M13.1239036 48.3812611C13.1239036 50.0773763 11.7446878 51.4565922 10.0485726 51.4565922 8.35245737 51.4565922 6.97324153 50.0773763 6.97324153 48.3812611 6.97324153 46.6851459 8.35245737 45.3059301 10.0485726 45.3059301 11.7446878 45.2874888 13.1239036 46.6667046 13.1239036 48.3812611M46.0557149 59.5824156C46.0557149 61.2785307 44.6764991 62.6577466 42.9803839 62.6577466 41.2842687 62.6577466 39.9050529 61.2785307 39.9050529 59.5824156 39.9050529 57.8863004 41.2842687 56.5070845 42.9803839 56.5070845 44.6764991 56.5070845 46.0557149 57.8863004 46.0557149 59.5824156M51.6468288 52.9658678C51.6468288 54.661983 50.267613 56.0411988 48.5714978 56.0411988 46.8753826 56.0411988 45.4961668 54.661983 45.4961668 52.9658678 45.4961668 51.2697526 46.8753826 49.8905367 48.5714978 49.8905367 50.267613 49.891022 51.6468288 51.2702379 51.6468288 52.9658678M35.43255 6.18657409C35.43255 7.88268928 34.0533341 9.26190512 32.357219 9.26190512 30.6611038 9.26190512 29.2818879 7.88268928 29.2818879 6.18657409 29.2818879 4.4904589 30.6611038 3.11124306 32.357219 3.11124306 34.0533341 3.11124306 35.43255 4.4904589 35.43255 6.18657409M27.3440945 3.35340657C27.3440945 5.04952176 25.9648787 6.4287376 24.2687635 6.4287376 22.5726483 6.4287376 21.1934325 5.04952176 21.1934325 3.35340657 21.1934325 1.65729138 22.5726483.278075537 24.2687635.278075537 25.9648787.278560835 27.3440945 1.65777668 27.3440945 3.35340657" transform="translate(11.742 6.218)"/>
      <circle cx="60.892" cy="32.644" r="20.501" fill="#68B346" stroke="#FFF" stroke-width="1.181"/>
      <circle cx="32.806" cy="74.448" r="16.773" fill="#68B346" stroke="#FFF" stroke-width="1.181"/>
      <circle cx="18.995" cy="12.031" r="11.182" fill="#68B346" stroke="#FFF" stroke-width="1.181"/>
    </g>
  </g>
</svg>
