<svg width="224" height="160" viewBox="0 0 224 160" fill="none" xmlns="http://www.w3.org/2000/svg">
<g opacity="0.569531">
<path fill-rule="evenodd" clip-rule="evenodd" d="M180.571 59.2347C197.282 64.5468 222.049 72.3267 209.178 113.305C196.306 154.284 131.395 138.153 81.3381 142.75C33.7927 147.116 -0.269054 117.599 3.27916 88.3654C3.45915 86.8826 3.7286 80.0454 4.22442 78.6187C14.1064 50.1828 30.0752 41.7548 55.7067 34.8538C81.3381 27.9529 107.685 31.9564 117.446 37.9034C127.207 43.8505 163.861 53.9225 180.571 59.2347Z" fill="#9595EF"/>
</g>
<path fill-rule="evenodd" clip-rule="evenodd" d="M220 83.8343H206.881L115.752 30.7967C111.624 28.3943 106.539 28.4018 102.418 30.815L48.2263 62.5573H33V75.401C33.0044 77.6873 34.1313 79.9718 36.377 81.2734L136.313 139.214C140.377 141.57 145.369 141.597 149.456 139.284L216.562 101.314C218.424 100.26 219.518 98.5313 219.867 96.678H220V83.8343Z" fill="white"/>
<path fill-rule="evenodd" clip-rule="evenodd" d="M220 83.8343H206.881L115.752 30.7967C111.624 28.3943 106.539 28.4018 102.418 30.815L48.2263 62.5573H33V75.401C33.0044 77.6873 34.1313 79.9718 36.377 81.2734L136.313 139.214C140.377 141.57 145.369 141.597 149.456 139.284L216.562 101.314C218.424 100.26 219.518 98.5313 219.867 96.678H220V83.8343Z" stroke="black" stroke-width="2" stroke-linejoin="round"/>
<path fill-rule="evenodd" clip-rule="evenodd" d="M102.418 19.8154L36.3518 58.5131C31.8716 61.1371 31.8854 67.6697 36.3774 70.2736L136.314 128.214C140.377 130.57 145.369 130.597 149.456 128.284L216.561 90.3152C221.114 87.7385 221.154 81.1415 216.632 78.5092L115.752 19.7964C111.625 17.3946 106.539 17.4015 102.418 19.8154Z" fill="white"/>
<path fill-rule="evenodd" clip-rule="evenodd" d="M102.418 19.8154L36.3518 58.5131C31.8716 61.1371 31.8854 67.6697 36.3774 70.2736L136.314 128.214C140.377 130.57 145.369 130.597 149.456 128.284L216.561 90.3152C221.114 87.7385 221.154 81.1415 216.632 78.5092L115.752 19.7964C111.625 17.3946 106.539 17.4015 102.418 19.8154Z" stroke="black" stroke-width="2" stroke-linejoin="round"/>
<path d="M73 60.5647C82.1908 56.9259 103.07 44.9792 114.95 54.7732C126.829 64.5677 112.79 92.7873 128.989 102.511C145.188 112.236 158.774 91.4843 145.861 74.3869" stroke="#9595EF" stroke-width="6" stroke-linecap="round"/>
<path fill-rule="evenodd" clip-rule="evenodd" d="M83.9024 97.8475C80.5294 95.8815 77.0723 95.4459 75.7623 96.727L56 107.698L67.2631 117L87.4479 105.794C88.0429 105.62 88.5007 105.311 88.761 104.856C89.751 103.126 87.5753 99.9882 83.9024 97.8475Z" fill="white"/>
<path fill-rule="evenodd" clip-rule="evenodd" d="M83.9024 97.8475C80.5294 95.8815 77.0723 95.4459 75.7623 96.727L56 107.698L67.2631 117L87.4479 105.794C88.0429 105.62 88.5007 105.311 88.761 104.856C89.751 103.126 87.5753 99.9882 83.9024 97.8475Z" stroke="black" stroke-width="2" stroke-linejoin="round"/>
<path fill-rule="evenodd" clip-rule="evenodd" d="M80 112.837H69.1862V115.241L60.5061 110.338C59.9749 110.038 59.3995 109.852 58.8138 109.774V106H48V116H48.0267C48.1146 116.617 48.4566 117.203 49.0659 117.567L67.1302 128.336C68.5611 129.189 70.3291 129.222 71.7904 128.425L78.8625 124.562C79.5525 124.186 79.9254 123.524 79.9873 122.837H80V112.837Z" fill="white"/>
<path fill-rule="evenodd" clip-rule="evenodd" d="M80 112.837H69.1862V115.241L60.5061 110.338C59.9749 110.038 59.3995 109.852 58.8138 109.774V106H48V116H48.0267C48.1146 116.617 48.4566 117.203 49.0659 117.567L67.1302 128.336C68.5611 129.189 70.3291 129.222 71.7904 128.425L78.8625 124.562C79.5525 124.186 79.9254 123.524 79.9873 122.837H80V112.837Z" stroke="black" stroke-width="2" stroke-linejoin="round"/>
<path fill-rule="evenodd" clip-rule="evenodd" d="M56.0712 100.501L49.1962 103.935C47.6616 104.702 47.5876 106.857 49.0664 107.727L67.1303 118.345C68.5612 119.186 70.3292 119.219 71.7904 118.432L78.8624 114.624C80.3667 113.814 80.3825 111.669 78.8897 110.838L60.5057 100.6C59.1355 99.8366 57.4742 99.7998 56.0712 100.501Z" fill="white"/>
<path fill-rule="evenodd" clip-rule="evenodd" d="M56.0712 100.501L49.1962 103.935C47.6616 104.702 47.5876 106.857 49.0664 107.727L67.1303 118.345C68.5612 119.186 70.3292 119.219 71.7904 118.432L78.8624 114.624C80.3667 113.814 80.3824 111.669 78.8897 110.838L60.5057 100.6C59.1355 99.8366 57.4742 99.7998 56.0712 100.501Z" stroke="black" stroke-width="2" stroke-linejoin="round"/>
<path fill-rule="evenodd" clip-rule="evenodd" d="M146 74L156.08 53.6969L167.164 51L175 63.5222L169.457 72.7669L146 74L160.5 64.5466L160.285 64.4423L146 74Z" fill="white"/>
<path fill-rule="evenodd" clip-rule="evenodd" d="M146 74L156.08 53.6969L167.164 51L175 63.5222L169.457 72.7669L146 74L160.5 64.5466L160.285 64.4423L146 74Z" stroke="black" stroke-width="2" stroke-linejoin="round"/>
<path fill-rule="evenodd" clip-rule="evenodd" d="M164 65.5004C164 66.8809 162.881 68 161.5 68C160.119 68 159 66.8809 159 65.5004C159 64.1191 160.119 63 161.5 63C162.881 63 164 64.1191 164 65.5004Z" fill="white"/>
<path fill-rule="evenodd" clip-rule="evenodd" d="M164 64.5004C164 65.8809 162.881 67 161.5 67C160.119 67 159 65.8809 159 64.5004C159 63.1191 160.119 62 161.5 62C162.881 62 164 63.1191 164 64.5004Z" stroke="black" stroke-width="2" stroke-linejoin="round"/>
<path fill-rule="evenodd" clip-rule="evenodd" d="M167 50.6113L174.816 63L182 58.7536L173.747 46L167 50.6113Z" fill="white"/>
<path fill-rule="evenodd" clip-rule="evenodd" d="M167 50.6113L174.816 63L182 58.7536L173.747 46L167 50.6113Z" stroke="black" stroke-width="2" stroke-linejoin="round"/>
<path fill-rule="evenodd" clip-rule="evenodd" d="M101.246 45.5911L124.809 60.5357L101.246 45.5911Z" fill="white"/>
<path d="M101.246 45.5911L124.809 60.5357" stroke="black" stroke-width="2" stroke-linejoin="round"/>
<path fill-rule="evenodd" clip-rule="evenodd" d="M102 45C102 45.5517 101.552 46 101 46C100.447 46 100 45.5517 100 45C100 44.4477 100.447 44 101 44C101.552 44 102 44.4477 102 45Z" fill="white"/>
<path fill-rule="evenodd" clip-rule="evenodd" d="M102 45C102 45.5517 101.552 46 101 46C100.447 46 100 45.5517 100 45C100 44.4477 100.447 44 101 44C101.552 44 102 44.4477 102 45Z" stroke="black" stroke-width="2" stroke-linejoin="round"/>
<path fill-rule="evenodd" clip-rule="evenodd" d="M127 62C127 62.5523 126.552 63 126 63C125.447 63 125 62.5523 125 62C125 61.4483 125.447 61 126 61C126.552 61 127 61.4483 127 62Z" fill="white"/>
<path fill-rule="evenodd" clip-rule="evenodd" d="M127 62C127 62.5523 126.552 63 126 63C125.447 63 125 62.5523 125 62C125 61.4483 125.447 61 126 61C126.552 61 127 61.4483 127 62Z" stroke="black" stroke-width="2" stroke-linejoin="round"/>
<path fill-rule="evenodd" clip-rule="evenodd" d="M61.0653 67.7415L84.7572 52.4479L61.0653 67.7415Z" fill="white"/>
<path d="M61.0653 67.7415L84.7572 52.4479" stroke="black" stroke-width="2" stroke-linejoin="round"/>
<path fill-rule="evenodd" clip-rule="evenodd" d="M61.4653 68.1151C61.9542 68.3718 62.142 68.9765 61.8847 69.4653C61.6279 69.9542 61.0226 70.142 60.5344 69.8847C60.0455 69.6279 59.8583 69.0233 60.1151 68.5344C60.3724 68.0455 60.9765 67.8583 61.4653 68.1151Z" fill="white"/>
<path fill-rule="evenodd" clip-rule="evenodd" d="M61.3864 67.0779C61.8958 67.291 62.1356 67.877 61.9218 68.3865C61.7087 68.8959 61.1221 69.1357 60.6132 68.9218C60.1038 68.7087 59.8647 68.1227 60.0778 67.6133C60.2916 67.1038 60.877 66.8647 61.3864 67.0779Z" stroke="black" stroke-width="2" stroke-linejoin="round"/>
<path fill-rule="evenodd" clip-rule="evenodd" d="M85.3862 51.0779C85.8956 51.2911 86.1354 51.877 85.9222 52.3864C85.7084 52.8959 85.1225 53.1356 84.613 52.9219C84.1036 52.7087 83.8645 52.1227 84.0782 51.6132C84.2914 51.1038 84.8774 50.8647 85.3862 51.0779Z" stroke="black" stroke-width="2" stroke-linejoin="round"/>
<path fill-rule="evenodd" clip-rule="evenodd" d="M115.326 94.0525L138.889 108.623L115.326 94.0525Z" fill="white"/>
<path d="M115.326 94.0525L138.889 108.623" stroke="black" stroke-width="2" stroke-linejoin="round"/>
<path fill-rule="evenodd" clip-rule="evenodd" d="M116 91C116 91.5517 115.552 92 115 92C114.447 92 114 91.5517 114 91C114 90.4483 114.447 90 115 90C115.552 90 116 90.4483 116 91Z" fill="white"/>
<path fill-rule="evenodd" clip-rule="evenodd" d="M116 94C116 94.5517 115.552 95 115 95C114.447 95 114 94.5517 114 94C114 93.4483 114.447 93 115 93C115.552 93 116 93.4483 116 94Z" stroke="black" stroke-width="2" stroke-linejoin="round"/>
<path fill-rule="evenodd" clip-rule="evenodd" d="M141 109C141 109.552 140.552 110 140 110C139.447 110 139 109.552 139 109C139 108.448 139.447 108 140 108C140.552 108 141 108.448 141 109Z" fill="white"/>
<path fill-rule="evenodd" clip-rule="evenodd" d="M140 109C140 109.552 139.552 110 139 110C138.447 110 138 109.552 138 109C138 108.448 138.447 108 139 108C139.552 108 140 108.448 140 109Z" stroke="black" stroke-width="2" stroke-linejoin="round"/>
</svg>
