<?xml version="1.0" encoding="UTF-8"?>
<svg width="256px" height="200px" viewBox="0 0 256 200" version="1.1" xmlns="http://www.w3.org/2000/svg" xmlns:xlink="http://www.w3.org/1999/xlink">
    <!-- Generator: Sketch 52.2 (67145) - http://www.bohemiancoding.com/sketch -->
    <title>nodejs</title>
    <desc>Created with Sketch.</desc>
    <defs>
        <polygon id="path-1" points="0 2.13162821e-13 256 2.13162821e-13 256 200 0 200"></polygon>
        <polygon id="path-3" points="0 0.273193787 43.3333333 0.273193787 43.3333333 32.6315789 0 32.6315789"></polygon>
    </defs>
    <g id="10.-Career" stroke="none" stroke-width="1" fill="none" fill-rule="evenodd">
        <g id="nodejs">
            <g id="Continuous-delivery">
                <mask id="mask-2" fill="white">
                    <use xlink:href="#path-1"></use>
                </mask>
                <use id="Rectangle-6" fill="#FFFFFF" xlink:href="#path-1"></use>
                <g id="front_end" mask="url(#mask-2)">
                    <g transform="translate(62.666667, 73.000000)">
                        <path d="M77.9398954,53.7847474 L12.6456192,91.8320963 C8.21787846,94.4121584 8.23215749,100.834588 12.6710731,103.394712 L115.625501,161.24437 C119.641012,163.560881 124.574727,163.586426 128.614451,161.312283 L194.934955,123.981445 C199.434711,121.449358 199.473824,114.962754 195.005108,112.375215 L91.1181979,53.7666788 C87.0387413,51.4046852 82.0125229,51.4115388 77.9398954,53.7847474 Z" id="Stroke-4" stroke="#000000" fill-opacity="0.0781533062" fill="#9595EF" stroke-linecap="round" stroke-dasharray="5,8"></path>
                        <g id="front_icon" stroke="none" fill="none" transform="translate(0.333333, 0.000000)">
                            <path d="M203.073341,50.3419973 L116.929348,1.12731611 C115.551818,0.34027618 114.055045,-0.0154891007 112.584717,0.00532437835 L112.584237,0 L107.18999,0.143274181 L108.206429,1.2889836 C106.864479,2.11716645 105.725432,3.31950789 104.981613,4.85680113 L79.8547794,56.7946599 L175.511668,111.821626 L174.723614,112.405856 L155.01603,109.439209 L75.8842213,63.91771 L29.5765904,90.556543 L22.75,89.528938 L22.75,97.156836 L22.7600971,97.1582881 C22.7048035,98.8649934 23.5120894,100.596868 25.1973408,101.565905 L113.529035,152.379352 C118.308321,155.128668 124.170881,155.149481 128.96988,152.434532 L177.785916,124.814077 C178.306156,124.519784 178.736003,124.111259 179.066803,123.635938 L179.067284,123.635454 C179.131713,123.542519 179.197584,123.451521 179.253358,123.35423 L183.75185,116.562259 L207.179488,62.7889418 C209.181596,58.1940033 207.408356,52.8183173 203.073341,50.3419973" id="Fill-1" fill="#FFFFFF"></path>
                            <path d="M203.073341,50.3419973 L116.929348,1.12731611 C115.551818,0.34027618 114.055045,-0.0154891007 112.584717,0.00532437835 L112.584237,0 L107.18999,0.143274181 L108.206429,1.2889836 C106.864479,2.11716645 105.725432,3.31950789 104.981613,4.85680113 L79.8547794,56.7946599 L175.511668,111.821626 L174.723614,112.405856 L155.01603,109.439209 L75.8842213,63.91771 L29.5765904,90.556543 L22.75,89.528938 L22.75,97.156836 L22.7600971,97.1582881 C22.7048035,98.8649934 23.5120894,100.596868 25.1973408,101.565905 L113.529035,152.379352 C118.308321,155.128668 124.170881,155.149481 128.96988,152.434532 L177.785916,124.814077 C178.306156,124.519784 178.736003,124.111259 179.066803,123.635938 L179.067284,123.635454 C179.131713,123.542519 179.197584,123.451521 179.253358,123.35423 L183.75185,116.562259 L207.179488,62.7889418 C209.181596,58.1940033 207.408356,52.8183173 203.073341,50.3419973 Z" id="Stroke-3" stroke="#000000" stroke-linejoin="round"></path>
                            <path d="M25.1982703,94.1025034 L113.55869,144.771405 C118.340037,147.512416 124.204535,147.533653 129.005122,144.826427 L179.833333,116.158503 L75.9014291,56.5614035 L25.1982703,85.6357257 C21.9339099,87.5074714 21.9339099,92.2307577 25.1982703,94.1025034" id="Fill-5" fill="#FFFFFF"></path>
                            <path d="M25.1982703,94.1025034 L113.55869,144.771405 C118.340037,147.512416 124.204535,147.533653 129.005122,144.826427 L179.833333,116.158503 L75.9014291,56.5614035 L25.1982703,85.6357257 C21.9339099,87.5074714 21.9339099,92.2307577 25.1982703,94.1025034 Z" id="Stroke-7" stroke="#000000" stroke-linejoin="round"></path>
                            <path d="M179.477922,116.385965 L202.848149,62.6938444 C204.845391,58.1058442 203.07646,52.7387587 198.75198,50.2656946 L112.817327,1.1258099 C108.522105,-1.33033856 103.061346,0.375722844 100.898626,4.84966346 L75.8333333,56.7086137 L179.477922,116.385965 Z" id="Fill-9" fill="#FFFFFF"></path>
                            <path d="M179.477922,116.385965 L202.848149,62.6938444 C204.845391,58.1058442 203.07646,52.7387587 198.75198,50.2656946 L112.817327,1.1258099 C108.522105,-1.33033856 103.061346,0.375722844 100.898626,4.84966346 L75.8333333,56.7086137 L179.477922,116.385965 Z" id="Stroke-11" stroke="#000000" stroke-linejoin="round"></path>
                            <path d="M174.854732,95.9623171 L190.002037,61.9636 C191.623822,58.2244493 190.18737,53.8513482 186.675566,51.8362919 L116.892575,11.7943326 C113.404592,9.79324627 108.969933,11.1835051 107.214269,14.8292012 L90.6557629,48.1009949 C88.970135,51.6007282 90.2579394,55.8230493 93.6010855,57.7547672 L165.27219,99.1638625 C168.773036,101.186626 173.235328,99.6956871 174.854732,95.9623171" id="Fill-13" fill="#9595EF"></path>
                            <path d="M120.376589,28.8172371 L122.330872,24.2567642 C122.54013,23.7551457 122.354982,23.1684098 121.901894,22.8977558 L112.897452,17.5267554 C112.447093,17.2580141 111.875274,17.4445072 111.648275,17.9332146 L109.512028,22.3966154 C109.294583,22.8666736 109.460624,23.4328474 109.891876,23.692025 L119.14015,29.2466493 C119.591873,29.5182597 120.167786,29.3183774 120.376589,28.8172371" id="Fill-15" fill="#FFFFFF"></path>
                            <path d="M64.7980359,107.931035 L77.3905959,100.653447 C78.6828883,99.9063956 80.2615599,99.8754497 81.5815819,100.569313 L98.7241776,110.947285 C99.9533614,111.593763 99.9873062,113.359126 98.7844177,114.053473 L86.8544982,121.242091 C85.5091372,122.019121 83.857795,122.018638 82.5129121,121.241124 L64.7980359,111.003375 C63.6228769,110.324017 63.6228769,108.609909 64.7980359,107.931035" id="Fill-17" fill="#9595EF"></path>
                            <path d="M137.011823,34.6487619 L137.559607,33.3377537 C137.617699,33.1933372 137.565961,33.0254224 137.438886,32.9470948 L124.474969,25.0526518 C124.348801,24.9757929 124.188596,25.0296431 124.125059,25.1701432 L123.526899,26.4527577 C123.46563,26.5878728 123.512376,26.7504025 123.633097,26.8253033 L136.665544,34.7721279 C136.792165,34.8499659 136.953278,34.7926889 137.011823,34.6487619" id="Fill-19" fill="#FFFFFF"></path>
                            <path d="M128.339017,33.5711753 L128.892393,32.3470561 C128.951585,32.2126681 128.899276,32.055425 128.770797,31.9827458 L122.31887,28.3135878 C122.191768,28.2418228 122.029793,28.2916469 121.965095,28.4228352 L121.360327,29.6204425 C121.298841,29.7470598 121.345644,29.8988176 121.467698,29.9682972 L127.988912,33.6868221 C128.116932,33.7595013 128.279825,33.7055633 128.339017,33.5711753" id="Fill-21" fill="#FFFFFF"></path>
                            <path d="M138.005978,98.9628833 C137.411254,98.6167425 137.113649,98.4436721 136.51844,98.0970518 C136.243616,97.9369258 135.98091,97.8769983 135.75601,97.9062429 L135.74777,97.8947368 L131.21972,99.3344334 L133.418311,101.209443 C130.148538,106.539148 126.978127,111.926864 123.905626,117.370672 L123.751977,117.042749 L121.333333,122.912281 L125.830847,121.473064 L125.805643,121.418889 C125.94669,121.36903 126.071742,121.28609 126.154625,121.139388 C130.123818,114.111578 134.300461,107.202665 138.591978,100.362309 C138.817848,100.000347 138.505217,99.2529321 138.005978,98.9628833" id="Fill-23" fill="#FFFFFF"></path>
                            <path d="M138.005978,98.9628833 C137.411254,98.6167425 137.113649,98.4436721 136.51844,98.0970518 C136.243616,97.9369258 135.98091,97.8769983 135.75601,97.9062429 L135.74777,97.8947368 L131.21972,99.3344334 L133.418311,101.209443 C130.148538,106.539148 126.978127,111.926864 123.905626,117.370672 L123.751977,117.042749 L121.333333,122.912281 L125.830847,121.473064 L125.805643,121.418889 C125.94669,121.36903 126.071742,121.28609 126.154625,121.139388 C130.123818,114.111578 134.300461,107.202665 138.591978,100.362309 C138.817848,100.000347 138.505217,99.2529321 138.005978,98.9628833 Z" id="Stroke-25" stroke="#000000" stroke-linecap="round" stroke-linejoin="round"></path>
                            <path d="M151.331512,120.684559 C148.101166,115.795416 146.607131,113.36502 143.611491,108.482124 C143.21224,107.83104 142.661063,107.283744 142.079096,106.960364 C141.089298,106.410666 140.595156,106.135817 139.606872,105.584677 C139.417089,105.478966 138.997144,105.514523 138.997144,105.514523 L134.333333,106.957 L144.216676,120.796997 C142.561124,121.543222 141.204884,122.15971 139.153614,123.112072 C138.835122,123.259587 139.035,123.921243 139.471097,124.160535 C140.262531,124.594431 140.744559,124.857748 141.41738,125.221491 L138.46969,127.263158 L143.206184,125.825966 L143.210726,125.814434 C143.342968,125.799538 143.468649,125.768786 143.58373,125.717372 C146.657606,124.335919 148.234418,123.654562 151.323436,122.279837 C151.779722,122.077063 151.779722,121.362552 151.331512,120.684559" id="Fill-27" fill="#FFFFFF"></path>
                            <path d="M151.331512,120.684559 C148.101166,115.795416 146.607131,113.36502 143.611491,108.482124 C143.21224,107.83104 142.661063,107.283744 142.079096,106.960364 C141.089298,106.410666 140.595156,106.135817 139.606872,105.584677 C139.417089,105.478966 138.997144,105.514523 138.997144,105.514523 L134.333333,106.957 L144.216676,120.796997 C142.561124,121.543222 141.204884,122.15971 139.153614,123.112072 C138.835122,123.259587 139.035,123.921243 139.471097,124.160535 C140.262531,124.594431 140.744559,124.857748 141.41738,125.221491 L138.46969,127.263158 L143.206184,125.825966 L143.210726,125.814434 C143.342968,125.799538 143.468649,125.768786 143.58373,125.717372 C146.657606,124.335919 148.234418,123.654562 151.323436,122.279837 C151.779722,122.077063 151.779722,121.362552 151.331512,120.684559 Z" id="Stroke-29" stroke="#000000" stroke-linecap="round" stroke-linejoin="round"></path>
                            <path d="M122.832215,113.034633 C120.751411,109.247342 119.509483,107.017319 117.659931,103.752363 L116.127299,100.609106 C116.119341,100.299016 116.214838,100.051235 116.419875,99.9465737 C119.195373,98.524149 120.566035,97.7954119 123.36447,96.3481605 C123.650961,96.2001738 123.453413,95.5225506 123.050828,95.2747702 C122.135649,94.7095974 121.677357,94.4267675 120.760774,93.8620815 C120.221965,93.530085 119.70469,93.4541445 119.32317,93.6517846 L115.222418,95.0951416 L115.81272,95.4685159 C114.725272,96.0268736 113.639228,96.5750085 112.167452,97.3008248 C111.766271,97.4984649 111.766271,98.2223341 112.169324,98.919916 C112.51433,99.5172176 112.837335,100.077036 113.144423,100.609106 L110.5,100.609106 L118.453399,115.298246 L122.517637,113.714691 C122.907583,113.962471 123.106067,113.532628 122.832215,113.034633" id="Fill-31" fill="#FFFFFF"></path>
                            <path d="M122.832215,113.034633 C120.751411,109.247342 119.509483,107.017319 117.659931,103.752363 L116.127299,100.609106 C116.119341,100.299016 116.214838,100.051235 116.419875,99.9465737 C119.195373,98.524149 120.566035,97.7954119 123.36447,96.3481605 C123.650961,96.2001738 123.453413,95.5225506 123.050828,95.2747702 C122.135649,94.7095974 121.677357,94.4267675 120.760774,93.8620815 C120.221965,93.530085 119.70469,93.4541445 119.32317,93.6517846 L115.222418,95.0951416 L115.81272,95.4685159 C114.725272,96.0268736 113.639228,96.5750085 112.167452,97.3008248 C111.766271,97.4984649 111.766271,98.2223341 112.169324,98.919916 C112.51433,99.5172176 112.837335,100.077036 113.144423,100.609106 L110.5,100.609106 L118.453399,115.298246 L122.517637,113.714691 C122.907583,113.962471 123.106067,113.532628 122.832215,113.034633 Z" id="Stroke-33" stroke="#000000" stroke-linecap="round" stroke-linejoin="round"></path>
                            <path d="M122.51198,122.573686 C126.605797,115.440491 130.91358,108.428454 135.339842,101.486483 C135.572303,101.119119 135.250357,100.361034 134.734943,100.066169 C134.122045,99.714862 133.815096,99.5392083 133.201199,99.1874143 C132.65329,98.8740598 132.144875,98.9232039 131.898416,99.3129507 C127.506147,106.248109 123.28735,113.284476 119.232526,120.411832 C119.021561,120.782116 119.343008,121.545066 119.832926,121.838957 C120.416829,122.189292 120.70828,122.363486 121.290183,122.711874 C121.809597,123.022795 122.285017,122.968299 122.51198,122.573686" id="Fill-35" fill="#FFFFFF"></path>
                            <path d="M122.51198,122.573686 C126.605797,115.440491 130.91358,108.428454 135.339842,101.486483 C135.572303,101.119119 135.250357,100.361034 134.734943,100.066169 C134.122045,99.714862 133.815096,99.5392083 133.201199,99.1874143 C132.65329,98.8740598 132.144875,98.9232039 131.898416,99.3129507 C127.506147,106.248109 123.28735,113.284476 119.232526,120.411832 C119.021561,120.782116 119.343008,121.545066 119.832926,121.838957 C120.416829,122.189292 120.70828,122.363486 121.290183,122.711874 C121.809597,123.022795 122.285017,122.968299 122.51198,122.573686 Z" id="Stroke-37" stroke="#000000" stroke-linecap="round" stroke-linejoin="round"></path>
                            <path d="M139.583102,127.152008 C142.375583,125.746903 143.808048,125.05315 146.614285,123.655379 C147.028801,123.449062 147.600595,122.721086 147.193874,122.031734 C144.372964,116.930038 143.473317,115.193946 140.752367,110.226698 C140.389666,109.563747 139.888945,109.006887 139.360712,108.678345 C138.461065,108.118551 136.868113,107.228749 135.9703,106.668467 C135.575043,106.421571 135.361365,106.84985 135.630984,107.346086 C138.266188,112.200397 139.56797,114.616063 142.310929,119.458152 C142.701143,120.146527 142.687846,120.872058 142.277456,121.078863 C139.570721,122.441923 138.209329,123.123453 135.558535,124.501668 C135.2692,124.65225 135.45078,125.325469 135.847413,125.568942 C136.748894,126.12238 137.203302,126.399098 138.120373,126.954491 C138.659153,127.280589 139.186927,127.35148 139.583102,127.152008" id="Fill-39" fill="#FFFFFF"></path>
                            <path d="M139.583102,127.152008 C142.375583,125.746903 143.808048,125.05315 146.614285,123.655379 C147.028801,123.449062 147.600595,122.721086 147.193874,122.031734 C144.372964,116.930038 143.473317,115.193946 140.752367,110.226698 C140.389666,109.563747 139.888945,109.006887 139.360712,108.678345 C138.461065,108.118551 136.868113,107.228749 135.9703,106.668467 C135.575043,106.421571 135.361365,106.84985 135.630984,107.346086 C138.266188,112.200397 139.56797,114.616063 142.310929,119.458152 C142.701143,120.146527 142.687846,120.872058 142.277456,121.078863 C139.570721,122.441923 138.209329,123.123453 135.558535,124.501668 C135.2692,124.65225 135.45078,125.325469 135.847413,125.568942 C136.748894,126.12238 137.203302,126.399098 138.120373,126.954491 C138.659153,127.280589 139.186927,127.35148 139.583102,127.152008 Z" id="Stroke-41" stroke="#000000" stroke-linecap="round" stroke-linejoin="round"></path>
                            <path d="M114.442567,112.181045 C111.74522,107.365375 110.356505,104.944122 107.559416,100.120003 C107.147021,99.4083378 107.147021,98.6693387 107.558457,98.4670706 C110.523861,97.0109392 111.961007,96.2525581 114.888528,94.7417597 C115.278865,94.5399886 115.809223,94.6175164 116.360681,94.9564521 C117.299597,95.533438 117.769056,95.8216824 118.707013,96.3981713 C119.118928,96.6516276 119.321289,97.3434143 119.027818,97.4944941 C116.161197,98.9724923 115.355589,99.7164612 112.512465,101.168617 C112.107743,101.374861 112.109182,102.117339 112.514863,102.828507 C115.190631,107.516952 116.508375,109.863162 119.081045,114.529741 C119.36157,115.038641 118.559798,115.477468 118.160351,115.224509 C117.251644,114.649511 116.796572,114.36077 115.881152,113.781299 C115.343121,113.440375 114.825231,112.864383 114.442567,112.181045" id="Fill-43" fill="#FFFFFF"></path>
                            <path d="M114.442567,112.181045 C111.74522,107.365375 110.356505,104.944122 107.559416,100.120003 C107.147021,99.4083378 107.147021,98.6693387 107.558457,98.4670706 C110.523861,97.0109392 111.961007,96.2525581 114.888528,94.7417597 C115.278865,94.5399886 115.809223,94.6175164 116.360681,94.9564521 C117.299597,95.533438 117.769056,95.8216824 118.707013,96.3981713 C119.118928,96.6516276 119.321289,97.3434143 119.027818,97.4944941 C116.161197,98.9724923 115.355589,99.7164612 112.512465,101.168617 C112.107743,101.374861 112.109182,102.117339 112.514863,102.828507 C115.190631,107.516952 116.508375,109.863162 119.081045,114.529741 C119.36157,115.038641 118.559798,115.477468 118.160351,115.224509 C117.251644,114.649511 116.796572,114.36077 115.881152,113.781299 C115.343121,113.440375 114.825231,112.864383 114.442567,112.181045 Z" id="Stroke-45" stroke="#000000" stroke-linecap="round" stroke-linejoin="round"></path>
                            <path d="M69.3333333,94.6808986 L69.3274887,29.1460828 C69.3274887,27.6563056 68.5082711,26.2843068 67.1883663,25.5622528 L26.7836941,3.62950113 C25.7526098,3.0699333 24.6046336,3.18723102 23.7362239,3.73862647 L18.4166667,6.76529236 L21.6073295,12.5609537 L22.3690753,12.0994545 L22.3690753,68.3908249 C22.3690753,69.8608923 23.1673498,71.2184693 24.4609539,71.9482149 L58.3026309,91.0355353 L56.844891,93.4286012 L63.1877397,98.9824561 L68.4220633,96.0519359 C68.5146027,96.0120355 68.6022717,95.961559 68.6845831,95.9043523 C69.0678912,95.6409132 69.3333333,95.2072962 69.3333333,94.6808986" id="Fill-47" fill="#FFFFFF"></path>
                            <path d="M69.3333333,94.6808986 L69.3274887,29.1460828 C69.3274887,27.6563056 68.5082711,26.2843068 67.1883663,25.5622528 L26.7836941,3.62950113 C25.7526098,3.0699333 24.6046336,3.18723102 23.7362239,3.73862647 L18.4166667,6.76529236 L21.6073295,12.5609537 L22.3690753,12.0994545 L22.3690753,68.3908249 C22.3690753,69.8608923 23.1673498,71.2184693 24.4609539,71.9482149 L58.3026309,91.0355353 L56.844891,93.4286012 L63.1877397,98.9824561 L68.4220633,96.0519359 C68.5146027,96.0120355 68.6022717,95.961559 68.6845831,95.9043523 C69.0678912,95.6409132 69.3333333,95.2072962 69.3333333,94.6808986 Z" id="Stroke-49" stroke="#000000" stroke-linejoin="round"></path>
                            <path d="M61.7890973,27.8900197 C63.0982964,28.6169466 63.9108695,29.9982044 63.9113526,31.4980356 L63.9166667,97.4751189 C63.9166667,98.6308455 62.6707536,99.3553525 61.6692887,98.7818449 L19.4082448,74.5895056 C18.1251331,73.8548352 17.3333333,72.4876126 17.3333333,71.0076243 L17.3333333,8.40286221 C17.3333333,6.15142159 19.7430327,4.72418633 21.7121454,5.80925294 L61.7890973,27.8900197 Z" id="Fill-51" fill="#FFFFFF"></path>
                            <path d="M61.7890973,27.8900197 C63.0982964,28.6169466 63.9108695,29.9982044 63.9113526,31.4980356 L63.9166667,97.4751189 C63.9166667,98.6308455 62.6707536,99.3553525 61.6692887,98.7818449 L19.4082448,74.5895056 C18.1251331,73.8548352 17.3333333,72.4876126 17.3333333,71.0076243 L17.3333333,8.40286221 C17.3333333,6.15142159 19.7430327,4.72418633 21.7121454,5.80925294 L61.7890973,27.8900197 Z" id="Stroke-53" stroke="#000000" stroke-linejoin="round"></path>
                            <path d="M35.695339,20.9715172 C36.3957537,21.36894 36.8304608,22.1240922 36.8304608,22.9434397 L36.8333333,59.0006112 C36.8333333,59.6322733 36.16691,60.0282259 35.6311862,59.7150901 L13.0259359,46.4933105 C12.3398838,46.0919674 11.9166667,45.3446558 11.9166667,44.5355992 L11.9166667,10.3219596 C11.9166667,9.09146819 13.2049893,8.3113239 14.2587232,8.90427277 L35.695339,20.9715172 Z" id="Fill-55" fill="#FFFFFF"></path>
                            <path d="M35.695339,20.9715172 C36.3957537,21.36894 36.8304608,22.1240922 36.8304608,22.9434397 L36.8333333,59.0006112 C36.8333333,59.6322733 36.16691,60.0282259 35.6311862,59.7150901 L13.0259359,46.4933105 C12.3398838,46.0919674 11.9166667,45.3446558 11.9166667,44.5355992 L11.9166667,10.3219596 C11.9166667,9.09146819 13.2049893,8.3113239 14.2587232,8.90427277 L35.695339,20.9715172 Z" id="Stroke-57" stroke="#000000" stroke-linejoin="round"></path>
                            <path d="M66.0286723,37.2872913 C66.729087,37.6852035 67.1637942,38.4398648 67.1637942,39.2592113 L67.1666667,75.3163373 C67.1666667,75.9484886 66.5002434,76.3439507 65.9645195,76.0308153 L43.359748,62.8090524 C42.6732171,62.4077098 42.25,61.6603992 42.25,60.8518335 L42.25,26.637747 C42.25,25.4072572 43.5388014,24.6271139 44.5920566,25.220062 L66.0286723,37.2872913 Z" id="Fill-59" fill="#FFFFFF"></path>
                            <path d="M66.0286723,37.2872913 C66.729087,37.6852035 67.1637942,38.4398648 67.1637942,39.2592113 L67.1666667,75.3163373 C67.1666667,75.9484886 66.5002434,76.3439507 65.9645195,76.0308153 L43.359748,62.8090524 C42.6732171,62.4077098 42.25,61.6603992 42.25,60.8518335 L42.25,26.637747 C42.25,25.4072572 43.5388014,24.6271139 44.5920566,25.220062 L66.0286723,37.2872913 Z" id="Stroke-61" stroke="#000000" stroke-linejoin="round"></path>
                            <path d="M48.1017426,72.2873215 C49.1678573,72.8716362 49.8289838,73.9810221 49.8289838,75.1854846 L49.8333333,79.2809435 C49.8333333,80.2087762 48.8194128,80.7907021 48.0041201,80.3301302 L13.6057288,60.897722 C12.5608784,60.3081518 11.9166667,59.2102324 11.9166667,58.0210587 L11.9166667,55.6794996 C11.9166667,53.870656 13.8778152,52.7244817 15.4808536,53.5959372 L48.1017426,72.2873215 Z" id="Fill-63" fill="#FFFFFF"></path>
                            <path d="M48.1017426,72.2873215 C49.1678573,72.8716362 49.8289838,73.9810221 49.8289838,75.1854846 L49.8333333,79.2809435 C49.8333333,80.2087762 48.8194128,80.7907021 48.0041201,80.3301302 L13.6057288,60.897722 C12.5608784,60.3081518 11.9166667,59.2102324 11.9166667,58.0210587 L11.9166667,55.6794996 C11.9166667,53.870656 13.8778152,52.7244817 15.4808536,53.5959372 L48.1017426,72.2873215 Z" id="Stroke-65" stroke="#000000" stroke-linejoin="round"></path>
                            <path d="M64.4159314,81.5582598 C65.4420607,82.1453181 66.0791451,83.259913 66.0791451,84.4700308 L66.0833333,89.0647345 C66.0833333,89.9969236 65.1065327,90.5815819 64.3219278,90.1188474 L53.6259844,83.7759291 C52.6203312,83.1831106 52,82.0800361 52,80.8852787 L52,78.5327252 C52,76.7158684 53.8884501,75.5638323 55.432065,76.4393797 L64.4159314,81.5582598 Z" id="Fill-67" fill="#FFFFFF"></path>
                            <path d="M64.4159314,81.5582598 C65.4420607,82.1453181 66.0791451,83.259913 66.0791451,84.4700308 L66.0833333,89.0647345 C66.0833333,89.9969236 65.1065327,90.5815819 64.3219278,90.1188474 L53.6259844,83.7759291 C52.6203312,83.1831106 52,82.0800361 52,80.8852787 L52,78.5327252 C52,76.7158684 53.8884501,75.5638323 55.432065,76.4393797 L64.4159314,81.5582598 Z" id="Stroke-69" stroke="#000000" stroke-linejoin="round"></path>
                            <path d="M9.75,23.4718531 L9.75,28.7372815 C9.75,29.2956059 9.10379481,29.5777067 8.72059764,29.1871056 L4.51498362,24.8959194 C4.17252002,24.546458 4.33897443,23.9411169 4.80766177,23.8326166 L9.01277291,22.8574703 C9.39094124,22.7697659 9.75,23.0685937 9.75,23.4718531" id="Fill-71" fill="#FFFFFF"></path>
                            <path d="M9.75,23.4718531 L9.75,28.7372815 C9.75,29.2956059 9.10379481,29.5777067 8.72059764,29.1871056 L4.51498362,24.8959194 C4.17252002,24.546458 4.33897443,23.9411169 4.80766177,23.8326166 L9.01277291,22.8574703 C9.39094124,22.7697659 9.75,23.0685937 9.75,23.4718531 Z" id="Stroke-73" stroke="#000000" stroke-linejoin="round"></path>
                            <path d="M70.4166667,62.4579714 L70.4166667,57.192543 C70.4166667,56.6342186 71.0633719,56.3521179 71.4460644,56.7427189 L75.6516597,61.0339052 C75.9941218,61.3833665 75.8276682,61.9887077 75.3594858,62.097208 L71.1538905,63.0723543 C70.7757238,63.1600587 70.4166667,62.8612308 70.4166667,62.4579714" id="Fill-75" fill="#FFFFFF"></path>
                            <path d="M70.4166667,62.4579714 L70.4166667,57.192543 C70.4166667,56.6342186 71.0633719,56.3521179 71.4460644,56.7427189 L75.6516597,61.0339052 C75.9941218,61.3833665 75.8276682,61.9887077 75.3594858,62.097208 L71.1538905,63.0723543 C70.7757238,63.1600587 70.4166667,62.8612308 70.4166667,62.4579714 Z" id="Stroke-77" stroke="#000000" stroke-linejoin="round"></path>
                            <path d="M33.7760102,24.6264882 C34.3242555,24.9306999 34.6642451,25.5085566 34.6642451,26.1363875 L34.6666667,53.7551237 C34.6666667,54.2388543 34.1450587,54.5420956 33.7256414,54.3019285 L16.0350446,44.174638 C15.4979386,43.86703 15.1666667,43.2954808 15.1666667,42.6754129 L15.1666667,16.4690536 C15.1666667,15.5263369 16.1750118,14.9290727 16.999317,15.383207 L33.7760102,24.6264882 Z" id="Fill-79" fill="#9595EF"></path>
                            <g id="Group-83" transform="translate(0.000000, 60.912281)">
                                <mask id="mask-4" fill="white">
                                    <use xlink:href="#path-3"></use>
                                </mask>
                                <g id="Clip-82"></g>
                                <path d="M35.8904465,17.6074624 C36.8589638,18.1461616 37.4599314,19.1703612 37.4599314,20.2822672 L37.4632728,28.2093899 C37.4642275,29.4382377 36.1429579,30.2089036 35.0804051,29.5992724 L4.544185,12.0795643 C3.59476116,11.5351138 3.00906832,10.5219374 3.00906832,9.42440955 L3.00906832,2.47068382 C3.00906832,0.801866326 4.79144571,-0.256361424 6.24780173,0.547853325 L35.8904465,17.6074624 Z" id="Fill-81" stroke="#000000" fill="#FFFFFF" stroke-linecap="round" stroke-linejoin="round" stroke-dasharray="5,6" mask="url(#mask-4)"></path>
                            </g>
                        </g>
                    </g>
                </g>
            </g>
        </g>
    </g>
</svg>