<svg xmlns="http://www.w3.org/2000/svg" width="113" height="99" viewBox="0 0 113 99">
  <g fill="none" fill-rule="evenodd" transform="translate(0 .54)">
    <path fill="#9595EF" fill-opacity=".078" d="M60,25 L94,25 C104.49341,25 113,33.5065898 113,44 L113,78 C113,88.4934102 104.49341,97 94,97 L60,97 C49.5065898,97 41,88.4934102 41,78 L41,44 C41,33.5065898 49.5065898,25 60,25 Z"/>
    <path fill="#000" fill-rule="nonzero" d="M62.2840899,26.1427738 C61.9685216,26.1427738 61.712703,25.8869552 61.712703,25.5713869 C61.712703,25.2558186 61.9685216,25 62.2840899,25 L71.4262806,25 C71.7418489,25 71.9976675,25.2558186 71.9976675,25.5713869 C71.9976675,25.8869552 71.7418489,26.1427738 71.4262806,26.1427738 L62.2840899,26.1427738 Z M82.854019,26.1427738 C82.5384507,26.1427738 82.2826321,25.8869552 82.2826321,25.5713869 C82.2826321,25.2558186 82.5384507,25 82.854019,25 L90.7159101,25 C91.1547968,25 91.5922006,25.0126947 92.0277615,25.0379903 C92.342799,25.0562863 92.5833554,25.3265066 92.5650593,25.641544 C92.5467632,25.9565815 92.276543,26.1971379 91.9615055,26.1788418 C91.5480032,26.1548273 91.132694,26.1427738 90.7159101,26.1427738 L82.854019,26.1427738 Z M102.430976,29.6826615 C102.168441,29.5075662 102.097556,29.1527963 102.272651,28.8902606 C102.447747,28.6277249 102.802517,28.5568404 103.065052,28.7319356 C105.69357,30.4849965 107.926643,32.7805855 109.605764,35.4568984 C109.773476,35.7242109 109.692734,36.0768681 109.425422,36.2445802 C109.158109,36.4122923 108.805452,36.3315503 108.63774,36.0642377 C107.044454,33.5247357 104.925212,31.3461645 102.430976,29.6826615 Z M111.848638,46.6754561 C111.839725,46.3600137 112.088216,46.0970717 112.403659,46.0881587 C112.719101,46.0792457 112.982043,46.3277369 112.990956,46.6431793 C112.996875,46.8526553 112.999892,47.062505 112.999997,47.2729753 L113,55.8125593 C113,56.1281276 112.744182,56.3839463 112.428613,56.3839464 C112.113045,56.3839465 111.857226,56.128128 111.857226,55.8125597 L111.857223,47.2732617 C111.857123,47.0736476 111.854258,46.8743671 111.848638,46.6754561 Z M111.857226,67.2402979 C111.857226,66.9247296 112.113045,66.668911 112.428613,66.668911 C112.744181,66.668911 113,66.9247296 113,67.2402979 L113,75.7159101 C113,75.9441241 112.996568,76.1719441 112.989715,76.3993201 C112.980209,76.7147452 112.716801,76.9627417 112.401376,76.9532359 C112.085951,76.9437301 111.837954,76.6803216 111.84746,76.3648965 C111.853967,76.1489911 111.857226,75.932647 111.857226,75.7159101 L111.857226,67.2402979 Z M108.644704,86.9246544 C108.81225,86.657238 109.164858,86.5762774 109.432274,86.7438238 C109.69969,86.9113702 109.780651,87.2639773 109.613105,87.5313937 C107.935567,90.2088674 105.70378,92.5059106 103.076194,94.2606284 C102.813764,94.4358812 102.458951,94.3652096 102.283699,94.102779 C102.108446,93.8403485 102.179117,93.485536 102.441548,93.3102832 C104.9349,91.6452069 107.052922,89.4652558 108.644704,86.9246544 Z M91.9340989,96.8227322 C92.2491596,96.8048409 92.5190705,97.0457443 92.5369618,97.360805 C92.5548531,97.6758657 92.3139497,97.9457766 91.998889,97.9636679 C91.5808923,97.9874046 91.1612065,97.9995386 90.7395421,97.9999874 L82.8011626,98 C82.4855943,98.0000005 82.2297752,97.7441823 82.2297747,97.428614 C82.2297742,97.1130457 82.4855925,96.8572267 82.8011607,96.8572262 L90.7389325,96.8572139 C91.1387822,96.856788 91.5372688,96.8452669 91.9340989,96.8227322 Z M71.3734232,96.8572262 C71.6889915,96.8572262 71.9448102,97.1130448 71.9448102,97.4286131 C71.9448102,97.7441814 71.6889915,98 71.3734232,98 L62.2840899,98 C62.2565021,97.9999889 62.2565021,97.9999889 62.2289246,97.9999331 C61.9133572,97.9991681 61.6581595,97.74273 61.6589246,97.4271626 C61.6596897,97.1115952 61.9161278,96.8563976 62.2316951,96.8571627 C62.2578874,96.8572156 62.2578874,96.8572156 62.2840899,96.8572262 L71.3734232,96.8572262 Z M51.5914366,93.9578846 C51.8635282,94.1177267 51.9545244,94.4678782 51.7946823,94.7399698 C51.6348402,95.0120614 51.2846888,95.1030576 51.0125972,94.9432156 C48.2882605,93.3427854 45.9291556,91.1768706 44.1002408,88.6002514 C43.9175836,88.3429196 43.9781194,87.986238 44.2354513,87.8035808 C44.4927831,87.6209236 44.8494647,87.6814593 45.0321219,87.9387912 C46.767652,90.3838478 49.0064771,92.4393325 51.5914366,93.9578846 Z M41.2204301,77.5410961 C41.2473069,77.8555178 41.0142058,78.1321949 40.6997841,78.1590717 C40.3853625,78.1859486 40.1086854,77.9528474 40.0818086,77.6384258 C40.0283664,77.0132266 40.0010077,76.3837798 40.0000266,75.7502938 L40,68.4148849 C39.9999989,68.0993166 40.2558166,67.843497 40.5713848,67.8434959 C40.8869531,67.8434947 41.1427727,68.0993124 41.1427738,68.4148807 L41.1427998,75.7494062 C41.1437307,76.3501021 41.1697037,76.9476681 41.2204301,77.5410961 Z M41.1427738,56.9871444 C41.1427738,57.3027127 40.8869552,57.5585313 40.5713869,57.5585313 C40.2558186,57.5585313 40,57.3027127 40,56.9871444 L40,47.8449537 C40,47.5293854 40.2558186,47.2735667 40.5713869,47.2735667 C40.8869552,47.2735667 41.1427738,47.5293854 41.1427738,47.8449537 L41.1427738,56.9871444 Z M43.7443563,37.1152703 C43.5923444,37.3918127 43.2449325,37.4927648 42.96839,37.3407529 C42.6918476,37.1887411 42.5908955,36.8413292 42.7429074,36.5647867 C44.2650113,33.7957496 46.3633352,31.37667 48.887041,29.4752341 C49.13908,29.2853403 49.4973374,29.3357189 49.6872312,29.587758 C49.877125,29.839797 49.8267464,30.1980544 49.5747073,30.3879482 C47.1798179,32.19233 45.18852,34.4880234 43.7443563,37.1152703 Z M59.85474,26.2807838 C59.5412157,26.3166424 59.2579849,26.0915498 59.2221264,25.7780254 C59.1862678,25.4645011 59.4113604,25.1812703 59.7248848,25.1454118 C60.5556034,25.0504005 61.3946857,25.0016991 62.2400613,25.0000429 L62.2835301,25.0000003 C62.5990982,24.9996911 62.8551674,25.255259 62.8554765,25.5708272 C62.8557857,25.8863953 62.6002178,26.1424644 62.2846497,26.1427736 L62.2417407,26.1428153 C61.4395904,26.1443872 60.6431132,26.1906157 59.85474,26.2807838 Z"/>
    <path fill="#197BE4" d="M19,0 L62,0 C72.4934102,-1.92760819e-15 81,8.50658975 81,19 L81,62 C81,72.4934102 72.4934102,81 62,81 L19,81 C8.50658975,81 1.28507213e-15,72.4934102 0,62 L0,19 C-1.28507213e-15,8.50658975 8.50658975,1.92760819e-15 19,0 Z"/>
    <g fill="#FFF" transform="translate(11 32)">
      <path fill-rule="nonzero" d="M14.7705642 8.41649844C14.7705642 13.5969176 11.6266735 16.5498838 7.3626921 16.5498838 3.09871071 16.5498838.260299223 13.2277968.260299223 8.68379279.260299223 3.93613591 3.23872204.588592312 7.59180155.588592312 11.9448811.588592312 14.7705642 4.07614724 14.7705642 8.41649844zM3.23872204 8.64560789C3.23872204 11.7894986 4.81703157 14.284246 7.52816003 14.284246 10.2392885 14.284246 11.7921414 11.7385854 11.7921414 8.53105316 11.7921414 5.61627186 10.3538432 2.86695849 7.52816003 2.86695849 4.70247685 2.86695849 3.21326544 5.52717374 3.21326544 8.7092494L3.23872204 8.64560789zM17.1634851 1.12318102C18.5170344.889435255 19.8884241.774442956 21.2619986.779516852 22.8050202.628810174 24.3560402.971995646 25.6914479 1.75959616 26.7109812 2.36008328 27.3248729 3.46606279 27.295214 4.64892086 27.2576519 6.19708919 26.2313996 7.54661097 24.7495535 7.99646445 26.5648332 8.36574554 27.8688454 9.96249521 27.8679877 11.8149552 27.8874738 13.0482495 27.3382173 14.2218745 26.3787763 14.9970309 25.2841422 15.9643819 23.4639949 16.4353291 20.6510401 16.4353291 19.4938539 16.441021 18.33748 16.372999 17.1889417 16.2316763L17.1634851 1.12318102zM19.9637117 7.22003799L21.4020099 7.22003799C23.3494402 7.22003799 24.4440742 6.3036002 24.4440742 4.99258503 24.4440742 3.68156985 23.3494402 2.87968679 21.5547495 2.87968679 21.0176192 2.86133373 20.4800521 2.89973138 19.9509834 2.99424151L19.9637117 7.22003799zM19.9637117 14.3224309C20.458392 14.3734639 20.9556926 14.394716 21.4529231 14.3860724 23.2603421 14.3860724 24.8641082 13.698744 24.8641082 11.8404119 24.8641082 9.98207966 23.3112553 9.29475132 21.363825 9.29475132L19.9637117 9.29475132 19.9637117 14.3224309z"/>
      <path d="M33.4302559,0.919528181 L36.2432108,0.919528181 L36.2432108,10.962159 C36.2432108,15.2261404 34.1812258,16.6517103 31.1518897,16.6517103 C30.3417352,16.6450036 29.537984,16.5074633 28.7716971,16.2444046 L29.1153613,13.9787667 C29.6801951,14.155202 30.2674628,14.2495078 30.8591388,14.2587894 C32.4629049,14.2587894 33.4047993,13.5205478 33.4047993,10.8476042 L33.4302559,0.919528181 Z"/>
      <polygon points="44.249 9.282 44.249 11.229 38.394 11.229 38.394 9.282"/>
      <path d="M57.9195102,15.9007404 C56.6540291,16.4053198 55.2969489,16.6394486 53.9355515,16.5880687 C49.035155,16.5880687 46.0567321,13.5205478 46.0567321,8.82380412 C45.9395873,6.61035387 46.7740525,4.45236602 48.3498769,2.89356443 C49.9257013,1.33476283 52.0926248,0.523784368 54.3046723,0.664962128 C55.6125385,0.610792601 56.9162758,0.845465311 58.123163,1.35229047 L57.4994762,3.59247174 C56.5421484,3.1850161 55.5104905,2.98128532 54.4701402,2.99424151 C51.3262494,2.99424151 49.0606116,4.96712842 49.0606116,8.68379279 C49.0606116,12.0695213 51.0589551,14.2587894 54.4446836,14.2587894 C55.4951224,14.2739472 56.5380151,14.0792162 57.5122045,13.6860157 L57.9195102,15.9007404 Z"/>
    </g>
  </g>
</svg>
