<svg xmlns="http://www.w3.org/2000/svg" width="179" height="97" viewBox="0 0 179 97">
    <g fill="none" fill-rule="evenodd">
        <path fill="#FFF" d="M121.602 76.776c-1.069-1.486-2.291-5.323-3.64-6.506l-18.94-7.81a23.82 23.82 0 0 1 3.64 4.014c3.204 4.433 5.084 10.145 5.072 16.589l18.941 10.304c.012-6.444-1.868-12.156-5.073-16.59"/>
        <path stroke="#000" d="M121.602 76.776c-1.069-1.486-2.291-5.323-3.64-6.506l-18.94-7.81a23.82 23.82 0 0 1 3.64 4.014c3.204 4.433 5.084 10.145 5.072 16.589l18.941 10.304c.012-6.444-1.868-12.156-5.073-16.59z"/>
        <path fill="#853E1D" d="M117.962 72.764L99.022 62.46a23.06 23.06 0 0 0-4.147-2.892l18.94 10.305a22.984 22.984 0 0 1 4.147 2.89"/>
        <path fill="#FFF" d="M122.131 9.351c-7.81-4.249-16.56-6.912-25.924-7.693-5.178-.435-10.549-.292-16.053.482A78.108 78.108 0 0 0 69.56 4.398c-14.574 4.16-27.886 12.459-38.807 23.51l18.94 10.304C60.618 27.161 73.928 18.862 88.504 14.7a78.092 78.092 0 0 1 10.591-2.256c5.506-.773 10.876-.918 16.053-.482 9.364.78 18.115 3.444 25.926 7.693L122.13 9.35z"/>
        <path stroke="#000" d="M122.131 9.351c-7.81-4.249-16.56-6.912-25.924-7.693-5.178-.435-10.549-.292-16.053.482A78.108 78.108 0 0 0 69.56 4.398c-14.574 4.16-27.886 12.459-38.807 23.51l18.94 10.304C60.618 27.161 73.928 18.862 88.504 14.7a78.092 78.092 0 0 1 10.591-2.256c5.506-.773 10.876-.918 16.053-.482 9.364.78 18.115 3.444 25.926 7.693L122.13 9.35z"/>
        <path fill="#FFF" d="M30.754 27.909c-5.84 5.9-10.99 12.591-15.283 19.86C6.632 62.702 1.45 80.066 1.415 98.006l18.941 10.303c.034-17.94 5.217-35.303 14.055-50.236 4.293-7.269 9.444-13.961 15.284-19.86l-18.94-10.304z"/>
        <path stroke="#000" d="M30.754 27.909c-5.84 5.9-10.99 12.591-15.283 19.86C6.632 62.702 1.45 80.066 1.415 98.006l18.941 10.303c.034-17.94 5.217-35.303 14.055-50.236 4.293-7.269 9.444-13.961 15.284-19.86l-18.94-10.304z"/>
        <path fill="#6C6CEA" d="M162.885 38.84a67.178 67.178 0 0 0-9.994-10.928c-11.64 14.945-23.289 29.899-34.929 44.85a23.874 23.874 0 0 1 3.64 4.014c3.206 4.434 5.085 10.147 5.074 16.59l50.849-7.145c.034-18.451-5.393-34.76-14.64-47.382"/>
        <path stroke="#000" stroke-linejoin="round" d="M162.885 38.84a67.178 67.178 0 0 0-9.994-10.928c-11.64 14.945-23.289 29.899-34.929 44.85a23.874 23.874 0 0 1 3.64 4.014c3.206 4.434 5.085 10.147 5.074 16.59l50.849-7.145c.034-18.451-5.393-34.76-14.64-47.382z"/>
        <path fill="#9595EF" d="M115.147 11.962c-5.176-.435-10.547-.292-16.052.482A77.941 77.941 0 0 0 88.503 14.7c-14.576 4.16-27.887 12.46-38.808 23.512l31.072 39.031c3.794-4.09 8.492-7.228 13.679-8.868a26.699 26.699 0 0 1 4.548-1.049 25.16 25.16 0 0 1 5.11-.208c5.311.317 10.078 2.34 13.859 5.644 11.64-14.952 23.287-29.906 34.928-44.852-10.325-9.064-23.305-14.747-37.744-15.949"/>
        <path stroke="#000" stroke-linejoin="round" d="M115.147 11.962c-5.176-.435-10.547-.292-16.052.482A77.941 77.941 0 0 0 88.503 14.7c-14.576 4.16-27.887 12.46-38.808 23.512l31.072 39.031c3.794-4.09 8.492-7.228 13.679-8.868a26.699 26.699 0 0 1 4.548-1.049 25.16 25.16 0 0 1 5.11-.208c5.311.317 10.078 2.34 13.859 5.644 11.64-14.952 23.287-29.906 34.928-44.852-10.325-9.064-23.305-14.747-37.744-15.949z"/>
        <path fill="#BDBDF4" d="M49.695 38.213c-5.84 5.899-10.99 12.59-15.284 19.86-8.838 14.932-14.02 32.297-14.055 50.237l50.85-7.148c.01-5.934 1.62-11.69 4.39-16.735a36.71 36.71 0 0 1 5.171-7.183L49.695 38.213"/>
        <path stroke="#000" stroke-linejoin="round" d="M49.695 38.213c-5.84 5.899-10.99 12.59-15.284 19.86-8.838 14.932-14.02 32.297-14.055 50.237l50.85-7.148c.01-5.934 1.62-11.69 4.39-16.735a36.71 36.71 0 0 1 5.171-7.183L49.695 38.213z"/>
        <path fill="#FFF" d="M103.957 101.287c2.29-.322 4.164-2.597 4.17-5.075.004-2.472-1.864-4.228-4.152-3.906-2.297.323-4.165 2.603-4.17 5.076-.004 2.478 1.855 4.229 4.152 3.905zm40.122-53.749c.267-.089.387.09.273.257l-32.928 46.308c.099.519.151 1.064.15 1.625-.008 4.54-3.423 8.697-7.623 9.288-4.207.59-7.609-2.608-7.6-7.15.008-4.54 3.423-8.697 7.63-9.289.46-.064.912-.07 1.35-.046l38.748-40.993z"/>
        <path stroke="#000" d="M103.957 101.287c2.29-.322 4.164-2.597 4.17-5.075.004-2.472-1.864-4.228-4.152-3.906-2.297.323-4.165 2.603-4.17 5.076-.004 2.478 1.855 4.229 4.152 3.905zm40.122-53.749c.267-.089.387.09.273.257l-32.928 46.308c.099.519.151 1.064.15 1.625-.008 4.54-3.423 8.697-7.623 9.288-4.207.59-7.609-2.608-7.6-7.15.008-4.54 3.423-8.697 7.63-9.289.46-.064.912-.07 1.35-.046l38.748-40.993z"/>
        <path fill="#6C6CEA" d="M103.963 98.463c-.852.12-1.543-.53-1.542-1.449.001-.92.695-1.764 1.548-1.885.845-.118 1.535.532 1.535 1.451-.002.921-.695 1.764-1.541 1.883m.012-6.157c-2.297.323-4.165 2.605-4.17 5.075-.004 2.48 1.855 4.23 4.152 3.906 2.29-.322 4.164-2.597 4.17-5.075.004-2.472-1.862-4.228-4.152-3.906"/>
        <path stroke="#000" stroke-linejoin="round" d="M103.963 98.463c-.852.12-1.543-.53-1.542-1.449.001-.92.695-1.764 1.548-1.885.845-.118 1.535.532 1.535 1.451-.002.921-.695 1.764-1.541 1.883zm.012-6.157c-2.297.323-4.165 2.605-4.17 5.075-.004 2.48 1.855 4.23 4.152 3.906 2.29-.322 4.164-2.597 4.17-5.075.004-2.472-1.862-4.228-4.152-3.906z"/>
        <path fill="#FFF" d="M142.185 46.508L103.438 87.5a6.992 6.992 0 0 0-1.351.046c-4.207.592-7.622 4.75-7.63 9.29-.005 2.924 1.403 5.292 3.53 6.45l1.895 1.03c-2.128-1.157-3.537-3.526-3.53-6.45.008-4.54 3.422-8.698 7.629-9.29.459-.064.912-.07 1.35-.046l38.748-40.993-1.894-1.03z"/>
        <path stroke="#000" d="M142.185 46.508L103.438 87.5a6.992 6.992 0 0 0-1.351.046c-4.207.592-7.622 4.75-7.63 9.29-.005 2.924 1.403 5.292 3.53 6.45l1.895 1.03c-2.128-1.157-3.537-3.526-3.53-6.45.008-4.54 3.422-8.698 7.629-9.29.459-.064.912-.07 1.35-.046l38.748-40.993-1.894-1.03z"/>
    </g>
</svg>
