<svg xmlns="http://www.w3.org/2000/svg" xmlns:xlink="http://www.w3.org/1999/xlink" width="93" height="83" viewBox="0 0 93 83">
  <defs>
    <rect id="oracle_logo-a" width="78" height="77" x="15" y="6" rx="21"/>
    <mask id="oracle_logo-b" width="78" height="77" x="0" y="0" fill="#fff">
      <use xlink:href="#oracle_logo-a"/>
    </mask>
  </defs>
  <g fill="none" fill-rule="evenodd">
    <use fill="#F7F7FE" fill-rule="nonzero" stroke="#000" stroke-dasharray="8 10" stroke-linecap="round" stroke-linejoin="round" stroke-width="2" mask="url(#oracle_logo-b)" xlink:href="#oracle_logo-a"/>
    <path fill="#FFF" fill-rule="nonzero" d="M30,6 L53,6 C64.5979797,6 74,15.4020203 74,27 L74,47 C74,58.5979797 64.5979797,68 53,68 L30,68 C18.4020203,68 9,58.5979797 9,47 L9,27 C9,15.4020203 18.4020203,6 30,6 Z"/>
    <g fill="#444">
      <path d="M37.6357248,0.00853663976 C59.1465213,-0.254372773 77.2185806,5.58805861 77.9754766,13.0274212 C78.7323725,20.4765213 61.8750846,26.7376602 40.3642881,26.9908323 C18.8534915,27.2634791 0.772087871,21.4210477 0.0245362976,13.9719477 C-0.73235967,6.53258502 16.1155839,0.271446052 37.6357248,0.00853663976 Z"/>
      <path d="M0.0280340242,31.2955464 C-0.00934467473,30.9826183 -0.00934467473,30.6696902 0.0280340242,30.3662448 L0.0280340242,16 L0.0467233737,16 C0.00934467473,16.3034454 0.0186893495,16.6068909 0.0467233737,16.919819 C0.794297352,24.1740614 18.876243,29.8541806 40.3876842,29.6076312 C60.9740026,29.3610818 77.2898047,23.7757892 78,16.9387843 L78,31.3050291 L77.971966,31.3050291 C77.28046,38.142034 60.9553133,43.7462919 40.3596502,43.9928413 C18.8575536,44.229908 0.775608003,38.5497888 0.0280340242,31.2955464 Z"/>
      <path d="M0.0280340242,47.3004149 C-0.00934467473,46.9873872 -0.00934467473,46.6743595 0.0280340242,46.3708175 L0.0280340242,32 L0.0467233737,32 C0.00934467473,32.303542 0.0186893495,32.6165697 0.0467233737,32.9201117 C0.794297352,40.1766631 18.876243,45.8585903 40.3876842,45.6119624 C60.9740026,45.3653345 77.2898047,39.7687786 78,32.9390831 L78,47.3004149 L77.971966,47.3004149 C77.2898047,54.1490817 60.964658,59.7456377 40.3689948,59.9922656 C18.8575536,60.2388935 0.784952678,54.5569663 0.0280340242,47.3004149 Z"/>
      <path d="M0.0280340242,64.29524 C-0.00934467473,63.9823182 -0.00934467473,63.6693963 0.0280340242,63.365957 L0.0280340242,49 L0.0467233737,49 C0.00934467473,49.3034394 0.0186893495,49.6163612 0.0467233737,49.9198005 C0.794297352,57.1738976 18.876243,62.853903 40.3876842,62.6073586 C60.9740026,62.3608141 77.2898047,56.7756335 78,49.9387655 L78,64.3047225 L77.971966,64.3047225 C77.28046,71.1510729 60.9553133,76.745736 40.3596502,76.9922805 C18.8575536,77.238825 0.784952678,71.5493371 0.0280340242,64.29524 Z"/>
    </g>
  </g>
</svg>
