<svg xmlns="http://www.w3.org/2000/svg" width="125" height="67" viewBox="0 0 125 67">
  <g fill="none" fill-rule="evenodd">
    <path fill="#9595EF" fill-opacity=".078" d="M38.441311,65.8505758 C28.8294478,60.2887668 19.2036946,54.7408796 9.49460156,49.3322117 C18.8356102,43.9235439 28.2043989,38.5636027 37.6079124,33.2663102 C42.8930482,36.4265872 48.171239,39.6007861 53.4563747,42.7680241 C57.2830631,40.6727744 61.1166964,38.5844856 64.9503297,36.5101188 C67.2699556,35.2571455 71.2285987,35.4450915 73.7912992,36.9556204 C77.5763176,39.1831284 81.354391,41.4175973 85.1394094,43.6520663 C85.8547431,43.0325407 86.7089766,42.4756637 87.7229449,42.0023182 C97.2167433,37.5333803 110.051081,37.9023113 119.260135,42.6288048 C127.55245,46.8819529 124.98975,56.2444475 118.023927,60.059055 C109.467702,64.7368218 97.2931381,64.3052422 88.7160781,59.6692411 C87.9590744,59.2585443 87.2645757,58.7851989 86.6186918,58.2561657 C83.0281331,60.253962 79.4375743,62.2517582 75.8470156,64.2495545 C73.5273897,65.5442935 69.6312515,65.3841914 67.1171659,63.8667015 C63.1099079,61.4373256 59.0957049,59.0218716 55.0884469,56.6064176 C49.5324566,59.6762021 43.9834113,62.7599085 38.441311,65.8505758 Z"/>
    <path fill="#000" fill-rule="nonzero" d="M38.6917295,65.417805 C38.9307422,65.5561074 39.0123841,65.8619816 38.8740818,66.1009944 C38.7357794,66.3400071 38.4299052,66.421649 38.1908925,66.2833466 C35.5240769,64.7402203 33.3535579,63.4859993 31.2653073,62.282012 C31.0260784,62.1440839 30.9439579,61.8383378 31.0818861,61.5991089 C31.2198142,61.3598801 31.5255603,61.2777596 31.7647892,61.4156877 C33.8535557,62.6199724 36.0244993,63.8744388 38.6917295,65.417805 Z M23.0894457,56.4350168 C23.3292306,56.571976 23.4125873,56.8773874 23.2756281,57.1171723 C23.1386689,57.3569572 22.8332575,57.4403139 22.5934726,57.3033547 C20.1841012,55.9271813 17.8797001,54.6178837 15.6400173,53.3531606 C15.3995635,53.2173791 15.3147099,52.9123802 15.4504913,52.6719264 C15.5862728,52.4314727 15.8912717,52.346619 16.1317254,52.4824005 C18.3728895,53.7479601 20.6787039,55.0580607 23.0894457,56.4350168 Z M12.056932,48.427663 C11.8178392,48.5658268 11.5120123,48.4840077 11.3738485,48.2449149 C11.2356847,48.0058221 11.3175038,47.6999951 11.5565966,47.5618314 C13.8847698,46.2164574 16.1951176,44.8854953 18.4894733,43.5679565 C18.7289402,43.4304421 19.034544,43.513091 19.1720584,43.7525579 C19.3095728,43.9920248 19.2269239,44.2976285 18.987457,44.4351429 C16.6938922,45.7522275 14.3843281,47.0827382 12.056932,48.427663 Z M27.6676074,39.471271 C27.4276414,39.6079127 27.1223406,39.524152 26.9856988,39.284186 C26.8490571,39.0442201 26.9328179,38.7389193 27.1727838,38.6022775 C29.5071613,37.2730328 31.826471,35.9570719 34.1321215,34.6536633 C34.3725112,34.5177684 34.67755,34.6024783 34.8134449,34.8428679 C34.9493397,35.0832576 34.8646299,35.3882965 34.6242402,35.5241914 C32.3194987,36.8270862 30.0010903,38.1425356 27.6676074,39.471271 Z M42.7483987,36.9277984 C42.5115715,36.7857861 42.4347089,36.478676 42.5767213,36.2418488 C42.7187336,36.0050216 43.0258437,35.928159 43.2626709,36.0701714 C44.0346315,36.5330741 44.8415965,37.0171369 45.7893903,37.5858096 C46.4329102,37.9719192 47.1098327,38.3781184 48.430307,39.1705046 C49.2763876,39.6781976 49.2763876,39.6781976 50.1225245,40.1858573 C50.3593206,40.3279215 50.436116,40.6350484 50.2940519,40.8718445 C50.1519877,41.1086405 49.8448608,41.1854359 49.6080647,41.0433718 C48.7618769,40.5356816 48.7618769,40.5356816 47.915772,40.0279739 C46.5952862,39.2355809 45.9183905,38.8293977 45.2748969,38.443304 C44.3271713,37.8746722 43.520277,37.3906517 42.7483987,36.9277984 Z M58.7969585,40.4205478 C58.5544757,40.5526715 58.250797,40.4632077 58.1186733,40.2207248 C57.9865496,39.978242 58.0760134,39.6745633 58.3184963,39.5424396 C60.4864145,38.3611875 62.6155955,37.2049326 64.7125047,36.0703016 C64.9378531,35.9485768 65.1777544,35.838947 65.4308843,35.7415589 C65.6886102,35.6424026 65.9779204,35.7709486 66.0770768,36.0286744 C66.1762331,36.2864003 66.0476871,36.5757105 65.7899612,36.6748669 C65.5758761,36.7572331 65.3747632,36.8491373 65.1880824,36.9499752 C63.0923627,38.0839627 60.9640362,39.2397537 58.7969585,40.4205478 Z M74.9479137,38.2169374 C74.7099944,38.0767625 74.630757,37.7702565 74.770932,37.5323372 C74.9111069,37.2944179 75.2176129,37.2151805 75.4555322,37.3553555 C76.7468271,38.1161482 78.0922227,38.9098511 79.7195652,39.8706789 C80.4473945,40.3004093 81.0171974,40.6369274 82.345887,41.421703 C82.5836534,41.5621371 82.6625569,41.8687292 82.5221229,42.1064956 C82.3816888,42.344262 82.0750967,42.4231655 81.8373302,42.2827314 C80.5086859,41.4979827 79.9389123,41.1614819 79.2111433,40.731787 C77.5840471,39.7711047 76.238905,38.9775513 74.9479137,38.2169374 Z M91.032688,41.2084249 C90.771221,41.2972485 90.4872544,41.1572935 90.3984307,40.8958265 C90.3096071,40.6343596 90.4495621,40.3503929 90.7110291,40.2615693 C93.204114,39.4146366 95.8788214,38.8442652 98.643371,38.5622497 C98.9180877,38.5342254 99.1635077,38.7342092 99.1915319,39.0089259 C99.2195562,39.2836425 99.0195724,39.5290625 98.7448557,39.5570868 C96.05384,39.831601 93.4529496,40.3862312 91.032688,41.2084249 Z M108.648682,39.8074428 C108.375712,39.7657062 108.18826,39.510586 108.229997,39.2376159 C108.271733,38.9646458 108.526853,38.777194 108.799824,38.8189307 C111.54584,39.2387916 114.191378,39.9393646 116.639466,40.9005733 C116.896505,41.0014963 117.023063,41.291682 116.92214,41.5487212 C116.821217,41.8057605 116.531031,41.9323177 116.273992,41.8313947 C113.896298,40.8978255 111.32263,40.2162847 108.648682,39.8074428 Z M123.487768,47.6955 C123.390659,47.4369961 123.521494,47.1487141 123.779998,47.0516041 C124.038502,46.9544941 124.326784,47.0853298 124.423894,47.3438336 C125.390518,49.9169571 125.005335,52.8617289 123.451246,55.5177443 C123.311788,55.7560847 123.005522,55.8362448 122.767181,55.6967869 C122.528841,55.5573291 122.448681,55.2510631 122.588139,55.0127228 C123.997581,52.6039155 124.342131,49.9697882 123.487768,47.6955 Z M115.039848,60.8971637 C115.296979,60.7964747 115.58705,60.9232961 115.687739,61.1804271 C115.788428,61.4375581 115.661606,61.7276285 115.404475,61.8283174 C112.958292,62.7862087 110.280389,63.4124614 107.484256,63.6934681 C107.209498,63.7210809 106.964377,63.5207298 106.936765,63.2459714 C106.909152,62.9712131 107.109503,62.7260929 107.384261,62.6984801 C110.091894,62.4263675 112.680841,61.8209179 115.039848,60.8971637 Z M97.5443991,62.2380843 C97.8154834,62.2906954 97.9925909,62.5531023 97.9399799,62.8241866 C97.8873688,63.0952709 97.6249619,63.2723784 97.3538776,63.2197674 C94.6111233,62.6874636 91.9946087,61.835171 89.6274493,60.695575 C89.3786385,60.5757927 89.2740403,60.276989 89.3938226,60.0281782 C89.5136049,59.7793674 89.8124086,59.6747691 90.0612194,59.7945514 C92.3494273,60.8961387 94.8841819,61.7217991 97.5443991,62.2380843 Z M80.9558908,60.8347777 C81.1971958,60.700515 81.5016537,60.7872899 81.6359164,61.0285949 C81.7701792,61.2699 81.6834042,61.5743578 81.4420992,61.7086206 C78.7661912,63.1975028 78.7661912,63.1975028 76.090871,64.6860574 C75.5370812,64.9951644 74.8977808,65.2306851 74.1981983,65.388562 C73.92883,65.4493512 73.6611845,65.2802644 73.6003953,65.0108961 C73.5396061,64.7415278 73.7086929,64.4738823 73.9780612,64.4130931 C74.5878493,64.2754803 75.1374005,64.0730236 75.6040747,63.8125421 L80.9558908,60.8347777 Z M64.9049346,61.9429454 C65.1412417,62.0858215 65.2169824,62.3932102 65.0741062,62.6295173 C64.9312301,62.8658243 64.6238414,62.941565 64.3875343,62.7986889 C62.4548856,61.6301693 60.7252946,60.5869657 57.5383683,58.6665829 C57.301848,58.5240601 57.2256479,58.2167849 57.3681707,57.9802646 C57.5106935,57.7437443 57.8179687,57.6675442 58.054489,57.810067 C61.2418223,59.7306951 62.9717365,60.7740936 64.9049346,61.9429454 Z M48.8631394,59.4813172 C49.1046236,59.347377 49.4089653,59.4345586 49.5429055,59.6760429 C49.6768457,59.9175271 49.589664,60.2218687 49.3481798,60.3558089 C47.074812,61.6167414 44.7505469,62.908464 42.3559528,64.241647 C42.1146831,64.3759732 41.8102024,64.2892784 41.6758762,64.0480086 C41.54155,63.8067389 41.6282449,63.5022582 41.8695146,63.367932 C44.2645628,62.0344962 46.5892926,60.7425153 48.8631394,59.4813172 Z"/>
    <path fill="#FFF" d="M121.8254,28.765043 L121.827591,28.765043 L121.827591,17.8543095 L103.919986,17.7986238 C100.771461,17.4264089 97.5535681,17.4176164 94.407233,17.7685829 L72.3252035,17.6997084 C71.0831715,16.9670019 69.8425999,16.2313645 68.5998377,15.4993906 C65.9054825,13.9094174 61.7434705,13.7115866 59.3046775,15.0304584 C57.7048584,15.8972503 56.1079601,16.7735674 54.5088713,17.6447555 L40.5288919,17.6015258 C37.2058539,15.6049004 33.8828158,13.6068096 30.5575873,11.6160458 C27.0775611,13.5789667 23.6077573,15.5594726 20.1357631,17.5377803 L1,17.4784311 L1,28.5269133 C11.2078822,34.2200434 21.328143,40.0597147 31.4338003,45.9140401 C37.2606172,42.660823 43.0947358,39.4149329 48.9361562,36.1836969 C53.1492807,38.7261887 57.3697069,41.2686805 61.5828314,43.8258264 C64.2260741,45.4231267 68.3223702,45.5916492 70.7611632,44.228815 C74.5361812,42.1259472 78.3111991,40.0230793 82.086217,37.9202115 C82.7652822,38.4770685 83.4954597,38.975309 84.2913532,39.4076058 C93.309046,44.2874315 106.109058,44.7417096 115.104846,39.8179215 C119.478609,37.4197729 122.199251,32.9392723 121.8254,28.765043"/>
    <path fill="#000" fill-rule="nonzero" d="M115.584975,40.6951195 C106.460684,45.6892433 93.3168463,45.42868 83.8140564,40.2863479 C83.1781848,39.9409685 82.5725721,39.5515854 81.9924558,39.1171257 C76.9032394,41.9520658 76.7099824,42.0597192 71.2489789,45.1017617 C68.4808865,46.6486133 64.0013912,46.4557581 61.0639752,44.6806879 C59.1498175,43.5188945 57.1519778,42.3101361 54.7425983,40.8553149 C53.6097581,40.1712881 50.1960468,38.1116999 48.9144948,37.3385225 C43.5461508,40.3090525 37.9608469,43.4151751 31.9212853,46.7871715 C31.613373,46.9590845 31.2376749,46.9561049 30.932528,46.7793297 C17.5288479,39.0144211 9.26898428,34.2836943 0.512913893,29.4002673 C0.196256901,29.2236617 0,28.8894891 0,28.5269133 L0,17.4784311 C0,16.9249347 0.44960779,16.4767192 1.00310147,16.4784359 L19.8722875,16.5369583 C20.2331801,16.3313111 20.3089422,16.2881335 20.797883,16.0094811 C21.1382381,15.8155066 21.1382381,15.8155066 21.4786041,15.6215294 C25.4972026,13.3313322 27.6418212,12.1125839 30.0662985,10.7450491 C30.3792884,10.568506 30.762937,10.5734713 31.071253,10.7580555 C33.3965394,12.150169 35.3586296,13.3280566 39.3824293,15.7459815 C40.1259055,16.1927434 40.204025,16.2396862 40.807646,16.602383 L54.255528,16.6439673 C54.6418347,16.4333846 55.034403,16.2190584 55.7079486,15.851144 C55.8963047,15.7482565 55.8963047,15.7482565 56.0846888,15.6453596 C57.31113,14.9754902 58.0448908,14.5756735 58.8289915,14.1508433 C61.5942189,12.6554394 66.1288905,12.8801189 69.1073405,14.6377405 C69.6862753,14.9787271 70.1688397,15.2637596 71.1786519,15.8608102 L71.3441741,15.9586748 C71.8996578,16.2871001 72.2579858,16.4988626 72.5996944,16.7005597 L94.3535307,16.7684105 C97.5427184,16.4170687 100.797359,16.4269933 103.980092,16.7988059 L121.8307,16.8543144 C122.381768,16.856028 122.827591,17.3032388 122.827591,17.8543095 L122.827591,28.7478968 C123.202188,33.3220616 120.2638,38.129705 115.584975,40.6951195 Z M120.827591,18.8512048 L103.916877,18.798619 C100.734392,18.4289903 97.5931072,18.4194081 94.5180932,18.7624189 L72.3220845,18.6997036 C72.1444251,18.6991495 71.9701205,18.6512752 71.8171022,18.5610057 C71.3944183,18.3116536 71.0091346,18.0840027 70.3262907,17.6802768 L70.1607595,17.5824068 C69.1518921,16.9859149 68.6700002,16.7012795 68.0916168,16.3606174 C65.6975852,14.9478689 61.9069251,14.760053 59.7810555,15.909699 C59.0001488,16.3327991 58.2679762,16.7317505 57.0433871,17.4006081 C56.8550644,17.5034716 56.8550644,17.5034716 56.6667088,17.6063587 C55.8624731,18.0456607 55.4583673,18.2662431 54.9872823,18.5228915 C54.8395834,18.6033583 54.6739742,18.6452708 54.5057791,18.6447507 L40.5257997,18.601521 C40.3453959,18.6009631 40.1685029,18.5516129 40.0138647,18.4586996 C39.1830678,17.9595004 39.1830678,17.9595004 38.3522962,17.4602818 C34.6199422,15.2174884 32.662041,14.0419585 30.5426914,12.7726934 C28.3178677,14.0288196 26.2032792,15.230926 22.4688784,17.3591591 C22.128537,17.5531222 22.128537,17.5531222 21.7881778,17.7470991 C21.2095425,18.0768692 21.2095425,18.0768692 20.6308284,18.406636 C20.4790746,18.4931038 20.3073201,18.5383172 20.1326616,18.5377755 L2,18.4815374 L2,27.9397635 C10.4722515,32.6696074 18.5787083,37.3125825 31.4429267,44.7636694 C37.4838075,41.391614 43.0734568,38.2839065 48.4521164,35.308651 C48.7650637,35.1355413 49.1466344,35.1427349 49.4510896,35.3264668 C49.4606343,35.3322242 54.3714918,38.2949187 55.7763894,39.1432179 C58.1869731,40.5987663 60.1860522,41.8082745 62.100028,42.9699598 C64.4367972,44.3820594 68.1508363,44.5419595 70.274524,43.355212 L81.5995778,37.0466085 C81.9583238,36.8467696 82.4027749,36.8865649 82.7203127,37.1469569 C83.3661804,37.6765909 84.0451387,38.1358819 84.7672776,38.5281196 C93.685909,43.3543393 106.110999,43.6006542 114.62407,38.9410781 C118.66493,36.7254614 121.165829,32.6107909 120.829387,28.8542476 C120.824595,28.8007421 120.824095,28.7479147 120.827591,28.6960889 L120.827591,18.8512048 Z"/>
    <path fill="#FFF" d="M48.7976415,25.5488259 C42.9730825,28.7669994 37.1558043,31.9997678 31.3458067,35.2398336 C21.2693196,29.4091746 11.1782712,23.5931105 0.999854386,17.9229952 C10.7923942,12.25288 20.6140568,6.63384692 30.4721228,1.08049082 C36.0127346,4.39353112 41.5460656,7.72116631 47.0866773,11.0415041 C51.0983423,8.84497293 55.117288,6.65573926 59.1362337,4.48110047 C61.5679871,3.16756026 65.7179854,3.36459129 68.4045632,4.94813699 C72.372544,7.28331958 76.3332441,9.62579961 80.3012249,11.9682796 C81.0511369,11.318807 81.9466628,10.7350113 83.0096448,10.238785 C92.96236,5.55382497 106.417091,5.94058959 116.071298,10.8955551 C124.764452,15.3542944 122.077874,25.1693587 114.775333,29.1683589 C105.805513,34.0722423 93.0424477,33.6198007 84.0507848,28.7597019 C83.2571886,28.3291527 82.5291187,27.8329264 81.8520137,27.2783205 C78.0878925,29.3726874 74.3237713,31.4670543 70.55965,33.5614211 C68.1278966,34.918746 64.0434247,34.7509048 61.4078117,33.1600616 C57.2068486,30.6132531 52.9986047,28.0810395 48.7976415,25.5488259"/>
    <path fill="#000" fill-rule="nonzero" d="M48.799353,24.548677 C48.9541303,24.5506508 49.0961138,24.5837338 49.2258054,24.6450423 C49.4689086,24.7892979 49.588121,24.9117293 49.6729252,25.065216 C49.9400155,25.5486218 49.7646573,26.1570191 49.2812515,26.4241095 C49.1130434,26.5170475 48.9446281,26.6101154 48.7759981,26.7033174 C48.4681832,26.5178241 48.2829663,26.406213 48.2814026,26.4052705 C47.8084013,26.1201596 47.656086,25.5055883 47.9411969,25.032587 C48.031699,24.8824433 48.1553976,24.7646121 48.2972272,24.682827 C48.4714804,24.586549 48.6421889,24.546493 48.8100454,24.5487303 C48.9434565,24.5487869 49.0890515,24.580055 49.2258054,24.6450423 C49.6399659,24.888881 54.2644117,27.6755734 55.6191828,28.4926571 C58.0228099,29.9423223 60.0161203,31.146942 61.9245688,32.3039296 C64.2539295,33.7099203 67.9565709,33.8691449 70.0734416,32.6875783 L81.3658053,26.4044776 C81.7243111,26.205004 82.1682834,26.2447395 82.4856695,26.5047054 C83.1295301,27.0320812 83.8063809,27.4894158 84.5262821,27.8799848 C93.4185467,32.6863576 105.807139,32.9316642 114.29502,28.2912621 C121.663997,24.2558802 122.902219,15.5230138 115.614683,11.7852195 C106.148147,6.92657478 93.0197595,6.63205644 83.4326479,11.1449133 C82.4777495,11.5906835 81.654716,12.1189698 80.9558958,12.7241937 C80.631086,13.0055001 80.1628793,13.0478607 79.7929223,12.8294582 C78.6610309,12.1612511 74.641137,9.78695274 73.8444721,9.31657987 C71.5134104,7.9402569 69.6758274,6.85660317 67.8967795,5.80962162 C65.510302,4.4029636 61.731241,4.21593942 59.6121293,5.36060224 C55.7163592,7.46859109 51.7153744,9.64721145 47.5669359,11.918631 C47.2555619,12.0891195 46.8771421,12.0817517 46.5726403,11.8992721 C44.9842009,10.9473636 43.4670579,10.0373493 41.0334182,8.57701403 C39.6490964,7.74631458 38.9394934,7.32050473 38.2649067,6.91575524 C35.0267201,4.9728554 32.7140653,3.58668245 30.4571774,2.2367407 C21.5283403,7.2692964 12.4137796,12.4769464 3.02388954,17.9071188 C11.1086949,22.424578 19.0483941,26.9699868 31.3549251,34.0897887 C37.3716996,30.7350847 42.9395473,27.6430742 48.2972272,24.682827 C48.4498627,24.5948109 48.6234973,24.5485429 48.799353,24.548677 Z M31.8328606,36.1132055 C31.5251739,36.2847934 31.1498978,36.2818189 30.8449696,36.1053752 C17.479991,28.3718632 9.24397966,23.6602663 0.51319919,18.7965894 C-0.164774747,18.4189088 -0.172844299,17.4464776 0.49876847,17.0575977 C10.6116629,11.2019895 20.4022654,5.60540037 29.9813116,0.209224906 C30.2940602,0.0330438457 30.6772457,0.0380052883 30.9853279,0.222224797 C33.4057768,1.66954602 35.81635,3.11425351 39.2938935,5.20076656 C39.9685327,5.60554759 40.6781894,6.03138962 42.0624882,6.86207528 C44.2441564,8.17121204 45.6891276,9.03799054 47.1091892,9.88915143 C51.0812473,7.71524463 54.9192038,5.62591461 58.6609746,3.60125459 C61.4188952,2.1115313 65.9411347,2.33533508 68.911757,4.08630494 C70.6911628,5.1334969 72.5295049,6.21759826 74.861316,7.59436367 C75.5510585,8.00160666 78.6554852,9.83517669 80.2114605,10.7539769 C80.917489,10.2171678 81.7083454,9.74266847 82.5837489,9.3340129 C92.7327528,4.55665542 106.513005,4.86579751 116.527672,10.0057672 C125.41956,14.5664372 123.895673,25.314025 115.255034,30.0457913 C106.156431,35.0200811 93.0499016,34.7605587 83.5739154,29.6386761 C82.9401749,29.2948532 82.3365681,28.9072506 81.7583568,28.4748019 C76.6849417,31.2976634 76.4918613,31.4050938 71.0470346,34.4346086 C68.2862424,35.9755921 63.8190003,35.7834874 60.8893953,34.01519 C58.9807649,32.8580943 56.9886936,31.6542234 54.5862704,30.2052843 C53.4572656,29.5243638 50.0562477,27.4748126 48.7759981,26.7033174 C43.423463,29.6616677 37.8546066,32.7550538 31.8328606,36.1132055 Z"/>
    <path fill="#9595EF" fill-opacity=".519" d="M46.5864024,10.7994269 C44.218307,12.1357797 41.8502116,13.4713928 39.4864166,14.8158805 C38.730977,15.244815 38.2220945,15.7772854 37.9590524,16.3556073 C37.3799298,17.6283594 37.9920223,19.1237137 39.7924628,20.2352456 C42.6214194,21.9850024 45.4446421,23.7451128 48.2721652,25.4985673 C52.1110026,23.3132202 55.9505568,21.1286126 59.7965616,18.9543586 C55.3986702,16.226927 50.9900277,13.517984 46.5864024,10.7994269"/>
    <path fill="#000" fill-rule="nonzero" d="M46.4387814 12.4140326C45.9686425 12.7038392 45.352585 12.557651 45.0627784 12.0875121 44.7729717 11.6173732 44.9191599 11.0013157 45.3892988 10.7115091L46.6276337 9.94816519C46.9702191 9.73698604 47.4060161 9.75174969 47.7335241 9.98562985L49.9106737 11.5403769C50.3601214 11.8613367 50.4642815 12.4858754 50.1433217 12.9353231 49.8223619 13.3847708 49.1978232 13.4889308 48.7483755 13.167971L47.1117295 11.9992087 46.4387814 12.4140326zM42.2370997 12.3694275C42.7230308 12.1069597 43.3297281 12.2881124 43.592196 12.7740435 43.8546638 13.2599747 43.6735111 13.8666719 43.1875799 14.1291398 41.5977924 14.987838 40.8914305 15.3696753 40.0094956 15.8475743 39.8226944 15.9488964 39.6555124 16.0563862 39.5084442 16.1687359 39.0695682 16.5040063 38.4419985 16.4200173 38.1067281 15.9811413 37.7714577 15.5422652 37.8554467 14.9146955 38.2943227 14.5794251 38.5255472 14.4027859 38.7798717 14.2392677 39.0562849 14.0893396 39.9396331 13.6106747 40.6465218 13.2285526 42.2370997 12.3694275zM38.1810553 19.9427785C37.7979429 19.5449804 37.8098479 18.9119274 38.2076459 18.5288149 38.605444 18.1457025 39.238497 18.1576075 39.6216095 18.5554055 39.8798274 18.8235215 40.2149633 19.0824968 40.6228831 19.3227539 41.3660038 19.7609016 42.1392921 20.2177461 42.9773028 20.7136027 43.4526133 20.9948471 43.6099349 21.608156 43.3286905 22.0834664 43.0474461 22.5587769 42.4341372 22.7160985 41.9588268 22.4348541 41.1216636 21.9394991 40.3492566 21.4831751 39.6074893 21.0458254 39.049029 20.7169029 38.5703854 20.3470325 38.1810553 19.9427785zM53.7112015 23.9429489C53.2173273 24.1901467 52.6165698 23.9901759 52.369372 23.4963018 52.1221742 23.0024276 52.322145 22.4016701 52.8160192 22.1544723 54.5576554 21.2827349 55.8364951 20.6431184 57.0964549 20.0138321 57.5905422 19.7670605 58.191127 19.9675495 58.4378986 20.4616367 58.6846702 20.955724 58.4841812 21.5563087 57.990094 21.8030804 56.730746 22.432061 55.4523674 23.0714469 53.7112015 23.9429489zM59.5352784 18.1339898C59.9945729 18.4406932 60.1182724 19.0616572 59.811569 19.5209517 59.5048656 19.9802462 58.8839015 20.1039458 58.424607 19.7972423 57.5383841 19.2054487 56.6119482 18.5874803 55.5177109 17.8581101 55.0581586 17.551793 54.9339371 16.9309332 55.2402542 16.4713809 55.5465714 16.0118287 56.1674312 15.8876072 56.6269834 16.1939243 57.7216517 16.9235817 58.6485334 17.5418475 59.5352784 18.1339898zM48.7183663 24.2158422C49.1779647 24.5220899 49.30228 25.142931 48.9960323 25.6025294 48.6897845 26.0621279 48.0689435 26.1864432 47.609345 25.8801954 46.8425025 25.3692005 46.5370822 25.1656544 46.0756969 24.8580839 45.6161592 24.551745 45.4919669 23.9308793 45.7983058 23.4713416 46.1046447 23.0118038 46.7255103 22.8876116 47.1850481 23.1939505 47.6463075 23.5014371 47.9516355 23.7049217 48.7183663 24.2158422z"/>
    <path fill="#9595EF" fill-opacity=".519" d="M89.5960994,17.2359621 C86.4153774,15.3574818 83.2287363,13.4900905 80.0450547,11.6160458 C74.9894897,15.9311539 76.5484061,23.0126032 81.6232078,27.1318052 C84.3555657,25.6170448 87.085704,24.0993273 89.8188018,22.5867848 C92.3188389,21.2028748 92.2581692,18.8120817 89.5960994,17.2359621"/>
    <path fill="#000" fill-rule="nonzero" d="M80.0489779 13.1895373C79.6309688 13.5504899 78.9994955 13.5042364 78.6385429 13.0862272 78.2775903 12.6682181 78.3238438 12.0367448 78.741853 11.6757922 79.1090348 11.3587293 79.5175355 11.0576355 79.9674028 10.7719122 80.2484895 10.5933862 80.5999996 10.5664859 80.9049784 10.7001617 81.1049628 10.7878172 81.2396156 10.8467225 81.5748085 10.9932249 81.9101816 11.1397339 81.9101816 11.1397339 82.244603 11.2858406 82.75179 11.5074901 82.9827531 12.0970271 82.7615914 12.6030962 82.5404297 13.1091653 81.9508926 13.3401284 81.4459414 13.1194544 81.1096892 12.9725493 81.1096892 12.9725493 80.7739994 12.8259019 80.7116478 12.7986499 80.6562101 12.774418 80.6059835 12.752461 80.4066696 12.895238 80.2210487 13.0409536 80.0489779 13.1895373zM76.4983512 14.548979C76.6825616 14.0283208 77.2539705 13.755576 77.7746287 13.9397864 78.2952869 14.1239969 78.5680317 14.6954058 78.3838213 15.216064 77.9881201 16.3344865 77.8608188 17.5475835 78.000042 18.7966014 78.0612242 19.3454868 77.6658626 19.8400443 77.1169772 19.9012264 76.5680918 19.9624086 76.0735343 19.567047 76.0123521 19.0181616 75.840395 17.475477 75.9995543 15.9587943 76.4983512 14.548979zM77.3060308 23.2314257C77.0544317 22.7397791 77.2490287 22.1372594 77.7406753 21.8856604 78.2323219 21.6340614 78.8348415 21.8286584 79.0864406 22.320305 79.3916633 22.9167369 79.7534889 23.4943073 80.1664404 24.0435477 80.4983363 24.4849812 80.4095385 25.1118886 79.968105 25.4437845 79.5266715 25.7756804 78.8997641 25.6868826 78.5678682 25.2454491 78.0864105 24.6050929 77.6636758 23.9302954 77.3060308 23.2314257zM82.4089299 25.9233032C82.740248 25.7756247 82.740248 25.7756247 83.0719163 25.6279425 83.5764887 25.403387 84.1675636 25.6303855 84.3921191 26.1349579 84.6166746 26.6395302 84.3896761 27.2306052 83.8851037 27.4551606 83.5543108 27.6024531 83.5543108 27.6024531 83.2231676 27.7500536 82.8918495 27.897732 82.8918495 27.897732 82.5601812 28.0454143 82.2500991 28.1834136 81.8911872 28.1547132 81.6069755 27.9691911 81.1820306 27.6918041 80.7789763 27.3992553 80.3999597 27.0928393 79.9704737 26.7456214 79.9037823 26.1159785 80.2510002 25.6864926 80.5982181 25.2570067 81.227861 25.1903153 81.6573469 25.5375332 81.8491697 25.6926123 82.0488153 25.8440353 82.2558986 25.9915129 82.2984746 25.9725364 82.3481185 25.9504086 82.4089299 25.9233032zM85.8815048 25.5630986C85.394859 25.824239 84.7886585 25.6414307 84.5275181 25.1547849 84.2663778 24.6681391 84.4491861 24.0619386 84.9358319 23.8007982 85.3801949 23.5623255 85.3801949 23.5623255 85.824575 23.3237938 86.1208379 23.1647641 86.1208379 23.1647641 86.4171212 23.0057289 87.1451849 22.6149385 87.6565757 22.3405741 88.1675413 22.0666889 88.6543083 21.8057745 89.2604238 21.9888642 89.5213382 22.4756312 89.7822526 22.9623982 89.5991629 23.5685137 89.1123959 23.8294281 88.6018369 24.1030954 88.0907412 24.3773015 87.362986 24.7679263 87.0667475 24.9269374 87.0667475 24.9269374 86.7704782 25.0859706 86.3260406 25.3245332 86.3260406 25.3245332 85.8815048 25.5630986zM92.4072204 21.0747228C92.1947312 21.5844941 91.6092233 21.8254888 91.099452 21.6129996 90.5896808 21.4005103 90.348686 20.8150025 90.5611753 20.3052312 90.8054344 19.7192426 90.5149982 19.0237003 89.5506033 18.3476285 89.0983734 18.0306008 88.9887704 17.4069943 89.3057981 16.9547644 89.6228258 16.5025345 90.2464323 16.3929315 90.6986622 16.7099592 92.3678489 17.8801127 93.0539477 19.5231951 92.4072204 21.0747228zM87.2789769 14.7246633C87.7589467 14.9978801 87.926553 15.6084585 87.6533362 16.0884283 87.3801194 16.5683981 86.769541 16.7360045 86.2895712 16.4627877 85.4540936 15.9872025 84.7044932 15.5608862 83.3302131 14.7795731L83.1025759 14.650156C82.6224586 14.3771985 82.4545224 13.7667108 82.7274799 13.2865934 83.0004374 12.8064761 83.6109251 12.6385399 84.0910425 12.9114974L84.3186834 13.0409166C85.6932607 13.8223986 86.443098 14.2488497 87.2789769 14.7246633zM47.9726862 28.9740648C47.9726862 28.42178 48.4204015 27.9740648 48.9726862 27.9740648 49.524971 27.9740648 49.9726862 28.42178 49.9726862 28.9740648L49.9726862 35.9091192C49.9726862 36.4614039 49.524971 36.9091192 48.9726862 36.9091192 48.4204015 36.9091192 47.9726862 36.4614039 47.9726862 35.9091192L47.9726862 28.9740648zM81.1590172 30.6073026C81.1590172 30.0550178 81.6067324 29.6073026 82.1590172 29.6073026 82.7113019 29.6073026 83.1590172 30.0550178 83.1590172 30.6073026L83.1590172 37.542357C83.1590172 38.0946418 82.7113019 38.542357 82.1590172 38.542357 81.6067324 38.542357 81.1590172 38.0946418 81.1590172 37.542357L81.1590172 30.6073026z"/>
  </g>
</svg>
