<svg xmlns="http://www.w3.org/2000/svg" width="98" height="89" viewBox="0 0 98 89">
  <defs>
    <linearGradient id="percona-logo-a" x1="50%" x2="50%" y1="0%" y2="100%">
      <stop offset="0%" stop-color="#FBB32F"/>
      <stop offset="50.474%" stop-color="#C11511"/>
      <stop offset="100%" stop-color="#C11411"/>
    </linearGradient>
  </defs>
  <g fill="none" fill-rule="evenodd">
    <path fill="#F7F7FE" fill-rule="nonzero" stroke="#000" stroke-dasharray="8 10" stroke-linecap="round" stroke-linejoin="round" d="M54.9775281,88.0449438 C78.1858985,88.0449438 97,69.2308423 97,46.0224719 C97,22.8141015 78.1858985,4 54.9775281,4 C31.7691577,4 12.9550562,22.8141015 12.9550562,46.0224719 C12.9550562,69.2308423 31.7691577,88.0449438 54.9775281,88.0449438 Z"/>
    <path fill="#FFF" fill-rule="nonzero" d="M42.9775281,84.0449438 C66.1858985,84.0449438 85,65.2308423 85,42.0224719 C85,18.8141015 66.1858985,0 42.9775281,0 C19.7691577,0 0.95505618,18.8141015 0.95505618,42.0224719 C0.95505618,65.2308423 19.7691577,84.0449438 42.9775281,84.0449438 Z"/>
    <g transform="translate(1)">
      <path fill="url(#percona-logo-a)" d="M42,0.000328990511 C18.8041875,0.000328990511 0,18.3695142 0,41.0293936 C0,55.2042787 7.35885937,67.6993384 18.5475938,75.0700418 L18.5475938,41.050449 C18.5472656,40.9984685 18.5400469,40.9484619 18.5400469,40.8968104 C18.5400469,40.8448299 18.5472656,40.7948234 18.5475938,40.7428429 L18.5475938,40.4543182 L18.5617031,40.4543182 C18.7917188,27.2466651 29.171625,16.6090859 41.9645625,16.6090859 C54.9015469,16.6090859 65.38875,27.4828803 65.38875,40.8968104 C65.38875,54.3104115 54.9015469,65.1845349 41.9645625,65.1845349 C36.925875,65.1845349 32.2707656,63.5191849 28.4500781,60.7128959 L28.4500781,79.8624465 C32.8200041,81.3183342 37.3951416,82.0595964 42,82.0578002 C65.1958125,82.0578002 84,63.688615 84,41.0293936 C84,18.3691852 65.1958125,0 42,0"/>
      <path fill="#FCB42F" d="M56.3236994,41.7572254 C56.3236994,49.5339917 50.0196146,55.8381503 42.2429394,55.8381503 C34.4662642,55.8381503 28.1618497,49.5339917 28.1618497,41.7572254 C28.1618497,33.9804592 34.4662642,27.6763006 42.2429394,27.6763006 C50.0196146,27.6763006 56.3236994,33.9804592 56.3236994,41.7572254"/>
    </g>
  </g>
</svg>
