<svg xmlns="http://www.w3.org/2000/svg" width="77" height="77" viewBox="0 0 77 77">
  <defs>
    <linearGradient id="photoshop-a" x1="24.302%" x2="62.635%" y1="-5.222%" y2="77.151%">
      <stop offset="0%" stop-color="#A0CBFF"/>
      <stop offset="39.4%" stop-color="#A0CBFE"/>
      <stop offset="58.3%" stop-color="#8EC2FC"/>
      <stop offset="78.4%" stop-color="#83BCFB"/>
      <stop offset="100%" stop-color="#7FBAFB"/>
    </linearGradient>
    <linearGradient id="photoshop-b" x1="35.621%" x2="61.386%" y1="1.409%" y2="88.478%">
      <stop offset="0%" stop-color="#090058"/>
      <stop offset="100%" stop-color="#070033"/>
    </linearGradient>
    <linearGradient id="photoshop-c" x1="-43.519%" x2="98.016%" y1="-70.059%" y2="129.941%">
      <stop offset="0%" stop-color="#A0CBFF"/>
      <stop offset="39.4%" stop-color="#A0CBFE"/>
      <stop offset="58.3%" stop-color="#8EC2FC"/>
      <stop offset="78.4%" stop-color="#83BCFB"/>
      <stop offset="100%" stop-color="#7FBAFB"/>
    </linearGradient>
    <linearGradient id="photoshop-d" x1="-91.046%" x2="85.611%" y1="-153.082%" y2="105.381%">
      <stop offset="0%" stop-color="#A0CBFF"/>
      <stop offset="39.4%" stop-color="#A0CBFE"/>
      <stop offset="58.3%" stop-color="#8EC2FC"/>
      <stop offset="78.4%" stop-color="#83BCFB"/>
      <stop offset="100%" stop-color="#7FBAFB"/>
    </linearGradient>
  </defs>
  <g fill="none" fill-rule="evenodd">
    <g transform="translate(1 2)">
      <path fill="#9595EF" fill-opacity=".078" d="M31.2492837,11.4326648 L56.1289398,11.4326648 C66.6223501,11.4326648 75.1289398,19.9392545 75.1289398,30.4326648 L75.1289398,55.3123209 C75.1289398,65.8057312 66.6223501,74.3123209 56.1289398,74.3123209 L31.2492837,74.3123209 C20.7558734,74.3123209 12.2492837,65.8057312 12.2492837,55.3123209 L12.2492837,30.4326648 C12.2492837,19.9392545 20.7558734,11.4326648 31.2492837,11.4326648 Z"/>
      <path fill="#000" fill-rule="nonzero" d="M31.2492837,11.9326648 C30.9731413,11.9326648 30.7492837,11.7088071 30.7492837,11.4326648 C30.7492837,11.1565224 30.9731413,10.9326648 31.2492837,10.9326648 L39.2492837,10.9326648 C39.525426,10.9326648 39.7492837,11.1565224 39.7492837,11.4326648 C39.7492837,11.7088071 39.525426,11.9326648 39.2492837,11.9326648 L31.2492837,11.9326648 Z M49.2492837,11.9326648 C48.9731413,11.9326648 48.7492837,11.7088071 48.7492837,11.4326648 C48.7492837,11.1565224 48.9731413,10.9326648 49.2492837,10.9326648 L56.1289398,10.9326648 C56.5129936,10.9326648 56.8957499,10.9437734 57.2768935,10.9659087 C57.5525714,10.9819189 57.7630736,11.2183788 57.7470633,11.4940567 C57.7310531,11.7697345 57.4945931,11.9802367 57.2189153,11.9642265 C56.8570744,11.9432123 56.4936523,11.9326648 56.1289398,11.9326648 L49.2492837,11.9326648 Z M66.3803699,15.0302922 C66.1506344,14.8770727 66.088606,14.5666264 66.2418255,14.3368909 C66.395045,14.1071554 66.7054914,14.045127 66.9352269,14.1983465 C69.2353478,15.7323865 71.1894288,17.7411734 72.6587669,20.0831178 C72.8055257,20.3170333 72.7348712,20.6256309 72.5009557,20.7723897 C72.2670402,20.9191485 71.9584427,20.848494 71.8116839,20.6145785 C70.4174571,18.3923522 68.5629856,16.4859634 66.3803699,15.0302922 Z M74.6214247,29.9000713 C74.6136253,29.6240391 74.8310709,29.3939481 75.1071032,29.3861487 C75.3831354,29.3783493 75.6132264,29.5957949 75.6210258,29.8718271 C75.6262052,30.055132 75.6288452,30.2387638 75.6289374,30.4229388 L75.6289398,37.8956195 C75.6289399,38.1717618 75.4050824,38.3956195 75.12894,38.3956196 C74.8527976,38.3956197 74.6289399,38.1717622 74.6289398,37.8956198 L74.6289375,30.4231894 C74.62885,30.2485144 74.6263429,30.0741312 74.6214247,29.9000713 Z M74.6289398,47.8956196 C74.6289398,47.6194772 74.8527975,47.3956196 75.1289398,47.3956196 C75.4050822,47.3956196 75.6289398,47.6194772 75.6289398,47.8956196 L75.6289398,55.3123209 C75.6289398,55.5120227 75.6259362,55.7113797 75.61994,55.9103482 C75.6116218,56.1863653 75.3811225,56.4033781 75.1051055,56.3950599 C74.8290884,56.3867417 74.6120756,56.1562424 74.6203938,55.8802254 C74.6260875,55.6912944 74.6289398,55.5019795 74.6289398,55.3123209 L74.6289398,47.8956196 Z M71.8177781,65.1206871 C71.9643919,64.8866807 72.2729455,64.815835 72.506952,64.9624488 C72.7409584,65.1090626 72.8118041,65.4176162 72.6651903,65.6516227 C71.1972378,67.9945829 69.2442816,70.0046423 66.944977,71.5401323 C66.7153335,71.6934896 66.40485,71.6316475 66.2514926,71.402004 C66.0981352,71.1723605 66.1599774,70.861877 66.3896209,70.7085196 C68.5714633,69.2514716 70.4248673,67.3438754 71.8177781,65.1206871 Z M57.1949327,73.7821365 C57.4706309,73.7664805 57.7068202,73.9772863 57.7224762,74.2529845 C57.7381323,74.5286827 57.5273264,74.764872 57.2516282,74.780528 C56.8858544,74.8012992 56.5186026,74.8119172 56.1496193,74.8123099 L49.2030309,74.8123209 C48.9268885,74.8123214 48.7030305,74.5884641 48.7030301,74.3123217 C48.7030297,74.0361793 48.9268869,73.8123214 49.2030293,73.8123209 L56.1490859,73.8123102 C56.4989799,73.8119375 56.8476811,73.8018558 57.1949327,73.7821365 Z M39.2030301,73.8123209 C39.4791725,73.8123209 39.7030301,74.0361785 39.7030301,74.3123209 C39.7030301,74.5884633 39.4791725,74.8123209 39.2030301,74.8123209 L31.2492837,74.8123209 C31.2251426,74.8123112 31.2251426,74.8123112 31.2010105,74.8122624 C30.9248689,74.8115929 30.7015547,74.5871932 30.7022242,74.3110517 C30.7028937,74.0349101 30.9272934,73.8115959 31.2034349,73.8122653 C31.2263548,73.8123117 31.2263548,73.8123117 31.2492837,73.8123209 L39.2030301,73.8123209 Z M21.89253,71.2752122 C22.1306275,71.4150842 22.210255,71.721489 22.070383,71.9595866 C21.930511,72.1976841 21.6241061,72.2773116 21.3860086,72.1374396 C19.0020403,70.7369611 16.937673,68.8416475 15.3372559,66.5869414 C15.1774192,66.3617596 15.2303919,66.0496404 15.4555737,65.8898037 C15.6807555,65.729967 15.9928746,65.7829397 16.1527113,66.0081215 C17.6714108,68.147702 19.6305256,69.9463822 21.89253,71.2752122 Z M12.8172378,56.9094751 C12.8407568,57.1846141 12.6367784,57.4267242 12.3616394,57.4502432 C12.0865004,57.4737621 11.8443903,57.2697838 11.8208714,56.9946448 C11.7741061,56.4475556 11.7501655,55.8967495 11.749307,55.3424088 L11.7492837,48.9234581 C11.7492827,48.6473158 11.9731395,48.4234573 12.2492819,48.4234563 C12.5254242,48.4234553 12.7492827,48.6473121 12.7492837,48.9234545 L12.7493064,55.3416321 C12.750121,55.8672793 12.772849,56.3901877 12.8172378,56.9094751 Z M12.7492837,38.9234563 C12.7492837,39.1995987 12.525426,39.4234563 12.2492837,39.4234563 C11.9731413,39.4234563 11.7492837,39.1995987 11.7492837,38.9234563 L11.7492837,30.9234563 C11.7492837,30.647314 11.9731413,30.4234563 12.2492837,30.4234563 C12.525426,30.4234563 12.7492837,30.647314 12.7492837,30.9234563 L12.7492837,38.9234563 Z M15.0258342,21.534299 C14.8928142,21.7762913 14.5888066,21.8646307 14.3468143,21.7316107 C14.104822,21.5985906 14.0164825,21.2945831 14.1495026,21.0525908 C15.4814406,18.6295067 17.3176078,16.5126577 19.5260114,14.84878 C19.7465616,14.6826108 20.0600597,14.7266954 20.2262289,14.9472456 C20.3923981,15.1677958 20.3483135,15.4812939 20.1277633,15.6474631 C18.0320823,17.2264122 16.2895696,19.2352904 15.0258342,21.534299 Z M29.1234476,12.0534323 C28.8490938,12.0848108 28.6012488,11.8878404 28.5698703,11.6134866 C28.5384918,11.3391328 28.7354622,11.0912879 29.009816,11.0599094 C29.7367478,10.9767684 30.4709983,10.9341516 31.2107558,10.9327023 L31.2487938,10.932665 C31.5249361,10.9323945 31.7490129,11.1560327 31.7492834,11.4321749 C31.749554,11.7083172 31.5259157,11.932394 31.2497735,11.9326645 L31.2122254,11.9327011 C30.5102928,11.9340765 29.8133244,11.9745294 29.1234476,12.0534323 Z"/>
    </g>
    <g transform="translate(6.15 28.546)">
      <path fill="#9595EF" fill-opacity=".078" d="M5.16448752,1.32665734 L5.16448752,1.32665734 C7.17939222,1.32665734 8.81279521,2.96006034 8.81279521,4.97496504 L8.81279521,4.97496504 C8.81279521,6.98986974 7.17939222,8.62327273 5.16448752,8.62327273 L5.16448752,8.62327273 C3.14958281,8.62327273 1.51617982,6.98986974 1.51617982,4.97496504 L1.51617982,4.97496504 C1.51617982,2.96006034 3.14958281,1.32665734 5.16448752,1.32665734 Z"/>
      <path fill="#000" fill-rule="nonzero" d="M3.72095798,1.38467782 C3.68891415,1.38467782 3.6629375,1.35870117 3.6629375,1.32665734 C3.6629375,1.29461352 3.68891415,1.26863687 3.72095798,1.26863687 L4.64928562,1.26863687 C4.68132945,1.26863687 4.7073061,1.29461352 4.7073061,1.32665734 C4.7073061,1.35870117 4.68132945,1.38467782 4.64928562,1.38467782 L3.72095798,1.38467782 Z M5.80969518,1.38467782 C5.77765135,1.38467782 5.7516747,1.35870117 5.7516747,1.32665734 C5.7516747,1.29461352 5.77765135,1.26863687 5.80969518,1.26863687 L6.60801706,1.26863687 C6.65258303,1.26863687 6.69699843,1.26992592 6.7412267,1.27249452 C6.77321662,1.27435236 6.79764349,1.3017914 6.79578565,1.33378132 C6.79392781,1.36577124 6.76648877,1.39019812 6.73449885,1.38834028 C6.69251049,1.38590176 6.65033864,1.38467782 6.60801706,1.38467782 L5.80969518,1.38467782 Z M7.7976028,1.74412947 C7.77094407,1.72634974 7.76374623,1.69032524 7.78152597,1.66366652 C7.79930571,1.63700779 7.83533021,1.62980995 7.86198893,1.64758969 C8.12889716,1.82560116 8.35565058,2.05870271 8.52615399,2.33046419 C8.54318402,2.35760797 8.53498521,2.39341791 8.50784143,2.41044795 C8.48069765,2.42747798 8.4448877,2.41927917 8.42785767,2.39213539 C8.26607026,2.13426613 8.05087561,1.91304695 7.7976028,1.74412947 Z M8.75390268,3.46963285 C8.75299762,3.43760181 8.77823022,3.41090183 8.81026126,3.40999678 C8.8422923,3.40909172 8.86899228,3.43432432 8.86989734,3.46635536 C8.87049836,3.48762623 8.87080471,3.50893505 8.87081541,3.53030689 L8.87081569,4.3974439 C8.8708157,4.42948772 8.84483906,4.45546438 8.81279523,4.45546439 C8.78075141,4.4554644 8.75477474,4.42948776 8.75477473,4.39744393 L8.75477446,3.53033598 C8.75476431,3.51006651 8.75447338,3.48983092 8.75390268,3.46963285 Z M8.75477473,5.55785347 C8.75477473,5.52580965 8.78075139,5.49983299 8.81279521,5.49983299 C8.84483904,5.49983299 8.87081569,5.52580965 8.87081569,5.55785347 L8.87081569,6.41849458 C8.87081569,6.44166816 8.87046715,6.46480174 8.86977134,6.48789024 C8.86880609,6.51991952 8.84205874,6.5451019 8.81002945,6.54413664 C8.77800017,6.54317139 8.75281779,6.51642404 8.75378305,6.48439475 C8.75444375,6.46247103 8.75477473,6.44050274 8.75477473,6.41849458 L8.75477473,5.55785347 Z M8.42856484,7.55666677 C8.44557805,7.52951244 8.48138291,7.52129143 8.50853724,7.53830464 C8.53569156,7.55531784 8.54391257,7.5911227 8.52689936,7.61827703 C8.35655676,7.89015638 8.12993384,8.12340559 7.86312034,8.30158531 C7.83647229,8.31938105 7.80044349,8.31220483 7.78264775,8.28555678 C7.76485202,8.25890873 7.77202824,8.22287992 7.79867629,8.20508419 C8.05185937,8.03600694 8.26693014,7.81464766 8.42856484,7.55666677 Z M6.73171589,8.56174963 C6.76370817,8.55993289 6.7911158,8.584395 6.79293254,8.61638728 C6.79474928,8.64837957 6.77028717,8.6757872 6.73829489,8.67760394 C6.69585015,8.68001424 6.6532339,8.68124636 6.61041672,8.68129193 L5.80432796,8.68129321 C5.77228414,8.68129326 5.74630744,8.65531665 5.74630739,8.62327283 C5.74630734,8.591229 5.77228395,8.56525231 5.80432778,8.56525226 L6.61035483,8.56525101 C6.65095685,8.56520776 6.69142048,8.56403788 6.73171589,8.56174963 Z M4.64391832,8.56525226 C4.67596214,8.56525226 4.70193879,8.59122891 4.70193879,8.62327273 C4.70193879,8.65531656 4.67596214,8.68129321 4.64391832,8.68129321 L3.72095798,8.68129321 C3.71815663,8.68129208 3.71815663,8.68129208 3.71535631,8.68128642 C3.68331258,8.68120873 3.65739898,8.65516918 3.65747667,8.62312545 C3.65755436,8.59108172 3.68359391,8.56516812 3.71563765,8.56524581 C3.7182973,8.56525118 3.7182973,8.56525118 3.72095798,8.56525226 L4.64391832,8.56525226 Z M2.63519134,8.27084373 C2.6628204,8.28707461 2.67206046,8.32263013 2.65582957,8.35025919 C2.63959869,8.37788825 2.60404318,8.38712831 2.57641412,8.37089742 C2.29977615,8.20838456 2.060225,7.98845057 1.87451107,7.72681231 C1.85596347,7.700682 1.86211047,7.66446339 1.88824078,7.64591579 C1.91437109,7.62736819 1.95058969,7.63351518 1.9691373,7.6596455 C2.14536864,7.90792446 2.37270618,8.11664504 2.63519134,8.27084373 Z M1.58208577,6.60382988 C1.58481493,6.63575727 1.56114508,6.66385196 1.52921769,6.66658112 C1.4972903,6.66931028 1.46919561,6.64564044 1.46646645,6.61371304 C1.46103976,6.5502283 1.45826167,6.48631223 1.45816205,6.421986 L1.45815934,5.67712484 C1.45815923,5.64508101 1.48413579,5.61910426 1.51617961,5.61910415 C1.54822344,5.61910403 1.57420018,5.64508059 1.5742003,5.67712441 L1.57420293,6.42189587 C1.57429747,6.48289248 1.57693485,6.54357127 1.58208577,6.60382988 Z M1.5742003,4.51671507 C1.5742003,4.54875889 1.54822365,4.57473555 1.51617982,4.57473555 C1.484136,4.57473555 1.45815934,4.54875889 1.45815934,4.51671507 L1.45815934,3.58838742 C1.45815934,3.5563436 1.484136,3.53036695 1.51617982,3.53036695 C1.54822365,3.53036695 1.5742003,3.5563436 1.5742003,3.58838742 L1.5742003,4.51671507 Z M1.8383734,2.49886063 C1.82293763,2.52694165 1.7876603,2.53719265 1.75957928,2.52175687 C1.73149826,2.5063211 1.72124726,2.47104377 1.73668304,2.44296275 C1.8912424,2.16178576 2.104313,1.91614458 2.36057826,1.72306662 C2.38617112,1.70378419 2.42254973,1.7088998 2.44183217,1.73449266 C2.4611146,1.76008552 2.45599898,1.79646414 2.43040612,1.81574657 C2.1872213,1.99896934 1.98501846,2.23208148 1.8383734,2.49886063 Z M3.47427393,1.3986918 C3.44243765,1.402333 3.41367748,1.37947636 3.41003629,1.34764009 C3.4063951,1.31580381 3.42925173,1.28704364 3.46108801,1.28340245 C3.54544187,1.2737547 3.630645,1.2688094 3.71648717,1.26864122 L3.72090114,1.26863689 C3.75294495,1.2686055 3.77894704,1.29455669 3.77897843,1.3266005 C3.77900982,1.35864431 3.75305863,1.3846464 3.72101482,1.38467779 L3.7166577,1.38468203 C3.63520477,1.38484164 3.5543279,1.38953584 3.47427393,1.3986918 Z"/>
    </g>
    <g fill-rule="nonzero" transform="translate(5.918 28.43)">
      <path fill="#393687" d="M6.17477353,7.86518282 L1.69040929,7.86518282 C0.75672134,7.86518282 0,7.10846148 0,6.17477353 L0,1.69040929 C0,0.75672134 0.75672134,0 1.69040929,0 L6.17492478,0 C7.10846148,0 7.86518282,0.75672134 7.86518282,1.69040929 L7.86518282,6.17492478 C7.86518282,7.10846148 7.10846148,7.86518282 6.17477353,7.86518282 Z"/>
      <path fill="#89D3FF" d="M.479112824 4.20870606L.042453035 4.20870606.042453035 0 1.50405038 0C1.90022817 0 2.19436706.122202787 2.38646704.366758671 2.5784154.611164244 2.67454121.93192777 2.67454121 1.32859832 2.67454121 1.46898872 2.67044752 1.59013933 2.66241177 1.69235077 2.6542244 1.79471251 2.62905581 1.92292773 2.58660278 2.07729706 2.54414974 2.23151608 2.48653491 2.35777726 2.41375828 2.45608061 2.34098164 2.55438395 2.22984566 2.64051212 2.08019872 2.71461541 1.93055177 2.78886901 1.75270387 2.82584549 1.54650342 2.82584549L.479112824 2.82584549.479112824 4.20870606zM.479112824 2.40497489L1.49192094 2.40497489C1.63747421 2.40497489 1.76073963 2.37686675 1.86186882 2.32080077 1.9628464 2.26458448 2.03668435 2.20461042 2.08323107 2.14042765 2.12962618 2.07624488 2.16601449 1.98410428 2.19239602 1.86385554 2.21862593 1.74345648 2.23287802 1.65342024 2.23484906 1.59314555 2.23682009 1.53317149 2.23788142 1.44689302 2.23788142 1.33461075 2.23788142.725400551 1.98104055.420720295 1.46766207.420720295L.479112824.420720295.479112824 2.40497489zM3.10513627 3.44512653L3.52966662 3.42708922C3.54573813 3.57544611 3.62063741 3.69073459 3.75406124 3.77280436 3.88748506 3.85502444 4.04107408 3.89605932 4.2149799 3.89605932 4.38888573 3.89605932 4.53944239 3.85697848 4.66680149 3.77881679 4.7941606 3.70065511 4.85784015 3.58852316 4.85784015 3.44227062 4.85784015 3.29601809 4.80325767 3.17967743 4.69409273 3.09354926 4.58492778 3.0074211 4.45150396 2.93933025 4.29382125 2.8891264 4.13613855 2.83907286 3.97754614 2.7860131 3.81774079 2.72979681 3.65793544 2.67373083 3.51753719 2.58549832 3.3962428 2.46524957 3.24659585 2.32485916 3.17184819 2.15365501 3.17184819 1.95118619 3.17184819 1.74871737 3.2537219 1.56022746 3.41746932 1.38586678 3.58121674 1.2115061 3.84700306 1.12447607 4.2149799 1.12447607 4.34446166 1.12447607 4.46560443 1.13950716 4.57886306 1.16956935 4.69197008 1.19963154 4.77293408 1.22879186 4.82145183 1.25674969L4.89422846 1.29868644 4.75473992 1.6776203C4.62525816 1.57751322 4.45544602 1.52730937 4.2453035 1.52730937 4.03500936 1.52730937 3.87838798 1.56639021 3.77528776 1.64455189 3.67218753 1.72271358 3.62063741 1.82191879 3.62063741 1.94201722 3.62063741 2.07429084 3.68522667 2.17860663 3.81470843 2.25466396 3.94403857 2.3308716 4.08959183 2.39505437 4.25136822 2.44706195 4.41299299 2.49921984 4.57370805 2.55723986 4.7335134 2.62142263 4.89316714 2.6856054 5.028562 2.78586279 5.13984959 2.92204449 5.25113719 3.05822619 5.30662938 3.23859931 5.30662938 3.46316384 5.30662938 3.68772837 5.21565859 3.88313258 5.03371701 4.04937647 4.85177543 4.21562036 4.58583749 4.29889261 4.23620642 4.29889261 3.88642374 4.29889261 3.61245004 4.21667254 3.41443696 4.05238269 3.21627226 3.88809284 3.11317203 3.68562402 3.10513627 3.44512653z" transform="translate(1.327 1.706)"/>
    </g>
    <path fill="url(#photoshop-a)" d="M5,0 L63,0 C65.7614237,6.85064563e-15 68,2.23857625 68,5 L68,61.8395904 C68,64.6010142 65.7614237,66.8395904 63,66.8395904 L5,66.8395904 C2.23857625,66.8395904 7.69608782e-15,64.6010142 0,61.8395904 L0,5 C-3.38176876e-16,2.23857625 2.23857625,5.07265313e-16 5,0 Z"/>
    <path fill="url(#photoshop-b)" d="M10.4539249,5.33788396 L57.662116,5.33788396 C60.4235398,5.33788396 62.662116,7.57646021 62.662116,10.337884 L62.662116,56.6177474 C62.662116,59.3791712 60.4235398,61.6177474 57.662116,61.6177474 L10.4539249,61.6177474 C7.69250117,61.6177474 5.45392491,59.3791712 5.45392491,56.6177474 L5.45392491,10.337884 C5.45392491,7.57646021 7.69250117,5.33788396 10.4539249,5.33788396 Z"/>
    <g transform="translate(16.478 18.799)">
      <path fill="url(#photoshop-c)" fill-rule="nonzero" d="M0.0198197669,0.119345198 C0.0198197669,0.119345198 4.31758477,0.00654923833 7.85540123,0.00654923833 C11.4303768,0.00654923833 13.9793991,0.845624596 15.6907561,2.32010966 C17.3264354,3.71344492 18.4294257,6.08871536 18.4294257,8.79265378 C18.4294257,11.4965922 17.5924401,13.709111 16.0707304,15.2647458 C14.0929156,17.2722426 11.7881462,18.460556 7.85540123,18.62489 C6.76895125,18.6703248 5.76339025,18.6811749 5.76339025,18.6811749 L5.76339025,27.4706702 L0.0195931871,27.4706702 L0.0198197669,0.119345198 Z M5.76316367,13.8115089 C6.38716435,13.8720887 6.77824102,13.842929 7.70313963,13.8318528 C10.7841713,13.7950077 12.6854021,11.9258498 12.6854021,9.09916946 C12.6854021,6.55979107 11.1176967,4.47476114 8.15992443,4.36671211 C6.98102991,4.32376374 5.76316367,4.36671211 5.76316367,4.36671211 L5.76316367,13.8115089 Z"/>
      <path fill="url(#photoshop-d)" d="M20.6213584,21.347364 C21.7789544,22.056012 24.5106001,23.1172886 26.3726326,23.1172886 C28.2749963,23.1172886 29.0605484,22.4484244 29.0605484,21.4056834 C29.0605484,20.3615861 28.440173,19.2648206 26.0821573,18.4718582 C21.904253,17.0525279 20.2907785,15.3535811 20.3326958,12.9755981 C20.3326958,9.13488441 23.5587385,6.25508375 28.5638855,6.25508375 C30.9216745,6.25508375 32.8052321,7.02408546 34.0450766,7.64977528 L34.0450766,12.2592647 C33.134226,11.7578991 30.5079399,10.6385291 28.7709794,10.6385291 C27.2395268,10.6385291 26.3714997,11.2646711 26.3714997,12.307186 C26.3714997,13.267421 27.1579581,13.7683345 29.6396862,14.6453852 C33.4858778,15.9808532 35.0993523,17.942011 35.1401366,20.9472661 C35.1401366,24.7459357 32.2050223,27.7665618 26.3714997,27.5832401 C24.3694409,27.5203998 22.1514516,26.7308281 20.6209052,25.8971778 L20.6213584,21.347364 Z"/>
    </g>
  </g>
</svg>
