<svg xmlns="http://www.w3.org/2000/svg" width="101" height="78" viewBox="0 0 101 78">
  <g fill="none" fill-rule="evenodd">
    <path fill="#9595EF" fill-opacity=".078" stroke="#000" stroke-dasharray="8 10" stroke-linecap="round" d="M7,7 L100,7 L100,77 L7,77 L7,7 Z"/>
    <rect width="92" height="70" fill="#6082BB" fill-rule="nonzero"/>
    <path fill="#232531" fill-rule="nonzero" d="M17,51 L21.5716825,29 L32.1428021,29 C36.7141587,29.2716929 39,31.4443068 39,35.247078 C39,41.7655392 33.5715344,45.5680007 28.7140402,45.2963078 L23.5717121,45.2963078 L22.4287915,51 L17,51 Z M37,45 L41.6127569,23 L47.0907141,23 L45.9374427,28.7034627 L51.1266709,28.7034627 C55.7397567,28.9751595 57.4694994,31.1478039 56.8930281,33.8641516 L54.8748853,45 L49.1088569,45 L51.1269997,34.9506288 C51.415071,33.5924549 51.415071,32.7776745 49.397257,32.7776745 L45.0725713,32.7776745 L42.4779572,45 L37,45 Z M54,51 L58.5712889,29 L69.1425778,29 C73.7141926,29.2716929 76,31.4443068 76,35.247078 C76,41.7655392 70.5712889,45.5680007 65.7141926,45.2963078 L60.5712889,45.2963078 L59.4283852,51 L54,51 Z"/>
    <path fill="#6082BB" fill-rule="nonzero" d="M64.3334347 33L67.8002433 33C69.6668694 33 71 33.7999392 71 35.3998175 70.7335564 39.9333131 68.6001825 40.7332522 66.200365 41L63.0003042 41 64.3334347 33zM26.3334854 33L29.8001217 33C31.6668188 33 33 33.7999392 33 35.3998175 32.7335463 39.9333131 30.6000913 40.7332522 28.2001825 41L25.0003042 41 26.3334854 33z"/>
  </g>
</svg>
