<svg width="102" height="80" viewBox="0 0 102 80" fill="none" xmlns="http://www.w3.org/2000/svg">
<path d="M53.4313 31.2426L53.4313 31.245C53.4194 32.1568 53.5643 33.0773 53.8461 33.9716L53.3692 34.1218C54.0875 36.4019 55.642 38.4915 57.6874 39.8683L57.9666 39.4535C58.7357 39.9711 59.5752 40.3814 60.4644 40.6553C60.7755 40.7509 61.0953 40.8294 61.4223 40.8942L61.3251 41.3847C62.1664 41.5514 63.037 41.6287 63.9039 41.6786L63.9326 41.1794C64.2761 41.1992 64.6197 41.2146 64.9638 41.2298L64.9656 41.2299C65.1534 41.2389 65.326 41.2488 65.4785 41.2637L65.4299 41.7614C66.0452 41.8214 66.2162 41.9626 66.0842 42.4999L66.5697 42.6193C66.5314 42.7753 66.4745 42.9486 66.4063 43.1368L66.4063 43.1368C65.9277 44.4582 65.4459 45.7787 64.9632 47.0986L64.4936 46.9269C64.2673 47.5456 64.0408 48.1643 63.8143 48.7829C62.8331 51.4629 61.8518 54.1431 60.8889 56.8284L61.3595 56.9972C60.8855 58.319 60.4161 59.6418 59.9533 60.9661L53.4313 31.2426ZM53.4313 31.2426C53.4341 30.9145 53.4533 30.5875 53.4889 30.2627L52.9918 30.2083C53.0856 29.3521 53.287 28.511 53.5912 27.7051L54.0589 27.8817C54.1743 27.5761 54.3052 27.2758 54.4514 26.982C54.5975 26.6882 54.7581 26.4027 54.9323 26.1264L54.5093 25.8597C54.9687 25.1311 55.5181 24.4632 56.1446 23.872L56.4877 24.2356C56.7253 24.0114 56.9745 23.7988 57.2346 23.5987C57.4947 23.3987 57.7641 23.2123 58.0417 23.0402L57.7783 22.6152C58.5104 22.1614 59.2969 21.8017 60.119 21.5446L60.2682 22.0218C60.58 21.9243 60.8972 21.8424 61.2186 21.7764C61.54 21.7105 61.8638 21.661 62.1888 21.6279L62.1381 21.1305C62.9951 21.0432 63.8597 21.0643 64.7113 21.1933L64.6364 21.6877C64.9594 21.7366 65.2804 21.8019 65.5983 21.8834L65.6003 21.8839C66.0704 22.0025 66.5308 22.1285 66.9786 22.2715L67.1308 21.7953C68.3046 22.1703 69.4132 22.6648 70.3751 23.4386L70.0617 23.8282C70.4062 24.1054 70.7302 24.4207 71.0298 24.783L71.0303 24.7836C71.1468 24.924 71.2731 25.0502 71.4089 25.1523L71.7093 24.7526C72.0357 24.9979 72.3505 24.9807 72.5894 24.618L73.007 24.893C73.0984 24.7542 73.1733 24.594 73.2351 24.4179C73.3371 24.1535 73.4361 23.888 73.5322 23.6214L73.0618 23.4519C73.3011 22.7878 73.5216 22.1171 73.723 21.4406L74.2022 21.5833C74.2838 21.3091 74.3623 21.034 74.4377 20.7579L74.4402 20.749L74.4423 20.7399C74.5476 20.2893 74.5832 19.8401 74.554 19.4025L74.0551 19.4358C73.9877 18.4268 73.5321 17.4986 72.7843 16.8L73.1256 16.4346C72.8075 16.1375 72.4436 15.879 72.0406 15.6674L72.0406 15.6674L72.0352 15.6646C71.9088 15.6002 71.7816 15.5378 71.6535 15.4772L71.4399 15.9293C71.1307 15.7832 70.8162 15.6487 70.4971 15.5261L70.6764 15.0594C70.5452 15.0089 70.4131 14.9604 70.2804 14.9139C70.2794 14.9135 70.2783 14.9132 70.2773 14.9128L66.0219 13.3594L65.8505 13.8291C62.2993 12.533 58.7478 11.2374 55.196 9.94244L55.3673 9.47269C52.5259 8.43671 49.6843 7.40108 46.8426 6.36579L46.6715 6.83559C43.1195 5.54154 39.5673 4.24804 36.0147 2.95508L36.1857 2.48523L31.9229 0.93404L53.4313 31.2426ZM58.6815 62.3398C57.7706 63.574 56.4292 64.2332 54.9327 64.1692L54.9114 64.6687C54.3047 64.6428 53.6819 64.5097 53.0583 64.2664L53.0573 64.2661C51.716 63.7396 50.37 63.2248 49.0205 62.7181L49.1963 62.25C46.1166 61.0935 43.0213 59.9798 39.9259 58.866C39.6253 58.7579 39.3247 58.6497 39.0242 58.5415L38.8548 59.012C37.4965 58.523 36.1378 58.0331 34.7805 57.5386L58.6815 62.3398ZM58.6815 62.3398L59.0838 62.6367C59.4415 62.1521 59.7349 61.592 59.9533 60.9663L58.6815 62.3398ZM30.3846 55.4105C29.5486 55.1073 28.7126 54.8044 27.8768 54.5015C24.9043 53.4243 21.9337 52.3478 18.9673 51.2659L18.7959 51.7356C17.2736 51.1804 15.7523 50.6237 14.2323 50.0648C13.5742 49.8231 12.995 49.5437 12.4996 49.2198L12.7732 48.8013C11.3579 47.8761 10.7727 46.6142 10.983 44.9188L10.4869 44.8572C10.5596 44.2712 10.7185 43.649 10.9563 42.9895C11.3167 41.9888 11.6774 40.9883 12.0384 39.9878L12.5087 40.1576C13.4113 37.6566 14.3161 35.1565 15.2232 32.6571L14.7532 32.4866C15.4789 30.4869 16.2061 28.4877 16.9347 26.4891L17.4044 26.6603C18.3151 24.1623 19.228 21.6651 20.1431 19.1687L19.6736 18.9966C20.0396 17.9982 20.406 16.9999 20.7727 16.0018C21.0925 15.1232 21.4114 14.2436 21.7302 13.3636L22.2003 13.5339C22.3012 13.2554 22.402 12.977 22.5029 12.6985C23.199 10.7762 23.8953 8.85344 24.5994 6.93643L24.13 6.76405C24.4531 5.88437 24.7778 5.00572 25.105 4.12878C25.1051 4.12855 25.1052 4.12833 25.1053 4.1281L25.5737 4.30287C25.7919 3.71412 26.0549 3.20251 26.3595 2.76932C27.2628 1.48458 28.5308 0.88949 30.0729 1.01687L30.1141 0.518562C30.6937 0.566435 31.2982 0.70646 31.9226 0.933953L30.3846 55.4105ZM30.3846 55.4105L30.2142 55.8805C31.7361 56.4323 33.2582 56.9847 34.7803 57.5385L30.3846 55.4105Z" fill="#F7F7FE" stroke="black" stroke-dasharray="8 10"/>
<path d="M47.7933 34.394C47.8003 33.4252 48.095 32.4803 48.64 31.6793C49.185 30.8782 49.9558 30.2573 50.8545 29.8952C51.7531 29.5331 52.7391 29.4463 53.6872 29.6457C54.6353 29.8451 55.5028 30.3217 56.1795 31.0151C56.8562 31.7085 57.3115 32.5874 57.4877 33.5401C57.6639 34.4928 57.553 35.4763 57.1691 36.3659C56.7852 37.2554 56.1456 38.0108 55.3315 38.5362C54.5175 39.0615 53.5656 39.333 52.5969 39.3163C51.3073 39.3003 50.0768 38.7728 49.176 37.8498C48.2752 36.9267 47.7778 35.6837 47.7933 34.394ZM55.1451 34.394C55.1307 33.7509 54.8661 33.1387 54.4076 32.6875C53.949 32.2363 53.3326 31.9817 52.6893 31.9777C52.3614 31.9728 52.0359 32.0338 51.7321 32.157C51.4282 32.2802 51.1521 32.4631 50.9203 32.6949C50.6884 32.9267 50.5054 33.2027 50.3821 33.5065C50.2588 33.8103 50.1977 34.1358 50.2025 34.4637C50.2072 34.7915 50.2777 35.1151 50.4098 35.4152C50.5419 35.7153 50.7328 35.9858 50.9714 36.2108C51.2099 36.4358 51.4912 36.6106 51.7985 36.7249C52.1058 36.8392 52.4329 36.8907 52.7605 36.8763C53.4063 36.8563 54.0184 36.5831 54.4645 36.1157C54.9107 35.6483 55.1551 35.0243 55.1451 34.3782V34.394ZM99.3378 75.0836C99.9796 75.1077 100.588 75.3763 101.038 75.8343C101.488 76.2924 101.746 76.9052 101.759 77.5474C101.758 78.035 101.612 78.5112 101.34 78.9156C101.067 79.3199 100.681 79.6342 100.229 79.8183C99.7779 80.0024 99.2818 80.0482 98.8043 79.9497C98.3267 79.8512 97.8893 79.6129 97.5475 79.2652C97.2057 78.9174 96.9751 78.4759 96.8848 77.9968C96.7946 77.5176 96.8489 77.0224 97.0408 76.5742C97.2327 76.1259 97.5536 75.7449 97.9626 75.4795C98.3716 75.2141 98.8503 75.0763 99.3378 75.0836ZM79.8728 49.0924L82.7217 51.7303L80.8752 53.7034L78.1186 51.1394L79.8728 49.0924ZM67.2161 39.8281L70.5082 41.8962L69.0205 44.1674L65.855 42.1705L67.2161 39.8281ZM83.5474 56.4416L85.5126 54.5607C86.3884 55.5552 87.2088 56.4864 88.1109 57.5152L86.0323 59.2351L83.5474 56.4416ZM90.609 60.5751L92.9304 63.6984L90.7435 65.2574C89.9838 64.2524 89.2663 63.3001 88.4591 62.2265L90.609 60.5751ZM73.7476 44.1542L76.8788 46.5521L75.143 48.6624L72.1965 46.4017L73.7476 44.1542ZM97.1299 70.3274L94.8244 71.7097L92.8433 68.4888L95.1304 66.9826L97.1299 70.3274ZM62.4679 40.2633L59.0941 38.5566C59.4924 37.7521 59.8511 37.0319 60.2917 36.1456L63.7737 37.8629L62.4679 40.2633Z" fill="black"/>
<path d="M41.9899 34.2218C41.9345 38.4662 45.0763 42.7924 49.3761 44.1166C50.8427 44.5677 52.4492 44.6442 54.0003 44.7128C55.2111 44.7708 55.3931 44.8499 54.9948 45.9499C52.8423 51.8931 50.6238 57.8205 48.5398 63.7848C47.5612 66.5888 45.0103 67.8418 42.2986 66.784C36.2499 64.4099 30.1141 62.2759 24.01 60.0521C17.1515 57.5567 10.293 55.0902 3.46347 52.579C0.253146 51.3998 -0.688583 49.3977 0.485281 46.1425C3.72814 37.1367 7.00001 28.1415 10.3009 19.1568C11.7412 15.2 13.163 11.2247 14.6323 7.28627C15.7191 4.35293 17.9218 3.3347 20.8103 4.38722C33.6006 9.04047 46.3873 13.7008 59.1706 18.3681C59.7516 18.5716 60.3182 18.814 60.8667 19.0935C62.555 19.9798 63.4466 21.7578 63.014 23.6096C62.6791 24.8354 62.282 26.0434 61.8243 27.2288C61.5209 28.1019 60.9881 28.0676 60.4737 27.4477C58.9859 25.6487 56.9363 24.9259 54.7811 24.3825C53.2747 23.996 51.7002 23.9576 50.1767 24.27C48.6533 24.5825 47.221 25.2376 45.9883 26.1858C44.7557 27.134 43.7551 28.3504 43.0623 29.7427C42.3695 31.135 42.0028 32.6667 41.9899 34.2218Z" fill="url(#paint0_linear)"/>
<defs>
<linearGradient id="paint0_linear" x1="39.6871" y1="66.2934" x2="23.5326" y2="5.28674" gradientUnits="userSpaceOnUse">
<stop stop-color="#D1D8F4"/>
<stop offset="0.08" stop-color="#C5CDF6"/>
<stop offset="0.32" stop-color="#A7B1FA"/>
<stop offset="0.56" stop-color="#919DFD"/>
<stop offset="0.79" stop-color="#8491FE"/>
<stop offset="1" stop-color="#808DFF"/>
</linearGradient>
</defs>
</svg>
