<svg width="175" height="126" viewBox="0 0 175 126" fill="none" xmlns="http://www.w3.org/2000/svg">
<mask id="mask0" mask-type="alpha" maskUnits="userSpaceOnUse" x="20" y="17" width="155" height="109">
<path fill-rule="evenodd" clip-rule="evenodd" d="M20.3333 17H174.333V126H20.3333V17Z" fill="white"/>
</mask>
<g mask="url(#mask0)">
<path opacity="0.585045" fill-rule="evenodd" clip-rule="evenodd" d="M165.304 89.2069C152.056 108.4 145.252 96.5834 87.1544 111.129C29.0566 125.674 14.2509 84.0987 29.0566 61.4822C36.4596 50.1734 56.3995 27.8856 76 24C95.6006 20.1147 122.151 27.3418 132.826 36.1139C154.736 54.117 178.551 70.0139 165.304 89.2069Z" fill="#9595EF"/>
</g>
<path fill-rule="evenodd" clip-rule="evenodd" d="M152.364 36.3125L150.9 42.0325L105.486 63.1755L106.951 57.4565L152.364 36.3125Z" fill="#7272E7"/>
<path fill-rule="evenodd" clip-rule="evenodd" d="M152.364 36.3125L150.9 42.0325L105.486 63.1755L106.951 57.4565L152.364 36.3125Z" stroke="black" stroke-width="0.75" stroke-linecap="round" stroke-linejoin="round"/>
<path fill-rule="evenodd" clip-rule="evenodd" d="M106.951 57.456L105.486 63.176L101.448 20.971L102.913 15.251L106.951 57.456Z" fill="#7272E7"/>
<path fill-rule="evenodd" clip-rule="evenodd" d="M106.951 57.456L105.486 63.176L101.448 20.971L102.913 15.251L106.951 57.456Z" stroke="black" stroke-width="0.75" stroke-linecap="round" stroke-linejoin="round"/>
<path fill-rule="evenodd" clip-rule="evenodd" d="M106.951 57.456L105.486 63.176L50.0682 39.411L51.5322 33.691L106.951 57.456Z" fill="white"/>
<path fill-rule="evenodd" clip-rule="evenodd" d="M106.951 57.456L105.486 63.176L50.0682 39.411L51.5322 33.691L106.951 57.456Z" stroke="black" stroke-width="0.75" stroke-linejoin="round"/>
<path fill-rule="evenodd" clip-rule="evenodd" d="M102.913 15.251C121.057 16.893 139.531 24.281 152.364 36.313L106.951 57.456L102.913 15.251Z" fill="white"/>
<path fill-rule="evenodd" clip-rule="evenodd" d="M102.913 15.251C121.057 16.893 139.531 24.281 152.364 36.313L106.951 57.456L102.913 15.251Z" stroke="black" stroke-width="0.75" stroke-linejoin="round"/>
<path fill-rule="evenodd" clip-rule="evenodd" d="M102.941 98.5614L101.477 104.281L105.487 63.1754L106.952 57.4564L102.941 98.5614Z" fill="white"/>
<path fill-rule="evenodd" clip-rule="evenodd" d="M102.941 98.5614L101.477 104.281L105.487 63.1754L106.952 57.4564L102.941 98.5614Z" stroke="black" stroke-width="0.75" stroke-linejoin="round"/>
<path fill-rule="evenodd" clip-rule="evenodd" d="M146.335 94.3788C133.861 100.187 118.205 101.358 102.94 98.5618C87.507 95.7348 72.472 88.8538 61.535 78.5998C49.25 67.0818 44.768 53.7748 47.712 42.2728L46.247 47.9918C43.304 59.4948 47.785 72.8018 60.071 84.3198C71.008 94.5728 86.043 101.455 101.477 104.281C116.741 107.077 132.397 105.906 144.871 100.1C155.782 95.0198 162.457 87.2268 164.725 78.3658L166.189 72.6468C163.921 81.5068 157.246 89.2988 146.335 94.3788Z" fill="#7272E7"/>
<path fill-rule="evenodd" clip-rule="evenodd" d="M146.335 94.3788C133.861 100.187 118.205 101.358 102.94 98.5618C87.507 95.7348 72.472 88.8538 61.535 78.5998C49.25 67.0818 44.768 53.7748 47.712 42.2728L46.247 47.9918C43.304 59.4948 47.785 72.8018 60.071 84.3198C71.008 94.5728 86.043 101.455 101.477 104.281C116.741 107.077 132.397 105.906 144.871 100.1C155.782 95.0198 162.457 87.2268 164.725 78.3658L166.189 72.6468C163.921 81.5068 157.246 89.2988 146.335 94.3788Z" stroke="black" stroke-width="0.75" stroke-linecap="round" stroke-linejoin="round"/>
<path fill-rule="evenodd" clip-rule="evenodd" d="M110.021 42.9276L108.556 48.6476L71.6595 10.6476L73.1235 4.92664L110.021 42.9276Z" fill="#7272E7"/>
<path fill-rule="evenodd" clip-rule="evenodd" d="M110.021 42.9276L108.556 48.6476L71.6595 10.6476L73.1235 4.92664L110.021 42.9276Z" stroke="black" stroke-width="0.75" stroke-linecap="round" stroke-linejoin="round"/>
<path fill-rule="evenodd" clip-rule="evenodd" d="M73.1231 4.92668C82.8951 0.97568 94.3711 -0.32632 105.982 0.72268L110.02 42.9277L73.1231 4.92668Z" fill="white"/>
<path fill-rule="evenodd" clip-rule="evenodd" d="M73.1231 4.92668C82.8951 0.97568 94.3711 -0.32632 105.982 0.72268L110.02 42.9277L73.1231 4.92668Z" stroke="black" stroke-width="0.75" stroke-linejoin="round"/>
<path fill-rule="evenodd" clip-rule="evenodd" d="M157.907 42.2723L106.951 57.4563L70.0523 19.4553C69.2113 19.7943 68.3803 20.1533 67.5663 20.5323C60.3513 23.8913 54.9953 28.4363 51.5323 33.6913C42.9583 46.7023 46.0413 64.0733 61.5353 78.5993C72.4713 88.8533 87.5073 95.7353 102.94 98.5613C118.205 101.357 133.861 100.186 146.335 94.3783C157.768 89.0553 164.551 80.7533 166.484 71.3653C168.376 62.1753 165.627 51.9453 158.05 42.4423" fill="white"/>
<path d="M157.907 42.2723L106.951 57.4563L70.0523 19.4553C69.2113 19.7943 68.3803 20.1533 67.5663 20.5323C60.3513 23.8913 54.9953 28.4363 51.5323 33.6913C42.9583 46.7023 46.0413 64.0733 61.5353 78.5993C72.4713 88.8533 87.5073 95.7353 102.94 98.5613C118.205 101.357 133.861 100.186 146.335 94.3783C157.768 89.0553 164.551 80.7533 166.484 71.3653C168.376 62.1753 165.627 51.9453 158.05 42.4423" stroke="black" stroke-width="0.75" stroke-linecap="round" stroke-linejoin="round"/>
<path fill-rule="evenodd" clip-rule="evenodd" d="M31.6338 65.3617C34.4016 56.6867 46.3796 48.6002 61.7812 45.8845C76.9282 43.2137 90.7426 46.5566 96.4917 53.5214L97.9219 52.171L99.1432 59.0974C101.013 69.7024 87.3179 80.9833 68.5535 84.292C49.7891 87.6007 33.0614 81.6841 31.1915 71.0791L29.9702 64.1528L31.6338 65.3617Z" fill="#9595EF"/>
<path fill-rule="evenodd" clip-rule="evenodd" d="M31.6338 65.3617C34.4016 56.6867 46.3796 48.6002 61.7812 45.8845C76.9282 43.2137 90.7426 46.5566 96.4917 53.5214L97.9219 52.171L99.1432 59.0974C101.013 69.7024 87.3179 80.9833 68.5535 84.292C49.7891 87.6007 33.0614 81.6841 31.1915 71.0791L29.9702 64.1528L31.6338 65.3617Z" stroke="black"/>
<path fill-rule="evenodd" clip-rule="evenodd" d="M97.9277 52.2037C96.0576 41.5981 79.3298 35.6822 60.5651 38.9909C41.8004 42.2996 28.1059 53.5798 29.976 64.1854C31.8462 74.7922 48.5727 80.7072 67.3374 77.3984C86.1021 74.0897 99.7979 62.8104 97.9277 52.2037Z" fill="white"/>
<path fill-rule="evenodd" clip-rule="evenodd" d="M97.9277 52.2037C96.0576 41.5981 79.3298 35.6822 60.5651 38.9909C41.8004 42.2996 28.1059 53.5798 29.976 64.1854C31.8462 74.7922 48.5727 80.7072 67.3374 77.3984C86.1021 74.0897 99.7979 62.8104 97.9277 52.2037Z" stroke="black"/>
<path fill-rule="evenodd" clip-rule="evenodd" d="M93.0036 53.0719C91.6131 45.1857 77.6984 41.0469 61.9263 43.828C46.1532 46.6092 34.4942 55.2573 35.8848 63.1435C37.2753 71.0297 51.189 75.1686 66.9621 72.3874C82.7342 69.6064 94.3942 60.9581 93.0036 53.0719Z" fill="white"/>
<path fill-rule="evenodd" clip-rule="evenodd" d="M93.0036 53.0719C91.6131 45.1857 77.6984 41.0469 61.9263 43.828C46.1532 46.6092 34.4942 55.2573 35.8848 63.1435C37.2753 71.0297 51.189 75.1686 66.9621 72.3874C82.7342 69.6064 94.3942 60.9581 93.0036 53.0719Z" stroke="black"/>
<path fill-rule="evenodd" clip-rule="evenodd" d="M13.9151 99.9281L9.62461 98.4953L40.5637 75.0114L45.2281 76.7291L45.4177 76.8962L46.1875 81.5599L14.912 104.92L13.9151 99.9281Z" fill="white"/>
<path fill-rule="evenodd" clip-rule="evenodd" d="M40.0676 75.0988L8.84126 98.6676C8.60715 98.8443 8.66791 99.2146 8.94582 99.3056L13.2473 100.73L14.1851 105.424L14.2602 105.799C14.2886 105.941 14.4219 106.022 14.5494 105.999C14.5857 105.993 14.6217 105.979 14.6536 105.953L46.3361 82.4258L45.4874 77.2909L45.0688 76.9229L40.0676 75.0988ZM40.2574 76.3678L44.4576 77.8994L45.1206 81.9229L15.0855 104.231L14.3422 100.51L14.2129 99.8607L13.5908 99.656L10.6787 98.6925L40.2574 76.3678Z" fill="black"/>
<path fill-rule="evenodd" clip-rule="evenodd" d="M14.8063 99.9857L46.1879 76.8116L14.8063 99.9857Z" fill="white"/>
<path d="M14.8063 99.9857L46.1879 76.8116" stroke="black"/>
<path fill-rule="evenodd" clip-rule="evenodd" d="M9.71366 98.9999L10.5343 103.654C10.5832 103.959 10.8438 104.194 11.1802 104.235L15.2545 104.853C15.3743 104.868 15.7453 104.689 15.7263 104.581L14.9407 99.8505L10.0937 98.6883C9.88328 98.6402 9.68194 98.8058 9.71366 98.9999Z" fill="#9595EF"/>
<path fill-rule="evenodd" clip-rule="evenodd" d="M9.71366 98.9999L10.5343 103.654C10.5832 103.959 10.8438 104.194 11.1802 104.235L15.2545 104.853C15.3743 104.868 15.7453 104.689 15.7263 104.581L14.9407 99.8505L10.0937 98.6883C9.88328 98.6402 9.68194 98.8058 9.71366 98.9999Z" stroke="black"/>
</svg>
