<svg xmlns="http://www.w3.org/2000/svg" width="92" height="89" viewBox="0 0 92 89">
  <g fill="none" fill-rule="evenodd">
    <path fill="#F7F7FE" fill-rule="nonzero" stroke="#000" stroke-dasharray="8 10" stroke-linecap="round" stroke-linejoin="round" d="M48.9438202,88 C72.1521906,88 90.9662921,69.1858985 90.9662921,45.9775281 C90.9662921,22.7691577 72.1521906,3.95505618 48.9438202,3.95505618 C25.7354498,3.95505618 6.92134831,22.7691577 6.92134831,45.9775281 C6.92134831,69.1858985 25.7354498,88 48.9438202,88 Z"/>
    <circle cx="42.022" cy="42.022" r="42.022" fill="#BED6FF" fill-rule="nonzero"/>
    <g transform="translate(13.27 15.482)">
      <path fill="#000" d="M55.1463982,33.5631627 C54.8140616,32.5738549 53.943491,31.8848081 52.81766,31.7194624 C52.2867873,31.6415775 51.6788386,31.6747743 50.9593892,31.8205424 C49.7053866,32.0748386 48.7750605,32.1716627 48.0960978,32.1903891 C50.6588789,27.9375784 52.7427489,23.0878633 53.9424085,18.522662 C55.882302,11.1408382 54.8456714,7.77795764 53.6343205,6.25686227 C50.4285166,2.23068373 45.7513381,0.0677831613 40.1087594,0.00160231942 C37.0986769,-0.0345737035 34.4562215,0.549562666 33.077728,0.969630132 C31.7942806,0.747041191 30.4142715,0.622765912 28.9662796,0.599783498 C26.2519442,0.557223471 23.8537076,1.13880624 21.8044786,2.33410459 C20.6699873,1.95702276 18.849172,1.42544802 16.746466,1.08624461 C11.8010366,0.288244101 7.81516169,0.910046094 4.89969227,2.93441377 C1.36934589,5.38544572 -0.267222751,9.64400202 0.035452598,15.5917658 C0.13158125,17.4801542 1.20631689,23.2257578 2.89852757,28.674718 C3.8710724,31.8067104 4.908136,34.4075537 5.98092309,36.4057469 C7.50231056,39.2391807 9.13021896,40.9077466 10.9577459,41.5069918 C11.9820356,41.8423648 13.843121,42.0772961 15.8005514,40.4749111 C16.0486673,40.7702777 16.3797049,41.0637291 16.8189955,41.3363261 C17.3769314,41.6821263 18.0591417,41.9647249 18.740486,42.1321986 C21.1958803,42.7354869 23.4958232,42.5846116 25.4580168,41.7389439 C25.4701412,42.0819777 25.4794509,42.4096899 25.4872451,42.6927141 C25.5002355,43.151724 25.5132259,43.6017963 25.5303298,44.022715 C25.6465935,46.868704 25.843614,49.0816126 26.4273141,50.6299463 C26.4593569,50.7150664 26.5024416,50.8448745 26.5479079,50.9825562 C26.8391084,51.8588671 27.3260304,53.3259112 28.5648775,54.4748192 C29.8476754,55.6650103 31.3993737,56.0299625 32.8205189,56.0299625 C33.5332566,56.0299625 34.2133018,55.9380329 34.8097758,55.8124808 C36.9358644,55.3645365 39.3505555,54.6822993 41.0973257,52.2376513 C42.7488333,49.9266419 43.5516374,46.4458701 43.6969129,40.9613722 C43.7157489,40.8062409 43.7330694,40.658132 43.7497404,40.5170455 L43.7843813,40.2272118 L44.1734426,40.2608342 L44.2736848,40.267431 C46.4391775,40.3644678 49.0870456,39.9131188 50.7132219,39.1706591 C51.9981849,38.5846075 56.115912,36.4478814 55.1463982,33.5631627"/>
      <path fill="#336791" d="M51.6448196,34.1509493 C45.2525473,35.4633594 44.8129979,33.3093811 44.8129979,33.3093811 C51.5620683,23.3421244 54.3835666,10.6901496 51.9489577,7.59363213 C45.3064968,-0.853068672 33.8083593,3.14170632 33.6164192,3.24524446 L33.5547319,3.25636839 C32.291753,2.99538384 30.878532,2.84007664 29.2899212,2.81419211 C26.3977082,2.76712932 24.2036155,3.56890808 22.5387015,4.82548452 C22.5387015,4.82548452 2.02711612,-3.58463566 2.98122832,15.4026321 C3.18413031,19.4419029 8.79832512,45.9662761 15.4945206,37.9546922 C17.9420258,35.0250337 20.3069946,32.5480336 20.3069946,32.5480336 C21.4814188,33.3245696 22.8875468,33.7207527 24.3615953,33.5784947 L24.4761576,33.4818021 C24.4404778,33.8454691 24.4568131,34.201221 24.5219395,34.6224329 C22.7968427,36.5406694 23.3038827,36.8773822 19.8554087,37.5839658 C16.3658814,38.299748 18.4157503,39.573866 19.7541727,39.9071561 C21.3767437,40.3108265 25.1304305,40.8828533 27.6667053,37.3490797 L27.5656842,37.7523222 C28.241451,38.2911911 28.7160353,41.2570025 28.6365081,43.9457851 C28.5569808,46.6343538 28.503891,48.4802847 29.0362938,49.9221174 C29.5691264,51.3639501 30.0998097,54.6080736 34.6332935,53.6413611 C38.4211555,52.8333786 40.3841892,50.7397263 40.6573761,47.2472397 C40.8510357,44.7644637 41.2897253,45.1315534 41.3172374,42.9116873 L41.6690918,41.8609036 C42.0746809,38.4952725 41.7335734,37.4094056 44.0671612,37.9144749 L44.6345989,37.9641048 C46.3519579,38.0417584 48.6002151,37.6890014 49.9197228,37.0786826 C52.7607805,35.7664865 54.4458987,33.5752859 51.6443897,34.1509493 L51.6448196,34.1509493"/>
      <path fill="#FFF" fill-rule="nonzero" d="M23.6885569,17.3666415 C23.11297,17.2897844 22.5917203,17.360872 22.3279812,17.5524994 C22.1797891,17.6602641 22.1338281,17.785131 22.1213713,17.8710542 C22.0882966,18.0987405 22.2545295,18.3505348 22.3567606,18.4803469 C22.6458426,18.8479419 23.0680828,19.1005604 23.4860276,19.1561941 C23.5465931,19.1644362 23.6069438,19.1681451 23.666865,19.1681451 C24.3637975,19.1681451 24.9975874,18.6474543 25.0534279,18.2631692 C25.1232285,17.7818342 24.3949394,17.4610128 23.6885569,17.3668475 M42.7568039,17.3818892 C42.7018225,17.0046099 42.0020979,16.8970513 41.3380253,16.9856532 C40.6748118,17.0742551 40.0317868,17.3614902 40.0854796,17.7395937 C40.1284339,18.0336284 40.6818993,18.5355686 41.3369515,18.5355686 C41.3923624,18.5355686 41.448203,18.5320657 41.504473,18.5244419 C41.9417472,18.4663355 42.2626154,18.1999116 42.4151029,18.0464036 C42.6470559,17.8123297 42.7815026,17.5514692 42.7568039,17.3818892"/>
      <path fill="#FFF" fill-rule="nonzero" d="M53.761296,33.9582449 C53.5145993,33.2285946 52.7205579,32.9938894 51.4013615,33.2603001 C47.4844532,34.0510205 46.0817193,33.503304 45.6211753,33.1715674 C48.6657257,28.6349262 51.1703281,23.1509525 52.5215037,18.0344639 C53.1615228,15.610808 53.5150344,13.3599359 53.5439679,11.5252774 C53.5759471,9.51166404 53.2252637,8.03193594 52.5021421,7.1280123 C49.5865962,3.48401692 45.3074745,1.52934588 40.1277141,1.4757233 C36.5667104,1.43657029 33.558055,2.32793944 32.9748153,2.57860376 C31.7465529,2.27984934 30.4075598,2.09642604 28.9497868,2.07301936 C26.2765867,2.03067453 23.9658175,2.65669698 22.0527216,3.93278692 C21.2216975,3.63020231 19.0740874,2.90906361 16.4476596,2.49519085 C11.9070481,1.780223 8.29883703,2.32198137 5.72396748,4.10620918 C2.65157117,6.23536642 1.23317395,10.0412935 1.50793403,15.418022 C1.6003909,17.2269332 2.65418172,22.7917663 4.31710017,28.1210431 C6.50604386,35.1353884 8.88555747,39.1062262 11.3890721,39.9231195 C11.682106,40.0186614 12.0199543,40.0854768 12.3926099,40.0854768 C13.3058662,40.0854768 14.4255734,39.6828818 15.59053,38.3129523 C17.0114428,36.6456628 18.4812858,35.0188584 19.9982211,33.4345735 C20.9823973,33.9512229 22.0635989,34.2397635 23.1693831,34.2687026 C23.1715585,34.2970034 23.1743866,34.3253043 23.1769972,34.3533923 C22.9866503,34.5754115 22.8002582,34.8006461 22.617905,35.0289943 C21.8517095,35.9803697 21.6922486,36.1784754 19.2259343,36.6751227 C18.5243497,36.8168395 16.6610718,37.1924105 16.6336611,38.4699899 C16.6040749,39.8658795 18.8363101,40.4521106 19.0906209,40.5142447 C19.9769016,40.7312885 20.830768,40.8383209 21.6450412,40.8383209 C23.6253586,40.8383209 25.3681163,40.2016591 26.7608432,38.969829 C26.7179867,43.9460904 26.9300936,48.8495783 27.5409616,50.3435632 C28.0413165,51.5666689 29.2634876,54.5557026 33.1240515,54.5554898 C33.6905402,54.5554898 34.3140259,54.4910151 34.9999471,54.3471703 C39.0291089,53.5024018 40.7788281,51.7605188 41.4556124,47.9203328 C41.8178258,45.8679921 42.4393535,40.9672705 42.7317348,38.3384869 C43.3486941,38.5268043 44.142953,38.6129835 45.0016054,38.6127707 C46.7924407,38.6127707 48.8589062,38.2406044 50.1548253,37.6522454 C51.6106403,36.9909002 54.2377208,35.3681785 53.761296,33.9582449 Z M44.1662304,16.1946984 C44.1529601,16.9707364 44.0437522,17.6752776 43.928018,18.4106731 C43.8033643,19.2016063 43.6745774,20.0193508 43.6421631,21.0120071 C43.6101839,21.9780648 43.7335322,22.9824244 43.8527472,23.9538019 C44.0937877,25.9157077 44.341137,27.9354919 43.3837189,29.9284648 C43.2246798,29.6528272 43.0830111,29.3679404 42.959505,29.0753975 C42.8405076,28.7932405 42.5820634,28.340002 42.2242009,27.7127028 C40.8321267,25.2707471 37.5722061,19.552281 39.2409983,17.2188473 C39.73809,16.5243071 40.9996368,15.8101904 44.1662304,16.1946984 Z M40.3278561,3.04716305 C44.9689736,3.14738623 48.6402729,4.84564766 51.2395076,8.09449562 C53.2330953,10.5864565 51.0378428,21.9252934 44.6826836,31.7073729 C44.6187724,31.6278836 44.5545234,31.5486549 44.4899382,31.4696886 L44.4094463,31.3713805 C46.051698,28.7185519 45.7306007,26.0938113 45.4447458,23.7667612 C45.3272712,22.8117684 45.2163229,21.9097598 45.2446038,21.0624378 C45.273755,20.1644722 45.3951454,19.3941795 45.51262,18.6494213 C45.6568527,17.7316665 45.803696,16.7819934 45.7632325,15.6625154 C45.7934714,15.5450564 45.8056539,15.4063186 45.7897731,15.2416207 C45.6864389,14.168105 44.4333764,10.9552182 41.8793912,8.04725668 C40.4823134,6.456666 38.444999,4.67669395 35.6632436,3.47614376 C36.8597443,3.23356539 38.4959047,3.00737169 40.3278561,3.04716305 Z M14.3576991,37.310295 C13.0741802,38.8198135 12.1878995,38.5304217 11.8963884,38.4355183 C9.99721542,37.8158794 7.79347863,33.8895143 5.85057901,27.663336 C4.16938672,22.2759681 3.18695086,16.8585971 3.10906954,15.3395032 C2.86367812,10.5351746 4.05430511,7.18695459 6.64810112,5.38761883 C10.8693557,2.45965524 17.8094949,4.21217763 20.5982118,5.10099332 C20.5581834,5.13972075 20.5164147,5.17589472 20.4768214,5.21526051 C15.9005324,9.73572986 16.0090877,17.459085 16.0204,17.9312616 C16.019965,18.1134082 16.0356282,18.3713073 16.0569477,18.726025 C16.1356992,20.0250961 16.2823249,22.4427939 15.8907429,25.1807378 C15.5270067,27.7250445 16.3288797,30.2153031 18.0903463,32.0131493 C18.2711227,32.1973044 18.4611286,32.3725735 18.6596631,32.5383102 C17.8756288,33.3596721 16.1715942,35.1760309 14.3576991,37.310295 Z M19.2479064,30.928143 C17.8282039,29.4790564 17.1833987,27.463528 17.4786081,25.3977816 C17.8919447,22.5055664 17.7394453,19.9865814 17.6574306,18.6332494 C17.6459007,18.4438681 17.635676,18.2778934 17.6298023,18.1470287 C18.2983199,17.5671813 21.3963866,15.9436085 23.6057795,16.4387663 C24.6138858,16.6645344 25.2282345,17.3360935 25.483633,18.491107 C26.80544,24.4710896 25.6585397,26.9634761 24.7370166,28.96645 C24.5470993,29.379046 24.3676242,29.7690865 24.2144721,30.1725327 L24.0956922,30.4844799 C23.7950442,31.2730725 23.5152806,32.0063401 23.3418967,32.7025826 C21.8325655,32.6983268 20.3643503,32.067623 19.2479064,30.9279302 L19.2479064,30.928143 Z M19.4795924,38.9928102 C19.038845,38.8851394 18.642477,38.6980987 18.4099208,38.5429762 C18.604189,38.4536052 18.9498689,38.3318905 19.5494245,38.2110269 C22.45083,37.6269237 22.8989739,37.2145404 23.877494,35.9993079 C24.1017835,35.7205555 24.3560943,35.404778 24.7083006,35.0200572 L24.7087356,35.0196317 C25.2332381,34.4451039 25.4731908,34.5425609 25.908282,34.7191749 C26.2609234,34.8617429 26.6044279,35.2941283 26.7436571,35.7699223 C26.8095734,35.9946265 26.8835389,36.4210538 26.6414106,36.7530031 C24.5973523,39.5524427 21.6187181,39.5164816 19.4795924,38.9928102 Z M34.6640567,52.8138197 C31.114583,53.5577267 29.8578221,51.7862662 29.0296261,49.7611623 C28.4951166,48.4537925 28.2323215,42.5582867 28.4187581,36.0476107 C28.4211511,35.961006 28.4085334,35.8773803 28.3841683,35.7986487 C28.3623733,35.6431795 28.3292215,35.4894369 28.2849675,35.338601 C28.0078145,34.3912686 27.3323354,33.5988459 26.5219781,33.2703011 C26.2000106,33.139862 25.6091568,32.9004755 24.899088,33.0781535 C25.0504998,32.4678774 25.3130773,31.7786569 25.5978445,31.0324092 L25.717277,30.7185468 C25.8517202,30.3646803 26.0205355,29.9980464 26.1989229,29.609921 C27.1633025,27.5143843 28.4840217,24.6440863 27.0506139,18.159796 C26.5137114,15.7310332 24.7207007,14.5449526 22.0026861,14.8205131 C20.3732697,14.9854239 18.8824298,15.6284694 18.138859,15.9972311 C17.978963,16.0763882 17.8327723,16.1529919 17.6961537,16.2274677 C17.9036922,13.7804051 18.6877265,9.20716434 21.6206761,6.31367243 C23.4674205,4.49220671 25.9267734,3.59253883 28.9232463,3.6410545 C34.8274335,3.7355324 38.6135968,6.69924437 40.7503296,9.16907528 C42.5916354,11.2971686 43.5886468,13.4410082 43.9865377,14.5972985 C40.9941982,14.299608 38.9590592,14.8773275 37.9274581,16.3200305 C35.6830403,19.4582287 39.1552854,25.5490739 40.8240775,28.4763991 C41.1301642,29.0128378 41.3942645,29.4765029 41.4773669,29.6735447 C42.0207958,30.9617635 42.7243382,31.8218528 43.2379634,32.4495776 C43.3954664,32.641938 43.5481834,32.8285531 43.6643527,32.9915488 C42.7580578,33.2471072 41.1301642,33.837594 41.2785303,36.7891771 C41.1588802,38.2701819 40.3080594,45.2040934 39.8757963,47.6539222 C39.3051743,50.8904285 38.0875716,52.0958728 34.6640567,52.8140324 L34.6640567,52.8138197 Z M49.4797813,36.2299701 C48.5530371,36.6506521 47.0021546,36.9662168 45.5289359,37.0340961 C43.9016949,37.108572 43.0732814,36.8557798 42.8783605,36.7002317 C42.7869914,34.8608918 43.4868355,34.6687442 44.2275782,34.4653188 C44.3439651,34.4334006 44.4575239,34.4021207 44.5671669,34.36467 C44.6352587,34.418931 44.7098768,34.4727664 44.7916739,34.5255378 C46.099558,35.3698808 48.4322993,35.4609541 51.7257219,34.7959914 L51.7618345,34.7889694 C51.3176064,35.1951818 50.5575021,35.7403448 49.4797813,36.2299701 Z"/>
    </g>
  </g>
</svg>
