<svg width="120" height="120" viewBox="0 0 120 120" fill="none" xmlns="http://www.w3.org/2000/svg">
<mask id="path-1-outside-1" maskUnits="userSpaceOnUse" x="26.6211" y="29" width="77" height="76" fill="black">
<rect fill="white" x="26.6211" y="29" width="77" height="76"/>
<path d="M93.8937 103.524C92.9401 103.524 92.2249 103.286 91.2714 103.048L85.3116 101.142C84.358 100.904 83.6429 99.7124 84.1196 98.7594C84.358 97.8064 85.55 97.0916 86.5036 97.5681L92.7017 99.4741C93.8937 99.9507 95.324 99.7124 96.516 98.7594C97.7079 98.0446 98.1847 96.6151 98.1847 95.4238V55.635C98.1847 53.729 96.9927 52.0612 95.324 51.5847L36.9183 33.9538C35.7264 33.4772 34.296 33.7155 33.1041 34.4303C32.1505 35.3833 31.4353 36.5746 31.4353 38.0041V65.4035C31.4353 66.5948 30.4818 67.3096 29.5282 67.3096C28.3363 67.3096 27.6211 66.3566 27.6211 65.4035V38.0041C27.6211 35.3833 28.813 33.0007 30.9586 31.5712C33.1041 29.9034 35.7264 29.6651 38.1103 30.3799L96.2776 48.0109C99.615 48.9639 101.999 52.2995 101.999 55.8733V95.6621C101.999 98.2829 100.807 100.665 98.6615 102.333C97.2311 102.81 95.5624 103.524 93.8937 103.524Z"/>
</mask>
<path d="M93.8937 103.524C92.9401 103.524 92.2249 103.286 91.2714 103.048L85.3116 101.142C84.358 100.904 83.6429 99.7124 84.1196 98.7594C84.358 97.8064 85.55 97.0916 86.5036 97.5681L92.7017 99.4741C93.8937 99.9507 95.324 99.7124 96.516 98.7594C97.7079 98.0446 98.1847 96.6151 98.1847 95.4238V55.635C98.1847 53.729 96.9927 52.0612 95.324 51.5847L36.9183 33.9538C35.7264 33.4772 34.296 33.7155 33.1041 34.4303C32.1505 35.3833 31.4353 36.5746 31.4353 38.0041V65.4035C31.4353 66.5948 30.4818 67.3096 29.5282 67.3096C28.3363 67.3096 27.6211 66.3566 27.6211 65.4035V38.0041C27.6211 35.3833 28.813 33.0007 30.9586 31.5712C33.1041 29.9034 35.7264 29.6651 38.1103 30.3799L96.2776 48.0109C99.615 48.9639 101.999 52.2995 101.999 55.8733V95.6621C101.999 98.2829 100.807 100.665 98.6615 102.333C97.2311 102.81 95.5624 103.524 93.8937 103.524Z" fill="#F7F7FE"/>
<path d="M91.2714 103.048L91.1404 103.458L91.1536 103.462L91.1671 103.465L91.2714 103.048ZM85.3116 101.142L85.4426 100.732L85.4293 100.728L85.4158 100.725L85.3116 101.142ZM84.1196 98.7594L84.5042 98.9518L84.5253 98.9095L84.5368 98.8637L84.1196 98.7594ZM86.5036 97.5681L86.3113 97.9528L86.3432 97.9687L86.3772 97.9791L86.5036 97.5681ZM92.7017 99.4741L92.8613 99.0749L92.845 99.0683L92.8281 99.0631L92.7017 99.4741ZM96.516 98.7594L96.2948 98.3906L96.27 98.4055L96.2474 98.4235L96.516 98.7594ZM95.324 51.5847L95.1997 51.9964L95.2059 51.9982L95.324 51.5847ZM36.9183 33.9538L36.7587 34.353L36.7761 34.36L36.7941 34.3654L36.9183 33.9538ZM33.1041 34.4303L32.8829 34.0615L32.8375 34.0887L32.8001 34.1261L33.1041 34.4303ZM30.9586 31.5712L31.197 31.929L31.2101 31.9203L31.2225 31.9107L30.9586 31.5712ZM38.1103 30.3799L38.235 29.9684L38.2338 29.968L38.1103 30.3799ZM96.2776 48.0109L96.1528 48.4224L96.1595 48.4243L96.2776 48.0109ZM98.6615 102.333L98.7974 102.741L98.8672 102.718L98.9254 102.673L98.6615 102.333ZM93.8937 103.094C93.7021 103.094 93.5212 103.084 93.3458 103.066L93.2553 103.921C93.4594 103.942 93.6705 103.954 93.8937 103.954V103.094ZM91.9551 102.78C91.7726 102.733 91.5792 102.682 91.3756 102.631L91.1671 103.465C91.3653 103.515 91.5526 103.564 91.7384 103.612L91.9551 102.78ZM91.4024 102.638L90.078 102.215L89.816 103.034L91.1404 103.458L91.4024 102.638ZM86.767 101.156L85.4426 100.732L85.1806 101.552L86.505 101.975L86.767 101.156ZM85.4158 100.725C85.263 100.687 85.1123 100.612 84.9737 100.506L84.4521 101.19C84.6737 101.359 84.9294 101.49 85.2074 101.559L85.4158 100.725ZM84.3979 99.4075C84.398 99.2511 84.4314 99.0973 84.5042 98.9518L83.7351 98.567C83.5991 98.8389 83.538 99.1254 83.5379 99.4071L84.3979 99.4075ZM84.5368 98.8637C84.575 98.711 84.6495 98.5603 84.7553 98.4218L84.0719 97.8997C83.9027 98.1213 83.7721 98.377 83.7025 98.655L84.5368 98.8637ZM85.8553 97.8464C86.0118 97.8465 86.1657 97.88 86.3113 97.9528L86.6958 97.1835C86.4239 97.0476 86.1374 96.9866 85.8558 96.9864L85.8553 97.8464ZM86.3772 97.9791L87.7545 98.4027L88.0073 97.5807L86.6299 97.1571L86.3772 97.9791ZM91.1979 99.4616L92.5753 99.8852L92.8281 99.0631L91.4507 98.6396L91.1979 99.4616ZM92.5421 99.8734C92.8594 100 93.191 100.082 93.5295 100.119L93.6233 99.2644C93.3606 99.2355 93.1049 99.1722 92.8613 99.0749L92.5421 99.8734ZM95.959 99.635C96.2435 99.4868 96.52 99.3067 96.7845 99.0952L96.2474 98.4235C96.0253 98.6011 95.7954 98.7505 95.5617 98.8722L95.959 99.635ZM96.7371 99.1282C97.029 98.9531 97.2826 98.7412 97.5005 98.5041L96.8673 97.9222C96.702 98.1021 96.5119 98.2605 96.2948 98.3906L96.7371 99.1282ZM98.5264 96.364C98.5863 96.0457 98.6147 95.7281 98.6147 95.4238H97.7547C97.7547 95.6754 97.7312 95.9396 97.6812 96.2049L98.5264 96.364ZM98.6147 95.4238V91.0028H97.7547V95.4238H98.6147ZM98.6147 79.9504V71.1085H97.7547V79.9504H98.6147ZM98.6147 60.056V55.635H97.7547V60.056H98.6147ZM98.6147 55.635C98.6147 55.1942 98.5564 54.7645 98.447 54.3559L97.6163 54.5784C97.7064 54.9151 97.7547 55.27 97.7547 55.635H98.6147ZM96.6306 51.7338C96.2702 51.4858 95.8709 51.2937 95.4421 51.1712L95.2059 51.9982C95.5414 52.094 95.8563 52.245 96.1431 52.4423L96.6306 51.7338ZM95.4483 51.173L91.1219 49.867L90.8734 50.6904L95.1997 51.9963L95.4483 51.173ZM80.3061 46.6021L71.6534 43.9901L71.4048 44.8134L80.0575 47.4254L80.3061 46.6021ZM60.8375 40.7251L52.1848 38.1131L51.9363 38.9364L60.589 41.5484L60.8375 40.7251ZM41.3689 34.8481L37.0426 33.5421L36.7941 34.3654L41.1204 35.6714L41.3689 34.8481ZM37.0779 33.5545C36.7677 33.4305 36.4451 33.35 36.1173 33.3088L36.0101 34.1621C36.2696 34.1947 36.5205 34.2578 36.7587 34.353L37.0779 33.5545ZM33.7391 33.6394C33.4447 33.7551 33.1577 33.8967 32.8829 34.0615L33.3252 34.799C33.56 34.6583 33.8044 34.5378 34.0538 34.4397L33.7391 33.6394ZM32.8001 34.1261C32.5762 34.3499 32.3633 34.5876 32.1675 34.8395L32.8465 35.3673C33.0179 35.1467 33.2066 34.9357 33.408 34.7344L32.8001 34.1261ZM31.1105 37.0196C31.0422 37.3355 31.0053 37.6638 31.0053 38.0041H31.8653C31.8653 37.7264 31.8954 37.459 31.9511 37.2014L31.1105 37.0196ZM31.0053 38.0041V41.0485H31.8653V38.0041H31.0053ZM31.0053 48.6594V54.7482H31.8653V48.6594H31.0053ZM31.0053 62.3592V65.4035H31.8653V62.3592H31.0053ZM31.0053 65.4035C31.0053 65.5955 30.9747 65.7672 30.9221 65.9189L31.7347 66.2006C31.8196 65.9555 31.8653 65.6885 31.8653 65.4035H31.0053ZM30.0391 66.7909C29.8743 66.8494 29.7007 66.8796 29.5282 66.8796V67.7396C29.8003 67.7396 30.0712 67.6921 30.3269 67.6013L30.0391 66.7909ZM29.5282 66.8796C29.3361 66.8796 29.1644 66.849 29.0126 66.7964L28.7314 67.6092C28.9764 67.6939 29.2434 67.7396 29.5282 67.7396V66.8796ZM28.1399 65.9141C28.0813 65.7495 28.0511 65.5759 28.0511 65.4035H27.1911C27.1911 65.6757 27.2387 65.9467 27.3297 66.2024L28.1399 65.9141ZM28.0511 65.4035V62.3592H27.1911V65.4035H28.0511ZM28.0511 54.7482V48.6594H27.1911V54.7482H28.0511ZM28.0511 41.0485V38.0041H27.1911V41.0485H28.0511ZM28.0511 38.0041C28.0511 37.463 28.1046 36.9335 28.2088 36.4227L27.3662 36.2507C27.2502 36.8192 27.1911 37.4063 27.1911 38.0041H28.0511ZM29.9911 32.9461C30.3472 32.5684 30.7499 32.2269 31.197 31.929L30.7201 31.2134C30.2188 31.5474 29.7662 31.931 29.3654 32.3561L29.9911 32.9461ZM31.2225 31.9107C31.6531 31.5759 32.1032 31.3029 32.5662 31.0866L32.2023 30.3074C31.6809 30.5509 31.176 30.8576 30.6947 31.2317L31.2225 31.9107ZM36.4249 30.4749C36.9506 30.5308 37.4738 30.638 37.9868 30.7918L38.2338 29.968C37.6722 29.7996 37.0967 29.6815 36.5158 29.6197L36.4249 30.4749ZM37.9855 30.7914L42.2942 32.0974L42.5437 31.2744L38.235 29.9684L37.9855 30.7914ZM53.066 35.3624L61.6833 37.9744L61.9328 37.1514L53.3154 34.5394L53.066 35.3624ZM72.455 41.2394L81.0724 43.8514L81.3219 43.0284L72.7045 40.4164L72.455 41.2394ZM91.8441 47.1164L96.1528 48.4224L96.4023 47.5993L92.0936 46.2934L91.8441 47.1164ZM96.1595 48.4243C96.8627 48.6251 97.5225 48.939 98.1234 49.3445L98.6044 48.6315C97.932 48.1779 97.1901 47.8243 96.3956 47.5974L96.1595 48.4243ZM101.26 53.7098C101.462 54.4071 101.569 55.1354 101.569 55.8733H102.429C102.429 55.0519 102.309 54.2435 102.087 53.4714L101.26 53.7098ZM101.569 55.8733V60.2943H102.429V55.8733H101.569ZM101.569 71.3467V80.1887H102.429V71.3467H101.569ZM101.569 91.2411V95.6621H102.429V91.2411H101.569ZM101.569 95.6621C101.569 96.2152 101.513 96.7564 101.404 97.2807L102.246 97.4557C102.367 96.8731 102.429 96.2733 102.429 95.6621H101.569ZM99.5908 100.876C99.2376 101.276 98.8393 101.65 98.3976 101.994L98.9254 102.673C99.4084 102.297 99.8462 101.886 100.236 101.445L99.5908 100.876ZM98.5256 101.925C98.1878 102.038 97.8353 102.164 97.4827 102.288L97.7671 103.099C98.1274 102.973 98.468 102.851 98.7974 102.741L98.5256 101.925ZM94.9177 103.007C94.5737 103.063 94.2319 103.094 93.8937 103.094V103.954C94.2853 103.954 94.6735 103.918 95.0545 103.856L94.9177 103.007ZM91.2714 103.048L91.0094 103.867L91.0359 103.876L91.0629 103.882L91.2714 103.048ZM85.3116 101.142L85.5736 100.323L85.5471 100.314L85.5201 100.308L85.3116 101.142ZM84.1196 98.7594L84.8888 99.1442L84.931 99.0597L84.9539 98.9681L84.1196 98.7594ZM86.5036 97.5681L86.1191 98.3374L86.1828 98.3692L86.2508 98.3901L86.5036 97.5681ZM92.7017 99.4741L93.021 98.6756L92.9882 98.6625L92.9545 98.6521L92.7017 99.4741ZM96.516 98.7594L96.0737 98.0218L96.0241 98.0516L95.9789 98.0877L96.516 98.7594ZM95.324 51.5847L95.0754 52.4081L95.0879 52.4116L95.324 51.5847ZM36.9183 33.9538L36.5991 34.7523L36.6339 34.7662L36.6698 34.7771L36.9183 33.9538ZM33.1041 34.4303L32.6618 33.6927L32.571 33.7472L32.4961 33.822L33.1041 34.4303ZM30.9586 31.5712L31.4354 32.2869L31.4616 32.2695L31.4864 32.2502L30.9586 31.5712ZM38.1103 30.3799L38.3597 29.5569L38.3573 29.5561L38.1103 30.3799ZM96.2776 48.0109L96.0281 48.834L96.0414 48.8378L96.2776 48.0109ZM98.6615 102.333L98.9333 103.149L99.073 103.103L99.1893 103.012L98.6615 102.333ZM93.8937 102.664C93.7179 102.664 93.5521 102.655 93.3911 102.638L93.2101 104.348C93.4284 104.371 93.6547 104.384 93.8937 104.384V102.664ZM92.0635 102.364C91.8826 102.317 91.6861 102.265 91.4798 102.214L91.0629 103.882C91.2584 103.931 91.4425 103.98 91.63 104.029L92.0635 102.364ZM91.5333 102.229L90.2089 101.805L89.685 103.444L91.0094 103.867L91.5333 102.229ZM86.898 100.746L85.5736 100.323L85.0496 101.961L86.374 102.385L86.898 100.746ZM85.5201 100.308C85.4298 100.285 85.3315 100.239 85.2344 100.165L84.1914 101.532C84.4544 101.733 84.7626 101.891 85.1031 101.976L85.5201 100.308ZM84.8279 99.4077C84.8279 99.3139 84.8476 99.2265 84.8888 99.1442L83.3505 98.3746C83.1829 98.7097 83.108 99.0625 83.1079 99.4069L84.8279 99.4077ZM84.9539 98.9681C84.9765 98.878 85.0229 98.7798 85.0971 98.6828L83.7302 97.6387C83.5293 97.9017 83.3706 98.21 83.2854 98.5507L84.9539 98.9681ZM85.855 98.2764C85.949 98.2765 86.0367 98.2962 86.1191 98.3374L86.888 96.7988C86.5529 96.6314 86.2003 96.5566 85.856 96.5564L85.855 98.2764ZM86.2508 98.3901L87.6281 98.8137L88.1337 97.1697L86.7563 96.7461L86.2508 98.3901ZM91.0716 99.8726L92.4489 100.296L92.9545 98.6521L91.5771 98.2286L91.0716 99.8726ZM92.3825 100.273C92.7366 100.414 93.1062 100.505 93.4826 100.547L93.6702 98.8369C93.4454 98.8122 93.2277 98.7582 93.021 98.6756L92.3825 100.273ZM96.1577 100.016C96.4675 99.8549 96.7674 99.6595 97.053 99.4311L95.9789 98.0877C95.778 98.2483 95.5714 98.3823 95.3631 98.4909L96.1577 100.016ZM96.9582 99.4969C97.2875 99.2995 97.5729 99.0607 97.8171 98.7951L96.5507 97.6312C96.4116 97.7825 96.2533 97.9141 96.0737 98.0218L96.9582 99.4969ZM98.9489 96.4436C99.0139 96.0987 99.0447 95.7545 99.0447 95.4238H97.3247C97.3247 95.649 97.3036 95.8866 97.2586 96.1253L98.9489 96.4436ZM99.0447 95.4238V91.0028H97.3247V95.4238H99.0447ZM99.0447 79.9504V71.1085H97.3247V79.9504H99.0447ZM99.0447 60.056V55.635H97.3247V60.056H99.0447ZM99.0447 55.635C99.0447 55.1562 98.9814 54.6892 98.8624 54.2447L97.2009 54.6896C97.2815 54.9904 97.3247 55.308 97.3247 55.635H99.0447ZM96.8743 51.3795C96.4771 51.1063 96.0356 50.8935 95.5601 50.7578L95.0879 52.4116C95.3767 52.4941 95.6494 52.6246 95.8993 52.7965L96.8743 51.3795ZM95.5725 50.7614L91.2462 49.4554L90.7491 51.102L95.0755 52.408L95.5725 50.7614ZM80.4303 46.1904L71.7776 43.5784L71.2806 45.225L79.9333 47.837L80.4303 46.1904ZM60.9618 40.3134L52.3091 37.7014L51.812 39.348L60.4647 41.96L60.9618 40.3134ZM41.4932 34.4364L37.1669 33.1305L36.6698 34.7771L40.9961 36.0831L41.4932 34.4364ZM37.2376 33.1552C36.8913 33.0168 36.5328 32.9276 36.1709 32.8822L35.9566 34.5888C36.1818 34.6171 36.3969 34.6715 36.5991 34.7523L37.2376 33.1552ZM33.5818 33.2392C33.2649 33.3638 32.9566 33.5159 32.6618 33.6927L33.5464 35.1678C33.7611 35.039 33.9842 34.9291 34.2112 34.8399L33.5818 33.2392ZM32.4961 33.822C32.261 34.0569 32.036 34.308 31.828 34.5755L33.1859 35.6312C33.3453 35.4263 33.5218 35.2286 33.712 35.0386L32.4961 33.822ZM30.6902 36.9287C30.6156 37.2738 30.5753 37.6326 30.5753 38.0041H32.2953C32.2953 37.7576 32.3219 37.5207 32.3713 37.2923L30.6902 36.9287ZM30.5753 38.0041V41.0485H32.2953V38.0041H30.5753ZM30.5753 48.6594V54.7482H32.2953V48.6594H30.5753ZM30.5753 62.3592V65.4035H32.2953V62.3592H30.5753ZM30.5753 65.4035C30.5753 65.5491 30.5522 65.673 30.5158 65.778L32.1409 66.3414C32.2421 66.0497 32.2953 65.7349 32.2953 65.4035H30.5753ZM29.8951 66.3857C29.7759 66.4281 29.6509 66.4496 29.5282 66.4496V68.1696C29.8501 68.1696 30.1697 68.1135 30.4708 68.0065L29.8951 66.3857ZM29.5282 66.4496C29.3825 66.4496 29.2584 66.4265 29.1533 66.3901L28.5908 68.0155C28.8824 68.1164 29.197 68.1696 29.5282 68.1696V66.4496ZM28.545 65.77C28.5026 65.6509 28.4811 65.526 28.4811 65.4035H26.7611C26.7611 65.7256 26.8174 66.0453 26.9245 66.3465L28.545 65.77ZM28.4811 65.4035V62.3592H26.7611V65.4035H28.4811ZM28.4811 54.7482V48.6594H26.7611V54.7482H28.4811ZM28.4811 41.0485V38.0041H26.7611V41.0485H28.4811ZM28.4811 38.0041C28.4811 37.4913 28.5318 36.9907 28.6301 36.5086L26.9449 36.1648C26.823 36.762 26.7611 37.3779 26.7611 38.0041H28.4811ZM30.3039 33.2411C30.6377 32.8871 31.0155 32.5667 31.4354 32.2869L30.4817 30.8555C29.9532 31.2076 29.4757 31.6123 29.0525 32.0611L30.3039 33.2411ZM31.4864 32.2502C31.8917 31.9351 32.3143 31.6788 32.7482 31.4762L32.0203 29.9178C31.4698 30.1749 30.9374 30.4984 30.4308 30.8922L31.4864 32.2502ZM36.3794 30.9025C36.8775 30.9555 37.3747 31.0572 37.8633 31.2037L38.3573 29.5561C37.7713 29.3805 37.1697 29.2568 36.5612 29.1921L36.3794 30.9025ZM37.8608 31.2029L42.1695 32.5089L42.6684 30.8629L38.3597 29.5569L37.8608 31.2029ZM52.9412 35.7739L61.5586 38.3859L62.0575 36.7399L53.4401 34.1279L52.9412 35.7739ZM72.3303 41.6509L80.9477 44.2629L81.4466 42.6168L72.8292 40.0049L72.3303 41.6509ZM91.7194 47.5279L96.0281 48.8339L96.527 47.1878L92.2183 45.8818L91.7194 47.5279ZM96.0414 48.8378C96.699 49.0256 97.3177 49.3196 97.883 49.7009L98.8449 48.275C98.1368 47.7974 97.3539 47.4238 96.5137 47.1839L96.0414 48.8378ZM100.847 53.8291C101.038 54.489 101.139 55.1771 101.139 55.8733H102.859C102.859 55.0102 102.733 54.1617 102.5 53.3521L100.847 53.8291ZM101.139 55.8733V60.2943H102.859V55.8733H101.139ZM101.139 71.3467V80.1887H102.859V71.3467H101.139ZM101.139 91.2411V95.6621H102.859V91.2411H101.139ZM101.139 95.6621C101.139 96.1862 101.086 96.698 100.983 97.1932L102.667 97.5432C102.794 96.9315 102.859 96.3024 102.859 95.6621H101.139ZM99.2684 100.591C98.9334 100.971 98.5547 101.327 98.1337 101.654L99.1893 103.012C99.6929 102.621 100.15 102.191 100.558 101.729L99.2684 100.591ZM98.3897 101.517C98.0476 101.631 97.6892 101.76 97.3404 101.882L97.9094 103.505C98.2735 103.377 98.6082 103.257 98.9333 103.149L98.3897 101.517ZM94.8493 102.583C94.5239 102.635 94.2052 102.664 93.8937 102.664V104.384C94.3121 104.384 94.7234 104.345 95.1229 104.281L94.8493 102.583Z" fill="black" mask="url(#path-1-outside-1)"/>
<path d="M43.5542 81.7089C43.5542 84.3297 41.4087 86.7122 38.548 86.7122C35.6873 86.7122 33.5418 84.5679 33.5418 81.7089V60.2659C33.5418 57.6451 35.6873 55.2625 38.548 55.2625C41.4087 55.2625 43.5542 57.4068 43.5542 60.2659V81.7089ZM57.8576 87.427C57.8576 90.0478 55.7121 92.4304 52.8514 92.4304C49.9907 92.4304 48.0836 90.2861 48.0836 87.427V54.786C48.0836 52.1652 50.2291 49.7826 53.0898 49.7826C55.9505 49.7826 58.096 51.9269 58.096 54.786V87.427H57.8576ZM29.0124 76.9438C29.0124 79.5646 26.8669 81.9471 24.0062 81.9471C21.1455 81.9471 19 79.8028 19 76.9438V65.2692C19 62.6484 21.1455 60.2659 24.0062 60.2659C26.8669 60.2659 29.0124 62.6484 29.0124 65.2692V76.9438ZM72.161 92.6686C72.161 95.2895 70.0155 97.672 67.1548 97.672C64.5326 97.672 62.387 95.2895 62.387 92.6686V49.3061C62.387 46.6853 64.5326 44.3027 67.3932 44.3027C70.0155 44.3027 72.3994 46.447 72.3994 49.3061V92.6686H72.161Z" fill="#231F20"/>
<path d="M87.8937 90.5245C86.9401 90.5245 86.2249 90.2862 85.2714 90.048L79.3116 88.1419C78.358 87.9037 77.6429 86.7124 78.1196 85.7594C78.358 84.8064 79.55 84.0916 80.5036 84.5681L86.7017 86.4741C87.8937 86.9507 89.324 86.7124 90.516 85.7594C91.7079 85.0446 92.1847 83.6151 92.1847 82.4238V42.635C92.1847 40.729 90.9927 39.0612 89.324 38.5847L30.9183 20.9538C29.7264 20.4772 28.296 20.7155 27.1041 21.4303C26.1505 22.3833 25.4353 23.5746 25.4353 25.0041V52.4035C25.4353 53.5948 24.4818 54.3096 23.5282 54.3096C22.3363 54.3096 21.6211 53.3566 21.6211 52.4035V25.0041C21.6211 22.3833 22.813 20.0007 24.9586 18.5712C27.1041 16.9034 29.7264 16.6651 32.1103 17.3799L90.2776 35.0109C93.615 35.9639 95.9989 39.2995 95.9989 42.8733V82.6621C95.9989 85.2829 94.807 87.6654 92.6615 89.3332C91.2311 89.8097 89.5624 90.5245 87.8937 90.5245Z" fill="#231F20"/>
</svg>
