<svg xmlns="http://www.w3.org/2000/svg" width="60" height="87" viewBox="0 0 60 87">
  <defs>
    <linearGradient id="principle-a" x1="17.552%" x2="57.83%" y1="10.834%" y2="70.208%">
      <stop offset="0%" stop-color="#C36AD5"/>
      <stop offset="100%" stop-color="#662CAA"/>
    </linearGradient>
  </defs>
  <g fill="none" fill-rule="evenodd" transform="translate(-10)">
    <path fill="#9595EF" fill-opacity=".078" fill-rule="nonzero" d="M40.1389685,66.7518011 C35.1871997,66.7518011 31.172998,62.7960461 31.172998,57.916375 C31.172998,53.0367039 35.1871997,49.0809489 40.1389685,49.0809489 C46.24615,49.0809489 51.1969988,44.2021845 51.1969988,38.1839235 C51.1969988,32.1656625 46.24615,27.286898 40.1389685,27.286898 C34.031787,27.286898 29.0809382,32.1656625 29.0809382,38.1839235 L29.0809382,76.7261785 C29.0809382,81.6058496 25.0667364,85.5616046 20.1149677,85.5616046 C15.1631989,85.5616046 11.1489971,81.6058496 11.1489971,76.7261785 L11.1489971,38.1839235 C11.1489971,22.4063203 24.1282494,9.61604585 40.1389685,9.61604585 C56.1496876,9.61604585 69.1289398,22.4063203 69.1289398,38.1839235 C69.1289398,53.9615266 56.1496876,66.7518011 40.1389685,66.7518011 Z"/>
    <path fill="#000" fill-rule="nonzero" d="M40.1389685,66.2518011 C40.4151109,66.2518011 40.6389685,66.4756587 40.6389685,66.7518011 C40.6389685,67.0279435 40.4151109,67.2518011 40.1389685,67.2518011 C37.207287,67.2518011 34.495086,65.9282871 32.7106259,63.7032876 C32.5378579,63.4878674 32.5724344,63.1731788 32.7878545,63.0004108 C33.0032747,62.8276428 33.3179633,62.8622193 33.4907313,63.0776394 C35.0868889,65.0678492 37.5130933,66.2518011 40.1389685,66.2518011 Z M32.5824425,54.1537793 C32.4560633,54.399305 32.1545748,54.4958924 31.909049,54.3695132 C31.6635232,54.243134 31.5669358,53.9416454 31.6933151,53.6961197 C33.0026173,51.1524462 35.432719,49.3190658 38.2840075,48.7602129 C38.5549938,48.7070996 38.8177285,48.8837205 38.8708419,49.1547068 C38.9239552,49.4256932 38.7473343,49.6884278 38.476348,49.7415412 C35.9258501,50.2414391 33.7520895,51.8814239 32.5824425,54.1537793 Z M48.0038379,46.5354906 C47.8002176,46.7220205 47.4839385,46.7081661 47.2974085,46.5045459 C47.1108786,46.3009257 47.124733,45.9846465 47.3283532,45.7981165 C49.2378042,44.0489298 50.434379,41.6681688 50.6584409,39.0790912 C50.6822496,38.8039771 50.9245744,38.6002539 51.1996885,38.6240626 C51.4748026,38.6478713 51.6785258,38.8901961 51.6547171,39.1653101 C51.4088067,42.0068508 50.0959481,44.6189756 48.0038379,46.5354906 Z M47.8800246,29.7205665 C48.0863137,29.9041404 48.104728,30.2201869 47.9211541,30.4264761 C47.7375801,30.6327652 47.4215336,30.6511795 47.2152444,30.4676055 C45.3016022,28.7646806 42.8251912,27.8001469 40.1935835,27.787034 C39.9174446,27.7856581 39.6947051,27.5606878 39.6960811,27.2845488 C39.697457,27.0084099 39.9224273,26.7856705 40.1985663,26.7870464 C43.0754787,26.8013816 45.7859539,27.8570807 47.8800246,29.7205665 Z M31.0174549,31.1836591 C31.1886836,30.9670135 31.503118,30.9301959 31.7197636,31.1014247 C31.9364092,31.2726535 31.9732268,31.5870878 31.801998,31.8037334 C30.3704167,33.6150281 29.5809382,35.8397094 29.5809382,38.1839235 L29.5809382,38.9914201 C29.5809382,39.2675624 29.3570805,39.4914201 29.0809382,39.4914201 C28.8047958,39.4914201 28.5809382,39.2675624 28.5809382,38.9914201 L28.5809382,38.1839235 C28.5809382,35.612297 29.4477396,33.1697266 31.0174549,31.1836591 Z M28.5809382,48.9914201 C28.5809382,48.7152777 28.8047958,48.4914201 29.0809382,48.4914201 C29.3570805,48.4914201 29.5809382,48.7152777 29.5809382,48.9914201 L29.5809382,56.9914201 C29.5809382,57.2675624 29.3570805,57.4914201 29.0809382,57.4914201 C28.8047958,57.4914201 28.5809382,57.2675624 28.5809382,56.9914201 L28.5809382,48.9914201 Z M28.5809382,66.9914201 C28.5809382,66.7152777 28.8047958,66.4914201 29.0809382,66.4914201 C29.3570805,66.4914201 29.5809382,66.7152777 29.5809382,66.9914201 L29.5809382,74.9914201 C29.5809382,75.2675624 29.3570805,75.4914201 29.0809382,75.4914201 C28.8047958,75.4914201 28.5809382,75.2675624 28.5809382,74.9914201 L28.5809382,66.9914201 Z M25.1057573,83.4599413 C25.3298794,83.2986221 25.6423414,83.3495339 25.8036606,83.573656 C25.9649798,83.7977782 25.9140679,84.1102401 25.6899458,84.2715593 C24.0829329,85.4282592 22.1466475,86.0616046 20.1149677,86.0616046 C19.2686053,86.0616046 18.4365,85.9519314 17.6342629,85.7376259 C17.3674756,85.6663578 17.208976,85.3923097 17.2802442,85.1255224 C17.3515124,84.8587351 17.6255605,84.7002355 17.8923478,84.7715037 C18.6105705,84.963366 19.3559201,85.0616046 20.1149677,85.0616046 C21.9355022,85.0616046 23.6677383,84.4950023 25.1057573,83.4599413 Z M11.7770556,78.1789811 C11.8255645,78.4508294 11.644512,78.7105302 11.3726637,78.759039 C11.1008154,78.8075478 10.8411146,78.6264954 10.7926058,78.3546471 C10.6988229,77.8290784 10.6505587,77.2937152 10.6490324,76.75124 L10.6489971,70.247783 C10.6489956,69.9716406 10.872852,69.7477818 11.1489944,69.7477803 C11.4251368,69.7477788 11.6489956,69.9716352 11.6489971,70.2477776 L11.6490304,76.7498287 C11.6503913,77.2328698 11.6934417,77.7104005 11.7770556,78.1789811 Z M11.6489971,60.2477803 C11.6489971,60.5239226 11.4251395,60.7477803 11.1489971,60.7477803 C10.8728548,60.7477803 10.6489971,60.5239226 10.6489971,60.2477803 L10.6489971,52.2477803 C10.6489971,51.9716379 10.8728548,51.7477803 11.1489971,51.7477803 C11.4251395,51.7477803 11.6489971,51.9716379 11.6489971,52.2477803 L11.6489971,60.2477803 Z M11.6489971,42.2477803 C11.6489971,42.5239226 11.4251395,42.7477803 11.1489971,42.7477803 C10.8728548,42.7477803 10.6489971,42.5239226 10.6489971,42.2477803 L10.6489971,38.1839235 C10.6489971,36.8385286 10.7417601,35.5043856 10.9254483,34.1877576 C10.9636045,33.914264 11.2162465,33.7234854 11.4897401,33.7616416 C11.7632336,33.7997978 11.9540122,34.0524399 11.915856,34.3259334 C11.73855,35.5968158 11.6489971,36.8847899 11.6489971,38.1839235 L11.6489971,42.2477803 Z M14.9742487,25.0125407 C14.8429622,25.2554779 14.539594,25.3459887 14.2966568,25.2147023 C14.0537196,25.0834158 13.9632088,24.7800476 14.0944953,24.5371104 C15.3879483,22.1436582 17.0166442,19.9392379 18.9283258,17.9888988 C19.1216238,17.791692 19.4381904,17.7885233 19.6353972,17.9818212 C19.8326039,18.1751192 19.8357727,18.4916858 19.6424747,18.6888926 C17.7960084,20.5726977 16.2231218,22.7015807 14.9742487,25.0125407 Z M27.621167,12.9632902 C27.3724767,13.0833225 27.073568,12.9790245 26.9535358,12.7303342 C26.8335035,12.4816439 26.9378015,12.1827352 27.1864918,12.0627029 C29.63013,10.8832626 32.2327503,10.0418613 34.9319709,9.56781365 C35.2039507,9.5200475 35.463156,9.70180857 35.5109222,9.97378836 C35.5586883,10.2457681 35.3769272,10.5049734 35.1049474,10.5527396 C32.4967339,11.0108042 29.9821487,11.8237446 27.621167,12.9632902 Z M44.8393132,10.4961587 C44.5667905,10.4515939 44.3819942,10.1945438 44.4265589,9.92202112 C44.4711237,9.64949848 44.7281738,9.46470211 45.0006965,9.50926688 C47.7058304,9.95162894 50.3177127,10.7620367 52.7743759,11.9119826 C53.0244746,12.029052 53.1323162,12.3267005 53.0152469,12.5767992 C52.8981775,12.826898 52.6005289,12.9347396 52.3504302,12.8176702 C49.9768567,11.706618 47.4533006,10.9236158 44.8393132,10.4961587 Z M60.3708656,18.4224854 C60.1749818,18.227847 60.1739723,17.9112661 60.3686108,17.7153823 C60.5632492,17.5194984 60.8798301,17.5184889 61.0757139,17.7131274 C63.0130036,19.6381008 64.6709156,21.8207979 65.9963873,24.1964803 C66.1309318,24.4376284 66.0445125,24.7421874 65.8033644,24.8767319 C65.5622163,25.0112763 65.2576573,24.924857 65.1231129,24.683709 C63.8432769,22.3898208 62.242119,20.2818424 60.3708656,18.4224854 Z M68.3254526,34.0720032 C68.2847606,33.7988754 68.473187,33.5444743 68.7463148,33.5037823 C69.0194426,33.4630903 69.2738437,33.6515167 69.3145357,33.9246445 C69.5233842,35.3264517 69.6289398,36.7487543 69.6289398,38.1839235 C69.6289398,39.4327006 69.5490217,40.6718356 69.3906326,41.896339 C69.3552088,42.1701999 69.104484,42.3634913 68.8306232,42.3280675 C68.5567623,42.2926437 68.3634709,42.0419189 68.3988947,41.7680581 C68.5517852,40.5860643 68.6289398,39.3897778 68.6289398,38.1839235 C68.6289398,36.7981195 68.5270395,35.4250703 68.3254526,34.0720032 Z M65.4353513,51.1087212 C65.5641923,50.8644783 65.8666365,50.7709265 66.1108795,50.8997674 C66.3551224,51.0286083 66.4486743,51.3310526 66.3198333,51.5752956 C65.0503587,53.9818307 63.4435656,56.2022705 61.5511072,58.1713465 C61.3597569,58.3704437 61.0432367,58.3767238 60.8441395,58.1853736 C60.6450423,57.9940234 60.6387622,57.6775032 60.8301124,57.478406 C62.6579717,55.5765445 64.2096643,53.4322484 65.4353513,51.1087212 Z M52.9057619,63.2828856 C53.1532755,63.1604453 53.4531824,63.2618373 53.5756226,63.5093509 C53.6980629,63.7568645 53.5966709,64.0567714 53.3491573,64.1792117 C50.9167259,65.3824891 48.322268,66.2490796 45.6284692,66.7490131 C45.3569629,66.7994011 45.0960161,66.6201493 45.0456281,66.348643 C44.9952401,66.0771367 45.1744919,65.8161899 45.4459982,65.7658019 C48.0489282,65.2827324 50.5556121,64.4454598 52.9057619,63.2828856 Z"/>
    <rect width="77" height="77"/>
    <path fill="url(#principle-a)" fill-rule="nonzero" d="M39.2712708,54.1712805 C42.5645833,54.1712805 45.2337917,51.5298501 45.2337917,48.2712237 C45.2337917,45.0125973 42.5639792,42.3711668 39.2712708,42.3711668 C35.9785625,42.3711668 33.30875,45.0125973 33.30875,48.2712237 C33.3081458,51.5298501 35.9779583,54.1712805 39.2712708,54.1712805 Z M10.0060417,64.3616316 L10,28.6948014 C10,12.8468204 22.9835417,0 39,0 C55.0164583,0 68,12.8468204 68,28.6948014 C68,44.5427824 55.287125,57.3896027 39.2712708,57.3896027 C34.1817708,57.3896027 30.0565208,53.3074468 30.0565208,48.2718252 C30.0565208,43.2362037 34.182375,39.1540477 39.2712708,39.1540477 C45.1087292,39.1540477 49.5705,34.4715393 49.5705,28.6954029 C49.5705,22.9192665 44.8380625,18.2367581 39.0006042,18.2367581 C33.1631458,18.2367581 28.4307083,22.9192665 28.4307083,28.6941998 L28.4373542,67.8813331 C28.4391667,76.7181842 18.7006042,79.1322266 13.3815208,75.1234604 C14.9414792,74.0593086 15.9637292,72.2793057 15.9637292,70.2628915 C15.9625208,67.0054682 13.2963333,64.3652409 10.0060417,64.3616316 Z"/>
  </g>
</svg>
