<svg width="140" height="140" viewBox="0 0 140 140" fill="none" xmlns="http://www.w3.org/2000/svg">
<g clip-path="url(#clip0)">
<path fill-rule="evenodd" clip-rule="evenodd" d="M117.037 90.0674C112.68 87.7954 108.313 85.544 103.935 83.3134L102.59 82.6264C97.4926 80.0244 94.9956 78.7574 89.1266 75.7444C89.1096 71.8694 89.0996 69.9224 89.0806 65.9584C89.0256 55.0384 96.5336 48.6434 103.751 52.6964C113.046 57.9164 117.408 70.2494 117.361 80.4464C117.233 84.3454 117.167 86.2604 117.037 90.0664V90.0674ZM107.02 116.518C106.895 121.642 106.778 126.766 106.669 131.89C106.629 133.713 105.687 134.812 104.619 134.254C102.855 133.336 101.989 132.884 100.221 131.961C99.1506 131.405 98.2496 129.349 98.2636 127.517C98.3086 121.117 98.3346 118.059 98.3836 112.057C97.3066 109.849 96.6606 107.255 96.6756 104.786C96.7016 100.106 99.2356 97.4464 102.321 98.8474C102.649 98.9964 103.302 99.3324 103.627 99.5184C106.699 101.281 109.047 106.46 108.918 111.096C108.851 113.543 108.143 115.446 107.02 116.518ZM68.8496 72.5524L68.9126 123.359C68.9176 128.059 72.1246 133.704 75.5006 135.406C75.9686 135.646 83.2016 150.456 83.6716 150.696L68.8496 72.5524ZM88.8536 142.271C102.221 149.185 115.548 156.161 128.989 162.95C132.375 164.638 135.599 162.178 135.616 157.5C135.69 142.826 135.814 126.115 136.001 107.365C136.041 103.39 133.333 98.6754 130.311 97.0654L128.383 96.0404C128.483 92.2324 128.534 90.3184 128.631 86.4184C128.587 70.2544 120.757 46.0904 104.678 37.2144C104.318 37.0244 103.594 36.6614 103.232 36.4894C87.0316 29.8214 77.1966 46.9664 77.0066 59.7024" fill="white"/>
<path fill-rule="evenodd" clip-rule="evenodd" d="M117.037 90.0677C112.68 87.7957 108.313 85.5443 103.935 83.3137L102.59 82.6267C97.4926 80.0247 94.9956 78.7577 89.1266 75.7447C89.1096 71.8697 89.0996 69.9227 89.0806 65.9587C89.0256 55.0387 96.5336 48.6437 103.751 52.6967C113.046 57.9167 117.408 70.2497 117.361 80.4467C117.233 84.3457 117.167 86.2607 117.037 90.0667V90.0677ZM107.02 116.518C106.895 121.642 106.778 126.766 106.669 131.891C106.629 133.714 105.687 134.813 104.619 134.255C102.855 133.337 101.989 132.885 100.221 131.962C99.1506 131.406 98.2496 129.35 98.2636 127.518C98.3086 121.118 98.3346 118.06 98.3836 112.058C97.3066 109.85 96.6606 107.256 96.6756 104.787C96.7016 100.107 99.2356 97.4467 102.321 98.8477C102.649 98.9967 103.302 99.3327 103.627 99.5187C106.699 101.282 109.047 106.461 108.918 111.097C108.851 113.544 108.143 115.447 107.02 116.519V116.518ZM68.8496 72.5527L68.9126 123.36C68.9176 128.06 72.1246 133.705 75.5006 135.407C75.9686 135.647 83.2016 150.457 83.6716 150.697C75.8576 145.977 71.7026 142.308 71.2056 139.691C68.4086 124.943 67.6236 102.564 68.8496 72.5527ZM89.1266 148.018C102.495 154.932 115.548 156.161 128.989 162.951C132.375 164.639 135.599 162.179 135.616 157.501C135.69 142.827 135.814 126.116 136.001 107.366C136.041 103.391 133.333 98.6757 130.311 97.0657L128.383 96.0407C128.483 92.2327 128.534 90.3187 128.631 86.4187C128.587 70.2547 120.757 46.0907 104.678 37.2147C104.318 37.0247 103.594 36.6617 103.232 36.4897C87.0316 29.8217 64.3276 58.0327 64.1376 70.7697C62.9496 104.191 64.5206 127.165 68.8496 139.69C70.0126 143.054 76.7716 145.83 89.1266 148.018Z" stroke="black" stroke-width="1.5" stroke-linejoin="round"/>
<path fill-rule="evenodd" clip-rule="evenodd" d="M70.0273 46.7153L91.8233 35.2083C91.8233 35.2083 101.699 33.1953 111.873 41.6843C131.163 57.7813 128.844 95.3083 128.844 95.3083L109.83 105.19L95.8803 65.3673L70.0283 46.7153H70.0273Z" fill="white"/>
<path fill-rule="evenodd" clip-rule="evenodd" d="M70.0273 46.7153L91.8233 35.2083C91.8233 35.2083 101.699 33.1953 111.873 41.6843C131.163 57.7813 128.844 95.3083 128.844 95.3083L109.83 105.19L95.8803 65.3673L70.0283 46.7153H70.0273Z" stroke="black" stroke-width="1.5" stroke-linejoin="round"/>
<path fill-rule="evenodd" clip-rule="evenodd" d="M116.903 111.811L133.603 102.811L134.743 155.99C134.743 155.99 135.707 162.052 125.397 165.863C122.02 167.111 111.26 156.279 111.26 156.279L116.903 111.811Z" fill="white"/>
<path fill-rule="evenodd" clip-rule="evenodd" d="M97.607 99.5841C92.082 96.6701 89.685 95.4291 84.664 92.8301C84.134 92.5551 83.866 92.4181 83.334 92.1431C78.3 89.5411 75.831 88.2741 70.034 85.2611C70.017 81.3861 70.008 79.4391 69.987 75.4751C69.933 64.5551 77.353 58.1611 84.481 62.2141C93.664 67.4321 97.974 79.7661 97.928 89.9631C97.801 93.8631 97.738 95.7771 97.608 99.5841H97.607ZM87.712 126.034C87.57 131.999 87.499 135.04 87.364 141.407C87.324 143.23 86.395 144.33 85.34 143.772C83.596 142.852 82.74 142.402 80.995 141.478C79.936 140.922 79.047 138.866 79.06 137.034C79.105 130.634 79.13 127.576 79.18 121.574C78.114 119.367 77.478 116.773 77.493 114.303C77.518 109.623 80.022 106.963 83.07 108.364C83.394 108.514 84.038 108.85 84.359 109.036C87.394 110.798 89.713 115.976 89.588 120.614C89.521 123.061 88.822 124.963 87.712 126.034ZM110.722 106.584C109.948 106.164 109.567 105.959 108.818 105.557C108.917 101.751 108.966 99.8351 109.061 95.9361C109.02 79.7711 101.284 55.6061 85.397 46.7311C84.9246 46.4814 84.4479 46.24 83.967 46.0071C67.964 39.3391 58.248 56.4831 58.06 69.2201C58.094 73.1961 58.108 75.1501 58.141 79.0371C57.341 78.6151 56.931 78.4001 56.103 77.9621C52.903 76.2731 49.995 78.0231 50 82.0681L50.062 132.875C50.067 137.575 53.235 143.222 56.571 144.922C74.225 154.04 91.721 163.419 109.416 172.466C112.762 174.154 115.946 171.695 115.964 167.016C116.045 150.304 115.504 133.656 115.667 116.945C115.707 112.969 113.707 108.192 110.723 106.583L110.722 106.584Z" fill="white"/>
<path fill-rule="evenodd" clip-rule="evenodd" d="M83.6901 108.897C87.2371 110.677 90.7841 116.019 89.8971 120.471C89.0101 124.923 88.1241 124.923 88.1241 126.703C88.1241 128.483 88.2621 142.729 86.8631 143.619C85.4631 144.509 79.2581 140.949 79.2581 140.059V122.251C79.2581 121.361 76.5981 112.457 78.3711 110.676C80.1441 108.896 80.1441 107.116 83.6911 108.896L83.6901 108.897Z" fill="#9595EF"/>
<path fill-rule="evenodd" clip-rule="evenodd" d="M97.607 99.5841C92.082 96.6701 89.685 95.4291 84.664 92.8301C84.134 92.5551 83.866 92.4181 83.334 92.1431C78.3 89.5411 75.831 88.2741 70.034 85.2611C70.017 81.3861 70.008 79.4391 69.987 75.4751C69.933 64.5551 77.353 58.1611 84.481 62.2141C93.664 67.4321 97.974 79.7661 97.928 89.9631C97.801 93.8631 97.738 95.7771 97.608 99.5841H97.607V99.5841ZM87.712 126.034C87.57 131.999 87.499 135.04 87.364 141.407C87.324 143.23 86.395 144.33 85.34 143.772C83.596 142.852 82.74 142.402 80.995 141.478C79.936 140.922 79.047 138.866 79.06 137.034C79.105 130.634 79.13 127.576 79.18 121.574C78.114 119.367 77.478 116.773 77.493 114.303C77.518 109.623 80.022 106.963 83.07 108.364C83.394 108.514 84.038 108.85 84.359 109.036C87.394 110.798 89.713 115.976 89.588 120.614C89.521 123.061 88.822 124.963 87.712 126.034ZM110.722 106.584C109.948 106.164 109.567 105.959 108.818 105.557C108.917 101.751 108.966 99.8351 109.061 95.9361C109.02 79.7711 101.284 55.6061 85.397 46.7311C84.9246 46.4814 84.4479 46.24 83.967 46.0071C67.964 39.3391 58.248 56.4831 58.06 69.2201C58.094 73.1961 58.108 75.1501 58.141 79.0371C57.341 78.6151 56.931 78.4001 56.103 77.9621C52.903 76.2731 49.995 78.0231 50 82.0681L50.062 132.875C50.067 137.575 53.235 143.222 56.571 144.922C74.225 154.04 91.721 163.419 109.416 172.466C112.762 174.154 115.946 171.695 115.964 167.016C116.045 150.304 115.504 133.656 115.667 116.945C115.707 112.969 113.707 108.192 110.723 106.583L110.722 106.584Z" stroke="black" stroke-width="1.5" stroke-linecap="round" stroke-linejoin="round"/>
<path d="M70.0273 84.9662L88.8773 75.4482" stroke="black" stroke-width="1.5" stroke-linejoin="round"/>
<path fill-rule="evenodd" clip-rule="evenodd" d="M60.2025 130.515C60.3225 146.129 42.8815 156.002 29.3375 148.106C14.5855 139.504 3.39852 121.542 3.00752 104.635C2.64052 88.7429 20.4805 77.2489 34.3985 85.5799C49.2275 94.4569 60.0705 113.328 60.2025 130.515Z" fill="#9595EF"/>
<path fill-rule="evenodd" clip-rule="evenodd" d="M60.2025 130.515C60.3225 146.129 42.8815 156.002 29.3375 148.106C14.5855 139.504 3.39852 121.542 3.00752 104.635C2.64052 88.7429 20.4805 77.2489 34.3985 85.5799C49.2275 94.4569 60.0705 113.328 60.2025 130.515Z" stroke="black" stroke-width="1.048"/>
<path fill-rule="evenodd" clip-rule="evenodd" d="M55.0523 133.835C55.1433 149.122 42.4513 157.718 28.7813 149.83C13.8763 141.229 3.42033 121.788 3.00733 104.636C2.65033 89.7545 15.3843 80.5055 28.7833 88.5855C43.3333 97.3595 54.9513 116.902 55.0523 133.835Z" fill="white"/>
<path fill-rule="evenodd" clip-rule="evenodd" d="M55.0523 133.835C55.1433 149.122 42.4513 157.718 28.7813 149.83C13.8763 141.229 3.42033 121.788 3.00733 104.636C2.65033 89.7545 15.3843 80.5055 28.7833 88.5855C43.3333 97.3595 54.9513 116.902 55.0523 133.835Z" stroke="black" stroke-width="1.048"/>
<path d="M9.19727 89.8096C14.1373 97.5576 21.0543 104.542 28.9183 108.339C34.6073 111.086 41.5743 113.888 48.1223 111.162" stroke="black" stroke-width="1.266" stroke-linecap="round" stroke-linejoin="round"/>
<path d="M8.75781 126.898C15.9358 124.335 23.1428 127.579 29.1168 130.786C36.6568 134.835 43.5868 141.463 48.3468 149.161" stroke="black" stroke-width="1.266" stroke-linecap="round" stroke-linejoin="round"/>
<path d="M26.6185 87.9375C17.9625 92.4595 15.9585 103.518 15.5985 111.805C15.0745 123.893 19.7645 137.333 26.4795 148.105" stroke="black" stroke-width="1.192" stroke-linecap="round" stroke-linejoin="round"/>
<path d="M32.1523 91.082C38.6373 101.823 43.7973 115.31 43.3503 127.485C43.0413 135.911 41.3233 147.147 32.3613 151.43" stroke="black" stroke-width="1.192" stroke-linecap="round" stroke-linejoin="round"/>
<path d="M29.3066 89.5205C29.3166 109.515 29.3276 129.51 29.3376 149.505" stroke="black" stroke-width="1.192" stroke-linecap="round" stroke-linejoin="round"/>
<path d="M3.64648 105.888C20.9905 115.21 36.9715 123.442 54.4135 132.581" stroke="black" stroke-width="1.192" stroke-linecap="round" stroke-linejoin="round"/>
</g>
<defs>
<clipPath id="clip0">
<rect width="140" height="140" fill="white"/>
</clipPath>
</defs>
</svg>
