<svg id="Слой_1" data-name="Слой 1" xmlns="http://www.w3.org/2000/svg" width="829.75" height="676.49" viewBox="0 0 829.75 676.49"><title>process-main-bg_ok</title><path d="M625.22,319.27c10.61,89.61-80.23,133.52-273.85,129.1S175.72,300.52,224.64,221.66c24.46-39.43,84.5-111.55,143.14-124.74s114,46.33,143.33,77.27C571.41,237.68,614.62,229.66,625.22,319.27Z" style="fill:#9595ef"/><path d="M669,336.72c12.84,108.57-97.21,161.77-331.8,156.41S124.43,314,183.7,218.46C213.33,170.69,286.07,83.31,357.12,67.33S495.18,123.47,530.78,161C603.84,237.87,656.19,228.16,669,336.72Z" style="fill:none;stroke:#bdbdbd"/><path d="M741.29,378.37C757.35,514.1,619.75,580.61,326.47,573.91S60.41,350,134.51,230.52c37.05-59.73,128-169,216.82-189s172.6,70.18,217.1,117.05C659.77,254.79,725.22,242.64,741.29,378.37Z" style="fill:none;stroke:#bdbdbd;opacity:0.6000000238418579;isolation:isolate"/><path d="M827.66,428.94C848,600.11,674.44,683.94,304.6,675.39S-31,392.9,62.46,242.28C109.17,167,223.83,29.23,335.84,4.08s217.67,88.56,273.8,147.67C724.85,273.06,807.38,257.77,827.66,428.94Z" style="fill:none;stroke:#bdbdbd;opacity:0.30000001192092896;isolation:isolate"/><path d="M527.39,312.12c0,25-49.63,45.21-110.85,45.21s-110.86-20.24-110.86-45.21V246.57H527.39Z" style="fill:#fff"/><path d="M527.39,312.12c0,25-49.63,45.21-110.85,45.21s-110.86-20.24-110.86-45.21V246.57H527.39Z" style="fill:none;stroke:#000;stroke-linejoin:round;stroke-width:2px"/><path d="M527.39,248.11c0,24.64-49.63,44.61-110.85,44.61s-110.86-20-110.86-44.61,49.63-44.61,110.86-44.61S527.39,223.47,527.39,248.11Z" style="fill:#fff"/><path d="M527.39,248.11c0,24.64-49.63,44.61-110.85,44.61s-110.86-20-110.86-44.61,49.63-44.61,110.86-44.61S527.39,223.47,527.39,248.11Z" style="fill:none;stroke:#000;stroke-linejoin:round;stroke-width:2px"/><path d="M527.39,222.9c0,25-49.63,45.21-110.85,45.21S305.68,247.87,305.68,222.9V157.35H527.39Z" style="fill:#9595ef"/><path d="M527.39,222.9c0,25-49.63,45.21-110.85,45.21S305.68,247.87,305.68,222.9V157.35H527.39Z" style="fill:none;stroke:#000;stroke-width:2px"/><path d="M527.39,158.89c0,24.64-49.63,44.61-110.85,44.61s-110.86-20-110.86-44.61,49.63-44.61,110.86-44.61S527.39,134.25,527.39,158.89Z" style="fill:#9595ef"/><path d="M527.39,158.89c0,24.64-49.63,44.61-110.85,44.61s-110.86-20-110.86-44.61,49.63-44.61,110.86-44.61S527.39,134.25,527.39,158.89Z" style="fill:none;stroke:#000;stroke-width:2px"/><path d="M527.39,130.6c0,25-49.63,45.21-110.85,45.21S305.68,155.57,305.68,130.6V65.06H527.39Z" style="fill:#fff"/><path d="M527.39,130.6c0,25-49.63,45.21-110.85,45.21S305.68,155.57,305.68,130.6V65.06H527.39Z" style="fill:none;stroke:#000;stroke-linejoin:round;stroke-width:2px"/><path d="M527.39,66.6c0,24.63-49.63,44.6-110.85,44.6s-110.86-20-110.86-44.6S355.31,22,416.54,22,527.39,42,527.39,66.6Z" style="fill:#fff"/><path d="M527.39,66.6c0,24.63-49.63,44.6-110.85,44.6s-110.86-20-110.86-44.6S355.31,22,416.54,22,527.39,42,527.39,66.6Z" style="fill:none;stroke:#000;stroke-linejoin:round;stroke-width:2px"/><path d="M309.58,192.58l-56.79-33.4c-1.91-1.13-3.64-1.23-4.89-.49l-18,10.66h0c-1.24.72-2,2.28-2,4.49l-.14,51.6a15.4,15.4,0,0,0,6.85,12.09c2,1.2,3.85,1.23,5.11.33a1.12,1.12,0,0,1-.22.16l4.46-2.64-.06,21.48-.17,59.65a15.47,15.47,0,0,0,6.85,12.09c2,1.19,3.85,1.23,5.11.33l-.22.16,12.67-7.51,0,9.11a15.79,15.79,0,0,0,6.85,12.25c2,1.2,3.85,1.23,5.12.34-.08.05-.15.11-.23.15l18-10.66c1.23-.73,2-2.29,2-4.5L300,269.2l14.26-8.44c1.23-.73,2-2.28,2-4.49l.14-51.6A15.41,15.41,0,0,0,309.58,192.58Z" style="fill:#fff"/><path d="M309.58,192.58l-56.79-33.4c-1.91-1.13-3.64-1.23-4.89-.49l-18,10.66h0c-1.24.72-2,2.28-2,4.49l-.14,51.6a15.4,15.4,0,0,0,6.85,12.09c2,1.2,3.85,1.23,5.11.33a1.12,1.12,0,0,1-.22.16l4.46-2.64-.06,21.48-.17,59.65a15.47,15.47,0,0,0,6.85,12.09c2,1.19,3.85,1.23,5.11.33l-.22.16,12.67-7.51,0,9.11a15.79,15.79,0,0,0,6.85,12.25c2,1.2,3.85,1.23,5.12.34-.08.05-.15.11-.23.15l18-10.66c1.23-.73,2-2.29,2-4.5L300,269.2l14.26-8.44c1.23-.73,2-2.28,2-4.49l.14-51.6A15.41,15.41,0,0,0,309.58,192.58Z" style="fill:none;stroke:#000;stroke-linejoin:round;stroke-width:2px"/><path d="M259.52,268.88a3.8,3.8,0,0,0-1.59,3.48l-.15,53.42c0,2.21-.78,3.76-2,4.49l18.39-10.67c1.26-.73,2-2.28,2-4.49l.15-53.42a3.8,3.8,0,0,1,1.59-3.48Z" style="fill:#fff"/><path d="M259.52,267.88a3.8,3.8,0,0,0-1.59,3.48l-.15,53.42c0,2.21-.78,3.76-2,4.49l18.39-10.67c1.26-.73,2-2.28,2-4.49l.15-53.42a3.8,3.8,0,0,1,1.59-3.48Z" style="fill:none;stroke:#000;stroke-linejoin:round;stroke-width:2px"/><path d="M241.85,190.42a.86.86,0,0,0-.39.79l-.13,42.54c0,2.16-.83,3.69-2.16,4.41l19.48-10.47c1.33-.72,2.16-2.24,2.17-4.41l.13-42.54a.83.83,0,0,1,.39-.78Z" style="fill:#fff"/><path d="M241.85,190.42a.86.86,0,0,0-.39.79l-.13,42.54c0,2.16-.83,3.69-2.16,4.41l19.48-10.47c1.33-.72,2.16-2.24,2.17-4.41l.13-42.54a.83.83,0,0,1,.39-.78Z" style="fill:none;stroke:#000;stroke-linejoin:round;stroke-width:2px"/><path d="M311.4,191.66l-58.19-33.48c-2-1.13-3.73-1.24-5-.49l-18.46,10.69c1.28-.74,3-.64,5,.49l58.19,33.49a12.88,12.88,0,0,1,3.26,2.79l-12.5,7.24a.89.89,0,0,0-.36.81l-.19,65.4L283,338.39c0,2.22-.79,3.78-2.05,4.51l18.46-10.69c1.26-.74,2.05-2.3,2.05-4.51l.17-59.22L316.22,260c1.27-.73,2-2.29,2.06-4.51l.14-51.73A15.4,15.4,0,0,0,311.4,191.66Z" style="fill:#fff"/><path d="M311.4,192.66l-58.19-33.48c-2-1.13-3.73-1.24-5-.49l-18.46,10.69c1.28-.74,3-.64,5,.49l58.19,33.49a12.88,12.88,0,0,1,3.26,2.79l-12.5,7.24a.89.89,0,0,0-.36.81l-.19,65.4L283,339.39c0,2.22-.79,3.78-2.05,4.51l18.46-10.69c1.26-.74,2.05-2.3,2.05-4.51l.17-59.22L316.22,261c1.27-.73,2-2.29,2.06-4.51l.14-51.73A15.4,15.4,0,0,0,311.4,192.66Z" style="fill:none;stroke:#000;stroke-linejoin:round;stroke-width:2px"/><path d="M283.24,124.89c-5.49-3.13-10.47-3.42-14.06-1.36L250.5,134.26l0,0c-3.57,2-5.79,6.37-5.8,12.55,0,12.4,8.78,27.5,19.69,33.73,5.84,3.33,11.08,3.43,14.71.92-.21.15-.42.31-.64.44l18.67-10.73c3.55-2,5.75-6.37,5.77-12.53C303,146.23,294.15,131.12,283.24,124.89Z" style="fill:#fff"/><path d="M283.24,124.89c-5.49-3.13-10.47-3.42-14.06-1.36L250.5,134.26l0,0c-3.57,2-5.79,6.37-5.8,12.55,0,12.4,8.78,27.5,19.69,33.73,5.84,3.33,11.08,3.43,14.71.92-.21.15-.42.31-.64.44l18.67-10.73c3.55-2,5.75-6.37,5.77-12.53C303,146.23,294.15,131.12,283.24,124.89Z" style="fill:none;stroke:#000;stroke-linejoin:round;stroke-width:2px"/><path d="M293.15,203.15a15.36,15.36,0,0,1,7,12.06L300,266.69c0,4.43-3.16,6.22-7,4a15.63,15.63,0,0,1-7-12.23l.12-43.07a2.75,2.75,0,0,0-1.25-2.16c-.69-.39-1.25-.08-1.25.72L283.41,279l-.17,59.5c0,4.43-3.16,6.22-7,4a15.63,15.63,0,0,1-7-12.22l.15-53.13a11.88,11.88,0,0,0-5.41-9.33c-3-1.72-5.43-.34-5.44,3.09l-.15,53.29c0,4.43-3.16,6.22-7,4a15.29,15.29,0,0,1-7-12.06l.16-59.5.19-65.08a2.75,2.75,0,0,0-1.25-2.15c-.69-.4-1.25-.08-1.25.71l-.13,43.24c0,4.44-3.16,6.23-7,4a15.33,15.33,0,0,1-7-12.06l.14-51.48c0-4.43,3.16-6.22,7-4Z" style="fill:#fff"/><path d="M293.15,203.15a15.36,15.36,0,0,1,7,12.06L300,266.69c0,4.43-3.16,6.22-7,4a15.63,15.63,0,0,1-7-12.23l.12-43.07a2.75,2.75,0,0,0-1.25-2.16c-.69-.39-1.25-.08-1.25.72L283.41,279l-.17,59.5c0,4.43-3.16,6.22-7,4a15.63,15.63,0,0,1-7-12.22l.15-53.13a11.88,11.88,0,0,0-5.41-9.33c-3-1.72-5.43-.34-5.44,3.09l-.15,53.29c0,4.43-3.16,6.22-7,4a15.29,15.29,0,0,1-7-12.06l.16-59.5.19-65.08a2.75,2.75,0,0,0-1.25-2.15c-.69-.4-1.25-.08-1.25.71l-.13,43.24c0,4.44-3.16,6.23-7,4a15.33,15.33,0,0,1-7-12.06l.14-51.48c0-4.43,3.16-6.22,7-4Z" style="fill:none;stroke:#000;stroke-linejoin:round;stroke-width:2px"/><path d="M264,180.07c-10.71-6.19-19.37-21.17-19.33-33.48s8.75-17.27,19.46-11.09,19.37,21.18,19.34,33.48S274.76,186.25,264,180.07Z" style="fill:#fff"/><path d="M264,180.07c-10.71-6.19-19.37-21.17-19.33-33.48s8.75-17.27,19.46-11.09,19.37,21.18,19.34,33.48S274.76,186.25,264,180.07Z" style="fill:none;stroke:#000;stroke-linejoin:round;stroke-width:2px"/><path d="M414.58,252.58l-56.79-33.4c-1.91-1.13-3.64-1.23-4.89-.49l-18,10.66h0c-1.24.72-2,2.28-2,4.49l-.14,51.6a15.42,15.42,0,0,0,6.85,12.09c2,1.2,3.85,1.23,5.11.33l-.22.16,4.46-2.64-.06,21.48-.17,59.65a15.47,15.47,0,0,0,6.85,12.09c2,1.19,3.85,1.23,5.11.33l-.22.16,12.67-7.5,0,9.1A15.83,15.83,0,0,0,379.94,403c2,1.19,3.85,1.22,5.12.33-.08.05-.15.11-.23.15l18-10.66c1.24-.73,2-2.29,2-4.5L405,329.2l14.26-8.44c1.23-.73,2-2.28,2-4.49l.14-51.6A15.41,15.41,0,0,0,414.58,252.58Z" style="fill:#fff"/><path d="M415.23,253.12l-56.78-33.4c-1.91-1.13-3.64-1.23-4.89-.49l-18,10.67h0c-1.24.73-2,2.28-2,4.5l-.15,51.6a15.47,15.47,0,0,0,6.86,12.09c2,1.19,3.85,1.23,5.11.32a1.84,1.84,0,0,1-.22.17l4.45-2.64,0,21.47-.17,59.65a15.42,15.42,0,0,0,6.85,12.09c2,1.2,3.84,1.23,5.11.34l-.22.15,12.66-7.5,0,9.1a15.78,15.78,0,0,0,6.85,12.26c2,1.19,3.85,1.22,5.11.33a1.7,1.7,0,0,1-.22.15l18-10.66c1.23-.73,2-2.29,2-4.49l.17-59.08,14.25-8.44c1.24-.72,2-2.28,2-4.49l.14-51.6A15.4,15.4,0,0,0,415.23,253.12Z" style="fill:none;stroke:#000;stroke-linejoin:round;stroke-width:2px"/><path d="M391.29,182.64c-5.49-3.14-10.46-3.43-14.06-1.36L358.56,192h0c-3.56,2-5.78,6.37-5.8,12.54,0,12.4,8.79,27.5,19.7,33.73,5.84,3.34,11.08,3.43,14.71.92a6.75,6.75,0,0,1-.65.44l18.68-10.72c3.55-2,5.74-6.38,5.76-12.54C411,204,402.21,188.86,391.29,182.64Z" style="fill:#fff"/><path d="M391.29,182.64c-5.49-3.14-10.46-3.43-14.06-1.36L358.56,192h0c-3.56,2-5.78,6.37-5.8,12.54,0,12.4,8.79,27.5,19.7,33.73,5.84,3.34,11.08,3.43,14.71.92a6.75,6.75,0,0,1-.65.44l18.68-10.72c3.55-2,5.74-6.38,5.76-12.54C411,204,402.21,188.86,391.29,182.64Z" style="fill:none;stroke:#000;stroke-linejoin:round;stroke-width:2px"/><path d="M364.89,326.43a3.75,3.75,0,0,0-1.58,3.47l-.16,53.42c0,2.21-.78,3.76-2,4.49l18.39-10.66c1.26-.73,2-2.29,2-4.5l.15-53.42a3.77,3.77,0,0,1,1.59-3.47Z" style="fill:#fff"/><path d="M364.89,326.43a3.75,3.75,0,0,0-1.58,3.47l-.16,53.42c0,2.21-.78,3.76-2,4.49l18.39-10.66c1.26-.73,2-2.29,2-4.5l.15-53.42a3.77,3.77,0,0,1,1.59-3.47Z" style="fill:none;stroke:#000;stroke-linejoin:round;stroke-width:2px"/><path d="M347.17,248.62a.84.84,0,0,0-.39.79L346.65,292c0,2.16-.84,3.69-2.17,4.41L364,285.89c1.34-.72,2.17-2.24,2.17-4.41l.13-42.54a.83.83,0,0,1,.39-.78Z" style="fill:#fff"/><path d="M347.17,248.62a.84.84,0,0,0-.39.79L346.65,292c0,2.16-.84,3.69-2.17,4.41L364,285.89c1.34-.72,2.17-2.24,2.17-4.41l.13-42.54a.83.83,0,0,1,.39-.78Z" style="fill:none;stroke:#000;stroke-linejoin:round;stroke-width:2px"/><path d="M414.77,253.54,357,220.17c-1.94-1.12-3.7-1.22-5-.49l-18.32,10.66c1.27-.74,3-.64,5,.49l57.74,33.36a12.4,12.4,0,0,1,3.23,2.79l-12.39,7.21a.85.85,0,0,0-.37.8l-.18,65.16-.17,59.58c0,2.2-.78,3.75-2,4.48l18.32-10.65c1.26-.73,2-2.28,2-4.49l.17-59,14.49-8.43c1.26-.73,2-2.28,2-4.49l.15-51.54A15.37,15.37,0,0,0,414.77,253.54Z" style="fill:#fff"/><path d="M416.4,253.66l-58.19-33.48c-2-1.13-3.73-1.24-5-.49l-18.46,10.69c1.28-.74,3.05-.64,5,.49l58.19,33.49a12.88,12.88,0,0,1,3.26,2.79l-12.5,7.24a.89.89,0,0,0-.36.81l-.19,65.4L388,400.4c0,2.21-.79,3.77-2.05,4.5l18.46-10.69c1.26-.74,2.05-2.3,2.05-4.51l.17-59.22L421.22,322c1.27-.73,2-2.29,2.06-4.5l.14-51.74A15.4,15.4,0,0,0,416.4,253.66Z" style="fill:none;stroke:#000;stroke-linejoin:round;stroke-width:2px"/><path d="M398.47,264.12a15.35,15.35,0,0,1,7,12.06l-.15,51.48c0,4.43-3.15,6.22-7,4a15.64,15.64,0,0,1-7-12.23l.12-43.07a2.68,2.68,0,0,0-1.24-2.15c-.7-.4-1.26-.09-1.26.71L388.73,340l-.17,59.5c0,4.43-3.16,6.22-7,4a15.64,15.64,0,0,1-7-12.22l.15-53.13a11.87,11.87,0,0,0-5.4-9.33c-3-1.72-5.43-.34-5.45,3.09l-.15,53.29c0,4.43-3.16,6.22-7,4a15.32,15.32,0,0,1-7-12.06l.17-59.5.19-65.08a2.75,2.75,0,0,0-1.25-2.15c-.69-.4-1.26-.08-1.26.71l-.12,43.24c0,4.44-3.16,6.22-7,4a15.36,15.36,0,0,1-7-12.06l.15-51.48c0-4.43,3.16-6.22,7-4Z" style="fill:#fff"/><path d="M398.47,264.12a15.35,15.35,0,0,1,7,12.06l-.15,51.48c0,4.43-3.15,6.22-7,4a15.64,15.64,0,0,1-7-12.23l.12-43.07a2.68,2.68,0,0,0-1.24-2.15c-.7-.4-1.26-.09-1.26.71L388.73,340l-.17,59.5c0,4.43-3.16,6.22-7,4a15.64,15.64,0,0,1-7-12.22l.15-53.13a11.87,11.87,0,0,0-5.4-9.33c-3-1.72-5.43-.34-5.45,3.09l-.15,53.29c0,4.43-3.16,6.22-7,4a15.32,15.32,0,0,1-7-12.06l.17-59.5.19-65.08a2.75,2.75,0,0,0-1.25-2.15c-.69-.4-1.26-.08-1.26.71l-.12,43.24c0,4.44-3.16,6.22-7,4a15.36,15.36,0,0,1-7-12.06l.15-51.48c0-4.43,3.16-6.22,7-4Z" style="fill:none;stroke:#000;stroke-linejoin:round;stroke-width:2px"/><path d="M372.13,238.27c-10.71-6.19-19.37-21.17-19.34-33.48s8.75-17.27,19.47-11.09,19.37,21.18,19.33,33.48S382.84,244.45,372.13,238.27Z" style="fill:#fff"/><path d="M372.13,238.27c-10.71-6.19-19.37-21.17-19.34-33.48s8.75-17.27,19.47-11.09,19.37,21.18,19.33,33.48S382.84,244.45,372.13,238.27Z" style="fill:none;stroke:#000;stroke-linejoin:round;stroke-width:2px"/></svg>