<svg width="182" height="129" viewBox="0 0 182 129" fill="none" xmlns="http://www.w3.org/2000/svg">
<path opacity="0.585045" fill-rule="evenodd" clip-rule="evenodd" d="M176.228 71.8839C185.518 97.7836 152.548 114.629 76.639 121.7C0.730113 128.771 -0.483561 85.8068 14.1016 60.4941C21.3943 47.8373 40.7097 24.0254 62.8662 17.6112C85.0228 11.1974 110.05 26.3127 123.307 34.1426C150.517 50.2117 166.937 45.9842 176.228 71.8839Z" fill="#9595EF"/>
<path fill-rule="evenodd" clip-rule="evenodd" d="M5.42559 63.5526L97.1551 11.8697C99.2439 10.6938 101.803 10.7109 103.875 11.9175L169.656 50.2003C174.139 52.8092 174.108 59.276 169.601 61.8416L79.542 113.115C77.4821 114.288 74.9541 114.295 72.8869 113.135L5.43464 75.2607C0.859349 72.6915 0.853916 66.1282 5.42559 63.5526Z" fill="white"/>
<path fill-rule="evenodd" clip-rule="evenodd" d="M5.42559 63.5526L97.1551 11.8697C99.2439 10.6938 101.803 10.7109 103.875 11.9175L169.656 50.2003C174.139 52.8092 174.108 59.276 169.601 61.8416L79.542 113.115C77.4821 114.288 74.9541 114.295 72.8869 113.135L5.43464 75.2607C0.859349 72.6915 0.853916 66.1282 5.42559 63.5526Z" stroke="black" stroke-width="2" stroke-linecap="round" stroke-linejoin="round"/>
<path fill-rule="evenodd" clip-rule="evenodd" d="M2.31265 57.8188C2.31265 57.8188 1.60919 69.262 2.31265 71.2619C3.01611 73.2608 3.36875 73.617 26.5893 86.7621C49.809 99.9081 70.8287 112.421 76.1888 113.966C80.2178 115.128 127.099 85.8916 127.099 85.8916L169.68 61.4496C169.68 61.4496 173.073 59.5906 172.999 54.5813C172.926 49.6947 172.549 43 172.549 43L2.31265 57.8188Z" fill="white"/>
<path fill-rule="evenodd" clip-rule="evenodd" d="M2.31265 57.8188C2.31265 57.8188 1.60919 69.262 2.31265 71.2619C3.01611 73.2608 3.36875 73.617 26.5893 86.7621C49.809 99.9081 70.8287 112.421 76.1888 113.966C80.2178 115.128 127.099 85.8916 127.099 85.8916L169.68 61.4496C169.68 61.4496 173.073 59.5906 172.999 54.5813C172.926 49.6947 172.549 43 172.549 43L2.31265 57.8188Z" stroke="black" stroke-linecap="round" stroke-linejoin="round"/>
<path fill-rule="evenodd" clip-rule="evenodd" d="M5.42559 53.5525L97.1551 1.86965C99.2439 0.693793 101.803 0.710939 103.875 1.91748L169.656 40.2002C174.139 42.8091 174.108 49.2759 169.601 51.8415L79.542 103.115C77.4821 104.288 74.9541 104.296 72.8869 103.134L5.43464 65.2605C0.859349 62.6913 0.853916 56.128 5.42559 53.5525Z" fill="white"/>
<path fill-rule="evenodd" clip-rule="evenodd" d="M5.42559 53.5525L97.1551 1.86965C99.2439 0.693793 101.803 0.710939 103.875 1.91748L169.656 40.2002C174.139 42.8091 174.108 49.2759 169.601 51.8415L79.542 103.115C77.4821 104.288 74.9541 104.296 72.8869 103.134L5.43464 65.2605C0.859349 62.6913 0.853916 56.128 5.42559 53.5525Z" stroke="black" stroke-width="2" stroke-linecap="round" stroke-linejoin="round"/>
<path fill-rule="evenodd" clip-rule="evenodd" d="M39.6444 44L111 83.8865C111 83.8865 85.4921 99.4761 82.949 100.922C80.405 102.367 77.5041 104.185 75.9118 103.985C74.3203 103.785 68.0446 100.584 65.7187 99.2646C63.3937 97.945 7.50434 66.2345 7.50434 66.2345L5 63.9375L39.6444 44Z" fill="#9595EF" fill-opacity="0.45"/>
<path fill-rule="evenodd" clip-rule="evenodd" d="M109.174 71.847L114.253 74.9798C114.312 75.005 114.378 75.007 114.439 74.9837L119.814 71.5858C120.052 71.4965 120.065 71.1265 119.833 71.0177L114.815 70.0243C114.752 69.9942 114.681 69.9922 114.617 70.0175L109.181 71.277C108.943 71.3722 108.938 71.7451 109.174 71.847Z" fill="white"/>
<path fill-rule="evenodd" clip-rule="evenodd" d="M109.174 71.847L114.253 74.9798C114.312 75.005 114.378 75.007 114.439 74.9837L119.814 71.5858C120.052 71.4965 120.065 71.1265 119.833 71.0177L114.815 70.0243C114.752 69.9942 114.681 69.9922 114.617 70.0175L109.181 71.277C108.943 71.3722 108.938 71.7451 109.174 71.847Z" stroke="black" stroke-width="0.5"/>
<path fill-rule="evenodd" clip-rule="evenodd" d="M109.344 69.3198C109.134 69.3903 108.995 69.5844 109 69.8005L109.046 71.7955C109.046 71.7955 108.935 71.9328 109.231 72.0454C109.525 72.1571 114.348 74.9075 114.725 74.9981C115.1 75.0897 120.576 71.8495 120.576 71.8495C120.576 71.8495 121.053 71.6188 120.995 71.5565C120.938 71.4952 120.928 69.4498 120.928 69.4498L115.333 66L109.344 69.3198Z" fill="white"/>
<path fill-rule="evenodd" clip-rule="evenodd" d="M109.344 69.3198C109.134 69.3903 108.995 69.5844 109 69.8005L109.046 71.7955C109.046 71.7955 108.935 71.9328 109.231 72.0454C109.525 72.1571 114.348 74.9075 114.725 74.9981C115.1 75.0897 120.576 71.8495 120.576 71.8495C120.576 71.8495 121.053 71.6188 120.995 71.5565C120.938 71.4952 120.928 69.4498 120.928 69.4498L115.333 66L109.344 69.3198Z" stroke="black" stroke-width="0.5"/>
<path fill-rule="evenodd" clip-rule="evenodd" d="M109.174 69.9743L114.253 72.9806C114.312 73.0048 114.378 73.0067 114.439 72.9843L119.814 69.7227C120.052 69.6379 120.065 69.2829 119.833 69.1776L114.815 66.0232C114.752 65.9943 114.681 65.9924 114.617 66.0176L109.181 69.4264C108.943 69.5187 108.938 69.8765 109.174 69.9743Z" fill="white"/>
<path fill-rule="evenodd" clip-rule="evenodd" d="M109.174 69.9743L114.253 72.9806C114.312 73.0048 114.378 73.0067 114.439 72.9843L119.814 69.7227C120.052 69.6379 120.065 69.2829 119.833 69.1776L114.815 66.0232C114.752 65.9943 114.681 65.9924 114.617 66.0176L109.181 69.4264C108.943 69.5187 108.938 69.8765 109.174 69.9743Z" stroke="black" stroke-width="0.5"/>
<path fill-rule="evenodd" clip-rule="evenodd" d="M123.094 66.3289L153.839 49L154.961 49.5163C155.015 49.5416 155.012 49.6177 154.956 49.6376L124.204 67L123.094 66.5961C122.969 66.5499 122.969 66.3751 123.094 66.3289Z" fill="white"/>
<path fill-rule="evenodd" clip-rule="evenodd" d="M123.094 66.3289L153.839 49L154.961 49.5163C155.015 49.5416 155.012 49.6177 154.956 49.6376L124.204 67L123.094 66.5961C122.969 66.5499 122.969 66.3751 123.094 66.3289Z" stroke="black" stroke-width="0.5"/>
<path fill-rule="evenodd" clip-rule="evenodd" d="M123.094 68.3289L153.839 51L154.961 51.5163C155.015 51.5416 155.012 51.6177 154.956 51.6376L124.204 69L123.094 68.5961C122.969 68.5499 122.969 68.3751 123.094 68.3289Z" fill="white"/>
<path fill-rule="evenodd" clip-rule="evenodd" d="M123.094 68.3289L153.839 51L154.961 51.5163C155.015 51.5416 155.012 51.6177 154.956 51.6376L124.204 69L123.094 68.5961C122.969 68.5499 122.969 68.3751 123.094 68.3289Z" stroke="black" stroke-width="0.5"/>
<path fill-rule="evenodd" clip-rule="evenodd" d="M124 65.894V67.7512C124 67.9234 124.173 68.0445 124.338 67.9844L153.788 51.219C153.868 51.1889 154 51.135 154 51.0502L153.963 49.08C153.963 49.0049 153.845 48.9846 153.772 49.0111L124 65.894Z" fill="white"/>
<path fill-rule="evenodd" clip-rule="evenodd" d="M124 65.894V67.7512C124 67.9234 124.173 68.0445 124.338 67.9844L153.788 51.219C153.868 51.1889 154 51.135 154 51.0502L153.963 49.08C153.963 49.0049 153.845 48.9846 153.772 49.0111L124 65.894Z" stroke="black" stroke-width="0.5"/>
<path fill-rule="evenodd" clip-rule="evenodd" d="M123 66.0863V68.2919C123 68.4719 123.079 68.6335 123.2 68.7L123.71 68.9793C123.85 69.055 124 68.9138 124 68.7062V66.5763L123.082 66.0075C123.043 65.9819 122.998 66.0249 123 66.0863Z" fill="white"/>
<path fill-rule="evenodd" clip-rule="evenodd" d="M123 66.0863V68.2919C123 68.4719 123.079 68.6335 123.2 68.7L123.71 68.9793C123.85 69.055 124 68.9138 124 68.7062V66.5763L123.082 66.0075C123.043 65.9819 122.998 66.0249 123 66.0863Z" stroke="black" stroke-width="0.5"/>
<path fill-rule="evenodd" clip-rule="evenodd" d="M118.095 63.3298L148.84 46L149.961 46.5172C150.016 46.5416 150.012 46.6186 149.956 46.6376L119.204 64L118.094 63.5961C117.968 63.5499 117.968 63.3751 118.095 63.3298Z" fill="white"/>
<path fill-rule="evenodd" clip-rule="evenodd" d="M118.095 63.3298L148.84 46L149.961 46.5172C150.016 46.5416 150.012 46.6186 149.956 46.6376L119.204 64L118.094 63.5961C117.968 63.5499 117.968 63.3751 118.095 63.3298Z" stroke="black" stroke-width="0.5"/>
<path fill-rule="evenodd" clip-rule="evenodd" d="M118.095 66.3298L148.84 49L149.961 49.5172C150.016 49.5416 150.012 49.6186 149.956 49.6376L119.204 67L118.094 66.5961C117.968 66.5508 117.968 66.3751 118.095 66.3298Z" fill="white"/>
<path fill-rule="evenodd" clip-rule="evenodd" d="M118.095 66.3298L148.84 49L149.961 49.5172C150.016 49.5416 150.012 49.6186 149.956 49.6376L119.204 67L118.094 66.5961C117.968 66.5508 117.968 66.3751 118.095 66.3298Z" stroke="black" stroke-width="0.5"/>
<path fill-rule="evenodd" clip-rule="evenodd" d="M119 63.894V65.7511C119 65.9243 119.174 66.0444 119.338 65.9843L148.788 49.2189C148.867 49.1898 149 49.135 149 49.0511L148.963 47.0809C148.963 47.0049 148.844 46.9846 148.772 47.0111L119 63.894Z" fill="white"/>
<path fill-rule="evenodd" clip-rule="evenodd" d="M119 63.894V65.7511C119 65.9243 119.174 66.0444 119.338 65.9843L148.788 49.2189C148.867 49.1898 149 49.135 149 49.0511L148.963 47.0809C148.963 47.0049 148.844 46.9846 148.772 47.0111L119 63.894Z" stroke="black" stroke-width="0.5"/>
<path fill-rule="evenodd" clip-rule="evenodd" d="M118 64.0859V66.2925C118 66.4725 118.079 66.6331 118.2 66.6996L118.711 66.9789C118.849 67.0556 119 66.9134 119 66.7068V64.5759L118.082 64.0071C118.042 63.9826 117.997 64.0245 118 64.0859Z" fill="white"/>
<path fill-rule="evenodd" clip-rule="evenodd" d="M118 64.0859V66.2925C118 66.4725 118.079 66.6331 118.2 66.6996L118.711 66.9789C118.849 67.0556 119 66.9134 119 66.7068V64.5759L118.082 64.0071C118.042 63.9826 117.997 64.0245 118 64.0859Z" stroke="black" stroke-width="0.5"/>
<path fill-rule="evenodd" clip-rule="evenodd" d="M96.1737 64.847L101.252 67.9798C101.312 68.005 101.379 68.007 101.439 67.9837L106.814 64.5848C107.052 64.4965 107.065 64.1265 106.833 64.0177L101.815 63.0243C101.752 62.9942 101.682 62.9922 101.617 63.0175L96.1815 64.277C95.943 64.3722 95.9387 64.7451 96.1737 64.847Z" fill="white"/>
<path fill-rule="evenodd" clip-rule="evenodd" d="M96.1737 64.847L101.252 67.9798C101.312 68.005 101.379 68.007 101.439 67.9837L106.814 64.5848C107.052 64.4965 107.065 64.1265 106.833 64.0177L101.815 63.0243C101.752 62.9942 101.682 62.9922 101.617 63.0175L96.1815 64.277C95.943 64.3722 95.9387 64.7451 96.1737 64.847Z" stroke="black" stroke-width="0.5"/>
<path fill-rule="evenodd" clip-rule="evenodd" d="M96.343 62.3198C96.133 62.3903 95.9945 62.5844 96.0002 62.7996L96.0454 64.7955C96.0454 64.7955 95.9352 64.9328 96.23 65.0454C96.5248 65.1571 101.348 67.9075 101.724 67.9981C102.1 68.0888 107.576 64.8495 107.576 64.8495C107.576 64.8495 108.053 64.6188 107.995 64.5565C107.938 64.4952 107.928 62.4498 107.928 62.4498L102.333 59L96.343 62.3198Z" fill="white"/>
<path fill-rule="evenodd" clip-rule="evenodd" d="M96.343 62.3198C96.133 62.3903 95.9945 62.5844 96.0002 62.7996L96.0454 64.7955C96.0454 64.7955 95.9352 64.9328 96.23 65.0454C96.5248 65.1571 101.348 67.9075 101.724 67.9981C102.1 68.0888 107.576 64.8495 107.576 64.8495C107.576 64.8495 108.053 64.6188 107.995 64.5565C107.938 64.4952 107.928 62.4498 107.928 62.4498L102.333 59L96.343 62.3198Z" stroke="black" stroke-width="0.5"/>
<path fill-rule="evenodd" clip-rule="evenodd" d="M96.1737 62.9737L101.252 65.9799C101.312 66.0051 101.379 66.0069 101.439 65.9836L106.814 62.7231C107.052 62.6383 107.065 62.2823 106.833 62.1779L101.815 59.0236C101.752 58.9938 101.682 58.9929 101.617 59.0171L96.1815 62.4268C95.943 62.5181 95.9387 62.8759 96.1737 62.9737Z" fill="white"/>
<path fill-rule="evenodd" clip-rule="evenodd" d="M96.1737 62.9737L101.252 65.9799C101.312 66.0051 101.379 66.0069 101.439 65.9836L106.814 62.7231C107.052 62.6383 107.065 62.2823 106.833 62.1779L101.815 59.0236C101.752 58.9938 101.682 58.9929 101.617 59.0171L96.1815 62.4268C95.943 62.5181 95.9387 62.8759 96.1737 62.9737Z" stroke="black" stroke-width="0.5"/>
<path fill-rule="evenodd" clip-rule="evenodd" d="M110.095 58.3298L140.84 41L141.961 41.5172C142.016 41.5416 142.012 41.6186 141.956 41.6385L111.204 59L110.094 58.5961C109.968 58.5508 109.968 58.3751 110.095 58.3298Z" fill="white"/>
<path fill-rule="evenodd" clip-rule="evenodd" d="M110.095 58.3298L140.84 41L141.961 41.5172C142.016 41.5416 142.012 41.6186 141.956 41.6385L111.204 59L110.094 58.5961C109.968 58.5508 109.968 58.3751 110.095 58.3298Z" stroke="black" stroke-width="0.5"/>
<path fill-rule="evenodd" clip-rule="evenodd" d="M110.095 61.3289L140.84 44L141.961 44.5171C142.016 44.5425 142.012 44.6186 141.956 44.6385L111.204 62L110.094 61.5961C109.968 61.5499 109.968 61.3742 110.095 61.3289Z" fill="white"/>
<path fill-rule="evenodd" clip-rule="evenodd" d="M110.095 61.3289L140.84 44L141.961 44.5171C142.016 44.5425 142.012 44.6186 141.956 44.6385L111.204 62L110.094 61.5961C109.968 61.5499 109.968 61.3742 110.095 61.3289Z" stroke="black" stroke-width="0.5"/>
<path fill-rule="evenodd" clip-rule="evenodd" d="M111 58.8939V60.752C111 60.9242 111.174 61.0444 111.338 60.9843L140.788 44.2195C140.867 44.1895 141 44.1347 141 44.0508L140.963 42.0805C140.963 42.0045 140.844 41.9842 140.772 42.0116L111 58.8939Z" fill="white"/>
<path fill-rule="evenodd" clip-rule="evenodd" d="M111 58.8939V60.752C111 60.9242 111.174 61.0444 111.338 60.9843L140.788 44.2195C140.867 44.1895 141 44.1347 141 44.0508L140.963 42.0805C140.963 42.0045 140.844 41.9842 140.772 42.0116L111 58.8939Z" stroke="black" stroke-width="0.5"/>
<path fill-rule="evenodd" clip-rule="evenodd" d="M110 59.0853V61.2919C110 61.4719 110.079 61.6325 110.2 61.699L110.711 61.9793C110.849 62.055 111 61.9138 111 61.7062V59.5753L110.082 59.0075C110.042 58.982 109.998 59.0249 110 59.0853Z" fill="white"/>
<path fill-rule="evenodd" clip-rule="evenodd" d="M110 59.0853V61.2919C110 61.4719 110.079 61.6325 110.2 61.699L110.711 61.9793C110.849 62.055 111 61.9138 111 61.7062V59.5753L110.082 59.0075C110.042 58.982 109.998 59.0249 110 59.0853Z" stroke="black" stroke-width="0.5"/>
<path fill-rule="evenodd" clip-rule="evenodd" d="M105.094 56.3289L135.839 39L136.961 39.5172C137.015 39.5416 137.012 39.6177 136.956 39.6376L106.204 57L105.094 56.5961C104.969 56.5499 104.969 56.3751 105.094 56.3289Z" fill="white"/>
<path fill-rule="evenodd" clip-rule="evenodd" d="M105.094 56.3289L135.839 39L136.961 39.5172C137.015 39.5416 137.012 39.6177 136.956 39.6376L106.204 57L105.094 56.5961C104.969 56.5499 104.969 56.3751 105.094 56.3289Z" stroke="black" stroke-width="0.5"/>
<path fill-rule="evenodd" clip-rule="evenodd" d="M105.094 58.3298L135.839 41L136.961 41.5172C137.015 41.5416 137.012 41.6177 136.956 41.6376L106.204 59L105.094 58.5961C104.969 58.5499 104.969 58.3751 105.094 58.3298Z" fill="white"/>
<path fill-rule="evenodd" clip-rule="evenodd" d="M105.094 58.3298L135.839 41L136.961 41.5172C137.015 41.5416 137.012 41.6177 136.956 41.6376L106.204 59L105.094 58.5961C104.969 58.5499 104.969 58.3751 105.094 58.3298Z" stroke="black" stroke-width="0.5"/>
<path fill-rule="evenodd" clip-rule="evenodd" d="M106 56.894V58.7511C106 58.9243 106.173 59.0444 106.338 58.9843L135.788 42.219C135.868 42.1889 136 42.135 136 42.0502L135.963 40.08C135.963 40.0049 135.845 39.9846 135.772 40.0111L106 56.894Z" fill="white"/>
<path fill-rule="evenodd" clip-rule="evenodd" d="M106 56.894V58.7511C106 58.9243 106.173 59.0444 106.338 58.9843L135.788 42.219C135.868 42.1889 136 42.135 136 42.0502L135.963 40.08C135.963 40.0049 135.845 39.9846 135.772 40.0111L106 56.894Z" stroke="black" stroke-width="0.5"/>
<path fill-rule="evenodd" clip-rule="evenodd" d="M105 56.0863V58.2919C105 58.4719 105.079 58.6335 105.2 58.7L105.71 58.9793C105.85 59.055 106 58.9138 106 58.7062V56.5763L105.082 56.0075C105.043 55.9819 104.998 56.0249 105 56.0863Z" fill="white"/>
<path fill-rule="evenodd" clip-rule="evenodd" d="M105 56.0863V58.2919C105 58.4719 105.079 58.6335 105.2 58.7L105.71 58.9793C105.85 59.055 106 58.9138 106 58.7062V56.5763L105.082 56.0075C105.043 55.9819 104.998 56.0249 105 56.0863Z" stroke="black" stroke-width="0.5"/>
<path fill-rule="evenodd" clip-rule="evenodd" d="M82.1738 57.8467L87.2527 60.9794C87.3119 61.0057 87.3789 61.0066 87.439 60.9833L92.8147 57.5855C93.0524 57.4961 93.0646 57.1261 92.833 57.0164L87.8151 56.024C87.7524 55.9948 87.681 55.9919 87.6166 56.0172L82.1808 57.2767C81.9431 57.3718 81.9388 57.7447 82.1738 57.8467Z" fill="white"/>
<path fill-rule="evenodd" clip-rule="evenodd" d="M82.1738 57.8467L87.2527 60.9794C87.3119 61.0057 87.3789 61.0066 87.439 60.9833L92.8147 57.5855C93.0524 57.4961 93.0646 57.1261 92.833 57.0164L87.8151 56.024C87.7524 55.9948 87.681 55.9919 87.6166 56.0172L82.1808 57.2767C81.9431 57.3718 81.9388 57.7447 82.1738 57.8467Z" stroke="black" stroke-width="0.5"/>
<path fill-rule="evenodd" clip-rule="evenodd" d="M82.3439 54.3198C82.1338 54.3903 81.9954 54.5844 82.0001 54.8005L82.0463 56.7955C82.0463 56.7955 81.9351 56.9337 82.2308 57.0454C82.5247 57.1571 87.3483 59.9075 87.7249 59.9981C88.1007 60.0897 93.576 56.8495 93.576 56.8495C93.576 56.8495 94.0534 56.6188 93.9951 56.5565C93.9376 56.4952 93.9282 54.4498 93.9282 54.4498L88.3333 51L82.3439 54.3198Z" fill="white"/>
<path fill-rule="evenodd" clip-rule="evenodd" d="M82.3439 54.3198C82.1338 54.3903 81.9954 54.5844 82.0001 54.8005L82.0463 56.7955C82.0463 56.7955 81.9351 56.9337 82.2308 57.0454C82.5247 57.1571 87.3483 59.9075 87.7249 59.9981C88.1007 60.0897 93.576 56.8495 93.576 56.8495C93.576 56.8495 94.0534 56.6188 93.9951 56.5565C93.9376 56.4952 93.9282 54.4498 93.9282 54.4498L88.3333 51L82.3439 54.3198Z" stroke="black" stroke-width="0.5"/>
<path fill-rule="evenodd" clip-rule="evenodd" d="M82.1738 54.9743L87.2527 57.9806C87.3119 58.0048 87.3789 58.0067 87.439 57.9843L92.8147 54.7227C93.0524 54.6379 93.0646 54.2829 92.833 54.1785L87.8151 51.0232C87.7524 50.9943 87.681 50.9924 87.6166 51.0176L82.1808 54.4273C81.9431 54.5187 81.9388 54.8765 82.1738 54.9743Z" fill="white"/>
<path fill-rule="evenodd" clip-rule="evenodd" d="M82.1738 54.9743L87.2527 57.9806C87.3119 58.0048 87.3789 58.0067 87.439 57.9843L92.8147 54.7227C93.0524 54.6379 93.0646 54.2829 92.833 54.1785L87.8151 51.0232C87.7524 50.9943 87.681 50.9924 87.6166 51.0176L82.1808 54.4273C81.9431 54.5187 81.9388 54.8765 82.1738 54.9743Z" stroke="black" stroke-width="0.5"/>
<path fill-rule="evenodd" clip-rule="evenodd" d="M96.095 51.3289L126.84 34L127.961 34.5172C128.016 34.5416 128.012 34.6177 127.956 34.6376L97.2037 52L96.0941 51.5961C95.9685 51.5499 95.9685 51.3751 96.095 51.3289Z" fill="white"/>
<path fill-rule="evenodd" clip-rule="evenodd" d="M96.095 51.3289L126.84 34L127.961 34.5172C128.016 34.5416 128.012 34.6177 127.956 34.6376L97.2037 52L96.0941 51.5961C95.9685 51.5499 95.9685 51.3751 96.095 51.3289Z" stroke="black" stroke-width="0.5"/>
<path fill-rule="evenodd" clip-rule="evenodd" d="M96.095 53.3298L126.84 36L127.961 36.5172C128.016 36.5416 128.012 36.6177 127.956 36.6376L97.2037 54L96.0941 53.5961C95.9685 53.5499 95.9685 53.3751 96.095 53.3298Z" fill="white"/>
<path fill-rule="evenodd" clip-rule="evenodd" d="M96.095 53.3298L126.84 36L127.961 36.5172C128.016 36.5416 128.012 36.6177 127.956 36.6376L97.2037 54L96.0941 53.5961C95.9685 53.5499 95.9685 53.3751 96.095 53.3298Z" stroke="black" stroke-width="0.5"/>
<path fill-rule="evenodd" clip-rule="evenodd" d="M97 51.894V53.7511C97 53.9243 97.174 54.0444 97.3382 53.9843L126.788 37.219C126.868 37.1889 127 37.135 127 37.0502L126.963 35.08C126.963 35.0049 126.845 34.9846 126.773 35.0111L97 51.894Z" fill="white"/>
<path fill-rule="evenodd" clip-rule="evenodd" d="M97 51.894V53.7511C97 53.9243 97.174 54.0444 97.3382 53.9843L126.788 37.219C126.868 37.1889 127 37.135 127 37.0502L126.963 35.08C126.963 35.0049 126.845 34.9846 126.773 35.0111L97 51.894Z" stroke="black" stroke-width="0.5"/>
<path fill-rule="evenodd" clip-rule="evenodd" d="M96.0001 52.0863V54.2919C96.0001 54.4719 96.0784 54.6335 96.2001 54.7L96.7107 54.9793C96.8495 55.055 97 54.9138 97 54.7062V52.5763L96.082 52.0075C96.0422 51.9819 95.9972 52.0249 96.0001 52.0863Z" fill="white"/>
<path fill-rule="evenodd" clip-rule="evenodd" d="M96.0001 52.0863V54.2919C96.0001 54.4719 96.0784 54.6335 96.2001 54.7L96.7107 54.9793C96.8495 55.055 97 54.9138 97 54.7062V52.5763L96.082 52.0075C96.0422 51.9819 95.9972 52.0249 96.0001 52.0863Z" stroke="black" stroke-width="0.5"/>
<path fill-rule="evenodd" clip-rule="evenodd" d="M92.0946 49.3298L122.84 32L123.961 32.5172C124.016 32.5416 124.012 32.6186 123.956 32.6376L93.2042 50L92.0946 49.5961C91.968 49.5508 91.9689 49.3751 92.0946 49.3298Z" fill="white"/>
<path fill-rule="evenodd" clip-rule="evenodd" d="M92.0946 49.3298L122.84 32L123.961 32.5172C124.016 32.5416 124.012 32.6186 123.956 32.6376L93.2042 50L92.0946 49.5961C91.968 49.5508 91.9689 49.3751 92.0946 49.3298Z" stroke="black" stroke-width="0.5"/>
<path fill-rule="evenodd" clip-rule="evenodd" d="M92.0946 51.3289L122.84 34L123.961 34.518C124.016 34.5425 124.012 34.6186 123.956 34.6385L93.2042 52L92.0946 51.5952C91.968 51.5499 91.9689 51.3742 92.0946 51.3289Z" fill="white"/>
<path fill-rule="evenodd" clip-rule="evenodd" d="M92.0946 51.3289L122.84 34L123.961 34.518C124.016 34.5425 124.012 34.6186 123.956 34.6385L93.2042 52L92.0946 51.5952C91.968 51.5499 91.9689 51.3742 92.0946 51.3289Z" stroke="black" stroke-width="0.5"/>
<path fill-rule="evenodd" clip-rule="evenodd" d="M93 48.894V50.752C93 50.9242 93.1731 51.0444 93.3373 50.9843L122.788 34.2189C122.867 34.1898 123 34.135 123 34.0511L122.963 32.0809C122.963 32.0049 122.844 31.9846 122.772 32.0111L93 48.894Z" fill="white"/>
<path fill-rule="evenodd" clip-rule="evenodd" d="M93 48.894V50.752C93 50.9242 93.1731 51.0444 93.3373 50.9843L122.788 34.2189C122.867 34.1898 123 34.135 123 34.0511L122.963 32.0809C122.963 32.0049 122.844 31.9846 122.772 32.0111L93 48.894Z" stroke="black" stroke-width="0.5"/>
<path fill-rule="evenodd" clip-rule="evenodd" d="M91.0001 49.0853V51.2919C91.0001 51.472 91.079 51.6326 91.1999 51.6991L91.7102 51.9794C91.8488 52.0551 92 51.9129 92 51.7062V49.5753L91.0819 49.0075C91.0428 48.982 90.9979 49.0249 91.0001 49.0853Z" fill="white"/>
<path fill-rule="evenodd" clip-rule="evenodd" d="M91.0001 49.0853V51.2919C91.0001 51.472 91.079 51.6326 91.1999 51.6991L91.7102 51.9794C91.8488 52.0551 92 51.9129 92 51.7062V49.5753L91.0819 49.0075C91.0428 48.982 90.9979 49.0249 91.0001 49.0853Z" stroke="black" stroke-width="0.5"/>
<path fill-rule="evenodd" clip-rule="evenodd" d="M24.4167 66.1159L41.3529 56.3406L24.4167 66.1159Z" fill="white"/>
<path d="M24.4167 66.1159L41.3529 56.3406" stroke="white" stroke-width="4" stroke-linecap="round" stroke-linejoin="round"/>
<path fill-rule="evenodd" clip-rule="evenodd" d="M31.3333 70.5518L48.2704 60.7765L31.3333 70.5518Z" fill="white"/>
<path d="M31.3333 70.5518L48.2704 60.7765" stroke="white" stroke-width="4" stroke-linecap="round" stroke-linejoin="round"/>
<path fill-rule="evenodd" clip-rule="evenodd" d="M39.444 74.8059L56.3811 65.1113L39.444 74.8059Z" fill="white"/>
<path d="M39.444 74.8059L56.3811 65.1113" stroke="white" stroke-width="4" stroke-linecap="round" stroke-linejoin="round"/>
<path fill-rule="evenodd" clip-rule="evenodd" d="M47.662 79.7109L64.5991 70.0164L47.662 79.7109Z" fill="white"/>
<path d="M47.662 79.7109L64.5991 70.0164" stroke="white" stroke-width="4" stroke-linecap="round" stroke-linejoin="round"/>
<path fill-rule="evenodd" clip-rule="evenodd" d="M5.13014 64L109 4.97139C109 4.97139 103.775 1.40316 101.077 1.04616C98.3791 0.689157 96.0517 2.50474 95.1782 2.99573C94.3047 3.48673 4.14545 54.4122 4.14545 54.4122C4.14545 54.4122 1.76646 56.4886 2.01873 59.0208C2.42834 63.1349 5.13014 64 5.13014 64Z" fill="white"/>
<path fill-rule="evenodd" clip-rule="evenodd" d="M5.13014 64L109 4.97139C109 4.97139 103.775 1.40316 101.077 1.04616C98.3791 0.689157 96.0516 2.50474 95.1782 2.99573C94.3047 3.48673 4.14545 54.4122 4.14545 54.4122C4.14545 54.4122 1.76646 56.4886 2.01873 59.0208C2.42834 63.1349 5.13014 64 5.13014 64Z" stroke="black" stroke-linecap="round" stroke-linejoin="round"/>
<path fill-rule="evenodd" clip-rule="evenodd" d="M5.42559 53.5525L97.1551 1.86965C99.2439 0.693793 101.803 0.710939 103.875 1.91748L169.656 40.2002C174.139 42.8091 174.108 49.2759 169.601 51.8415L79.542 103.115C77.4821 104.288 74.9541 104.296 72.8869 103.134L5.43464 65.2605C0.859349 62.6913 0.853916 56.128 5.42559 53.5525Z" stroke="black" stroke-linecap="round" stroke-linejoin="round"/>
<path fill-rule="evenodd" clip-rule="evenodd" d="M56.0426 34.4864L88.6523 15.5424C89.9162 14.8096 91.4709 14.8196 92.7241 15.5707L111.006 26.4878C113.678 28.0902 113.661 32.028 110.975 33.6067L78.9233 52.4467C77.6747 53.1804 76.1361 53.185 74.882 52.4568L56.0426 41.6446C53.3191 40.0613 53.3191 36.0688 56.0426 34.4864Z" fill="white"/>
<path fill-rule="evenodd" clip-rule="evenodd" d="M56.0426 34.4864L88.6523 15.5424C89.9162 14.8096 91.4709 14.8196 92.7241 15.5707L111.006 26.4878C113.678 28.0902 113.661 32.028 110.975 33.6067L78.9233 52.4467C77.6747 53.1804 76.1361 53.185 74.882 52.4568L56.0426 41.6446C53.3191 40.0613 53.3191 36.0688 56.0426 34.4864Z" stroke="black"/>
<path fill-rule="evenodd" clip-rule="evenodd" d="M54 32.3504V39.8238C54 40.3749 54.2775 40.8881 54.7412 41.1935C58.5862 43.7199 76.1588 53.5172 77.6495 52.9786C83.4498 50.8851 111.939 33.7772 111.939 33.7772C111.939 33.7772 114.244 32.5004 113.979 30.6219C113.714 28.7425 113.999 25 113.999 25L54 32.3504Z" fill="white"/>
<path fill-rule="evenodd" clip-rule="evenodd" d="M54 32.3504V39.8238C54 40.3749 54.2775 40.8881 54.7412 41.1935C58.5862 43.7199 76.1588 53.5172 77.6495 52.9786C83.4498 50.8851 111.939 33.7772 111.939 33.7772C111.939 33.7772 114.244 32.5004 113.979 30.6219C113.714 28.7425 113.999 25 113.999 25L54 32.3504Z" stroke="black"/>
<path fill-rule="evenodd" clip-rule="evenodd" d="M56.0426 29.487L88.6523 10.5431C89.9162 9.80937 91.4709 9.8194 92.7241 10.5714L111.006 21.4875C113.678 23.0908 113.661 27.0276 110.975 28.6064L78.9233 47.4472C77.6747 48.1809 76.1361 48.1846 74.882 47.4563L56.0426 36.6452C53.3191 35.0619 53.3191 31.0685 56.0426 29.487Z" fill="white"/>
<path fill-rule="evenodd" clip-rule="evenodd" d="M56.0426 29.487L88.6523 10.5431C89.9162 9.80937 91.4709 9.8194 92.7241 10.5714L111.006 21.4875C113.678 23.0908 113.661 27.0276 110.975 28.6064L78.9233 47.4472C77.6747 48.1809 76.1361 48.1846 74.882 47.4563L56.0426 36.6452C53.3191 35.0619 53.3191 31.0685 56.0426 29.487Z" stroke="black"/>
<path fill-rule="evenodd" clip-rule="evenodd" d="M66.8522 42.4068C66.1962 42.0098 65.8718 41.2338 66.047 40.4848L68.1427 31.5462C68.246 30.6123 69.0818 29.9382 70.0128 30.0393L88.1053 32.971C88.9967 33.1154 89.8513 32.5622 90.0877 31.6879L92.0908 24.2958C92.5572 22.5705 94.0399 21.3154 95.813 21.1448L107.587 20.0079C107.941 19.9745 108.294 20.0476 108.606 20.219C109.645 20.7929 112.029 22.1473 112.329 22.659C113.363 24.4195 112.983 26.5914 112.632 27.7139C112.293 28.8013 92.9085 39.273 91.6972 39.9272C91.6585 39.9479 91.6208 39.9696 91.5839 39.994C90.6934 40.5661 79.1934 47.9382 78.0314 47.9978C76.8245 48.0619 73.1437 46.7228 71.5944 45.501C70.5448 44.6726 68.2326 43.2424 66.8522 42.4068Z" fill="#9595EF"/>
<path fill-rule="evenodd" clip-rule="evenodd" d="M56.0426 29.487L88.6523 10.5431C89.9162 9.80937 91.4709 9.8194 92.7241 10.5714L111.006 21.4875C113.678 23.0908 113.661 27.0276 110.975 28.6064L78.9233 47.4472C77.6747 48.1809 76.1361 48.1846 74.882 47.4563L56.0426 36.6452C53.3191 35.0619 53.3191 31.0685 56.0426 29.487Z" stroke="black"/>
<path fill-rule="evenodd" clip-rule="evenodd" d="M89 22.9995C89 24.6566 86.7623 26 84.0004 26C81.2386 26 79 24.6566 79 22.9995C79 21.3425 81.2386 20 84.0004 20C86.7623 20 89 21.3425 89 22.9995Z" fill="#9595EF"/>
</svg>
