<svg xmlns="http://www.w3.org/2000/svg" width="88" height="78" viewBox="0 0 88 78">
    <g fill="none" fill-rule="evenodd">
        <path fill="#A07FFF" fill-opacity=".08" stroke="#000" stroke-dasharray="8" stroke-linecap="round" stroke-linejoin="round" d="M51.5 77C71.106 77 87 61.106 87 41.5S71.106 6 51.5 6 16 21.894 16 41.5 31.894 77 51.5 77z"/>
        <path fill="#FFF" d="M35.5 71C55.106 71 71 55.106 71 35.5S55.106 0 35.5 0 0 15.894 0 35.5 15.894 71 35.5 71z"/>
        <path fill="#DA4E31" fill-rule="nonzero" d="M35.5 0C15.895 0 0 15.893 0 35.5 0 55.106 15.895 71 35.5 71 55.106 71 71 55.106 71 35.5 71 15.893 55.105 0 35.5 0zm0 66.442c-5.578 0-10.1-3.726-10.1-8.322h20.2c0 4.595-4.522 8.322-10.1 8.322zm16.683-11.078H18.816v-6.05h33.368v6.05zm-.12-9.165H18.912c-.11-.127-.223-.252-.33-.38-3.415-4.148-4.22-6.313-5-8.52-.014-.073 4.14.849 7.087 1.512 0 0 1.516.35 3.732.755-2.128-2.495-3.391-5.666-3.391-8.908 0-7.116 5.458-13.334 3.488-18.36 1.917.155 3.967 4.044 4.105 10.124 2.038-2.816 2.89-7.957 2.89-11.11 0-3.264 2.15-7.055 4.302-7.185-1.918 3.16.497 5.87 2.643 12.592.805 2.525.703 6.774 1.324 9.468.206-5.596 1.168-13.762 4.719-16.581-1.567 3.55.231 7.993 1.461 10.128 1.984 3.446 3.187 6.056 3.187 10.994 0 3.31-1.222 6.427-3.284 8.863 2.344-.44 3.963-.836 3.963-.836l7.613-1.485s-1.106 4.548-5.356 8.93z"/>
    </g>
</svg>
