<svg width="91" height="86" viewBox="0 0 91 86" fill="none" xmlns="http://www.w3.org/2000/svg">
<path d="M47.9672 84.4547C47.6939 84.4231 47.4467 84.6181 47.4134 84.8907C43.9687 84.447 40.6664 83.5488 37.5684 82.2584C37.6757 82.0055 37.5589 81.7132 37.3064 81.6041C34.5753 80.4244 32.0095 78.934 29.6536 77.1773C29.4331 77.0129 29.1214 77.0575 28.9558 77.2767C26.2478 75.2025 23.8228 72.7774 21.7486 70.0694C21.9677 69.9038 22.0123 69.5921 21.8479 69.3716C20.0913 67.0158 18.6009 64.45 17.4212 61.7188C17.3121 61.4663 17.0197 61.3495 16.7669 61.4568C15.4764 58.3588 14.5783 55.0565 14.1345 51.6119C14.4072 51.5786 14.6022 51.3313 14.5706 51.0581C14.4027 49.6071 14.3164 48.1311 14.3164 46.6347C14.3164 45.1383 14.4027 43.6623 14.5706 42.2113C14.6022 41.9381 14.4072 41.6908 14.1345 41.6575C14.5783 38.2129 15.4764 34.9105 16.7669 31.8126C17.0197 31.9199 17.3121 31.8031 17.4212 31.5505C18.6009 28.8194 20.0913 26.2536 21.8479 23.8978C22.0123 23.6772 21.9677 23.3656 21.7486 23.2C23.8228 20.492 26.2478 18.0669 28.9558 15.9927C29.1214 16.2118 29.4331 16.2565 29.6536 16.0921C32.0095 14.3354 34.5753 12.845 37.3064 11.6653C37.5589 11.5562 37.6757 11.2638 37.5684 11.011C40.6664 9.72055 43.9687 8.82243 47.4134 8.37868C47.4467 8.65131 47.6939 8.84631 47.9672 8.8147C49.4182 8.64685 50.8942 8.56055 52.3906 8.56055C53.8869 8.56055 55.363 8.64685 56.814 8.8147C57.0872 8.84631 57.3344 8.65132 57.3677 8.37868C60.8124 8.82243 64.1147 9.72055 67.2127 11.011C67.1054 11.2638 67.2222 11.5562 67.4747 11.6653C70.2059 12.845 72.7717 14.3354 75.1275 16.0921C75.348 16.2565 75.6597 16.2118 75.8253 15.9927C78.5333 18.0669 80.9584 20.492 83.0326 23.2C82.8134 23.3656 82.7688 23.6773 82.9332 23.8978C84.6899 26.2536 86.1803 28.8194 87.36 31.5506C87.469 31.8031 87.7614 31.9199 88.0142 31.8126C89.3047 34.9105 90.2028 38.2129 90.6466 41.6575C90.3739 41.6908 90.179 41.9381 90.2106 42.2113C90.3784 43.6623 90.4647 45.1383 90.4647 46.6347C90.4647 48.1311 90.3784 49.6071 90.2106 51.0581C90.179 51.3313 90.3739 51.5786 90.6466 51.6119C90.2028 55.0565 89.3047 58.3588 88.0142 61.4568C87.7614 61.3495 87.469 61.4663 87.36 61.7188C86.1803 64.45 84.6899 67.0158 82.9332 69.3716C82.7688 69.5921 82.8134 69.9038 83.0326 70.0694C80.9584 72.7774 78.5333 75.2025 75.8253 77.2767C75.6597 77.0576 75.348 77.0129 75.1275 77.1773C72.7717 78.934 70.2059 80.4244 67.4747 81.6041C67.2222 81.7132 67.1054 82.0056 67.2127 82.2584C64.1147 83.5488 60.8124 84.447 57.3677 84.8907C57.3344 84.6181 57.0872 84.4231 56.814 84.4547C55.363 84.6225 53.8869 84.7088 52.3906 84.7088C50.8942 84.7088 49.4182 84.6225 47.9672 84.4547Z" fill="#F7F7FE" stroke="black" stroke-linecap="round" stroke-linejoin="round" stroke-dasharray="8 10"/>
<path d="M80.6027 40.3014C80.6027 62.559 62.559 80.6027 40.3013 80.6027C18.0437 80.6027 0 62.559 0 40.3014C0 18.0437 18.0437 0 40.3013 0C62.559 0 80.6027 18.0437 80.6027 40.3014Z" fill="#E23237"/>
<path d="M80.6053 40.3414C80.6053 40.2105 80.5968 40.0819 80.5955 39.9513C72.5449 32.1953 64.4036 24.3396 64.1751 24.0695C58.4996 17.3578 50.0143 13.0957 40.5328 13.0957C23.4458 13.0957 9.59375 26.9387 9.59375 44.0146C9.59375 46.3768 9.86758 48.6742 10.3699 50.8842C21.5841 62.6909 32.0136 73.4281 39.8193 80.5902C39.9858 80.5924 40.1504 80.6028 40.3175 80.6028C62.5677 80.6028 80.6053 62.5773 80.6053 40.3414Z" fill="#B52E31"/>
<path d="M60.3504 43.5821H20.7864C20.786 43.5286 20.7826 43.4754 20.7826 43.4215C20.7826 32.4757 29.6406 23.6026 40.5685 23.6026C51.4958 23.6026 60.3545 32.4757 60.3545 43.4215C60.3545 43.4754 60.3507 43.5286 60.3504 43.5821ZM65.0322 42.6851H71.3532C71.013 34.7216 67.6716 27.5384 62.4291 22.2418L58.0646 26.6143L57.009 25.5573L61.3531 21.2059C56 16.2928 48.9117 13.2525 41.1161 13.0957V18.7295H39.624V13.102C31.8237 13.3174 24.7476 16.4238 19.4246 21.3954L23.3985 25.3759L22.3433 26.4329L18.3581 22.4408C13.2262 27.7178 9.95964 34.8195 9.6233 42.6851H15.4099V44.18H9.59375C9.60489 46.4438 9.86335 48.6996 10.3645 50.907H70.6123C71.1133 48.6996 71.3717 46.4438 71.383 44.18H65.0322V42.6851Z" fill="white"/>
</svg>
