<svg xmlns="http://www.w3.org/2000/svg" width="224" height="176" viewBox="0 0 224 176">
    <g fill="none" fill-rule="evenodd">
        <path fill="#9595EF" d="M70.508 49.798C45.526 68.306-15.164 78.363 2.018 120.92c15.843 39.243 50.548 46.89 118.424 42.872 80.17-4.746 99.056-25.82 99.056-55.462 0-29.643-18.886-48.915-46.25-58.532-27.364-9.617-77.757-18.507-102.74 0z" opacity=".57"/>
        <path fill="#FFF" d="M110.73 51.238L34.298 95.766c-3.073 1.79-3.063 6.245.018 8.022l101.166 58.994a9.104 9.104 0 0 0 9.015.047l72.888-41.601 4.255-2.43c3.123-1.757 3.15-6.256.049-8.052l-101.814-59.52a9.104 9.104 0 0 0-9.147.012"/>
        <path fill="#000" fill-rule="nonzero" d="M110.226 50.374a10.106 10.106 0 0 1 10.154-.012l101.81 59.519c3.773 2.183 3.74 7.652-.053 9.786l-4.256 2.43L144.99 163.7a10.106 10.106 0 0 1-10.01-.055L33.817 104.654c-3.746-2.16-3.759-7.576-.022-9.752l76.431-44.528zm1.007 1.728L34.802 96.63c-2.409 1.403-2.401 4.899.019 6.294l101.161 58.992a8.102 8.102 0 0 0 8.02.045l72.888-41.601 4.26-2.433c2.45-1.378 2.47-4.908.035-6.318l-101.81-59.518a8.104 8.104 0 0 0-8.142.011z"/>
        <path fill="#000" fill-rule="nonzero" d="M108 53.723L109.015 52l112.59 66.355-1.016 1.723z"/>
        <path fill="#FFF" d="M140.09 61.42L75.856 98.708c-2.475 1.437-2.476 5.055-.002 6.494l31.57 18.373a10.461 10.461 0 0 0 10.393.084l65.276-36.599c2.512-1.408 2.548-5.055.065-6.514l-32.5-19.1a10.459 10.459 0 0 0-10.57-.028"/>
        <path fill="#000" fill-rule="nonzero" d="M139.587 60.554a11.459 11.459 0 0 1 11.578.031l32.501 19.1c3.148 1.85 3.102 6.463-.083 8.248l-65.276 36.6a11.461 11.461 0 0 1-11.385-.093l-31.57-18.372c-3.137-1.826-3.136-6.401.003-8.224l64.232-37.29zm1.005 1.73L76.36 99.574c-1.812 1.052-1.813 3.711-.002 4.765l31.57 18.372a9.461 9.461 0 0 0 9.4.077l65.277-36.6c1.838-1.03 1.865-3.71.048-4.779l-32.502-19.1a9.459 9.459 0 0 0-9.56-.025z"/>
        <path fill="#9595EF" d="M165.678 103.874l-40.506 22.947a2.29 2.29 0 0 0-.002 3.996l19.908 11.307a6.741 6.741 0 0 0 6.555.051l41.165-22.522a2.292 2.292 0 0 0 .041-4.01l-20.496-11.753a6.738 6.738 0 0 0-6.665-.016"/>
        <path fill="#FFF" d="M47.746 55.391L2.872 81.216c-2.494 1.41-2.496 4.957-.004 6.369l31.811 18.018a10.794 10.794 0 0 0 10.473.083L91.08 80.54c2.53-1.382 2.567-4.958.065-6.389L58.396 55.419a10.792 10.792 0 0 0-10.65-.028"/>
        <path fill="#000" fill-rule="nonzero" d="M47.247 54.525a11.795 11.795 0 0 1 11.646.026l32.749 18.732c3.181 1.819 3.134 6.378-.082 8.134L45.63 106.564a11.794 11.794 0 0 1-11.444-.09L2.376 88.453c-3.17-1.794-3.167-6.317-.003-8.105l44.874-25.824zM3.364 82.087a2.646 2.646 0 0 0-.003 4.627l31.811 18.019a9.793 9.793 0 0 0 9.5.076l45.929-25.147a2.647 2.647 0 0 0 .048-4.643L57.9 56.287a9.792 9.792 0 0 0-9.659-.027L3.364 82.087zm44.874-25.825l.007-.004-.004.002-.003.002z"/>
        <path fill="#FFF" d="M159.768 117.388l-25.904 14.856c-2.484 1.407-2.486 4.947-.003 6.356l43.845 24.006a10.726 10.726 0 0 0 10.429.082l26.953-14.179c2.52-1.378 2.557-4.947.065-6.375l-44.78-24.718a10.726 10.726 0 0 0-10.605-.028"/>
        <path fill="#000" fill-rule="nonzero" d="M159.27 116.521a11.722 11.722 0 0 1 11.587.02l44.793 24.726c3.17 1.817 3.123 6.366-.097 8.127l-26.938 14.171a11.72 11.72 0 0 1-11.389-.082l-43.859-24.013c-3.158-1.793-3.155-6.306 0-8.093l25.904-14.856zm.993 1.736l-25.906 14.857c-1.808 1.025-1.81 3.59-.016 4.609l43.86 24.013a9.733 9.733 0 0 0 9.468.067l26.939-14.171c1.835-1.004 1.861-3.59.062-4.622l-44.794-24.726a9.726 9.726 0 0 0-9.613-.027zM10.802 99.2A1 1 0 0 1 12 100.8a15.967 15.967 0 0 0-2.74 2.582 1 1 0 0 1-1.538-1.277 17.965 17.965 0 0 1 3.08-2.906zm-6.576 10.65a1 1 0 0 1 1.975.317 16.696 16.696 0 0 0-.16 3.771 1 1 0 1 1-1.996.134 18.692 18.692 0 0 1 .181-4.222zm1.963 12.315a1 1 0 0 1 1.806-.86c.148.31.301.612.46.904.463.853.954 1.663 1.48 2.444a1 1 0 0 1-1.66 1.116 32.385 32.385 0 0 1-1.578-2.605 21.253 21.253 0 0 1-.508-.999zm7.554 9.788a1 1 0 1 1 1.309-1.513 29.312 29.312 0 0 0 3.087 2.332 1 1 0 1 1-1.098 1.672 31.312 31.312 0 0 1-3.298-2.491zm10.706 6.106a1 1 0 1 1 .649-1.892c1.216.417 2.465.764 3.74 1.04a1 1 0 1 1-.422 1.954 35.198 35.198 0 0 1-3.967-1.102zm12.2 1.94a1 1 0 1 1-.014-2c1.292-.01 2.59-.086 3.89-.23a1 1 0 0 1 .22 1.988 39.814 39.814 0 0 1-4.095.242zm12.15-1.85a1 1 0 0 1-.523-1.93 71.173 71.173 0 0 0 3.778-1.139 1 1 0 0 1 .629 1.899 73.172 73.172 0 0 1-3.884 1.17zm11.437-4.085a1 1 0 0 1-.803-1.832c1.187-.52 2.385-1.072 3.6-1.659a1 1 0 0 1 .87 1.8c-1.237.598-2.458 1.161-3.667 1.69zm10.83-5.427a1 1 0 1 1-.972-1.748 192.29 192.29 0 0 0 3.457-1.972 1 1 0 1 1 1.008 1.727c-1.196.698-2.356 1.36-3.492 1.993zm10.357-6.137a1 1 0 1 1-1.052-1.7 766.82 766.82 0 0 0 3.39-2.113 1 1 0 1 1 1.061 1.695 768.69 768.69 0 0 1-3.399 2.118z"/>
        <path fill="#FFF" d="M87 114a5 5 0 1 0 10 0 5 5 0 0 0-10 0"/>
        <path fill="#000" fill-rule="nonzero" d="M86 114a6 6 0 1 1 12 0 6 6 0 0 1-12 0zm2 0a4 4 0 1 0 8 0 4 4 0 0 0-8 0z"/>
        <path fill="#9595EF" d="M142 93.5c0 5.799-7.835 10.5-17.5 10.5S107 99.299 107 93.5 114.835 83 124.5 83 142 87.701 142 93.5" opacity=".57"/>
        <path fill="#9595EF" d="M137 93c0 3.866-5.372 7-12 7s-12-3.134-12-7 5.372-7 12-7 12 3.134 12 7"/>
        <path fill="#FFF" d="M119.844 125.207l4.176-12.683c.87-2.641 3.704-4.073 6.33-3.2 2.628.876 4.052 3.725 3.183 6.366l-4.278 12.992-.043.132 3.47-10.54c.87-2.64 3.704-4.072 6.33-3.198 2.627.874 4.052 3.724 3.183 6.365l-3.572 10.848-.283.857 2.892-8.781c.87-2.642 3.704-4.074 6.33-3.2 2.628.875 4.052 3.725 3.183 6.365l-8.48 25.751c-1.903 5.78-10.047 16.381-24.878 11.445-14.831-4.935-15.186-14.23-19.911-23.96-4.726-9.73-10.548-14.45-5.575-18.634 4.975-4.184 15.455 8.945 15.455 8.945l11.729-35.622c.87-2.64 3.704-4.073 6.33-3.198 2.628.873 4.052 3.723 3.183 6.365l-8.754 26.585z"/>
        <path fill="#000" fill-rule="nonzero" d="M121.794 125.52l-1.9-.626 8.754-26.585c.697-2.12-.445-4.404-2.548-5.104a4.004 4.004 0 0 0-5.066 2.563l-11.728 35.622a1 1 0 0 1-1.732.31 48.349 48.349 0 0 0-1.267-1.486 49.794 49.794 0 0 0-3.2-3.29c-1.49-1.391-2.934-2.534-4.275-3.34-2.353-1.415-4.131-1.658-5.287-.687-1.74 1.465-1.952 2.9-.935 5.291.64 1.504 4.82 8.436 5.418 9.531.48.879.926 1.742 1.348 2.61.894 1.842 1.164 2.494 2.847 6.717 3.878 9.734 7.16 13.63 16.48 16.731 6.44 2.144 11.945 1.398 16.416-1.586 3.47-2.316 6.116-5.942 7.197-9.222l8.48-25.751c.696-2.118-.446-4.403-2.55-5.104-2.1-.699-4.367.447-5.065 2.564l-2.891 8.781-.95-.313-.95-.313.283-.857 3.572-10.848c.697-2.118-.445-4.403-2.548-5.103a4.005 4.005 0 0 0-5.065 2.562l-3.47 10.54c-.416 1.263-2.312.644-1.901-.622l4.322-13.127c.697-2.12-.445-4.404-2.548-5.104-2.101-.7-4.368.446-5.066 2.563l-4.175 12.682zm9.873-17.144c2.636.878 4.26 3.411 4.112 6.068a5.969 5.969 0 0 1 4.55-.317c2.733.91 4.38 3.601 4.088 6.364a5.965 5.965 0 0 1 4.462-.274c3.15 1.049 4.857 4.463 3.816 7.626l-8.48 25.751c-1.216 3.693-4.133 7.688-7.986 10.26-4.984 3.327-11.13 4.16-18.158 1.82-9.975-3.319-13.631-7.658-17.706-17.888-1.66-4.167-1.924-4.804-2.789-6.583a59.684 59.684 0 0 0-1.304-2.526c-.537-.984-4.798-8.05-5.503-9.707-1.336-3.143-.986-5.521 1.489-7.603 1.976-1.662 4.603-1.302 7.604.502 1.478.888 3.026 2.114 4.61 3.593a51.761 51.761 0 0 1 3.492 3.608l11.17-33.927c1.043-3.166 4.444-4.885 7.597-3.835 3.15 1.047 4.858 4.462 3.817 7.626l-3.174 9.639a5.963 5.963 0 0 1 4.293-.197z"/>
    </g>
</svg>
