<svg width="140" height="140" viewBox="0 0 140 140" fill="none" xmlns="http://www.w3.org/2000/svg">
<path d="M74 35L108.641 55V95L74 115L39.359 95V55L74 35Z" fill="#654BF1" fill-opacity="0.08" stroke="black" stroke-linecap="round" stroke-linejoin="round" stroke-dasharray="8 8"/>
<path d="M71.5 98.5C68.3 100.5 51 95.3333 40.5 90.5C37 88.9173 38.5 59 38.5 55C38.5 51.8 74 33.5 74 33.5C74 33.5 86.7 43 91.5 45C97.5 47.5 97.5 76 95.5 79C93.5 82 75.5 96 71.5 98.5Z" fill="#F3F1FE"/>
<path fill-rule="evenodd" clip-rule="evenodd" d="M39.4629 66.975C42.3181 65.3265 42.3228 59.9895 39.4735 55.0544C36.6241 50.1194 31.9997 47.4551 29.1445 49.1036C26.2893 50.7521 26.2846 56.0891 29.1339 61.0242C31.9832 65.9593 36.6077 68.6235 39.4629 66.975ZM39.48 77.5422C42.3293 82.4773 42.3246 87.8143 39.4694 89.4628C36.6141 91.1113 31.9897 88.447 29.1404 83.512C26.291 78.5769 26.2958 73.2399 29.151 71.5914C32.0062 69.9429 36.6306 72.6072 39.48 77.5422ZM58.9372 88.7914C61.7866 93.7264 61.7818 99.0632 58.9266 100.712C56.0715 102.361 51.447 99.6961 48.5976 94.7611C45.7484 89.826 45.7531 84.4891 48.6083 82.8405C51.4635 81.192 56.0879 83.8563 58.9372 88.7914ZM58.9309 66.3039C61.7802 71.2389 61.7755 76.576 58.9203 78.2245C56.0651 79.873 51.4407 77.2087 48.5913 72.2736C45.742 67.3385 45.7467 62.0016 48.6019 60.3531C51.4571 58.7046 56.0816 61.3689 58.9309 66.3039Z" fill="#F26E7E"/>
<path fill-rule="evenodd" clip-rule="evenodd" d="M97.8549 61.0366C100.704 56.1016 100.7 50.7646 97.8443 49.1161C94.9891 47.4676 90.3647 50.1319 87.5153 55.067C84.666 60.002 84.6707 65.339 87.5259 66.9875C90.3811 68.636 95.0056 65.9717 97.8549 61.0366ZM97.8555 71.5985C100.71 73.247 100.716 78.584 97.8661 83.5191C95.0168 88.4541 90.3923 91.1184 87.5371 89.4699C84.6819 87.8214 84.6772 82.4844 87.5265 77.5494C90.3759 72.6143 95.0003 69.95 97.8555 71.5985ZM78.4021 82.8292C81.2573 84.4777 81.2621 89.8147 78.4127 94.7498C75.5634 99.6845 70.9389 102.349 68.0837 100.701C65.2285 99.0523 65.2238 93.7151 68.0731 88.7801C70.9225 83.845 75.5469 81.1807 78.4021 82.8292ZM78.3911 60.3466C81.2463 61.9951 81.2511 67.3322 78.4017 72.2672C75.5524 77.2023 70.9279 79.8666 68.0727 78.2181C65.2175 76.5696 65.2128 71.2326 68.0621 66.2975C70.9114 61.3624 75.5359 58.6981 78.3911 60.3466Z" fill="#8A3391"/>
<path fill-rule="evenodd" clip-rule="evenodd" d="M73.8093 29.9697C73.8093 33.2667 69.1897 35.9395 63.491 35.9395C57.7923 35.9395 53.1726 33.2667 53.1726 29.9697C53.1726 26.6727 57.7923 24 63.491 24C69.1897 24 73.8093 26.6727 73.8093 29.9697ZM54.3561 41.1889C54.3561 44.4859 49.7364 47.1587 44.0377 47.1587C38.339 47.1587 33.7194 44.4859 33.7194 41.1889C33.7194 37.8919 38.339 35.2192 44.0377 35.2192C49.7364 35.2192 54.3561 37.8919 54.3561 41.1889ZM82.9696 47.1587C88.6683 47.1587 93.288 44.4859 93.288 41.1889C93.288 37.8919 88.6683 35.2192 82.9696 35.2192C77.2709 35.2192 72.6513 37.8919 72.6513 41.1889C72.6513 44.4859 77.2709 47.1587 82.9696 47.1587ZM73.8093 52.4333C73.8093 55.7303 69.1897 58.403 63.491 58.403C57.7923 58.403 53.1726 55.7303 53.1726 52.4333C53.1726 49.1363 57.7923 46.4636 63.491 46.4636C69.1897 46.4636 73.8093 49.1363 73.8093 52.4333Z" fill="#F7BF2A"/>
</svg>
