<svg width="120" height="120" viewBox="0 0 120 120" fill="none" xmlns="http://www.w3.org/2000/svg">
<path d="M87.456 47.1525L87.8096 47.506C88.7045 48.401 89.5361 49.3346 90.3043 50.3013L89.9128 50.6123C91.8701 53.0755 93.4081 55.7561 94.527 58.5617L94.9914 58.3765C95.9246 60.7165 96.5707 63.142 96.9298 65.6009L96.4351 65.6731C96.8799 68.719 96.8773 71.8172 96.4274 74.8657L96.922 74.9387C96.5595 77.3951 95.911 79.8197 94.9765 82.1608L94.5121 81.9754C93.393 84.779 91.8573 87.4609 89.9049 89.9294L90.2971 90.2396C89.5318 91.2073 88.7035 92.1426 87.8123 93.04M87.456 47.1525V92.6892M87.456 47.1525L87.1025 47.506L85.838 48.7705L86.1916 49.124L83.0305 52.2851L82.677 51.9315L81.4125 53.196L81.059 53.5495L81.4125 53.9031C82.3853 54.8759 83.2541 55.9118 84.0189 56.997L84.4276 56.709C86.4657 59.6009 87.7829 62.8379 88.3792 66.1712L87.887 66.2593C88.364 68.9252 88.3698 71.6539 87.9047 74.3123L88.3972 74.3984C87.8117 77.745 86.4958 80.983 84.4493 83.8587L84.0419 83.5688C83.2724 84.6501 82.3971 85.6794 81.4158 86.6425L81.4125 86.6458C80.4397 87.6186 79.4038 88.4873 78.3186 89.2521L78.6066 89.6608C75.7147 91.6989 72.4777 93.0161 69.1444 93.6124L69.0563 93.1203C66.3904 93.5972 63.6617 93.603 61.0033 93.1379L60.9172 93.6305C57.5706 93.045 54.3326 91.729 51.4569 89.6826L51.7468 89.2752C50.6655 88.5056 49.6362 87.6303 48.6731 86.6491L48.6698 86.6458C47.697 85.673 46.8283 84.6371 46.0635 83.5518L45.6548 83.8399C43.6167 80.948 42.2995 77.7109 41.7032 74.3776L42.1954 74.2896C41.7184 71.6236 41.7126 68.8949 42.1777 66.2366L41.6851 66.1504C42.2706 62.8039 43.5866 59.5658 45.633 56.6902L46.0404 56.9801C46.81 55.8987 47.6853 54.8694 48.6665 53.9064L48.6665 53.9064L48.6698 53.9031L51.9458 50.6271L51.5923 50.2735L59.7823 42.0835L60.1359 42.437L63.4119 39.161L63.8717 38.7012L63.5181 38.3477L64.6676 37.1982L65.0212 37.5517L65.481 37.0919L65.6274 36.9455V36.7384V34.267H65.1274V28.0886H65.6274V25.6172V24.4101L64.7738 25.2636L62.3025 27.735L62.656 28.0886L56.4776 34.267L56.124 33.9135L51.1813 38.8562L51.5348 39.2098L45.3564 45.3882L45.0028 45.0347L42.5314 47.506C41.6365 48.4009 40.805 49.3348 40.0369 50.3022L40.4285 50.6131C38.4732 53.0758 36.9362 55.7578 35.8175 58.5654L35.353 58.3803C34.4206 60.7204 33.7744 63.1463 33.4142 65.6051L33.909 65.6776C33.4626 68.7249 33.4626 71.8239 33.909 74.8712L33.4142 74.9437C33.7744 77.4026 34.4206 79.8284 35.353 82.1685L35.8175 81.9834C36.9362 84.791 38.4732 87.473 40.4285 89.9357L40.0369 90.2467C40.805 91.214 41.6365 92.1479 42.5314 93.0428C43.4222 93.9336 44.3516 94.7615 45.3141 95.5266L45.6252 95.1352C48.0762 97.0836 50.7443 98.6173 53.5351 99.7362L53.349 100.2C55.6783 101.134 58.0918 101.784 60.5363 102.149L60.6101 101.654C63.6468 102.108 66.7322 102.115 69.7614 101.677M87.456 47.1525L69.7614 101.677M87.8123 93.04C87.8118 93.0405 87.8113 93.0411 87.8108 93.0416L87.456 92.6892M87.8123 93.04C87.8127 93.0397 87.813 93.0394 87.8133 93.0391L87.456 92.6892M87.8123 93.04C86.9308 93.9402 86.0085 94.7763 85.0511 95.5482L84.7373 95.159M87.456 92.6892C86.5879 93.5758 85.6798 94.3991 84.7373 95.159M84.7373 95.159C82.3026 97.1221 79.6384 98.6627 76.8416 99.7808L77.0272 100.245C74.7011 101.175 72.285 101.817 69.833 102.172L69.7614 101.677M84.7373 95.159L69.7614 101.677M74.9191 46.2317C73.7725 45.8143 72.8626 44.9044 72.4452 43.7578L71.9754 43.9289C71.7949 43.4332 71.6967 42.8985 71.6967 42.3421C71.6967 41.7857 71.7949 41.251 71.9754 40.7553L72.4452 40.9264C72.8626 39.7798 73.7725 38.8699 74.9191 38.4525L74.7481 37.9826C75.2437 37.8022 75.7784 37.704 76.3348 37.704C76.8913 37.704 77.4259 37.8022 77.9216 37.9826L77.7505 38.4525C78.8971 38.8699 79.807 39.7798 80.2244 40.9264L80.6943 40.7553C80.8747 41.251 80.9729 41.7856 80.9729 42.3421C80.9729 42.8985 80.8747 43.4332 80.6943 43.9289L80.2244 43.7578C79.807 44.9044 78.8971 45.8143 77.7505 46.2317L77.9216 46.7015C77.4259 46.882 76.8913 46.9802 76.3348 46.9802C75.7784 46.9802 75.2437 46.882 74.7481 46.7015L74.9191 46.2317Z" fill="#F7F6FC" stroke="black" stroke-dasharray="8 10"/>
<path d="M77.7176 39.1309C90.0941 51.4831 90.0941 71.298 77.7176 83.7359C65.5989 96.088 45.6589 96.088 33.2824 83.7359C20.9059 71.3837 20.9059 51.4831 33.2824 39.1309L55.457 17V28.0655L53.3943 30.1242L38.6971 44.7923C29.4147 53.8849 29.4147 68.8104 38.6971 78.0745C47.8076 87.3386 62.7626 87.3386 72.045 78.0745C81.3274 68.9819 81.3274 54.0564 72.045 44.7923L77.7176 39.1309ZM66.6303 37.7585C64.3518 37.7585 62.5048 35.915 62.5048 33.6411C62.5048 31.3671 64.3518 29.5237 66.6303 29.5237C68.9087 29.5237 70.7558 31.3671 70.7558 33.6411C70.7558 35.915 68.9087 37.7585 66.6303 37.7585Z" fill="#EE4C2C"/>
</svg>
