<svg xmlns="http://www.w3.org/2000/svg" width="81" height="76" viewBox="0 0 81 76">
  <defs>
    <linearGradient id="python-logo-a" x1="12.959%" x2="79.639%" y1="12.039%" y2="78.201%">
      <stop offset="0%" stop-color="#387EB8"/>
      <stop offset="100%" stop-color="#366994"/>
    </linearGradient>
    <linearGradient id="python-logo-b" x1="19.128%" x2="90.742%" y1="20.579%" y2="88.429%">
      <stop offset="0%" stop-color="#FFE052"/>
      <stop offset="100%" stop-color="#FFC331"/>
    </linearGradient>
  </defs>
  <g fill="none" fill-rule="evenodd">
    <path fill="#BDA3F9" fill-opacity=".08" stroke="#000" stroke-dasharray="8 8" stroke-linecap="round" d="M30,23 C26.6666667,12.3333333 31.6666667,7 45,7 C65,7 62,18 62,22 C62,24.6666667 63,25.6666667 65,25 C70.3333333,23.6666667 74,24.3333333 76,27 C79,31 80,40 80,43 C80,46 80,53 76,56 C72,59 64,58 62,58 C60,58 63,60 63,61 C63,62 64,71 58,73 C52,75 37,77 32,71 C28.6666667,67 28,62.6666667 30,58 C27.3333333,58 25,58 23,58 C20,58 13,56 13,47 C13,38 12,34 15,30 C18,26 28,25 32,25 C34.6666667,25 34,24.3333333 30,23 Z"/>
    <g fill-rule="nonzero">
      <path fill="url(#python-logo-a)" d="M33.8860161,0 C16.5563571,0 17.6383916,7.38652841 17.6383916,7.38652841 L17.6576373,15.0391978 L34.1950161,15.0391978 L34.1950161,17.3367326 L11.0892496,17.3367326 C11.0892496,17.3367326 0,16.100609 0,33.2867998 C0,50.4735161 9.6789695,49.8639929 9.6789695,49.8639929 L15.4553443,49.8639929 L15.4553443,41.8886966 C15.4553443,41.8886966 15.1439386,32.3754049 24.9798138,32.3754049 L41.3819383,32.3754049 C41.3819383,32.3754049 50.5971405,32.5217431 50.5971405,23.6216528 L50.5971405,8.90587018 C50.5971405,8.90587018 51.9967286,0 33.8860161,0 Z M24.7673095,5.14626778 C25.556562,5.14556985 26.3136928,5.45342337 26.8717789,6.00195646 C27.4298649,6.55048955 27.7430798,7.29466036 27.7423697,8.07040298 C27.7430798,8.8461456 27.4298649,9.59031641 26.8717789,10.1388495 C26.3136928,10.6873826 25.556562,10.9952361 24.7673095,10.9945382 C23.978057,10.9952361 23.2209262,10.6873826 22.6628401,10.1388495 C22.1047541,9.59031641 21.7915392,8.8461456 21.7922493,8.07040298 C21.7915392,7.29466036 22.1047541,6.55048955 22.6628401,6.00195646 C23.2209262,5.45342337 23.978057,5.14556985 24.7673095,5.14626778 Z"/>
      <path fill="url(#python-logo-b)" d="M34.1142429,67.2444444 C51.4439061,67.2444444 50.3618713,59.857916 50.3618713,59.857916 L50.3426257,52.2055094 L33.8049755,52.2055094 L33.8049755,49.9079746 L56.9107477,49.9079746 C56.9107477,49.9079746 68,51.1440982 68,33.9573819 C68,16.7709284 58.3210281,17.3804516 58.3210281,17.3804516 L52.5446519,17.3804516 L52.5446519,25.3554852 C52.5446519,25.3554852 52.8560577,34.8687768 43.0201801,34.8687768 L26.6180516,34.8687768 C26.6180516,34.8687768 17.4028471,34.7224387 17.4028471,43.6227916 L17.4028471,58.338837 C17.4028471,58.338837 16.0035259,67.2444444 34.1139756,67.2444444 L34.1142429,67.2444444 Z M43.2329517,62.0987021 C42.443699,62.0994 41.686568,61.7915465 41.1284818,61.2430134 C40.5703957,60.6944804 40.2571807,59.9503095 40.2578908,59.1745669 C40.2571097,58.3987788 40.5702933,57.6545404 41.1283872,57.1059505 C41.686481,56.5573605 42.4436527,56.249471 43.2329517,56.250169 C44.0222044,56.2494711 44.7793354,56.5573246 45.3374216,57.1058577 C45.8955078,57.6543908 46.2087227,58.3985616 46.2080127,59.1743042 C46.2087227,59.9500468 45.8955078,60.6942176 45.3374216,61.2427507 C44.7793354,61.7912838 44.0222044,62.0991373 43.2329517,62.0984394 L43.2329517,62.0987021 Z"/>
    </g>
  </g>
</svg>
