<svg width="144" height="102" viewBox="0 0 144 102" fill="none" xmlns="http://www.w3.org/2000/svg">
<path opacity="0.57" fill-rule="evenodd" clip-rule="evenodd" d="M95.9547 152.38C120.886 149.901 140.454 155.933 148.631 130.32C156.224 106.538 136.745 84.7263 75.6684 77.0764C21.7802 70.3278 3.00927 88.8408 11.2845 110.827C15.4217 121.82 31.7119 141.123 48.5095 149.157C65.3072 157.191 83.5956 153.609 95.9547 152.38Z" fill="#9595EF"/>
<g clip-path="url(#clip0)">
<path d="M119.362 56.9711L71.3838 11.8966C70.073 10.6799 69.156 10.244 67.9795 10.6369L67.5153 10.7288L60.7912 13.0748L60.6592 16.7786L62.3845 23.9158L45.4553 96.5956C44.4436 100.939 45.8951 106.59 48.7134 109.225L91.6966 149.601L93.9135 157.765L100.248 155.572L100.799 155.389C102.057 154.838 103.098 153.413 103.608 151.22L122.62 69.6002C123.611 65.2518 122.159 59.601 119.362 56.9711Z" fill="white"/>
<path d="M93.1755 159.127L90.7425 150.18L47.9771 110.01C44.8879 107.112 43.3162 101.122 44.4212 96.3777L61.2963 23.9298L59.6278 16.7391L59.7748 12.3053L67.7804 9.59089C69.3938 9.03309 70.6978 9.80364 72.0989 11.1081L120.077 56.1825C123.166 59.0805 124.738 65.0705 123.633 69.8147L104.621 151.435C104.052 153.88 102.853 155.602 101.222 156.333L93.1755 159.127ZM61.7248 16.6718L63.4675 23.9243L46.4794 96.8571C45.561 100.8 46.9133 106.116 49.4187 108.478L92.6034 149.035L94.6093 156.394L100.438 154.373C101.353 153.963 102.155 152.705 102.563 150.955L121.57 69.3563C122.488 65.4134 121.136 60.097 118.63 57.7351L70.6524 12.6606C69.3255 11.4179 68.85 11.4627 68.2982 11.6454L67.7142 11.7761L61.8123 13.8247L61.7248 16.6718Z" fill="#16110D"/>
<path d="M89.6835 156.735L41.7007 111.682C38.9034 109.052 37.4309 103.396 38.4426 99.0525L57.459 17.4115C58.4708 13.068 61.5577 11.6975 64.376 14.3324L112.354 59.4068C115.151 62.0368 116.624 67.6925 115.612 72.036L96.6005 153.656C95.5888 157.999 92.4969 159.391 89.6835 156.735Z" fill="#9595EF"/>
<path d="M91.607 159.028C90.7039 158.818 89.8016 158.319 88.9471 157.52L40.9902 112.45C37.885 109.526 36.3342 103.541 37.4392 98.7968L56.4507 17.1769C57.0695 14.5202 58.4749 12.6692 60.3082 12.1181C61.881 11.6398 63.5997 12.1512 65.1071 13.5693L113.085 58.6438C116.174 61.5418 117.746 67.5318 116.641 72.2759L97.6294 153.896C97.0106 156.553 95.6052 158.404 93.7719 158.955C93.0584 159.166 92.3421 159.2 91.607 159.028ZM61.9709 14.1059C61.6348 14.0276 61.2791 14.0337 60.9038 14.1241C59.8261 14.4732 58.93 15.7538 58.488 17.6515L39.4765 99.2713C38.5581 103.214 39.9103 108.531 42.4158 110.893L90.4147 155.972C91.0676 156.591 92.0825 157.272 93.1554 156.944C94.2541 156.6 95.1292 155.314 95.5712 153.416L114.583 71.7965C115.501 67.8536 114.149 62.5371 111.643 60.1752L63.6655 15.1008C63.2302 14.6882 62.6429 14.2624 61.9709 14.1059Z" fill="#16110D"/>
<path d="M90.4004 153.857L45.8888 112.057C44.3072 110.577 43.479 107.383 44.0536 104.916L61.0515 31.9413C61.6212 29.4954 63.3776 28.7042 64.9543 30.2051L109.466 72.0048C111.048 73.4846 111.876 76.6784 111.301 79.1454L94.3032 152.12C93.7335 154.566 91.9821 155.336 90.4004 153.857Z" fill="white"/>
<path d="M90.273 151.07C89.7269 150.943 89.1991 150.642 88.6896 150.168L44.199 108.373C42.3997 106.687 41.4996 103.232 42.138 100.491L59.1359 27.5159C59.4994 25.9557 60.3562 24.8437 61.45 24.5206C62.4031 24.2313 63.4384 24.5391 64.3511 25.3741L108.863 67.1738C110.662 68.86 111.562 72.315 110.924 75.0561L93.9258 148.031C93.5623 149.591 92.7055 150.703 91.6117 151.027C91.1586 151.166 90.714 151.173 90.273 151.07ZM89.7761 149.021C90.1211 149.346 90.6181 149.684 91.144 149.517C91.6909 149.356 92.1407 148.66 92.3716 147.669L109.365 74.7152C109.87 72.5434 109.13 69.6369 107.75 68.3373L63.2646 26.5215C62.9146 26.2177 62.4177 25.8796 61.8967 26.025C61.3498 26.1866 60.8999 26.8821 60.6691 27.8731L43.6712 100.848C43.1654 103.02 43.9054 105.926 45.2855 107.226L89.7761 149.021Z" fill="#16110D"/>
<path d="M63.9049 65.5937L60.8967 53.2228C60.4781 51.5026 60.9787 50.0187 61.9814 49.8966C62.989 49.7534 64.1492 51.0462 64.5727 52.7453L66.1366 59.2448L73.8304 55.3018C74.7388 54.8243 75.9776 55.7797 76.5888 57.4337C77.1999 59.0876 76.954 60.8086 76.0296 61.2602L65.1898 66.8266C64.7381 67.0548 64.1012 66.4619 63.9049 65.5937Z" fill="#9595EF"/>
<path d="M64.4566 65.1224C64.3516 65.098 64.2676 65.0784 64.1675 65.0328C63.5878 64.7645 63.1016 64.0955 62.9115 63.2954L59.9032 50.9245C59.5692 49.6019 59.712 48.3236 60.2802 47.5002C60.6179 47.0009 61.0893 46.6883 61.6585 46.6208C63.1205 46.4279 64.5923 47.9044 65.1066 50.0692L66.4517 55.6063L73.2632 52.1247C73.7667 51.8641 74.3261 51.8388 74.8946 52.0601C75.8053 52.4279 76.6415 53.4007 77.1212 54.6683C77.8799 56.7345 77.4826 58.8204 76.1793 59.4727L65.3395 65.0391C65.0643 65.1751 64.7506 65.1909 64.4566 65.1224ZM62.0225 48.195C61.9595 48.1803 61.9175 48.1705 61.8706 48.1818C61.8237 48.1931 61.7138 48.1897 61.6017 48.3859C61.3711 48.7101 61.1894 49.4903 61.4515 50.5516L64.4597 62.9225C64.538 63.2519 64.6877 63.4646 64.778 63.5523L75.4672 58.062C75.893 57.8499 76.1569 56.6221 75.6436 55.2133C75.2618 54.1908 74.6991 53.6596 74.3309 53.5293C74.1307 53.4383 74.0271 53.503 74.0012 53.5192L65.3878 57.8926L63.5842 50.426C63.2663 49.1293 62.5056 48.3075 62.0225 48.195Z" fill="#16110D"/>
<path d="M59.3815 88.4365L56.3732 76.0656C55.9546 74.3454 56.4553 72.8615 57.458 72.7394C58.4656 72.5962 59.6258 73.889 60.0493 75.5881L61.6131 82.0876L69.307 78.1446C70.2153 77.6671 71.4542 78.6225 72.0653 80.2764C72.6765 81.9304 72.4306 83.6514 71.5061 84.1029L60.6664 89.6694C60.2357 89.9025 59.5988 89.3096 59.3815 88.4365Z" fill="#9595EF"/>
<path d="M59.9484 87.9013C59.8434 87.8769 59.7594 87.8573 59.6593 87.8118C59.0797 87.5434 58.5934 86.8744 58.4033 86.0743L55.3951 73.7034C55.061 72.3808 55.2038 71.1026 55.772 70.2791C56.1097 69.7798 56.5811 69.4672 57.1503 69.3998C58.6124 69.2068 60.089 70.6622 60.6243 72.832L61.9694 78.3691L68.7858 74.8664C69.2844 74.6268 69.8439 74.6016 70.4123 74.8229C71.323 75.1906 72.1593 76.1634 72.639 77.431C73.3976 79.4972 73.0003 81.5831 71.697 82.2354L60.8573 87.8018C60.561 87.9329 60.2634 87.9747 59.9484 87.9013ZM59.9355 85.6754C60.0137 86.0049 60.1635 86.2176 60.2537 86.3053L70.9429 80.8149C71.3687 80.6029 71.6326 79.3751 71.1194 77.9662C70.7376 76.9437 70.1749 76.4125 69.8067 76.2823C69.6015 76.2123 69.5028 76.256 69.4559 76.2673L60.8796 80.6715L59.0761 73.2049C58.7085 71.7411 57.8218 70.8899 57.3414 70.9558C57.2945 70.9671 57.1846 70.9638 57.0725 71.1599C56.842 71.4841 56.6603 72.2643 56.9223 73.3256L59.9355 85.6754Z" fill="#16110D"/>
<path d="M54.2174 107.173L51.2092 94.8019C50.7906 93.0817 51.2912 91.5978 52.2939 91.4757C53.3015 91.3325 54.4617 92.6253 54.8852 94.3244L56.4491 100.824L64.1429 96.8809C65.0513 96.4034 66.2901 97.3588 66.9012 99.0128C67.5124 100.667 67.2665 102.388 66.3421 102.839L55.5023 108.406C55.0506 108.634 54.4137 108.041 54.2174 107.173Z" fill="#9595EF"/>
<path d="M54.7847 106.638C54.6797 106.614 54.5957 106.594 54.4956 106.548C53.916 106.28 53.4297 105.611 53.2396 104.811L50.2314 92.4402C49.8973 91.1175 50.0401 89.8393 50.6083 89.0158C50.946 88.5165 51.4174 88.2039 51.9866 88.1365C53.4277 87.9386 54.9204 89.42 55.4347 91.5849L56.7798 97.122L63.5913 93.6404C64.0948 93.3797 64.6493 93.3755 65.2178 93.5969C66.1285 93.9646 66.9647 94.9374 67.4444 96.205C68.2031 98.2712 67.8058 100.357 66.5025 101.009L55.6726 106.534C55.3973 106.67 55.0787 106.707 54.7847 106.638ZM52.3556 89.6895C52.2926 89.6748 52.2506 89.6651 52.2037 89.6764C52.1567 89.6877 52.0419 89.7054 51.9137 89.8756C51.6832 90.1998 51.5015 90.9799 51.7635 92.0412L54.7718 104.412C54.85 104.742 54.9998 104.954 55.09 105.042L65.7792 99.5516C66.205 99.3396 66.4689 98.1118 65.9557 96.7029C65.5739 95.6804 65.0112 95.1492 64.643 95.019C64.4378 94.949 64.3391 94.9927 64.2922 95.004L55.7159 99.4082L53.9124 91.9416C53.5993 90.6239 52.8386 89.802 52.3556 89.6895Z" fill="#16110D"/>
<path d="M99.1514 93.2545L79.8944 75.1649C79.0399 74.3657 78.6003 72.6406 78.9048 71.3333C79.2142 70.005 80.1498 69.6005 81.0044 70.3997L100.261 88.4893C101.116 89.2885 101.555 91.0136 101.251 92.3209C100.946 93.6281 100.006 94.0537 99.1514 93.2545Z" fill="#9595EF"/>
<path d="M99.438 91.8321C99.081 91.7489 98.7275 91.5554 98.4196 91.2614L79.1626 73.1718C78.1065 72.1923 77.5838 70.1588 77.9521 68.5775C78.1781 67.6076 78.7168 66.9106 79.4514 66.7038C80.097 66.4985 80.7803 66.7021 81.3591 67.2593L100.616 85.3489C101.672 86.3284 102.195 88.3619 101.826 89.9432C101.601 90.9131 101.062 91.6101 100.327 91.8169C100.025 91.8798 99.7321 91.9006 99.438 91.8321ZM99.4851 90.1092C99.6285 90.2537 99.7867 90.335 99.8645 90.2865C99.9583 90.2639 100.159 90.0662 100.277 89.5601C100.518 88.527 100.166 87.0891 99.5134 86.4702L80.2565 68.3807C80.113 68.2361 79.9758 68.1597 79.8771 68.2034C79.7832 68.226 79.5822 68.4237 79.4643 68.9297C79.2237 69.9629 79.5752 71.4007 80.2281 72.0196L99.4851 90.1092Z" fill="#16110D"/>
<path d="M94.3232 114.003L75.0663 95.913C74.2118 95.1137 73.7722 93.3886 74.0767 92.0814C74.3861 90.753 75.3217 90.3485 76.1762 91.1477L95.4332 109.237C96.2877 110.037 96.7273 111.762 96.4228 113.069C96.1183 114.376 95.1778 114.802 94.3232 114.003Z" fill="#9595EF"/>
<path d="M94.608 112.579C94.251 112.496 93.8975 112.303 93.5895 112.009L74.3326 93.9191C73.2765 92.9396 72.7538 90.9061 73.1221 89.3248C73.348 88.3548 73.8868 87.6579 74.6214 87.4511C75.2621 87.2669 75.9503 87.4494 76.529 88.0066L95.786 106.096C96.8421 107.076 97.3648 109.109 96.9965 110.691C96.7705 111.66 96.2318 112.357 95.4972 112.564C95.1947 112.627 94.902 112.648 94.608 112.579ZM75.1199 88.9232C75.0989 88.9183 75.0569 88.9085 75.0309 88.9247C74.9371 88.9473 74.7361 89.145 74.6182 89.651C74.3775 90.6842 74.729 92.122 75.382 92.7409L94.6389 110.83C94.8034 110.98 94.9616 111.061 95.0344 111.034C95.1283 111.011 95.3293 110.813 95.4472 110.307C95.6878 109.274 95.3363 107.836 94.6834 107.218L75.4264 89.1279C75.3201 89.0143 75.2039 88.9427 75.1199 88.9232Z" fill="#16110D"/>
<path d="M111.492 54.2494C112.203 53.8593 112.802 52.9985 113.102 51.7123C113.74 48.9713 112.828 45.3799 111.044 43.7197L80.0356 14.5792C79.2714 13.8677 77.7794 13.8091 77.7794 13.8091C77.7794 13.8091 77.4201 13.9255 77.2906 14.0065L72.4235 15.9849C72.0803 16.1272 71.9821 16.5489 72.227 16.8283L75.8106 20.9306C76.1572 22.3896 76.8469 23.7061 77.7175 24.5313L84.3471 30.7658L90.6731 38.0188L104.553 56.1896C104.857 56.594 105.377 56.7374 105.84 56.5562C107.525 55.8817 111.363 54.3304 111.415 54.298L111.492 54.2494Z" fill="white"/>
<path d="M104.952 57.6161C104.469 57.5036 104.047 57.2273 103.721 56.8181L89.8415 38.6473L83.5687 31.4511L77.0084 25.2994C76.0636 24.4125 75.2947 23.0553 74.8467 21.4616L71.4227 17.5298C71.0714 17.1367 70.9533 16.598 71.0663 16.113C71.1842 15.607 71.5443 15.2018 72.0121 14.9996L76.8791 13.0212C76.9569 12.9726 77.4408 12.7963 77.4408 12.7963L77.8322 12.7319C78.031 12.7338 79.5351 12.5506 80.7731 13.7948L111.782 42.9353C113.836 44.8586 114.864 48.8103 114.137 51.9309C113.788 53.4279 113.037 54.5643 112.041 55.1326L112.015 55.1488C111.838 55.2411 111.812 55.2573 107.216 57.1208L106.264 57.4993C105.822 57.6853 105.372 57.714 104.952 57.6161ZM73.4816 16.6756L76.746 20.4369L76.8019 20.6722C77.1409 21.9737 77.7439 23.0923 78.429 23.7631L85.0587 29.9976L91.4588 37.3124L105.392 55.54L106.406 55.1762C108.216 54.4418 110.827 53.405 110.998 53.3338L111.029 53.2965L110.977 53.3289C111.46 53.0634 111.863 52.3792 112.074 51.4726C112.629 49.09 111.822 45.9011 110.314 44.4829L79.3265 15.3473C79.0556 15.0842 78.3836 14.9276 77.9117 14.8622C77.8599 14.8946 77.8129 14.9059 77.7611 14.9383L73.4816 16.6756Z" fill="#16110D"/>
<path d="M90.7544 53.9312L80.3246 44.1441C77.6337 41.6278 76.259 36.2172 77.2266 32.0635L97.3751 50.9831C96.3866 55.132 93.4194 56.4637 90.7544 53.9312Z" fill="#9595EF"/>
<path d="M92.5837 56.1578C91.7016 55.9523 90.8413 55.463 90.0239 54.6946L79.5941 44.9074C76.6113 42.1232 75.1165 36.3733 76.1773 31.819L76.5898 30.0479L98.5006 50.6228L98.3631 51.2132C97.7688 53.7645 96.3992 55.5572 94.6387 56.0807C93.9881 56.3071 93.2768 56.3192 92.5837 56.1578ZM77.9665 34.2141C77.7933 37.6193 79.0188 41.4836 81.0358 43.376L91.4656 53.1632C92.0814 53.7512 93.0432 54.3753 94.0431 54.0748C94.9493 53.7968 95.7185 52.7756 96.1722 51.3031L77.9665 34.2141Z" fill="#16110D"/>
<path d="M102.786 56.0882L71.7768 26.9477C69.9936 25.2876 69.076 21.7173 69.7193 18.9551C70.3578 16.2141 72.3117 15.3355 74.0949 16.9956L105.104 46.1361C106.887 47.7963 107.8 51.3877 107.161 54.1287C106.518 56.8909 104.569 57.7484 102.786 56.0882Z" fill="#9595EF"/>
<path d="M103.933 57.9116C103.302 57.7648 102.654 57.4136 102.075 56.8565L71.0611 27.737C69.012 25.7926 67.984 21.841 68.7108 18.7204C69.1332 16.9071 70.1182 15.6249 71.4256 15.2404C72.5503 14.8799 73.7488 15.248 74.8258 16.2324L105.835 45.3729C107.889 47.2963 108.917 51.248 108.19 54.3685C107.767 56.1818 106.782 57.464 105.475 57.8485C104.97 58.0199 104.437 58.029 103.933 57.9116ZM72.4868 17.2436C72.3398 17.2094 72.162 17.2124 72.0212 17.2463C71.4694 17.429 70.9936 18.1407 70.7481 19.1949C70.1931 21.5775 71.0003 24.7664 72.5077 26.1845L103.516 55.325C103.808 55.5931 104.354 56.0091 104.879 55.8426C105.426 55.681 105.907 54.9482 106.153 53.894C106.708 51.5114 105.9 48.3225 104.393 46.9044L73.3793 17.7849C73.1826 17.5835 72.8439 17.3268 72.4868 17.2436Z" fill="#16110D"/>
<path d="M106.228 48.1544L112.462 45.9164L113.387 51.3557L111.495 54.2494L106.404 56.3313L107.176 52.7322L106.228 48.1544Z" fill="#16110D"/>
<path d="M116.185 69.5692L122.918 67.0917L103.425 151.823L101.343 155.25L95.1 157.241L115.457 71.5557L116.185 69.5692Z" fill="#7B7BDB"/>
</g>
<defs>
<clipPath id="clip0">
<rect width="77.3742" height="140.613" fill="white" transform="translate(58.8164 7.01367) rotate(13.112)"/>
</clipPath>
</defs>
</svg>
