<svg width="153" height="106" viewBox="0 0 153 106" fill="none" xmlns="http://www.w3.org/2000/svg">
<path opacity="0.585045" fill-rule="evenodd" clip-rule="evenodd" d="M121.879 60.3534C147.345 79.2424 181.209 66.9723 178.887 100.505C176.564 134.037 142.616 143.736 66.1254 142.831C-10.365 141.926 -7.06986 98.9251 10.1393 75.1956C18.7442 63.3303 40.5163 41.5946 63.2988 37.5177C86.0812 33.4413 109.47 51.1496 121.879 60.3534Z" fill="#9595EF"/>
<path d="M123.998 38.1047L70.9037 7.45007C67.1114 5.26171 63.6314 4.99498 60.8657 6.29537L42.8516 17.2109L54.6269 38.1573V75.8632C54.6269 87.8474 61.9133 101.771 70.9037 106.96L104.073 126.11L117.023 149.144L135.53 137.887V137.885C138.462 135.653 140.275 131.288 140.275 125.313V69.2033C140.273 57.2174 132.987 43.2939 123.998 38.1047Z" fill="white"/>
<path d="M123.807 42.8361L70.7128 12.1815C66.9222 9.99317 63.4422 9.72642 60.6747 11.0268L44.8438 20.6191L54.5606 37.9031V75.6089C54.5606 87.5949 61.847 101.517 70.8373 106.708L104.007 125.857L116.542 87.6002L140.084 73.9313C140.082 61.9488 132.796 48.0254 123.807 42.8361Z" fill="#9595EF"/>
<path d="M116.762 150.143L103.546 126.633L70.5464 107.582C61.3753 102.287 53.9135 88.0601 53.9135 75.8635V38.3437L41.8906 16.9567L60.4961 5.68324C63.683 4.1828 67.3806 4.59169 71.2624 6.82919L124.355 37.4838C133.528 42.7784 140.988 57.0053 140.988 69.2019V125.311C140.988 131.318 139.203 135.985 135.964 138.452L116.762 150.143ZM51.2267 19.3487L55.3437 37.9699V75.8653C55.3437 87.6038 62.4844 101.276 71.2624 106.343L106.374 135.086L139.558 115.696V69.2019C139.558 57.4634 132.417 43.7909 123.639 38.7245L70.5464 8.06814L51.2267 19.3487Z" fill="#9595EF"/>
<path d="M106.936 148.002L53.8413 117.347C44.8527 112.158 37.5664 98.2347 37.5664 86.2505V30.1411C37.5664 18.1568 44.8527 12.6464 53.8413 17.8374L106.936 48.4921C115.925 53.6813 123.211 67.6047 123.211 79.5889V135.698C123.211 147.684 115.925 153.193 106.936 148.002Z" fill="white"/>
<path d="M113.407 150.668C111.256 150.668 108.936 149.982 106.579 148.624L53.4845 117.969C44.3134 112.673 36.8516 98.444 36.8516 86.2509V30.1415C36.8516 23.5782 39.0329 18.5556 42.8357 16.3585C46.0174 14.5176 50.0537 14.8212 54.1987 17.2149L107.293 47.8695C116.466 53.1658 123.926 67.3963 123.926 79.5876V135.697C123.926 142.26 121.745 147.283 117.942 149.48C116.57 150.273 115.036 150.668 113.407 150.668ZM107.293 147.383C110.977 149.513 114.502 149.814 117.228 148.241C120.576 146.307 122.496 141.736 122.496 135.697V79.5876C122.496 67.8508 115.355 54.1784 106.577 49.1102L53.4827 18.4556C49.801 16.3269 46.2736 16.0233 43.55 17.5975C40.2016 19.5314 38.2818 24.1029 38.2818 30.1415V86.2509C38.2818 97.9877 45.4225 111.66 54.1987 116.728L107.293 147.383Z" fill="black"/>
<path d="M68.7109 67.4459V102.384C68.7109 106.401 72.7209 111.169 75.8218 110.839L101.368 108.119C104.297 107.807 104.297 103.116 101.368 99.4202L75.8218 67.2019C72.7209 63.292 68.7109 63.4289 68.7109 67.4459Z" fill="#7B7BDB"/>
<path d="M72.6661 103.042C71.4166 103.042 70.0407 102.415 68.7456 101.252C66.5923 99.3143 65.1445 96.3415 65.1445 93.8548V58.9165C65.1445 57.0756 65.9185 55.7524 67.268 55.2803C69.1264 54.6222 71.5938 55.7857 73.5312 58.2268L99.0773 90.445C101.136 93.0423 101.961 96.3204 101.08 98.4158C100.622 99.5091 99.7389 100.178 98.593 100.299L73.0469 103.021C72.9205 103.035 72.7942 103.042 72.6661 103.042ZM68.3385 56.5385C68.1156 56.5385 67.9138 56.5719 67.74 56.6316C66.7275 56.9861 66.5765 58.2145 66.5765 58.9165V93.8548C66.5765 95.9607 67.8331 98.507 69.7038 100.188C70.8094 101.183 71.9676 101.694 72.896 101.597L98.442 98.8773C99.0738 98.8106 99.5056 98.479 99.7635 97.8648C100.344 96.4819 99.9109 93.7969 97.9595 91.3365L72.4133 59.1183C70.9585 57.2826 69.4072 56.5385 68.3385 56.5385Z" fill="black"/>
<path d="M108.058 41.9538C108.976 42.4838 108.976 43.3419 108.058 43.8701C107.142 44.3984 105.656 44.3984 104.738 43.8701C103.822 43.3401 103.822 42.482 104.738 41.9538C105.656 41.4256 107.142 41.4256 108.058 41.9538Z" fill="#0D1857"/>
<path d="M115.078 39.2565C116.375 39.2565 117.427 38.6499 117.427 37.9017C117.427 37.1534 116.375 36.5469 115.078 36.5469C113.782 36.5469 112.73 37.1534 112.73 37.9017C112.73 38.6499 113.782 39.2565 115.078 39.2565Z" fill="#0D1857"/>
<path d="M99.3791 36.9421C100.295 37.472 100.295 38.3302 99.3791 38.8584C98.4613 39.3884 96.9749 39.3884 96.0588 38.8584C95.141 38.3284 95.1427 37.4703 96.0588 36.9421C96.9749 36.4138 98.4613 36.4138 99.3791 36.9421Z" fill="#0D1857"/>
<path d="M108.059 31.9303C108.977 32.4586 108.977 33.3185 108.059 33.8467C107.143 34.3767 105.657 34.3767 104.739 33.8467C103.821 33.3167 103.821 32.4586 104.739 31.9303C105.657 31.4021 107.143 31.4021 108.059 31.9303Z" fill="#0D1857"/>
<path d="M90.6206 31.8776C91.5367 32.4076 91.5367 33.2657 90.6206 33.794C89.7028 34.3239 88.2164 34.3239 87.3003 33.794C86.3843 33.264 86.3843 32.4058 87.3003 31.8776C88.2164 31.3494 89.7028 31.3494 90.6206 31.8776Z" fill="#0D1857"/>
<path d="M99.3055 26.8649C100.223 27.3931 100.223 28.2531 99.3055 28.7813C98.3895 29.3095 96.9031 29.3095 95.9852 28.7813C95.0674 28.2513 95.0674 27.3931 95.9852 26.8649C96.9013 26.3367 98.3877 26.3367 99.3055 26.8649Z" fill="#0D1857"/>
<path d="M80.2817 29.1793C81.5785 29.1793 82.6297 28.5727 82.6297 27.8245C82.6297 27.0763 81.5785 26.4697 80.2817 26.4697C78.9849 26.4697 77.9336 27.0763 77.9336 27.8245C77.9336 28.5727 78.9849 29.1793 80.2817 29.1793Z" fill="#0D1857"/>
<path d="M88.9613 24.1666C90.2581 24.1666 91.3094 23.56 91.3094 22.8118C91.3094 22.0636 90.2581 21.457 88.9613 21.457C87.6645 21.457 86.6133 22.0636 86.6133 22.8118C86.6133 23.56 87.6645 24.1666 88.9613 24.1666Z" fill="#0D1857"/>
<path d="M73.2612 21.8532C74.1773 22.3832 74.1773 23.2413 73.2612 23.7696C72.3434 24.2996 70.857 24.2996 69.941 23.7696C69.0249 23.2396 69.0249 22.3814 69.941 21.8532C70.8588 21.325 72.3452 21.325 73.2612 21.8532Z" fill="#0D1857"/>
<path d="M80.2817 19.1539C81.5785 19.1539 82.6297 18.5474 82.6297 17.7991C82.6297 17.0509 81.5785 16.4443 80.2817 16.4443C78.9849 16.4443 77.9336 17.0509 77.9336 17.7991C77.9336 18.5474 78.9849 19.1539 80.2817 19.1539Z" fill="#0D1857"/>
<path d="M62.9183 19.1559C64.2151 19.1559 65.2664 18.5493 65.2664 17.8011C65.2664 17.0529 64.2151 16.4463 62.9183 16.4463C61.6215 16.4463 60.5703 17.0529 60.5703 17.8011C60.5703 18.5493 61.6215 19.1559 62.9183 19.1559Z" fill="#0D1857"/>
<path d="M73.2612 11.8291C74.1773 12.3574 74.1773 13.2172 73.2612 13.7455C72.3452 14.2754 70.857 14.2754 69.941 13.7455C69.0249 13.2155 69.0249 12.3574 69.941 11.8291C70.8588 11.2991 72.3452 11.2991 73.2612 11.8291Z" fill="#0D1857"/>
</svg>
