<svg width="140" height="95" viewBox="0 0 140 95" fill="none" xmlns="http://www.w3.org/2000/svg">
<path opacity="0.565123" fill-rule="evenodd" clip-rule="evenodd" d="M136.897 50.3736C158.031 68.275 153.706 87.9279 143.738 99.5607C133.77 111.193 44.5045 132.885 18.9206 117.248C-6.66338 101.611 -3.22305 82.3158 11.102 70.5136C21.7017 61.7806 48.7659 33.4048 71.0651 33.2616C93.3646 33.118 114.954 34.1944 125.251 42.9167L136.897 50.3736Z" fill="#9595EF"/>
<path d="M39.9492 29.5752L49.9042 62.5033" stroke="black" stroke-width="2" stroke-miterlimit="10" stroke-linecap="round" stroke-linejoin="round"/>
<path d="M60.7188 77.8672L124.278 87.8222" stroke="black" stroke-width="2" stroke-miterlimit="10" stroke-linecap="round" stroke-linejoin="round"/>
<path d="M55.9805 82.2705L65.4569 113.284" stroke="black" stroke-width="2" stroke-miterlimit="10" stroke-linecap="round" stroke-linejoin="round"/>
<path d="M91.9256 65.9014L72.3984 110.795" stroke="black" stroke-width="2" stroke-miterlimit="10" stroke-linecap="round" stroke-linejoin="round" stroke-dasharray="4.03 4.03"/>
<path d="M23.2461 14.9307L85.5127 50.1082" stroke="black" stroke-width="2" stroke-miterlimit="10" stroke-linecap="round" stroke-linejoin="round"/>
<path d="M101.02 63.6523L134.139 88.3484" stroke="black" stroke-width="2" stroke-miterlimit="10" stroke-linecap="round" stroke-linejoin="round"/>
<path d="M31.8585 30.7725L15.9688 94.7142" stroke="black" stroke-width="2" stroke-miterlimit="10" stroke-linecap="round" stroke-linejoin="round"/>
<path d="M132.844 35.7021L15.9688 102.563" stroke="black" stroke-width="2" stroke-miterlimit="10" stroke-linecap="round" stroke-linejoin="round"/>
<path d="M23.2461 14.9307V23.4498C23.2461 28.0445 29.5158 31.7297 37.2693 31.7297C45.0227 31.7297 51.2924 28.0445 51.2924 23.4498V14.9307H23.2461Z" fill="white" stroke="black" stroke-width="2" stroke-miterlimit="10" stroke-linecap="round" stroke-linejoin="round"/>
<path d="M37.3161 23.2102C45.0609 23.2102 51.3393 19.5031 51.3393 14.9303C51.3393 10.3574 45.0609 6.65039 37.3161 6.65039C29.5714 6.65039 23.293 10.3574 23.293 14.9303C23.293 19.5031 29.5714 23.2102 37.3161 23.2102Z" fill="white" stroke="black" stroke-width="2" stroke-miterlimit="10" stroke-linecap="round" stroke-linejoin="round"/>
<path d="M15.9685 104.765C23.7132 104.765 29.9916 101.058 29.9916 96.485C29.9916 91.9121 23.7132 88.2051 15.9685 88.2051C8.22369 88.2051 1.94531 91.9121 1.94531 96.485C1.94531 101.058 8.22369 104.765 15.9685 104.765Z" fill="white" stroke="black" stroke-width="2" stroke-miterlimit="10" stroke-linecap="round" stroke-linejoin="round"/>
<path d="M42.1016 69.4922V78.0114C42.1016 82.606 48.3713 86.2913 56.1247 86.2913C63.8781 86.2913 70.1479 82.606 70.1479 78.0114V69.4922H42.1016Z" fill="#9595EF" stroke="black" stroke-width="2" stroke-miterlimit="10" stroke-linecap="round" stroke-linejoin="round"/>
<path d="M56.1247 77.7717C63.8695 77.7717 70.1479 74.0646 70.1479 69.4918C70.1479 64.9189 63.8695 61.2119 56.1247 61.2119C48.3799 61.2119 42.1016 64.9189 42.1016 69.4918C42.1016 74.0646 48.3799 77.7717 56.1247 77.7717Z" fill="#9595EF" stroke="black" stroke-width="2" stroke-miterlimit="10" stroke-linecap="round" stroke-linejoin="round"/>
<path d="M122.172 85.1426V93.6618C122.172 98.2564 128.442 101.942 136.195 101.942C143.948 101.942 150.218 98.2564 150.218 93.6618V85.1426H122.172Z" fill="white" stroke="black" stroke-width="2" stroke-miterlimit="10" stroke-linecap="round" stroke-linejoin="round"/>
<path d="M136.195 93.4221C143.94 93.4221 150.218 89.715 150.218 85.1422C150.218 80.5693 143.94 76.8623 136.195 76.8623C128.45 76.8623 122.172 80.5693 122.172 85.1422C122.172 89.715 128.45 93.4221 136.195 93.4221Z" fill="white" stroke="black" stroke-width="2" stroke-miterlimit="10" stroke-linecap="round" stroke-linejoin="round"/>
<path d="M82.7344 51.4482V59.9674C82.7344 64.5621 89.0041 68.2473 96.7575 68.2473C104.511 68.2473 110.781 64.5621 110.781 59.9674V51.4482H82.7344Z" fill="white" stroke="black" stroke-width="2" stroke-miterlimit="10" stroke-linecap="round" stroke-linejoin="round"/>
<path d="M96.7575 59.7277C104.502 59.7277 110.781 56.0207 110.781 51.4479C110.781 46.875 104.502 43.168 96.7575 43.168C89.0127 43.168 82.7344 46.875 82.7344 51.4479C82.7344 56.0207 89.0127 59.7277 96.7575 59.7277Z" fill="white" stroke="black" stroke-width="2" stroke-miterlimit="10" stroke-linecap="round" stroke-linejoin="round"/>
<path d="M134.136 39.818C136.409 39.818 138.252 37.9752 138.252 35.7019C138.252 33.4287 136.409 31.5859 134.136 31.5859C131.862 31.5859 130.02 33.4287 130.02 35.7019C130.02 37.9752 131.862 39.818 134.136 39.818Z" fill="#9595EF" stroke="black" stroke-width="2" stroke-miterlimit="10"/>
</svg>
