<svg width="129" height="110" viewBox="0 0 129 110" fill="none" xmlns="http://www.w3.org/2000/svg">
<path opacity="0.585045" fill-rule="evenodd" clip-rule="evenodd" d="M106.104 68.7076C122.775 86.142 149.744 81.2892 143.697 106.136C137.65 130.983 110.947 133.897 53.7051 123.397C-3.53711 112.897 4.45532 81.0743 20.407 65.4898C28.3832 57.6972 47.5005 44.1937 65.1081 44.0618C82.7155 43.9304 97.9807 60.2126 106.104 68.7076Z" fill="#9595EF"/>
<path d="M88.2551 100.162L101.026 24.7149L60.75 17.8184L48.0171 92.942C47.9872 93.0459 47.9653 93.1527 47.9639 93.263C47.9502 93.8922 48.3979 94.6155 49.3108 95.2882L63.0477 105.402C64.8814 106.752 67.8982 107.38 69.7843 106.807L86.813 101.623C87.7616 101.335 88.2421 100.797 88.2551 100.162Z" fill="white"/>
<path d="M66.6175 107.536C65.1616 107.287 63.6878 106.715 62.5771 105.895L48.8403 95.7816C47.7693 94.9939 47.1896 94.0845 47.2073 93.2182C47.2107 93.0659 47.2374 92.9099 47.2867 92.7442L59.9236 18.1508C60.0267 17.5385 60.6821 17.1404 61.3864 17.261L100.606 23.9766C101.307 24.0966 101.793 24.6887 101.69 25.298L89.0043 100.248C88.9634 101.159 88.2675 101.885 87.0875 102.243L70.0588 107.426C69.0767 107.727 67.8517 107.748 66.6175 107.536ZM61.3819 18.5898L48.7599 93.0661C48.7226 93.2021 48.7136 93.2551 48.714 93.3036C48.7047 93.7442 49.0912 94.2859 49.7766 94.791L63.5135 104.904C65.1306 106.095 67.8731 106.676 69.5069 106.182L86.5356 100.999C86.9713 100.866 87.4917 100.605 87.5036 100.118L87.5126 100.035L100.175 25.2339L61.3816 18.5913L61.3819 18.5898Z" fill="black"/>
<path d="M99.5924 26.2866L82.5637 31.4698C80.6774 32.0448 77.6608 31.4147 75.8271 30.0648L62.0902 19.9514C60.2564 18.6015 60.2989 17.0414 62.1852 16.4663L79.2139 11.2832C81.1002 10.7082 84.1166 11.3382 85.9504 12.6881L99.6873 22.8016C101.523 24.1517 101.479 25.7116 99.5924 26.2866Z" fill="white"/>
<path d="M79.3957 32.2008C77.9398 31.9515 76.466 31.3796 75.355 30.5609L61.6182 20.4474C60.4373 19.5789 59.851 18.5457 60.0122 17.6146C60.1515 16.801 60.8237 16.1725 61.9045 15.8442L78.9352 10.6599C81.0806 10.0066 84.3648 10.681 86.4166 12.1924L100.153 22.3058C101.335 23.1729 101.919 24.2059 101.76 25.1357C101.622 25.9496 100.948 26.5793 99.8672 26.9091L82.8367 32.0919C81.8531 32.3914 80.6298 32.4121 79.3957 32.2008ZM82.1357 11.844C81.1656 11.6779 80.2167 11.6835 79.4869 11.9053L62.4563 17.0897C62.0591 17.211 61.5713 17.444 61.4985 17.8691C61.4197 18.3191 61.8148 18.9122 62.5511 19.4563L76.288 29.5697C77.9034 30.7595 80.6493 31.3418 82.2814 30.8474L99.3117 25.6645C99.7089 25.5432 100.199 25.3091 100.27 24.8836C100.347 24.4334 99.9532 23.842 99.2169 23.2979L85.48 13.1845C84.5859 12.524 83.3427 12.0507 82.1357 11.844Z" fill="black"/>
<path d="M79.2433 21.7407L80.9381 16.8093C80.916 16.8161 80.8913 16.8179 80.8693 16.8248L69.1479 20.3922C69.0431 20.4242 68.9514 20.4615 68.8659 20.5029L79.2433 21.7407Z" fill="#7B7BDB"/>
<path d="M67.9707 19.3587L68.9813 18.8805C69.0819 18.8326 69.1926 18.7865 69.3192 18.7491L81.7534 14.9675L81.6037 15.5871L79.8234 20.7734L67.9707 19.3587ZM80.6655 16.0079L70.7318 19.0273L79.2787 20.0471L80.6655 16.0079Z" fill="black"/>
<path d="M81.2745 23.218L68.6445 21.7126C68.688 21.7533 68.728 21.795 68.7805 21.8343L76.7328 27.6892C77.44 28.2101 78.7442 28.4092 79.6487 28.134L91.37 24.5665C92.2727 24.291 92.4317 23.6474 91.7263 23.1268L83.7739 17.2719C83.6626 17.1892 83.5319 17.1184 83.3933 17.0522L81.2745 23.218Z" fill="#7B7BDB"/>
<path d="M78.3054 27.1886C77.7399 27.0918 77.2045 26.8911 76.8161 26.605L68.8638 20.7501C68.805 20.7067 68.7617 20.6645 68.7184 20.6222L68.0366 19.9633L68.9955 20.0518L81.3178 21.5227L83.4754 15.2424L83.8753 15.4305C84.0606 15.5183 84.2035 15.6003 84.3239 15.6906L92.2763 21.5455C92.7112 21.8653 92.9118 22.251 92.8468 22.6306C92.7775 23.0352 92.4053 23.3667 91.8242 23.5443L80.1027 27.1133C79.5675 27.2776 78.9182 27.2936 78.3054 27.1886ZM70.1426 20.8525L77.2826 26.1094C77.8844 26.5532 79.0484 26.7268 79.826 26.4904L91.5475 22.9215C91.8672 22.8248 92.0737 22.6678 92.1016 22.5045C92.1339 22.3162 91.9315 22.1346 91.8076 22.0438L83.9282 16.2407L81.8626 22.249L70.1426 20.8525Z" fill="black"/>
<path d="M79.4421 31.5375L66.3199 106.808L69.7824 106.807L88.0811 101.26L100.797 26.0623L86.2076 30.1578L81.0788 31.6769L79.4421 31.5375Z" fill="#7684CA"/>
<path d="M59.0936 109.1L67.2957 60.4973L34.6836 54.9131L26.5193 103.214C26.4923 103.311 26.4735 103.41 26.4682 103.512C26.445 104.095 26.7933 104.758 27.5225 105.364L38.4881 114.473C39.9527 115.689 42.3918 116.211 43.9374 115.641L57.8914 110.484C58.6686 110.199 59.071 109.691 59.0936 109.1Z" fill="white"/>
<path d="M41.3298 116.524C40.1245 116.318 38.914 115.805 38.0093 115.055L27.0437 105.945C26.1538 105.209 25.6852 104.333 25.7175 103.483C25.7207 103.342 25.7463 103.183 25.7948 103.011L33.8567 55.2887C33.973 54.5994 34.6256 54.1361 35.3146 54.2541L66.9262 59.667C67.6118 59.7844 68.0737 60.435 67.958 61.121L59.847 109.182C59.7902 110.084 59.1756 110.813 58.156 111.191L44.2022 116.347C43.3761 116.653 42.3543 116.698 41.3298 116.524ZM27.2268 103.542C27.2122 103.902 27.5039 104.367 28.0089 104.786L38.9744 113.896C40.2317 114.939 42.386 115.414 43.6808 114.935L57.6345 109.779C57.9493 109.66 58.3298 109.443 58.343 109.071L58.3542 108.975L66.4308 61.1156L35.3066 55.7862L27.2681 103.342L27.2268 103.542Z" fill="black"/>
<path d="M66.099 61.9816L52.145 67.1392C50.599 67.7109 48.1583 67.1884 46.6954 65.9725L35.7298 56.8633C34.2652 55.6472 34.3321 54.1984 35.878 53.6267L49.8317 48.4708C51.3776 47.8991 53.8184 48.4215 55.2813 49.6374L66.2469 58.7466C67.7114 59.9628 67.6449 61.4099 66.099 61.9816Z" fill="white"/>
<path d="M49.5357 68.0233C48.3303 67.8169 47.1196 67.3064 46.2154 66.5521L35.2498 57.4429C34.2688 56.6284 33.7943 55.6341 33.9517 54.7148C34.0906 53.9039 34.6827 53.2647 35.62 52.9199L49.5737 47.764C51.3691 47.0991 54.0898 47.666 55.7668 49.0562L66.7303 58.1668C67.7127 58.9833 68.1873 59.9776 68.0299 60.8969C67.891 61.7078 67.2991 62.3453 66.3619 62.6901L52.4078 67.8477C51.5817 68.1541 50.5616 68.199 49.5357 68.0233ZM52.1777 49.0725C51.4159 48.942 50.6713 48.9661 50.0966 49.1779L36.1428 54.3338C35.9064 54.4222 35.4995 54.6209 35.44 54.968C35.378 55.3302 35.6768 55.8345 36.2153 56.2821L47.1809 65.3913C48.4385 66.4326 50.5905 66.9109 51.8869 66.4324L65.841 61.2748C66.0774 61.1864 66.486 60.988 66.5454 60.6409C66.6075 60.2787 66.3087 59.7744 65.7688 59.3248L54.8049 50.2158C54.1038 49.6392 53.1292 49.2354 52.1777 49.0725Z" fill="black"/>
<path d="M45.7957 55.5595C42.5123 56.7729 42.0331 59.5713 44.7257 61.808C47.42 64.045 52.2651 64.8747 55.5485 63.6613C58.8336 62.4481 59.3127 59.6497 56.6184 57.4127L50.6711 59.6111L45.7957 55.5595Z" fill="#BBBBFF"/>
<path d="M50.1299 62.7942C48.1035 62.4472 46.1516 61.6547 44.7602 60.4998C43.3493 59.326 42.697 57.9562 42.9228 56.6374C43.1483 55.3203 44.2195 54.2439 45.9403 53.608L46.1451 53.5316L51.0224 57.5817L56.9695 55.385L57.1372 55.5253C58.5466 56.6971 59.2008 58.0673 58.9749 59.386C58.7491 60.7048 57.6778 61.7812 55.9571 62.4171C54.261 63.0415 52.1563 63.1412 50.1299 62.7942ZM46.0012 54.3921C44.6623 54.9348 43.8378 55.7712 43.668 56.7632C43.4897 57.8044 44.0489 58.9247 45.2434 59.9169C47.8415 62.0747 52.5274 62.8771 55.6954 61.7066C57.152 61.1684 58.0521 60.2979 58.2303 59.2568C58.4005 58.263 57.8995 57.1997 56.8189 56.2445L50.8755 58.44L46.0012 54.3921Z" fill="black"/>
<path d="M46.1496 53.4461L51.0266 57.498L56.974 55.2996C54.2797 53.0626 49.4346 52.233 46.1496 53.4461Z" fill="#BBBBFF"/>
<path d="M51.2274 56.9322L45.6808 52.3231L46.2931 52.0951C49.6842 50.8426 54.7071 51.7027 57.4883 54.0121L57.9899 54.4308L51.2274 56.9322ZM47.1944 52.6015L51.3744 56.0739L56.4715 54.19C53.9895 52.4738 50.1043 51.8085 47.1944 52.6015Z" fill="black"/>
<path d="M49.4675 67.2478L41.1179 115.725L46.092 114.844L59.0213 109.576L67.2533 61.5004L51.4566 67.5884L49.4675 67.2478Z" fill="#7B7BDB"/>
<path d="M115.209 89.6211L87.3981 66.5187C85.4119 64.8682 83.4153 64.3678 81.6774 64.8491L70.1203 69.4012L74.8799 82.7486L71.1269 104.667C69.934 111.633 72.7837 120.452 77.4932 124.364L94.8677 138.796L100.102 153.474L111.979 148.769C113.906 147.765 115.394 145.407 115.989 141.933L121.573 109.318C122.767 102.35 119.917 93.5325 115.209 89.6211Z" fill="white"/>
<path d="M114.447 93.3975L86.6364 70.2951C84.6502 68.6446 82.6536 68.1442 80.9157 68.6255L69.3586 73.1776L74.1182 86.525L70.3651 108.443C69.1723 115.409 72.022 124.228 76.7314 128.14L101.029 120.742L120.813 113.096C122.006 106.128 119.157 97.3091 114.447 93.3975Z" fill="#BBBBFF"/>
<path d="M99.7192 154.321L94.319 139.179L77.0803 124.859C72.2218 120.82 69.2646 111.713 70.4905 104.553L74.2146 82.8046L69.3022 69.0268L81.4403 64.2466C83.5098 63.6704 85.7495 64.3084 87.8108 66.0188L115.621 89.1211C120.48 93.1593 123.437 102.265 122.212 109.425L116.627 142.04C116.017 145.602 114.473 148.195 112.28 149.341L99.7192 154.321ZM73.9107 71.961L75.5482 82.6897L71.7667 104.774C70.6104 111.527 73.3661 120.091 77.9075 123.864L95.4175 138.412L97.5688 144.074L116.185 136.97L120.938 109.208C122.095 102.455 119.339 93.8927 114.797 90.1196L86.9864 67.0172L73.9107 71.961Z" fill="#7B7BDB"/>
<path d="M94.355 151.803L66.5442 128.701C61.8365 124.789 58.9865 115.972 60.1796 109.004L65.7645 76.3884C66.9573 69.4221 71.7414 66.9443 76.4491 70.8557L104.26 93.9581C108.968 97.8694 111.818 106.687 110.625 113.655L105.04 146.27C103.847 153.238 99.0627 155.714 94.355 151.803Z" fill="white"/>
<path d="M97.8131 154.22C96.5248 153.999 95.2083 153.354 93.942 152.302L66.1295 129.199C61.271 125.161 58.3138 116.054 59.5394 108.896L65.1243 76.2804C65.7913 72.385 67.6105 69.6175 70.118 68.6912C72.2294 67.9113 74.6234 68.5025 76.8603 70.3579L104.673 93.4606C109.53 97.4985 112.487 106.606 111.261 113.765L105.676 146.381C105.009 150.278 103.19 153.044 100.682 153.97C99.7673 154.307 98.7984 154.388 97.8131 154.22ZM72.7722 69.7172C72.0053 69.5859 71.2613 69.6467 70.5658 69.9022C68.5029 70.6642 66.9849 73.0669 66.3977 76.4967L60.8128 109.112C59.6565 115.865 62.4125 124.428 66.954 128.201L94.7664 151.304C96.6302 152.855 98.5706 153.368 100.232 152.755C102.293 151.995 103.813 149.591 104.4 146.161L109.985 113.545C111.141 106.794 108.387 98.2282 103.845 94.4551L76.033 71.3524C74.9516 70.4528 73.8405 69.9001 72.7722 69.7172Z" fill="black"/>
<path d="M89.9417 136.513L77.7312 126.37C75.9113 124.858 74.8083 121.449 75.2695 118.755L79.471 94.2183C79.9322 91.5248 81.7811 90.5676 83.6027 92.0802L95.8132 102.223C97.6331 103.736 98.7361 107.145 98.2749 109.838L94.0734 134.375C93.6125 137.067 91.7616 138.025 89.9417 136.513Z" fill="#9595EF"/>
<path d="M89.9145 134.84C89.349 134.743 88.7765 134.464 88.2301 134.011L76.0197 123.868C74.0107 122.198 72.8326 118.586 73.3358 115.647L77.5373 91.1103C77.8197 89.4614 78.6161 88.2805 79.7211 87.872C80.6794 87.5168 81.7405 87.7717 82.7184 88.5838L94.9289 98.727C96.9378 100.397 98.1179 104.008 97.6141 106.95L93.4126 131.487C93.1302 133.136 92.3338 134.317 91.2288 134.725C90.8051 134.879 90.3614 134.916 89.9145 134.84ZM89.056 133.015C89.4844 133.372 90.128 133.746 90.7799 133.51C91.4403 133.266 91.9358 132.448 92.1381 131.267L96.3396 106.73C96.7582 104.285 95.7325 101.076 94.1017 99.7215L81.8912 89.5783C81.463 89.2192 80.8163 88.8437 80.1689 89.0831C79.5085 89.3272 79.013 90.145 78.8107 91.3266L74.6092 115.864C74.1906 118.308 75.2149 121.516 76.8454 122.872L89.056 133.015Z" fill="black"/>
<path d="M90.2988 129.639L79.5256 120.688C78.8695 120.144 78.4717 118.915 78.6378 117.945L82.1422 97.4794C82.3083 96.5094 82.9756 96.1636 83.6314 96.7098L94.4049 105.659C95.061 106.203 95.4587 107.432 95.2926 108.402L91.7883 128.868C91.6219 129.839 90.9548 130.183 90.2988 129.639Z" fill="white"/>
<path d="M89.3921 127.528C89.1161 127.48 88.8422 127.35 88.5888 127.141L77.8139 118.19C76.9874 117.501 76.5 116.032 76.7041 114.84L80.2088 94.3732C80.3363 93.6283 80.7199 93.0876 81.2612 92.8875C81.7469 92.7076 82.2853 92.8294 82.749 93.2155L93.5227 102.163C94.3496 102.85 94.8383 104.321 94.6342 105.512L91.1295 125.98C91.0023 126.723 90.6184 127.265 90.0771 127.465C89.8593 127.547 89.6257 127.568 89.3921 127.528ZM89.4163 126.145C89.5426 126.252 89.6168 126.256 89.6296 126.253C89.6782 126.233 89.7986 126.09 89.8548 125.761L93.3595 105.294C93.4861 104.554 93.176 103.557 92.6955 103.157L81.9203 94.208C81.8016 94.1075 81.722 94.0939 81.709 94.0986C81.6757 94.1103 81.5458 94.2275 81.4838 94.5898L77.9791 115.057C77.8525 115.797 78.1609 116.794 78.6417 117.192L89.4163 126.145Z" fill="black"/>
<path d="M108.666 89.1571C109.401 89.7691 109.271 90.5326 108.374 90.8652C107.475 91.1975 106.151 90.9708 105.416 90.3588C104.68 89.7465 104.81 88.983 105.709 88.6507C106.606 88.3181 107.93 88.5447 108.666 89.1571Z" fill="black"/>
<path d="M101.7 83.3675C102.438 83.9781 102.307 84.7433 101.408 85.0757C100.511 85.4083 99.1856 85.1813 98.4505 84.5692C97.7151 83.9589 97.8461 83.1937 98.743 82.8611C99.6412 82.5305 100.965 82.7572 101.7 83.3675Z" fill="black"/>
<path d="M94.7354 77.5817C95.4705 78.1937 95.3397 78.9572 94.4429 79.2898C93.5443 79.6221 92.2205 79.3954 91.4854 78.7834C90.7503 78.1713 90.881 77.4078 91.7779 77.0752C92.6747 76.7426 93.9986 76.9693 94.7354 77.5817Z" fill="black"/>
<path d="M87.7642 71.7896C88.5013 72.4002 88.3703 73.1654 87.4717 73.4977C86.5748 73.8303 85.2493 73.6034 84.5142 72.9913C83.7774 72.379 83.9082 71.6155 84.8067 71.2832C85.7033 70.9523 87.0271 71.1789 87.7642 71.7896Z" fill="black"/>
<path d="M70.5858 68.6124L70.1086 67.4102L79.5466 63.6732C81.0158 63.0918 82.7092 63.3278 83.9611 64.3002L85.5012 65.4926L84.7075 66.5155L83.1691 65.3233C82.277 64.6304 81.0707 64.4604 80.0235 64.8771L70.5858 68.6124Z" fill="white"/>
</svg>
