<svg width="214" height="124" viewBox="0 0 214 124" fill="none" xmlns="http://www.w3.org/2000/svg">
<g clip-path="url(#clip0)">
<path opacity="0.565123" fill-rule="evenodd" clip-rule="evenodd" d="M195.438 69.2031C225.611 94.7596 219.435 122.817 205.205 139.424C190.974 156.03 63.5361 187 27.0116 164.675C-9.51286 142.351 -4.60133 114.805 15.8496 97.9555C30.982 85.488 69.6198 44.9778 101.455 44.7734C133.29 44.5684 164.112 46.1051 178.812 58.5573L195.438 69.2031Z" fill="#9595EF"/>
<path d="M131.632 164.798L131.936 164.645L145.827 154.893L140.983 148.4C141.701 144.621 141.958 140.428 141.589 135.778C139.356 107.609 116.866 74.9243 91.355 62.7719C87.1429 60.7656 83.1351 59.5083 79.351 58.8273L74.6477 51.9912L60.9219 61.4368C52.6193 66.4417 48.04 77.0497 49.2074 91.7774C51.4399 119.946 73.9302 152.631 99.441 164.781C112.778 171.133 123.994 170.766 131.632 164.798Z" fill="white"/>
<path d="M142.689 147.997C143.362 144.096 143.532 139.945 143.19 135.652C140.921 107.016 117.975 73.6723 92.0414 61.3206C88.1358 59.4578 84.1888 58.1299 80.2928 57.3687L75.0521 49.752L60.0787 60.0584C50.9736 65.5448 46.421 77.1548 47.5908 91.902C49.8597 120.538 72.8049 153.884 98.7389 166.236C105.422 169.419 111.747 171.012 117.448 171.012C123.202 171.012 128.313 169.39 132.511 166.151L148.102 155.258L142.689 147.997ZM61.8272 62.7627L74.2276 54.2315L78.3983 60.2943L79.0598 60.4135C82.8852 61.0993 86.7885 62.3833 90.6577 64.2267C115.665 76.1383 137.791 108.293 139.979 135.905C140.031 136.559 140.048 137.199 140.074 137.843L96.4116 119.55L68.9114 136.117C64.8841 130.642 61.3457 124.779 58.4955 118.741L72.4888 110.701L67.4815 98.4827L53.7119 106.372C52.209 101.413 51.1876 96.4618 50.8058 91.6491C49.7382 78.1616 53.7241 67.6533 61.8272 62.7627Z" fill="#7684CA"/>
<path d="M156.36 125.615C158.592 153.784 139.721 166.768 114.21 154.618C88.699 142.468 66.2087 109.783 63.9762 81.6115C61.7437 53.4425 80.6154 40.4585 106.126 52.6084C131.637 64.7607 154.127 97.4457 156.36 125.615Z" fill="white"/>
<path d="M132.187 160.8C126.457 160.8 120.137 159.224 113.517 156.067C87.583 143.716 64.6378 110.372 62.3688 81.7358C61.2428 67.5139 65.2774 56.4779 73.7332 50.6607C82.1866 44.8412 93.9376 45.0163 106.815 51.1544C132.749 63.5062 155.694 96.8502 157.963 125.486C159.091 139.706 155.054 150.744 146.598 156.561C142.493 159.392 137.603 160.8 132.187 160.8ZM88.1617 49.6467C83.3903 49.6467 79.1174 50.8675 75.562 53.3188C68.0935 58.4575 64.5503 68.4576 65.5814 81.4878C67.7702 109.1 89.8933 141.252 114.903 153.164C126.696 158.779 137.306 159.047 144.777 153.91C152.245 148.772 155.789 138.772 154.755 125.744C152.566 98.1343 130.441 65.9794 105.433 54.0679C99.2562 51.1228 93.405 49.6467 88.1617 49.6467Z" fill="#0D1857"/>
<path d="M145.174 123.787C146.767 143.87 133.311 153.128 115.123 144.466C96.9342 135.803 80.8982 112.498 79.3077 92.4155C77.7148 72.3327 91.1706 63.0744 109.359 71.7369C127.547 80.4018 143.583 103.704 145.174 123.787Z" fill="#9FA1F2"/>
<path d="M128.29 143.44C124.137 143.44 119.565 142.297 114.781 140.021C96.1598 131.152 79.6811 107.207 78.0517 86.6427C77.2346 76.3338 80.182 68.3158 86.3518 64.0721C92.5192 59.8235 101.063 59.9354 110.399 64.3858C129.022 73.255 145.499 97.1973 147.128 117.759C147.945 128.07 144.998 136.086 138.828 140.33C135.822 142.404 132.247 143.44 128.29 143.44ZM96.9039 64.1912C93.5941 64.1912 90.6369 65.0351 88.1807 66.7229C82.9982 70.2905 80.542 77.2725 81.2667 86.3898C82.8134 105.928 98.4725 128.681 116.167 137.112C124.424 141.045 131.826 141.247 137.006 137.679C142.186 134.114 144.643 127.129 143.92 118.012C142.371 98.474 126.714 75.721 109.017 67.2919C104.676 65.2248 100.574 64.1912 96.9039 64.1912Z" fill="#0D1857"/>
<path d="M133.634 110.516C134.568 122.308 126.669 127.743 115.991 122.656C105.312 117.568 95.898 103.886 94.9617 92.0963C94.0278 80.3039 101.927 74.8686 112.605 79.9562C123.284 85.0413 132.698 98.7257 133.634 110.516Z" fill="white"/>
<path d="M123.51 126.184C120.974 126.184 118.189 125.491 115.291 124.109C104.165 118.813 94.3226 104.506 93.3499 92.2195C92.8513 85.9209 94.685 81.0035 98.5104 78.3697C102.338 75.7335 107.589 75.7797 113.292 78.5011C124.415 83.7954 134.26 98.1024 135.232 110.386V110.384C135.733 116.685 133.9 121.607 130.074 124.238C128.192 125.539 125.967 126.184 123.51 126.184ZM105.081 79.6538C103.272 79.6538 101.662 80.1061 100.334 81.023C97.4963 82.9758 96.1563 86.862 96.56 91.9691C97.4525 103.229 106.475 116.342 116.674 121.203C121.295 123.406 125.407 123.538 128.248 121.59C131.086 119.637 132.426 115.748 132.02 110.644V110.641C131.127 99.3815 122.105 86.2686 111.908 81.4096C109.449 80.2399 107.134 79.6538 105.081 79.6538Z" fill="#0D1857"/>
<path d="M121.895 110.538C122.233 114.804 119.375 116.769 115.513 114.93C111.651 113.089 108.244 108.141 107.906 103.877C107.568 99.6118 110.426 97.6468 114.287 99.4853C118.152 101.326 121.556 106.273 121.895 110.538Z" fill="#9FA1F2"/>
<path d="M118.591 111.333C117.518 111.333 116.361 111.049 115.169 110.48C110.777 108.391 107.034 102.953 106.65 98.0986C106.438 95.4405 107.258 93.3296 108.958 92.1575C110.655 90.9901 112.919 90.9755 115.329 92.1258C119.721 94.2173 123.464 99.6575 123.849 104.509C124.058 107.167 123.238 109.276 121.538 110.446C120.682 111.039 119.683 111.333 118.591 111.333ZM111.92 94.5043C111.472 94.5043 111.086 94.6088 110.784 94.8156C110.081 95.2971 109.746 96.4012 109.86 97.8481C110.152 101.533 113.216 105.985 116.553 107.573C117.864 108.194 119.014 108.271 119.714 107.792C120.415 107.311 120.753 106.207 120.638 104.762C120.347 101.08 117.282 96.6225 113.946 95.0344C113.202 94.6842 112.508 94.5043 111.92 94.5043Z" fill="#0D1857"/>
<path d="M122.194 34.7565L119.02 53.3818L122.196 53.9232L125.37 35.2979L122.194 34.7565Z" fill="white"/>
<path d="M120.483 31.8064L117.309 50.4316L120.485 50.973L123.659 32.3477L120.483 31.8064Z" fill="#0D1857"/>
<path d="M173.472 84.6032L154.578 84.7393L154.601 87.9616L173.495 87.8255L173.472 84.6032Z" fill="white"/>
<path d="M170.444 82.5358L151.551 82.6699L151.574 85.8922L170.467 85.7581L170.444 82.5358Z" fill="#0D1857"/>
<path d="M152.058 2.96447L134.465 46.7148L137.455 47.9171L155.048 4.16672L152.058 2.96447Z" fill="white"/>
<path d="M150.323 -5.26421e-05L132.73 43.748L135.72 44.9503L153.313 1.20218L150.323 -5.26421e-05Z" fill="#0D1857"/>
<path d="M194.073 21.5188L128.199 71.5967L131.19 75.5307L197.064 25.4528L194.073 21.5188Z" fill="white"/>
<path d="M130.869 77.7976L125.93 71.2946L194.369 19.2734L199.306 25.7715L130.869 77.7976ZM130.409 71.3579L131.684 73.7095L194.991 25.5818L193.717 23.2302L130.409 71.3579Z" fill="#0D1857"/>
<path d="M114.358 87.0925L140.266 79.714L129.648 73.5224L126.596 61.7324L112.493 84.6314C111.703 85.9179 112.904 87.5059 114.358 87.0925Z" fill="white"/>
<path d="M125.622 80.1269L122.57 68.3369L111.918 85.6352C112.29 86.1848 113.11 87.4494 113.871 87.2329L130.415 82.9236L125.622 80.1269Z" fill="#7A88CC"/>
<path d="M113.895 88.7688C112.893 88.7688 111.934 88.3068 111.305 87.4726C110.483 86.3904 110.415 84.9434 111.127 83.7858L127.212 57.667L131.042 72.4701L144.35 80.2279L114.802 88.6424C114.5 88.7275 114.196 88.7688 113.895 88.7688ZM125.989 65.7945L113.87 85.4736L113.921 85.5417L136.193 79.1992L128.262 74.5737L125.989 65.7945Z" fill="#0D1857"/>
<path d="M199.124 6.60156L183.139 18.7514L173.786 38.3648C173.234 39.52 174.221 40.8114 175.481 40.5852L196.809 36.7331L212.794 24.5807L196.437 22.8273L199.124 6.60156Z" fill="white"/>
<path d="M195.557 37.4237L205.159 30.1255L193.889 28.9168L196.328 13.9727L180.346 26.125L172.945 40.8721C173.283 41.1713 173.716 41.3682 174.227 41.2758L195.557 37.4237Z" fill="#7A88CC"/>
<path d="M198.306 21.4111L201.377 2.86523L181.856 17.7097L172.335 37.6758C171.82 38.7555 171.951 40.0201 172.676 40.9734C173.284 41.7687 174.215 42.2234 175.197 42.2234C175.387 42.2234 175.579 42.2089 175.769 42.1724L197.479 38.2521L216.997 23.415L198.306 21.4111ZM196.141 35.2195L175.239 39.0571L184.424 19.7963L187.411 17.5248L185.506 28.4466L188.68 29.0011L191.18 14.6576L196.871 10.3312L194.568 24.2467L208.59 25.7496L196.141 35.2195Z" fill="#0D1857"/>
</g>
<defs>
<clipPath id="clip0">
<rect width="217" height="217" fill="white"/>
</clipPath>
</defs>
</svg>
