<svg width="165" height="111" viewBox="0 0 165 111" fill="none" xmlns="http://www.w3.org/2000/svg">
<path opacity="0.57" fill-rule="evenodd" clip-rule="evenodd" d="M111.388 133.543C138.785 124.221 162.379 125.879 164.867 94.9222C167.177 66.1784 139.548 46.7443 68.8331 54.1428C6.44131 60.6716 -9.82462 86.4171 5.24603 108.982C12.781 120.265 36.1655 137.713 57.1678 142.349C78.1701 146.985 97.8057 138.163 111.388 133.543Z" fill="#9595EF"/>
<g clip-path="url(#clip0)">
<path d="M114.182 120.434C111.462 108.851 105.52 90.9213 93.9834 84.0972C91.7632 82.7933 88.803 81.0112 87.127 80.0115L86.387 72.3181C87.0182 71.9921 87.693 71.6227 88.3459 71.2098L88.433 71.1663L88.6724 70.9924C90.2831 69.9275 91.502 68.6018 91.9809 66.3199L92.8951 62.2994L96.0512 48.2166C96.16 47.782 96.2689 47.3256 96.3559 46.8692L96.443 46.5215L96.4212 46.4997C96.5953 45.4348 96.7042 44.3265 96.7259 43.1095C96.8783 30.7653 88.3677 15.6394 77.724 9.33692C72.8484 6.44648 68.8434 5.75104 65.4043 7.20713L64.9255 7.38099L64.6643 7.53312C64.2725 7.70698 63.8807 7.90257 63.5107 8.14163L54.5212 13.0967L54.0423 14.0964L58.4174 17.3997C58.2868 18.3125 58.1997 19.2687 58.1997 20.2902C58.1779 21.4637 58.1779 22.3548 58.3085 23.5718L58.3738 23.8543L58.4609 24.615C58.548 25.2887 58.635 25.6581 58.7656 26.3319L62.3353 48.7599C62.923 52.7587 65.0561 58.1484 67.7768 62.1255L66.8627 68.2107C65.1867 67.2109 62.1829 65.255 59.9845 63.9511C55.4789 61.2779 52.1705 61.1258 49.1449 62.5819L48.7314 62.7558L47.7084 63.3425C47.7084 63.3425 47.6866 63.3425 47.6866 63.3643L39.8072 67.7325L41.5703 70.5795C40.6126 72.3833 39.8072 74.2523 39.176 76.0127C37.8047 79.7942 40.6561 86.1835 44.7699 88.6393L75.9392 107.09L77.2887 107.894L101.384 122.151C101.71 125.042 102.211 128.91 102.472 130.953C102.559 131.605 103.278 131.974 103.865 131.648L112.637 126.78C114.204 125.867 114.923 123.564 114.182 120.434Z" fill="white"/>
<path d="M103.409 132.561C103.148 132.561 102.865 132.496 102.625 132.365C102.103 132.105 101.755 131.605 101.668 131.018C101.406 129.084 100.949 125.455 100.623 122.608L44.3571 89.3348C39.9168 86.7052 36.9131 79.8377 38.3932 75.7302C39.0461 73.9264 39.7862 72.2095 40.6133 70.623L38.6326 67.4501L48.8409 61.843C52.2582 60.1696 55.9585 60.626 60.4206 63.2557C61.596 63.9511 63.0108 64.8422 64.3167 65.668C64.9915 66.1026 65.6445 66.5156 66.2322 66.8633L66.9069 62.3429C64.2732 58.3876 62.1184 53.0196 61.5089 48.8904L57.8522 25.9625C57.7651 25.5495 57.6998 25.2018 57.6345 24.702L57.5039 23.7457C57.3298 22.3331 57.3515 21.3334 57.3733 20.2685C57.3951 19.4644 57.4386 18.6603 57.5474 17.7692L52.9983 14.3572L53.8907 12.5099L63.1196 7.42451C63.4679 7.18545 63.8814 6.96812 64.3385 6.77253L64.5344 6.66386L65.1656 6.44654C68.7788 4.90352 73.045 5.6207 78.1601 8.64153C89.0214 15.0744 97.7279 30.548 97.5756 43.1312C97.5756 44.0875 97.4885 45.0437 97.3361 46.0869L97.3797 46.1086L97.162 47.0431C97.0749 47.4995 96.9661 47.9776 96.8573 48.434L92.787 66.4938C92.1993 69.3191 90.5233 70.7317 89.1303 71.6662L88.9126 71.8183C88.3249 72.2095 87.7808 72.5138 87.2584 72.7963L87.9114 79.5117L94.4195 83.3801C105.868 90.1607 111.92 107.177 115.01 120.239C115.794 123.585 115.054 126.346 113.051 127.476L104.28 132.344C103.997 132.496 103.692 132.561 103.409 132.561ZM40.9833 68.0369L42.5505 70.5578L42.3328 70.9708C41.4622 72.6007 40.6786 74.3828 39.9821 76.2953C38.7196 79.7073 41.4187 85.6838 45.206 87.9222L102.168 121.651L102.212 122.064C102.517 124.933 103.017 128.823 103.3 130.844L112.224 126.041C113.53 125.302 113.987 123.194 113.378 120.63C110.918 110.176 105.085 91.6385 93.5706 84.8145L86.3442 80.5114L85.5171 71.8401L86.0177 71.5793C86.6271 71.275 87.2801 70.9273 87.8896 70.5144L88.1725 70.3188C89.9356 69.1452 90.7845 67.9499 91.1545 66.1461L95.2466 48.0428C95.3554 47.5864 95.4642 47.1735 95.5513 46.7171L95.5948 46.3694C95.7907 45.2176 95.8778 44.1527 95.8996 43.1095C96.0519 31.0479 87.6937 16.2045 77.2894 10.0542C72.675 7.31584 68.8877 6.64213 65.7316 7.98956L65.0786 8.25035C64.665 8.44594 64.3167 8.64153 63.9685 8.85886L55.0879 13.8574L59.3105 17.0303L59.2452 17.5085C59.1146 18.5299 59.0276 19.4209 59.0276 20.2902C59.0058 21.5073 59.0058 22.3331 59.1364 23.4632L59.1799 23.6588L59.2887 24.5064C59.354 24.9628 59.4193 25.267 59.4846 25.6365L59.5935 26.158L63.1631 48.6296C63.7508 52.6501 65.8839 57.8877 68.4741 61.6692L68.6482 61.93L67.5164 69.5364L66.4498 68.9062C65.6663 68.4498 64.5779 67.7543 63.4461 67.0372C62.1401 66.2113 60.7471 65.342 59.5935 64.6466C55.6103 62.2777 52.4977 61.8648 49.5375 63.3209L49.0804 63.5165L40.9833 68.0369Z" fill="#16110D"/>
<path d="M104.521 125.802C101.8 114.219 95.8577 96.2894 84.3216 89.4654C82.1014 88.1614 79.1412 86.3794 77.4652 85.3797L76.7252 77.6863C78.9888 76.5562 81.6443 74.9263 82.3191 71.6881L83.2333 67.6675L86.3894 53.5848C86.4982 53.1501 86.607 52.6937 86.6941 52.2374L86.7812 51.8896L86.7594 51.8679C86.9335 50.803 87.0424 49.6946 87.0641 48.4776C87.2165 36.1335 78.7059 21.0075 68.0622 14.7051C57.4185 8.40261 48.6685 13.3142 48.5379 25.6583C48.5161 26.8319 48.5161 27.7229 48.6467 28.94L48.712 29.2225L48.7991 29.9831C48.8861 30.6568 48.9732 31.0263 49.1038 31.7L52.6735 54.1281C53.2611 58.1269 55.3942 63.5166 58.115 67.4937L57.2008 73.5788C55.5248 72.5791 52.5211 70.6232 50.3227 69.3192C38.7431 62.4734 32.4744 73.1442 29.4924 81.3591C28.1211 85.1189 30.9725 91.53 35.0863 93.9858L66.2556 112.437L67.6051 113.241L98.6655 131.627C102.845 134.104 105.783 131.127 104.521 125.802Z" fill="white"/>
<path d="M101.472 133.343C100.471 133.343 99.4041 133.017 98.294 132.365L34.693 94.7245C30.2527 92.0948 27.249 85.2273 28.7291 81.1199C30.6663 75.7736 34.1489 68.9713 39.8299 66.9502C43.1601 65.7549 46.8386 66.3199 50.7565 68.6453C51.9319 69.3408 53.3249 70.2101 54.6309 71.0359C55.3274 71.4706 55.9804 71.8835 56.5681 72.2529L57.2429 67.7325C54.6092 63.7772 52.4543 58.4092 51.8448 54.28L48.1881 31.3521C48.101 30.9392 48.0357 30.5914 47.9704 30.0916L47.8399 29.1354C47.6657 27.7227 47.6875 26.723 47.7093 25.6581C47.7746 19.3774 49.9947 14.6831 53.9562 12.4664C57.9176 10.2497 63.0762 10.793 68.496 13.9877C79.3574 20.4206 88.0639 35.8942 87.9115 48.4774C87.9115 49.4119 87.8244 50.3899 87.6721 51.4113L87.7156 51.4331L87.5197 52.411C87.4326 52.8674 87.3238 53.3238 87.215 53.8019L83.1447 71.8617C82.4699 75.1216 80.0539 76.9037 77.6161 78.1642L78.2691 84.8796L84.7772 88.748C96.2262 95.5286 102.277 112.524 105.368 125.607C106.108 128.736 105.52 131.344 103.801 132.604C103.104 133.104 102.321 133.343 101.472 133.343ZM43.3342 67.9933C42.3112 67.9933 41.3317 68.1672 40.3958 68.4932C35.3243 70.3187 32.1029 76.6647 30.2963 81.6632C29.0556 85.0752 31.7546 91.0517 35.5419 93.2901L99.1211 130.931C100.601 131.8 101.885 131.931 102.778 131.279C103.931 130.431 104.28 128.41 103.714 125.998C101.254 115.544 95.4209 97.0064 83.8847 90.1824L76.6584 85.8793L75.8312 77.208L76.3319 76.9472C78.6609 75.7736 80.9028 74.3175 81.4905 71.514L85.5825 53.4107C85.6913 52.9543 85.8002 52.5414 85.8872 52.085L85.9525 51.7373C86.1484 50.5855 86.2355 49.5206 86.2573 48.4774C86.3879 36.4158 78.0514 21.5724 67.6471 15.4221C62.7715 12.5316 58.2006 11.9883 54.7833 13.9225C51.366 15.835 49.4506 20.0076 49.3853 25.6799C49.3635 26.8969 49.3635 27.7445 49.4941 28.8528L49.5376 29.0484L49.6465 29.896C49.7117 30.3307 49.7553 30.6566 49.8423 31.0261L49.9512 31.5694L53.5208 54.041C54.1085 58.0615 56.2416 63.2991 58.8318 67.0806L59.0059 67.3414L57.8741 74.9478L56.8075 74.3175C56.024 73.8394 54.9356 73.1657 53.7603 72.4268C52.4761 71.601 51.083 70.7316 49.9294 70.0579C47.6004 68.6888 45.3803 67.9933 43.3342 67.9933Z" fill="#16110D"/>
<path d="M96.8129 44.7391L96.0728 36.3721L86.4086 41.8052L87.5187 47.5861L83.1872 68.4929L82.9043 68.645L81.816 73.1437L78.2245 77.099L76.7227 77.7076L77.4627 85.3792L87.1269 80.0112L86.3869 72.3179L90.7401 69.8403L92.2202 64.7766L92.7208 63.0163L96.8129 44.7391Z" fill="#16110D"/>
<path d="M146.983 37.3508C146.983 25.3762 137.993 10.6414 127.371 5.86025C123.432 4.0999 120.167 3.92604 117.446 5.40386L117.12 5.57772H117.098C117.076 5.59946 117.054 5.59945 117.032 5.62119L108.413 10.6849C108.021 10.924 107.912 11.4455 108.174 11.815L111.787 16.7048C111.656 25.2675 116.205 35.308 122.713 42.132V49.3255C122.713 50.673 124.085 52.1725 124.955 51.7813L130.767 49.1517L132.857 52.8897C133.096 53.3026 133.618 53.433 134.01 53.2157L141.737 48.7388V48.717C144.98 46.9132 146.983 42.9796 146.983 37.3508Z" fill="white"/>
<path d="M133.598 54.1715C133.445 54.1715 133.293 54.1498 133.162 54.1063C132.727 53.9759 132.357 53.7151 132.139 53.3022L130.42 50.2162L125.305 52.5198C124.761 52.7589 124.151 52.672 123.542 52.3025C122.715 51.7809 121.887 50.5856 121.887 49.3251V42.4794C115.183 35.351 110.939 25.3975 110.961 16.987L107.5 12.3144C107.239 11.945 107.13 11.4886 107.217 11.0322C107.304 10.5976 107.587 10.2064 107.979 9.96732L117.055 4.66455C119.994 3.05634 123.476 3.20847 127.699 5.09921C138.408 9.90212 147.811 24.9628 147.811 37.3287C147.811 42.8705 145.961 47.0432 142.587 49.1947L142.174 49.4555L134.447 53.9325C134.185 54.1063 133.881 54.1715 133.598 54.1715ZM131.116 48.1081L133.576 52.5198L141.325 48.0212C144.416 46.2826 146.135 42.4794 146.135 37.3505C146.135 25.5496 137.189 11.2061 127.003 6.62049C123.281 4.94708 120.277 4.79495 117.795 6.14237L117.447 6.31623L108.806 11.4017L112.615 16.4436V16.7262C112.506 24.7673 116.794 34.7425 123.324 41.5666L123.563 41.8056V49.3469C123.563 50.1944 124.391 51.042 124.674 51.042L131.116 48.1081Z" fill="#16110D"/>
<path d="M138.495 42.2843C138.495 30.3096 129.506 15.5749 118.884 10.7937C110.961 7.25125 104.475 10.8154 103.452 19.3129C102.363 28.3319 107.13 39.6329 114.248 47.0655V54.259C114.248 55.6064 115.619 57.1059 116.49 56.7148L123.368 53.607C131.9 57.1711 138.495 52.5204 138.495 42.2843Z" fill="#9595EF"/>
<g clip-path="url(#clip1)">
<path d="M119.025 35.9807L116.932 21.4817C116.903 21.2409 116.875 21.0002 116.875 20.7862C116.875 18.8601 118.035 18.5391 120.327 19.7964C122.618 21.0537 123.778 22.632 123.778 24.5313C123.778 24.7988 123.75 25.0128 123.722 25.2001L121.6 37.3985L119.025 35.9807ZM120.327 39.4316C122.335 40.5284 123.326 42.1602 123.326 44.3538C123.326 46.5473 122.335 47.0824 120.327 45.9856C118.318 44.9155 117.299 43.257 117.299 41.0634C117.299 38.8698 118.318 38.3348 120.327 39.4316Z" fill="black"/>
<path d="M117.306 34.262L115.213 19.7629C115.185 19.5222 115.156 19.2814 115.156 19.0674C115.156 17.1413 116.316 16.8203 118.608 18.0776C120.9 19.3349 122.06 20.9132 122.06 22.8125C122.06 23.0801 122.031 23.2941 122.003 23.4813L119.881 35.6798L117.306 34.262ZM118.608 37.7128C120.617 38.8096 121.607 40.4414 121.607 42.635C121.607 44.8286 120.617 45.3636 118.608 44.2668C116.599 43.1968 115.581 41.5382 115.581 39.3446C115.581 37.1511 116.599 36.616 118.608 37.7128Z" fill="white"/>
</g>
<path d="M116.163 57.6271C115.793 57.6271 115.423 57.4967 115.053 57.2576C114.226 56.736 113.399 55.5407 113.399 54.2802V47.4127C105.976 39.502 101.536 27.962 102.603 19.2255C103.125 14.879 105.084 11.5539 108.088 9.85871C111.135 8.14183 115.096 8.20703 119.21 10.0543C129.919 14.8572 139.322 29.9179 139.322 42.2838C139.322 47.6953 137.516 51.8679 134.272 54.0412C131.356 55.9754 127.503 56.1493 123.368 54.5193L116.816 57.4749C116.598 57.5836 116.381 57.6271 116.163 57.6271ZM113.05 10.2716C111.527 10.2716 110.112 10.6194 108.893 11.2931C106.346 12.7274 104.692 15.6179 104.235 19.4211C103.212 27.7881 107.565 38.9153 114.813 46.5L115.053 46.739V54.2802C115.053 55.1278 115.88 55.9754 116.163 55.9754L123.324 52.7372L123.651 52.8676C127.373 54.4106 130.833 54.3454 133.337 52.672C136.123 50.8248 137.646 47.1302 137.646 42.2838C137.646 30.483 128.7 16.1394 118.514 11.5539C116.62 10.6846 114.77 10.2716 113.05 10.2716Z" fill="#16110D"/>
<path d="M136.951 33.1123L145.505 28.1572L146.985 32.569V40.0015L146.158 43.9569L139.89 50.1289L134.84 52.5195L138.497 45.1522V37.3501L136.951 33.1123Z" fill="#16110D"/>
</g>
<defs>
<clipPath id="clip0">
<rect width="119.453" height="129.766" fill="white" transform="translate(28.3594 3.57812)"/>
</clipPath>
<clipPath id="clip1">
<rect width="9.45312" height="30.9375" fill="white" transform="translate(114.297 15.6094)"/>
</clipPath>
</defs>
</svg>
