<?xml version="1.0" encoding="UTF-8"?>
<svg width="212px" height="110px" viewBox="0 0 212 110" version="1.1" xmlns="http://www.w3.org/2000/svg" xmlns:xlink="http://www.w3.org/1999/xlink">
    <!-- Generator: Sketch 52.2 (67145) - http://www.bohemiancoding.com/sketch -->
    <title>Services Copy 5</title>
    <desc>Created with Sketch.</desc>
    <defs>
        <polygon id="path-1" points="0 -2.84217094e-14 212 -2.84217094e-14 212 109.267123 0 109.267123"></polygon>
        <polygon id="path-3" points="0.610452221 0.0819608911 183.312477 0.0819608911 183.312477 109.85247 0.610452221 109.85247"></polygon>
    </defs>
    <g id="10.-Career" stroke="none" stroke-width="1" fill="none" fill-rule="evenodd">
        <g id="Services-Copy-5">
            <g id="Continuous-delivery">
                <mask id="mask-2" fill="white">
                    <use xlink:href="#path-1"></use>
                </mask>
                <use id="Rectangle-6" fill="#FFFFFF" xlink:href="#path-1"></use>
                <g id="QA" mask="url(#mask-2)">
                    <g transform="translate(57.000000, 4.000000)">
                        <g id="Group-3" stroke="none" stroke-width="1" fill="none" fill-rule="evenodd" transform="translate(0.000000, 25.000000)">
                            <mask id="mask-4" fill="white">
                                <use xlink:href="#path-3"></use>
                            </mask>
                            <g id="Clip-2"></g>
                        </g>
                        <path d="M69.581675,40.3514784 L19.5383878,69.1661566 C16.1448483,71.120134 16.156268,75.9840796 19.5583722,77.9229574 L97.6102553,121.670156 C100.688327,123.424536 104.469183,123.444355 107.565336,121.722061 L158.395151,93.4500233 C161.843886,91.5319073 161.874338,86.61936 158.449395,84.6597203 L79.68188,40.3377944 C76.5552749,38.5494404 72.703522,38.554159 69.581675,40.3514784 Z" id="Stroke-4" stroke="#000000" stroke-width="1" fill="none" stroke-linecap="round" stroke-linejoin="round" stroke-dasharray="4.022,8.045"></path>
                        <path d="M162,71.4928537 L152.03763,69.1257255 L82.8384305,29.3475567 C79.7038975,27.5456987 75.8423923,27.5513798 72.7130859,29.361286 L31.5626589,53.1679676 L20,55.5350958 L20,62.800759 C20.003326,64.5155067 20.8590626,66.2288341 22.5643588,67.2050377 L98.4521776,110.660777 C101.537296,112.427601 105.328479,112.447485 108.432128,110.712854 L159.388602,82.2358283 C160.803109,81.4452075 161.634138,80.1484946 161.898794,78.758517 L162,78.758517 L162,71.4928537 Z" id="Fill-6" stroke="none" fill="#FFFFFF" fill-rule="evenodd"></path>
                        <path d="M162,71.4928537 L152.03763,69.1257255 L82.8384305,29.3475567 C79.7038975,27.5456987 75.8423923,27.5513798 72.7130859,29.361286 L31.5626589,53.1679676 L20,55.5350958 L20,62.800759 C20.003326,64.5155067 20.8590626,66.2288341 22.5643588,67.2050377 L98.4521776,110.660777 C101.537296,112.427601 105.328479,112.447485 108.432128,110.712854 L159.388602,82.2358283 C160.803109,81.4452075 161.634138,80.1484946 161.898794,78.758517 L162,78.758517 L162,71.4928537 Z" id="Stroke-8" stroke="#000000" stroke-width="1" fill="none" stroke-linejoin="round"></path>
                        <path d="M72.7132872,23.3614602 L22.5450127,52.3847577 C19.1429684,54.3527839 19.1538968,59.2522555 22.5644937,61.2051322 L98.452413,104.66078 C101.537535,106.427601 105.328724,106.447484 108.432376,104.712856 L159.388918,76.2363644 C162.846079,74.3038451 162.876488,69.3556107 159.442609,67.3819034 L82.8386453,23.3477309 C79.7041081,21.5458767 75.8425978,21.5510844 72.7132872,23.3614602" id="Fill-10" stroke="none" fill="#FFFFFF" fill-rule="evenodd"></path>
                        <path d="M72.7132872,23.3614602 L22.5450127,52.3847577 C19.1429684,54.3527839 19.1538968,59.2522555 22.5644937,61.2051322 L98.452413,104.66078 C101.537535,106.427601 105.328724,106.447484 108.432376,104.712856 L159.388918,76.2363644 C162.846079,74.3038451 162.876488,69.3556107 159.442609,67.3819034 L82.8386453,23.3477309 C79.7041081,21.5458767 75.8425978,21.5510844 72.7132872,23.3614602 Z" id="Stroke-12" stroke="#000000" stroke-width="1" fill="none" stroke-linejoin="round"></path>
                        <path d="M72.1323337,23.1149262 L123.129977,52.3908948 L126.02336,54.05208 L153.959958,70.0891062 L160.772783,74 C162.766769,71.7044754 162.33243,67.935753 159.458425,66.2778741 L83.2578205,22.3459727 C80.1432514,20.5468671 76.3008466,20.551118 73.1862775,22.3601426 L72,23.0478553 L72.1323337,23.1149262 Z" id="Fill-14" stroke="none" fill="#FFFFFF" fill-rule="evenodd"></path>
                        <path d="M72.426915,23.5128835 L160.180993,73.9148214 C160.90453,72.9227931 161.197727,71.6711731 160.988233,70.4228631 C160.757931,69.049722 159.962041,67.9073291 158.746689,67.2056275 L82.501567,23.2268125 C79.5383784,21.5132232 75.858747,21.5184245 72.89745,23.2400521 L72.426915,23.5128835 Z M160.297327,75 C160.217406,75 160.136068,74.9796677 160.061823,74.9371117 L125.65507,55.1750392 L120.709959,52.3351338 L71.3803883,24.0027507 L71.259326,23.9412809 C71.1046878,23.8627886 71.004906,23.706277 71.000177,23.532743 C70.995448,23.3596818 71.0857718,23.1974961 71.2352081,23.1100198 L72.4226589,22.4215579 C75.6762078,20.5311247 79.719499,20.5259234 82.9744666,22.4073726 L159.219116,66.3866605 C160.662405,67.2198129 161.647455,68.6336186 161.920791,70.2663515 C162.198856,71.9246179 161.737306,73.5904499 160.654366,74.8373414 C160.56215,74.9437315 160.431157,75 160.297327,75 Z" id="Fill-16" stroke="none" fill="#000000" fill-rule="evenodd"></path>
                        <path d="M93.0621718,81.6098305 C88.8041434,79.1281876 87.9133738,75.5426432 90.9506833,73.6134257 C93.9884601,71.6846827 100.040179,71.9936423 104.333726,74.5279649 C108.627273,77.0622876 109.665258,80.9245193 106.608787,82.8010571 C103.552784,84.6775948 97.3197329,84.0914734 93.0621718,81.6098305 M126.636616,92.2478159 C127.013768,91.9108554 126.358075,91.0997772 125.498151,90.5957602 C122.717884,88.9655358 121.332658,87.0828284 121.878523,85.6139654 C122.440278,84.1109317 124.967241,83.2936838 128.220466,83.6705101 C129.243963,83.7901073 130.018363,83.4151794 129.999669,82.8062776 C129.953868,81.2197157 129.714118,79.5671855 129.264059,77.9307914 C129.088336,77.2891427 128.118584,76.7941429 127.058166,76.8064823 C123.860555,76.8444497 120.572279,75.5412194 119.302955,73.8312635 C117.988766,72.048695 118.714094,70.0027278 121.370046,68.5053892 C122.206135,68.0355429 122.398216,67.2799921 121.778042,66.8058744 C120.196996,65.5985117 118.397231,64.5525104 116.395569,63.6745147 C115.62117,63.3347067 114.424286,63.4799319 113.67746,63.9806267 C111.29818,65.5809518 108.044954,66.0944606 105.293663,65.4399979 C102.65734,64.8111632 100.721108,63.0285947 100.867856,61.2389073 C100.915059,60.6485145 100.214033,60.1558878 99.2601713,60.1046318 C96.7575105,59.9741189 94.2609253,59.9684238 91.8671572,60.0723595 C90.9352607,60.1117507 90.3076093,60.5811224 90.4281857,61.1458872 C90.8207599,62.9517107 89.4416092,64.4822707 87.0113878,64.9317096 C84.692863,65.3597918 81.6901375,64.6711584 79.1580336,63.1586329 C78.3546585,62.6569889 77.3755597,62.5245777 76.7712758,62.7689927 C75.2014462,63.4087431 73.8578141,64.1780571 72.7581389,65.077884 C72.347338,65.4129461 72.8992787,66.168497 73.6652658,66.6203088 C76.0305256,67.9705238 77.2255402,69.7625841 76.6165828,71.1782928 C76.0062233,72.5906794 73.644235,73.3519253 70.6466503,73.0140156 C69.708211,72.9091308 68.9870895,73.2408707 69.0001753,73.7842789 C69.0272816,75.186699 69.260022,76.6508161 69.6811046,78.1078143 C69.8451446,78.6792234 70.7246978,79.1281876 71.6893088,79.1338827 C74.5985643,79.1466967 77.6265268,80.3459914 78.7981739,81.8945859 C80.0273052,83.5153184 79.3561902,85.3368035 76.898395,86.5944729 C76.1249303,86.9883845 75.9421964,87.6551866 76.5090922,88.0937099 C77.2484404,88.6684411 78.0480767,89.2118492 78.91174,89.7234597 C79.7310051,90.2089675 80.6058848,90.6650507 81.5410527,91.0931329 C82.2818029,91.4324664 83.4394296,91.3532095 84.1614857,90.928924 C86.4543062,89.5730139 89.6149962,89.2313075 92.4116203,89.9768919 C95.1138396,90.6982721 97.239816,92.4969768 97.2402834,94.1912711 C97.2454242,94.75129 98.0268339,95.2681209 99.0512657,95.3905657 C101.72965,95.6995253 104.435608,95.9031254 107.034076,95.9975692 C108.040281,96.0355366 108.649706,95.6245397 108.427247,95.0583512 C107.718744,93.2506293 108.999284,91.8548535 111.522975,91.5696235 C113.898049,91.3010043 117.121832,92.1106587 119.80302,93.6545073 C119.950703,93.7418323 120.025012,93.7859693 120.174096,93.8742435 C121.008317,94.4000917 122.208472,94.6630158 122.809017,94.4456526 C124.348936,93.8842099 125.617325,93.1538125 126.636616,92.2478159" id="Fill-18" stroke="none" fill="#9595EF" fill-rule="evenodd"></path>
                        <path d="M51.6228741,65.8046564 C49.3891846,64.5641462 48.9219474,62.7713051 50.515725,61.8069603 C52.1090409,60.8426155 55.2836686,60.9967856 57.5362876,62.2636611 C59.7884449,63.5309835 60.3327856,65.4614605 58.729774,66.4003337 C57.1263008,67.33876 53.8565635,67.0451666 51.6228741,65.8046564 M69.2352246,71.1232993 C69.4337543,70.9548294 69.0893284,70.5495186 68.6382506,70.2974841 C67.1797502,69.4823939 66.453501,68.5412863 66.739753,67.8066326 C67.0343156,67.0554446 68.3598474,66.6465589 70.0667407,66.8351379 C70.6032324,66.8945716 71.0095257,66.7073332 70.9998301,66.4025681 C70.9758218,65.6093744 70.8502403,64.7835592 70.6138515,63.9653408 C70.5219738,63.6444884 70.0131838,63.3964757 69.4568391,63.4031788 C67.7794944,63.4219473 66.0545949,62.7704113 65.3883663,61.9155496 C64.6990529,61.0240446 65.0794911,60.0011599 66.4728922,59.2526532 C66.9115043,59.0175998 67.0121542,58.6399949 66.6871196,58.4027071 C65.8574503,57.7989862 64.9132802,57.2761487 63.8633815,56.8373226 C63.4570883,56.6675122 62.8291805,56.739905 62.4376616,56.9901521 C61.1892333,57.7900488 59.4823399,58.0474457 58.0390755,57.7198902 C56.6562934,57.405294 55.6405603,56.5142359 55.7176636,55.6196028 C55.7421336,55.3242219 55.3746229,55.0779967 54.8746051,55.0520783 C53.5615392,54.9872822 52.2517052,54.9841541 50.9963514,55.035991 C50.5074144,55.0556532 50.1777629,55.2907067 50.241477,55.5731283 C50.4469322,56.4758051 49.7239149,57.2412928 48.4487081,57.4660683 C47.2321368,57.679672 45.6572888,57.3355823 44.3289869,56.579032 C43.9074577,56.3287849 43.3940508,56.2622014 43.076865,56.3846437 C42.2536595,56.7046023 41.5486484,57.0889103 40.971989,57.538908 C40.7563765,57.7064842 41.0463222,58.084089 41.4475367,58.3102051 C42.6881162,58.9849783 43.3155623,59.8813989 42.9956064,60.5887936 C42.6756504,61.2952945 41.4369177,61.6760275 39.8639165,61.5071108 C39.3717476,61.4543801 38.9936179,61.6206156 39.0000816,61.8918655 C39.0143942,62.5930041 39.1367439,63.3249766 39.3578967,64.053821 C39.4437723,64.3398176 39.9050075,64.5641462 40.4110273,64.5663806 C41.9373971,64.5730836 43.5256344,65.1727827 44.1401529,65.946761 C44.7846817,66.7573826 44.4333304,67.668103 43.1438111,68.2968486 C42.7379795,68.4939181 42.6424083,68.8272829 42.9392793,69.0466959 C43.3271047,69.3335863 43.7467872,69.605283 44.1997118,69.8613393 C44.6295516,70.1039896 45.0884783,70.33234 45.5788004,70.5459437 C45.9675491,70.7157542 46.5746805,70.6759828 46.9537336,70.4641665 C48.156454,69.7862652 49.8148691,69.6151142 51.2821418,69.9878035 C52.6990895,70.3488742 53.8145491,71.2484228 53.8145491,72.0952409 C53.8173193,72.3754281 54.2273061,72.6337188 54.765183,72.69494 C56.1701266,72.8495569 57.5893827,72.9509963 58.9523119,72.9988113 C59.4804931,73.0175799 59.7999874,72.8120198 59.6831781,72.5287044 C59.3115121,71.6246871 59.9828193,70.9271235 61.3074276,70.785019 C62.5530858,70.6505112 64.2447431,71.0549282 65.6510718,71.827119 C65.7286369,71.8704654 65.7674194,71.8928089 65.8454462,71.937049 C66.2831348,72.1998084 66.9128894,72.3307412 67.2277666,72.2221518 C68.0357361,71.9415177 68.7010413,71.576872 69.2352246,71.1232993" id="Fill-20" stroke="none" fill="#9595EF" fill-rule="evenodd"></path>
                        <path d="M69.713199,1.36170077 L19.5450084,30.3850599 C16.1429698,32.3530903 16.1538982,37.2525723 19.5644894,39.2054531 L95.4522818,82.661193 C98.5373986,84.427544 102.328581,84.4474279 105.432228,82.7127964 L156.388685,54.2362439 C159.846315,52.3041938 159.876249,47.355949 156.442851,45.3822375 L79.8385401,1.347498 C76.7040082,-0.454360001 72.8425043,-0.448678893 69.713199,1.36170077" id="Fill-22" stroke="none" fill="#FFFFFF" fill-rule="evenodd"></path>
                        <path d="M69.713199,1.36170077 L19.5450084,30.3850599 C16.1429698,32.3530903 16.1538982,37.2525723 19.5644894,39.2054531 L95.4522818,82.661193 C98.5373986,84.427544 102.328581,84.4474279 105.432228,82.7127964 L156.388685,54.2362439 C159.846315,52.3041938 159.876249,47.355949 156.442851,45.3822375 L79.8385401,1.347498 C76.7040082,-0.454360001 72.8425043,-0.448678893 69.713199,1.36170077 Z" id="Stroke-24" stroke="#000000" stroke-width="1" fill="none" stroke-linejoin="round"></path>
                        <path d="M128.525278,57 C128.445644,57 128.364588,56.980066 128.290642,56.9373504 L100.238615,40.8871794 C100.011563,40.7566594 99.932877,40.4671421 100.062282,40.2397999 C100.192636,40.0119831 100.482731,39.9322472 100.708835,40.0627673 L128.760862,56.1134128 C128.988388,56.2434582 129.067548,56.5334501 128.937194,56.7607923 C128.849976,56.9140941 128.690234,57 128.525278,57" id="Fill-26" stroke="none" fill="#9595EF" fill-rule="evenodd"></path>
                        <path d="M87.5204309,33 C87.4399481,33 87.3580281,32.9796753 87.283294,32.9361225 L61.2418334,17.9045841 C61.0118825,17.771506 60.9318787,17.4763145 61.0631424,17.2440327 C61.1948851,17.0122347 61.4875934,16.9309361 61.7170653,17.0640142 L87.7585259,32.0960365 C87.9884768,32.2286307 88.0680015,32.5243062 87.9367378,32.7561041 C87.84859,32.9124104 87.6866662,33 87.5204309,33" id="Fill-28" stroke="none" fill="#020202" fill-rule="evenodd"></path>
                        <path d="M122.530453,60 C122.451653,60 122.371445,59.9823909 122.298272,59.9446572 L110.236118,53.7835793 C110.011442,53.6682819 109.933579,53.4125311 110.061631,53.2117039 C110.190151,53.0104573 110.477211,52.9400211 110.701418,53.0557378 L122.763572,59.2168157 C122.988718,59.3316939 123.06658,59.5878639 122.93806,59.7886912 C122.851754,59.9241133 122.693215,60 122.530453,60" id="Fill-30" stroke="none" fill="#020202" fill-rule="evenodd"></path>
                        <path d="M103.532141,50 C103.453624,50 103.373704,49.9774349 103.300795,49.929081 L91.2352693,42.0038792 C91.0114009,41.8572058 90.9338181,41.5283994 91.0614091,41.2710492 C91.1899348,41.0131619 91.4759629,40.9234385 91.699364,41.0711865 L103.764422,48.9963883 C103.988758,49.1430617 104.066341,49.4718681 103.938283,49.7292182 C103.852287,49.902755 103.694317,50 103.532141,50" id="Fill-32" stroke="none" fill="#020202" fill-rule="evenodd"></path>
                        <path d="M84.5125611,38 C84.4307575,38 84.3474932,37.9817544 84.2715328,37.9426568 L72.2454367,31.8117099 C72.0117123,31.6922448 71.9308826,31.4272496 72.0643003,31.2191632 C72.197718,31.0106423 72.4952297,30.9380945 72.7284672,31.0575595 L84.7545633,37.1885064 C84.9882877,37.3075371 85.0691174,37.5729667 84.9356997,37.7810531 C84.8461053,37.9213703 84.6815244,38 84.5125611,38" id="Fill-34" stroke="none" fill="#020202" fill-rule="evenodd"></path>
                        <path d="M68.534092,30 C68.4559366,30 68.3763855,29.9775338 68.3038125,29.929392 L56.2348402,21.9993617 C56.0115389,21.8527965 55.9338486,21.525967 56.0613165,21.2697454 C56.1892495,21.0135239 56.4734935,20.9236591 56.6963297,21.0707592 L68.765302,29.0007894 C68.9886033,29.1473546 69.0662936,29.4741842 68.9383605,29.7304057 C68.8527617,29.9031814 68.6959855,30 68.534092,30" id="Fill-36" stroke="none" fill="#020202" fill-rule="evenodd"></path>
                        <path d="M112.537923,66 C112.46041,66 112.381513,65.9800439 112.309537,65.9372808 L95.2322589,55.8879536 C95.011255,55.7572886 94.934665,55.4674498 95.0606233,55.2398551 C95.1875045,55.0117853 95.4694113,54.932436 95.6899538,55.0626259 L112.767232,65.1124282 C112.988697,65.2426181 113.065748,65.532932 112.938867,65.7605267 C112.853972,65.9139987 112.698485,66 112.537923,66" id="Fill-38" stroke="none" fill="#020202" fill-rule="evenodd"></path>
                        <path d="M86.5371484,52 C86.4594712,52 86.3804068,51.9812594 86.308278,51.9411009 L75.2332619,45.8338859 C75.0113269,45.7111794 74.9341121,45.4389941 75.0612623,45.2248154 C75.1874878,45.011083 75.4699925,44.9365666 75.6919274,45.058827 L86.7669435,51.1664881 C86.9888785,51.2887484 87.065631,51.56138 86.9389431,51.7751124 C86.8538681,51.9192368 86.6975889,52 86.5371484,52" id="Fill-40" stroke="none" fill="#020202" fill-rule="evenodd"></path>
                        <path d="M70.4833981,43 C70.3967003,43 70.3084543,42.9805956 70.2279492,42.9390147 L62.2600099,38.8631647 C62.012818,38.7365741 61.9266363,38.4542861 62.0680362,38.2329834 C62.2094362,38.0116808 62.5247478,37.9340631 62.7724557,38.0611158 L70.739879,42.1369658 C70.987587,42.2630945 71.0732526,42.5458444 70.9318527,42.7671471 C70.836898,42.9163762 70.6624703,43 70.4833981,43" id="Fill-42" stroke="none" fill="#9595EF" fill-rule="evenodd"></path>
                        <path d="M57.5339079,34 C57.4557216,34 57.3761391,33.9811428 57.3035374,33.9407344 L46.234584,27.8386251 C46.0111944,27.7160531 45.9339388,27.4417253 46.0614571,27.2262141 C46.1889753,27.0111519 46.473797,26.936172 46.6962558,27.0591929 L57.7652092,33.1613023 C57.9885988,33.2838743 58.0663198,33.5586511 57.9383362,33.7737133 C57.8527035,33.9187343 57.6958654,34 57.5339079,34" id="Fill-44" stroke="none" fill="#020202" fill-rule="evenodd"></path>
                        <path d="M107.515904,69 C107.434662,69 107.351969,68.9806574 107.276529,68.9392091 L83.2437533,55.8608741 C83.011632,55.7342264 82.9313567,55.4532987 83.0638593,55.2322409 C83.1963618,55.0116435 83.4918329,54.9342733 83.7234706,55.060921 L107.756247,68.1397165 C107.988368,68.2659037 108.068643,68.5472919 107.936141,68.7678893 C107.847161,68.9166428 107.683709,69 107.515904,69" id="Fill-46" stroke="none" fill="#020202" fill-rule="evenodd"></path>
                        <path d="M75.5024251,51 C75.4189575,51 75.3339994,50.9813455 75.2564938,50.9413717 L65.2503223,45.8296072 C65.0123404,45.7079091 64.9293697,45.4369754 65.0655013,45.2237816 C65.2016329,45.011032 65.5051965,44.9368583 65.7431784,45.0585564 L75.7493499,50.170321 C75.9878287,50.2920191 76.0707994,50.5633969 75.934171,50.7761466 C75.8427541,50.9196082 75.6753222,51 75.5024251,51" id="Fill-48" stroke="none" fill="#020202" fill-rule="evenodd"></path>
                        <path d="M57.5165997,41 C57.4355099,41 57.3529721,40.9791585 57.2776744,40.9344981 L40.2435097,30.9270919 C40.0118246,30.7911257 39.9312175,30.4879312 40.0639537,30.2502385 C40.1957246,30.0125459 40.4911231,29.9291798 40.7223256,30.0656421 L57.7564903,40.0730483 C57.9881754,40.2090145 58.0687825,40.512209 57.9360463,40.7499017 C57.8472337,40.9101829 57.6845714,41 57.5165997,41" id="Fill-50" stroke="none" fill="#9595EF" fill-rule="evenodd"></path>
                        <path d="M139.514367,52 C139.432903,52 139.349984,51.9782193 139.274339,51.9315465 L126.244419,43.9691559 C126.011664,43.827063 125.931169,43.5102061 126.064034,43.2612842 C126.196898,43.0128808 126.493176,42.9262767 126.725446,43.0683696 L139.755366,51.0312788 C139.988121,51.1728531 140.0691,51.4902286 139.935751,51.738632 C139.846528,51.9061357 139.683115,52 139.514367,52" id="Fill-52" stroke="none" fill="#020202" fill-rule="evenodd"></path>
                        <path d="M116.526986,38 C116.447639,38 116.366874,37.979589 116.293195,37.9358511 L99.2382121,27.9077255 C99.011505,27.774568 98.9331022,27.4781223 99.0620418,27.2448536 C99.1919261,27.0120708 99.4809776,26.9309127 99.70674,27.0640703 L116.761722,37.0921959 C116.988429,37.2253534 117.067305,37.5222851 116.93742,37.7550678 C116.850516,37.9120382 116.691349,38 116.526986,38" id="Fill-54" stroke="none" fill="#020202" fill-rule="evenodd"></path>
                        <path d="M89.5323201,23 C89.4538326,23 89.3739435,22.9798023 89.3010622,22.9365217 L72.2356304,12.8987679 C72.0113803,12.7670022 71.9338272,12.4731744 72.0613694,12.242825 C72.189846,12.0119946 72.4752977,11.931204 72.6990806,12.0639314 L89.7645124,22.1016852 C89.9887625,22.2334509 90.0663156,22.5272787 89.9383062,22.7576281 C89.8523437,22.9129577 89.6944342,23 89.5323201,23" id="Fill-56" stroke="none" fill="#9595EF" fill-rule="evenodd"></path>
                        <path d="M134.515776,54 C134.434548,54 134.35187,53.9805282 134.276444,53.9388028 L112.243857,41.8662639 C112.011778,41.7392334 111.931517,41.4559645 112.063512,41.2338929 C112.196474,41.0113576 112.491893,40.9339339 112.723489,41.061428 L134.756076,53.1339669 C134.988155,53.2609974 135.0689,53.5442663 134.935937,53.766338 C134.846973,53.9160857 134.684034,54 134.515776,54" id="Fill-58" stroke="none" fill="#020202" fill-rule="evenodd"></path>
                        <path d="M104.51381,38 C104.432216,38 104.349165,37.9795826 104.273399,37.9358311 L83.2444877,25.9085446 C83.0118476,25.7753456 82.931225,25.4783216 83.0638152,25.2454664 C83.1968912,25.0121251 83.4941264,24.9304556 83.7262808,25.0646269 L104.755192,37.0919134 C104.988318,37.2251124 105.06894,37.5221364 104.935864,37.7549916 C104.8465,37.9120109 104.68234,38 104.51381,38" id="Fill-60" stroke="none" fill="#020202" fill-rule="evenodd"></path>
                        <path d="M76.506727,20 C76.4239443,20 76.3396834,19.9831379 76.2628138,19.9470047 L67.2483743,15.7503416 C67.0118525,15.6407378 66.9300553,15.3950324 67.0650699,15.2027238 C67.2000845,15.0100138 67.5016498,14.9425652 67.7371862,15.0533735 L76.7516257,19.2500367 C76.9881475,19.3596405 77.0699447,19.6053458 76.9349301,19.7976544 C76.8442634,19.9273322 76.6777126,20 76.506727,20" id="Fill-62" stroke="none" fill="#020202" fill-rule="evenodd"></path>
                        <path d="M66,40.0002407 C66,33.3722792 76.5212586,28 89.5004671,28 C102.479208,28 113,33.3722792 113,40.0002407 C113,46.6277208 102.479208,52 89.5004671,52 C76.5212586,52 66,46.6277208 66,40.0002407" id="Fill-64" stroke="none" fill="#9595EF" fill-rule="evenodd"></path>
                        <path d="M115.819918,19.442768 C112.324124,12.827239 101.419003,8 88.500239,8 C75.7941672,8 65.034824,12.6690001 61.3569266,19.1162811 L60,18.2292855 L60,24.0002383 C60,32.8363544 72.7596032,40 88.500239,40 C104.239919,40 117,32.8363544 117,24.0002383 L117,18.2292855 L115.819918,19.442768 Z" id="Fill-66" stroke="none" fill="#FFFFFF" fill-rule="evenodd"></path>
                        <path d="M115.819918,19.442768 C112.324124,12.827239 101.419003,8 88.500239,8 C75.7941672,8 65.034824,12.6690001 61.3569266,19.1162811 L60,18.2292855 L60,24.0002383 C60,32.8363544 72.7596032,40 88.500239,40 C104.239919,40 117,32.8363544 117,24.0002383 L117,18.2292855 L115.819918,19.442768 Z" id="Stroke-68" stroke="#000000" stroke-width="1" fill="none" stroke-linejoin="round"></path>
                        <path d="M60,18 C60,9.16375227 72.7596032,2 88.500239,2 C104.240397,2 117,9.16375227 117,18 C117,26.8367244 104.240397,34 88.500239,34 C72.7596032,34 60,26.8367244 60,18" id="Fill-70" stroke="none" fill="#FFFFFF" fill-rule="evenodd"></path>
                        <path d="M60,18 C60,9.16375227 72.7596032,2 88.500239,2 C104.240397,2 117,9.16375227 117,18 C117,26.8367244 104.240397,34 88.500239,34 C72.7596032,34 60,26.8367244 60,18 Z" id="Stroke-72" stroke="#000000" stroke-width="1" fill="none" stroke-linejoin="round"></path>
                        <path d="M113,17.2990398 C113,17.5338134 112.990658,17.7690672 112.967303,18 C112.322699,11.6817558 102.065096,6.66460905 89.5,6.66460905 C76.9395746,6.66460905 66.6773007,11.6817558 66.0326973,18 C66.0093421,17.7690672 66,17.5338134 66,17.2990398 C66,9.95288066 76.5238521,4 89.5,4 C102.480819,4 113,9.95288066 113,17.2990398" id="Fill-74" stroke="none" fill="#9595EF" fill-rule="evenodd"></path>
                        <path d="M66,17.9997593 C66,11.3722792 76.5212586,6 89.5004671,6 C102.479208,6 113,11.3722792 113,17.9997593 C113,24.6272394 102.479208,30 89.5004671,30 C76.5212586,30 66,24.6272394 66,17.9997593" id="Fill-76" stroke="none" fill="#FFFFFF" fill-rule="evenodd"></path>
                        <path d="M66,17.9997593 C66,11.3722792 76.5212586,6 89.5004671,6 C102.479208,6 113,11.3722792 113,17.9997593 C113,24.6272394 102.479208,30 89.5004671,30 C76.5212586,30 66,24.6272394 66,17.9997593 Z" id="Stroke-78" stroke="#000000" stroke-width="1" fill="none" stroke-linejoin="round"></path>
                        <path d="M89,30 C75.6900633,29.8443936 65,24.8009153 65,18.5995423 C65,18.3977117 65.0102836,18.1967963 65.0347684,18 C65.7007549,24.5812357 76.1263824,29.8306636 89,30" id="Fill-80" stroke="none" fill="#9595EF" fill-rule="evenodd"></path>
                        <path d="M113,18.5995423 C113,24.8009153 102.314834,29.8443936 89,30 C101.879004,29.8306636 112.299735,24.5812357 112.965721,18 C112.990206,18.1967963 113,18.3981693 113,18.5995423" id="Fill-82" stroke="none" fill="#9595EF" fill-rule="evenodd"></path>
                        <path d="M81.9324396,12.5164096 C80.4542313,13.3463081 80.9270048,15.1787118 82.0113163,15.7196484 C83.0961148,16.2613556 85.9551526,15.9450387 87.250289,15.3898466 C89.5790999,14.3911943 89.2660275,12.7895749 88.1408169,12.4728726 C86.4522707,11.9970487 83.410161,11.686511 81.9324396,12.5164096" id="Fill-84" stroke="none" fill="#9595EF" fill-rule="evenodd"></path>
                        <path d="M74.8621746,17.2174416 C74.8621746,17.2174416 76.0856637,17.2625285 76.7091546,17.5310896 C76.8797101,17.6046009 78.7276298,18.3416739 79.5977918,18.2662024 C80.4679539,18.1902407 85.914454,17.4894333 87.476705,16.235821 C89.1648757,14.8807633 89.3354312,14.1554521 89.8950224,13.3600601 C90.8868756,11.9501139 88.4568119,10.1971152 88.3478067,9.78104137 C88.2392714,9.36545765 89.0568102,8.93909227 89.3250945,9.00721272 C89.8090399,9.12924143 90.1116233,9.30370818 91.0903206,10.0216683 C92.0694878,10.7406085 92.432212,13.4110279 92.9758283,13.6261709 C93.5194446,13.8413139 94.8246877,12.70679 95.3321256,12.3666778 C95.8395635,12.0260756 97.431415,11.4835624 97.9787901,12.0260756 C98.3208409,12.3652076 97.9787901,12.9719206 97.9787901,12.9719206 C97.9787901,12.9719206 95.5632918,14.1481009 95.2837311,14.6416066 C95.0229644,15.1022772 95.2959472,15.2404784 95.6586713,15.2404784 C96.0209256,15.2404784 102.365779,15.7325139 102.873217,17.017981 C103.381124,18.3039381 102.198982,18.0000916 102.198982,18.0000916 C102.198982,18.0000916 97.015128,16.2858087 95.9678325,17.0870816 C95.5036208,17.4428761 95.8480208,19.5036421 95.7939881,20.3019745 C95.7939881,20.3019745 95.5355706,20.9993514 95.4885856,21.1208901 C95.4885856,21.1208901 95.3307161,20.7116773 94.8397229,20.3019745 C94.2763729,19.8329726 90.4959605,17.5173675 90.1116233,17.9358917 C89.7277559,18.3529457 93.2831101,21.4070939 94.6372176,21.909421 C94.695479,21.9314743 93.4701104,22.268156 93.1257104,22.2568842 C92.4181165,22.2333606 91.101597,22.1304448 90.6589984,21.9917536 C89.0624484,21.492367 87.2680916,21.524712 87.1994935,21.8359097 C87.0904883,22.327455 89.3866448,25.5644014 89.49565,25.8290419 C89.6041854,26.0936825 89.5210219,26.6410964 89.0347273,26.8680012 C88.5489025,27.094906 87.7496878,27.0194344 87.4959688,26.7170581 C87.2422499,26.4146817 85.7373206,24.4254667 85.4915891,24.0044922 C84.8258118,22.862127 85.0508699,22.1921943 84.9634778,21.5560768 C84.9634778,21.5560768 84.6012235,21.0645314 83.839127,21.4801151 C83.0779701,21.8961889 81.0270752,23.4835423 80.6281727,23.5212781 C80.22974,23.5590139 79.0898841,23.4845225 79.0537056,22.9175055 C79.0175272,22.3499985 82.7984094,20.9714171 82.7984094,20.3289286 C82.7984094,19.68595 81.6641917,19.8540458 80.5403107,20.004989 C79.4159599,20.1564222 77.8936462,19.9295174 77.0596626,19.7403484 C76.225679,19.5516695 74,19.020428 74,18.0412579 C74,17.3958289 74.8621746,17.2174416 74.8621746,17.2174416" id="Fill-86" stroke="none" fill="#9595EF" fill-rule="evenodd"></path>
                        <g id="Group-91" stroke="none" stroke-width="1" fill="none" fill-rule="evenodd" transform="translate(126.000000, 40.000000)">
                            <polyline id="Fill-88" fill="#FFFFFF" points="0.0217333333 5.73458571 3.73462222 3.85101429 3.77728889 0.299442857 3.4644 0.0971571429"></polyline>
                            <polyline id="Stroke-90" stroke="#000000" stroke-width="2" points="0.0217333333 5.73458571 3.73462222 3.85101429 3.77728889 0.299442857 3.4644 0.0971571429"></polyline>
                        </g>
                        <polygon id="Fill-92" stroke="none" fill="#FFFFFF" fill-rule="evenodd" points="106.044413 34.9365079 106 31.1431896 106.130773 30.9901382 109.780565 29 130 40.0592537 126.19032 41.9924098 126.094584 46"></polygon>
                        <path d="M110.190036,28 L106.294937,30.1269409 L106,30.4734235 L106.048834,34.6247466 L126.638804,46 L126.653309,45.3781793 L126.744208,41.5594795 L131,39.3969664 L110.190036,28 Z M110.189552,29.0648564 L129.000232,39.3664759 L126.290682,40.7436286 L125.79074,40.9977158 L125.777685,41.5382286 L125.709028,44.4191156 L107.009554,34.0883916 L106.971357,30.821292 L110.189552,29.0648564 Z" id="Fill-94" stroke="none" fill="#000000" fill-rule="evenodd"></path>
                        <g id="Group-99" stroke="none" stroke-width="1" fill="none" fill-rule="evenodd" transform="translate(107.000000, 30.000000)">
                            <path d="M0.263082442,0.340557679 L19.5236946,11.6612175" id="Fill-96" fill="#FFFFFF"></path>
                            <path d="M0.263082442,0.340557679 L19.5236946,11.6612175" id="Stroke-98" stroke="#000000"></path>
                        </g>
                    </g>
                </g>
            </g>
            <g id="Asset-3" transform="translate(19.000000, 38.000000)">
                <path d="M23.3440367,67.3348624 C23.2667917,67.3338422 23.1910555,67.3133303 23.1238532,67.2752294 L22.3211009,66.8165138 C22.099427,66.6898429 22.0224118,66.4074537 22.1490826,66.1857798 C22.2757534,65.9641059 22.5581426,65.8870907 22.7798165,66.0137615 L23.5825688,66.4724771 C23.7686155,66.5728357 23.8619908,66.7873388 23.8086759,66.9918938 C23.755361,67.1964489 23.5691624,67.3380843 23.3577982,67.3348624 L23.3440367,67.3348624 Z M26.9311927,65.853211 C26.7222968,65.8546715 26.5387976,65.714807 26.4848373,65.5129955 C26.430877,65.3111839 26.5200859,65.0984028 26.7018349,64.9954128 L27.4954128,64.5366972 C27.7134739,64.4114302 27.991738,64.4850883 28.1192661,64.7018349 C28.1809055,64.8070223 28.1981355,64.9324206 28.1671507,65.0503348 C28.136166,65.168249 28.0595157,65.268978 27.9541284,65.3302752 L27.1559633,65.7889908 C27.0878431,65.8294495 27.010405,65.8515747 26.9311927,65.853211 Z M18.9311927,64.8944954 C18.8529527,64.8943238 18.7758874,64.8754507 18.706422,64.8394495 L17.9036697,64.3807339 C17.6819958,64.2540631 17.6049806,63.9716739 17.7316514,63.75 C17.8583222,63.5283261 18.1407114,63.4513109 18.3623853,63.5779817 L19.1651376,64.0366972 C19.345431,64.138834 19.4348649,64.3491586 19.3833464,64.549866 C19.3318279,64.7505734 19.1521508,64.8918214 18.9449541,64.8944954 L18.9311927,64.8944954 Z M31.3165138,63.3348624 C31.1076179,63.3363229 30.9241187,63.1964584 30.8701584,62.9946468 C30.8161981,62.7928353 30.905407,62.5800542 31.087156,62.4770642 L31.8807339,62.0183486 C32.0233124,61.936407 32.1987757,61.9367544 32.3410285,62.0192602 C32.4832813,62.1017659 32.570712,62.2538954 32.5703863,62.4183428 C32.5700606,62.5827902 32.482028,62.7345721 32.3394495,62.8165138 L31.5412844,63.2752294 C31.470031,63.3197152 31.3865574,63.3405836 31.3027523,63.3348624 L31.3165138,63.3348624 Z M14.5275229,62.4541284 C14.449283,62.4539569 14.3722177,62.4350837 14.3027523,62.3990826 L13.5,61.940367 C13.3566021,61.8584253 13.2678123,61.7062063 13.2670769,61.5410492 C13.2663415,61.3758922 13.3537722,61.2228884 13.4964347,61.139673 C13.6390972,61.0564577 13.8153177,61.055673 13.9587156,61.1376147 L14.7614679,61.5963303 C14.8679584,61.6552973 14.9466449,61.754173 14.9801993,61.8711834 C15.0137538,61.9881938 14.9994245,62.1137431 14.940367,62.2201835 C14.8546414,62.3733675 14.6890123,62.4641964 14.5137615,62.4541284 L14.5275229,62.4541284 Z M35.6880734,60.8165138 C35.4791776,60.8179743 35.2956784,60.6781097 35.2417181,60.4762982 C35.1877578,60.2744867 35.2769667,60.0617056 35.4587156,59.9587156 L36.2522936,59.5 C36.3944904,59.4096058 36.5747991,59.404446 36.7219325,59.4865606 C36.8690659,59.5686752 36.9593373,59.7248447 36.9570568,59.8933257 C36.9547764,60.0618067 36.8603112,60.2154758 36.7110092,60.293578 L35.9174312,60.7522936 C35.8439554,60.7959282 35.7597515,60.8181707 35.6743119,60.8165138 L35.6880734,60.8165138 Z M10.0917431,60.0137615 C10.0148964,60.0141459 9.9391846,59.995218 9.87155963,59.9587156 L9.06422018,59.5 C8.84254628,59.3733292 8.76553106,59.09094 8.89220186,58.8692661 C9.01887267,58.6475922 9.30126186,58.5705769 9.52293578,58.6972477 L10.3256881,59.1559633 C10.5059815,59.2581 10.5954153,59.4684246 10.5438969,59.669132 C10.4923784,59.8698395 10.3127013,60.0110874 10.1055046,60.0137615 L10.0917431,60.0137615 Z M40.0412844,58.293578 C39.8767501,58.2942312 39.7244683,58.2067129 39.6422018,58.0642202 C39.5177118,57.8449637 39.5935154,57.5663342 39.8119266,57.440367 L40.6055046,56.9816514 C40.7477014,56.8912572 40.9280101,56.8860974 41.0751435,56.968212 C41.2222769,57.0503266 41.3125483,57.2064961 41.3102678,57.3749771 C41.3079874,57.5434581 41.2135222,57.6971271 41.0642202,57.7752294 L40.2706422,58.233945 C40.2020846,58.2727992 40.1246735,58.2933368 40.0458716,58.293578 L40.0412844,58.293578 Z M5.67431193,57.5779817 C5.59689492,57.5782306 5.52083878,57.557632 5.45412844,57.5183486 L4.65137615,57.059633 C4.43062999,56.938546 4.34873907,56.6621642 4.46788991,56.440367 C4.52607195,56.3330882 4.6246048,56.2534166 4.74168622,56.2189809 C4.85876765,56.1845452 4.98474489,56.1981844 5.09174312,56.2568807 L5.89449541,56.7155963 C6.00177416,56.7737784 6.0814458,56.8723112 6.11588152,56.9893926 C6.15031723,57.1064741 6.13667796,57.2324513 6.07798165,57.3394495 C5.99808644,57.4854799 5.84535222,57.5767693 5.67889908,57.5779817 L5.67431193,57.5779817 Z M44.412844,55.7752294 C44.2483097,55.7758826 44.096028,55.6883643 44.0137615,55.5458716 C43.8892714,55.3266151 43.965075,55.0479855 44.1834862,54.9220183 L44.9770642,54.4633028 C45.0822517,54.4016633 45.2076499,54.3844333 45.3255641,54.4154181 C45.4434784,54.4464028 45.5442073,54.5230531 45.6055046,54.6284404 C45.6667638,54.7341852 45.6832953,54.8600029 45.651432,54.9779833 C45.6195686,55.0959638 45.5419448,55.1963527 45.4357798,55.2568807 L44.6422018,55.7155963 C44.5736442,55.7544506 44.4962331,55.7749882 44.4174312,55.7752294 L44.412844,55.7752294 Z M1.26146789,55.1376147 C1.18405089,55.1378636 1.10799474,55.117265 1.0412844,55.0779817 L0.23853211,54.6192661 C0.132041592,54.560299 0.0533551333,54.4614234 0.0198006745,54.3444129 C-0.0137537843,54.2274025 0.000575508572,54.1018532 0.0596330275,53.9954128 C0.182312511,53.7763566 0.458302504,53.6966262 0.678899083,53.8165138 L1.48165138,54.2752294 C1.58893012,54.3334114 1.66860177,54.4319442 1.70303748,54.5490257 C1.73747319,54.6661071 1.72383392,54.7920843 1.66513761,54.8990826 C1.58445083,55.0465507 1.42956603,55.1380735 1.26146789,55.1376147 Z M2.8440367,53.4633028 C2.63178741,53.4641635 2.44666563,53.3192999 2.39647192,53.1130693 C2.34627821,52.9068386 2.44412236,52.693105 2.63302752,52.5963303 L3.44495413,52.1743119 C3.59081026,52.0989256 3.76580501,52.1070791 3.90401955,52.1957011 C4.04223408,52.284323 4.12267032,52.4399497 4.11502872,52.6039579 C4.10738712,52.7679662 4.01282861,52.9154394 3.86697248,52.9908257 L3.05045872,53.412844 C2.9865494,53.4455889 2.91584507,53.4628722 2.8440367,53.4633028 Z M48.8119266,53.2385321 C48.7016041,53.2409237 48.5941167,53.2034659 48.5091743,53.1330275 L47.8440367,52.8119266 C47.6842041,52.749153 47.5728167,52.6023667 47.5553811,52.4315365 C47.5379455,52.2607062 47.617382,52.0944437 47.7612373,52.0006746 C47.9050926,51.9069055 48.0892728,51.9013349 48.2385321,51.9862385 L49.0229358,52.3623853 C49.1764368,52.4352996 49.2770497,52.5871015 49.2844037,52.7568807 C49.2918391,52.9279229 49.2034058,53.0888716 49.0550459,53.1743119 C48.9807241,53.2158921 48.8970873,53.2379848 48.8119266,53.2385321 Z M7.33944954,51.146789 C7.12720025,51.1476498 6.94207847,51.0027862 6.89188476,50.7965555 C6.84169105,50.5903248 6.9395352,50.3765912 7.12844037,50.2798165 L7.94495413,49.8623853 C8.09127634,49.7724042 8.27560921,49.7717144 8.42260081,49.8605978 C8.56959241,49.9494812 8.65460638,50.1130407 8.64289056,50.2844161 C8.63117474,50.4557915 8.52469275,50.6062597 8.36697248,50.6743119 L7.55045872,51.0963303 C7.48516901,51.1297806 7.41280884,51.1470842 7.33944954,51.146789 Z M44.3256881,51.0825688 C44.257845,51.0820859 44.1907825,51.0680495 44.1284404,51.0412844 L43.3027523,50.646789 C43.1914825,50.595093 43.1055597,50.5009764 43.0641845,50.3854708 C43.0228094,50.2699652 43.0294307,50.1426985 43.0825688,50.0321101 C43.1919714,49.8046211 43.4646166,49.7082728 43.6926606,49.8165138 L44.5229358,50.2110092 C44.7149323,50.303988 44.8174916,50.5170514 44.7704035,50.725115 C44.7233154,50.9331785 44.5390098,51.0813199 44.3256881,51.0825688 Z M39.7706422,48.912844 C39.7027991,48.9123611 39.6357366,48.8983248 39.5733945,48.8715596 L38.7431193,48.4724771 C38.5339602,48.3535004 38.4522887,48.0931244 38.5560246,47.8760028 C38.6597605,47.6588811 38.9136392,47.5588235 39.1376147,47.646789 L39.9678899,48.0412844 C40.1598864,48.1342632 40.2624457,48.3473267 40.2153576,48.5553902 C40.1682696,48.7634538 39.983964,48.9115951 39.7706422,48.912844 Z M11.8256881,48.8348624 C11.6134388,48.8357232 11.428317,48.6908596 11.3781233,48.4846289 C11.3279296,48.2783982 11.4257737,48.0646646 11.6146789,47.9678899 L12.4266055,47.5458716 C12.6520796,47.4293344 12.9293344,47.5176452 13.0458716,47.7431193 C13.1624087,47.9685933 13.0740979,48.2458482 12.8486239,48.3623853 L12.0321101,48.7798165 C11.965119,48.8179268 11.8889706,48.8369639 11.8119266,48.8348624 L11.8256881,48.8348624 Z M35.2201835,46.7431193 C35.151725,46.7437042 35.0841112,46.72798 35.0229358,46.6972477 L34.1926606,46.3027523 C34.032828,46.2399787 33.9214405,46.0931924 33.9040049,45.9223621 C33.8865694,45.7515319 33.9660059,45.5852694 34.1098612,45.4915003 C34.2537164,45.3977312 34.4378966,45.3921606 34.587156,45.4770642 L35.4174312,45.8715596 C35.6094277,45.9645385 35.711987,46.1776019 35.6648989,46.3856654 C35.6178109,46.593729 35.4335052,46.7418704 35.2201835,46.7431193 Z M16.3119266,46.5183486 C16.0996773,46.5192094 15.9145555,46.3743458 15.8643618,46.1681151 C15.8141681,45.9618845 15.9120123,45.7481508 16.1009174,45.6513761 L16.9174312,45.2293578 C17.1415428,45.1230248 17.4095849,45.2141161 17.5225007,45.4349843 C17.6354165,45.6558525 17.5522938,45.9264718 17.3348624,46.0458716 L16.5137615,46.4678899 C16.4450707,46.5009831 16.3698247,46.518227 16.293578,46.5183486 L16.3119266,46.5183486 Z M30.6651376,44.5733945 C30.5966791,44.5739794 30.5290653,44.5582553 30.4678899,44.5275229 L29.6376147,44.1330275 C29.4777821,44.0702539 29.3663946,43.9234676 29.3489591,43.7526374 C29.3315235,43.5818071 29.41096,43.4155446 29.5548153,43.3217755 C29.6986706,43.2280064 29.8828508,43.2224358 30.0321101,43.3073394 L30.8623853,43.7018349 C31.0543818,43.7948137 31.1569411,44.0078771 31.109853,44.2159407 C31.062765,44.4240042 30.8784594,44.5721456 30.6651376,44.5733945 Z M20.793578,44.2018349 C20.6218547,44.202192 20.4643136,44.1066053 20.3853211,43.9541284 C20.3291259,43.8458943 20.3183429,43.719738 20.3553551,43.6035372 C20.3923672,43.4873363 20.4741274,43.3906568 20.5825688,43.3348624 L21.3990826,42.9174312 C21.5454048,42.8274501 21.7297376,42.8267602 21.8767292,42.9156436 C22.0237208,43.0045271 22.1087348,43.1680866 22.097019,43.339462 C22.0853032,43.5108374 21.9788212,43.6613055 21.8211009,43.7293578 L21.0045872,44.1513761 C20.9338081,44.1878125 20.8547652,44.205202 20.7752294,44.2018349 L20.793578,44.2018349 Z M26.1100917,42.4036697 C26.0416333,42.4042546 25.9740194,42.3885305 25.912844,42.3577982 L25.0825688,41.9678899 C24.9721101,41.9153563 24.8872066,41.8208836 24.8467232,41.7054626 C24.8062397,41.5900417 24.8135294,41.4632325 24.8669725,41.353211 C24.976375,41.1257221 25.2490203,41.0293737 25.4770642,41.1376147 L26.3073394,41.5321101 C26.499336,41.6250889 26.6018952,41.8381523 26.5548072,42.0462159 C26.5077191,42.2542795 26.3234135,42.4024208 26.1100917,42.4036697 Z" id="Shape" fill="#000000" fill-rule="nonzero"></path>
                <polygon id="Path" fill="#9595EF" points="24.7018349 25.7522936 42.5504587 15.2889908 46.146789 13.1972477 46.7844037 13.4908257 46.2752294 46.9311927 24.7018349 59.3623853"></polygon>
                <path d="M24.7018349,59.8211009 C24.4484932,59.8211009 24.2431193,59.6157269 24.2431193,59.3623853 L24.2431193,25.7522936 C24.2441025,25.5893986 24.3314016,25.4392442 24.4724771,25.3577982 L42.3211009,14.8899083 L45.9174312,12.7981651 C46.0497526,12.729614 46.2071282,12.729614 46.3394495,12.7981651 L46.9770642,13.0917431 C47.1411792,13.1676781 47.2453688,13.3329445 47.2431193,13.5137615 L46.733945,46.9587156 C46.7313484,47.1199666 46.6442648,47.2680088 46.5045872,47.3486239 L24.9449541,59.7798165 C24.8692019,59.8155113 24.7851238,59.8297887 24.7018349,59.8211009 Z M25.1605505,26.0183486 L25.1605505,58.587156 L45.8027523,46.6834862 L46.3302752,13.7614679 L46.1788991,13.6926606 L42.7889908,15.6651376 L25.1605505,26.0183486 Z" id="Shape" fill="#000000" fill-rule="nonzero"></path>
                <path d="M24.6972477,26.5275229 L2.41284404,12.6788991 L24.5137615,0 L47.3027523,13.3027523 L24.6972477,26.5275229 Z M4.20183486,12.7110092 L24.7110092,25.4587156 L45.4862385,13.3027523 L24.5091743,1.05963303 L4.20183486,12.7110092 Z" id="Shape" fill="#000000" fill-rule="nonzero"></path>
                <polyline id="Path" fill="#9595EF" points="33.853211 41.6651376 39.1513761 38.3256881 42.2247706 39.9082569 41.8119266 45.5229358"></polyline>
                <path d="M41.8119266,45.9816514 L41.7752294,45.9816514 C41.523423,45.9621201 41.3347753,45.7427147 41.353211,45.4908257 L41.7431193,40.1743119 L39.1743119,38.853211 L34.0963303,42.0642202 C33.8837625,42.1820714 33.6161689,42.113664 33.4862385,41.9082569 C33.3523158,41.7019601 33.4049291,41.4267522 33.6055046,41.2844037 L38.9082569,37.9495413 C39.050184,37.8675996 39.2250454,37.8675996 39.3669725,37.9495413 L42.4357798,39.5321101 C42.6056556,39.6186779 42.7042719,39.8013007 42.6834862,39.9908257 L42.2706422,45.6055046 C42.2302902,45.8261892 42.0362402,45.9853102 41.8119266,45.9816514 Z" id="Path" fill="#000000"></path>
                <polygon id="Path" fill="#FFFFFF" points="49.3348624 48.4816514 49.3348624 32.1834862 47.0321101 31.0779817 44.5045872 33.7798165 35.0779817 28.559633 33.6513761 29.3165138 33.6513761 31.8302752 41.5366972 35.8027523 41.5366972 45.766055 34.3119266 42.0550459 33.8715596 41.8073394 33.8394495 45.5917431 44.2522936 51.266055 44.266055 51.266055"></polygon>
                <path d="M44.266055,51.7247706 C44.1843969,51.7241163 44.1041175,51.7036529 44.0321101,51.6651376 L33.6192661,45.9954128 C33.4703405,45.9139455 33.3785802,45.7568943 33.3807339,45.587156 L33.412844,41.8027523 C33.4154406,41.6415013 33.5025242,41.4934591 33.6422018,41.412844 C33.7841289,41.3309024 33.9589903,41.3309024 34.1009174,41.412844 L34.559633,41.6605505 L41.1009174,45.0229358 L41.1009174,36.0825688 L33.4449541,32.2431193 C33.2892184,32.1646488 33.1914469,32.0046591 33.1926606,31.8302752 L33.1926606,29.3165138 C33.1888171,29.1415041 33.2849133,28.9795642 33.440367,28.8990826 L34.8623853,28.1559633 C35.0043124,28.0740217 35.1791738,28.0740217 35.3211009,28.1559633 L44.4357798,33.2018349 L46.7293578,30.7614679 C46.8665643,30.613403 47.0844386,30.5724352 47.266055,30.6605505 L49.559633,31.766055 C49.7189375,31.8419278 49.8206014,32.0024498 49.8211009,32.1788991 L49.8211009,48.4770642 C49.8215597,48.6451624 49.7300369,48.8000472 49.5825688,48.8807339 L44.5366972,51.6605505 C44.4553043,51.7094526 44.3607415,51.7318912 44.266055,51.7247706 Z M34.2981651,45.3027523 L44.2568807,50.7247706 L48.8761468,48.1926606 L48.8761468,32.4724771 L47.1376147,31.6513761 L44.8440367,34.1100917 C44.6998407,34.2645884 44.468753,34.3005775 44.2844037,34.1972477 L35.0733945,29.0825688 L34.1100917,29.5917431 L34.1100917,31.5504587 L41.7431193,35.3899083 C41.898855,35.4683787 41.9966265,35.6283684 41.9954128,35.8027523 L41.9954128,45.766055 C41.9963506,45.9270859 41.9127805,46.0768157 41.7752294,46.1605505 C41.6333023,46.2424921 41.4584409,46.2424921 41.3165138,46.1605505 L34.3211009,42.5779817 L34.2981651,45.3027523 Z" id="Shape" fill="#000000" fill-rule="nonzero"></path>
                <polygon id="Path" fill="#FFFFFF" points="2.62844037 15.4495413 2.60091743 12.8256881 24.5917431 0.637614679 46.1055046 13.1559633 24.7018349 25.9954128"></polygon>
                <path d="M24.7293578,26.5137615 L2.17431193,15.7385321 L2.13761468,12.559633 L24.6009174,0.110091743 L47.0091743,13.1513761 L24.7293578,26.5137615 Z M3.08256881,15.1376147 L24.6788991,25.4724771 L45.206422,13.1605505 L24.587156,1.16513761 L3.05963303,13.0917431 L3.08256881,15.1376147 Z" id="Shape" fill="#000000" fill-rule="nonzero"></path>
                <path d="M46.3944954,13.7614679 C46.3121636,13.7614437 46.2313558,13.7392611 46.1605505,13.6972477 L24.9587156,1.37614679 L24.8899083,8.51834862 C24.8899083,8.77169025 24.6845343,8.97706422 24.4311927,8.97706422 C24.177851,8.97706422 23.9724771,8.77169025 23.9724771,8.51834862 L24.0458716,0.587155963 C24.0477987,0.423312385 24.1369741,0.272938124 24.2798165,0.19266055 C24.4217436,0.110718901 24.596605,0.110718901 24.7385321,0.19266055 L46.6238532,12.8899083 C46.8056021,12.9928982 46.8948111,13.2056794 46.8408508,13.4074909 C46.7868905,13.6093024 46.6033912,13.7491669 46.3944954,13.7477064 L46.3944954,13.7614679 Z" id="Path" fill="#000000"></path>
                <path d="M24.3623853,22.793578 L7.55504587,13.1926606 L24.4724771,3.75229358 L40.6605505,12.8165138 L24.3623853,22.793578 Z M9.42201835,13.2018349 L24.3440367,21.7293578 L38.8440367,12.8440367 L24.4724771,4.80733945 L9.42201835,13.2018349 Z" id="Shape" fill="#000000" fill-rule="nonzero"></path>
                <polygon id="Path" fill="#9595EF" points="12.7981651 15.6009174 24.3348624 22.1100917 36.0137615 15.1513761 24.4311927 8.74770642"></polygon>
                <path d="M24.3394495,22.6422018 L11.8807339,15.5963303 L24.4266055,8.22018349 L36.9357798,15.1376147 L24.3394495,22.6422018 Z M13.7155963,15.5963303 L24.3119266,21.5825688 L35.0779817,15.1605505 L24.440367,9.27522936 L13.7155963,15.5963303 Z" id="Shape" fill="#000000" fill-rule="nonzero"></path>
                <polygon id="Path" fill="#FFFFFF" points="34.1651376 28.9357798 39.0275229 25.9954128 48.8256881 31.8623853 44.353211 34.3486239"></polygon>
                <path d="M44.3577982,34.8623853 L33.233945,28.9587156 L39.0275229,25.4587156 L49.7431193,31.8807339 L44.3577982,34.8623853 Z M35.0963303,28.8990826 L44.3486239,33.8256881 L47.9082569,31.8486239 L39.0275229,26.5275229 L35.0963303,28.8990826 Z" id="Shape" fill="#000000" fill-rule="nonzero"></path>
                <path d="M44.4311927,34.2385321 L44.4311927,51.0550459" id="Path" fill="#FFFFFF"></path>
                <rect id="Rectangle" fill="#000000" x="43.9724771" y="34.2385321" width="1" height="16.8211009"></rect>
                <polygon id="Path" fill="#FFFFFF" points="2.57798165 13.3348624 24.7018349 25.9954128 24.7018349 59.3623853 2.62844037 47.1697248"></polygon>
                <path d="M24.7018349,59.8211009 C24.6249882,59.8214854 24.5492763,59.8025574 24.4816514,59.766055 L2.40825688,47.5733945 C2.26078879,47.4927077 2.16926595,47.3378229 2.16972477,47.1697248 L2.11926606,13.3348624 C2.12024929,13.1719674 2.20754838,13.021813 2.34862385,12.940367 C2.49055095,12.8584253 2.66541235,12.8584253 2.80733945,12.940367 L24.9311927,25.5963303 C25.0736854,25.6785968 25.1612037,25.8308786 25.1605505,25.9954128 L25.1605505,59.3623853 C25.1605222,59.5243428 25.0750915,59.6742824 24.9357798,59.7568807 C24.8658754,59.8009755 24.7844546,59.8233263 24.7018349,59.8211009 Z M3.08715596,46.8990826 L24.2431193,58.587156 L24.2431193,26.2614679 L3.0412844,14.1284404 L3.08715596,46.8990826 Z" id="Shape" fill="#000000" fill-rule="nonzero"></path>
                <path d="M12.9770642,41.0504587 C11.7378358,40.0030283 10.6040003,38.8369291 9.59174312,37.5688073 C9.30592282,37.4641499 9.02572914,37.3447231 8.75229358,37.2110092 C7.52303436,36.5449506 6.52849341,35.5167779 5.90366972,34.266055 C5.16416353,32.9178957 4.77756343,31.4046324 4.77981651,29.8669725 C4.77981651,28.2706422 5.1559633,27.2018349 5.89449541,26.6559633 C6.63302752,26.1100917 7.59633028,26.146789 8.79816514,26.7889908 C10.0344847,27.4617951 11.0446098,28.4846864 11.7018349,29.7293578 C12.4439742,31.0623905 12.8368927,32.5614771 12.8440367,34.087156 C12.8440367,36.3807339 12.1422018,37.5733945 10.6972477,37.7247706 C11.6350274,38.6815934 12.6609791,39.5478161 13.7614679,40.3119266 L12.9770642,41.0504587 Z M8.84862385,36.1972477 C9.72477064,36.6559633 10.3944954,36.6146789 10.8623853,36.1238532 C11.3302752,35.6330275 11.559633,34.7201835 11.5504587,33.3715596 C11.5618928,32.1945772 11.3095374,31.0299807 10.8119266,29.9633028 C10.3893593,29.0594609 9.68630058,28.3161814 8.80733945,27.8440367 C7.96330275,27.3944954 7.30122324,27.4082569 6.82110092,27.8853211 C6.34097859,28.3623853 6.10397554,29.2584098 6.11009174,30.5733945 C6.09227971,31.7711795 6.343071,32.9577358 6.8440367,34.0458716 C7.25331557,34.9607236 7.95095083,35.7163609 8.83027523,36.1972477 L8.84862385,36.1972477 Z" id="Shape" fill="#9595EF" fill-rule="nonzero"></path>
                <path d="M12.9770642,41.2844037 C12.923114,41.2842661 12.8710131,41.2647283 12.8302752,41.2293578 C11.5954254,40.1854545 10.4633498,39.0257299 9.44954128,37.766055 C9.11009174,37.6376147 8.8440367,37.5183486 8.64678899,37.4220183 C7.37892567,36.731032 6.3516692,35.6701737 5.70183486,34.3807339 C4.94574739,32.9981034 4.54979457,31.4474197 4.55045872,29.8715596 C4.55045872,28.2201835 4.95412844,27.0733945 5.75688073,26.4724771 C6.55963303,25.8715596 7.62385321,25.9036697 8.90825688,26.587156 C10.182978,27.2800308 11.2237472,28.3351665 11.8990826,29.6192661 C12.6525275,30.9896849 13.0485096,32.5278623 13.0504587,34.0917431 C13.0504587,36.2522936 12.4266055,37.5229358 11.146789,37.8761468 C11.9908933,38.7031354 12.9039877,39.4566302 13.8761468,40.1284404 C13.9314478,40.1682816 13.9666241,40.2302589 13.9724771,40.2981651 C13.9788137,40.3666321 13.9534633,40.4342333 13.9036697,40.4816514 C13.5963303,40.7752294 13.4449541,40.940367 13.1376147,41.2201835 C13.0940138,41.2609174 13.0367296,41.283831 12.9770642,41.2844037 Z M7.06422018,26.4908257 C6.6919612,26.4857481 6.32868301,26.6052263 6.03211009,26.8302752 C5.35321101,27.3440367 5.00917431,28.3669725 5.00917431,29.8669725 C5.00889434,31.3659861 5.38591927,32.8409581 6.10550459,34.1559633 C6.70941448,35.3662234 7.67006006,36.3620926 8.85779817,37.0091743 C9.05045872,37.1055046 9.31651376,37.2201835 9.66972477,37.3577982 C9.70917967,37.370758 9.74416507,37.3946116 9.7706422,37.4266055 C10.7350051,38.6286088 11.8100559,39.7374469 12.9816514,40.7385321 L13.3944954,40.3394495 C12.3692241,39.6062958 11.4085366,38.7867956 10.5229358,37.8899083 C10.461749,37.8266615 10.442144,37.7339829 10.4724771,37.6513761 C10.5000994,37.5665459 10.5761806,37.5067679 10.6651376,37.5 C11.9862385,37.3577982 12.6238532,36.2431193 12.6055046,34.087156 C12.6026562,32.5932091 12.2223864,31.1242 11.5,29.8165138 C10.8670558,28.6222376 9.89937153,27.6386113 8.71559633,26.9862385 C8.21420247,26.687929 7.64702215,26.5177749 7.06422018,26.4908257 Z M9.94036697,36.7431193 C9.51046332,36.7280909 9.09044457,36.6101081 8.71559633,36.3990826 C7.78734555,35.8995932 7.05150547,35.1056605 6.62385321,34.1422018 C6.10653535,33.0246066 5.84782834,31.8047638 5.86697248,30.5733945 C5.86697248,29.1972477 6.1146789,28.2568807 6.64678899,27.7247706 C7.17889908,27.1926606 7.9587156,27.1422018 8.89908257,27.6422018 C9.82596916,28.1406194 10.5663307,28.9260464 11.0091743,29.8807339 C11.5200215,30.9779142 11.780139,32.1750818 11.7706422,33.3853211 C11.7706422,34.793578 11.5366972,35.7431193 11.0183486,36.2844037 C10.741624,36.5850966 10.3489134,36.7522075 9.94036697,36.7431193 Z M7.71100917,27.7477064 C7.43792045,27.7439167 7.17548729,27.8535407 6.98623853,28.0504587 C6.52752294,28.4816514 6.33486239,29.3348624 6.33944954,30.5733945 C6.32208747,31.7362048 6.56502027,32.8881765 7.05045872,33.9449541 C7.435885,34.8162941 8.098771,35.5356302 8.93577982,35.9908257 C9.71559633,36.3899083 10.2844037,36.3807339 10.6788991,35.9908257 C11.0733945,35.6009174 11.3119266,34.6788991 11.3027523,33.412844 C11.3137364,32.2708387 11.0692401,31.1408267 10.587156,30.1055046 C10.1998455,29.2363292 9.54382782,28.5143881 8.71559633,28.0458716 C8.40960873,27.8670861 8.06498716,27.7648012 7.71100917,27.7477064 Z" id="Shape" fill="#9595EF" fill-rule="nonzero"></path>
                <path d="M20.6422018,42.912844 L19.587156,39.6284404 C17.9449541,38.8073394 17.1697248,38.4266055 15.6605505,37.6788991 C15.2752294,38.5963303 15.087156,39.0275229 14.706422,39.9311927 L13.559633,39.3623853 C14.8990826,36.0825688 15.5779817,34.4678899 17.0137615,31.2431193 L18.3486239,31.8853211 C19.8486239,36.5504587 20.6192661,38.8807339 22.2385321,43.7155963 L20.6422018,42.912844 Z M19.1651376,38.3899083 C18.5045872,36.3623853 18.1788991,35.353211 17.5366972,33.3440367 C16.912844,34.7201835 16.6192661,35.4266055 16.0045872,36.8211009 L19.1651376,38.3899083 Z" id="Shape" fill="#9595EF" fill-rule="nonzero"></path>
                <path d="M22.2155963,43.9449541 C22.1809955,43.953888 22.1446926,43.953888 22.1100917,43.9449541 L20.5550459,43.1192661 C20.5036122,43.0916838 20.4643456,43.0458727 20.4449541,42.9908257 C20.0183486,41.6972477 19.8027523,41.0412844 19.3990826,39.7798165 C18.0229358,39.0917431 17.266055,38.7155963 16.1284404,38.1513761 L15.7752294,37.9770642 C15.4541284,38.733945 15.2614679,39.1788991 14.9174312,40.0045872 C14.8961812,40.0635818 14.8487189,40.109349 14.7889908,40.1284404 C14.7303805,40.1534262 14.6641149,40.1534262 14.6055046,40.1284404 L13.4587156,39.5642202 C13.3510517,39.5124525 13.3026925,39.3855095 13.3486239,39.2752294 C14.7018349,35.9587156 15.3899083,34.3165138 16.8027523,31.146789 C16.8285894,31.0892625 16.8765568,31.0446033 16.9357798,31.0229358 C16.9927257,30.9976182 17.0577331,30.9976182 17.1146789,31.0229358 L18.4266055,31.6651376 C18.4833154,31.6930185 18.526334,31.7426554 18.5458716,31.8027523 C20.0137615,36.3899083 20.766055,38.646789 22.4311927,43.6330275 C22.4624009,43.7218581 22.4349377,43.8207258 22.3623853,43.8807339 C22.3219211,43.917811 22.2702893,43.9403999 22.2155963,43.9449541 Z M20.8394495,42.7522936 L21.8073394,43.2522936 C20.2752294,38.6651376 19.5137615,36.3715596 18.1376147,32.0504587 L17.1238532,31.5550459 C15.8073394,34.5183486 15.1192661,36.1422018 13.853211,39.2522936 L14.5917431,39.6146789 C14.9082569,38.853211 15.0963303,38.4082569 15.4495413,37.587156 C15.4729195,37.5279108 15.5218069,37.482395 15.5825688,37.4633028 C15.6395146,37.4379852 15.704522,37.4379852 15.7614679,37.4633028 L16.3348624,37.7431193 L19.6880734,39.412844 C19.7435747,39.4422679 19.7861028,39.4913388 19.8073394,39.5504587 C20.2201835,40.8256881 20.4357798,41.4908257 20.8486239,42.7522936 L20.8394495,42.7522936 Z M19.1743119,38.6238532 C19.1409703,38.6301804 19.1067361,38.6301804 19.0733945,38.6238532 L15.912844,37.0550459 C15.8020673,37.0013158 15.7534737,36.8697082 15.8027523,36.7568807 C16.412844,35.3348624 16.7201835,34.6513761 17.3394495,33.2752294 C17.3728631,33.1849837 17.4642028,33.1297992 17.559633,33.1422018 C17.6551985,33.1474087 17.7374846,33.211409 17.766055,33.3027523 C18.4082569,35.3119266 18.733945,36.3165138 19.3944954,38.3486239 C19.4218243,38.4375458 19.394964,38.534243 19.3256881,38.5963303 C19.2819803,38.6190474 19.23212,38.6270894 19.1834862,38.6192661 L19.1743119,38.6238532 Z M16.3165138,36.6972477 L18.8073394,37.940367 C18.3165138,36.4266055 18.0045872,35.4724771 17.5275229,33.9816514 C17.0779817,34.9587156 16.793578,35.6146789 16.3165138,36.6972477 Z" id="Shape" fill="#9595EF" fill-rule="nonzero"></path>
                <polygon id="Path" fill="#9595EF" points="9.52752294 13.1972477 23.9816514 5.05045872 23.9816514 8.50458716 12.7981651 15.1330275"></polygon>
            </g>
        </g>
    </g>
</svg>