<?xml version="1.0" encoding="UTF-8"?>
<svg width="801px" height="466px" viewBox="0 0 801 466" version="1.1" xmlns="http://www.w3.org/2000/svg" xmlns:xlink="http://www.w3.org/1999/xlink">
    <!-- Generator: Sketch 52.2 (67145) - http://www.bohemiancoding.com/sketch -->
    <title>QA_big</title>
    <desc>Created with Sketch.</desc>
    <defs>
        <polygon id="path-1" points="147.980413 51.4904915 625.223387 51.4904915 625.223387 339.010624 147.980413 339.010624"></polygon>
    </defs>
    <g id="10.-Career" stroke="none" stroke-width="1" fill="none" fill-rule="evenodd">
        <g id="QA_big" transform="translate(1.000000, 1.000000)">
            <g id="Group" transform="translate(53.432282, 0.000000)">
                <g id="Group-3" transform="translate(0.000000, 14.617917)">
                    <mask id="mask-2" fill="white">
                        <use xlink:href="#path-1"></use>
                    </mask>
                    <g id="Clip-2"></g>
                    <path d="M459.157095,77.1223332 C475.982109,84.831985 492.725091,92.6994839 510.667463,97.0160437 C534.040025,102.637639 558.713893,102.033594 581.667601,109.174002 C592.413635,112.518621 602.873804,117.711419 610.481539,126.003986 C619.719947,136.075131 623.971876,149.922177 624.853086,163.559176 C627.983928,211.96853 611.400036,260.48726 569.774379,283.422324 C541.200319,299.166022 508.006434,302.11043 476.711685,310.028888 C442.259995,318.745281 408.008409,328.515646 372.915387,334.40322 C315.593262,344.020709 253.079582,342.119086 204.201658,310.665248 C186.018165,298.963431 162.528771,271.80378 154.104457,251.888941 C136.322418,209.854373 160.368627,164.621847 186.535207,131.846816 C242.773531,61.4097074 342.821271,34.0536803 427.876019,63.9936774 C438.530079,67.743479 448.859745,72.4030767 459.157095,77.1223332" id="Fill-1" fill="#9595EF" opacity="0.52734375"></path>
                    <path d="M471.674766,56.1406783 C491.411152,65.1843961 511.051314,74.4132746 532.098406,79.4767651 C559.515319,86.0711123 588.458715,85.3625443 615.384296,93.738517 C627.989807,97.6618838 640.259987,103.753235 649.184152,113.480736 C660.021159,125.294575 665.008836,141.537693 666.042528,157.534415 C669.715126,214.320448 650.261584,271.234782 601.433089,298.138494 C567.914619,316.606456 528.976916,320.06036 492.266974,329.349015 C451.853817,339.573679 411.675392,351.034693 370.509928,357.941043 C303.268873,369.222727 229.937925,366.992051 172.602242,330.09549 C151.272306,316.368809 123.718345,284.509496 113.836301,261.148624 C92.9772858,211.840461 121.184413,158.78097 151.878817,120.334599 C217.848532,37.7091646 335.208374,5.61949378 434.980861,40.7402607 C447.478483,45.138922 459.595578,50.6048092 471.674766,56.1406783" id="Fill-1-Copy" stroke="#979797" opacity="0.387890625"></path>
                    <path d="M470.510327,43.2373148 C493.211217,53.6394435 515.801427,64.2545451 540.009896,70.0785969 C571.544965,77.6634475 604.835802,76.8484492 635.805738,86.4825343 C650.304659,90.9952102 664.41788,98.0015126 674.682499,109.190132 C687.147278,122.778468 692.884128,141.461382 694.073087,159.860891 C698.297327,225.176467 675.921766,290.639614 619.758991,321.584396 C581.205881,342.826337 536.419543,346.799035 494.195587,357.482892 C447.712175,369.243351 401.498751,382.425865 354.150032,390.369583 C276.809039,403.345832 192.463421,400.780097 126.515635,358.341491 C101.981837,342.552994 70.2891353,305.908255 58.9227595,279.038465 C34.9306176,222.323973 67.374594,161.294685 102.679449,117.07348 C178.558141,22.0372967 313.546011,-14.8724009 428.304817,25.5236784 C442.679644,30.5830404 456.616786,36.8699308 470.510327,43.2373148" id="Fill-1-Copy-2" stroke="#979797" opacity="0.210825893"></path>
                    <path d="M486.221282,39.2650327 C512.51078,51.3115537 538.672102,63.6047149 566.707501,70.3494461 C603.227706,79.1333272 641.781234,78.1894921 677.646969,89.3465554 C694.437912,94.5726054 710.782184,102.68648 722.669457,115.643821 C737.104697,131.380233 743.748442,153.016585 745.125353,174.324731 C750.017371,249.965542 724.10463,325.777252 659.063515,361.613856 C614.415842,386.213773 562.549577,390.814483 513.650762,403.187269 C459.819145,416.806848 406.300198,432.073284 351.466485,441.272763 C261.899251,456.300327 164.220085,453.328995 87.847122,404.181597 C59.4349661,385.897219 22.7322091,343.459596 9.56901069,312.342167 C-18.2158639,246.662119 19.3569304,175.985181 60.2428579,124.773387 C148.116626,14.7136673 304.443687,-28.0307997 437.343829,18.7511842 C453.99106,24.6103417 470.131418,31.8910781 486.221282,39.2650327" id="Fill-1-Copy-3" stroke="#979797" opacity="0.212667411"></path>
                </g>
                <path d="M330.299011,104.487462 L199.580455,180.385833 C190.716157,185.532644 190.745987,198.344362 199.632656,203.451401 L403.512738,318.682295 C411.552999,323.303363 421.42901,323.355565 429.5165,318.819013 L562.289555,244.349966 C571.298028,239.297615 571.377573,226.357879 562.431245,221.196153 L356.681855,104.451418 C348.514819,99.7408617 338.453618,99.7532906 330.299011,104.487462 Z" id="Stroke-4" stroke="#000000" stroke-width="2" stroke-linecap="round" stroke-linejoin="round" stroke-dasharray="4.022,8.045"></path>
                <path d="M570.049829,188.488868 L543.990137,182.274414 L362.978003,77.844241 C354.778653,73.1137985 344.677679,73.1287132 336.492,77.8802848 L228.850197,140.380293 L198.604449,146.594747 L198.604449,165.669392 C198.613149,170.171143 200.851595,174.669165 205.312331,177.232006 L403.820639,291.316955 C411.890729,295.955423 421.807755,296.007625 429.926318,291.453673 L563.218901,216.692547 C566.918987,214.616919 569.092803,211.212641 569.785094,207.563514 L570.049829,207.563514 L570.049829,188.488868 Z" id="Fill-6" fill="#FFFFFF"></path>
                <path d="M570.049829,188.488868 L543.990137,182.274414 L362.978003,77.844241 C354.778653,73.1137985 344.677679,73.1287132 336.492,77.8802848 L228.850197,140.380293 L198.604449,146.594747 L198.604449,165.669392 C198.613149,170.171143 200.851595,174.669165 205.312331,177.232006 L403.820639,291.316955 C411.890729,295.955423 421.807755,296.007625 429.926318,291.453673 L563.218901,216.692547 C566.918987,214.616919 569.092803,211.212641 569.785094,207.563514 L570.049829,207.563514 L570.049829,188.488868 Z" id="Stroke-8" stroke="#000000" stroke-width="2" stroke-linejoin="round"></path>
                <path d="M336.492,61.2394682 L205.261372,137.43489 C196.362274,142.601587 196.39086,155.464265 205.312331,160.591189 L403.820639,274.676138 C411.890729,279.314607 421.807755,279.366808 429.926318,274.812856 L563.218901,200.052973 C572.262175,194.979493 572.34172,181.988798 563.359348,176.807186 L362.978003,61.2034243 C354.778653,56.4729818 344.677679,56.4866536 336.492,61.2394682" id="Fill-10" fill="#FFFFFF"></path>
                <path d="M336.492,61.2394682 L205.261372,137.43489 C196.362274,142.601587 196.39086,155.464265 205.312331,160.591189 L403.820639,274.676138 C411.890729,279.314607 421.807755,279.366808 429.926318,274.812856 L563.218901,200.052973 C572.262175,194.979493 572.34172,181.988798 563.359348,176.807186 L362.978003,61.2034243 C354.778653,56.4729818 344.677679,56.4866536 336.492,61.2394682 Z" id="Stroke-12" stroke="#000000" stroke-width="2" stroke-linejoin="round"></path>
                <path d="M333.364141,62.9181165 L467.477032,139.954976 L475.08601,144.326223 L548.553287,186.526095 L566.469558,196.817231 C571.713314,190.776781 570.571098,180.859756 563.013079,176.497209 L362.621791,60.8946902 C354.43114,56.1605191 344.326438,56.1717051 336.135787,60.931977 L333.016131,62.741626 L333.364141,62.9181165 Z" id="Fill-14" fill="#FFFFFF"></path>
                <path d="M335.523415,62.7250956 L566.161694,195.208557 C568.063317,192.600972 568.833909,189.31104 568.283309,186.029809 C567.678021,182.420454 565.586235,179.417629 562.392006,177.573179 L362.001961,61.9731466 C354.214007,57.4689103 344.543074,57.4825821 336.760091,62.0079476 L335.523415,62.7250956 Z M566.467445,198.060992 C566.257397,198.060992 566.043619,198.007547 565.848485,197.895687 L475.419478,145.950308 L462.422568,138.485506 L332.772898,64.0127305 L332.454718,63.8511547 C332.048292,63.6448348 331.786042,63.2334379 331.773613,62.777297 C331.761185,62.3223989 331.998577,61.8960874 332.39133,61.6661526 L335.512229,59.8565035 C344.063318,54.887426 354.690034,54.8737542 363.244852,59.8192168 L563.633654,175.420492 C567.426957,177.610466 570.015898,181.32671 570.734289,185.618412 C571.465109,189.97723 570.252048,194.355934 567.405828,197.633437 C567.163464,197.913088 566.819183,198.060992 566.467445,198.060992 Z" id="Fill-16" fill="#000000"></path>
                <path d="M390.586959,213.082073 C379.26298,206.582997 376.894031,197.192957 384.971578,192.140606 C393.050368,187.089497 409.144562,187.898619 420.563,194.535656 C431.981438,201.172693 434.741898,211.287339 426.613392,216.201729 C418.486129,221.116119 401.909694,219.581149 390.586959,213.082073 M479.876236,240.941471 C480.879249,240.059018 479.135473,237.934918 476.848554,236.614968 C469.454596,232.345638 465.770668,227.41509 467.222364,223.568343 C468.716319,219.632108 475.43663,217.49185 484.088393,218.478705 C486.810324,218.791914 488.869794,217.81003 488.820078,216.215401 C488.698275,212.060417 488.060672,207.732671 486.863768,203.447183 C486.396441,201.766795 483.817442,200.47046 480.997323,200.502775 C472.493464,200.602206 463.748484,197.189228 460.372793,192.711092 C456.877784,188.042795 458.80675,182.684692 465.870099,178.763372 C468.093631,177.53291 468.604459,175.554228 466.955143,174.31258 C462.750443,171.150665 457.96407,168.411334 452.640769,166.111986 C450.581299,165.222076 447.398255,165.602401 445.412116,166.91365 C439.084559,171.104678 430.432796,172.449486 423.115897,170.73554 C416.10475,169.088709 410.955454,164.420412 411.345721,159.73347 C411.471253,158.187314 409.606917,156.897193 407.070177,156.762961 C400.414496,156.421166 393.774974,156.406251 387.408887,156.678445 C384.930563,156.781604 383.26136,158.010824 383.582026,159.489864 C384.626054,164.219063 380.958284,168.227386 374.495251,169.404404 C368.32927,170.525491 360.343696,168.722057 353.609714,164.760964 C351.473184,163.447228 348.869328,163.100461 347.26227,163.74055 C343.0874,165.415967 339.514089,167.430693 336.589567,169.787214 C335.497066,170.664695 336.96492,172.643377 339.002018,173.826609 C345.292288,177.362634 348.47036,182.055789 346.850873,185.763333 C345.227658,189.462176 338.946088,191.455773 330.974186,190.570834 C328.478461,190.296156 326.560681,191.164936 326.595482,192.588046 C326.667569,196.260789 327.286529,200.095107 328.406374,203.910782 C328.842628,205.407222 331.181749,206.582997 333.747076,206.597912 C341.484071,206.63147 349.536761,209.772255 352.652688,213.827808 C355.921491,218.07228 354.1367,222.842495 347.600337,226.136155 C345.543352,227.167755 345.057382,228.914016 346.565009,230.062448 C348.531262,231.567588 350.657848,232.990698 352.95471,234.330535 C355.133498,235.602012 357.46019,236.79643 359.947214,237.917518 C361.917196,238.806184 364.995837,238.598622 366.916103,237.487477 C373.013725,233.936538 381.419396,233.041657 388.856855,234.994238 C396.043249,236.883432 401.69716,241.593989 401.698403,246.031109 C401.712075,247.49772 403.790188,248.851228 406.514605,249.171894 C413.637612,249.981016 420.83395,250.514216 427.744423,250.761551 C430.420367,250.860983 432.041096,249.784639 431.44948,248.30187 C429.565258,243.567699 432.970779,239.912357 439.682389,239.16538 C445.99876,238.461904 454.572221,240.582275 461.702686,244.625399 C462.095439,244.854091 462.293059,244.96968 462.689541,245.200858 C464.908101,246.577981 468.099845,247.266542 469.69696,246.697298 C473.792285,245.226959 477.165491,243.31415 479.876236,240.941471" id="Fill-18" fill="#9595EF"></path>
                <path d="M279.181931,172.178412 C273.168825,168.728147 271.91102,163.741669 276.201479,161.05951 C280.490695,158.377352 289.036812,158.806149 295.100877,162.329745 C301.163698,165.854583 302.629067,171.223872 298.31375,173.835185 C293.99719,176.445256 285.195037,175.628677 279.181931,172.178412 M326.594487,186.971298 C327.12893,186.502729 326.201734,185.375427 324.98743,184.674436 C321.061137,182.407403 319.10607,179.789875 319.876662,177.746563 C320.669627,175.657263 324.237966,174.520018 328.832934,175.044518 C330.277173,175.209822 331.370917,174.689051 331.344816,173.8414 C331.280186,171.635268 330.94212,169.338406 330.305759,167.062673 C330.058424,166.170277 328.688758,165.480473 327.191075,165.499116 C322.675653,165.551318 318.032213,163.739183 316.238721,161.361533 C314.383085,158.881966 315.407227,156.036989 319.158272,153.955146 C320.339018,153.301386 320.609968,152.251143 319.734973,151.591168 C317.501498,149.912023 314.959786,148.45784 312.133453,147.237322 C311.039709,146.765023 309.349377,146.966371 308.295406,147.66239 C304.934629,149.887165 300.339662,150.60307 296.454385,149.692031 C292.731927,148.817036 289.997567,146.338711 290.20513,143.850444 C290.271003,143.028893 289.281662,142.34406 287.935611,142.271973 C284.40083,142.091754 280.874748,142.083053 277.495328,142.227229 C276.179107,142.281916 275.291683,142.935676 275.463202,143.721183 C276.016288,146.231823 274.069921,148.360895 270.637057,148.986069 C267.362039,149.580171 263.122539,148.623145 259.546742,146.518931 C258.411983,145.822912 257.029888,145.637721 256.176022,145.978273 C253.959948,146.868183 252.062053,147.937069 250.509683,149.18866 C249.929253,149.654744 250.709788,150.704987 251.78986,151.33389 C255.129508,153.210655 256.818596,155.703894 255.957273,157.67139 C255.09595,159.6364 251.761274,160.695343 247.526745,160.225531 C246.201823,160.07887 245.183895,160.541225 245.201296,161.29566 C245.239826,163.245755 245.569192,165.281611 246.164536,167.308765 C246.395714,168.104216 247.637362,168.728147 248.99957,168.734361 C253.108567,168.753005 257.384112,170.420964 259.038399,172.573651 C260.773475,174.828255 259.827635,177.361266 256.356241,179.110014 C255.26374,179.658129 255.006462,180.585325 255.80564,181.195585 C256.849669,181.993521 257.979457,182.749198 259.198732,183.461375 C260.355864,184.136264 261.591297,184.771382 262.911247,185.365483 C263.957761,185.837782 265.592163,185.727165 266.612576,185.138034 C269.850307,183.252569 274.314771,182.776542 278.264678,183.813113 C282.07911,184.817369 285.081934,187.319308 285.081934,189.674586 C285.089391,190.453878 286.193078,191.172269 287.641046,191.342545 C291.423163,191.772586 295.243809,192.054722 298.912823,192.187711 C300.33469,192.239913 301.19477,191.668183 300.880319,190.88019 C299.879792,188.365822 301.686955,186.425669 305.252809,186.03043 C308.606128,185.65632 313.16008,186.781136 316.945926,188.928851 C317.154732,189.049412 317.259134,189.111556 317.469183,189.234603 C318.647443,189.965422 320.342747,190.329589 321.190398,190.027567 C323.365457,189.247031 325.156463,188.232833 326.594487,186.971298" id="Fill-20" fill="#9595EF"></path>
                <path d="M330.960887,3.57492688 L199.730259,79.7703489 C190.831161,84.9370461 190.859748,97.7997232 199.781218,102.926648 L398.289526,217.011597 C406.359616,221.648822 416.276642,221.701024 424.395205,217.147072 L557.687789,142.387189 C566.732305,137.314951 566.810607,124.324256 557.829478,119.142644 L357.446891,3.53764016 C349.24754,-1.19280232 339.146566,-1.17788764 330.960887,3.57492688" id="Fill-22" fill="#FFFFFF"></path>
                <path d="M330.960887,3.57492688 L199.730259,79.7703489 C190.831161,84.9370461 190.859748,97.7997232 199.781218,102.926648 L398.289526,217.011597 C406.359616,221.648822 416.276642,221.701024 424.395205,217.147072 L557.687789,142.387189 C566.732305,137.314951 566.810607,124.324256 557.829478,119.142644 L357.446891,3.53764016 C349.24754,-1.19280232 339.146566,-1.17788764 330.960887,3.57492688 Z" id="Stroke-24" stroke="#000000" stroke-width="2" stroke-linejoin="round"></path>
                <path d="M482.197956,149.614599 C481.98915,149.614599 481.776616,149.562397 481.582725,149.450537 L408.028446,107.419698 C407.433101,107.077903 407.226781,106.31974 407.56609,105.724395 C407.907885,105.127808 408.668534,104.919002 409.261393,105.260797 L482.815672,147.292879 C483.41226,147.633431 483.619823,148.392837 483.278028,148.988182 C483.049336,149.389636 482.630482,149.614599 482.197956,149.614599" id="Fill-26" fill="#9595EF"></path>
                <path d="M374.988927,88.3512672 C374.780122,88.3512672 374.567587,88.2990658 374.373696,88.1872056 L306.811394,49.5805308 C306.214807,49.2387358 306.007244,48.4805724 306.347796,47.8839848 C306.689591,47.2886401 307.448997,47.0798344 308.044342,47.4216294 L375.606644,86.0295471 C376.203232,86.3700992 376.409552,87.1295055 376.069,87.7248502 C375.840308,88.1263039 375.420211,88.3512672 374.988927,88.3512672" id="Fill-28" fill="#020202"></path>
                <path d="M467.896135,158.147293 C467.68733,158.147293 467.474795,158.095092 467.280904,157.983231 L435.318724,139.718951 C434.723379,139.377156 434.517059,138.618992 434.856368,138.023648 C435.196921,137.42706 435.95757,137.218254 436.551672,137.561292 L468.513852,155.825573 C469.11044,156.166125 469.316759,156.925531 468.976207,157.520876 C468.747515,157.92233 468.327418,158.147293 467.896135,158.147293" id="Fill-30" fill="#020202"></path>
                <path d="M418.360224,129.839957 C418.151419,129.839957 417.938884,129.787756 417.744993,129.675896 L385.658524,111.342013 C385.063179,111.002704 384.856859,110.242055 385.196168,109.64671 C385.537963,109.050122 386.298613,108.84256 386.892714,109.184355 L418.977941,127.518237 C419.574529,127.857546 419.780848,128.618196 419.440296,129.21354 C419.211604,129.614994 418.791507,129.839957 418.360224,129.839957" id="Fill-32" fill="#020202"></path>
                <path d="M365.577385,99.6792227 C365.36858,99.6792227 365.156045,99.6270213 364.962154,99.5151611 L334.265237,81.9742429 C333.668649,81.632448 333.462329,80.8742845 333.802881,80.2789398 C334.143433,79.6823522 334.90284,79.4747895 335.498184,79.8165845 L366.195102,97.3575027 C366.79169,97.6980548 366.998009,98.4574611 366.657457,99.0528058 C366.428765,99.4542595 366.008668,99.6792227 365.577385,99.6792227" id="Fill-34" fill="#020202"></path>
                <path d="M325.367878,76.7027701 C325.159073,76.7027701 324.946538,76.6505687 324.752647,76.5387085 L292.508331,58.112852 C291.911743,57.7722999 291.70418,57.0128936 292.044733,56.4175489 C292.386528,55.8222042 293.145934,55.6133986 293.741279,55.9551935 L325.985595,74.38105 C326.582183,74.7216021 326.789746,75.4810084 326.447951,76.0763531 C326.219259,76.4778068 325.800404,76.7027701 325.367878,76.7027701" id="Fill-36" fill="#020202"></path>
                <path d="M440.615676,173.903171 C440.40687,173.903171 440.194336,173.85097 440.000445,173.73911 L393.997327,147.451969 C393.401982,147.110174 393.195662,146.35201 393.534971,145.756666 C393.876766,145.160078 394.636173,144.952515 395.230275,145.293067 L441.233393,171.581451 C441.82998,171.922003 442.037543,172.68141 441.695748,173.276754 C441.467056,173.678208 441.048202,173.903171 440.615676,173.903171" id="Fill-38" fill="#020202"></path>
                <path d="M374.988927,136.401551 C374.780122,136.401551 374.567587,136.349349 374.373696,136.237489 L344.602733,119.226042 C344.006145,118.884247 343.798582,118.126084 344.140377,117.529496 C344.479686,116.934152 345.239093,116.726589 345.83568,117.067141 L375.606644,134.079831 C376.203232,134.420383 376.409552,135.179789 376.069,135.775134 C375.840308,136.176588 375.420211,136.401551 374.988927,136.401551" id="Fill-40" fill="#020202"></path>
                <path d="M331.344443,111.461206 C331.135638,111.461206 330.923103,111.409005 330.729212,111.297145 L311.538978,100.332362 C310.943633,99.9918098 310.73607,99.2324035 311.076623,98.6370588 C311.417175,98.0417141 312.176581,97.8329084 312.773169,98.1747034 L331.96216,109.139486 C332.558748,109.478795 332.765067,110.239445 332.424515,110.834789 C332.195823,111.236243 331.775726,111.461206 331.344443,111.461206" id="Fill-42" fill="#9595EF"></path>
                <path d="M295.403769,90.924424 C295.194964,90.924424 294.982429,90.8722226 294.788538,90.7603625 L265.227623,73.8682333 C264.631035,73.5289241 264.424715,72.7695178 264.765268,72.1729302 C265.10582,71.5775855 265.866469,71.3700227 266.460571,71.7105748 L296.021486,88.602704 C296.618074,88.9420132 296.825636,89.7026624 296.483841,90.2980071 C296.255149,90.6994608 295.836295,90.924424 295.403769,90.924424" id="Fill-44" fill="#020202"></path>
                <path d="M426.31398,182.435865 C426.105174,182.435865 425.89264,182.383664 425.698749,182.271804 L363.930803,146.97619 C363.334216,146.634395 363.127896,145.876232 363.468448,145.279644 C363.809,144.6843 364.568406,144.475494 365.163751,144.817289 L426.931697,180.114145 C427.528284,180.454697 427.734604,181.214104 427.394052,181.809448 C427.16536,182.210902 426.745263,182.435865 426.31398,182.435865" id="Fill-46" fill="#020202"></path>
                <path d="M343.261156,134.977819 C343.052351,134.977819 342.839816,134.925618 342.645925,134.813758 L317.614104,120.509327 C317.018759,120.168775 316.811197,119.410612 317.151749,118.814024 C317.492301,118.218679 318.251707,118.011117 318.847052,118.351669 L343.878873,132.656099 C344.475461,132.996651 344.683023,133.756058 344.341228,134.351402 C344.112536,134.752856 343.693682,134.977819 343.261156,134.977819" id="Fill-48" fill="#020202"></path>
                <path d="M295.403769,107.630617 C295.194964,107.630617 294.982429,107.578415 294.788538,107.466555 L250.925678,82.4011759 C250.329091,82.0606238 250.121528,81.3012175 250.463323,80.7058728 C250.802632,80.1105281 251.563281,79.9017225 252.158626,80.2435175 L296.021486,105.308897 C296.618074,105.649449 296.825636,106.408855 296.483841,107.0042 C296.255149,107.405654 295.836295,107.630617 295.403769,107.630617" id="Fill-50" fill="#9595EF"></path>
                <path d="M509.653165,133.234914 C509.44436,133.234914 509.231825,133.182712 509.037934,133.070852 L475.640215,113.987506 C475.043628,113.646954 474.837308,112.887548 475.17786,112.29096 C475.518412,111.695616 476.277818,111.488053 476.873163,111.828605 L510.270882,130.913193 C510.86747,131.252503 511.075033,132.013152 510.733238,132.608497 C510.504546,133.00995 510.085691,133.234914 509.653165,133.234914" id="Fill-52" fill="#020202"></path>
                <path d="M450.92906,99.6792227 C450.720254,99.6792227 450.50772,99.6270213 450.313829,99.5151611 L405.433041,73.868109 C404.836453,73.5275569 404.630134,72.7693935 404.969443,72.1728059 C405.311238,71.5774612 406.071887,71.3698984 406.665989,71.7104505 L451.546776,97.3575027 C452.143364,97.6980548 452.350927,98.4574611 452.009132,99.0528058 C451.78044,99.4542595 451.361586,99.6792227 450.92906,99.6792227" id="Fill-54" fill="#020202"></path>
                <path d="M380.280908,59.3083887 C380.072102,59.3083887 379.859568,59.2561873 379.665677,59.1443271 L334.265361,33.2014669 C333.668773,32.8609148 333.462454,32.1015085 333.801763,31.5061638 C334.143558,30.9095762 334.902964,30.7007706 335.498309,31.0438084 L380.898625,56.9866686 C381.495212,57.3272207 381.701532,58.086627 381.36098,58.6819717 C381.132288,59.0834254 380.712191,59.3083887 380.280908,59.3083887" id="Fill-56" fill="#9595EF"></path>
                <path d="M497.253341,141.481246 C497.044535,141.481246 496.832001,141.429044 496.63811,141.317184 L440.000818,108.952307 C439.40423,108.611755 439.19791,107.852349 439.53722,107.257004 C439.879015,106.660416 440.638421,106.452853 441.233766,106.794648 L497.871058,139.159526 C498.467645,139.500078 498.675208,140.259484 498.333413,140.854829 C498.104721,141.256282 497.685867,141.481246 497.253341,141.481246" id="Fill-58" fill="#020202"></path>
                <path d="M418.360224,96.3984881 C418.151419,96.3984881 417.938884,96.3462867 417.744993,96.2344265 L363.930306,65.4840646 C363.334962,65.1435125 363.128642,64.3841062 363.467951,63.7887615 C363.808503,63.1921739 364.569152,62.9833683 365.163254,63.3264061 L418.977941,94.076768 C419.574529,94.4173201 419.780848,95.1767264 419.440296,95.7720711 C419.211604,96.1735249 418.791507,96.3984881 418.360224,96.3984881" id="Fill-60" fill="#020202"></path>
                <path d="M345.217715,54.6026797 C345.008909,54.6026797 344.796375,54.5504783 344.602484,54.4386181 L321.865039,41.4466803 C321.268452,41.1073712 321.062132,40.346722 321.402684,39.7513773 C321.743236,39.1547897 322.503885,38.945984 323.097987,39.2890219 L345.835432,52.2809597 C346.432019,52.6202689 346.638339,53.380918 346.297787,53.9762628 C346.069095,54.3777165 345.648998,54.6026797 345.217715,54.6026797" id="Fill-62" fill="#020202"></path>
                <path d="M316.267183,103.426166 C316.267183,86.3165306 344.262056,72.4483548 378.797021,72.4483548 C413.330742,72.4483548 441.324372,86.3165306 441.324372,103.426166 C441.324372,120.534558 413.330742,134.402734 378.797021,134.402734 C344.262056,134.402734 316.267183,120.534558 316.267183,103.426166" id="Fill-64" fill="#9595EF"></path>
                <path d="M449.839044,49.8191658 C440.748541,32.5678412 412.390744,19.9798429 378.796648,19.9798429 C345.755638,19.9798429 317.776923,32.1552014 308.212878,48.9677856 L304.684311,46.6547658 L304.684311,61.7036879 C304.684311,84.7456409 337.864524,103.42629 378.796648,103.42629 C419.726286,103.42629 452.907742,84.7456409 452.907742,61.7036879 L452.907742,46.6547658 L449.839044,49.8191658 Z" id="Fill-66" fill="#FFFFFF"></path>
                <path d="M449.839044,49.8191658 C440.748541,32.5678412 412.390744,19.9798429 378.796648,19.9798429 C345.755638,19.9798429 317.776923,32.1552014 308.212878,48.9677856 L304.684311,46.6547658 L304.684311,61.7036879 C304.684311,84.7456409 337.864524,103.42629 378.796648,103.42629 C419.726286,103.42629 452.907742,84.7456409 452.907742,61.7036879 L452.907742,46.6547658 L449.839044,49.8191658 Z" id="Stroke-68" stroke="#000000" stroke-width="2" stroke-linejoin="round"></path>
                <path d="M304.684186,46.6548901 C304.684186,23.6129371 337.8644,4.93228795 378.796523,4.93228795 C419.727404,4.93228795 452.907618,23.6129371 452.907618,46.6548901 C452.907618,69.698086 419.727404,88.3774922 378.796523,88.3774922 C337.8644,88.3774922 304.684186,69.698086 304.684186,46.6548901" id="Fill-70" fill="#FFFFFF"></path>
                <path d="M304.684186,46.6548901 C304.684186,23.6129371 337.8644,4.93228795 378.796523,4.93228795 C419.727404,4.93228795 452.907618,23.6129371 452.907618,46.6548901 C452.907618,69.698086 419.727404,88.3774922 378.796523,88.3774922 C337.8644,88.3774922 304.684186,69.698086 304.684186,46.6548901 Z" id="Stroke-72" stroke="#000000" stroke-width="2" stroke-linejoin="round"></path>
                <path d="M441.322135,43.2139468 C441.322135,43.8217204 441.297277,44.4307369 441.235133,45.0285674 C439.519943,28.6721242 412.226061,15.683915 378.792298,15.683915 C345.370963,15.683915 318.064652,28.6721242 316.349463,45.0285674 C316.287318,44.4307369 316.26246,43.8217204 316.26246,43.2139468 C316.26246,24.1964743 344.264791,8.78587095 378.792298,8.78587095 C413.332234,8.78587095 441.322135,24.1964743 441.322135,43.2139468" id="Fill-74" fill="#9595EF"></path>
                <path d="M316.267183,46.6548901 C316.267183,29.5464979 344.262056,15.678322 378.797021,15.678322 C413.330742,15.678322 441.324372,29.5464979 441.324372,46.6548901 C441.324372,63.7632823 413.330742,77.632701 378.797021,77.632701 C344.262056,77.632701 316.267183,63.7632823 316.267183,46.6548901" id="Fill-76" fill="#FFFFFF"></path>
                <path d="M316.267183,46.6548901 C316.267183,29.5464979 344.262056,15.678322 378.797021,15.678322 C413.330742,15.678322 441.324372,29.5464979 441.324372,46.6548901 C441.324372,63.7632823 413.330742,77.632701 378.797021,77.632701 C344.262056,77.632701 316.267183,63.7632823 316.267183,46.6548901 Z" id="Stroke-78" stroke="#000000" stroke-width="2" stroke-linejoin="round"></path>
                <path d="M377.176042,77.616792 C343.39427,77.1942091 316.261963,63.4975522 316.261963,46.6563815 C316.261963,46.1082667 316.288064,45.5626376 316.350208,45.0281945 C318.04054,62.9009646 344.501686,77.1569224 377.176042,77.616792" id="Fill-80" fill="#9595EF"></path>
                <path d="M441.322135,46.656133 C441.322135,63.4973036 414.202257,77.1939605 380.408056,77.6165434 C413.096084,77.1566738 439.544801,62.900716 441.235133,45.027946 C441.297277,45.562389 441.322135,46.109261 441.322135,46.656133" id="Fill-82" fill="#9595EF"></path>
                <path d="M360.992982,32.077645 C357.219566,34.7548319 358.426413,40.6660206 361.194331,42.4110393 C363.963492,44.1585438 371.261746,43.1381305 374.567836,41.3471248 C380.512583,38.1255518 379.713404,32.9588546 376.841083,31.9371984 C372.530738,30.4022282 364.765156,29.4004582 360.992982,32.077645" id="Fill-84" fill="#9595EF"></path>
                <path d="M344.331658,44.6704906 C344.331658,44.6704906 347.568146,44.7848365 349.217462,45.4659407 C349.668631,45.6523743 354.556921,47.5216821 356.858755,47.3302769 C359.160589,47.1376289 373.568179,45.360295 377.700791,42.1809802 C382.166498,38.7443871 382.617667,36.9049087 384.09795,34.8876969 C386.721693,31.3119 380.293461,26.8660795 380.005111,25.8108652 C379.718003,24.7568938 381.880633,23.6755788 382.590323,23.8483406 C383.870501,24.1578204 384.670923,24.6002895 387.259864,26.4211246 C389.850049,28.2444454 390.80956,35.0169575 392.247585,35.5625866 C393.68561,36.1082157 397.138361,33.2309234 398.480683,32.3683572 C399.823005,31.5045481 404.033919,30.1286679 405.481887,31.5045481 C406.386711,32.3646285 405.481887,33.9033274 405.481887,33.9033274 C405.481887,33.9033274 399.092185,36.8862653 398.352665,38.1378564 C397.66286,39.3061738 398.38498,39.656669 399.344492,39.656669 C400.302761,39.656669 417.086758,40.9045314 418.42908,44.164634 C419.772645,47.4259795 416.645532,46.6553872 416.645532,46.6553872 C416.645532,46.6553872 402.932718,42.3077551 400.162314,44.3398816 C398.934338,45.2422203 399.845377,50.4685763 399.702444,52.4932454 C399.702444,52.4932454 399.018854,54.2618791 398.894565,54.570116 C398.894565,54.570116 398.476954,53.5323022 397.178133,52.4932454 C395.687907,51.3037989 385.687607,45.4311398 384.670923,46.4925685 C383.655481,47.5502686 393.060436,55.2959642 396.642447,56.5699273 C396.796566,56.6258574 393.555106,57.4797234 392.644067,57.4511369 C390.772274,57.3914782 387.289694,57.1304711 386.118891,56.778733 C381.895547,55.5122272 377.148947,55.594258 376.967485,56.3834937 C376.679135,57.6301132 382.753142,65.8394071 383.041493,66.5105681 C383.328601,67.1817292 383.108609,68.5700382 381.822217,69.1454967 C380.537068,69.7209552 378.422911,69.52955 377.751749,68.7626863 C377.080588,67.9958227 373.099609,62.9509288 372.449577,61.8832856 C370.688401,58.9861071 371.283746,57.2870753 371.052568,55.673803 C371.052568,55.673803 370.094299,54.4271835 368.07833,55.481155 C366.064847,56.5363693 360.639629,60.5620927 359.584414,60.6577953 C358.530443,60.7534978 355.51519,60.5645784 355.419487,59.1265538 C355.323785,57.6872862 365.325327,54.1910343 365.325327,52.5616044 C365.325327,50.9309317 362.324989,51.3572432 359.351994,51.7400536 C356.377756,52.1241068 352.35079,51.5486484 350.144658,51.0688925 C347.938527,50.5903796 342.050953,49.2430859 342.050953,46.75979 C342.050953,45.1229028 344.331658,44.6704906 344.331658,44.6704906" id="Fill-86" fill="#9595EF"></path>
                <g id="Group-91" transform="translate(476.103565, 103.807485)">
                    <polyline id="Fill-88" fill="#FFFFFF" points="0.0607773614 16.6307493 10.4438873 11.1682441 10.5632048 0.86840782 9.68820969 0.28176335"></polyline>
                    <polyline id="Stroke-90" stroke="#000000" stroke-width="2" points="0.0607773614 16.6307493 10.4438873 11.1682441 10.5632048 0.86840782 9.68820969 0.28176335"></polyline>
                </g>
                <polygon id="Fill-92" fill="#FFFFFF" points="425.217874 90.3406382 425.106014 80.3291526 425.43538 79.9252131 434.627801 74.6727565 485.552767 103.860805 475.957649 108.962871 475.716529 119.539872"></polygon>
                <path d="M434.629417,73.2399519 L424.616688,78.9622213 L423.858525,79.8943894 L423.984057,91.0630064 L476.912562,121.666707 L476.949849,119.993776 L477.183513,109.720041 L488.123438,103.902069 L434.629417,73.2399519 Z M434.628174,76.1048153 L482.982841,103.820038 L476.017681,107.525095 L474.732532,108.208685 L474.698974,109.662868 L474.522483,117.413535 L426.453681,89.6200101 L426.355492,80.8302862 L434.628174,76.1048153 Z" id="Fill-94" fill="#000000"></path>
                <g id="Group-99" transform="translate(423.902150, 78.949668)">
                    <path d="M0.702854762,0.8845654 L52.1597778,30.2888765" id="Fill-96" fill="#FFFFFF"></path>
                    <path d="M0.702854762,0.8845654 L52.1597778,30.2888765" id="Stroke-98" stroke="#000000" stroke-width="2"></path>
                </g>
            </g>
            <g id="Group" transform="translate(0.000000, 215.213358)">
                <path d="M-0.000324588629,127.920054 L55.2024635,158.410828 L114.085005,124.479415 L58.2103182,97.8663929 L-0.000324588629,127.920054 Z" id="Stroke-1" stroke="#000000" stroke-width="2" stroke-linecap="round" stroke-linejoin="round" stroke-dasharray="2,9"></path>
                <polygon id="Fill-3" fill="#9595EF" points="57.186241 60.7432996 99.2810584 36.0583344 107.765805 31.1245872 109.263241 31.8192069 108.061181 110.699654 57.1851591 140.01758"></polygon>
                <polygon id="Stroke-4" stroke="#000000" stroke-width="2" stroke-linecap="round" stroke-linejoin="round" points="57.186241 60.7432996 99.2810584 36.0583344 107.765805 31.1245872 109.263241 31.8192069 108.061181 110.699654 57.1851591 140.01758"></polygon>
                <polygon id="Stroke-5" stroke="#000000" stroke-width="2" points="6.7196338 29.944383 57.1855919 61.3093822 108.345088 31.3411961 56.7311678 1.24966622"></polygon>
                <g id="Group-9" transform="translate(77.901271, 90.246458)">
                    <polyline id="Fill-7" fill="#9595EF" points="0.860809044 8.02426369 13.365045 0.154071403 20.6076993 3.8792669 19.6350153 17.1246469"></polyline>
                    <polyline id="Stroke-8" stroke="#000000" stroke-width="2" stroke-linecap="round" stroke-linejoin="round" points="0.860809044 8.02426369 13.365045 0.154071403 20.6076993 3.8792669 19.6350153 17.1246469"></polyline>
                </g>
                <polygon id="Fill-10" fill="#FFFFFF" points="115.281438 114.351167 115.281438 75.914464 109.854317 73.3026075 103.885132 79.6764462 81.6551385 67.3626355 78.2945642 69.1424632 78.2945642 75.0781073 96.8924107 84.4435712 96.8924107 107.95028 79.8450159 99.1939604 78.8084962 98.6129468 78.7305949 107.532642 103.290053 120.91435 103.323593 120.91435"></polygon>
                <polygon id="Stroke-11" stroke="#000000" stroke-width="2" stroke-linecap="round" stroke-linejoin="round" points="115.281438 114.351167 115.281438 75.914464 109.854317 73.3026075 103.885132 79.6764462 81.6551385 67.3626355 78.2945642 69.1424632 78.2945642 75.0781073 96.8924107 84.4435712 96.8924107 107.95028 79.8450159 99.1939604 78.8084962 98.6129468 78.7305949 107.532642 103.290053 120.91435 103.323593 120.91435"></polygon>
                <polygon id="Fill-13" fill="#FFFFFF" points="5.11778891 36.4372375 5.0496253 30.2538241 56.9264619 1.50176339 107.66832 31.028509 57.1850509 61.3093822"></polygon>
                <g id="Group-18" transform="translate(4.327848, 0.443604)" stroke="#000000" stroke-width="2">
                    <polygon id="Stroke-14" points="0.789940527 35.9936331 0.721776915 29.8102197 52.5986136 1.05815893 103.340472 30.5849045 52.8572025 60.8657777"></polygon>
                    <polyline id="Stroke-16" stroke-linecap="round" stroke-linejoin="round" points="104.017023 30.8975916 52.3922834 0.882881071 52.2202514 19.5932516"></polyline>
                </g>
                <polygon id="Stroke-19" stroke="#000000" stroke-width="2" points="18.9382318 31.1245872 56.640283 10.09449 92.6804404 30.2687552 56.3589728 52.5052402"></polygon>
                <polygon id="Fill-20" fill="#9595EF" points="29.1058624 36.7964489 56.3107173 52.1549009 83.8639641 35.7361261 56.547667 20.6351811"></polygon>
                <polygon id="Stroke-21" stroke="#000000" stroke-width="2" points="29.1058624 36.7964489 56.3107173 52.1549009 83.8639641 35.7361261 56.547667 20.6351811"></polygon>
                <polygon id="Fill-25" fill="#FFFFFF" points="79.5017093 68.246274 90.9694256 61.309815 114.085546 75.1556839 103.529924 81.0177546"></polygon>
                <polygon id="Stroke-26" stroke="#000000" stroke-width="2" points="79.5017093 68.246274 90.9694256 61.309815 114.085546 75.1556839 103.529924 81.0177546"></polygon>
                <path d="M103.714723,120.426493 L103.714723,80.7563525 L103.714723,120.426493 Z" id="Fill-28" fill="#FFFFFF"></path>
                <path d="M103.714831,80.7564607 L103.714831,120.426601" id="Stroke-29" stroke="#000000" stroke-width="2"></path>
                <polygon id="Fill-30" fill="#FFFFFF" points="5.00050422 31.4542611 57.1846181 61.3099232 57.1846181 140.017256 5.11735613 111.258703"></polygon>
                <polygon id="Stroke-31" stroke="#000000" stroke-width="2" stroke-linejoin="round" points="5.00050422 31.4542611 57.1846181 61.3099232 57.1846181 140.017256 5.11735613 111.258703"></polygon>
                <g id="Group-42" transform="translate(9.737659, 11.263225)">
                    <path d="M10.0130182,74.1115905 C12.075238,75.1697494 13.6505748,75.0994219 14.757422,73.9406405 C15.8631873,72.7818591 16.4030864,70.6320004 16.3771193,67.4867366 C16.3500702,64.4366855 15.7668927,61.7620751 14.6340783,59.453168 C13.502346,57.1442609 11.9454025,55.4661377 9.95351031,54.4090607 C7.96161809,53.3519838 6.40034678,53.3811967 5.27402424,54.5118471 C4.1477017,55.6414156 3.57858963,57.7490777 3.58940926,60.8456533 C3.59914691,63.9314092 4.18124252,66.6676913 5.32704038,69.0350244 C6.47175628,71.4023574 8.04060132,73.1010379 10.0130182,74.1115905 M19.7907097,85.5587495 C16.5945937,82.8094838 13.9502783,80.0851033 11.7993376,77.352067 C10.9478335,77.0263964 10.2900005,76.7450863 9.82475682,76.5070546 C7.11227784,75.1221431 4.86179668,72.7926787 3.1057722,69.558694 C1.35082968,66.3236273 0.456047024,62.8483651 0.4538831,59.1805136 C0.451719175,55.4174494 1.34650183,52.9008056 3.08196903,51.5937954 C4.81635427,50.2857032 7.0992943,50.3982272 9.93619891,51.9086463 C12.7817592,53.4255572 15.0527977,55.7344643 16.7752813,58.8505151 C18.497765,61.965484 19.3849739,65.3877301 19.4174328,69.1356468 C19.4639571,74.5032608 17.7663586,77.3628866 14.357096,77.7210161 C16.6724949,80.0591362 19.0712049,82.0780774 21.5965044,83.8211184 C20.8715898,84.5124922 20.5102145,84.8608839 19.7907097,85.5587495" id="Fill-32" fill="#9595EF"></path>
                    <path d="M10.0130182,74.1115905 C12.075238,75.1697494 13.6505748,75.0994219 14.757422,73.9406405 C15.8631873,72.7818591 16.4030864,70.6320004 16.3771193,67.4867366 C16.3500702,64.4366855 15.7668927,61.7620751 14.6340783,59.453168 C13.502346,57.1442609 11.9454025,55.4661377 9.95351031,54.4090607 C7.96161809,53.3519838 6.40034678,53.3811967 5.27402424,54.5118471 C4.1477017,55.6414156 3.57858963,57.7490777 3.58940926,60.8456533 C3.59914691,63.9314092 4.18124252,66.6676913 5.32704038,69.0350244 C6.47175628,71.4023574 8.04060132,73.1010379 10.0130182,74.1115905 Z M19.7907097,85.5587495 C16.5945937,82.8094838 13.9502783,80.0851033 11.7993376,77.352067 C10.9478335,77.0263964 10.2900005,76.7450863 9.82475682,76.5070546 C7.11227784,75.1221431 4.86179668,72.7926787 3.1057722,69.558694 C1.35082968,66.3236273 0.456047024,62.8483651 0.4538831,59.1805136 C0.451719175,55.4174494 1.34650183,52.9008056 3.08196903,51.5937954 C4.81635427,50.2857032 7.0992943,50.3982272 9.93619891,51.9086463 C12.7817592,53.4255572 15.0527977,55.7344643 16.7752813,58.8505151 C18.497765,61.965484 19.3849739,65.3877301 19.4174328,69.1356468 C19.4639571,74.5032608 17.7663586,77.3628866 14.357096,77.7210161 C16.6724949,80.0591362 19.0712049,82.0780774 21.5965044,83.8211184 C20.8715898,84.5124922 20.5102145,84.8608839 19.7907097,85.5587495 Z" id="Stroke-34" stroke="#9595EF" stroke-linecap="round" stroke-linejoin="round"></path>
                    <path d="M34.4322536,79.2847759 C32.8731462,74.4992575 32.1060351,72.1243507 30.5880422,67.3810289 C29.111164,70.6528823 28.3894953,72.2920549 26.969961,75.5833836 C29.8598817,77.0169833 31.3400059,77.7473078 34.4322536,79.2847759 M37.9150896,89.9529222 C36.8893895,86.8379533 36.3841132,85.2907475 35.3800524,82.2093194 C31.5066281,80.2704434 29.680276,79.3691689 26.1162929,77.6034068 C25.2096087,79.7218886 24.7605944,80.7843754 23.8701396,82.9158407 C22.7795218,82.3791875 22.2396227,82.1130248 21.1652343,81.5839453 C24.3213178,73.8446705 25.9193758,70.031836 29.309163,62.4278064 C30.5306982,63.0293774 31.1495806,63.3312448 32.4068205,63.9414714 C35.9459185,74.9461079 37.7646968,80.4435573 41.5775313,91.8517656 C40.0811777,91.070589 39.3497713,90.6919023 37.9150896,89.9529222" id="Fill-36" fill="#9595EF"></path>
                    <path d="M34.4322536,79.2847759 C32.8731462,74.4992575 32.1060351,72.1243507 30.5880422,67.3810289 C29.111164,70.6528823 28.3894953,72.2920549 26.969961,75.5833836 C29.8598817,77.0169833 31.3400059,77.7473078 34.4322536,79.2847759 Z M37.9150896,89.9529222 C36.8893895,86.8379533 36.3841132,85.2907475 35.3800524,82.2093194 C31.5066281,80.2704434 29.680276,79.3691689 26.1162929,77.6034068 C25.2096087,79.7218886 24.7605944,80.7843754 23.8701396,82.9158407 C22.7795218,82.3791875 22.2396227,82.1130248 21.1652343,81.5839453 C24.3213178,73.8446705 25.9193758,70.031836 29.309163,62.4278064 C30.5306982,63.0293774 31.1495806,63.3312448 32.4068205,63.9414714 C35.9459185,74.9461079 37.7646968,80.4435573 41.5775313,91.8517656 C40.0811777,91.070589 39.3497713,90.6919023 37.9150896,89.9529222 Z" id="Stroke-38" stroke="#9595EF" stroke-linecap="round" stroke-linejoin="round"></path>
                    <polygon id="Fill-40" fill="#9595EF" points="11.6507842 19.8613618 45.7509836 0.648960866 45.7455738 8.79613545 19.3684199 24.4326517"></polygon>
                </g>
            </g>
        </g>
    </g>
</svg>