<svg width="52" height="52" viewBox="0 0 52 52" fill="none" xmlns="http://www.w3.org/2000/svg">
<path d="M27.2878 40.5066L27.2393 46.0878L30.7336 44.6318V39.6815V39.3418" fill="white"/>
<path d="M27.2878 40.5066L27.2393 46.0878L30.7336 44.6318V39.6815V39.3418" stroke="black" stroke-miterlimit="10" stroke-linejoin="round"/>
<path d="M36.6061 13.4742C34.5192 10.5622 31.6073 7.55322 28.0644 5.56338C24.6671 3.67061 22.0464 2.79703 19.9595 3.03969C16.271 3.42795 14.6694 5.75751 14.4268 8.76653C16.0769 9.78571 17.8726 8.5724 19.7168 9.68865C20.3963 5.66045 23.4234 8.71897 27.5002 11C29.5871 12.1648 31.2383 14.6072 32.5002 16.5C33.762 18.3928 35.0046 18.6672 35.0046 20.5114C35.0046 21.482 34.7619 22.2586 34.3251 22.841C33.8883 23.4234 32.675 24.0543 30.7337 24.5396C28.7439 25.0249 27.3849 25.7529 26.657 26.7236C25.929 27.6942 25.5407 29.684 25.5407 32.6931C25.5407 32.6931 25.5892 32.6931 25.5892 32.7416L24.8127 33.2269L26.8511 37.2066L30.1028 35.3138C30.1028 33.0328 30.3454 31.5283 30.8308 30.8488C31.3161 30.1208 32.6265 29.5385 34.6163 28.9561C36.6547 28.3737 37.9165 27.5001 38.596 26.4809C39.2754 25.4617 39.5666 24.1513 39.5666 22.5498C39.6151 19.7349 38.693 16.3376 36.6061 13.4742Z" fill="white" stroke="black" stroke-miterlimit="10" stroke-linejoin="round"/>
<path d="M21.415 37.3526L27.4331 40.6529L30.7333 39.391L24.2785 35.6055L21.415 37.3526Z" stroke="black" stroke-miterlimit="10" stroke-linejoin="round"/>
<path d="M26.8996 46.1858C26.8511 46.1858 26.754 46.1858 26.7055 46.1373C24.6186 44.9725 23.5509 44.3416 21.3669 43.0797C21.2698 43.0312 21.1728 42.8856 21.1728 42.74V37.8382C21.1728 37.6926 21.2698 37.547 21.3669 37.4985C21.4154 37.4499 21.5125 37.4499 21.6096 37.4499C21.6581 37.4499 21.7066 37.4499 21.7552 37.4985C23.9391 38.7603 25.0068 39.3912 27.0937 40.5075C27.2393 40.556 27.2879 40.7016 27.2879 40.8472V45.7975C27.2879 45.9431 27.1908 46.0887 27.0937 46.1373C27.0452 46.1373 26.9967 46.1858 26.8996 46.1858ZM26.3172 37.1102C26.2687 37.1102 26.1716 37.1102 26.1231 37.0617C24.2788 36.0425 23.4053 35.5086 21.561 34.4895C21.464 34.4409 21.3669 34.2953 21.3669 34.1497C21.3669 31.0436 21.7552 29.0053 22.5317 27.9861C23.3082 26.9669 24.7156 26.1904 26.8025 25.6565C29.1806 25.0741 29.9572 24.4432 30.1998 24.1035C30.5881 23.5696 30.7822 22.8416 30.7822 22.0166C30.7822 20.2209 30.1513 18.4737 28.938 16.6295C27.7247 14.8338 26.0746 13.3293 23.9877 12.1645C22.5802 11.388 21.3669 10.9512 20.4448 10.9512C18.8917 10.9512 17.9211 12.116 17.5328 14.4941C17.5328 14.6397 17.4358 14.7367 17.2902 14.7852C17.2416 14.7852 17.1931 14.8338 17.1446 14.8338C17.096 14.8338 16.999 14.8338 16.9504 14.7852C15.1547 13.7175 14.2326 13.1837 12.534 12.116C12.3884 12.0189 12.3398 11.8733 12.3398 11.7277C12.5825 8.47602 13.7958 6.58325 15.9313 5.9038C16.4651 5.7582 17.0475 5.66113 17.6784 5.66113C19.5227 5.66113 21.7552 6.38912 24.3759 7.8451C28.0644 9.88346 30.9763 12.4072 33.0632 15.2706C35.1501 18.1825 36.1693 20.9974 36.1693 23.9579C36.1693 25.608 35.8296 27.0154 35.1016 28.0832C34.3251 29.2479 32.9176 30.1215 30.9278 30.7039C28.8894 31.2863 27.7247 31.8687 27.3364 32.4026C27.0452 32.8394 26.7055 33.9556 26.7055 36.6734C26.7055 36.819 26.6084 36.9646 26.5113 37.0131C26.4628 37.1102 26.4143 37.1102 26.3172 37.1102Z" fill="white"/>
<path d="M17.6783 6.04898C19.474 6.04898 21.658 6.77697 24.1817 8.18441C27.7731 10.1742 30.6365 12.6009 32.7234 15.5128C34.8103 18.4248 35.7809 21.1426 35.7809 23.9575C35.7809 25.5591 35.4412 26.8694 34.8103 27.8886C34.1308 28.9078 32.869 29.7814 30.8306 30.3638C28.7923 30.9462 27.4819 31.5286 27.0451 32.2565C26.5598 32.9845 26.3171 34.4405 26.3171 36.7215C24.4729 35.7024 23.5507 35.1685 21.755 34.1493C21.755 31.1403 22.1433 29.1505 22.8713 28.1798C23.5993 27.2092 24.9582 26.4812 26.948 25.9959C28.9379 25.5105 30.1026 24.9281 30.5394 24.2972C30.9762 23.7148 31.2189 22.8898 31.2189 21.9677C31.2189 20.1234 30.588 18.2306 29.3261 16.3864C28.0643 14.4936 26.3656 12.9891 24.2787 11.8244C22.7742 10.9993 21.5609 10.5625 20.5417 10.5625C18.746 10.5625 17.6783 11.8244 17.2415 14.3966C15.3487 13.3289 14.4266 12.7465 12.7765 11.7758C13.0192 8.7668 14.0384 6.92257 16.0767 6.29164C16.5621 6.14605 17.0959 6.04898 17.6783 6.04898ZM21.5609 37.7893C23.6963 39.0026 24.7641 39.6335 26.8995 40.7983C26.8995 42.7881 26.8995 43.7588 26.8995 45.7486C24.7641 44.5838 23.6478 43.9529 21.5609 42.691C21.5609 40.7497 21.5609 39.7306 21.5609 37.7893ZM17.6783 5.27246C17.0474 5.27246 16.4165 5.36953 15.8341 5.51512C13.553 6.24311 12.2912 8.28148 12 11.6788C12 11.97 12.0971 12.2611 12.3883 12.4067C14.0869 13.4259 15.009 14.0083 16.8047 15.076C16.9503 15.1246 17.0474 15.1731 17.193 15.1731C17.29 15.1731 17.4356 15.1731 17.5327 15.1246C17.7754 15.0275 17.921 14.7848 17.9695 14.5422C18.4548 11.6788 19.6681 11.339 20.4932 11.339C21.3668 11.339 22.483 11.7273 23.8419 12.5038C25.8318 13.6201 27.4333 15.076 28.6467 16.8232C29.86 18.5704 30.4424 20.269 30.4424 22.0162C30.4424 22.7927 30.2482 23.4236 29.9085 23.8604C29.7629 24.0546 29.132 24.6369 26.7054 25.2679C24.5214 25.8017 23.0169 26.6268 22.1918 27.743C21.3182 28.8593 20.93 30.9462 20.93 34.1493C20.93 34.4405 21.0756 34.6832 21.3182 34.8288C23.114 35.8965 24.0361 36.3818 25.8803 37.4495C25.9774 37.4981 26.123 37.5466 26.2686 37.5466C26.4142 37.5466 26.5598 37.4981 26.6568 37.4495C26.8995 37.3039 27.0451 37.0613 27.0451 36.7701C27.0451 34.0037 27.3848 33.0331 27.6275 32.7419C27.9672 32.2566 29.0835 31.7227 30.9762 31.1888C33.0631 30.5579 34.5676 29.6358 35.3927 28.3739C36.1207 27.2577 36.5089 25.7532 36.5089 24.006C36.5089 20.9485 35.4412 18.0365 33.3058 15.076C31.1704 12.1641 28.2099 9.59186 24.5214 7.55349C21.8521 6.00045 19.6196 5.27246 17.6783 5.27246ZM21.5609 37.0127C21.4153 37.0127 21.2697 37.0613 21.1726 37.1098C20.93 37.2554 20.7844 37.4981 20.7844 37.7893V40.1674V42.7396C20.7844 43.0308 20.93 43.2734 21.1726 43.419C23.3566 44.6809 24.4243 45.3118 26.5112 46.4766C26.6083 46.5251 26.7539 46.5736 26.8995 46.5736C27.0451 46.5736 27.1907 46.5251 27.2877 46.4766C27.5304 46.331 27.676 46.0883 27.676 45.7971V43.2249V40.8468C27.676 40.5556 27.5304 40.313 27.2877 40.1674C25.2008 39.0026 24.1331 38.3717 21.9492 37.1583C21.8521 37.0127 21.7065 37.0127 21.5609 37.0127Z" fill="black"/>
</svg>
