<svg width="86" height="95" viewBox="0 0 86 95" fill="none" xmlns="http://www.w3.org/2000/svg">
<path d="M28.3145 46.8025C27.7164 46.5542 27.238 46.0728 26.9909 45.471L26.5284 45.6609C26.3851 45.3119 26.3066 44.9298 26.3074 44.5305L26.3138 41.2782L26.8138 41.2792L26.8264 34.7745L26.3264 34.7736L26.3391 28.2689L26.8391 28.2699L26.8518 21.7653L26.3518 21.7643L26.3581 18.512V18.5118C26.359 18.1035 26.2794 17.7153 26.1348 17.3615L26.5976 17.1724C26.2464 16.3132 25.5658 15.6253 24.7137 15.2682L24.5204 15.7293C24.1684 15.5817 23.7818 15.5 23.375 15.5H21.1521V15H16.7063V15.5H14.4834C14.0771 15.5 13.691 15.5816 13.3393 15.7289L13.1461 15.2677C12.295 15.6242 11.6148 16.3107 11.2627 17.1684L11.7253 17.3583C11.5803 17.7116 11.5 18.0992 11.5 18.507V22.1679H11V29.4897H11.5V36.8115H11V44.1333H11.5V51.4551H11V58.7769H11.5V66.0987H11V73.4205H11.5V80.7423H11V88.0641H11.5V91.725C11.5 92.0798 11.5698 92.4167 11.6957 92.7236L11.2331 92.9134C11.5457 93.6751 12.1496 94.2846 12.9051 94.601L13.0983 94.1399C13.4038 94.2678 13.7392 94.3387 14.0923 94.3387H18.3932V94.8387H26.9949V94.3387H35.5966V94.8387H44.1984V94.3387H52.8001V94.8387H61.4019V94.3387H70.0036V94.8387H78.6054V94.3387H82.9062C83.2596 94.3387 83.5952 94.2679 83.9008 94.14L84.0938 94.6012C84.8498 94.2848 85.454 93.6754 85.7667 92.9137L85.3042 92.7239C85.4302 92.4169 85.5 92.0799 85.5 91.725V88.252H86V81.3061H85.5V74.3601H86V67.4141H85.5V60.4681H86V53.5222H85.5V50.0492C85.5 49.6943 85.4302 49.3573 85.3042 49.0503L85.7667 48.8605C85.454 48.0988 84.8498 47.4894 84.0938 47.173L83.9008 47.6342C83.5952 47.5063 83.2596 47.4355 82.9062 47.4355H79.7902V46.9355H73.558V47.4355H67.3258V46.9355H61.0936V47.4355H57.9775H57.9773C57.6017 47.4353 57.2425 47.3597 56.9147 47.2224L57.1079 46.7612C56.5545 46.5294 56.1119 46.0831 55.8827 45.5255L55.4203 45.7156C55.2857 45.3881 55.2116 45.0298 55.2114 44.6553V44.6551V41.3866H55.7114V34.8495H55.2114V28.3125H55.7114V21.7755H55.2114V18.507C55.2114 18.0993 55.1311 17.7117 54.9861 17.3585L55.4486 17.1686C55.0964 16.311 54.4161 15.6245 53.5654 15.2679L53.3721 15.729C53.0204 15.5816 52.6344 15.5 52.2283 15.5H50.0036V15H45.5541V15.5H43.3294C42.9231 15.5 42.537 15.5816 42.1853 15.7289L41.9921 15.2677C41.1411 15.6243 40.4609 16.3108 40.1088 17.1685L40.5713 17.3583C40.4263 17.7116 40.346 18.0993 40.346 18.507V21.7558H39.846V28.2532H40.346V34.7506H39.846V41.248H40.346V44.4967C40.346 44.8929 40.268 45.2721 40.1261 45.6188L39.6634 45.4294C39.4187 46.0271 38.946 46.5063 38.354 46.7567L38.5489 47.2172C38.2026 47.3637 37.8228 47.4452 37.4253 47.447L35.3832 47.4568L35.3808 46.9568L31.2961 46.9764L31.2985 47.4764L29.2564 47.4862H29.2561L29.2537 46.9862L28.3145 46.8025ZM70.9102 75.9842C70.5002 76.9825 69.7081 77.7815 68.7174 78.1964L68.9105 78.6576C68.3711 78.8835 67.7797 79.008 67.1606 79.008H65.4025V78.508H61.8861V79.008H60.1279C59.5088 79.008 58.9174 78.8835 58.378 78.6576L58.5711 78.1964C57.5803 77.7816 56.7881 76.9826 56.3781 75.9842L55.9156 76.1742C55.694 75.6348 55.5721 75.044 55.5721 74.426V72.6565H56.0721V69.1174H55.5721V67.3479C55.5721 66.7298 55.694 66.1391 55.9156 65.5997L56.3781 65.7896C56.7881 64.7912 57.5803 63.9923 58.5711 63.5774L58.378 63.1162C58.9174 62.8904 59.5088 62.7659 60.1279 62.7659H61.8861V63.2659H65.4025V62.7659H67.1606C67.7797 62.7659 68.3711 62.8904 68.9105 63.1163L68.7174 63.5775C69.7081 63.9923 70.5002 64.7913 70.9102 65.7897L71.3728 65.5998C71.5943 66.1392 71.7162 66.7299 71.7162 67.3479V69.1174H71.2162V72.6565H71.7162V74.426C71.7162 75.044 71.5943 75.6347 71.3727 76.1741L70.9102 75.9842Z" fill="#654BF1" fill-opacity="0.08" stroke="black" stroke-linejoin="round" stroke-dasharray="8 8"/>
<path d="M71.9062 31.9355H46.9775C45.7263 31.935 44.7121 30.9143 44.7114 29.6551V3.50704C44.7114 1.57071 43.1514 0 41.2283 0H32.3294C30.4052 0 28.846 1.57071 28.846 3.50704V29.4967C28.846 30.8451 27.7629 31.9411 26.4231 31.947L18.2537 31.9862C16.9025 31.9936 15.8048 30.8902 15.8074 29.5315L15.8581 3.51294C15.8625 1.57366 14.3019 0 12.375 0H3.4834C1.55889 0 0 1.57071 0 3.50704V76.725C0 78.4452 1.38457 79.8387 3.09229 79.8387H71.9062C73.6154 79.8387 75 78.4452 75 76.725V35.0492C75 33.329 73.6154 31.9355 71.9062 31.9355ZM60.2162 59.426C60.2162 61.6802 58.4004 63.508 56.1606 63.508H49.1279C46.8879 63.508 45.0721 61.6802 45.0721 59.426V52.3479C45.0721 50.0934 46.8879 48.2659 49.1279 48.2659H56.1606C58.4004 48.2659 60.2162 50.0934 60.2162 52.3479V59.426Z" fill="#FF6600"/>
</svg>
