<svg xmlns="http://www.w3.org/2000/svg" width="97" height="91" viewBox="0 0 97 91">
  <g fill="none" fill-rule="evenodd">
    <path fill="#9595EF" fill-opacity=".078" stroke="#000" stroke-dasharray="8 10" stroke-linecap="round" d="M77.8775362,65.6891138 C80.6231129,76.9089207 79.6421009,85.8284114 74.444392,88.82931 C69.2466831,91.8302087 61.0316717,88.2200446 52.6878222,80.2324019 C44.3439727,88.2200446 36.1289612,91.8302087 30.9312523,88.82931 C25.7335434,85.8284114 24.7525315,76.9089207 27.4981082,65.6891138 C16.408682,62.4569495 9.17468245,57.1476229 9.17468245,51.1458256 C9.17468245,45.1440284 16.408682,39.8347018 27.4981082,36.6025375 C24.7525315,25.3827305 25.7335434,16.4632399 30.9312523,13.4623412 C36.1289612,10.4614426 44.3439727,14.0716067 52.6878222,22.0592493 C61.0316717,14.0716067 69.2466831,10.4614426 74.444392,13.4623412 C79.6421009,16.4632399 80.6231129,25.3827305 77.8775362,36.6025375 C88.9669623,39.8347018 96.2009619,45.1440284 96.2009619,51.1458256 C96.2009619,57.1476229 88.9669623,62.4569495 77.8775362,65.6891138 Z"/>
    <path fill="#FFF" d="M72.8775362,57.6891138 C75.6231129,68.9089207 74.6421009,77.8284114 69.444392,80.82931 C64.2466831,83.8302087 56.0316717,80.2200446 47.6878222,72.2324019 C39.3439727,80.2200446 31.1289612,83.8302087 25.9312523,80.82931 C20.7335434,77.8284114 19.7525315,68.9089207 22.4981082,57.6891138 C11.408682,54.4569495 4.17468245,49.1476229 4.17468245,43.1458256 C4.17468245,37.1440284 11.408682,31.8347018 22.4981082,28.6025375 C19.7525315,17.3827305 20.7335434,8.46323986 25.9312523,5.46234123 C31.1289612,2.4614426 39.3439727,6.07160669 47.6878222,14.0592493 C56.0316717,6.07160669 64.2466831,2.4614426 69.444392,5.46234123 C74.6421009,8.46323986 75.6231129,17.3827305 72.8775362,28.6025375 C83.9669623,31.8347018 91.2009619,37.1440284 91.2009619,43.1458256 C91.2009619,49.1476229 83.9669623,54.4569495 72.8775362,57.6891138 Z"/>
    <path fill="#FFF" d="M0,43.3436127 C0,50.6515086 7.07954251,57.4733524 18.2404905,61.3187927 C16.0116967,72.6284414 17.8412923,81.7443902 23.9515152,85.2962216 C30.2319066,88.9473171 39.5885391,86.4200744 48.4693786,78.59494 C57.1260936,86.1040264 65.8748732,89.0591319 71.9798137,85.4970318 C78.2545455,81.8356676 80.1626223,72.1016948 77.8723264,60.4387265 C89.4973706,56.564762 96,50.7477301 96,43.3436127 C96,36.2053406 88.9076288,30.030045 77.8968518,26.2093256 C80.3625988,14.0644888 78.2734112,5.16988764 71.9100106,1.4712518 C65.7752624,-2.0946515 56.9246079,1.01334357 48.1407381,8.71867642 C39.0021931,0.540222442 30.2390756,-1.95659445 23.8824667,1.75231009 C17.7533781,5.3284821 16.0045278,14.6102515 18.2404905,26.1290776 C7.45610187,29.9189908 0,36.2342451 0,43.3436127 Z"/>
    <path fill="#53C1DE" d="M74.8873675,29.9570458 C73.9826441,29.6410694 73.0702448,29.3483534 72.1510383,29.0791765 C72.3034757,28.4485069 72.4444418,27.8150202 72.5738639,27.1790413 C74.6451079,16.9418287 73.2908619,8.69475959 68.666112,5.97995253 C64.232085,3.37621968 56.9800979,6.09102674 49.6558843,12.5804421 C48.9341777,13.2213569 48.2284907,13.8807353 47.5394988,14.5579462 C47.0780997,14.1076411 46.6085472,13.6660772 46.131083,13.2334819 C38.4551417,6.29402445 30.7611438,3.37009144 26.1412841,6.09294182 C21.7113951,8.70395194 20.3992813,16.4573153 22.2640027,26.1590736 C22.4495295,27.1198307 22.6590036,28.0756328 22.8922224,29.0255544 C21.8035591,29.3403924 20.7521376,29.6759131 19.7462338,30.0328827 C10.7472694,33.227224 5,38.23399 5,43.4269012 C5,48.7906368 11.1693427,54.1704591 20.5429818,57.4322109 C21.3030455,57.6954684 22.0694356,57.9393968 22.8414382,58.1637687 C22.59064,59.1871606 22.3679803,60.2174889 22.1737197,61.253547 C20.3958957,70.7867789 21.7843739,78.3562953 26.2026014,80.9512188 C30.7660341,83.6304055 38.4250474,80.876531 45.8831808,74.238889 C46.472654,73.714159 47.0643842,73.1576389 47.6568668,72.5743078 C48.4031398,73.3074204 49.1693387,74.0192102 49.9545708,74.7088478 C57.1787206,81.0381631 64.3133398,83.5940191 68.7278054,80.9922014 C73.2871001,78.3049713 74.7684948,70.1731896 72.8447131,60.279541 C72.6980032,59.5238533 72.5268415,58.752079 72.33499,57.9661332 C72.8729266,57.804501 73.4007063,57.6375067 73.915696,57.4636181 C83.660248,54.1765873 90,48.8622605 90,43.4269012 C90,38.2152223 84.0676503,33.174751 74.8873675,29.9570458 Z"/>
    <path fill="#FFF" fill-rule="nonzero" d="M72.358719,54.8617597 C71.892573,55.0170138 71.4139713,55.1669536 70.9263109,55.3123382 C69.8468149,51.8758702 68.3898728,48.221515 66.6075722,44.4464487 C68.3087219,40.7605872 69.7090471,37.1533016 70.7583474,33.7388501 C71.6306254,33.9931783 72.4776145,34.2607924 73.2936531,34.5435902 C81.1860519,37.275531 86,41.3155542 86,44.4282282 C86,47.7439852 80.8006794,52.0485856 72.3590965,54.8617597 L72.358719,54.8617597 Z M68.8560188,61.842121 C69.7094245,66.1778481 69.8313396,70.0979194 69.2659253,73.162385 C68.7578828,75.9159627 67.7365136,77.7516812 66.4735788,78.4869555 C63.7857848,80.0516436 58.0376575,78.0177769 51.839237,72.6533489 C51.1285059,72.038406 50.4124906,71.3817077 49.694588,70.6870499 C52.0977876,68.0435546 54.4994774,64.9703584 56.8434179,61.5578048 C60.9666396,61.1899778 64.8618837,60.5883207 68.3944022,59.767258 C68.5680274,60.4733036 68.7227803,61.1653042 68.8560188,61.842121 Z M33.4326984,78.2166843 C30.8068056,79.1493477 28.7153766,79.1759194 27.4513094,78.4429226 C24.7608734,76.8827896 23.6428779,70.8586266 25.1681377,62.7789599 C25.3495157,61.8241132 25.5571909,60.874509 25.7909239,59.9312428 C29.2841879,60.7082725 33.1511236,61.2674151 37.2841589,61.6044949 C39.6435747,64.9437868 42.1147146,68.013187 44.6051042,70.7010949 C44.0758301,71.2160009 43.5340307,71.7177236 42.9801986,72.2058071 C39.6711283,75.1150185 36.3552639,77.1784937 33.4330759,78.2166843 L33.4326984,78.2166843 Z M21.1305964,54.8412616 C16.9718948,53.4117091 13.5375123,51.5539741 11.1833808,49.5269401 C9.06817258,47.704887 8,45.8961197 8,44.4282282 C8,41.3053051 12.6301318,37.321462 20.3523024,34.6138152 C21.3215461,34.2754513 22.3004316,33.9656961 23.2877011,33.6849477 C24.3551188,37.1760773 25.7550665,40.826257 27.4445154,44.5174329 C25.7331746,48.2636499 24.3132222,51.9719076 23.2359909,55.5040334 C22.528899,55.3004919 21.8268887,55.0795013 21.1305964,54.8412616 Z M25.2545729,26.6108266 C23.6515591,18.3724894 24.7159573,12.1581496 27.3946925,10.5987759 C30.2481854,8.9376708 36.5571976,11.3063398 43.2070437,17.2443349 C43.6320481,17.6239293 44.0589397,18.0213646 44.4865861,18.4324654 C42.0090297,21.1082262 39.5605366,24.1544712 37.2215028,27.4744038 C33.2103827,27.8483043 29.3706231,28.4488226 25.8407468,29.2531831 C25.6233089,28.3773638 25.4278555,27.496172 25.2545729,26.610447 L25.2545729,26.6108266 Z M62.043116,35.7465248 C61.2093666,34.2981559 60.3446885,32.8680185 59.4496835,31.4571082 C62.1710702,31.8025391 64.7780907,32.2618483 67.2262064,32.8240276 C66.4913187,35.1930762 65.575257,37.6703092 64.4965159,40.2097957 C63.7083393,38.7057629 62.8903763,37.2177093 62.043116,35.7465248 Z M47.0407642,21.0509075 C48.7211544,22.8816912 50.4041867,24.9261866 52.0596655,27.1441567 C48.7015313,26.9845677 45.3377941,26.9838076 41.9795889,27.1418791 C43.6365774,24.9444072 45.3339527,22.9029485 47.0407642,21.0509075 Z M31.9421636,35.7715781 C31.1055113,37.2310623 30.3028422,38.7099851 29.5348121,40.2071385 C28.473811,37.6763827 27.5660531,35.1881415 26.8247489,32.785309 C29.2581441,32.2375542 31.8530863,31.7900125 34.5567331,31.4502755 C33.6516977,32.8699298 32.7799343,34.3107612 31.9421636,35.7715781 Z M34.634487,57.6677214 C31.8413855,57.3541765 29.2071889,56.9294103 26.7745485,56.3968394 C27.5275536,53.9514923 28.4553162,51.4097283 29.5389641,48.8246905 C30.3102319,50.3229536 31.1164281,51.8027686 31.956884,53.2629081 C32.8144837,54.7523711 33.7072717,56.2210595 34.634487,57.6677214 Z M47.1415423,68.0644323 C45.4147262,66.1903748 43.6924395,64.1177894 42.010162,61.8884315 C43.642994,61.9529625 45.3079089,61.9856077 47,61.9856077 C48.7385169,61.9856077 50.4570292,61.9465094 52.1483654,61.8705906 C50.4876023,64.140565 48.8106091,66.2161872 47.1415423,68.0644323 Z M64.5312409,48.6929712 C65.6711283,51.306099 66.6321061,53.8341977 67.3953022,56.238169 C64.9222751,56.8056626 62.2525986,57.2626942 59.4394925,57.6020516 C60.3409665,56.1647987 61.2139205,54.709652 62.0578364,53.2374753 C62.9157282,51.7412833 63.7404006,50.2260734 64.5312409,48.6929712 Z M58.9016317,51.4070711 C57.6097091,53.6641227 56.2451493,55.878328 54.8101156,58.046177 C52.2797166,58.2280028 49.6647698,58.3217626 47,58.3217626 C44.3461762,58.3217626 41.7644446,58.2386314 39.2782068,58.0765446 C37.8059541,55.9137431 36.4155808,53.6957056 35.1100691,51.4271896 C33.8106595,49.1707095 32.5969247,46.8654166 31.4714883,44.5162941 C32.5940622,42.1664679 33.8041293,39.85994 35.0991232,37.6016026 L35.0991232,37.6023618 C36.3937107,35.3435434 37.7731383,33.1349898 39.2344231,30.9814764 C41.7708612,30.7886425 44.3714651,30.6876703 47.0003774,30.6876703 C49.6409907,30.6876703 52.2449916,30.7894016 54.7806748,30.983754 C56.2271789,33.1339535 57.5977838,35.3348195 58.8899309,37.5822433 C60.1893779,39.8355564 61.415594,42.1307856 62.5666338,44.4642897 C61.4274342,46.8215684 60.205118,49.1372966 58.9020092,51.4070711 L58.9016317,51.4070711 Z M66.4177167,10.4898323 C69.2734742,12.1463822 70.3842982,18.8261047 68.5899193,27.5860046 C68.4723073,28.1566591 68.344458,28.7251311 68.206434,29.2911426 C64.6682539,28.4700799 60.8258522,27.8589329 56.8030312,27.4793385 C54.4594681,24.1233445 52.0313571,21.0717852 49.5938099,18.4305674 C50.2325481,17.8112773 50.8864866,17.2080422 51.55502,16.6214205 C57.8515766,11.1104691 63.7363394,8.93463404 66.4177167,10.4898323 Z"/>
    <path fill="#53C1DE" d="M47.5,37 C51.6423403,37 55,40.3579482 55,44.4998141 C55,48.6420518 51.6423403,52 47.5,52 C43.3580314,52 40,48.6420518 40,44.4998141 C40,40.3579482 43.3580314,37 47.5,37"/>
  </g>
</svg>
