<svg width="120" height="120" viewBox="0 0 120 120" fill="none" xmlns="http://www.w3.org/2000/svg">
<path d="M30.6553 37.2126L30.3789 37.3508V37.6598V41.3862H30.8789V50.7021H30.3789V58.1549H30.8789V67.4708H30.3789V74.9236H30.8789V84.2395H30.3789V87.9659V88.3044L30.6932 88.4301L31.9782 88.9441L32.1639 88.4799L35.3763 89.7648L35.1906 90.2291L36.4755 90.7431L36.6189 90.8004L36.7697 90.7669L39.0826 90.2529L38.9741 89.7648L44.7565 88.4799L44.8649 88.968L46.5694 88.5892V89.7648H47.0694V94.2622H46.5694V96.0611V96.3844L46.8642 96.5171L49.4341 97.6736L49.6393 97.2176L56.0641 100.109L55.8589 100.565L58.4288 101.721L58.5267 101.765H58.634H61.9749V101.265H70.3271V101.765H73.668H73.7753L73.8732 101.721L76.4431 100.565L76.2379 100.109L82.6627 97.2176L82.8679 97.6736L85.4378 96.5171L85.7327 96.3844V96.0611V94.2622H85.2327V89.7648H85.7327V88.5821L87.5711 88.9692L87.6741 88.4799L93.7776 89.7648L93.6746 90.2541L96.116 90.7681L96.2642 90.7993L96.4047 90.7431L97.6897 90.2291L97.504 89.7648L100.716 88.4799L100.902 88.9441L102.187 88.4301L102.501 88.3044V87.9659V84.2395H102.001V74.9236H102.501V67.4708H102.001V58.1549H102.501V50.7021H102.001V41.3862H102.501V37.6598V37.3508L102.225 37.2126L100.94 36.5701L100.716 37.0173L97.504 35.4111L97.7276 34.9639L96.4427 34.3214L96.2741 34.2371L96.0918 34.2851L93.6504 34.9276L93.7776 35.4111L87.6741 37.0173L87.5468 36.5338L85.7327 37.0112V35.8608H85.2327V31.3635H85.7327V29.5645V29.2555L85.4563 29.1173L82.8863 27.8324L82.6627 28.2796L76.2379 25.0672L76.4615 24.62L73.8916 23.335L73.7861 23.2822H73.668H70.3271V23.7822H61.9749V23.2822H58.634H58.516L58.4104 23.335L55.8405 24.62L56.0641 25.0672L49.6393 28.2796L49.4157 27.8324L46.8458 29.1173L46.5694 29.2555V29.5645V31.3635H47.0694V35.8608H46.5694V37.002L44.8903 36.5355L44.7565 37.0173L38.9741 35.4111L39.108 34.9293L36.795 34.2869L36.6097 34.2354L36.4376 34.3214L35.1527 34.9639L35.3763 35.4111L32.1639 37.0173L31.9403 36.5701L30.6553 37.2126Z" fill="#F7F6FC" stroke="black" stroke-dasharray="8 10"/>
<path d="M52.625 78.1268L82.5483 85.247V29.2334L52.625 36.3536V78.1268Z" fill="#205B97"/>
<path d="M82.5459 29.2334L88.2455 32.0815V82.3989L82.5459 85.247V29.2334ZM52.6225 78.1268L22.6992 85.247V29.2334L52.6225 36.3536V78.1268Z" fill="#5193CE"/>
<path d="M22.6997 29.2334L17 32.0815V82.3989L22.6997 85.247V29.2334Z" fill="#205B97"/>
<path d="M60.2234 96.6395L71.6227 90.9433V23.6961L60.2234 18L56.7383 55.3424L60.2234 96.6395Z" fill="#5193CE"/>
<path d="M45.0166 96.6395L33.6172 90.9433V23.6961L45.0166 18L48.5016 55.3424L45.0166 96.6395Z" fill="#205B97"/>
<path d="M45.0195 18H60.376V96.4807H45.0195V18Z" fill="#2E73B7"/>
</svg>
