<svg xmlns="http://www.w3.org/2000/svg" width="87" height="74" viewBox="0 0 87 74">
  <g fill="none" fill-rule="evenodd">
    <path fill="#835DE1" fill-opacity=".04" stroke="#000" stroke-dasharray="5 9" stroke-linecap="round" stroke-linejoin="round" d="M69.254268,28.0604027 C66.7302959,16.4630872 62.9443378,9.69798658 57.8963935,7.76510067 C50.3244772,4.86577181 43.6990504,5.83221477 38.9666027,10.6644295 C34.2341549,15.4966443 31.3946863,22.261745 30.4481968,29.0268456 C29.5017072,35.7919463 29.5017072,35.7919463 26.6622386,37.7248322 C23.82277,39.6577181 16.2508536,46.4228188 16.2508536,55.1208054 C16.2508536,63.8187919 20.9833013,73.4832215 34.2341549,72.5167785 C47.4850085,71.5503356 49.3779876,68.6510067 51.2709667,67.6845638 C53.1639458,66.7181208 55.0569249,70.5838926 58.8428831,71.5503356 C62.6288412,72.5167785 74.9332053,75.4161074 80.6121426,68.6510067 C86.2910798,61.885906 86.2910798,57.0536913 85.3445903,50.2885906 C84.3981007,43.5234899 76.8261844,37.7248322 73.9867158,35.7919463 C72.0937367,34.5033557 70.5162541,31.9261745 69.254268,28.0604027 Z"/>
    <path fill="#764ABC" fill-rule="nonzero" d="M48.5026107,46.3500293 C51.0857745,46.0829608 53.045501,43.8590289 52.9563604,41.1899829 C52.8674932,38.5212099 50.6403449,36.3860278 47.9680404,36.3860278 L47.7900326,36.3860278 C45.028314,36.4750506 42.8905798,38.7880053 42.9797204,41.5458011 C43.068861,42.8803241 43.6031579,44.0368014 44.4048766,44.8374606 C41.376283,50.7981662 36.7442521,55.1572803 29.7962057,58.8047581 C25.0750341,61.2957584 20.1758548,62.1854404 15.2766754,61.5628269 C11.268082,61.0289631 8.1503478,59.2498721 6.19034793,56.3137577 C3.34003563,51.9546436 3.07288721,47.2394382 5.4780433,42.5245059 C7.1706213,39.1438235 9.84265237,36.6528231 11.5352304,35.4073229 C11.1789413,34.2508456 10.6443711,32.293709 10.3772226,30.8704363 C-2.53914366,40.2115511 -1.20285468,52.8443256 2.71659817,58.8047581 C5.6560511,63.2531681 11.624371,66.0109638 18.2161284,66.0109638 C19.9975736,66.0109638 21.7790187,65.8329182 23.5607374,65.3883503 C34.9628069,63.1641453 43.6034313,56.4027805 48.5026107,46.3500293 Z M64.1804221,35.3185732 C57.4103835,27.4007311 47.4337435,23.0416169 36.031674,23.0416169 L34.6065179,23.0416169 C33.8047992,21.4402986 32.1122212,20.3725709 30.2416353,20.3725709 L30.0633541,20.3725709 C27.3021824,20.4615938 25.1644482,22.7745485 25.2533154,25.5326173 C25.342456,28.2013903 27.5693308,30.3365724 30.2416353,30.3365724 L30.4196431,30.3365724 C32.3793696,30.2475496 34.0719476,29.0020494 34.7845257,27.3117082 L36.3879631,27.3117082 C43.1580017,27.3117082 49.5714778,29.2688448 55.3617899,33.0943682 C59.8155396,36.0302096 63.0224144,39.8557329 64.8038595,44.4816424 C66.3181563,48.218143 66.2290157,51.8656208 64.6255783,54.9795078 C62.131555,59.6944401 57.9449538,62.2744633 52.4220635,62.2744633 C48.8588997,62.2744633 45.4740171,61.2067356 43.6922985,60.4060764 C42.712572,61.2957584 40.9308534,62.7190312 39.683705,63.6089863 C43.5142907,65.3880772 47.4337435,66.366782 51.1749152,66.366782 C59.726399,66.366782 66.0510079,61.6515766 68.456164,56.9366443 C71.0393279,51.7765979 70.8610466,42.8803241 64.1804221,35.3185732 Z M18.9287064,47.8620517 C19.0178471,50.5310977 21.2447219,52.6660069 23.9170264,52.6660069 L24.0953076,52.6660069 C26.8567528,52.5772571 28.994487,50.2640293 28.9053464,47.5062336 C28.8164792,44.8371875 26.5893309,42.7022784 23.9170264,42.7022784 L23.7390186,42.7022784 C23.5607374,42.7022784 23.2933155,42.7022784 23.1155811,42.7910282 C19.4632767,36.7415729 17.9489799,30.1585268 18.4835502,23.0413439 C18.8395658,17.7035249 20.6212844,13.0773424 23.7390186,9.25181898 C26.3221825,5.96015942 31.3105025,4.35884104 34.6956585,4.27009131 C44.1377281,4.09204567 48.1460482,15.8351381 48.41347,20.5503435 C49.5714778,20.8171389 51.5312042,21.4400255 52.8674932,21.8848665 C51.7983526,7.47300113 42.8905798,0 34.3393694,0 C26.3221825,0 18.9287064,5.78265994 15.9889801,14.3231156 C11.8915194,25.7103899 14.5638239,36.6528231 19.5521439,45.2823016 C19.1069877,45.9049152 18.8395658,46.88362 18.9287064,47.8623248 L18.9287064,47.8620517 Z"/>
  </g>
</svg>
