<svg id="Слой_1" data-name="Слой 1" xmlns="http://www.w3.org/2000/svg" xmlns:xlink="http://www.w3.org/1999/xlink" width="724.66" height="684.54" viewBox="0 0 724.66 684.54"><defs><mask id="mask" x="560" y="449.4" width="48.07" height="86.44" maskUnits="userSpaceOnUse"><g id="mask0"><path d="M564.45,449.4l43.61,2.31-4.45,84.13L560,533.53Z" style="fill:#fff"/></g></mask><mask id="mask-2" x="549.93" y="453.85" width="48.08" height="86.75" maskUnits="userSpaceOnUse"><g id="mask1"><path d="M554.39,453.85,598,456.16l-4.47,84.44-43.61-2.31Z" style="fill:#fff"/></g></mask></defs><title>result-main-bg_ok</title><path d="M372.31,110.73c128.77,76.87,224.1,31.13,261.53,184,33.2,135.53-63,257.82-239.1,304.38C129.49,669.25,28.9,416.72,42.17,285.61c6.64-65.55,40.17-189.85,113-226.29s154.41,14,217.16,51.41" style="fill:none;stroke:#e0e0e0;opacity:0.6000000238418579;isolation:isolate"/><path d="M400,78.37c155.65,93.34,270.64,38.18,316.19,223.31,40.38,164.14-75.46,312-288,367.94C108.15,753.93-13.88,448,1.83,289.34,9.69,210,49.88,59.6,137.71,15.65S324.17,32.89,400,78.37" style="fill:none;stroke:#e0e0e0;opacity:0.30000001192092896;isolation:isolate"/><path d="M345.75,144c102.28,61.1,178,24.78,207.74,146.23C579.88,397.9,503.52,495,363.67,532,153,587.65,73.1,387,83.61,282.85c5.25-52.08,31.85-150.83,89.67-179.76S295.91,114.21,345.75,144" style="fill:none;stroke:#e0e0e0"/><path d="M315.21,175.82c71.94,42.42,125.5,16.71,146,101.66,18.21,75.33-36.05,143.64-134.88,170C177.52,487.26,121.87,347,129.69,274c3.9-36.5,23.05-105.76,64-126.23S280.15,155.15,315.21,175.82Z" style="fill:#9595ef"/><path d="M373.06,222.07v60.47c0,13.15-7.91,23.81-17.64,23.78l-83.19,2.86" style="fill:none;stroke:#000;stroke-linecap:round;stroke-linejoin:round;stroke-width:2px;stroke-dasharray:4,8"/><path d="M303.4,144.47c1.19-45.22,26.62-103.25,69.46-123C412.36,3.24,442.72,43,443.09,78.52c.08,29.06-8.18,57.36-22.32,82.49A106.31,106.31,0,0,0,407,212.7c0,5,0,7.42.09,12.36.16,23.5-13.77,47.07-31.46,55.31S348.16,269.21,344,255c0-4.91-2-6.72-2-11.65-.12-16.95-5.24-31.08-15.06-38.15C315.24,196.86,303,183,303.4,144.47Z" style="fill:#9595ef"/><path d="M303.4,144.47c1.19-45.22,26.62-103.25,69.46-123C412.36,3.24,442.72,43,443.09,78.52c.08,29.06-8.18,57.36-22.32,82.49A106.31,106.31,0,0,0,407,212.7c0,5,0,7.42.09,12.36.16,23.5-13.77,47.07-31.46,55.31S348.16,269.21,344,255c0-4.91-2-6.72-2-11.65-.12-16.95-5.24-31.08-15.06-38.15C315.24,196.86,303,183,303.4,144.47Z" style="fill:none;stroke:#000;stroke-linejoin:round;stroke-width:2px"/><path d="M376.45,251,388,297.37s-39-21.22-40.25-23.24c-8-13.2-6.58-41.14-6.58-41.14" style="fill:#9595ef"/><path d="M376.45,251,388,297.37s-39-21.22-40.25-23.24c-8-13.2-6.58-41.14-6.58-41.14" style="fill:none;stroke:#000;stroke-linecap:round;stroke-linejoin:round;stroke-width:2px"/><path d="M335.9,160.43c1.2-45.21,26.62-103.24,69.47-123C444.86,19.2,475.23,59,475.59,94.48c.08,29.07-8.18,57.36-22.31,82.49a106.35,106.35,0,0,0-13.73,51.7c0,4.94.05,7.41.08,12.36.17,23.5-13.77,47.06-31.46,55.31s-33.44-.94-33.64-24.7c0-4.91-.07-7.37-.1-12.29-.13-17-5.25-31.08-15.07-38.15C347.74,212.83,335.46,198.92,335.9,160.43Z" style="fill:#fff"/><path d="M335.9,160.43c1.2-45.21,26.62-103.24,69.47-123C444.86,19.2,475.23,59,475.59,94.48c.08,29.07-8.18,57.36-22.31,82.49a106.35,106.35,0,0,0-13.73,51.7c0,4.94.05,7.41.08,12.36.17,23.5-13.77,47.06-31.46,55.31s-33.44-.94-33.64-24.7c0-4.91-.07-7.37-.1-12.29-.13-17-5.25-31.08-15.07-38.15C347.74,212.83,335.46,198.92,335.9,160.43Z" style="fill:none;stroke:#000;stroke-linejoin:round;stroke-width:2px"/><path d="M439,220.37c-23.09,10.84-42.32,17.95-65.18,29.27Z" style="fill:#fff"/><path d="M439,220.37c-23.09,10.84-42.32,17.95-65.18,29.27" style="fill:none;stroke:#000;stroke-linecap:round;stroke-linejoin:round;stroke-width:2px"/><path d="M439.69,249c-21.7,10.22-43.61,20-65.09,30.69Z" style="fill:#fff"/><path d="M439.69,249c-21.7,10.22-43.61,20-65.09,30.69" style="fill:none;stroke:#000;stroke-linejoin:round;stroke-width:2px"/><path d="M360.84,79.22c31.15-50.88,79-43.77,79-43.77s-25.56-12.18-34.08-16.89c0,0-36.41-13.81-74.7,40.94" style="fill:#9595ef"/><path d="M360.84,79.22c31.15-50.88,79-43.77,79-43.77s-25.56-12.18-34.08-16.89c0,0-36.41-13.81-74.7,40.94" style="fill:none;stroke:#000;stroke-linecap:round;stroke-linejoin:round;stroke-width:2px"/><path d="M146.26,285l82.93,164.75" style="fill:none;stroke:#000;stroke-linecap:round;stroke-linejoin:round;stroke-width:2px;stroke-dasharray:4,8"/><path d="M152.38,303.62,46.64,186" style="fill:none;stroke:#000;stroke-linecap:round;stroke-linejoin:round;stroke-width:2px;stroke-dasharray:4,8"/><path d="M60.42,186.38c29.47-11.82,59.67-21.77,90.07-30.9,7.9-1.87,19,4.9,26.9,16.46C209,217.83,241,263.46,272.9,309.18c7.21,10.36,9.86,22.66,6.75,30.78Q259.73,392.22,240,444.57c-3,7.93-11,9.79-20.23,4.52-35.44-20.41-70.71-41.12-106-61.75-8.58-5-16.31-15.18-19.77-26Q73.37,286.95,54.13,212.21C50.46,199.63,53,188.84,60.42,186.38Z" style="fill:none;stroke:#000;stroke-linecap:round;stroke-linejoin:round;stroke-width:2px;stroke-dasharray:8,9"/><path d="M158.45,297.05V164" style="fill:none;stroke:#000;stroke-linecap:round;stroke-linejoin:round;stroke-width:2px;stroke-dasharray:4,8"/><path d="M270,321,152.38,303.62,92.5,379.28" style="fill:none;stroke:#000;stroke-linecap:round;stroke-linejoin:round;stroke-width:2px;stroke-dasharray:4,8"/><path d="M257.41,449.74c.52,20.34-16.1,30.66-32.17,21.3-18.67-10.87-31.92-35.37-31.87-56.86,0-19.54,15.63-29.94,33.47-19.23C245.73,406.31,256.86,427.59,257.41,449.74Z" style="fill:#fff"/><path d="M257.41,449.74c.52,20.34-16.1,30.66-32.17,21.3-18.67-10.87-31.92-35.37-31.87-56.86,0-19.54,15.63-29.94,33.47-19.23C245.73,406.31,256.86,427.59,257.41,449.74Z" style="fill:none;stroke:#000;stroke-linejoin:round;stroke-width:2px"/><path d="M212.22,398.52H194.1s9.38-7.41,14.76-7.58" style="fill:#fff"/><path d="M212.22,398.52H194.1s9.38-7.41,14.76-7.58" style="fill:none;stroke:#000;stroke-linecap:round;stroke-linejoin:round;stroke-width:2px"/><path d="M250.36,458.1l-8.11,18.64s11.86-7.84,14.32-18.64" style="fill:#fff"/><path d="M250.36,458.1l-8.11,18.64s11.86-7.84,14.32-18.64" style="fill:none;stroke:#000;stroke-linecap:round;stroke-linejoin:round;stroke-width:2px"/><path d="M250.36,458.1c.51,20.34-18.57,28-34.63,18.64-18.67-10.88-31.92-35.38-31.87-56.87,0-19.54,14.64-29.94,32.48-19.23C235.23,412,249.8,436,250.36,458.1Z" style="fill:#fff"/><path d="M250.36,458.1c.51,20.34-18.57,28-34.63,18.64-18.67-10.88-31.92-35.38-31.87-56.87,0-19.54,14.64-29.94,32.48-19.23C235.23,412,249.8,436,250.36,458.1Z" style="fill:none;stroke:#000;stroke-linecap:round;stroke-linejoin:round;stroke-width:2px"/><path d="M191.71,308.56c.51,20.34-16.11,30.67-32.18,21.31C140.86,319,127.61,294.5,127.66,273c0-19.55,15.64-29.95,33.47-19.23C180,265.13,191.15,286.42,191.71,308.56Z" style="fill:#fff"/><path d="M191.71,308.56c.51,20.34-16.11,30.67-32.18,21.31C140.86,319,127.61,294.5,127.66,273c0-19.55,15.64-29.95,33.47-19.23C180,265.13,191.15,286.42,191.71,308.56Z" style="fill:none;stroke:#000;stroke-linejoin:round;stroke-width:2px"/><path d="M146.51,257.34H128.39s9.38-7.41,14.76-7.57" style="fill:#fff"/><path d="M146.51,257.34H128.39s9.38-7.41,14.76-7.57" style="fill:none;stroke:#000;stroke-linecap:round;stroke-linejoin:round;stroke-width:2px"/><path d="M184.65,316.93l-8.11,18.64s11.86-7.85,14.32-18.64" style="fill:#fff"/><path d="M184.65,316.93l-8.11,18.64s11.86-7.85,14.32-18.64" style="fill:none;stroke:#000;stroke-linecap:round;stroke-linejoin:round;stroke-width:2px"/><path d="M184.65,316.93c.51,20.34-18.57,28-34.63,18.63-18.67-10.87-31.92-35.37-31.87-56.86,0-19.54,14.64-29.94,32.48-19.23C169.52,270.82,184.09,294.78,184.65,316.93Z" style="fill:#9595ef"/><path d="M184.65,316.93c.51,20.34-18.57,28-34.63,18.63-18.67-10.87-31.92-35.37-31.87-56.86,0-19.54,14.64-29.94,32.48-19.23C169.52,270.82,184.09,294.78,184.65,316.93Z" style="fill:none;stroke:#000;stroke-linecap:round;stroke-linejoin:round;stroke-width:2px"/><path d="M129.28,378.56c.51,20.34-16.11,30.66-32.18,21.31C78.43,389,65.18,364.49,65.24,343c.05-19.54,15.63-29.94,33.46-19.22C117.6,335.13,128.72,356.42,129.28,378.56Z" style="fill:#fff"/><path d="M129.28,378.56c.51,20.34-16.11,30.66-32.18,21.31C78.43,389,65.18,364.49,65.24,343c.05-19.54,15.63-29.94,33.46-19.22C117.6,335.13,128.72,356.42,129.28,378.56Z" style="fill:none;stroke:#000;stroke-linejoin:round;stroke-width:2px"/><path d="M84.08,327.34H66s9.38-7.41,14.76-7.57" style="fill:#fff"/><path d="M84.08,327.34H66s9.38-7.41,14.76-7.57" style="fill:none;stroke:#000;stroke-linecap:round;stroke-linejoin:round;stroke-width:2px"/><path d="M122.22,386.92l-8.11,18.65s11.86-7.85,14.32-18.65" style="fill:#fff"/><path d="M122.22,386.92l-8.11,18.65s11.86-7.85,14.32-18.65" style="fill:none;stroke:#000;stroke-linecap:round;stroke-linejoin:round;stroke-width:2px"/><path d="M122.22,386.92c.52,20.34-18.57,28-34.63,18.64-18.67-10.87-31.92-35.37-31.87-56.86.05-19.54,14.64-29.94,32.48-19.23C107.09,340.83,121.67,364.78,122.22,386.92Z" style="fill:#fff"/><path d="M122.22,386.92c.52,20.34-18.57,28-34.63,18.64-18.67-10.87-31.92-35.37-31.87-56.86.05-19.54,14.64-29.94,32.48-19.23C107.09,340.83,121.67,364.78,122.22,386.92Z" style="fill:none;stroke:#000;stroke-linecap:round;stroke-linejoin:round;stroke-width:2px"/><path d="M94.15,215.18C94.66,235.52,78,245.84,62,236.49c-18.67-10.87-31.91-35.37-31.86-56.87.05-19.54,15.63-29.93,33.46-19.22C82.47,171.75,93.59,193,94.15,215.18Z" style="fill:#fff"/><path d="M94.15,215.18C94.66,235.52,78,245.84,62,236.49c-18.67-10.87-31.91-35.37-31.86-56.87.05-19.54,15.63-29.93,33.46-19.22C82.47,171.75,93.59,193,94.15,215.18Z" style="fill:none;stroke:#000;stroke-linejoin:round;stroke-width:2px"/><path d="M49,164H30.83s9.38-7.41,14.76-7.57" style="fill:#fff"/><path d="M49,164H30.83s9.38-7.41,14.76-7.57" style="fill:none;stroke:#000;stroke-linecap:round;stroke-linejoin:round;stroke-width:2px"/><path d="M87.1,223.54,79,242.19s11.87-7.85,14.32-18.65" style="fill:#fff"/><path d="M87.1,223.54,79,242.19s11.87-7.85,14.32-18.65" style="fill:none;stroke:#000;stroke-linecap:round;stroke-linejoin:round;stroke-width:2px"/><path d="M87.1,223.54c.51,20.34-18.58,28-34.64,18.64-18.67-10.87-31.92-35.37-31.87-56.86.05-19.55,14.65-29.94,32.48-19.23C72,177.45,86.54,201.4,87.1,223.54Z" style="fill:#fff"/><path d="M87.1,223.54c.51,20.34-18.58,28-34.64,18.64-18.67-10.87-31.92-35.37-31.87-56.86.05-19.55,14.65-29.94,32.48-19.23C72,177.45,86.54,201.4,87.1,223.54Z" style="fill:none;stroke:#000;stroke-linecap:round;stroke-linejoin:round;stroke-width:2px"/><path d="M195.22,174.24c.51,20.34-16.11,30.66-32.17,21.3-18.67-10.87-31.92-35.37-31.87-56.86,0-19.55,15.63-29.94,33.46-19.23C183.54,130.81,194.66,152.09,195.22,174.24Z" style="fill:#fff"/><path d="M195.22,174.24c.51,20.34-16.11,30.66-32.17,21.3-18.67-10.87-31.92-35.37-31.87-56.86,0-19.55,15.63-29.94,33.46-19.23C183.54,130.81,194.66,152.09,195.22,174.24Z" style="fill:none;stroke:#000;stroke-linejoin:round;stroke-width:2px"/><path d="M150,123H131.9s9.38-7.41,14.76-7.58" style="fill:#fff"/><path d="M150,123H131.9s9.38-7.41,14.76-7.58" style="fill:none;stroke:#000;stroke-linecap:round;stroke-linejoin:round;stroke-width:2px"/><path d="M188.17,182.6l-8.12,18.65s11.87-7.85,14.32-18.65" style="fill:#fff"/><path d="M188.17,182.6l-8.12,18.65s11.87-7.85,14.32-18.65" style="fill:none;stroke:#000;stroke-linecap:round;stroke-linejoin:round;stroke-width:2px"/><path d="M188.17,182.6c.51,20.34-18.58,28-34.64,18.64-18.67-10.87-31.92-35.38-31.87-56.87,0-19.54,14.65-29.94,32.48-19.22C173,136.5,187.61,160.45,188.17,182.6Z" style="fill:#fff"/><path d="M188.17,182.6c.51,20.34-18.58,28-34.64,18.64-18.67-10.87-31.92-35.38-31.87-56.87,0-19.54,14.65-29.94,32.48-19.22C173,136.5,187.61,160.45,188.17,182.6Z" style="fill:none;stroke:#000;stroke-linecap:round;stroke-linejoin:round;stroke-width:2px"/><path d="M306.79,337.62c.52,20.34-16.1,30.66-32.17,21.3-18.67-10.87-31.92-35.37-31.87-56.86.05-19.55,15.63-29.94,33.46-19.23C295.11,294.19,306.23,315.47,306.79,337.62Z" style="fill:#fff"/><path d="M306.79,337.62c.52,20.34-16.1,30.66-32.17,21.3-18.67-10.87-31.92-35.37-31.87-56.86.05-19.55,15.63-29.94,33.46-19.23C295.11,294.19,306.23,315.47,306.79,337.62Z" style="fill:none;stroke:#000;stroke-linejoin:round;stroke-width:2px"/><path d="M261.6,286.4H243.48s9.37-7.41,14.75-7.58" style="fill:#fff"/><path d="M261.6,286.4H243.48s9.37-7.41,14.75-7.58" style="fill:none;stroke:#000;stroke-linecap:round;stroke-linejoin:round;stroke-width:2px"/><path d="M299.74,346l-8.12,18.64S303.49,356.78,306,346" style="fill:#fff"/><path d="M299.74,346l-8.12,18.64S303.49,356.78,306,346" style="fill:none;stroke:#000;stroke-linecap:round;stroke-linejoin:round;stroke-width:2px"/><path d="M299.74,346c.51,20.34-18.57,28-34.64,18.64-18.67-10.88-31.92-35.38-31.87-56.87.06-19.54,14.65-29.94,32.48-19.23C284.61,299.88,299.18,323.83,299.74,346Z" style="fill:#fff"/><path d="M299.74,346c.51,20.34-18.57,28-34.64,18.64-18.67-10.88-31.92-35.38-31.87-56.87.06-19.54,14.65-29.94,32.48-19.23C284.61,299.88,299.18,323.83,299.74,346Z" style="fill:none;stroke:#000;stroke-linecap:round;stroke-linejoin:round;stroke-width:2px"/><path d="M576.07,545.16c8.31.44,15.25-3,15.49-7.6s-6.29-8.75-14.6-9.19-15.25,3-15.49,7.6S567.76,544.72,576.07,545.16Z" style="fill:#9595ef;fill-opacity:0.07815329730510712"/><path d="M582.43,528.37a.84.84,0,0,1,.58,1,.82.82,0,0,1-1,.61,25.25,25.25,0,0,0-3.89-.7.83.83,0,0,1-.73-.92.81.81,0,0,1,.89-.75A26.12,26.12,0,0,1,582.43,528.37Zm8.9,7.27a.86.86,0,0,0,.34-1.14,9.75,9.75,0,0,0-3-3.34.81.81,0,0,0-1.14.21.86.86,0,0,0,.21,1.17,8.05,8.05,0,0,1,2.54,2.76A.81.81,0,0,0,591.33,535.64Zm-4.54,8.57a.79.79,0,0,1-1.07-.43.85.85,0,0,1,.42-1.1,10.48,10.48,0,0,0,3.16-2.14.79.79,0,0,1,1.15,0,.86.86,0,0,1,0,1.19A11.78,11.78,0,0,1,586.79,544.21ZM576,546a.82.82,0,0,1-.77-.88.83.83,0,0,1,.85-.8,26,26,0,0,0,4-.09.82.82,0,0,1,.88.76.83.83,0,0,1-.73.92A27.75,27.75,0,0,1,576,546Zm-3.57-17.5a.82.82,0,0,0-.93-.71,22.06,22.06,0,0,0-4.11,1,.86.86,0,0,0-.5,1.08.81.81,0,0,0,1,.51,19.66,19.66,0,0,1,3.81-1A.84.84,0,0,0,572.46,528.5Zm-10.77,4.4a.8.8,0,0,1,1.13-.22.85.85,0,0,1,.21,1.17,4.35,4.35,0,0,0-.75,2.12,4.1,4.1,0,0,0,.13,1.27.84.84,0,0,1-.58,1,.8.8,0,0,1-1-.59,5.42,5.42,0,0,1-.18-1.81A6,6,0,0,1,561.69,532.9Zm3.56,9.06a.85.85,0,0,0,.3,1.15,19.31,19.31,0,0,0,3.9,1.72.81.81,0,0,0,1-.56.84.84,0,0,0-.53-1,18.07,18.07,0,0,1-3.58-1.57A.8.8,0,0,0,565.25,542Z"/><path d="M605.15,492.14c.38-14.08-6.32-32.53-18.9-39.35-11.6-6.3-21.4,5.59-22.09,16.62a53.62,53.62,0,0,0,5.36,26,33.87,33.87,0,0,1,3.29,16.29c-.09,1.54-.14,2.31-.23,3.84-.44,7.31,3.37,14.86,8.57,17.7s8.46-3,10-7.37c.1-1.53.71-2.06.81-3.59.31-5.27,2.09-9.58,5.16-11.62C600.72,508.24,604.65,504.11,605.15,492.14Z" style="fill:#9595ef"/><g style="mask:url(#mask)"><path d="M580.38,451.85a11.25,11.25,0,0,0-6.35,1.59c-4.95,2.87-8.69,9.46-9.1,16a52.83,52.83,0,0,0,5.28,25.6,34.56,34.56,0,0,1,3.37,16.69l-.23,3.84c-.41,6.89,3.09,14.17,8.16,16.95a4.12,4.12,0,0,0,3.68.38c1.95-.78,3.83-3.41,5.16-7.22a7.12,7.12,0,0,1,.44-1.89,5.33,5.33,0,0,0,.36-1.58c.34-5.76,2.3-10.11,5.52-12.24,3.54-2.35,7.22-6.31,7.71-17.88.49-18.29-9.16-33.55-18.49-38.62A13,13,0,0,0,580.38,451.85Zm3.14,82.93a6.59,6.59,0,0,1-2.74-.83c-5.56-3.05-9.42-11-9-18.45l.23-3.84a33,33,0,0,0-3.21-15.89,54.51,54.51,0,0,1-5.44-26.41c.45-7.18,4.43-14.14,9.89-17.31a13,13,0,0,1,13.33,0c13.06,7.09,19.69,25.94,19.31,40.08h0c-.52,12.3-4.55,16.58-8.42,19.16-2.75,1.82-4.5,5.83-4.81,11a7.33,7.33,0,0,1-.45,2,5.48,5.48,0,0,0-.36,1.58.78.78,0,0,1,0,.21c-.87,2.53-2.83,7-6.1,8.27A5.16,5.16,0,0,1,583.52,534.78Z"/></g><path d="M572.43,518c6.37,3.52,12.81,6.91,19.1,10.58Z" style="fill:#9595ef"/><path d="M591.91,527.89l-.76,1.39c-4.26-2.48-8.66-4.88-12.92-7.2-2.06-1.12-4.12-2.24-6.16-3.37l.73-1.4c2,1.13,4.1,2.25,6.15,3.36"/><path d="M581.39,524.1l-4.24,14.23s12.11-6,12.51-6.58c2.62-4,2.74-13.11,2.74-13.11" style="fill:#9595ef"/><path d="M577.11,539.13a.76.76,0,0,1-.46-.2.8.8,0,0,1-.23-.83L581.7,522a.78.78,0,0,1,1-.53.79.79,0,0,1,.51,1l-4.76,14.4c5-2.47,10-5.05,10.66-5.6,2.41-3.77,2.38-11.66,2.39-11.74.28-1.45.44-1.23.86-1.23a.77.77,0,0,1,.77.8c0,.37-.08,9-2.79,13.13-.14.22-.52.79-12.81,6.86A.84.84,0,0,1,577.11,539.13Z"/><path d="M595.09,496.58c.39-14.07-6.32-32.52-18.89-39.35-11.6-6.29-21.4,5.59-22.09,16.62a53.52,53.52,0,0,0,5.36,26,34.08,34.08,0,0,1,3.29,16.29c-.1,1.54-.14,2.3-.23,3.84-.44,7.3,3.37,14.85,8.56,17.7s10.09.24,10.54-7.14c.09-1.53.14-2.29.23-3.83.32-5.26,2.09-9.57,5.17-11.62C590.67,512.69,594.59,508.56,595.09,496.58Z" style="fill:#fff"/><g style="mask:url(#mask-2)"><path d="M570.32,456.3a11.25,11.25,0,0,0-6.35,1.59c-4.94,2.87-8.68,9.45-9.09,16a52.81,52.81,0,0,0,5.28,25.6,34.58,34.58,0,0,1,3.36,16.69L563.3,520c-.42,6.89,3.09,14.17,8.15,17,2.26,1.23,4.43,1.36,6.13.38,1.91-1.11,3.08-3.55,3.28-6.87l.23-3.82c.35-5.76,2.31-10.11,5.52-12.25,3.54-2.35,7.23-6.31,7.71-17.87.5-18.3-9.15-33.56-18.49-38.62A12.78,12.78,0,0,0,570.32,456.3Zm4.38,83.3a9.25,9.25,0,0,1-4-1.21c-5.56-3-9.42-11-9-18.45l.23-3.84a33,33,0,0,0-3.21-15.89,54.49,54.49,0,0,1-5.44-26.4c.45-7.19,4.42-14.14,9.88-17.31a13,13,0,0,1,13.34,0c13.05,7.09,19.69,25.94,19.3,40.07v0c-.51,12.29-4.54,16.58-8.42,19.15-2.74,1.83-4.5,5.83-4.81,11l-.23,3.82c-.24,3.89-1.68,6.79-4.07,8.17A6.5,6.5,0,0,1,574.7,539.6Z"/></g><path d="M563.07,513.58c6.78,3.74,12.45,6.25,19.15,10.14Z" style="fill:#fff"/><path d="M582.18,524.51a.74.74,0,0,1-.34-.1c-3.74-2.17-7.09-3.87-10.64-5.68-2.71-1.38-5.51-2.8-8.49-4.45a.81.81,0,0,1-.32-1.08.78.78,0,0,1,1.05-.33c3,1.64,5.75,3.06,8.44,4.43,3.57,1.82,6.94,3.54,10.72,5.72a.82.82,0,0,1,.29,1.09A.76.76,0,0,1,582.18,524.51Z"/><path d="M562.38,522.45c6.37,3.52,12.8,6.92,19.1,10.58Z" style="fill:#fff"/><path d="M581.1,533.73c-4.26-2.48-8.66-4.88-12.92-7.2-2.06-1.12-4.12-2.24-6.17-3.38l.73-1.4,6.16,3.37c4.27,2.33,8.68,4.73,13,7.22Z"/><path d="M588.92,470.94c-8.55-16.32-23.07-14.87-23.07-14.87s7.9-3.38,10.54-4.71c0,0,11.2-3.71,21.83,13.92" style="fill:#9595ef"/><path d="M588.88,471.73a.76.76,0,0,1-.64-.41c-8.21-15.67-22.18-14.47-22.31-14.46a.76.76,0,0,1-.82-.6.79.79,0,0,1,.45-.92c.08,0,7.91-3.39,10.5-4.69l.1,0c.48-.16,11.89-3.7,22.71,14.25a.8.8,0,0,1-.24,1.09.74.74,0,0,1-1.06-.25c-9.91-16.43-20-13.86-20.9-13.6-1.59.8-4.87,2.25-7.35,3.33,5,.66,14.18,3.49,20.28,15.13a.81.81,0,0,1-.32,1.08A.71.71,0,0,1,588.88,471.73Z"/><path d="M583.4,522.07l-.32,1.29,1.5.48.09-1.7Z" style="fill:#9595ef"/></svg>