<svg width="266" height="1279" viewBox="0 0 266 1279" fill="none" xmlns="http://www.w3.org/2000/svg">
<path opacity="0.35" d="M99.6351 502.86C115.134 690.533 48.7088 797.753 298.125 983.951C529.704 1156.83 751.568 1129.55 848.786 738.729C934.555 393.906 758.882 168.937 539.314 116.605C429.533 90.4378 233.522 107.916 148.365 185.6C63.2131 263.286 91.9519 409.82 99.6351 502.86" stroke="#979797"/>
<path d="M223.307 522.419C233.428 644.979 190.05 714.998 352.93 836.594C504.161 949.49 649.048 931.676 712.536 676.453C768.547 451.268 653.824 304.353 510.437 270.178C438.745 253.09 310.741 264.504 255.13 315.235C199.522 365.967 218.289 461.66 223.307 522.419" stroke="#979797"/>
<path opacity="0.16808" fill-rule="evenodd" clip-rule="evenodd" d="M273.769 1146.23C575.606 1371.55 864.781 1336 991.494 826.608C1103.28 377.17 874.314 83.9473 588.132 15.7385C445.045 -18.3673 189.566 4.41414 78.574 105.665C-32.4126 206.92 5.04526 397.911 15.0594 519.178C35.26 763.79 -51.3172 903.539 273.769 1146.23Z" stroke="#979797"/>
</svg>
