<svg width="140" height="140" viewBox="0 0 140 140" fill="none" xmlns="http://www.w3.org/2000/svg">
<g clip-path="url(#clip0)">
<path fill-rule="evenodd" clip-rule="evenodd" d="M136 77.6396L121.218 85.6886L91.8646 102.437L93.909 104.625L88.2984 107.854L93.3951 112.05L134.808 88.0463C135.533 87.6267 135.938 86.9098 136 86.1641V77.6396Z" fill="white"/>
<path fill-rule="evenodd" clip-rule="evenodd" d="M136 77.6396L121.218 85.6886L91.8646 102.437L93.909 104.625L88.2984 107.854L93.3951 112.05L134.808 88.0463C135.533 87.6267 135.938 86.9098 136 86.1641V77.6396Z" stroke="black" stroke-width="0.845037" stroke-linejoin="round"/>
<path fill-rule="evenodd" clip-rule="evenodd" d="M88.0042 98.7455L130.038 74.5571C131.555 73.6843 133.458 73.8482 134.804 74.9703L134.847 75.0063C136.133 76.0772 135.961 78.0992 134.513 78.9384L93.1009 102.941L88.0042 98.7455Z" fill="white"/>
<path fill-rule="evenodd" clip-rule="evenodd" d="M88.0042 98.7455L130.038 74.5571C131.555 73.6843 133.458 73.8482 134.804 74.9703L134.847 75.0063C136.133 76.0772 135.961 78.0992 134.513 78.9384L93.1009 102.941L88.0042 98.7455Z" stroke="black" stroke-width="0.845037" stroke-linejoin="round"/>
<path fill-rule="evenodd" clip-rule="evenodd" d="M97.34 118.88C91.4937 107.786 73.2587 99.6914 51.6565 99.6914C30.4108 99.6914 12.4187 107.521 6.26949 118.332L4.0005 116.845V126.521C4.0005 141.339 25.3365 153.35 51.6565 153.35C77.9757 153.35 99.3125 141.339 99.3125 126.521V116.845L97.34 118.88Z" fill="white"/>
<path fill-rule="evenodd" clip-rule="evenodd" d="M97.34 118.88C91.4937 107.786 73.2587 99.6914 51.6565 99.6914C30.4108 99.6914 12.4187 107.521 6.26949 118.332L4.00049 116.845V126.521C4.00049 141.339 25.3365 153.35 51.6565 153.35C77.9757 153.35 99.3125 141.339 99.3125 126.521V116.845L97.34 118.88Z" stroke="black" stroke-width="0.845037" stroke-linejoin="round"/>
<path fill-rule="evenodd" clip-rule="evenodd" d="M4.0005 116.845C4.0005 102.027 25.3365 90.0156 51.6565 90.0156C77.9765 90.0156 99.3125 102.027 99.3125 116.845C99.3125 131.662 77.9765 143.674 51.6565 143.674C25.3365 143.674 4.0005 131.662 4.0005 116.845Z" fill="white"/>
<path fill-rule="evenodd" clip-rule="evenodd" d="M4.00049 116.845C4.00049 102.027 25.3365 90.0156 51.6565 90.0156C77.9765 90.0156 99.3125 102.027 99.3125 116.845C99.3125 131.662 77.9765 143.674 51.6565 143.674C25.3365 143.674 4.00049 131.662 4.00049 116.845Z" stroke="black" stroke-width="0.845037" stroke-linejoin="round"/>
<path fill-rule="evenodd" clip-rule="evenodd" d="M91.8633 114.632C91.8633 115.023 91.8465 115.415 91.8073 115.798C90.7044 105.281 73.1535 96.9288 51.6536 96.9288C30.1634 96.9288 12.6044 105.281 11.5015 115.798C11.4608 115.415 11.4456 115.023 11.4456 114.632C11.4456 102.404 29.452 92.4932 51.6536 92.4932C73.864 92.4932 91.8633 102.404 91.8633 114.632Z" fill="#9595EF"/>
<path fill-rule="evenodd" clip-rule="evenodd" d="M11.4483 116.846C11.4483 105.844 29.45 96.9258 51.6572 96.9258C73.8636 96.9258 91.8652 105.844 91.8652 116.846C91.8652 127.847 73.8636 136.765 51.6572 136.765C29.45 136.765 11.4483 127.847 11.4483 116.846Z" fill="white"/>
<path fill-rule="evenodd" clip-rule="evenodd" d="M11.4483 116.846C11.4483 105.844 29.45 96.9258 51.6572 96.9258C73.8636 96.9258 91.8652 105.844 91.8652 116.846C91.8652 127.847 73.8636 136.765 51.6572 136.765C29.45 136.765 11.4483 127.847 11.4483 116.846Z" stroke="black" stroke-width="0.845037" stroke-linejoin="round"/>
<path fill-rule="evenodd" clip-rule="evenodd" d="M77.7412 101.422C62.2571 110.496 45.1298 120.295 29.6089 129.306L77.7412 101.422Z" fill="#9595EF"/>
<path d="M77.7412 101.422C62.2571 110.496 45.1298 120.295 29.6089 129.306" stroke="black" stroke-width="0.845037" stroke-linecap="round" stroke-linejoin="round"/>
<path d="M46.6936 131.648C46.5625 129.868 46.4259 128.944 46.0806 127.066C49.2743 125.215 50.8775 124.28 54.0312 122.44C52.8476 120.311 52.1787 119.201 50.8312 116.979" stroke="black" stroke-width="0.845037" stroke-linecap="round" stroke-linejoin="round"/>
<path d="M43.751 121.095C38.6567 120.435 36.0721 120.058 31.0937 119.322C29.9516 119.982 29.385 120.311 28.2669 120.96" stroke="black" stroke-width="0.845037" stroke-linecap="round" stroke-linejoin="round"/>
<path d="M64.7891 108.856C61.1446 108.194 59.2792 107.855 55.574 107.22C52.2237 109.143 50.4678 110.15 46.9313 112.18C40.2961 111.36 36.9458 110.947 30.7262 110.361C29.6041 110.989 29.0447 111.302 27.9377 111.924" stroke="black" stroke-width="0.845037" stroke-linecap="round" stroke-linejoin="round"/>
<path d="M59.1477 112.142C61.8699 115.752 63.2605 117.577 65.3721 120.788C63.2829 122.016 62.2159 122.643 60.054 123.908C60.8277 125.583 61.1578 126.387 61.6285 127.873" stroke="black" stroke-width="0.845037" stroke-linecap="round" stroke-linejoin="round"/>
<path d="M70.5293 105.506C62.9735 103.837 58.9198 102.951 51.4159 101.682C49.521 102.745 48.5443 103.291 46.5638 104.4" stroke="black" stroke-width="0.845037" stroke-linecap="round" stroke-linejoin="round"/>
<path d="M82.627 104.169C79.2606 106.141 75.6793 108.106 71.4011 110.618C73.3168 113.164 74.2255 114.412 75.6641 116.663" stroke="black" stroke-width="0.845037" stroke-linecap="round" stroke-linejoin="round"/>
<path fill-rule="evenodd" clip-rule="evenodd" d="M26.1385 122.446C28.3668 123.854 31.3838 123.651 32.8264 122.329C34.2682 121.007 34.3361 119.155 32.6466 117.899C30.9562 116.642 27.8481 116.615 25.9635 117.72C24.0797 118.825 23.9103 121.037 26.1385 122.446Z" fill="white"/>
<path fill-rule="evenodd" clip-rule="evenodd" d="M26.1385 122.446C28.3668 123.854 31.3838 123.651 32.8264 122.329C34.2682 121.007 34.3361 119.155 32.6466 117.899C30.9562 116.642 27.8481 116.615 25.9635 117.72C24.0797 118.825 23.9103 121.037 26.1385 122.446Z" stroke="black" stroke-width="0.845037" stroke-linejoin="round"/>
<path fill-rule="evenodd" clip-rule="evenodd" d="M26.6698 112.613C28.898 114.022 31.9159 113.819 33.3577 112.497C34.7995 111.176 34.8674 109.324 33.1778 108.067C31.4875 106.809 28.3793 106.783 26.4947 107.888C24.611 108.993 24.4415 111.204 26.6698 112.613Z" fill="white"/>
<path fill-rule="evenodd" clip-rule="evenodd" d="M26.6698 112.613C28.898 114.022 31.9159 113.819 33.3577 112.497C34.7995 111.176 34.8674 109.324 33.1778 108.067C31.4875 106.809 28.3793 106.783 26.4947 107.888C24.611 108.993 24.4415 111.204 26.6698 112.613Z" stroke="black" stroke-width="0.845037" stroke-linejoin="round"/>
<path fill-rule="evenodd" clip-rule="evenodd" d="M43.492 133.925C45.7203 135.334 48.7373 135.131 50.1799 133.81C51.6217 132.488 51.6897 130.636 50.0001 129.379C48.3097 128.122 45.2016 128.095 43.317 129.2C41.4332 130.305 41.2638 132.517 43.492 133.925Z" fill="white"/>
<path fill-rule="evenodd" clip-rule="evenodd" d="M43.492 133.925C45.7203 135.334 48.7373 135.131 50.1799 133.81C51.6217 132.488 51.6897 130.636 50.0001 129.379C48.3097 128.122 45.2016 128.095 43.317 129.2C41.4332 130.305 41.2638 132.517 43.492 133.925Z" stroke="black" stroke-width="0.845037" stroke-linejoin="round"/>
<path fill-rule="evenodd" clip-rule="evenodd" d="M27.6382 130.68C29.8665 132.089 32.8843 131.886 34.3261 130.563C35.7687 129.242 35.8358 127.39 34.1463 126.134C32.4567 124.876 29.3486 124.849 27.464 125.954C25.5802 127.059 25.4108 129.271 27.6382 130.68Z" fill="white"/>
<path fill-rule="evenodd" clip-rule="evenodd" d="M27.6382 130.68C29.8665 132.089 32.8843 131.886 34.3261 130.563C35.7687 129.242 35.8358 127.39 34.1463 126.134C32.4567 124.876 29.3486 124.849 27.464 125.954C25.5802 127.059 25.4108 129.271 27.6382 130.68Z" stroke="black" stroke-width="0.845037" stroke-linejoin="round"/>
<path fill-rule="evenodd" clip-rule="evenodd" d="M58.3895 130.149C60.6177 131.558 63.6356 131.354 65.0774 130.032C66.5192 128.711 66.5871 126.858 64.8976 125.602C63.2072 124.345 60.099 124.318 58.2145 125.423C56.3307 126.527 56.1613 128.74 58.3895 130.149Z" fill="white"/>
<path fill-rule="evenodd" clip-rule="evenodd" d="M58.3895 130.149C60.6177 131.558 63.6356 131.354 65.0774 130.032C66.5192 128.711 66.5871 126.858 64.8976 125.602C63.2072 124.345 60.099 124.318 58.2145 125.423C56.3307 126.527 56.1613 128.74 58.3895 130.149Z" stroke="black" stroke-width="0.845037" stroke-linejoin="round"/>
<path fill-rule="evenodd" clip-rule="evenodd" d="M73.0711 118.941C75.2994 120.35 78.3164 120.146 79.759 118.824C81.2008 117.503 81.2688 115.65 79.5792 114.394C77.8889 113.137 74.7807 113.11 72.8961 114.215C71.0123 115.319 70.8429 117.532 73.0711 118.941Z" fill="white"/>
<path fill-rule="evenodd" clip-rule="evenodd" d="M73.0711 118.941C75.2994 120.35 78.3164 120.146 79.759 118.824C81.2008 117.503 81.2688 115.65 79.5792 114.394C77.8889 113.137 74.7807 113.11 72.8961 114.215C71.0123 115.319 70.8429 117.532 73.0711 118.941Z" stroke="black" stroke-width="0.845037" stroke-linejoin="round"/>
<path fill-rule="evenodd" clip-rule="evenodd" d="M43.2909 106.445C45.5191 107.854 48.537 107.651 49.9788 106.329C51.4206 105.007 51.4885 103.155 49.7989 101.899C48.1086 100.642 45.0012 100.615 43.1166 101.72C41.2329 102.825 41.0626 105.037 43.2909 106.445Z" fill="white"/>
<path fill-rule="evenodd" clip-rule="evenodd" d="M43.2909 106.445C45.5191 107.854 48.537 107.651 49.9788 106.329C51.4206 105.007 51.4885 103.155 49.7989 101.899C48.1086 100.642 45.0012 100.615 43.1166 101.72C41.2329 102.825 41.0626 105.037 43.2909 106.445Z" stroke="black" stroke-width="0.845037" stroke-linejoin="round"/>
</g>
<defs>
<clipPath id="clip0">
<rect width="140" height="140" fill="white"/>
</clipPath>
</defs>
</svg>
