<svg xmlns="http://www.w3.org/2000/svg" xmlns:xlink="http://www.w3.org/1999/xlink" width="102" height="84" viewBox="0 0 102 84">
    <defs>
        <path id="a" d="M15 12h80a7 7 0 0 1 7 7v58a7 7 0 0 1-7 7H15a7 7 0 0 1-7-7V19a7 7 0 0 1 7-7z"/>
        <mask id="b" width="94" height="72" x="0" y="0" fill="#fff">
            <use xlink:href="#a"/>
        </mask>
    </defs>
    <g fill="none" fill-rule="evenodd">
        <use fill="#7F57E1" fill-opacity=".08" stroke="#000" stroke-dasharray="8" stroke-width="2" mask="url(#b)" xlink:href="#a"/>
        <path fill="#CD6799" d="M7 0h80a7 7 0 0 1 7 7v58a7 7 0 0 1-7 7H7a7 7 0 0 1-7-7V7a7 7 0 0 1 7-7z"/>
        <path fill="#FFF" fill-rule="nonzero" d="M75.474 39.897c-2.43.013-4.543.596-6.312 1.459-.649-1.281-1.298-2.422-1.412-3.26-.128-.976-.28-1.572-.128-2.738.153-1.167.84-2.828.828-2.955-.013-.126-.153-.722-1.553-.735-1.4-.013-2.609.266-2.749.634-.14.368-.407 1.205-.585 2.067-.242 1.268-2.8 5.795-4.263 8.166-.47-.926-.878-1.737-.967-2.384-.127-.976-.28-1.572-.127-2.739.152-1.166.84-2.828.827-2.954-.013-.127-.153-.723-1.553-.736-1.4-.012-2.609.266-2.749.634-.14.368-.292 1.23-.585 2.067-.293.837-3.69 8.394-4.581 10.347a58.3 58.3 0 0 1-1.133 2.346s-.012.038-.05.101c-.242.47-.382.723-.382.723v.013c-.191.342-.395.659-.497.659-.076 0-.216-.913.026-2.156.509-2.624 1.718-6.707 1.705-6.847 0-.076.23-.786-.789-1.154-.993-.367-1.349.241-1.438.241-.09 0-.153.216-.153.216s1.107-4.59-2.112-4.59c-2.01 0-4.785 2.193-6.16 4.171-.865.47-2.71 1.471-4.682 2.549-.751.418-1.527.837-2.253 1.23-.05-.05-.102-.114-.153-.165-3.894-4.146-11.096-7.075-10.79-12.642.114-2.029.814-7.354 13.832-13.821 10.715-5.262 19.241-3.804 20.717-.57 2.113 4.615-4.568 13.187-15.64 14.43-4.224.468-6.439-1.155-6.999-1.763-.585-.634-.674-.672-.89-.546-.357.19-.128.761 0 1.09.33.863 1.692 2.385 3.995 3.133 2.036.66 6.987 1.027 12.98-1.28 6.707-2.588 11.95-9.777 10.41-15.8-1.54-6.112-11.72-8.128-21.354-4.717-5.726 2.029-11.936 5.224-16.403 9.383-5.306 4.945-6.146 9.244-5.803 11.044 1.235 6.391 10.079 10.55 13.617 13.631-.178.102-.344.19-.484.267-1.769.875-8.513 4.387-10.193 8.102-1.909 4.21.305 7.228 1.769 7.634 4.543 1.255 9.213-1.002 11.72-4.73 2.507-3.728 2.202-8.572 1.044-10.79-.013-.026-.026-.051-.051-.077.458-.266.929-.545 1.387-.811a67.731 67.731 0 0 1 2.558-1.433c-.433 1.18-.751 2.587-.904 4.615-.19 2.384.79 5.478 2.074 6.695.573.533 1.247.546 1.68.546 1.502 0 2.176-1.243 2.927-2.714.916-1.8 1.743-3.893 1.743-3.893s-1.03 5.656 1.77 5.656c1.017 0 2.048-1.32 2.506-1.991v.013s.026-.038.077-.127l.165-.267v-.025c.407-.71 1.323-2.32 2.685-4.996 1.756-3.449 3.449-7.76 3.449-7.76s.152 1.052.674 2.802c.306 1.027.942 2.156 1.45 3.246-.406.571-.66.888-.66.888l.012.013c-.33.43-.687.9-1.082 1.356-1.387 1.649-3.041 3.538-3.27 4.083-.267.647-.204 1.116.305 1.497.37.279 1.031.317 1.705.279 1.248-.09 2.126-.393 2.558-.584a8.595 8.595 0 0 0 2.202-1.154c1.361-1.001 2.189-2.434 2.112-4.323-.038-1.04-.382-2.08-.801-3.056.127-.178.241-.355.369-.533 2.15-3.132 3.817-6.568 3.817-6.568s.153 1.052.675 2.802c.254.888.776 1.851 1.234 2.79-2.023 1.635-3.27 3.537-3.716 4.78-.801 2.308-.178 3.348 1.006 3.589.534.114 1.298-.14 1.857-.38a8.474 8.474 0 0 0 2.355-1.205c1.361-1.002 2.672-2.397 2.596-4.286-.038-.863-.267-1.712-.586-2.536 1.718-.71 3.933-1.103 6.758-.774 6.057.71 7.253 4.476 7.024 6.061-.229 1.585-1.501 2.448-1.921 2.714-.42.266-.56.355-.522.545.05.279.254.266.61.216.497-.09 3.182-1.281 3.297-4.197.19-3.728-3.373-7.799-9.672-7.76zM28.66 56.148c-1.983 2.249-4.744 3.099-5.937 2.38-1.28-.772-.778-4.093 1.657-6.472 1.481-1.451 3.39-2.798 4.657-3.622.289-.183.715-.444 1.23-.771.088-.052.138-.078.138-.078l.301-.197c.891 3.4.038 6.394-2.046 8.76zm14.486-10.393c-.71 1.665-2.192 5.927-3.095 5.691-.774-.198-1.25-3.43-.155-6.623.555-1.603 1.728-3.516 2.412-4.262 1.109-1.193 2.334-1.59 2.63-1.106.374.634-1.354 5.256-1.792 6.3zm12.367 5.501c-.278.15-.545.249-.666.174-.085-.05.121-.248.121-.248s1.442-1.592 2.01-2.314c.328-.422.716-.92 1.127-1.48v.162c0 1.903-1.792 3.184-2.592 3.706zm9.278-2.24c-.24-.152-.198-.656.61-2.233.312-.618 1.05-1.652 2.312-2.648.142.403.241.794.227 1.16-.014 2.434-1.972 3.342-3.149 3.72z"/>
    </g>
</svg>
