<svg xmlns="http://www.w3.org/2000/svg" width="104" height="63" viewBox="0 0 104 63">
  <g fill="none" fill-rule="evenodd">
    <path fill="#7D6BFF" fill-opacity=".08" stroke="#000" stroke-dasharray="8 9" stroke-linecap="round" stroke-linejoin="round" d="M87.0204082,8.33322324 C97.6326531,13.607194 98.6938776,27.3195181 97.6326531,33.6482831 C96.5714286,39.977048 90.2040816,57.9085488 74.2857143,61.0729313 C64.6444468,62.9895008 55.8790923,62.5844554 47.9896509,59.8577951 L47.9896509,59.8577951 C46.4984841,59.3424347 45.3380327,58.1535021 44.8589728,56.6502802 C40.0557355,41.5784047 41.0211119,29.6918957 47.755102,20.9907532 C58.3673469,7.27842907 76.4081633,3.05925243 87.0204082,8.33322324 Z"/>
    <path fill="#7D6BFF" fill-opacity=".08" stroke="#000" stroke-dasharray="8 11" stroke-linecap="round" stroke-linejoin="round" d="M32.8913109,30.6680972 C38.8747223,33.6416751 39.4730635,41.3729777 38.8747223,44.9412712 C38.2763812,48.5095646 34.6863344,58.6197295 25.7112173,60.4038762 C20.8887586,61.3625238 16.4549764,61.2909813 12.4098705,60.1892487 C10.6152048,59.7004498 9.20929988,58.312952 8.70478946,56.5326768 C6.4808547,48.685037 7.16348783,42.4423728 10.7526889,37.8046842 C16.7361002,30.0733817 26.9078996,27.6945193 32.8913109,30.6680972 Z" transform="rotate(-84 23.243 45.251)"/>
    <g transform="translate(.146 .275)">
      <path fill="#F89939" d="M79.3223701,47.3539527 C91.9164511,34.7606154 94.009577,16.4363745 83.9972287,6.42476988 C73.9863678,-3.58571918 55.6628706,-1.4929651 43.0695333,11.0996285 C30.476196,23.6925939 34.1191796,47.7518288 38.3954184,52.0288113 C41.8509912,55.4843841 66.7297765,59.9465463 79.3223701,47.3539527 Z"/>
      <path fill="#3499CD" d="M27.6468133,29.1568834 C20.3407664,21.8508365 9.70817757,20.6345254 3.89807053,26.4442606 C-1.91054912,32.2532521 -0.696097304,42.8873283 6.611437,50.1922597 C13.9189713,57.5005377 27.8792176,55.3865884 30.3586924,52.9048825 C32.365178,50.9017435 34.9550913,36.463674 27.6468133,29.1568834 Z"/>
    </g>
    <g fill="#010101" transform="translate(43.28 27.048)">
      <path fill-rule="nonzero" d="M9.72119221,17.4942788 C8.43051179,18.6823295 7.29823813,19.5591443 6.32511492,20.1224923 C5.35199172,20.6876995 4.42386198,20.9699313 3.54072571,20.9699313 C2.52484011,20.9699313 1.70528966,20.5761455 1.08393357,19.788202 C0.461461941,18.9995148 0.151341668,17.9419824 0.151341668,16.6115143 C0.151341668,14.6180434 0.583427708,12.2248371 1.44759979,9.43449829 C2.31028448,6.64192844 3.36075183,4.06874824 4.59453968,1.71458583 L8.21223769,0.375193472 C8.32565098,0.337265093 8.41191945,0.317929057 8.46918386,0.317929057 C8.74360684,0.317929057 8.97043342,0.520213744 9.14445774,0.922923883 C9.3203413,1.32749326 9.40884085,1.87113335 9.40884085,2.55458786 C9.40884085,4.49153811 8.96299648,6.36676177 8.0694485,8.18025886 C7.17627236,9.99449964 5.78110298,11.9307062 3.88245296,13.9911096 C3.80622436,14.9787348 3.76829598,15.6569835 3.76829598,16.0277148 C3.76829598,16.8543303 3.9200095,17.5084089 4.22380837,17.9929254 C4.5279791,18.4781855 4.93106108,18.7191423 5.43454172,18.7191423 C5.94806222,18.7191423 6.49356155,18.5354499 7.07289894,18.1650905 C7.65112079,17.7939873 8.53425706,17.0257517 9.72082036,15.8570371 L9.72082036,17.4942788 L9.72119221,17.4942788 Z M4.26694261,11.9266159 C5.4724701,10.586108 6.45154285,9.08273117 7.2011861,7.4194602 C7.95082935,5.75544555 8.32527913,4.32420702 8.32527913,3.12500093 C8.32527913,2.77546489 8.27359242,2.4913739 8.16984715,2.27793381 C8.06535818,2.06412187 7.93149332,1.95665813 7.77048363,1.95665813 C7.42057575,1.95665813 6.90928633,2.83124192 6.23959015,4.58078135 C5.56989397,6.32994893 4.91246874,8.77893229 4.26694261,11.9266159 Z"/>
      <path fill-rule="nonzero" d="M20.3753482,17.4942788 C19.1698207,18.6823295 18.0877463,19.5591443 17.1283815,20.1224923 C16.1690166,20.6876995 15.1114842,20.9699313 13.9524375,20.9699313 C12.6610134,20.9699313 11.6190985,20.5568094 10.8252055,19.7316813 C10.0327999,18.904322 9.63715482,17.8181574 9.63715482,16.4694688 C9.63715482,14.4570337 10.3343677,12.6360997 11.7317681,11.0077823 C13.1261938,9.37872126 14.6745641,8.5647485 16.3739042,8.5647485 C17.2570405,8.5647485 17.9635495,8.79343432 18.4960342,9.24894671 C19.0277752,9.70520279 19.2936457,10.3027607 19.2936457,11.0434796 C19.2936457,13.0094339 17.2049819,14.6035414 13.0272826,15.8287767 C13.4065663,17.6794585 14.3986537,18.6061009 16.0035447,18.6061009 C16.6304785,18.6061009 17.2280364,18.4376542 17.797334,18.1015047 C18.3681189,17.7638677 19.2267132,17.0149682 20.37572,15.8574089 L20.37572,17.4942788 L20.3753482,17.4942788 Z M12.9123819,14.8601157 C15.342401,14.1759175 16.5583402,12.9138693 16.5583402,11.07174 C16.5583402,10.1603433 16.2255373,9.70483095 15.5617907,9.70483095 C14.9348569,9.70483095 14.337299,10.1811668 13.7680015,11.1364413 C13.1968447,12.0902285 12.9123819,13.3307096 12.9123819,14.8601157 Z"/>
      <path fill-rule="nonzero" d="M35.5861154,17.4942788 C34.0667492,18.9374164 32.979469,19.8785608 32.3250185,20.3158527 C31.6698244,20.7524009 31.0432625,20.9703031 30.444589,20.9703031 C28.944187,20.9703031 28.2373061,19.6461565 28.322459,16.9967477 C27.373134,18.3539887 26.496691,19.3557441 25.6942455,20.0027576 C24.8925437,20.6482838 24.0644408,20.9703031 23.2088212,20.9703031 C22.3743968,20.9703031 21.664913,20.5794921 21.0799979,19.7960108 C20.4950828,19.0125295 20.2046705,18.0516772 20.2046705,16.9112229 C20.2046705,15.4877932 20.5954815,14.1298085 21.3782191,12.8376407 C22.1624441,11.5462165 23.1664306,10.5028143 24.3909223,9.70520279 C25.615414,8.9075913 26.6989757,8.50822778 27.637889,8.50822778 C28.825196,8.50822778 29.6562737,9.05447081 30.1311221,10.1458413 L33.0419393,8.53723184 L33.8406663,8.53723184 L32.5834521,12.7097253 C31.937926,14.8088008 31.6140474,16.2474763 31.6140474,17.0257517 C31.6140474,17.8419556 31.9029724,18.2502434 32.4826816,18.2502434 C32.8515537,18.2502434 33.2598415,18.0535364 33.7064296,17.6590069 C34.1530177,17.2644774 34.7784641,16.6639448 35.5853717,15.8570371 L35.5853717,17.4942788 L35.5861154,17.4942788 Z M25.1606453,18.2785038 C26.1099703,18.2785038 27.0046338,17.469365 27.8464951,15.8507157 C28.686869,14.2313227 29.1066841,12.737242 29.1066841,11.370333 C29.1066841,10.8393357 28.9869494,10.4232391 28.7508266,10.124646 C28.5124728,9.82456563 28.1945437,9.67582689 27.7966676,9.67582689 C26.8465989,9.67582689 25.9459858,10.4827346 25.0978032,12.0972936 C24.2481331,13.7118526 23.8223685,15.1977526 23.8223685,16.5542499 C23.8223685,17.0677704 23.9487964,17.4831234 24.2001649,17.8014243 C24.4515333,18.1197252 24.7705779,18.2785038 25.1606453,18.2785038 Z"/>
      <path d="M46.2257694,17.4942788 C43.842231,19.8298488 42.0045639,20.9985635 40.7135116,20.9985635 C40.1338024,20.9985635 39.6444519,20.7538883 39.2465758,20.266397 C38.8486997,19.7770466 38.6482742,19.1713081 38.6482742,18.4491815 C38.6482742,17.1105328 39.3659387,15.3167436 40.7994083,13.0659546 C40.0962459,13.4270179 39.3280103,13.6776427 38.4920986,13.8204319 C37.8748328,14.9597706 36.9057999,16.185006 35.5864873,17.4939069 L35.2596339,17.4939069 L35.2596339,16.2136382 C35.9996091,15.4446589 36.6693053,14.6180434 37.2676069,13.7349071 C36.4499157,13.3738438 36.0423715,12.8372688 36.0423715,12.1262976 C36.0423715,11.3941312 36.2907652,10.6136246 36.7905274,9.78180324 C37.2888022,8.95184107 37.9744877,8.53685999 38.8486997,8.53685999 C39.5894186,8.53685999 39.9590344,8.91540008 39.9590344,9.67545505 C39.9590344,10.2737566 39.7455943,11.1278888 39.3175986,12.2393391 C40.8934855,12.0679177 42.2704344,10.8631339 43.4484452,8.62164107 L44.7439597,8.56437666 L43.4194412,12.210335 C42.8691078,13.7486654 42.5128786,14.7965299 42.3518689,15.3513254 C42.1908592,15.9061209 42.1094247,16.3984461 42.1094247,16.8249544 C42.1094247,17.224318 42.2023864,17.5433626 42.3868225,17.7791135 C42.5720022,18.018211 42.8218833,18.1357146 43.1349783,18.1357146 C43.4763337,18.1357146 43.8046745,18.0189547 44.1177696,17.7876659 C44.4308646,17.5530306 45.1336552,16.9104792 46.2261412,15.8566652 L46.2261412,17.4942788 L46.2257694,17.4942788 Z"/>
      <path d="M60.2124168,17.4942788 C58.0192641,19.812372 56.1380908,20.9703031 54.5722438,20.9703031 C53.9360138,20.9703031 53.423237,20.747195 53.0339133,20.3006069 C52.643846,19.8547626 52.4493701,19.2568328 52.4493701,18.5068177 C52.4493701,17.4909321 52.8676978,15.9380997 53.7036095,13.8501796 C54.1494539,12.7294332 54.3733057,12.016231 54.3733057,11.7135476 C54.3733057,11.4093769 54.253571,11.2572915 54.0174483,11.2572915 C53.8846989,11.2572915 53.7080717,11.324224 53.4901694,11.4562296 C53.289744,11.5889789 53.0573397,11.7756461 52.7914692,12.0125125 C52.5546027,12.2304148 52.2879886,12.4962853 51.9938577,12.8086366 C51.7369115,13.0767382 51.461373,13.3801652 51.1687295,13.7207769 L50.3700025,14.6474193 C50.0193509,15.0742995 49.800705,15.524606 49.715552,15.9998263 C49.572391,16.8067339 49.4779419,17.5481966 49.4299737,18.2230986 C49.4009696,18.7250918 49.3872113,19.4033405 49.3872113,20.2597038 L46.2395277,20.9989353 C46.1357824,19.7171792 46.0826083,18.7626484 46.0826083,18.1368301 C46.0826083,16.6081677 46.260723,15.1598242 46.6173241,13.7929152 C46.9731815,12.4245188 47.5447101,10.8873039 48.3333973,9.17755211 L51.8079343,8.50859963 C51.0772552,10.4745539 50.5979446,12.0214368 50.3700025,13.1507357 C51.9272971,11.4134672 53.1618287,10.2109145 54.0769437,9.54047464 C54.9905715,8.87077846 55.8041724,8.53760368 56.5151435,8.53760368 C56.9981726,8.53760368 57.4019983,8.71980864 57.7236458,9.0845904 C58.0467807,9.44974401 58.2074186,9.90823117 58.2074186,10.4563334 C58.2074186,11.3669864 57.7991307,12.8673884 56.9836706,14.9571677 C56.4229255,16.3902655 56.142553,17.3202544 56.142553,17.7497376 C56.142553,18.3212662 56.375701,18.6068445 56.8419969,18.6068445 C57.536235,18.6068445 58.6606999,17.6902421 60.2124168,15.8577808 L60.2124168,17.4942788 Z"/>
    </g>
    <text fill="#FFF" font-family="Helvetica" font-size="6.106">
      <tspan x="57.388" y="29.71">scikit</tspan>
    </text>
  </g>
</svg>
