<svg width="199" height="135" viewBox="0 0 199 135" fill="none" xmlns="http://www.w3.org/2000/svg">
<path fill-rule="evenodd" clip-rule="evenodd" d="M193.122 72.7347C203.307 101.128 167.162 119.594 83.9461 127.346C0.730009 135.098 -0.6005 87.9979 15.3886 60.2486C23.3834 46.3733 44.5582 20.2693 68.8475 13.2376C93.1369 6.20641 120.573 22.7767 135.107 31.3603C164.935 48.9763 182.937 44.3419 193.122 72.7347Z" fill="#C3C3F6"/>
<path d="M75.8273 107.691L15.9524 73.1224C15.1604 72.6651 15.2602 71.8655 16.1749 71.3391L99.602 23.1727C100.517 22.6448 101.9 22.588 102.691 23.0453L162.566 57.6139C163.358 58.0712 163.259 58.8693 162.345 59.3972L78.9183 107.564C78.0036 108.092 76.6192 108.148 75.8273 107.691Z" fill="white"/>
<path d="M77.1709 105.093C76.5954 105.093 76.0413 104.973 75.6178 104.727L15.7428 70.1589C15.264 69.8826 15 69.479 15 69.0247C15 68.509 15.3514 68.0102 15.9638 67.6572L99.3925 19.4924C100.438 18.8892 101.975 18.8324 102.898 19.365L162.773 53.9335C163.252 54.2098 163.516 54.6119 163.516 55.0677C163.516 55.5834 163.164 56.0822 162.552 56.4352L79.1246 104.602C78.5583 104.927 77.8477 105.093 77.1709 105.093ZM101.351 19.8285C100.815 19.8285 100.243 19.9574 99.8068 20.2106L16.3798 68.377C16.0406 68.5735 15.8303 68.8221 15.8303 69.0277C15.8303 69.2257 16.0359 69.3731 16.1572 69.4437L76.0321 104.012C76.6982 104.396 77.9214 104.338 78.7072 103.885L162.134 55.7184C162.473 55.5235 162.682 55.2734 162.682 55.0677C162.682 54.8697 162.478 54.7224 162.355 54.6518L102.48 20.0833C102.186 19.9114 101.781 19.8285 101.351 19.8285Z" fill="black"/>
<path d="M89.9546 60.6189L68.2456 48.0862C67.9602 47.9204 67.9955 47.6319 68.3254 47.4416L98.3956 30.0806C98.7256 29.8903 99.226 29.8688 99.513 30.0345L121.222 42.5672C121.507 42.733 121.472 43.0215 121.142 43.2118L91.0719 60.5728C90.7404 60.7631 90.24 60.7831 89.9546 60.6189Z" fill="black"/>
<path d="M90.4415 58.6529C90.1867 58.6529 89.9396 58.5976 89.7462 58.4856L68.0373 45.9513C67.7825 45.804 67.6367 45.5707 67.6367 45.3129C67.6367 45.0289 67.8117 44.765 68.1171 44.5885L98.1873 27.2274C98.6477 26.9604 99.3061 26.9435 99.719 27.1814L121.426 39.7141C121.681 39.8615 121.827 40.0947 121.827 40.3526C121.827 40.6365 121.652 40.9005 121.347 41.077L91.2764 58.438C91.0324 58.5823 90.7315 58.6529 90.4415 58.6529ZM68.5591 45.2944L90.1621 57.7688C90.3018 57.8502 90.6456 57.8471 90.8635 57.7213L120.909 40.3741L99.3062 27.8997C99.165 27.8199 98.8227 27.8214 98.6048 27.9457L68.5591 45.2944Z" fill="black"/>
<path d="M90.9614 58.5623L119.681 41.981L118.851 41.5021L90.5471 57.8441C90.3291 57.9684 89.9854 57.9715 89.8457 57.8917L69.9846 46.4225L69.1543 46.9014L89.4313 58.6084C89.6247 58.7204 89.8703 58.7757 90.125 58.7757C90.4151 58.7757 90.7159 58.7051 90.9614 58.5623Z" fill="#9595EF"/>
<path d="M145.205 61.1484L122.843 48.2381C122.737 48.1767 122.75 48.0693 122.873 47.9987L126.728 45.7733C126.851 45.7027 127.036 45.695 127.142 45.7564L149.503 58.6667C149.609 58.7281 149.595 58.8355 149.474 58.9061L145.619 61.1315C145.496 61.2021 145.31 61.2097 145.205 61.1484Z" fill="#9595EF"/>
<path d="M145.385 59.342C145.247 59.342 145.11 59.3098 144.998 59.2453L144.996 59.2437L122.637 46.3335C122.463 46.2337 122.357 46.0618 122.357 45.8715C122.357 45.6736 122.473 45.4879 122.666 45.3758L126.521 43.1504C126.776 43.0046 127.117 42.9985 127.352 43.1336L149.711 56.0438C149.888 56.1451 149.99 56.3201 149.99 56.5088C149.989 56.7068 149.874 56.891 149.679 57.0015L145.825 59.2269C145.695 59.3036 145.538 59.342 145.385 59.342ZM123.479 45.8623L145.38 58.5086L148.864 56.5134L126.936 43.8518L123.479 45.8623Z" fill="black"/>
<path d="M138.371 65.0927L116.011 52.1824C115.905 52.121 115.918 52.0136 116.04 51.943L119.896 49.7176C120.019 49.647 120.204 49.6394 120.31 49.7008L142.671 62.611C142.777 62.6724 142.763 62.7798 142.642 62.8504L138.787 65.0758C138.663 65.1464 138.478 65.1541 138.371 65.0927Z" fill="#9595EF"/>
<path d="M138.554 63.2847C138.416 63.2847 138.279 63.2525 138.167 63.188H138.166L115.805 50.2778C115.631 50.1796 115.527 50.0061 115.525 49.8174C115.524 49.6194 115.639 49.4337 115.832 49.3216L119.689 47.0947C119.942 46.9474 120.283 46.9413 120.519 47.0779L142.879 59.9881C143.054 60.0894 143.158 60.2613 143.158 60.4501C143.158 60.6496 143.046 60.8307 142.851 60.9442L138.995 63.1712C138.863 63.2479 138.706 63.2847 138.554 63.2847ZM116.647 49.8066L138.548 62.4529L142.032 60.4577L120.102 47.7961L116.647 49.8066Z" fill="black"/>
<path d="M131.542 69.0369L109.181 56.1267C109.075 56.0653 109.088 55.9579 109.21 55.8873L113.066 53.6619C113.188 53.5913 113.374 53.5836 113.48 53.645L135.84 66.5552C135.946 66.6166 135.932 66.7241 135.811 66.7947L131.955 69.02C131.834 69.0906 131.65 69.0983 131.542 69.0369Z" fill="#9595EF"/>
<path d="M131.722 67.2305C131.583 67.2305 131.444 67.1983 131.332 67.1323L108.973 54.2221C108.798 54.1208 108.693 53.9473 108.693 53.7586C108.693 53.5606 108.808 53.3764 109.002 53.2644L112.857 51.039C113.107 50.8932 113.448 50.884 113.684 51.0206L136.047 63.9324C136.221 64.0306 136.325 64.204 136.326 64.3928C136.326 64.5908 136.213 64.7765 136.019 64.8885L132.163 67.1154C132.029 67.1906 131.874 67.2305 131.722 67.2305ZM109.815 53.7509L131.718 66.3956L135.2 64.4005L113.271 51.7388L109.815 53.7509Z" fill="black"/>
<path d="M124.71 72.9797L102.349 60.0694C102.243 60.008 102.256 59.9006 102.379 59.83L106.235 57.6046C106.357 57.534 106.543 57.5264 106.649 57.5877L129.01 70.498C129.116 70.5594 129.104 70.6668 128.981 70.7374L125.126 72.9628C125.003 73.0334 124.817 73.0411 124.71 72.9797Z" fill="#9595EF"/>
<path d="M124.892 71.1733C124.752 71.1733 124.616 71.1411 124.504 71.0766H124.502L102.143 58.1664C101.966 58.0651 101.863 57.8916 101.863 57.7029C101.865 57.5049 101.98 57.3207 102.175 57.2102L106.029 54.9848C106.282 54.8375 106.621 54.8314 106.859 54.968L129.219 67.8782C129.394 67.978 129.498 68.1499 129.498 68.3402C129.498 68.5382 129.383 68.7239 129.189 68.8359L125.334 71.0613C125.199 71.1349 125.044 71.1733 124.892 71.1733ZM102.985 57.6952L124.886 70.3399L128.37 68.3448L106.44 55.6847L102.985 57.6952Z" fill="black"/>
<path d="M117.882 76.924L95.5206 64.0137C95.4147 63.9523 95.4285 63.8449 95.5497 63.7743L99.405 61.5489C99.5278 61.4783 99.7135 61.4707 99.8194 61.5321L122.181 74.4423C122.286 74.5037 122.273 74.6111 122.151 74.6817L118.296 76.9071C118.173 76.9777 117.988 76.9854 117.882 76.924Z" fill="#9595EF"/>
<path d="M118.062 75.1176C117.923 75.1176 117.786 75.0854 117.674 75.0194L95.3145 62.1107C95.138 62.0094 95.0352 61.836 95.0352 61.6457C95.0367 61.4477 95.1518 61.2635 95.3436 61.1515L99.1989 58.9261C99.4537 58.7803 99.7944 58.7742 100.028 58.9077L122.389 71.8179C122.565 71.9192 122.668 72.0942 122.668 72.283C122.668 72.481 122.552 72.6651 122.357 72.7772L118.503 75.0025C118.369 75.0777 118.214 75.1176 118.062 75.1176ZM96.157 61.638L118.058 74.2827L121.54 72.2876L99.6118 59.6275L96.157 61.638Z" fill="black"/>
<path d="M107.296 82.9264L57.1711 53.9873C57.013 53.8952 57.033 53.7356 57.2156 53.6297L60.8514 51.5301C61.0341 51.4242 61.3119 51.4135 61.4699 51.504L111.595 80.4432C111.753 80.5352 111.733 80.6949 111.55 80.8008L107.914 82.9003C107.732 83.0062 107.454 83.0169 107.296 82.9264Z" fill="#9595EF"/>
<path d="M107.567 81.1384C107.393 81.1384 107.224 81.1001 107.088 81.0203L56.963 52.0811C56.7666 51.9676 56.6484 51.7742 56.6484 51.567C56.6484 51.3414 56.7788 51.1373 57.006 51.0053L60.6434 48.9058C60.9549 48.7247 61.3893 48.7154 61.6763 48.8797L111.801 77.8203C111.997 77.9339 112.116 78.1257 112.116 78.3345C112.116 78.5601 111.985 78.7642 111.758 78.8946L108.122 80.9942C107.958 81.0909 107.76 81.1384 107.567 81.1384ZM107.502 80.302C107.539 80.3158 107.648 80.3112 107.708 80.2774L111.053 78.3452L61.2649 49.5995C61.2296 49.5872 61.1207 49.5903 61.0608 49.6256L57.7166 51.5563L107.502 80.302Z" fill="black"/>
<path d="M100.466 86.8691L50.341 57.93C50.183 57.8379 50.2029 57.6783 50.3855 57.5724L54.0214 55.4729C54.204 55.367 54.4818 55.3562 54.6398 55.4468L104.765 84.3859C104.923 84.478 104.903 84.6376 104.72 84.7435L101.084 86.843C100.902 86.9505 100.624 86.9612 100.466 86.8691Z" fill="#9595EF"/>
<path d="M100.735 85.0827C100.561 85.0827 100.392 85.0443 100.256 84.966V84.9645L50.131 56.0254C49.9346 55.9133 49.8164 55.72 49.8164 55.5128C49.8164 55.2872 49.9469 55.083 50.174 54.9511L53.8113 52.8515C54.1244 52.672 54.5572 52.6612 54.8442 52.8254L104.969 81.7661C105.165 81.8781 105.284 82.0715 105.284 82.2787C105.284 82.5043 105.153 82.7084 104.926 82.8404L101.289 84.9399C101.124 85.0351 100.926 85.0827 100.735 85.0827ZM100.667 84.2447C100.705 84.26 100.814 84.2554 100.876 84.2217L104.22 82.291L54.4299 53.5437C54.3946 53.5314 54.2856 53.5345 54.2257 53.5698L50.8815 55.5005L100.667 84.2447Z" fill="black"/>
<path d="M93.6337 90.8134L43.509 61.8743C43.3509 61.7822 43.3709 61.6226 43.5535 61.5167L47.1893 59.4172C47.3719 59.3113 47.6497 59.3005 47.8078 59.3911L97.9325 88.3302C98.0906 88.4223 98.0706 88.5819 97.888 88.6878L94.2522 90.7873C94.0696 90.8932 93.7918 90.9055 93.6337 90.8134Z" fill="#9595EF"/>
<path d="M93.9025 89.0254C93.7291 89.0254 93.5603 88.987 93.4237 88.9088V88.9072L43.299 59.9681C43.1025 59.8545 42.9844 59.6627 42.9844 59.454C42.9844 59.2284 43.1148 59.0243 43.3435 58.8923L46.9778 56.7943C47.2878 56.6147 47.7237 56.6024 48.0122 56.7682L98.1369 85.7088C98.3333 85.8209 98.4515 86.0142 98.4515 86.2214C98.4515 86.447 98.321 86.6512 98.0939 86.7831L94.4566 88.8827C94.2939 88.9778 94.0959 89.0254 93.9025 89.0254ZM93.8365 88.1874C93.8749 88.2028 93.9823 88.1982 94.0437 88.1644L97.3879 86.2337L47.5993 57.4864C47.564 57.4742 47.4551 57.4772 47.3968 57.5125L44.051 59.4448L93.8365 88.1874Z" fill="black"/>
<path d="M61.1339 79.9383L36.5903 65.768C36.4797 65.7035 36.4936 65.5915 36.621 65.5178L40.4547 63.3047C40.5837 63.2311 40.777 63.2218 40.8891 63.2863L65.4327 77.4566C65.5432 77.521 65.5294 77.6331 65.402 77.7068L61.5682 79.9198C61.4393 79.995 61.2444 80.0027 61.1339 79.9383Z" fill="#9595EF"/>
<path d="M61.3231 78.1334C61.1804 78.1334 61.0407 78.0996 60.9256 78.0352L36.382 63.8649C36.2055 63.7636 36.0996 63.5886 36.0996 63.3983C36.0996 63.1958 36.2131 63.0131 36.4111 62.898L40.2465 60.6834C40.5074 60.5345 40.8558 60.5284 41.0937 60.665L65.6388 74.8368C65.8153 74.9381 65.9212 75.113 65.9212 75.3033C65.9212 75.5059 65.8076 75.6886 65.6096 75.8037L61.7743 78.0183C61.6392 78.0935 61.4796 78.1334 61.3231 78.1334ZM37.2184 63.3876L61.3139 77.3L64.8024 75.3079L40.6823 61.3817L37.2184 63.3876Z" fill="black"/>
<path d="M54.3019 83.8825L29.7582 69.7123C29.6477 69.6478 29.6615 69.5358 29.7889 69.4621L33.6227 67.2475C33.7516 67.1738 33.945 67.1661 34.057 67.229L58.6007 81.3993C58.7112 81.4638 58.6974 81.5758 58.57 81.6495L54.7362 83.8641C54.6073 83.9378 54.4139 83.947 54.3019 83.8825Z" fill="#9595EF"/>
<path d="M54.4965 82.0777C54.3538 82.0777 54.2126 82.0439 54.0975 81.9764L29.5539 67.8061C29.3758 67.7033 29.2715 67.5283 29.2715 67.3365C29.2715 67.1339 29.3866 66.9512 29.5846 66.8361L33.4184 64.623C33.6747 64.4726 34.0261 64.465 34.2671 64.6031L58.8107 78.7749C58.9887 78.8777 59.0931 79.0527 59.0931 79.243C59.0931 79.444 58.9749 79.6313 58.7785 79.7433L54.9462 81.9564C54.8111 82.0378 54.6515 82.0777 54.4965 82.0777ZM30.3903 67.3319L54.4873 81.2443L57.9742 79.2522L33.8542 65.3259L30.3903 67.3319Z" fill="black"/>
<path d="M80.1123 98.7833L67.5228 91.5148C67.443 91.4687 67.4522 91.3874 67.5459 91.3352L71.5116 89.0454C71.6037 88.9917 71.7434 88.9871 71.8232 89.0331L84.4127 96.3016C84.4925 96.3477 84.4833 96.4275 84.3897 96.4812L80.4239 98.771C80.3318 98.8248 80.1921 98.8294 80.1123 98.7833Z" fill="#9595EF"/>
<path d="M80.2489 96.9647C80.1261 96.9647 80.0049 96.9355 79.9051 96.8787L67.3156 89.6102C67.1514 89.515 67.0547 89.3508 67.0547 89.1728C67.0547 88.9871 67.1606 88.8152 67.3371 88.7124L71.3029 86.4225C71.5223 86.2951 71.8201 86.2875 72.0303 86.4102L84.6183 93.6788C84.781 93.7724 84.8792 93.9351 84.8807 94.1146C84.8807 94.3003 84.7764 94.4738 84.5983 94.5766L80.631 96.8664C80.5175 96.9324 80.3824 96.9647 80.2489 96.9647ZM68.2088 89.1682L80.2581 96.1252L83.7282 94.1223L71.6789 87.1653L68.2088 89.1682Z" fill="black"/>
<path d="M90.8517 58.2078L96.9584 54.6825C97.3421 53.1124 96.7143 51.5056 95.1612 50.1795L89.8341 45.6306L82.8295 42.7161C80.3264 41.674 77.1893 41.2796 74.1628 41.6233L74.0677 41.6341L68.1052 45.0765C67.7983 45.2545 67.7983 45.5415 68.1052 45.7196L89.7359 58.2078C90.0444 58.3858 90.5432 58.3858 90.8517 58.2078Z" fill="#9595EF"/>
<path d="M90.6599 61.2036L96.9447 57.5755C97.3407 55.9594 96.693 54.3065 95.0953 52.9421L89.6132 48.2611L82.4061 45.2623C79.8308 44.191 76.6017 43.7843 73.4877 44.1373L73.3895 44.148L67.2566 47.6887C66.9405 47.8713 66.9405 48.1675 67.2566 48.3502L89.515 61.2006C89.8296 61.3863 90.3438 61.3863 90.6599 61.2036Z" fill="#BBBBFF"/>
<path d="M90.2948 58.7557C90.0216 58.7557 89.7485 58.6928 89.5305 58.5669L67.8999 46.0772C67.6206 45.9161 67.4609 45.669 67.4609 45.3973C67.4609 45.1257 67.6206 44.877 67.8999 44.7159L74.1171 41.2105C77.1974 40.8621 80.4341 41.2689 82.9894 42.3324L90.103 45.3144L95.4301 49.8634C97.1014 51.2907 97.7874 53.0373 97.3608 54.7807L97.3193 54.9526L91.0592 58.5669C90.8428 58.6928 90.568 58.7557 90.2948 58.7557ZM68.3864 45.3943L89.9465 57.8487C90.126 57.953 90.4652 57.9515 90.6463 57.8487L96.5934 54.4155C96.8574 53.0465 96.2573 51.6606 94.8929 50.4957L89.6149 45.9897L82.6718 43.1013C80.2423 42.0899 77.159 41.7017 74.2108 42.0378H74.2L68.3864 45.3943Z" fill="black"/>
<path d="M94.3217 48.519C94.3708 48.5005 94.4168 48.4806 94.4659 48.4622L101.811 45.5324C102.752 45.2837 103.638 44.943 104.413 44.4949C107.895 42.4844 107.895 39.2246 104.413 37.2156C100.93 35.2051 95.2855 35.2051 91.8031 37.2156C91.0296 37.6622 90.4372 38.1733 90.0075 38.7166L84.9045 42.9801C84.8845 42.997 84.8615 43.0138 84.8431 43.0323L84.8201 43.0522L84.8216 43.0538C83.1088 44.5885 83.4112 46.6558 85.7378 47.9987C88.0645 49.3416 91.6451 49.5166 94.3017 48.5282H94.3032L94.3217 48.519Z" fill="#9595EF"/>
<path d="M94.3939 51.4135C94.4431 51.3951 94.4891 51.3752 94.5382 51.3567L101.883 48.4269C102.824 48.1783 103.71 47.8376 104.485 47.3894C107.967 45.3789 107.967 42.1207 104.485 40.1101C101.003 38.0996 95.3577 38.0996 91.8754 40.1101C91.1019 40.5568 90.5095 41.0678 90.0798 41.6111L84.9767 45.8746C84.9568 45.8915 84.9338 45.9084 84.9154 45.9268L84.8923 45.9468L84.8939 45.9483C83.1811 47.4831 83.4834 49.5504 85.8101 50.8933C88.1368 52.2362 91.7174 52.4111 94.374 51.4227H94.3755L94.3939 51.4135Z" fill="white"/>
<path d="M90.5806 49.5749C88.742 49.5749 86.9249 49.159 85.5313 48.3548C84.2268 47.6012 83.4456 46.5791 83.3305 45.4771C83.2461 44.653 83.5423 43.8303 84.1731 43.1167L84.1194 43.0798L84.5629 42.7238L84.8806 42.9586L84.8852 42.9509L84.6412 42.6578L89.7105 38.4219C90.1893 37.8279 90.8231 37.3 91.5966 36.8534C95.1864 34.7784 101.031 34.7799 104.62 36.8534C106.438 37.9031 107.44 39.3228 107.44 40.8514C107.44 42.38 106.438 43.8012 104.62 44.8494C103.844 45.2975 102.935 45.6613 101.918 45.9283L94.462 48.9057C93.2587 49.3569 91.9143 49.5749 90.5806 49.5749ZM85.1369 43.3239L85.097 43.3607C84.4064 43.9777 84.081 44.6806 84.1546 45.3912C84.2406 46.2215 84.876 47.0195 85.9442 47.6365C88.1128 48.8888 91.5659 49.0991 94.1566 48.1353L94.2487 48.1L101.657 45.1456C102.651 44.8801 103.492 44.5455 104.205 44.1357C105.755 43.241 106.608 42.0746 106.608 40.8545C106.608 39.6343 105.755 38.4695 104.205 37.5732C100.842 35.6348 95.3736 35.6333 92.011 37.5732C91.3127 37.9768 90.7494 38.4464 90.3335 38.9729L90.2737 39.0342L85.1369 43.3239Z" fill="black"/>
</svg>
