<svg xmlns="http://www.w3.org/2000/svg" width="101" height="79" viewBox="0 0 101 79">
  <g fill="none" fill-rule="evenodd">
    <path fill="#BB93FF" fill-opacity=".08" stroke="#000" stroke-dasharray="8" stroke-linecap="round" stroke-linejoin="round" d="M33.9739341,78 L93.0275563,78 C96.8935495,78 100.027556,74.8659932 100.027556,71 C100.027556,69.8962952 99.7665707,68.8082316 99.2659016,67.8246185 L69.7390905,9.81633101 C67.9853757,6.37098803 63.7707067,4.99965243 60.3253637,6.75336721 C59.0062103,7.42482975 57.9338624,8.49717767 57.2623999,9.81633101 L27.7355888,67.8246185 C25.981874,71.2699615 27.3532096,75.4846305 30.7985526,77.2383453 C31.7821657,77.7390144 32.8702293,78 33.9739341,78 Z"/>
    <path fill="#FB2D26" fill-rule="nonzero" d="M77.5249393,58.8180921 C79.3101549,61.9632018 79.4829675,65.2704984 77.9995567,67.8849002 C76.518306,70.5014938 73.6199922,72 70.0477093,72 L63.315425,72 C63.3953508,70.726301 63.4484289,69.4419565 63.4484289,68.148219 C63.4484289,66.6991829 63.3820812,65.2683067 63.2845656,63.8418139 L67.7128879,63.8374305 C68.8016072,63.8374305 69.6817169,62.939767 69.6817169,61.8326383 C69.6816175,61.4990507 69.6002,61.1706667 69.4447168,60.8767378 L41.2207195,11.1029105 C40.873647,10.4759063 40.2198787,10.0879725 39.5111094,10.08846 C38.8209824,10.0886682 38.181444,10.4558249 37.8258781,11.0559452 L33.3444777,18.9595794 C46.9639604,29.3764834 56.1199412,45.5147006 57.3728324,63.8374305 C57.4703481,65.2614184 57.5366957,66.6926077 57.5366957,68.1435225 C57.5366957,69.43726 57.4836176,70.7197259 57.4058519,71.9953035 L35.4197716,71.9953035 C35.539506,70.726301 35.6083224,69.4441483 35.6083224,68.1435225 C35.6083224,66.6879112 35.5240763,65.2526516 35.3688536,63.8374305 C34.2826031,53.753667 29.4173118,44.8171093 22.2526874,38.5106085 L19.1658227,43.9510691 C24.5785596,49.0624595 28.2730456,56.0236566 29.2775188,63.8374305 C29.4595892,65.2479551 29.5614251,66.6835278 29.5614251,68.1435225 C29.5614251,69.4441483 29.477179,70.7309975 29.3330657,71.9953035 L8.95229072,71.9953035 C5.38000783,71.9953035 2.48169401,70.4946055 1.00044333,67.878012 C-0.482967505,65.2636102 -0.310154926,61.9588184 1.47506073,58.8112038 L5.6595939,51.5353392 C8.05003566,52.8399286 10.2102793,54.5383501 12.0521164,56.5612528 L9.55775193,60.8720413 C9.4027547,61.1663018 9.32117091,61.4946093 9.32013463,61.8282548 C9.31915139,62.3588944 9.52620202,62.8681467 9.89564256,63.2437478 C10.2650831,63.6193488 10.7665806,63.83046 11.2895808,63.8305422 L21.174769,63.8352388 C20.3455772,59.0272442 18.1591895,54.6895289 15.0281958,51.2538605 C13.183113,49.235918 11.0278932,47.5279465 8.62857572,46.2210587 L19.6669792,26.7617685 C22.0106898,28.0912209 24.2371021,29.6231582 26.3214979,31.3405724 C35.8345218,39.1721931 42.2585208,50.7388077 43.422537,63.833047 L49.338899,63.833047 C48.1322969,48.5248633 40.5510708,35.0257831 29.2997375,26.0892254 C27.1869987,24.4102392 24.9512455,22.8970208 22.6118907,21.5627096 L32.0338794,4.95421318 C33.8166263,1.80659862 36.5436705,0 39.5111094,0 C42.4757709,0 45.2009635,1.80659862 46.9861792,4.95421318 L77.5249393,58.8180921 Z"/>
  </g>
</svg>
