<svg xmlns="http://www.w3.org/2000/svg" width="145" height="464" viewBox="0 0 145 464">
    <defs>
        <path id="a" d="M99 0h304v525H99z"/>
    </defs>
    <g fill="none" fill-rule="evenodd" opacity=".482">
        <path stroke="#000" d="M431.269 210.166c-31.47-50.43-87.683-154.68-159.206-140.927-71.524 13.753-106.813 108.5-131.604 165.042C115.67 290.824 162.532 436 276.016 436c75.656 0 128.651-14.556 158.984-43.667" opacity=".245"/>
        <path stroke="#000" d="M435 180.598C396.538 119.485 326.147-3.125 238.734 13.542S108.193 145.027 77.894 213.548C47.596 282.068 104.871 458 243.566 458c92.464 0 156.275-16.905 191.434-50.716" opacity=".245"/>
        <path stroke="#000" d="M431 141.675C384.133 72.927 313.123-43.737 206.608-24.987 100.092-6.237 47.539 122.926 10.619 200.007-26.3 277.088 43.491 475 212.495 475 325.165 475 398 459.723 431 429.168" opacity=".245"/>
    </g>
</svg>
