<?xml version="1.0" encoding="UTF-8"?>
<svg width="3289px" height="1748px" viewBox="0 0 3289 1748" version="1.1" xmlns="http://www.w3.org/2000/svg" xmlns:xlink="http://www.w3.org/1999/xlink">
    <!-- Generator: Sketch 50.2 (55047) - http://www.bohemiancoding.com/sketch -->
    <title>Group Copy</title>
    <desc>Created with Sketch.</desc>
    <defs></defs>
    <g id="Expertise/Business-Analysis" stroke="none" stroke-width="1" fill="none" fill-rule="evenodd" opacity="0.245414402">
        <g id="Artboard" transform="translate(-698.000000, -397.000000)" stroke="#000000">
            <g id="Group-Copy" transform="translate(2342.500000, 1271.000000) scale(-1, 1) translate(-2342.500000, -1271.000000) translate(699.000000, 398.000000)">
                <path d="M446.950437,831.238165 C1028.2774,557.19214 1025.38041,297.154682 1497.21451,344.643067 C1969.04861,392.131452 2201.84467,719.27366 2365.38925,914.503687 C2528.93383,1109.73371 2219.77723,1611 1471.13379,1611 C972.038164,1611 622.438576,1560.74186 422.335028,1460.22559 C51.1939953,1223.59799 59.3991318,1013.93551 446.950437,831.238165 Z" id="Path-4"></path>
                <path d="M422.23456,727.502496 C1114.70368,385.425372 1141.78518,92.6873303 1719.61331,150.276945 C2297.44144,207.866559 2582.53341,604.595015 2782.81707,841.35232 C2983.10072,1078.10962 2604.49438,1686 1687.67375,1686 C1076.46,1686 654.646934,1627.58698 422.23456,1510.76093 C-39.4115199,1216.64006 -39.4115199,955.553913 422.23456,727.502496 Z" id="Path-4-Copy"></path>
                <path d="M446.002206,593.888478 C1338.00662,47.3478403 1224.81239,-46.9735565 1928.55653,17.8327167 C2632.30067,82.6389898 2979.51777,529.082205 3223.44575,795.507994 C3467.37373,1061.93378 3006.26431,1746 1889.65694,1746 C1145.25202,1746 664.03378,1693.19489 446.002206,1587.58467 C-148.667402,1289.48097 -148.667402,958.248903 446.002206,593.888478 Z" id="Path-4-Copy-2"></path>
            </g>
        </g>
    </g>
</svg>