<svg xmlns="http://www.w3.org/2000/svg" width="440" height="1128" viewBox="0 0 440 1128">
    <defs>
        <path id="a" d="M431 0h1107v1364H431z"/>
    </defs>
    <g fill="none" fill-rule="evenodd" opacity=".482">
        <path stroke="#000" d="M1443.426 496.322C1328.94 365.315 1124.449 94.488 864.255 130.218c-260.194 35.729-388.57 281.864-478.757 428.752C295.31 705.857 465.796 1083 878.638 1083c275.227 0 468.014-37.813 578.362-113.44" opacity=".245"/>
        <path stroke="#000" d="M1530 418.507C1389.746 259.56 1133.06-59.339 814.302-15.99 495.544 27.36 338.273 325.99 227.787 504.206 117.3 682.42 326.158 1140 831.922 1140c337.175 0 569.868-43.97 698.078-131.908" opacity=".245"/>
        <path stroke="#000" d="M1568 317.488c-170.791-178.718-429.566-481.997-817.728-433.256C362.11-67.027 170.597 268.747 36.054 469.128-98.488 669.508 155.844 1184 771.728 1184c410.589 0 676.013-39.715 796.272-119.145" opacity=".245"/>
    </g>
</svg>
