<svg width="120" height="120" viewBox="0 0 120 120" fill="none" xmlns="http://www.w3.org/2000/svg">
<path d="M37.3203 54.8809V47.0499C37.5965 47.0499 37.8203 46.8261 37.8203 46.5499V43.0176C37.8203 42.1154 37.9794 41.2515 38.2706 40.4517C38.3632 40.1972 38.2363 39.9162 37.9865 39.8164C38.7928 37.9718 40.2746 36.49 42.1192 35.6837C42.219 35.9335 42.4999 36.0605 42.7544 35.9678C43.5543 35.6766 44.4182 35.5176 45.3203 35.5176H48.852C49.1281 35.5176 49.352 35.2937 49.352 35.0176H57.1812C57.1812 35.2937 57.4051 35.5176 57.6812 35.5176H64.7446C65.0207 35.5176 65.2446 35.2937 65.2446 35.0176H73.0738C73.0738 35.2937 73.2977 35.5176 73.5738 35.5176H80.6372C80.9133 35.5176 81.1372 35.2937 81.1372 35.0176H88.9664C88.9664 35.2937 89.1903 35.5176 89.4664 35.5176H92.9981C93.9002 35.5176 94.7641 35.6766 95.5639 35.9678C95.8185 36.0605 96.0994 35.9335 96.1992 35.6837C98.0438 36.49 99.5256 37.9718 100.332 39.8164C100.082 39.9162 99.9552 40.1972 100.048 40.4517C100.339 41.2515 100.498 42.1154 100.498 43.0176V46.55C100.498 46.8261 100.722 47.05 100.998 47.05V54.8809C100.722 54.8809 100.498 55.1047 100.498 55.3809V62.4456C100.498 62.7218 100.722 62.9456 100.998 62.9456V70.7765C100.722 70.7765 100.498 71.0004 100.498 71.2765V78.3413C100.498 78.6174 100.722 78.8413 100.998 78.8413V86.6722C100.722 86.6722 100.498 86.896 100.498 87.1722V90.7046C100.498 91.6067 100.339 92.4706 100.048 93.2704C99.9552 93.525 100.082 93.8059 100.332 93.9057C99.5256 95.7503 98.0438 97.2321 96.1992 98.0384C96.0994 97.7886 95.8185 97.6616 95.5639 97.7543C94.7641 98.0455 93.9002 98.2046 92.9981 98.2046H89.4664C89.1903 98.2046 88.9664 98.4284 88.9664 98.7046H81.1372C81.1372 98.4284 80.9133 98.2046 80.6372 98.2046H73.5738C73.2977 98.2046 73.0738 98.4284 73.0738 98.7046H65.2446C65.2446 98.4284 65.0207 98.2046 64.7446 98.2046H57.6812C57.4051 98.2046 57.1812 98.4284 57.1812 98.7046H49.352C49.352 98.4284 49.1281 98.2046 48.852 98.2046H45.3203C44.4182 98.2046 43.5543 98.0455 42.7544 97.7543C42.4999 97.6616 42.219 97.7886 42.1192 98.0384C40.2746 97.2321 38.7928 95.7503 37.9865 93.9057C38.2363 93.8059 38.3632 93.525 38.2706 93.2704C37.9794 92.4706 37.8203 91.6067 37.8203 90.7046V87.1722C37.8203 86.896 37.5965 86.6722 37.3203 86.6722V78.8413C37.5965 78.8413 37.8203 78.6174 37.8203 78.3413V71.2765C37.8203 71.0004 37.5965 70.7765 37.3203 70.7765V62.9456C37.5965 62.9456 37.8203 62.7217 37.8203 62.4456V55.3809C37.8203 55.1047 37.5965 54.8809 37.3203 54.8809Z" fill="#F7F7FE" stroke="black" stroke-linecap="round" stroke-linejoin="round" stroke-dasharray="8 10"/>
<path d="M72.6188 86.4227L30.0289 85.2088C24.8727 84.9883 18.9263 78.8558 19.0007 73.7367L19.204 30.9436C19.2784 25.8074 25.1132 20.9461 30.2522 21.0005L72.2695 22.5465C77.3885 22.6209 83.2634 27.3534 83.189 32.4725V76.1674C83.189 81.7445 78.7513 86.4227 72.6188 86.4227Z" fill="url(#paint0_radial)" stroke="#2C2C2C" stroke-miterlimit="10"/>
<path d="M22.6641 70.3844L29.4408 68.7468C29.7156 69.557 30.8035 71.564 31.7598 72.3742C32.716 73.1844 35.4044 73.6253 37.1909 73.4593C38.9774 73.2932 39.8621 71.7271 39.9537 70.5676C40.0281 69.4253 39.4755 68.6151 38.4248 68.0826C37.3741 67.55 36.1974 67.2351 34.5397 66.7398C32.8821 66.2617 29.9189 65.5975 27.5798 64.0142C25.2608 62.431 24.6882 58.8036 24.671 57.5153C24.6538 56.2269 24.9659 54.3287 25.7933 52.9488C26.6236 51.5488 29.3291 48.5283 34.7058 48.5283C40.0825 48.5283 42.3299 50.2404 43.561 51.2338C44.795 52.2273 46.7647 55.7831 46.7647 55.7831L40.5778 58.0105C39.5271 54.9357 37.5774 53.885 34.9062 53.885C32.235 53.885 31.6109 55.5799 31.6109 56.5905C31.6109 57.604 32.2007 58.8179 34.7402 59.4821C37.2796 60.1463 41.4796 61.1942 43.4866 62.4825C45.4936 63.7709 47.3345 66.4421 47.3345 69.5541C47.3345 72.6662 46.1205 74.3611 45.0698 75.5206C44.0191 76.6629 41.4796 79.3141 36.0657 79.3141C30.8579 79.2969 25.5929 76.995 22.6641 70.3844V70.3844ZM69.746 69.6114C69.746 69.6114 70.7595 57.0171 58.9926 57.0171C48.3508 57.0171 48.7545 67.9365 48.7545 68.6895C48.7545 71.8388 50.5954 79.921 59.5823 79.921C68.5693 79.921 69.746 72.3713 69.746 72.3713L63.6134 71.6527C63.3185 72.4257 62.7116 75.2057 59.84 75.2057C56.9684 75.2057 56.0465 72.8867 55.8261 72.1308C55.6056 71.375 55.66 69.6085 55.66 69.6085L69.746 69.6114ZM55.6056 65.9639C55.6056 65.9639 55.4396 61.1942 59.5652 61.1942C63.6907 61.1942 63.413 65.9639 63.413 65.9639H55.6056Z" stroke="#2C2C2C" stroke-miterlimit="10"/>
<path d="M21.3203 35.3811V56.573C21.3203 56.573 23.8254 67.7673 31.6672 67.9877C39.5089 68.2082 68.8259 69.4049 71.4771 69.2761C74.1282 69.1473 81.1082 65.5027 81.1082 58.4311V37.4625C81.1082 33.3942 78.7519 25.4752 69.765 25.0515C60.7809 24.6277 35.5351 23.9836 32.6835 23.9836C28.0226 23.9635 21.3203 25.75 21.3203 35.3811Z" fill="url(#paint1_radial)"/>
<path d="M48.5352 38.5847L60.889 54.1451L89.9999 29.9127L85.9859 21.8477L61.8108 42.4326L53.1932 32.6927L48.5352 38.5847Z" fill="url(#paint2_linear)" stroke="#0C0000" stroke-miterlimit="10"/>
<path d="M49.2148 38.4189L61.2766 49.3555L81.0341 33.7951L78.7523 28.5645L61.7576 43.0369L53.1944 33.3886L49.2148 38.4189Z" fill="url(#paint3_radial)"/>
<defs>
<radialGradient id="paint0_radial" cx="0" cy="0" r="1" gradientUnits="userSpaceOnUse" gradientTransform="translate(26.606 82.2354) scale(51.6644)">
<stop stop-color="#2B2B2B"/>
<stop offset="1" stop-color="#838383"/>
</radialGradient>
<radialGradient id="paint1_radial" cx="0" cy="0" r="1" gradientUnits="userSpaceOnUse" gradientTransform="translate(40.3014 16.9701) scale(49.9248)">
<stop stop-color="white" stop-opacity="0.8"/>
<stop offset="1" stop-color="white" stop-opacity="0.2"/>
</radialGradient>
<linearGradient id="paint2_linear" x1="51.0329" y1="55.481" x2="74.5712" y2="27.8057" gradientUnits="userSpaceOnUse">
<stop stop-color="#227716"/>
<stop offset="1" stop-color="#20B228"/>
</linearGradient>
<radialGradient id="paint3_radial" cx="0" cy="0" r="1" gradientUnits="userSpaceOnUse" gradientTransform="translate(62.0546 45.6457) rotate(-38.1985) scale(16.3313 46.4482)">
<stop stop-color="white" stop-opacity="0.4"/>
<stop offset="0.998" stop-color="white" stop-opacity="0"/>
</radialGradient>
</defs>
</svg>
