<svg xmlns="http://www.w3.org/2000/svg" width="100" height="87" viewBox="0 0 100 87">
  <g fill="none" fill-rule="evenodd">
    <g transform="translate(25 7)">
      <path fill="#9595EF" fill-opacity=".078" d="M3.03121151,35.2004655 L32.3095924,69.8041404 C34.4499864,72.3338395 38.2358448,72.6494338 40.765544,70.5090398 C41.0160092,70.2971197 41.2486702,70.0650129 41.4611871,69.8150539 L70.9135376,35.1736621 C74.3721309,31.1057191 74.7268651,25.2419055 71.783884,20.7866961 L62.0237962,6.01146193 L36.8789561,0.982808023 L12.0608031,6.01146193 L2.20714041,20.793489 C-0.758893543,25.2430013 -0.422836669,31.1181783 3.03121151,35.2004655 Z"/>
      <path fill="#000" fill-rule="nonzero" d="M2.64950938,35.523426 C2.47114322,35.3126177 2.49744274,34.9971295 2.708251,34.8187634 C2.91905927,34.6403972 3.23454747,34.6666967 3.41291363,34.877505 L8.58028169,40.984739 C8.75864785,41.1955473 8.73234833,41.5110355 8.52154006,41.6894016 C8.3107318,41.8677678 7.99524359,41.8414683 7.81687743,41.63066 L2.64950938,35.523426 Z M14.2760875,49.2647025 C14.0977213,49.0538943 14.1240209,48.7384061 14.3348291,48.5600399 C14.5456374,48.3816737 14.8611256,48.4079733 15.0394918,48.6187815 L20.2068598,54.7260156 C20.385226,54.9368238 20.3589264,55.252312 20.1481182,55.4306782 C19.9373099,55.6090443 19.6218217,55.5827448 19.4434556,55.3719366 L14.2760875,49.2647025 Z M25.9026656,63.0059791 C25.7242995,62.7951708 25.750599,62.4796826 25.9614072,62.3013165 C26.1722155,62.1229503 26.4877037,62.1492498 26.6660699,62.3600581 L31.8334379,68.4672921 C32.0118041,68.6781004 31.9855046,68.9935886 31.7746963,69.1719547 C31.563888,69.3503209 31.2483998,69.3240214 31.0700337,69.1132131 L25.9026656,63.0059791 Z M40.6152521,71.2556871 C40.3891232,71.414181 40.0773248,71.359352 39.9188308,71.1332231 C39.7603369,70.9070942 39.8151659,70.5952958 40.0412948,70.4368018 C40.1691758,70.3471699 40.293713,70.2518048 40.412307,70.1527862 C40.6686091,69.9360813 40.8825887,69.7236774 41.0802563,69.4911839 L45.2937184,64.5353761 C45.4725868,64.3249938 45.7881369,64.2994468 45.9985191,64.4783153 C46.2089014,64.6571837 46.2344484,64.9727337 46.0555799,65.183116 L41.8421178,70.1389239 C41.6084368,70.4137758 41.3555313,70.6648189 41.0556127,70.9183894 C40.9130618,71.0374253 40.7661708,71.1499081 40.6152521,71.2556871 Z M52.5329792,57.5645007 C52.3541108,57.774883 52.0385608,57.80043 51.8281785,57.6215615 C51.6177963,57.4426931 51.5922493,57.1271431 51.7711177,56.9167608 L56.9530372,50.8218686 C57.1319056,50.6114864 57.4474556,50.5859394 57.6578379,50.7648078 C57.8682201,50.9436763 57.8937671,51.2592263 57.7148987,51.4696085 L52.5329792,57.5645007 Z M64.192298,43.8509933 C64.0134295,44.0613755 63.6978795,44.0869225 63.4874973,43.9080541 C63.277115,43.7291857 63.251568,43.4136356 63.4304365,43.2032534 L68.6123559,37.1083612 C68.7912243,36.8979789 69.1067744,36.8724319 69.3171566,37.0513004 C69.5275389,37.2301688 69.5530859,37.5457188 69.3742174,37.7561011 L64.192298,43.8509933 Z M74.186868,28.8507668 C74.1548756,29.1250497 73.9065904,29.321465 73.6323075,29.2894726 C73.3580246,29.2574802 73.1616094,29.009195 73.1936018,28.7349121 C73.492561,26.1718218 72.9262,23.5746467 71.5541722,21.355574 C71.4089523,21.1207 71.4816312,20.812573 71.7165052,20.6673531 C71.9513792,20.5221332 72.2595061,20.5948121 72.4047261,20.8296861 C73.8960618,23.2417235 74.5117752,26.0652147 74.186868,28.8507668 Z M66.8872037,12.4667394 C67.0394062,12.6971499 66.976006,13.0073191 66.7455954,13.1595215 C66.5151849,13.311724 66.2050158,13.2483238 66.0528133,13.0179133 L61.6434221,6.34279014 C61.4912196,6.11237959 61.5546198,5.80221046 61.7850303,5.65000799 C62.0154409,5.49780552 62.32561,5.56120569 62.4778125,5.79161624 L66.8872037,12.4667394 Z M52.3815257,3.57322756 C52.6523062,3.62738028 52.8279178,3.89079073 52.773765,4.16157125 C52.7196123,4.43235178 52.4562019,4.60796331 52.1854213,4.55381059 L44.3407571,2.98497574 C44.0699766,2.93082302 43.894365,2.66741257 43.9485178,2.39663205 C44.0026705,2.12585152 44.2660809,1.95023999 44.5368615,2.00439271 L52.3815257,3.57322756 Z M34.5348302,0.947614293 C34.8054729,0.892776681 35.0693268,1.06772123 35.1241644,1.33836389 C35.179002,1.60900655 35.0040575,1.87286044 34.7334148,1.92769805 L26.8927447,3.51637454 C26.6221021,3.57121216 26.3582482,3.3962676 26.3034106,3.12562495 C26.248573,2.85498229 26.4235175,2.5911284 26.6941602,2.53629079 L34.5348302,0.947614293 Z M10.8306267,8.75837048 C10.6774615,8.98814216 10.3670298,9.05024395 10.1372581,8.89707872 C9.90748643,8.74391349 9.84538464,8.43348179 9.99854987,8.20371011 L11.7592376,5.56240467 L16.8933226,4.5221364 C17.1639653,4.46729879 17.4278192,4.64224335 17.4826568,4.912886 C17.5374944,5.18352866 17.3625498,5.44738255 17.0919072,5.50222016 L12.3623687,6.4605192 L10.8306267,8.75837048 Z M4.45194618,16.5244786 C4.60511141,16.2947069 4.91554311,16.2326051 5.14531478,16.3857703 C5.37508646,16.5389355 5.43718825,16.8493672 5.28402302,17.0791389 L2.62317883,21.0708192 C2.04913947,21.9319675 1.59777626,22.8583425 1.27595143,23.8284285 C1.18900141,24.0905244 0.906043718,24.2325083 0.643947733,24.1455583 C0.381851749,24.0586083 0.239867892,23.7756506 0.326817913,23.5135546 C0.676695236,22.4589092 1.16736562,21.4518604 1.79110199,20.5161588 L4.45194618,16.5244786 Z M1.38513353,33.732701 C1.246253,33.4940238 1.32715418,33.1879527 1.56583139,33.0490722 C1.80450859,32.9101917 2.11057961,32.9910929 2.24946015,33.2297701 C2.58671077,33.809362 2.97541728,34.3604347 3.41291363,34.877505 C3.59127979,35.0883132 3.56498027,35.4038015 3.35417201,35.5821676 C3.14336375,35.7605338 2.82787554,35.7342343 2.64950938,35.523426 C2.17419473,34.9616588 1.75173244,34.3627302 1.38513353,33.732701 Z"/>
    </g>
    <polygon fill="#FFAE00" points="48 0 96 55.773 75.206 83.951 48 86.866 20.794 83.951 0 55.773" transform="rotate(-180 48 43.433)"/>
    <polygon fill="#EC6C00" points="48 0 96 55.773 0 55.773" transform="rotate(-180 48 43.433)"/>
    <polygon fill="#FFAE00" points="28.567 0 57.134 55.773 0 55.773" transform="rotate(-180 38.283 43.433)"/>
    <polygon fill="#FFEFB4" points="28.567 31.093 57.134 0 0 0" transform="rotate(-180 38.283 15.547)"/>
    <polygon fill="#FFAE00" points="0 28.178 10.688 13.992 20.794 0 1.166 0" transform="rotate(-180 10.397 15.547)"/>
    <polygon fill="#FFAE00" points="0 28.178 10.688 13.992 20.794 0 1.166 0" transform="matrix(1 0 0 -1 75.206 31.093)"/>
    <polygon fill="#FED305" points="27.206 28.178 28.567 0 0 31.093" transform="rotate(-180 24 15.547)"/>
    <polygon fill="#FED305" points="27.206 28.178 28.567 0 0 31.093" transform="matrix(1 0 0 -1 48 31.093)"/>
  </g>
</svg>
