<svg width="120" height="120" viewBox="0 0 120 120" fill="none" xmlns="http://www.w3.org/2000/svg">
<path d="M105.1 52.1231C106.446 55.3041 107.358 58.718 107.763 62.2887L107.266 62.345C107.421 63.7081 107.5 65.0946 107.5 66.5C107.5 67.9054 107.421 69.2919 107.266 70.655L107.763 70.7113C107.358 74.282 106.446 77.6959 105.1 80.8769L104.639 80.6821C103.549 83.2588 102.171 85.6806 100.545 87.9058L100.949 88.2007C98.8687 91.049 96.3891 93.5795 93.594 95.7072L93.2912 95.3094C91.0924 96.9831 88.6961 98.4039 86.1443 99.5293L86.346 99.9867C83.1784 101.384 79.7739 102.332 76.2106 102.753L76.1519 102.256C74.7902 102.417 73.4047 102.5 72 102.5C70.5953 102.5 69.2098 102.417 67.8481 102.256L67.7894 102.753C64.2261 102.332 60.8216 101.384 57.654 99.9867L57.8557 99.5293C55.3039 98.4039 52.9075 96.9831 50.7088 95.3094L50.406 95.7072C47.6109 93.5795 45.1313 91.049 43.0508 88.2007L43.4545 87.9058C41.8292 85.6806 40.4509 83.2588 39.3607 80.6821L38.9003 80.8769C37.5544 77.6959 36.6416 74.282 36.237 70.7113L36.7338 70.655C36.5794 69.2919 36.5 67.9054 36.5 66.5C36.5 65.0946 36.5794 63.7081 36.7338 62.345L36.237 62.2887C36.6416 58.718 37.5544 55.3041 38.9003 52.1231L39.3607 52.3179C40.4509 49.7412 41.8292 47.3194 43.4545 45.0942L43.0508 44.7993C45.1313 41.951 47.6109 39.4205 50.406 37.2928L50.7088 37.6906C52.9075 36.0169 55.3039 34.5961 57.8557 33.4708L57.654 33.0133C60.8216 31.6163 64.2261 30.6679 67.7894 30.247L67.8481 30.7435C69.2098 30.5827 70.5953 30.5 72 30.5C73.4047 30.5 74.7902 30.5827 76.1519 30.7435L76.2106 30.247C79.7739 30.6679 83.1784 31.6163 86.346 33.0133L86.1443 33.4708C88.6961 34.5961 91.0924 36.0169 93.2912 37.6906L93.594 37.2928C96.3891 39.4205 98.8687 41.951 100.949 44.7993L100.545 45.0942C102.171 47.3194 103.549 49.7412 104.639 52.3179L105.1 52.1231Z" fill="#F7F6FC" stroke="black" stroke-dasharray="8 10"/>
<path d="M29.9883 33.0633L42.2711 41.4762C46.253 44.2035 51.6617 41.3524 51.6617 36.5261V21.4844" stroke="#00C0ED" stroke-width="8" stroke-linejoin="round"/>
<path d="M21.2178 71.3981L34.4198 64.5167C38.6996 62.2859 38.7279 56.1718 34.469 53.9014L21.1955 46.8256" stroke="#00C0ED" stroke-width="8" stroke-linejoin="round"/>
<path d="M95.458 71.6959L82.256 64.8145C77.9762 62.5837 77.9479 56.4696 82.2068 54.1993L95.4803 47.1234" stroke="#00C0ED" stroke-width="8" stroke-linejoin="round"/>
<path d="M67.7506 21.8581L66.708 36.7093C66.3701 41.5238 71.5658 44.7467 75.7289 42.305L88.7035 34.6949" stroke="#00C0ED" stroke-width="8" stroke-linejoin="round"/>
<path d="M29.9883 86.2238L42.2711 77.8109C46.253 75.0836 51.6617 77.9347 51.6617 82.7611V97.8027" stroke="#00C0ED" stroke-width="8" stroke-linejoin="round"/>
<path d="M67.7506 97.428C67.4375 92.9682 67.0479 87.4187 66.708 82.5763C66.37 77.7618 71.5658 74.5394 75.7289 76.9812L88.7035 84.5912" stroke="#00C0ED" stroke-width="8" stroke-linejoin="round"/>
<path d="M62.309 56.0393C64.272 57.9169 64.272 61.0527 62.309 62.9304C60.4938 64.6666 57.6429 64.6969 55.7913 62.9996C53.7298 61.1099 53.7298 57.8598 55.7913 55.9701C57.6429 54.2728 60.4938 54.303 62.309 56.0393Z" stroke="#00C0ED" stroke-width="3" stroke-linecap="round" stroke-linejoin="round"/>
</svg>
