<svg width="205" height="125" viewBox="0 0 205 125" fill="none" xmlns="http://www.w3.org/2000/svg">
<path d="M15.3422 95.1627C29.947 118.56 55.9923 119.834 94.9822 111.442C134.828 102.866 136.313 113.88 167.36 93.5923C205.794 68.4779 186.699 29.6294 154.686 30.155C117.451 30.7663 125.694 18.8244 59.4737 19.5085C3.79956 20.0837 -0.921106 69.1085 15.3422 95.1627Z" fill="#46CA98"/>
<g clip-path="url(#clip0)">
<path d="M146.855 16.5897C146.855 16.6707 146.774 16.7518 146.774 16.8328C146.612 17.1569 146.449 17.5621 146.287 17.8863L145.963 31.5C146.125 31.2569 146.206 31.0949 146.287 30.8518C146.368 30.6897 146.368 30.6087 146.449 30.4466C146.449 30.3656 146.531 30.2845 146.531 30.2035C146.531 30.1225 146.612 30.1225 146.612 30.0414C146.693 29.7983 146.693 29.5552 146.774 29.2311C146.774 29.15 146.774 29.069 146.774 28.988L147.098 15.2932C147.098 15.7794 147.017 16.1845 146.855 16.5897Z" fill="white" stroke="black" stroke-width="2" stroke-miterlimit="10" stroke-linejoin="round"/>
<path d="M133.799 21.2897C133.312 21.1277 132.745 20.9656 132.258 20.8035C132.096 20.7225 131.934 20.6415 131.852 20.6415C131.528 20.4794 131.204 20.3173 130.879 20.1553C130.717 20.0742 130.555 19.9932 130.393 19.9122C130.068 19.7501 129.825 19.507 129.582 19.3449C129.501 19.2639 129.339 19.1828 129.257 19.1018C128.933 18.7777 128.609 18.4535 128.284 18.1294C127.554 17.157 127.23 16.1846 127.311 15.2122L126.987 28.907C126.987 29.8794 127.311 30.8518 127.96 31.8242C128.203 32.1484 128.528 32.5535 128.933 32.7966C129.014 32.8777 129.176 32.9587 129.257 33.1208C129.501 33.3639 129.825 33.5259 130.068 33.688C130.231 33.7691 130.393 33.8501 130.555 33.9311C130.879 34.0932 131.204 34.2553 131.528 34.4173C131.69 34.4984 131.852 34.5794 131.934 34.5794C132.015 34.5794 132.096 34.6604 132.096 34.6604C132.501 34.8225 132.988 34.9846 133.393 35.0656C134.448 35.6328 135.988 36.6863 136.232 37.9828L136.556 24.288C136.475 22.9104 134.853 21.857 133.799 21.2897Z" fill="white" stroke="black" stroke-width="2" stroke-miterlimit="10" stroke-linejoin="round"/>
<path d="M204.108 30.0414C204.108 30.1225 204.108 30.2845 204.027 30.3656C203.946 30.5277 203.946 30.6897 203.865 30.8518C203.784 30.9328 203.784 31.0949 203.703 31.1759C203.621 31.257 203.621 31.338 203.54 31.419C203.459 31.5811 203.297 31.8242 203.216 31.9863C203.054 32.2294 202.892 32.3914 202.729 32.5535L202.648 32.6345C202.405 32.8777 202.162 33.0397 201.919 33.2828C201.594 33.5259 201.27 33.769 200.864 34.0121C200.783 34.0932 200.702 34.0932 200.54 34.1742C200.216 34.3363 199.891 34.4983 199.567 34.6604C199.242 34.8225 198.918 34.9035 198.594 34.9845C198.026 35.1466 197.377 35.3087 196.81 35.3897C196.647 35.3897 196.485 35.4708 196.323 35.4708C195.755 35.5518 195.107 35.5518 194.539 35.5518C194.458 35.5518 194.377 35.5518 194.296 35.5518C193.728 35.5518 193.079 35.4708 192.512 35.3897C192.43 35.3897 192.43 35.3897 192.349 35.3897C188.132 34.3363 186.592 36.038 185.943 35.8759L190.079 48.6794C190.241 48.7604 190.484 48.7604 190.646 48.8414C191.052 48.9225 191.538 49.0035 191.944 49.0845H192.025C192.106 49.0845 192.106 49.0845 192.187 49.0845C192.512 49.1656 192.836 49.1656 193.241 49.1656C193.485 49.1656 193.728 49.1656 193.971 49.1656C194.052 49.1656 194.133 49.1656 194.215 49.1656C194.296 49.1656 194.296 49.1656 194.377 49.1656C194.782 49.1656 195.188 49.1656 195.593 49.0845C195.755 49.0845 195.836 49.0845 195.918 49.0035C196.08 49.0035 196.242 48.9225 196.404 48.9225C196.566 48.9225 196.81 48.8414 196.972 48.8414C197.377 48.7604 197.783 48.6794 198.188 48.5173C198.431 48.4363 198.675 48.3552 198.999 48.2742C199.08 48.2742 199.161 48.1932 199.161 48.1932C199.486 48.0311 199.81 47.869 200.134 47.707C200.216 47.6259 200.378 47.6259 200.459 47.5449C200.864 47.3018 201.189 47.0587 201.513 46.8156C201.513 46.8156 201.594 46.8156 201.594 46.7345C201.837 46.5725 202.081 46.3294 202.243 46.1673L202.324 46.0863C202.486 45.9242 202.648 45.7621 202.811 45.519C202.811 45.519 202.811 45.438 202.892 45.438C203.054 45.2759 203.135 45.0328 203.216 44.8708C203.297 44.7897 203.297 44.7087 203.378 44.6276C203.378 44.6276 203.378 44.6276 203.378 44.5466C203.459 44.4656 203.459 44.3035 203.54 44.2225C203.621 44.0604 203.621 43.9794 203.703 43.8173V43.7363C203.703 43.6552 203.703 43.5742 203.784 43.4121C203.784 43.2501 203.865 43.169 203.865 43.007C203.865 42.9259 203.865 42.8449 203.865 42.7639L204.189 29.069C204.189 29.6363 204.108 29.8794 204.108 30.0414Z" fill="white" stroke="black" stroke-width="2" stroke-miterlimit="10" stroke-linejoin="round"/>
<path d="M113.363 33.9311C113.12 33.607 112.958 33.2018 112.958 32.8777L112.633 46.5725C112.633 46.8967 112.714 47.3018 113.039 47.626L122.284 60.1053L122.608 46.4104L113.363 33.9311Z" fill="white" stroke="black" stroke-width="2" stroke-miterlimit="10" stroke-linejoin="round"/>
<path d="M144.584 43.9794C144.341 43.5742 144.017 43.25 143.611 42.9259C143.53 42.8449 143.368 42.7638 143.287 42.6828C143.044 42.4397 142.719 42.2776 142.395 42.0345C142.233 41.9535 142.07 41.8725 141.989 41.7914C141.665 41.6294 141.259 41.4673 140.935 41.3052C140.773 41.2242 140.692 41.2242 140.53 41.1432C140.448 41.1432 140.448 41.0621 140.367 41.0621C139.881 40.9 139.394 40.738 138.908 40.6569H138.827C138.421 40.5759 138.097 40.4949 137.691 40.4138C137.529 40.4138 137.367 40.4138 137.286 40.3328C137.124 40.3328 137.042 40.3328 136.88 40.2518C136.718 40.2518 136.637 40.2518 136.475 40.2518C136.069 40.2518 135.664 40.2518 135.258 40.2518H135.177C135.096 40.2518 135.015 40.2518 134.934 40.2518C134.61 40.2518 134.285 40.2518 133.961 40.3328C133.799 40.3328 133.637 40.4138 133.474 40.4138C133.312 40.4138 133.15 40.4949 132.907 40.4949C132.744 40.4949 132.663 40.4949 132.501 40.5759C132.096 40.6569 131.69 40.738 131.285 40.9C131.041 40.9811 130.798 41.0621 130.555 41.1432C130.312 41.2242 130.068 41.3863 129.825 41.4673C129.663 41.5483 129.501 41.6294 129.338 41.7104C128.933 41.9535 128.528 42.1966 128.122 42.4397C128.041 42.4397 128.041 42.5207 127.96 42.5207C127.554 42.8449 127.23 43.169 126.987 43.5742L126.906 43.6552L126.825 43.7363C126.581 44.0604 126.419 44.3035 126.257 44.6276C126.257 44.7087 126.176 44.7897 126.176 44.7897C125.933 44.9518 125.608 45.1949 125.203 45.3569C125.122 45.438 124.959 45.438 124.797 45.519C124.473 45.6811 124.148 45.8432 123.743 46.0052C123.337 46.0863 122.932 46.2483 122.527 46.2483L122.202 59.9431C122.445 59.9431 122.608 59.8621 122.77 59.8621C123.013 59.7811 123.175 59.7811 123.419 59.7C123.581 59.619 123.743 59.619 123.905 59.538C124.148 59.4569 124.311 59.3759 124.554 59.2138C124.716 59.1328 124.797 59.1328 124.959 59.0518C125.284 58.8897 125.608 58.6466 125.933 58.4845C126.095 58.0794 126.338 57.6742 126.662 57.269L126.743 57.188C127.068 56.8638 127.392 56.4587 127.798 56.1345C127.879 56.1345 127.879 56.0535 127.96 56.0535C128.284 55.8104 128.69 55.4863 129.176 55.3242C129.338 55.2431 129.501 55.1621 129.663 55.0811C130.149 54.838 130.555 54.6759 131.123 54.5138C131.69 54.3518 132.177 54.2707 132.744 54.1087C132.907 54.1087 133.069 54.0276 133.312 54.0276C133.799 53.9466 134.285 53.9466 134.772 53.8656C134.853 53.8656 134.934 53.8656 135.015 53.8656C135.583 53.8656 136.15 53.8656 136.637 53.9466C136.799 53.9466 136.88 53.9466 137.042 54.0276C137.529 54.1087 138.097 54.1897 138.583 54.2707H138.664C139.232 54.4328 139.719 54.5949 140.286 54.7569C140.448 54.838 140.53 54.838 140.692 54.919C141.016 55.0811 141.422 55.2431 141.746 55.4052C141.908 55.4863 142.07 55.5673 142.151 55.6483C142.476 55.8104 142.719 56.0535 143.044 56.2156C143.125 56.2966 143.287 56.3776 143.368 56.4587C143.692 56.7828 144.017 57.1069 144.341 57.5121C145.071 58.4845 145.395 59.4569 145.314 60.4294L145.639 46.7345C145.639 45.9242 145.314 44.9518 144.584 43.9794Z" fill="white" stroke="black" stroke-width="2" stroke-miterlimit="10" stroke-linejoin="round"/>
<path d="M197.296 51.6777L196.972 65.3725L175.968 72.7466L176.293 59.0518L197.296 51.6777Z" fill="white" stroke="black" stroke-width="2" stroke-miterlimit="10" stroke-linejoin="round"/>
<path d="M140.935 69.4242L140.611 83.119L127.717 67.3983L127.96 53.7035L140.935 69.4242Z" fill="white" stroke="black" stroke-width="2" stroke-miterlimit="10" stroke-linejoin="round"/>
<path d="M166.967 61.9691L166.642 75.6639L140.611 83.119L140.935 69.4242L166.967 61.9691Z" fill="white" stroke="black" stroke-width="2" stroke-miterlimit="10" stroke-linejoin="round"/>
<path d="M145.396 47.4639C145.396 47.5449 145.396 47.6259 145.315 47.788C145.315 47.9501 145.233 48.1121 145.152 48.2742C145.071 48.3552 145.071 48.5173 144.99 48.5984C144.909 48.6794 144.909 48.7604 144.828 48.9225C144.747 49.0846 144.585 49.3277 144.504 49.4897C144.341 49.7328 144.179 49.8949 144.017 50.057L143.936 50.138C143.693 50.3811 143.449 50.5432 143.206 50.7863C142.882 51.0294 142.476 51.2725 142.152 51.5156C142.071 51.5966 141.99 51.5966 141.828 51.6777C141.503 51.8397 141.179 52.0018 140.854 52.1639C140.53 52.3259 140.206 52.407 139.881 52.488C139.395 52.6501 138.827 52.7311 138.259 52.8932C138.097 52.8932 137.935 52.9742 137.773 52.9742C137.286 53.0552 136.8 53.0552 136.394 53.1363C136.313 53.1363 136.232 53.1363 136.151 53.1363C135.583 53.1363 135.097 53.1363 134.529 53.0552C134.367 53.0552 134.286 53.0552 134.124 52.9742C133.556 52.8932 133.069 52.8121 132.502 52.7311L132.177 66.3449C132.502 66.4259 132.907 66.507 133.231 66.507C133.394 66.507 133.556 66.507 133.718 66.588C133.88 66.588 133.961 66.588 134.124 66.669C134.205 66.669 134.367 66.669 134.448 66.669C134.853 66.669 135.259 66.669 135.664 66.669H135.745C135.827 66.669 135.908 66.669 135.989 66.669C136.313 66.669 136.556 66.669 136.881 66.588C137.043 66.588 137.205 66.507 137.367 66.507C137.529 66.507 137.692 66.4259 137.935 66.4259C138.097 66.4259 138.178 66.4259 138.34 66.3449C138.746 66.2639 139.151 66.1828 139.557 66.0208C139.8 65.9397 140.043 65.8587 140.368 65.7777C140.449 65.7777 140.53 65.6966 140.53 65.6966C140.854 65.5346 141.179 65.3725 141.503 65.2104C141.584 65.1294 141.746 65.1294 141.828 65.0484C142.233 64.8053 142.557 64.5621 142.882 64.319C142.882 64.319 142.882 64.319 142.963 64.319C143.206 64.157 143.449 63.9139 143.612 63.7518L143.693 63.6708C143.855 63.5087 144.017 63.3466 144.098 63.1846C144.098 63.1846 144.098 63.1035 144.179 63.1035C144.341 62.9415 144.423 62.6984 144.504 62.5363C144.585 62.4553 144.585 62.3742 144.666 62.2932C144.666 62.2932 144.666 62.2932 144.666 62.2121C144.747 62.1311 144.747 61.969 144.828 61.888C144.909 61.7259 144.909 61.6449 144.99 61.4828V61.4018C144.99 61.3208 144.99 61.2397 145.071 61.0777C145.071 60.9156 145.152 60.8346 145.152 60.6725C145.152 60.5915 145.152 60.5104 145.152 60.4294L145.477 46.7346C145.396 47.0587 145.396 47.2208 145.396 47.4639Z" fill="white" stroke="black" stroke-width="2" stroke-miterlimit="10" stroke-linejoin="round"/>
<path d="M130.717 66.4259C131.123 66.4259 131.447 66.3449 131.772 66.3449C131.934 66.3449 132.096 66.3449 132.177 66.3449L132.502 52.6501C132.42 52.6501 132.339 52.6501 132.177 52.6501C132.096 52.6501 132.096 52.6501 132.015 52.6501C131.691 52.6501 131.366 52.6501 130.961 52.7311C130.88 52.7311 130.88 52.7311 130.88 52.7311C130.555 52.7311 130.15 52.8122 129.825 52.8932H129.744C129.501 52.9742 129.177 52.9742 128.933 53.0553C128.771 53.1363 128.69 53.1363 128.528 53.2173C128.285 53.2984 128.041 53.3794 127.798 53.5415L127.474 67.2363C127.798 67.0742 128.203 66.9121 128.609 66.7501C128.852 66.669 129.177 66.588 129.501 66.507C129.825 66.4259 130.231 66.3449 130.555 66.3449C130.636 66.4259 130.636 66.4259 130.717 66.4259Z" fill="white" stroke="black" stroke-width="2" stroke-miterlimit="10" stroke-linejoin="round"/>
<path d="M132.907 9.37765C137.854 7.91903 143.774 9.29661 146.125 12.538C147.423 14.3208 147.423 16.1845 146.288 17.8863C146.369 18.7776 146.774 19.9121 147.991 20.7225L166.724 14.969C168.508 14.4018 170.697 14.969 171.508 16.1035L180.834 28.6639C181.321 28.5828 181.726 28.5018 182.132 28.4208C183.348 28.0156 184.321 27.3673 184.97 26.8811C185.781 25.3414 187.484 24.0449 189.917 23.3156C194.782 21.7759 200.702 23.2345 203.135 26.4759C205.568 29.7173 203.459 33.5259 198.594 35.0656C195.918 35.8759 192.998 35.7949 190.484 35.0656C189.592 35.0656 188.457 35.2276 187.484 35.4708C187.078 35.6328 186.673 35.7949 186.348 35.957L196.81 50.138C197.702 51.3535 196.972 52.7311 195.188 53.2983L176.293 59.0518C176.536 60.0242 177.671 60.9156 178.563 61.4828C181.239 61.969 183.591 63.1845 184.889 64.9673C187.322 68.2087 185.213 72.0173 180.347 73.557C175.401 75.0156 169.562 73.638 167.129 70.3966C165.994 68.7759 165.831 67.0742 166.642 65.5345C166.642 64.7242 166.399 63.3466 165.183 62.4552L143.449 69.1001C141.665 69.6673 139.476 69.1001 138.584 67.9656L128.041 53.7035C128.366 53.5414 128.771 53.3794 129.177 53.2173C130.393 52.8121 131.853 52.8121 132.745 52.8121C135.097 53.3794 137.773 53.2983 140.124 52.569C145.071 51.1104 147.099 47.2208 144.666 43.9794C142.233 40.738 136.313 39.3604 131.447 40.819C128.771 41.6294 126.987 43.169 126.257 44.8707C125.69 45.2759 124.879 45.7621 123.824 46.0863C123.419 46.1673 123.013 46.3294 122.608 46.3294L113.363 33.9311C112.471 32.7156 113.201 31.338 114.985 30.7708L136.637 24.1259C136.475 22.8294 134.853 21.7759 133.799 21.2087C131.528 20.6414 129.501 19.507 128.285 17.8863C125.933 14.7259 127.96 10.9173 132.907 9.37765Z" fill="white" stroke="black" stroke-width="2" stroke-miterlimit="10" stroke-linejoin="round"/>
<path d="M87.7373 34.5794C87.7373 34.6604 87.6562 34.7414 87.6562 34.8225C87.494 35.1466 87.3318 35.5518 87.1696 35.8759L86.8452 49.5707C87.0074 49.4087 87.0885 49.1656 87.1696 48.9225C87.2507 48.7604 87.2507 48.6794 87.3318 48.5173C87.3318 48.4363 87.4129 48.3552 87.4129 48.2742C87.4129 48.1932 87.494 48.1932 87.494 48.1121C87.5751 47.869 87.5751 47.6259 87.6562 47.3018C87.6562 47.2207 87.6562 47.1397 87.6562 47.0587L87.9805 33.4449C87.9805 33.8501 87.8995 34.1742 87.7373 34.5794Z" fill="white" stroke="black" stroke-width="2" stroke-miterlimit="10" stroke-linejoin="round"/>
<path d="M74.7622 39.2794C74.1945 39.1173 73.7079 38.9552 73.2214 38.7932C73.0592 38.7121 72.897 38.6311 72.8159 38.6311C72.4915 38.469 72.1671 38.307 71.8427 38.1449C71.6806 38.0639 71.5184 37.9828 71.3562 37.9018C71.0318 37.7397 70.7885 37.4966 70.5452 37.3345C70.4641 37.2535 70.3019 37.1725 70.2209 37.0914C69.8965 36.7673 69.5721 36.4432 69.2477 36.119C68.5179 35.1466 68.1935 34.1742 68.2746 33.2018L67.9502 46.8966C67.9502 47.869 68.2746 48.8414 68.9233 49.8138C69.1666 50.138 69.491 50.5432 69.8965 50.7863C69.9776 50.8673 70.1398 50.9483 70.2209 51.0294C70.4641 51.2725 70.7885 51.4345 71.0318 51.5966C71.194 51.6776 71.3562 51.7587 71.5184 51.8397C71.8427 52.0018 72.1671 52.1639 72.4915 52.3259C72.6537 52.407 72.8159 52.488 72.897 52.488C72.9781 52.488 73.0592 52.569 73.0592 52.569C73.4646 52.7311 73.9512 52.8932 74.4378 52.9742C75.4109 53.4604 76.9517 54.5139 77.195 55.7294L77.5194 42.0345C77.195 40.819 75.7353 39.7656 74.7622 39.2794Z" fill="white" stroke="black" stroke-width="2" stroke-miterlimit="10" stroke-linejoin="round"/>
<path d="M54.2461 64.157L54.5705 50.4622C54.5705 50.7863 54.6516 51.1915 54.8949 51.5156L54.5705 65.2104C54.3272 64.8053 54.2461 64.4811 54.2461 64.157Z" fill="white"/>
<path d="M54.8935 51.5156L54.5691 65.2104C54.3258 64.8863 54.1636 64.4811 54.2447 64.157L54.5691 50.4622C54.488 50.7863 54.6502 51.1915 54.8935 51.5156Z" fill="white" stroke="black" stroke-width="2" stroke-miterlimit="10" stroke-linejoin="round"/>
<path d="M54.2461 64.157L54.5705 50.4622C54.5705 50.7863 54.6516 51.1915 54.8949 51.5156L54.5705 65.2104C54.3272 64.8053 54.2461 64.4811 54.2461 64.157Z" stroke="black" stroke-width="2" stroke-miterlimit="10" stroke-linejoin="round"/>
<path d="M54.8937 51.5156L54.5693 65.2104L63.8141 77.6897L64.1385 63.9949L54.8937 51.5156Z" fill="white" stroke="black" stroke-width="2" stroke-miterlimit="10" stroke-linejoin="round"/>
<path d="M116.931 76.9604L116.607 90.6553L136.394 84.6587L136.718 70.9639L116.931 76.9604Z" fill="white" stroke="black" stroke-width="2" stroke-miterlimit="10" stroke-linejoin="round"/>
<path d="M115.796 75.6639L115.877 72.0173C115.877 71.0449 115.552 70.0725 114.904 69.1001C114.66 68.6949 114.336 68.3708 113.93 68.0466C113.849 67.9656 113.687 67.8846 113.606 67.8035C113.363 67.5604 113.038 67.3983 112.714 67.1552C112.552 67.0742 112.39 66.9932 112.309 66.9121C111.984 66.7501 111.579 66.588 111.254 66.4259C111.092 66.3449 111.011 66.3449 110.849 66.2639C110.768 66.2639 110.768 66.1828 110.687 66.1828C110.2 66.0208 109.714 65.8587 109.227 65.7777H109.146C108.74 65.6966 108.416 65.6156 108.011 65.5345C107.848 65.5345 107.686 65.5345 107.605 65.4535C107.443 65.4535 107.362 65.4535 107.2 65.3725C107.037 65.3725 106.956 65.3725 106.794 65.2914C106.389 65.2914 105.983 65.2914 105.578 65.2914H105.497C105.415 65.2914 105.334 65.2914 105.253 65.2914C104.929 65.2914 104.605 65.2914 104.28 65.3725C104.118 65.3725 103.956 65.4535 103.794 65.4535C103.631 65.4535 103.469 65.5345 103.226 65.5345C103.064 65.5345 102.983 65.5345 102.82 65.6156C102.415 65.6966 102.01 65.7777 101.604 65.9397C101.361 66.0208 101.117 66.1018 100.793 66.1828C100.712 66.1828 100.712 66.2639 100.631 66.2639C100.307 66.4259 99.9011 66.588 99.5767 66.7501C99.4956 66.8311 99.4145 66.8311 99.3334 66.9121C98.9279 67.1552 98.6035 67.3983 98.2792 67.6414H98.1981C97.9548 67.8035 97.7115 68.0466 97.5493 68.2087L97.4682 68.2897C97.306 68.4518 97.1438 68.6139 96.9816 68.857C96.9816 68.857 96.9816 68.938 96.9005 68.938C96.7384 69.1001 96.6573 69.3432 96.5762 69.5052C96.4951 69.5863 96.4951 69.6673 96.414 69.7483C96.414 69.7483 96.414 69.7483 96.414 69.8294C96.3329 69.9104 96.3329 70.0725 96.2518 70.1535C96.1707 70.3156 96.1707 70.3966 96.0896 70.5587V70.6397C96.0896 70.7208 96.0896 70.8018 96.0085 70.9639C96.0085 71.1259 95.9274 71.207 95.9274 71.369C95.9274 71.4501 95.9274 71.5311 95.9274 71.6121L95.603 85.307C95.603 85.0639 95.6841 84.9018 95.6841 84.6587C95.6841 84.5776 95.6841 84.4966 95.7652 84.3345C95.8463 84.1725 95.8463 84.0104 95.9274 83.8483C96.0085 83.7673 96.0085 83.6052 96.0896 83.5242C96.1707 83.4432 96.1707 83.3621 96.2518 83.2811C96.3329 83.119 96.4951 82.8759 96.5762 82.7138C96.7384 82.4707 96.9005 82.3087 97.0627 82.0656L97.1438 81.9845C97.3871 81.7414 97.6304 81.5794 97.8737 81.3363C98.1981 81.0932 98.6035 80.8501 98.9279 80.607C99.009 80.5259 99.0901 80.5259 99.1712 80.4449C99.4956 80.2828 99.82 80.1208 100.225 79.9587C100.55 79.7966 100.874 79.7156 101.199 79.6345C101.766 79.4725 102.253 79.3914 102.82 79.2294C102.983 79.2294 103.145 79.1483 103.307 79.1483C103.794 79.0673 105.821 78.419 107.767 78.7432C114.904 80.0397 114.093 87.738 114.093 87.738C114.255 88.8725 115.066 89.6828 116.282 90.6552L116.607 76.9604C116.363 76.6363 116.039 76.1501 115.796 75.6639Z" fill="white" stroke="black" stroke-width="2" stroke-miterlimit="10" stroke-linejoin="round"/>
<path d="M69.6529 71.4501C67.139 71.4501 64.8683 73.8811 64.5439 74.2052C64.4628 74.2863 64.4628 74.2863 64.3817 74.3673C64.1385 74.6104 63.8141 74.9346 63.4897 75.1777C63.3275 75.3397 63.1653 75.4208 63.0031 75.5018C62.7598 75.6639 62.5166 75.8259 62.1922 75.988C61.9489 76.069 61.7867 76.1501 61.5434 76.3121C61.1379 76.4742 60.7325 76.6363 60.327 76.7984C59.7593 76.9604 59.2728 77.0415 58.7051 77.2035C58.5429 77.2035 58.3807 77.2846 58.1374 77.2846C57.6509 77.3656 57.1643 77.3656 56.6777 77.4466C56.5966 77.4466 56.5155 77.4466 56.5155 77.4466C55.9479 77.4466 55.3802 77.4466 54.8126 77.3656C54.6504 77.3656 54.5693 77.3656 54.4071 77.3656C53.8394 77.2846 53.3528 77.2035 52.7852 77.1225H52.7041C52.1364 76.9604 51.6499 76.7983 51.0822 76.6363C50.92 76.5552 50.8389 76.5552 50.6767 76.4742C50.3523 76.3121 49.9469 76.1501 49.6225 75.988C49.4603 75.907 49.2981 75.8259 49.217 75.7449C48.8926 75.5828 48.6494 75.3397 48.325 75.1777C48.2439 75.0966 48.0817 75.0156 48.0006 74.9346C47.7573 74.3673 47.4329 73.9621 47.1086 73.638C46.3787 72.6656 46.0543 71.6932 46.1354 70.7208L45.811 84.3346C45.811 85.307 46.1354 86.2794 46.7842 87.2518C47.0275 87.657 47.3518 87.9811 47.7573 88.3052C47.8384 88.3863 48.0006 88.4673 48.0817 88.5484C48.325 88.7915 48.6494 88.9535 48.9737 89.1156C49.1359 89.1966 49.2981 89.2777 49.3792 89.3587C49.7036 89.5208 50.028 89.6828 50.4334 89.8449C50.5956 89.9259 50.6767 89.9259 50.8389 90.007C50.92 90.007 50.92 90.088 51.0011 90.088C51.4877 90.2501 51.9742 90.4121 52.4608 90.4932H52.5419C52.9474 90.5742 53.2718 90.6552 53.6772 90.7363C53.8394 90.7363 53.9205 90.7363 54.0827 90.8173C54.2449 90.8173 54.326 90.8173 54.4882 90.8984C54.6504 90.8984 54.7315 90.8984 54.8937 90.9794C55.2991 90.9794 55.7046 90.9794 56.1101 90.9794H56.1912C56.2723 90.9794 56.3534 90.9794 56.4345 90.9794C56.7588 90.9794 57.0832 90.9794 57.4076 90.8984C57.5698 90.8984 57.732 90.8173 57.8942 90.8173C58.0563 90.8173 58.2185 90.7363 58.4618 90.7363C58.624 90.7363 58.7051 90.7363 58.8673 90.6552C59.2728 90.5742 59.6782 90.4932 60.0837 90.3311C60.327 90.2501 60.5703 90.169 60.8136 90.088C60.9758 90.007 61.1379 89.9259 61.3001 89.8449C61.5434 89.7639 61.7867 89.6828 61.9489 89.5208C62.1922 89.3587 62.4355 89.1966 62.6787 89.0346C62.8409 88.9535 63.0842 88.7915 63.2464 88.7104C63.3275 88.6294 63.4086 88.6294 63.4086 88.5484C63.6519 88.3053 63.8952 88.1432 64.1385 87.9001C64.2195 87.819 64.2195 87.819 64.3006 87.738C64.3817 87.5759 64.5439 87.4949 64.625 87.3328C64.7872 87.1708 64.8683 86.9277 65.0305 86.6846L69.4096 84.9018" fill="white"/>
<path d="M69.6529 71.4501C67.139 71.4501 64.8683 73.8811 64.5439 74.2052C64.4628 74.2863 64.4628 74.2863 64.3817 74.3673C64.1385 74.6104 63.8141 74.9346 63.4897 75.1777C63.3275 75.3397 63.1653 75.4208 63.0031 75.5018C62.7598 75.6639 62.5166 75.8259 62.1922 75.988C61.9489 76.069 61.7867 76.1501 61.5434 76.3121C61.1379 76.4742 60.7325 76.6363 60.327 76.7984C59.7593 76.9604 59.2728 77.0415 58.7051 77.2035C58.5429 77.2035 58.3807 77.2846 58.1374 77.2846C57.6509 77.3656 57.1643 77.3656 56.6777 77.4466C56.5966 77.4466 56.5155 77.4466 56.5155 77.4466C55.9479 77.4466 55.3802 77.4466 54.8126 77.3656C54.6504 77.3656 54.5693 77.3656 54.4071 77.3656C53.8394 77.2846 53.3528 77.2035 52.7852 77.1225H52.7041C52.1364 76.9604 51.6499 76.7983 51.0822 76.6363C50.92 76.5552 50.8389 76.5552 50.6767 76.4742C50.3523 76.3121 49.9469 76.1501 49.6225 75.988C49.4603 75.907 49.2981 75.8259 49.217 75.7449C48.8926 75.5828 48.6494 75.3397 48.325 75.1777C48.2439 75.0966 48.0817 75.0156 48.0006 74.9346C47.7573 74.3673 47.4329 73.9621 47.1086 73.638C46.3787 72.6656 46.0543 71.6932 46.1354 70.7208L45.811 84.3346C45.811 85.307 46.1354 86.2794 46.7842 87.2518C47.0275 87.657 47.3518 87.9811 47.7573 88.3052C47.8384 88.3863 48.0006 88.4673 48.0817 88.5484C48.325 88.7915 48.6494 88.9535 48.9737 89.1156C49.1359 89.1966 49.2981 89.2777 49.3792 89.3587C49.7036 89.5208 50.028 89.6828 50.4334 89.8449C50.5956 89.9259 50.6767 89.9259 50.8389 90.007C50.92 90.007 50.92 90.088 51.0011 90.088C51.4877 90.2501 51.9742 90.4121 52.4608 90.4932H52.5419C52.9474 90.5742 53.2718 90.6552 53.6772 90.7363C53.8394 90.7363 53.9205 90.7363 54.0827 90.8173C54.2449 90.8173 54.326 90.8173 54.4882 90.8984C54.6504 90.8984 54.7315 90.8984 54.8937 90.9794C55.2991 90.9794 55.7046 90.9794 56.1101 90.9794H56.1912C56.2723 90.9794 56.3534 90.9794 56.4345 90.9794C56.7588 90.9794 57.0832 90.9794 57.4076 90.8984C57.5698 90.8984 57.732 90.8173 57.8942 90.8173C58.0563 90.8173 58.2185 90.7363 58.4618 90.7363C58.624 90.7363 58.7051 90.7363 58.8673 90.6552C59.2728 90.5742 59.6782 90.4932 60.0837 90.3311C60.327 90.2501 60.5703 90.169 60.8136 90.088C60.9758 90.007 61.1379 89.9259 61.3001 89.8449C61.5434 89.7639 61.7867 89.6828 61.9489 89.5208C62.1922 89.3587 62.4355 89.1966 62.6787 89.0346C62.8409 88.9535 63.0842 88.7915 63.2464 88.7104C63.3275 88.6294 63.4086 88.6294 63.4086 88.5484C63.6519 88.3053 63.8952 88.1432 64.1385 87.9001C64.2195 87.819 64.2195 87.819 64.3006 87.738C64.3817 87.5759 64.5439 87.4949 64.625 87.3328C64.7872 87.1708 64.8683 86.9277 65.0305 86.6846L69.4096 84.9018" stroke="black" stroke-width="2" stroke-miterlimit="10" stroke-linejoin="round"/>
<path d="M69.653 71.4501L81.5739 87.1708L81.3306 101.19L69.3286 85.1449" fill="white"/>
<path d="M69.653 71.4501L81.5739 87.1708L81.3306 101.19L69.3286 85.1449" stroke="black" stroke-width="2" stroke-miterlimit="10" stroke-linejoin="round"/>
<path d="M105.74 80.4449L105.497 94.0587L81.4927 101.19L81.736 87.1707L105.74 80.4449Z" fill="white" stroke="black" stroke-width="2" stroke-miterlimit="10" stroke-linejoin="round"/>
<path d="M73.7887 27.3673C78.6544 25.9087 84.6554 27.2863 87.0072 30.5277C88.3047 32.3104 88.2236 34.1742 87.1694 35.876C87.2505 36.6863 87.5749 37.8208 88.7102 38.5501L108.254 32.5535C110.038 31.9863 112.228 32.5535 113.039 33.688L122.365 46.2484C122.77 46.1673 123.257 46.0863 123.581 46.0053C124.554 45.6811 125.365 45.1949 126.014 44.7898C126.744 43.088 128.528 41.5484 131.204 40.738C136.151 39.2794 142.071 40.657 144.422 43.8984C146.774 47.1397 144.747 50.9484 139.881 52.488C137.448 53.2173 134.853 53.2173 132.501 52.7311C131.609 52.7311 130.15 52.8122 128.933 53.1363C128.528 53.2173 128.203 53.3794 127.798 53.6225L138.34 67.8846C139.232 69.0191 138.502 70.4777 136.718 71.0449L116.931 77.1225C115.634 76.2311 115.471 74.8535 115.39 74.0432C115.309 72.0984 116.039 70.8018 114.904 69.1811C112.552 65.9398 106.632 64.5622 101.685 66.0208C96.8197 67.4794 94.7112 71.3691 97.144 74.6104C98.4416 76.3932 100.793 77.5277 103.469 78.0949C104.443 78.6622 105.497 79.5535 105.821 80.526L84.9798 86.8467C83.1957 87.4139 81.0062 86.8467 80.1952 85.7122L69.6529 71.4501C69.0852 71.4501 68.5176 71.6122 68.031 71.7742C66.8146 72.1794 65.8414 72.8277 65.2738 73.2329C64.4628 74.7725 62.7598 76.0691 60.327 76.7984C55.4613 78.257 49.5414 76.8794 47.1085 73.638C44.6757 70.3966 46.7842 66.588 51.6499 65.0484C54.326 64.238 57.2454 64.3191 59.7593 65.0484C60.6514 65.0484 61.7056 64.8863 62.7598 64.6432C63.2464 64.4811 63.733 64.3191 64.1385 63.9949L54.8936 51.5156C54.0016 50.3811 54.7315 48.9225 56.5155 48.3553L77.5191 41.9535C77.1947 40.738 75.735 39.7656 74.7619 39.1984C72.4101 38.6311 70.3828 37.4966 69.2474 35.876C66.8146 32.7156 68.842 28.907 73.7887 27.3673Z" fill="white" stroke="black" stroke-width="2" stroke-miterlimit="10" stroke-linejoin="round"/>
<path d="M166.561 69.4242V66.7501L166.48 69.3432C166.561 69.3432 166.561 69.4242 166.561 69.4242Z" fill="white" stroke="black" stroke-width="2" stroke-miterlimit="10" stroke-linejoin="round"/>
<path d="M166.642 65.5345C166.642 65.4535 166.642 65.3725 166.642 65.2104V66.669V65.5345Z" fill="white" stroke="black" stroke-width="2" stroke-miterlimit="10" stroke-linejoin="round"/>
<path d="M185.862 68.5328C185.862 68.6138 185.862 68.7759 185.781 68.8569C185.7 69.019 185.7 69.1811 185.618 69.3431C185.537 69.4242 185.537 69.5862 185.456 69.6673C185.375 69.7483 185.375 69.8293 185.294 69.9914C185.213 70.1535 185.051 70.3966 184.97 70.5586C184.807 70.8017 184.645 70.9638 184.483 71.2069C184.483 71.2069 184.483 71.288 184.402 71.288C184.159 71.5311 183.915 71.6931 183.672 71.9362C183.348 72.1793 182.942 72.4224 182.618 72.6655C182.537 72.7466 182.456 72.7466 182.294 72.8276C181.969 72.9897 181.645 73.1517 181.32 73.3138C180.996 73.4759 180.672 73.5569 180.347 73.638C179.78 73.8 179.293 73.8811 178.725 74.0431C178.563 74.0431 178.401 74.1242 178.239 74.1242C177.752 74.2052 177.266 74.2052 176.698 74.2862C176.617 74.2862 176.617 74.2862 176.536 74.2862C175.968 74.2862 175.4 74.2862 174.833 74.2052C174.671 74.2052 174.59 74.2052 174.427 74.2052C173.86 74.1242 173.373 74.0431 172.887 73.9621H172.805C172.238 73.8 171.751 73.638 171.184 73.4759C171.021 73.3949 170.94 73.3948 170.778 73.3138C170.454 73.1517 170.048 72.9897 169.724 72.8276C169.562 72.7466 169.399 72.6655 169.318 72.5845C168.994 72.4224 168.751 72.1793 168.426 71.9362C168.345 71.8552 168.183 71.7742 168.102 71.6931C167.778 71.369 167.372 71.0449 167.129 70.6397C166.886 70.3155 166.399 69.1 166.318 68.7759C166.318 68.7759 166.318 82.1466 166.318 83.038C166.318 83.9293 167.453 85.0638 167.778 85.388C167.859 85.469 168.021 85.55 168.102 85.6311C168.345 85.8742 168.67 86.0362 168.994 86.1983C169.156 86.2793 169.318 86.3604 169.399 86.4414C169.724 86.6035 170.129 86.7656 170.454 86.9276C170.616 87.0087 170.697 87.0087 170.859 87.0897C170.94 87.0897 170.94 87.1707 171.021 87.1707C171.508 87.3328 171.994 87.4949 172.481 87.5759H172.562C172.968 87.6569 173.292 87.738 173.697 87.819C173.86 87.819 174.022 87.819 174.103 87.9C174.265 87.9 174.346 87.9 174.508 87.9C174.671 87.9 174.752 87.9 174.914 87.9811C175.319 87.9811 175.725 87.9811 176.13 87.9811H176.211C176.293 87.9811 176.374 87.9811 176.455 87.9811C176.779 87.9811 177.103 87.9811 177.428 87.9C177.59 87.9 177.752 87.819 177.914 87.819C178.077 87.819 178.239 87.738 178.401 87.738C178.563 87.738 178.644 87.738 178.806 87.6569C179.212 87.5759 179.617 87.4949 180.023 87.3328C180.266 87.2518 180.509 87.1707 180.834 87.0897C180.915 87.0897 180.915 87.0087 180.996 87.0087C181.32 86.8466 181.726 86.6845 182.05 86.5224C182.131 86.4414 182.212 86.4414 182.294 86.3604C182.699 86.1173 183.023 85.8742 183.348 85.6311C183.348 85.6311 183.348 85.6311 183.429 85.6311C183.672 85.469 183.915 85.2259 184.078 85.0638L184.159 84.9828C184.321 84.8207 184.483 84.6587 184.645 84.4966C184.645 84.4966 184.645 84.4156 184.726 84.4156C184.889 84.2535 184.97 84.0104 185.051 83.8483C185.132 83.7673 185.132 83.6862 185.213 83.6052C185.213 83.6052 185.213 83.6052 185.213 83.5242C185.294 83.4431 185.294 83.2811 185.375 83.2C185.456 83.038 185.456 82.9569 185.537 82.7949V82.7138C185.537 82.6328 185.537 82.5518 185.618 82.3897C185.618 82.2276 185.7 82.1466 185.7 81.9845C185.7 81.9035 185.7 81.8224 185.7 81.7414L186.024 68.0466C185.862 68.0466 185.862 68.2897 185.862 68.5328Z" fill="white" stroke="black" stroke-width="2" stroke-miterlimit="10" stroke-linejoin="round"/>
</g>
<defs>
<clipPath id="clip0">
<rect width="160" height="94" fill="white" transform="translate(45 8.00006)"/>
</clipPath>
</defs>
</svg>
