<svg width="120" height="120" viewBox="0 0 120 120" fill="none" xmlns="http://www.w3.org/2000/svg">
<rect x="90.9805" y="26.5" width="68" height="51" rx="4.5" transform="rotate(90 90.9805 26.5)" fill="#F7F7FE" stroke="black" stroke-linecap="round" stroke-linejoin="round" stroke-dasharray="8 10"/>
<path d="M79.4805 42.4375V20C79.4805 18.8954 78.585 18 77.4805 18H32.4805C31.3759 18 30.4805 18.8954 30.4805 20V85C30.4805 86.1046 31.3759 87 32.4805 87H77.4805C78.585 87 79.4805 86.1046 79.4805 85V73.5833" stroke="black" stroke-width="3" stroke-linecap="round" stroke-linejoin="round"/>
<path d="M41.8552 43.0789C41.8552 43.0789 41.7604 42.035 41.7138 41.5116C41.9604 41.3702 42.1966 41.2168 42.4177 41.0453C42.8102 41.271 43.5924 41.7237 43.5924 41.7237L44.9265 41.3732L46.4396 38.7576L46.0891 37.4235C46.0891 37.4235 45.0814 36.8384 44.5775 36.5496C44.564 36.2594 44.5324 35.9706 44.4738 35.6938C44.8738 35.3494 45.671 34.668 45.671 34.668V33.2888L43.7022 30.9936H42.3229C42.3229 30.9936 41.6686 31.5531 41.3423 31.8344C40.9873 31.6629 40.6128 31.5215 40.2217 31.4147C40.1901 31.0267 40.127 30.2491 40.127 30.2491L39.1523 29.2744L36.1396 29.5181L35.165 30.4927C35.165 30.4927 35.2477 31.517 35.2883 32.0284C34.9935 32.1953 34.7153 32.3848 34.4551 32.5969C34.0324 32.4014 33.1826 32.0148 33.1826 32.0148L31.8485 32.3638L30.5866 35.1133L30.543 35.3013L30.9385 36.4474C30.9385 36.4474 31.9222 36.8971 32.4155 37.1227C32.4366 37.4476 32.4862 37.7619 32.5675 38.0703C32.1914 38.3861 31.4409 39.0254 31.4409 39.0254V40.4031L33.3947 42.7104C33.3947 42.7104 34.5303 42.8457 34.592 42.8111C34.6536 42.778 34.7754 42.7104 34.7754 42.7104C34.7754 42.7104 35.4899 42.1057 35.8464 41.8019C36.1472 41.9373 36.4615 42.0501 36.7879 42.1388C36.824 42.5449 36.8992 43.3556 36.8992 43.3556L37.8739 44.3302L40.882 44.055L41.8552 43.0789ZM38.3281 39.8421C36.6495 39.8421 35.2883 38.4809 35.2883 36.8023C35.2883 35.1223 36.6495 33.7611 38.3281 33.7611C40.0096 33.7611 41.3708 35.1223 41.3708 36.8023C41.3708 38.4794 40.0096 39.8421 38.3281 39.8421Z" fill="#9595EF"/>
<path d="M50.2148 52.9681C50.2148 52.9681 50.1426 52.1784 50.108 51.7813C50.2945 51.6761 50.4735 51.5602 50.6404 51.4309C50.9367 51.5993 51.5278 51.9438 51.5278 51.9438L52.5371 51.6791L53.6817 49.7012L53.4169 48.6935C53.4169 48.6935 52.6559 48.2513 52.2738 48.0332C52.2648 47.8136 52.2407 47.5955 52.1956 47.3864C52.4979 47.1277 53.1011 46.6103 53.1011 46.6103V45.568L51.612 43.8323H50.5682C50.5682 43.8323 50.0734 44.2549 49.8267 44.467C49.559 44.3376 49.2747 44.2309 48.9799 44.1496C48.9558 43.8563 48.9092 43.2682 48.9092 43.2682L48.1722 42.5312L45.895 42.7163L45.158 43.4532C45.158 43.4532 45.2212 44.2278 45.2513 44.6129C45.0287 44.7392 44.8166 44.8836 44.6211 45.0431C44.3022 44.8957 43.66 44.6039 43.66 44.6039L42.6507 44.8686L41.6972 46.9472L41.6641 47.0886L41.9634 47.955C41.9634 47.955 42.7079 48.2949 43.0794 48.4648C43.0959 48.7115 43.1335 48.9461 43.1952 49.1823C42.9109 49.4214 42.3439 49.9027 42.3439 49.9027V50.9451L43.8209 52.6898C43.8209 52.6898 44.6797 52.7921 44.7264 52.7665C44.773 52.7409 44.8647 52.6898 44.8647 52.6898C44.8647 52.6898 45.4047 52.2311 45.6739 52.0039C45.9011 52.1047 46.1387 52.1919 46.3869 52.2581C46.4155 52.565 46.4711 53.1771 46.4711 53.1771L47.2081 53.9141L49.4823 53.7051L50.2148 52.9681ZM47.548 50.5209C46.2786 50.5209 45.2498 49.4891 45.2498 48.2212C45.2498 46.9517 46.2786 45.9229 47.548 45.9229C48.819 45.9229 49.8493 46.9532 49.8493 48.2212C49.8493 49.4891 48.819 50.5209 47.548 50.5209Z" fill="#9595EF"/>
<path d="M73.1546 68.9191C73.1486 68.4393 73.111 67.961 73.0283 67.5008C73.7036 66.9578 75.0588 65.8734 75.0588 65.8734L75.1325 63.6007L72.01 59.7111L69.7328 59.6374C69.7328 59.6374 68.6258 60.5279 68.0723 60.9716C67.4963 60.6707 66.8856 60.4166 66.2479 60.2195C66.2163 59.5773 66.1516 58.2913 66.1516 58.2913L64.5949 56.6338L59.6179 56.8759L57.9574 58.4312C57.9574 58.4312 58.0401 60.1233 58.0777 60.9685C57.5844 61.2288 57.1136 61.5281 56.6744 61.8605C55.987 61.5175 54.6078 60.8332 54.6078 60.8332L52.3893 61.3401L50.1648 65.8072L50.082 66.1125L50.6716 68.0242C50.6716 68.0242 52.2705 68.8153 53.0706 69.2139C53.0887 69.7509 53.1549 70.2743 53.2707 70.7827C52.6345 71.285 51.362 72.3003 51.362 72.3003L51.2883 74.5699L54.3867 78.4775C54.3867 78.4775 56.2518 78.7603 56.354 78.7077C56.4563 78.655 56.6609 78.5512 56.6609 78.5512C56.6609 78.5512 57.8717 77.5916 58.4763 77.1118C58.9636 77.3525 59.475 77.5555 60.0105 77.7165C60.0481 78.3873 60.1278 79.7289 60.1278 79.7289L61.6845 81.3864L66.6555 81.0946L68.316 79.5424C68.316 79.5424 68.2167 77.8142 68.1656 76.9494C68.5762 76.7298 68.9763 76.4861 69.3523 76.2169C69.984 76.611 71.2535 77.3991 71.2535 77.3991L73.472 76.8907L76.1071 72.6598L75.5987 70.4397C75.6018 70.4382 73.9713 69.4245 73.1546 68.9191ZM62.6787 74.0119C59.9112 73.9232 57.7378 71.6069 57.828 68.8409C57.9168 66.0674 60.2346 63.8985 63.0006 63.9857C65.7711 64.076 67.9415 66.3908 67.8542 69.1628C67.764 71.9318 65.4492 74.1007 62.6787 74.0119Z" fill="#9595EF"/>
<path d="M82.3996 58.3103C82.3996 58.3103 80.6458 57.2198 79.7674 56.6768C79.7614 56.1594 79.7238 55.648 79.6321 55.1532C80.36 54.5681 81.8175 53.401 81.8175 53.401L81.8972 50.9568L78.5371 46.7725L76.09 46.6928C76.09 46.6928 74.8972 47.6478 74.3031 48.1292C73.6834 47.8028 73.0276 47.529 72.3373 47.3185C72.3057 46.6266 72.238 45.2443 72.238 45.2443L70.567 43.459L65.2094 43.7207L63.4256 45.3932C63.4256 45.3932 63.5143 47.2117 63.555 48.1201C63.0225 48.4014 62.5186 48.7203 62.0479 49.0827C61.3079 48.7127 59.8218 47.9787 59.8218 47.9787L57.4394 48.5247L55.0434 53.3257L54.9531 53.6566L55.5894 55.7112C55.5894 55.7112 56.7114 56.2677 57.5973 56.7069L58.59 55.7759L58.9961 55.3984L59.5481 55.3713L63.5429 55.1773C64.2423 52.9121 66.3661 51.2907 68.8478 51.372C71.8289 51.4667 74.1647 53.9575 74.0685 56.937C74.0444 57.7387 73.8338 58.4877 73.4984 59.1616L76.3035 62.6571L76.6525 63.0917L76.6344 63.6482L76.5878 65.0892C77.1699 65.4501 77.7279 65.7976 77.7279 65.7976L80.1134 65.2516L82.9455 60.7018L82.3996 58.3103Z" fill="#9595EF"/>
<path d="M30.9749 52.9698C31.4171 52.9698 31.7825 52.8495 32.0728 52.6118C32.3631 52.3757 32.5827 52.0388 32.7286 51.6041C32.8745 51.1664 32.9482 50.5933 32.9482 49.8819C32.9482 49.2833 32.9016 48.805 32.8128 48.4545C32.7211 48.0981 32.5948 47.7988 32.4368 47.5506C32.2744 47.3054 32.0728 47.1159 31.8292 46.9865C31.584 46.8572 31.2997 46.791 30.9749 46.791C30.5342 46.791 30.1687 46.9083 29.8784 47.146C29.5881 47.3821 29.3685 47.7175 29.2196 48.1537C29.0752 48.5929 29 49.166 29 49.8819C29 51.019 29.1985 51.8387 29.5956 52.3441C29.931 52.7607 30.3898 52.9698 30.9749 52.9698ZM30.1491 47.8394C30.3522 47.5506 30.6259 47.4047 30.9673 47.4047C31.3133 47.4047 31.6021 47.5686 31.8367 47.895C32.0683 48.2229 32.1856 48.8847 32.1856 49.8804C32.1856 50.8716 32.0683 51.5319 31.8367 51.8598C31.6036 52.1922 31.3163 52.3561 30.9764 52.3561C30.6349 52.3561 30.3477 52.1922 30.116 51.8628C29.8829 51.5334 29.7671 50.8731 29.7671 49.8804C29.7641 48.8907 29.8919 48.2079 30.1491 47.8394Z" fill="black"/>
<path d="M35.36 47.5997C35.0486 47.8779 34.6847 48.1141 34.2695 48.3111V49.0286C34.5012 48.9443 34.7629 48.8165 35.0532 48.6465C35.3434 48.4766 35.5766 48.3036 35.7556 48.1351V52.8685H36.4986V46.792H36.0188C35.8909 47.0537 35.6713 47.3214 35.36 47.5997Z" fill="black"/>
<path d="M32.5798 56.5769C32.4189 56.3318 32.2189 56.1423 31.9722 56.0129C31.727 55.8836 31.4428 55.8174 31.1179 55.8174C30.6787 55.8174 30.3117 55.9347 30.0214 56.1723C29.7311 56.407 29.5145 56.7424 29.3656 57.1801C29.2197 57.6148 29.1445 58.1923 29.1445 58.9053C29.1445 60.0423 29.3446 60.8636 29.7432 61.3659C30.0756 61.7841 30.5328 61.9946 31.1179 61.9946C31.5601 61.9946 31.9271 61.8743 32.2189 61.6367C32.5061 61.399 32.7257 61.0606 32.8731 60.6259C33.019 60.1912 33.0927 59.6182 33.0927 58.9053C33.0927 58.3081 33.0476 57.8283 32.9574 57.4764C32.8641 57.1214 32.7378 56.8236 32.5798 56.5769ZM31.9782 60.8876C31.7451 61.2185 31.4593 61.384 31.1179 61.384C30.7765 61.384 30.4907 61.2185 30.2575 60.8891C30.0244 60.5613 29.9116 59.8995 29.9116 58.9068C29.9116 57.9156 30.0365 57.2342 30.2921 56.8642C30.4952 56.5769 30.7689 56.4295 31.1104 56.4295C31.4578 56.4295 31.7466 56.5935 31.9797 56.9199C32.2129 57.2493 32.3287 57.9096 32.3287 58.9053C32.3272 59.8995 32.2113 60.5582 31.9782 60.8876Z" fill="black"/>
<path d="M36.6416 61.8919V55.8154H36.1618C36.034 56.0771 35.8129 56.3464 35.503 56.6246C35.1932 56.9029 34.8292 57.139 34.4141 57.3361V58.0535C34.6442 57.9693 34.9059 57.8414 35.1962 57.6715C35.4865 57.5015 35.7211 57.3285 35.8986 57.1601V61.8934L36.6416 61.8919Z" fill="black"/>
<path d="M40.7143 61.8919V55.8154H40.236C40.1082 56.0771 39.8871 56.3464 39.5772 56.6246C39.2674 56.9029 38.9034 57.139 38.4883 57.3361V58.0535C38.7169 57.9693 38.9801 57.8414 39.2704 57.6715C39.5607 57.5015 39.7968 57.3285 39.9728 57.1601V61.8934L40.7143 61.8919Z" fill="black"/>
<path d="M46.0549 56.5769C45.894 56.3318 45.6939 56.1423 45.4473 56.0129C45.2021 55.8836 44.9178 55.8174 44.5944 55.8174C44.1538 55.8174 43.7868 55.9347 43.4965 56.1723C43.2062 56.407 42.9896 56.7424 42.8407 57.1801C42.6948 57.6178 42.6211 58.1923 42.6211 58.9068C42.6211 60.0438 42.8196 60.8636 43.2182 61.3689C43.5506 61.7856 44.0094 61.9946 44.5944 61.9946C45.0351 61.9946 45.4021 61.8743 45.6924 61.6367C45.9827 61.4005 46.1993 61.0636 46.3467 60.6289C46.4926 60.1912 46.5678 59.6182 46.5678 58.9068C46.5678 58.3081 46.5212 57.8298 46.4294 57.4794C46.3407 57.1214 46.2158 56.8236 46.0549 56.5769ZM45.4533 60.8876C45.2201 61.2185 44.9344 61.384 44.5944 61.384C44.2515 61.384 43.9657 61.2185 43.7311 60.8891C43.498 60.5613 43.3852 59.8995 43.3852 58.9068C43.3852 57.9156 43.513 57.2342 43.7657 56.8642C43.9718 56.5769 44.2425 56.4295 44.5839 56.4295C44.9314 56.4295 45.2201 56.5935 45.4533 56.9199C45.6864 57.2493 45.8022 57.9096 45.8022 58.9053C45.8037 59.8995 45.6879 60.5582 45.4533 60.8876Z" fill="black"/>
<path d="M32.5798 66.721C32.4189 66.4744 32.2189 66.2863 31.9722 66.1555C31.727 66.0261 31.4428 65.96 31.1179 65.96C30.6787 65.96 30.3117 66.0773 30.0214 66.3149C29.7311 66.5496 29.5145 66.888 29.3656 67.3227C29.2197 67.7603 29.1445 68.3334 29.1445 69.0493C29.1445 70.1879 29.3446 71.0076 29.7432 71.51C30.0756 71.9281 30.5328 72.1402 31.1179 72.1402C31.5601 72.1402 31.9271 72.0199 32.2189 71.7822C32.5061 71.5446 32.7257 71.2062 32.8731 70.7715C33.019 70.3368 33.0927 69.7608 33.0927 69.0493C33.0927 68.4537 33.0476 67.9724 32.9574 67.6205C32.8641 67.267 32.7378 66.9677 32.5798 66.721ZM31.9782 71.0332C31.7451 71.3626 31.4593 71.5266 31.1179 71.5266C30.7765 71.5266 30.4907 71.3641 30.2575 71.0332C30.0244 70.7038 29.9116 70.045 29.9116 69.0508C29.9116 68.0597 30.0365 67.3798 30.2921 67.0098C30.4952 66.7225 30.7689 66.5751 31.1104 66.5751C31.4578 66.5751 31.7466 66.7391 31.9797 67.0655C32.2129 67.3949 32.3287 68.0551 32.3287 69.0508C32.3272 70.042 32.2113 70.7023 31.9782 71.0332Z" fill="black"/>
<path d="M37.2806 66.721C37.1181 66.4744 36.9166 66.2863 36.6729 66.1555C36.4278 66.0261 36.1435 65.96 35.8186 65.96C35.3794 65.96 35.0124 66.0773 34.7221 66.3149C34.4318 66.5496 34.2122 66.888 34.0633 67.3227C33.9174 67.7603 33.8438 68.3334 33.8438 69.0478C33.8438 70.1864 34.0423 71.0061 34.4394 71.5085C34.7733 71.9266 35.2305 72.1372 35.8156 72.1372C36.2578 72.1372 36.6248 72.0199 36.9136 71.7792C37.2039 71.5431 37.4235 71.2062 37.5694 70.7685C37.7152 70.3338 37.7889 69.7608 37.7889 69.0478C37.7889 68.4507 37.7423 67.9709 37.6536 67.619C37.5648 67.267 37.4385 66.9677 37.2806 66.721ZM36.6789 71.0332C36.4458 71.3626 36.16 71.5266 35.8186 71.5266C35.4772 71.5266 35.1899 71.3641 34.9583 71.0332C34.7251 70.7038 34.6093 70.045 34.6093 69.0508C34.6093 68.0597 34.7372 67.3798 34.9929 67.0098C35.1959 66.7225 35.4697 66.5751 35.8111 66.5751C36.1585 66.5751 36.4473 66.7391 36.6804 67.0655C36.9121 67.3949 37.0294 68.0551 37.0294 69.0508C37.0279 70.042 36.9106 70.7023 36.6789 71.0332Z" fill="black"/>
<path d="M41.9768 66.721C41.8173 66.4744 41.6158 66.2863 41.3721 66.1555C41.124 66.0261 40.8397 65.96 40.5178 65.96C40.0786 65.96 39.7116 66.0773 39.4214 66.3149C39.1296 66.5496 38.9115 66.888 38.7626 67.3227C38.6167 67.7603 38.543 68.3334 38.543 69.0478C38.543 70.1864 38.7415 71.0061 39.1386 71.5085C39.4725 71.9266 39.9297 72.1372 40.5148 72.1372C40.9555 72.1372 41.324 72.0199 41.6128 71.7792C41.9031 71.5431 42.1197 71.2062 42.2671 70.7685C42.413 70.3338 42.4882 69.7608 42.4882 69.0478C42.4882 68.4507 42.4415 67.9709 42.3498 67.619C42.2641 67.267 42.1377 66.9677 41.9768 66.721ZM41.3767 71.0332C41.145 71.3626 40.8562 71.5266 40.5178 71.5266C40.1749 71.5266 39.8891 71.3641 39.656 71.0332C39.4229 70.7038 39.3085 70.045 39.3085 69.0508C39.3085 68.0597 39.4364 67.3798 39.6906 67.0098C39.8951 66.7225 40.1689 66.5751 40.5088 66.5751C40.8547 66.5751 41.145 66.7391 41.3782 67.0655C41.6113 67.3949 41.7286 68.0551 41.7286 69.0508C41.7271 70.042 41.6098 70.7023 41.3767 71.0332Z" fill="black"/>
<path d="M46.0455 72.0349V65.96H45.5672C45.4378 66.2217 45.2167 66.4909 44.9054 66.7676C44.594 67.0474 44.2315 67.2836 43.8164 67.4806V68.1995C44.048 68.1123 44.3082 67.9844 44.5985 67.8145C44.8888 67.6445 45.125 67.4716 45.3009 67.3031V72.0379H46.0455V72.0349Z" fill="black"/>
<path d="M50.0592 76.6188C49.7479 76.897 49.3839 77.1332 48.9688 77.3302V78.0476C49.2004 77.9619 49.4621 77.8356 49.7524 77.6656C50.0427 77.4971 50.2758 77.3242 50.4548 77.1542V81.8876H51.1978V75.8096H50.718C50.5886 76.0713 50.369 76.3405 50.0592 76.6188Z" fill="black"/>
<path d="M32.5798 76.8646C32.4189 76.6194 32.2189 76.4314 31.9722 76.3006C31.727 76.1682 31.4428 76.1035 31.1179 76.1035C30.6787 76.1035 30.3117 76.2208 30.0214 76.457C29.7311 76.6931 29.5145 77.0315 29.3656 77.4662C29.2197 77.9039 29.1445 78.48 29.1445 79.1944C29.1445 80.3315 29.3446 81.1497 29.7432 81.6551C30.0756 82.0702 30.5328 82.2808 31.1179 82.2808C31.5601 82.2808 31.9271 82.1635 32.2189 81.9258C32.5061 81.6882 32.7257 81.3482 32.8731 80.9121C33.019 80.4774 33.0927 79.9028 33.0927 79.1944C33.0927 78.5943 33.0476 78.1145 32.9574 77.764C32.8641 77.4106 32.7378 77.1112 32.5798 76.8646ZM31.9782 81.1768C31.7451 81.5077 31.4593 81.6731 31.1179 81.6731C30.7765 81.6731 30.4907 81.5077 30.2575 81.1768C30.0244 80.8474 29.9116 80.1901 29.9116 79.1974C29.9116 78.2032 30.0365 77.5234 30.2921 77.1534C30.4952 76.8661 30.7689 76.7217 31.1104 76.7217C31.4578 76.7217 31.7466 76.8826 31.9797 77.212C32.2129 77.5384 32.3287 78.2002 32.3287 79.1974C32.3272 80.1871 32.2113 80.8474 31.9782 81.1768Z" fill="black"/>
<path d="M35.503 76.9112C35.1917 77.191 34.8292 77.4256 34.4141 77.6241V78.3416C34.6442 78.2559 34.9059 78.1295 35.1962 77.9596C35.4865 77.7911 35.7211 77.6166 35.8986 77.4482V82.1815H36.6416V76.1035H36.1618C36.034 76.3667 35.8129 76.6345 35.503 76.9112Z" fill="black"/>
<path d="M39.5772 76.9112C39.2659 77.191 38.9034 77.4256 38.4883 77.6241V78.3416C38.7169 78.2559 38.9801 78.1295 39.2704 77.9596C39.5607 77.7911 39.7968 77.6166 39.9728 77.4482V82.1815H40.7158V76.1035H40.2375C40.1082 76.3667 39.8871 76.6345 39.5772 76.9112Z" fill="black"/>
<path d="M46.0549 76.8646C45.894 76.6194 45.6939 76.4314 45.4473 76.3006C45.2021 76.1682 44.9178 76.1035 44.5944 76.1035C44.1538 76.1035 43.7868 76.2208 43.4965 76.457C43.2062 76.6931 42.9896 77.0315 42.8407 77.4662C42.6948 77.9039 42.6211 78.48 42.6211 79.1944C42.6211 80.3315 42.8196 81.1497 43.2182 81.6551C43.5506 82.0702 44.0094 82.2808 44.5944 82.2808C45.0351 82.2808 45.4021 82.1635 45.6924 81.9258C45.9827 81.6882 46.1993 81.3482 46.3467 80.9121C46.4926 80.4774 46.5678 79.9028 46.5678 79.1944C46.5678 78.5943 46.5212 78.1145 46.4294 77.764C46.3407 77.4106 46.2158 77.1112 46.0549 76.8646ZM45.4533 81.1768C45.2201 81.5077 44.9344 81.6731 44.5944 81.6731C44.2515 81.6731 43.9657 81.5077 43.7311 81.1768C43.498 80.8474 43.3852 80.1901 43.3852 79.1974C43.3852 78.2032 43.513 77.5234 43.7657 77.1534C43.9718 76.8661 44.2425 76.7217 44.5839 76.7217C44.9314 76.7217 45.2201 76.8826 45.4533 77.212C45.6864 77.5384 45.8022 78.2002 45.8022 79.1974C45.8037 80.1871 45.6879 80.8474 45.4533 81.1768Z" fill="black"/>
<rect x="44.4805" y="26" width="30" height="3" rx="1.5" fill="black"/>
<rect x="62.4805" y="32" width="12" height="3" rx="1.5" fill="black"/>
</svg>
