<svg xmlns="http://www.w3.org/2000/svg" width="96" height="88" viewBox="0 0 96 88">
  <g fill="none">
    <path fill="#F5F3FF" stroke="#000" stroke-dasharray="8 10" stroke-linecap="round" stroke-linejoin="round" d="M54.4431818,87 C76.842094,87 95,68.842094 95,46.4431818 C95,24.0442696 76.842094,5.88636364 54.4431818,5.88636364 C32.0442696,5.88636364 13.8863636,24.0442696 13.8863636,46.4431818 C13.8863636,68.842094 32.0442696,87 54.4431818,87 Z"/>
    <path fill="#FFF" d="M40.5568182,81.1136364 C62.9557304,81.1136364 81.1136364,62.9557304 81.1136364,40.5568182 C81.1136364,18.157906 62.9557304,0 40.5568182,0 C18.157906,0 0,18.157906 0,40.5568182 C0,62.9557304 18.157906,81.1136364 40.5568182,81.1136364 Z"/>
    <path fill="#77BC1F" d="M73.6630571,4.21820076 C72.5237746,6.93894024 71.0785735,9.5225882 69.338003,11.8953261 C61.721688,4.28147377 51.3837536,0 40.6133138,0 C18.3340102,0 0,18.3491733 0,40.6529098 C0,51.7784143 4.55713027,62.4293712 12.6164995,70.1064965 L14.1144451,71.4352298 C21.4353905,77.6043484 30.7078848,81 40.2757486,81 C61.4579652,81 79.2645298,64.40138 80.7730243,43.2471032 C81.8806601,32.8914204 78.8425733,19.793907 73.6630571,4.21820076 Z M18.3867548,70.3384976 C17.7327222,71.1505012 16.7305755,71.6250488 15.6862331,71.6250488 C13.7768799,71.6250488 12.2156409,70.053769 12.2156409,68.1450332 C12.2156409,66.2362974 13.7874289,64.6650176 15.6862331,64.6650176 C16.4774016,64.6650176 17.2580211,64.9392006 17.8698581,65.4453847 C19.3572547,66.6475719 19.5893308,68.8515818 18.3867548,70.3384976 Z M73.4942745,58.1689884 C63.4728075,71.5301393 42.0690637,67.02721 28.3449283,67.6704856 C28.3449283,67.6704856 25.9081295,67.8181226 23.4607818,68.2188517 C23.4607818,68.2188517 24.3785372,67.8286681 25.5705643,67.3752116 C35.2017216,64.021742 39.7588518,63.3679208 45.6134984,60.3624528 C56.6371121,54.7522458 67.5341389,42.4772816 69.8021551,29.7066788 C65.6036879,41.9921885 52.8816992,52.5482359 41.2884442,56.8402552 C33.3451129,59.7719047 18.9985917,62.6191902 18.9985917,62.6191902 L18.4184015,62.3133707 C8.65010839,57.5573493 8.35473883,36.392527 26.1085588,29.5590418 C33.8831075,26.5641193 41.3200909,28.2092175 49.7170254,26.2055722 C58.6836012,24.0753808 69.0531823,17.3473506 73.2727474,8.57349303 C77.9986602,22.609556 83.6845242,44.586382 73.4942745,58.1689884 Z"/>
  </g>
</svg>
