<svg xmlns="http://www.w3.org/2000/svg" width="77" height="87" viewBox="0 0 77 87">
  <g fill="none" fill-rule="evenodd">
    <path fill="#F7F7FE" fill-rule="nonzero" stroke="#000" stroke-dasharray="8 10" d="M44,6 L76,24 L76,72 L44,87 L9,72 L9,24 L44,6 Z"/>
    <polyline fill="#D9A741" points="66.891 26.393 65.809 26.375 33.239 16.722 33.219 16.276 33.219 0 66.893 16.858 66.891 26.393"/>
    <polyline fill="#876929" points="33.566 17.17 33.57 0 .004 16.772 0 64.222 .017 64.23 .017 64.231 33.563 81 33.674 80.845 33.631 64.889 33.565 64.8 31.468 63.305 5.507 55.572 5.638 25.558 33.566 17.17"/>
    <polyline fill="#D9A741" points="38.677 51.164 4.551 55.972 4.553 25.028 38.68 29.843 38.677 51.164"/>
    <path fill="#876929" fill-rule="nonzero" d="M20.9766043,49.4042747 L33.2170235,50.9662921 L33.2191011,30.488764 L20.9789416,32.0494798 L20.9766043,49.4042747 M8.64606742,47.8313231 L16.5896663,48.8435104 L16.5920036,32.6081614 L8.64606742,33.6226917 L8.64606742,47.8313231"/>
    <polyline fill="#624A1E" points="4.096 24.732 33.355 15.927 66.893 26.028 38.392 29.579 4.096 24.732"/>
    <path fill="#D9A741" fill-rule="nonzero" d="M66.8932584,46.3927813 L33.2214699,50.637606 L33.2235756,30.0337079 L66.8932584,34.3182334 L66.8932584,46.3927813 M66.8908896,54.6636823 L66.1662925,54.6949696 L33.3249086,64.6254144 L33.2214699,64.7513525 L33.2191011,81 L66.8908896,64.186077 L66.8908896,54.6636823"/>
    <polyline fill="#FAD791" points="4.096 56.261 33.361 65.073 66.893 54.982 38.38 51.421 4.096 56.261"/>
  </g>
</svg>
