<svg xmlns="http://www.w3.org/2000/svg" width="224" height="176" viewBox="0 0 224 176">
    <g fill="none" fill-rule="evenodd">
        <path fill="#9595EF" d="M87.935 31.849C73.995 35.642-5.029 63.59.253 106.015c4.905 39.39 34.773 36.197 109.583 36.197 92.867 0 132.161-50.223 105.794-76.45-13.183-13.114-40.69-35.946-69.986-36.352-29.297-.407-43.768-1.355-57.709 2.439z" opacity=".57"/>
        <path fill="#FFF" d="M207 125.794v-1.09l-.004-6.084-3.838-.312-98.186-56.404a14.382 14.382 0 0 0-14.336.02l-71.033 41.008c-.215.125-.41.267-.607.408L16 103.096v7.472l.155.012a7.084 7.084 0 0 0 3.477 4.814l97.391 55.714a14.382 14.382 0 0 0 14.13.073l72.15-40.236a7.095 7.095 0 0 0 3.602-5.16l.095.009z"/>
        <path fill="#000" fill-rule="nonzero" d="M207.077 117.623a1 1 0 0 1 .919.997l.003 6.084.001 1.09c0 .217-.07.418-.187.582-.479 2.282-1.89 4.253-4.024 5.443l-72.148 40.236a15.382 15.382 0 0 1-15.115-.08l-97.39-55.712a8.072 8.072 0 0 1-3.847-4.992.998.998 0 0 1-.289-.703v-7.472a1 1 0 0 1 1.081-.997l2.634.214c.096-.066 23.903-13.818 71.421-41.256a15.383 15.383 0 0 1 15.334-.02l97.992 56.293 3.615.293zm-1.078 7.095l-.003-5.176-2.92-.237c-.097-.008-32.965-18.852-98.601-56.533a13.382 13.382 0 0 0-13.34.017L20.104 103.8a5.403 5.403 0 0 0-.463.309c-.256.183-.49.247-.725.228L17 104.181v5.864a.998.998 0 0 1 .136.34 6.081 6.081 0 0 0 2.992 4.141l97.391 55.714a13.382 13.382 0 0 0 13.148.068l72.148-40.236c1.722-.96 2.812-2.572 3.102-4.44.01-.064.037-.369.082-.914z"/>
        <path fill="#FFF" d="M90.636 55.924L19.603 96.932c-4.817 2.78-4.8 9.703.028 12.463l97.392 55.713a14.383 14.383 0 0 0 14.13.074l72.15-40.236c4.895-2.73 4.938-9.722.076-12.511l-98.407-56.53a14.38 14.38 0 0 0-14.336.019"/>
        <path fill="#000" fill-rule="nonzero" d="M90.136 55.058a15.38 15.38 0 0 1 15.334-.021l98.407 56.53c5.536 3.176 5.487 11.143-.087 14.252l-72.15 40.236a15.384 15.384 0 0 1-15.114-.079l-97.391-55.713c-5.5-3.142-5.517-11.03-.032-14.197l71.033-41.008zm1 1.732L20.103 97.798c-4.148 2.395-4.135 8.352.025 10.73l97.39 55.712a13.383 13.383 0 0 0 13.149.068l72.149-40.236c4.216-2.351 4.253-8.368.065-10.77l-98.407-56.53a13.38 13.38 0 0 0-13.338.018z"/>
        <path fill="#9595EF" d="M108 97c0 7.18-10.074 13-22.5 13S63 104.18 63 97s10.074-13 22.5-13S108 89.82 108 97"/>
        <path fill="#000" fill-rule="nonzero" d="M131 110h1c0 7.878-10.594 14-23.5 14-12.905 0-23.5-6.121-23.5-14s10.595-14 23.5-14 23.5 6.121 23.5 14h-1zm0 0h-1c0-6.48-9.553-12-21.5-12S87 103.52 87 110s9.553 12 21.5 12 21.5-5.52 21.5-12h1z"/>
        <path fill="#000" fill-rule="nonzero" d="M153 124h1c0 7.879-10.594 14-23.5 14-12.905 0-23.5-6.121-23.5-14 0-7.878 10.595-14 23.5-14s23.5 6.122 23.5 14h-1zm0 0h-1c0-6.48-9.553-12-21.5-12-11.946 0-21.5 5.52-21.5 12s9.553 12 21.5 12 21.5-5.52 21.5-12h1zM107 97a1 1 0 0 1 2 0c0 1.496-.38 2.957-1.11 4.342a1 1 0 0 1-1.769-.934c.583-1.103.879-2.246.879-3.408zm-6.277 8.519a1 1 0 1 1 .985 1.74 25.517 25.517 0 0 1-3.785 1.735 1 1 0 0 1-.688-1.878 23.523 23.523 0 0 0 3.488-1.597zm-11.021 3.293a1 1 0 1 1 .205 1.989 38.13 38.13 0 0 1-3.864.199 1 1 0 0 1-.883-.528c-.141-.263-.164-.458-.156-.735a1 1 0 0 1 1.634-.743 35.972 35.972 0 0 0 3.064-.182zm.61-5.237a1 1 0 1 1-1.33-1.492c.995-.888 2.155-1.7 3.455-2.424a1 1 0 0 1 .972 1.748 17.235 17.235 0 0 0-3.096 2.168zm10.338-4.81a1 1 0 0 1-.423-1.954 35.603 35.603 0 0 1 4.067-.632 1 1 0 1 1 .194 1.99 33.604 33.604 0 0 0-3.838.597z"/>
        <path fill="#FFF" d="M86.572 67.911l-4.377-1.644a1.825 1.825 0 0 1-1.074-2.362l23.23-60.386c.776-2.016 3.06-3.03 5.1-2.263 2.04.767 3.066 3.023 2.29 5.04L88.34 67.126a1.375 1.375 0 0 1-1.767.784"/>
        <path fill="#000" fill-rule="nonzero" d="M87.406 66.768l23.402-60.832c.575-1.496-.187-3.172-1.709-3.744-1.528-.574-3.237.184-3.814 1.686l-23.23 60.385a.825.825 0 0 0 .492 1.068l4.377 1.644a.375.375 0 0 0 .482-.207zm-1.185 2.08l-4.378-1.645a2.825 2.825 0 0 1-1.655-3.657l23.23-60.386c.974-2.53 3.832-3.8 6.385-2.84 2.558.962 3.847 3.798 2.871 6.334L89.273 67.486a2.374 2.374 0 0 1-3.052 1.362z"/>
        <path fill="#9595EF" d="M82.635 66.116c3.897.728 6.767 7.623 1.474 11.582C78.816 81.656 81.446 88 81.446 88s-7.78-5.523-7.435-13.383c.208-4.732 3.716-9.419 8.624-8.501"/>
        <path fill="#000" fill-rule="nonzero" d="M80.394 80.945c.59-1.555 1.615-2.926 3.116-4.048 4.063-3.039 2.636-9.108-1.059-9.798-3.884-.726-7.236 2.918-7.44 7.562-.143 3.222 1.176 6.298 3.485 9.114.428.522.873 1.013 1.326 1.472-.119-1.432.037-2.891.572-4.302zm2.425-15.812c5.404 1.01 7.349 9.282 1.889 13.366-1.195.893-1.988 1.954-2.444 3.156-.615 1.62-.592 3.387-.175 5.056.11.438.217.752.28.906.385.927-.684 1.78-1.502 1.198-.26-.184-.694-.524-1.245-1.009a23.772 23.772 0 0 1-2.672-2.763c-2.595-3.164-4.104-6.686-3.938-10.47.253-5.737 4.561-10.421 9.807-9.44z"/>
    </g>
</svg>
