<svg xmlns="http://www.w3.org/2000/svg" width="116" height="97" viewBox="0 0 116 97">
  <defs>
    <linearGradient id="swift-a" x1="50%" x2="50%" y1="0%" y2="100%">
      <stop offset="0%" stop-color="#F88A36"/>
      <stop offset="100%" stop-color="#FD2020"/>
    </linearGradient>
  </defs>
  <g fill="none" fill-rule="evenodd" transform="translate(0 .54)">
    <path fill="#F7F7FE" fill-rule="nonzero" stroke="#000" stroke-dasharray="8 10" stroke-linecap="round" stroke-linejoin="round" d="M22.1396902,67.4564927 C34.9907585,76.2653296 47.1506608,79.6344961 58.619397,77.5639923 C70.0881332,75.4934884 60.0564932,58.0134802 28.5244771,25.1239675 C33.8263969,25.1239675 37.4748466,25.1239675 39.4698261,25.1239675 C41.4648056,25.1239675 41.4648056,22.8556778 39.4698261,18.3190983 L84.1612069,56.1357896 C84.8585811,35.5092067 83.6431404,22.9036429 80.5148848,18.3190983 C75.8225013,11.4422813 102.921873,30.2937928 102.921873,47.9267779 C102.921873,65.5597629 118.663161,91.5394435 114.84376,94.5531137 C111.024358,97.5667839 106.569617,83.7486856 93.5422508,89.4812799 C80.5148848,95.2138741 63.1847489,99.6676619 45.854613,89.8839489 C34.3011891,83.3614736 26.3962148,75.8856549 22.1396902,67.4564927 Z"/>
    <path fill="url(#swift-a)" d="M72.471125,80.138975 C61.15365,86.676775 45.592425,87.3485 29.936625,80.638525 C17.2604225,75.245325 6.74247,65.8048 1.77635684e-15,55.0184 C3.236405,57.715 7.01213,59.87325 11.057515,61.7599 C27.225475,69.338025 43.39004,68.819075 54.765715,61.7793 C54.75844,61.772025 54.75359,61.767175 54.74874,61.7599 C38.566715,49.3536 24.812115,33.171575 14.564065,19.95775 C12.4055725,17.799985 10.78737,15.1029 9.1691675,12.6757175 C21.575225,24.0028925 41.2640425,38.2958425 48.2747175,42.3431675 C33.4434175,26.6994925 20.2271675,7.2825175 20.7655175,7.8208675 C44.2298175,31.5543425 66.0766425,45.0397675 66.0766425,45.0397675 C66.7992925,45.4471675 67.3570425,45.7866675 67.8056675,46.0897925 C68.2785425,44.8869925 68.6932175,43.6381175 69.0424175,42.3431675 C72.8181425,28.5885675 68.5040675,12.9448925 59.0635425,0.0002425 C80.9079425,13.21528 93.8550175,38.0266675 88.4593925,58.7943675 C88.3187425,59.3545425 88.1659675,59.9074425 88.0010675,60.4506425 C88.0641175,60.5258175 88.1271675,60.6034175 88.1902175,60.6834425 C98.9766175,74.1688675 96.0108425,88.4618175 94.6625425,85.7652175 C88.8110175,74.3143675 77.9785425,77.8160675 72.4713675,80.1392175 L72.471125,80.138975 Z"/>
  </g>
</svg>
