<svg xmlns="http://www.w3.org/2000/svg" width="96" height="88" viewBox="0 0 96 88">
  <g fill="none" fill-rule="evenodd">
    <path fill="#F5F3FF" fill-rule="nonzero" stroke="#000" stroke-dasharray="8 10" stroke-linecap="round" stroke-linejoin="round" d="M54.4431818,87 C76.842094,87 95,68.842094 95,46.4431818 C95,24.0442696 76.842094,5.88636364 54.4431818,5.88636364 C32.0442696,5.88636364 13.8863636,24.0442696 13.8863636,46.4431818 C13.8863636,68.842094 32.0442696,87 54.4431818,87 Z"/>
    <circle cx="40.5" cy="40.5" r="40.5" fill="#1A171B"/>
    <path fill="#FFF" d="M58.1269543,15.0645069 C54.0260794,15.2073282 50.446893,17.4637781 47.7825559,20.5850375 C44.8324271,24.0073881 42.8697798,28.0666018 41.4556633,32.2099948 C38.9261694,30.14019 36.9745749,27.460636 32.9163319,26.2922131 C29.77957,25.3930381 26.4849122,25.7644365 23.4552038,28.0180488 C22.0199291,29.0884201 21.0311844,30.7064306 20.5609701,32.2273352 C19.343592,36.1799846 21.8408751,39.6975494 22.9751999,40.960556 L25.4551145,43.6139418 C25.9663817,44.1341517 27.1976547,45.4914266 26.5957551,47.437327 C25.9452236,49.5528472 23.3904664,50.9227333 20.7700244,50.1156198 C19.5996993,49.7593548 17.9184227,48.8888702 18.2948468,47.6630665 C18.4505322,47.1617733 18.8099035,46.7865917 19.0025366,46.3530834 C19.1793801,45.9807392 19.2636966,45.7014023 19.3173812,45.5374573 C19.7961219,43.9768276 19.1421167,41.9464326 17.4677875,41.4309519 C15.9058803,40.9529893 14.307657,41.3316391 13.6880731,43.3396493 C12.9854359,45.6206909 14.0787078,49.7606159 19.9353862,51.5633797 C26.7972304,53.6681805 32.6018031,49.9381178 33.4250728,45.0730518 C33.9436033,42.0258828 32.565487,39.7621815 30.04073,36.8505825 L27.983661,34.5793145 C26.7375457,33.3364857 26.3096476,31.218128 27.5993421,29.5900286 C28.6875613,28.2166744 30.2374684,27.6305713 32.7758045,28.3197706 C36.480992,29.3242486 38.1325841,31.8909328 40.8885008,33.9610529 C39.7507023,37.6873322 39.0070121,41.4274838 38.3337436,44.7814189 L37.9235298,47.2818945 C35.9536193,57.5981299 34.4498179,63.2627428 30.5418919,66.5148429 C29.7546225,67.0738321 28.6291398,67.9105819 26.9327052,67.9689084 C26.0434349,67.9963377 25.7560642,67.3856428 25.7437483,67.1195475 C25.7225903,66.4962415 26.2486997,66.2105989 26.5982815,65.9300009 C27.1206014,65.6456195 27.9103972,65.1739625 27.8567126,63.6628315 C27.79987,61.8770928 26.318174,60.328759 24.1764727,60.3996967 C22.5722493,60.4542399 20.1270719,61.9615875 20.2189674,64.7205917 C20.3146524,67.5703961 22.9751999,69.7060942 26.9863898,69.5708396 C29.1306175,69.4973797 33.9186557,68.6259493 38.6375355,63.0256532 C44.1297899,56.6059477 45.6658021,49.2463963 46.8212851,43.8598592 L48.1109796,36.7484322 C48.8275116,36.834188 49.593623,36.8912534 50.4269981,36.911116 C57.2673685,37.0551984 60.6889747,33.517771 60.7398172,30.9447813 C60.773607,29.3876196 59.7163354,27.855365 58.2362183,27.8900457 C57.1767362,27.9199972 55.8456729,28.6240146 55.5260914,30.0869079 C55.2140889,31.5220566 57.7028456,32.8172217 55.7575669,34.0751838 C54.3756612,34.9680532 51.898273,35.5973495 48.409403,35.0859674 L49.0438291,31.5854277 C50.3385763,24.947234 51.9355364,16.7818302 57.9936901,16.5832046 C58.4351673,16.5608198 60.0507591,16.6030671 60.0883384,17.6696551 C60.0993911,18.02592 60.0109693,18.1167203 59.5931765,18.9323464 C59.1678047,19.5682636 59.0073824,20.1095972 59.0272773,20.7316421 C59.0856988,22.4265806 60.3766564,23.5404603 62.2436187,23.4733059 C64.7434282,23.3925946 65.4624865,20.9627414 65.4214336,19.7148682 C65.3203801,16.782776 62.224987,14.9305135 58.1266385,15.0645069 L58.1269543,15.0645069 Z"/>
  </g>
</svg>
