<svg width="120" height="120" viewBox="0 0 120 120" fill="none" xmlns="http://www.w3.org/2000/svg">
<path d="M99.3443 51.3116C100.577 54.2299 101.413 57.3617 101.783 60.6372L101.286 60.6934C101.427 61.9422 101.5 63.2124 101.5 64.5C101.5 65.7876 101.427 67.0578 101.286 68.3066L101.783 68.3628C101.413 71.6383 100.577 74.7701 99.3443 77.6884L98.8837 77.4938C97.8865 79.8554 96.6255 82.075 95.1386 84.1146L95.5426 84.4091C93.6363 87.0239 91.3639 89.3471 88.8024 91.3006L88.4992 90.903C86.4861 92.4383 84.292 93.7416 81.9554 94.774L82.1575 95.2313C79.2525 96.5148 76.1302 97.3863 72.8621 97.773L72.8033 97.2765C71.5559 97.4241 70.2868 97.5 69 97.5C67.7132 97.5 66.4441 97.4241 65.1967 97.2765L65.1379 97.773C61.8698 97.3863 58.7475 96.5148 55.8425 95.2313L56.0446 94.774C53.708 93.7416 51.5139 92.4383 49.5008 90.903L49.1976 91.3006C46.6361 89.3471 44.3637 87.0239 42.4574 84.4091L42.8614 84.1146C41.3745 82.075 40.1135 79.8554 39.1163 77.4938L38.6557 77.6884C37.4233 74.7701 36.5875 71.6383 36.217 68.3628L36.7138 68.3066C36.5726 67.0578 36.5 65.7876 36.5 64.5C36.5 63.2124 36.5726 61.9422 36.7138 60.6934L36.217 60.6372C36.5875 57.3617 37.4233 54.2299 38.6557 51.3116L39.1163 51.5062C40.1135 49.1446 41.3745 46.925 42.8614 44.8854L42.4574 44.5909C44.3637 41.9761 46.6361 39.6529 49.1976 37.6994L49.5008 38.097C51.5139 36.5617 53.708 35.2584 56.0446 34.226L55.8425 33.7687C58.7475 32.4852 61.8698 31.6137 65.1379 31.227L65.1967 31.7235C66.4441 31.5759 67.7132 31.5 69 31.5C70.2868 31.5 71.5559 31.5759 72.8033 31.7235L72.8621 31.227C76.1302 31.6137 79.2525 32.4852 82.1575 33.7687L81.9554 34.226C84.292 35.2584 86.4861 36.5617 88.4992 38.097L88.8024 37.6994C91.3639 39.6529 93.6363 41.9761 95.5426 44.5909L95.1386 44.8854C96.6255 46.925 97.8865 49.1446 98.8837 51.5062L99.3443 51.3116Z" fill="#F7F6FC" stroke="black" stroke-dasharray="8 10"/>
<path d="M63.4368 53.4332H53.8371V42.9971H50.063V53.4332H40.4609V57.1412H50.063V67.5762H53.8371V57.1412H63.4368V53.4332Z" fill="#E8762D"/>
<path d="M44.1294 70.4707H35.5282V61.127H32.2719V70.4707H23.6719V73.3192H32.2719V82.6641H35.5282V73.3192H44.1294V70.4707Z" fill="#C72037"/>
<path d="M80.2204 37.0489H71.6204V27.6611H68.3618V37.0489H59.7617V39.8963H68.3618V49.196H71.6204V39.8963H80.2204V37.0489Z" fill="#5B879B"/>
<path d="M59.2324 80.8383H53.3963V74.3223H50.615V80.8383H44.7812V83.3544H50.615V89.8716H53.3963V83.3544H59.2324V80.8383Z" fill="#5C6692"/>
<path d="M44.1294 37.0477H35.4274V27.6611H32.375V37.0477H23.6719V39.8117H32.375V49.196H35.4274V39.8117H44.1294V37.0477Z" fill="#EB9129"/>
<path d="M86.8262 54.0295H80.9912V47.5146H78.2099V54.0295H72.375V56.5456H78.2099V63.0617H80.9912V56.5456H86.8262V54.0295Z" fill="#5C6692"/>
<path fill-rule="evenodd" clip-rule="evenodd" d="M80.2204 70.4707H71.6204V61.127H68.3618V70.4707H59.7617V73.3192H68.3618V82.6641H71.6204V73.3192H80.2204V70.4707Z" fill="#1F457E"/>
<path d="M50.9599 21V27.3933H45.1875V29.3278H50.9599V35.7211H53.0357V29.3278H58.8104V27.3933H53.0357V21H50.9599Z" fill="#7199A6"/>
<path d="M30.6252 54.281H24.8308V48.0117H22.7944V54.281H17V56.2967L22.7944 56.2608V62.5648H24.8308V56.248L30.6252 56.2144V54.281Z" fill="#7199A6"/>
</svg>
