<svg xmlns="http://www.w3.org/2000/svg" width="78" height="70" viewBox="0 0 78 70">
  <g fill="none" fill-rule="evenodd" transform="translate(-2)">
    <path fill="#AA73FF" fill-opacity=".08" stroke="#000" stroke-dasharray="8 10" stroke-linecap="round" stroke-linejoin="round" d="M26,40 L18,35 L18,25 L53,5 L79,20 L79,30.0498756 L71,35 L53,25 L53,35 L61,40 L61,50.0498756 L53,55 L53,64 L44,69 L35,65 L35,35 L26,40 Z"/>
    <g fill-rule="nonzero">
      <path fill="#E55B2D" d="M36.6407788,9.99938437 L36.6407788,19.9998035 L53.9606523,30.0002278 L53.9606523,19.9998035 L36.6407788,9.99938437 Z M1.99999995,19.9998035 L1.99999995,30.0002278 L10.6599341,34.9994081 L10.6599341,25.0000156 L1.99999995,19.9998035 Z M27.9798075,25.0000156 L19.3198734,30.0002278 L19.3198734,59.9994319 L27.9798075,64.9996441 L27.9798075,44.9998272 L36.6407788,50.0000394 L36.6407788,39.9996203 L27.9798075,34.9994081 L27.9798075,25.0000156 Z"/>
      <path fill="#ED8E24" d="M36.6407788,9.99938437 L10.6599341,25.0000156 L10.6599341,34.9994081 L27.9798075,25.0000156 L27.9798075,34.9994081 L36.6407788,30.0002278 L36.6407788,9.99938437 Z M62.6216183,14.9995966 L53.9606523,19.9998035 L53.9606523,30.0002278 L62.6216183,25.0000156 L62.6216183,14.9995966 Z M45.3007129,34.9994081 L36.6407788,39.9996203 L36.6407788,50.0000394 L45.3007129,44.9998272 L45.3007129,34.9994081 Z M36.6407788,50.0000394 L27.9798075,44.9998272 L27.9798075,64.9996441 L36.6407788,59.9994319 L36.6407788,50.0000394 Z"/>
      <path fill="#F8BF3C" d="M36.6407788,-8.12651041e-06 L1.99999995,19.9998035 L10.6599341,25.0000156 L36.6407788,9.99938437 L53.9606523,19.9998035 L62.6216183,14.9995966 L36.6407788,-8.12651041e-06 Z M36.6407788,30.0002278 L27.9798075,34.9994081 L36.6407788,39.9996203 L45.3007129,34.9994081 L36.6407788,30.0002278 Z"/>
    </g>
  </g>
</svg>
