<svg width="83" height="80" viewBox="0 0 83 80" fill="none" xmlns="http://www.w3.org/2000/svg">
<path d="M53.7034 7.3652L53.4537 7.21536L53.2001 7.35866L48.9318 9.77119L49.1778 10.2065L38.507 16.2378L38.261 15.8025L29.7243 20.6276L29.9704 21.0629L19.2996 27.0942L19.0535 26.6589L14.7852 29.0714L14.5312 29.215V29.5067V31.9811H15.0312V38.1671H14.5312V40.6415V40.9274L14.7777 41.0724L16.881 42.3096L17.1345 41.8787L22.3926 44.9716L22.139 45.4026L24.2423 46.6398L24.4958 46.7889L24.7493 46.6398L26.8525 45.4026L26.599 44.9716L31.8571 41.8787L32.1106 42.3096L33.4603 41.5157V44.3531H33.9603V53.632H33.4603V61.0552H33.9603V70.3341H33.4603V74.0457V74.363L33.7474 74.4981L35.8507 75.4879L36.0636 75.0355L41.3216 77.5099L41.1087 77.9623L43.212 78.952L43.4189 79.0494L43.6279 78.9565L45.8549 77.9668L45.6518 77.5099L51.2192 75.0355L51.4223 75.4924L53.6492 74.5026L53.9461 74.3707V74.0457V71.3239H53.4461V64.5193H53.9461V62.0899L55.6708 61.1198L55.4257 60.684L60.3744 57.9003L60.6196 58.3361L62.5991 57.2226L62.8539 57.0793V56.7869V54.4362H62.3539V48.5595H62.8539V46.2088V45.9317L62.6189 45.7848L60.6394 44.5476L60.3744 44.9716L55.4257 41.8787L55.6907 41.4547L53.9461 40.3643V38.1671H53.4461V31.9811H53.9461V30.3809L57.3991 32.4121L57.6526 31.9811L68.1688 38.1671L67.9152 38.598L72.1217 41.0724L72.3831 41.2262L72.6402 41.0655L74.6197 39.8283L74.3547 39.4043L79.3035 36.3113L79.5685 36.7353L81.548 35.4981L81.783 35.3512V35.0741V32.7234H81.283V26.8467H81.783V24.4961V24.213L81.5403 24.0673L78.4473 22.2115L78.19 22.6403L70.4576 18.0008L70.7148 17.5721L64.5288 13.8605L64.2716 14.2892L56.5391 9.64974L56.7964 9.22099L53.7034 7.3652Z" fill="#F7F6FC" stroke="black" stroke-dasharray="8 10"/>
<path d="M28.8613 38.3626L38.4817 32.7807L47.983 38.3626L38.4817 43.8264L28.8613 38.4817V38.3626ZM0 21.8542L38.4817 0L67.1058 16.2712L57.6045 32.7807L38.4828 21.8542L9.62154 38.2445L0 21.8542Z" fill="#F6BD3A"/>
<path d="M28.8619 60.217V49.2904L38.3632 43.8266L47.9837 38.3628V49.2893L38.4824 54.7531V65.6797L28.8619 71.2626V60.217ZM28.8619 38.3628L19.2415 32.899L9.62109 38.2436V27.3171L38.4824 10.9268V32.7809L28.8619 38.3628ZM57.4861 27.3171V21.8533L67.1065 16.2714L67.2256 27.198L57.6052 32.7798L57.4861 27.3171Z" fill="#EB8C23"/>
<path d="M19.2409 65.4425V32.9001L28.7421 27.5554L28.8613 38.3639L38.4817 43.7086V54.7543L28.8613 49.6467V71.2626L19.2409 65.4425ZM4.7512 35.3943L0 32.5438V21.8544L9.62043 27.3182V38.2448L4.7512 35.3943ZM38.4817 21.8544V10.9268L57.4854 21.8533L57.6045 32.7798L38.4828 21.8533L38.4817 21.8544Z" fill="#E35A2B"/>
</svg>
