<svg width="141" height="140" viewBox="0 0 141 140" fill="none" xmlns="http://www.w3.org/2000/svg">
<g clip-path="url(#clip0)">
<rect x="-489" y="-1321" width="1408" height="4732" fill="white"/>
<g filter="url(#filter0_d)">
<path d="M-326 -139H166V141H-326V-139Z" fill="white"/>
<path d="M-326 -139H166V141H-326V-139Z" stroke="#979797"/>
</g>
<g filter="url(#filter1_d)">
<path d="M-326 -139H166V141H-326V-139Z" fill="white"/>
<path d="M-326 -139H166V141H-326V-139Z" stroke="#979797"/>
</g>
<g clip-path="url(#clip1)">
<path opacity="0.565123" fill-rule="evenodd" clip-rule="evenodd" d="M126.99 73.6468C146.595 90.1348 142.582 108.236 133.336 118.951C124.089 129.664 41.2838 149.644 17.5513 135.241C-6.18116 120.839 -2.9898 103.067 10.2986 92.1967C20.1312 84.1532 45.2368 58.0176 65.9222 57.8857C86.608 57.7534 106.635 58.7449 116.187 66.7786L126.99 73.6468Z" fill="#9595EF"/>
<path d="M133.066 80.1948L71.6189 45.55C70.624 45.005 69.5604 44.7325 68.5311 44.7665L64.6885 44.8687L65.409 45.6863C64.4484 46.2654 63.625 47.117 63.1103 48.2071L45.1667 84.7596L113.407 123.458L112.858 123.867L98.7917 121.789L42.3191 89.7672L9.27955 108.503L4.40768 107.788V113.17C4.37337 114.363 4.95662 115.589 6.15744 116.27L69.183 152.039C72.5796 153.981 76.7653 153.981 80.1962 152.073L115.02 132.622C115.397 132.417 115.706 132.111 115.946 131.804C115.98 131.736 116.049 131.668 116.083 131.6L119.308 126.831L136.017 88.9837C137.424 85.7134 136.188 81.9321 133.066 80.1948Z" fill="white" stroke="black" stroke-width="1.5" stroke-miterlimit="10" stroke-linejoin="round"/>
<path d="M6.15747 111.228L69.183 146.997C72.5796 148.939 76.7653 148.939 80.1962 147.031L116.461 126.796L42.3191 84.7251L6.15747 105.267C3.82446 106.595 3.82446 109.9 6.15747 111.228Z" fill="white" stroke="black" stroke-width="1.5" stroke-miterlimit="10" stroke-linejoin="round"/>
<path d="M116.461 126.796L133.169 88.9492C134.61 85.713 133.341 81.9317 130.253 80.1943L68.7713 45.5496C65.6835 43.8122 61.8066 45.0045 60.2627 48.1726L42.3191 84.7251L116.461 126.796Z" fill="white" stroke="black" stroke-width="1.5" stroke-miterlimit="10" stroke-linejoin="round"/>
<path d="M113.442 112.897L124.352 88.8471C125.518 86.19 124.489 83.124 121.95 81.6933L71.722 53.3847C69.2175 51.954 66.0268 52.9419 64.7573 55.5309L52.8178 79.0702C51.617 81.557 52.5433 84.5207 54.945 85.8834L106.546 115.18C109.085 116.576 112.275 115.52 113.442 112.897Z" fill="#9595EF"/>
<path d="M73.8489 65.2055L75.3242 61.9692C75.4957 61.6286 75.3585 61.1857 75.0154 61.0154L68.2222 57.166C67.8791 56.9616 67.4674 57.0979 67.2959 57.4726L65.6834 60.6407C65.5118 60.9813 65.6491 61.3901 65.9578 61.5605L72.9226 65.5121C73.2657 65.7165 73.7117 65.5461 73.8489 65.2055Z" fill="white"/>
<path d="M34.3936 120.596L43.4169 115.452C44.3432 114.941 45.4754 114.907 46.4361 115.384L58.753 122.708C59.645 123.151 59.6451 124.412 58.7873 124.889L50.2101 129.964C49.2494 130.509 48.0486 130.509 47.088 129.964L34.3593 122.742C33.5702 122.266 33.5702 121.073 34.3936 120.596Z" fill="#9595EF"/>
<path d="M86.4404 68.8845L86.8521 67.9648C86.8864 67.8626 86.8521 67.7604 86.7492 67.6922L76.9368 62.2077C76.8339 62.1395 76.731 62.2077 76.6624 62.2758L76.2163 63.1615C76.182 63.2637 76.2163 63.3659 76.285 63.434L86.1316 68.9527C86.2689 69.0208 86.4061 68.9867 86.4404 68.8845Z" fill="white"/>
<path d="M80.2991 68.4417L80.7108 67.522C80.7451 67.4198 80.7108 67.3176 80.6079 67.2494L75.7703 64.5242C75.6674 64.4561 75.5645 64.5242 75.4959 64.5923L75.0498 65.478C75.0155 65.5802 75.0498 65.6824 75.1185 65.7506L79.9903 68.5099C80.1276 68.578 80.2305 68.5439 80.2991 68.4417Z" fill="white"/>
<path d="M93.8037 91.1177C92.5185 90.3095 91.1049 89.629 89.6055 89.1611C87.3779 80.9945 81.7233 73.0831 74.6978 68.5745C70.7567 66.0224 66.5157 66.0224 63.1315 67.8089H63.0887C63.0459 67.8089 63.0459 67.8514 63.003 67.8514L54.1784 72.7854L57.7339 73.8062C57.3912 74.5718 57.1342 75.4225 56.92 76.2732C56.5345 76.018 56.1061 75.7628 55.7205 75.5076C52.4648 73.551 49.0378 73.6361 46.4247 75.1673L37.7717 80.1438L42.1837 82.6534C42.1837 82.9086 42.1837 83.1638 42.1837 83.419C42.3979 91.9684 48.2239 102.006 55.6777 106.558C67.4582 113.321 79.2815 119.956 91.1477 126.506C91.4047 126.676 91.7046 126.804 91.9616 126.932L89.5627 128.633L90.4194 131.653L99.801 127.229C103.057 125.911 105.541 122.678 106.141 118.51C107.598 108.727 102.286 96.477 93.8037 91.1177Z" fill="#9595EF" stroke="black" stroke-width="1.5" stroke-miterlimit="10" stroke-linejoin="round"/>
<path d="M86.5213 94.9459C85.2362 94.1377 83.8225 93.4572 82.3232 92.9893C80.0956 84.8227 74.441 76.9538 67.4155 72.4027C59.9188 67.5537 51.4797 71.8922 49.6805 80.1014C49.295 79.8462 48.8666 79.591 48.481 79.3358C41.9268 75.3801 34.7728 79.7611 34.9442 87.2897C35.1584 95.8391 40.9844 105.877 48.4382 110.428C60.2187 117.191 72.042 123.827 83.9082 130.377C90.8051 134.163 97.8306 129.867 98.9444 122.381C100.315 112.555 95.0033 100.305 86.5213 94.9459Z" fill="white" stroke="black" stroke-width="1.5" stroke-miterlimit="10" stroke-linejoin="round"/>
</g>
</g>
<defs>
<filter id="filter0_d" x="-370.5" y="-151.5" width="581" height="369" filterUnits="userSpaceOnUse" color-interpolation-filters="sRGB">
<feFlood flood-opacity="0" result="BackgroundImageFix"/>
<feColorMatrix in="SourceAlpha" type="matrix" values="0 0 0 0 0 0 0 0 0 0 0 0 0 0 0 0 0 0 127 0"/>
<feOffset dy="32"/>
<feGaussianBlur stdDeviation="22"/>
<feColorMatrix type="matrix" values="0 0 0 0 0.4286 0 0 0 0 0.400861 0 0 0 0 0.527078 0 0 0 0.126727 0"/>
<feBlend mode="normal" in2="BackgroundImageFix" result="effect1_dropShadow"/>
<feBlend mode="normal" in="SourceGraphic" in2="effect1_dropShadow" result="shape"/>
</filter>
<filter id="filter1_d" x="-370.5" y="-151.5" width="581" height="369" filterUnits="userSpaceOnUse" color-interpolation-filters="sRGB">
<feFlood flood-opacity="0" result="BackgroundImageFix"/>
<feColorMatrix in="SourceAlpha" type="matrix" values="0 0 0 0 0 0 0 0 0 0 0 0 0 0 0 0 0 0 127 0"/>
<feOffset dy="32"/>
<feGaussianBlur stdDeviation="22"/>
<feColorMatrix type="matrix" values="0 0 0 0 0.4286 0 0 0 0 0.400861 0 0 0 0 0.527078 0 0 0 0.126727 0"/>
<feBlend mode="normal" in2="BackgroundImageFix" result="effect1_dropShadow"/>
<feBlend mode="normal" in="SourceGraphic" in2="effect1_dropShadow" result="shape"/>
</filter>
<clipPath id="clip0">
<rect x="-489" y="-1321" width="1408" height="4732" fill="white"/>
</clipPath>
<clipPath id="clip1">
<rect y="29" width="141" height="140" fill="white"/>
</clipPath>
</defs>
</svg>
