<svg width="143" height="139" viewBox="0 0 143 139" fill="none" xmlns="http://www.w3.org/2000/svg">
<g clip-path="url(#clip0)">
<rect x="-1058" y="-1658" width="1408" height="4732" fill="white"/>
<g filter="url(#filter0_d)">
<path d="M-331 -139H161V141H-331V-139Z" fill="white"/>
<path d="M-331 -139H161V141H-331V-139Z" stroke="#979797"/>
</g>
<path opacity="0.585045" fill-rule="evenodd" clip-rule="evenodd" d="M98.0049 72.5415C118.065 87.4206 144.74 77.7553 142.911 104.169C141.081 130.583 114.34 138.223 54.0876 137.51C-6.1646 136.797 -3.569 102.925 9.98685 84.2329C16.765 74.8865 33.9151 57.765 51.861 54.5536C69.807 51.3426 88.2308 65.2916 98.0049 72.5415Z" fill="#9595EF"/>
<path fill-rule="evenodd" clip-rule="evenodd" d="M51.5541 49.2617L43.344 44.5219L42.5823 44.1833L41.7359 43.9294L40.8895 43.7601L40.0431 43.5909L39.112 43.5062H38.181L37.25 43.5909L36.2343 43.6755L35.2186 43.8448L34.2029 44.0987L33.1873 44.4373L32.0869 44.8605L30.9866 45.2837L29.8863 45.7915L28.786 46.384L27.6857 47.0611L26.5854 47.8229L25.485 48.5846L24.3847 49.431L23.369 50.2774L22.3534 51.2085L21.3377 52.1395L20.322 53.1552L19.391 54.1708L18.5446 55.3558L17.6135 56.4561L16.7671 57.6411L15.9207 58.826L15.0743 60.011L14.3972 61.2806L13.6355 62.5502L12.8737 63.8198L12.1966 65.0894L11.5195 66.359L10.927 67.7132L10.3345 69.0675L9.82667 70.4217L9.31883 71.7759L8.98027 73.1302L8.55707 74.4844L8.21851 75.8386L7.96459 77.1929L7.71067 78.5471L7.5414 79.9014L7.37212 81.2556L7.28748 82.5252V83.7948V85.0644L7.37212 86.2493L7.5414 87.4343L7.71067 88.5346L7.96459 89.6349L8.21851 90.6506L8.55707 91.5816L8.98027 92.5127L9.40347 93.3591L9.91131 94.1208L10.4191 94.8826L11.0116 95.5597L11.6041 96.1522L12.1966 96.8293L12.8737 97.3372L15.8361 99.03L20.9991 101.992L51.4695 49.2617H51.5541ZM49.8613 48.6693H49.9459C49.9459 48.6693 49.9459 48.6693 49.8613 48.6693ZM50.7077 48.9232L50.877 49.0078C50.7923 48.9232 50.7077 48.9232 50.7077 48.9232Z" fill="#9595EF" stroke="black" stroke-width="2" stroke-miterlimit="10" stroke-linejoin="round"/>
<path fill-rule="evenodd" clip-rule="evenodd" d="M36.9962 100.977C48.9304 94.1209 58.5793 77.3622 58.5793 63.6506C58.5793 49.8543 48.9304 44.3527 36.9962 51.2085C25.1466 58.0643 15.4977 74.823 15.4977 88.5347C15.4977 102.331 25.1466 107.833 36.9962 100.977Z" fill="white" stroke="black" stroke-width="2" stroke-miterlimit="10" stroke-linejoin="round"/>
<path fill-rule="evenodd" clip-rule="evenodd" d="M49.6073 58.1489L46.6449 56.4561L46.1371 56.2022L45.5446 56.0329L44.9521 55.8636L44.3597 55.779L43.6826 55.6943H43.0054H42.3283L41.6512 55.779L40.8894 55.9483L40.1277 56.1175L39.3659 56.3715L38.6042 56.6254L37.8424 56.9639L37.0806 57.3871L36.3189 57.8103L35.5571 58.3182L34.7954 58.826L34.0336 59.4185L33.2719 60.011L32.5101 60.6034L31.5791 61.2806L30.8173 61.9577L30.1402 62.7194L29.4631 63.4812L28.7859 64.243L28.1088 65.0894L27.5163 65.9358L26.9239 66.7822L26.3314 67.6286L25.7389 68.5596L25.2311 69.4906L24.7232 70.4217L24.2154 71.2681L23.7922 72.1991L23.369 73.1301L22.9458 74.0612L22.6072 74.9922L22.2687 75.9233L21.9301 76.9389L21.6762 77.9546L21.4223 78.9703L21.1684 79.9013L20.9991 80.8324L20.8298 81.848L20.7452 82.7791L20.6605 83.7101V84.6412V85.5722L20.7452 86.4186L20.8298 87.265L20.9991 88.1114L21.1684 88.8731L21.3376 89.6349L21.5916 90.312L21.8455 90.9891L22.184 91.5816L22.5226 92.1741L22.8612 92.6819L23.2844 93.1898L23.7076 93.613L24.1308 94.0362L24.6386 94.3747L26.7546 95.6443L27.5163 96.0675C30.3941 98.0143 32.4255 99.1146 39.0274 95.3058C45.7139 91.5816 54.6857 76.0925 54.6857 68.475C54.6857 60.8574 52.739 59.5031 49.6073 58.1489ZM47.8299 57.5564C47.9145 57.5564 47.8299 57.5564 47.8299 57.5564V57.5564ZM48.4224 57.6411C48.507 57.7257 48.507 57.6411 48.4224 57.6411V57.6411ZM49.0149 57.895H49.0995H49.0149Z" fill="#9595EF"/>
<path fill-rule="evenodd" clip-rule="evenodd" d="M39.1965 95.3905C47.7452 90.3967 54.6856 78.3779 54.6856 68.475C54.6856 58.5721 47.7452 54.5094 39.1119 59.5032C30.5633 64.4123 23.6228 76.5158 23.6228 86.4186C23.6228 96.3215 30.5633 100.3 39.1965 95.3905Z" fill="white" stroke="black" stroke-width="2" stroke-miterlimit="10" stroke-linejoin="round"/>
<path fill-rule="evenodd" clip-rule="evenodd" d="M61.5418 138.811L48.1687 128.231L31.0714 95.8136L30.6482 95.475L30.1404 95.1365L29.7172 94.7133L29.294 94.2054L28.9554 93.6976L28.6169 93.1898L28.3629 92.5973L28.109 92.0048L27.8551 91.3277L27.6858 90.6506L27.5165 89.8888L27.3473 89.127L27.2626 88.3653L27.178 87.5189V86.6725V85.8261L27.2626 84.8951L27.3473 83.964L27.5165 83.033L27.6858 82.1019L27.8551 81.1709L28.109 80.2399L28.3629 79.3088L28.6169 78.3778L28.9554 77.4467L29.294 76.5157L29.7172 75.5847L30.1404 74.6536L30.5636 73.7226L30.9868 72.8762L31.4946 72.0298L32.0024 71.1834L32.5103 70.337L33.1028 69.4906L33.6952 68.6442L34.2877 67.8824L34.8802 67.1207C45.4602 54.7633 69.0747 58.9106 82.4478 63.1426C84.7331 63.8197 86.4259 65.3432 87.4415 67.4592L90.5732 74.2304C91.335 75.9232 91.5042 77.616 91.1657 79.3935L88.5419 91.243L102.931 124.083L87.8647 132.463C88.2033 133.478 84.5638 137.71 80.5011 136.61C79.9086 137.456 80.3318 139.403 75.7612 139.234C75.9305 140.08 74.8302 140.927 72.7989 140.842L63.3192 139.572C62.6421 139.488 62.0496 139.234 61.5418 138.811Z" fill="white" stroke="black" stroke-width="2" stroke-miterlimit="10" stroke-linejoin="round"/>
<path fill-rule="evenodd" clip-rule="evenodd" d="M100.476 125.184L91.9273 118.412L85.41 108.34L79.7391 102.585C76.946 99.7916 75.5072 96.4907 75.4225 92.5973L75.1686 85.4029L62.8112 84.2179L57.8174 90.0581C56.4632 91.6662 54.5165 92.5126 52.5698 91.9201L47.9992 90.4813C47.576 90.312 47.2375 90.0581 47.0682 89.6349C46.8989 89.2117 46.9835 88.7885 47.2375 88.3653L56.8864 73.2147C57.5635 72.1144 58.5792 71.268 59.8488 71.0987L80.3316 67.8824C80.7548 67.7978 81.178 68.0517 81.5166 68.3903L93.874 79.3088C104.623 88.7885 99.5449 88.6192 110.294 91.1584C113.51 91.9201 115.288 92.7665 120.112 94.6286C127.645 109.525 116.304 120.444 105.3 123.914C105.3 123.999 101.407 125.522 100.476 125.184Z" fill="white" stroke="black" stroke-width="2" stroke-miterlimit="10" stroke-linejoin="round"/>
<path fill-rule="evenodd" clip-rule="evenodd" d="M80.5011 136.525C76.3538 136.356 72.2911 135.34 68.8208 132.463C65.3506 129.67 58.918 121.883 58.918 121.883C58.918 121.883 65.4352 129.754 68.8208 132.547C72.1218 135.256 76.3538 136.441 80.5011 136.525Z" fill="white" stroke="black" stroke-width="2" stroke-miterlimit="10" stroke-linejoin="round"/>
<path fill-rule="evenodd" clip-rule="evenodd" d="M87.8648 132.547C84.056 132.463 80.1626 132.547 76.6923 129.5C73.1375 126.453 63.0653 117.566 63.4885 117.058C63.4885 117.058 73.6453 126.707 76.6077 129.5C79.6547 132.293 84.8178 131.701 87.8648 132.547Z" fill="white" stroke="black" stroke-width="2" stroke-miterlimit="10" stroke-linejoin="round"/>
<path fill-rule="evenodd" clip-rule="evenodd" d="M97.0904 127.892C92.0966 127.384 86.7643 126.369 82.5323 123.152C77.9618 119.597 70.6827 111.811 70.6827 111.811C70.6827 111.811 78.8928 120.359 83.0402 123.575C86.7643 126.453 92.943 126.623 97.0904 127.892Z" fill="white" stroke="black" stroke-width="2" stroke-miterlimit="10" stroke-linejoin="round"/>
<path fill-rule="evenodd" clip-rule="evenodd" d="M75.7612 139.234C70.6828 137.456 66.7893 137.372 63.8269 135.34C60.526 133.055 55.2783 126.876 55.2783 126.876C55.2783 126.876 61.0338 133.309 63.8269 135.34C66.5354 137.372 72.7988 138.557 75.7612 139.234Z" fill="white" stroke="black" stroke-width="2" stroke-miterlimit="10" stroke-linejoin="round"/>
<path fill-rule="evenodd" clip-rule="evenodd" d="M131.454 92.0894L123.244 87.3495L122.482 87.011L121.636 86.7571L120.789 86.5878L119.943 86.4185L119.012 86.3339H118.081L117.15 86.4185L116.134 86.5031L115.119 86.6724L114.103 86.9263L113.087 87.2649L111.987 87.6881L110.887 88.1113L109.786 88.6191L108.686 89.2116L107.586 89.8887L106.485 90.6505L105.385 91.4123L104.285 92.2586L103.269 93.105L102.253 94.0361L101.238 94.9671L100.222 95.9828L99.2909 96.9985L98.3599 98.0988L97.4289 99.1991L96.5825 100.384L95.7361 101.569L94.8897 102.754L94.1279 104.024L93.3662 105.293L92.689 106.563L92.0119 107.832L91.3348 109.102L90.7423 110.456L90.1499 111.81L89.642 113.165L89.3035 114.604L88.8803 115.958L88.5417 117.312L88.2031 118.666L87.9492 120.021L87.6953 121.375L87.526 122.729L87.3567 124.083L87.2721 125.437V126.707V127.977L87.3567 129.162L87.526 130.347L87.6953 131.447L87.9492 132.547L88.2031 133.563L88.5417 134.494L88.9649 135.425L89.3881 136.271L89.8959 137.033L90.4038 137.795L90.9962 138.472L91.5887 139.064L92.2658 139.657L92.943 140.165L95.9054 141.858L101.068 144.82L131.454 92.0047V92.0894ZM129.846 91.4123H129.931C129.846 91.4969 129.846 91.4969 129.846 91.4123ZM130.608 91.6662L130.777 91.7508C130.692 91.7508 130.692 91.7508 130.608 91.6662Z" fill="#9595EF" stroke="black" stroke-width="2" stroke-miterlimit="10" stroke-linejoin="round"/>
<path fill-rule="evenodd" clip-rule="evenodd" d="M116.981 143.804C128.915 136.949 138.564 120.19 138.564 106.478C138.564 92.6819 128.915 87.1803 116.981 94.0361C105.047 100.892 95.3978 117.651 95.3978 131.362C95.3978 145.074 105.047 150.66 116.981 143.804Z" fill="#9595EF" stroke="black" stroke-width="2" stroke-miterlimit="10" stroke-linejoin="round"/>
<path fill-rule="evenodd" clip-rule="evenodd" d="M53.5006 132.293L47.1526 132.124C46.2216 132.124 45.3752 131.786 44.6134 131.108L43.5978 130.262C42.7514 129.5 42.3282 128.485 42.3282 127.384V124.93L41.8203 124.76C40.9739 124.507 40.3815 124.083 39.789 123.491L38.0115 121.375C37.4191 120.698 37.1651 119.936 37.1651 119.09L37.0805 117.397L36.4034 117.143C35.4724 116.804 34.7106 116.212 34.2028 115.365L33.1024 113.503C32.3407 112.318 32.0868 111.049 32.1714 109.61L32.256 108.848C29.8861 107.663 28.1087 105.378 28.1933 102.416L28.278 100.469L28.5319 96.4061C28.7858 94.2055 29.5476 93.6977 31.4096 93.5284C32.256 93.4438 33.1871 93.5284 33.9488 93.867L34.9645 94.2902C35.8109 94.7134 36.3187 95.1365 36.9112 95.9829C37.4191 96.7447 37.7576 97.4218 37.8423 98.3529L37.9269 98.9453V100.892L39.1119 101.4L40.3815 102.5C41.4818 103.431 41.9896 104.701 41.9896 106.14L41.905 109.779C42.4975 110.033 42.9207 110.287 43.5131 110.71L44.7827 111.726C45.883 112.572 46.5602 114.35 46.5602 115.704L46.3909 120.19C47.9144 120.275 48.5915 120.782 49.9458 121.883C50.8768 122.644 51.3846 123.576 51.6386 124.76L52.231 128.485L53.5006 132.293Z" fill="white" stroke="black" stroke-width="2" stroke-miterlimit="10" stroke-linejoin="round"/>
<path fill-rule="evenodd" clip-rule="evenodd" d="M29.294 95.8983L32.0024 98.0143L31.6639 102.754C31.6639 102.839 31.4946 102.923 31.41 102.923C31.3253 102.923 31.0714 102.67 30.9868 102.585L29.8864 101.485C29.5479 101.146 29.1247 100.723 29.2093 100.215L29.294 95.8983Z" fill="#9595EF"/>
<path fill-rule="evenodd" clip-rule="evenodd" d="M33.1028 103.177L36.2344 105.293V109.356C36.2344 109.441 36.2344 109.525 36.1498 109.61C36.0652 109.695 35.9805 109.695 35.8959 109.695H35.4727C34.8802 109.695 34.2877 109.441 33.8645 108.933L33.6106 108.594C33.2721 108.171 33.1028 107.748 33.1028 107.155V103.177Z" fill="#9595EF"/>
<path fill-rule="evenodd" clip-rule="evenodd" d="M38.4348 111.98L41.5665 114.35V118.159C41.5665 118.243 41.5665 118.328 41.4818 118.412C41.3972 118.497 41.3126 118.497 41.2279 118.497H40.8047C40.2122 118.497 39.6198 118.243 39.1966 117.735L38.9427 117.397C38.6041 116.974 38.4348 116.55 38.4348 115.958V111.98Z" fill="#9595EF"/>
<path fill-rule="evenodd" clip-rule="evenodd" d="M43.598 122.221L46.7297 124.506L46.4758 127.807C46.4758 127.977 46.3065 128.146 46.1372 128.146H45.714C45.1215 128.146 44.5291 127.892 44.1059 127.384C43.7673 126.961 43.598 125.861 43.598 125.353V122.221Z" fill="#9595EF"/>
<path fill-rule="evenodd" clip-rule="evenodd" d="M37.8423 100.807C37.1652 100.892 36.6574 100.977 36.2342 101.061C35.1338 101.315 33.8642 101.654 33.1871 102.585C32.51 103.431 32.4254 107.409 32.3407 108.679C32.2561 103.347 32.1714 100.807 37.8423 100.807Z" fill="white" stroke="black" stroke-width="2" stroke-miterlimit="10" stroke-linejoin="round"/>
<path fill-rule="evenodd" clip-rule="evenodd" d="M50.7926 82.2712L53.3318 82.5251C53.5857 82.5251 53.755 82.6944 53.8396 82.8636C54.6014 84.0486 49.9462 88.7038 49.0998 89.7195L46.0527 89.127C47.0684 86.7571 48.2534 84.5564 50.1154 82.6097C50.3694 82.3558 50.5386 82.1865 50.7926 82.2712Z" fill="#9595EF"/>
<path fill-rule="evenodd" clip-rule="evenodd" d="M41.8208 109.779C40.3819 109.949 38.5198 110.372 37.9274 111.641C37.5042 112.488 37.4195 116.043 37.2502 117.228C37.081 113.334 36.9963 110.202 41.8208 109.779Z" fill="white" stroke="black" stroke-width="2" stroke-miterlimit="10" stroke-linejoin="round"/>
<path fill-rule="evenodd" clip-rule="evenodd" d="M46.2217 120.275C42.6668 120.528 42.6668 121.967 42.4976 124.93L46.2217 120.275Z" fill="white"/>
<path d="M46.2217 120.275C42.6668 120.528 42.6668 121.967 42.4976 124.93" stroke="black" stroke-width="2" stroke-miterlimit="10" stroke-linejoin="round"/>
<path fill-rule="evenodd" clip-rule="evenodd" d="M61.7109 81.2555C61.9648 82.0173 62.9805 83.964 61.5416 85.7414C62.6419 84.5564 63.6576 84.4718 64.8426 84.4718C62.9805 83.964 62.388 82.3558 61.7109 81.2555Z" fill="white" stroke="black" stroke-width="2" stroke-miterlimit="10" stroke-linejoin="round"/>
<path fill-rule="evenodd" clip-rule="evenodd" d="M78.131 83.8795C76.8614 84.5566 76.4382 84.9798 73.2219 85.2337C75.8458 85.4876 74.9994 86.334 75.2533 87.9422C75.2533 85.4876 76.7768 85.0644 78.131 83.8795Z" fill="white" stroke="black" stroke-width="2" stroke-miterlimit="10" stroke-linejoin="round"/>
</g>
<defs>
<filter id="filter0_d" x="-375.5" y="-151.5" width="581" height="369" filterUnits="userSpaceOnUse" color-interpolation-filters="sRGB">
<feFlood flood-opacity="0" result="BackgroundImageFix"/>
<feColorMatrix in="SourceAlpha" type="matrix" values="0 0 0 0 0 0 0 0 0 0 0 0 0 0 0 0 0 0 127 0"/>
<feOffset dy="32"/>
<feGaussianBlur stdDeviation="22"/>
<feColorMatrix type="matrix" values="0 0 0 0 0.4286 0 0 0 0 0.400861 0 0 0 0 0.527078 0 0 0 0.126727 0"/>
<feBlend mode="normal" in2="BackgroundImageFix" result="effect1_dropShadow"/>
<feBlend mode="normal" in="SourceGraphic" in2="effect1_dropShadow" result="shape"/>
</filter>
<clipPath id="clip0">
<rect x="-1058" y="-1658" width="1408" height="4732" fill="white"/>
</clipPath>
</defs>
</svg>
