<svg width="140" height="140" viewBox="0 0 140 140" fill="none" xmlns="http://www.w3.org/2000/svg">
<g clip-path="url(#clip0)">
<rect x="-490" y="-1658" width="1408" height="4732" fill="white"/>
<g filter="url(#filter0_d)">
<path d="M-327 -139H165V141H-327V-139Z" fill="white"/>
<path d="M-327 -139H165V141H-327V-139Z" stroke="#979797"/>
</g>
<path opacity="0.585045" fill-rule="evenodd" clip-rule="evenodd" d="M95.324 62.8787C115.242 77.8632 141.728 68.1295 139.911 94.7307C138.095 121.332 111.543 129.026 51.7182 128.308C-8.1067 127.59 -5.5295 93.4775 7.9302 74.6529C14.6603 65.2403 31.6887 47.9974 49.5074 44.7632C67.3261 41.5294 85.6192 55.5773 95.324 62.8787" fill="#9595EF"/>
<path d="M54.0678 126.553C53.9768 125.814 53.2485 124.891 52.5203 124.521C50.3356 123.321 48.4239 120.92 47.6046 118.427C46.7854 115.842 47.3315 113.719 48.8791 113.072C49.4253 112.888 49.4253 112.149 49.0611 111.318C47.9688 109.194 46.6943 107.163 45.3289 105.316C44.7827 104.578 44.0544 104.208 43.5993 104.485C42.2338 105.316 39.776 104.485 37.9554 102.547C36.0438 100.515 34.8604 97.653 34.9514 95.437C34.9514 94.6984 34.4962 93.8674 33.859 93.4057C32.2205 92.2054 30.5819 91.2821 28.9434 90.5435C28.3061 90.2665 27.851 90.6358 27.851 91.3745C27.942 93.6827 26.6676 95.16 24.847 94.9754C24.1187 94.883 23.2084 94.5137 22.3892 93.8674C21.2968 93.0364 20.2955 91.9284 19.6582 90.5435C19.2941 89.8048 18.5659 89.3432 18.1107 89.5278C18.0197 89.5278 17.9287 89.6202 17.7466 89.7125C16.9273 89.8972 16.2901 90.4512 16.2901 90.4512C15.926 90.6358 15.6529 90.8205 15.3798 91.0975L11.6475 93.6827L13.2861 99.0379L16.1991 99.6843C16.108 99.9613 16.108 100.146 16.017 100.331C15.2888 101.9 13.5592 102.177 11.5565 100.977C10.9193 100.608 10.4641 100.792 10.3731 101.439C10.1911 103.193 10.1911 105.039 10.3731 106.978C10.3731 107.532 11.0103 108.456 11.5565 108.825C13.2861 109.841 14.9246 112.149 15.6529 114.734C16.3811 117.227 15.835 119.443 14.4695 120.089C14.0143 120.274 14.0143 121.105 14.3785 121.844C15.2888 123.875 16.3811 125.906 17.5645 127.753C18.0197 128.492 18.7479 128.861 19.1121 128.584C20.3865 127.753 22.6622 128.492 24.3918 130.338C26.2124 132.369 27.3958 135.139 27.3048 137.448C27.3048 138.186 27.76 139.017 28.3972 139.479C29.2165 140.033 30.1268 140.587 30.946 141.141C31.7653 141.603 32.5846 141.972 33.4039 142.341C34.0411 142.618 34.5873 142.249 34.4962 141.51C34.4052 139.202 35.6796 137.725 37.5913 138.002C38.4105 138.094 39.3209 138.463 40.2312 139.11L42.3249 145.757L47.9688 142.341C48.2419 142.157 48.5149 141.972 48.788 141.787C49.2432 141.418 49.1522 140.587 48.606 139.848C46.9674 137.448 46.4212 134.678 47.2405 133.016C48.0598 131.446 49.9714 131.169 52.0651 132.369C52.1562 132.462 52.2472 132.462 52.3382 132.554C52.9754 133.016 53.6127 132.739 53.7037 132.092C54.2499 130.338 54.2499 128.492 54.0678 126.553ZM31.1281 124.798C26.9407 122.305 23.9367 117.319 23.9367 112.334C23.8456 107.902 27.3048 105.963 31.2191 108.271C35.4065 110.764 38.5926 115.842 38.6836 120.736C38.7747 125.168 35.1334 127.107 31.1281 124.798Z" fill="#9595EF" stroke="black" stroke-width="2" stroke-miterlimit="10" stroke-linejoin="round"/>
<path d="M44.3277 104.486L37.3184 108.548L42.5071 117.043L48.8792 112.611" stroke="black" stroke-width="2" stroke-miterlimit="10" stroke-linecap="round" stroke-linejoin="round"/>
<path d="M34.7695 94.6059L28.1243 98.4839L21.5701 94.6059L28.3063 90.451" fill="white"/>
<path d="M34.7695 94.6059L28.1243 98.4839L21.5701 94.6059L28.3063 90.451" stroke="black" stroke-width="2" stroke-miterlimit="10" stroke-linecap="round" stroke-linejoin="round"/>
<path d="M47.5133 130.615C47.4223 129.877 46.694 128.953 45.9658 128.584C43.781 127.384 41.8694 124.983 41.0501 122.49C40.2309 119.905 40.777 117.781 42.3246 117.135C42.8707 116.95 42.8707 116.212 42.5066 115.381C41.4143 113.257 40.1398 111.226 38.7744 109.379C38.2282 108.64 37.4999 108.271 37.0448 108.548C35.6793 109.379 33.2215 108.548 31.4009 106.609C29.4892 104.578 28.3058 101.716 28.3969 99.4997C28.3969 98.7611 27.9417 97.9301 27.3045 97.4684C25.666 96.2681 24.0274 95.3448 22.3889 94.6062C21.7516 94.3292 21.2965 94.6985 21.2965 95.4371C21.3875 97.7454 20.1131 99.2227 18.2925 99.0381C16.5629 98.8534 14.2871 96.9144 13.1037 94.6062C12.7396 93.8675 12.0114 93.4059 11.5562 93.5905C10.2818 93.8675 9.09838 94.6062 8.09705 95.4371C7.73292 95.8065 7.73292 96.6374 8.18808 97.3761C9.64457 99.7767 10.0087 102.454 9.28044 104.116C8.5522 105.686 6.82262 105.963 4.81994 104.763C4.18273 104.393 3.72758 104.578 3.63655 105.224C3.45448 106.979 3.45448 108.825 3.63655 110.764C3.72758 111.503 4.36479 112.426 4.91097 112.795C6.64056 113.811 8.27911 116.119 9.00735 118.705C9.7356 121.198 9.18941 123.413 7.82395 124.06C7.3688 124.244 7.3688 125.075 7.73292 125.814C8.64323 127.845 9.7356 129.877 10.919 131.723C11.3741 132.462 12.1024 132.831 12.4665 132.554C13.7409 131.723 16.0167 132.462 17.7463 134.309C19.5669 136.34 20.7503 139.11 20.6593 141.418C20.6593 142.157 21.1144 142.988 21.7516 143.449C22.5709 144.003 23.4812 144.557 24.3005 145.111C25.1198 145.573 25.939 145.942 26.7583 146.312C27.3955 146.589 27.9417 146.219 27.8507 145.481C27.7597 143.172 29.0341 141.695 30.9457 141.972C32.8574 142.157 35.3152 144.096 36.6807 146.496C37.1358 147.235 37.8641 147.789 38.4102 147.604C39.7757 147.235 41.0501 146.589 42.2335 145.758C42.6887 145.388 42.5977 144.557 42.0515 143.819C40.4129 141.418 39.8667 138.648 40.686 136.986C41.5053 135.416 43.4169 135.14 45.5106 136.34C45.6017 136.432 45.6927 136.432 45.7837 136.524C46.4209 136.986 47.0582 136.709 47.1492 136.063C47.6954 134.401 47.6954 132.554 47.5133 130.615ZM24.5736 128.861C20.3862 126.368 17.3822 121.382 17.3822 116.396C17.2911 111.964 20.7503 110.025 24.6646 112.334C28.852 114.827 32.0381 119.905 32.1291 124.798C32.2202 129.23 28.5789 131.169 24.5736 128.861Z" fill="white" stroke="black" stroke-width="2" stroke-miterlimit="10"/>
<path d="M53.6126 132.647L47.5136 136.155L47.2405 129.877L53.6126 126.46" fill="white"/>
<path d="M53.6126 132.647L47.5136 136.155L47.2405 129.877L53.6126 126.46" stroke="black" stroke-width="2" stroke-miterlimit="10" stroke-linecap="round" stroke-linejoin="round"/>
<path d="M136.256 71.8671C136.199 71.4051 135.744 70.8275 135.288 70.5965C133.922 69.8456 132.726 68.3439 132.213 66.7845C131.701 65.1673 132.042 63.8389 133.01 63.4346C133.352 63.3191 133.352 62.857 133.124 62.3372C132.441 61.0088 131.644 59.7381 130.79 58.583C130.448 58.1209 129.992 57.8899 129.708 58.0632C128.854 58.583 127.316 58.0632 126.177 56.8503C124.981 55.5796 124.241 53.7891 124.298 52.403C124.298 51.9409 124.013 51.4211 123.615 51.1323C122.59 50.3815 121.565 49.8039 120.54 49.3418C120.141 49.1686 119.856 49.3996 119.856 49.8616C119.913 51.3056 119.116 52.2297 117.977 52.1142C117.522 52.0564 116.952 51.8254 116.44 51.4211C115.757 50.9013 115.13 50.2082 114.732 49.3418C114.504 48.8798 114.048 48.591 113.764 48.7065C113.707 48.7065 113.65 48.7643 113.536 48.822C113.023 48.9375 112.625 49.2841 112.625 49.2841C112.397 49.3996 112.226 49.5151 112.055 49.6884L109.721 51.3056L110.746 54.6555L112.568 55.0598C112.511 55.2331 112.511 55.3486 112.454 55.4641C111.998 56.446 110.916 56.6192 109.664 55.8684C109.265 55.6374 108.98 55.7529 108.923 56.1572C108.809 57.2546 108.809 58.4097 108.923 59.6226C108.923 59.9691 109.322 60.5467 109.664 60.7777C110.746 61.4131 111.77 62.857 112.226 64.4742C112.682 66.0336 112.34 67.4198 111.486 67.8241C111.201 67.9396 111.201 68.4594 111.429 68.9215C111.998 70.1922 112.682 71.4628 113.422 72.618C113.707 73.08 114.162 73.311 114.39 73.1378C115.187 72.618 116.611 73.08 117.693 74.2352C118.832 75.5058 119.572 77.2385 119.515 78.6825C119.515 79.1445 119.8 79.6643 120.198 79.9531C120.711 80.2997 121.28 80.6462 121.793 80.9927C122.305 81.2815 122.818 81.5126 123.33 81.7436C123.729 81.9169 124.07 81.6858 124.013 81.2238C123.956 79.7798 124.754 78.8557 125.949 79.029C126.462 79.0868 127.031 79.3178 127.601 79.7221L128.911 83.8806L132.441 81.7436C132.612 81.6281 132.783 81.5126 132.954 81.397C133.238 81.166 133.181 80.6462 132.84 80.1841C131.815 78.6825 131.473 76.9497 131.985 75.9101C132.498 74.9282 133.694 74.755 135.003 75.5058C135.06 75.5636 135.117 75.5636 135.174 75.6213C135.573 75.9101 135.972 75.7368 136.028 75.3325C136.37 74.2352 136.37 73.08 136.256 71.8671ZM121.906 70.7697C119.287 69.2103 117.408 66.0914 117.408 62.9725C117.351 60.2002 119.515 58.9873 121.963 60.4312C124.583 61.9906 126.576 65.1673 126.633 68.2284C126.69 71.0008 124.412 72.2137 121.906 70.7697Z" fill="#9595EF" stroke="black" stroke-width="1.5" stroke-miterlimit="10" stroke-linejoin="round"/>
<path d="M130.163 58.0632L125.779 60.6045L129.024 65.9182L133.01 63.1459" stroke="black" stroke-width="1.5" stroke-miterlimit="10" stroke-linecap="round" stroke-linejoin="round"/>
<path d="M124.184 51.8832L120.027 54.309L115.927 51.8832L120.141 49.2841" fill="white"/>
<path d="M124.184 51.8832L120.027 54.309L115.927 51.8832L120.141 49.2841" stroke="black" stroke-width="1.5" stroke-miterlimit="10" stroke-linecap="round" stroke-linejoin="round"/>
<path d="M132.156 74.4086C132.099 73.9465 131.644 73.3689 131.188 73.1379C129.822 72.3871 128.626 70.8854 128.113 69.3259C127.601 67.7087 127.942 66.3803 128.91 65.976C129.252 65.8605 129.252 65.3984 129.024 64.8786C128.341 63.5502 127.544 62.2796 126.69 61.1244C126.348 60.6624 125.892 60.4313 125.608 60.6046C124.754 61.1244 123.216 60.6046 122.077 59.3917C120.881 58.121 120.141 56.3306 120.198 54.9444C120.198 54.4823 119.913 53.9625 119.515 53.6737C118.49 52.9229 117.465 52.3453 116.44 51.8833C116.041 51.71 115.757 51.941 115.757 52.4031C115.813 53.847 115.016 54.7711 113.877 54.6556C112.795 54.5401 111.372 53.3272 110.632 51.8833C110.404 51.4212 109.948 51.1324 109.664 51.2479C108.866 51.4212 108.126 51.8833 107.5 52.4031C107.272 52.6341 107.272 53.1539 107.557 53.616C108.468 55.1177 108.695 56.7926 108.24 57.8323C107.784 58.8141 106.702 58.9874 105.45 58.2366C105.051 58.0055 104.766 58.121 104.709 58.5253C104.596 59.6227 104.596 60.7779 104.709 61.9908C104.766 62.4528 105.165 63.0304 105.507 63.2614C106.589 63.8968 107.614 65.3407 108.069 66.9579C108.525 68.5173 108.183 69.9035 107.329 70.3078C107.044 70.4233 107.044 70.9431 107.272 71.4052C107.841 72.6758 108.525 73.9465 109.265 75.1016C109.55 75.5637 110.005 75.7947 110.233 75.6215C111.03 75.1016 112.454 75.5637 113.536 76.7188C114.675 77.9895 115.415 79.7222 115.358 81.1661C115.358 81.6282 115.643 82.148 116.041 82.4368C116.554 82.7833 117.123 83.1299 117.636 83.4764C118.148 83.7652 118.661 83.9962 119.173 84.2273C119.572 84.4005 119.913 84.1695 119.856 83.7075C119.8 82.2635 120.597 81.3394 121.793 81.5127C122.988 81.6282 124.526 82.8411 125.38 84.3428C125.665 84.8048 126.12 85.1514 126.462 85.0359C127.316 84.8048 128.113 84.4005 128.854 83.8807C129.138 83.6497 129.081 83.1299 128.74 82.6678C127.715 81.1661 127.373 79.4334 127.886 78.3938C128.398 77.4119 129.594 77.2387 130.904 77.9895C130.96 78.0473 131.017 78.0473 131.074 78.105C131.473 78.3938 131.872 78.2205 131.929 77.8162C132.27 76.7766 132.27 75.6215 132.156 74.4086ZM117.806 73.3112C115.187 71.7517 113.308 68.6328 113.308 65.514C113.251 62.7416 115.415 61.5287 117.863 62.9726C120.483 64.5321 122.476 67.7087 122.533 70.7699C122.59 73.5422 120.312 74.7551 117.806 73.3112Z" fill="white" stroke="black" stroke-width="1.5" stroke-miterlimit="10"/>
<path d="M135.972 75.6791L132.156 77.8739L131.986 73.9464L135.972 71.8094" fill="white"/>
<path d="M135.972 75.6791L132.156 77.8739L131.986 73.9464L135.972 71.8094" stroke="black" stroke-width="1.5" stroke-miterlimit="10" stroke-linecap="round" stroke-linejoin="round"/>
<path d="M123.843 102.754C123.651 101.2 122.119 99.2574 120.587 98.4803C115.989 95.9547 111.967 90.9034 110.243 85.6578C108.519 80.218 109.669 75.7495 112.925 74.3896C114.074 74.001 114.074 72.4468 113.308 70.6983C111.009 66.2298 108.328 61.9557 105.455 58.0701C104.305 56.5158 102.773 55.7387 101.815 56.3215C98.9421 58.0701 93.7704 56.3215 89.9395 52.2417C85.9171 47.9675 83.4271 41.9448 83.6186 37.2821C83.6186 35.7279 82.6609 33.9794 81.3201 33.008C77.8723 30.4823 74.4245 28.5395 70.9767 26.9853C69.6359 26.4024 68.6782 27.1796 68.6782 28.7338C68.8697 33.5908 66.1881 36.6993 62.3573 36.3107C60.8249 36.1164 58.9095 35.3393 57.1856 33.9794C54.8871 32.2308 52.7801 29.8995 51.4393 26.9853C50.6731 25.431 49.1407 24.4596 48.183 24.8482C47.9915 24.8482 47.7999 25.0425 47.4169 25.2368C45.693 25.6253 44.3522 26.791 44.3522 26.791C43.586 27.1796 43.0113 27.5681 42.4367 28.151L34.5834 33.5908L38.0312 44.859L44.1606 46.219C43.9691 46.8018 43.9691 47.1904 43.7775 47.5789C42.2452 50.8817 38.6058 51.4645 34.3919 48.9389C33.0511 48.1618 32.0934 48.5503 31.9018 49.9103C31.5187 53.6016 31.5187 57.4872 31.9018 61.5671C31.9018 62.7328 33.2426 64.6756 34.3919 65.4527C38.0312 67.5898 41.479 72.4468 43.0113 77.8866C44.5437 83.1322 43.3944 87.7949 40.5213 89.1548C39.5636 89.5434 39.5636 91.2919 40.3297 92.8462C42.2452 97.1203 44.5437 101.394 47.0338 105.28C47.9915 106.834 49.5238 107.611 50.29 107.029C52.9716 105.28 57.7602 106.834 61.3995 110.72C65.2304 114.994 67.7205 120.822 67.5289 125.679C67.5289 127.234 68.4866 128.982 69.8275 129.954C71.5513 131.119 73.4668 132.285 75.1907 133.451C76.9146 134.422 78.6385 135.199 80.3624 135.976C81.7032 136.559 82.8524 135.782 82.6609 134.228C82.4693 129.371 85.1509 126.262 89.1734 126.845C90.8972 127.039 92.8127 127.817 94.7281 129.177L99.1336 143.165L111.009 135.976C111.584 135.588 112.159 135.199 112.733 134.811C113.691 134.034 113.499 132.285 112.35 130.731C108.902 125.679 107.753 119.851 109.477 116.354C111.201 113.051 115.223 112.468 119.629 114.994C119.82 115.188 120.012 115.188 120.203 115.383C121.544 116.354 122.885 115.771 123.077 114.411C124.226 110.72 124.226 106.834 123.843 102.754ZM75.5738 99.0631C66.7628 93.8176 60.4418 83.3265 60.4418 72.8353C60.2503 63.5099 67.5289 59.43 75.7653 64.287C84.5763 69.5326 91.2803 80.218 91.4719 90.5148C91.6634 99.8402 84.0017 103.92 75.5738 99.0631Z" fill="#9595EF" stroke="black" stroke-width="2" stroke-miterlimit="10" stroke-linejoin="round"/>
<path d="M103.347 56.3215L88.5984 64.8698L99.5164 82.7435L112.924 73.4181" stroke="black" stroke-width="2" stroke-miterlimit="10" stroke-linecap="round" stroke-linejoin="round"/>
<path d="M83.2362 35.5334L69.2535 43.6931L55.4624 35.5334L69.6366 26.7908" fill="white"/>
<path d="M83.2362 35.5334L69.2535 43.6931L55.4624 35.5334L69.6366 26.7908" stroke="black" stroke-width="2" stroke-miterlimit="10" stroke-linecap="round" stroke-linejoin="round"/>
<path d="M110.052 111.303C109.86 109.749 108.328 107.806 106.795 107.029C102.198 104.503 98.1758 99.4521 96.4519 94.2065C94.728 88.7667 95.8773 84.2982 99.1335 82.9383C100.283 82.5497 100.283 80.9955 99.5166 79.2469C97.2181 74.7785 94.5365 70.5044 91.6633 66.6188C90.5141 65.0645 88.9817 64.2874 88.024 64.8702C85.1508 66.6188 79.9792 64.8702 76.1483 60.7904C72.1259 56.5162 69.6358 50.4935 69.8274 45.8308C69.8274 44.2766 68.8696 42.5281 67.5288 41.5567C64.081 39.031 60.6333 37.0882 57.1855 35.534C55.8447 34.9511 54.887 35.7283 54.887 37.2825C55.0785 42.1395 52.3969 45.248 48.566 44.8594C44.9267 44.4708 40.1381 40.391 37.648 35.534C36.8819 33.9797 35.3495 33.0083 34.3918 33.3969C31.7102 33.9797 29.2201 35.534 27.1131 37.2825C26.347 38.0596 26.347 39.8081 27.3047 41.3624C30.3694 46.4136 31.1356 52.0478 29.6032 55.5448C28.0709 58.8476 24.4315 59.4304 20.2176 56.9048C18.8768 56.1276 17.919 56.5162 17.7275 57.8762C17.3444 61.5675 17.3444 65.4531 17.7275 69.533C17.919 71.0872 19.2598 73.03 20.4091 73.8071C24.0484 75.9442 27.4962 80.8012 29.0286 86.241C30.5609 91.4866 29.4117 96.1493 26.5385 97.5093C25.5808 97.8978 25.5808 99.6463 26.347 101.201C28.2624 105.475 30.5609 109.749 33.051 113.634C34.0087 115.189 35.5411 115.966 36.3072 115.383C38.9888 113.634 43.7774 115.189 47.4168 119.074C51.2476 123.348 53.7377 129.177 53.5462 134.034C53.5462 135.588 54.5039 137.337 55.8447 138.308C57.5686 139.474 59.484 140.639 61.2079 141.805C62.9318 142.776 64.6557 143.554 66.3796 144.331C67.7204 144.914 68.8696 144.136 68.6781 142.582C68.4865 137.725 71.1682 134.617 75.1906 135.2C79.213 135.588 84.3847 139.668 87.2578 144.719C88.2155 146.273 89.7479 147.439 90.8972 147.051C93.7703 146.273 96.4519 144.914 98.942 143.165C99.8997 142.388 99.7082 140.639 98.5589 139.085C95.1111 134.034 93.9618 128.205 95.6857 124.708C97.4096 121.406 101.432 120.823 105.838 123.348C106.029 123.543 106.221 123.543 106.412 123.737C107.753 124.708 109.094 124.126 109.285 122.766C110.435 119.269 110.435 115.383 110.052 111.303ZM61.7825 107.612C52.9715 102.366 46.6506 91.8751 46.6506 81.384C46.459 72.0586 53.7377 67.9787 61.9741 72.8357C70.7851 78.0813 77.4891 88.7667 77.6806 99.0635C77.8722 108.389 70.2104 112.469 61.7825 107.612Z" fill="white" stroke="black" stroke-width="2" stroke-miterlimit="10"/>
<path d="M122.885 115.577L110.052 122.96L109.477 109.749L122.885 102.56" fill="white"/>
<path d="M122.885 115.577L110.052 122.96L109.477 109.749L122.885 102.56" stroke="black" stroke-width="2" stroke-miterlimit="10" stroke-linecap="round" stroke-linejoin="round"/>
</g>
<defs>
<filter id="filter0_d" x="-371.5" y="-151.5" width="581" height="369" filterUnits="userSpaceOnUse" color-interpolation-filters="sRGB">
<feFlood flood-opacity="0" result="BackgroundImageFix"/>
<feColorMatrix in="SourceAlpha" type="matrix" values="0 0 0 0 0 0 0 0 0 0 0 0 0 0 0 0 0 0 127 0"/>
<feOffset dy="32"/>
<feGaussianBlur stdDeviation="22"/>
<feColorMatrix type="matrix" values="0 0 0 0 0.4286 0 0 0 0 0.400861 0 0 0 0 0.527078 0 0 0 0.126727 0"/>
<feBlend mode="normal" in2="BackgroundImageFix" result="effect1_dropShadow"/>
<feBlend mode="normal" in="SourceGraphic" in2="effect1_dropShadow" result="shape"/>
</filter>
<clipPath id="clip0">
<rect x="-490" y="-1658" width="1408" height="4732" fill="white"/>
</clipPath>
</defs>
</svg>
