<svg width="191" height="138" viewBox="0 0 191 138" fill="none" xmlns="http://www.w3.org/2000/svg">
<path fill-rule="evenodd" clip-rule="evenodd" d="M180.594 68.6212C190.118 95.1721 156.318 112.441 78.5004 119.69C0.682651 126.939 -0.561545 82.8942 14.3903 56.945C21.8665 43.9699 41.6676 19.5593 64.3812 12.9837C87.0949 6.40867 112.751 21.9041 126.342 29.9308C154.236 46.404 171.07 42.0702 180.594 68.6212Z" fill="#C3C3F6"/>
<path d="M189.61 75.6436L114.346 119.097L39.084 75.6436L114.348 32.1901L189.61 75.6436Z" fill="#9595EF"/>
<path d="M39.084 75.6436V93.2956L114.346 136.749V119.097L39.084 75.6436Z" fill="#9595EF"/>
<path d="M189.608 75.6436V93.2956L114.344 136.749V119.097L189.608 75.6436Z" fill="#15100C"/>
<path d="M190.693 75.0172L189.61 74.3907L114.347 30.9412L39.0833 74.3947L38 75.0192V76.27V93.924L113.262 137.376L114.346 138L115.429 137.376L190.15 94.2352L190.691 93.924V76.2681V75.0172H190.693ZM114.347 33.4409L187.443 75.6416L153.396 95.2986L114.347 117.844L41.2519 75.6436L114.347 33.4409ZM40.1666 92.6711V77.5209L113.262 119.722V134.872L40.1666 92.6711ZM188.526 92.6711L115.429 134.872V119.722L188.526 77.5189V92.6711Z" fill="#140F0C"/>
<path d="M114.344 32.1901L66.9225 59.5678C54.0825 66.9813 43.3453 58.8934 43.3453 58.8934C41.9608 72.7389 56.3369 84.5354 62.3519 88.8287C63.0302 89.3734 63.7504 89.8861 64.5404 90.341L114.344 119.095L189.606 75.6416L114.344 32.1901Z" fill="#9595EF"/>
<path d="M64.9436 90.341L114.747 119.095L182.4 80.0367L115.29 41.2914L67.8682 68.669C57.2328 74.8097 48.0577 70.3229 45.2168 68.5992C48.9036 78.0556 58.2103 85.5848 62.755 88.8287C63.4333 89.3734 64.1555 89.8861 64.9436 90.341Z" fill="#F5F5FF"/>
<path d="M114.345 120.346L64.0009 91.2786C63.2308 90.8357 62.4707 90.311 61.6767 89.6746C55.3964 85.1938 40.8347 73.1419 42.2731 58.7857L42.4627 56.8784L43.9988 58.0276C44.4178 58.3408 54.345 65.5807 66.385 58.632L114.349 30.9412L189.558 74.3628C190.545 74.9314 190.545 76.3558 189.558 76.9264L114.345 120.346ZM44.338 60.7767C44.334 73.2416 57.2338 83.8471 62.9795 87.9489C63.7376 88.5514 64.4079 89.0162 65.0822 89.4053L114.345 117.848L187.443 75.6476L114.347 33.4449L67.4663 60.5114C57.1201 66.4805 47.955 62.7638 44.338 60.7767Z" fill="#140F0C"/>
<path d="M122.213 48.8804C120.355 48.8804 118.5 48.4634 117.052 47.6295C115.468 46.7138 114.596 45.431 114.598 44.0205C114.598 42.61 115.47 41.3292 117.052 40.4175L134.021 30.622C137.766 28.4574 143.631 28.4613 147.368 30.622C149.355 31.7691 150.45 33.3591 150.45 35.1008C150.45 36.8404 149.355 38.4305 147.368 39.5776L136.533 45.832L135.45 43.9587L146.285 37.7043C147.573 36.9601 148.284 36.0345 148.284 35.1028C148.284 34.1671 147.573 33.2434 146.285 32.4993C143.258 30.7536 138.137 30.7516 135.104 32.4993L118.135 42.2948C117.263 42.7976 116.764 43.428 116.764 44.0225C116.762 44.619 117.263 45.2495 118.135 45.7542C120.349 47.027 124.086 47.027 126.292 45.7542L141.497 36.9761L142.58 38.8494L127.374 47.6275C125.927 48.4654 124.07 48.8804 122.213 48.8804Z" fill="#140F0C"/>
<path d="M113.811 125.182L38.5488 82.72L39.6142 81.519L114.876 123.981L113.811 125.182Z" fill="#140F0C"/>
<path d="M113.807 132.063L38.5449 88.8049L39.6243 87.6118L114.884 130.872L113.807 132.063Z" fill="#140F0C"/>
<path d="M114.881 125.78L114.879 123.879L189.074 81.4232L188.996 83.3184L114.881 125.78Z" fill="#9595EF"/>
<path d="M114.881 131.554L114.879 129.655L189.074 87.1987L188.996 89.094L114.881 131.554Z" fill="#9595EF"/>
<path d="M114.885 97.4372C106.674 97.4392 98.464 95.6357 92.2136 92.0247C85.9552 88.4118 82.5059 83.5419 82.5059 78.311C82.5059 73.082 85.9533 68.2122 92.2136 64.5992C104.712 57.3792 125.056 57.3792 137.556 64.5992C143.815 68.2122 147.264 73.082 147.264 78.311C147.264 83.5419 143.817 88.4118 137.556 92.0247C131.306 95.6317 123.093 97.4372 114.885 97.4372ZM114.885 61.3194C107.067 61.3194 99.2481 63.0371 93.2949 66.4725C87.7328 69.6845 84.6704 73.886 84.6704 78.311C84.6704 82.7359 87.7328 86.9394 93.2949 90.1514C105.199 97.0223 124.567 97.0223 136.471 90.1514C142.033 86.9394 145.096 82.7379 145.096 78.311C145.096 73.888 142.033 69.6845 136.471 66.4725C130.52 63.0371 122.702 61.3194 114.885 61.3194Z" fill="white"/>
<path d="M114.3 79.5459L107.258 65.6985L109.187 64.7169L115.473 77.0741L129.165 74.1095L129.622 76.2242L114.3 79.5459Z" fill="white"/>
<path d="M114.346 94.5943C106.134 94.5963 97.925 92.7928 91.6746 89.1818C85.4142 85.5689 81.9668 80.699 81.9668 75.4681C81.9668 70.2391 85.4142 65.3693 91.6746 61.7563C104.173 54.5363 124.517 54.5363 137.017 61.7563C143.278 65.3693 146.725 70.2391 146.725 75.4681C146.725 80.699 143.278 85.5689 137.017 89.1818C130.767 92.7888 122.553 94.5943 114.346 94.5943ZM114.346 58.4765C106.527 58.4765 98.709 60.1942 92.7559 63.6296C87.1937 66.8396 84.1314 71.0431 84.1314 75.4661C84.1314 79.891 87.1937 84.0945 92.7559 87.3065C104.66 94.1774 124.026 94.1774 135.932 87.3065C141.494 84.0945 144.557 79.893 144.557 75.4661C144.557 71.0431 141.494 66.8396 135.932 63.6296C129.981 60.1942 122.162 58.4765 114.346 58.4765Z" fill="#140F0C"/>
<path d="M113.757 76.7031L106.715 62.8556L108.646 61.8741L114.93 74.2312L128.622 71.2667L129.079 73.3814L113.757 76.7031Z" fill="#140F0C"/>
</svg>
