<svg width="52" height="52" viewBox="0 0 52 52" fill="none" xmlns="http://www.w3.org/2000/svg">
<path d="M46.7169 31.8436C46.7816 34.824 46.1337 37.4156 44.9027 39.3593C42.0519 43.9595 30.9727 51.4105 25.4654 48.2357C16.3947 42.9228 7 29.6407 7 19.1446C7 7.15824 17.8849 5.21451 21.5132 3.65953C24.364 2.49329 27.9923 2.81725 31.7501 5.08493C41.0152 10.657 46.3929 21.0235 46.7169 31.8436Z" fill="white" stroke="black" stroke-miterlimit="10" stroke-linejoin="round"/>
<path d="M39.4603 37.8046C39.7194 47.7176 30.3895 51.4755 22.5498 46.8754C13.4143 41.6273 7 29.641 7 19.1448C7 9.62056 14.127 4.56686 22.8738 9.81493C32.0741 15.3222 39.2011 26.9845 39.4603 37.8046Z" fill="white" stroke="black" stroke-miterlimit="10" stroke-linejoin="round"/>
<path d="M20.8008 22.5781V30.1587L27.4742 33.787" stroke="black" stroke-miterlimit="10" stroke-linecap="round" stroke-linejoin="round"/>
<path d="M9.5918 21.9307L12.8961 23.9392" stroke="black" stroke-miterlimit="10" stroke-linecap="round" stroke-linejoin="round"/>
<path d="M33.2402 37.2207L36.5446 39.2292" stroke="black" stroke-miterlimit="10" stroke-linecap="round" stroke-linejoin="round"/>
<path d="M20.8008 37.2207V42.0152" stroke="black" stroke-miterlimit="10" stroke-linecap="round" stroke-linejoin="round"/>
<path d="M20.8008 11.7588V16.5533" stroke="black" stroke-miterlimit="10" stroke-linecap="round" stroke-linejoin="round"/>
</svg>
