<svg width="266" height="208" viewBox="0 0 266 208" fill="none" xmlns="http://www.w3.org/2000/svg">
<path fill-rule="evenodd" clip-rule="evenodd" d="M155.152 148.109V154L163.615 151.725L170.921 144.532L171.152 141.713L163.421 141L156.309 146.217L155.152 148.109Z" fill="white"/>
<path fill-rule="evenodd" clip-rule="evenodd" d="M165.799 149.787C165.799 149.787 168.638 148.86 170.022 147.313L165.799 149.787Z" fill="white"/>
<path d="M165.799 149.787C165.799 149.787 168.638 148.86 170.022 147.313" stroke="black" stroke-width="1.5" stroke-linejoin="round"/>
<path d="M99.1521 47C99.1521 47 102.573 44.3171 105.152 44" stroke="black" stroke-width="1.5" stroke-linejoin="round"/>
<path d="M85.1521 55C85.1521 55 88.5734 52.3171 91.1521 52" stroke="black" stroke-width="1.5" stroke-linejoin="round"/>
<path fill-rule="evenodd" clip-rule="evenodd" d="M161.787 151.953C165.478 150.87 167.881 149.646 169.488 148.308C171.375 146.738 172.407 143.935 172.302 140.584" fill="white"/>
<path d="M161.787 151.953C165.478 150.87 167.881 149.646 169.488 148.308C171.375 146.738 172.407 143.935 172.302 140.584" stroke="black" stroke-width="1.5" stroke-linejoin="round"/>
<path fill-rule="evenodd" clip-rule="evenodd" d="M114.823 38.2783C83.2835 46.8579 19.9438 33.5531 20.5999 81.7413C21.2049 126.177 52.3276 146.894 120.417 168.847C200.839 194.778 227.377 181.362 238.656 152.362C249.934 123.361 238.746 97.3035 215.572 77.4592C192.398 57.6147 146.363 29.6986 114.823 38.2783Z" fill="#C3C3F6"/>
<path fill-rule="evenodd" clip-rule="evenodd" d="M164.475 161.398L93.6945 114.049C91.3746 120.782 89.9371 118.318 89.9242 115.647L89.566 42.7126C89.5385 36.957 95.7462 33.3252 100.749 36.171L175.379 78.6116C177.718 79.9421 183 81.8091 183 84.5001V159" fill="white"/>
<path fill-rule="evenodd" clip-rule="evenodd" d="M171.846 154.281L97.5746 111.841C95.2547 118.572 93.8173 116.109 93.8035 113.437L93.4461 40.5029C93.4178 34.7481 99.6255 31.1164 104.629 33.9613L179.258 76.4019C181.598 77.7324 183.042 80.2168 183.042 82.907V154.909" fill="white"/>
<path d="M170.5 136L97.5746 111.841C95.2547 118.572 93.8173 116.109 93.8035 113.437L93.4461 40.5029C93.4178 34.7481 99.6255 31.1164 104.629 33.9613L179.258 76.4019C181.598 77.7324 183.042 80.2168 183.042 82.907V161.5" stroke="black" stroke-width="2" stroke-linejoin="round"/>
<path d="M164.475 161.398L93.6945 114.049C91.3746 120.781 89.9371 118.318 89.9242 115.646L89.566 42.7124C89.5385 36.9568 95.7462 33.325 100.749 36.1708L175.379 78.6113C177.718 79.9419 179.163 82.4254 179.163 85.1165V148.719" stroke="black" stroke-width="2" stroke-linejoin="round"/>
<path fill-rule="evenodd" clip-rule="evenodd" d="M122.04 5L168.463 30.0092C170.449 31.0982 171.683 33.1672 171.683 35.4137L171.692 134.241C171.692 135.972 169.8 137.057 168.281 136.198L104.131 99.9606C102.183 98.8604 100.98 96.8123 100.98 94.5948V17.3731L122.04 5Z" fill="white"/>
<path fill-rule="evenodd" clip-rule="evenodd" d="M122.04 5L168.463 30.0092C170.449 31.0982 171.683 33.1672 171.683 35.4137L171.692 134.241C171.692 135.972 169.8 137.057 168.281 136.198L104.131 99.9606C102.183 98.8604 100.98 96.8123 100.98 94.5948V17.3731L122.04 5Z" stroke="black" stroke-width="2" stroke-linejoin="round"/>
<path fill-rule="evenodd" clip-rule="evenodd" d="M100.98 17.187L122.07 5V23.799C122.07 25.5024 120.224 26.6076 118.66 25.8425L100.98 17.187Z" fill="white"/>
<path fill-rule="evenodd" clip-rule="evenodd" d="M100.98 17.187L122.07 5V23.799C122.07 25.5024 120.224 26.6076 118.66 25.8425L100.98 17.187Z" stroke="black" stroke-width="2" stroke-linejoin="round"/>
<path fill-rule="evenodd" clip-rule="evenodd" d="M112.987 8.72168L158.595 33.7309C160.547 34.8199 161.759 36.8889 161.759 39.1354L161.768 137.963C161.768 139.694 159.909 140.779 158.415 139.92L95.3918 103.682C93.4783 102.581 92.2966 100.534 92.2966 98.3165V21.0948L112.987 8.72168Z" fill="white"/>
<path fill-rule="evenodd" clip-rule="evenodd" d="M112.987 8.72168L158.595 33.7309C160.547 34.8199 161.759 36.8889 161.759 39.1354L161.768 137.963C161.768 139.694 159.909 140.779 158.415 139.92L95.3918 103.682C93.4783 102.581 92.2966 100.534 92.2966 98.3165V21.0948L112.987 8.72168Z" stroke="black" stroke-width="2" stroke-linejoin="round"/>
<path fill-rule="evenodd" clip-rule="evenodd" d="M92.2966 20.9087L113.386 8.72168V27.5207C113.386 29.2241 111.54 30.3293 109.976 29.5642L92.2966 20.9087Z" fill="white"/>
<path fill-rule="evenodd" clip-rule="evenodd" d="M92.2966 20.9087L113.386 8.72168V27.5207C113.386 29.2241 111.54 30.3293 109.976 29.5642L92.2966 20.9087Z" stroke="black" stroke-width="2" stroke-linejoin="round"/>
<path d="M102.221 38.495L151.843 67.0278" stroke="#9595EF" stroke-width="2.169" stroke-linecap="round" stroke-linejoin="round"/>
<path d="M102.221 47.1788L151.843 75.7116" stroke="#9595EF" stroke-width="2.169" stroke-linecap="round" stroke-linejoin="round"/>
<path d="M102.221 57.1033L151.843 85.636" stroke="#9595EF" stroke-width="2.169" stroke-linecap="round" stroke-linejoin="round"/>
<path d="M102.221 67.0277L151.843 94.3199" stroke="#9595EF" stroke-width="2.169" stroke-linecap="round" stroke-linejoin="round"/>
<path d="M102.221 75.7117L151.843 104.244" stroke="#9595EF" stroke-width="2.169" stroke-linecap="round" stroke-linejoin="round"/>
<path d="M138.197 104.244L151.843 112.928" stroke="#9595EF" stroke-width="2.169" stroke-linecap="round" stroke-linejoin="round"/>
<path fill-rule="evenodd" clip-rule="evenodd" d="M154.539 164.604L80.2674 122.164C77.9475 120.837 76.51 118.375 76.4962 115.702L76.1389 50.8259C76.1105 45.0703 82.3191 41.4385 87.3219 44.2843L161.951 86.7249C164.29 88.0554 165.735 90.539 165.735 93.23V162" fill="white"/>
<path d="M154.539 164.604L80.2674 122.164C77.9475 120.837 76.51 118.375 76.4962 115.702L76.1389 50.8259C76.1105 45.0703 82.3191 41.4385 87.3219 44.2843L161.951 86.7249C164.29 88.0554 165.503 90.539 165.503 93.23L165.5 161.398" stroke="black" stroke-width="2" stroke-linecap="round" stroke-linejoin="round"/>
<path fill-rule="evenodd" clip-rule="evenodd" d="M162.291 169.198C162.056 168.06 161.855 95.4401 161.855 95.4401C161.855 92.7482 160.411 90.2646 158.071 88.9341L83.4414 46.4936C78.4385 43.6486 72.23 47.2804 72.2591 53.036L72.6165 117.912C72.6303 120.584 74.0669 123.046 76.3868 124.373L150.659 166.813C158.172 171.18 156.937 170.796 169.999 167.454C171.702 167.019 175.687 165.297 177.098 164.605" fill="white"/>
<path d="M162 170.47C161.765 169.332 161.855 95.4401 161.855 95.4401C161.855 92.7482 160.411 90.2646 158.071 88.9341L83.4414 46.4936C78.4385 43.6486 72.23 47.2804 72.2591 53.036L72.6165 117.912C72.6303 120.584 74.0669 123.046 76.3868 124.373L150.659 166.813C158.172 171.18 157.938 171.842 171 168.5C172.703 168.065 183 165 183 161" stroke="black" stroke-width="2" stroke-linejoin="round"/>
<path d="M179.097 147.664C179.097 154.332 180.162 161.143 171.12 163.488C165.21 165.02 165.492 160.25 165.492 160.25V155" stroke="black" stroke-width="2" stroke-linejoin="round"/>
<path fill-rule="evenodd" clip-rule="evenodd" d="M121.603 126.772C121.603 126.772 124.603 125.836 125.543 124.016L121.603 126.772Z" fill="white"/>
<path fill-rule="evenodd" clip-rule="evenodd" d="M118.348 108.013C118.365 105.711 116.281 102.651 114.126 101.941C111.973 101.231 109.68 102.729 109.665 105.041C109.654 106.613 110.605 108.504 111.885 109.773V116.86L116.129 119.131V111.016C117.379 110.582 118.338 109.484 118.348 108.013Z" fill="white"/>
</svg>
