<svg width="231" height="164" viewBox="0 0 231 164" fill="none" xmlns="http://www.w3.org/2000/svg">
<path fill-rule="evenodd" clip-rule="evenodd" d="M223.992 91.0968C235.804 124.028 193.883 145.447 97.3646 154.438C0.846697 163.429 -0.696489 108.8 17.8484 76.6148C27.1212 60.5217 51.6807 30.245 79.8525 22.0893C108.024 13.9342 139.847 33.1533 156.703 43.1089C191.3 63.5407 212.179 58.1655 223.992 91.0968Z" fill="#C3C3F6"/>
<path fill-rule="evenodd" clip-rule="evenodd" d="M203.974 53.2834L116.086 3.4352C114.68 2.63835 113.154 2.27801 111.653 2.29867V2.29297L106.149 2.43895L107.187 3.59899C105.817 4.43786 104.655 5.65558 103.896 7.21369L78.2604 59.8192L175.854 115.554L175.05 116.145L154.943 113.142L74.2097 67.0343L26.9642 94.0157L20 92.9746V100.701L20.01 100.702C19.9537 102.432 20.7781 104.185 22.4967 105.167L112.617 156.634C117.493 159.419 123.474 159.44 128.37 156.691L178.174 128.715C178.705 128.417 179.144 128.003 179.481 127.521L179.482 127.52C179.547 127.427 179.614 127.334 179.672 127.236L184.262 120.356L208.163 65.8907C210.205 61.2363 208.396 55.7914 203.974 53.2834Z" fill="white"/>
<path d="M103.896 3.29309C105.397 3.27244 114 -0.207118 117.112 1.44484L205 51.293C209.423 53.8011 210.205 61.2363 208.163 65.8907L184.262 120.356L179.672 127.236C179.614 127.334 179.547 127.427 179.482 127.52L179.481 127.521C179.144 128.003 178.705 128.417 178.174 128.715L128.37 156.691C123.474 159.44 117.493 159.419 112.617 156.634L22.4967 105.167C20.7781 104.185 19.9537 102.431 20.01 100.702L20 100.701V92.9746L26.9642 94.0157L74.2097 67.0343L154.943 113.142L175.05 116.145L175.854 115.554L78.2604 59.8192L103.896 7.21369C104.655 5.65558 102.527 4.13196 103.896 3.29309ZM103.896 3.29309L102 5.29288" stroke="black" stroke-width="2" stroke-linejoin="round"/>
<path fill-rule="evenodd" clip-rule="evenodd" d="M22.4944 98.1479L112.531 149.408C117.403 152.182 123.378 152.203 128.269 149.464L180.062 120.462L74.1597 60.1685L22.4944 89.583C19.1685 91.4767 19.1685 96.2542 22.4944 98.1479Z" fill="white"/>
<path fill-rule="evenodd" clip-rule="evenodd" d="M22.4944 98.1479L112.531 149.408C117.403 152.182 123.378 152.203 128.269 149.464L180.062 120.462L74.1597 60.1685L22.4944 89.583C19.1685 91.4767 19.1685 96.2542 22.4944 98.1479Z" stroke="black" stroke-width="2" stroke-linejoin="round"/>
<path fill-rule="evenodd" clip-rule="evenodd" d="M179.838 120.757L203.645 66.1065C205.679 61.4356 203.877 55.9737 199.472 53.4564L111.933 3.43887C107.557 0.93871 101.995 2.67575 99.7919 7.22948L74.2584 60.0137L179.838 120.757Z" fill="white"/>
<path fill-rule="evenodd" clip-rule="evenodd" d="M179.838 120.757L203.645 66.1065C205.679 61.4356 203.877 55.9737 199.472 53.4564L111.933 3.43887C107.557 0.93871 101.995 2.67575 99.7919 7.22948L74.2584 60.0137L179.838 120.757Z" stroke="black" stroke-width="2" stroke-linejoin="round"/>
<path fill-rule="evenodd" clip-rule="evenodd" d="M176.402 100.314L192.037 65.8435C193.71 62.0531 192.228 57.6185 188.604 55.5767L116.572 14.9787C112.972 12.9498 108.395 14.3594 106.582 18.0555L89.4903 51.7892C87.7502 55.3377 89.0796 59.6183 92.5304 61.5763L166.51 103.561C170.123 105.611 174.73 104.1 176.402 100.314Z" fill="#9595EF"/>
<path fill-rule="evenodd" clip-rule="evenodd" d="M63.4164 111.417L76.4759 104.157C77.8163 103.412 79.4533 103.38 80.8224 104.074L98.6015 114.427C99.8763 115.072 99.9116 116.833 98.6642 117.526L86.291 124.697C84.8959 125.473 83.1833 125.472 81.7882 124.696L63.4164 114.483C62.1978 113.805 62.1978 112.095 63.4164 111.417Z" fill="#9595EF"/>
<path fill-rule="evenodd" clip-rule="evenodd" d="M90.4751 43.6649C89.6063 43.1526 89.1716 42.8961 88.3021 42.3824C87.9006 42.145 87.5168 42.0562 87.1883 42.0989L87.1763 42.0825L80.5617 44.2155L83.7734 46.9944C78.9969 54.8933 74.3656 62.8781 69.8772 70.9454L69.6528 70.4608L66.1196 79.1591L72.6896 77.0261L72.6528 76.9465C72.8588 76.8719 73.0415 76.749 73.1626 76.5323C78.9608 66.116 85.062 55.8766 91.3311 45.7396C91.661 45.2031 91.2044 44.0954 90.4751 43.6649Z" fill="white"/>
<path fill-rule="evenodd" clip-rule="evenodd" d="M90.4751 43.6649C89.6063 43.1526 89.1716 42.8961 88.3021 42.3824C87.9006 42.145 87.5168 42.0562 87.1883 42.0989L87.1763 42.0825L80.5617 44.2155L83.7734 46.9944C78.9969 54.8933 74.3656 62.8781 69.8772 70.9454L69.6528 70.4608L66.1196 79.1591L72.6896 77.0261L72.6528 76.9465C72.8588 76.8719 73.0415 76.749 73.1626 76.5323C78.9608 66.116 85.062 55.8766 91.3311 45.7396C91.661 45.2031 91.2044 44.0954 90.4751 43.6649Z" stroke="black" stroke-width="2" stroke-linecap="round" stroke-linejoin="round"/>
<path fill-rule="evenodd" clip-rule="evenodd" d="M109.958 75.6445C105.408 68.3274 103.304 64.6904 99.0839 57.3841C98.5215 56.4098 97.7451 55.59 96.9253 55.1068C95.531 54.2842 94.835 53.8729 93.4428 53.0475C93.1755 52.89 92.584 52.9425 92.584 52.9425L86.0144 55.1018L99.9363 75.8128C97.6043 76.9287 95.6938 77.8513 92.8044 79.2765C92.3557 79.4972 92.6373 80.4874 93.2516 80.8454C94.3664 81.4955 95.0454 81.8888 95.9932 82.4338L91.841 85.4891L98.5129 83.3384L98.5193 83.3204C98.7056 83.2981 98.8826 83.2521 99.0448 83.1752C103.375 81.1086 105.596 80.0883 109.948 78.0311C110.59 77.7276 110.59 76.6584 109.958 75.6445Z" fill="white"/>
<path fill-rule="evenodd" clip-rule="evenodd" d="M109.958 75.6445C105.408 68.3274 103.304 64.6904 99.0839 57.3841C98.5215 56.4098 97.7451 55.59 96.9253 55.1068C95.531 54.2842 94.835 53.8729 93.4428 53.0475C93.1755 52.89 92.584 52.9425 92.584 52.9425L86.0144 55.1018L99.9363 75.8128C97.6043 76.9287 95.6938 77.8513 92.8044 79.2765C92.3557 79.4972 92.6373 80.4874 93.2516 80.8454C94.3664 81.4955 95.0454 81.8888 95.9932 82.4338L91.841 85.4891L98.5129 83.3384L98.5193 83.3204C98.7056 83.2981 98.8826 83.2521 99.0448 83.1752C103.375 81.1086 105.596 80.0883 109.948 78.0311C110.59 77.7276 110.59 76.6584 109.958 75.6445Z" stroke="black" stroke-width="2" stroke-linecap="round" stroke-linejoin="round"/>
<path fill-rule="evenodd" clip-rule="evenodd" d="M68.7149 64.1096C65.5304 58.6001 63.6297 55.3549 60.7991 50.6054L58.4536 46.0322C58.4414 45.5811 58.5875 45.2206 58.9013 45.0676C63.149 42.9981 65.2474 41.9378 69.5295 39.8329C69.9679 39.6169 69.6656 38.631 69.0495 38.2705C67.6489 37.4482 66.9475 37.0375 65.5447 36.2152C64.7201 35.7322 63.9285 35.6217 63.3446 35.9092L57.0687 38.0092L57.9721 38.5531C56.3079 39.3648 54.6458 40.163 52.3933 41.2183C51.7794 41.5058 51.7794 42.5597 52.3962 43.5739C52.9242 44.4436 53.4185 45.2581 53.8885 46.0322H49.8422L62.0135 67.4029L68.2335 65.099C68.8303 65.4595 69.134 64.8348 68.7149 64.1096Z" fill="white"/>
<path fill-rule="evenodd" clip-rule="evenodd" d="M68.7149 64.1096C65.5304 58.6001 63.6297 55.3549 60.7991 50.6054L58.4536 46.0322C58.4414 45.5811 58.5875 45.2206 58.9013 45.0676C63.149 42.9981 65.2474 41.9378 69.5295 39.8329C69.9679 39.6169 69.6656 38.631 69.0495 38.2705C67.6489 37.4482 66.9475 37.0375 65.5447 36.2152C64.7201 35.7322 63.9285 35.6217 63.3446 35.9092L57.0687 38.0092L57.9721 38.5531C56.3079 39.3648 54.6458 40.163 52.3933 41.2183C51.7794 41.5058 51.7794 42.5597 52.3962 43.5739C52.9242 44.4436 53.4185 45.2581 53.8885 46.0322H49.8422L62.0135 67.4029L68.2335 65.099C68.8303 65.4595 69.134 64.8348 68.7149 64.1096Z" stroke="black" stroke-width="2" stroke-linecap="round" stroke-linejoin="round"/>
<path fill-rule="evenodd" clip-rule="evenodd" d="M66.4384 78.66C72.3616 68.1477 78.5944 57.8133 84.9986 47.5814C85.3357 47.04 84.8692 45.9234 84.1242 45.4881C83.2367 44.9704 82.7925 44.7115 81.9043 44.1937C81.1116 43.7312 80.3759 43.8036 80.0193 44.3787C73.6643 54.5999 67.5602 64.9702 61.6934 75.4746C61.3882 76.0203 61.8533 77.1448 62.5621 77.5772C63.407 78.0935 63.8287 78.3502 64.6706 78.8637C65.4221 79.3219 66.11 79.2416 66.4384 78.66Z" fill="white"/>
<path fill-rule="evenodd" clip-rule="evenodd" d="M66.4384 78.66C72.3616 68.1477 78.5944 57.8133 84.9986 47.5814C85.3357 47.04 84.8692 45.9234 84.1242 45.4881C83.2367 44.9704 82.7925 44.7115 81.9043 44.1937C81.1116 43.7312 80.3759 43.8036 80.0193 44.3787C73.6643 54.5999 67.5602 64.9702 61.6934 75.4746C61.3882 76.0203 61.8533 77.1448 62.5621 77.5772C63.407 78.0935 63.8287 78.3502 64.6706 78.8637C65.4221 79.3219 66.11 79.2416 66.4384 78.66Z" stroke="black" stroke-width="2" stroke-linecap="round" stroke-linejoin="round"/>
<path fill-rule="evenodd" clip-rule="evenodd" d="M92.3379 84.4245C96.5761 82.3949 98.7501 81.3938 103.009 79.3748C103.638 79.0769 104.506 78.0264 103.889 77.0303C99.6075 69.6637 98.2428 67.1568 94.1125 59.9843C93.562 59.027 92.8021 58.2229 92.0003 57.7485C90.6349 56.9402 88.2173 55.6554 86.8547 54.8463C86.2548 54.4905 85.9305 55.1082 86.3397 55.8255C90.3392 62.8349 92.3149 66.3224 96.4779 73.3142C97.0702 74.3081 97.05 75.3558 96.4278 75.6544C92.3191 77.6226 90.2529 78.6067 86.2297 80.5968C85.7906 80.8142 86.0662 81.7863 86.6682 82.1379C88.0363 82.9378 88.726 83.3373 90.1179 84.1386C90.9356 84.6095 91.7366 84.7125 92.3379 84.4245Z" fill="white"/>
<path fill-rule="evenodd" clip-rule="evenodd" d="M92.3379 84.4245C96.5761 82.3949 98.7501 81.3938 103.009 79.3748C103.638 79.0769 104.506 78.0264 103.889 77.0303C99.6075 69.6637 98.2428 67.1568 94.1125 59.9843C93.562 59.027 92.8021 58.2229 92.0003 57.7485C90.6349 56.9402 88.2173 55.6554 86.8547 54.8463C86.2548 54.4905 85.9305 55.1082 86.3397 55.8255C90.3392 62.8349 92.3149 66.3224 96.4779 73.3142C97.0702 74.3081 97.05 75.3558 96.4278 75.6544C92.3191 77.6226 90.2529 78.6067 86.2297 80.5968C85.7906 80.8142 86.0662 81.7863 86.6682 82.1379C88.0363 82.9378 88.726 83.3373 90.1179 84.1386C90.9356 84.6095 91.7366 84.7125 92.3379 84.4245Z" stroke="black" stroke-width="2" stroke-linecap="round" stroke-linejoin="round"/>
<path fill-rule="evenodd" clip-rule="evenodd" d="M56.2367 62.9016C52.1429 55.9479 50.0352 52.4523 45.7908 45.4856C45.1642 44.458 45.1642 43.3909 45.7886 43.0988C50.2892 40.9962 52.4704 39.9011 56.9135 37.7195C57.5059 37.4289 58.3108 37.5401 59.1478 38.0303C60.5728 38.8634 61.2853 39.2796 62.7088 40.1121C63.334 40.4781 63.6411 41.477 63.1965 41.6944C58.845 43.8287 57.6224 44.9029 53.3073 46.9998C52.6931 47.2976 52.6953 48.3705 53.311 49.3967C57.372 56.1675 59.372 59.5546 63.2765 66.2938C63.7023 67.0287 62.4854 67.6616 61.8792 67.2963C60.5 66.4661 59.8094 66.0498 58.42 65.2124C57.6034 64.7201 56.8174 63.8891 56.2367 62.9016Z" fill="white"/>
<path fill-rule="evenodd" clip-rule="evenodd" d="M56.2367 62.9016C52.1429 55.9479 50.0352 52.4523 45.7908 45.4856C45.1642 44.458 45.1642 43.3909 45.7886 43.0988C50.2892 40.9962 52.4704 39.9011 56.9135 37.7195C57.5059 37.4289 58.3108 37.5401 59.1478 38.0303C60.5728 38.8634 61.2853 39.2796 62.7088 40.1121C63.334 40.4781 63.6411 41.477 63.1965 41.6944C58.845 43.8287 57.6224 44.9029 53.3073 46.9998C52.6931 47.2976 52.6953 48.3705 53.311 49.3967C57.372 56.1675 59.372 59.5546 63.2765 66.2938C63.7023 67.0287 62.4854 67.6616 61.8792 67.2963C60.5 66.4661 59.8094 66.0498 58.42 65.2124C57.6034 64.7201 56.8174 63.8891 56.2367 62.9016Z" stroke="black" stroke-width="2" stroke-linecap="round" stroke-linejoin="round"/>
</svg>
