<svg width="218" height="127" viewBox="0 0 218 127" fill="none" xmlns="http://www.w3.org/2000/svg">
<g opacity="0.569531">
<path fill-rule="evenodd" clip-rule="evenodd" d="M177.546 42.2347C194.256 47.5468 219.024 55.3267 206.152 96.3052C193.28 137.284 128.37 121.153 78.3126 125.75C30.7672 130.116 -3.29457 100.599 0.253652 71.3654C0.433639 69.8826 0.703089 63.0454 1.19891 61.6187C11.0809 33.1828 27.0497 24.7548 52.6812 17.8538C78.3126 10.9529 104.66 14.9564 114.421 20.9034C124.182 26.8505 160.836 36.9225 177.546 42.2347Z" fill="#9595EF"/>
</g>
<path fill-rule="evenodd" clip-rule="evenodd" d="M216.974 66.8343H203.856L112.727 13.7967C108.599 11.3943 103.513 11.4018 99.392 13.815L45.2008 45.5573H29.9745V58.401C29.9789 60.6873 31.1058 62.9718 33.3515 64.2734L133.288 122.214C137.351 124.57 142.343 124.597 146.431 122.284L213.536 84.3144C215.399 83.2603 216.493 81.5313 216.841 79.678H216.974V66.8343Z" fill="white"/>
<path fill-rule="evenodd" clip-rule="evenodd" d="M216.974 66.8343H203.856L112.727 13.7967C108.599 11.3943 103.513 11.4018 99.392 13.815L45.2008 45.5573H29.9745V58.401C29.9789 60.6873 31.1058 62.9718 33.3515 64.2734L133.288 122.214C137.351 124.57 142.343 124.597 146.431 122.284L213.536 84.3144C215.399 83.2603 216.493 81.5313 216.841 79.678H216.974V66.8343Z" stroke="black" stroke-width="2" stroke-linejoin="round"/>
<path fill-rule="evenodd" clip-rule="evenodd" d="M99.3922 2.81536L33.3262 41.5131C28.8461 44.1371 28.8599 50.6697 33.3519 53.2736L133.288 111.214C137.351 113.57 142.343 113.597 146.431 111.284L213.536 73.3152C218.089 70.7385 218.129 64.1415 213.607 61.5092L112.727 2.79642C108.599 0.394582 103.513 0.401526 99.3922 2.81536Z" fill="white"/>
<path fill-rule="evenodd" clip-rule="evenodd" d="M99.3922 2.81536L33.3262 41.5131C28.8461 44.1371 28.8599 50.6697 33.3519 53.2736L133.288 111.214C137.351 113.57 142.343 113.597 146.431 111.284L213.536 73.3152C218.089 70.7385 218.129 64.1415 213.607 61.5092L112.727 2.79642C108.599 0.394582 103.513 0.401526 99.3922 2.81536Z" stroke="black" stroke-width="2" stroke-linejoin="round"/>
<path d="M69.9745 43.5647C79.1653 39.9259 100.044 27.9792 111.924 37.7732C123.803 47.5677 109.764 75.7873 125.964 85.5111C142.163 95.2363 155.749 74.4843 142.836 57.3869" stroke="#9595EF" stroke-width="6" stroke-linecap="round"/>
<path fill-rule="evenodd" clip-rule="evenodd" d="M80.8769 80.8475C77.5039 78.8815 74.0468 78.4459 72.7368 79.727L52.9745 90.6982L64.2376 100L84.4224 88.7944C85.0174 88.6202 85.4752 88.3113 85.7355 87.856C86.7255 86.1257 84.5498 82.9882 80.8769 80.8475Z" fill="white"/>
<path fill-rule="evenodd" clip-rule="evenodd" d="M80.8769 80.8475C77.5039 78.8815 74.0468 78.4459 72.7368 79.727L52.9745 90.6982L64.2376 100L84.4224 88.7944C85.0174 88.6202 85.4752 88.3113 85.7355 87.856C86.7255 86.1257 84.5498 82.9882 80.8769 80.8475Z" stroke="black" stroke-width="2" stroke-linejoin="round"/>
<path fill-rule="evenodd" clip-rule="evenodd" d="M76.9745 95.837H66.1607V98.241L57.4805 93.338C56.9494 93.0383 56.374 92.852 55.7883 92.7736V89H44.9745V99.0003H45.0012C45.0891 99.6173 45.431 100.203 46.0404 100.567L64.1046 111.336C65.5356 112.189 67.3036 112.222 68.7649 111.425L75.837 107.562C76.527 107.186 76.8999 106.524 76.9618 105.837H76.9745V95.837Z" fill="white"/>
<path fill-rule="evenodd" clip-rule="evenodd" d="M76.9745 95.837H66.1607V98.241L57.4805 93.338C56.9494 93.0383 56.374 92.852 55.7883 92.7736V89H44.9745V99.0003H45.0012C45.0891 99.6173 45.431 100.203 46.0404 100.567L64.1046 111.336C65.5356 112.189 67.3036 112.222 68.7649 111.425L75.837 107.562C76.527 107.186 76.8999 106.524 76.9618 105.837H76.9745V95.837Z" stroke="black" stroke-width="2" stroke-linejoin="round"/>
<path fill-rule="evenodd" clip-rule="evenodd" d="M53.0456 83.5006L46.1707 86.9354C44.6361 87.7022 44.5621 89.8573 46.0409 90.7267L64.1048 101.345C65.5357 102.186 67.3037 102.219 68.7649 101.432L75.8369 97.6242C77.3412 96.8139 77.3569 94.6691 75.8642 93.8377L57.4802 83.5997C56.1099 82.8366 54.4486 82.7998 53.0456 83.5006Z" fill="white"/>
<path fill-rule="evenodd" clip-rule="evenodd" d="M53.0456 83.5006L46.1707 86.9354C44.6361 87.7022 44.5621 89.8573 46.0409 90.7267L64.1048 101.345C65.5357 102.186 67.3037 102.219 68.7649 101.432L75.8369 97.6242C77.3412 96.8139 77.3569 94.6691 75.8642 93.8377L57.4802 83.5997C56.1099 82.8366 54.4486 82.7998 53.0456 83.5006Z" stroke="black" stroke-width="2" stroke-linejoin="round"/>
<path fill-rule="evenodd" clip-rule="evenodd" d="M142.974 57L153.054 36.6969L164.139 34L171.974 46.5222L166.432 55.7669L142.974 57L157.474 47.5466L157.26 47.4423L142.974 57Z" fill="white"/>
<path fill-rule="evenodd" clip-rule="evenodd" d="M142.974 57L153.054 36.6969L164.139 34L171.974 46.5222L166.432 55.7669L142.974 57L157.474 47.5466L157.26 47.4423L142.974 57Z" stroke="black" stroke-width="2" stroke-linejoin="round"/>
<path fill-rule="evenodd" clip-rule="evenodd" d="M160.974 48.5004C160.974 49.8809 159.855 51 158.474 51C157.093 51 155.974 49.8809 155.974 48.5004C155.974 47.1191 157.093 46 158.474 46C159.855 46 160.974 47.1191 160.974 48.5004Z" fill="white"/>
<path fill-rule="evenodd" clip-rule="evenodd" d="M160.974 47.5004C160.974 48.8809 159.855 50 158.474 50C157.093 50 155.974 48.8809 155.974 47.5004C155.974 46.1191 157.093 45 158.474 45C159.855 45 160.974 46.1191 160.974 47.5004Z" stroke="black" stroke-width="2" stroke-linejoin="round"/>
<path fill-rule="evenodd" clip-rule="evenodd" d="M163.974 33.6113L171.79 46L178.974 41.7536L170.721 29L163.974 33.6113Z" fill="white"/>
<path fill-rule="evenodd" clip-rule="evenodd" d="M163.974 33.6113L171.79 46L178.974 41.7536L170.721 29L163.974 33.6113Z" stroke="black" stroke-width="2" stroke-linejoin="round"/>
<path fill-rule="evenodd" clip-rule="evenodd" d="M98.2202 28.5911L121.783 43.5357L98.2202 28.5911Z" fill="white"/>
<path d="M98.2202 28.5911L121.783 43.5357" stroke="black" stroke-width="2" stroke-linejoin="round"/>
<path fill-rule="evenodd" clip-rule="evenodd" d="M98.9745 28C98.9745 28.5517 98.5267 29 97.9748 29C97.4217 29 96.9745 28.5517 96.9745 28C96.9745 27.4477 97.4217 27 97.9748 27C98.5267 27 98.9745 27.4477 98.9745 28Z" fill="white"/>
<path fill-rule="evenodd" clip-rule="evenodd" d="M98.9745 28C98.9745 28.5517 98.5267 29 97.9748 29C97.4217 29 96.9745 28.5517 96.9745 28C96.9745 27.4477 97.4217 27 97.9748 27C98.5267 27 98.9745 27.4477 98.9745 28Z" stroke="black" stroke-width="2" stroke-linejoin="round"/>
<path fill-rule="evenodd" clip-rule="evenodd" d="M123.974 45C123.974 45.5523 123.527 46 122.974 46C122.422 46 121.974 45.5523 121.974 45C121.974 44.4483 122.422 44 122.974 44C123.527 44 123.974 44.4483 123.974 45Z" fill="white"/>
<path fill-rule="evenodd" clip-rule="evenodd" d="M123.974 45C123.974 45.5523 123.527 46 122.974 46C122.422 46 121.974 45.5523 121.974 45C121.974 44.4483 122.422 44 122.974 44C123.527 44 123.974 44.4483 123.974 45Z" stroke="black" stroke-width="2" stroke-linejoin="round"/>
<path fill-rule="evenodd" clip-rule="evenodd" d="M57.8659 50.7414L81.9054 35.4479L57.8659 50.7414Z" fill="white"/>
<path d="M57.8659 50.7414L81.9054 35.4479" stroke="black" stroke-width="2" stroke-linejoin="round"/>
<path fill-rule="evenodd" clip-rule="evenodd" d="M58.4398 51.1151C58.9287 51.3718 59.1165 51.9765 58.8591 52.4653C58.6024 52.9542 57.9971 53.142 57.5089 52.8847C57.02 52.6279 56.8328 52.0233 57.0896 51.5344C57.3469 51.0455 57.951 50.8583 58.4398 51.1151Z" fill="white"/>
<path fill-rule="evenodd" clip-rule="evenodd" d="M58.3609 50.0777C58.8703 50.2909 59.1101 50.8769 58.8963 51.3863C58.6831 51.8957 58.0965 52.1356 57.5877 51.9217C57.0783 51.7086 56.8392 51.1225 57.0523 50.6131C57.2661 50.1037 57.8515 49.8646 58.3609 50.0777Z" stroke="black" stroke-width="2" stroke-linejoin="round"/>
<path fill-rule="evenodd" clip-rule="evenodd" d="M82.3607 34.0778C82.8701 34.2909 83.1099 34.8769 82.8967 35.3863C82.6829 35.8957 82.097 36.1355 81.5875 35.9217C81.0781 35.7086 80.8389 35.1226 81.0527 34.6131C81.2659 34.1037 81.8519 33.8645 82.3607 34.0778Z" stroke="black" stroke-width="2" stroke-linejoin="round"/>
<path fill-rule="evenodd" clip-rule="evenodd" d="M112.3 77.0525L135.863 91.6235L112.3 77.0525Z" fill="white"/>
<path d="M112.3 77.0525L135.863 91.6235" stroke="black" stroke-width="2" stroke-linejoin="round"/>
<path fill-rule="evenodd" clip-rule="evenodd" d="M112.974 74C112.974 74.5517 112.527 75 111.975 75C111.422 75 110.974 74.5517 110.974 74C110.974 73.4483 111.422 73 111.975 73C112.527 73 112.974 73.4483 112.974 74Z" fill="white"/>
<path fill-rule="evenodd" clip-rule="evenodd" d="M112.974 77C112.974 77.5517 112.527 78 111.975 78C111.422 78 110.974 77.5517 110.974 77C110.974 76.4483 111.422 76 111.975 76C112.527 76 112.974 76.4483 112.974 77Z" stroke="black" stroke-width="2" stroke-linejoin="round"/>
<path fill-rule="evenodd" clip-rule="evenodd" d="M137.974 92.0003C137.974 92.5522 137.527 93 136.974 93C136.422 93 135.974 92.5522 135.974 92.0003C135.974 91.4484 136.422 91 136.974 91C137.527 91 137.974 91.4484 137.974 92.0003Z" fill="white"/>
<path fill-rule="evenodd" clip-rule="evenodd" d="M136.974 92.0003C136.974 92.5522 136.527 93 135.974 93C135.422 93 134.974 92.5522 134.974 92.0003C134.974 91.4484 135.422 91 135.974 91C136.527 91 136.974 91.4484 136.974 92.0003Z" stroke="black" stroke-width="2" stroke-linejoin="round"/>
</svg>
