<svg width="220" height="160" viewBox="0 0 220 160" fill="none" xmlns="http://www.w3.org/2000/svg">
<g opacity="0.57">
<path fill-rule="evenodd" clip-rule="evenodd" d="M143.475 44.5489C151.234 48.092 158.953 51.7081 167.226 53.6918C178.002 56.276 189.378 55.9977 199.962 59.2799C204.917 60.8168 209.74 63.204 213.248 67.0151C217.507 71.6431 219.468 78.0067 219.875 84.2748C221.317 106.523 210.233 123.681 191.04 134.221C177.865 141.457 162.56 142.81 148.131 146.449C132.247 150.456 116.454 154.946 100.274 157.652C73.844 162.072 45.0206 161.197 22.4837 146.742C14.1002 141.364 6.70798 134.022 2.82367 124.871C-5.37512 105.552 5.71164 84.763 17.7766 69.7001C43.7068 37.3277 89.8367 24.7554 129.053 38.5152C133.965 40.2387 138.728 42.3805 143.475 44.5489Z" fill="#9595EF"/>
</g>
<path fill-rule="evenodd" clip-rule="evenodd" d="M125.834 42.795L40.6733 92.4281C34.898 95.7942 34.917 104.172 40.7063 107.512L94.9623 137.951C100.2 140.972 106.635 141.006 111.903 138.039L198.403 89.3413C204.272 86.0366 204.323 77.5752 198.494 74.1998L143.022 42.771C137.701 39.6898 131.146 39.699 125.834 42.795Z" fill="white"/>
<path fill-rule="evenodd" clip-rule="evenodd" d="M125.834 42.795L40.6733 92.4281C34.898 95.7942 34.917 104.172 40.7063 107.512L94.9623 137.951C100.2 140.972 106.635 141.006 111.903 138.039L198.403 89.3413C204.272 86.0366 204.323 77.5752 198.494 74.1998L143.022 42.771C137.701 39.6898 131.146 39.699 125.834 42.795Z" stroke="black" stroke-width="2" stroke-linejoin="round"/>
<path fill-rule="evenodd" clip-rule="evenodd" d="M125.834 30.5142L40.6733 80.1473C34.898 83.5134 34.917 91.8913 40.7063 95.2311L94.9623 125.67C100.2 128.692 106.635 128.725 111.903 125.758L198.403 77.0605C204.272 73.7558 204.323 65.2944 198.494 61.9191L143.022 30.4903C137.701 27.4091 131.146 27.4183 125.834 30.5142Z" fill="white"/>
<path fill-rule="evenodd" clip-rule="evenodd" d="M125.834 30.5142L40.6733 80.1473C34.898 83.5134 34.917 91.8913 40.7063 95.2311L94.9623 125.67C100.2 128.692 106.635 128.725 111.903 125.758L198.403 77.0605C204.272 73.7558 204.323 65.2944 198.494 61.9191L143.022 30.4903C137.701 27.4091 131.146 27.4183 125.834 30.5142Z" stroke="black" stroke-width="2" stroke-linejoin="round"/>
<path fill-rule="evenodd" clip-rule="evenodd" d="M125.834 18.555L40.6733 68.1881C34.898 71.5542 34.917 79.9321 40.7063 83.2718L94.9623 113.711C100.2 116.732 106.635 116.766 111.903 113.799L198.403 65.1007C204.272 61.7966 204.323 53.3352 198.494 49.9598L143.022 18.5311C137.701 15.4498 131.146 15.459 125.834 18.555Z" fill="white"/>
<path fill-rule="evenodd" clip-rule="evenodd" d="M125.834 18.555L40.6733 68.1881C34.898 71.5542 34.917 79.9321 40.7063 83.2718L94.9623 113.711C100.2 116.732 106.635 116.766 111.903 113.799L198.403 65.1007C204.272 61.7966 204.323 53.3352 198.494 49.9598L143.022 18.5311C137.701 15.4498 131.146 15.459 125.834 18.555Z" stroke="black" stroke-width="2" stroke-linejoin="round"/>
<path d="M86.6937 82.8926L113.336 98.3927" stroke="#9595EF" stroke-width="5" stroke-linecap="round"/>
<path d="M68.8439 63.2722L122.128 94.2724" stroke="#9595EF" stroke-width="5" stroke-linecap="round"/>
<path d="M76.6592 58.978L129.944 89.9782" stroke="#9595EF" stroke-width="5" stroke-linecap="round"/>
<path d="M84.4747 54.6846L137.759 85.6847" stroke="#9595EF" stroke-width="5" stroke-linecap="round"/>
<path d="M92.29 50.3906L145.575 81.3908" stroke="#9595EF" stroke-width="5" stroke-linecap="round"/>
<path d="M100.106 46.0972L153.39 77.0973" stroke="#9595EF" stroke-width="5" stroke-linecap="round"/>
<path d="M107.921 41.8037L161.206 72.8039" stroke="#9595EF" stroke-width="5" stroke-linecap="round"/>
<path d="M115.736 37.5098L169.02 68.5099" stroke="#9595EF" stroke-width="5" stroke-linecap="round"/>
<path d="M123.552 33.2163L176.836 64.2165" stroke="#9595EF" stroke-width="5" stroke-linecap="round"/>
<path fill-rule="evenodd" clip-rule="evenodd" d="M189.334 3.06982L178.02 9.25316L155.553 22.1209L157.118 23.8027L152.824 26.2834L156.725 29.5071L188.422 11.0652C188.977 10.7422 189.286 10.192 189.334 9.61912V9.61851V3.06982Z" fill="white"/>
<path fill-rule="evenodd" clip-rule="evenodd" d="M189.334 3.06982L178.02 9.25316L155.553 22.1209L157.118 23.8027L152.824 26.2834L156.725 29.5071L188.422 11.0652C188.977 10.7422 189.286 10.192 189.334 9.61912V9.61851V3.06982Z" stroke="black" stroke-width="2" stroke-linejoin="round"/>
<path fill-rule="evenodd" clip-rule="evenodd" d="M152.824 20.0115L184.996 1.42831C186.158 0.757174 187.614 0.883666 188.644 1.74516L188.678 1.77279C189.661 2.5956 189.529 4.14972 188.422 4.79384L156.725 23.2352L152.824 20.0115Z" fill="white"/>
<path fill-rule="evenodd" clip-rule="evenodd" d="M152.824 20.0115L184.996 1.42831C186.158 0.757174 187.614 0.883666 188.644 1.74516L188.678 1.77279C189.661 2.5956 189.529 4.14972 188.422 4.79384L156.725 23.2352L152.824 20.0115Z" stroke="black" stroke-width="2" stroke-linejoin="round"/>
<path fill-rule="evenodd" clip-rule="evenodd" d="M159.744 34.7536C155.269 26.2302 141.312 20.0112 124.778 20.0112C108.516 20.0112 94.7461 26.0263 90.0389 34.333L88.3022 33.1903V40.6244C88.3022 52.0086 104.633 61.2369 124.778 61.2369C144.923 61.2369 161.254 52.0086 161.254 40.6244V33.1903L159.744 34.7536Z" fill="white"/>
<path fill-rule="evenodd" clip-rule="evenodd" d="M159.744 34.7536C155.269 26.2302 141.312 20.0112 124.778 20.0112C108.516 20.0112 94.7461 26.0263 90.0389 34.333L88.3022 33.1903V40.6244C88.3022 52.0086 104.633 61.2369 124.778 61.2369C144.923 61.2369 161.254 52.0086 161.254 40.6244V33.1903L159.744 34.7536Z" stroke="black" stroke-width="2" stroke-linejoin="round"/>
<path fill-rule="evenodd" clip-rule="evenodd" d="M88.3022 33.1904C88.3022 21.8062 104.633 12.5779 124.778 12.5779C144.923 12.5779 161.254 21.8062 161.254 33.1904C161.254 44.574 144.923 53.8024 124.778 53.8024C104.633 53.8024 88.3022 44.574 88.3022 33.1904Z" fill="white"/>
<path fill-rule="evenodd" clip-rule="evenodd" d="M88.3022 33.1904C88.3022 21.8062 104.633 12.5779 124.778 12.5779C144.923 12.5779 161.254 21.8062 161.254 33.1904C161.254 44.574 144.923 53.8024 124.778 53.8024C104.633 53.8024 88.3022 44.574 88.3022 33.1904Z" stroke="black" stroke-width="2" stroke-linejoin="round"/>
<path fill-rule="evenodd" clip-rule="evenodd" d="M155.552 31.4897C155.552 31.7906 155.54 32.0909 155.509 32.3862C154.665 24.3055 141.232 17.8889 124.776 17.8889C108.327 17.8889 94.8877 24.3055 94.0436 32.3862C94.013 32.0909 94.0007 31.7906 94.0007 31.4897C94.0007 22.095 107.783 14.481 124.776 14.481C141.776 14.481 155.552 22.095 155.552 31.4897Z" fill="#9595EF"/>
<path fill-rule="evenodd" clip-rule="evenodd" d="M94.0024 33.1904C94.0024 24.7376 107.781 17.8862 124.778 17.8862C141.775 17.8862 155.553 24.7376 155.553 33.1904C155.553 41.6426 141.775 48.494 124.778 48.494C107.781 48.494 94.0024 41.6426 94.0024 33.1904Z" fill="white"/>
<path fill-rule="evenodd" clip-rule="evenodd" d="M94.0024 33.1904C94.0024 24.7376 107.781 17.8862 124.778 17.8862C141.775 17.8862 155.553 24.7376 155.553 33.1904C155.553 41.6426 141.775 48.494 124.778 48.494C107.781 48.494 94.0024 41.6426 94.0024 33.1904Z" stroke="black" stroke-width="2" stroke-linejoin="round"/>
<path fill-rule="evenodd" clip-rule="evenodd" d="M123.981 48.4862C107.354 48.2775 94.0005 41.5114 94.0005 33.1906C94.0005 32.9204 94.0127 32.6503 94.0433 32.3862C94.8753 41.2161 107.899 48.259 123.981 48.4862Z" fill="#9595EF"/>
<path fill-rule="evenodd" clip-rule="evenodd" d="M155.552 33.1906C155.552 41.5114 142.204 48.2775 125.572 48.4862C141.66 48.259 154.677 41.2161 155.509 32.3862C155.54 32.6503 155.552 32.9211 155.552 33.1906Z" fill="#9595EF"/>
</svg>
