<svg width="199" height="178" viewBox="0 0 199 178" fill="none" xmlns="http://www.w3.org/2000/svg">
<path fill-rule="evenodd" clip-rule="evenodd" d="M193.122 115.735C203.307 144.128 167.162 162.594 83.9461 170.346C0.730009 178.098 -0.6005 130.998 15.3886 103.249C23.3834 89.3733 44.5582 63.2693 68.8475 56.2376C93.1369 49.2064 120.573 65.7767 135.107 74.3603C164.935 91.9763 182.937 87.3419 193.122 115.735Z" fill="#C3C3F6"/>
<path fill-rule="evenodd" clip-rule="evenodd" d="M141.968 149.91L141.96 43.3589C141.959 40.9367 140.646 38.706 138.529 37.5321L73.7437 1.87216C72.0905 0.96159 70.2498 1.1523 68.8581 2.0488L60.3279 6.97056L65.4438 16.3936L66.6652 15.6432V107.166C66.6652 109.556 67.9452 111.763 70.0194 112.95L124.282 143.983L121.944 147.874L132.115 156.903L140.507 152.139C140.656 152.074 140.796 151.992 140.929 151.899C141.544 151.471 141.968 150.766 141.968 149.91Z" fill="white"/>
<path fill-rule="evenodd" clip-rule="evenodd" d="M64.3226 17.0023C64.5452 17.4122 64.9579 17.6495 65.3894 17.6683V107.166C65.3894 110.014 66.9145 112.643 69.3858 114.057L122.518 144.444L120.851 147.217C120.534 147.744 120.638 148.421 121.097 148.828L131.267 157.857C131.676 158.22 132.269 158.282 132.744 158.013L141.086 153.277C141.283 153.186 141.473 153.075 141.657 152.947C142.642 152.26 143.244 151.153 143.244 149.91L143.235 43.3589C143.234 40.4727 141.67 37.8151 139.148 36.4165L74.3587 0.7547C72.3607 -0.345764 70.0213 -0.218017 68.1671 0.976502L59.6902 5.86572C59.0911 6.21137 58.8767 6.97144 59.2067 7.57929L64.3226 17.0023ZM140.2 150.853C140.127 150.904 140.058 150.943 139.878 151.029L132.279 155.343L123.583 147.623L125.376 144.641C125.744 144.027 125.537 143.231 124.916 142.876L70.6527 111.843C68.9759 110.883 67.9409 109.099 67.9409 107.166V15.6433C67.9409 14.6458 66.8475 14.0342 65.9228 14.6023L62.0421 7.45435L69.4957 3.15381C70.631 2.42419 71.9691 2.35114 73.1283 2.98956L137.914 38.6497C139.622 39.5967 140.684 41.4001 140.684 43.3594L140.693 149.91C140.693 150.302 140.512 150.635 140.2 150.853Z" fill="black"/>
<path fill-rule="evenodd" clip-rule="evenodd" d="M130.877 42.812C132.992 43.9916 134.305 46.2331 134.306 48.667L134.315 155.733C134.315 157.608 132.302 158.784 130.683 157.853L62.4046 118.594C60.3315 117.402 59.0522 115.184 59.0522 112.781V11.1888C59.0522 7.53517 62.9447 5.21909 66.1269 6.97991L130.877 42.812Z" fill="white"/>
<path fill-rule="evenodd" clip-rule="evenodd" d="M135.582 48.6667C135.581 45.7709 134.018 43.103 131.495 41.6957L66.7445 5.8636C62.7097 3.63099 57.7766 6.56599 57.7766 11.1886V112.781C57.7766 115.64 59.2995 118.281 61.769 119.7L130.047 158.959C132.519 160.38 135.59 158.586 135.59 155.733L135.582 48.6667ZM60.3278 11.1885C60.3278 8.50373 63.1798 6.80689 65.5092 8.09583L130.258 43.9268C131.967 44.8812 133.03 46.6958 133.03 48.6672L133.039 155.733C133.039 156.63 132.084 157.188 131.319 156.747L63.0404 117.488C61.3638 116.524 60.3278 114.728 60.3278 112.781V11.1885Z" fill="black"/>
<path fill-rule="evenodd" clip-rule="evenodd" d="M89.0788 31.0758C90.2262 31.7105 90.9384 32.9164 90.9384 34.2241L90.9431 91.8061C90.9431 92.8148 89.8513 93.4464 88.9737 92.9471L51.9401 71.8319C50.8161 71.1917 50.1228 69.9983 50.1228 68.7063V14.0691C50.1228 12.1033 52.2334 10.8575 53.9597 11.8044L89.0788 31.0758Z" fill="white"/>
<path fill-rule="evenodd" clip-rule="evenodd" d="M92.214 34.2242C92.214 32.4521 91.2494 30.8188 89.6924 29.9578L54.5734 10.6863C51.9976 9.27338 48.8472 11.133 48.8472 14.0693V68.7065C48.8472 70.4573 49.7868 72.0737 51.3088 72.9406L88.3418 94.0555C90.0701 95.0386 92.2187 93.7945 92.2187 91.8063L92.214 34.2242ZM51.3984 14.0695C51.3984 13.0742 52.4692 12.4421 53.3462 12.9231L88.4629 32.1934C89.2035 32.6038 89.6627 33.3818 89.6627 34.2244C89.6627 34.2244 89.6331 91.855 89.6043 91.8386L52.5718 70.7241C51.846 70.3107 51.3984 69.5405 51.3984 68.7067V14.0695Z" fill="black"/>
<path fill-rule="evenodd" clip-rule="evenodd" d="M137.553 57.8638C138.7 58.4985 139.413 59.7044 139.413 61.0121L139.417 118.594C139.417 119.603 138.325 120.235 137.448 119.735L100.415 98.6207C99.2903 97.9797 98.5969 96.7863 98.5969 95.4943V40.8571C98.5969 38.8913 100.708 37.6454 102.434 38.5931L137.553 57.8638Z" fill="white"/>
<path fill-rule="evenodd" clip-rule="evenodd" d="M107.281 112.818C109.003 113.777 110.071 115.599 110.071 117.576L110.078 124.3C110.078 125.824 108.44 126.78 107.124 126.024L51.5748 94.1182C49.8875 93.1494 48.8472 91.3468 48.8472 89.3943V85.5498C48.8472 82.5807 52.0142 80.6988 54.6029 82.1296L107.281 112.818Z" fill="white"/>
<path fill-rule="evenodd" clip-rule="evenodd" d="M111.353 124.3L111.346 117.575C111.346 115.141 110.033 112.896 107.913 111.71L55.245 81.0275C51.779 79.1114 47.5715 81.6116 47.5715 85.5498V89.3943C47.5715 91.8034 48.8559 94.0281 50.9396 95.2245L106.488 127.13C108.657 128.376 111.353 126.803 111.353 124.3ZM53.9857 83.2459L106.661 113.933C107.977 114.666 108.795 116.061 108.795 117.576L108.802 124.301C108.802 124.846 108.223 125.184 107.759 124.917L52.21 93.0119C50.9196 92.2709 50.1227 90.8907 50.1227 89.3942V85.5496C50.1227 83.5497 52.2492 82.2861 53.9857 83.2459Z" fill="black"/>
<path fill-rule="evenodd" clip-rule="evenodd" d="M136.548 128.708C138.314 129.66 139.41 131.471 139.41 133.436L139.417 140.896C139.417 142.411 137.736 143.36 136.386 142.609L117.978 132.308C116.248 131.346 115.18 129.554 115.18 127.615V123.794C115.18 120.844 118.43 118.974 121.087 120.396L136.548 128.708Z" fill="white"/>
<path fill-rule="evenodd" clip-rule="evenodd" d="M140.686 133.435C140.686 130.999 139.329 128.759 137.152 127.584L121.691 119.272C118.193 117.4 113.905 119.868 113.905 123.794V127.615C113.905 130.021 115.226 132.238 117.359 133.423L135.763 143.722C137.956 144.942 140.693 143.396 140.693 140.896L140.686 133.435ZM116.456 123.794C116.456 121.82 118.667 120.548 120.485 121.52L135.943 129.831C137.298 130.563 138.134 131.944 138.134 133.436L138.142 140.897C138.142 141.425 137.517 141.778 137.006 141.494L118.601 131.195C117.27 130.455 116.456 129.089 116.456 127.615V123.794Z" fill="black"/>
<path fill-rule="evenodd" clip-rule="evenodd" d="M46.2959 34.274V43.5379C46.2959 44.5193 45.2298 45.0156 44.5989 44.3285L37.6659 36.7793C37.1014 36.1645 37.3758 35.0996 38.1484 34.9087L45.0806 33.194C45.704 33.0389 46.2959 33.5654 46.2959 34.274Z" fill="white"/>
<path fill-rule="evenodd" clip-rule="evenodd" d="M47.5714 43.5378V34.274C47.5714 32.7731 46.2412 31.5906 44.7725 31.956L37.8419 33.6703C36.1005 34.1005 35.5247 36.3337 36.7262 37.642L43.6592 45.1912C45.1141 46.7759 47.5714 45.6315 47.5714 43.5378ZM45.0203 42.9013L38.7501 36.0739L45.0203 34.5229V42.9013Z" fill="black"/>
<path fill-rule="evenodd" clip-rule="evenodd" d="M145.795 99.6681V90.4042C145.795 89.4228 146.862 88.9265 147.492 89.6137L154.425 97.1628C154.99 97.7776 154.716 98.8426 153.943 99.0334L147.011 100.748C146.387 100.903 145.795 100.377 145.795 99.6681Z" fill="white"/>
<path fill-rule="evenodd" clip-rule="evenodd" d="M144.52 90.404V99.6679C144.52 101.169 145.85 102.351 147.319 101.986L154.249 100.272C155.991 99.8413 156.566 97.6081 155.365 96.2998L148.432 88.7506C146.977 87.166 144.52 88.3104 144.52 90.404ZM147.071 91.0405L153.341 97.8679L147.071 99.4189V91.0405Z" fill="black"/>
<path fill-rule="evenodd" clip-rule="evenodd" d="M84.384 35.7187C85.2806 36.2142 85.8366 37.1562 85.8366 38.1789L85.8406 83.1645C85.8406 83.9524 84.9875 84.4463 84.3016 84.0559L55.3699 67.5602C54.4915 67.0592 53.9497 66.1274 53.9497 65.1175V22.4324C53.9497 20.8968 55.5988 19.924 56.9469 20.6629L84.384 35.7187Z" fill="#9595EF"/>
<mask id="mask0" mask-type="alpha" maskUnits="userSpaceOnUse" x="34" y="96" width="58" height="50">
<path fill-rule="evenodd" clip-rule="evenodd" d="M34.8152 96.4536H91.5737V145.125H34.8152V96.4536Z" fill="white"/>
</mask>
<g mask="url(#mask0)">
<path fill-rule="evenodd" clip-rule="evenodd" d="M88.9827 125.014C90.5782 125.903 91.5682 127.59 91.5682 129.422L91.5737 142.484C91.5753 144.508 89.3979 145.778 87.6482 144.774L37.3438 115.907C35.7798 115.009 34.8149 113.34 34.8149 111.531V100.075C34.8149 97.325 37.7512 95.5814 40.1503 96.9057L88.9827 125.014Z" fill="#9595EF"/>
</g>
<path fill-rule="evenodd" clip-rule="evenodd" d="M138.367 60.2478C138.367 58.4756 137.402 56.8424 135.845 55.9812L100.726 36.7105C98.1517 35.2966 95 37.1563 95 40.0928V94.7301C95 96.4809 95.9396 98.0971 97.4621 98.9647L134.495 120.079C136.222 121.063 138.372 119.818 138.372 117.83L138.367 60.2478ZM97.5512 40.093C97.5512 39.098 98.6223 38.466 99.4984 38.9472L134.616 58.2169C135.356 58.6273 135.816 59.4053 135.816 60.248C135.816 60.248 135.786 117.879 135.758 117.863L98.7254 96.7484C97.9989 96.3344 97.5512 95.5643 97.5512 94.7302V40.093Z" fill="black"/>
</svg>
