<svg width="224" height="163" viewBox="0 0 224 163" fill="none" xmlns="http://www.w3.org/2000/svg">
<g opacity="0.57">
<path fill-rule="evenodd" clip-rule="evenodd" d="M72.5083 46.7983C47.5258 65.3058 -13.1635 75.3632 4.01767 117.92C19.8608 157.163 54.5659 164.811 122.442 160.792C202.612 156.046 221.498 134.972 221.498 105.33C221.498 75.6873 202.612 56.4155 175.249 46.7983C147.884 37.1812 97.4907 28.2908 72.5083 46.7983Z" fill="#9595EF"/>
</g>
<path fill-rule="evenodd" clip-rule="evenodd" d="M179.7 96.341L112.626 57.3228C111.77 56.8246 110.801 56.936 110.089 57.4321L39 99.4025L111.312 160L181.373 118.708C182.281 118.424 183 117.586 183 116.495V102.101C183 99.7245 181.742 97.5292 179.7 96.341Z" fill="white"/>
<path fill-rule="evenodd" clip-rule="evenodd" d="M110.667 161.763C110.992 162.039 111.457 162.078 111.824 161.859L181.794 120.221C183.096 119.755 184 118.525 184 117.072V102.539C184 99.7863 182.556 97.2409 180.207 95.8607L113.133 56.4636C111.97 55.7803 110.58 55.8687 109.514 56.6184L38.488 98.9552C37.8984 99.3067 37.8301 100.134 38.3541 100.578L110.667 161.763ZM182 117.072C182 117.681 181.62 118.18 180.862 118.448L111.414 159.776L40.7155 99.9557L110.601 58.2953C111.103 57.946 111.649 57.9113 112.12 58.188L179.194 97.5852C180.929 98.6046 182 100.493 182 102.539V117.072Z" fill="black"/>
<path fill-rule="evenodd" clip-rule="evenodd" d="M114 158.672V144.236C114 141.852 112.724 139.651 110.653 138.459L42.6116 99.3248C41.0066 98.4019 39 99.5556 39 101.403V115.751C39 118.107 40.2619 120.285 42.3106 121.463L110.502 160.685C112.057 161.58 114 160.462 114 158.672Z" fill="white"/>
<path fill-rule="evenodd" clip-rule="evenodd" d="M109.003 161.552C111.224 162.83 114 161.232 114 158.672V144.236C114 141.495 112.533 138.962 110.151 137.592L42.1102 98.4581C39.8394 97.1524 37 98.7856 37 101.403V115.751C37 118.466 38.4535 120.974 40.8121 122.33L109.003 161.552ZM112 144.236V158.672C112 159.691 110.89 160.33 110 159.819L41.8092 120.596C40.0705 119.596 39 117.75 39 115.751V101.403C39 100.326 40.1734 99.6515 41.1132 100.192L109.154 139.326C110.915 140.339 112 142.211 112 144.236Z" fill="black"/>
<path fill-rule="evenodd" clip-rule="evenodd" d="M133.108 129.868L164.777 110.111L133.108 129.868Z" fill="white"/>
<path d="M133.637 130.717C133.169 131.009 132.552 130.866 132.26 130.398C131.967 129.929 132.11 129.312 132.579 129.02L164.248 109.263C164.716 108.97 165.333 109.113 165.625 109.582C165.918 110.05 165.775 110.667 165.306 110.96L133.637 130.717Z" fill="black"/>
<path d="M42.9902 109.726C42.0367 109.169 41.7159 107.944 42.2736 106.99C42.8313 106.037 44.0563 105.716 45.0097 106.274L98.0097 137.274C98.9632 137.831 99.284 139.056 98.7263 140.01C98.1687 140.963 96.9436 141.284 95.9902 140.726L42.9902 109.726Z" fill="#9595EF"/>
<path d="M43.0362 116.753C42.0683 116.22 41.7153 115.004 42.2476 114.036C42.7799 113.068 43.996 112.715 44.9638 113.248L64.9638 124.248C65.9317 124.78 66.2847 125.996 65.7524 126.964C65.2201 127.932 64.004 128.285 63.0362 127.753L43.0362 116.753Z" fill="#9595EF"/>
<path d="M66.9885 131.725C66.0356 131.167 65.716 129.942 66.2746 128.989C66.8332 128.036 68.0585 127.716 69.0114 128.275L98.0114 145.275C98.9643 145.833 99.284 147.059 98.7253 148.012C98.1667 148.964 96.9414 149.284 95.9885 148.725L66.9885 131.725Z" fill="#9595EF"/>
<path fill-rule="evenodd" clip-rule="evenodd" d="M105.996 142.854C106.059 143.966 105.318 144.924 104.342 144.996C103.366 145.067 102.066 144.257 102.004 143.146C101.941 142.034 102.682 141.075 103.658 141.004C104.634 140.934 105.934 141.743 105.996 142.854Z" fill="#9595EF"/>
<path fill-rule="evenodd" clip-rule="evenodd" d="M106.978 150.426C106.787 151.483 105.848 152.171 104.881 151.963C103.914 151.754 102.831 150.63 103.022 149.574C103.213 148.517 104.151 147.829 105.118 148.037C106.086 148.246 107.169 149.37 106.978 150.426Z" fill="#9595EF"/>
<path fill-rule="evenodd" clip-rule="evenodd" d="M179.7 63.341L112.626 24.3228C111.77 23.8246 110.801 23.936 110.089 24.4321L39 66.4025L111.312 127L181.373 85.7081C182.281 85.4239 183 84.5861 183 83.4945V69.1007C183 66.7245 181.742 64.5292 179.7 63.341Z" fill="white"/>
<path fill-rule="evenodd" clip-rule="evenodd" d="M110.175 128.769C110.499 129.038 110.956 129.076 111.32 128.863L181.776 87.6239C183.087 87.1637 184 85.9424 184 84.4945V70.1007C184 67.3676 182.543 64.8421 180.178 63.4751L112.638 24.4568C111.473 23.7835 110.082 23.8705 109.014 24.6098L37.4943 66.5398C36.8965 66.8903 36.8277 67.7278 37.3604 68.1711L110.175 128.769ZM180.857 85.845L110.915 126.783L39.7344 67.5448L110.089 26.2947C110.598 25.946 111.157 25.911 111.637 26.1885L179.177 65.2068C180.924 66.2163 182 68.0817 182 70.1007V84.4945C182 85.0895 181.62 85.5807 180.857 85.845Z" fill="black"/>
<path fill-rule="evenodd" clip-rule="evenodd" d="M114 125.672V111.236C114 108.852 112.724 106.651 110.653 105.459L42.6116 66.3248C41.0066 65.4019 39 66.5556 39 68.4027V82.7513C39 85.1075 40.2619 87.2849 42.3106 88.4631L110.502 127.685C112.057 128.58 114 127.461 114 125.672Z" fill="white"/>
<path fill-rule="evenodd" clip-rule="evenodd" d="M109.003 128.552C111.223 129.83 114 128.232 114 125.672V111.236C114 108.495 112.533 105.962 110.151 104.592L42.1102 65.4581C39.8394 64.1524 37 65.7856 37 68.4028V82.7514C37 85.466 38.4535 87.9738 40.8121 89.3301L109.003 128.552ZM112 111.236V125.672C112 126.691 110.89 127.33 110 126.819L41.8092 87.5964C40.0705 86.5965 39 84.7496 39 82.7514V68.4028C39 67.3264 40.1734 66.6515 41.1132 67.1918L109.154 106.326C110.915 107.339 112 109.211 112 111.236Z" fill="black"/>
<path fill-rule="evenodd" clip-rule="evenodd" d="M133.108 97.7986L164.777 78.0415L133.108 97.7986Z" fill="white"/>
<path d="M133.637 98.647C133.169 98.9393 132.552 98.7964 132.26 98.3278C131.967 97.8593 132.11 97.2424 132.579 96.9501L164.248 77.193C164.716 76.9006 165.333 77.0435 165.625 77.5121C165.918 77.9807 165.775 78.5975 165.306 78.8898L133.637 98.647Z" fill="black"/>
<path d="M42.9902 75.7265C42.0367 75.1688 41.7159 73.9438 42.2736 72.9903C42.8313 72.0369 44.0563 71.716 45.0097 72.2737L98.0097 103.274C98.9632 103.831 99.284 105.056 98.7263 106.01C98.1687 106.963 96.9436 107.284 95.9902 106.726L42.9902 75.7265Z" fill="#9595EF"/>
<path d="M43.0362 83.7526C42.0683 83.2202 41.7153 82.0041 42.2476 81.0363C42.7799 80.0684 43.996 79.7154 44.9638 80.2477L64.9638 91.2477C65.9317 91.78 66.2847 92.9961 65.7524 93.964C65.2201 94.9318 64.004 95.2849 63.0362 94.7526L43.0362 83.7526Z" fill="#9595EF"/>
<path d="M66.9885 97.7255C66.0356 97.1669 65.716 95.9415 66.2746 94.9886C66.8332 94.0357 68.0585 93.7161 69.0114 94.2747L98.0114 111.275C98.9643 111.833 99.284 113.059 98.7253 114.012C98.1667 114.964 96.9414 115.284 95.9885 114.725L66.9885 97.7255Z" fill="#9595EF"/>
<path fill-rule="evenodd" clip-rule="evenodd" d="M105.996 109.854C106.059 110.966 105.318 111.924 104.342 111.996C103.366 112.067 102.066 111.257 102.004 110.146C101.941 109.034 102.682 108.076 103.658 108.004C104.634 107.933 105.934 108.743 105.996 109.854Z" fill="#9595EF"/>
<path fill-rule="evenodd" clip-rule="evenodd" d="M106.978 118.426C106.787 119.483 105.848 120.171 104.881 119.963C103.914 119.754 102.831 118.631 103.022 117.574C103.213 116.516 104.151 115.828 105.118 116.037C106.086 116.245 107.169 117.369 106.978 118.426Z" fill="#9595EF"/>
<path fill-rule="evenodd" clip-rule="evenodd" d="M132.118 29.548C130.686 28.629 129.15 27.8901 127.513 27.372C125.03 18.1925 118.829 9.36145 111.085 4.26717C106.719 1.39418 102.05 1.4113 98.3258 3.42217C98.2678 3.4531 88.4513 8.99142 88.4513 8.99142L92.3847 10.1346C92.0149 11.0106 91.7151 11.9395 91.5034 12.9215C91.0624 12.6128 90.5969 12.3278 90.1581 12.0588C86.5535 9.8458 82.7695 9.96952 79.9139 11.6993L70 17.2834L75.2507 20.0813C75.2381 20.3679 75.2326 20.6579 75.2398 20.9534C75.4706 30.5339 81.9106 41.8043 90.1007 46.9069C103.067 54.4721 116.104 61.9003 129.192 69.2491C129.492 69.4175 129.792 69.5666 130.091 69.7069L127.426 71.6344L129.091 76.5274L139.422 70.6344C143.026 69.136 145.068 64.9755 145.742 60.2866C147.323 49.2922 141.491 35.5635 132.118 29.548Z" fill="#9595EF"/>
<path fill-rule="evenodd" clip-rule="evenodd" d="M146.732 60.429C148.389 48.9028 142.244 34.8592 132.658 28.7065C131.282 27.823 129.838 27.1141 128.334 26.591C125.681 17.3066 119.388 8.53273 111.635 3.43183C107.159 0.486212 102.104 0.246097 97.8507 2.54231C97.8044 2.56699 94.7976 4.2628 87.9599 8.12054C87.1887 8.55568 87.3218 9.7046 88.1722 9.95175L91.0623 10.7918C91.0004 10.9708 90.9416 11.1509 90.8858 11.3322L90.6808 11.2063C86.9189 8.89676 82.7268 8.82629 79.3958 10.844L69.5092 16.4122C68.8211 16.7998 68.8327 17.7946 69.5297 18.166L74.2366 20.6741C74.2365 20.7763 74.2376 20.8772 74.2401 20.9775C74.4792 30.9035 81.1036 42.4798 89.5719 47.7557C101.726 54.8474 114.409 62.0927 128.201 69.8396L126.84 70.8241C126.484 71.0814 126.337 71.5409 126.479 71.9567L128.145 76.8497C128.347 77.4443 129.041 77.7073 129.587 77.396L139.865 71.533C143.584 69.9537 145.957 65.8153 146.732 60.429ZM126.548 27.6332C126.637 27.9619 126.887 28.2227 127.211 28.3255C128.732 28.8066 130.19 29.4986 131.578 30.3897C140.494 36.1122 146.3 49.3814 144.753 60.1444C144.064 64.9314 142.025 68.4695 138.926 69.7658L129.648 75.0588L128.61 72.0118L130.677 70.5173C131.295 70.0706 131.206 69.1244 130.515 68.8012C130.202 68.6547 129.935 68.5193 129.682 68.3773C115.705 60.5293 102.871 53.1998 90.6046 46.0432C82.7322 41.1381 76.4624 30.1814 76.2395 20.9293C76.2334 20.6761 76.2371 20.4136 76.2497 20.1252C76.2666 19.7404 76.0609 19.38 75.721 19.1989L72.0808 17.2592L80.4046 12.5706C83.1131 10.9306 86.5019 10.9876 89.6349 12.9111C89.9879 13.1275 90.1334 13.2174 90.3224 13.3376C90.549 13.4816 90.7471 13.6128 90.9298 13.7407C91.5156 14.1509 92.3302 13.8314 92.4809 13.1323C92.6746 12.2341 92.951 11.3643 93.3059 10.5237C93.5387 9.97239 93.2384 9.34147 92.6638 9.17446L91.0127 8.69458C95.9771 5.8939 98.7729 4.3171 98.7964 4.3046C102.403 2.35707 106.671 2.5598 110.536 5.10261C118.019 10.0261 124.11 18.6221 126.548 27.6332Z" fill="black"/>
<path fill-rule="evenodd" clip-rule="evenodd" d="M123.072 35.0193C121.635 34.0846 120.094 33.333 118.451 32.8056C115.96 23.4699 109.738 14.488 101.969 9.30676C93.6835 3.7806 84.3097 8.7619 82.3216 18.1083C81.8792 17.7949 81.4121 17.505 80.9719 17.2315C73.7458 12.7349 65.8007 17.7218 66.0038 26.2773C66.2354 36.0214 72.6969 47.4843 80.9143 52.6746C93.9239 60.3684 107.005 67.9241 120.136 75.3982C127.751 79.7324 135.533 74.7967 136.741 66.2827C138.328 55.1006 132.476 41.137 123.072 35.0193Z" fill="white"/>
<path fill-rule="evenodd" clip-rule="evenodd" d="M137.731 66.4233C139.393 54.7105 133.232 40.4357 123.617 34.1812C122.235 33.2822 120.786 32.5607 119.275 32.028C116.616 22.5873 110.303 13.6632 102.524 8.47493C94.2573 2.96139 84.4864 7.16532 81.6988 16.506L81.4998 16.3822C73.6329 11.4869 64.7812 16.908 65.0041 26.3012C65.2439 36.3878 71.8867 48.1554 80.3803 53.5202C92.727 60.8224 105.617 68.2847 119.641 76.2674C127.704 80.8566 136.394 75.8498 137.731 66.4233ZM118.146 33.7578C119.671 34.2477 121.134 34.9516 122.527 35.8577C131.476 41.6798 137.306 55.1852 135.751 66.1424C134.603 74.2358 127.403 78.384 120.631 74.5293C106.615 66.5518 93.7349 59.095 81.4233 51.814C73.5217 46.8226 67.2275 35.6724 67.0036 26.2537C66.8175 18.4166 73.9569 14.0442 80.4436 18.0806C80.7979 18.3008 80.9438 18.3922 81.1335 18.5144C81.3611 18.661 81.56 18.7944 81.7435 18.9244C82.33 19.3399 83.1502 19.0195 83.2998 18.3165C85.2093 9.3393 93.9742 5.17662 101.414 10.1388C108.924 15.1476 115.038 23.8938 117.485 33.0635C117.573 33.3922 117.822 33.6538 118.146 33.7578Z" fill="black"/>
</svg>
