<svg width="197" height="170" viewBox="0 0 197 170" fill="none" xmlns="http://www.w3.org/2000/svg">
<path d="M179.584 139.789C163.893 161.922 135.415 161.349 98.4871 155.971C60.4899 150.437 51.9829 155.16 24.8115 136.863C-2.3598 118.566 0.728406 82.5211 32.3814 78.2794C64.0344 74.0377 57.7713 53.1205 117.676 63.8258C207.057 79.799 195.274 117.656 179.584 139.789Z" fill="rgba(133, 240, 255, 0.83)"/>
<g clip-path="url(#clip0)">
<path d="M188.971 96.1434C188.971 98.5115 188.563 100.88 187.815 103.248C185.436 110.758 179.18 117.862 169.118 123.681C142.67 138.904 99.7 138.904 73.2519 123.681C63.1894 117.862 56.9343 110.758 54.5546 103.248C53.8067 100.88 53.3988 98.5115 53.3988 96.1434C53.3988 86.1975 59.9938 76.184 73.2519 68.6062C99.7 53.3829 142.67 53.3829 169.118 68.6062C182.308 76.184 188.971 86.1299 188.971 96.1434Z" fill="white" stroke="black" stroke-width="2" stroke-miterlimit="10" stroke-linejoin="round"/>
<path d="M188.971 96.1434V110.419C188.971 120.365 182.376 130.379 169.118 137.957C142.67 153.18 99.7005 153.18 73.2524 137.957C59.9263 130.311 53.3313 120.365 53.3313 110.352V96.1434C53.3313 98.5114 53.7392 100.88 54.4871 103.248C56.8668 110.758 63.1219 117.862 73.1844 123.681C99.6325 138.904 142.602 138.904 169.05 123.681C179.113 117.862 185.368 110.758 187.748 103.248C188.564 100.88 188.971 98.5114 188.971 96.1434Z" fill="white" stroke="black" stroke-width="2" stroke-miterlimit="10" stroke-linejoin="round"/>
<path d="M84.4028 117.253C64.1418 105.616 64.1418 86.6711 84.4028 75.0338C104.664 63.3964 137.639 63.3964 157.9 75.0338C178.161 86.6711 178.161 105.616 157.9 117.253C137.639 128.89 104.664 128.89 84.4028 117.253ZM149.537 79.7699C133.832 70.7713 108.335 70.7713 92.6976 79.7699C76.9919 88.7686 76.9919 103.451 92.6976 112.449C108.403 121.448 133.9 121.448 149.537 112.449C165.243 103.451 165.243 88.8362 149.537 79.7699Z" fill="white" stroke="black" stroke-width="2" stroke-miterlimit="10" stroke-linejoin="round"/>
<path d="M103.576 106.225C93.9213 100.677 93.9213 91.6103 103.576 86.0622C113.23 80.5142 129.004 80.5142 138.659 86.0622C148.313 91.6103 148.313 100.677 138.659 106.225C129.004 111.773 113.298 111.773 103.576 106.225ZM130.364 90.866C125.265 87.9567 117.038 87.9567 111.939 90.866C106.839 93.7753 106.839 98.5115 111.939 101.421C117.038 104.33 125.265 104.33 130.364 101.421C135.395 98.5115 135.395 93.7753 130.364 90.866Z" fill="white" stroke="black" stroke-width="2" stroke-miterlimit="10" stroke-linejoin="round"/>
<path d="M119.448 2.33627C119.055 2.20095 118.859 1.99797 118.859 1.79499C118.859 1.59202 119.055 1.38904 119.448 1.25372C120.235 0.915426 121.512 0.915426 122.299 1.25372C122.692 1.38904 122.888 1.59202 122.888 1.79499C122.888 1.99797 122.692 2.20095 122.299 2.33627C121.512 2.67456 120.235 2.67456 119.448 2.33627Z" fill="white" stroke="black" stroke-width="2" stroke-miterlimit="10" stroke-linejoin="round"/>
<path d="M119.448 96.1793C119.055 96.044 118.859 95.841 118.859 95.638V1.79498C118.859 1.99796 119.055 2.20094 119.448 2.33625C120.235 2.67455 121.512 2.67455 122.299 2.33625C122.692 2.20094 122.888 1.99796 122.888 1.79498V95.638C122.888 95.841 122.692 96.044 122.299 96.1793C121.512 96.5176 120.235 96.5176 119.448 96.1793Z" fill="white" stroke="black" stroke-width="2" stroke-miterlimit="10" stroke-linejoin="round"/>
<path d="M111.651 10.0494C111.651 10.0494 111.651 4.77197 111.651 3.48645L118.79 7.68131L118.858 31.5649L111.651 27.3024C111.651 24.6637 111.651 15.3944 111.651 15.3944V10.0494Z" fill="white" stroke="black" stroke-width="2" stroke-miterlimit="10" stroke-linejoin="round"/>
<path d="M131.193 15.3944C131.193 15.3944 131.193 24.6637 131.193 27.3024L123.578 31.6326V8.0196L131.193 3.48645C131.193 4.70431 131.193 10.0494 131.193 10.0494V15.3944Z" fill="white" stroke="black" stroke-width="2" stroke-miterlimit="10" stroke-linejoin="round"/>
</g>
<defs>
<clipPath id="clip0">
<rect width="137" height="150" fill="white" transform="translate(52.6514)"/>
</clipPath>
</defs>
</svg>
