<svg xmlns="http://www.w3.org/2000/svg" width="102" height="99" viewBox="0 0 102 99">
    <g fill="none" fill-rule="evenodd">
        <path fill="#8B75FA" fill-opacity=".08" stroke="#000" stroke-dasharray="8,10" stroke-linecap="round" stroke-linejoin="round" d="M60.842 11c15.586 0 26.767 8.286 33.543 24.857C99.128 37.238 101.5 38.62 101.5 40c0 2.071-2.033 14.5-2.033 14.5s-3.05 0-3.05 2.071c0 2.072 2.034 4.143 2.034 7.25 0 3.108-2.033 10.358-2.033 10.358s-6.099 1.035-6.099 0c0-1.036-3.434 5.357-2.033 6.214 1.402.857 7.115-.36 7.115.675 0 1.036-5.082 6.575-6.098 7.61-1.017 1.036-3.05 2.072-5.083 3.108-2.033 1.035-5.082 1.035-7.115 2.071C75.072 94.893 69.99 98 62.875 98S53.68 98.246 41 91.786c-12.68-6.46-12.51-9.972-12.684-11.393-.175-1.421 5.082 3.107 6.098 3.107 1.017 0 4.066 3.5 4.066 1.036 0-2.465-3.05-6.215-4.066-8.286-1.016-2.071-4.065 0-6.098-2.071-2.033-2.072-3.05-10.358-2.033-11.393 1.016-1.036-4.066 2.071-6.099 3.107-2.033 1.036-2.033-1.036-1.016-2.072 1.016-1.035 9.148-8.285 7.115-8.803-2.033-.518-4.066-4.66-4.066-6.732s-1.016-6.215 0-8.286c1.016-2.071 7.115-2.071 7.115-4.143 0-2.071 8.132-24.857 31.51-24.857z"/>
        <g fill-rule="nonzero">
            <path fill="#0E0F0D" d="M86.59 30.313c-.04-.317-.089-.634-.154-.944a9.978 9.978 0 0 0-.223-.967l-.24-.385c-.99-.784-2.059-1.376-3.143-1.9a33.44 33.44 0 0 0-2.725-1.14c-2.565-7.175-6.973-13.537-12.769-17.97C61.346 2.425 54.3 0 46.961 0c-7.339 0-14.385 2.425-20.376 7.008C20.789 11.44 16.38 17.803 13.816 24.98a33.65 33.65 0 0 0-2.723 1.137c-1.086.524-2.154 1.116-3.144 1.9l-.241.385c-.086.319-.161.641-.224.966-.062.311-.109.627-.153.944-.088.628-.149 1.26-.18 1.893a23.978 23.978 0 0 0 .11 3.8c.135 1.264.368 2.516.698 3.744.174.618.376 1.227.607 1.825.116.302.244.602.385.901.07.15.145.295.223.447.172.304.203.363.276.471l.325.302c.212.11.387.194.579.285l.56.254c.104.043.201.085.307.128-2.544 2.371-5.307 5.452-7.7 9.259L.5 58.426l4.242-3.753c.072-.064 3.629-3.168 9.56-6.685l.084.687c-.388.204-2.253 1.19-2.808 1.658-.919.77-.963 1.964-.717 4.191.126 1.142.55 3.358 1.123 5.39.987 3.497 1.71 4.115 2.345 4.26.286.07.656.1 1.071.1 1.137 0 2.592-.222 3.542-.511a35.188 35.188 0 0 0 4.615 9.412c-.093.025-.184.055-.277.082-1.157-.541-5.203-2.43-6.562-3.046l-2.842-1.29 1.68 2.645c.123.191 3.024 4.752 5.392 7.825 2.216 2.867 5.249 5.801 10.973 5.801.689 0 1.41-.045 2.152-.127 1.707-.198 2.99-.353 3.964-.48 6.009 2.227 12.634 2.364 18.921-.038a27.592 27.592 0 0 0 4.728-2.355c2.424-.586 5.076-1.223 6.385-1.594.21-.058.473-.12.747-.186 1.825-.423 4.875-1.136 6.501-4.416 1.64-3.31 4.312-8.38 4.34-8.432l1.25-2.366-2.436 1.068c-.13.06-3.215 1.414-4.818 2.26 1.114-2.584 1.77-4.724 1.999-5.546.897.218 2.228.19 3.207.19.48 0 .976-.084 1.297-.167.636-.162 1.127-.589 2.05-4.197.539-2.097.924-4.38 1.03-5.554.205-2.285.139-3.509-.786-4.282-.46-.383-1.813-1.118-2.5-1.479.384-.166.573-.117.587-.113l.624-2.387c.22-.095.453-.19.717-.292.377-.151.754-.302 1.131-.466l.557-.253c.194-.092.369-.175.581-.285l.325-.302c.07-.108.108-.167.151-.25.207-.374.28-.52.348-.668.14-.3.266-.6.384-.902.231-.598.433-1.207.606-1.824.33-1.228.565-2.48.699-3.745a23.73 23.73 0 0 0 .109-3.8c-.03-.633-.091-1.264-.181-1.892z"/>
            <path fill="#E1C5A2" d="M51.266 79.909c-.592.075-1.183.137-1.767.177-.38.016-.78.048-1.144.048l-.135.003c.456-.868.803-1.543 1.065-2.054a78.223 78.223 0 0 0 1.98 1.826"/>
            <path fill="#A89983" d="M49.916 43.181a20.043 20.043 0 0 1-2.254 1.62l-2.618 1.604a21.884 21.884 0 0 0-3.148.64.614.614 0 0 0-.406.407l-2.667 8.92-14.252 3.217-4.49-3.192-1.305-10.74a144.49 144.49 0 0 1 10.053-1.49c-.446.541-.87 1.102-1.268 1.68l-2.438 3.552 3.55-2.402c.054-.038 2.313-1.548 6.01-3.385a160.068 160.068 0 0 1 15.233-.43zm-22.183 12.1c1.013-.556 2.157-.475 3.948-.47.19.003.39 0 .595-.005.177 0 .354-.003.541-.009 1.846-.018 3.38.159 3.351-2.78-.027-2.94-1.314-5.319-3.159-5.3-1.844.016-3.629 2.426-3.519 5.365.03.765.142 1.318.319 1.715-1.608.41-2.053 1.42-2.076 1.483zm46.885-9.659l-1.284 9.132-4.526 3.219-14.233-1.643-2.656-8.878a.603.603 0 0 0-.406-.407 21.383 21.383 0 0 0-3.718-.702l.342-.023c.294-.022 5.203-.632 11.065-2.683 6.49.505 11.793 1.314 15.416 1.985zm-9.094 8.453c-.019-.071-.41-1.252-2.122-1.045.196-.437.285-1.027.223-1.837-.226-2.934-1.91-5.266-3.752-5.2-1.844.065-3.024 2.497-2.922 5.441.101 2.937 1.647 2.917 3.492 2.85 2.477-.047 3.837-.82 5.081-.209z"/>
            <path fill="#FFF" d="M60.403 49.391c.01.62-.406 1.132-.928 1.144a.87.87 0 0 1-.674-.315 1.23 1.23 0 0 1-.288-.788c-.005-.298.09-.586.264-.8a.882.882 0 0 1 .663-.344.868.868 0 0 1 .675.314c.181.207.285.491.288.79m-26.533.826c.013.62-.399 1.134-.92 1.152a.869.869 0 0 1-.679-.307 1.228 1.228 0 0 1-.296-.788 1.247 1.247 0 0 1 .26-.803.885.885 0 0 1 .663-.348c.523-.016.958.473.972 1.094"/>
            <path fill="#E1C5A2" d="M81.444 50.34c-.223-.189-.967-.624-1.692-1.025L78.56 57.88a.628.628 0 0 1-.25.414L76.6 59.517c-.04.206-.072.379-.102.54 1.678.424 3.308-.815 4.223-1.709.423-1.687.792-3.69.92-5.124.194-2.223.022-2.7-.197-2.884M55.065 82.878a8.134 8.134 0 0 1-3.008-1.956c-.074-.077-.144-.151-.218-.226-.692.144-1.391.247-2.095.308-.3.013-.587.04-.9.04l-.463.004-.179-.004c-1.059 1.61-2.84 2.495-4.235 2.966 4.145.728 8.706-.386 11.098-1.132M18.578 61.903c-.037-.13-.076-.258-.112-.387l-2.22-1.59a.62.62 0 0 1-.25-.427l-1.081-8.994c-.8.438-1.726.978-1.972 1.189-.215.18-.378.642-.147 2.785.176 1.61.729 4.086 1.294 5.94 1.123.88 2.778 1.808 4.488 1.484m33.17-.41a.601.601 0 0 1-.504-.433l-2.738-9.236a9.401 9.401 0 0 0-1.21-.096c-.346 0-.751.034-1.21.096l-2.661 8.97a.604.604 0 0 1-.443.418l-1.272.29c-.108.46-.474 1.136-1.655 1.506-1.904.594-13.96 4.273-15.334 4.073-.803-.115-2.33-.978-3.46-1.675a29.508 29.508 0 0 1-.76-2.007v-.003l-.003.003c.16.479 1.733 5.114 4.93 9.648 3.426-1.033 6.386-1.997 7.332-2.304 1.927-3.042 4.674-6.061 6.624-6.164.343-.018.687-.027 1.031-.028.956 0 1.868.07 2.715.172-.72-.668-.867-1.45-.971-1.796 0 0 2.49 1.994 5.658 1.574 3.174-.415 5.142-2.286 5.142-2.286l.062-.575-1.273-.148"/>
            <path fill="#E1C5A2" d="M54 62.362c-.652-.168-1.063-.437-1.323-.718l-.032.286s-.01 1.321-1.38 2.345c2.636-.799 3.726-1.07 4.472-1.07.822 0 1.228.344 1.584.645.068.056.135.115.216.179 1.73 1.362 3.455 2.73 5.176 4.102.825.095 3.444.395 5.092.545.949.088 1.808.16 2.65.16.27 0 .525-.01.766-.026a41.961 41.961 0 0 0 2.382-5.536c-.975.683-3.196 2.18-4.236 2.373-1.353.253-13.459-2.79-15.367-3.285"/>
            <path fill="#E0D896" d="M84.692 31.393a21.06 21.06 0 0 0-.09-.889 10.695 10.695 0 0 0-.092-.63c-.772-.667-1.651-1.261-2.566-1.8a32.96 32.96 0 0 0-3.086-1.62c-1.05-.51-2.13-.97-3.214-1.42a51.758 51.758 0 0 0-1.638-.652c-.547-.22-1.098-.424-1.652-.631 1.16.198 2.312.47 3.454.771.743.195 1.482.417 2.215.654-5.222-14.003-17.7-23.121-31.328-23.121S20.59 11.173 15.37 25.175a41.7 41.7 0 0 1 2.213-.653 39.411 39.411 0 0 1 3.456-.77 70.11 70.11 0 0 0-1.657.63c-.548.209-1.093.427-1.635.653-1.085.449-2.163.91-3.216 1.419a33.555 33.555 0 0 0-3.084 1.62c-.915.539-1.792 1.133-2.566 1.8a19.326 19.326 0 0 0-.183 1.519 26.884 26.884 0 0 0 .14 5.383c.16 1.19.373 2.373.687 3.518.153.57.331 1.13.535 1.683a14.872 14.872 0 0 0 .508 1.186l.075.145.26.133.519.254c.29.136.69.331 1.022.483a.84.84 0 0 0 .052-.051l-.963-3.765c.204-.057 2.033-.542 5.185-1.159a14.99 14.99 0 0 1-.762-.166 15.818 15.818 0 0 1-2.113-.692 9.602 9.602 0 0 1-.995-.494c-.319-.19-.632-.402-.877-.686 3.462 1.161 10.619.637 16.98-.04 5.816-.615 11.65-1.013 17.512-1.026 5.86.013 11.696.411 17.51 1.027 6.363.676 13.52 1.2 16.98.04-.24.283-.556.496-.873.685a9.932 9.932 0 0 1-.997.494c-.687.284-1.393.507-2.111.692-.107.026-.215.048-.321.073 3.458.658 5.47 1.193 5.683 1.251l-.92 3.587c.187-.083.374-.166.555-.253l.52-.255c.085-.041.174-.088.262-.132l.07-.146a13.288 13.288 0 0 0 .51-1.186c.202-.552.381-1.113.535-1.682.315-1.145.527-2.329.685-3.52.15-1.186.23-2.386.22-3.586-.003-.6-.029-1.198-.079-1.795"/>
            <path fill="#D7C184" d="M61.493 24.059c.053 1.596.015 4.492-.71 7.202a.605.605 0 0 0 0 .311c-.922-.099-1.845-.186-2.768-.262 1.035-2.227 1.26-4.598 1.311-5.434a24.345 24.345 0 0 0 2.167-1.817M35.09 25.876c.048.835.274 3.201 1.309 5.429-.923.074-1.846.161-2.767.262a.612.612 0 0 0 0-.306c-.723-2.706-.761-5.602-.712-7.202.583.541 1.372 1.238 2.17 1.817m37.737 7.907a.599.599 0 0 1-.019.08c.101.03.2.06.302.094.853.287 1.707.587 2.523.974-1.362-.908-2.225-3.528-2.707-5.53.133 2.62-.086 4.283-.099 4.382M31.785 23.555l-8.81 2.571c-.528 3.517-.367 6.203-.282 7.135l.045-.028s.287-3.83.872-5.3c.301-.756 2.145-1.237 3.551-1.582 1.41-.343 3.656-1.032 4.092.998.269 1.255.64 2.298.995 3.067-.566-2.789-.53-5.516-.463-6.86m30.843 0c.072 1.397.105 4.286-.533 7.186.4-.788.844-1.95 1.154-3.393.436-2.03 2.682-1.341 4.091-.997 1.409.344 3.25.825 3.552 1.58.497 1.245.777 4.178.851 5.05.084-1.12.177-3.642-.303-6.856l-8.812-2.57m-27.608.782c.31.255.63.498.96.728.153.11.247.289.25.482.002.03.068 3.008 1.352 5.545a.87.87 0 0 1 .044.119c3.19-.223 6.39-.313 9.581-.315 3.194.002 6.392.098 9.58.322.013-.043.025-.085.047-.126 1.282-2.537 1.35-5.515 1.35-5.545a.605.605 0 0 1 .254-.482c.316-.222.624-.457.923-.703l.04-.116c.667-6.663-.557-12.803-1.334-15.837-.041 2.075-.52 19.85-4.818 19.85H41.386c-4.564 0-4.931-20.04-4.931-20.04l-.235.71c-.779 3.196-1.848 9.07-1.2 15.408M21.606 33.86c-.004-.026-.011-.051-.017-.078-.014-.099-.234-1.763-.101-4.387-.482 2.004-1.348 4.628-2.712 5.536.816-.389 1.674-.69 2.528-.977l.302-.094"/>
            <path fill="#9F8F78" d="M76.463 60.25c-.073.388-.158.775-.254 1.158.984.23 2.594.41 3.364.259.33-.36.755-1.607 1.137-3.105-.92.882-2.56 2.105-4.247 1.687M41.177 84.461c2.352.647 4.754.928 7.12.77a28.353 28.353 0 0 0 8.73-2.011 8.061 8.061 0 0 1-2.12-.447c-2.406.737-6.992 1.837-11.16 1.118a11.7 11.7 0 0 1-2.053.489c-.174.02-.319.044-.517.082M18.367 62.6c-.054-.176-.103-.353-.155-.53-1.72.32-3.384-.595-4.513-1.463.366 1.175.735 2.099 1.01 2.38.852.15 2.736-.113 3.659-.387m2.542 2.928c1.136.688 2.672 1.54 3.48 1.653 1.382.198 13.507-3.433 15.422-4.02 1.186-.365 1.556-1.031 1.664-1.485l-17.492 3.912a.8.8 0 0 1-.131.014h-.002a.604.604 0 0 1-.344-.11l-.682-.477-2.043-1.438v-.003l-.825-.578.047.14c.047.136.093.274.142.408v.004c.058.173.31.904.764 1.98m53.656-3.376c.112-.415.222-.835.322-1.259l-.608.429-1.634 1.15-1.768 1.245a.618.618 0 0 1-.412.106l-17.614-2.012-.03.276c.263.286.68.56 1.34.732 1.936.504 14.209 3.602 15.58 3.344 1.056-.196 3.308-1.72 4.295-2.416l.025-.072a60.6 60.6 0 0 0 .504-1.523"/>
            <path fill="#6E6A67" d="M55.953 38.014c-.139.185-.29.388-.454.599a38.875 38.875 0 0 1-3.367 3.842 152.65 152.65 0 0 0-4.93-.08c-2.792 0-5.47.076-8.011.202 3.593-1.535 7.908-3.035 12.582-3.936a47.026 47.026 0 0 1 4.18-.627M34.93 39.672a32.103 32.103 0 0 0-4.135 3.55c-3.118.32-6.226.738-9.32 1.25 3.978-1.883 8.519-3.618 13.455-4.8m43.934 7.651l-1.464 10.545-7.007 5.06-18.273-2.141-2.75-9.338a.608.608 0 0 0-.479-.432 11.026 11.026 0 0 0-1.774-.168c-.501 0-1.1.055-1.78.168a.616.616 0 0 0-.478.432l-2.682 9.11-18.17 4.167-7.202-5.198-1.42-11.835c.313-.18.626-.36.94-.538.447-.1.949-.204 1.503-.313l1.338 11.168a.61.61 0 0 0 .252.428l4.955 3.578a.598.598 0 0 0 .475.096l14.94-3.426a.614.614 0 0 0 .442-.425l2.692-9.129c.721-.19 2.57-.637 4.194-.637 1.622 0 3.47.447 4.194.637l2.69 9.13c.069.235.27.408.507.436l14.941 1.75a.585.585 0 0 0 .41-.11l4.957-3.572a.639.639 0 0 0 .248-.421l1.323-9.543c.994.196 1.824.376 2.478.521m1.845-6.614l-1.287 5.029c-2.63-.598-8.407-1.772-16.27-2.562 2.568-1.129 5.184-2.543 7.575-4.315 4.679.681 8.115 1.413 9.982 1.848m-67.01 0l.357 1.392a45.245 45.245 0 0 1 2.69-2.046c-1.26.25-2.288.476-3.048.654"/>
            <path fill="#93232C" d="M63.98 38.069c-1.98-.112-3.958-.207-5.94-.288-.221.325-.449.647-.683.964-1.061 1.43-3.153 4.037-5.836 6.274 2.018-.637 10.024-3.311 14.08-6.851-.54-.035-1.08-.068-1.62-.1m-14.51-.52l.008-.002c-1.004-.013-2.01-.024-3.012-.028h-.002c-1.477.004-2.95.023-4.428.048l-2.723 1.286a.162.162 0 0 0-.04.023c-.41.198-3.986 1.995-7.352 5.2.294-.154.606-.314.928-.476 1.841-1.233 6.752-4.15 14.387-6.073.745.005 1.49.009 2.234.022m-16.737.327a369.61 369.61 0 0 0-3.783.194c-1.46.081-2.917.18-4.373.289-.726.055-1.452.117-2.172.192-.21.02-.413.043-.618.069-1.902 1.132-9.18 5.682-14.18 11.638.085-.104.174-.206.262-.308 9.258-7.866 19.408-10.928 24.864-12.074m41.884 32.348l-.167.086c-.928.486-2.145.723-3.717.723-.936 0-1.854-.078-2.871-.17-2.031-.184-5.47-.587-5.505-.593l-.263-.028-.208-.167c-.031-.02-3.042-2.412-5.476-4.318-.1-.08-.189-.156-.27-.22-.257-.22-.257-.22-.41-.22-.782 0-3.052.703-8.023 2.236l-.305.097-.302-.114c-.034-.008-3.295-1.213-7.204-1.213-.32 0-.64.008-.95.023-.39.02-2.588 1.06-5.4 5.486l-.18.286-.323.103c-.047.015-4.883 1.57-10.013 3.03l-.331.094-.317-.146c-.033-.011-2.036-.94-3.946-1.81l.424.193c1.884 1.62 5.494 4.736 5.894 5.168.056.062.133.138.225.224a9.701 9.701 0 0 1-.272-.322l-.003-.003c.832.785 1.76 1.464 2.774 1.941.506.237 1.036.42 1.575.51.272.043.536.066.812.066.278 0 .563-.008.848-.022a75.812 75.812 0 0 0 3.401-.254c1.134-.101 2.269-.214 3.401-.351A73.635 73.635 0 0 0 40.9 80.1c.562-.08 1.12-.173 1.666-.294.268-.063.547-.132.76-.227.193-.093.428-.278.634-.455.422-.361.83-.763 1.233-1.163.404-.403.802-.812 1.193-1.228.664-.693 1.233-1.429 1.877-2.142.082-.089.166-.183.251-.274l.002.001.007.009c.134.096.268.193.4.295.773.575 1.572 1.197 2.343 1.734.994.696 2 1.392 3.04 1.972.26.144.53.279.785.363a.42.42 0 0 0 .087.022c.02.012.088.022.096.022.05.008.118.011.183.016.14.001.286-.005.431-.011a21.12 21.12 0 0 0 1.779-.22 84.7 84.7 0 0 0 3.569-.634c1.189-.226 2.376-.47 3.556-.73a95.693 95.693 0 0 0 3.538-.82c.583-.157 1.166-.3 1.686-.55a6.53 6.53 0 0 0 1.478-.97c.915-.777 1.685-1.74 2.325-2.789l-.002.004c.314-.581.582-1.186.801-1.809M52.425 14.51h2.093v-4.235H39.211v4.235h2.094v-2.15h4.329v13.078h-1.782v2.428h6.026v-2.428h-1.783V12.358h4.33v2.15"/>
            <path fill="#731B2A" d="M67.316 38.85a.023.023 0 0 0-.012-.003c-.853-.066-1.707-.127-2.56-.183l-.05-.003c-3.992 3.57-11.872 6.267-13.86 6.909l-.114.1c2.557-.47 6.378-1.401 10.343-3.193 1.95-.88 3.936-1.968 5.824-3.312.146-.104.287-.212.429-.315m-20.697-.836c-7.517 1.938-12.35 4.88-14.163 6.123a75.354 75.354 0 0 1 5.737-2.678l.197-.082c.174-.072.35-.142.527-.214.098-.04.195-.08.295-.118.158-.064.319-.127.48-.19.122-.047.242-.094.365-.14.148-.058.297-.115.448-.17.14-.054.282-.106.424-.158l.418-.154.483-.172.384-.135c.19-.065.38-.13.573-.194l.316-.107a58.272 58.272 0 0 1 2.95-.893 58.321 58.321 0 0 1 2.764-.696c-.732-.013-1.466-.017-2.198-.022m-14.277.352c-5.37 1.156-15.362 4.243-24.476 12.175-.087.103-.174.205-.259.31 4.633-3.286 12.596-8.17 22.44-11.14a62.4 62.4 0 0 1 6.002-1.5c-1.235.046-2.471.098-3.707.155m43.004 31.742c-.095.044-.189.089-.282.134l-.153.072-.122.059-.186.09c-.025.014-.053.026-.079.04l-.209.102-.046.023c-.074.038-.149.074-.22.111l-.024.011c-.16.081-.312.159-.453.233a12.79 12.79 0 0 1-.791 1.825l.003-.004-.004.006c-.629 1.053-1.386 2.022-2.285 2.804-.447.39-.932.73-1.454.979-.513.25-1.087.396-1.66.554a92.085 92.085 0 0 1-3.483.826c-1.163.263-2.33.509-3.5.737-1.168.24-2.342.454-3.515.64a20.11 20.11 0 0 1-1.75.22c-.141.008-.282.012-.424.011a2.2 2.2 0 0 1-.181-.015.343.343 0 0 1-.093-.022.346.346 0 0 1-.086-.022 4.568 4.568 0 0 1-.773-.366c-1.024-.586-2.015-1.287-2.993-1.989-.758-.542-1.546-1.169-2.307-1.748l-.067.096.005.005c.047.044.095.084.143.126l-.004-.002-.1-.076.638.776.073.089c.326.39 1.69 2.003 3.308 3.642 1.232 1.246 2.719 1.875 4.425 1.875.582 0 1.194-.078 1.812-.228.572-.143 1.194-.294 1.832-.451 1.89-.46 3.984-.971 5.374-1.34l.27-.071c.196-.053.375-.102.534-.147.272-.077.546-.146.821-.207 1.686-.399 3.992-.944 5.213-3.441.366-.745.736-1.487 1.109-2.228a500.243 500.243 0 0 1 1.85-3.628l.121-.237-.287.136m-27.609 5.386l-.11-.106c-.633.719-1.193 1.46-1.847 2.16-.384.419-.776.832-1.174 1.238-.397.404-.799.81-1.214 1.173-.203.178-.434.366-.625.458-.208.096-.483.166-.747.23-.536.121-1.086.214-1.64.296a69.9 69.9 0 0 1-3.33.44c-1.116.138-2.233.252-3.349.355-1.117.11-2.238.197-3.348.256-.28.013-.56.022-.835.022a4.7 4.7 0 0 1-.799-.068 5.892 5.892 0 0 1-1.55-.513c-.998-.481-1.912-1.166-2.73-1.957l.002.003c.11.139.233.269.349.401l-.081-.077a3.846 3.846 0 0 1-.222-.226c-.395-.436-3.948-3.577-5.802-5.21-.14-.066-.279-.13-.417-.196.35.53.705 1.058 1.062 1.583a97.93 97.93 0 0 0 1.676 2.39c.245.34.495.675.748 1.008 2.016 2.647 4.555 5.093 9.426 5.093.61 0 1.26-.038 1.925-.115.156-.017.306-.035.455-.053l.42-.05c4.235-.496 5.397-.708 6.042-.821.167-.03.309-.055.463-.079l.186-.027c.024-.002 1.456-.19 2.857-.885.965-.478 1.914-1.196 2.378-2.259 1.172-2.675 1.41-3.314 1.42-3.338l.411-1.126"/>
            <path fill="#0E0F0D" d="M60.418 50.928a.96.96 0 0 0 .927-.985.976.976 0 0 0-.288-.68.93.93 0 0 0-1.338.026.979.979 0 0 0-.263.69c.01.534.44.959.962.95zm5.811 4.36c-1.248-.618-2.612.164-5.096.212-1.85.067-3.4.088-3.502-2.884-.103-2.98 1.08-5.44 2.93-5.507 1.849-.066 3.536 2.294 3.763 5.263.063.819-.026 1.416-.223 1.858 1.718-.21 2.11.985 2.128 1.058zM33.93 51.646a.958.958 0 0 0 .919-.992.956.956 0 0 0-.97-.943.942.942 0 0 0-.805.507.988.988 0 0 0 .025.967.94.94 0 0 0 .831.461zm2.856 1.558c.028 2.975-1.51 2.796-3.361 2.814-.188.007-.365.009-.543.009-.206.006-.405.008-.597.005-1.796-.005-2.943-.087-3.96.475.024-.064.47-1.085 2.083-1.502-.178-.402-.29-.96-.32-1.735-.11-2.973 1.68-5.411 3.53-5.428 1.85-.02 3.14 2.387 3.168 5.362zM71.815 32.75c-.014.183-.03.366-.05.549a62.35 62.35 0 0 0-2.21-.567 71.656 71.656 0 0 0-7.402-1.248c-.085-.011-.173-.017-.26-.028a.937.937 0 0 0 .043-.114c.074-.278.139-.556.2-.834.641-2.904.608-5.795.535-7.195l8.839 2.574c.481 3.217.388 5.74.305 6.863zM60.82 31.025a.597.597 0 0 0 0 .312c-.924-.099-1.85-.186-2.777-.262 1.038-2.23 1.265-4.603 1.316-5.44.798-.58 1.59-1.277 2.173-1.819.053 1.598.015 4.497-.712 7.21zm-27.232.307a.611.611 0 0 0 0-.307c-.726-2.708-.764-5.607-.714-7.209.584.542 1.376 1.24 2.176 1.819.048.836.275 3.205 1.313 5.434-.926.075-1.851.162-2.775.263zm-1.335.149c-1.24.155-2.48.315-3.716.525a74.96 74.96 0 0 0-3.685.723 62.03 62.03 0 0 0-2.21.567 11.87 11.87 0 0 1-.026-.27c-.085-.933-.246-3.62.283-7.141l8.836-2.574c-.067 1.347-.103 4.076.465 6.868.079.387.169.775.272 1.16a.785.785 0 0 0 .042.11c-.088.012-.173.02-.261.032zm44.298 3.655l-.22-.11-.37-.185a2.275 2.275 0 0 1-.246-.142c-.818-.387-1.675-.687-2.531-.975a10.147 10.147 0 0 0-.303-.095.663.663 0 0 0 .02-.079c.012-.099.232-1.764.1-4.387a35.32 35.32 0 0 0-.407-3.84.591.591 0 0 0-.412-.474l-1.26-.365c-.271-9.984-4.285-14.676-4.41-14.822 3.585 5.91 3.554 12.92 3.491 14.554l-7.81-2.274c-.006 0-.01 0-.018-.004a.721.721 0 0 0-.1-.015l-.03-.001a.473.473 0 0 0-.127.01c-.006 0-.013.006-.02.006a.425.425 0 0 0-.102.036c-.012.006-.023.014-.034.017-.027.019-.052.034-.078.053-.006.004-.013.007-.019.013-.008.006-.01.011-.015.015-.007.008-.016.013-.022.02-.007.007-.218.218-.544.534.023-.748.028-1.893-.055-3.292l-.025-.403c-.246-3.513-1.056-8.447-3.479-12.766.021.062.26.778.57 1.986.78 3.037 2.008 9.183 1.338 15.853l-.008.091-.032.025c-.3.247-.608.482-.925.704a.607.607 0 0 0-.255.482c0 .03-.069 3.012-1.353 5.551-.023.042-.035.083-.048.127-3.198-.225-6.405-.32-9.609-.323-3.201.002-6.41.092-9.61.315-.013-.04-.026-.081-.044-.12-1.287-2.538-1.354-5.52-1.356-5.55a.603.603 0 0 0-.252-.482c-.33-.23-.65-.473-.961-.73-.65-6.344.422-12.223 1.203-15.423.37-1.518.676-2.436.7-2.507-3.515 6.266-3.637 13.825-3.559 16.462a15.87 15.87 0 0 1-.544-.535c-.006-.006-.017-.011-.024-.02l-.013-.015c-.006-.005-.013-.008-.02-.012a.726.726 0 0 0-.078-.05c-.013-.006-.022-.014-.037-.02a.278.278 0 0 0-.096-.032c-.01-.004-.016-.01-.022-.01a.51.51 0 0 0-.13-.01h-.033a.738.738 0 0 0-.095.016c-.008.003-.012.003-.02.003l-7.807 2.274c-.063-1.634-.096-8.643 3.489-14.553-.124.146-4.137 4.838-4.41 14.822l-1.254.365a.586.586 0 0 0-.416.475 35.6 35.6 0 0 0-.407 3.835c-.133 2.627.087 4.293.102 4.392.005.026.012.052.016.078l-.302.094c-.857.288-1.718.59-2.536.978a2.24 2.24 0 0 1-.23.133l-.014.007-.37.185-.191.096c-.041.024-.083.045-.123.07.58-.234 1.18-.404 1.778-.554.6-.153 1.203-.289 1.81-.407a57.666 57.666 0 0 1 3.661-.585c1.223-.165 2.451-.3 3.682-.406 1.23-.108 2.458-.214 3.691-.287 4.932-.299 9.876-.393 14.822-.395 4.948.004 9.891.083 14.822.394 1.234.073 2.462.178 3.694.285 1.232.107 2.456.245 3.678.409 1.227.151 2.448.351 3.662.584.607.117 1.21.253 1.808.408.604.15 1.2.32 1.78.554-.032-.02-.065-.038-.096-.056z"/>
            <path fill="#0E0F0D" d="M48.42 11.84v12.97h1.766v2.407h-5.968V24.81h1.765V11.84h-4.287v2.133h-2.072V9.774h15.158v4.2h-2.073V11.84H48.42zm7.922 3.686V8.219H38.067v7.307h5.19v-2.133h1.165v9.861h-1.76v5.513h9.083v-5.514h-1.767v-9.86h1.17v2.133h5.194z"/>
        </g>
    </g>
</svg>
