<svg width="120" height="120" viewBox="0 0 120 120" fill="none" xmlns="http://www.w3.org/2000/svg">
<path d="M39.4432 51.3303C39.6649 51.3313 39.8682 51.1837 39.9282 50.9595C39.9483 50.8846 39.989 50.8079 40.0607 50.7362L43.1917 47.6052C43.387 47.4099 43.387 47.0933 43.1917 46.8981L50.3123 39.7775C50.5075 39.9728 50.8241 39.9728 51.0194 39.7775L54.1504 36.6464C54.1712 36.6257 54.1935 36.607 54.2172 36.5904C54.2493 36.568 54.2779 36.5425 54.3029 36.5145C54.3404 36.5166 54.3786 36.5144 54.4172 36.5076C54.4456 36.5026 54.4747 36.5 54.504 36.5H57.9641C58.2403 36.5 58.4641 36.2761 58.4641 36H66.1144C66.1144 36.2761 66.3382 36.5 66.6144 36.5H73.5346C73.8107 36.5 74.0346 36.2761 74.0346 36H81.6849C81.6849 36.2761 81.9087 36.5 82.1849 36.5H89.1051C89.3812 36.5 89.6051 36.2761 89.6051 36H97.2554C97.2554 36.2761 97.4792 36.5 97.7554 36.5H101.215C101.276 36.5 101.334 36.5107 101.387 36.5299C101.48 36.5639 101.577 36.5683 101.668 36.5479C101.647 36.6382 101.652 36.7354 101.686 36.8289C101.705 36.8816 101.715 36.939 101.715 37V40.4598C101.715 40.736 101.939 40.9598 102.215 40.9598V48.6094C101.939 48.6094 101.715 48.8332 101.715 49.1094V56.029C101.715 56.3051 101.939 56.529 102.215 56.529V64.1785C101.939 64.1785 101.715 64.4024 101.715 64.6785V71.5982C101.715 71.8743 101.939 72.0982 102.215 72.0982V79.7477C101.939 79.7477 101.715 79.9716 101.715 80.2477V83.7075C101.715 83.7371 101.713 83.7664 101.708 83.7951C101.701 83.834 101.699 83.8726 101.701 83.9104C101.672 83.9355 101.646 83.9642 101.624 83.9965C101.607 84.0202 101.588 84.0427 101.567 84.0635L98.4356 87.1526C98.239 87.3465 98.2369 87.6631 98.4308 87.8597L91.315 94.8802C91.1211 94.6836 90.8045 94.6815 90.6079 94.8754L87.4769 97.9645C87.405 98.0355 87.3283 98.0756 87.2534 98.0952C87.0289 98.1541 86.8802 98.3566 86.8801 98.5783C86.7845 98.5537 86.6926 98.5153 86.6079 98.4645C86.7657 98.3087 86.8054 98.0607 86.6896 97.8595C86.651 97.7924 86.6257 97.7096 86.6257 97.6086V92.6621C86.6257 92.3859 86.4018 92.1621 86.1257 92.1621V80.7957C86.4018 80.7957 86.6257 80.5719 86.6257 80.2957V70.4027C86.6257 70.1265 86.4018 69.9027 86.1257 69.9027V58.5363C86.4018 58.5363 86.6257 58.3125 86.6257 58.0363V53.0898C86.6257 52.9104 86.594 52.7374 86.5355 52.5766C86.4484 52.3373 86.1976 52.205 85.9556 52.2599C86.0105 52.0179 85.8781 51.7671 85.6389 51.68C85.4781 51.6215 85.305 51.5898 85.1257 51.5898H80.1578C79.8816 51.5898 79.6578 51.8136 79.6578 52.0898H68.2379C68.2379 51.8136 68.014 51.5898 67.7379 51.5898H57.802C57.5259 51.5898 57.302 51.8136 57.302 52.0898H45.8822C45.8822 51.8136 45.6583 51.5898 45.3822 51.5898H40.4142C40.3128 51.5898 40.2298 51.5643 40.1627 51.5255C39.9617 51.4095 39.7136 51.4488 39.5575 51.6063C39.5063 51.5205 39.4677 51.4272 39.4432 51.3303Z" fill="#F7F7FE" stroke="black" stroke-linecap="round" stroke-linejoin="round" stroke-dasharray="8 10"/>
<path d="M38 80.1445V72.8012C38.2761 72.8012 38.5 72.5773 38.5 72.3012V68.9639C38.5 68.9029 38.5107 68.8455 38.5299 68.7928C38.5639 68.6992 38.5683 68.6021 38.5479 68.5117C38.6382 68.5322 38.7354 68.5278 38.8289 68.4938C38.8816 68.4746 38.939 68.4639 39 68.4639H42.3373C42.6135 68.4639 42.8373 68.24 42.8373 67.9639H50.1806C50.1806 68.24 50.4045 68.4639 50.6806 68.4639H57.3553C57.6314 68.4639 57.8553 68.24 57.8553 67.9639H65.1986C65.1986 68.24 65.4224 68.4639 65.6986 68.4639H69.0359C69.0969 68.4639 69.1543 68.4746 69.207 68.4938C69.3005 68.5278 69.3977 68.5322 69.4881 68.5117C69.4676 68.6021 69.472 68.6992 69.506 68.7928C69.5252 68.8455 69.5359 68.9029 69.5359 68.9639V72.3012C69.5359 72.5773 69.7598 72.8012 70.0359 72.8012V80.1445C69.7598 80.1445 69.5359 80.3684 69.5359 80.6445V87.3191C69.5359 87.5953 69.7598 87.8191 70.0359 87.8191V95.1625C69.7598 95.1625 69.5359 95.3863 69.5359 95.6625V98.9998C69.5359 99.0608 69.5252 99.1181 69.506 99.1709C69.472 99.2644 69.4676 99.3615 69.4881 99.4519C69.3977 99.4314 69.3005 99.4358 69.207 99.4699C69.1543 99.4891 69.0969 99.4998 69.0359 99.4998H65.6986C65.4224 99.4998 65.1986 99.7236 65.1986 99.9998H57.8553C57.8553 99.7236 57.6314 99.4998 57.3553 99.4998H50.6806C50.4045 99.4998 50.1806 99.7236 50.1806 99.9998H42.8373C42.8373 99.7236 42.6135 99.4998 42.3373 99.4998H39C38.939 99.4998 38.8816 99.4891 38.8289 99.4699C38.7354 99.4358 38.6382 99.4315 38.5479 99.4519C38.5683 99.3615 38.5639 99.2644 38.5299 99.1709C38.5107 99.1181 38.5 99.0608 38.5 98.9998V95.6625C38.5 95.3863 38.2761 95.1625 38 95.1625V87.8191C38.2761 87.8191 38.5 87.5953 38.5 87.3191V80.6445C38.5 80.3684 38.2761 80.1445 38 80.1445Z" fill="#F7F7FE" stroke="black" stroke-linecap="round" stroke-linejoin="round" stroke-dasharray="8 10"/>
<path d="M23 37.0954H74.1336V88L91.229 71.1336V20H40.0954L23 37.0954Z" fill="#1B64AF"/>
<path d="M23 53.9619H57.0382V88.0001H23V53.9619Z" fill="#1B64AF"/>
</svg>
