<svg xmlns="http://www.w3.org/2000/svg" width="97" height="95" viewBox="0 0 97 95">
  <g fill="none" fill-rule="evenodd">
    <path fill="#F7F7FE" fill-rule="nonzero" stroke="#000" stroke-dasharray="8 10" stroke-linecap="round" stroke-linejoin="round" d="M58.5,94 C79.2106781,94 96,77.2106781 96,56.5 C96,35.7893219 79.2106781,19 58.5,19 C37.7893219,19 21,35.7893219 21,56.5 C21,77.2106781 37.7893219,94 58.5,94 Z"/>
    <ellipse cx="39.5" cy="39.03" fill="#5E464D" rx="38.56" ry="39.03"/>
    <path fill="#FFF" d="M26.8644983,73.0072436 C28.4171579,73.5426964 33.6315376,75.2553861 33.8533461,73.5806718 C33.973649,72.6616676 31.2217197,71.7198781 27.4960887,69.7261706 C22.1972569,66.8973185 17.349727,63.27958 13.1161303,58.9943279 C6.9366595,52.87383 3.38338969,44.5470891 3.22121514,35.8065602 C2.90541997,24.0721674 7.44685519,14.5859172 14.9169146,8.46428571 C5.7762852,15.5833623 0.301279107,26.4866105 0.0143904314,38.1420461 C-0.207418077,46.6295438 2.14224833,53.7803081 6.55586169,60.2892884 C7.9312736,62.0794241 9.53983945,63.6736221 11.3379028,65.028616 C15.5635428,68.2603209 21.7478648,71.2489834 26.8644983,73.003446"/>
    <path fill="#FFF" d="M78.4939899,29.7927461 C76.0825124,18.6100758 68.58613,10.7814468 58.5588519,5.25088707 C66.2247311,10.6333068 77.0185971,22.078071 70.658614,32.1667844 C65.2655331,40.2537087 52.1487902,38.6697503 44.9798449,34.8257074 C36.4587772,30.2751507 25.7843294,20.0193049 36.3046892,9.99516534 C43.1230842,3.50739329 64.8109735,10.7814468 60.9934427,20.4789188 C58.7668708,26.1196339 50.1032717,24.8661417 46.2009925,22.1084587 C43.3349552,20.0724834 40.9273299,16.5741005 42.1985561,12.9617637 C42.6068893,11.803233 42.5491063,10.0065607 40.8888079,11.3284253 C39.6522515,12.3160252 39.0320472,13.9417667 38.8124717,15.4535543 C36.9980853,28.0986323 59.8454869,37.9024611 66.62536,25.667617 C70.1424191,19.3165896 64.4411622,10.0939253 57.2645125,6.31825471 C51.8714317,3.46940868 46.2587755,1.46761953 39.3787452,1.95382258 C28.3807126,2.71351486 19.1469878,9.51276074 17.9874754,20.5966711 C16.8318152,31.6122091 24.3012321,41.5261933 33.0958061,47.4555915 C42.3410875,53.6850682 54.7682866,57.7912049 66.1399827,54.0763097 C76.3367576,50.7450591 80.5472129,39.2091319 78.4939899,29.7927461"/>
    <path fill="#3FE0C5" d="M64.6075386,21.5037738 C65.6933707,14.1437684 59.0980875,9.09051518 53.0074868,6.79533529 C45.8272306,4.09512366 36.3414927,5.27550189 31.1149697,11.2738292 C27.2916171,15.6790316 27.5363117,22.0746757 29.5091616,27.2513671 C32.4913767,35.0704085 39.2243006,40.7215657 47.0621735,43.1633285 C52.6327982,44.8991789 59.3657221,45.6552381 65.0089906,43.8229516 C73.2406688,41.1497421 75.9208389,32.4897777 74.219447,24.5550129 C73.8551723,22.839672 73.2958077,21.1725024 72.5524653,19.5866235 C71.5125134,17.3840223 68.3238373,12.9248157 72.7206928,18.3483836 C73.1782466,18.9546681 73.6007903,19.5870516 73.9862225,20.2423892 C74.8931898,21.7422016 75.6111524,23.3503169 76.1234766,25.0294787 C78.5168954,32.4357735 76.6396292,41.0764507 70.0061125,45.5472296 C64.9172301,48.9687835 58.4481175,49.3776727 52.5448611,48.5213199 C44.6305212,47.3640863 37.1711603,43.5066411 31.9905175,37.3000118 C27.2533836,31.6411397 24.0226506,23.5135027 25.9687371,16.0840633 C27.3948476,10.648923 31.768763,6.5908907 37.0067561,4.89747226 C43.6326262,2.73344551 50.9275829,3.7402387 56.8881897,7.25437127 C59.874228,9.00950883 62.6232186,11.4396993 64.1296195,14.625949 C64.8213337,16.0613232 65.1932558,17.6320586 65.219275,19.2278811 C65.2344807,19.8742255 65.1845203,20.5204553 65.0701642,21.1566037 C65.0281074,21.3880504 64.5425416,22.0399587 64.6113619,21.5037738"/>
  </g>
</svg>
