<svg xmlns="http://www.w3.org/2000/svg" viewBox="0 0 233.98 145.11"><defs><style>.cls-1,.cls-2,.cls-4{fill:#9595ef;}.cls-1{opacity:0.58;}.cls-2,.cls-3,.cls-5{stroke:#000;stroke-linejoin:round;}.cls-2,.cls-3{stroke-width:2px;}.cls-2,.cls-3,.cls-4,.cls-5{fill-rule:evenodd;}.cls-3,.cls-5{fill:#fff;}</style></defs><title>icon</title><g id="Layer_2" data-name="Layer 2"><g id="Layer_2-2" data-name="Layer 2"><path class="cls-1" d="M167.63,32.07c9.73,4.76,19.4,9.67,29.22,14.15,21,9.56,38.32,19.79,37.07,45.68-2.15,44.57-46.38,60.15-147.62,50.44C-1.81,133.89-12.21,86.1,10,54.12c11-15.8,23-33,41.46-40.27C70.25,6.5,91.41,6.35,111,10.48,131,14.71,149.4,23.14,167.63,32.07Z"/><path class="cls-2" d="M108.31,7.81,98.64,2.23l-.92-.39-1-.32-1-.24-1-.17L93.66,1l-1.1,0-1.13.06-1.16.14-1.18.22-1.21.31-1.23.38-1.26.47-1.27.54-1.3.64-1.31.72-1.31.79-1.29.86-1.28.93L76.38,8l-1.24,1-1.21,1.09-1.18,1.15-1.16,1.2-1.13,1.24L69.36,15,68.3,16.37l-1,1.36-1,1.4-1,1.43L64.37,22l-.88,1.48L62.64,25l-.8,1.53-.75,1.55-.71,1.56-.67,1.58-.61,1.59-.56,1.59L58,36l-.46,1.6-.4,1.6-.35,1.6-.28,1.58L56.32,44l-.17,1.57-.1,1.55,0,1.54,0,1.49.1,1.44.17,1.38.22,1.32.28,1.26.35,1.19.4,1.14L58,58.92l.51,1,.56.94.61.88.67.81.71.75.75.67.8.61,3.51,2,6.13,3.54L108.2,7.76l.11,0Zm-2.9-.95h0Zm1,.23h0l.07,0-.12,0Zm.93.3.09,0,.09,0Z"/><path class="cls-3" d="M91.17,68.91c14.07-8.13,25.48-27.87,25.48-44.14S105.24,1.93,91.17,10.05,65.68,38,65.68,54.2,77.1,77,91.17,68.91Z"/><path class="cls-4" d="M106.05,18.26l-3.49-2L101.9,16l-.7-.23-.72-.18-.74-.12L99,15.37h-.79l-.82.05-.83.1-.85.16-.87.22-.89.27-.9.34-.92.39-.94.46-.94.52-.94.57-.94.62-.92.67-.9.7-.89.75-.87.79-.85.83-.84.86-.81.89-.79.93-.77.95-.74,1-.72,1-.7,1-.66,1.05-.64,1.07-.61,1.09-.58,1.1-.54,1.12L75,36l-.48,1.14-.44,1.14-.41,1.15-.37,1.15L73,41.73l-.28,1.16L72.44,44l-.21,1.14-.16,1.14L72,47.45l-.07,1.11,0,1.11,0,1.08.07,1,.12,1,.16,1,.21.9.25.87.28.81.33.78.37.72.41.68.44.63.48.59.51.53.54.49.58.44,2.52,1.45.94.54c3.36,2.34,5.84,3.6,13.61-.89s18.35-22.8,18.35-31.79S109.7,20,106,18.23l.09,0Zm-2.1-.69h0Zm.7.17h0l0,0-.08,0Zm.67.22.06,0,.07,0Z"/><path class="cls-3" d="M93.7,62.27c10.14-5.85,18.35-20.08,18.35-31.79S103.84,14,93.7,19.88,75.34,40,75.34,51.68,83.56,68.12,93.7,62.27Z"/><path class="cls-3" d="M120.11,111.64l-15.79-10.53L84.11,62.84l-.55-.42L83.05,62l-.49-.51-.45-.55-.42-.6-.39-.65L81,59l-.31-.73-.28-.78-.23-.82-.2-.86-.15-.9-.11-.94-.07-1,0-1,0-1.05.07-1.06.11-1.07.15-1.08.2-1.09.23-1.09.28-1.1L81,43.29l.35-1.09.39-1.1L82.11,40l.45-1.08.49-1.07.51-1.06.55-1.05.58-1,.6-1,.64-1,.66-1,.68-1,.71-.93.73-.91c12.5-14.61,40.35-9.66,56.2-4.67a9.31,9.31,0,0,1,5.85,5.14l3.71,8a9.32,9.32,0,0,1,.67,6.13l-3.1,14,17,38.61-17.76,9.9c.35,1.19-3.92,6.22-8.73,4.86-.67,1-6.7,3.09-9.1,3.07l-11.23-1.5A4.08,4.08,0,0,1,120.11,111.64Z"/><path class="cls-3" d="M166.1,97.45,156,89.54l-7.71-11.93-6.74-6.76a17,17,0,0,1-5.13-11.8l-.3-8.49-14.6-1.45L115.77,56a5.91,5.91,0,0,1-6.24,2.18l-5.43-1.68a1.6,1.6,0,0,1-1.08-1,1.62,1.62,0,0,1,.15-1.48l11.35-17.89a5.18,5.18,0,0,1,3.48-2.5l24.25-3.76a1.74,1.74,0,0,1,1.43.56l14.64,12.88c12.73,11.21,6.68,11,19.37,14,3.83.92,5.91,1.9,11.62,4.12C198.2,79.1,184.86,92,171.82,96.06,171.82,96.06,167.23,97.94,166.1,97.45Z"/><path class="cls-3" d="M142.5,110.94c-4.91-.16-9.71-1.38-13.81-4.75S117,93.63,117,93.63s7.73,9.3,11.7,12.56A22.61,22.61,0,0,0,142.5,110.94Z"/><path class="cls-3" d="M151.22,106.18c-4.49-.06-9.13,0-13.24-3.59s-16.11-14.06-15.53-14.71c0,0,12,11.41,15.53,14.71S147.6,105.19,151.22,106.18Z"/><path class="cls-3" d="M162.1,100.74c-5.88-.64-12.24-1.78-17.17-5.64-5.4-4.23-14-13.4-14-13.4s9.72,10.1,14.61,13.86C149.9,99,157.21,99.18,162.1,100.74Z"/><path class="cls-2" d="M202.73,58.36l-9.67-5.58-.93-.39-1-.32-1-.24-1-.17-1.07-.09-1.1,0-1.13.07-1.15.14L183.5,52l-1.21.3-1.23.38-1.25.47-1.28.55-1.29.63-1.31.72-1.32.79-1.29.87-1.27.92-1.26,1-1.23,1-1.21,1.1-1.19,1.14L166,63.07l-1.13,1.24-1.1,1.28-1.07,1.33-1,1.36-1,1.4-1,1.43-.92,1.46-.89,1.48-.84,1.51-.8,1.53-.76,1.55-.71,1.57-.66,1.57-.62,1.59L153,85l-.51,1.6-.46,1.6-.4,1.6-.34,1.6L151,93l-.22,1.58-.16,1.56-.1,1.55,0,1.54,0,1.49.1,1.44.16,1.38.22,1.32.29,1.26.34,1.2.4,1.13.46,1.08.51,1,.56,1,.62.87.66.82.71.74.76.67.8.61,3.5,2,6.13,3.54,35.92-62.38.12,0Zm-2.91-1h0Zm1,.23h.06l.06,0-.12,0Zm.93.3.09,0,.1,0Z"/><path class="cls-2" d="M185.58,119.46c14.08-8.12,25.48-27.87,25.48-44.13s-11.4-22.85-25.48-14.72-25.49,27.89-25.49,44.14S171.51,127.59,185.58,119.46Z"/><path class="cls-3" d="M110.63,105.89l-7.46-.22a4.42,4.42,0,0,1-3-1.19l-1.16-1A4.47,4.47,0,0,1,97.54,100V97.09l-.64-.18a4.41,4.41,0,0,1-2.35-1.54l-2.07-2.54a4.44,4.44,0,0,1-1-2.74l-.08-2-.75-.27A4.9,4.9,0,0,1,88,85.65l-1.3-2.17a7.58,7.58,0,0,1-1.13-4.6l.05-.92a8.15,8.15,0,0,1-4.82-7.65l0-2.26.27-4.75c.29-2.65,1.23-3.21,3.36-3.39a6.15,6.15,0,0,1,3,.45l1.2.55a5.38,5.38,0,0,1,2.32,2A5.26,5.26,0,0,1,92,65.7l.06.71v2.31l1.41.64,1.54,1.34A5.28,5.28,0,0,1,96.92,75l-.12,4.3a10.28,10.28,0,0,1,1.89,1.15l1.53,1.21a6.22,6.22,0,0,1,2,4.72l-.18,5.33c1.79.08,2.6.7,4.23,2a5.21,5.21,0,0,1,2,3.43l.66,4.45Z"/><path class="cls-5" d="M82.06,62.86l3.23,2.51L84.94,71c0,.13-.19.17-.33.18s-.41-.27-.5-.36l-1.34-1.33A2.15,2.15,0,0,1,81.93,68Z"/><path class="cls-5" d="M86.55,71.47,90.28,74l0,4.82a.42.42,0,0,1-.13.3.41.41,0,0,1-.3.12h-.46a2.42,2.42,0,0,1-1.88-.86l-.35-.4a2.43,2.43,0,0,1-.62-1.66Z"/><path class="cls-5" d="M92.8,81.89l3.73,2.84,0,4.46a.43.43,0,0,1-.43.42h-.46a2.42,2.42,0,0,1-1.88-.86l-.34-.4a2.38,2.38,0,0,1-.62-1.66Z"/><path class="cls-5" d="M99,94l3.72,2.7-.32,3.85a.43.43,0,0,1-.43.39h-.49a2.47,2.47,0,0,1-1.88-.87l0,0A4.83,4.83,0,0,1,99,97.58Z"/><path class="cls-3" d="M92.11,68.72a17.87,17.87,0,0,0-1.88.27,6.15,6.15,0,0,0-3.62,1.78c-.77,1-.86,5.71-1,7.19C85.47,71.71,85.46,68.69,92.11,68.72Z"/><path class="cls-5" d="M107.45,46.78l3,.33a.84.84,0,0,1,.62.39c.88,1.42-4.63,6.94-5.61,8.08l-3.59-.74a25.24,25.24,0,0,1,4.83-7.69A1,1,0,0,1,107.45,46.78Z"/><path class="cls-3" d="M96.8,79.26c-1.72.18-3.87.72-4.65,2.24-.52,1-.63,5.17-.78,6.56C91.2,83.53,91.16,79.76,96.8,79.26Z"/><path class="cls-3" d="M102,91.69c-4.16.27-4.18,2-4.45,5.55"/><path class="cls-3" d="M120.28,45.6c.32.91,1.54,3.22-.18,5.28A4.73,4.73,0,0,1,124,49.35C121.82,48.8,121.16,46.91,120.28,45.6Z"/><path class="cls-3" d="M139.67,48.72c-1.49.79-2,1.33-5.83,1.61,3.08.31,2.06,1.34,2.4,3.21C136.34,50.59,138.1,50.08,139.67,48.72Z"/></g></g></svg>