<svg xmlns="http://www.w3.org/2000/svg" width="215" height="123" viewBox="0 0 215 123">
  <g fill="none" fill-rule="evenodd" transform="translate(0 1)">
    <path fill="#9595EF" d="M175.034754,27.7349203 C191.506472,32.9530569 215.9198,40.5952531 203.232117,80.8484472 C190.544435,121.101641 126.560893,105.255988 77.219023,109.771793 C30.3528461,114.061021 -3.22235427,85.0657958 0.275175764,56.3500931 C0.452591736,54.8934582 0.718192315,48.1773633 1.20693038,46.7758639 C10.9477398,18.843235 26.6883977,10.5644189 51.9537104,3.78560968 C77.219023,-2.99319951 103.189891,0.939455829 112.81147,6.78122428 C122.43305,12.6229927 158.563036,22.5167837 175.034754,27.7349203 Z" opacity=".57" transform="translate(0 6)"/>
    <path fill="#FFF" d="M214,64.8551168 L201.091586,64.8551168 L111.424718,12.7646576 C107.363056,10.4050816 102.358783,10.4125212 98.3038932,12.7826365 L44.9820348,43.9580528 L30,43.9580528 L30,56.5724225 C30.0043098,58.8179254 31.1131552,61.0615684 33.3228422,62.3399304 L131.656067,119.246256 C135.654314,121.559954 140.566234,121.585993 144.587877,119.314451 L210.616821,82.0231085 C212.44971,80.9877717 213.525924,79.2896954 213.868859,77.4694865 L214,77.4694865 L214,64.8551168 Z"/>
    <path stroke="#000" stroke-linejoin="round" stroke-width="2" d="M214,64.8551168 L201.091586,64.8551168 L111.424718,12.7646576 C107.363056,10.4050816 102.358783,10.4125212 98.3038932,12.7826365 L44.9820348,43.9580528 L30,43.9580528 L30,56.5724225 C30.0043098,58.8179254 31.1131552,61.0615684 33.3228422,62.3399304 L131.656067,119.246256 C135.654314,121.559954 140.566234,121.585993 144.587877,119.314451 L210.616821,82.0231085 C212.44971,80.9877717 213.525924,79.2896954 213.868859,77.4694865 L214,77.4694865 L214,64.8551168 Z"/>
    <path fill="#FFF" d="M98.3040703,1.78294141 L33.2979892,39.7896135 C28.8897119,42.3667889 28.9032569,48.782759 33.3232321,51.3400957 L131.656135,108.24626 C135.654369,110.559953 140.566273,110.585991 144.587903,108.314456 L210.61663,71.0238383 C215.096327,68.4931599 215.13573,62.0139538 210.686202,59.428719 L111.424852,1.7643426 C107.363203,-0.594606709 102.358947,-0.587787144 98.3040703,1.78294141"/>
    <path stroke="#000" stroke-linejoin="round" stroke-width="2" d="M98.3040703,1.78294141 L33.2979892,39.7896135 C28.8897119,42.3667889 28.9032569,48.782759 33.3232321,51.3400957 L131.656135,108.24626 C135.654369,110.559953 140.566273,110.585991 144.587903,108.314456 L210.61663,71.0238383 C215.096327,68.4931599 215.13573,62.0139538 210.686202,59.428719 L111.424852,1.7643426 C107.363203,-0.594606709 102.358947,-0.587787144 98.3040703,1.78294141 Z"/>
    <path stroke="#9595EF" stroke-linecap="round" stroke-width="6" d="M69,41.3875591 C78.0729498,37.8161541 98.6843784,26.0907432 110.412134,35.7033 C122.138656,45.3164764 108.279534,73.0134535 124.271256,82.5572341 C140.262977,92.102254 153.674494,71.7345882 140.926987,54.9538175"/>
    <path fill="#FFF" d="M79.9024063,78.8474951 C76.5294406,76.8815421 73.0723488,76.4458943 71.7622994,77.7269942 L52,88.6981811 L63.263133,98 L83.4478913,86.7943755 C84.0428696,86.6202395 84.5006858,86.311348 84.7609888,85.8560099 C85.7509935,84.1257251 83.5752996,80.9881995 79.9024063,78.8474951"/>
    <path stroke="#000" stroke-linejoin="round" stroke-width="2" d="M79.9024063,78.8474951 C76.5294406,76.8815421 73.0723488,76.4458943 71.7622994,77.7269942 L52,88.6981811 L63.263133,98 L83.4478913,86.7943755 C84.0428696,86.6202395 84.5006858,86.311348 84.7609888,85.8560099 C85.7509935,84.1257251 83.5752996,80.9881995 79.9024063,78.8474951 Z"/>
    <path fill="#FFF" d="M76,93.8369884 L65.1861985,93.8369884 L65.1861985,96.2409953 L56.5060538,91.3379977 C55.9749133,91.0383395 55.3995112,90.8520489 54.8138015,90.7736107 L54.8138015,87 L44,87 L44,97.0002522 L44.0266783,97.0002522 C44.1145954,97.6173399 44.4565625,98.2031748 45.0659189,98.5665641 L63.1301514,109.335878 C64.5610777,110.188893 66.3291206,110.221984 67.7903632,109.424734 L74.8625348,105.562267 C75.5525324,105.186009 75.9254221,104.523574 75.9872672,103.836628 L76,103.836628 L76,93.8369884 Z"/>
    <path stroke="#000" stroke-linejoin="round" stroke-width="2" d="M76,93.8369884 L65.1861985,93.8369884 L65.1861985,96.2409953 L56.5060538,91.3379977 C55.9749133,91.0383395 55.3995112,90.8520489 54.8138015,90.7736107 L54.8138015,87 L44,87 L44,97.0002522 L44.0266783,97.0002522 C44.1145954,97.6173399 44.4565625,98.2031748 45.0659189,98.5665641 L63.1301514,109.335878 C64.5610777,110.188893 66.3291206,110.221984 67.7903632,109.424734 L74.8625348,105.562267 C75.5525324,105.186009 75.9254221,104.523574 75.9872672,103.836628 L76,103.836628 L76,93.8369884 Z"/>
    <path fill="#FFF" d="M52.0711531,81.5006215 L45.1961803,84.9354389 C43.6616044,85.7021555 43.5876343,87.8572995 45.0664295,88.7267282 L63.1302857,99.344755 C64.5611823,100.186391 66.3291883,100.219017 67.7904005,99.4323624 L74.8624248,95.6241559 C76.3666851,94.8139377 76.3824492,92.6690649 74.8897088,91.8377001 L56.5057198,81.5997086 C55.1354545,80.8366172 53.4741593,80.7997616 52.0711531,81.5006215"/>
    <path stroke="#000" stroke-linejoin="round" stroke-width="2" d="M52.0711531,81.5006215 L45.1961803,84.9354389 C43.6616044,85.7021555 43.5876343,87.8572995 45.0664295,88.7267282 L63.1302857,99.344755 C64.5611823,100.186391 66.3291883,100.219017 67.7904005,99.4323624 L74.8624248,95.6241559 C76.3666851,94.8139377 76.3824492,92.6690649 74.8897088,91.8377001 L56.5057198,81.5997086 C55.1354545,80.8366172 53.4741593,80.7997616 52.0711531,81.5006215 Z"/>
    <polygon fill="#FFF" points="141 55 151.08 34.697 162.164 32 170 44.522 164.457 53.767 141 55 155.5 45.547 155.285 45.442"/>
    <polygon stroke="#000" stroke-linejoin="round" stroke-width="2" points="141 55 151.08 34.697 162.164 32 170 44.522 164.457 53.767 141 55 155.5 45.547 155.285 45.442"/>
    <path fill="#FFF" d="M159,46.5004008 C159,47.8808722 157.880693,49 156.5,49 C155.118505,49 154,47.8808722 154,46.5004008 C154,45.1191278 155.118505,44 156.5,44 C157.880693,44 159,45.1191278 159,46.5004008"/>
    <path stroke="#000" stroke-linejoin="round" stroke-width="2" d="M159,45.5004008 C159,46.8808722 157.880693,48 156.5,48 C155.118505,48 154,46.8808722 154,45.5004008 C154,44.1191278 155.118505,43 156.5,43 C157.880693,43 159,44.1191278 159,45.5004008 Z"/>
    <polygon fill="#FFF" points="162 32.611 169.816 45 177 40.754 168.747 28"/>
    <polygon stroke="#000" stroke-linejoin="round" stroke-width="2" points="162 32.611 169.816 45 177 40.754 168.747 28"/>
    <g transform="translate(97 27)">
      <path fill="#FFF" d="M0.245784615,0.591015385 L23.8088615,15.5356308"/>
      <path stroke="#000" stroke-linejoin="round" stroke-width="2" d="M0.245784615,0.591015385 L23.8088615,15.5356308"/>
    </g>
    <path fill="#FFF" d="M98,27 C98,27.5517241 97.552202,28 97.000308,28 C96.447182,28 96,27.5517241 96,27 C96,26.4476601 96.447182,26 97.000308,26 C97.552202,26 98,26.4476601 98,27"/>
    <path stroke="#000" stroke-linejoin="round" stroke-width="2" d="M98,27 C98,27.5517241 97.552202,28 97.000308,28 C96.447182,28 96,27.5517241 96,27 C96,26.4476601 96.447182,26 97.000308,26 C97.552202,26 98,26.4476601 98,27 Z"/>
    <path fill="#FFF" d="M122,43 C122,43.5523399 121.552202,44 120.999692,44 C120.447182,44 120,43.5523399 120,43 C120,42.4482759 120.447182,42 120.999692,42 C121.552202,42 122,42.4482759 122,43"/>
    <path stroke="#000" stroke-linejoin="round" stroke-width="2" d="M122,43 C122,43.5523399 121.552202,44 120.999692,44 C120.447182,44 120,43.5523399 120,43 C120,42.4482759 120.447182,42 120.999692,42 C121.552202,42 122,42.4482759 122,43 Z"/>
    <g transform="rotate(-5 430.364 -617.305)">
      <path fill="#FFF" d="M0.43597561,13.671875 L25.3706098,0.501375"/>
      <path stroke="#000" stroke-linejoin="round" stroke-width="2" d="M0.43597561,13.671875 L25.3706098,0.501375"/>
    </g>
    <path fill="#FFF" d="M57.4653472,49.1150766 C57.9542276,49.3718312 58.1420217,49.9764667 57.8846514,50.4653472 C57.6278968,50.9542276 57.0226456,51.1420217 56.5343808,50.8846514 C56.0455004,50.6278968 55.858322,50.0232613 56.1150766,49.5343808 C56.3724469,49.0455004 56.9764667,48.858322 57.4653472,49.1150766"/>
    <path stroke="#000" stroke-linejoin="round" stroke-width="2" d="M57.4653472,48.1150766 C57.9542276,48.3718312 58.1420217,48.9764667 57.8846514,49.4653472 C57.6278968,49.9542276 57.0226456,50.1420217 56.5343808,49.8846514 C56.0455004,49.6278968 55.858322,49.0232613 56.1150766,48.5343808 C56.3724469,48.0455004 56.9764667,47.858322 57.4653472,48.1150766 Z" transform="rotate(-5 57 49)"/>
    <path stroke="#000" stroke-linejoin="round" stroke-width="2" d="M81.4651395,32.1150766 C81.9540199,32.3718312 82.141814,32.9764667 81.8850594,33.4653472 C81.6276891,33.9542276 81.0230537,34.1420217 80.5341733,33.8846514 C80.0452929,33.6278968 79.8581145,33.0232613 80.1154848,32.5343808 C80.3722394,32.0455004 80.9768748,31.858322 81.4651395,32.1150766 Z" transform="rotate(-5 81 33)"/>
    <g transform="translate(110 75)">
      <path fill="#FFF" d="M0.325723077,0.05244 L23.8888,14.62344"/>
      <path stroke="#000" stroke-linejoin="round" stroke-width="2" d="M0.325723077,0.05244 L23.8888,14.62344"/>
    </g>
    <path fill="#FFF" d="M111,72 C111,72.5517241 110.552202,73 110.000308,73 C109.447182,73 109,72.5517241 109,72 C109,71.4482759 109.447182,71 110.000308,71 C110.552202,71 111,71.4482759 111,72"/>
    <path stroke="#000" stroke-linejoin="round" stroke-width="2" d="M111,75 C111,75.5517241 110.552202,76 110.000308,76 C109.447182,76 109,75.5517241 109,75 C109,74.4482759 109.447182,74 110.000308,74 C110.552202,74 111,74.4482759 111,75 Z"/>
    <path fill="#FFF" d="M136,90.000308 C136,90.552202 135.552202,91 134.999692,91 C134.447182,91 134,90.552202 134,90.000308 C134,89.4484139 134.447182,89 134.999692,89 C135.552202,89 136,89.4484139 136,90.000308"/>
    <path stroke="#000" stroke-linejoin="round" stroke-width="2" d="M135,90.000308 C135,90.552202 134.552202,91 133.999692,91 C133.447182,91 133,90.552202 133,90.000308 C133,89.4484139 133.447182,89 133.999692,89 C134.552202,89 135,89.4484139 135,90.000308 Z"/>
  </g>
</svg>
