<svg id="Слой_1" xmlns="http://www.w3.org/2000/svg" viewBox="0 0 781 598">
<style>
        .st5{fill:#fff}.st6,.st7,.st8{fill:none;stroke:#000;stroke-width:2;stroke-linejoin:round}.st7,.st8{stroke-width:1.291}.st8{stroke-linecap:round}.st9{fill:#9595ef}.st11{fill:none;stroke:#000;stroke-width:.982;stroke-linejoin:round}.st12{stroke-width:1.3;stroke-linecap:round}.st12,.st13,.st15,.st16,.st18{fill:none;stroke:#000;stroke-linejoin:round}.st13{stroke-linecap:round;stroke-width:1.2}.st15,.st16,.st18{stroke-width:1.5}.st16,.st18{stroke-width:1.837;stroke-linecap:round}.st18{stroke-width:1.497}
      </style>
<g>
<g transform="translate(1 -1)">
<g id="main">
<path d="M497.6 110.4c75.3 54.2 175.4 19 168.5 115.1-6.9 96.1-107.2 124-333.3 121.4s-216.4-126-165.5-194c25.4-34 89.8-96.3 157.1-108 67.4-11.7 136.5 39.1 173.2 65.5" fill="#d9d9f9" transform="translate(0 118)"></path>
<path d="M507.5 110.9c86 61.9 200.3 21.7 192.5 131.5-7.8 109.9-122.4 141.6-380.7 138.7-258.3-3-247.2-143.8-189-221.5 29.1-38.9 102.6-110.1 179.5-123.4 76.9-13.4 155.8 44.6 197.7 74.7" opacity=".364" fill="none" stroke="#979797" transform="translate(0 118)"></path>
<path d="M730.5 259.8c-8.8 132.3-137.8 170.5-428.4 167C11.4 423.2 23.9 253.6 89.3 160 122 113.2 207.2 38.6 293.8 22.5c86.6-16.1 172.9 16.7 220.1 53 96.7 74.5 225.4 52.1 216.6 184.3z" opacity=".18" fill="none" stroke="#979797" transform="translate(0 118)"></path>
<path d="M778.4 284.2c-10.1 155.3-157.8 200.2-490.7 196S-30.8 276.8 44.1 166.9c37.4-55 135-142.5 234.2-161.4 99.1-18.9 198.1 19.6 252 62.2 110.9 87.6 258.2 61.2 248.1 216.5z" opacity=".09" fill="none" stroke="#979797" transform="translate(0 118)"></path>
<g>
<path d="M487.12 403.53c.4 10.4-19.4 19.4-44.1 20.3-24.7.9-45.1-6.8-45.4-17.2-.4-10.4 19.4-19.4 44.1-20.3 24.7-.8 45 6.9 45.4 17.2z" fill="#7850f1" fill-opacity=".08" stroke="#000" stroke-width="2.652" stroke-linecap="round" stroke-linejoin="round" stroke-dasharray="5.305,10.609"></path>
<path class="st5" d="M226.5 286.9l-20.9 2.7c-11.4 1.4-19.4.3-25.1-.7-.4-.1-1.2-2-1.3-1.7-.6 1.2-.8 3.1-.5 5.8l8.7 70.6c1.8 15 15.6 25.7 30.5 23.9l19.9-2.4c14.9-1.8 25.6-15.6 23.8-30.5l-2.6-21.2-1.7-14-4.3-35.3c-.2-1.6.3-2-.3-2.9-.3-.5-2.7.9-4.1 1.2-6.9 1.9-11.8 3.3-22.1 4.5" transform="translate(215.52 15.43)"></path>
<path class="st6" d="M226.5 286.9l-20.9 2.7c-11.4 1.4-19.4.3-25.1-.7-.4-.1-1.2-2-1.3-1.7-.6 1.2-.8 3.1-.5 5.8l8.7 70.6c1.8 15 15.6 25.7 30.5 23.9l19.9-2.4c14.9-1.8 25.6-15.6 23.8-30.5l-2.6-21.2-1.7-14-4.3-35.3c-.2-1.6.3-2-.3-2.9-.3-.5-2.7.9-4.1 1.2-6.9 1.9-11.8 3.3-22.1 4.5z" transform="translate(215.52 15.43)"></path>
<path class="st5" d="M178 315.1L36.4 194.8c-8.5-7.2 17.6-2.2 28.6-3.5l291.3-34c6.2-.7 15.8-11.3 12.1-6.3l-107 153.9c-20.1 25.8-57.6 30.4-83.4 10.2" transform="translate(215.52 15.43)"></path>
<path class="st6" d="M178 315.1L36.4 194.8c-8.5-7.2 17.6-2.2 28.6-3.5l291.3-34c6.2-.7 15.8-11.3 12.1-6.3l-107 153.9c-20.1 25.8-57.6 30.4-83.4 10.2z" transform="translate(215.52 15.43)"></path>
<path class="st5" d="M377.8 107.1c7.2 58.7-68.6 116.3-169.3 128.6-100.7 12.4-188.2-25.2-195.4-83.8S81.7 35.7 182.4 23.3c100.7-12.4 188.2 25.2 195.4 83.8" transform="translate(215.52 15.43)"></path>
<path class="st6" d="M377.8 107.1c7.2 58.7-68.6 116.3-169.3 128.6-100.7 12.4-188.2-25.2-195.4-83.8S81.7 35.7 182.4 23.3c100.7-12.4 188.2 25.2 195.4 83.8z" transform="translate(215.52 15.43)"></path>
<path class="st5" d="M356.1 109.8c5.7 46.1-61.6 92.4-150.3 103.2-88.8 11-165.2-17.6-170.9-63.7S96.5 56.9 185.2 46c88.7-10.9 165.2 17.7 170.9 63.8" transform="translate(215.52 15.43)"></path>
<path class="st6" d="M356.1 109.8c5.7 46.1-61.6 92.4-150.3 103.2-88.8 11-165.2-17.6-170.9-63.7S96.5 56.9 185.2 46c88.7-10.9 165.2 17.7 170.9 63.8z" transform="translate(215.52 15.43)"></path>
<path class="st5" d="M69 118c.6 4.8 2.9 7.5 6.3 8.8 3.4 1.4 5.3.4 4.7-4.5l-4.5-36.9c-.6-4.9-2.9-7.4-6.3-8.4s-5.2.3-4.6 5.1C66 94.1 67.5 106 69 118M54.9 79.5c-1.2-8.4 3.9-15.2 13-12.3 9.3 3 16.6 12.3 17.7 22.3 1.5 12.1 3 24.1 4.4 36.2 1.2 9.5-4.8 14.7-13.5 10.9-9.4-4-16.5-12.7-17.4-23.1-1.4-11.3-2.8-22.6-4.2-34" transform="translate(215.52 15.43)"></path>
<path class="st7" d="M69 118c.6 4.8 2.9 7.5 6.3 8.8 3.4 1.4 5.3.4 4.7-4.5l-4.5-36.9c-.6-4.9-2.9-7.4-6.3-8.4s-5.2.3-4.6 5.1C66 94.1 67.5 106 69 118zM54.9 79.5c-1.2-8.4 3.9-15.2 13-12.3 9.3 3 16.6 12.3 17.7 22.3 1.5 12.1 3 24.1 4.4 36.2 1.2 9.5-4.8 14.7-13.5 10.9-9.4-4-16.5-12.7-17.4-23.1-1.4-11.3-2.8-22.6-4.2-34z" transform="translate(215.52 15.43)"></path>
<path class="st5" d="M70.3 139.2l-14.5-6.9-7-57.1 10.9-7.9s3.1-1.6 6.7-.3 10.5 4.3 15.2 14.4c1.7 3.5 2.6 13.1 3.8 22 1.5 11.5 1.6 22.7 1.6 22.7s2 3.1-.5 9l-9.7 8" transform="translate(215.52 15.43)"></path>
<path class="st8" d="M88.3 134.4c-1.2 1.9-10.9 8.7-10.9 8.7M70.3 139.4l-14.5-6.9-7-57.2 10.9-7.9s3.1-1.6 6.7-.3C70 68.3 78 71.2 82.7 81.3" transform="translate(215.52 15.43)"></path>
<path class="st9" d="M58.9 125.7c.6 4.8 2.9 7.5 6.3 8.8 3.4 1.4 5.3.4 4.7-4.5l-4.5-36.9c-.6-4.9-2.9-7.4-6.3-8.4s-5.2.3-4.6 5.1c1.4 12 2.9 23.9 4.4 35.9zM44.8 87.2c-1.2-8.4 3.9-15.2 13-12.3 9.3 3 16.6 12.3 17.7 22.3 1.5 12.1 3 24.1 4.4 36.2 1.2 9.5-4.8 14.7-13.5 10.9-9.4-4-16.5-12.7-17.4-23.1l-4.2-34z" transform="translate(215.52 15.43)"></path>
<path class="st8" d="M58.9 125.7c.6 4.8 2.9 7.5 6.3 8.8 3.4 1.4 5.3.4 4.7-4.5l-4.5-36.9c-.6-4.9-2.9-7.4-6.3-8.4s-5.2.3-4.6 5.1c1.4 12 2.9 23.9 4.4 35.9zM44.8 87.2c-1.2-8.4 3.9-15.2 13-12.3 9.3 3 16.6 12.3 17.7 22.3 1.5 12.1 3 24.1 4.4 36.2 1.2 9.5-4.8 14.7-13.5 10.9-9.4-4-16.5-12.7-17.4-23.1l-4.2-34z" transform="translate(215.52 15.43)"></path>
<path class="st5" d="M206.3 96.8c.2-4.8-1.7-5.9-5-4.7-3.3 1.2-5.4 3.9-5.6 8.9-.5 12.3-1 24.7-1.5 37-.2 4.9 1.8 5.8 5 4.1 3.3-1.6 5.4-4.5 5.6-9.3.4-11.9 1-23.9 1.5-36m7.9 30.8c-.1 10.4-6.5 19.7-15.5 24.4-8.4 4.4-14.7-.2-14.4-9.8.5-12.1 1-24.2 1.5-36.4.3-10.1 6.8-19.9 15.8-23.7 8.8-3.7 14.5 2.7 13.9 11.2-.3 11.6-.8 23-1.3 34.3" transform="translate(215.52 15.43)"></path>
<path class="st7" d="M206.3 96.8c.2-4.8-1.7-5.9-5-4.7-3.3 1.2-5.4 3.9-5.6 8.9-.5 12.3-1 24.7-1.5 37-.2 4.9 1.8 5.8 5 4.1 3.3-1.6 5.4-4.5 5.6-9.3.4-11.9 1-23.9 1.5-36zm7.9 30.8c-.1 10.4-6.5 19.7-15.5 24.4-8.4 4.4-14.7-.2-14.4-9.8.5-12.1 1-24.2 1.5-36.4.3-10.1 6.8-19.9 15.8-23.7 8.8-3.7 14.5 2.7 13.9 11.2-.3 11.6-.8 23-1.3 34.3z" transform="translate(215.52 15.43)"></path>
<path class="st5" d="M204.6 154.2l13.9-8 2.4-57.4-11.5-6.9s-3.2-1.4-6.7.2c-3.5 1.6-10.1 5.1-14 15.5-1.4 3.6-1.5 13.2-2 22.2-.6 11.5.3 22.7.3 22.7s-1.7 3.2 1.2 8.9l10.3 7.2" transform="translate(215.52 15.43)"></path>
<path class="st8" d="M187 150.8c1.4 1.8 12 7.7 12 7.7M203.9 154.3l13.8-8 2.3-57.4-11.4-7s-3.2-1.4-6.6.2c-3.4 1.6-11.1 5.1-15 15.5" transform="translate(215.52 15.43)"></path>
<path class="st9" d="M217.2 103.8c.2-4.8-1.7-5.9-5-4.7-3.3 1.2-5.4 3.9-5.6 8.9-.5 12.3-1 24.7-1.5 37-.2 4.9 1.8 5.8 5 4.1 3.3-1.6 5.4-4.5 5.6-9.3l1.5-36m8 30.8c-.1 10.4-6.5 19.7-15.5 24.4-8.4 4.4-14.7-.2-14.4-9.8.5-12.1 1-24.2 1.5-36.4.3-10.1 6.8-19.9 15.8-23.7 8.8-3.7 14.5 2.7 13.9 11.2-.4 11.5-.8 22.9-1.3 34.3" transform="translate(215.52 15.43)"></path>
<path class="st8" d="M217.2 103.8c.2-4.8-1.7-5.9-5-4.7-3.3 1.2-5.4 3.9-5.6 8.9-.5 12.3-1 24.7-1.5 37-.2 4.9 1.8 5.8 5 4.1 3.3-1.6 5.4-4.5 5.6-9.3l1.5-36zm8 30.8c-.1 10.4-6.5 19.7-15.5 24.4-8.4 4.4-14.7-.2-14.4-9.8.5-12.1 1-24.2 1.5-36.4.3-10.1 6.8-19.9 15.8-23.7 8.8-3.7 14.5 2.7 13.9 11.2-.4 11.5-.8 22.9-1.3 34.3z" transform="translate(215.52 15.43)"></path>
<path class="st5" d="M21.5 5.8v72.5c0 .8-.6 1.2-1.3.7-3.2-1.8-5.2-2.9-8.9-5.1-.9-.5-1.6-1.5-1.6-2.4 0-18.1.1-36.3.1-54.5 0-.8-.7-1.9-1.5-2.3-2.6-1.5-3.9-2.2-6.3-3.6C1.2 10.7.6 9.6.6 8.8V3.3c0-.8.6-1.1 1.4-.7C9.3 6.3 11.9 4.1 13.6.7" transform="rotate(-7 1328.882135 -2946.0754261)"></path>
<path d="M390.98814817 143.12697057c2.94923811 24.01961687 5.8862893 47.93997913 8.8355274 71.959596.09749548.79403692-.44928448 1.26417698-1.20500146.85321245-3.3955125-1.39660118-5.51466108-2.24466326-9.4551944-3.97734822-.9542262-.38659067-1.77087785-1.29382828-1.88056026-2.18711981-2.20583512-17.96508535-4.32460255-36.04161224-6.5426246-54.1059522-.09749548-.79403692-.92633406-1.80052915-1.76911872-2.10005214-2.76342401-1.17195893-4.13904255-1.70831109-6.6917704-2.80538928-.84278465-.29952298-1.57236862-1.31820214-1.6698641-2.11223907l-.67028138-5.45900383c-.09749548-.79403692.46147141-1.16492237 1.30425607-.86539939 7.69650348 2.78277456 10.00901091.28231273 11.2819836-3.29952207" fill="none" stroke="#000" stroke-width=".494" stroke-linejoin="round"></path>
<path class="st5" d="M178.1 205.4l6.6-4.9-8.9-74.1-6.7 4.4z" transform="translate(215.52 15.43)"></path>
<path class="st8" d="M178.1 205.4l6.6-4.9-8.9-74.1-6.7 4.4z" transform="translate(215.52 15.43)"></path>
<path class="st5" d="M27.7 4.3l-6.5 3.6L13.8 4S11.4 8.9 8 8.2C4.6 7.5.6 5.6.6 5.6l6.6-4s2.7 1.1 4.4 1.6c1.8.6 4 1 6.1-.6C19.8 1 20.2.1 20.2.1" transform="rotate(-7 1339.559135 -2894.2284261)"></path>
<path class="st8" d="M27.7 4.3l-6.5 3.6L13.8 4S11.4 8.9 8 8.2C4.6 7.5.6 5.6.6 5.6l6.6-4s2.7 1.1 4.4 1.6c1.8.6 4 1 6.1-.6C19.8 1 20.2.1 20.2.1" transform="rotate(-7 1339.559135 -2894.2284261)"></path>
<path class="st5" d="M162 127.1l4.9-4c.3-.3.8-.4 1.2-.2l7.4 3c.2.1.2.4.1.5l-6.1 4.5-7.5-3.8z" transform="translate(215.52 15.43)"></path>
<path class="st11" d="M162 127.1l4.9-4c.3-.3.8-.4 1.2-.2l7.4 3c.2.1.2.4.1.5l-6.1 4.5-7.5-3.8z" transform="translate(215.52 15.43)"></path>
<path class="st9" d="M149.1 131c7.7 2.8 10.1.3 11.4-3.3.2-.5.7-.6 1.4-.3 2.4 1 3.5 1.4 5.6 2.3.8.3 1.5 1.2 1.6 2 2.9 23.9 5.9 47.9 8.8 71.8.1.8-.4 1.2-1.2.9-3.4-1.4-5.5-2.3-9.6-4-.9-.4-1.7-1.3-1.8-2.1-2.2-18-4.3-36-6.5-54-.1-.8-.9-1.8-1.8-2.1-2.8-1.2-4.2-1.7-6.7-2.8-.8-.3-1.6-1.3-1.7-2.1-.3-2.2-.4-3.3-.7-5.4-.1-.8.4-1.2 1.2-.9" transform="translate(215.52 15.43)"></path>
<path class="st8" d="M149.1 131c7.7 2.8 10.1.3 11.4-3.3.2-.5.7-.6 1.4-.3 2.4 1 3.5 1.4 5.6 2.3.8.3 1.5 1.2 1.6 2 2.9 23.9 5.9 47.9 8.8 71.8.1.8-.4 1.2-1.2.9-3.4-1.4-5.5-2.3-9.6-4-.9-.4-1.7-1.3-1.8-2.1-2.2-18-4.3-36-6.5-54-.1-.8-.9-1.8-1.8-2.1-2.8-1.2-4.2-1.7-6.7-2.8-.8-.3-1.6-1.3-1.7-2.1-.3-2.2-.4-3.3-.7-5.4-.1-.8.4-1.2 1.2-.9z" transform="translate(215.52 15.43)"></path>
<path class="st5" d="M285.2 110.2l-8-1.1L248.9 40l7.8.7z" transform="translate(215.52 15.43)"></path>
<path class="st8" d="M285.2 110.2l-8-1.1L248.9 40l7.8.7z" transform="translate(215.52 15.43)"></path>
<path class="st5" d="M248.9 39.4l7.2 1.7 6.1-5.6s3.5 4 6.7 2.5c3.1-1.5 6.5-4.4 6.5-4.4l-7.4-2.1s-2.3 1.7-3.9 2.7c-1.6 1-3.6 2-6.1 1-2.5-1-3-1.7-3-1.7" transform="translate(215.52 15.43)"></path>
<path class="st8" d="M248.9 39.4l7.2 1.7 5.8-4.8c-.3.8 3.4 3.3 6.6 1.8 3.1-1.5 6.2-3.1 6.2-3.1l-7.4-2.9s-1.6 1.2-3.1 2.1c-1.6 1-3.6 2-6.1 1-2.5-1-3.8 0-3.7-.7" transform="translate(215.52 15.43)"></path>
<path class="st5" d="M261.1 34l-6.1-1.1c-.4-.1-.9.1-1.1.4l-4.9 6.2c-.1.2 0 .4.2.5l7.3 1 4.6-7z" transform="translate(215.52 15.43)"></path>
<path class="st11" d="M261.1 34l-6.1-1.1c-.4-.1-.9.1-1.1.4l-4.9 6.2c-.1.2 0 .4.2.5l7.3 1 4.6-7z" transform="translate(215.52 15.43)"></path>
<path class="st9" d="M275.1 32c.8 2 1.2 3.1 2 5.1.3.8.1 1.9-.5 2.6-1.7 2.2-2.7 3.4-4.5 5.7-.6.8-.9 2-.5 2.8L292 98.9c.3.8.1 2-.6 2.8-2.7 3.4-4.1 5.2-6.4 8.1-.5.7-1.2.6-1.5-.2l-27-67.5c-.3-.8-.1-1.9.4-2.5 1.4-1.8 2.2-2.8 3.8-4.8.4-.6 1-.7 1.3-.4 2.9 2.5 6.1 3.6 11.5-2.6.6-.6 1.3-.6 1.6.2" transform="translate(215.52 15.43)"></path>
<path class="st8" d="M275.1 32c.8 2 1.2 3.1 2 5.1.3.8.1 1.9-.5 2.6-1.7 2.2-2.7 3.4-4.5 5.7-.6.8-.9 2-.5 2.8L292 98.9c.3.8.1 2-.6 2.8-2.7 3.4-4.1 5.2-6.4 8.1-.5.7-1.2.6-1.5-.2l-27-67.5c-.3-.8-.1-1.9.4-2.5 1.4-1.8 2.2-2.8 3.8-4.8.4-.6 1-.7 1.3-.4 2.9 2.5 6.1 3.6 11.5-2.6.6-.6 1.3-.6 1.6.2z" transform="translate(215.52 15.43)"></path>
<path class="st9" d="M120.4 57.2l8.9 1.9.5-7.2-3.6-6.3c-5.9-10.5-14.6-13.5-24.8-7.8-2.1 1.2-3.9 2.5-5.3 3.9-.6.6-1 1.2-1.5 1.8l-3.8 6.3 1.3-.6c-.8 4.1.3 8.7 3.1 13.7l19.3 34c5.9 10.5 16.4 16.7 24.8 7.8 3-3.2 6.4-4.7 8-7.6.9 1.8 1 7.4 2.2 9.1 2.9-7.7 1.3-17.2-3.9-26.5L133.8 59l-14.6 8.1-1.5 8.6 4 .9 1.6-2.2 1.1 2 4.7-2.6 6.8 12c2.7 4.7 1.5 7.5-1.8 9.3-3.3 1.8-6.3 1.3-9-3.3l-20-35.3c-2.6-4.7-1.6-7.6 1.7-9.4 3.3-1.8 6.4-1.2 9 3.4l3.3 5.8-.9.4 1.3.4.2.4.7-.3z" transform="translate(215.52 15.43)"></path>
<path class="st12" d="M120.4 57.2l8.9 1.9.5-7.2-3.6-6.3c-5.9-10.5-14.6-13.5-24.8-7.8-2.1 1.2-3.9 2.5-5.3 3.9-.6.6-1 1.2-1.5 1.8l-3.8 6.3 1.3-.6c-.8 4.1.3 8.7 3.1 13.7l19.3 34c5.9 10.5 16.4 16.7 24.8 7.8 3-3.2 6.4-4.7 8-7.6.9 1.8 1 7.4 2.2 9.1 2.9-7.7 1.3-17.2-3.9-26.5L133.8 59l-14.6 8.1-1.5 8.6 4 .9 1.6-2.2 1.1 2 4.7-2.6 6.8 12c2.7 4.7 1.5 7.5-1.8 9.3-3.3 1.8-6.3 1.3-9-3.3l-20-35.3c-2.6-4.7-1.6-7.6 1.7-9.4 3.3-1.8 6.4-1.2 9 3.4l3.3 5.8-.9.4 1.3.4.2.4.7-.3z" transform="translate(215.52 15.43)"></path>
<path class="st5" d="M117.3 75.8l15.8-8.9 12.8 22.7c6.5 11.4 4.4 21.2-6.7 27.4-11.1 6.2-20.6 2.9-27-8.5l-21-37.2c-6.5-11.4-4.4-21.2 6.7-27.4 11.1-6.2 20.6-2.9 27 8.5l3.9 6.9-10.7 6-4.3-7.7c-2.9-5.1-6.2-5.8-9.8-3.8-3.6 2-4.8 5.2-1.9 10.3l21.8 38.6c2.9 5.1 6.2 5.7 9.8 3.7 3.6-2 4.8-5.1 1.9-10.2L128.2 83l-5.2 3-5.7-10.2z" transform="translate(215.52 15.43)"></path>
<path class="st12" d="M117.3 75.8l15.8-8.9 12.8 22.7c6.5 11.4 4.4 21.2-6.7 27.4-11.1 6.2-20.6 2.9-27-8.5l-21-37.2c-6.5-11.4-4.4-21.2 6.7-27.4 11.1-6.2 20.6-2.9 27 8.5l3.9 6.9-10.7 6-4.3-7.7c-2.9-5.1-6.2-5.8-9.8-3.8-3.6 2-4.8 5.2-1.9 10.3l21.8 38.6c2.9 5.1 6.2 5.7 9.8 3.7 3.6-2 4.8-5.1 1.9-10.2L128.2 83l-5.2 3-5.7-10.2z" transform="translate(215.52 15.43)"></path>
<path class="st9" d="M344.1 99.5l5.1 7.5 5.2-4.9 1.7-7.1c2.8-11.7-1.4-19.8-12.6-22.6-2.3-.6-4.5-.8-6.4-.7-.8 0-1.5.1-2.3.3l-7 2.1 1.3.4c-3.3 2.5-5.7 6.6-7 12.1l-9.2 38.1c-2.8 11.7.5 23.5 12.6 22.6 4.3-.3 7.8 1 10.9-.2-.6 1.9-4.3 6.1-4.6 8.1 7.3-3.7 12.6-11.8 15.1-22.2l5.6-23.2-15.9-4-6.9 5.3 2.3 3.4 2.6-.5-.5 2.2 5.2 1.3-3.2 13.5c-1.3 5.2-4 6.5-7.6 5.6-3.6-.9-5.5-3.3-4.2-8.6l9.5-39.5c1.3-5.2 4-6.7 7.6-5.8 3.6.9 5.4 3.5 4.2 8.7l-1.6 6.5-.9-.3.7 1.2-.1.5.4.2z" transform="translate(215.52 15.43)"></path>
<path class="st12" d="M344.1 99.5l5.1 7.5 5.2-4.9 1.7-7.1c2.8-11.7-1.4-19.8-12.6-22.6-2.3-.6-4.5-.8-6.4-.7-.8 0-1.5.1-2.3.3l-7 2.1 1.3.4c-3.3 2.5-5.7 6.6-7 12.1l-9.2 38.1c-2.8 11.7.5 23.5 12.6 22.6 4.3-.3 7.8 1 10.9-.2-.6 1.9-4.3 6.1-4.6 8.1 7.3-3.7 12.6-11.8 15.1-22.2l5.6-23.2-15.9-4-6.9 5.3 2.3 3.4 2.6-.5-.5 2.2 5.2 1.3-3.2 13.5c-1.3 5.2-4 6.5-7.6 5.6-3.6-.9-5.5-3.3-4.2-8.6l9.5-39.5c1.3-5.2 4-6.7 7.6-5.8 3.6.9 5.4 3.5 4.2 8.7l-1.6 6.5-.9-.3.7 1.2-.1.5.4.2z" transform="translate(215.52 15.43)"></path>
<path class="st5" d="M329.5 110.9l17.5 4.3-6.1 25.4c-3.1 12.8-11.2 18.6-23.5 15.5-12.3-3-16.9-11.9-13.8-24.8l10-41.7c3.1-12.8 11.2-18.6 23.5-15.5 12.3 3 16.9 11.9 13.8 24.8l-1.9 7.8-11.8-2.9 2.1-8.6c1.4-5.7-.6-8.5-4.6-9.5-4-1-7 .6-8.4 6.3l-10.4 43.3c-1.4 5.7.6 8.4 4.6 9.4 4 1 7-.5 8.3-6.2l3.6-14.8-5.7-1.4 2.8-11.4z" transform="translate(215.52 15.43)"></path>
<path class="st12" d="M329.5 110.9l17.5 4.3-6.1 25.4c-3.1 12.8-11.2 18.6-23.5 15.5-12.3-3-16.9-11.9-13.8-24.8l10-41.7c3.1-12.8 11.2-18.6 23.5-15.5 12.3 3 16.9 11.9 13.8 24.8l-1.9 7.8-11.8-2.9 2.1-8.6c1.4-5.7-.6-8.5-4.6-9.5-4-1-7 .6-8.4 6.3l-10.4 43.3c-1.4 5.7.6 8.4 4.6 9.4 4 1 7-.5 8.3-6.2l3.6-14.8-5.7-1.4 2.8-11.4z" transform="translate(215.52 15.43)"></path>
<path class="st9" d="M305.3 199l11.1-21.9-44.2-56.1-20.8 3-1.2 16 21.3 40.9z" transform="translate(215.52 15.43)"></path>
<path class="st8" d="M305.3 199l11.1-21.9-44.2-56.1-20.8 3-1.2 16 21.3 40.9z" transform="translate(215.52 15.43)"></path>
<path class="st9" d="M262.3 199.7c.8-.1 1.6-.9 2.3-1.5l5.5-5.8 1.5-12.2-21.6-40.8 6.8 61.8c1.7-.7 3.6-1.3 5.5-1.5" transform="translate(215.52 15.43)"></path>
<path class="st8" d="M262.3 199.7c.8-.1 1.6-.9 2.3-1.5l5.5-5.8 1.5-12.2-21.6-40.8 6.8 61.8c1.7-.7 3.6-1.3 5.5-1.5z" transform="translate(215.52 15.43)"></path>
<path class="st5" d="M256 179.6l-1.4-24.3 12.9 21.4-11.5 2.9zm1.1 22.2l-.4-5.6 19.7-5.2 8.8 13.1 20.1-5.1-54.1-75.6L238 129l.9 77 18.2-4.2z" transform="translate(215.52 15.43)"></path>
<path class="st12" d="M256 179.6l-1.4-24.3 12.9 21.4-11.5 2.9zm1.1 22.2l-.4-5.6 19.7-5.2 8.8 13.1 20.1-5.1-54.1-75.6L238 129l.9 77 18.2-4.2z" transform="translate(215.52 15.43)"></path>
<path class="st5" d="M98.3 156.9c-3 .3-3.9 1.8-1.5 5l3.6 4.9c-3.5.4-5.2.6-8.5 1-1.3-1.8-1.9-2.7-3.2-4.5-5.3-7.3-4.1-12.1 5.1-13 9-.9 17.3 2.8 22.8 9.9 8.5 11.1-3.9 20.7 1 29.4.2.3.5.7.8 1 6.9-.8 10.3-1.1 17.8-1.9 1.9 2.6 2.9 3.9 4.8 6.6-9 .9-18 1.9-27 3l-4.1-5.6c-9-9.9 5-20.8-2.9-31-3-4.1-5.7-5.1-8.7-4.8" transform="translate(215.52 15.43)"></path>
<path class="st13" d="M98.3 156.9c-3 .3-3.9 1.8-1.5 5l3.6 4.9c-3.5.4-5.2.6-8.5 1-1.3-1.8-1.9-2.7-3.2-4.5-5.3-7.3-4.1-12.1 5.1-13 9-.9 17.3 2.8 22.8 9.9 8.5 11.1-3.9 20.7 1 29.4.2.3.5.7.8 1 6.9-.8 10.3-1.1 17.8-1.9 1.9 2.6 2.9 3.9 4.8 6.6-9 .9-18 1.9-27 3l-4.1-5.6c-9-9.9 5-20.8-2.9-31-3-4.1-5.7-5.1-8.7-4.8z" transform="translate(215.52 15.43)"></path>
<path class="st5" d="M79.5 167.7l6.3-14.2s7.9-7.3 21.3-.3c11.3 5.8 11.6 14.6 11.6 14.9 0 .1.2 2.3-.5 5.6-1.1 5-3.1 11.9-2.5 13.6 1 2.7 1.8 3.7 1.8 3.7l17.7-1.9 4.7 6.6-5.5 12.4-10.8-2.8-17.3-.5.8-23.7-4.3-10.1-10.9-4.1-12.4.8z" transform="translate(215.52 15.43)"></path>
<path class="st13" d="M79.5 167.7l6.3-14.2s7.9-7.3 21.3-.3c11.3 5.8 11.6 14.6 11.6 14.9 0 .1.2 2.3-.5 5.6-1.1 5-3.1 11.9-2.5 13.6 1 2.7 1.8 3.7 1.8 3.7l17.7-1.9 4.7 6.6-5.5 12.4-10.8-2.8-17.3-.5.8-23.7-4.3-10.1-10.9-4.1-12.4.8z" transform="translate(215.52 15.43)"></path>
<path class="st5" d="M94.1 179.8l-8.4.9 4.2-12.4 7.4 1.7z" transform="translate(215.52 15.43)"></path>
<path class="st13" d="M94.1 179.8l-8.4.9 4.2-12.4 7.4 1.7z" transform="translate(215.52 15.43)"></path>
<path class="st9" d="M92.5 169.6c-3 .3-3.9 1.8-1.5 5 1.4 2 2.2 2.9 3.6 4.9-3.5.4-5.2.6-8.5 1-1.3-1.8-1.9-2.7-3.2-4.5-5.3-7.3-4.1-12.1 5.1-13 9-.9 17.3 2.8 22.8 9.9 8.5 11.1-3.9 20.7 1 29.4.2.3.5.7.8 1 6.9-.8 10.3-1.1 17.8-1.9 1.9 2.6 2.8 3.9 4.8 6.6-9 .9-18 1.9-27 3-1.6-2.3-2.5-3.4-4.1-5.6-9-9.9 5-20.8-2.9-31-3-4.1-5.7-5.1-8.7-4.8" transform="translate(215.52 15.43)"></path>
<path class="st13" d="M92.5 169.6c-3 .3-3.9 1.8-1.5 5 1.4 2 2.2 2.9 3.6 4.9-3.5.4-5.2.6-8.5 1-1.3-1.8-1.9-2.7-3.2-4.5-5.3-7.3-4.1-12.1 5.1-13 9-.9 17.3 2.8 22.8 9.9 8.5 11.1-3.9 20.7 1 29.4.2.3.5.7.8 1 6.9-.8 10.3-1.1 17.8-1.9 1.9 2.6 2.8 3.9 4.8 6.6-9 .9-18 1.9-27 3-1.6-2.3-2.5-3.4-4.1-5.6-9-9.9 5-20.8-2.9-31-3-4.1-5.7-5.1-8.7-4.8z" transform="translate(215.52 15.43)"></path>
<g>
<path class="st5" d="M.4 11.8L7.5.3" transform="rotate(-7 1846.383135 -2707.7234261)"></path>
<path class="st13" d="M.4 11.8L7.5.3" transform="rotate(-7 1846.383135 -2707.7234261)"></path>
</g>
<g>
<path class="st5" d="M11.1 18.3C9.9 31.2 27.5 33 25.3 46.2l-.5 7C16.6 57 8.4 60.9.3 65c.2-3.2.3-4.9.5-8.1 6.8-3.3 9.9-4.8 16.1-7.8.1-.4.2-.9.2-1.3C16.6 37.7 1 36.2 2.3 22.3c.8-9 6-16.5 14.1-20.6 8.3-4.1 11.9-.7 11.3 8.4-.1 2.2-.2 3.3-.4 5.5-3.1 1.4-4.6 2.2-7.8 3.7.2-2.4.3-3.6.4-6.1.3-4.1-1.3-4.8-4-3.5-2.6 1.3-4.3 3.7-4.8 8.6" transform="rotate(-7 387.994135 -3111.2874261)"></path>
<path class="st13" d="M11.1 18.3C9.9 31.2 27.5 33 25.3 46.2l-.5 7C16.6 57 8.4 60.9.3 65c.2-3.2.3-4.9.5-8.1 6.8-3.3 9.9-4.8 16.1-7.8.1-.4.2-.9.2-1.3C16.6 37.7 1 36.2 2.3 22.3c.8-9 6-16.5 14.1-20.6 8.3-4.1 11.9-.7 11.3 8.4-.1 2.2-.2 3.3-.4 5.5-3.1 1.4-4.6 2.2-7.8 3.7.2-2.4.3-3.6.4-6.1.3-4.1-1.3-4.8-4-3.5-2.6 1.3-4.3 3.7-4.8 8.6z" transform="rotate(-7 387.994135 -3111.2874261)"></path>
<path class="st5" d="M36.8 8.8L23.9.1s-10.5-2-18.3 11.1c-6.5 11-2.1 18.6-2 18.8.1.1 1.1 2 3.4 4.4 3.5 3.7 8.9 8.5 9.3 10.2.6 2.8.4 4.1.4 4.1l-16 7.8-.5 8.1 11.3 7.6 7.7-8.1 14.4-9.6-13.2-19.7L18.6 24l7-9.3 11.2-5.9z" transform="rotate(-7 387.994135 -3111.2874261)"></path>
<path class="st13" d="M36.8 8.8L23.9.1s-10.5-2-18.3 11.1c-6.5 11-2.1 18.6-2 18.8.1.1 1.1 2 3.4 4.4 3.5 3.7 8.9 8.5 9.3 10.2.6 2.8.4 4.1.4 4.1l-16 7.8-.5 8.1 11.3 7.6 7.7-8.1 14.4-9.6-13.2-19.7L18.6 24l7-9.3 11.2-5.9z" transform="rotate(-7 387.994135 -3111.2874261)"></path>
<path class="st5" d="M31 26.5l7.7-3.8-10.1-8.1-5.5 5.5z" transform="rotate(-7 387.994135 -3111.2874261)"></path>
<path class="st13" d="M31 26.5l7.7-3.8-10.1-8.1-5.5 5.5z" transform="rotate(-7 387.994135 -3111.2874261)"></path>
<path class="st9" d="M23 25.7c-1.2 12.8 16.5 14.7 14.2 27.9l-.5 7c-8.2 3.8-16.4 7.8-24.5 11.8.2-3.2.3-4.9.5-8.1 6.8-3.3 9.9-4.8 16.1-7.8.1-.4.2-.9.2-1.3-.5-10-16.2-11.5-14.8-25.5.8-9 6-16.5 14.1-20.6 8.3-4.1 11.9-.7 11.3 8.4-.1 2.2-.2 3.3-.4 5.5-3.1 1.4-4.6 2.2-7.8 3.7.2-2.4.3-3.6.4-6.1.3-4.1-1.3-4.8-4-3.5-2.6 1.2-4.4 3.6-4.8 8.6" transform="rotate(-7 387.994135 -3111.2874261)"></path>
<path class="st13" d="M23 25.7c-1.2 12.8 16.5 14.7 14.2 27.9l-.5 7c-8.2 3.8-16.4 7.8-24.5 11.8.2-3.2.3-4.9.5-8.1 6.8-3.3 9.9-4.8 16.1-7.8.1-.4.2-.9.2-1.3-.5-10-16.2-11.5-14.8-25.5.8-9 6-16.5 14.1-20.6 8.3-4.1 11.9-.7 11.3 8.4-.1 2.2-.2 3.3-.4 5.5-3.1 1.4-4.6 2.2-7.8 3.7.2-2.4.3-3.6.4-6.1.3-4.1-1.3-4.8-4-3.5-2.6 1.2-4.4 3.6-4.8 8.6z" transform="rotate(-7 387.994135 -3111.2874261)"></path>
<path class="st5" d="M11.4 7.7L.3.1" transform="rotate(-7 851.05751152 -3149.35774026)"></path>
<path class="st13" d="M11.4 7.7L.3.1" transform="rotate(-7 851.05751152 -3149.35774026)"></path>
</g>
</g>
</g>
<g class="circle" style="transform: translateY(270.27px);">
<path d="M697.936 425.785c0 8.5-16.3 15.4-36.4 15.4s-36.4-6.9-36.4-15.4 16.3-15.4 36.4-15.4 36.4 6.9 36.4 15.4z" fill="#634fe6" fill-opacity=".08" stroke="#000" stroke-width="2.395" stroke-linecap="round" stroke-linejoin="round" stroke-dasharray="4.79,9.58"></path>
<path class="st9" d="M78.5 97.5c-8.4-13.9-16.8-27.7-25.1-41.7.1-15.1.1-30.1.1-45.2-18.4-12.9-37.6-3.7-37 19.2.6 24.6 15.5 52.6 36.9 63.3.8.4 1.7.8 2.6 1.2l6.8 11.2 15.7-8z" transform="translate(608.036 320.185)"></path>
<path class="st15" d="M78.5 97.5c-8.4-13.9-16.8-27.7-25.1-41.7.1-15.1.1-30.1.1-45.2-18.4-12.9-37.6-3.7-37 19.2.6 24.6 15.5 52.6 36.9 63.3.8.4 1.7.8 2.6 1.2l6.8 11.2 15.7-8z" transform="translate(608.036 320.185)"></path>
<path class="st5" d="M37.6 63.9c.1-15.1.1-30.1.1-45.2C19.3 5.8.1 15 .7 37.9c.6 24.6 15.5 52.6 36.9 63.2 7.3 3.6 16.4 7.7 25.1 4.4-8.4-13.9-16.8-27.7-25.1-41.6" transform="translate(608.036 320.185)"></path>
<path class="st15" d="M37.6 63.9c.1-15.1.1-30.1.1-45.2C19.3 5.8.1 15 .7 37.9c.6 24.6 15.5 52.6 36.9 63.2 7.3 3.6 16.4 7.7 25.1 4.4-8.4-13.9-16.8-27.7-25.1-41.6z" transform="translate(608.036 320.185)"></path>
<path class="st5" d="M10.7 15.7s18.4-9.6 20.1-10c1.6-.4 13.1-3.4 22.8 5l-15.8 8.1c-.1-.1-10.6-10.2-27.1-3.1" transform="translate(608.036 320.185)"></path>
<path class="st15" d="M10.7 15.7s18.4-9.6 20.1-10c1.6-.4 13.1-3.4 22.8 5l-15.8 8.1c-.1-.1-10.6-10.2-27.1-3.1z" transform="translate(608.036 320.185)"></path>
<path class="st5" d="M93.5 40.5c-.8-1.8-1.9-4.4-3.5-7.4-1.3-2.5-3-5.3-5-8.2-5.8-8.7-13.1-16.6-21.6-22.7l-.2-.1c-.7-.5-1.3-.9-2-1.4L45.4 8.8c1.2 2.9 10.5 10.3 15.9 14.4v22.6c4.9-.2 9.8-.4 14.7-.7l2.9 6.5 15.8-8.1-1.2-3" transform="translate(608.036 320.185)"></path>
<path class="st15" d="M93.5 40.5c-.8-1.8-1.9-4.4-3.5-7.4-1.3-2.5-3-5.3-5-8.2-5.8-8.7-13.1-16.6-21.6-22.7l-.2-.1c-.7-.5-1.3-.9-2-1.4L45.4 8.8c1.2 2.9 10.5 10.3 15.9 14.4v22.6c4.9-.2 9.8-.4 14.7-.7l2.9 6.5 15.8-8.1-1.2-3z" transform="translate(608.036 320.185)"></path>
<path class="st5" d="M78.8 51.6c-.4-1-.7-2-1.2-3-1.4-3.3-4.1-9.1-8.5-15.6-6.3-9.4-14.3-17.9-23.8-24.2.1 15 .1 30.1.1 45.1 11.2-.5 22.4-1 33.4-2.3" transform="translate(608.036 320.185)"></path>
<path class="st15" d="M78.8 51.6c-.4-1-.7-2-1.2-3-1.4-3.3-4.1-9.1-8.5-15.6-6.3-9.4-14.3-17.9-23.8-24.2.1 15 .1 30.1.1 45.1 11.2-.5 22.4-1 33.4-2.3z" transform="translate(608.036 320.185)"></path>
<path class="st9" d="M98 54c-11 1.4-22.2 1.9-33.3 2.4l-15.7 8 20-1.1c4.9 8.1 9.8 16.3 14.7 24.5l-10 2.3v15.5s8.1-1.8 16.2-6c.1 0 .4-.2.5-.2 8.4-4.6 10.7-17.7 11.3-25.6.4-5.9-1.2-13.1-3.7-19.8" transform="translate(608.036 320.185)"></path>
<path class="st15" d="M98 54c-11 1.4-22.2 1.9-33.3 2.4l-15.7 8 20-1.1c4.9 8.1 9.8 16.3 14.7 24.5l-10 2.3v15.5s8.1-1.8 16.2-6c.1 0 .4-.2.5-.2 8.4-4.6 10.7-17.7 11.3-25.6.4-5.9-1.2-13.1-3.7-19.8z" transform="translate(608.036 320.185)"></path>
<path class="st5" d="M82.2 62c-11 1.4-22.2 1.9-33.3 2.4 8.2 13.7 16.5 27.4 24.7 41.2 9.7-4.1 11.5-15.4 12.2-23.7.5-5.9-1.1-13.1-3.6-19.9" transform="translate(608.036 320.185)"></path>
<path class="st15" d="M82.2 62c-11 1.4-22.2 1.9-33.3 2.4 8.2 13.7 16.5 27.4 24.7 41.2 9.7-4.1 11.5-15.4 12.2-23.7.5-5.9-1.1-13.1-3.6-19.9z" transform="translate(608.036 320.185)"></path>
<path class="st5" d="M.1 8.4L15.9.3" transform="translate(690.183 373.786)"></path>
<path class="st15" d="M.1 8.4L15.9.3" transform="translate(690.183 373.786)"></path>
</g>
<g class="graph" style="transform: translateY(-90.09px);">
<path class="st9" d="M32.8 29.6l106 62.3 17.1-9.9L49.2 19.7zM65.8 10.8l106 62.3 17-9.9L82.2.9zM.3 48.9l106.1 62.3 17-9.9L16.7 39z" transform="translate(92.625 326.648)"></path>
<path class="st6" d="M38.6 87.8l60.7-10.5-9.2 18.2 46.9-6.8-18.6 23.1 79.8-10.3" transform="translate(67 293.181)"></path>
<g>
<path class="st5" d="M103.4 79.8c-2.9 2.1-7.5 2.7-10 .8-2.6-1.9-2.6-4.9.3-7 2.8-2 6.8-2.3 9.5-.5 2.5 1.7 3.1 4.6.2 6.7" transform="translate(67 293.728)"></path>
<path class="st16" d="M103.4 79.8c-2.9 2.1-7.5 2.7-10 .8-2.6-1.9-2.6-4.9.3-7 2.8-2 6.8-2.3 9.5-.5 2.5 1.7 3.1 4.6.2 6.7z" transform="translate(67 293.728)"></path>
<path class="st5" d="M94.6 97.9c-2.9 2.1-7.5 2.7-10 .8-2.6-1.9-2.6-4.9.3-7 2.8-2 6.8-2.3 9.5-.5 2.5 1.8 3.1 4.6.2 6.7" transform="translate(67 293.728)"></path>
<path class="st16" d="M94.6 97.9c-2.9 2.1-7.5 2.7-10 .8-2.6-1.9-2.6-4.9.3-7 2.8-2 6.8-2.3 9.5-.5 2.5 1.8 3.1 4.6.2 6.7z" transform="translate(67 293.728)"></path>
<path class="st5" d="M123.4 114.2c-2.9 2.1-7.5 2.7-10 .8-2.6-1.9-2.6-4.9.3-7 2.8-2 6.8-2.3 9.5-.5 2.6 1.7 3.1 4.6.2 6.7" transform="translate(67 293.728)"></path>
<path class="st16" d="M123.4 114.2c-2.9 2.1-7.5 2.7-10 .8-2.6-1.9-2.6-4.9.3-7 2.8-2 6.8-2.3 9.5-.5 2.6 1.7 3.1 4.6.2 6.7z" transform="translate(67 293.728)"></path>
<path class="st5" d="M141.9 92c-2.9 2.1-7.5 2.7-10 .8-2.6-1.9-2.6-4.9.3-7 2.8-2 6.8-2.3 9.5-.5 2.5 1.7 3.1 4.6.2 6.7" transform="translate(67 293.728)"></path>
<path class="st16" d="M141.9 92c-2.9 2.1-7.5 2.7-10 .8-2.6-1.9-2.6-4.9.3-7 2.8-2 6.8-2.3 9.5-.5 2.5 1.7 3.1 4.6.2 6.7z" transform="translate(67 293.728)"></path>
<path class="st5" d="M203.2 102.9c-2.9 2.1-7.5 2.7-10 .8-2.6-1.9-2.6-4.9.3-7 2.8-2 6.8-2.3 9.5-.5 2.5 1.7 3.1 4.6.2 6.7" transform="translate(67 293.728)"></path>
<path class="st16" d="M203.2 102.9c-2.9 2.1-7.5 2.7-10 .8-2.6-1.9-2.6-4.9.3-7 2.8-2 6.8-2.3 9.5-.5 2.5 1.7 3.1 4.6.2 6.7z" transform="translate(67 293.728)"></path>
<path class="st5" d="M10.6 87.2L135.1 16l8 9.4L23.2 93.6z" transform="translate(67 293.728)"></path>
<path class="st16" d="M10.6 87.2L135.1 16l8 9.4L23.2 93.6z" transform="translate(67 293.728)"></path>
<path class="st5" d="M120.4 9L153 6c1.1-.1 2 .8 2 1.9V28c0 1.9-2.1 3.2-3.8 2.2l-31.5-18.3c-1.2-.8-.8-2.8.7-2.9" transform="translate(67 293.728)"></path>
<path class="st16" d="M120.4 9L153 6c1.1-.1 2 .8 2 1.9V28c0 1.9-2.1 3.2-3.8 2.2l-31.5-18.3c-1.2-.8-.8-2.8.7-2.9z" transform="translate(67 293.728)"></path>
<path class="st5" d="M148 15.6L142 26l-6.9-8.8c-.4-.2-.7-.7-.7-1.1V9.7l1.9-1.1 10.6 6.4c.4.2 1.1.6 1.1.6" transform="translate(67 293.728)"></path>
<path class="st16" d="M148 15.6L142 26l-6.9-8.8c-.4-.2-.7-.7-.7-1.1V9.7l1.9-1.1 10.6 6.4c.4.2 1.1.6 1.1.6z" transform="translate(67 293.728)"></path>
<path class="st5" d="M23.8 87.2v5.2c0 1-1 1.6-1.9 1.1l-10.8-6c-.4-.2-.7-.7-.7-1.1l.2-4c0-1 2-1.3 2-1.3L23.1 86c.5.4.7.8.7 1.2" transform="translate(67 293.728)"></path>
<path class="st16" d="M23.8 87.2v5.2c0 1-1 1.6-1.9 1.1l-10.8-6c-.4-.2-.7-.7-.7-1.1l.2-4c0-1 2-1.3 2-1.3L23.1 86c.5.4.7.8.7 1.2z" transform="translate(67 293.728)"></path>
<path class="st5" d="M140.1 26.1l3.1-1.9 2.4-2.1-3.7-2.2-5.7 3.4z" transform="translate(67 293.728)"></path>
<path class="st5" d="M32.8 20.1L.2.2l-.2 6V7l5.2 2.9" transform="translate(185.972 298.3)"></path>
<path class="st16" d="M32.8 20.1L.2.2l-.2 6V7l5.2 2.9" transform="translate(185.972 298.3)"></path>
<path class="st5" d="M9.4.1l-8.7 5" transform="translate(198.784 312.931)"></path>
<path class="st16" d="M9.4.1l-8.7 5" transform="translate(198.784 312.931)"></path>
<path class="st5" d="M9.5.6l-8.7 5" transform="translate(185.972 305.616)"></path>
<path class="st16" d="M9.5.6l-8.7 5" transform="translate(185.972 305.616)"></path>
<path class="st5" d="M144.6 25.3s-.8-.5-1.4-.7c-.5-.1-.9.2-.9.2l-.3-.8.8-1.4 2.3-.1.3 2.3-.8.5zM.8 94.9l122.9 70.4 11-7L11.8 89z" transform="translate(67 293.728)"></path>
<path class="st16" d="M.8 94.9l122.9 70.4 11-7L11.8 89z" transform="translate(67 293.728)"></path>
<path class="st5" d="M.8 87v7.4c0 .4.4.6.7.4l9.7-5.8c.4-.2.8-.4.8-.8v-6.1c0-.5-.6-.7-1.1-.4l-9.3 4.6c-.5.3-.8.2-.8.7" transform="translate(67 293.728)"></path>
<path class="st16" d="M.8 87v7.4c0 .4.4.6.7.4l9.7-5.8c.4-.2.8-.4.8-.8v-6.1c0-.5-.6-.7-1.1-.4l-9.3 4.6c-.5.3-.8.2-.8.7z" transform="translate(67 293.728)"></path>
<path class="st5" d="M123.7 157.1v7.3c0 .4.4.6.7.4l9.7-6.2c.4-.2.8-.4.8-.8l-.2-6.9c0-.5-.6-.2-1 .1l-9.3 4.9c-.4.3-.7.7-.7 1.2" transform="translate(67 293.728)"></path>
<path class="st16" d="M123.7 157.1v7.3c0 .4.4.6.7.4l9.7-6.2c.4-.2.8-.4.8-.8l-.2-6.9c0-.5-.6-.2-1 .1l-9.3 4.9c-.4.3-.7.7-.7 1.2z" transform="translate(67 293.728)"></path>
<path class="st5" d="M1.7 88.6v5.7c0 .1 0 .1.1.2L43.6 118l2.8-4.3L1.7 88.6z" transform="translate(67 293.728)"></path>
<path class="st5" d="M.4.8v7" transform="translate(219.833 459.242)"></path>
<path class="st16" d="M.4.8v7" transform="translate(219.833 459.242)"></path>
<path class="st5" d="M112.2 171.2l39.9 3.5c.8.1 1.4-.7 1.3-1.4l-5.6-23.9c-.2-.8-1.1-1.2-1.8-.7L111.7 169c-1 .6-.7 2.1.5 2.2" transform="translate(67 293.728)"></path>
<path class="st16" d="M112.2 171.2l39.9 3.5c.8.1 1.4-.7 1.3-1.4l-5.6-23.9c-.2-.8-1.1-1.2-1.8-.7L111.7 169c-1 .6-.7 2.1.5 2.2z" transform="translate(67 293.728)"></path>
<path class="st5" d="M153.1.3l-32.6 3c-1.5.1-1.9 2.1-.6 2.9l9.8 5.7L1.6 86.4h.3l-1 .6L122 155.3l-10.3 6.1c-1 .6-.6 2.1.5 2.2l39.9 3.5c.8.1 1.4-.7 1.3-1.4l-5.6-23.9c-.2-.8-1.1-1.2-1.8-.7l-13.6 8.1-107.9-63 109.4-62.5 8.1-4.6 9.4 5.5c1.7 1 3.8-.2 3.8-2.2V2.2c0-1.1-1-2-2.1-1.9" transform="translate(67 293.728)"></path>
<path class="st16" d="M153.1.3l-32.6 3c-1.5.1-1.9 2.1-.6 2.9l9.8 5.7L1.6 86.4h.3l-1 .6L122 155.3l-10.3 6.1c-1 .6-.6 2.1.5 2.2l39.9 3.5c.8.1 1.4-.7 1.3-1.4l-5.6-23.9c-.2-.8-1.1-1.2-1.8-.7l-13.6 8.1-107.9-63 109.4-62.5 8.1-4.6 9.4 5.5c1.7 1 3.8-.2 3.8-2.2V2.2c0-1.1-1-2-2.1-1.9z" transform="translate(67 293.728)"></path>
<g>
<path class="st5" d="M.3.7v7.7" transform="translate(177.735 455.584)"></path>
<path class="st16" d="M.3.7v7.7" transform="translate(177.735 455.584)"></path>
</g>
<path class="st5" d="M112.5 164.5l39.6 3.3c.3 0 .5.3.5.6v4.8c0 .3-.3.6-.6.6l-39.6-3.4c-.3 0-.5-.3-.5-.6v-4.7c0-.3.3-.6.6-.6" transform="translate(67 293.728)"></path>
</g>
</g>
<g class="null" style="transform: translateY(-69.3px);">
<path class="st5" d="M23.7 56.7c-1.1 5.2.4 8.8 3.4 11.5 3 2.6 5.4 2.3 6.5-3 2.8-13.3 5.7-26.7 8.5-40 1.1-5.3-.4-8.8-3.6-11-3.2-2.2-5.5-1.6-6.6 3.6-2.7 13-5.4 25.9-8.2 38.9m-.8-45.1c1.8-9.2 9.5-14.5 17.9-8.2C49.4 9.8 53.6 22.1 51.2 33c-2.8 13.1-5.6 26.2-8.4 39.2-2.2 10.3-10.2 13.5-18 6.5-8.3-7.5-12.6-19.1-9.8-30.3 2.7-12.2 5.3-24.5 7.9-36.8" transform="rotate(-4 384.678 -9434.366)"></path>
<path d="M686.6426205 58.76079262c-.7345868 5.26406518 1.01288259 8.75066106 4.19391722 11.23481457 3.17405898 2.3843971 5.54728576 1.91771236 6.2748969-3.44610923 1.86541824-13.46292 3.82361724-27.03257204 5.68903548-40.49549204.72761114-5.36382159-1.01288259-8.75066105-4.3585518-10.72208124-3.3456692-1.9714202-5.59821263-1.21244188-6.33279942 4.0516233-1.78658878 13.15667514-3.5801532 26.21359386-5.46649838 39.37724464zm-3.9440682-44.93433349c1.15385572-9.30315091 8.4653896-15.12736522 17.2843934-9.42866609 9.02549227 5.78450425 14.0732659 17.76156488 12.43945775 28.80242856-1.87936953 13.26340719-3.75873907 26.52681437-5.64508425 39.69046515-1.47614923 10.42837396-9.23344092 14.17863071-17.50273582 7.73978286-8.80295517-6.90275165-13.90165569-18.1745418-11.88974885-29.54257728 1.84239395-12.3586239 3.57805586-24.81002855 5.31371776-37.2614332z" fill="none" stroke="#000" stroke-width="1.497" stroke-linejoin="round"></path>
<path class="st5" d="M18 79.5L5.4 67.2 18.6 5.1 32.8.8s3.8-.6 7.1 2 9.4 8.2 10.7 20.5c.5 4.3-2 14.6-4 24.4C44 60.1 40 71.9 40 71.9s.9 3.9-3.8 9.2L23.3 86" transform="rotate(-4 384.678 -9434.366)"></path>
<path class="st18" d="M37.8 81.1c-2 1.5-14.4 4.9-14.4 4.9M18 79.5L5.4 67.2 18.6 5.1 32.8.8s3.8-.6 7.1 2 10.5 8.5 11.8 20.7" transform="rotate(-4 384.678 -9434.366)"></path>
<path class="st9" d="M10.2 61c-1.1 5.2.3 8.8 3.4 11.5 3 2.6 5.4 2.3 6.5-3 2.8-13.3 5.7-26.7 8.5-40 1.1-5.3-.4-8.8-3.6-11s-5.5-1.6-6.6 3.6c-2.7 13-5.4 26-8.2 38.9m-.8-45c1.8-9.2 9.5-14.5 17.9-8.2 8.6 6.4 12.8 18.7 10.4 29.6-2.8 13.1-5.6 26.2-8.4 39.2-2.2 10.3-10.2 13.5-18 6.5C3.1 75.6-1.2 64 1.6 52.8 4.2 40.6 6.8 28.3 9.4 16" transform="rotate(-4 384.678 -9434.366)"></path>
<path class="st18" d="M10.2 61c-1.1 5.2.3 8.8 3.4 11.5 3 2.6 5.4 2.3 6.5-3 2.8-13.3 5.7-26.7 8.5-40 1.1-5.3-.4-8.8-3.6-11s-5.5-1.6-6.6 3.6c-2.7 13-5.4 26-8.2 38.9zm-.8-45c1.8-9.2 9.5-14.5 17.9-8.2 8.6 6.4 12.8 18.7 10.4 29.6-2.8 13.1-5.6 26.2-8.4 39.2-2.2 10.3-10.2 13.5-18 6.5C3.1 75.6-1.2 64 1.6 52.8 4.2 40.6 6.8 28.3 9.4 16z" transform="rotate(-4 384.678 -9434.366)"></path>
</g>
</g>
</g>
</svg>