<svg width="120" height="120" viewBox="0 0 120 120" fill="none" xmlns="http://www.w3.org/2000/svg">
<path d="M42.8595 64.3228L32.545 54.9008C31.7032 54.1319 31.6735 52.816 32.4796 52.0099L36.3371 48.1524C37.0391 47.4504 38.1497 47.3696 38.9459 47.9625L51.0158 56.9508L78.7474 31.8857C79.3417 31.3485 80.1992 31.2178 80.9266 31.5535L96.8381 38.8973C97.5464 39.2242 98 39.9331 98 40.7132V87.8475C98 88.6125 97.5636 89.3105 96.8759 89.6455L80.9488 97.4049C80.2115 97.7641 79.3296 97.6367 78.724 97.0836L51.4764 72.1939L39.842 81.0462C39.0652 81.6372 37.9752 81.5812 37.2631 80.9136L32.585 76.5279C31.7317 75.7279 31.744 74.3695 32.6118 73.5851L42.8595 64.3228Z" fill="#F7F7FE" stroke="black" stroke-linecap="round" stroke-linejoin="round" stroke-dasharray="8 10"/>
<mask id="mask0" mask-type="alpha" maskUnits="userSpaceOnUse" x="23" y="22" width="67" height="67">
<path fill-rule="evenodd" clip-rule="evenodd" d="M70.0659 87.7482C71.1113 88.1555 72.3034 88.1293 73.3586 87.6216L87.0236 81.0463C88.4594 80.3554 89.3725 78.9019 89.3725 77.3077V32.7228C89.3725 31.1285 88.4594 29.6753 87.0236 28.9843L73.3586 22.4088C71.9738 21.7425 70.3532 21.9057 69.138 22.7892C68.9643 22.9154 68.7988 23.0564 68.6438 23.2117L42.4837 47.0779L31.0889 38.4284C30.0282 37.6232 28.5445 37.6892 27.5594 38.5853L23.9047 41.9098C22.6996 43.006 22.6982 44.9017 23.9017 45.9997L33.7836 55.0151L23.9017 64.0306C22.6982 65.1286 22.6996 67.0244 23.9047 68.1206L27.5594 71.4449C28.5445 72.3412 30.0282 72.407 31.0889 71.602L42.4837 62.9523L68.6438 86.8187C69.0576 87.2327 69.5435 87.5446 70.0659 87.7482ZM72.7895 39.9478L52.94 55.0151L72.7895 70.0824V39.9478Z" fill="white"/>
</mask>
<g mask="url(#mask0)">
<path d="M87.0211 28.995L73.3455 22.4104C71.7627 21.6482 69.8708 21.9697 68.6284 23.212L23.8593 64.031C22.6551 65.129 22.6565 67.0248 23.8623 68.121L27.5191 71.4453C28.5049 72.3416 29.9895 72.4075 31.0509 71.6024L84.9633 30.7032C86.7719 29.3311 89.3698 30.6211 89.3698 32.8914V32.7326C89.3698 31.139 88.4569 29.6863 87.0211 28.995Z" fill="#0065A9"/>
<g filter="url(#filter0_d)">
<path d="M87.0211 81.0359L73.3455 87.6205C71.7627 88.3825 69.8708 88.061 68.6284 86.8189L23.8593 45.9998C22.6551 44.9019 22.6565 43.006 23.8623 41.9099L27.5191 38.5854C28.5049 37.6893 29.9895 37.6233 31.0509 38.4285L84.9633 79.3276C86.7719 80.6996 89.3698 79.4098 89.3698 77.1394V77.2983C89.3698 78.8917 88.4569 80.3444 87.0211 81.0359Z" fill="#007ACC"/>
</g>
<g filter="url(#filter1_d)">
<path d="M73.3465 87.6215C71.7632 88.3829 69.8713 88.0612 68.6289 86.8188C70.1596 88.3495 72.7772 87.2652 72.7772 85.1003V24.9299C72.7772 22.765 70.1596 21.6808 68.6289 23.2117C69.8713 21.9692 71.7632 21.6473 73.3465 22.4088L87.0198 28.9843C88.4567 29.6753 89.3703 31.1285 89.3703 32.7228V77.3078C89.3703 78.902 88.4567 80.3552 87.0198 81.0462L73.3465 87.6215Z" fill="#1F9CF0"/>
</g>
<g style="mix-blend-mode:overlay" opacity="0.25">
<path style="mix-blend-mode:overlay" opacity="0.25" fill-rule="evenodd" clip-rule="evenodd" d="M70.023 87.7482C71.0684 88.1552 72.2605 88.1293 73.3154 87.6217L86.9804 81.0461C88.4165 80.3552 89.3296 78.902 89.3296 77.3077V32.7228C89.3296 31.1285 88.4165 29.6753 86.9806 28.9843L73.3154 22.4088C71.9309 21.7425 70.3103 21.9057 69.0948 22.7892C68.9214 22.9154 68.7559 23.0564 68.6006 23.2117L42.4407 47.0779L31.046 38.4284C29.9852 37.6232 28.5015 37.6892 27.5164 38.5853L23.8617 41.9098C22.6567 43.0059 22.6553 44.9018 23.8587 45.9997L33.7407 55.0151L23.8587 64.0307C22.6553 65.1286 22.6567 67.0244 23.8617 68.1206L27.5164 71.4449C28.5015 72.3412 29.9852 72.4071 31.046 71.602L42.4407 62.9524L68.6006 86.8187C69.0144 87.2328 69.5006 87.5447 70.023 87.7482ZM72.7466 39.9478L52.8971 55.0151L72.7466 70.0825V39.9478Z" fill="url(#paint0_linear)"/>
</g>
</g>
<defs>
<filter id="filter0_d" x="1.62363" y="16.5328" width="109.08" height="92.8304" filterUnits="userSpaceOnUse" color-interpolation-filters="sRGB">
<feFlood flood-opacity="0" result="BackgroundImageFix"/>
<feColorMatrix in="SourceAlpha" type="matrix" values="0 0 0 0 0 0 0 0 0 0 0 0 0 0 0 0 0 0 127 0"/>
<feOffset/>
<feGaussianBlur stdDeviation="10.6667"/>
<feColorMatrix type="matrix" values="0 0 0 0 0 0 0 0 0 0 0 0 0 0 0 0 0 0 0.25 0"/>
<feBlend mode="overlay" in2="BackgroundImageFix" result="effect1_dropShadow"/>
<feBlend mode="normal" in="SourceGraphic" in2="effect1_dropShadow" result="shape"/>
</filter>
<filter id="filter1_d" x="47.2955" y="0.666599" width="63.4082" height="108.697" filterUnits="userSpaceOnUse" color-interpolation-filters="sRGB">
<feFlood flood-opacity="0" result="BackgroundImageFix"/>
<feColorMatrix in="SourceAlpha" type="matrix" values="0 0 0 0 0 0 0 0 0 0 0 0 0 0 0 0 0 0 127 0"/>
<feOffset/>
<feGaussianBlur stdDeviation="10.6667"/>
<feColorMatrix type="matrix" values="0 0 0 0 0 0 0 0 0 0 0 0 0 0 0 0 0 0 0.25 0"/>
<feBlend mode="overlay" in2="BackgroundImageFix" result="effect1_dropShadow"/>
<feBlend mode="normal" in="SourceGraphic" in2="effect1_dropShadow" result="shape"/>
</filter>
<linearGradient id="paint0_linear" x1="56.1433" y1="22" x2="56.1433" y2="88.0303" gradientUnits="userSpaceOnUse">
<stop stop-color="white"/>
<stop offset="1" stop-color="white" stop-opacity="0"/>
</linearGradient>
</defs>
</svg>
