<svg xmlns="http://www.w3.org/2000/svg" width="224" height="176" viewBox="0 0 224 176">
    <g fill="none" fill-rule="evenodd">
        <path fill="#9595EF" d="M149.114 54.865c31.157 22.46 72.589 7.87 69.747 47.74-2.841 39.871-44.376 51.403-137.959 50.327-93.583-1.076-89.552-52.205-68.497-80.42C22.933 58.405 49.57 32.561 77.444 27.713c27.873-4.847 56.489 16.209 71.67 27.152" opacity=".57"/>
        <path fill="#FFF" d="M120.907 42.724L9.192 108.214c-4.267 2.491-4.253 8.694.025 11.168l86.284 49.922a12.613 12.613 0 0 0 12.52.066l106.794-61.416 5.91-3.381c4.337-2.447 4.374-8.711.067-11.21l-87.183-50.657a12.615 12.615 0 0 0-12.702.018"/>
        <path fill="#000" fill-rule="nonzero" d="M120.402 41.861a13.616 13.616 0 0 1 13.71-.02l87.182 50.657c4.976 2.887 4.933 10.119-.073 12.943l-5.907 3.38-106.802 61.42A13.614 13.614 0 0 1 95 170.169L8.717 120.247c-4.943-2.857-4.96-10.018-.03-12.897l111.715-65.489zM9.696 109.077c-3.604 2.105-3.592 7.35.022 9.44l86.284 49.921a11.61 11.61 0 0 0 11.52.065l106.797-61.417 5.914-3.384c3.664-2.067 3.695-7.363.057-9.475l-87.183-50.656a11.615 11.615 0 0 0-11.695.016L9.696 109.077z"/>
        <path fill="#FFF" d="M120.907 33.724L9.192 99.214c-4.267 2.492-4.253 8.694.025 11.167l86.284 49.923a12.617 12.617 0 0 0 12.52.067l106.794-61.416 5.91-3.383c4.337-2.446 4.374-8.71.067-11.209l-87.183-50.656a12.615 12.615 0 0 0-12.702.017"/>
        <path fill="#000" fill-rule="nonzero" d="M120.402 32.86a13.616 13.616 0 0 1 13.71-.018l87.182 50.656c4.976 2.887 4.933 10.12-.073 12.942l-5.907 3.381-106.802 61.42a13.618 13.618 0 0 1-13.512-.07L8.717 111.246c-4.943-2.857-4.96-10.018-.03-12.896l111.715-65.49zm1.01 1.727L9.696 100.077c-3.604 2.105-3.592 7.35.022 9.439l86.283 49.923a11.614 11.614 0 0 0 11.52.065L214.32 98.087l5.914-3.386c3.664-2.066 3.695-7.362.057-9.473l-87.183-50.656a11.615 11.615 0 0 0-11.695.015z"/>
        <path fill="#FFF" d="M53.044 83.671L20.33 101.936c-1.773 1.013-1.773 3.567 0 4.58l78.575 43.814a5.092 5.092 0 0 0 5.05 0l32.716-18.265c1.772-1.013 1.772-3.567 0-4.58L58.095 83.671a5.084 5.084 0 0 0-5.05 0"/>
        <path fill="#000" fill-rule="nonzero" d="M55.57 82c1.055 0 2.096.274 3.012.798l78.585 43.82c2.444 1.395 2.444 4.919-.009 6.32l-32.707 18.26a6.087 6.087 0 0 1-6.033.005l-78.584-43.819c-2.445-1.396-2.445-4.919.008-6.321l32.71-18.262A6.084 6.084 0 0 1 55.57 82zm-2.03 2.54l-32.714 18.264c-1.101.63-1.101 2.215-.01 2.838l78.585 43.82a4.096 4.096 0 0 0 4.067-.005l32.707-18.26c1.1-.629 1.1-2.215.009-2.838l-78.586-43.82a4.084 4.084 0 0 0-4.057 0z"/>
        <path fill="#FFF" d="M110.088 47.434L78.852 65.465c-1.136.656-1.136 2.31 0 2.965l34.823 20.135a3.23 3.23 0 0 0 3.237 0l31.236-18.03c1.136-.655 1.136-2.31 0-2.966l-34.823-20.135a3.234 3.234 0 0 0-3.237 0"/>
        <path fill="#000" fill-rule="nonzero" d="M109.588 46.568a4.234 4.234 0 0 1 4.238 0l34.822 20.135c1.803 1.04 1.803 3.659 0 4.699L117.412 89.43a4.23 4.23 0 0 1-4.238 0L78.352 69.296c-1.803-1.04-1.803-3.657 0-4.697l31.236-18.03zm1 1.732L79.352 66.331a.716.716 0 0 0 0 1.233L114.176 87.7c.693.401 1.543.401 2.237 0l31.236-18.03a.717.717 0 0 0 0-1.234L112.824 48.3c-.693-.4-1.543-.4-2.237 0z"/>
        <path fill="#FFF" d="M154.088 73.435l-31.236 18.03c-1.136.655-1.136 2.31 0 2.966l34.823 20.135a3.234 3.234 0 0 0 3.237 0l31.236-18.03c1.136-.656 1.136-2.31 0-2.966l-34.823-20.135a3.23 3.23 0 0 0-3.237 0"/>
        <path fill="#000" fill-rule="nonzero" d="M157.826 72.57l34.822 20.134c1.803 1.04 1.803 3.658 0 4.698l-31.236 18.03a4.234 4.234 0 0 1-4.238 0l-34.822-20.135c-1.803-1.04-1.803-3.658 0-4.698l31.236-18.03a4.23 4.23 0 0 1 4.238 0zm-3.237 1.73l-31.237 18.031a.717.717 0 0 0 0 1.234l34.822 20.135c.695.4 1.544.4 2.238 0l31.236-18.03a.717.717 0 0 0 0-1.234L156.824 74.3a2.23 2.23 0 0 0-2.236 0zM214.966 96.898l-1.007 1.728L111.58 38.92l1.007-1.728zM109.748 47.822l1.99-.192 4.056 41.976-1.99.192z"/>
        <path fill="#000" fill-rule="nonzero" d="M155.008 73.575l1.991-.185 3.894 41.976-1.992.185zM77.356 67.702l.059-1.999 71.247 2.082-.058 2z"/>
        <path fill="#000" fill-rule="nonzero" d="M121.448 94.473l.053-1.999 71.249 1.885-.053 2zM59.174 79.307a1 1 0 1 1 .976-1.745l84.651 47.364a1 1 0 0 1-.976 1.746L59.174 79.307zM64.533 75.166a1 1 0 0 1 .97-1.75l85.434 47.364a1 1 0 0 1-.97 1.749L64.534 75.166zM70.04 72.45a1 1 0 0 1 .97-1.749l85.434 47.365a1 1 0 0 1-.97 1.749L70.04 72.45z"/>
        <path fill="#9595EF" d="M19.862 124.495c-1.857-1.237-3.693-1.644-5.373-1.44L14.45 123l-.147.076c-1.596.238-3.042.347-4.222 1.513L5 128.358 26.832 153 33 149c-.02-9.152-5.797-19.616-13.138-24.505"/>
        <path fill="#000" fill-rule="nonzero" d="M34 148.997l.001.545-7.347 4.765-23.126-26.102 5.902-4.379c1.067-1.032 2.077-1.359 4.217-1.665l.345-.05.769-.4.213.3c1.815-.079 3.667.469 5.442 1.652 7.71 5.134 13.564 15.957 13.584 25.334zm-14.692-23.67c-1.587-1.056-3.178-1.464-4.699-1.28l-.18.022-.499.072c-1.774.254-2.458.48-3.147 1.16l-.107.09-4.204 3.12 20.538 23.182 4.982-3.232c-.239-8.585-5.676-18.467-12.684-23.134z"/>
        <path fill="#9595EF" d="M26.999 115.563c.08-5.247-3.175-11.36-7.187-13.672-1.65-.952-3.192-1.113-4.443-.617l-.004-.008-.081.041c-.167.071-.327.156-.483.251L9 104.886 17.814 125l6.25-3.56-.003-.006c1.725-.78 2.89-2.843 2.938-5.871"/>
        <path fill="#000" fill-rule="nonzero" d="M20.312 101.024c4.358 2.513 7.773 8.983 7.686 14.554-.044 2.828-1.006 5.07-2.666 6.27l-.167.115a4.934 4.934 0 0 1-.575.328l-7.246 4.128-9.62-21.954.778-.447 5.778-3.313a4.07 4.07 0 0 1 .545-.286l.944-.488.09.162c1.385-.27 2.922.048 4.453.931zm-1 1.733c-1.357-.783-2.591-.943-3.574-.553l-.095.037a2.974 2.974 0 0 0-.344.184l-5.023 2.881 8.008 18.275 4.504-2.566-.037-.086.898-.406c1.394-.63 2.31-2.4 2.35-4.976.075-4.867-2.978-10.653-6.686-12.79z"/>
        <path fill="#FFF" d="M21.998 118.715c-.083 5.3-3.606 7.7-7.617 5.43-4.011-2.27-7.39-8.568-7.381-13.913.009-5.345 3.502-7.66 7.62-5.325 4.12 2.336 7.462 8.51 7.378 13.808"/>
        <path fill="#000" fill-rule="nonzero" d="M14.127 105.777c-3.448-1.955-6.12-.119-6.127 4.456-.008 4.974 3.172 10.947 6.873 13.042 3.334 1.886 6.054-.026 6.126-4.575.077-4.916-3.059-10.76-6.872-12.923zm-.239 19.239C9.531 122.55 5.991 115.899 6 110.23c.01-6.028 4.256-8.947 9.113-6.193 4.469 2.534 7.974 9.067 7.885 14.694-.094 5.973-4.36 8.972-9.11 6.285z"/>
        <path fill="#FFF" d="M27 153c-.02-9.152-5.79-19.616-13.12-24.505-6.76-4.509-13.253 1.945-12.863 9.184A1034.09 1034.09 0 0 0 27 153"/>
        <path fill="#000" fill-rule="nonzero" d="M28 152.998a1 1 0 0 1-1.495.87A1035.08 1035.08 0 0 1 .496 138.533a1 1 0 0 1-.478-.8c-.46-8.557 7.293-14.82 14.417-10.069C22.134 132.797 27.98 143.62 28 152.998zm-14.675-23.671c-5.44-3.628-11.39.982-11.326 7.779a1032.46 1032.46 0 0 0 23.924 14.127c-.688-8.283-5.931-17.46-12.598-21.906z"/>
        <path fill="#9595EF" d="M115.732 102.497c-1.875-1.238-3.73-1.646-5.426-1.443l-.039-.054-.148.077c-1.612.238-3.073 1.034-4.264 2.2L98 107.332 120.047 132l8.953-4.972c-.02-9.161-5.854-19.638-13.268-24.531"/>
        <path fill="#000" fill-rule="nonzero" d="M116.283 101.662c7.784 5.138 13.697 15.974 13.717 25.364l.001.59-10.167 5.646-23.44-26.227 8.872-4.58c1.306-1.239 2.862-2.055 4.535-2.34l.773-.402.215.3c1.832-.081 3.7.465 5.494 1.649zm-5.858.385l-.15.018c-1.363.201-2.64.87-3.721 1.927l-.107.105-6.84 3.53 20.654 23.11 7.73-4.292c-.26-8.583-5.744-18.45-12.81-23.114-1.604-1.059-3.216-1.468-4.756-1.284z"/>
        <path fill="#9595EF" d="M121.999 93.553c.079-5.244-3.088-11.353-6.99-13.664-1.606-.95-3.106-1.11-4.321-.615l-.005-.01-.078.042a3.749 3.749 0 0 0-.47.25L102 83.9 110.571 104l8.573-4.575-.002-.005c1.677-.779 2.81-2.841 2.857-5.867"/>
        <path fill="#000" fill-rule="nonzero" d="M115.518 79.029c4.244 2.513 7.564 8.977 7.48 14.54-.042 2.797-.961 5.02-2.555 6.228l-.58.377a4.786 4.786 0 0 1-.127.069l-9.657 5.153-9.358-21.948.808-.432 8.077-4.308c.197-.122.394-.228.53-.285l.987-.525.091.184c1.344-.251 2.829.073 4.304.947zm-1.019 1.72c-1.31-.775-2.493-.932-3.434-.549l-.102.041a3.713 3.713 0 0 0-.357.198l-7.327 3.91 7.784 18.255 6.755-3.605.902-.486c1.348-.626 2.24-2.398 2.279-4.975.073-4.87-2.898-10.655-6.5-12.788z"/>
        <path fill="#FFF" d="M113.998 98.716c-.083 5.299-3.606 7.699-7.617 5.43-4.011-2.27-7.39-8.568-7.381-13.915.009-5.344 3.502-7.659 7.62-5.324s7.462 8.51 7.378 13.809"/>
        <path fill="#000" fill-rule="nonzero" d="M112.999 98.7c.077-4.916-3.06-10.76-6.872-12.923-3.448-1.955-6.12-.119-6.127 4.456-.008 4.975 3.172 10.947 6.873 13.042 3.333 1.886 6.054-.026 6.126-4.575zm2 .032c-.095 5.972-4.361 8.97-9.11 6.284C101.53 102.55 97.99 95.9 98 90.23c.01-6.028 4.256-8.947 9.113-6.193 4.468 2.534 7.974 9.067 7.885 14.695z"/>
        <path fill="#FFF" d="M119 132c-.02-9.152-5.789-19.617-13.12-24.505-6.76-4.508-13.253 1.945-12.863 9.184A1032.681 1032.681 0 0 0 119 132"/>
        <path fill="#000" fill-rule="nonzero" d="M120 131.998a1 1 0 0 1-1.495.87 1033.672 1033.672 0 0 1-26.009-15.335 1 1 0 0 1-.478-.8c-.46-8.557 7.292-14.82 14.416-10.07 7.7 5.133 13.546 15.956 13.566 25.335zm-14.675-23.671c-5.44-3.628-11.39.982-11.326 7.78a1030.988 1030.988 0 0 0 23.924 14.126c-.688-8.283-5.931-17.46-12.598-21.906z"/>
    </g>
</svg>
