<svg width="120" height="120" viewBox="0 0 120 120" fill="none" xmlns="http://www.w3.org/2000/svg">
<path d="M38.3203 55.8809V48.0499C38.5965 48.0499 38.8203 47.8261 38.8203 47.5499V44.0176C38.8203 43.1154 38.9794 42.2515 39.2706 41.4517C39.3632 41.1972 39.2363 40.9162 38.9865 40.8164C39.7928 38.9718 41.2746 37.49 43.1192 36.6837C43.219 36.9335 43.4999 37.0605 43.7544 36.9678C44.5543 36.6766 45.4182 36.5176 46.3203 36.5176H49.852C50.1281 36.5176 50.352 36.2937 50.352 36.0176H58.1812C58.1812 36.2937 58.4051 36.5176 58.6812 36.5176H65.7446C66.0207 36.5176 66.2446 36.2937 66.2446 36.0176H74.0738C74.0738 36.2937 74.2977 36.5176 74.5738 36.5176H81.6372C81.9133 36.5176 82.1372 36.2937 82.1372 36.0176H89.9664C89.9664 36.2937 90.1903 36.5176 90.4664 36.5176H93.9981C94.9002 36.5176 95.7641 36.6766 96.5639 36.9678C96.8185 37.0605 97.0994 36.9335 97.1992 36.6837C99.0438 37.49 100.526 38.9718 101.332 40.8164C101.082 40.9162 100.955 41.1972 101.048 41.4517C101.339 42.2515 101.498 43.1154 101.498 44.0176V47.55C101.498 47.8261 101.722 48.05 101.998 48.05V55.8809C101.722 55.8809 101.498 56.1047 101.498 56.3809V63.4456C101.498 63.7218 101.722 63.9456 101.998 63.9456V71.7765C101.722 71.7765 101.498 72.0004 101.498 72.2765V79.3413C101.498 79.6174 101.722 79.8413 101.998 79.8413V87.6722C101.722 87.6722 101.498 87.896 101.498 88.1722V91.7046C101.498 92.6067 101.339 93.4706 101.048 94.2704C100.955 94.525 101.082 94.8059 101.332 94.9057C100.526 96.7503 99.0438 98.2321 97.1992 99.0384C97.0994 98.7886 96.8185 98.6616 96.5639 98.7543C95.7641 99.0455 94.9002 99.2046 93.9981 99.2046H90.4664C90.1903 99.2046 89.9664 99.4284 89.9664 99.7046H82.1372C82.1372 99.4284 81.9133 99.2046 81.6372 99.2046H74.5738C74.2977 99.2046 74.0738 99.4284 74.0738 99.7046H66.2446C66.2446 99.4284 66.0207 99.2046 65.7446 99.2046H58.6812C58.4051 99.2046 58.1812 99.4284 58.1812 99.7046H50.352C50.352 99.4284 50.1281 99.2046 49.852 99.2046H46.3203C45.4182 99.2046 44.5543 99.0455 43.7544 98.7543C43.4999 98.6616 43.219 98.7886 43.1192 99.0384C41.2746 98.2321 39.7928 96.7503 38.9865 94.9057C39.2363 94.8059 39.3632 94.525 39.2706 94.2704C38.9794 93.4706 38.8203 92.6067 38.8203 91.7046V88.1722C38.8203 87.896 38.5965 87.6722 38.3203 87.6722V79.8413C38.5965 79.8413 38.8203 79.6174 38.8203 79.3413V72.2765C38.8203 72.0004 38.5965 71.7765 38.3203 71.7765V63.9456C38.5965 63.9456 38.8203 63.7217 38.8203 63.4456V56.3809C38.8203 56.1047 38.5965 55.8809 38.3203 55.8809Z" fill="#F7F7FE" stroke="black" stroke-linecap="round" stroke-linejoin="round" stroke-dasharray="8 10"/>
<path d="M24.8672 22.0439H92.1336V89.3201H24.8672V22.0439Z" fill="#17D1FC"/>
<path d="M88.2664 23.9103C89.371 23.9103 90.2664 24.8058 90.2664 25.9103V85.4529C90.2664 86.5575 89.371 87.4529 88.2664 87.4529H28.7336C27.629 87.4529 26.7336 86.5575 26.7336 85.4529V25.9103C26.7336 24.8058 27.629 23.9103 28.7336 23.9103H88.2664ZM94 23.9103C94 21.8483 92.3284 20.1768 90.2664 20.1768H26.7336C24.6716 20.1768 23 21.8483 23 23.9103V87.4529C23 89.5149 24.6716 91.1865 26.7336 91.1865H90.2664C92.3284 91.1865 94 89.5149 94 87.4529V23.9103Z" fill="#173647"/>
<path d="M36.5547 58.0892C36.5547 58.0892 40.301 43.4256 57.2202 41.8034C73.948 40.1991 79.1475 38.3622 82.8729 33.002C79.4938 42.84 75.562 49.109 53.8905 50.6504C39.7131 51.6579 36.5547 58.0892 36.5547 58.0892Z" fill="#173647"/>
<path d="M62.6658 66.9248C58.8926 68.8671 52.7867 67.5276 46.6119 67.7281C37.5614 68.0227 37.625 70.6083 37.625 70.6083C37.625 70.6083 45.3083 84.2726 62.6658 66.9248Z" fill="#173647"/>
<path d="M36.4061 66.5079C36.4061 66.5079 35.7988 56.895 49.9904 55.7873C66.4729 54.5017 71.9618 52.4419 74.4584 49.5752C72.6529 58.702 66.2194 64.1101 52.6538 63.5282C37.249 62.8663 36.4061 66.5079 36.4061 66.5079Z" fill="#173647"/>
</svg>
