<svg xmlns="http://www.w3.org/2000/svg" width="103" height="80" viewBox="0 0 103 80">
  <g fill="none" fill-rule="evenodd">
    <path fill="#9595EF" fill-opacity=".078" d="M39.9830446,72.6258601 L29.8850611,76.5243177 C29.4254813,76.7017444 28.9370799,76.7927481 28.4444402,76.7927481 C26.2353012,76.7927481 24.4444402,75.0018871 24.4444402,72.7927481 L24.4444402,64.891026 L15.5157593,54.62309 L31.7984347,48.5173982 C36.5965982,41.17989 45.9455097,34.1595146 57.7865835,29.8497162 C77.7550606,22.5817849 97.2492341,25.7745639 101.328039,36.9809876 C105.406843,48.1874114 92.5257189,63.1638351 72.5572419,70.4317664 C60.3992233,74.8569233 48.4170345,75.4041776 39.9830446,72.6258601 Z"/>
    <path fill="#000" fill-rule="nonzero" d="M39.802967,72.1594139 C40.0605781,72.0599598 40.3500366,72.1881714 40.4494908,72.4457825 C40.5489449,72.7033936 40.4207333,72.9928522 40.1631222,73.0923063 L32.699983,75.973548 C32.4423719,76.0730021 32.1529133,75.9447906 32.0534592,75.6871794 C31.9540051,75.4295683 32.0822167,75.1401097 32.3398278,75.0406556 L39.802967,72.1594139 Z M24.9657252,73.1813443 C24.9959947,73.4558227 24.7980243,73.7028696 24.523546,73.7331392 C24.2490676,73.7634087 24.0020206,73.5654383 23.9717511,73.29096 C23.9548641,73.1378318 23.9457694,72.983361 23.9445607,72.8241349 L23.9444402,65.2054885 C23.9444358,64.9293461 24.1682899,64.705485 24.4444323,64.7054806 C24.7205747,64.7054762 24.9444358,64.9293303 24.9444402,65.2054727 L24.944546,72.8202854 C24.9454781,72.9416041 24.9525697,73.0620532 24.9657252,73.1813443 Z M18.4662769,57.2541841 C18.6474761,57.4625623 18.6254433,57.7783772 18.4170651,57.9595764 C18.208687,58.1407756 17.8928721,58.1187427 17.7116729,57.9103646 L14.6659212,54.4077661 L19.1590422,52.7229317 C19.417604,52.625976 19.7058079,52.7569836 19.8027636,53.0155454 C19.8997194,53.2741072 19.7687118,53.5623111 19.51015,53.6592668 L16.3655974,54.8384138 L18.4662769,57.2541841 Z M34.2719414,44.4644434 C34.4542653,44.2570485 34.7701947,44.2367245 34.9775896,44.4190483 C35.1849844,44.6013722 35.2053085,44.9173016 35.0229846,45.1246965 C33.9614178,46.3322372 33.0229616,47.5583971 32.2169049,48.7910453 L32.1272958,48.9280785 L28.8735006,50.1481894 C28.6149389,50.2451451 28.326735,50.1141375 28.2297792,49.8555757 C28.1328235,49.597014 28.2638311,49.3088101 28.5223929,49.2118543 L31.4702973,48.1064466 C32.2822557,46.8797005 33.2190317,45.6621365 34.2719414,44.4644434 Z M42.3693769,38.5079757 C42.1463002,38.6707375 41.8335163,38.6218427 41.6707545,38.3987661 C41.5079926,38.1756894 41.5568875,37.8629055 41.7799641,37.7001437 C43.8882554,36.1618859 46.1769544,34.7233009 48.6119145,33.4093091 C48.8549307,33.2781689 49.1582444,33.3688622 49.2893846,33.6118784 C49.4205248,33.8548945 49.3298315,34.1582082 49.0868153,34.2893485 C46.6912,35.5821084 44.4407768,36.9966348 42.3693769,38.5079757 Z M58.1517952,30.2492054 C57.8920268,30.3428802 57.6055044,30.2082348 57.5118296,29.9484664 C57.4181547,29.688698 57.5528001,29.4021756 57.8125685,29.3085007 C60.3795246,28.3828329 62.9657631,27.6186799 65.5412653,27.0212407 C65.8102651,26.9588408 66.0789175,27.1263231 66.1413174,27.3953229 C66.2037173,27.6643226 66.036235,27.9329751 65.7672352,27.995375 C63.2302017,28.5838906 60.6817774,29.3368707 58.1517952,30.2492054 Z M75.5762496,26.5458405 C75.3006046,26.5624064 75.0637208,26.3523814 75.0471548,26.0767364 C75.0305888,25.8010913 75.2406138,25.5642075 75.5162589,25.5476415 C78.3351136,25.3782312 81.0488159,25.4368037 83.6002576,25.7205348 C83.8747082,25.7510548 84.072453,25.9982824 84.0419329,26.272733 C84.0114128,26.5471836 83.7641853,26.7449284 83.4897347,26.7144083 C80.9962142,26.4371184 78.3394511,26.3797749 75.5762496,26.5458405 Z M92.9858662,29.2324422 C92.7360785,29.1147108 92.6290256,28.8167776 92.746757,28.5669899 C92.8644884,28.3172021 93.1624215,28.2101492 93.4122093,28.3278806 C96.134341,29.6108911 98.3246784,31.2945157 99.8834602,33.3303582 C100.051336,33.5496121 100.009686,33.8634429 99.7904321,34.0313188 C99.5711782,34.1991948 99.2573475,34.1575447 99.0894715,33.9382908 C97.6331364,32.0362484 95.5700421,30.4504305 92.9858662,29.2324422 Z M101.472709,43.049875 C101.507013,42.7758717 101.756946,42.5815576 102.03095,42.6158624 C102.304953,42.6501671 102.499267,42.9001001 102.464962,43.1741033 C102.150365,45.6869024 101.204831,48.2884552 99.6779042,50.8873365 C99.5380189,51.1254262 99.2316095,51.2050365 98.9935199,51.0651511 C98.7554302,50.9252657 98.6758199,50.6188564 98.8157053,50.3807667 C100.276903,47.8937587 101.175965,45.4200683 101.472709,43.049875 Z M92.601983,57.9562784 C92.8034335,57.7674073 93.1198517,57.777605 93.3087228,57.9790556 C93.4975939,58.1805062 93.4873961,58.4969244 93.2859456,58.6857954 C91.4036782,60.4505252 89.2815594,62.1364141 86.9593029,63.7092118 C86.7306638,63.8640625 86.4197838,63.8042452 86.264933,63.575606 C86.1100823,63.3469669 86.1698996,63.0360869 86.3985388,62.8812362 C88.6779748,61.3374396 90.7588595,59.6843085 92.601983,57.9562784 Z M77.7526662,67.7473915 C78.0031665,67.6311838 78.300442,67.7400494 78.4166497,67.9905497 C78.5328574,68.24105 78.4239918,68.5383255 78.1734915,68.6545332 C76.4111076,69.4721075 74.5927274,70.2229991 72.7282519,70.9016127 C72.0565927,71.1460767 71.3833718,71.3795519 70.7090887,71.6019368 C70.4468412,71.6884285 70.1641321,71.5459503 70.0776404,71.2837027 C69.9911487,71.0214551 70.1336269,70.738746 70.3958745,70.6522543 C71.0605043,70.4330531 71.7241222,70.2029083 72.3862318,69.9619201 C74.2240175,69.2930208 76.0161046,68.5529867 77.7526662,67.7473915 Z M60.7585231,73.0489367 C61.0308769,73.0033519 61.2886172,73.1871845 61.334202,73.4595384 C61.3797868,73.7318923 61.1959541,73.9896325 60.9236003,74.0352173 C58.1815095,74.4941706 55.4881514,74.7546243 52.8894099,74.8148334 C52.6133416,74.8212295 52.384359,74.602617 52.3779629,74.3265487 C52.3715668,74.0504804 52.5901793,73.8214978 52.8662476,73.8151017 C55.4167724,73.7560097 58.0627472,73.500138 60.7585231,73.0489367 Z M43.0492044,72.9442725 C43.3188561,73.0037921 43.4892018,73.2706382 43.4296821,73.5402898 C43.3701625,73.8099415 43.1033164,73.9802872 42.8336648,73.9207676 C41.7932464,73.6911183 40.793449,73.4187748 39.8385454,73.104687 L39.8267114,73.1007916 C39.5644139,73.0144512 39.4217726,72.7318243 39.5081131,72.4695269 C39.5944535,72.2072295 39.8770803,72.0645882 40.1393778,72.1509286 L40.1511051,72.1547889 C41.0735526,72.4582012 42.0410221,72.7217386 43.0492044,72.9442725 Z"/>
    <path fill="#FDBD39" d="M15.7810922,55 L10.2921065,56.9690844 L10,73 L29,66.1852556 C22.4777421,64.0406659 17.7212024,60.2608799 15.7810922,55"/>
    <path fill="#F69833" d="M19,38 L0,44.8575305 L10.6589609,57 L16.1341268,55.0235188 C14.2032502,49.7600633 15.3948272,43.8177295 19,38"/>
    <path fill="#FECF33" d="M48.3289427,16.4723292 C25.1000105,24.8310978 10.1220886,42.0833989 14.8822868,55 L99,24.7282587 C94.2398018,11.8116575 71.5578748,8.11356057 48.3289427,16.4723292"/>
    <path fill="#EE6723" d="M65.6667616,63.5102452 C88.8937245,55.1552571 103.895428,37.9888816 99.110582,25 L15,55.2539381 C19.7848462,68.2469314 42.4397987,71.8652333 65.6667616,63.5102452"/>
    <path fill="#F69833" d="M99.5899513,23 L16,54.1301347 C17.6349504,58.732606 23.8801289,61 32.6358278,61 C41.1757464,61 52.1058462,58.8468218 63.5007036,54.6039185 C86.5850413,46.0081265 102.822506,32.0864967 99.5899513,23"/>
    <path fill="#FDBD39" d="M82.3608446,18 C73.8254973,18 62.8917879,20.1534179 51.4974934,24.3967936 C28.414296,32.9935426 12.1776339,46.9124916 15.4100284,56 L99,24.8663995 C97.3609809,20.2634157 91.1202603,18 82.3608446,18"/>
    <g fill="#EE6723" transform="translate(32)">
      <path fill-rule="nonzero" d="M45.7082694,73.467013 C43.2311168,73.467013 39.5801364,71.2436364 34.8514066,66.8550649 C29.257971,61.6644156 22.8541347,54.0592208 16.8095482,45.4441558 C10.769139,36.8290909 5.80647911,28.2181818 2.83222506,21.1906494 C-0.405200341,13.5355844 -0.868883205,8.83116883 1.45788576,7.20207792 C1.99676044,6.83636364 2.63589088,6.64935065 3.28755328,6.66597403 C5.17988065,6.66597403 8.87263427,8.06649351 15.6942029,14.7490909 L15.8445865,14.8945455 L15.8236999,15.1023377 C15.7777494,15.5844156 15.7359761,16.0664935 15.6983802,16.5444156 L15.6231884,17.4877922 L14.9548167,16.8187013 C7.60272805,9.45038961 4.36947997,8.65662338 3.31679454,8.65662338 C3.01602728,8.65662338 2.77791986,8.71480519 2.60664962,8.83532468 C1.59573743,9.54181818 1.52890026,12.9994805 4.67024723,20.4176623 C7.59019608,27.3163636 12.4818414,35.7984416 18.4428815,44.3012987 C24.4080989,52.8083117 30.7158568,60.2971429 36.213214,65.3963636 C42.1366581,70.8945455 44.8059676,71.4888312 45.6790281,71.4888312 C45.9797954,71.4888312 46.2220801,71.4264935 46.4058824,71.2976623 C47.4710997,70.5537662 47.4710997,66.8509091 43.970503,58.8633766 L43.8075874,58.4976623 L44.1584825,58.3064935 C44.5093777,58.1153247 44.8519182,57.9283117 45.1693947,57.7454545 L45.5913043,57.5085714 L45.7876385,57.9490909 C48.2689685,63.6093506 50.5915601,70.8031169 47.5462916,72.9309091 C47.0074169,73.2966234 46.3641091,73.4836364 45.7082694,73.467013 Z M45.7373828,72.5942857 L45.7373828,73.0306494 L45.7373828,72.5942857 Z"/>
      <path d="M34.2080989,63.2685714 L34.1746803,63.7007792 C33.5856777,70.9319481 32.0400682,79.625974 28.0047741,79.9792208 C27.9212276,79.9875325 27.8376812,79.9875325 27.758312,79.9875325 C25.0179881,79.9875325 22.4238704,76.081039 20.0553282,68.3802597 C17.8079284,61.0909091 16.0659847,51.3080519 15.1511509,40.8311688 C14.2321398,30.3542857 14.2446718,20.4176623 15.1887468,12.8498701 C16.2163683,4.60467532 18.1713555,0.299220779 21.0035806,0.0498701299 C21.087127,0.0415584416 21.1748508,0.0374025974 21.2583973,0.0374025974 C23.2468031,0.0374025974 26.2419437,2.2774026 29.3080989,12.7085714 L27.3071611,13.0909091 C26.283717,9.60831169 25.1683717,6.77402597 24.0613811,4.82077922 C23.0379369,3.0212987 22.0395567,2.02805195 21.2583973,2.02805195 C21.2333333,2.02805195 21.2082694,2.02805195 21.1790281,2.03220779 C19.9508951,2.14025974 18.1630009,5.09922078 17.168798,13.0950649 C16.2414322,20.5257143 16.2289003,30.3168831 17.1353794,40.6566234 C18.0418585,51.0005195 19.754561,60.6379221 21.9601876,67.7942857 C22.9460358,70.9984416 24.0279625,73.6415584 25.0931799,75.4327273 C26.0706735,77.0867532 27.0189258,77.9968831 27.758312,77.9968831 C27.783376,77.9968831 27.8084399,77.9968831 27.8335038,77.9927273 C29.0073316,77.892987 31.2213129,74.8093506 32.1528559,63.9667532 L34.2080989,63.2685714 Z"/>
    </g>
  </g>
</svg>
