<svg xmlns="http://www.w3.org/2000/svg" width="288" height="559" viewBox="0 0 288 559">
    <g fill="none" fill-rule="evenodd" stroke="#000" opacity=".482">
        <path d="M834.773 254.595C773.818 194.435 664.943 70.07 526.41 86.478c-138.533 16.407-206.883 129.433-254.9 196.885C223.493 350.814 314.263 524 534.068 524c146.537 0 249.18-17.364 307.932-52.092" opacity=".245"/>
        <path d="M842 219.108C767.29 146.211 630.557-.042 460.76 19.84 290.964 39.72 207.188 176.68 148.334 258.412 89.48 340.145 200.734 550 470.146 550c179.607 0 303.559-20.165 371.854-60.496" opacity=".245"/>
        <path d="M835 172.268C744.1 90.235 606.373-48.971 399.783-26.598 193.193-4.226 91.264 149.895 19.657 241.87-51.95 333.846 83.412 570 411.202 570 629.73 570 770.995 551.77 835 515.312" opacity=".245"/>
    </g>
</svg>
