<svg width="155" height="60" viewBox="0 0 155 60" fill="none" xmlns="http://www.w3.org/2000/svg">
<path d="M140.197 50H14.729C12.122 50 10 47.872 10 45.267V14.726C10 12.12 12.122 10 14.729 10H140.197C142.803 10 145 12.12 145 14.726V45.267C145 47.872 142.803 50 140.197 50Z" fill="#A6A6A6"/>
<path d="M144.032 45.2681C144.032 47.3841 142.318 49.0981 140.198 49.0981H14.729C12.61 49.0981 10.89 47.3841 10.89 45.2681V14.7251C10.89 12.6101 12.61 10.8901 14.729 10.8901H140.197C142.318 10.8901 144.031 12.6101 144.031 14.7251L144.032 45.2681Z" fill="black"/>
<path d="M40.128 29.7837C40.099 26.5607 42.767 24.9927 42.889 24.9197C41.378 22.7167 39.036 22.4157 38.213 22.3917C36.246 22.1847 34.338 23.5687 33.336 23.5687C32.314 23.5687 30.771 22.4117 29.108 22.4457C26.968 22.4787 24.966 23.7177 23.868 25.6417C21.602 29.5647 23.292 35.3297 25.463 38.5007C26.549 40.0537 27.818 41.7877 29.479 41.7267C31.104 41.6597 31.711 40.6907 33.672 40.6907C35.615 40.6907 36.185 41.7267 37.879 41.6877C39.623 41.6597 40.721 40.1277 41.769 38.5607C43.024 36.7807 43.528 35.0277 43.548 34.9377C43.507 34.9237 40.161 33.6467 40.128 29.7837Z" fill="white"/>
<path d="M36.928 20.3058C37.802 19.2128 38.4 17.7258 38.234 16.2168C36.969 16.2728 35.387 17.0918 34.476 18.1608C33.67 19.1028 32.95 20.6468 33.136 22.0988C34.557 22.2048 36.016 21.3818 36.928 20.3058Z" fill="white"/>
<path d="M63.645 41.5038H61.374L60.13 37.5948H55.806L54.621 41.5038H52.41L56.694 28.1958H59.34L63.645 41.5038ZM59.755 35.9548L58.63 32.4798C58.511 32.1248 58.288 31.2888 57.959 29.9728H57.919C57.788 30.5388 57.577 31.3748 57.287 32.4798L56.182 35.9548H59.755Z" fill="white"/>
<path d="M74.662 36.5879C74.662 38.2199 74.221 39.5099 73.339 40.4569C72.549 41.2999 71.568 41.7209 70.397 41.7209C69.133 41.7209 68.225 41.2669 67.672 40.3589H67.632V45.4139H65.5V35.0669C65.5 34.0409 65.473 32.9879 65.421 31.9079H67.296L67.415 33.4289H67.455C68.166 32.2829 69.245 31.7109 70.693 31.7109C71.825 31.7109 72.77 32.1579 73.526 33.0529C74.284 33.9489 74.662 35.1269 74.662 36.5879ZM72.49 36.6659C72.49 35.7319 72.28 34.9619 71.858 34.3559C71.397 33.7239 70.778 33.4079 70.002 33.4079C69.476 33.4079 68.998 33.5839 68.571 33.9309C68.143 34.2809 67.863 34.7379 67.732 35.3039C67.666 35.5679 67.633 35.7839 67.633 35.9539V37.5539C67.633 38.2519 67.847 38.8409 68.275 39.3219C68.703 39.8029 69.259 40.0429 69.943 40.0429C70.746 40.0429 71.371 39.7329 71.818 39.1149C72.266 38.4959 72.49 37.6799 72.49 36.6659Z" fill="white"/>
<path d="M85.699 36.5879C85.699 38.2199 85.258 39.5099 84.375 40.4569C83.586 41.2999 82.605 41.7209 81.434 41.7209C80.17 41.7209 79.262 41.2669 78.71 40.3589H78.67V45.4139H76.538V35.0669C76.538 34.0409 76.511 32.9879 76.459 31.9079H78.334L78.453 33.4289H78.493C79.203 32.2829 80.282 31.7109 81.731 31.7109C82.862 31.7109 83.807 32.1579 84.565 33.0529C85.32 33.9489 85.699 35.1269 85.699 36.5879ZM83.527 36.6659C83.527 35.7319 83.316 34.9619 82.894 34.3559C82.433 33.7239 81.816 33.4079 81.039 33.4079C80.512 33.4079 80.035 33.5839 79.607 33.9309C79.179 34.2809 78.9 34.7379 78.769 35.3039C78.704 35.5679 78.67 35.7839 78.67 35.9539V37.5539C78.67 38.2519 78.884 38.8409 79.31 39.3219C79.738 39.8019 80.294 40.0429 80.98 40.0429C81.783 40.0429 82.408 39.7329 82.855 39.1149C83.303 38.4959 83.527 37.6799 83.527 36.6659Z" fill="white"/>
<path d="M98.039 37.772C98.039 38.904 97.646 39.825 96.857 40.536C95.99 41.313 94.783 41.701 93.232 41.701C91.8 41.701 90.652 41.425 89.783 40.872L90.277 39.095C91.213 39.661 92.24 39.945 93.359 39.945C94.162 39.945 94.787 39.763 95.236 39.401C95.683 39.039 95.906 38.553 95.906 37.947C95.906 37.407 95.722 36.952 95.353 36.583C94.986 36.214 94.373 35.871 93.517 35.554C91.187 34.685 90.023 33.412 90.023 31.738C90.023 30.644 90.431 29.747 91.248 29.049C92.062 28.35 93.148 28.001 94.506 28.001C95.717 28.001 96.723 28.212 97.526 28.633L96.993 30.371C96.243 29.963 95.395 29.759 94.446 29.759C93.696 29.759 93.11 29.944 92.69 30.312C92.335 30.641 92.157 31.042 92.157 31.517C92.157 32.043 92.36 32.478 92.768 32.82C93.123 33.136 93.768 33.478 94.704 33.847C95.849 34.308 96.69 34.847 97.231 35.465C97.77 36.081 98.039 36.852 98.039 37.772Z" fill="white"/>
<path d="M105.088 33.5081H102.738V38.1671C102.738 39.3521 103.152 39.9441 103.982 39.9441C104.363 39.9441 104.679 39.9111 104.929 39.8451L104.988 41.4641C104.568 41.6211 104.015 41.7001 103.33 41.7001C102.488 41.7001 101.83 41.4431 101.355 40.9301C100.882 40.4161 100.644 39.5541 100.644 38.3431V33.5061H99.244V31.9061H100.644V30.1491L102.738 29.5171V31.9061H105.088V33.5081Z" fill="white"/>
<path d="M115.691 36.6269C115.691 38.1019 115.269 39.3129 114.427 40.2599C113.544 41.2349 112.372 41.7209 110.911 41.7209C109.503 41.7209 108.382 41.2539 107.546 40.3199C106.71 39.3859 106.292 38.2069 106.292 36.7859C106.292 35.2989 106.722 34.0809 107.585 33.1339C108.446 32.1859 109.608 31.7119 111.069 31.7119C112.477 31.7119 113.61 32.1789 114.465 33.1139C115.283 34.0209 115.691 35.1919 115.691 36.6269ZM113.479 36.6959C113.479 35.8109 113.29 35.0519 112.907 34.4189C112.46 33.6529 111.821 33.2709 110.993 33.2709C110.136 33.2709 109.485 33.6539 109.038 34.4189C108.655 35.0529 108.466 35.8239 108.466 36.7359C108.466 37.6209 108.655 38.3799 109.038 39.0119C109.499 39.7779 110.143 40.1599 110.974 40.1599C111.788 40.1599 112.427 39.7699 112.888 38.9919C113.281 38.3469 113.479 37.5799 113.479 36.6959Z" fill="white"/>
<path d="M122.621 33.7829C122.41 33.7439 122.185 33.7239 121.949 33.7239C121.199 33.7239 120.619 34.0069 120.211 34.5739C119.856 35.0739 119.678 35.7059 119.678 36.4689V41.5039H117.547L117.567 34.9299C117.567 33.8239 117.54 32.8169 117.487 31.9089H119.344L119.422 33.7449H119.481C119.706 33.1139 120.061 32.6059 120.547 32.2249C121.022 31.8819 121.535 31.7109 122.088 31.7109C122.285 31.7109 122.463 31.7249 122.621 31.7499V33.7829Z" fill="white"/>
<path d="M132.156 36.2519C132.156 36.6339 132.131 36.9559 132.078 37.2189H125.682C125.707 38.1669 126.016 38.8919 126.61 39.3919C127.149 39.8389 127.846 40.0629 128.702 40.0629C129.649 40.0629 130.513 39.9119 131.29 39.6089L131.624 41.0889C130.716 41.4849 129.644 41.6819 128.407 41.6819C126.919 41.6819 125.751 41.2439 124.901 40.3689C124.053 39.4939 123.628 38.3189 123.628 36.8449C123.628 35.3979 124.023 34.1929 124.814 33.2319C125.642 32.2059 126.761 31.6929 128.169 31.6929C129.552 31.6929 130.599 32.2059 131.31 33.2319C131.873 34.0469 132.156 35.0549 132.156 36.2519ZM130.123 35.6989C130.137 35.0669 129.998 34.5209 129.709 34.0599C129.34 33.4669 128.773 33.1709 128.01 33.1709C127.313 33.1709 126.746 33.4599 126.313 34.0399C125.958 34.5009 125.747 35.0539 125.682 35.6979H130.123V35.6989Z" fill="white"/>
<path d="M59.05 20.0092C59.05 21.1862 58.697 22.0722 57.992 22.6672C57.339 23.2162 56.411 23.4912 55.209 23.4912C54.613 23.4912 54.103 23.4652 53.676 23.4132V16.9822C54.233 16.8922 54.833 16.8462 55.481 16.8462C56.626 16.8462 57.489 17.0952 58.071 17.5932C58.723 18.1562 59.05 18.9612 59.05 20.0092ZM57.945 20.0382C57.945 19.2752 57.743 18.6902 57.339 18.2822C56.935 17.8752 56.345 17.6712 55.568 17.6712C55.238 17.6712 54.957 17.6932 54.724 17.7392V22.6282C54.853 22.6482 55.089 22.6572 55.432 22.6572C56.234 22.6572 56.853 22.4342 57.289 21.9882C57.725 21.5422 57.945 20.8922 57.945 20.0382Z" fill="white"/>
<path d="M64.909 21.037C64.909 21.762 64.702 22.356 64.288 22.822C63.854 23.301 63.279 23.54 62.561 23.54C61.869 23.54 61.318 23.311 60.907 22.851C60.497 22.392 60.292 21.813 60.292 21.115C60.292 20.385 60.503 19.786 60.927 19.321C61.351 18.856 61.921 18.623 62.639 18.623C63.331 18.623 63.887 18.852 64.308 19.311C64.708 19.757 64.909 20.333 64.909 21.037ZM63.822 21.071C63.822 20.636 63.728 20.263 63.541 19.952C63.321 19.576 63.008 19.388 62.601 19.388C62.18 19.388 61.86 19.576 61.64 19.952C61.452 20.263 61.359 20.642 61.359 21.09C61.359 21.525 61.453 21.898 61.64 22.209C61.867 22.585 62.183 22.773 62.591 22.773C62.991 22.773 63.305 22.582 63.531 22.199C63.725 21.882 63.822 21.506 63.822 21.071Z" fill="white"/>
<path d="M72.765 18.7192L71.29 23.4332H70.33L69.719 21.3862C69.564 20.8752 69.438 20.3672 69.34 19.8632H69.321C69.23 20.3812 69.104 20.8882 68.942 21.3862L68.293 23.4332H67.322L65.935 18.7192H67.012L67.545 20.9602C67.674 21.4902 67.78 21.9952 67.865 22.4732H67.884C67.962 22.0792 68.091 21.5772 68.273 20.9702L68.942 18.7202H69.796L70.437 20.9222C70.592 21.4592 70.718 21.9762 70.815 22.4742H70.844C70.915 21.9892 71.022 21.4722 71.164 20.9222L71.736 18.7202H72.765V18.7192Z" fill="white"/>
<path d="M78.198 23.4331H77.15V20.7331C77.15 19.9011 76.834 19.4851 76.2 19.4851C75.889 19.4851 75.638 19.5991 75.443 19.8281C75.25 20.0571 75.152 20.3271 75.152 20.6361V23.4321H74.104V20.0661C74.104 19.6521 74.091 19.2031 74.066 18.7171H74.987L75.036 19.4541H75.065C75.187 19.2251 75.369 19.0361 75.608 18.8851C75.892 18.7091 76.21 18.6201 76.558 18.6201C76.998 18.6201 77.364 18.7621 77.655 19.0471C78.017 19.3961 78.198 19.9171 78.198 20.6091V23.4331Z" fill="white"/>
<path d="M81.088 23.4332H80.041V16.5562H81.088V23.4332Z" fill="white"/>
<path d="M87.258 21.037C87.258 21.762 87.051 22.356 86.637 22.822C86.203 23.301 85.627 23.54 84.91 23.54C84.217 23.54 83.666 23.311 83.256 22.851C82.846 22.392 82.641 21.813 82.641 21.115C82.641 20.385 82.852 19.786 83.276 19.321C83.7 18.856 84.27 18.623 84.987 18.623C85.68 18.623 86.235 18.852 86.657 19.311C87.057 19.757 87.258 20.333 87.258 21.037ZM86.17 21.071C86.17 20.636 86.076 20.263 85.889 19.952C85.67 19.576 85.356 19.388 84.95 19.388C84.528 19.388 84.208 19.576 83.989 19.952C83.801 20.263 83.708 20.642 83.708 21.09C83.708 21.525 83.802 21.898 83.989 22.209C84.216 22.585 84.532 22.773 84.94 22.773C85.34 22.773 85.653 22.582 85.879 22.199C86.074 21.882 86.17 21.506 86.17 21.071Z" fill="white"/>
<path d="M92.33 23.433H91.389L91.311 22.89H91.282C90.96 23.323 90.501 23.54 89.905 23.54C89.46 23.54 89.1 23.397 88.829 23.113C88.583 22.855 88.46 22.534 88.46 22.153C88.46 21.577 88.7 21.138 89.183 20.834C89.665 20.53 90.343 20.381 91.216 20.388V20.3C91.216 19.679 90.89 19.369 90.237 19.369C89.772 19.369 89.362 19.486 89.008 19.718L88.795 19.03C89.233 18.759 89.774 18.623 90.412 18.623C91.644 18.623 92.262 19.273 92.262 20.573V22.309C92.262 22.78 92.285 23.155 92.33 23.433ZM91.242 21.813V21.086C90.086 21.066 89.508 21.383 89.508 22.036C89.508 22.282 89.574 22.466 89.709 22.589C89.844 22.712 90.016 22.773 90.221 22.773C90.451 22.773 90.666 22.7 90.862 22.555C91.059 22.409 91.18 22.224 91.225 21.997C91.236 21.946 91.242 21.884 91.242 21.813Z" fill="white"/>
<path d="M98.285 23.4332H97.355L97.306 22.6762H97.277C96.98 23.2522 96.474 23.5402 95.763 23.5402C95.195 23.5402 94.722 23.3172 94.347 22.8712C93.972 22.4252 93.785 21.8462 93.785 21.1352C93.785 20.3722 93.988 19.7542 94.396 19.2822C94.791 18.8422 95.275 18.6222 95.851 18.6222C96.484 18.6222 96.927 18.8352 97.179 19.2622H97.199V16.5562H98.248V22.1632C98.248 22.6222 98.26 23.0452 98.285 23.4332ZM97.199 21.4452V20.6592C97.199 20.5232 97.189 20.4132 97.17 20.3292C97.111 20.0772 96.984 19.8652 96.791 19.6942C96.596 19.5232 96.361 19.4372 96.09 19.4372C95.699 19.4372 95.393 19.5922 95.168 19.9032C94.945 20.2142 94.832 20.6112 94.832 21.0962C94.832 21.5622 94.939 21.9402 95.154 22.2312C95.381 22.5412 95.687 22.6962 96.07 22.6962C96.414 22.6962 96.689 22.5672 96.898 22.3082C97.1 22.0692 97.199 21.7812 97.199 21.4452Z" fill="white"/>
<path d="M107.248 21.037C107.248 21.762 107.041 22.356 106.627 22.822C106.193 23.301 105.619 23.54 104.9 23.54C104.209 23.54 103.658 23.311 103.246 22.851C102.836 22.392 102.631 21.813 102.631 21.115C102.631 20.385 102.842 19.786 103.266 19.321C103.69 18.856 104.26 18.623 104.979 18.623C105.67 18.623 106.227 18.852 106.647 19.311C107.047 19.757 107.248 20.333 107.248 21.037ZM106.162 21.071C106.162 20.636 106.068 20.263 105.881 19.952C105.66 19.576 105.348 19.388 104.94 19.388C104.52 19.388 104.2 19.576 103.979 19.952C103.791 20.263 103.698 20.642 103.698 21.09C103.698 21.525 103.792 21.898 103.979 22.209C104.206 22.585 104.522 22.773 104.93 22.773C105.33 22.773 105.645 22.582 105.871 22.199C106.064 21.882 106.162 21.506 106.162 21.071Z" fill="white"/>
<path d="M112.883 23.4331H111.836V20.7331C111.836 19.9011 111.52 19.4851 110.885 19.4851C110.574 19.4851 110.323 19.5991 110.129 19.8281C109.935 20.0571 109.838 20.3271 109.838 20.6361V23.4321H108.789V20.0661C108.789 19.6521 108.777 19.2031 108.752 18.7171H109.672L109.721 19.4541H109.75C109.873 19.2251 110.055 19.0361 110.293 18.8851C110.578 18.7091 110.895 18.6201 111.244 18.6201C111.683 18.6201 112.049 18.7621 112.34 19.0471C112.703 19.3961 112.883 19.9171 112.883 20.6091V23.4331Z" fill="white"/>
<path d="M119.936 19.5039H118.782V21.7939C118.782 22.3759 118.987 22.6669 119.393 22.6669C119.581 22.6669 119.737 22.6509 119.86 22.6179L119.887 23.4129C119.68 23.4909 119.408 23.5299 119.073 23.5299C118.659 23.5299 118.337 23.4039 118.104 23.1519C117.87 22.8999 117.754 22.4759 117.754 21.8809V19.5039H117.065V18.7189H117.754V17.8549L118.781 17.5449V18.7179H119.935V19.5039H119.936Z" fill="white"/>
<path d="M125.484 23.4332H124.435V20.7532C124.435 19.9082 124.119 19.4852 123.486 19.4852C123 19.4852 122.668 19.7302 122.486 20.2202C122.455 20.3232 122.437 20.4492 122.437 20.5972V23.4322H121.39V16.5562H122.437V19.3972H122.457C122.787 18.8802 123.26 18.6222 123.873 18.6222C124.307 18.6222 124.666 18.7642 124.951 19.0492C125.306 19.4042 125.484 19.9322 125.484 20.6302V23.4332Z" fill="white"/>
<path d="M131.207 20.8533C131.207 21.0413 131.193 21.1993 131.168 21.3283H128.025C128.039 21.7943 128.189 22.1493 128.48 22.3953C128.746 22.6153 129.089 22.7253 129.509 22.7253C129.974 22.7253 130.398 22.6513 130.78 22.5023L130.944 23.2303C130.497 23.4243 129.971 23.5213 129.362 23.5213C128.632 23.5213 128.057 23.3063 127.641 22.8763C127.223 22.4463 127.016 21.8693 127.016 21.1453C127.016 20.4343 127.209 19.8423 127.598 19.3703C128.004 18.8663 128.553 18.6143 129.246 18.6143C129.924 18.6143 130.439 18.8663 130.787 19.3703C131.068 19.7703 131.207 20.2653 131.207 20.8533ZM130.207 20.5823C130.215 20.2713 130.146 20.0033 130.004 19.7773C129.822 19.4863 129.545 19.3403 129.17 19.3403C128.828 19.3403 128.549 19.4823 128.336 19.7673C128.162 19.9943 128.059 20.2653 128.025 20.5823H130.207Z" fill="white"/>
</svg>
