<svg width="1440" height="1279" viewBox="0 0 1440 1279" fill="none" xmlns="http://www.w3.org/2000/svg">
<path opacity="0.110451" d="M-443.081 559.214C-290.512 430.931 -59.348 213.238 287.398 248.225C634.145 283.211 805.224 524.228 925.411 668.061C1045.6 811.893 818.403 1181.19 268.232 1181.19C-281.939 1181.19 -443.081 1095.67 -443.081 1095.67" stroke="black"/>
<path opacity="0.110451" d="M-444.229 482.36C-257.26 326.895 26.0257 63.0745 450.955 105.474C875.884 147.874 1085.54 439.961 1232.82 614.27C1380.11 788.58 1101.69 1236.13 427.467 1236.13C-246.754 1236.13 -444.229 1132.49 -444.229 1132.49" stroke="black"/>
<path opacity="0.110451" d="M-484.431 430.09C-256.96 255.208 87.6914 -41.5604 604.669 6.1346C1121.65 53.8295 1376.72 382.395 1555.91 578.474C1735.1 774.553 1396.36 1278 576.093 1278C-244.178 1278 -484.431 1161.41 -484.431 1161.41" stroke="black"/>
<path fill-rule="evenodd" clip-rule="evenodd" d="M375.85 373.198C401.55 371.528 426.983 380.369 450.88 401.136C494.29 438.862 532.605 502.473 511.192 542.276C495.689 571.096 470.085 592.696 441.202 609.116C415.164 623.919 383.077 640.29 347.79 639.8C325.73 639.496 300.66 632.177 279.882 616.431C261.006 602.124 247.191 582.068 238.838 562.185C207.788 488.278 215.997 392.238 294.658 382.793C305.509 381.491 316.444 379.955 327.432 378.473C343.491 376.305 359.662 374.25 375.85 373.198Z" fill="#F6F6FB"/>
<path fill-rule="evenodd" clip-rule="evenodd" d="M1153.91 860.426C1150.29 877.219 1139.97 891.921 1122.28 903.458C1090.14 924.416 1042.32 937.374 1020.7 916.363C1005.04 901.15 995.859 880.776 990.601 859.245C985.86 839.835 981.219 816.257 987.981 793.707C992.207 779.609 1001.48 764.862 1015.38 754.408C1028.01 744.912 1043.4 739.714 1057.69 737.988C1110.78 731.572 1170.9 754.388 1162.59 806.581C1161.44 813.781 1160.43 821.077 1159.38 828.398C1157.83 839.097 1156.2 849.847 1153.91 860.426Z" fill="#F6F6FB"/>
</svg>
