<svg width="320" height="949" viewBox="0 0 320 949" fill="none" xmlns="http://www.w3.org/2000/svg">
    <mask id="mask0" mask-type="alpha" maskUnits="userSpaceOnUse" x="0" y="0" width="320" height="949">
        <rect width="320" height="949" fill="#490074"/>
    </mask>
    <g mask="url(#mask0)"></g>
    <rect width="320" height="949" fill="#490074"/>
    <g opacity="0.2">
        <path d="M371.401 568.523C371.401 533.374 343.097 505 308.034 505H36.4003C-15.1382 505 -41.3297 567.676 -4.57686 604.096L61.7471 670.583C78.2225 687.099 87.5165 709.544 87.5165 733.259C87.5165 764.174 112.441 789.159 143.28 789.159C166.514 789.159 189.326 798.476 205.802 814.992L272.126 881.48C308.456 917.899 370.978 892.067 370.978 840.401V568.523H371.401Z" fill="#83569D"/>
        <path d="M80.3126 813.799C80.3126 802.142 70.7465 792.567 59.1007 792.567H-32.402C-49.8707 792.567 -58.6052 813.382 -46.1276 825.871L-23.6677 848.351C-18.2607 853.763 -14.9335 861.673 -14.9335 869.166C-14.9335 879.574 -6.61506 887.9 3.78297 887.9C11.6855 887.9 19.1721 891.23 24.579 896.642L47.0389 919.122C59.5165 931.611 80.3126 922.869 80.3126 905.384V813.799Z" fill="#83569D"/>
    </g>
</svg>
