<svg width="1440" height="1017" viewBox="0 0 1440 1017" fill="none" xmlns="http://www.w3.org/2000/svg">
    <rect width="1440" height="1017" fill="#490074"/>
    <g opacity="0.2">
        <path d="M536 561.816C536 519.311 501.773 485 459.373 485H130.899C68.5753 485 36.9031 560.791 81.3467 604.832L161.549 685.233C181.472 705.205 192.711 732.346 192.711 761.024C192.711 798.408 222.851 828.622 260.143 828.622C288.239 828.622 315.825 839.888 335.748 859.86L415.951 940.26C459.884 984.301 535.489 953.063 535.489 890.586V561.816H536Z" fill="#83569D"/>
        <path d="M184 858.416C184 844.321 172.432 832.742 158.349 832.742H47.699C26.5749 832.742 16.0126 857.913 31.1013 873.015L58.261 900.199C64.7994 906.744 68.8229 916.308 68.8229 925.37C68.8229 937.955 78.882 948.023 91.4559 948.023C101.012 948.023 110.065 952.051 116.604 958.595L143.763 985.779C158.852 1000.88 184 990.31 184 969.167V858.416Z" fill="#83569D"/>
    </g>
    <g opacity="0.3" filter="url(#filter0_f)">
        <path d="M1000 376.767C1000 409.974 1026.74 436.779 1059.86 436.779H1316.49C1365.18 436.779 1389.92 377.567 1355.2 343.16L1292.54 280.348C1276.97 264.744 1268.19 243.54 1268.19 221.136C1268.19 191.93 1244.65 168.325 1215.51 168.325C1193.56 168.325 1172.01 159.523 1156.45 143.92L1093.79 81.1073C1059.47 46.7003 1000.4 71.1052 1000.4 119.915V376.767H1000Z" fill="#83569D"/>
        <path d="M1275 145.047C1275 156.059 1284.04 165.104 1295.04 165.104H1381.49C1397.99 165.104 1406.24 145.44 1394.45 133.641L1373.23 112.404C1368.13 107.291 1364.98 99.8184 1364.98 92.7392C1364.98 82.9069 1357.12 75.0411 1347.3 75.0411C1339.83 75.0411 1332.76 71.8948 1327.65 66.782L1306.43 45.5444C1294.65 33.7457 1275 42.0048 1275 58.5229V145.047Z" fill="#83569D"/>
    </g>
    <defs>
        <filter id="filter0_f" x="992" y="31.9912" width="416" height="412.788" filterUnits="userSpaceOnUse" color-interpolation-filters="sRGB">
            <feFlood flood-opacity="0" result="BackgroundImageFix"/>
            <feBlend mode="normal" in="SourceGraphic" in2="BackgroundImageFix" result="shape"/>
            <feGaussianBlur stdDeviation="4" result="effect1_foregroundBlur"/>
        </filter>
    </defs>
</svg>
