<svg width="110" height="110" viewBox="0 0 110 110" fill="none" xmlns="http://www.w3.org/2000/svg">
<path d="M35.329 28.7596C36.6181 28.0034 37.2626 27.5713 38.6591 26.8152C39.3036 26.4911 39.8407 26.2751 40.3778 26.3831L50.3681 29.6237L45.5341 33.8366C52.7314 45.827 59.8212 58.0335 66.5888 70.24L66.911 69.4839L72.2821 82.6625L62.2919 79.4219L62.3993 79.3139C62.0771 79.2058 61.8622 78.9898 61.6474 78.6657C52.8388 62.8945 43.6005 47.3394 34.0399 31.8922C33.5028 31.136 34.2548 29.4077 35.329 28.7596Z" fill="#9595EF" stroke="black" stroke-width="2" stroke-miterlimit="10" stroke-linecap="round" stroke-linejoin="round"/>
<path d="M5.89539 77.5855C12.7704 66.5673 15.993 61.1662 22.3309 50.148C23.1903 48.6356 24.3719 47.4474 25.5536 46.6912C27.702 45.503 28.6688 44.8549 30.8173 43.5586C31.2469 43.3426 32.1063 43.4506 32.1063 43.4506L41.9891 46.6912L20.9345 77.8016C24.4794 79.5299 27.3798 80.8262 31.6766 82.9866C32.3212 83.3107 31.8915 84.823 31.0321 85.3631C29.3134 86.3353 28.3466 86.8754 26.8427 87.7396L33.0731 92.2765L22.9755 89.0359C22.6532 89.0359 22.4384 88.9278 22.2235 88.8198C15.6708 85.6872 12.3407 84.1749 5.78796 81.0422C4.92859 80.6101 4.9286 79.0978 5.89539 77.5855Z" fill="#9595EF" stroke="black" stroke-width="2" stroke-miterlimit="10" stroke-linecap="round" stroke-linejoin="round"/>
<path d="M69.2743 60.4101C74.0009 51.9844 76.9013 47.0154 81.0907 39.7779L84.6356 32.7565C84.6356 32.1083 84.4208 31.5682 83.9911 31.2442C77.6532 28.1115 74.4306 26.4912 68.0927 23.2505C67.4481 22.9265 67.8778 21.4142 68.8446 20.8741C70.9931 19.5778 71.9599 19.0377 74.1083 17.7414C75.2899 17.2013 76.4716 16.9853 77.3309 17.4174L86.7841 20.658L85.3876 21.5222C87.8583 22.7104 90.329 24.0067 93.7665 25.627C94.7333 26.0591 94.7333 27.6794 93.7665 29.1918C93.0145 30.488 92.2626 31.7843 91.5106 32.9725H97.6337L79.372 65.5952L70.0263 62.0304C69.1669 62.4625 68.7372 61.5984 69.2743 60.4101Z" fill="#9595EF" stroke="black" stroke-width="2" stroke-miterlimit="10" stroke-linecap="round" stroke-linejoin="round"/>
<path d="M71.5302 82.0145C62.7216 66.1353 53.4833 50.5801 43.9228 35.241C43.3856 34.3768 44.1376 32.7565 45.2118 32.1084C46.5009 31.3522 47.1454 30.9201 48.5419 30.164C49.7235 29.5158 50.7978 29.6239 51.3349 30.488C60.788 45.7191 69.9188 61.3823 78.62 77.1535C79.0497 78.0177 78.4052 79.6381 77.331 80.2862C76.0419 81.0423 75.3974 81.4744 74.2157 82.2306C73.0341 82.9867 72.0673 82.8787 71.5302 82.0145Z" fill="white" stroke="black" stroke-width="2" stroke-miterlimit="10" stroke-linecap="round" stroke-linejoin="round"/>
<path d="M32.3212 92.0606C25.7684 88.928 22.4384 87.4156 15.8856 84.283C14.9188 83.8509 13.5223 82.2306 14.4891 80.7183C21.1493 69.484 23.1903 65.5952 29.5282 54.685C30.3876 53.1727 31.5692 51.9844 32.7509 51.2283C34.8993 50.04 38.5516 47.9876 40.7001 46.7994C41.6669 46.2593 42.0966 47.2315 41.452 48.3117C35.329 59.0059 32.2138 64.407 25.7684 75.1011C24.8016 76.6134 24.9091 78.2338 25.8759 78.6659C32.2137 81.6905 35.4364 83.2028 41.6669 86.2274C42.3114 86.5515 41.8817 88.0638 41.0223 88.6039C38.8739 89.7921 37.7997 90.4403 35.6512 91.6285C34.4696 92.3847 33.1805 92.4927 32.3212 92.0606Z" fill="white" stroke="black" stroke-width="2" stroke-miterlimit="10" stroke-linecap="round" stroke-linejoin="round"/>
<path d="M88.288 58.5737C94.3036 48.0956 97.4188 42.9105 103.757 32.3243C104.724 30.812 104.724 29.1917 103.757 28.7596C97.0966 25.627 93.8739 23.8986 87.3212 20.658C86.4618 20.2259 85.2802 20.4419 83.9911 21.1981C81.8427 22.4943 80.8759 23.0344 78.7274 24.3307C77.7606 24.8708 77.3309 26.3831 77.9755 26.7072C84.4208 29.9479 86.247 31.5682 92.5849 34.7008C93.4442 35.1329 93.4442 36.7532 92.5849 38.2656C86.5692 48.4196 83.6688 53.6047 77.8681 63.6507C77.2235 64.7309 79.0497 65.7031 79.9091 65.163C81.9501 63.8668 82.9169 63.3267 85.0653 62.0304C86.247 61.2742 87.4286 60.086 88.288 58.5737Z" fill="white" stroke="black" stroke-width="2" stroke-miterlimit="10" stroke-linecap="round" stroke-linejoin="round"/>
</svg>
