<svg width="110" height="117" viewBox="0 0 110 117" fill="none" xmlns="http://www.w3.org/2000/svg">
<mask id="mask0" mask-type="alpha" maskUnits="userSpaceOnUse" x="0" y="6" width="124" height="111">
<rect y="6.01562" width="123.509" height="110" fill="#C4C4C4"/>
</mask>
<g mask="url(#mask0)">
<path d="M88.34 70.5287C85.4136 65.5567 80.6675 60.1456 74.1016 54.2954C71.8105 52.1947 70.5893 51.1451 68.2982 49.0444C66.3113 47.0927 64.6284 45.2898 63.3977 43.3318C62.1669 41.3737 61.546 39.8648 61.5317 38.5023C61.5158 36.9884 62.2641 36.2251 63.9247 35.9085C65.434 35.5931 67.5579 36.1811 69.9939 37.6748C74.1032 40.0631 78.2284 43.9654 82.3711 49.5329C85.2019 45.4214 86.6938 43.4407 89.5246 39.3292C84.6224 33.4651 78.6679 28.2154 71.5081 23.43C71.4571 18.5855 71.4317 16.1632 71.3823 11.47C67.8812 9.37943 66.055 8.33478 62.5539 6.24424C62.6049 11.0888 62.6303 13.5111 62.5284 18.2056C59.1834 16.5679 56.3016 15.8349 53.8816 15.855C52.5203 15.8664 51.4631 16.0266 50.4075 16.3382C49.5032 16.6485 48.6004 17.1102 47.849 17.5707L39.2848 23.0926L44.1202 22.5982L44.1217 22.7496C43.3894 25.0267 42.9611 27.4528 42.9913 30.3293C43.02 33.0544 43.3495 35.6255 44.1328 38.1929C44.9146 40.6089 46.0004 43.1738 47.3871 45.5847C48.9251 47.9944 50.7672 50.553 53.0631 53.1078C55.3589 55.6626 58.2614 58.3638 61.4695 61.3652C63.759 63.3144 64.8289 64.3654 67.1184 66.3146C71.3933 70.0642 73.5474 73.5286 73.5777 76.4051C73.6 78.5246 72.7052 79.7433 70.8933 80.0611C69.0815 80.379 66.9576 79.7911 64.5232 78.4487C58.7406 75.1659 52.7765 69.0079 46.7853 60.2762L38.2212 65.7981L39.186 71.2407C40.4151 73.0473 41.7971 75.0041 43.7856 77.1073C45.623 79.2116 47.6115 81.3148 49.7498 83.2653C51.8896 85.3671 54.1775 87.165 56.4654 88.9628C58.7533 90.7606 60.8867 92.257 62.8641 93.3003C62.9135 97.9935 62.939 100.416 62.837 105.11C63.1411 105.259 63.294 105.409 63.4452 105.408L63.5519 115.551L71.9663 110.182C71.9138 105.186 71.8883 102.764 71.8374 97.9193C75.6299 98.9475 78.9622 99.374 81.6863 99.5027C81.9889 99.5002 82.2914 99.4977 82.5939 99.4952L79.7614 103.455L88.1759 98.0861C89.8301 97.1639 91.0242 95.6399 91.7582 93.5141C92.4938 91.5397 92.7676 88.8121 92.7342 85.6328C92.6817 80.6368 91.2663 75.5008 88.34 70.5287Z" fill="#9595EF" stroke="black" stroke-width="2" stroke-miterlimit="10" stroke-linejoin="round"/>
<path d="M62.7955 16.8155C62.8589 21.6644 62.8906 24.0888 62.9519 28.7861C69.9385 33.5886 75.8775 38.8527 80.9214 44.729C78.1153 48.8393 76.6379 50.9708 73.8298 54.9296C69.5424 49.3514 65.4253 45.2874 61.4825 43.0407C59.0546 41.5415 56.9416 41.1011 55.4386 41.2627C53.9375 41.5758 53.1949 42.3385 53.0642 43.8547C53.082 45.2185 53.7038 46.7297 54.9336 48.6915C56.1634 50.6533 57.8427 52.4605 59.825 54.4172C62.1103 56.5235 63.3282 57.5761 65.6135 59.6824C72.1644 65.7001 76.9013 71.1238 79.8242 75.9535C82.7492 80.9347 84.3196 85.925 84.3889 91.2284C84.4304 94.4105 84.1631 96.9884 83.4383 99.1149C82.7115 101.09 81.5273 102.613 79.8856 103.685C78.2419 104.605 76.1408 105.074 73.4317 105.092C70.7206 104.959 67.5541 104.525 63.6271 103.491C63.6925 108.491 63.7242 110.915 63.7875 115.764C60.1477 113.667 58.3278 112.619 54.6899 110.673C54.6285 105.976 54.5969 103.551 54.686 98.8528C52.7136 97.6537 50.4382 96.305 48.3074 94.5008C46.026 92.6976 43.8952 90.8934 41.6099 88.7872C39.3246 86.6809 37.3403 84.5727 35.5066 82.4634C33.6728 80.3541 32.142 78.3944 30.9142 76.5841C33.8669 72.1697 35.3442 70.0382 38.2988 65.7753C44.2853 74.6761 50.2342 80.6978 55.997 83.9931C58.4229 85.3407 60.5378 85.9327 62.3399 85.6176C64.142 85.3024 65.0292 84.0842 65.0015 81.9628C64.9639 79.0838 62.8113 75.6128 58.5476 71.8529C56.2643 69.8981 55.1969 68.8445 52.9136 66.8898C49.5629 63.8814 46.8182 61.1721 44.527 58.6113C42.2357 56.0504 40.396 53.4866 38.8593 51.0722C37.3226 48.6579 36.2354 46.089 35.6017 43.6686C34.8175 41.2492 34.4808 38.5238 34.4452 35.7963C34.4076 32.9173 34.8254 30.3383 35.5502 28.2119C36.4235 25.933 37.6058 24.2581 39.2455 23.0348C40.8852 21.8115 42.8338 21.1923 45.3924 21.1752C47.8005 21.159 50.67 21.8975 54.0029 23.5421C53.9395 18.6933 53.9078 16.2689 53.9969 11.5705C57.4863 13.6687 59.3062 14.7173 62.7955 16.8155Z" fill="white" stroke="black" stroke-width="2" stroke-miterlimit="10" stroke-linejoin="round"/>
<path d="M62.6051 6.26586L54.0256 11.6428L63.0195 16.8733L71.4474 11.4976L62.6051 6.26586Z" fill="white" stroke="black" stroke-width="2" stroke-miterlimit="10" stroke-linejoin="round"/>
<path d="M81.0112 44.6884L89.4354 39.3162L82.2736 49.5255L73.8493 54.8976L81.0112 44.6884Z" fill="white" stroke="black" stroke-width="2" stroke-miterlimit="10" stroke-linejoin="round"/>
</g>
</svg>
