<svg width="110" height="110" viewBox="0 0 110 110" fill="none" xmlns="http://www.w3.org/2000/svg">
<path d="M14.3852 60.1592L18.2448 72.0239L32.7779 63.6852L14.3852 60.1592Z" fill="white" stroke="black" stroke-width="2" stroke-miterlimit="10" stroke-linejoin="round"/>
<path d="M42.2602 73.4536V68.5457L37.5905 71.1187V76.4078" fill="white"/>
<path d="M42.2602 73.4536V68.5457L37.5905 71.1187V76.4078" stroke="black" stroke-width="2" stroke-miterlimit="10" stroke-linejoin="round"/>
<path d="M37.5906 76.4078L42.2602 73.7871V48.4375L37.4 50.4388L37.5906 76.4078Z" fill="white" stroke="black" stroke-width="2" stroke-miterlimit="10" stroke-linejoin="round"/>
<path d="M46.501 82.7451L53.4578 98.3742C53.6484 98.7554 54.0772 98.8983 54.3631 98.6601L63.1783 92.2274C63.6071 91.8939 63.5595 91.0838 63.083 90.7979L47.2634 81.6016C46.6916 81.3157 46.1198 82.0781 46.501 82.7451Z" fill="white" stroke="black" stroke-width="2" stroke-miterlimit="10" stroke-linejoin="round"/>
<path d="M52.7908 96.4207L57.4128 93.8476V61.0171L47.1682 56.8716L52.7908 60.5882V96.4207Z" fill="white" stroke="black" stroke-width="2" stroke-miterlimit="10" stroke-linejoin="round"/>
<path d="M47.2635 82.1257L46.7393 81.554C47.4541 81.6493 46.7393 81.554 46.7393 81.554L41.4502 85.0324L59.557 94.9435L63.2261 92.2751C63.7026 91.9416 63.2261 90.798 62.9878 90.7027L60.1765 89.2255" stroke="black" stroke-width="2" stroke-miterlimit="10" stroke-linejoin="round"/>
<path d="M42.4984 84.8895L46.6916 82.0781V82.4117V86.9384L42.4984 84.8895Z" fill="white"/>
<path d="M53.6484 90.1785L55.7927 87.796C55.9356 87.653 56.0786 87.2242 56.2692 87.3671L62.1777 90.8932C63.2736 91.2744 62.9877 91.9415 62.6542 92.0844L59.7476 94.0857C59.6046 94.2287 58.9852 94.1334 58.7946 94.0381L53.7437 90.9409C53.5055 90.7503 53.4578 90.4167 53.6484 90.1785Z" fill="white"/>
<path d="M59.5093 94.9435L52.7907 90.8932V60.5881L47.1681 56.1567V87.796L42.0219 84.9847C41.4501 84.6512 40.8783 85.4612 41.2119 86.1283L49.1693 101.757C49.3599 102.139 49.7888 102.281 50.0747 102.043L58.7469 95.5629C59.1757 95.2293 59.5093 94.9435 59.5093 94.9435Z" fill="white" stroke="black" stroke-width="2" stroke-miterlimit="10" stroke-linejoin="round"/>
<path d="M14.5282 54.3459L14.3852 60.0162L24.0104 62.9229" fill="white"/>
<path d="M14.5282 54.3459L14.3852 60.0162L24.0104 62.9229" stroke="black" stroke-width="2" stroke-miterlimit="10" stroke-linejoin="round"/>
<path d="M24.0105 68.6884L37.5906 76.4077V71.1186L37.4 53.5835V50.4387L32.1585 48.0085V62.4464V68.1166L17.8637 60.1592V65.1147" fill="white"/>
<path d="M24.0105 68.6884L37.5906 76.4077V71.1186L37.4 53.5835V50.4387L32.1585 48.0085V62.4464V68.1166L17.8637 60.1592V65.1147" stroke="black" stroke-width="2" stroke-miterlimit="10" stroke-linecap="round" stroke-linejoin="round"/>
<path d="M32.0631 62.8276L28.0606 60.6357L31.8725 58.4438L31.6819 57.6338L14.5281 54.3459L18.3877 66.163L23.3433 63.3517L32.1584 68.1167" fill="#9595EF"/>
<path d="M32.0631 62.8276L28.0606 60.6357L31.8725 58.4438L31.6819 57.6338L14.5281 54.3459L18.3877 66.163L23.3433 63.3517L32.1584 68.1167" stroke="black" stroke-width="2" stroke-miterlimit="10" stroke-linejoin="round"/>
<path d="M14.9093 57.2051L17.8636 66.3061L17.816 69.0698L14.9093 60.1593V57.2051Z" fill="white"/>
<path d="M18.3877 66.1631L18.2448 72.024" stroke="black" stroke-width="2" stroke-miterlimit="10" stroke-linejoin="round"/>
<path d="M32.1585 68.1166V62.4463" stroke="black" stroke-width="2" stroke-miterlimit="10" stroke-linecap="round" stroke-linejoin="round"/>
<path d="M37.4 55.585L37.5906 71.7858" stroke="black" stroke-width="2" stroke-miterlimit="10" stroke-linecap="round" stroke-linejoin="round"/>
<path d="M70.8975 91.9891V72.7863L66.1802 72.3098V91.5126V92.3703V94.9433L84.8589 105.236V99.9942L70.8975 91.9891Z" fill="white" stroke="black" stroke-width="2" stroke-miterlimit="10" stroke-linejoin="round"/>
<path d="M70.8976 91.9891L82.9529 98.8506L76.9968 102.091L97.2955 105.569L94.4365 92.5609L87.7179 96.2299L76.282 89.7495L75.1861 89.1301L74.9002 72.3098L70.8976 72.7863V92.132" fill="#9595EF"/>
<path d="M70.8976 91.9891L82.9529 98.8506L76.9968 102.091L97.2955 105.569L94.4365 92.5609L87.7179 96.2299L76.282 89.7495L75.1861 89.1301L74.9002 72.3098L70.8976 72.7863V92.132" stroke="black" stroke-width="2" stroke-miterlimit="10" stroke-linejoin="round"/>
<path d="M76.9967 102.091L76.9014 105.522L97.1525 109L97.2954 105.569L76.9967 102.091Z" fill="white" stroke="black" stroke-width="2" stroke-miterlimit="10" stroke-linejoin="round"/>
<path d="M78.4738 28.52C77.0443 27.6146 75.4718 26.8522 73.8041 26.3281C71.3263 17.1794 65.0366 8.31656 57.2221 3.2657C52.8383 0.406733 48.121 0.406733 44.3567 2.40801H44.3091C44.2614 2.40801 44.2614 2.45566 44.2138 2.45566L34.398 7.98301L38.3529 9.1266C37.9717 9.98429 37.6858 10.9373 37.4475 11.8903C37.0187 11.6044 36.5422 11.3185 36.1133 11.0326C32.492 8.8407 28.68 8.936 25.7734 10.6514L15.767 16.2264L21.0561 19.0377C21.0561 19.3236 21.0561 19.6095 21.0561 19.8954C21.2943 29.4729 27.7747 40.7182 36.0657 45.8167C49.1693 53.393 62.3206 60.8263 75.5195 68.1644C75.8054 68.355 76.1389 68.4979 76.4248 68.6409L73.7565 70.5468L74.7095 73.93L85.1447 68.9744C88.7661 67.4973 91.5297 63.8759 92.1968 59.2062C93.8169 48.2469 87.9084 34.5238 78.4738 28.52Z" fill="#9595EF" stroke="black" stroke-width="2" stroke-miterlimit="10" stroke-linejoin="round"/>
<path d="M70.3734 32.8083C68.9439 31.903 67.3715 31.1406 65.7037 30.6164C63.226 21.4677 56.9362 12.6526 49.1217 7.55406C40.783 2.12201 31.3961 6.98226 29.3948 16.1786C28.9659 15.8927 28.4895 15.6068 28.0606 15.3209C20.7702 10.8895 12.8128 15.7974 13.0034 24.2314C13.2416 33.8089 19.7219 45.0542 28.013 50.1527C41.1166 57.729 54.2678 65.1623 67.4668 72.5004C75.1383 76.7412 82.9529 71.9286 84.1917 63.5422C85.7165 52.5352 79.808 38.8121 70.3734 32.8083Z" fill="white" stroke="black" stroke-width="2" stroke-miterlimit="10" stroke-linejoin="round"/>
</svg>
