<svg width="155" height="60" viewBox="0 0 155 60" fill="none" xmlns="http://www.w3.org/2000/svg">
<path d="M140 50H15C12.2 50 10 47.8 10 45V15C10 12.2 12.2 10 15 10H140C142.8 10 145 12.2 145 15V45C145 47.7 142.8 50 140 50Z" fill="black"/>
<path d="M140 10.8C142.3 10.8 144.2 12.7 144.2 15V45C144.2 47.3 142.3 49.2 140 49.2H15C12.7 49.2 10.8 47.3 10.8 45V15C10.8 12.7 12.7 10.8 15 10.8H140ZM140 10H15C12.2 10 10 12.2 10 15V45C10 47.8 12.2 50 15 50H140C142.8 50 145 47.8 145 45V15C145 12.3 142.8 10 140 10Z" fill="#A6A6A6"/>
<path d="M57.4 20.1999C57.4 20.9999 57.2 21.6999 56.7 22.1999C56.1 22.7999 55.4 23.0999 54.5 23.0999C53.6 23.0999 52.9 22.7999 52.3 22.1999C51.7 21.5999 51.4 20.8999 51.4 19.9999C51.4 19.0999 51.7 18.3999 52.3 17.7999C52.9 17.1999 53.6 16.8999 54.5 16.8999C54.9 16.8999 55.3 16.9999 55.7 17.1999C56.1 17.3999 56.4 17.5999 56.6 17.8999L56.1 18.3999C55.7 17.8999 55.2 17.6999 54.5 17.6999C53.9 17.6999 53.3 17.8999 52.9 18.3999C52.4 18.7999 52.2 19.3999 52.2 20.0999C52.2 20.7999 52.4 21.3999 52.9 21.7999C53.4 22.1999 53.9 22.4999 54.5 22.4999C55.2 22.4999 55.7 22.2999 56.2 21.7999C56.5 21.4999 56.7 21.0999 56.7 20.5999H54.5V19.8999H57.4C57.4 19.8999 57.4 20.0999 57.4 20.1999Z" fill="white" stroke="white" stroke-width="0.2" stroke-miterlimit="10"/>
<path d="M62 17.7H59.3V19.6H61.8V20.3H59.3V22.2H62V23H58.5V17H62V17.7Z" fill="white" stroke="white" stroke-width="0.2" stroke-miterlimit="10"/>
<path d="M65.3 23H64.5V17.7H62.8V17H67V17.7H65.3V23Z" fill="white" stroke="white" stroke-width="0.2" stroke-miterlimit="10"/>
<path d="M69.9 23V17H70.7V23H69.9Z" fill="white" stroke="white" stroke-width="0.2" stroke-miterlimit="10"/>
<path d="M74.1 23H73.3V17.7H71.6V17H75.7V17.7H74V23H74.1Z" fill="white" stroke="white" stroke-width="0.2" stroke-miterlimit="10"/>
<path d="M83.6 22.1999C83 22.7999 82.3 23.0999 81.4 23.0999C80.5 23.0999 79.8 22.7999 79.2 22.1999C78.6 21.5999 78.3 20.8999 78.3 19.9999C78.3 19.0999 78.6 18.3999 79.2 17.7999C79.8 17.1999 80.5 16.8999 81.4 16.8999C82.3 16.8999 83 17.1999 83.6 17.7999C84.2 18.3999 84.5 19.0999 84.5 19.9999C84.5 20.8999 84.2 21.5999 83.6 22.1999ZM79.8 21.6999C80.2 22.0999 80.8 22.3999 81.4 22.3999C82 22.3999 82.6 22.1999 83 21.6999C83.4 21.2999 83.7 20.6999 83.7 19.9999C83.7 19.2999 83.5 18.6999 83 18.2999C82.6 17.8999 82 17.5999 81.4 17.5999C80.8 17.5999 80.2 17.7999 79.8 18.2999C79.4 18.6999 79.1 19.2999 79.1 19.9999C79.1 20.6999 79.3 21.2999 79.8 21.6999Z" fill="white" stroke="white" stroke-width="0.2" stroke-miterlimit="10"/>
<path d="M85.6 23V17H86.5L89.4 21.7V20.5V17H90.2V23H89.4L86.3 18.1V19.3V23H85.6Z" fill="white" stroke="white" stroke-width="0.2" stroke-miterlimit="10"/>
<path d="M78.1 31.8001C75.7 31.8001 73.8 33.6001 73.8 36.1001C73.8 38.5001 75.7 40.4001 78.1 40.4001C80.5 40.4001 82.4 38.6001 82.4 36.1001C82.4 33.5001 80.5 31.8001 78.1 31.8001ZM78.1 38.6001C76.8 38.6001 75.7 37.5001 75.7 36.0001C75.7 34.5001 76.8 33.4001 78.1 33.4001C79.4 33.4001 80.5 34.4001 80.5 36.0001C80.5 37.5001 79.4 38.6001 78.1 38.6001ZM68.8 31.8001C66.4 31.8001 64.5 33.6001 64.5 36.1001C64.5 38.5001 66.4 40.4001 68.8 40.4001C71.2 40.4001 73.1 38.6001 73.1 36.1001C73.1 33.5001 71.2 31.8001 68.8 31.8001ZM68.8 38.6001C67.5 38.6001 66.4 37.5001 66.4 36.0001C66.4 34.5001 67.5 33.4001 68.8 33.4001C70.1 33.4001 71.2 34.4001 71.2 36.0001C71.2 37.5001 70.1 38.6001 68.8 38.6001ZM57.7 33.1001V34.9001H62C61.9 35.9001 61.5 36.7001 61 37.2001C60.4 37.8001 59.4 38.5001 57.7 38.5001C55 38.5001 53 36.4001 53 33.7001C53 31.0001 55.1 28.9001 57.7 28.9001C59.1 28.9001 60.2 29.5001 61 30.2001L62.3 28.9001C61.2 27.9001 59.8 27.1001 57.8 27.1001C54.2 27.1001 51.1 30.1001 51.1 33.7001C51.1 37.3001 54.2 40.3001 57.8 40.3001C59.8 40.3001 61.2 39.7001 62.4 38.4001C63.6 37.2001 64 35.5001 64 34.2001C64 33.8001 64 33.4001 63.9 33.1001H57.7ZM103.1 34.5001C102.7 33.5001 101.7 31.8001 99.5 31.8001C97.3 31.8001 95.5 33.5001 95.5 36.1001C95.5 38.5001 97.3 40.4001 99.7 40.4001C101.6 40.4001 102.8 39.2001 103.2 38.5001L101.8 37.5001C101.3 38.2001 100.7 38.7001 99.7 38.7001C98.7 38.7001 98.1 38.3001 97.6 37.4001L103.3 35.0001L103.1 34.5001ZM97.3 35.9001C97.3 34.3001 98.6 33.4001 99.5 33.4001C100.2 33.4001 100.9 33.8001 101.1 34.3001L97.3 35.9001ZM92.6 40.0001H94.5V27.5001H92.6V40.0001ZM89.6 32.7001C89.1 32.2001 88.3 31.7001 87.3 31.7001C85.2 31.7001 83.2 33.6001 83.2 36.0001C83.2 38.4001 85.1 40.2001 87.3 40.2001C88.3 40.2001 89.1 39.7001 89.5 39.2001H89.6V39.8001C89.6 41.4001 88.7 42.3001 87.3 42.3001C86.2 42.3001 85.4 41.5001 85.2 40.8001L83.6 41.5001C84.1 42.6001 85.3 44.0001 87.4 44.0001C89.6 44.0001 91.4 42.7001 91.4 39.6001V32.0001H89.6V32.7001ZM87.4 38.6001C86.1 38.6001 85 37.5001 85 36.0001C85 34.5001 86.1 33.4001 87.4 33.4001C88.7 33.4001 89.7 34.5001 89.7 36.0001C89.7 37.5001 88.7 38.6001 87.4 38.6001ZM111.8 27.5001H107.3V40.0001H109.2V35.3001H111.8C113.9 35.3001 115.9 33.8001 115.9 31.4001C115.9 29.0001 113.9 27.5001 111.8 27.5001ZM111.9 33.5001H109.2V29.2001H111.9C113.3 29.2001 114.1 30.4001 114.1 31.3001C114 32.4001 113.2 33.5001 111.9 33.5001ZM123.4 31.7001C122 31.7001 120.6 32.3001 120.1 33.6001L121.8 34.3001C122.2 33.6001 122.8 33.4001 123.5 33.4001C124.5 33.4001 125.4 34.0001 125.5 35.0001V35.1001C125.2 34.9001 124.4 34.6001 123.6 34.6001C121.8 34.6001 120 35.6001 120 37.4001C120 39.1001 121.5 40.2001 123.1 40.2001C124.4 40.2001 125 39.6001 125.5 39.0001H125.6V40.0001H127.4V35.2001C127.2 33.0001 125.5 31.7001 123.4 31.7001ZM123.2 38.6001C122.6 38.6001 121.7 38.3001 121.7 37.5001C121.7 36.5001 122.8 36.2001 123.7 36.2001C124.5 36.2001 124.9 36.4001 125.4 36.6001C125.2 37.8001 124.2 38.6001 123.2 38.6001ZM133.7 32.0001L131.6 37.4001H131.5L129.3 32.0001H127.3L130.6 39.6001L128.7 43.8001H130.6L135.7 32.0001H133.7ZM116.9 40.0001H118.8V27.5001H116.9V40.0001Z" fill="white"/>
<path d="M20.4 17.5C20.1 17.8 19.9 18.3 19.9 18.9V41C19.9 41.6 20.1 42.1 20.4 42.4L20.5 42.5L32.9 30.1V30V29.9L20.4 17.5Z" fill="url(#paint0_linear)"/>
<path d="M37 34.2998L32.9 30.1998V29.9998V29.8998L37 25.7998L37.1 25.8998L42 28.6998C43.4 29.4998 43.4 30.7998 42 31.5998L37 34.2998Z" fill="url(#paint1_linear)"/>
<path d="M37.1 34.2L32.9 30L20.4 42.5C20.9 43 21.6 43 22.5 42.6L37.1 34.2Z" fill="url(#paint2_linear)"/>
<path d="M37.1 25.8001L22.5 17.5001C21.6 17.0001 20.9 17.1001 20.4 17.6001L32.9 30.0001L37.1 25.8001Z" fill="url(#paint3_linear)"/>
<path opacity="0.2" d="M37 34.1001L22.5 42.3001C21.7 42.8001 21 42.7001 20.5 42.3001L20.4 42.4001L20.5 42.5001C21 42.9001 21.7 43.0001 22.5 42.5001L37 34.1001Z" fill="black"/>
<path opacity="0.12" d="M20.4 42.2999C20.1 41.9999 20 41.4999 20 40.8999V40.9999C20 41.5999 20.2 42.0999 20.5 42.3999V42.2999H20.4Z" fill="black"/>
<path opacity="0.12" d="M42 31.3L37 34.1L37.1 34.2L42 31.4C42.7 31 43 30.5 43 30C43 30.5 42.6 30.9 42 31.3Z" fill="black"/>
<path opacity="0.25" d="M22.5 17.5999L42 28.6999C42.6 29.0999 43 29.4999 43 29.9999C43 29.4999 42.7 28.9999 42 28.5999L22.5 17.4999C21.1 16.6999 20 17.3999 20 18.9999V19.0999C20 17.4999 21.1 16.7999 22.5 17.5999Z" fill="white"/>
<defs>
<linearGradient id="paint0_linear" x1="31.7997" y1="18.7097" x2="15.0173" y2="35.4921" gradientUnits="userSpaceOnUse">
<stop stop-color="#00A0FF"/>
<stop offset="0.00657445" stop-color="#00A1FF"/>
<stop offset="0.2601" stop-color="#00BEFF"/>
<stop offset="0.5122" stop-color="#00D2FF"/>
<stop offset="0.7604" stop-color="#00DFFF"/>
<stop offset="1" stop-color="#00E3FF"/>
</linearGradient>
<linearGradient id="paint1_linear" x1="43.8344" y1="30.0013" x2="19.6375" y2="30.0013" gradientUnits="userSpaceOnUse">
<stop stop-color="#FFE000"/>
<stop offset="0.4087" stop-color="#FFBD00"/>
<stop offset="0.7754" stop-color="#FFA500"/>
<stop offset="1" stop-color="#FF9C00"/>
</linearGradient>
<linearGradient id="paint2_linear" x1="34.827" y1="32.2961" x2="12.0687" y2="55.0544" gradientUnits="userSpaceOnUse">
<stop stop-color="#FF3A44"/>
<stop offset="1" stop-color="#C31162"/>
</linearGradient>
<linearGradient id="paint3_linear" x1="17.2973" y1="10.1763" x2="27.4599" y2="20.3388" gradientUnits="userSpaceOnUse">
<stop stop-color="#32A071"/>
<stop offset="0.0685" stop-color="#2DA771"/>
<stop offset="0.4762" stop-color="#15CF74"/>
<stop offset="0.8009" stop-color="#06E775"/>
<stop offset="1" stop-color="#00F076"/>
</linearGradient>
</defs>
</svg>
