<svg width="109" height="83" viewBox="0 0 109 83" fill="none" xmlns="http://www.w3.org/2000/svg">
<path fill-rule="evenodd" clip-rule="evenodd" d="M36.8853 5.47412L30.2297 1.78955L29.6122 1.52637L28.926 1.32898L28.2399 1.19739L27.5537 1.0658L26.799 1H26.0442L25.2895 1.0658L24.4661 1.13159L23.6427 1.26318L22.8193 1.46057L21.996 1.72375L21.104 2.05273L20.212 2.38171L19.32 2.77649L18.428 3.23706L17.536 3.76343L16.6441 4.35559L15.7521 4.94775L14.8601 5.60571L14.0367 6.26367L13.2133 6.98742L12.39 7.71118L11.5666 8.50073L10.8118 9.29028L10.1257 10.2114L9.37094 11.0668L8.6848 11.9879L7.99866 12.909L7.31251 13.8302L6.7636 14.8171L6.14607 15.8041L5.52854 16.791L4.97963 17.7779L4.43071 18.7649L3.95041 19.8176L3.47011 20.8703L3.05843 21.9231L2.64674 22.9758L2.37229 24.0285L2.02921 25.0813L1.75476 26.134L1.54891 27.1867L1.34307 28.2395L1.20584 29.2922L1.06861 30.3449L1 31.3319V32.3188V33.3058L1.06861 34.2269L1.20584 35.148L1.34307 36.0034L1.54891 36.8587L1.75476 37.6483L2.02921 38.372L2.37229 39.0958L2.71536 39.7537L3.12704 40.3459L3.53873 40.9381L4.01903 41.4644L4.49933 41.925L4.97963 42.4514L5.52854 42.8462L7.93004 44.1621L12.1155 46.4649L36.8167 5.47412H36.8853ZM35.513 5.01355H35.5816C35.5816 5.01355 35.5816 5.01355 35.513 5.01355ZM36.1991 5.21093L36.3363 5.27673C36.2677 5.21093 36.1991 5.21093 36.1991 5.21093Z" fill="#9595EF" stroke="black" stroke-width="2" stroke-miterlimit="10" stroke-linejoin="round"/>
<path fill-rule="evenodd" clip-rule="evenodd" d="M25.0833 45.6754C34.7579 40.3459 42.5799 27.3183 42.5799 16.6594C42.5799 5.93467 34.7579 1.65794 25.0833 6.98741C15.4773 12.3169 7.65527 25.3444 7.65527 36.0034C7.65527 46.7281 15.4773 51.0048 25.0833 45.6754Z" fill="white" stroke="black" stroke-width="2" stroke-miterlimit="10" stroke-linejoin="round"/>
<path fill-rule="evenodd" clip-rule="evenodd" d="M35.3068 12.3827L32.9053 11.0667L32.4936 10.8694L32.0133 10.7378L31.533 10.6062L31.0527 10.5404L30.5038 10.4746H29.9549H29.406L28.857 10.5404L28.2395 10.672L27.622 10.8036L27.0045 11.001L26.3869 11.1983L25.7694 11.4615L25.1519 11.7905L24.5343 12.1195L23.9168 12.5143L23.2993 12.909L22.6818 13.3696L22.0642 13.8302L21.4467 14.2907L20.6919 14.8171L20.0744 15.3435L19.5255 15.9356L18.9766 16.5278L18.4277 17.12L17.8788 17.7779L17.3985 18.4359L16.9182 19.0938L16.4379 19.7518L15.9576 20.4756L15.5459 21.1993L15.1342 21.9231L14.7225 22.581L14.3794 23.3048L14.0364 24.0285L13.6933 24.7523L13.4188 25.476L13.1444 26.1998L12.8699 26.9893L12.6641 27.7789L12.4582 28.5684L12.2524 29.2922L12.1152 30.0159L11.9779 30.8055L11.9093 31.5293L11.8407 32.253V32.9768V33.7005L11.9093 34.3585L11.9779 35.0164L12.1152 35.6744L12.2524 36.2666L12.3896 36.8587L12.5955 37.3851L12.8013 37.9114L13.0758 38.372L13.3502 38.8326L13.6247 39.2274L13.9677 39.6221L14.3108 39.9511L14.6539 40.2801L15.0656 40.5433L16.7809 41.5302L17.3985 41.8592C19.7313 43.3725 21.3781 44.2279 26.73 41.267C32.1505 38.372 39.4236 26.3314 39.4236 20.4098C39.4236 14.4881 37.8455 13.4354 35.3068 12.3827ZM33.8659 11.9221C33.9345 11.9221 33.8659 11.9221 33.8659 11.9221V11.9221ZM34.3462 11.9879C34.4148 12.0537 34.4148 11.9879 34.3462 11.9879V11.9879ZM34.8265 12.1853H34.8951H34.8265Z" fill="#9595EF"/>
<path fill-rule="evenodd" clip-rule="evenodd" d="M26.8677 41.3329C33.7977 37.4509 39.4241 28.1079 39.4241 20.4098C39.4241 12.7117 33.7977 9.55346 26.7991 13.4354C19.869 17.2516 14.2427 26.6604 14.2427 34.3585C14.2427 42.0566 19.869 45.149 26.8677 41.3329Z" fill="white" stroke="black" stroke-width="2" stroke-miterlimit="10" stroke-linejoin="round"/>
<path fill-rule="evenodd" clip-rule="evenodd" d="M44.9817 73.7702L34.1406 66.8616L20.2805 41.6618L19.9375 41.3986L19.5258 41.1355L19.1827 40.8065L18.8396 40.4117L18.5652 40.0169L18.2907 39.6222L18.0849 39.1616L17.879 38.701L17.6732 38.1746L17.536 37.6483L17.3987 37.0561L17.2615 36.464L17.1929 35.8718L17.1243 35.2138V34.5559V33.8979L17.1929 33.1742L17.2615 32.4504L17.3987 31.7267L17.536 31.0029L17.6732 30.2791L17.879 29.5554L18.0849 28.8316L18.2907 28.1079L18.5652 27.3841L18.8396 26.6604L19.1827 25.9366L19.5258 25.2129L19.8688 24.4891L20.2119 23.8312L20.6236 23.1732L21.0353 22.5152L21.447 21.8573L21.9273 21.1993L22.4076 20.5414L22.8879 19.9492L23.3682 19.357C31.945 9.75085 51.0883 12.9748 61.9294 16.2646C63.782 16.791 65.1543 17.9753 65.9776 19.6202L68.5164 24.8839C69.1339 26.1998 69.2711 27.5157 68.9967 28.8974L66.8696 38.1089L78.534 63.6376L66.3207 70.1514C66.5952 70.941 63.6447 74.2308 60.3513 73.3754C59.871 74.0334 55.7541 75.4151 54.1074 75.4151L46.4226 74.4282C45.8736 74.2966 45.3933 74.0992 44.9817 73.7702Z" fill="white" stroke="black" stroke-width="2" stroke-miterlimit="10" stroke-linejoin="round"/>
<path fill-rule="evenodd" clip-rule="evenodd" d="M76.5444 64.493L69.6143 59.2293L64.331 51.3996L59.7339 46.9255C57.4696 44.7542 56.3032 42.1882 56.2345 39.1616L56.0287 33.5689L46.011 32.6478L41.9628 37.1877C40.8649 38.4378 39.2868 39.0958 37.7087 38.6352L34.0035 37.5167C33.6604 37.3851 33.386 37.1877 33.2488 36.8587C33.1115 36.5298 33.1801 36.2008 33.386 35.8718L41.208 24.0943C41.7569 23.239 42.5803 22.581 43.6095 22.4494L60.2142 19.9492C60.5572 19.8834 60.9003 20.0808 61.1748 20.344L71.1925 28.8316C79.9065 36.2008 75.7896 36.0692 84.5036 38.0431C87.111 38.6352 88.5519 39.2932 92.4629 40.7407C98.5695 52.3208 89.3752 60.8084 80.4554 63.5061C80.4554 63.5718 77.2991 64.7562 76.5444 64.493Z" fill="white" stroke="black" stroke-width="2" stroke-miterlimit="10" stroke-linejoin="round"/>
<path fill-rule="evenodd" clip-rule="evenodd" d="M60.351 73.3096C56.9889 73.1781 53.6954 72.3885 50.8822 70.1514C48.0691 67.9802 42.8544 61.9269 42.8544 61.9269C42.8544 61.9269 48.1377 68.046 50.8822 70.2172C53.5582 72.3227 56.9889 73.2438 60.351 73.3096Z" fill="white" stroke="black" stroke-width="2" stroke-miterlimit="10" stroke-linejoin="round"/>
<path fill-rule="evenodd" clip-rule="evenodd" d="M66.3208 70.2172C63.2331 70.1514 60.0769 70.2172 57.2637 67.8486C54.3819 65.4799 46.2168 58.5713 46.5599 58.1766C46.5599 58.1766 54.7936 65.6773 57.1951 67.8486C59.6652 70.0198 63.8507 69.5592 66.3208 70.2172Z" fill="white" stroke="black" stroke-width="2" stroke-miterlimit="10" stroke-linejoin="round"/>
<path fill-rule="evenodd" clip-rule="evenodd" d="M73.7997 66.5984C69.7515 66.2037 65.4288 65.4141 61.9981 62.9139C58.2929 60.1504 52.3921 54.0972 52.3921 54.0972C52.3921 54.0972 59.0477 60.7426 62.4098 63.2428C65.4288 65.4799 70.4376 65.6115 73.7997 66.5984Z" fill="white" stroke="black" stroke-width="2" stroke-miterlimit="10" stroke-linejoin="round"/>
<path fill-rule="evenodd" clip-rule="evenodd" d="M101.657 38.7668L95.0016 35.0822L94.3841 34.8191L93.6979 34.6217L93.0118 34.4901L92.3256 34.3585L91.5709 34.2927H90.8161L90.0614 34.3585L89.238 34.4243L88.4146 34.5559L87.5912 34.7533L86.7679 35.0164L85.8759 35.3454L84.9839 35.6744L84.0919 36.0692L83.1999 36.5298L82.3079 37.0561L81.416 37.6483L80.524 38.2404L79.632 38.8984L78.8086 39.5564L77.9852 40.2801L77.1619 41.0039L76.3385 41.7934L75.5837 42.583L74.829 43.4383L74.0742 44.2937L73.3881 45.2148L72.7019 46.1359L72.0158 47.0571L71.3983 48.044L70.7807 49.031L70.2318 50.0179L69.6829 51.0048L69.134 51.9918L68.6537 53.0445L68.1734 54.0972L67.7617 55.15L67.4873 56.2685L67.1442 57.3212L66.8697 58.374L66.5953 59.4267L66.3894 60.4794L66.1836 61.5322L66.0464 62.5849L65.9091 63.6376L65.8405 64.6904V65.6773V66.6642L65.9091 67.5854L66.0464 68.5065L66.1836 69.3619L66.3894 70.2172L66.5953 71.0068L66.8697 71.7305L67.2128 72.4543L67.5559 73.1122L67.9676 73.7044L68.3792 74.2966L68.8595 74.8229L69.3398 75.2835L69.8888 75.7441L70.4377 76.1388L72.8392 77.4548L77.0246 79.7576L101.657 38.701V38.7668ZM100.353 38.2404H100.422C100.353 38.3062 100.353 38.3062 100.353 38.2404ZM100.971 38.4378L101.108 38.5036C101.04 38.5036 101.04 38.5036 100.971 38.4378Z" fill="#9595EF" stroke="black" stroke-width="2" stroke-miterlimit="10" stroke-linejoin="round"/>
<path fill-rule="evenodd" clip-rule="evenodd" d="M89.9241 78.9681C99.5988 73.6386 107.421 60.611 107.421 49.9521C107.421 39.2274 99.5988 34.9507 89.9241 40.2801C80.2495 45.6096 72.4275 58.6372 72.4275 69.2961C72.4275 79.955 80.2495 84.2975 89.9241 78.9681Z" fill="#9595EF" stroke="black" stroke-width="2" stroke-miterlimit="10" stroke-linejoin="round"/>
<path fill-rule="evenodd" clip-rule="evenodd" d="M38.4635 70.0198L33.3174 69.8882C32.5627 69.8882 31.8765 69.6251 31.259 69.0987L30.4356 68.4407C29.7495 67.8486 29.4064 67.059 29.4064 66.2037V64.2956L28.9947 64.164C28.3086 63.9666 27.8283 63.6376 27.348 63.1771L25.9071 61.5322C25.4268 61.0058 25.221 60.4137 25.221 59.7557L25.1523 58.4398L24.6034 58.2424C23.8487 57.9792 23.2311 57.5186 22.8195 56.8607L21.9275 55.4132C21.3099 54.492 21.1041 53.5051 21.1727 52.3866L21.2413 51.7944C19.3201 50.8733 17.8792 49.0968 17.9478 46.7939L18.0165 45.2806L18.2223 42.1224C18.4281 40.4117 19.0457 40.0169 20.5552 39.8853C21.2413 39.8195 21.9961 39.8853 22.6136 40.1485L23.437 40.4775C24.1231 40.8065 24.5348 41.1355 25.0151 41.7934C25.4268 42.3856 25.7013 42.912 25.7699 43.6357L25.8385 44.0963V45.6096L26.7991 46.0044L27.8283 46.8597C28.7203 47.5835 29.132 48.5704 29.132 49.6889L29.0634 52.5181C29.5437 52.7155 29.8867 52.9129 30.367 53.2419L31.3962 54.0315C32.2882 54.6894 32.8371 56.0711 32.8371 57.1239L32.6999 60.611C33.935 60.6768 34.4839 61.0716 35.5817 61.927C36.3365 62.5191 36.7482 63.2429 36.954 64.164L37.4343 67.059L38.4635 70.0198Z" fill="white" stroke="black" stroke-width="2" stroke-miterlimit="10" stroke-linejoin="round"/>
<path fill-rule="evenodd" clip-rule="evenodd" d="M18.8398 41.7276L21.0354 43.3725L20.761 47.0571C20.761 47.1229 20.6237 47.1887 20.5551 47.1887C20.4865 47.1887 20.2807 46.9913 20.212 46.9255L19.3201 46.0702C19.0456 45.807 18.7025 45.478 18.7711 45.0832L18.8398 41.7276Z" fill="white" stroke="black" stroke-miterlimit="10" stroke-linejoin="round"/>
<path fill-rule="evenodd" clip-rule="evenodd" d="M21.9272 47.3861L24.4659 49.031V52.1892C24.4659 52.255 24.4659 52.3208 24.3973 52.3865C24.3287 52.4523 24.2601 52.4523 24.1915 52.4523H23.8484C23.3681 52.4523 22.8878 52.255 22.5447 51.8602L22.3389 51.597C22.0644 51.268 21.9272 50.939 21.9272 50.4785V47.3861Z" fill="white" stroke="black" stroke-miterlimit="10" stroke-linejoin="round"/>
<path fill-rule="evenodd" clip-rule="evenodd" d="M26.2501 54.2288L28.7888 56.0711V59.0319C28.7888 59.0977 28.7888 59.1635 28.7202 59.2293C28.6516 59.2951 28.5829 59.2951 28.5143 59.2951H28.1713C27.691 59.2951 27.2107 59.0977 26.8676 58.7029L26.6617 58.4398C26.3873 58.1108 26.2501 57.7818 26.2501 57.3212V54.2288Z" fill="white" stroke="black" stroke-miterlimit="10" stroke-linejoin="round"/>
<path fill-rule="evenodd" clip-rule="evenodd" d="M30.4353 62.1901L32.974 63.9666L32.7682 66.5327C32.7682 66.6643 32.631 66.7958 32.4937 66.7958H32.1507C31.6704 66.7958 31.1901 66.5985 30.847 66.2037C30.5725 65.8747 30.4353 65.0194 30.4353 64.6246V62.1901Z" fill="white" stroke="black" stroke-miterlimit="10" stroke-linejoin="round"/>
<path fill-rule="evenodd" clip-rule="evenodd" d="M25.7697 45.5438C25.2208 45.6096 24.8091 45.6754 24.466 45.7412C23.5741 45.9386 22.5448 46.2017 21.9959 46.9255C21.447 47.5834 21.3784 50.6758 21.3098 51.6628C21.2412 47.5176 21.1726 45.5438 25.7697 45.5438Z" fill="white" stroke="black" stroke-width="2" stroke-miterlimit="10" stroke-linejoin="round"/>
<path fill-rule="evenodd" clip-rule="evenodd" d="M36.2679 31.1345L38.3263 31.3319C38.5322 31.3319 38.6694 31.4635 38.738 31.5951C39.3555 32.5162 35.5817 36.135 34.8956 36.9245L32.4255 36.464C33.2488 34.6217 34.2094 32.911 35.719 31.3977C35.9248 31.2003 36.062 31.0687 36.2679 31.1345Z" fill="white" stroke="black" stroke-miterlimit="10" stroke-linejoin="round"/>
<path fill-rule="evenodd" clip-rule="evenodd" d="M28.9944 52.5182C27.8279 52.6497 26.3184 52.9787 25.8381 53.9657C25.4951 54.6236 25.4264 57.387 25.2892 58.3082C25.152 55.2816 25.0834 52.8471 28.9944 52.5182Z" fill="white" stroke="black" stroke-width="2" stroke-miterlimit="10" stroke-linejoin="round"/>
<path fill-rule="evenodd" clip-rule="evenodd" d="M32.5625 60.6768C29.6807 60.8742 29.6807 61.9927 29.5435 64.2956L32.5625 60.6768Z" fill="white"/>
<path d="M32.5625 60.6768C29.6807 60.8742 29.6807 61.9927 29.5435 64.2956" stroke="black" stroke-width="2" stroke-miterlimit="10" stroke-linejoin="round"/>
<path fill-rule="evenodd" clip-rule="evenodd" d="M45.119 30.3449C45.3249 30.9371 46.1483 32.4504 44.9818 33.8321C45.8738 32.911 46.6972 32.8452 47.6578 32.8452C46.1483 32.4504 45.668 31.2003 45.119 30.3449Z" fill="white" stroke="black" stroke-width="2" stroke-miterlimit="10" stroke-linejoin="round"/>
<path fill-rule="evenodd" clip-rule="evenodd" d="M58.43 32.3846C57.4008 32.911 57.0577 33.24 54.4504 33.4373C56.5774 33.6347 55.8913 34.2927 56.0971 35.5428C56.0971 33.6347 57.3322 33.3058 58.43 32.3846Z" fill="white" stroke="black" stroke-width="2" stroke-miterlimit="10" stroke-linejoin="round"/>
</svg>
