<svg width="110" height="110" viewBox="0 0 110 110" fill="none" xmlns="http://www.w3.org/2000/svg">
<path d="M84.0895 62.066L73.5068 68.6508" stroke="black" stroke-width="2" stroke-miterlimit="10" stroke-linecap="round" stroke-linejoin="round"/>
<path d="M32 43.8795C17.5 65.5 47.4026 91.6191 61.0425 99.7717C72.801 106.827 85.8922 99.0662 84.5596 84.7208C84.5596 84.6424 84.5596 84.6424 84.5596 84.564V69.1211C84.5596 68.494 84.246 67.9453 83.6973 67.5533C81.3456 66.2207 79.0722 64.8881 76.7205 63.4771L32 43.8795ZM55.0848 51.013C49.911 48.0342 44.7373 46.8583 39.5635 43.8795C38.3877 43.174 36.8983 42.2333 36.8983 43.5659L55.0848 51.013ZM81.8943 62.458C83.0701 63.1635 84.5596 62.3012 84.5596 60.9686V59.9495C84.4028 50.0723 80.64 40.4303 75.1527 32.1994C74.604 31.3371 74.8392 30.2396 75.7015 29.6909C77.1909 28.7502 78.3667 28.0447 79.9345 27.1824C80.7968 26.712 81.1104 25.6146 80.64 24.7523C80.2481 24.1252 79.9345 23.498 79.5426 22.8709C79.0722 22.0086 77.9748 21.7735 77.1125 22.2438C75.2311 23.3413 73.8985 24.2035 72.1739 25.3794C71.4684 25.8497 70.4493 25.7714 69.8222 25.0658C67.0785 21.7735 63.9429 18.9514 60.8073 17.1484C57.6717 15.3455 54.5361 14.4832 51.7924 14.3264C51.1653 14.248 50.6949 13.9344 50.3814 13.3857C47.9513 8.91745 46.4619 6.25218 43.9534 1.94072C43.4047 1.07843 42.2288 0.764869 41.4449 1.39199C40.661 1.94072 40.4258 2.9598 40.8962 3.7437C43.0911 7.42804 44.4237 9.85814 46.3835 13.3857C46.9322 14.3264 46.4619 15.5022 45.5212 15.8942C40.4258 18.0891 36.9767 23.89 36.9767 32.3561L33.0001 40.5L56.5001 56L81.8943 62.458ZM51.0085 36.1973C48.9704 35.0214 47.6377 32.5913 47.6377 30.1612C47.6377 27.7311 49.0488 26.8688 51.0085 27.9663C52.9683 29.1421 54.3009 31.4938 54.3009 34.0023C54.3009 36.5108 53.0467 37.3731 51.0085 36.1973ZM70.6061 47.6422C68.6463 46.4664 67.3137 44.0363 67.3137 41.6062C67.3137 39.0977 68.568 38.2354 70.5277 39.4113C72.4875 40.5871 73.8985 43.0172 73.8985 45.5257C73.8985 47.8774 72.5659 48.7397 70.6061 47.6422Z" fill="#9595EF" stroke="black" stroke-width="2" stroke-miterlimit="10" stroke-linejoin="round"/>
<path d="M27.1768 48.5045L37.9946 42.2332" stroke="black" stroke-width="2" stroke-miterlimit="10" stroke-linecap="round" stroke-linejoin="round"/>
<path d="M64.0206 37.2162L60.8066 39.0192L72.2516 69.2778C72.2516 69.2778 83.6966 62.6147 84.6373 62.0659C85.578 61.5172 84.0885 52.7375 82.6775 48.1125C81.2665 43.4874 78.9148 37.5298 74.9169 31.8073" fill="#9595EF"/>
<path d="M64.0206 37.2162L60.8066 39.0192L72.2516 69.2778C72.2516 69.2778 83.6966 62.6147 84.6373 62.0659C85.578 61.5172 84.0885 52.7375 82.6775 48.1125C81.2665 43.4874 78.9148 37.5298 74.9169 31.8073" stroke="black" stroke-width="2" stroke-miterlimit="10" stroke-linecap="round" stroke-linejoin="round"/>
<path d="M26.0017 63.6338C25.8449 79.9389 36.506 98.2039 50.1459 106.356C61.9044 113.412 74.9956 105.651 73.663 91.3055C73.663 91.2271 73.663 91.2271 73.663 91.1487V75.7059C73.663 75.0787 73.3494 74.53 72.8007 74.1381C58.0633 65.6719 43.4043 57.049 28.667 48.6612C27.4911 47.9557 26.0017 48.818 26.0017 50.1506V63.6338ZM64.7265 36.2756C66.2159 35.3349 67.3917 34.6294 68.9595 33.7671C69.8218 33.2967 70.1354 32.1993 69.6651 31.337C69.2731 30.7099 68.9595 30.0827 68.5676 29.4556C68.0973 28.5933 66.9998 28.3582 66.1375 28.8285C64.2561 29.926 62.9235 30.7883 61.1989 31.9641C60.4934 32.4345 59.4743 32.3561 58.8472 31.6506C56.1036 28.3582 52.9679 25.5361 49.8323 23.7331C46.6967 21.9302 43.5611 21.0679 40.8175 20.9111C40.1903 20.8327 39.72 20.5191 39.4064 19.9704C36.9763 15.5022 35.4869 12.8369 32.9784 8.52544C32.4297 7.58476 31.2539 7.34959 30.3916 7.89832C29.6077 8.44705 29.3725 9.46612 29.8428 10.25C32.0378 13.9344 33.3704 16.3645 35.3301 19.892C35.8789 20.8327 35.4085 22.0086 34.4679 22.4005C29.4509 24.517 26.0017 30.3963 26.0017 38.8625V41.9981C26.0017 42.6252 26.3153 43.2523 26.864 43.5659C41.6798 51.9536 56.3387 60.4982 70.9977 69.0427C72.1735 69.7482 73.663 68.8859 73.663 67.5533V66.5342C73.5062 56.657 69.7435 47.015 64.2561 38.7841C63.629 37.9218 63.9426 36.8243 64.7265 36.2756ZM40.1119 42.782C38.0738 41.6061 36.7412 39.176 36.7412 36.7459C36.7412 34.3158 38.1522 33.4535 40.1119 34.551C42.0717 35.7268 43.4043 38.0786 43.4043 40.587C43.4043 43.0955 42.1501 43.9578 40.1119 42.782ZM59.7095 54.2269C57.7497 53.0511 56.4171 50.621 56.4171 48.1909C56.4171 45.6824 57.6714 44.8201 59.6311 45.996C61.5909 47.1718 63.0019 49.6019 63.0019 52.1104C63.0019 54.4621 61.6693 55.3244 59.7095 54.2269Z" fill="white" stroke="black" stroke-width="2" stroke-miterlimit="10" stroke-linejoin="round"/>
<path d="M66.2939 107.14L79.1499 99.2229" stroke="black" stroke-width="2" stroke-miterlimit="10" stroke-linejoin="round"/>
<path d="M73.5068 75.0004L84.6383 68.6508" stroke="black" stroke-width="2" stroke-miterlimit="10" stroke-linejoin="round"/>
<path d="M69.3506 33.532L80.1684 27.0256" stroke="black" stroke-width="2" stroke-miterlimit="10" stroke-linecap="round" stroke-linejoin="round"/>
<path d="M30.3926 7.89834L41.6808 1" stroke="black" stroke-width="2" stroke-miterlimit="10" stroke-linecap="round" stroke-linejoin="round"/>
<path d="M32.4297 7.89834L39.328 19.892L48.8916 25.8497L58.3768 33.5319L67.3917 28.5934L70.5273 26.3984C70.5273 26.3984 65.04 19.6569 60.023 16.7564C56.809 14.8751 51.0082 14.0912 51.0082 14.0912L43.4043 1.39195L42.3068 1L31.5674 7.19283L32.4297 7.89834Z" fill="#9595EF" stroke="black" stroke-width="2" stroke-miterlimit="10" stroke-linecap="round" stroke-linejoin="round"/>
<path d="M67.9404 28.2798L77.6608 22.1654" stroke="black" stroke-width="2" stroke-miterlimit="10" stroke-linecap="round" stroke-linejoin="round"/>
</svg>
