<svg width="110" height="110" viewBox="0 0 110 110" fill="none" xmlns="http://www.w3.org/2000/svg">
<path d="M87.6435 103.443V31.1514C87.6435 29.5072 86.7419 27.969 85.3098 27.1735L41.2878 2.98789C40.174 2.35143 38.9011 2.51054 37.9464 3.09397L32.1652 6.4354L35.6657 12.8531L36.5144 12.3227V74.4308C36.5144 76.075 37.363 77.5601 38.795 78.3557L75.6568 99.412L74.0656 102.064L80.9607 108.216L86.6358 104.981C86.7419 104.928 86.8479 104.875 86.901 104.822C87.3253 104.504 87.6435 104.026 87.6435 103.443Z" fill="white" stroke="black" stroke-width="2" stroke-miterlimit="10" stroke-linejoin="round"/>
<path d="M79.7407 30.3558C81.1727 31.1514 82.0744 32.6895 82.0744 34.3337V106.625C82.0744 107.898 80.6954 108.694 79.5816 108.057L33.1728 81.538C31.7408 80.7424 30.8922 79.2573 30.8922 77.6131V8.98127C30.8922 6.48846 33.5441 4.95034 35.7187 6.11719L79.7407 30.3558Z" fill="white" stroke="black" stroke-width="2" stroke-miterlimit="10" stroke-linejoin="round"/>
<path d="M51.6302 22.9305C52.4258 23.3548 52.9032 24.2034 52.9032 25.052V64.0884C52.9032 64.7779 52.1606 65.2022 51.5772 64.884L26.543 50.5636C25.8005 50.1393 25.3231 49.3437 25.3231 48.442V11.4211C25.3231 10.0952 26.7552 9.24654 27.922 9.883L51.6302 22.9305Z" fill="white" stroke="black" stroke-width="2" stroke-miterlimit="10" stroke-linejoin="round"/>
<path d="M84.355 40.7513C85.1506 41.1756 85.6279 42.0242 85.6279 42.8728V81.9092C85.6279 82.5987 84.8854 83.023 84.302 82.7048L59.2678 68.3844C58.5252 67.9601 58.0479 67.1645 58.0479 66.2628V29.2419C58.0479 27.916 59.4799 27.0673 60.6468 27.7038L84.355 40.7513Z" fill="white" stroke="black" stroke-width="2" stroke-miterlimit="10" stroke-linejoin="round"/>
<path d="M63.5639 78.0904C64.7307 78.7269 65.4733 79.9468 65.4733 81.3258V85.8871C65.4733 86.8948 64.3595 87.5843 63.4578 87.054L25.6944 65.4673C24.5275 64.8308 23.838 63.6109 23.838 62.2849V59.6861C23.838 57.6706 26.0126 56.3977 27.7629 57.3524L63.5639 78.0904Z" fill="white" stroke="black" stroke-width="2" stroke-miterlimit="10" stroke-linejoin="round"/>
<path d="M82.9231 88.8043C84.0899 89.4408 84.8324 90.6606 84.8324 92.0396V97.1313C84.8324 98.1391 83.7186 98.8286 82.817 98.2982L70.6181 91.2971C69.4513 90.6606 68.7618 89.4408 68.7618 88.1148V85.5159C68.7618 83.5004 70.9364 82.2275 72.6866 83.1822L82.9231 88.8043Z" fill="white" stroke="black" stroke-width="2" stroke-miterlimit="10" stroke-linejoin="round"/>
<path d="M22.2469 25.264V31.4164C22.2469 32.0529 21.5574 32.4242 21.1861 31.9468L16.7309 26.9612C16.3596 26.5369 16.5187 25.8474 17.0491 25.6883L21.5043 24.5214C21.8756 24.4684 22.2469 24.8397 22.2469 25.264Z" fill="white" stroke="black" stroke-width="2" stroke-miterlimit="10" stroke-linejoin="round"/>
<path d="M89.5529 68.6496V62.4971C89.5529 61.8606 90.2424 61.4894 90.6136 61.9667L95.0689 67.0054C95.4401 67.4297 95.281 68.1192 94.7506 68.2783L90.2954 69.4452C89.9241 69.4452 89.5529 69.1269 89.5529 68.6496Z" fill="white" stroke="black" stroke-width="2" stroke-miterlimit="10" stroke-linejoin="round"/>
<path d="M48.2358 25.6884C48.8192 26.0066 49.1905 26.6431 49.1905 27.3326V57.5115C49.1905 58.0419 48.6071 58.3601 48.1828 58.0949L28.8237 47.0629C28.2403 46.7447 27.869 46.1082 27.869 45.4187V16.7779C27.869 15.7702 28.9828 15.0807 29.8845 15.611L48.2358 25.6884Z" fill="#9595EF"/>
<path d="M51.1529 86.0464C52.2137 86.6298 52.9032 87.7966 52.9032 89.0165V97.7679C52.9032 99.1469 51.4181 99.9955 50.2513 99.306L16.3066 79.8939C15.2458 79.3105 14.6094 78.1436 14.6094 76.9768V69.2862C14.6094 67.4298 16.5718 66.263 18.216 67.1646L51.1529 86.0464Z" fill="#9595EF"/>
</svg>
