<svg width="69" height="51" viewBox="0 0 69 51" fill="none" xmlns="http://www.w3.org/2000/svg">
<path d="M26.8611 0.362305H0.00143433V23.8654H15.2792C15.1383 38.5006 1.50218 41.2649 1.50218 41.2649C1.50218 41.2649 1.43031 41.7551 1.50218 50.6389C24.2362 46.2775 26.657 29.1756 26.8539 23.8654H26.8597V23.7188C26.8899 22.8103 26.8597 22.2411 26.8597 22.2411V0.362305H26.8611Z" fill="black" fill-opacity="0.1"/>
<path d="M68.9856 22.2396V0.362305H42.1274V23.8654H57.4066C57.2657 38.5006 43.6296 41.2649 43.6296 41.2649C43.6296 41.2649 43.5577 41.7551 43.6296 50.6389C66.3636 46.2775 68.7844 29.1756 68.9813 23.8654H68.9871V23.7188C69.0158 22.8103 68.9856 22.2396 68.9856 22.2396Z" fill="black" fill-opacity="0.1"/>
</svg>
