<svg width="110" height="110" viewBox="0 0 110 110" fill="none" xmlns="http://www.w3.org/2000/svg">
<path d="M90.7029 49.7515C84.1817 45.0711 80.5837 42.5081 75.5241 38.7192C75.0744 38.3849 74.7371 38.0506 74.3998 37.8277C73.7252 37.2705 72.9381 36.7133 72.1511 36.1561C71.0267 35.3761 70.1272 34.0388 69.6775 32.4787C66.6418 22.8951 65.1801 18.1033 62.2568 8.63106C61.5822 6.29087 60.0081 4.73074 58.6588 4.50787C58.434 4.28499 58.2091 4.17356 58.0967 4.50787C57.5345 4.50787 55.1734 7.40525 52.5873 9.634C48.877 13.3114 45.9537 15.6516 45.9537 15.6516C48.6521 15.9859 50.7884 17.3232 50.7884 17.3232C50.2262 18.3261 49.7765 19.4405 49.1018 20.5549C48.6521 21.4464 47.7526 21.7807 46.7407 21.4464C40.107 18.8833 36.734 17.5461 29.763 14.7601C27.0645 13.6457 25.9402 17.2118 27.8516 20.6663C32.7987 29.6928 35.1599 34.1503 39.7697 42.9538C40.4443 44.2911 40.7816 45.8512 40.5568 47.077C39.2075 54.9891 38.5329 59.0008 37.1837 66.8015C36.6215 69.8103 39.2075 73.822 41.5687 73.5992C47.6402 73.042 50.7884 72.7076 56.9723 72.2619C57.9842 72.1505 59.1086 72.8191 60.0081 73.9335C64.7304 79.7282 63.606 79.0596 67.7661 83.9628C65.9671 82.5141 68.6656 85.3001 67.7661 83.9628C65.0677 79.8396 66.7542 87.5288 66.7542 87.5288L69.0029 104.802L80.2464 94.3265L80.3589 94.2151C80.921 93.6579 81.1459 92.7664 81.0335 91.4292C79.7967 82.1798 79.1221 77.4995 77.8853 68.2501C77.6604 66.8015 79.4594 69.0302 80.2464 68.5845C85.5309 65.4642 86.3179 64.2384 92.5019 59.7809C94.6381 58.5551 93.7387 51.9803 90.7029 49.7515Z" fill="#9595EF" stroke="black" stroke-width="2.6294" stroke-miterlimit="10" stroke-linejoin="round"/>
<path d="M36.2837 31.9215L16.9448 25.4581C16.9448 25.4581 25.8272 21.7807 27.4013 15.6516" fill="#9595EF"/>
<path d="M36.2837 31.9215L16.9448 25.4581C16.9448 25.4581 25.8272 21.7807 27.4013 15.6516" stroke="black" stroke-width="2.6294" stroke-miterlimit="10" stroke-linejoin="round"/>
<path d="M65.4048 103.353C58.8835 95.6638 55.6229 91.8749 49.439 84.2971C48.5395 83.1828 47.3027 82.5141 46.4032 82.6256C40.1068 83.1828 37.0711 83.4056 30.9996 83.9628C28.6384 84.1857 26.0524 80.174 26.6146 77.1651C27.9638 69.3645 28.6384 65.3528 29.9877 57.4407C30.2125 56.2149 29.8752 54.6548 29.2006 53.3175C24.4783 44.5139 22.2296 40.0564 17.2825 31.03C15.3711 27.5754 16.4954 24.0094 19.1939 25.1238C26.1649 27.9097 29.5379 29.1356 36.1716 31.8101C37.1835 32.2558 38.083 31.9215 38.5328 30.9186C41.6809 24.9009 43.1426 21.7807 46.1784 15.763C47.3027 13.4229 50.5633 15.3173 51.6877 18.9947C54.4986 28.4669 55.9602 33.2587 59.1084 42.8424C59.5582 44.2911 60.4576 45.6283 61.582 46.5198C68.553 51.7574 72.1509 54.4319 80.1338 60.1152C83.1696 62.2325 84.4064 67.0243 82.1577 68.1387C76.4235 71.0361 73.725 72.5962 68.4405 75.7165C67.6535 76.1622 67.3162 77.388 67.4286 78.7253C68.6654 87.9746 69.34 92.655 70.5768 101.904C70.9141 105.47 67.9908 106.362 65.4048 103.353Z" fill="white" stroke="black" stroke-width="2.6294" stroke-miterlimit="10" stroke-linejoin="round"/>
</svg>
