<svg width="110" height="110" viewBox="0 0 110 110" fill="none" xmlns="http://www.w3.org/2000/svg">
<path d="M49.5269 54.1163V61.072L32.9852 69.5799V77.9685L17 85.9391L17.2783 94.2082L67.7383 66.535V43.459L49.5269 54.1163Z" fill="white" stroke="black" stroke-width="2" stroke-miterlimit="10" stroke-linejoin="round"/>
<path d="M74.3241 67.3709V74.834L57.7823 83.8793V91.7603L41.7971 99.1936L42.0754 108L92.5354 80.3268V57.7882L74.3241 67.3709Z" fill="white" stroke="black" stroke-width="2" stroke-miterlimit="10" stroke-linejoin="round"/>
<path d="M17.2783 94.2082L42.0754 108L41.7971 99.1936L17 85.9391L17.2783 94.2082Z" fill="#9595EF" stroke="black" stroke-width="2" stroke-miterlimit="10" stroke-linejoin="round"/>
<path d="M57.7824 91.7604L32.9852 77.9685V69.58L57.7824 83.8793V91.7604Z" fill="#9595EF" stroke="black" stroke-width="2" stroke-miterlimit="10" stroke-linejoin="round"/>
<path d="M74.3241 74.834L49.527 61.072V54.1163L74.3241 67.3708V74.834Z" fill="#9595EF" stroke="black" stroke-width="2" stroke-miterlimit="10" stroke-linejoin="round"/>
<path d="M67.7384 43.459L92.5355 57.7882L74.3241 67.3708L49.527 54.1163L67.7384 43.459Z" fill="white" stroke="black" stroke-width="2" stroke-miterlimit="10" stroke-linejoin="round"/>
<path d="M74.3241 74.834L49.527 61.072L32.9852 69.58L57.7824 83.8793L74.3241 74.834Z" fill="white" stroke="black" stroke-width="2" stroke-miterlimit="10" stroke-linejoin="round"/>
<path d="M57.7823 91.7604L32.9852 77.9685L17 85.9391L41.7971 99.1936L57.7823 91.7604Z" fill="white" stroke="black" stroke-width="2" stroke-miterlimit="10" stroke-linejoin="round"/>
<path d="M63.1623 28.4728C59.7303 25.9652 54.7523 26.8608 54.7523 23.7561C54.7523 17.7558 57.4732 13.9645 61.6163 12.8003C61.7091 12.7704 61.8018 12.8003 61.8946 12.86" fill="white"/>
<path d="M63.1623 28.4728C59.7303 25.9652 54.7523 26.8608 54.7523 23.7561C54.7523 17.7558 57.4732 13.9645 61.6163 12.8003C61.7091 12.7704 61.8018 12.8003 61.8946 12.86" stroke="black" stroke-width="2" stroke-miterlimit="10" stroke-linejoin="round"/>
<path d="M62.9459 37.1003C62.9459 37.1003 62.9768 38.8318 64.059 39.8468C64.8629 40.5931 65.3267 40.7722 67.7384 41.1006C70.1501 41.4289 75.3445 42.4738 75.4372 39.1303" fill="white"/>
<path d="M62.9459 37.1003C62.9459 37.1003 62.9768 38.8318 64.059 39.8468C64.8629 40.5931 65.3267 40.7722 67.7384 41.1006C70.1501 41.4289 75.3445 42.4738 75.4372 39.1303" stroke="black" stroke-width="2" stroke-miterlimit="10" stroke-linejoin="round"/>
<path d="M79.4876 13.8452C77.3232 7.66576 73.8603 3.99391 72.1597 2.47143C71.5723 1.93409 70.6756 1.84453 69.9645 2.26246C67.6455 3.63568 62.4202 7.36724 60.1322 13.8452C57.8133 20.4426 59.1737 28.2938 59.8848 32.6224C60.2559 34.8017 62.0183 36.3839 63.9971 37.3093C66.4706 38.4437 69.006 38.6527 71.696 38.981C73.0255 39.1303 74.3859 39.2199 75.6845 38.8915C78.4054 38.2347 79.0856 36.2943 79.4567 33.8464C79.7968 31.7567 80.075 29.6671 80.2606 27.5475C80.7553 23.0697 81.0026 18.1738 79.4876 13.8452Z" fill="white" stroke="black" stroke-width="2" stroke-miterlimit="10" stroke-linejoin="round"/>
<path d="M62.9459 42.7722V49.3398" stroke="#9595EF" stroke-width="3" stroke-miterlimit="10" stroke-linecap="round"/>
<path d="M68.1402 47.1606V53.7282" stroke="#9595EF" stroke-width="3" stroke-miterlimit="10" stroke-linecap="round"/>
<path d="M73.3347 45.877V52.4445" stroke="#9595EF" stroke-width="3" stroke-miterlimit="10" stroke-linecap="round"/>
<path d="M79.2403 27.8759C79.3949 26.025 79.2403 22.6517 79.1166 20.8606C79.0857 20.5322 79.5494 20.4128 79.704 20.6814C83.167 25.9056 86.0116 31.9358 86.0425 38.0855C86.0734 40.8319 82.2394 36.0555 78.9929 33.9957C78.56 33.727 78.3436 33.2493 78.4364 32.7419C78.6837 31.6373 79.0857 29.6073 79.2403 27.8759Z" fill="white" stroke="black" stroke-width="2" stroke-miterlimit="10" stroke-linejoin="round"/>
<path d="M70.8612 24.9801C70.4902 25.4279 70.0573 25.816 69.5317 26.0548C67.5529 26.9504 65.574 25.398 64.6156 23.8457C62.9459 21.1888 62.9459 13.0689 67.9857 14.3228C69.2534 14.6511 70.3047 15.6064 70.9231 16.711C71.5414 17.8453 71.7888 19.0992 71.8816 20.3828C71.9743 21.4575 71.9434 22.5919 71.6033 23.6069C71.4487 24.1144 71.2013 24.5622 70.8612 24.9801Z" fill="white" stroke="black" stroke-width="2" stroke-miterlimit="10" stroke-linejoin="round"/>
</svg>
