<svg width="110" height="110" viewBox="0 0 110 110" fill="none" xmlns="http://www.w3.org/2000/svg">
<path d="M103.926 63.998C99.4579 58.6799 95.0883 53.2882 90.8169 47.823C90.2768 47.1123 89.9822 46.7447 89.4421 46.0585C89.1721 45.6909 88.8284 45.5683 88.5829 45.6664C88.4847 45.7154 88.4111 45.7889 88.362 45.8869L84.6061 49.6121L84.9252 49.7346C84.0169 49.8817 83.0104 49.6856 81.9548 49.0974C80.5801 48.3377 79.3036 47.0388 78.2971 45.4703C77.7816 44.6616 77.3152 43.7793 76.947 42.848C76.4805 41.6962 76.1368 40.4708 75.9405 39.2209C75.8423 38.5347 75.3268 37.922 74.9094 38.0445C70.2943 39.1474 65.6792 40.2257 61.0641 41.2795C60.9659 41.304 60.8922 41.353 60.8186 41.4266L56.8663 45.3723L61.4323 48.8523L62.2178 47.2594C63.2243 50.1758 64.2063 53.1167 65.1882 56.0576C65.4337 56.8418 66.0229 57.3565 66.4893 57.2339C67.3976 56.9888 67.8395 56.8908 68.7478 56.6457C69.3369 56.4987 70.0243 57.4545 69.9997 58.3613C69.8279 65.6645 69.656 72.9923 69.4842 80.2955C69.4597 81.0307 69.877 81.8395 70.3925 82.1091C76.4805 85.3931 82.544 88.7506 88.632 92.0836L90.154 98.6516L94.0327 94.7549C94.2536 94.6324 94.4009 94.3628 94.4255 93.9707C94.4991 86.5694 94.5482 79.1682 94.6219 71.7914C94.6219 70.8846 95.4074 70.7376 96.0457 71.5463C96.3157 71.9139 96.5367 72.1835 96.7576 72.4531L94.941 74.0216V78.2859L98.8442 74.3647C99.0161 74.3402 99.1633 74.2667 99.2861 74.0951C101.324 70.9091 102.355 69.3161 104.441 66.1547C104.687 65.6155 104.49 64.6597 103.926 63.998Z" fill="#9595EF" stroke="black" stroke-width="2" stroke-miterlimit="10" stroke-linejoin="round"/>
<path d="M86.8892 51.7442C86.3491 51.0335 86.0545 50.6659 85.5145 49.9797C85.0726 49.3915 84.508 49.416 84.3607 50.0042C84.1397 50.9845 83.8206 51.6707 83.256 52.3569C82.7896 52.9206 82.225 53.3127 81.5867 53.5332C80.5557 53.8764 79.3037 53.7538 78.0026 53.0431C76.6279 52.2834 75.3514 50.9845 74.3449 49.416C73.8294 48.6072 73.3629 47.725 72.9947 46.7937C72.5283 45.6418 72.1846 44.4165 71.9882 43.1666C71.89 42.4804 71.3745 41.8677 70.9572 41.9902C66.3421 43.093 61.727 44.1714 57.1118 45.2252C56.6209 45.3477 56.4736 46.0585 56.7436 46.8427C58.2902 51.205 59.7631 55.5919 61.2114 59.9787C61.4569 60.763 62.0461 61.2776 62.5125 61.1551C63.4208 60.91 63.8627 60.812 64.771 60.5669C65.3601 60.4199 66.0475 61.3757 66.0229 62.2824C65.8511 69.5857 65.6793 76.9134 65.5074 84.2167C65.4829 84.9519 65.9002 85.7606 66.4157 86.0302C74.0994 90.172 81.7094 94.3873 89.3686 98.6026C89.9577 98.9212 90.4487 98.6026 90.4487 97.8673C90.5224 90.4661 90.5714 83.0648 90.6451 75.688C90.6451 74.7813 91.4306 74.6342 92.0689 75.443C92.7563 76.3252 93.1245 76.7664 93.8119 77.6731C94.3274 78.3103 94.9902 78.4574 95.2848 77.9918C97.3223 74.8058 98.3533 73.2128 100.44 70.0513C100.759 69.5612 100.563 68.6299 99.9981 67.9682C95.5302 62.6255 91.1606 57.2094 86.8892 51.7442Z" fill="white" stroke="black" stroke-width="2" stroke-miterlimit="10" stroke-linejoin="round"/>
<path d="M52.4723 35.4223C48.0045 30.1042 43.6348 24.7125 39.3634 19.2474C38.8233 18.5366 38.5287 18.169 37.9887 17.4828C37.7186 17.1152 37.375 16.9927 37.1295 17.0907C37.0313 17.1397 36.9576 17.2132 36.9085 17.3113L33.1526 21.0364L33.4717 21.1589C32.5635 21.306 31.557 21.1099 30.5014 20.5217C29.1267 19.762 27.8501 18.4631 26.8437 16.8946C26.3281 16.0859 25.8617 15.2036 25.4935 14.2723C25.0271 13.1205 24.6834 11.8951 24.487 10.6452C24.3888 9.959 23.8733 9.34631 23.456 9.46885C18.8408 10.5717 14.2257 11.65 9.6106 12.7038C9.51241 12.7283 9.43876 12.7774 9.36512 12.8509L5.36371 16.7966L9.92973 20.2767L10.7153 18.6837C11.7218 21.6001 12.7037 24.541 13.6857 27.4819C13.9311 28.2661 14.5203 28.7808 14.9867 28.6582C15.895 28.4132 16.3369 28.3151 17.2452 28.0701C17.8343 27.923 18.5217 28.8788 18.4972 29.7856C18.3253 37.0888 18.1535 44.4166 17.9816 51.7198C17.9571 52.4551 18.3744 53.2638 18.8899 53.5334C24.978 56.8174 31.0414 60.1749 37.1295 63.5079L38.6515 70.076L42.5301 66.1793C42.7511 66.0567 42.8984 65.7872 42.9229 65.395C42.9966 57.9938 43.0457 50.5925 43.1193 43.2157C43.1193 42.3089 43.9049 42.1619 44.5431 42.9706C44.8132 43.3383 45.0341 43.6078 45.255 43.8774L43.4384 45.4459V49.6612L47.3417 45.74C47.5135 45.7155 47.6608 45.642 47.7835 45.4704C49.8211 42.2844 50.8521 40.6914 52.9387 37.53C53.2333 37.0153 53.0369 36.084 52.4723 35.4223Z" fill="#9595EF" stroke="black" stroke-width="2" stroke-miterlimit="10" stroke-linejoin="round"/>
<path d="M35.4355 23.1686C34.8954 22.4579 34.6008 22.0903 34.0608 21.4041C33.6189 20.8159 33.0543 20.8404 32.907 21.4286C32.686 22.4089 32.3669 23.0951 31.8023 23.7813C31.3359 24.345 30.7713 24.7371 30.133 24.9577C29.102 25.3008 27.85 25.1783 26.5489 24.4675C25.1742 23.7078 23.8977 22.4089 22.8912 20.8404C22.3757 20.0317 21.9092 19.1494 21.541 18.2181C21.0746 17.0663 20.7309 15.8409 20.5345 14.591C20.4363 13.9048 19.9208 13.2921 19.5035 13.4146C14.8884 14.5175 10.2732 15.5958 5.65813 16.6496C5.16716 16.7722 5.01987 17.4829 5.2899 18.2671C6.83646 22.6295 8.30937 27.0163 9.75773 31.4032C10.0032 32.1874 10.5924 32.7021 11.0588 32.5795C11.9671 32.3345 12.409 32.2364 13.3173 31.9914C13.9064 31.8443 14.5938 32.8001 14.5692 33.7069C14.3974 41.0101 14.2256 48.3379 14.0537 55.6411C14.0292 56.3763 14.4465 57.1851 14.962 57.4547C22.6457 61.5964 30.2557 65.8117 37.9149 70.027C38.504 70.3456 38.995 70.027 38.995 69.2918C39.0686 61.8905 39.1177 54.4893 39.1914 47.1125C39.1914 46.2057 39.9769 46.0587 40.6152 46.8674C41.3026 47.7497 41.6708 48.1908 42.3581 49.0976C42.8737 49.7348 43.5365 49.8818 43.8311 49.4162C45.8686 46.2302 46.8996 44.6372 48.9862 41.4758C49.3054 40.9856 49.109 40.0543 48.5444 39.3926C44.0765 34.05 39.7069 28.6338 35.4355 23.1686Z" fill="white" stroke="black" stroke-width="2" stroke-miterlimit="10" stroke-linejoin="round"/>
<path d="M67.8149 65.6892C63.3471 60.371 58.9775 54.9794 54.706 49.5142C54.1659 48.8035 53.8714 48.4359 53.3313 47.7497C53.0613 47.382 52.7176 47.2595 52.4721 47.3575C52.3739 47.4066 52.3003 47.4801 52.2512 47.5781L48.4952 51.3032L48.8144 51.4258C47.9061 51.5728 46.8996 51.3768 45.844 50.7886C44.4693 50.0289 43.1928 48.73 42.1863 47.1615C41.6708 46.3527 41.2043 45.4705 40.8361 44.5392C40.3697 43.3873 40.026 42.1619 39.8296 40.9121C39.7314 40.2258 39.2159 39.6132 38.7986 39.7357C34.1835 40.8385 29.5683 41.9169 24.9532 42.9707C24.855 42.9952 24.7814 43.0442 24.7077 43.1177L20.7554 47.0634L25.2724 50.519L26.0579 48.926C27.0644 51.8424 28.0463 54.7833 29.0283 57.7242C29.2738 58.5085 29.8629 59.0231 30.3293 58.9006C31.2376 58.6555 31.6795 58.5575 32.5878 58.3124C33.177 58.1654 33.8643 59.1211 33.8398 60.0279C33.6679 67.3312 33.4961 74.6589 33.3243 81.9622C33.2997 82.6974 33.717 83.5061 34.2326 83.7757C40.3206 87.0597 46.3841 90.4173 52.4721 93.7503L53.9941 100.318L57.8728 96.4216C58.0937 96.2991 58.241 96.0295 58.2655 95.6374C58.3392 88.2361 58.3883 80.8348 58.4619 73.4581C58.4619 72.5513 59.2475 72.4042 59.8857 73.213C60.1558 73.5806 60.3767 73.8502 60.5977 74.1198L58.7811 75.6882V79.9526L62.6843 76.0313C62.8561 76.0068 63.0034 75.9333 63.1262 75.7618C65.1637 72.5758 66.1947 70.9828 68.2813 67.8213C68.5759 67.2822 68.3795 66.3509 67.8149 65.6892Z" fill="#9595EF" stroke="black" stroke-width="2" stroke-miterlimit="10" stroke-linejoin="round"/>
<path d="M50.7783 53.4354C50.2383 52.7246 49.9437 52.357 49.4036 51.6708C48.9617 51.0826 48.3971 51.1071 48.2498 51.6953C48.0289 52.6756 47.7098 53.3618 47.1452 54.048C46.6787 54.6117 46.1141 55.0038 45.4759 55.2244C44.4448 55.5675 43.1928 55.445 41.8918 54.7343C40.5171 53.9745 39.2405 52.6756 38.234 51.1071C37.7185 50.2984 37.2521 49.4161 36.8839 48.4848C36.4175 47.333 36.0738 46.1076 35.8774 44.8577C35.7792 44.1715 35.2637 43.5588 34.8464 43.6814C30.2312 44.7842 25.6161 45.8625 21.001 46.9164C20.51 47.0389 20.3627 47.7496 20.6328 48.5339C22.1793 52.8962 23.6522 57.283 25.1006 61.6699C25.3461 62.4541 25.9352 62.9688 26.4017 62.8462C27.31 62.6012 27.7518 62.5031 28.6601 62.2581C29.2493 62.111 29.9367 63.0668 29.9121 63.9736C29.7403 71.2768 29.5684 78.6046 29.3966 85.9078C29.372 86.643 29.7894 87.4518 30.3049 87.7214C37.9886 91.8631 45.5986 96.0784 53.2577 100.294C53.8469 100.612 54.3379 100.294 54.3379 99.5585C54.4115 92.1572 54.4606 84.756 54.5343 77.3792C54.5343 76.4724 55.3198 76.3254 55.9581 77.1341C56.6454 78.0164 57.0137 78.4575 57.701 79.3643C58.2165 80.0015 58.8793 80.1486 59.1739 79.6829C61.2115 76.4969 62.2425 74.9039 64.3291 71.7425C64.6482 71.2523 64.4519 70.321 63.8872 69.6593C59.4194 64.2922 55.0498 58.9005 50.7783 53.4354Z" fill="white" stroke="black" stroke-width="2" stroke-miterlimit="10" stroke-linejoin="round"/>
</svg>
