<svg width="110" height="110" viewBox="0 0 110 110" fill="none" xmlns="http://www.w3.org/2000/svg">
<path d="M84.7291 54.1505C86.3431 38.9134 80.3948 18.2772 66.8922 9.69628C54.4364 1.81072 42.4403 13.8298 40.7442 25.721C39.4139 35.4931 40.9326 45.3671 44.5593 54.4382C46.9134 60.3381 47.6364 66.7988 46.8594 72.4203C46.6374 74.0861 46.5009 74.9016 46.2788 76.5673C45.1724 84.4517 48.7863 92.993 54.368 96.5717C59.9532 100.123 64.0963 94.0609 66.1531 89.4715C66.3988 87.8367 67.1379 87.296 67.3563 85.6576C68.1716 79.9578 70.5215 75.463 74.115 73.5241C78.3947 71.232 83.1441 67.0848 84.7291 54.1505Z" fill="#9595EF" stroke="black" stroke-width="2" stroke-miterlimit="10" stroke-linejoin="round"/>
<path d="M45.8948 79.2397C52.7271 83.6522 59.6632 87.9117 66.3918 92.477L45.8948 79.2397Z" fill="#9595EF"/>
<path d="M45.8948 79.2397C52.7271 83.6522 59.6632 87.9117 66.3918 92.477" stroke="black" stroke-width="2" stroke-miterlimit="10" stroke-linejoin="round"/>
<path d="M55.4088 86.6777L49.4567 101.726C49.4567 101.726 63.5138 96.3456 64.0144 95.7176C67.2801 91.6506 68.0679 82.1952 68.0679 82.1952" fill="#9595EF"/>
<path d="M55.4088 86.6777L49.4567 101.726C49.4567 101.726 63.5138 96.3456 64.0144 95.7176C67.2801 91.6506 68.0679 82.1952 68.0679 82.1952" stroke="black" stroke-width="2" stroke-miterlimit="10" stroke-linecap="round" stroke-linejoin="round"/>
<path d="M73.093 58.0467C74.707 42.8096 68.7587 22.1734 55.2562 13.5925C42.7967 5.73421 30.8042 17.726 29.1045 29.6444C27.7778 39.3893 29.2929 49.2906 32.9196 58.3617C35.2737 64.2616 35.9967 70.7223 35.2197 76.3438C34.9977 78.0095 34.8612 78.8251 34.6391 80.4908C33.5054 88.3715 37.1466 96.9165 42.7283 100.495C48.3135 104.047 53.9914 101.691 55.1397 93.7008C55.3854 92.066 55.4982 91.2195 55.7166 89.5811C56.5319 83.8813 58.8819 79.3865 62.4753 77.4476C66.7587 75.1282 71.5044 71.0083 73.093 58.0467Z" fill="white" stroke="black" stroke-width="2" stroke-miterlimit="10" stroke-linejoin="round"/>
<path d="M35.7821 73.584C43.0531 78.2494 49.2045 81.515 56.3718 86.3334L35.7821 73.584Z" fill="white"/>
<path d="M35.7821 73.584C43.0531 78.2494 49.2045 81.515 56.3718 86.3334" stroke="black" stroke-width="2" stroke-miterlimit="10" stroke-linecap="round" stroke-linejoin="round"/>
<path d="M34.2551 83.1632C41.0875 87.5756 48.0235 91.8351 54.7521 96.4005L34.2551 83.1632Z" fill="white"/>
<path d="M34.2551 83.1632C41.0875 87.5756 48.0235 91.8351 54.7521 96.4005" stroke="black" stroke-width="2" stroke-miterlimit="10" stroke-linejoin="round"/>
<path d="M68.3458 29.6502C60.1658 11.1622 43.7655 11.3941 43.7655 11.3941C43.7655 11.3941 52.9094 8.47191 55.9877 7.27028C55.9877 7.27028 68.8398 4.25869 79.2482 24.3777" fill="#9595EF"/>
<path d="M68.3458 29.6502C60.1658 11.1622 43.7655 11.3941 43.7655 11.3941C43.7655 11.3941 52.9094 8.47191 55.9877 7.27028C55.9877 7.27028 68.8398 4.25869 79.2482 24.3777" stroke="black" stroke-width="2" stroke-miterlimit="10" stroke-linecap="round" stroke-linejoin="round"/>
</svg>
