<svg width="112" height="119" viewBox="0 0 112 119" fill="none" xmlns="http://www.w3.org/2000/svg">
<path fill-rule="evenodd" clip-rule="evenodd" d="M109.652 94.5042C110.03 105.322 89.3899 114.824 63.5539 115.726C37.7168 116.628 16.4647 108.59 16.0869 97.7716C15.7091 86.9534 36.3487 77.4512 62.1858 76.5489C88.0218 75.6467 109.274 83.686 109.652 94.5042Z" fill="#9595EF" fill-opacity="0.1" stroke="black" stroke-width="2.652" stroke-linecap="round" stroke-linejoin="round" stroke-dasharray="5.3 10.61"/>
<g clip-path="url(#clip0)">
<path d="M68.4669 103.592L89.3592 89.4997L77.9337 17.0838L57.8116 9.3839L48.7229 23.1461L47.3712 70.399L68.4669 103.592Z" fill="#9595EF" stroke="black" stroke-width="2" stroke-miterlimit="10"/>
<path d="M39.9834 80.5581L20.7102 89.3636L48.723 23.146L47.3712 70.3989L39.9834 80.5581Z" fill="#9595EF" stroke="black" stroke-width="2" stroke-miterlimit="10"/>
<path d="M43.3319 7.64826L1.05369 85.3985L20.7214 89.3174L26.5938 76.7363L46.7668 82.001L48.0617 98.0757L68.467 103.592L57.8117 9.38387L43.3319 7.64826ZM45.8659 64.6998L34.1632 61.5791L44.9734 39.2749L45.8659 64.6998Z" fill="white" stroke="black" stroke-width="2" stroke-miterlimit="10" stroke-linejoin="round"/>
</g>
<defs>
<clipPath id="clip0">
<rect x="21.1946" width="87.8443" height="90.262" transform="rotate(13.5805 21.1946 0)" fill="white"/>
</clipPath>
</defs>
</svg>
