<svg width="99" height="129" viewBox="0 0 99 129" fill="none" xmlns="http://www.w3.org/2000/svg">
<path fill-rule="evenodd" clip-rule="evenodd" d="M96.249 104.589C96.6267 115.407 75.9871 124.908 50.1511 125.811C24.314 126.713 3.06184 118.675 2.68406 107.856C2.30628 97.0381 22.9459 87.5359 48.783 86.6336C74.619 85.7314 95.8712 93.7707 96.249 104.589Z" fill="#9595EF" fill-opacity="0.1" stroke="black" stroke-width="2.652" stroke-linecap="round" stroke-linejoin="round" stroke-dasharray="5.3 10.61"/>
<g clip-path="url(#clip0)">
<path d="M68.0513 39.4223L75.0016 48.2364L81.1719 41.7987L82.7794 32.9235C85.4098 18.4005 79.5158 8.72222 65.3064 6.14858C62.3665 5.6161 59.6851 5.51931 57.1727 5.73091C56.1985 5.83222 55.269 5.99718 54.3841 6.22579L45.7903 9.28019L47.4585 9.69345C43.4906 12.9746 40.8091 18.1554 39.5524 25.0941L30.9791 72.4283C28.3389 87.0051 33.3057 101.182 48.3976 99.1934C53.6986 98.4869 58.2385 99.8092 61.9589 98.2053C61.3571 100.596 57.0539 106.039 56.8333 108.499C65.7234 103.498 71.759 93.1473 74.0972 80.238L79.3288 51.3534L59.1308 47.6951L50.9439 54.7119L54.0964 58.7272L57.3342 57.9248L56.8276 60.7218L63.4151 61.915L60.3755 78.6971C59.1967 85.2055 55.8923 86.9958 51.2647 86.1577C46.6372 85.3195 44.1804 82.4302 45.3495 75.9755L54.254 26.8125C55.4328 20.3041 58.7664 18.3524 63.394 19.1906C68.0216 20.0287 70.4589 23.0256 69.28 29.5341L67.8089 37.6562L66.6404 37.2779L67.6238 38.6782L67.5069 39.3237L68.0513 39.4223Z" fill="#9595EF" stroke="black" stroke-width="2" stroke-miterlimit="10" stroke-linejoin="round"/>
<path d="M50.944 54.7119L73.1019 58.7252L67.3832 90.2992C64.4994 106.221 54.7955 113.852 39.2251 111.032C23.6994 108.275 17.2981 97.6715 20.1819 81.75L29.554 30.0052C32.4475 14.0299 42.1514 6.39896 57.7219 9.21912C73.2923 12.0393 79.7033 22.589 76.8195 38.5105L75.0659 48.1925L60.0399 45.4709L61.9689 34.8207C63.2549 27.7206 60.5843 24.4592 55.5212 23.5422C50.4581 22.6251 46.8133 24.7427 45.5274 31.8428L35.785 85.6316C34.499 92.7317 37.189 95.8855 42.2521 96.8026C47.3152 97.7196 50.9405 95.7097 52.2265 88.6095L55.5486 70.2676L48.3623 68.9659L50.944 54.7119Z" fill="white" stroke="black" stroke-width="2" stroke-miterlimit="10" stroke-linejoin="round"/>
</g>
<defs>
<clipPath id="clip0">
<rect x="34.4263" width="54" height="109" transform="rotate(10.2663 34.4263 0)" fill="white"/>
</clipPath>
</defs>
</svg>
