<svg width="583" height="484" viewBox="0 0 583 484" fill="none" xmlns="http://www.w3.org/2000/svg">
<path fill-rule="evenodd" clip-rule="evenodd" d="M247.093 375.624C335.842 339.346 396.91 378.747 428.6 283.953C456.7 199.901 398.521 110.999 283.997 62.6954C111.506 -10.0587 33.4923 142.526 36.3593 228.53C37.7933 271.531 54.3864 355.247 100.96 386.312C147.534 417.378 203.851 393.3 247.093 375.624Z" fill="#FAFAFE"/>
<path fill-rule="evenodd" clip-rule="evenodd" d="M263.256 413.399C365.636 371.549 436.082 417.002 472.639 307.649C505.055 210.689 437.941 108.133 305.828 52.4109C106.846 -31.517 16.8511 144.502 20.1581 243.714C21.8121 293.319 40.9531 389.893 94.6811 425.729C148.407 461.566 213.373 433.79 263.256 413.399Z" stroke="#ECECFE"/>
<path fill-rule="evenodd" clip-rule="evenodd" d="M275.364 449.187C390.759 402.016 470.162 453.247 511.367 329.992C547.904 220.705 472.257 105.111 323.348 42.305C99.0678 -52.2937 -2.36922 146.103 1.35878 257.929C3.22278 313.841 24.7978 422.692 85.3558 463.085C145.913 503.478 219.139 472.17 275.364 449.187Z" stroke="#ECECFE"/>
<path d="M53.4434 24.3809C59.2423 24.3809 63.9434 19.6798 63.9434 13.8809C63.9434 8.08187 59.2423 3.38086 53.4434 3.38086C47.6444 3.38086 42.9434 8.08187 42.9434 13.8809C42.9434 19.6798 47.6444 24.3809 53.4434 24.3809Z" stroke="#DFDEF4" stroke-width="5"/>
<path d="M316.309 414.617L294.978 411.547" stroke="#DFDEF4" stroke-width="5" stroke-linecap="round"/>
<path d="M304.108 423.746L307.178 402.416" stroke="#DFDEF4" stroke-width="5" stroke-linecap="round"/>
<path d="M555.027 172.934L580.421 189.693L553.153 204.241L555.027 172.934Z" stroke="#DFDEF4" stroke-width="5" stroke-linejoin="round"/>
</svg>
