<svg width="1443" height="1418" viewBox="0 0 1443 1418" fill="none" xmlns="http://www.w3.org/2000/svg">
<path fill-rule="evenodd" clip-rule="evenodd" d="M370.813 839.217C335.059 577.072 156.642 485.498 339.454 278.974C501.548 95.8524 794.274 112.225 1067.72 319.267C1479.58 631.098 1222.58 1028.06 1013.09 1139.87C908.35 1195.78 685.393 1271.63 546.894 1203.19C408.394 1134.75 388.233 966.944 370.813 839.217Z" stroke="#F3F3FF"/>
<path fill-rule="evenodd" clip-rule="evenodd" d="M579.286 794.286C553.165 602.775 422.822 535.875 556.376 384.998C674.795 251.217 888.648 263.178 1088.42 414.433C1389.3 642.244 1201.55 932.248 1048.51 1013.93C971.987 1054.77 809.104 1110.19 707.923 1060.19C606.741 1010.19 592.012 887.598 579.286 794.286Z" stroke="#F3F3FF"/>
</svg>
