<svg width="73" height="21" viewBox="0 0 73 21" fill="none" xmlns="http://www.w3.org/2000/svg">
<g clip-path="url(#clip0)">
<path d="M19.26 0.961914H22.5889V20.3778H19.26V0.961914Z" fill="#17313B"/>
<path d="M34.1677 14.2248C34.1677 17.2329 31.5625 17.5063 30.694 17.5063C28.6677 17.5063 28.3783 15.7288 28.3783 14.7717V7.25146H25.0493V14.635C25.0493 16.4125 25.6283 18.0533 26.7862 19.0104C27.7993 19.9675 29.1019 20.3777 30.694 20.3777C31.8519 20.3777 33.2993 20.1042 34.1677 19.2838V20.3777H37.4967V7.25146H34.1677V14.2248Z" fill="#17313B"/>
<path d="M44.0104 2.46582H40.6815V7.25142H38.2209V10.2595H40.6815V20.3776H44.0104V10.2595H46.4709V7.25142H44.0104V2.46582Z" fill="#17313B"/>
<path d="M56.8914 16.4125C56.1677 16.9594 55.1546 17.3696 54.1414 17.3696C51.8256 17.3696 50.2335 15.7288 50.2335 13.5411C50.2335 11.3534 51.8256 9.84939 54.1414 9.84939C55.1546 9.84939 56.1677 10.1229 56.8914 10.8065L57.3256 11.2167L59.6414 9.16573L59.0625 8.75554C57.7598 7.66169 56.023 6.97803 54.1414 6.97803C50.0888 6.97803 47.0493 9.84939 47.0493 13.6779C47.0493 17.5064 50.0888 20.3777 54.1414 20.3777C56.023 20.3777 57.7598 19.6941 59.0625 18.6002L59.6414 18.19L57.3256 16.0023L56.8914 16.4125Z" fill="#17313B"/>
<path d="M71.3649 8.34542C70.3518 7.3883 69.3386 6.9781 67.7465 6.9781C66.5886 6.9781 65.4307 7.25156 64.5623 8.07195V0.961914H61.2334V20.3778H64.5623V13.131C64.5623 10.1229 66.7334 9.84946 67.6018 9.84946C69.6281 9.84946 69.4834 11.627 69.4834 12.5841V20.2411H72.8123V12.7208C72.8123 10.9433 72.3781 9.30254 71.3649 8.34542Z" fill="#17313B"/>
<path d="M53.9969 15.8656C55.2759 15.8656 56.3127 14.8862 56.3127 13.6779C56.3127 12.4697 55.2759 11.4902 53.9969 11.4902C52.718 11.4902 51.6812 12.4697 51.6812 13.6779C51.6812 14.8862 52.718 15.8656 53.9969 15.8656Z" fill="#EF4335"/>
<path d="M14.6285 15.5923C13.4706 16.6861 11.7338 17.3698 9.85221 17.3698C6.2338 17.3698 3.62854 14.6351 3.62854 10.9434C3.62854 7.25165 6.2338 4.51702 9.99695 4.51702C11.7338 4.51702 13.4706 5.20067 14.7733 6.43126L15.2075 6.84145L17.3785 4.79048L16.9443 4.38028C15.0627 2.60278 12.6022 1.64565 9.99695 1.64565C4.49696 1.50892 0.444336 5.61087 0.444336 10.9434C0.444336 16.2759 4.49696 20.3779 9.85221 20.3779C12.4575 20.3779 15.0627 19.4207 16.7996 17.6432L17.2338 17.233L15.0627 15.1821L14.6285 15.5923Z" fill="#17313B"/>
</g>
<defs>
<clipPath id="clip0">
<rect width="72.3683" height="19.4159" fill="white" transform="translate(0.44458 0.961914)"/>
</clipPath>
</defs>
</svg>
