<svg width="140" height="33" viewBox="0 0 140 33" fill="none" xmlns="http://www.w3.org/2000/svg">
<path d="M24.9924 13.8179H29.6786C33.4503 13.8179 36.0792 16.3895 36.0792 19.7041V19.7613C36.0792 23.0759 33.5075 25.6475 29.6786 25.6475H24.9924V13.8179ZM29.6786 23.2473C31.8502 23.2473 33.2789 21.8186 33.2789 19.7613V19.7041C33.2789 17.6468 31.8502 16.1609 29.6786 16.1609H27.6784V23.2473H29.6786Z" fill="#142C2E"/>
<path d="M38.365 13.8171H47.4515V16.1031H41.051V18.5033H46.7086V20.7892H41.051V23.2466H47.5658V25.5325H38.4221L38.365 13.8171Z" fill="#142C2E"/>
<path d="M49.0518 23.8753L50.6519 22.0465C51.7377 22.9037 52.8807 23.4752 54.2522 23.4752C55.338 23.4752 55.9667 23.018 55.9667 22.3894V22.3323C55.9667 21.6465 55.5095 21.3036 53.5665 20.8464C51.1662 20.2178 49.5661 19.5892 49.5661 17.2461V17.1889C49.5661 15.0745 51.2805 13.6458 53.795 13.6458C55.5095 13.6458 57.0525 14.1601 58.2526 15.1316L56.881 17.1318C55.8524 16.3889 54.7666 15.9888 53.7379 15.9888C52.7092 15.9888 52.1949 16.446 52.1949 17.0175V16.9603C52.1949 17.7033 52.7092 17.989 54.7666 18.5033C57.2239 19.132 58.5383 19.9892 58.5383 21.9894V22.0465C58.5383 24.3896 56.7096 25.704 54.1379 25.704C52.3092 25.704 50.4805 25.0754 49.0518 23.8753Z" fill="#142C2E"/>
<path d="M60.9385 13.8171H63.5673V25.5896H60.9385V13.8171Z" fill="#142C2E"/>
<path d="M66.0818 19.7032C66.0818 16.3315 68.7106 13.5884 72.3681 13.5884C74.5397 13.5884 75.797 14.1599 77.0542 15.2457L75.3969 17.2459C74.4826 16.5029 73.6825 16.0457 72.2538 16.0457C70.3107 16.0457 68.8249 17.703 68.8249 19.7032V19.7604C68.8249 21.932 70.3107 23.5321 72.4824 23.5321C73.4539 23.5321 74.3111 23.3035 74.9969 22.7892V21.1319H72.3109V18.9031H77.5114V23.9893C76.2541 25.018 74.5968 25.8752 72.3681 25.8752C68.5963 25.7038 66.0818 23.1893 66.0818 19.7032Z" fill="#142C2E"/>
<path d="M80.0259 13.8171H82.4832L88.0837 21.0178V13.8171H90.6554V25.5896H88.4266L82.5975 18.1032V25.5896H80.0259V13.8171Z" fill="#142C2E"/>
<path d="M93.5701 13.8174H99.0563C100.599 13.8174 101.742 14.2746 102.542 15.0175C103.228 15.7033 103.571 16.6176 103.571 17.7035V17.7606C103.571 19.6465 102.542 20.8466 100.999 21.4181L103.914 25.5899H100.828L98.2562 21.8181H98.1991H96.1418V25.5899H93.4558V13.8174H93.5701ZM98.8849 19.475C100.199 19.475 100.885 18.7893 100.885 17.8177V17.7606C100.885 16.6748 100.142 16.1033 98.8277 16.1033H96.1989V19.475H98.8849Z" fill="url(#paint0_linear)"/>
<path d="M105.8 20.5033V13.7598H108.428V20.389C108.428 22.332 109.4 23.2464 111 23.2464C112.6 23.2464 113.572 22.2748 113.572 20.389V13.7026H116.201V20.3318C116.201 23.875 114.143 25.6466 110.943 25.6466C107.743 25.6466 105.8 23.9321 105.8 20.5033Z" fill="url(#paint1_linear)"/>
<path d="M118.086 23.875L119.687 22.0463C120.772 22.9035 121.915 23.475 123.287 23.475C124.373 23.475 125.001 23.0178 125.001 22.3892V22.332C125.001 21.6462 124.544 21.3033 122.601 20.8462C120.201 20.2175 118.601 19.5889 118.601 17.2458V17.1887C118.601 15.0742 120.315 13.6455 122.83 13.6455C124.544 13.6455 126.087 14.1598 127.287 15.1314L125.916 17.1315C124.887 16.3886 123.801 15.9886 122.773 15.9886C121.744 15.9886 121.23 16.4458 121.23 17.0172V16.9601C121.23 17.703 121.744 17.9888 123.801 18.5031C126.259 19.1317 127.573 19.9889 127.573 21.9891V22.0463C127.573 24.3893 125.744 25.7037 123.173 25.7037C121.401 25.7037 119.515 25.0751 118.086 23.875Z" fill="url(#paint2_linear)"/>
<path d="M129.859 13.8167H132.488V18.5028H137.345V13.8167H139.974V25.5891H137.345V20.903H132.488V25.5891H129.859V13.8167Z" fill="url(#paint3_linear)"/>
<path d="M9.90548 20.4463C9.84834 20.4463 9.84834 20.3892 9.90548 20.4463L9.61974 20.2749L9.5626 20.2177L2.81913 15.4173C2.81913 15.4173 2.76198 15.4173 2.76198 15.3601L2.64768 15.2458L2.59053 15.1887H2.47624L0.533203 13.8171L4.36212 14.3886C4.53357 14.3886 4.59072 14.4458 4.76216 14.5029C4.81931 14.5029 4.9336 14.5601 4.9336 14.5601C5.10505 14.6172 5.1622 14.6744 5.27649 14.7315C5.39079 14.7887 5.44794 14.8458 5.56223 14.903C5.61938 14.9601 5.73368 15.0172 5.73368 15.0744C5.79082 15.1315 5.84797 15.1315 5.90512 15.1887C6.01942 15.2458 6.07656 15.303 6.07656 15.3601C6.24801 15.5316 6.36231 15.703 6.53375 15.8173L9.5626 20.1034L9.61974 20.1606L9.90548 20.4463Z" fill="#2AD2FF"/>
<path d="M9.90547 27.0755L9.61972 26.6183L9.56258 26.5612L0.590332 13.8171L2.53337 15.1887L2.87625 15.4173L9.61972 20.2177H9.67687L9.90547 20.3892C9.90547 20.3892 9.96261 20.3892 9.96261 20.4463L10.2484 20.2177L19.3349 13.8171L10.1912 26.6183L10.1341 26.6755L9.90547 27.0755Z" fill="url(#paint4_linear)"/>
<path d="M9.9054 18.2744L9.61966 17.8172L9.56251 17.7601L7.33374 14.6741L9.56251 15.1313H9.61966L9.9054 15.1884L10.1911 15.1313L12.3628 14.6169L10.1911 17.8172V17.8744L9.9054 18.2744Z" fill="#2AD2FF"/>
<path d="M19.3919 13.76L16.5344 14.16L15.4486 14.3315C14.5914 14.4458 13.7913 14.903 13.277 15.6459L10.2482 19.9891L10.191 20.0463L9.90527 20.4463L10.2482 20.1034L10.3053 20.0463L9.90527 20.4463L17.6203 14.9601L19.3919 13.76Z" fill="#2AD2FF"/>
<path d="M11.3342 4.73053C11.3342 7.24505 6.9909 8.55945 6.9909 11.2454C6.93375 11.874 7.1052 12.5027 7.39094 13.0741C7.39094 13.0741 5.73364 11.474 5.73364 9.75956C5.73364 8.04512 7.33379 5.47346 7.33379 5.47346C7.33379 6.61642 7.79097 6.9593 8.24816 7.01645H8.30531C8.81964 7.01645 9.10538 6.61642 9.10538 6.04494C9.10538 5.47346 8.47675 4.90197 8.47675 3.75901C8.47675 2.6732 9.8483 0.901611 9.8483 0.901611C10.8198 2.04457 11.3342 3.35898 11.3342 4.73053Z" fill="#2AF4FF"/>
<path d="M10.1341 13.8741C8.76255 13.8741 7.73389 12.7883 7.73389 11.4738V11.4167C7.73389 8.50215 11.7914 8.21641 11.7914 4.27319C11.9057 4.44464 12.9915 5.93049 12.9915 7.53063C12.9915 9.53081 11.1056 10.0451 11.1056 11.0167C11.1056 11.4167 11.2771 11.7024 11.8485 11.7024C11.9057 11.7024 11.9628 11.7024 12.02 11.6453C13.1058 11.1881 13.8487 10.1594 13.9059 8.95933C13.9059 9.01648 14.4774 13.8741 10.1341 13.8741Z" fill="#2AF4FF"/>
<path d="M11.9059 11.7024C11.963 11.7024 12.0202 11.7024 12.0773 11.6453C11.5058 11.8167 9.39136 12.3311 9.39136 10.8452C9.39136 9.01648 12.5345 8.61645 12.5345 7.07345C12.5345 6.10193 12.3059 5.13041 11.7916 4.27319C11.9059 4.44464 12.9917 5.93049 12.9917 7.53063C12.9917 9.53081 11.1058 10.0451 11.1058 11.0167C11.1629 11.4167 11.3915 11.7024 11.9059 11.7024Z" fill="#2AD2FF"/>
<path d="M10.1913 5.7592C10.1913 7.1879 8.36259 7.0736 8.24829 7.01645H8.41974C8.93407 7.01645 9.21981 6.61642 9.21981 6.04494C9.21981 5.47346 8.59118 4.90197 8.59118 3.75901C8.59118 2.6732 9.96273 0.901611 9.96273 0.901611C9.50555 1.64454 9.27696 2.44461 9.21981 3.24468C9.21981 4.55909 10.1913 4.67338 10.1913 5.7592Z" fill="#2AD2FF"/>
<path d="M9.04827 30.733L7.79102 29.8758H9.33401L9.84835 28.3328L10.3055 29.8758H11.8485L10.5913 30.733L11.0485 32.2188L9.7912 31.3045L8.47679 32.2188L9.04827 30.733Z" fill="#2AD2FF"/>
<path d="M15.6203 30.733L14.363 29.8758H15.906L16.4204 28.3328L16.8776 29.8758H18.4205L17.1633 30.733L17.6205 32.2188L16.3632 31.3045L15.0488 32.2188L15.6203 30.733Z" fill="#2AD2FF"/>
<path d="M2.53338 30.733L1.27612 29.8758H2.81912L3.33345 28.3328L3.79064 29.8758H5.33363L4.07638 30.733L4.53356 32.2188L3.27631 31.3045L2.01905 32.2188L2.53338 30.733Z" fill="#2AD2FF"/>
<defs>
<linearGradient id="paint0_linear" x1="92.3471" y1="0.844774" x2="140.466" y2="0.844774" gradientUnits="userSpaceOnUse">
<stop offset="0.73" stop-color="#2AF4FF"/>
<stop offset="0.884" stop-color="#2AF4FF"/>
</linearGradient>
<linearGradient id="paint1_linear" x1="92.3469" y1="0.844322" x2="140.466" y2="0.844322" gradientUnits="userSpaceOnUse">
<stop offset="0.73" stop-color="#2AF4FF"/>
<stop offset="0.884" stop-color="#2AF4FF"/>
</linearGradient>
<linearGradient id="paint2_linear" x1="92.3469" y1="0.844344" x2="140.466" y2="0.844344" gradientUnits="userSpaceOnUse">
<stop offset="0.73" stop-color="#2AF4FF"/>
<stop offset="0.884" stop-color="#2AF4FF"/>
</linearGradient>
<linearGradient id="paint3_linear" x1="92.3469" y1="0.844041" x2="140.466" y2="0.844041" gradientUnits="userSpaceOnUse">
<stop offset="0.73" stop-color="#2AF4FF"/>
<stop offset="0.884" stop-color="#2AF4FF"/>
</linearGradient>
<linearGradient id="paint4_linear" x1="0.533184" y1="27.0995" x2="0.533184" y2="20.0851" gradientUnits="userSpaceOnUse">
<stop offset="0.73" stop-color="#2AF4FF"/>
<stop offset="0.884" stop-color="#2AF4FF"/>
</linearGradient>
</defs>
</svg>
