<svg width="144" height="22" viewBox="0 0 144 22" fill="none" xmlns="http://www.w3.org/2000/svg">
<path d="M8.83601 7.51043C8.83601 7.51043 7.6415 7.3921 7.6415 8.4334V13.0956H15.4775V14.4919C15.4775 14.4919 15.5014 15.1782 14.7608 15.1782H7.6415V21.2366H16.1942C16.1942 21.2366 21.3783 20.4557 21.4261 15.1782V7.51043H8.83601ZM21.1872 0.0793457H5.75418C0.163884 1.38097 0.0444336 5.92482 0.0444336 5.92482V21.2603H5.96919V7.29744C5.96919 6.11414 7.1637 5.90115 7.1637 5.90115H21.1633L21.1872 0.0793457ZM41.5655 16.8585C41.1594 17.1188 40.8488 17.3318 40.6338 17.4501C39.8693 17.9234 39.1526 18.2784 38.4837 18.5624C37.5042 18.9647 36.6441 19.154 35.8558 19.154C33.1801 19.154 30.9583 18.3494 29.1904 16.7165C27.3987 15.0835 26.5147 13.0246 26.5147 10.5633C26.5147 8.17308 27.3031 6.11414 28.9276 4.3392C30.5283 2.58793 32.4873 1.71229 34.7807 1.71229C35.7363 1.71229 36.7636 1.87795 37.8148 2.20927C39.2004 2.63526 40.2993 3.2979 41.2072 4.12621L39.6782 5.80649C39.0332 5.16751 38.1731 4.71786 37.1936 4.43387C36.453 4.22087 35.6408 4.10254 34.7329 4.10254C33.1323 4.10254 31.7706 4.74152 30.6716 6.01948C29.5965 7.3211 29.0471 8.83572 29.0471 10.6343C29.0471 12.4093 29.6682 13.8766 30.9105 15.0362C32.1528 16.1958 33.7295 16.7875 35.6408 16.7875C36.4291 16.7875 37.2414 16.5271 38.0776 16.0538C38.7704 15.5332 39.1287 15.2728 39.1287 15.2728V11.581H33.9446L34.6852 9.28537H41.5655V16.8585ZM57.1658 12.3619C57.1658 14.1369 56.5207 15.6752 55.2546 16.9768C53.9884 18.2784 52.4116 18.941 50.5243 18.941C48.7803 18.941 47.2753 18.3021 45.9613 17.0241C44.6473 15.7462 44.0023 14.2079 44.0023 12.3856C44.0023 10.587 44.6235 9.04871 45.8657 7.72342C47.108 6.39813 48.637 5.75916 50.4049 5.75916C52.3878 5.75916 53.9884 6.39813 55.2546 7.65243C56.5207 8.88305 57.1658 10.4687 57.1658 12.3619ZM54.7529 12.4093C54.7529 11.2023 54.3467 10.1847 53.5345 9.35637C52.7222 8.5044 51.7188 8.10208 50.5004 8.10208C49.3776 8.10208 48.422 8.52806 47.6097 9.4037C46.8213 10.2557 46.4152 11.2496 46.4152 12.3619C46.4152 13.5216 46.8213 14.5155 47.6097 15.3438C48.3981 16.1721 49.4015 16.5981 50.596 16.5981C51.7188 16.5981 52.6744 16.1958 53.4867 15.3675C54.3467 14.5155 54.7529 13.5216 54.7529 12.4093ZM72.5749 12.3619C72.5749 14.1369 71.9299 15.6752 70.6637 16.9768C69.3975 18.2784 67.8208 18.941 65.9335 18.941C64.1895 18.941 62.6844 18.3021 61.3704 17.0241C60.0565 15.7462 59.4115 14.2079 59.4115 12.3856C59.4115 10.587 60.0326 9.04871 61.2749 7.72342C62.5172 6.39813 64.0461 5.75916 65.814 5.75916C67.7969 5.75916 69.3975 6.39813 70.6637 7.65243C71.9299 8.88305 72.5749 10.4687 72.5749 12.3619ZM70.1381 12.4093C70.1381 11.2023 69.732 10.1847 68.9197 9.35637C68.1075 8.5044 67.1041 8.10208 65.8857 8.10208C64.7628 8.10208 63.8072 8.52806 62.995 9.4037C62.2066 10.2557 61.8005 11.2496 61.8005 12.3619C61.8005 13.5216 62.2066 14.5155 62.995 15.3438C63.7834 16.1721 64.7867 16.5981 65.9812 16.5981C67.1041 16.5981 68.0597 16.1958 68.872 15.3675C69.732 14.5155 70.1381 13.5216 70.1381 12.4093ZM86.8135 18.5861L84.5917 18.9174V16.7875L84.1139 17.3318C83.6838 17.7341 83.206 18.0417 82.7044 18.3021C81.9399 18.6571 81.1276 18.8227 80.2914 18.8227C78.5475 18.8227 77.0663 18.1837 75.8718 16.9294C74.6773 15.6752 74.0561 14.1369 74.0561 12.3856C74.0561 10.5633 74.6534 9.00138 75.8479 7.72342C77.0424 6.4218 78.4758 5.78282 80.2198 5.78282C81.2232 5.78282 82.0832 5.94848 82.7999 6.25614C83.3255 6.4928 83.7555 6.80045 84.1378 7.17911C84.2572 7.34477 84.3767 7.51043 84.52 7.67609V2.06728L86.8851 1.73596L86.8135 18.5861ZM84.735 12.5276C84.735 11.2733 84.305 10.2083 83.4449 9.35637C82.5849 8.48073 81.6054 8.05475 80.4826 8.05475C79.2403 8.05475 78.2608 8.45707 77.4963 9.28537C76.7796 10.0663 76.4212 11.0366 76.4212 12.1726C76.4212 13.4506 76.8035 14.5155 77.5441 15.3438C78.2847 16.1721 79.2164 16.5745 80.387 16.5745C81.5098 16.5745 82.5132 16.1958 83.3972 15.4148C84.2811 14.6339 84.735 13.6636 84.735 12.5276ZM99.3319 4.38654H92.6904V8.85939H97.8507V11.155H92.6904V18.5624L90.1103 18.941V2.06728H98.8302L99.3319 4.38654ZM104.659 3.08491L103.059 5.07285L101.53 3.08491L103.13 1.12064L104.659 3.08491ZM104.182 18.5861L101.816 18.9174V6.4218L104.182 6.06681V18.5861ZM114.884 5.92482L113.762 8.48073C113.618 8.45707 113.475 8.45707 113.308 8.45707C113.069 8.45707 112.854 8.48073 112.615 8.5044C112.376 8.52806 112.137 8.62273 111.874 8.76472C111.373 8.97772 110.943 9.45103 110.584 10.1373C110.178 10.942 109.963 11.8176 109.963 12.7169V18.5624L107.598 18.941V6.4218L109.796 6.01948V8.62273C110.082 8.17307 110.369 7.72342 110.656 7.25011C111.062 6.77679 111.54 6.44547 112.065 6.23247C112.352 6.11414 112.854 6.04315 113.642 5.97215C114.407 5.92482 114.837 5.90115 114.884 5.92482ZM132.563 18.5861L130.198 18.9174V10.3503C130.198 9.56936 130.031 8.97771 129.672 8.62273C129.314 8.26774 128.788 8.07841 128.096 8.07841C127.259 8.07841 126.638 8.40973 126.208 9.09604C125.922 9.56936 125.754 10.0663 125.754 10.5633V18.5387L123.389 18.9647V10.374C123.389 9.61669 123.222 9.04871 122.864 8.64639C122.505 8.24407 122.051 8.05475 121.454 8.05475H121.215C120.379 8.05475 119.782 8.38607 119.4 9.09604C119.113 9.61669 118.97 10.2793 118.97 11.084V18.5151L116.509 18.941V6.37447L118.731 5.99581V7.60509C118.97 7.22644 119.232 6.91878 119.447 6.70579C120.092 6.11414 120.833 5.83015 121.669 5.83015C122.601 5.83015 123.294 5.97215 123.772 6.27981C124.178 6.54013 124.56 7.03711 124.966 7.74709C125.778 6.46913 126.925 5.83015 128.454 5.83015C129.911 5.83015 130.986 6.27981 131.703 7.20277C132.276 7.96008 132.563 9.07238 132.563 10.516V18.5861ZM143.385 14.7995C143.385 15.9591 142.979 16.9058 142.167 17.6394C141.355 18.3967 140.327 18.7517 139.085 18.7517C138.153 18.7517 137.317 18.5387 136.553 18.1127C135.788 17.6868 135.215 17.1898 134.857 16.6218L136.529 15.1545C136.648 15.3438 136.768 15.4858 136.863 15.5805C137.484 16.2195 138.225 16.5271 139.085 16.5271C139.682 16.5271 140.16 16.3615 140.495 16.0538C140.853 15.7462 141.02 15.3202 141.02 14.7522C141.02 14.1132 140.614 13.6872 139.802 13.4506C138.201 12.9772 137.317 12.6933 137.198 12.6459C136.457 12.2673 135.932 11.865 135.597 11.4153C135.215 10.8947 135.024 10.2083 135.024 9.3327C135.024 8.24407 135.43 7.36844 136.218 6.63479C137.007 5.92482 137.962 5.56983 139.061 5.56983C139.897 5.56983 140.662 5.75916 141.379 6.13781C142.095 6.51646 142.597 6.91878 142.908 7.36844L141.498 8.88305C141.283 8.67006 141.044 8.48073 140.805 8.31507C140.232 7.91275 139.682 7.72342 139.181 7.72342C138.679 7.72342 138.273 7.84175 137.962 8.05475C137.58 8.31507 137.389 8.71739 137.389 9.23804C137.389 9.73502 137.556 10.1137 137.938 10.3503C138.249 10.5397 138.918 10.7527 139.993 10.9893C141.044 11.2496 141.88 11.6756 142.454 12.2909C143.123 12.9536 143.385 13.7582 143.385 14.7995Z" fill="#3A7AF3"/>
</svg>
