<svg width="82" height="82" viewBox="0 0 82 82" fill="none" xmlns="http://www.w3.org/2000/svg">
<rect width="82" height="82" rx="40" fill="#65D5FF"/>
<path d="M56.6148 49.4618C57.7624 47.1893 58.4101 44.6247 58.4101 41.9121C58.4101 39.1992 57.7624 36.6345 56.6145 34.3617C57.1674 33.8114 57.9712 33.0101 58.7305 32.253C60.4131 30.5776 60.4224 27.8712 58.7615 26.1834C58.7515 26.1725 58.7408 26.1618 58.7301 26.1512C57.0382 24.4675 54.3031 24.4658 52.6088 26.1522C51.988 26.7712 51.3479 27.4091 50.8663 27.8887C49.6963 27.1101 48.424 26.4732 47.0739 26.0022V23.5546C47.0739 20.486 44.5838 18 41.5 18C38.4273 18 35.9262 20.4754 35.9262 23.5546V26.0025C34.576 26.4735 33.3037 27.1104 32.1334 27.8891C31.6518 27.4091 31.0113 26.7709 30.3902 26.1515C28.699 24.4679 25.9632 24.4658 24.2696 26.1515C24.2589 26.1618 24.2489 26.1725 24.2386 26.1834C22.5766 27.8719 22.588 30.5787 24.2689 32.2524C25.0285 33.0101 25.8326 33.8114 26.3852 34.3621C25.2377 36.6345 24.59 39.1992 24.59 41.9121C24.59 44.6247 25.2377 47.1893 26.3852 49.4618C25.8323 50.0124 25.0285 50.8134 24.2689 51.5708C22.5866 53.2472 22.5773 55.954 24.2396 57.6411C25.7527 59.2578 28.5966 59.4597 30.3912 57.6713C31.0117 57.0523 31.6518 56.4147 32.1331 55.9351C34.4713 57.491 37.2184 58.4829 40.1771 58.7122V61.6816C40.1771 62.4098 40.7693 63 41.5 63C42.2307 63 42.8229 62.4098 42.8229 61.6816V58.7122C45.7816 58.4832 48.5284 57.4914 50.867 55.9351C51.3483 56.4147 51.9884 57.0526 52.6092 57.6716C54.3586 59.415 57.1977 59.3038 58.7601 57.6414C60.4237 55.953 60.4124 53.2462 58.7312 51.5711C57.9715 50.8134 57.1678 50.0124 56.6148 49.4618V49.4618ZM49.6302 53.5851L47.0381 49.1112L50.5256 43.0914H55.7146C55.3553 47.4324 53.0298 51.2261 49.6302 53.5851V53.5851ZM41.5 56.127C39.3754 56.127 37.3583 55.6608 35.5451 54.8272L38.1731 50.2909H44.6661L47.3285 54.8852C45.548 55.6828 43.575 56.127 41.5 56.127V56.127ZM27.3102 43.3688H32.6354L35.8814 48.9725L33.2551 53.5058C29.9899 51.1928 27.7388 47.5457 27.3102 43.3688ZM33.3699 30.2391L35.962 34.7126L32.4748 40.7321H27.2854C27.6451 36.3911 29.9706 32.5977 33.3699 30.2391ZM41.5 27.6972C43.6243 27.6972 45.6414 28.1634 47.4546 28.9966L44.827 33.5333H38.3343L35.6719 28.9389C37.4523 28.1414 39.425 27.6972 41.5 27.6972V27.6972ZM55.6895 40.4547H50.3643L47.1183 34.8517L49.7445 30.3181C53.0098 32.631 55.2609 36.2782 55.6895 40.4547V40.4547ZM44.827 47.6542H38.1731L34.8464 41.9121L38.1731 36.17H44.827L48.1536 41.9121L44.827 47.6542ZM54.4792 28.0171C55.1382 27.3617 56.188 27.3682 56.8412 27.9979C56.847 28.0044 56.8536 28.0106 56.8601 28.0171C57.5164 28.6712 57.5195 29.7313 56.8598 30.3885C56.2893 30.9573 55.6939 31.5506 55.1989 32.0443C54.5371 31.1345 53.7864 30.2927 52.9592 29.5322C53.4067 29.0862 53.95 28.5448 54.4792 28.0171ZM38.572 23.5546C38.572 21.9383 39.8839 20.6367 41.5 20.6367C43.1151 20.6367 44.428 21.9376 44.428 23.5546V25.3141C43.4768 25.148 42.4984 25.0604 41.5 25.0604C40.5016 25.0604 39.5232 25.1476 38.572 25.3141V23.5546ZM26.1396 30.3881C25.4823 29.7334 25.4819 28.6729 26.1399 28.0171C26.1465 28.0106 26.1527 28.0044 26.1589 27.9979C26.819 27.3614 27.8687 27.3682 28.5198 28.0161C29.0493 28.5445 29.5933 29.0862 30.0408 29.5322C29.214 30.2927 28.4633 31.1345 27.8012 32.0443C27.3058 31.5506 26.7104 30.9573 26.1396 30.3881ZM28.5202 55.807C28.0044 56.321 26.9213 56.5902 26.1396 55.806C25.4833 55.1523 25.4805 54.0921 26.1403 53.435C26.7104 52.8661 27.3058 52.2729 27.8008 51.7795C28.4626 52.6893 29.2133 53.5312 30.0402 54.2916C29.593 54.7376 29.0493 55.2794 28.5202 55.807V55.807ZM56.8605 55.806C56.0922 56.5768 55.0152 56.3406 54.4802 55.8074C53.9507 55.2794 53.4071 54.7376 52.9599 54.292C53.7867 53.5312 54.5371 52.6893 55.1989 51.7795C55.6943 52.2732 56.2896 52.8665 56.8601 53.4354C57.5174 54.0901 57.5185 55.1506 56.8605 55.806V55.806Z" fill="white"/>
</svg>
