<svg width="84" height="92" viewBox="0 0 84 92" fill="none" xmlns="http://www.w3.org/2000/svg">
<path fill-rule="evenodd" clip-rule="evenodd" d="M57.1904 8.77697C37.3492 0.765767 32.5678 -5.0396 14.2029 6.45917C-2.08099 16.6547 -4.60546 37.6774 7.88817 64.7042C26.7051 105.411 60.7818 91.276 72.1563 75.7219C77.8434 67.9449 86.6073 50.5684 83.1006 37.5733C79.5942 24.5782 66.8579 12.6802 57.1904 8.77697Z" fill="#8585FF"/>
<path d="M62.8496 15.377H17.1602C14.3359 15.377 12.0049 17.6594 12.0049 20.5322V66.2217C12.0049 69.1041 14.346 71.377 17.1602 71.377H62.8496C65.6739 71.377 68.0049 69.0946 68.0049 66.2218V20.5322C68.0049 17.6499 65.6638 15.377 62.8496 15.377ZM50.5487 18.6582C51.5722 18.6582 52.4226 19.4859 52.4226 20.5322C52.4226 21.1929 52.5476 21.8251 52.7751 22.4061H45.2768C44.2531 22.4061 43.4027 21.5785 43.4027 20.5322C43.4027 19.8714 43.2777 19.2393 43.0502 18.6582H50.5487ZM38.2477 18.6582C39.2712 18.6582 40.1216 19.4859 40.1216 20.5322C40.1216 21.1929 40.2466 21.8251 40.4741 22.4061H32.9758C31.9452 22.4061 31.1018 21.5724 31.1018 20.5304C31.1018 19.8703 30.977 19.2388 30.7498 18.6582H38.2477ZM43.6362 68.0958H36.3736V64.3478H43.6362V68.0958ZM35.4126 61.0665L31.527 57.181L38.3643 45.7855V55.6781C38.3643 56.5841 39.0988 57.3187 40.0049 57.3187C40.911 57.3187 41.6455 56.5841 41.6455 55.6781V45.7855L48.4829 57.181L44.5973 61.0665H35.4126ZM38.1309 36.4645V32.7165H41.8789V36.4645H38.1309ZM64.7237 66.2218C64.7237 67.2427 63.8983 68.0958 62.8496 68.0958H46.9174V63.3867L51.7088 58.5953C52.2411 58.063 52.3428 57.2367 51.9555 56.5911L41.8482 39.7457H43.5196C44.4256 39.7457 45.1602 39.0112 45.1602 38.1051V36.2312H50.9345C52.86 41.6872 60.8607 40.4468 60.9757 34.5905C60.8602 28.7333 52.8589 27.4948 50.9345 32.95H45.1602V31.076C45.1602 30.17 44.4256 29.4354 43.5196 29.4354H36.4902C35.5842 29.4354 34.8496 30.17 34.8496 31.076V32.95H29.0753C27.1498 27.494 19.1491 28.7343 19.0341 34.5907C19.1496 40.4478 27.1509 41.6864 29.0753 36.2312H34.8496V38.1051C34.8496 39.0112 35.5842 39.7457 36.4902 39.7457H38.1616L28.0543 56.5913C27.667 57.2368 27.7687 58.0631 28.301 58.5954L33.0924 63.3868V68.0958H17.1602C16.1365 68.0958 15.2861 67.2681 15.2861 66.2218V20.5322C15.2861 19.5113 16.1115 18.6582 17.1602 18.6582H25.9466C26.9701 18.6582 27.8205 19.4859 27.8205 20.5322C27.8205 23.3667 30.1124 25.6873 32.9758 25.6873H64.7237V66.2218ZM53.9466 34.5906C53.9466 33.5573 54.7873 32.7167 55.8205 32.7167C58.3032 32.8109 58.3026 36.3707 55.8205 36.4646C54.7871 36.4645 53.9466 35.6238 53.9466 34.5906ZM26.0632 34.5906C26.0632 35.6238 25.2225 36.4645 24.1893 36.4645C21.7066 36.3702 21.7072 32.8105 24.1893 32.7165C25.2227 32.7165 26.0632 33.5572 26.0632 34.5906ZM64.7237 22.4062H57.5779C56.5446 22.4062 55.7038 21.5655 55.7038 20.5323C55.7038 19.8715 55.5788 19.2394 55.3513 18.6584H62.8496C63.8733 18.6582 64.7237 19.4859 64.7237 20.5322V22.4062Z" fill="white"/>
</svg>
