<svg width="87" height="87" viewBox="0 0 87 87" fill="none" xmlns="http://www.w3.org/2000/svg">
<path fill-rule="evenodd" clip-rule="evenodd" d="M34.3417 8.91515C55.5803 6.31235 64.5483 -8.68294 79.3113 7.17716C92.4011 21.24 88.3641 46.0634 69.3007 68.9357C40.5893 103.385 11.332 80.9121 4.37093 62.9442C0.890435 53.9602 -3.07746 34.9075 3.67314 23.2628C10.4234 11.618 23.9934 10.1834 34.3417 8.91515Z" fill="#8585FF"/>
<path d="M40.8784 49.6868C40.1559 49.1401 39.1268 49.2829 38.5803 50.0053C38.2489 50.4434 37.7445 50.6946 37.1968 50.6946C36.649 50.6946 36.1447 50.4434 35.8133 50.0053C35.2667 49.2828 34.2376 49.1403 33.5151 49.6868C32.7926 50.2336 32.6498 51.2625 33.1966 51.9851C34.1537 53.2503 35.6118 53.976 37.1968 53.976C38.7817 53.976 40.2398 53.2504 41.1969 51.9851C41.7437 51.2625 41.601 50.2335 40.8784 49.6868Z" fill="white"/>
<path d="M44.6626 44.25C44.6228 43.3611 43.9417 42.6094 43.022 42.6094C42.1638 42.6094 41.3416 43.364 41.3813 44.25C41.4212 45.1389 42.1022 45.8906 43.022 45.8906C43.8801 45.8906 44.7023 45.1361 44.6626 44.25Z" fill="white"/>
<path d="M31.3715 42.6094C30.5133 42.6094 29.6912 43.364 29.7309 44.25C29.7707 45.1389 30.4517 45.8906 31.3715 45.8906C32.2296 45.8906 33.0518 45.1361 33.0121 44.25C32.9723 43.3611 32.2913 42.6094 31.3715 42.6094Z" fill="white"/>
<path d="M71.916 25.959C71.916 17.9201 65.3758 11.3799 57.3369 11.3799C52.0107 11.3799 47.3434 14.2513 44.7992 18.5268C43.1962 16.0197 40.3904 14.3529 37.2002 14.3529C32.2276 14.3529 28.1821 18.3984 28.1821 23.371C28.1821 23.7788 28.2101 24.1857 28.2644 24.5882C24.8477 27.023 22.4614 30.8132 21.898 35.1666L17.552 35.1787C16.6477 35.1811 15.916 35.9149 15.916 36.8192V45.5554C15.916 45.9914 16.0896 46.4095 16.3983 46.7173C16.7059 47.0239 17.1224 47.1961 17.5566 47.1961H17.5617L21.8604 47.1828C22.2743 50.9238 24.0316 54.2654 26.6387 56.7142C23.494 58.5718 21.4958 61.9717 21.4958 65.7393C21.4958 66.6453 22.2303 67.3799 23.1364 67.3799H51.2638C52.1699 67.3799 52.9044 66.6453 52.9044 65.7393C52.9044 61.9906 50.8801 58.5754 47.7581 56.7176C48.7255 55.8094 49.5758 54.7785 50.2844 53.6496H56.8366C57.7426 53.6496 58.4772 52.9151 58.4772 52.009V45.4461V40.4937C65.9853 39.91 71.916 33.6143 71.916 25.959ZM37.2002 17.6342C40.1787 17.6342 42.6336 19.9161 42.9102 22.8234C41.1037 22.1052 39.167 21.7303 37.2021 21.7303C35.1851 21.7303 33.2576 22.1199 31.4899 22.8265C31.7651 19.9178 34.2206 17.6342 37.2002 17.6342ZM25.0507 37.1531C25.0519 30.4583 30.503 25.0116 37.2022 25.0116C39.143 25.0116 41.0479 25.474 42.7578 26.3533V33.555C41.0591 34.0273 39.2627 34.1646 37.5144 33.9498C33.9966 33.5176 30.4978 34.1954 27.3959 35.9105L25.0497 37.2077C25.0503 37.1896 25.0507 37.1714 25.0507 37.1531ZM19.1972 38.4552L21.7654 38.4481V39.9913C21.7654 40.0242 21.7667 40.0569 21.7687 40.0894L21.7664 43.9019L19.1972 43.9098V38.4552ZM49.4323 64.0987H24.9646C25.5186 61.7153 27.2596 59.7398 29.6439 58.923C31.8787 60.1825 34.4567 60.9024 37.2 60.9024C39.9433 60.9024 42.521 60.1826 44.7558 58.9232C47.1142 59.7319 48.8707 61.7182 49.4323 64.0987ZM37.2002 57.6211C30.4986 57.6211 25.0467 52.1728 25.0467 45.4769L25.0495 40.9573L28.9837 38.7819C31.476 37.4038 34.2874 36.8588 37.1142 37.2065C38.9899 37.437 40.9097 37.3421 42.7578 36.9353V38.8974C42.7578 39.8035 43.4924 40.5381 44.3985 40.5381H49.3537V45.476C49.3537 47.2157 48.985 48.8708 48.3227 50.3684H45.7238C44.8177 50.3684 44.0831 51.1029 44.0831 52.009C44.0831 52.9151 44.8177 53.6496 45.7238 53.6496H46.1816C43.9572 56.0884 40.7545 57.6211 37.2002 57.6211ZM55.196 43.8104L52.6349 43.8179V40.5381H55.196V43.8104ZM51.8389 50.3684C52.1893 49.3237 52.4307 48.2295 52.5495 47.0994L55.196 47.0916V50.3684H51.8389ZM57.3369 37.2568L46.0391 37.2567L46.039 25.959C46.039 19.7294 51.1072 14.6611 57.3369 14.6611C63.5665 14.6611 68.6348 19.7294 68.6348 25.959C68.6348 32.1886 63.5665 37.2568 57.3369 37.2568Z" fill="white"/>
<path d="M62.2878 20.0256C61.581 19.662 60.7852 19.4697 59.9865 19.4697C58.9281 19.4697 57.9268 19.7934 57.0956 20.3774C56.2644 19.7934 55.2632 19.4697 54.2047 19.4697C53.4061 19.4697 52.6103 19.6619 51.9035 20.0256C50.2814 20.86 49.2606 22.505 49.173 24.4261C49.1008 26.0076 49.8186 27.8084 50.9606 28.9126C51.1537 29.1049 54.6302 32.5955 55.9681 33.939C56.276 34.2482 56.6943 34.4219 57.1305 34.4219H57.1363C57.5746 34.4203 57.994 34.2435 58.3012 33.9306C59.612 32.5956 63.0152 29.1302 63.2345 28.9089C64.3741 27.805 65.0903 26.0062 65.0182 24.4261C64.9305 22.505 63.9098 20.86 62.2878 20.0256ZM60.9478 26.5557C60.9273 26.5755 60.8908 26.6104 57.1222 30.448C53.2964 26.6067 53.2598 26.5716 53.244 26.5563C52.7694 26.1001 52.4209 25.2301 52.4508 24.5757C52.4843 23.8435 52.8407 23.2333 53.4044 22.9434C53.6525 22.8157 53.9218 22.7511 54.2046 22.7511C54.8178 22.7511 55.3762 23.0635 55.6987 23.5868C55.9973 24.0717 56.526 24.3669 57.0955 24.3669C57.665 24.3669 58.1937 24.0716 58.4923 23.5868C58.8148 23.0635 59.3732 22.7511 59.9864 22.7511C60.2692 22.7511 60.5385 22.8159 60.7866 22.9434C61.3503 23.2333 61.7069 23.8435 61.7402 24.5757C61.7702 25.2301 61.4218 26.1001 60.9478 26.5557Z" fill="white"/>
</svg>
