<svg width="96" height="80" viewBox="0 0 96 80" fill="none" xmlns="http://www.w3.org/2000/svg">
<path fill-rule="evenodd" clip-rule="evenodd" d="M62.4508 12.3354C79.3093 25.5129 96.2535 21.2509 95.4785 42.9048C94.7905 62.1048 74.3824 76.8024 44.7297 79.496C0.0681877 83.5534 -4.72923 46.9748 3.05399 29.347C6.94559 20.5333 17.6122 4.25529 30.6195 0.794691C43.6269 -2.66631 54.2368 5.91469 62.4508 12.3354Z" fill="#8585FF"/>
<path d="M66.5909 23.3607H59.4451V16.2148C59.445 13.3378 57.1098 11.0596 54.2899 11.0596H20.9013C18.0243 11.0596 15.7461 13.3949 15.7461 16.2148V49.6034C15.7461 52.4803 18.0814 54.7585 20.9013 54.7585H28.0471V61.9043C28.0471 64.7813 30.3823 67.0595 33.2022 67.0595H66.5908C69.4679 67.0596 71.7461 64.7243 71.7461 61.9044V28.5159C71.7461 25.6733 69.4335 23.3607 66.5909 23.3607ZM54.2899 14.3408C55.3111 14.3408 56.1638 15.1664 56.1638 16.2148V18.0887H49.018C47.9847 18.0887 47.1441 17.248 47.1441 16.213C47.1441 15.5529 47.0193 14.9214 46.7921 14.3408H54.2899ZM41.9888 14.3408C43.0097 14.3408 43.8628 15.1662 43.8628 16.2148C43.8628 16.8755 43.9878 17.5077 44.2153 18.0887H36.717C35.6881 18.0887 34.8431 17.257 34.8431 16.213C34.8431 15.5529 34.7183 14.9214 34.4911 14.3408H41.9888ZM20.9013 51.4773C19.8799 51.4773 19.0273 50.6514 19.0273 49.6034V16.2148C19.0273 15.1935 19.8529 14.3408 20.9013 14.3408H29.6877C30.7091 14.3408 31.5616 15.1667 31.5616 16.2148C31.5616 19.0919 33.897 21.3699 36.7168 21.3699H56.1637V49.6034C56.1637 50.6246 55.3381 51.4773 54.2897 51.4773H20.9013ZM68.4649 61.9044C68.4649 62.9257 67.6393 63.7784 66.5909 63.7784H33.2024C32.1811 63.7784 31.3284 62.9528 31.3284 61.9044V54.7586H54.2899C57.1668 54.7586 59.445 52.4234 59.445 49.6035V33.671H68.4649V61.9044ZM68.4649 30.3898H59.445V26.6418H66.5908C67.6241 26.6418 68.4647 27.4825 68.4647 28.5157V30.3898H68.4649Z" fill="white"/>
<path d="M40.965 29.6843C40.1545 29.2791 39.169 29.6077 38.7638 30.418L33.4919 40.9618C33.0867 41.7722 33.4152 42.7576 34.2256 43.163C35.0344 43.5673 36.0207 43.2415 36.4268 42.4293L41.6987 31.8855C42.1039 31.075 41.7753 30.0896 40.965 29.6843Z" fill="white"/>
<path d="M29.9694 30.8702C29.3288 30.2295 28.2899 30.2295 27.6492 30.8702L23.2559 35.2634C22.6152 35.9041 22.6152 36.9428 23.2559 37.5835L27.6492 41.9768C29.2427 43.4569 31.4498 41.2504 29.9694 39.6566L26.7364 36.4235L29.9695 33.1904C30.61 32.5497 30.61 31.5109 29.9694 30.8702Z" fill="white"/>
<path d="M47.5422 30.8705C45.9481 29.3901 43.742 31.5973 45.222 33.1907L48.4551 36.4238L45.2219 39.657C43.7422 41.2493 45.9473 43.458 47.5421 41.9772L51.9353 37.5839C52.576 36.9432 52.576 35.9045 51.9353 35.2638L47.5422 30.8705Z" fill="white"/>
</svg>
