<svg width="82" height="82" viewBox="0 0 82 82" fill="none" xmlns="http://www.w3.org/2000/svg">
<rect width="82" height="82" rx="40" fill="#00BDFF"/>
<path d="M59.2045 28.4543C59.2045 25.4363 56.772 23 53.7587 23H30.4141C25.9848 23 23.7339 28.3816 26.8925 31.5087L32.5924 37.2176C34.0084 38.6357 34.8071 40.5629 34.8071 42.5992C34.8071 45.2536 36.9491 47.399 39.5995 47.399C41.5963 47.399 43.5568 48.1989 44.9727 49.6171L50.6727 55.3259C53.795 58.4531 59.1682 56.235 59.1682 51.7988V28.4543H59.2045Z" fill="white"/>
<path d="M34.188 49.5146C34.188 48.5138 33.3659 47.6917 32.365 47.6917H24.5012C22.9999 47.6917 22.2492 49.4789 23.3216 50.5512L25.2518 52.4815C25.7165 52.9461 26.0024 53.6253 26.0024 54.2687C26.0024 55.1623 26.7173 55.8772 27.611 55.8772C28.2901 55.8772 28.9335 56.1632 29.3982 56.6279L31.3284 58.5581C32.4008 59.6304 34.188 58.8798 34.188 57.3785V49.5146Z" fill="white"/>
</svg>
