<svg width="97" height="83" viewBox="0 0 97 83" fill="none" xmlns="http://www.w3.org/2000/svg">
<path fill-rule="evenodd" clip-rule="evenodd" d="M70.942 20.3519C83.8155 37.4436 101.286 37.7125 94.932 58.4277C89.2984 76.7955 65.7818 85.7103 36.4423 80.6375C-7.74752 72.9974 -2.91425 36.4235 9.1662 21.4109C15.2063 13.9047 29.7225 0.942034 43.1823 0.965853C56.6422 0.989398 64.6697 12.0241 70.942 20.3519Z" fill="#8585FF"/>
<g clip-path="url(#clip0)">
<path d="M72.3074 58.0376H69.1369V52.9869C69.1369 52.0808 68.4023 51.3462 67.4962 51.3462H47.6424V47.9693H62.7287C68.9436 47.9693 73.9999 42.9131 73.9999 36.6982C73.9999 31.4074 70.3545 26.9069 65.3248 25.7276C64.8962 22.7143 63.4779 19.9394 61.2526 17.8053C58.6957 15.3533 55.336 14.0029 51.7924 14.0029C47.1359 14.0029 42.8931 16.32 40.3789 20.1439C39.4471 19.8069 38.4588 19.6324 37.4572 19.6324C33.7233 19.6324 30.5021 21.999 29.3353 25.427H29.2791C23.0642 25.427 18.008 30.4833 18.008 36.6982C18.008 42.9131 23.0642 47.9693 29.2793 47.9693H44.3612V51.3463H24.5074C23.6013 51.3463 22.8667 52.0809 22.8667 52.987V58.0399H19.6407C18.7346 58.0399 18 58.7745 18 59.6806V68.3555C18 69.2616 18.7346 69.9961 19.6407 69.9961H29.3213C30.2274 69.9961 30.9619 69.2616 30.9619 68.3555V59.6806C30.9619 58.7745 30.2274 58.0399 29.3213 58.0399H26.1481V54.6277H44.3612V58.0399H41.188C40.2819 58.0399 39.5473 58.7745 39.5473 59.6806V68.3398C39.5473 69.2459 40.2819 69.9805 41.188 69.9805H50.8156C51.7217 69.9805 52.4563 69.2459 52.4563 68.3398V59.6806C52.4563 58.7745 51.7217 58.0399 50.8156 58.0399H47.6424V54.6277H65.8555V58.0378H62.6797C61.7736 58.0378 61.039 58.7723 61.039 59.6784V68.3376C61.039 69.2437 61.7736 69.9783 62.6797 69.9783H72.3074C73.2135 69.9783 73.948 69.2437 73.948 68.3376V59.6783C73.948 58.7722 73.2136 58.0376 72.3074 58.0376ZM27.6806 61.3213V66.6991H21.3343V61.3213H27.6806ZM49.1749 61.3213V66.6991H42.8287V61.3213H49.1749ZM29.2793 44.688C24.8737 44.688 21.2895 41.1037 21.2895 36.6982C21.2895 32.2926 24.8737 28.7084 29.2793 28.7084H30.6091C31.411 28.7084 32.0954 28.1287 32.2273 27.3376C32.6549 24.7743 34.8544 22.9139 37.4573 22.9139C38.4247 22.9139 39.3712 23.1768 40.1943 23.6739C40.5855 23.9102 41.0575 23.9727 41.4967 23.8462C41.9358 23.7197 42.3023 23.4157 42.5079 23.0075C44.286 19.4773 47.8437 17.2843 51.7925 17.2843C57.3638 17.2843 61.9224 21.6404 62.1706 27.2015C62.2066 28.0085 62.8247 28.6692 63.6275 28.7589C67.67 29.2104 70.7186 32.6236 70.7186 36.6982C70.7186 41.1037 67.1344 44.688 62.7288 44.688H29.2793ZM70.6667 66.6968H64.3204V61.319H70.6667V66.6968Z" fill="white"/>
</g>
<defs>
<clipPath id="clip0">
<rect width="56" height="56" fill="white" transform="translate(18 14)"/>
</clipPath>
</defs>
</svg>
