<svg width="83" height="89" viewBox="0 0 83 89" fill="none" xmlns="http://www.w3.org/2000/svg">
<path fill-rule="evenodd" clip-rule="evenodd" d="M80.217 46.558C75.5471 67.4397 88.0081 77.1486 68.1157 85.7386C50.4776 93.3546 9.48625 85.7386 2.79945 58.2313C-9.20405 8.85385 20.1052 0.736848 39.3675 0.204348C48.9984 -0.061852 68.2785 -1.41075 76.9851 8.85385C85.6921 19.1183 82.493 36.3837 80.217 46.558Z" fill="#8585FF"/>
<path d="M32.7381 32.1455H21.8849C20.9787 32.1455 20.2441 32.8802 20.2441 33.7864V54.9292C20.2441 55.8354 20.9787 56.57 21.8849 56.57H32.7382C33.6444 56.57 34.3791 55.8354 34.3791 54.9292V33.7864C34.379 32.8802 33.6444 32.1455 32.7381 32.1455ZM23.5258 42.4749H31.0973V46.2408H23.5258V42.4749ZM31.0972 35.4273V39.1931H23.5257V35.4273H31.0972ZM23.5258 53.2883V49.5224H31.0973V53.2883H23.5258Z" fill="white"/>
<path d="M62.3508 10.5107H17.2409C14.2385 10.5107 11.7959 12.9533 11.7959 15.9558V61.0541C11.7959 64.0564 14.2385 66.4991 17.2409 66.4991H62.3507C65.3532 66.4991 67.7958 64.0564 67.7958 61.0541V15.9558C67.7959 12.9533 65.3533 10.5107 62.3508 10.5107ZM17.2409 13.7924H62.3507C63.5435 13.7924 64.514 14.7629 64.514 15.9557V23.4449H15.0777V15.9558C15.0777 14.7629 16.0481 13.7924 17.2409 13.7924ZM62.3508 63.2173H17.2409C16.0481 63.2173 15.0777 62.2469 15.0777 61.0541V26.7268H64.5141V61.0541C64.5141 62.2469 63.5436 63.2173 62.3508 63.2173Z" fill="white"/>
<path d="M20.0348 20.3676C20.9473 20.3676 21.6869 19.6285 21.6869 18.7166C21.5999 16.5265 18.4694 16.5271 18.3828 18.7166C18.3828 19.6285 19.1224 20.3676 20.0348 20.3676Z" fill="white"/>
<path d="M26.7526 20.3676C27.6651 20.3676 28.4047 19.6284 28.4047 18.7165C28.3177 16.5265 25.1872 16.5271 25.1006 18.7165C25.1006 19.6284 25.8402 20.3676 26.7526 20.3676Z" fill="white"/>
<path d="M33.775 20.3676C34.6875 20.3676 35.4271 19.6285 35.4271 18.7166C35.3401 16.5265 32.2096 16.5271 32.123 18.7166C32.123 19.6285 32.8626 20.3676 33.775 20.3676Z" fill="white"/>
<path d="M54.7533 31.1903C53.5861 30.9817 52.4094 31.2395 51.4404 31.9174C51.0154 32.2148 50.653 32.5773 50.3629 32.9889L46.4267 32.2841C46.0637 30.5701 44.6937 29.1567 42.8649 28.8292C41.6978 28.6207 40.5209 28.8784 39.5517 29.5563C38.5864 30.2316 37.9433 31.2426 37.7407 32.4031C37.323 34.7969 38.9343 37.0937 41.3329 37.5232C43.0608 37.8614 44.9471 37.0235 45.8604 35.5167L49.6171 36.1893C49.7278 36.9016 50.0107 37.5751 50.4343 38.1502L47.9001 41.6871C47.8311 41.6713 47.7614 41.6567 47.691 41.6441C45.3588 41.1764 42.9277 42.8659 42.5669 45.2181C42.1491 47.6119 43.7605 49.9087 46.159 50.3382C46.5936 50.4158 47.0294 50.4298 47.4639 50.3786L49.9814 54.0237C48.408 56.6088 50.0363 60.1305 53.0296 60.6236C54.1826 60.8319 55.3733 60.5771 56.3428 59.8964C59.5513 57.6691 58.4019 52.6064 54.5616 51.9294C53.8928 51.8098 53.2214 51.8441 52.5874 52.022L50.3565 48.7919C50.8305 48.2138 51.1512 47.5213 51.2832 46.7644C51.4858 45.6037 51.2102 44.4667 50.6004 43.5534L53.2283 39.8856C54.3792 40.0921 55.5669 39.8365 56.5344 39.1573C59.7436 36.9291 58.5932 31.8676 54.7533 31.1903ZM42.7649 34.1071C42.5163 34.281 42.2136 34.3474 41.9112 34.2929C40.9248 34.125 40.6063 32.8177 41.4328 32.2455C41.6817 32.0708 41.9895 32.0056 42.2865 32.0597C43.2729 32.2278 43.5915 33.5349 42.7649 34.1071ZM45.8 45.7827C45.8514 45.4883 46.0145 45.2319 46.2592 45.0606C46.508 44.8858 46.8158 44.8207 47.1128 44.8749C48.0992 45.0428 48.4178 46.35 47.5912 46.9222C47.5684 46.9381 47.5449 46.9522 47.5214 46.9662C47.4624 46.9907 47.4045 47.0186 47.3476 47.0505C47.156 47.1242 46.947 47.1457 46.7376 47.108C46.1125 46.9961 45.6919 46.4015 45.8 45.7827ZM53.7779 55.1417C53.846 55.1417 53.9148 55.1477 53.9835 55.1601C54.6086 55.2719 55.0292 55.8665 54.9211 56.4855C54.8697 56.7798 54.7066 57.0362 54.4619 57.2076C54.2133 57.3814 53.9106 57.4478 53.6082 57.3933C52.9832 57.2815 52.5625 56.6868 52.6706 56.0679C52.722 55.7736 52.8851 55.5172 53.1298 55.3459C53.3219 55.2117 53.5465 55.1417 53.7779 55.1417ZM55.1126 35.7463C55.0612 36.0405 54.8981 36.2971 54.6532 36.4684C54.4047 36.6422 54.1016 36.7085 53.7998 36.6541C53.7997 36.6541 53.7997 36.6541 53.7995 36.6541C53.7217 36.6402 53.6456 36.6187 53.5732 36.5898C53.521 36.5691 53.4716 36.544 53.424 36.5166C53.42 36.5143 53.4158 36.5121 53.4118 36.5098C53.0069 36.2699 52.7801 35.7997 52.8623 35.3288C52.9137 35.0346 53.0768 34.778 53.3216 34.6067C53.5704 34.4319 53.8782 34.3668 54.1751 34.421C54.8001 34.5327 55.2207 35.1272 55.1126 35.7463Z" fill="white"/>
</svg>
