<svg width="87" height="88" viewBox="0 0 87 88" fill="none" xmlns="http://www.w3.org/2000/svg">
<path fill-rule="evenodd" clip-rule="evenodd" d="M34.0732 9.19091C55.2881 6.40151 64.124 -8.6719 79.0258 7.0579C92.2394 21.0051 88.4194 45.863 69.5581 68.9019C41.1504 103.603 11.6968 81.3876 4.57811 63.481C1.01881 54.5279 -3.11619 35.5108 3.53181 23.8073C10.1795 12.1036 23.7365 10.5498 34.0732 9.19091Z" fill="#8585FF"/>
<path d="M65.2481 23.6779C66.9084 17.7199 66.911 13.4312 66.9102 13.2515C66.9084 12.8059 66.7251 12.3801 66.4025 12.0726C66.0799 11.765 65.6462 11.6024 65.2006 11.6216C51.7666 12.1868 39.022 18.5608 30.8465 29.279L21.3597 28.8178C20.8984 28.7963 20.4486 28.9689 20.1219 29.2957L11.39 38.0277C10.9661 38.4516 10.8076 39.0733 10.9769 39.6483C11.1461 40.2235 11.6161 40.6602 12.202 40.7869L22.3125 42.9731C20.9316 45.5735 20.0656 47.3995 19.9665 47.6098C19.6719 48.235 19.8013 48.9778 20.2899 49.4664L21.0208 50.1973C20.2289 50.4744 19.4858 50.9288 18.8538 51.5606C18.3614 52.053 17.9665 52.6233 17.6791 53.2566L11.1826 65.0613C10.8328 65.697 10.9428 66.4871 11.4531 67.0029C11.7687 67.322 12.1908 67.4892 12.6183 67.4892C12.8819 67.4892 13.1477 67.4256 13.3917 67.2948L25.3315 60.8941C25.5169 60.8096 25.6964 60.7164 25.866 60.6164C25.8835 60.6065 25.9006 60.5961 25.9176 60.5856C26.3167 60.3445 26.6866 60.0548 27.0172 59.7241C27.6491 59.0923 28.1034 58.349 28.3806 57.5571L29.2034 58.3799C29.7169 58.8941 30.5065 59.0051 31.1385 58.6639C31.3535 58.548 33.0811 57.6146 35.5179 56.2243L37.6916 66.2764C37.9477 67.528 39.5536 68.0048 40.4509 67.0885L49.1828 58.3566C49.5095 58.0298 49.6832 57.5804 49.6608 57.1188L49.2 47.6421C50.8965 46.4153 52.3708 45.2327 53.4175 44.186C59.7356 37.7483 63.0645 31.1387 65.2481 23.6779ZM62.0616 22.9082C61.7127 24.1486 61.2655 25.5288 60.6959 26.9998L51.4868 17.7907C55.3203 16.2937 59.3567 15.3608 63.5361 15.0097C63.3867 16.7134 63.0103 19.5361 62.0616 22.9082ZM15.8308 38.2199L21.9254 32.1253L28.5736 32.4484C26.8544 34.9863 25.2753 37.6241 23.9514 39.9757L15.8308 38.2199ZM25.8589 50.4025L23.4316 47.9752C23.8216 47.1863 24.425 45.9906 25.1911 44.5484L28.4521 47.8094L25.8589 50.4025ZM24.7007 57.4076C24.5537 57.5545 24.3894 57.6827 24.212 57.7884C24.2092 57.7901 24.2063 57.7919 24.2034 57.7935C24.1242 57.8404 24.0375 57.8845 23.9458 57.9251C23.9079 57.9419 23.8707 57.9601 23.8341 57.9797L16.7209 61.7929L20.5824 54.7766C20.6064 54.7329 20.6284 54.6881 20.6482 54.6425C20.7734 54.3561 20.9491 54.0987 21.1703 53.8774C22.1436 52.9041 23.7273 52.9042 24.7006 53.8774C25.6739 54.8506 25.6739 56.4343 24.7007 57.4076ZM30.6519 55.1955L28.1754 52.719L30.7686 50.1258L33.9722 53.3293C32.5886 54.1202 31.4301 54.766 30.6519 55.1955ZM46.3532 56.553L40.2586 62.6475L38.4963 54.4978C40.876 53.0962 43.5403 51.4704 46.0261 49.8281L46.3532 56.553ZM51.1008 41.8695C48.3245 44.6458 41.9866 48.6337 36.9041 51.6285L33.085 47.8094L38.4678 42.4266C39.1075 41.7869 39.1075 40.7498 38.4678 40.1101C37.8282 39.4704 36.791 39.4704 36.1513 40.1101L30.7685 45.4929L26.8294 41.5538C26.9733 41.2984 27.12 41.04 27.2696 40.7786C30.6551 34.8661 33.919 30.2665 36.7084 27.477C40.1127 24.0729 43.9979 21.293 48.2669 19.2039L59.2964 30.2333C57.4895 33.999 54.8761 38.0941 51.1008 41.8695Z" fill="white"/>
<path d="M50.9912 27.5856C46.7176 23.2932 39.2733 26.3751 39.2982 32.4291C39.2222 36.1108 42.4661 39.3548 46.1479 39.2786C52.2014 39.3036 55.2844 31.8587 50.9912 27.5856ZM48.6747 34.956C47.3444 36.3422 44.9512 36.3423 43.621 34.9558C42.2347 33.6258 42.2347 31.2323 43.621 29.9022C45.0143 28.5089 47.2814 28.509 48.6747 29.9022C50.068 31.2955 50.068 33.5626 48.6747 34.956Z" fill="white"/>
</svg>
