<svg width="94" height="82" viewBox="0 0 94 82" fill="none" xmlns="http://www.w3.org/2000/svg">
<path fill-rule="evenodd" clip-rule="evenodd" d="M53.3473 3.02C73.0419 11.3852 88.3062 7.8829 93.1612 28.9997C97.4662 47.7235 81.5576 67.2022 53.6124 77.4788C11.5229 92.9571 -2.57832 58.8666 0.377281 39.8251C1.85508 30.3044 7.94518 11.8204 19.6136 5.1111C31.282 -1.5984 43.7513 -1.0559 53.3473 3.02Z" fill="#8585FF"/>
<path d="M63.177 20.8548C58.7875 16.4558 52.9512 14.0332 46.7431 14.0332C40.535 14.0332 34.6987 16.4558 30.3092 20.8548C25.9208 25.2527 23.5038 31.0999 23.5038 37.3192C23.5038 41.557 24.627 45.6215 26.7304 49.1729L22.858 53.0537C22.8575 53.0542 22.8568 53.0546 22.8563 53.0553C22.8556 53.056 22.8552 53.0566 22.8545 53.0573L15.6487 60.2785C13.4269 62.5051 13.427 66.128 15.6487 68.3545C16.7262 69.4344 18.1589 70.029 19.6831 70.029C21.2073 70.029 22.6401 69.4344 23.7174 68.3545L30.9192 61.1371C30.9194 61.1369 30.9197 61.1367 30.92 61.1365C30.9203 61.1363 30.9205 61.1359 30.9207 61.1356L34.7645 57.2835C38.3438 59.4486 42.4546 60.6051 46.7431 60.6052C52.9507 60.6052 58.7878 58.1822 63.177 53.7834C67.5655 49.3855 69.9824 43.5383 69.9824 37.3191C69.9824 31.0998 67.5655 25.2527 63.177 20.8548ZM21.3949 66.0372C20.9374 66.4956 20.3295 66.7481 19.683 66.7481C19.0366 66.7481 18.4286 66.4956 17.971 66.0371C17.0244 65.0884 17.0244 63.5448 17.971 62.5959L24.0149 56.539L27.4436 59.9753L21.3949 66.0372ZM29.7613 57.6528L26.3325 54.2165L28.6319 51.9121C29.1543 52.5605 29.7128 53.1859 30.3092 53.7834C30.866 54.3416 31.4465 54.8676 32.0478 55.3612L29.7613 57.6528ZM60.8545 51.4662C57.085 55.2439 52.0734 57.3243 46.7429 57.3243C42.6505 57.3242 38.7466 56.0966 35.4479 53.8172C35.4453 53.8155 35.4428 53.8136 35.4402 53.8119C34.4452 53.1238 33.5048 52.3411 32.6316 51.466C24.8478 43.6654 24.8478 30.9727 32.6316 23.172C36.4011 19.3943 41.4126 17.3139 46.7429 17.3139C52.0734 17.3139 57.085 19.3943 60.8545 23.172C68.6384 30.9729 68.6384 43.6655 60.8545 51.4662Z" fill="white"/>
<path fill-rule="evenodd" clip-rule="evenodd" d="M30.1699 37.2931C30.1699 28.1453 37.5853 20.7031 46.7 20.7031C55.8148 20.7031 63.2301 28.1452 63.2301 37.2931C63.2301 42.1842 61.1098 46.587 57.7438 49.6261C57.6606 49.7186 57.5668 49.8023 57.4625 49.8747C54.5686 52.3719 50.807 53.8834 46.7 53.8834C42.5652 53.8834 38.7802 52.3516 35.8783 49.824C35.7876 49.7586 35.705 49.6844 35.6306 49.6034C32.2794 46.565 30.1699 42.1718 30.1699 37.2931ZM38.9019 48.0458C41.0913 49.6525 43.7871 50.6024 46.7 50.6024C48.9622 50.6024 51.0934 50.0295 52.9582 49.021C57.1643 46.7901 60.0293 42.3663 60.0293 37.2734C60.0293 29.9665 54.1321 24.037 46.8376 23.9847C46.7918 23.9842 46.7459 23.984 46.6999 23.984C43.4401 23.984 40.4514 25.1727 38.141 27.1413C35.346 29.5157 33.5462 33.0261 33.4548 36.9588C33.4521 37.0699 33.4507 37.1814 33.4507 37.2931C33.4507 40.5215 34.6013 43.4849 36.5118 45.7919C36.5165 45.7863 36.5213 45.7808 36.5261 45.7752C37.2286 46.6182 38.0334 47.3729 38.9216 48.0202C38.915 48.0287 38.9084 48.0372 38.9019 48.0458Z" fill="white"/>
</svg>
