<svg width="83" height="91" viewBox="0 0 83 91" fill="none" xmlns="http://www.w3.org/2000/svg">
<path fill-rule="evenodd" clip-rule="evenodd" d="M81.3471 45.3055C78.2041 22.9787 87.8593 15.03 67.6907 4.32952C49.8075 -5.15878 28.8043 0.452417 10.7234 26.0927C-16.5095 64.7107 14.3426 88.3605 34.5295 90.5455C44.6227 91.6375 65.0969 90.4795 75.108 80.4334C85.1193 70.387 82.8786 56.184 81.3471 45.3055Z" fill="#8585FF"/>
<path fill-rule="evenodd" clip-rule="evenodd" d="M64.4514 61.025C64.4514 62.7113 63.894 64.2699 62.9539 65.5263C65.8622 66.3374 68.0029 69.0086 68.0029 72.172V73.3614C68.0029 74.2674 67.2683 75.002 66.3623 75.002H47.4839C46.5779 75.002 45.8433 74.2674 45.8433 73.3614V72.1719C45.8433 71.3198 45.9997 70.5037 46.2834 69.7495L39.9467 65.3609L33.1989 69.7102C33.5969 70.5814 33.8206 71.5483 33.8206 72.567V73.3614C33.8206 74.2674 33.086 75.002 32.18 75.002H13.6435C12.7375 75.002 12.0029 74.2674 12.0029 73.3614V72.567C12.0029 69.4386 14.0962 66.7916 16.9554 65.9488C16.0354 64.7129 15.4901 63.1823 15.4901 61.5266V57.4411C15.4901 56.0598 15.9596 54.7869 16.7458 53.7707C16.7041 53.4819 16.6976 53.2034 16.6971 52.8865C16.6943 51.2352 17.3699 49.6165 18.5506 48.4454C19.718 47.2876 21.2536 46.6595 22.8643 46.6744C26.198 46.707 28.9102 49.4463 28.9102 52.7807L28.9103 52.8917C28.9107 53.1283 28.9089 53.3355 28.8909 53.5412C30.4418 55.2061 30.39 57.6454 30.3425 59.8811C30.3304 60.448 30.3187 61.0018 30.3334 61.5266C30.3334 63.1823 29.788 64.7129 28.8681 65.9488C29.7075 66.1962 30.4804 66.5993 31.1541 67.1245L38.3388 62.4938V44.9462H29.3906C28.4845 44.9462 27.7499 44.2116 27.7499 43.3056V42.2234C27.7499 40.4065 28.4525 38.6827 29.7282 37.3698C30.7645 36.303 32.0716 35.6213 33.4862 35.3913C32.3952 33.9911 31.7429 32.2332 31.7429 30.3247C31.7453 30.2824 31.7443 29.8059 31.743 29.1642C31.7401 27.7054 31.7355 25.393 31.7643 25.39C32.0299 21.8233 35.0147 19.002 38.6481 19.002H41.3577C45.1652 19.002 48.2629 22.0996 48.2629 25.9071V30.3246C48.2629 32.2331 47.6106 33.9911 46.5196 35.3912C47.9341 35.6211 49.2412 36.3029 50.2776 37.3697C51.5533 38.6826 52.2559 40.4064 52.2559 42.2233V43.3055C52.2559 44.2115 51.5213 44.9461 50.6152 44.9461H41.6201V62.5288L48.1359 67.0411C48.9155 66.3404 49.8552 65.8156 50.8924 65.5263C49.9522 64.2699 49.3949 62.7113 49.3949 61.025V56.8639C49.3949 53.5051 52.1274 50.7726 55.4862 50.7726H58.36C61.7188 50.7726 64.4514 53.5051 64.4514 56.8639V61.025ZM35.024 30.002V30.3246C35.024 33.0699 37.2575 35.3035 40.0027 35.3035C42.748 35.3035 44.9815 33.0699 44.9815 30.3246V30.002H44.9829V25.6498C44.9829 25.5503 44.9683 25.4532 44.9405 25.3614C44.6766 23.6211 43.1704 22.2832 41.3576 22.2832H38.648C37.0361 22.2832 35.6674 23.3412 35.1979 24.7991L35.0229 25.3848V30.002H35.024ZM45.4452 38.5847H34.5605C32.8311 38.5847 31.3442 39.9463 31.0747 41.6648H48.931C48.6615 39.9463 47.1746 38.5847 45.4452 38.5847ZM52.6761 59.259V61.025C52.9079 66.6563 60.9362 66.6606 61.1701 61.025V60.7676V57.4352V56.8639C61.1701 55.3144 59.9095 54.0538 58.36 54.0538H55.4862C54.2552 54.0538 53.2074 54.8497 52.8282 55.9536L52.6761 59.259ZM18.7712 60.5815V61.5266C18.9972 67.0165 26.8241 67.0208 27.0521 61.5266V61.1021L27.0312 57.1021C26.8638 55.7563 25.7129 54.7113 24.3226 54.7113H21.5008C20.1105 54.7113 18.9596 55.7563 18.7922 57.1021L18.7729 60.5815H18.7712ZM25.3271 51.5157C24.8652 50.6009 23.9206 49.9661 22.8322 49.9553C22.1007 49.9462 21.4015 50.2394 20.8613 50.7752C20.6314 51.0032 20.4425 51.2665 20.2987 51.5511C20.6872 51.4719 21.0892 51.4302 21.5008 51.4302H24.3226C24.6649 51.4302 25.0002 51.4605 25.3271 51.5157ZM18.9029 68.9482C17.1989 68.9482 15.7661 70.1323 15.384 71.7208H30.4395C30.318 71.2155 30.0899 70.7516 29.7809 70.3533C29.7221 70.2932 29.6675 70.2274 29.6174 70.1569C28.9543 69.4157 27.991 68.9482 26.9206 68.9482H18.9029ZM52.7433 68.5533C50.9008 68.5533 49.3755 69.9376 49.1526 71.7208H64.6937C64.4707 69.9376 62.9454 68.5533 61.1028 68.5533H52.7433Z" fill="white"/>
</svg>
