<svg width="1222" height="1201" viewBox="0 0 1222 1201" fill="none" xmlns="http://www.w3.org/2000/svg">
<path fill-rule="evenodd" clip-rule="evenodd" d="M907.768 489.978C938.05 711.999 1089.16 789.557 934.328 964.47C797.044 1119.56 549.123 1105.7 317.528 930.345C-31.2913 666.242 186.376 330.038 363.797 235.341C452.507 187.994 641.338 123.751 758.639 181.716C875.94 239.679 893.015 381.801 907.768 489.978Z" stroke="#DFDEF4"/>
<path fill-rule="evenodd" clip-rule="evenodd" d="M731.205 528.031C753.327 690.23 863.721 746.89 750.608 874.674C650.314 987.979 469.193 977.848 300 849.744C45.1681 656.802 204.186 411.186 333.803 342.004C398.61 307.414 536.562 260.481 622.257 302.828C707.952 345.173 720.426 449.002 731.205 528.031Z" stroke="#DFDEF4"/>
</svg>
