<svg xmlns="http://www.w3.org/2000/svg" xmlns:xlink="http://www.w3.org/1999/xlink" width="158" height="41" viewBox="0 0 158 41">
    <defs>
        <path id="a" d="M0 0h17.622v15.726H0z"/>
        <path id="c" d="M0 .074h18.94v20.42H0z"/>
    </defs>
    <g fill="none" fill-rule="evenodd">
        <path fill="#000" d="M28.92 5.874v10.607h8.127v5.44H28.92v11.15h10.226v5.44H23V.434h16.146v5.44H28.92zM56.201 38.51l-7.373-27.577V38.51H43.5V.435h7.427l6.082 22.79V.436h5.274V38.51h-6.082zm11.081 0V.435h5.92V38.51h-5.92zM77.987.435h5.92v29.373c0 2.72 1.184 3.698 3.068 3.698 1.883 0 3.068-.979 3.068-3.698V.435h5.597v28.992c0 6.092-3.014 9.573-8.827 9.573-5.812 0-8.826-3.481-8.826-9.573V.435zM99.67 9.573c0-6.092 2.96-9.573 8.72-9.573 5.758 0 8.718 3.481 8.718 9.573v1.197h-5.597V9.192c0-2.72-1.076-3.753-2.96-3.753s-2.96 1.034-2.96 3.753c0 7.833 11.571 9.302 11.571 20.18 0 6.092-3.014 9.574-8.826 9.574-5.813 0-8.827-3.482-8.827-9.574v-2.339h5.597v2.72c0 2.72 1.184 3.699 3.068 3.699 1.884 0 3.068-.98 3.068-3.699 0-7.832-11.572-9.301-11.572-20.18zm27.55-3.699v10.607h8.128v5.44h-8.127v11.15h10.226v5.44H121.3V.434h16.147v5.44H127.22zm20.554 0v10.607h8.127v5.44h-8.127v11.15H158v5.44h-16.146V.434H158v5.44h-10.226z"/>
        <mask id="b" fill="#fff">
            <use xlink:href="#a"/>
        </mask>
        <path fill="#000" d="M17.246 5.53l-3.63 2.233c-.46.284-1.02.002-1.179-.579-.402-1.47-1.496-1.986-3.037-1.986-1.97 0-3.209.989-3.209 3.587v2.505c0 .64-.303 1.228-.788 1.526L.795 15.652C.434 15.874 0 15.568 0 15.09V9.15C0 3.326 3.152 0 9.23 0c4.292 0 7.062 1.514 8.32 4.453.169.393.029.872-.304 1.076" mask="url(#b)"/>
        <g transform="translate(0 19.13)">
            <mask id="d" fill="#fff">
                <use xlink:href="#c"/>
            </mask>
            <path fill="#000" d="M.74.831C.318.89 0 1.291 0 1.77v9.695c0 5.746 3.234 9.03 9.47 9.03 6.236 0 9.47-3.284 9.47-9.03V.815c0-.41-.295-.741-.659-.741H10.61c-.31 0-.562.283-.562.632V4.38c0 .455.328.824.733.824h1.737c.23 0 .418.21.418.47v6.149c0 2.565-1.27 3.489-3.292 3.489-2.02 0-3.291-.924-3.291-3.49V.73c0-.352-.274-.624-.584-.582L.74.83z" mask="url(#d)"/>
        </g>
    </g>
</svg>
