<svg width="16" height="22" viewBox="0 0 16 22" fill="none" xmlns="http://www.w3.org/2000/svg">
<path d="M1.64062 7.66797H0V11.1562C0 12.332 0.898438 13.0898 2.35938 13.0898C3.82031 13.0898 4.71875 12.332 4.71875 11.1562V7.66797H3.07812V10.9258C3.07812 11.5039 2.76953 11.7461 2.35938 11.7461C1.94531 11.7461 1.64062 11.5156 1.64062 10.9258V7.66797Z" fill="#8585FF"/>
<path d="M6.73047 13L6.96875 11.9922H8.42578L8.65625 13H10.4062L8.80469 7.66797H6.72656L5.10938 13H6.73047ZM7.75 9.02344L8.16406 10.8398H7.23828L7.66797 9.02344H7.75Z" fill="#8585FF"/>
<path fill-rule="evenodd" clip-rule="evenodd" d="M6.00638 20.4541C6.78348 21.4176 7.30952 22 7.30952 22C7.30952 22 7.83557 21.4176 8.61267 20.4541C10.8087 17.7314 15.0095 11.9656 15.0095 7.7C15.0095 3.44741 11.5621 0 7.30952 0C4.55851 0 2.14446 1.44268 0.782656 3.61274C0.383843 4.24825 0.896213 5 1.6465 5V5C2.04182 5 2.3985 4.77802 2.62394 4.45328C3.65318 2.97071 5.36799 2 7.30952 2C10.4575 2 13.0095 4.55198 13.0095 7.7C13.0095 8.73908 12.6517 10.0563 11.9812 11.553C11.3224 13.0235 10.4263 14.5264 9.50159 15.897C8.72766 17.0441 7.95092 18.0732 7.30952 18.8815C6.66812 18.0732 5.89139 17.0441 5.11745 15.897C5.02246 15.7562 4.92778 15.6141 4.83362 15.4707C4.64205 15.1789 4.31803 15 3.969 15V15C3.17962 15 2.69478 15.8549 3.12704 16.5154C4.15327 18.0835 5.21125 19.4683 6.00638 20.4541Z" fill="#8585FF"/>
</svg>
