<svg width="16" height="22" viewBox="0 0 16 22" fill="none" xmlns="http://www.w3.org/2000/svg">
<path d="M1.64062 7.66797H0V11.1562C0 12.332 0.898438 13.0898 2.35938 13.0898C3.82031 13.0898 4.71875 12.332 4.71875 11.1562V7.66797H3.07812V10.9258C3.07812 11.5039 2.76953 11.7461 2.35938 11.7461C1.94531 11.7461 1.64062 11.5156 1.64062 10.9258V7.66797Z" fill="#8585FF"/>
<path d="M5.33203 11.3672C5.33594 12.1875 5.86719 13.0898 7.61719 13.0898C9.17969 13.0898 9.92578 12.332 9.92578 11.293C9.92578 10.1914 9.16016 9.8125 8.42188 9.70312L7.73828 9.59766C7.30469 9.53125 7.04297 9.41406 7.04297 9.18359C7.04297 8.95703 7.21875 8.76562 7.63672 8.76562C8.10938 8.76562 8.32422 9.04688 8.33203 9.26953H9.81641C9.81641 8.4375 9.14062 7.58203 7.63281 7.58203C6.30469 7.58203 5.41797 8.21484 5.41797 9.31641C5.41797 10.3047 6.05469 10.7461 6.93359 10.9023L7.57812 11.0156C8.05859 11.1016 8.32422 11.1953 8.32422 11.4688C8.32422 11.6875 8.15234 11.8867 7.65234 11.8867C7.14062 11.8867 6.87891 11.6172 6.87109 11.3672H5.33203Z" fill="#8585FF"/>
<path fill-rule="evenodd" clip-rule="evenodd" d="M6.00638 20.4541C6.78348 21.4176 7.30952 22 7.30952 22C7.30952 22 7.83557 21.4176 8.61267 20.4541C10.8087 17.7314 15.0095 11.9656 15.0095 7.7C15.0095 3.44741 11.5621 0 7.30952 0C4.55851 0 2.14446 1.44268 0.782656 3.61274C0.383843 4.24825 0.896213 5 1.6465 5V5C2.04182 5 2.3985 4.77802 2.62394 4.45328C3.65318 2.97071 5.36799 2 7.30952 2C10.4575 2 13.0095 4.55198 13.0095 7.7C13.0095 8.73908 12.6517 10.0563 11.9812 11.553C11.3224 13.0235 10.4263 14.5264 9.50159 15.897C8.72766 17.0441 7.95092 18.0732 7.30952 18.8815C6.66812 18.0732 5.89139 17.0441 5.11745 15.897C5.02246 15.7562 4.92778 15.6141 4.83362 15.4707C4.64205 15.1789 4.31803 15 3.969 15V15C3.17962 15 2.69478 15.8549 3.12704 16.5154C4.15327 18.0835 5.21125 19.4683 6.00638 20.4541Z" fill="#8585FF"/>
</svg>
