<svg width="133" height="134" viewBox="0 0 133 125" fill="none" xmlns="http://www.w3.org/2000/svg">
<path fill-rule="evenodd" clip-rule="evenodd" d="M93.7236 45.8368C102.056 66.4507 124.717 63.9177 113.036 90.2743C101.356 116.631 79.4442 117.086 37.1243 99.8856C-5.19557 82.6848 9.9597 48.9541 26.8946 33.6556C35.3623 26.006 54.2208 13.2872 68.1721 14.9292C82.1232 16.5717 89.664 35.7926 93.7236 45.8368Z" fill="#8585FF"/>
<path d="M51.152 75.408C51.152 77.232 51.512 78.528 52.232 79.296C53 80.016 54.008 80.376 55.256 80.376C56.504 80.376 57.488 80.016 58.208 79.296C58.976 78.528 59.36 77.232 59.36 75.408V48.192C59.36 46.368 58.976 45.096 58.208 44.376C57.488 43.608 56.504 43.224 55.256 43.224C54.008 43.224 53 43.608 52.232 44.376C51.512 45.096 51.152 46.368 51.152 48.192V75.408ZM43.232 48.696C43.232 44.616 44.264 41.496 46.328 39.336C48.392 37.128 51.368 36.024 55.256 36.024C59.144 36.024 62.12 37.128 64.184 39.336C66.248 41.496 67.28 44.616 67.28 48.696V74.904C67.28 78.984 66.248 82.128 64.184 84.336C62.12 86.496 59.144 87.576 55.256 87.576C51.368 87.576 48.392 86.496 46.328 84.336C44.264 82.128 43.232 78.984 43.232 74.904V48.696ZM77.8229 42.936C79.3589 42.936 80.6069 42.768 81.5669 42.432C82.5749 42.096 83.3909 41.64 84.0149 41.064C84.6389 40.488 85.1429 39.816 85.5269 39.048C85.9109 38.28 86.2469 37.464 86.5349 36.6H91.8629V87H83.9429V48.552H77.8229V42.936Z" fill="#FAFAFE"/>
<path d="M128.338 34.6107L121.223 44.3239L116 33.2648L128.338 34.6107Z" stroke="#DFDEF4" stroke-width="3" stroke-linejoin="round"/>
</svg>
