<svg width="35" height="27" viewBox="0 0 35 27" fill="none" xmlns="http://www.w3.org/2000/svg">
<path d="M12.3253 0.0960842C12.4507 0.0320281 12.7016 0 13.078 0C13.4543 0 14.207 0.19217 15.336 0.576511C16.4651 0.960851 17.1864 1.28114 17.5 1.53736C15.1165 4.29181 12.5448 7.59074 9.78495 11.4342C11.5412 11.8826 13.0152 12.8114 14.207 14.2206C15.3987 15.6299 15.9946 17.3594 15.9946 19.4093C15.9946 21.395 15.2419 23.1566 13.7366 24.6939C12.2939 26.2313 10.6004 27 8.65591 27C8.53047 27 8.43638 27 8.37366 27C5.99014 27 3.98297 26.2954 2.35215 24.8861C0.78405 23.4769 0 21.363 0 18.5445C0.062724 15.726 1.47401 12.4911 4.23387 8.83986C7.05645 5.18861 9.75358 2.27402 12.3253 0.0960842ZM30.0134 0.0960842C30.1389 0.0320281 30.3584 0 30.672 0C31.0484 0 31.8324 0.224198 33.0242 0.672595C34.2159 1.05694 34.8746 1.34519 35 1.53736C31.8638 5.25267 29.3548 8.5516 27.4731 11.4342C29.2294 11.8826 30.672 12.8114 31.8011 14.2206C32.9928 15.5658 33.5887 17.2954 33.5887 19.4093C33.5887 21.4591 32.8674 23.2527 31.4247 24.79C29.9821 26.2633 28.2572 27 26.25 27C26.1246 27 26.0305 27 25.9677 27C23.647 27 21.6711 26.2954 20.0403 24.8861C18.4722 23.4769 17.6882 21.6192 17.6882 19.3132C17.6882 16.9431 18.5663 14.3167 20.3226 11.4342C23.0197 7.07829 26.25 3.29893 30.0134 0.0960842Z" fill="#00BDFF"/>
</svg>
