<svg width="18" height="18" viewBox="0 0 18 18" fill="none" xmlns="http://www.w3.org/2000/svg">
<path fill-rule="evenodd" clip-rule="evenodd" d="M17.36 10.55C17.85 7.89 17.07 5.04 15 3C12.96 0.93 10.11 0.15 7.45 0.64C6.73 0.23 5.89 0 5 0C2.23858 0 0 2.23858 0 5C0 5.89 0.23 6.73 0.64 7.45C0.15 10.11 0.93 12.96 3 15C5.04 17.07 7.89 17.85 10.55 17.36C11.27 17.77 12.11 18 13 18C15.7614 18 18 15.7614 18 13C18 12.11 17.77 11.27 17.36 10.55ZM13.34 10.92C13.34 12.78 11.91 14.16 9.04 14.16C6 14.16 4.67 12.68 4.67 11.57C4.67 11 5.09 10.6 5.67 10.6C6.21503 10.6 6.47088 10.9302 6.76637 11.3117C7.17027 11.833 7.64824 12.45 9.04 12.45C10.27 12.45 10.95 11.78 10.95 11.1C10.95 10.68 10.75 10.23 9.94 10.03L7.25 9.35C5.09 8.81 4.7 7.64 4.7 6.54C4.7 4.26 6.85 3.4 8.86 3.4C10.72 3.4 12.91 4.43 12.91 5.8C12.91 6.39 12.41 6.73 11.83 6.73C11.3708 6.73 11.1375 6.46818 10.864 6.16116C10.4762 5.72599 10.0075 5.2 8.7 5.2C7.6 5.2 7 5.7 7 6.42C7 7.13 7.86 7.36 8.62 7.53L10.61 7.97C12.78 8.46 13.34 9.73 13.34 10.92Z" fill="#8585FF"/>
</svg>
