<svg width="126" height="18" viewBox="0 0 126 18" fill="none" xmlns="http://www.w3.org/2000/svg">
<g clip-path="url(#clip0_1_18)">
<path d="M25.0079 12.2396V9.14734H23V7.82756L25.0778 7.74468L25.3066 5.40266H26.7681V7.74043H30.1739V9.14309H26.7681V12.2289C26.7681 13.4701 27.234 14.029 28.4985 14.029C29.0551 14.0268 29.6067 13.9246 30.1273 13.7272L30.4705 15.0024C29.7006 15.2779 28.8901 15.4215 28.0728 15.4274C25.7853 15.4444 25.0079 14.1544 25.0079 12.2396Z" fill="#1D1D1B"/>
<path d="M31.7371 11.4937C31.7371 9.04121 33.5926 7.56204 35.5984 7.56204C37.8351 7.56204 39.0741 9.04971 39.0741 11.1303C39.0712 11.428 39.045 11.7251 38.9958 12.0187H32.9974V10.769H37.8562L37.5195 11.1601C37.5195 9.67241 36.8247 8.9222 35.6513 8.9222C34.4123 8.9222 33.4591 9.81693 33.4591 11.4937C33.4591 13.2428 34.5076 14.0759 36.0644 14.0759C36.8074 14.0667 37.5338 13.8544 38.1655 13.4617L38.7755 14.5584C37.9017 15.1296 36.8828 15.4372 35.8398 15.4446C33.5396 15.4446 31.7371 13.9952 31.7371 11.4937Z" fill="#1D1D1B"/>
<path d="M40.6139 11.5127C40.6139 9.0007 42.5837 7.56191 44.8691 7.56191C45.8941 7.53978 46.887 7.92121 47.6353 8.62453L46.8029 9.73391C46.2901 9.28251 45.6357 9.02603 44.9538 9.0092C43.4542 9.0092 42.4121 10.0059 42.4121 11.517C42.4121 13.028 43.4351 14.0014 44.9008 14.0014C45.6849 13.9744 46.437 13.6832 47.0359 13.1747L47.773 14.3032C46.9321 15.0339 45.8586 15.4387 44.7462 15.4444C42.3973 15.4444 40.6139 14.0056 40.6139 11.5127Z" fill="#1D1D1B"/>
<path d="M49.4421 4.45483H51.2064V7.24527L51.1027 8.85196H51.1535C51.8059 8.15063 52.6467 7.56194 53.7863 7.56194C55.5104 7.56194 56.292 8.66919 56.292 10.6053V15.2617H54.5276V10.8369C54.5276 9.6298 54.14 9.07936 53.1318 9.07936C52.3926 9.07936 51.8927 9.43853 51.2064 10.142V15.2681H49.4421V4.45483Z" fill="#1D1D1B"/>
<path d="M58.8612 7.74043H60.3163L60.4667 9.44063H60.5069C61.2694 8.21436 62.4132 7.54704 63.6946 7.54704C64.1979 7.52939 64.6979 7.6344 65.1518 7.85307L64.7791 9.34074C64.3451 9.181 63.8857 9.10179 63.4235 9.10697C62.3983 9.10697 61.3923 9.63403 60.6255 11.0941V15.2383H58.8612V7.74043Z" fill="#1D1D1B"/>
<path d="M66.5075 11.4937C66.5075 9.04121 68.3629 7.56204 70.3687 7.56204C72.6033 7.56204 73.8445 9.04971 73.8445 11.1303C73.8405 11.428 73.8143 11.7249 73.7661 12.0187H67.7656V10.769H72.6266L72.2898 11.1601C72.2898 9.67241 71.593 8.9222 70.4217 8.9222C69.1826 8.9222 68.2273 9.81693 68.2273 11.4937C68.2273 13.2428 69.2864 14.0759 70.8347 14.0759C71.5777 14.0664 72.304 13.8541 72.9358 13.4617L73.5395 14.5584C72.6655 15.1293 71.6467 15.4369 70.6038 15.4446C68.3099 15.4446 66.5075 13.9952 66.5075 11.4937Z" fill="#1D1D1B"/>
<path d="M74.8802 7.74047H76.6636L78.1081 11.6297C78.3771 12.3841 78.6165 13.1407 78.8601 13.8994H78.9215C79.1629 13.1407 79.3853 12.3841 79.6628 11.6297L81.1073 7.74047H82.8018L79.8661 15.2617H77.8603L74.8802 7.74047Z" fill="#1D1D1B"/>
<path d="M87.4743 9.14734H84.24V7.74043H89.2387V15.2574H87.4743V9.14734ZM86.9872 5.19438C86.9872 4.4888 87.5167 3.99999 88.2411 3.99999C88.9655 3.99999 89.495 4.4888 89.495 5.19438C89.495 5.89996 88.9655 6.37602 88.2411 6.37602C87.5167 6.37602 86.9872 5.90847 86.9872 5.19013V5.19438Z" fill="#1D1D1B"/>
<path d="M92.5852 11.4937C92.5852 9.04121 94.4406 7.56204 96.4464 7.56204C98.681 7.56204 99.9201 9.04971 99.9201 11.1303C99.9166 11.4279 99.8911 11.7249 99.8438 12.0187H93.8454V10.769H98.7064L98.3696 11.1601C98.3696 9.67241 97.6728 8.9222 96.5015 8.9222C95.2624 8.9222 94.3072 9.81693 94.3072 11.4937C94.3072 13.2428 95.3556 14.0759 96.9145 14.0759C97.6575 14.0664 98.3838 13.8541 99.0156 13.4617L99.6172 14.5584C98.744 15.1294 97.7259 15.4369 96.6836 15.4446C94.3876 15.4446 92.5852 13.9952 92.5852 11.4937Z" fill="#1D1D1B"/>
<path d="M100.428 7.74047H102.15L102.822 11.653C102.936 12.3778 103.021 13.0663 103.112 13.8038H103.165C103.253 13.0801 103.383 12.362 103.553 11.653L104.243 8.48005H105.683L106.368 11.653C106.524 12.3778 106.687 13.0663 106.791 13.8038H106.853C106.963 13.0663 107.018 12.3778 107.126 11.653L107.774 7.74047H109.403L108.037 15.2617H105.897L105.262 12.2609C105.152 11.6743 105.05 10.9453 104.94 10.0357H104.879C104.785 10.8263 104.692 11.5234 104.569 12.2609L103.959 15.2617H101.841L100.428 7.74047Z" fill="#1D1D1B"/>
<path d="M109.97 11.4937C109.97 9.04121 111.826 7.56204 113.829 7.56204C116.066 7.56204 117.305 9.04971 117.305 11.1303C117.302 11.4279 117.276 11.7249 117.229 12.0187H111.229V10.769H116.085L115.748 11.1601C115.748 9.67241 115.052 8.9222 113.878 8.9222C112.641 8.9222 111.686 9.81693 111.686 11.4937C111.686 13.2428 112.734 14.0759 114.293 14.0759C115.036 14.0667 115.761 13.8544 116.392 13.4617L116.996 14.5584C116.123 15.1294 115.105 15.4369 114.062 15.4446C111.773 15.4446 109.97 13.9952 109.97 11.4937Z" fill="#1D1D1B"/>
<path d="M119.707 7.74043H121.169L121.319 9.44062H121.361C122.122 8.21436 123.268 7.54703 124.538 7.54703C125.042 7.52938 125.543 7.63438 125.998 7.85307L125.623 9.34074C125.189 9.181 124.73 9.10178 124.267 9.10696C123.244 9.10696 122.236 9.63402 121.469 11.0941V15.2383H119.707V7.74043Z" fill="#1D1D1B"/>
</g>
<g clip-path="url(#clip1_1_18)">
<path d="M3.65395 17.9897C3.834 16.9668 4.01154 15.9967 4.17648 15.0242C4.36955 13.8836 4.55547 12.7431 4.73427 11.6025C4.73293 11.527 4.70781 11.4538 4.6625 11.3934C4.61978 11.3372 4.57078 11.2861 4.51644 11.241C3.23383 9.98118 1.95037 8.71803 0.666077 7.45151C0.472174 7.26128 0.259385 7.08995 7.62939e-06 6.86066C0.842354 6.74098 1.59278 6.63768 2.34195 6.52808C3.11379 6.41343 3.88437 6.28997 4.6562 6.17407C5.23288 6.08841 5.80829 5.99392 6.38874 5.93219C6.45489 5.93025 6.51882 5.9079 6.57178 5.86821C6.62475 5.82852 6.66416 5.77343 6.68463 5.71047C7.60211 3.84597 8.52545 1.98273 9.45468 0.120744C9.47231 0.0867296 9.49497 0.0552346 9.52897 -0.00523567C10.5073 1.97769 11.4743 3.93793 12.44 5.89818L19.0063 6.85562C18.8086 7.05341 18.6475 7.22097 18.48 7.38222C17.8823 7.96341 17.2834 8.54291 16.6832 9.12074C16.0134 9.76954 15.3738 10.4398 14.6787 11.0482C14.2934 11.3846 14.2607 11.731 14.3514 12.1821C14.5314 13.0916 14.6724 14.01 14.8298 14.9234C14.9734 15.7632 15.1169 16.6006 15.2604 17.4354C15.2894 17.6055 15.3297 17.7756 15.3763 17.9998C14.5956 17.5954 13.8653 17.2175 13.1275 16.832C12.7259 16.6216 12.3317 16.3936 11.9288 16.1832C11.157 15.7826 10.3826 15.3857 9.60325 14.999C9.55494 14.9868 9.50471 14.9843 9.45544 14.9917C9.40617 14.999 9.35884 15.0161 9.31618 15.0418C7.749 15.8598 6.18267 16.6812 4.61717 17.506C4.32002 17.6622 4.01783 17.8071 3.65395 17.9897Z" fill="#F0212B"/>
</g>
<defs>
<clipPath id="clip0_1_18">
<rect width="103" height="11.4444" fill="white" transform="translate(23 4)"/>
</clipPath>
<clipPath id="clip1_1_18">
<rect width="19" height="18" fill="white"/>
</clipPath>
</defs>
</svg>
