<svg width="134" height="134" viewBox="0 0 134 115" fill="none" xmlns="http://www.w3.org/2000/svg">
<path fill-rule="evenodd" clip-rule="evenodd" d="M45.3056 77.1182C34.3443 57.6541 11.9737 62.9171 20.3235 35.3233C28.6732 7.72938 50.557 4.62054 95.1195 16.5742C139.682 28.5279 128.789 63.8672 113.774 81.115C106.266 89.7393 88.9962 104.658 74.8172 104.719C60.6383 104.778 50.6463 86.6021 45.3056 77.1182Z" fill="#8585FF"/>
<path d="M50.152 73.408C50.152 75.232 50.512 76.528 51.232 77.296C52 78.016 53.008 78.376 54.256 78.376C55.504 78.376 56.488 78.016 57.208 77.296C57.976 76.528 58.36 75.232 58.36 73.408V46.192C58.36 44.368 57.976 43.096 57.208 42.376C56.488 41.608 55.504 41.224 54.256 41.224C53.008 41.224 52 41.608 51.232 42.376C50.512 43.096 50.152 44.368 50.152 46.192V73.408ZM42.232 46.696C42.232 42.616 43.264 39.496 45.328 37.336C47.392 35.128 50.368 34.024 54.256 34.024C58.144 34.024 61.12 35.128 63.184 37.336C65.248 39.496 66.28 42.616 66.28 46.696V72.904C66.28 76.984 65.248 80.128 63.184 82.336C61.12 84.496 58.144 85.576 54.256 85.576C50.368 85.576 47.392 84.496 45.328 82.336C43.264 80.128 42.232 76.984 42.232 72.904V46.696ZM87.1909 46.984C87.1909 44.728 86.8069 43.216 86.0389 42.448C85.3189 41.632 84.3349 41.224 83.0869 41.224C81.8389 41.224 80.8309 41.608 80.0629 42.376C79.3429 43.096 78.9829 44.368 78.9829 46.192V49.432H71.4949V46.696C71.4949 42.616 72.4789 39.496 74.4469 37.336C76.4629 35.128 79.4149 34.024 83.3029 34.024C87.1909 34.024 90.1189 35.128 92.0869 37.336C94.1029 39.496 95.1109 42.616 95.1109 46.696V47.992C95.1109 53.368 93.2629 56.824 89.5669 58.36C91.5829 59.224 92.9989 60.568 93.8149 62.392C94.6789 64.168 95.1109 66.352 95.1109 68.944V72.904C95.1109 76.984 94.1029 80.128 92.0869 82.336C90.1189 84.496 87.1909 85.576 83.3029 85.576C79.4149 85.576 76.4629 84.496 74.4469 82.336C72.4789 80.128 71.4949 76.984 71.4949 72.904V68.728H78.9829V73.408C78.9829 75.232 79.3429 76.528 80.0629 77.296C80.8309 78.016 81.8389 78.376 83.0869 78.376C84.3349 78.376 85.3189 77.992 86.0389 77.224C86.8069 76.456 87.1909 74.944 87.1909 72.688V68.728C87.1909 66.376 86.7829 64.72 85.9669 63.76C85.1509 62.8 83.8309 62.32 82.0069 62.32H79.3429V55.12H82.4389C83.9269 55.12 85.0789 54.736 85.8949 53.968C86.7589 53.2 87.1909 51.808 87.1909 49.792V46.984Z" fill="#FAFAFE"/>
<path d="M17.2354 71.9171L7.04734 82.6462L2.40686 68.3512L17.2354 71.9171Z" stroke="#DFDEF4" stroke-width="3" stroke-linejoin="round"/>
</svg>
