<svg width="147" height="134" viewBox="0 0 147 134" fill="none" xmlns="http://www.w3.org/2000/svg">
<path fill-rule="evenodd" clip-rule="evenodd" d="M73.5291 34.8424C95.0011 41.0028 107.232 21.5468 120.665 47.0559C134.097 72.5651 120.699 90.1456 80.5784 112.928C40.4575 135.71 23.3969 102.9 21.9757 80.0763C21.265 68.6638 23.084 45.9153 33.1365 35.9155C43.1892 25.9162 63.067 31.8405 73.5291 34.8424Z" fill="#8585FF"/>
<path d="M62.152 88.408C62.152 90.232 62.512 91.528 63.232 92.296C64 93.016 65.008 93.376 66.256 93.376C67.504 93.376 68.488 93.016 69.208 92.296C69.976 91.528 70.36 90.232 70.36 88.408V61.192C70.36 59.368 69.976 58.096 69.208 57.376C68.488 56.608 67.504 56.224 66.256 56.224C65.008 56.224 64 56.608 63.232 57.376C62.512 58.096 62.152 59.368 62.152 61.192V88.408ZM54.232 61.696C54.232 57.616 55.264 54.496 57.328 52.336C59.392 50.128 62.368 49.024 66.256 49.024C70.144 49.024 73.12 50.128 75.184 52.336C77.248 54.496 78.28 57.616 78.28 61.696V87.904C78.28 91.984 77.248 95.128 75.184 97.336C73.12 99.496 70.144 100.576 66.256 100.576C62.368 100.576 59.392 99.496 57.328 97.336C55.264 95.128 54.232 91.984 54.232 87.904V61.696ZM99.6229 61.984C99.6229 59.728 99.2389 58.216 98.4709 57.448C97.7509 56.632 96.7669 56.224 95.5189 56.224C94.2709 56.224 93.2629 56.608 92.4949 57.376C91.7749 58.096 91.4149 59.368 91.4149 61.192V66.592H83.9269V61.696C83.9269 57.616 84.9109 54.496 86.8789 52.336C88.8949 50.128 91.8469 49.024 95.7349 49.024C99.6229 49.024 102.551 50.128 104.519 52.336C106.535 54.496 107.543 57.616 107.543 61.696C107.543 64.336 107.159 66.736 106.391 68.896C105.623 71.008 104.639 72.952 103.439 74.728C102.287 76.456 101.015 78.064 99.6229 79.552C98.2789 81.04 97.0069 82.456 95.8069 83.8C94.6549 85.144 93.6949 86.464 92.9269 87.76C92.1589 89.008 91.7749 90.328 91.7749 91.72C91.7749 92.2 91.7989 92.56 91.8469 92.8H106.823V100H83.9269V93.808C83.9269 91.36 84.3109 89.2 85.0789 87.328C85.8469 85.456 86.8069 83.752 87.9589 82.216C89.1589 80.632 90.4309 79.168 91.7749 77.824C93.1189 76.432 94.3669 74.968 95.5189 73.432C96.7189 71.896 97.7029 70.216 98.4709 68.392C99.2389 66.568 99.6229 64.432 99.6229 61.984Z" fill="#FAFAFE"/>
<path d="M131.143 94.2933L145.177 108.444L125.743 114.115L131.143 94.2933Z" stroke="#DFDEF4" stroke-width="3" stroke-linejoin="round"/>
</svg>
