<svg width="100" height="88" viewBox="0 0 100 88" fill="none" xmlns="http://www.w3.org/2000/svg">
<mask id="path-1-inside-1" fill="white">
<path fill-rule="evenodd" clip-rule="evenodd" d="M65.0092 18.5122C64.8325 18.1959 64.4985 18 64.1362 18H54.6332C53.8668 18 53.3853 18.8267 53.7634 19.4933L88.9276 81.4933C89.1052 81.8065 89.4374 82 89.7974 82H98.7822C99.5458 82 100.028 81.1788 99.6552 80.5122L65.0092 18.5122ZM50.5662 25.3367C50.1866 24.6614 49.2166 24.6555 48.8288 25.326L44.071 33.5522C43.8935 33.8592 43.8918 34.2373 44.0666 34.5458L70.6637 81.4929C70.8413 81.8063 71.1736 82 71.5338 82H80.7045C81.4692 82 81.9509 81.1766 81.5763 80.51L50.5662 25.3367ZM39.8272 41.2793C40.207 40.6018 41.1805 40.597 41.5669 41.2708L46.514 49.8973C46.6927 50.2089 46.6906 50.5923 46.5085 50.9019L35.3548 69.8596C34.9611 70.5287 35.4468 71.3716 36.2231 71.3667L57.8719 71.2288C58.2332 71.2265 58.5676 71.4192 58.7467 71.733L63.7544 80.5042C64.135 81.1708 63.6536 82 62.886 82L18.707 82C17.9428 82 17.4611 81.1776 17.8347 80.511L39.8272 41.2793Z"/>
</mask>
<path fill-rule="evenodd" clip-rule="evenodd" d="M65.0092 18.5122C64.8325 18.1959 64.4985 18 64.1362 18H54.6332C53.8668 18 53.3853 18.8267 53.7634 19.4933L88.9276 81.4933C89.1052 81.8065 89.4374 82 89.7974 82H98.7822C99.5458 82 100.028 81.1788 99.6552 80.5122L65.0092 18.5122ZM50.5662 25.3367C50.1866 24.6614 49.2166 24.6555 48.8288 25.326L44.071 33.5522C43.8935 33.8592 43.8918 34.2373 44.0666 34.5458L70.6637 81.4929C70.8413 81.8063 71.1736 82 71.5338 82H80.7045C81.4692 82 81.9509 81.1766 81.5763 80.51L50.5662 25.3367ZM39.8272 41.2793C40.207 40.6018 41.1805 40.597 41.5669 41.2708L46.514 49.8973C46.6927 50.2089 46.6906 50.5923 46.5085 50.9019L35.3548 69.8596C34.9611 70.5287 35.4468 71.3716 36.2231 71.3667L57.8719 71.2288C58.2332 71.2265 58.5676 71.4192 58.7467 71.733L63.7544 80.5042C64.135 81.1708 63.6536 82 62.886 82L18.707 82C17.9428 82 17.4611 81.1776 17.8347 80.511L39.8272 41.2793Z" fill="#F7F7FE"/>
<path d="M18.707 82V82.5V82ZM17.8347 80.511L17.3986 80.2665L17.8347 80.511ZM63.7544 80.5042L64.1886 80.2563L63.7544 80.5042ZM62.886 82V81.5V82ZM57.8719 71.2288L57.8751 71.7288L57.8719 71.2288ZM58.7467 71.733L59.1809 71.4851L58.7467 71.733ZM35.3548 69.8596L35.7857 70.1132L35.3548 69.8596ZM36.2231 71.3667L36.2262 71.8667L36.2231 71.3667ZM41.5669 41.2708L41.1332 41.5196L41.5669 41.2708ZM39.8272 41.2793L39.391 41.0348L39.8272 41.2793ZM46.514 49.8973L46.0803 50.146L46.514 49.8973ZM46.5085 50.9019L46.9394 51.1554L46.5085 50.9019ZM81.5763 80.51L81.1404 80.755L81.5763 80.51ZM70.6637 81.4929L71.0988 81.2465L70.6637 81.4929ZM48.8288 25.326L48.3959 25.0757L48.8288 25.326ZM50.5662 25.3367L51.002 25.0917L50.5662 25.3367ZM44.071 33.5522L44.5039 33.8026L44.071 33.5522ZM44.0666 34.5458L43.6316 34.7923L44.0666 34.5458ZM99.6552 80.5122L99.2187 80.7561L99.6552 80.5122ZM88.9276 81.4933L88.4926 81.74L88.9276 81.4933ZM65.0092 18.5122L65.4457 18.2683L65.0092 18.5122ZM53.7634 19.4933L54.1983 19.2467L53.7634 19.4933ZM18.4833 81.4488C18.2362 81.3255 17.9359 81.4259 17.8127 81.673C17.6894 81.9201 17.7897 82.2203 18.0368 82.3436L18.4833 81.4488ZM17.2073 80.9276C17.194 81.2034 17.4068 81.4378 17.6826 81.4511C17.9585 81.4644 18.1928 81.2515 18.2061 80.9757L17.2073 80.9276ZM20.7145 76.3964C20.8495 76.1556 20.7637 75.8508 20.5228 75.7158C20.282 75.5808 19.9772 75.6666 19.8422 75.9074L20.7145 76.3964ZM25.9512 65.0097C25.8162 65.2506 25.902 65.5554 26.1429 65.6904C26.3837 65.8254 26.6885 65.7396 26.8235 65.4987L25.9512 65.0097ZM31.7107 56.7806C31.8457 56.5397 31.7599 56.235 31.5191 56.0999C31.2782 55.9649 30.9734 56.0507 30.8384 56.2916L31.7107 56.7806ZM36.9474 45.3939C36.8124 45.6348 36.8982 45.9395 37.1391 46.0745C37.38 46.2096 37.6847 46.1238 37.8197 45.8829L36.9474 45.3939ZM40.4199 41.3518C40.6493 41.198 40.7105 40.8874 40.5567 40.658C40.4028 40.4287 40.0922 40.3675 39.8629 40.5213L40.4199 41.3518ZM41.5238 40.5132C41.293 40.3616 40.983 40.4259 40.8315 40.6567C40.6799 40.8875 40.7441 41.1975 40.9749 41.3491L41.5238 40.5132ZM42.2326 43.4366C42.3699 43.6761 42.6755 43.7589 42.915 43.6216C43.1546 43.4842 43.2374 43.1786 43.1 42.9391L42.2326 43.4366ZM45.8484 47.7316C45.711 47.492 45.4055 47.4092 45.1659 47.5466C44.9264 47.6839 44.8436 47.9895 44.9809 48.229L45.8484 47.7316ZM46.1262 50.2533C46.2043 50.5182 46.4823 50.6696 46.7472 50.5915C47.012 50.5134 47.1634 50.2353 47.0853 49.9704L46.1262 50.2533ZM47.0805 50.8351C47.1616 50.5711 47.0133 50.2914 46.7493 50.2103C46.4853 50.1293 46.2056 50.2776 46.1246 50.5416L47.0805 50.8351ZM43.5989 54.8612C43.4589 55.0992 43.5383 55.4056 43.7763 55.5456C44.0143 55.6857 44.3208 55.6063 44.4608 55.3682L43.5989 54.8612ZM38.2643 65.9003C38.4044 65.6623 38.3249 65.3559 38.0869 65.2158C37.8489 65.0758 37.5425 65.1552 37.4024 65.3932L38.2643 65.9003ZM34.7181 70.2721C34.7007 70.5477 34.91 70.7852 35.1856 70.8025C35.4612 70.8199 35.6987 70.6106 35.7161 70.335L34.7181 70.2721ZM35.993 70.8157C35.7459 70.6925 35.4457 70.793 35.3225 71.0401C35.1993 71.2872 35.2997 71.5875 35.5469 71.7107L35.993 70.8157ZM41.0371 71.836C41.3132 71.8343 41.5357 71.609 41.5339 71.3329C41.5321 71.0567 41.3069 70.8343 41.0307 70.8361L41.0371 71.836ZM53.0579 70.7594C52.7817 70.7612 52.5593 70.9865 52.5611 71.2626C52.5628 71.5388 52.7881 71.7612 53.0642 71.7594L53.0579 70.7594ZM57.9917 71.7418C58.2607 71.8044 58.5295 71.6372 58.5921 71.3682C58.6547 71.0993 58.4875 70.8305 58.2186 70.7679L57.9917 71.7418ZM58.9718 71.2019C58.7827 71.0006 58.4663 70.9907 58.265 71.1797C58.0637 71.3688 58.0538 71.6852 58.2428 71.8865L58.9718 71.2019ZM59.4253 73.93C59.5622 74.1698 59.8676 74.2533 60.1074 74.1163C60.3473 73.9794 60.4307 73.674 60.2938 73.4342L59.4253 73.93ZM63.0758 78.3071C62.9389 78.0673 62.6335 77.9839 62.3937 78.1208C62.1539 78.2577 62.0705 78.5631 62.2074 78.8029L63.0758 78.3071ZM63.3867 80.9726C63.4017 81.2484 63.6374 81.4598 63.9131 81.4448C64.1889 81.4298 64.4002 81.1942 64.3853 80.9184L63.3867 80.9726ZM63.5585 82.3425C63.8054 82.2188 63.9052 81.9183 63.7815 81.6715C63.6578 81.4246 63.3574 81.3247 63.1105 81.4484L63.5585 82.3425ZM57.9772 81.5C57.7011 81.5 57.4772 81.7239 57.4772 82C57.4772 82.2761 57.7011 82.5 57.9772 82.5V81.5ZM45.7053 82.5C45.9814 82.5 46.2053 82.2761 46.2053 82C46.2053 81.7239 45.9814 81.5 45.7053 81.5V82.5ZM35.8877 81.5C35.6116 81.5 35.3877 81.7239 35.3877 82C35.3877 82.2761 35.6116 82.5 35.8877 82.5V81.5ZM23.6158 82.5C23.8919 82.5 24.1158 82.2761 24.1158 82C24.1158 81.7239 23.8919 81.5 23.6158 81.5V82.5ZM78.6666 81.5C78.3904 81.5 78.1666 81.7239 78.1666 82C78.1666 82.2762 78.3904 82.5 78.6666 82.5V81.5ZM73.5717 82.5C73.8479 82.5 74.0717 82.2762 74.0717 82C74.0717 81.7239 73.8479 81.5 73.5717 81.5V82.5ZM71.4176 81.4863C71.149 81.4222 70.8793 81.5879 70.8151 81.8565C70.7509 82.125 70.9166 82.3948 71.1852 82.459L71.4176 81.4863ZM70.4362 82.0225C70.6245 82.2245 70.9408 82.2357 71.1429 82.0475C71.345 81.8593 71.3562 81.5429 71.1679 81.3408L70.4362 82.0225ZM69.1286 77.7689C68.9925 77.5286 68.6874 77.4442 68.4471 77.5803C68.2069 77.7164 68.1224 78.0216 68.2585 78.2618L69.1286 77.7689ZM63.3332 69.5679C63.4693 69.8082 63.7744 69.8926 64.0147 69.7565C64.2549 69.6204 64.3393 69.3153 64.2032 69.075L63.3332 69.5679ZM60.2629 62.1199C60.1268 61.8796 59.8217 61.7952 59.5814 61.9313C59.3411 62.0674 59.2567 62.3725 59.3928 62.6128L60.2629 62.1199ZM54.4674 53.9189C54.6036 54.1591 54.9087 54.2436 55.1489 54.1075C55.3892 53.9713 55.4736 53.6662 55.3375 53.426L54.4674 53.9189ZM51.3972 46.4708C51.2611 46.2306 50.956 46.1461 50.7157 46.2823C50.4754 46.4184 50.391 46.7235 50.5271 46.9638L51.3972 46.4708ZM45.6017 38.2698C45.7379 38.5101 46.043 38.5945 46.2832 38.4584C46.5235 38.3223 46.6079 38.0172 46.4718 37.7769L45.6017 38.2698ZM44.4568 34.1932C44.3793 33.9281 44.1016 33.7761 43.8366 33.8535C43.5715 33.931 43.4194 34.2087 43.4969 34.4737L44.4568 34.1932ZM43.5007 33.6193C43.4209 33.8836 43.5705 34.1626 43.8348 34.2424C44.0992 34.3223 44.3782 34.1727 44.458 33.9083L43.5007 33.6193ZM45.5611 31.9745C45.6994 31.7355 45.6177 31.4296 45.3786 31.2914C45.1396 31.1531 44.8337 31.2348 44.6955 31.4739L45.5611 31.9745ZM47.3387 26.9037C47.2004 27.1428 47.2821 27.4486 47.5212 27.5869C47.7602 27.7251 48.0661 27.6434 48.2043 27.4044L47.3387 26.9037ZM49.4201 25.4067C49.6513 25.2558 49.7163 24.9459 49.5653 24.7147C49.4144 24.4835 49.1045 24.4185 48.8733 24.5694L49.4201 25.4067ZM50.5309 24.5796C50.3016 24.4258 49.991 24.4871 49.8372 24.7164C49.6834 24.9457 49.7446 25.2563 49.9739 25.4101L50.5309 24.5796ZM51.8531 28.6468C51.9884 28.8876 52.2932 28.973 52.5339 28.8377C52.7747 28.7024 52.8601 28.3976 52.7248 28.1569L51.8531 28.6468ZM57.0318 35.8198C56.8965 35.5791 56.5916 35.4937 56.3509 35.629C56.1102 35.7643 56.0247 36.0691 56.16 36.3098L57.0318 35.8198ZM59.6056 42.4402C59.7409 42.6809 60.0457 42.7664 60.2865 42.6311C60.5272 42.4958 60.6126 42.1909 60.4773 41.9502L59.6056 42.4402ZM64.7843 49.6132C64.649 49.3725 64.3442 49.287 64.1035 49.4223C63.8627 49.5576 63.7773 49.8624 63.9126 50.1032L64.7843 49.6132ZM67.3581 56.2335C67.4934 56.4743 67.7983 56.5597 68.039 56.4244C68.2797 56.2891 68.3652 55.9843 68.2299 55.7436L67.3581 56.2335ZM72.5368 63.4065C72.4015 63.1658 72.0967 63.0803 71.856 63.2156C71.6152 63.3509 71.5298 63.6558 71.6651 63.8965L72.5368 63.4065ZM75.1107 70.0269C75.246 70.2676 75.5508 70.3531 75.7915 70.2178C76.0322 70.0825 76.1177 69.7776 75.9824 69.5369L75.1107 70.0269ZM80.2894 77.1999C80.1541 76.9592 79.8492 76.8737 79.6085 77.009C79.3678 77.1443 79.2823 77.4491 79.4176 77.6898L80.2894 77.1999ZM81.2054 80.9753C81.2189 81.2511 81.4535 81.4637 81.7293 81.4502C82.0051 81.4366 82.2177 81.2021 82.2042 80.9263L81.2054 80.9753ZM81.375 82.3435C81.6221 82.2201 81.7224 81.9199 81.5991 81.6728C81.4757 81.4257 81.1754 81.3254 80.9284 81.4488L81.375 82.3435ZM96.7856 81.5C96.5094 81.5 96.2856 81.7239 96.2856 82C96.2856 82.2761 96.5094 82.5 96.7856 82.5V81.5ZM91.794 82.5C92.0702 82.5 92.294 82.2761 92.294 82C92.294 81.7239 92.0702 81.5 91.794 81.5V82.5ZM89.6813 81.4863C89.4127 81.4222 89.1429 81.5879 89.0788 81.8565C89.0146 82.1251 89.1804 82.3948 89.449 82.459L89.6813 81.4863ZM88.7002 82.0229C88.8885 82.2248 89.2049 82.2359 89.4069 82.0476C89.6088 81.8593 89.6199 81.5429 89.4316 81.341L88.7002 82.0229ZM87.4089 77.8022C87.2727 77.562 86.9675 77.4777 86.7273 77.614C86.4871 77.7502 86.4028 78.0554 86.5391 78.2956L87.4089 77.8022ZM81.6552 69.6844C81.7914 69.9246 82.0965 70.0089 82.3367 69.8727C82.5769 69.7365 82.6612 69.4313 82.525 69.1911L81.6552 69.6844ZM78.6179 62.3022C78.4816 62.062 78.1765 61.9777 77.9363 62.114C77.6961 62.2502 77.6118 62.5554 77.748 62.7956L78.6179 62.3022ZM72.8641 54.1844C73.0003 54.4246 73.3055 54.5089 73.5457 54.3727C73.7859 54.2365 73.8702 53.9313 73.734 53.6911L72.8641 54.1844ZM69.8268 46.8022C69.6906 46.562 69.3854 46.4777 69.1452 46.614C68.905 46.7502 68.8208 47.0554 68.957 47.2956L69.8268 46.8022ZM64.0731 38.6844C64.2093 38.9246 64.5145 39.0089 64.7547 38.8727C64.9949 38.7365 65.0791 38.4313 64.9429 38.1911L64.0731 38.6844ZM61.0358 31.3022C60.8995 31.062 60.5944 30.9777 60.3542 31.114C60.114 31.2502 60.0297 31.5554 60.1659 31.7956L61.0358 31.3022ZM55.282 23.1844C55.4183 23.4246 55.7234 23.5089 55.9636 23.3727C56.2038 23.2365 56.2881 22.9313 56.1519 22.6911L55.282 23.1844ZM54.1324 19.0262C54.118 18.7505 53.8828 18.5386 53.6071 18.5529C53.3313 18.5673 53.1194 18.8025 53.1338 19.0783L54.1324 19.0262ZM53.9615 17.6571C53.7146 17.7807 53.6145 18.081 53.7381 18.328C53.8617 18.5749 54.162 18.675 54.409 18.5514L53.9615 17.6571ZM56.745 18.5C57.0211 18.5 57.245 18.2761 57.245 18C57.245 17.7239 57.0211 17.5 56.745 17.5V18.5ZM62.0245 17.5C61.7483 17.5 61.5245 17.7239 61.5245 18C61.5245 18.2761 61.7483 18.5 62.0245 18.5V17.5ZM64.2531 18.5138C64.5216 18.5783 64.7915 18.413 64.8561 18.1445C64.9206 17.876 64.7552 17.606 64.4867 17.5415L64.2531 18.5138ZM65.2385 17.9826C65.0512 17.7797 64.7348 17.767 64.5319 17.9543C64.329 18.1416 64.3164 18.4579 64.5037 18.6609L65.2385 17.9826ZM66.4975 22.2005C66.6322 22.4416 66.9368 22.5278 67.1779 22.3931C67.4189 22.2584 67.5051 21.9538 67.3704 21.7127L66.4975 22.2005ZM72.1824 30.3238C72.0477 30.0828 71.7431 29.9966 71.502 30.1313C71.2609 30.266 71.1747 30.5706 71.3094 30.8116L72.1824 30.3238ZM75.159 37.7005C75.2937 37.9416 75.5983 38.0278 75.8394 37.8931C76.0804 37.7584 76.1666 37.4538 76.0319 37.2127L75.159 37.7005ZM80.8439 45.8238C80.7092 45.5828 80.4046 45.4966 80.1635 45.6313C79.9224 45.766 79.8362 46.0706 79.9709 46.3116L80.8439 45.8238ZM83.8205 53.2005C83.9552 53.4416 84.2598 53.5278 84.5009 53.3931C84.7419 53.2584 84.8281 52.9538 84.6934 52.7127L83.8205 53.2005ZM89.5054 61.3238C89.3707 61.0828 89.066 60.9966 88.825 61.1313C88.5839 61.266 88.4977 61.5706 88.6324 61.8116L89.5054 61.3238ZM92.482 68.7005C92.6167 68.9416 92.9213 69.0278 93.1624 68.8931C93.4034 68.7584 93.4896 68.4538 93.3549 68.2127L92.482 68.7005ZM98.1669 76.8238C98.0322 76.5828 97.7275 76.4966 97.4865 76.6313C97.2454 76.766 97.1592 77.0706 97.2939 77.3116L98.1669 76.8238ZM99.2831 80.9762C99.2961 81.2521 99.5303 81.4651 99.8061 81.4521C100.082 81.4391 100.295 81.205 100.282 80.9291L99.2831 80.9762ZM99.452 82.3438C99.6991 82.2206 99.7996 81.9204 99.6764 81.6733C99.5532 81.4261 99.2529 81.3257 99.0058 81.4489L99.452 82.3438ZM18.707 81.5C18.6214 81.5 18.5469 81.4806 18.4833 81.4488L18.0368 82.3436C18.2377 82.4438 18.4649 82.5 18.707 82.5L18.707 81.5ZM18.2061 80.9757C18.2095 80.9047 18.229 80.8302 18.2709 80.7555L17.3986 80.2665C17.2802 80.4777 17.2181 80.7034 17.2073 80.9276L18.2061 80.9757ZM18.2709 80.7555L20.7145 76.3964L19.8422 75.9074L17.3986 80.2665L18.2709 80.7555ZM26.8235 65.4987L31.7107 56.7806L30.8384 56.2916L25.9512 65.0097L26.8235 65.4987ZM37.8197 45.8829L40.2633 41.5238L39.391 41.0348L36.9474 45.3939L37.8197 45.8829ZM40.2633 41.5238C40.3059 41.4478 40.3603 41.3918 40.4199 41.3518L39.8629 40.5213C39.674 40.648 39.5112 40.8205 39.391 41.0348L40.2633 41.5238ZM40.9749 41.3491C41.035 41.3885 41.0899 41.444 41.1332 41.5196L42.0007 41.0221C41.8785 40.809 41.7139 40.638 41.5238 40.5132L40.9749 41.3491ZM41.1332 41.5196L42.2326 43.4366L43.1 42.9391L42.0007 41.0221L41.1332 41.5196ZM44.9809 48.229L46.0803 50.146L46.9478 49.6486L45.8484 47.7316L44.9809 48.229ZM46.0803 50.146C46.1 50.1804 46.1153 50.2164 46.1262 50.2533L47.0853 49.9704C47.0526 49.8594 47.0067 49.7513 46.9478 49.6486L46.0803 50.146ZM46.1246 50.5416C46.1133 50.5783 46.0976 50.6142 46.0775 50.6483L46.9394 51.1554C46.9995 51.0533 47.0465 50.9458 47.0805 50.8351L46.1246 50.5416ZM46.0775 50.6483L43.5989 54.8612L44.4608 55.3682L46.9394 51.1554L46.0775 50.6483ZM37.4024 65.3932L34.9238 69.6061L35.7857 70.1132L38.2643 65.9003L37.4024 65.3932ZM34.9238 69.6061C34.7993 69.8177 34.7324 70.0452 34.7181 70.2721L35.7161 70.335C35.7206 70.2633 35.7416 70.1882 35.7857 70.1132L34.9238 69.6061ZM35.5469 71.7107C35.7503 71.8121 35.9807 71.8682 36.2262 71.8667L36.2199 70.8667C36.1328 70.8673 36.0573 70.8477 35.993 70.8157L35.5469 71.7107ZM36.2262 71.8667L41.0371 71.836L41.0307 70.8361L36.2199 70.8667L36.2262 71.8667ZM53.0642 71.7594L57.8751 71.7288L57.8687 70.7288L53.0579 70.7594L53.0642 71.7594ZM57.8751 71.7288C57.915 71.7285 57.954 71.733 57.9917 71.7418L58.2186 70.7679C58.1052 70.7414 57.9879 70.728 57.8687 70.7288L57.8751 71.7288ZM58.2428 71.8865C58.2693 71.9147 58.2927 71.9462 58.3125 71.9809L59.1809 71.4851C59.1219 71.3816 59.0515 71.2868 58.9718 71.2019L58.2428 71.8865ZM58.3125 71.9809L59.4253 73.93L60.2938 73.4342L59.1809 71.4851L58.3125 71.9809ZM62.2074 78.8029L63.3202 80.7521L64.1886 80.2563L63.0758 78.3071L62.2074 78.8029ZM63.3202 80.7521C63.3628 80.8268 63.3829 80.9014 63.3867 80.9726L64.3853 80.9184C64.3731 80.6935 64.3092 80.4674 64.1886 80.2563L63.3202 80.7521ZM63.1105 81.4484C63.0467 81.4804 62.972 81.5 62.886 81.5V82.5C63.1291 82.5 63.3571 82.4434 63.5585 82.3425L63.1105 81.4484ZM62.886 81.5H57.9772V82.5H62.886V81.5ZM45.7053 81.5H35.8877V82.5L45.7053 82.5V81.5ZM23.6158 81.5H18.707L18.707 82.5H23.6158V81.5ZM80.7045 81.5H78.6666V82.5H80.7045V81.5ZM73.5717 81.5H71.5338V82.5H73.5717V81.5ZM71.5338 81.5C71.4941 81.5 71.4551 81.4953 71.4176 81.4863L71.1852 82.459C71.2981 82.4859 71.415 82.5 71.5338 82.5V81.5ZM71.1679 81.3408C71.1416 81.3126 71.1184 81.2811 71.0988 81.2465L70.2287 81.7394C70.2872 81.8427 70.3571 81.9375 70.4362 82.0225L71.1679 81.3408ZM71.0988 81.2465L69.1286 77.7689L68.2585 78.2618L70.2287 81.7394L71.0988 81.2465ZM64.2032 69.075L60.2629 62.1199L59.3928 62.6128L63.3332 69.5679L64.2032 69.075ZM55.3375 53.426L51.3972 46.4708L50.5271 46.9638L54.4674 53.9189L55.3375 53.426ZM46.4718 37.7769L44.5017 34.2994L43.6316 34.7923L45.6017 38.2698L46.4718 37.7769ZM44.5017 34.2994C44.4824 34.2653 44.4674 34.2297 44.4568 34.1932L43.4969 34.4737C43.529 34.5836 43.5739 34.6905 43.6316 34.7923L44.5017 34.2994ZM44.458 33.9083C44.469 33.8719 44.4843 33.8365 44.5039 33.8026L43.6382 33.3019C43.5797 33.4032 43.5338 33.5097 43.5007 33.6193L44.458 33.9083ZM44.5039 33.8026L45.5611 31.9745L44.6955 31.4739L43.6382 33.3019L44.5039 33.8026ZM48.2043 27.4044L49.2616 25.5763L48.3959 25.0757L47.3387 26.9037L48.2043 27.4044ZM49.2616 25.5763C49.3051 25.5011 49.36 25.4459 49.4201 25.4067L48.8733 24.5694C48.6833 24.6935 48.5187 24.8635 48.3959 25.0757L49.2616 25.5763ZM49.9739 25.4101C50.0335 25.4501 50.0877 25.506 50.1303 25.5817L51.002 25.0917C50.882 24.878 50.7194 24.706 50.5309 24.5796L49.9739 25.4101ZM50.1303 25.5817L51.8531 28.6468L52.7248 28.1569L51.002 25.0917L50.1303 25.5817ZM56.16 36.3098L59.6056 42.4402L60.4773 41.9502L57.0318 35.8198L56.16 36.3098ZM63.9126 50.1032L67.3581 56.2335L68.2299 55.7436L64.7843 49.6132L63.9126 50.1032ZM71.6651 63.8965L75.1107 70.0269L75.9824 69.5369L72.5368 63.4065L71.6651 63.8965ZM79.4176 77.6898L81.1404 80.755L82.0121 80.2651L80.2894 77.1999L79.4176 77.6898ZM81.1404 80.755C81.1824 80.8297 81.2019 80.9042 81.2054 80.9753L82.2042 80.9263C82.1932 80.702 82.1308 80.4763 82.0121 80.2651L81.1404 80.755ZM80.9284 81.4488C80.8647 81.4805 80.7902 81.5 80.7045 81.5V82.5C80.9468 82.5 81.1741 82.4438 81.375 82.3435L80.9284 81.4488ZM98.7822 81.5H96.7856V82.5H98.7822V81.5ZM91.794 81.5H89.7974V82.5H91.794V81.5ZM89.7974 81.5C89.7577 81.5 89.7188 81.4953 89.6813 81.4863L89.449 82.459C89.5618 82.4859 89.6787 82.5 89.7974 82.5V81.5ZM89.4316 81.341C89.4054 81.3128 89.3821 81.2812 89.3625 81.2467L88.4926 81.74C88.5512 81.8433 88.6211 81.938 88.7002 82.0229L89.4316 81.341ZM89.3625 81.2467L87.4089 77.8022L86.5391 78.2956L88.4926 81.74L89.3625 81.2467ZM82.525 69.1911L78.6179 62.3022L77.748 62.7956L81.6552 69.6844L82.525 69.1911ZM73.734 53.6911L69.8268 46.8022L68.957 47.2956L72.8641 54.1844L73.734 53.6911ZM64.9429 38.1911L61.0358 31.3022L60.1659 31.7956L64.0731 38.6844L64.9429 38.1911ZM56.1519 22.6911L54.1983 19.2467L53.3285 19.74L55.282 23.1844L56.1519 22.6911ZM54.1983 19.2467C54.1559 19.172 54.1361 19.0974 54.1324 19.0262L53.1338 19.0783C53.1455 19.3029 53.2087 19.5288 53.3285 19.74L54.1983 19.2467ZM54.409 18.5514C54.4727 18.5195 54.5474 18.5 54.6332 18.5V17.5C54.3905 17.5 54.1627 17.5564 53.9615 17.6571L54.409 18.5514ZM54.6332 18.5H56.745V17.5H54.6332V18.5ZM62.0245 18.5H64.1362V17.5H62.0245V18.5ZM64.1362 18.5C64.1762 18.5 64.2154 18.5048 64.2531 18.5138L64.4867 17.5415C64.3732 17.5142 64.2557 17.5 64.1362 17.5V18.5ZM64.5037 18.6609C64.53 18.6893 64.5532 18.7212 64.5727 18.7561L65.4457 18.2683C65.3874 18.164 65.3176 18.0683 65.2385 17.9826L64.5037 18.6609ZM64.5727 18.7561L66.4975 22.2005L67.3704 21.7127L65.4457 18.2683L64.5727 18.7561ZM71.3094 30.8116L75.159 37.7005L76.0319 37.2127L72.1824 30.3238L71.3094 30.8116ZM79.9709 46.3116L83.8205 53.2005L84.6934 52.7127L80.8439 45.8238L79.9709 46.3116ZM88.6324 61.8116L92.482 68.7005L93.3549 68.2127L89.5054 61.3238L88.6324 61.8116ZM97.2939 77.3116L99.2187 80.7561L100.092 80.2683L98.1669 76.8238L97.2939 77.3116ZM99.2187 80.7561C99.2604 80.8307 99.2798 80.9052 99.2831 80.9762L100.282 80.9291C100.271 80.7051 100.21 80.4795 100.092 80.2683L99.2187 80.7561ZM99.0058 81.4489C98.9422 81.4806 98.8677 81.5 98.7822 81.5V82.5C99.0242 82.5 99.2512 82.4439 99.452 82.3438L99.0058 81.4489ZM18.707 82L18.707 83L18.707 82ZM17.8347 80.511L16.9624 80.022L17.8347 80.511ZM63.7544 80.5042L64.6228 80.0084L63.7544 80.5042ZM62.886 82V81V82ZM57.8719 71.2288L57.8783 72.2288L57.8719 71.2288ZM58.7467 71.733L59.6152 71.2372L58.7467 71.733ZM35.3548 69.8596L36.2167 70.3667L35.3548 69.8596ZM36.2231 71.3667L36.2294 72.3667L36.2231 71.3667ZM41.5669 41.2708L40.6995 41.7683L41.5669 41.2708ZM39.8272 41.2793L38.9549 40.7903L39.8272 41.2793ZM46.514 49.8973L45.6466 50.3948L46.514 49.8973ZM46.5085 50.9019L47.3703 51.409L46.5085 50.9019ZM81.5763 80.51L80.7045 81L81.5763 80.51ZM70.6637 81.4929L71.5338 81L70.6637 81.4929ZM48.8288 25.326L47.9631 24.8253L48.8288 25.326ZM50.5662 25.3367L51.4379 24.8467L50.5662 25.3367ZM44.071 33.5522L44.9367 34.0529L44.071 33.5522ZM44.0666 34.5458L43.1966 35.0387L44.0666 34.5458ZM99.6552 80.5122L98.7822 81L99.6552 80.5122ZM88.9276 81.4933L88.0577 81.9867L88.9276 81.4933ZM65.0092 18.5122L65.8821 18.0244L65.0092 18.5122ZM53.7634 19.4933L54.6332 19L53.7634 19.4933ZM18.7065 81.0014C18.2123 80.7548 17.6118 80.9556 17.3652 81.4498C17.1187 81.944 17.3194 82.5445 17.8136 82.791L18.7065 81.0014ZM16.7079 80.9035C16.6813 81.4551 17.1069 81.9239 17.6586 81.9505C18.2102 81.9771 18.679 81.5514 18.7055 80.9998L16.7079 80.9035ZM21.1506 76.6409C21.4207 76.1592 21.2491 75.5497 20.7673 75.2796C20.2856 75.0096 19.6761 75.1812 19.406 75.6629L21.1506 76.6409ZM25.5151 64.7653C25.245 65.247 25.4166 65.8565 25.8984 66.1265C26.3801 66.3966 26.9896 66.225 27.2596 65.7432L25.5151 64.7653ZM32.1469 57.0251C32.4169 56.5433 32.2453 55.9339 31.7635 55.6638C31.2818 55.3937 30.6723 55.5653 30.4023 56.0471L32.1469 57.0251ZM36.5113 45.1494C36.2412 45.6312 36.4128 46.2406 36.8946 46.5107C37.3763 46.7807 37.9858 46.6091 38.2559 46.1274L36.5113 45.1494ZM40.6984 41.767C41.1571 41.4594 41.2795 40.8382 40.9719 40.3795C40.6643 39.9209 40.043 39.7984 39.5844 40.1061L40.6984 41.767ZM41.7983 40.0953C41.3367 39.7921 40.7167 39.9206 40.4135 40.3822C40.1104 40.8439 40.2388 41.4639 40.7005 41.767L41.7983 40.0953ZM41.7988 43.6853C42.0736 44.1644 42.6847 44.33 43.1638 44.0553C43.6429 43.7805 43.8085 43.1694 43.5338 42.6903L41.7988 43.6853ZM46.2822 47.4828C46.0074 47.0037 45.3963 46.8381 44.9172 47.1128C44.4381 47.3876 44.2725 47.9987 44.5472 48.4778L46.2822 47.4828ZM45.6466 50.3948C45.8028 50.9245 46.3589 51.2273 46.8886 51.071C47.4183 50.9148 47.7211 50.3587 47.5649 49.829L45.6466 50.3948ZM47.5585 50.9818C47.7206 50.4539 47.424 49.8945 46.896 49.7324C46.3681 49.5703 45.8087 49.8668 45.6466 50.3948L47.5585 50.9818ZM43.168 54.6076C42.8879 55.0836 43.0468 55.6965 43.5228 55.9766C43.9988 56.2566 44.6117 56.0978 44.8918 55.6218L43.168 54.6076ZM38.6953 66.1539C38.9753 65.6779 38.8165 65.065 38.3405 64.7849C37.8645 64.5048 37.2515 64.6637 36.9715 65.1397L38.6953 66.1539ZM34.2191 70.2406C34.1843 70.7918 34.603 71.2668 35.1541 71.3015C35.7053 71.3363 36.1803 70.9176 36.2151 70.3665L34.2191 70.2406ZM36.2161 70.3682C35.7218 70.1218 35.1214 70.3228 34.875 70.817C34.6286 71.3113 34.8295 71.9117 35.3238 72.1581L36.2161 70.3682ZM41.0403 72.336C41.5926 72.3325 42.0374 71.882 42.0339 71.3297C42.0304 70.7774 41.5798 70.3326 41.0275 70.3361L41.0403 72.336ZM53.0547 70.2595C52.5024 70.263 52.0576 70.7135 52.0611 71.2658C52.0646 71.8181 52.5152 72.2629 53.0674 72.2594L53.0547 70.2595ZM57.8783 72.2287C58.4162 72.354 58.9538 72.0196 59.0791 71.4817C59.2044 70.9438 58.8699 70.4062 58.332 70.2809L57.8783 72.2287ZM59.3363 70.8597C58.9582 70.4571 58.3253 70.4372 57.9227 70.8153C57.5201 71.1933 57.5003 71.8262 57.8783 72.2288L59.3363 70.8597ZM58.9911 74.1779C59.2649 74.6576 59.8757 74.8244 60.3553 74.5506C60.835 74.2767 61.0018 73.6659 60.728 73.1863L58.9911 74.1779ZM63.51 78.0592C63.2362 77.5796 62.6254 77.4128 62.1458 77.6866C61.6662 77.9604 61.4993 78.5712 61.7732 79.0508L63.51 78.0592ZM62.8875 80.9998C62.9174 81.5512 63.3888 81.974 63.9402 81.9441C64.4917 81.9141 64.9145 81.4428 64.8845 80.8913L62.8875 80.9998ZM63.7825 82.7895C64.2763 82.5421 64.476 81.9412 64.2285 81.4475C63.9811 80.9537 63.3803 80.754 62.8865 81.0014L63.7825 82.7895ZM57.9772 81C57.4249 81 56.9772 81.4477 56.9772 82C56.9772 82.5523 57.4249 83 57.9772 83V81ZM45.7053 83C46.2576 83 46.7053 82.5523 46.7053 82C46.7053 81.4477 46.2576 81 45.7053 81L45.7053 83ZM35.8877 81C35.3354 81 34.8877 81.4477 34.8877 82C34.8877 82.5523 35.3354 83 35.8877 83V81ZM23.6158 83C24.1681 83 24.6158 82.5523 24.6158 82C24.6158 81.4477 24.1681 81 23.6158 81V83ZM78.6666 81C78.1143 81 77.6666 81.4477 77.6666 82C77.6666 82.5523 78.1143 83 78.6666 83V81ZM73.5717 83C74.124 83 74.5717 82.5523 74.5717 82C74.5717 81.4477 74.124 81 73.5717 81V83ZM71.5338 81C70.9967 80.8717 70.4572 81.2031 70.3288 81.7403C70.2005 82.2774 70.5319 82.8169 71.069 82.9453L71.5338 81ZM70.0704 82.3633C70.4468 82.7674 71.0796 82.7898 71.4837 82.4133C71.8878 82.0369 71.9102 81.4041 71.5338 81L70.0704 82.3633ZM69.5637 77.5224C69.2914 77.0419 68.6812 76.8731 68.2007 77.1453C67.7201 77.4175 67.5513 78.0278 67.8235 78.5083L69.5637 77.5224ZM62.8981 69.8144C63.1704 70.2949 63.7806 70.4638 64.2611 70.1915C64.7416 69.9193 64.9105 69.3091 64.6383 68.8285L62.8981 69.8144ZM60.6979 61.8734C60.4257 61.3929 59.8155 61.224 59.3349 61.4963C58.8544 61.7685 58.6856 62.3787 58.9578 62.8593L60.6979 61.8734ZM54.0324 54.1653C54.3046 54.6459 54.9149 54.8147 55.3954 54.5425C55.8759 54.2703 56.0448 53.66 55.7726 53.1795L54.0324 54.1653ZM51.8322 46.2244C51.56 45.7438 50.9498 45.575 50.4692 45.8472C49.9887 46.1195 49.8199 46.7297 50.0921 47.2102L51.8322 46.2244ZM45.1667 38.5163C45.4389 38.9968 46.0492 39.1657 46.5297 38.8935C47.0102 38.6212 47.1791 38.011 46.9069 37.5305L45.1667 38.5163ZM44.9367 34.0529C44.7817 33.5228 44.2264 33.2187 43.6963 33.3736C43.1662 33.5286 42.8621 34.0839 43.017 34.614L44.9367 34.0529ZM43.0221 33.4747C42.8624 34.0034 43.1616 34.5614 43.6903 34.7211C44.219 34.8808 44.777 34.5816 44.9367 34.0529L43.0221 33.4747ZM45.994 32.2248C46.2705 31.7468 46.1071 31.135 45.629 30.8585C45.1509 30.582 44.5392 30.7455 44.2627 31.2235L45.994 32.2248ZM46.9059 26.6534C46.6293 27.1315 46.7928 27.7432 47.2708 28.0197C47.7489 28.2962 48.3606 28.1328 48.6371 27.6547L46.9059 26.6534ZM49.6934 25.8254C50.1558 25.5234 50.2859 24.9038 49.984 24.4414C49.6821 23.9789 49.0624 23.8488 48.6 24.1508L49.6934 25.8254ZM50.8094 24.1644C50.3507 23.8568 49.7295 23.9792 49.4219 24.4379C49.1143 24.8966 49.2368 25.5178 49.6954 25.8254L50.8094 24.1644ZM51.4172 28.8918C51.6878 29.3733 52.2975 29.5442 52.7789 29.2736C53.2604 29.003 53.4313 28.3934 53.1607 27.9119L51.4172 28.8918ZM57.4676 35.5749C57.197 35.0934 56.5874 34.9225 56.1059 35.1931C55.6245 35.4637 55.4536 36.0733 55.7242 36.5548L57.4676 35.5749ZM59.1697 42.6852C59.4403 43.1666 60.05 43.3375 60.5314 43.0669C61.0129 42.7963 61.1838 42.1867 60.9132 41.7052L59.1697 42.6852ZM65.2202 49.3682C64.9496 48.8868 64.3399 48.7158 63.8585 48.9864C63.377 49.257 63.2061 49.8667 63.4767 50.3481L65.2202 49.3682ZM66.9223 56.4785C67.1929 56.96 67.8025 57.1309 68.284 56.8603C68.7654 56.5897 68.9363 55.98 68.6657 55.4986L66.9223 56.4785ZM72.9727 63.1616C72.7021 62.6801 72.0924 62.5092 71.611 62.7798C71.1295 63.0504 70.9586 63.66 71.2292 64.1415L72.9727 63.1616ZM74.6748 70.2719C74.9454 70.7533 75.555 70.9242 76.0365 70.6536C76.5179 70.383 76.6889 69.7734 76.4183 69.2919L74.6748 70.2719ZM80.7252 76.9549C80.4546 76.4734 79.845 76.3025 79.3635 76.5731C78.8821 76.8437 78.7111 77.4534 78.9817 77.9348L80.7252 76.9549ZM80.706 80.9998C80.7331 81.5514 81.2022 81.9766 81.7538 81.9496C82.3054 81.9225 82.7307 81.4534 82.7036 80.9018L80.706 80.9998ZM81.5984 82.7908C82.0925 82.5441 82.2931 81.9436 82.0464 81.4495C81.7997 80.9553 81.1992 80.7547 80.705 81.0014L81.5984 82.7908ZM96.7856 81C96.2333 81 95.7856 81.4477 95.7856 82C95.7856 82.5523 96.2333 83 96.7856 83V81ZM91.794 83C92.3463 83 92.794 82.5523 92.794 82C92.794 81.4477 92.3463 81 91.794 81V83ZM89.7974 81C89.2602 80.8717 88.7208 81.2032 88.5925 81.7404C88.4642 82.2776 88.7956 82.817 89.3328 82.9453L89.7974 81ZM88.3345 82.3638C88.7111 82.7678 89.3439 82.7899 89.7478 82.4133C90.1518 82.0367 90.174 81.404 89.7974 81L88.3345 82.3638ZM87.8438 77.5555C87.5714 77.0751 86.961 76.9066 86.4807 77.1791C86.0003 77.4515 85.8317 78.0618 86.1042 78.5422L87.8438 77.5555ZM81.2202 69.9311C81.4927 70.4115 82.103 70.5801 82.5834 70.3076C83.0638 70.0351 83.2324 69.4248 82.9599 68.9444L81.2202 69.9311ZM79.0528 62.0555C78.7803 61.5752 78.17 61.4066 77.6896 61.6791C77.2092 61.9515 77.0406 62.5618 77.3131 63.0422L79.0528 62.0555ZM72.4292 54.4311C72.7017 54.9115 73.312 55.0801 73.7924 54.8076C74.2728 54.5351 74.4413 53.9248 74.1689 53.4444L72.4292 54.4311ZM70.2617 46.5555C69.9893 46.0752 69.379 45.9066 68.8986 46.1791C68.4182 46.4515 68.2496 47.0618 68.5221 47.5422L70.2617 46.5555ZM63.6382 38.9311C63.9106 39.4115 64.5209 39.5801 65.0013 39.3076C65.4817 39.0351 65.6503 38.4248 65.3778 37.9444L63.6382 38.9311ZM61.4707 31.0555C61.1982 30.5752 60.5879 30.4066 60.1075 30.6791C59.6271 30.9515 59.4586 31.5618 59.731 32.0422L61.4707 31.0555ZM54.8471 23.4311C55.1196 23.9115 55.7299 24.0801 56.2103 23.8076C56.6907 23.5351 56.8592 22.9248 56.5868 22.4444L54.8471 23.4311ZM54.6317 19.0002C54.603 18.4487 54.1326 18.0249 53.5811 18.0536C53.0295 18.0823 52.6057 18.5527 52.6344 19.1043L54.6317 19.0002ZM53.7378 17.2099C53.2439 17.457 53.0438 18.0578 53.2909 18.5517C53.538 19.0456 54.1388 19.2457 54.6327 18.9986L53.7378 17.2099ZM56.745 19C57.2973 19 57.745 18.5523 57.745 18C57.745 17.4477 57.2973 17 56.745 17V19ZM62.0245 17C61.4722 17 61.0245 17.4477 61.0245 18C61.0245 18.5523 61.4722 19 62.0245 19V17ZM64.1362 19C64.6732 19.129 65.2132 18.7983 65.3422 18.2613C65.4713 17.7243 65.1406 17.1844 64.6036 17.0553L64.1362 19ZM65.6059 17.6434C65.2313 17.2376 64.5986 17.2123 64.1928 17.5869C63.787 17.9615 63.7617 18.5942 64.1363 19L65.6059 17.6434ZM66.061 22.4444C66.3304 22.9266 66.9397 23.099 67.4218 22.8296C67.9039 22.5602 68.0763 21.9509 67.8069 21.4688L66.061 22.4444ZM72.6189 30.0799C72.3494 29.5978 71.7402 29.4254 71.2581 29.6948C70.776 29.9642 70.6035 30.5734 70.873 31.0556L72.6189 30.0799ZM74.7225 37.9444C74.9919 38.4266 75.6012 38.599 76.0833 38.3296C76.5654 38.0602 76.7378 37.4509 76.4684 36.9688L74.7225 37.9444ZM81.2804 45.5799C81.0109 45.0978 80.4017 44.9254 79.9196 45.1948C79.4375 45.4642 79.265 46.0734 79.5345 46.5556L81.2804 45.5799ZM83.384 53.4444C83.6534 53.9266 84.2626 54.099 84.7448 53.8296C85.2269 53.5602 85.3993 52.9509 85.1299 52.4688L83.384 53.4444ZM89.9418 61.0799C89.6724 60.5978 89.0632 60.4254 88.5811 60.6948C88.099 60.9642 87.9265 61.5734 88.1959 62.0555L89.9418 61.0799ZM92.0455 68.9444C92.3149 69.4266 92.9241 69.599 93.4063 69.3296C93.8884 69.0602 94.0608 68.4509 93.7914 67.9688L92.0455 68.9444ZM98.6033 76.5799C98.3339 76.0978 97.7247 75.9254 97.2426 76.1948C96.7605 76.4642 96.588 77.0734 96.8574 77.5555L98.6033 76.5799ZM98.7837 80.9998C98.8097 81.5514 99.278 81.9776 99.8297 81.9516C100.381 81.9256 100.807 81.4573 100.781 80.9056L98.7837 80.9998ZM99.6751 82.7913C100.169 82.5449 100.37 81.9444 100.124 81.4502C99.8774 80.9559 99.277 80.755 98.7827 81.0014L99.6751 82.7913ZM18.707 81C18.7024 81 18.7011 80.9995 18.7022 80.9998C18.7032 81 18.7048 81.0005 18.7065 81.0014L17.8136 82.791C18.0831 82.9255 18.3866 83 18.707 83L18.707 81ZM18.7055 80.9998C18.7054 81.0017 18.7051 81.0034 18.7048 81.0044C18.7045 81.0054 18.7048 81.004 18.707 81L16.9624 80.022C16.8058 80.3015 16.7224 80.6027 16.7079 80.9035L18.7055 80.9998ZM18.707 81L21.1506 76.6409L19.406 75.6629L16.9624 80.022L18.707 81ZM27.2596 65.7432L32.1469 57.0251L30.4023 56.0471L25.5151 64.7653L27.2596 65.7432ZM38.2559 46.1274L40.6995 41.7683L38.9549 40.7903L36.5113 45.1494L38.2559 46.1274ZM40.6995 41.7683C40.7019 41.764 40.7031 41.763 40.7022 41.7639C40.7015 41.7647 40.7001 41.7659 40.6984 41.767L39.5844 40.1061C39.3309 40.2761 39.1138 40.5068 38.9549 40.7903L40.6995 41.7683ZM40.7005 41.767C40.6988 41.7659 40.6974 41.7647 40.6967 41.7639C40.6958 41.763 40.697 41.764 40.6995 41.7683L42.4344 40.7733C42.2728 40.4914 42.0534 40.2628 41.7983 40.0953L40.7005 41.767ZM40.6995 41.7683L41.7988 43.6853L43.5338 42.6903L42.4344 40.7733L40.6995 41.7683ZM44.5472 48.4778L45.6466 50.3948L47.3815 49.3998L46.2822 47.4828L44.5472 48.4778ZM45.6466 50.3948L45.6466 50.3948L47.5649 49.829C47.5212 49.6809 47.46 49.5367 47.3815 49.3998L45.6466 50.3948ZM45.6466 50.3948L45.6466 50.3948L47.3703 51.409C47.4504 51.2729 47.5132 51.1295 47.5585 50.9818L45.6466 50.3948ZM45.6466 50.3948L43.168 54.6076L44.8918 55.6218L47.3703 51.409L45.6466 50.3948ZM36.9715 65.1397L34.4929 69.3525L36.2167 70.3667L38.6953 66.1539L36.9715 65.1397ZM34.4929 69.3525C34.3282 69.6325 34.2383 69.9362 34.2191 70.2406L36.2151 70.3665C36.215 70.3685 36.2146 70.3703 36.2143 70.3713C36.2139 70.3725 36.2142 70.371 36.2167 70.3667L34.4929 69.3525ZM35.3238 72.1581C35.5968 72.2942 35.9046 72.3687 36.2294 72.3667L36.2167 70.3667C36.2118 70.3667 36.2103 70.3662 36.2115 70.3665C36.2126 70.3667 36.2143 70.3673 36.2161 70.3682L35.3238 72.1581ZM36.2294 72.3667L41.0403 72.336L41.0275 70.3361L36.2167 70.3667L36.2294 72.3667ZM53.0674 72.2594L57.8783 72.2288L57.8655 70.2288L53.0547 70.2595L53.0674 72.2594ZM57.8783 72.2288L57.8783 72.2287L58.332 70.2809C58.1807 70.2457 58.0243 70.2278 57.8655 70.2288L57.8783 72.2288ZM57.8783 72.2288L57.8783 72.2288L59.6152 71.2372C59.5364 71.0993 59.4426 70.9729 59.3363 70.8597L57.8783 72.2288ZM57.8783 72.2288L58.9911 74.1779L60.728 73.1863L59.6152 71.2372L57.8783 72.2288ZM61.7732 79.0508L62.886 81L64.6228 80.0084L63.51 78.0592L61.7732 79.0508ZM62.886 81C62.8883 81.0041 62.8885 81.0055 62.8882 81.0044C62.8879 81.0034 62.8876 81.0017 62.8875 80.9998L64.8845 80.8913C64.8681 80.5895 64.7823 80.2877 64.6228 80.0084L62.886 81ZM62.8865 81.0014C62.8883 81.0005 62.8899 81 62.8909 80.9998C62.892 80.9995 62.8907 81 62.886 81V83C63.2076 83 63.5123 82.9249 63.7825 82.7895L62.8865 81.0014ZM62.886 81H57.9772V83H62.886V81ZM45.7053 81H35.8877V83L45.7053 83L45.7053 81ZM23.6158 81H18.707L18.707 83H23.6158V81ZM80.7045 81H78.6666V83H80.7045V81ZM73.5717 81H71.5338V83H73.5717V81ZM71.5338 81L71.5338 81L71.069 82.9453C71.2196 82.9813 71.3755 83 71.5338 83V81ZM71.5338 81L71.5338 81L69.7937 81.9859C69.8717 82.1236 69.9648 82.25 70.0704 82.3633L71.5338 81ZM71.5338 81L69.5637 77.5224L67.8235 78.5083L69.7937 81.9859L71.5338 81ZM64.6383 68.8285L60.6979 61.8734L58.9578 62.8593L62.8981 69.8144L64.6383 68.8285ZM55.7726 53.1795L51.8322 46.2244L50.0921 47.2102L54.0324 54.1653L55.7726 53.1795ZM46.9069 37.5305L44.9367 34.0529L43.1966 35.0387L45.1667 38.5163L46.9069 37.5305ZM44.9367 34.0529L44.9367 34.0529L43.017 34.614C43.0598 34.7605 43.1197 34.9031 43.1966 35.0387L44.9367 34.0529ZM44.9367 34.0529L44.9367 34.0529L43.2054 33.0516C43.1274 33.1865 43.0662 33.3286 43.0221 33.4747L44.9367 34.0529ZM44.9367 34.0529L45.994 32.2248L44.2627 31.2235L43.2054 33.0516L44.9367 34.0529ZM48.6371 27.6547L49.6944 25.8266L47.9631 24.8253L46.9059 26.6534L48.6371 27.6547ZM49.6944 25.8266C49.6969 25.8224 49.698 25.8214 49.6972 25.8223C49.6965 25.8231 49.6951 25.8243 49.6934 25.8254L48.6 24.1508C48.345 24.3172 48.1254 24.5447 47.9631 24.8253L49.6944 25.8266ZM49.6954 25.8254C49.6938 25.8243 49.6924 25.8231 49.6917 25.8223C49.6909 25.8214 49.692 25.8224 49.6944 25.8266L51.4379 24.8467C51.2791 24.5641 51.0623 24.334 50.8094 24.1644L49.6954 25.8254ZM49.6944 25.8266L51.4172 28.8918L53.1607 27.9119L51.4379 24.8467L49.6944 25.8266ZM55.7242 36.5548L59.1697 42.6852L60.9132 41.7052L57.4676 35.5749L55.7242 36.5548ZM63.4767 50.3481L66.9223 56.4785L68.6657 55.4986L65.2202 49.3682L63.4767 50.3481ZM71.2292 64.1415L74.6748 70.2719L76.4183 69.2919L72.9727 63.1616L71.2292 64.1415ZM78.9817 77.9348L80.7045 81L82.448 80.0201L80.7252 76.9549L78.9817 77.9348ZM80.7045 81C80.7068 81.0041 80.707 81.0055 80.7067 81.0044C80.7064 81.0034 80.7061 81.0017 80.706 80.9998L82.7036 80.9018C82.6888 80.6009 82.6051 80.2995 82.448 80.0201L80.7045 81ZM80.705 81.0014C80.7068 81.0005 80.7084 81 80.7094 80.9998C80.7105 80.9995 80.7092 81 80.7045 81V83C81.0251 83 81.3288 82.9254 81.5984 82.7908L80.705 81.0014ZM98.7822 81H96.7856V83H98.7822V81ZM91.794 81H89.7974V83H91.794V81ZM89.7974 81L89.7974 81L89.3328 82.9453C89.4834 82.9813 89.6392 83 89.7974 83V81ZM89.7974 81L89.7974 81L88.0577 81.9867C88.1358 82.1243 88.2289 82.2506 88.3345 82.3638L89.7974 81ZM89.7974 81L87.8438 77.5555L86.1042 78.5422L88.0577 81.9867L89.7974 81ZM82.9599 68.9444L79.0528 62.0555L77.3131 63.0422L81.2202 69.9311L82.9599 68.9444ZM74.1689 53.4444L70.2617 46.5555L68.5221 47.5422L72.4292 54.4311L74.1689 53.4444ZM65.3778 37.9444L61.4707 31.0555L59.731 32.0422L63.6382 38.9311L65.3778 37.9444ZM56.5868 22.4444L54.6332 19L52.8935 19.9867L54.8471 23.4311L56.5868 22.4444ZM54.6332 19C54.6309 18.9959 54.6307 18.9945 54.631 18.9956C54.6313 18.9966 54.6316 18.9983 54.6317 19.0002L52.6344 19.1043C52.6501 19.4057 52.7351 19.7073 52.8935 19.9867L54.6332 19ZM54.6327 18.9986C54.6309 18.9995 54.6293 19 54.6283 19.0002C54.6272 19.0005 54.6285 19 54.6332 19V17C54.312 17 54.0078 17.0749 53.7378 17.2099L54.6327 18.9986ZM54.6332 19H56.745V17H54.6332V19ZM62.0245 19H64.1362V17H62.0245V19ZM64.1362 19L64.1362 19L64.6036 17.0553C64.4522 17.019 64.2954 17 64.1362 17V19ZM64.1363 19L64.1362 19L65.8821 18.0244C65.8045 17.8854 65.7115 17.7578 65.6059 17.6434L64.1363 19ZM64.1362 19L66.061 22.4444L67.8069 21.4688L65.8821 18.0244L64.1362 19ZM70.873 31.0556L74.7225 37.9444L76.4684 36.9688L72.6189 30.0799L70.873 31.0556ZM79.5345 46.5556L83.384 53.4444L85.1299 52.4688L81.2804 45.5799L79.5345 46.5556ZM88.1959 62.0555L92.0455 68.9444L93.7914 67.9688L89.9418 61.0799L88.1959 62.0555ZM96.8574 77.5555L98.7822 81L100.528 80.0244L98.6033 76.5799L96.8574 77.5555ZM98.7822 81C98.7845 81.004 98.7847 81.0054 98.7844 81.0043C98.7841 81.0033 98.7838 81.0017 98.7837 80.9998L100.781 80.9056C100.767 80.605 100.684 80.3039 100.528 80.0244L98.7822 81ZM98.7827 81.0014C98.7844 81.0005 98.7861 81 98.7871 80.9998C98.7882 80.9995 98.7868 81 98.7822 81V83C99.1024 83 99.4057 82.9256 99.6751 82.7913L98.7827 81.0014Z" fill="black" mask="url(#path-1-inside-1)"/>
<path d="M37.9164 10H49.7229L85.4865 74H74.2149L37.9164 10Z" fill="url(#paint0_linear)"/>
<path d="M28.7844 26.0478L34.7068 15.8078L67.4137 74H55.951L28.7844 26.0478Z" fill="url(#paint1_linear)"/>
<path d="M25.6895 31.7409L31.803 42.4012L19.4615 63.3779L2 74L25.6895 31.7409Z" fill="url(#paint2_linear)"/>
<path d="M43.4567 63.2251L49.6084 74H2L19.4615 63.3779L43.4567 63.2251Z" fill="url(#paint3_linear)"/>
<defs>
<linearGradient id="paint0_linear" x1="37.9272" y1="42.0018" x2="85.502" y2="42.0018" gradientUnits="userSpaceOnUse">
<stop offset="0.00114093" stop-color="#F6BE42"/>
<stop offset="1" stop-color="#F6BF42"/>
</linearGradient>
<linearGradient id="paint1_linear" x1="28.7978" y1="44.904" x2="67.4167" y2="44.904" gradientUnits="userSpaceOnUse">
<stop offset="0.0227413" stop-color="#F4AF3D"/>
<stop offset="1" stop-color="#F6BE42"/>
</linearGradient>
<linearGradient id="paint2_linear" x1="2" y1="52.8673" x2="31.7839" y2="52.8673" gradientUnits="userSpaceOnUse">
<stop offset="0.0227413" stop-color="#F19035"/>
<stop offset="1" stop-color="#F3A43A"/>
</linearGradient>
<linearGradient id="paint3_linear" x1="2" y1="68.6214" x2="49.6041" y2="68.6214" gradientUnits="userSpaceOnUse">
<stop offset="0.0227413" stop-color="#F4AF3D"/>
<stop offset="1" stop-color="#F6BE42"/>
</linearGradient>
</defs>
</svg>
