<svg width="88" height="88" viewBox="0 0 88 88" fill="none" xmlns="http://www.w3.org/2000/svg">
<mask id="path-1-inside-1" fill="white">
<path fill-rule="evenodd" clip-rule="evenodd" d="M40.7269 54.5555V45.7486L34.0524 46.181L19 45.5477L19.2572 45.4961L19 45.5214V27.6603L27.7054 23.2469L27.7406 23.3137L40.7269 26.8828V16.7077L50 12V12.0004L50.0001 12.0002V12L59.2732 16.7077V26.8827L72.2944 23.304L72.2944 23.3197L80.9998 27.7404V45.5477L65.9474 46.181L59.2732 45.7486V54.5555L65.9476 54.123L80.9995 54.7565L80.9998 54.7565L81 54.7565L80.9998 54.7565V72.5635L72.2944 76.9842L72.2944 77.0002L59.2732 73.4215V83.2923L50.0001 88L40.7269 83.2923V73.4214L27.7053 77.0002V76.9842L19 72.5635V54.7565L19.0003 54.7565L34.0524 54.123L40.7269 54.5555Z"/>
</mask>
<path fill-rule="evenodd" clip-rule="evenodd" d="M40.7269 54.5555V45.7486L34.0524 46.181L19 45.5477L19.2572 45.4961L19 45.5214V27.6603L27.7054 23.2469L27.7406 23.3137L40.7269 26.8828V16.7077L50 12V12.0004L50.0001 12.0002V12L59.2732 16.7077V26.8827L72.2944 23.304L72.2944 23.3197L80.9998 27.7404V45.5477L65.9474 46.181L59.2732 45.7486V54.5555L65.9476 54.123L80.9995 54.7565L80.9998 54.7565L81 54.7565L80.9998 54.7565V72.5635L72.2944 76.9842L72.2944 77.0002L59.2732 73.4215V83.2923L50.0001 88L40.7269 83.2923V73.4214L27.7053 77.0002V76.9842L19 72.5635V54.7565L19.0003 54.7565L34.0524 54.123L40.7269 54.5555Z" fill="#F7F7FE"/>
<path d="M40.7269 45.7486H41.2269C41.2269 45.6104 41.1697 45.4784 41.0688 45.3838C40.968 45.2893 40.8325 45.2407 40.6946 45.2497L40.7269 45.7486ZM40.7269 54.5555L40.6945 55.0544C40.8325 55.0634 40.968 55.0148 41.0688 54.9203C41.1697 54.8258 41.2269 54.6937 41.2269 54.5555H40.7269ZM34.0524 46.181L34.0314 46.6805C34.0492 46.6813 34.067 46.6811 34.0848 46.6799L34.0524 46.181ZM19 45.5477L18.9016 45.0575C18.6536 45.1072 18.4818 45.3344 18.5015 45.5866C18.5212 45.8389 18.7262 46.0366 18.979 46.0472L19 45.5477ZM19.2572 45.4961L19.3555 45.9863C19.6168 45.9339 19.791 45.6858 19.7517 45.4223C19.7124 45.1588 19.4733 44.9724 19.2082 44.9985L19.2572 45.4961ZM19 45.5214H18.5C18.5 45.6625 18.5596 45.7971 18.6642 45.8919C18.7688 45.9867 18.9085 46.0328 19.049 46.019L19 45.5214ZM19 27.6603L18.7739 27.2143C18.6059 27.2995 18.5 27.4719 18.5 27.6603H19ZM27.7054 23.2469L28.1477 23.0137C28.0204 22.7722 27.7229 22.6775 27.4793 22.801L27.7054 23.2469ZM27.7406 23.3137L27.2983 23.5469C27.3627 23.6691 27.4749 23.7592 27.6081 23.7958L27.7406 23.3137ZM40.7269 26.8828L40.5944 27.3649C40.7448 27.4062 40.9059 27.375 41.03 27.2804C41.1541 27.1858 41.2269 27.0388 41.2269 26.8828H40.7269ZM40.7269 16.7077L40.5005 16.2619C40.3326 16.3471 40.2269 16.5194 40.2269 16.7077H40.7269ZM50 12H50.5C50.5 11.8262 50.4097 11.6648 50.2616 11.5739C50.1134 11.4829 49.9287 11.4755 49.7737 11.5542L50 12ZM50 12.0004H49.5C49.5 12.2239 49.6483 12.4202 49.8633 12.4814C50.0783 12.5425 50.3077 12.4535 50.4252 12.2634L50 12.0004ZM50.0001 12.0002L50.4253 12.2632C50.4742 12.1842 50.5001 12.0932 50.5001 12.0002H50.0001ZM50.0001 12L50.2264 11.5542C50.0714 11.4755 49.8867 11.4829 49.7385 11.5739C49.5904 11.6648 49.5001 11.8262 49.5001 12H50.0001ZM59.2732 16.7077H59.7732C59.7732 16.5194 59.6674 16.3471 59.4995 16.2619L59.2732 16.7077ZM59.2732 26.8827H58.7732C58.7732 27.0387 58.846 27.1858 58.9701 27.2803C59.0942 27.3749 59.2553 27.4061 59.4057 27.3648L59.2732 26.8827ZM72.2944 23.304L72.7944 23.3047C72.7947 23.1485 72.7219 23.0013 72.5978 22.9065C72.4737 22.8118 72.3125 22.7805 72.1619 22.8218L72.2944 23.304ZM72.2944 23.3197L71.7944 23.319C71.7941 23.5075 71.8999 23.6802 72.068 23.7655L72.2944 23.3197ZM80.9998 27.7404H81.4998C81.4998 27.5521 81.3941 27.3798 81.2262 27.2946L80.9998 27.7404ZM80.9998 45.5477L81.0209 46.0472C81.2886 46.036 81.4998 45.8157 81.4998 45.5477H80.9998ZM65.9474 46.181L65.9151 46.68C65.9329 46.6811 65.9507 46.6813 65.9685 46.6806L65.9474 46.181ZM59.2732 45.7486L59.3055 45.2497C59.1676 45.2407 59.0321 45.2893 58.9313 45.3838C58.8304 45.4784 58.7732 45.6104 58.7732 45.7486H59.2732ZM59.2732 54.5555H58.7732C58.7732 54.6937 58.8304 54.8258 58.9313 54.9203C59.0321 55.0148 59.1676 55.0634 59.3055 55.0544L59.2732 54.5555ZM65.9476 54.123L65.9686 53.6234C65.9508 53.6227 65.933 53.6229 65.9152 53.624L65.9476 54.123ZM80.9995 54.7565L80.9785 55.2561C81.0019 55.257 81.0253 55.2564 81.0486 55.2541L80.9995 54.7565ZM80.9998 54.7565L81.1314 54.2741C81.0726 54.2581 81.0114 54.2529 80.9508 54.2589L80.9998 54.7565ZM81 54.7565L81.0894 55.2485C81.3192 55.2067 81.4894 55.0114 81.4995 54.7781C81.5096 54.5448 81.3568 54.3356 81.1315 54.2741L81 54.7565ZM80.9998 54.7565L80.9104 54.2646C80.6726 54.3078 80.4998 54.5149 80.4998 54.7565H80.9998ZM80.9998 72.5635L81.2262 73.0093C81.3941 72.9241 81.4998 72.7518 81.4998 72.5635H80.9998ZM72.2944 76.9842L72.068 76.5384C71.8997 76.6238 71.7939 76.7968 71.7944 76.9855L72.2944 76.9842ZM72.2944 77.0002L72.1619 77.4823C72.3126 77.5237 72.4739 77.4923 72.5981 77.3974C72.7222 77.3026 72.7948 77.1551 72.7944 76.9989L72.2944 77.0002ZM59.2732 73.4215L59.4057 72.9393C59.2553 72.898 59.0942 72.9292 58.9701 73.0238C58.846 73.1184 58.7732 73.2655 58.7732 73.4215H59.2732ZM59.2732 83.2923L59.4995 83.7381C59.6674 83.6529 59.7732 83.4806 59.7732 83.2923H59.2732ZM50.0001 88L49.7738 88.4458C49.916 88.5181 50.0842 88.5181 50.2264 88.4458L50.0001 88ZM40.7269 83.2923H40.2269C40.2269 83.4806 40.3327 83.6529 40.5005 83.7381L40.7269 83.2923ZM40.7269 73.4214H41.2269C41.2269 73.2654 41.1541 73.1183 41.03 73.0237C40.9059 72.9292 40.7448 72.8979 40.5944 72.9393L40.7269 73.4214ZM27.7053 77.0002H27.2053C27.2053 77.1562 27.2782 77.3033 27.4022 77.3978C27.5263 77.4924 27.6874 77.5237 27.8378 77.4823L27.7053 77.0002ZM27.7053 76.9842H28.2053C28.2053 76.7959 28.0996 76.6236 27.9317 76.5383L27.7053 76.9842ZM19 72.5635H18.5C18.5 72.7518 18.6058 72.9241 18.7736 73.0093L19 72.5635ZM19 54.7565L18.9761 54.2571C18.7096 54.2698 18.5 54.4897 18.5 54.7565H19ZM19.0003 54.7565L18.9793 54.2569L18.9764 54.2571L19.0003 54.7565ZM34.0524 54.123L34.0848 53.624C34.067 53.6229 34.0492 53.6227 34.0314 53.6234L34.0524 54.123ZM39.2113 45.3457C38.9358 45.3636 38.7269 45.6015 38.7447 45.877C38.7626 46.1526 39.0004 46.3615 39.276 46.3437L39.2113 45.3457ZM35.568 46.5839C35.8435 46.566 36.0524 46.3281 36.0346 46.0526C36.0167 45.777 35.7789 45.5681 35.5033 45.5859L35.568 46.5839ZM30.7285 45.5407C30.4526 45.5291 30.2195 45.7433 30.2079 46.0192C30.1963 46.2951 30.4105 46.5282 30.6864 46.5398L30.7285 45.5407ZM22.324 46.188C22.5999 46.1996 22.8329 45.9853 22.8445 45.7094C22.8562 45.4335 22.6419 45.2005 22.366 45.1889L22.324 46.188ZM19.1555 46.0264C19.4263 45.9721 19.6017 45.7086 19.5474 45.4378C19.493 45.1671 19.2295 44.9917 18.9588 45.046L19.1555 46.0264ZM19.1016 45.0173C18.8309 45.0717 18.6554 45.3352 18.7098 45.6059C18.7641 45.8767 19.0276 46.0521 19.2984 45.9978L19.1016 45.0173ZM19.151 45.0041C18.8762 45.0312 18.6754 45.2759 18.7024 45.5507C18.7295 45.8255 18.9742 46.0264 19.249 45.9993L19.151 45.0041ZM19.1061 46.0134C19.3809 45.9863 19.5818 45.7416 19.5547 45.4668C19.5277 45.192 19.283 44.9911 19.0082 45.0182L19.1061 46.0134ZM19.5 41.5523C19.5 41.2761 19.2761 41.0523 19 41.0523C18.7239 41.0523 18.5 41.2761 18.5 41.5523H19.5ZM18.5 31.6294C18.5 31.9056 18.7239 32.1294 19 32.1294C19.2761 32.1294 19.5 31.9056 19.5 31.6294H18.5ZM21.1606 27.1255C21.4069 27.0006 21.5054 26.6997 21.3805 26.4534C21.2556 26.2071 20.9548 26.1087 20.7085 26.2336L21.1606 27.1255ZM25.5448 23.7817C25.2985 23.9066 25.2001 24.2075 25.3249 24.4538C25.4498 24.7001 25.7507 24.7985 25.997 24.6737L25.5448 23.7817ZM27.271 23.495C27.3998 23.7392 27.7022 23.8329 27.9464 23.7041C28.1907 23.5753 28.2843 23.2728 28.1555 23.0286L27.271 23.495ZM28.1751 23.0656C28.0463 22.8214 27.7438 22.7277 27.4996 22.8565C27.2553 22.9853 27.1617 23.2878 27.2905 23.532L28.1751 23.0656ZM30.4939 24.5889C30.7602 24.6621 31.0354 24.5056 31.1086 24.2393C31.1817 23.973 31.0252 23.6978 30.7589 23.6247L30.4939 24.5889ZM37.9735 25.6075C37.7073 25.5343 37.4321 25.6909 37.3589 25.9571C37.2857 26.2234 37.4423 26.4986 37.7085 26.5718L37.9735 25.6075ZM41.2269 24.6216C41.2269 24.3455 41.003 24.1216 40.7269 24.1216C40.4507 24.1216 40.2269 24.3455 40.2269 24.6216H41.2269ZM40.2269 18.9688C40.2269 19.245 40.4507 19.4688 40.7269 19.4688C41.003 19.4688 41.2269 19.245 41.2269 18.9688H40.2269ZM43.0139 16.1074C43.2601 15.9824 43.3584 15.6814 43.2334 15.4352C43.1084 15.189 42.8075 15.0907 42.5612 15.2157L43.0139 16.1074ZM47.713 12.6003C47.4667 12.7253 47.3685 13.0263 47.4935 13.2725C47.6185 13.5187 47.9194 13.617 48.1656 13.492L47.713 12.6003ZM49.5 12.0001C49.5 12.2762 49.7239 12.5001 50 12.5001C50.2761 12.5001 50.5 12.2762 50.5 12.0001H49.5ZM50.5 12.0003C50.5 11.7242 50.2761 11.5003 50 11.5003C49.7239 11.5003 49.5 11.7242 49.5 12.0003H50.5ZM50.4253 12.2634C50.5705 12.0285 50.4979 11.7204 50.263 11.5751C50.0281 11.4299 49.72 11.5025 49.5748 11.7374L50.4253 12.2634ZM49.5748 11.7373C49.4296 11.9722 49.5022 12.2803 49.7371 12.4255C49.9719 12.5708 50.2801 12.4981 50.4253 12.2633L49.5748 11.7373ZM50.5001 12.0002C50.5001 11.724 50.2762 11.5002 50.0001 11.5002C49.7239 11.5002 49.5001 11.724 49.5001 12.0002H50.5001ZM49.5001 12.0001C49.5001 12.2762 49.7239 12.5001 50.0001 12.5001C50.2762 12.5001 50.5001 12.2762 50.5001 12.0001H49.5001ZM51.8344 13.492C52.0807 13.617 52.3816 13.5187 52.5066 13.2725C52.6316 13.0263 52.5334 12.7253 52.2871 12.6003L51.8344 13.492ZM57.4389 15.2157C57.1926 15.0907 56.8917 15.189 56.7667 15.4352C56.6417 15.6814 56.7399 15.9824 56.9862 16.1074L57.4389 15.2157ZM58.7732 18.9688C58.7732 19.245 58.9971 19.4688 59.2732 19.4688C59.5494 19.4688 59.7732 19.245 59.7732 18.9688H58.7732ZM59.7732 24.6216C59.7732 24.3454 59.5494 24.1216 59.2732 24.1216C58.9971 24.1216 58.7732 24.3454 58.7732 24.6216H59.7732ZM62.2993 26.5695C62.5656 26.4963 62.7221 26.2212 62.6489 25.9549C62.5758 25.6886 62.3006 25.5321 62.0343 25.6053L62.2993 26.5695ZM69.2683 23.6171C69.0021 23.6903 68.8455 23.9655 68.9187 24.2317C68.9919 24.498 69.2671 24.6545 69.5333 24.5813L69.2683 23.6171ZM71.7944 23.3067C71.794 23.5829 72.0176 23.8071 72.2937 23.8075C72.5698 23.8079 72.794 23.5843 72.7944 23.3082L71.7944 23.3067ZM72.7944 23.3169C72.7948 23.0408 72.5713 22.8166 72.2951 22.8162C72.019 22.8158 71.7948 23.0393 71.7944 23.3155L72.7944 23.3169ZM74.0026 24.7479C74.2488 24.8729 74.5497 24.7747 74.6748 24.5285C74.7998 24.2823 74.7016 23.9813 74.4553 23.8563L74.0026 24.7479ZM79.2917 26.3122C79.0455 26.1872 78.7445 26.2854 78.6195 26.5316C78.4945 26.7779 78.5927 27.0788 78.8389 27.2038L79.2917 26.3122ZM80.4998 31.6976C80.4998 31.9737 80.7237 32.1976 80.9998 32.1976C81.276 32.1976 81.4998 31.9737 81.4998 31.6976H80.4998ZM81.4998 41.5905C81.4998 41.3144 81.276 41.0905 80.9998 41.0905C80.7237 41.0905 80.4998 41.3144 80.4998 41.5905H81.4998ZM77.6338 45.1889C77.3579 45.2005 77.1437 45.4335 77.1553 45.7094C77.1669 45.9853 77.4 46.1996 77.6759 46.188L77.6338 45.1889ZM69.3134 46.5398C69.5893 46.5282 69.8036 46.2951 69.792 46.0192C69.7804 45.7433 69.5473 45.5291 69.2714 45.5407L69.3134 46.5398ZM64.4966 45.586C64.221 45.5681 63.9832 45.777 63.9653 46.0526C63.9475 46.3282 64.1564 46.566 64.4319 46.5839L64.4966 45.586ZM60.724 46.3437C60.9996 46.3615 61.2375 46.1526 61.2553 45.877C61.2732 45.6015 61.0643 45.3636 60.7887 45.3458L60.724 46.3437ZM58.7732 47.7057C58.7732 47.9819 58.9971 48.2057 59.2732 48.2057C59.5494 48.2057 59.7732 47.9819 59.7732 47.7057H58.7732ZM59.7732 52.5984C59.7732 52.3223 59.5494 52.0984 59.2732 52.0984C58.9971 52.0984 58.7732 52.3223 58.7732 52.5984H59.7732ZM60.7887 54.9583C61.0643 54.9405 61.2732 54.7026 61.2554 54.427C61.2375 54.1515 60.9996 53.9426 60.7241 53.9604L60.7887 54.9583ZM64.432 53.7201C64.1565 53.738 63.9476 53.9759 63.9654 54.2514C63.9833 54.527 64.2211 54.7359 64.4967 54.7181L64.432 53.7201ZM69.2714 54.7633C69.5473 54.7749 69.7804 54.5607 69.792 54.2848C69.8036 54.0089 69.5894 53.7758 69.3135 53.7642L69.2714 54.7633ZM77.6757 54.1162C77.3998 54.1045 77.1667 54.3188 77.1551 54.5947C77.1435 54.8706 77.3577 55.1037 77.6336 55.1153L77.6757 54.1162ZM81.0487 55.2541C81.3235 55.227 81.5243 54.9822 81.4972 54.7074C81.4701 54.4326 81.2254 54.2318 80.9506 54.2589L81.0487 55.2541ZM80.9507 54.2589C80.6759 54.286 80.4751 54.5307 80.5022 54.8055C80.5293 55.0803 80.774 55.2812 81.0488 55.2541L80.9507 54.2589ZM80.8683 55.2389C81.1347 55.3115 81.4096 55.1544 81.4822 54.888C81.5549 54.6216 81.3978 54.3468 81.1314 54.2741L80.8683 55.2389ZM81.1315 54.2741C80.8651 54.2015 80.5902 54.3585 80.5176 54.6249C80.4449 54.8914 80.602 55.1662 80.8684 55.2389L81.1315 54.2741ZM80.9105 54.2646C80.6388 54.314 80.4586 54.5743 80.508 54.846C80.5574 55.1177 80.8177 55.2979 81.0894 55.2485L80.9105 54.2646ZM81.0893 55.2485C81.361 55.1991 81.5412 54.9388 81.4918 54.6671C81.4424 54.3954 81.1821 54.2152 80.9104 54.2646L81.0893 55.2485ZM80.4998 58.7136C80.4998 58.9898 80.7237 59.2136 80.9998 59.2136C81.276 59.2136 81.4998 58.9898 81.4998 58.7136H80.4998ZM81.4998 68.6064C81.4998 68.3303 81.276 68.1064 80.9998 68.1064C80.7237 68.1064 80.4998 68.3303 80.4998 68.6064H81.4998ZM78.8389 73.1001C78.5927 73.2251 78.4944 73.526 78.6195 73.7723C78.7445 74.0185 79.0455 74.1167 79.2917 73.9917L78.8389 73.1001ZM74.4553 76.4476C74.7015 76.3226 74.7998 76.0216 74.6747 75.7754C74.5497 75.5292 74.2488 75.431 74.0025 75.556L74.4553 76.4476ZM71.7944 76.9891C71.7951 77.2652 72.0196 77.4885 72.2957 77.4877C72.5719 77.487 72.7951 77.2626 72.7944 76.9864L71.7944 76.9891ZM72.7944 76.9953C72.7937 76.7192 72.5693 76.4959 72.2931 76.4966C72.017 76.4974 71.7937 76.7218 71.7944 76.9979L72.7944 76.9953ZM69.5333 75.7228C69.2671 75.6496 68.9919 75.8061 68.9187 76.0724C68.8455 76.3387 69.0021 76.6139 69.2683 76.687L69.5333 75.7228ZM62.0343 74.6989C62.3006 74.772 62.5758 74.6155 62.6489 74.3492C62.7221 74.083 62.5656 73.8078 62.2993 73.7346L62.0343 74.6989ZM58.7732 75.615C58.7732 75.8911 58.9971 76.115 59.2732 76.115C59.5494 76.115 59.7732 75.8911 59.7732 75.615H58.7732ZM59.7732 81.0988C59.7732 80.8226 59.5494 80.5988 59.2732 80.5988C58.9971 80.5988 58.7732 80.8226 58.7732 81.0988H59.7732ZM56.9862 83.8926C56.7399 84.0176 56.6417 84.3186 56.7667 84.5648C56.8917 84.811 57.1926 84.9093 57.4389 84.7843L56.9862 83.8926ZM52.2871 87.3997C52.5334 87.2747 52.6316 86.9737 52.5066 86.7275C52.3816 86.4813 52.0807 86.383 51.8344 86.508L52.2871 87.3997ZM48.1657 86.508C47.9195 86.383 47.6185 86.4813 47.4935 86.7275C47.3685 86.9737 47.4668 87.2747 47.713 87.3997L48.1657 86.508ZM42.5613 84.7843C42.8075 84.9093 43.1084 84.811 43.2334 84.5648C43.3584 84.3186 43.2602 84.0176 43.0139 83.8926L42.5613 84.7843ZM41.2269 81.0988C41.2269 80.8226 41.003 80.5988 40.7269 80.5988C40.4507 80.5988 40.2269 80.8226 40.2269 81.0988H41.2269ZM40.2269 75.6149C40.2269 75.8911 40.4507 76.1149 40.7269 76.1149C41.003 76.1149 41.2269 75.8911 41.2269 75.6149H40.2269ZM37.7007 73.7346C37.4344 73.8077 37.2779 74.0829 37.3511 74.3492C37.4243 74.6155 37.6994 74.772 37.9657 74.6988L37.7007 73.7346ZM30.7315 76.687C30.9978 76.6138 31.1543 76.3387 31.0811 76.0724C31.008 75.8061 30.7328 75.6496 30.4665 75.7228L30.7315 76.687ZM28.2053 76.9966C28.2053 76.7205 27.9815 76.4966 27.7053 76.4966C27.4292 76.4966 27.2053 76.7205 27.2053 76.9966H28.2053ZM27.2053 76.9877C27.2053 77.2639 27.4292 77.4877 27.7053 77.4877C27.9815 77.4877 28.2053 77.2639 28.2053 76.9877H27.2053ZM25.9972 75.556C25.751 75.4309 25.45 75.5292 25.325 75.7754C25.2 76.0216 25.2982 76.3226 25.5444 76.4476L25.9972 75.556ZM20.7081 73.9917C20.9543 74.1167 21.2553 74.0185 21.3803 73.7723C21.5054 73.526 21.4071 73.2251 21.1609 73.1001L20.7081 73.9917ZM19.5 68.6064C19.5 68.3302 19.2761 68.1064 19 68.1064C18.7239 68.1064 18.5 68.3302 18.5 68.6064H19.5ZM18.5 58.7136C18.5 58.9898 18.7239 59.2136 19 59.2136C19.2761 59.2136 19.5 58.9898 19.5 58.7136H18.5ZM19.024 55.2559C19.2998 55.2427 19.5127 55.0084 19.4995 54.7326C19.4863 54.4568 19.252 54.2439 18.9762 54.2571L19.024 55.2559ZM18.9763 54.2571C18.7005 54.2703 18.4876 54.5046 18.5008 54.7804C18.514 55.0562 18.7483 55.2691 19.0241 55.2559L18.9763 54.2571ZM22.3663 55.1153C22.6422 55.1037 22.8564 54.8706 22.8448 54.5947C22.8332 54.3188 22.6001 54.1045 22.3242 54.1162L22.3663 55.1153ZM30.6865 53.7642C30.4106 53.7758 30.1964 54.0089 30.208 54.2848C30.2196 54.5607 30.4526 54.7749 30.7285 54.7633L30.6865 53.7642ZM35.5033 54.718C35.7789 54.7359 36.0167 54.527 36.0346 54.2514C36.0525 53.9759 35.8435 53.738 35.568 53.7201L35.5033 54.718ZM39.276 53.9604C39.0004 53.9426 38.7626 54.1515 38.7447 54.427C38.7269 54.7026 38.9358 54.9405 39.2113 54.9583L39.276 53.9604ZM41.2269 52.5984C41.2269 52.3223 41.003 52.0984 40.7269 52.0984C40.4507 52.0984 40.2269 52.3223 40.2269 52.5984H41.2269ZM40.2269 47.7057C40.2269 47.9818 40.4507 48.2057 40.7269 48.2057C41.003 48.2057 41.2269 47.9818 41.2269 47.7057H40.2269ZM40.6946 45.2497L39.2113 45.3457L39.276 46.3437L40.7592 46.2476L40.6946 45.2497ZM35.5033 45.5859L34.0201 45.682L34.0848 46.6799L35.568 46.5839L35.5033 45.5859ZM34.0735 45.6814L30.7285 45.5407L30.6864 46.5398L34.0314 46.6805L34.0735 45.6814ZM22.366 45.1889L19.021 45.0481L18.979 46.0472L22.324 46.188L22.366 45.1889ZM19.0984 46.0379L19.1555 46.0264L18.9588 45.046L18.9016 45.0575L19.0984 46.0379ZM19.2984 45.9978L19.3555 45.9863L19.1588 45.0059L19.1016 45.0173L19.2984 45.9978ZM19.2082 44.9985L19.151 45.0041L19.249 45.9993L19.3061 45.9937L19.2082 44.9985ZM19.0082 45.0182L18.951 45.0238L19.049 46.019L19.1061 46.0134L19.0082 45.0182ZM19.5 45.5214V41.5523H18.5V45.5214H19.5ZM19.5 31.6294V27.6603H18.5V31.6294H19.5ZM19.2261 28.1062L21.1606 27.1255L20.7085 26.2336L18.7739 27.2143L19.2261 28.1062ZM25.997 24.6737L27.9315 23.6929L27.4793 22.801L25.5448 23.7817L25.997 24.6737ZM27.2631 23.4802L27.271 23.495L28.1555 23.0286L28.1477 23.0137L27.2631 23.4802ZM27.2905 23.532L27.2983 23.5469L28.1829 23.0804L28.1751 23.0656L27.2905 23.532ZM27.6081 23.7958L30.4939 24.5889L30.7589 23.6247L27.8731 22.8315L27.6081 23.7958ZM37.7085 26.5718L40.5944 27.3649L40.8594 26.4006L37.9735 25.6075L37.7085 26.5718ZM41.2269 26.8828V24.6216H40.2269V26.8828H41.2269ZM41.2269 18.9688V16.7077H40.2269V18.9688H41.2269ZM40.9532 17.1536L43.0139 16.1074L42.5612 15.2157L40.5005 16.2619L40.9532 17.1536ZM48.1656 13.492L50.2263 12.4458L49.7737 11.5542L47.713 12.6003L48.1656 13.492ZM49.5 12V12.0001H50.5V12H49.5ZM49.5 12.0003V12.0004H50.5V12.0003H49.5ZM50.4252 12.2634L50.4253 12.2634L49.5748 11.7374L49.5747 11.7374L50.4252 12.2634ZM50.4253 12.2633L50.4253 12.2632L49.5748 11.7373L49.5748 11.7373L50.4253 12.2633ZM50.5001 12.0002V12.0002H49.5001V12.0002H50.5001ZM50.5001 12.0001V12H49.5001V12.0001H50.5001ZM49.7738 12.4458L51.8344 13.492L52.2871 12.6003L50.2264 11.5542L49.7738 12.4458ZM56.9862 16.1074L59.0469 17.1536L59.4995 16.2619L57.4389 15.2157L56.9862 16.1074ZM58.7732 16.7077V18.9688H59.7732V16.7077H58.7732ZM58.7732 24.6216V26.8827H59.7732V24.6216H58.7732ZM59.4057 27.3648L62.2993 26.5695L62.0343 25.6053L59.1407 26.4006L59.4057 27.3648ZM69.5333 24.5813L72.4269 23.7861L72.1619 22.8218L69.2683 23.6171L69.5333 24.5813ZM71.7944 23.3032L71.7944 23.3067L72.7944 23.3082L72.7944 23.3047L71.7944 23.3032ZM71.7944 23.3155L71.7944 23.319L72.7944 23.3204L72.7944 23.3169L71.7944 23.3155ZM72.068 23.7655L74.0026 24.7479L74.4553 23.8563L72.5208 22.8739L72.068 23.7655ZM78.8389 27.2038L80.7735 28.1862L81.2262 27.2946L79.2917 26.3122L78.8389 27.2038ZM80.4998 27.7404V31.6976H81.4998V27.7404H80.4998ZM80.4998 41.5905V45.5477H81.4998V41.5905H80.4998ZM80.9788 45.0481L77.6338 45.1889L77.6759 46.188L81.0209 46.0472L80.9788 45.0481ZM69.2714 45.5407L65.9264 45.6814L65.9685 46.6806L69.3134 46.5398L69.2714 45.5407ZM65.9798 45.682L64.4966 45.586L64.4319 46.5839L65.9151 46.68L65.9798 45.682ZM60.7887 45.3458L59.3055 45.2497L59.2409 46.2476L60.724 46.3437L60.7887 45.3458ZM58.7732 45.7486V47.7057H59.7732V45.7486H58.7732ZM58.7732 52.5984V54.5555H59.7732V52.5984H58.7732ZM59.3055 55.0544L60.7887 54.9583L60.7241 53.9604L59.2409 54.0565L59.3055 55.0544ZM64.4967 54.7181L65.9799 54.6219L65.9152 53.624L64.432 53.7201L64.4967 54.7181ZM65.9265 54.6225L69.2714 54.7633L69.3135 53.7642L65.9686 53.6234L65.9265 54.6225ZM77.6336 55.1153L80.9785 55.2561L81.0206 54.2569L77.6757 54.1162L77.6336 55.1153ZM81.0486 55.2541L81.0487 55.2541L80.9506 54.2589L80.9505 54.2589L81.0486 55.2541ZM81.0488 55.2541L81.0489 55.2541L80.9508 54.2589L80.9507 54.2589L81.0488 55.2541ZM80.8683 55.2389L80.8683 55.2389L81.1314 54.2741L81.1314 54.2741L80.8683 55.2389ZM80.8684 55.2389L80.8684 55.2389L81.1315 54.2741L81.1315 54.2741L80.8684 55.2389ZM80.9105 54.2646L80.9105 54.2646L81.0894 55.2485L81.0894 55.2485L80.9105 54.2646ZM80.9104 54.2646L80.9104 54.2646L81.0893 55.2485L81.0893 55.2485L80.9104 54.2646ZM80.4998 54.7565V58.7136H81.4998V54.7565H80.4998ZM80.4998 68.6064V72.5635H81.4998V68.6064H80.4998ZM80.7734 72.1177L78.8389 73.1001L79.2917 73.9917L81.2262 73.0093L80.7734 72.1177ZM74.0025 75.556L72.068 76.5384L72.5208 77.43L74.4553 76.4476L74.0025 75.556ZM71.7944 76.9855L71.7944 76.9891L72.7944 76.9864L72.7944 76.9829L71.7944 76.9855ZM71.7944 76.9979L71.7944 77.0015L72.7944 76.9989L72.7944 76.9953L71.7944 76.9979ZM72.4269 76.5181L69.5333 75.7228L69.2683 76.687L72.1619 77.4823L72.4269 76.5181ZM62.2993 73.7346L59.4057 72.9393L59.1407 73.9036L62.0343 74.6989L62.2993 73.7346ZM58.7732 73.4215V75.615H59.7732V73.4215H58.7732ZM58.7732 81.0988V83.2923H59.7732V81.0988H58.7732ZM59.0469 82.8465L56.9862 83.8926L57.4389 84.7843L59.4995 83.7381L59.0469 82.8465ZM51.8344 86.508L49.7738 87.5542L50.2264 88.4458L52.2871 87.3997L51.8344 86.508ZM50.2264 87.5542L48.1657 86.508L47.713 87.3997L49.7738 88.4458L50.2264 87.5542ZM43.0139 83.8926L40.9532 82.8465L40.5005 83.7381L42.5613 84.7843L43.0139 83.8926ZM41.2269 83.2923V81.0988H40.2269V83.2923H41.2269ZM41.2269 75.6149V73.4214H40.2269V75.6149H41.2269ZM40.5944 72.9393L37.7007 73.7346L37.9657 74.6988L40.8594 73.9035L40.5944 72.9393ZM30.4665 75.7228L27.5728 76.5181L27.8378 77.4823L30.7315 76.687L30.4665 75.7228ZM28.2053 77.0002V76.9966H27.2053V77.0002H28.2053ZM28.2053 76.9877V76.9842H27.2053V76.9877H28.2053ZM27.9317 76.5383L25.9972 75.556L25.5444 76.4476L27.4789 77.43L27.9317 76.5383ZM21.1609 73.1001L19.2264 72.1177L18.7736 73.0093L20.7081 73.9917L21.1609 73.1001ZM19.5 72.5635V68.6064H18.5V72.5635H19.5ZM19.5 58.7136V54.7565H18.5V58.7136H19.5ZM19.0239 55.2559L19.024 55.2559L18.9762 54.2571L18.9761 54.2571L19.0239 55.2559ZM19.0241 55.2559L19.0242 55.2559L18.9764 54.2571L18.9763 54.2571L19.0241 55.2559ZM19.0213 55.2561L22.3663 55.1153L22.3242 54.1162L18.9793 54.2569L19.0213 55.2561ZM30.7285 54.7633L34.0735 54.6225L34.0314 53.6234L30.6865 53.7642L30.7285 54.7633ZM34.0201 54.6219L35.5033 54.718L35.568 53.7201L34.0848 53.624L34.0201 54.6219ZM39.2113 54.9583L40.6945 55.0544L40.7592 54.0565L39.276 53.9604L39.2113 54.9583ZM41.2269 54.5555V52.5984H40.2269V54.5555H41.2269ZM41.2269 47.7057V45.7486H40.2269V47.7057H41.2269ZM40.7269 45.7486H41.7269C41.7269 45.4722 41.6124 45.2081 41.4107 45.019C41.2091 44.83 40.9381 44.7328 40.6622 44.7507L40.7269 45.7486ZM40.7269 54.5555L40.6622 55.5534C40.9381 55.5713 41.209 55.4741 41.4107 55.2851C41.6124 55.096 41.7269 54.8319 41.7269 54.5555H40.7269ZM34.0524 46.181L34.0104 47.1801C34.046 47.1816 34.0816 47.1812 34.1171 47.1789L34.0524 46.181ZM19 45.5477L18.8033 44.5672C18.3072 44.6668 17.9636 45.1212 18.003 45.6256C18.0425 46.13 18.4524 46.5255 18.958 46.5468L19 45.5477ZM19.2572 45.4961L19.4539 46.4765C19.9764 46.3717 20.3248 45.8756 20.2462 45.3485C20.1676 44.8215 19.6895 44.4487 19.1592 44.5009L19.2572 45.4961ZM19 45.5214H18C18 45.8037 18.1193 46.0728 18.3284 46.2623C18.5376 46.4519 18.8171 46.5443 19.098 46.5166L19 45.5214ZM19 27.6603L18.5478 26.7683C18.2118 26.9387 18 27.2835 18 27.6603H19ZM27.7054 23.2469L28.59 22.7805C28.3353 22.2975 27.7403 22.1081 27.2533 22.355L27.7054 23.2469ZM27.7406 23.3137L26.856 23.7801C26.9849 24.0245 27.2092 24.2047 27.4756 24.2779L27.7406 23.3137ZM40.7269 26.8828L40.4619 27.847C40.7627 27.9297 41.0849 27.8672 41.3331 27.6781C41.5812 27.4889 41.7269 27.1948 41.7269 26.8828H40.7269ZM40.7269 16.7077L40.2742 15.816C39.9384 15.9865 39.7269 16.3311 39.7269 16.7077H40.7269ZM50 12H51C51 11.6523 50.8194 11.3296 50.5231 11.1477C50.2268 10.9659 49.8573 10.9509 49.5473 11.1083L50 12ZM50 12.0004H49C49 12.4474 49.2966 12.8401 49.7266 12.9623C50.1565 13.0845 50.6154 12.9065 50.8505 12.5264L50 12.0004ZM50.0001 12.0002L50.8506 12.5262C50.9483 12.3682 51.0001 12.1861 51.0001 12.0002H50.0001ZM50.0001 12L50.4528 11.1083C50.1428 10.9509 49.7733 10.9659 49.477 11.1477C49.1807 11.3296 49.0001 11.6523 49.0001 12H50.0001ZM59.2732 16.7077H60.2732C60.2732 16.3311 60.0617 15.9865 59.7259 15.816L59.2732 16.7077ZM59.2732 26.8827H58.2732C58.2732 27.1947 58.4188 27.4888 58.667 27.678C58.9151 27.8671 59.2374 27.9296 59.5382 27.8469L59.2732 26.8827ZM72.2944 23.304L73.2944 23.3054C73.2949 22.9931 73.1494 22.6986 72.9012 22.5091C72.653 22.3196 72.3305 22.257 72.0294 22.3397L72.2944 23.304ZM72.2944 23.3197L71.2944 23.3182C71.2939 23.6953 71.5054 24.0406 71.8416 24.2113L72.2944 23.3197ZM80.9998 27.7404H81.9998C81.9998 27.3639 81.7883 27.0193 81.4526 26.8488L80.9998 27.7404ZM80.9998 45.5477L81.0419 46.5468C81.5773 46.5243 81.9998 46.0836 81.9998 45.5477H80.9998ZM65.9474 46.181L65.8828 47.1789C65.9183 47.1812 65.9539 47.1816 65.9895 47.1801L65.9474 46.181ZM59.2732 45.7486L59.3379 44.7507C59.062 44.7329 58.791 44.83 58.5893 45.019C58.3876 45.2081 58.2732 45.4722 58.2732 45.7486H59.2732ZM59.2732 54.5555H58.2732C58.2732 54.8319 58.3876 55.0961 58.5893 55.2851C58.791 55.4742 59.062 55.5713 59.3379 55.5534L59.2732 54.5555ZM65.9476 54.123L65.9896 53.1239C65.954 53.1224 65.9184 53.1228 65.8829 53.1251L65.9476 54.123ZM80.9995 54.7565L80.9575 55.7556C81.0043 55.7576 81.0511 55.7563 81.0977 55.7517L80.9995 54.7565ZM80.9998 54.7565L81.2629 53.7917C81.1454 53.7596 81.023 53.7493 80.9017 53.7613L80.9998 54.7565ZM81 54.7565L81.1789 55.7404C81.6384 55.6568 81.9789 55.2663 81.9991 54.7997C82.0192 54.3331 81.7137 53.9146 81.2631 53.7918L81 54.7565ZM80.9998 54.7565L80.8209 53.7727C80.3454 53.8591 79.9998 54.2733 79.9998 54.7565H80.9998ZM80.9998 72.5635L81.4526 73.4551C81.7883 73.2846 81.9998 72.94 81.9998 72.5635H80.9998ZM72.2944 76.9842L71.8416 76.0926C71.5051 76.2635 71.2934 76.6094 71.2944 76.9868L72.2944 76.9842ZM72.2944 77.0002L72.0294 77.9644C72.3307 78.0472 72.6534 77.9844 72.9017 77.7947C73.15 77.6049 73.2952 77.31 73.2944 76.9976L72.2944 77.0002ZM59.2732 73.4215L59.5382 72.4572C59.2374 72.3745 58.9151 72.437 58.667 72.6262C58.4188 72.8153 58.2732 73.1095 58.2732 73.4215H59.2732ZM59.2732 83.2923L59.7259 84.184C60.0617 84.0135 60.2732 83.6689 60.2732 83.2923H59.2732ZM50.0001 88L49.5474 88.8917C49.8319 89.0361 50.1683 89.0361 50.4528 88.8917L50.0001 88ZM40.7269 83.2923H39.7269C39.7269 83.6689 39.9384 84.0135 40.2742 84.184L40.7269 83.2923ZM40.7269 73.4214H41.7269C41.7269 73.1094 41.5812 72.8152 41.3331 72.6261C41.0849 72.4369 40.7627 72.3745 40.4619 72.4571L40.7269 73.4214ZM27.7053 77.0002H26.7053C26.7053 77.3122 26.851 77.6063 27.0991 77.7955C27.3473 77.9846 27.6695 78.0471 27.9703 77.9644L27.7053 77.0002ZM27.7053 76.9842H28.7053C28.7053 76.6076 28.4938 76.263 28.1581 76.0925L27.7053 76.9842ZM19 72.5635H18C18 72.94 18.2115 73.2846 18.5472 73.4551L19 72.5635ZM19 54.7565L18.9522 53.7577C18.4191 53.7832 18 54.2228 18 54.7565H19ZM19.0003 54.7565L18.9583 53.7574L18.9525 53.7576L19.0003 54.7565ZM34.0524 54.123L34.1171 53.1251C34.0816 53.1228 34.046 53.1224 34.0104 53.1239L34.0524 54.123ZM39.179 44.8468C38.6279 44.8825 38.2101 45.3582 38.2458 45.9093C38.2815 46.4605 38.7572 46.8783 39.3083 46.8426L39.179 44.8468ZM35.6003 47.0828C36.1514 47.0471 36.5693 46.5714 36.5336 46.0203C36.4979 45.4691 36.0221 45.0513 35.471 45.087L35.6003 47.0828ZM30.7495 45.0411C30.1977 45.0179 29.7315 45.4464 29.7083 45.9982C29.6851 46.55 30.1136 47.0161 30.6654 47.0394L30.7495 45.0411ZM22.303 46.6875C22.8547 46.7108 23.3209 46.2822 23.3441 45.7305C23.3673 45.1787 22.9388 44.7125 22.387 44.6893L22.303 46.6875ZM19.2539 46.5167C19.7954 46.408 20.1463 45.881 20.0376 45.3395C19.9289 44.798 19.4019 44.4471 18.8604 44.5558L19.2539 46.5167ZM19.0033 44.5271C18.4618 44.6358 18.1109 45.1628 18.2196 45.7043C18.3282 46.2458 18.8553 46.5967 19.3968 46.488L19.0033 44.5271ZM19.102 44.5065C18.5524 44.5606 18.1507 45.0501 18.2048 45.5997C18.2589 46.1493 18.7484 46.551 19.298 46.4969L19.102 44.5065ZM19.1551 46.511C19.7048 46.4569 20.1064 45.9674 20.0523 45.4178C19.9982 44.8682 19.5088 44.4665 18.9592 44.5206L19.1551 46.511ZM20 41.5523C20 41 19.5523 40.5523 19 40.5523C18.4477 40.5523 18 41 18 41.5523H20ZM18 31.6294C18 32.1817 18.4477 32.6294 19 32.6294C19.5523 32.6294 20 32.1817 20 31.6294H18ZM21.3867 27.5715C21.8793 27.3217 22.0762 26.72 21.8265 26.2274C21.5767 25.7348 20.975 25.5379 20.4824 25.7876L21.3867 27.5715ZM25.3187 23.3358C24.8261 23.5855 24.6292 24.1873 24.879 24.6799C25.1287 25.1725 25.7305 25.3693 26.2231 25.1196L25.3187 23.3358ZM26.8287 23.7282C27.0863 24.2167 27.6911 24.4039 28.1796 24.1463C28.6682 23.8888 28.8554 23.2839 28.5978 22.7954L26.8287 23.7282ZM28.6174 22.8324C28.3598 22.3439 27.7549 22.1567 27.2664 22.4143C26.7778 22.6718 26.5906 23.2767 26.8482 23.7652L28.6174 22.8324ZM30.3614 25.071C30.894 25.2174 31.4443 24.9043 31.5907 24.3718C31.737 23.8393 31.424 23.2889 30.8914 23.1425L30.3614 25.071ZM38.106 25.1254C37.5735 24.979 37.0232 25.2921 36.8768 25.8246C36.7304 26.3572 37.0435 26.9075 37.576 27.0539L38.106 25.1254ZM41.7269 24.6216C41.7269 24.0694 41.2792 23.6216 40.7269 23.6216C40.1746 23.6216 39.7269 24.0694 39.7269 24.6216H41.7269ZM39.7269 18.9688C39.7269 19.5211 40.1746 19.9688 40.7269 19.9688C41.2792 19.9688 41.7269 19.5211 41.7269 18.9688H39.7269ZM43.2402 16.5532C43.7327 16.3032 43.9293 15.7013 43.6792 15.2089C43.4292 14.7164 42.8273 14.5199 42.3349 14.7699L43.2402 16.5532ZM47.4866 12.1545C46.9942 12.4045 46.7976 13.0064 47.0476 13.4988C47.2976 13.9913 47.8995 14.1878 48.392 13.9378L47.4866 12.1545ZM49 12.0001C49 12.5524 49.4477 13.0001 50 13.0001C50.5523 13.0001 51 12.5524 51 12.0001H49ZM51 12.0003C51 11.448 50.5523 11.0003 50 11.0003C49.4477 11.0003 49 11.448 49 12.0003H51ZM50.8505 12.5263C51.141 12.0566 50.9957 11.4404 50.526 11.1499C50.0563 10.8594 49.44 11.0047 49.1495 11.4744L50.8505 12.5263ZM49.1496 11.4743C48.8591 11.944 49.0044 12.5603 49.4741 12.8508C49.9438 13.1413 50.5601 12.996 50.8506 12.5263L49.1496 11.4743ZM51.0001 12.0002C51.0001 11.4479 50.5524 11.0002 50.0001 11.0002C49.4478 11.0002 49.0001 11.4479 49.0001 12.0002H51.0001ZM49.0001 12.0001C49.0001 12.5523 49.4478 13.0001 50.0001 13.0001C50.5524 13.0001 51.0001 12.5523 51.0001 12.0001H49.0001ZM51.6081 13.9378C52.1006 14.1878 52.7024 13.9913 52.9525 13.4988C53.2025 13.0064 53.0059 12.4045 52.5135 12.1545L51.6081 13.9378ZM57.6652 14.7699C57.1727 14.5199 56.5709 14.7164 56.3208 15.2089C56.0708 15.7013 56.2674 16.3032 56.7598 16.5532L57.6652 14.7699ZM58.2732 18.9688C58.2732 19.5211 58.7209 19.9688 59.2732 19.9688C59.8255 19.9688 60.2732 19.5211 60.2732 18.9688H58.2732ZM60.2732 24.6216C60.2732 24.0693 59.8255 23.6216 59.2732 23.6216C58.7209 23.6216 58.2732 24.0693 58.2732 24.6216H60.2732ZM62.4318 27.0516C62.9644 26.9053 63.2774 26.3549 63.1311 25.8224C62.9847 25.2899 62.4343 24.9768 61.9018 25.1232L62.4318 27.0516ZM69.1358 23.135C68.6033 23.2813 68.2902 23.8317 68.4366 24.3642C68.5829 24.8968 69.1333 25.2098 69.6658 25.0635L69.1358 23.135ZM71.2944 23.306C71.2936 23.8583 71.7407 24.3067 72.293 24.3075C72.8453 24.3083 73.2936 23.8612 73.2944 23.3089L71.2944 23.306ZM73.2944 23.3177C73.2952 22.7654 72.8482 22.317 72.2959 22.3162C71.7436 22.3154 71.2952 22.7625 71.2944 23.3147L73.2944 23.3177ZM73.7762 25.1937C74.2686 25.4438 74.8705 25.2473 75.1206 24.7549C75.3706 24.2624 75.1742 23.6605 74.6817 23.4105L73.7762 25.1937ZM79.5181 25.8664C79.0256 25.6163 78.4237 25.8128 78.1737 26.3053C77.9236 26.7977 78.1201 27.3996 78.6125 27.6497L79.5181 25.8664ZM79.9998 31.6976C79.9998 32.2499 80.4476 32.6976 80.9998 32.6976C81.5521 32.6976 81.9998 32.2499 81.9998 31.6976H79.9998ZM81.9998 41.5905C81.9998 41.0382 81.5521 40.5905 80.9998 40.5905C80.4476 40.5905 79.9998 41.0382 79.9998 41.5905H81.9998ZM77.6128 44.6893C77.061 44.7125 76.6325 45.1787 76.6557 45.7305C76.679 46.2823 77.1451 46.7108 77.6969 46.6875L77.6128 44.6893ZM69.3344 47.0394C69.8862 47.0162 70.3147 46.55 70.2915 45.9982C70.2683 45.4464 69.8022 45.0179 69.2504 45.0411L69.3344 47.0394ZM64.5289 45.087C63.9778 45.0513 63.5021 45.4691 63.4664 46.0203C63.4307 46.5714 63.8485 47.0471 64.3996 47.0828L64.5289 45.087ZM60.6917 46.8426C61.2429 46.8783 61.7186 46.4605 61.7543 45.9094C61.79 45.3582 61.3721 44.8825 60.821 44.8468L60.6917 46.8426ZM58.2732 47.7057C58.2732 48.258 58.7209 48.7057 59.2732 48.7057C59.8255 48.7057 60.2732 48.258 60.2732 47.7057H58.2732ZM60.2732 52.5984C60.2732 52.0461 59.8255 51.5984 59.2732 51.5984C58.7209 51.5984 58.2732 52.0461 58.2732 52.5984H60.2732ZM60.8211 55.4573C61.3722 55.4216 61.79 54.9458 61.7543 54.3947C61.7186 53.8436 61.2429 53.4258 60.6917 53.4615L60.8211 55.4573ZM64.3997 53.2212C63.8486 53.2569 63.4307 53.7326 63.4665 54.2838C63.5022 54.8349 63.9779 55.2527 64.529 55.217L64.3997 53.2212ZM69.2504 55.2629C69.8022 55.2861 70.2683 54.8576 70.2916 54.3058C70.3148 53.754 69.8863 53.2879 69.3345 53.2647L69.2504 55.2629ZM77.6967 53.6166C77.1449 53.5934 76.6788 54.0219 76.6555 54.5737C76.6323 55.1255 77.0608 55.5916 77.6126 55.6148L77.6967 53.6166ZM81.0977 55.7517C81.6473 55.6975 82.049 55.208 81.9948 54.6584C81.9406 54.1088 81.4511 53.7071 80.9015 53.7613L81.0977 55.7517ZM80.9016 53.7613C80.352 53.8155 79.9504 54.305 80.0046 54.8546C80.0588 55.4042 80.5483 55.8058 81.0979 55.7517L80.9016 53.7613ZM80.7367 55.7212C81.2696 55.8666 81.8193 55.5524 81.9646 55.0196C82.1099 54.4868 81.7958 53.937 81.263 53.7917L80.7367 55.7212ZM81.2631 53.7917C80.7302 53.6464 80.1805 53.9606 80.0352 54.4934C79.8899 55.0262 80.204 55.576 80.7368 55.7213L81.2631 53.7917ZM80.8211 53.7727C80.2777 53.8714 79.9173 54.392 80.0161 54.9354C80.1149 55.4788 80.6355 55.8392 81.1788 55.7404L80.8211 53.7727ZM81.1787 55.7404C81.7221 55.6416 82.0825 55.121 81.9837 54.5777C81.8849 54.0343 81.3643 53.6739 80.821 53.7727L81.1787 55.7404ZM79.9998 58.7136C79.9998 59.2659 80.4475 59.7136 80.9998 59.7136C81.5521 59.7136 81.9998 59.2659 81.9998 58.7136H79.9998ZM81.9998 68.6064C81.9998 68.0541 81.5521 67.6064 80.9998 67.6064C80.4475 67.6064 79.9998 68.0541 79.9998 68.6064H81.9998ZM78.6125 72.6543C78.1201 72.9043 77.9236 73.5062 78.1737 73.9986C78.4237 74.4911 79.0256 74.6876 79.5181 74.4375L78.6125 72.6543ZM74.6817 76.8934C75.1741 76.6434 75.3706 76.0415 75.1206 75.549C74.8705 75.0566 74.2686 74.8601 73.7762 75.1102L74.6817 76.8934ZM71.2944 76.9904C71.2959 77.5427 71.7447 77.9892 72.297 77.9877C72.8493 77.9863 73.2958 77.5374 73.2944 76.9851L71.2944 76.9904ZM73.2944 76.994C73.293 76.4417 72.8441 75.9952 72.2918 75.9966C71.7395 75.9981 71.293 76.447 71.2944 76.9993L73.2944 76.994ZM69.6658 75.2407C69.1333 75.0943 68.5829 75.4074 68.4366 75.9399C68.2902 76.4724 68.6033 77.0228 69.1358 77.1692L69.6658 75.2407ZM61.9018 75.181C62.4343 75.3273 62.9847 75.0143 63.1311 74.4817C63.2774 73.9492 62.9644 73.3989 62.4318 73.2525L61.9018 75.181ZM58.2732 75.615C58.2732 76.1673 58.7209 76.615 59.2732 76.615C59.8255 76.615 60.2732 76.1673 60.2732 75.615H58.2732ZM60.2732 81.0988C60.2732 80.5465 59.8255 80.0988 59.2732 80.0988C58.7209 80.0988 58.2732 80.5465 58.2732 81.0988H60.2732ZM56.7598 83.4468C56.2674 83.6968 56.0708 84.2987 56.3208 84.7911C56.5709 85.2836 57.1727 85.4801 57.6652 85.2301L56.7598 83.4468ZM52.5135 87.8455C53.0059 87.5955 53.2025 86.9936 52.9525 86.5012C52.7024 86.0087 52.1006 85.8122 51.6081 86.0622L52.5135 87.8455ZM48.3921 86.0622C47.8996 85.8122 47.2977 86.0087 47.0477 86.5012C46.7977 86.9936 46.9942 87.5955 47.4867 87.8455L48.3921 86.0622ZM42.3349 85.2301C42.8274 85.4801 43.4293 85.2836 43.6793 84.7911C43.9293 84.2987 43.7327 83.6968 43.2403 83.4468L42.3349 85.2301ZM41.7269 81.0988C41.7269 80.5465 41.2792 80.0988 40.7269 80.0988C40.1746 80.0988 39.7269 80.5465 39.7269 81.0988H41.7269ZM39.7269 75.6149C39.7269 76.1672 40.1746 76.6149 40.7269 76.6149C41.2792 76.6149 41.7269 76.1672 41.7269 75.6149H39.7269ZM37.5682 73.2524C37.0357 73.3988 36.7226 73.9492 36.869 74.4817C37.0153 75.0142 37.5657 75.3273 38.0982 75.1809L37.5682 73.2524ZM30.864 77.1691C31.3966 77.0228 31.7096 76.4724 31.5633 75.9399C31.4169 75.4074 30.8665 75.0943 30.334 75.2407L30.864 77.1691ZM28.7053 76.9966C28.7053 76.4443 28.2576 75.9966 27.7053 75.9966C27.153 75.9966 26.7053 76.4443 26.7053 76.9966H28.7053ZM26.7053 76.9877C26.7053 77.54 27.153 77.9877 27.7053 77.9877C28.2576 77.9877 28.7053 77.54 28.7053 76.9877H26.7053ZM26.2236 75.1102C25.7312 74.8601 25.1293 75.0566 24.8792 75.549C24.6291 76.0414 24.8256 76.6433 25.318 76.8934L26.2236 75.1102ZM20.4817 74.4375C20.9742 74.6875 21.5761 74.4911 21.8261 73.9986C22.0762 73.5062 21.8797 72.9043 21.3873 72.6542L20.4817 74.4375ZM20 68.6064C20 68.0541 19.5523 67.6064 19 67.6064C18.4477 67.6064 18 68.0541 18 68.6064H20ZM18 58.7136C18 59.2659 18.4477 59.7136 19 59.7136C19.5523 59.7136 20 59.2659 20 58.7136H18ZM19.0479 55.7554C19.5995 55.729 20.0253 55.2604 19.9989 54.7087C19.9725 54.1571 19.5039 53.7313 18.9523 53.7577L19.0479 55.7554ZM18.9524 53.7576C18.4008 53.784 17.975 54.2527 18.0014 54.8043C18.0278 55.356 18.4964 55.7818 19.048 55.7554L18.9524 53.7576ZM22.3873 55.6148C22.9391 55.5916 23.3676 55.1255 23.3443 54.5737C23.3211 54.0219 22.855 53.5934 22.3032 53.6166L22.3873 55.6148ZM30.6655 53.2647C30.1137 53.2879 29.6852 53.754 29.7084 54.3058C29.7316 54.8576 30.1978 55.2861 30.7496 55.2629L30.6655 53.2647ZM35.471 55.217C36.0221 55.2527 36.4978 54.8349 36.5336 54.2838C36.5693 53.7326 36.1514 53.2569 35.6003 53.2212L35.471 55.217ZM39.3083 53.4615C38.7572 53.4257 38.2815 53.8436 38.2458 54.3947C38.21 54.9458 38.6279 55.4216 39.179 55.4573L39.3083 53.4615ZM41.7269 52.5984C41.7269 52.0461 41.2792 51.5984 40.7269 51.5984C40.1746 51.5984 39.7269 52.0461 39.7269 52.5984H41.7269ZM39.7269 47.7057C39.7269 48.258 40.1746 48.7057 40.7269 48.7057C41.2792 48.7057 41.7269 48.258 41.7269 47.7057H39.7269ZM40.6622 44.7507L39.179 44.8468L39.3083 46.8426L40.7915 46.7465L40.6622 44.7507ZM35.471 45.087L33.9878 45.1831L34.1171 47.1789L35.6003 47.0828L35.471 45.087ZM34.0945 45.1819L30.7495 45.0411L30.6654 47.0394L34.0104 47.1801L34.0945 45.1819ZM22.387 44.6893L19.042 44.5486L18.958 46.5468L22.303 46.6875L22.387 44.6893ZM19.1967 46.5281L19.2539 46.5167L18.8604 44.5558L18.8033 44.5672L19.1967 46.5281ZM19.3968 46.488L19.4539 46.4765L19.0604 44.5156L19.0033 44.5271L19.3968 46.488ZM19.1592 44.5009L19.102 44.5065L19.298 46.4969L19.3551 46.4913L19.1592 44.5009ZM18.9592 44.5206L18.902 44.5262L19.098 46.5166L19.1551 46.511L18.9592 44.5206ZM20 45.5214V41.5523H18V45.5214H20ZM20 31.6294V27.6603H18V31.6294H20ZM19.4522 28.5522L21.3867 27.5715L20.4824 25.7876L18.5478 26.7683L19.4522 28.5522ZM26.2231 25.1196L28.1576 24.1389L27.2533 22.355L25.3187 23.3358L26.2231 25.1196ZM26.8209 23.7134L26.8287 23.7282L28.5978 22.7954L28.59 22.7805L26.8209 23.7134ZM26.8482 23.7652L26.856 23.7801L28.6252 22.8472L28.6174 22.8324L26.8482 23.7652ZM27.4756 24.2779L30.3614 25.071L30.8914 23.1425L28.0056 22.3494L27.4756 24.2779ZM37.576 27.0539L40.4619 27.847L40.9919 25.9185L38.106 25.1254L37.576 27.0539ZM41.7269 26.8828V24.6216H39.7269V26.8828H41.7269ZM41.7269 18.9688V16.7077H39.7269V18.9688H41.7269ZM41.1796 17.5994L43.2402 16.5532L42.3349 14.7699L40.2742 15.816L41.1796 17.5994ZM48.392 13.9378L50.4527 12.8917L49.5473 11.1083L47.4866 12.1545L48.392 13.9378ZM49 12V12.0001H51V12H49ZM49 12.0003V12.0004H51V12.0003H49ZM50.8505 12.5264L50.8505 12.5263L49.1495 11.4744L49.1495 11.4744L50.8505 12.5264ZM50.8506 12.5263L50.8506 12.5262L49.1496 11.4743L49.1496 11.4743L50.8506 12.5263ZM51.0001 12.0002V12.0002H49.0001V12.0002H51.0001ZM51.0001 12.0001V12H49.0001V12.0001H51.0001ZM49.5474 12.8917L51.6081 13.9378L52.5135 12.1545L50.4528 11.1083L49.5474 12.8917ZM56.7598 16.5532L58.8205 17.5994L59.7259 15.816L57.6652 14.7699L56.7598 16.5532ZM58.2732 16.7077V18.9688H60.2732V16.7077H58.2732ZM58.2732 24.6216V26.8827H60.2732V24.6216H58.2732ZM59.5382 27.8469L62.4318 27.0516L61.9018 25.1232L59.0082 25.9184L59.5382 27.8469ZM69.6658 25.0635L72.5594 24.2682L72.0294 22.3397L69.1358 23.135L69.6658 25.0635ZM71.2944 23.3025L71.2944 23.306L73.2944 23.3089L73.2944 23.3054L71.2944 23.3025ZM71.2944 23.3147L71.2944 23.3182L73.2944 23.3212L73.2944 23.3177L71.2944 23.3147ZM71.8416 24.2113L73.7762 25.1937L74.6817 23.4105L72.7472 22.4281L71.8416 24.2113ZM78.6125 27.6497L80.5471 28.632L81.4526 26.8488L79.5181 25.8664L78.6125 27.6497ZM79.9998 27.7404V31.6976H81.9998V27.7404H79.9998ZM79.9998 41.5905V45.5477H81.9998V41.5905H79.9998ZM80.9578 44.5486L77.6128 44.6893L77.6969 46.6875L81.0419 46.5468L80.9578 44.5486ZM69.2504 45.0411L65.9054 45.1819L65.9895 47.1801L69.3344 47.0394L69.2504 45.0411ZM66.0121 45.1831L64.5289 45.087L64.3996 47.0828L65.8828 47.1789L66.0121 45.1831ZM60.821 44.8468L59.3379 44.7507L59.2086 46.7465L60.6917 46.8426L60.821 44.8468ZM58.2732 45.7486V47.7057H60.2732V45.7486H58.2732ZM58.2732 52.5984V54.5555H60.2732V52.5984H58.2732ZM59.3379 55.5534L60.8211 55.4573L60.6917 53.4615L59.2085 53.5576L59.3379 55.5534ZM64.529 55.217L66.0122 55.1209L65.8829 53.1251L64.3997 53.2212L64.529 55.217ZM65.9055 55.1221L69.2504 55.2629L69.3345 53.2647L65.9896 53.1239L65.9055 55.1221ZM77.6126 55.6148L80.9575 55.7556L81.0416 53.7574L77.6967 53.6166L77.6126 55.6148ZM81.0977 55.7517L81.0977 55.7517L80.9015 53.7613L80.9014 53.7613L81.0977 55.7517ZM81.0979 55.7517L81.0979 55.7516L80.9017 53.7613L80.9016 53.7613L81.0979 55.7517ZM80.7367 55.7212L80.7367 55.7212L81.263 53.7917L81.2629 53.7917L80.7367 55.7212ZM80.7368 55.7213L80.7369 55.7213L81.2631 53.7918L81.2631 53.7917L80.7368 55.7213ZM80.8211 53.7726L80.8211 53.7727L81.1788 55.7404L81.1789 55.7404L80.8211 53.7726ZM80.821 53.7727L80.8209 53.7727L81.1787 55.7404L81.1787 55.7404L80.821 53.7727ZM79.9998 54.7565V58.7136H81.9998V54.7565H79.9998ZM79.9998 68.6064V72.5635H81.9998V68.6064H79.9998ZM80.547 71.6719L78.6125 72.6543L79.5181 74.4375L81.4526 73.4551L80.547 71.6719ZM73.7762 75.1102L71.8416 76.0926L72.7472 77.8758L74.6817 76.8934L73.7762 75.1102ZM71.2944 76.9868L71.2944 76.9904L73.2944 76.9851L73.2944 76.9816L71.2944 76.9868ZM71.2944 76.9993L71.2944 77.0028L73.2944 76.9976L73.2944 76.994L71.2944 76.9993ZM72.5594 76.0359L69.6658 75.2407L69.1358 77.1692L72.0294 77.9644L72.5594 76.0359ZM62.4318 73.2525L59.5382 72.4572L59.0082 74.3857L61.9018 75.181L62.4318 73.2525ZM58.2732 73.4215V75.615H60.2732V73.4215H58.2732ZM58.2732 81.0988V83.2923H60.2732V81.0988H58.2732ZM58.8205 82.4006L56.7598 83.4468L57.6652 85.2301L59.7259 84.184L58.8205 82.4006ZM51.6081 86.0622L49.5474 87.1083L50.4528 88.8917L52.5135 87.8455L51.6081 86.0622ZM50.4528 87.1083L48.3921 86.0622L47.4867 87.8455L49.5474 88.8917L50.4528 87.1083ZM43.2403 83.4468L41.1796 82.4006L40.2742 84.184L42.3349 85.2301L43.2403 83.4468ZM41.7269 83.2923V81.0988H39.7269V83.2923H41.7269ZM41.7269 75.6149V73.4214H39.7269V75.6149H41.7269ZM40.4619 72.4571L37.5682 73.2524L38.0982 75.1809L40.9919 74.3856L40.4619 72.4571ZM30.334 75.2407L27.4403 76.0359L27.9703 77.9644L30.864 77.1691L30.334 75.2407ZM28.7053 77.0002V76.9966H26.7053V77.0002H28.7053ZM28.7053 76.9877V76.9842H26.7053V76.9877H28.7053ZM28.1581 76.0925L26.2236 75.1102L25.318 76.8934L27.2526 77.8758L28.1581 76.0925ZM21.3873 72.6542L19.4528 71.6719L18.5472 73.4551L20.4817 74.4375L21.3873 72.6542ZM20 72.5635V68.6064H18V72.5635H20ZM20 58.7136V54.7565H18V58.7136H20ZM19.0478 55.7554L19.0479 55.7554L18.9523 53.7577L18.9522 53.7577L19.0478 55.7554ZM19.048 55.7554L19.0481 55.7554L18.9525 53.7576L18.9524 53.7576L19.048 55.7554ZM19.0424 55.7556L22.3873 55.6148L22.3032 53.6166L18.9583 53.7574L19.0424 55.7556ZM30.7496 55.2629L34.0945 55.1221L34.0104 53.1239L30.6655 53.2647L30.7496 55.2629ZM33.9878 55.1209L35.471 55.217L35.6003 53.2212L34.1171 53.1251L33.9878 55.1209ZM39.179 55.4573L40.6622 55.5534L40.7915 53.5576L39.3083 53.4615L39.179 55.4573ZM41.7269 54.5555V52.5984H39.7269V54.5555H41.7269ZM41.7269 47.7057V45.7486H39.7269V47.7057H41.7269Z" fill="black" mask="url(#path-1-inside-1)"/>
<path d="M74.9999 39.5477L59.9474 40.181L50.1899 39.5489L66.3293 37.9781L74.9999 39.5477Z" fill="#634B1E"/>
<path d="M66.2944 38.6643L74.9998 39.5477V21.7404L66.2944 17.3197L65.626 18.0526V37.9065L66.2944 38.6643Z" fill="#D9A740"/>
<path d="M50.1899 21.7301L66.2944 17.304V38.6643L50.1899 39.5489V21.7301Z" fill="#886A2A"/>
<path d="M13 39.5477L28.0524 40.181L37.8099 39.5489L21.7166 37.7986L13 39.5477Z" fill="#634B1E"/>
<path d="M21.7054 38.6643L13 39.5214V21.6603L21.7054 17.2469L22.1062 18.0071V37.9971L21.7054 38.6643Z" fill="#886A2A"/>
<path d="M37.8098 21.7301L21.7053 17.304V38.6643L37.8098 39.5489V21.7301Z" fill="#D9A740"/>
<path d="M74.9999 48.7565L59.9474 48.123L50.1899 48.7553L66.2591 50.4048L74.9999 48.7565Z" fill="#FAD791"/>
<path d="M66.2944 49.6399L74.9998 48.7565V66.5635L66.2944 70.9842L65.8372 69.9732V50.5484L66.2944 49.6399Z" fill="#D9A740"/>
<path d="M50.1899 66.5741L66.2944 71.0002V49.6399L50.1899 48.7552V66.5741Z" fill="#886A2A"/>
<path d="M13 48.7565L28.0524 48.123L37.8099 48.7553L21.6001 50.5477L13 48.7565Z" fill="#FAD791"/>
<path d="M21.7054 49.6399L13 48.7565V66.5635L21.7054 70.9842L22.2332 70.1874V50.5476L21.7054 49.6399Z" fill="#886A2A"/>
<path d="M37.8098 66.5741L21.7053 71.0002V49.6399L37.8098 48.7552V66.5741Z" fill="#D9A740"/>
<path d="M36.1418 32.068L44.1258 30.6462L60.0651 32.9381L61.4381 33.7401L53.6963 34.6004L36.1418 32.068Z" fill="#634B1E"/>
<path d="M51.8583 32.068L43.8743 30.6462L27.2486 33.266L26.562 33.7401L34.3038 34.6004L51.8583 32.068Z" fill="#634B1E"/>
<path d="M36.1418 56.2362L44.1258 57.658L60.0249 55.4003L61.4381 54.5641L53.6963 53.7038L36.1418 56.2362Z" fill="#FAD791"/>
<path d="M51.8583 56.2362L43.8743 57.658L27.1275 55.2362L26.562 54.5641L34.3038 53.7038L51.8583 56.2362Z" fill="#FAD791"/>
<path d="M61.438 33.7401V24.9388L53.2731 22.2274V10.7077L44 6V6.00025L43.6132 6.62566L43.5427 81.0431L44 82L53.2731 77.2923V66.0768L61.438 63.3654V54.5641L53.2731 56.0237V32.2805L61.438 33.7401Z" fill="#D9A740"/>
<path d="M34.7269 10.7077V22.2274L26.562 24.9388V33.7401L34.7269 32.2805V56.0237L26.562 54.5641V63.3654L34.7269 66.0768V77.2923L44 82V6L34.7269 10.7077Z" fill="#886A2A"/>
</svg>
