<svg width="90" height="88" viewBox="0 0 90 88" fill="none" xmlns="http://www.w3.org/2000/svg">
<path d="M24.7987 63.4425C25.0748 63.4473 25.3025 63.2273 25.3073 62.9512L25.3473 60.6452L26.9155 61.2711C27.172 61.3734 27.4629 61.2485 27.5652 60.992L32.2388 62.8569C32.1365 63.1134 32.2614 63.4043 32.5179 63.5067L34.4441 64.2753V67.0824C34.4441 67.3586 34.668 67.5824 34.9441 67.5824V74.4472C34.668 74.4472 34.4441 74.6711 34.4441 74.9472V77.3266L32.8522 76.6255C32.5995 76.5142 32.3044 76.6288 32.1931 76.8816L27.3746 74.7595C27.4859 74.5068 27.3712 74.2117 27.1185 74.1004L25.1292 73.2243L25.176 70.5265C25.1808 70.2504 24.9608 70.0227 24.6847 70.0179L24.7987 63.4425ZM43.5309 60.8795C43.6292 61.1376 43.918 61.2671 44.1761 61.1689L45.5708 60.6378V62.8267C45.5708 63.1029 45.7946 63.3267 46.0708 63.3267V69.6125C45.7946 69.6125 45.5708 69.8364 45.5708 70.1125V72.6903L43.81 73.4053C43.5542 73.5092 43.431 73.8008 43.5349 74.0567L39.2799 75.7847C39.176 75.5288 38.8843 75.4056 38.6285 75.5096L37.244 76.0718V73.8477C37.244 73.5715 37.0201 73.3477 36.744 73.3477V66.9305C37.0201 66.9305 37.244 66.7067 37.244 66.4305V63.8083L38.9945 63.1418C39.2526 63.0435 39.3822 62.7547 39.2839 62.4966L43.5309 60.8795ZM64.7336 23.2589C64.8419 23.513 65.1356 23.6311 65.3896 23.5229L66.5453 23.0303L66.5453 25.1988C66.5453 25.475 66.7692 25.6988 67.0453 25.6988L67.0454 32.0116C66.7692 32.0116 66.5454 32.2354 66.5454 32.5116L66.5454 35.1147L64.9867 35.8232C64.7353 35.9374 64.6242 36.2339 64.7385 36.4853L61.0194 38.1757C60.9052 37.9243 60.6087 37.8132 60.3574 37.9274L59.2125 38.4478V36.2467C59.2125 35.9706 58.9886 35.7467 58.7125 35.7467V29.3027C58.9886 29.3027 59.2125 29.0788 59.2125 28.8027V26.1555L60.7603 25.4959C61.0143 25.3876 61.1325 25.0939 61.0242 24.8399L64.7336 23.2589ZM31.9074 41.4368C32.0056 41.6948 32.2945 41.8244 32.5526 41.7261L33.9473 41.1951V43.384C33.9473 43.6601 34.1711 43.884 34.4473 43.884V50.1697C34.1711 50.1697 33.9473 50.3936 33.9473 50.6697V53.2474L32.1865 53.9625C31.9307 54.0664 31.8075 54.358 31.9114 54.6139L27.6564 56.3418C27.5525 56.086 27.2609 55.9628 27.005 56.0667L25.6205 56.629V54.4048C25.6205 54.1287 25.3967 53.9048 25.1205 53.9048V47.4878C25.3967 47.4878 25.6205 47.2639 25.6205 46.9878V44.3656L27.3711 43.699C27.6291 43.6008 27.7587 43.3119 27.6604 43.0538L31.9074 41.4368ZM54.6333 40.9338C54.7315 41.1919 55.0204 41.3214 55.2785 41.2231L56.6732 40.6921V42.881C56.6732 43.1571 56.897 43.381 57.1732 43.381V49.6668C56.897 49.6668 56.6732 49.8906 56.6732 50.1668V52.7445L54.9124 53.4595C54.6566 53.5634 54.5334 53.855 54.6373 54.1109L50.3823 55.8389C50.2784 55.583 49.9868 55.4599 49.7309 55.5638L48.3464 56.126V53.9019C48.3464 53.6257 48.1226 53.4019 47.8464 53.4019V46.9848C48.1226 46.9848 48.3464 46.7609 48.3464 46.4848V43.8626L50.097 43.1961C50.355 43.0978 50.4846 42.8089 50.3863 42.5509L54.6333 40.9338ZM87.4601 22.2454C87.5584 22.5035 87.8473 22.633 88.1053 22.5348L89.5 22.0037V24.1926C89.5 24.4688 89.7239 24.6926 90 24.6926V30.9784C89.7239 30.9784 89.5 31.2023 89.5 31.4784V34.0561L87.7393 34.7712C87.4834 34.8751 87.3602 35.1667 87.4641 35.4225L83.2091 37.1505C83.1052 36.8947 82.8136 36.7715 82.5578 36.8754L81.1733 37.4376V35.2135C81.1733 34.9374 80.9494 34.7135 80.6733 34.7135V28.2965C80.9494 28.2965 81.1733 28.0726 81.1733 27.7965V25.1743L82.9238 24.5077C83.1819 24.4095 83.3114 24.1206 83.2132 23.8625L87.4601 22.2454Z" fill="#F7F7FE" stroke="black" stroke-linecap="round" stroke-linejoin="round" stroke-dasharray="8 10"/>
<path d="M28.4654 52.1248L21.4112 55.1549L27.9442 57.9487L35.5195 55.1549L28.4654 52.1248ZM17.8599 55.9124L17.6235 69.548L27.9441 74.0931V59.9365L17.8599 55.9124ZM39.0708 55.9124L29.744 59.4637V72.8145L39.0708 69.0269V55.9124ZM50.1974 13.4907L43.0947 16.5209L49.6761 19.3146L57.2514 16.5209L50.1974 13.4907ZM40.3495 17.5163V31.1518L49.155 33.7092L49.4398 21.3038L40.3495 17.5163ZM60.0453 18.2737L51.7125 21.8251V35.2243L60.0454 31.4367V18.2737H60.0453ZM16.8418 32.682L9.78765 35.7121L16.3206 38.506L23.8959 35.7121L16.8418 32.682ZM6.23637 36.4697L6 50.1053L16.3206 54.6504V40.4937L6.23637 36.4697ZM27.4473 36.4697L18.1205 40.0209V53.3717L27.4473 49.584V36.4697ZM39.5677 32.179L32.5136 35.2091L39.0466 38.0029L46.6219 35.2091L39.5677 32.179ZM28.9623 35.9667L28.7259 49.6022L39.0465 54.1474V39.9922L28.9623 35.9667ZM50.1732 35.9667L40.8464 39.518V52.8687L50.1732 49.0811V35.9667ZM72.3946 13.4907L65.3405 16.5208L71.8735 19.3146L79.4487 16.5208L72.3946 13.4907ZM61.7891 17.2783L61.5528 30.9139L71.8734 35.4591V21.3038L61.7891 17.2783ZM83 17.2783L73.6733 20.8296V34.1804L83 30.3927V17.2783Z" fill="#F7A80D"/>
</svg>
