<svg width="88" height="88" viewBox="0 0 88 88" fill="none" xmlns="http://www.w3.org/2000/svg">
<mask id="path-1-inside-1" fill="white">
<path fill-rule="evenodd" clip-rule="evenodd" d="M39.5054 12V12.0012L31.6833 15.9122V25.2433L28.3856 24.5017L28.3846 24.5004L22.7161 26.6688V63.251L16.0016 64.238V64.2381V71.1367L49.5372 87.9045L83.0912 71.1285L83.0912 64.2317L73.667 62.8472L73.6671 52.802H66.31V22.4476L39.5054 12Z"/>
</mask>
<path fill-rule="evenodd" clip-rule="evenodd" d="M39.5054 12V12.0012L31.6833 15.9122V25.2433L28.3856 24.5017L28.3846 24.5004L22.7161 26.6688V63.251L16.0016 64.238V64.2381V71.1367L49.5372 87.9045L83.0912 71.1285L83.0912 64.2317L73.667 62.8472L73.6671 52.802H66.31V22.4476L39.5054 12Z" fill="#F7F7FE"/>
<path d="M39.5054 12.0012L39.729 12.4484C39.8984 12.3637 40.0054 12.1905 40.0054 12.0012H39.5054ZM39.5054 12L39.687 11.5341C39.5331 11.4741 39.3596 11.494 39.2232 11.5872C39.0869 11.6804 39.0054 11.8348 39.0054 12H39.5054ZM31.6833 15.9122L31.4597 15.4649C31.2904 15.5496 31.1833 15.7228 31.1833 15.9122H31.6833ZM31.6833 25.2433L31.5736 25.7311C31.7218 25.7644 31.8771 25.7286 31.9957 25.6337C32.1143 25.5388 32.1833 25.3952 32.1833 25.2433H31.6833ZM28.3856 24.5017L27.988 24.8048C28.0592 24.8983 28.1612 24.9637 28.2759 24.9895L28.3856 24.5017ZM28.3846 24.5004L28.7822 24.1973C28.6478 24.0209 28.4132 23.9542 28.206 24.0334L28.3846 24.5004ZM22.7161 26.6688L22.5374 26.2018C22.3439 26.2758 22.2161 26.4616 22.2161 26.6688H22.7161ZM22.7161 63.251L22.7888 63.7457C23.0342 63.7096 23.2161 63.4991 23.2161 63.251H22.7161ZM16.0016 64.238L15.9289 63.7433C15.6835 63.7794 15.5016 63.9899 15.5016 64.238H16.0016ZM16.0016 71.1367H15.5016C15.5016 71.3261 15.6086 71.4992 15.778 71.5839L16.0016 71.1367ZM49.5372 87.9045L49.3136 88.3517C49.4544 88.4221 49.6201 88.4221 49.7608 88.3517L49.5372 87.9045ZM83.0912 71.1285L83.3148 71.5757C83.4842 71.491 83.5912 71.3179 83.5912 71.1285H83.0912ZM83.0912 64.2317H83.5912C83.5912 63.9836 83.4093 63.773 83.1639 63.737L83.0912 64.2317ZM73.667 62.8472H73.167C73.167 63.0953 73.3489 63.3059 73.5944 63.3419L73.667 62.8472ZM73.6671 52.802H74.1671C74.1671 52.6694 74.1144 52.5422 74.0206 52.4485C73.9268 52.3547 73.7997 52.302 73.6671 52.302V52.802ZM66.31 52.802H65.81C65.81 53.0782 66.0338 53.302 66.31 53.302V52.802ZM66.31 22.4476H66.81C66.81 22.2415 66.6836 22.0566 66.4916 21.9817L66.31 22.4476ZM37.5435 12.4231C37.2965 12.5465 37.1964 12.8469 37.3199 13.0939C37.4434 13.3409 37.7438 13.441 37.9907 13.3175L37.5435 12.4231ZM33.6452 15.4903C33.8922 15.3668 33.9923 15.0664 33.8688 14.8194C33.7453 14.5724 33.445 14.4723 33.198 14.5958L33.6452 15.4903ZM31.1833 17.9857C31.1833 18.2619 31.4072 18.4857 31.6833 18.4857C31.9595 18.4857 32.1833 18.2619 32.1833 17.9857H31.1833ZM32.1833 23.1697C32.1833 22.8936 31.9595 22.6697 31.6833 22.6697C31.4072 22.6697 31.1833 22.8936 31.1833 23.1697H32.1833ZM31.0602 24.5907C30.7908 24.5301 30.5233 24.6994 30.4627 24.9688C30.4021 25.2382 30.5714 25.5057 30.8408 25.5663L31.0602 24.5907ZM29.0087 25.1543C29.2781 25.2149 29.5456 25.0456 29.6062 24.7762C29.6668 24.5068 29.4975 24.2393 29.2281 24.1787L29.0087 25.1543ZM28.783 24.1982C28.6156 23.9787 28.3018 23.9364 28.0822 24.1038C27.8626 24.2712 27.8203 24.5849 27.9878 24.8045L28.783 24.1982ZM27.9872 24.8039C28.1546 25.0235 28.4684 25.0657 28.688 24.8983C28.9076 24.7309 28.9499 24.4172 28.7825 24.1976L27.9872 24.8039ZM26.9463 24.5153C26.6884 24.6139 26.5593 24.903 26.6579 25.1609C26.7566 25.4188 27.0457 25.5479 27.3036 25.4493L26.9463 24.5153ZM24.1544 26.6539C24.4123 26.5553 24.5414 26.2662 24.4427 26.0083C24.3441 25.7504 24.055 25.6213 23.7971 25.7199L24.1544 26.6539ZM22.2161 30.7335C22.2161 31.0096 22.4399 31.2335 22.7161 31.2335C22.9922 31.2335 23.2161 31.0096 23.2161 30.7335H22.2161ZM23.2161 40.8952C23.2161 40.6191 22.9922 40.3952 22.7161 40.3952C22.4399 40.3952 22.2161 40.6191 22.2161 40.8952H23.2161ZM22.2161 49.0246C22.2161 49.3007 22.4399 49.5246 22.7161 49.5246C22.9922 49.5246 23.2161 49.3007 23.2161 49.0246H22.2161ZM23.2161 59.1863C23.2161 58.9102 22.9922 58.6863 22.7161 58.6863C22.4399 58.6863 22.2161 58.9102 22.2161 59.1863H23.2161ZM21.1512 62.9756C20.878 63.0158 20.6891 63.2698 20.7293 63.543C20.7694 63.8162 21.0235 64.0052 21.2967 63.965L21.1512 62.9756ZM17.5664 64.5133C17.8396 64.4732 18.0285 64.2191 17.9884 63.9459C17.9482 63.6727 17.6942 63.4838 17.421 63.524L17.5664 64.5133ZM15.5016 64.238C15.5016 64.5141 15.7254 64.738 16.0016 64.738C16.2777 64.738 16.5016 64.5141 16.5016 64.238H15.5016ZM16.5016 64.238C16.5016 63.9619 16.2777 63.738 16.0016 63.738C15.7254 63.738 15.5016 63.9619 15.5016 64.238H16.5016ZM15.5016 65.7711C15.5016 66.0472 15.7254 66.2711 16.0016 66.2711C16.2777 66.2711 16.5016 66.0472 16.5016 65.7711H15.5016ZM16.5016 69.6037C16.5016 69.3275 16.2777 69.1037 16.0016 69.1037C15.7254 69.1037 15.5016 69.3275 15.5016 69.6037H16.5016ZM19.5042 73.447C19.7512 73.5705 20.0515 73.4704 20.175 73.2234C20.2985 72.9764 20.1984 72.6761 19.9514 72.5526L19.5042 73.447ZM29.2668 77.2103C29.0198 77.0868 28.7195 77.1869 28.596 77.4339C28.4725 77.6809 28.5726 77.9812 28.8196 78.1047L29.2668 77.2103ZM36.272 81.8309C36.519 81.9544 36.8193 81.8543 36.9428 81.6073C37.0663 81.3603 36.9662 81.06 36.7192 80.9365L36.272 81.8309ZM46.0347 85.5942C45.7877 85.4707 45.4873 85.5708 45.3638 85.8178C45.2403 86.0648 45.3405 86.3651 45.5874 86.4886L46.0347 85.5942ZM53.4891 86.4877C53.736 86.3642 53.8362 86.0639 53.7127 85.8169C53.5892 85.5699 53.2889 85.4698 53.0419 85.5933L53.4891 86.4877ZM62.3624 80.9333C62.1154 81.0568 62.0153 81.3571 62.1388 81.6041C62.2623 81.8511 62.5626 81.9512 62.8096 81.8277L62.3624 80.9333ZM70.2661 78.0997C70.513 77.9762 70.6132 77.6759 70.4897 77.4289C70.3662 77.1819 70.0659 77.0818 69.8189 77.2053L70.2661 78.0997ZM79.1394 72.5453C78.8924 72.6688 78.7923 72.9691 78.9158 73.2161C79.0393 73.4631 79.3396 73.5632 79.5866 73.4397L79.1394 72.5453ZM83.5912 69.5959C83.5912 69.3197 83.3674 69.0959 83.0912 69.0959C82.8151 69.0959 82.5912 69.3197 82.5912 69.5959H83.5912ZM82.5912 65.7643C82.5912 66.0404 82.8151 66.2643 83.0912 66.2643C83.3674 66.2643 83.5912 66.0404 83.5912 65.7643H82.5912ZM81.0696 63.4293C80.7964 63.3892 80.5424 63.5781 80.5023 63.8513C80.4621 64.1246 80.6511 64.3786 80.9243 64.4187L81.0696 63.4293ZM75.6886 63.6496C75.9618 63.6897 76.2159 63.5008 76.256 63.2276C76.2961 62.9544 76.1072 62.7003 75.834 62.6602L75.6886 63.6496ZM74.167 60.615C74.167 60.3388 73.9432 60.115 73.667 60.115C73.3909 60.115 73.167 60.3388 73.167 60.615L74.167 60.615ZM73.167 55.0343C73.167 55.3104 73.3909 55.5343 73.667 55.5343C73.9432 55.5343 74.167 55.3104 74.167 55.0343L73.167 55.0343ZM72.0322 52.302C71.756 52.302 71.5322 52.5259 71.5322 52.802C71.5322 53.0782 71.756 53.302 72.0322 53.302V52.302ZM67.9449 53.302C68.221 53.302 68.4449 53.0782 68.4449 52.802C68.4449 52.5259 68.221 52.302 67.9449 52.302V53.302ZM66.81 49.4293C66.81 49.1532 66.5861 48.9293 66.31 48.9293C66.0338 48.9293 65.81 49.1532 65.81 49.4293H66.81ZM65.81 40.9975C65.81 41.2737 66.0338 41.4975 66.31 41.4975C66.5861 41.4975 66.81 41.2737 66.81 40.9975H65.81ZM66.81 34.2521C66.81 33.976 66.5861 33.7521 66.31 33.7521C66.0338 33.7521 65.81 33.976 65.81 34.2521H66.81ZM65.81 25.8203C65.81 26.0965 66.0338 26.3203 66.31 26.3203C66.5861 26.3203 66.81 26.0965 66.81 25.8203H65.81ZM63.5133 20.8209C63.256 20.7206 62.9661 20.8479 62.8658 21.1052C62.7655 21.3625 62.8928 21.6523 63.1501 21.7526L63.5133 20.8209ZM55.7044 18.8505C55.9617 18.9508 56.2515 18.8235 56.3518 18.5662C56.4521 18.3089 56.3248 18.0191 56.0675 17.9188L55.7044 18.8505ZM50.111 15.5971C49.8537 15.4968 49.5638 15.6241 49.4635 15.8814C49.3632 16.1386 49.4905 16.4285 49.7478 16.5288L50.111 15.5971ZM42.3021 13.6267C42.5594 13.727 42.8492 13.5997 42.9495 13.3424C43.0498 13.0851 42.9225 12.7952 42.6652 12.695L42.3021 13.6267ZM39.0054 12.0002C39.0054 12.2764 39.2292 12.5002 39.5054 12.5002C39.7815 12.5002 40.0054 12.2764 40.0054 12.0002H39.0054ZM40.0054 12.0009C40.0054 11.7248 39.7815 11.5009 39.5054 11.5009C39.2292 11.5009 39.0054 11.7248 39.0054 12.0009H40.0054ZM39.2818 11.5539L37.5435 12.4231L37.9907 13.3175L39.729 12.4484L39.2818 11.5539ZM33.198 14.5958L31.4597 15.4649L31.907 16.3594L33.6452 15.4903L33.198 14.5958ZM31.1833 15.9122V17.9857H32.1833V15.9122H31.1833ZM31.1833 23.1697V25.2433H32.1833V23.1697H31.1833ZM31.7931 24.7555L31.0602 24.5907L30.8408 25.5663L31.5736 25.7311L31.7931 24.7555ZM29.2281 24.1787L28.4953 24.0139L28.2759 24.9895L29.0087 25.1543L29.2281 24.1787ZM28.7832 24.1985L28.783 24.1982L27.9878 24.8045L27.988 24.8048L28.7832 24.1985ZM28.7825 24.1976L28.7822 24.1973L27.987 24.8036L27.9872 24.8039L28.7825 24.1976ZM28.206 24.0334L26.9463 24.5153L27.3036 25.4493L28.5633 24.9674L28.206 24.0334ZM23.7971 25.7199L22.5374 26.2018L22.8947 27.1358L24.1544 26.6539L23.7971 25.7199ZM22.2161 26.6688V30.7335H23.2161V26.6688H22.2161ZM22.2161 40.8952V49.0246H23.2161V40.8952H22.2161ZM22.2161 59.1863V63.251H23.2161V59.1863H22.2161ZM22.6434 62.7563L21.1512 62.9756L21.2967 63.965L22.7888 63.7457L22.6434 62.7563ZM17.421 63.524L15.9289 63.7433L16.0743 64.7326L17.5664 64.5133L17.421 63.524ZM15.5016 64.238V64.238H16.5016V64.238H15.5016ZM15.5016 64.238V64.2381H16.5016V64.238H15.5016ZM15.5016 64.2381V65.7711H16.5016V64.2381H15.5016ZM15.5016 69.6037V71.1367H16.5016V69.6037H15.5016ZM15.778 71.5839L19.5042 73.447L19.9514 72.5526L16.2252 70.6895L15.778 71.5839ZM28.8196 78.1047L36.272 81.8309L36.7192 80.9365L29.2668 77.2103L28.8196 78.1047ZM45.5874 86.4886L49.3136 88.3517L49.7608 87.4573L46.0347 85.5942L45.5874 86.4886ZM49.7608 88.3517L53.4891 86.4877L53.0419 85.5933L49.3136 87.4573L49.7608 88.3517ZM62.8096 81.8277L70.2661 78.0997L69.8189 77.2053L62.3624 80.9333L62.8096 81.8277ZM79.5866 73.4397L83.3148 71.5757L82.8676 70.6813L79.1394 72.5453L79.5866 73.4397ZM83.5912 71.1285V69.5959H82.5912V71.1285H83.5912ZM83.5912 65.7643V64.2317H82.5912V65.7643H83.5912ZM83.1639 63.737L81.0696 63.4293L80.9243 64.4187L83.0186 64.7264L83.1639 63.737ZM75.834 62.6602L73.7397 62.3526L73.5944 63.3419L75.6886 63.6496L75.834 62.6602ZM74.167 62.8472L74.167 60.615L73.167 60.615L73.167 62.8472H74.167ZM74.167 55.0343L74.1671 52.802H73.1671L73.167 55.0343L74.167 55.0343ZM73.6671 52.302H72.0322V53.302H73.6671V52.302ZM67.9449 52.302H66.31V53.302H67.9449V52.302ZM66.81 52.802V49.4293H65.81V52.802H66.81ZM66.81 40.9975V34.2521H65.81V40.9975H66.81ZM66.81 25.8203V22.4476H65.81V25.8203H66.81ZM66.4916 21.9817L63.5133 20.8209L63.1501 21.7526L66.1284 22.9135L66.4916 21.9817ZM56.0675 17.9188L50.111 15.5971L49.7478 16.5288L55.7044 18.8505L56.0675 17.9188ZM42.6652 12.695L39.687 11.5341L39.3238 12.4658L42.3021 13.6267L42.6652 12.695ZM39.0054 12V12.0002H40.0054V12H39.0054ZM39.0054 12.0009V12.0012H40.0054V12.0009H39.0054ZM39.5054 12.0012L39.9526 12.8956C40.2914 12.7262 40.5054 12.3799 40.5054 12.0012H39.5054ZM39.5054 12L39.8685 11.0682C39.5608 10.9483 39.2137 10.988 38.9411 11.1744C38.6684 11.3608 38.5054 11.6697 38.5054 12H39.5054ZM31.6833 15.9122L31.2361 15.0177C30.8974 15.1871 30.6833 15.5334 30.6833 15.9122H31.6833ZM31.6833 25.2433L31.4639 26.2189C31.7603 26.2856 32.0709 26.2139 32.3081 26.0241C32.5453 25.8344 32.6833 25.5471 32.6833 25.2433H31.6833ZM28.3856 24.5017L27.5903 25.108C27.7329 25.295 27.9368 25.4257 28.1662 25.4773L28.3856 24.5017ZM28.3846 24.5004L29.1799 23.8941C28.9109 23.5414 28.4417 23.4079 28.0274 23.5664L28.3846 24.5004ZM22.7161 26.6688L22.3588 25.7348C21.9717 25.8829 21.7161 26.2544 21.7161 26.6688H22.7161ZM22.7161 63.251L22.8615 64.2404C23.3523 64.1682 23.7161 63.7471 23.7161 63.251H22.7161ZM16.0016 64.238L15.8562 63.2486C15.3653 63.3207 15.0016 63.7418 15.0016 64.238H16.0016ZM16.0016 71.1367H15.0016C15.0016 71.5155 15.2156 71.8617 15.5544 72.0311L16.0016 71.1367ZM49.5372 87.9045L49.09 88.7989C49.3715 88.9397 49.7029 88.9397 49.9844 88.7989L49.5372 87.9045ZM83.0912 71.1285L83.5384 72.0229C83.8772 71.8535 84.0912 71.5073 84.0912 71.1285H83.0912ZM83.0912 64.2317H84.0912C84.0912 63.7355 83.7275 63.3144 83.2366 63.2423L83.0912 64.2317ZM73.667 62.8472L72.667 62.8472C72.667 63.3434 73.0308 63.7645 73.5217 63.8366L73.667 62.8472ZM73.6671 52.802L74.6671 52.802C74.6671 52.5368 74.5617 52.2825 74.3742 52.0949C74.1866 51.9074 73.9323 51.802 73.6671 51.802V52.802ZM66.31 52.802H65.31C65.31 53.3543 65.7577 53.802 66.31 53.802V52.802ZM66.31 22.4476H67.31C67.31 22.0355 67.0571 21.6655 66.6731 21.5159L66.31 22.4476ZM37.3199 11.9758C36.826 12.2228 36.6257 12.8235 36.8727 13.3175C37.1197 13.8115 37.7204 14.0117 38.2144 13.7647L37.3199 11.9758ZM33.8688 15.9375C34.3628 15.6905 34.563 15.0898 34.316 14.5958C34.069 14.1019 33.4683 13.9016 32.9744 14.1486L33.8688 15.9375ZM30.6833 17.9857C30.6833 18.538 31.1311 18.9857 31.6833 18.9857C32.2356 18.9857 32.6833 18.538 32.6833 17.9857H30.6833ZM32.6833 23.1697C32.6833 22.6174 32.2356 22.1697 31.6833 22.1697C31.1311 22.1697 30.6833 22.6174 30.6833 23.1697H32.6833ZM31.1699 24.1029C30.6311 23.9817 30.0961 24.3203 29.9749 24.8591C29.8537 25.3979 30.1923 25.933 30.7311 26.0541L31.1699 24.1029ZM28.899 25.6421C29.4378 25.7633 29.9729 25.4247 30.0941 24.8859C30.2152 24.3471 29.8767 23.812 29.3378 23.6908L28.899 25.6421ZM29.1806 23.8951C28.8458 23.4559 28.2183 23.3713 27.7791 23.7062C27.3399 24.041 27.2553 24.6685 27.5901 25.1077L29.1806 23.8951ZM27.5896 25.107C27.9245 25.5462 28.5519 25.6308 28.9911 25.2959C29.4303 24.9611 29.5149 24.3336 29.1801 23.8944L27.5896 25.107ZM26.7677 24.0483C26.2518 24.2456 25.9936 24.8237 26.1909 25.3396C26.3883 25.8554 26.9664 26.1136 27.4822 25.9163L26.7677 24.0483ZM24.333 27.1209C24.8489 26.9236 25.1071 26.3455 24.9097 25.8297C24.7124 25.3138 24.1343 25.0556 23.6185 25.2529L24.333 27.1209ZM21.7161 30.7335C21.7161 31.2858 22.1638 31.7335 22.7161 31.7335C23.2683 31.7335 23.7161 31.2858 23.7161 30.7335H21.7161ZM23.7161 40.8952C23.7161 40.3429 23.2683 39.8952 22.7161 39.8952C22.1638 39.8952 21.7161 40.3429 21.7161 40.8952H23.7161ZM21.7161 49.0246C21.7161 49.5769 22.1638 50.0246 22.7161 50.0246C23.2683 50.0246 23.7161 49.5769 23.7161 49.0246H21.7161ZM23.7161 59.1863C23.7161 58.634 23.2683 58.1863 22.7161 58.1863C22.1638 58.1863 21.7161 58.634 21.7161 59.1863H23.7161ZM21.0785 62.481C20.5321 62.5613 20.1543 63.0693 20.2346 63.6158C20.3149 64.1622 20.823 64.54 21.3694 64.4597L21.0785 62.481ZM17.6391 65.008C18.1855 64.9277 18.5634 64.4196 18.4831 63.8732C18.4027 63.3268 17.8947 62.949 17.3483 63.0293L17.6391 65.008ZM15.0016 64.238C15.0016 64.7903 15.4493 65.238 16.0016 65.238C16.5539 65.238 17.0016 64.7903 17.0016 64.238H15.0016ZM17.0016 64.238C17.0016 63.6858 16.5539 63.238 16.0016 63.238C15.4493 63.238 15.0016 63.6858 15.0016 64.238H17.0016ZM15.0016 65.7711C15.0016 66.3234 15.4493 66.7711 16.0016 66.7711C16.5539 66.7711 17.0016 66.3234 17.0016 65.7711H15.0016ZM17.0016 69.6037C17.0016 69.0514 16.5539 68.6037 16.0016 68.6037C15.4493 68.6037 15.0016 69.0514 15.0016 69.6037H17.0016ZM19.2806 73.8942C19.7745 74.1412 20.3752 73.941 20.6222 73.447C20.8692 72.953 20.669 72.3524 20.175 72.1054L19.2806 73.8942ZM29.4904 76.7631C28.9965 76.5161 28.3958 76.7163 28.1488 77.2103C27.9018 77.7043 28.102 78.3049 28.596 78.5519L29.4904 76.7631ZM36.0484 82.2781C36.5424 82.5251 37.143 82.3249 37.39 81.8309C37.637 81.3369 37.4368 80.7362 36.9428 80.4893L36.0484 82.2781ZM46.2583 85.147C45.7643 84.9 45.1636 85.1002 44.9166 85.5942C44.6696 86.0882 44.8699 86.6888 45.3638 86.9358L46.2583 85.147ZM53.7127 86.9349C54.2066 86.688 54.4069 86.0873 54.1599 85.5933C53.9129 85.0993 53.3123 84.8991 52.8183 85.146L53.7127 86.9349ZM62.1388 80.4861C61.6448 80.733 61.4446 81.3337 61.6916 81.8277C61.9386 82.3217 62.5392 82.5219 63.0332 82.2749L62.1388 80.4861ZM70.4897 78.5469C70.9836 78.2999 71.1839 77.6993 70.9369 77.2053C70.6899 76.7113 70.0893 76.5111 69.5953 76.758L70.4897 78.5469ZM78.9158 72.0981C78.4218 72.345 78.2216 72.9457 78.4686 73.4397C78.7155 73.9337 79.3162 74.1339 79.8102 73.8869L78.9158 72.0981ZM84.0912 69.5959C84.0912 69.0436 83.6435 68.5959 83.0912 68.5959C82.5389 68.5959 82.0912 69.0436 82.0912 69.5959H84.0912ZM82.0912 65.7643C82.0912 66.3166 82.539 66.7643 83.0912 66.7643C83.6435 66.7643 84.0912 66.3166 84.0912 65.7643H82.0912ZM81.1423 62.9346C80.5959 62.8544 80.0879 63.2323 80.0076 63.7787C79.9273 64.3251 80.3052 64.8331 80.8516 64.9134L81.1423 62.9346ZM75.616 64.1443C76.1624 64.2245 76.6704 63.8467 76.7507 63.3002C76.831 62.7538 76.4531 62.2458 75.9066 62.1655L75.616 64.1443ZM74.667 60.615C74.667 60.0627 74.2193 59.615 73.667 59.615C73.1148 59.615 72.667 60.0627 72.667 60.615L74.667 60.615ZM72.667 55.0343C72.667 55.5866 73.1148 56.0343 73.667 56.0343C74.2193 56.0343 74.667 55.5866 74.667 55.0343L72.667 55.0343ZM72.0322 51.802C71.4799 51.802 71.0322 52.2497 71.0322 52.802C71.0322 53.3543 71.4799 53.802 72.0322 53.802V51.802ZM67.9449 53.802C68.4972 53.802 68.9449 53.3543 68.9449 52.802C68.9449 52.2497 68.4972 51.802 67.9449 51.802V53.802ZM67.31 49.4293C67.31 48.877 66.8623 48.4293 66.31 48.4293C65.7577 48.4293 65.31 48.877 65.31 49.4293H67.31ZM65.31 40.9975C65.31 41.5498 65.7577 41.9975 66.31 41.9975C66.8623 41.9975 67.31 41.5498 67.31 40.9975H65.31ZM67.31 34.2521C67.31 33.6998 66.8623 33.2521 66.31 33.2521C65.7577 33.2521 65.31 33.6998 65.31 34.2521H67.31ZM65.31 25.8203C65.31 26.3726 65.7577 26.8203 66.31 26.8203C66.8623 26.8203 67.31 26.3726 67.31 25.8203H65.31ZM63.6949 20.355C63.1803 20.1545 62.6005 20.409 62.4 20.9236C62.1994 21.4382 62.454 22.0179 62.9685 22.2185L63.6949 20.355ZM55.5228 19.3164C56.0374 19.5169 56.6171 19.2624 56.8177 18.7478C57.0183 18.2332 56.7637 17.6535 56.2491 17.4529L55.5228 19.3164ZM50.2925 15.1312C49.778 14.9306 49.1982 15.1852 48.9977 15.6998C48.7971 16.2144 49.0517 16.7941 49.5662 16.9947L50.2925 15.1312ZM42.1205 14.0925C42.6351 14.2931 43.2148 14.0386 43.4154 13.524C43.616 13.0094 43.3614 12.4297 42.8468 12.2291L42.1205 14.0925ZM38.5054 12.0002C38.5054 12.5525 38.9531 13.0002 39.5054 13.0002C40.0577 13.0002 40.5054 12.5525 40.5054 12.0002H38.5054ZM40.5054 12.0009C40.5054 11.4486 40.0577 11.0009 39.5054 11.0009C38.9531 11.0009 38.5054 11.4486 38.5054 12.0009H40.5054ZM39.0582 11.1067L37.3199 11.9758L38.2144 13.7647L39.9526 12.8956L39.0582 11.1067ZM32.9744 14.1486L31.2361 15.0177L32.1306 16.8066L33.8688 15.9375L32.9744 14.1486ZM30.6833 15.9122V17.9857H32.6833V15.9122H30.6833ZM30.6833 23.1697V25.2433H32.6833V23.1697H30.6833ZM31.9028 24.2677L31.1699 24.1029L30.7311 26.0541L31.4639 26.2189L31.9028 24.2677ZM29.3378 23.6908L28.605 23.526L28.1662 25.4773L28.899 25.6421L29.3378 23.6908ZM29.1808 23.8954L29.1806 23.8951L27.5901 25.1077L27.5903 25.108L29.1808 23.8954ZM29.1801 23.8944L29.1799 23.8941L27.5894 25.1067L27.5896 25.107L29.1801 23.8944ZM28.0274 23.5664L26.7677 24.0483L27.4822 25.9163L28.7419 25.4344L28.0274 23.5664ZM23.6185 25.2529L22.3588 25.7348L23.0733 27.6028L24.333 27.1209L23.6185 25.2529ZM21.7161 26.6688V30.7335H23.7161V26.6688H21.7161ZM21.7161 40.8952V49.0246H23.7161V40.8952H21.7161ZM21.7161 59.1863V63.251H23.7161V59.1863H21.7161ZM22.5706 62.2616L21.0785 62.481L21.3694 64.4597L22.8615 64.2404L22.5706 62.2616ZM17.3483 63.0293L15.8562 63.2486L16.147 65.2273L17.6391 65.008L17.3483 63.0293ZM15.0016 64.238V64.238H17.0016V64.238H15.0016ZM15.0016 64.238V64.2381H17.0016V64.238H15.0016ZM15.0016 64.2381V65.7711H17.0016V64.2381H15.0016ZM15.0016 69.6037V71.1367H17.0016V69.6037H15.0016ZM15.5544 72.0311L19.2806 73.8942L20.175 72.1054L16.4488 70.2423L15.5544 72.0311ZM28.596 78.5519L36.0484 82.2781L36.9428 80.4893L29.4904 76.7631L28.596 78.5519ZM45.3638 86.9358L49.09 88.7989L49.9845 87.0101L46.2583 85.147L45.3638 86.9358ZM49.9844 88.7989L53.7127 86.9349L52.8183 85.146L49.09 87.01L49.9844 88.7989ZM63.0332 82.2749L70.4897 78.5469L69.5953 76.758L62.1388 80.4861L63.0332 82.2749ZM79.8102 73.8869L83.5384 72.0229L82.644 70.2341L78.9158 72.0981L79.8102 73.8869ZM84.0912 71.1285V69.5959H82.0912V71.1285H84.0912ZM84.0912 65.7643V64.2317H82.0912V65.7643H84.0912ZM83.2366 63.2423L81.1423 62.9346L80.8516 64.9134L82.9459 65.2211L83.2366 63.2423ZM75.9066 62.1655L73.8124 61.8579L73.5217 63.8366L75.616 64.1443L75.9066 62.1655ZM74.667 62.8472L74.667 60.615L72.667 60.615L72.667 62.8472L74.667 62.8472ZM74.667 55.0343L74.6671 52.802L72.6671 52.802L72.667 55.0343L74.667 55.0343ZM73.6671 51.802H72.0322V53.802H73.6671V51.802ZM67.9449 51.802H66.31V53.802H67.9449V51.802ZM67.31 52.802V49.4293H65.31V52.802H67.31ZM67.31 40.9975V34.2521H65.31V40.9975H67.31ZM67.31 25.8203V22.4476H65.31V25.8203H67.31ZM66.6731 21.5159L63.6949 20.355L62.9685 22.2185L65.9468 23.3793L66.6731 21.5159ZM56.2491 17.4529L50.2925 15.1312L49.5662 16.9947L55.5228 19.3164L56.2491 17.4529ZM42.8468 12.2291L39.8685 11.0682L39.1422 12.9317L42.1205 14.0925L42.8468 12.2291ZM38.5054 12V12.0002H40.5054V12H38.5054ZM38.5054 12.0009V12.0012H40.5054V12.0009H38.5054Z" fill="black" mask="url(#path-1-inside-1)"/>
<path d="M72.0912 58.2317L38.5577 53.3055L5.00159 58.238L38.549 70.6703L72.0912 58.2317Z" fill="#B7CA9D"/>
<path d="M11.7161 57.6573L17.3846 59.4291L17.9012 58.8426V19.1779L17.3846 18.5004L11.7161 20.6688V57.6573Z" fill="#4B612C"/>
<path d="M37.4541 55.9039L17.3846 59.429V18.5015L37.4541 23.0148V55.9039Z" fill="#759C3E"/>
<path d="M28.5056 62.8399L20.6833 60.4286V9.91215L28.5056 6.00104L29.1901 6.74662V62.006L28.5056 62.8399Z" fill="#4B612C"/>
<path d="M55.31 56.5514L28.5054 62.8398V5.99997L55.31 16.4476V56.5514Z" fill="#759C3E"/>
<path d="M38.5372 70.1319L5.00159 58.2381V65.1367L38.5372 81.9045V70.1319Z" fill="#4B612C"/>
<path d="M72.0912 65.1285L38.5372 81.9045V70.1319L72.0912 58.2317V65.1285Z" fill="#759C3E"/>
<path d="M62.6671 46.802H54.5361L31.3573 48.3812L38.5464 49.7065L62.6671 46.802Z" fill="#B7CA9D"/>
<path d="M31.3573 63.6305L38.5433 65.7863L38.75 65.5638L38.744 49.3551L38.5372 49.1565L31.3573 48.3813V63.6305Z" fill="#4B612C"/>
<path d="M62.667 46.802L38.5372 49.1554L38.5433 65.7863L62.667 58.5241V46.802Z" fill="#759C3E"/>
</svg>
