<svg width="88" height="88" viewBox="0 0 88 88" fill="none" xmlns="http://www.w3.org/2000/svg">
<mask id="path-1-inside-1" fill="white">
<path fill-rule="evenodd" clip-rule="evenodd" d="M48.1777 12.0001L17 27.7372L17.0149 72.2711L48.1777 88H48.1779L48.1779 87.9999L79.4158 72.2721L79.4307 27.7384L48.1779 12.0001L48.1779 12H48.1777V12.0001ZM57.3685 65.6888V34.4763L66.7241 36.6568L66.7343 36.6563L66.7239 36.6577V63.3411L57.3685 65.6888ZM21.0217 35.4376L21.0218 35.4376L21.0217 35.4377L21.0217 35.4377L21.0217 35.4378V35.4376ZM29.7057 63.3411L39.061 65.6888V34.4764L29.7057 36.6568L29.7041 36.6565L29.7057 36.6577L29.7057 63.3411Z"/>
</mask>
<path fill-rule="evenodd" clip-rule="evenodd" d="M48.1777 12.0001L17 27.7372L17.0149 72.2711L48.1777 88H48.1779L48.1779 87.9999L79.4158 72.2721L79.4307 27.7384L48.1779 12.0001L48.1779 12H48.1777V12.0001ZM57.3685 65.6888V34.4763L66.7241 36.6568L66.7343 36.6563L66.7239 36.6577V63.3411L57.3685 65.6888ZM21.0217 35.4376L21.0218 35.4376L21.0217 35.4377L21.0217 35.4377L21.0217 35.4378V35.4376ZM29.7057 63.3411L39.061 65.6888V34.4764L29.7057 36.6568L29.7041 36.6565L29.7057 36.6577L29.7057 63.3411Z" fill="#F7F7FE"/>
<path d="M17 27.7372L16.7747 27.2908C16.6062 27.3759 16.4999 27.5486 16.5 27.7374L17 27.7372ZM48.1777 12.0001L48.403 12.4464C48.5715 12.3614 48.6777 12.1888 48.6777 12.0001H48.1777ZM17.0149 72.2711L16.5149 72.2713C16.5149 72.4599 16.6212 72.6325 16.7896 72.7175L17.0149 72.2711ZM48.1777 88L47.9524 88.4464C48.0223 88.4816 48.0995 88.5 48.1777 88.5V88ZM48.1779 88V88.5C48.3432 88.5 48.4978 88.4183 48.591 88.2817L48.1779 88ZM48.1779 87.9999L47.9531 87.5533C47.8773 87.5915 47.8126 87.6482 47.7648 87.7182L48.1779 87.9999ZM79.4158 72.2721L79.6407 72.7187C79.8093 72.6337 79.9158 72.4611 79.9158 72.2722L79.4158 72.2721ZM79.4307 27.7384L79.9307 27.7386C79.9308 27.5497 79.8243 27.3768 79.6556 27.2918L79.4307 27.7384ZM48.1779 12.0001L47.7323 12.2268C47.7806 12.3217 47.8579 12.3988 47.953 12.4467L48.1779 12.0001ZM48.1779 12L48.6235 11.7732C48.5382 11.6056 48.366 11.5 48.1779 11.5V12ZM48.1777 12V11.5C47.9016 11.5 47.6777 11.7239 47.6777 12H48.1777ZM57.3685 65.6888H56.8685C56.8685 65.8429 56.9395 65.9883 57.0609 66.0831C57.1824 66.1778 57.3408 66.2113 57.4902 66.1738L57.3685 65.6888ZM57.3685 34.4763L57.482 33.9894C57.3334 33.9547 57.1771 33.9898 57.0576 34.0847C56.9381 34.1795 56.8685 34.3238 56.8685 34.4763H57.3685ZM66.7241 36.6568L66.6106 37.1437C66.6555 37.1542 66.7017 37.1584 66.7478 37.1562L66.7241 36.6568ZM66.7343 36.6563L66.8039 37.1514C67.0684 37.1142 67.257 36.8756 67.2321 36.6096C67.2071 36.3436 66.9775 36.1442 66.7106 36.1568L66.7343 36.6563ZM66.7239 36.6577L66.6544 36.1626C66.4075 36.1973 66.2239 36.4085 66.2239 36.6577H66.7239ZM66.7239 63.3411L66.8457 63.826C67.068 63.7702 67.2239 63.5703 67.2239 63.3411H66.7239ZM21.0218 35.4376L21.4404 35.7109C21.5548 35.5357 21.548 35.3078 21.4233 35.1397C21.2986 34.9716 21.0824 34.899 20.8815 34.9577L21.0218 35.4376ZM21.0217 35.4376L20.8815 34.9577C20.6682 35.02 20.5217 35.2155 20.5217 35.4376H21.0217ZM21.0217 35.4377L20.905 35.9239C21.1106 35.9732 21.3249 35.888 21.4404 35.711L21.0217 35.4377ZM21.0217 35.4377L21.1384 34.9515C20.8722 34.8876 20.6042 35.0496 20.537 35.315L21.0217 35.4377ZM21.0217 35.4378H20.5217C20.5217 35.69 20.7095 35.9028 20.9598 35.934C21.2101 35.9652 21.4445 35.805 21.5064 35.5605L21.0217 35.4378ZM39.061 65.6888L38.9393 66.1737C39.0887 66.2112 39.2471 66.1777 39.3685 66.083C39.49 65.9882 39.561 65.8428 39.561 65.6888H39.061ZM29.7057 63.3411H29.2057C29.2057 63.5703 29.3616 63.7702 29.584 63.826L29.7057 63.3411ZM39.061 34.4764H39.561C39.561 34.3239 39.4913 34.1796 39.3719 34.0848C39.2524 33.9899 39.0961 33.9548 38.9475 33.9895L39.061 34.4764ZM29.7057 36.6568L29.6364 37.1519C29.6973 37.1605 29.7593 37.1577 29.8192 37.1437L29.7057 36.6568ZM29.7041 36.6565L29.7735 36.1614C29.5481 36.1298 29.3299 36.2544 29.2425 36.4644C29.1551 36.6744 29.2205 36.917 29.4016 37.0546L29.7041 36.6565ZM29.7057 36.6577H30.2057C30.2057 36.5015 30.1326 36.3542 30.0082 36.2596L29.7057 36.6577ZM16.5017 32.6856C16.5017 32.9617 16.7257 33.1855 17.0018 33.1854C17.278 33.1853 17.5017 32.9614 17.5017 32.6852L16.5017 32.6856ZM17.5058 45.0558C17.5057 44.7796 17.2818 44.5558 17.0056 44.5559C16.7295 44.556 16.5057 44.78 16.5058 45.0561L17.5058 45.0558ZM16.5091 54.9525C16.5092 55.2287 16.7331 55.4524 17.0093 55.4524C17.2854 55.4523 17.5092 55.2283 17.5091 54.9522L16.5091 54.9525ZM17.5132 67.3227C17.5131 67.0466 17.2892 66.8228 17.0131 66.8229C16.7369 66.823 16.5131 67.0469 16.5132 67.3231L17.5132 67.3227ZM20.2521 74.4651C20.4986 74.5895 20.7994 74.4906 20.9238 74.244C21.0482 73.9975 20.9492 73.6968 20.7027 73.5724L20.2521 74.4651ZM29.3591 77.9415C29.1125 77.8171 28.8118 77.9161 28.6874 78.1626C28.563 78.4091 28.6619 78.7098 28.9085 78.8343L29.3591 77.9415ZM35.8335 82.3296C36.0801 82.454 36.3808 82.355 36.5052 82.1085C36.6296 81.862 36.5307 81.5613 36.2841 81.4368L35.8335 82.3296ZM44.9405 85.806C44.694 85.6815 44.3933 85.7805 44.2688 86.027C44.1444 86.2736 44.2434 86.5743 44.4899 86.6987L44.9405 85.806ZM48.1778 88.5C48.4539 88.5 48.6778 88.2761 48.6778 88C48.6778 87.7239 48.4539 87.5 48.1778 87.5V88.5ZM48.1778 87.5C47.9017 87.5 47.6778 87.7239 47.6778 88C47.6778 88.2761 47.9017 88.5 48.1778 88.5V87.5ZM48.591 88.2816C48.7465 88.0535 48.6877 87.7424 48.4595 87.5869C48.2314 87.4313 47.9203 87.4902 47.7647 87.7183L48.591 88.2816ZM47.7648 87.7183C47.6092 87.9464 47.6681 88.2575 47.8962 88.413C48.1244 88.5686 48.4354 88.5098 48.591 88.2816L47.7648 87.7183ZM51.8736 86.699C52.1203 86.5748 52.2196 86.2742 52.0954 86.0275C51.9712 85.7809 51.6706 85.6816 51.4239 85.8058L51.8736 86.699ZM60.1011 81.4369C59.8545 81.5611 59.7552 81.8617 59.8794 82.1084C60.0036 82.355 60.3042 82.4543 60.5508 82.3301L60.1011 81.4369ZM67.4926 78.835C67.7392 78.7109 67.8385 78.4102 67.7143 78.1636C67.5901 77.917 67.2895 77.8177 67.0429 77.9419L67.4926 78.835ZM75.7201 73.573C75.4734 73.6972 75.3742 73.9978 75.4983 74.2445C75.6225 74.4911 75.9231 74.5904 76.1698 74.4662L75.7201 73.573ZM79.9175 67.3241C79.9176 67.0479 79.6938 66.824 79.4176 66.8239C79.1415 66.8238 78.9176 67.0476 78.9175 67.3237L79.9175 67.3241ZM78.9216 54.9533C78.9215 55.2294 79.1453 55.4533 79.4214 55.4534C79.6976 55.4535 79.9215 55.2297 79.9216 54.9536L78.9216 54.9533ZM79.9249 45.0572C79.925 44.7811 79.7012 44.5572 79.4251 44.5571C79.1489 44.557 78.925 44.7808 78.9249 45.0569L79.9249 45.0572ZM78.929 32.6864C78.9289 32.9626 79.1527 33.1865 79.4289 33.1866C79.705 33.1867 79.9289 32.9629 79.929 32.6868L78.929 32.6864ZM76.183 25.5431C75.9364 25.4189 75.6358 25.5182 75.5116 25.7648C75.3874 26.0115 75.4866 26.3121 75.7333 26.4363L76.183 25.5431ZM67.0519 22.0645C67.2986 22.1887 67.5992 22.0895 67.7234 21.8428C67.8476 21.5962 67.7483 21.2956 67.5017 21.1714L67.0519 22.0645ZM60.5566 17.674C60.31 17.5498 60.0094 17.649 59.8852 17.8957C59.761 18.1423 59.8602 18.4429 60.1069 18.5671L60.5566 17.674ZM51.4255 14.1954C51.6722 14.3196 51.9728 14.2203 52.097 13.9737C52.2212 13.727 52.1219 13.4264 51.8753 13.3022L51.4255 14.1954ZM48.6235 11.7733C48.4983 11.5272 48.1972 11.4292 47.9511 11.5544C47.705 11.6797 47.607 11.9807 47.7323 12.2268L48.6235 11.7733ZM47.7322 12.2268C47.8575 12.4729 48.1585 12.5709 48.4046 12.4456C48.6507 12.3204 48.7487 12.0194 48.6235 11.7733L47.7322 12.2268ZM48.1778 11.5C47.9017 11.5 47.6778 11.7239 47.6778 12C47.6778 12.2761 47.9017 12.5 48.1778 12.5V11.5ZM48.1778 12.5C48.4539 12.5 48.6778 12.2761 48.6778 12C48.6778 11.7239 48.4539 11.5 48.1778 11.5V12.5ZM47.6777 12C47.6777 12.2762 47.9016 12.5 48.1777 12.5C48.4539 12.5 48.6777 12.2762 48.6777 12H47.6777ZM48.6777 12C48.6777 11.7239 48.4539 11.5 48.1777 11.5C47.9016 11.5 47.6777 11.7239 47.6777 12H48.6777ZM44.4882 13.3023C44.2417 13.4267 44.1427 13.7274 44.2672 13.9739C44.3916 14.2205 44.6923 14.3194 44.9388 14.195L44.4882 13.3023ZM36.2784 18.5664C36.5249 18.442 36.6239 18.1413 36.4994 17.8948C36.375 17.6482 36.0743 17.5493 35.8278 17.6737L36.2784 18.5664ZM28.8994 21.1708C28.6529 21.2953 28.5539 21.596 28.6783 21.8425C28.8027 22.089 29.1035 22.188 29.35 22.0636L28.8994 21.1708ZM20.6895 26.435C20.936 26.3106 21.035 26.0098 20.9106 25.7633C20.7861 25.5168 20.4854 25.4178 20.2389 25.5423L20.6895 26.435ZM57.8685 62.2208C57.8685 61.9446 57.6446 61.7208 57.3685 61.7208C57.0923 61.7208 56.8685 61.9446 56.8685 62.2208H57.8685ZM56.8685 53.5506C56.8685 53.8268 57.0923 54.0506 57.3685 54.0506C57.6446 54.0506 57.8685 53.8268 57.8685 53.5506H56.8685ZM57.8685 46.6145C57.8685 46.3384 57.6446 46.1145 57.3685 46.1145C57.0923 46.1145 56.8685 46.3384 56.8685 46.6145H57.8685ZM56.8685 37.9444C56.8685 38.2205 57.0923 38.4444 57.3685 38.4444C57.6446 38.4444 57.8685 38.2205 57.8685 37.9444H56.8685ZM59.334 35.4478C59.6029 35.5105 59.8718 35.3433 59.9344 35.0744C59.9971 34.8054 59.8299 34.5366 59.561 34.4739L59.334 35.4478ZM64.7585 35.6853C64.4896 35.6226 64.2208 35.7898 64.1581 36.0587C64.0954 36.3277 64.2626 36.5965 64.5316 36.6592L64.7585 35.6853ZM66.75 37.1561C67.0259 37.143 67.2389 36.9088 67.2258 36.633C67.2127 36.3571 66.9785 36.1441 66.7026 36.1572L66.75 37.1561ZM66.7083 36.1569C66.4325 36.17 66.2195 36.4042 66.2326 36.6801C66.2457 36.9559 66.4799 37.1689 66.7557 37.1558L66.7083 36.1569ZM66.6624 36.1615C66.389 36.1999 66.1984 36.4527 66.2368 36.7262C66.2753 36.9996 66.5281 37.1902 66.8016 37.1517L66.6624 36.1615ZM66.7958 37.1525C67.0693 37.1141 67.2598 36.8613 67.2214 36.5878C67.183 36.3144 66.9301 36.1238 66.6567 36.1623L66.7958 37.1525ZM66.2239 42.5874C66.2239 42.8635 66.4478 43.0874 66.7239 43.0874C67.0001 43.0874 67.2239 42.8635 67.2239 42.5874H66.2239ZM67.2239 57.4114C67.2239 57.1353 67.0001 56.9114 66.7239 56.9114C66.4478 56.9114 66.2239 57.1353 66.2239 57.4114H67.2239ZM64.5233 63.3778C64.2554 63.445 64.0928 63.7166 64.16 63.9845C64.2272 64.2523 64.4988 64.415 64.7667 64.3477L64.5233 63.3778ZM59.5692 65.6521C59.837 65.5849 59.9996 65.3132 59.9324 65.0454C59.8652 64.7776 59.5936 64.6149 59.3258 64.6821L59.5692 65.6521ZM20.8815 34.9577C20.6165 35.0351 20.4644 35.3128 20.5418 35.5778C20.6192 35.8429 20.8969 35.995 21.1619 35.9176L20.8815 34.9577ZM21.1619 35.9176C21.427 35.8401 21.5791 35.5625 21.5016 35.2974C21.4242 35.0324 21.1465 34.8803 20.8815 34.9577L21.1619 35.9176ZM20.5217 35.4377C20.5217 35.7138 20.7455 35.9377 21.0217 35.9377C21.2978 35.9377 21.5217 35.7138 21.5217 35.4377H20.5217ZM21.5217 35.4378C21.5217 35.1616 21.2978 34.9378 21.0217 34.9378C20.7455 34.9378 20.5217 35.1616 20.5217 35.4378H21.5217ZM21.5064 35.5605C21.5741 35.2928 21.4121 35.0208 21.1444 34.9531C20.8767 34.8853 20.6047 35.0474 20.537 35.3151L21.5064 35.5605ZM20.537 35.315C20.4692 35.5827 20.6313 35.8546 20.899 35.9224C21.1667 35.9902 21.4386 35.8281 21.5064 35.5604L20.537 35.315ZM20.905 35.9238C21.1735 35.9883 21.4435 35.8229 21.5079 35.5543C21.5723 35.2858 21.4069 35.0159 21.1384 34.9515L20.905 35.9238ZM21.1384 34.9515C20.8699 34.887 20.6 35.0525 20.5355 35.321C20.4711 35.5895 20.6365 35.8594 20.905 35.9239L21.1384 34.9515ZM21.4404 35.711C21.5914 35.4797 21.5263 35.1699 21.295 35.019C21.0638 34.868 20.754 34.9331 20.603 35.1643L21.4404 35.711ZM20.6031 35.1643C20.4521 35.3956 20.5172 35.7054 20.7484 35.8563C20.9797 36.0073 21.2895 35.9422 21.4404 35.7109L20.6031 35.1643ZM37.1037 64.6821C36.8359 64.6149 36.5643 64.7775 36.4971 65.0453C36.4299 65.3132 36.5925 65.5848 36.8603 65.652L37.1037 64.6821ZM31.663 64.3477C31.9308 64.4149 32.2024 64.2523 32.2696 63.9845C32.3368 63.7166 32.1742 63.445 31.9064 63.3778L31.663 64.3477ZM30.2057 57.4114C30.2057 57.1353 29.9818 56.9114 29.7057 56.9114C29.4296 56.9114 29.2057 57.1353 29.2057 57.4114H30.2057ZM29.2057 42.5874C29.2057 42.8635 29.4295 43.0874 29.7057 43.0874C29.9818 43.0874 30.2057 42.8635 30.2057 42.5874L29.2057 42.5874ZM30.0078 36.2594C29.788 36.0923 29.4743 36.1351 29.3072 36.355C29.1402 36.5748 29.183 36.8885 29.4028 37.0556L30.0078 36.2594ZM29.402 37.0549C29.6218 37.222 29.9355 37.1792 30.1026 36.9593C30.2696 36.7395 30.2268 36.4258 30.007 36.2587L29.402 37.0549ZM29.6351 37.1518C29.9086 37.1901 30.1613 36.9994 30.1996 36.7259C30.2379 36.4525 30.0473 36.1997 29.7738 36.1614L29.6351 37.1518ZM29.7747 36.1615C29.5012 36.1233 29.2485 36.3139 29.2102 36.5874C29.1719 36.8608 29.3625 37.1136 29.636 37.1519L29.7747 36.1615ZM31.8982 36.6592C32.1671 36.5965 32.3343 36.3277 32.2716 36.0588C32.2089 35.7898 31.9401 35.6226 31.6712 35.6853L31.8982 36.6592ZM36.8686 34.474C36.5996 34.5367 36.4324 34.8055 36.4951 35.0744C36.5578 35.3434 36.8266 35.5106 37.0955 35.4479L36.8686 34.474ZM38.561 37.9445C38.561 38.2206 38.7849 38.4445 39.061 38.4445C39.3371 38.4445 39.561 38.2206 39.561 37.9445H38.561ZM39.561 46.6145C39.561 46.3384 39.3371 46.1145 39.061 46.1145C38.7849 46.1145 38.561 46.3384 38.561 46.6145H39.561ZM38.561 53.5506C38.561 53.8268 38.7849 54.0506 39.061 54.0506C39.3371 54.0506 39.561 53.8268 39.561 53.5506H38.561ZM39.561 62.2207C39.561 61.9446 39.3371 61.7207 39.061 61.7207C38.7849 61.7207 38.561 61.9446 38.561 62.2207H39.561ZM16.5 27.7374L16.5017 32.6856L17.5017 32.6852L17.5 27.737L16.5 27.7374ZM16.5058 45.0561L16.5091 54.9525L17.5091 54.9522L17.5058 45.0558L16.5058 45.0561ZM16.5132 67.3231L16.5149 72.2713L17.5149 72.2709L17.5132 67.3227L16.5132 67.3231ZM16.7896 72.7175L20.2521 74.4651L20.7027 73.5724L17.2402 71.8247L16.7896 72.7175ZM28.9085 78.8343L35.8335 82.3296L36.2841 81.4368L29.3591 77.9415L28.9085 78.8343ZM44.4899 86.6987L47.9524 88.4464L48.403 87.5536L44.9405 85.806L44.4899 86.6987ZM48.1777 88.5H48.1778V87.5H48.1777V88.5ZM48.1778 88.5H48.1779V87.5H48.1778V88.5ZM48.591 88.2817L48.591 88.2816L47.7647 87.7183L47.7647 87.7183L48.591 88.2817ZM48.591 88.2816L48.591 88.2816L47.7648 87.7182L47.7648 87.7183L48.591 88.2816ZM48.4028 88.4465L51.8736 86.699L51.4239 85.8058L47.9531 87.5533L48.4028 88.4465ZM60.5508 82.3301L67.4926 78.835L67.0429 77.9419L60.1011 81.4369L60.5508 82.3301ZM76.1698 74.4662L79.6407 72.7187L79.191 71.8255L75.7201 73.573L76.1698 74.4662ZM79.9158 72.2722L79.9175 67.3241L78.9175 67.3237L78.9158 72.2719L79.9158 72.2722ZM79.9216 54.9536L79.9249 45.0572L78.9249 45.0569L78.9216 54.9533L79.9216 54.9536ZM79.929 32.6868L79.9307 27.7386L78.9307 27.7383L78.929 32.6864L79.929 32.6868ZM79.6556 27.2918L76.183 25.5431L75.7333 26.4363L79.2058 28.185L79.6556 27.2918ZM67.5017 21.1714L60.5566 17.674L60.1069 18.5671L67.0519 22.0645L67.5017 21.1714ZM51.8753 13.3022L48.4028 11.5535L47.953 12.4467L51.4255 14.1954L51.8753 13.3022ZM48.6235 11.7733L48.6235 11.7733L47.7323 12.2268L47.7323 12.2268L48.6235 11.7733ZM48.6235 11.7733L48.6235 11.7732L47.7322 12.2268L47.7322 12.2268L48.6235 11.7733ZM48.1779 11.5H48.1778V12.5H48.1779V11.5ZM48.1778 11.5H48.1777V12.5H48.1778V11.5ZM47.6777 12V12H48.6777V12H47.6777ZM47.6777 12V12.0001H48.6777V12H47.6777ZM47.9524 11.5537L44.4882 13.3023L44.9388 14.195L48.403 12.4464L47.9524 11.5537ZM35.8278 17.6737L28.8994 21.1708L29.35 22.0636L36.2784 18.5664L35.8278 17.6737ZM20.2389 25.5423L16.7747 27.2908L17.2253 28.1836L20.6895 26.435L20.2389 25.5423ZM57.8685 65.6888V62.2208H56.8685V65.6888H57.8685ZM57.8685 53.5506V46.6145H56.8685V53.5506H57.8685ZM57.8685 37.9444V34.4763H56.8685V37.9444H57.8685ZM57.255 34.9633L59.334 35.4478L59.561 34.4739L57.482 33.9894L57.255 34.9633ZM64.5316 36.6592L66.6106 37.1437L66.8376 36.1698L64.7585 35.6853L64.5316 36.6592ZM66.7478 37.1562L66.75 37.1561L66.7026 36.1572L66.7004 36.1573L66.7478 37.1562ZM66.7557 37.1558L66.758 37.1557L66.7106 36.1568L66.7083 36.1569L66.7557 37.1558ZM66.6647 36.1611L66.6624 36.1615L66.8016 37.1517L66.8039 37.1514L66.6647 36.1611ZM66.6567 36.1623L66.6544 36.1626L66.7935 37.1529L66.7958 37.1525L66.6567 36.1623ZM66.2239 36.6577V42.5874H67.2239V36.6577H66.2239ZM66.2239 57.4114V63.3411H67.2239V57.4114H66.2239ZM66.6022 62.8561L64.5233 63.3778L64.7667 64.3477L66.8457 63.826L66.6022 62.8561ZM59.3258 64.6821L57.2468 65.2039L57.4902 66.1738L59.5692 65.6521L59.3258 64.6821ZM20.8815 34.9577L20.8815 34.9577L21.1619 35.9176L21.162 35.9176L20.8815 34.9577ZM20.8815 34.9577L20.8815 34.9577L21.1619 35.9176L21.1619 35.9176L20.8815 34.9577ZM20.5217 35.4376V35.4377H21.5217V35.4376H20.5217ZM20.5217 35.4378V35.4378H21.5217V35.4378H20.5217ZM21.5064 35.5605L21.5064 35.5605L20.537 35.3151L20.537 35.3151L21.5064 35.5605ZM21.5064 35.5604L21.5064 35.5603L20.537 35.315L20.537 35.315L21.5064 35.5604ZM20.905 35.9238L20.905 35.9238L21.1384 34.9515H21.1384L20.905 35.9238ZM20.905 35.9239H20.905L21.1384 34.9515L21.1384 34.9515L20.905 35.9239ZM21.4404 35.711L21.4404 35.711L20.603 35.1643L20.603 35.1643L21.4404 35.711ZM21.4404 35.7109L21.4404 35.7109L20.6031 35.1643L20.6031 35.1643L21.4404 35.7109ZM39.1827 65.2038L37.1037 64.6821L36.8603 65.652L38.9393 66.1737L39.1827 65.2038ZM31.9064 63.3778L29.8274 62.8561L29.584 63.826L31.663 64.3477L31.9064 63.3778ZM30.2057 63.3411L30.2057 57.4114H29.2057L29.2057 63.3411H30.2057ZM30.2057 42.5874L30.2057 36.6577H29.2057L29.2057 42.5874L30.2057 42.5874ZM30.0082 36.2596L30.0078 36.2594L29.4028 37.0556L29.4032 37.0558L30.0082 36.2596ZM30.007 36.2587L30.0066 36.2584L29.4016 37.0546L29.402 37.0549L30.007 36.2587ZM29.6348 37.1517L29.6351 37.1518L29.7738 36.1614L29.7735 36.1614L29.6348 37.1517ZM29.636 37.1519L29.6364 37.1519L29.7751 36.1616L29.7747 36.1615L29.636 37.1519ZM29.8192 37.1437L31.8982 36.6592L31.6712 35.6853L29.5922 36.1698L29.8192 37.1437ZM37.0955 35.4479L39.1745 34.9634L38.9475 33.9895L36.8686 34.474L37.0955 35.4479ZM38.561 34.4764V37.9445H39.561V34.4764H38.561ZM38.561 46.6145V53.5506H39.561V46.6145H38.561ZM38.561 62.2207V65.6888H39.561V62.2207H38.561ZM17 27.7372L16.5494 26.8445C16.2124 27.0146 15.9999 27.36 16 27.7375L17 27.7372ZM48.1777 12.0001L48.6283 12.8928C48.9653 12.7227 49.1777 12.3775 49.1777 12.0001H48.1777ZM17.0149 72.2711L16.0149 72.2714C16.015 72.6487 16.2275 72.9938 16.5643 73.1638L17.0149 72.2711ZM48.1777 88L47.7271 88.8927C47.8669 88.9633 48.0212 89 48.1777 89V88ZM48.1779 88V89C48.5085 89 48.8178 88.8365 49.0041 88.5633L48.1779 88ZM48.1779 87.9999L47.7282 87.1067C47.5768 87.183 47.4472 87.2965 47.3517 87.4366L48.1779 87.9999ZM79.4158 72.2721L79.8655 73.1652C80.2028 72.9954 80.4157 72.6501 80.4158 72.2724L79.4158 72.2721ZM79.4307 27.7384L80.4307 27.7388C80.4308 27.3609 80.2179 27.0152 79.8805 26.8453L79.4307 27.7384ZM48.1779 12.0001L47.2866 12.4536C47.3832 12.6434 47.5379 12.7974 47.7281 12.8932L48.1779 12.0001ZM48.1779 12L49.0691 11.5465C48.8985 11.2112 48.5541 11 48.1779 11V12ZM48.1777 12V11C47.6255 11 47.1777 11.4477 47.1777 12H48.1777ZM57.3685 65.6888H56.3685C56.3685 65.9969 56.5105 66.2878 56.7534 66.4773C56.9963 66.6668 57.3131 66.7337 57.6119 66.6588L57.3685 65.6888ZM57.3685 34.4763L57.5955 33.5024C57.2983 33.4332 56.9858 33.5034 56.7468 33.6931C56.5078 33.8828 56.3685 34.1712 56.3685 34.4763H57.3685ZM66.7241 36.6568L66.4971 37.6307C66.587 37.6516 66.6793 37.66 66.7715 37.6556L66.7241 36.6568ZM66.7343 36.6563L66.8734 37.6466C67.4026 37.5722 67.7798 37.0949 67.7299 36.5629C67.68 36.0309 67.2207 35.6321 66.6869 35.6574L66.7343 36.6563ZM66.7239 36.6577L66.5848 35.6675C66.0911 35.7368 65.7239 36.1592 65.7239 36.6577H66.7239ZM66.7239 63.3411L66.9674 64.311C67.4121 64.1994 67.7239 63.7996 67.7239 63.3411H66.7239ZM21.0218 35.4376L21.8591 35.9842C22.0879 35.6338 22.0742 35.1779 21.8248 34.8418C21.5754 34.5056 21.1431 34.3604 20.7413 34.4777L21.0218 35.4376ZM21.0217 35.4376L20.7413 34.4778C20.3148 34.6024 20.0217 34.9934 20.0217 35.4376H21.0217ZM21.0217 35.4377L20.7884 36.41C21.1994 36.5087 21.628 36.3382 21.8591 35.9843L21.0217 35.4377ZM21.0217 35.4377L21.2551 34.4653C20.7227 34.3375 20.1866 34.6615 20.0523 35.1923L21.0217 35.4377ZM21.0217 35.4378H20.0217C20.0217 35.9423 20.3974 36.3678 20.898 36.4301C21.3986 36.4925 21.8673 36.1722 21.9911 35.6832L21.0217 35.4378ZM39.061 65.6888L38.8176 66.6587C39.1164 66.7337 39.4331 66.6667 39.6761 66.4772C39.919 66.2877 40.061 65.9968 40.061 65.6888H39.061ZM29.7057 63.3411H28.7057C28.7057 63.7996 29.0176 64.1994 29.4623 64.311L29.7057 63.3411ZM39.061 34.4764H40.061C40.061 34.1713 39.9217 33.8829 39.6827 33.6932C39.4437 33.5035 39.1312 33.4333 38.834 33.5025L39.061 34.4764ZM29.7057 36.6568L29.567 37.6471C29.6889 37.6642 29.8128 37.6586 29.9327 37.6307L29.7057 36.6568ZM29.7041 36.6565L29.8428 35.6662C29.3922 35.6031 28.9558 35.8522 28.7809 36.2722C28.606 36.6923 28.7368 37.1775 29.0991 37.4528L29.7041 36.6565ZM29.7057 36.6577H30.7057C30.7057 36.3452 30.5596 36.0506 30.3107 35.8615L29.7057 36.6577ZM16.0017 32.6857C16.0018 33.238 16.4497 33.6856 17.002 33.6854C17.5543 33.6852 18.0018 33.2374 18.0017 32.6851L16.0017 32.6857ZM18.0058 45.0556C18.0056 44.5033 17.5577 44.0558 17.0055 44.0559C16.4532 44.0561 16.0056 44.504 16.0058 45.0563L18.0058 45.0556ZM16.0091 54.9527C16.0093 55.505 16.4571 55.9525 17.0094 55.9524C17.5617 55.9522 18.0093 55.5043 18.0091 54.952L16.0091 54.9527ZM18.0132 67.3226C18.013 66.7703 17.5652 66.3227 17.0129 66.3229C16.4606 66.3231 16.013 66.7709 16.0132 67.3232L18.0132 67.3226ZM20.0268 74.9115C20.5199 75.1603 21.1213 74.9624 21.3701 74.4693C21.619 73.9763 21.421 73.3749 20.928 73.126L20.0268 74.9115ZM29.5844 77.4952C29.0913 77.2463 28.4899 77.4443 28.241 77.9373C27.9922 78.4303 28.1901 79.0318 28.6832 79.2806L29.5844 77.4952ZM35.6083 82.7759C36.1013 83.0248 36.7027 82.8268 36.9516 82.3338C37.2004 81.8408 37.0025 81.2393 36.5094 80.9905L35.6083 82.7759ZM45.1658 85.3596C44.6727 85.1108 44.0713 85.3087 43.8225 85.8018C43.5736 86.2948 43.7716 86.8962 44.2646 87.1451L45.1658 85.3596ZM48.1778 89C48.73 89 49.1778 88.5523 49.1778 88C49.1778 87.4477 48.73 87 48.1778 87V89ZM48.1778 87C47.6255 87 47.1778 87.4477 47.1778 88C47.1778 88.5523 47.6255 89 48.1778 89V87ZM49.0041 88.5633C49.3152 88.107 49.1975 87.4849 48.7412 87.1738C48.2849 86.8626 47.6628 86.9803 47.3516 87.4366L49.0041 88.5633ZM47.3517 87.4366C47.0405 87.8929 47.1582 88.515 47.6146 88.8262C48.0709 89.1373 48.693 89.0196 49.0041 88.5633L47.3517 87.4366ZM52.0985 87.1456C52.5918 86.8972 52.7903 86.296 52.542 85.8027C52.2936 85.3094 51.6924 85.1108 51.1991 85.3592L52.0985 87.1456ZM59.8763 80.9904C59.383 81.2387 59.1844 81.8399 59.4328 82.3332C59.6812 82.8265 60.2824 83.0251 60.7757 82.7767L59.8763 80.9904ZM67.7174 79.2816C68.2107 79.0333 68.4093 78.432 68.1609 77.9388C67.9126 77.4455 67.3113 77.2469 66.818 77.4953L67.7174 79.2816ZM75.4952 73.1264C75.0019 73.3748 74.8034 73.976 75.0518 74.4693C75.3001 74.9626 75.9014 75.1612 76.3946 74.9128L75.4952 73.1264ZM80.4175 67.3242C80.4177 66.7719 79.9701 66.3241 79.4178 66.3239C78.8655 66.3237 78.4177 66.7713 78.4175 67.3236L80.4175 67.3242ZM78.4216 54.9531C78.4214 55.5054 78.869 55.9532 79.4213 55.9534C79.9736 55.9536 80.4214 55.506 80.4216 54.9538L78.4216 54.9531ZM80.4249 45.0574C80.4251 44.5051 79.9775 44.0572 79.4252 44.0571C78.873 44.0569 78.4251 44.5044 78.4249 45.0567L80.4249 45.0574ZM78.429 32.6863C78.4289 33.2386 78.8764 33.6864 79.4287 33.6866C79.981 33.6868 80.4289 33.2392 80.429 32.6869L78.429 32.6863ZM76.4079 25.0966C75.9147 24.8482 75.3134 25.0467 75.065 25.5399C74.8166 26.0332 75.0151 26.6345 75.5084 26.8829L76.4079 25.0966ZM66.8271 22.5111C67.3203 22.7595 67.9216 22.561 68.17 22.0677C68.4184 21.5745 68.2199 20.9732 67.7266 20.7248L66.8271 22.5111ZM60.7815 17.2274C60.2883 16.979 59.687 17.1775 59.4386 17.6708C59.1902 18.164 59.3887 18.7653 59.882 19.0137L60.7815 17.2274ZM51.2007 14.6419C51.6939 14.8903 52.2952 14.6918 52.5436 14.1986C52.792 13.7053 52.5935 13.104 52.1002 12.8556L51.2007 14.6419ZM49.0691 11.5466C48.8187 11.0543 48.2166 10.8583 47.7244 11.1088C47.2322 11.3593 47.0362 11.9613 47.2866 12.4536L49.0691 11.5466ZM47.2866 12.4535C47.5371 12.9457 48.1391 13.1417 48.6314 12.8913C49.1236 12.6408 49.3196 12.0387 49.0691 11.5465L47.2866 12.4535ZM48.1778 11C47.6255 11 47.1778 11.4477 47.1778 12C47.1778 12.5523 47.6255 13 48.1778 13V11ZM48.1778 13C48.73 13 49.1778 12.5523 49.1778 12C49.1778 11.4477 48.73 11 48.1778 11V13ZM47.1777 12C47.1777 12.5523 47.6255 13 48.1777 13C48.73 13 49.1777 12.5523 49.1777 12H47.1777ZM49.1777 12C49.1777 11.4478 48.73 11 48.1777 11C47.6255 11 47.1777 11.4478 47.1777 12H49.1777ZM44.2629 12.8559C43.7699 13.1048 43.572 13.7062 43.8208 14.1992C44.0697 14.6923 44.6711 14.8902 45.1641 14.6414L44.2629 12.8559ZM36.5037 19.0128C36.9967 18.7639 37.1946 18.1625 36.9458 17.6695C36.6969 17.1764 36.0955 16.9785 35.6025 17.2273L36.5037 19.0128ZM28.6741 20.7245C28.181 20.9733 27.9831 21.5748 28.232 22.0678C28.4808 22.5608 29.0822 22.7588 29.5753 22.5099L28.6741 20.7245ZM20.9148 26.8813C21.4078 26.6325 21.6058 26.0311 21.3569 25.538C21.1081 25.045 20.5066 24.847 20.0136 25.0959L20.9148 26.8813ZM58.3685 62.2208C58.3685 61.6685 57.9208 61.2208 57.3685 61.2208C56.8162 61.2208 56.3685 61.6685 56.3685 62.2208H58.3685ZM56.3685 53.5506C56.3685 54.1029 56.8162 54.5506 57.3685 54.5506C57.9208 54.5506 58.3685 54.1029 58.3685 53.5506H56.3685ZM58.3685 46.6145C58.3685 46.0622 57.9208 45.6145 57.3685 45.6145C56.8162 45.6145 56.3685 46.0622 56.3685 46.6145H58.3685ZM56.3685 37.9444C56.3685 38.4967 56.8162 38.9444 57.3685 38.9444C57.9208 38.9444 58.3685 38.4967 58.3685 37.9444H56.3685ZM59.2205 35.9348C59.7584 36.0601 60.296 35.7257 60.4214 35.1878C60.5468 34.65 60.2123 34.1123 59.6745 33.987L59.2205 35.9348ZM64.872 35.1983C64.3342 35.073 63.7965 35.4074 63.6712 35.9452C63.5458 36.4831 63.8802 37.0208 64.4181 37.1461L64.872 35.1983ZM66.7737 37.6555C67.3254 37.6294 67.7514 37.1609 67.7252 36.6093C67.699 36.0576 67.2306 35.6316 66.6789 35.6578L66.7737 37.6555ZM66.6846 35.6575C66.133 35.6837 65.707 36.1521 65.7331 36.7038C65.7593 37.2554 66.2277 37.6814 66.7794 37.6553L66.6846 35.6575ZM66.5928 35.6663C66.0459 35.7432 65.6649 36.2488 65.7417 36.7957C65.8186 37.3427 66.3242 37.7237 66.8711 37.6469L66.5928 35.6663ZM66.8654 37.6477C67.4123 37.5708 67.7934 37.0652 67.7165 36.5183C67.6397 35.9714 67.134 35.5903 66.5871 35.6671L66.8654 37.6477ZM65.7239 42.5874C65.7239 43.1396 66.1717 43.5874 66.7239 43.5874C67.2762 43.5874 67.7239 43.1396 67.7239 42.5874H65.7239ZM67.7239 57.4114C67.7239 56.8591 67.2762 56.4114 66.7239 56.4114C66.1717 56.4114 65.7239 56.8591 65.7239 57.4114H67.7239ZM64.4016 62.8929C63.8659 63.0273 63.5406 63.5705 63.675 64.1062C63.8095 64.6419 64.3527 64.9671 64.8884 64.8327L64.4016 62.8929ZM59.6909 66.137C60.2266 66.0026 60.5518 65.4594 60.4174 64.9237C60.283 64.388 59.7397 64.0628 59.2041 64.1972L59.6909 66.137ZM20.7413 34.4778C20.2112 34.6326 19.907 35.1879 20.0619 35.718C20.2167 36.2482 20.772 36.5524 21.3021 36.3975L20.7413 34.4778ZM21.3021 36.3975C21.8322 36.2427 22.1364 35.6874 21.9816 35.1572C21.8267 34.6271 21.2714 34.3229 20.7413 34.4778L21.3021 36.3975ZM20.0217 35.4377C20.0217 35.99 20.4694 36.4377 21.0217 36.4377C21.574 36.4377 22.0217 35.99 22.0217 35.4377H20.0217ZM22.0217 35.4378C22.0217 34.8855 21.574 34.4378 21.0217 34.4378C20.4694 34.4378 20.0217 34.8855 20.0217 35.4378H22.0217ZM21.9911 35.6832C22.1266 35.1478 21.8025 34.6039 21.2671 34.4683C20.7317 34.3328 20.1878 34.657 20.0522 35.1924L21.9911 35.6832ZM20.0523 35.1923C19.9167 35.7277 20.2409 36.2716 20.7763 36.4071C21.3117 36.5426 21.8556 36.2185 21.9911 35.6831L20.0523 35.1923ZM20.7883 36.41C21.3254 36.5389 21.8652 36.2081 21.9941 35.671C22.123 35.134 21.7921 34.5942 21.2551 34.4653L20.7883 36.41ZM21.2551 34.4653C20.7181 34.3364 20.1782 34.6672 20.0493 35.2043C19.9204 35.7413 20.2513 36.2812 20.7884 36.41L21.2551 34.4653ZM21.8591 35.9843C22.161 35.5218 22.0308 34.9022 21.5684 34.6003C21.1059 34.2984 20.4862 34.4286 20.1844 34.891L21.8591 35.9843ZM20.1844 34.891C19.8825 35.3535 20.0127 35.9731 20.4751 36.275C20.9376 36.5769 21.5572 36.4467 21.8591 35.9843L20.1844 34.891ZM37.2254 64.1971C36.6898 64.0627 36.1465 64.388 36.0121 64.9236C35.8777 65.4593 36.203 66.0025 36.7386 66.137L37.2254 64.1971ZM31.5413 64.8327C32.0769 64.9671 32.6202 64.6418 32.7546 64.1062C32.889 63.5705 32.5637 63.0273 32.0281 62.8928L31.5413 64.8327ZM30.7057 57.4114C30.7057 56.8591 30.258 56.4114 29.7057 56.4114C29.1534 56.4114 28.7057 56.8591 28.7057 57.4114L30.7057 57.4114ZM28.7057 42.5874C28.7057 43.1397 29.1534 43.5874 29.7057 43.5874C30.258 43.5874 30.7057 43.1396 30.7057 42.5874L28.7057 42.5874ZM30.3104 35.8613C29.8706 35.5271 29.2433 35.6127 28.9091 36.0524C28.575 36.4922 28.6606 37.1195 29.1003 37.4537L30.3104 35.8613ZM29.0994 37.453C29.5392 37.7872 30.1665 37.7016 30.5007 37.2618C30.8348 36.8221 30.7492 36.1947 30.3095 35.8606L29.0994 37.453ZM29.5658 37.6469C30.1127 37.7235 30.6182 37.3422 30.6948 36.7953C30.7714 36.2483 30.3901 35.7428 29.8432 35.6663L29.5658 37.6469ZM29.844 35.6664C29.2971 35.5898 28.7916 35.9711 28.715 36.518C28.6384 37.065 29.0197 37.5705 29.5667 37.6471L29.844 35.6664ZM32.0116 37.1461C32.5495 37.0208 32.8839 36.4831 32.7586 35.9453C32.6332 35.4074 32.0956 35.073 31.5577 35.1983L32.0116 37.1461ZM36.7551 33.987C36.2172 34.1124 35.8828 34.65 36.0081 35.1879C36.1335 35.7258 36.6712 36.0602 37.209 35.9348L36.7551 33.987ZM38.061 37.9445C38.061 38.4967 38.5087 38.9445 39.061 38.9445C39.6133 38.9445 40.061 38.4967 40.061 37.9445H38.061ZM40.061 46.6145C40.061 46.0623 39.6133 45.6145 39.061 45.6145C38.5087 45.6145 38.061 46.0623 38.061 46.6145H40.061ZM38.061 53.5506C38.061 54.1029 38.5087 54.5506 39.061 54.5506C39.6133 54.5506 40.061 54.1029 40.061 53.5506H38.061ZM40.061 62.2207C40.061 61.6684 39.6133 61.2207 39.061 61.2207C38.5087 61.2207 38.061 61.6684 38.061 62.2207H40.061ZM16 27.7375L16.0017 32.6857L18.0017 32.6851L18 27.7369L16 27.7375ZM16.0058 45.0563L16.0091 54.9527L18.0091 54.952L18.0058 45.0556L16.0058 45.0563ZM16.0132 67.3232L16.0149 72.2714L18.0149 72.2708L18.0132 67.3226L16.0132 67.3232ZM16.5643 73.1638L20.0268 74.9115L20.928 73.126L17.4655 71.3784L16.5643 73.1638ZM28.6832 79.2806L35.6083 82.7759L36.5094 80.9905L29.5844 77.4952L28.6832 79.2806ZM44.2646 87.1451L47.7271 88.8927L48.6283 87.1073L45.1658 85.3596L44.2646 87.1451ZM48.1777 89H48.1778V87H48.1777V89ZM48.1778 89H48.1779V87H48.1778V89ZM49.0041 88.5633L49.0041 88.5633L47.3516 87.4366L47.3516 87.4367L49.0041 88.5633ZM49.0041 88.5633L49.0041 88.5633L47.3517 87.4366L47.3517 87.4366L49.0041 88.5633ZM48.6276 88.8931L52.0985 87.1456L51.1991 85.3592L47.7282 87.1067L48.6276 88.8931ZM60.7757 82.7767L67.7174 79.2816L66.818 77.4953L59.8763 80.9904L60.7757 82.7767ZM76.3946 74.9128L79.8655 73.1652L78.9661 71.3789L75.4952 73.1264L76.3946 74.9128ZM80.4158 72.2724L80.4175 67.3242L78.4175 67.3236L78.4158 72.2717L80.4158 72.2724ZM80.4216 54.9538L80.4249 45.0574L78.4249 45.0567L78.4216 54.9531L80.4216 54.9538ZM80.429 32.6869L80.4307 27.7388L78.4307 27.7381L78.429 32.6863L80.429 32.6869ZM79.8805 26.8453L76.4079 25.0966L75.5084 26.8829L78.9809 28.6316L79.8805 26.8453ZM67.7266 20.7248L60.7815 17.2274L59.882 19.0137L66.8271 22.5111L67.7266 20.7248ZM52.1002 12.8556L48.6277 11.1069L47.7281 12.8932L51.2007 14.6419L52.1002 12.8556ZM49.0691 11.5466L49.0691 11.5466L47.2866 12.4536L47.2866 12.4536L49.0691 11.5466ZM49.0691 11.5465L49.0691 11.5465L47.2866 12.4535L47.2866 12.4535L49.0691 11.5465ZM48.1779 11H48.1778V13H48.1779V11ZM48.1778 11H48.1777V13H48.1778V11ZM47.1777 12V12H49.1777V12H47.1777ZM47.1777 12V12.0001H49.1777V12H47.1777ZM47.7271 11.1073L44.2629 12.8559L45.1641 14.6414L48.6283 12.8928L47.7271 11.1073ZM35.6025 17.2273L28.6741 20.7245L29.5753 22.5099L36.5037 19.0128L35.6025 17.2273ZM20.0136 25.0959L16.5494 26.8445L17.4506 28.6299L20.9148 26.8813L20.0136 25.0959ZM58.3685 65.6888V62.2208H56.3685V65.6888H58.3685ZM58.3685 53.5506V46.6145H56.3685V53.5506H58.3685ZM58.3685 37.9444V34.4763H56.3685V37.9444H58.3685ZM57.1415 35.4502L59.2205 35.9348L59.6745 33.987L57.5955 33.5024L57.1415 35.4502ZM64.4181 37.1461L66.4971 37.6307L66.951 35.6829L64.872 35.1983L64.4181 37.1461ZM66.7715 37.6556L66.7737 37.6555L66.6789 35.6578L66.6767 35.6579L66.7715 37.6556ZM66.7794 37.6553L66.7817 37.6552L66.6869 35.6574L66.6846 35.6575L66.7794 37.6553ZM66.5951 35.666L66.5928 35.6663L66.8711 37.6469L66.8734 37.6466L66.5951 35.666ZM66.5871 35.6671L66.5848 35.6675L66.8631 37.648L66.8654 37.6477L66.5871 35.6671ZM65.7239 36.6577V42.5874H67.7239V36.6577H65.7239ZM65.7239 57.4114V63.3411H67.7239V57.4114H65.7239ZM66.4805 62.3711L64.4016 62.8929L64.8884 64.8327L66.9674 64.311L66.4805 62.3711ZM59.2041 64.1972L57.1251 64.7189L57.6119 66.6588L59.6909 66.137L59.2041 64.1972ZM20.7413 34.4777L20.7413 34.4778L21.3021 36.3975L21.3022 36.3975L20.7413 34.4777ZM20.7413 34.4778L20.7413 34.4778L21.3021 36.3975L21.3021 36.3975L20.7413 34.4778ZM20.0217 35.4376V35.4377H22.0217V35.4376H20.0217ZM20.0217 35.4378V35.4378H22.0217V35.4378H20.0217ZM21.9911 35.6832L21.9911 35.6832L20.0522 35.1924L20.0522 35.1924L21.9911 35.6832ZM21.9911 35.6831L21.9911 35.683L20.0523 35.1923L20.0523 35.1923L21.9911 35.6831ZM20.7883 36.41L20.7883 36.41L21.2551 34.4653L21.2551 34.4653L20.7883 36.41ZM20.7884 36.41L20.7884 36.41L21.2551 34.4653L21.2551 34.4653L20.7884 36.41ZM21.8591 35.9843L21.8591 35.9843L20.1844 34.891L20.1843 34.891L21.8591 35.9843ZM21.8591 35.9843L21.8591 35.9842L20.1844 34.891L20.1844 34.891L21.8591 35.9843ZM39.3044 64.7188L37.2254 64.1971L36.7386 66.137L38.8176 66.6587L39.3044 64.7188ZM32.0281 62.8928L29.9491 62.3711L29.4623 64.311L31.5413 64.8327L32.0281 62.8928ZM30.7057 63.3411L30.7057 57.4114L28.7057 57.4114L28.7057 63.3411H30.7057ZM30.7057 42.5874L30.7057 36.6577H28.7057L28.7057 42.5874L30.7057 42.5874ZM30.3107 35.8615L30.3104 35.8613L29.1003 37.4537L29.1007 37.4539L30.3107 35.8615ZM30.3095 35.8606L30.3091 35.8603L29.0991 37.4528L29.0994 37.453L30.3095 35.8606ZM29.5654 37.6469L29.5658 37.6469L29.8432 35.6663L29.8428 35.6662L29.5654 37.6469ZM29.5667 37.6471L29.567 37.6471L29.8444 35.6664L29.844 35.6664L29.5667 37.6471ZM29.9327 37.6307L32.0116 37.1461L31.5577 35.1983L29.4787 35.6829L29.9327 37.6307ZM37.209 35.9348L39.288 35.4503L38.834 33.5025L36.7551 33.987L37.209 35.9348ZM38.061 34.4764V37.9445H40.061V34.4764H38.061ZM38.061 46.6145V53.5506H40.061V46.6145H38.061ZM38.061 62.2207V65.6888H40.061V62.2207H38.061Z" fill="black" mask="url(#path-1-inside-1)"/>
<path d="M14.0217 58.5614L14.5524 59.1637L41.3574 66.762L41.4788 62.0521L22.7057 57.3411L21.787 57.0096L14.0217 58.5614Z" fill="#B7CA9D"/>
<path d="M68.4083 58.5614L41.0326 67.6992L40.9512 62.0521L59.7241 57.3411L60.5423 56.4202L68.4083 58.5614Z" fill="#B7CA9D"/>
<path d="M40.9512 26.2815L59.7241 30.6568L67.9803 30.2651L68.4083 29.4377L42.252 20.0226L40.9512 26.2815Z" fill="#3C4929"/>
<path d="M22.7057 57.3411L14.0217 58.5614L13.78 57.6598V30.387L14.0217 29.4377L21.8685 30.0212L22.7057 30.6577V57.3411Z" fill="#759C3E"/>
<path d="M41.4788 26.2815L22.7057 30.6568L14.0217 29.4377L14.349 28.9238L41.3574 21.237L41.4788 26.2815Z" fill="#3C4929"/>
<path d="M41.1779 6L10 21.7372L10.0149 66.2711L41.1779 82L41.6422 81.295V6.91451L41.1779 6ZM32.061 63.9753L14.0217 58.5614V29.4376L32.061 24.0257V63.9753ZM59.7239 57.3411L68.4082 58.5614L68.8947 57.7005V30.2651L68.4082 29.4376L59.7239 30.6577V57.3411Z" fill="#4B612C"/>
<path d="M41.1777 82L72.4158 66.2721L72.4307 21.7384L41.1777 6V82ZM50.3685 24.0257L68.4081 29.4376V58.5614L50.3685 63.9753V24.0257Z" fill="#759C3E"/>
</svg>
