<svg width="88" height="88" viewBox="0 0 88 88" fill="none" xmlns="http://www.w3.org/2000/svg">
<mask id="path-1-inside-1" fill="white">
<path fill-rule="evenodd" clip-rule="evenodd" d="M47.925 9.0003V9L63.2763 16.5865V23.2795L72.291 20.9629L79.9997 24.7743L80 40.5204L79.9975 40.52L65.8602 41.3534L57.4908 40.5033L57.4895 40.5034V40.5031L57.4893 40.5031L57.4895 40.5029V38.7026L48.0003 39.6169L38.3583 38.6971L38.3583 40.5198L38.3576 40.5198L38.3582 40.5201L30.1397 41.3542L16.0005 40.5206L16.0007 40.5204L16.0005 40.5205V24.7751L23.6398 20.963V20.9628L32.5723 23.2711V16.5868L47.925 9.0003ZM65.8605 52.6445L57.4895 53.4963V55.2906L48.0003 54.3658L38.3583 55.2964V53.5031L38.3582 53.5031L38.3583 53.503L30.1398 52.6446L16 53.503V53.5031L16.0005 69.2258L23.6398 73.0078L32.5723 70.7176V77.4142L47.925 85L63.2763 77.4142L63.2762 70.7094L72.291 73.0077L79.9998 69.2257V53.5031L79.9996 53.5031L79.9998 53.503L65.8605 52.6445Z"/>
</mask>
<path fill-rule="evenodd" clip-rule="evenodd" d="M47.925 9.0003V9L63.2763 16.5865V23.2795L72.291 20.9629L79.9997 24.7743L80 40.5204L79.9975 40.52L65.8602 41.3534L57.4908 40.5033L57.4895 40.5034V40.5031L57.4893 40.5031L57.4895 40.5029V38.7026L48.0003 39.6169L38.3583 38.6971L38.3583 40.5198L38.3576 40.5198L38.3582 40.5201L30.1397 41.3542L16.0005 40.5206L16.0007 40.5204L16.0005 40.5205V24.7751L23.6398 20.963V20.9628L32.5723 23.2711V16.5868L47.925 9.0003ZM65.8605 52.6445L57.4895 53.4963V55.2906L48.0003 54.3658L38.3583 55.2964V53.5031L38.3582 53.5031L38.3583 53.503L30.1398 52.6446L16 53.503V53.5031L16.0005 69.2258L23.6398 73.0078L32.5723 70.7176V77.4142L47.925 85L63.2763 77.4142L63.2762 70.7094L72.291 73.0077L79.9998 69.2257V53.5031L79.9996 53.5031L79.9998 53.503L65.8605 52.6445Z" fill="#F7F7FE"/>
<path d="M47.925 9.0003L48.1465 9.44856C48.3171 9.36428 48.425 9.19053 48.425 9.0003H47.925ZM47.925 9L48.1465 8.55175C47.9915 8.47516 47.808 8.48406 47.6612 8.57529C47.5143 8.66652 47.425 8.82713 47.425 9H47.925ZM63.2763 16.5865H63.7763C63.7763 16.3963 63.6683 16.2225 63.4978 16.1382L63.2763 16.5865ZM63.2763 23.2795H62.7763C62.7763 23.4341 62.8477 23.5799 62.9698 23.6746C63.092 23.7693 63.251 23.8023 63.4007 23.7638L63.2763 23.2795ZM72.291 20.9629L72.5126 20.5147C72.4053 20.4616 72.2825 20.4488 72.1666 20.4786L72.291 20.9629ZM79.9997 24.7743L80.4997 24.7743C80.4997 24.5841 80.3918 24.4104 80.2213 24.3261L79.9997 24.7743ZM80 40.5204L79.9258 41.0149C80.0697 41.0365 80.216 40.9943 80.3263 40.8993C80.4366 40.8043 80.5 40.666 80.5 40.5204L80 40.5204ZM79.9975 40.52L80.0717 40.0256C80.0375 40.0204 80.0027 40.0189 79.9681 40.0209L79.9975 40.52ZM65.8602 41.3534L65.8097 41.8509C65.8363 41.8536 65.863 41.8541 65.8897 41.8526L65.8602 41.3534ZM57.4908 40.5033L57.5413 40.0058C57.5118 40.0028 57.4821 40.0025 57.4525 40.0047L57.4908 40.5033ZM57.4895 40.5034H56.9895C56.9895 40.6426 57.0476 40.7756 57.1498 40.8702C57.2519 40.9648 57.3889 41.0126 57.5278 41.0019L57.4895 40.5034ZM57.4895 40.5031H57.9895C57.9895 40.2463 57.7948 40.0312 57.5392 40.0056L57.4895 40.5031ZM57.4893 40.5031L57.1317 40.1536C56.9974 40.291 56.9537 40.4933 57.0193 40.6739C57.085 40.8545 57.2483 40.9815 57.4395 41.0006L57.4893 40.5031ZM57.4895 40.5029L57.8471 40.8524C57.9384 40.7589 57.9895 40.6335 57.9895 40.5029H57.4895ZM57.4895 38.7026H57.9895C57.9895 38.5617 57.93 38.4273 57.8257 38.3325C57.7213 38.2377 57.5818 38.1914 57.4415 38.2049L57.4895 38.7026ZM48.0003 39.6169L47.9528 40.1147C47.9845 40.1177 48.0165 40.1177 48.0482 40.1146L48.0003 39.6169ZM38.3583 38.6971L38.4058 38.1993C38.2656 38.1859 38.1262 38.2323 38.022 38.3271C37.9178 38.4218 37.8583 38.5562 37.8583 38.697L38.3583 38.6971ZM38.3583 40.5198L38.3202 41.0184C38.459 41.029 38.596 40.9812 38.6981 40.8866C38.8002 40.792 38.8582 40.6591 38.8583 40.5198L38.3583 40.5198ZM38.3576 40.5198L38.3956 40.0212C38.1622 40.0034 37.9477 40.1499 37.8794 40.3738C37.811 40.5977 37.9072 40.839 38.1108 40.9546L38.3576 40.5198ZM38.3582 40.5201L38.4087 41.0176C38.6252 40.9956 38.8026 40.8361 38.8475 40.6232C38.8923 40.4102 38.7943 40.1927 38.6051 40.0853L38.3582 40.5201ZM30.1397 41.3542L30.1103 41.8533C30.1369 41.8549 30.1637 41.8543 30.1902 41.8516L30.1397 41.3542ZM16.0005 40.5206L15.6944 40.1253C15.5296 40.2528 15.4612 40.4693 15.5228 40.6684C15.5844 40.8675 15.763 41.0075 15.9711 41.0198L16.0005 40.5206ZM16.0007 40.5204L16.3068 40.9158C16.4864 40.7767 16.5498 40.534 16.4609 40.3249C16.3721 40.1158 16.1534 39.9929 15.9286 40.0257L16.0007 40.5204ZM16.0005 40.5205H15.5005C15.5005 40.6657 15.5636 40.8037 15.6735 40.8987C15.7833 40.9937 15.929 41.0362 16.0727 41.0152L16.0005 40.5205ZM16.0005 24.7751L15.7773 24.3277C15.6077 24.4123 15.5005 24.5856 15.5005 24.7751H16.0005ZM23.6398 20.963L23.863 21.4104C24.0326 21.3257 24.1398 21.1525 24.1398 20.963H23.6398ZM23.6398 20.9628L23.7649 20.4787C23.6151 20.44 23.4559 20.4728 23.3336 20.5675C23.2113 20.6622 23.1398 20.8081 23.1398 20.9628H23.6398ZM32.5723 23.2711L32.4472 23.7552C32.5969 23.7939 32.7562 23.7612 32.8784 23.6665C33.0007 23.5718 33.0723 23.4258 33.0723 23.2711H32.5723ZM32.5723 16.5868L32.3508 16.1385C32.1802 16.2228 32.0723 16.3965 32.0723 16.5868H32.5723ZM57.4895 53.4963L57.4389 52.9989C57.1837 53.0249 56.9895 53.2398 56.9895 53.4963H57.4895ZM65.8605 52.6445L65.8908 52.1455C65.8638 52.1438 65.8368 52.1444 65.8099 52.1471L65.8605 52.6445ZM57.4895 55.2906L57.441 55.7883C57.5814 55.8019 57.721 55.7557 57.8255 55.6609C57.9299 55.5661 57.9895 55.4317 57.9895 55.2906H57.4895ZM48.0003 54.3658L48.0488 53.8682C48.0167 53.8651 47.9843 53.8651 47.9522 53.8682L48.0003 54.3658ZM38.3583 55.2964H37.8583C37.8583 55.4373 37.9178 55.5718 38.0221 55.6665C38.1265 55.7613 38.266 55.8076 38.4063 55.7941L38.3583 55.2964ZM38.3583 53.5031H38.8583C38.8583 53.3662 38.8022 53.2354 38.7031 53.141C38.604 53.0466 38.4706 52.997 38.3339 53.0037L38.3583 53.5031ZM38.3582 53.5031L38.0754 53.0907C37.891 53.2172 37.813 53.4508 37.8843 53.6627C37.9557 53.8746 38.1592 54.0134 38.3825 54.0025L38.3582 53.5031ZM38.3583 53.503L38.641 53.9154C38.8138 53.7969 38.8944 53.5832 38.8429 53.3801C38.7914 53.1769 38.6186 53.0275 38.4102 53.0057L38.3583 53.503ZM30.1398 52.6446L30.1917 52.1473C30.1644 52.1444 30.1369 52.1438 30.1095 52.1455L30.1398 52.6446ZM16 53.503L15.9697 53.004C15.7058 53.02 15.5 53.2387 15.5 53.503H16ZM16 53.5031H15.5V53.5031L16 53.5031ZM16.0005 69.2258L15.5005 69.2258C15.5005 69.4159 15.6083 69.5895 15.7787 69.6738L16.0005 69.2258ZM23.6398 73.0078L23.4179 73.4558C23.5252 73.509 23.648 73.5218 23.7639 73.4921L23.6398 73.0078ZM32.5723 70.7176H33.0723C33.0723 70.5631 33.0008 70.4173 32.8788 70.3226C32.7567 70.2278 32.5977 70.1949 32.4481 70.2332L32.5723 70.7176ZM32.5723 77.4142H32.0723C32.0723 77.6045 32.1802 77.7782 32.3508 77.8625L32.5723 77.4142ZM47.925 85L47.7035 85.4482C47.8431 85.5172 48.0069 85.5172 48.1465 85.4482L47.925 85ZM63.2763 77.4142L63.4978 77.8624C63.6683 77.7782 63.7763 77.6044 63.7763 77.4142L63.2763 77.4142ZM63.2762 70.7094L63.3997 70.2248C63.2501 70.1867 63.0913 70.2198 62.9694 70.3145C62.8475 70.4093 62.7762 70.555 62.7762 70.7094L63.2762 70.7094ZM72.291 73.0077L72.1675 73.4922C72.2826 73.5215 72.4045 73.5089 72.5112 73.4565L72.291 73.0077ZM79.9998 69.2257L80.22 69.6746C80.3912 69.5906 80.4998 69.4164 80.4998 69.2257H79.9998ZM79.9998 53.5031H80.4998C80.4998 53.3593 80.4379 53.2225 80.3299 53.1276C80.222 53.0326 80.0784 52.9888 79.9358 53.0072L79.9998 53.5031ZM79.9996 53.5031L79.7635 53.0623C79.5508 53.1763 79.4499 53.4258 79.5235 53.6556C79.5971 53.8854 79.8243 54.0298 80.0636 53.999L79.9996 53.5031ZM79.9998 53.503L80.2359 53.9437C80.433 53.8382 80.536 53.6145 80.4882 53.396C80.4403 53.1776 80.2533 53.0175 80.0301 53.0039L79.9998 53.503ZM44.2918 10.2379C44.0442 10.3603 43.9427 10.6601 44.065 10.9077C44.1874 11.1552 44.4872 11.2568 44.7348 11.1344L44.2918 10.2379ZM36.2055 15.3491C36.4531 15.2268 36.5546 14.9269 36.4323 14.6794C36.3099 14.4318 36.0101 14.3303 35.7625 14.4526L36.2055 15.3491ZM32.0723 18.0722C32.0723 18.3483 32.2962 18.5722 32.5723 18.5722C32.8484 18.5722 33.0723 18.3483 33.0723 18.0722H32.0723ZM33.0723 21.7857C33.0723 21.5096 32.8484 21.2857 32.5723 21.2857C32.2962 21.2857 32.0723 21.5096 32.0723 21.7857H33.0723ZM30.7124 22.2741C30.445 22.205 30.1723 22.3657 30.1032 22.6331C30.0341 22.9004 30.1948 23.1732 30.4622 23.2423L30.7124 22.2741ZM25.4997 21.9599C25.767 22.029 26.0398 21.8682 26.1089 21.6009C26.178 21.3335 26.0172 21.0608 25.7499 20.9917L25.4997 21.9599ZM23.1398 20.9628C23.1398 21.239 23.3636 21.4628 23.6398 21.4628C23.9159 21.4628 24.1398 21.239 24.1398 20.9628H23.1398ZM24.1398 20.9629C24.1398 20.6868 23.9159 20.4629 23.6398 20.4629C23.3636 20.4629 23.1398 20.6868 23.1398 20.9629H24.1398ZM21.7189 21.3627C21.4718 21.486 21.3715 21.7863 21.4948 22.0334C21.6181 22.2804 21.9183 22.3808 22.1654 22.2575L21.7189 21.3627ZM17.9214 24.3753C18.1685 24.252 18.2688 23.9518 18.1455 23.7047C18.0222 23.4576 17.722 23.3573 17.4749 23.4806L17.9214 24.3753ZM15.5005 28.2741C15.5005 28.5502 15.7244 28.7741 16.0005 28.7741C16.2767 28.7741 16.5005 28.5502 16.5005 28.2741H15.5005ZM16.5005 37.0215C16.5005 36.7454 16.2767 36.5215 16.0005 36.5215C15.7244 36.5215 15.5005 36.7454 15.5005 37.0215H16.5005ZM16.0727 41.0152C16.346 40.9754 16.5352 40.7216 16.4953 40.4483C16.4555 40.1751 16.2017 39.9859 15.9284 40.0257L16.0727 41.0152ZM15.9285 40.0257C15.6553 40.0655 15.4661 40.3194 15.5059 40.5926C15.5458 40.8659 15.7996 41.0551 16.0728 41.0152L15.9285 40.0257ZM15.6946 40.1251C15.4762 40.2942 15.4363 40.6082 15.6053 40.8266C15.7743 41.0449 16.0884 41.0849 16.3067 40.9159L15.6946 40.1251ZM16.3066 40.916C16.525 40.7469 16.5649 40.4329 16.3959 40.2145C16.2269 39.9962 15.9128 39.9562 15.6945 40.1252L16.3066 40.916ZM19.1131 41.205C19.3888 41.2212 19.6254 41.011 19.6417 40.7353C19.6579 40.4596 19.4476 40.223 19.172 40.2067L19.1131 41.205ZM27.0271 40.6698C26.7514 40.6535 26.5148 40.8638 26.4985 41.1395C26.4823 41.4152 26.6926 41.6518 26.9682 41.6681L27.0271 40.6698ZM32.0165 41.6663C32.2913 41.6384 32.4914 41.3931 32.4635 41.1183C32.4356 40.8436 32.1903 40.6435 31.9156 40.6714L32.0165 41.6663ZM36.4814 40.208C36.2067 40.2359 36.0066 40.4812 36.0345 40.756C36.0623 41.0307 36.3076 41.2308 36.5824 41.2029L36.4814 40.208ZM38.6049 40.0852C38.3648 39.9489 38.0596 40.0331 37.9233 40.2732C37.7869 40.5134 37.8711 40.8186 38.1113 40.9549L38.6049 40.0852ZM38.1109 40.9547C38.351 41.091 38.6562 41.0068 38.7926 40.7667C38.9289 40.5265 38.8447 40.2213 38.6046 40.085L38.1109 40.9547ZM38.3197 41.0183C38.595 41.0393 38.8353 40.8332 38.8563 40.5578C38.8773 40.2825 38.6711 40.0422 38.3958 40.0212L38.3197 41.0183ZM38.3961 40.0213C38.1208 40.0003 37.8806 40.2064 37.8596 40.4818C37.8386 40.7571 38.0447 40.9974 38.3201 41.0184L38.3961 40.0213ZM38.8583 40.1148C38.8583 39.8386 38.6344 39.6148 38.3583 39.6148C38.0822 39.6147 37.8583 39.8386 37.8583 40.1147L38.8583 40.1148ZM37.8583 39.1021C37.8583 39.3782 38.0822 39.6021 38.3583 39.6021C38.6344 39.6021 38.8583 39.3783 38.8583 39.1021L37.8583 39.1021ZM40.4535 39.3992C40.7284 39.4254 40.9725 39.2238 40.9987 38.949C41.025 38.6741 40.8234 38.43 40.5485 38.4037L40.4535 39.3992ZM45.9051 38.9148C45.6302 38.8885 45.3861 39.0901 45.3599 39.365C45.3337 39.6399 45.5352 39.884 45.8101 39.9102L45.9051 38.9148ZM50.1569 39.9114C50.4318 39.885 50.6332 39.6407 50.6067 39.3658C50.5802 39.0909 50.3359 38.8896 50.061 38.916L50.1569 39.9114ZM55.3328 38.4081C55.058 38.4346 54.8566 38.6789 54.8831 38.9537C54.9096 39.2286 55.1539 39.43 55.4287 39.4035L55.3328 38.4081ZM56.9895 39.1027C56.9895 39.3788 57.2134 39.6027 57.4895 39.6027C57.7656 39.6027 57.9895 39.3788 57.9895 39.1027H56.9895ZM57.9895 40.1028C57.9895 39.8267 57.7656 39.6028 57.4895 39.6028C57.2134 39.6028 56.9895 39.8267 56.9895 40.1028H57.9895ZM57.1319 40.1534C56.9389 40.3509 56.9425 40.6675 57.1399 40.8605C57.3374 41.0535 57.654 41.0499 57.847 40.8524L57.1319 40.1534ZM57.8469 40.8526C58.0399 40.6551 58.0363 40.3385 57.8388 40.1455C57.6413 39.9525 57.3248 39.9561 57.1317 40.1536L57.8469 40.8526ZM57.4396 41.0006C57.7143 41.0281 57.9593 40.8276 57.9868 40.5529C58.0143 40.2781 57.8138 40.0331 57.5391 40.0056L57.4396 41.0006ZM57.5392 40.0056C57.2644 39.9781 57.0194 40.1786 56.9919 40.4534C56.9644 40.7282 57.1649 40.9732 57.4397 41.0007L57.5392 40.0056ZM56.9895 40.5032C56.9895 40.7793 57.2134 41.0032 57.4895 41.0032C57.7656 41.0032 57.9895 40.7793 57.9895 40.5032H56.9895ZM57.9895 40.5033C57.9895 40.2272 57.7656 40.0033 57.4895 40.0033C57.2134 40.0033 56.9895 40.2272 56.9895 40.5033H57.9895ZM57.5281 41.0019C57.8034 40.9807 58.0095 40.7404 57.9883 40.4651C57.9672 40.1897 57.7268 39.9837 57.4515 40.0048L57.5281 41.0019ZM57.4522 40.0048C57.1769 40.0259 56.9708 40.2662 56.992 40.5416C57.0131 40.8169 57.2534 41.023 57.5288 41.0018L57.4522 40.0048ZM59.3001 41.1896C59.5748 41.2175 59.8202 41.0175 59.8481 40.7427C59.876 40.468 59.6759 40.2227 59.4012 40.1948L59.3001 41.1896ZM64.0509 40.6671C63.7762 40.6392 63.5308 40.8393 63.5029 41.114C63.475 41.3887 63.6751 41.634 63.9498 41.662L64.0509 40.6671ZM69.0313 41.6674C69.307 41.6511 69.5173 41.4145 69.501 41.1388C69.4848 40.8632 69.2481 40.6529 68.9724 40.6691L69.0313 41.6674ZM76.8265 40.2061C76.5508 40.2224 76.3405 40.459 76.3568 40.7347C76.373 41.0103 76.6097 41.2206 76.8853 41.2044L76.8265 40.2061ZM79.9239 41.0146C80.197 41.0556 80.4516 40.8674 80.4925 40.5943C80.5335 40.3212 80.3454 40.0666 80.0723 40.0257L79.9239 41.0146ZM80.0737 40.0259C79.8006 39.9849 79.546 40.173 79.505 40.4461C79.464 40.7192 79.6522 40.9738 79.9252 41.0148L80.0737 40.0259ZM80.4999 37.0213C80.4999 36.7451 80.2761 36.5213 79.9999 36.5213C79.7238 36.5213 79.4999 36.7451 79.4999 37.0213L80.4999 37.0213ZM79.4998 28.2734C79.4998 28.5496 79.7237 28.7734 79.9998 28.7734C80.2759 28.7734 80.4998 28.5496 80.4998 28.2734L79.4998 28.2734ZM78.5083 23.4791C78.2607 23.3567 77.9609 23.4582 77.8385 23.7057C77.7161 23.9532 77.8175 24.2531 78.0651 24.3755L78.5083 23.4791ZM73.7824 22.2581C74.03 22.3805 74.3299 22.279 74.4523 22.0315C74.5746 21.7839 74.4732 21.484 74.2257 21.3617L73.7824 22.2581ZM70.1633 20.9934C69.8958 21.0622 69.7347 21.3347 69.8035 21.6021C69.8722 21.8696 70.1447 22.0307 70.4122 21.962L70.1633 20.9934ZM65.404 23.249C65.6714 23.1803 65.8325 22.9077 65.7638 22.6403C65.6951 22.3728 65.4225 22.2117 65.1551 22.2805L65.404 23.249ZM63.7763 21.7922C63.7763 21.516 63.5524 21.2922 63.2763 21.2922C63.0001 21.2922 62.7763 21.516 62.7763 21.7922H63.7763ZM62.7763 18.0738C62.7763 18.35 63.0001 18.5738 63.2763 18.5738C63.5524 18.5738 63.7763 18.35 63.7763 18.0738H62.7763ZM60.0864 14.4524C59.8388 14.33 59.539 14.4315 59.4166 14.6791C59.2943 14.9266 59.3958 15.2265 59.6433 15.3489L60.0864 14.4524ZM51.1149 11.1341C51.3624 11.2565 51.6623 11.155 51.7846 10.9074C51.907 10.6598 51.8055 10.36 51.5579 10.2376L51.1149 11.1341ZM47.425 9.00007C47.425 9.27621 47.6489 9.50007 47.925 9.50007C48.2011 9.50007 48.425 9.27621 48.425 9.00007H47.425ZM48.425 9.00023C48.425 8.72409 48.2011 8.50023 47.925 8.50023C47.6489 8.50023 47.425 8.72409 47.425 9.00023H48.425ZM56.9895 53.8951C56.9895 54.1712 57.2134 54.3951 57.4895 54.3951C57.7656 54.3951 57.9895 54.1712 57.9895 53.8951H56.9895ZM57.9895 54.8919C57.9895 54.6157 57.7656 54.3919 57.4895 54.3919C57.2134 54.3919 56.9895 54.6157 56.9895 54.8919H57.9895ZM55.4293 54.5875C55.1544 54.5607 54.9099 54.7618 54.8831 55.0366C54.8564 55.3115 55.0574 55.556 55.3323 55.5827L55.4293 54.5875ZM50.0605 55.069C50.3353 55.0958 50.5798 54.8947 50.6066 54.6198C50.6334 54.345 50.4323 54.1005 50.1575 54.0737L50.0605 55.069ZM45.8096 54.0749C45.5347 54.1015 45.3334 54.3458 45.3599 54.6207C45.3864 54.8955 45.6308 55.0968 45.9056 55.0703L45.8096 54.0749ZM40.549 55.5873C40.8238 55.5608 41.0251 55.3164 40.9986 55.0416C40.9721 54.7667 40.7278 54.5654 40.4529 54.5919L40.549 55.5873ZM38.8583 54.8979C38.8583 54.6217 38.6344 54.3979 38.3583 54.3979C38.0821 54.3979 37.8583 54.6217 37.8583 54.8979H38.8583ZM37.8583 53.9016C37.8583 54.1777 38.0821 54.4016 38.3583 54.4016C38.6344 54.4016 38.8583 54.1777 38.8583 53.9016H37.8583ZM38.3339 53.0037C38.0581 53.0171 37.8454 53.2516 37.8588 53.5274C37.8723 53.8033 38.1068 54.0159 38.3826 54.0025L38.3339 53.0037ZM38.3826 54.0025C38.6584 53.989 38.8711 53.7545 38.8576 53.4787C38.8442 53.2029 38.6097 52.9902 38.3338 53.0037L38.3826 54.0025ZM38.641 53.9154C38.8687 53.7593 38.9267 53.4481 38.7706 53.2203C38.6144 52.9926 38.3032 52.9345 38.0754 53.0907L38.641 53.9154ZM38.0755 53.0907C37.8477 53.2469 37.7897 53.5581 37.9459 53.7858C38.102 54.0136 38.4133 54.0716 38.641 53.9154L38.0755 53.0907ZM36.5839 52.815C36.3092 52.7863 36.0633 52.9857 36.0346 53.2603C36.0059 53.535 36.2053 53.7809 36.48 53.8096L36.5839 52.815ZM31.9141 53.3326C32.1888 53.3613 32.4347 53.1619 32.4634 52.8873C32.4921 52.6126 32.2927 52.3667 32.018 52.338L31.9141 53.3326ZM26.9673 52.3363C26.6916 52.353 26.4818 52.59 26.4985 52.8656C26.5152 53.1413 26.7523 53.3512 27.0279 53.3344L26.9673 52.3363ZM19.1725 53.8113C19.4481 53.7946 19.658 53.5576 19.6412 53.282C19.6245 53.0063 19.3875 52.7965 19.1119 52.8132L19.1725 53.8113ZM15.5 53.5031C15.5 53.7792 15.7239 54.0031 16 54.0031C16.2761 54.0031 16.5 53.7792 16.5 53.5031H15.5ZM16.5 53.5031C16.5 53.2269 16.2761 53.0031 16 53.0031C15.7239 53.0031 15.5 53.2269 15.5 53.5031H16.5ZM15.5001 56.997C15.5001 57.2732 15.724 57.497 16.0001 57.497C16.2763 57.497 16.5001 57.2732 16.5001 56.997L15.5001 56.997ZM16.5004 65.7318C16.5004 65.4557 16.2765 65.2318 16.0004 65.2318C15.7242 65.2318 15.5004 65.4557 15.5004 65.7318L16.5004 65.7318ZM17.4763 70.5143C17.7237 70.6368 18.0237 70.5355 18.1462 70.288C18.2687 70.0406 18.1674 69.7406 17.92 69.6181L17.4763 70.5143ZM22.164 71.7192C21.9165 71.5967 21.6166 71.698 21.494 71.9455C21.3715 72.1929 21.4728 72.4929 21.7203 72.6154L22.164 71.7192ZM25.7489 72.9832C26.0164 72.9146 26.1777 72.6421 26.1091 72.3746C26.0405 72.1072 25.7681 71.9459 25.5006 72.0145L25.7489 72.9832ZM30.4631 70.7422C30.1956 70.8108 30.0343 71.0832 30.1029 71.3507C30.1715 71.6182 30.4439 71.7794 30.7114 71.7108L30.4631 70.7422ZM32.0723 72.2057C32.0723 72.4819 32.2961 72.7057 32.5723 72.7057C32.8484 72.7057 33.0723 72.4819 33.0723 72.2057H32.0723ZM33.0723 75.9261C33.0723 75.6499 32.8484 75.4261 32.5723 75.4261C32.2961 75.4261 32.0723 75.6499 32.0723 75.9261H33.0723ZM35.7625 79.5482C36.0101 79.6705 36.3099 79.569 36.4323 79.3214C36.5546 79.0739 36.453 78.774 36.2055 78.6517L35.7625 79.5482ZM44.7348 82.866C44.4872 82.7437 44.1873 82.8452 44.065 83.0928C43.9427 83.3403 44.0442 83.6402 44.2918 83.7625L44.7348 82.866ZM51.5579 83.7625C51.8055 83.6402 51.907 83.3403 51.7847 83.0927C51.6623 82.8452 51.3625 82.7436 51.1149 82.866L51.5579 83.7625ZM59.6434 78.6517C59.3958 78.774 59.2943 79.0739 59.4166 79.3214C59.5389 79.569 59.8388 79.6705 60.0864 79.5482L59.6434 78.6517ZM63.7762 75.9242C63.7762 75.6481 63.5524 75.4242 63.2762 75.4242C63.0001 75.4242 62.7762 75.6481 62.7762 75.9242L63.7762 75.9242ZM62.7762 72.1993C62.7762 72.4755 63.0001 72.6993 63.2762 72.6993C63.5523 72.6993 63.7762 72.4754 63.7762 72.1993L62.7762 72.1993ZM65.156 71.7046C65.4235 71.7728 65.6958 71.6112 65.764 71.3436C65.8322 71.076 65.6706 70.8038 65.403 70.7356L65.156 71.7046ZM70.4112 72.0124C70.1436 71.9442 69.8714 72.1058 69.8032 72.3734C69.735 72.641 69.8966 72.9132 70.1642 72.9814L70.4112 72.0124ZM74.2243 72.6161C74.4722 72.4945 74.5746 72.1949 74.4529 71.947C74.3313 71.6991 74.0317 71.5967 73.7838 71.7183L74.2243 72.6161ZM78.0665 69.6172C77.8186 69.7389 77.7162 70.0384 77.8378 70.2864C77.9594 70.5343 78.259 70.6367 78.5069 70.515L78.0665 69.6172ZM80.4998 65.7318C80.4998 65.4556 80.2759 65.2318 79.9998 65.2318C79.7236 65.2318 79.4998 65.4556 79.4998 65.7318H80.4998ZM79.4998 56.997C79.4998 57.2731 79.7236 57.497 79.9998 57.497C80.2759 57.497 80.4998 57.2731 80.4998 56.997H79.4998ZM79.9358 53.0072C79.6619 53.0425 79.4685 53.2932 79.5038 53.567C79.5392 53.8409 79.7899 54.0343 80.0637 53.9989L79.9358 53.0072ZM80.0637 53.999C80.3375 53.9636 80.5309 53.713 80.4956 53.4391C80.4602 53.1652 80.2096 52.9718 79.9357 53.0072L80.0637 53.999ZM80.2358 53.9438C80.4792 53.8134 80.5708 53.5104 80.4404 53.2669C80.31 53.0235 80.007 52.9319 79.7636 53.0623L80.2358 53.9438ZM79.7636 53.0623C79.5202 53.1927 79.4286 53.4957 79.559 53.7391C79.6894 53.9825 79.9924 54.0742 80.2358 53.9438L79.7636 53.0623ZM76.888 52.8132C76.6124 52.7964 76.3754 53.0063 76.3586 53.2819C76.3419 53.5576 76.5518 53.7946 76.8274 53.8113L76.888 52.8132ZM68.9723 53.3344C69.2479 53.3511 69.4849 53.1412 69.5016 52.8656C69.5184 52.59 69.3085 52.353 69.0329 52.3362L68.9723 53.3344ZM63.9497 52.3364C63.6749 52.3643 63.4749 52.6097 63.5028 52.8844C63.5308 53.1592 63.7762 53.3592 64.0509 53.3313L63.9497 52.3364ZM59.4003 53.8045C59.6751 53.7765 59.8751 53.5312 59.8472 53.2564C59.8192 52.9817 59.5738 52.7817 59.2991 52.8096L59.4003 53.8045ZM47.7035 8.55204L44.2918 10.2379L44.7348 11.1344L48.1465 9.44856L47.7035 8.55204ZM35.7625 14.4526L32.3508 16.1385L32.7938 17.035L36.2055 15.3491L35.7625 14.4526ZM32.0723 16.5868V18.0722H33.0723V16.5868H32.0723ZM32.0723 21.7857V23.2711H33.0723V21.7857H32.0723ZM32.6974 22.787L30.7124 22.2741L30.4622 23.2423L32.4472 23.7552L32.6974 22.787ZM25.7499 20.9917L23.7649 20.4787L23.5147 21.4469L25.4997 21.9599L25.7499 20.9917ZM23.1398 20.9628V20.9628H24.1398V20.9628H23.1398ZM23.1398 20.9629V20.963H24.1398V20.9629H23.1398ZM23.4165 20.5156L21.7189 21.3627L22.1654 22.2575L23.863 21.4104L23.4165 20.5156ZM17.4749 23.4806L15.7773 24.3277L16.2238 25.2225L17.9214 24.3753L17.4749 23.4806ZM15.5005 24.7751V28.2741H16.5005V24.7751H15.5005ZM15.5005 37.0215V40.5205H16.5005V37.0215H15.5005ZM16.0727 41.0152L16.0727 41.0152L15.9284 40.0257L15.9284 40.0257L16.0727 41.0152ZM16.0728 41.0152L16.0729 41.0152L15.9286 40.0257L15.9285 40.0257L16.0728 41.0152ZM15.6947 40.1251L15.6946 40.1251L16.3067 40.9159L16.3068 40.9158L15.6947 40.1251ZM15.6945 40.1252L15.6944 40.1253L16.3065 40.916L16.3066 40.916L15.6945 40.1252ZM15.9711 41.0198L19.1131 41.205L19.172 40.2067L16.0299 40.0215L15.9711 41.0198ZM26.9682 41.6681L30.1103 41.8533L30.1692 40.855L27.0271 40.6698L26.9682 41.6681ZM30.1902 41.8516L32.0165 41.6663L31.9156 40.6714L30.0892 40.8567L30.1902 41.8516ZM36.5824 41.2029L38.4087 41.0176L38.3077 40.0227L36.4814 40.208L36.5824 41.2029ZM38.6051 40.0853L38.6049 40.0852L38.1113 40.9549L38.1114 40.955L38.6051 40.0853ZM38.6046 40.085L38.6044 40.0849L38.1108 40.9546L38.1109 40.9547L38.6046 40.085ZM38.3196 41.0183L38.3197 41.0183L38.3958 40.0212L38.3956 40.0212L38.3196 41.0183ZM38.3201 41.0184L38.3202 41.0184L38.3963 40.0213L38.3961 40.0213L38.3201 41.0184ZM38.8583 40.5198L38.8583 40.1148L37.8583 40.1147L37.8583 40.5198L38.8583 40.5198ZM38.8583 39.1021L38.8583 38.6971L37.8583 38.697L37.8583 39.1021L38.8583 39.1021ZM38.3109 39.1948L40.4535 39.3992L40.5485 38.4037L38.4058 38.1993L38.3109 39.1948ZM45.8101 39.9102L47.9528 40.1147L48.0478 39.1192L45.9051 38.9148L45.8101 39.9102ZM48.0482 40.1146L50.1569 39.9114L50.061 38.916L47.9523 39.1192L48.0482 40.1146ZM55.4287 39.4035L57.5375 39.2003L57.4415 38.2049L55.3328 38.4081L55.4287 39.4035ZM56.9895 38.7026V39.1027H57.9895V38.7026H56.9895ZM56.9895 40.1028V40.5029H57.9895V40.1028H56.9895ZM57.1319 40.1534L57.1319 40.1534L57.847 40.8524L57.8471 40.8524L57.1319 40.1534ZM57.1317 40.1536L57.1317 40.1536L57.8468 40.8526L57.8469 40.8526L57.1317 40.1536ZM57.4395 41.0006L57.4396 41.0006L57.5391 40.0056L57.539 40.0056L57.4395 41.0006ZM57.4397 41.0007L57.4397 41.0007L57.5392 40.0056L57.5392 40.0056L57.4397 41.0007ZM56.9895 40.5031V40.5032H57.9895V40.5031H56.9895ZM56.9895 40.5033V40.5034H57.9895V40.5033H56.9895ZM57.5278 41.0019L57.5281 41.0019L57.4515 40.0048L57.4512 40.0048L57.5278 41.0019ZM57.5288 41.0018L57.5291 41.0018L57.4525 40.0047L57.4522 40.0048L57.5288 41.0018ZM57.4402 41.0007L59.3001 41.1896L59.4012 40.1948L57.5413 40.0058L57.4402 41.0007ZM63.9498 41.662L65.8097 41.8509L65.9108 40.856L64.0509 40.6671L63.9498 41.662ZM65.8897 41.8526L69.0313 41.6674L68.9724 40.6691L65.8308 40.8543L65.8897 41.8526ZM76.8853 41.2044L80.027 41.0192L79.9681 40.0209L76.8265 40.2061L76.8853 41.2044ZM79.9233 41.0145L79.9239 41.0146L80.0723 40.0257L80.0717 40.0256L79.9233 41.0145ZM79.9252 41.0148L79.9258 41.0149L80.0742 40.0259L80.0737 40.0259L79.9252 41.0148ZM80.5 40.5204L80.4999 37.0213L79.4999 37.0213L79.5 40.5204L80.5 40.5204ZM80.4998 28.2734L80.4997 24.7743L79.4997 24.7743L79.4998 28.2734L80.4998 28.2734ZM80.2213 24.3261L78.5083 23.4791L78.0651 24.3755L79.7781 25.2225L80.2213 24.3261ZM74.2257 21.3617L72.5126 20.5147L72.0694 21.4111L73.7824 22.2581L74.2257 21.3617ZM72.1666 20.4786L70.1633 20.9934L70.4122 21.962L72.4154 21.4472L72.1666 20.4786ZM65.1551 22.2805L63.1518 22.7953L63.4007 23.7638L65.404 23.249L65.1551 22.2805ZM63.7763 23.2795V21.7922H62.7763V23.2795H63.7763ZM63.7763 18.0738V16.5865H62.7763V18.0738H63.7763ZM63.4978 16.1382L60.0864 14.4524L59.6433 15.3489L63.0547 17.0347L63.4978 16.1382ZM51.5579 10.2376L48.1465 8.55175L47.7035 9.44825L51.1149 11.1341L51.5579 10.2376ZM47.425 9V9.00007H48.425V9H47.425ZM47.425 9.00023V9.0003H48.425V9.00023H47.425ZM56.9895 53.4963V53.8951H57.9895V53.4963H56.9895ZM56.9895 54.8919V55.2906H57.9895V54.8919H56.9895ZM57.538 54.793L55.4293 54.5875L55.3323 55.5827L57.441 55.7883L57.538 54.793ZM50.1575 54.0737L48.0488 53.8682L47.9518 54.8635L50.0605 55.069L50.1575 54.0737ZM47.9522 53.8682L45.8096 54.0749L45.9056 55.0703L48.0483 54.8635L47.9522 53.8682ZM40.4529 54.5919L38.3102 54.7987L38.4063 55.7941L40.549 55.5873L40.4529 54.5919ZM38.8583 55.2964V54.8979H37.8583V55.2964H38.8583ZM38.8583 53.9016V53.5031H37.8583V53.9016H38.8583ZM38.3339 53.0037H38.3339L38.3826 54.0025L38.3826 54.0025L38.3339 53.0037ZM38.3338 53.0037L38.3338 53.0037L38.3825 54.0025H38.3826L38.3338 53.0037ZM38.6409 53.9155L38.641 53.9154L38.0754 53.0907L38.0754 53.0907L38.6409 53.9155ZM38.641 53.9154L38.641 53.9154L38.0755 53.0907L38.0755 53.0907L38.641 53.9154ZM38.4102 53.0057L36.5839 52.815L36.48 53.8096L38.3063 54.0003L38.4102 53.0057ZM32.018 52.338L30.1917 52.1473L30.0878 53.1419L31.9141 53.3326L32.018 52.338ZM30.1095 52.1455L26.9673 52.3363L27.0279 53.3344L30.1701 53.1436L30.1095 52.1455ZM19.1119 52.8132L15.9697 53.004L16.0303 54.0021L19.1725 53.8113L19.1119 52.8132ZM15.5 53.503V53.5031H16.5V53.503H15.5ZM15.5 53.5031V53.5031H16.5V53.5031H15.5ZM15.5 53.5031L15.5001 56.997L16.5001 56.997L16.5 53.5031L15.5 53.5031ZM15.5004 65.7318L15.5005 69.2258L16.5005 69.2257L16.5004 65.7318L15.5004 65.7318ZM15.7787 69.6738L17.4763 70.5143L17.92 69.6181L16.2223 68.7777L15.7787 69.6738ZM21.7203 72.6154L23.4179 73.4558L23.8616 72.5597L22.164 71.7192L21.7203 72.6154ZM23.7639 73.4921L25.7489 72.9832L25.5006 72.0145L23.5156 72.5234L23.7639 73.4921ZM30.7114 71.7108L32.6964 71.2019L32.4481 70.2332L30.4631 70.7422L30.7114 71.7108ZM32.0723 70.7176V72.2057H33.0723V70.7176H32.0723ZM32.0723 75.9261V77.4142H33.0723V75.9261H32.0723ZM32.3508 77.8625L35.7625 79.5482L36.2055 78.6517L32.7938 76.966L32.3508 77.8625ZM44.2918 83.7625L47.7035 85.4482L48.1465 84.5517L44.7348 82.866L44.2918 83.7625ZM48.1465 85.4482L51.5579 83.7625L51.1149 82.866L47.7035 84.5517L48.1465 85.4482ZM60.0864 79.5482L63.4978 77.8624L63.0548 76.9659L59.6434 78.6517L60.0864 79.5482ZM63.7763 77.4142L63.7762 75.9242L62.7762 75.9242L62.7763 77.4142L63.7763 77.4142ZM63.7762 72.1993L63.7762 70.7093L62.7762 70.7094L62.7762 72.1993L63.7762 72.1993ZM63.1527 71.1939L65.156 71.7046L65.403 70.7356L63.3997 70.2248L63.1527 71.1939ZM70.1642 72.9814L72.1675 73.4922L72.4145 72.5232L70.4112 72.0124L70.1642 72.9814ZM72.5112 73.4565L74.2243 72.6161L73.7838 71.7183L72.0708 72.5588L72.5112 73.4565ZM78.5069 70.515L80.22 69.6746L79.7795 68.7768L78.0665 69.6172L78.5069 70.515ZM80.4998 69.2257V65.7318H79.4998V69.2257H80.4998ZM80.4998 56.997V53.5031H79.4998V56.997H80.4998ZM79.9358 53.0072L79.9358 53.0072L80.0637 53.9989L80.0638 53.9989L79.9358 53.0072ZM79.9357 53.0072L79.9357 53.0072L80.0636 53.999L80.0637 53.999L79.9357 53.0072ZM80.2358 53.9438L80.2358 53.9438L79.7636 53.0623L79.7635 53.0623L80.2358 53.9438ZM80.2358 53.9438L80.2359 53.9437L79.7636 53.0623L79.7636 53.0623L80.2358 53.9438ZM80.0301 53.0039L76.888 52.8132L76.8274 53.8113L79.9694 54.0021L80.0301 53.0039ZM69.0329 52.3362L65.8908 52.1455L65.8302 53.1436L68.9723 53.3344L69.0329 52.3362ZM65.8099 52.1471L63.9497 52.3364L64.0509 53.3313L65.9111 53.142L65.8099 52.1471ZM59.2991 52.8096L57.4389 52.9989L57.5401 53.9938L59.4003 53.8045L59.2991 52.8096ZM47.925 9.0003L48.368 9.89681C48.7091 9.72826 48.925 9.38076 48.925 9.0003H47.925ZM47.925 9L48.368 8.1035C48.0581 7.95032 47.691 7.96812 47.3973 8.15058C47.1036 8.33303 46.925 8.65425 46.925 9H47.925ZM63.2763 16.5865H64.2763C64.2763 16.206 64.0604 15.8585 63.7193 15.69L63.2763 16.5865ZM63.2763 23.2795H62.2763C62.2763 23.5886 62.4192 23.8803 62.6634 24.0698C62.9077 24.2592 63.2258 24.325 63.5252 24.2481L63.2763 23.2795ZM72.291 20.9629L72.7342 20.0665C72.5196 19.9604 72.274 19.9348 72.0421 19.9944L72.291 20.9629ZM79.9997 24.7743L80.9997 24.7743C80.9997 24.3939 80.7839 24.0465 80.4429 23.8779L79.9997 24.7743ZM80 40.5204L79.8516 41.5093C80.1395 41.5525 80.4319 41.4681 80.6525 41.2782C80.8731 41.0882 81 40.8115 81 40.5204L80 40.5204ZM79.9975 40.52L80.146 39.5311C80.0774 39.5208 80.0079 39.5177 79.9387 39.5218L79.9975 40.52ZM65.8602 41.3534L65.7592 42.3483C65.8123 42.3537 65.8658 42.3549 65.9191 42.3517L65.8602 41.3534ZM57.4908 40.5033L57.5918 39.5084C57.5328 39.5024 57.4733 39.5017 57.4142 39.5062L57.4908 40.5033ZM57.4895 40.5034H56.4895C56.4895 40.7819 56.6057 41.0478 56.81 41.237C57.0144 41.4263 57.2884 41.5218 57.5661 41.5004L57.4895 40.5034ZM57.4895 40.5031H58.4895C58.4895 39.9894 58.1002 39.5592 57.589 39.5081L57.4895 40.5031ZM57.4893 40.5031L56.7741 39.8041C56.5055 40.079 56.4181 40.4834 56.5494 40.8447C56.6807 41.2059 57.0073 41.4599 57.3897 41.4981L57.4893 40.5031ZM57.4895 40.5029L58.2046 41.2019C58.3872 41.015 58.4895 40.7641 58.4895 40.5029H57.4895ZM57.4895 38.7026H58.4895C58.4895 38.4207 58.3705 38.1519 58.1618 37.9624C57.9532 37.7728 57.6742 37.6802 57.3936 37.7072L57.4895 38.7026ZM48.0003 39.6169L47.9053 40.6124C47.9688 40.6185 48.0327 40.6184 48.0962 40.6123L48.0003 39.6169ZM38.3583 38.6971L38.4533 37.7016C38.1729 37.6748 37.8941 37.7676 37.6857 37.9571C37.4772 38.1466 37.3584 38.4153 37.3583 38.697L38.3583 38.6971ZM38.3583 40.5198L38.2822 41.5169C38.5598 41.5381 38.8337 41.4426 39.0379 41.2533C39.2422 41.0641 39.3582 40.7983 39.3583 40.5199L38.3583 40.5198ZM38.3576 40.5198L38.4336 39.5227C37.9668 39.4871 37.5378 39.7801 37.4011 40.2279C37.2645 40.6757 37.4568 41.1583 37.8639 41.3894L38.3576 40.5198ZM38.3582 40.5201L38.4592 41.515C38.8922 41.4711 39.2471 41.1521 39.3368 40.7262C39.4265 40.3003 39.2304 39.8653 38.8519 39.6505L38.3582 40.5201ZM30.1397 41.3542L30.0809 42.3524C30.1342 42.3556 30.1876 42.3544 30.2407 42.3491L30.1397 41.3542ZM16.0005 40.5206L15.3883 39.7299C15.0587 39.985 14.922 40.4179 15.0451 40.8161C15.1683 41.2143 15.5255 41.4944 15.9416 41.5189L16.0005 40.5206ZM16.0007 40.5204L16.6129 41.3112C16.9722 41.033 17.0988 40.5476 16.9211 40.1294C16.7434 39.7112 16.3061 39.4653 15.8564 39.5309L16.0007 40.5204ZM16.0005 40.5205H15.0005C15.0005 40.8109 15.1268 41.0869 15.3464 41.2769C15.5661 41.4668 15.8575 41.5519 16.1448 41.51L16.0005 40.5205ZM16.0005 24.7751L15.554 23.8803C15.2148 24.0496 15.0005 24.396 15.0005 24.7751H16.0005ZM23.6398 20.963L24.0863 21.8577C24.4254 21.6885 24.6398 21.342 24.6398 20.963H23.6398ZM23.6398 20.9628L23.89 19.9946C23.5905 19.9172 23.272 19.9828 23.0275 20.1722C22.7829 20.3616 22.6398 20.6535 22.6398 20.9628H23.6398ZM32.5723 23.2711L32.3221 24.2393C32.6216 24.3167 32.94 24.2512 33.1846 24.0618C33.4292 23.8724 33.5723 23.5805 33.5723 23.2711H32.5723ZM32.5723 16.5868L32.1293 15.6902C31.7882 15.8588 31.5723 16.2063 31.5723 16.5868H32.5723ZM57.4895 53.4963L57.3883 52.5015C56.8778 52.5534 56.4895 52.9833 56.4895 53.4963H57.4895ZM65.8605 52.6445L65.9211 51.6464C65.8672 51.6431 65.813 51.6442 65.7593 51.6497L65.8605 52.6445ZM57.4895 55.2906L57.3925 56.2859C57.6733 56.3133 57.9525 56.2208 58.1614 56.0312C58.3704 55.8417 58.4895 55.5727 58.4895 55.2906H57.4895ZM48.0003 54.3658L48.0973 53.3706C48.0331 53.3643 47.9684 53.3643 47.9042 53.3705L48.0003 54.3658ZM38.3583 55.2964H37.3583C37.3583 55.5783 37.4773 55.8471 37.686 56.0367C37.8947 56.2262 38.1737 56.3188 38.4543 56.2918L38.3583 55.2964ZM38.3583 53.5031H39.3583C39.3583 53.2294 39.2461 52.9677 39.0479 52.779C38.8498 52.5902 38.5829 52.4909 38.3095 52.5043L38.3583 53.5031ZM38.3582 53.5031L37.7927 52.6784C37.4238 52.9313 37.2677 53.3984 37.4105 53.8223C37.5533 54.2462 37.9602 54.5237 38.4069 54.5019L38.3582 53.5031ZM38.3583 53.503L38.9238 54.3278C39.2694 54.0907 39.4306 53.6633 39.3275 53.2571C39.2245 52.8509 38.879 52.552 38.4621 52.5085L38.3583 53.503ZM30.1398 52.6446L30.2436 51.65C30.189 51.6443 30.134 51.6431 30.0791 51.6464L30.1398 52.6446ZM16 53.503L15.9394 52.5049C15.4116 52.5369 15 52.9743 15 53.503H16ZM16 53.5031H15V53.5031L16 53.5031ZM16.0005 69.2258L15.0005 69.2258C15.0005 69.606 15.2161 69.9533 15.5568 70.1219L16.0005 69.2258ZM23.6398 73.0078L23.1961 73.9039C23.4106 74.0102 23.6562 74.0359 23.8881 73.9764L23.6398 73.0078ZM32.5723 70.7176H33.5723C33.5723 70.4086 33.4294 70.117 33.1853 69.9275C32.9412 69.7381 32.6232 69.6722 32.3239 69.7489L32.5723 70.7176ZM32.5723 77.4142H31.5723C31.5723 77.7947 31.7882 78.1422 32.1293 78.3108L32.5723 77.4142ZM47.925 85L47.482 85.8965C47.7613 86.0345 48.0888 86.0344 48.368 85.8965L47.925 85ZM63.2763 77.4142L63.7193 78.3107C64.0604 78.1422 64.2763 77.7946 64.2763 77.4142L63.2763 77.4142ZM63.2762 70.7094L63.5232 69.7403C63.224 69.6641 62.9064 69.7303 62.6626 69.9197C62.4188 70.1092 62.2762 70.4006 62.2762 70.7094L63.2762 70.7094ZM72.291 73.0077L72.044 73.9767C72.2743 74.0354 72.518 74.0101 72.7315 73.9054L72.291 73.0077ZM79.9998 69.2257L80.4402 70.1235C80.7827 69.9554 80.9998 69.6072 80.9998 69.2257H79.9998ZM79.9998 53.5031H80.9998C80.9998 53.2155 80.876 52.9419 80.6601 52.7521C80.4442 52.5622 80.157 52.4745 79.8718 52.5113L79.9998 53.5031ZM79.9996 53.5031L79.5274 52.6216C79.102 52.8495 78.9001 53.3486 79.0473 53.8082C79.1946 54.2677 79.649 54.5566 80.1276 54.4948L79.9996 53.5031ZM79.9998 53.503L80.472 54.3845C80.8662 54.1733 81.0723 53.726 80.9766 53.2891C80.8809 52.8522 80.5068 52.532 80.0604 52.5048L79.9998 53.503ZM44.0703 9.78966C43.5752 10.0343 43.3721 10.6341 43.6168 11.1292C43.8614 11.6243 44.4612 11.8274 44.9563 11.5827L44.0703 9.78966ZM36.427 15.7974C36.9222 15.5527 37.1252 14.953 36.8805 14.4579C36.6359 13.9627 36.0361 13.7597 35.541 14.0044L36.427 15.7974ZM31.5723 18.0722C31.5723 18.6245 32.02 19.0722 32.5723 19.0722C33.1246 19.0722 33.5723 18.6245 33.5723 18.0722H31.5723ZM33.5723 21.7857C33.5723 21.2334 33.1246 20.7857 32.5723 20.7857C32.02 20.7857 31.5723 21.2334 31.5723 21.7857H33.5723ZM30.8375 21.79C30.3028 21.6518 29.7573 21.9733 29.6191 22.508C29.4809 23.0427 29.8024 23.5882 30.3371 23.7264L30.8375 21.79ZM25.3746 22.444C25.9093 22.5821 26.4548 22.2607 26.593 21.726C26.7311 21.1912 26.4097 20.6458 25.875 20.5076L25.3746 22.444ZM22.6398 20.9628C22.6398 21.5151 23.0875 21.9628 23.6398 21.9628C24.192 21.9628 24.6398 21.5151 24.6398 20.9628H22.6398ZM24.6398 20.9629C24.6398 20.4106 24.192 19.9629 23.6398 19.9629C23.0875 19.9629 22.6398 20.4106 22.6398 20.9629H24.6398ZM21.4956 20.9153C21.0015 21.1619 20.8008 21.7624 21.0474 22.2566C21.294 22.7508 21.8945 22.9515 22.3887 22.7049L21.4956 20.9153ZM18.1446 24.8227C18.6388 24.5761 18.8395 23.9756 18.5929 23.4814C18.3463 22.9873 17.7458 22.7866 17.2516 23.0332L18.1446 24.8227ZM15.0005 28.2741C15.0005 28.8264 15.4482 29.2741 16.0005 29.2741C16.5528 29.2741 17.0005 28.8264 17.0005 28.2741H15.0005ZM17.0005 37.0215C17.0005 36.4692 16.5528 36.0215 16.0005 36.0215C15.4482 36.0215 15.0005 36.4692 15.0005 37.0215H17.0005ZM16.1449 41.51C16.6914 41.4303 17.0698 40.9227 16.9901 40.3762C16.9104 39.8297 16.4028 39.4512 15.8563 39.5309L16.1449 41.51ZM15.8564 39.5309C15.3099 39.6106 14.9314 40.1183 15.0111 40.6648C15.0908 41.2113 15.5985 41.5897 16.145 41.51L15.8564 39.5309ZM15.3885 39.7297C14.9518 40.0678 14.8718 40.6959 15.2099 41.1326C15.548 41.5693 16.1761 41.6493 16.6128 41.3112L15.3885 39.7297ZM16.6127 41.3113C17.0494 40.9733 17.1294 40.3452 16.7913 39.9085C16.4532 39.4717 15.8251 39.3918 15.3884 39.7298L16.6127 41.3113ZM19.0837 41.7041C19.635 41.7366 20.1083 41.316 20.1408 40.7647C20.1733 40.2134 19.7527 39.7401 19.2014 39.7076L19.0837 41.7041ZM27.0565 40.1707C26.5052 40.1382 26.0319 40.5588 25.9994 41.1101C25.9669 41.6614 26.3875 42.1347 26.9388 42.1672L27.0565 40.1707ZM32.067 42.1637C32.6165 42.108 33.0167 41.6173 32.961 41.0679C32.9052 40.5184 32.4146 40.1182 31.8651 40.1739L32.067 42.1637ZM36.4309 39.7106C35.8815 39.7663 35.4812 40.257 35.537 40.8064C35.5928 41.3559 36.0834 41.7561 36.6329 41.7004L36.4309 39.7106ZM38.8517 39.6504C38.3714 39.3778 37.7611 39.5461 37.4884 40.0264C37.2158 40.5067 37.3841 41.1171 37.8644 41.3897L38.8517 39.6504ZM37.8641 41.3895C38.3444 41.6621 38.9547 41.4938 39.2274 41.0135C39.5 40.5332 39.3317 39.9228 38.8514 39.6502L37.8641 41.3895ZM38.2817 41.5169C38.8324 41.5589 39.3128 41.1465 39.3548 40.5958C39.3968 40.0451 38.9845 39.5647 38.4338 39.5227L38.2817 41.5169ZM38.4342 39.5227C37.8835 39.4807 37.403 39.8931 37.361 40.4438C37.319 40.9944 37.7314 41.4749 38.2821 41.5169L38.4342 39.5227ZM39.3583 40.1148C39.3583 39.5625 38.9106 39.1148 38.3583 39.1148C37.806 39.1147 37.3583 39.5624 37.3583 40.1147L39.3583 40.1148ZM37.3583 39.1021C37.3583 39.6543 37.806 40.1021 38.3583 40.1021C38.9106 40.1021 39.3583 39.6544 39.3583 39.1022L37.3583 39.1021ZM40.406 39.8969C40.9558 39.9494 41.444 39.5462 41.4965 38.9964C41.5489 38.4467 41.1458 37.9584 40.596 37.906L40.406 39.8969ZM45.9526 38.417C45.4028 38.3646 44.9146 38.7677 44.8621 39.3175C44.8097 39.8673 45.2129 40.3555 45.7626 40.408L45.9526 38.417ZM50.2049 40.4091C50.7546 40.3562 51.1573 39.8676 51.1044 39.3178C51.0514 38.7681 50.5628 38.3654 50.0131 38.4184L50.2049 40.4091ZM55.2849 37.9104C54.7351 37.9634 54.3324 38.452 54.3854 39.0017C54.4384 39.5514 54.9269 39.9542 55.4767 39.9012L55.2849 37.9104ZM56.4895 39.1027C56.4895 39.6549 56.9372 40.1027 57.4895 40.1027C58.0418 40.1027 58.4895 39.6549 58.4895 39.1027H56.4895ZM58.4895 40.1028C58.4895 39.5505 58.0418 39.1028 57.4895 39.1028C56.9372 39.1028 56.4895 39.5505 56.4895 40.1028H58.4895ZM56.7743 39.8039C56.3883 40.1989 56.3955 40.832 56.7904 41.218C57.1854 41.6041 57.8185 41.5969 58.2046 41.2019L56.7743 39.8039ZM58.2044 41.2021C58.5905 40.8071 58.5833 40.174 58.1883 39.7879C57.7933 39.4019 57.1602 39.4091 56.7742 39.8041L58.2044 41.2021ZM57.3898 41.4982C57.9393 41.5531 58.4294 41.1522 58.4843 40.6026C58.5393 40.0531 58.1384 39.563 57.5888 39.5081L57.3898 41.4982ZM57.5889 39.5081C57.0394 39.4531 56.5494 39.8541 56.4944 40.4036C56.4395 40.9532 56.8404 41.4432 57.3899 41.4982L57.5889 39.5081ZM56.4895 40.5032C56.4895 41.0555 56.9372 41.5032 57.4895 41.5032C58.0418 41.5032 58.4895 41.0555 58.4895 40.5032H56.4895ZM58.4895 40.5033C58.4895 39.951 58.0418 39.5033 57.4895 39.5033C56.9372 39.5033 56.4895 39.951 56.4895 40.5033H58.4895ZM57.5664 41.5004C58.117 41.4581 58.5291 40.9774 58.4868 40.4268C58.4445 39.8761 57.9639 39.464 57.4132 39.5063L57.5664 41.5004ZM57.4139 39.5062C56.8632 39.5485 56.4511 40.0292 56.4934 40.5799C56.5357 41.1305 57.0164 41.5426 57.5671 41.5004L57.4139 39.5062ZM59.2496 41.6871C59.799 41.7429 60.2897 41.3427 60.3455 40.7933C60.4013 40.2438 60.0012 39.7531 59.4517 39.6973L59.2496 41.6871ZM64.1014 40.1696C63.552 40.1138 63.0613 40.514 63.0055 41.0635C62.9497 41.6129 63.3498 42.1036 63.8993 42.1594L64.1014 40.1696ZM69.0607 42.1665C69.612 42.134 70.0326 41.6607 70.0001 41.1094C69.9676 40.5581 69.4943 40.1375 68.943 40.17L69.0607 42.1665ZM76.7971 39.707C76.2457 39.7395 75.8251 40.2128 75.8577 40.7641C75.8902 41.3154 76.3634 41.736 76.9148 41.7035L76.7971 39.707ZM79.8497 41.509C80.3958 41.591 80.905 41.2147 80.987 40.6685C81.069 40.1224 80.6927 39.6132 80.1465 39.5312L79.8497 41.509ZM80.1479 39.5314C79.6017 39.4494 79.0925 39.8257 79.0105 40.3719C78.9286 40.9181 79.3049 41.4273 79.851 41.5093L80.1479 39.5314ZM80.9999 37.0213C80.9999 36.469 80.5522 36.0213 79.9999 36.0213C79.4476 36.0213 78.9999 36.469 78.9999 37.0213L80.9999 37.0213ZM78.9998 28.2734C78.9998 28.8257 79.4475 29.2734 79.9998 29.2734C80.5521 29.2734 80.9998 28.8257 80.9998 28.2734L78.9998 28.2734ZM78.7299 23.0309C78.2348 22.7861 77.635 22.989 77.3903 23.4841C77.1455 23.9792 77.3484 24.579 77.8435 24.8237L78.7299 23.0309ZM73.5608 22.7063C74.0559 22.9511 74.6557 22.7482 74.9005 22.2531C75.1452 21.758 74.9423 21.1582 74.4473 20.9135L73.5608 22.7063ZM70.0388 20.5092C69.5039 20.6466 69.1817 21.1917 69.3192 21.7266C69.4567 22.2615 70.0017 22.5837 70.5366 22.4462L70.0388 20.5092ZM65.5284 23.7333C66.0633 23.5958 66.3855 23.0507 66.2481 22.5158C66.1106 21.9809 65.5655 21.6587 65.0306 21.7962L65.5284 23.7333ZM64.2763 21.7922C64.2763 21.2399 63.8285 20.7922 63.2763 20.7922C62.724 20.7922 62.2763 21.2399 62.2763 21.7922H64.2763ZM62.2763 18.0738C62.2763 18.6261 62.724 19.0738 63.2763 19.0738C63.8285 19.0738 64.2763 18.6261 64.2763 18.0738H62.2763ZM60.3079 14.0041C59.8128 13.7594 59.2131 13.9624 58.9684 14.4576C58.7237 14.9527 58.9267 15.5524 59.4218 15.7971L60.3079 14.0041ZM50.8934 11.5824C51.3885 11.8271 51.9882 11.6241 52.2329 11.1289C52.4776 10.6338 52.2746 10.0341 51.7794 9.78939L50.8934 11.5824ZM46.925 9.00007C46.925 9.55235 47.3727 10.0001 47.925 10.0001C48.4773 10.0001 48.925 9.55235 48.925 9.00007H46.925ZM48.925 9.00023C48.925 8.44795 48.4773 8.00023 47.925 8.00023C47.3727 8.00023 46.925 8.44795 46.925 9.00023H48.925ZM56.4895 53.8951C56.4895 54.4474 56.9372 54.8951 57.4895 54.8951C58.0418 54.8951 58.4895 54.4474 58.4895 53.8951H56.4895ZM58.4895 54.8919C58.4895 54.3396 58.0418 53.8919 57.4895 53.8919C56.9372 53.8919 56.4895 54.3396 56.4895 54.8919H58.4895ZM55.4778 54.0898C54.9281 54.0363 54.4391 54.4384 54.3855 54.9881C54.3319 55.5378 54.7341 56.0268 55.2838 56.0804L55.4778 54.0898ZM50.012 55.5666C50.5617 55.6202 51.0507 55.218 51.1043 54.6683C51.1578 54.1187 50.7557 53.6296 50.206 53.5761L50.012 55.5666ZM45.7615 53.5773C45.2118 53.6303 44.8092 54.119 44.8622 54.6687C44.9153 55.2184 45.4039 55.6211 45.9537 55.568L45.7615 53.5773ZM40.597 56.085C41.1467 56.0319 41.5494 55.5433 41.4963 54.9935C41.4433 54.4438 40.9546 54.0412 40.4049 54.0942L40.597 56.085ZM39.3583 54.8979C39.3583 54.3456 38.9105 53.8979 38.3583 53.8979C37.806 53.8979 37.3583 54.3456 37.3583 54.8979H39.3583ZM37.3583 53.9016C37.3583 54.4539 37.806 54.9016 38.3583 54.9016C38.9105 54.9016 39.3583 54.4539 39.3583 53.9016H37.3583ZM38.3095 52.5043C37.7579 52.5312 37.3325 53.0002 37.3594 53.5518C37.3863 54.1034 37.8553 54.5288 38.407 54.5019L38.3095 52.5043ZM38.4069 54.5019C38.9586 54.475 39.3839 54.006 39.357 53.4544C39.3301 52.9027 38.8611 52.4774 38.3095 52.5043L38.4069 54.5019ZM38.9237 54.3278C39.3792 54.0155 39.4953 53.393 39.1829 52.9375C38.8706 52.4821 38.2482 52.366 37.7927 52.6783L38.9237 54.3278ZM37.7927 52.6783C37.3372 52.9907 37.2212 53.6131 37.5335 54.0686C37.8458 54.5241 38.4683 54.6401 38.9238 54.3278L37.7927 52.6783ZM36.6358 52.3177C36.0865 52.2603 35.5947 52.6591 35.5373 53.2084C35.48 53.7577 35.8787 54.2495 36.428 54.3069L36.6358 52.3177ZM31.8622 53.8299C32.4115 53.8873 32.9033 53.4885 32.9607 52.9392C33.0181 52.3899 32.6193 51.8981 32.07 51.8407L31.8622 53.8299ZM26.937 51.8372C26.3857 51.8706 25.966 52.3447 25.9994 52.8959C26.0329 53.4472 26.5069 53.867 27.0582 53.8335L26.937 51.8372ZM19.2028 54.3104C19.754 54.277 20.1738 53.8029 20.1403 53.2517C20.1069 52.7004 19.6328 52.2806 19.0816 52.3141L19.2028 54.3104ZM15 53.5031C15 54.0553 15.4477 54.5031 16 54.5031C16.5523 54.5031 17 54.0553 17 53.5031H15ZM17 53.5031C17 52.9508 16.5523 52.5031 16 52.5031C15.4477 52.5031 15 52.9508 15 53.5031H17ZM15.0001 56.9971C15.0001 57.5493 15.4479 57.997 16.0001 57.997C16.5524 57.997 17.0001 57.5493 17.0001 56.997L15.0001 56.9971ZM17.0004 65.7318C17.0004 65.1795 16.5526 64.7318 16.0004 64.7318C15.4481 64.7318 15.0004 65.1796 15.0004 65.7319L17.0004 65.7318ZM17.2544 70.9624C17.7494 71.2074 18.3493 71.0048 18.5943 70.5099C18.8393 70.0149 18.6367 69.4151 18.1418 69.17L17.2544 70.9624ZM22.3858 71.2711C21.8909 71.0261 21.291 71.2287 21.046 71.7236C20.8009 72.2186 21.0035 72.8185 21.4985 73.0635L22.3858 71.2711ZM25.8731 73.4675C26.4081 73.3303 26.7306 72.7855 26.5934 72.2505C26.4563 71.7155 25.9114 71.393 25.3764 71.5302L25.8731 73.4675ZM30.3389 70.2578C29.8039 70.395 29.4814 70.9399 29.6186 71.4749C29.7558 72.0098 30.3006 72.3323 30.8356 72.1952L30.3389 70.2578ZM31.5723 72.2057C31.5723 72.758 32.02 73.2057 32.5723 73.2057C33.1245 73.2057 33.5723 72.758 33.5723 72.2057H31.5723ZM33.5723 75.9261C33.5723 75.3738 33.1245 74.9261 32.5723 74.9261C32.02 74.9261 31.5723 75.3738 31.5723 75.9261H33.5723ZM35.541 79.9965C36.0362 80.2411 36.6359 80.0381 36.8805 79.5429C37.1252 79.0478 36.9221 78.4481 36.427 78.2034L35.541 79.9965ZM44.9563 82.4177C44.4611 82.1731 43.8614 82.3761 43.6168 82.8713C43.3721 83.3664 43.5752 83.9661 44.0703 84.2108L44.9563 82.4177ZM51.7794 84.2107C52.2745 83.9661 52.4776 83.3664 52.2329 82.8712C51.9883 82.3761 51.3885 82.173 50.8934 82.4177L51.7794 84.2107ZM59.4219 78.2034C58.9267 78.4481 58.7237 79.0478 58.9684 79.5429C59.213 80.0381 59.8128 80.2411 60.3079 79.9964L59.4219 78.2034ZM64.2762 75.9242C64.2762 75.3719 63.8285 74.9242 63.2762 74.9242C62.7239 74.9242 62.2762 75.3719 62.2762 75.9242L64.2762 75.9242ZM62.2762 72.1993C62.2762 72.7516 62.7239 73.1993 63.2762 73.1993C63.8285 73.1993 64.2762 72.7516 64.2762 72.1993L62.2762 72.1993ZM65.0324 72.1891C65.5676 72.3255 66.112 72.0023 66.2485 71.4671C66.3849 70.932 66.0617 70.3875 65.5265 70.2511L65.0324 72.1891ZM70.5348 71.5279C69.9996 71.3915 69.4551 71.7147 69.3187 72.2499C69.1823 72.785 69.5055 73.3295 70.0407 73.4659L70.5348 71.5279ZM74.4445 73.065C74.9403 72.8217 75.1451 72.2226 74.9018 71.7268C74.6586 71.2309 74.0594 71.0262 73.5636 71.2694L74.4445 73.065ZM77.8463 69.1684C77.3504 69.4116 77.1457 70.0108 77.3889 70.5066C77.6322 71.0024 78.2313 71.2072 78.7272 70.9639L77.8463 69.1684ZM80.9998 65.7318C80.9998 65.1795 80.552 64.7318 79.9998 64.7318C79.4475 64.7318 78.9998 65.1795 78.9998 65.7318H80.9998ZM78.9998 56.997C78.9998 57.5493 79.4475 57.997 79.9998 57.997C80.552 57.997 80.9998 57.5493 80.9998 56.997H78.9998ZM79.8718 52.5113C79.324 52.582 78.9373 53.0833 79.008 53.631C79.0786 54.1788 79.58 54.5655 80.1277 54.4948L79.8718 52.5113ZM80.1276 54.4948C80.6754 54.4242 81.0621 53.9228 80.9914 53.3751C80.9208 52.8273 80.4194 52.4406 79.8717 52.5113L80.1276 54.4948ZM80.4719 54.3845C80.9587 54.1237 81.142 53.5177 80.8811 53.0308C80.6203 52.544 80.0143 52.3608 79.5274 52.6216L80.4719 54.3845ZM79.5275 52.6215C79.0407 52.8823 78.8574 53.4884 79.1182 53.9752C79.379 54.4621 79.9851 54.6453 80.4719 54.3845L79.5275 52.6215ZM76.9183 52.3141C76.367 52.2806 75.893 52.7004 75.8595 53.2516C75.8261 53.8029 76.2458 54.2769 76.7971 54.3104L76.9183 52.3141ZM68.942 53.8335C69.4932 53.8669 69.9672 53.4472 70.0007 52.8959C70.0342 52.3446 69.6144 51.8706 69.0632 51.8371L68.942 53.8335ZM63.899 51.839C63.3496 51.8949 62.9495 52.3856 63.0054 52.9351C63.0613 53.4845 63.5521 53.8846 64.1015 53.8287L63.899 51.839ZM59.451 54.3019C60.0004 54.246 60.4005 53.7553 60.3446 53.2058C60.2887 52.6564 59.7979 52.2563 59.2485 52.3122L59.451 54.3019ZM47.482 8.10378L44.0703 9.78966L44.9563 11.5827L48.368 9.89681L47.482 8.10378ZM35.541 14.0044L32.1293 15.6902L33.0153 17.4833L36.427 15.7974L35.541 14.0044ZM31.5723 16.5868V18.0722H33.5723V16.5868H31.5723ZM31.5723 21.7857V23.2711H33.5723V21.7857H31.5723ZM32.8225 22.3029L30.8375 21.79L30.3371 23.7264L32.3221 24.2393L32.8225 22.3029ZM25.875 20.5076L23.89 19.9946L23.3896 21.931L25.3746 22.444L25.875 20.5076ZM22.6398 20.9628V20.9628H24.6398V20.9628H22.6398ZM22.6398 20.9629V20.963H24.6398V20.9629H22.6398ZM23.1932 20.0682L21.4956 20.9153L22.3887 22.7049L24.0863 21.8577L23.1932 20.0682ZM17.2516 23.0332L15.554 23.8803L16.447 25.6699L18.1446 24.8227L17.2516 23.0332ZM15.0005 24.7751V28.2741H17.0005V24.7751H15.0005ZM15.0005 37.0215V40.5205H17.0005V37.0215H15.0005ZM16.1448 41.51L16.1449 41.51L15.8563 39.5309L15.8562 39.5309L16.1448 41.51ZM16.145 41.51L16.145 41.51L15.8564 39.5309L15.8564 39.5309L16.145 41.51ZM15.3886 39.7297L15.3885 39.7297L16.6128 41.3112L16.6129 41.3112L15.3886 39.7297ZM15.3884 39.7298L15.3883 39.7299L16.6126 41.3114L16.6127 41.3113L15.3884 39.7298ZM15.9416 41.5189L19.0837 41.7041L19.2014 39.7076L16.0593 39.5224L15.9416 41.5189ZM26.9388 42.1672L30.0809 42.3524L30.1986 40.3559L27.0565 40.1707L26.9388 42.1672ZM30.2407 42.3491L32.067 42.1637L31.8651 40.1739L30.0388 40.3593L30.2407 42.3491ZM36.6329 41.7004L38.4592 41.515L38.2573 39.5252L36.4309 39.7106L36.6329 41.7004ZM38.8519 39.6505L38.8517 39.6504L37.8644 41.3897L37.8646 41.3898L38.8519 39.6505ZM38.8514 39.6502L38.8512 39.6501L37.8639 41.3894L37.8641 41.3895L38.8514 39.6502ZM38.2815 41.5169L38.2817 41.5169L38.4338 39.5227L38.4336 39.5227L38.2815 41.5169ZM38.2821 41.5169L38.2822 41.5169L38.4343 39.5227L38.4342 39.5227L38.2821 41.5169ZM39.3583 40.5199L39.3583 40.1148L37.3583 40.1147L37.3583 40.5198L39.3583 40.5199ZM39.3583 39.1022L39.3583 38.6971L37.3583 38.697L37.3583 39.1021L39.3583 39.1022ZM38.2634 39.6925L40.406 39.8969L40.596 37.906L38.4533 37.7016L38.2634 39.6925ZM45.7626 40.408L47.9053 40.6124L48.0952 38.6214L45.9526 38.417L45.7626 40.408ZM48.0962 40.6123L50.2049 40.4091L50.0131 38.4184L47.9044 38.6215L48.0962 40.6123ZM55.4767 39.9012L57.5854 39.698L57.3936 37.7072L55.2849 37.9104L55.4767 39.9012ZM56.4895 38.7026V39.1027H58.4895V38.7026H56.4895ZM56.4895 40.1028V40.5029H58.4895V40.1028H56.4895ZM56.7744 39.8039L56.7743 39.8039L58.2046 41.2019L58.2046 41.2019L56.7744 39.8039ZM56.7742 39.8041L56.7741 39.8041L58.2044 41.2021L58.2044 41.2021L56.7742 39.8041ZM57.3897 41.4981L57.3898 41.4982L57.5888 39.5081L57.5888 39.5081L57.3897 41.4981ZM57.3899 41.4982L57.39 41.4982L57.589 39.5081L57.5889 39.5081L57.3899 41.4982ZM56.4895 40.5031V40.5032H58.4895V40.5031H56.4895ZM56.4895 40.5033V40.5034H58.4895V40.5033H56.4895ZM57.5661 41.5004L57.5664 41.5004L57.4132 39.5063L57.4129 39.5063L57.5661 41.5004ZM57.5671 41.5004L57.5673 41.5003L57.4142 39.5062L57.4139 39.5062L57.5671 41.5004ZM57.3897 41.4981L59.2496 41.6871L59.4517 39.6973L57.5918 39.5084L57.3897 41.4981ZM63.8993 42.1594L65.7592 42.3483L65.9613 40.3586L64.1014 40.1696L63.8993 42.1594ZM65.9191 42.3517L69.0607 42.1665L68.943 40.17L65.8014 40.3552L65.9191 42.3517ZM76.9148 41.7035L80.0564 41.5183L79.9387 39.5218L76.7971 39.707L76.9148 41.7035ZM79.8491 41.509L79.8497 41.509L80.1465 39.5312L80.146 39.5311L79.8491 41.509ZM79.851 41.5093L79.8516 41.5093L80.1484 39.5315L80.1479 39.5314L79.851 41.5093ZM81 40.5204L80.9999 37.0213L78.9999 37.0213L79 40.5204L81 40.5204ZM80.9998 28.2734L80.9997 24.7743L78.9997 24.7743L78.9998 28.2734L80.9998 28.2734ZM80.4429 23.8779L78.7299 23.0309L77.8435 24.8237L79.5565 25.6707L80.4429 23.8779ZM74.4473 20.9135L72.7342 20.0665L71.8478 21.8593L73.5608 22.7063L74.4473 20.9135ZM72.0421 19.9944L70.0388 20.5092L70.5366 22.4462L72.5399 21.9314L72.0421 19.9944ZM65.0306 21.7962L63.0274 22.311L63.5252 24.2481L65.5284 23.7333L65.0306 21.7962ZM64.2763 23.2795V21.7922H62.2763V23.2795H64.2763ZM64.2763 18.0738V16.5865H62.2763V18.0738H64.2763ZM63.7193 15.69L60.3079 14.0041L59.4218 15.7971L62.8332 17.483L63.7193 15.69ZM51.7794 9.78939L48.368 8.1035L47.482 9.8965L50.8934 11.5824L51.7794 9.78939ZM46.925 9V9.00007H48.925V9H46.925ZM46.925 9.00023V9.0003H48.925V9.00023H46.925ZM56.4895 53.4963V53.8951H58.4895V53.4963H56.4895ZM56.4895 54.8919V55.2906H58.4895V54.8919H56.4895ZM57.5865 54.2953L55.4778 54.0898L55.2838 56.0804L57.3925 56.2859L57.5865 54.2953ZM50.206 53.5761L48.0973 53.3706L47.9033 55.3611L50.012 55.5666L50.206 53.5761ZM47.9042 53.3705L45.7615 53.5773L45.9537 55.568L48.0963 55.3612L47.9042 53.3705ZM40.4049 54.0942L38.2622 54.301L38.4543 56.2918L40.597 56.085L40.4049 54.0942ZM39.3583 55.2964V54.8979H37.3583V55.2964H39.3583ZM39.3583 53.9016V53.5031H37.3583V53.9016H39.3583ZM38.3095 52.5043L38.3095 52.5043L38.407 54.5019H38.407L38.3095 52.5043ZM38.3095 52.5043H38.3095L38.4069 54.5019L38.4069 54.5019L38.3095 52.5043ZM38.9237 54.3278L38.9237 54.3278L37.7927 52.6783L37.7927 52.6784L38.9237 54.3278ZM38.9238 54.3278L38.9238 54.3278L37.7927 52.6783L37.7927 52.6783L38.9238 54.3278ZM38.4621 52.5085L36.6358 52.3177L36.428 54.3069L38.2544 54.4976L38.4621 52.5085ZM32.07 51.8407L30.2436 51.65L30.0359 53.6391L31.8622 53.8299L32.07 51.8407ZM30.0791 51.6464L26.937 51.8372L27.0582 53.8335L30.2004 53.6427L30.0791 51.6464ZM19.0816 52.3141L15.9394 52.5049L16.0606 54.5012L19.2028 54.3104L19.0816 52.3141ZM15 53.503V53.5031H17V53.503H15ZM15 53.5031V53.5031H17V53.5031H15ZM15 53.5031L15.0001 56.9971L17.0001 56.997L17 53.5031L15 53.5031ZM15.0004 65.7319L15.0005 69.2258L17.0005 69.2257L17.0004 65.7318L15.0004 65.7319ZM15.5568 70.1219L17.2544 70.9624L18.1418 69.17L16.4442 68.3296L15.5568 70.1219ZM21.4985 73.0635L23.1961 73.9039L24.0834 72.1116L22.3858 71.2711L21.4985 73.0635ZM23.8881 73.9764L25.8731 73.4675L25.3764 71.5302L23.3914 72.0391L23.8881 73.9764ZM30.8356 72.1952L32.8206 71.6862L32.3239 69.7489L30.3389 70.2578L30.8356 72.1952ZM31.5723 70.7176V72.2057H33.5723V70.7176H31.5723ZM31.5723 75.9261V77.4142H33.5723V75.9261H31.5723ZM32.1293 78.3108L35.541 79.9965L36.427 78.2034L33.0152 76.5177L32.1293 78.3108ZM44.0703 84.2108L47.482 85.8965L48.368 84.1034L44.9563 82.4177L44.0703 84.2108ZM48.368 85.8965L51.7794 84.2107L50.8934 82.4177L47.482 84.1034L48.368 85.8965ZM60.3079 79.9964L63.7193 78.3107L62.8332 76.5177L59.4219 78.2034L60.3079 79.9964ZM64.2763 77.4142L64.2762 75.9242L62.2762 75.9242L62.2763 77.4142L64.2763 77.4142ZM64.2762 72.1993L64.2762 70.7093L62.2762 70.7094L62.2762 72.1993L64.2762 72.1993ZM63.0291 71.6784L65.0324 72.1891L65.5265 70.2511L63.5232 69.7403L63.0291 71.6784ZM70.0407 73.4659L72.044 73.9767L72.538 72.0386L70.5348 71.5279L70.0407 73.4659ZM72.7315 73.9054L74.4445 73.065L73.5636 71.2694L71.8505 72.1099L72.7315 73.9054ZM78.7272 70.9639L80.4402 70.1235L79.5593 68.3279L77.8463 69.1684L78.7272 70.9639ZM80.9998 69.2257V65.7318H78.9998V69.2257H80.9998ZM80.9998 56.997V53.5031H78.9998V56.997H80.9998ZM79.8718 52.5113L79.8718 52.5113L80.1277 54.4948L80.1277 54.4948L79.8718 52.5113ZM79.8717 52.5113L79.8717 52.5113L80.1276 54.4948L80.1276 54.4948L79.8717 52.5113ZM80.4719 54.3845L80.4719 54.3845L79.5274 52.6216L79.5274 52.6216L80.4719 54.3845ZM80.4719 54.3845L80.472 54.3845L79.5275 52.6215L79.5275 52.6215L80.4719 54.3845ZM80.0604 52.5048L76.9183 52.3141L76.7971 54.3104L79.9391 54.5012L80.0604 52.5048ZM69.0632 51.8371L65.9211 51.6464L65.7999 53.6427L68.942 53.8335L69.0632 51.8371ZM65.7593 51.6497L63.899 51.839L64.1015 53.8287L65.9617 53.6394L65.7593 51.6497ZM59.2485 52.3122L57.3883 52.5015L57.5907 54.4912L59.451 54.3019L59.2485 52.3122Z" fill="black" mask="url(#path-1-inside-1)"/>
<path d="M48.5025 33.4895L63.303 31.9297L70.972 33.5031L70.9998 33.5199L56.8603 34.3534L48.4893 33.5031L48.5025 33.4895Z" fill="#5E1F18"/>
<path d="M48.4895 33.5034L63.2905 32.3608L63.3923 32.2143L63.3928 14.1692L63.291 13.9629L48.4895 17.7666V33.5034Z" fill="#8C3123"/>
<path d="M71 33.5204L63.2905 32.3608L63.291 13.9629L70.9998 17.7743L71 33.5204Z" fill="#E05243"/>
<path d="M48.4895 46.4963L48.7058 46.646L63.293 47.6241L70.736 46.646L70.9998 46.503L56.8605 45.6445L48.4895 46.4963Z" fill="#F2B0A9"/>
<path d="M48.4895 46.4963L63.293 47.5846L63.3388 47.6453L63.3275 65.9123L63.291 66.0077L48.4895 62.2341V46.4963Z" fill="#8C3123"/>
<path d="M70.9998 46.5031L63.293 47.5846L63.291 66.0077L70.9998 62.2257V46.5031Z" fill="#E05243"/>
<path d="M29.2797 33.4754L14.6472 32.2368L7.04874 33.4833L7.00049 33.5206L21.1397 34.3542L29.3582 33.5202L29.2797 33.4757V33.4754Z" fill="#5E1F18"/>
<path d="M7.00049 33.5205L14.6397 32.4152L14.8645 32.2578V14.1742L14.6397 13.963L7.00049 17.7751V33.5205Z" fill="#8C3123"/>
<path d="M29.3582 33.5198L14.6396 32.415V13.9628L29.3589 17.7665L29.3582 33.5198Z" fill="#E05243"/>
<path d="M29.3583 46.503L29.0205 46.7464L14.6398 47.8119L7.244 46.7464L7 46.503L21.1398 45.6446L29.3583 46.503Z" fill="#F2B0A9"/>
<path d="M7 46.5031L14.6395 47.5753L14.8338 47.8105L14.8545 65.6799L14.6398 66.0078L7.0005 62.2258L7 46.5031Z" fill="#8C3123"/>
<path d="M29.3582 46.5031L14.6394 47.5753L14.6397 66.0077L29.3582 62.2341V46.5031Z" fill="#E05243"/>
<path d="M54.276 48.8545L39.0003 47.3658L23.5723 48.8548L23.7898 49.0364L38.925 51.4122L54.0583 49.0364L54.276 48.8545Z" fill="#F2B0A9"/>
<path d="M23.5723 48.8546L38.925 51.0776L39.0808 51.2833L39.1005 77.707L38.925 78L23.5723 70.4142V48.8546Z" fill="#8C3123"/>
<path d="M54.2761 48.8544L38.925 51.0775V77.9999L54.2763 70.4142L54.2761 48.8544Z" fill="#E05243"/>
<path d="M39.0003 32.6169L23.5723 31.145L23.612 31.1226L38.9243 28.7751L54.2298 31.128L54.2763 31.145L39.0003 32.6169Z" fill="#5E1F18"/>
<path d="M23.5723 31.1453L38.925 28.9345L38.9985 28.8683L38.9645 2.04104L38.925 2.00027L23.5723 9.58676V31.1453Z" fill="#8C3123"/>
<path d="M54.2763 31.1451L38.925 28.9343V2L54.2763 9.58649V31.1451Z" fill="#E05243"/>
</svg>
