<svg width="88" height="88" viewBox="0 0 88 88" fill="none" xmlns="http://www.w3.org/2000/svg">
<mask id="path-1-inside-1" fill="white">
<path fill-rule="evenodd" clip-rule="evenodd" d="M31.6721 20.3389L48.4554 12L48.4556 12.0003V12L79.9111 27.7278V38.9166L79.9109 38.9166L64.6053 40.4999L58.3777 39.5019V41.6597L79.9111 44.4056V55.4887L58.3777 58.1624V60.4981L64.6053 59.5001L79.9109 61.0832H79.9111V72.2722L48.4556 88V87.9946L48.4554 88L31.6721 79.5554V74.8242L25.8665 76.3887L17 72.1666V27.7278L25.8665 23.2945V23.2945H25.8665L25.8665 23.2945L31.6721 24.8778V20.3389Z"/>
</mask>
<path fill-rule="evenodd" clip-rule="evenodd" d="M31.6721 20.3389L48.4554 12L48.4556 12.0003V12L79.9111 27.7278V38.9166L79.9109 38.9166L64.6053 40.4999L58.3777 39.5019V41.6597L79.9111 44.4056V55.4887L58.3777 58.1624V60.4981L64.6053 59.5001L79.9109 61.0832H79.9111V72.2722L48.4556 88V87.9946L48.4554 88L31.6721 79.5554V74.8242L25.8665 76.3887L17 72.1666V27.7278L25.8665 23.2945V23.2945H25.8665L25.8665 23.2945L31.6721 24.8778V20.3389Z" fill="#F7F7FE"/>
<path d="M48.4554 12L48.8632 11.7108C48.7208 11.5099 48.4534 11.4427 48.2329 11.5522L48.4554 12ZM31.6721 20.3389L31.4496 19.8911C31.2796 19.9756 31.1721 20.1491 31.1721 20.3389H31.6721ZM48.4556 12.0003L48.0477 12.2895C48.1736 12.4671 48.3999 12.5428 48.6073 12.4767C48.8147 12.4106 48.9556 12.218 48.9556 12.0003H48.4556ZM48.4556 12L48.6792 11.5528C48.5242 11.4753 48.3401 11.4836 48.1927 11.5747C48.0453 11.6658 47.9556 11.8267 47.9556 12H48.4556ZM79.9111 27.7278H80.4111C80.4111 27.5384 80.3041 27.3652 80.1347 27.2806L79.9111 27.7278ZM79.9111 38.9166L79.8604 39.414C80.0011 39.4284 80.1413 39.3824 80.2463 39.2876C80.3512 39.1928 80.4111 39.058 80.4111 38.9166H79.9111ZM79.9109 38.9166L79.9616 38.4191C79.9276 38.4157 79.8934 38.4157 79.8594 38.4192L79.9109 38.9166ZM64.6053 40.4999L64.5262 40.9936C64.5694 41.0005 64.6133 41.0018 64.6568 40.9973L64.6053 40.4999ZM58.3777 39.5019L58.4568 39.0082C58.3122 38.9851 58.1648 39.0264 58.0533 39.1214C57.9419 39.2164 57.8777 39.3555 57.8777 39.5019H58.3777ZM58.3777 41.6597H57.8777C57.8777 41.9114 58.0648 42.1239 58.3145 42.1557L58.3777 41.6597ZM79.9111 44.4056H80.4111C80.4111 44.1539 80.224 43.9414 79.9743 43.9096L79.9111 44.4056ZM79.9111 55.4887L79.9727 55.9849C80.2231 55.9538 80.4111 55.7411 80.4111 55.4887H79.9111ZM58.3777 58.1624L58.3161 57.6662C58.0657 57.6973 57.8777 57.9101 57.8777 58.1624H58.3777ZM58.3777 60.4981H57.8777C57.8777 60.6445 57.9419 60.7836 58.0533 60.8786C58.1648 60.9735 58.3122 61.0149 58.4568 60.9918L58.3777 60.4981ZM64.6053 59.5001L64.6568 59.0027C64.6133 58.9982 64.5694 58.9994 64.5262 59.0064L64.6053 59.5001ZM79.9109 61.0832L79.8594 61.5805C79.8765 61.5823 79.8937 61.5832 79.9109 61.5832V61.0832ZM79.9111 61.0832H80.4111C80.4111 60.807 80.1872 60.5832 79.9111 60.5832V61.0832ZM79.9111 72.2722L80.1347 72.7194C80.3041 72.6348 80.4111 72.4616 80.4111 72.2722H79.9111ZM48.4556 88H47.9556C47.9556 88.1733 48.0453 88.3342 48.1927 88.4253C48.3401 88.5164 48.5242 88.5247 48.6792 88.4472L48.4556 88ZM48.4556 87.9946H48.9556C48.9556 87.7221 48.7374 87.4998 48.465 87.4947C48.1926 87.4895 47.9662 87.7035 47.9559 87.9757L48.4556 87.9946ZM48.4554 88L48.2306 88.4466C48.3826 88.5231 48.5631 88.5171 48.7096 88.4305C48.8561 88.344 48.9486 88.1889 48.955 88.0189L48.4554 88ZM31.6721 79.5554H31.1721C31.1721 79.7443 31.2786 79.9171 31.4474 80.0021L31.6721 79.5554ZM31.6721 74.8242H32.1721C32.1721 74.6687 32.0997 74.522 31.9762 74.4273C31.8527 74.3327 31.6922 74.301 31.542 74.3415L31.6721 74.8242ZM25.8665 76.3887L25.6516 76.8402C25.7592 76.8914 25.8815 76.9025 25.9966 76.8715L25.8665 76.3887ZM17 72.1666H16.5C16.5 72.3594 16.6109 72.5351 16.785 72.618L17 72.1666ZM17 27.7278L16.7764 27.2805C16.607 27.3652 16.5 27.5384 16.5 27.7278H17ZM25.8665 23.2945L26.0901 23.7417C26.2595 23.657 26.3665 23.4839 26.3665 23.2945H25.8665ZM25.8665 23.2945V22.7945C25.5903 22.7945 25.3665 23.0184 25.3665 23.2945H25.8665ZM25.8665 23.2945L26.2776 23.0099C26.1842 22.875 26.0306 22.7945 25.8665 22.7945V23.2945ZM25.8665 23.2945L25.4554 23.5791C25.5224 23.6759 25.6214 23.7459 25.735 23.7769L25.8665 23.2945ZM31.6721 24.8778L31.5406 25.3602C31.6909 25.4012 31.8518 25.3698 31.9756 25.2752C32.0995 25.1806 32.1721 25.0337 32.1721 24.8778H31.6721ZM44.5033 13.4053C44.256 13.5282 44.1551 13.8283 44.278 14.0756C44.4009 14.3229 44.7009 14.4237 44.9482 14.3009L44.5033 13.4053ZM35.6242 18.9336C35.8715 18.8107 35.9724 18.5106 35.8495 18.2633C35.7266 18.016 35.4265 17.9152 35.1792 18.038L35.6242 18.9336ZM31.1721 21.3476C31.1721 21.6237 31.396 21.8476 31.6721 21.8476C31.9483 21.8476 32.1721 21.6237 32.1721 21.3476H31.1721ZM32.1721 23.8692C32.1721 23.593 31.9483 23.3692 31.6721 23.3692C31.396 23.3692 31.1721 23.593 31.1721 23.8692H32.1721ZM30.5135 24.0436C30.2471 23.9709 29.9723 24.128 29.8996 24.3944C29.827 24.6608 29.984 24.9357 30.2504 25.0084L30.5135 24.0436ZM27.0251 24.1287C27.2915 24.2014 27.5664 24.0443 27.6391 23.7779C27.7117 23.5115 27.5546 23.2366 27.2882 23.164L27.0251 24.1287ZM26.2776 23.0099C26.1205 22.7829 25.809 22.7262 25.5819 22.8834C25.3549 23.0406 25.2983 23.3521 25.4554 23.5791L26.2776 23.0099ZM25.4554 23.5791C25.6126 23.8061 25.9241 23.8628 26.1511 23.7056C26.3782 23.5484 26.4348 23.2369 26.2776 23.0099L25.4554 23.5791ZM25.8665 22.7945C25.5904 22.7945 25.3665 23.0184 25.3665 23.2945C25.3665 23.5706 25.5904 23.7945 25.8665 23.7945V22.7945ZM25.8665 23.7945C26.1426 23.7945 26.3665 23.5706 26.3665 23.2945C26.3665 23.0184 26.1426 22.7945 25.8665 22.7945V23.7945ZM25.3665 23.2945C25.3665 23.5706 25.5903 23.7945 25.8665 23.7945C26.1426 23.7945 26.3665 23.5706 26.3665 23.2945H25.3665ZM26.3665 23.2945C26.3665 23.0184 26.1426 22.7945 25.8665 22.7945C25.5903 22.7945 25.3665 23.0184 25.3665 23.2945H26.3665ZM23.6725 23.8325C23.4255 23.956 23.3254 24.2563 23.4489 24.5033C23.5724 24.7503 23.8727 24.8504 24.1197 24.7269L23.6725 23.8325ZM19.1939 27.1898C19.4409 27.0663 19.541 26.766 19.4175 26.519C19.294 26.272 18.9937 26.1719 18.7467 26.2954L19.1939 27.1898ZM16.5 32.6654C16.5 32.9415 16.7239 33.1654 17 33.1654C17.2761 33.1654 17.5 32.9415 17.5 32.6654H16.5ZM17.5 45.0095C17.5 44.7334 17.2761 44.5095 17 44.5095C16.7239 44.5095 16.5 44.7334 16.5 45.0095H17.5ZM16.5 54.8848C16.5 55.1609 16.7239 55.3848 17 55.3848C17.2761 55.3848 17.5 55.1609 17.5 54.8848H16.5ZM17.5 67.2289C17.5 66.9528 17.2761 66.7289 17 66.7289C16.7239 66.7289 16.5 66.9528 16.5 67.2289H17.5ZM18.7554 73.5562C19.0047 73.675 19.303 73.5691 19.4218 73.3198C19.5405 73.0705 19.4346 72.7721 19.1853 72.6534L18.7554 73.5562ZM24.1112 74.999C23.8618 74.8803 23.5635 74.9862 23.4448 75.2355C23.326 75.4848 23.4319 75.7832 23.6812 75.9019L24.1112 74.999ZM27.2868 76.5238C27.5534 76.452 27.7113 76.1776 27.6394 75.911C27.5676 75.6443 27.2932 75.4864 27.0266 75.5583L27.2868 76.5238ZM30.2519 74.6891C29.9853 74.761 29.8274 75.0354 29.8992 75.302C29.9711 75.5686 30.2455 75.7265 30.5121 75.6547L30.2519 74.6891ZM31.1721 75.8756C31.1721 76.1517 31.396 76.3756 31.6721 76.3756C31.9483 76.3756 32.1721 76.1517 32.1721 75.8756H31.1721ZM32.1721 78.504C32.1721 78.2279 31.9483 78.004 31.6721 78.004C31.396 78.004 31.1721 78.2279 31.1721 78.504H32.1721ZM35.177 81.8786C35.4237 82.0028 35.7243 81.9034 35.8484 81.6567C35.9725 81.41 35.8731 81.1095 35.6265 80.9853L35.177 81.8786ZM44.9505 85.6768C44.7038 85.5527 44.4032 85.652 44.2791 85.8987C44.155 86.1454 44.2543 86.446 44.501 86.5701L44.9505 85.6768ZM48.9551 88.0176C48.9655 87.7417 48.7502 87.5096 48.4743 87.4992C48.1983 87.4887 47.9662 87.704 47.9558 87.9799L48.9551 88.0176ZM47.9559 87.9769C47.9455 88.2529 48.1607 88.485 48.4367 88.4954C48.7126 88.5059 48.9448 88.2906 48.9552 88.0146L47.9559 87.9769ZM47.9556 87.9958C47.9556 88.2719 48.1794 88.4958 48.4556 88.4958C48.7317 88.4958 48.9556 88.2719 48.9556 87.9958H47.9556ZM48.9556 87.9988C48.9556 87.7227 48.7317 87.4988 48.4556 87.4988C48.1794 87.4988 47.9556 87.7227 47.9556 87.9988H48.9556ZM52.1742 86.6997C52.4212 86.5762 52.5213 86.2759 52.3978 86.0289C52.2743 85.7819 51.974 85.6818 51.727 85.8053L52.1742 86.6997ZM60.4647 81.4364C60.2177 81.5599 60.1176 81.8603 60.2411 82.1073C60.3646 82.3542 60.6649 82.4544 60.9119 82.3309L60.4647 81.4364ZM67.902 78.8358C68.149 78.7123 68.2491 78.412 68.1256 78.165C68.0021 77.918 67.7018 77.8179 67.4548 77.9414L67.902 78.8358ZM76.1924 73.5725C75.9454 73.696 75.8453 73.9964 75.9688 74.2434C76.0923 74.4904 76.3927 74.5905 76.6396 74.467L76.1924 73.5725ZM80.4111 69.7858C80.4111 69.5096 80.1872 69.2858 79.9111 69.2858C79.635 69.2858 79.4111 69.5096 79.4111 69.7858H80.4111ZM79.4111 63.5696C79.4111 63.8458 79.635 64.0696 79.9111 64.0696C80.1872 64.0696 80.4111 63.8458 80.4111 63.5696H79.4111ZM79.911 60.5832C79.6349 60.5832 79.411 60.807 79.411 61.0832C79.411 61.3593 79.6349 61.5832 79.911 61.5832V60.5832ZM79.9109 61.5832C80.1871 61.5832 80.4109 61.3593 80.4109 61.0832C80.4109 60.807 80.1871 60.5832 79.9109 60.5832V61.5832ZM76.5611 60.234C76.2864 60.2056 76.0407 60.4052 76.0123 60.6799C75.9839 60.9546 76.1835 61.2003 76.4582 61.2287L76.5611 60.234ZM67.9551 60.3492C68.2298 60.3776 68.4755 60.178 68.5039 59.9033C68.5323 59.6286 68.3327 59.3829 68.058 59.3545L67.9551 60.3492ZM63.1423 59.2281C62.8696 59.2718 62.684 59.5283 62.7277 59.801C62.7714 60.0736 63.0279 60.2592 63.3005 60.2155L63.1423 59.2281ZM59.8407 60.77C60.1134 60.7263 60.299 60.4698 60.2553 60.1972C60.2116 59.9245 59.9552 59.7389 59.6825 59.7826L59.8407 60.77ZM58.8777 59.979C58.8777 59.7029 58.6539 59.479 58.3777 59.479C58.1016 59.479 57.8777 59.7029 57.8777 59.979H58.8777ZM57.8777 58.6814C57.8777 58.9576 58.1016 59.1814 58.3777 59.1814C58.6539 59.1814 58.8777 58.9576 58.8777 58.6814H57.8777ZM63.2245 58.0645C63.4986 58.0304 63.6931 57.7807 63.6591 57.5067C63.6251 57.2326 63.3753 57.0381 63.1013 57.0721L63.2245 58.0645ZM75.0643 55.5867C74.7902 55.6207 74.5957 55.8705 74.6297 56.1445C74.6637 56.4185 74.9135 56.6131 75.1875 56.5791L75.0643 55.5867ZM80.4111 53.0258C80.4111 52.7497 80.1872 52.5258 79.9111 52.5258C79.635 52.5258 79.4111 52.7497 79.4111 53.0258H80.4111ZM79.4111 46.8685C79.4111 47.1447 79.635 47.3685 79.9111 47.3685C80.1872 47.3685 80.4111 47.1447 80.4111 46.8685H79.4111ZM75.1891 43.2994C74.9152 43.2645 74.6648 43.4582 74.6299 43.7322C74.595 44.0061 74.7887 44.2565 75.0627 44.2914L75.1891 43.2994ZM63.0997 42.7659C63.3736 42.8008 63.624 42.6071 63.6589 42.3332C63.6938 42.0593 63.5001 41.8089 63.2262 41.7739L63.0997 42.7659ZM58.8777 41.1802C58.8777 40.9041 58.6539 40.6802 58.3777 40.6802C58.1016 40.6802 57.8777 40.9041 57.8777 41.1802H58.8777ZM57.8777 39.9814C57.8777 40.2576 58.1016 40.4814 58.3777 40.4814C58.6539 40.4814 58.8777 40.2576 58.8777 39.9814H57.8777ZM59.6825 40.2174C59.9552 40.2611 60.2116 40.0755 60.2553 39.8028C60.299 39.5302 60.1134 39.2737 59.8407 39.23L59.6825 40.2174ZM63.3005 39.7844C63.0279 39.7407 62.7714 39.9264 62.7277 40.199C62.684 40.4717 62.8696 40.7281 63.1423 40.7718L63.3005 39.7844ZM68.058 40.6454C68.3327 40.617 68.5323 40.3713 68.5039 40.0966C68.4755 39.8219 68.2298 39.6223 67.9551 39.6507L68.058 40.6454ZM76.4582 38.7711C76.1835 38.7995 75.9839 39.0452 76.0123 39.3199C76.0407 39.5946 76.2864 39.7942 76.5611 39.7658L76.4582 38.7711ZM79.8603 39.414C80.135 39.442 80.3804 39.242 80.4084 38.9672C80.4363 38.6925 80.2363 38.4471 79.9616 38.4192L79.8603 39.414ZM79.9617 38.4192C79.687 38.3912 79.4416 38.5912 79.4136 38.8659C79.3856 39.1406 79.5857 39.386 79.8604 39.414L79.9617 38.4192ZM80.4111 36.4302C80.4111 36.154 80.1872 35.9302 79.9111 35.9302C79.635 35.9302 79.4111 36.154 79.4111 36.4302H80.4111ZM79.4111 30.2142C79.4111 30.4903 79.635 30.7142 79.9111 30.7142C80.1872 30.7142 80.4111 30.4903 80.4111 30.2142H79.4111ZM76.6396 25.533C76.3927 25.4095 76.0923 25.5096 75.9688 25.7566C75.8453 26.0036 75.9454 26.304 76.1924 26.4274L76.6396 25.533ZM67.4548 22.0586C67.7018 22.1821 68.0021 22.082 68.1256 21.835C68.2491 21.588 68.149 21.2877 67.902 21.1642L67.4548 22.0586ZM60.9119 17.6691C60.6649 17.5456 60.3646 17.6458 60.2411 17.8927C60.1176 18.1397 60.2177 18.4401 60.4647 18.5636L60.9119 17.6691ZM51.727 14.1947C51.974 14.3182 52.2743 14.2181 52.3978 13.9711C52.5213 13.7241 52.4212 13.4238 52.1742 13.3003L51.727 14.1947ZM47.9556 12.0001C47.9556 12.2762 48.1794 12.5001 48.4556 12.5001C48.7317 12.5001 48.9556 12.2762 48.9556 12.0001H47.9556ZM48.9556 12.0002C48.9556 11.7241 48.7317 11.5002 48.4556 11.5002C48.1794 11.5002 47.9556 11.7241 47.9556 12.0002H48.9556ZM48.8634 11.711C48.7036 11.4857 48.3915 11.4326 48.1663 11.5924C47.941 11.7521 47.8879 12.0642 48.0477 12.2895L48.8634 11.711ZM48.0476 12.2893C48.2073 12.5145 48.5194 12.5677 48.7446 12.4079C48.9699 12.2482 49.023 11.9361 48.8633 11.7108L48.0476 12.2893ZM48.2329 11.5522L44.5033 13.4053L44.9482 14.3009L48.6778 12.4478L48.2329 11.5522ZM35.1792 18.038L31.4496 19.8911L31.8946 20.7867L35.6242 18.9336L35.1792 18.038ZM31.1721 20.3389V21.3476H32.1721V20.3389H31.1721ZM31.1721 23.8692V24.8778H32.1721V23.8692H31.1721ZM31.8037 24.3954L30.5135 24.0436L30.2504 25.0084L31.5406 25.3602L31.8037 24.3954ZM27.2882 23.164L25.9981 22.8121L25.735 23.7769L27.0251 24.1287L27.2882 23.164ZM26.2776 23.0099L26.2776 23.0099L25.4554 23.5791L25.4554 23.5791L26.2776 23.0099ZM26.2776 23.0099L26.2776 23.0099L25.4554 23.5791L25.4554 23.5791L26.2776 23.0099ZM25.8665 22.7945H25.8665V23.7945H25.8665V22.7945ZM25.8665 22.7945H25.8665V23.7945H25.8665V22.7945ZM25.3665 23.2945V23.2945H26.3665V23.2945H25.3665ZM25.3665 23.2945V23.2945H26.3665V23.2945H25.3665ZM25.6428 22.8473L23.6725 23.8325L24.1197 24.7269L26.0901 23.7417L25.6428 22.8473ZM18.7467 26.2954L16.7764 27.2805L17.2236 28.175L19.1939 27.1898L18.7467 26.2954ZM16.5 27.7278V32.6654H17.5V27.7278H16.5ZM16.5 45.0095V54.8848H17.5V45.0095H16.5ZM16.5 67.2289V72.1666H17.5V67.2289H16.5ZM16.785 72.618L18.7554 73.5562L19.1853 72.6534L17.215 71.7151L16.785 72.618ZM23.6812 75.9019L25.6516 76.8402L26.0815 75.9373L24.1112 74.999L23.6812 75.9019ZM25.9966 76.8715L27.2868 76.5238L27.0266 75.5583L25.7364 75.9059L25.9966 76.8715ZM30.5121 75.6547L31.8022 75.307L31.542 74.3415L30.2519 74.6891L30.5121 75.6547ZM31.1721 74.8242V75.8756H32.1721V74.8242H31.1721ZM31.1721 78.504V79.5554H32.1721V78.504H31.1721ZM31.4474 80.0021L35.177 81.8786L35.6265 80.9853L31.8969 79.1088L31.4474 80.0021ZM44.501 86.5701L48.2306 88.4466L48.6801 87.5534L44.9505 85.6768L44.501 86.5701ZM48.955 88.0189L48.9551 88.0176L47.9558 87.9799L47.9557 87.9811L48.955 88.0189ZM48.9552 88.0146L48.9552 88.0134L47.9559 87.9757L47.9559 87.9769L48.9552 88.0146ZM47.9556 87.9946V87.9958H48.9556V87.9946H47.9556ZM47.9556 87.9988V88H48.9556V87.9988H47.9556ZM48.6792 88.4472L52.1742 86.6997L51.727 85.8053L48.232 87.5528L48.6792 88.4472ZM60.9119 82.3309L67.902 78.8358L67.4548 77.9414L60.4647 81.4364L60.9119 82.3309ZM76.6396 74.467L80.1347 72.7194L79.6875 71.825L76.1924 73.5725L76.6396 74.467ZM80.4111 72.2722V69.7858H79.4111V72.2722H80.4111ZM80.4111 63.5696V61.0832H79.4111V63.5696H80.4111ZM79.9111 60.5832H79.911V61.5832H79.9111V60.5832ZM79.9109 60.5832H79.9109V61.5832H79.9109V60.5832ZM79.9623 60.5858L76.5611 60.234L76.4582 61.2287L79.8594 61.5805L79.9623 60.5858ZM68.058 59.3545L64.6568 59.0027L64.5539 59.9974L67.9551 60.3492L68.058 59.3545ZM64.5262 59.0064L63.1423 59.2281L63.3005 60.2155L64.6844 59.9938L64.5262 59.0064ZM59.6825 59.7826L58.2986 60.0044L58.4568 60.9918L59.8407 60.77L59.6825 59.7826ZM58.8777 60.4981V59.979H57.8777V60.4981H58.8777ZM58.8777 58.6814V58.1624H57.8777V58.6814H58.8777ZM58.4393 58.6586L63.2245 58.0645L63.1013 57.0721L58.3161 57.6662L58.4393 58.6586ZM75.1875 56.5791L79.9727 55.9849L79.8495 54.9926L75.0643 55.5867L75.1875 56.5791ZM80.4111 55.4887V53.0258H79.4111V55.4887H80.4111ZM80.4111 46.8685V44.4056H79.4111V46.8685H80.4111ZM79.9743 43.9096L75.1891 43.2994L75.0627 44.2914L79.8479 44.9016L79.9743 43.9096ZM63.2262 41.7739L58.441 41.1638L58.3145 42.1557L63.0997 42.7659L63.2262 41.7739ZM58.8777 41.6597V41.1802H57.8777V41.6597H58.8777ZM58.8777 39.9814V39.5019H57.8777V39.9814H58.8777ZM58.2986 39.9956L59.6825 40.2174L59.8407 39.23L58.4568 39.0082L58.2986 39.9956ZM63.1423 40.7718L64.5262 40.9936L64.6844 40.0062L63.3005 39.7844L63.1423 40.7718ZM64.6568 40.9973L68.058 40.6454L67.9551 39.6507L64.5539 40.0026L64.6568 40.9973ZM76.5611 39.7658L79.9623 39.4139L79.8594 38.4192L76.4582 38.7711L76.5611 39.7658ZM79.8602 39.414L79.8603 39.414L79.9616 38.4192L79.9616 38.4191L79.8602 39.414ZM79.8604 39.414L79.8604 39.414L79.9618 38.4192L79.9617 38.4192L79.8604 39.414ZM80.4111 38.9166V36.4302H79.4111V38.9166H80.4111ZM80.4111 30.2142V27.7278H79.4111V30.2142H80.4111ZM80.1347 27.2806L76.6396 25.533L76.1924 26.4274L79.6875 28.175L80.1347 27.2806ZM67.902 21.1642L60.9119 17.6691L60.4647 18.5636L67.4548 22.0586L67.902 21.1642ZM52.1742 13.3003L48.6792 11.5528L48.232 12.4472L51.727 14.1947L52.1742 13.3003ZM47.9556 12V12.0001H48.9556V12H47.9556ZM47.9556 12.0002V12.0003H48.9556V12.0002H47.9556ZM48.8634 11.7111L48.8634 11.711L48.0477 12.2895L48.0477 12.2895L48.8634 11.7111ZM48.8633 11.7108L48.8632 11.7108L48.0475 12.2892L48.0476 12.2893L48.8633 11.7108ZM48.4554 12L49.2711 11.4215C48.9862 11.0199 48.4514 10.8853 48.0104 11.1045L48.4554 12ZM31.6721 20.3389L31.2272 19.4434C30.8871 19.6123 30.6721 19.9592 30.6721 20.3389H31.6721ZM48.4556 12.0003L47.6399 12.5788C47.8917 12.9339 48.3443 13.0852 48.7591 12.9531C49.1739 12.8209 49.4556 12.4356 49.4556 12.0003H48.4556ZM48.4556 12L48.9028 11.1056C48.5928 10.9506 48.2247 10.9671 47.9298 11.1493C47.635 11.3316 47.4556 11.6534 47.4556 12H48.4556ZM79.9111 27.7278H80.9111C80.9111 27.349 80.6971 27.0027 80.3583 26.8333L79.9111 27.7278ZM79.9111 38.9166L79.8098 39.9114C80.0912 39.9401 80.3715 39.8483 80.5814 39.6587C80.7913 39.4691 80.9111 39.1994 80.9111 38.9166H79.9111ZM79.9109 38.9166L80.0122 37.9217C79.9443 37.9148 79.8759 37.9149 79.808 37.9219L79.9109 38.9166ZM64.6053 40.4999L64.4471 41.4873C64.5334 41.5012 64.6212 41.5036 64.7082 41.4946L64.6053 40.4999ZM58.3777 39.5019L58.5359 38.5145C58.2468 38.4682 57.9518 38.5509 57.729 38.7409C57.5061 38.9309 57.3777 39.2091 57.3777 39.5019H58.3777ZM58.3777 41.6597H57.3777C57.3777 42.1631 57.7519 42.588 58.2512 42.6517L58.3777 41.6597ZM79.9111 44.4056H80.9111C80.9111 43.9022 80.5369 43.4773 80.0376 43.4136L79.9111 44.4056ZM79.9111 55.4887L80.0343 56.4811C80.5351 56.4189 80.9111 55.9934 80.9111 55.4887H79.9111ZM58.3777 58.1624L58.2545 57.17C57.7537 57.2322 57.3777 57.6578 57.3777 58.1624H58.3777ZM58.3777 60.4981H57.3777C57.3777 60.7909 57.5061 61.0691 57.729 61.2591C57.9518 61.449 58.2468 61.5318 58.5359 61.4855L58.3777 60.4981ZM64.6053 59.5001L64.7082 58.5054C64.6212 58.4964 64.5334 58.4988 64.4471 58.5127L64.6053 59.5001ZM79.9109 61.0832L79.808 62.0779C79.8422 62.0814 79.8765 62.0832 79.9109 62.0832V61.0832ZM79.9111 61.0832H80.9111C80.9111 60.5309 80.4634 60.0832 79.9111 60.0832V61.0832ZM79.9111 72.2722L80.3583 73.1667C80.6971 72.9973 80.9111 72.651 80.9111 72.2722H79.9111ZM48.4556 88H47.4556C47.4556 88.3466 47.635 88.6684 47.9298 88.8507C48.2247 89.0329 48.5928 89.0494 48.9028 88.8944L48.4556 88ZM48.4556 87.9946H49.4556C49.4556 87.4497 49.0193 87.005 48.4744 86.9948C47.9296 86.9845 47.4768 87.4123 47.4563 87.9569L48.4556 87.9946ZM48.4554 88L48.0059 88.8933C48.3099 89.0463 48.6708 89.0341 48.9639 88.8611C49.2569 88.688 49.4418 88.3778 49.4547 88.0377L48.4554 88ZM31.6721 79.5554H30.6721C30.6721 79.9333 30.8851 80.2789 31.2227 80.4487L31.6721 79.5554ZM31.6721 74.8242H32.6721C32.6721 74.5131 32.5273 74.2197 32.2803 74.0304C32.0333 73.8412 31.7123 73.7777 31.4119 73.8587L31.6721 74.8242ZM25.8665 76.3887L25.4366 77.2916C25.6518 77.3941 25.8966 77.4163 26.1267 77.3543L25.8665 76.3887ZM17 72.1666H16C16 72.5523 16.2218 72.9036 16.5701 73.0694L17 72.1666ZM17 27.7278L16.5528 26.8333C16.214 27.0027 16 27.349 16 27.7278H17ZM25.8665 23.2945L26.3137 24.189C26.6525 24.0196 26.8665 23.6733 26.8665 23.2945H25.8665ZM25.8665 23.2945V22.2945C25.3142 22.2945 24.8665 22.7422 24.8665 23.2945H25.8665ZM25.8665 23.2945L26.6887 22.7253C26.5019 22.4555 26.1947 22.2945 25.8665 22.2945V23.2945ZM25.8665 23.2945L25.0444 23.8637C25.1783 24.0573 25.3763 24.1973 25.6034 24.2593L25.8665 23.2945ZM31.6721 24.8778L31.409 25.8426C31.7097 25.9246 32.0314 25.8617 32.2791 25.6725C32.5268 25.4833 32.6721 25.1895 32.6721 24.8778H31.6721ZM44.2808 12.9575C43.7862 13.2033 43.5845 13.8035 43.8302 14.2981C44.076 14.7927 44.6761 14.9944 45.1707 14.7486L44.2808 12.9575ZM35.8467 19.3814C36.3413 19.1356 36.543 18.5355 36.2973 18.0409C36.0515 17.5463 35.4514 17.3445 34.9568 17.5903L35.8467 19.3814ZM30.6721 21.3476C30.6721 21.8998 31.1198 22.3476 31.6721 22.3476C32.2244 22.3476 32.6721 21.8998 32.6721 21.3476H30.6721ZM32.6721 23.8692C32.6721 23.3169 32.2244 22.8692 31.6721 22.8692C31.1198 22.8692 30.6721 23.3169 30.6721 23.8692H32.6721ZM30.6451 23.5612C30.1123 23.4159 29.5625 23.73 29.4172 24.2629C29.2719 24.7957 29.5861 25.3454 30.1189 25.4907L30.6451 23.5612ZM26.8936 24.6111C27.4264 24.7564 27.9761 24.4423 28.1214 23.9095C28.2668 23.3767 27.9526 22.8269 27.4198 22.6816L26.8936 24.6111ZM26.6887 22.7253C26.3744 22.2712 25.7514 22.158 25.2973 22.4723C24.8432 22.7867 24.73 23.4096 25.0443 23.8637L26.6887 22.7253ZM25.0443 23.8637C25.3587 24.3178 25.9817 24.4311 26.4357 24.1167C26.8898 23.8023 27.0031 23.1794 26.6887 22.7253L25.0443 23.8637ZM25.8665 22.2945C25.3142 22.2945 24.8665 22.7422 24.8665 23.2945C24.8665 23.8468 25.3142 24.2945 25.8665 24.2945V22.2945ZM25.8665 24.2945C26.4188 24.2945 26.8665 23.8468 26.8665 23.2945C26.8665 22.7422 26.4188 22.2945 25.8665 22.2945V24.2945ZM24.8665 23.2945C24.8665 23.8468 25.3142 24.2945 25.8665 24.2945C26.4187 24.2945 26.8665 23.8468 26.8665 23.2945H24.8665ZM26.8665 23.2945C26.8665 22.7422 26.4187 22.2945 25.8665 22.2945C25.3142 22.2945 24.8665 22.7422 24.8665 23.2945H26.8665ZM23.4489 23.3853C22.9549 23.6323 22.7547 24.2329 23.0017 24.7269C23.2487 25.2209 23.8494 25.4211 24.3433 25.1741L23.4489 23.3853ZM19.4175 27.637C19.9115 27.39 20.1117 26.7894 19.8648 26.2954C19.6178 25.8014 19.0171 25.6012 18.5231 25.8482L19.4175 27.637ZM16 32.6654C16 33.2177 16.4477 33.6654 17 33.6654C17.5523 33.6654 18 33.2177 18 32.6654H16ZM18 45.0095C18 44.4572 17.5523 44.0095 17 44.0095C16.4477 44.0095 16 44.4572 16 45.0095H18ZM16 54.8848C16 55.4371 16.4477 55.8848 17 55.8848C17.5523 55.8848 18 55.4371 18 54.8848H16ZM18 67.2289C18 66.6766 17.5523 66.2289 17 66.2289C16.4477 66.2289 16 66.6766 16 67.2289H18ZM18.5404 74.0077C19.039 74.2451 19.6358 74.0334 19.8732 73.5348C20.1106 73.0361 19.8989 72.4394 19.4003 72.202L18.5404 74.0077ZM24.3261 74.5476C23.8275 74.3102 23.2308 74.5219 22.9933 75.0205C22.7559 75.5192 22.9676 76.1159 23.4663 76.3533L24.3261 74.5476ZM27.4169 77.0066C27.9501 76.8629 28.2659 76.3141 28.1222 75.7809C27.9785 75.2476 27.4297 74.9318 26.8965 75.0755L27.4169 77.0066ZM30.1218 74.2063C29.5885 74.35 29.2727 74.8988 29.4164 75.4321C29.5601 75.9654 30.1089 76.2812 30.6422 76.1375L30.1218 74.2063ZM30.6721 75.8756C30.6721 76.4279 31.1198 76.8756 31.6721 76.8756C32.2244 76.8756 32.6721 76.4279 32.6721 75.8756H30.6721ZM32.6721 78.504C32.6721 77.9518 32.2244 77.504 31.6721 77.504C31.1198 77.504 30.6721 77.9518 30.6721 78.504H32.6721ZM34.9523 82.3253C35.4456 82.5735 36.0468 82.3748 36.295 81.8815C36.5433 81.3881 36.3446 80.7869 35.8512 80.5387L34.9523 82.3253ZM45.1752 85.2301C44.6819 84.9819 44.0807 85.1806 43.8325 85.674C43.5842 86.1673 43.7829 86.7685 44.2763 87.0167L45.1752 85.2301ZM49.4547 88.0365C49.4755 87.4846 49.045 87.0203 48.4931 86.9995C47.9412 86.9787 47.4769 87.4092 47.4561 87.9611L49.4547 88.0365ZM47.4562 87.9581C47.4354 88.51 47.8659 88.9743 48.4178 88.9951C48.9697 89.0159 49.434 88.5854 49.4548 88.0335L47.4562 87.9581ZM47.4556 87.9958C47.4556 88.5481 47.9033 88.9958 48.4556 88.9958C49.0079 88.9958 49.4556 88.5481 49.4556 87.9958H47.4556ZM49.4556 87.9988C49.4556 87.4465 49.0079 86.9988 48.4556 86.9988C47.9033 86.9988 47.4556 87.4465 47.4556 87.9988H49.4556ZM52.3978 87.1469C52.8918 86.8999 53.092 86.2992 52.8451 85.8053C52.5981 85.3113 51.9974 85.1111 51.5034 85.358L52.3978 87.1469ZM60.2411 80.9892C59.7471 81.2362 59.5469 81.8369 59.7938 82.3309C60.0408 82.8248 60.6415 83.0251 61.1355 82.7781L60.2411 80.9892ZM68.1256 79.283C68.6196 79.036 68.8198 78.4353 68.5728 77.9414C68.3258 77.4474 67.7252 77.2472 67.2312 77.4942L68.1256 79.283ZM75.9688 73.1253C75.4748 73.3723 75.2746 73.973 75.5216 74.467C75.7686 74.961 76.3693 75.1612 76.8633 74.9142L75.9688 73.1253ZM80.9111 69.7858C80.9111 69.2335 80.4634 68.7858 79.9111 68.7858C79.3588 68.7858 78.9111 69.2335 78.9111 69.7858H80.9111ZM78.9111 63.5696C78.9111 64.1219 79.3588 64.5696 79.9111 64.5696C80.4634 64.5696 80.9111 64.1219 80.9111 63.5696H78.9111ZM79.911 60.0832C79.3588 60.0832 78.911 60.5309 78.911 61.0832C78.911 61.6354 79.3588 62.0832 79.911 62.0832V60.0832ZM79.9109 62.0832C80.4632 62.0832 80.9109 61.6354 80.9109 61.0832C80.9109 60.5309 80.4632 60.0832 79.9109 60.0832V62.0832ZM76.6125 59.7367C76.0632 59.6798 75.5718 60.0791 75.515 60.6285C75.4581 61.1778 75.8574 61.6692 76.4068 61.7261L76.6125 59.7367ZM67.9037 60.8466C68.453 60.9034 68.9444 60.5041 69.0013 59.9547C69.0581 59.4054 68.6588 58.914 68.1094 58.8572L67.9037 60.8466ZM63.0632 58.7344C62.5178 58.8218 62.1466 59.3347 62.234 59.8801C62.3214 60.4254 62.8343 60.7966 63.3796 60.7092L63.0632 58.7344ZM59.9199 61.2637C60.4652 61.1763 60.8364 60.6634 60.749 60.118C60.6616 59.5727 60.1487 59.2015 59.6034 59.2889L59.9199 61.2637ZM59.3777 59.979C59.3777 59.4267 58.93 58.979 58.3777 58.979C57.8254 58.979 57.3777 59.4267 57.3777 59.979H59.3777ZM57.3777 58.6814C57.3777 59.2337 57.8254 59.6814 58.3777 59.6814C58.93 59.6814 59.3777 59.2337 59.3777 58.6814H57.3777ZM63.2861 58.5606C63.8342 58.4926 64.2233 57.9931 64.1553 57.4451C64.0872 56.897 63.5878 56.5078 63.0397 56.5759L63.2861 58.5606ZM75.0027 55.0905C74.4546 55.1586 74.0655 55.658 74.1335 56.2061C74.2016 56.7542 74.701 57.1433 75.2491 57.0753L75.0027 55.0905ZM80.9111 53.0258C80.9111 52.4735 80.4634 52.0258 79.9111 52.0258C79.3588 52.0258 78.9111 52.4735 78.9111 53.0258H80.9111ZM78.9111 46.8685C78.9111 47.4208 79.3588 47.8685 79.9111 47.8685C80.4634 47.8685 80.9111 47.4208 80.9111 46.8685H78.9111ZM75.2524 42.8034C74.7045 42.7336 74.2038 43.1211 74.1339 43.6689C74.0641 44.2168 74.4516 44.7175 74.9994 44.7874L75.2524 42.8034ZM63.0364 43.2619C63.5843 43.3318 64.085 42.9443 64.1549 42.3964C64.2247 41.8486 63.8372 41.3478 63.2894 41.278L63.0364 43.2619ZM59.3777 41.1802C59.3777 40.6279 58.93 40.1802 58.3777 40.1802C57.8254 40.1802 57.3777 40.6279 57.3777 41.1802H59.3777ZM57.3777 39.9814C57.3777 40.5337 57.8254 40.9814 58.3777 40.9814C58.93 40.9814 59.3777 40.5337 59.3777 39.9814H57.3777ZM59.6034 40.7111C60.1487 40.7985 60.6616 40.4273 60.749 39.8819C60.8364 39.3366 60.4652 38.8237 59.9199 38.7363L59.6034 40.7111ZM63.3796 39.2907C62.8343 39.2034 62.3214 39.5746 62.234 40.1199C62.1466 40.6652 62.5178 41.1782 63.0632 41.2655L63.3796 39.2907ZM68.1095 41.1428C68.6588 41.0859 69.0581 40.5945 69.0012 40.0452C68.9444 39.4958 68.453 39.0965 67.9037 39.1534L68.1095 41.1428ZM76.4068 38.2737C75.8574 38.3306 75.4581 38.822 75.515 39.3713C75.5718 39.9207 76.0632 40.32 76.6126 40.2631L76.4068 38.2737ZM79.8096 39.9114C80.3591 39.9674 80.8498 39.5673 80.9058 39.0179C80.9618 38.4685 80.5617 37.9777 80.0123 37.9217L79.8096 39.9114ZM80.0124 37.9217C79.4629 37.8658 78.9722 38.2658 78.9162 38.8153C78.8602 39.3647 79.2603 39.8555 79.8097 39.9114L80.0124 37.9217ZM80.9111 36.4302C80.9111 35.8779 80.4634 35.4302 79.9111 35.4302C79.3588 35.4302 78.9111 35.8779 78.9111 36.4302H80.9111ZM78.9111 30.2142C78.9111 30.7665 79.3588 31.2142 79.9111 31.2142C80.4634 31.2142 80.9111 30.7665 80.9111 30.2142H78.9111ZM76.8633 25.0858C76.3693 24.8388 75.7686 25.039 75.5216 25.533C75.2746 26.027 75.4748 26.6277 75.9688 26.8747L76.8633 25.0858ZM67.2312 22.5058C67.7252 22.7528 68.3258 22.5526 68.5728 22.0586C68.8198 21.5646 68.6196 20.964 68.1256 20.717L67.2312 22.5058ZM61.1355 17.2219C60.6415 16.9749 60.0408 17.1752 59.7938 17.6691C59.5469 18.1631 59.7471 18.7638 60.2411 19.0108L61.1355 17.2219ZM51.5034 14.642C51.9974 14.8889 52.5981 14.6887 52.8451 14.1947C53.092 13.7008 52.8918 13.1001 52.3978 12.8531L51.5034 14.642ZM47.4556 12.0001C47.4556 12.5523 47.9033 13.0001 48.4556 13.0001C49.0079 13.0001 49.4556 12.5523 49.4556 12.0001H47.4556ZM49.4556 12.0002C49.4556 11.4479 49.0079 11.0002 48.4556 11.0002C47.9033 11.0002 47.4556 11.4479 47.4556 12.0002H49.4556ZM49.2712 11.4218C48.9517 10.9713 48.3276 10.865 47.8771 11.1845C47.4266 11.504 47.3203 12.1282 47.6398 12.5787L49.2712 11.4218ZM47.6397 12.5785C47.9592 13.029 48.5834 13.1352 49.0339 12.8158C49.4844 12.4963 49.5906 11.8721 49.2711 11.4216L47.6397 12.5785ZM48.0104 11.1045L44.2808 12.9575L45.1707 14.7486L48.9003 12.8955L48.0104 11.1045ZM34.9568 17.5903L31.2272 19.4434L32.1171 21.2345L35.8467 19.3814L34.9568 17.5903ZM30.6721 20.3389V21.3476H32.6721V20.3389H30.6721ZM30.6721 23.8692V24.8778H32.6721V23.8692H30.6721ZM31.9352 23.9131L30.6451 23.5612L30.1189 25.4907L31.409 25.8426L31.9352 23.9131ZM27.4198 22.6816L26.1297 22.3298L25.6034 24.2593L26.8936 24.6111L27.4198 22.6816ZM26.6887 22.7253L26.6887 22.7253L25.0443 23.8637L25.0444 23.8637L26.6887 22.7253ZM26.6887 22.7253L26.6887 22.7253L25.0443 23.8637L25.0443 23.8637L26.6887 22.7253ZM25.8665 22.2945H25.8665V24.2945H25.8665V22.2945ZM25.8665 22.2945H25.8665V24.2945H25.8665V22.2945ZM24.8665 23.2945V23.2945H26.8665V23.2945H24.8665ZM24.8665 23.2945V23.2945H26.8665V23.2945H24.8665ZM25.4192 22.4001L23.4489 23.3853L24.3433 25.1741L26.3137 24.189L25.4192 22.4001ZM18.5231 25.8482L16.5528 26.8333L17.4472 28.6222L19.4175 27.637L18.5231 25.8482ZM16 27.7278V32.6654H18V27.7278H16ZM16 45.0095V54.8848H18V45.0095H16ZM16 67.2289V72.1666H18V67.2289H16ZM16.5701 73.0694L18.5404 74.0077L19.4003 72.202L17.4299 71.2637L16.5701 73.0694ZM23.4663 76.3533L25.4366 77.2916L26.2965 75.4859L24.3261 74.5476L23.4663 76.3533ZM26.1267 77.3543L27.4169 77.0066L26.8965 75.0755L25.6063 75.4232L26.1267 77.3543ZM30.6422 76.1375L31.9323 75.7898L31.4119 73.8587L30.1218 74.2063L30.6422 76.1375ZM30.6721 74.8242V75.8756H32.6721V74.8242H30.6721ZM30.6721 78.504V79.5554H32.6721V78.504H30.6721ZM31.2227 80.4487L34.9523 82.3253L35.8512 80.5387L32.1216 78.6621L31.2227 80.4487ZM44.2763 87.0167L48.0059 88.8933L48.9048 87.1067L45.1752 85.2301L44.2763 87.0167ZM49.4547 88.0377L49.4547 88.0365L47.4561 87.9611L47.4561 87.9623L49.4547 88.0377ZM49.4548 88.0335L49.4549 88.0323L47.4563 87.9569L47.4562 87.9581L49.4548 88.0335ZM47.4556 87.9946V87.9958H49.4556V87.9946H47.4556ZM47.4556 87.9988V88H49.4556V87.9988H47.4556ZM48.9028 88.8944L52.3978 87.1469L51.5034 85.358L48.0084 87.1056L48.9028 88.8944ZM61.1355 82.7781L68.1256 79.283L67.2312 77.4942L60.2411 80.9892L61.1355 82.7781ZM76.8633 74.9142L80.3583 73.1667L79.4639 71.3778L75.9688 73.1253L76.8633 74.9142ZM80.9111 72.2722V69.7858H78.9111V72.2722H80.9111ZM80.9111 63.5696V61.0832H78.9111V63.5696H80.9111ZM79.9111 60.0832H79.911V62.0832H79.9111V60.0832ZM79.9109 60.0832H79.9109V62.0832H79.9109V60.0832ZM80.0138 60.0885L76.6125 59.7367L76.4068 61.7261L79.808 62.0779L80.0138 60.0885ZM68.1094 58.8572L64.7082 58.5054L64.5024 60.4948L67.9037 60.8466L68.1094 58.8572ZM64.4471 58.5127L63.0632 58.7344L63.3796 60.7092L64.7636 60.4875L64.4471 58.5127ZM59.6034 59.2889L58.2195 59.5107L58.5359 61.4855L59.9199 61.2637L59.6034 59.2889ZM59.3777 60.4981V59.979H57.3777V60.4981H59.3777ZM59.3777 58.6814V58.1624H57.3777V58.6814H59.3777ZM58.5009 59.1548L63.2861 58.5606L63.0397 56.5759L58.2545 57.17L58.5009 59.1548ZM75.2491 57.0753L80.0343 56.4811L79.7879 54.4964L75.0027 55.0905L75.2491 57.0753ZM80.9111 55.4887V53.0258H78.9111V55.4887H80.9111ZM80.9111 46.8685V44.4056H78.9111V46.8685H80.9111ZM80.0376 43.4136L75.2524 42.8034L74.9994 44.7874L79.7846 45.3976L80.0376 43.4136ZM63.2894 41.278L58.5042 40.6678L58.2512 42.6517L63.0364 43.2619L63.2894 41.278ZM59.3777 41.6597V41.1802H57.3777V41.6597H59.3777ZM59.3777 39.9814V39.5019H57.3777V39.9814H59.3777ZM58.2195 40.4893L59.6034 40.7111L59.9199 38.7363L58.5359 38.5145L58.2195 40.4893ZM63.0632 41.2655L64.4471 41.4873L64.7636 39.5125L63.3796 39.2907L63.0632 41.2655ZM64.7082 41.4946L68.1095 41.1428L67.9037 39.1534L64.5024 39.5052L64.7082 41.4946ZM76.6126 40.2631L80.0138 39.9113L79.808 37.9219L76.4068 38.2737L76.6126 40.2631ZM79.8096 39.9114L79.8096 39.9114L80.0123 37.9217L80.0122 37.9217L79.8096 39.9114ZM79.8097 39.9114L79.8098 39.9114L80.0124 37.9217L80.0124 37.9217L79.8097 39.9114ZM80.9111 38.9166V36.4302H78.9111V38.9166H80.9111ZM80.9111 30.2142V27.7278H78.9111V30.2142H80.9111ZM80.3583 26.8333L76.8633 25.0858L75.9688 26.8747L79.4639 28.6222L80.3583 26.8333ZM68.1256 20.717L61.1355 17.2219L60.2411 19.0108L67.2312 22.5058L68.1256 20.717ZM52.3978 12.8531L48.9028 11.1056L48.0084 12.8944L51.5034 14.642L52.3978 12.8531ZM47.4556 12V12.0001H49.4556V12H47.4556ZM47.4556 12.0002V12.0003H49.4556V12.0002H47.4556ZM49.2713 11.4218L49.2712 11.4218L47.6398 12.5787L47.6399 12.5788L49.2713 11.4218ZM49.2711 11.4216L49.2711 11.4215L47.6397 12.5785L47.6397 12.5785L49.2711 11.4216Z" fill="black" mask="url(#path-1-inside-1)"/>
<path d="M13.8665 70.3887L5 66.1666V21.7278L13.8665 17.2945L13.8987 17.3404L13.9577 70.299L13.8665 70.3887Z" fill="#4B612C"/>
<path d="M46.3777 61.6276L13.8665 70.3887V17.2945L46.3777 26.161V61.6276Z" fill="#759C3E"/>
<path d="M19.6721 36.5055L36.4554 34.3945L36.865 34.7523V52.7736L36.4554 53.3944L19.6721 51.3888V36.5055Z" fill="#4B612C"/>
<path d="M67.9109 32.9166L52.6053 34.4999L19.6721 29.2223L36.2507 23.8166L67.9109 32.9166Z" fill="#3C4929"/>
<path d="M67.9109 55.0832L52.6053 53.5001L19.6721 58.7777L37.4794 63.2999L67.9109 55.0832Z" fill="#B7CA9D"/>
<path d="M19.6721 73.5554L36.4554 82L37.1648 63.1837L19.6721 58.7777V73.5554Z" fill="#4B612C"/>
<path d="M67.9111 66.2722L36.4556 82V62.9999L67.9111 55.0832V66.2722Z" fill="#759C3E"/>
<path d="M19.6721 14.3389L36.4554 6L36.577 6.17153L36.5254 24.8841L36.4554 24.9999L19.6721 29.2223V14.3389Z" fill="#4B612C"/>
<path d="M67.9111 49.4887L36.4556 53.3944V34.3945L67.9111 38.4056V49.4887ZM67.9111 32.9166L36.4556 24.9999V6L67.9111 21.7278V32.9166Z" fill="#759C3E"/>
</svg>
