<svg width="88" height="90" viewBox="0 0 88 90" fill="none" xmlns="http://www.w3.org/2000/svg">
<mask id="path-1-inside-1" fill="white">
<path fill-rule="evenodd" clip-rule="evenodd" d="M47.5789 14L15 29.7277V74.272L20.4664 76.8055L27.0257 75.2222L27.0257 37.961L47.5504 33.0459L57.8555 35.5334L64.9616 34.2666V22.4443L47.5789 14ZM47.5789 61.2888L59.2768 59.9167V44.0833L47.5789 42.7109L35.8811 44.0833V59.9167L47.5789 61.2888ZM74.6915 27.0888L68.1322 28.7779V66.0387L47.6074 70.9541L37.3023 68.4666L30.1963 69.7331V81.5554L47.5789 90L80.1578 74.272V29.7277L74.6915 27.0888Z"/>
</mask>
<path fill-rule="evenodd" clip-rule="evenodd" d="M47.5789 14L15 29.7277V74.272L20.4664 76.8055L27.0257 75.2222L27.0257 37.961L47.5504 33.0459L57.8555 35.5334L64.9616 34.2666V22.4443L47.5789 14ZM47.5789 61.2888L59.2768 59.9167V44.0833L47.5789 42.7109L35.8811 44.0833V59.9167L47.5789 61.2888ZM74.6915 27.0888L68.1322 28.7779V66.0387L47.6074 70.9541L37.3023 68.4666L30.1963 69.7331V81.5554L47.5789 90L80.1578 74.272V29.7277L74.6915 27.0888Z" fill="#F7F7FE"/>
<path d="M15 29.7277L14.7826 29.2775C14.6098 29.3609 14.5 29.5358 14.5 29.7277H15ZM47.5789 14L47.7974 13.5503C47.6598 13.4834 47.4993 13.4832 47.3615 13.5497L47.5789 14ZM15 74.272H14.5C14.5 74.4668 14.6131 74.6438 14.7897 74.7257L15 74.272ZM20.4664 76.8055L20.2561 77.2592C20.3585 77.3066 20.474 77.3181 20.5837 77.2916L20.4664 76.8055ZM27.0257 75.2222L27.143 75.7082C27.3675 75.654 27.5257 75.4531 27.5257 75.2222H27.0257ZM27.0257 37.961L26.9093 37.4748C26.6843 37.5286 26.5257 37.7297 26.5257 37.961H27.0257ZM47.5504 33.0459L47.6677 32.5599C47.5909 32.5414 47.5108 32.5413 47.434 32.5597L47.5504 33.0459ZM57.8555 35.5334L57.7382 36.0194C57.8054 36.0357 57.8752 36.0378 57.9433 36.0256L57.8555 35.5334ZM64.9616 34.2666L65.0493 34.7589C65.2878 34.7164 65.4616 34.5089 65.4616 34.2666H64.9616ZM64.9616 22.4443H65.4616C65.4616 22.2529 65.3522 22.0782 65.18 21.9946L64.9616 22.4443ZM59.2768 59.9167L59.335 60.4133C59.5869 60.3837 59.7768 60.1703 59.7768 59.9167H59.2768ZM47.5789 61.2888L47.5207 61.7854C47.5594 61.7899 47.5985 61.7899 47.6372 61.7854L47.5789 61.2888ZM59.2768 44.0833H59.7768C59.7768 43.8297 59.5869 43.6163 59.335 43.5867L59.2768 44.0833ZM47.5789 42.7109L47.6372 42.2143C47.5985 42.2098 47.5594 42.2098 47.5207 42.2143L47.5789 42.7109ZM35.8811 44.0833L35.8228 43.5867C35.5709 43.6163 35.3811 43.8297 35.3811 44.0833H35.8811ZM35.8811 59.9167H35.3811C35.3811 60.1703 35.5709 60.3837 35.8228 60.4133L35.8811 59.9167ZM68.1322 28.7779L68.0075 28.2936C67.7866 28.3505 67.6322 28.5497 67.6322 28.7779H68.1322ZM74.6915 27.0888L74.9088 26.6386C74.8024 26.5872 74.6812 26.5752 74.5668 26.6046L74.6915 27.0888ZM68.1322 66.0387L68.2486 66.525C68.4735 66.4711 68.6322 66.27 68.6322 66.0387H68.1322ZM47.6074 70.9541L47.4901 71.4401C47.5669 71.4586 47.647 71.4587 47.7239 71.4403L47.6074 70.9541ZM37.3023 68.4666L37.4196 67.9806C37.3524 67.9643 37.2826 67.9622 37.2146 67.9744L37.3023 68.4666ZM30.1963 69.7331L30.1086 69.2409C29.87 69.2834 29.6963 69.4908 29.6963 69.7331H30.1963ZM30.1963 81.5554H29.6963C29.6963 81.7469 29.8056 81.9215 29.9778 82.0052L30.1963 81.5554ZM47.5789 90L47.3604 90.4497C47.498 90.5166 47.6586 90.5168 47.7963 90.4503L47.5789 90ZM80.1578 74.272L80.3752 74.7223C80.548 74.6389 80.6578 74.4639 80.6578 74.272H80.1578ZM80.1578 29.7277H80.6578C80.6578 29.5358 80.548 29.3609 80.3752 29.2775L80.1578 29.7277ZM14.5 34.6771C14.5 34.9532 14.7239 35.1771 15 35.1771C15.2761 35.1771 15.5 34.9532 15.5 34.6771H14.5ZM15.5 47.0505C15.5 46.7744 15.2761 46.5505 15 46.5505C14.7239 46.5505 14.5 46.7744 14.5 47.0505H15.5ZM14.5 56.9492C14.5 57.2254 14.7239 57.4492 15 57.4492C15.2761 57.4492 15.5 57.2254 15.5 56.9492H14.5ZM15.5 69.3227C15.5 69.0465 15.2761 68.8227 15 68.8227C14.7239 68.8227 14.5 69.0465 14.5 69.3227H15.5ZM16.0045 75.2887C16.255 75.4048 16.5523 75.2958 16.6684 75.0453C16.7845 74.7947 16.6755 74.4975 16.425 74.3814L16.0045 75.2887ZM19.4619 75.7889C19.2113 75.6728 18.9141 75.7817 18.798 76.0323C18.6819 76.2828 18.7908 76.5801 19.0414 76.6962L19.4619 75.7889ZM22.0413 76.9397C22.3098 76.8749 22.4748 76.6048 22.4101 76.3363C22.3453 76.0679 22.0751 75.9028 21.8067 75.9676L22.0413 76.9397ZM25.4507 75.088C25.1823 75.1528 25.0172 75.4229 25.082 75.6913C25.1468 75.9598 25.417 76.1249 25.6854 76.0601L25.4507 75.088ZM27.5257 71.082C27.5257 70.8059 27.3018 70.582 27.0257 70.582C26.7496 70.582 26.5257 70.8059 26.5257 71.082H27.5257ZM26.5257 60.7317C26.5257 61.0079 26.7496 61.2317 27.0257 61.2317C27.3018 61.2317 27.5257 61.0079 27.5257 60.7317H26.5257ZM27.5257 52.4515C27.5257 52.1753 27.3018 51.9515 27.0257 51.9515C26.7496 51.9515 26.5257 52.1753 26.5257 52.4515H27.5257ZM26.5257 42.1012C26.5257 42.3773 26.7496 42.6012 27.0257 42.6012C27.3018 42.6012 27.5257 42.3773 27.5257 42.1012H26.5257ZM31.7032 37.355C31.9717 37.2907 32.1373 37.0209 32.073 36.7523C32.0087 36.4838 31.7389 36.3182 31.4703 36.3825L31.7032 37.355ZM42.8729 33.6519C42.6044 33.7162 42.4388 33.9861 42.5031 34.2546C42.5674 34.5232 42.8373 34.6887 43.1058 34.6244L42.8729 33.6519ZM49.7231 34.0847C49.9916 34.1495 50.2617 33.9845 50.3265 33.716C50.3913 33.4476 50.2262 33.1775 49.9578 33.1127L49.7231 34.0847ZM55.6828 34.4946C55.4144 34.4298 55.1443 34.5949 55.0795 34.8633C55.0147 35.1317 55.1798 35.4019 55.4482 35.4667L55.6828 34.4946ZM59.5224 35.7441C59.7943 35.6957 59.9754 35.436 59.9269 35.1641C59.8784 34.8923 59.6188 34.7112 59.3469 34.7597L59.5224 35.7441ZM63.2947 34.0559C63.0228 34.1044 62.8417 34.364 62.8902 34.6359C62.9387 34.9077 63.1983 35.0888 63.4702 35.0404L63.2947 34.0559ZM65.4616 31.6395C65.4616 31.3633 65.2377 31.1395 64.9616 31.1395C64.6854 31.1395 64.4616 31.3633 64.4616 31.6395H65.4616ZM64.4616 25.0715C64.4616 25.3476 64.6854 25.5715 64.9616 25.5715C65.2377 25.5715 65.4616 25.3476 65.4616 25.0715H64.4616ZM61.3172 20.1181C61.0688 19.9974 60.7697 20.1009 60.649 20.3493C60.5283 20.5977 60.6319 20.8969 60.8803 21.0175L61.3172 20.1181ZM51.2232 16.3263C51.4716 16.4469 51.7708 16.3434 51.8915 16.095C52.0121 15.8466 51.9086 15.5474 51.6602 15.4268L51.2232 16.3263ZM43.7417 15.2972C43.493 15.4173 43.3887 15.7162 43.5088 15.9649C43.6288 16.2136 43.9277 16.3179 44.1764 16.1978L43.7417 15.2972ZM35.1267 20.5666C35.3754 20.4466 35.4797 20.1476 35.3596 19.899C35.2396 19.6503 34.9406 19.546 34.692 19.6661L35.1267 20.5666ZM27.4522 23.1611C27.2035 23.2812 27.0993 23.5801 27.2193 23.8288C27.3394 24.0774 27.6383 24.1817 27.887 24.0617L27.4522 23.1611ZM18.8373 28.4305C19.0859 28.3104 19.1902 28.0115 19.0702 27.7628C18.9501 27.5141 18.6512 27.4099 18.4025 27.5299L18.8373 28.4305ZM56.619 59.725C56.3447 59.7572 56.1485 60.0056 56.1807 60.2799C56.2128 60.5541 56.4612 60.7504 56.7355 60.7182L56.619 59.725ZM50.2367 61.4805C50.511 61.4483 50.7072 61.1999 50.675 60.9256C50.6429 60.6514 50.3945 60.4551 50.1202 60.4873L50.2367 61.4805ZM45.0376 60.4873C44.7634 60.4551 44.515 60.6514 44.4828 60.9256C44.4506 61.1999 44.6469 61.4483 44.9211 61.4805L45.0376 60.4873ZM38.4223 60.7182C38.6966 60.7504 38.945 60.5541 38.9772 60.2798C39.0093 60.0056 38.8131 59.7572 38.5388 59.725L38.4223 60.7182ZM36.3811 56.3982C36.3811 56.122 36.1572 55.8982 35.8811 55.8982C35.6049 55.8982 35.3811 56.122 35.3811 56.3982H36.3811ZM35.3811 47.6018C35.3811 47.878 35.6049 48.1018 35.8811 48.1018C36.1572 48.1018 36.3811 47.878 36.3811 47.6018H35.3811ZM38.5388 44.2749C38.8131 44.2428 39.0094 43.9944 38.9772 43.7201C38.945 43.4458 38.6966 43.2496 38.4223 43.2818L38.5388 44.2749ZM44.9211 42.5193C44.6469 42.5515 44.4506 42.7999 44.4828 43.0742C44.515 43.3484 44.7634 43.5447 45.0377 43.5125L44.9211 42.5193ZM50.1202 43.5125C50.3944 43.5447 50.6429 43.3484 50.675 43.0742C50.7072 42.7999 50.511 42.5515 50.2367 42.5193L50.1202 43.5125ZM56.7355 43.2818C56.4613 43.2496 56.2128 43.4458 56.1807 43.7201C56.1485 43.9944 56.3447 44.2428 56.619 44.2749L56.7355 43.2818ZM58.7768 47.6018C58.7768 47.878 59.0006 48.1018 59.2768 48.1018C59.5529 48.1018 59.7768 47.878 59.7768 47.6018H58.7768ZM59.7768 56.3982C59.7768 56.122 59.5529 55.8982 59.2768 55.8982C59.0006 55.8982 58.7768 56.122 58.7768 56.3982H59.7768ZM67.6322 32.9179C67.6322 33.1941 67.856 33.4179 68.1322 33.4179C68.4083 33.4179 68.6322 33.1941 68.6322 32.9179H67.6322ZM68.6322 43.2682C68.6322 42.992 68.4083 42.7682 68.1322 42.7682C67.856 42.7682 67.6322 42.992 67.6322 43.2682H68.6322ZM67.6322 51.5484C67.6322 51.8245 67.856 52.0484 68.1322 52.0484C68.4083 52.0484 68.6322 51.8245 68.6322 51.5484H67.6322ZM68.6322 61.8986C68.6322 61.6225 68.4083 61.3986 68.1322 61.3986C67.856 61.3986 67.6322 61.6225 67.6322 61.8986H68.6322ZM63.4547 66.6448C63.1861 66.7091 63.0205 66.9789 63.0849 67.2475C63.1492 67.516 63.419 67.6816 63.6876 67.6173L63.4547 66.6448ZM52.2849 70.348C52.5535 70.2837 52.719 70.0139 52.6547 69.7453C52.5904 69.4768 52.3206 69.3112 52.052 69.3755L52.2849 70.348ZM45.4347 69.9153C45.1663 69.8505 44.8962 70.0155 44.8314 70.284C44.7666 70.5524 44.9317 70.8225 45.2001 70.8873L45.4347 69.9153ZM39.475 69.5054C39.7435 69.5702 40.0136 69.4051 40.0784 69.1367C40.1432 68.8683 39.9781 68.5981 39.7097 68.5333L39.475 69.5054ZM35.6355 68.2558C35.3636 68.3043 35.1825 68.5639 35.231 68.8358C35.2794 69.1076 35.5391 69.2887 35.8109 69.2403L35.6355 68.2558ZM31.8631 69.9439C32.135 69.8955 32.3161 69.6358 32.2676 69.3639C32.2192 69.0921 31.9595 68.911 31.6877 68.9594L31.8631 69.9439ZM29.6963 72.3603C29.6963 72.6364 29.9201 72.8603 30.1963 72.8603C30.4724 72.8603 30.6963 72.6364 30.6963 72.3603H29.6963ZM30.6963 78.9283C30.6963 78.6521 30.4724 78.4283 30.1963 78.4283C29.9201 78.4283 29.6963 78.6521 29.6963 78.9283H30.6963ZM33.8406 83.8818C34.089 84.0024 34.3882 83.8989 34.5088 83.6505C34.6295 83.4021 34.526 83.1029 34.2776 82.9823L33.8406 83.8818ZM43.9346 87.6737C43.6862 87.553 43.387 87.6566 43.2664 87.9049C43.1457 88.1533 43.2493 88.4525 43.4976 88.5732L43.9346 87.6737ZM51.4162 88.7027C51.6649 88.5827 51.7691 88.2838 51.6491 88.0351C51.529 87.7864 51.2301 87.6821 50.9814 87.8022L51.4162 88.7027ZM60.0311 83.4333C59.7824 83.5533 59.6782 83.8523 59.7982 84.1009C59.9183 84.3496 60.2172 84.4539 60.4659 84.3338L60.0311 83.4333ZM67.7056 80.8387C67.9543 80.7187 68.0586 80.4198 67.9385 80.1711C67.8185 79.9224 67.5196 79.8181 67.2709 79.9382L67.7056 80.8387ZM76.3206 75.5693C76.0719 75.6894 75.9676 75.9883 76.0877 76.2369C76.2077 76.4856 76.5067 76.5899 76.7553 76.4698L76.3206 75.5693ZM80.6578 69.3227C80.6578 69.0465 80.434 68.8227 80.1578 68.8227C79.8817 68.8227 79.6578 69.0465 79.6578 69.3227H80.6578ZM79.6578 56.9492C79.6578 57.2254 79.8817 57.4492 80.1578 57.4492C80.434 57.4492 80.6578 57.2254 80.6578 56.9492H79.6578ZM80.6578 47.0505C80.6578 46.7744 80.434 46.5505 80.1578 46.5505C79.8817 46.5505 79.6578 46.7744 79.6578 47.0505H80.6578ZM79.6578 34.6771C79.6578 34.9532 79.8817 35.1771 80.1578 35.1771C80.434 35.1771 80.6578 34.9532 80.6578 34.6771H79.6578ZM79.1605 28.691C78.9118 28.571 78.6129 28.6753 78.4928 28.9239C78.3728 29.1726 78.477 29.4715 78.7257 29.5916L79.1605 28.691ZM75.6888 28.1255C75.9375 28.2456 76.2364 28.1413 76.3565 27.8926C76.4765 27.6439 76.3723 27.345 76.1236 27.225L75.6888 28.1255ZM73.1092 26.98C72.8417 27.0488 72.6808 27.3214 72.7496 27.5889C72.8185 27.8563 73.0911 28.0172 73.3585 27.9484L73.1092 26.98ZM69.7145 28.8867C69.9819 28.8179 70.1428 28.5453 70.074 28.2778C70.0051 28.0104 69.7325 27.8494 69.4651 27.9183L69.7145 28.8867ZM14.5 29.7277V34.6771H15.5V29.7277H14.5ZM14.5 47.0505V56.9492H15.5V47.0505H14.5ZM14.5 69.3227V74.272H15.5V69.3227H14.5ZM14.7897 74.7257L16.0045 75.2887L16.425 74.3814L15.2103 73.8184L14.7897 74.7257ZM19.0414 76.6962L20.2561 77.2592L20.6766 76.3519L19.4619 75.7889L19.0414 76.6962ZM20.5837 77.2916L22.0413 76.9397L21.8067 75.9676L20.3491 76.3195L20.5837 77.2916ZM25.6854 76.0601L27.143 75.7082L26.9084 74.7361L25.4507 75.088L25.6854 76.0601ZM27.5257 75.2222L27.5257 71.082H26.5257L26.5257 75.2222H27.5257ZM27.5257 60.7317L27.5257 52.4515H26.5257L26.5257 60.7317H27.5257ZM27.5257 42.1012L27.5257 37.961H26.5257L26.5257 42.1012H27.5257ZM27.1422 38.4473L31.7032 37.355L31.4703 36.3825L26.9093 37.4748L27.1422 38.4473ZM43.1058 34.6244L47.6669 33.5322L47.434 32.5597L42.8729 33.6519L43.1058 34.6244ZM47.4331 33.532L49.7231 34.0847L49.9578 33.1127L47.6677 32.5599L47.4331 33.532ZM55.4482 35.4667L57.7382 36.0194L57.9729 35.0474L55.6828 34.4946L55.4482 35.4667ZM57.9433 36.0256L59.5224 35.7441L59.3469 34.7597L57.7678 35.0412L57.9433 36.0256ZM63.4702 35.0404L65.0493 34.7589L64.8738 33.7744L63.2947 34.0559L63.4702 35.0404ZM65.4616 34.2666V31.6395H64.4616V34.2666H65.4616ZM65.4616 25.0715V22.4443H64.4616V25.0715H65.4616ZM65.18 21.9946L61.3172 20.1181L60.8803 21.0175L64.7431 22.894L65.18 21.9946ZM51.6602 15.4268L47.7974 13.5503L47.3604 14.4497L51.2232 16.3263L51.6602 15.4268ZM47.3615 13.5497L43.7417 15.2972L44.1764 16.1978L47.7963 14.4503L47.3615 13.5497ZM34.692 19.6661L27.4522 23.1611L27.887 24.0617L35.1267 20.5666L34.692 19.6661ZM18.4025 27.5299L14.7826 29.2775L15.2174 30.178L18.8373 28.4305L18.4025 27.5299ZM59.2185 59.4201L56.619 59.725L56.7355 60.7182L59.335 60.4133L59.2185 59.4201ZM50.1202 60.4873L47.5207 60.7922L47.6372 61.7854L50.2367 61.4805L50.1202 60.4873ZM47.6372 60.7922L45.0376 60.4873L44.9211 61.4805L47.5207 61.7854L47.6372 60.7922ZM38.5388 59.725L35.9393 59.4201L35.8228 60.4133L38.4223 60.7182L38.5388 59.725ZM36.3811 59.9167V56.3982H35.3811V59.9167H36.3811ZM36.3811 47.6018V44.0833H35.3811V47.6018H36.3811ZM35.9393 44.5799L38.5388 44.2749L38.4223 43.2818L35.8228 43.5867L35.9393 44.5799ZM45.0377 43.5125L47.6372 43.2075L47.5207 42.2143L44.9211 42.5193L45.0377 43.5125ZM47.5207 43.2075L50.1202 43.5125L50.2367 42.5193L47.6372 42.2143L47.5207 43.2075ZM56.619 44.2749L59.2185 44.5799L59.335 43.5867L56.7355 43.2818L56.619 44.2749ZM58.7768 44.0833V47.6018H59.7768V44.0833H58.7768ZM58.7768 56.3982V59.9167H59.7768V56.3982H58.7768ZM67.6322 28.7779V32.9179H68.6322V28.7779H67.6322ZM67.6322 43.2682V51.5484H68.6322V43.2682H67.6322ZM67.6322 61.8986V66.0387H68.6322V61.8986H67.6322ZM68.0157 65.5525L63.4547 66.6448L63.6876 67.6173L68.2486 66.525L68.0157 65.5525ZM52.052 69.3755L47.491 70.4678L47.7239 71.4403L52.2849 70.348L52.052 69.3755ZM47.7248 70.468L45.4347 69.9153L45.2001 70.8873L47.4901 71.4401L47.7248 70.468ZM39.7097 68.5333L37.4196 67.9806L37.185 68.9526L39.475 69.5054L39.7097 68.5333ZM37.2146 67.9744L35.6355 68.2558L35.8109 69.2403L37.39 68.9589L37.2146 67.9744ZM31.6877 68.9594L30.1086 69.2409L30.284 70.2254L31.8631 69.9439L31.6877 68.9594ZM29.6963 69.7331V72.3603H30.6963V69.7331H29.6963ZM29.6963 78.9283V81.5554H30.6963V78.9283H29.6963ZM29.9778 82.0052L33.8406 83.8818L34.2776 82.9823L30.4148 81.1057L29.9778 82.0052ZM43.4976 88.5732L47.3604 90.4497L47.7974 89.5503L43.9346 87.6737L43.4976 88.5732ZM47.7963 90.4503L51.4162 88.7027L50.9814 87.8022L47.3615 89.5497L47.7963 90.4503ZM60.4659 84.3338L67.7056 80.8387L67.2709 79.9382L60.0311 83.4333L60.4659 84.3338ZM76.7553 76.4698L80.3752 74.7223L79.9405 73.8217L76.3206 75.5693L76.7553 76.4698ZM80.6578 74.272V69.3227H79.6578V74.272H80.6578ZM80.6578 56.9492V47.0505H79.6578V56.9492H80.6578ZM80.6578 34.6771V29.7277H79.6578V34.6771H80.6578ZM80.3752 29.2775L79.1605 28.691L78.7257 29.5916L79.9405 30.178L80.3752 29.2775ZM76.1236 27.225L74.9088 26.6386L74.4741 27.5391L75.6888 28.1255L76.1236 27.225ZM74.5668 26.6046L73.1092 26.98L73.3585 27.9484L74.8161 27.573L74.5668 26.6046ZM69.4651 27.9183L68.0075 28.2936L68.2568 29.2621L69.7145 28.8867L69.4651 27.9183ZM15 29.7277L14.5653 28.8272C14.2196 28.994 14 29.3439 14 29.7277H15ZM47.5789 14L48.0159 13.1005C47.7408 12.9669 47.4196 12.9665 47.1442 13.0994L47.5789 14ZM15 74.272H14C14 74.6615 14.2261 75.0155 14.5795 75.1793L15 74.272ZM20.4664 76.8055L20.0459 77.7128C20.2507 77.8078 20.4816 77.8306 20.701 77.7776L20.4664 76.8055ZM27.0257 75.2222L27.2604 76.1942C27.7094 76.0858 28.0257 75.6841 28.0257 75.2222H27.0257ZM27.0257 37.961L26.7928 36.9885C26.343 37.0963 26.0257 37.4985 26.0257 37.961H27.0257ZM47.5504 33.0459L47.7851 32.0739C47.6314 32.0368 47.4712 32.0366 47.3175 32.0734L47.5504 33.0459ZM57.8555 35.5334L57.6209 36.5055C57.7553 36.5379 57.8949 36.5421 58.031 36.5179L57.8555 35.5334ZM64.9616 34.2666L65.1371 35.2511C65.6141 35.1661 65.9616 34.7512 65.9616 34.2666H64.9616ZM64.9616 22.4443H65.9616C65.9616 22.0614 65.7429 21.7121 65.3985 21.5448L64.9616 22.4443ZM59.2768 59.9167L59.3933 60.9099C59.897 60.8508 60.2768 60.4239 60.2768 59.9167H59.2768ZM47.5789 61.2888L47.4624 62.282C47.5398 62.2911 47.618 62.2911 47.6954 62.282L47.5789 61.2888ZM59.2768 44.0833H60.2768C60.2768 43.5761 59.8971 43.1492 59.3933 43.0901L59.2768 44.0833ZM47.5789 42.7109L47.6954 41.7178C47.618 41.7087 47.5398 41.7087 47.4624 41.7178L47.5789 42.7109ZM35.8811 44.0833L35.7645 43.0901C35.2608 43.1492 34.8811 43.5761 34.8811 44.0833H35.8811ZM35.8811 59.9167H34.8811C34.8811 60.4239 35.2608 60.8508 35.7646 60.9099L35.8811 59.9167ZM68.1322 28.7779L67.8828 27.8094C67.441 27.9232 67.1322 28.3216 67.1322 28.7779H68.1322ZM74.6915 27.0888L75.1262 26.1883C74.9134 26.0855 74.671 26.0615 74.4421 26.1204L74.6915 27.0888ZM68.1322 66.0387L68.3651 67.0112C68.8149 66.9035 69.1322 66.5013 69.1322 66.0387H68.1322ZM47.6074 70.9541L47.3728 71.9261C47.5264 71.9632 47.6866 71.9634 47.8403 71.9266L47.6074 70.9541ZM37.3023 68.4666L37.537 67.4945C37.4026 67.4621 37.2629 67.4579 37.1268 67.4821L37.3023 68.4666ZM30.1963 69.7331L30.0208 68.7486C29.5437 68.8337 29.1963 69.2485 29.1963 69.7331H30.1963ZM30.1963 81.5554H29.1963C29.1963 81.9383 29.4149 82.2876 29.7593 82.4549L30.1963 81.5554ZM47.5789 90L47.142 90.8995C47.4171 91.0331 47.7382 91.0335 48.0137 90.9006L47.5789 90ZM80.1578 74.272L80.5926 75.1726C80.9382 75.0057 81.1578 74.6558 81.1578 74.272H80.1578ZM80.1578 29.7277H81.1578C81.1578 29.3439 80.9382 28.994 80.5926 28.8272L80.1578 29.7277ZM14 34.6771C14 35.2294 14.4477 35.6771 15 35.6771C15.5523 35.6771 16 35.2294 16 34.6771H14ZM16 47.0505C16 46.4982 15.5523 46.0505 15 46.0505C14.4477 46.0505 14 46.4982 14 47.0505H16ZM14 56.9492C14 57.5015 14.4477 57.9492 15 57.9492C15.5523 57.9492 16 57.5015 16 56.9492H14ZM16 69.3227C16 68.7704 15.5523 68.3227 15 68.3227C14.4477 68.3227 14 68.7704 14 69.3227H16ZM15.7942 75.7423C16.2953 75.9746 16.8898 75.7566 17.122 75.2555C17.3543 74.7545 17.1363 74.16 16.6353 73.9277L15.7942 75.7423ZM19.6721 75.3352C19.1711 75.103 18.5766 75.321 18.3443 75.822C18.1121 76.3231 18.33 76.9176 18.8311 77.1498L19.6721 75.3352ZM22.1587 77.4258C22.6955 77.2962 23.0257 76.7559 22.8961 76.219C22.7665 75.6822 22.2262 75.352 21.6894 75.4816L22.1587 77.4258ZM25.3334 74.6019C24.7966 74.7315 24.4664 75.2718 24.596 75.8087C24.7256 76.3455 25.2659 76.6757 25.8027 76.5461L25.3334 74.6019ZM28.0257 71.082C28.0257 70.5297 27.578 70.082 27.0257 70.082C26.4734 70.082 26.0257 70.5297 26.0257 71.082H28.0257ZM26.0257 60.7317C26.0257 61.284 26.4734 61.7317 27.0257 61.7317C27.578 61.7317 28.0257 61.284 28.0257 60.7317H26.0257ZM28.0257 52.4515C28.0257 51.8992 27.578 51.4515 27.0257 51.4515C26.4734 51.4515 26.0257 51.8992 26.0257 52.4515H28.0257ZM26.0257 42.1012C26.0257 42.6534 26.4734 43.1012 27.0257 43.1012C27.578 43.1012 28.0257 42.6534 28.0257 42.1012H26.0257ZM31.8196 37.8413C32.3567 37.7127 32.6879 37.173 32.5593 36.6359C32.4306 36.0988 31.891 35.7677 31.3539 35.8963L31.8196 37.8413ZM42.7565 33.1657C42.2194 33.2943 41.8883 33.834 42.0169 34.3711C42.1455 34.9082 42.6852 35.2393 43.2223 35.1107L42.7565 33.1657ZM49.6058 34.5708C50.1427 34.7004 50.6829 34.3702 50.8125 33.8333C50.9421 33.2965 50.612 32.7562 50.0751 32.6266L49.6058 34.5708ZM55.8002 34.0085C55.2633 33.879 54.723 34.2091 54.5934 34.746C54.4638 35.2829 54.794 35.8231 55.3309 35.9527L55.8002 34.0085ZM59.6102 36.2364C60.1539 36.1394 60.5161 35.6201 60.4191 35.0764C60.3222 34.5327 59.8029 34.1705 59.2592 34.2674L59.6102 36.2364ZM63.2069 33.5637C62.6632 33.6606 62.301 34.1799 62.398 34.7236C62.4949 35.2673 63.0142 35.6295 63.5579 35.5326L63.2069 33.5637ZM65.9616 31.6395C65.9616 31.0872 65.5138 30.6395 64.9616 30.6395C64.4093 30.6395 63.9616 31.0872 63.9616 31.6395H65.9616ZM63.9616 25.0715C63.9616 25.6238 64.4093 26.0715 64.9616 26.0715C65.5138 26.0715 65.9616 25.6238 65.9616 25.0715H63.9616ZM61.5357 19.6683C61.0389 19.427 60.4406 19.6341 60.1993 20.1308C59.9579 20.6276 60.165 21.2259 60.6618 21.4673L61.5357 19.6683ZM51.0048 16.776C51.5015 17.0173 52.0999 16.8102 52.3412 16.3135C52.5825 15.8167 52.3755 15.2184 51.8787 14.977L51.0048 16.776ZM43.5243 14.847C43.0269 15.0871 42.8184 15.6849 43.0585 16.1823C43.2986 16.6796 43.8964 16.8882 44.3938 16.6481L43.5243 14.847ZM35.3441 21.0169C35.8415 20.7768 36.05 20.179 35.8099 19.6816C35.5698 19.1842 34.972 18.9757 34.4746 19.2158L35.3441 21.0169ZM27.2348 22.7108C26.7375 22.9509 26.5289 23.5488 26.769 24.0461C27.0091 24.5435 27.607 24.752 28.1043 24.5119L27.2348 22.7108ZM19.0546 28.8808C19.552 28.6407 19.7605 28.0428 19.5204 27.5455C19.2803 27.0481 18.6825 26.8395 18.1851 27.0797L19.0546 28.8808ZM56.5608 59.2284C56.0122 59.2928 55.6197 59.7896 55.6841 60.3381C55.7484 60.8866 56.2452 61.2791 56.7938 61.2148L56.5608 59.2284ZM50.2949 61.9771C50.8435 61.9127 51.236 61.4159 51.1716 60.8674C51.1073 60.3189 50.6105 59.9264 50.0619 59.9907L50.2949 61.9771ZM45.0959 59.9907C44.5474 59.9264 44.0505 60.3189 43.9862 60.8674C43.9219 61.4159 44.3144 61.9127 44.8629 61.9771L45.0959 59.9907ZM38.3641 61.2148C38.9126 61.2791 39.4094 60.8866 39.4738 60.3381C39.5381 59.7896 39.1456 59.2927 38.5971 59.2284L38.3641 61.2148ZM36.8811 56.3982C36.8811 55.8459 36.4333 55.3982 35.8811 55.3982C35.3288 55.3982 34.8811 55.8459 34.8811 56.3982H36.8811ZM34.8811 47.6018C34.8811 48.1541 35.3288 48.6018 35.8811 48.6018C36.4333 48.6018 36.8811 48.1541 36.8811 47.6018H34.8811ZM38.5971 44.7715C39.1456 44.7072 39.5381 44.2104 39.4738 43.6618C39.4094 43.1133 38.9126 42.7208 38.3641 42.7852L38.5971 44.7715ZM44.8629 42.0227C44.3144 42.0871 43.9219 42.5839 43.9862 43.1324C44.0506 43.681 44.5474 44.0735 45.0959 44.0091L44.8629 42.0227ZM50.0619 44.0091C50.6104 44.0735 51.1073 43.681 51.1716 43.1324C51.236 42.5839 50.8435 42.0871 50.295 42.0227L50.0619 44.0091ZM56.7938 42.7852C56.2453 42.7208 55.7484 43.1133 55.6841 43.6618C55.6197 44.2104 56.0122 44.7072 56.5607 44.7715L56.7938 42.7852ZM58.2768 47.6018C58.2768 48.1541 58.7245 48.6018 59.2768 48.6018C59.8291 48.6018 60.2768 48.1541 60.2768 47.6018H58.2768ZM60.2768 56.3982C60.2768 55.8459 59.8291 55.3982 59.2768 55.3982C58.7245 55.3982 58.2768 55.8459 58.2768 56.3982H60.2768ZM67.1322 32.9179C67.1322 33.4702 67.5799 33.9179 68.1322 33.9179C68.6844 33.9179 69.1322 33.4702 69.1322 32.9179H67.1322ZM69.1322 43.2682C69.1322 42.7159 68.6844 42.2682 68.1322 42.2682C67.5799 42.2682 67.1322 42.7159 67.1322 43.2682H69.1322ZM67.1322 51.5484C67.1322 52.1007 67.5799 52.5484 68.1322 52.5484C68.6844 52.5484 69.1322 52.1007 69.1322 51.5484H67.1322ZM69.1322 61.8986C69.1322 61.3463 68.6844 60.8986 68.1322 60.8986C67.5799 60.8986 67.1322 61.3463 67.1322 61.8986H69.1322ZM63.3382 66.1585C62.8011 66.2871 62.47 66.8268 62.5986 67.3639C62.7272 67.901 63.2669 68.2321 63.804 68.1035L63.3382 66.1585ZM52.4014 70.8343C52.9385 70.7056 53.2696 70.166 53.141 69.6289C53.0124 69.0918 52.4727 68.7606 51.9356 68.8893L52.4014 70.8343ZM45.552 69.4292C45.0152 69.2996 44.4749 69.6298 44.3453 70.1666C44.2157 70.7035 44.5459 71.2438 45.0828 71.3734L45.552 69.4292ZM39.3577 69.9915C39.8946 70.121 40.4348 69.7909 40.5644 69.254C40.694 68.7171 40.3638 68.1769 39.827 68.0473L39.3577 69.9915ZM35.5477 67.7636C35.004 67.8605 34.6418 68.3798 34.7387 68.9235C34.8356 69.4672 35.3549 69.8294 35.8987 69.7325L35.5477 67.7636ZM31.9509 70.4362C32.4946 70.3392 32.8568 69.8199 32.7599 69.2762C32.663 68.7325 32.1437 68.3703 31.5999 68.4672L31.9509 70.4362ZM29.1963 72.3603C29.1963 72.9126 29.644 73.3603 30.1963 73.3603C30.7486 73.3603 31.1963 72.9126 31.1963 72.3603H29.1963ZM31.1963 78.9283C31.1963 78.376 30.7486 77.9283 30.1963 77.9283C29.644 77.9283 29.1963 78.376 29.1963 78.9283H31.1963ZM33.6221 84.3315C34.1189 84.5728 34.7172 84.3657 34.9586 83.869C35.1999 83.3722 34.9928 82.7739 34.4961 82.5325L33.6221 84.3315ZM44.1531 87.224C43.6563 86.9826 43.058 87.1897 42.8166 87.6865C42.5753 88.1832 42.7824 88.7816 43.2791 89.0229L44.1531 87.224ZM51.6336 89.153C52.1309 88.9129 52.3395 88.315 52.0994 87.8177C51.8592 87.3203 51.2614 87.1118 50.764 87.3519L51.6336 89.153ZM59.8137 82.983C59.3164 83.2231 59.1078 83.821 59.348 84.3183C59.5881 84.8157 60.1859 85.0242 60.6833 84.7841L59.8137 82.983ZM67.923 81.289C68.4204 81.0489 68.6289 80.4511 68.3888 79.9537C68.1487 79.4563 67.5509 79.2478 67.0535 79.4879L67.923 81.289ZM76.1032 75.119C75.6058 75.3591 75.3973 75.957 75.6374 76.4543C75.8775 76.9517 76.4754 77.1602 76.9727 76.9201L76.1032 75.119ZM81.1578 69.3227C81.1578 68.7704 80.7101 68.3227 80.1578 68.3227C79.6056 68.3227 79.1578 68.7704 79.1578 69.3227H81.1578ZM79.1578 56.9492C79.1578 57.5015 79.6056 57.9492 80.1578 57.9492C80.7101 57.9492 81.1578 57.5015 81.1578 56.9492H79.1578ZM81.1578 47.0505C81.1578 46.4982 80.7101 46.0505 80.1578 46.0505C79.6056 46.0505 79.1578 46.4982 79.1578 47.0505H81.1578ZM79.1578 34.6771C79.1578 35.2294 79.6056 35.6771 80.1578 35.6771C80.7101 35.6771 81.1578 35.2294 81.1578 34.6771H79.1578ZM79.3778 28.2408C78.8805 28.0007 78.2826 28.2092 78.0425 28.7066C77.8024 29.2039 78.011 29.8018 78.5083 30.0419L79.3778 28.2408ZM75.4715 28.5758C75.9688 28.8159 76.5667 28.6074 76.8068 28.11C77.0469 27.6126 76.8383 27.0148 76.341 26.7747L75.4715 28.5758ZM72.9845 26.4958C72.4496 26.6335 72.1277 27.1787 72.2654 27.7135C72.4031 28.2484 72.9484 28.5703 73.4832 28.4326L72.9845 26.4958ZM69.8391 29.3709C70.374 29.2332 70.6959 28.688 70.5582 28.1531C70.4205 27.6183 69.8753 27.2964 69.3404 27.4341L69.8391 29.3709ZM14 29.7277V34.6771H16V29.7277H14ZM14 47.0505V56.9492H16V47.0505H14ZM14 69.3227V74.272H16V69.3227H14ZM14.5795 75.1793L15.7942 75.7423L16.6353 73.9277L15.4205 73.3647L14.5795 75.1793ZM18.8311 77.1498L20.0459 77.7128L20.8869 75.8983L19.6721 75.3352L18.8311 77.1498ZM20.701 77.7776L22.1587 77.4258L21.6894 75.4816L20.2317 75.8335L20.701 77.7776ZM25.8027 76.5461L27.2604 76.1942L26.791 74.2501L25.3334 74.6019L25.8027 76.5461ZM28.0257 75.2222L28.0257 71.082H26.0257L26.0257 75.2222H28.0257ZM28.0257 60.7317L28.0257 52.4515H26.0257L26.0257 60.7317H28.0257ZM28.0257 42.1012L28.0257 37.961H26.0257L26.0257 42.1012H28.0257ZM27.2586 38.9335L31.8196 37.8413L31.3539 35.8963L26.7928 36.9885L27.2586 38.9335ZM43.2223 35.1107L47.7833 34.0184L47.3175 32.0734L42.7565 33.1657L43.2223 35.1107ZM47.3158 34.018L49.6058 34.5708L50.0751 32.6266L47.7851 32.0739L47.3158 34.018ZM55.3309 35.9527L57.6209 36.5055L58.0902 34.5613L55.8002 34.0085L55.3309 35.9527ZM58.031 36.5179L59.6102 36.2364L59.2592 34.2674L57.68 34.5489L58.031 36.5179ZM63.5579 35.5326L65.1371 35.2511L64.7861 33.2822L63.2069 33.5637L63.5579 35.5326ZM65.9616 34.2666V31.6395H63.9616V34.2666H65.9616ZM65.9616 25.0715V22.4443H63.9616V25.0715H65.9616ZM65.3985 21.5448L61.5357 19.6683L60.6618 21.4673L64.5246 23.3438L65.3985 21.5448ZM51.8787 14.977L48.0159 13.1005L47.142 14.8995L51.0048 16.776L51.8787 14.977ZM47.1442 13.0994L43.5243 14.847L44.3938 16.6481L48.0137 14.9006L47.1442 13.0994ZM34.4746 19.2158L27.2348 22.7108L28.1043 24.5119L35.3441 21.0169L34.4746 19.2158ZM18.1851 27.0797L14.5653 28.8272L15.4347 30.6283L19.0546 28.8808L18.1851 27.0797ZM59.1603 58.9235L56.5608 59.2284L56.7938 61.2148L59.3933 60.9099L59.1603 58.9235ZM50.0619 59.9907L47.4624 60.2956L47.6954 62.282L50.2949 61.9771L50.0619 59.9907ZM47.6954 60.2956L45.0959 59.9907L44.8629 61.9771L47.4624 62.282L47.6954 60.2956ZM38.5971 59.2284L35.9976 58.9235L35.7646 60.9099L38.3641 61.2148L38.5971 59.2284ZM36.8811 59.9167V56.3982H34.8811V59.9167H36.8811ZM36.8811 47.6018V44.0833H34.8811V47.6018H36.8811ZM35.9976 45.0765L38.5971 44.7715L38.3641 42.7852L35.7645 43.0901L35.9976 45.0765ZM45.0959 44.0091L47.6954 43.7041L47.4624 41.7178L44.8629 42.0227L45.0959 44.0091ZM47.4624 43.7041L50.0619 44.0091L50.295 42.0227L47.6954 41.7178L47.4624 43.7041ZM56.5607 44.7715L59.1603 45.0765L59.3933 43.0901L56.7938 42.7852L56.5607 44.7715ZM58.2768 44.0833V47.6018H60.2768V44.0833H58.2768ZM58.2768 56.3982V59.9167H60.2768V56.3982H58.2768ZM67.1322 28.7779V32.9179H69.1322V28.7779H67.1322ZM67.1322 43.2682V51.5484H69.1322V43.2682H67.1322ZM67.1322 61.8986V66.0387H69.1322V61.8986H67.1322ZM67.8993 65.0662L63.3382 66.1585L63.804 68.1035L68.3651 67.0112L67.8993 65.0662ZM51.9356 68.8893L47.3745 69.9816L47.8403 71.9266L52.4014 70.8343L51.9356 68.8893ZM47.8421 69.982L45.552 69.4292L45.0828 71.3734L47.3728 71.9261L47.8421 69.982ZM39.827 68.0473L37.537 67.4945L37.0677 69.4387L39.3577 69.9915L39.827 68.0473ZM37.1268 67.4821L35.5477 67.7636L35.8987 69.7325L37.4778 69.4511L37.1268 67.4821ZM31.5999 68.4672L30.0208 68.7486L30.3718 70.7176L31.9509 70.4362L31.5999 68.4672ZM29.1963 69.7331V72.3603H31.1963V69.7331H29.1963ZM29.1963 78.9283V81.5554H31.1963V78.9283H29.1963ZM29.7593 82.4549L33.6221 84.3315L34.4961 82.5325L30.6333 80.656L29.7593 82.4549ZM43.2791 89.0229L47.142 90.8995L48.0159 89.1005L44.1531 87.224L43.2791 89.0229ZM48.0137 90.9006L51.6336 89.153L50.764 87.3519L47.1442 89.0994L48.0137 90.9006ZM60.6833 84.7841L67.923 81.289L67.0535 79.4879L59.8137 82.983L60.6833 84.7841ZM76.9727 76.9201L80.5926 75.1726L79.7231 73.3715L76.1032 75.119L76.9727 76.9201ZM81.1578 74.272V69.3227H79.1578V74.272H81.1578ZM81.1578 56.9492V47.0505H79.1578V56.9492H81.1578ZM81.1578 34.6771V29.7277H79.1578V34.6771H81.1578ZM80.5926 28.8272L79.3778 28.2408L78.5083 30.0419L79.7231 30.6283L80.5926 28.8272ZM76.341 26.7747L75.1262 26.1883L74.2567 27.9894L75.4715 28.5758L76.341 26.7747ZM74.4421 26.1204L72.9845 26.4958L73.4832 28.4326L74.9408 28.0572L74.4421 26.1204ZM69.3404 27.4341L67.8828 27.8094L68.3815 29.7463L69.8391 29.3709L69.3404 27.4341Z" fill="black" mask="url(#path-1-inside-1)"/>
<path d="M61.1322 20.7779L67.6915 19.0888L67.7403 19.1609L67.906 58.7664L67.6915 58.9817L66.3399 59.0395L61.209 58.2408L61.1322 58.0387V20.7779ZM23.1963 61.7331L23.2205 61.7349L40.5349 66.766L40.5789 66.7999L40.6543 66.86L40.6298 81.9359L40.5789 82L23.1963 73.5554V61.7331Z" fill="#7A3E65"/>
<path d="M61.1321 58.0387L40.6074 62.9541L30.3023 60.4666L23.1963 61.7331L40.5789 66.7999L67.4069 59.5366L67.6915 58.9817L61.1321 58.0387Z" fill="#CFB2C1"/>
<path d="M57.9615 26.2666L57.7943 26.076L40.7657 21.1281L40.5788 21.2001L40.4078 21.1128L13.6127 28.8394L13.4663 29.0183L13.6814 29.1361L19.809 30.0346L20.0256 29.961L40.5503 25.0459L50.8555 27.5334L57.9615 26.2666Z" fill="#512843"/>
<path d="M20.0256 67.2222L13.4663 68.8055L13.4549 68.7676L13.1965 29.31L13.4663 29.0183L20.0256 29.961V67.2222Z" fill="#C17B9E"/>
<path d="M28.8811 51.9167L40.579 53.2888L40.6668 53.1577L40.7144 34.8609L40.579 34.7109L28.8811 36.0833V51.9167Z" fill="#7A3E65"/>
<path d="M52.2767 51.9167L40.5789 53.2888V34.7109L52.2767 36.0833V51.9167ZM57.9615 26.2666L40.5789 21.2001V6L57.9615 14.4443V26.2666Z" fill="#C17B9E"/>
<path d="M40.5789 6L8 21.7277V66.272L13.4664 68.8055V29.0183L40.5789 21.2001V6Z" fill="#7A3E65"/>
<path d="M67.6914 19.0888V58.9817L40.5789 66.7999V82L73.1578 66.272V21.7277L67.6914 19.0888Z" fill="#C17B9E"/>
</svg>
