<svg width="88" height="88" viewBox="0 0 88 88" fill="none" xmlns="http://www.w3.org/2000/svg">
<mask id="path-1-outside-1" maskUnits="userSpaceOnUse" x="11" y="8" width="70" height="78" fill="black">
<rect fill="white" x="11" y="8" width="70" height="78"/>
<path fill-rule="evenodd" clip-rule="evenodd" d="M19.9624 77.4562L35.1747 84.9989L35.1853 84.982V85H56.8136V84.9827L56.8242 84.9989L72.0366 77.4562L80 68.2044V25.7848L72.0366 16.5354L72.0366 16.5185L56.8136 9H35.1853L19.9624 16.5185V16.5367L19.9613 16.5354L12 25.7848V68.2033L19.9613 77.4562L19.9624 77.455V77.4562Z"/>
</mask>
<path fill-rule="evenodd" clip-rule="evenodd" d="M19.9624 77.4562L35.1747 84.9989L35.1853 84.982V85H56.8136V84.9827L56.8242 84.9989L72.0366 77.4562L80 68.2044V25.7848L72.0366 16.5354L72.0366 16.5185L56.8136 9H35.1853L19.9624 16.5185V16.5367L19.9613 16.5354L12 25.7848V68.2033L19.9613 77.4562L19.9624 77.455V77.4562Z" fill="#F7F7FE"/>
<path d="M35.1747 84.9989L34.9526 85.4469C35.1828 85.561 35.462 85.4821 35.5984 85.2644L35.1747 84.9989ZM19.9624 77.4562H19.4624C19.4624 77.6462 19.57 77.8198 19.7403 77.9042L19.9624 77.4562ZM35.1853 84.982H35.6853C35.6853 84.7591 35.5377 84.563 35.3235 84.5015C35.1092 84.4399 34.88 84.5276 34.7616 84.7165L35.1853 84.982ZM35.1853 85H34.6853C34.6853 85.2761 34.9092 85.5 35.1853 85.5V85ZM56.8136 85V85.5C57.0897 85.5 57.3136 85.2761 57.3136 85H56.8136ZM56.8136 84.9827L57.2317 84.7085C57.1104 84.5237 56.8822 84.4404 56.6705 84.5037C56.4587 84.5669 56.3136 84.7617 56.3136 84.9827H56.8136ZM56.8242 84.9989L56.4061 85.2732C56.5449 85.4847 56.8197 85.5593 57.0463 85.4469L56.8242 84.9989ZM72.0366 77.4562L72.2587 77.9042C72.3186 77.8745 72.3719 77.8331 72.4155 77.7824L72.0366 77.4562ZM80 68.2044L80.379 68.5306C80.4571 68.4398 80.5 68.3241 80.5 68.2044H80ZM80 25.7848H80.5C80.5 25.6651 80.457 25.5493 80.3789 25.4586L80 25.7848ZM72.0366 16.5354L71.5366 16.5358C71.5367 16.6554 71.5796 16.771 71.6577 16.8616L72.0366 16.5354ZM72.0366 16.5185L72.5366 16.518C72.5364 16.3279 72.4284 16.1544 72.258 16.0702L72.0366 16.5185ZM56.8136 9L57.035 8.5517C56.9662 8.51769 56.8904 8.5 56.8136 8.5V9ZM35.1853 9V8.5C35.1085 8.5 35.0328 8.51769 34.9639 8.5517L35.1853 9ZM19.9624 16.5185L19.741 16.0702C19.5704 16.1544 19.4624 16.3282 19.4624 16.5185H19.9624ZM19.9624 16.5367L19.572 16.8491C19.7047 17.0149 19.9276 17.0788 20.1279 17.0085C20.3283 16.9382 20.4624 16.749 20.4624 16.5367H19.9624ZM19.9613 16.5354L20.3517 16.2229C20.2587 16.1068 20.1189 16.0381 19.9702 16.0354C19.8215 16.0328 19.6794 16.0965 19.5824 16.2092L19.9613 16.5354ZM12 25.7848L11.621 25.4587C11.543 25.5494 11.5 25.6651 11.5 25.7848H12ZM12 68.2033H11.5C11.5 68.323 11.5429 68.4387 11.621 68.5294L12 68.2033ZM19.9613 77.4562L19.5823 77.7823C19.6777 77.8932 19.8169 77.9568 19.9632 77.9562C20.1095 77.9557 20.2482 77.8911 20.3428 77.7794L19.9613 77.4562ZM19.9624 77.455H20.4624C20.4624 77.2452 20.3314 77.0577 20.1345 76.9855C19.9375 76.9133 19.7165 76.9717 19.5809 77.1318L19.9624 77.455ZM32.0163 82.8748C31.7689 82.7522 31.4689 82.8533 31.3462 83.1007C31.2236 83.3481 31.3247 83.6481 31.5721 83.7707L32.0163 82.8748ZM23.1208 79.5803C23.3682 79.703 23.6682 79.6019 23.7909 79.3545C23.9135 79.1071 23.8124 78.8071 23.565 78.6844L23.1208 79.5803ZM20.4624 77.4559C20.4624 77.1798 20.2385 76.9559 19.9624 76.9559C19.6862 76.9559 19.4624 77.1798 19.4624 77.4559H20.4624ZM19.4624 77.4552C19.4624 77.7314 19.6862 77.9552 19.9624 77.9552C20.2385 77.9552 20.4624 77.7314 20.4624 77.4552H19.4624ZM19.5806 77.132C19.4021 77.3428 19.4282 77.6582 19.6389 77.8367C19.8496 78.0153 20.1651 77.9891 20.3436 77.7785L19.5806 77.132ZM20.343 77.7791C20.5215 77.5684 20.4954 77.2529 20.2847 77.0744C20.074 76.8959 19.7585 76.9221 19.58 77.1327L20.343 77.7791ZM18.5711 75.0739C18.391 74.8646 18.0753 74.8409 17.866 75.021C17.6567 75.2011 17.633 75.5168 17.8131 75.7261L18.5711 75.0739ZM13.3902 70.5856C13.5703 70.795 13.886 70.8186 14.0953 70.6385C14.3046 70.4584 14.3283 70.1427 14.1482 69.9334L13.3902 70.5856ZM12.5 63.4902C12.5 63.214 12.2761 62.9902 12 62.9902C11.7239 62.9902 11.5 63.214 11.5 63.4902H12.5ZM11.5 51.7072C11.5 51.9834 11.7239 52.2072 12 52.2072C12.2761 52.2072 12.5 51.9834 12.5 51.7072H11.5ZM12.5 42.2809C12.5 42.0048 12.2761 41.7809 12 41.7809C11.7239 41.7809 11.5 42.0048 11.5 42.2809H12.5ZM11.5 30.498C11.5 30.7741 11.7239 30.998 12 30.998C12.2761 30.998 12.5 30.7741 12.5 30.498H11.5ZM14.1481 24.0556C14.3283 23.8463 14.3047 23.5306 14.0954 23.3504C13.8861 23.1703 13.5704 23.1939 13.3902 23.4032L14.1481 24.0556ZM17.8132 18.2646C17.633 18.4739 17.6567 18.7896 17.866 18.9698C18.0752 19.1499 18.3909 19.1263 18.5711 18.917L17.8132 18.2646ZM19.5712 16.8481C19.7438 17.0637 20.0584 17.0986 20.274 16.926C20.4896 16.7534 20.5245 16.4388 20.3519 16.2232L19.5712 16.8481ZM20.3525 16.2239C20.1799 16.0083 19.8652 15.9735 19.6497 16.146C19.4341 16.3186 19.3992 16.6333 19.5718 16.8489L20.3525 16.2239ZM20.4624 16.5326C20.4624 16.2565 20.2385 16.0326 19.9624 16.0326C19.6862 16.0326 19.4624 16.2565 19.4624 16.5326H20.4624ZM19.4624 16.5225C19.4624 16.7987 19.6862 17.0225 19.9624 17.0225C20.2385 17.0225 20.4624 16.7987 20.4624 16.5225H19.4624ZM23.5667 15.296C23.8143 15.1737 23.9158 14.8739 23.7936 14.6263C23.6713 14.3787 23.3714 14.2771 23.1238 14.3994L23.5667 15.296ZM31.581 10.2225C31.3335 10.3448 31.2319 10.6446 31.3542 10.8922C31.4764 11.1398 31.7763 11.2414 32.0239 11.1191L31.581 10.2225ZM39.9916 9.5C40.2678 9.5 40.4916 9.27614 40.4916 9C40.4916 8.72386 40.2678 8.5 39.9916 8.5V9.5ZM52.0073 8.5C51.7312 8.5 51.5073 8.72386 51.5073 9C51.5073 9.27614 51.7312 9.5 52.0073 9.5V8.5ZM59.9751 11.1191C60.2227 11.2414 60.5225 11.1398 60.6448 10.8922C60.7671 10.6446 60.6655 10.3448 60.4179 10.2225L59.9751 11.1191ZM68.8751 14.3994C68.6275 14.2771 68.3277 14.3787 68.2054 14.6263C68.0831 14.8739 68.1847 15.1737 68.4323 15.296L68.8751 14.3994ZM71.5366 16.5227C71.5368 16.7988 71.7609 17.0225 72.037 17.0222C72.3132 17.022 72.5368 16.7979 72.5366 16.5218L71.5366 16.5227ZM72.5366 16.5312C72.5363 16.255 72.3123 16.0314 72.0361 16.0316C71.76 16.0319 71.5363 16.2559 71.5366 16.5321L72.5366 16.5312ZM73.4273 18.917C73.6075 19.1263 73.9232 19.1499 74.1325 18.9697C74.3417 18.7895 74.3653 18.4738 74.1851 18.2646L73.4273 18.917ZM78.6093 23.4032C78.4291 23.1939 78.1134 23.1703 77.9041 23.3505C77.6949 23.5307 77.6713 23.8464 77.8514 24.0556L78.6093 23.4032ZM79.5 30.4981C79.5 30.7743 79.7239 30.9981 80 30.9981C80.2762 30.9981 80.5 30.7743 80.5 30.4981H79.5ZM80.5 42.2813C80.5 42.0052 80.2762 41.7813 80 41.7813C79.7239 41.7813 79.5 42.0052 79.5 42.2813H80.5ZM79.5 51.7079C79.5 51.984 79.7239 52.2079 80 52.2079C80.2762 52.2079 80.5 51.984 80.5 51.7079H79.5ZM80.5 63.4911C80.5 63.2149 80.2762 62.9911 80 62.9911C79.7239 62.9911 79.5 63.2149 79.5 63.4911H80.5ZM77.8514 69.9342C77.6713 70.1434 77.6949 70.4591 77.9042 70.6393C78.1135 70.8194 78.4292 70.7958 78.6093 70.5865L77.8514 69.9342ZM74.1852 75.7264C74.3653 75.5171 74.3417 75.2014 74.1324 75.0213C73.9231 74.8412 73.6074 74.8648 73.4273 75.0741L74.1852 75.7264ZM68.4339 78.6844C68.1865 78.8071 68.0854 79.1071 68.2081 79.3545C68.3308 79.6019 68.6308 79.703 68.8782 79.5803L68.4339 78.6844ZM60.4269 83.7707C60.6743 83.6481 60.7754 83.3481 60.6527 83.1007C60.53 82.8533 60.23 82.7522 59.9826 82.8748L60.4269 83.7707ZM57.2399 84.7211C57.0885 84.4902 56.7785 84.4258 56.5476 84.5773C56.3167 84.7287 56.2523 85.0387 56.4038 85.2696L57.2399 84.7211ZM56.3979 85.2606C56.5493 85.4915 56.8593 85.5559 57.0902 85.4044C57.3211 85.2529 57.3855 84.943 57.234 84.7121L56.3979 85.2606ZM56.3136 84.9866C56.3136 85.2627 56.5374 85.4866 56.8136 85.4866C57.0897 85.4866 57.3136 85.2627 57.3136 84.9866H56.3136ZM57.3136 84.9962C57.3136 84.72 57.0897 84.4962 56.8136 84.4962C56.5374 84.4962 56.3136 84.72 56.3136 84.9962H57.3136ZM52.0073 84.5C51.7312 84.5 51.5073 84.7239 51.5073 85C51.5073 85.2761 51.7312 85.5 52.0073 85.5V84.5ZM39.9916 85.5C40.2678 85.5 40.4916 85.2761 40.4916 85C40.4916 84.7239 40.2678 84.5 39.9916 84.5V85.5ZM35.6853 84.996C35.6853 84.7199 35.4615 84.496 35.1853 84.496C34.9092 84.496 34.6853 84.7199 34.6853 84.996H35.6853ZM34.6853 84.986C34.6853 85.2621 34.9092 85.486 35.1853 85.486C35.4615 85.486 35.6853 85.2621 35.6853 84.986H34.6853ZM34.7593 84.7203C34.6127 84.9543 34.6835 85.2628 34.9175 85.4095C35.1515 85.5561 35.46 85.4853 35.6067 85.2513L34.7593 84.7203ZM35.6008 85.2607C35.7474 85.0267 35.6766 84.7181 35.4426 84.5715C35.2086 84.4249 34.9 84.4957 34.7534 84.7297L35.6008 85.2607ZM35.3968 84.551L32.0163 82.8748L31.5721 83.7707L34.9526 85.4469L35.3968 84.551ZM23.565 78.6844L20.1845 77.0083L19.7403 77.9042L23.1208 79.5803L23.565 78.6844ZM20.4624 77.4562V77.4559H19.4624V77.4562H20.4624ZM20.4624 77.4552V77.455H19.4624V77.4552H20.4624ZM19.5809 77.1318L19.5806 77.132L20.3436 77.7785L20.3439 77.7782L19.5809 77.1318ZM19.58 77.1327L19.5798 77.133L20.3428 77.7794L20.343 77.7791L19.58 77.1327ZM20.3403 77.1301L18.5711 75.0739L17.8131 75.7261L19.5823 77.7823L20.3403 77.1301ZM14.1482 69.9334L12.379 67.8772L11.621 68.5294L13.3902 70.5856L14.1482 69.9334ZM12.5 68.2033V63.4902H11.5V68.2033H12.5ZM12.5 51.7072V42.2809H11.5V51.7072H12.5ZM12.5 30.498V25.7848H11.5V30.498H12.5ZM12.379 26.111L14.1481 24.0556L13.3902 23.4032L11.621 25.4587L12.379 26.111ZM18.5711 18.917L20.3403 16.8615L19.5824 16.2092L17.8132 18.2646L18.5711 18.917ZM19.571 16.8478L19.5712 16.8481L20.3519 16.2232L20.3517 16.2229L19.571 16.8478ZM19.5718 16.8489L19.572 16.8491L20.3527 16.2242L20.3525 16.2239L19.5718 16.8489ZM20.4624 16.5367V16.5326H19.4624V16.5367H20.4624ZM20.4624 16.5225V16.5185H19.4624V16.5225H20.4624ZM20.1838 16.9668L23.5667 15.296L23.1238 14.3994L19.741 16.0702L20.1838 16.9668ZM32.0239 11.1191L35.4068 9.4483L34.9639 8.5517L31.581 10.2225L32.0239 11.1191ZM35.1853 9.5H39.9916V8.5H35.1853V9.5ZM52.0073 9.5H56.8136V8.5H52.0073V9.5ZM56.5922 9.4483L59.9751 11.1191L60.4179 10.2225L57.035 8.5517L56.5922 9.4483ZM68.4323 15.296L71.8151 16.9668L72.258 16.0702L68.8751 14.3994L68.4323 15.296ZM71.5366 16.5189L71.5366 16.5227L72.5366 16.5218L72.5366 16.518L71.5366 16.5189ZM71.5366 16.5321L71.5366 16.5358L72.5366 16.5349L72.5366 16.5312L71.5366 16.5321ZM71.6577 16.8616L73.4273 18.917L74.1851 18.2646L72.4155 16.2091L71.6577 16.8616ZM77.8514 24.0556L79.6211 26.1111L80.3789 25.4586L78.6093 23.4032L77.8514 24.0556ZM79.5 25.7848V30.4981H80.5V25.7848H79.5ZM79.5 42.2813V51.7079H80.5V42.2813H79.5ZM79.5 63.4911V68.2044H80.5V63.4911H79.5ZM79.6211 67.8782L77.8514 69.9342L78.6093 70.5865L80.379 68.5306L79.6211 67.8782ZM73.4273 75.0741L71.6576 77.13L72.4155 77.7824L74.1852 75.7264L73.4273 75.0741ZM71.8145 77.0083L68.4339 78.6844L68.8782 79.5803L72.2587 77.9042L71.8145 77.0083ZM59.9826 82.8748L56.6021 84.551L57.0463 85.4469L60.4269 83.7707L59.9826 82.8748ZM57.2423 84.7247L57.2399 84.7211L56.4038 85.2696L56.4061 85.2732L57.2423 84.7247ZM57.234 84.7121L57.2317 84.7085L56.3955 85.257L56.3979 85.2606L57.234 84.7121ZM56.3136 84.9827V84.9866H57.3136V84.9827H56.3136ZM56.3136 84.9962V85H57.3136V84.9962H56.3136ZM56.8136 84.5H52.0073V85.5H56.8136V84.5ZM39.9916 84.5H35.1853V85.5H39.9916V84.5ZM35.6853 85V84.996H34.6853V85H35.6853ZM35.6853 84.986V84.982H34.6853V84.986H35.6853ZM34.7616 84.7165L34.7593 84.7203L35.6067 85.2513L35.609 85.2475L34.7616 84.7165ZM34.7534 84.7297L34.751 84.7335L35.5984 85.2644L35.6008 85.2607L34.7534 84.7297ZM35.1747 84.9989L34.7305 85.8949C35.1908 86.1231 35.7493 85.9653 36.0221 85.5299L35.1747 84.9989ZM19.9624 77.4562H18.9624C18.9624 77.8362 19.1777 78.1833 19.5181 78.3521L19.9624 77.4562ZM35.1853 84.982H36.1853C36.1853 84.5361 35.8901 84.1441 35.4616 84.0209C35.033 83.8977 34.5747 84.0732 34.338 84.451L35.1853 84.982ZM35.1853 85H34.1853C34.1853 85.5523 34.633 86 35.1853 86V85ZM56.8136 85V86C57.3659 86 57.8136 85.5523 57.8136 85H56.8136ZM56.8136 84.9827L57.6497 84.4342C57.4073 84.0646 56.9509 83.898 56.5274 84.0246C56.1038 84.1511 55.8136 84.5407 55.8136 84.9827H56.8136ZM56.8242 84.9989L55.9881 85.5475C56.2656 85.9704 56.8152 86.1196 57.2684 85.8949L56.8242 84.9989ZM72.0366 77.4562L72.4808 78.3521C72.6006 78.2927 72.7073 78.2099 72.7945 78.1086L72.0366 77.4562ZM80 68.2044L80.7579 68.8567C80.9141 68.6753 81 68.4438 81 68.2044H80ZM80 25.7848H81C81 25.5454 80.9141 25.3139 80.7578 25.1324L80 25.7848ZM72.0366 16.5354L71.0366 16.5363C71.0368 16.7754 71.1227 17.0066 71.2788 17.1878L72.0366 16.5354ZM72.0366 16.5185L73.0366 16.5176C73.0362 16.1374 72.8203 15.7903 72.4794 15.6219L72.0366 16.5185ZM56.8136 9L57.2564 8.10339C57.1187 8.03538 56.9672 8 56.8136 8V9ZM35.1853 9V8C35.0317 8 34.8802 8.03538 34.7425 8.10339L35.1853 9ZM19.9624 16.5185L19.5195 15.6219C19.1784 15.7904 18.9624 16.138 18.9624 16.5185H19.9624ZM19.9624 16.5367L19.1817 17.1616C19.4471 17.4931 19.8929 17.6209 20.2935 17.4803C20.6942 17.3396 20.9624 16.9613 20.9624 16.5367H19.9624ZM19.9613 16.5354L20.742 15.9104C20.5561 15.6782 20.2765 15.5408 19.9791 15.5355C19.6817 15.5302 19.3974 15.6576 19.2034 15.883L19.9613 16.5354ZM12 25.7848L11.2421 25.1325C11.0859 25.3139 11 25.5454 11 25.7848H12ZM12 68.2033H11C11 68.4427 11.0859 68.6741 11.242 68.8555L12 68.2033ZM19.9613 77.4562L19.2033 78.1084C19.3941 78.3302 19.6725 78.4573 19.9651 78.4562C20.2577 78.4551 20.5352 78.3259 20.7243 78.1026L19.9613 77.4562ZM19.9624 77.455H20.9624C20.9624 77.0354 20.7005 76.6605 20.3066 76.5161C19.9127 76.3717 19.4706 76.4885 19.1994 76.8086L19.9624 77.455ZM32.2384 82.4269C31.7436 82.1815 31.1436 82.3838 30.8983 82.8786C30.6529 83.3734 30.8552 83.9734 31.35 84.2187L32.2384 82.4269ZM22.8987 80.0283C23.3935 80.2736 23.9935 80.0714 24.2388 79.5766C24.4841 79.0818 24.2819 78.4818 23.7871 78.2365L22.8987 80.0283ZM20.9624 77.4559C20.9624 76.9037 20.5147 76.4559 19.9624 76.4559C19.4101 76.4559 18.9624 76.9037 18.9624 77.4559H20.9624ZM18.9624 77.4552C18.9624 78.0075 19.4101 78.4552 19.9624 78.4552C20.5147 78.4552 20.9624 78.0075 20.9624 77.4552H18.9624ZM19.1991 76.8089C18.8421 77.2302 18.8943 77.8613 19.3157 78.2182C19.7371 78.5752 20.3681 78.523 20.7251 78.1016L19.1991 76.8089ZM20.7245 78.1023C21.0815 77.6809 21.0293 77.0499 20.6079 76.6929C20.1866 76.3359 19.5555 76.3882 19.1985 76.8095L20.7245 78.1023ZM18.9502 74.7478C18.59 74.3292 17.9586 74.2818 17.5399 74.642C17.1213 75.0022 17.0739 75.6336 17.4341 76.0522L18.9502 74.7478ZM13.0112 70.9117C13.3714 71.3304 14.0028 71.3778 14.4214 71.0175C14.84 70.6573 14.8874 70.0259 14.5272 69.6073L13.0112 70.9117ZM13 63.4902C13 62.9379 12.5523 62.4902 12 62.4902C11.4477 62.4902 11 62.9379 11 63.4902H13ZM11 51.7072C11 52.2595 11.4477 52.7072 12 52.7072C12.5523 52.7072 13 52.2595 13 51.7072H11ZM13 42.2809C13 41.7286 12.5523 41.2809 12 41.2809C11.4477 41.2809 11 41.7286 11 42.2809H13ZM11 30.498C11 31.0503 11.4477 31.498 12 31.498C12.5523 31.498 13 31.0503 13 30.498H11ZM14.5271 24.3818C14.8874 23.9632 14.8401 23.3318 14.4215 22.9715C14.003 22.6112 13.3716 22.6585 13.0113 23.077L14.5271 24.3818ZM17.4342 17.9384C17.0739 18.357 17.1212 18.9884 17.5398 19.3487C17.9584 19.709 18.5898 19.6617 18.95 19.2432L17.4342 17.9384ZM19.1809 17.1606C19.526 17.5917 20.1553 17.6615 20.5865 17.3163C21.0176 16.9712 21.0874 16.3419 20.7422 15.9107L19.1809 17.1606ZM20.7428 15.9114C20.3977 15.4803 19.7684 15.4106 19.3372 15.7557C18.906 16.1008 18.8363 16.7302 19.1815 17.1613L20.7428 15.9114ZM20.9624 16.5326C20.9624 15.9804 20.5147 15.5326 19.9624 15.5326C19.4101 15.5326 18.9624 15.9804 18.9624 16.5326H20.9624ZM18.9624 16.5225C18.9624 17.0748 19.4101 17.5225 19.9624 17.5225C20.5147 17.5225 20.9624 17.0748 20.9624 16.5225H18.9624ZM23.7881 15.7443C24.2833 15.4998 24.4864 14.9001 24.2419 14.4049C23.9973 13.9097 23.3976 13.7065 22.9024 13.9511L23.7881 15.7443ZM31.3596 9.77417C30.8644 10.0187 30.6613 10.6184 30.9059 11.1136C31.1504 11.6088 31.7501 11.812 32.2453 11.5674L31.3596 9.77417ZM39.9916 10C40.5439 10 40.9916 9.55228 40.9916 9C40.9916 8.44772 40.5439 8 39.9916 8V10ZM52.0073 8C51.455 8 51.0073 8.44772 51.0073 9C51.0073 9.55228 51.455 10 52.0073 10V8ZM59.7537 11.5674C60.2488 11.812 60.8485 11.6088 61.0931 11.1136C61.3377 10.6184 61.1345 10.0187 60.6393 9.77417L59.7537 11.5674ZM69.0965 13.9511C68.6013 13.7065 68.0016 13.9097 67.7571 14.4049C67.5125 14.9001 67.7157 15.4998 68.2109 15.7443L69.0965 13.9511ZM71.0366 16.5231C71.0371 17.0754 71.4852 17.5227 72.0375 17.5222C72.5898 17.5217 73.0371 17.0736 73.0366 16.5213L71.0366 16.5231ZM73.0366 16.5307C73.0361 15.9784 72.588 15.5311 72.0357 15.5316C71.4834 15.5321 71.0361 15.9802 71.0366 16.5325L73.0366 16.5307ZM73.0484 19.2433C73.4087 19.6618 74.0401 19.709 74.4587 19.3486C74.8772 18.9883 74.9244 18.3569 74.5641 17.9383L73.0484 19.2433ZM78.9882 23.0769C78.6278 22.6584 77.9964 22.6112 77.5779 22.9716C77.1594 23.3319 77.1122 23.9633 77.4725 24.3819L78.9882 23.0769ZM79 30.4981C79 31.0504 79.4477 31.4981 80 31.4981C80.5523 31.4981 81 31.0504 81 30.4981H79ZM81 42.2813C81 41.729 80.5523 41.2813 80 41.2813C79.4477 41.2813 79 41.729 79 42.2813H81ZM79 51.7079C79 52.2602 79.4477 52.7079 80 52.7079C80.5523 52.7079 81 52.2602 81 51.7079H79ZM81 63.4911C81 62.9388 80.5523 62.4911 80 62.4911C79.4477 62.4911 79 62.9388 79 63.4911H81ZM77.4725 69.608C77.1122 70.0266 77.1594 70.658 77.578 71.0182C77.9966 71.3785 78.628 71.3313 78.9883 70.9127L77.4725 69.608ZM74.5641 76.0526C74.9244 75.634 74.8772 75.0026 74.4586 74.6423C74.04 74.2821 73.4086 74.3293 73.0483 74.7479L74.5641 76.0526ZM68.2118 78.2365C67.717 78.4818 67.5148 79.0818 67.7601 79.5766C68.0055 80.0714 68.6055 80.2736 69.1003 80.0283L68.2118 78.2365ZM60.649 84.2187C61.1438 83.9734 61.346 83.3734 61.1007 82.8786C60.8553 82.3838 60.2553 82.1815 59.7605 82.4269L60.649 84.2187ZM57.658 84.4468C57.3551 83.985 56.7351 83.8563 56.2733 84.1592C55.8116 84.4621 55.6828 85.0821 55.9857 85.5439L57.658 84.4468ZM55.9798 85.5349C56.2827 85.9966 56.9027 86.1254 57.3645 85.8225C57.8262 85.5195 57.955 84.8996 57.6521 84.4378L55.9798 85.5349ZM55.8136 84.9866C55.8136 85.5389 56.2613 85.9866 56.8136 85.9866C57.3659 85.9866 57.8136 85.5389 57.8136 84.9866H55.8136ZM57.8136 84.9962C57.8136 84.4439 57.3659 83.9962 56.8136 83.9962C56.2613 83.9962 55.8136 84.4439 55.8136 84.9962H57.8136ZM52.0073 84C51.455 84 51.0073 84.4477 51.0073 85C51.0073 85.5523 51.455 86 52.0073 86V84ZM39.9916 86C40.5439 86 40.9916 85.5523 40.9916 85C40.9916 84.4477 40.5439 84 39.9916 84V86ZM36.1853 84.996C36.1853 84.4437 35.7376 83.996 35.1853 83.996C34.633 83.996 34.1853 84.4437 34.1853 84.996H36.1853ZM34.1853 84.986C34.1853 85.5383 34.633 85.986 35.1853 85.986C35.7376 85.986 36.1853 85.5383 36.1853 84.986H34.1853ZM34.3356 84.4548C34.0423 84.9228 34.184 85.5399 34.652 85.8331C35.12 86.1264 35.7371 85.9848 36.0303 85.5168L34.3356 84.4548ZM36.0245 85.5262C36.3177 85.0582 36.1761 84.4411 35.7081 84.1478C35.2401 83.8545 34.623 83.9962 34.3297 84.4642L36.0245 85.5262ZM35.6189 84.103L32.2384 82.4269L31.35 84.2187L34.7305 85.8949L35.6189 84.103ZM23.7871 78.2365L20.4066 76.5603L19.5181 78.3521L22.8987 80.0283L23.7871 78.2365ZM20.9624 77.4562V77.4559H18.9624V77.4562H20.9624ZM20.9624 77.4552V77.455H18.9624V77.4552H20.9624ZM19.1994 76.8086L19.1991 76.8089L20.7251 78.1016L20.7254 78.1014L19.1994 76.8086ZM19.1985 76.8095L19.1983 76.8098L20.7243 78.1026L20.7245 78.1023L19.1985 76.8095ZM20.7193 76.804L18.9502 74.7478L17.4341 76.0522L19.2033 78.1084L20.7193 76.804ZM14.5272 69.6073L12.758 67.5511L11.242 68.8555L13.0112 70.9117L14.5272 69.6073ZM13 68.2033V63.4902H11V68.2033H13ZM13 51.7072V42.2809H11V51.7072H13ZM13 30.498V25.7848H11V30.498H13ZM12.7579 26.4372L14.5271 24.3818L13.0113 23.077L11.2421 25.1325L12.7579 26.4372ZM18.95 19.2432L20.7192 17.1877L19.2034 15.883L17.4342 17.9384L18.95 19.2432ZM19.1806 17.1603L19.1809 17.1606L20.7422 15.9107L20.742 15.9104L19.1806 17.1603ZM19.1815 17.1613L19.1817 17.1616L20.743 15.9117L20.7428 15.9114L19.1815 17.1613ZM20.9624 16.5367V16.5326H18.9624V16.5367H20.9624ZM20.9624 16.5225V16.5185H18.9624V16.5225H20.9624ZM20.4052 17.4151L23.7881 15.7443L22.9024 13.9511L19.5195 15.6219L20.4052 17.4151ZM32.2453 11.5674L35.6282 9.89661L34.7425 8.10339L31.3596 9.77417L32.2453 11.5674ZM35.1853 10H39.9916V8H35.1853V10ZM52.0073 10H56.8136V8H52.0073V10ZM56.3708 9.89661L59.7537 11.5674L60.6393 9.77417L57.2564 8.10339L56.3708 9.89661ZM68.2109 15.7443L71.5937 17.4151L72.4794 15.6219L69.0965 13.9511L68.2109 15.7443ZM71.0366 16.5194L71.0366 16.5231L73.0366 16.5213L73.0366 16.5176L71.0366 16.5194ZM71.0366 16.5325L71.0366 16.5363L73.0366 16.5344L73.0366 16.5307L71.0366 16.5325ZM71.2788 17.1878L73.0484 19.2433L74.5641 17.9383L72.7944 15.8829L71.2788 17.1878ZM77.4725 24.3819L79.2422 26.4373L80.7578 25.1324L78.9882 23.0769L77.4725 24.3819ZM79 25.7848V30.4981H81V25.7848H79ZM79 42.2813V51.7079H81V42.2813H79ZM79 63.4911V68.2044H81V63.4911H79ZM79.2421 67.552L77.4725 69.608L78.9883 70.9127L80.7579 68.8567L79.2421 67.552ZM73.0483 74.7479L71.2787 76.8039L72.7945 78.1086L74.5641 76.0526L73.0483 74.7479ZM71.5924 76.5603L68.2118 78.2365L69.1003 80.0283L72.4808 78.3521L71.5924 76.5603ZM59.7605 82.4269L56.38 84.103L57.2684 85.8949L60.649 84.2187L59.7605 82.4269ZM57.6604 84.4504L57.658 84.4468L55.9857 85.5439L55.9881 85.5475L57.6604 84.4504ZM57.6521 84.4378L57.6497 84.4342L55.9774 85.5312L55.9798 85.5349L57.6521 84.4378ZM55.8136 84.9827V84.9866H57.8136V84.9827H55.8136ZM55.8136 84.9962V85H57.8136V84.9962H55.8136ZM56.8136 84H52.0073V86H56.8136V84ZM39.9916 84H35.1853V86H39.9916V84ZM36.1853 85V84.996H34.1853V85H36.1853ZM36.1853 84.986V84.982H34.1853V84.986H36.1853ZM34.338 84.451L34.3356 84.4548L36.0303 85.5168L36.0327 85.513L34.338 84.451ZM34.3297 84.4642L34.3273 84.468L36.0221 85.5299L36.0245 85.5262L34.3297 84.4642Z" fill="black" mask="url(#path-1-outside-1)"/>
<path d="M48.8967 78H49.8285L65.0384 70.4569L65.2916 70.1021V9.89344L65.0384 9.53675L49.8285 2H48.8853L48.8967 78Z" fill="#5294CF"/>
<path d="M29.1031 78H28.1582L12.9613 70.4569L12.6529 69.9309L12.4965 10.2001L12.9613 9.53675L28.1582 2H29.1148L29.1031 78Z" fill="#1F5B98"/>
<path d="M28.1851 2H49.8138V78H28.1851V2Z" fill="#2D72B8"/>
<path d="M73 38.2926L72.486 38.1796L65.1473 37.501L65.0384 37.5547L49.8149 36.9509H28.1851L12.9613 37.5547V26.0418L12.9454 26.0502L12.9613 26.0165L28.1851 22.5181H49.8149L65.0384 26.0165L70.6349 28.9666V27.0699L73 26.8133L72.7551 26.3397L65.2666 21.0292L65.0384 21.1027L49.8149 16.4244H28.1851L12.9613 21.1027V9.53677L5 18.7866V26.865L5.06162 26.8207L7.36513 27.0699V29.0056L5 30.2609V38.2989L5.06162 38.2926L7.36513 38.3263V41.7001L5.37772 41.7296L5 41.6937V49.735L7.36513 50.9963V52.9544L5.09908 53.2025L5 53.1287V61.2058L12.9613 70.457V58.8921L28.1851 63.5703H49.8149L65.0833 58.8784L65.2863 58.9666L72.6762 53.7344L73 53.213L70.6349 52.9544V51.0355L70.3249 50.9128L65.2666 53.6169L65.0833 53.9962L49.8149 57.4743V57.4785H28.1851V57.4743L12.9613 53.9815V42.4263L28.1851 43.028V43.0428H49.8149L65.0384 42.4263L65.3851 42.5844L72.4982 41.9769L73 41.7338L70.6349 41.7001V38.3263L73 38.2926Z" fill="#1A476F"/>
<path d="M65.0385 58.8921V70.457L73 61.2058V53.1814L65.0844 58.8784L65.0385 58.8921ZM65.0385 54.0068L65.0844 53.9962L73 49.774V41.7001L65.0385 42.4263V54.0068ZM65.0844 26.027L65.0385 26.0165V37.5547L73 38.2926V30.2227L65.0844 26.027ZM65.0844 21.148L73 26.8133V18.7887L65.0385 9.53677V21.1027L65.0844 21.1185V21.148Z" fill="#2D72B8"/>
</svg>
