<svg width="88" height="88" viewBox="0 0 88 88" fill="none" xmlns="http://www.w3.org/2000/svg">
<mask id="path-1-inside-1" fill="white">
<path d="M33.0666 74.9279L22.4829 72.5362V22.4774L33.0666 25.0824V74.9279ZM46.6432 77.8169L33.0666 76.1257V17.8878L46.6432 22.1946V77.8169ZM82.9449 72.2596L48.041 87.3939C47.3807 87.6802 46.6432 87.1962 46.6432 86.4764V9.68208C46.6432 8.92358 47.4546 8.44122 48.1209 8.80357L82.9449 27.7404V72.2596Z"/>
</mask>
<path d="M33.0666 74.9279L22.4829 72.5362V22.4774L33.0666 25.0824V74.9279ZM46.6432 77.8169L33.0666 76.1257V17.8878L46.6432 22.1946V77.8169ZM82.9449 72.2596L48.041 87.3939C47.3807 87.6802 46.6432 87.1962 46.6432 86.4764V9.68208C46.6432 8.92358 47.4546 8.44122 48.1209 8.80357L82.9449 27.7404V72.2596Z" fill="#F7F7FE"/>
<path d="M33.0666 74.9279L32.9564 75.4156C33.1046 75.4491 33.26 75.4133 33.3787 75.3185C33.4975 75.2236 33.5666 75.0799 33.5666 74.9279H33.0666ZM22.4829 72.5362H21.9829C21.9829 72.7698 22.1448 72.9723 22.3727 73.0239L22.4829 72.5362ZM22.4829 22.4774L22.6024 21.9919C22.4532 21.9551 22.2954 21.989 22.1745 22.0838C22.0536 22.1786 21.9829 22.3237 21.9829 22.4774H22.4829ZM33.0666 25.0824H33.5666C33.5666 24.8523 33.4095 24.6519 33.1861 24.5969L33.0666 25.0824ZM46.6432 77.8169L46.5814 78.3131C46.7237 78.3308 46.8667 78.2866 46.9742 78.1917C47.0817 78.0968 47.1432 77.9603 47.1432 77.8169H46.6432ZM33.0666 76.1257H32.5666C32.5666 76.378 32.7545 76.5907 33.0048 76.6219L33.0666 76.1257ZM33.0666 17.8878L33.2178 17.4112C33.0658 17.363 32.8999 17.3902 32.7713 17.4843C32.6426 17.5785 32.5666 17.7284 32.5666 17.8878H33.0666ZM46.6432 22.1946H47.1432C47.1432 21.9767 47.0021 21.7839 46.7944 21.718L46.6432 22.1946ZM82.9449 72.2596L83.1438 72.7183C83.3266 72.6391 83.4449 72.4588 83.4449 72.2596H82.9449ZM82.9449 27.7404H83.4449C83.4449 27.5572 83.3447 27.3887 83.1838 27.3011L82.9449 27.7404ZM48.1209 8.80357L48.3598 8.36431L48.1209 8.80357ZM48.041 87.3939L47.8421 86.9352L48.041 87.3939ZM30.8249 73.9087C30.5555 73.8478 30.2878 74.0168 30.227 74.2862C30.1661 74.5555 30.3351 74.8232 30.6044 74.8841L30.8249 73.9087ZM24.7246 73.5554C24.994 73.6162 25.2617 73.4472 25.3225 73.1779C25.3834 72.9085 25.2144 72.6408 24.945 72.5799L24.7246 73.5554ZM22.9829 68.8281C22.9829 68.552 22.7591 68.3281 22.4829 68.3281C22.2068 68.3281 21.9829 68.552 21.9829 68.8281H22.9829ZM21.9829 59.5579C21.9829 59.8341 22.2068 60.0579 22.4829 60.0579C22.7591 60.0579 22.9829 59.8341 22.9829 59.5579H21.9829ZM22.9829 52.1418C22.9829 51.8657 22.7591 51.6418 22.4829 51.6418C22.2068 51.6418 21.9829 51.8657 21.9829 52.1418H22.9829ZM21.9829 42.8717C21.9829 43.1478 22.2068 43.3717 22.4829 43.3717C22.7591 43.3717 22.9829 43.1478 22.9829 42.8717H21.9829ZM22.9829 35.4556C22.9829 35.1794 22.7591 34.9556 22.4829 34.9556C22.2068 34.9556 21.9829 35.1794 21.9829 35.4556H22.9829ZM21.9829 26.1854C21.9829 26.4616 22.2068 26.6854 22.4829 26.6854C22.7591 26.6854 22.9829 26.4616 22.9829 26.1854H21.9829ZM24.7153 23.5418C24.9835 23.6078 25.2543 23.4439 25.3203 23.1758C25.3863 22.9076 25.2225 22.6368 24.9543 22.5708L24.7153 23.5418ZM30.8342 24.018C30.566 23.952 30.2951 24.1159 30.2291 24.384C30.1631 24.6522 30.327 24.923 30.5952 24.989L30.8342 24.018ZM32.5666 28.7747C32.5666 29.0508 32.7904 29.2747 33.0666 29.2747C33.3427 29.2747 33.5666 29.0508 33.5666 28.7747H32.5666ZM33.5666 38.0053C33.5666 37.7292 33.3427 37.5053 33.0666 37.5053C32.7904 37.5053 32.5666 37.7292 32.5666 38.0053H33.5666ZM32.5666 45.3898C32.5666 45.666 32.7904 45.8898 33.0666 45.8898C33.3427 45.8898 33.5666 45.666 33.5666 45.3898H32.5666ZM33.5666 54.6205C33.5666 54.3443 33.3427 54.1205 33.0666 54.1205C32.7904 54.1205 32.5666 54.3443 32.5666 54.6205H33.5666ZM32.5666 62.005C32.5666 62.2811 32.7904 62.505 33.0666 62.505C33.3427 62.505 33.5666 62.2811 33.5666 62.005H32.5666ZM33.5666 71.2356C33.5666 70.9595 33.3427 70.7356 33.0666 70.7356C32.7904 70.7356 32.5666 70.9595 32.5666 71.2356H33.5666ZM43.688 76.945C43.414 76.9108 43.1642 77.1053 43.13 77.3793C43.0959 77.6533 43.2904 77.9031 43.5644 77.9373L43.688 76.945ZM36.0218 76.9977C36.2958 77.0318 36.5456 76.8374 36.5798 76.5634C36.6139 76.2893 36.4194 76.0395 36.1454 76.0054L36.0218 76.9977ZM33.5666 71.8118C33.5666 71.5357 33.3427 71.3118 33.0666 71.3118C32.7904 71.3118 32.5666 71.5357 32.5666 71.8118H33.5666ZM32.5666 61.027C32.5666 61.3031 32.7904 61.527 33.0666 61.527C33.3427 61.527 33.5666 61.3031 33.5666 61.027H32.5666ZM33.5666 52.3992C33.5666 52.123 33.3427 51.8992 33.0666 51.8992C32.7904 51.8992 32.5666 52.123 32.5666 52.3992H33.5666ZM32.5666 41.6144C32.5666 41.8905 32.7904 42.1144 33.0666 42.1144C33.3427 42.1144 33.5666 41.8905 33.5666 41.6144H32.5666ZM33.5666 32.9865C33.5666 32.7104 33.3427 32.4865 33.0666 32.4865C32.7904 32.4865 32.5666 32.7104 32.5666 32.9865H33.5666ZM32.5666 22.2017C32.5666 22.4779 32.7904 22.7017 33.0666 22.7017C33.3427 22.7017 33.5666 22.4779 33.5666 22.2017H32.5666ZM35.9324 19.3215C36.1956 19.405 36.4767 19.2593 36.5602 18.9961C36.6437 18.7328 36.498 18.4518 36.2348 18.3683L35.9324 19.3215ZM43.7774 20.7609C43.5142 20.6774 43.2331 20.8231 43.1496 21.0864C43.0661 21.3496 43.2118 21.6306 43.475 21.7141L43.7774 20.7609ZM46.1432 26.3148C46.1432 26.5909 46.3671 26.8148 46.6432 26.8148C46.9194 26.8148 47.1432 26.5909 47.1432 26.3148H46.1432ZM47.1432 36.6152C47.1432 36.3391 46.9194 36.1152 46.6432 36.1152C46.3671 36.1152 46.1432 36.3391 46.1432 36.6152H47.1432ZM46.1432 44.8556C46.1432 45.1317 46.3671 45.3556 46.6432 45.3556C46.9194 45.3556 47.1432 45.1317 47.1432 44.8556H46.1432ZM47.1432 55.156C47.1432 54.8799 46.9194 54.656 46.6432 54.656C46.3671 54.656 46.1432 54.8799 46.1432 55.156H47.1432ZM46.1432 63.3963C46.1432 63.6725 46.3671 63.8963 46.6432 63.8963C46.9194 63.8963 47.1432 63.6725 47.1432 63.3963H46.1432ZM47.1432 73.6968C47.1432 73.4206 46.9194 73.1968 46.6432 73.1968C46.3671 73.1968 46.1432 73.4206 46.1432 73.6968H47.1432ZM78.8678 73.4825C78.6145 73.5923 78.4981 73.8868 78.608 74.1401C78.7178 74.3935 79.0123 74.5098 79.2656 74.3999L78.8678 73.4825ZM69.5701 78.6039C69.8234 78.494 69.9398 78.1996 69.8299 77.9463C69.7201 77.6929 69.4256 77.5766 69.1723 77.6864L69.5701 78.6039ZM61.4159 81.0496C61.1625 81.1595 61.0462 81.4539 61.156 81.7073C61.2659 81.9606 61.5603 82.0769 61.8137 81.9671L61.4159 81.0496ZM52.1181 86.1711C52.3715 86.0612 52.4878 85.7668 52.378 85.5134C52.2681 85.2601 51.9737 85.1437 51.7203 85.2536L52.1181 86.1711ZM47.6278 86.9773C47.3518 86.9687 47.1211 87.1856 47.1126 87.4616C47.104 87.7376 47.3208 87.9683 47.5968 87.9768L47.6278 86.9773ZM46.2851 87.1159C46.4028 87.3657 46.7007 87.4728 46.9505 87.3552C47.2003 87.2375 47.3075 86.9396 47.1898 86.6898L46.2851 87.1159ZM47.1432 82.2101C47.1432 81.9339 46.9194 81.7101 46.6432 81.7101C46.3671 81.7101 46.1432 81.9339 46.1432 82.2101H47.1432ZM46.1432 71.5442C46.1432 71.8203 46.3671 72.0442 46.6432 72.0442C46.9194 72.0442 47.1432 71.8203 47.1432 71.5442H46.1432ZM47.1432 63.0115C47.1432 62.7354 46.9194 62.5115 46.6432 62.5115C46.3671 62.5115 46.1432 62.7354 46.1432 63.0115H47.1432ZM46.1432 52.3456C46.1432 52.6218 46.3671 52.8456 46.6432 52.8456C46.9194 52.8456 47.1432 52.6218 47.1432 52.3456H46.1432ZM47.1432 43.8129C47.1432 43.5368 46.9194 43.3129 46.6432 43.3129C46.3671 43.3129 46.1432 43.5368 46.1432 43.8129H47.1432ZM46.1432 33.147C46.1432 33.4232 46.3671 33.647 46.6432 33.647C46.9194 33.647 47.1432 33.4232 47.1432 33.147H46.1432ZM47.1432 24.6143C47.1432 24.3382 46.9194 24.1143 46.6432 24.1143C46.3671 24.1143 46.1432 24.3382 46.1432 24.6143H47.1432ZM46.1432 13.9484C46.1432 14.2246 46.3671 14.4484 46.6432 14.4484C46.9194 14.4484 47.1432 14.2246 47.1432 13.9484H46.1432ZM47.1938 9.45965C47.3164 9.2122 47.2152 8.91224 46.9677 8.78966C46.7203 8.66709 46.4203 8.76832 46.2977 9.01577L47.1938 9.45965ZM47.7006 8.18174C47.4247 8.17121 47.1925 8.38637 47.1819 8.66231C47.1714 8.93825 47.3866 9.17049 47.6625 9.18102L47.7006 8.18174ZM51.7514 11.3469C51.994 11.4788 52.2976 11.3891 52.4295 11.1465C52.5614 10.9039 52.4717 10.6003 52.2291 10.4684L51.7514 11.3469ZM61.9025 15.7286C61.6599 15.5967 61.3563 15.6864 61.2243 15.929C61.0924 16.1716 61.1821 16.4752 61.4247 16.6071L61.9025 15.7286ZM69.1634 20.8153C69.406 20.9472 69.7096 20.8575 69.8415 20.6149C69.9734 20.3723 69.8837 20.0687 69.6411 19.9368L69.1634 20.8153ZM79.3145 25.197C79.0719 25.0651 78.7683 25.1548 78.6363 25.3974C78.5044 25.64 78.5941 25.9436 78.8367 26.0756L79.3145 25.197ZM82.4449 32.687C82.4449 32.9631 82.6688 33.187 82.9449 33.187C83.2211 33.187 83.4449 32.9631 83.4449 32.687H82.4449ZM83.4449 45.0534C83.4449 44.7773 83.2211 44.5534 82.9449 44.5534C82.6688 44.5534 82.4449 44.7773 82.4449 45.0534H83.4449ZM82.4449 54.9466C82.4449 55.2227 82.6688 55.4466 82.9449 55.4466C83.2211 55.4466 83.4449 55.2227 83.4449 54.9466H82.4449ZM83.4449 67.313C83.4449 67.0369 83.2211 66.813 82.9449 66.813C82.6688 66.813 82.4449 67.0369 82.4449 67.313H83.4449ZM33.1768 74.4402L30.8249 73.9087L30.6044 74.8841L32.9564 75.4156L33.1768 74.4402ZM24.945 72.5799L22.5931 72.0485L22.3727 73.0239L24.7246 73.5554L24.945 72.5799ZM22.9829 72.5362V68.8281H21.9829V72.5362H22.9829ZM22.9829 59.5579V52.1418H21.9829V59.5579H22.9829ZM22.9829 42.8717V35.4556H21.9829V42.8717H22.9829ZM22.9829 26.1854V22.4774H21.9829V26.1854H22.9829ZM22.3634 22.9629L24.7153 23.5418L24.9543 22.5708L22.6024 21.9919L22.3634 22.9629ZM30.5952 24.989L32.9471 25.568L33.1861 24.5969L30.8342 24.018L30.5952 24.989ZM32.5666 25.0824V28.7747H33.5666V25.0824H32.5666ZM32.5666 38.0053V45.3898H33.5666V38.0053H32.5666ZM32.5666 54.6205V62.005H33.5666V54.6205H32.5666ZM32.5666 71.2356V74.9279H33.5666V71.2356H32.5666ZM46.705 77.3208L43.688 76.945L43.5644 77.9373L46.5814 78.3131L46.705 77.3208ZM36.1454 76.0054L33.1284 75.6296L33.0048 76.6219L36.0218 76.9977L36.1454 76.0054ZM33.5666 76.1257V71.8118H32.5666V76.1257H33.5666ZM33.5666 61.027V52.3992H32.5666V61.027H33.5666ZM33.5666 41.6144V32.9865H32.5666V41.6144H33.5666ZM33.5666 22.2017V17.8878H32.5666V22.2017H33.5666ZM32.9154 18.3644L35.9324 19.3215L36.2348 18.3683L33.2178 17.4112L32.9154 18.3644ZM43.475 21.7141L46.492 22.6712L46.7944 21.718L43.7774 20.7609L43.475 21.7141ZM46.1432 22.1946V26.3148H47.1432V22.1946H46.1432ZM46.1432 36.6152V44.8556H47.1432V36.6152H46.1432ZM46.1432 55.156V63.3963H47.1432V55.156H46.1432ZM46.1432 73.6968V77.8169H47.1432V73.6968H46.1432ZM82.746 71.8009L78.8678 73.4825L79.2656 74.3999L83.1438 72.7183L82.746 71.8009ZM69.1723 77.6864L61.4159 81.0496L61.8137 81.9671L69.5701 78.6039L69.1723 77.6864ZM51.7203 85.2536L47.8421 86.9352L48.2399 87.8526L52.1181 86.1711L51.7203 85.2536ZM47.8421 86.9352C47.7685 86.9671 47.6962 86.9794 47.6278 86.9773L47.5968 87.9768C47.8106 87.9835 48.0295 87.9439 48.2399 87.8526L47.8421 86.9352ZM47.1898 86.6898C47.1607 86.6279 47.1432 86.5567 47.1432 86.4764H46.1432C46.1432 86.7058 46.194 86.9224 46.2851 87.1159L47.1898 86.6898ZM47.1432 86.4764V82.2101H46.1432V86.4764H47.1432ZM47.1432 71.5442V63.0115H46.1432V71.5442H47.1432ZM47.1432 52.3456V43.8129H46.1432V52.3456H47.1432ZM47.1432 33.147V24.6143H46.1432V33.147H47.1432ZM47.1432 13.9484V9.68208H46.1432V13.9484H47.1432ZM47.1432 9.68208C47.1432 9.59719 47.1624 9.52307 47.1938 9.45965L46.2977 9.01577C46.1987 9.2157 46.1432 9.44157 46.1432 9.68208H47.1432ZM47.6625 9.18102C47.7332 9.18371 47.8075 9.20227 47.8821 9.24282L48.3598 8.36431C48.1485 8.24941 47.9236 8.19025 47.7006 8.18174L47.6625 9.18102ZM47.8821 9.24282L51.7514 11.3469L52.2291 10.4684L48.3598 8.36431L47.8821 9.24282ZM61.4247 16.6071L69.1634 20.8153L69.6411 19.9368L61.9025 15.7286L61.4247 16.6071ZM78.8367 26.0756L82.7061 28.1796L83.1838 27.3011L79.3145 25.197L78.8367 26.0756ZM82.4449 27.7404V32.687H83.4449V27.7404H82.4449ZM82.4449 45.0534V54.9466H83.4449V45.0534H82.4449ZM82.4449 67.313V72.2596H83.4449V67.313H82.4449ZM33.0666 74.9279L32.8462 75.9033C33.1426 75.9703 33.4535 75.8988 33.6909 75.709C33.9283 75.5193 34.0666 75.2318 34.0666 74.9279H33.0666ZM22.4829 72.5362H21.4829C21.4829 73.0035 21.8066 73.4085 22.2625 73.5116L22.4829 72.5362ZM22.4829 22.4774L22.7219 21.5063C22.4235 21.4329 22.1079 21.5007 21.8661 21.6903C21.6242 21.8798 21.4829 22.1701 21.4829 22.4774H22.4829ZM33.0666 25.0824H34.0666C34.0666 24.6222 33.7525 24.2214 33.3056 24.1114L33.0666 25.0824ZM46.6432 77.8169L46.5196 78.8093C46.8042 78.8447 47.0902 78.7563 47.3052 78.5665C47.5201 78.3767 47.6432 78.1037 47.6432 77.8169H46.6432ZM33.0666 76.1257H32.0666C32.0666 76.6302 32.4424 77.0557 32.943 77.118L33.0666 76.1257ZM33.0666 17.8878L33.369 16.9346C33.065 16.8382 32.7333 16.8925 32.476 17.0808C32.2187 17.2692 32.0666 17.5689 32.0666 17.8878H33.0666ZM46.6432 22.1946H47.6432C47.6432 21.7588 47.361 21.3732 46.9456 21.2414L46.6432 22.1946ZM82.9449 72.2596L83.3427 73.1771C83.7083 73.0186 83.9449 72.6581 83.9449 72.2596H82.9449ZM82.9449 27.7404H83.9449C83.9449 27.374 83.7445 27.0369 83.4226 26.8619L82.9449 27.7404ZM48.1209 8.80357L48.5987 7.92505L48.1209 8.80357ZM48.041 87.3939L47.6432 86.4764L48.041 87.3939ZM30.9351 73.421C30.3964 73.2992 29.861 73.6373 29.7393 74.176C29.6175 74.7147 29.9555 75.25 30.4942 75.3718L30.9351 73.421ZM24.6144 74.0431C25.1531 74.1648 25.6885 73.8268 25.8102 73.2881C25.932 72.7494 25.594 72.214 25.0553 72.0922L24.6144 74.0431ZM23.4829 68.8281C23.4829 68.2758 23.0352 67.8281 22.4829 67.8281C21.9306 67.8281 21.4829 68.2758 21.4829 68.8281H23.4829ZM21.4829 59.5579C21.4829 60.1102 21.9306 60.5579 22.4829 60.5579C23.0352 60.5579 23.4829 60.1102 23.4829 59.5579H21.4829ZM23.4829 52.1418C23.4829 51.5896 23.0352 51.1418 22.4829 51.1418C21.9306 51.1418 21.4829 51.5896 21.4829 52.1418H23.4829ZM21.4829 42.8717C21.4829 43.424 21.9306 43.8717 22.4829 43.8717C23.0352 43.8717 23.4829 43.424 23.4829 42.8717H21.4829ZM23.4829 35.4556C23.4829 34.9033 23.0352 34.4556 22.4829 34.4556C21.9306 34.4556 21.4829 34.9033 21.4829 35.4556H23.4829ZM21.4829 26.1854C21.4829 26.7377 21.9306 27.1854 22.4829 27.1854C23.0352 27.1854 23.4829 26.7377 23.4829 26.1854H21.4829ZM24.5958 24.0273C25.1321 24.1593 25.6739 23.8316 25.8059 23.2953C25.9379 22.759 25.6101 22.2173 25.0738 22.0853L24.5958 24.0273ZM30.9537 23.5325C30.4174 23.4005 29.8756 23.7283 29.7436 24.2645C29.6116 24.8008 29.9394 25.3426 30.4756 25.4746L30.9537 23.5325ZM32.0666 28.7747C32.0666 29.327 32.5143 29.7747 33.0666 29.7747C33.6189 29.7747 34.0666 29.327 34.0666 28.7747H32.0666ZM34.0666 38.0053C34.0666 37.4531 33.6189 37.0053 33.0666 37.0053C32.5143 37.0053 32.0666 37.4531 32.0666 38.0053H34.0666ZM32.0666 45.3898C32.0666 45.9421 32.5143 46.3898 33.0666 46.3898C33.6189 46.3898 34.0666 45.9421 34.0666 45.3898H32.0666ZM34.0666 54.6205C34.0666 54.0682 33.6189 53.6205 33.0666 53.6205C32.5143 53.6205 32.0666 54.0682 32.0666 54.6205H34.0666ZM32.0666 62.005C32.0666 62.5573 32.5143 63.005 33.0666 63.005C33.6189 63.005 34.0666 62.5573 34.0666 62.005H32.0666ZM34.0666 71.2356C34.0666 70.6833 33.6189 70.2356 33.0666 70.2356C32.5143 70.2356 32.0666 70.6833 32.0666 71.2356H34.0666ZM43.7498 76.4488C43.2018 76.3805 42.7021 76.7695 42.6339 77.3175C42.5656 77.8656 42.9545 78.3652 43.5026 78.4334L43.7498 76.4488ZM35.96 77.4939C36.508 77.5621 37.0077 77.1732 37.0759 76.6252C37.1442 76.0771 36.7553 75.5775 36.2072 75.5092L35.96 77.4939ZM34.0666 71.8118C34.0666 71.2595 33.6189 70.8118 33.0666 70.8118C32.5143 70.8118 32.0666 71.2595 32.0666 71.8118H34.0666ZM32.0666 61.027C32.0666 61.5793 32.5143 62.027 33.0666 62.027C33.6189 62.027 34.0666 61.5793 34.0666 61.027H32.0666ZM34.0666 52.3992C34.0666 51.8469 33.6189 51.3992 33.0666 51.3992C32.5143 51.3992 32.0666 51.8469 32.0666 52.3992H34.0666ZM32.0666 41.6144C32.0666 42.1666 32.5143 42.6144 33.0666 42.6144C33.6189 42.6144 34.0666 42.1666 34.0666 41.6144H32.0666ZM34.0666 32.9865C34.0666 32.4342 33.6189 31.9865 33.0666 31.9865C32.5143 31.9865 32.0666 32.4342 32.0666 32.9865H34.0666ZM32.0666 22.2017C32.0666 22.754 32.5143 23.2017 33.0666 23.2017C33.6189 23.2017 34.0666 22.754 34.0666 22.2017H32.0666ZM35.7812 19.7981C36.3077 19.9651 36.8698 19.6737 37.0368 19.1472C37.2038 18.6208 36.9124 18.0587 36.386 17.8917L35.7812 19.7981ZM43.9286 20.2843C43.4021 20.1174 42.84 20.4087 42.673 20.9352C42.506 21.4616 42.7974 22.0237 43.3238 22.1907L43.9286 20.2843ZM45.6432 26.3148C45.6432 26.8671 46.0909 27.3148 46.6432 27.3148C47.1955 27.3148 47.6432 26.8671 47.6432 26.3148H45.6432ZM47.6432 36.6152C47.6432 36.0629 47.1955 35.6152 46.6432 35.6152C46.0909 35.6152 45.6432 36.0629 45.6432 36.6152H47.6432ZM45.6432 44.8556C45.6432 45.4078 46.0909 45.8556 46.6432 45.8556C47.1955 45.8556 47.6432 45.4078 47.6432 44.8556H45.6432ZM47.6432 55.156C47.6432 54.6037 47.1955 54.156 46.6432 54.156C46.0909 54.156 45.6432 54.6037 45.6432 55.156H47.6432ZM45.6432 63.3963C45.6432 63.9486 46.0909 64.3963 46.6432 64.3963C47.1955 64.3963 47.6432 63.9486 47.6432 63.3963H45.6432ZM47.6432 73.6968C47.6432 73.1445 47.1955 72.6968 46.6432 72.6968C46.0909 72.6968 45.6432 73.1445 45.6432 73.6968H47.6432ZM78.6689 73.0237C78.1622 73.2434 77.9295 73.8323 78.1492 74.339C78.369 74.8457 78.9578 75.0784 79.4645 74.8587L78.6689 73.0237ZM69.769 79.0626C70.2757 78.8429 70.5084 78.2541 70.2887 77.7474C70.0689 77.2407 69.4801 77.008 68.9734 77.2277L69.769 79.0626ZM61.217 80.5909C60.7103 80.8106 60.4776 81.3995 60.6973 81.9062C60.917 82.4129 61.5059 82.6455 62.0126 82.4258L61.217 80.5909ZM52.317 86.6298C52.8238 86.4101 53.0564 85.8212 52.8367 85.3145C52.617 84.8078 52.0281 84.5752 51.5214 84.7949L52.317 86.6298ZM47.6433 86.4775C47.0913 86.4604 46.6299 86.894 46.6128 87.4461C46.5957 87.9981 47.0293 88.4595 47.5813 88.4766L47.6433 86.4775ZM45.8328 87.3289C46.0681 87.8286 46.6639 88.0428 47.1635 87.8075C47.6632 87.5722 47.8775 86.9764 47.6422 86.4768L45.8328 87.3289ZM47.6432 82.2101C47.6432 81.6578 47.1955 81.2101 46.6432 81.2101C46.0909 81.2101 45.6432 81.6578 45.6432 82.2101H47.6432ZM45.6432 71.5442C45.6432 72.0965 46.0909 72.5442 46.6432 72.5442C47.1955 72.5442 47.6432 72.0965 47.6432 71.5442H45.6432ZM47.6432 63.0115C47.6432 62.4592 47.1955 62.0115 46.6432 62.0115C46.0909 62.0115 45.6432 62.4592 45.6432 63.0115H47.6432ZM45.6432 52.3456C45.6432 52.8979 46.0909 53.3456 46.6432 53.3456C47.1955 53.3456 47.6432 52.8979 47.6432 52.3456H45.6432ZM47.6432 43.8129C47.6432 43.2606 47.1955 42.8129 46.6432 42.8129C46.0909 42.8129 45.6432 43.2606 45.6432 43.8129H47.6432ZM45.6432 33.147C45.6432 33.6993 46.0909 34.147 46.6432 34.147C47.1955 34.147 47.6432 33.6993 47.6432 33.147H45.6432ZM47.6432 24.6143C47.6432 24.062 47.1955 23.6143 46.6432 23.6143C46.0909 23.6143 45.6432 24.062 45.6432 24.6143H47.6432ZM45.6432 13.9484C45.6432 14.5007 46.0909 14.9484 46.6432 14.9484C47.1955 14.9484 47.6432 14.5007 47.6432 13.9484H45.6432ZM47.6419 9.68158C47.887 9.18669 47.6845 8.58676 47.1896 8.34162C46.6948 8.09648 46.0948 8.29894 45.8497 8.79384L47.6419 9.68158ZM47.7197 7.68211C47.1678 7.66105 46.7034 8.09136 46.6823 8.64324C46.6612 9.19513 47.0915 9.65959 47.6434 9.68065L47.7197 7.68211ZM51.5126 11.7862C51.9977 12.05 52.6049 11.8706 52.8688 11.3854C53.1326 10.9002 52.9532 10.293 52.468 10.0291L51.5126 11.7862ZM62.1413 15.2894C61.6561 15.0255 61.0489 15.205 60.7851 15.6902C60.5213 16.1754 60.7007 16.7826 61.1859 17.0464L62.1413 15.2894ZM68.9245 21.2546C69.4097 21.5184 70.0169 21.339 70.2808 20.8538C70.5446 20.3686 70.3652 19.7614 69.88 19.4976L68.9245 21.2546ZM79.5533 24.7578C79.0681 24.4939 78.4609 24.6734 78.1971 25.1586C77.9332 25.6438 78.1127 26.251 78.5979 26.5148L79.5533 24.7578ZM81.9449 32.687C81.9449 33.2393 82.3926 33.687 82.9449 33.687C83.4972 33.687 83.9449 33.2393 83.9449 32.687H81.9449ZM83.9449 45.0534C83.9449 44.5011 83.4972 44.0534 82.9449 44.0534C82.3926 44.0534 81.9449 44.5011 81.9449 45.0534H83.9449ZM81.9449 54.9466C81.9449 55.4989 82.3926 55.9466 82.9449 55.9466C83.4972 55.9466 83.9449 55.4989 83.9449 54.9466H81.9449ZM83.9449 67.313C83.9449 66.7607 83.4972 66.313 82.9449 66.313C82.3926 66.313 81.9449 66.7607 81.9449 67.313H83.9449ZM33.287 73.9525L30.9351 73.421L30.4942 75.3718L32.8462 75.9033L33.287 73.9525ZM25.0553 72.0922L22.7033 71.5608L22.2625 73.5116L24.6144 74.0431L25.0553 72.0922ZM23.4829 72.5362V68.8281H21.4829V72.5362H23.4829ZM23.4829 59.5579V52.1418H21.4829V59.5579H23.4829ZM23.4829 42.8717V35.4556H21.4829V42.8717H23.4829ZM23.4829 26.1854V22.4774H21.4829V26.1854H23.4829ZM22.2439 23.4484L24.5958 24.0273L25.0738 22.0853L22.7219 21.5063L22.2439 23.4484ZM30.4756 25.4746L32.8276 26.0535L33.3056 24.1114L30.9537 23.5325L30.4756 25.4746ZM32.0666 25.0824V28.7747H34.0666V25.0824H32.0666ZM32.0666 38.0053V45.3898H34.0666V38.0053H32.0666ZM32.0666 54.6205V62.005H34.0666V54.6205H32.0666ZM32.0666 71.2356V74.9279H34.0666V71.2356H32.0666ZM46.7668 76.8246L43.7498 76.4488L43.5026 78.4334L46.5196 78.8093L46.7668 76.8246ZM36.2072 75.5092L33.1902 75.1334L32.943 77.118L35.96 77.4939L36.2072 75.5092ZM34.0666 76.1257V71.8118H32.0666V76.1257H34.0666ZM34.0666 61.027V52.3992H32.0666V61.027H34.0666ZM34.0666 41.6144V32.9865H32.0666V41.6144H34.0666ZM34.0666 22.2017V17.8878H32.0666V22.2017H34.0666ZM32.7642 18.841L35.7812 19.7981L36.386 17.8917L33.369 16.9346L32.7642 18.841ZM43.3238 22.1907L46.3408 23.1478L46.9456 21.2414L43.9286 20.2843L43.3238 22.1907ZM45.6432 22.1946V26.3148H47.6432V22.1946H45.6432ZM45.6432 36.6152V44.8556H47.6432V36.6152H45.6432ZM45.6432 55.156V63.3963H47.6432V55.156H45.6432ZM45.6432 73.6968V77.8169H47.6432V73.6968H45.6432ZM82.5471 71.3421L78.6689 73.0237L79.4645 74.8587L83.3427 73.1771L82.5471 71.3421ZM68.9734 77.2277L61.217 80.5909L62.0126 82.4258L69.769 79.0626L68.9734 77.2277ZM51.5214 84.7949L47.6432 86.4764L48.4388 88.3114L52.317 86.6298L51.5214 84.7949ZM47.6432 86.4764C47.6399 86.4779 47.6388 86.478 47.6397 86.4778C47.6405 86.4776 47.6418 86.4775 47.6433 86.4775L47.5813 88.4766C47.8678 88.4855 48.16 88.4323 48.4388 88.3114L47.6432 86.4764ZM47.6422 86.4768C47.6428 86.4781 47.6432 86.4794 47.6434 86.4802C47.6436 86.4811 47.6432 86.4801 47.6432 86.4764H45.6432C45.6432 86.7804 45.7107 87.0696 45.8328 87.3289L47.6422 86.4768ZM47.6432 86.4764V82.2101H45.6432V86.4764H47.6432ZM47.6432 71.5442V63.0115H45.6432V71.5442H47.6432ZM47.6432 52.3456V43.8129H45.6432V52.3456H47.6432ZM47.6432 33.147V24.6143H45.6432V33.147H47.6432ZM47.6432 13.9484V9.68208H45.6432V13.9484H47.6432ZM47.6432 9.68208C47.6432 9.67758 47.6437 9.67629 47.6434 9.67736C47.6432 9.67834 47.6427 9.67991 47.6419 9.68158L45.8497 8.79384C45.7168 9.06202 45.6432 9.36376 45.6432 9.68208H47.6432ZM47.6434 9.68065C47.6416 9.68058 47.6399 9.68028 47.639 9.68002C47.6379 9.67973 47.6393 9.67993 47.6432 9.68208L48.5987 7.92505C48.319 7.77299 48.0188 7.69352 47.7197 7.68211L47.6434 9.68065ZM47.6432 9.68208L51.5126 11.7862L52.468 10.0291L48.5987 7.92505L47.6432 9.68208ZM61.1859 17.0464L68.9245 21.2546L69.88 19.4976L62.1413 15.2894L61.1859 17.0464ZM78.5979 26.5148L82.4672 28.6189L83.4226 26.8619L79.5533 24.7578L78.5979 26.5148ZM81.9449 27.7404V32.687H83.9449V27.7404H81.9449ZM81.9449 45.0534V54.9466H83.9449V45.0534H81.9449ZM81.9449 67.313V72.2596H83.9449V67.313H81.9449Z" fill="black" mask="url(#path-1-inside-1)"/>
<path d="M17.5122 66.116L10.156 67.7944V20.154L17.5122 21.8355V66.116Z" fill="#F68536"/>
<path d="M26.6906 68.9279L17.5125 71.5362V16.4774L26.6906 19.0824V68.9279ZM38.4642 71.8169L26.6906 76.1257V11.8878L38.4642 16.1946V71.8169ZM69.945 66.2596L38.4642 82V6L69.945 21.7404V66.2596Z" fill="#F68536"/>
<path d="M32.1888 9.13814L38.4641 6V82L32.1888 78.8628V9.13814ZM21.8326 14.3156L26.6904 11.8868V76.1132L21.8326 73.6844V14.3156ZM13.6426 18.4112L17.5123 16.4764V71.5236L13.6426 69.5876V18.4112ZM10.1561 20.154L7 21.732V66.269L10.1561 67.846V20.154Z" fill="#9D5025"/>
</svg>
