<svg width="88" height="88" viewBox="0 0 88 88" fill="none" xmlns="http://www.w3.org/2000/svg">
<mask id="path-1-inside-1" fill="white">
<path fill-rule="evenodd" clip-rule="evenodd" d="M23.425 18.0462L18.875 20.45V23.712L14.8088 22.7361L14.7625 22.6375L11 24.65V81.2625L14.7625 83.275L18.875 82.2469V85.55L23.425 87.9538V88L23.4806 87.9832L23.5125 88L32.4375 85.2875V85.272L56.4124 78.015V78.025L56.6951 77.9425L59.475 78.6375L59.475 78.6375L59.475 78.6375L68.225 75.8375V72.4232L75.225 73.65L81 71.8125L81 59.3875L64.2 58.5125L62.7124 58.6219V47.6406L64.2 47.75L81 46.875L81 34.45L75.225 32.6125L68.225 33.8393V30.425L59.475 27.625L57.1798 28.1988L56.4124 27.975V28.0364L32.4375 20.742V20.7125L23.5125 18H23.5125V18L23.4805 18.0169L23.425 18V18.0462ZM50.375 59.475L42.325 60.0875L42.325 60.0875V70.1178C39.2303 70.6609 35.6921 71.2853 32.4375 71.8609V34L42.325 35.7656V46.175L50.375 46.7875L50.55 46.7755V59.487L50.375 59.475Z"/>
</mask>
<path fill-rule="evenodd" clip-rule="evenodd" d="M23.425 18.0462L18.875 20.45V23.712L14.8088 22.7361L14.7625 22.6375L11 24.65V81.2625L14.7625 83.275L18.875 82.2469V85.55L23.425 87.9538V88L23.4806 87.9832L23.5125 88L32.4375 85.2875V85.272L56.4124 78.015V78.025L56.6951 77.9425L59.475 78.6375L59.475 78.6375L59.475 78.6375L68.225 75.8375V72.4232L75.225 73.65L81 71.8125L81 59.3875L64.2 58.5125L62.7124 58.6219V47.6406L64.2 47.75L81 46.875L81 34.45L75.225 32.6125L68.225 33.8393V30.425L59.475 27.625L57.1798 28.1988L56.4124 27.975V28.0364L32.4375 20.742V20.7125L23.5125 18H23.5125V18L23.4805 18.0169L23.425 18V18.0462ZM50.375 59.475L42.325 60.0875L42.325 60.0875V70.1178C39.2303 70.6609 35.6921 71.2853 32.4375 71.8609V34L42.325 35.7656V46.175L50.375 46.7875L50.55 46.7755V59.487L50.375 59.475Z" fill="#F7F7FE"/>
<path d="M18.875 20.45L18.6414 20.0079C18.4775 20.0945 18.375 20.2646 18.375 20.45H18.875ZM23.425 18.0462L23.6586 18.4883C23.8225 18.4017 23.925 18.2316 23.925 18.0462H23.425ZM18.875 23.712L18.7583 24.1982C18.9072 24.234 19.0643 24.1995 19.1846 24.1047C19.3048 24.0099 19.375 23.8652 19.375 23.712H18.875ZM14.8088 22.7361L14.3562 22.9486C14.4208 23.0861 14.5444 23.1869 14.6921 23.2223L14.8088 22.7361ZM14.7625 22.6375L15.2151 22.425C15.1568 22.3009 15.0501 22.2061 14.92 22.163C14.7898 22.1198 14.6476 22.1319 14.5267 22.1966L14.7625 22.6375ZM11 24.65L10.7642 24.2091C10.6015 24.2961 10.5 24.4656 10.5 24.65H11ZM11 81.2625H10.5C10.5 81.4469 10.6015 81.6164 10.7642 81.7034L11 81.2625ZM14.7625 83.275L14.5267 83.7159C14.6361 83.7744 14.7634 83.7902 14.8838 83.7601L14.7625 83.275ZM18.875 82.2469H19.375C19.375 82.0929 19.3041 81.9475 19.1827 81.8528C19.0613 81.758 18.9031 81.7245 18.7537 81.7618L18.875 82.2469ZM18.875 85.55H18.375C18.375 85.7354 18.4775 85.9055 18.6414 85.9921L18.875 85.55ZM23.425 87.9538H23.925C23.925 87.7684 23.8225 87.5983 23.6586 87.5117L23.425 87.9538ZM23.425 88H22.925C22.925 88.1583 23 88.3072 23.1271 88.4015C23.2542 88.4958 23.4184 88.5244 23.5699 88.4786L23.425 88ZM23.4806 87.9832L23.7142 87.5411C23.5978 87.4796 23.4618 87.4665 23.3358 87.5046L23.4806 87.9832ZM23.5125 88L23.2789 88.4421C23.3955 88.5037 23.5317 88.5167 23.6579 88.4784L23.5125 88ZM32.4375 85.2875L32.5829 85.7659C32.7935 85.7019 32.9375 85.5076 32.9375 85.2875H32.4375ZM32.4375 85.272L32.2926 84.7935C32.0817 84.8573 31.9375 85.0517 31.9375 85.272H32.4375ZM56.4124 78.015H56.9124C56.9124 77.8568 56.8375 77.7078 56.7104 77.6135C56.5833 77.5192 56.4191 77.4906 56.2676 77.5365L56.4124 78.015ZM56.4124 78.025H55.9124C55.9124 78.1824 55.9865 78.3306 56.1124 78.425C56.2383 78.5194 56.4014 78.549 56.5524 78.505L56.4124 78.025ZM56.6951 77.9425L56.8164 77.4575C56.7304 77.436 56.6402 77.4377 56.5551 77.4625L56.6951 77.9425ZM59.475 78.6375L59.6331 78.1632C59.6209 78.1591 59.6087 78.1555 59.5962 78.1524L59.475 78.6375ZM59.475 78.6375L59.3169 79.1119C59.5636 79.1941 59.8321 79.0735 59.9346 78.8345L59.475 78.6375ZM59.475 78.6375L59.3226 78.1613C59.1846 78.2054 59.0725 78.3073 59.0154 78.4405L59.475 78.6375ZM68.225 75.8375L68.3774 76.3137C68.5845 76.2474 68.725 76.0549 68.725 75.8375H68.225ZM68.225 72.4232L68.3113 71.9307C68.1658 71.9052 68.0165 71.9453 67.9034 72.0403C67.7903 72.1353 67.725 72.2755 67.725 72.4232H68.225ZM75.225 73.65L75.1386 74.1425C75.2181 74.1564 75.2997 74.1509 75.3766 74.1265L75.225 73.65ZM81 71.8125L81.1516 72.289C81.3591 72.2229 81.5 72.0302 81.5 71.8125H81ZM81 59.3875H81.5C81.5 59.1215 81.2916 58.902 81.026 58.8882L81 59.3875ZM64.2 58.5125L64.226 58.0132C64.2051 58.0121 64.1841 58.0123 64.1633 58.0138L64.2 58.5125ZM62.7124 58.6219H62.2124C62.2124 58.7608 62.2703 58.8935 62.3721 58.9881C62.4739 59.0827 62.6105 59.1307 62.7491 59.1205L62.7124 58.6219ZM62.7124 47.6406L62.7491 47.142C62.6105 47.1318 62.4739 47.1797 62.3721 47.2743C62.2703 47.3689 62.2124 47.5016 62.2124 47.6406H62.7124ZM64.2 47.75L64.1633 48.2486C64.1842 48.2502 64.2051 48.2504 64.226 48.2493L64.2 47.75ZM81 46.875L81.026 47.3743C81.2917 47.3605 81.5 47.141 81.5 46.875H81ZM81 34.45H81.5C81.5 34.2323 81.3591 34.0396 81.1516 33.9735L81 34.45ZM75.225 32.6125L75.3766 32.136C75.2998 32.1116 75.2181 32.1061 75.1387 32.12L75.225 32.6125ZM68.225 33.8393H67.725C67.725 33.987 67.7903 34.1272 67.9034 34.2222C68.0165 34.3172 68.1658 34.3573 68.3113 34.3318L68.225 33.8393ZM68.225 30.425H68.725C68.725 30.2076 68.5845 30.0151 68.3774 29.9488L68.225 30.425ZM59.475 27.625L59.6273 27.1488C59.5387 27.1204 59.444 27.1174 59.3537 27.1399L59.475 27.625ZM57.1798 28.1988L57.0398 28.6788C57.1249 28.7036 57.215 28.7054 57.301 28.6839L57.1798 28.1988ZM56.4124 27.975L56.5524 27.495C56.4014 27.4509 56.2383 27.4806 56.1124 27.575C55.9865 27.6694 55.9124 27.8176 55.9124 27.975H56.4124ZM56.4124 28.0364L56.2669 28.5148C56.4184 28.5609 56.5829 28.5325 56.7101 28.4382C56.8374 28.3439 56.9124 28.1948 56.9124 28.0364H56.4124ZM32.4375 20.742H31.9375C31.9375 20.9621 32.0814 21.1563 32.2919 21.2204L32.4375 20.742ZM32.4375 20.7125H32.9375C32.9375 20.4924 32.7935 20.2981 32.5829 20.2341L32.4375 20.7125ZM23.5125 18L23.6579 17.5216C23.6108 17.5073 23.5618 17.5 23.5125 17.5V18ZM23.5125 18V17.5C23.2363 17.5 23.0125 17.7239 23.0125 18H23.5125ZM23.5125 18L23.746 18.4421C23.9099 18.3555 24.0125 18.1854 24.0125 18H23.5125ZM23.4805 18.0169L23.335 18.4952C23.4612 18.5336 23.5975 18.5206 23.7141 18.459L23.4805 18.0169ZM23.425 18L23.5706 17.5217C23.419 17.4755 23.2546 17.504 23.1274 17.5983C23.0001 17.6926 22.925 17.8416 22.925 18H23.425ZM42.325 60.0875L42.287 59.5889C42.0551 59.6066 41.866 59.7818 41.8307 60.0116C41.7955 60.2415 41.9233 60.4654 42.1393 60.5517L42.325 60.0875ZM50.375 59.475L50.4092 58.9762C50.3852 58.9745 50.361 58.9746 50.337 58.9764L50.375 59.475ZM42.325 60.0875H42.825C42.825 59.8831 42.7005 59.6992 42.5107 59.6233L42.325 60.0875ZM42.325 70.1178L42.4114 70.6103C42.6506 70.5683 42.825 70.3606 42.825 70.1178H42.325ZM32.4375 71.8609H31.9375C31.9375 72.0088 32.0029 72.149 32.1162 72.244C32.2294 72.339 32.379 72.379 32.5245 72.3533L32.4375 71.8609ZM32.4375 34L32.5254 33.5078C32.3797 33.4818 32.23 33.5216 32.1165 33.6166C32.003 33.7116 31.9375 33.852 31.9375 34H32.4375ZM42.325 35.7656H42.825C42.825 35.5234 42.6513 35.316 42.4128 35.2734L42.325 35.7656ZM42.325 46.175H41.825C41.825 46.4364 42.0263 46.6537 42.287 46.6736L42.325 46.175ZM50.375 46.7875L50.337 47.2861C50.361 47.2879 50.3852 47.288 50.4092 47.2863L50.375 46.7875ZM50.55 46.7755H51.05C51.05 46.6369 50.9925 46.5046 50.8912 46.41C50.79 46.3155 50.654 46.2672 50.5158 46.2767L50.55 46.7755ZM50.55 59.487L50.5158 59.9858C50.654 59.9953 50.79 59.947 50.8912 59.8525C50.9925 59.7579 51.05 59.6255 51.05 59.487H50.55ZM18.375 21.1749C18.375 21.451 18.5989 21.6749 18.875 21.6749C19.1511 21.6749 19.375 21.451 19.375 21.1749H18.375ZM19.375 22.9871C19.375 22.711 19.1511 22.4871 18.875 22.4871C18.5989 22.4871 18.375 22.711 18.375 22.9871H19.375ZM18.0881 23.009C17.8196 22.9445 17.5496 23.1099 17.4852 23.3785C17.4208 23.647 17.5862 23.9169 17.8547 23.9813L18.0881 23.009ZM15.5957 23.4392C15.8642 23.5036 16.1341 23.3382 16.1986 23.0697C16.263 22.8012 16.0976 22.5312 15.8291 22.4668L15.5957 23.4392ZM15.2511 22.5017C15.1338 22.2518 14.836 22.1443 14.586 22.2616C14.3361 22.379 14.2286 22.6767 14.3459 22.9267L15.2511 22.5017ZM14.3202 22.8719C14.4375 23.1219 14.7353 23.2294 14.9853 23.112C15.2352 22.9947 15.3427 22.6969 15.2254 22.447L14.3202 22.8719ZM13.6906 22.6438C13.4471 22.7741 13.3553 23.0771 13.4855 23.3206C13.6157 23.5641 13.9187 23.6559 14.1622 23.5256L13.6906 22.6438ZM12.0719 24.6437C12.3154 24.5134 12.4072 24.2105 12.277 23.967C12.1468 23.7235 11.8438 23.6317 11.6003 23.7619L12.0719 24.6437ZM10.5 28.8435C10.5 29.1197 10.7239 29.3435 11 29.3435C11.2761 29.3435 11.5 29.1197 11.5 28.8435H10.5ZM11.5 39.3273C11.5 39.0512 11.2761 38.8273 11 38.8273C10.7239 38.8273 10.5 39.0512 10.5 39.3273H11.5ZM10.5 47.7144C10.5 47.9905 10.7239 48.2144 11 48.2144C11.2761 48.2144 11.5 47.9905 11.5 47.7144H10.5ZM11.5 58.1982C11.5 57.922 11.2761 57.6982 11 57.6982C10.7239 57.6982 10.5 57.922 10.5 58.1982H11.5ZM10.5 66.5852C10.5 66.8613 10.7239 67.0852 11 67.0852C11.2761 67.0852 11.5 66.8613 11.5 66.5852H10.5ZM11.5 77.069C11.5 76.7928 11.2761 76.569 11 76.569C10.7239 76.569 10.5 76.7928 10.5 77.069H11.5ZM11.6003 82.1506C11.8438 82.2809 12.1468 82.1891 12.277 81.9456C12.4072 81.7021 12.3154 81.3991 12.0719 81.2688L11.6003 82.1506ZM14.1622 82.3869C13.9187 82.2566 13.6157 82.3485 13.4855 82.592C13.3553 82.8355 13.4471 83.1384 13.6906 83.2687L14.1622 82.3869ZM15.7977 83.5316C16.0656 83.4646 16.2284 83.1932 16.1615 82.9253C16.0945 82.6574 15.823 82.4945 15.5551 82.5615L15.7977 83.5316ZM17.8398 81.9903C17.5719 82.0573 17.4091 82.3287 17.476 82.5966C17.543 82.8645 17.8145 83.0274 18.0824 82.9604L17.8398 81.9903ZM18.375 82.9809C18.375 83.257 18.5989 83.4809 18.875 83.4809C19.1511 83.4809 19.375 83.257 19.375 82.9809H18.375ZM19.375 84.816C19.375 84.5398 19.1511 84.316 18.875 84.316C18.5989 84.316 18.375 84.5398 18.375 84.816H19.375ZM19.6526 86.5263C19.8967 86.6553 20.1992 86.5619 20.3282 86.3177C20.4572 86.0736 20.3638 85.7711 20.1197 85.6421L19.6526 86.5263ZM22.6475 86.9775C22.4033 86.8485 22.1008 86.9419 21.9718 87.1861C21.8428 87.4302 21.9362 87.7327 22.1804 87.8617L22.6475 86.9775ZM22.925 87.9641C22.925 88.2402 23.1489 88.4641 23.425 88.4641C23.7012 88.4641 23.925 88.2402 23.925 87.9641H22.925ZM23.925 87.9897C23.925 87.7136 23.7012 87.4897 23.425 87.4897C23.1489 87.4897 22.925 87.7136 22.925 87.9897H23.925ZM23.5823 88.4748C23.8466 88.3948 23.996 88.1157 23.916 87.8514C23.8359 87.5871 23.5568 87.4377 23.2925 87.5177L23.5823 88.4748ZM23.3234 87.5084C23.0591 87.5884 22.9097 87.8675 22.9897 88.1318C23.0697 88.3961 23.3489 88.5455 23.6132 88.4655L23.3234 87.5084ZM23.2541 88.429C23.4983 88.558 23.8008 88.4646 23.9298 88.2205C24.0588 87.9763 23.9655 87.6738 23.7213 87.5448L23.2541 88.429ZM23.739 87.5542C23.4948 87.4252 23.1923 87.5185 23.0633 87.7627C22.9343 88.0068 23.0277 88.3093 23.2718 88.4383L23.739 87.5542ZM25.6412 87.8756C25.9054 87.7953 26.0545 87.516 25.9742 87.2518C25.8939 86.9876 25.6146 86.8385 25.3504 86.9188L25.6412 87.8756ZM30.3087 85.4119C30.0445 85.4922 29.8954 85.7715 29.9757 86.0357C30.056 86.2999 30.3353 86.449 30.5995 86.3687L30.3087 85.4119ZM32.9375 85.2841C32.9375 85.0079 32.7136 84.7841 32.4375 84.7841C32.1613 84.7841 31.9375 85.0079 31.9375 85.2841H32.9375ZM31.9375 85.2755C31.9375 85.5516 32.1613 85.7755 32.4375 85.7755C32.7136 85.7755 32.9375 85.5516 32.9375 85.2755H31.9375ZM37.9101 84.1379C38.1744 84.0579 38.3238 83.7788 38.2438 83.5145C38.1638 83.2502 37.8847 83.1008 37.6204 83.1808L37.9101 84.1379ZM50.9398 79.1491C50.6755 79.2291 50.5261 79.5082 50.6061 79.7725C50.6861 80.0368 50.9652 80.1863 51.2295 80.1063L50.9398 79.1491ZM55.9124 78.0172C55.9124 78.2934 56.1363 78.5172 56.4124 78.5172C56.6886 78.5172 56.9124 78.2934 56.9124 78.0172H55.9124ZM56.9124 78.0228C56.9124 77.7466 56.6886 77.5228 56.4124 77.5228C56.1363 77.5228 55.9124 77.7466 55.9124 78.0228H56.9124ZM56.6152 78.4867C56.8803 78.4093 57.0326 78.1318 56.9553 77.8667C56.8779 77.6016 56.6003 77.4493 56.3353 77.5267L56.6152 78.4867ZM56.4923 77.4809C56.2272 77.5582 56.075 77.8358 56.1523 78.1009C56.2296 78.366 56.5072 78.5182 56.7723 78.4409L56.4923 77.4809ZM57.1916 78.582C57.4595 78.649 57.7309 78.4861 57.7979 78.2182C57.8649 77.9503 57.702 77.6789 57.4341 77.6119L57.1916 78.582ZM58.9785 77.998C58.7106 77.931 58.4391 78.0939 58.3722 78.3618C58.3052 78.6297 58.4681 78.9012 58.736 78.9681L58.9785 77.998ZM59.3169 79.1118C59.5788 79.1992 59.862 79.0576 59.9493 78.7956C60.0366 78.5336 59.8951 78.2505 59.6331 78.1632L59.3169 79.1118ZM59.6331 78.1632C59.3711 78.0758 59.088 78.2174 59.0007 78.4794C58.9133 78.7414 59.0549 79.0245 59.3169 79.1119L59.6331 78.1632ZM59.9346 78.8345C60.0434 78.5807 59.9258 78.2867 59.672 78.1779C59.4182 78.0692 59.1242 78.1867 59.0154 78.4406L59.9346 78.8345ZM59.0154 78.4405C58.9067 78.6944 59.0242 78.9883 59.2781 79.0971C59.5319 79.2058 59.8258 79.0883 59.9346 78.8345L59.0154 78.4405ZM61.5718 78.4915C61.8348 78.4073 61.9798 78.1259 61.8957 77.8629C61.8115 77.5999 61.5301 77.4549 61.2671 77.5391L61.5718 78.4915ZM66.1282 75.9835C65.8652 76.0677 65.7202 76.3491 65.8043 76.6121C65.8885 76.8751 66.1699 77.0201 66.4329 76.9359L66.1282 75.9835ZM68.725 75.0788C68.725 74.8026 68.5011 74.5788 68.225 74.5788C67.9488 74.5788 67.725 74.8026 67.725 75.0788H68.725ZM67.725 73.1819C67.725 73.4581 67.9488 73.6819 68.225 73.6819C68.5011 73.6819 68.725 73.4581 68.725 73.1819H67.725ZM69.6942 73.1883C69.9662 73.236 70.2253 73.0541 70.273 72.7821C70.3207 72.5101 70.1388 72.251 69.8668 72.2033L69.6942 73.1883ZM73.7557 72.8849C73.4837 72.8372 73.2246 73.0191 73.1769 73.2911C73.1292 73.5631 73.3111 73.8222 73.5831 73.8699L73.7557 72.8849ZM76.6599 73.7181C76.923 73.6344 77.0685 73.3532 76.9848 73.0901C76.901 72.8269 76.6198 72.6815 76.3567 72.7652L76.6599 73.7181ZM79.565 71.7444C79.3019 71.8281 79.1564 72.1093 79.2402 72.3724C79.3239 72.6356 79.6051 72.781 79.8682 72.6973L79.565 71.7444ZM81.5 69.0514C81.5 68.7752 81.2761 68.5514 81 68.5514C80.7238 68.5514 80.5 68.7752 80.5 69.0514H81.5ZM80.5 62.1486C80.5 62.4248 80.7238 62.6486 81 62.6486C81.2761 62.6486 81.5 62.4248 81.5 62.1486H80.5ZM77.2926 58.6937C77.0169 58.6794 76.7817 58.8913 76.7673 59.167C76.7529 59.4428 76.9648 59.678 77.2406 59.6924L77.2926 58.6937ZM67.9073 59.2063C68.183 59.2206 68.4182 59.0087 68.4326 58.7329C68.447 58.4572 68.2351 58.222 67.9593 58.2076L67.9073 59.2063ZM63.8327 58.0381C63.5573 58.0584 63.3505 58.2981 63.3707 58.5735C63.391 58.8489 63.6307 59.0557 63.9061 59.0354L63.8327 58.0381ZM63.0797 59.0962C63.3551 59.076 63.5619 58.8363 63.5416 58.5609C63.5214 58.2855 63.2817 58.0786 63.0063 58.0989L63.0797 59.0962ZM63.2124 56.1816C63.2124 55.9054 62.9886 55.6816 62.7124 55.6816C62.4363 55.6816 62.2124 55.9054 62.2124 56.1816H63.2124ZM62.2124 50.0809C62.2124 50.357 62.4363 50.5809 62.7124 50.5809C62.9886 50.5809 63.2124 50.357 63.2124 50.0809H62.2124ZM63.0063 48.1636C63.2817 48.1838 63.5214 47.977 63.5417 47.7016C63.5619 47.4262 63.3551 47.1865 63.0797 47.1663L63.0063 48.1636ZM63.9061 47.227C63.6307 47.2068 63.391 47.4136 63.3708 47.689C63.3505 47.9644 63.5574 48.2041 63.8328 48.2243L63.9061 47.227ZM67.9593 48.0549C68.2351 48.0405 68.447 47.8053 68.4327 47.5295C68.4183 47.2538 68.1831 47.0419 67.9073 47.0562L67.9593 48.0549ZM77.2407 46.5701C76.9649 46.5845 76.753 46.8197 76.7673 47.0954C76.7817 47.3712 77.0169 47.5831 77.2927 47.5688L77.2407 46.5701ZM81.5 44.1139C81.5 43.8377 81.2761 43.6139 81 43.6139C80.7239 43.6139 80.5 43.8377 80.5 44.1139L81.5 44.1139ZM80.5 37.2111C80.5 37.4872 80.7238 37.7111 81 37.7111C81.2761 37.7111 81.5 37.4872 81.5 37.2111L80.5 37.2111ZM79.8683 33.5652C79.6051 33.4815 79.3239 33.6269 79.2402 33.8901C79.1565 34.1532 79.3019 34.4344 79.565 34.5181L79.8683 33.5652ZM76.3567 33.4973C76.6199 33.581 76.9011 33.4356 76.9848 33.1724C77.0685 32.9093 76.9231 32.6281 76.6599 32.5444L76.3567 33.4973ZM73.5831 32.3926C73.3111 32.4403 73.1293 32.6994 73.1769 32.9714C73.2246 33.2434 73.4838 33.4253 73.7558 33.3776L73.5831 32.3926ZM69.8669 34.0592C70.1388 34.0115 70.3207 33.7524 70.273 33.4804C70.2254 33.2084 69.9662 33.0265 69.6942 33.0742L69.8669 34.0592ZM68.725 33.0806C68.725 32.8044 68.5011 32.5806 68.225 32.5806C67.9488 32.5806 67.725 32.8044 67.725 33.0806H68.725ZM67.725 31.1837C67.725 31.4599 67.9488 31.6837 68.225 31.6837C68.5011 31.6837 68.725 31.4599 68.725 31.1837H67.725ZM66.4329 29.3266C66.1699 29.2424 65.8885 29.3874 65.8043 29.6504C65.7202 29.9134 65.8651 30.1948 66.1281 30.279L66.4329 29.3266ZM61.267 28.7234C61.53 28.8076 61.8115 28.6626 61.8956 28.3996C61.9798 28.1366 61.8348 27.8552 61.5718 27.771L61.267 28.7234ZM58.8436 27.2674C58.5757 27.3344 58.4129 27.6059 58.4798 27.8738C58.5468 28.1417 58.8183 28.3046 59.0862 28.2376L58.8436 27.2674ZM57.8111 28.5564C58.079 28.4894 58.2419 28.2179 58.1749 27.95C58.1079 27.6821 57.8364 27.5192 57.5685 27.5862L57.8111 28.5564ZM57.1493 27.6691C56.8842 27.5917 56.6066 27.744 56.5293 28.0091C56.4519 28.2742 56.6042 28.5517 56.8693 28.6291L57.1493 27.6691ZM56.443 28.5047C56.7081 28.582 56.9856 28.4298 57.063 28.1647C57.1403 27.8996 56.9881 27.622 56.723 27.5447L56.443 28.5047ZM55.9124 27.9886C55.9124 28.2648 56.1363 28.4886 56.4124 28.4886C56.6886 28.4886 56.9124 28.2648 56.9124 27.9886H55.9124ZM56.9124 28.0228C56.9124 27.7466 56.6886 27.5228 56.4124 27.5228C56.1363 27.5228 55.9124 27.7466 55.9124 28.0228H56.9124ZM51.2302 25.9371C50.966 25.8567 50.6867 26.0057 50.6063 26.2699C50.5259 26.5341 50.6749 26.8134 50.9391 26.8938L51.2302 25.9371ZM37.6197 22.8414C37.8839 22.9217 38.1632 22.7727 38.2436 22.5085C38.324 22.2444 38.175 21.965 37.9108 21.8847L37.6197 22.8414ZM32.9375 20.7355C32.9375 20.4593 32.7136 20.2355 32.4375 20.2355C32.1613 20.2355 31.9375 20.4593 31.9375 20.7355H32.9375ZM31.9375 20.7191C31.9375 20.9952 32.1613 21.2191 32.4375 21.2191C32.7136 21.2191 32.9375 20.9952 32.9375 20.7191H31.9375ZM30.5995 19.6313C30.3353 19.551 30.056 19.7001 29.9757 19.9643C29.8954 20.2285 30.0445 20.5078 30.3087 20.5881L30.5995 19.6313ZM25.3504 19.0812C25.6146 19.1615 25.8939 19.0124 25.9742 18.7482C26.0545 18.484 25.9054 18.2047 25.6412 18.1244L25.3504 19.0812ZM23.5125 17.5C23.2364 17.5 23.0125 17.7239 23.0125 18C23.0125 18.2761 23.2364 18.5 23.5125 18.5V17.5ZM23.5125 18.5C23.7886 18.5 24.0125 18.2761 24.0125 18C24.0125 17.7239 23.7886 17.5 23.5125 17.5V18.5ZM23.0125 18C23.0125 18.2761 23.2363 18.5 23.5125 18.5C23.7886 18.5 24.0125 18.2761 24.0125 18H23.0125ZM24.0125 18C24.0125 17.7239 23.7886 17.5 23.5125 17.5C23.2363 17.5 23.0125 17.7239 23.0125 18H24.0125ZM23.2718 17.5617C23.0276 17.6907 22.9343 17.9932 23.0633 18.2373C23.1923 18.4815 23.4948 18.5749 23.7389 18.4459L23.2718 17.5617ZM23.7212 18.4552C23.9654 18.3262 24.0587 18.0237 23.9297 17.7796C23.8007 17.5354 23.4982 17.442 23.2541 17.571L23.7212 18.4552ZM23.6137 17.5348C23.3496 17.4544 23.0702 17.6034 22.9899 17.8676C22.9095 18.1318 23.0585 18.4111 23.3227 18.4915L23.6137 17.5348ZM23.2918 18.4821C23.556 18.5625 23.8354 18.4135 23.9157 18.1493C23.9961 17.8851 23.8471 17.6058 23.5829 17.5254L23.2918 18.4821ZM22.925 18.0103C22.925 18.2864 23.1489 18.5103 23.425 18.5103C23.7012 18.5103 23.925 18.2864 23.925 18.0103H22.925ZM23.925 18.0359C23.925 17.7598 23.7012 17.5359 23.425 17.5359C23.1489 17.5359 22.925 17.7598 22.925 18.0359H23.925ZM22.1804 18.1383C21.9362 18.2673 21.8428 18.5698 21.9718 18.8139C22.1008 19.0581 22.4033 19.1515 22.6475 19.0225L22.1804 18.1383ZM20.1197 20.3579C20.3638 20.2289 20.4572 19.9264 20.3282 19.6823C20.1992 19.4381 19.8967 19.3447 19.6526 19.4737L20.1197 20.3579ZM42.1393 60.5517C42.3957 60.6543 42.6866 60.5296 42.7892 60.2732C42.8918 60.0168 42.7671 59.7258 42.5107 59.6232L42.1393 60.5517ZM42.5107 59.6233C42.2543 59.5207 41.9633 59.6454 41.8608 59.9018C41.7582 60.1582 41.8829 60.4492 42.1393 60.5517L42.5107 59.6233ZM41.825 62.3165C41.825 62.5926 42.0489 62.8165 42.325 62.8165C42.6012 62.8165 42.825 62.5926 42.825 62.3165H41.825ZM42.825 67.8889C42.825 67.6127 42.6012 67.3889 42.325 67.3889C42.0489 67.3889 41.825 67.6127 41.825 67.8889H42.825ZM40.0411 70.0115C39.7691 70.0594 39.5875 70.3186 39.6353 70.5906C39.6832 70.8625 39.9424 71.0442 40.2144 70.9964L40.0411 70.0115ZM34.7215 71.965C34.9934 71.9169 35.1749 71.6575 35.1269 71.3856C35.0788 71.1137 34.8194 70.9322 34.5475 70.9802L34.7215 71.965ZM32.9375 67.6541C32.9375 67.378 32.7136 67.1541 32.4375 67.1541C32.1613 67.1541 31.9375 67.378 31.9375 67.6541H32.9375ZM31.9375 57.1372C31.9375 57.4134 32.1613 57.6372 32.4375 57.6372C32.7136 57.6372 32.9375 57.4134 32.9375 57.1372H31.9375ZM32.9375 48.7237C32.9375 48.4476 32.7136 48.2237 32.4375 48.2237C32.1613 48.2237 31.9375 48.4476 31.9375 48.7237H32.9375ZM31.9375 38.2068C31.9375 38.4829 32.1613 38.7068 32.4375 38.7068C32.7136 38.7068 32.9375 38.4829 32.9375 38.2068H31.9375ZM34.5468 34.8846C34.8186 34.9331 35.0784 34.7521 35.1269 34.4803C35.1754 34.2084 34.9944 33.9487 34.7226 33.9002L34.5468 34.8846ZM40.2156 34.8811C39.9438 34.8325 39.6841 35.0135 39.6355 35.2854C39.587 35.5572 39.768 35.8169 40.0398 35.8655L40.2156 34.8811ZM41.825 38.0788C41.825 38.355 42.0488 38.5788 42.325 38.5788C42.6011 38.5788 42.825 38.355 42.825 38.0788H41.825ZM42.825 43.8618C42.825 43.5857 42.6011 43.3618 42.325 43.3618C42.0488 43.3618 41.825 43.5857 41.825 43.8618H42.825ZM44.0759 46.8097C44.3513 46.8306 44.5914 46.6244 44.6124 46.349C44.6334 46.0737 44.4271 45.8335 44.1518 45.8126L44.0759 46.8097ZM48.624 46.1528C48.3486 46.1319 48.1085 46.3381 48.0875 46.6135C48.0666 46.8888 48.2728 47.129 48.5481 47.1499L48.624 46.1528ZM50.4481 47.2837C50.7236 47.2647 50.9316 47.0261 50.9127 46.7506C50.8938 46.4751 50.6551 46.2671 50.3796 46.286L50.4481 47.2837ZM50.4769 46.2793C50.2014 46.2982 49.9934 46.5369 50.0123 46.8124C50.0312 47.0879 50.2698 47.2959 50.5453 47.277L50.4769 46.2793ZM50.05 49.6003C50.05 49.8764 50.2739 50.1003 50.55 50.1003C50.8261 50.1003 51.05 49.8764 51.05 49.6003H50.05ZM51.05 56.6622C51.05 56.3861 50.8261 56.1622 50.55 56.1622C50.2739 56.1622 50.05 56.3861 50.05 56.6622H51.05ZM50.5453 58.9855C50.2698 58.9666 50.0312 59.1746 50.0123 59.4501C49.9934 59.7256 50.2014 59.9642 50.4769 59.9832L50.5453 58.9855ZM50.3796 59.9765C50.6551 59.9954 50.8938 59.7874 50.9127 59.5119C50.9316 59.2364 50.7236 58.9977 50.4481 58.9788L50.3796 59.9765ZM48.5481 59.1125C48.2728 59.1335 48.0666 59.3737 48.0875 59.649C48.1085 59.9244 48.3487 60.1306 48.624 60.1097L48.5481 59.1125ZM44.1518 60.4499C44.4271 60.429 44.6334 60.1888 44.6124 59.9134C44.5914 59.6381 44.3513 59.4319 44.0759 59.4528L44.1518 60.4499ZM18.375 20.45V21.1749H19.375V20.45H18.375ZM18.375 22.9871V23.712H19.375V22.9871H18.375ZM18.9917 23.2258L18.0881 23.009L17.8547 23.9813L18.7583 24.1982L18.9917 23.2258ZM15.8291 22.4668L14.9255 22.2499L14.6921 23.2223L15.5957 23.4392L15.8291 22.4668ZM15.2614 22.5237L15.2511 22.5017L14.3459 22.9267L14.3562 22.9486L15.2614 22.5237ZM15.2254 22.447L15.2151 22.425L14.3099 22.85L14.3202 22.8719L15.2254 22.447ZM14.5267 22.1966L13.6906 22.6438L14.1622 23.5256L14.9983 23.0784L14.5267 22.1966ZM11.6003 23.7619L10.7642 24.2091L11.2358 25.0909L12.0719 24.6437L11.6003 23.7619ZM10.5 24.65V28.8435H11.5V24.65H10.5ZM10.5 39.3273V47.7144H11.5V39.3273H10.5ZM10.5 58.1982V66.5852H11.5V58.1982H10.5ZM10.5 77.069V81.2625H11.5V77.069H10.5ZM10.7642 81.7034L11.6003 82.1506L12.0719 81.2688L11.2358 80.8216L10.7642 81.7034ZM13.6906 83.2687L14.5267 83.7159L14.9983 82.8341L14.1622 82.3869L13.6906 83.2687ZM14.8838 83.7601L15.7977 83.5316L15.5551 82.5615L14.6412 82.7899L14.8838 83.7601ZM18.0824 82.9604L18.9963 82.7319L18.7537 81.7618L17.8398 81.9903L18.0824 82.9604ZM18.375 82.2469V82.9809H19.375V82.2469H18.375ZM18.375 84.816V85.55H19.375V84.816H18.375ZM18.6414 85.9921L19.6526 86.5263L20.1197 85.6421L19.1086 85.1079L18.6414 85.9921ZM22.1804 87.8617L23.1915 88.3959L23.6586 87.5117L22.6475 86.9775L22.1804 87.8617ZM22.925 87.9538V87.9641H23.925V87.9538H22.925ZM22.925 87.9897V88H23.925V87.9897H22.925ZM23.5699 88.4786L23.5823 88.4748L23.2925 87.5177L23.2802 87.5214L23.5699 88.4786ZM23.6132 88.4655L23.6255 88.4617L23.3358 87.5046L23.3234 87.5084L23.6132 88.4655ZM23.2471 88.4253L23.2541 88.429L23.7213 87.5448L23.7142 87.5411L23.2471 88.4253ZM23.2718 88.4383L23.2789 88.4421L23.7461 87.5579L23.739 87.5542L23.2718 88.4383ZM23.6579 88.4784L25.6412 87.8756L25.3504 86.9188L23.3671 87.5216L23.6579 88.4784ZM30.5995 86.3687L32.5829 85.7659L32.2921 84.8091L30.3087 85.4119L30.5995 86.3687ZM32.9375 85.2875V85.2841H31.9375V85.2875H32.9375ZM32.9375 85.2755V85.272H31.9375V85.2755H32.9375ZM32.5823 85.7506L37.9101 84.1379L37.6204 83.1808L32.2926 84.7935L32.5823 85.7506ZM51.2295 80.1063L56.5573 78.4936L56.2676 77.5365L50.9398 79.1491L51.2295 80.1063ZM55.9124 78.015V78.0172H56.9124V78.015H55.9124ZM55.9124 78.0228V78.025H56.9124V78.0228H55.9124ZM56.5524 78.505L56.6152 78.4867L56.3353 77.5267L56.2724 77.545L56.5524 78.505ZM56.7723 78.4409L56.8351 78.4225L56.5551 77.4625L56.4923 77.4809L56.7723 78.4409ZM56.5738 78.4276L57.1916 78.582L57.4341 77.6119L56.8164 77.4575L56.5738 78.4276ZM58.736 78.9681L59.3537 79.1226L59.5962 78.1524L58.9785 77.998L58.736 78.9681ZM59.3169 79.1118H59.3169L59.6331 78.1632L59.6331 78.1632L59.3169 79.1118ZM59.3169 79.1119L59.3169 79.1119L59.6331 78.1632H59.6331L59.3169 79.1119ZM59.9346 78.8345L59.9346 78.8345L59.0154 78.4406V78.4406L59.9346 78.8345ZM59.9346 78.8345V78.8344L59.0154 78.4405L59.0154 78.4405L59.9346 78.8345ZM59.6274 79.1137L61.5718 78.4915L61.2671 77.5391L59.3226 78.1613L59.6274 79.1137ZM66.4329 76.9359L68.3774 76.3137L68.0726 75.3613L66.1282 75.9835L66.4329 76.9359ZM68.725 75.8375V75.0788H67.725V75.8375H68.725ZM68.725 73.1819V72.4232H67.725V73.1819H68.725ZM68.1387 72.9157L69.6942 73.1883L69.8668 72.2033L68.3113 71.9307L68.1387 72.9157ZM73.5831 73.8699L75.1386 74.1425L75.3113 73.1575L73.7557 72.8849L73.5831 73.8699ZM75.3766 74.1265L76.6599 73.7181L76.3567 72.7652L75.0733 73.1735L75.3766 74.1265ZM79.8682 72.6973L81.1516 72.289L80.8484 71.336L79.565 71.7444L79.8682 72.6973ZM81.5 71.8125L81.5 69.0514H80.5L80.5 71.8125H81.5ZM81.5 62.1486L81.5 59.3875H80.5L80.5 62.1486H81.5ZM81.026 58.8882L77.2926 58.6937L77.2406 59.6924L80.9739 59.8868L81.026 58.8882ZM67.9593 58.2076L64.226 58.0132L64.1739 59.0118L67.9073 59.2063L67.9593 58.2076ZM64.1633 58.0138L63.8327 58.0381L63.9061 59.0354L64.2366 59.0111L64.1633 58.0138ZM63.0063 58.0989L62.6758 58.1232L62.7491 59.1205L63.0797 59.0962L63.0063 58.0989ZM63.2124 58.6219V56.1816H62.2124V58.6219H63.2124ZM63.2124 50.0809V47.6406H62.2124V50.0809H63.2124ZM62.6758 48.1393L63.0063 48.1636L63.0797 47.1663L62.7491 47.142L62.6758 48.1393ZM63.8328 48.2243L64.1633 48.2486L64.2367 47.2513L63.9061 47.227L63.8328 48.2243ZM64.226 48.2493L67.9593 48.0549L67.9073 47.0562L64.174 47.2507L64.226 48.2493ZM77.2927 47.5688L81.026 47.3743L80.974 46.3757L77.2407 46.5701L77.2927 47.5688ZM81.5 46.875L81.5 44.1139L80.5 44.1139L80.5 46.875H81.5ZM81.5 37.2111L81.5 34.45H80.5L80.5 37.2111L81.5 37.2111ZM81.1516 33.9735L79.8683 33.5652L79.565 34.5181L80.8484 34.9265L81.1516 33.9735ZM76.6599 32.5444L75.3766 32.136L75.0734 33.089L76.3567 33.4973L76.6599 32.5444ZM75.1387 32.12L73.5831 32.3926L73.7558 33.3776L75.3113 33.105L75.1387 32.12ZM69.6942 33.0742L68.1387 33.3468L68.3113 34.3318L69.8669 34.0592L69.6942 33.0742ZM68.725 33.8393V33.0806H67.725V33.8393H68.725ZM68.725 31.1837V30.425H67.725V31.1837H68.725ZM68.3774 29.9488L66.4329 29.3266L66.1281 30.279L68.0726 30.9012L68.3774 29.9488ZM61.5718 27.771L59.6273 27.1488L59.3226 28.1012L61.267 28.7234L61.5718 27.771ZM59.3537 27.1399L58.8436 27.2674L59.0862 28.2376L59.5962 28.1101L59.3537 27.1399ZM57.5685 27.5862L57.0585 27.7137L57.301 28.6839L57.8111 28.5564L57.5685 27.5862ZM57.3198 27.7188L57.1493 27.6691L56.8693 28.6291L57.0398 28.6788L57.3198 27.7188ZM56.723 27.5447L56.5524 27.495L56.2724 28.455L56.443 28.5047L56.723 27.5447ZM55.9124 27.975V27.9886H56.9124V27.975H55.9124ZM55.9124 28.0228V28.0364H56.9124V28.0228H55.9124ZM56.558 27.5581L51.2302 25.9371L50.9391 26.8938L56.2669 28.5148L56.558 27.5581ZM37.9108 21.8847L32.583 20.2637L32.2919 21.2204L37.6197 22.8414L37.9108 21.8847ZM32.9375 20.742V20.7355H31.9375V20.742H32.9375ZM32.9375 20.7191V20.7125H31.9375V20.7191H32.9375ZM32.5829 20.2341L30.5995 19.6313L30.3087 20.5881L32.2921 21.1909L32.5829 20.2341ZM25.6412 18.1244L23.6579 17.5216L23.3671 18.4784L25.3504 19.0812L25.6412 18.1244ZM23.5125 17.5H23.5125V18.5H23.5125V17.5ZM23.5125 17.5H23.5125V18.5H23.5125V17.5ZM23.0125 18V18H24.0125V18H23.0125ZM23.0125 18V18H24.0125V18H23.0125ZM23.2789 17.5579L23.2718 17.5617L23.7389 18.4459L23.746 18.4421L23.2789 17.5579ZM23.2541 17.571L23.247 17.5748L23.7141 18.459L23.7212 18.4552L23.2541 17.571ZM23.6261 17.5385L23.6137 17.5348L23.3227 18.4915L23.335 18.4952L23.6261 17.5385ZM23.5829 17.5254L23.5706 17.5217L23.2795 18.4783L23.2918 18.4821L23.5829 17.5254ZM22.925 18V18.0103H23.925V18H22.925ZM22.925 18.0359V18.0462H23.925V18.0359H22.925ZM23.1915 17.6041L22.1804 18.1383L22.6475 19.0225L23.6586 18.4883L23.1915 17.6041ZM19.6526 19.4737L18.6414 20.0079L19.1086 20.8921L20.1197 20.3579L19.6526 19.4737ZM42.1393 60.5517L42.1393 60.5517L42.5107 59.6232L42.5106 59.6232L42.1393 60.5517ZM42.1393 60.5517L42.1393 60.5517L42.5107 59.6233L42.5107 59.6233L42.1393 60.5517ZM41.825 60.0875V62.3165H42.825V60.0875H41.825ZM41.825 67.8889V70.1178H42.825V67.8889H41.825ZM42.2386 69.6253C41.5266 69.7503 40.7912 69.8795 40.0411 70.0115L40.2144 70.9964C40.9643 70.8644 41.6996 70.7352 42.4114 70.6103L42.2386 69.6253ZM34.5475 70.9802C33.8065 71.1111 33.0715 71.241 32.3504 71.3686L32.5245 72.3533C33.2456 72.2258 33.9805 72.0958 34.7215 71.965L34.5475 70.9802ZM32.9375 71.8609V67.6541H31.9375V71.8609H32.9375ZM32.9375 57.1372V48.7237H31.9375V57.1372H32.9375ZM32.9375 38.2068V34H31.9375V38.2068H32.9375ZM32.3496 34.4922L34.5468 34.8846L34.7226 33.9002L32.5254 33.5078L32.3496 34.4922ZM40.0398 35.8655L42.2371 36.2578L42.4128 35.2734L40.2156 34.8811L40.0398 35.8655ZM41.825 35.7656V38.0788H42.825V35.7656H41.825ZM41.825 43.8618V46.175H42.825V43.8618H41.825ZM42.287 46.6736L44.0759 46.8097L44.1518 45.8126L42.3629 45.6764L42.287 46.6736ZM48.5481 47.1499L50.337 47.2861L50.4129 46.2889L48.624 46.1528L48.5481 47.1499ZM50.4092 47.2863L50.4481 47.2837L50.3796 46.286L50.3407 46.2887L50.4092 47.2863ZM50.5453 47.277L50.5842 47.2743L50.5158 46.2767L50.4769 46.2793L50.5453 47.277ZM50.05 46.7755V49.6003H51.05V46.7755H50.05ZM50.05 56.6622V59.487H51.05V56.6622H50.05ZM50.5842 58.9882L50.5453 58.9855L50.4769 59.9832L50.5158 59.9858L50.5842 58.9882ZM50.4481 58.9788L50.4092 58.9762L50.3407 59.9738L50.3796 59.9765L50.4481 58.9788ZM50.337 58.9764L48.5481 59.1125L48.624 60.1097L50.4129 59.9735L50.337 58.9764ZM44.0759 59.4528L42.287 59.5889L42.3629 60.586L44.1518 60.4499L44.0759 59.4528ZM18.875 20.45L18.4079 19.5658C18.0801 19.739 17.875 20.0793 17.875 20.45H18.875ZM23.425 18.0462L23.8922 18.9304C24.22 18.7572 24.425 18.4169 24.425 18.0462H23.425ZM18.875 23.712L18.6416 24.6844C18.9394 24.7559 19.2536 24.6869 19.4941 24.4973C19.7346 24.3077 19.875 24.0183 19.875 23.712H18.875ZM14.8088 22.7361L13.9036 23.1611C14.0327 23.4362 14.2799 23.6376 14.5754 23.7085L14.8088 22.7361ZM14.7625 22.6375L15.6677 22.2126C15.5512 21.9643 15.3377 21.7748 15.0774 21.6884C14.8171 21.602 14.5327 21.6264 14.2908 21.7557L14.7625 22.6375ZM11 24.65L10.5283 23.7682C10.2031 23.9422 10 24.2811 10 24.65H11ZM11 81.2625H10C10 81.6314 10.2031 81.9703 10.5283 82.1443L11 81.2625ZM14.7625 83.275L14.2908 84.1568C14.5097 84.2738 14.7643 84.3053 15.005 84.2451L14.7625 83.275ZM18.875 82.2469H19.875C19.875 81.9389 19.7331 81.6482 19.4904 81.4587C19.2477 81.2692 18.9312 81.2021 18.6325 81.2767L18.875 82.2469ZM18.875 85.55H17.875C17.875 85.9207 18.0801 86.261 18.4079 86.4342L18.875 85.55ZM23.425 87.9538H24.425C24.425 87.5831 24.22 87.2428 23.8922 87.0696L23.425 87.9538ZM23.425 88H22.425C22.425 88.3165 22.5749 88.6144 22.8291 88.803C23.0833 88.9917 23.4118 89.0488 23.7148 88.9571L23.425 88ZM23.4806 87.9832L23.9478 87.099C23.715 86.976 23.443 86.9498 23.1909 87.0261L23.4806 87.9832ZM23.5125 88L23.0453 88.8842C23.2785 89.0074 23.551 89.0335 23.8033 88.9568L23.5125 88ZM32.4375 85.2875L32.7283 86.2443C33.1495 86.1163 33.4375 85.7278 33.4375 85.2875H32.4375ZM32.4375 85.272L32.1478 84.3149C31.726 84.4426 31.4375 84.8313 31.4375 85.272H32.4375ZM56.4124 78.015H57.4124C57.4124 77.6985 57.2626 77.4006 57.0084 77.212C56.7542 77.0234 56.4257 76.9662 56.1227 77.0579L56.4124 78.015ZM56.4124 78.025H55.4124C55.4124 78.3397 55.5606 78.6361 55.8124 78.825C56.0642 79.0138 56.3903 79.0731 56.6924 78.985L56.4124 78.025ZM56.6951 77.9425L56.9376 76.9724C56.7656 76.9294 56.5853 76.9329 56.4151 76.9825L56.6951 77.9425ZM59.475 78.6375L59.7912 77.6888C59.7669 77.6807 59.7423 77.6736 59.7175 77.6674L59.475 78.6375ZM59.475 78.6375L59.1588 79.5862C59.6522 79.7507 60.1893 79.5095 60.3942 79.0314L59.475 78.6375ZM59.475 78.6375L59.1702 77.6851C58.8942 77.7734 58.6701 77.9772 58.5559 78.2436L59.475 78.6375ZM68.225 75.8375L68.5298 76.7899C68.9439 76.6574 69.225 76.2724 69.225 75.8375H68.225ZM68.225 72.4232L68.3976 71.4382C68.1066 71.3872 67.808 71.4675 67.5818 71.6575C67.3556 71.8475 67.225 72.1278 67.225 72.4232H68.225ZM75.225 73.65L75.0523 74.635C75.2112 74.6628 75.3745 74.6518 75.5282 74.6029L75.225 73.65ZM81 71.8125L81.3032 72.7654C81.7182 72.6334 82 72.248 82 71.8125H81ZM81 59.3875H82C82 58.8554 81.5833 58.4165 81.052 58.3889L81 59.3875ZM64.2 58.5125L64.252 57.5138C64.2102 57.5117 64.1683 57.5121 64.1266 57.5152L64.2 58.5125ZM62.7124 58.6219H61.7124C61.7124 58.8998 61.8281 59.1652 62.0317 59.3544C62.2354 59.5436 62.5086 59.6395 62.7858 59.6192L62.7124 58.6219ZM62.7124 47.6406L62.7858 46.6433C62.5086 46.6229 62.2354 46.7188 62.0317 46.908C61.8281 47.0972 61.7124 47.3626 61.7124 47.6406H62.7124ZM64.2 47.75L64.1267 48.7473C64.1684 48.7504 64.2102 48.7508 64.252 48.7486L64.2 47.75ZM81 46.875L81.052 47.8736C81.5834 47.846 82 47.4071 82 46.875L81 46.875ZM81 34.45L82 34.45C82 34.0145 81.7182 33.6291 81.3032 33.4971L81 34.45ZM75.225 32.6125L75.5282 31.6596C75.3745 31.6107 75.2113 31.5997 75.0524 31.6275L75.225 32.6125ZM68.225 33.8393H67.225C67.225 34.1347 67.3556 34.415 67.5818 34.605C67.808 34.795 68.1066 34.8753 68.3976 34.8243L68.225 33.8393ZM68.225 30.425H69.225C69.225 29.9901 68.9439 29.6051 68.5298 29.4726L68.225 30.425ZM59.475 27.625L59.7797 26.6726C59.6025 26.6159 59.4129 26.6097 59.2324 26.6549L59.475 27.625ZM57.1798 28.1988L56.8998 29.1588C57.07 29.2084 57.2503 29.2119 57.4223 29.1689L57.1798 28.1988ZM56.4124 27.975L56.6924 27.015C56.3903 26.9269 56.0642 26.9861 55.8124 27.175C55.5606 27.3638 55.4124 27.6602 55.4124 27.975H56.4124ZM56.4124 28.0364L56.1214 28.9931C56.4244 29.0853 56.7533 29.0285 57.0078 28.8399C57.2623 28.6513 57.4124 28.3532 57.4124 28.0364H56.4124ZM32.4375 20.742H31.4375C31.4375 21.1822 31.7253 21.5706 32.1464 21.6987L32.4375 20.742ZM32.4375 20.7125H33.4375C33.4375 20.2722 33.1495 19.8837 32.7283 19.7557L32.4375 20.7125ZM23.5125 18L23.8033 17.0432C23.709 17.0146 23.611 17 23.5125 17V18ZM23.5125 18V17C22.9602 17 22.5125 17.4477 22.5125 18H23.5125ZM23.5125 18L23.9796 18.8842C24.3074 18.711 24.5125 18.3707 24.5125 18H23.5125ZM23.4805 18.0169L23.1895 18.9736C23.4419 19.0504 23.7144 19.0243 23.9477 18.9011L23.4805 18.0169ZM23.425 18L23.7161 17.0433C23.4131 16.9511 23.0842 17.0079 22.8297 17.1965C22.5752 17.3852 22.425 17.6832 22.425 18H23.425ZM42.325 60.0875L42.2491 59.0904C41.7853 59.1257 41.4071 59.476 41.3365 59.9358C41.266 60.3955 41.5217 60.8432 41.9536 61.016L42.325 60.0875ZM50.375 59.475L50.4434 58.4773C50.3954 58.474 50.3471 58.4742 50.2991 58.4779L50.375 59.475ZM42.325 60.0875H43.325C43.325 59.6786 43.0761 59.3109 42.6964 59.159L42.325 60.0875ZM42.325 70.1178L42.4979 71.1028C42.9762 71.0188 43.325 70.6034 43.325 70.1178H42.325ZM32.4375 71.8609H31.4375C31.4375 72.1566 31.5683 72.4371 31.7949 72.6271C32.0214 72.8171 32.3205 72.8971 32.6116 72.8456L32.4375 71.8609ZM32.4375 34L32.6133 33.0156C32.3219 32.9635 32.0224 33.0433 31.7955 33.2333C31.5686 33.4233 31.4375 33.704 31.4375 34H32.4375ZM42.325 35.7656H43.325C43.325 35.2812 42.9777 34.8664 42.5007 34.7812L42.325 35.7656ZM42.325 46.175H41.325C41.325 46.6979 41.7277 47.1325 42.2491 47.1721L42.325 46.175ZM50.375 46.7875L50.2991 47.7846C50.3471 47.7883 50.3954 47.7885 50.4434 47.7852L50.375 46.7875ZM50.55 46.7755H51.55C51.55 46.4984 51.435 46.2337 51.2325 46.0446C51.0299 45.8555 50.758 45.7589 50.4815 45.7778L50.55 46.7755ZM50.55 59.487L50.4815 60.4846C50.758 60.5036 51.0299 60.407 51.2325 60.2179C51.435 60.0288 51.55 59.7641 51.55 59.487H50.55ZM17.875 21.1749C17.875 21.7272 18.3227 22.1749 18.875 22.1749C19.4273 22.1749 19.875 21.7272 19.875 21.1749H17.875ZM19.875 22.9871C19.875 22.4348 19.4273 21.9871 18.875 21.9871C18.3227 21.9871 17.875 22.4348 17.875 22.9871H19.875ZM18.2048 22.5228C17.6677 22.3939 17.1279 22.7247 16.999 23.2618C16.8701 23.7988 17.201 24.3387 17.738 24.4675L18.2048 22.5228ZM15.479 23.9254C16.0161 24.0543 16.5559 23.7234 16.6848 23.1864C16.8137 22.6493 16.4828 22.1095 15.9458 21.9806L15.479 23.9254ZM15.7037 22.2893C15.469 21.7893 14.8735 21.5743 14.3736 21.809C13.8736 22.0437 13.6586 22.6392 13.8933 23.1392L15.7037 22.2893ZM13.8676 23.0844C14.1023 23.5843 14.6978 23.7993 15.1977 23.5646C15.6977 23.33 15.9127 22.7344 15.678 22.2345L13.8676 23.0844ZM13.4547 22.2029C12.9677 22.4634 12.7841 23.0694 13.0446 23.5564C13.3051 24.0434 13.911 24.227 14.398 23.9665L13.4547 22.2029ZM12.3078 25.0846C12.7948 24.8241 12.9784 24.2181 12.7179 23.7311C12.4574 23.2441 11.8515 23.0605 11.3645 23.321L12.3078 25.0846ZM10 28.8435C10 29.3958 10.4477 29.8435 11 29.8435C11.5523 29.8435 12 29.3958 12 28.8435H10ZM12 39.3273C12 38.775 11.5523 38.3273 11 38.3273C10.4477 38.3273 10 38.775 10 39.3273H12ZM10 47.7144C10 48.2666 10.4477 48.7144 11 48.7144C11.5523 48.7144 12 48.2666 12 47.7144H10ZM12 58.1982C12 57.6459 11.5523 57.1982 11 57.1982C10.4477 57.1982 10 57.6459 10 58.1982H12ZM10 66.5852C10 67.1375 10.4477 67.5852 11 67.5852C11.5523 67.5852 12 67.1375 12 66.5852H10ZM12 77.069C12 76.5167 11.5523 76.069 11 76.069C10.4477 76.069 10 76.5167 10 77.069H12ZM11.3645 82.5915C11.8515 82.852 12.4574 82.6684 12.7179 82.1814C12.9784 81.6944 12.7948 81.0884 12.3078 80.8279L11.3645 82.5915ZM14.398 81.946C13.911 81.6855 13.3051 81.8691 13.0446 82.3561C12.7841 82.8431 12.9677 83.4491 13.4547 83.7096L14.398 81.946ZM15.9189 84.0167C16.4547 83.8827 16.7805 83.3398 16.6465 82.804C16.5126 82.2682 15.9696 81.9424 15.4339 82.0764L15.9189 84.0167ZM17.7186 81.5052C17.1828 81.6392 16.857 82.1821 16.991 82.7179C17.1249 83.2537 17.6679 83.5794 18.2036 83.4455L17.7186 81.5052ZM17.875 82.9809C17.875 83.5332 18.3227 83.9809 18.875 83.9809C19.4273 83.9809 19.875 83.5332 19.875 82.9809H17.875ZM19.875 84.816C19.875 84.2637 19.4273 83.816 18.875 83.816C18.3227 83.816 17.875 84.2637 17.875 84.816H19.875ZM19.419 86.9684C19.9073 87.2263 20.5123 87.0396 20.7703 86.5513C21.0283 86.063 20.8416 85.458 20.3532 85.2L19.419 86.9684ZM22.881 86.5354C22.3927 86.2774 21.7877 86.4642 21.5297 86.9525C21.2717 87.4408 21.4585 88.0458 21.9468 88.3038L22.881 86.5354ZM22.425 87.9641C22.425 88.5163 22.8728 88.9641 23.425 88.9641C23.9773 88.9641 24.425 88.5163 24.425 87.9641H22.425ZM24.425 87.9897C24.425 87.4374 23.9773 86.9897 23.425 86.9897C22.8728 86.9897 22.425 87.4374 22.425 87.9897H24.425ZM23.7271 88.9534C24.2557 88.7934 24.5545 88.2351 24.3945 87.7065C24.2345 87.1779 23.6763 86.8791 23.1477 87.0392L23.7271 88.9534ZM23.1786 87.0298C22.65 87.1898 22.3512 87.748 22.5112 88.2766C22.6712 88.8052 23.2294 89.104 23.758 88.944L23.1786 87.0298ZM23.0206 88.8711C23.5089 89.1291 24.1139 88.9424 24.3719 88.4541C24.6299 87.9658 24.4432 87.3607 23.9549 87.1027L23.0206 88.8711ZM23.9726 87.1121C23.4843 86.8541 22.8792 87.0408 22.6212 87.5291C22.3632 88.0174 22.5499 88.6224 23.0383 88.8804L23.9726 87.1121ZM25.7866 88.354C26.315 88.1934 26.6132 87.6348 26.4526 87.1064C26.292 86.578 25.7335 86.2798 25.205 86.4404L25.7866 88.354ZM30.1633 84.9335C29.6349 85.0941 29.3368 85.6526 29.4974 86.1811C29.6579 86.7095 30.2165 87.0077 30.7449 86.8471L30.1633 84.9335ZM33.4375 85.2841C33.4375 84.7318 32.9897 84.2841 32.4375 84.2841C31.8852 84.2841 31.4375 84.7318 31.4375 85.2841H33.4375ZM31.4375 85.2755C31.4375 85.8278 31.8852 86.2755 32.4375 86.2755C32.9897 86.2755 33.4375 85.8278 33.4375 85.2755H31.4375ZM38.0549 84.6165C38.5835 84.4565 38.8824 83.8982 38.7224 83.3697C38.5623 82.841 38.0041 82.5422 37.4755 82.7022L38.0549 84.6165ZM50.795 78.6706C50.2664 78.8306 49.9675 79.3888 50.1276 79.9174C50.2876 80.446 50.8458 80.7448 51.3744 80.5848L50.795 78.6706ZM55.4124 78.0172C55.4124 78.5695 55.8602 79.0172 56.4124 79.0172C56.9647 79.0172 57.4124 78.5695 57.4124 78.0172H55.4124ZM57.4124 78.0228C57.4124 77.4705 56.9647 77.0228 56.4124 77.0228C55.8602 77.0228 55.4124 77.4705 55.4124 78.0228H57.4124ZM56.7552 78.9667C57.2854 78.812 57.5899 78.2569 57.4353 77.7267C57.2806 77.1965 56.7254 76.892 56.1953 77.0467L56.7552 78.9667ZM56.3523 77.0009C55.8221 77.1555 55.5177 77.7107 55.6723 78.2409C55.8269 78.771 56.3821 79.0755 56.9123 78.9209L56.3523 77.0009ZM57.0703 79.0671C57.6061 79.2011 58.149 78.8753 58.283 78.3395C58.4169 77.8037 58.0912 77.2608 57.5554 77.1268L57.0703 79.0671ZM59.0998 77.5129C58.564 77.379 58.021 77.7047 57.8871 78.2405C57.7531 78.7763 58.0789 79.3193 58.6147 79.4532L59.0998 77.5129ZM59.1588 79.5862C59.6827 79.7608 60.249 79.4777 60.4237 78.9537C60.5983 78.4298 60.3152 77.8635 59.7912 77.6888L59.1588 79.5862ZM59.7912 77.6888C59.2673 77.5142 58.701 77.7973 58.5263 78.3213C58.3517 78.8452 58.6348 79.4115 59.1588 79.5862L59.7912 77.6888ZM60.3942 79.0314C60.6117 78.5238 60.3766 77.9359 59.8689 77.7184C59.3613 77.5008 58.7734 77.736 58.5559 78.2436L60.3942 79.0314ZM58.5559 78.2436C58.3383 78.7512 58.5735 79.3391 59.0811 79.5566C59.5887 79.7742 60.1766 79.539 60.3942 79.0314L58.5559 78.2436ZM61.7242 78.9677C62.2502 78.7994 62.5402 78.2365 62.3719 77.7105C62.2036 77.1845 61.6407 76.8945 61.1147 77.0628L61.7242 78.9677ZM65.9758 75.5073C65.4498 75.6756 65.1598 76.2385 65.3281 76.7645C65.4964 77.2905 66.0593 77.5805 66.5853 77.4121L65.9758 75.5073ZM69.225 75.0788C69.225 74.5265 68.7773 74.0788 68.225 74.0788C67.6727 74.0788 67.225 74.5265 67.225 75.0788H69.225ZM67.225 73.1819C67.225 73.7342 67.6727 74.1819 68.225 74.1819C68.7773 74.1819 69.225 73.7342 69.225 73.1819H67.225ZM69.6079 73.6808C70.1519 73.7761 70.6702 73.4124 70.7655 72.8684C70.8609 72.3245 70.4971 71.8062 69.9532 71.7108L69.6079 73.6808ZM73.842 72.3924C73.298 72.2971 72.7798 72.6608 72.6844 73.2048C72.5891 73.7487 72.9528 74.267 73.4968 74.3624L73.842 72.3924ZM76.8115 74.1946C77.3378 74.0271 77.6287 73.4648 77.4612 72.9385C77.2938 72.4122 76.7314 72.1213 76.2051 72.2887L76.8115 74.1946ZM79.4134 71.2679C78.8871 71.4354 78.5963 71.9977 78.7637 72.524C78.9312 73.0503 79.4936 73.3412 80.0198 73.1738L79.4134 71.2679ZM82 69.0514C82 68.4991 81.5523 68.0514 81 68.0514C80.4477 68.0514 80 68.4991 80 69.0514L82 69.0514ZM80 62.1486C80 62.7009 80.4477 63.1486 81 63.1486C81.5522 63.1486 82 62.7009 82 62.1486L80 62.1486ZM77.3186 58.1944C76.7671 58.1657 76.2967 58.5895 76.268 59.141C76.2393 59.6926 76.6631 60.163 77.2146 60.1917L77.3186 58.1944ZM67.8813 59.7056C68.4328 59.7343 68.9032 59.3105 68.9319 58.7589C68.9607 58.2074 68.5368 57.737 67.9853 57.7083L67.8813 59.7056ZM63.7961 57.5395C63.2453 57.58 62.8316 58.0593 62.8721 58.6101C62.9126 59.1609 63.3919 59.5746 63.9427 59.5341L63.7961 57.5395ZM63.1163 59.5949C63.6671 59.5544 64.0808 59.075 64.0403 58.5242C63.9998 57.9734 63.5205 57.5597 62.9697 57.6002L63.1163 59.5949ZM63.7124 56.1816C63.7124 55.6293 63.2647 55.1816 62.7124 55.1816C62.1602 55.1816 61.7124 55.6293 61.7124 56.1816H63.7124ZM61.7124 50.0809C61.7124 50.6332 62.1602 51.0809 62.7124 51.0809C63.2647 51.0809 63.7124 50.6332 63.7124 50.0809H61.7124ZM62.9697 48.6622C63.5205 48.7027 63.9998 48.289 64.0403 47.7382C64.0808 47.1874 63.6671 46.7081 63.1163 46.6676L62.9697 48.6622ZM63.9428 46.7284C63.392 46.6879 62.9126 47.1015 62.8721 47.6523C62.8316 48.2031 63.2453 48.6825 63.7961 48.723L63.9428 46.7284ZM67.9853 48.5542C68.5369 48.5255 68.9607 48.0551 68.932 47.5035C68.9033 46.952 68.4329 46.5282 67.8813 46.5569L67.9853 48.5542ZM77.2147 46.0708C76.6631 46.0995 76.2393 46.5699 76.268 47.1214C76.2967 47.673 76.7671 48.0968 77.3187 48.0681L77.2147 46.0708ZM82 44.1139C82 43.5616 81.5523 43.1139 81 43.1139C80.4477 43.1139 80 43.5616 80 44.1139L82 44.1139ZM80 37.2111C80 37.7634 80.4477 38.2111 81 38.2111C81.5523 38.2111 82 37.7634 82 37.2111L80 37.2111ZM80.0199 33.0887C79.4936 32.9213 78.9312 33.2122 78.7637 33.7385C78.5963 34.2647 78.8872 34.8271 79.4134 34.9946L80.0199 33.0887ZM76.2051 33.9737C76.7314 34.1412 77.2938 33.8503 77.4613 33.324C77.6287 32.7977 77.3378 32.2354 76.8115 32.0679L76.2051 33.9737ZM73.4968 31.9001C72.9528 31.9955 72.5891 32.5137 72.6845 33.0577C72.7798 33.6017 73.2981 33.9654 73.8421 33.8701L73.4968 31.9001ZM69.9532 34.5517C70.4972 34.4563 70.8609 33.938 70.7655 33.394C70.6702 32.8501 70.1519 32.4863 69.6079 32.5817L69.9532 34.5517ZM69.225 33.0806C69.225 32.5283 68.7773 32.0806 68.225 32.0806C67.6727 32.0806 67.225 32.5283 67.225 33.0806H69.225ZM67.225 31.1837C67.225 31.736 67.6727 32.1837 68.225 32.1837C68.7773 32.1837 69.225 31.736 69.225 31.1837H67.225ZM66.5853 28.8504C66.0593 28.682 65.4964 28.972 65.3281 29.498C65.1598 30.024 65.4497 30.5869 65.9757 30.7552L66.5853 28.8504ZM61.1146 29.1996C61.6406 29.368 62.2035 29.078 62.3718 28.552C62.5401 28.026 62.2502 27.4631 61.7242 27.2948L61.1146 29.1996ZM58.7224 26.7824C58.1866 26.9163 57.8608 27.4593 57.9948 27.995C58.1287 28.5308 58.6717 28.8566 59.2074 28.7227L58.7224 26.7824ZM57.9324 29.0414C58.4681 28.9075 58.7939 28.3645 58.66 27.8287C58.526 27.293 57.9831 26.9672 57.4473 27.1011L57.9324 29.0414ZM57.2893 27.1891C56.7591 27.0344 56.2039 27.3389 56.0493 27.8691C55.8946 28.3993 56.1991 28.9544 56.7293 29.1091L57.2893 27.1891ZM56.303 28.9847C56.8332 29.1394 57.3883 28.8349 57.543 28.3047C57.6976 27.7745 57.3932 27.2194 56.863 27.0647L56.303 28.9847ZM55.4124 27.9886C55.4124 28.5409 55.8602 28.9886 56.4124 28.9886C56.9647 28.9886 57.4124 28.5409 57.4124 27.9886H55.4124ZM57.4124 28.0228C57.4124 27.4705 56.9647 27.0228 56.4124 27.0228C55.8602 27.0228 55.4124 27.4705 55.4124 28.0228H57.4124ZM51.3757 25.4588C50.8474 25.298 50.2887 25.596 50.128 26.1244C49.9672 26.6527 50.2652 27.2114 50.7936 27.3722L51.3757 25.4588ZM37.4742 23.3197C38.0025 23.4805 38.5612 23.1825 38.7219 22.6541C38.8827 22.1257 38.5847 21.5671 38.0563 21.4063L37.4742 23.3197ZM33.4375 20.7355C33.4375 20.1832 32.9897 19.7355 32.4375 19.7355C31.8852 19.7355 31.4375 20.1832 31.4375 20.7355H33.4375ZM31.4375 20.7191C31.4375 21.2713 31.8852 21.7191 32.4375 21.7191C32.9897 21.7191 33.4375 21.2713 33.4375 20.7191H31.4375ZM30.7449 19.1529C30.2165 18.9923 29.6579 19.2905 29.4974 19.8189C29.3368 20.3474 29.6349 20.9059 30.1633 21.0665L30.7449 19.1529ZM25.205 19.5596C25.7335 19.7202 26.292 19.422 26.4526 18.8936C26.6132 18.3651 26.315 17.8066 25.7866 17.646L25.205 19.5596ZM23.5125 17C22.9602 17 22.5125 17.4477 22.5125 18C22.5125 18.5523 22.9602 19 23.5125 19V17ZM23.5125 19C24.0648 19 24.5125 18.5523 24.5125 18C24.5125 17.4477 24.0648 17 23.5125 17V19ZM22.5125 18C22.5125 18.5523 22.9602 19 23.5125 19C24.0647 19 24.5125 18.5523 24.5125 18H22.5125ZM24.5125 18C24.5125 17.4477 24.0647 17 23.5125 17C22.9602 17 22.5125 17.4477 22.5125 18H24.5125ZM23.0382 17.1196C22.5499 17.3776 22.3632 17.9826 22.6212 18.4709C22.8792 18.9592 23.4842 19.1459 23.9725 18.888L23.0382 17.1196ZM23.9548 18.8973C24.4431 18.6393 24.6298 18.0343 24.3718 17.546C24.1138 17.0577 23.5088 16.871 23.0205 17.1289L23.9548 18.8973ZM23.7593 17.0564C23.2309 16.8957 22.6723 17.1937 22.5115 17.7221C22.3508 18.2504 22.6488 18.8091 23.1771 18.9698L23.7593 17.0564ZM23.1463 18.9605C23.6747 19.1212 24.2333 18.8232 24.3941 18.2948C24.5548 17.7665 24.2568 17.2078 23.7285 17.0471L23.1463 18.9605ZM22.425 18.0103C22.425 18.5626 22.8728 19.0103 23.425 19.0103C23.9773 19.0103 24.425 18.5626 24.425 18.0103H22.425ZM24.425 18.0359C24.425 17.4836 23.9773 17.0359 23.425 17.0359C22.8728 17.0359 22.425 17.4836 22.425 18.0359H24.425ZM21.9468 17.6962C21.4585 17.9542 21.2717 18.5592 21.5297 19.0475C21.7877 19.5358 22.3927 19.7226 22.881 19.4646L21.9468 17.6962ZM20.3532 20.8C20.8416 20.542 21.0283 19.937 20.7703 19.4487C20.5123 18.9604 19.9073 18.7736 19.419 19.0316L20.3532 20.8ZM41.9536 61.016C42.4664 61.2211 43.0483 60.9717 43.2534 60.4589C43.4586 59.9461 43.2091 59.3641 42.6964 59.159L41.9536 61.016ZM42.6964 59.159C42.1836 58.9539 41.6016 59.2033 41.3965 59.7161C41.1914 60.2289 41.4408 60.8109 41.9536 61.016L42.6964 59.159ZM41.325 62.3165C41.325 62.8687 41.7727 63.3165 42.325 63.3165C42.8773 63.3165 43.325 62.8687 43.325 62.3165H41.325ZM43.325 67.8889C43.325 67.3366 42.8773 66.8889 42.325 66.8889C41.7727 66.8889 41.325 67.3366 41.325 67.8889H43.325ZM39.9545 69.5191C39.4105 69.6148 39.0472 70.1333 39.1429 70.6772C39.2386 71.2211 39.7571 71.5845 40.301 71.4888L39.9545 69.5191ZM34.8085 72.4573C35.3523 72.3613 35.7153 71.8425 35.6192 71.2986C35.5232 70.7548 35.0044 70.3917 34.4605 70.4878L34.8085 72.4573ZM33.4375 67.6541C33.4375 67.1019 32.9897 66.6541 32.4375 66.6541C31.8852 66.6541 31.4375 67.1019 31.4375 67.6541H33.4375ZM31.4375 57.1372C31.4375 57.6895 31.8852 58.1372 32.4375 58.1372C32.9897 58.1372 33.4375 57.6895 33.4375 57.1372H31.4375ZM33.4375 48.7237C33.4375 48.1714 32.9897 47.7237 32.4375 47.7237C31.8852 47.7237 31.4375 48.1714 31.4375 48.7237H33.4375ZM31.4375 38.2068C31.4375 38.7591 31.8852 39.2068 32.4375 39.2068C32.9897 39.2068 33.4375 38.7591 33.4375 38.2068H31.4375ZM34.4589 35.3768C35.0026 35.4739 35.522 35.1118 35.6191 34.5682C35.7162 34.0245 35.3542 33.505 34.8105 33.4079L34.4589 35.3768ZM40.3035 34.3888C39.7598 34.2918 39.2404 34.6538 39.1433 35.1975C39.0462 35.7412 39.4083 36.2606 39.9519 36.3577L40.3035 34.3888ZM41.325 38.0788C41.325 38.6311 41.7727 39.0788 42.325 39.0788C42.8772 39.0788 43.325 38.6311 43.325 38.0788H41.325ZM43.325 43.8618C43.325 43.3095 42.8772 42.8618 42.325 42.8618C41.7727 42.8618 41.325 43.3095 41.325 43.8618H43.325ZM44.038 47.3082C44.5887 47.3501 45.0691 46.9377 45.111 46.387C45.1529 45.8363 44.7404 45.3559 44.1897 45.314L44.038 47.3082ZM48.6619 45.6543C48.1112 45.6124 47.6308 46.0248 47.5889 46.5755C47.547 47.1262 47.9595 47.6066 48.5102 47.6485L48.6619 45.6543ZM50.4823 47.7825C51.0333 47.7447 51.4493 47.2673 51.4115 46.7164C51.3737 46.1654 50.8964 45.7494 50.3454 45.7872L50.4823 47.7825ZM50.4426 45.7805C49.8916 45.8183 49.4756 46.2956 49.5135 46.8466C49.5513 47.3976 50.0286 47.8136 50.5796 47.7758L50.4426 45.7805ZM49.55 49.6003C49.55 50.1525 49.9977 50.6003 50.55 50.6003C51.1023 50.6003 51.55 50.1525 51.55 49.6003H49.55ZM51.55 56.6622C51.55 56.1099 51.1023 55.6622 50.55 55.6622C49.9977 55.6622 49.55 56.1099 49.55 56.6622H51.55ZM50.5796 58.4867C50.0286 58.4489 49.5513 58.8649 49.5135 59.4159C49.4756 59.9669 49.8917 60.4442 50.4426 60.482L50.5796 58.4867ZM50.3454 60.4753C50.8964 60.5131 51.3737 60.0971 51.4115 59.5461C51.4493 58.9951 51.0333 58.5178 50.4823 58.48L50.3454 60.4753ZM48.5102 58.614C47.9595 58.6559 47.547 59.1363 47.5889 59.687C47.6308 60.2377 48.1112 60.6501 48.6619 60.6082L48.5102 58.614ZM44.1897 60.9485C44.7404 60.9066 45.1529 60.4262 45.111 59.8755C45.0691 59.3248 44.5887 58.9124 44.038 58.9543L44.1897 60.9485ZM17.875 20.45V21.1749H19.875V20.45H17.875ZM17.875 22.9871V23.712H19.875V22.9871H17.875ZM19.1084 22.7396L18.2048 22.5228L17.738 24.4675L18.6416 24.6844L19.1084 22.7396ZM15.9458 21.9806L15.0422 21.7637L14.5754 23.7085L15.479 23.9254L15.9458 21.9806ZM15.714 22.3112L15.7037 22.2893L13.8933 23.1392L13.9036 23.1611L15.714 22.3112ZM15.678 22.2345L15.6677 22.2126L13.8573 23.0625L13.8676 23.0844L15.678 22.2345ZM14.2908 21.7557L13.4547 22.2029L14.398 23.9665L15.2342 23.5193L14.2908 21.7557ZM11.3645 23.321L10.5283 23.7682L11.4717 25.5318L12.3078 25.0846L11.3645 23.321ZM10 24.65V28.8435H12V24.65H10ZM10 39.3273V47.7144H12V39.3273H10ZM10 58.1982V66.5852H12V58.1982H10ZM10 77.069V81.2625H12V77.069H10ZM10.5283 82.1443L11.3645 82.5915L12.3078 80.8279L11.4717 80.3807L10.5283 82.1443ZM13.4547 83.7096L14.2908 84.1568L15.2342 82.3932L14.398 81.946L13.4547 83.7096ZM15.005 84.2451L15.9189 84.0167L15.4339 82.0764L14.52 82.3049L15.005 84.2451ZM18.2036 83.4455L19.1175 83.217L18.6325 81.2767L17.7186 81.5052L18.2036 83.4455ZM17.875 82.2469V82.9809H19.875V82.2469H17.875ZM17.875 84.816V85.55H19.875V84.816H17.875ZM18.4079 86.4342L19.419 86.9684L20.3532 85.2L19.3421 84.6658L18.4079 86.4342ZM21.9468 88.3038L22.9579 88.838L23.8922 87.0696L22.881 86.5354L21.9468 88.3038ZM22.425 87.9538V87.9641H24.425V87.9538H22.425ZM22.425 87.9897V88H24.425V87.9897H22.425ZM23.7148 88.9571L23.7271 88.9534L23.1477 87.0392L23.1353 87.0429L23.7148 88.9571ZM23.758 88.944L23.7704 88.9403L23.1909 87.0261L23.1786 87.0298L23.758 88.944ZM23.0135 88.8673L23.0206 88.8711L23.9549 87.1027L23.9478 87.099L23.0135 88.8673ZM23.0383 88.8804L23.0453 88.8842L23.9797 87.1158L23.9726 87.1121L23.0383 88.8804ZM23.8033 88.9568L25.7866 88.354L25.205 86.4404L23.2217 87.0432L23.8033 88.9568ZM30.7449 86.8471L32.7283 86.2443L32.1467 84.3307L30.1633 84.9335L30.7449 86.8471ZM33.4375 85.2875V85.2841H31.4375V85.2875H33.4375ZM33.4375 85.2755V85.272H31.4375V85.2755H33.4375ZM32.7272 86.2291L38.0549 84.6165L37.4755 82.7022L32.1478 84.3149L32.7272 86.2291ZM51.3744 80.5848L56.7021 78.9721L56.1227 77.0579L50.795 78.6706L51.3744 80.5848ZM55.4124 78.015V78.0172H57.4124V78.015H55.4124ZM55.4124 78.0228V78.025H57.4124V78.0228H55.4124ZM56.6924 78.985L56.7552 78.9667L56.1953 77.0467L56.1324 77.065L56.6924 78.985ZM56.9123 78.9209L56.9751 78.9025L56.4151 76.9825L56.3523 77.0009L56.9123 78.9209ZM56.4526 78.9127L57.0703 79.0671L57.5554 77.1268L56.9376 76.9724L56.4526 78.9127ZM58.6147 79.4532L59.2324 79.6076L59.7175 77.6674L59.0998 77.5129L58.6147 79.4532ZM59.1587 79.5862H59.1588L59.7912 77.6888L59.7912 77.6888L59.1587 79.5862ZM59.1588 79.5862L59.1588 79.5862L59.7912 77.6888H59.7912L59.1588 79.5862ZM60.3942 79.0314L60.3942 79.0314L58.5559 78.2436V78.2436L60.3942 79.0314ZM60.3942 79.0314V79.0314L58.5559 78.2436L58.5559 78.2436L60.3942 79.0314ZM59.7798 79.5899L61.7242 78.9677L61.1147 77.0628L59.1702 77.6851L59.7798 79.5899ZM66.5853 77.4121L68.5298 76.7899L67.9202 74.8851L65.9758 75.5073L66.5853 77.4121ZM69.225 75.8375V75.0788H67.225V75.8375H69.225ZM69.225 73.1819V72.4232H67.225V73.1819H69.225ZM68.0523 73.4082L69.6079 73.6808L69.9532 71.7108L68.3976 71.4382L68.0523 73.4082ZM73.4968 74.3624L75.0523 74.635L75.3976 72.665L73.842 72.3924L73.4968 74.3624ZM75.5282 74.6029L76.8115 74.1946L76.2051 72.2887L74.9218 72.6971L75.5282 74.6029ZM80.0198 73.1738L81.3032 72.7654L80.6968 70.8596L79.4134 71.2679L80.0198 73.1738ZM82 71.8125L82 69.0514L80 69.0514L80 71.8125H82ZM82 62.1486L82 59.3875H80L80 62.1486L82 62.1486ZM81.052 58.3889L77.3186 58.1944L77.2146 60.1917L80.9479 60.3861L81.052 58.3889ZM67.9853 57.7083L64.252 57.5138L64.1479 59.5111L67.8813 59.7056L67.9853 57.7083ZM64.1266 57.5152L63.7961 57.5395L63.9427 59.5341L64.2733 59.5098L64.1266 57.5152ZM62.9697 57.6002L62.6391 57.6245L62.7858 59.6192L63.1163 59.5949L62.9697 57.6002ZM63.7124 58.6219V56.1816H61.7124V58.6219H63.7124ZM63.7124 50.0809V47.6406H61.7124V50.0809H63.7124ZM62.6391 48.6379L62.9697 48.6622L63.1163 46.6676L62.7858 46.6433L62.6391 48.6379ZM63.7961 48.723L64.1267 48.7473L64.2733 46.7527L63.9428 46.7284L63.7961 48.723ZM64.252 48.7486L67.9853 48.5542L67.8813 46.5569L64.148 46.7513L64.252 48.7486ZM77.3187 48.0681L81.052 47.8736L80.948 45.8763L77.2147 46.0708L77.3187 48.0681ZM82 46.875L82 44.1139L80 44.1139L80 46.875L82 46.875ZM82 37.2111L82 34.45L80 34.45L80 37.2111L82 37.2111ZM81.3032 33.4971L80.0199 33.0887L79.4134 34.9946L80.6968 35.4029L81.3032 33.4971ZM76.8115 32.0679L75.5282 31.6596L74.9218 33.5654L76.2051 33.9737L76.8115 32.0679ZM75.0524 31.6275L73.4968 31.9001L73.8421 33.8701L75.3976 33.5975L75.0524 31.6275ZM69.6079 32.5817L68.0523 32.8543L68.3976 34.8243L69.9532 34.5517L69.6079 32.5817ZM69.225 33.8393V33.0806H67.225V33.8393H69.225ZM69.225 31.1837V30.425H67.225V31.1837H69.225ZM68.5298 29.4726L66.5853 28.8504L65.9757 30.7552L67.9202 31.3774L68.5298 29.4726ZM61.7242 27.2948L59.7797 26.6726L59.1702 28.5774L61.1146 29.1996L61.7242 27.2948ZM59.2324 26.6549L58.7224 26.7824L59.2074 28.7227L59.7175 28.5951L59.2324 26.6549ZM57.4473 27.1011L56.9372 27.2287L57.4223 29.1689L57.9324 29.0414L57.4473 27.1011ZM57.4598 27.2388L57.2893 27.1891L56.7293 29.1091L56.8998 29.1588L57.4598 27.2388ZM56.863 27.0647L56.6924 27.015L56.1324 28.935L56.303 28.9847L56.863 27.0647ZM55.4124 27.975V27.9886H57.4124V27.975H55.4124ZM55.4124 28.0228V28.0364H57.4124V28.0228H55.4124ZM56.7035 27.0797L51.3757 25.4588L50.7936 27.3722L56.1214 28.9931L56.7035 27.0797ZM38.0563 21.4063L32.7285 19.7853L32.1464 21.6987L37.4742 23.3197L38.0563 21.4063ZM33.4375 20.742V20.7355H31.4375V20.742H33.4375ZM33.4375 20.7191V20.7125H31.4375V20.7191H33.4375ZM32.7283 19.7557L30.7449 19.1529L30.1633 21.0665L32.1467 21.6693L32.7283 19.7557ZM25.7866 17.646L23.8033 17.0432L23.2217 18.9568L25.205 19.5596L25.7866 17.646ZM23.5125 17H23.5125V19H23.5125V17ZM23.5125 17H23.5125V19H23.5125V17ZM22.5125 18V18H24.5125V18H22.5125ZM22.5125 18V18H24.5125V18H22.5125ZM23.0453 17.1158L23.0382 17.1196L23.9725 18.888L23.9796 18.8842L23.0453 17.1158ZM23.0205 17.1289L23.0134 17.1327L23.9477 18.9011L23.9548 18.8973L23.0205 17.1289ZM23.7716 17.0602L23.7593 17.0564L23.1771 18.9698L23.1895 18.9736L23.7716 17.0602ZM23.7285 17.0471L23.7161 17.0433L23.134 18.9567L23.1463 18.9605L23.7285 17.0471ZM22.425 18V18.0103H24.425V18H22.425ZM22.425 18.0359V18.0462H24.425V18.0359H22.425ZM22.9579 17.162L21.9468 17.6962L22.881 19.4646L23.8922 18.9304L22.9579 17.162ZM19.419 19.0316L18.4079 19.5658L19.3421 21.3342L20.3532 20.8L19.419 19.0316ZM41.9536 61.016L41.9536 61.016L42.6964 59.159L42.6963 59.159L41.9536 61.016ZM41.9536 61.016L41.9536 61.016L42.6964 59.159L42.6964 59.159L41.9536 61.016ZM41.325 60.0875V62.3165H43.325V60.0875H41.325ZM41.325 67.8889V70.1178H43.325V67.8889H41.325ZM42.1522 69.1329C41.4401 69.2578 40.7046 69.3871 39.9545 69.5191L40.301 71.4888C41.0509 71.3569 41.7861 71.2277 42.4979 71.1028L42.1522 69.1329ZM34.4605 70.4878C33.7195 70.6187 32.9844 70.7487 32.2633 70.8762L32.6116 72.8456C33.3326 72.7181 34.0675 72.5882 34.8085 72.4573L34.4605 70.4878ZM33.4375 71.8609V67.6541H31.4375V71.8609H33.4375ZM33.4375 57.1372V48.7237H31.4375V57.1372H33.4375ZM33.4375 38.2068V34H31.4375V38.2068H33.4375ZM32.2617 34.9844L34.4589 35.3768L34.8105 33.4079L32.6133 33.0156L32.2617 34.9844ZM39.9519 36.3577L42.1492 36.7501L42.5007 34.7812L40.3035 34.3888L39.9519 36.3577ZM41.325 35.7656V38.0788H43.325V35.7656H41.325ZM41.325 43.8618V46.175H43.325V43.8618H41.325ZM42.2491 47.1721L44.038 47.3082L44.1897 45.314L42.4008 45.1779L42.2491 47.1721ZM48.5102 47.6485L50.2991 47.7846L50.4508 45.7904L48.6619 45.6543L48.5102 47.6485ZM50.4434 47.7852L50.4823 47.7825L50.3454 45.7872L50.3065 45.7898L50.4434 47.7852ZM50.5796 47.7758L50.6185 47.7731L50.4815 45.7778L50.4426 45.7805L50.5796 47.7758ZM49.55 46.7755V49.6003H51.55V46.7755H49.55ZM49.55 56.6622V59.487H51.55V56.6622H49.55ZM50.6185 58.4893L50.5796 58.4867L50.4426 60.482L50.4815 60.4846L50.6185 58.4893ZM50.4823 58.48L50.4434 58.4773L50.3065 60.4726L50.3454 60.4753L50.4823 58.48ZM50.2991 58.4779L48.5102 58.614L48.6619 60.6082L50.4508 60.4721L50.2991 58.4779ZM44.038 58.9543L42.2491 59.0904L42.4008 61.0846L44.1897 60.9485L44.038 58.9543Z" fill="black" mask="url(#path-1-inside-1)"/>
<path d="M11.655 13.505L8 15.46V70.455L11.655 72.41L26.02 44.105L11.655 13.505ZM22.705 23.45L28.06 15.29L52.115 26.765L46.505 27.7L22.705 23.45ZM18.54 63.145L24.405 71.815L52.03 59.065L46.675 58.215C46.76 58.13 18.54 63.145 18.54 63.145Z" fill="#9D5025"/>
<path d="M20.1549 70.285L11.6549 72.41V13.59L20.1549 15.63V70.285Z" fill="#F58536"/>
<path d="M15.65 11.38L20.155 9L28.57 46.825L20.155 77L15.65 74.62V11.38ZM46.42 58.045L52.03 58.98L57.3 43.595L52.115 26.765L46.42 27.7V58.045Z" fill="#9D5025"/>
<path d="M28.8249 74.365L20.1549 77V9L28.8249 11.635V74.365Z" fill="#F58536"/>
<path d="M57.9801 57.79L20.0701 65.355V77L57.9801 65.525V57.79ZM58.0651 27.955L20.0701 20.22V9L58.0651 20.56V27.955Z" fill="#F58536"/>
<path d="M52.115 18.69L58.235 20.475V65.525L52.115 67.31V18.69Z" fill="#F58536"/>
<path d="M76 37.05L59.68 37.9L53.9 37.475L70.39 23.28L76 37.05Z" fill="#6B3A19"/>
<path d="M53.9 37.475L70.39 36.455V23.195L53.9 26.085V37.475Z" fill="#9D5025"/>
<path d="M38.4299 36.37L55.0899 18.35L63.5899 35.775L46.2499 36.965L38.4299 36.37Z" fill="#6B3A19"/>
<path d="M38.4299 36.37L55.0899 34.84V18.35L38.4299 22.515V36.37ZM53.8999 48.78L75.9999 49.205L70.3899 63.06L53.8999 60.17V48.78Z" fill="#9D5025"/>
<path d="M38.4299 49.885L63.5899 50.48L55.0899 67.905L38.4299 63.74V49.885Z" fill="#9D5025"/>
<path d="M38.4299 49.885L55.0899 51.415L63.5899 50.48L46.2499 49.29L38.4299 49.885ZM75.9999 49.205L59.6799 48.355L53.8999 48.78L70.3899 49.8L75.9999 49.205Z" fill="#FBBF93"/>
<path d="M70.39 36.455L76 37.05V24.98L70.39 23.195V36.455ZM63.59 35.775L55.09 34.84V18.35L63.59 21.07V35.775ZM70.39 49.8L76 49.205V61.275L70.39 63.06V49.8ZM63.59 50.48L55.09 51.415V67.905L63.59 65.185V50.48Z" fill="#F58536"/>
</svg>
