<svg width="88" height="88" viewBox="0 0 88 88" fill="none" xmlns="http://www.w3.org/2000/svg">
<mask id="path-1-inside-1" fill="white">
<path fill-rule="evenodd" clip-rule="evenodd" d="M16 27.7322V36.6384V36.6396L16.0029 36.6388L40.6519 39.7036L33.9444 40.6711V59.4823L40.1192 60.3868L16.2034 63.3604L16.3306 63.46L16.0001 63.3615V72.2677L47.6662 87.9996L47.6667 88L79.3334 72.2678V63.3615L79.0031 63.46L79.1302 63.3604L55.2135 60.3869L61.389 59.4823V40.6711L54.5355 39.6826L79.3334 36.6396V27.7322L47.6667 12L16 27.7322Z"/>
</mask>
<path fill-rule="evenodd" clip-rule="evenodd" d="M16 27.7322V36.6384V36.6396L16.0029 36.6388L40.6519 39.7036L33.9444 40.6711V59.4823L40.1192 60.3868L16.2034 63.3604L16.3306 63.46L16.0001 63.3615V72.2677L47.6662 87.9996L47.6667 88L79.3334 72.2678V63.3615L79.0031 63.46L79.1302 63.3604L55.2135 60.3869L61.389 59.4823V40.6711L54.5355 39.6826L79.3334 36.6396V27.7322L47.6667 12L16 27.7322Z" fill="#F7F7FE"/>
<path d="M16 27.7322L15.7775 27.2844C15.6075 27.3688 15.5 27.5423 15.5 27.7322H16ZM16 36.6396H15.5C15.5 36.7975 15.5746 36.9462 15.7012 37.0405C15.8278 37.1349 15.9915 37.1639 16.1428 37.1188L16 36.6396ZM16.0029 36.6388L16.0646 36.1426C15.996 36.1341 15.9264 36.1399 15.8601 36.1596L16.0029 36.6388ZM40.6519 39.7036L40.7233 40.1985C40.9712 40.1628 41.1543 39.9492 41.1519 39.6988C41.1495 39.4483 40.9621 39.2384 40.7136 39.2075L40.6519 39.7036ZM33.9444 40.6711L33.873 40.1762C33.627 40.2117 33.4444 40.4225 33.4444 40.6711H33.9444ZM33.9444 59.4823H33.4444C33.4444 59.7305 33.6264 59.9411 33.872 59.977L33.9444 59.4823ZM40.1192 60.3868L40.1809 60.883C40.4292 60.8521 40.6165 60.6425 40.6192 60.3923C40.6219 60.142 40.4393 59.9284 40.1917 59.8921L40.1192 60.3868ZM16.2034 63.3604L16.1417 62.8642C15.9412 62.8891 15.7755 63.0322 15.7215 63.2268C15.6676 63.4215 15.7361 63.6295 15.8951 63.754L16.2034 63.3604ZM16.3306 63.46L16.1878 63.9391C16.418 64.0078 16.6645 63.9029 16.7748 63.6895C16.885 63.4761 16.828 63.2144 16.6388 63.0663L16.3306 63.46ZM16.0001 63.3615L16.1429 62.8823C15.9916 62.8372 15.8278 62.8662 15.7012 62.9606C15.5746 63.055 15.5001 63.2036 15.5001 63.3615H16.0001ZM16.0001 72.2677H15.5001C15.5001 72.4576 15.6076 72.631 15.7776 72.7155L16.0001 72.2677ZM47.6662 87.9996L47.9757 87.6069C47.9487 87.5856 47.9195 87.5671 47.8886 87.5518L47.6662 87.9996ZM47.6667 88L47.3571 88.3927C47.5089 88.5123 47.7161 88.5338 47.8891 88.4478L47.6667 88ZM79.3334 72.2678L79.5558 72.7156C79.7258 72.6311 79.8334 72.4576 79.8334 72.2678H79.3334ZM79.3334 63.3615H79.8334C79.8334 63.2036 79.7588 63.055 79.6322 62.9606C79.5056 62.8663 79.3419 62.8372 79.1905 62.8823L79.3334 63.3615ZM79.0031 63.46L78.6948 63.0663C78.5057 63.2144 78.4486 63.4761 78.5589 63.6895C78.6692 63.9029 78.9157 64.0077 79.1459 63.9391L79.0031 63.46ZM79.1302 63.3604L79.4385 63.754C79.5975 63.6295 79.666 63.4215 79.6121 63.2268C79.5581 63.0322 79.3924 62.8891 79.1919 62.8642L79.1302 63.3604ZM55.2135 60.3869L55.141 59.8922C54.8935 59.9285 54.7108 60.1422 54.7135 60.3924C54.7163 60.6426 54.9035 60.8522 55.1518 60.8831L55.2135 60.3869ZM61.389 59.4823L61.4615 59.977C61.707 59.9411 61.889 59.7305 61.889 59.4823H61.389ZM61.389 40.6711H61.889C61.889 40.4225 61.7064 40.2117 61.4604 40.1762L61.389 40.6711ZM54.5355 39.6826L54.4746 39.1863C54.2259 39.2168 54.0381 39.4267 54.0355 39.6773C54.0328 39.9278 54.2161 40.1417 54.4641 40.1774L54.5355 39.6826ZM79.3334 36.6396L79.3943 37.1359C79.645 37.1052 79.8334 36.8922 79.8334 36.6396H79.3334ZM79.3334 27.7322H79.8334C79.8334 27.5423 79.7258 27.3688 79.5558 27.2844L79.3334 27.7322ZM47.6667 12L47.8891 11.5522C47.749 11.4826 47.5844 11.4826 47.4442 11.5522L47.6667 12ZM16.5 34.6592C16.5 34.3831 16.2761 34.1592 16 34.1592C15.7239 34.1592 15.5 34.3831 15.5 34.6592H16.5ZM15.5 29.7113C15.5 29.9875 15.7239 30.2113 16 30.2113C16.2761 30.2113 16.5 29.9875 16.5 29.7113H15.5ZM19.741 26.4319C19.9883 26.3091 20.0892 26.009 19.9663 25.7617C19.8434 25.5144 19.5434 25.4135 19.2961 25.5364L19.741 26.4319ZM28.0924 21.1663C27.8451 21.2892 27.7442 21.5893 27.867 21.8366C27.9899 22.0839 28.29 22.1847 28.5373 22.0619L28.0924 21.1663ZM35.5743 18.5658C35.8216 18.443 35.9225 18.1429 35.7996 17.8956C35.6768 17.6483 35.3767 17.5474 35.1294 17.6703L35.5743 18.5658ZM43.9257 13.3002C43.6784 13.4231 43.5775 13.7232 43.7004 13.9705C43.8232 14.2178 44.1233 14.3187 44.3706 14.1958L43.9257 13.3002ZM50.9627 14.1958C51.21 14.3187 51.5101 14.2178 51.633 13.9705C51.7558 13.7232 51.655 13.4231 51.4077 13.3002L50.9627 14.1958ZM60.204 17.6703C59.9567 17.5474 59.6566 17.6483 59.5337 17.8956C59.4109 18.1429 59.5117 18.443 59.759 18.5658L60.204 17.6703ZM66.7961 22.0619C67.0434 22.1847 67.3435 22.0839 67.4663 21.8366C67.5892 21.5892 67.4883 21.2892 67.241 21.1663L66.7961 22.0619ZM76.0373 25.5364C75.79 25.4135 75.4899 25.5144 75.3671 25.7617C75.2442 26.009 75.3451 26.3091 75.5924 26.4319L76.0373 25.5364ZM78.8334 29.7116C78.8334 29.9877 79.0572 30.2116 79.3334 30.2116C79.6095 30.2116 79.8334 29.9877 79.8334 29.7116H78.8334ZM79.8334 34.6602C79.8334 34.3841 79.6095 34.1602 79.3334 34.1602C79.0572 34.1602 78.8334 34.3841 78.8334 34.6602H79.8334ZM73.7618 36.8196C73.4877 36.8532 73.2928 37.1027 73.3264 37.3767C73.3601 37.6508 73.6095 37.8458 73.8836 37.8121L73.7618 36.8196ZM60.107 39.5026C60.3811 39.469 60.576 39.2196 60.5424 38.9455C60.5088 38.6714 60.2593 38.4765 59.9852 38.5101L60.107 39.5026ZM55.9871 40.3971C56.2604 40.4365 56.5139 40.2469 56.5534 39.9736C56.5928 39.7003 56.4032 39.4468 56.1299 39.4074L55.9871 40.3971ZM59.9374 39.9565C59.6641 39.9171 59.4106 40.1067 59.3712 40.38C59.3317 40.6533 59.5213 40.9069 59.7947 40.9463L59.9374 39.9565ZM60.889 44.8513C60.889 45.1275 61.1129 45.3513 61.389 45.3513C61.6652 45.3513 61.889 45.1275 61.889 44.8513H60.889ZM61.889 55.302C61.889 55.0259 61.6652 54.802 61.389 54.802C61.1129 54.802 60.889 55.0259 60.889 55.302H61.889ZM59.9442 59.1886C59.671 59.2286 59.482 59.4826 59.522 59.7558C59.562 60.029 59.8159 60.2181 60.0892 60.1781L59.9442 59.1886ZM56.6583 60.6806C56.9315 60.6406 57.1206 60.3867 57.0806 60.1134C57.0405 59.8402 56.7866 59.6511 56.5134 59.6912L56.6583 60.6806ZM60.4667 61.5439C60.7407 61.5779 60.9905 61.3834 61.0245 61.1094C61.0586 60.8353 60.8641 60.5856 60.59 60.5515L60.4667 61.5439ZM73.8771 62.2034C73.6031 62.1693 73.3533 62.3639 73.3192 62.6379C73.2852 62.9119 73.4797 63.1617 73.7537 63.1958L73.8771 62.2034ZM78.7937 62.9888C78.5763 63.1591 78.5381 63.4734 78.7083 63.6908C78.8786 63.9082 79.1928 63.9464 79.4103 63.7761L78.7937 62.9888ZM79.3396 63.8315C79.557 63.6612 79.5952 63.347 79.425 63.1295C79.2547 62.9121 78.9405 62.8739 78.7231 63.0442L79.3396 63.8315ZM79.2193 63.9172C79.4839 63.8384 79.6345 63.5599 79.5556 63.2953C79.4768 63.0306 79.1983 62.88 78.9337 62.9589L79.2193 63.9172ZM79.1171 62.9042C78.8525 62.9831 78.7019 63.2616 78.7808 63.5262C78.8597 63.7908 79.1381 63.9414 79.4028 63.8626L79.1171 62.9042ZM78.8334 65.3407C78.8334 65.6168 79.0572 65.8407 79.3334 65.8407C79.6095 65.8407 79.8334 65.6168 79.8334 65.3407H78.8334ZM79.8334 70.2886C79.8334 70.0125 79.6095 69.7886 79.3334 69.7886C79.0572 69.7886 78.8334 70.0125 78.8334 70.2886H79.8334ZM75.5924 73.568C75.3451 73.6909 75.2442 73.991 75.3671 74.2383C75.4899 74.4856 75.79 74.5864 76.0373 74.4636L75.5924 73.568ZM67.241 78.8336C67.4883 78.7108 67.5892 78.4107 67.4663 78.1634C67.3435 77.9161 67.0434 77.8152 66.7961 77.9381L67.241 78.8336ZM59.759 81.4341C59.5117 81.557 59.4109 81.8571 59.5337 82.1044C59.6566 82.3517 59.9567 82.4526 60.204 82.3297L59.759 81.4341ZM51.4077 86.6998C51.655 86.5769 51.7558 86.2768 51.633 86.0295C51.5101 85.7822 51.21 85.6813 50.9627 85.8042L51.4077 86.6998ZM47.9761 87.6072C47.7592 87.4363 47.4449 87.4735 47.2739 87.6904C47.1029 87.9072 47.1402 88.2216 47.357 88.3926L47.9761 87.6072ZM47.3567 88.3923C47.5736 88.5633 47.888 88.5261 48.0589 88.3092C48.2299 88.0924 48.1927 87.778 47.9758 87.607L47.3567 88.3923ZM44.3702 85.8038C44.1229 85.681 43.8228 85.7818 43.6999 86.0291C43.5771 86.2764 43.6779 86.5765 43.9252 86.6994L44.3702 85.8038ZM35.1291 82.3294C35.3764 82.4523 35.6765 82.3514 35.7994 82.1041C35.9222 81.8568 35.8213 81.5567 35.574 81.4339L35.1291 82.3294ZM28.5371 77.9379C28.2898 77.815 27.9897 77.9159 27.8669 78.1632C27.744 78.4105 27.8449 78.7106 28.0922 78.8335L28.5371 77.9379ZM19.2961 74.4635C19.5434 74.5864 19.8434 74.4855 19.9663 74.2382C20.0892 73.9909 19.9883 73.6908 19.741 73.5679L19.2961 74.4635ZM16.5001 70.2886C16.5001 70.0124 16.2762 69.7886 16.0001 69.7886C15.7239 69.7886 15.5001 70.0124 15.5001 70.2886H16.5001ZM15.5001 65.3406C15.5001 65.6168 15.7239 65.8406 16.0001 65.8406C16.2762 65.8406 16.5001 65.6168 16.5001 65.3406H15.5001ZM15.9307 63.8625C16.1953 63.9414 16.4738 63.7908 16.5527 63.5262C16.6315 63.2615 16.481 62.9831 16.2163 62.9042L15.9307 63.8625ZM16.3999 62.9589C16.1353 62.88 15.8568 63.0306 15.7779 63.2953C15.6991 63.5599 15.8497 63.8384 16.1143 63.9173L16.3999 62.9589ZM16.6106 63.0442C16.3932 62.8739 16.0789 62.9121 15.9086 63.1296C15.7384 63.347 15.7766 63.6612 15.994 63.8315L16.6106 63.0442ZM15.9234 63.7761C16.1408 63.9464 16.455 63.9082 16.6253 63.6908C16.7955 63.4734 16.7573 63.1591 16.5399 62.9888L15.9234 63.7761ZM21.5797 63.1958C21.8537 63.1617 22.0483 62.9119 22.0142 62.6379C21.9801 62.3638 21.7303 62.1693 21.4563 62.2034L21.5797 63.1958ZM34.7429 60.5514C34.4689 60.5855 34.2744 60.8353 34.3084 61.1093C34.3425 61.3833 34.5923 61.5779 34.8663 61.5438L34.7429 60.5514ZM38.8195 59.6911C38.5463 59.6511 38.2924 59.8401 38.2523 60.1133C38.2123 60.3866 38.4014 60.6405 38.6746 60.6805L38.8195 59.6911ZM35.2441 60.178C35.5174 60.218 35.7713 60.029 35.8113 59.7558C35.8513 59.4825 35.6623 59.2286 35.3891 59.1886L35.2441 60.178ZM34.4444 55.302C34.4444 55.0259 34.2206 54.802 33.9444 54.802C33.6683 54.802 33.4444 55.0259 33.4444 55.302H34.4444ZM33.4444 44.8513C33.4444 45.1275 33.6683 45.3513 33.9444 45.3513C34.2206 45.3513 34.4444 45.1275 34.4444 44.8513H33.4444ZM35.5063 40.951C35.7797 40.9115 35.9693 40.658 35.9299 40.3847C35.8904 40.1114 35.6369 39.9218 35.3636 39.9612L35.5063 40.951ZM39.09 39.4237C38.8167 39.4632 38.6271 39.7167 38.6665 39.99C38.7059 40.2633 38.9594 40.4529 39.2327 40.4135L39.09 39.4237ZM35.2361 38.5264C34.962 38.4923 34.7123 38.6868 34.6782 38.9609C34.6441 39.2349 34.8386 39.4847 35.1127 39.5187L35.2361 38.5264ZM21.4188 37.816C21.6928 37.8501 21.9426 37.6556 21.9767 37.3815C22.0107 37.1075 21.8162 36.8577 21.5422 36.8237L21.4188 37.816ZM15.8594 36.1598C15.5948 36.2387 15.4442 36.5172 15.5231 36.7818C15.602 37.0464 15.8805 37.197 16.1451 37.1181L15.8594 36.1598ZM16.1435 37.1186C16.4081 37.0397 16.5587 36.7612 16.4798 36.4966C16.4009 36.232 16.1224 36.0814 15.8578 36.1603L16.1435 37.1186ZM16.5 36.6394C16.5 36.3632 16.2761 36.1394 16 36.1394C15.7239 36.1394 15.5 36.3632 15.5 36.6394H16.5ZM15.5 36.6387C15.5 36.9148 15.7239 37.1387 16 37.1387C16.2761 37.1387 16.5 36.9148 16.5 36.6387H15.5ZM16.5 36.6384V34.6592H15.5V36.6384H16.5ZM16.5 29.7113V27.7322H15.5V29.7113H16.5ZM16.2225 28.1799L19.741 26.4319L19.2961 25.5364L15.7775 27.2844L16.2225 28.1799ZM28.5373 22.0619L35.5743 18.5658L35.1294 17.6703L28.0924 21.1663L28.5373 22.0619ZM44.3706 14.1958L47.8891 12.4478L47.4442 11.5522L43.9257 13.3002L44.3706 14.1958ZM47.4442 12.4478L50.9627 14.1958L51.4077 13.3002L47.8891 11.5522L47.4442 12.4478ZM59.759 18.5658L66.7961 22.0619L67.241 21.1663L60.204 17.6703L59.759 18.5658ZM75.5924 26.4319L79.1109 28.1799L79.5558 27.2844L76.0373 25.5364L75.5924 26.4319ZM78.8334 27.7322V29.7116H79.8334V27.7322H78.8334ZM78.8334 34.6602V36.6396H79.8334V34.6602H78.8334ZM79.2725 36.1434L73.7618 36.8196L73.8836 37.8121L79.3943 37.1359L79.2725 36.1434ZM59.9852 38.5101L54.4746 39.1863L54.5964 40.1788L60.107 39.5026L59.9852 38.5101ZM54.4641 40.1774L55.9871 40.3971L56.1299 39.4074L54.6068 39.1877L54.4641 40.1774ZM59.7947 40.9463L61.3177 41.1659L61.4604 40.1762L59.9374 39.9565L59.7947 40.9463ZM60.889 40.6711V44.8513H61.889V40.6711H60.889ZM60.889 55.302V59.4823H61.889V55.302H60.889ZM61.3166 58.9876L59.9442 59.1886L60.0892 60.1781L61.4615 59.977L61.3166 58.9876ZM56.5134 59.6912L55.141 59.8922L55.286 60.8816L56.6583 60.6806L56.5134 59.6912ZM55.1518 60.8831L60.4667 61.5439L60.59 60.5515L55.2752 59.8907L55.1518 60.8831ZM73.7537 63.1958L79.0686 63.8565L79.1919 62.8642L73.8771 62.2034L73.7537 63.1958ZM78.822 62.9667L78.7937 62.9888L79.4103 63.7761L79.4385 63.754L78.822 62.9667ZM78.7231 63.0442L78.6948 63.0663L79.3113 63.8536L79.3396 63.8315L78.7231 63.0442ZM79.1459 63.9391L79.2193 63.9172L78.9337 62.9589L78.8603 62.9808L79.1459 63.9391ZM79.4028 63.8626L79.4762 63.8407L79.1905 62.8823L79.1171 62.9042L79.4028 63.8626ZM78.8334 63.3615V65.3407H79.8334V63.3615H78.8334ZM78.8334 70.2886V72.2678H79.8334V70.2886H78.8334ZM79.1109 71.82L75.5924 73.568L76.0373 74.4636L79.5558 72.7156L79.1109 71.82ZM66.7961 77.9381L59.759 81.4341L60.204 82.3297L67.241 78.8336L66.7961 77.9381ZM50.9627 85.8042L47.4442 87.5522L47.8891 88.4478L51.4077 86.6998L50.9627 85.8042ZM47.9762 87.6073L47.9761 87.6072L47.357 88.3926L47.3571 88.3927L47.9762 87.6073ZM47.9758 87.607L47.9757 87.6069L47.3566 88.3923L47.3567 88.3923L47.9758 87.607ZM47.8886 87.5518L44.3702 85.8038L43.9252 86.6994L47.4437 88.4474L47.8886 87.5518ZM35.574 81.4339L28.5371 77.9379L28.0922 78.8335L35.1291 82.3294L35.574 81.4339ZM19.741 73.5679L16.2225 71.8199L15.7776 72.7155L19.2961 74.4635L19.741 73.5679ZM16.5001 72.2677V70.2886H15.5001V72.2677H16.5001ZM16.5001 65.3406V63.3615H15.5001V65.3406H16.5001ZM15.8572 63.8406L15.9307 63.8625L16.2163 62.9042L16.1429 62.8823L15.8572 63.8406ZM16.1143 63.9173L16.1878 63.9391L16.4734 62.9808L16.3999 62.9589L16.1143 63.9173ZM16.6388 63.0663L16.6106 63.0442L15.994 63.8315L16.0223 63.8536L16.6388 63.0663ZM16.5399 62.9888L16.5116 62.9667L15.8951 63.754L15.9234 63.7761L16.5399 62.9888ZM16.2651 63.8565L21.5797 63.1958L21.4563 62.2034L16.1417 62.8642L16.2651 63.8565ZM34.8663 61.5438L40.1809 60.883L40.0576 59.8906L34.7429 60.5514L34.8663 61.5438ZM40.1917 59.8921L38.8195 59.6911L38.6746 60.6805L40.0468 60.8815L40.1917 59.8921ZM35.3891 59.1886L34.0169 58.9876L33.872 59.977L35.2441 60.178L35.3891 59.1886ZM34.4444 59.4823V55.302H33.4444V59.4823H34.4444ZM34.4444 44.8513V40.6711H33.4444V44.8513H34.4444ZM34.0158 41.1659L35.5063 40.951L35.3636 39.9612L33.873 40.1762L34.0158 41.1659ZM39.2327 40.4135L40.7233 40.1985L40.5805 39.2088L39.09 39.4237L39.2327 40.4135ZM40.7136 39.2075L35.2361 38.5264L35.1127 39.5187L40.5902 40.1998L40.7136 39.2075ZM21.5422 36.8237L16.0646 36.1426L15.9412 37.135L21.4188 37.816L21.5422 36.8237ZM15.8601 36.1596L15.8594 36.1598L16.1451 37.1181L16.1458 37.1179L15.8601 36.1596ZM15.8578 36.1603L15.8572 36.1605L16.1428 37.1188L16.1435 37.1186L15.8578 36.1603ZM16.5 36.6396V36.6394H15.5V36.6396H16.5ZM16.5 36.6387V36.6384H15.5V36.6387H16.5ZM16 27.7322L15.5551 26.8366C15.215 27.0055 15 27.3525 15 27.7322H16ZM16 36.6396H15C15 36.9554 15.1492 37.2527 15.4024 37.4414C15.6556 37.6301 15.983 37.6882 16.2857 37.598L16 36.6396ZM16.0029 36.6388L16.1263 35.6464C15.9891 35.6293 15.8498 35.6409 15.7172 35.6804L16.0029 36.6388ZM40.6519 39.7036L40.7947 40.6934C41.2904 40.6219 41.6568 40.1947 41.6519 39.6939C41.647 39.193 41.2723 38.7731 40.7753 38.7113L40.6519 39.7036ZM33.9444 40.6711L33.8017 39.6813C33.3096 39.7523 32.9444 40.1739 32.9444 40.6711H33.9444ZM33.9444 59.4823H32.9444C32.9444 59.9786 33.3084 60.3998 33.7995 60.4717L33.9444 59.4823ZM40.1192 60.3868L40.2426 61.3792C40.7392 61.3174 41.1137 60.8981 41.1192 60.3977C41.1246 59.8973 40.7593 59.4699 40.2642 59.3974L40.1192 60.3868ZM16.2034 63.3604L16.08 62.368C15.6791 62.4178 15.3476 62.704 15.2397 63.0933C15.1318 63.4826 15.2688 63.8986 15.5868 64.1477L16.2034 63.3604ZM16.3306 63.46L16.0449 64.4183C16.5054 64.5555 16.9983 64.3459 17.2189 63.9191C17.4395 63.4923 17.3254 62.9689 16.9471 62.6727L16.3306 63.46ZM16.0001 63.3615L16.2857 62.4031C15.983 62.3129 15.6556 62.371 15.4024 62.5597C15.1492 62.7484 15.0001 63.0457 15.0001 63.3615H16.0001ZM16.0001 72.2677H15.0001C15.0001 72.6474 15.2151 72.9944 15.5551 73.1633L16.0001 72.2677ZM47.6662 87.9996L48.2852 87.2143C48.2311 87.1716 48.1728 87.1347 48.1111 87.104L47.6662 87.9996ZM47.6667 88L47.0476 88.7853C47.3512 89.0246 47.7654 89.0676 48.1116 88.8956L47.6667 88ZM79.3334 72.2678L79.7783 73.1633C80.1183 72.9944 80.3334 72.6475 80.3334 72.2678H79.3334ZM79.3334 63.3615H80.3334C80.3334 63.0457 80.1842 62.7485 79.931 62.5598C79.6778 62.371 79.3504 62.313 79.0477 62.4032L79.3334 63.3615ZM79.0031 63.46L78.3865 62.6726C78.0082 62.9689 77.8941 63.4922 78.1147 63.9191C78.3353 64.3459 78.8282 64.5555 79.2887 64.4183L79.0031 63.46ZM79.1302 63.3604L79.7468 64.1477C80.0649 63.8986 80.2018 63.4826 80.0939 63.0933C79.986 62.704 79.6545 62.4178 79.2536 62.368L79.1302 63.3604ZM55.2135 60.3869L55.0686 59.3975C54.5734 59.47 54.2081 59.8974 54.2136 60.3978C54.219 60.8982 54.5935 61.3175 55.0901 61.3793L55.2135 60.3869ZM61.389 59.4823L61.534 60.4717C62.025 60.3998 62.389 59.9786 62.389 59.4823H61.389ZM61.389 40.6711H62.389C62.389 40.1739 62.0238 39.7523 61.5318 39.6813L61.389 40.6711ZM54.5355 39.6826L54.4137 38.69C53.9162 38.7511 53.5408 39.1709 53.5355 39.672C53.5302 40.1731 53.8967 40.6008 54.3927 40.6723L54.5355 39.6826ZM79.3334 36.6396L79.4552 37.6322C79.9566 37.5707 80.3334 37.1448 80.3334 36.6396H79.3334ZM79.3334 27.7322H80.3334C80.3334 27.3525 80.1183 27.0055 79.7783 26.8366L79.3334 27.7322ZM47.6667 12L48.1116 11.1044C47.8313 10.9652 47.502 10.9652 47.2218 11.1044L47.6667 12ZM17 34.6592C17 34.107 16.5523 33.6592 16 33.6592C15.4477 33.6592 15 34.107 15 34.6592H17ZM15 29.7113C15 30.2636 15.4477 30.7113 16 30.7113C16.5523 30.7113 17 30.2636 17 29.7113H15ZM19.9634 26.8797C20.4581 26.634 20.6598 26.0338 20.4141 25.5392C20.1684 25.0446 19.5682 24.8428 19.0736 25.0886L19.9634 26.8797ZM27.8699 20.7185C27.3753 20.9642 27.1735 21.5644 27.4192 22.059C27.665 22.5536 28.2651 22.7554 28.7597 22.5097L27.8699 20.7185ZM35.7968 19.0136C36.2914 18.7679 36.4931 18.1677 36.2474 17.6731C36.0017 17.1785 35.4015 16.9768 34.9069 17.2225L35.7968 19.0136ZM43.7032 12.8524C43.2086 13.0982 43.0069 13.6983 43.2526 14.1929C43.4983 14.6875 44.0985 14.8893 44.5931 14.6436L43.7032 12.8524ZM50.7403 14.6436C51.2349 14.8893 51.835 14.6875 52.0808 14.1929C52.3265 13.6983 52.1247 13.0982 51.6301 12.8524L50.7403 14.6436ZM60.4264 17.2225C59.9318 16.9768 59.3316 17.1785 59.0859 17.6731C58.8402 18.1677 59.042 18.7679 59.5366 19.0136L60.4264 17.2225ZM66.5736 22.5097C67.0682 22.7554 67.6684 22.5536 67.9141 22.059C68.1598 21.5644 67.9581 20.9642 67.4635 20.7185L66.5736 22.5097ZM76.2598 25.0886C75.7651 24.8428 75.165 25.0446 74.9193 25.5392C74.6735 26.0338 74.8753 26.634 75.3699 26.8797L76.2598 25.0886ZM78.3334 29.7116C78.3334 30.2639 78.7811 30.7116 79.3334 30.7116C79.8856 30.7116 80.3334 30.2639 80.3334 29.7116H78.3334ZM80.3334 34.6602C80.3334 34.1079 79.8856 33.6602 79.3334 33.6602C78.7811 33.6602 78.3334 34.1079 78.3334 34.6602H80.3334ZM73.7009 36.3233C73.1527 36.3906 72.7629 36.8895 72.8302 37.4376C72.8974 37.9858 73.3963 38.3757 73.9445 38.3084L73.7009 36.3233ZM60.1679 39.9989C60.7161 39.9317 61.1059 39.4327 61.0387 38.8846C60.9714 38.3364 60.4725 37.9465 59.9243 38.0138L60.1679 39.9989ZM55.9157 40.892C56.4624 40.9708 56.9694 40.5916 57.0482 40.045C57.1271 39.4984 56.7479 38.9913 56.2012 38.9125L55.9157 40.892ZM60.0088 39.4616C59.4622 39.3828 58.9551 39.762 58.8763 40.3086C58.7974 40.8553 59.1766 41.3623 59.7233 41.4412L60.0088 39.4616ZM60.389 44.8513C60.389 45.4036 60.8368 45.8513 61.389 45.8513C61.9413 45.8513 62.389 45.4036 62.389 44.8513H60.389ZM62.389 55.302C62.389 54.7497 61.9413 54.302 61.389 54.302C60.8368 54.302 60.389 54.7497 60.389 55.302H62.389ZM59.8718 58.6939C59.3253 58.7739 58.9472 59.2818 59.0273 59.8283C59.1073 60.3747 59.6152 60.7528 60.1616 60.6728L59.8718 58.6939ZM56.7308 61.1753C57.2772 61.0953 57.6553 60.5874 57.5753 60.041C57.4952 59.4945 56.9874 59.1164 56.4409 59.1964L56.7308 61.1753ZM60.405 62.04C60.953 62.1082 61.4526 61.7191 61.5207 61.1711C61.5888 60.623 61.1998 60.1235 60.6517 60.0553L60.405 62.04ZM73.9388 61.7072C73.3907 61.6391 72.8912 62.0282 72.8231 62.5762C72.7549 63.1243 73.144 63.6238 73.692 63.692L73.9388 61.7072ZM78.4854 62.5952C78.0506 62.9357 77.9742 63.5642 78.3147 63.999C78.6552 64.4339 79.2837 64.5103 79.7185 64.1698L78.4854 62.5952ZM79.6479 64.2251C80.0827 63.8846 80.1592 63.2561 79.8186 62.8213C79.4781 62.3864 78.8496 62.31 78.4148 62.6505L79.6479 64.2251ZM79.3621 64.3964C79.8914 64.2387 80.1926 63.6817 80.0348 63.1525C79.8771 62.6232 79.3201 62.322 78.7908 62.4797L79.3621 64.3964ZM78.9743 62.425C78.4451 62.5828 78.1439 63.1397 78.3016 63.669C78.4594 64.1983 79.0163 64.4995 79.5456 64.3417L78.9743 62.425ZM78.3334 65.3407C78.3334 65.893 78.7811 66.3407 79.3334 66.3407C79.8856 66.3407 80.3334 65.893 80.3334 65.3407H78.3334ZM80.3334 70.2886C80.3334 69.7363 79.8856 69.2886 79.3334 69.2886C78.7811 69.2886 78.3334 69.7363 78.3334 70.2886H80.3334ZM75.3699 73.1202C74.8753 73.366 74.6735 73.9661 74.9193 74.4607C75.165 74.9553 75.7652 75.1571 76.2598 74.9114L75.3699 73.1202ZM67.4635 79.2814C67.9581 79.0357 68.1598 78.4355 67.9141 77.9409C67.6684 77.4463 67.0682 77.2446 66.5736 77.4903L67.4635 79.2814ZM59.5366 80.9863C59.042 81.2321 58.8402 81.8322 59.0859 82.3268C59.3317 82.8214 59.9318 83.0232 60.4264 82.7775L59.5366 80.9863ZM51.6301 87.1475C52.1247 86.9018 52.3265 86.3017 52.0808 85.8071C51.835 85.3124 51.2349 85.1107 50.7403 85.3564L51.6301 87.1475ZM48.2857 87.2146C47.8519 86.8727 47.2232 86.9471 46.8812 87.3808C46.5393 87.8145 46.6138 88.4433 47.0475 88.7852L48.2857 87.2146ZM47.0472 88.785C47.4809 89.1269 48.1097 89.0525 48.4516 88.6188C48.7935 88.185 48.7191 87.5563 48.2854 87.2144L47.0472 88.785ZM44.5926 85.356C44.098 85.1103 43.4979 85.3121 43.2521 85.8067C43.0064 86.3013 43.2082 86.9015 43.7028 87.1472L44.5926 85.356ZM34.9066 82.7772C35.4013 83.0229 36.0014 82.8212 36.2471 82.3266C36.4929 81.832 36.2911 81.2318 35.7965 80.9861L34.9066 82.7772ZM28.7596 77.4901C28.265 77.2444 27.6648 77.4461 27.4191 77.9408C27.1734 78.4354 27.3751 79.0355 27.8697 79.2812L28.7596 77.4901ZM19.0736 74.9113C19.5682 75.157 20.1684 74.9552 20.4141 74.4606C20.6598 73.966 20.458 73.3659 19.9634 73.1201L19.0736 74.9113ZM17.0001 70.2886C17.0001 69.7363 16.5523 69.2886 16.0001 69.2886C15.4478 69.2886 15.0001 69.7363 15.0001 70.2886H17.0001ZM15.0001 65.3406C15.0001 65.8929 15.4478 66.3406 16.0001 66.3406C16.5523 66.3406 17.0001 65.8929 17.0001 65.3406H15.0001ZM15.7879 64.3417C16.3172 64.4994 16.8741 64.1983 17.0318 63.669C17.1896 63.1397 16.8884 62.5828 16.3591 62.425L15.7879 64.3417ZM16.5427 62.4797C16.0135 62.322 15.4565 62.6232 15.2988 63.1525C15.141 63.6817 15.4422 64.2387 15.9715 64.3964L16.5427 62.4797ZM16.9189 62.6505C16.484 62.31 15.8555 62.3865 15.515 62.8213C15.1745 63.2561 15.2509 63.8846 15.6857 64.2251L16.9189 62.6505ZM15.6151 64.1698C16.0499 64.5103 16.6784 64.4339 17.0189 63.9991C17.3595 63.5642 17.283 62.9357 16.8482 62.5952L15.6151 64.1698ZM21.6414 63.6919C22.1895 63.6238 22.5785 63.1243 22.5104 62.5762C22.4422 62.0281 21.9427 61.6391 21.3946 61.7072L21.6414 63.6919ZM34.6812 60.0552C34.1332 60.1234 33.7441 60.6229 33.8122 61.171C33.8804 61.7191 34.3799 62.1081 34.928 62.04L34.6812 60.0552ZM38.892 59.1964C38.3455 59.1163 37.8377 59.4944 37.7576 60.0409C37.6776 60.5873 38.0557 61.0952 38.6021 61.1753L38.892 59.1964ZM35.1717 60.6727C35.7181 60.7528 36.226 60.3747 36.306 59.8282C36.3861 59.2818 36.008 58.7739 35.4615 58.6939L35.1717 60.6727ZM34.9444 55.302C34.9444 54.7497 34.4967 54.302 33.9444 54.302C33.3921 54.302 32.9444 54.7497 32.9444 55.302H34.9444ZM32.9444 44.8513C32.9444 45.4036 33.3921 45.8513 33.9444 45.8513C34.4967 45.8513 34.9444 45.4036 34.9444 44.8513H32.9444ZM35.5777 41.4458C36.1244 41.367 36.5036 40.86 36.4247 40.3133C36.3459 39.7667 35.8389 39.3875 35.2922 39.4663L35.5777 41.4458ZM39.0186 38.9289C38.472 39.0077 38.0928 39.5147 38.1716 40.0614C38.2504 40.608 38.7575 40.9872 39.3041 40.9084L39.0186 38.9289ZM35.2978 38.0302C34.7497 37.9621 34.2502 38.3511 34.182 38.8992C34.1139 39.4472 34.5029 39.9468 35.051 40.0149L35.2978 38.0302ZM21.3571 38.3122C21.9052 38.3804 22.4047 37.9913 22.4728 37.4432C22.541 36.8952 22.1519 36.3956 21.6039 36.3275L21.3571 38.3122ZM15.7166 35.6806C15.1873 35.8384 14.8862 36.3954 15.044 36.9246C15.2017 37.4539 15.7587 37.7551 16.288 37.5973L15.7166 35.6806ZM16.2863 37.5978C16.8156 37.44 17.1168 36.883 16.959 36.3538C16.8012 35.8245 16.2442 35.5233 15.715 35.6811L16.2863 37.5978ZM17 36.6394C17 36.0871 16.5523 35.6394 16 35.6394C15.4477 35.6394 15 36.0871 15 36.6394H17ZM15 36.6387C15 37.191 15.4477 37.6387 16 37.6387C16.5523 37.6387 17 37.191 17 36.6387H15ZM17 36.6384V34.6592H15V36.6384H17ZM17 29.7113V27.7322H15V29.7113H17ZM16.4449 28.6277L19.9634 26.8797L19.0736 25.0886L15.5551 26.8366L16.4449 28.6277ZM28.7597 22.5097L35.7968 19.0136L34.9069 17.2225L27.8699 20.7185L28.7597 22.5097ZM44.5931 14.6436L48.1116 12.8956L47.2218 11.1044L43.7032 12.8524L44.5931 14.6436ZM47.2218 12.8956L50.7403 14.6436L51.6301 12.8524L48.1116 11.1044L47.2218 12.8956ZM59.5366 19.0136L66.5736 22.5097L67.4635 20.7185L60.4264 17.2225L59.5366 19.0136ZM75.3699 26.8797L78.8884 28.6277L79.7783 26.8366L76.2598 25.0886L75.3699 26.8797ZM78.3334 27.7322V29.7116H80.3334V27.7322H78.3334ZM78.3334 34.6602V36.6396H80.3334V34.6602H78.3334ZM79.2116 35.6471L73.7009 36.3233L73.9445 38.3084L79.4552 37.6322L79.2116 35.6471ZM59.9243 38.0138L54.4137 38.69L54.6573 40.6751L60.1679 39.9989L59.9243 38.0138ZM54.3927 40.6723L55.9157 40.892L56.2012 38.9125L54.6782 38.6928L54.3927 40.6723ZM59.7233 41.4412L61.2463 41.6608L61.5318 39.6813L60.0088 39.4616L59.7233 41.4412ZM60.389 40.6711V44.8513H62.389V40.6711H60.389ZM60.389 55.302V59.4823H62.389V55.302H60.389ZM61.2441 58.4929L59.8718 58.6939L60.1616 60.6728L61.534 60.4717L61.2441 58.4929ZM56.4409 59.1964L55.0686 59.3975L55.3584 61.3764L56.7308 61.1753L56.4409 59.1964ZM55.0901 61.3793L60.405 62.04L60.6517 60.0553L55.3369 59.3946L55.0901 61.3793ZM73.692 63.692L79.0069 64.3527L79.2536 62.368L73.9388 61.7072L73.692 63.692ZM78.5137 62.573L78.4854 62.5952L79.7185 64.1698L79.7468 64.1477L78.5137 62.573ZM78.4148 62.6505L78.3865 62.6726L79.6196 64.2473L79.6479 64.2251L78.4148 62.6505ZM79.2887 64.4183L79.3621 64.3964L78.7908 62.4797L78.7174 62.5016L79.2887 64.4183ZM79.5456 64.3417L79.619 64.3199L79.0477 62.4032L78.9743 62.425L79.5456 64.3417ZM78.3334 63.3615V65.3407H80.3334V63.3615H78.3334ZM78.3334 70.2886V72.2678H80.3334V70.2886H78.3334ZM78.8884 71.3722L75.3699 73.1202L76.2598 74.9114L79.7783 73.1633L78.8884 71.3722ZM66.5736 77.4903L59.5366 80.9863L60.4264 82.7775L67.4635 79.2814L66.5736 77.4903ZM50.7403 85.3564L47.2218 87.1044L48.1116 88.8956L51.6301 87.1475L50.7403 85.3564ZM48.2858 87.2147L48.2857 87.2146L47.0475 88.7852L47.0476 88.7853L48.2858 87.2147ZM48.2854 87.2144L48.2852 87.2143L47.0471 88.7849L47.0472 88.785L48.2854 87.2144ZM48.1111 87.104L44.5926 85.356L43.7028 87.1472L47.2212 88.8952L48.1111 87.104ZM35.7965 80.9861L28.7596 77.4901L27.8697 79.2812L34.9066 82.7772L35.7965 80.9861ZM19.9634 73.1201L16.445 71.3722L15.5551 73.1633L19.0736 74.9113L19.9634 73.1201ZM17.0001 72.2677V70.2886H15.0001V72.2677H17.0001ZM17.0001 65.3406V63.3615H15.0001V65.3406H17.0001ZM15.7144 64.3198L15.7879 64.3417L16.3591 62.425L16.2857 62.4031L15.7144 64.3198ZM15.9715 64.3964L16.0449 64.4183L16.6162 62.5016L16.5427 62.4797L15.9715 64.3964ZM16.9471 62.6727L16.9189 62.6505L15.6857 64.2251L15.714 64.2473L16.9471 62.6727ZM16.8482 62.5952L16.8199 62.5731L15.5868 64.1477L15.6151 64.1698L16.8482 62.5952ZM16.3267 64.3527L21.6414 63.6919L21.3946 61.7072L16.08 62.368L16.3267 64.3527ZM34.928 62.04L40.2426 61.3792L39.9959 59.3945L34.6812 60.0552L34.928 62.04ZM40.2642 59.3974L38.892 59.1964L38.6021 61.1753L39.9743 61.3763L40.2642 59.3974ZM35.4615 58.6939L34.0894 58.4929L33.7995 60.4717L35.1717 60.6727L35.4615 58.6939ZM34.9444 59.4823V55.302H32.9444V59.4823H34.9444ZM34.9444 44.8513V40.6711H32.9444V44.8513H34.9444ZM34.0872 41.6608L35.5777 41.4458L35.2922 39.4663L33.8017 39.6813L34.0872 41.6608ZM39.3041 40.9084L40.7947 40.6934L40.5092 38.7139L39.0186 38.9289L39.3041 40.9084ZM40.7753 38.7113L35.2978 38.0302L35.051 40.0149L40.5285 40.696L40.7753 38.7113ZM21.6039 36.3275L16.1263 35.6464L15.8795 37.6311L21.3571 38.3122L21.6039 36.3275ZM15.7172 35.6804L15.7166 35.6806L16.288 37.5973L16.2886 37.5971L15.7172 35.6804ZM15.715 35.6811L15.7143 35.6813L16.2857 37.598L16.2863 37.5978L15.715 35.6811ZM17 36.6396V36.6394H15V36.6396H17ZM17 36.6387V36.6384H15V36.6387H17Z" fill="black" mask="url(#path-1-inside-1)"/>
<path d="M7.20337 57.3604L38.6667 82L70.1303 57.3604L38.6657 53.4485L7.20337 57.3604Z" fill="#99BCE3"/>
<path d="M38.6667 6L7 30.6384L38.4626 34.5505L70.3334 30.6396L38.6667 6Z" fill="#19486F"/>
<path d="M38.6667 6L7 21.7322V30.6396L38.6667 21.2003V6Z" fill="#1F5B99"/>
<path d="M7 66.2677L38.6667 81.9999V66.7994L7 57.3615V66.2677Z" fill="#1F5B99"/>
<path d="M38.6666 55.4924L24.9443 53.4823V34.6711L38.6666 32.6919L38.9905 33.3183L38.9563 54.8662L38.6666 55.4924Z" fill="#1F5B99"/>
<path d="M38.6667 6V21.2003L70.3334 30.6396V21.7322L38.6667 6Z" fill="#5294CF"/>
<path d="M38.6667 66.7994V81.9999L70.3334 66.2678V57.3615L38.6667 66.7994Z" fill="#5294CF"/>
<path d="M38.6667 55.4924L52.3891 53.4823V34.6711L38.6667 32.6919V55.4924Z" fill="#5294CF"/>
</svg>
