<svg width="88" height="88" viewBox="0 0 88 88" fill="none" xmlns="http://www.w3.org/2000/svg">
<path d="M45.6433 87.2497C45.3701 87.2181 45.1229 87.413 45.0895 87.6856C41.7013 87.2485 38.453 86.3651 35.4054 85.0963C35.5126 84.8435 35.3958 84.5511 35.1433 84.4421C32.4533 83.2802 29.9263 81.8122 27.6059 80.0821C27.3854 79.9176 27.0738 79.9623 26.9082 80.1814C24.2448 78.1406 21.8594 75.7552 19.8186 73.0918C20.0377 72.9262 20.0823 72.6146 19.9179 72.3941C18.1878 70.0737 16.7198 67.5466 15.5579 64.8567C15.4489 64.6042 15.1565 64.4874 14.9037 64.5946C13.6349 61.547 12.7515 58.2986 12.3144 54.9105C12.587 54.8771 12.7819 54.6299 12.7503 54.3567C12.585 52.9276 12.5 51.4738 12.5 50C12.5 48.5262 12.585 47.0724 12.7503 45.6433C12.7819 45.3701 12.587 45.1229 12.3144 45.0895C12.7515 41.7013 13.6349 38.453 14.9037 35.4054C15.1565 35.5126 15.4489 35.3958 15.5579 35.1433C16.7198 32.4533 18.1878 29.9263 19.9179 27.6059C20.0824 27.3854 20.0377 27.0738 19.8186 26.9082C21.8594 24.2448 24.2448 21.8594 26.9082 19.8186C27.0738 20.0377 27.3854 20.0823 27.6059 19.9179C29.9263 18.1878 32.4534 16.7198 35.1433 15.5579C35.3958 15.4489 35.5126 15.1565 35.4054 14.9037C38.453 13.6349 41.7014 12.7515 45.0895 12.3144C45.1229 12.587 45.3701 12.7819 45.6433 12.7503C47.0724 12.585 48.5262 12.5 50 12.5C51.4738 12.5 52.9276 12.585 54.3567 12.7503C54.6299 12.7819 54.8771 12.587 54.9105 12.3144C58.2987 12.7515 61.547 13.6349 64.5946 14.9037C64.4874 15.1565 64.6042 15.4489 64.8567 15.5579C67.5467 16.7198 70.0737 18.1878 72.3941 19.9179C72.6146 20.0824 72.9262 20.0377 73.0918 19.8186C75.7552 21.8594 78.1406 24.2448 80.1814 26.9082C79.9623 27.0738 79.9177 27.3854 80.0821 27.6059C81.8122 29.9263 83.2802 32.4534 84.4421 35.1433C84.5511 35.3958 84.8435 35.5126 85.0963 35.4054C86.3651 38.453 87.2485 41.7014 87.6856 45.0895C87.413 45.1229 87.2181 45.3701 87.2497 45.6433C87.415 47.0724 87.5 48.5262 87.5 50C87.5 51.4738 87.415 52.9276 87.2497 54.3567C87.2181 54.6299 87.413 54.8771 87.6856 54.9105C87.2485 58.2987 86.3651 61.547 85.0963 64.5946C84.8435 64.4874 84.5511 64.6042 84.4421 64.8567C83.2802 67.5467 81.8122 70.0737 80.0821 72.3941C79.9176 72.6146 79.9623 72.9262 80.1814 73.0918C78.1406 75.7552 75.7552 78.1406 73.0918 80.1814C72.9262 79.9623 72.6146 79.9177 72.3941 80.0821C70.0737 81.8122 67.5466 83.2802 64.8567 84.4421C64.6042 84.5511 64.4874 84.8435 64.5946 85.0963C61.547 86.3651 58.2986 87.2485 54.9105 87.6856C54.8771 87.413 54.6299 87.2181 54.3567 87.2497C52.9276 87.415 51.4738 87.5 50 87.5C48.5262 87.5 47.0724 87.415 45.6433 87.2497Z" fill="#F7F7FE" stroke="black" stroke-linecap="round" stroke-linejoin="round" stroke-dasharray="8 10"/>
<path d="M38 82C58.9868 82 76 64.9868 76 44C76 23.0132 58.9868 6 38 6C17.0132 6 0 23.0132 0 44C0 64.9868 17.0132 82 38 82Z" fill="#E77D32"/>
<path d="M61.7613 20.1294H49.8533V32.0374H61.7613V20.1294Z" fill="white"/>
<path d="M61.7613 38.8289H49.8533V50.737H61.7613V38.8289Z" fill="white"/>
<path d="M61.7613 57.3464H49.8533V69.2544H61.7613V57.3464Z" fill="white"/>
<path d="M21.9041 34.8596H8.83081V54.6334H21.9041V34.8596Z" fill="white"/>
<path d="M41.769 40.1763L41.9511 49.2257L54.114 44.6919L41.769 40.1763Z" fill="white"/>
<path d="M41.4048 26.9391L46.1389 34.6593L54.114 23.9348L41.4048 26.9391Z" fill="white"/>
<path d="M41.4048 62.5357L46.1389 54.8155L54.114 65.54L41.4048 62.5357Z" fill="white"/>
<path d="M27.6579 42.6162L44.5549 32.0556L42.8615 29.3062L21.9042 42.6162V46.5673L42.8615 60.1869L44.5549 57.4193L27.6579 46.6948H41.8965V42.7254L27.6579 42.6162Z" fill="white"/>
</svg>
