<svg width="88" height="88" viewBox="0 0 88 88" fill="none" xmlns="http://www.w3.org/2000/svg">
<mask id="path-1-inside-1" fill="white">
<path fill-rule="evenodd" clip-rule="evenodd" d="M54.4554 88L45.061 83.25V77.1574L37.7342 79.5354L37.6722 79.6611L31.761 76.7055V73.1716L27.0111 74.2778H27.011L23 72.2722V27.7278L27.011 25.7223V25.7222L27.011 25.7222L27.0111 25.7222L27.0111 25.7223L31.761 26.8934V23.2945L37.6722 20.3389L37.6724 20.3393V20.3389L45.061 22.7371V16.75L54.4554 12L54.4556 12.0002V12L81.9 25.7222L85.9111 27.7278V72.2722L54.4556 88H54.4554Z"/>
</mask>
<path fill-rule="evenodd" clip-rule="evenodd" d="M54.4554 88L45.061 83.25V77.1574L37.7342 79.5354L37.6722 79.6611L31.761 76.7055V73.1716L27.0111 74.2778H27.011L23 72.2722V27.7278L27.011 25.7223V25.7222L27.011 25.7222L27.0111 25.7222L27.0111 25.7223L31.761 26.8934V23.2945L37.6722 20.3389L37.6724 20.3393V20.3389L45.061 22.7371V16.75L54.4554 12L54.4556 12.0002V12L81.9 25.7222L85.9111 27.7278V72.2722L54.4556 88H54.4554Z" fill="#F7F7FE"/>
<path d="M45.061 83.25H44.561C44.561 83.4386 44.6671 83.6111 44.8354 83.6962L45.061 83.25ZM54.4554 88L54.2298 88.4462C54.2998 88.4816 54.377 88.5 54.4554 88.5V88ZM45.061 77.1574H45.561C45.561 76.9974 45.4844 76.847 45.355 76.753C45.2255 76.6589 45.0589 76.6324 44.9067 76.6818L45.061 77.1574ZM37.7342 79.5354L37.5798 79.0598C37.4515 79.1014 37.3454 79.1932 37.2857 79.3142L37.7342 79.5354ZM37.6722 79.6611L37.4486 80.1083C37.5676 80.1678 37.7054 80.1774 37.8316 80.135C37.9577 80.0926 38.0617 80.0016 38.1206 79.8822L37.6722 79.6611ZM31.761 76.7055H31.261C31.261 76.8949 31.368 77.068 31.5374 77.1527L31.761 76.7055ZM31.761 73.1716H32.261C32.261 73.0191 32.1913 72.8749 32.0719 72.78C31.9524 72.6852 31.7962 72.6501 31.6476 72.6847L31.761 73.1716ZM27.0111 74.2778V74.7778C27.0492 74.7778 27.0873 74.7734 27.1245 74.7647L27.0111 74.2778ZM27.011 74.2778L26.7874 74.725C26.8568 74.7597 26.9334 74.7778 27.011 74.7778V74.2778ZM23 72.2722H22.5C22.5 72.4616 22.607 72.6347 22.7764 72.7194L23 72.2722ZM23 27.7278L22.7764 27.2806C22.607 27.3652 22.5 27.5384 22.5 27.7278H23ZM27.011 25.7223L27.2346 26.1695C27.404 26.0848 27.511 25.9117 27.511 25.7223H27.011ZM27.011 25.7222L27.1323 25.2372C26.9829 25.1998 26.8246 25.2334 26.7033 25.3281C26.5819 25.4229 26.511 25.5683 26.511 25.7222H27.011ZM27.011 25.7222L26.8898 26.2073C27.0067 26.2365 27.1302 26.2226 27.2377 26.1679L27.011 25.7222ZM27.0111 25.7222L27.4057 25.4153C27.2586 25.2261 26.998 25.1679 26.7844 25.2765L27.0111 25.7222ZM27.0111 25.7223L26.6164 26.0292C26.6854 26.1179 26.7823 26.1808 26.8914 26.2077L27.0111 25.7223ZM31.761 26.8934L31.6413 27.3788C31.7905 27.4156 31.9484 27.3817 32.0693 27.287C32.1903 27.1922 32.261 27.0471 32.261 26.8934H31.761ZM31.761 23.2945L31.5374 22.8473C31.368 22.932 31.261 23.1051 31.261 23.2945H31.761ZM37.6722 20.3389L38.1159 20.1086C37.9901 19.8661 37.6929 19.7695 37.4486 19.8917L37.6722 20.3389ZM37.6724 20.3393L37.2286 20.5696C37.3348 20.7742 37.567 20.8797 37.7909 20.825C38.0148 20.7704 38.1724 20.5698 38.1724 20.3393H37.6724ZM37.6724 20.3389L37.8267 19.8633C37.6745 19.8139 37.5079 19.8404 37.3784 19.9344C37.249 20.0285 37.1724 20.1789 37.1724 20.3389H37.6724ZM45.061 22.7371L44.9067 23.2126C45.0589 23.262 45.2255 23.2356 45.355 23.1415C45.4844 23.0474 45.561 22.8971 45.561 22.7371H45.061ZM45.061 16.75L44.8354 16.3038C44.6671 16.3889 44.561 16.5615 44.561 16.75H45.061ZM54.4554 12L54.8639 11.7117C54.7209 11.5091 54.4511 11.4419 54.2298 11.5538L54.4554 12ZM54.4556 12.0002L54.0471 12.2885C54.1727 12.4665 54.3992 12.5427 54.6068 12.4768C54.8145 12.4109 54.9556 12.2181 54.9556 12.0002H54.4556ZM54.4556 12L54.6792 11.5528C54.5242 11.4753 54.3401 11.4836 54.1927 11.5747C54.0453 11.6658 53.9556 11.8267 53.9556 12H54.4556ZM81.9 25.7222L82.1236 25.275L81.9 25.7222ZM85.9111 27.7278H86.4111C86.4111 27.5384 86.3041 27.3652 86.1347 27.2806L85.9111 27.7278ZM85.9111 72.2722L86.1347 72.7194C86.3041 72.6348 86.4111 72.4616 86.4111 72.2722H85.9111ZM54.4556 88V88.5C54.5332 88.5 54.6097 88.4819 54.6792 88.4472L54.4556 88ZM45.561 81.8961C45.561 81.6199 45.3372 81.3961 45.061 81.3961C44.7849 81.3961 44.561 81.6199 44.561 81.8961H45.561ZM44.561 78.5113C44.561 78.7875 44.7849 79.0113 45.061 79.0113C45.3372 79.0113 45.561 78.7875 45.561 78.5113H44.561ZM43.2785 77.2103C43.0158 77.2955 42.872 77.5775 42.9573 77.8402C43.0425 78.1029 43.3245 78.2467 43.5872 78.1614L43.2785 77.2103ZM39.5167 79.4825C39.7794 79.3973 39.9232 79.1152 39.8379 78.8526C39.7527 78.5899 39.4707 78.4461 39.208 78.5313L39.5167 79.4825ZM37.272 79.3421C37.1498 79.5898 37.2516 79.8896 37.4992 80.0117C37.7469 80.1339 38.0467 80.0321 38.1688 79.7845L37.272 79.3421ZM38.1344 79.8543C38.2565 79.6066 38.1548 79.3069 37.9071 79.1847C37.6594 79.0626 37.3597 79.1643 37.2375 79.412L38.1344 79.8543ZM36.5822 78.5571C36.3352 78.4336 36.0349 78.5337 35.9114 78.7807C35.7879 79.0277 35.888 79.328 36.135 79.4515L36.5822 78.5571ZM32.851 77.8095C33.098 77.933 33.3983 77.8329 33.5218 77.5859C33.6453 77.3389 33.5452 77.0386 33.2982 76.9151L32.851 77.8095ZM32.261 75.9202C32.261 75.6441 32.0371 75.4202 31.761 75.4202C31.4848 75.4202 31.261 75.6441 31.261 75.9202H32.261ZM31.261 73.9569C31.261 74.2331 31.4848 74.4569 31.761 74.4569C32.0371 74.4569 32.261 74.2331 32.261 73.9569H31.261ZM30.592 72.9305C30.3231 72.9931 30.1558 73.2619 30.2185 73.5308C30.2811 73.7998 30.5499 73.967 30.8189 73.9044L30.592 72.9305ZM28.18 74.5189C28.449 74.4563 28.6162 74.1875 28.5536 73.9186C28.4909 73.6496 28.2222 73.4824 27.9532 73.545L28.18 74.5189ZM27.0111 73.7778C26.7349 73.7778 26.5111 74.0016 26.5111 74.2778C26.5111 74.5539 26.7349 74.7778 27.0111 74.7778V73.7778ZM27.011 74.7778C27.2871 74.7778 27.511 74.5539 27.511 74.2778C27.511 74.0016 27.2871 73.7778 27.011 73.7778V74.7778ZM26.3433 73.3849C26.0963 73.2614 25.7959 73.3615 25.6724 73.6085C25.5489 73.8555 25.6491 74.1558 25.896 74.2793L26.3433 73.3849ZM23.6677 73.1651C23.9147 73.2886 24.215 73.1885 24.3385 72.9415C24.462 72.6945 24.3619 72.3942 24.1149 72.2707L23.6677 73.1651ZM23.5 67.3228C23.5 67.0467 23.2761 66.8228 23 66.8228C22.7239 66.8228 22.5 67.0467 22.5 67.3228H23.5ZM22.5 54.9494C22.5 55.2255 22.7239 55.4494 23 55.4494C23.2761 55.4494 23.5 55.2255 23.5 54.9494H22.5ZM23.5 45.0506C23.5 44.7745 23.2761 44.5506 23 44.5506C22.7239 44.5506 22.5 44.7745 22.5 45.0506H23.5ZM22.5 32.6772C22.5 32.9533 22.7239 33.1772 23 33.1772C23.2761 33.1772 23.5 32.9533 23.5 32.6772H22.5ZM24.1149 27.7293C24.3619 27.6058 24.462 27.3055 24.3385 27.0585C24.215 26.8115 23.9147 26.7114 23.6677 26.8349L24.1149 27.7293ZM25.896 25.7207C25.6491 25.8442 25.5489 26.1446 25.6724 26.3915C25.7959 26.6385 26.0963 26.7386 26.3433 26.6152L25.896 25.7207ZM27.511 25.7223C27.511 25.4461 27.2871 25.2223 27.011 25.2223C26.7348 25.2223 26.511 25.4461 26.511 25.7223H27.511ZM26.511 25.7222C26.511 25.9984 26.7348 26.2222 27.011 26.2222C27.2871 26.2222 27.511 25.9984 27.511 25.7222H26.511ZM26.8897 26.2073C27.1576 26.2743 27.4291 26.1114 27.4961 25.8435C27.563 25.5756 27.4002 25.3041 27.1323 25.2372L26.8897 26.2073ZM27.1323 25.2372C26.8644 25.1702 26.5929 25.3331 26.526 25.601C26.459 25.8689 26.6219 26.1403 26.8898 26.2073L27.1323 25.2372ZM27.2377 26.1679C27.4838 26.0428 27.5819 25.7418 27.4567 25.4956C27.3316 25.2495 27.0306 25.1514 26.7844 25.2765L27.2377 26.1679ZM26.7844 25.2765C26.5383 25.4017 26.4402 25.7027 26.5654 25.9489C26.6905 26.195 26.9915 26.2931 27.2377 26.1679L26.7844 25.2765ZM26.6164 26.0292C26.7859 26.2472 27.1001 26.2864 27.318 26.1169C27.536 25.9474 27.5753 25.6332 27.4058 25.4153L26.6164 26.0292ZM27.4058 25.4153C27.2362 25.1973 26.9221 25.158 26.7041 25.3276C26.4861 25.4971 26.4469 25.8112 26.6164 26.0292L27.4058 25.4153ZM27.9469 26.468C28.215 26.5341 28.486 26.3703 28.5521 26.1022C28.6182 25.8341 28.4544 25.5631 28.1863 25.497L27.9469 26.468ZM30.8251 26.1477C30.557 26.0816 30.2861 26.2453 30.22 26.5134C30.1539 26.7815 30.3176 27.0525 30.5858 27.1186L30.8251 26.1477ZM32.261 26.0936C32.261 25.8175 32.0371 25.5936 31.761 25.5936C31.4848 25.5936 31.261 25.8175 31.261 26.0936H32.261ZM31.261 24.0942C31.261 24.3704 31.4848 24.5942 31.761 24.5942C32.0371 24.5942 32.261 24.3704 32.261 24.0942H31.261ZM33.2982 23.0849C33.5452 22.9614 33.6453 22.6611 33.5218 22.4141C33.3983 22.1671 33.098 22.067 32.851 22.1905L33.2982 23.0849ZM36.135 20.5485C35.888 20.672 35.7879 20.9723 35.9114 21.2193C36.0349 21.4663 36.3352 21.5664 36.5822 21.4429L36.135 20.5485ZM37.2284 20.5693C37.3557 20.8144 37.6575 20.91 37.9026 20.7828C38.1477 20.6555 38.2432 20.3537 38.116 20.1086L37.2284 20.5693ZM38.1161 20.1088C37.9889 19.8638 37.6871 19.7682 37.442 19.8954C37.1969 20.0226 37.1013 20.3245 37.2285 20.5696L38.1161 20.1088ZM38.1724 20.3392C38.1724 20.0631 37.9485 19.8392 37.6724 19.8392C37.3962 19.8392 37.1724 20.0631 37.1724 20.3392H38.1724ZM37.1724 20.339C37.1724 20.6151 37.3962 20.839 37.6724 20.839C37.9485 20.839 38.1724 20.6151 38.1724 20.339H37.1724ZM39.1599 21.3474C39.4226 21.4327 39.7046 21.2888 39.7899 21.0262C39.8751 20.7635 39.7313 20.4815 39.4686 20.3963L39.1599 21.3474ZM43.5735 21.7286C43.3108 21.6433 43.0288 21.7871 42.9435 22.0498C42.8583 22.3124 43.0021 22.5945 43.2647 22.6797L43.5735 21.7286ZM45.561 21.4066C45.561 21.1305 45.3372 20.9066 45.061 20.9066C44.7849 20.9066 44.561 21.1305 44.561 21.4066H45.561ZM44.561 18.0805C44.561 18.3566 44.7849 18.5805 45.061 18.5805C45.3372 18.5805 45.561 18.3566 45.561 18.0805H44.561ZM47.3743 16.1407C47.6207 16.0161 47.7195 15.7153 47.5949 15.4689C47.4703 15.2224 47.1695 15.1237 46.9231 15.2483L47.3743 16.1407ZM52.1422 12.6094C51.8957 12.734 51.797 13.0347 51.9216 13.2812C52.0462 13.5276 52.347 13.6264 52.5934 13.5018L52.1422 12.6094ZM54.047 12.2884C54.2062 12.514 54.5182 12.5678 54.7438 12.4085C54.9694 12.2493 55.0232 11.9373 54.8639 11.7117L54.047 12.2884ZM54.864 11.7118C54.7048 11.4862 54.3928 11.4324 54.1672 11.5917C53.9416 11.7509 53.8878 12.0629 54.047 12.2885L54.864 11.7118ZM54.9556 12.0002C54.9556 11.724 54.7317 11.5002 54.4556 11.5002C54.1794 11.5002 53.9556 11.724 53.9556 12.0002H54.9556ZM53.9556 12C53.9556 12.2762 54.1794 12.5 54.4556 12.5C54.7317 12.5 54.9556 12.2762 54.9556 12H53.9556ZM57.2813 13.9719C57.5283 14.0954 57.8287 13.9953 57.9522 13.7483C58.0757 13.5013 57.9755 13.201 57.7286 13.0775L57.2813 13.9719ZM65.352 16.8892C65.105 16.7657 64.8047 16.8658 64.6812 17.1128C64.5577 17.3598 64.6578 17.6601 64.9048 17.7836L65.352 16.8892ZM71.0036 20.833C71.2506 20.9565 71.5509 20.8564 71.6744 20.6094C71.7979 20.3624 71.6978 20.0621 71.4508 19.9386L71.0036 20.833ZM79.0742 23.7503C78.8273 23.6268 78.5269 23.7269 78.4034 23.9739C78.2799 24.2209 78.38 24.5213 78.627 24.6448L79.0742 23.7503ZM82.5678 26.6151C82.8148 26.7386 83.1151 26.6385 83.2386 26.3915C83.3621 26.1445 83.262 25.8442 83.015 25.7207L82.5678 26.6151ZM85.2434 26.8349C84.9964 26.7114 84.696 26.8115 84.5725 27.0585C84.449 27.3055 84.5491 27.6058 84.7961 27.7293L85.2434 26.8349ZM85.4111 32.6772C85.4111 32.9533 85.635 33.1772 85.9111 33.1772C86.1872 33.1772 86.4111 32.9533 86.4111 32.6772H85.4111ZM86.4111 45.0506C86.4111 44.7745 86.1872 44.5506 85.9111 44.5506C85.635 44.5506 85.4111 44.7745 85.4111 45.0506H86.4111ZM85.4111 54.9494C85.4111 55.2255 85.635 55.4494 85.9111 55.4494C86.1872 55.4494 86.4111 55.2255 86.4111 54.9494H85.4111ZM86.4111 67.3228C86.4111 67.0467 86.1872 66.8228 85.9111 66.8228C85.635 66.8228 85.4111 67.0467 85.4111 67.3228H86.4111ZM82.1924 73.5726C81.9454 73.696 81.8453 73.9964 81.9688 74.2434C82.0923 74.4904 82.3927 74.5905 82.6396 74.467L82.1924 73.5726ZM73.902 78.8358C74.149 78.7123 74.2491 78.412 74.1256 78.165C74.0021 77.918 73.7018 77.8179 73.4548 77.9414L73.902 78.8358ZM66.4647 81.4364C66.2177 81.5599 66.1176 81.8603 66.2411 82.1073C66.3646 82.3542 66.6649 82.4544 66.9119 82.3309L66.4647 81.4364ZM58.1742 86.6997C58.4212 86.5762 58.5213 86.2759 58.3978 86.0289C58.2743 85.7819 57.974 85.6818 57.727 85.8053L58.1742 86.6997ZM54.4555 87.5C54.1794 87.5 53.9555 87.7239 53.9555 88C53.9555 88.2761 54.1794 88.5 54.4555 88.5V87.5ZM54.4555 88.5C54.7316 88.5 54.9555 88.2761 54.9555 88C54.9555 87.7239 54.7316 87.5 54.4555 87.5V88.5ZM52.5934 86.4982C52.347 86.3736 52.0462 86.4724 51.9216 86.7188C51.797 86.9653 51.8957 87.266 52.1422 87.3906L52.5934 86.4982ZM46.9231 84.7517C47.1695 84.8763 47.4703 84.7776 47.5949 84.5312C47.7195 84.2847 47.6207 83.9839 47.3743 83.8593L46.9231 84.7517ZM45.561 83.25V81.8961H44.561V83.25H45.561ZM45.561 78.5113V77.1574H44.561V78.5113H45.561ZM44.9067 76.6818L43.2785 77.2103L43.5872 78.1614L45.2154 77.633L44.9067 76.6818ZM39.208 78.5313L37.5798 79.0598L37.8885 80.0109L39.5167 79.4825L39.208 78.5313ZM37.2857 79.3142L37.272 79.3421L38.1688 79.7845L38.1826 79.7565L37.2857 79.3142ZM37.2375 79.412L37.2237 79.4399L38.1206 79.8822L38.1344 79.8543L37.2375 79.412ZM37.8958 79.2139L36.5822 78.5571L36.135 79.4515L37.4486 80.1083L37.8958 79.2139ZM33.2982 76.9151L31.9846 76.2583L31.5374 77.1527L32.851 77.8095L33.2982 76.9151ZM32.261 76.7055V75.9202H31.261V76.7055H32.261ZM32.261 73.9569V73.1716H31.261V73.9569H32.261ZM31.6476 72.6847L30.592 72.9305L30.8189 73.9044L31.8744 73.6586L31.6476 72.6847ZM27.9532 73.545L26.8977 73.7908L27.1245 74.7647L28.18 74.5189L27.9532 73.545ZM27.0111 73.7778H27.0111V74.7778H27.0111V73.7778ZM27.011 73.7778H27.011V74.7778H27.011V73.7778ZM27.2346 73.8306L26.3433 73.3849L25.896 74.2793L26.7874 74.725L27.2346 73.8306ZM24.1149 72.2707L23.2236 71.825L22.7764 72.7194L23.6677 73.1651L24.1149 72.2707ZM23.5 72.2722V67.3228H22.5V72.2722H23.5ZM23.5 54.9494V45.0506H22.5V54.9494H23.5ZM23.5 32.6772V27.7278H22.5V32.6772H23.5ZM23.2236 28.175L24.1149 27.7293L23.6677 26.8349L22.7764 27.2806L23.2236 28.175ZM26.3433 26.6152L27.2346 26.1695L26.7874 25.2751L25.896 25.7207L26.3433 26.6152ZM27.511 25.7223V25.7223H26.511V25.7223H27.511ZM27.511 25.7222V25.7222H26.511V25.7222H27.511ZM26.8897 26.2073L26.8897 26.2073L27.1323 25.2372L27.1323 25.2372L26.8897 26.2073ZM26.8898 26.2073L26.8898 26.2073L27.1323 25.2372L27.1323 25.2372L26.8898 26.2073ZM27.2377 26.1679L27.2377 26.1679L26.7844 25.2765L26.7844 25.2766L27.2377 26.1679ZM27.2377 26.1679L27.2377 26.1679L26.7844 25.2765L26.7844 25.2765L27.2377 26.1679ZM26.6164 26.0292L26.6164 26.0292L27.4058 25.4153L27.4057 25.4153L26.6164 26.0292ZM26.6164 26.0292L26.6164 26.0292L27.4058 25.4153L27.4058 25.4153L26.6164 26.0292ZM26.8914 26.2077L27.9469 26.468L28.1863 25.497L27.1308 25.2368L26.8914 26.2077ZM30.5858 27.1186L31.6413 27.3788L31.8807 26.4079L30.8251 26.1477L30.5858 27.1186ZM32.261 26.8934V26.0936H31.261V26.8934H32.261ZM32.261 24.0942V23.2945H31.261V24.0942H32.261ZM31.9846 23.7417L33.2982 23.0849L32.851 22.1905L31.5374 22.8473L31.9846 23.7417ZM36.5822 21.4429L37.8958 20.7861L37.4486 19.8917L36.135 20.5485L36.5822 21.4429ZM37.2284 20.5693L37.2284 20.5693L38.116 20.1086L38.1159 20.1086L37.2284 20.5693ZM37.2285 20.5696L37.2286 20.5696L38.1161 20.1089L38.1161 20.1088L37.2285 20.5696ZM38.1724 20.3393V20.3392H37.1724V20.3393H38.1724ZM38.1724 20.339V20.3389H37.1724V20.339H38.1724ZM37.518 20.8145L39.1599 21.3474L39.4686 20.3963L37.8267 19.8633L37.518 20.8145ZM43.2647 22.6797L44.9067 23.2126L45.2154 22.2615L43.5735 21.7286L43.2647 22.6797ZM45.561 22.7371V21.4066H44.561V22.7371H45.561ZM45.561 18.0805V16.75H44.561V18.0805H45.561ZM45.2866 17.1962L47.3743 16.1407L46.9231 15.2483L44.8354 16.3038L45.2866 17.1962ZM52.5934 13.5018L54.681 12.4462L54.2298 11.5538L52.1422 12.6094L52.5934 13.5018ZM54.0469 12.2883L54.047 12.2884L54.8639 11.7117L54.8639 11.7117L54.0469 12.2883ZM54.047 12.2885L54.0471 12.2885L54.8641 11.7119L54.864 11.7118L54.047 12.2885ZM54.9556 12.0002V12.0002H53.9556V12.0002H54.9556ZM54.9556 12V12H53.9556V12H54.9556ZM54.232 12.4472L57.2813 13.9719L57.7286 13.0775L54.6792 11.5528L54.232 12.4472ZM64.9048 17.7836L71.0036 20.833L71.4508 19.9386L65.352 16.8892L64.9048 17.7836ZM78.627 24.6448L81.6764 26.1694L82.1236 25.275L79.0742 23.7503L78.627 24.6448ZM81.6764 26.1694L82.5678 26.6151L83.015 25.7207L82.1236 25.275L81.6764 26.1694ZM84.7961 27.7293L85.6875 28.175L86.1347 27.2806L85.2434 26.8349L84.7961 27.7293ZM85.4111 27.7278V32.6772H86.4111V27.7278H85.4111ZM85.4111 45.0506V54.9494H86.4111V45.0506H85.4111ZM85.4111 67.3228V72.2722H86.4111V67.3228H85.4111ZM85.6875 71.825L82.1924 73.5726L82.6396 74.467L86.1347 72.7194L85.6875 71.825ZM73.4548 77.9414L66.4647 81.4364L66.9119 82.3309L73.902 78.8358L73.4548 77.9414ZM57.727 85.8053L54.232 87.5528L54.6792 88.4472L58.1742 86.6997L57.727 85.8053ZM54.4556 87.5H54.4555V88.5H54.4556V87.5ZM54.4555 87.5H54.4554V88.5H54.4555V87.5ZM54.681 87.5538L52.5934 86.4982L52.1422 87.3906L54.2298 88.4462L54.681 87.5538ZM47.3743 83.8593L45.2866 82.8038L44.8354 83.6962L46.9231 84.7517L47.3743 83.8593ZM45.061 83.25H44.061C44.061 83.6271 44.2732 83.9722 44.6098 84.1424L45.061 83.25ZM54.4554 88L54.0042 88.8924C54.1441 88.9631 54.2987 89 54.4554 89V88ZM45.061 77.1574H46.061C46.061 76.8374 45.9078 76.5367 45.649 76.3485C45.3901 76.1603 45.0567 76.1075 44.7523 76.2063L45.061 77.1574ZM37.7342 79.5354L37.4255 78.5842C37.1688 78.6675 36.9567 78.851 36.8373 79.0931L37.7342 79.5354ZM37.6722 79.6611L37.225 80.5555C37.463 80.6746 37.7387 80.6938 37.991 80.6089C38.2433 80.524 38.4513 80.3421 38.569 80.1034L37.6722 79.6611ZM31.761 76.7055H30.761C30.761 77.0843 30.975 77.4305 31.3138 77.5999L31.761 76.7055ZM31.761 73.1716H32.761C32.761 72.8665 32.6217 72.5781 32.3828 72.3884C32.1438 72.1987 31.8313 72.1285 31.5342 72.1977L31.761 73.1716ZM27.0111 74.2778V75.2778C27.0874 75.2778 27.1635 75.269 27.2379 75.2517L27.0111 74.2778ZM27.011 74.2778L26.5638 75.1722C26.7026 75.2416 26.8557 75.2778 27.011 75.2778V74.2778ZM23 72.2722H22C22 72.651 22.214 72.9973 22.5528 73.1667L23 72.2722ZM23 27.7278L22.5528 26.8333C22.214 27.0027 22 27.349 22 27.7278H23ZM27.011 25.7223L27.4582 26.6167C27.797 26.4473 28.011 26.101 28.011 25.7223H27.011ZM27.011 25.7222L27.2535 24.7521C26.9548 24.6774 26.6383 24.7445 26.3956 24.934C26.1529 25.1235 26.011 25.4143 26.011 25.7222H27.011ZM27.011 25.7222L26.7685 26.6924C27.0023 26.7508 27.2494 26.7229 27.4643 26.6136L27.011 25.7222ZM27.0111 25.7222L27.8004 25.1083C27.5062 24.73 26.985 24.6136 26.5578 24.8308L27.0111 25.7222ZM27.0111 25.7223L26.2217 26.3362C26.3597 26.5136 26.5535 26.6394 26.7717 26.6932L27.0111 25.7223ZM31.761 26.8934L31.5216 27.8643C31.82 27.9379 32.1357 27.8701 32.3777 27.6806C32.6196 27.491 32.761 27.2007 32.761 26.8934H31.761ZM31.761 23.2945L31.3138 22.4001C30.975 22.5695 30.761 22.9157 30.761 23.2945H31.761ZM37.6722 20.3389L38.5597 19.8782C38.308 19.3933 37.7136 19.2001 37.225 19.4445L37.6722 20.3389ZM37.6724 20.3393L36.7848 20.8C36.9972 21.2091 37.4617 21.4201 37.9095 21.3108C38.3573 21.2015 38.6724 20.8002 38.6724 20.3393H37.6724ZM37.6724 20.3389L37.9811 19.3878C37.6767 19.289 37.3433 19.3418 37.0845 19.53C36.8256 19.7181 36.6724 20.0189 36.6724 20.3389H37.6724ZM45.061 22.7371L44.7523 23.6882C45.0567 23.787 45.3901 23.7342 45.6489 23.546C45.9078 23.3578 46.061 23.0571 46.061 22.7371H45.061ZM45.061 16.75L44.6098 15.8576C44.2732 16.0278 44.061 16.3729 44.061 16.75H45.061ZM54.4554 12L55.2724 11.4233C54.9864 11.0182 54.4468 10.8838 54.0042 11.1076L54.4554 12ZM54.4556 12.0002L53.6386 12.5769C53.8899 12.9329 54.3427 13.0852 54.7581 12.9533C55.1734 12.8215 55.4556 12.4359 55.4556 12.0002H54.4556ZM54.4556 12L54.9028 11.1056C54.5928 10.9506 54.2247 10.9671 53.9298 11.1493C53.635 11.3316 53.4556 11.6534 53.4556 12H54.4556ZM81.9 25.7222L82.3472 24.8278L81.9 25.7222ZM85.9111 27.7278H86.9111C86.9111 27.349 86.6971 27.0027 86.3583 26.8333L85.9111 27.7278ZM85.9111 72.2722L86.3583 73.1667C86.6971 72.9973 86.9111 72.651 86.9111 72.2722H85.9111ZM54.4556 88V89C54.6108 89 54.7639 88.9639 54.9028 88.8944L54.4556 88ZM46.061 81.8961C46.061 81.3438 45.6133 80.8961 45.061 80.8961C44.5088 80.8961 44.061 81.3438 44.061 81.8961H46.061ZM44.061 78.5113C44.061 79.0636 44.5088 79.5113 45.061 79.5113C45.6133 79.5113 46.061 79.0636 46.061 78.5113H44.061ZM43.1241 76.7347C42.5988 76.9052 42.3112 77.4692 42.4817 77.9946C42.6522 78.5199 43.2162 78.8075 43.7415 78.637L43.1241 76.7347ZM39.6711 79.9581C40.1964 79.7876 40.484 79.2235 40.3135 78.6982C40.143 78.1729 39.579 77.8853 39.0537 78.0558L39.6711 79.9581ZM36.8235 79.121C36.5793 79.6163 36.7828 80.2159 37.2781 80.4602C37.7734 80.7044 38.373 80.5009 38.6173 80.0056L36.8235 79.121ZM38.5828 80.0755C38.8271 79.5801 38.6236 78.9806 38.1283 78.7363C37.6329 78.492 37.0334 78.6955 36.7891 79.1908L38.5828 80.0755ZM36.8058 78.1099C36.3118 77.8629 35.7111 78.0631 35.4641 78.5571C35.2172 79.0511 35.4174 79.6517 35.9114 79.8987L36.8058 78.1099ZM32.6274 78.2567C33.1213 78.5037 33.722 78.3035 33.969 77.8095C34.216 77.3155 34.0158 76.7149 33.5218 76.4679L32.6274 78.2567ZM32.761 75.9202C32.761 75.3679 32.3133 74.9202 31.761 74.9202C31.2087 74.9202 30.761 75.3679 30.761 75.9202H32.761ZM30.761 73.9569C30.761 74.5092 31.2087 74.9569 31.761 74.9569C32.3133 74.9569 32.761 74.5092 32.761 73.9569H30.761ZM30.4786 72.4435C29.9408 72.5688 29.6062 73.1064 29.7315 73.6442C29.8568 74.1821 30.3944 74.5166 30.9323 74.3914L30.4786 72.4435ZM28.2934 75.0059C28.8313 74.8806 29.1658 74.343 29.0405 73.8052C28.9153 73.2673 28.3777 72.9328 27.8398 73.058L28.2934 75.0059ZM27.0111 73.2778C26.4588 73.2778 26.0111 73.7255 26.0111 74.2778C26.0111 74.8301 26.4588 75.2778 27.0111 75.2778V73.2778ZM27.011 75.2778C27.5633 75.2778 28.011 74.8301 28.011 74.2778C28.011 73.7255 27.5633 73.2778 27.011 73.2778V75.2778ZM26.5669 72.9377C26.0729 72.6907 25.4722 72.8909 25.2252 73.3849C24.9782 73.8788 25.1785 74.4795 25.6724 74.7265L26.5669 72.9377ZM23.4441 73.6123C23.9381 73.8593 24.5388 73.6591 24.7858 73.1651C25.0327 72.6712 24.8325 72.0705 24.3386 71.8235L23.4441 73.6123ZM24 67.3228C24 66.7706 23.5523 66.3228 23 66.3228C22.4477 66.3228 22 66.7706 22 67.3228H24ZM22 54.9494C22 55.5017 22.4477 55.9494 23 55.9494C23.5523 55.9494 24 55.5017 24 54.9494H22ZM24 45.0506C24 44.4983 23.5523 44.0506 23 44.0506C22.4477 44.0506 22 44.4983 22 45.0506H24ZM22 32.6772C22 33.2294 22.4477 33.6772 23 33.6772C23.5523 33.6772 24 33.2294 24 32.6772H22ZM24.3385 28.1765C24.8325 27.9295 25.0327 27.3289 24.7858 26.8349C24.5388 26.3409 23.9381 26.1407 23.4441 26.3877L24.3385 28.1765ZM25.6724 25.2735C25.1785 25.5205 24.9782 26.1212 25.2252 26.6152C25.4722 27.1091 26.0729 27.3094 26.5669 27.0624L25.6724 25.2735ZM28.011 25.7223C28.011 25.17 27.5633 24.7223 27.011 24.7223C26.4587 24.7223 26.011 25.17 26.011 25.7223H28.011ZM26.011 25.7222C26.011 26.2745 26.4587 26.7222 27.011 26.7222C27.5633 26.7222 28.011 26.2745 28.011 25.7222H26.011ZM26.7685 26.6924C27.3043 26.8263 27.8472 26.5006 27.9811 25.9648C28.1151 25.429 27.7893 24.886 27.2535 24.7521L26.7685 26.6924ZM27.2536 24.7521C26.7178 24.6181 26.1748 24.9439 26.0409 25.4797C25.9069 26.0155 26.2327 26.5584 26.7685 26.6924L27.2536 24.7521ZM27.4643 26.6136C27.9566 26.3633 28.1528 25.7613 27.9024 25.269C27.6521 24.7767 27.0501 24.5805 26.5578 24.8309L27.4643 26.6136ZM26.5578 24.8308C26.0655 25.0812 25.8694 25.6832 26.1197 26.1755C26.37 26.6678 26.972 26.8639 27.4643 26.6136L26.5578 24.8308ZM26.2217 26.3362C26.5608 26.7721 27.1891 26.8507 27.625 26.5116C28.061 26.1725 28.1395 25.5442 27.8004 25.1083L26.2217 26.3362ZM27.8004 25.1083C27.4614 24.6724 26.8331 24.5938 26.3971 24.9329C25.9612 25.272 25.8827 25.9002 26.2217 26.3362L27.8004 25.1083ZM27.8272 26.9534C28.3635 27.0856 28.9053 26.7581 29.0375 26.2219C29.1698 25.6857 28.8422 25.1438 28.306 25.0116L27.8272 26.9534ZM30.9448 25.6622C30.4086 25.53 29.8667 25.8575 29.7345 26.3937C29.6023 26.93 29.9298 27.4718 30.4661 27.604L30.9448 25.6622ZM32.761 26.0936C32.761 25.5413 32.3133 25.0936 31.761 25.0936C31.2087 25.0936 30.761 25.5413 30.761 26.0936H32.761ZM30.761 24.0942C30.761 24.6465 31.2087 25.0942 31.761 25.0942C32.3133 25.0942 32.761 24.6465 32.761 24.0942H30.761ZM33.5218 23.5321C34.0158 23.2851 34.216 22.6845 33.969 22.1905C33.722 21.6965 33.1213 21.4963 32.6274 21.7433L33.5218 23.5321ZM35.9114 20.1013C35.4174 20.3483 35.2172 20.9489 35.4641 21.4429C35.7111 21.9369 36.3118 22.1371 36.8058 21.8901L35.9114 20.1013ZM36.7847 20.7997C37.0391 21.2899 37.6427 21.481 38.1329 21.2265C38.6231 20.9721 38.8142 20.3685 38.5598 19.8783L36.7847 20.7997ZM38.5599 19.8785C38.3054 19.3883 37.7018 19.1972 37.2116 19.4517C36.7214 19.7061 36.5303 20.3097 36.7848 20.7999L38.5599 19.8785ZM38.6724 20.3392C38.6724 19.7869 38.2246 19.3392 37.6724 19.3392C37.1201 19.3392 36.6724 19.7869 36.6724 20.3392H38.6724ZM36.6724 20.339C36.6724 20.8913 37.1201 21.339 37.6724 21.339C38.2246 21.339 38.6724 20.8913 38.6724 20.339H36.6724ZM39.0056 21.823C39.5309 21.9935 40.0949 21.7059 40.2654 21.1806C40.4359 20.6552 40.1483 20.0912 39.623 19.9207L39.0056 21.823ZM43.7278 21.253C43.2025 21.0825 42.6385 21.3701 42.468 21.8954C42.2975 22.4207 42.5851 22.9848 43.1104 23.1553L43.7278 21.253ZM46.061 21.4066C46.061 20.8543 45.6133 20.4066 45.061 20.4066C44.5088 20.4066 44.061 20.8543 44.061 21.4066H46.061ZM44.061 18.0805C44.061 18.6328 44.5088 19.0805 45.061 19.0805C45.6133 19.0805 46.061 18.6328 46.061 18.0805H44.061ZM47.5999 16.5869C48.0928 16.3377 48.2903 15.7361 48.0411 15.2432C47.7919 14.7504 47.1903 14.5529 46.6975 14.8021L47.5999 16.5869ZM51.9166 12.1632C51.4237 12.4124 51.2262 13.0139 51.4754 13.5068C51.7246 13.9997 52.3261 14.1972 52.819 13.948L51.9166 12.1632ZM53.6385 12.5767C53.957 13.0279 54.5809 13.1355 55.0321 12.817C55.4833 12.4985 55.5909 11.8746 55.2724 11.4234L53.6385 12.5767ZM55.2725 11.4235C54.954 10.9723 54.3301 10.8647 53.8789 11.1832C53.4277 11.5017 53.3201 12.1256 53.6386 12.5768L55.2725 11.4235ZM55.4556 12.0002C55.4556 11.4479 55.0079 11.0002 54.4556 11.0002C53.9033 11.0002 53.4556 11.4479 53.4556 12.0002H55.4556ZM53.4556 12C53.4556 12.5523 53.9033 13 54.4556 13C55.0079 13 55.4556 12.5523 55.4556 12H53.4556ZM57.0577 14.4191C57.5517 14.6661 58.1524 14.4659 58.3994 13.9719C58.6464 13.4779 58.4461 12.8773 57.9522 12.6303L57.0577 14.4191ZM65.5756 16.442C65.0816 16.195 64.481 16.3952 64.234 16.8892C63.987 17.3832 64.1872 17.9839 64.6812 18.2308L65.5756 16.442ZM70.78 21.2802C71.2739 21.5272 71.8746 21.327 72.1216 20.833C72.3686 20.339 72.1684 19.7384 71.6744 19.4914L70.78 21.2802ZM79.2979 23.3031C78.8039 23.0561 78.2032 23.2563 77.9562 23.7503C77.7092 24.2443 77.9094 24.845 78.4034 25.092L79.2979 23.3031ZM82.3442 27.0623C82.8381 27.3093 83.4388 27.1091 83.6858 26.6151C83.9328 26.1211 83.7326 25.5205 83.2386 25.2735L82.3442 27.0623ZM85.467 26.3877C84.973 26.1407 84.3723 26.3409 84.1253 26.8349C83.8783 27.3289 84.0786 27.9295 84.5725 28.1765L85.467 26.3877ZM84.9111 32.6772C84.9111 33.2294 85.3588 33.6772 85.9111 33.6772C86.4634 33.6772 86.9111 33.2294 86.9111 32.6772H84.9111ZM86.9111 45.0506C86.9111 44.4983 86.4634 44.0506 85.9111 44.0506C85.3588 44.0506 84.9111 44.4983 84.9111 45.0506H86.9111ZM84.9111 54.9494C84.9111 55.5017 85.3588 55.9494 85.9111 55.9494C86.4634 55.9494 86.9111 55.5017 86.9111 54.9494H84.9111ZM86.9111 67.3228C86.9111 66.7706 86.4634 66.3228 85.9111 66.3228C85.3588 66.3228 84.9111 66.7706 84.9111 67.3228H86.9111ZM81.9688 73.1253C81.4748 73.3723 81.2746 73.973 81.5216 74.467C81.7686 74.961 82.3693 75.1612 82.8633 74.9142L81.9688 73.1253ZM74.1256 79.283C74.6196 79.036 74.8198 78.4354 74.5728 77.9414C74.3258 77.4474 73.7252 77.2472 73.2312 77.4942L74.1256 79.283ZM66.2411 80.9892C65.7471 81.2362 65.5469 81.8369 65.7938 82.3309C66.0408 82.8248 66.6415 83.0251 67.1355 82.7781L66.2411 80.9892ZM58.3978 87.1469C58.8918 86.8999 59.092 86.2992 58.8451 85.8053C58.5981 85.3113 57.9974 85.1111 57.5034 85.358L58.3978 87.1469ZM54.4555 87C53.9032 87 53.4555 87.4477 53.4555 88C53.4555 88.5523 53.9032 89 54.4555 89V87ZM54.4555 89C55.0077 89 55.4555 88.5523 55.4555 88C55.4555 87.4477 55.0077 87 54.4555 87V89ZM52.819 86.052C52.3261 85.8028 51.7246 86.0004 51.4754 86.4932C51.2262 86.9861 51.4237 87.5876 51.9166 87.8369L52.819 86.052ZM46.6975 85.198C47.1903 85.4472 47.7919 85.2496 48.0411 84.7568C48.2903 84.2639 48.0928 83.6623 47.5999 83.4131L46.6975 85.198ZM46.061 83.25V81.8961H44.061V83.25H46.061ZM46.061 78.5113V77.1574H44.061V78.5113H46.061ZM44.7523 76.2063L43.1241 76.7347L43.7415 78.637L45.3697 78.1086L44.7523 76.2063ZM39.0537 78.0558L37.4255 78.5842L38.0429 80.4865L39.6711 79.9581L39.0537 78.0558ZM36.8373 79.0931L36.8235 79.121L38.6173 80.0056L38.631 79.9777L36.8373 79.0931ZM36.7891 79.1908L36.7753 79.2188L38.569 80.1034L38.5828 80.0755L36.7891 79.1908ZM38.1194 78.7667L36.8058 78.1099L35.9114 79.8987L37.225 80.5555L38.1194 78.7667ZM33.5218 76.4679L32.2082 75.8111L31.3138 77.5999L32.6274 78.2567L33.5218 76.4679ZM32.761 76.7055V75.9202H30.761V76.7055H32.761ZM32.761 73.9569V73.1716H30.761V73.9569H32.761ZM31.5342 72.1977L30.4786 72.4435L30.9323 74.3914L31.9878 74.1456L31.5342 72.1977ZM27.8398 73.058L26.7843 73.3038L27.2379 75.2517L28.2934 75.0059L27.8398 73.058ZM27.0111 73.2778H27.0111V75.2778H27.0111V73.2778ZM27.011 73.2778H27.011V75.2778H27.011V73.2778ZM27.4582 73.3833L26.5669 72.9377L25.6724 74.7265L26.5638 75.1722L27.4582 73.3833ZM24.3386 71.8235L23.4472 71.3778L22.5528 73.1667L23.4441 73.6123L24.3386 71.8235ZM24 72.2722V67.3228H22V72.2722H24ZM24 54.9494V45.0506H22V54.9494H24ZM24 32.6772V27.7278H22V32.6772H24ZM23.4472 28.6222L24.3385 28.1765L23.4441 26.3877L22.5528 26.8333L23.4472 28.6222ZM26.5669 27.0624L27.4582 26.6167L26.5638 24.8278L25.6724 25.2735L26.5669 27.0624ZM28.011 25.7223V25.7223H26.011V25.7223H28.011ZM28.011 25.7222V25.7222H26.011V25.7222H28.011ZM26.7685 26.6924L26.7685 26.6924L27.2535 24.7521L27.2535 24.7521L26.7685 26.6924ZM26.7685 26.6924L26.7685 26.6924L27.2536 24.7521L27.2536 24.7521L26.7685 26.6924ZM27.4643 26.6136L27.4643 26.6136L26.5578 24.8309L26.5578 24.8309L27.4643 26.6136ZM27.4643 26.6136L27.4643 26.6136L26.5578 24.8308L26.5578 24.8308L27.4643 26.6136ZM26.2217 26.3362L26.2217 26.3362L27.8004 25.1083L27.8004 25.1083L26.2217 26.3362ZM26.2217 26.3362L26.2217 26.3362L27.8004 25.1083L27.8004 25.1083L26.2217 26.3362ZM26.7717 26.6932L27.8272 26.9534L28.306 25.0116L27.2505 24.7513L26.7717 26.6932ZM30.4661 27.604L31.5216 27.8643L32.0004 25.9224L30.9448 25.6622L30.4661 27.604ZM32.761 26.8934V26.0936H30.761V26.8934H32.761ZM32.761 24.0942V23.2945H30.761V24.0942H32.761ZM32.2082 24.1889L33.5218 23.5321L32.6274 21.7433L31.3138 22.4001L32.2082 24.1889ZM36.8058 21.8901L38.1194 21.2333L37.225 19.4445L35.9114 20.1013L36.8058 21.8901ZM36.7846 20.7996L36.7847 20.7997L38.5598 19.8783L38.5597 19.8782L36.7846 20.7996ZM36.7848 20.7999L36.7848 20.8L38.5599 19.8786L38.5599 19.8785L36.7848 20.7999ZM38.6724 20.3393V20.3392H36.6724V20.3393H38.6724ZM38.6724 20.339V20.3389H36.6724V20.339H38.6724ZM37.3636 21.2901L39.0056 21.823L39.623 19.9207L37.9811 19.3878L37.3636 21.2901ZM43.1104 23.1553L44.7523 23.6882L45.3698 21.7859L43.7278 21.253L43.1104 23.1553ZM46.061 22.7371V21.4066H44.061V22.7371H46.061ZM46.061 18.0805V16.75H44.061V18.0805H46.061ZM45.5123 17.6424L47.5999 16.5869L46.6975 14.8021L44.6098 15.8576L45.5123 17.6424ZM52.819 13.948L54.9067 12.8924L54.0042 11.1076L51.9166 12.1632L52.819 13.948ZM53.6384 12.5767L53.6385 12.5767L55.2724 11.4234L55.2724 11.4233L53.6384 12.5767ZM53.6386 12.5768L53.6386 12.5769L55.2725 11.4235L55.2725 11.4235L53.6386 12.5768ZM55.4556 12.0002V12.0002H53.4556V12.0002H55.4556ZM55.4556 12V12H53.4556V12H55.4556ZM54.0084 12.8944L57.0577 14.4191L57.9522 12.6303L54.9028 11.1056L54.0084 12.8944ZM64.6812 18.2308L70.78 21.2802L71.6744 19.4914L65.5756 16.442L64.6812 18.2308ZM78.4034 25.092L81.4528 26.6167L82.3472 24.8278L79.2979 23.3031L78.4034 25.092ZM81.4528 26.6167L82.3442 27.0623L83.2386 25.2735L82.3472 24.8278L81.4528 26.6167ZM84.5725 28.1765L85.4639 28.6222L86.3583 26.8333L85.467 26.3877L84.5725 28.1765ZM84.9111 27.7278V32.6772H86.9111V27.7278H84.9111ZM84.9111 45.0506V54.9494H86.9111V45.0506H84.9111ZM84.9111 67.3228V72.2722H86.9111V67.3228H84.9111ZM85.4639 71.3778L81.9688 73.1253L82.8633 74.9142L86.3583 73.1667L85.4639 71.3778ZM73.2312 77.4942L66.2411 80.9892L67.1355 82.7781L74.1256 79.283L73.2312 77.4942ZM57.5034 85.358L54.0084 87.1056L54.9028 88.8944L58.3978 87.1469L57.5034 85.358ZM54.4556 87H54.4555V89H54.4556V87ZM54.4555 87H54.4554V89H54.4555V87ZM54.9066 87.1076L52.819 86.052L51.9166 87.8369L54.0042 88.8924L54.9066 87.1076ZM47.5999 83.4131L45.5123 82.3576L44.6098 84.1424L46.6975 85.198L47.5999 83.4131Z" fill="black" mask="url(#path-1-inside-1)"/>
<path d="M13 66.2722L17.0111 68.2778L17.6692 67.1092V20.5809L17.0111 19.7222L13 21.7278V66.2722Z" fill="#9D5025"/>
<path d="M24.7166 21.6221L17.011 19.7222V68.2778L24.7166 66.4833V21.6221Z" fill="#F68536"/>
<path d="M48.3611 25.3166L53.8498 22.4667L72.111 29.5388L67.2555 30.1721L48.3611 25.3166Z" fill="#6B3A19"/>
<path d="M48.5723 62.6834L53.9556 65.5333L72.2165 58.4612L67.361 57.8277L48.5723 62.6834Z" fill="#FBBF93"/>
<path d="M49.9444 54.8721L59.5499 56.1389L60.1013 55.1493V33.0321L59.5499 31.8611L49.9444 33.1277V54.8721ZM21.761 17.2945L27.6722 14.3389L28.318 15.5841V72.3515L27.6722 73.6611L21.761 70.7055V17.2945Z" fill="#9D5025"/>
<path d="M39.7056 69.65L27.6724 73.5554V14.3389L39.7056 18.2446V69.65Z" fill="#F68536"/>
<path d="M35.061 77.25L44.4554 82L45.4384 80.8708V7.39264L44.4554 6L35.061 10.75V77.25ZM67.0442 30.1721L71.8999 29.5388L72.3169 30.1446V57.8525L71.8999 58.5666L67.0442 57.9333V30.1721Z" fill="#9D5025"/>
<path d="M59.55 31.8611V56.2443L69.5777 44L59.55 31.8611Z" fill="#F68536"/>
<path d="M71.9 19.7222L44.4556 6V82L75.9111 66.2722V21.7278L71.9 19.7222ZM71.9 58.6035L53.85 63.9942V24.0058L71.9 29.3965V58.6035Z" fill="#F68536"/>
</svg>
