<svg width="98" height="93" viewBox="0 0 98 93" fill="none" xmlns="http://www.w3.org/2000/svg">
<path d="M44.399 32.994C58.4264 32.994 69.7979 28.7421 69.7979 23.497C69.7979 18.252 58.4264 14 44.399 14C30.3715 14 19 18.252 19 23.497C19 28.7421 30.3715 32.994 44.399 32.994Z" fill="#F7F7FE" stroke="black" stroke-miterlimit="10" stroke-linecap="round" stroke-linejoin="round" stroke-dasharray="8 10"/>
<path d="M57.0322 51.8997C53.3217 52.6948 48.9929 53.1365 44.4431 53.1365C30.3964 53.1365 19 48.896 19 43.6395" fill="#F7F7FE"/>
<path d="M57.0322 51.8997C53.3217 52.6948 48.9929 53.1365 44.4431 53.1365C30.3964 53.1365 19 48.896 19 43.6395" stroke="black" stroke-miterlimit="10" stroke-linecap="round" stroke-linejoin="round" stroke-dasharray="8 10"/>
<path d="M51.4223 72.1747C49.2137 72.3955 46.8284 72.528 44.399 72.528C30.3522 72.528 19 68.2875 19 63.031" fill="#F7F7FE"/>
<path d="M51.4223 72.1747C49.2137 72.3955 46.8284 72.528 44.399 72.528C30.3522 72.528 19 68.2875 19 63.031" stroke="black" stroke-miterlimit="10" stroke-linecap="round" stroke-linejoin="round" stroke-dasharray="8 10"/>
<path d="M69.8421 80.3023C69.8421 85.5146 58.4457 89.7993 44.4431 89.7993C30.4406 89.7993 19 85.5146 19 80.3023" fill="#F7F7FE"/>
<path d="M69.8421 80.3023C69.8421 85.5146 58.4457 89.7993 44.4431 89.7993C30.4406 89.7993 19 85.5146 19 80.3023" stroke="black" stroke-miterlimit="10" stroke-linecap="round" stroke-linejoin="round" stroke-dasharray="8 10"/>
<path d="M19 23.497V80.3023" stroke="black" stroke-miterlimit="10" stroke-linecap="round" stroke-linejoin="round" stroke-dasharray="8 10"/>
<path d="M69.842 72.7489V80.3023" stroke="black" stroke-miterlimit="10" stroke-linecap="round" stroke-linejoin="round" stroke-dasharray="8 10"/>
<path d="M69.842 23.497V44.6113" stroke="black" stroke-miterlimit="10" stroke-linecap="round" stroke-linejoin="round" stroke-dasharray="8 10"/>
<path d="M78.2348 70.7612C82.0893 70.7612 85.214 67.6365 85.214 63.782C85.214 59.9275 82.0893 56.8028 78.2348 56.8028C74.3803 56.8028 71.2556 59.9275 71.2556 63.782C71.2556 67.6365 74.3803 70.7612 78.2348 70.7612Z" fill="#F7F7FE" stroke="black" stroke-miterlimit="10" stroke-linecap="round" stroke-linejoin="round" stroke-dasharray="8 10"/>
<path d="M90.603 47.9684C92.9938 47.9684 94.9319 46.0303 94.9319 43.6395C94.9319 41.2487 92.9938 39.3106 90.603 39.3106C88.2123 39.3106 86.2742 41.2487 86.2742 43.6395C86.2742 46.0303 88.2123 47.9684 90.603 47.9684Z" fill="#F7F7FE" stroke="black" stroke-miterlimit="10" stroke-linecap="round" stroke-linejoin="round" stroke-dasharray="8 10"/>
<path d="M67.1372 51.7558C68.4431 50.6178 68.5791 48.6367 67.4411 47.3309C66.3032 46.0251 64.3221 45.889 63.0163 47.027C61.7104 48.165 61.5744 50.1461 62.7124 51.4519C63.8503 52.7577 65.8314 52.8938 67.1372 51.7558Z" fill="#F7F7FE" stroke="black" stroke-miterlimit="10" stroke-linecap="round" stroke-linejoin="round" stroke-dasharray="8 10"/>
<path d="M62.595 71.7816C64.5261 70.0987 64.7273 67.1689 63.0444 65.2378C61.3615 63.3066 58.4317 63.1054 56.5005 64.7884C54.5694 66.4713 54.3682 69.4011 56.0511 71.3322C57.734 73.2634 60.6638 73.4646 62.595 71.7816Z" fill="#F7F7FE" stroke="black" stroke-miterlimit="10" stroke-linecap="round" stroke-linejoin="round" stroke-dasharray="8 10"/>
<path d="M82.6939 88.5348C84.7537 86.7397 84.9684 83.6146 83.1732 81.5547C81.3781 79.4948 78.253 79.2802 76.1931 81.0753C74.1332 82.8704 73.9186 85.9955 75.7137 88.0554C77.5089 90.1153 80.634 90.3299 82.6939 88.5348Z" fill="#F7F7FE" stroke="black" stroke-miterlimit="10" stroke-linecap="round" stroke-linejoin="round" stroke-dasharray="8 10"/>
<path d="M94.7355 78.7776C95.9862 77.6877 96.1165 75.7903 95.0266 74.5397C93.9367 73.2891 92.0393 73.1587 90.7887 74.2486C89.538 75.3385 89.4077 77.2359 90.4976 78.4866C91.5875 79.7372 93.4849 79.8675 94.7355 78.7776Z" fill="#F7F7FE" stroke="black" stroke-miterlimit="10" stroke-linecap="round" stroke-linejoin="round" stroke-dasharray="8 10"/>
<path d="M67.1477 51.723L73.5527 58.5697" stroke="black" stroke-miterlimit="10" stroke-linecap="round" stroke-linejoin="round" stroke-dasharray="8 10"/>
<path d="M63.9231 66.7415L71.2115 65.0188" stroke="black" stroke-miterlimit="10" stroke-linecap="round" stroke-linejoin="round" stroke-dasharray="8 10"/>
<path d="M78.9858 70.7612V79.5514" stroke="black" stroke-miterlimit="10" stroke-linecap="round" stroke-linejoin="round" stroke-dasharray="8 10"/>
<path d="M32 5L11 12L17 75.5L41 78.5L60 71V13.5L57.5 9L32 5Z" fill="white"/>
<circle cx="67.5" cy="54.5" r="6.5" fill="white"/>
<circle cx="69.5" cy="74.5" r="4.5" fill="white"/>
<path fill-rule="evenodd" clip-rule="evenodd" d="M10.5 15.279C10.5 14.5826 10.8722 13.7383 11.9437 12.791C13.0132 11.8456 14.6465 10.9257 16.7938 10.1228C21.0772 8.52116 27.0951 7.5 33.8161 7.5C40.537 7.5 46.5549 8.52116 50.8383 10.1228C52.9856 10.9257 54.619 11.8456 55.6885 12.791C56.76 13.7383 57.1321 14.5826 57.1321 15.279C57.1321 15.9755 56.76 16.8198 55.6885 17.767C54.619 18.7125 52.9856 19.6324 50.8383 20.4353C46.5549 22.0369 40.537 23.0581 33.8161 23.0581C27.0951 23.0581 21.0772 22.0369 16.7938 20.4353C14.6465 19.6324 13.0132 18.7125 11.9437 17.767C10.8722 16.8198 10.5 15.9755 10.5 15.279ZM15.7431 23.2453C13.681 22.4743 11.8842 21.5458 10.5 20.4655V34.9593C10.5 35.6581 10.8733 36.5036 11.9469 37.4512C13.0187 38.3972 14.6554 39.3169 16.8071 40.1193C21.0991 41.7198 27.1282 42.7383 33.8592 42.7383C38.2127 42.7383 42.3357 42.3152 45.8451 41.5632C46.6551 41.3896 47.4525 41.9056 47.6261 42.7156C47.7996 43.5256 47.2837 44.323 46.4736 44.4966C42.7324 45.2983 38.3964 45.7383 33.8592 45.7383C26.8659 45.7383 20.4654 44.6853 15.7589 42.9302C13.6902 42.1588 11.8877 41.2292 10.5 40.1466V53.9058C10.5 54.6068 10.8729 55.4526 11.9419 56.3993C13.0096 57.3447 14.6407 58.2641 16.7866 59.0662C21.0672 60.6663 27.085 61.6848 33.8161 61.6848C36.1365 61.6848 38.4171 61.5582 40.529 61.347C41.3533 61.2646 42.0884 61.866 42.1708 62.6903C42.2532 63.5146 41.6518 64.2497 40.8275 64.3321C38.6236 64.5525 36.2431 64.6848 33.8161 64.6848C26.8227 64.6848 20.4325 63.6318 15.7362 61.8763C13.6769 61.1065 11.8827 60.1793 10.5 59.0996V70.7807C10.5 71.4632 10.8701 72.303 11.9504 73.2522C13.0268 74.198 14.6691 75.1196 16.8242 75.9249C21.1228 77.5311 27.1521 78.5597 33.8592 78.5597C40.5663 78.5597 46.5844 77.5311 50.8716 75.9253C53.0208 75.1203 54.6576 74.199 55.7298 73.2538C56.8055 72.3055 57.1753 71.4654 57.1753 70.7807L57.1753 70.7731V63.4006C57.1753 62.5722 57.8469 61.9006 58.6753 61.9006C59.5037 61.9006 60.1753 62.5722 60.1753 63.4006L60.1753 70.7807L60.1753 70.7899C60.1719 72.6476 59.1508 74.2374 57.7136 75.5043C56.2705 76.7764 54.2684 77.8565 51.9238 78.7347C47.2233 80.4953 40.8333 81.5597 33.8592 81.5597C26.8851 81.5597 20.4848 80.4953 15.7741 78.7351C13.4245 77.8572 11.4173 76.7774 9.97023 75.5058C8.52711 74.2378 7.5 72.6446 7.5 70.7807V53.9058V34.9593V15.279C7.5 13.4131 8.51666 11.8164 9.95668 10.5434C11.3987 9.2686 13.3996 8.18906 15.7431 7.31278C20.4414 5.55603 26.8315 4.5 33.8161 4.5C40.8007 4.5 47.1907 5.55603 51.889 7.31278C54.2326 8.18906 56.2334 9.2686 57.6754 10.5434C59.0051 11.7189 59.9738 13.1703 60.1145 14.8549C60.1541 14.9894 60.1753 15.1317 60.1753 15.2791V35.9088C60.1753 36.7372 59.5037 37.4088 58.6753 37.4088C57.8469 37.4088 57.1753 36.7372 57.1753 35.9088V20.4317C55.7854 21.5265 53.9726 22.4662 51.889 23.2453C47.1907 25.0021 40.8007 26.0581 33.8161 26.0581C26.8315 26.0581 20.4414 25.0021 15.7431 23.2453ZM61.5562 54.6395C61.5562 51.7018 63.9376 49.3204 66.8752 49.3204C67.8684 49.3204 68.7979 49.5926 69.5934 50.0665C69.6572 50.1228 69.7267 50.1744 69.8016 50.2204C69.8527 50.2518 69.9049 50.2798 69.958 50.3044C71.3115 51.2687 72.1942 52.851 72.1942 54.6395C72.1942 57.5771 69.8128 59.9585 66.8752 59.9585C63.9376 59.9585 61.5562 57.5771 61.5562 54.6395ZM66.8752 46.3204C68.0003 46.3204 69.0733 46.5438 70.0521 46.9486L74.9229 39.0251C73.8775 37.9871 73.2302 36.5488 73.2302 34.9593C73.2302 31.7949 75.7954 29.2298 78.9597 29.2298C82.1241 29.2298 84.6893 31.7949 84.6893 34.9593C84.6893 38.1236 82.1241 40.6888 78.9597 40.6888C78.4668 40.6888 77.9884 40.6265 77.5319 40.5095L72.5724 48.5774C74.1863 50.0948 75.1942 52.2494 75.1942 54.6395C75.1942 58.46 72.6187 61.6791 69.1091 62.6551V68.9342C70.3761 69.1471 71.5857 69.7446 72.5475 70.7138L76.8363 68.4044C76.3271 66.7759 76.7869 64.928 78.1557 63.7351C80.0022 62.1259 82.8036 62.3183 84.4128 64.1648C86.0219 66.0113 85.8295 68.8127 83.983 70.4219C82.464 71.7457 80.2987 71.8502 78.6825 70.8176L74.1013 73.2844C74.8295 75.6107 74.173 78.251 72.2175 79.9551C69.5804 82.2533 65.5794 81.9785 63.2812 79.3413C60.983 76.7042 61.2578 72.7033 63.895 70.4051C64.5623 69.8235 65.3169 69.4068 66.1091 69.1513V62.9237C62.8941 62.6302 60.208 60.5074 59.1003 57.605L54.6371 58.66C54.7496 60.4672 54.0505 62.3048 52.5798 63.5864C50.0685 65.775 46.2584 65.5133 44.0698 63.0019C41.8812 60.4906 42.1429 56.6805 44.6543 54.4919C47.1657 52.3033 50.9757 52.565 53.1643 55.0764C53.365 55.3066 53.545 55.5478 53.7047 55.7977L58.5562 54.651L58.5562 54.6395C58.5562 52.7343 59.1966 50.9787 60.2739 49.5762L55.7928 44.7861C54.0256 45.5315 51.9069 45.1026 50.5782 43.5779C48.922 41.6775 49.12 38.7943 51.0204 37.1382C52.9208 35.482 55.804 35.6801 57.4601 37.5805C58.753 39.064 58.9159 41.1465 58.0211 42.7766L62.4989 47.5632C63.7702 46.7753 65.2696 46.3204 66.8752 46.3204ZM70.7668 73.2389C70.7829 73.2755 70.8006 73.3118 70.8199 73.3476C70.8706 73.4417 70.9298 73.5282 70.9961 73.6066C71.7149 74.9466 71.4414 76.652 70.2465 77.6934C68.8585 78.903 66.7526 78.7584 65.5429 77.3703C64.3333 75.9823 64.4779 73.8764 65.866 72.6668C67.254 71.4571 69.3599 71.6018 70.5695 72.9898C70.6399 73.0705 70.7056 73.1536 70.7668 73.2389ZM80.0745 68.1124C80.6044 68.6235 81.4466 68.6529 82.012 68.1601C82.6094 67.6395 82.6717 66.7332 82.1511 66.1358C81.6304 65.5384 80.7241 65.4762 80.1267 65.9968C79.558 66.4924 79.4743 67.3376 79.9167 67.933C79.9734 67.9879 80.0262 68.0478 80.0745 68.1124ZM55.1751 41.6332C55.1206 41.672 55.068 41.7148 55.0177 41.7618C54.987 41.7906 54.9577 41.8204 54.9299 41.8511C54.282 42.3162 53.3744 42.2203 52.8399 41.6069C52.2723 40.9556 52.3401 39.9675 52.9914 39.3999C53.6427 38.8323 54.6308 38.9002 55.1984 39.5515C55.7262 40.1571 55.7045 41.0541 55.1751 41.6332ZM78.9597 32.2298C77.4523 32.2298 76.2302 33.4518 76.2302 34.9593C76.2302 36.4667 77.4523 37.6888 78.9597 37.6888C80.4672 37.6888 81.6893 36.4667 81.6893 34.9593C81.6893 33.4518 80.4672 32.2298 78.9597 32.2298ZM46.6253 56.7536C45.363 57.8537 45.2315 59.7687 46.3315 61.0309C47.4315 62.2932 49.3466 62.4247 50.6088 61.3247C51.8711 60.2247 52.0026 58.3097 50.9026 57.0474C49.8026 55.7851 47.8876 55.6536 46.6253 56.7536Z" fill="url(#paint0_linear)"/>
<defs>
<linearGradient id="paint0_linear" x1="46.5021" y1="4.5" x2="46.5021" y2="81.5597" gradientUnits="userSpaceOnUse">
<stop stop-color="#F1633D"/>
<stop offset="1" stop-color="#F7971D"/>
</linearGradient>
</defs>
</svg>
