<svg width="88" height="88" viewBox="0 0 88 88" fill="none" xmlns="http://www.w3.org/2000/svg">
<mask id="path-1-outside-1" maskUnits="userSpaceOnUse" x="13" y="9" width="70" height="78" fill="black">
<rect fill="white" x="13" y="9" width="70" height="78"/>
<path fill-rule="evenodd" clip-rule="evenodd" d="M21.9624 78.4562L37.1747 85.9989L37.1853 85.982V86H58.8136V85.9827L58.8242 85.9989L74.0366 78.4562L82 69.2044V26.7848L74.0366 17.5354L74.0366 17.5185L58.8136 10H37.1853L21.9624 17.5185V17.5367L21.9613 17.5354L14 26.7848V69.2033L21.9613 78.4562L21.9624 78.455V78.4562Z"/>
</mask>
<path fill-rule="evenodd" clip-rule="evenodd" d="M21.9624 78.4562L37.1747 85.9989L37.1853 85.982V86H58.8136V85.9827L58.8242 85.9989L74.0366 78.4562L82 69.2044V26.7848L74.0366 17.5354L74.0366 17.5185L58.8136 10H37.1853L21.9624 17.5185V17.5367L21.9613 17.5354L14 26.7848V69.2033L21.9613 78.4562L21.9624 78.455V78.4562Z" fill="#F7F7FE"/>
<path d="M37.1747 85.9989L36.9526 86.4469C37.1828 86.561 37.462 86.4821 37.5984 86.2644L37.1747 85.9989ZM21.9624 78.4562H21.4624C21.4624 78.6462 21.57 78.8198 21.7403 78.9042L21.9624 78.4562ZM37.1853 85.982H37.6853C37.6853 85.7591 37.5377 85.563 37.3235 85.5015C37.1092 85.4399 36.88 85.5276 36.7616 85.7165L37.1853 85.982ZM37.1853 86H36.6853C36.6853 86.2761 36.9092 86.5 37.1853 86.5V86ZM58.8136 86V86.5C59.0897 86.5 59.3136 86.2761 59.3136 86H58.8136ZM58.8136 85.9827L59.2317 85.7085C59.1104 85.5237 58.8822 85.4404 58.6705 85.5037C58.4587 85.5669 58.3136 85.7617 58.3136 85.9827H58.8136ZM58.8242 85.9989L58.4061 86.2732C58.5449 86.4847 58.8197 86.5593 59.0463 86.4469L58.8242 85.9989ZM74.0366 78.4562L74.2587 78.9042C74.3186 78.8745 74.3719 78.8331 74.4155 78.7824L74.0366 78.4562ZM82 69.2044L82.379 69.5306C82.4571 69.4398 82.5 69.3241 82.5 69.2044H82ZM82 26.7848H82.5C82.5 26.6651 82.457 26.5493 82.3789 26.4586L82 26.7848ZM74.0366 17.5354L73.5366 17.5358C73.5367 17.6554 73.5796 17.771 73.6577 17.8616L74.0366 17.5354ZM74.0366 17.5185L74.5366 17.518C74.5364 17.3279 74.4284 17.1544 74.258 17.0702L74.0366 17.5185ZM58.8136 10L59.035 9.5517C58.9662 9.51769 58.8904 9.5 58.8136 9.5V10ZM37.1853 10V9.5C37.1085 9.5 37.0328 9.51769 36.9639 9.5517L37.1853 10ZM21.9624 17.5185L21.741 17.0702C21.5704 17.1544 21.4624 17.3282 21.4624 17.5185H21.9624ZM21.9624 17.5367L21.572 17.8491C21.7047 18.0149 21.9276 18.0788 22.1279 18.0085C22.3283 17.9382 22.4624 17.749 22.4624 17.5367H21.9624ZM21.9613 17.5354L22.3517 17.2229C22.2587 17.1068 22.1189 17.0381 21.9702 17.0354C21.8215 17.0328 21.6794 17.0965 21.5824 17.2092L21.9613 17.5354ZM14 26.7848L13.621 26.4587C13.543 26.5494 13.5 26.6651 13.5 26.7848H14ZM14 69.2033H13.5C13.5 69.323 13.5429 69.4387 13.621 69.5294L14 69.2033ZM21.9613 78.4562L21.5823 78.7823C21.6777 78.8932 21.8169 78.9568 21.9632 78.9562C22.1095 78.9557 22.2482 78.8911 22.3428 78.7794L21.9613 78.4562ZM21.9624 78.455H22.4624C22.4624 78.2452 22.3314 78.0577 22.1345 77.9855C21.9375 77.9133 21.7165 77.9717 21.5809 78.1318L21.9624 78.455ZM34.0163 83.8748C33.7689 83.7522 33.4689 83.8533 33.3462 84.1007C33.2236 84.3481 33.3247 84.6481 33.5721 84.7707L34.0163 83.8748ZM25.1208 80.5803C25.3682 80.703 25.6682 80.6019 25.7909 80.3545C25.9135 80.1071 25.8124 79.8071 25.565 79.6844L25.1208 80.5803ZM22.4624 78.4559C22.4624 78.1798 22.2385 77.9559 21.9624 77.9559C21.6862 77.9559 21.4624 78.1798 21.4624 78.4559H22.4624ZM21.4624 78.4552C21.4624 78.7314 21.6862 78.9552 21.9624 78.9552C22.2385 78.9552 22.4624 78.7314 22.4624 78.4552H21.4624ZM21.5806 78.132C21.4021 78.3428 21.4282 78.6582 21.6389 78.8367C21.8496 79.0153 22.1651 78.9891 22.3436 78.7785L21.5806 78.132ZM22.343 78.7791C22.5215 78.5684 22.4954 78.2529 22.2847 78.0744C22.074 77.8959 21.7585 77.9221 21.58 78.1327L22.343 78.7791ZM20.5711 76.0739C20.391 75.8646 20.0753 75.8409 19.866 76.021C19.6567 76.2011 19.633 76.5168 19.8131 76.7261L20.5711 76.0739ZM15.3902 71.5856C15.5703 71.795 15.886 71.8186 16.0953 71.6385C16.3046 71.4584 16.3283 71.1427 16.1482 70.9334L15.3902 71.5856ZM14.5 64.4902C14.5 64.214 14.2761 63.9902 14 63.9902C13.7239 63.9902 13.5 64.214 13.5 64.4902H14.5ZM13.5 52.7072C13.5 52.9834 13.7239 53.2072 14 53.2072C14.2761 53.2072 14.5 52.9834 14.5 52.7072H13.5ZM14.5 43.2809C14.5 43.0048 14.2761 42.7809 14 42.7809C13.7239 42.7809 13.5 43.0048 13.5 43.2809H14.5ZM13.5 31.498C13.5 31.7741 13.7239 31.998 14 31.998C14.2761 31.998 14.5 31.7741 14.5 31.498H13.5ZM16.1481 25.0556C16.3283 24.8463 16.3047 24.5306 16.0954 24.3504C15.8861 24.1703 15.5704 24.1939 15.3902 24.4032L16.1481 25.0556ZM19.8132 19.2646C19.633 19.4739 19.6567 19.7896 19.866 19.9698C20.0752 20.1499 20.3909 20.1263 20.5711 19.917L19.8132 19.2646ZM21.5712 17.8481C21.7438 18.0637 22.0584 18.0986 22.274 17.926C22.4896 17.7534 22.5245 17.4388 22.3519 17.2232L21.5712 17.8481ZM22.3525 17.2239C22.1799 17.0083 21.8652 16.9735 21.6497 17.146C21.4341 17.3186 21.3992 17.6333 21.5718 17.8489L22.3525 17.2239ZM22.4624 17.5326C22.4624 17.2565 22.2385 17.0326 21.9624 17.0326C21.6862 17.0326 21.4624 17.2565 21.4624 17.5326H22.4624ZM21.4624 17.5225C21.4624 17.7987 21.6862 18.0225 21.9624 18.0225C22.2385 18.0225 22.4624 17.7987 22.4624 17.5225H21.4624ZM25.5667 16.296C25.8143 16.1737 25.9158 15.8739 25.7936 15.6263C25.6713 15.3787 25.3714 15.2771 25.1238 15.3994L25.5667 16.296ZM33.581 11.2225C33.3335 11.3448 33.2319 11.6446 33.3542 11.8922C33.4764 12.1398 33.7763 12.2414 34.0239 12.1191L33.581 11.2225ZM41.9916 10.5C42.2678 10.5 42.4916 10.2761 42.4916 10C42.4916 9.72386 42.2678 9.5 41.9916 9.5V10.5ZM54.0073 9.5C53.7312 9.5 53.5073 9.72386 53.5073 10C53.5073 10.2761 53.7312 10.5 54.0073 10.5V9.5ZM61.9751 12.1191C62.2227 12.2414 62.5225 12.1398 62.6448 11.8922C62.7671 11.6446 62.6655 11.3448 62.4179 11.2225L61.9751 12.1191ZM70.8751 15.3994C70.6275 15.2771 70.3277 15.3787 70.2054 15.6263C70.0831 15.8739 70.1847 16.1737 70.4323 16.296L70.8751 15.3994ZM73.5366 17.5227C73.5368 17.7988 73.7609 18.0225 74.037 18.0222C74.3132 18.022 74.5368 17.7979 74.5366 17.5218L73.5366 17.5227ZM74.5366 17.5312C74.5363 17.255 74.3123 17.0314 74.0361 17.0316C73.76 17.0319 73.5363 17.2559 73.5366 17.5321L74.5366 17.5312ZM75.4273 19.917C75.6075 20.1263 75.9232 20.1499 76.1325 19.9697C76.3417 19.7895 76.3653 19.4738 76.1851 19.2646L75.4273 19.917ZM80.6093 24.4032C80.4291 24.1939 80.1134 24.1703 79.9041 24.3505C79.6949 24.5307 79.6713 24.8464 79.8514 25.0556L80.6093 24.4032ZM81.5 31.4981C81.5 31.7743 81.7239 31.9981 82 31.9981C82.2762 31.9981 82.5 31.7743 82.5 31.4981H81.5ZM82.5 43.2813C82.5 43.0052 82.2762 42.7813 82 42.7813C81.7239 42.7813 81.5 43.0052 81.5 43.2813H82.5ZM81.5 52.7079C81.5 52.984 81.7239 53.2079 82 53.2079C82.2762 53.2079 82.5 52.984 82.5 52.7079H81.5ZM82.5 64.4911C82.5 64.2149 82.2762 63.9911 82 63.9911C81.7239 63.9911 81.5 64.2149 81.5 64.4911H82.5ZM79.8514 70.9342C79.6713 71.1434 79.6949 71.4591 79.9042 71.6393C80.1135 71.8194 80.4292 71.7958 80.6093 71.5865L79.8514 70.9342ZM76.1852 76.7264C76.3653 76.5171 76.3417 76.2014 76.1324 76.0213C75.9231 75.8412 75.6074 75.8648 75.4273 76.0741L76.1852 76.7264ZM70.4339 79.6844C70.1865 79.8071 70.0854 80.1071 70.2081 80.3545C70.3308 80.6019 70.6308 80.703 70.8782 80.5803L70.4339 79.6844ZM62.4269 84.7707C62.6743 84.6481 62.7754 84.3481 62.6527 84.1007C62.53 83.8533 62.23 83.7522 61.9826 83.8748L62.4269 84.7707ZM59.2399 85.7211C59.0885 85.4902 58.7785 85.4258 58.5476 85.5773C58.3167 85.7287 58.2523 86.0387 58.4038 86.2696L59.2399 85.7211ZM58.3979 86.2606C58.5493 86.4915 58.8593 86.5559 59.0902 86.4044C59.3211 86.2529 59.3855 85.943 59.234 85.7121L58.3979 86.2606ZM58.3136 85.9866C58.3136 86.2627 58.5374 86.4866 58.8136 86.4866C59.0897 86.4866 59.3136 86.2627 59.3136 85.9866H58.3136ZM59.3136 85.9962C59.3136 85.72 59.0897 85.4962 58.8136 85.4962C58.5374 85.4962 58.3136 85.72 58.3136 85.9962H59.3136ZM54.0073 85.5C53.7312 85.5 53.5073 85.7239 53.5073 86C53.5073 86.2761 53.7312 86.5 54.0073 86.5V85.5ZM41.9916 86.5C42.2678 86.5 42.4916 86.2761 42.4916 86C42.4916 85.7239 42.2678 85.5 41.9916 85.5V86.5ZM37.6853 85.996C37.6853 85.7199 37.4615 85.496 37.1853 85.496C36.9092 85.496 36.6853 85.7199 36.6853 85.996H37.6853ZM36.6853 85.986C36.6853 86.2621 36.9092 86.486 37.1853 86.486C37.4615 86.486 37.6853 86.2621 37.6853 85.986H36.6853ZM36.7593 85.7203C36.6127 85.9543 36.6835 86.2628 36.9175 86.4095C37.1515 86.5561 37.46 86.4853 37.6067 86.2513L36.7593 85.7203ZM37.6008 86.2607C37.7474 86.0267 37.6766 85.7181 37.4426 85.5715C37.2086 85.4249 36.9 85.4957 36.7534 85.7297L37.6008 86.2607ZM37.3968 85.551L34.0163 83.8748L33.5721 84.7707L36.9526 86.4469L37.3968 85.551ZM25.565 79.6844L22.1845 78.0083L21.7403 78.9042L25.1208 80.5803L25.565 79.6844ZM22.4624 78.4562V78.4559H21.4624V78.4562H22.4624ZM22.4624 78.4552V78.455H21.4624V78.4552H22.4624ZM21.5809 78.1318L21.5806 78.132L22.3436 78.7785L22.3439 78.7782L21.5809 78.1318ZM21.58 78.1327L21.5798 78.133L22.3428 78.7794L22.343 78.7791L21.58 78.1327ZM22.3403 78.1301L20.5711 76.0739L19.8131 76.7261L21.5823 78.7823L22.3403 78.1301ZM16.1482 70.9334L14.379 68.8772L13.621 69.5294L15.3902 71.5856L16.1482 70.9334ZM14.5 69.2033V64.4902H13.5V69.2033H14.5ZM14.5 52.7072V43.2809H13.5V52.7072H14.5ZM14.5 31.498V26.7848H13.5V31.498H14.5ZM14.379 27.111L16.1481 25.0556L15.3902 24.4032L13.621 26.4587L14.379 27.111ZM20.5711 19.917L22.3403 17.8615L21.5824 17.2092L19.8132 19.2646L20.5711 19.917ZM21.571 17.8478L21.5712 17.8481L22.3519 17.2232L22.3517 17.2229L21.571 17.8478ZM21.5718 17.8489L21.572 17.8491L22.3527 17.2242L22.3525 17.2239L21.5718 17.8489ZM22.4624 17.5367V17.5326H21.4624V17.5367H22.4624ZM22.4624 17.5225V17.5185H21.4624V17.5225H22.4624ZM22.1838 17.9668L25.5667 16.296L25.1238 15.3994L21.741 17.0702L22.1838 17.9668ZM34.0239 12.1191L37.4068 10.4483L36.9639 9.5517L33.581 11.2225L34.0239 12.1191ZM37.1853 10.5H41.9916V9.5H37.1853V10.5ZM54.0073 10.5H58.8136V9.5H54.0073V10.5ZM58.5922 10.4483L61.9751 12.1191L62.4179 11.2225L59.035 9.5517L58.5922 10.4483ZM70.4323 16.296L73.8151 17.9668L74.258 17.0702L70.8751 15.3994L70.4323 16.296ZM73.5366 17.5189L73.5366 17.5227L74.5366 17.5218L74.5366 17.518L73.5366 17.5189ZM73.5366 17.5321L73.5366 17.5358L74.5366 17.5349L74.5366 17.5312L73.5366 17.5321ZM73.6577 17.8616L75.4273 19.917L76.1851 19.2646L74.4155 17.2091L73.6577 17.8616ZM79.8514 25.0556L81.6211 27.1111L82.3789 26.4586L80.6093 24.4032L79.8514 25.0556ZM81.5 26.7848V31.4981H82.5V26.7848H81.5ZM81.5 43.2813V52.7079H82.5V43.2813H81.5ZM81.5 64.4911V69.2044H82.5V64.4911H81.5ZM81.6211 68.8782L79.8514 70.9342L80.6093 71.5865L82.379 69.5306L81.6211 68.8782ZM75.4273 76.0741L73.6576 78.13L74.4155 78.7824L76.1852 76.7264L75.4273 76.0741ZM73.8145 78.0083L70.4339 79.6844L70.8782 80.5803L74.2587 78.9042L73.8145 78.0083ZM61.9826 83.8748L58.6021 85.551L59.0463 86.4469L62.4269 84.7707L61.9826 83.8748ZM59.2423 85.7247L59.2399 85.7211L58.4038 86.2696L58.4061 86.2732L59.2423 85.7247ZM59.234 85.7121L59.2317 85.7085L58.3955 86.257L58.3979 86.2606L59.234 85.7121ZM58.3136 85.9827V85.9866H59.3136V85.9827H58.3136ZM58.3136 85.9962V86H59.3136V85.9962H58.3136ZM58.8136 85.5H54.0073V86.5H58.8136V85.5ZM41.9916 85.5H37.1853V86.5H41.9916V85.5ZM37.6853 86V85.996H36.6853V86H37.6853ZM37.6853 85.986V85.982H36.6853V85.986H37.6853ZM36.7616 85.7165L36.7593 85.7203L37.6067 86.2513L37.609 86.2475L36.7616 85.7165ZM36.7534 85.7297L36.751 85.7335L37.5984 86.2644L37.6008 86.2607L36.7534 85.7297ZM37.1747 85.9989L36.7305 86.8949C37.1908 87.1231 37.7493 86.9653 38.0221 86.5299L37.1747 85.9989ZM21.9624 78.4562H20.9624C20.9624 78.8362 21.1777 79.1833 21.5181 79.3521L21.9624 78.4562ZM37.1853 85.982H38.1853C38.1853 85.5361 37.8901 85.1441 37.4616 85.0209C37.033 84.8977 36.5747 85.0732 36.338 85.451L37.1853 85.982ZM37.1853 86H36.1853C36.1853 86.5523 36.633 87 37.1853 87V86ZM58.8136 86V87C59.3659 87 59.8136 86.5523 59.8136 86H58.8136ZM58.8136 85.9827L59.6497 85.4342C59.4073 85.0646 58.9509 84.898 58.5274 85.0246C58.1038 85.1511 57.8136 85.5407 57.8136 85.9827H58.8136ZM58.8242 85.9989L57.9881 86.5475C58.2656 86.9704 58.8152 87.1196 59.2684 86.8949L58.8242 85.9989ZM74.0366 78.4562L74.4808 79.3521C74.6006 79.2927 74.7073 79.2099 74.7945 79.1086L74.0366 78.4562ZM82 69.2044L82.7579 69.8567C82.9141 69.6753 83 69.4438 83 69.2044H82ZM82 26.7848H83C83 26.5454 82.9141 26.3139 82.7578 26.1324L82 26.7848ZM74.0366 17.5354L73.0366 17.5363C73.0368 17.7754 73.1227 18.0066 73.2788 18.1878L74.0366 17.5354ZM74.0366 17.5185L75.0366 17.5176C75.0362 17.1374 74.8203 16.7903 74.4794 16.6219L74.0366 17.5185ZM58.8136 10L59.2564 9.10339C59.1187 9.03538 58.9672 9 58.8136 9V10ZM37.1853 10V9C37.0317 9 36.8802 9.03538 36.7425 9.10339L37.1853 10ZM21.9624 17.5185L21.5195 16.6219C21.1784 16.7904 20.9624 17.138 20.9624 17.5185H21.9624ZM21.9624 17.5367L21.1817 18.1616C21.4471 18.4931 21.8929 18.6209 22.2935 18.4803C22.6942 18.3396 22.9624 17.9613 22.9624 17.5367H21.9624ZM21.9613 17.5354L22.742 16.9104C22.5561 16.6782 22.2765 16.5408 21.9791 16.5355C21.6817 16.5302 21.3974 16.6576 21.2034 16.883L21.9613 17.5354ZM14 26.7848L13.2421 26.1325C13.0859 26.3139 13 26.5454 13 26.7848H14ZM14 69.2033H13C13 69.4427 13.0859 69.6741 13.242 69.8555L14 69.2033ZM21.9613 78.4562L21.2033 79.1084C21.3941 79.3302 21.6725 79.4573 21.9651 79.4562C22.2577 79.4551 22.5352 79.3259 22.7243 79.1026L21.9613 78.4562ZM21.9624 78.455H22.9624C22.9624 78.0354 22.7005 77.6605 22.3066 77.5161C21.9127 77.3717 21.4706 77.4885 21.1994 77.8086L21.9624 78.455ZM34.2384 83.4269C33.7436 83.1815 33.1436 83.3838 32.8983 83.8786C32.6529 84.3734 32.8552 84.9734 33.35 85.2187L34.2384 83.4269ZM24.8987 81.0283C25.3935 81.2736 25.9935 81.0714 26.2388 80.5766C26.4841 80.0818 26.2819 79.4818 25.7871 79.2365L24.8987 81.0283ZM22.9624 78.4559C22.9624 77.9037 22.5147 77.4559 21.9624 77.4559C21.4101 77.4559 20.9624 77.9037 20.9624 78.4559H22.9624ZM20.9624 78.4552C20.9624 79.0075 21.4101 79.4552 21.9624 79.4552C22.5147 79.4552 22.9624 79.0075 22.9624 78.4552H20.9624ZM21.1991 77.8089C20.8421 78.2302 20.8943 78.8613 21.3157 79.2182C21.7371 79.5752 22.3681 79.523 22.7251 79.1016L21.1991 77.8089ZM22.7245 79.1023C23.0815 78.6809 23.0293 78.0499 22.6079 77.6929C22.1866 77.3359 21.5555 77.3882 21.1985 77.8095L22.7245 79.1023ZM20.9502 75.7478C20.59 75.3292 19.9586 75.2818 19.5399 75.642C19.1213 76.0022 19.0739 76.6336 19.4341 77.0522L20.9502 75.7478ZM15.0112 71.9117C15.3714 72.3304 16.0028 72.3778 16.4214 72.0175C16.84 71.6573 16.8874 71.0259 16.5272 70.6073L15.0112 71.9117ZM15 64.4902C15 63.9379 14.5523 63.4902 14 63.4902C13.4477 63.4902 13 63.9379 13 64.4902H15ZM13 52.7072C13 53.2595 13.4477 53.7072 14 53.7072C14.5523 53.7072 15 53.2595 15 52.7072H13ZM15 43.2809C15 42.7286 14.5523 42.2809 14 42.2809C13.4477 42.2809 13 42.7286 13 43.2809H15ZM13 31.498C13 32.0503 13.4477 32.498 14 32.498C14.5523 32.498 15 32.0503 15 31.498H13ZM16.5271 25.3818C16.8874 24.9632 16.8401 24.3318 16.4215 23.9715C16.003 23.6112 15.3716 23.6585 15.0113 24.077L16.5271 25.3818ZM19.4342 18.9384C19.0739 19.357 19.1212 19.9884 19.5398 20.3487C19.9584 20.709 20.5898 20.6617 20.95 20.2432L19.4342 18.9384ZM21.1809 18.1606C21.526 18.5917 22.1553 18.6615 22.5865 18.3163C23.0176 17.9712 23.0874 17.3419 22.7422 16.9107L21.1809 18.1606ZM22.7428 16.9114C22.3977 16.4803 21.7684 16.4106 21.3372 16.7557C20.906 17.1008 20.8363 17.7302 21.1815 18.1613L22.7428 16.9114ZM22.9624 17.5326C22.9624 16.9804 22.5147 16.5326 21.9624 16.5326C21.4101 16.5326 20.9624 16.9804 20.9624 17.5326H22.9624ZM20.9624 17.5225C20.9624 18.0748 21.4101 18.5225 21.9624 18.5225C22.5147 18.5225 22.9624 18.0748 22.9624 17.5225H20.9624ZM25.7881 16.7443C26.2833 16.4998 26.4864 15.9001 26.2419 15.4049C25.9973 14.9097 25.3976 14.7065 24.9024 14.9511L25.7881 16.7443ZM33.3596 10.7742C32.8644 11.0187 32.6613 11.6184 32.9059 12.1136C33.1504 12.6088 33.7501 12.812 34.2453 12.5674L33.3596 10.7742ZM41.9916 11C42.5439 11 42.9916 10.5523 42.9916 10C42.9916 9.44772 42.5439 9 41.9916 9V11ZM54.0073 9C53.455 9 53.0073 9.44772 53.0073 10C53.0073 10.5523 53.455 11 54.0073 11V9ZM61.7537 12.5674C62.2488 12.812 62.8485 12.6088 63.0931 12.1136C63.3377 11.6184 63.1345 11.0187 62.6393 10.7742L61.7537 12.5674ZM71.0965 14.9511C70.6013 14.7065 70.0016 14.9097 69.7571 15.4049C69.5125 15.9001 69.7157 16.4998 70.2109 16.7443L71.0965 14.9511ZM73.0366 17.5231C73.0371 18.0754 73.4852 18.5227 74.0375 18.5222C74.5898 18.5217 75.0371 18.0736 75.0366 17.5213L73.0366 17.5231ZM75.0366 17.5307C75.0361 16.9784 74.588 16.5311 74.0357 16.5316C73.4834 16.5321 73.0361 16.9802 73.0366 17.5325L75.0366 17.5307ZM75.0484 20.2433C75.4087 20.6618 76.0401 20.709 76.4587 20.3486C76.8772 19.9883 76.9244 19.3569 76.5641 18.9383L75.0484 20.2433ZM80.9882 24.0769C80.6278 23.6584 79.9964 23.6112 79.5779 23.9716C79.1594 24.3319 79.1122 24.9633 79.4725 25.3819L80.9882 24.0769ZM81 31.4981C81 32.0504 81.4477 32.4981 82 32.4981C82.5523 32.4981 83 32.0504 83 31.4981H81ZM83 43.2813C83 42.729 82.5523 42.2813 82 42.2813C81.4477 42.2813 81 42.729 81 43.2813H83ZM81 52.7079C81 53.2602 81.4477 53.7079 82 53.7079C82.5523 53.7079 83 53.2602 83 52.7079H81ZM83 64.4911C83 63.9388 82.5523 63.4911 82 63.4911C81.4477 63.4911 81 63.9388 81 64.4911H83ZM79.4725 70.608C79.1122 71.0266 79.1594 71.658 79.578 72.0182C79.9966 72.3785 80.628 72.3313 80.9883 71.9127L79.4725 70.608ZM76.5641 77.0526C76.9244 76.634 76.8772 76.0026 76.4586 75.6423C76.04 75.2821 75.4086 75.3293 75.0483 75.7479L76.5641 77.0526ZM70.2118 79.2365C69.717 79.4818 69.5148 80.0818 69.7601 80.5766C70.0055 81.0714 70.6055 81.2736 71.1003 81.0283L70.2118 79.2365ZM62.649 85.2187C63.1438 84.9734 63.346 84.3734 63.1007 83.8786C62.8553 83.3838 62.2553 83.1815 61.7605 83.4269L62.649 85.2187ZM59.658 85.4468C59.3551 84.985 58.7351 84.8563 58.2733 85.1592C57.8116 85.4621 57.6828 86.0821 57.9857 86.5439L59.658 85.4468ZM57.9798 86.5349C58.2827 86.9966 58.9027 87.1254 59.3645 86.8225C59.8262 86.5195 59.955 85.8996 59.6521 85.4378L57.9798 86.5349ZM57.8136 85.9866C57.8136 86.5389 58.2613 86.9866 58.8136 86.9866C59.3659 86.9866 59.8136 86.5389 59.8136 85.9866H57.8136ZM59.8136 85.9962C59.8136 85.4439 59.3659 84.9962 58.8136 84.9962C58.2613 84.9962 57.8136 85.4439 57.8136 85.9962H59.8136ZM54.0073 85C53.455 85 53.0073 85.4477 53.0073 86C53.0073 86.5523 53.455 87 54.0073 87V85ZM41.9916 87C42.5439 87 42.9916 86.5523 42.9916 86C42.9916 85.4477 42.5439 85 41.9916 85V87ZM38.1853 85.996C38.1853 85.4437 37.7376 84.996 37.1853 84.996C36.633 84.996 36.1853 85.4437 36.1853 85.996H38.1853ZM36.1853 85.986C36.1853 86.5383 36.633 86.986 37.1853 86.986C37.7376 86.986 38.1853 86.5383 38.1853 85.986H36.1853ZM36.3356 85.4548C36.0423 85.9228 36.184 86.5399 36.652 86.8331C37.12 87.1264 37.7371 86.9848 38.0303 86.5168L36.3356 85.4548ZM38.0245 86.5262C38.3177 86.0582 38.1761 85.4411 37.7081 85.1478C37.2401 84.8545 36.623 84.9962 36.3297 85.4642L38.0245 86.5262ZM37.6189 85.103L34.2384 83.4269L33.35 85.2187L36.7305 86.8949L37.6189 85.103ZM25.7871 79.2365L22.4066 77.5603L21.5181 79.3521L24.8987 81.0283L25.7871 79.2365ZM22.9624 78.4562V78.4559H20.9624V78.4562H22.9624ZM22.9624 78.4552V78.455H20.9624V78.4552H22.9624ZM21.1994 77.8086L21.1991 77.8089L22.7251 79.1016L22.7254 79.1014L21.1994 77.8086ZM21.1985 77.8095L21.1983 77.8098L22.7243 79.1026L22.7245 79.1023L21.1985 77.8095ZM22.7193 77.804L20.9502 75.7478L19.4341 77.0522L21.2033 79.1084L22.7193 77.804ZM16.5272 70.6073L14.758 68.5511L13.242 69.8555L15.0112 71.9117L16.5272 70.6073ZM15 69.2033V64.4902H13V69.2033H15ZM15 52.7072V43.2809H13V52.7072H15ZM15 31.498V26.7848H13V31.498H15ZM14.7579 27.4372L16.5271 25.3818L15.0113 24.077L13.2421 26.1325L14.7579 27.4372ZM20.95 20.2432L22.7192 18.1877L21.2034 16.883L19.4342 18.9384L20.95 20.2432ZM21.1806 18.1603L21.1809 18.1606L22.7422 16.9107L22.742 16.9104L21.1806 18.1603ZM21.1815 18.1613L21.1817 18.1616L22.743 16.9117L22.7428 16.9114L21.1815 18.1613ZM22.9624 17.5367V17.5326H20.9624V17.5367H22.9624ZM22.9624 17.5225V17.5185H20.9624V17.5225H22.9624ZM22.4052 18.4151L25.7881 16.7443L24.9024 14.9511L21.5195 16.6219L22.4052 18.4151ZM34.2453 12.5674L37.6282 10.8966L36.7425 9.10339L33.3596 10.7742L34.2453 12.5674ZM37.1853 11H41.9916V9H37.1853V11ZM54.0073 11H58.8136V9H54.0073V11ZM58.3708 10.8966L61.7537 12.5674L62.6393 10.7742L59.2564 9.10339L58.3708 10.8966ZM70.2109 16.7443L73.5937 18.4151L74.4794 16.6219L71.0965 14.9511L70.2109 16.7443ZM73.0366 17.5194L73.0366 17.5231L75.0366 17.5213L75.0366 17.5176L73.0366 17.5194ZM73.0366 17.5325L73.0366 17.5363L75.0366 17.5344L75.0366 17.5307L73.0366 17.5325ZM73.2788 18.1878L75.0484 20.2433L76.5641 18.9383L74.7944 16.8829L73.2788 18.1878ZM79.4725 25.3819L81.2422 27.4373L82.7578 26.1324L80.9882 24.0769L79.4725 25.3819ZM81 26.7848V31.4981H83V26.7848H81ZM81 43.2813V52.7079H83V43.2813H81ZM81 64.4911V69.2044H83V64.4911H81ZM81.2421 68.552L79.4725 70.608L80.9883 71.9127L82.7579 69.8567L81.2421 68.552ZM75.0483 75.7479L73.2787 77.8039L74.7945 79.1086L76.5641 77.0526L75.0483 75.7479ZM73.5924 77.5603L70.2118 79.2365L71.1003 81.0283L74.4808 79.3521L73.5924 77.5603ZM61.7605 83.4269L58.38 85.103L59.2684 86.8949L62.649 85.2187L61.7605 83.4269ZM59.6604 85.4504L59.658 85.4468L57.9857 86.5439L57.9881 86.5475L59.6604 85.4504ZM59.6521 85.4378L59.6497 85.4342L57.9774 86.5312L57.9798 86.5349L59.6521 85.4378ZM57.8136 85.9827V85.9866H59.8136V85.9827H57.8136ZM57.8136 85.9962V86H59.8136V85.9962H57.8136ZM58.8136 85H54.0073V87H58.8136V85ZM41.9916 85H37.1853V87H41.9916V85ZM38.1853 86V85.996H36.1853V86H38.1853ZM38.1853 85.986V85.982H36.1853V85.986H38.1853ZM36.338 85.451L36.3356 85.4548L38.0303 86.5168L38.0327 86.513L36.338 85.451ZM36.3297 85.4642L36.3273 85.468L38.0221 86.5299L38.0245 86.5262L36.3297 85.4642Z" fill="black" mask="url(#path-1-outside-1)"/>
<path d="M5 60.2033L12.9613 69.4562L13.6772 68.613V9.42971L12.9613 8.53537L5 17.7849V60.2033Z" fill="#1A476F"/>
<path d="M12.9624 69.4562L28.1747 76.9989L28.8075 75.9892L28.8178 1.79028L28.1854 1L12.9624 8.5185V69.4562Z" fill="#1F5B98"/>
<path d="M73.0001 17.7849L65.0366 8.53537L64.146 8.81513L64.3229 68.701L65.0366 69.4562L73.0001 60.2044V17.7849Z" fill="#2D72B8"/>
<path d="M49.8242 76.9989L65.0366 69.4562V8.5185L49.8136 1L49.0938 1.96599L49.1041 75.9012L49.8242 76.9989Z" fill="#5294CF"/>
<path d="M28.1853 1H49.8136V77H28.1853V1Z" fill="#2D72B8"/>
</svg>
