<svg width="88" height="88" viewBox="0 0 88 88" fill="none" xmlns="http://www.w3.org/2000/svg">
<mask id="path-1-inside-1" fill="white">
<path fill-rule="evenodd" clip-rule="evenodd" d="M56.464 88L43.163 81.3488V39.936L25 37.8896V27.733L29.0026 25.7306H29.0026L43.163 29.0522V18.6511L56.464 12H56.464L56.4641 12L69.7651 18.6511V34.6508L83.9252 32.217L87.9439 33.6886V44.225L87.9434 44.225L87.9438 44.225L69.7651 45.2013V81.3488L56.4641 87.9999L56.464 88Z"/>
</mask>
<path fill-rule="evenodd" clip-rule="evenodd" d="M56.464 88L43.163 81.3488V39.936L25 37.8896V27.733L29.0026 25.7306H29.0026L43.163 29.0522V18.6511L56.464 12H56.464L56.4641 12L69.7651 18.6511V34.6508L83.9252 32.217L87.9439 33.6886V44.225L87.9434 44.225L87.9438 44.225L69.7651 45.2013V81.3488L56.4641 87.9999L56.464 88Z" fill="#F7F7FE"/>
<path d="M43.163 81.3488H42.663V81.6579L42.9393 81.7961L43.163 81.3488ZM56.464 88L56.2404 88.4472L56.5228 88.5884L56.7717 88.3942L56.464 88ZM43.163 39.936H43.663V39.4892L43.2189 39.4391L43.163 39.936ZM25 37.8896H24.5V38.3364L24.944 38.3864L25 37.8896ZM25 27.733L24.7763 27.2858L24.5 27.4241V27.733H25ZM29.0026 25.7306V25.2306H28.8845L28.7789 25.2834L29.0026 25.7306ZM29.0026 25.7306L29.1168 25.2438L29.0604 25.2306H29.0026V25.7306ZM43.163 29.0522L43.0488 29.5389L43.663 29.683V29.0522H43.163ZM43.163 18.6511L42.9393 18.2039L42.663 18.3421V18.6511H43.163ZM56.464 12V11.5H56.3459L56.2404 11.5528L56.464 12ZM56.464 12L56.8427 11.6735L56.6931 11.5H56.464V12ZM56.4641 12L56.0853 12.3265L56.1508 12.4024L56.2404 12.4472L56.4641 12ZM69.7651 18.6511H70.2651V18.3421L69.9887 18.2039L69.7651 18.6511ZM69.7651 34.6508H69.2651V35.2441L69.8498 35.1436L69.7651 34.6508ZM83.9252 32.217L84.0972 31.7475L83.972 31.7016L83.8405 31.7242L83.9252 32.217ZM87.9439 33.6886H88.4439V33.3392L88.1158 33.2191L87.9439 33.6886ZM87.9439 44.225L87.8775 44.7206L88.4439 44.7965V44.225H87.9439ZM87.9434 44.225L88.0098 43.7294L87.8588 44.7178L87.9434 44.225ZM87.9438 44.225L87.9706 44.7243L88.0284 43.7322L87.9438 44.225ZM69.7651 45.2013L69.7382 44.702L69.2651 44.7275V45.2013H69.7651ZM69.7651 81.3488L69.9887 81.7961L70.2651 81.6579V81.3488H69.7651ZM56.4641 87.9999L56.2405 87.5527L56.1958 87.5751L56.1565 87.6058L56.4641 87.9999ZM43.663 81.3488V76.7474H42.663V81.3488H43.663ZM43.663 65.2438V56.041H42.663V65.2438H43.663ZM43.663 44.5374V39.936H42.663V44.5374H43.663ZM43.2189 39.4391L39.1827 38.9844L39.0708 39.9781L43.107 40.4328L43.2189 39.4391ZM29.0922 37.8475L25.056 37.3927L24.944 38.3864L28.9802 38.8412L29.0922 37.8475ZM25.5 37.8896V35.6326H24.5V37.8896H25.5ZM25.5 29.99V27.733H24.5V29.99H25.5ZM25.2237 28.1802L26.1132 27.7352L25.6658 26.8409L24.7763 27.2858L25.2237 28.1802ZM28.3368 26.6227L29.2263 26.1778L28.7789 25.2834L27.8894 25.7284L28.3368 26.6227ZM29.0026 26.2306H29.0026V25.2306H29.0026V26.2306ZM29.0026 26.2306H29.0026V25.2306H29.0026V26.2306ZM28.8884 26.2174L32.0352 26.9555L32.2635 25.9819L29.1168 25.2438L28.8884 26.2174ZM39.902 28.8008L43.0488 29.5389L43.2771 28.5654L40.1304 27.8272L39.902 28.8008ZM43.663 29.0522V26.7408H42.663V29.0522H43.663ZM43.663 20.9625V18.6511H42.663V20.9625H43.663ZM43.3866 19.0984L46.3424 17.6203L45.8951 16.7259L42.9393 18.2039L43.3866 19.0984ZM53.7318 13.9252L56.6876 12.4472L56.2404 11.5528L53.2846 13.0308L53.7318 13.9252ZM56.464 12.5H56.464V11.5H56.464V12.5ZM56.464 12.5H56.464V11.5H56.464V12.5ZM56.0853 12.3265L56.0853 12.3265L56.8428 11.6736L56.8427 11.6735L56.0853 12.3265ZM56.0853 12.3265L56.0853 12.3265L56.8428 11.6736L56.8428 11.6736L56.0853 12.3265ZM56.2404 12.4472L59.1962 13.9253L59.6435 13.0309L56.6877 11.5528L56.2404 12.4472ZM66.5857 17.6203L69.5414 19.0984L69.9887 18.2039L67.0329 16.7259L66.5857 17.6203ZM69.2651 18.6511V22.2066H70.2651V18.6511H69.2651ZM69.2651 31.0953V34.6508H70.2651V31.0953H69.2651ZM69.8498 35.1436L72.9965 34.6028L72.8271 33.6172L69.6804 34.158L69.8498 35.1436ZM80.8632 33.2506L84.0099 32.7098L83.8405 31.7242L80.6938 32.2651L80.8632 33.2506ZM83.7533 32.6865L84.6463 33.0135L84.9902 32.0745L84.0972 31.7475L83.7533 32.6865ZM86.8789 33.8311L87.7719 34.1581L88.1158 33.2191L87.2228 32.892L86.8789 33.8311ZM87.4439 33.6886V36.03H88.4439V33.6886H87.4439ZM87.4439 41.8836V44.225H88.4439V41.8836H87.4439ZM88.0102 43.7294L88.0101 43.7294L87.8774 44.7206L87.8775 44.7206L88.0102 43.7294ZM88.0099 43.7294L88.0098 43.7294L87.8771 44.7205L87.8772 44.7206L88.0099 43.7294ZM87.8588 44.7178L87.8589 44.7178L88.0281 43.7322L88.0281 43.7322L87.8588 44.7178ZM87.8591 44.7178L87.8592 44.7178L88.0284 43.7322L88.0284 43.7322L87.8591 44.7178ZM87.917 43.7257L83.8773 43.9427L83.9309 44.9413L87.9706 44.7243L87.917 43.7257ZM73.778 44.4851L69.7382 44.702L69.7919 45.7006L73.8316 45.4837L73.778 44.4851ZM69.2651 45.2013V49.2177H70.2651V45.2013H69.2651ZM69.2651 59.2587V67.2915H70.2651V59.2587H69.2651ZM69.2651 77.3325V81.3488H70.2651V77.3325H69.2651ZM69.5414 80.9016L66.5857 82.3797L67.0329 83.2741L69.9887 81.7961L69.5414 80.9016ZM59.1962 86.0747L56.2405 87.5527L56.6877 88.4471L59.6435 86.9691L59.1962 86.0747ZM56.1565 87.6058L56.1565 87.6058L56.7717 88.3941L56.7717 88.3941L56.1565 87.6058ZM56.1564 87.6058L56.1564 87.6058L56.7717 88.3942L56.7717 88.3941L56.1564 87.6058ZM56.6877 87.5528L53.7319 86.0748L53.2846 86.9692L56.2404 88.4472L56.6877 87.5528ZM46.3424 82.3797L43.3866 80.9016L42.9393 81.7961L45.8951 83.2741L46.3424 82.3797ZM43.163 81.3488H42.163V81.9669L42.7157 82.2433L43.163 81.3488ZM56.464 88L56.0168 88.8944L56.5815 89.1768L57.0793 88.7883L56.464 88ZM43.163 39.936H44.163V39.0423L43.2749 38.9423L43.163 39.936ZM25 37.8896H24V38.7832L24.888 38.8833L25 37.8896ZM25 27.733L24.5526 26.8387L24 27.1151V27.733H25ZM29.0026 25.7306V24.7306H28.7664L28.5552 24.8363L29.0026 25.7306ZM29.0026 25.7306L29.231 24.757L29.1183 24.7306H29.0026V25.7306ZM43.163 29.0522L42.9346 30.0257L44.163 30.3139V29.0522H43.163ZM43.163 18.6511L42.7157 17.7567L42.163 18.0331V18.6511H43.163ZM56.464 12V11H56.2279L56.0167 11.1056L56.464 12ZM56.464 12L57.2215 11.3471L56.9223 11H56.464V12ZM56.4641 12L55.7066 12.6529L55.8375 12.8048L56.0168 12.8944L56.4641 12ZM69.7651 18.6511H70.7651V18.0331L70.2123 17.7567L69.7651 18.6511ZM69.7651 34.6508H68.7651V35.8374L69.9344 35.6364L69.7651 34.6508ZM83.9252 32.217L84.2691 31.278L84.0187 31.1863L83.7559 31.2315L83.9252 32.217ZM87.9439 33.6886H88.9439V32.9898L88.2877 32.7495L87.9439 33.6886ZM87.9439 44.225L87.8111 45.2162L88.9439 45.3679V44.225H87.9439ZM87.9434 44.225L88.0762 43.2338L87.7742 45.2105L87.9434 44.225ZM87.9438 44.225L87.9974 45.2236L88.1131 43.2395L87.9438 44.225ZM69.7651 45.2013L69.7114 44.2028L68.7651 44.2536V45.2013H69.7651ZM69.7651 81.3488L70.2123 82.2433L70.7651 81.9669V81.3488H69.7651ZM56.4641 87.9999L56.0169 87.1055L55.9275 87.1502L55.8488 87.2116L56.4641 87.9999ZM44.163 81.3488V76.7474H42.163V81.3488H44.163ZM44.163 65.2438V56.041H42.163V65.2438H44.163ZM44.163 44.5374V39.936H42.163V44.5374H44.163ZM43.2749 38.9423L39.2387 38.4875L39.0148 40.4749L43.051 40.9297L43.2749 38.9423ZM29.1482 37.3506L25.112 36.8959L24.888 38.8833L28.9243 39.3381L29.1482 37.3506ZM26 37.8896V35.6326H24V37.8896H26ZM26 29.99V27.733H24V29.99H26ZM25.4474 28.6273L26.3369 28.1824L25.442 26.3937L24.5526 26.8387L25.4474 28.6273ZM28.5605 27.0699L29.45 26.6249L28.5552 24.8363L27.6657 25.2813L28.5605 27.0699ZM29.0026 26.7306H29.0026V24.7306H29.0026V26.7306ZM29.0026 26.7306H29.0026V24.7306H29.0026V26.7306ZM28.7742 26.7042L31.921 27.4423L32.3777 25.4951L29.231 24.757L28.7742 26.7042ZM39.7878 29.2876L42.9346 30.0257L43.3913 28.0786L40.2446 27.3405L39.7878 29.2876ZM44.163 29.0522V26.7408H42.163V29.0522H44.163ZM44.163 20.9625V18.6511H42.163V20.9625H44.163ZM43.6102 19.5456L46.566 18.0675L45.6715 16.2787L42.7157 17.7567L43.6102 19.5456ZM53.9555 14.3724L56.9112 12.8944L56.0167 11.1056L53.061 12.5836L53.9555 14.3724ZM56.464 13H56.464V11H56.464V13ZM56.464 13H56.464V11H56.464V13ZM55.7066 12.6529L55.7066 12.6529L57.2215 11.3471L57.2215 11.3471L55.7066 12.6529ZM55.7066 12.6529L55.7066 12.6529L57.2215 11.3471L57.2215 11.3471L55.7066 12.6529ZM56.0168 12.8944L58.9726 14.3725L59.8671 12.5836L56.9113 11.1056L56.0168 12.8944ZM66.362 18.0675L69.3178 19.5456L70.2123 17.7567L67.2565 16.2787L66.362 18.0675ZM68.7651 18.6511V22.2066H70.7651V18.6511H68.7651ZM68.7651 31.0953V34.6508H70.7651V31.0953H68.7651ZM69.9344 35.6364L73.0812 35.0955L72.7424 33.1244L69.5957 33.6653L69.9344 35.6364ZM80.9479 33.7434L84.0946 33.2026L83.7559 31.2315L80.6091 31.7723L80.9479 33.7434ZM83.5814 33.156L84.4744 33.483L85.1621 31.605L84.2691 31.278L83.5814 33.156ZM86.707 34.3006L87.6 34.6276L88.2877 32.7495L87.3947 32.4225L86.707 34.3006ZM86.9439 33.6886V36.03H88.9439V33.6886H86.9439ZM86.9439 41.8836V44.225H88.9439V41.8836H86.9439ZM88.0766 43.2339L88.0765 43.2339L87.811 45.2162L87.8111 45.2162L88.0766 43.2339ZM88.0763 43.2338L88.0762 43.2338L87.8107 45.2161L87.8108 45.2161L88.0763 43.2338ZM87.7742 45.2105L87.7743 45.2106L88.1128 43.2394L88.1127 43.2394L87.7742 45.2105ZM87.7745 45.2106L87.7746 45.2106L88.1131 43.2395L88.113 43.2394L87.7745 45.2106ZM87.8902 43.2265L83.8505 43.4434L83.9577 45.4405L87.9974 45.2236L87.8902 43.2265ZM73.7511 43.9858L69.7114 44.2028L69.8187 46.1999L73.8584 45.9829L73.7511 43.9858ZM68.7651 45.2013V49.2177H70.7651V45.2013H68.7651ZM68.7651 59.2587V67.2915H70.7651V59.2587H68.7651ZM68.7651 77.3325V81.3488H70.7651V77.3325H68.7651ZM69.3178 80.4544L66.362 81.9325L67.2565 83.7213L70.2123 82.2433L69.3178 80.4544ZM58.9726 85.6275L56.0169 87.1055L56.9114 88.8943L59.8671 87.4163L58.9726 85.6275ZM55.8488 87.2116L55.8488 87.2116L57.0794 88.7883L57.0794 88.7883L55.8488 87.2116ZM55.8488 87.2117L55.8488 87.2117L57.0793 88.7883L57.0793 88.7883L55.8488 87.2117ZM56.9113 87.1056L53.9555 85.6276L53.061 87.4164L56.0168 88.8944L56.9113 87.1056ZM46.566 81.9325L43.6102 80.4544L42.7157 82.2433L45.6715 83.7213L46.566 81.9325Z" fill="black" mask="url(#path-1-inside-1)"/>
<path d="M27.163 75.3488L40.464 82L41.7632 81.0308L41.2164 6.88466L40.464 6L27.163 12.6511V75.3488Z" fill="#9D5025"/>
<path d="M53.7651 75.3488L40.464 82V6L53.7651 12.6511V75.3488Z" fill="#F68536"/>
<path d="M35.4489 33.6641L30.7813 34.3437L9 31.8896L9.0922 31.6479L12.6266 30.5874L13.0026 30.8004L13.0877 30.5874L35.3086 33.1846L35.4489 33.6641Z" fill="#6B3A19"/>
<path d="M9 21.733L13.0026 19.7306V30.8004L9 31.8896V21.733Z" fill="#9D5025"/>
<path d="M71.9438 38.225L49.6526 39.4222L45.4789 39.136L46.2652 38.809L67.9943 37.5641L71.9438 38.225Z" fill="#6B3A19"/>
<path d="M35.4489 33.6641L13.0026 30.8004V19.7306L35.4489 24.9958V33.6641Z" fill="#F68536"/>
<path d="M67.9252 26.217L45.4789 30.075V39.136L67.9252 37.7891L68.0558 37.5334L68.0098 26.4231L67.9252 26.217Z" fill="#9D5025"/>
<path d="M71.9439 38.225L67.9253 37.7025V26.217L71.9439 27.6886V38.225Z" fill="#F68536"/>
</svg>
