<svg width="88" height="88" viewBox="0 0 88 88" fill="none" xmlns="http://www.w3.org/2000/svg">
<mask id="path-1-inside-1" fill="white">
<path fill-rule="evenodd" clip-rule="evenodd" d="M48.999 10H48.9991L48.9991 10.0001L60.3409 15.7506V26.786L75.0019 23.186L75.0029 23.1871V23.186L80 25.7193V70.1804L75.0029 72.7127V72.7125L75.0029 72.7126L60.3399 69.1069V80.2514L48.999 86V85.9999L48.999 86L37.6591 80.2514V69.1588L22.9949 72.6989L18 70.1803V25.7193L22.9948 23.1861V23.186H22.9949L22.9949 23.186L37.6603 26.6492V15.7506L48.999 10Z"/>
</mask>
<path fill-rule="evenodd" clip-rule="evenodd" d="M48.999 10H48.9991L48.9991 10.0001L60.3409 15.7506V26.786L75.0019 23.186L75.0029 23.1871V23.186L80 25.7193V70.1804L75.0029 72.7127V72.7125L75.0029 72.7126L60.3399 69.1069V80.2514L48.999 86V85.9999L48.999 86L37.6591 80.2514V69.1588L22.9949 72.6989L18 70.1803V25.7193L22.9948 23.1861V23.186H22.9949L22.9949 23.186L37.6603 26.6492V15.7506L48.999 10Z" fill="#F7F7FE"/>
<path d="M48.9991 10L49.3196 9.61623C49.2297 9.54113 49.1162 9.5 48.9991 9.5V10ZM48.999 10V9.5C48.9204 9.5 48.843 9.51852 48.7729 9.55407L48.999 10ZM48.9991 10.0001L48.6787 10.3838C48.7077 10.4081 48.7393 10.4289 48.773 10.446L48.9991 10.0001ZM60.3409 15.7506H60.8409C60.8409 15.5622 60.735 15.3898 60.567 15.3046L60.3409 15.7506ZM60.3409 26.786H59.8409C59.8409 26.9396 59.9115 27.0847 60.0324 27.1795C60.1532 27.2743 60.311 27.3082 60.4601 27.2716L60.3409 26.786ZM75.0019 23.186L75.3678 22.8452C75.2442 22.7126 75.0587 22.6572 74.8827 22.7005L75.0019 23.186ZM75.0029 23.1871L74.6371 23.528C74.7771 23.6783 74.9949 23.7276 75.1861 23.6524C75.3773 23.5771 75.5029 23.3926 75.5029 23.1871H75.0029ZM75.0029 23.186L75.229 22.7401C75.074 22.6615 74.8893 22.669 74.7413 22.76C74.5932 22.8509 74.5029 23.0123 74.5029 23.186H75.0029ZM80 25.7193H80.5C80.5 25.5309 80.3941 25.3585 80.2261 25.2733L80 25.7193ZM80 70.1804L80.226 70.6264C80.3941 70.5413 80.5 70.3689 80.5 70.1804H80ZM75.0029 72.7127H74.5029C74.5029 72.8865 74.5932 73.0478 74.7412 73.1388C74.8893 73.2297 75.074 73.2373 75.229 73.1587L75.0029 72.7127ZM75.0029 72.7125H75.5029C75.5029 72.4895 75.3552 72.2934 75.1408 72.2319C74.9264 72.1704 74.6972 72.2584 74.5789 72.4475L75.0029 72.7125ZM75.0029 72.7126L74.8835 73.1982C75.0932 73.2497 75.3124 73.1608 75.4269 72.9776L75.0029 72.7126ZM60.3399 69.1069L60.4593 68.6213C60.3101 68.5847 60.1524 68.6186 60.0315 68.7134C59.9106 68.8081 59.8399 68.9532 59.8399 69.1069H60.3399ZM60.3399 80.2514L60.566 80.6973C60.734 80.6122 60.8399 80.4398 60.8399 80.2514H60.3399ZM48.999 86H48.499C48.499 86.1738 48.5893 86.3351 48.7373 86.426C48.8854 86.517 49.0701 86.5245 49.2251 86.446L48.999 86ZM48.999 85.9999H49.499C49.499 85.7564 49.3237 85.5483 49.0837 85.5071C48.8438 85.4659 48.609 85.6034 48.5277 85.8329L48.999 85.9999ZM48.999 86L48.7729 86.4459C48.9012 86.5109 49.0512 86.5176 49.1847 86.4642C49.3182 86.4108 49.4223 86.3024 49.4703 86.1669L48.999 86ZM37.6591 80.2514H37.1591C37.1591 80.4398 37.265 80.6122 37.433 80.6973L37.6591 80.2514ZM37.6591 69.1588H38.1591C38.1591 69.0055 38.0888 68.8607 37.9684 68.7659C37.848 68.6711 37.6907 68.6368 37.5417 68.6728L37.6591 69.1588ZM22.9949 72.6989L22.7698 73.1453C22.8756 73.1987 22.997 73.2127 23.1122 73.1849L22.9949 72.6989ZM18 70.1803H17.5C17.5 70.3691 17.6063 70.5418 17.7749 70.6268L18 70.1803ZM18 25.7193L17.7738 25.2734C17.6059 25.3586 17.5 25.5309 17.5 25.7193H18ZM22.9948 23.1861L23.221 23.632C23.389 23.5468 23.4948 23.3744 23.4948 23.1861H22.9948ZM22.9948 23.186V22.686C22.7187 22.686 22.4948 22.9099 22.4948 23.186H22.9948ZM22.9949 23.186L23.3665 22.8516C23.2717 22.7462 23.1366 22.686 22.9949 22.686V23.186ZM22.9949 23.186L22.6232 23.5205C22.6913 23.5962 22.7809 23.6493 22.88 23.6727L22.9949 23.186ZM37.6603 26.6492L37.5454 27.1358C37.6941 27.1709 37.8507 27.1361 37.9706 27.0413C38.0904 26.9464 38.1603 26.802 38.1603 26.6492H37.6603ZM37.6603 15.7506L37.4342 15.3047C37.2662 15.3899 37.1603 15.5622 37.1603 15.7506H37.6603ZM48.9991 9.5C48.7229 9.5 48.4991 9.72386 48.4991 10C48.4991 10.2761 48.7229 10.5 48.9991 10.5V9.5ZM48.999 10.5C49.2752 10.5 49.499 10.2761 49.499 10C49.499 9.72386 49.2752 9.5 48.999 9.5V10.5ZM45.5332 11.1971C45.287 11.322 45.1886 11.6229 45.3135 11.8692C45.4384 12.1155 45.7393 12.2139 45.9855 12.089L45.5332 11.1971ZM41.1261 14.5535C41.3724 14.4286 41.4708 14.1277 41.3459 13.8814C41.221 13.6351 40.9201 13.5367 40.6738 13.6616L41.1261 14.5535ZM37.1603 18.8645C37.1603 19.1406 37.3842 19.3645 37.6603 19.3645C37.9365 19.3645 38.1603 19.1406 38.1603 18.8645H37.1603ZM38.1603 23.5353C38.1603 23.2592 37.9365 23.0353 37.6603 23.0353C37.3842 23.0353 37.1603 23.2592 37.1603 23.5353H38.1603ZM33.5851 25.1731C33.3163 25.1096 33.047 25.2761 32.9836 25.5448C32.9201 25.8136 33.0865 26.0829 33.3553 26.1463L33.5851 25.1731ZM27.0701 24.6621C27.3388 24.7256 27.6082 24.5592 27.6716 24.2904C27.7351 24.0217 27.5687 23.7524 27.2999 23.6889L27.0701 24.6621ZM23.3665 22.8516C23.1818 22.6463 22.8657 22.6297 22.6604 22.8144C22.4551 22.9991 22.4385 23.3153 22.6232 23.5205L23.3665 22.8516ZM22.6232 23.5205C22.808 23.7258 23.1241 23.7424 23.3294 23.5577C23.5346 23.373 23.5513 23.0568 23.3665 22.8516L22.6232 23.5205ZM22.9949 22.686C22.7187 22.686 22.4949 22.9099 22.4949 23.186C22.4949 23.4622 22.7187 23.686 22.9949 23.686V22.686ZM22.9949 23.686C23.271 23.686 23.4949 23.4622 23.4949 23.186C23.4949 22.9099 23.271 22.686 22.9949 22.686V23.686ZM22.4948 23.186C22.4948 23.4622 22.7187 23.686 22.9948 23.686C23.271 23.686 23.4948 23.4622 23.4948 23.186H22.4948ZM23.4948 23.186C23.4948 22.9099 23.271 22.686 22.9948 22.686C22.7187 22.686 22.4948 22.9099 22.4948 23.186H23.4948ZM21.3416 23.4639C21.0953 23.5888 20.9969 23.8897 21.1218 24.136C21.2467 24.3823 21.5476 24.4807 21.7939 24.3558L21.3416 23.4639ZM19.6533 25.4414C19.8995 25.3165 19.9979 25.0156 19.873 24.7694C19.7481 24.5231 19.4472 24.4247 19.2009 24.5496L19.6533 25.4414ZM17.5 29.9537C17.5 30.2298 17.7239 30.4537 18 30.4537C18.2761 30.4537 18.5 30.2298 18.5 29.9537H17.5ZM18.5 36.3053C18.5 36.0291 18.2761 35.8053 18 35.8053C17.7239 35.8053 17.5 36.0291 17.5 36.3053H18.5ZM17.5 44.774C17.5 45.0502 17.7239 45.274 18 45.274C18.2761 45.274 18.5 45.0502 18.5 44.774H17.5ZM18.5 51.1256C18.5 50.8495 18.2761 50.6256 18 50.6256C17.7239 50.6256 17.5 50.8495 17.5 51.1256H18.5ZM17.5 59.5944C17.5 59.8705 17.7239 60.0944 18 60.0944C18.2761 60.0944 18.5 59.8705 18.5 59.5944H17.5ZM18.5 65.946C18.5 65.6698 18.2761 65.446 18 65.446C17.7239 65.446 17.5 65.6698 17.5 65.946H18.5ZM19.202 71.3464C19.4486 71.4707 19.7492 71.3716 19.8736 71.125C19.9979 70.8785 19.8988 70.5778 19.6522 70.4535L19.202 71.3464ZM21.7929 71.5328C21.5463 71.4085 21.2456 71.5076 21.1213 71.7542C20.997 72.0007 21.0961 72.3014 21.3427 72.4257L21.7929 71.5328ZM27.302 72.1735C27.5704 72.1087 27.7355 71.8385 27.6707 71.5701C27.6059 71.3017 27.3357 71.1366 27.0673 71.2014L27.302 72.1735ZM33.352 69.6842C33.0835 69.749 32.9185 70.0191 32.9833 70.2876C33.0481 70.556 33.3182 70.7211 33.5866 70.6563L33.352 69.6842ZM37.1591 72.3281C37.1591 72.6042 37.3829 72.8281 37.6591 72.8281C37.9352 72.8281 38.1591 72.6042 38.1591 72.3281H37.1591ZM38.1591 77.0821C38.1591 76.8059 37.9352 76.5821 37.6591 76.5821C37.3829 76.5821 37.1591 76.8059 37.1591 77.0821H38.1591ZM40.673 82.3398C40.9193 82.4646 41.2202 82.3662 41.345 82.1199C41.4699 81.8736 41.3714 81.5727 41.1251 81.4479L40.673 82.3398ZM45.9851 83.9115C45.7388 83.7867 45.4379 83.8851 45.313 84.1314C45.1882 84.3777 45.2866 84.6786 45.5329 84.8035L45.9851 83.9115ZM49.4703 86.1669C49.5625 85.9066 49.4262 85.6208 49.1659 85.5286C48.9056 85.4364 48.6199 85.5727 48.5277 85.833L49.4703 86.1669ZM48.5277 85.833C48.4355 86.0933 48.5718 86.379 48.8321 86.4712C49.0924 86.5634 49.3781 86.4271 49.4703 86.1668L48.5277 85.833ZM48.499 85.9999C48.499 86.276 48.7229 86.4999 48.999 86.4999C49.2752 86.4999 49.499 86.276 49.499 85.9999H48.499ZM49.499 85.9999C49.499 85.7238 49.2752 85.4999 48.999 85.4999C48.7229 85.4999 48.499 85.7238 48.499 85.9999H49.499ZM52.4653 84.8035C52.7117 84.6786 52.8101 84.3778 52.6853 84.1315C52.5604 83.8852 52.2595 83.7867 52.0132 83.9115L52.4653 84.8035ZM56.8736 81.4479C56.6273 81.5727 56.5288 81.8736 56.6537 82.1199C56.7785 82.3662 57.0794 82.4647 57.3257 82.3398L56.8736 81.4479ZM60.8399 77.0672C60.8399 76.7911 60.6161 76.5672 60.3399 76.5672C60.0638 76.5672 59.8399 76.7911 59.8399 77.0672H60.8399ZM59.8399 72.291C59.8399 72.5672 60.0638 72.791 60.3399 72.791C60.6161 72.791 60.8399 72.5672 60.8399 72.291H59.8399ZM64.41 70.6226C64.6781 70.6886 64.9489 70.5246 65.0149 70.2565C65.0808 69.9883 64.9169 69.7175 64.6487 69.6516L64.41 70.6226ZM70.9329 71.1969C70.6647 71.1309 70.3939 71.2949 70.3279 71.563C70.262 71.8312 70.4259 72.102 70.6941 72.1679L70.9329 71.1969ZM75.4269 72.9776C75.5733 72.7434 75.5021 72.4349 75.2679 72.2886C75.0337 72.1422 74.7253 72.2134 74.5789 72.4476L75.4269 72.9776ZM74.5789 72.4476C74.4326 72.6817 74.5038 72.9902 74.7379 73.1366C74.9721 73.2829 75.2806 73.2117 75.4269 72.9776L74.5789 72.4476ZM74.5029 72.7126C74.5029 72.9887 74.7268 73.2126 75.0029 73.2126C75.2791 73.2126 75.5029 72.9887 75.5029 72.7126H74.5029ZM75.5029 72.7127C75.5029 72.4365 75.2791 72.2127 75.0029 72.2127C74.7268 72.2127 74.5029 72.4365 74.5029 72.7127H75.5029ZM76.6567 72.4352C76.903 72.3104 77.0015 72.0095 76.8767 71.7632C76.7518 71.5169 76.451 71.4184 76.2047 71.5432L76.6567 72.4352ZM78.3462 70.458C78.0999 70.5828 78.0014 70.8836 78.1263 71.13C78.2511 71.3763 78.552 71.4748 78.7983 71.35L78.3462 70.458ZM80.5 65.946C80.5 65.6699 80.2761 65.446 80 65.446C79.7239 65.446 79.5 65.6699 79.5 65.946H80.5ZM79.5 59.5945C79.5 59.8706 79.7239 60.0945 80 60.0945C80.2761 60.0945 80.5 59.8706 80.5 59.5945H79.5ZM80.5 51.1257C80.5 50.8495 80.2761 50.6257 80 50.6257C79.7239 50.6257 79.5 50.8495 79.5 51.1257H80.5ZM79.5 44.7741C79.5 45.0502 79.7239 45.2741 80 45.2741C80.2761 45.2741 80.5 45.0502 80.5 44.7741H79.5ZM80.5 36.3053C80.5 36.0291 80.2761 35.8053 80 35.8053C79.7239 35.8053 79.5 36.0291 79.5 36.3053H80.5ZM79.5 29.9537C79.5 30.2298 79.7239 30.4537 80 30.4537C80.2761 30.4537 80.5 30.2298 80.5 29.9537H79.5ZM78.7983 24.5495C78.552 24.4247 78.2512 24.5231 78.1263 24.7694C78.0014 25.0157 78.0999 25.3166 78.3462 25.4415L78.7983 24.5495ZM76.2046 24.3558C76.4509 24.4807 76.7518 24.3822 76.8766 24.1359C77.0015 23.8896 76.9031 23.5887 76.6568 23.4639L76.2046 24.3558ZM74.5029 23.1863C74.5029 23.4625 74.7268 23.6863 75.0029 23.6863C75.2791 23.6863 75.5029 23.4625 75.5029 23.1863H74.5029ZM75.5029 23.1868C75.5029 22.9107 75.2791 22.6868 75.0029 22.6868C74.7268 22.6868 74.5029 22.9107 74.5029 23.1868H75.5029ZM75.3685 22.846C75.1803 22.644 74.8639 22.6327 74.6618 22.821C74.4598 23.0092 74.4486 23.3256 74.6368 23.5276L75.3685 22.846ZM74.6364 23.5272C74.8246 23.7292 75.141 23.7404 75.343 23.5522C75.5451 23.364 75.5563 23.0476 75.3681 22.8455L74.6364 23.5272ZM70.6938 23.729C70.4256 23.7949 70.2616 24.0657 70.3275 24.3338C70.3933 24.602 70.6641 24.766 70.9323 24.7002L70.6938 23.729ZM64.649 26.243C64.9172 26.1772 65.0812 25.9064 65.0153 25.6382C64.9495 25.3701 64.6787 25.206 64.4105 25.2719L64.649 26.243ZM60.8409 23.633C60.8409 23.3569 60.617 23.133 60.3409 23.133C60.0648 23.133 59.8409 23.3569 59.8409 23.633H60.8409ZM59.8409 18.9036C59.8409 19.1797 60.0648 19.4036 60.3409 19.4036C60.617 19.4036 60.8409 19.1797 60.8409 18.9036H59.8409ZM57.3265 13.6616C57.0802 13.5368 56.7793 13.6352 56.6544 13.8815C56.5296 14.1278 56.628 14.4287 56.8743 14.5535L57.3265 13.6616ZM52.0135 12.089C52.2598 12.2139 52.5607 12.1155 52.6856 11.8692C52.8105 11.6229 52.7121 11.322 52.4658 11.1971L52.0135 12.089ZM49.3196 9.61627C49.1077 9.43927 48.7924 9.4676 48.6154 9.67955C48.4383 9.8915 48.4667 10.2068 48.6786 10.3838L49.3196 9.61627ZM48.6786 10.3838C48.8906 10.5608 49.2059 10.5325 49.3829 10.3205C49.5599 10.1086 49.5315 9.79325 49.3196 9.61624L48.6786 10.3838ZM48.9991 9.5H48.9991V10.5H48.9991V9.5ZM48.999 9.5H48.999V10.5H48.999V9.5ZM48.7729 9.55407L45.5332 11.1971L45.9855 12.089L49.2252 10.4459L48.7729 9.55407ZM40.6738 13.6616L37.4342 15.3047L37.8865 16.1965L41.1261 14.5535L40.6738 13.6616ZM37.1603 15.7506V18.8645H38.1603V15.7506H37.1603ZM37.1603 23.5353V26.6492H38.1603V23.5353H37.1603ZM37.7752 26.1626L33.5851 25.1731L33.3553 26.1463L37.5454 27.1358L37.7752 26.1626ZM27.2999 23.6889L23.1098 22.6994L22.88 23.6727L27.0701 24.6621L27.2999 23.6889ZM23.3665 22.8516L23.3665 22.8516L22.6232 23.5205L22.6232 23.5205L23.3665 22.8516ZM23.3665 22.8516L23.3665 22.8516L22.6232 23.5205L22.6232 23.5205L23.3665 22.8516ZM22.9949 22.686H22.9949V23.686H22.9949V22.686ZM22.9949 22.686H22.9948V23.686H22.9949V22.686ZM22.4948 23.186V23.186H23.4948V23.186H22.4948ZM22.4948 23.186V23.1861H23.4948V23.186H22.4948ZM22.7687 22.7401L21.3416 23.4639L21.7939 24.3558L23.221 23.632L22.7687 22.7401ZM19.2009 24.5496L17.7738 25.2734L18.2262 26.1652L19.6533 25.4414L19.2009 24.5496ZM17.5 25.7193V29.9537H18.5V25.7193H17.5ZM17.5 36.3053V44.774H18.5V36.3053H17.5ZM17.5 51.1256V59.5944H18.5V51.1256H17.5ZM17.5 65.946V70.1803H18.5V65.946H17.5ZM17.7749 70.6268L19.202 71.3464L19.6522 70.4535L18.2251 69.7339L17.7749 70.6268ZM21.3427 72.4257L22.7698 73.1453L23.22 72.2524L21.7929 71.5328L21.3427 72.4257ZM23.1122 73.1849L27.302 72.1735L27.0673 71.2014L22.8775 72.2128L23.1122 73.1849ZM33.5866 70.6563L37.7764 69.6448L37.5417 68.6728L33.352 69.6842L33.5866 70.6563ZM37.1591 69.1588V72.3281H38.1591V69.1588H37.1591ZM37.1591 77.0821V80.2514H38.1591V77.0821H37.1591ZM37.433 80.6973L40.673 82.3398L41.1251 81.4479L37.8852 79.8054L37.433 80.6973ZM45.5329 84.8035L48.7729 86.4459L49.2251 85.554L45.9851 83.9115L45.5329 84.8035ZM49.4703 86.1669L49.4703 86.1669L48.5277 85.833L48.5277 85.833L49.4703 86.1669ZM49.4703 86.1668L49.4703 86.1668L48.5277 85.8329L48.5277 85.833L49.4703 86.1668ZM48.499 85.9999V85.9999H49.499V85.9999H48.499ZM48.499 85.9999V86H49.499V85.9999H48.499ZM49.2251 86.446L52.4653 84.8035L52.0132 83.9115L48.773 85.554L49.2251 86.446ZM57.3257 82.3398L60.566 80.6973L60.1139 79.8054L56.8736 81.4479L57.3257 82.3398ZM60.8399 80.2514V77.0672H59.8399V80.2514H60.8399ZM60.8399 72.291V69.1069H59.8399V72.291H60.8399ZM60.2205 69.5924L64.41 70.6226L64.6487 69.6516L60.4593 68.6213L60.2205 69.5924ZM70.6941 72.1679L74.8835 73.1982L75.1223 72.2271L70.9329 71.1969L70.6941 72.1679ZM75.4269 72.9776L75.4269 72.9776L74.5789 72.4476L74.5789 72.4476L75.4269 72.9776ZM75.4269 72.9776L75.4269 72.9775L74.5789 72.4475L74.5789 72.4476L75.4269 72.9776ZM74.5029 72.7125V72.7126H75.5029V72.7125H74.5029ZM74.5029 72.7127V72.7127H75.5029V72.7127H74.5029ZM75.229 73.1587L76.6567 72.4352L76.2047 71.5432L74.7769 72.2667L75.229 73.1587ZM78.7983 71.35L80.226 70.6264L79.774 69.7344L78.3462 70.458L78.7983 71.35ZM80.5 70.1804V65.946H79.5V70.1804H80.5ZM80.5 59.5945V51.1257H79.5V59.5945H80.5ZM80.5 44.7741V36.3053H79.5V44.7741H80.5ZM80.5 29.9537V25.7193H79.5V29.9537H80.5ZM80.2261 25.2733L78.7983 24.5495L78.3462 25.4415L79.7739 26.1653L80.2261 25.2733ZM76.6568 23.4639L75.229 22.7401L74.7769 23.632L76.2046 24.3558L76.6568 23.4639ZM74.5029 23.186V23.1863H75.5029V23.186H74.5029ZM74.5029 23.1868V23.1871H75.5029V23.1868H74.5029ZM75.3688 22.8463L75.3685 22.846L74.6368 23.5276L74.6371 23.528L75.3688 22.8463ZM75.3681 22.8455L75.3678 22.8452L74.6361 23.5269L74.6364 23.5272L75.3681 22.8455ZM74.8827 22.7005L70.6938 23.729L70.9323 24.7002L75.1211 23.6716L74.8827 22.7005ZM64.4105 25.2719L60.2217 26.3005L60.4601 27.2716L64.649 26.243L64.4105 25.2719ZM60.8409 26.786V23.633H59.8409V26.786H60.8409ZM60.8409 18.9036V15.7506H59.8409V18.9036H60.8409ZM60.567 15.3046L57.3265 13.6616L56.8743 14.5535L60.1148 16.1965L60.567 15.3046ZM52.4658 11.1971L49.2253 9.55411L48.773 10.446L52.0135 12.089L52.4658 11.1971ZM49.3196 9.61629L49.3196 9.61627L48.6786 10.3838L48.6787 10.3838L49.3196 9.61629ZM49.3196 9.61624L49.3196 9.61623L48.6786 10.3838L48.6786 10.3838L49.3196 9.61624ZM48.9991 10L49.6401 9.23245C49.4602 9.08227 49.2334 9 48.9991 9V10ZM48.999 10V9C48.8418 9 48.6869 9.03705 48.5467 9.10814L48.999 10ZM48.9991 10.0001L48.3582 10.7676C48.4162 10.8161 48.4795 10.8578 48.5469 10.892L48.9991 10.0001ZM60.3409 15.7506H61.3409C61.3409 15.3738 61.1292 15.0291 60.7931 14.8587L60.3409 15.7506ZM60.3409 26.786H59.3409C59.3409 27.0932 59.4821 27.3834 59.7238 27.5729C59.9656 27.7625 60.281 27.8304 60.5794 27.7572L60.3409 26.786ZM75.0019 23.186L75.7336 22.5044C75.4866 22.2392 75.1154 22.1285 74.7635 22.2149L75.0019 23.186ZM75.0029 23.1871L74.2713 23.8688C74.5513 24.1694 74.9869 24.2682 75.3692 24.1176C75.7516 23.9671 76.0029 23.5981 76.0029 23.1871H75.0029ZM75.0029 23.186L75.4551 22.2941C75.1451 22.1369 74.7757 22.152 74.4796 22.3339C74.1834 22.5158 74.0029 22.8385 74.0029 23.186H75.0029ZM80 25.7193H81C81 25.3425 80.7882 24.9977 80.4522 24.8274L80 25.7193ZM80 70.1804L80.452 71.0724C80.7882 70.9021 81 70.5573 81 70.1804H80ZM75.0029 72.7127H74.0029C74.0029 73.0603 74.1834 73.3829 74.4795 73.5648C74.7756 73.7467 75.145 73.7618 75.455 73.6047L75.0029 72.7127ZM75.0029 72.7125H76.0029C76.0029 72.2664 75.7074 71.8743 75.2786 71.7513C74.8498 71.6283 74.3914 71.8042 74.1549 72.1825L75.0029 72.7125ZM75.0029 72.7126L74.7641 73.6837C75.1836 73.7868 75.6219 73.609 75.8509 73.2426L75.0029 72.7126ZM60.3399 69.1069L60.5787 68.1358C60.2804 68.0624 59.9648 68.1303 59.723 68.3199C59.4812 68.5094 59.3399 68.7996 59.3399 69.1069H60.3399ZM60.3399 80.2514L60.7921 81.1433C61.1281 80.973 61.3399 80.6282 61.3399 80.2514H60.3399ZM48.999 86H47.999C47.999 86.3475 48.1795 86.6702 48.4756 86.8521C48.7718 87.034 49.1411 87.0491 49.4511 86.8919L48.999 86ZM48.999 85.9999H49.999C49.999 85.5129 49.6483 85.0968 49.1684 85.0143C48.6885 84.9318 48.219 85.207 48.0564 85.666L48.999 85.9999ZM48.999 86L48.5468 86.8919C48.8034 87.0219 49.1035 87.0352 49.3705 86.9284C49.6375 86.8215 49.8456 86.6049 49.9416 86.3338L48.999 86ZM37.6591 80.2514H36.6591C36.6591 80.6281 36.8709 80.9729 37.2069 81.1433L37.6591 80.2514ZM37.6591 69.1588H38.6591C38.6591 68.8523 38.5185 68.5627 38.2777 68.3731C38.0368 68.1835 37.7224 68.1148 37.4244 68.1867L37.6591 69.1588ZM22.9949 72.6989L22.5446 73.5918C22.7563 73.6985 22.9991 73.7266 23.2295 73.6709L22.9949 72.6989ZM18 70.1803H17C17 70.5579 17.2126 70.9033 17.5498 71.0733L18 70.1803ZM18 25.7193L17.5477 24.8274C17.2117 24.9978 17 25.3426 17 25.7193H18ZM22.9948 23.1861L23.4472 24.0779C23.7831 23.9075 23.9948 23.5628 23.9948 23.1861H22.9948ZM22.9948 23.186V22.186C22.4426 22.186 21.9948 22.6337 21.9948 23.186H22.9948ZM22.9949 23.186L23.7382 22.5171C23.5485 22.3064 23.2784 22.186 22.9949 22.186V23.186ZM22.9949 23.186L22.2516 23.855C22.3878 24.0063 22.5669 24.1125 22.7651 24.1593L22.9949 23.186ZM37.6603 26.6492L37.4305 27.6224C37.7279 27.6927 38.0412 27.623 38.2809 27.4334C38.5205 27.2437 38.6603 26.9548 38.6603 26.6492H37.6603ZM37.6603 15.7506L37.208 14.8587C36.872 15.0291 36.6603 15.3739 36.6603 15.7506H37.6603ZM48.9991 9C48.4468 9 47.9991 9.44772 47.9991 10C47.9991 10.5523 48.4468 11 48.9991 11V9ZM48.999 11C49.5513 11 49.999 10.5523 49.999 10C49.999 9.44772 49.5513 9 48.999 9V11ZM45.3071 10.7512C44.8145 11.001 44.6177 11.6028 44.8675 12.0953C45.1173 12.5879 45.7192 12.7847 46.2117 12.5349L45.3071 10.7512ZM41.3523 14.9994C41.8448 14.7496 42.0416 14.1478 41.7918 13.6552C41.542 13.1627 40.9402 12.9659 40.4476 13.2157L41.3523 14.9994ZM36.6603 18.8645C36.6603 19.4168 37.108 19.8645 37.6603 19.8645C38.2126 19.8645 38.6603 19.4168 38.6603 18.8645H36.6603ZM38.6603 23.5353C38.6603 22.983 38.2126 22.5353 37.6603 22.5353C37.108 22.5353 36.6603 22.983 36.6603 23.5353H38.6603ZM33.7 24.6865C33.1625 24.5596 32.6239 24.8924 32.497 25.4299C32.37 25.9674 32.7029 26.506 33.2404 26.633L33.7 24.6865ZM26.9552 25.1487C27.4927 25.2757 28.0313 24.9428 28.1582 24.4053C28.2852 23.8678 27.9523 23.3292 27.4148 23.2023L26.9552 25.1487ZM23.7382 22.5171C23.3687 22.1066 22.7364 22.0733 22.3259 22.4427C21.9154 22.8122 21.8821 23.4445 22.2516 23.855L23.7382 22.5171ZM22.2516 23.855C22.621 24.2655 23.2533 24.2988 23.6638 23.9293C24.0744 23.5599 24.1076 22.9276 23.7382 22.5171L22.2516 23.855ZM22.9949 22.186C22.4426 22.186 21.9949 22.6337 21.9949 23.186C21.9949 23.7383 22.4426 24.186 22.9949 24.186V22.186ZM22.9949 24.186C23.5471 24.186 23.9949 23.7383 23.9949 23.186C23.9949 22.6337 23.5471 22.186 22.9949 22.186V24.186ZM21.9948 23.186C21.9948 23.7383 22.4426 24.186 22.9948 24.186C23.5471 24.186 23.9948 23.7383 23.9948 23.186H21.9948ZM23.9948 23.186C23.9948 22.6338 23.5471 22.186 22.9948 22.186C22.4426 22.186 21.9948 22.6338 21.9948 23.186H23.9948ZM21.1154 23.018C20.6229 23.2678 20.4261 23.8696 20.6759 24.3622C20.9257 24.8547 21.5275 25.0515 22.0201 24.8017L21.1154 23.018ZM19.8794 25.8874C20.372 25.6376 20.5688 25.0357 20.319 24.5432C20.0691 24.0506 19.4673 23.8538 18.9748 24.1037L19.8794 25.8874ZM17 29.9537C17 30.506 17.4477 30.9537 18 30.9537C18.5523 30.9537 19 30.506 19 29.9537H17ZM19 36.3053C19 35.753 18.5523 35.3053 18 35.3053C17.4477 35.3053 17 35.753 17 36.3053H19ZM17 44.774C17 45.3263 17.4477 45.774 18 45.774C18.5523 45.774 19 45.3263 19 44.774H17ZM19 51.1256C19 50.5733 18.5523 50.1256 18 50.1256C17.4477 50.1256 17 50.5733 17 51.1256H19ZM17 59.5944C17 60.1467 17.4477 60.5944 18 60.5944C18.5523 60.5944 19 60.1467 19 59.5944H17ZM19 65.946C19 65.3937 18.5523 64.946 18 64.946C17.4477 64.946 17 65.3937 17 65.946H19ZM18.9769 71.7928C19.47 72.0415 20.0714 71.8433 20.32 71.3501C20.5687 70.857 20.3705 70.2557 19.8773 70.007L18.9769 71.7928ZM22.018 71.0864C21.5249 70.8377 20.9235 71.0359 20.6749 71.5291C20.4262 72.0222 20.6244 72.6235 21.1175 72.8722L22.018 71.0864ZM27.4193 72.6595C27.9562 72.5299 28.2863 71.9896 28.1567 71.4527C28.0271 70.9159 27.4868 70.5857 26.95 70.7153L27.4193 72.6595ZM33.2346 69.1982C32.6978 69.3278 32.3676 69.868 32.4972 70.4049C32.6268 70.9418 33.1671 71.2719 33.704 71.1423L33.2346 69.1982ZM36.6591 72.3281C36.6591 72.8804 37.1068 73.3281 37.6591 73.3281C38.2114 73.3281 38.6591 72.8804 38.6591 72.3281H36.6591ZM38.6591 77.0821C38.6591 76.5298 38.2114 76.0821 37.6591 76.0821C37.1068 76.0821 36.6591 76.5298 36.6591 77.0821H38.6591ZM40.4469 82.7858C40.9395 83.0355 41.5413 82.8386 41.791 82.346C42.0407 81.8534 41.8438 81.2516 41.3512 81.0019L40.4469 82.7858ZM46.2112 83.4656C45.7186 83.2158 45.1168 83.4127 44.8671 83.9053C44.6174 84.3979 44.8143 84.9997 45.3069 85.2494L46.2112 83.4656ZM49.9416 86.3338C50.126 85.8132 49.8534 85.2417 49.3328 85.0573C48.8122 84.8729 48.2408 85.1455 48.0564 85.6661L49.9416 86.3338ZM48.0564 85.666C47.872 86.1866 48.1446 86.7581 48.6652 86.9425C49.1858 87.1269 49.7573 86.8543 49.9416 86.3337L48.0564 85.666ZM47.999 85.9999C47.999 86.5522 48.4467 86.9999 48.999 86.9999C49.5513 86.9999 49.999 86.5522 49.999 85.9999H47.999ZM49.999 85.9999C49.999 85.4477 49.5513 84.9999 48.999 84.9999C48.4467 84.9999 47.999 85.4477 47.999 85.9999H49.999ZM52.6914 85.2495C53.184 84.9998 53.3809 84.398 53.1312 83.9054C52.8815 83.4128 52.2798 83.2159 51.7872 83.4656L52.6914 85.2495ZM56.6475 81.0019C56.1549 81.2516 55.958 81.8533 56.2077 82.346C56.4574 82.8386 57.0592 83.0355 57.5518 82.7858L56.6475 81.0019ZM61.3399 77.0672C61.3399 76.5149 60.8922 76.0672 60.3399 76.0672C59.7877 76.0672 59.3399 76.5149 59.3399 77.0672H61.3399ZM59.3399 72.291C59.3399 72.8433 59.7877 73.291 60.3399 73.291C60.8922 73.291 61.3399 72.8433 61.3399 72.291H59.3399ZM64.2906 71.1082C64.8269 71.24 65.3685 70.9122 65.5004 70.3759C65.6323 69.8396 65.3045 69.2979 64.7681 69.166L64.2906 71.1082ZM71.0523 70.7113C70.516 70.5795 69.9743 70.9073 69.8424 71.4436C69.7105 71.9799 70.0384 72.5216 70.5747 72.6535L71.0523 70.7113ZM75.8509 73.2426C76.1436 72.7743 76.0012 72.1573 75.5329 71.8646C75.0646 71.5719 74.4476 71.7143 74.1549 72.1826L75.8509 73.2426ZM74.1549 72.1826C73.8622 72.6509 74.0046 73.2678 74.4729 73.5606C74.9413 73.8533 75.5582 73.7109 75.8509 73.2425L74.1549 72.1826ZM74.0029 72.7126C74.0029 73.2649 74.4507 73.7126 75.0029 73.7126C75.5552 73.7126 76.0029 73.2649 76.0029 72.7126H74.0029ZM76.0029 72.7127C76.0029 72.1604 75.5552 71.7127 75.0029 71.7127C74.4507 71.7127 74.0029 72.1604 74.0029 72.7127H76.0029ZM76.8827 72.8812C77.3753 72.6316 77.5723 72.0298 77.3227 71.5372C77.073 71.0445 76.4713 70.8476 75.9786 71.0972L76.8827 72.8812ZM78.1202 70.0119C77.6276 70.2616 77.4306 70.8633 77.6803 71.356C77.9299 71.8486 78.5317 72.0456 79.0243 71.796L78.1202 70.0119ZM81 65.946C81 65.3938 80.5523 64.946 80 64.946C79.4477 64.946 79 65.3938 79 65.946H81ZM79 59.5945C79 60.1467 79.4477 60.5945 80 60.5945C80.5523 60.5945 81 60.1467 81 59.5945H79ZM81 51.1257C81 50.5734 80.5523 50.1257 80 50.1257C79.4477 50.1257 79 50.5734 79 51.1257H81ZM79 44.7741C79 45.3264 79.4477 45.7741 80 45.7741C80.5523 45.7741 81 45.3264 81 44.7741H79ZM81 36.3053C81 35.753 80.5523 35.3053 80 35.3053C79.4477 35.3053 79 35.753 79 36.3053H81ZM79 29.9537C79 30.506 79.4477 30.9537 80 30.9537C80.5523 30.9537 81 30.506 81 29.9537H79ZM79.0244 24.1036C78.5318 23.8539 77.9301 24.0507 77.6803 24.5433C77.4306 25.0359 77.6275 25.6377 78.1201 25.8874L79.0244 24.1036ZM75.9785 24.8018C76.4711 25.0515 77.0729 24.8546 77.3226 24.362C77.5723 23.8694 77.3754 23.2676 76.8828 23.0179L75.9785 24.8018ZM74.0029 23.1863C74.0029 23.7386 74.4507 24.1863 75.0029 24.1863C75.5552 24.1863 76.0029 23.7386 76.0029 23.1863H74.0029ZM76.0029 23.1868C76.0029 22.6345 75.5552 22.1868 75.0029 22.1868C74.4507 22.1868 74.0029 22.6345 74.0029 23.1868H76.0029ZM75.7343 22.5052C75.3579 22.1011 74.7251 22.0787 74.321 22.4551C73.9169 22.8316 73.8945 23.4644 74.271 23.8685L75.7343 22.5052ZM74.2705 23.868C74.647 24.2721 75.2798 24.2945 75.6838 23.918C76.0879 23.5416 76.1104 22.9088 75.7339 22.5047L74.2705 23.868ZM70.5746 23.2435C70.0382 23.3752 69.7102 23.9167 69.8419 24.4531C69.9736 24.9894 70.5152 25.3175 71.0515 25.1858L70.5746 23.2435ZM64.7682 26.7286C65.3046 26.5969 65.6326 26.0553 65.5009 25.519C65.3692 24.9826 64.8277 24.6546 64.2913 24.7863L64.7682 26.7286ZM61.3409 23.633C61.3409 23.0808 60.8932 22.633 60.3409 22.633C59.7886 22.633 59.3409 23.0808 59.3409 23.633H61.3409ZM59.3409 18.9036C59.3409 19.4559 59.7886 19.9036 60.3409 19.9036C60.8932 19.9036 61.3409 19.4559 61.3409 18.9036H59.3409ZM57.5526 13.2157C57.06 12.9659 56.4582 13.1628 56.2085 13.6554C55.9587 14.148 56.1556 14.7497 56.6482 14.9995L57.5526 13.2157ZM51.7874 12.535C52.28 12.7847 52.8818 12.5879 53.1316 12.0953C53.3813 11.6027 53.1845 11.0009 52.6919 10.7512L51.7874 12.535ZM49.6401 9.2325C49.2162 8.87849 48.5856 8.93515 48.2316 9.35905C47.8776 9.78296 47.9342 10.4136 48.3581 10.7676L49.6401 9.2325ZM48.3581 10.7676C48.782 11.1216 49.4126 11.0649 49.7666 10.641C50.1207 10.2171 50.064 9.58648 49.6401 9.23247L48.3581 10.7676ZM48.9991 9H48.9991V11H48.9991V9ZM48.999 9H48.999V11H48.999V9ZM48.5467 9.10814L45.3071 10.7512L46.2117 12.5349L49.4513 10.8919L48.5467 9.10814ZM40.4476 13.2157L37.208 14.8587L38.1126 16.6424L41.3523 14.9994L40.4476 13.2157ZM36.6603 15.7506V18.8645H38.6603V15.7506H36.6603ZM36.6603 23.5353V26.6492H38.6603V23.5353H36.6603ZM37.8901 25.676L33.7 24.6865L33.2404 26.633L37.4305 27.6224L37.8901 25.676ZM27.4148 23.2023L23.2247 22.2128L22.7651 24.1593L26.9552 25.1487L27.4148 23.2023ZM23.7382 22.5171L23.7382 22.5171L22.2516 23.855L22.2516 23.855L23.7382 22.5171ZM23.7382 22.5171L23.7382 22.5171L22.2516 23.855L22.2516 23.855L23.7382 22.5171ZM22.9949 22.186H22.9949V24.186H22.9949V22.186ZM22.9949 22.186H22.9948V24.186H22.9949V22.186ZM21.9948 23.186V23.186H23.9948V23.186H21.9948ZM21.9948 23.186V23.1861H23.9948V23.186H21.9948ZM22.5425 22.2942L21.1154 23.018L22.0201 24.8017L23.4472 24.0779L22.5425 22.2942ZM18.9748 24.1037L17.5477 24.8274L18.4523 26.6112L19.8794 25.8874L18.9748 24.1037ZM17 25.7193V29.9537H19V25.7193H17ZM17 36.3053V44.774H19V36.3053H17ZM17 51.1256V59.5944H19V51.1256H17ZM17 65.946V70.1803H19V65.946H17ZM17.5498 71.0733L18.9769 71.7928L19.8773 70.007L18.4502 69.2874L17.5498 71.0733ZM21.1175 72.8722L22.5446 73.5918L23.4451 71.806L22.018 71.0864L21.1175 72.8722ZM23.2295 73.6709L27.4193 72.6595L26.95 70.7153L22.7602 71.7268L23.2295 73.6709ZM33.704 71.1423L37.8937 70.1309L37.4244 68.1867L33.2346 69.1982L33.704 71.1423ZM36.6591 69.1588V72.3281H38.6591V69.1588H36.6591ZM36.6591 77.0821V80.2514H38.6591V77.0821H36.6591ZM37.2069 81.1433L40.4469 82.7858L41.3512 81.0019L38.1112 79.3594L37.2069 81.1433ZM45.3069 85.2494L48.5468 86.8919L49.4511 85.108L46.2112 83.4656L45.3069 85.2494ZM49.9416 86.3338L49.9416 86.3338L48.0564 85.6661L48.0564 85.6661L49.9416 86.3338ZM49.9416 86.3337L49.9417 86.3337L48.0564 85.666L48.0564 85.666L49.9416 86.3337ZM47.999 85.9999V85.9999H49.999V85.9999H47.999ZM47.999 85.9999V86H49.999V85.9999H47.999ZM49.4511 86.8919L52.6914 85.2495L51.7872 83.4656L48.5469 85.108L49.4511 86.8919ZM57.5518 82.7858L60.7921 81.1433L59.8878 79.3594L56.6475 81.0019L57.5518 82.7858ZM61.3399 80.2514V77.0672H59.3399V80.2514H61.3399ZM61.3399 72.291V69.1069H59.3399V72.291H61.3399ZM60.1011 70.0779L64.2906 71.1082L64.7681 69.166L60.5787 68.1358L60.1011 70.0779ZM70.5747 72.6535L74.7641 73.6837L75.2417 71.7415L71.0523 70.7113L70.5747 72.6535ZM75.8509 73.2426L75.8509 73.2426L74.1549 72.1826L74.1549 72.1826L75.8509 73.2426ZM75.8509 73.2425L75.8509 73.2425L74.1549 72.1825L74.1549 72.1826L75.8509 73.2425ZM74.0029 72.7125V72.7126H76.0029V72.7125H74.0029ZM74.0029 72.7127V72.7127H76.0029V72.7127H74.0029ZM75.455 73.6047L76.8827 72.8812L75.9786 71.0972L74.5509 71.8207L75.455 73.6047ZM79.0243 71.796L80.452 71.0724L79.548 69.2884L78.1202 70.0119L79.0243 71.796ZM81 70.1804V65.946H79V70.1804H81ZM81 59.5945V51.1257H79V59.5945H81ZM81 44.7741V36.3053H79V44.7741H81ZM81 29.9537V25.7193H79V29.9537H81ZM80.4522 24.8274L79.0244 24.1036L78.1201 25.8874L79.5478 26.6112L80.4522 24.8274ZM76.8828 23.0179L75.4551 22.2941L74.5508 24.078L75.9785 24.8018L76.8828 23.0179ZM74.0029 23.186V23.1863H76.0029V23.186H74.0029ZM74.0029 23.1868V23.1871H76.0029V23.1868H74.0029ZM75.7346 22.5055L75.7343 22.5052L74.271 23.8685L74.2713 23.8688L75.7346 22.5055ZM75.7339 22.5047L75.7336 22.5044L74.2702 23.8677L74.2705 23.868L75.7339 22.5047ZM74.7635 22.2149L70.5746 23.2435L71.0515 25.1858L75.2404 24.1572L74.7635 22.2149ZM64.2913 24.7863L60.1024 25.8149L60.5794 27.7572L64.7682 26.7286L64.2913 24.7863ZM61.3409 26.786V23.633H59.3409V26.786H61.3409ZM61.3409 18.9036V15.7506H59.3409V18.9036H61.3409ZM60.7931 14.8587L57.5526 13.2157L56.6482 14.9995L59.8887 16.6425L60.7931 14.8587ZM52.6919 10.7512L49.4514 9.10816L48.5469 10.892L51.7874 12.535L52.6919 10.7512ZM49.6401 9.23252L49.6401 9.2325L48.3581 10.7676L48.3582 10.7676L49.6401 9.23252ZM49.6401 9.23247L49.6401 9.23245L48.3581 10.7675L48.3581 10.7676L49.6401 9.23247Z" fill="black" mask="url(#path-1-inside-1)"/>
<path d="M12.9949 15.186L8 17.7193V62.1803L12.9949 64.6989L13.0249 64.6623V15.2209L12.9949 15.186Z" fill="#8C3123"/>
<path d="M39.7266 58.2456L12.9949 64.6989V15.186L39.7266 21.4986V58.2456Z" fill="#E05243"/>
<path d="M27.6604 48.1426L38.9991 49.6065L39.0703 49.44L39.134 30.5841L38.9991 30.4368L27.6604 31.8795V48.1426Z" fill="#8C3123"/>
<path d="M38.999 58.3181L65.0029 64.7126L65.0438 64.6465L65.0431 15.2302L65.0019 15.186L38.999 21.571V58.3181Z" fill="#8C3123"/>
<path d="M50.3409 48.1426L38.999 49.6065V30.4368L50.3409 31.8795V48.1426Z" fill="#E05243"/>
<path d="M50.341 24.0147L38.9991 26.111L27.6604 24.0147L38.9848 21.0044L50.341 24.0147Z" fill="#5E1F18"/>
<path d="M50.341 55.9863L38.9991 53.8761L27.6604 55.9863L38.9853 59.1923L50.341 55.9863Z" fill="#F2B0A9"/>
<path d="M27.6604 24.0147L38.9992 21.169L39.091 21.1403V2.07688L38.9992 2L27.6604 7.75059V24.0147Z" fill="#8C3123"/>
<path d="M50.3409 24.0147L38.999 21.169V2L50.3409 7.75059V24.0147Z" fill="#E05243"/>
<path d="M38.9991 78L27.6592 72.2514V55.9875L38.9991 58.8322L39.166 59.0246L39.1207 77.6681L38.9991 78Z" fill="#8C3123"/>
<path d="M38.999 78L50.3399 72.2514V55.9875L38.999 58.8322V78ZM65.0029 15.186L70 17.7193V62.1804L65.0029 64.7127V15.186Z" fill="#E05243"/>
</svg>
