<svg width="88" height="88" viewBox="0 0 88 88" fill="none" xmlns="http://www.w3.org/2000/svg">
<path d="M79 36L46 19L36 25V31L28 28L20.5 32V37.5L13.5 36L7 38.5V68.5L12 69.5L15.5 74L22 75L25 72.5L32 79L40 80.5L41.3991 77.0023C41.6752 76.3121 42.5811 76.1537 43.075 76.7093L50 84.5L60.5 86.5L67.5 72.5L79 69.5V36Z" fill="#F7F7FE"/>
<path d="M46 19L46.229 18.5555L45.9815 18.428L45.7428 18.5713L46 19ZM79 36H79.5V35.6951L79.229 35.5555L79 36ZM79 69.5L79.1262 69.9838L79.5 69.8863V69.5H79ZM67.5 72.5L67.3738 72.0162L67.1543 72.0735L67.0528 72.2764L67.5 72.5ZM60.5 86.5L60.4064 86.9912L60.778 87.062L60.9472 86.7236L60.5 86.5ZM50 84.5L49.6263 84.8322L49.7393 84.9593L49.9064 84.9912L50 84.5ZM43.075 76.7093L42.7013 77.0415L42.7013 77.0415L43.075 76.7093ZM41.3991 77.0023L41.8633 77.188L41.3991 77.0023ZM40 80.5L39.9079 80.9914L40.3117 81.0672L40.4642 80.6857L40 80.5ZM32 79L31.6598 79.3664L31.7657 79.4648L31.9079 79.4914L32 79ZM25 72.5L25.3402 72.1336L25.0179 71.8343L24.6799 72.1159L25 72.5ZM22 75L21.924 75.4942L22.1469 75.5285L22.3201 75.3841L22 75ZM15.5 74L15.1053 74.307L15.2274 74.4639L15.424 74.4942L15.5 74ZM12 69.5L12.3947 69.193L12.2805 69.0462L12.0981 69.0097L12 69.5ZM7 68.5H6.5V68.9099L6.90194 68.9903L7 68.5ZM7 38.5L6.82051 38.0333L6.5 38.1566V38.5H7ZM13.5 36L13.6048 35.5111L13.4593 35.4799L13.3205 35.5333L13.5 36ZM20.5 37.5L20.3952 37.9889L21 38.1185V37.5H20.5ZM20.5 32L20.2647 31.5588L20 31.7V32H20.5ZM28 28L28.1756 27.5318L27.964 27.4525L27.7647 27.5588L28 28ZM36 31L35.8244 31.4682L36.5 31.7215V31H36ZM36 25L35.7428 24.5713L35.5 24.7169V25H36ZM43.5205 19.9046C43.2837 20.0467 43.207 20.3538 43.349 20.5906C43.4911 20.8274 43.7982 20.9042 44.035 20.7621L43.5205 19.9046ZM38.4795 24.0954C38.7163 23.9533 38.793 23.6462 38.651 23.4094C38.5089 23.1726 38.2018 23.0958 37.965 23.2379L38.4795 24.0954ZM35.5 26.3333C35.5 26.6095 35.7239 26.8333 36 26.8333C36.2761 26.8333 36.5 26.6095 36.5 26.3333H35.5ZM36.5 29.6667C36.5 29.3905 36.2761 29.1667 36 29.1667C35.7239 29.1667 35.5 29.3905 35.5 29.6667H36.5ZM34.3978 29.8652C34.1392 29.7682 33.851 29.8992 33.7541 30.1578C33.6571 30.4163 33.7881 30.7045 34.0467 30.8015L34.3978 29.8652ZM29.6022 29.1348C29.8608 29.2318 30.149 29.1008 30.2459 28.8422C30.3429 28.5837 30.2119 28.2955 29.9533 28.1985L29.6022 29.1348ZM26.098 28.4477C25.8544 28.5777 25.7622 28.8805 25.8922 29.1242C26.0221 29.3678 26.325 29.46 26.5686 29.3301L26.098 28.4477ZM22.402 31.5523C22.6456 31.4223 22.7378 31.1195 22.6078 30.8758C22.4779 30.6322 22.175 30.54 21.9314 30.6699L22.402 31.5523ZM20 33.2222C20 33.4984 20.2239 33.7222 20.5 33.7222C20.7761 33.7222 21 33.4984 21 33.2222H20ZM21 36.2778C21 36.0016 20.7761 35.7778 20.5 35.7778C20.2239 35.7778 20 36.0016 20 36.2778H21ZM19.0492 36.6778C18.7792 36.6199 18.5134 36.7919 18.4555 37.0619C18.3977 37.3319 18.5697 37.5977 18.8397 37.6556L19.0492 36.6778ZM14.9508 36.8222C15.2208 36.8801 15.4866 36.7081 15.5445 36.4381C15.6023 36.1681 15.4303 35.9023 15.1603 35.8444L14.9508 36.8222ZM11.8761 36.0889C11.6183 36.188 11.4898 36.4773 11.5889 36.735C11.688 36.9928 11.9773 37.1214 12.235 37.0222L11.8761 36.0889ZM8.62393 38.4111C8.88167 38.312 9.01025 38.0227 8.91112 37.765C8.81199 37.5072 8.52269 37.3786 8.26495 37.4778L8.62393 38.4111ZM6.5 41.8333C6.5 42.1095 6.72386 42.3333 7 42.3333C7.27614 42.3333 7.5 42.1095 7.5 41.8333H6.5ZM7.5 50.1667C7.5 49.8905 7.27614 49.6667 7 49.6667C6.72386 49.6667 6.5 49.8905 6.5 50.1667H7.5ZM6.5 56.8333C6.5 57.1095 6.72386 57.3333 7 57.3333C7.27614 57.3333 7.5 57.1095 7.5 56.8333H6.5ZM7.5 65.1667C7.5 64.8905 7.27614 64.6667 7 64.6667C6.72386 64.6667 6.5 64.8905 6.5 65.1667H7.5ZM8.01305 69.2125C8.28383 69.2667 8.54725 69.0911 8.6014 68.8203C8.65556 68.5495 8.47995 68.2861 8.20917 68.2319L8.01305 69.2125ZM10.9869 68.7875C10.7162 68.7333 10.4528 68.9089 10.3986 69.1797C10.3444 69.4505 10.5201 69.7139 10.7908 69.7681L10.9869 68.7875ZM12.3831 70.807C12.5526 71.0249 12.8668 71.0642 13.0847 70.8947C13.3027 70.7251 13.342 70.411 13.1725 70.193L12.3831 70.807ZM15.1169 72.693C14.9474 72.4751 14.6332 72.4358 14.4153 72.6053C14.1973 72.7749 14.158 73.089 14.3275 73.307L15.1169 72.693ZM16.8684 74.7164C17.1413 74.7584 17.3966 74.5712 17.4386 74.2983C17.4806 74.0253 17.2934 73.77 17.0205 73.728L16.8684 74.7164ZM20.6316 74.2836C20.3587 74.2416 20.1034 74.4288 20.0614 74.7017C20.0194 74.9747 20.2066 75.23 20.4795 75.272L20.6316 74.2836ZM22.9868 74.8286C23.1989 74.6518 23.2276 74.3365 23.0508 74.1244C22.874 73.9122 22.5587 73.8836 22.3466 74.0603L22.9868 74.8286ZM24.0132 72.6714C23.8011 72.8482 23.7724 73.1635 23.9492 73.3756C24.126 73.5878 24.4413 73.6164 24.6534 73.4397L24.0132 72.6714ZM26.2153 74.3108C26.4177 74.4987 26.7341 74.487 26.922 74.2847C27.1099 74.0823 27.0981 73.7659 26.8958 73.578L26.2153 74.3108ZM30.7847 77.1892C30.5823 77.0013 30.2659 77.013 30.078 77.2153C29.8901 77.4177 29.9019 77.7341 30.1042 77.922L30.7847 77.1892ZM33.6856 79.8248C33.957 79.8757 34.2183 79.6969 34.2692 79.4255C34.3201 79.1541 34.1413 78.8928 33.8699 78.8419L33.6856 79.8248ZM38.3144 79.6752C38.043 79.6243 37.7817 79.8031 37.7308 80.0745C37.6799 80.3459 37.8587 80.6072 38.1301 80.6581L38.3144 79.6752ZM40.7751 79.9084C40.8777 79.652 40.753 79.3611 40.4966 79.2585C40.2402 79.1559 39.9492 79.2806 39.8467 79.537L40.7751 79.9084ZM40.6239 77.5939C40.5214 77.8503 40.6461 78.1413 40.9025 78.2438C41.1589 78.3464 41.4499 78.2217 41.5524 77.9653L40.6239 77.5939ZM41.9902 77.0029C42.1944 76.8172 42.2094 76.5009 42.0236 76.2966C41.8378 76.0923 41.5216 76.0774 41.3173 76.2631L41.9902 77.0029ZM42.9011 75.9863C42.6459 75.8808 42.3535 76.0022 42.248 76.2574C42.1426 76.5126 42.264 76.805 42.5192 76.9105L42.9011 75.9863ZM44.2402 78.7728C44.4236 78.9792 44.7397 78.9978 44.946 78.8143C45.1524 78.6308 45.171 78.3148 44.9876 78.1084L44.2402 78.7728ZM48.8348 82.4366C48.6513 82.2302 48.3353 82.2116 48.1289 82.395C47.9225 82.5785 47.9039 82.8945 48.0874 83.1009L48.8348 82.4366ZM52.2398 85.4356C52.511 85.4873 52.7728 85.3093 52.8245 85.038C52.8762 84.7667 52.6982 84.5049 52.4269 84.4533L52.2398 85.4356ZM58.2602 85.5644C57.989 85.5127 57.7272 85.6907 57.6755 85.962C57.6238 86.2333 57.8018 86.4951 58.0731 86.5467L58.2602 85.5644ZM62.5028 83.6125C62.6263 83.3655 62.5261 83.0652 62.2792 82.9417C62.0322 82.8182 61.7318 82.9183 61.6083 83.1653L62.5028 83.6125ZM65.4972 75.3875C65.3737 75.6345 65.4738 75.9348 65.7208 76.0583C65.9678 76.1818 66.2682 76.0817 66.3917 75.8347L65.4972 75.3875ZM70.1818 72.3171C70.449 72.2474 70.6091 71.9743 70.5394 71.7071C70.4697 71.4399 70.1965 71.2798 69.9293 71.3495L70.1818 72.3171ZM76.3182 69.6829C76.051 69.7526 75.8909 70.0257 75.9606 70.2929C76.0303 70.5601 76.3035 70.7202 76.5707 70.6505L76.3182 69.6829ZM79.5 65.7778C79.5 65.5016 79.2761 65.2778 79 65.2778C78.7239 65.2778 78.5 65.5016 78.5 65.7778H79.5ZM78.5 56.4722C78.5 56.7484 78.7239 56.9722 79 56.9722C79.2761 56.9722 79.5 56.7484 79.5 56.4722H78.5ZM79.5 49.0278C79.5 48.7516 79.2761 48.5278 79 48.5278C78.7239 48.5278 78.5 48.7516 78.5 49.0278H79.5ZM78.5 39.7222C78.5 39.9984 78.7239 40.2222 79 40.2222C79.2761 40.2222 79.5 39.9984 79.5 39.7222H78.5ZM75.5623 33.6666C75.3168 33.5402 75.0153 33.6366 74.8888 33.8821C74.7624 34.1276 74.8589 34.4291 75.1044 34.5556L75.5623 33.6666ZM65.9377 29.8334C66.1832 29.9598 66.4847 29.8634 66.6112 29.6179C66.7376 29.3724 66.6411 29.0709 66.3956 28.9444L65.9377 29.8334ZM59.0623 25.1666C58.8168 25.0402 58.5153 25.1366 58.3888 25.3821C58.2624 25.6276 58.3589 25.9291 58.6044 26.0556L59.0623 25.1666ZM49.4377 21.3334C49.6832 21.4598 49.9847 21.3634 50.1112 21.1179C50.2376 20.8724 50.1411 20.5709 49.8956 20.4444L49.4377 21.3334ZM45.7428 18.5713L43.5205 19.9046L44.035 20.7621L46.2572 19.4287L45.7428 18.5713ZM37.965 23.2379L35.7428 24.5713L36.2572 25.4287L38.4795 24.0954L37.965 23.2379ZM35.5 25V26.3333H36.5V25H35.5ZM35.5 29.6667V31H36.5V29.6667H35.5ZM36.1756 30.5318L34.3978 29.8652L34.0467 30.8015L35.8244 31.4682L36.1756 30.5318ZM29.9533 28.1985L28.1756 27.5318L27.8244 28.4682L29.6022 29.1348L29.9533 28.1985ZM27.7647 27.5588L26.098 28.4477L26.5686 29.3301L28.2353 28.4412L27.7647 27.5588ZM21.9314 30.6699L20.2647 31.5588L20.7353 32.4412L22.402 31.5523L21.9314 30.6699ZM20 32V33.2222H21V32H20ZM20 36.2778V37.5H21V36.2778H20ZM20.6048 37.0111L19.0492 36.6778L18.8397 37.6556L20.3952 37.9889L20.6048 37.0111ZM15.1603 35.8444L13.6048 35.5111L13.3952 36.4889L14.9508 36.8222L15.1603 35.8444ZM13.3205 35.5333L11.8761 36.0889L12.235 37.0222L13.6795 36.4667L13.3205 35.5333ZM8.26495 37.4778L6.82051 38.0333L7.17949 38.9667L8.62393 38.4111L8.26495 37.4778ZM6.5 38.5V41.8333H7.5V38.5H6.5ZM6.5 50.1667V56.8333H7.5V50.1667H6.5ZM6.5 65.1667V68.5H7.5V65.1667H6.5ZM6.90194 68.9903L8.01305 69.2125L8.20917 68.2319L7.09806 68.0097L6.90194 68.9903ZM10.7908 69.7681L11.9019 69.9903L12.0981 69.0097L10.9869 68.7875L10.7908 69.7681ZM11.6053 69.807L12.3831 70.807L13.1725 70.193L12.3947 69.193L11.6053 69.807ZM14.3275 73.307L15.1053 74.307L15.8947 73.693L15.1169 72.693L14.3275 73.307ZM15.424 74.4942L16.8684 74.7164L17.0205 73.728L15.576 73.5058L15.424 74.4942ZM20.4795 75.272L21.924 75.4942L22.076 74.5058L20.6316 74.2836L20.4795 75.272ZM22.3201 75.3841L22.9868 74.8286L22.3466 74.0603L21.6799 74.6159L22.3201 75.3841ZM24.6534 73.4397L25.3201 72.8841L24.6799 72.1159L24.0132 72.6714L24.6534 73.4397ZM24.6598 72.8664L26.2153 74.3108L26.8958 73.578L25.3402 72.1336L24.6598 72.8664ZM30.1042 77.922L31.6598 79.3664L32.3402 78.6336L30.7847 77.1892L30.1042 77.922ZM31.9079 79.4914L33.6856 79.8248L33.8699 78.8419L32.0921 78.5086L31.9079 79.4914ZM38.1301 80.6581L39.9079 80.9914L40.0921 80.0086L38.3144 79.6752L38.1301 80.6581ZM40.4642 80.6857L40.7751 79.9084L39.8467 79.537L39.5358 80.3143L40.4642 80.6857ZM41.5524 77.9653L41.8633 77.188L40.9348 76.8166L40.6239 77.5939L41.5524 77.9653ZM41.8633 77.188C41.8942 77.1109 41.9385 77.05 41.9902 77.0029L41.3173 76.2631C41.1549 76.4109 41.0226 76.5973 40.9348 76.8166L41.8633 77.188ZM42.5192 76.9105C42.5837 76.9372 42.6461 76.9794 42.7013 77.0415L43.4487 76.3772C43.2918 76.2006 43.104 76.0701 42.9011 75.9863L42.5192 76.9105ZM42.7013 77.0415L44.2402 78.7728L44.9876 78.1084L43.4487 76.3772L42.7013 77.0415ZM48.0874 83.1009L49.6263 84.8322L50.3737 84.1678L48.8348 82.4366L48.0874 83.1009ZM49.9064 84.9912L52.2398 85.4356L52.4269 84.4533L50.0936 84.0088L49.9064 84.9912ZM58.0731 86.5467L60.4064 86.9912L60.5936 86.0088L58.2602 85.5644L58.0731 86.5467ZM60.9472 86.7236L62.5028 83.6125L61.6083 83.1653L60.0528 86.2764L60.9472 86.7236ZM66.3917 75.8347L67.9472 72.7236L67.0528 72.2764L65.4972 75.3875L66.3917 75.8347ZM67.6262 72.9838L70.1818 72.3171L69.9293 71.3495L67.3738 72.0162L67.6262 72.9838ZM76.5707 70.6505L79.1262 69.9838L78.8738 69.0162L76.3182 69.6829L76.5707 70.6505ZM79.5 69.5V65.7778H78.5V69.5H79.5ZM79.5 56.4722V49.0278H78.5V56.4722H79.5ZM79.5 39.7222V36H78.5V39.7222H79.5ZM79.229 35.5555L75.5623 33.6666L75.1044 34.5556L78.771 36.4445L79.229 35.5555ZM66.3956 28.9444L59.0623 25.1666L58.6044 26.0556L65.9377 29.8334L66.3956 28.9444ZM49.8956 20.4444L46.229 18.5555L45.771 19.4445L49.4377 21.3334L49.8956 20.4444Z" fill="black"/>
<path d="M4.20239 62.234L8.38698 67.1127L14.143 68.6721L9.39271 61.8601L4.20239 62.234Z" fill="#995B80"/>
<path d="M5.93564 28.9493V62.5897L0 61.3859V32.0224L5.93564 28.9493Z" fill="#7B3F65"/>
<path d="M5.93555 62.5897L25.4935 58.4496L25.9695 34.7764L5.93555 28.9493V62.5897Z" fill="#C17B9D"/>
<path d="M9.39258 61.8601L14.1429 68.6721L18.2916 59.9725L9.39258 61.8601Z" fill="#C17B9D"/>
<path d="M18.552 65.8999L24.1195 72.3836L31.7703 74.4536L25.4485 65.3984L18.552 65.8999Z" fill="#995B80"/>
<path d="M20.8598 21.6631V66.365L12.9756 64.7782V25.7485L20.8598 21.6631Z" fill="#7B3F65"/>
<path d="M20.8601 66.365L46.8566 60.8662L47.4942 31.1105L20.8601 21.6631V66.365Z" fill="#C17B9D"/>
<path d="M25.4485 65.3983L31.7703 74.4536L37.2839 62.8906L25.4485 65.3983Z" fill="#C17B9D"/>
<path d="M35.7395 69.6752L42.8695 77.9827L52.6664 80.6364L44.5756 69.0278L35.7395 69.6752Z" fill="#995B80"/>
<path d="M38.6938 13V70.2679L28.5916 68.2344V18.2252L38.6938 13Z" fill="#7B3F65"/>
<path d="M38.6938 70.2679L71.9999 63.228V30.0071L38.6938 13V70.2679Z" fill="#C17B9D"/>
<path d="M44.5754 69.0278L52.6662 80.6364L59.7333 65.8178L44.5754 69.0278Z" fill="#C17B9D"/>
</svg>
