<svg width="88" height="88" viewBox="0 0 88 88" fill="none" xmlns="http://www.w3.org/2000/svg">
<mask id="path-1-inside-1" fill="white">
<path fill-rule="evenodd" clip-rule="evenodd" d="M49.4821 27.1998L49.4851 12L18.0042 27.7363L18 72.2573L18.0157 72.2652V72.2657L49.4787 88L80.9436 72.2711V63.3632L54.1897 60.034L54.1898 59.0027L80.9458 55.626V44.3307L54.1918 40.9225L54.1919 39.9658L24.1216 35.7299L54.2118 39.968L80.9616 36.6471L80.9638 27.7424L49.4851 12V27.1989L49.4821 27.1998Z"/>
</mask>
<path fill-rule="evenodd" clip-rule="evenodd" d="M49.4821 27.1998L49.4851 12L18.0042 27.7363L18 72.2573L18.0157 72.2652V72.2657L49.4787 88L80.9436 72.2711V63.3632L54.1897 60.034L54.1898 59.0027L80.9458 55.626V44.3307L54.1918 40.9225L54.1919 39.9658L24.1216 35.7299L54.2118 39.968L80.9616 36.6471L80.9638 27.7424L49.4851 12V27.1989L49.4821 27.1998Z" fill="#F7F7FE"/>
<path d="M49.4851 12L49.9851 12.0001C49.9851 11.8268 49.8954 11.6658 49.748 11.5747C49.6006 11.4836 49.4165 11.4753 49.2615 11.5528L49.4851 12ZM49.4821 27.1998L48.9821 27.1997C48.982 27.3577 49.0567 27.5065 49.1835 27.6009C49.3103 27.6952 49.4742 27.7241 49.6256 27.6787L49.4821 27.1998ZM18.0042 27.7363L17.7806 27.289C17.6112 27.3737 17.5042 27.5468 17.5042 27.7362L18.0042 27.7363ZM18 72.2573L17.5 72.2573C17.5 72.4467 17.607 72.6199 17.7764 72.7046L18 72.2573ZM18.0157 72.2652H18.5157C18.5157 72.0758 18.4087 71.9027 18.2393 71.818L18.0157 72.2652ZM18.0157 72.2657H17.5157C17.5157 72.4551 17.6227 72.6282 17.7921 72.7129L18.0157 72.2657ZM49.4787 88L49.2551 88.4472C49.3958 88.5176 49.5615 88.5176 49.7023 88.4472L49.4787 88ZM80.9436 72.2711L81.1672 72.7183C81.3366 72.6337 81.4436 72.4605 81.4436 72.2711H80.9436ZM80.9436 63.3632H81.4436C81.4436 63.1109 81.2557 62.8982 81.0054 62.867L80.9436 63.3632ZM54.1897 60.034L53.6897 60.0339C53.6896 60.2862 53.8776 60.499 54.1279 60.5302L54.1897 60.034ZM54.1898 59.0027L54.1272 58.5066C53.8772 58.5381 53.6898 58.7507 53.6898 59.0026L54.1898 59.0027ZM80.9458 55.626L81.0084 56.1221C81.2584 56.0906 81.4458 55.878 81.4458 55.626H80.9458ZM80.9458 44.3307H81.4458C81.4458 44.079 81.2587 43.8665 81.009 43.8347L80.9458 44.3307ZM54.1918 40.9225L53.6918 40.9224C53.6917 41.1742 53.8789 41.3867 54.1286 41.4185L54.1918 40.9225ZM54.1919 39.9658L54.6919 39.9658C54.6919 39.7166 54.5084 39.5054 54.2616 39.4706L54.1919 39.9658ZM24.1216 35.7299L24.1914 35.2347C23.9179 35.1962 23.6651 35.3867 23.6265 35.6601C23.588 35.9336 23.7785 36.1864 24.0519 36.225L24.1216 35.7299ZM54.2118 39.968L54.1421 40.4631C54.1856 40.4692 54.2298 40.4696 54.2734 40.4642L54.2118 39.968ZM80.9616 36.6471L81.0232 37.1433C81.2735 37.1122 81.4615 36.8995 81.4616 36.6473L80.9616 36.6471ZM80.9638 27.7424L81.4638 27.7425C81.4638 27.5531 81.3568 27.38 81.1874 27.2952L80.9638 27.7424ZM49.4851 12L49.7087 11.5528C49.5537 11.4753 49.3697 11.4836 49.2222 11.5747C49.0748 11.6658 48.9851 11.8267 48.9851 12H49.4851ZM49.4851 27.1989L49.6287 27.6778C49.8402 27.6144 49.9851 27.4197 49.9851 27.1989H49.4851ZM45.7637 13.3012C45.5166 13.4247 45.4165 13.725 45.54 13.972C45.6634 14.219 45.9638 14.3192 46.2108 14.1957L45.7637 13.3012ZM37.4661 18.5669C37.7131 18.4434 37.8132 18.1431 37.6898 17.8961C37.5663 17.6491 37.266 17.549 37.019 17.6724L37.4661 18.5669ZM30.0232 21.1694C29.7762 21.2928 29.6761 21.5932 29.7995 21.8402C29.923 22.0872 30.2233 22.1873 30.4703 22.0638L30.0232 21.1694ZM21.7256 26.435C21.9726 26.3116 22.0728 26.0112 21.9493 25.7642C21.8258 25.5172 21.5255 25.4171 21.2785 25.5406L21.7256 26.435ZM17.5037 32.683C17.5037 32.9592 17.7275 33.183 18.0037 33.1831C18.2798 33.1831 18.5037 32.9592 18.5037 32.6831L17.5037 32.683ZM18.5026 45.0501C18.5026 44.7739 18.2787 44.55 18.0026 44.55C17.7265 44.55 17.5026 44.7738 17.5026 45.05L18.5026 45.0501ZM17.5016 54.9435C17.5016 55.2197 17.7254 55.4436 18.0016 55.4436C18.2777 55.4436 18.5016 55.2198 18.5016 54.9436L17.5016 54.9435ZM18.5005 67.3106C18.5005 67.0345 18.2767 66.8106 18.0005 66.8105C17.7244 66.8105 17.5005 67.0344 17.5005 67.3105L18.5005 67.3106ZM17.7799 72.7063C18.0269 72.8298 18.3272 72.7297 18.4507 72.4827C18.5742 72.2357 18.4741 71.9353 18.2271 71.8119L17.7799 72.7063ZM18.2358 71.8162C17.9888 71.6927 17.6885 71.7929 17.565 72.0399C17.4415 72.2869 17.5417 72.5872 17.7887 72.7107L18.2358 71.8162ZM17.5157 72.2653C17.5157 72.5415 17.7396 72.7653 18.0157 72.7653C18.2919 72.7653 18.5157 72.5415 18.5157 72.2653H17.5157ZM18.5157 72.2656C18.5157 71.9894 18.2919 71.7656 18.0157 71.7656C17.7396 71.7656 17.5157 71.9894 17.5157 72.2656H18.5157ZM21.288 74.4611C21.535 74.5847 21.8353 74.4846 21.9588 74.2376C22.0823 73.9906 21.9822 73.6903 21.7353 73.5668L21.288 74.4611ZM30.475 77.9374C30.228 77.8139 29.9277 77.914 29.8041 78.1609C29.6806 78.4079 29.7807 78.7083 30.0277 78.8318L30.475 77.9374ZM37.0195 82.3283C37.2664 82.4518 37.5668 82.3517 37.6903 82.1047C37.8138 81.8578 37.7137 81.5574 37.4667 81.4339L37.0195 82.3283ZM46.2065 85.8045C45.9595 85.681 45.6591 85.7811 45.5356 86.0281C45.4121 86.2751 45.5122 86.5754 45.7592 86.6989L46.2065 85.8045ZM53.1984 86.6996C53.4454 86.5761 53.5455 86.2758 53.422 86.0288C53.2986 85.7818 52.9982 85.6816 52.7512 85.8051L53.1984 86.6996ZM61.4915 81.436C61.2445 81.5594 61.1444 81.8598 61.2678 82.1068C61.3913 82.3538 61.6916 82.4539 61.9386 82.3304L61.4915 81.436ZM68.9308 78.8351C69.1778 78.7117 69.278 78.4113 69.1545 78.1643C69.031 77.9173 68.7307 77.8172 68.4837 77.9407L68.9308 78.8351ZM77.224 73.5715C76.977 73.695 76.8768 73.9953 77.0003 74.2423C77.1238 74.4893 77.4241 74.5895 77.6711 74.466L77.224 73.5715ZM81.4436 70.2916C81.4436 70.0154 81.2198 69.7916 80.9436 69.7916C80.6675 69.7916 80.4436 70.0154 80.4436 70.2916H81.4436ZM80.4436 65.3427C80.4436 65.6189 80.6675 65.8427 80.9436 65.8427C81.2198 65.8427 81.4436 65.6189 81.4436 65.3427H80.4436ZM75.06 62.1272C74.786 62.0931 74.5362 62.2876 74.5021 62.5616C74.468 62.8357 74.6625 63.0855 74.9366 63.1196L75.06 62.1272ZM60.0733 61.27C60.3473 61.3041 60.5971 61.1096 60.6312 60.8356C60.6653 60.5615 60.4708 60.3117 60.1967 60.2776L60.0733 61.27ZM54.6897 59.8049C54.6897 59.5287 54.4659 59.3048 54.1898 59.3048C53.9136 59.3048 53.6897 59.5286 53.6897 59.8048L54.6897 59.8049ZM53.6898 59.2318C53.6897 59.5079 53.9136 59.7318 54.1897 59.7319C54.4658 59.7319 54.6897 59.5081 54.6898 59.2319L53.6898 59.2318ZM60.1982 58.7484C60.4721 58.7138 60.6662 58.4637 60.6316 58.1897C60.5971 57.9157 60.3469 57.7217 60.073 57.7562L60.1982 58.7484ZM74.9374 55.8803C74.6635 55.9149 74.4694 56.165 74.504 56.439C74.5386 56.713 74.7887 56.907 75.0627 56.8725L74.9374 55.8803ZM81.4458 53.116C81.4458 52.8398 81.222 52.616 80.9458 52.616C80.6697 52.616 80.4458 52.8398 80.4458 53.116H81.4458ZM80.4458 46.8408C80.4458 47.1169 80.6697 47.3408 80.9458 47.3408C81.222 47.3408 81.4458 47.1169 81.4458 46.8408H80.4458ZM75.0637 43.0773C74.7897 43.0424 74.5394 43.2362 74.5045 43.5101C74.4696 43.784 74.6634 44.0344 74.9373 44.0693L75.0637 43.0773ZM60.0739 42.1759C60.3479 42.2108 60.5982 42.017 60.6331 41.7431C60.668 41.4691 60.4742 41.2188 60.2003 41.1839L60.0739 42.1759ZM54.6918 40.7099C54.6918 40.4338 54.468 40.2099 54.1919 40.2099C53.9157 40.2099 53.6918 40.4337 53.6918 40.7098L54.6918 40.7099ZM53.6919 40.1783C53.6918 40.4545 53.9157 40.6783 54.1918 40.6784C54.4679 40.6784 54.6918 40.4546 54.6919 40.1784L53.6919 40.1783ZM50.9205 39C50.647 38.9615 50.3941 39.1519 50.3556 39.4254C50.3171 39.6988 50.5076 39.9517 50.781 39.9902L50.9205 39ZM42.4282 38.8136C42.7016 38.8521 42.9545 38.6617 42.993 38.3882C43.0315 38.1148 42.8411 37.8619 42.5676 37.8234L42.4282 38.8136ZM35.8854 36.882C35.6119 36.8435 35.359 37.034 35.3205 37.3074C35.282 37.5809 35.4724 37.8337 35.7459 37.8723L35.8854 36.882ZM27.393 36.6956C27.6665 36.7341 27.9194 36.5437 27.9579 36.2703C27.9964 35.9968 27.806 35.7439 27.5325 35.7054L27.393 36.6956ZM27.3953 36.6959C27.6687 36.7344 27.9216 36.5439 27.9601 36.2705C27.9986 35.9971 27.8082 35.7442 27.5347 35.7056L27.3953 36.6959ZM35.8931 36.8829C35.6197 36.8444 35.3668 37.0348 35.3283 37.3083C35.2897 37.5817 35.4802 37.8346 35.7536 37.8731L35.8931 36.8829ZM42.4403 38.8149C42.7138 38.8534 42.9667 38.663 43.0052 38.3896C43.0437 38.1161 42.8533 37.8632 42.5798 37.8247L42.4403 38.8149ZM50.9382 39.002C50.6647 38.9634 50.4119 39.1539 50.3733 39.4273C50.3348 39.7008 50.5253 39.9537 50.7987 39.9922L50.9382 39.002ZM60.2178 39.7262C60.4918 39.6922 60.6864 39.4424 60.6524 39.1684C60.6184 38.8944 60.3686 38.6998 60.0946 38.7338L60.2178 39.7262ZM74.9556 36.8889C74.6815 36.9229 74.487 37.1727 74.521 37.4467C74.555 37.7207 74.8047 37.9153 75.0788 37.8813L74.9556 36.8889ZM81.4621 34.6684C81.4621 34.3923 81.2383 34.1684 80.9622 34.1683C80.6861 34.1682 80.4621 34.392 80.4621 34.6682L81.4621 34.6684ZM80.4633 29.7211C80.4632 29.9973 80.687 30.2212 80.9632 30.2212C81.2393 30.2213 81.4632 29.9975 81.4633 29.7214L80.4633 29.7211ZM77.6898 25.5461C77.4428 25.4226 77.1425 25.5226 77.019 25.7696C76.8954 26.0166 76.9955 26.3169 77.2425 26.4405L77.6898 25.5461ZM68.4984 22.0676C68.7454 22.1911 69.0458 22.091 69.1693 21.844C69.2928 21.597 69.1927 21.2967 68.9457 21.1732L68.4984 22.0676ZM61.9505 17.6749C61.7035 17.5513 61.4031 17.6514 61.2796 17.8984C61.1561 18.1454 61.2562 18.4457 61.5032 18.5693L61.9505 17.6749ZM52.7591 14.1964C53.0061 14.3199 53.3064 14.2198 53.4299 13.9728C53.5534 13.7258 53.4534 13.4255 53.2064 13.302L52.7591 14.1964ZM48.9851 15.3775C48.9851 15.6537 49.209 15.8775 49.4851 15.8775C49.7612 15.8775 49.9851 15.6537 49.9851 15.3775H48.9851ZM49.9851 23.8213C49.9851 23.5452 49.7612 23.3213 49.4851 23.3213C49.209 23.3213 48.9851 23.5452 48.9851 23.8213H49.9851ZM49.3409 26.7201C49.0763 26.7994 48.9262 27.0781 49.0055 27.3426C49.0848 27.6071 49.3635 27.7573 49.628 27.678L49.3409 26.7201ZM49.6263 27.6785C49.8908 27.5992 50.041 27.3205 49.9617 27.056C49.8824 26.7915 49.6037 26.6413 49.3392 26.7206L49.6263 27.6785ZM49.9827 23.8221C49.9828 23.546 49.759 23.3221 49.4828 23.322C49.2067 23.322 48.9828 23.5458 48.9827 23.8219L49.9827 23.8221ZM48.9844 15.3776C48.9844 15.6538 49.2082 15.8777 49.4843 15.8777C49.7605 15.8778 49.9844 15.654 49.9844 15.3778L48.9844 15.3776ZM49.2615 11.5528L45.7637 13.3012L46.2108 14.1957L49.7086 12.4472L49.2615 11.5528ZM37.019 17.6724L30.0232 21.1694L30.4703 22.0638L37.4661 18.5669L37.019 17.6724ZM21.2785 25.5406L17.7806 27.289L18.2277 28.1835L21.7256 26.435L21.2785 25.5406ZM17.5042 27.7362L17.5037 32.683L18.5037 32.6831L18.5042 27.7363L17.5042 27.7362ZM17.5026 45.05L17.5016 54.9435L18.5016 54.9436L18.5026 45.0501L17.5026 45.05ZM17.5005 67.3105L17.5 72.2573L18.5 72.2574L18.5005 67.3106L17.5005 67.3105ZM17.7764 72.7046L17.7799 72.7063L18.2271 71.8119L18.2236 71.8101L17.7764 72.7046ZM17.7887 72.7107L17.7922 72.7124L18.2393 71.818L18.2358 71.8162L17.7887 72.7107ZM17.5157 72.2652V72.2653H18.5157V72.2652H17.5157ZM17.5157 72.2656V72.2657H18.5157V72.2656H17.5157ZM17.7921 72.7129L21.288 74.4611L21.7353 73.5668L18.2394 71.8185L17.7921 72.7129ZM30.0277 78.8318L37.0195 82.3283L37.4667 81.4339L30.475 77.9374L30.0277 78.8318ZM45.7592 86.6989L49.2551 88.4472L49.7023 87.5528L46.2065 85.8045L45.7592 86.6989ZM49.7023 88.4472L53.1984 86.6996L52.7512 85.8051L49.2551 87.5528L49.7023 88.4472ZM61.9386 82.3304L68.9308 78.8351L68.4837 77.9407L61.4915 81.436L61.9386 82.3304ZM77.6711 74.466L81.1672 72.7183L80.7201 71.8239L77.224 73.5715L77.6711 74.466ZM81.4436 72.2711V70.2916H80.4436V72.2711H81.4436ZM81.4436 65.3427V63.3632H80.4436V65.3427H81.4436ZM81.0054 62.867L75.06 62.1272L74.9366 63.1196L80.8819 63.8594L81.0054 62.867ZM60.1967 60.2776L54.2514 59.5378L54.1279 60.5302L60.0733 61.27L60.1967 60.2776ZM54.6897 60.0341L54.6897 59.8049L53.6897 59.8048L53.6897 60.0339L54.6897 60.0341ZM54.6898 59.2319L54.6898 59.0027L53.6898 59.0026L53.6898 59.2318L54.6898 59.2319ZM54.2524 59.4987L60.1982 58.7484L60.073 57.7562L54.1272 58.5066L54.2524 59.4987ZM75.0627 56.8725L81.0084 56.1221L80.8832 55.13L74.9374 55.8803L75.0627 56.8725ZM81.4458 55.626V53.116H80.4458V55.626H81.4458ZM81.4458 46.8408V44.3307H80.4458V46.8408H81.4458ZM81.009 43.8347L75.0637 43.0773L74.9373 44.0693L80.8827 44.8267L81.009 43.8347ZM60.2003 41.1839L54.255 40.4265L54.1286 41.4185L60.0739 42.1759L60.2003 41.1839ZM54.6918 40.9226L54.6918 40.7099L53.6918 40.7098L53.6918 40.9224L54.6918 40.9226ZM54.6919 40.1784L54.6919 39.9658L53.6919 39.9657L53.6919 40.1783L54.6919 40.1784ZM54.2616 39.4706L50.9205 39L50.781 39.9902L54.1221 40.4609L54.2616 39.4706ZM42.5676 37.8234L35.8854 36.882L35.7459 37.8723L42.4282 38.8136L42.5676 37.8234ZM27.5325 35.7054L24.1914 35.2347L24.0519 36.225L27.393 36.6956L27.5325 35.7054ZM24.0519 36.225L27.3953 36.6959L27.5347 35.7056L24.1914 35.2347L24.0519 36.225ZM35.7536 37.8731L42.4403 38.8149L42.5798 37.8247L35.8931 36.8829L35.7536 37.8731ZM50.7987 39.9922L54.1421 40.4631L54.2815 39.4729L50.9382 39.002L50.7987 39.9922ZM54.2734 40.4642L60.2178 39.7262L60.0946 38.7338L54.1502 39.4718L54.2734 40.4642ZM75.0788 37.8813L81.0232 37.1433L80.9 36.1509L74.9556 36.8889L75.0788 37.8813ZM81.4616 36.6473L81.4621 34.6684L80.4621 34.6682L80.4616 36.647L81.4616 36.6473ZM81.4633 29.7214L81.4638 27.7425L80.4638 27.7423L80.4633 29.7211L81.4633 29.7214ZM81.1874 27.2952L77.6898 25.5461L77.2425 26.4405L80.7402 28.1896L81.1874 27.2952ZM68.9457 21.1732L61.9505 17.6749L61.5032 18.5693L68.4984 22.0676L68.9457 21.1732ZM53.2064 13.302L49.7087 11.5528L49.2615 12.4472L52.7591 14.1964L53.2064 13.302ZM48.9851 12V15.3775H49.9851V12H48.9851ZM48.9851 23.8213V27.1989H49.9851V23.8213H48.9851ZM49.3415 26.7199L49.3409 26.7201L49.628 27.678L49.6287 27.6778L49.3415 26.7199ZM49.3392 26.7206L49.3385 26.7208L49.6256 27.6787L49.6263 27.6785L49.3392 26.7206ZM49.9821 27.1999L49.9827 23.8221L48.9827 23.8219L48.9821 27.1997L49.9821 27.1999ZM49.9844 15.3778L49.9851 12.0001L48.9851 11.9999L48.9844 15.3776L49.9844 15.3778ZM49.4851 12L50.4851 12.0002C50.4852 11.6536 50.3058 11.3317 50.011 11.1494C49.7161 10.9672 49.348 10.9506 49.038 11.1055L49.4851 12ZM49.4821 27.1998L48.4821 27.1996C48.482 27.5157 48.6314 27.8132 48.885 28.0019C49.1385 28.1907 49.4664 28.2484 49.7692 28.1577L49.4821 27.1998ZM18.0042 27.7363L17.5571 26.8418C17.2183 27.0112 17.0042 27.3574 17.0042 27.7362L18.0042 27.7363ZM18 72.2573L17 72.2572C17 72.6361 17.214 72.9824 17.5528 73.1518L18 72.2573ZM18.0157 72.2652H19.0157C19.0157 71.8864 18.8017 71.5401 18.4629 71.3708L18.0157 72.2652ZM18.0157 72.2657H17.0157C17.0157 72.6444 17.2297 72.9907 17.5685 73.1601L18.0157 72.2657ZM49.4787 88L49.0314 88.8944C49.3129 89.0352 49.6443 89.0352 49.9258 88.8945L49.4787 88ZM80.9436 72.2711L81.3908 73.1656C81.7296 72.9962 81.9436 72.6499 81.9436 72.2711H80.9436ZM80.9436 63.3632H81.9436C81.9436 62.8587 81.5678 62.4332 81.0671 62.3709L80.9436 63.3632ZM54.1897 60.034L53.1897 60.0339C53.1896 60.5385 53.5655 60.964 54.0662 61.0263L54.1897 60.034ZM54.1898 59.0027L54.0646 58.0105C53.5647 58.0736 53.1898 58.4987 53.1898 59.0026L54.1898 59.0027ZM80.9458 55.626L81.071 56.6182C81.571 56.5551 81.9458 56.1299 81.9458 55.626H80.9458ZM80.9458 44.3307H81.9458C81.9458 43.8272 81.5716 43.4023 81.0722 43.3387L80.9458 44.3307ZM54.1918 40.9225L53.1918 40.9224C53.1917 41.4259 53.566 41.8509 54.0654 41.9145L54.1918 40.9225ZM54.1919 39.9658L55.1919 39.9659C55.1919 39.4674 54.8249 39.0451 54.3314 38.9755L54.1919 39.9658ZM24.1216 35.7299L24.2611 34.7396C23.7142 34.6626 23.2085 35.0435 23.1314 35.5904C23.0544 36.1373 23.4353 36.643 23.9822 36.7201L24.1216 35.7299ZM54.2118 39.968L54.0723 40.9582C54.1594 40.9705 54.2477 40.9712 54.335 40.9604L54.2118 39.968ZM80.9616 36.6471L81.0848 37.6395C81.5855 37.5773 81.9615 37.1519 81.9616 36.6474L80.9616 36.6471ZM80.9638 27.7424L81.9638 27.7427C81.9639 27.3638 81.7499 27.0175 81.4111 26.848L80.9638 27.7424ZM49.4851 12L49.9324 11.1056C49.6224 10.9506 49.2542 10.9671 48.9594 11.1493C48.6646 11.3315 48.4851 11.6534 48.4851 12H49.4851ZM49.4851 27.1989L49.7722 28.1568C50.1953 28.0299 50.4851 27.6406 50.4851 27.1989H49.4851ZM45.5401 12.854C45.0461 13.1009 44.8458 13.7016 45.0927 14.1956C45.3397 14.6896 45.9403 14.8899 46.4343 14.6429L45.5401 12.854ZM37.6896 19.0141C38.1836 18.7672 38.3839 18.1665 38.137 17.6725C37.8901 17.1785 37.2894 16.9783 36.7954 17.2252L37.6896 19.0141ZM29.7996 20.7221C29.3056 20.9691 29.1053 21.5697 29.3523 22.0637C29.5992 22.5577 30.1999 22.758 30.6939 22.5111L29.7996 20.7221ZM21.9492 26.8823C22.4432 26.6353 22.6435 26.0347 22.3965 25.5407C22.1496 25.0467 21.5489 24.8464 21.0549 25.0933L21.9492 26.8823ZM17.0037 32.683C17.0037 33.2353 17.4513 33.683 18.0036 33.6831C18.5559 33.6831 19.0037 33.2354 19.0037 32.6832L17.0037 32.683ZM19.0026 45.0501C19.0026 44.4978 18.5549 44.0501 18.0026 44.05C17.4504 44.05 17.0026 44.4976 17.0026 45.0499L19.0026 45.0501ZM17.0016 54.9435C17.0016 55.4958 17.4492 55.9435 18.0015 55.9436C18.5538 55.9436 19.0016 55.496 19.0016 54.9437L17.0016 54.9435ZM19.0005 67.3106C19.0005 66.7584 18.5528 66.3106 18.0006 66.3105C17.4483 66.3105 17.0005 66.7582 17.0005 67.3105L19.0005 67.3106ZM17.5563 73.1535C18.0503 73.4005 18.651 73.2002 18.8979 72.7063C19.1449 72.2123 18.9447 71.6116 18.4507 71.3646L17.5563 73.1535ZM18.4594 71.369C17.9654 71.122 17.3648 71.3223 17.1178 71.8163C16.8708 72.3103 17.0711 72.9109 17.5651 73.1579L18.4594 71.369ZM17.0157 72.2653C17.0157 72.8176 17.4635 73.2653 18.0157 73.2653C18.568 73.2653 19.0157 72.8176 19.0157 72.2653H17.0157ZM19.0157 72.2656C19.0157 71.7133 18.568 71.2656 18.0157 71.2656C17.4635 71.2656 17.0157 71.7133 17.0157 72.2656H19.0157ZM21.0643 74.9083C21.5583 75.1554 22.159 74.9552 22.406 74.4612C22.653 73.9673 22.4529 73.3666 21.9589 73.1196L21.0643 74.9083ZM30.6986 77.4902C30.2047 77.2432 29.604 77.4434 29.3569 77.9373C29.1099 78.4313 29.3101 79.032 29.8041 79.279L30.6986 77.4902ZM36.7958 82.7755C37.2898 83.0225 37.8905 82.8223 38.1375 82.3284C38.3845 81.8344 38.1843 81.2337 37.6904 80.9867L36.7958 82.7755ZM46.4301 85.3573C45.9361 85.1103 45.3354 85.3105 45.0884 85.8045C44.8414 86.2984 45.0416 86.8991 45.5355 87.1461L46.4301 85.3573ZM53.4219 87.1468C53.9159 86.8999 54.1162 86.2992 53.8693 85.8052C53.6223 85.3112 53.0217 85.1109 52.5277 85.3579L53.4219 87.1468ZM61.2679 80.9887C60.7739 81.2357 60.5736 81.8363 60.8206 82.3303C61.0675 82.8243 61.6682 83.0246 62.1622 82.7777L61.2679 80.9887ZM69.1544 79.2824C69.6484 79.0354 69.8487 78.4348 69.6017 77.9408C69.3548 77.4468 68.7541 77.2465 68.2601 77.4934L69.1544 79.2824ZM77.0004 73.1243C76.5064 73.3712 76.3061 73.9719 76.5531 74.4659C76.8 74.9599 77.4007 75.1602 77.8947 74.9132L77.0004 73.1243ZM81.9436 70.2916C81.9436 69.7393 81.4959 69.2916 80.9436 69.2916C80.3913 69.2916 79.9436 69.7393 79.9436 70.2916H81.9436ZM79.9436 65.3427C79.9436 65.895 80.3913 66.3427 80.9436 66.3427C81.4959 66.3427 81.9436 65.895 81.9436 65.3427H79.9436ZM75.1218 61.631C74.5737 61.5628 74.0742 61.9518 74.006 62.4999C73.9378 63.048 74.3268 63.5475 74.8748 63.6157L75.1218 61.631ZM60.0115 61.7662C60.5596 61.8344 61.0591 61.4454 61.1273 60.8973C61.1955 60.3492 60.8065 59.8497 60.2585 59.7815L60.0115 61.7662ZM55.1897 59.8049C55.1898 59.2526 54.7421 58.8049 54.1898 58.8048C53.6375 58.8048 53.1898 59.2524 53.1897 59.8047L55.1897 59.8049ZM53.1898 59.2317C53.1897 59.784 53.6374 60.2318 54.1896 60.2319C54.7419 60.2319 55.1897 59.7842 55.1898 59.232L53.1898 59.2317ZM60.2608 59.2444C60.8087 59.1753 61.1969 58.675 61.1277 58.1271C61.0586 57.5792 60.5583 57.191 60.0104 57.2602L60.2608 59.2444ZM74.8748 55.3843C74.3269 55.4534 73.9388 55.9537 74.0079 56.5016C74.0771 57.0495 74.5773 57.4377 75.1253 57.3685L74.8748 55.3843ZM81.9458 53.116C81.9458 52.5637 81.4981 52.116 80.9458 52.116C80.3936 52.116 79.9458 52.5637 79.9458 53.116H81.9458ZM79.9458 46.8408C79.9458 47.393 80.3936 47.8408 80.9458 47.8408C81.4981 47.8408 81.9458 47.393 81.9458 46.8408H79.9458ZM75.1269 42.5813C74.579 42.5115 74.0783 42.8991 74.0085 43.4469C73.9387 43.9948 74.3263 44.4955 74.8741 44.5653L75.1269 42.5813ZM60.0108 42.6719C60.5586 42.7416 61.0593 42.3541 61.1291 41.8062C61.1989 41.2584 60.8113 40.7577 60.2635 40.6879L60.0108 42.6719ZM55.1918 40.71C55.1919 40.1577 54.7442 39.71 54.1919 39.7099C53.6396 39.7098 53.1919 40.1575 53.1918 40.7098L55.1918 40.71ZM53.1919 40.1783C53.1918 40.7305 53.6395 41.1783 54.1917 41.1784C54.744 41.1784 55.1918 40.7308 55.1919 40.1785L53.1919 40.1783ZM50.9902 38.5049C50.4433 38.4278 49.9376 38.8087 49.8605 39.3556C49.7835 39.9025 50.1644 40.4083 50.7113 40.4853L50.9902 38.5049ZM42.3584 39.3087C42.9053 39.3857 43.4111 39.0048 43.4881 38.458C43.5652 37.9111 43.1843 37.4053 42.6374 37.3282L42.3584 39.3087ZM35.9551 36.3869C35.4082 36.3099 34.9024 36.6908 34.8254 37.2377C34.7484 37.7845 35.1293 38.2903 35.6761 38.3674L35.9551 36.3869ZM27.3233 37.1907C27.8702 37.2678 28.376 36.8869 28.453 36.34C28.53 35.7931 28.1492 35.2873 27.6023 35.2103L27.3233 37.1907ZM27.3255 37.191C27.8724 37.268 28.3782 36.8871 28.4552 36.3402C28.5323 35.7933 28.1514 35.2876 27.6045 35.2105L27.3255 37.191ZM35.9628 36.3878C35.416 36.3108 34.9102 36.6917 34.8332 37.2385C34.7561 37.7854 35.137 38.2912 35.6839 38.3682L35.9628 36.3878ZM42.3706 39.31C42.9175 39.3871 43.4233 39.0062 43.5003 38.4593C43.5773 37.9124 43.1964 37.4066 42.6495 37.3296L42.3706 39.31ZM51.0079 38.5068C50.461 38.4298 49.9553 38.8107 49.8782 39.3576C49.8012 39.9045 50.1821 40.4103 50.729 40.4873L51.0079 38.5068ZM60.2794 40.2224C60.8275 40.1544 61.2166 39.6549 61.1486 39.1068C61.0805 38.5587 60.5811 38.1696 60.033 38.2376L60.2794 40.2224ZM74.894 36.3927C74.3459 36.4608 73.9568 36.9602 74.0248 37.5083C74.0928 38.0564 74.5923 38.4455 75.1404 38.3775L74.894 36.3927ZM81.9621 34.6686C81.9622 34.1163 81.5146 33.6684 80.9623 33.6683C80.41 33.6682 79.9622 34.1158 79.9621 34.6681L81.9621 34.6686ZM79.9633 29.721C79.9632 30.2733 80.4108 30.7211 80.9631 30.7212C81.5153 30.7214 81.9632 30.2738 81.9633 29.7215L79.9633 29.721ZM77.9134 25.0989C77.4195 24.8518 76.8188 25.052 76.5718 25.546C76.3247 26.0399 76.5249 26.6406 77.0189 26.8877L77.9134 25.0989ZM68.2748 22.5148C68.7687 22.7618 69.3694 22.5616 69.6165 22.0677C69.8635 21.5737 69.6633 20.973 69.1694 20.726L68.2748 22.5148ZM62.1741 17.2277C61.6801 16.9806 61.0794 17.1808 60.8324 17.6748C60.5854 18.1687 60.7856 18.7694 61.2795 19.0164L62.1741 17.2277ZM52.5354 14.6436C53.0294 14.8906 53.6301 14.6904 53.8771 14.1964C54.1241 13.7025 53.924 13.1018 53.43 12.8548L52.5354 14.6436ZM48.4851 15.3775C48.4851 15.9298 48.9328 16.3775 49.4851 16.3775C50.0374 16.3775 50.4851 15.9298 50.4851 15.3775H48.4851ZM50.4851 23.8213C50.4851 23.2691 50.0374 22.8213 49.4851 22.8213C48.9328 22.8213 48.4851 23.2691 48.4851 23.8213H50.4851ZM49.1973 26.2412C48.6683 26.3998 48.368 26.9572 48.5265 27.4862C48.6851 28.0152 49.2425 28.3155 49.7715 28.157L49.1973 26.2412ZM49.7699 28.1575C50.2989 27.9989 50.5992 27.4415 50.4406 26.9124C50.2821 26.3834 49.7246 26.0831 49.1956 26.2417L49.7699 28.1575ZM50.4827 23.8222C50.4829 23.27 50.0352 22.8222 49.4829 22.822C48.9307 22.8219 48.4829 23.2696 48.4827 23.8218L50.4827 23.8222ZM48.4844 15.3775C48.4843 15.9298 48.9319 16.3776 49.4842 16.3777C50.0365 16.3778 50.4843 15.9302 50.4844 15.3779L48.4844 15.3775ZM49.038 11.1055L45.5401 12.854L46.4343 14.6429L49.9322 12.8945L49.038 11.1055ZM36.7954 17.2252L29.7996 20.7221L30.6939 22.5111L37.6896 19.0141L36.7954 17.2252ZM21.0549 25.0933L17.5571 26.8418L18.4513 28.6307L21.9492 26.8823L21.0549 25.0933ZM17.0042 27.7362L17.0037 32.683L19.0037 32.6832L19.0042 27.7364L17.0042 27.7362ZM17.0026 45.0499L17.0016 54.9435L19.0016 54.9437L19.0026 45.0501L17.0026 45.0499ZM17.0005 67.3105L17 72.2572L19 72.2574L19.0005 67.3106L17.0005 67.3105ZM17.5528 73.1518L17.5563 73.1535L18.4507 71.3646L18.4472 71.3629L17.5528 73.1518ZM17.5651 73.1579L17.5686 73.1596L18.4629 71.3708L18.4594 71.369L17.5651 73.1579ZM17.0157 72.2652V72.2653H19.0157V72.2652H17.0157ZM17.0157 72.2656V72.2657H19.0157V72.2656H17.0157ZM17.5685 73.1601L21.0643 74.9083L21.9589 73.1196L18.463 71.3713L17.5685 73.1601ZM29.8041 79.279L36.7958 82.7755L37.6904 80.9867L30.6986 77.4902L29.8041 79.279ZM45.5355 87.1461L49.0314 88.8944L49.926 87.1056L46.4301 85.3573L45.5355 87.1461ZM49.9258 88.8945L53.4219 87.1468L52.5277 85.3579L49.0316 87.1055L49.9258 88.8945ZM62.1622 82.7777L69.1544 79.2824L68.2601 77.4934L61.2679 80.9887L62.1622 82.7777ZM77.8947 74.9132L81.3908 73.1656L80.4965 71.3766L77.0004 73.1243L77.8947 74.9132ZM81.9436 72.2711V70.2916H79.9436V72.2711H81.9436ZM81.9436 65.3427V63.3632H79.9436V65.3427H81.9436ZM81.0671 62.3709L75.1218 61.631L74.8748 63.6157L80.8201 64.3556L81.0671 62.3709ZM60.2585 59.7815L54.3132 59.0416L54.0662 61.0263L60.0115 61.7662L60.2585 59.7815ZM55.1897 60.0341L55.1897 59.8049L53.1897 59.8047L53.1897 60.0339L55.1897 60.0341ZM55.1898 59.232L55.1898 59.0028L53.1898 59.0026L53.1898 59.2317L55.1898 59.232ZM54.315 59.9948L60.2608 59.2444L60.0104 57.2602L54.0646 58.0105L54.315 59.9948ZM75.1253 57.3685L81.071 56.6182L80.8206 54.6339L74.8748 55.3843L75.1253 57.3685ZM81.9458 55.626V53.116H79.9458V55.626H81.9458ZM81.9458 46.8408V44.3307H79.9458V46.8408H81.9458ZM81.0722 43.3387L75.1269 42.5813L74.8741 44.5653L80.8195 45.3227L81.0722 43.3387ZM60.2635 40.6879L54.3181 39.9305L54.0654 41.9145L60.0108 42.6719L60.2635 40.6879ZM55.1918 40.9226L55.1918 40.71L53.1918 40.7098L53.1918 40.9224L55.1918 40.9226ZM55.1919 40.1785L55.1919 39.9659L53.1919 39.9656L53.1919 40.1783L55.1919 40.1785ZM54.3314 38.9755L50.9902 38.5049L50.7113 40.4853L54.0524 40.956L54.3314 38.9755ZM42.6374 37.3282L35.9551 36.3869L35.6761 38.3674L42.3584 39.3087L42.6374 37.3282ZM27.6023 35.2103L24.2611 34.7396L23.9822 36.7201L27.3233 37.1907L27.6023 35.2103ZM23.9822 36.7201L27.3255 37.191L27.6045 35.2105L24.2611 34.7396L23.9822 36.7201ZM35.6839 38.3682L42.3706 39.31L42.6495 37.3296L35.9628 36.3878L35.6839 38.3682ZM50.729 40.4873L54.0723 40.9582L54.3513 38.9777L51.0079 38.5068L50.729 40.4873ZM54.335 40.9604L60.2794 40.2224L60.033 38.2376L54.0886 38.9756L54.335 40.9604ZM75.1404 38.3775L81.0848 37.6395L80.8384 35.6547L74.894 36.3927L75.1404 38.3775ZM81.9616 36.6474L81.9621 34.6686L79.9621 34.6681L79.9616 36.6469L81.9616 36.6474ZM81.9633 29.7215L81.9638 27.7427L79.9638 27.7422L79.9633 29.721L81.9633 29.7215ZM81.4111 26.848L77.9134 25.0989L77.0189 26.8877L80.5165 28.6368L81.4111 26.848ZM69.1694 20.726L62.1741 17.2277L61.2795 19.0164L68.2748 22.5148L69.1694 20.726ZM53.43 12.8548L49.9324 11.1056L49.0378 12.8944L52.5354 14.6436L53.43 12.8548ZM48.4851 12V15.3775H50.4851V12H48.4851ZM48.4851 23.8213V27.1989H50.4851V23.8213H48.4851ZM49.198 26.241L49.1973 26.2412L49.7715 28.157L49.7722 28.1568L49.198 26.241ZM49.1956 26.2417L49.1949 26.2419L49.7692 28.1577L49.7699 28.1575L49.1956 26.2417ZM50.4821 27.2L50.4827 23.8222L48.4827 23.8218L48.4821 27.1996L50.4821 27.2ZM50.4844 15.3779L50.4851 12.0002L48.4851 11.9998L48.4844 15.3775L50.4844 15.3779Z" fill="black" mask="url(#path-1-inside-1)"/>
<path d="M70.9616 30.6471L69.9502 30.6302L39.5033 21.616L39.4851 21.1989V6L70.9638 21.7424L70.9616 30.6471Z" fill="#D9A741"/>
<path d="M39.4819 22.1099L39.4851 6L8.00418 21.7363L8 66.2573L8.01574 66.2652V66.2657L39.4787 82L39.5832 81.8546L39.5426 66.8833L39.4809 66.7999L37.5143 65.3975L13.165 58.1419L13.288 29.9804L39.4819 22.1099Z" fill="#876929"/>
<path d="M44.1897 54.034L12.0216 58.5593L12.0238 29.4343L44.1919 33.9658L44.1897 54.034Z" fill="#D9A741"/>
<path d="M27.8886 52.193L39.4809 53.6688L39.4828 34.3226L27.8908 35.7971L27.8886 52.193ZM16.2111 50.707L23.734 51.6633L23.7362 36.3249L16.2111 37.2834V50.707Z" fill="#876929"/>
<path d="M12.0238 29.4343L39.4851 21.1989L70.9616 30.6471L44.2118 33.968L12.0238 29.4343Z" fill="#624A1E"/>
<path d="M70.9459 49.626L39.481 53.5969L39.4829 34.3226L70.9459 38.3307V49.626ZM70.9437 57.3632L70.2666 57.3925L39.5776 66.6821L39.481 66.7999L39.4788 82L70.9437 66.2711V57.3632Z" fill="#D9A741"/>
<path d="M12.0216 58.5593L39.481 66.7999L70.9437 57.3632L44.1897 54.034L12.0216 58.5593Z" fill="#FAD791"/>
</svg>
