<svg width="112" height="88" viewBox="0 0 112 88" fill="none" xmlns="http://www.w3.org/2000/svg">
<path d="M110.759 55.8859L103.161 54.0769L50.4825 23.6491C48.0946 22.2743 45.164 22.2743 42.7761 23.6491L11.4438 41.8479L2.65196 43.6569V49.1925C2.65196 50.495 3.30321 51.7975 4.6057 52.5573L62.3859 85.771C64.7376 87.1097 67.6321 87.1458 69.9838 85.8072L108.769 64.0265C109.855 63.4115 110.47 62.4346 110.687 61.3854H110.759V55.8859V55.8859Z" fill="white" stroke="black" stroke-width="2" stroke-miterlimit="10" stroke-linejoin="round"/>
<path d="M42.7752 18.8371L4.56869 41.0158C1.96369 42.5353 1.99987 46.2619 4.56869 47.7453L62.3489 80.959C64.7006 82.2977 67.595 82.3339 69.9468 80.9952L108.768 59.2507C111.41 57.7673 111.41 54.0046 108.805 52.485L50.4817 18.801C48.0938 17.4261 45.1632 17.4261 42.7752 18.8371Z" fill="white" stroke="black" stroke-width="2" stroke-miterlimit="10" stroke-linejoin="round"/>
<path d="M41.8689 19.3075L80.9076 41.7394L83.1146 43.0057L104.497 55.307L109.707 58.31C111.227 56.5372 110.901 53.6789 108.694 52.4126L50.3713 18.7286C47.9834 17.3537 45.0528 17.3537 42.6649 18.7286L41.7604 19.2713L41.8689 19.3075Z" fill="white"/>
<path d="M109.709 58.6718C109.636 58.6718 109.6 58.6718 109.528 58.6356L83.1883 43.5122L79.3893 41.3414L41.6893 19.6331L41.5807 19.5969C41.4722 19.5246 41.3998 19.416 41.3998 19.2713C41.3998 19.1266 41.4722 19.018 41.5807 18.9457L42.4852 18.403C44.9817 16.9558 48.057 16.9558 50.5535 18.403L108.876 52.0508C109.998 52.7021 110.722 53.7875 110.939 55.0176C111.156 56.2839 110.794 57.5502 109.962 58.5271C109.926 58.5995 109.817 58.6718 109.709 58.6718ZM42.4852 19.2713L109.636 57.8397C110.179 57.0799 110.396 56.1392 110.251 55.1623C110.07 54.1131 109.455 53.2448 108.551 52.702L50.2279 19.0542C47.9485 17.7517 45.1626 17.7517 42.8832 19.0542L42.4852 19.2713Z" fill="black"/>
<path d="M104.933 52.9191C104.354 53.4618 102.871 53.3895 102.22 52.9915C101.569 52.5935 101.641 51.5081 102.256 51.0378C102.871 50.5674 104.101 50.6759 104.716 51.0378C105.295 51.3634 105.512 52.3764 104.933 52.9191Z" fill="white" stroke="black" stroke-width="2" stroke-miterlimit="10"/>
<path d="M99.3257 49.6267C98.7468 50.1694 97.2634 50.0971 96.6122 49.6991C95.9609 49.3011 96.0333 48.2157 96.6484 47.7453C97.2634 47.275 98.4936 47.3835 99.1086 47.7453C99.6875 48.071 99.9046 49.084 99.3257 49.6267Z" fill="white" stroke="black" stroke-width="2" stroke-miterlimit="10"/>
<path d="M92.3063 45.9725C91.7274 46.5152 90.244 46.4428 89.5927 46.0448C88.9415 45.6469 89.0138 44.5614 89.6289 44.0911C90.244 43.6208 91.4741 43.7293 92.0892 44.0911C92.7042 44.4529 92.849 45.4298 92.3063 45.9725Z" fill="white" stroke="black" stroke-miterlimit="10"/>
<path d="M84.4917 71.1541C84.7812 70.9008 84.2746 70.2858 83.6234 69.8878C81.4887 68.6576 80.4033 67.2104 80.8375 66.0888C81.2716 64.931 83.2254 64.316 85.758 64.6054C86.554 64.714 87.1329 64.4245 87.1329 63.9542C87.0967 62.7602 86.9158 61.4939 86.554 60.2276C86.4093 59.7211 85.6495 59.3593 84.8535 59.3593C82.3932 59.3954 79.8244 58.3824 78.8476 57.0799C77.8345 55.705 78.3772 54.1493 80.4395 53.0277C81.0907 52.6659 81.2355 52.087 80.7651 51.7252C79.535 50.8207 78.1601 50.0247 76.6044 49.3373C75.9893 49.084 75.0848 49.1925 74.5059 49.5543C72.6607 50.7845 70.1281 51.1825 68.0296 50.6759C66.0035 50.2056 64.4839 48.8307 64.5925 47.4559C64.6286 47.0217 64.0859 46.6237 63.3623 46.5876C61.4086 46.479 59.491 46.479 57.6458 46.5514C56.9222 46.5876 56.4519 46.9494 56.5242 47.3835C56.8137 48.7584 55.7644 49.9162 53.883 50.278C52.074 50.6036 49.7585 50.0971 47.8047 48.9393C47.1897 48.5413 46.4299 48.4689 45.9595 48.6498C44.7294 49.1202 43.7163 49.7353 42.848 50.4227C42.5224 50.6759 42.9565 51.2548 43.5354 51.5805C45.3806 52.5935 46.2851 53.9684 45.8148 55.0538C45.3445 56.1392 43.4993 56.7181 41.1837 56.4648C40.4601 56.3925 39.8812 56.6457 39.9174 57.0437C39.9536 58.1291 40.1345 59.2145 40.4601 60.3361C40.6048 60.7703 41.2561 61.1321 42.0159 61.1321C44.259 61.1321 46.6108 62.0728 47.5153 63.2306C48.456 64.4607 47.9494 65.8717 46.0319 66.8124C45.4168 67.1019 45.3083 67.6084 45.7424 67.9702C46.3213 68.4044 46.9364 68.8385 47.5876 69.2003C48.2389 69.5621 48.8901 69.9239 49.6138 70.2496C50.1926 70.5028 51.0971 70.4305 51.6399 70.141C53.4127 69.0918 55.873 68.8385 58.0438 69.4174C60.1423 69.9601 61.7704 71.335 61.7704 72.6375C61.7704 73.0716 62.3855 73.4696 63.1814 73.542C65.2437 73.7953 67.3422 73.94 69.3683 74.0123C70.1642 74.0485 70.6346 73.7229 70.4537 73.2887C69.911 71.9139 70.8879 70.8646 72.8416 70.6476C74.6868 70.4305 77.1833 71.0455 79.2455 72.2395C79.3541 72.3119 79.4264 72.348 79.535 72.4204C80.1862 72.8184 81.1269 73.0355 81.5611 72.8546C82.7189 72.3842 83.7319 71.8415 84.4917 71.1541ZM58.5141 63.0135C55.2217 61.1321 54.5343 58.3824 56.886 56.9352C59.2377 55.4518 63.905 55.705 67.2336 57.6226C70.5622 59.5402 71.3582 62.507 69.0065 63.918C66.6186 65.3652 61.8066 64.931 58.5141 63.0135Z" fill="#9595EF"/>
<path d="M39.8799 55.4156C40.0246 55.2709 39.7713 54.9452 39.4095 54.7643C38.2518 54.1131 37.7091 53.3533 37.9261 52.7382C38.1432 52.1232 39.1925 51.7975 40.5311 51.9423C40.9653 51.9784 41.2547 51.8337 41.2547 51.5805C41.2186 50.9292 41.1462 50.278 40.9653 49.5905C40.8929 49.3373 40.4949 49.1202 40.0608 49.1202C38.7583 49.1202 37.3834 48.6137 36.8769 47.9262C36.3342 47.2026 36.6236 46.3705 37.7091 45.7554C38.0709 45.5745 38.1432 45.2489 37.89 45.068C37.2387 44.5614 36.5151 44.1635 35.683 43.8017C35.3573 43.6569 34.887 43.7293 34.5614 43.9102C33.5845 44.5614 32.2458 44.7785 31.1242 44.4891C30.0388 44.2358 29.2428 43.5122 29.3152 42.7886C29.3514 42.5353 29.0619 42.3544 28.6639 42.3183C27.6509 42.2821 26.6017 42.2459 25.6248 42.3183C25.2268 42.3183 24.9735 42.5353 25.0459 42.7524C25.1906 43.476 24.6479 44.0911 23.6349 44.272C22.6942 44.4529 21.464 44.1635 20.4148 43.5484C20.0892 43.3313 19.6912 43.2951 19.4379 43.4037C18.7867 43.6569 18.244 43.9826 17.7736 44.3444C17.5927 44.4891 17.846 44.7785 18.1354 44.9594C19.1123 45.5021 19.5826 46.2257 19.3656 46.8046C19.1123 47.3835 18.1354 47.673 16.9053 47.5644C16.5073 47.5282 16.2179 47.673 16.2179 47.89C16.2179 48.4689 16.3264 49.0478 16.5073 49.6267C16.5797 49.8438 16.9415 50.0247 17.3395 50.0247C18.5334 50.0247 19.7635 50.5312 20.2701 51.1463C20.7766 51.7975 20.4872 52.5573 19.4741 53.0639C19.1485 53.2086 19.0761 53.498 19.3294 53.6789C19.6188 53.896 19.9445 54.1493 20.3063 54.3302C20.6319 54.5111 20.9937 54.7282 21.3917 54.8729C21.6811 55.0176 22.1876 54.9814 22.4771 54.8005C23.4178 54.2578 24.7203 54.1131 25.878 54.4025C26.9996 54.692 27.868 55.4156 27.868 56.103C27.868 56.3201 28.1936 56.5372 28.6278 56.5734C29.7132 56.6819 30.8348 56.7904 31.9202 56.8266C32.3182 56.8266 32.5714 56.6819 32.4991 56.4286C32.2096 55.705 32.7162 55.1261 33.7654 55.0176C34.7423 54.9091 36.0809 55.2347 37.1663 55.8498C37.2387 55.8859 37.2749 55.8859 37.3111 55.9221C37.6367 56.1392 38.1432 56.2477 38.3965 56.1392C38.9392 56.103 39.4819 55.7774 39.8799 55.4156ZM26.0951 51.1101C24.3585 50.0971 23.9605 48.6498 25.2268 47.89C26.4931 47.0941 28.9534 47.2388 30.7262 48.2519C32.4991 49.2649 32.9332 50.8568 31.6669 51.6166C30.4006 52.3764 27.8318 52.1232 26.0951 51.1101Z" fill="#9595EF"/>
<path d="M41.1468 2.04941L2.9402 24.228C0.335208 25.7476 0.371388 29.4742 2.9402 30.9576L60.7204 64.1713C63.0721 65.5099 65.9666 65.5461 68.3183 64.2074L107.104 42.4268C109.745 40.9434 109.745 37.1806 107.14 35.6611L48.817 2.01323C46.4653 0.638374 43.5347 0.674554 41.1468 2.04941Z" fill="white" stroke="black" stroke-width="2" stroke-miterlimit="10" stroke-linejoin="round"/>
<path d="M85.1779 44.5614C85.1055 44.5614 85.0693 44.5614 84.997 44.5253L63.5782 32.2963C63.3973 32.1877 63.3611 31.9707 63.4334 31.7897C63.542 31.6088 63.7591 31.5727 63.94 31.645L85.3588 43.874C85.5397 43.9826 85.5759 44.1996 85.5035 44.3805C85.4311 44.4891 85.3226 44.5614 85.1779 44.5614Z" fill="#9595EF"/>
<path d="M53.9533 26.7245C53.881 26.7245 53.8448 26.7245 53.7724 26.6883L34.0903 15.4362C33.9094 15.3276 33.8732 15.1106 33.9455 14.9297C34.0541 14.7488 34.2712 14.7126 34.4521 14.7849L54.1342 26.0371C54.3151 26.1456 54.3513 26.3627 54.279 26.5436C54.2066 26.6521 54.0981 26.7245 53.9533 26.7245Z" fill="#020202"/>
<path d="M81.0175 47.0217C80.9452 47.0217 80.909 47.0217 80.8366 46.9855L71.5382 41.667C71.3573 41.5585 71.3212 41.3414 71.3935 41.1605C71.4659 40.9796 71.7191 40.9434 71.9 41.0158L81.1984 46.3343C81.3793 46.4428 81.4155 46.6599 81.3431 46.8408C81.2708 46.9855 81.1261 47.0217 81.0175 47.0217Z" fill="#020202"/>
<path d="M66.5815 38.8088C66.5091 38.8088 66.4729 38.8088 66.4006 38.7726L57.066 33.4179C56.8851 33.3093 56.8489 33.0922 56.9213 32.9113C57.0298 32.7304 57.2469 32.6943 57.4278 32.7666L66.7624 38.1213C66.9433 38.2299 66.9795 38.447 66.9071 38.6279C66.8347 38.7364 66.7262 38.8088 66.5815 38.8088Z" fill="#020202"/>
<path d="M51.2401 30.0169C51.1677 30.0169 51.1315 30.0169 51.0592 29.9807L42.1226 24.8793C41.9417 24.7707 41.9055 24.5537 41.9779 24.3728C42.0864 24.1919 42.3035 24.1557 42.4844 24.228L51.421 29.3295C51.6019 29.438 51.638 29.6551 51.5657 29.836C51.4933 29.9445 51.3486 30.0169 51.2401 30.0169Z" fill="#020202"/>
<path d="M39.5183 23.3235C39.446 23.3235 39.4098 23.3235 39.3374 23.2873L29.9667 17.9326C29.7858 17.8241 29.7496 17.607 29.822 17.4261C29.9305 17.2452 30.1476 17.209 30.3285 17.2814L39.6992 22.6361C39.8801 22.7446 39.9163 22.9617 39.844 23.1426C39.7716 23.2512 39.6631 23.3235 39.5183 23.3235Z" fill="#020202"/>
<path d="M73.0584 51.6166C72.986 51.6166 72.9498 51.6166 72.8775 51.5805L59.4907 43.9102C59.3098 43.8017 59.2736 43.5846 59.346 43.4037C59.4545 43.2228 59.6716 43.1866 59.8525 43.259L73.2393 50.9292C73.4202 51.0377 73.4563 51.2548 73.384 51.4357C73.3116 51.5443 73.2031 51.6166 73.0584 51.6166Z" fill="#020202"/>
<path d="M53.9549 40.6901C53.8825 40.6901 53.8464 40.6901 53.774 40.654L45.0907 35.6972C44.9098 35.5887 44.8736 35.3716 44.946 35.1907C45.0183 35.0098 45.2716 34.9736 45.4525 35.046L54.1358 40.0027C54.3167 40.1113 54.3529 40.3283 54.2805 40.5092C54.2082 40.654 54.0996 40.6901 53.9549 40.6901Z" fill="#020202"/>
<path d="M41.2566 33.4541C41.1842 33.4541 41.1481 33.4541 41.0757 33.4179L35.5039 30.234C35.323 30.1255 35.2868 29.9084 35.3592 29.7275C35.4677 29.5466 35.6848 29.5104 35.8657 29.5827L41.4375 32.7666C41.6184 32.8752 41.6546 33.0922 41.5822 33.2731C41.5099 33.3817 41.4013 33.4541 41.2566 33.4541Z" fill="#9595EF"/>
<path d="M30.7985 27.4843C30.7261 27.4843 30.6899 27.4843 30.6176 27.4481L22.0066 22.4914C21.8257 22.3828 21.7895 22.1657 21.8619 21.9848C21.9704 21.8039 22.1875 21.7678 22.3684 21.8401L30.9794 26.7607C31.1603 26.8692 31.1964 27.0863 31.1241 27.2672C31.0517 27.4119 30.9432 27.4843 30.7985 27.4843Z" fill="#020202"/>
<path d="M68.897 54.1131C68.8246 54.1131 68.7885 54.1131 68.7161 54.0769L50.7344 43.8017C50.5535 43.6931 50.5173 43.476 50.5897 43.2951C50.6621 43.1142 50.9153 43.0781 51.0962 43.1504L69.0779 53.4257C69.2588 53.5342 69.295 53.7513 69.2226 53.9322C69.1503 54.0407 69.0417 54.1131 68.897 54.1131Z" fill="#020202"/>
<path d="M44.7282 40.2922C44.6558 40.2922 44.6197 40.2922 44.5473 40.256L37.275 36.0952C37.0941 35.9867 37.0579 35.7696 37.1303 35.5887C37.2027 35.4078 37.4559 35.3716 37.6368 35.444L44.9091 39.6047C45.09 39.7133 45.1262 39.9304 45.0538 40.1113C44.9815 40.2198 44.8729 40.2922 44.7282 40.2922Z" fill="#020202"/>
<path d="M30.7995 32.3325C30.7272 32.3325 30.691 32.3325 30.6186 32.2963L17.8469 24.9878C17.666 24.8793 17.6298 24.6622 17.7022 24.4813C17.8107 24.3004 18.0278 24.2642 18.2087 24.3366L30.9804 31.645C31.1613 31.7536 31.1975 31.9706 31.1252 32.1516C31.0528 32.2601 30.9442 32.3325 30.7995 32.3325Z" fill="#9595EF"/>
<path d="M93.1743 39.7856C93.1019 39.7856 93.0657 39.7856 92.9934 39.7494L83.2608 34.1777C83.0799 34.0691 83.0437 33.852 83.1161 33.6711C83.1885 33.4902 83.4417 33.4541 83.6226 33.5264L93.3552 39.0982C93.5361 39.2067 93.5722 39.4238 93.4999 39.6047C93.4275 39.7133 93.2828 39.7856 93.1743 39.7856Z" fill="#020202"/>
<path d="M76.0601 30.0169C75.9878 30.0169 75.9516 30.0169 75.8792 29.9807L62.8181 22.5276C62.6372 22.419 62.601 22.2019 62.6734 22.021C62.7819 21.8401 62.999 21.8039 63.1799 21.8763L76.241 29.3295C76.4219 29.438 76.4581 29.6551 76.3857 29.836C76.3134 29.9445 76.2048 30.0169 76.0601 30.0169Z" fill="#020202"/>
<path d="M55.5093 18.2583C55.437 18.2583 55.4008 18.2583 55.3284 18.2221L42.1226 10.6604C41.9417 10.5518 41.9055 10.3347 41.9779 10.1538C42.0864 9.97293 42.3035 9.93675 42.4844 10.0091L55.6902 17.5708C55.8711 17.6794 55.9073 17.8965 55.835 18.0774C55.7626 18.1859 55.6541 18.2583 55.5093 18.2583Z" fill="#9595EF"/>
<path d="M89.5552 42.1735C89.4829 42.1735 89.4467 42.1735 89.3743 42.1374L72.8761 32.7304C72.6952 32.6219 72.659 32.4048 72.7313 32.2239C72.8037 32.043 73.057 32.0068 73.2379 32.0792L89.7362 41.4861C89.9171 41.5947 89.9532 41.8117 89.8809 41.9926C89.8085 42.1374 89.7 42.1735 89.5552 42.1735Z" fill="#020202"/>
<path d="M66.5815 29.0762C66.5091 29.0762 66.4729 29.0762 66.4006 29.04L50.7344 20.1035C50.5535 19.9949 50.5173 19.7778 50.5897 19.5969C50.6621 19.416 50.9153 19.3799 51.0962 19.4522L66.7624 28.3888C66.9433 28.4973 66.9794 28.7144 66.9071 28.8953C66.8347 29.0039 66.7262 29.0762 66.5815 29.0762Z" fill="#020202"/>
<path d="M45.3082 16.8834C45.2359 16.8834 45.1997 16.8834 45.1273 16.8472L38.5063 13.0483C38.3254 12.9397 38.2892 12.7226 38.3616 12.5417C38.434 12.3608 38.6872 12.3247 38.8681 12.397L45.4892 16.196C45.6701 16.3045 45.7062 16.5216 45.6339 16.7025C45.5615 16.8472 45.4168 16.8834 45.3082 16.8834Z" fill="#020202"/>
<path opacity="0.42" d="M55.0779 40.1112C65.1288 40.1112 73.2767 36.0778 73.2767 31.1023C73.2767 26.1268 65.1288 22.0934 55.0779 22.0934C45.027 22.0934 36.8792 26.1268 36.8792 31.1023C36.8792 36.0778 45.027 40.1112 55.0779 40.1112Z" fill="#9595EF"/>
<path d="M75.7726 15.5085C73.1315 10.4795 64.8823 6.82523 55.0774 6.82523C45.4534 6.82523 37.3128 10.3709 34.5269 15.2553L33.5139 14.5678V18.9457C33.5139 25.6391 43.174 31.1023 55.0774 31.1023C66.9808 31.1023 76.641 25.6752 76.641 18.9457V14.5678L75.7726 15.5085Z" fill="white" stroke="black" stroke-width="2" stroke-miterlimit="10" stroke-linejoin="round"/>
<path d="M55.0773 26.7245C66.9865 26.7245 76.6409 21.2818 76.6409 14.5678C76.6409 7.85392 66.9865 2.41121 55.0773 2.41121C43.1681 2.41121 33.5138 7.85392 33.5138 14.5678C33.5138 21.2818 43.1681 26.7245 55.0773 26.7245Z" fill="white" stroke="black" stroke-width="2" stroke-miterlimit="10" stroke-linejoin="round"/>
<path d="M49.3698 9.79223C48.121 10.708 48.4957 12.6645 49.4531 13.2473C50.3689 13.8301 52.8249 13.4971 53.9489 12.8727C55.947 11.7904 55.6556 10.0836 54.6982 9.70898C53.2412 9.25107 50.6187 8.91805 49.3698 9.79223Z" fill="#9595EF"/>
<path d="M43.791 13.9966C43.791 13.9966 44.8733 14.0382 45.4145 14.2464C45.581 14.3296 47.2045 14.9541 47.9538 14.8708C48.7447 14.7875 53.5319 14.2048 54.9472 13.1641C56.4458 11.9985 56.6123 11.4157 57.0702 10.708C57.9444 9.50083 55.7798 8.00224 55.6965 7.66922C55.6133 7.3362 56.3209 6.96155 56.5707 7.00318C56.987 7.08643 57.2784 7.25294 58.1525 7.87736C59.0267 8.50177 59.3597 10.7497 59.8176 10.9578C60.3172 11.1243 61.4411 10.1669 61.899 9.87548C62.3569 9.58409 63.7723 9.12619 64.2302 9.58409C64.5216 9.87548 64.2302 10.375 64.2302 10.375C64.2302 10.375 62.1072 11.3741 61.8574 11.7904C61.6076 12.165 61.8574 12.2899 62.1904 12.2899C62.5234 12.2899 68.1432 12.7062 68.6011 13.7885C69.059 14.8708 68.0183 14.621 68.0183 14.621C68.0183 14.621 63.4392 13.1641 62.4818 13.8301C62.0655 14.1215 62.3569 15.8699 62.3153 16.5775C62.3153 16.5775 62.1072 17.1603 62.0655 17.2852C62.0655 17.2852 61.9407 16.9522 61.4828 16.5775C60.9832 16.1613 57.653 14.2048 57.2784 14.5794C56.9453 14.9541 60.0674 17.535 61.2746 17.9512C61.3162 17.9512 60.2339 18.2426 59.9425 18.2426C59.3181 18.2426 58.1525 18.1178 57.7779 18.0345C56.3626 17.6182 54.7807 17.6182 54.6975 17.9096C54.6142 18.3259 56.654 21.0733 56.7372 21.2815C56.8205 21.4896 56.7788 21.9891 56.3209 22.1556C55.9047 22.3638 55.197 22.2805 54.9472 22.0307C54.7391 21.781 53.407 20.0742 53.1572 19.7412C52.5744 18.7838 52.7826 18.201 52.6993 17.6598C52.6993 17.6598 52.3663 17.2436 51.7003 17.5766C51.0342 17.9096 49.2026 19.2833 48.8696 19.325C48.5366 19.3666 47.4959 19.2833 47.4542 18.8254C47.4126 18.3259 50.7845 17.1603 50.7845 16.6192C50.7845 16.078 49.7854 16.2029 48.7863 16.3278C47.7873 16.4526 46.4552 16.2445 45.7059 16.1196C44.9566 15.9531 43.0001 15.4952 43.0001 14.6627C43.0001 14.1631 43.791 13.9966 43.791 13.9966Z" fill="#9595EF"/>
<path d="M83.405 36.059L86.4442 34.4671L86.4804 31.4641L86.2271 31.2832" fill="white"/>
<path d="M83.405 36.059L86.4442 34.4671L86.4804 31.4641L86.2271 31.2832" stroke="black" stroke-width="2" stroke-miterlimit="10"/>
<path d="M68.6079 27.3034L68.5717 24.3728L68.6441 24.2642L71.3214 22.7446L86.1554 31.247L83.3695 32.7304L83.2972 35.8058L68.6079 27.3034Z" fill="white"/>
<path d="M71.3219 23.1426L85.3961 31.2109L83.37 32.2963L83.0082 32.4772V32.9113L82.972 35.1545L68.9702 27.0501L68.934 24.5175L71.3219 23.1426ZM71.3219 22.3105L68.3913 23.9748L68.1742 24.2642L68.2104 27.5205L83.6232 36.4208V35.9505L83.6956 32.9475L86.8795 31.247L71.3219 22.3105Z" fill="black"/>
<path d="M68.4255 24.228L83.4042 32.8028" stroke="black" stroke-width="2" stroke-miterlimit="10"/>
<path d="M86.0833 34.25L83.6592 35.5525L83.7316 32.9475L86.0833 31.6812V34.25Z" fill="#9595EF"/>
</svg>
